<?xml version="1.0" encoding="UTF-8" standalone="no"?>
<!DOCTYPE svg PUBLIC "-//W3C//DTD SVG 1.1//EN"
 "http://www.w3.org/Graphics/SVG/1.1/DTD/svg11.dtd">
<!-- Generated by graphviz version 12.2.1 (20241206.2353)
 -->
<!-- Title: applications/allen_cahn_explicit/main.cc Pages: 1 -->
<svg width="470pt" height="181pt"
 viewBox="0.00 0.00 469.75 180.50" xmlns="http://www.w3.org/2000/svg" xmlns:xlink="http://www.w3.org/1999/xlink">
<g id="graph0" class="graph" transform="scale(1 1) rotate(0) translate(4 176.5)">
<title>applications/allen_cahn_explicit/main.cc</title>
<!-- Node1 -->
<g id="Node000001" class="node">
<title>Node1</title>
<g id="a_Node000001"><a xlink:title=" ">
<polygon fill="#999999" stroke="#666666" points="315.62,-172.5 188.62,-172.5 188.62,-139 315.62,-139 315.62,-172.5"/>
<text text-anchor="start" x="196.62" y="-159" font-family="Helvetica,sans-Serif" font-size="10.00">applications/allen</text>
<text text-anchor="middle" x="252.12" y="-146.25" font-family="Helvetica,sans-Serif" font-size="10.00">_cahn_explicit/main.cc</text>
</a>
</g>
</g>
<!-- Node2 -->
<g id="Node000002" class="node">
<title>Node2</title>
<g id="a_Node000002"><a xlink:href="allen__cahn__explicit_2custom__pde_8h.html" target="_top" xlink:title=" ">
<polygon fill="white" stroke="#666666" points="177.25,-96.62 93,-96.62 93,-75.88 177.25,-75.88 177.25,-96.62"/>
<text text-anchor="middle" x="135.12" y="-83.12" font-family="Helvetica,sans-Serif" font-size="10.00">custom_pde.h</text>
</a>
</g>
</g>
<!-- Node1&#45;&gt;Node2 -->
<g id="edge1_Node000001_Node000002" class="edge">
<title>Node1&#45;&gt;Node2</title>
<g id="a_edge1_Node000001_Node000002"><a xlink:title=" ">
<path fill="none" stroke="#63b8ff" d="M224.1,-138.58C205.25,-127.71 180.54,-113.45 161.95,-102.73"/>
<polygon fill="#63b8ff" stroke="#63b8ff" points="163.78,-99.74 153.37,-97.78 160.29,-105.81 163.78,-99.74"/>
</a>
</g>
</g>
<!-- Node5 -->
<g id="Node000005" class="node">
<title>Node5</title>
<g id="a_Node000005"><a xlink:title=" ">
<polygon fill="#e0e0e0" stroke="#999999" points="308.5,-103 195.75,-103 195.75,-69.5 308.5,-69.5 308.5,-103"/>
<text text-anchor="start" x="203.75" y="-89.5" font-family="Helvetica,sans-Serif" font-size="10.00">prismspf/core/parse</text>
<text text-anchor="middle" x="252.12" y="-76.75" font-family="Helvetica,sans-Serif" font-size="10.00">_cmd_options.h</text>
</a>
</g>
</g>
<!-- Node1&#45;&gt;Node5 -->
<g id="edge4_Node000001_Node000005" class="edge">
<title>Node1&#45;&gt;Node5</title>
<g id="a_edge4_Node000001_Node000005"><a xlink:title=" ">
<path fill="none" stroke="#63b8ff" d="M252.12,-138.75C252.12,-131.52 252.12,-122.78 252.12,-114.56"/>
<polygon fill="#63b8ff" stroke="#63b8ff" points="255.63,-114.65 252.13,-104.65 248.63,-114.65 255.63,-114.65"/>
</a>
</g>
</g>
<!-- Node6 -->
<g id="Node000006" class="node">
<title>Node6</title>
<g id="a_Node000006"><a xlink:title=" ">
<polygon fill="#e0e0e0" stroke="#999999" points="461.75,-96.62 326.5,-96.62 326.5,-75.88 461.75,-75.88 461.75,-96.62"/>
<text text-anchor="middle" x="394.12" y="-83.12" font-family="Helvetica,sans-Serif" font-size="10.00">prismspf/core/problem.h</text>
</a>
</g>
</g>
<!-- Node1&#45;&gt;Node6 -->
<g id="edge5_Node000001_Node000006" class="edge">
<title>Node1&#45;&gt;Node6</title>
<g id="a_edge5_Node000001_Node000006"><a xlink:title=" ">
<path fill="none" stroke="#63b8ff" d="M286.14,-138.58C309.65,-127.4 340.68,-112.65 363.44,-101.84"/>
<polygon fill="#63b8ff" stroke="#63b8ff" points="364.67,-105.13 372.2,-97.67 361.67,-98.8 364.67,-105.13"/>
</a>
</g>
</g>
<!-- Node3 -->
<g id="Node000003" class="node">
<title>Node3</title>
<g id="a_Node000003"><a xlink:title=" ">
<polygon fill="#e0e0e0" stroke="#999999" points="150.25,-33.5 0,-33.5 0,0 150.25,0 150.25,-33.5"/>
<text text-anchor="start" x="8" y="-20" font-family="Helvetica,sans-Serif" font-size="10.00">prismspf/core/pde_operator</text>
<text text-anchor="middle" x="75.12" y="-7.25" font-family="Helvetica,sans-Serif" font-size="10.00">_base.h</text>
</a>
</g>
</g>
<!-- Node2&#45;&gt;Node3 -->
<g id="edge2_Node000002_Node000003" class="edge">
<title>Node2&#45;&gt;Node3</title>
<g id="a_edge2_Node000002_Node000003"><a xlink:title=" ">
<path fill="none" stroke="#63b8ff" d="M126.53,-75.58C118.83,-66.92 107.22,-53.86 96.98,-42.33"/>
<polygon fill="#63b8ff" stroke="#63b8ff" points="99.76,-40.2 90.5,-35.05 94.53,-44.85 99.76,-40.2"/>
</a>
</g>
</g>
<!-- Node4 -->
<g id="Node000004" class="node">
<title>Node4</title>
<g id="a_Node000004"><a xlink:title=" ">
<polygon fill="#e0e0e0" stroke="#999999" points="221.88,-27.12 168.38,-27.12 168.38,-6.38 221.88,-6.38 221.88,-27.12"/>
<text text-anchor="middle" x="195.12" y="-13.62" font-family="Helvetica,sans-Serif" font-size="10.00">random</text>
</a>
</g>
</g>
<!-- Node2&#45;&gt;Node4 -->
<g id="edge3_Node000002_Node000004" class="edge">
<title>Node2&#45;&gt;Node4</title>
<g id="a_edge3_Node000002_Node000004"><a xlink:title=" ">
<path fill="none" stroke="#63b8ff" d="M143.72,-75.58C152.9,-65.25 167.66,-48.65 179.01,-35.88"/>
<polygon fill="#63b8ff" stroke="#63b8ff" points="181.51,-38.33 185.54,-28.53 176.28,-33.68 181.51,-38.33"/>
</a>
</g>
</g>
</g>
</svg>
