<?xml version="1.0" encoding="UTF-8" standalone="no"?>
<!DOCTYPE svg PUBLIC "-//W3C//DTD SVG 1.1//EN"
 "http://www.w3.org/Graphics/SVG/1.1/DTD/svg11.dtd">
<!-- Generated by graphviz version 12.2.1 (20241206.2353)
 -->
<!-- Title: applications/blank/main.cc Pages: 1 -->
<svg width="1680pt" height="111pt"
 viewBox="0.00 0.00 1680.12 111.00" xmlns="http://www.w3.org/2000/svg" xmlns:xlink="http://www.w3.org/1999/xlink">
<g id="graph0" class="graph" transform="scale(1 1) rotate(0) translate(4 107)">
<title>applications/blank/main.cc</title>
<!-- Node1 -->
<g id="Node000001" class="node">
<title>Node1</title>
<g id="a_Node000001"><a xlink:title=" ">
<polygon fill="#999999" stroke="#666666" points="910.75,-103 805.5,-103 805.5,-69.5 910.75,-69.5 910.75,-103"/>
<text text-anchor="start" x="813.5" y="-89.5" font-family="Helvetica,sans-Serif" font-size="10.00">applications/blank</text>
<text text-anchor="middle" x="858.12" y="-76.75" font-family="Helvetica,sans-Serif" font-size="10.00">/main.cc</text>
</a>
</g>
</g>
<!-- Node2 -->
<g id="Node000002" class="node">
<title>Node2</title>
<g id="a_Node000002"><a xlink:title=" ">
<polygon fill="#e0e0e0" stroke="#999999" points="126.25,-33.5 0,-33.5 0,0 126.25,0 126.25,-33.5"/>
<text text-anchor="start" x="8" y="-20" font-family="Helvetica,sans-Serif" font-size="10.00">deal.II/base/parameter</text>
<text text-anchor="middle" x="63.12" y="-7.25" font-family="Helvetica,sans-Serif" font-size="10.00">_handler.h</text>
</a>
</g>
</g>
<!-- Node1&#45;&gt;Node2 -->
<g id="edge1_Node000001_Node000002" class="edge">
<title>Node1&#45;&gt;Node2</title>
<g id="a_edge1_Node000001_Node000002"><a xlink:title=" ">
<path fill="none" stroke="#63b8ff" d="M805.23,-84.07C687.15,-80.87 393.01,-69.8 137.98,-33.79"/>
<polygon fill="#63b8ff" stroke="#63b8ff" points="138.53,-30.33 128.14,-32.38 137.54,-37.26 138.53,-30.33"/>
</a>
</g>
</g>
<!-- Node3 -->
<g id="Node000003" class="node">
<title>Node3</title>
<g id="a_Node000003"><a xlink:title=" ">
<polygon fill="#e0e0e0" stroke="#999999" points="306.25,-27.12 144,-27.12 144,-6.38 306.25,-6.38 306.25,-27.12"/>
<text text-anchor="middle" x="225.12" y="-13.62" font-family="Helvetica,sans-Serif" font-size="10.00">prismspf/core/dependencies.h</text>
</a>
</g>
</g>
<!-- Node1&#45;&gt;Node3 -->
<g id="edge2_Node000001_Node000003" class="edge">
<title>Node1&#45;&gt;Node3</title>
<g id="a_edge2_Node000001_Node000003"><a xlink:title=" ">
<path fill="none" stroke="#63b8ff" d="M805.27,-81.55C708.14,-74.45 494.83,-57.46 316.12,-33.5 307.41,-32.33 298.25,-30.94 289.24,-29.48"/>
<polygon fill="#63b8ff" stroke="#63b8ff" points="289.88,-26.04 279.44,-27.84 288.73,-32.94 289.88,-26.04"/>
</a>
</g>
</g>
<!-- Node4 -->
<g id="Node000004" class="node">
<title>Node4</title>
<g id="a_Node000004"><a xlink:title=" ">
<polygon fill="#e0e0e0" stroke="#999999" points="431.5,-33.5 324.75,-33.5 324.75,0 431.5,0 431.5,-33.5"/>
<text text-anchor="start" x="332.75" y="-20" font-family="Helvetica,sans-Serif" font-size="10.00">prismspf/core/field</text>
<text text-anchor="middle" x="378.12" y="-7.25" font-family="Helvetica,sans-Serif" font-size="10.00">_attributes.h</text>
</a>
</g>
</g>
<!-- Node1&#45;&gt;Node4 -->
<g id="edge3_Node000001_Node000004" class="edge">
<title>Node1&#45;&gt;Node4</title>
<g id="a_edge3_Node000001_Node000004"><a xlink:title=" ">
<path fill="none" stroke="#63b8ff" d="M805.15,-80.76C727.74,-73.73 579.04,-58.52 443.01,-33.71"/>
<polygon fill="#63b8ff" stroke="#63b8ff" points="443.94,-30.32 433.48,-31.95 442.67,-37.21 443.94,-30.32"/>
</a>
</g>
</g>
<!-- Node5 -->
<g id="Node000005" class="node">
<title>Node5</title>
<g id="a_Node000005"><a xlink:title=" ">
<polygon fill="#e0e0e0" stroke="#999999" points="562.5,-33.5 449.75,-33.5 449.75,0 562.5,0 562.5,-33.5"/>
<text text-anchor="start" x="457.75" y="-20" font-family="Helvetica,sans-Serif" font-size="10.00">prismspf/core/parse</text>
<text text-anchor="middle" x="506.12" y="-7.25" font-family="Helvetica,sans-Serif" font-size="10.00">_cmd_options.h</text>
</a>
</g>
</g>
<!-- Node1&#45;&gt;Node5 -->
<g id="edge4_Node000001_Node000005" class="edge">
<title>Node1&#45;&gt;Node5</title>
<g id="a_edge4_Node000001_Node000005"><a xlink:title=" ">
<path fill="none" stroke="#63b8ff" d="M805.05,-76.65C749.67,-67.46 660.09,-51.99 573.85,-34.01"/>
<polygon fill="#63b8ff" stroke="#63b8ff" points="574.79,-30.63 564.28,-32 573.35,-37.48 574.79,-30.63"/>
</a>
</g>
</g>
<!-- Node6 -->
<g id="Node000006" class="node">
<title>Node6</title>
<g id="a_Node000006"><a xlink:title=" ">
<polygon fill="#e0e0e0" stroke="#999999" points="695.62,-33.5 580.62,-33.5 580.62,0 695.62,0 695.62,-33.5"/>
<text text-anchor="start" x="588.62" y="-20" font-family="Helvetica,sans-Serif" font-size="10.00">prismspf/core/phase</text>
<text text-anchor="middle" x="638.12" y="-7.25" font-family="Helvetica,sans-Serif" font-size="10.00">_field_tools.h</text>
</a>
</g>
</g>
<!-- Node1&#45;&gt;Node6 -->
<g id="edge5_Node000001_Node000006" class="edge">
<title>Node1&#45;&gt;Node6</title>
<g id="a_edge5_Node000001_Node000006"><a xlink:title=" ">
<path fill="none" stroke="#63b8ff" d="M805.43,-69.08C774.25,-59.52 734.55,-47.33 701.65,-37.24"/>
<polygon fill="#63b8ff" stroke="#63b8ff" points="702.81,-33.93 692.22,-34.35 700.75,-40.63 702.81,-33.93"/>
</a>
</g>
</g>
<!-- Node7 -->
<g id="Node000007" class="node">
<title>Node7</title>
<g id="a_Node000007"><a xlink:title=" ">
<polygon fill="#e0e0e0" stroke="#999999" points="848.75,-27.12 713.5,-27.12 713.5,-6.38 848.75,-6.38 848.75,-27.12"/>
<text text-anchor="middle" x="781.12" y="-13.62" font-family="Helvetica,sans-Serif" font-size="10.00">prismspf/core/problem.h</text>
</a>
</g>
</g>
<!-- Node1&#45;&gt;Node7 -->
<g id="edge6_Node000001_Node000007" class="edge">
<title>Node1&#45;&gt;Node7</title>
<g id="a_edge6_Node000001_Node000007"><a xlink:title=" ">
<path fill="none" stroke="#63b8ff" d="M839.88,-69.25C828.11,-58.94 812.82,-45.53 800.78,-34.98"/>
<polygon fill="#63b8ff" stroke="#63b8ff" points="803.29,-32.53 793.47,-28.57 798.68,-37.79 803.29,-32.53"/>
</a>
</g>
</g>
<!-- Node8 -->
<g id="Node000008" class="node">
<title>Node8</title>
<g id="a_Node000008"><a xlink:title=" ">
<polygon fill="#e0e0e0" stroke="#999999" points="1003.88,-33.5 866.38,-33.5 866.38,0 1003.88,0 1003.88,-33.5"/>
<text text-anchor="start" x="874.38" y="-20" font-family="Helvetica,sans-Serif" font-size="10.00">prismspf/core/simulation</text>
<text text-anchor="middle" x="935.12" y="-7.25" font-family="Helvetica,sans-Serif" font-size="10.00">_timer.h</text>
</a>
</g>
</g>
<!-- Node1&#45;&gt;Node8 -->
<g id="edge7_Node000001_Node000008" class="edge">
<title>Node1&#45;&gt;Node8</title>
<g id="a_edge7_Node000001_Node000008"><a xlink:title=" ">
<path fill="none" stroke="#63b8ff" d="M876.37,-69.25C885.89,-60.91 897.72,-50.54 908.27,-41.3"/>
<polygon fill="#63b8ff" stroke="#63b8ff" points="910.39,-44.09 915.6,-34.86 905.78,-38.82 910.39,-44.09"/>
</a>
</g>
</g>
<!-- Node9 -->
<g id="Node000009" class="node">
<title>Node9</title>
<g id="a_Node000009"><a xlink:title=" ">
<polygon fill="#e0e0e0" stroke="#999999" points="1134.12,-33.5 1022.12,-33.5 1022.12,0 1134.12,0 1134.12,-33.5"/>
<text text-anchor="start" x="1030.12" y="-20" font-family="Helvetica,sans-Serif" font-size="10.00">prismspf/core/solve</text>
<text text-anchor="middle" x="1078.12" y="-7.25" font-family="Helvetica,sans-Serif" font-size="10.00">_block.h</text>
</a>
</g>
</g>
<!-- Node1&#45;&gt;Node9 -->
<g id="edge8_Node000001_Node000009" class="edge">
<title>Node1&#45;&gt;Node9</title>
<g id="a_edge8_Node000001_Node000009"><a xlink:title=" ">
<path fill="none" stroke="#63b8ff" d="M910.82,-69.08C942,-59.52 981.7,-47.33 1014.6,-37.24"/>
<polygon fill="#63b8ff" stroke="#63b8ff" points="1015.5,-40.63 1024.03,-34.35 1013.44,-33.93 1015.5,-40.63"/>
</a>
</g>
</g>
<!-- Node10 -->
<g id="Node000010" class="node">
<title>Node10</title>
<g id="a_Node000010"><a xlink:title=" ">
<polygon fill="#e0e0e0" stroke="#999999" points="1259.88,-33.5 1152.38,-33.5 1152.38,0 1259.88,0 1259.88,-33.5"/>
<text text-anchor="start" x="1160.38" y="-20" font-family="Helvetica,sans-Serif" font-size="10.00">prismspf/core/type</text>
<text text-anchor="middle" x="1206.12" y="-7.25" font-family="Helvetica,sans-Serif" font-size="10.00">_enums.h</text>
</a>
</g>
</g>
<!-- Node1&#45;&gt;Node10 -->
<g id="edge9_Node000001_Node000010" class="edge">
<title>Node1&#45;&gt;Node10</title>
<g id="a_edge9_Node000001_Node000010"><a xlink:title=" ">
<path fill="none" stroke="#63b8ff" d="M911.12,-76.69C966.15,-67.57 1054.97,-52.18 1140.88,-33.91"/>
<polygon fill="#63b8ff" stroke="#63b8ff" points="1141.36,-37.39 1150.4,-31.87 1139.89,-30.54 1141.36,-37.39"/>
</a>
</g>
</g>
<!-- Node11 -->
<g id="Node000011" class="node">
<title>Node11</title>
<g id="a_Node000011"><a xlink:title=" ">
<polygon fill="#e0e0e0" stroke="#999999" points="1396.12,-33.5 1278.12,-33.5 1278.12,0 1396.12,0 1396.12,-33.5"/>
<text text-anchor="start" x="1286.12" y="-20" font-family="Helvetica,sans-Serif" font-size="10.00">prismspf/user_inputs</text>
<text text-anchor="middle" x="1337.12" y="-7.25" font-family="Helvetica,sans-Serif" font-size="10.00">/input_file_reader.h</text>
</a>
</g>
</g>
<!-- Node1&#45;&gt;Node11 -->
<g id="edge10_Node000001_Node000011" class="edge">
<title>Node1&#45;&gt;Node11</title>
<g id="a_edge10_Node000001_Node000011"><a xlink:title=" ">
<path fill="none" stroke="#63b8ff" d="M910.94,-80.35C987.28,-72.88 1133.08,-57.17 1266.63,-33.84"/>
<polygon fill="#63b8ff" stroke="#63b8ff" points="1267.13,-37.3 1276.37,-32.12 1265.91,-30.41 1267.13,-37.3"/>
</a>
</g>
</g>
<!-- Node12 -->
<g id="Node000012" class="node">
<title>Node12</title>
<g id="a_Node000012"><a xlink:title=" ">
<polygon fill="#e0e0e0" stroke="#999999" points="1554.38,-33.5 1413.88,-33.5 1413.88,0 1554.38,0 1554.38,-33.5"/>
<text text-anchor="start" x="1421.88" y="-20" font-family="Helvetica,sans-Serif" font-size="10.00">prismspf/user_inputs</text>
<text text-anchor="middle" x="1484.12" y="-7.25" font-family="Helvetica,sans-Serif" font-size="10.00">/user_input_parameters.h</text>
</a>
</g>
</g>
<!-- Node1&#45;&gt;Node12 -->
<g id="edge11_Node000001_Node000012" class="edge">
<title>Node1&#45;&gt;Node12</title>
<g id="a_edge11_Node000001_Node000012"><a xlink:title=" ">
<path fill="none" stroke="#63b8ff" d="M911.15,-82.05C1007.13,-75.85 1216.27,-60.55 1402.19,-33.84"/>
<polygon fill="#63b8ff" stroke="#63b8ff" points="1402.66,-37.31 1412.05,-32.41 1401.65,-30.38 1402.66,-37.31"/>
</a>
</g>
</g>
<!-- Node13 -->
<g id="Node000013" class="node">
<title>Node13</title>
<g id="a_Node000013"><a xlink:title=" ">
<polygon fill="#e0e0e0" stroke="#999999" points="1672.12,-27.12 1572.12,-27.12 1572.12,-6.38 1672.12,-6.38 1672.12,-27.12"/>
<text text-anchor="middle" x="1622.12" y="-13.62" font-family="Helvetica,sans-Serif" font-size="10.00">prismspf/config.h</text>
</a>
</g>
</g>
<!-- Node1&#45;&gt;Node13 -->
<g id="edge12_Node000001_Node000013" class="edge">
<title>Node1&#45;&gt;Node13</title>
<g id="a_edge12_Node000001_Node000013"><a xlink:title=" ">
<path fill="none" stroke="#63b8ff" d="M911.15,-84.74C1029.14,-82.88 1322,-74.16 1563.12,-33.5 1568.14,-32.65 1573.35,-31.57 1578.5,-30.37"/>
<polygon fill="#63b8ff" stroke="#63b8ff" points="1579.27,-33.79 1588.13,-27.97 1577.58,-27 1579.27,-33.79"/>
</a>
</g>
</g>
</g>
</svg>
