<?xml version="1.0" encoding="UTF-8" standalone="no"?>
<!DOCTYPE svg PUBLIC "-//W3C//DTD SVG 1.1//EN"
 "http://www.w3.org/Graphics/SVG/1.1/DTD/svg11.dtd">
<!-- Generated by graphviz version 2.43.0 (0)
 -->
<!-- Title: /home/runner/work/phaseField/phaseField/include/prismspf/core/cell_marker_base.h Pages: 1 -->
<svg width="759pt" height="291pt"
 viewBox="0.00 0.00 758.98 291.00" xmlns="http://www.w3.org/2000/svg" xmlns:xlink="http://www.w3.org/1999/xlink">
<g id="graph0" class="graph" transform="scale(1 1) rotate(0) translate(4 287)">
<title>/home/runner/work/phaseField/phaseField/include/prismspf/core/cell_marker_base.h</title>
<!-- Node1 -->
<g id="Node000001" class="node">
<title>Node1</title>
<g id="a_Node000001"><a xlink:title=" ">
<polygon fill="#999999" stroke="#666666" points="500.5,-283 336.5,-283 336.5,-242 500.5,-242 500.5,-283"/>
<text text-anchor="start" x="344.5" y="-271" font-family="Helvetica,sans-Serif" font-size="10.00">/home/runner/work/phaseField</text>
<text text-anchor="start" x="344.5" y="-260" font-family="Helvetica,sans-Serif" font-size="10.00">/phaseField/include/prismspf</text>
<text text-anchor="middle" x="418.5" y="-249" font-family="Helvetica,sans-Serif" font-size="10.00">/core/cell_marker_base.h</text>
</a>
</g>
</g>
<!-- Node2 -->
<g id="Node000002" class="node">
<title>Node2</title>
<g id="a_Node000002"><a xlink:title=" ">
<polygon fill="#e0e0e0" stroke="#999999" points="121,-206 0,-206 0,-176 121,-176 121,-206"/>
<text text-anchor="start" x="8" y="-194" font-family="Helvetica,sans-Serif" font-size="10.00">deal.II/base/bounding</text>
<text text-anchor="middle" x="60.5" y="-183" font-family="Helvetica,sans-Serif" font-size="10.00">_box.h</text>
</a>
</g>
</g>
<!-- Node1&#45;&gt;Node2 -->
<g id="edge1_Node000001_Node000002" class="edge">
<title>Node1&#45;&gt;Node2</title>
<g id="a_edge1_Node000001_Node000002"><a xlink:title=" ">
<path fill="none" stroke="#63b8ff" d="M336.23,-245.8C281.08,-235.25 206.56,-220.91 131.34,-206.16"/>
<polygon fill="#63b8ff" stroke="#63b8ff" points="131.69,-202.66 121.2,-204.17 130.34,-209.53 131.69,-202.66"/>
</a>
</g>
</g>
<!-- Node3 -->
<g id="Node000003" class="node">
<title>Node3</title>
<g id="a_Node000003"><a xlink:title=" ">
<polygon fill="#e0e0e0" stroke="#999999" points="249.5,-200.5 139.5,-200.5 139.5,-181.5 249.5,-181.5 249.5,-200.5"/>
<text text-anchor="middle" x="194.5" y="-188.5" font-family="Helvetica,sans-Serif" font-size="10.00">deal.II/base/point.h</text>
</a>
</g>
</g>
<!-- Node1&#45;&gt;Node3 -->
<g id="edge2_Node000001_Node000003" class="edge">
<title>Node1&#45;&gt;Node3</title>
<g id="a_edge2_Node000001_Node000003"><a xlink:title=" ">
<path fill="none" stroke="#63b8ff" d="M355.51,-241.96C315.64,-229.58 265.44,-214.01 231.79,-203.57"/>
<polygon fill="#63b8ff" stroke="#63b8ff" points="232.5,-200.12 221.91,-200.5 230.42,-206.81 232.5,-200.12"/>
</a>
</g>
</g>
<!-- Node4 -->
<g id="Node000004" class="node">
<title>Node4</title>
<g id="a_Node000004"><a xlink:title=" ">
<polygon fill="#e0e0e0" stroke="#999999" points="411.5,-200.5 267.5,-200.5 267.5,-181.5 411.5,-181.5 411.5,-200.5"/>
<text text-anchor="middle" x="339.5" y="-188.5" font-family="Helvetica,sans-Serif" font-size="10.00">deal.II/grid/tria_accessor.h</text>
</a>
</g>
</g>
<!-- Node1&#45;&gt;Node4 -->
<g id="edge3_Node000001_Node000004" class="edge">
<title>Node1&#45;&gt;Node4</title>
<g id="a_edge3_Node000001_Node000004"><a xlink:title=" ">
<path fill="none" stroke="#63b8ff" d="M396.07,-241.77C383.74,-230.92 368.66,-217.65 357.17,-207.54"/>
<polygon fill="#63b8ff" stroke="#63b8ff" points="359.35,-204.8 349.53,-200.82 354.72,-210.05 359.35,-204.8"/>
</a>
</g>
</g>
<!-- Node5 -->
<g id="Node000005" class="node">
<title>Node5</title>
<g id="a_Node000005"><a xlink:title=" ">
<polygon fill="#e0e0e0" stroke="#999999" points="567,-200.5 430,-200.5 430,-181.5 567,-181.5 567,-200.5"/>
<text text-anchor="middle" x="498.5" y="-188.5" font-family="Helvetica,sans-Serif" font-size="10.00">deal.II/grid/tria_iterator.h</text>
</a>
</g>
</g>
<!-- Node1&#45;&gt;Node5 -->
<g id="edge4_Node000001_Node000005" class="edge">
<title>Node1&#45;&gt;Node5</title>
<g id="a_edge4_Node000001_Node000005"><a xlink:title=" ">
<path fill="none" stroke="#63b8ff" d="M441.21,-241.77C453.7,-230.92 468.98,-217.65 480.61,-207.54"/>
<polygon fill="#63b8ff" stroke="#63b8ff" points="483.09,-210.02 488.35,-200.82 478.5,-204.74 483.09,-210.02"/>
</a>
</g>
</g>
<!-- Node6 -->
<g id="Node000006" class="node">
<title>Node6</title>
<g id="a_Node000006"><a xlink:href="simulation__timer_8h.html" target="_top" xlink:title=" ">
<polygon fill="white" stroke="#666666" points="723.5,-206 585.5,-206 585.5,-176 723.5,-176 723.5,-206"/>
<text text-anchor="start" x="593.5" y="-194" font-family="Helvetica,sans-Serif" font-size="10.00">prismspf/core/simulation</text>
<text text-anchor="middle" x="654.5" y="-183" font-family="Helvetica,sans-Serif" font-size="10.00">_timer.h</text>
</a>
</g>
</g>
<!-- Node1&#45;&gt;Node6 -->
<g id="edge5_Node000001_Node000006" class="edge">
<title>Node1&#45;&gt;Node6</title>
<g id="a_edge5_Node000001_Node000006"><a xlink:title=" ">
<path fill="none" stroke="#63b8ff" d="M484.87,-241.96C520.23,-231.54 563.3,-218.86 597.19,-208.88"/>
<polygon fill="#63b8ff" stroke="#63b8ff" points="598.34,-212.19 606.95,-206 596.37,-205.47 598.34,-212.19"/>
</a>
</g>
</g>
<!-- Node10 -->
<g id="Node000010" class="node">
<title>Node10</title>
<g id="a_Node000010"><a xlink:title=" ">
<polygon fill="#e0e0e0" stroke="#999999" points="745,-19 644,-19 644,0 745,0 745,-19"/>
<text text-anchor="middle" x="694.5" y="-7" font-family="Helvetica,sans-Serif" font-size="10.00">prismspf/config.h</text>
</a>
</g>
</g>
<!-- Node1&#45;&gt;Node10 -->
<g id="edge14_Node000001_Node000010" class="edge">
<title>Node1&#45;&gt;Node10</title>
<g id="a_edge14_Node000001_Node000010"><a xlink:title=" ">
<path fill="none" stroke="#63b8ff" d="M500.85,-258.56C583.77,-253.66 703.46,-240.62 732.5,-206 776.56,-153.47 729.57,-65.03 706.14,-27.82"/>
<polygon fill="#63b8ff" stroke="#63b8ff" points="708.89,-25.62 700.51,-19.14 703.01,-29.43 708.89,-25.62"/>
</a>
</g>
</g>
<!-- Node7 -->
<g id="Node000007" class="node">
<title>Node7</title>
<g id="a_Node000007"><a xlink:href="types_8h.html" target="_top" xlink:title=" ">
<polygon fill="white" stroke="#666666" points="669.5,-140 547.5,-140 547.5,-121 669.5,-121 669.5,-140"/>
<text text-anchor="middle" x="608.5" y="-128" font-family="Helvetica,sans-Serif" font-size="10.00">prismspf/core/types.h</text>
</a>
</g>
</g>
<!-- Node6&#45;&gt;Node7 -->
<g id="edge6_Node000006_Node000007" class="edge">
<title>Node6&#45;&gt;Node7</title>
<g id="a_edge6_Node000006_Node000007"><a xlink:title=" ">
<path fill="none" stroke="#63b8ff" d="M643.36,-175.84C636.82,-167.52 628.52,-156.96 621.66,-148.23"/>
<polygon fill="#63b8ff" stroke="#63b8ff" points="624.33,-145.96 615.39,-140.27 618.82,-150.29 624.33,-145.96"/>
</a>
</g>
</g>
<!-- Node6&#45;&gt;Node10 -->
<g id="edge13_Node000006_Node000010" class="edge">
<title>Node6&#45;&gt;Node10</title>
<g id="a_edge13_Node000006_Node000010"><a xlink:title=" ">
<path fill="none" stroke="#63b8ff" d="M662.95,-175.62C668.27,-165.89 674.82,-152.57 678.5,-140 689.72,-101.73 693.08,-54.86 694.08,-29.31"/>
<polygon fill="#63b8ff" stroke="#63b8ff" points="697.58,-29.28 694.39,-19.18 690.58,-29.07 697.58,-29.28"/>
</a>
</g>
</g>
<!-- Node8 -->
<g id="Node000008" class="node">
<title>Node8</title>
<g id="a_Node000008"><a xlink:title=" ">
<polygon fill="#e0e0e0" stroke="#999999" points="647,-85 538,-85 538,-55 647,-55 647,-85"/>
<text text-anchor="start" x="546" y="-73" font-family="Helvetica,sans-Serif" font-size="10.00">deal.II/matrix_free</text>
<text text-anchor="middle" x="592.5" y="-62" font-family="Helvetica,sans-Serif" font-size="10.00">/evaluation_flags.h</text>
</a>
</g>
</g>
<!-- Node7&#45;&gt;Node8 -->
<g id="edge7_Node000007_Node000008" class="edge">
<title>Node7&#45;&gt;Node8</title>
<g id="a_edge7_Node000007_Node000008"><a xlink:title=" ">
<path fill="none" stroke="#63b8ff" d="M606.14,-120.87C604.27,-114.03 601.56,-104.14 599.06,-94.97"/>
<polygon fill="#63b8ff" stroke="#63b8ff" points="602.37,-93.84 596.36,-85.11 595.62,-95.68 602.37,-93.84"/>
</a>
</g>
</g>
<!-- Node9 -->
<g id="Node000009" class="node">
<title>Node9</title>
<g id="a_Node000009"><a xlink:href="type__enums_8h.html" target="_top" xlink:title=" ">
<polygon fill="white" stroke="#666666" points="519.5,-85 411.5,-85 411.5,-55 519.5,-55 519.5,-85"/>
<text text-anchor="start" x="419.5" y="-73" font-family="Helvetica,sans-Serif" font-size="10.00">prismspf/core/type</text>
<text text-anchor="middle" x="465.5" y="-62" font-family="Helvetica,sans-Serif" font-size="10.00">_enums.h</text>
</a>
</g>
</g>
<!-- Node7&#45;&gt;Node9 -->
<g id="edge8_Node000007_Node000009" class="edge">
<title>Node7&#45;&gt;Node9</title>
<g id="a_edge8_Node000007_Node000009"><a xlink:title=" ">
<path fill="none" stroke="#63b8ff" d="M587.71,-120.99C567.22,-112.61 535.28,-99.55 509.19,-88.87"/>
<polygon fill="#63b8ff" stroke="#63b8ff" points="510.46,-85.61 499.88,-85.06 507.81,-92.09 510.46,-85.61"/>
</a>
</g>
</g>
<!-- Node7&#45;&gt;Node10 -->
<g id="edge12_Node000007_Node000010" class="edge">
<title>Node7&#45;&gt;Node10</title>
<g id="a_edge12_Node000007_Node000010"><a xlink:title=" ">
<path fill="none" stroke="#63b8ff" d="M619.86,-120.91C630.32,-112.57 645.81,-99.14 656.5,-85 669.73,-67.5 680.59,-44.7 687.26,-28.95"/>
<polygon fill="#63b8ff" stroke="#63b8ff" points="690.64,-29.91 691.18,-19.33 684.16,-27.27 690.64,-29.91"/>
</a>
</g>
</g>
<!-- Node9&#45;&gt;Node10 -->
<g id="edge9_Node000009_Node000010" class="edge">
<title>Node9&#45;&gt;Node10</title>
<g id="a_edge9_Node000009_Node000010"><a xlink:title=" ">
<path fill="none" stroke="#63b8ff" d="M519.77,-55.14C559.91,-44.88 613.85,-31.1 651.13,-21.58"/>
<polygon fill="#63b8ff" stroke="#63b8ff" points="652.36,-24.88 661.18,-19.01 650.62,-18.1 652.36,-24.88"/>
</a>
</g>
</g>
<!-- Node11 -->
<g id="Node000011" class="node">
<title>Node11</title>
<g id="a_Node000011"><a xlink:title=" ">
<polygon fill="#e0e0e0" stroke="#999999" points="458.5,-19 408.5,-19 408.5,0 458.5,0 458.5,-19"/>
<text text-anchor="middle" x="433.5" y="-7" font-family="Helvetica,sans-Serif" font-size="10.00">cstdint</text>
</a>
</g>
</g>
<!-- Node9&#45;&gt;Node11 -->
<g id="edge10_Node000009_Node000011" class="edge">
<title>Node9&#45;&gt;Node11</title>
<g id="a_edge10_Node000009_Node000011"><a xlink:title=" ">
<path fill="none" stroke="#63b8ff" d="M457.75,-54.84C453.35,-46.78 447.79,-36.62 443.1,-28.06"/>
<polygon fill="#63b8ff" stroke="#63b8ff" points="446.16,-26.36 438.3,-19.27 440.02,-29.72 446.16,-26.36"/>
</a>
</g>
</g>
<!-- Node12 -->
<g id="Node000012" class="node">
<title>Node12</title>
<g id="a_Node000012"><a xlink:title=" ">
<polygon fill="#e0e0e0" stroke="#999999" points="520.5,-19 476.5,-19 476.5,0 520.5,0 520.5,-19"/>
<text text-anchor="middle" x="498.5" y="-7" font-family="Helvetica,sans-Serif" font-size="10.00">string</text>
</a>
</g>
</g>
<!-- Node9&#45;&gt;Node12 -->
<g id="edge11_Node000009_Node000012" class="edge">
<title>Node9&#45;&gt;Node12</title>
<g id="a_edge11_Node000009_Node000012"><a xlink:title=" ">
<path fill="none" stroke="#63b8ff" d="M473.49,-54.84C478.03,-46.78 483.77,-36.62 488.6,-28.06"/>
<polygon fill="#63b8ff" stroke="#63b8ff" points="491.69,-29.7 493.56,-19.27 485.59,-26.26 491.69,-29.7"/>
</a>
</g>
</g>
</g>
</svg>
