<?xml version="1.0" encoding="UTF-8" standalone="no"?>
<!DOCTYPE svg PUBLIC "-//W3C//DTD SVG 1.1//EN"
 "http://www.w3.org/Graphics/SVG/1.1/DTD/svg11.dtd">
<!-- Generated by graphviz version 12.2.1 (20241206.2353)
 -->
<!-- Title: include/prismspf/user_inputs/checkpoint_parameters.h Pages: 1 -->
<svg width="3088pt" height="503pt"
 viewBox="0.00 0.00 3087.50 502.50" xmlns="http://www.w3.org/2000/svg" xmlns:xlink="http://www.w3.org/1999/xlink">
<g id="graph0" class="graph" transform="scale(1 1) rotate(0) translate(4 498.5)">
<title>include/prismspf/user_inputs/checkpoint_parameters.h</title>
<!-- Node1 -->
<g id="Node000001" class="node">
<title>Node1</title>
<g id="a_Node000001"><a xlink:title=" ">
<polygon fill="#999999" stroke="#666666" points="1300,-494.5 1122,-494.5 1122,-461 1300,-461 1300,-494.5"/>
<text text-anchor="start" x="1130" y="-481" font-family="Helvetica,sans-Serif" font-size="10.00">include/prismspf/user</text>
<text text-anchor="middle" x="1211" y="-468.25" font-family="Helvetica,sans-Serif" font-size="10.00">_inputs/checkpoint_parameters.h</text>
</a>
</g>
</g>
<!-- Node2 -->
<g id="Node000002" class="node">
<title>Node2</title>
<g id="a_Node000002"><a xlink:href="conditional__ostreams_8h.html" target="_top" xlink:title=" ">
<polygon fill="white" stroke="#666666" points="1296.88,-229.25 1157.12,-229.25 1157.12,-195.75 1296.88,-195.75 1296.88,-229.25"/>
<text text-anchor="start" x="1165.12" y="-215.75" font-family="Helvetica,sans-Serif" font-size="10.00">prismspf/core/conditional</text>
<text text-anchor="middle" x="1227" y="-203" font-family="Helvetica,sans-Serif" font-size="10.00">_ostreams.h</text>
</a>
</g>
</g>
<!-- Node1&#45;&gt;Node2 -->
<g id="edge1_Node000001_Node000002" class="edge">
<title>Node1&#45;&gt;Node2</title>
<g id="a_edge1_Node000001_Node000002"><a xlink:title=" ">
<path fill="none" stroke="#63b8ff" d="M1223.82,-460.57C1230.68,-450.86 1238.43,-437.92 1242,-425 1259.82,-360.58 1244.81,-281.14 1234.58,-240.4"/>
<polygon fill="#63b8ff" stroke="#63b8ff" points="1238.04,-239.77 1232.11,-230.98 1231.27,-241.54 1238.04,-239.77"/>
</a>
</g>
</g>
<!-- Node4 -->
<g id="Node000004" class="node">
<title>Node4</title>
<g id="a_Node000004"><a xlink:title=" ">
<polygon fill="#e0e0e0" stroke="#999999" points="1089,-20.75 989,-20.75 989,0 1089,0 1089,-20.75"/>
<text text-anchor="middle" x="1039" y="-7.25" font-family="Helvetica,sans-Serif" font-size="10.00">prismspf/config.h</text>
</a>
</g>
</g>
<!-- Node1&#45;&gt;Node4 -->
<g id="edge68_Node000001_Node000004" class="edge">
<title>Node1&#45;&gt;Node4</title>
<g id="a_edge68_Node000001_Node000004"><a xlink:title=" ">
<path fill="none" stroke="#63b8ff" d="M1300.43,-474.65C1662.72,-465.54 3002,-426.04 3002,-339.75 3002,-339.75 3002,-339.75 3002,-142 3002,-44.32 1434.15,-16.9 1100.83,-12.18"/>
<polygon fill="#63b8ff" stroke="#63b8ff" points="1101.06,-8.68 1091.01,-12.04 1100.96,-15.68 1101.06,-8.68"/>
</a>
</g>
</g>
<!-- Node5 -->
<g id="Node000005" class="node">
<title>Node5</title>
<g id="a_Node000005"><a xlink:href="exceptions_8h.html" target="_top" xlink:title=" ">
<polygon fill="white" stroke="#666666" points="603,-222.88 455,-222.88 455,-202.12 603,-202.12 603,-222.88"/>
<text text-anchor="middle" x="529" y="-209.38" font-family="Helvetica,sans-Serif" font-size="10.00">prismspf/core/exceptions.h</text>
</a>
</g>
</g>
<!-- Node1&#45;&gt;Node5 -->
<g id="edge4_Node000001_Node000005" class="edge">
<title>Node1&#45;&gt;Node5</title>
<g id="a_edge4_Node000001_Node000005"><a xlink:title=" ">
<path fill="none" stroke="#63b8ff" d="M1121.72,-475.69C1003.97,-470.46 794.15,-447.63 644,-355.5 594.15,-324.91 556.46,-264.74 539.27,-233.45"/>
<polygon fill="#63b8ff" stroke="#63b8ff" points="542.38,-231.85 534.59,-224.68 536.2,-235.15 542.38,-231.85"/>
</a>
</g>
</g>
<!-- Node11 -->
<g id="Node000011" class="node">
<title>Node11</title>
<g id="a_Node000011"><a xlink:title=" ">
<polygon fill="#e0e0e0" stroke="#999999" points="230.88,-20.75 187.12,-20.75 187.12,0 230.88,0 230.88,-20.75"/>
<text text-anchor="middle" x="209" y="-7.25" font-family="Helvetica,sans-Serif" font-size="10.00">string</text>
</a>
</g>
</g>
<!-- Node1&#45;&gt;Node11 -->
<g id="edge71_Node000001_Node000011" class="edge">
<title>Node1&#45;&gt;Node11</title>
<g id="a_edge71_Node000001_Node000011"><a xlink:title=" ">
<path fill="none" stroke="#63b8ff" d="M1121.95,-476.01C842.29,-472.53 0,-452.68 0,-339.75 0,-339.75 0,-339.75 0,-142 0,-96.91 18.89,-83.76 55,-56.75 90.84,-29.94 142.3,-18.91 175.69,-14.42"/>
<polygon fill="#63b8ff" stroke="#63b8ff" points="175.69,-17.94 185.19,-13.26 174.85,-10.99 175.69,-17.94"/>
</a>
</g>
</g>
<!-- Node13 -->
<g id="Node000013" class="node">
<title>Node13</title>
<g id="a_Node000013"><a xlink:href="temporal__discretization_8h.html" target="_top" xlink:title=" ">
<polygon fill="white" stroke="#666666" points="1232.75,-425 1089.25,-425 1089.25,-391.5 1232.75,-391.5 1232.75,-425"/>
<text text-anchor="start" x="1097.25" y="-411.5" font-family="Helvetica,sans-Serif" font-size="10.00">prismspf/user_inputs</text>
<text text-anchor="middle" x="1161" y="-398.75" font-family="Helvetica,sans-Serif" font-size="10.00">/temporal_discretization.h</text>
</a>
</g>
</g>
<!-- Node1&#45;&gt;Node13 -->
<g id="edge15_Node000001_Node000013" class="edge">
<title>Node1&#45;&gt;Node13</title>
<g id="a_edge15_Node000001_Node000013"><a xlink:title=" ">
<path fill="none" stroke="#63b8ff" d="M1199.15,-460.75C1193.3,-452.85 1186.1,-443.13 1179.54,-434.28"/>
<polygon fill="#63b8ff" stroke="#63b8ff" points="1182.43,-432.3 1173.67,-426.35 1176.81,-436.47 1182.43,-432.3"/>
</a>
</g>
</g>
<!-- Node21 -->
<g id="Node000021" class="node">
<title>Node21</title>
<g id="a_Node000021"><a xlink:title=" ">
<polygon fill="#e0e0e0" stroke="#999999" points="135.5,-222.88 104.5,-222.88 104.5,-202.12 135.5,-202.12 135.5,-222.88"/>
<text text-anchor="middle" x="120" y="-209.38" font-family="Helvetica,sans-Serif" font-size="10.00">set</text>
</a>
</g>
</g>
<!-- Node1&#45;&gt;Node21 -->
<g id="edge70_Node000001_Node000021" class="edge">
<title>Node1&#45;&gt;Node21</title>
<g id="a_edge70_Node000001_Node000021"><a xlink:title=" ">
<path fill="none" stroke="#63b8ff" d="M1121.62,-471.32C1020.82,-464.32 852.28,-449.98 709,-425 455.52,-380.81 339.01,-457.28 147,-286 132.14,-272.75 125.44,-250.54 122.43,-234.19"/>
<polygon fill="#63b8ff" stroke="#63b8ff" points="125.93,-233.94 120.99,-224.56 119.01,-234.97 125.93,-233.94"/>
</a>
</g>
</g>
<!-- Node22 -->
<g id="Node000022" class="node">
<title>Node22</title>
<g id="a_Node000022"><a xlink:href="utilities_8h.html" target="_top" xlink:title=" ">
<polygon fill="white" stroke="#666666" points="1921.25,-229.25 1822.75,-229.25 1822.75,-195.75 1921.25,-195.75 1921.25,-229.25"/>
<text text-anchor="start" x="1830.75" y="-215.75" font-family="Helvetica,sans-Serif" font-size="10.00">prismspf/utilities</text>
<text text-anchor="middle" x="1872" y="-203" font-family="Helvetica,sans-Serif" font-size="10.00">/utilities.h</text>
</a>
</g>
</g>
<!-- Node1&#45;&gt;Node22 -->
<g id="edge47_Node000001_Node000022" class="edge">
<title>Node1&#45;&gt;Node22</title>
<g id="a_edge47_Node000001_Node000022"><a xlink:title=" ">
<path fill="none" stroke="#63b8ff" d="M1251.35,-460.68C1366.02,-415.01 1693.65,-284.53 1820.74,-233.91"/>
<polygon fill="#63b8ff" stroke="#63b8ff" points="1821.93,-237.21 1829.93,-230.26 1819.34,-230.7 1821.93,-237.21"/>
</a>
</g>
</g>
<!-- Node36 -->
<g id="Node000036" class="node">
<title>Node36</title>
<g id="a_Node000036"><a xlink:title=" ">
<polygon fill="#e0e0e0" stroke="#999999" points="3079.5,-418.62 3030.5,-418.62 3030.5,-397.88 3079.5,-397.88 3079.5,-418.62"/>
<text text-anchor="middle" x="3055" y="-405.12" font-family="Helvetica,sans-Serif" font-size="10.00">climits</text>
</a>
</g>
</g>
<!-- Node1&#45;&gt;Node36 -->
<g id="edge69_Node000001_Node000036" class="edge">
<title>Node1&#45;&gt;Node36</title>
<g id="a_edge69_Node000001_Node000036"><a xlink:title=" ">
<path fill="none" stroke="#63b8ff" d="M1300.35,-476.04C1641,-473.09 2847.61,-460.23 3016,-425 3018.65,-424.44 3021.36,-423.72 3024.04,-422.88"/>
<polygon fill="#63b8ff" stroke="#63b8ff" points="3025.15,-426.21 3033.36,-419.51 3022.77,-419.62 3025.15,-426.21"/>
</a>
</g>
</g>
<!-- Node3 -->
<g id="Node000003" class="node">
<title>Node3</title>
<g id="a_Node000003"><a xlink:title=" ">
<polygon fill="#e0e0e0" stroke="#999999" points="1291.62,-159.75 1162.38,-159.75 1162.38,-126.25 1291.62,-126.25 1291.62,-159.75"/>
<text text-anchor="start" x="1170.38" y="-146.25" font-family="Helvetica,sans-Serif" font-size="10.00">deal.II/base/conditional</text>
<text text-anchor="middle" x="1227" y="-133.5" font-family="Helvetica,sans-Serif" font-size="10.00">_ostream.h</text>
</a>
</g>
</g>
<!-- Node2&#45;&gt;Node3 -->
<g id="edge2_Node000002_Node000003" class="edge">
<title>Node2&#45;&gt;Node3</title>
<g id="a_edge2_Node000002_Node000003"><a xlink:title=" ">
<path fill="none" stroke="#63b8ff" d="M1227,-195.5C1227,-188.27 1227,-179.53 1227,-171.31"/>
<polygon fill="#63b8ff" stroke="#63b8ff" points="1230.5,-171.4 1227,-161.4 1223.5,-171.4 1230.5,-171.4"/>
</a>
</g>
</g>
<!-- Node2&#45;&gt;Node4 -->
<g id="edge3_Node000002_Node000004" class="edge">
<title>Node2&#45;&gt;Node4</title>
<g id="a_edge3_Node000002_Node000004"><a xlink:title=" ">
<path fill="none" stroke="#63b8ff" d="M1263.59,-195.35C1277.98,-186.96 1292.96,-175.18 1301,-159.75 1307.88,-146.55 1309.14,-138.71 1301,-126.25 1256.88,-58.73 1163.31,-30.65 1100.78,-19.14"/>
<polygon fill="#63b8ff" stroke="#63b8ff" points="1101.42,-15.7 1090.97,-17.44 1100.22,-22.59 1101.42,-15.7"/>
</a>
</g>
</g>
<!-- Node5&#45;&gt;Node4 -->
<g id="edge13_Node000005_Node000004" class="edge">
<title>Node5&#45;&gt;Node4</title>
<g id="a_edge13_Node000005_Node000004"><a xlink:title=" ">
<path fill="none" stroke="#63b8ff" d="M530.58,-201.87C533.96,-184.37 543.46,-147.26 566,-126.25 625.54,-70.76 863.3,-33.73 977.35,-18.81"/>
<polygon fill="#63b8ff" stroke="#63b8ff" points="977.68,-22.29 987.15,-17.54 976.79,-15.35 977.68,-22.29"/>
</a>
</g>
</g>
<!-- Node6 -->
<g id="Node000006" class="node">
<title>Node6</title>
<g id="a_Node000006"><a xlink:title=" ">
<polygon fill="#e0e0e0" stroke="#999999" points="852.75,-153.38 715.25,-153.38 715.25,-132.62 852.75,-132.62 852.75,-153.38"/>
<text text-anchor="middle" x="784" y="-139.88" font-family="Helvetica,sans-Serif" font-size="10.00">deal.II/base/exceptions.h</text>
</a>
</g>
</g>
<!-- Node5&#45;&gt;Node6 -->
<g id="edge5_Node000005_Node000006" class="edge">
<title>Node5&#45;&gt;Node6</title>
<g id="a_edge5_Node000005_Node000006"><a xlink:title=" ">
<path fill="none" stroke="#63b8ff" d="M566.08,-201.68C610.93,-189.81 686.54,-169.8 735.86,-156.74"/>
<polygon fill="#63b8ff" stroke="#63b8ff" points="736.64,-160.16 745.41,-154.21 734.85,-153.39 736.64,-160.16"/>
</a>
</g>
</g>
<!-- Node7 -->
<g id="Node000007" class="node">
<title>Node7</title>
<g id="a_Node000007"><a xlink:href="types_8h.html" target="_top" xlink:title=" ">
<polygon fill="white" stroke="#666666" points="696.88,-153.38 575.12,-153.38 575.12,-132.62 696.88,-132.62 696.88,-153.38"/>
<text text-anchor="middle" x="636" y="-139.88" font-family="Helvetica,sans-Serif" font-size="10.00">prismspf/core/types.h</text>
</a>
</g>
</g>
<!-- Node5&#45;&gt;Node7 -->
<g id="edge6_Node000005_Node000007" class="edge">
<title>Node5&#45;&gt;Node7</title>
<g id="a_edge6_Node000005_Node000007"><a xlink:title=" ">
<path fill="none" stroke="#63b8ff" d="M544.33,-201.83C561.63,-190.91 590.05,-172.99 610.66,-159.98"/>
<polygon fill="#63b8ff" stroke="#63b8ff" points="612.48,-162.98 619.07,-154.68 608.74,-157.06 612.48,-162.98"/>
</a>
</g>
</g>
<!-- Node12 -->
<g id="Node000012" class="node">
<title>Node12</title>
<g id="a_Node000012"><a xlink:title=" ">
<polygon fill="#e0e0e0" stroke="#999999" points="519,-153.38 455,-153.38 455,-132.62 519,-132.62 519,-153.38"/>
<text text-anchor="middle" x="487" y="-139.88" font-family="Helvetica,sans-Serif" font-size="10.00">exception</text>
</a>
</g>
</g>
<!-- Node5&#45;&gt;Node12 -->
<g id="edge14_Node000005_Node000012" class="edge">
<title>Node5&#45;&gt;Node12</title>
<g id="a_edge14_Node000005_Node000012"><a xlink:title=" ">
<path fill="none" stroke="#63b8ff" d="M522.98,-201.83C516.74,-191.8 506.83,-175.87 498.98,-163.26"/>
<polygon fill="#63b8ff" stroke="#63b8ff" points="502.06,-161.58 493.81,-154.94 496.12,-165.28 502.06,-161.58"/>
</a>
</g>
</g>
<!-- Node7&#45;&gt;Node4 -->
<g id="edge12_Node000007_Node000004" class="edge">
<title>Node7&#45;&gt;Node4</title>
<g id="a_edge12_Node000007_Node000004"><a xlink:title=" ">
<path fill="none" stroke="#63b8ff" d="M659.34,-132.16C699.87,-115.29 786.11,-80.4 861,-56.75 901.61,-43.92 948.29,-32.13 983.66,-23.79"/>
<polygon fill="#63b8ff" stroke="#63b8ff" points="984.31,-27.23 993.25,-21.54 982.71,-20.41 984.31,-27.23"/>
</a>
</g>
</g>
<!-- Node8 -->
<g id="Node000008" class="node">
<title>Node8</title>
<g id="a_Node000008"><a xlink:title=" ">
<polygon fill="#e0e0e0" stroke="#999999" points="1011.12,-90.25 902.88,-90.25 902.88,-56.75 1011.12,-56.75 1011.12,-90.25"/>
<text text-anchor="start" x="910.88" y="-76.75" font-family="Helvetica,sans-Serif" font-size="10.00">deal.II/matrix_free</text>
<text text-anchor="middle" x="957" y="-64" font-family="Helvetica,sans-Serif" font-size="10.00">/evaluation_flags.h</text>
</a>
</g>
</g>
<!-- Node7&#45;&gt;Node8 -->
<g id="edge7_Node000007_Node000008" class="edge">
<title>Node7&#45;&gt;Node8</title>
<g id="a_edge7_Node000007_Node000008"><a xlink:title=" ">
<path fill="none" stroke="#63b8ff" d="M679.29,-132.13C688.12,-130.16 697.35,-128.11 706,-126.25 768.88,-112.7 840.78,-97.95 891.47,-87.68"/>
<polygon fill="#63b8ff" stroke="#63b8ff" points="892,-91.14 901.11,-85.72 890.61,-84.28 892,-91.14"/>
</a>
</g>
</g>
<!-- Node9 -->
<g id="Node000009" class="node">
<title>Node9</title>
<g id="a_Node000009"><a xlink:href="type__enums_8h.html" target="_top" xlink:title=" ">
<polygon fill="white" stroke="#666666" points="398.75,-90.25 291.25,-90.25 291.25,-56.75 398.75,-56.75 398.75,-90.25"/>
<text text-anchor="start" x="299.25" y="-76.75" font-family="Helvetica,sans-Serif" font-size="10.00">prismspf/core/type</text>
<text text-anchor="middle" x="345" y="-64" font-family="Helvetica,sans-Serif" font-size="10.00">_enums.h</text>
</a>
</g>
</g>
<!-- Node7&#45;&gt;Node9 -->
<g id="edge8_Node000007_Node000009" class="edge">
<title>Node7&#45;&gt;Node9</title>
<g id="a_edge8_Node000007_Node000009"><a xlink:title=" ">
<path fill="none" stroke="#63b8ff" d="M593.69,-132.18C545.44,-120.99 465.99,-102.57 409.9,-89.55"/>
<polygon fill="#63b8ff" stroke="#63b8ff" points="411.02,-86.22 400.48,-87.37 409.43,-93.04 411.02,-86.22"/>
</a>
</g>
</g>
<!-- Node9&#45;&gt;Node4 -->
<g id="edge9_Node000009_Node000004" class="edge">
<title>Node9&#45;&gt;Node4</title>
<g id="a_edge9_Node000009_Node000004"><a xlink:title=" ">
<path fill="none" stroke="#63b8ff" d="M399.04,-59.18C403.75,-58.27 408.45,-57.44 413,-56.75 618.26,-25.73 864.7,-15.75 977.35,-12.67"/>
<polygon fill="#63b8ff" stroke="#63b8ff" points="977.39,-16.17 987.29,-12.41 977.2,-9.18 977.39,-16.17"/>
</a>
</g>
</g>
<!-- Node10 -->
<g id="Node000010" class="node">
<title>Node10</title>
<g id="a_Node000010"><a xlink:title=" ">
<polygon fill="#e0e0e0" stroke="#999999" points="369.5,-20.75 320.5,-20.75 320.5,0 369.5,0 369.5,-20.75"/>
<text text-anchor="middle" x="345" y="-7.25" font-family="Helvetica,sans-Serif" font-size="10.00">cstdint</text>
</a>
</g>
</g>
<!-- Node9&#45;&gt;Node10 -->
<g id="edge10_Node000009_Node000010" class="edge">
<title>Node9&#45;&gt;Node10</title>
<g id="a_edge10_Node000009_Node000010"><a xlink:title=" ">
<path fill="none" stroke="#63b8ff" d="M345,-56.44C345,-49.1 345,-40.32 345,-32.46"/>
<polygon fill="#63b8ff" stroke="#63b8ff" points="348.5,-32.73 345,-22.73 341.5,-32.73 348.5,-32.73"/>
</a>
</g>
</g>
<!-- Node9&#45;&gt;Node11 -->
<g id="edge11_Node000009_Node000011" class="edge">
<title>Node9&#45;&gt;Node11</title>
<g id="a_edge11_Node000009_Node000011"><a xlink:title=" ">
<path fill="none" stroke="#63b8ff" d="M308.91,-56.28C287.83,-46.81 261.46,-34.95 241.11,-25.81"/>
<polygon fill="#63b8ff" stroke="#63b8ff" points="242.72,-22.69 232.16,-21.79 239.85,-29.08 242.72,-22.69"/>
</a>
</g>
</g>
<!-- Node13&#45;&gt;Node2 -->
<g id="edge16_Node000013_Node000002" class="edge">
<title>Node13&#45;&gt;Node2</title>
<g id="a_edge16_Node000013_Node000002"><a xlink:title=" ">
<path fill="none" stroke="#63b8ff" d="M1166.51,-391.06C1177.87,-357.72 1203.98,-281.07 1217.89,-240.24"/>
<polygon fill="#63b8ff" stroke="#63b8ff" points="1221.15,-241.53 1221.06,-230.94 1214.52,-239.27 1221.15,-241.53"/>
</a>
</g>
</g>
<!-- Node13&#45;&gt;Node4 -->
<g id="edge46_Node000013_Node000004" class="edge">
<title>Node13&#45;&gt;Node4</title>
<g id="a_edge46_Node000013_Node000004"><a xlink:title=" ">
<path fill="none" stroke="#63b8ff" d="M1233.08,-403.13C1313.97,-394.16 1434,-365.81 1434,-276.62 1434,-276.62 1434,-276.62 1434,-142 1434,-72.68 1211.91,-33.87 1100.79,-18.79"/>
<polygon fill="#63b8ff" stroke="#63b8ff" points="1101.3,-15.33 1090.93,-17.48 1100.38,-22.27 1101.3,-15.33"/>
</a>
</g>
</g>
<!-- Node14 -->
<g id="Node000014" class="node">
<title>Node14</title>
<g id="a_Node000014"><a xlink:href="solve__block_8h.html" target="_top" xlink:title=" ">
<polygon fill="white" stroke="#666666" points="765,-355.5 653,-355.5 653,-322 765,-322 765,-355.5"/>
<text text-anchor="start" x="661" y="-342" font-family="Helvetica,sans-Serif" font-size="10.00">prismspf/core/solve</text>
<text text-anchor="middle" x="709" y="-329.25" font-family="Helvetica,sans-Serif" font-size="10.00">_block.h</text>
</a>
</g>
</g>
<!-- Node13&#45;&gt;Node14 -->
<g id="edge17_Node000013_Node000014" class="edge">
<title>Node13&#45;&gt;Node14</title>
<g id="a_edge17_Node000013_Node000014"><a xlink:title=" ">
<path fill="none" stroke="#63b8ff" d="M1088.88,-396.48C1002.98,-383.65 860.59,-362.39 776.69,-349.86"/>
<polygon fill="#63b8ff" stroke="#63b8ff" points="777.4,-346.43 766.99,-348.41 776.37,-353.35 777.4,-346.43"/>
</a>
</g>
</g>
<!-- Node14&#45;&gt;Node4 -->
<g id="edge42_Node000014_Node000004" class="edge">
<title>Node14&#45;&gt;Node4</title>
<g id="a_edge42_Node000014_Node000004"><a xlink:title=" ">
<path fill="none" stroke="#63b8ff" d="M765.13,-328.08C798.47,-320.45 840.45,-307.42 873,-286 917.06,-257 1009.55,-113.32 1020,-90.25 1028.47,-71.54 1033.46,-48.55 1036.18,-32.23"/>
<polygon fill="#63b8ff" stroke="#63b8ff" points="1039.58,-33.14 1037.61,-22.73 1032.66,-32.09 1039.58,-33.14"/>
</a>
</g>
</g>
<!-- Node14&#45;&gt;Node6 -->
<g id="edge18_Node000014_Node000006" class="edge">
<title>Node14&#45;&gt;Node6</title>
<g id="a_edge18_Node000014_Node000006"><a xlink:title=" ">
<path fill="none" stroke="#63b8ff" d="M765.2,-328C789.42,-320.71 815.46,-308.03 830,-286 856.05,-246.53 821.59,-191.18 799.65,-162.64"/>
<polygon fill="#63b8ff" stroke="#63b8ff" points="802.45,-160.54 793.47,-154.92 796.98,-164.91 802.45,-160.54"/>
</a>
</g>
</g>
<!-- Node14&#45;&gt;Node7 -->
<g id="edge41_Node000014_Node000007" class="edge">
<title>Node14&#45;&gt;Node7</title>
<g id="a_edge41_Node000014_Node000007"><a xlink:title=" ">
<path fill="none" stroke="#63b8ff" d="M682.76,-321.54C670.68,-312.62 657.41,-300.42 650,-286 629.89,-246.84 630.95,-193.63 633.48,-164.74"/>
<polygon fill="#63b8ff" stroke="#63b8ff" points="636.93,-165.45 634.48,-155.14 629.97,-164.72 636.93,-165.45"/>
</a>
</g>
</g>
<!-- Node14&#45;&gt;Node8 -->
<g id="edge19_Node000014_Node000008" class="edge">
<title>Node14&#45;&gt;Node8</title>
<g id="a_edge19_Node000014_Node000008"><a xlink:title=" ">
<path fill="none" stroke="#63b8ff" d="M765.48,-325.34C792.47,-317.37 824.03,-304.88 848,-286 901.13,-244.14 904.59,-221.14 933,-159.75 941.62,-141.13 947.77,-118.77 951.69,-101.61"/>
<polygon fill="#63b8ff" stroke="#63b8ff" points="955.09,-102.42 953.78,-91.91 948.25,-100.95 955.09,-102.42"/>
</a>
</g>
</g>
<!-- Node14&#45;&gt;Node9 -->
<g id="edge40_Node000014_Node000009" class="edge">
<title>Node14&#45;&gt;Node9</title>
<g id="a_edge40_Node000014_Node000009"><a xlink:title=" ">
<path fill="none" stroke="#63b8ff" d="M652.63,-337.24C557.49,-333.88 362.19,-315.97 227,-229.25 183.67,-201.45 143.32,-167.59 174,-126.25 198.21,-93.63 242.39,-80.84 279.79,-76.13"/>
<polygon fill="#63b8ff" stroke="#63b8ff" points="280.07,-79.62 289.64,-75.08 279.32,-72.66 280.07,-79.62"/>
</a>
</g>
</g>
<!-- Node14&#45;&gt;Node11 -->
<g id="edge44_Node000014_Node000011" class="edge">
<title>Node14&#45;&gt;Node11</title>
<g id="a_edge44_Node000014_Node000011"><a xlink:title=" ">
<path fill="none" stroke="#63b8ff" d="M652.55,-337.77C522.45,-337.05 205.38,-330.61 110,-286 68.87,-266.76 38,-258.91 38,-213.5 38,-213.5 38,-213.5 38,-142 38,-73.38 126.04,-35.98 175.78,-20.33"/>
<polygon fill="#63b8ff" stroke="#63b8ff" points="176.63,-23.73 185.2,-17.5 174.61,-17.02 176.63,-23.73"/>
</a>
</g>
</g>
<!-- Node15 -->
<g id="Node000015" class="node">
<title>Node15</title>
<g id="a_Node000015"><a xlink:href="dependencies_8h.html" target="_top" xlink:title=" ">
<polygon fill="white" stroke="#666666" points="821.12,-286 658.88,-286 658.88,-265.25 821.12,-265.25 821.12,-286"/>
<text text-anchor="middle" x="740" y="-272.5" font-family="Helvetica,sans-Serif" font-size="10.00">prismspf/core/dependencies.h</text>
</a>
</g>
</g>
<!-- Node14&#45;&gt;Node15 -->
<g id="edge20_Node000014_Node000015" class="edge">
<title>Node14&#45;&gt;Node15</title>
<g id="a_edge20_Node000014_Node000015"><a xlink:title=" ">
<path fill="none" stroke="#63b8ff" d="M717.14,-321.69C721.04,-314.01 725.75,-304.73 729.87,-296.59"/>
<polygon fill="#63b8ff" stroke="#63b8ff" points="732.92,-298.32 734.32,-287.82 726.68,-295.15 732.92,-298.32"/>
</a>
</g>
</g>
<!-- Node19 -->
<g id="Node000019" class="node">
<title>Node19</title>
<g id="a_Node000019"><a xlink:title=" ">
<polygon fill="#e0e0e0" stroke="#999999" points="229.38,-153.38 182.62,-153.38 182.62,-132.62 229.38,-132.62 229.38,-153.38"/>
<text text-anchor="middle" x="206" y="-139.88" font-family="Helvetica,sans-Serif" font-size="10.00">vector</text>
</a>
</g>
</g>
<!-- Node14&#45;&gt;Node19 -->
<g id="edge45_Node000014_Node000019" class="edge">
<title>Node14&#45;&gt;Node19</title>
<g id="a_edge45_Node000014_Node000019"><a xlink:title=" ">
<path fill="none" stroke="#63b8ff" d="M652.69,-337.65C528.42,-336.63 234.78,-329.54 147,-286 105.53,-265.43 70.13,-234.79 95,-195.75 111.72,-169.51 145.6,-156.36 171.55,-149.91"/>
<polygon fill="#63b8ff" stroke="#63b8ff" points="172,-153.39 181,-147.79 170.47,-146.56 172,-153.39"/>
</a>
</g>
</g>
<!-- Node14&#45;&gt;Node21 -->
<g id="edge43_Node000014_Node000021" class="edge">
<title>Node14&#45;&gt;Node21</title>
<g id="a_edge43_Node000014_Node000021"><a xlink:title=" ">
<path fill="none" stroke="#63b8ff" d="M652.63,-337.85C532.73,-337.17 256.76,-330.64 176,-286 154.65,-274.2 138.78,-250.51 129.49,-233.41"/>
<polygon fill="#63b8ff" stroke="#63b8ff" points="132.69,-231.99 125.03,-224.67 126.45,-235.17 132.69,-231.99"/>
</a>
</g>
</g>
<!-- Node15&#45;&gt;Node2 -->
<g id="edge24_Node000015_Node000002" class="edge">
<title>Node15&#45;&gt;Node2</title>
<g id="a_edge24_Node000015_Node000002"><a xlink:title=" ">
<path fill="none" stroke="#63b8ff" d="M818.52,-264.77C908.3,-253.5 1054.59,-235.14 1145.57,-223.72"/>
<polygon fill="#63b8ff" stroke="#63b8ff" points="1145.95,-227.2 1155.43,-222.48 1145.08,-220.26 1145.95,-227.2"/>
</a>
</g>
</g>
<!-- Node15&#45;&gt;Node4 -->
<g id="edge35_Node000015_Node000004" class="edge">
<title>Node15&#45;&gt;Node4</title>
<g id="a_edge35_Node000015_Node000004"><a xlink:title=" ">
<path fill="none" stroke="#63b8ff" d="M754.31,-265C779.7,-247.2 832.72,-206.63 862,-159.75 887.4,-119.09 860.14,-90.68 894,-56.75 916.04,-34.66 948.67,-23.3 977.4,-17.47"/>
<polygon fill="#63b8ff" stroke="#63b8ff" points="977.91,-20.93 987.12,-15.69 976.65,-14.05 977.91,-20.93"/>
</a>
</g>
</g>
<!-- Node15&#45;&gt;Node6 -->
<g id="edge21_Node000015_Node000006" class="edge">
<title>Node15&#45;&gt;Node6</title>
<g id="a_edge21_Node000015_Node000006"><a xlink:title=" ">
<path fill="none" stroke="#63b8ff" d="M734.82,-264.96C727.35,-249.63 715.54,-219.1 726,-195.75 732.53,-181.17 745.42,-169.01 757.39,-160.15"/>
<polygon fill="#63b8ff" stroke="#63b8ff" points="759.16,-163.18 765.41,-154.63 755.19,-157.42 759.16,-163.18"/>
</a>
</g>
</g>
<!-- Node15&#45;&gt;Node7 -->
<g id="edge34_Node000015_Node000007" class="edge">
<title>Node15&#45;&gt;Node7</title>
<g id="a_edge34_Node000015_Node000007"><a xlink:title=" ">
<path fill="none" stroke="#63b8ff" d="M732.18,-264.81C714.86,-243.05 673,-190.47 650.65,-162.4"/>
<polygon fill="#63b8ff" stroke="#63b8ff" points="653.53,-160.4 644.57,-154.76 648.06,-164.76 653.53,-160.4"/>
</a>
</g>
</g>
<!-- Node15&#45;&gt;Node8 -->
<g id="edge23_Node000015_Node000008" class="edge">
<title>Node15&#45;&gt;Node8</title>
<g id="a_edge23_Node000015_Node000008"><a xlink:title=" ">
<path fill="none" stroke="#63b8ff" d="M750.47,-264.97C783.06,-234.91 883.44,-142.34 931.21,-98.28"/>
<polygon fill="#63b8ff" stroke="#63b8ff" points="933.4,-101.03 938.38,-91.67 928.66,-95.88 933.4,-101.03"/>
</a>
</g>
</g>
<!-- Node15&#45;&gt;Node9 -->
<g id="edge33_Node000015_Node000009" class="edge">
<title>Node15&#45;&gt;Node9</title>
<g id="a_edge33_Node000015_Node000009"><a xlink:title=" ">
<path fill="none" stroke="#63b8ff" d="M658.68,-271.58C542.95,-266.4 342.17,-253.94 320,-229.25 288.17,-193.8 311.56,-134.47 329.54,-100.5"/>
<polygon fill="#63b8ff" stroke="#63b8ff" points="332.6,-102.19 334.37,-91.75 326.47,-98.81 332.6,-102.19"/>
</a>
</g>
</g>
<!-- Node15&#45;&gt;Node11 -->
<g id="edge38_Node000015_Node000011" class="edge">
<title>Node15&#45;&gt;Node11</title>
<g id="a_edge38_Node000015_Node000011"><a xlink:title=" ">
<path fill="none" stroke="#63b8ff" d="M658.44,-275.3C532.86,-275.03 299.09,-268.98 227,-229.25 192.98,-210.5 186.43,-196.55 174,-159.75 158.75,-114.59 182.28,-59.54 197.57,-30.86"/>
<polygon fill="#63b8ff" stroke="#63b8ff" points="200.56,-32.68 202.38,-22.24 194.45,-29.27 200.56,-32.68"/>
</a>
</g>
</g>
<!-- Node16 -->
<g id="Node000016" class="node">
<title>Node16</title>
<g id="a_Node000016"><a xlink:title=" ">
<polygon fill="#e0e0e0" stroke="#999999" points="1144.5,-153.38 1023.5,-153.38 1023.5,-132.62 1144.5,-132.62 1144.5,-153.38"/>
<text text-anchor="middle" x="1084" y="-139.88" font-family="Helvetica,sans-Serif" font-size="10.00">deal.II/base/utilities.h</text>
</a>
</g>
</g>
<!-- Node15&#45;&gt;Node16 -->
<g id="edge22_Node000015_Node000016" class="edge">
<title>Node15&#45;&gt;Node16</title>
<g id="a_edge22_Node000015_Node000016"><a xlink:title=" ">
<path fill="none" stroke="#63b8ff" d="M765.86,-264.81C826.52,-241.77 978.11,-184.21 1047.85,-157.73"/>
<polygon fill="#63b8ff" stroke="#63b8ff" points="1048.79,-161.11 1056.9,-154.29 1046.31,-154.57 1048.79,-161.11"/>
</a>
</g>
</g>
<!-- Node17 -->
<g id="Node000017" class="node">
<title>Node17</title>
<g id="a_Node000017"><a xlink:href="field__attributes_8h.html" target="_top" xlink:title=" ">
<polygon fill="white" stroke="#666666" points="435.38,-229.25 328.62,-229.25 328.62,-195.75 435.38,-195.75 435.38,-229.25"/>
<text text-anchor="start" x="336.62" y="-215.75" font-family="Helvetica,sans-Serif" font-size="10.00">prismspf/core/field</text>
<text text-anchor="middle" x="382" y="-203" font-family="Helvetica,sans-Serif" font-size="10.00">_attributes.h</text>
</a>
</g>
</g>
<!-- Node15&#45;&gt;Node17 -->
<g id="edge25_Node000015_Node000017" class="edge">
<title>Node15&#45;&gt;Node17</title>
<g id="a_edge25_Node000015_Node000017"><a xlink:title=" ">
<path fill="none" stroke="#63b8ff" d="M664.15,-264.79C607.14,-256.97 526.94,-245.05 446.53,-229.23"/>
<polygon fill="#63b8ff" stroke="#63b8ff" points="447.67,-225.89 437.18,-227.37 446.31,-232.76 447.67,-225.89"/>
</a>
</g>
</g>
<!-- Node15&#45;&gt;Node19 -->
<g id="edge39_Node000015_Node000019" class="edge">
<title>Node15&#45;&gt;Node19</title>
<g id="a_edge39_Node000015_Node000019"><a xlink:title=" ">
<path fill="none" stroke="#63b8ff" d="M658.51,-275.08C540.42,-274.36 328.75,-267.55 264,-229.25 239.14,-214.55 222.58,-184.52 213.73,-164.32"/>
<polygon fill="#63b8ff" stroke="#63b8ff" points="217.01,-163.08 209.98,-155.15 210.53,-165.73 217.01,-163.08"/>
</a>
</g>
</g>
<!-- Node20 -->
<g id="Node000020" class="node">
<title>Node20</title>
<g id="a_Node000020"><a xlink:title=" ">
<polygon fill="#e0e0e0" stroke="#999999" points="776.75,-222.88 735.25,-222.88 735.25,-202.12 776.75,-202.12 776.75,-222.88"/>
<text text-anchor="middle" x="756" y="-209.38" font-family="Helvetica,sans-Serif" font-size="10.00">array</text>
</a>
</g>
</g>
<!-- Node15&#45;&gt;Node20 -->
<g id="edge36_Node000015_Node000020" class="edge">
<title>Node15&#45;&gt;Node20</title>
<g id="a_edge36_Node000015_Node000020"><a xlink:title=" ">
<path fill="none" stroke="#63b8ff" d="M742.57,-264.8C744.73,-256.56 747.89,-244.5 750.6,-234.14"/>
<polygon fill="#63b8ff" stroke="#63b8ff" points="753.96,-235.12 753.11,-224.56 747.19,-233.35 753.96,-235.12"/>
</a>
</g>
</g>
<!-- Node15&#45;&gt;Node21 -->
<g id="edge37_Node000015_Node000021" class="edge">
<title>Node15&#45;&gt;Node21</title>
<g id="a_edge37_Node000015_Node000021"><a xlink:title=" ">
<path fill="none" stroke="#63b8ff" d="M658.66,-271.64C550.6,-266.84 354.02,-255.16 188,-229.25 174.3,-227.11 159.26,-223.74 146.82,-220.66"/>
<polygon fill="#63b8ff" stroke="#63b8ff" points="147.83,-217.31 137.28,-218.23 146.1,-224.09 147.83,-217.31"/>
</a>
</g>
</g>
<!-- Node17&#45;&gt;Node4 -->
<g id="edge29_Node000017_Node000004" class="edge">
<title>Node17&#45;&gt;Node4</title>
<g id="a_edge29_Node000017_Node000004"><a xlink:title=" ">
<path fill="none" stroke="#63b8ff" d="M390.27,-195.47C400.83,-176.48 420.77,-145.05 446,-126.25 517.43,-73.02 547.32,-77.3 634,-56.75 753.59,-28.39 897.35,-17.63 977.43,-13.64"/>
<polygon fill="#63b8ff" stroke="#63b8ff" points="977.43,-17.14 987.26,-13.17 977.1,-10.15 977.43,-17.14"/>
</a>
</g>
</g>
<!-- Node17&#45;&gt;Node6 -->
<g id="edge26_Node000017_Node000006" class="edge">
<title>Node17&#45;&gt;Node6</title>
<g id="a_edge26_Node000017_Node000006"><a xlink:title=" ">
<path fill="none" stroke="#63b8ff" d="M435.69,-197.86C439.17,-197.11 442.63,-196.4 446,-195.75 560.57,-173.78 590.99,-179.3 706,-159.75 712.71,-158.61 719.73,-157.32 726.69,-155.99"/>
<polygon fill="#63b8ff" stroke="#63b8ff" points="727.27,-159.44 736.41,-154.09 725.92,-152.57 727.27,-159.44"/>
</a>
</g>
</g>
<!-- Node17&#45;&gt;Node7 -->
<g id="edge28_Node000017_Node000007" class="edge">
<title>Node17&#45;&gt;Node7</title>
<g id="a_edge28_Node000017_Node000007"><a xlink:title=" ">
<path fill="none" stroke="#63b8ff" d="M435.87,-197.18C480.92,-185.21 544.59,-168.29 587.94,-156.77"/>
<polygon fill="#63b8ff" stroke="#63b8ff" points="588.81,-160.16 597.58,-154.21 587.01,-153.4 588.81,-160.16"/>
</a>
</g>
</g>
<!-- Node17&#45;&gt;Node9 -->
<g id="edge27_Node000017_Node000009" class="edge">
<title>Node17&#45;&gt;Node9</title>
<g id="a_edge27_Node000017_Node000009"><a xlink:title=" ">
<path fill="none" stroke="#63b8ff" d="M370.29,-195.59C363.71,-185.78 356.04,-172.63 352,-159.75 346.14,-141.05 344.46,-118.97 344.21,-101.97"/>
<polygon fill="#63b8ff" stroke="#63b8ff" points="347.71,-102.14 344.24,-92.13 340.71,-102.12 347.71,-102.14"/>
</a>
</g>
</g>
<!-- Node17&#45;&gt;Node11 -->
<g id="edge31_Node000017_Node000011" class="edge">
<title>Node17&#45;&gt;Node11</title>
<g id="a_edge31_Node000017_Node000011"><a xlink:title=" ">
<path fill="none" stroke="#63b8ff" d="M368.14,-195.46C336.35,-158.69 258.39,-68.51 224.81,-29.67"/>
<polygon fill="#63b8ff" stroke="#63b8ff" points="227.46,-27.38 218.27,-22.1 222.17,-31.96 227.46,-27.38"/>
</a>
</g>
</g>
<!-- Node18 -->
<g id="Node000018" class="node">
<title>Node18</title>
<g id="a_Node000018"><a xlink:title=" ">
<polygon fill="#e0e0e0" stroke="#999999" points="398.88,-153.38 361.12,-153.38 361.12,-132.62 398.88,-132.62 398.88,-153.38"/>
<text text-anchor="middle" x="380" y="-139.88" font-family="Helvetica,sans-Serif" font-size="10.00">map</text>
</a>
</g>
</g>
<!-- Node17&#45;&gt;Node18 -->
<g id="edge30_Node000017_Node000018" class="edge">
<title>Node17&#45;&gt;Node18</title>
<g id="a_edge30_Node000017_Node000018"><a xlink:title=" ">
<path fill="none" stroke="#63b8ff" d="M381.53,-195.5C381.26,-186.4 380.92,-174.89 380.62,-165.07"/>
<polygon fill="#63b8ff" stroke="#63b8ff" points="384.13,-165.23 380.34,-155.33 377.13,-165.43 384.13,-165.23"/>
</a>
</g>
</g>
<!-- Node17&#45;&gt;Node19 -->
<g id="edge32_Node000017_Node000019" class="edge">
<title>Node17&#45;&gt;Node19</title>
<g id="a_edge32_Node000017_Node000019"><a xlink:title=" ">
<path fill="none" stroke="#63b8ff" d="M339.84,-195.33C309.32,-183.63 268.58,-168 240.1,-157.08"/>
<polygon fill="#63b8ff" stroke="#63b8ff" points="241.46,-153.85 230.87,-153.54 238.96,-160.39 241.46,-153.85"/>
</a>
</g>
</g>
<!-- Node22&#45;&gt;Node4 -->
<g id="edge64_Node000022_Node000004" class="edge">
<title>Node22&#45;&gt;Node4</title>
<g id="a_edge64_Node000022_Node000004"><a xlink:title=" ">
<path fill="none" stroke="#63b8ff" d="M1822.51,-210.69C1731.66,-208.26 1542.9,-198.54 1492,-159.75 1452.41,-129.58 1487.96,-86.43 1448,-56.75 1394.41,-16.95 1201.16,-11.08 1100.67,-10.81"/>
<polygon fill="#63b8ff" stroke="#63b8ff" points="1100.7,-7.31 1090.7,-10.8 1100.7,-14.31 1100.7,-7.31"/>
</a>
</g>
</g>
<!-- Node22&#45;&gt;Node6 -->
<g id="edge49_Node000022_Node000006" class="edge">
<title>Node22&#45;&gt;Node6</title>
<g id="a_edge49_Node000022_Node000006"><a xlink:title=" ">
<path fill="none" stroke="#63b8ff" d="M1822.72,-208.66C1691.41,-201.06 1322.17,-179.5 1015,-159.75 965,-156.54 908.92,-152.72 864.54,-149.65"/>
<polygon fill="#63b8ff" stroke="#63b8ff" points="864.96,-146.17 854.74,-148.97 864.48,-153.15 864.96,-146.17"/>
</a>
</g>
</g>
<!-- Node22&#45;&gt;Node8 -->
<g id="edge57_Node000022_Node000008" class="edge">
<title>Node22&#45;&gt;Node8</title>
<g id="a_edge57_Node000022_Node000008"><a xlink:title=" ">
<path fill="none" stroke="#63b8ff" d="M1822.5,-210.93C1733.14,-208.88 1539.53,-199.75 1382,-159.75 1344.24,-150.16 1338.54,-136.67 1301,-126.25 1206.18,-99.93 1092.72,-86.15 1022.75,-79.61"/>
<polygon fill="#63b8ff" stroke="#63b8ff" points="1023.26,-76.14 1012.98,-78.72 1022.62,-83.11 1023.26,-76.14"/>
</a>
</g>
</g>
<!-- Node22&#45;&gt;Node11 -->
<g id="edge65_Node000022_Node000011" class="edge">
<title>Node22&#45;&gt;Node11</title>
<g id="a_edge65_Node000022_Node000011"><a xlink:title=" ">
<path fill="none" stroke="#63b8ff" d="M1822.43,-207.77C1745.81,-201.43 1594.24,-186.53 1468,-159.75 1417.17,-148.97 1406.38,-138.97 1356,-126.25 1208.14,-88.92 1171.26,-76.12 1020,-56.75 707.04,-16.68 625.72,-43.19 311,-20.75 288.12,-19.12 262.41,-16.75 242.52,-14.8"/>
<polygon fill="#63b8ff" stroke="#63b8ff" points="243.07,-11.34 232.77,-13.84 242.38,-18.31 243.07,-11.34"/>
</a>
</g>
</g>
<!-- Node22&#45;&gt;Node16 -->
<g id="edge55_Node000022_Node000016" class="edge">
<title>Node22&#45;&gt;Node16</title>
<g id="a_edge55_Node000022_Node000016"><a xlink:title=" ">
<path fill="none" stroke="#63b8ff" d="M1822.46,-210.53C1705.4,-207.68 1402.72,-197.02 1153,-159.75 1146.54,-158.79 1139.78,-157.54 1133.14,-156.18"/>
<polygon fill="#63b8ff" stroke="#63b8ff" points="1134.12,-152.81 1123.6,-154.11 1132.64,-159.65 1134.12,-152.81"/>
</a>
</g>
</g>
<!-- Node23 -->
<g id="Node000023" class="node">
<title>Node23</title>
<g id="a_Node000023"><a xlink:title=" ">
<polygon fill="#e0e0e0" stroke="#999999" points="2821.75,-153.38 2708.25,-153.38 2708.25,-132.62 2821.75,-132.62 2821.75,-153.38"/>
<text text-anchor="middle" x="2765" y="-139.88" font-family="Helvetica,sans-Serif" font-size="10.00">deal.II/base/config.h</text>
</a>
</g>
</g>
<!-- Node22&#45;&gt;Node23 -->
<g id="edge48_Node000022_Node000023" class="edge">
<title>Node22&#45;&gt;Node23</title>
<g id="a_edge48_Node000022_Node000023"><a xlink:title=" ">
<path fill="none" stroke="#63b8ff" d="M1921.72,-211.36C2050.74,-210.34 2406.62,-203.45 2699,-159.75 2705.12,-158.84 2711.5,-157.63 2717.78,-156.3"/>
<polygon fill="#63b8ff" stroke="#63b8ff" points="2718.45,-159.74 2727.43,-154.13 2716.91,-152.91 2718.45,-159.74"/>
</a>
</g>
</g>
<!-- Node24 -->
<g id="Node000024" class="node">
<title>Node24</title>
<g id="a_Node000024"><a xlink:title=" ">
<polygon fill="#e0e0e0" stroke="#999999" points="2973.88,-153.38 2840.12,-153.38 2840.12,-132.62 2973.88,-132.62 2973.88,-153.38"/>
<text text-anchor="middle" x="2907" y="-139.88" font-family="Helvetica,sans-Serif" font-size="10.00">deal.II/base/logstream.h</text>
</a>
</g>
</g>
<!-- Node22&#45;&gt;Node24 -->
<g id="edge50_Node000022_Node000024" class="edge">
<title>Node22&#45;&gt;Node24</title>
<g id="a_edge50_Node000022_Node000024"><a xlink:title=" ">
<path fill="none" stroke="#63b8ff" d="M1921.65,-211.45C2063.91,-210.73 2485.01,-204.68 2831,-159.75 2838.54,-158.77 2846.45,-157.46 2854.2,-156.01"/>
<polygon fill="#63b8ff" stroke="#63b8ff" points="2854.76,-159.46 2863.89,-154.09 2853.41,-152.6 2854.76,-159.46"/>
</a>
</g>
</g>
<!-- Node25 -->
<g id="Node000025" class="node">
<title>Node25</title>
<g id="a_Node000025"><a xlink:title=" ">
<polygon fill="#e0e0e0" stroke="#999999" points="1603.5,-153.38 1500.5,-153.38 1500.5,-132.62 1603.5,-132.62 1603.5,-153.38"/>
<text text-anchor="middle" x="1552" y="-139.88" font-family="Helvetica,sans-Serif" font-size="10.00">deal.II/base/mpi.h</text>
</a>
</g>
</g>
<!-- Node22&#45;&gt;Node25 -->
<g id="edge51_Node000022_Node000025" class="edge">
<title>Node22&#45;&gt;Node25</title>
<g id="a_edge51_Node000022_Node000025"><a xlink:title=" ">
<path fill="none" stroke="#63b8ff" d="M1822.66,-202.48C1770.42,-192.74 1685.64,-176.37 1613,-159.75 1608.69,-158.76 1604.21,-157.69 1599.73,-156.59"/>
<polygon fill="#63b8ff" stroke="#63b8ff" points="1600.71,-153.23 1590.16,-154.19 1599.01,-160.02 1600.71,-153.23"/>
</a>
</g>
</g>
<!-- Node26 -->
<g id="Node000026" class="node">
<title>Node26</title>
<g id="a_Node000026"><a xlink:title=" ">
<polygon fill="#e0e0e0" stroke="#999999" points="1730.5,-153.38 1621.5,-153.38 1621.5,-132.62 1730.5,-132.62 1730.5,-153.38"/>
<text text-anchor="middle" x="1676" y="-139.88" font-family="Helvetica,sans-Serif" font-size="10.00">deal.II/base/point.h</text>
</a>
</g>
</g>
<!-- Node22&#45;&gt;Node26 -->
<g id="edge52_Node000022_Node000026" class="edge">
<title>Node22&#45;&gt;Node26</title>
<g id="a_edge52_Node000022_Node000026"><a xlink:title=" ">
<path fill="none" stroke="#63b8ff" d="M1825.05,-195.33C1791.52,-183.78 1746.92,-168.43 1715.27,-157.53"/>
<polygon fill="#63b8ff" stroke="#63b8ff" points="1716.68,-154.31 1706.09,-154.36 1714.4,-160.93 1716.68,-154.31"/>
</a>
</g>
</g>
<!-- Node27 -->
<g id="Node000027" class="node">
<title>Node27</title>
<g id="a_Node000027"><a xlink:title=" ">
<polygon fill="#e0e0e0" stroke="#999999" points="1863.12,-153.38 1748.88,-153.38 1748.88,-132.62 1863.12,-132.62 1863.12,-153.38"/>
<text text-anchor="middle" x="1806" y="-139.88" font-family="Helvetica,sans-Serif" font-size="10.00">deal.II/base/tensor.h</text>
</a>
</g>
</g>
<!-- Node22&#45;&gt;Node27 -->
<g id="edge53_Node000022_Node000027" class="edge">
<title>Node22&#45;&gt;Node27</title>
<g id="a_edge53_Node000022_Node000027"><a xlink:title=" ">
<path fill="none" stroke="#63b8ff" d="M1856.36,-195.5C1846.47,-185.39 1833.68,-172.31 1823.46,-161.86"/>
<polygon fill="#63b8ff" stroke="#63b8ff" points="1826.16,-159.61 1816.66,-154.9 1821.15,-164.5 1826.16,-159.61"/>
</a>
</g>
</g>
<!-- Node28 -->
<g id="Node000028" class="node">
<title>Node28</title>
<g id="a_Node000028"><a xlink:title=" ">
<polygon fill="#e0e0e0" stroke="#999999" points="1992.62,-153.38 1881.38,-153.38 1881.38,-132.62 1992.62,-132.62 1992.62,-153.38"/>
<text text-anchor="middle" x="1937" y="-139.88" font-family="Helvetica,sans-Serif" font-size="10.00">deal.II/base/types.h</text>
</a>
</g>
</g>
<!-- Node22&#45;&gt;Node28 -->
<g id="edge54_Node000022_Node000028" class="edge">
<title>Node22&#45;&gt;Node28</title>
<g id="a_edge54_Node000022_Node000028"><a xlink:title=" ">
<path fill="none" stroke="#63b8ff" d="M1887.4,-195.5C1897.14,-185.39 1909.74,-172.31 1919.8,-161.86"/>
<polygon fill="#63b8ff" stroke="#63b8ff" points="1922.08,-164.54 1926.49,-154.91 1917.03,-159.69 1922.08,-164.54"/>
</a>
</g>
</g>
<!-- Node29 -->
<g id="Node000029" class="node">
<title>Node29</title>
<g id="a_Node000029"><a xlink:title=" ">
<polygon fill="#e0e0e0" stroke="#999999" points="2412,-83.88 2264,-83.88 2264,-63.12 2412,-63.12 2412,-83.88"/>
<text text-anchor="middle" x="2338" y="-70.38" font-family="Helvetica,sans-Serif" font-size="10.00">deal.II/base/vectorization.h</text>
</a>
</g>
</g>
<!-- Node22&#45;&gt;Node29 -->
<g id="edge56_Node000022_Node000029" class="edge">
<title>Node22&#45;&gt;Node29</title>
<g id="a_edge56_Node000022_Node000029"><a xlink:title=" ">
<path fill="none" stroke="#63b8ff" d="M1921.4,-208.98C2031.55,-202.9 2289.87,-186 2319,-159.75 2336.74,-143.76 2339.85,-115.18 2339.61,-95.55"/>
<polygon fill="#63b8ff" stroke="#63b8ff" points="2343.11,-95.51 2339.16,-85.68 2336.12,-95.83 2343.11,-95.51"/>
</a>
</g>
</g>
<!-- Node30 -->
<g id="Node000030" class="node">
<title>Node30</title>
<g id="a_Node000030"><a xlink:title=" ">
<polygon fill="#e0e0e0" stroke="#999999" points="2155.5,-153.38 2010.5,-153.38 2010.5,-132.62 2155.5,-132.62 2155.5,-153.38"/>
<text text-anchor="middle" x="2083" y="-139.88" font-family="Helvetica,sans-Serif" font-size="10.00">boost/range/algorithm.hpp</text>
</a>
</g>
</g>
<!-- Node22&#45;&gt;Node30 -->
<g id="edge58_Node000022_Node000030" class="edge">
<title>Node22&#45;&gt;Node30</title>
<g id="a_edge58_Node000022_Node000030"><a xlink:title=" ">
<path fill="none" stroke="#63b8ff" d="M1921.74,-195.59C1958.24,-183.91 2007.23,-168.24 2041.61,-157.24"/>
<polygon fill="#63b8ff" stroke="#63b8ff" points="2042.32,-160.69 2050.78,-154.31 2040.19,-154.02 2042.32,-160.69"/>
</a>
</g>
</g>
<!-- Node31 -->
<g id="Node000031" class="node">
<title>Node31</title>
<g id="a_Node000031"><a xlink:title=" ">
<polygon fill="#e0e0e0" stroke="#999999" points="2490,-159.75 2366,-159.75 2366,-126.25 2490,-126.25 2490,-159.75"/>
<text text-anchor="start" x="2374" y="-146.25" font-family="Helvetica,sans-Serif" font-size="10.00">boost/range/algorithm</text>
<text text-anchor="middle" x="2428" y="-133.5" font-family="Helvetica,sans-Serif" font-size="10.00">_ext.hpp</text>
</a>
</g>
</g>
<!-- Node22&#45;&gt;Node31 -->
<g id="edge59_Node000022_Node000031" class="edge">
<title>Node22&#45;&gt;Node31</title>
<g id="a_edge59_Node000022_Node000031"><a xlink:title=" ">
<path fill="none" stroke="#63b8ff" d="M1921.61,-207.75C2008.95,-200.79 2195.71,-184.31 2352,-159.75 2352.85,-159.62 2353.7,-159.48 2354.56,-159.34"/>
<polygon fill="#63b8ff" stroke="#63b8ff" points="2355.13,-162.79 2364.38,-157.64 2353.93,-155.9 2355.13,-162.79"/>
</a>
</g>
</g>
<!-- Node32 -->
<g id="Node000032" class="node">
<title>Node32</title>
<g id="a_Node000032"><a xlink:href="vectorized__operations_8h.html" target="_top" xlink:title=" ">
<polygon fill="white" stroke="#666666" points="2310,-159.75 2174,-159.75 2174,-126.25 2310,-126.25 2310,-159.75"/>
<text text-anchor="start" x="2182" y="-146.25" font-family="Helvetica,sans-Serif" font-size="10.00">prismspf/utilities</text>
<text text-anchor="middle" x="2242" y="-133.5" font-family="Helvetica,sans-Serif" font-size="10.00">/vectorized_operations.h</text>
</a>
</g>
</g>
<!-- Node22&#45;&gt;Node32 -->
<g id="edge60_Node000022_Node000032" class="edge">
<title>Node22&#45;&gt;Node32</title>
<g id="a_edge60_Node000022_Node000032"><a xlink:title=" ">
<path fill="none" stroke="#63b8ff" d="M1921.58,-203.16C1977.58,-193.65 2071.71,-177.39 2162.27,-160.24"/>
<polygon fill="#63b8ff" stroke="#63b8ff" points="2162.93,-163.68 2172.1,-158.38 2161.62,-156.8 2162.93,-163.68"/>
</a>
</g>
</g>
<!-- Node34 -->
<g id="Node000034" class="node">
<title>Node34</title>
<g id="a_Node000034"><a xlink:title=" ">
<polygon fill="#e0e0e0" stroke="#999999" points="2580.12,-153.38 2507.88,-153.38 2507.88,-132.62 2580.12,-132.62 2580.12,-153.38"/>
<text text-anchor="middle" x="2544" y="-139.88" font-family="Helvetica,sans-Serif" font-size="10.00">string_view</text>
</a>
</g>
</g>
<!-- Node22&#45;&gt;Node34 -->
<g id="edge66_Node000022_Node000034" class="edge">
<title>Node22&#45;&gt;Node34</title>
<g id="a_edge66_Node000022_Node000034"><a xlink:title=" ">
<path fill="none" stroke="#63b8ff" d="M1921.39,-211.66C2028.07,-211.09 2287.47,-204.73 2499,-159.75 2502.19,-159.07 2505.46,-158.23 2508.71,-157.29"/>
<polygon fill="#63b8ff" stroke="#63b8ff" points="2509.67,-160.66 2518.12,-154.28 2507.53,-153.99 2509.67,-160.66"/>
</a>
</g>
</g>
<!-- Node35 -->
<g id="Node000035" class="node">
<title>Node35</title>
<g id="a_Node000035"><a xlink:title=" ">
<polygon fill="#e0e0e0" stroke="#999999" points="2690.25,-153.38 2597.75,-153.38 2597.75,-132.62 2690.25,-132.62 2690.25,-153.38"/>
<text text-anchor="middle" x="2644" y="-139.88" font-family="Helvetica,sans-Serif" font-size="10.00">unordered_map</text>
</a>
</g>
</g>
<!-- Node22&#45;&gt;Node35 -->
<g id="edge67_Node000022_Node000035" class="edge">
<title>Node22&#45;&gt;Node35</title>
<g id="a_edge67_Node000022_Node000035"><a xlink:title=" ">
<path fill="none" stroke="#63b8ff" d="M1921.55,-211.44C2038.61,-210.52 2341.08,-203.71 2589,-159.75 2593.62,-158.93 2598.41,-157.88 2603.15,-156.7"/>
<polygon fill="#63b8ff" stroke="#63b8ff" points="2603.78,-160.16 2612.54,-154.19 2601.98,-153.39 2603.78,-160.16"/>
</a>
</g>
</g>
<!-- Node32&#45;&gt;Node4 -->
<g id="edge62_Node000032_Node000004" class="edge">
<title>Node32&#45;&gt;Node4</title>
<g id="a_edge62_Node000032_Node000004"><a xlink:title=" ">
<path fill="none" stroke="#63b8ff" d="M2242.45,-125.76C2242.02,-105.93 2237.92,-73.06 2217,-56.75 2172.67,-22.2 1337.07,-13.54 1100.77,-11.77"/>
<polygon fill="#63b8ff" stroke="#63b8ff" points="1100.86,-8.27 1090.84,-11.7 1100.81,-15.27 1100.86,-8.27"/>
</a>
</g>
</g>
<!-- Node32&#45;&gt;Node29 -->
<g id="edge61_Node000032_Node000029" class="edge">
<title>Node32&#45;&gt;Node29</title>
<g id="a_edge61_Node000032_Node000029"><a xlink:title=" ">
<path fill="none" stroke="#63b8ff" d="M2264.75,-126C2279.85,-115.39 2299.61,-101.49 2314.8,-90.81"/>
<polygon fill="#63b8ff" stroke="#63b8ff" points="2316.63,-93.81 2322.79,-85.19 2312.6,-88.08 2316.63,-93.81"/>
</a>
</g>
</g>
<!-- Node33 -->
<g id="Node000033" class="node">
<title>Node33</title>
<g id="a_Node000033"><a xlink:title=" ">
<polygon fill="#e0e0e0" stroke="#999999" points="2208.38,-83.88 2161.62,-83.88 2161.62,-63.12 2208.38,-63.12 2208.38,-83.88"/>
<text text-anchor="middle" x="2185" y="-70.38" font-family="Helvetica,sans-Serif" font-size="10.00">cmath</text>
</a>
</g>
</g>
<!-- Node32&#45;&gt;Node33 -->
<g id="edge63_Node000032_Node000033" class="edge">
<title>Node32&#45;&gt;Node33</title>
<g id="a_edge63_Node000032_Node000033"><a xlink:title=" ">
<path fill="none" stroke="#63b8ff" d="M2228.49,-126C2220.12,-116.09 2209.34,-103.33 2200.61,-92.99"/>
<polygon fill="#63b8ff" stroke="#63b8ff" points="2203.4,-90.86 2194.27,-85.48 2198.05,-95.38 2203.4,-90.86"/>
</a>
</g>
</g>
</g>
</svg>
