<?xml version="1.0" encoding="UTF-8" standalone="no"?>
<!DOCTYPE svg PUBLIC "-//W3C//DTD SVG 1.1//EN"
 "http://www.w3.org/Graphics/SVG/1.1/DTD/svg11.dtd">
<!-- Generated by graphviz version 12.2.1 (20241206.2353)
 -->
<!-- Title: include/prismspf/user_inputs/checkpoint_parameters.h Pages: 1 -->
<svg width="2427pt" height="503pt"
 viewBox="0.00 0.00 2427.25 502.50" xmlns="http://www.w3.org/2000/svg" xmlns:xlink="http://www.w3.org/1999/xlink">
<g id="graph0" class="graph" transform="scale(1 1) rotate(0) translate(4 498.5)">
<title>include/prismspf/user_inputs/checkpoint_parameters.h</title>
<!-- Node1 -->
<g id="Node000001" class="node">
<title>Node1</title>
<g id="a_Node000001"><a xlink:title=" ">
<polygon fill="#999999" stroke="#666666" points="1338,-494.5 1160,-494.5 1160,-461 1338,-461 1338,-494.5"/>
<text text-anchor="start" x="1168" y="-481" font-family="Helvetica,sans-Serif" font-size="10.00">include/prismspf/user</text>
<text text-anchor="middle" x="1249" y="-468.25" font-family="Helvetica,sans-Serif" font-size="10.00">_inputs/checkpoint_parameters.h</text>
</a>
</g>
</g>
<!-- Node2 -->
<g id="Node000002" class="node">
<title>Node2</title>
<g id="a_Node000002"><a xlink:href="conditional__ostreams_8h.html" target="_top" xlink:title=" ">
<polygon fill="white" stroke="#666666" points="1268.88,-229.25 1129.12,-229.25 1129.12,-195.75 1268.88,-195.75 1268.88,-229.25"/>
<text text-anchor="start" x="1137.12" y="-215.75" font-family="Helvetica,sans-Serif" font-size="10.00">prismspf/core/conditional</text>
<text text-anchor="middle" x="1199" y="-203" font-family="Helvetica,sans-Serif" font-size="10.00">_ostreams.h</text>
</a>
</g>
</g>
<!-- Node1&#45;&gt;Node2 -->
<g id="edge1_Node000001_Node000002" class="edge">
<title>Node1&#45;&gt;Node2</title>
<g id="a_edge1_Node000001_Node000002"><a xlink:title=" ">
<path fill="none" stroke="#63b8ff" d="M1261.82,-460.57C1268.68,-450.86 1276.43,-437.92 1280,-425 1283.97,-410.65 1283.16,-406.05 1280,-391.5 1267.48,-333.77 1234.56,-272.28 1214.75,-238.82"/>
<polygon fill="#63b8ff" stroke="#63b8ff" points="1218,-237.43 1209.85,-230.66 1212.01,-241.04 1218,-237.43"/>
</a>
</g>
</g>
<!-- Node4 -->
<g id="Node000004" class="node">
<title>Node4</title>
<g id="a_Node000004"><a xlink:title=" ">
<polygon fill="#e0e0e0" stroke="#999999" points="1125,-20.75 1025,-20.75 1025,0 1125,0 1125,-20.75"/>
<text text-anchor="middle" x="1075" y="-7.25" font-family="Helvetica,sans-Serif" font-size="10.00">prismspf/config.h</text>
</a>
</g>
</g>
<!-- Node1&#45;&gt;Node4 -->
<g id="edge63_Node000001_Node000004" class="edge">
<title>Node1&#45;&gt;Node4</title>
<g id="a_edge63_Node000001_Node000004"><a xlink:title=" ">
<path fill="none" stroke="#63b8ff" d="M1280.15,-460.51C1317.46,-438.57 1375,-395.65 1375,-339.75 1375,-339.75 1375,-339.75 1375,-142 1375,-38.98 1224.44,-16.37 1136.64,-11.94"/>
<polygon fill="#63b8ff" stroke="#63b8ff" points="1136.87,-8.45 1126.73,-11.51 1136.57,-15.44 1136.87,-8.45"/>
</a>
</g>
</g>
<!-- Node5 -->
<g id="Node000005" class="node">
<title>Node5</title>
<g id="a_Node000005"><a xlink:href="exceptions_8h.html" target="_top" xlink:title=" ">
<polygon fill="white" stroke="#666666" points="616,-222.88 468,-222.88 468,-202.12 616,-202.12 616,-222.88"/>
<text text-anchor="middle" x="542" y="-209.38" font-family="Helvetica,sans-Serif" font-size="10.00">prismspf/core/exceptions.h</text>
</a>
</g>
</g>
<!-- Node1&#45;&gt;Node5 -->
<g id="edge4_Node000001_Node000005" class="edge">
<title>Node1&#45;&gt;Node5</title>
<g id="a_edge4_Node000001_Node000005"><a xlink:title=" ">
<path fill="none" stroke="#63b8ff" d="M1159.63,-467.83C1010.21,-451.52 717.7,-413.15 633,-355.5 588.57,-325.26 561.07,-265.38 549.06,-233.92"/>
<polygon fill="#63b8ff" stroke="#63b8ff" points="552.45,-232.99 545.74,-224.79 545.87,-235.38 552.45,-232.99"/>
</a>
</g>
</g>
<!-- Node11 -->
<g id="Node000011" class="node">
<title>Node11</title>
<g id="a_Node000011"><a xlink:title=" ">
<polygon fill="#e0e0e0" stroke="#999999" points="273.88,-20.75 230.12,-20.75 230.12,0 273.88,0 273.88,-20.75"/>
<text text-anchor="middle" x="252" y="-7.25" font-family="Helvetica,sans-Serif" font-size="10.00">string</text>
</a>
</g>
</g>
<!-- Node1&#45;&gt;Node11 -->
<g id="edge66_Node000001_Node000011" class="edge">
<title>Node1&#45;&gt;Node11</title>
<g id="a_edge66_Node000001_Node000011"><a xlink:title=" ">
<path fill="none" stroke="#63b8ff" d="M1159.68,-476.33C873.81,-473.8 0,-456.52 0,-339.75 0,-339.75 0,-339.75 0,-142 0,-44.84 149.47,-19.86 218.18,-13.51"/>
<polygon fill="#63b8ff" stroke="#63b8ff" points="218.45,-17 228.13,-12.68 217.87,-10.02 218.45,-17"/>
</a>
</g>
</g>
<!-- Node12 -->
<g id="Node000012" class="node">
<title>Node12</title>
<g id="a_Node000012"><a xlink:href="temporal__discretization_8h.html" target="_top" xlink:title=" ">
<polygon fill="white" stroke="#666666" points="1270.75,-425 1127.25,-425 1127.25,-391.5 1270.75,-391.5 1270.75,-425"/>
<text text-anchor="start" x="1135.25" y="-411.5" font-family="Helvetica,sans-Serif" font-size="10.00">prismspf/user_inputs</text>
<text text-anchor="middle" x="1199" y="-398.75" font-family="Helvetica,sans-Serif" font-size="10.00">/temporal_discretization.h</text>
</a>
</g>
</g>
<!-- Node1&#45;&gt;Node12 -->
<g id="edge14_Node000001_Node000012" class="edge">
<title>Node1&#45;&gt;Node12</title>
<g id="a_edge14_Node000001_Node000012"><a xlink:title=" ">
<path fill="none" stroke="#63b8ff" d="M1237.15,-460.75C1231.3,-452.85 1224.1,-443.13 1217.54,-434.28"/>
<polygon fill="#63b8ff" stroke="#63b8ff" points="1220.43,-432.3 1211.67,-426.35 1214.81,-436.47 1220.43,-432.3"/>
</a>
</g>
</g>
<!-- Node20 -->
<g id="Node000020" class="node">
<title>Node20</title>
<g id="a_Node000020"><a xlink:title=" ">
<polygon fill="#e0e0e0" stroke="#999999" points="173.5,-222.88 142.5,-222.88 142.5,-202.12 173.5,-202.12 173.5,-222.88"/>
<text text-anchor="middle" x="158" y="-209.38" font-family="Helvetica,sans-Serif" font-size="10.00">set</text>
</a>
</g>
</g>
<!-- Node1&#45;&gt;Node20 -->
<g id="edge65_Node000001_Node000020" class="edge">
<title>Node1&#45;&gt;Node20</title>
<g id="a_edge65_Node000001_Node000020"><a xlink:title=" ">
<path fill="none" stroke="#63b8ff" d="M1159.95,-475.33C1052.99,-471.98 868.73,-460.95 715,-425 502.41,-375.28 261.73,-263.77 183.8,-226.16"/>
<polygon fill="#63b8ff" stroke="#63b8ff" points="185.79,-223.24 175.27,-222.02 182.74,-229.54 185.79,-223.24"/>
</a>
</g>
</g>
<!-- Node21 -->
<g id="Node000021" class="node">
<title>Node21</title>
<g id="a_Node000021"><a xlink:href="utilities_8h.html" target="_top" xlink:title=" ">
<polygon fill="white" stroke="#666666" points="1695.25,-229.25 1596.75,-229.25 1596.75,-195.75 1695.25,-195.75 1695.25,-229.25"/>
<text text-anchor="start" x="1604.75" y="-215.75" font-family="Helvetica,sans-Serif" font-size="10.00">prismspf/utilities</text>
<text text-anchor="middle" x="1646" y="-203" font-family="Helvetica,sans-Serif" font-size="10.00">/utilities.h</text>
</a>
</g>
</g>
<!-- Node1&#45;&gt;Node21 -->
<g id="edge46_Node000001_Node000021" class="edge">
<title>Node1&#45;&gt;Node21</title>
<g id="a_edge46_Node000001_Node000021"><a xlink:title=" ">
<path fill="none" stroke="#63b8ff" d="M1305.77,-460.57C1332.01,-451.9 1363.05,-439.91 1389,-425 1401.66,-417.73 1554.45,-290.17 1618.27,-236.74"/>
<polygon fill="#63b8ff" stroke="#63b8ff" points="1620.43,-239.5 1625.85,-230.39 1615.94,-234.13 1620.43,-239.5"/>
</a>
</g>
</g>
<!-- Node31 -->
<g id="Node000031" class="node">
<title>Node31</title>
<g id="a_Node000031"><a xlink:title=" ">
<polygon fill="#e0e0e0" stroke="#999999" points="1490.5,-418.62 1441.5,-418.62 1441.5,-397.88 1490.5,-397.88 1490.5,-418.62"/>
<text text-anchor="middle" x="1466" y="-405.12" font-family="Helvetica,sans-Serif" font-size="10.00">climits</text>
</a>
</g>
</g>
<!-- Node1&#45;&gt;Node31 -->
<g id="edge64_Node000001_Node000031" class="edge">
<title>Node1&#45;&gt;Node31</title>
<g id="a_edge64_Node000001_Node000031"><a xlink:title=" ">
<path fill="none" stroke="#63b8ff" d="M1310.44,-460.53C1344.96,-451.01 1388.68,-438.27 1427,-425 1428.8,-424.38 1430.64,-423.71 1432.5,-423.03"/>
<polygon fill="#63b8ff" stroke="#63b8ff" points="1433.56,-426.37 1441.64,-419.51 1431.05,-419.84 1433.56,-426.37"/>
</a>
</g>
</g>
<!-- Node3 -->
<g id="Node000003" class="node">
<title>Node3</title>
<g id="a_Node000003"><a xlink:title=" ">
<polygon fill="#e0e0e0" stroke="#999999" points="1232.62,-159.75 1103.38,-159.75 1103.38,-126.25 1232.62,-126.25 1232.62,-159.75"/>
<text text-anchor="start" x="1111.38" y="-146.25" font-family="Helvetica,sans-Serif" font-size="10.00">deal.II/base/conditional</text>
<text text-anchor="middle" x="1168" y="-133.5" font-family="Helvetica,sans-Serif" font-size="10.00">_ostream.h</text>
</a>
</g>
</g>
<!-- Node2&#45;&gt;Node3 -->
<g id="edge2_Node000002_Node000003" class="edge">
<title>Node2&#45;&gt;Node3</title>
<g id="a_edge2_Node000002_Node000003"><a xlink:title=" ">
<path fill="none" stroke="#63b8ff" d="M1191.65,-195.5C1188.18,-187.94 1183.94,-178.71 1180.02,-170.16"/>
<polygon fill="#63b8ff" stroke="#63b8ff" points="1183.28,-168.88 1175.93,-161.26 1176.92,-171.81 1183.28,-168.88"/>
</a>
</g>
</g>
<!-- Node2&#45;&gt;Node4 -->
<g id="edge3_Node000002_Node000004" class="edge">
<title>Node2&#45;&gt;Node4</title>
<g id="a_edge3_Node000002_Node000004"><a xlink:title=" ">
<path fill="none" stroke="#63b8ff" d="M1216.88,-195.39C1233.7,-178.19 1254.58,-150.16 1242,-126.25 1215.14,-75.18 1154.18,-42.41 1113.82,-25.44"/>
<polygon fill="#63b8ff" stroke="#63b8ff" points="1115.26,-22.25 1104.68,-21.74 1112.64,-28.74 1115.26,-22.25"/>
</a>
</g>
</g>
<!-- Node5&#45;&gt;Node4 -->
<g id="edge13_Node000005_Node000004" class="edge">
<title>Node5&#45;&gt;Node4</title>
<g id="a_edge13_Node000005_Node000004"><a xlink:title=" ">
<path fill="none" stroke="#63b8ff" d="M541.69,-201.75C541.65,-184.72 543.82,-149.19 561,-126.25 599.35,-75.07 626.1,-76.27 687,-56.75 798.41,-21.03 935.87,-12.85 1013.67,-11.31"/>
<polygon fill="#63b8ff" stroke="#63b8ff" points="1013.25,-14.82 1023.19,-11.15 1013.14,-7.82 1013.25,-14.82"/>
</a>
</g>
</g>
<!-- Node6 -->
<g id="Node000006" class="node">
<title>Node6</title>
<g id="a_Node000006"><a xlink:title=" ">
<polygon fill="#e0e0e0" stroke="#999999" points="885.75,-153.38 748.25,-153.38 748.25,-132.62 885.75,-132.62 885.75,-153.38"/>
<text text-anchor="middle" x="817" y="-139.88" font-family="Helvetica,sans-Serif" font-size="10.00">deal.II/base/exceptions.h</text>
</a>
</g>
</g>
<!-- Node5&#45;&gt;Node6 -->
<g id="edge5_Node000005_Node000006" class="edge">
<title>Node5&#45;&gt;Node6</title>
<g id="a_edge5_Node000005_Node000006"><a xlink:title=" ">
<path fill="none" stroke="#63b8ff" d="M581.99,-201.68C630.66,-189.74 712.93,-169.54 766.09,-156.5"/>
<polygon fill="#63b8ff" stroke="#63b8ff" points="766.62,-159.97 775.49,-154.19 764.95,-153.17 766.62,-159.97"/>
</a>
</g>
</g>
<!-- Node7 -->
<g id="Node000007" class="node">
<title>Node7</title>
<g id="a_Node000007"><a xlink:href="types_8h.html" target="_top" xlink:title=" ">
<polygon fill="white" stroke="#666666" points="691.88,-153.38 570.12,-153.38 570.12,-132.62 691.88,-132.62 691.88,-153.38"/>
<text text-anchor="middle" x="631" y="-139.88" font-family="Helvetica,sans-Serif" font-size="10.00">prismspf/core/types.h</text>
</a>
</g>
</g>
<!-- Node5&#45;&gt;Node7 -->
<g id="edge6_Node000005_Node000007" class="edge">
<title>Node5&#45;&gt;Node7</title>
<g id="a_edge6_Node000005_Node000007"><a xlink:title=" ">
<path fill="none" stroke="#63b8ff" d="M554.75,-201.83C568.95,-191.06 592.13,-173.48 609.22,-160.52"/>
<polygon fill="#63b8ff" stroke="#63b8ff" points="610.92,-163.62 616.78,-154.79 606.69,-158.04 610.92,-163.62"/>
</a>
</g>
</g>
<!-- Node7&#45;&gt;Node4 -->
<g id="edge12_Node000007_Node000004" class="edge">
<title>Node7&#45;&gt;Node4</title>
<g id="a_edge12_Node000007_Node000004"><a xlink:title=" ">
<path fill="none" stroke="#63b8ff" d="M640.2,-132.34C658.19,-114.11 700.16,-74.84 744,-56.75 832.7,-20.16 944.98,-11.91 1013.33,-10.65"/>
<polygon fill="#63b8ff" stroke="#63b8ff" points="1013.27,-14.15 1023.23,-10.52 1013.18,-7.16 1013.27,-14.15"/>
</a>
</g>
</g>
<!-- Node8 -->
<g id="Node000008" class="node">
<title>Node8</title>
<g id="a_Node000008"><a xlink:title=" ">
<polygon fill="#e0e0e0" stroke="#999999" points="861.12,-90.25 752.88,-90.25 752.88,-56.75 861.12,-56.75 861.12,-90.25"/>
<text text-anchor="start" x="760.88" y="-76.75" font-family="Helvetica,sans-Serif" font-size="10.00">deal.II/matrix_free</text>
<text text-anchor="middle" x="807" y="-64" font-family="Helvetica,sans-Serif" font-size="10.00">/evaluation_flags.h</text>
</a>
</g>
</g>
<!-- Node7&#45;&gt;Node8 -->
<g id="edge7_Node000007_Node000008" class="edge">
<title>Node7&#45;&gt;Node8</title>
<g id="a_edge7_Node000007_Node000008"><a xlink:title=" ">
<path fill="none" stroke="#63b8ff" d="M656.59,-132.18C682.03,-122.43 721.81,-107.17 754.07,-94.8"/>
<polygon fill="#63b8ff" stroke="#63b8ff" points="755.19,-98.12 763.27,-91.27 752.68,-91.58 755.19,-98.12"/>
</a>
</g>
</g>
<!-- Node9 -->
<g id="Node000009" class="node">
<title>Node9</title>
<g id="a_Node000009"><a xlink:href="type__enums_8h.html" target="_top" xlink:title=" ">
<polygon fill="white" stroke="#666666" points="475.75,-90.25 368.25,-90.25 368.25,-56.75 475.75,-56.75 475.75,-90.25"/>
<text text-anchor="start" x="376.25" y="-76.75" font-family="Helvetica,sans-Serif" font-size="10.00">prismspf/core/type</text>
<text text-anchor="middle" x="422" y="-64" font-family="Helvetica,sans-Serif" font-size="10.00">_enums.h</text>
</a>
</g>
</g>
<!-- Node7&#45;&gt;Node9 -->
<g id="edge8_Node000007_Node000009" class="edge">
<title>Node7&#45;&gt;Node9</title>
<g id="a_edge8_Node000007_Node000009"><a xlink:title=" ">
<path fill="none" stroke="#63b8ff" d="M600.61,-132.18C569.87,-122.26 521.52,-106.64 482.87,-94.16"/>
<polygon fill="#63b8ff" stroke="#63b8ff" points="484.28,-90.94 473.69,-91.19 482.13,-97.6 484.28,-90.94"/>
</a>
</g>
</g>
<!-- Node9&#45;&gt;Node4 -->
<g id="edge9_Node000009_Node000004" class="edge">
<title>Node9&#45;&gt;Node4</title>
<g id="a_edge9_Node000009_Node000004"><a xlink:title=" ">
<path fill="none" stroke="#63b8ff" d="M476.05,-59.21C480.75,-58.29 485.45,-57.45 490,-56.75 679.43,-27.63 906.4,-16.81 1013.41,-13.11"/>
<polygon fill="#63b8ff" stroke="#63b8ff" points="1013.24,-16.62 1023.11,-12.79 1013,-9.62 1013.24,-16.62"/>
</a>
</g>
</g>
<!-- Node10 -->
<g id="Node000010" class="node">
<title>Node10</title>
<g id="a_Node000010"><a xlink:title=" ">
<polygon fill="#e0e0e0" stroke="#999999" points="446.5,-20.75 397.5,-20.75 397.5,0 446.5,0 446.5,-20.75"/>
<text text-anchor="middle" x="422" y="-7.25" font-family="Helvetica,sans-Serif" font-size="10.00">cstdint</text>
</a>
</g>
</g>
<!-- Node9&#45;&gt;Node10 -->
<g id="edge10_Node000009_Node000010" class="edge">
<title>Node9&#45;&gt;Node10</title>
<g id="a_edge10_Node000009_Node000010"><a xlink:title=" ">
<path fill="none" stroke="#63b8ff" d="M422,-56.44C422,-49.1 422,-40.32 422,-32.46"/>
<polygon fill="#63b8ff" stroke="#63b8ff" points="425.5,-32.73 422,-22.73 418.5,-32.73 425.5,-32.73"/>
</a>
</g>
</g>
<!-- Node9&#45;&gt;Node11 -->
<g id="edge11_Node000009_Node000011" class="edge">
<title>Node9&#45;&gt;Node11</title>
<g id="a_edge11_Node000009_Node000011"><a xlink:title=" ">
<path fill="none" stroke="#63b8ff" d="M376.89,-56.28C347.8,-45.82 310.64,-32.46 284.45,-23.04"/>
<polygon fill="#63b8ff" stroke="#63b8ff" points="285.97,-19.87 275.37,-19.78 283.6,-26.46 285.97,-19.87"/>
</a>
</g>
</g>
<!-- Node12&#45;&gt;Node2 -->
<g id="edge15_Node000012_Node000002" class="edge">
<title>Node12&#45;&gt;Node2</title>
<g id="a_edge15_Node000012_Node000002"><a xlink:title=" ">
<path fill="none" stroke="#63b8ff" d="M1199,-391.06C1199,-357.86 1199,-281.72 1199,-240.76"/>
<polygon fill="#63b8ff" stroke="#63b8ff" points="1202.5,-241.02 1199,-231.02 1195.5,-241.02 1202.5,-241.02"/>
</a>
</g>
</g>
<!-- Node12&#45;&gt;Node4 -->
<g id="edge45_Node000012_Node000004" class="edge">
<title>Node12&#45;&gt;Node4</title>
<g id="a_edge45_Node000012_Node000004"><a xlink:title=" ">
<path fill="none" stroke="#63b8ff" d="M1221.48,-391.14C1260.58,-361.05 1337,-292.17 1337,-213.5 1337,-213.5 1337,-213.5 1337,-142 1337,-52.74 1213.71,-24.47 1136.28,-15.52"/>
<polygon fill="#63b8ff" stroke="#63b8ff" points="1137.03,-12.08 1126.71,-14.5 1136.28,-19.04 1137.03,-12.08"/>
</a>
</g>
</g>
<!-- Node13 -->
<g id="Node000013" class="node">
<title>Node13</title>
<g id="a_Node000013"><a xlink:href="solve__block_8h.html" target="_top" xlink:title=" ">
<polygon fill="white" stroke="#666666" points="754,-355.5 642,-355.5 642,-322 754,-322 754,-355.5"/>
<text text-anchor="start" x="650" y="-342" font-family="Helvetica,sans-Serif" font-size="10.00">prismspf/core/solve</text>
<text text-anchor="middle" x="698" y="-329.25" font-family="Helvetica,sans-Serif" font-size="10.00">_block.h</text>
</a>
</g>
</g>
<!-- Node12&#45;&gt;Node13 -->
<g id="edge16_Node000012_Node000013" class="edge">
<title>Node12&#45;&gt;Node13</title>
<g id="a_edge16_Node000012_Node000013"><a xlink:title=" ">
<path fill="none" stroke="#63b8ff" d="M1126.95,-397.54C1030.39,-384.53 860.23,-361.61 765.85,-348.89"/>
<polygon fill="#63b8ff" stroke="#63b8ff" points="766.33,-345.42 755.95,-347.56 765.39,-352.36 766.33,-345.42"/>
</a>
</g>
</g>
<!-- Node13&#45;&gt;Node4 -->
<g id="edge41_Node000013_Node000004" class="edge">
<title>Node13&#45;&gt;Node4</title>
<g id="a_edge41_Node000013_Node000004"><a xlink:title=" ">
<path fill="none" stroke="#63b8ff" d="M754.37,-328.18C843.23,-311.84 1009.46,-275.77 1045,-229.25 1090.37,-169.85 1083.9,-73.9 1078.34,-32.03"/>
<polygon fill="#63b8ff" stroke="#63b8ff" points="1081.83,-31.75 1076.92,-22.37 1074.91,-32.77 1081.83,-31.75"/>
</a>
</g>
</g>
<!-- Node13&#45;&gt;Node6 -->
<g id="edge17_Node000013_Node000006" class="edge">
<title>Node13&#45;&gt;Node6</title>
<g id="a_edge17_Node000013_Node000006"><a xlink:title=" ">
<path fill="none" stroke="#63b8ff" d="M754.37,-329.16C808.68,-317.38 886.92,-290.23 917,-229.25 923.59,-215.9 924.74,-208.47 917,-195.75 906.08,-177.8 886.69,-165.8 867.88,-157.92"/>
<polygon fill="#63b8ff" stroke="#63b8ff" points="869.25,-154.69 858.66,-154.38 866.75,-161.23 869.25,-154.69"/>
</a>
</g>
</g>
<!-- Node13&#45;&gt;Node7 -->
<g id="edge40_Node000013_Node000007" class="edge">
<title>Node13&#45;&gt;Node7</title>
<g id="a_edge40_Node000013_Node000007"><a xlink:title=" ">
<path fill="none" stroke="#63b8ff" d="M684.98,-321.89C677.53,-312.08 668.6,-298.94 663,-286 645.34,-245.17 636.84,-193.35 633.25,-164.96"/>
<polygon fill="#63b8ff" stroke="#63b8ff" points="636.74,-164.71 632.1,-155.19 629.79,-165.53 636.74,-164.71"/>
</a>
</g>
</g>
<!-- Node13&#45;&gt;Node8 -->
<g id="edge18_Node000013_Node000008" class="edge">
<title>Node13&#45;&gt;Node8</title>
<g id="a_edge18_Node000013_Node000008"><a xlink:title=" ">
<path fill="none" stroke="#63b8ff" d="M754.31,-332.99C795.72,-327.2 851.73,-314.38 893,-286 918.64,-268.37 924.42,-258.86 934,-229.25 949.06,-182.68 929.26,-161.21 895,-126.25 883.21,-114.22 868.04,-103.98 853.63,-95.87"/>
<polygon fill="#63b8ff" stroke="#63b8ff" points="855.62,-92.97 845.15,-91.32 852.3,-99.14 855.62,-92.97"/>
</a>
</g>
</g>
<!-- Node13&#45;&gt;Node9 -->
<g id="edge39_Node000013_Node000009" class="edge">
<title>Node13&#45;&gt;Node9</title>
<g id="a_edge39_Node000013_Node000009"><a xlink:title=" ">
<path fill="none" stroke="#63b8ff" d="M641.59,-335.03C532.24,-329.21 295.46,-313.75 219,-286 176.3,-270.5 155.42,-269.31 134,-229.25 84.39,-136.47 257.6,-96.92 356.98,-82.15"/>
<polygon fill="#63b8ff" stroke="#63b8ff" points="357.22,-85.65 366.62,-80.77 356.23,-78.73 357.22,-85.65"/>
</a>
</g>
</g>
<!-- Node13&#45;&gt;Node11 -->
<g id="edge43_Node000013_Node000011" class="edge">
<title>Node13&#45;&gt;Node11</title>
<g id="a_edge43_Node000013_Node000011"><a xlink:title=" ">
<path fill="none" stroke="#63b8ff" d="M641.7,-338.36C488.59,-338.52 76,-328.3 76,-213.5 76,-213.5 76,-213.5 76,-142 76,-71.6 167.92,-34.73 218.9,-19.7"/>
<polygon fill="#63b8ff" stroke="#63b8ff" points="219.57,-23.15 228.25,-17.07 217.68,-16.41 219.57,-23.15"/>
</a>
</g>
</g>
<!-- Node14 -->
<g id="Node000014" class="node">
<title>Node14</title>
<g id="a_Node000014"><a xlink:href="dependencies_8h.html" target="_top" xlink:title=" ">
<polygon fill="white" stroke="#666666" points="834.12,-286 671.88,-286 671.88,-265.25 834.12,-265.25 834.12,-286"/>
<text text-anchor="middle" x="753" y="-272.5" font-family="Helvetica,sans-Serif" font-size="10.00">prismspf/core/dependencies.h</text>
</a>
</g>
</g>
<!-- Node13&#45;&gt;Node14 -->
<g id="edge19_Node000013_Node000014" class="edge">
<title>Node13&#45;&gt;Node14</title>
<g id="a_edge19_Node000013_Node000014"><a xlink:title=" ">
<path fill="none" stroke="#63b8ff" d="M712.45,-321.69C719.84,-313.48 728.86,-303.46 736.51,-294.95"/>
<polygon fill="#63b8ff" stroke="#63b8ff" points="739.04,-297.37 743.13,-287.59 733.84,-292.68 739.04,-297.37"/>
</a>
</g>
</g>
<!-- Node18 -->
<g id="Node000018" class="node">
<title>Node18</title>
<g id="a_Node000018"><a xlink:title=" ">
<polygon fill="#e0e0e0" stroke="#999999" points="314.38,-153.38 267.62,-153.38 267.62,-132.62 314.38,-132.62 314.38,-153.38"/>
<text text-anchor="middle" x="291" y="-139.88" font-family="Helvetica,sans-Serif" font-size="10.00">vector</text>
</a>
</g>
</g>
<!-- Node13&#45;&gt;Node18 -->
<g id="edge44_Node000013_Node000018" class="edge">
<title>Node13&#45;&gt;Node18</title>
<g id="a_edge44_Node000013_Node000018"><a xlink:title=" ">
<path fill="none" stroke="#63b8ff" d="M641.68,-329.75C544.14,-314.71 349.89,-279.2 305,-229.25 289.45,-211.95 287.6,-184.31 288.56,-165.22"/>
<polygon fill="#63b8ff" stroke="#63b8ff" points="292.04,-165.62 289.39,-155.36 285.07,-165.03 292.04,-165.62"/>
</a>
</g>
</g>
<!-- Node13&#45;&gt;Node20 -->
<g id="edge42_Node000013_Node000020" class="edge">
<title>Node13&#45;&gt;Node20</title>
<g id="a_edge42_Node000013_Node000020"><a xlink:title=" ">
<path fill="none" stroke="#63b8ff" d="M641.79,-334.39C540.58,-327.79 331.93,-311.51 264,-286 230.31,-273.35 196.96,-247.82 176.91,-230.69"/>
<polygon fill="#63b8ff" stroke="#63b8ff" points="179.41,-228.22 169.58,-224.26 174.8,-233.49 179.41,-228.22"/>
</a>
</g>
</g>
<!-- Node14&#45;&gt;Node2 -->
<g id="edge23_Node000014_Node000002" class="edge">
<title>Node14&#45;&gt;Node2</title>
<g id="a_edge23_Node000014_Node000002"><a xlink:title=" ">
<path fill="none" stroke="#63b8ff" d="M824.66,-264.8C904.7,-253.83 1033.99,-236.11 1117.74,-224.64"/>
<polygon fill="#63b8ff" stroke="#63b8ff" points="1118.06,-228.13 1127.49,-223.3 1117.11,-221.19 1118.06,-228.13"/>
</a>
</g>
</g>
<!-- Node14&#45;&gt;Node4 -->
<g id="edge34_Node000014_Node000004" class="edge">
<title>Node14&#45;&gt;Node4</title>
<g id="a_edge34_Node000014_Node000004"><a xlink:title=" ">
<path fill="none" stroke="#63b8ff" d="M828.19,-264.81C857.81,-258.26 890.91,-247.36 917,-229.25 926.99,-222.32 1025.2,-82.61 1061.56,-30.63"/>
<polygon fill="#63b8ff" stroke="#63b8ff" points="1064.41,-32.65 1067.27,-22.45 1058.68,-28.64 1064.41,-32.65"/>
</a>
</g>
</g>
<!-- Node14&#45;&gt;Node6 -->
<g id="edge20_Node000014_Node000006" class="edge">
<title>Node14&#45;&gt;Node6</title>
<g id="a_edge20_Node000014_Node000006"><a xlink:title=" ">
<path fill="none" stroke="#63b8ff" d="M754.94,-264.99C758.27,-249.71 765.88,-219.24 778,-195.75 784.19,-183.75 793.15,-171.63 800.92,-162.14"/>
<polygon fill="#63b8ff" stroke="#63b8ff" points="803.36,-164.67 807.16,-154.78 798.02,-160.14 803.36,-164.67"/>
</a>
</g>
</g>
<!-- Node14&#45;&gt;Node7 -->
<g id="edge33_Node000014_Node000007" class="edge">
<title>Node14&#45;&gt;Node7</title>
<g id="a_edge33_Node000014_Node000007"><a xlink:title=" ">
<path fill="none" stroke="#63b8ff" d="M742.31,-264.77C732.62,-255.74 718.06,-241.88 706,-229.25 684.64,-206.87 661.28,-179.89 646.4,-162.36"/>
<polygon fill="#63b8ff" stroke="#63b8ff" points="649.18,-160.23 640.05,-154.84 643.83,-164.74 649.18,-160.23"/>
</a>
</g>
</g>
<!-- Node14&#45;&gt;Node8 -->
<g id="edge22_Node000014_Node000008" class="edge">
<title>Node14&#45;&gt;Node8</title>
<g id="a_edge22_Node000014_Node000008"><a xlink:title=" ">
<path fill="none" stroke="#63b8ff" d="M748.75,-264.96C738.59,-240.33 715.45,-173.77 739,-126.25 744.81,-114.53 754.68,-104.74 765.13,-96.95"/>
<polygon fill="#63b8ff" stroke="#63b8ff" points="766.86,-100.01 773.13,-91.47 762.9,-94.24 766.86,-100.01"/>
</a>
</g>
</g>
<!-- Node14&#45;&gt;Node9 -->
<g id="edge32_Node000014_Node000009" class="edge">
<title>Node14&#45;&gt;Node9</title>
<g id="a_edge32_Node000014_Node000009"><a xlink:title=" ">
<path fill="none" stroke="#63b8ff" d="M671.57,-274.59C559.51,-273.18 364.8,-265.38 305,-229.25 262.09,-203.32 229.39,-166.71 259,-126.25 281.31,-95.76 321.7,-82.8 356.7,-77.47"/>
<polygon fill="#63b8ff" stroke="#63b8ff" points="356.88,-80.97 366.34,-76.19 355.97,-74.03 356.88,-80.97"/>
</a>
</g>
</g>
<!-- Node14&#45;&gt;Node11 -->
<g id="edge37_Node000014_Node000011" class="edge">
<title>Node14&#45;&gt;Node11</title>
<g id="a_edge37_Node000014_Node000011"><a xlink:title=" ">
<path fill="none" stroke="#63b8ff" d="M671.46,-272.28C539.37,-267.71 290.26,-255.69 260,-229.25 203.46,-179.85 229.73,-76.2 244.43,-32.03"/>
<polygon fill="#63b8ff" stroke="#63b8ff" points="247.71,-33.27 247.7,-22.67 241.1,-30.96 247.71,-33.27"/>
</a>
</g>
</g>
<!-- Node15 -->
<g id="Node000015" class="node">
<title>Node15</title>
<g id="a_Node000015"><a xlink:title=" ">
<polygon fill="#e0e0e0" stroke="#999999" points="907.5,-222.88 786.5,-222.88 786.5,-202.12 907.5,-202.12 907.5,-222.88"/>
<text text-anchor="middle" x="847" y="-209.38" font-family="Helvetica,sans-Serif" font-size="10.00">deal.II/base/utilities.h</text>
</a>
</g>
</g>
<!-- Node14&#45;&gt;Node15 -->
<g id="edge21_Node000014_Node000015" class="edge">
<title>Node14&#45;&gt;Node15</title>
<g id="a_edge21_Node000014_Node000015"><a xlink:title=" ">
<path fill="none" stroke="#63b8ff" d="M768.1,-264.8C782.77,-255.27 805.27,-240.63 822.5,-229.43"/>
<polygon fill="#63b8ff" stroke="#63b8ff" points="824.19,-232.51 830.67,-224.12 820.37,-226.64 824.19,-232.51"/>
</a>
</g>
</g>
<!-- Node16 -->
<g id="Node000016" class="node">
<title>Node16</title>
<g id="a_Node000016"><a xlink:href="field__attributes_8h.html" target="_top" xlink:title=" ">
<polygon fill="white" stroke="#666666" points="450.38,-229.25 343.62,-229.25 343.62,-195.75 450.38,-195.75 450.38,-229.25"/>
<text text-anchor="start" x="351.62" y="-215.75" font-family="Helvetica,sans-Serif" font-size="10.00">prismspf/core/field</text>
<text text-anchor="middle" x="397" y="-203" font-family="Helvetica,sans-Serif" font-size="10.00">_attributes.h</text>
</a>
</g>
</g>
<!-- Node14&#45;&gt;Node16 -->
<g id="edge24_Node000014_Node000016" class="edge">
<title>Node14&#45;&gt;Node16</title>
<g id="a_edge24_Node000014_Node000016"><a xlink:title=" ">
<path fill="none" stroke="#63b8ff" d="M675.88,-264.78C619.04,-257.05 539.65,-245.26 461.68,-229.7"/>
<polygon fill="#63b8ff" stroke="#63b8ff" points="462.67,-226.33 452.18,-227.77 461.29,-233.19 462.67,-226.33"/>
</a>
</g>
</g>
<!-- Node14&#45;&gt;Node18 -->
<g id="edge38_Node000014_Node000018" class="edge">
<title>Node14&#45;&gt;Node18</title>
<g id="a_edge38_Node000014_Node000018"><a xlink:title=" ">
<path fill="none" stroke="#63b8ff" d="M671.57,-274.75C565.68,-273.41 387.97,-265.59 335,-229.25 313.05,-214.19 301.36,-184.71 295.67,-164.68"/>
<polygon fill="#63b8ff" stroke="#63b8ff" points="299.09,-163.94 293.24,-155.11 292.31,-165.66 299.09,-163.94"/>
</a>
</g>
</g>
<!-- Node19 -->
<g id="Node000019" class="node">
<title>Node19</title>
<g id="a_Node000019"><a xlink:title=" ">
<polygon fill="#e0e0e0" stroke="#999999" points="1046.75,-153.38 1005.25,-153.38 1005.25,-132.62 1046.75,-132.62 1046.75,-153.38"/>
<text text-anchor="middle" x="1026" y="-139.88" font-family="Helvetica,sans-Serif" font-size="10.00">array</text>
</a>
</g>
</g>
<!-- Node14&#45;&gt;Node19 -->
<g id="edge35_Node000014_Node000019" class="edge">
<title>Node14&#45;&gt;Node19</title>
<g id="a_edge35_Node000014_Node000019"><a xlink:title=" ">
<path fill="none" stroke="#63b8ff" d="M834.33,-272.35C905.7,-268.43 1001.77,-257.84 1026,-229.25 1040.91,-211.65 1037.67,-183.88 1032.85,-164.85"/>
<polygon fill="#63b8ff" stroke="#63b8ff" points="1036.21,-163.87 1030.05,-155.25 1029.49,-165.83 1036.21,-163.87"/>
</a>
</g>
</g>
<!-- Node14&#45;&gt;Node20 -->
<g id="edge36_Node000014_Node000020" class="edge">
<title>Node14&#45;&gt;Node20</title>
<g id="a_edge36_Node000014_Node000020"><a xlink:title=" ">
<path fill="none" stroke="#63b8ff" d="M671.52,-272.1C537.47,-267.27 276.44,-254.85 188,-229.25 186.63,-228.85 185.26,-228.39 183.89,-227.88"/>
<polygon fill="#63b8ff" stroke="#63b8ff" points="185.62,-224.83 175.07,-223.88 182.72,-231.2 185.62,-224.83"/>
</a>
</g>
</g>
<!-- Node16&#45;&gt;Node4 -->
<g id="edge28_Node000016_Node000004" class="edge">
<title>Node16&#45;&gt;Node4</title>
<g id="a_edge28_Node000016_Node000004"><a xlink:title=" ">
<path fill="none" stroke="#63b8ff" d="M421.76,-195.33C436.6,-185.42 455.69,-172.27 472,-159.75 528.02,-116.75 527.94,-84.22 593,-56.75 667.22,-25.41 900.6,-15.56 1013.12,-12.59"/>
<polygon fill="#63b8ff" stroke="#63b8ff" points="1013.18,-16.09 1023.09,-12.34 1013.01,-9.09 1013.18,-16.09"/>
</a>
</g>
</g>
<!-- Node16&#45;&gt;Node6 -->
<g id="edge25_Node000016_Node000006" class="edge">
<title>Node16&#45;&gt;Node6</title>
<g id="a_edge25_Node000016_Node000006"><a xlink:title=" ">
<path fill="none" stroke="#63b8ff" d="M450.69,-197.49C453.49,-196.88 456.28,-196.29 459,-195.75 485.62,-190.46 639.59,-168.71 736.74,-155.15"/>
<polygon fill="#63b8ff" stroke="#63b8ff" points="737.09,-158.63 746.51,-153.78 736.12,-151.7 737.09,-158.63"/>
</a>
</g>
</g>
<!-- Node16&#45;&gt;Node7 -->
<g id="edge27_Node000016_Node000007" class="edge">
<title>Node16&#45;&gt;Node7</title>
<g id="a_edge27_Node000016_Node000007"><a xlink:title=" ">
<path fill="none" stroke="#63b8ff" d="M450.68,-196.01C491.58,-184.22 547.24,-168.16 585.86,-157.02"/>
<polygon fill="#63b8ff" stroke="#63b8ff" points="586.68,-160.43 595.31,-154.29 584.74,-153.7 586.68,-160.43"/>
</a>
</g>
</g>
<!-- Node16&#45;&gt;Node9 -->
<g id="edge26_Node000016_Node000009" class="edge">
<title>Node16&#45;&gt;Node9</title>
<g id="a_edge26_Node000016_Node000009"><a xlink:title=" ">
<path fill="none" stroke="#63b8ff" d="M399.92,-195.52C404.13,-172.42 411.98,-129.41 417.1,-101.38"/>
<polygon fill="#63b8ff" stroke="#63b8ff" points="420.48,-102.34 418.83,-91.87 413.59,-101.08 420.48,-102.34"/>
</a>
</g>
</g>
<!-- Node16&#45;&gt;Node11 -->
<g id="edge30_Node000016_Node000011" class="edge">
<title>Node16&#45;&gt;Node11</title>
<g id="a_edge30_Node000016_Node000011"><a xlink:title=" ">
<path fill="none" stroke="#63b8ff" d="M385.38,-195.46C358.85,-158.85 293.95,-69.28 265.61,-30.16"/>
<polygon fill="#63b8ff" stroke="#63b8ff" points="268.53,-28.23 259.83,-22.18 262.87,-32.34 268.53,-28.23"/>
</a>
</g>
</g>
<!-- Node17 -->
<g id="Node000017" class="node">
<title>Node17</title>
<g id="a_Node000017"><a xlink:title=" ">
<polygon fill="#e0e0e0" stroke="#999999" points="462.88,-153.38 425.12,-153.38 425.12,-132.62 462.88,-132.62 462.88,-153.38"/>
<text text-anchor="middle" x="444" y="-139.88" font-family="Helvetica,sans-Serif" font-size="10.00">map</text>
</a>
</g>
</g>
<!-- Node16&#45;&gt;Node17 -->
<g id="edge29_Node000016_Node000017" class="edge">
<title>Node16&#45;&gt;Node17</title>
<g id="a_edge29_Node000016_Node000017"><a xlink:title=" ">
<path fill="none" stroke="#63b8ff" d="M408.14,-195.5C414.9,-185.8 423.56,-173.35 430.68,-163.12"/>
<polygon fill="#63b8ff" stroke="#63b8ff" points="433.45,-165.27 436.3,-155.06 427.71,-161.27 433.45,-165.27"/>
</a>
</g>
</g>
<!-- Node16&#45;&gt;Node18 -->
<g id="edge31_Node000016_Node000018" class="edge">
<title>Node16&#45;&gt;Node18</title>
<g id="a_edge31_Node000016_Node000018"><a xlink:title=" ">
<path fill="none" stroke="#63b8ff" d="M371.61,-195.33C354.77,-184.61 332.77,-170.6 316.01,-159.93"/>
<polygon fill="#63b8ff" stroke="#63b8ff" points="317.94,-157 307.62,-154.58 314.18,-162.91 317.94,-157"/>
</a>
</g>
</g>
<!-- Node21&#45;&gt;Node4 -->
<g id="edge54_Node000021_Node000004" class="edge">
<title>Node21&#45;&gt;Node4</title>
<g id="a_edge54_Node000021_Node000004"><a xlink:title=" ">
<path fill="none" stroke="#63b8ff" d="M1695.74,-211.07C1778.56,-208.47 1931.23,-194.58 1884,-126.25 1834.29,-54.34 1785.37,-75.55 1700,-56.75 1593.8,-33.36 1272.3,-18.83 1136.54,-13.59"/>
<polygon fill="#63b8ff" stroke="#63b8ff" points="1136.79,-10.09 1126.67,-13.21 1136.53,-17.09 1136.79,-10.09"/>
</a>
</g>
</g>
<!-- Node21&#45;&gt;Node6 -->
<g id="edge47_Node000021_Node000006" class="edge">
<title>Node21&#45;&gt;Node6</title>
<g id="a_edge47_Node000021_Node000006"><a xlink:title=" ">
<path fill="none" stroke="#63b8ff" d="M1596.66,-207.71C1488.07,-199.35 1220.21,-178.54 996,-159.75 963.61,-157.04 927.93,-153.92 897,-151.18"/>
<polygon fill="#63b8ff" stroke="#63b8ff" points="897.62,-147.72 887.35,-150.33 897,-154.7 897.62,-147.72"/>
</a>
</g>
</g>
<!-- Node21&#45;&gt;Node8 -->
<g id="edge51_Node000021_Node000008" class="edge">
<title>Node21&#45;&gt;Node8</title>
<g id="a_edge51_Node000021_Node000008"><a xlink:title=" ">
<path fill="none" stroke="#63b8ff" d="M1596.31,-201.15C1546.43,-190.74 1467.37,-174.21 1399,-159.75 1329.19,-144.99 1312.39,-137.92 1242,-126.25 1111.81,-104.66 958.25,-88.56 872.82,-80.43"/>
<polygon fill="#63b8ff" stroke="#63b8ff" points="873.27,-76.96 862.99,-79.5 872.61,-83.93 873.27,-76.96"/>
</a>
</g>
</g>
<!-- Node21&#45;&gt;Node11 -->
<g id="edge56_Node000021_Node000011" class="edge">
<title>Node21&#45;&gt;Node11</title>
<g id="a_edge56_Node000021_Node000011"><a xlink:title=" ">
<path fill="none" stroke="#63b8ff" d="M1596.35,-200.9C1552.75,-191.26 1487.76,-176.08 1432,-159.75 1388.23,-146.93 1379.3,-137.11 1335,-126.25 1132.05,-76.49 1077.68,-79.86 870,-56.75 811.85,-50.28 406.31,-22.04 285.73,-13.7"/>
<polygon fill="#63b8ff" stroke="#63b8ff" points="286.07,-10.22 275.86,-13.02 285.59,-17.2 286.07,-10.22"/>
</a>
</g>
</g>
<!-- Node21&#45;&gt;Node19 -->
<g id="edge55_Node000021_Node000019" class="edge">
<title>Node21&#45;&gt;Node19</title>
<g id="a_edge55_Node000021_Node000019"><a xlink:title=" ">
<path fill="none" stroke="#63b8ff" d="M1596.61,-209.1C1499.72,-203.89 1278.09,-189.56 1094,-159.75 1082.19,-157.84 1069.38,-155.06 1058.09,-152.37"/>
<polygon fill="#63b8ff" stroke="#63b8ff" points="1059.01,-148.99 1048.46,-149.99 1057.33,-155.78 1059.01,-148.99"/>
</a>
</g>
</g>
<!-- Node22 -->
<g id="Node000022" class="node">
<title>Node22</title>
<g id="a_Node000022"><a xlink:title=" ">
<polygon fill="#e0e0e0" stroke="#999999" points="1742.5,-153.38 1633.5,-153.38 1633.5,-132.62 1742.5,-132.62 1742.5,-153.38"/>
<text text-anchor="middle" x="1688" y="-139.88" font-family="Helvetica,sans-Serif" font-size="10.00">deal.II/base/point.h</text>
</a>
</g>
</g>
<!-- Node21&#45;&gt;Node22 -->
<g id="edge48_Node000021_Node000022" class="edge">
<title>Node21&#45;&gt;Node22</title>
<g id="a_edge48_Node000021_Node000022"><a xlink:title=" ">
<path fill="none" stroke="#63b8ff" d="M1655.95,-195.5C1661.93,-185.9 1669.58,-173.61 1675.9,-163.44"/>
<polygon fill="#63b8ff" stroke="#63b8ff" points="1678.78,-165.45 1681.09,-155.11 1672.83,-161.75 1678.78,-165.45"/>
</a>
</g>
</g>
<!-- Node23 -->
<g id="Node000023" class="node">
<title>Node23</title>
<g id="a_Node000023"><a xlink:title=" ">
<polygon fill="#e0e0e0" stroke="#999999" points="1875.12,-153.38 1760.88,-153.38 1760.88,-132.62 1875.12,-132.62 1875.12,-153.38"/>
<text text-anchor="middle" x="1818" y="-139.88" font-family="Helvetica,sans-Serif" font-size="10.00">deal.II/base/tensor.h</text>
</a>
</g>
</g>
<!-- Node21&#45;&gt;Node23 -->
<g id="edge49_Node000021_Node000023" class="edge">
<title>Node21&#45;&gt;Node23</title>
<g id="a_edge49_Node000021_Node000023"><a xlink:title=" ">
<path fill="none" stroke="#63b8ff" d="M1687.2,-195.33C1716.24,-183.94 1754.74,-168.83 1782.44,-157.96"/>
<polygon fill="#63b8ff" stroke="#63b8ff" points="1783.41,-161.33 1791.44,-154.42 1780.85,-154.82 1783.41,-161.33"/>
</a>
</g>
</g>
<!-- Node24 -->
<g id="Node000024" class="node">
<title>Node24</title>
<g id="a_Node000024"><a xlink:title=" ">
<polygon fill="#e0e0e0" stroke="#999999" points="1691,-83.88 1543,-83.88 1543,-63.12 1691,-63.12 1691,-83.88"/>
<text text-anchor="middle" x="1617" y="-70.38" font-family="Helvetica,sans-Serif" font-size="10.00">deal.II/base/vectorization.h</text>
</a>
</g>
</g>
<!-- Node21&#45;&gt;Node24 -->
<g id="edge50_Node000021_Node000024" class="edge">
<title>Node21&#45;&gt;Node24</title>
<g id="a_edge50_Node000021_Node000024"><a xlink:title=" ">
<path fill="none" stroke="#63b8ff" d="M1638.13,-195.59C1633.52,-185.55 1628.04,-172.18 1625,-159.75 1619.78,-138.36 1617.92,-113.17 1617.28,-95.75"/>
<polygon fill="#63b8ff" stroke="#63b8ff" points="1620.78,-95.79 1617.04,-85.88 1613.79,-95.97 1620.78,-95.79"/>
</a>
</g>
</g>
<!-- Node25 -->
<g id="Node000025" class="node">
<title>Node25</title>
<g id="a_Node000025"><a xlink:title=" ">
<polygon fill="#e0e0e0" stroke="#999999" points="2076.5,-153.38 1931.5,-153.38 1931.5,-132.62 2076.5,-132.62 2076.5,-153.38"/>
<text text-anchor="middle" x="2004" y="-139.88" font-family="Helvetica,sans-Serif" font-size="10.00">boost/range/algorithm.hpp</text>
</a>
</g>
</g>
<!-- Node21&#45;&gt;Node25 -->
<g id="edge52_Node000021_Node000025" class="edge">
<title>Node21&#45;&gt;Node25</title>
<g id="a_edge52_Node000021_Node000025"><a xlink:title=" ">
<path fill="none" stroke="#63b8ff" d="M1695.4,-202.19C1759.27,-190.14 1870.58,-169.16 1940.62,-155.95"/>
<polygon fill="#63b8ff" stroke="#63b8ff" points="1941.25,-159.39 1950.43,-154.1 1939.95,-152.51 1941.25,-159.39"/>
</a>
</g>
</g>
<!-- Node26 -->
<g id="Node000026" class="node">
<title>Node26</title>
<g id="a_Node000026"><a xlink:title=" ">
<polygon fill="#e0e0e0" stroke="#999999" points="2219,-159.75 2095,-159.75 2095,-126.25 2219,-126.25 2219,-159.75"/>
<text text-anchor="start" x="2103" y="-146.25" font-family="Helvetica,sans-Serif" font-size="10.00">boost/range/algorithm</text>
<text text-anchor="middle" x="2157" y="-133.5" font-family="Helvetica,sans-Serif" font-size="10.00">_ext.hpp</text>
</a>
</g>
</g>
<!-- Node21&#45;&gt;Node26 -->
<g id="edge53_Node000021_Node000026" class="edge">
<title>Node21&#45;&gt;Node26</title>
<g id="a_edge53_Node000021_Node000026"><a xlink:title=" ">
<path fill="none" stroke="#63b8ff" d="M1695.72,-207.31C1775.5,-200.22 1937.18,-184.36 2083.76,-160.03"/>
<polygon fill="#63b8ff" stroke="#63b8ff" points="2083.96,-163.55 2093.24,-158.44 2082.8,-156.64 2083.96,-163.55"/>
</a>
</g>
</g>
<!-- Node27 -->
<g id="Node000027" class="node">
<title>Node27</title>
<g id="a_Node000027"><a xlink:title=" ">
<polygon fill="#e0e0e0" stroke="#999999" points="2309.12,-153.38 2236.88,-153.38 2236.88,-132.62 2309.12,-132.62 2309.12,-153.38"/>
<text text-anchor="middle" x="2273" y="-139.88" font-family="Helvetica,sans-Serif" font-size="10.00">string_view</text>
</a>
</g>
</g>
<!-- Node21&#45;&gt;Node27 -->
<g id="edge57_Node000021_Node000027" class="edge">
<title>Node21&#45;&gt;Node27</title>
<g id="a_edge57_Node000021_Node000027"><a xlink:title=" ">
<path fill="none" stroke="#63b8ff" d="M1695.67,-211.21C1796.96,-209.72 2034.15,-201.61 2228,-159.75 2231.19,-159.06 2234.46,-158.21 2237.71,-157.27"/>
<polygon fill="#63b8ff" stroke="#63b8ff" points="2238.67,-160.64 2247.12,-154.25 2236.53,-153.97 2238.67,-160.64"/>
</a>
</g>
</g>
<!-- Node28 -->
<g id="Node000028" class="node">
<title>Node28</title>
<g id="a_Node000028"><a xlink:title=" ">
<polygon fill="#e0e0e0" stroke="#999999" points="2419.25,-153.38 2326.75,-153.38 2326.75,-132.62 2419.25,-132.62 2419.25,-153.38"/>
<text text-anchor="middle" x="2373" y="-139.88" font-family="Helvetica,sans-Serif" font-size="10.00">unordered_map</text>
</a>
</g>
</g>
<!-- Node21&#45;&gt;Node28 -->
<g id="edge58_Node000021_Node000028" class="edge">
<title>Node21&#45;&gt;Node28</title>
<g id="a_edge58_Node000021_Node000028"><a xlink:title=" ">
<path fill="none" stroke="#63b8ff" d="M1695.34,-211.1C1807.07,-209.45 2087.67,-201.16 2318,-159.75 2322.56,-158.93 2327.29,-157.88 2331.97,-156.72"/>
<polygon fill="#63b8ff" stroke="#63b8ff" points="2332.49,-160.21 2341.25,-154.25 2330.69,-153.45 2332.49,-160.21"/>
</a>
</g>
</g>
<!-- Node29 -->
<g id="Node000029" class="node">
<title>Node29</title>
<g id="a_Node000029"><a xlink:href="vectorized__operations_8h.html" target="_top" xlink:title=" ">
<polygon fill="white" stroke="#666666" points="1577,-159.75 1441,-159.75 1441,-126.25 1577,-126.25 1577,-159.75"/>
<text text-anchor="start" x="1449" y="-146.25" font-family="Helvetica,sans-Serif" font-size="10.00">prismspf/utilities</text>
<text text-anchor="middle" x="1509" y="-133.5" font-family="Helvetica,sans-Serif" font-size="10.00">/vectorized_operations.h</text>
</a>
</g>
</g>
<!-- Node21&#45;&gt;Node29 -->
<g id="edge59_Node000021_Node000029" class="edge">
<title>Node21&#45;&gt;Node29</title>
<g id="a_edge59_Node000021_Node000029"><a xlink:title=" ">
<path fill="none" stroke="#63b8ff" d="M1613.19,-195.33C1594.8,-186.27 1571.66,-174.87 1551.85,-165.11"/>
<polygon fill="#63b8ff" stroke="#63b8ff" points="1553.42,-161.99 1542.9,-160.7 1550.33,-168.26 1553.42,-161.99"/>
</a>
</g>
</g>
<!-- Node29&#45;&gt;Node4 -->
<g id="edge61_Node000029_Node000004" class="edge">
<title>Node29&#45;&gt;Node4</title>
<g id="a_edge61_Node000029_Node000004"><a xlink:title=" ">
<path fill="none" stroke="#63b8ff" d="M1498.74,-125.97C1485.02,-106.04 1458.73,-72.73 1427,-56.75 1377.49,-31.82 1223.7,-19.52 1136.67,-14.41"/>
<polygon fill="#63b8ff" stroke="#63b8ff" points="1137.06,-10.93 1126.88,-13.85 1136.66,-17.91 1137.06,-10.93"/>
</a>
</g>
</g>
<!-- Node29&#45;&gt;Node24 -->
<g id="edge60_Node000029_Node000024" class="edge">
<title>Node29&#45;&gt;Node24</title>
<g id="a_edge60_Node000029_Node000024"><a xlink:title=" ">
<path fill="none" stroke="#63b8ff" d="M1534.87,-125.83C1552.19,-115.01 1574.86,-100.84 1592,-90.13"/>
<polygon fill="#63b8ff" stroke="#63b8ff" points="1593.46,-93.34 1600.08,-85.07 1589.75,-87.41 1593.46,-93.34"/>
</a>
</g>
</g>
<!-- Node30 -->
<g id="Node000030" class="node">
<title>Node30</title>
<g id="a_Node000030"><a xlink:title=" ">
<polygon fill="#e0e0e0" stroke="#999999" points="1525.38,-83.88 1478.62,-83.88 1478.62,-63.12 1525.38,-63.12 1525.38,-83.88"/>
<text text-anchor="middle" x="1502" y="-70.38" font-family="Helvetica,sans-Serif" font-size="10.00">cmath</text>
</a>
</g>
</g>
<!-- Node29&#45;&gt;Node30 -->
<g id="edge62_Node000029_Node000030" class="edge">
<title>Node29&#45;&gt;Node30</title>
<g id="a_edge62_Node000029_Node000030"><a xlink:title=" ">
<path fill="none" stroke="#63b8ff" d="M1507.34,-126C1506.4,-116.9 1505.2,-105.39 1504.18,-95.57"/>
<polygon fill="#63b8ff" stroke="#63b8ff" points="1507.69,-95.41 1503.17,-85.83 1500.72,-96.14 1507.69,-95.41"/>
</a>
</g>
</g>
</g>
</svg>
