<?xml version="1.0" encoding="UTF-8" standalone="no"?>
<!DOCTYPE svg PUBLIC "-//W3C//DTD SVG 1.1//EN"
 "http://www.w3.org/Graphics/SVG/1.1/DTD/svg11.dtd">
<!-- Generated by graphviz version 12.2.1 (20241206.2353)
 -->
<!-- Title: NucleusRefinementFunction&lt; dim &gt; Pages: 1 -->
<svg width="284pt" height="111pt"
 viewBox="0.00 0.00 283.88 111.00" xmlns="http://www.w3.org/2000/svg" xmlns:xlink="http://www.w3.org/1999/xlink">
<g id="graph0" class="graph" transform="scale(1 1) rotate(0) translate(4 107)">
<title>NucleusRefinementFunction&lt; dim &gt;</title>
<!-- Node1 -->
<g id="Node000001" class="node">
<title>Node1</title>
<g id="a_Node000001"><a xlink:title="The class handles the stochastic nucleation in PRISMS&#45;PF.">
<polygon fill="#999999" stroke="#666666" points="216.12,-33.5 63.62,-33.5 63.62,0 216.12,0 216.12,-33.5"/>
<text text-anchor="start" x="71.62" y="-20" font-family="Helvetica,sans-Serif" font-size="10.00">NucleusRefinementFunction</text>
<text text-anchor="middle" x="139.88" y="-7.25" font-family="Helvetica,sans-Serif" font-size="10.00">&lt; dim &gt;</text>
</a>
</g>
</g>
<!-- Node2 -->
<g id="Node000002" class="node">
<title>Node2</title>
<g id="a_Node000002"><a xlink:href="classCellMarkerBase.html" target="_top" xlink:title="Base class for cell markers.">
<polygon fill="white" stroke="#666666" points="133.75,-103 0,-103 0,-82.25 133.75,-82.25 133.75,-103"/>
<text text-anchor="middle" x="66.88" y="-89.5" font-family="Helvetica,sans-Serif" font-size="10.00">CellMarkerBase&lt; dim &gt;</text>
</a>
</g>
</g>
<!-- Node2&#45;&gt;Node1 -->
<g id="edge1_Node000001_Node000002" class="edge">
<title>Node2&#45;&gt;Node1</title>
<g id="a_edge1_Node000001_Node000002"><a xlink:title=" ">
<path fill="none" stroke="#63b8ff" d="M84.38,-73.91C96.41,-61.74 112.24,-45.72 123.91,-33.91"/>
<polygon fill="#63b8ff" stroke="#63b8ff" points="82.02,-71.32 77.48,-80.89 87,-76.24 82.02,-71.32"/>
</a>
</g>
</g>
<!-- Node3 -->
<g id="Node000003" class="node">
<title>Node3</title>
<g id="a_Node000003"><a xlink:href="structNucleationParameters.html" target="_top" xlink:title="Struct that holds nucleation parameters.">
<polygon fill="white" stroke="#666666" points="275.88,-103 151.88,-103 151.88,-82.25 275.88,-82.25 275.88,-103"/>
<text text-anchor="middle" x="213.88" y="-89.5" font-family="Helvetica,sans-Serif" font-size="10.00">NucleationParameters</text>
</a>
</g>
</g>
<!-- Node3&#45;&gt;Node1 -->
<g id="edge2_Node000001_Node000003" class="edge">
<title>Node3&#45;&gt;Node1</title>
<g id="a_edge2_Node000001_Node000003"><a xlink:title=" ">
<path fill="none" stroke="#9a32cd" stroke-dasharray="5,2" d="M196.13,-73.91C183.94,-61.74 167.89,-45.72 156.06,-33.91"/>
<polygon fill="#9a32cd" stroke="#9a32cd" points="193.58,-76.31 203.13,-80.9 198.53,-71.36 193.58,-76.31"/>
</a>
</g>
<text text-anchor="middle" x="216.8" y="-54.75" font-family="Helvetica,sans-Serif" font-size="10.00" fill="grey"> nuc_params</text>
</g>
</g>
</svg>
