<?xml version="1.0" encoding="UTF-8" standalone="no"?>
<!DOCTYPE svg PUBLIC "-//W3C//DTD SVG 1.1//EN"
 "http://www.w3.org/Graphics/SVG/1.1/DTD/svg11.dtd">
<!-- Generated by graphviz version 2.43.0 (0)
 -->
<!-- Title: LinearSolver&lt; dim, degree, number &gt; Pages: 1 -->
<svg width="282pt" height="170pt"
 viewBox="0.00 0.00 281.50 170.00" xmlns="http://www.w3.org/2000/svg" xmlns:xlink="http://www.w3.org/1999/xlink">
<g id="graph0" class="graph" transform="scale(1 1) rotate(0) translate(4 166)">
<title>LinearSolver&lt; dim, degree, number &gt;</title>
<!-- Node1 -->
<g id="Node000001" class="node">
<title>Node1</title>
<g id="a_Node000001"><a xlink:title="This class handles the explicit solves of all explicit fields.">
<polygon fill="#999999" stroke="#666666" points="196.5,-96 86.5,-96 86.5,-66 196.5,-66 196.5,-96"/>
<text text-anchor="start" x="94.5" y="-84" font-family="Helvetica,sans-Serif" font-size="10.00">LinearSolver&lt; dim,</text>
<text text-anchor="middle" x="141.5" y="-73" font-family="Helvetica,sans-Serif" font-size="10.00"> degree, number &gt;</text>
</a>
</g>
</g>
<!-- Node3 -->
<g id="Node000003" class="node">
<title>Node3</title>
<g id="a_Node000003"><a xlink:href="classMGSolver.html" target="_top" xlink:title="This class handles the explicit solves of all explicit fields.">
<polygon fill="white" stroke="#666666" points="137,-30 0,-30 0,0 137,0 137,-30"/>
<text text-anchor="start" x="8" y="-18" font-family="Helvetica,sans-Serif" font-size="10.00">MGSolver&lt; dim, degree,</text>
<text text-anchor="middle" x="68.5" y="-7" font-family="Helvetica,sans-Serif" font-size="10.00"> number &gt;</text>
</a>
</g>
</g>
<!-- Node1&#45;&gt;Node3 -->
<g id="edge2_Node000001_Node000003" class="edge">
<title>Node1&#45;&gt;Node3</title>
<g id="a_edge2_Node000001_Node000003"><a xlink:title=" ">
<path fill="none" stroke="#63b8ff" d="M117.78,-59.2C106.94,-49.7 94.38,-38.69 84.66,-30.16"/>
<polygon fill="#63b8ff" stroke="#63b8ff" points="115.47,-61.84 125.3,-65.8 120.09,-56.57 115.47,-61.84"/>
</a>
</g>
</g>
<!-- Node4 -->
<g id="Node000004" class="node">
<title>Node4</title>
<g id="a_Node000004"><a xlink:href="classNewtonSolver.html" target="_top" xlink:title="This class handles the explicit solves of all explicit fields.">
<polygon fill="white" stroke="#666666" points="273.5,-30 155.5,-30 155.5,0 273.5,0 273.5,-30"/>
<text text-anchor="start" x="163.5" y="-18" font-family="Helvetica,sans-Serif" font-size="10.00">NewtonSolver&lt; dim,</text>
<text text-anchor="middle" x="214.5" y="-7" font-family="Helvetica,sans-Serif" font-size="10.00"> degree, number &gt;</text>
</a>
</g>
</g>
<!-- Node1&#45;&gt;Node4 -->
<g id="edge3_Node000001_Node000004" class="edge">
<title>Node1&#45;&gt;Node4</title>
<g id="a_edge3_Node000001_Node000004"><a xlink:title=" ">
<path fill="none" stroke="#63b8ff" d="M165.22,-59.2C176.06,-49.7 188.62,-38.69 198.34,-30.16"/>
<polygon fill="#63b8ff" stroke="#63b8ff" points="162.91,-56.57 157.7,-65.8 167.53,-61.84 162.91,-56.57"/>
</a>
</g>
</g>
<!-- Node2 -->
<g id="Node000002" class="node">
<title>Node2</title>
<g id="a_Node000002"><a xlink:href="classSolverBase.html" target="_top" xlink:title=" ">
<polygon fill="white" stroke="#666666" points="213.5,-162 69.5,-162 69.5,-132 213.5,-132 213.5,-162"/>
<text text-anchor="start" x="77.5" y="-150" font-family="Helvetica,sans-Serif" font-size="10.00">SolverBase&lt; dim, degree,</text>
<text text-anchor="middle" x="141.5" y="-139" font-family="Helvetica,sans-Serif" font-size="10.00"> number &gt;</text>
</a>
</g>
</g>
<!-- Node2&#45;&gt;Node1 -->
<g id="edge1_Node000001_Node000002" class="edge">
<title>Node2&#45;&gt;Node1</title>
<g id="a_edge1_Node000001_Node000002"><a xlink:title=" ">
<path fill="none" stroke="#63b8ff" d="M141.5,-121.54C141.5,-112.96 141.5,-103.61 141.5,-96.16"/>
<polygon fill="#63b8ff" stroke="#63b8ff" points="138,-121.8 141.5,-131.8 145,-121.8 138,-121.8"/>
</a>
</g>
</g>
</g>
</svg>
