<?xml version="1.0" encoding="UTF-8" standalone="no"?>
<!DOCTYPE svg PUBLIC "-//W3C//DTD SVG 1.1//EN"
 "http://www.w3.org/Graphics/SVG/1.1/DTD/svg11.dtd">
<!-- Generated by graphviz version 12.2.1 (20241206.2353)
 -->
<!-- Title: NewtonSolver&lt; dim, degree, number &gt; Pages: 1 -->
<svg width="381pt" height="276pt"
 viewBox="0.00 0.00 380.50 275.50" xmlns="http://www.w3.org/2000/svg" xmlns:xlink="http://www.w3.org/1999/xlink">
<g id="graph0" class="graph" transform="scale(1 1) rotate(0) translate(4 271.5)">
<title>NewtonSolver&lt; dim, degree, number &gt;</title>
<!-- Node1 -->
<g id="Node000001" class="node">
<title>Node1</title>
<g id="a_Node000001"><a xlink:title="This class handles the explicit solves of all explicit fields.">
<polygon fill="#999999" stroke="#666666" points="282.38,-33.5 165.12,-33.5 165.12,0 282.38,0 282.38,-33.5"/>
<text text-anchor="start" x="173.12" y="-20" font-family="Helvetica,sans-Serif" font-size="10.00">NewtonSolver&lt; dim,</text>
<text text-anchor="middle" x="223.75" y="-7.25" font-family="Helvetica,sans-Serif" font-size="10.00"> degree, number &gt;</text>
</a>
</g>
</g>
<!-- Node2 -->
<g id="Node000002" class="node">
<title>Node2</title>
<g id="a_Node000002"><a xlink:href="classLinearSolver.html" target="_top" xlink:title="This class handles the explicit solves of all explicit fields.">
<polygon fill="white" stroke="#666666" points="204.62,-115.75 94.88,-115.75 94.88,-82.25 204.62,-82.25 204.62,-115.75"/>
<text text-anchor="start" x="102.88" y="-102.25" font-family="Helvetica,sans-Serif" font-size="10.00">LinearSolver&lt; dim,</text>
<text text-anchor="middle" x="149.75" y="-89.5" font-family="Helvetica,sans-Serif" font-size="10.00"> degree, number &gt;</text>
</a>
</g>
</g>
<!-- Node2&#45;&gt;Node1 -->
<g id="edge1_Node000001_Node000002" class="edge">
<title>Node2&#45;&gt;Node1</title>
<g id="a_edge1_Node000001_Node000002"><a xlink:title=" ">
<path fill="none" stroke="#63b8ff" d="M172.46,-73.37C184.27,-60.57 198.37,-45.27 208.8,-33.97"/>
<polygon fill="#63b8ff" stroke="#63b8ff" points="169.96,-70.92 165.75,-80.65 175.1,-75.67 169.96,-70.92"/>
</a>
</g>
</g>
<!-- Node3 -->
<g id="Node000003" class="node">
<title>Node3</title>
<g id="a_Node000003"><a xlink:href="classSolverBase.html" target="_top" xlink:title=" ">
<polygon fill="white" stroke="#666666" points="143.5,-198 0,-198 0,-164.5 143.5,-164.5 143.5,-198"/>
<text text-anchor="start" x="8" y="-184.5" font-family="Helvetica,sans-Serif" font-size="10.00">SolverBase&lt; dim, degree,</text>
<text text-anchor="middle" x="71.75" y="-171.75" font-family="Helvetica,sans-Serif" font-size="10.00"> number &gt;</text>
</a>
</g>
</g>
<!-- Node3&#45;&gt;Node2 -->
<g id="edge2_Node000002_Node000003" class="edge">
<title>Node3&#45;&gt;Node2</title>
<g id="a_edge2_Node000002_Node000003"><a xlink:title=" ">
<path fill="none" stroke="#63b8ff" d="M95.33,-155.99C107.85,-143.11 122.89,-127.63 133.99,-116.22"/>
<polygon fill="#63b8ff" stroke="#63b8ff" points="93.05,-153.31 88.59,-162.92 98.07,-158.19 93.05,-153.31"/>
</a>
</g>
</g>
<!-- Node4 -->
<g id="Node000004" class="node">
<title>Node4</title>
<g id="a_Node000004"><a xlink:href="classSolveBlock.html" target="_top" xlink:title="Structure to hold the attributes of a solve&#45;block.">
<polygon fill="white" stroke="#666666" points="106.75,-267.5 36.75,-267.5 36.75,-246.75 106.75,-246.75 106.75,-267.5"/>
<text text-anchor="middle" x="71.75" y="-254" font-family="Helvetica,sans-Serif" font-size="10.00">SolveBlock</text>
</a>
</g>
</g>
<!-- Node4&#45;&gt;Node3 -->
<g id="edge3_Node000003_Node000004" class="edge">
<title>Node4&#45;&gt;Node3</title>
<g id="a_edge3_Node000003_Node000004"><a xlink:title=" ">
<path fill="none" stroke="#9a32cd" stroke-dasharray="5,2" d="M71.75,-235.13C71.75,-223.47 71.75,-209.19 71.75,-198.41"/>
<polygon fill="#9a32cd" stroke="#9a32cd" points="68.25,-234.95 71.75,-244.95 75.25,-234.95 68.25,-234.95"/>
</a>
</g>
<text text-anchor="middle" x="102.12" y="-219.25" font-family="Helvetica,sans-Serif" font-size="10.00" fill="grey"> solve_block</text>
</g>
<!-- Node5 -->
<g id="Node000005" class="node">
<title>Node5</title>
<g id="a_Node000005"><a xlink:href="structLinearSolverParameters.html" target="_top" xlink:title="Struct that stores relevant linear solve information of a certain field.">
<polygon fill="white" stroke="#666666" points="293.88,-191.62 161.62,-191.62 161.62,-170.88 293.88,-170.88 293.88,-191.62"/>
<text text-anchor="middle" x="227.75" y="-178.12" font-family="Helvetica,sans-Serif" font-size="10.00">LinearSolverParameters</text>
</a>
</g>
</g>
<!-- Node5&#45;&gt;Node2 -->
<g id="edge4_Node000002_Node000005" class="edge">
<title>Node5&#45;&gt;Node2</title>
<g id="a_edge4_Node000002_Node000005"><a xlink:title=" ">
<path fill="none" stroke="#9a32cd" stroke-dasharray="5,2" d="M210.53,-162.54C197.03,-148.64 178.39,-129.47 165.32,-116.02"/>
<polygon fill="#9a32cd" stroke="#9a32cd" points="207.65,-164.59 217.13,-169.32 212.67,-159.71 207.65,-164.59"/>
</a>
</g>
<text text-anchor="middle" x="221.92" y="-137" font-family="Helvetica,sans-Serif" font-size="10.00" fill="grey"> lin_params</text>
</g>
<!-- Node6 -->
<g id="Node000006" class="node">
<title>Node6</title>
<g id="a_Node000006"><a xlink:href="structNonlinearSolverParameters.html" target="_top" xlink:title="Struct that stores relevant nonlinear solve information of a certain field.">
<polygon fill="white" stroke="#666666" points="372.5,-109.38 223,-109.38 223,-88.62 372.5,-88.62 372.5,-109.38"/>
<text text-anchor="middle" x="297.75" y="-95.88" font-family="Helvetica,sans-Serif" font-size="10.00">NonlinearSolverParameters</text>
</a>
</g>
</g>
<!-- Node6&#45;&gt;Node1 -->
<g id="edge5_Node000001_Node000006" class="edge">
<title>Node6&#45;&gt;Node1</title>
<g id="a_edge5_Node000001_Node000006"><a xlink:title=" ">
<path fill="none" stroke="#9a32cd" stroke-dasharray="5,2" d="M281.05,-79.89C268.27,-66.03 250.8,-47.09 238.52,-33.77"/>
<polygon fill="#9a32cd" stroke="#9a32cd" points="278.3,-82.07 287.65,-87.05 283.44,-77.32 278.3,-82.07"/>
</a>
</g>
<text text-anchor="middle" x="305.68" y="-54.75" font-family="Helvetica,sans-Serif" font-size="10.00" fill="grey"> newton_params</text>
</g>
</g>
</svg>
