<?xml version="1.0" encoding="UTF-8" standalone="no"?>
<!DOCTYPE svg PUBLIC "-//W3C//DTD SVG 1.1//EN"
 "http://www.w3.org/Graphics/SVG/1.1/DTD/svg11.dtd">
<!-- Generated by graphviz version 12.2.1 (20241206.2353)
 -->
<!-- Title: NucleusRefinementFunction&lt; dim &gt; Pages: 1 -->
<svg width="284pt" height="169pt"
 viewBox="0.00 0.00 283.88 168.75" xmlns="http://www.w3.org/2000/svg" xmlns:xlink="http://www.w3.org/1999/xlink">
<g id="graph0" class="graph" transform="scale(1 1) rotate(0) translate(4 164.75)">
<title>NucleusRefinementFunction&lt; dim &gt;</title>
<!-- Node1 -->
<g id="Node000001" class="node">
<title>Node1</title>
<g id="a_Node000001"><a xlink:title="The class handles the stochastic nucleation in PRISMS&#45;PF.">
<polygon fill="#999999" stroke="#666666" points="159.12,-33.5 6.62,-33.5 6.62,0 159.12,0 159.12,-33.5"/>
<text text-anchor="start" x="14.62" y="-20" font-family="Helvetica,sans-Serif" font-size="10.00">NucleusRefinementFunction</text>
<text text-anchor="middle" x="82.88" y="-7.25" font-family="Helvetica,sans-Serif" font-size="10.00">&lt; dim &gt;</text>
</a>
</g>
</g>
<!-- Node2 -->
<g id="Node000002" class="node">
<title>Node2</title>
<g id="a_Node000002"><a xlink:href="classCellMarkerBase.html" target="_top" xlink:title="Base class for cell markers.">
<polygon fill="white" stroke="#666666" points="133.75,-103 0,-103 0,-82.25 133.75,-82.25 133.75,-103"/>
<text text-anchor="middle" x="66.88" y="-89.5" font-family="Helvetica,sans-Serif" font-size="10.00">CellMarkerBase&lt; dim &gt;</text>
</a>
</g>
</g>
<!-- Node2&#45;&gt;Node1 -->
<g id="edge1_Node000001_Node000002" class="edge">
<title>Node2&#45;&gt;Node1</title>
<g id="a_edge1_Node000001_Node000002"><a xlink:title=" ">
<path fill="none" stroke="#63b8ff" d="M71.34,-71C73.88,-59.28 77.02,-44.8 79.38,-33.91"/>
<polygon fill="#63b8ff" stroke="#63b8ff" points="67.98,-69.97 69.29,-80.49 74.82,-71.46 67.98,-69.97"/>
</a>
</g>
</g>
<!-- Node3 -->
<g id="Node000003" class="node">
<title>Node3</title>
<g id="a_Node000003"><a xlink:href="structNucleationParameters.html" target="_top" xlink:title="Struct that holds nucleation parameters.">
<polygon fill="white" stroke="#666666" points="275.88,-103 151.88,-103 151.88,-82.25 275.88,-82.25 275.88,-103"/>
<text text-anchor="middle" x="213.88" y="-89.5" font-family="Helvetica,sans-Serif" font-size="10.00">NucleationParameters</text>
</a>
</g>
</g>
<!-- Node3&#45;&gt;Node1 -->
<g id="edge2_Node000001_Node000003" class="edge">
<title>Node3&#45;&gt;Node1</title>
<g id="a_edge2_Node000001_Node000003"><a xlink:title=" ">
<path fill="none" stroke="#9a32cd" stroke-dasharray="5,2" d="M186.5,-76.19C164.58,-63.82 133.92,-46.54 111.65,-33.97"/>
<polygon fill="#9a32cd" stroke="#9a32cd" points="184.73,-79.21 195.16,-81.07 188.17,-73.11 184.73,-79.21"/>
</a>
</g>
<text text-anchor="middle" x="195.09" y="-54.75" font-family="Helvetica,sans-Serif" font-size="10.00" fill="grey"> nuc_params</text>
</g>
<!-- Node4 -->
<g id="Node000004" class="node">
<title>Node4</title>
<g id="a_Node000004"><a xlink:href="structParameterBase.html" target="_top" xlink:title="Virtual base class for parameter groups.">
<polygon fill="white" stroke="#666666" points="259,-160.75 168.75,-160.75 168.75,-140 259,-140 259,-160.75"/>
<text text-anchor="middle" x="213.88" y="-147.25" font-family="Helvetica,sans-Serif" font-size="10.00">ParameterBase</text>
</a>
</g>
</g>
<!-- Node4&#45;&gt;Node3 -->
<g id="edge3_Node000003_Node000004" class="edge">
<title>Node4&#45;&gt;Node3</title>
<g id="a_edge3_Node000003_Node000004"><a xlink:title=" ">
<path fill="none" stroke="#63b8ff" d="M213.88,-128.43C213.88,-119.77 213.88,-110.15 213.88,-103.22"/>
<polygon fill="#63b8ff" stroke="#63b8ff" points="210.38,-128.15 213.88,-138.15 217.38,-128.15 210.38,-128.15"/>
</a>
</g>
</g>
</g>
</svg>
