<?xml version="1.0" encoding="UTF-8" standalone="no"?>
<!DOCTYPE svg PUBLIC "-//W3C//DTD SVG 1.1//EN"
 "http://www.w3.org/Graphics/SVG/1.1/DTD/svg11.dtd">
<!-- Generated by graphviz version 12.2.1 (20241206.2353)
 -->
<!-- Title: UserInputParameters&lt; dim &gt; Pages: 1 -->
<svg width="578pt" height="413pt"
 viewBox="0.00 0.00 577.50 412.79" xmlns="http://www.w3.org/2000/svg" xmlns:xlink="http://www.w3.org/1999/xlink">
<g id="graph0" class="graph" transform="scale(1 1) rotate(0) translate(4 408.79)">
<title>UserInputParameters&lt; dim &gt;</title>
<!-- Node1 -->
<g id="Node000001" class="node">
<title>Node1</title>
<g id="a_Node000001"><a xlink:title=" ">
<polygon fill="#999999" stroke="#666666" points="569.5,-210.63 450.75,-210.63 450.75,-177.13 569.5,-177.13 569.5,-210.63"/>
<text text-anchor="start" x="458.75" y="-197.13" font-family="Helvetica,sans-Serif" font-size="10.00">UserInputParameters</text>
<text text-anchor="middle" x="510.12" y="-184.38" font-family="Helvetica,sans-Serif" font-size="10.00">&lt; dim &gt;</text>
</a>
</g>
</g>
<!-- Node2 -->
<g id="Node000002" class="node">
<title>Node2</title>
<g id="a_Node000002"><a xlink:href="structParameterBase.html" target="_top" xlink:title="Virtual base class for parameter groups.">
<polygon fill="white" stroke="#666666" points="90.25,-223.25 0,-223.25 0,-202.5 90.25,-202.5 90.25,-223.25"/>
<text text-anchor="middle" x="45.12" y="-209.75" font-family="Helvetica,sans-Serif" font-size="10.00">ParameterBase</text>
</a>
</g>
</g>
<!-- Node2&#45;&gt;Node1 -->
<g id="edge1_Node000001_Node000002" class="edge">
<title>Node2&#45;&gt;Node1</title>
<g id="a_edge1_Node000001_Node000002"><a xlink:title=" ">
<path fill="none" stroke="#63b8ff" d="M51.89,-234.57C61.57,-266.12 84.36,-323.65 127.25,-348.88 244.3,-417.73 317.89,-426.32 432.75,-353.88 483.65,-321.77 501.35,-245.39 506.87,-211.08"/>
<polygon fill="#63b8ff" stroke="#63b8ff" points="55.26,-233.61 49.14,-224.97 48.53,-235.55 55.26,-233.61"/>
</a>
</g>
</g>
<!-- Node3 -->
<g id="Node000003" class="node">
<title>Node3</title>
<g id="a_Node000003"><a xlink:href="structTemporalDiscretization.html" target="_top" xlink:title="Struct that holds temporal discretization parameters.">
<polygon fill="white" stroke="#666666" points="264.38,-340.25 135.88,-340.25 135.88,-319.5 264.38,-319.5 264.38,-340.25"/>
<text text-anchor="middle" x="200.12" y="-326.75" font-family="Helvetica,sans-Serif" font-size="10.00">TemporalDiscretization</text>
</a>
</g>
</g>
<!-- Node2&#45;&gt;Node3 -->
<g id="edge3_Node000003_Node000002" class="edge">
<title>Node2&#45;&gt;Node3</title>
<g id="a_edge3_Node000003_Node000002"><a xlink:title=" ">
<path fill="none" stroke="#63b8ff" d="M58.05,-233.49C71.91,-255.62 96.81,-290.24 127.25,-309.88 133.02,-313.6 139.48,-316.63 146.1,-319.11"/>
<polygon fill="#63b8ff" stroke="#63b8ff" points="61.11,-231.79 52.94,-225.04 55.12,-235.41 61.11,-231.79"/>
</a>
</g>
</g>
<!-- Node5 -->
<g id="Node000005" class="node">
<title>Node5</title>
<g id="a_Node000005"><a xlink:href="structLinearSolveParameters.html" target="_top" xlink:title="Struct that holds linear solver parameters.">
<polygon fill="white" stroke="#666666" points="264.38,-301.25 135.88,-301.25 135.88,-280.5 264.38,-280.5 264.38,-301.25"/>
<text text-anchor="middle" x="200.12" y="-287.75" font-family="Helvetica,sans-Serif" font-size="10.00">LinearSolveParameters</text>
</a>
</g>
</g>
<!-- Node2&#45;&gt;Node5 -->
<g id="edge6_Node000005_Node000002" class="edge">
<title>Node2&#45;&gt;Node5</title>
<g id="a_edge6_Node000005_Node000002"><a xlink:title=" ">
<path fill="none" stroke="#63b8ff" d="M66.99,-230.93C82.66,-243.68 105.13,-260.3 127.25,-270.88 134.73,-274.45 142.96,-277.49 151.1,-280.03"/>
<polygon fill="#63b8ff" stroke="#63b8ff" points="69.27,-228.27 59.35,-224.56 64.79,-233.65 69.27,-228.27"/>
</a>
</g>
</g>
<!-- Node6 -->
<g id="Node000006" class="node">
<title>Node6</title>
<g id="a_Node000006"><a xlink:href="structNonlinearSolveParameters.html" target="_top" xlink:title="Struct that holds nonlinear solver parameters.">
<polygon fill="white" stroke="#666666" points="273,-262.25 127.25,-262.25 127.25,-241.5 273,-241.5 273,-262.25"/>
<text text-anchor="middle" x="200.12" y="-248.75" font-family="Helvetica,sans-Serif" font-size="10.00">NonlinearSolveParameters</text>
</a>
</g>
</g>
<!-- Node2&#45;&gt;Node6 -->
<g id="edge8_Node000006_Node000002" class="edge">
<title>Node2&#45;&gt;Node6</title>
<g id="a_edge8_Node000006_Node000002"><a xlink:title=" ">
<path fill="none" stroke="#63b8ff" d="M99.72,-226.54C118.31,-231.27 138.88,-236.52 156.47,-241"/>
<polygon fill="#63b8ff" stroke="#63b8ff" points="100.77,-223.19 90.21,-224.11 99.04,-229.97 100.77,-223.19"/>
</a>
</g>
</g>
<!-- Node7 -->
<g id="Node000007" class="node">
<title>Node7</title>
<g id="a_Node000007"><a xlink:href="structFieldOutputParameters.html" target="_top" xlink:title="Simple struct for field output.">
<polygon fill="white" stroke="#666666" points="264,-223.25 136.25,-223.25 136.25,-202.5 264,-202.5 264,-223.25"/>
<text text-anchor="middle" x="200.12" y="-209.75" font-family="Helvetica,sans-Serif" font-size="10.00">FieldOutputParameters</text>
</a>
</g>
</g>
<!-- Node2&#45;&gt;Node7 -->
<g id="edge10_Node000007_Node000002" class="edge">
<title>Node2&#45;&gt;Node7</title>
<g id="a_edge10_Node000007_Node000002"><a xlink:title=" ">
<path fill="none" stroke="#63b8ff" d="M101.69,-212.88C112.8,-212.88 124.56,-212.88 135.91,-212.88"/>
<polygon fill="#63b8ff" stroke="#63b8ff" points="101.89,-209.38 91.89,-212.88 101.89,-216.38 101.89,-209.38"/>
</a>
</g>
</g>
<!-- Node8 -->
<g id="Node000008" class="node">
<title>Node8</title>
<g id="a_Node000008"><a xlink:href="structRestartOutputParameters.html" target="_top" xlink:title="Simple struct for restart output.">
<polygon fill="white" stroke="#666666" points="270,-184.25 130.25,-184.25 130.25,-163.5 270,-163.5 270,-184.25"/>
<text text-anchor="middle" x="200.12" y="-170.75" font-family="Helvetica,sans-Serif" font-size="10.00">RestartOutputParameters</text>
</a>
</g>
</g>
<!-- Node2&#45;&gt;Node8 -->
<g id="edge12_Node000008_Node000002" class="edge">
<title>Node2&#45;&gt;Node8</title>
<g id="a_edge12_Node000008_Node000002"><a xlink:title=" ">
<path fill="none" stroke="#63b8ff" d="M99.72,-199.21C118.31,-194.48 138.88,-189.23 156.47,-184.75"/>
<polygon fill="#63b8ff" stroke="#63b8ff" points="99.04,-195.78 90.21,-201.64 100.77,-202.56 99.04,-195.78"/>
</a>
</g>
</g>
<!-- Node9 -->
<g id="Node000009" class="node">
<title>Node9</title>
<g id="a_Node000009"><a xlink:href="structFieldInputParameters.html" target="_top" xlink:title="Simple struct for field input.">
<polygon fill="white" stroke="#666666" points="259.88,-145.25 140.38,-145.25 140.38,-124.5 259.88,-124.5 259.88,-145.25"/>
<text text-anchor="middle" x="200.12" y="-131.75" font-family="Helvetica,sans-Serif" font-size="10.00">FieldInputParameters</text>
</a>
</g>
</g>
<!-- Node2&#45;&gt;Node9 -->
<g id="edge14_Node000009_Node000002" class="edge">
<title>Node2&#45;&gt;Node9</title>
<g id="a_edge14_Node000009_Node000002"><a xlink:title=" ">
<path fill="none" stroke="#63b8ff" d="M66.99,-194.82C82.66,-182.07 105.13,-165.45 127.25,-154.88 134.73,-151.3 142.96,-148.26 151.1,-145.72"/>
<polygon fill="#63b8ff" stroke="#63b8ff" points="64.79,-192.1 59.35,-201.19 69.27,-197.48 64.79,-192.1"/>
</a>
</g>
</g>
<!-- Node10 -->
<g id="Node000010" class="node">
<title>Node10</title>
<g id="a_Node000010"><a xlink:href="structMiscellaneousParameters.html" target="_top" xlink:title="Struct that holds miscellaneous parameters.">
<polygon fill="white" stroke="#666666" points="270.75,-106.25 129.5,-106.25 129.5,-85.5 270.75,-85.5 270.75,-106.25"/>
<text text-anchor="middle" x="200.12" y="-92.75" font-family="Helvetica,sans-Serif" font-size="10.00">MiscellaneousParameters</text>
</a>
</g>
</g>
<!-- Node2&#45;&gt;Node10 -->
<g id="edge16_Node000010_Node000002" class="edge">
<title>Node2&#45;&gt;Node10</title>
<g id="a_edge16_Node000010_Node000002"><a xlink:title=" ">
<path fill="none" stroke="#63b8ff" d="M58.05,-192.26C71.91,-170.13 96.81,-135.51 127.25,-115.88 133.02,-112.15 139.48,-109.12 146.1,-106.64"/>
<polygon fill="#63b8ff" stroke="#63b8ff" points="55.12,-190.34 52.94,-200.71 61.11,-193.96 55.12,-190.34"/>
</a>
</g>
</g>
<!-- Node11 -->
<g id="Node000011" class="node">
<title>Node11</title>
<g id="a_Node000011"><a xlink:href="structNucleationParameters.html" target="_top" xlink:title="Struct that holds nucleation parameters.">
<polygon fill="white" stroke="#666666" points="262.12,-67.25 138.12,-67.25 138.12,-46.5 262.12,-46.5 262.12,-67.25"/>
<text text-anchor="middle" x="200.12" y="-53.75" font-family="Helvetica,sans-Serif" font-size="10.00">NucleationParameters</text>
</a>
</g>
</g>
<!-- Node2&#45;&gt;Node11 -->
<g id="edge18_Node000011_Node000002" class="edge">
<title>Node2&#45;&gt;Node11</title>
<g id="a_edge18_Node000011_Node000002"><a xlink:title=" ">
<path fill="none" stroke="#63b8ff" d="M53.07,-191.58C64,-161.46 88.09,-106.78 127.25,-76.88 132.09,-73.18 137.57,-70.17 143.3,-67.71"/>
<polygon fill="#63b8ff" stroke="#63b8ff" points="49.87,-190.13 49.91,-200.73 56.49,-192.42 49.87,-190.13"/>
</a>
</g>
</g>
<!-- Node3&#45;&gt;Node1 -->
<g id="edge2_Node000001_Node000003" class="edge">
<title>Node3&#45;&gt;Node1</title>
<g id="a_edge2_Node000001_Node000003"><a xlink:title=" ">
<path fill="none" stroke="#9a32cd" stroke-dasharray="5,2" d="M276.1,-337.6C324.09,-338.97 385.9,-333.82 432.75,-305.88 469.54,-283.93 492.62,-236.58 502.89,-211.04"/>
<polygon fill="#9a32cd" stroke="#9a32cd" points="276.49,-334.11 266.36,-337.21 276.21,-341.1 276.49,-334.11"/>
</a>
</g>
<text text-anchor="middle" x="361.88" y="-341.02" font-family="Helvetica,sans-Serif" font-size="10.00" fill="grey"> temporal_discretization</text>
</g>
<!-- Node4 -->
<g id="Node000004" class="node">
<title>Node4</title>
<g id="a_Node000004"><a xlink:href="structBoundaryParameters.html" target="_top" xlink:title="Struct that holds boundary parameters.">
<polygon fill="white" stroke="#666666" points="259.12,-28.25 141.12,-28.25 141.12,-7.5 259.12,-7.5 259.12,-28.25"/>
<text text-anchor="middle" x="200.12" y="-14.75" font-family="Helvetica,sans-Serif" font-size="10.00">BoundaryParameters</text>
</a>
</g>
</g>
<!-- Node4&#45;&gt;Node1 -->
<g id="edge4_Node000001_Node000004" class="edge">
<title>Node4&#45;&gt;Node1</title>
<g id="a_edge4_Node000001_Node000004"><a xlink:title=" ">
<path fill="none" stroke="#9a32cd" stroke-dasharray="5,2" d="M258.55,-5.18C308.83,2.58 381.63,5.3 432.75,-29.13 484.01,-63.64 501.55,-141.88 506.95,-176.65"/>
<polygon fill="#9a32cd" stroke="#9a32cd" points="258.01,-1.72 248.73,-6.82 259.17,-8.62 258.01,-1.72"/>
</a>
</g>
<text text-anchor="middle" x="361.88" y="-32.38" font-family="Helvetica,sans-Serif" font-size="10.00" fill="grey"> boundary_parameters</text>
</g>
<!-- Node5&#45;&gt;Node1 -->
<g id="edge5_Node000001_Node000005" class="edge">
<title>Node5&#45;&gt;Node1</title>
<g id="a_edge5_Node000001_Node000005"><a xlink:title=" ">
<path fill="none" stroke="#9a32cd" stroke-dasharray="5,2" d="M276.17,-293.16C323.09,-291.9 383.71,-285.22 432.75,-262.88 458.61,-251.1 481.81,-227.33 495.68,-211.01"/>
<polygon fill="#9a32cd" stroke="#9a32cd" points="276.3,-289.66 266.37,-293.34 276.43,-296.66 276.3,-289.66"/>
</a>
</g>
<text text-anchor="middle" x="361.88" y="-295.75" font-family="Helvetica,sans-Serif" font-size="10.00" fill="grey"> linear_solve_parameters</text>
</g>
<!-- Node6&#45;&gt;Node1 -->
<g id="edge7_Node000001_Node000006" class="edge">
<title>Node6&#45;&gt;Node1</title>
<g id="a_edge7_Node000001_Node000006"><a xlink:title=" ">
<path fill="none" stroke="#9a32cd" stroke-dasharray="5,2" d="M284.81,-246.91C329.26,-242.99 384.52,-236.05 432.75,-223.88 445.46,-220.67 458.9,-215.89 470.9,-211.09"/>
<polygon fill="#9a32cd" stroke="#9a32cd" points="284.64,-243.41 274.97,-247.74 285.23,-250.39 284.64,-243.41"/>
</a>
</g>
<text text-anchor="middle" x="361.88" y="-249.12" font-family="Helvetica,sans-Serif" font-size="10.00" fill="grey"> nonlinear_solve_parameters</text>
</g>
<!-- Node7&#45;&gt;Node1 -->
<g id="edge9_Node000001_Node000007" class="edge">
<title>Node7&#45;&gt;Node1</title>
<g id="a_edge9_Node000001_Node000007"><a xlink:title=" ">
<path fill="none" stroke="#9a32cd" stroke-dasharray="5,2" d="M275.37,-208.3C329.04,-204.98 400.57,-200.57 450.31,-197.5"/>
<polygon fill="#9a32cd" stroke="#9a32cd" points="275.47,-204.78 265.71,-208.89 275.9,-211.77 275.47,-204.78"/>
</a>
</g>
<text text-anchor="middle" x="361.88" y="-210.51" font-family="Helvetica,sans-Serif" font-size="10.00" fill="grey"> output_parameters</text>
</g>
<!-- Node8&#45;&gt;Node1 -->
<g id="edge11_Node000001_Node000008" class="edge">
<title>Node8&#45;&gt;Node1</title>
<g id="a_edge11_Node000001_Node000008"><a xlink:title=" ">
<path fill="none" stroke="#9a32cd" stroke-dasharray="5,2" d="M281.8,-174.43C326.39,-175.32 382.72,-177.4 432.75,-182.13 438.49,-182.67 444.46,-183.36 450.42,-184.13"/>
<polygon fill="#9a32cd" stroke="#9a32cd" points="282.01,-170.94 271.95,-174.26 281.88,-177.94 282.01,-170.94"/>
</a>
</g>
<text text-anchor="middle" x="361.88" y="-185.38" font-family="Helvetica,sans-Serif" font-size="10.00" fill="grey"> restart_parameters</text>
</g>
<!-- Node9&#45;&gt;Node1 -->
<g id="edge13_Node000001_Node000009" class="edge">
<title>Node9&#45;&gt;Node1</title>
<g id="a_edge13_Node000001_Node000009"><a xlink:title=" ">
<path fill="none" stroke="#9a32cd" stroke-dasharray="5,2" d="M271.66,-135.81C318.14,-137.91 379.95,-143.57 432.75,-158.13 448.56,-162.48 465.15,-169.87 478.82,-176.8"/>
<polygon fill="#9a32cd" stroke="#9a32cd" points="271.84,-132.31 261.7,-135.41 271.55,-139.31 271.84,-132.31"/>
</a>
</g>
<text text-anchor="middle" x="361.88" y="-161.38" font-family="Helvetica,sans-Serif" font-size="10.00" fill="grey"> input_parameters</text>
</g>
<!-- Node10&#45;&gt;Node1 -->
<g id="edge15_Node000001_Node000010" class="edge">
<title>Node10&#45;&gt;Node1</title>
<g id="a_edge15_Node000001_Node000010"><a xlink:title=" ">
<path fill="none" stroke="#9a32cd" stroke-dasharray="5,2" d="M282.6,-91.62C328.64,-92.28 386.13,-98.4 432.75,-120.13 459.98,-132.82 483.5,-159.25 496.99,-176.77"/>
<polygon fill="#9a32cd" stroke="#9a32cd" points="282.69,-88.12 272.67,-91.57 282.65,-95.12 282.69,-88.12"/>
</a>
</g>
<text text-anchor="middle" x="361.88" y="-123.38" font-family="Helvetica,sans-Serif" font-size="10.00" fill="grey"> misc_parameters</text>
</g>
<!-- Node11&#45;&gt;Node1 -->
<g id="edge17_Node000001_Node000011" class="edge">
<title>Node11&#45;&gt;Node1</title>
<g id="a_edge17_Node000001_Node000011"><a xlink:title=" ">
<path fill="none" stroke="#9a32cd" stroke-dasharray="5,2" d="M273.49,-46.69C321.88,-43.51 385.16,-46.66 432.75,-75.13 471.67,-98.4 494.22,-150.05 503.74,-176.91"/>
<polygon fill="#9a32cd" stroke="#9a32cd" points="273.37,-43.19 263.67,-47.45 273.91,-50.17 273.37,-43.19"/>
</a>
</g>
<text text-anchor="middle" x="361.88" y="-78.38" font-family="Helvetica,sans-Serif" font-size="10.00" fill="grey"> nucleation_parameters</text>
</g>
</g>
</svg>
