<?xml version="1.0" encoding="UTF-8" standalone="no"?>
<!DOCTYPE svg PUBLIC "-//W3C//DTD SVG 1.1//EN"
 "http://www.w3.org/Graphics/SVG/1.1/DTD/svg11.dtd">
<!-- Generated by graphviz version 12.2.1 (20241206.2353)
 -->
<!-- Title: LinearSolver&lt; dim, degree, number &gt; Pages: 1 -->
<svg width="302pt" height="193pt"
 viewBox="0.00 0.00 301.88 193.25" xmlns="http://www.w3.org/2000/svg" xmlns:xlink="http://www.w3.org/1999/xlink">
<g id="graph0" class="graph" transform="scale(1 1) rotate(0) translate(4 189.25)">
<title>LinearSolver&lt; dim, degree, number &gt;</title>
<!-- Node1 -->
<g id="Node000001" class="node">
<title>Node1</title>
<g id="a_Node000001"><a xlink:title="This class handles the explicit solves of all explicit fields.">
<polygon fill="#999999" stroke="#666666" points="204.62,-33.5 94.88,-33.5 94.88,0 204.62,0 204.62,-33.5"/>
<text text-anchor="start" x="102.88" y="-20" font-family="Helvetica,sans-Serif" font-size="10.00">LinearSolver&lt; dim,</text>
<text text-anchor="middle" x="149.75" y="-7.25" font-family="Helvetica,sans-Serif" font-size="10.00"> degree, number &gt;</text>
</a>
</g>
</g>
<!-- Node2 -->
<g id="Node000002" class="node">
<title>Node2</title>
<g id="a_Node000002"><a xlink:href="classSolverBase.html" target="_top" xlink:title=" ">
<polygon fill="white" stroke="#666666" points="143.5,-115.75 0,-115.75 0,-82.25 143.5,-82.25 143.5,-115.75"/>
<text text-anchor="start" x="8" y="-102.25" font-family="Helvetica,sans-Serif" font-size="10.00">SolverBase&lt; dim, degree,</text>
<text text-anchor="middle" x="71.75" y="-89.5" font-family="Helvetica,sans-Serif" font-size="10.00"> number &gt;</text>
</a>
</g>
</g>
<!-- Node2&#45;&gt;Node1 -->
<g id="edge1_Node000001_Node000002" class="edge">
<title>Node2&#45;&gt;Node1</title>
<g id="a_edge1_Node000001_Node000002"><a xlink:title=" ">
<path fill="none" stroke="#63b8ff" d="M95.33,-73.74C107.85,-60.86 122.89,-45.38 133.99,-33.97"/>
<polygon fill="#63b8ff" stroke="#63b8ff" points="93.05,-71.06 88.59,-80.67 98.07,-75.94 93.05,-71.06"/>
</a>
</g>
</g>
<!-- Node3 -->
<g id="Node000003" class="node">
<title>Node3</title>
<g id="a_Node000003"><a xlink:href="classSolveBlock.html" target="_top" xlink:title="Structure to hold the attributes of a solve&#45;block.">
<polygon fill="white" stroke="#666666" points="106.75,-185.25 36.75,-185.25 36.75,-164.5 106.75,-164.5 106.75,-185.25"/>
<text text-anchor="middle" x="71.75" y="-171.75" font-family="Helvetica,sans-Serif" font-size="10.00">SolveBlock</text>
</a>
</g>
</g>
<!-- Node3&#45;&gt;Node2 -->
<g id="edge2_Node000002_Node000003" class="edge">
<title>Node3&#45;&gt;Node2</title>
<g id="a_edge2_Node000002_Node000003"><a xlink:title=" ">
<path fill="none" stroke="#9a32cd" stroke-dasharray="5,2" d="M71.75,-152.88C71.75,-141.22 71.75,-126.94 71.75,-116.16"/>
<polygon fill="#9a32cd" stroke="#9a32cd" points="68.25,-152.7 71.75,-162.7 75.25,-152.7 68.25,-152.7"/>
</a>
</g>
<text text-anchor="middle" x="102.12" y="-137" font-family="Helvetica,sans-Serif" font-size="10.00" fill="grey"> solve_block</text>
</g>
<!-- Node4 -->
<g id="Node000004" class="node">
<title>Node4</title>
<g id="a_Node000004"><a xlink:href="structLinearSolverParameters.html" target="_top" xlink:title="Struct that stores relevant linear solve information of a certain field.">
<polygon fill="white" stroke="#666666" points="293.88,-109.38 161.62,-109.38 161.62,-88.62 293.88,-88.62 293.88,-109.38"/>
<text text-anchor="middle" x="227.75" y="-95.88" font-family="Helvetica,sans-Serif" font-size="10.00">LinearSolverParameters</text>
</a>
</g>
</g>
<!-- Node4&#45;&gt;Node1 -->
<g id="edge3_Node000001_Node000004" class="edge">
<title>Node4&#45;&gt;Node1</title>
<g id="a_edge3_Node000001_Node000004"><a xlink:title=" ">
<path fill="none" stroke="#9a32cd" stroke-dasharray="5,2" d="M210.53,-80.29C197.03,-66.39 178.39,-47.22 165.32,-33.77"/>
<polygon fill="#9a32cd" stroke="#9a32cd" points="207.65,-82.34 217.13,-87.07 212.67,-77.46 207.65,-82.34"/>
</a>
</g>
<text text-anchor="middle" x="221.92" y="-54.75" font-family="Helvetica,sans-Serif" font-size="10.00" fill="grey"> lin_params</text>
</g>
</g>
</svg>
