<?xml version="1.0" encoding="UTF-8" standalone="no"?>
<!DOCTYPE svg PUBLIC "-//W3C//DTD SVG 1.1//EN"
 "http://www.w3.org/Graphics/SVG/1.1/DTD/svg11.dtd">
<!-- Generated by graphviz version 12.2.1 (20241206.2353)
 -->
<!-- Title: ReadFieldBase&lt; dim, number &gt; Pages: 1 -->
<svg width="306pt" height="111pt"
 viewBox="0.00 0.00 306.12 111.00" xmlns="http://www.w3.org/2000/svg" xmlns:xlink="http://www.w3.org/1999/xlink">
<g id="graph0" class="graph" transform="scale(1 1) rotate(0) translate(4 107)">
<title>ReadFieldBase&lt; dim, number &gt;</title>
<!-- Node1 -->
<g id="Node000001" class="node">
<title>Node1</title>
<g id="a_Node000001"><a xlink:title=" ">
<polygon fill="#999999" stroke="#666666" points="218,-103 97,-103 97,-69.5 218,-69.5 218,-103"/>
<text text-anchor="start" x="105" y="-89.5" font-family="Helvetica,sans-Serif" font-size="10.00">ReadFieldBase&lt; dim,</text>
<text text-anchor="middle" x="157.5" y="-76.75" font-family="Helvetica,sans-Serif" font-size="10.00"> number &gt;</text>
</a>
</g>
</g>
<!-- Node2 -->
<g id="Node000002" class="node">
<title>Node2</title>
<g id="a_Node000002"><a xlink:href="classReadBinary.html" target="_top" xlink:title="Class to read in a flat binary file and provide values at given points.">
<polygon fill="white" stroke="#666666" points="157,-27.12 0,-27.12 0,-6.38 157,-6.38 157,-27.12"/>
<text text-anchor="middle" x="78.5" y="-13.62" font-family="Helvetica,sans-Serif" font-size="10.00">ReadBinary&lt; dim, number &gt;</text>
</a>
</g>
</g>
<!-- Node1&#45;&gt;Node2 -->
<g id="edge1_Node000001_Node000002" class="edge">
<title>Node1&#45;&gt;Node2</title>
<g id="a_edge1_Node000001_Node000002"><a xlink:title=" ">
<path fill="none" stroke="#63b8ff" d="M130.14,-61.87C116.4,-50.13 100.48,-36.53 90,-27.57"/>
<polygon fill="#63b8ff" stroke="#63b8ff" points="127.75,-64.44 137.63,-68.27 132.3,-59.11 127.75,-64.44"/>
</a>
</g>
</g>
<!-- Node3 -->
<g id="Node000003" class="node">
<title>Node3</title>
<g id="a_Node000003"><a xlink:href="classReadUnstructuredVTK.html" target="_top" xlink:title=" ">
<polygon fill="white" stroke="#666666" points="298.12,-33.5 174.88,-33.5 174.88,0 298.12,0 298.12,-33.5"/>
<text text-anchor="start" x="182.88" y="-20" font-family="Helvetica,sans-Serif" font-size="10.00">ReadUnstructuredVTK</text>
<text text-anchor="middle" x="236.5" y="-7.25" font-family="Helvetica,sans-Serif" font-size="10.00">&lt; dim, number &gt;</text>
</a>
</g>
</g>
<!-- Node1&#45;&gt;Node3 -->
<g id="edge2_Node000001_Node000003" class="edge">
<title>Node1&#45;&gt;Node3</title>
<g id="a_edge2_Node000001_Node000003"><a xlink:title=" ">
<path fill="none" stroke="#63b8ff" d="M184.9,-61.84C195.71,-52.6 207.85,-42.23 217.64,-33.87"/>
<polygon fill="#63b8ff" stroke="#63b8ff" points="182.7,-59.11 177.37,-68.27 187.25,-64.44 182.7,-59.11"/>
</a>
</g>
</g>
</g>
</svg>
