<?xml version="1.0" encoding="UTF-8" standalone="no"?>
<!DOCTYPE svg PUBLIC "-//W3C//DTD SVG 1.1//EN"
 "http://www.w3.org/Graphics/SVG/1.1/DTD/svg11.dtd">
<!-- Generated by graphviz version 12.2.1 (20241206.2353)
 -->
<!-- Title: UserInputParameters&lt; dim &gt; Pages: 1 -->
<svg width="474pt" height="317pt"
 viewBox="0.00 0.00 473.50 317.25" xmlns="http://www.w3.org/2000/svg" xmlns:xlink="http://www.w3.org/1999/xlink">
<g id="graph0" class="graph" transform="scale(1 1) rotate(0) translate(4 313.25)">
<title>UserInputParameters&lt; dim &gt;</title>
<!-- Node1 -->
<g id="Node000001" class="node">
<title>Node1</title>
<g id="a_Node000001"><a xlink:title=" ">
<polygon fill="#999999" stroke="#666666" points="465.5,-166.22 346.75,-166.22 346.75,-132.72 465.5,-132.72 465.5,-166.22"/>
<text text-anchor="start" x="354.75" y="-152.72" font-family="Helvetica,sans-Serif" font-size="10.00">UserInputParameters</text>
<text text-anchor="middle" x="406.12" y="-139.97" font-family="Helvetica,sans-Serif" font-size="10.00">&lt; dim &gt;</text>
</a>
</g>
</g>
<!-- Node2 -->
<g id="Node000002" class="node">
<title>Node2</title>
<g id="a_Node000002"><a xlink:href="structTemporalDiscretization.html" target="_top" xlink:title="Struct that holds temporal discretization parameters.">
<polygon fill="white" stroke="#666666" points="148.75,-296.85 20.25,-296.85 20.25,-276.1 148.75,-276.1 148.75,-296.85"/>
<text text-anchor="middle" x="84.5" y="-283.35" font-family="Helvetica,sans-Serif" font-size="10.00">TemporalDiscretization</text>
</a>
</g>
</g>
<!-- Node2&#45;&gt;Node1 -->
<g id="edge1_Node000001_Node000002" class="edge">
<title>Node2&#45;&gt;Node1</title>
<g id="a_edge1_Node000001_Node000002"><a xlink:title=" ">
<path fill="none" stroke="#9a32cd" stroke-dasharray="5,2" d="M160.28,-295.82C211.22,-298.51 278.29,-294.54 328.75,-264.47 366.43,-242.02 389.27,-192.9 399.23,-166.72"/>
<polygon fill="#9a32cd" stroke="#9a32cd" points="160.73,-292.34 150.53,-295.2 160.29,-299.33 160.73,-292.34"/>
</a>
</g>
<text text-anchor="middle" x="257.88" y="-299.75" font-family="Helvetica,sans-Serif" font-size="10.00" fill="grey"> temporal_discretization</text>
</g>
<!-- Node3 -->
<g id="Node000003" class="node">
<title>Node3</title>
<g id="a_Node000003"><a xlink:href="structLinearSolveParameters.html" target="_top" xlink:title="Struct that holds linear solver parameters.">
<polygon fill="white" stroke="#666666" points="148.75,-257.85 20.25,-257.85 20.25,-237.1 148.75,-237.1 148.75,-257.85"/>
<text text-anchor="middle" x="84.5" y="-244.35" font-family="Helvetica,sans-Serif" font-size="10.00">LinearSolveParameters</text>
</a>
</g>
</g>
<!-- Node3&#45;&gt;Node1 -->
<g id="edge2_Node000001_Node000003" class="edge">
<title>Node3&#45;&gt;Node1</title>
<g id="a_edge2_Node000001_Node000003"><a xlink:title=" ">
<path fill="none" stroke="#9a32cd" stroke-dasharray="5,2" d="M160.36,-250.12C210.15,-249.16 275.86,-242.52 328.75,-218.47 354.61,-206.71 377.81,-182.95 391.68,-166.62"/>
<polygon fill="#9a32cd" stroke="#9a32cd" points="160.5,-246.62 150.54,-250.23 160.58,-253.62 160.5,-246.62"/>
</a>
</g>
<text text-anchor="middle" x="257.88" y="-252.28" font-family="Helvetica,sans-Serif" font-size="10.00" fill="grey"> linear_solve_parameters</text>
</g>
<!-- Node4 -->
<g id="Node000004" class="node">
<title>Node4</title>
<g id="a_Node000004"><a xlink:href="structNonlinearSolveParameterSet.html" target="_top" xlink:title="Struct that holds nonlinear solver parameters.">
<polygon fill="white" stroke="#666666" points="162.62,-218.85 6.38,-218.85 6.38,-198.1 162.62,-198.1 162.62,-218.85"/>
<text text-anchor="middle" x="84.5" y="-205.35" font-family="Helvetica,sans-Serif" font-size="10.00">NonlinearSolveParameterSet</text>
</a>
</g>
</g>
<!-- Node4&#45;&gt;Node1 -->
<g id="edge3_Node000001_Node000004" class="edge">
<title>Node4&#45;&gt;Node1</title>
<g id="a_edge3_Node000001_Node000004"><a xlink:title=" ">
<path fill="none" stroke="#9a32cd" stroke-dasharray="5,2" d="M174.37,-203.35C220.88,-199.31 278.45,-192.13 328.75,-179.47 341.46,-176.28 354.9,-171.5 366.9,-166.7"/>
<polygon fill="#9a32cd" stroke="#9a32cd" points="174.29,-199.85 164.61,-204.17 174.87,-206.83 174.29,-199.85"/>
</a>
</g>
<text text-anchor="middle" x="257.88" y="-205.03" font-family="Helvetica,sans-Serif" font-size="10.00" fill="grey"> nonlinear_solve_parameters</text>
</g>
<!-- Node5 -->
<g id="Node000005" class="node">
<title>Node5</title>
<g id="a_Node000005"><a xlink:href="structOutputParameters.html" target="_top" xlink:title="Struct that holds output parameters.">
<polygon fill="white" stroke="#666666" points="136.75,-179.85 32.25,-179.85 32.25,-159.1 136.75,-159.1 136.75,-179.85"/>
<text text-anchor="middle" x="84.5" y="-166.35" font-family="Helvetica,sans-Serif" font-size="10.00">OutputParameters</text>
</a>
</g>
</g>
<!-- Node5&#45;&gt;Node1 -->
<g id="edge4_Node000001_Node000005" class="edge">
<title>Node5&#45;&gt;Node1</title>
<g id="a_edge4_Node000001_Node000005"><a xlink:title=" ">
<path fill="none" stroke="#9a32cd" stroke-dasharray="5,2" d="M148.69,-165.52C206.19,-161.92 290.4,-156.65 346.44,-153.15"/>
<polygon fill="#9a32cd" stroke="#9a32cd" points="148.48,-162.03 138.72,-166.14 148.92,-169.01 148.48,-162.03"/>
</a>
</g>
<text text-anchor="middle" x="257.88" y="-166.25" font-family="Helvetica,sans-Serif" font-size="10.00" fill="grey"> output_parameters</text>
</g>
<!-- Node6 -->
<g id="Node000006" class="node">
<title>Node6</title>
<g id="a_Node000006"><a xlink:href="structCheckpointParameters.html" target="_top" xlink:title="Struct that holds checkpoint parameters.">
<polygon fill="white" stroke="#666666" points="147.62,-140.85 21.38,-140.85 21.38,-120.1 147.62,-120.1 147.62,-140.85"/>
<text text-anchor="middle" x="84.5" y="-127.35" font-family="Helvetica,sans-Serif" font-size="10.00">CheckpointParameters</text>
</a>
</g>
</g>
<!-- Node6&#45;&gt;Node1 -->
<g id="edge5_Node000001_Node000006" class="edge">
<title>Node6&#45;&gt;Node1</title>
<g id="a_edge5_Node000001_Node000006"><a xlink:title=" ">
<path fill="none" stroke="#9a32cd" stroke-dasharray="5,2" d="M159.22,-128.45C207.56,-127.94 272.07,-128.8 328.75,-134.72 334.53,-135.33 340.52,-136.14 346.49,-137.09"/>
<polygon fill="#9a32cd" stroke="#9a32cd" points="159.39,-124.95 149.43,-128.58 159.48,-131.95 159.39,-124.95"/>
</a>
</g>
<text text-anchor="middle" x="257.88" y="-137.97" font-family="Helvetica,sans-Serif" font-size="10.00" fill="grey"> checkpoint_parameters</text>
</g>
<!-- Node7 -->
<g id="Node000007" class="node">
<title>Node7</title>
<g id="a_Node000007"><a xlink:href="structLoadInitialConditionParameters.html" target="_top" xlink:title="Struct that stores relevant load initial condition information.">
<polygon fill="white" stroke="#666666" points="169,-101.85 0,-101.85 0,-81.1 169,-81.1 169,-101.85"/>
<text text-anchor="middle" x="84.5" y="-88.35" font-family="Helvetica,sans-Serif" font-size="10.00">LoadInitialConditionParameters</text>
</a>
</g>
</g>
<!-- Node7&#45;&gt;Node1 -->
<g id="edge6_Node000001_Node000007" class="edge">
<title>Node7&#45;&gt;Node1</title>
<g id="a_edge6_Node000001_Node000007"><a xlink:title=" ">
<path fill="none" stroke="#9a32cd" stroke-dasharray="5,2" d="M180.69,-91.17C226.21,-93.09 281.04,-98.47 328.75,-111.72 345.42,-116.36 362.81,-124.64 376.77,-132.27"/>
<polygon fill="#9a32cd" stroke="#9a32cd" points="180.97,-87.67 170.84,-90.8 180.71,-94.67 180.97,-87.67"/>
</a>
</g>
<text text-anchor="middle" x="257.88" y="-114.97" font-family="Helvetica,sans-Serif" font-size="10.00" fill="grey"> load_ic_parameters</text>
</g>
<!-- Node8 -->
<g id="Node000008" class="node">
<title>Node8</title>
<g id="a_Node000008"><a xlink:href="structNucleationParameters.html" target="_top" xlink:title="Struct that holds nucleation parameters.">
<polygon fill="white" stroke="#666666" points="146.5,-62.85 22.5,-62.85 22.5,-42.1 146.5,-42.1 146.5,-62.85"/>
<text text-anchor="middle" x="84.5" y="-49.35" font-family="Helvetica,sans-Serif" font-size="10.00">NucleationParameters</text>
</a>
</g>
</g>
<!-- Node8&#45;&gt;Node1 -->
<g id="edge7_Node000001_Node000008" class="edge">
<title>Node8&#45;&gt;Node1</title>
<g id="a_edge7_Node000001_Node000008"><a xlink:title=" ">
<path fill="none" stroke="#9a32cd" stroke-dasharray="5,2" d="M158.28,-46.66C208.42,-45.58 275.36,-50.05 328.75,-74.72 356.37,-87.49 379.95,-114.58 393.32,-132.4"/>
<polygon fill="#9a32cd" stroke="#9a32cd" points="158.29,-43.16 148.4,-46.97 158.5,-50.16 158.29,-43.16"/>
</a>
</g>
<text text-anchor="middle" x="257.88" y="-77.97" font-family="Helvetica,sans-Serif" font-size="10.00" fill="grey"> nucleation_parameters</text>
</g>
<!-- Node9 -->
<g id="Node000009" class="node">
<title>Node9</title>
<g id="a_Node000009"><a xlink:href="structMiscellaneousParameters.html" target="_top" xlink:title="Struct that holds miscellaneous parameters.">
<polygon fill="white" stroke="#666666" points="155.12,-23.85 13.88,-23.85 13.88,-3.1 155.12,-3.1 155.12,-23.85"/>
<text text-anchor="middle" x="84.5" y="-10.35" font-family="Helvetica,sans-Serif" font-size="10.00">MiscellaneousParameters</text>
</a>
</g>
</g>
<!-- Node9&#45;&gt;Node1 -->
<g id="edge8_Node000001_Node000009" class="edge">
<title>Node9&#45;&gt;Node1</title>
<g id="a_edge8_Node000001_Node000009"><a xlink:title=" ">
<path fill="none" stroke="#9a32cd" stroke-dasharray="5,2" d="M161.84,-1.59C212.58,2.41 278.82,-0.14 328.75,-29.72 368,-52.98 390.41,-105.16 399.82,-132.32"/>
<polygon fill="#9a32cd" stroke="#9a32cd" points="161.76,1.91 152.11,-2.47 162.38,-5.06 161.76,1.91"/>
</a>
</g>
<text text-anchor="middle" x="257.88" y="-32.97" font-family="Helvetica,sans-Serif" font-size="10.00" fill="grey"> misc_parameters</text>
</g>
</g>
</svg>
