<?xml version="1.0" encoding="UTF-8" standalone="no"?>
<!DOCTYPE svg PUBLIC "-//W3C//DTD SVG 1.1//EN"
 "http://www.w3.org/Graphics/SVG/1.1/DTD/svg11.dtd">
<!-- Generated by graphviz version 12.2.1 (20241206.2353)
 -->
<!-- Title: ReadBinary&lt; dim, number &gt; Pages: 1 -->
<svg width="165pt" height="169pt"
 viewBox="0.00 0.00 165.00 168.75" xmlns="http://www.w3.org/2000/svg" xmlns:xlink="http://www.w3.org/1999/xlink">
<g id="graph0" class="graph" transform="scale(1 1) rotate(0) translate(4 164.75)">
<title>ReadBinary&lt; dim, number &gt;</title>
<!-- Node1 -->
<g id="Node000001" class="node">
<title>Node1</title>
<g id="a_Node000001"><a xlink:title="Class to read in a flat binary file and provide values at given points.">
<polygon fill="#999999" stroke="#666666" points="157,-20.75 0,-20.75 0,0 157,0 157,-20.75"/>
<text text-anchor="middle" x="78.5" y="-7.25" font-family="Helvetica,sans-Serif" font-size="10.00">ReadBinary&lt; dim, number &gt;</text>
</a>
</g>
</g>
<!-- Node2 -->
<g id="Node000002" class="node">
<title>Node2</title>
<g id="a_Node000002"><a xlink:href="classReadFieldBase.html" target="_top" xlink:title=" ">
<polygon fill="white" stroke="#666666" points="139,-91.25 18,-91.25 18,-57.75 139,-57.75 139,-91.25"/>
<text text-anchor="start" x="26" y="-77.75" font-family="Helvetica,sans-Serif" font-size="10.00">ReadFieldBase&lt; dim,</text>
<text text-anchor="middle" x="78.5" y="-65" font-family="Helvetica,sans-Serif" font-size="10.00"> number &gt;</text>
</a>
</g>
</g>
<!-- Node2&#45;&gt;Node1 -->
<g id="edge1_Node000001_Node000002" class="edge">
<title>Node2&#45;&gt;Node1</title>
<g id="a_edge1_Node000001_Node000002"><a xlink:title=" ">
<path fill="none" stroke="#63b8ff" d="M78.5,-46.23C78.5,-37.27 78.5,-27.89 78.5,-21.12"/>
<polygon fill="#63b8ff" stroke="#63b8ff" points="75,-45.99 78.5,-55.99 82,-45.99 75,-45.99"/>
</a>
</g>
</g>
<!-- Node3 -->
<g id="Node000003" class="node">
<title>Node3</title>
<g id="a_Node000003"><a xlink:href="structInitialConditionFile.html" target="_top" xlink:title="Struct that store the read&#45;in information for a single file.">
<polygon fill="white" stroke="#666666" points="132.25,-160.75 24.75,-160.75 24.75,-140 132.25,-140 132.25,-160.75"/>
<text text-anchor="middle" x="78.5" y="-147.25" font-family="Helvetica,sans-Serif" font-size="10.00">InitialConditionFile</text>
</a>
</g>
</g>
<!-- Node3&#45;&gt;Node2 -->
<g id="edge2_Node000002_Node000003" class="edge">
<title>Node3&#45;&gt;Node2</title>
<g id="a_edge2_Node000002_Node000003"><a xlink:title=" ">
<path fill="none" stroke="#9a32cd" stroke-dasharray="5,2" d="M78.5,-128.38C78.5,-116.72 78.5,-102.44 78.5,-91.66"/>
<polygon fill="#9a32cd" stroke="#9a32cd" points="75,-128.2 78.5,-138.2 82,-128.2 75,-128.2"/>
</a>
</g>
<text text-anchor="middle" x="94.25" y="-112.5" font-family="Helvetica,sans-Serif" font-size="10.00" fill="grey"> ic_file</text>
</g>
</g>
</svg>
