<?xml version="1.0" encoding="UTF-8" standalone="no"?>
<!DOCTYPE svg PUBLIC "-//W3C//DTD SVG 1.1//EN"
 "http://www.w3.org/Graphics/SVG/1.1/DTD/svg11.dtd">
<!-- Generated by graphviz version 12.2.1 (20241206.2353)
 -->
<!-- Title: NewtonSolver&lt; dim, degree, number &gt; Pages: 1 -->
<svg width="367pt" height="322pt"
 viewBox="0.00 0.00 366.64 321.50" xmlns="http://www.w3.org/2000/svg" xmlns:xlink="http://www.w3.org/1999/xlink">
<g id="graph0" class="graph" transform="scale(1 1) rotate(0) translate(4 317.5)">
<title>NewtonSolver&lt; dim, degree, number &gt;</title>
<!-- Node1 -->
<g id="Node000001" class="node">
<title>Node1</title>
<g id="a_Node000001"><a xlink:title="This class handles the explicit solves of all explicit fields.">
<polygon fill="#999999" stroke="#666666" points="203.75,-33.5 86.5,-33.5 86.5,0 203.75,0 203.75,-33.5"/>
<text text-anchor="start" x="94.5" y="-20" font-family="Helvetica,sans-Serif" font-size="10.00">NewtonSolver&lt; dim,</text>
<text text-anchor="middle" x="145.12" y="-7.25" font-family="Helvetica,sans-Serif" font-size="10.00"> degree, number &gt;</text>
</a>
</g>
</g>
<!-- Node2 -->
<g id="Node000002" class="node">
<title>Node2</title>
<g id="a_Node000002"><a xlink:href="classLinearSolver.html" target="_top" xlink:title="This class handles the explicit solves of all explicit fields.">
<polygon fill="white" stroke="#666666" points="200,-104 90.25,-104 90.25,-70.5 200,-70.5 200,-104"/>
<text text-anchor="start" x="98.25" y="-90.5" font-family="Helvetica,sans-Serif" font-size="10.00">LinearSolver&lt; dim,</text>
<text text-anchor="middle" x="145.12" y="-77.75" font-family="Helvetica,sans-Serif" font-size="10.00"> degree, number &gt;</text>
</a>
</g>
</g>
<!-- Node2&#45;&gt;Node1 -->
<g id="edge1_Node000001_Node000002" class="edge">
<title>Node2&#45;&gt;Node1</title>
<g id="a_edge1_Node000001_Node000002"><a xlink:title=" ">
<path fill="none" stroke="#63b8ff" d="M145.12,-58.7C145.12,-50.27 145.12,-41.27 145.12,-33.87"/>
<polygon fill="#63b8ff" stroke="#63b8ff" points="141.63,-58.5 145.13,-68.5 148.63,-58.5 141.63,-58.5"/>
</a>
</g>
</g>
<!-- Node3 -->
<g id="Node000003" class="node">
<title>Node3</title>
<g id="a_Node000003"><a xlink:href="classSolverBase.html" target="_top" xlink:title=" ">
<polygon fill="white" stroke="#666666" points="216.88,-174.5 73.38,-174.5 73.38,-141 216.88,-141 216.88,-174.5"/>
<text text-anchor="start" x="81.38" y="-161" font-family="Helvetica,sans-Serif" font-size="10.00">SolverBase&lt; dim, degree,</text>
<text text-anchor="middle" x="145.12" y="-148.25" font-family="Helvetica,sans-Serif" font-size="10.00"> number &gt;</text>
</a>
</g>
</g>
<!-- Node3&#45;&gt;Node2 -->
<g id="edge2_Node000002_Node000003" class="edge">
<title>Node3&#45;&gt;Node2</title>
<g id="a_edge2_Node000002_Node000003"><a xlink:title=" ">
<path fill="none" stroke="#63b8ff" d="M145.12,-129.2C145.12,-120.77 145.12,-111.77 145.12,-104.37"/>
<polygon fill="#63b8ff" stroke="#63b8ff" points="141.63,-129 145.13,-139 148.63,-129 141.63,-129"/>
</a>
</g>
</g>
<!-- Node4 -->
<g id="Node000004" class="node">
<title>Node4</title>
<g id="a_Node000004"><a xlink:href="classSolveBlock.html" target="_top" xlink:title="Structure to hold the attributes of a solve&#45;block.">
<polygon fill="white" stroke="#666666" points="180.12,-244 110.12,-244 110.12,-223.25 180.12,-223.25 180.12,-244"/>
<text text-anchor="middle" x="145.12" y="-230.5" font-family="Helvetica,sans-Serif" font-size="10.00">SolveBlock</text>
</a>
</g>
</g>
<!-- Node4&#45;&gt;Node3 -->
<g id="edge3_Node000003_Node000004" class="edge">
<title>Node4&#45;&gt;Node3</title>
<g id="a_edge3_Node000003_Node000004"><a xlink:title=" ">
<path fill="none" stroke="#9a32cd" stroke-dasharray="5,2" d="M145.12,-211.63C145.12,-199.97 145.12,-185.69 145.12,-174.91"/>
<polygon fill="#9a32cd" stroke="#9a32cd" points="141.63,-211.45 145.13,-221.45 148.63,-211.45 141.63,-211.45"/>
</a>
</g>
<text text-anchor="middle" x="175.5" y="-195.75" font-family="Helvetica,sans-Serif" font-size="10.00" fill="grey"> solve_block</text>
</g>
<!-- Node5 -->
<g id="Node000005" class="node">
<title>Node5</title>
<g id="a_Node000005"><a xlink:href="structLinearSolverParameters.html" target="_top" xlink:title="Struct that stores relevant linear solve information of a certain solve block.">
<polygon fill="white" stroke="#666666" points="132.25,-313.5 0,-313.5 0,-292.75 132.25,-292.75 132.25,-313.5"/>
<text text-anchor="middle" x="66.12" y="-300" font-family="Helvetica,sans-Serif" font-size="10.00">LinearSolverParameters</text>
</a>
</g>
</g>
<!-- Node5&#45;&gt;Node4 -->
<g id="edge4_Node000004_Node000005" class="edge">
<title>Node5&#45;&gt;Node4</title>
<g id="a_edge4_Node000004_Node000005"><a xlink:title=" ">
<path fill="none" stroke="#9a32cd" stroke-dasharray="5,2" d="M67.28,-281.09C68.59,-274.35 71.05,-267.27 75.62,-262 84.37,-251.91 97.33,-245.5 109.7,-241.45"/>
<polygon fill="#9a32cd" stroke="#9a32cd" points="63.82,-280.57 66.17,-290.9 70.78,-281.36 63.82,-280.57"/>
</a>
</g>
<text text-anchor="middle" x="139.38" y="-265.25" font-family="Helvetica,sans-Serif" font-size="10.00" fill="grey"> linear_solver_parameters</text>
</g>
<!-- Node6 -->
<g id="Node000006" class="node">
<title>Node6</title>
<g id="a_Node000006"><a xlink:href="structNonlinearSolverParameters.html" target="_top" xlink:title="Struct that stores relevant nonlinear solve information of a certain field.">
<polygon fill="white" stroke="#666666" points="299.88,-313.5 150.38,-313.5 150.38,-292.75 299.88,-292.75 299.88,-313.5"/>
<text text-anchor="middle" x="225.12" y="-300" font-family="Helvetica,sans-Serif" font-size="10.00">NonlinearSolverParameters</text>
</a>
</g>
</g>
<!-- Node6&#45;&gt;Node4 -->
<g id="edge5_Node000004_Node000006" class="edge">
<title>Node6&#45;&gt;Node4</title>
<g id="a_edge5_Node000004_Node000006"><a xlink:title=" ">
<path fill="none" stroke="#9a32cd" stroke-dasharray="5,2" d="M217.26,-282.14C213.75,-275.11 209.05,-267.57 203.12,-262 195.18,-254.52 184.82,-248.76 175.05,-244.49"/>
<polygon fill="#9a32cd" stroke="#9a32cd" points="213.95,-283.31 221.2,-291.04 220.36,-280.48 213.95,-283.31"/>
</a>
</g>
<text text-anchor="middle" x="285.89" y="-265.25" font-family="Helvetica,sans-Serif" font-size="10.00" fill="grey"> nonlinear_solver_parameters</text>
</g>
</g>
</svg>
