<?xml version="1.0" encoding="UTF-8" standalone="no"?>
<!DOCTYPE svg PUBLIC "-//W3C//DTD SVG 1.1//EN"
 "http://www.w3.org/Graphics/SVG/1.1/DTD/svg11.dtd">
<!-- Generated by graphviz version 12.2.1 (20241206.2353)
 -->
<!-- Title: TeeStream Pages: 1 -->
<svg width="224pt" height="156pt"
 viewBox="0.00 0.00 223.50 156.00" xmlns="http://www.w3.org/2000/svg" xmlns:xlink="http://www.w3.org/1999/xlink">
<g id="graph0" class="graph" transform="scale(1 1) rotate(0) translate(4 152)">
<title>TeeStream</title>
<!-- Node1 -->
<g id="Node000001" class="node">
<title>Node1</title>
<g id="a_Node000001"><a xlink:title="Combined output streams so we can output to terminal and the summary.log with a single statement.">
<polygon fill="#999999" stroke="#666666" points="88.62,-20.75 20.88,-20.75 20.88,0 88.62,0 88.62,-20.75"/>
<text text-anchor="middle" x="54.75" y="-7.25" font-family="Helvetica,sans-Serif" font-size="10.00">TeeStream</text>
</a>
</g>
</g>
<!-- Node2 -->
<g id="Node000002" class="node">
<title>Node2</title>
<g id="a_Node000002"><a xlink:title=" ">
<polygon fill="white" stroke="#666666" points="77.5,-90.25 0,-90.25 0,-69.5 77.5,-69.5 77.5,-90.25"/>
<text text-anchor="middle" x="38.75" y="-76.75" font-family="Helvetica,sans-Serif" font-size="10.00">std::ostream</text>
</a>
</g>
</g>
<!-- Node2&#45;&gt;Node1 -->
<g id="edge1_Node000001_Node000002" class="edge">
<title>Node2&#45;&gt;Node1</title>
<g id="a_edge1_Node000001_Node000002"><a xlink:title=" ">
<path fill="none" stroke="#63b8ff" d="M43.68,-58.07C46.61,-45.72 50.18,-30.65 52.46,-21.03"/>
<polygon fill="#63b8ff" stroke="#63b8ff" points="40.29,-57.19 41.39,-67.73 47.1,-58.81 40.29,-57.19"/>
</a>
</g>
</g>
<!-- Node3 -->
<g id="Node000003" class="node">
<title>Node3</title>
<g id="a_Node000003"><a xlink:href="classTeeStream_1_1TeeBuffer.html" target="_top" xlink:title=" ">
<polygon fill="white" stroke="#666666" points="215.5,-90.25 96,-90.25 96,-69.5 215.5,-69.5 215.5,-90.25"/>
<text text-anchor="middle" x="155.75" y="-76.75" font-family="Helvetica,sans-Serif" font-size="10.00">TeeStream::TeeBuffer</text>
</a>
</g>
</g>
<!-- Node3&#45;&gt;Node1 -->
<g id="edge2_Node000001_Node000003" class="edge">
<title>Node3&#45;&gt;Node1</title>
<g id="a_edge2_Node000001_Node000003"><a xlink:title=" ">
<path fill="none" stroke="#9a32cd" stroke-dasharray="5,2" d="M131.92,-62.95C112.58,-50.02 85.91,-32.2 69.52,-21.25"/>
<polygon fill="#9a32cd" stroke="#9a32cd" points="129.76,-65.72 140.02,-68.36 133.65,-59.9 129.76,-65.72"/>
</a>
</g>
<text text-anchor="middle" x="140.55" y="-42" font-family="Helvetica,sans-Serif" font-size="10.00" fill="grey"> tee_buffer</text>
</g>
<!-- Node4 -->
<g id="Node000004" class="node">
<title>Node4</title>
<g id="a_Node000004"><a xlink:title=" ">
<polygon fill="white" stroke="#666666" points="199.38,-148 112.12,-148 112.12,-127.25 199.38,-127.25 199.38,-148"/>
<text text-anchor="middle" x="155.75" y="-134.5" font-family="Helvetica,sans-Serif" font-size="10.00">std::streambuf</text>
</a>
</g>
</g>
<!-- Node4&#45;&gt;Node3 -->
<g id="edge3_Node000003_Node000004" class="edge">
<title>Node4&#45;&gt;Node3</title>
<g id="a_edge3_Node000003_Node000004"><a xlink:title=" ">
<path fill="none" stroke="#63b8ff" d="M155.75,-115.68C155.75,-107.02 155.75,-97.4 155.75,-90.47"/>
<polygon fill="#63b8ff" stroke="#63b8ff" points="152.25,-115.4 155.75,-125.4 159.25,-115.4 152.25,-115.4"/>
</a>
</g>
</g>
</g>
</svg>
