<?xml version="1.0" encoding="UTF-8" standalone="no"?>
<!DOCTYPE svg PUBLIC "-//W3C//DTD SVG 1.1//EN"
 "http://www.w3.org/Graphics/SVG/1.1/DTD/svg11.dtd">
<!-- Generated by graphviz version 2.43.0 (0)
 -->
<!-- Title: LinearSolver&lt; dim, degree, number &gt; Pages: 1 -->
<svg width="304pt" height="181pt"
 viewBox="0.00 0.00 303.50 181.00" xmlns="http://www.w3.org/2000/svg" xmlns:xlink="http://www.w3.org/1999/xlink">
<g id="graph0" class="graph" transform="scale(1 1) rotate(0) translate(4 177)">
<title>LinearSolver&lt; dim, degree, number &gt;</title>
<!-- Node1 -->
<g id="Node000001" class="node">
<title>Node1</title>
<g id="a_Node000001"><a xlink:title="This class handles the explicit solves of all explicit fields.">
<polygon fill="#999999" stroke="#666666" points="205,-30 95,-30 95,0 205,0 205,-30"/>
<text text-anchor="start" x="103" y="-18" font-family="Helvetica,sans-Serif" font-size="10.00">LinearSolver&lt; dim,</text>
<text text-anchor="middle" x="150" y="-7" font-family="Helvetica,sans-Serif" font-size="10.00"> degree, number &gt;</text>
</a>
</g>
</g>
<!-- Node2 -->
<g id="Node000002" class="node">
<title>Node2</title>
<g id="a_Node000002"><a xlink:href="classSolverBase.html" target="_top" xlink:title=" ">
<polygon fill="white" stroke="#666666" points="144,-107 0,-107 0,-77 144,-77 144,-107"/>
<text text-anchor="start" x="8" y="-95" font-family="Helvetica,sans-Serif" font-size="10.00">SolverBase&lt; dim, degree,</text>
<text text-anchor="middle" x="72" y="-84" font-family="Helvetica,sans-Serif" font-size="10.00"> number &gt;</text>
</a>
</g>
</g>
<!-- Node2&#45;&gt;Node1 -->
<g id="edge1_Node000001_Node000002" class="edge">
<title>Node2&#45;&gt;Node1</title>
<g id="a_edge1_Node000001_Node000002"><a xlink:title=" ">
<path fill="none" stroke="#63b8ff" d="M94.03,-69.82C107.27,-57.08 123.76,-41.24 135.39,-30.04"/>
<polygon fill="#63b8ff" stroke="#63b8ff" points="91.45,-67.44 86.67,-76.89 96.31,-72.48 91.45,-67.44"/>
</a>
</g>
</g>
<!-- Node3 -->
<g id="Node000003" class="node">
<title>Node3</title>
<g id="a_Node000003"><a xlink:href="classSolveGroup.html" target="_top" xlink:title="Structure to hold the attributes of a solve&#45;group.">
<polygon fill="white" stroke="#666666" points="108.5,-173 35.5,-173 35.5,-154 108.5,-154 108.5,-173"/>
<text text-anchor="middle" x="72" y="-161" font-family="Helvetica,sans-Serif" font-size="10.00">SolveGroup</text>
</a>
</g>
</g>
<!-- Node3&#45;&gt;Node2 -->
<g id="edge2_Node000002_Node000003" class="edge">
<title>Node3&#45;&gt;Node2</title>
<g id="a_edge2_Node000002_Node000003"><a xlink:title=" ">
<path fill="none" stroke="#9a32cd" stroke-dasharray="5,2" d="M72,-143.71C72,-132.19 72,-117.68 72,-107.14"/>
<polygon fill="#9a32cd" stroke="#9a32cd" points="68.5,-143.98 72,-153.98 75.5,-143.98 68.5,-143.98"/>
</a>
</g>
<text text-anchor="middle" x="103.5" y="-128" font-family="Helvetica,sans-Serif" font-size="10.00" fill="grey"> solve_group</text>
</g>
<!-- Node4 -->
<g id="Node000004" class="node">
<title>Node4</title>
<g id="a_Node000004"><a xlink:href="structLinearSolverParameters.html" target="_top" xlink:title="Struct that stores relevant linear solve information of a certain field.">
<polygon fill="white" stroke="#666666" points="295.5,-101.5 162.5,-101.5 162.5,-82.5 295.5,-82.5 295.5,-101.5"/>
<text text-anchor="middle" x="229" y="-89.5" font-family="Helvetica,sans-Serif" font-size="10.00">LinearSolverParameters</text>
</a>
</g>
</g>
<!-- Node4&#45;&gt;Node1 -->
<g id="edge3_Node000001_Node000004" class="edge">
<title>Node4&#45;&gt;Node1</title>
<g id="a_edge3_Node000001_Node000004"><a xlink:title=" ">
<path fill="none" stroke="#9a32cd" stroke-dasharray="5,2" d="M212.44,-75.28C198.39,-61.94 178.41,-42.97 164.87,-30.11"/>
<polygon fill="#9a32cd" stroke="#9a32cd" points="210.28,-78.05 219.94,-82.4 215.1,-72.97 210.28,-78.05"/>
</a>
</g>
<text text-anchor="middle" x="224" y="-51" font-family="Helvetica,sans-Serif" font-size="10.00" fill="grey"> lin_params</text>
</g>
</g>
</svg>
