<?xml version="1.0" encoding="UTF-8" standalone="no"?>
<!DOCTYPE svg PUBLIC "-//W3C//DTD SVG 1.1//EN"
 "http://www.w3.org/Graphics/SVG/1.1/DTD/svg11.dtd">
<!-- Generated by graphviz version 12.2.1 (20241206.2353)
 -->
<!-- Title: NewtonSolver&lt; dim, degree, number &gt; Pages: 1 -->
<svg width="152pt" height="181pt"
 viewBox="0.00 0.00 151.50 180.50" xmlns="http://www.w3.org/2000/svg" xmlns:xlink="http://www.w3.org/1999/xlink">
<g id="graph0" class="graph" transform="scale(1 1) rotate(0) translate(4 176.5)">
<title>NewtonSolver&lt; dim, degree, number &gt;</title>
<!-- Node1 -->
<g id="Node000001" class="node">
<title>Node1</title>
<g id="a_Node000001"><a xlink:title="This class handles the explicit solves of all explicit fields.">
<polygon fill="#999999" stroke="#666666" points="130.38,-33.5 13.12,-33.5 13.12,0 130.38,0 130.38,-33.5"/>
<text text-anchor="start" x="21.12" y="-20" font-family="Helvetica,sans-Serif" font-size="10.00">NewtonSolver&lt; dim,</text>
<text text-anchor="middle" x="71.75" y="-7.25" font-family="Helvetica,sans-Serif" font-size="10.00"> degree, number &gt;</text>
</a>
</g>
</g>
<!-- Node2 -->
<g id="Node000002" class="node">
<title>Node2</title>
<g id="a_Node000002"><a xlink:href="classLinearSolver.html" target="_top" xlink:title="This class handles the explicit solves of all explicit fields.">
<polygon fill="white" stroke="#666666" points="126.62,-103 16.88,-103 16.88,-69.5 126.62,-69.5 126.62,-103"/>
<text text-anchor="start" x="24.88" y="-89.5" font-family="Helvetica,sans-Serif" font-size="10.00">LinearSolver&lt; dim,</text>
<text text-anchor="middle" x="71.75" y="-76.75" font-family="Helvetica,sans-Serif" font-size="10.00"> degree, number &gt;</text>
</a>
</g>
</g>
<!-- Node2&#45;&gt;Node1 -->
<g id="edge1_Node000001_Node000002" class="edge">
<title>Node2&#45;&gt;Node1</title>
<g id="a_edge1_Node000001_Node000002"><a xlink:title=" ">
<path fill="none" stroke="#63b8ff" d="M71.75,-57.81C71.75,-49.59 71.75,-40.84 71.75,-33.63"/>
<polygon fill="#63b8ff" stroke="#63b8ff" points="68.25,-57.74 71.75,-67.74 75.25,-57.74 68.25,-57.74"/>
</a>
</g>
</g>
<!-- Node3 -->
<g id="Node000003" class="node">
<title>Node3</title>
<g id="a_Node000003"><a xlink:href="classSolverBase.html" target="_top" xlink:title=" ">
<polygon fill="white" stroke="#666666" points="143.5,-172.5 0,-172.5 0,-139 143.5,-139 143.5,-172.5"/>
<text text-anchor="start" x="8" y="-159" font-family="Helvetica,sans-Serif" font-size="10.00">SolverBase&lt; dim, degree,</text>
<text text-anchor="middle" x="71.75" y="-146.25" font-family="Helvetica,sans-Serif" font-size="10.00"> number &gt;</text>
</a>
</g>
</g>
<!-- Node3&#45;&gt;Node2 -->
<g id="edge2_Node000002_Node000003" class="edge">
<title>Node3&#45;&gt;Node2</title>
<g id="a_edge2_Node000002_Node000003"><a xlink:title=" ">
<path fill="none" stroke="#63b8ff" d="M71.75,-127.31C71.75,-119.09 71.75,-110.34 71.75,-103.13"/>
<polygon fill="#63b8ff" stroke="#63b8ff" points="68.25,-127.24 71.75,-137.24 75.25,-127.24 68.25,-127.24"/>
</a>
</g>
</g>
</g>
</svg>
