<?xml version="1.0" encoding="UTF-8" standalone="no"?>
<!DOCTYPE svg PUBLIC "-//W3C//DTD SVG 1.1//EN"
 "http://www.w3.org/Graphics/SVG/1.1/DTD/svg11.dtd">
<!-- Generated by graphviz version 12.2.1 (20241206.2353)
 -->
<!-- Title: include/prismspf/core/constraint_manager.h Pages: 1 -->
<svg width="1180pt" height="863pt"
 viewBox="0.00 0.00 1179.92 862.75" xmlns="http://www.w3.org/2000/svg" xmlns:xlink="http://www.w3.org/1999/xlink">
<g id="graph0" class="graph" transform="scale(1 1) rotate(0) translate(4 858.75)">
<title>include/prismspf/core/constraint_manager.h</title>
<!-- Node1 -->
<g id="Node000001" class="node">
<title>Node1</title>
<g id="a_Node000001"><a xlink:title=" ">
<polygon fill="#999999" stroke="#666666" points="339,-854.75 214.25,-854.75 214.25,-821.25 339,-821.25 339,-854.75"/>
<text text-anchor="start" x="222.25" y="-841.25" font-family="Helvetica,sans-Serif" font-size="10.00">include/prismspf/core</text>
<text text-anchor="middle" x="276.62" y="-828.5" font-family="Helvetica,sans-Serif" font-size="10.00">/constraint_manager.h</text>
</a>
</g>
</g>
<!-- Node2 -->
<g id="Node000002" class="node">
<title>Node2</title>
<g id="a_Node000002"><a xlink:href="group__solution__handler_8h.html" target="_top" xlink:title=" ">
<polygon fill="white" stroke="#666666" points="824.25,-715.75 683,-715.75 683,-682.25 824.25,-682.25 824.25,-715.75"/>
<text text-anchor="start" x="691" y="-702.25" font-family="Helvetica,sans-Serif" font-size="10.00">include/prismspf/core</text>
<text text-anchor="middle" x="753.62" y="-689.5" font-family="Helvetica,sans-Serif" font-size="10.00">/group_solution_handler.h</text>
</a>
</g>
</g>
<!-- Node1&#45;&gt;Node2 -->
<g id="edge1_Node000001_Node000002" class="edge">
<title>Node1&#45;&gt;Node2</title>
<g id="a_edge1_Node000001_Node000002"><a xlink:title=" ">
<path fill="none" stroke="#63b8ff" d="M311.39,-814.65C324.57,-805.84 339.54,-795.41 352.62,-785.25 370.41,-771.44 370.18,-761.18 390.62,-751.75 441.21,-728.42 592.26,-712.81 682.79,-705.26"/>
<polygon fill="#63b8ff" stroke="#63b8ff" points="309.84,-811.48 303.43,-819.92 313.7,-817.32 309.84,-811.48"/>
</a>
</g>
</g>
<!-- Node14 -->
<g id="Node000014" class="node">
<title>Node14</title>
<g id="a_Node000014"><a xlink:href="solve__context_8h.html" target="_top" xlink:title=" ">
<polygon fill="white" stroke="#666666" points="334.25,-437.75 199,-437.75 199,-404.25 334.25,-404.25 334.25,-437.75"/>
<text text-anchor="start" x="207" y="-424.25" font-family="Helvetica,sans-Serif" font-size="10.00">include/prismspf/solvers</text>
<text text-anchor="middle" x="266.62" y="-411.5" font-family="Helvetica,sans-Serif" font-size="10.00">/solve_context.h</text>
</a>
</g>
</g>
<!-- Node1&#45;&gt;Node14 -->
<g id="edge63_Node000001_Node000014" class="edge">
<title>Node1&#45;&gt;Node14</title>
<g id="a_edge63_Node000001_Node000014"><a xlink:title=" ">
<path fill="none" stroke="#63b8ff" d="M221.85,-816.2C175.86,-794.75 117.62,-756.45 117.62,-700 117.62,-700 117.62,-700 117.62,-559 117.62,-499.61 182.56,-458.93 226.7,-438.14"/>
<polygon fill="#63b8ff" stroke="#63b8ff" points="220.4,-819.38 230.95,-820.28 223.26,-813 220.4,-819.38"/>
</a>
</g>
</g>
<!-- Node16 -->
<g id="Node000016" class="node">
<title>Node16</title>
<g id="a_Node000016"><a xlink:href="refinement__manager_8h.html" target="_top" xlink:title=" ">
<polygon fill="white" stroke="#666666" points="129.25,-298.75 0,-298.75 0,-265.25 129.25,-265.25 129.25,-298.75"/>
<text text-anchor="start" x="8" y="-285.25" font-family="Helvetica,sans-Serif" font-size="10.00">include/prismspf/core</text>
<text text-anchor="middle" x="64.62" y="-272.5" font-family="Helvetica,sans-Serif" font-size="10.00">/refinement_manager.h</text>
</a>
</g>
</g>
<!-- Node1&#45;&gt;Node16 -->
<g id="edge62_Node000001_Node000016" class="edge">
<title>Node1&#45;&gt;Node16</title>
<g id="a_edge62_Node000001_Node000016"><a xlink:title=" ">
<path fill="none" stroke="#63b8ff" d="M203.11,-825.72C134.18,-810.47 41.62,-775.87 41.62,-700 41.62,-700 41.62,-700 41.62,-420 41.62,-375.62 53.51,-324.26 60.19,-298.88"/>
<polygon fill="#63b8ff" stroke="#63b8ff" points="201.97,-829.05 212.48,-827.69 203.41,-822.2 201.97,-829.05"/>
</a>
</g>
</g>
<!-- Node28 -->
<g id="Node000028" class="node">
<title>Node28</title>
<g id="a_Node000028"><a xlink:href="matrix__free__manager_8h.html" target="_top" xlink:title=" ">
<polygon fill="white" stroke="#666666" points="343.12,-785.25 210.12,-785.25 210.12,-751.75 343.12,-751.75 343.12,-785.25"/>
<text text-anchor="start" x="218.12" y="-771.75" font-family="Helvetica,sans-Serif" font-size="10.00">include/prismspf/core</text>
<text text-anchor="middle" x="276.62" y="-759" font-family="Helvetica,sans-Serif" font-size="10.00">/matrix_free_manager.h</text>
</a>
</g>
</g>
<!-- Node1&#45;&gt;Node28 -->
<g id="edge54_Node000001_Node000028" class="edge">
<title>Node1&#45;&gt;Node28</title>
<g id="a_edge54_Node000001_Node000028"><a xlink:title=" ">
<path fill="none" stroke="#63b8ff" d="M276.62,-809.56C276.62,-801.34 276.62,-792.59 276.62,-785.38"/>
<polygon fill="#63b8ff" stroke="#63b8ff" points="273.13,-809.49 276.63,-819.49 280.13,-809.49 273.13,-809.49"/>
</a>
</g>
</g>
<!-- Node30 -->
<g id="Node000030" class="node">
<title>Node30</title>
<g id="a_Node000030"><a xlink:href="constraint__manager_8cc.html" target="_top" xlink:title=" ">
<polygon fill="white" stroke="#666666" points="505.62,-785.25 399.62,-785.25 399.62,-751.75 505.62,-751.75 505.62,-785.25"/>
<text text-anchor="start" x="407.62" y="-771.75" font-family="Helvetica,sans-Serif" font-size="10.00">src/core/constraint</text>
<text text-anchor="middle" x="452.62" y="-759" font-family="Helvetica,sans-Serif" font-size="10.00">_manager.cc</text>
</a>
</g>
</g>
<!-- Node1&#45;&gt;Node30 -->
<g id="edge64_Node000001_Node000030" class="edge">
<title>Node1&#45;&gt;Node30</title>
<g id="a_edge64_Node000001_Node000030"><a xlink:title=" ">
<path fill="none" stroke="#63b8ff" d="M329.21,-816.83C355.19,-806.87 386.11,-795.01 410.51,-785.65"/>
<polygon fill="#63b8ff" stroke="#63b8ff" points="328.28,-813.44 320.19,-820.29 330.78,-819.98 328.28,-813.44"/>
</a>
</g>
</g>
<!-- Node3 -->
<g id="Node000003" class="node">
<title>Node3</title>
<g id="a_Node000003"><a xlink:href="solution__indexer_8h.html" target="_top" xlink:title=" ">
<polygon fill="white" stroke="#666666" points="886.12,-646.25 765.12,-646.25 765.12,-612.75 886.12,-612.75 886.12,-646.25"/>
<text text-anchor="start" x="773.12" y="-632.75" font-family="Helvetica,sans-Serif" font-size="10.00">include/prismspf/core</text>
<text text-anchor="middle" x="825.62" y="-620" font-family="Helvetica,sans-Serif" font-size="10.00">/solution_indexer.h</text>
</a>
</g>
</g>
<!-- Node2&#45;&gt;Node3 -->
<g id="edge2_Node000002_Node000003" class="edge">
<title>Node2&#45;&gt;Node3</title>
<g id="a_edge2_Node000002_Node000003"><a xlink:title=" ">
<path fill="none" stroke="#63b8ff" d="M778.96,-674.25C788.81,-665.02 799.83,-654.69 808.68,-646.38"/>
<polygon fill="#63b8ff" stroke="#63b8ff" points="776.69,-671.58 771.79,-680.97 781.48,-676.68 776.69,-671.58"/>
</a>
</g>
</g>
<!-- Node6 -->
<g id="Node000006" class="node">
<title>Node6</title>
<g id="a_Node000006"><a xlink:href="mf__operator_8h.html" target="_top" xlink:title=" ">
<polygon fill="white" stroke="#666666" points="1002.25,-298.75 867,-298.75 867,-265.25 1002.25,-265.25 1002.25,-298.75"/>
<text text-anchor="start" x="875" y="-285.25" font-family="Helvetica,sans-Serif" font-size="10.00">include/prismspf/solvers</text>
<text text-anchor="middle" x="934.62" y="-272.5" font-family="Helvetica,sans-Serif" font-size="10.00">/mf_operator.h</text>
</a>
</g>
</g>
<!-- Node2&#45;&gt;Node6 -->
<g id="edge48_Node000002_Node000006" class="edge">
<title>Node2&#45;&gt;Node6</title>
<g id="a_edge48_Node000002_Node000006"><a xlink:title=" ">
<path fill="none" stroke="#63b8ff" d="M835.55,-680.98C857.15,-673.29 879.04,-662.19 895.62,-646.25 987.41,-558.04 960.97,-495.5 964.62,-368.25 965.05,-353.37 968.49,-349.13 964.62,-334.75 961.17,-321.91 953.67,-308.98 947.04,-299.25"/>
<polygon fill="#63b8ff" stroke="#63b8ff" points="834.47,-677.65 826.08,-684.12 836.68,-684.29 834.47,-677.65"/>
</a>
</g>
</g>
<!-- Node11 -->
<g id="Node000011" class="node">
<title>Node11</title>
<g id="a_Node000011"><a xlink:href="linear__solver_8h.html" target="_top" xlink:title=" ">
<polygon fill="white" stroke="#666666" points="810.25,-229.25 675,-229.25 675,-195.75 810.25,-195.75 810.25,-229.25"/>
<text text-anchor="start" x="683" y="-215.75" font-family="Helvetica,sans-Serif" font-size="10.00">include/prismspf/solvers</text>
<text text-anchor="middle" x="742.62" y="-203" font-family="Helvetica,sans-Serif" font-size="10.00">/linear_solver.h</text>
</a>
</g>
</g>
<!-- Node2&#45;&gt;Node11 -->
<g id="edge47_Node000002_Node000011" class="edge">
<title>Node2&#45;&gt;Node11</title>
<g id="a_edge47_Node000002_Node000011"><a xlink:title=" ">
<path fill="none" stroke="#63b8ff" d="M835.55,-680.98C857.15,-673.29 879.04,-662.19 895.62,-646.25 1023.25,-523.59 1124.35,-401.72 1011.62,-265.25 986.6,-234.95 881.8,-222.21 810.64,-216.98"/>
<polygon fill="#63b8ff" stroke="#63b8ff" points="834.47,-677.65 826.08,-684.12 836.68,-684.29 834.47,-677.65"/>
</a>
</g>
</g>
<!-- Node12 -->
<g id="Node000012" class="node">
<title>Node12</title>
<g id="a_Node000012"><a xlink:href="newton__solver_8h.html" target="_top" xlink:title=" ">
<polygon fill="white" stroke="#666666" points="906.25,-159.75 771,-159.75 771,-126.25 906.25,-126.25 906.25,-159.75"/>
<text text-anchor="start" x="779" y="-146.25" font-family="Helvetica,sans-Serif" font-size="10.00">include/prismspf/solvers</text>
<text text-anchor="middle" x="838.62" y="-133.5" font-family="Helvetica,sans-Serif" font-size="10.00">/newton_solver.h</text>
</a>
</g>
</g>
<!-- Node2&#45;&gt;Node12 -->
<g id="edge49_Node000002_Node000012" class="edge">
<title>Node2&#45;&gt;Node12</title>
<g id="a_edge49_Node000002_Node000012"><a xlink:title=" ">
<path fill="none" stroke="#63b8ff" d="M835.91,-695.11C899.61,-690.32 988.78,-677.94 1060.62,-646.25 1116.9,-621.43 1169.62,-622.5 1169.62,-561 1169.62,-561 1169.62,-561 1169.62,-281 1169.62,-242.18 1178.82,-222.43 1150.62,-195.75 1116.38,-163.34 987.65,-151.12 906.63,-146.59"/>
<polygon fill="#63b8ff" stroke="#63b8ff" points="835.97,-691.6 826.24,-695.79 836.46,-698.58 835.97,-691.6"/>
</a>
</g>
</g>
<!-- Node13 -->
<g id="Node000013" class="node">
<title>Node13</title>
<g id="a_Node000013"><a xlink:href="mf__operator_8cc.html" target="_top" xlink:title=" ">
<polygon fill="white" stroke="#666666" points="1141.75,-222.88 997.5,-222.88 997.5,-202.12 1141.75,-202.12 1141.75,-222.88"/>
<text text-anchor="middle" x="1069.62" y="-209.38" font-family="Helvetica,sans-Serif" font-size="10.00">src/solvers/mf_operator.cc</text>
</a>
</g>
</g>
<!-- Node2&#45;&gt;Node13 -->
<g id="edge53_Node000002_Node000013" class="edge">
<title>Node2&#45;&gt;Node13</title>
<g id="a_edge53_Node000002_Node000013"><a xlink:title=" ">
<path fill="none" stroke="#63b8ff" d="M835.91,-685.18C947.11,-665.49 1131.62,-623.42 1131.62,-561 1131.62,-561 1131.62,-561 1131.62,-350.5 1131.62,-298.55 1094.16,-244.58 1077.48,-223.12"/>
<polygon fill="#63b8ff" stroke="#63b8ff" points="835.47,-681.71 826.21,-686.87 836.67,-688.6 835.47,-681.71"/>
</a>
</g>
</g>
<!-- Node20 -->
<g id="Node000020" class="node">
<title>Node20</title>
<g id="a_Node000020"><a xlink:href="solver__base_8h.html" target="_top" xlink:title=" ">
<polygon fill="white" stroke="#666666" points="684.25,-368.25 549,-368.25 549,-334.75 684.25,-334.75 684.25,-368.25"/>
<text text-anchor="start" x="557" y="-354.75" font-family="Helvetica,sans-Serif" font-size="10.00">include/prismspf/solvers</text>
<text text-anchor="middle" x="616.62" y="-342" font-family="Helvetica,sans-Serif" font-size="10.00">/solver_base.h</text>
</a>
</g>
</g>
<!-- Node2&#45;&gt;Node20 -->
<g id="edge50_Node000002_Node000020" class="edge">
<title>Node2&#45;&gt;Node20</title>
<g id="a_edge50_Node000002_Node000020"><a xlink:title=" ">
<path fill="none" stroke="#63b8ff" d="M671.31,-689.71C593.84,-676.82 489.62,-644.05 489.62,-561 489.62,-561 489.62,-561 489.62,-489.5 489.62,-433.39 547.62,-390.55 585.23,-368.67"/>
<polygon fill="#63b8ff" stroke="#63b8ff" points="670.61,-693.14 681.04,-691.24 671.7,-686.23 670.61,-693.14"/>
</a>
</g>
</g>
<!-- Node26 -->
<g id="Node000026" class="node">
<title>Node26</title>
<g id="a_Node000026"><a xlink:href="solution__indexer_8cc.html" target="_top" xlink:title=" ">
<polygon fill="white" stroke="#666666" points="667.75,-570.38 517.5,-570.38 517.5,-549.62 667.75,-549.62 667.75,-570.38"/>
<text text-anchor="middle" x="592.62" y="-556.88" font-family="Helvetica,sans-Serif" font-size="10.00">src/core/solution_indexer.cc</text>
</a>
</g>
</g>
<!-- Node2&#45;&gt;Node26 -->
<g id="edge52_Node000002_Node000026" class="edge">
<title>Node2&#45;&gt;Node26</title>
<g id="a_edge52_Node000002_Node000026"><a xlink:title=" ">
<path fill="none" stroke="#63b8ff" d="M671.93,-684.82C648.43,-677.21 624.81,-665.2 608.62,-646.25 590.05,-624.49 590.23,-588.07 591.56,-570.74"/>
<polygon fill="#63b8ff" stroke="#63b8ff" points="670.66,-688.1 681.24,-687.59 672.65,-681.39 670.66,-688.1"/>
</a>
</g>
</g>
<!-- Node27 -->
<g id="Node000027" class="node">
<title>Node27</title>
<g id="a_Node000027"><a xlink:href="group__solution__handler_8cc.html" target="_top" xlink:title=" ">
<polygon fill="white" stroke="#666666" points="747.25,-646.25 618,-646.25 618,-612.75 747.25,-612.75 747.25,-646.25"/>
<text text-anchor="start" x="626" y="-632.75" font-family="Helvetica,sans-Serif" font-size="10.00">src/core/group_solution</text>
<text text-anchor="middle" x="682.62" y="-620" font-family="Helvetica,sans-Serif" font-size="10.00">_handler.cc</text>
</a>
</g>
</g>
<!-- Node2&#45;&gt;Node27 -->
<g id="edge51_Node000002_Node000027" class="edge">
<title>Node2&#45;&gt;Node27</title>
<g id="a_edge51_Node000002_Node000027"><a xlink:title=" ">
<path fill="none" stroke="#63b8ff" d="M728.64,-674.25C718.93,-665.02 708.06,-654.69 699.33,-646.38"/>
<polygon fill="#63b8ff" stroke="#63b8ff" points="726.04,-676.61 735.7,-680.96 730.87,-671.53 726.04,-676.61"/>
</a>
</g>
</g>
<!-- Node4 -->
<g id="Node000004" class="node">
<title>Node4</title>
<g id="a_Node000004"><a xlink:href="field__container_8h.html" target="_top" xlink:title=" ">
<polygon fill="white" stroke="#666666" points="886.12,-576.75 765.12,-576.75 765.12,-543.25 886.12,-543.25 886.12,-576.75"/>
<text text-anchor="start" x="773.12" y="-563.25" font-family="Helvetica,sans-Serif" font-size="10.00">include/prismspf/core</text>
<text text-anchor="middle" x="825.62" y="-550.5" font-family="Helvetica,sans-Serif" font-size="10.00">/field_container.h</text>
</a>
</g>
</g>
<!-- Node3&#45;&gt;Node4 -->
<g id="edge3_Node000003_Node000004" class="edge">
<title>Node3&#45;&gt;Node4</title>
<g id="a_edge3_Node000003_Node000004"><a xlink:title=" ">
<path fill="none" stroke="#63b8ff" d="M825.62,-601.06C825.62,-592.84 825.62,-584.09 825.62,-576.88"/>
<polygon fill="#63b8ff" stroke="#63b8ff" points="822.13,-600.99 825.63,-610.99 829.13,-600.99 822.13,-600.99"/>
</a>
</g>
</g>
<!-- Node3&#45;&gt;Node6 -->
<g id="edge44_Node000003_Node000006" class="edge">
<title>Node3&#45;&gt;Node6</title>
<g id="a_edge44_Node000003_Node000006"><a xlink:title=" ">
<path fill="none" stroke="#63b8ff" d="M864.61,-606.11C875.89,-598.07 887.38,-588.13 895.62,-576.75 951.78,-499.23 944.14,-463.82 949.62,-368.25 950.48,-353.39 951.72,-349.49 949.62,-334.75 947.89,-322.53 943.96,-309.15 940.55,-299.06"/>
<polygon fill="#63b8ff" stroke="#63b8ff" points="862.84,-603.08 856.5,-611.57 866.75,-608.89 862.84,-603.08"/>
</a>
</g>
</g>
<!-- Node3&#45;&gt;Node14 -->
<g id="edge45_Node000003_Node000014" class="edge">
<title>Node3&#45;&gt;Node14</title>
<g id="a_edge45_Node000003_Node000014"><a xlink:title=" ">
<path fill="none" stroke="#63b8ff" d="M777.52,-607.6C758.97,-598.88 737.86,-588.13 719.62,-576.75 699.07,-563.92 699.14,-552.18 676.62,-543.25 596.96,-511.65 359.05,-561.42 292.62,-507.25 272,-490.43 267.35,-457.73 266.52,-438.08"/>
<polygon fill="#63b8ff" stroke="#63b8ff" points="775.9,-610.71 786.45,-611.73 778.84,-604.36 775.9,-610.71"/>
</a>
</g>
</g>
<!-- Node17 -->
<g id="Node000017" class="node">
<title>Node17</title>
<g id="a_Node000017"><a xlink:href="solution__output_8h.html" target="_top" xlink:title=" ">
<polygon fill="white" stroke="#666666" points="474.12,-368.25 353.12,-368.25 353.12,-334.75 474.12,-334.75 474.12,-368.25"/>
<text text-anchor="start" x="361.12" y="-354.75" font-family="Helvetica,sans-Serif" font-size="10.00">include/prismspf/core</text>
<text text-anchor="middle" x="413.62" y="-342" font-family="Helvetica,sans-Serif" font-size="10.00">/solution_output.h</text>
</a>
</g>
</g>
<!-- Node3&#45;&gt;Node17 -->
<g id="edge43_Node000003_Node000017" class="edge">
<title>Node3&#45;&gt;Node17</title>
<g id="a_edge43_Node000003_Node000017"><a xlink:title=" ">
<path fill="none" stroke="#63b8ff" d="M795,-605.61C783.02,-596.63 769.16,-586.22 756.62,-576.75 737.02,-561.93 734.53,-554.41 712.62,-543.25 663.01,-517.98 641.43,-534.05 592.62,-507.25 522.77,-468.89 455.99,-399.8 427.74,-368.58"/>
<polygon fill="#63b8ff" stroke="#63b8ff" points="792.84,-608.36 802.94,-611.55 797.03,-602.75 792.84,-608.36"/>
</a>
</g>
</g>
<!-- Node3&#45;&gt;Node26 -->
<g id="edge46_Node000003_Node000026" class="edge">
<title>Node3&#45;&gt;Node26</title>
<g id="a_edge46_Node000003_Node000026"><a xlink:title=" ">
<path fill="none" stroke="#63b8ff" d="M758.81,-609.15C715.63,-596.64 661.25,-580.88 626.69,-570.87"/>
<polygon fill="#63b8ff" stroke="#63b8ff" points="757.78,-612.49 768.36,-611.91 759.73,-605.77 757.78,-612.49"/>
</a>
</g>
</g>
<!-- Node5 -->
<g id="Node000005" class="node">
<title>Node5</title>
<g id="a_Node000005"><a xlink:href="pde__operator__base_8h.html" target="_top" xlink:title=" ">
<polygon fill="white" stroke="#666666" points="722.12,-507.25 601.12,-507.25 601.12,-473.75 722.12,-473.75 722.12,-507.25"/>
<text text-anchor="start" x="609.12" y="-493.75" font-family="Helvetica,sans-Serif" font-size="10.00">include/prismspf/core</text>
<text text-anchor="middle" x="661.62" y="-481" font-family="Helvetica,sans-Serif" font-size="10.00">/pde_operator_base.h</text>
</a>
</g>
</g>
<!-- Node4&#45;&gt;Node5 -->
<g id="edge4_Node000004_Node000005" class="edge">
<title>Node4&#45;&gt;Node5</title>
<g id="a_edge4_Node000004_Node000005"><a xlink:title=" ">
<path fill="none" stroke="#63b8ff" d="M775.98,-538.57C751.91,-528.66 723.4,-516.93 700.87,-507.65"/>
<polygon fill="#63b8ff" stroke="#63b8ff" points="774.36,-541.69 784.94,-542.26 777.03,-535.21 774.36,-541.69"/>
</a>
</g>
</g>
<!-- Node4&#45;&gt;Node6 -->
<g id="edge40_Node000004_Node000006" class="edge">
<title>Node4&#45;&gt;Node6</title>
<g id="a_edge40_Node000004_Node000006"><a xlink:title=" ">
<path fill="none" stroke="#63b8ff" d="M865.54,-536.29C876.4,-528.37 887.2,-518.58 894.62,-507.25 938.63,-440.11 938,-338.44 935.85,-299.22"/>
<polygon fill="#63b8ff" stroke="#63b8ff" points="863.6,-533.37 857.32,-541.9 867.55,-539.15 863.6,-533.37"/>
</a>
</g>
</g>
<!-- Node4&#45;&gt;Node13 -->
<g id="edge42_Node000004_Node000013" class="edge">
<title>Node4&#45;&gt;Node13</title>
<g id="a_edge42_Node000004_Node000013"><a xlink:title=" ">
<path fill="none" stroke="#63b8ff" d="M872.34,-537.73C887.7,-529.48 904.25,-519.13 917.62,-507.25 1003.34,-431.06 1034.1,-407.79 1069.62,-298.75 1078.15,-272.58 1074.29,-239.43 1071.54,-223.27"/>
<polygon fill="#63b8ff" stroke="#63b8ff" points="871.08,-534.45 863.81,-542.15 874.3,-540.66 871.08,-534.45"/>
</a>
</g>
</g>
<!-- Node25 -->
<g id="Node000025" class="node">
<title>Node25</title>
<g id="a_Node000025"><a xlink:href="field__container_8cc.html" target="_top" xlink:title=" ">
<polygon fill="white" stroke="#666666" points="885.62,-500.88 743.62,-500.88 743.62,-480.12 885.62,-480.12 885.62,-500.88"/>
<text text-anchor="middle" x="814.62" y="-487.38" font-family="Helvetica,sans-Serif" font-size="10.00">src/core/field_container.cc</text>
</a>
</g>
</g>
<!-- Node4&#45;&gt;Node25 -->
<g id="edge41_Node000004_Node000025" class="edge">
<title>Node4&#45;&gt;Node25</title>
<g id="a_edge41_Node000004_Node000025"><a xlink:title=" ">
<path fill="none" stroke="#63b8ff" d="M821.21,-531.88C819.45,-521.08 817.53,-509.35 816.23,-501.32"/>
<polygon fill="#63b8ff" stroke="#63b8ff" points="817.71,-532.2 822.77,-541.51 824.62,-531.08 817.71,-532.2"/>
</a>
</g>
</g>
<!-- Node5&#45;&gt;Node6 -->
<g id="edge5_Node000005_Node000006" class="edge">
<title>Node5&#45;&gt;Node6</title>
<g id="a_edge5_Node000005_Node000006"><a xlink:title=" ">
<path fill="none" stroke="#63b8ff" d="M733.25,-473.75C797.36,-459.52 881.73,-440.41 884.62,-437.75 905.41,-418.65 924.24,-334.94 931.48,-299.23"/>
<polygon fill="#63b8ff" stroke="#63b8ff" points="732.83,-470.26 723.82,-475.84 734.34,-477.09 732.83,-470.26"/>
</a>
</g>
</g>
<!-- Node5&#45;&gt;Node14 -->
<g id="edge16_Node000005_Node000014" class="edge">
<title>Node5&#45;&gt;Node14</title>
<g id="a_edge16_Node000005_Node000014"><a xlink:title=" ">
<path fill="none" stroke="#63b8ff" d="M589.45,-477.17C516.8,-464.75 405.59,-445.75 334.51,-433.6"/>
<polygon fill="#63b8ff" stroke="#63b8ff" points="588.83,-480.61 599.28,-478.85 590.01,-473.71 588.83,-480.61"/>
</a>
</g>
</g>
<!-- Node5&#45;&gt;Node20 -->
<g id="edge37_Node000005_Node000020" class="edge">
<title>Node5&#45;&gt;Node20</title>
<g id="a_edge37_Node000005_Node000020"><a xlink:title=" ">
<path fill="none" stroke="#63b8ff" d="M613.45,-467.5C601.95,-459.81 591.13,-449.97 584.62,-437.75 572.36,-414.73 589.2,-385.97 602.72,-368.43"/>
<polygon fill="#63b8ff" stroke="#63b8ff" points="611.54,-470.44 621.9,-472.67 615.19,-464.47 611.54,-470.44"/>
</a>
</g>
</g>
<!-- Node23 -->
<g id="Node000023" class="node">
<title>Node23</title>
<g id="a_Node000023"><a xlink:href="dirichlet_8cc.html" target="_top" xlink:title=" ">
<polygon fill="white" stroke="#666666" points="703.88,-431.38 593.38,-431.38 593.38,-410.62 703.88,-410.62 703.88,-431.38"/>
<text text-anchor="middle" x="648.62" y="-417.88" font-family="Helvetica,sans-Serif" font-size="10.00">src/core/dirichlet.cc</text>
</a>
</g>
</g>
<!-- Node5&#45;&gt;Node23 -->
<g id="edge38_Node000005_Node000023" class="edge">
<title>Node5&#45;&gt;Node23</title>
<g id="a_edge38_Node000005_Node000023"><a xlink:title=" ">
<path fill="none" stroke="#63b8ff" d="M656.4,-462.38C654.32,-451.58 652.06,-439.85 650.52,-431.82"/>
<polygon fill="#63b8ff" stroke="#63b8ff" points="652.93,-462.86 658.26,-472.02 659.8,-461.54 652.93,-462.86"/>
</a>
</g>
</g>
<!-- Node24 -->
<g id="Node000024" class="node">
<title>Node24</title>
<g id="a_Node000024"><a xlink:href="initial__conditions_8cc.html" target="_top" xlink:title=" ">
<polygon fill="white" stroke="#666666" points="875.62,-431.38 721.62,-431.38 721.62,-410.62 875.62,-410.62 875.62,-431.38"/>
<text text-anchor="middle" x="798.62" y="-417.88" font-family="Helvetica,sans-Serif" font-size="10.00">src/core/initial_conditions.cc</text>
</a>
</g>
</g>
<!-- Node5&#45;&gt;Node24 -->
<g id="edge39_Node000005_Node000024" class="edge">
<title>Node5&#45;&gt;Node24</title>
<g id="a_edge39_Node000005_Node000024"><a xlink:title=" ">
<path fill="none" stroke="#63b8ff" d="M704.7,-468.27C729.5,-456.06 759.48,-441.28 778.79,-431.77"/>
<polygon fill="#63b8ff" stroke="#63b8ff" points="703.22,-465.1 695.8,-472.66 706.31,-471.38 703.22,-465.1"/>
</a>
</g>
</g>
<!-- Node7 -->
<g id="Node000007" class="node">
<title>Node7</title>
<g id="a_Node000007"><a xlink:href="explicit__solver_8h.html" target="_top" xlink:title=" ">
<polygon fill="white" stroke="#666666" points="657.25,-229.25 522,-229.25 522,-195.75 657.25,-195.75 657.25,-229.25"/>
<text text-anchor="start" x="530" y="-215.75" font-family="Helvetica,sans-Serif" font-size="10.00">include/prismspf/solvers</text>
<text text-anchor="middle" x="589.62" y="-203" font-family="Helvetica,sans-Serif" font-size="10.00">/explicit_solver.h</text>
</a>
</g>
</g>
<!-- Node6&#45;&gt;Node7 -->
<g id="edge6_Node000006_Node000007" class="edge">
<title>Node6&#45;&gt;Node7</title>
<g id="a_edge6_Node000006_Node000007"><a xlink:title=" ">
<path fill="none" stroke="#63b8ff" d="M855.44,-266.07C801.82,-255.89 729.41,-241.99 665.62,-229.25 662.98,-228.72 660.29,-228.18 657.57,-227.63"/>
<polygon fill="#63b8ff" stroke="#63b8ff" points="854.62,-269.48 865.09,-267.91 855.92,-262.6 854.62,-269.48"/>
</a>
</g>
</g>
<!-- Node6&#45;&gt;Node11 -->
<g id="edge10_Node000006_Node000011" class="edge">
<title>Node6&#45;&gt;Node11</title>
<g id="a_edge10_Node000006_Node000011"><a xlink:title=" ">
<path fill="none" stroke="#63b8ff" d="M878.02,-261.1C849.52,-251.08 815.42,-239.09 788.57,-229.65"/>
<polygon fill="#63b8ff" stroke="#63b8ff" points="876.61,-264.32 887.21,-264.33 878.94,-257.71 876.61,-264.32"/>
</a>
</g>
</g>
<!-- Node6&#45;&gt;Node12 -->
<g id="edge14_Node000006_Node000012" class="edge">
<title>Node6&#45;&gt;Node12</title>
<g id="a_edge14_Node000006_Node000012"><a xlink:title=" ">
<path fill="none" stroke="#63b8ff" d="M917.01,-255.86C897.38,-227.85 866.26,-183.44 849.75,-159.88"/>
<polygon fill="#63b8ff" stroke="#63b8ff" points="913.95,-257.6 922.56,-263.78 919.68,-253.58 913.95,-257.6"/>
</a>
</g>
</g>
<!-- Node6&#45;&gt;Node13 -->
<g id="edge15_Node000006_Node000013" class="edge">
<title>Node6&#45;&gt;Node13</title>
<g id="a_edge15_Node000006_Node000013"><a xlink:title=" ">
<path fill="none" stroke="#63b8ff" d="M977.08,-259.77C1001.51,-247.56 1031.06,-232.78 1050.08,-223.27"/>
<polygon fill="#63b8ff" stroke="#63b8ff" points="975.69,-256.55 968.31,-264.16 978.82,-262.81 975.69,-256.55"/>
</a>
</g>
</g>
<!-- Node8 -->
<g id="Node000008" class="node">
<title>Node8</title>
<g id="a_Node000008"><a xlink:href="solvers_8h.html" target="_top" xlink:title=" ">
<polygon fill="white" stroke="#666666" points="715.25,-90.25 580,-90.25 580,-56.75 715.25,-56.75 715.25,-90.25"/>
<text text-anchor="start" x="588" y="-76.75" font-family="Helvetica,sans-Serif" font-size="10.00">include/prismspf/solvers</text>
<text text-anchor="middle" x="647.62" y="-64" font-family="Helvetica,sans-Serif" font-size="10.00">/solvers.h</text>
</a>
</g>
</g>
<!-- Node7&#45;&gt;Node8 -->
<g id="edge7_Node000007_Node000008" class="edge">
<title>Node7&#45;&gt;Node8</title>
<g id="a_edge7_Node000007_Node000008"><a xlink:title=" ">
<path fill="none" stroke="#63b8ff" d="M611.79,-186.57C618.03,-178.47 624.29,-169.15 628.62,-159.75 639.11,-137.03 643.97,-108.19 646.11,-90.55"/>
<polygon fill="#63b8ff" stroke="#63b8ff" points="609.14,-184.29 605.55,-194.26 614.57,-188.7 609.14,-184.29"/>
</a>
</g>
</g>
<!-- Node9 -->
<g id="Node000009" class="node">
<title>Node9</title>
<g id="a_Node000009"><a xlink:href="problem_8cc.html" target="_top" xlink:title=" ">
<polygon fill="white" stroke="#666666" points="410.25,-20.75 299,-20.75 299,0 410.25,0 410.25,-20.75"/>
<text text-anchor="middle" x="354.62" y="-7.25" font-family="Helvetica,sans-Serif" font-size="10.00">src/core/problem.cc</text>
</a>
</g>
</g>
<!-- Node8&#45;&gt;Node9 -->
<g id="edge8_Node000008_Node000009" class="edge">
<title>Node8&#45;&gt;Node9</title>
<g id="a_edge8_Node000008_Node000009"><a xlink:title=" ">
<path fill="none" stroke="#63b8ff" d="M568.53,-56C515.19,-44.87 446.6,-30.56 401.66,-21.19"/>
<polygon fill="#63b8ff" stroke="#63b8ff" points="567.68,-59.4 578.19,-58.01 569.11,-52.55 567.68,-59.4"/>
</a>
</g>
</g>
<!-- Node10 -->
<g id="Node000010" class="node">
<title>Node10</title>
<g id="a_Node000010"><a xlink:href="solvers_8cc.html" target="_top" xlink:title=" ">
<polygon fill="white" stroke="#666666" points="707.75,-20.75 587.5,-20.75 587.5,0 707.75,0 707.75,-20.75"/>
<text text-anchor="middle" x="647.62" y="-7.25" font-family="Helvetica,sans-Serif" font-size="10.00">src/solvers/solvers.cc</text>
</a>
</g>
</g>
<!-- Node8&#45;&gt;Node10 -->
<g id="edge9_Node000008_Node000010" class="edge">
<title>Node8&#45;&gt;Node10</title>
<g id="a_edge9_Node000008_Node000010"><a xlink:title=" ">
<path fill="none" stroke="#63b8ff" d="M647.62,-44.94C647.62,-36.46 647.62,-27.67 647.62,-21.22"/>
<polygon fill="#63b8ff" stroke="#63b8ff" points="644.13,-44.93 647.63,-54.93 651.13,-44.93 644.13,-44.93"/>
</a>
</g>
</g>
<!-- Node11&#45;&gt;Node8 -->
<g id="edge13_Node000011_Node000008" class="edge">
<title>Node11&#45;&gt;Node8</title>
<g id="a_edge13_Node000011_Node000008"><a xlink:title=" ">
<path fill="none" stroke="#63b8ff" d="M725.19,-186.36C705.77,-158.35 674.97,-113.94 658.64,-90.38"/>
<polygon fill="#63b8ff" stroke="#63b8ff" points="722.1,-188.05 730.68,-194.27 727.86,-184.06 722.1,-188.05"/>
</a>
</g>
</g>
<!-- Node11&#45;&gt;Node12 -->
<g id="edge11_Node000011_Node000012" class="edge">
<title>Node11&#45;&gt;Node12</title>
<g id="a_edge11_Node000011_Node000012"><a xlink:title=" ">
<path fill="none" stroke="#63b8ff" d="M774.75,-188.91C788.17,-179.48 803.45,-168.73 815.7,-160.12"/>
<polygon fill="#63b8ff" stroke="#63b8ff" points="772.78,-186.02 766.61,-194.63 776.81,-191.74 772.78,-186.02"/>
</a>
</g>
</g>
<!-- Node12&#45;&gt;Node8 -->
<g id="edge12_Node000012_Node000008" class="edge">
<title>Node12&#45;&gt;Node8</title>
<g id="a_edge12_Node000012_Node000008"><a xlink:title=" ">
<path fill="none" stroke="#63b8ff" d="M782.31,-122.1C753.96,-112.08 720.04,-100.09 693.33,-90.65"/>
<polygon fill="#63b8ff" stroke="#63b8ff" points="780.85,-125.3 791.45,-125.33 783.19,-118.7 780.85,-125.3"/>
</a>
</g>
</g>
<!-- Node15 -->
<g id="Node000015" class="node">
<title>Node15</title>
<g id="a_Node000015"><a xlink:href="problem_8h.html" target="_top" xlink:title=" ">
<polygon fill="white" stroke="#666666" points="221.12,-229.25 100.12,-229.25 100.12,-195.75 221.12,-195.75 221.12,-229.25"/>
<text text-anchor="start" x="108.12" y="-215.75" font-family="Helvetica,sans-Serif" font-size="10.00">include/prismspf/core</text>
<text text-anchor="middle" x="160.62" y="-203" font-family="Helvetica,sans-Serif" font-size="10.00">/problem.h</text>
</a>
</g>
</g>
<!-- Node14&#45;&gt;Node15 -->
<g id="edge17_Node000014_Node000015" class="edge">
<title>Node14&#45;&gt;Node15</title>
<g id="a_edge17_Node000014_Node000015"><a xlink:title=" ">
<path fill="none" stroke="#63b8ff" d="M208.63,-398.5C195.43,-390.92 182.88,-381 174.62,-368.25 146.49,-324.77 152.68,-259.46 157.54,-229.53"/>
<polygon fill="#63b8ff" stroke="#63b8ff" points="206.97,-401.59 217.45,-403.15 210.23,-395.39 206.97,-401.59"/>
</a>
</g>
</g>
<!-- Node14&#45;&gt;Node16 -->
<g id="edge19_Node000014_Node000016" class="edge">
<title>Node14&#45;&gt;Node16</title>
<g id="a_edge19_Node000014_Node000016"><a xlink:title=" ">
<path fill="none" stroke="#63b8ff" d="M202.64,-399.81C182.14,-391.73 160.01,-381.22 141.62,-368.25 114.08,-348.82 89.35,-317.89 75.72,-299.11"/>
<polygon fill="#63b8ff" stroke="#63b8ff" points="201.17,-402.99 211.77,-403.27 203.66,-396.45 201.17,-402.99"/>
</a>
</g>
</g>
<!-- Node14&#45;&gt;Node17 -->
<g id="edge21_Node000014_Node000017" class="edge">
<title>Node14&#45;&gt;Node17</title>
<g id="a_edge21_Node000014_Node000017"><a xlink:title=" ">
<path fill="none" stroke="#63b8ff" d="M312.29,-399.03C333.62,-389.24 358.62,-377.76 378.45,-368.65"/>
<polygon fill="#63b8ff" stroke="#63b8ff" points="310.84,-395.85 303.21,-403.2 313.76,-402.21 310.84,-395.85"/>
</a>
</g>
</g>
<!-- Node19 -->
<g id="Node000019" class="node">
<title>Node19</title>
<g id="a_Node000019"><a xlink:href="nucleation__manager_8h.html" target="_top" xlink:title=" ">
<polygon fill="white" stroke="#666666" points="335.12,-368.25 184.12,-368.25 184.12,-334.75 335.12,-334.75 335.12,-368.25"/>
<text text-anchor="start" x="192.12" y="-354.75" font-family="Helvetica,sans-Serif" font-size="10.00">include/prismspf/nucleation</text>
<text text-anchor="middle" x="259.62" y="-342" font-family="Helvetica,sans-Serif" font-size="10.00">/nucleation_manager.h</text>
</a>
</g>
</g>
<!-- Node14&#45;&gt;Node19 -->
<g id="edge25_Node000014_Node000019" class="edge">
<title>Node14&#45;&gt;Node19</title>
<g id="a_edge25_Node000014_Node000019"><a xlink:title=" ">
<path fill="none" stroke="#63b8ff" d="M263.78,-392.56C262.93,-384.34 262.02,-375.59 261.27,-368.38"/>
<polygon fill="#63b8ff" stroke="#63b8ff" points="260.3,-392.91 264.81,-402.5 267.26,-392.19 260.3,-392.91"/>
</a>
</g>
</g>
<!-- Node14&#45;&gt;Node20 -->
<g id="edge27_Node000014_Node000020" class="edge">
<title>Node14&#45;&gt;Node20</title>
<g id="a_edge27_Node000014_Node000020"><a xlink:title=" ">
<path fill="none" stroke="#63b8ff" d="M345.66,-404.76C406.77,-392.97 490.48,-376.83 548.62,-365.62"/>
<polygon fill="#63b8ff" stroke="#63b8ff" points="345.17,-401.29 336.01,-406.62 346.49,-408.16 345.17,-401.29"/>
</a>
</g>
</g>
<!-- Node15&#45;&gt;Node9 -->
<g id="edge18_Node000015_Node000009" class="edge">
<title>Node15&#45;&gt;Node9</title>
<g id="a_edge18_Node000015_Node000009"><a xlink:title=" ">
<path fill="none" stroke="#63b8ff" d="M167.87,-184.63C178.36,-150.53 200.87,-91.94 239.62,-56.75 259.01,-39.15 286.04,-28.02 309.02,-21.19"/>
<polygon fill="#63b8ff" stroke="#63b8ff" points="164.54,-183.56 165.08,-194.14 171.26,-185.53 164.54,-183.56"/>
</a>
</g>
</g>
<!-- Node16&#45;&gt;Node15 -->
<g id="edge20_Node000016_Node000015" class="edge">
<title>Node16&#45;&gt;Node15</title>
<g id="a_edge20_Node000016_Node000015"><a xlink:title=" ">
<path fill="none" stroke="#63b8ff" d="M96.75,-258.41C110.17,-248.98 125.45,-238.23 137.7,-229.62"/>
<polygon fill="#63b8ff" stroke="#63b8ff" points="94.78,-255.52 88.61,-264.13 98.81,-261.24 94.78,-255.52"/>
</a>
</g>
</g>
<!-- Node17&#45;&gt;Node9 -->
<g id="edge23_Node000017_Node000009" class="edge">
<title>Node17&#45;&gt;Node9</title>
<g id="a_edge23_Node000017_Node000009"><a xlink:title=" ">
<path fill="none" stroke="#63b8ff" d="M342.01,-331.15C312.36,-321.78 282.57,-310.11 272.62,-298.75 247.05,-269.54 253.62,-252.32 253.62,-213.5 253.62,-213.5 253.62,-213.5 253.62,-142 253.62,-86.67 311.03,-40.53 339.29,-21.16"/>
<polygon fill="#63b8ff" stroke="#63b8ff" points="340.86,-334.46 351.44,-334.05 342.92,-327.77 340.86,-334.46"/>
</a>
</g>
</g>
<!-- Node17&#45;&gt;Node17 -->
<g id="edge22_Node000017_Node000017" class="edge">
<title>Node17&#45;&gt;Node17</title>
<g id="a_edge22_Node000017_Node000017"><a xlink:title=" ">
<path fill="none" stroke="#63b8ff" d="M485.34,-360.45C489.58,-358.31 492.12,-355.33 492.12,-351.5 492.12,-345.05 484.92,-341 474.52,-339.33"/>
<polygon fill="#63b8ff" stroke="#63b8ff" points="484.56,-357.04 475.97,-363.23 486.55,-363.75 484.56,-357.04"/>
</a>
</g>
</g>
<!-- Node18 -->
<g id="Node000018" class="node">
<title>Node18</title>
<g id="a_Node000018"><a xlink:href="solution__output_8cc.html" target="_top" xlink:title=" ">
<polygon fill="white" stroke="#666666" points="427.88,-292.38 281.38,-292.38 281.38,-271.62 427.88,-271.62 427.88,-292.38"/>
<text text-anchor="middle" x="354.62" y="-278.88" font-family="Helvetica,sans-Serif" font-size="10.00">src/core/solution_output.cc</text>
</a>
</g>
</g>
<!-- Node17&#45;&gt;Node18 -->
<g id="edge24_Node000017_Node000018" class="edge">
<title>Node17&#45;&gt;Node18</title>
<g id="a_edge24_Node000017_Node000018"><a xlink:title=" ">
<path fill="none" stroke="#63b8ff" d="M392.31,-326.11C382.25,-314.61 370.82,-301.53 363.21,-292.82"/>
<polygon fill="#63b8ff" stroke="#63b8ff" points="389.43,-328.14 398.65,-333.36 394.7,-323.53 389.43,-328.14"/>
</a>
</g>
</g>
<!-- Node19&#45;&gt;Node15 -->
<g id="edge26_Node000019_Node000015" class="edge">
<title>Node19&#45;&gt;Node15</title>
<g id="a_edge26_Node000019_Node000015"><a xlink:title=" ">
<path fill="none" stroke="#63b8ff" d="M241.46,-325.36C221.22,-297.35 189.12,-252.94 172.1,-229.38"/>
<polygon fill="#63b8ff" stroke="#63b8ff" points="238.49,-327.23 247.19,-333.29 244.17,-323.13 238.49,-327.23"/>
</a>
</g>
</g>
<!-- Node20&#45;&gt;Node6 -->
<g id="edge33_Node000020_Node000006" class="edge">
<title>Node20&#45;&gt;Node6</title>
<g id="a_edge33_Node000020_Node000006"><a xlink:title=" ">
<path fill="none" stroke="#63b8ff" d="M695.42,-333.77C748,-322.61 816.43,-308.09 866.63,-297.43"/>
<polygon fill="#63b8ff" stroke="#63b8ff" points="694.99,-330.29 685.93,-335.79 696.44,-337.14 694.99,-330.29"/>
</a>
</g>
</g>
<!-- Node20&#45;&gt;Node7 -->
<g id="edge31_Node000020_Node000007" class="edge">
<title>Node20&#45;&gt;Node7</title>
<g id="a_edge31_Node000020_Node000007"><a xlink:title=" ">
<path fill="none" stroke="#63b8ff" d="M611.3,-323.5C605.77,-295.42 597.3,-252.42 592.76,-229.38"/>
<polygon fill="#63b8ff" stroke="#63b8ff" points="607.81,-323.9 613.18,-333.03 614.68,-322.54 607.81,-323.9"/>
</a>
</g>
</g>
<!-- Node20&#45;&gt;Node9 -->
<g id="edge35_Node000020_Node000009" class="edge">
<title>Node20&#45;&gt;Node9</title>
<g id="a_edge35_Node000020_Node000009"><a xlink:title=" ">
<path fill="none" stroke="#63b8ff" d="M561.03,-329.83C514.49,-308.51 455.62,-270.31 455.62,-213.5 455.62,-213.5 455.62,-213.5 455.62,-142 455.62,-86.67 398.22,-40.53 369.96,-21.16"/>
<polygon fill="#63b8ff" stroke="#63b8ff" points="559.4,-332.94 569.96,-333.77 562.23,-326.53 559.4,-332.94"/>
</a>
</g>
</g>
<!-- Node20&#45;&gt;Node11 -->
<g id="edge32_Node000020_Node000011" class="edge">
<title>Node20&#45;&gt;Node11</title>
<g id="a_edge32_Node000020_Node000011"><a xlink:title=" ">
<path fill="none" stroke="#63b8ff" d="M620.98,-323.02C625.03,-304.91 632.64,-281.61 646.62,-265.25 660.04,-249.56 679.43,-237.85 697.28,-229.58"/>
<polygon fill="#63b8ff" stroke="#63b8ff" points="617.54,-322.33 619.04,-332.82 624.41,-323.69 617.54,-322.33"/>
</a>
</g>
</g>
<!-- Node20&#45;&gt;Node12 -->
<g id="edge34_Node000020_Node000012" class="edge">
<title>Node20&#45;&gt;Node12</title>
<g id="a_edge34_Node000020_Node000012"><a xlink:title=" ">
<path fill="none" stroke="#63b8ff" d="M695.19,-332.91C719.56,-325.04 745.52,-314 766.62,-298.75 798.11,-276 803.24,-264.47 819.62,-229.25 830.18,-206.56 835.02,-177.71 837.13,-160.06"/>
<polygon fill="#63b8ff" stroke="#63b8ff" points="694.48,-329.46 685.95,-335.75 696.54,-336.16 694.48,-329.46"/>
</a>
</g>
</g>
<!-- Node20&#45;&gt;Node16 -->
<g id="edge28_Node000020_Node000016" class="edge">
<title>Node20&#45;&gt;Node16</title>
<g id="a_edge28_Node000020_Node000016"><a xlink:title=" ">
<path fill="none" stroke="#63b8ff" d="M537.21,-339.43C525.29,-337.83 513.14,-336.22 501.62,-334.75 369.57,-317.89 214.82,-300.01 129.46,-290.3"/>
<polygon fill="#63b8ff" stroke="#63b8ff" points="536.67,-342.89 547.05,-340.76 537.61,-335.95 536.67,-342.89"/>
</a>
</g>
</g>
<!-- Node21 -->
<g id="Node000021" class="node">
<title>Node21</title>
<g id="a_Node000021"><a xlink:href="constant__solver_8h.html" target="_top" xlink:title=" ">
<polygon fill="white" stroke="#666666" points="619.25,-159.75 484,-159.75 484,-126.25 619.25,-126.25 619.25,-159.75"/>
<text text-anchor="start" x="492" y="-146.25" font-family="Helvetica,sans-Serif" font-size="10.00">include/prismspf/solvers</text>
<text text-anchor="middle" x="551.62" y="-133.5" font-family="Helvetica,sans-Serif" font-size="10.00">/constant_solver.h</text>
</a>
</g>
</g>
<!-- Node20&#45;&gt;Node21 -->
<g id="edge29_Node000020_Node000021" class="edge">
<title>Node20&#45;&gt;Node21</title>
<g id="a_edge29_Node000020_Node000021"><a xlink:title=" ">
<path fill="none" stroke="#63b8ff" d="M587.24,-327.11C562.01,-304.98 527.44,-269.27 512.62,-229.25 507.46,-215.29 507.9,-209.87 512.62,-195.75 517.12,-182.31 526.64,-169.56 535.15,-160.08"/>
<polygon fill="#63b8ff" stroke="#63b8ff" points="584.7,-329.54 594.58,-333.37 589.24,-324.22 584.7,-329.54"/>
</a>
</g>
</g>
<!-- Node22 -->
<g id="Node000022" class="node">
<title>Node22</title>
<g id="a_Node000022"><a xlink:href="solver__base_8cc.html" target="_top" xlink:title=" ">
<polygon fill="white" stroke="#666666" points="757.38,-298.75 655.88,-298.75 655.88,-265.25 757.38,-265.25 757.38,-298.75"/>
<text text-anchor="start" x="663.88" y="-285.25" font-family="Helvetica,sans-Serif" font-size="10.00">src/solvers/solver</text>
<text text-anchor="middle" x="706.62" y="-272.5" font-family="Helvetica,sans-Serif" font-size="10.00">_base.cc</text>
</a>
</g>
</g>
<!-- Node20&#45;&gt;Node22 -->
<g id="edge36_Node000020_Node000022" class="edge">
<title>Node20&#45;&gt;Node22</title>
<g id="a_edge36_Node000020_Node000022"><a xlink:title=" ">
<path fill="none" stroke="#63b8ff" d="M647.11,-327.64C659.6,-318.27 673.76,-307.65 685.14,-299.12"/>
<polygon fill="#63b8ff" stroke="#63b8ff" points="645.06,-324.8 639.16,-333.6 649.26,-330.4 645.06,-324.8"/>
</a>
</g>
</g>
<!-- Node21&#45;&gt;Node8 -->
<g id="edge30_Node000021_Node000008" class="edge">
<title>Node21&#45;&gt;Node8</title>
<g id="a_edge30_Node000021_Node000008"><a xlink:title=" ">
<path fill="none" stroke="#63b8ff" d="M583.75,-119.41C597.17,-109.98 612.45,-99.23 624.7,-90.62"/>
<polygon fill="#63b8ff" stroke="#63b8ff" points="581.78,-116.52 575.61,-125.13 585.81,-122.24 581.78,-116.52"/>
</a>
</g>
</g>
<!-- Node28&#45;&gt;Node2 -->
<g id="edge55_Node000028_Node000002" class="edge">
<title>Node28&#45;&gt;Node2</title>
<g id="a_edge55_Node000028_Node000002"><a xlink:title=" ">
<path fill="none" stroke="#63b8ff" d="M354.54,-752.26C355.58,-752.08 356.6,-751.92 357.62,-751.75 470.89,-733.36 603.21,-717.12 682.61,-707.93"/>
<polygon fill="#63b8ff" stroke="#63b8ff" points="354.06,-748.79 344.8,-753.94 355.25,-755.69 354.06,-748.79"/>
</a>
</g>
</g>
<!-- Node28&#45;&gt;Node6 -->
<g id="edge60_Node000028_Node000006" class="edge">
<title>Node28&#45;&gt;Node6</title>
<g id="a_edge60_Node000028_Node000006"><a xlink:title=" ">
<path fill="none" stroke="#63b8ff" d="M295.11,-742.32C349.92,-668.22 512.29,-453.02 584.62,-404.25 626.93,-375.73 645.35,-384.76 693.62,-368.25 762.28,-344.77 841.55,-316.51 889.86,-299.15"/>
<polygon fill="#63b8ff" stroke="#63b8ff" points="292.41,-740.08 289.29,-750.2 298.04,-744.24 292.41,-740.08"/>
</a>
</g>
</g>
<!-- Node28&#45;&gt;Node14 -->
<g id="edge61_Node000028_Node000014" class="edge">
<title>Node28&#45;&gt;Node14</title>
<g id="a_edge61_Node000028_Node000014"><a xlink:title=" ">
<path fill="none" stroke="#63b8ff" d="M263.84,-741.34C251.81,-714.27 235.62,-670.43 235.62,-630.5 235.62,-630.5 235.62,-630.5 235.62,-559 235.62,-514.37 251.47,-463.54 260.5,-438.18"/>
<polygon fill="#63b8ff" stroke="#63b8ff" points="260.53,-742.52 267.89,-750.14 266.89,-739.59 260.53,-742.52"/>
</a>
</g>
</g>
<!-- Node28&#45;&gt;Node16 -->
<g id="edge59_Node000028_Node000016" class="edge">
<title>Node28&#45;&gt;Node16</title>
<g id="a_edge59_Node000028_Node000016"><a xlink:title=" ">
<path fill="none" stroke="#63b8ff" d="M232.73,-746.14C174.68,-714.45 79.62,-649.11 79.62,-561 79.62,-561 79.62,-561 79.62,-420 79.62,-375.97 71.88,-324.46 67.52,-298.97"/>
<polygon fill="#63b8ff" stroke="#63b8ff" points="230.95,-749.16 241.42,-750.77 234.24,-742.98 230.95,-749.16"/>
</a>
</g>
</g>
<!-- Node29 -->
<g id="Node000029" class="node">
<title>Node29</title>
<g id="a_Node000029"><a xlink:href="invm__manager_8h.html" target="_top" xlink:title=" ">
<polygon fill="white" stroke="#666666" points="423.12,-507.25 302.12,-507.25 302.12,-473.75 423.12,-473.75 423.12,-507.25"/>
<text text-anchor="start" x="310.12" y="-493.75" font-family="Helvetica,sans-Serif" font-size="10.00">include/prismspf/core</text>
<text text-anchor="middle" x="362.62" y="-481" font-family="Helvetica,sans-Serif" font-size="10.00">/invm_manager.h</text>
</a>
</g>
</g>
<!-- Node28&#45;&gt;Node29 -->
<g id="edge56_Node000028_Node000029" class="edge">
<title>Node28&#45;&gt;Node29</title>
<g id="a_edge56_Node000028_Node000029"><a xlink:title=" ">
<path fill="none" stroke="#63b8ff" d="M285.03,-740.52C302.74,-683.69 343.41,-553.17 357.62,-507.58"/>
<polygon fill="#63b8ff" stroke="#63b8ff" points="281.7,-739.43 282.07,-750.02 288.39,-741.52 281.7,-739.43"/>
</a>
</g>
</g>
<!-- Node29&#45;&gt;Node11 -->
<g id="edge57_Node000029_Node000011" class="edge">
<title>Node29&#45;&gt;Node11</title>
<g id="a_edge57_Node000029_Node000011"><a xlink:title=" ">
<path fill="none" stroke="#63b8ff" d="M389.56,-466.08C417.59,-441.69 462.74,-402.35 501.62,-368.25 518.55,-353.41 522.46,-349.32 539.62,-334.75 576.82,-303.17 583.01,-290.73 624.62,-265.25 647.71,-251.12 675.33,-238.78 698.05,-229.7"/>
<polygon fill="#63b8ff" stroke="#63b8ff" points="387.48,-463.25 382.23,-472.45 392.07,-468.53 387.48,-463.25"/>
</a>
</g>
</g>
<!-- Node29&#45;&gt;Node14 -->
<g id="edge58_Node000029_Node000014" class="edge">
<title>Node29&#45;&gt;Node14</title>
<g id="a_edge58_Node000029_Node000014"><a xlink:title=" ">
<path fill="none" stroke="#63b8ff" d="M330.5,-466.91C317.08,-457.48 301.8,-446.73 289.55,-438.12"/>
<polygon fill="#63b8ff" stroke="#63b8ff" points="328.44,-469.74 338.64,-472.63 332.47,-464.02 328.44,-469.74"/>
</a>
</g>
</g>
</g>
</svg>
