<?xml version="1.0" encoding="UTF-8" standalone="no"?>
<!DOCTYPE svg PUBLIC "-//W3C//DTD SVG 1.1//EN"
 "http://www.w3.org/Graphics/SVG/1.1/DTD/svg11.dtd">
<!-- Generated by graphviz version 12.2.1 (20241206.2353)
 -->
<!-- Title: include/prismspf/core/constraint_manager.h Pages: 1 -->
<svg width="1458pt" height="793pt"
 viewBox="0.00 0.00 1457.62 793.25" xmlns="http://www.w3.org/2000/svg" xmlns:xlink="http://www.w3.org/1999/xlink">
<g id="graph0" class="graph" transform="scale(1 1) rotate(0) translate(4 789.25)">
<title>include/prismspf/core/constraint_manager.h</title>
<!-- Node1 -->
<g id="Node000001" class="node">
<title>Node1</title>
<g id="a_Node000001"><a xlink:title=" ">
<polygon fill="#999999" stroke="#666666" points="718,-785.25 593.25,-785.25 593.25,-751.75 718,-751.75 718,-785.25"/>
<text text-anchor="start" x="601.25" y="-771.75" font-family="Helvetica,sans-Serif" font-size="10.00">include/prismspf/core</text>
<text text-anchor="middle" x="655.62" y="-759" font-family="Helvetica,sans-Serif" font-size="10.00">/constraint_manager.h</text>
</a>
</g>
</g>
<!-- Node2 -->
<g id="Node000002" class="node">
<title>Node2</title>
<g id="a_Node000002"><a xlink:href="group__solution__handler_8h.html" target="_top" xlink:title=" ">
<polygon fill="white" stroke="#666666" points="1067.25,-715.75 926,-715.75 926,-682.25 1067.25,-682.25 1067.25,-715.75"/>
<text text-anchor="start" x="934" y="-702.25" font-family="Helvetica,sans-Serif" font-size="10.00">include/prismspf/core</text>
<text text-anchor="middle" x="996.62" y="-689.5" font-family="Helvetica,sans-Serif" font-size="10.00">/group_solution_handler.h</text>
</a>
</g>
</g>
<!-- Node1&#45;&gt;Node2 -->
<g id="edge1_Node000001_Node000002" class="edge">
<title>Node1&#45;&gt;Node2</title>
<g id="a_edge1_Node000001_Node000002"><a xlink:title=" ">
<path fill="none" stroke="#63b8ff" d="M729.13,-752.95C787.32,-741.43 868.11,-725.44 925.64,-714.05"/>
<polygon fill="#63b8ff" stroke="#63b8ff" points="728.78,-749.45 719.65,-754.83 730.14,-756.32 728.78,-749.45"/>
</a>
</g>
</g>
<!-- Node3 -->
<g id="Node000003" class="node">
<title>Node3</title>
<g id="a_Node000003"><a xlink:href="invm__manager_8h.html" target="_top" xlink:title=" ">
<polygon fill="white" stroke="#666666" points="1300.12,-507.25 1179.12,-507.25 1179.12,-473.75 1300.12,-473.75 1300.12,-507.25"/>
<text text-anchor="start" x="1187.12" y="-493.75" font-family="Helvetica,sans-Serif" font-size="10.00">include/prismspf/core</text>
<text text-anchor="middle" x="1239.62" y="-481" font-family="Helvetica,sans-Serif" font-size="10.00">/invm_manager.h</text>
</a>
</g>
</g>
<!-- Node1&#45;&gt;Node3 -->
<g id="edge67_Node000001_Node000003" class="edge">
<title>Node1&#45;&gt;Node3</title>
<g id="a_edge67_Node000001_Node000003"><a xlink:title=" ">
<path fill="none" stroke="#63b8ff" d="M729.65,-762.97C871.52,-752.62 1173.52,-722.04 1239.62,-646.25 1270.23,-611.17 1266.77,-589.08 1258.62,-543.25 1256.41,-530.81 1251.43,-517.44 1247.12,-507.41"/>
<polygon fill="#63b8ff" stroke="#63b8ff" points="729.72,-759.45 720,-763.66 730.22,-766.44 729.72,-759.45"/>
</a>
</g>
</g>
<!-- Node11 -->
<g id="Node000011" class="node">
<title>Node11</title>
<g id="a_Node000011"><a xlink:href="solve__context_8h.html" target="_top" xlink:title=" ">
<polygon fill="white" stroke="#666666" points="345.25,-437.75 210,-437.75 210,-404.25 345.25,-404.25 345.25,-437.75"/>
<text text-anchor="start" x="218" y="-424.25" font-family="Helvetica,sans-Serif" font-size="10.00">include/prismspf/solvers</text>
<text text-anchor="middle" x="277.62" y="-411.5" font-family="Helvetica,sans-Serif" font-size="10.00">/solve_context.h</text>
</a>
</g>
</g>
<!-- Node1&#45;&gt;Node11 -->
<g id="edge70_Node000001_Node000011" class="edge">
<title>Node1&#45;&gt;Node11</title>
<g id="a_edge70_Node000001_Node000011"><a xlink:title=" ">
<path fill="none" stroke="#63b8ff" d="M581.68,-761.43C448.87,-748.48 183.62,-712.37 183.62,-630.5 183.62,-630.5 183.62,-630.5 183.62,-559 183.62,-520.18 180.93,-505.94 202.62,-473.75 212.79,-458.66 228.96,-446.69 243.69,-438.07"/>
<polygon fill="#63b8ff" stroke="#63b8ff" points="581.15,-764.9 591.44,-762.36 581.82,-757.93 581.15,-764.9"/>
</a>
</g>
</g>
<!-- Node13 -->
<g id="Node000013" class="node">
<title>Node13</title>
<g id="a_Node000013"><a xlink:href="refinement__manager_8h.html" target="_top" xlink:title=" ">
<polygon fill="white" stroke="#666666" points="129.25,-298.75 0,-298.75 0,-265.25 129.25,-265.25 129.25,-298.75"/>
<text text-anchor="start" x="8" y="-285.25" font-family="Helvetica,sans-Serif" font-size="10.00">include/prismspf/core</text>
<text text-anchor="middle" x="64.62" y="-272.5" font-family="Helvetica,sans-Serif" font-size="10.00">/refinement_manager.h</text>
</a>
</g>
</g>
<!-- Node1&#45;&gt;Node13 -->
<g id="edge69_Node000001_Node000013" class="edge">
<title>Node1&#45;&gt;Node13</title>
<g id="a_edge69_Node000001_Node000013"><a xlink:title=" ">
<path fill="none" stroke="#63b8ff" d="M581.47,-766.6C416.71,-762.59 34.62,-741.35 34.62,-630.5 34.62,-630.5 34.62,-630.5 34.62,-420 34.62,-375.44 49.96,-324.58 58.7,-299.2"/>
<polygon fill="#63b8ff" stroke="#63b8ff" points="581.36,-770.1 591.44,-766.82 581.52,-763.1 581.36,-770.1"/>
</a>
</g>
</g>
<!-- Node23 -->
<g id="Node000023" class="node">
<title>Node23</title>
<g id="a_Node000023"><a xlink:href="matrix__free__manager_8h.html" target="_top" xlink:title=" ">
<polygon fill="white" stroke="#666666" points="345.12,-507.25 212.12,-507.25 212.12,-473.75 345.12,-473.75 345.12,-507.25"/>
<text text-anchor="start" x="220.12" y="-493.75" font-family="Helvetica,sans-Serif" font-size="10.00">include/prismspf/core</text>
<text text-anchor="middle" x="278.62" y="-481" font-family="Helvetica,sans-Serif" font-size="10.00">/matrix_free_manager.h</text>
</a>
</g>
</g>
<!-- Node1&#45;&gt;Node23 -->
<g id="edge68_Node000001_Node000023" class="edge">
<title>Node1&#45;&gt;Node23</title>
<g id="a_edge68_Node000001_Node000023"><a xlink:title=" ">
<path fill="none" stroke="#63b8ff" d="M600.35,-747.1C528.88,-718.4 404.08,-660.13 323.62,-576.75 304.1,-556.52 290.82,-526.13 284,-507.62"/>
<polygon fill="#63b8ff" stroke="#63b8ff" points="598.93,-750.3 609.51,-750.72 601.5,-743.79 598.93,-750.3"/>
</a>
</g>
</g>
<!-- Node32 -->
<g id="Node000032" class="node">
<title>Node32</title>
<g id="a_Node000032"><a xlink:href="constraint__manager_8cc.html" target="_top" xlink:title=" ">
<polygon fill="white" stroke="#666666" points="1449.62,-715.75 1343.62,-715.75 1343.62,-682.25 1449.62,-682.25 1449.62,-715.75"/>
<text text-anchor="start" x="1351.62" y="-702.25" font-family="Helvetica,sans-Serif" font-size="10.00">src/core/constraint</text>
<text text-anchor="middle" x="1396.62" y="-689.5" font-family="Helvetica,sans-Serif" font-size="10.00">_manager.cc</text>
</a>
</g>
</g>
<!-- Node1&#45;&gt;Node32 -->
<g id="edge71_Node000001_Node000032" class="edge">
<title>Node1&#45;&gt;Node32</title>
<g id="a_edge71_Node000001_Node000032"><a xlink:title=" ">
<path fill="none" stroke="#63b8ff" d="M729.51,-765.55C853.99,-761.44 1113.13,-749.3 1329.62,-715.75 1334.11,-715.05 1338.74,-714.22 1343.38,-713.3"/>
<polygon fill="#63b8ff" stroke="#63b8ff" points="729.65,-762.05 719.77,-765.87 729.87,-769.04 729.65,-762.05"/>
</a>
</g>
</g>
<!-- Node2&#45;&gt;Node3 -->
<g id="edge2_Node000002_Node000003" class="edge">
<title>Node2&#45;&gt;Node3</title>
<g id="a_edge2_Node000002_Node000003"><a xlink:title=" ">
<path fill="none" stroke="#63b8ff" d="M1079.02,-688.17C1133.05,-679.98 1197.02,-666.37 1215.62,-646.25 1251.43,-607.53 1246.75,-538.62 1242.38,-507.52"/>
<polygon fill="#63b8ff" stroke="#63b8ff" points="1078.54,-684.7 1069.16,-689.62 1079.56,-691.63 1078.54,-684.7"/>
</a>
</g>
</g>
<!-- Node4 -->
<g id="Node000004" class="node">
<title>Node4</title>
<g id="a_Node000004"><a xlink:href="linear__helper_8h.html" target="_top" xlink:title=" ">
<polygon fill="white" stroke="#666666" points="1185.25,-229.25 1050,-229.25 1050,-195.75 1185.25,-195.75 1185.25,-229.25"/>
<text text-anchor="start" x="1058" y="-215.75" font-family="Helvetica,sans-Serif" font-size="10.00">include/prismspf/solvers</text>
<text text-anchor="middle" x="1117.62" y="-203" font-family="Helvetica,sans-Serif" font-size="10.00">/linear_helper.h</text>
</a>
</g>
</g>
<!-- Node2&#45;&gt;Node4 -->
<g id="edge59_Node000002_Node000004" class="edge">
<title>Node2&#45;&gt;Node4</title>
<g id="a_edge59_Node000002_Node000004"><a xlink:title=" ">
<path fill="none" stroke="#63b8ff" d="M1078.7,-679.98C1125.36,-668.9 1175.84,-655.18 1182.62,-646.25 1191.63,-634.39 1183.86,-627.59 1182.62,-612.75 1175.49,-527.08 1150.62,-507.96 1150.62,-422 1150.62,-422 1150.62,-422 1150.62,-350.5 1150.62,-305.73 1133.76,-254.96 1124.14,-229.65"/>
<polygon fill="#63b8ff" stroke="#63b8ff" points="1077.98,-676.55 1069.05,-682.24 1079.58,-683.37 1077.98,-676.55"/>
</a>
</g>
</g>
<!-- Node5 -->
<g id="Node000005" class="node">
<title>Node5</title>
<g id="a_Node000005"><a xlink:href="linear__solver_8h.html" target="_top" xlink:title=" ">
<polygon fill="white" stroke="#666666" points="1338.25,-229.25 1203,-229.25 1203,-195.75 1338.25,-195.75 1338.25,-229.25"/>
<text text-anchor="start" x="1211" y="-215.75" font-family="Helvetica,sans-Serif" font-size="10.00">include/prismspf/solvers</text>
<text text-anchor="middle" x="1270.62" y="-203" font-family="Helvetica,sans-Serif" font-size="10.00">/linear_solver.h</text>
</a>
</g>
</g>
<!-- Node2&#45;&gt;Node5 -->
<g id="edge60_Node000002_Node000005" class="edge">
<title>Node2&#45;&gt;Node5</title>
<g id="a_edge60_Node000002_Node000005"><a xlink:title=" ">
<path fill="none" stroke="#63b8ff" d="M1078.67,-687.8C1138.8,-678.99 1214.18,-664.77 1239.62,-646.25 1303.77,-599.55 1328.62,-570.84 1328.62,-491.5 1328.62,-491.5 1328.62,-491.5 1328.62,-350.5 1328.62,-303.49 1299.31,-254.08 1282.36,-229.44"/>
<polygon fill="#63b8ff" stroke="#63b8ff" points="1078.53,-684.28 1069.13,-689.16 1079.53,-691.21 1078.53,-684.28"/>
</a>
</g>
</g>
<!-- Node7 -->
<g id="Node000007" class="node">
<title>Node7</title>
<g id="a_Node000007"><a xlink:href="newton__solver_8h.html" target="_top" xlink:title=" ">
<polygon fill="white" stroke="#666666" points="1204.25,-159.75 1069,-159.75 1069,-126.25 1204.25,-126.25 1204.25,-159.75"/>
<text text-anchor="start" x="1077" y="-146.25" font-family="Helvetica,sans-Serif" font-size="10.00">include/prismspf/solvers</text>
<text text-anchor="middle" x="1136.62" y="-133.5" font-family="Helvetica,sans-Serif" font-size="10.00">/newton_solver.h</text>
</a>
</g>
</g>
<!-- Node2&#45;&gt;Node7 -->
<g id="edge62_Node000002_Node000007" class="edge">
<title>Node2&#45;&gt;Node7</title>
<g id="a_edge62_Node000002_Node000007"><a xlink:title=" ">
<path fill="none" stroke="#63b8ff" d="M1078.64,-694.55C1135.86,-689.37 1212.59,-676.74 1273.62,-646.25 1323.79,-621.19 1366.62,-617.07 1366.62,-561 1366.62,-561 1366.62,-561 1366.62,-281 1366.62,-242.18 1374.78,-223.49 1347.62,-195.75 1327.8,-175.5 1258.57,-161.2 1204.75,-152.83"/>
<polygon fill="#63b8ff" stroke="#63b8ff" points="1078.64,-691.03 1068.97,-695.36 1079.23,-698.01 1078.64,-691.03"/>
</a>
</g>
</g>
<!-- Node17 -->
<g id="Node000017" class="node">
<title>Node17</title>
<g id="a_Node000017"><a xlink:href="solver__base_8h.html" target="_top" xlink:title=" ">
<polygon fill="white" stroke="#666666" points="695.25,-368.25 560,-368.25 560,-334.75 695.25,-334.75 695.25,-368.25"/>
<text text-anchor="start" x="568" y="-354.75" font-family="Helvetica,sans-Serif" font-size="10.00">include/prismspf/solvers</text>
<text text-anchor="middle" x="627.62" y="-342" font-family="Helvetica,sans-Serif" font-size="10.00">/solver_base.h</text>
</a>
</g>
</g>
<!-- Node2&#45;&gt;Node17 -->
<g id="edge63_Node000002_Node000017" class="edge">
<title>Node2&#45;&gt;Node17</title>
<g id="a_edge63_Node000002_Node000017"><a xlink:title=" ">
<path fill="none" stroke="#63b8ff" d="M979.25,-672.68C973.93,-664.43 968.26,-655.11 963.62,-646.25 940.65,-602.29 947.94,-584.66 920.62,-543.25 873.2,-471.36 858.67,-449.87 785.62,-404.25 758.33,-387.2 724.84,-375.19 695.72,-367.06"/>
<polygon fill="#63b8ff" stroke="#63b8ff" points="976.22,-674.44 984.65,-680.85 982.06,-670.58 976.22,-674.44"/>
</a>
</g>
</g>
<!-- Node20 -->
<g id="Node000020" class="node">
<title>Node20</title>
<g id="a_Node000020"><a xlink:href="mf__operator_8h.html" target="_top" xlink:title=" ">
<polygon fill="white" stroke="#666666" points="987.25,-298.75 852,-298.75 852,-265.25 987.25,-265.25 987.25,-298.75"/>
<text text-anchor="start" x="860" y="-285.25" font-family="Helvetica,sans-Serif" font-size="10.00">include/prismspf/solvers</text>
<text text-anchor="middle" x="919.62" y="-272.5" font-family="Helvetica,sans-Serif" font-size="10.00">/mf_operator.h</text>
</a>
</g>
</g>
<!-- Node2&#45;&gt;Node20 -->
<g id="edge61_Node000002_Node000020" class="edge">
<title>Node2&#45;&gt;Node20</title>
<g id="a_edge61_Node000002_Node000020"><a xlink:title=" ">
<path fill="none" stroke="#63b8ff" d="M990.64,-671.01C985.07,-643.48 977.62,-599.49 977.62,-561 977.62,-561 977.62,-561 977.62,-420 977.62,-372.99 948.31,-323.58 931.36,-298.94"/>
<polygon fill="#63b8ff" stroke="#63b8ff" points="987.17,-671.52 992.65,-680.59 994.03,-670.08 987.17,-671.52"/>
</a>
</g>
</g>
<!-- Node21 -->
<g id="Node000021" class="node">
<title>Node21</title>
<g id="a_Node000021"><a xlink:href="mf__operator_8cc.html" target="_top" xlink:title=" ">
<polygon fill="white" stroke="#666666" points="955.75,-222.88 811.5,-222.88 811.5,-202.12 955.75,-202.12 955.75,-222.88"/>
<text text-anchor="middle" x="883.62" y="-209.38" font-family="Helvetica,sans-Serif" font-size="10.00">src/solvers/mf_operator.cc</text>
</a>
</g>
</g>
<!-- Node2&#45;&gt;Node21 -->
<g id="edge66_Node000002_Node000021" class="edge">
<title>Node2&#45;&gt;Node21</title>
<g id="a_edge66_Node000002_Node000021"><a xlink:title=" ">
<path fill="none" stroke="#63b8ff" d="M1002.61,-671.01C1008.18,-643.48 1015.62,-599.49 1015.62,-561 1015.62,-561 1015.62,-561 1015.62,-350.5 1015.62,-311.68 1021.04,-295.43 996.62,-265.25 979.32,-243.86 951.22,-230.94 927.38,-223.36"/>
<polygon fill="#63b8ff" stroke="#63b8ff" points="999.22,-670.08 1000.6,-680.59 1006.08,-671.52 999.22,-670.08"/>
</a>
</g>
</g>
<!-- Node2&#45;&gt;Node23 -->
<g id="edge40_Node000002_Node000023" class="edge">
<title>Node2&#45;&gt;Node23</title>
<g id="a_edge40_Node000002_Node000023"><a xlink:title=" ">
<path fill="none" stroke="#63b8ff" d="M914.34,-698C789.3,-694.63 547.44,-674.66 371.62,-576.75 338.9,-558.53 308.4,-526.61 291.75,-507.43"/>
<polygon fill="#63b8ff" stroke="#63b8ff" points="914.11,-701.5 924.19,-698.23 914.27,-694.5 914.11,-701.5"/>
</a>
</g>
</g>
<!-- Node24 -->
<g id="Node000024" class="node">
<title>Node24</title>
<g id="a_Node000024"><a xlink:href="solution__indexer_8h.html" target="_top" xlink:title=" ">
<polygon fill="white" stroke="#666666" points="749.12,-646.25 628.12,-646.25 628.12,-612.75 749.12,-612.75 749.12,-646.25"/>
<text text-anchor="start" x="636.12" y="-632.75" font-family="Helvetica,sans-Serif" font-size="10.00">include/prismspf/core</text>
<text text-anchor="middle" x="688.62" y="-620" font-family="Helvetica,sans-Serif" font-size="10.00">/solution_indexer.h</text>
</a>
</g>
</g>
<!-- Node2&#45;&gt;Node24 -->
<g id="edge44_Node000002_Node000024" class="edge">
<title>Node2&#45;&gt;Node24</title>
<g id="a_edge44_Node000002_Node000024"><a xlink:title=" ">
<path fill="none" stroke="#63b8ff" d="M914.39,-679.98C862.51,-668.61 796.63,-654.17 749.44,-643.83"/>
<polygon fill="#63b8ff" stroke="#63b8ff" points="913.58,-683.38 924.1,-682.11 915.08,-676.55 913.58,-683.38"/>
</a>
</g>
</g>
<!-- Node30 -->
<g id="Node000030" class="node">
<title>Node30</title>
<g id="a_Node000030"><a xlink:href="solution__indexer_8cc.html" target="_top" xlink:title=" ">
<polygon fill="white" stroke="#666666" points="911.75,-570.38 761.5,-570.38 761.5,-549.62 911.75,-549.62 911.75,-570.38"/>
<text text-anchor="middle" x="836.62" y="-556.88" font-family="Helvetica,sans-Serif" font-size="10.00">src/core/solution_indexer.cc</text>
</a>
</g>
</g>
<!-- Node2&#45;&gt;Node30 -->
<g id="edge65_Node000002_Node000030" class="edge">
<title>Node2&#45;&gt;Node30</title>
<g id="a_edge65_Node000002_Node000030"><a xlink:title=" ">
<path fill="none" stroke="#63b8ff" d="M963.33,-675.14C951.19,-666.44 937.53,-656.21 925.62,-646.25 894.94,-620.57 861.6,-586.92 845.85,-570.64"/>
<polygon fill="#63b8ff" stroke="#63b8ff" points="961.26,-677.96 971.45,-680.88 965.31,-672.24 961.26,-677.96"/>
</a>
</g>
</g>
<!-- Node31 -->
<g id="Node000031" class="node">
<title>Node31</title>
<g id="a_Node000031"><a xlink:href="group__solution__handler_8cc.html" target="_top" xlink:title=" ">
<polygon fill="white" stroke="#666666" points="1173.25,-646.25 1044,-646.25 1044,-612.75 1173.25,-612.75 1173.25,-646.25"/>
<text text-anchor="start" x="1052" y="-632.75" font-family="Helvetica,sans-Serif" font-size="10.00">src/core/group_solution</text>
<text text-anchor="middle" x="1108.62" y="-620" font-family="Helvetica,sans-Serif" font-size="10.00">_handler.cc</text>
</a>
</g>
</g>
<!-- Node2&#45;&gt;Node31 -->
<g id="edge64_Node000002_Node000031" class="edge">
<title>Node2&#45;&gt;Node31</title>
<g id="a_edge64_Node000002_Node000031"><a xlink:title=" ">
<path fill="none" stroke="#63b8ff" d="M1033.02,-676.07C1048.98,-666.45 1067.37,-655.36 1082.02,-646.54"/>
<polygon fill="#63b8ff" stroke="#63b8ff" points="1031.51,-672.89 1024.75,-681.05 1035.12,-678.89 1031.51,-672.89"/>
</a>
</g>
</g>
<!-- Node3&#45;&gt;Node4 -->
<g id="edge3_Node000003_Node000004" class="edge">
<title>Node3&#45;&gt;Node4</title>
<g id="a_edge3_Node000003_Node000004"><a xlink:title=" ">
<path fill="none" stroke="#63b8ff" d="M1234.32,-462.19C1225,-418.37 1202.95,-330.65 1164.62,-265.25 1156.77,-251.85 1145.02,-238.91 1135.23,-229.32"/>
<polygon fill="#63b8ff" stroke="#63b8ff" points="1230.87,-462.75 1236.31,-471.84 1237.72,-461.34 1230.87,-462.75"/>
</a>
</g>
</g>
<!-- Node3&#45;&gt;Node5 -->
<g id="edge4_Node000003_Node000005" class="edge">
<title>Node3&#45;&gt;Node5</title>
<g id="a_edge4_Node000003_Node000005"><a xlink:title=" ">
<path fill="none" stroke="#63b8ff" d="M1242.7,-462.16C1249.1,-405.14 1263.71,-275.08 1268.82,-229.58"/>
<polygon fill="#63b8ff" stroke="#63b8ff" points="1239.23,-461.64 1241.59,-471.96 1246.19,-462.42 1239.23,-461.64"/>
</a>
</g>
</g>
<!-- Node3&#45;&gt;Node11 -->
<g id="edge11_Node000003_Node000011" class="edge">
<title>Node3&#45;&gt;Node11</title>
<g id="a_edge11_Node000003_Node000011"><a xlink:title=" ">
<path fill="none" stroke="#63b8ff" d="M1167.53,-485.03C1031.06,-476.48 725.62,-456.97 468.62,-437.75 427.81,-434.7 382.13,-430.94 345.67,-427.86"/>
<polygon fill="#63b8ff" stroke="#63b8ff" points="1166.92,-488.5 1177.12,-485.63 1167.36,-481.51 1166.92,-488.5"/>
</a>
</g>
</g>
<!-- Node6 -->
<g id="Node000006" class="node">
<title>Node6</title>
<g id="a_Node000006"><a xlink:href="mg__solver_8h.html" target="_top" xlink:title=" ">
<polygon fill="white" stroke="#666666" points="1051.25,-159.75 916,-159.75 916,-126.25 1051.25,-126.25 1051.25,-159.75"/>
<text text-anchor="start" x="924" y="-146.25" font-family="Helvetica,sans-Serif" font-size="10.00">include/prismspf/solvers</text>
<text text-anchor="middle" x="983.62" y="-133.5" font-family="Helvetica,sans-Serif" font-size="10.00">/mg_solver.h</text>
</a>
</g>
</g>
<!-- Node5&#45;&gt;Node6 -->
<g id="edge5_Node000005_Node000006" class="edge">
<title>Node5&#45;&gt;Node6</title>
<g id="a_edge5_Node000005_Node000006"><a xlink:title=" ">
<path fill="none" stroke="#63b8ff" d="M1191.68,-192.93C1147.77,-182.61 1093.67,-169.88 1051.65,-160"/>
<polygon fill="#63b8ff" stroke="#63b8ff" points="1190.6,-196.27 1201.14,-195.16 1192.2,-189.46 1190.6,-196.27"/>
</a>
</g>
</g>
<!-- Node5&#45;&gt;Node7 -->
<g id="edge6_Node000005_Node000007" class="edge">
<title>Node5&#45;&gt;Node7</title>
<g id="a_edge6_Node000005_Node000007"><a xlink:title=" ">
<path fill="none" stroke="#63b8ff" d="M1228.43,-190.24C1209.03,-180.47 1186.4,-169.07 1168.46,-160.04"/>
<polygon fill="#63b8ff" stroke="#63b8ff" points="1226.67,-193.28 1237.18,-194.65 1229.82,-187.03 1226.67,-193.28"/>
</a>
</g>
</g>
<!-- Node8 -->
<g id="Node000008" class="node">
<title>Node8</title>
<g id="a_Node000008"><a xlink:href="solvers_8h.html" target="_top" xlink:title=" ">
<polygon fill="white" stroke="#666666" points="811.25,-90.25 676,-90.25 676,-56.75 811.25,-56.75 811.25,-90.25"/>
<text text-anchor="start" x="684" y="-76.75" font-family="Helvetica,sans-Serif" font-size="10.00">include/prismspf/solvers</text>
<text text-anchor="middle" x="743.62" y="-64" font-family="Helvetica,sans-Serif" font-size="10.00">/solvers.h</text>
</a>
</g>
</g>
<!-- Node5&#45;&gt;Node8 -->
<g id="edge10_Node000005_Node000008" class="edge">
<title>Node5&#45;&gt;Node8</title>
<g id="a_edge10_Node000005_Node000008"><a xlink:title=" ">
<path fill="none" stroke="#63b8ff" d="M1260.27,-184.99C1251.11,-165.32 1235.74,-139.67 1213.62,-126.25 1147.66,-86.21 925.11,-77.07 811.53,-75.04"/>
<polygon fill="#63b8ff" stroke="#63b8ff" points="1257.03,-186.31 1264.23,-194.08 1263.45,-183.51 1257.03,-186.31"/>
</a>
</g>
</g>
<!-- Node7&#45;&gt;Node8 -->
<g id="edge7_Node000007_Node000008" class="edge">
<title>Node7&#45;&gt;Node8</title>
<g id="a_edge7_Node000007_Node000008"><a xlink:title=" ">
<path fill="none" stroke="#63b8ff" d="M1057.42,-125.69C967.06,-109.13 873.19,-94.21 811.48,-84.72"/>
<polygon fill="#63b8ff" stroke="#63b8ff" points="1056.74,-129.13 1067.21,-127.5 1058.01,-122.24 1056.74,-129.13"/>
</a>
</g>
</g>
<!-- Node9 -->
<g id="Node000009" class="node">
<title>Node9</title>
<g id="a_Node000009"><a xlink:href="problem_8cc.html" target="_top" xlink:title=" ">
<polygon fill="white" stroke="#666666" points="569.25,-20.75 458,-20.75 458,0 569.25,0 569.25,-20.75"/>
<text text-anchor="middle" x="513.62" y="-7.25" font-family="Helvetica,sans-Serif" font-size="10.00">src/core/problem.cc</text>
</a>
</g>
</g>
<!-- Node8&#45;&gt;Node9 -->
<g id="edge8_Node000008_Node000009" class="edge">
<title>Node8&#45;&gt;Node9</title>
<g id="a_edge8_Node000008_Node000009"><a xlink:title=" ">
<path fill="none" stroke="#63b8ff" d="M671.49,-53.33C631.31,-42.65 582.98,-29.81 550.46,-21.17"/>
<polygon fill="#63b8ff" stroke="#63b8ff" points="670.57,-56.71 681.13,-55.89 672.36,-49.94 670.57,-56.71"/>
</a>
</g>
</g>
<!-- Node10 -->
<g id="Node000010" class="node">
<title>Node10</title>
<g id="a_Node000010"><a xlink:href="solvers_8cc.html" target="_top" xlink:title=" ">
<polygon fill="white" stroke="#666666" points="803.75,-20.75 683.5,-20.75 683.5,0 803.75,0 803.75,-20.75"/>
<text text-anchor="middle" x="743.62" y="-7.25" font-family="Helvetica,sans-Serif" font-size="10.00">src/solvers/solvers.cc</text>
</a>
</g>
</g>
<!-- Node8&#45;&gt;Node10 -->
<g id="edge9_Node000008_Node000010" class="edge">
<title>Node8&#45;&gt;Node10</title>
<g id="a_edge9_Node000008_Node000010"><a xlink:title=" ">
<path fill="none" stroke="#63b8ff" d="M743.62,-44.94C743.62,-36.46 743.62,-27.67 743.62,-21.22"/>
<polygon fill="#63b8ff" stroke="#63b8ff" points="740.13,-44.93 743.63,-54.93 747.13,-44.93 740.13,-44.93"/>
</a>
</g>
</g>
<!-- Node12 -->
<g id="Node000012" class="node">
<title>Node12</title>
<g id="a_Node000012"><a xlink:href="problem_8h.html" target="_top" xlink:title=" ">
<polygon fill="white" stroke="#666666" points="244.12,-229.25 123.12,-229.25 123.12,-195.75 244.12,-195.75 244.12,-229.25"/>
<text text-anchor="start" x="131.12" y="-215.75" font-family="Helvetica,sans-Serif" font-size="10.00">include/prismspf/core</text>
<text text-anchor="middle" x="183.62" y="-203" font-family="Helvetica,sans-Serif" font-size="10.00">/problem.h</text>
</a>
</g>
</g>
<!-- Node11&#45;&gt;Node12 -->
<g id="edge12_Node000011_Node000012" class="edge">
<title>Node11&#45;&gt;Node12</title>
<g id="a_edge12_Node000011_Node000012"><a xlink:title=" ">
<path fill="none" stroke="#63b8ff" d="M202.82,-398.85C188.87,-391.44 176.04,-381.51 167.62,-368.25 139.84,-324.47 162.73,-259.31 175.91,-229.47"/>
<polygon fill="#63b8ff" stroke="#63b8ff" points="201.24,-401.97 211.77,-403.15 204.27,-395.66 201.24,-401.97"/>
</a>
</g>
</g>
<!-- Node11&#45;&gt;Node13 -->
<g id="edge14_Node000011_Node000013" class="edge">
<title>Node11&#45;&gt;Node13</title>
<g id="a_edge14_Node000011_Node000013"><a xlink:title=" ">
<path fill="none" stroke="#63b8ff" d="M199.55,-400.19C177.36,-392.39 153.99,-381.94 134.62,-368.25 108.04,-349.46 85.89,-318.03 74.02,-299.04"/>
<polygon fill="#63b8ff" stroke="#63b8ff" points="198.3,-403.46 208.89,-403.33 200.53,-396.83 198.3,-403.46"/>
</a>
</g>
</g>
<!-- Node14 -->
<g id="Node000014" class="node">
<title>Node14</title>
<g id="a_Node000014"><a xlink:href="solution__output_8h.html" target="_top" xlink:title=" ">
<polygon fill="white" stroke="#666666" points="467.12,-368.25 346.12,-368.25 346.12,-334.75 467.12,-334.75 467.12,-368.25"/>
<text text-anchor="start" x="354.12" y="-354.75" font-family="Helvetica,sans-Serif" font-size="10.00">include/prismspf/core</text>
<text text-anchor="middle" x="406.62" y="-342" font-family="Helvetica,sans-Serif" font-size="10.00">/solution_output.h</text>
</a>
</g>
</g>
<!-- Node11&#45;&gt;Node14 -->
<g id="edge16_Node000011_Node000014" class="edge">
<title>Node11&#45;&gt;Node14</title>
<g id="a_edge16_Node000011_Node000014"><a xlink:title=" ">
<path fill="none" stroke="#63b8ff" d="M318.51,-398.61C337.12,-388.87 358.79,-377.53 375.98,-368.54"/>
<polygon fill="#63b8ff" stroke="#63b8ff" points="317.1,-395.39 309.86,-403.13 320.35,-401.6 317.1,-395.39"/>
</a>
</g>
</g>
<!-- Node16 -->
<g id="Node000016" class="node">
<title>Node16</title>
<g id="a_Node000016"><a xlink:href="nucleation__manager_8h.html" target="_top" xlink:title=" ">
<polygon fill="white" stroke="#666666" points="328.12,-368.25 177.12,-368.25 177.12,-334.75 328.12,-334.75 328.12,-368.25"/>
<text text-anchor="start" x="185.12" y="-354.75" font-family="Helvetica,sans-Serif" font-size="10.00">include/prismspf/nucleation</text>
<text text-anchor="middle" x="252.62" y="-342" font-family="Helvetica,sans-Serif" font-size="10.00">/nucleation_manager.h</text>
</a>
</g>
</g>
<!-- Node11&#45;&gt;Node16 -->
<g id="edge20_Node000011_Node000016" class="edge">
<title>Node11&#45;&gt;Node16</title>
<g id="a_edge20_Node000011_Node000016"><a xlink:title=" ">
<path fill="none" stroke="#63b8ff" d="M267.78,-393.42C264.64,-384.95 261.27,-375.85 258.51,-368.38"/>
<polygon fill="#63b8ff" stroke="#63b8ff" points="264.42,-394.42 271.17,-402.58 270.98,-391.99 264.42,-394.42"/>
</a>
</g>
</g>
<!-- Node11&#45;&gt;Node17 -->
<g id="edge22_Node000011_Node000017" class="edge">
<title>Node11&#45;&gt;Node17</title>
<g id="a_edge22_Node000011_Node000017"><a xlink:title=" ">
<path fill="none" stroke="#63b8ff" d="M356.66,-404.76C417.77,-392.97 501.48,-376.83 559.62,-365.62"/>
<polygon fill="#63b8ff" stroke="#63b8ff" points="356.17,-401.29 347.01,-406.62 357.49,-408.16 356.17,-401.29"/>
</a>
</g>
</g>
<!-- Node12&#45;&gt;Node9 -->
<g id="edge13_Node000012_Node000009" class="edge">
<title>Node12&#45;&gt;Node9</title>
<g id="a_edge13_Node000012_Node000009"><a xlink:title=" ">
<path fill="none" stroke="#63b8ff" d="M219.82,-189.55C291.08,-146.34 446.99,-51.79 497.49,-21.16"/>
<polygon fill="#63b8ff" stroke="#63b8ff" points="218.38,-186.33 211.64,-194.51 222.01,-192.31 218.38,-186.33"/>
</a>
</g>
</g>
<!-- Node13&#45;&gt;Node12 -->
<g id="edge15_Node000013_Node000012" class="edge">
<title>Node13&#45;&gt;Node12</title>
<g id="a_edge15_Node000013_Node000012"><a xlink:title=" ">
<path fill="none" stroke="#63b8ff" d="M102.81,-259.34C119.88,-249.66 139.64,-238.45 155.35,-229.54"/>
<polygon fill="#63b8ff" stroke="#63b8ff" points="101.42,-256.11 94.44,-264.09 104.87,-262.2 101.42,-256.11"/>
</a>
</g>
</g>
<!-- Node14&#45;&gt;Node9 -->
<g id="edge18_Node000014_Node000009" class="edge">
<title>Node14&#45;&gt;Node9</title>
<g id="a_edge18_Node000014_Node000009"><a xlink:title=" ">
<path fill="none" stroke="#63b8ff" d="M435.18,-326.47C443.18,-318.41 451.18,-308.87 456.62,-298.75 475.02,-264.57 475.62,-252.32 475.62,-213.5 475.62,-213.5 475.62,-213.5 475.62,-142 475.62,-95 498.59,-42.14 508.81,-20.93"/>
<polygon fill="#63b8ff" stroke="#63b8ff" points="432.88,-323.82 428.04,-333.25 437.7,-328.9 432.88,-323.82"/>
</a>
</g>
</g>
<!-- Node14&#45;&gt;Node14 -->
<g id="edge17_Node000014_Node000014" class="edge">
<title>Node14&#45;&gt;Node14</title>
<g id="a_edge17_Node000014_Node000014"><a xlink:title=" ">
<path fill="none" stroke="#63b8ff" d="M478.34,-360.45C482.58,-358.31 485.12,-355.33 485.12,-351.5 485.12,-345.05 477.92,-341 467.52,-339.33"/>
<polygon fill="#63b8ff" stroke="#63b8ff" points="477.56,-357.04 468.97,-363.23 479.55,-363.75 477.56,-357.04"/>
</a>
</g>
</g>
<!-- Node15 -->
<g id="Node000015" class="node">
<title>Node15</title>
<g id="a_Node000015"><a xlink:href="solution__output_8cc.html" target="_top" xlink:title=" ">
<polygon fill="white" stroke="#666666" points="447.88,-292.38 301.38,-292.38 301.38,-271.62 447.88,-271.62 447.88,-292.38"/>
<text text-anchor="middle" x="374.62" y="-278.88" font-family="Helvetica,sans-Serif" font-size="10.00">src/core/solution_output.cc</text>
</a>
</g>
</g>
<!-- Node14&#45;&gt;Node15 -->
<g id="edge19_Node000014_Node000015" class="edge">
<title>Node14&#45;&gt;Node15</title>
<g id="a_edge19_Node000014_Node000015"><a xlink:title=" ">
<path fill="none" stroke="#63b8ff" d="M394.26,-324.41C389.01,-313.34 383.21,-301.1 379.28,-292.82"/>
<polygon fill="#63b8ff" stroke="#63b8ff" points="390.95,-325.6 398.39,-333.14 397.27,-322.6 390.95,-325.6"/>
</a>
</g>
</g>
<!-- Node16&#45;&gt;Node12 -->
<g id="edge21_Node000016_Node000012" class="edge">
<title>Node16&#45;&gt;Node12</title>
<g id="a_edge21_Node000016_Node000012"><a xlink:title=" ">
<path fill="none" stroke="#63b8ff" d="M239.4,-324.25C225.27,-296.19 203.33,-252.63 191.62,-229.38"/>
<polygon fill="#63b8ff" stroke="#63b8ff" points="236.27,-325.81 243.89,-333.16 242.52,-322.66 236.27,-325.81"/>
</a>
</g>
</g>
<!-- Node17&#45;&gt;Node4 -->
<g id="edge28_Node000017_Node000004" class="edge">
<title>Node17&#45;&gt;Node4</title>
<g id="a_edge28_Node000017_Node000004"><a xlink:title=" ">
<path fill="none" stroke="#63b8ff" d="M706.5,-333.34C736.6,-325.11 770.64,-313.73 799.62,-298.75 821.15,-287.63 820.54,-275.22 842.62,-265.25 878.77,-248.94 980.65,-232.39 1049.72,-222.53"/>
<polygon fill="#63b8ff" stroke="#63b8ff" points="705.84,-329.89 697.06,-335.83 707.63,-336.66 705.84,-329.89"/>
</a>
</g>
</g>
<!-- Node17&#45;&gt;Node5 -->
<g id="edge29_Node000017_Node000005" class="edge">
<title>Node17&#45;&gt;Node5</title>
<g id="a_edge29_Node000017_Node000005"><a xlink:title=" ">
<path fill="none" stroke="#63b8ff" d="M706.8,-343.15C781.98,-335.3 897.86,-320.89 996.62,-298.75 1079.27,-280.23 1172.98,-248.71 1226.61,-229.63"/>
<polygon fill="#63b8ff" stroke="#63b8ff" points="706.65,-339.65 697.06,-344.16 707.36,-346.61 706.65,-339.65"/>
</a>
</g>
</g>
<!-- Node17&#45;&gt;Node7 -->
<g id="edge37_Node000017_Node000007" class="edge">
<title>Node17&#45;&gt;Node7</title>
<g id="a_edge37_Node000017_Node000007"><a xlink:title=" ">
<path fill="none" stroke="#63b8ff" d="M706.22,-334.49C728.08,-326.78 750.28,-315.42 766.62,-298.75 800.57,-264.12 765.12,-226.49 802.62,-195.75 847.4,-159.05 1003.59,-169.63 1060.62,-159.75 1063.28,-159.29 1065.98,-158.81 1068.71,-158.3"/>
<polygon fill="#63b8ff" stroke="#63b8ff" points="705.4,-331.08 696.98,-337.52 707.58,-337.73 705.4,-331.08"/>
</a>
</g>
</g>
<!-- Node17&#45;&gt;Node9 -->
<g id="edge38_Node000017_Node000009" class="edge">
<title>Node17&#45;&gt;Node9</title>
<g id="a_edge38_Node000017_Node000009"><a xlink:title=" ">
<path fill="none" stroke="#63b8ff" d="M604,-326C581.69,-300.2 551.62,-257.3 551.62,-213.5 551.62,-213.5 551.62,-213.5 551.62,-142 551.62,-95 528.66,-42.14 518.44,-20.93"/>
<polygon fill="#63b8ff" stroke="#63b8ff" points="601.22,-328.14 610.5,-333.26 606.44,-323.48 601.22,-328.14"/>
</a>
</g>
</g>
<!-- Node17&#45;&gt;Node13 -->
<g id="edge23_Node000017_Node000013" class="edge">
<title>Node17&#45;&gt;Node13</title>
<g id="a_edge23_Node000017_Node000013"><a xlink:title=" ">
<path fill="none" stroke="#63b8ff" d="M548.5,-341.01C436.43,-327.58 233.58,-303.26 129.73,-290.81"/>
<polygon fill="#63b8ff" stroke="#63b8ff" points="547.87,-344.46 558.21,-342.18 548.7,-337.51 547.87,-344.46"/>
</a>
</g>
</g>
<!-- Node18 -->
<g id="Node000018" class="node">
<title>Node18</title>
<g id="a_Node000018"><a xlink:href="constant__solver_8h.html" target="_top" xlink:title=" ">
<polygon fill="white" stroke="#666666" points="715.25,-159.75 580,-159.75 580,-126.25 715.25,-126.25 715.25,-159.75"/>
<text text-anchor="start" x="588" y="-146.25" font-family="Helvetica,sans-Serif" font-size="10.00">include/prismspf/solvers</text>
<text text-anchor="middle" x="647.62" y="-133.5" font-family="Helvetica,sans-Serif" font-size="10.00">/constant_solver.h</text>
</a>
</g>
</g>
<!-- Node17&#45;&gt;Node18 -->
<g id="edge24_Node000017_Node000018" class="edge">
<title>Node17&#45;&gt;Node18</title>
<g id="a_edge24_Node000017_Node000018"><a xlink:title=" ">
<path fill="none" stroke="#63b8ff" d="M618.15,-323.81C608.48,-292.42 596.72,-239.11 610.62,-195.75 614.87,-182.5 623.9,-169.76 631.98,-160.23"/>
<polygon fill="#63b8ff" stroke="#63b8ff" points="614.8,-324.83 621.22,-333.26 621.45,-322.67 614.8,-324.83"/>
</a>
</g>
</g>
<!-- Node19 -->
<g id="Node000019" class="node">
<title>Node19</title>
<g id="a_Node000019"><a xlink:href="explicit__solver_8h.html" target="_top" xlink:title=" ">
<polygon fill="white" stroke="#666666" points="755.25,-229.25 620,-229.25 620,-195.75 755.25,-195.75 755.25,-229.25"/>
<text text-anchor="start" x="628" y="-215.75" font-family="Helvetica,sans-Serif" font-size="10.00">include/prismspf/solvers</text>
<text text-anchor="middle" x="687.62" y="-203" font-family="Helvetica,sans-Serif" font-size="10.00">/explicit_solver.h</text>
</a>
</g>
</g>
<!-- Node17&#45;&gt;Node19 -->
<g id="edge26_Node000017_Node000019" class="edge">
<title>Node17&#45;&gt;Node19</title>
<g id="a_edge26_Node000017_Node000019"><a xlink:title=" ">
<path fill="none" stroke="#63b8ff" d="M630.54,-323.14C633.13,-305.9 637.92,-283.51 646.62,-265.25 652.94,-252 663.19,-239.07 671.86,-229.44"/>
<polygon fill="#63b8ff" stroke="#63b8ff" points="627.09,-322.53 629.24,-332.9 634.03,-323.45 627.09,-322.53"/>
</a>
</g>
</g>
<!-- Node17&#45;&gt;Node20 -->
<g id="edge30_Node000017_Node000020" class="edge">
<title>Node17&#45;&gt;Node20</title>
<g id="a_edge30_Node000017_Node000020"><a xlink:title=" ">
<path fill="none" stroke="#63b8ff" d="M706.69,-332.22C752.03,-321.74 808.35,-308.72 851.68,-298.71"/>
<polygon fill="#63b8ff" stroke="#63b8ff" points="706.15,-328.76 697.19,-334.42 707.72,-335.58 706.15,-328.76"/>
</a>
</g>
</g>
<!-- Node22 -->
<g id="Node000022" class="node">
<title>Node22</title>
<g id="a_Node000022"><a xlink:href="solver__base_8cc.html" target="_top" xlink:title=" ">
<polygon fill="white" stroke="#666666" points="757.38,-298.75 655.88,-298.75 655.88,-265.25 757.38,-265.25 757.38,-298.75"/>
<text text-anchor="start" x="663.88" y="-285.25" font-family="Helvetica,sans-Serif" font-size="10.00">src/solvers/solver</text>
<text text-anchor="middle" x="706.62" y="-272.5" font-family="Helvetica,sans-Serif" font-size="10.00">_base.cc</text>
</a>
</g>
</g>
<!-- Node17&#45;&gt;Node22 -->
<g id="edge39_Node000017_Node000022" class="edge">
<title>Node17&#45;&gt;Node22</title>
<g id="a_edge39_Node000017_Node000022"><a xlink:title=" ">
<path fill="none" stroke="#63b8ff" d="M655.03,-327.09C665.83,-317.85 677.97,-307.48 687.76,-299.12"/>
<polygon fill="#63b8ff" stroke="#63b8ff" points="652.83,-324.36 647.5,-333.52 657.37,-329.69 652.83,-324.36"/>
</a>
</g>
</g>
<!-- Node18&#45;&gt;Node8 -->
<g id="edge25_Node000018_Node000008" class="edge">
<title>Node18&#45;&gt;Node8</title>
<g id="a_edge25_Node000018_Node000008"><a xlink:title=" ">
<path fill="none" stroke="#63b8ff" d="M679.75,-119.41C693.17,-109.98 708.45,-99.23 720.7,-90.62"/>
<polygon fill="#63b8ff" stroke="#63b8ff" points="677.78,-116.52 671.61,-125.13 681.81,-122.24 677.78,-116.52"/>
</a>
</g>
</g>
<!-- Node19&#45;&gt;Node8 -->
<g id="edge27_Node000019_Node000008" class="edge">
<title>Node19&#45;&gt;Node8</title>
<g id="a_edge27_Node000019_Node000008"><a xlink:title=" ">
<path fill="none" stroke="#63b8ff" d="M708.62,-186.42C714.54,-178.32 720.48,-169.03 724.62,-159.75 734.83,-136.9 739.77,-108.09 742,-90.5"/>
<polygon fill="#63b8ff" stroke="#63b8ff" points="706.04,-184.04 702.72,-194.11 711.59,-188.3 706.04,-184.04"/>
</a>
</g>
</g>
<!-- Node20&#45;&gt;Node4 -->
<g id="edge32_Node000020_Node000004" class="edge">
<title>Node20&#45;&gt;Node4</title>
<g id="a_edge32_Node000020_Node000004"><a xlink:title=" ">
<path fill="none" stroke="#63b8ff" d="M977.62,-261.23C1007.08,-251.19 1042.43,-239.13 1070.24,-229.65"/>
<polygon fill="#63b8ff" stroke="#63b8ff" points="976.82,-257.8 968.48,-264.34 979.08,-264.43 976.82,-257.8"/>
</a>
</g>
</g>
<!-- Node20&#45;&gt;Node5 -->
<g id="edge33_Node000020_Node000005" class="edge">
<title>Node20&#45;&gt;Node5</title>
<g id="a_edge33_Node000020_Node000005"><a xlink:title=" ">
<path fill="none" stroke="#63b8ff" d="M998.57,-266.54C1053.58,-256.37 1128.64,-242.3 1194.62,-229.25 1197.27,-228.73 1199.96,-228.19 1202.68,-227.64"/>
<polygon fill="#63b8ff" stroke="#63b8ff" points="998.19,-263.05 988.99,-268.31 999.46,-269.94 998.19,-263.05"/>
</a>
</g>
</g>
<!-- Node20&#45;&gt;Node6 -->
<g id="edge34_Node000020_Node000006" class="edge">
<title>Node20&#45;&gt;Node6</title>
<g id="a_edge34_Node000020_Node000006"><a xlink:title=" ">
<path fill="none" stroke="#63b8ff" d="M945.16,-256.68C952.41,-248.57 959.66,-239.08 964.62,-229.25 975.9,-206.92 980.53,-177.96 982.4,-160.19"/>
<polygon fill="#63b8ff" stroke="#63b8ff" points="942.78,-254.1 938.46,-263.78 947.87,-258.91 942.78,-254.1"/>
</a>
</g>
</g>
<!-- Node20&#45;&gt;Node7 -->
<g id="edge35_Node000020_Node000007" class="edge">
<title>Node20&#45;&gt;Node7</title>
<g id="a_edge35_Node000020_Node000007"><a xlink:title=" ">
<path fill="none" stroke="#63b8ff" d="M949.94,-258.12C974.01,-240.33 1008.79,-215.45 1040.62,-195.75 1061.4,-182.9 1085.61,-169.86 1104.52,-160.08"/>
<polygon fill="#63b8ff" stroke="#63b8ff" points="948.11,-255.12 942.17,-263.9 952.28,-260.74 948.11,-255.12"/>
</a>
</g>
</g>
<!-- Node20&#45;&gt;Node19 -->
<g id="edge31_Node000020_Node000019" class="edge">
<title>Node20&#45;&gt;Node19</title>
<g id="a_edge31_Node000020_Node000019"><a xlink:title=" ">
<path fill="none" stroke="#63b8ff" d="M853.04,-261.63C818.24,-251.5 776.16,-239.26 743.14,-229.65"/>
<polygon fill="#63b8ff" stroke="#63b8ff" points="852.02,-264.98 862.6,-264.41 853.98,-258.25 852.02,-264.98"/>
</a>
</g>
</g>
<!-- Node20&#45;&gt;Node21 -->
<g id="edge36_Node000020_Node000021" class="edge">
<title>Node20&#45;&gt;Node21</title>
<g id="a_edge36_Node000020_Node000021"><a xlink:title=" ">
<path fill="none" stroke="#63b8ff" d="M905.71,-254.91C899.8,-243.84 893.28,-231.6 888.86,-223.32"/>
<polygon fill="#63b8ff" stroke="#63b8ff" points="902.59,-256.49 910.38,-263.67 908.76,-253.2 902.59,-256.49"/>
</a>
</g>
</g>
<!-- Node23&#45;&gt;Node11 -->
<g id="edge43_Node000023_Node000011" class="edge">
<title>Node23&#45;&gt;Node11</title>
<g id="a_edge43_Node000023_Node000011"><a xlink:title=" ">
<path fill="none" stroke="#63b8ff" d="M278.22,-462.06C278.1,-453.84 277.97,-445.09 277.86,-437.88"/>
<polygon fill="#63b8ff" stroke="#63b8ff" points="274.72,-462.04 278.37,-471.99 281.72,-461.94 274.72,-462.04"/>
</a>
</g>
</g>
<!-- Node23&#45;&gt;Node13 -->
<g id="edge41_Node000023_Node000013" class="edge">
<title>Node23&#45;&gt;Node13</title>
<g id="a_edge41_Node000023_Node000013"><a xlink:title=" ">
<path fill="none" stroke="#63b8ff" d="M230.51,-468.36C189.45,-448.08 131.53,-413.83 95.62,-368.25 79.25,-347.47 71.02,-317.25 67.29,-298.93"/>
<polygon fill="#63b8ff" stroke="#63b8ff" points="228.93,-471.48 239.45,-472.67 231.97,-465.18 228.93,-471.48"/>
</a>
</g>
</g>
<!-- Node23&#45;&gt;Node20 -->
<g id="edge42_Node000023_Node000020" class="edge">
<title>Node23&#45;&gt;Node20</title>
<g id="a_edge42_Node000023_Node000020"><a xlink:title=" ">
<path fill="none" stroke="#63b8ff" d="M317.96,-468.05C355.58,-448.47 414.42,-420.22 468.62,-404.25 570.4,-374.26 602.21,-395.98 704.62,-368.25 770.71,-350.36 844.13,-318.48 885.81,-299.19"/>
<polygon fill="#63b8ff" stroke="#63b8ff" points="316.5,-464.87 309.28,-472.62 319.76,-471.06 316.5,-464.87"/>
</a>
</g>
</g>
<!-- Node24&#45;&gt;Node11 -->
<g id="edge57_Node000024_Node000011" class="edge">
<title>Node24&#45;&gt;Node11</title>
<g id="a_edge57_Node000024_Node000011"><a xlink:title=" ">
<path fill="none" stroke="#63b8ff" d="M616.41,-623.46C541.47,-616.9 430.68,-603.02 397.62,-576.75 358.65,-545.78 385.25,-512.19 353.62,-473.75 341.66,-459.2 324.58,-447.07 309.64,-438.22"/>
<polygon fill="#63b8ff" stroke="#63b8ff" points="615.88,-626.93 626.14,-624.29 616.47,-619.96 615.88,-626.93"/>
</a>
</g>
</g>
<!-- Node24&#45;&gt;Node14 -->
<g id="edge55_Node000024_Node000014" class="edge">
<title>Node24&#45;&gt;Node14</title>
<g id="a_edge55_Node000024_Node000014"><a xlink:title=" ">
<path fill="none" stroke="#63b8ff" d="M616.86,-614.45C557.23,-598.84 475.2,-567.44 430.62,-507.25 399.39,-465.08 401.61,-398.54 404.6,-368.34"/>
<polygon fill="#63b8ff" stroke="#63b8ff" points="615.7,-617.77 626.25,-616.82 617.41,-610.98 615.7,-617.77"/>
</a>
</g>
</g>
<!-- Node24&#45;&gt;Node20 -->
<g id="edge56_Node000024_Node000020" class="edge">
<title>Node24&#45;&gt;Node20</title>
<g id="a_edge56_Node000024_Node000020"><a xlink:title=" ">
<path fill="none" stroke="#63b8ff" d="M705.01,-603.33C717.12,-585.62 734.58,-561.86 752.62,-543.25 770.45,-524.86 779.11,-524.94 797.62,-507.25 853.22,-454.13 872,-439.61 900.62,-368.25 909.88,-345.17 915.08,-316.67 917.61,-299.17"/>
<polygon fill="#63b8ff" stroke="#63b8ff" points="702.38,-600.97 699.71,-611.22 708.19,-604.87 702.38,-600.97"/>
</a>
</g>
</g>
<!-- Node25 -->
<g id="Node000025" class="node">
<title>Node25</title>
<g id="a_Node000025"><a xlink:href="field__container_8h.html" target="_top" xlink:title=" ">
<polygon fill="white" stroke="#666666" points="705.12,-576.75 584.12,-576.75 584.12,-543.25 705.12,-543.25 705.12,-576.75"/>
<text text-anchor="start" x="592.12" y="-563.25" font-family="Helvetica,sans-Serif" font-size="10.00">include/prismspf/core</text>
<text text-anchor="middle" x="644.62" y="-550.5" font-family="Helvetica,sans-Serif" font-size="10.00">/field_container.h</text>
</a>
</g>
</g>
<!-- Node24&#45;&gt;Node25 -->
<g id="edge45_Node000024_Node000025" class="edge">
<title>Node24&#45;&gt;Node25</title>
<g id="a_edge45_Node000024_Node000025"><a xlink:title=" ">
<path fill="none" stroke="#63b8ff" d="M672.04,-603.06C666.31,-594.27 660.06,-584.68 654.98,-576.88"/>
<polygon fill="#63b8ff" stroke="#63b8ff" points="668.98,-604.77 677.37,-611.24 674.84,-600.95 668.98,-604.77"/>
</a>
</g>
</g>
<!-- Node24&#45;&gt;Node30 -->
<g id="edge58_Node000024_Node000030" class="edge">
<title>Node24&#45;&gt;Node30</title>
<g id="a_edge58_Node000024_Node000030"><a xlink:title=" ">
<path fill="none" stroke="#63b8ff" d="M734.45,-607.6C761.38,-595.32 794.16,-580.37 815.2,-570.77"/>
<polygon fill="#63b8ff" stroke="#63b8ff" points="733.1,-604.37 725.45,-611.7 736,-610.74 733.1,-604.37"/>
</a>
</g>
</g>
<!-- Node25&#45;&gt;Node20 -->
<g id="edge52_Node000025_Node000020" class="edge">
<title>Node25&#45;&gt;Node20</title>
<g id="a_edge52_Node000025_Node000020"><a xlink:title=" ">
<path fill="none" stroke="#63b8ff" d="M712.19,-538.69C731.39,-530.85 751.45,-520.51 767.62,-507.25 842.01,-446.27 894.55,-339.62 912.68,-299.17"/>
<polygon fill="#63b8ff" stroke="#63b8ff" points="711.11,-535.35 703.05,-542.24 713.64,-541.88 711.11,-535.35"/>
</a>
</g>
</g>
<!-- Node25&#45;&gt;Node21 -->
<g id="edge54_Node000025_Node000021" class="edge">
<title>Node25&#45;&gt;Node21</title>
<g id="a_edge54_Node000025_Node000021"><a xlink:title=" ">
<path fill="none" stroke="#63b8ff" d="M634.03,-532.63C625.12,-513.66 610.61,-488.84 590.62,-473.75 545.5,-439.69 502.47,-483.03 468.62,-437.75 459.71,-425.82 462.37,-417.76 468.62,-404.25 489.72,-358.71 600.82,-285.75 646.62,-265.25 699.1,-241.77 762.99,-228.61 811.21,-221.45"/>
<polygon fill="#63b8ff" stroke="#63b8ff" points="630.76,-533.91 638.01,-541.63 637.16,-531.07 630.76,-533.91"/>
</a>
</g>
</g>
<!-- Node26 -->
<g id="Node000026" class="node">
<title>Node26</title>
<g id="a_Node000026"><a xlink:href="pde__operator__base_8h.html" target="_top" xlink:title=" ">
<polygon fill="white" stroke="#666666" points="759.12,-507.25 638.12,-507.25 638.12,-473.75 759.12,-473.75 759.12,-507.25"/>
<text text-anchor="start" x="646.12" y="-493.75" font-family="Helvetica,sans-Serif" font-size="10.00">include/prismspf/core</text>
<text text-anchor="middle" x="698.62" y="-481" font-family="Helvetica,sans-Serif" font-size="10.00">/pde_operator_base.h</text>
</a>
</g>
</g>
<!-- Node25&#45;&gt;Node26 -->
<g id="edge46_Node000025_Node000026" class="edge">
<title>Node25&#45;&gt;Node26</title>
<g id="a_edge46_Node000025_Node000026"><a xlink:title=" ">
<path fill="none" stroke="#63b8ff" d="M664.52,-534.13C671.68,-525.19 679.55,-515.35 685.92,-507.38"/>
<polygon fill="#63b8ff" stroke="#63b8ff" points="661.88,-531.83 658.37,-541.82 667.35,-536.2 661.88,-531.83"/>
</a>
</g>
</g>
<!-- Node29 -->
<g id="Node000029" class="node">
<title>Node29</title>
<g id="a_Node000029"><a xlink:href="field__container_8cc.html" target="_top" xlink:title=" ">
<polygon fill="white" stroke="#666666" points="581.62,-500.88 439.62,-500.88 439.62,-480.12 581.62,-480.12 581.62,-500.88"/>
<text text-anchor="middle" x="510.62" y="-487.38" font-family="Helvetica,sans-Serif" font-size="10.00">src/core/field_container.cc</text>
</a>
</g>
</g>
<!-- Node25&#45;&gt;Node29 -->
<g id="edge53_Node000025_Node000029" class="edge">
<title>Node25&#45;&gt;Node29</title>
<g id="a_edge53_Node000025_Node000029"><a xlink:title=" ">
<path fill="none" stroke="#63b8ff" d="M602.49,-537.77C578.23,-525.56 548.91,-510.78 530.02,-501.27"/>
<polygon fill="#63b8ff" stroke="#63b8ff" points="600.67,-540.78 611.18,-542.15 603.82,-534.53 600.67,-540.78"/>
</a>
</g>
</g>
<!-- Node26&#45;&gt;Node11 -->
<g id="edge48_Node000026_Node000011" class="edge">
<title>Node26&#45;&gt;Node11</title>
<g id="a_edge48_Node000026_Node000011"><a xlink:title=" ">
<path fill="none" stroke="#63b8ff" d="M626.59,-477.95C547.9,-465.33 422.8,-445.28 345.7,-432.92"/>
<polygon fill="#63b8ff" stroke="#63b8ff" points="625.94,-481.39 636.36,-479.52 627.04,-474.48 625.94,-481.39"/>
</a>
</g>
</g>
<!-- Node26&#45;&gt;Node17 -->
<g id="edge49_Node000026_Node000017" class="edge">
<title>Node26&#45;&gt;Node17</title>
<g id="a_edge49_Node000026_Node000017"><a xlink:title=" ">
<path fill="none" stroke="#63b8ff" d="M741.98,-467.07C752.63,-459.32 762.68,-449.54 768.62,-437.75 775.33,-424.46 777.15,-416.46 768.62,-404.25 751.91,-380.3 722.83,-367.41 695.4,-360.47"/>
<polygon fill="#63b8ff" stroke="#63b8ff" points="740.18,-464.07 733.81,-472.53 744.07,-469.89 740.18,-464.07"/>
</a>
</g>
</g>
<!-- Node26&#45;&gt;Node20 -->
<g id="edge47_Node000026_Node000020" class="edge">
<title>Node26&#45;&gt;Node20</title>
<g id="a_edge47_Node000026_Node000020"><a xlink:title=" ">
<path fill="none" stroke="#63b8ff" d="M744.04,-467.94C758.37,-459.77 773.6,-449.55 785.62,-437.75 824.1,-400.01 813.08,-374.36 849.62,-334.75 862.33,-320.98 879.15,-308.4 893.12,-299.1"/>
<polygon fill="#63b8ff" stroke="#63b8ff" points="742.73,-464.66 735.63,-472.53 746.09,-470.81 742.73,-464.66"/>
</a>
</g>
</g>
<!-- Node27 -->
<g id="Node000027" class="node">
<title>Node27</title>
<g id="a_Node000027"><a xlink:href="dirichlet_8cc.html" target="_top" xlink:title=" ">
<polygon fill="white" stroke="#666666" points="587.88,-431.38 477.38,-431.38 477.38,-410.62 587.88,-410.62 587.88,-431.38"/>
<text text-anchor="middle" x="532.62" y="-417.88" font-family="Helvetica,sans-Serif" font-size="10.00">src/core/dirichlet.cc</text>
</a>
</g>
</g>
<!-- Node26&#45;&gt;Node27 -->
<g id="edge50_Node000026_Node000027" class="edge">
<title>Node26&#45;&gt;Node27</title>
<g id="a_edge50_Node000026_Node000027"><a xlink:title=" ">
<path fill="none" stroke="#63b8ff" d="M648.43,-469.09C618,-456.72 580.57,-441.5 556.65,-431.77"/>
<polygon fill="#63b8ff" stroke="#63b8ff" points="646.88,-472.24 657.46,-472.76 649.52,-465.75 646.88,-472.24"/>
</a>
</g>
</g>
<!-- Node28 -->
<g id="Node000028" class="node">
<title>Node28</title>
<g id="a_Node000028"><a xlink:href="initial__conditions_8cc.html" target="_top" xlink:title=" ">
<polygon fill="white" stroke="#666666" points="759.62,-431.38 605.62,-431.38 605.62,-410.62 759.62,-410.62 759.62,-431.38"/>
<text text-anchor="middle" x="682.62" y="-417.88" font-family="Helvetica,sans-Serif" font-size="10.00">src/core/initial_conditions.cc</text>
</a>
</g>
</g>
<!-- Node26&#45;&gt;Node28 -->
<g id="edge51_Node000026_Node000028" class="edge">
<title>Node26&#45;&gt;Node28</title>
<g id="a_edge51_Node000026_Node000028"><a xlink:title=" ">
<path fill="none" stroke="#63b8ff" d="M692.2,-462.38C689.64,-451.58 686.85,-439.85 684.95,-431.82"/>
<polygon fill="#63b8ff" stroke="#63b8ff" points="688.77,-463.11 694.48,-472.03 695.58,-461.49 688.77,-463.11"/>
</a>
</g>
</g>
</g>
</svg>
