<?xml version="1.0" encoding="UTF-8" standalone="no"?>
<!DOCTYPE svg PUBLIC "-//W3C//DTD SVG 1.1//EN"
 "http://www.w3.org/Graphics/SVG/1.1/DTD/svg11.dtd">
<!-- Generated by graphviz version 12.2.1 (20241206.2353)
 -->
<!-- Title: include/prismspf/user_inputs/constraint_parameters.h Pages: 1 -->
<svg width="2084pt" height="364pt"
 viewBox="0.00 0.00 2083.52 363.50" xmlns="http://www.w3.org/2000/svg" xmlns:xlink="http://www.w3.org/1999/xlink">
<g id="graph0" class="graph" transform="scale(1 1) rotate(0) translate(4 359.5)">
<title>include/prismspf/user_inputs/constraint_parameters.h</title>
<!-- Node1 -->
<g id="Node000001" class="node">
<title>Node1</title>
<g id="a_Node000001"><a xlink:title=" ">
<polygon fill="#999999" stroke="#666666" points="994.39,-355.5 820.89,-355.5 820.89,-322 994.39,-322 994.39,-355.5"/>
<text text-anchor="start" x="828.89" y="-342" font-family="Helvetica,sans-Serif" font-size="10.00">include/prismspf/user</text>
<text text-anchor="middle" x="907.64" y="-329.25" font-family="Helvetica,sans-Serif" font-size="10.00">_inputs/constraint_parameters.h</text>
</a>
</g>
</g>
<!-- Node2 -->
<g id="Node000002" class="node">
<title>Node2</title>
<g id="a_Node000002"><a xlink:title=" ">
<polygon fill="#e0e0e0" stroke="#999999" points="1099.77,-216.5 973.52,-216.5 973.52,-183 1099.77,-183 1099.77,-216.5"/>
<text text-anchor="start" x="981.52" y="-203" font-family="Helvetica,sans-Serif" font-size="10.00">deal.II/base/parameter</text>
<text text-anchor="middle" x="1036.64" y="-190.25" font-family="Helvetica,sans-Serif" font-size="10.00">_handler.h</text>
</a>
</g>
</g>
<!-- Node1&#45;&gt;Node2 -->
<g id="edge1_Node000001_Node000002" class="edge">
<title>Node1&#45;&gt;Node2</title>
<g id="a_edge1_Node000001_Node000002"><a xlink:title=" ">
<path fill="none" stroke="#63b8ff" d="M924.26,-321.65C934.58,-311.55 948.04,-298.17 959.64,-286 978.85,-265.83 1000.02,-242.3 1015.29,-225.07"/>
<polygon fill="#63b8ff" stroke="#63b8ff" points="1017.7,-227.64 1021.69,-217.83 1012.45,-223 1017.7,-227.64"/>
</a>
</g>
</g>
<!-- Node3 -->
<g id="Node000003" class="node">
<title>Node3</title>
<g id="a_Node000003"><a xlink:title=" ">
<polygon fill="#e0e0e0" stroke="#999999" points="140.14,-279.62 31.14,-279.62 31.14,-258.88 140.14,-258.88 140.14,-279.62"/>
<text text-anchor="middle" x="85.64" y="-266.12" font-family="Helvetica,sans-Serif" font-size="10.00">deal.II/base/point.h</text>
</a>
</g>
</g>
<!-- Node1&#45;&gt;Node3 -->
<g id="edge2_Node000001_Node000003" class="edge">
<title>Node1&#45;&gt;Node3</title>
<g id="a_edge2_Node000001_Node000003"><a xlink:title=" ">
<path fill="none" stroke="#63b8ff" d="M820.42,-336.69C678.84,-333.87 390.58,-323.58 149.64,-286 143.92,-285.11 137.97,-283.95 132.09,-282.68"/>
<polygon fill="#63b8ff" stroke="#63b8ff" points="132.97,-279.29 122.44,-280.44 131.39,-286.11 132.97,-279.29"/>
</a>
</g>
</g>
<!-- Node4 -->
<g id="Node000004" class="node">
<title>Node4</title>
<g id="a_Node000004"><a xlink:title=" ">
<polygon fill="#e0e0e0" stroke="#999999" points="272.77,-279.62 158.52,-279.62 158.52,-258.88 272.77,-258.88 272.77,-279.62"/>
<text text-anchor="middle" x="215.64" y="-266.12" font-family="Helvetica,sans-Serif" font-size="10.00">deal.II/base/tensor.h</text>
</a>
</g>
</g>
<!-- Node1&#45;&gt;Node4 -->
<g id="edge3_Node000001_Node000004" class="edge">
<title>Node1&#45;&gt;Node4</title>
<g id="a_edge3_Node000001_Node000004"><a xlink:title=" ">
<path fill="none" stroke="#63b8ff" d="M820.56,-334.73C699.17,-329.56 472.52,-316.48 281.64,-286 275.68,-285.05 269.46,-283.85 263.32,-282.53"/>
<polygon fill="#63b8ff" stroke="#63b8ff" points="264.45,-279.2 253.92,-280.41 262.91,-286.03 264.45,-279.2"/>
</a>
</g>
</g>
<!-- Node5 -->
<g id="Node000005" class="node">
<title>Node5</title>
<g id="a_Node000005"><a xlink:title=" ">
<polygon fill="#e0e0e0" stroke="#999999" points="402.27,-279.62 291.02,-279.62 291.02,-258.88 402.27,-258.88 402.27,-279.62"/>
<text text-anchor="middle" x="346.64" y="-266.12" font-family="Helvetica,sans-Serif" font-size="10.00">deal.II/base/types.h</text>
</a>
</g>
</g>
<!-- Node1&#45;&gt;Node5 -->
<g id="edge4_Node000001_Node000005" class="edge">
<title>Node1&#45;&gt;Node5</title>
<g id="a_edge4_Node000001_Node000005"><a xlink:title=" ">
<path fill="none" stroke="#63b8ff" d="M820.5,-332.32C720.88,-325.27 553.15,-310.83 410.64,-286 405.29,-285.07 399.72,-283.94 394.19,-282.72"/>
<polygon fill="#63b8ff" stroke="#63b8ff" points="395.02,-279.32 384.48,-280.46 393.43,-286.13 395.02,-279.32"/>
</a>
</g>
</g>
<!-- Node6 -->
<g id="Node000006" class="node">
<title>Node6</title>
<g id="a_Node000006"><a xlink:title=" ">
<polygon fill="#e0e0e0" stroke="#999999" points="541.14,-279.62 420.14,-279.62 420.14,-258.88 541.14,-258.88 541.14,-279.62"/>
<text text-anchor="middle" x="480.64" y="-266.12" font-family="Helvetica,sans-Serif" font-size="10.00">deal.II/base/utilities.h</text>
</a>
</g>
</g>
<!-- Node1&#45;&gt;Node6 -->
<g id="edge5_Node000001_Node000006" class="edge">
<title>Node1&#45;&gt;Node6</title>
<g id="a_edge5_Node000001_Node000006"><a xlink:title=" ">
<path fill="none" stroke="#63b8ff" d="M820.4,-327.02C747.93,-317.65 642.25,-302.92 550.64,-286 544.97,-284.95 539.06,-283.77 533.18,-282.53"/>
<polygon fill="#63b8ff" stroke="#63b8ff" points="533.98,-279.12 523.47,-280.43 532.5,-285.97 533.98,-279.12"/>
</a>
</g>
</g>
<!-- Node7 -->
<g id="Node000007" class="node">
<title>Node7</title>
<g id="a_Node000007"><a xlink:title=" ">
<polygon fill="#e0e0e0" stroke="#999999" points="683.64,-286 559.64,-286 559.64,-252.5 683.64,-252.5 683.64,-286"/>
<text text-anchor="start" x="567.64" y="-272.5" font-family="Helvetica,sans-Serif" font-size="10.00">boost/algorithm/string</text>
<text text-anchor="middle" x="621.64" y="-259.75" font-family="Helvetica,sans-Serif" font-size="10.00">/predicate.hpp</text>
</a>
</g>
</g>
<!-- Node1&#45;&gt;Node7 -->
<g id="edge6_Node000001_Node000007" class="edge">
<title>Node1&#45;&gt;Node7</title>
<g id="a_edge6_Node000001_Node000007"><a xlink:title=" ">
<path fill="none" stroke="#63b8ff" d="M839.14,-321.58C795.57,-311.3 739.2,-297.99 694.76,-287.51"/>
<polygon fill="#63b8ff" stroke="#63b8ff" points="695.74,-284.14 685.21,-285.25 694.14,-290.96 695.74,-284.14"/>
</a>
</g>
</g>
<!-- Node8 -->
<g id="Node000008" class="node">
<title>Node8</title>
<g id="a_Node000008"><a xlink:href="conditional__ostreams_8h.html" target="_top" xlink:title=" ">
<polygon fill="white" stroke="#666666" points="879.52,-286 739.77,-286 739.77,-252.5 879.52,-252.5 879.52,-286"/>
<text text-anchor="start" x="747.77" y="-272.5" font-family="Helvetica,sans-Serif" font-size="10.00">prismspf/core/conditional</text>
<text text-anchor="middle" x="809.64" y="-259.75" font-family="Helvetica,sans-Serif" font-size="10.00">_ostreams.h</text>
</a>
</g>
</g>
<!-- Node1&#45;&gt;Node8 -->
<g id="edge7_Node000001_Node000008" class="edge">
<title>Node1&#45;&gt;Node8</title>
<g id="a_edge7_Node000001_Node000008"><a xlink:title=" ">
<path fill="none" stroke="#63b8ff" d="M884.42,-321.75C871.82,-313.07 856.04,-302.21 842.22,-292.69"/>
<polygon fill="#63b8ff" stroke="#63b8ff" points="844.51,-290.01 834.29,-287.22 840.54,-295.78 844.51,-290.01"/>
</a>
</g>
</g>
<!-- Node10 -->
<g id="Node000010" class="node">
<title>Node10</title>
<g id="a_Node000010"><a xlink:title=" ">
<polygon fill="#e0e0e0" stroke="#999999" points="1017.64,-20.75 917.64,-20.75 917.64,0 1017.64,0 1017.64,-20.75"/>
<text text-anchor="middle" x="967.64" y="-7.25" font-family="Helvetica,sans-Serif" font-size="10.00">prismspf/config.h</text>
</a>
</g>
</g>
<!-- Node1&#45;&gt;Node10 -->
<g id="edge43_Node000001_Node000010" class="edge">
<title>Node1&#45;&gt;Node10</title>
<g id="a_edge43_Node000001_Node000010"><a xlink:title=" ">
<path fill="none" stroke="#63b8ff" d="M820.62,-338.51C609.22,-339.55 81.53,-336.95 21.64,-286 -7.92,-260.85 2.64,-239.57 2.64,-200.75 2.64,-200.75 2.64,-200.75 2.64,-135.62 2.64,-44.14 693.71,-18.51 906.22,-12.8"/>
<polygon fill="#63b8ff" stroke="#63b8ff" points="906.04,-16.3 915.94,-12.54 905.85,-9.3 906.04,-16.3"/>
</a>
</g>
</g>
<!-- Node11 -->
<g id="Node000011" class="node">
<title>Node11</title>
<g id="a_Node000011"><a xlink:href="exceptions_8h.html" target="_top" xlink:title=" ">
<polygon fill="white" stroke="#666666" points="663.64,-210.12 515.64,-210.12 515.64,-189.38 663.64,-189.38 663.64,-210.12"/>
<text text-anchor="middle" x="589.64" y="-196.62" font-family="Helvetica,sans-Serif" font-size="10.00">prismspf/core/exceptions.h</text>
</a>
</g>
</g>
<!-- Node1&#45;&gt;Node11 -->
<g id="edge10_Node000001_Node000011" class="edge">
<title>Node1&#45;&gt;Node11</title>
<g id="a_edge10_Node000001_Node000011"><a xlink:title=" ">
<path fill="none" stroke="#63b8ff" d="M824.94,-321.56C794.15,-313.51 759.67,-301.99 730.64,-286 710.92,-275.14 711.3,-265.1 692.64,-252.5 670.75,-237.71 644.05,-224.42 623.32,-215.01"/>
<polygon fill="#63b8ff" stroke="#63b8ff" points="625.03,-211.93 614.47,-211.07 622.18,-218.33 625.03,-211.93"/>
</a>
</g>
</g>
<!-- Node13 -->
<g id="Node000013" class="node">
<title>Node13</title>
<g id="a_Node000013"><a xlink:href="types_8h.html" target="_top" xlink:title=" ">
<polygon fill="white" stroke="#666666" points="949.52,-147 827.77,-147 827.77,-126.25 949.52,-126.25 949.52,-147"/>
<text text-anchor="middle" x="888.64" y="-133.5" font-family="Helvetica,sans-Serif" font-size="10.00">prismspf/core/types.h</text>
</a>
</g>
</g>
<!-- Node1&#45;&gt;Node13 -->
<g id="edge30_Node000001_Node000013" class="edge">
<title>Node1&#45;&gt;Node13</title>
<g id="a_edge30_Node000001_Node000013"><a xlink:title=" ">
<path fill="none" stroke="#63b8ff" d="M906.12,-321.71C902.7,-285.72 894.43,-198.56 890.62,-158.45"/>
<polygon fill="#63b8ff" stroke="#63b8ff" points="894.12,-158.34 889.69,-148.72 887.16,-159 894.12,-158.34"/>
</a>
</g>
</g>
<!-- Node15 -->
<g id="Node000015" class="node">
<title>Node15</title>
<g id="a_Node000015"><a xlink:href="type__enums_8h.html" target="_top" xlink:title=" ">
<polygon fill="white" stroke="#666666" points="1363.39,-90.25 1255.89,-90.25 1255.89,-56.75 1363.39,-56.75 1363.39,-90.25"/>
<text text-anchor="start" x="1263.89" y="-76.75" font-family="Helvetica,sans-Serif" font-size="10.00">prismspf/core/type</text>
<text text-anchor="middle" x="1309.64" y="-64" font-family="Helvetica,sans-Serif" font-size="10.00">_enums.h</text>
</a>
</g>
</g>
<!-- Node1&#45;&gt;Node15 -->
<g id="edge29_Node000001_Node000015" class="edge">
<title>Node1&#45;&gt;Node15</title>
<g id="a_edge29_Node000001_Node000015"><a xlink:title=" ">
<path fill="none" stroke="#63b8ff" d="M994.57,-332.34C1206.28,-318.24 1734.94,-277.24 1784.64,-216.5 1794.07,-204.98 1793.92,-194.64 1784.64,-183 1734.12,-119.63 1493.1,-90.34 1375.07,-79.61"/>
<polygon fill="#63b8ff" stroke="#63b8ff" points="1375.48,-76.13 1365.21,-78.74 1374.86,-83.11 1375.48,-76.13"/>
</a>
</g>
</g>
<!-- Node17 -->
<g id="Node000017" class="node">
<title>Node17</title>
<g id="a_Node000017"><a xlink:title=" ">
<polygon fill="#e0e0e0" stroke="#999999" points="1628.52,-20.75 1584.77,-20.75 1584.77,0 1628.52,0 1628.52,-20.75"/>
<text text-anchor="middle" x="1606.64" y="-7.25" font-family="Helvetica,sans-Serif" font-size="10.00">string</text>
</a>
</g>
</g>
<!-- Node1&#45;&gt;Node17 -->
<g id="edge46_Node000001_Node000017" class="edge">
<title>Node1&#45;&gt;Node17</title>
<g id="a_edge46_Node000001_Node000017"><a xlink:title=" ">
<path fill="none" stroke="#63b8ff" d="M994.76,-334.56C1233.33,-324.68 1879.64,-289.69 1879.64,-200.75 1879.64,-200.75 1879.64,-200.75 1879.64,-135.62 1879.64,-31.54 1713.23,-14.25 1640.26,-11.66"/>
<polygon fill="#63b8ff" stroke="#63b8ff" points="1640.59,-8.17 1630.5,-11.4 1640.4,-15.17 1640.59,-8.17"/>
</a>
</g>
</g>
<!-- Node19 -->
<g id="Node000019" class="node">
<title>Node19</title>
<g id="a_Node000019"><a xlink:href="field__attributes_8h.html" target="_top" xlink:title=" ">
<polygon fill="white" stroke="#666666" points="1262.02,-216.5 1155.27,-216.5 1155.27,-183 1262.02,-183 1262.02,-216.5"/>
<text text-anchor="start" x="1163.27" y="-203" font-family="Helvetica,sans-Serif" font-size="10.00">prismspf/core/field</text>
<text text-anchor="middle" x="1208.64" y="-190.25" font-family="Helvetica,sans-Serif" font-size="10.00">_attributes.h</text>
</a>
</g>
</g>
<!-- Node1&#45;&gt;Node19 -->
<g id="edge21_Node000001_Node000019" class="edge">
<title>Node1&#45;&gt;Node19</title>
<g id="a_edge21_Node000001_Node000019"><a xlink:title=" ">
<path fill="none" stroke="#63b8ff" d="M943.06,-321.63C997.74,-296.74 1102.7,-248.97 1163,-221.52"/>
<polygon fill="#63b8ff" stroke="#63b8ff" points="1164.33,-224.76 1171.99,-217.43 1161.43,-218.39 1164.33,-224.76"/>
</a>
</g>
</g>
<!-- Node20 -->
<g id="Node000020" class="node">
<title>Node20</title>
<g id="a_Node000020"><a xlink:title=" ">
<polygon fill="#e0e0e0" stroke="#999999" points="1161.52,-147 1123.77,-147 1123.77,-126.25 1161.52,-126.25 1161.52,-147"/>
<text text-anchor="middle" x="1142.64" y="-133.5" font-family="Helvetica,sans-Serif" font-size="10.00">map</text>
</a>
</g>
</g>
<!-- Node1&#45;&gt;Node20 -->
<g id="edge45_Node000001_Node000020" class="edge">
<title>Node1&#45;&gt;Node20</title>
<g id="a_edge45_Node000001_Node000020"><a xlink:title=" ">
<path fill="none" stroke="#63b8ff" d="M911.56,-321.51C920.49,-285.77 943.24,-202.02 964.64,-183 1013.28,-139.76 1045.35,-163.2 1112.37,-147.22"/>
<polygon fill="#63b8ff" stroke="#63b8ff" points="1113.19,-150.63 1121.97,-144.69 1111.41,-143.86 1113.19,-150.63"/>
</a>
</g>
</g>
<!-- Node22 -->
<g id="Node000022" class="node">
<title>Node22</title>
<g id="a_Node000022"><a xlink:href="parameter__base_8h.html" target="_top" xlink:title=" ">
<polygon fill="white" stroke="#666666" points="1431.64,-286 1313.64,-286 1313.64,-252.5 1431.64,-252.5 1431.64,-286"/>
<text text-anchor="start" x="1321.64" y="-272.5" font-family="Helvetica,sans-Serif" font-size="10.00">prismspf/user_inputs</text>
<text text-anchor="middle" x="1372.64" y="-259.75" font-family="Helvetica,sans-Serif" font-size="10.00">/parameter_base.h</text>
</a>
</g>
</g>
<!-- Node1&#45;&gt;Node22 -->
<g id="edge31_Node000001_Node000022" class="edge">
<title>Node1&#45;&gt;Node22</title>
<g id="a_edge31_Node000001_Node000022"><a xlink:title=" ">
<path fill="none" stroke="#63b8ff" d="M994.83,-325.09C1083.62,-312.21 1219.59,-292.47 1301.92,-280.52"/>
<polygon fill="#63b8ff" stroke="#63b8ff" points="1302.27,-284 1311.67,-279.1 1301.27,-277.07 1302.27,-284"/>
</a>
</g>
</g>
<!-- Node28 -->
<g id="Node000028" class="node">
<title>Node28</title>
<g id="a_Node000028"><a xlink:title=" ">
<polygon fill="#e0e0e0" stroke="#999999" points="1971.27,-279.62 1908.02,-279.62 1908.02,-258.88 1971.27,-258.88 1971.27,-279.62"/>
<text text-anchor="middle" x="1939.64" y="-266.12" font-family="Helvetica,sans-Serif" font-size="10.00">algorithm</text>
</a>
</g>
</g>
<!-- Node1&#45;&gt;Node28 -->
<g id="edge44_Node000001_Node000028" class="edge">
<title>Node1&#45;&gt;Node28</title>
<g id="a_edge44_Node000001_Node000028"><a xlink:title=" ">
<path fill="none" stroke="#63b8ff" d="M994.58,-336.27C1202.28,-332.24 1722.72,-319.08 1893.64,-286 1897.21,-285.31 1900.87,-284.41 1904.5,-283.38"/>
<polygon fill="#63b8ff" stroke="#63b8ff" points="1905.22,-286.83 1913.71,-280.49 1903.12,-280.15 1905.22,-286.83"/>
</a>
</g>
</g>
<!-- Node29 -->
<g id="Node000029" class="node">
<title>Node29</title>
<g id="a_Node000029"><a xlink:title=" ">
<polygon fill="#e0e0e0" stroke="#999999" points="2075.52,-279.62 1989.77,-279.62 1989.77,-258.88 2075.52,-258.88 2075.52,-279.62"/>
<text text-anchor="middle" x="2032.64" y="-266.12" font-family="Helvetica,sans-Serif" font-size="10.00">unordered_set</text>
</a>
</g>
</g>
<!-- Node1&#45;&gt;Node29 -->
<g id="edge47_Node000001_Node000029" class="edge">
<title>Node1&#45;&gt;Node29</title>
<g id="a_edge47_Node000001_Node000029"><a xlink:title=" ">
<path fill="none" stroke="#63b8ff" d="M994.79,-336.31C1215.42,-332.21 1791.93,-318.62 1980.64,-286 1984.96,-285.25 1989.43,-284.26 1993.84,-283.13"/>
<polygon fill="#63b8ff" stroke="#63b8ff" points="1994.47,-286.59 2003.15,-280.52 1992.58,-279.85 1994.47,-286.59"/>
</a>
</g>
</g>
<!-- Node9 -->
<g id="Node000009" class="node">
<title>Node9</title>
<g id="a_Node000009"><a xlink:title=" ">
<polygon fill="#e0e0e0" stroke="#999999" points="811.27,-216.5 682.02,-216.5 682.02,-183 811.27,-183 811.27,-216.5"/>
<text text-anchor="start" x="690.02" y="-203" font-family="Helvetica,sans-Serif" font-size="10.00">deal.II/base/conditional</text>
<text text-anchor="middle" x="746.64" y="-190.25" font-family="Helvetica,sans-Serif" font-size="10.00">_ostream.h</text>
</a>
</g>
</g>
<!-- Node8&#45;&gt;Node9 -->
<g id="edge8_Node000008_Node000009" class="edge">
<title>Node8&#45;&gt;Node9</title>
<g id="a_edge8_Node000008_Node000009"><a xlink:title=" ">
<path fill="none" stroke="#63b8ff" d="M794.71,-252.25C787.1,-244.1 777.69,-234.01 769.21,-224.93"/>
<polygon fill="#63b8ff" stroke="#63b8ff" points="771.88,-222.66 762.5,-217.74 766.76,-227.44 771.88,-222.66"/>
</a>
</g>
</g>
<!-- Node8&#45;&gt;Node10 -->
<g id="edge9_Node000008_Node000010" class="edge">
<title>Node8&#45;&gt;Node10</title>
<g id="a_edge9_Node000008_Node000010"><a xlink:title=" ">
<path fill="none" stroke="#63b8ff" d="M813.99,-252.07C816.49,-241.94 819.37,-228.56 820.64,-216.5 822.2,-201.69 821.05,-197.88 820.64,-183 819.08,-126.9 788.12,-101 822.64,-56.75 842.35,-31.49 876.01,-19.98 905.93,-14.87"/>
<polygon fill="#63b8ff" stroke="#63b8ff" points="906.31,-18.35 915.69,-13.43 905.28,-11.42 906.31,-18.35"/>
</a>
</g>
</g>
<!-- Node11&#45;&gt;Node10 -->
<g id="edge19_Node000011_Node000010" class="edge">
<title>Node11&#45;&gt;Node10</title>
<g id="a_edge19_Node000011_Node000010"><a xlink:title=" ">
<path fill="none" stroke="#63b8ff" d="M599.77,-189.17C627.31,-163.64 706.79,-93.46 785.64,-56.75 823.9,-38.94 870.06,-27.53 906.33,-20.61"/>
<polygon fill="#63b8ff" stroke="#63b8ff" points="906.55,-24.13 915.75,-18.88 905.28,-17.25 906.55,-24.13"/>
</a>
</g>
</g>
<!-- Node12 -->
<g id="Node000012" class="node">
<title>Node12</title>
<g id="a_Node000012"><a xlink:title=" ">
<polygon fill="#e0e0e0" stroke="#999999" points="1105.39,-147 967.89,-147 967.89,-126.25 1105.39,-126.25 1105.39,-147"/>
<text text-anchor="middle" x="1036.64" y="-133.5" font-family="Helvetica,sans-Serif" font-size="10.00">deal.II/base/exceptions.h</text>
</a>
</g>
</g>
<!-- Node11&#45;&gt;Node12 -->
<g id="edge11_Node000011_Node000012" class="edge">
<title>Node11&#45;&gt;Node12</title>
<g id="a_edge11_Node000011_Node000012"><a xlink:title=" ">
<path fill="none" stroke="#63b8ff" d="M638.71,-188.91C649.84,-186.82 661.63,-184.73 672.64,-183 699.98,-178.71 857.97,-159.33 956.61,-147.33"/>
<polygon fill="#63b8ff" stroke="#63b8ff" points="956.74,-150.84 966.24,-146.16 955.89,-143.89 956.74,-150.84"/>
</a>
</g>
</g>
<!-- Node11&#45;&gt;Node13 -->
<g id="edge12_Node000011_Node000013" class="edge">
<title>Node11&#45;&gt;Node13</title>
<g id="a_edge12_Node000011_Node000013"><a xlink:title=" ">
<path fill="none" stroke="#63b8ff" d="M637.68,-188.93C689.88,-178.26 773.33,-161.2 829.52,-149.71"/>
<polygon fill="#63b8ff" stroke="#63b8ff" points="830.14,-153.16 839.24,-147.72 828.74,-146.3 830.14,-153.16"/>
</a>
</g>
</g>
<!-- Node18 -->
<g id="Node000018" class="node">
<title>Node18</title>
<g id="a_Node000018"><a xlink:title=" ">
<polygon fill="#e0e0e0" stroke="#999999" points="621.64,-147 557.64,-147 557.64,-126.25 621.64,-126.25 621.64,-147"/>
<text text-anchor="middle" x="589.64" y="-133.5" font-family="Helvetica,sans-Serif" font-size="10.00">exception</text>
</a>
</g>
</g>
<!-- Node11&#45;&gt;Node18 -->
<g id="edge20_Node000011_Node000018" class="edge">
<title>Node11&#45;&gt;Node18</title>
<g id="a_edge20_Node000011_Node000018"><a xlink:title=" ">
<path fill="none" stroke="#63b8ff" d="M589.64,-188.93C589.64,-180.77 589.64,-168.88 589.64,-158.6"/>
<polygon fill="#63b8ff" stroke="#63b8ff" points="593.14,-158.73 589.64,-148.73 586.14,-158.73 593.14,-158.73"/>
</a>
</g>
</g>
<!-- Node13&#45;&gt;Node10 -->
<g id="edge18_Node000013_Node000010" class="edge">
<title>Node13&#45;&gt;Node10</title>
<g id="a_edge18_Node000013_Node000010"><a xlink:title=" ">
<path fill="none" stroke="#63b8ff" d="M907.69,-125.87C921.13,-118.03 938.48,-105.76 948.64,-90.25 960.02,-72.88 964.59,-49.36 966.43,-32.53"/>
<polygon fill="#63b8ff" stroke="#63b8ff" points="969.9,-32.94 967.24,-22.69 962.93,-32.37 969.9,-32.94"/>
</a>
</g>
</g>
<!-- Node14 -->
<g id="Node000014" class="node">
<title>Node14</title>
<g id="a_Node000014"><a xlink:title=" ">
<polygon fill="#e0e0e0" stroke="#999999" points="939.77,-90.25 831.52,-90.25 831.52,-56.75 939.77,-56.75 939.77,-90.25"/>
<text text-anchor="start" x="839.52" y="-76.75" font-family="Helvetica,sans-Serif" font-size="10.00">deal.II/matrix_free</text>
<text text-anchor="middle" x="885.64" y="-64" font-family="Helvetica,sans-Serif" font-size="10.00">/evaluation_flags.h</text>
</a>
</g>
</g>
<!-- Node13&#45;&gt;Node14 -->
<g id="edge13_Node000013_Node000014" class="edge">
<title>Node13&#45;&gt;Node14</title>
<g id="a_edge13_Node000013_Node000014"><a xlink:title=" ">
<path fill="none" stroke="#63b8ff" d="M888.16,-125.8C887.84,-119.38 887.42,-110.65 887,-102.2"/>
<polygon fill="#63b8ff" stroke="#63b8ff" points="890.5,-102.06 886.51,-92.25 883.51,-102.41 890.5,-102.06"/>
</a>
</g>
</g>
<!-- Node13&#45;&gt;Node15 -->
<g id="edge14_Node000013_Node000015" class="edge">
<title>Node13&#45;&gt;Node15</title>
<g id="a_edge14_Node000013_Node000015"><a xlink:title=" ">
<path fill="none" stroke="#63b8ff" d="M949.86,-126.74C1028.49,-115.32 1164.37,-95.59 1244.74,-83.92"/>
<polygon fill="#63b8ff" stroke="#63b8ff" points="1244.81,-87.45 1254.2,-82.55 1243.8,-80.52 1244.81,-87.45"/>
</a>
</g>
</g>
<!-- Node15&#45;&gt;Node10 -->
<g id="edge15_Node000015_Node000010" class="edge">
<title>Node15&#45;&gt;Node10</title>
<g id="a_edge15_Node000015_Node000010"><a xlink:title=" ">
<path fill="none" stroke="#63b8ff" d="M1255.52,-59.64C1250.83,-58.62 1246.16,-57.65 1241.64,-56.75 1168.97,-42.33 1084.82,-28.87 1029.15,-20.42"/>
<polygon fill="#63b8ff" stroke="#63b8ff" points="1029.97,-17 1019.56,-18.97 1028.93,-23.92 1029.97,-17"/>
</a>
</g>
</g>
<!-- Node16 -->
<g id="Node000016" class="node">
<title>Node16</title>
<g id="a_Node000016"><a xlink:title=" ">
<polygon fill="#e0e0e0" stroke="#999999" points="1334.14,-20.75 1285.14,-20.75 1285.14,0 1334.14,0 1334.14,-20.75"/>
<text text-anchor="middle" x="1309.64" y="-7.25" font-family="Helvetica,sans-Serif" font-size="10.00">cstdint</text>
</a>
</g>
</g>
<!-- Node15&#45;&gt;Node16 -->
<g id="edge16_Node000015_Node000016" class="edge">
<title>Node15&#45;&gt;Node16</title>
<g id="a_edge16_Node000015_Node000016"><a xlink:title=" ">
<path fill="none" stroke="#63b8ff" d="M1309.64,-56.44C1309.64,-49.1 1309.64,-40.32 1309.64,-32.46"/>
<polygon fill="#63b8ff" stroke="#63b8ff" points="1313.14,-32.73 1309.64,-22.73 1306.14,-32.73 1313.14,-32.73"/>
</a>
</g>
</g>
<!-- Node15&#45;&gt;Node17 -->
<g id="edge17_Node000015_Node000017" class="edge">
<title>Node15&#45;&gt;Node17</title>
<g id="a_edge17_Node000015_Node000017"><a xlink:title=" ">
<path fill="none" stroke="#63b8ff" d="M1363.8,-59.79C1368.48,-58.74 1373.14,-57.72 1377.64,-56.75 1447.12,-41.82 1528.85,-26.06 1573.45,-17.61"/>
<polygon fill="#63b8ff" stroke="#63b8ff" points="1573.82,-21.1 1583,-15.8 1572.52,-14.22 1573.82,-21.1"/>
</a>
</g>
</g>
<!-- Node19&#45;&gt;Node10 -->
<g id="edge25_Node000019_Node000010" class="edge">
<title>Node19&#45;&gt;Node10</title>
<g id="a_edge25_Node000019_Node000010"><a xlink:title=" ">
<path fill="none" stroke="#63b8ff" d="M1203.29,-182.7C1197.35,-166.82 1186.46,-142.58 1170.64,-126.25 1123.25,-77.31 1050.47,-43.08 1006.14,-25.36"/>
<polygon fill="#63b8ff" stroke="#63b8ff" points="1007.52,-22.14 996.93,-21.77 1004.97,-28.66 1007.52,-22.14"/>
</a>
</g>
</g>
<!-- Node19&#45;&gt;Node12 -->
<g id="edge22_Node000019_Node000012" class="edge">
<title>Node19&#45;&gt;Node12</title>
<g id="a_edge22_Node000019_Node000012"><a xlink:title=" ">
<path fill="none" stroke="#63b8ff" d="M1163,-182.53C1135.48,-172.75 1100.83,-160.44 1074.78,-151.18"/>
<polygon fill="#63b8ff" stroke="#63b8ff" points="1076.21,-147.97 1065.62,-147.92 1073.87,-154.57 1076.21,-147.97"/>
</a>
</g>
</g>
<!-- Node19&#45;&gt;Node13 -->
<g id="edge24_Node000019_Node000013" class="edge">
<title>Node19&#45;&gt;Node13</title>
<g id="a_edge24_Node000019_Node000013"><a xlink:title=" ">
<path fill="none" stroke="#63b8ff" d="M1154.94,-185.86C1150.45,-184.86 1145.97,-183.9 1141.64,-183 1080.6,-170.36 1010.85,-158.01 960.06,-149.39"/>
<polygon fill="#63b8ff" stroke="#63b8ff" points="960.82,-145.96 950.37,-147.75 959.65,-152.87 960.82,-145.96"/>
</a>
</g>
</g>
<!-- Node19&#45;&gt;Node15 -->
<g id="edge23_Node000019_Node000015" class="edge">
<title>Node19&#45;&gt;Node15</title>
<g id="a_edge23_Node000019_Node000015"><a xlink:title=" ">
<path fill="none" stroke="#63b8ff" d="M1216.41,-182.57C1224.17,-167.24 1237.04,-143.99 1251.64,-126.25 1259.98,-116.12 1270.35,-106.22 1280.01,-97.84"/>
<polygon fill="#63b8ff" stroke="#63b8ff" points="1282.05,-100.69 1287.44,-91.57 1277.54,-95.34 1282.05,-100.69"/>
</a>
</g>
</g>
<!-- Node19&#45;&gt;Node17 -->
<g id="edge27_Node000019_Node000017" class="edge">
<title>Node19&#45;&gt;Node17</title>
<g id="a_edge27_Node000019_Node000017"><a xlink:title=" ">
<path fill="none" stroke="#63b8ff" d="M1221.95,-182.57C1236.03,-166.36 1259.65,-141.65 1284.64,-126.25 1310.24,-110.48 1496.99,-47.72 1573.8,-22.23"/>
<polygon fill="#63b8ff" stroke="#63b8ff" points="1574.89,-25.55 1583.28,-19.08 1572.69,-18.91 1574.89,-25.55"/>
</a>
</g>
</g>
<!-- Node19&#45;&gt;Node20 -->
<g id="edge26_Node000019_Node000020" class="edge">
<title>Node19&#45;&gt;Node20</title>
<g id="a_edge26_Node000019_Node000020"><a xlink:title=" ">
<path fill="none" stroke="#63b8ff" d="M1191.3,-182.69C1182.15,-174.22 1170.92,-163.81 1161.55,-155.14"/>
<polygon fill="#63b8ff" stroke="#63b8ff" points="1164.09,-152.72 1154.38,-148.5 1159.34,-157.86 1164.09,-152.72"/>
</a>
</g>
</g>
<!-- Node21 -->
<g id="Node000021" class="node">
<title>Node21</title>
<g id="a_Node000021"><a xlink:title=" ">
<polygon fill="#e0e0e0" stroke="#999999" points="1340.02,-147 1293.27,-147 1293.27,-126.25 1340.02,-126.25 1340.02,-147"/>
<text text-anchor="middle" x="1316.64" y="-133.5" font-family="Helvetica,sans-Serif" font-size="10.00">vector</text>
</a>
</g>
</g>
<!-- Node19&#45;&gt;Node21 -->
<g id="edge28_Node000019_Node000021" class="edge">
<title>Node19&#45;&gt;Node21</title>
<g id="a_edge28_Node000019_Node000021"><a xlink:title=" ">
<path fill="none" stroke="#63b8ff" d="M1237.3,-182.53C1253.5,-173.36 1273.63,-161.97 1289.56,-152.95"/>
<polygon fill="#63b8ff" stroke="#63b8ff" points="1291.05,-156.13 1298.03,-148.16 1287.6,-150.04 1291.05,-156.13"/>
</a>
</g>
</g>
<!-- Node22&#45;&gt;Node2 -->
<g id="edge32_Node000022_Node000002" class="edge">
<title>Node22&#45;&gt;Node2</title>
<g id="a_edge32_Node000022_Node000002"><a xlink:title=" ">
<path fill="none" stroke="#63b8ff" d="M1313.22,-256.46C1260.71,-246.02 1182.07,-230.33 1113.64,-216.5 1112.81,-216.33 1111.98,-216.16 1111.14,-215.99"/>
<polygon fill="#63b8ff" stroke="#63b8ff" points="1112.07,-212.61 1101.57,-214.05 1110.67,-219.47 1112.07,-212.61"/>
</a>
</g>
</g>
<!-- Node22&#45;&gt;Node10 -->
<g id="edge36_Node000022_Node000010" class="edge">
<title>Node22&#45;&gt;Node10</title>
<g id="a_edge36_Node000022_Node000010"><a xlink:title=" ">
<path fill="none" stroke="#63b8ff" d="M1362.14,-252.22C1356.31,-242.36 1349.66,-229.22 1346.64,-216.5 1339.51,-186.43 1347.78,-177.89 1348.64,-147 1348.9,-137.78 1354.14,-133.65 1348.64,-126.25 1343.48,-119.31 1113.2,-52.92 1013.2,-24.35"/>
<polygon fill="#63b8ff" stroke="#63b8ff" points="1014.27,-21.01 1003.69,-21.63 1012.35,-27.74 1014.27,-21.01"/>
</a>
</g>
</g>
<!-- Node22&#45;&gt;Node13 -->
<g id="edge35_Node000022_Node000013" class="edge">
<title>Node22&#45;&gt;Node13</title>
<g id="a_edge35_Node000022_Node000013"><a xlink:title=" ">
<path fill="none" stroke="#63b8ff" d="M1313.25,-262.78C1266,-256.55 1199.29,-243.5 1146.64,-216.5 1126.61,-206.23 1128.79,-193.06 1108.64,-183 1083.11,-170.26 1014.88,-157.25 961.11,-148.45"/>
<polygon fill="#63b8ff" stroke="#63b8ff" points="961.8,-145.02 951.37,-146.88 960.68,-151.93 961.8,-145.02"/>
</a>
</g>
</g>
<!-- Node22&#45;&gt;Node17 -->
<g id="edge40_Node000022_Node000017" class="edge">
<title>Node22&#45;&gt;Node17</title>
<g id="a_edge40_Node000022_Node000017"><a xlink:title=" ">
<path fill="none" stroke="#63b8ff" d="M1431.88,-265.08C1540.3,-258.67 1761.69,-242.52 1784.64,-216.5 1846.99,-145.83 1703.48,-60.47 1637.55,-26.44"/>
<polygon fill="#63b8ff" stroke="#63b8ff" points="1639.16,-23.33 1628.66,-21.93 1635.99,-29.58 1639.16,-23.33"/>
</a>
</g>
</g>
<!-- Node22&#45;&gt;Node19 -->
<g id="edge34_Node000022_Node000019" class="edge">
<title>Node22&#45;&gt;Node19</title>
<g id="a_edge34_Node000022_Node000019"><a xlink:title=" ">
<path fill="none" stroke="#63b8ff" d="M1333.36,-252.08C1310.82,-242.81 1282.32,-231.07 1258.25,-221.17"/>
<polygon fill="#63b8ff" stroke="#63b8ff" points="1259.87,-218.05 1249.29,-217.48 1257.2,-224.52 1259.87,-218.05"/>
</a>
</g>
</g>
<!-- Node22&#45;&gt;Node21 -->
<g id="edge42_Node000022_Node000021" class="edge">
<title>Node22&#45;&gt;Node21</title>
<g id="a_edge42_Node000022_Node000021"><a xlink:title=" ">
<path fill="none" stroke="#63b8ff" d="M1345.48,-252.12C1333.33,-243.28 1320.28,-231.14 1313.64,-216.5 1305.35,-198.2 1307.54,-174.99 1310.93,-158.49"/>
<polygon fill="#63b8ff" stroke="#63b8ff" points="1314.31,-159.4 1313.24,-148.85 1307.5,-157.76 1314.31,-159.4"/>
</a>
</g>
</g>
<!-- Node23 -->
<g id="Node000023" class="node">
<title>Node23</title>
<g id="a_Node000023"><a xlink:title=" ">
<polygon fill="#e0e0e0" stroke="#999999" points="1480.02,-210.12 1355.27,-210.12 1355.27,-189.38 1480.02,-189.38 1480.02,-210.12"/>
<text text-anchor="middle" x="1417.64" y="-196.62" font-family="Helvetica,sans-Serif" font-size="10.00">deal.II/base/patterns.h</text>
</a>
</g>
</g>
<!-- Node22&#45;&gt;Node23 -->
<g id="edge33_Node000022_Node000023" class="edge">
<title>Node22&#45;&gt;Node23</title>
<g id="a_edge33_Node000022_Node000023"><a xlink:title=" ">
<path fill="none" stroke="#63b8ff" d="M1383.31,-252.25C1389.78,-242.55 1398.08,-230.1 1404.89,-219.87"/>
<polygon fill="#63b8ff" stroke="#63b8ff" points="1407.62,-222.09 1410.25,-211.83 1401.79,-218.21 1407.62,-222.09"/>
</a>
</g>
</g>
<!-- Node24 -->
<g id="Node000024" class="node">
<title>Node24</title>
<g id="a_Node000024"><a xlink:title=" ">
<polygon fill="#e0e0e0" stroke="#999999" points="1541.14,-210.12 1498.14,-210.12 1498.14,-189.38 1541.14,-189.38 1541.14,-210.12"/>
<text text-anchor="middle" x="1519.64" y="-196.62" font-family="Helvetica,sans-Serif" font-size="10.00">cfloat</text>
</a>
</g>
</g>
<!-- Node22&#45;&gt;Node24 -->
<g id="edge37_Node000022_Node000024" class="edge">
<title>Node22&#45;&gt;Node24</title>
<g id="a_edge37_Node000022_Node000024"><a xlink:title=" ">
<path fill="none" stroke="#63b8ff" d="M1410.21,-252.06C1433.03,-242.09 1462.66,-228.88 1488.64,-216.5 1489.25,-216.21 1489.87,-215.91 1490.5,-215.61"/>
<polygon fill="#63b8ff" stroke="#63b8ff" points="1491.93,-218.81 1499.34,-211.24 1488.83,-212.53 1491.93,-218.81"/>
</a>
</g>
</g>
<!-- Node25 -->
<g id="Node000025" class="node">
<title>Node25</title>
<g id="a_Node000025"><a xlink:title=" ">
<polygon fill="#e0e0e0" stroke="#999999" points="1618.39,-210.12 1558.89,-210.12 1558.89,-189.38 1618.39,-189.38 1618.39,-210.12"/>
<text text-anchor="middle" x="1588.64" y="-196.62" font-family="Helvetica,sans-Serif" font-size="10.00">concepts</text>
</a>
</g>
</g>
<!-- Node22&#45;&gt;Node25 -->
<g id="edge38_Node000022_Node000025" class="edge">
<title>Node22&#45;&gt;Node25</title>
<g id="a_edge38_Node000022_Node000025"><a xlink:title=" ">
<path fill="none" stroke="#63b8ff" d="M1432.09,-252.73C1466.93,-243.2 1511.63,-230.21 1550.64,-216.5 1552.4,-215.88 1554.2,-215.23 1556.01,-214.55"/>
<polygon fill="#63b8ff" stroke="#63b8ff" points="1556.87,-217.97 1564.89,-211.05 1554.3,-211.46 1556.87,-217.97"/>
</a>
</g>
</g>
<!-- Node26 -->
<g id="Node000026" class="node">
<title>Node26</title>
<g id="a_Node000026"><a xlink:title=" ">
<polygon fill="#e0e0e0" stroke="#999999" points="1685.14,-210.12 1636.14,-210.12 1636.14,-189.38 1685.14,-189.38 1685.14,-210.12"/>
<text text-anchor="middle" x="1660.64" y="-196.62" font-family="Helvetica,sans-Serif" font-size="10.00">ranges</text>
</a>
</g>
</g>
<!-- Node22&#45;&gt;Node26 -->
<g id="edge39_Node000022_Node000026" class="edge">
<title>Node22&#45;&gt;Node26</title>
<g id="a_edge39_Node000022_Node000026"><a xlink:title=" ">
<path fill="none" stroke="#63b8ff" d="M1431.95,-260.43C1484.32,-252.53 1562.31,-238.35 1627.64,-216.5 1629,-216.05 1630.37,-215.55 1631.74,-215.03"/>
<polygon fill="#63b8ff" stroke="#63b8ff" points="1632.93,-218.33 1640.73,-211.16 1630.16,-211.89 1632.93,-218.33"/>
</a>
</g>
</g>
<!-- Node27 -->
<g id="Node000027" class="node">
<title>Node27</title>
<g id="a_Node000027"><a xlink:title=" ">
<polygon fill="#e0e0e0" stroke="#999999" points="1775.77,-210.12 1703.52,-210.12 1703.52,-189.38 1775.77,-189.38 1775.77,-210.12"/>
<text text-anchor="middle" x="1739.64" y="-196.62" font-family="Helvetica,sans-Serif" font-size="10.00">string_view</text>
</a>
</g>
</g>
<!-- Node22&#45;&gt;Node27 -->
<g id="edge41_Node000022_Node000027" class="edge">
<title>Node22&#45;&gt;Node27</title>
<g id="a_edge41_Node000022_Node000027"><a xlink:title=" ">
<path fill="none" stroke="#63b8ff" d="M1432.04,-261.91C1497.14,-254.21 1604.35,-239.36 1694.64,-216.5 1697.55,-215.76 1700.54,-214.92 1703.52,-214.01"/>
<polygon fill="#63b8ff" stroke="#63b8ff" points="1704.32,-217.44 1712.74,-211.01 1702.15,-210.78 1704.32,-217.44"/>
</a>
</g>
</g>
</g>
</svg>
