<?xml version="1.0" encoding="UTF-8" standalone="no"?>
<!DOCTYPE svg PUBLIC "-//W3C//DTD SVG 1.1//EN"
 "http://www.w3.org/Graphics/SVG/1.1/DTD/svg11.dtd">
<!-- Generated by graphviz version 12.2.1 (20241206.2353)
 -->
<!-- Title: include/prismspf/user_inputs/constraint_parameters.h Pages: 1 -->
<svg width="1853pt" height="307pt"
 viewBox="0.00 0.00 1853.00 306.75" xmlns="http://www.w3.org/2000/svg" xmlns:xlink="http://www.w3.org/1999/xlink">
<g id="graph0" class="graph" transform="scale(1 1) rotate(0) translate(4 302.75)">
<title>include/prismspf/user_inputs/constraint_parameters.h</title>
<!-- Node1 -->
<g id="Node000001" class="node">
<title>Node1</title>
<g id="a_Node000001"><a xlink:title=" ">
<polygon fill="#999999" stroke="#666666" points="1120.88,-298.75 947.38,-298.75 947.38,-265.25 1120.88,-265.25 1120.88,-298.75"/>
<text text-anchor="start" x="955.38" y="-285.25" font-family="Helvetica,sans-Serif" font-size="10.00">include/prismspf/user</text>
<text text-anchor="middle" x="1034.12" y="-272.5" font-family="Helvetica,sans-Serif" font-size="10.00">_inputs/constraint_parameters.h</text>
</a>
</g>
</g>
<!-- Node2 -->
<g id="Node000002" class="node">
<title>Node2</title>
<g id="a_Node000002"><a xlink:title=" ">
<polygon fill="#e0e0e0" stroke="#999999" points="126.25,-229.25 0,-229.25 0,-195.75 126.25,-195.75 126.25,-229.25"/>
<text text-anchor="start" x="8" y="-215.75" font-family="Helvetica,sans-Serif" font-size="10.00">deal.II/base/parameter</text>
<text text-anchor="middle" x="63.12" y="-203" font-family="Helvetica,sans-Serif" font-size="10.00">_handler.h</text>
</a>
</g>
</g>
<!-- Node1&#45;&gt;Node2 -->
<g id="edge1_Node000001_Node000002" class="edge">
<title>Node1&#45;&gt;Node2</title>
<g id="a_edge1_Node000001_Node000002"><a xlink:title=" ">
<path fill="none" stroke="#63b8ff" d="M946.9,-280.54C787.75,-278.7 439.58,-270.08 137.8,-229.48"/>
<polygon fill="#63b8ff" stroke="#63b8ff" points="138.51,-226.05 128.13,-228.17 137.57,-232.98 138.51,-226.05"/>
</a>
</g>
</g>
<!-- Node3 -->
<g id="Node000003" class="node">
<title>Node3</title>
<g id="a_Node000003"><a xlink:title=" ">
<polygon fill="#e0e0e0" stroke="#999999" points="253.62,-222.88 144.62,-222.88 144.62,-202.12 253.62,-202.12 253.62,-222.88"/>
<text text-anchor="middle" x="199.12" y="-209.38" font-family="Helvetica,sans-Serif" font-size="10.00">deal.II/base/point.h</text>
</a>
</g>
</g>
<!-- Node1&#45;&gt;Node3 -->
<g id="edge2_Node000001_Node000003" class="edge">
<title>Node1&#45;&gt;Node3</title>
<g id="a_edge2_Node000001_Node000003"><a xlink:title=" ">
<path fill="none" stroke="#63b8ff" d="M947.15,-280.09C803.78,-277.48 509.2,-267.49 263.12,-229.25 257.41,-228.36 251.45,-227.21 245.57,-225.93"/>
<polygon fill="#63b8ff" stroke="#63b8ff" points="246.45,-222.54 235.92,-223.7 244.88,-229.36 246.45,-222.54"/>
</a>
</g>
</g>
<!-- Node4 -->
<g id="Node000004" class="node">
<title>Node4</title>
<g id="a_Node000004"><a xlink:title=" ">
<polygon fill="#e0e0e0" stroke="#999999" points="386.25,-222.88 272,-222.88 272,-202.12 386.25,-202.12 386.25,-222.88"/>
<text text-anchor="middle" x="329.12" y="-209.38" font-family="Helvetica,sans-Serif" font-size="10.00">deal.II/base/tensor.h</text>
</a>
</g>
</g>
<!-- Node1&#45;&gt;Node4 -->
<g id="edge3_Node000001_Node000004" class="edge">
<title>Node1&#45;&gt;Node4</title>
<g id="a_edge3_Node000001_Node000004"><a xlink:title=" ">
<path fill="none" stroke="#63b8ff" d="M947.06,-278.18C823.61,-273.23 590.92,-260.35 395.12,-229.25 389.16,-228.3 382.94,-227.1 376.81,-225.79"/>
<polygon fill="#63b8ff" stroke="#63b8ff" points="377.93,-222.46 367.4,-223.67 376.39,-229.29 377.93,-222.46"/>
</a>
</g>
</g>
<!-- Node5 -->
<g id="Node000005" class="node">
<title>Node5</title>
<g id="a_Node000005"><a xlink:title=" ">
<polygon fill="#e0e0e0" stroke="#999999" points="515.75,-222.88 404.5,-222.88 404.5,-202.12 515.75,-202.12 515.75,-222.88"/>
<text text-anchor="middle" x="460.12" y="-209.38" font-family="Helvetica,sans-Serif" font-size="10.00">deal.II/base/types.h</text>
</a>
</g>
</g>
<!-- Node1&#45;&gt;Node5 -->
<g id="edge4_Node000001_Node000005" class="edge">
<title>Node1&#45;&gt;Node5</title>
<g id="a_edge4_Node000001_Node000005"><a xlink:title=" ">
<path fill="none" stroke="#63b8ff" d="M946.99,-275.89C845.05,-269.05 671.45,-254.72 524.12,-229.25 518.56,-228.29 512.76,-227.11 507.03,-225.84"/>
<polygon fill="#63b8ff" stroke="#63b8ff" points="508.16,-222.51 497.63,-223.65 506.57,-229.33 508.16,-222.51"/>
</a>
</g>
</g>
<!-- Node6 -->
<g id="Node000006" class="node">
<title>Node6</title>
<g id="a_Node000006"><a xlink:title=" ">
<polygon fill="#e0e0e0" stroke="#999999" points="654.62,-222.88 533.62,-222.88 533.62,-202.12 654.62,-202.12 654.62,-222.88"/>
<text text-anchor="middle" x="594.12" y="-209.38" font-family="Helvetica,sans-Serif" font-size="10.00">deal.II/base/utilities.h</text>
</a>
</g>
</g>
<!-- Node1&#45;&gt;Node6 -->
<g id="edge5_Node000001_Node000006" class="edge">
<title>Node1&#45;&gt;Node6</title>
<g id="a_edge5_Node000001_Node000006"><a xlink:title=" ">
<path fill="none" stroke="#63b8ff" d="M947.08,-270.88C871.9,-261.65 760.48,-246.8 664.12,-229.25 658.23,-228.18 652.07,-226.95 645.97,-225.66"/>
<polygon fill="#63b8ff" stroke="#63b8ff" points="647.09,-222.33 636.57,-223.63 645.61,-229.17 647.09,-222.33"/>
</a>
</g>
</g>
<!-- Node7 -->
<g id="Node000007" class="node">
<title>Node7</title>
<g id="a_Node000007"><a xlink:title=" ">
<polygon fill="#e0e0e0" stroke="#999999" points="797.12,-229.25 673.12,-229.25 673.12,-195.75 797.12,-195.75 797.12,-229.25"/>
<text text-anchor="start" x="681.12" y="-215.75" font-family="Helvetica,sans-Serif" font-size="10.00">boost/algorithm/string</text>
<text text-anchor="middle" x="735.12" y="-203" font-family="Helvetica,sans-Serif" font-size="10.00">/predicate.hpp</text>
</a>
</g>
</g>
<!-- Node1&#45;&gt;Node7 -->
<g id="edge6_Node000001_Node000007" class="edge">
<title>Node1&#45;&gt;Node7</title>
<g id="a_edge6_Node000001_Node000007"><a xlink:title=" ">
<path fill="none" stroke="#63b8ff" d="M962.51,-264.83C915.96,-254.32 855.45,-240.66 808.55,-230.08"/>
<polygon fill="#63b8ff" stroke="#63b8ff" points="809.55,-226.71 799.02,-227.92 808.01,-233.54 809.55,-226.71"/>
</a>
</g>
</g>
<!-- Node8 -->
<g id="Node000008" class="node">
<title>Node8</title>
<g id="a_Node000008"><a xlink:href="conditional__ostreams_8h.html" target="_top" xlink:title=" ">
<polygon fill="white" stroke="#666666" points="955,-229.25 815.25,-229.25 815.25,-195.75 955,-195.75 955,-229.25"/>
<text text-anchor="start" x="823.25" y="-215.75" font-family="Helvetica,sans-Serif" font-size="10.00">prismspf/core/conditional</text>
<text text-anchor="middle" x="885.12" y="-203" font-family="Helvetica,sans-Serif" font-size="10.00">_ostreams.h</text>
</a>
</g>
</g>
<!-- Node1&#45;&gt;Node8 -->
<g id="edge7_Node000001_Node000008" class="edge">
<title>Node1&#45;&gt;Node8</title>
<g id="a_edge7_Node000001_Node000008"><a xlink:title=" ">
<path fill="none" stroke="#63b8ff" d="M998.44,-264.83C978.24,-255.68 952.76,-244.14 931.08,-234.32"/>
<polygon fill="#63b8ff" stroke="#63b8ff" points="932.71,-231.22 922.16,-230.28 929.82,-237.59 932.71,-231.22"/>
</a>
</g>
</g>
<!-- Node10 -->
<g id="Node000010" class="node">
<title>Node10</title>
<g id="a_Node000010"><a xlink:title=" ">
<polygon fill="#e0e0e0" stroke="#999999" points="1112.12,-20.75 1012.12,-20.75 1012.12,0 1112.12,0 1112.12,-20.75"/>
<text text-anchor="middle" x="1062.12" y="-7.25" font-family="Helvetica,sans-Serif" font-size="10.00">prismspf/config.h</text>
</a>
</g>
</g>
<!-- Node1&#45;&gt;Node10 -->
<g id="edge31_Node000001_Node000010" class="edge">
<title>Node1&#45;&gt;Node10</title>
<g id="a_edge31_Node000001_Node000010"><a xlink:title=" ">
<path fill="none" stroke="#63b8ff" d="M1020.89,-264.78C996.42,-234.61 946.19,-171.83 942.12,-159.75 937.38,-145.64 936.28,-139.94 942.12,-126.25 961.07,-81.88 1006.49,-46.45 1035.7,-27.22"/>
<polygon fill="#63b8ff" stroke="#63b8ff" points="1037.46,-30.25 1044.01,-21.92 1033.7,-24.34 1037.46,-30.25"/>
</a>
</g>
</g>
<!-- Node11 -->
<g id="Node000011" class="node">
<title>Node11</title>
<g id="a_Node000011"><a xlink:href="exceptions_8h.html" target="_top" xlink:title=" ">
<polygon fill="white" stroke="#666666" points="1159.12,-222.88 1011.12,-222.88 1011.12,-202.12 1159.12,-202.12 1159.12,-222.88"/>
<text text-anchor="middle" x="1085.12" y="-209.38" font-family="Helvetica,sans-Serif" font-size="10.00">prismspf/core/exceptions.h</text>
</a>
</g>
</g>
<!-- Node1&#45;&gt;Node11 -->
<g id="edge10_Node000001_Node000011" class="edge">
<title>Node1&#45;&gt;Node11</title>
<g id="a_edge10_Node000001_Node000011"><a xlink:title=" ">
<path fill="none" stroke="#63b8ff" d="M1046.21,-265C1053.62,-255.19 1063.15,-242.59 1070.92,-232.3"/>
<polygon fill="#63b8ff" stroke="#63b8ff" points="1073.56,-234.62 1076.79,-224.53 1067.97,-230.4 1073.56,-234.62"/>
</a>
</g>
</g>
<!-- Node13 -->
<g id="Node000013" class="node">
<title>Node13</title>
<g id="a_Node000013"><a xlink:href="types_8h.html" target="_top" xlink:title=" ">
<polygon fill="white" stroke="#666666" points="1193,-153.38 1071.25,-153.38 1071.25,-132.62 1193,-132.62 1193,-153.38"/>
<text text-anchor="middle" x="1132.12" y="-139.88" font-family="Helvetica,sans-Serif" font-size="10.00">prismspf/core/types.h</text>
</a>
</g>
</g>
<!-- Node1&#45;&gt;Node13 -->
<g id="edge30_Node000001_Node000013" class="edge">
<title>Node1&#45;&gt;Node13</title>
<g id="a_edge30_Node000001_Node000013"><a xlink:title=" ">
<path fill="none" stroke="#63b8ff" d="M1120.35,-264.87C1139.09,-257.21 1156.7,-245.91 1168.12,-229.25 1182.59,-208.15 1165.13,-180.31 1149.87,-162.29"/>
<polygon fill="#63b8ff" stroke="#63b8ff" points="1152.57,-160.06 1143.28,-154.97 1147.37,-164.74 1152.57,-160.06"/>
</a>
</g>
</g>
<!-- Node15 -->
<g id="Node000015" class="node">
<title>Node15</title>
<g id="a_Node000015"><a xlink:href="type__enums_8h.html" target="_top" xlink:title=" ">
<polygon fill="white" stroke="#666666" points="1446.88,-90.25 1339.38,-90.25 1339.38,-56.75 1446.88,-56.75 1446.88,-90.25"/>
<text text-anchor="start" x="1347.38" y="-76.75" font-family="Helvetica,sans-Serif" font-size="10.00">prismspf/core/type</text>
<text text-anchor="middle" x="1393.12" y="-64" font-family="Helvetica,sans-Serif" font-size="10.00">_enums.h</text>
</a>
</g>
</g>
<!-- Node1&#45;&gt;Node15 -->
<g id="edge29_Node000001_Node000015" class="edge">
<title>Node1&#45;&gt;Node15</title>
<g id="a_edge29_Node000001_Node000015"><a xlink:title=" ">
<path fill="none" stroke="#63b8ff" d="M1121.03,-276.78C1236.13,-270.25 1432.36,-255.63 1499.12,-229.25 1547.11,-210.29 1569.01,-205.88 1592.12,-159.75 1620.32,-103.49 1526.51,-84.35 1458.23,-77.85"/>
<polygon fill="#63b8ff" stroke="#63b8ff" points="1458.86,-74.39 1448.59,-77.01 1458.25,-81.36 1458.86,-74.39"/>
</a>
</g>
</g>
<!-- Node17 -->
<g id="Node000017" class="node">
<title>Node17</title>
<g id="a_Node000017"><a xlink:title=" ">
<polygon fill="#e0e0e0" stroke="#999999" points="1497,-20.75 1453.25,-20.75 1453.25,0 1497,0 1497,-20.75"/>
<text text-anchor="middle" x="1475.12" y="-7.25" font-family="Helvetica,sans-Serif" font-size="10.00">string</text>
</a>
</g>
</g>
<!-- Node1&#45;&gt;Node17 -->
<g id="edge34_Node000001_Node000017" class="edge">
<title>Node1&#45;&gt;Node17</title>
<g id="a_edge34_Node000001_Node000017"><a xlink:title=" ">
<path fill="none" stroke="#63b8ff" d="M1121.31,-279.76C1247.76,-276.71 1474.85,-266.09 1547.12,-229.25 1594.73,-204.98 1631.45,-174.79 1609.12,-126.25 1587.81,-79.9 1537.55,-45.25 1505,-26.69"/>
<polygon fill="#63b8ff" stroke="#63b8ff" points="1506.89,-23.73 1496.44,-21.96 1503.51,-29.86 1506.89,-23.73"/>
</a>
</g>
</g>
<!-- Node19 -->
<g id="Node000019" class="node">
<title>Node19</title>
<g id="a_Node000019"><a xlink:href="field__attributes_8h.html" target="_top" xlink:title=" ">
<polygon fill="white" stroke="#666666" points="1449.5,-229.25 1342.75,-229.25 1342.75,-195.75 1449.5,-195.75 1449.5,-229.25"/>
<text text-anchor="start" x="1350.75" y="-215.75" font-family="Helvetica,sans-Serif" font-size="10.00">prismspf/core/field</text>
<text text-anchor="middle" x="1396.12" y="-203" font-family="Helvetica,sans-Serif" font-size="10.00">_attributes.h</text>
</a>
</g>
</g>
<!-- Node1&#45;&gt;Node19 -->
<g id="edge21_Node000001_Node000019" class="edge">
<title>Node1&#45;&gt;Node19</title>
<g id="a_edge21_Node000001_Node000019"><a xlink:title=" ">
<path fill="none" stroke="#63b8ff" d="M1120.83,-264.83C1185.58,-252.76 1272.66,-236.52 1331.41,-225.57"/>
<polygon fill="#63b8ff" stroke="#63b8ff" points="1331.72,-229.07 1340.91,-223.8 1330.44,-222.19 1331.72,-229.07"/>
</a>
</g>
</g>
<!-- Node20 -->
<g id="Node000020" class="node">
<title>Node20</title>
<g id="a_Node000020"><a xlink:title=" ">
<polygon fill="#e0e0e0" stroke="#999999" points="1583,-153.38 1545.25,-153.38 1545.25,-132.62 1583,-132.62 1583,-153.38"/>
<text text-anchor="middle" x="1564.12" y="-139.88" font-family="Helvetica,sans-Serif" font-size="10.00">map</text>
</a>
</g>
</g>
<!-- Node1&#45;&gt;Node20 -->
<g id="edge33_Node000001_Node000020" class="edge">
<title>Node1&#45;&gt;Node20</title>
<g id="a_edge33_Node000001_Node000020"><a xlink:title=" ">
<path fill="none" stroke="#63b8ff" d="M1121.22,-276.01C1227.17,-268.97 1399.2,-254.12 1458.12,-229.25 1494.54,-213.88 1528.65,-182.17 1547.9,-162.05"/>
<polygon fill="#63b8ff" stroke="#63b8ff" points="1550.37,-164.54 1554.62,-154.84 1545.25,-159.77 1550.37,-164.54"/>
</a>
</g>
</g>
<!-- Node22 -->
<g id="Node000022" class="node">
<title>Node22</title>
<g id="a_Node000022"><a xlink:title=" ">
<polygon fill="#e0e0e0" stroke="#999999" points="1740.75,-222.88 1677.5,-222.88 1677.5,-202.12 1740.75,-202.12 1740.75,-222.88"/>
<text text-anchor="middle" x="1709.12" y="-209.38" font-family="Helvetica,sans-Serif" font-size="10.00">algorithm</text>
</a>
</g>
</g>
<!-- Node1&#45;&gt;Node22 -->
<g id="edge32_Node000001_Node000022" class="edge">
<title>Node1&#45;&gt;Node22</title>
<g id="a_edge32_Node000001_Node000022"><a xlink:title=" ">
<path fill="none" stroke="#63b8ff" d="M1121.32,-280.61C1243.66,-278.54 1472.61,-269.06 1663.12,-229.25 1666.49,-228.55 1669.94,-227.67 1673.38,-226.69"/>
<polygon fill="#63b8ff" stroke="#63b8ff" points="1674.2,-230.1 1682.69,-223.77 1672.1,-223.42 1674.2,-230.1"/>
</a>
</g>
</g>
<!-- Node23 -->
<g id="Node000023" class="node">
<title>Node23</title>
<g id="a_Node000023"><a xlink:title=" ">
<polygon fill="#e0e0e0" stroke="#999999" points="1845,-222.88 1759.25,-222.88 1759.25,-202.12 1845,-202.12 1845,-222.88"/>
<text text-anchor="middle" x="1802.12" y="-209.38" font-family="Helvetica,sans-Serif" font-size="10.00">unordered_set</text>
</a>
</g>
</g>
<!-- Node1&#45;&gt;Node23 -->
<g id="edge35_Node000001_Node000023" class="edge">
<title>Node1&#45;&gt;Node23</title>
<g id="a_edge35_Node000001_Node000023"><a xlink:title=" ">
<path fill="none" stroke="#63b8ff" d="M1121.16,-280.9C1256.72,-279.37 1526.02,-270.75 1750.12,-229.25 1754.26,-228.48 1758.54,-227.51 1762.78,-226.41"/>
<polygon fill="#63b8ff" stroke="#63b8ff" points="1763.66,-229.8 1772.34,-223.73 1761.77,-223.06 1763.66,-229.8"/>
</a>
</g>
</g>
<!-- Node9 -->
<g id="Node000009" class="node">
<title>Node9</title>
<g id="a_Node000009"><a xlink:title=" ">
<polygon fill="#e0e0e0" stroke="#999999" points="856.75,-159.75 727.5,-159.75 727.5,-126.25 856.75,-126.25 856.75,-159.75"/>
<text text-anchor="start" x="735.5" y="-146.25" font-family="Helvetica,sans-Serif" font-size="10.00">deal.II/base/conditional</text>
<text text-anchor="middle" x="792.12" y="-133.5" font-family="Helvetica,sans-Serif" font-size="10.00">_ostream.h</text>
</a>
</g>
</g>
<!-- Node8&#45;&gt;Node9 -->
<g id="edge8_Node000008_Node000009" class="edge">
<title>Node8&#45;&gt;Node9</title>
<g id="a_edge8_Node000008_Node000009"><a xlink:title=" ">
<path fill="none" stroke="#63b8ff" d="M863.09,-195.5C851.24,-186.91 836.44,-176.16 823.42,-166.72"/>
<polygon fill="#63b8ff" stroke="#63b8ff" points="825.7,-164.05 815.55,-161 821.59,-169.71 825.7,-164.05"/>
</a>
</g>
</g>
<!-- Node8&#45;&gt;Node10 -->
<g id="edge9_Node000008_Node000010" class="edge">
<title>Node8&#45;&gt;Node10</title>
<g id="a_edge9_Node000008_Node000010"><a xlink:title=" ">
<path fill="none" stroke="#63b8ff" d="M882.56,-195.65C878.53,-164.86 874.42,-96.47 909.12,-56.75 931.87,-30.72 968.8,-19.28 1000.67,-14.4"/>
<polygon fill="#63b8ff" stroke="#63b8ff" points="1000.76,-17.92 1010.21,-13.13 999.83,-10.98 1000.76,-17.92"/>
</a>
</g>
</g>
<!-- Node11&#45;&gt;Node10 -->
<g id="edge19_Node000011_Node000010" class="edge">
<title>Node11&#45;&gt;Node10</title>
<g id="a_edge19_Node000011_Node000010"><a xlink:title=" ">
<path fill="none" stroke="#63b8ff" d="M1079.44,-201.99C1073.76,-191.92 1065.43,-175.33 1062.12,-159.75 1052.67,-115.19 1056.28,-61.4 1059.41,-32.38"/>
<polygon fill="#63b8ff" stroke="#63b8ff" points="1062.85,-33.09 1060.55,-22.75 1055.9,-32.27 1062.85,-33.09"/>
</a>
</g>
</g>
<!-- Node12 -->
<g id="Node000012" class="node">
<title>Node12</title>
<g id="a_Node000012"><a xlink:title=" ">
<polygon fill="#e0e0e0" stroke="#999999" points="1348.88,-153.38 1211.38,-153.38 1211.38,-132.62 1348.88,-132.62 1348.88,-153.38"/>
<text text-anchor="middle" x="1280.12" y="-139.88" font-family="Helvetica,sans-Serif" font-size="10.00">deal.II/base/exceptions.h</text>
</a>
</g>
</g>
<!-- Node11&#45;&gt;Node12 -->
<g id="edge11_Node000011_Node000012" class="edge">
<title>Node11&#45;&gt;Node12</title>
<g id="a_edge11_Node000011_Node000012"><a xlink:title=" ">
<path fill="none" stroke="#63b8ff" d="M1113.48,-201.68C1147.13,-190.04 1203.42,-170.55 1241.15,-157.49"/>
<polygon fill="#63b8ff" stroke="#63b8ff" points="1242,-160.9 1250.31,-154.32 1239.71,-154.29 1242,-160.9"/>
</a>
</g>
</g>
<!-- Node11&#45;&gt;Node13 -->
<g id="edge12_Node000011_Node000013" class="edge">
<title>Node11&#45;&gt;Node13</title>
<g id="a_edge12_Node000011_Node000013"><a xlink:title=" ">
<path fill="none" stroke="#63b8ff" d="M1091.86,-201.83C1098.91,-191.7 1110.16,-175.55 1118.98,-162.88"/>
<polygon fill="#63b8ff" stroke="#63b8ff" points="1121.7,-165.1 1124.54,-154.9 1115.95,-161.1 1121.7,-165.1"/>
</a>
</g>
</g>
<!-- Node18 -->
<g id="Node000018" class="node">
<title>Node18</title>
<g id="a_Node000018"><a xlink:title=" ">
<polygon fill="#e0e0e0" stroke="#999999" points="1015.12,-153.38 951.12,-153.38 951.12,-132.62 1015.12,-132.62 1015.12,-153.38"/>
<text text-anchor="middle" x="983.12" y="-139.88" font-family="Helvetica,sans-Serif" font-size="10.00">exception</text>
</a>
</g>
</g>
<!-- Node11&#45;&gt;Node18 -->
<g id="edge20_Node000011_Node000018" class="edge">
<title>Node11&#45;&gt;Node18</title>
<g id="a_edge20_Node000011_Node000018"><a xlink:title=" ">
<path fill="none" stroke="#63b8ff" d="M1070.51,-201.83C1054.09,-190.96 1027.18,-173.15 1007.55,-160.16"/>
<polygon fill="#63b8ff" stroke="#63b8ff" points="1009.58,-157.31 999.31,-154.71 1005.71,-163.15 1009.58,-157.31"/>
</a>
</g>
</g>
<!-- Node13&#45;&gt;Node10 -->
<g id="edge18_Node000013_Node000010" class="edge">
<title>Node13&#45;&gt;Node10</title>
<g id="a_edge18_Node000013_Node000010"><a xlink:title=" ">
<path fill="none" stroke="#63b8ff" d="M1125.68,-132.26C1118.98,-121.99 1108.35,-105.26 1100.12,-90.25 1089.37,-70.62 1078.41,-47.48 1071.05,-31.35"/>
<polygon fill="#63b8ff" stroke="#63b8ff" points="1074.3,-30.06 1066.99,-22.39 1067.92,-32.94 1074.3,-30.06"/>
</a>
</g>
</g>
<!-- Node14 -->
<g id="Node000014" class="node">
<title>Node14</title>
<g id="a_Node000014"><a xlink:title=" ">
<polygon fill="#e0e0e0" stroke="#999999" points="1217.25,-90.25 1109,-90.25 1109,-56.75 1217.25,-56.75 1217.25,-90.25"/>
<text text-anchor="start" x="1117" y="-76.75" font-family="Helvetica,sans-Serif" font-size="10.00">deal.II/matrix_free</text>
<text text-anchor="middle" x="1163.12" y="-64" font-family="Helvetica,sans-Serif" font-size="10.00">/evaluation_flags.h</text>
</a>
</g>
</g>
<!-- Node13&#45;&gt;Node14 -->
<g id="edge13_Node000013_Node000014" class="edge">
<title>Node13&#45;&gt;Node14</title>
<g id="a_edge13_Node000013_Node000014"><a xlink:title=" ">
<path fill="none" stroke="#63b8ff" d="M1136.57,-132.33C1140.31,-124.18 1145.84,-112.13 1150.89,-101.13"/>
<polygon fill="#63b8ff" stroke="#63b8ff" points="1154.07,-102.59 1155.07,-92.04 1147.71,-99.67 1154.07,-102.59"/>
</a>
</g>
</g>
<!-- Node13&#45;&gt;Node15 -->
<g id="edge14_Node000013_Node000015" class="edge">
<title>Node13&#45;&gt;Node15</title>
<g id="a_edge14_Node000013_Node000015"><a xlink:title=" ">
<path fill="none" stroke="#63b8ff" d="M1170.08,-132.18C1211.48,-121.48 1278.49,-104.15 1328.27,-91.27"/>
<polygon fill="#63b8ff" stroke="#63b8ff" points="1328.98,-94.7 1337.79,-88.81 1327.23,-87.93 1328.98,-94.7"/>
</a>
</g>
</g>
<!-- Node15&#45;&gt;Node10 -->
<g id="edge15_Node000015_Node000010" class="edge">
<title>Node15&#45;&gt;Node10</title>
<g id="a_edge15_Node000015_Node000010"><a xlink:title=" ">
<path fill="none" stroke="#63b8ff" d="M1338.99,-59.67C1334.31,-58.65 1329.64,-57.66 1325.12,-56.75 1256.37,-42.87 1176.95,-29.54 1123.54,-20.96"/>
<polygon fill="#63b8ff" stroke="#63b8ff" points="1124.13,-17.51 1113.71,-19.39 1123.03,-24.42 1124.13,-17.51"/>
</a>
</g>
</g>
<!-- Node16 -->
<g id="Node000016" class="node">
<title>Node16</title>
<g id="a_Node000016"><a xlink:title=" ">
<polygon fill="#e0e0e0" stroke="#999999" points="1417.62,-20.75 1368.62,-20.75 1368.62,0 1417.62,0 1417.62,-20.75"/>
<text text-anchor="middle" x="1393.12" y="-7.25" font-family="Helvetica,sans-Serif" font-size="10.00">cstdint</text>
</a>
</g>
</g>
<!-- Node15&#45;&gt;Node16 -->
<g id="edge16_Node000015_Node000016" class="edge">
<title>Node15&#45;&gt;Node16</title>
<g id="a_edge16_Node000015_Node000016"><a xlink:title=" ">
<path fill="none" stroke="#63b8ff" d="M1393.12,-56.44C1393.12,-49.1 1393.12,-40.32 1393.12,-32.46"/>
<polygon fill="#63b8ff" stroke="#63b8ff" points="1396.63,-32.73 1393.13,-22.73 1389.63,-32.73 1396.63,-32.73"/>
</a>
</g>
</g>
<!-- Node15&#45;&gt;Node17 -->
<g id="edge17_Node000015_Node000017" class="edge">
<title>Node15&#45;&gt;Node17</title>
<g id="a_edge17_Node000015_Node000017"><a xlink:title=" ">
<path fill="none" stroke="#63b8ff" d="M1414.67,-56.44C1426.38,-47.71 1440.86,-36.92 1452.71,-28.09"/>
<polygon fill="#63b8ff" stroke="#63b8ff" points="1454.78,-30.9 1460.71,-22.12 1450.6,-25.29 1454.78,-30.9"/>
</a>
</g>
</g>
<!-- Node19&#45;&gt;Node10 -->
<g id="edge25_Node000019_Node000010" class="edge">
<title>Node19&#45;&gt;Node10</title>
<g id="a_edge25_Node000019_Node000010"><a xlink:title=" ">
<path fill="none" stroke="#63b8ff" d="M1392.43,-195.58C1387.41,-176.99 1376.85,-146.24 1358.12,-126.25 1295.78,-59.7 1190.41,-31.19 1123.65,-19.35"/>
<polygon fill="#63b8ff" stroke="#63b8ff" points="1124.4,-15.92 1113.96,-17.71 1123.23,-22.83 1124.4,-15.92"/>
</a>
</g>
</g>
<!-- Node19&#45;&gt;Node12 -->
<g id="edge22_Node000019_Node000012" class="edge">
<title>Node19&#45;&gt;Node12</title>
<g id="a_edge22_Node000019_Node000012"><a xlink:title=" ">
<path fill="none" stroke="#63b8ff" d="M1368.34,-195.33C1349.65,-184.46 1325.16,-170.2 1306.72,-159.48"/>
<polygon fill="#63b8ff" stroke="#63b8ff" points="1308.63,-156.54 1298.23,-154.53 1305.11,-162.59 1308.63,-156.54"/>
</a>
</g>
</g>
<!-- Node19&#45;&gt;Node13 -->
<g id="edge24_Node000019_Node000013" class="edge">
<title>Node19&#45;&gt;Node13</title>
<g id="a_edge24_Node000019_Node000013"><a xlink:title=" ">
<path fill="none" stroke="#63b8ff" d="M1342.38,-197.76C1295.27,-185.71 1227.33,-168.34 1181.55,-156.64"/>
<polygon fill="#63b8ff" stroke="#63b8ff" points="1182.43,-153.25 1171.88,-154.16 1180.7,-160.03 1182.43,-153.25"/>
</a>
</g>
</g>
<!-- Node19&#45;&gt;Node15 -->
<g id="edge23_Node000019_Node000015" class="edge">
<title>Node19&#45;&gt;Node15</title>
<g id="a_edge23_Node000019_Node000015"><a xlink:title=" ">
<path fill="none" stroke="#63b8ff" d="M1395.77,-195.52C1395.27,-172.52 1394.34,-129.79 1393.72,-101.75"/>
<polygon fill="#63b8ff" stroke="#63b8ff" points="1397.22,-101.82 1393.51,-91.9 1390.23,-101.97 1397.22,-101.82"/>
</a>
</g>
</g>
<!-- Node19&#45;&gt;Node17 -->
<g id="edge27_Node000019_Node000017" class="edge">
<title>Node19&#45;&gt;Node17</title>
<g id="a_edge27_Node000019_Node000017"><a xlink:title=" ">
<path fill="none" stroke="#63b8ff" d="M1405.47,-195.54C1418.43,-172.82 1441.87,-129.55 1456.12,-90.25 1463.13,-70.94 1468.32,-48.04 1471.49,-31.9"/>
<polygon fill="#63b8ff" stroke="#63b8ff" points="1474.84,-33.01 1473.24,-22.53 1467.96,-31.72 1474.84,-33.01"/>
</a>
</g>
</g>
<!-- Node19&#45;&gt;Node20 -->
<g id="edge26_Node000019_Node000020" class="edge">
<title>Node19&#45;&gt;Node20</title>
<g id="a_edge26_Node000019_Node000020"><a xlink:title=" ">
<path fill="none" stroke="#63b8ff" d="M1445.82,-195.28C1472.93,-185.9 1506.84,-173.29 1536.12,-159.75 1536.61,-159.53 1537.09,-159.3 1537.58,-159.07"/>
<polygon fill="#63b8ff" stroke="#63b8ff" points="1539.17,-162.19 1546.43,-154.47 1535.94,-155.97 1539.17,-162.19"/>
</a>
</g>
</g>
<!-- Node21 -->
<g id="Node000021" class="node">
<title>Node21</title>
<g id="a_Node000021"><a xlink:title=" ">
<polygon fill="#e0e0e0" stroke="#999999" points="1527.5,-153.38 1480.75,-153.38 1480.75,-132.62 1527.5,-132.62 1527.5,-153.38"/>
<text text-anchor="middle" x="1504.12" y="-139.88" font-family="Helvetica,sans-Serif" font-size="10.00">vector</text>
</a>
</g>
</g>
<!-- Node19&#45;&gt;Node21 -->
<g id="edge28_Node000019_Node000021" class="edge">
<title>Node19&#45;&gt;Node21</title>
<g id="a_edge28_Node000019_Node000021"><a xlink:title=" ">
<path fill="none" stroke="#63b8ff" d="M1421.99,-195.33C1439.31,-184.51 1461.99,-170.34 1479.12,-159.63"/>
<polygon fill="#63b8ff" stroke="#63b8ff" points="1480.58,-162.84 1487.21,-154.57 1476.87,-156.91 1480.58,-162.84"/>
</a>
</g>
</g>
</g>
</svg>
