<?xml version="1.0" encoding="UTF-8" standalone="no"?>
<!DOCTYPE svg PUBLIC "-//W3C//DTD SVG 1.1//EN"
 "http://www.w3.org/Graphics/SVG/1.1/DTD/svg11.dtd">
<!-- Generated by graphviz version 12.2.1 (20241206.2353)
 -->
<!-- Title: /__w/phaseField/phaseField/include/prismspf/core/constraint_manager.h Pages: 1 -->
<svg width="1295pt" height="1029pt"
 viewBox="0.00 0.00 1294.70 1028.50" xmlns="http://www.w3.org/2000/svg" xmlns:xlink="http://www.w3.org/1999/xlink">
<g id="graph0" class="graph" transform="scale(1 1) rotate(0) translate(4 1024.5)">
<title>/__w/phaseField/phaseField/include/prismspf/core/constraint_manager.h</title>
<!-- Node1 -->
<g id="Node000001" class="node">
<title>Node1</title>
<g id="a_Node000001"><a xlink:title=" ">
<polygon fill="#999999" stroke="#666666" points="436,-1020.5 260.25,-1020.5 260.25,-974.25 436,-974.25 436,-1020.5"/>
<text text-anchor="start" x="268.25" y="-1007" font-family="Helvetica,sans-Serif" font-size="10.00">/__w/phaseField/phaseField</text>
<text text-anchor="start" x="268.25" y="-994.25" font-family="Helvetica,sans-Serif" font-size="10.00">/include/prismspf/core/constraint</text>
<text text-anchor="middle" x="348.12" y="-981.5" font-family="Helvetica,sans-Serif" font-size="10.00">_manager.h</text>
</a>
</g>
</g>
<!-- Node2 -->
<g id="Node000002" class="node">
<title>Node2</title>
<g id="a_Node000002"><a xlink:href="group__solution__handler_8h.html" target="_top" xlink:title=" ">
<polygon fill="white" stroke="#666666" points="918.5,-856 763.75,-856 763.75,-809.75 918.5,-809.75 918.5,-856"/>
<text text-anchor="start" x="771.75" y="-842.5" font-family="Helvetica,sans-Serif" font-size="10.00">/__w/phaseField/phaseField</text>
<text text-anchor="start" x="771.75" y="-829.75" font-family="Helvetica,sans-Serif" font-size="10.00">/include/prismspf/core/group</text>
<text text-anchor="middle" x="841.12" y="-817" font-family="Helvetica,sans-Serif" font-size="10.00">_solution_handler.h</text>
</a>
</g>
</g>
<!-- Node1&#45;&gt;Node2 -->
<g id="edge1_Node000001_Node000002" class="edge">
<title>Node1&#45;&gt;Node2</title>
<g id="a_edge1_Node000001_Node000002"><a xlink:title=" ">
<path fill="none" stroke="#63b8ff" d="M397.69,-967.81C411.09,-959.09 425.18,-948.95 437.12,-938.25 456.94,-920.49 452.04,-905.22 475.12,-892 523,-864.58 670.99,-847.81 763.47,-839.73"/>
<polygon fill="#63b8ff" stroke="#63b8ff" points="395.94,-964.77 389.37,-973.08 399.69,-970.69 395.94,-964.77"/>
</a>
</g>
</g>
<!-- Node14 -->
<g id="Node000014" class="node">
<title>Node14</title>
<g id="a_Node000014"><a xlink:href="solve__context_8h.html" target="_top" xlink:title=" ">
<polygon fill="white" stroke="#666666" points="385.5,-527 236.75,-527 236.75,-480.75 385.5,-480.75 385.5,-527"/>
<text text-anchor="start" x="244.75" y="-513.5" font-family="Helvetica,sans-Serif" font-size="10.00">/__w/phaseField/phaseField</text>
<text text-anchor="start" x="244.75" y="-500.75" font-family="Helvetica,sans-Serif" font-size="10.00">/include/prismspf/solvers</text>
<text text-anchor="middle" x="311.12" y="-488" font-family="Helvetica,sans-Serif" font-size="10.00">/solve_context.h</text>
</a>
</g>
</g>
<!-- Node1&#45;&gt;Node14 -->
<g id="edge63_Node000001_Node000014" class="edge">
<title>Node1&#45;&gt;Node14</title>
<g id="a_edge63_Node000001_Node000014"><a xlink:title=" ">
<path fill="none" stroke="#63b8ff" d="M279.86,-968.87C227.49,-942.75 164.12,-897.9 164.12,-833.88 164.12,-833.88 164.12,-833.88 164.12,-667.38 164.12,-604.03 226.31,-554.35 269.79,-527.35"/>
<polygon fill="#63b8ff" stroke="#63b8ff" points="278.27,-971.99 288.8,-973.19 281.31,-965.69 278.27,-971.99"/>
</a>
</g>
</g>
<!-- Node16 -->
<g id="Node000016" class="node">
<title>Node16</title>
<g id="a_Node000016"><a xlink:href="refinement__manager_8h.html" target="_top" xlink:title=" ">
<polygon fill="white" stroke="#666666" points="180.25,-362.5 0,-362.5 0,-316.25 180.25,-316.25 180.25,-362.5"/>
<text text-anchor="start" x="8" y="-349" font-family="Helvetica,sans-Serif" font-size="10.00">/__w/phaseField/phaseField</text>
<text text-anchor="start" x="8" y="-336.25" font-family="Helvetica,sans-Serif" font-size="10.00">/include/prismspf/core/refinement</text>
<text text-anchor="middle" x="90.12" y="-323.5" font-family="Helvetica,sans-Serif" font-size="10.00">_manager.h</text>
</a>
</g>
</g>
<!-- Node1&#45;&gt;Node16 -->
<g id="edge62_Node000001_Node000016" class="edge">
<title>Node1&#45;&gt;Node16</title>
<g id="a_edge62_Node000001_Node000016"><a xlink:title=" ">
<path fill="none" stroke="#63b8ff" d="M249.37,-976.37C175.83,-955.05 88.12,-913.02 88.12,-833.88 88.12,-833.88 88.12,-833.88 88.12,-502.88 88.12,-452.94 89.08,-394.37 89.67,-362.98"/>
<polygon fill="#63b8ff" stroke="#63b8ff" points="248.07,-979.65 258.64,-978.96 249.95,-972.9 248.07,-979.65"/>
</a>
</g>
</g>
<!-- Node28 -->
<g id="Node000028" class="node">
<title>Node28</title>
<g id="a_Node000028"><a xlink:href="matrix__free__manager_8h.html" target="_top" xlink:title=" ">
<polygon fill="white" stroke="#666666" points="427.75,-938.25 268.5,-938.25 268.5,-892 427.75,-892 427.75,-938.25"/>
<text text-anchor="start" x="276.5" y="-924.75" font-family="Helvetica,sans-Serif" font-size="10.00">/__w/phaseField/phaseField</text>
<text text-anchor="start" x="276.5" y="-912" font-family="Helvetica,sans-Serif" font-size="10.00">/include/prismspf/core/matrix</text>
<text text-anchor="middle" x="348.12" y="-899.25" font-family="Helvetica,sans-Serif" font-size="10.00">_free_manager.h</text>
</a>
</g>
</g>
<!-- Node1&#45;&gt;Node28 -->
<g id="edge54_Node000001_Node000028" class="edge">
<title>Node1&#45;&gt;Node28</title>
<g id="a_edge54_Node000001_Node000028"><a xlink:title=" ">
<path fill="none" stroke="#63b8ff" d="M348.12,-962.59C348.12,-954.5 348.12,-946.07 348.12,-938.64"/>
<polygon fill="#63b8ff" stroke="#63b8ff" points="344.63,-962.51 348.13,-972.51 351.63,-962.51 344.63,-962.51"/>
</a>
</g>
</g>
<!-- Node30 -->
<g id="Node000030" class="node">
<title>Node30</title>
<g id="a_Node000030"><a xlink:href="constraint__manager_8cc.html" target="_top" xlink:title=" ">
<polygon fill="white" stroke="#666666" points="654.38,-931.88 483.88,-931.88 483.88,-898.38 654.38,-898.38 654.38,-931.88"/>
<text text-anchor="start" x="491.88" y="-918.38" font-family="Helvetica,sans-Serif" font-size="10.00">/__w/phaseField/phaseField</text>
<text text-anchor="middle" x="569.12" y="-905.62" font-family="Helvetica,sans-Serif" font-size="10.00">/src/core/constraint_manager.cc</text>
</a>
</g>
</g>
<!-- Node1&#45;&gt;Node30 -->
<g id="edge64_Node000001_Node000030" class="edge">
<title>Node1&#45;&gt;Node30</title>
<g id="a_edge64_Node000001_Node000030"><a xlink:title=" ">
<path fill="none" stroke="#63b8ff" d="M420.72,-970.01C455.01,-957.56 494.84,-943.1 524.59,-932.3"/>
<polygon fill="#63b8ff" stroke="#63b8ff" points="419.9,-966.59 411.7,-973.29 422.29,-973.17 419.9,-966.59"/>
</a>
</g>
</g>
<!-- Node3 -->
<g id="Node000003" class="node">
<title>Node3</title>
<g id="a_Node000003"><a xlink:href="solution__indexer_8h.html" target="_top" xlink:title=" ">
<polygon fill="white" stroke="#666666" points="1012.12,-773.75 846.12,-773.75 846.12,-727.5 1012.12,-727.5 1012.12,-773.75"/>
<text text-anchor="start" x="854.12" y="-760.25" font-family="Helvetica,sans-Serif" font-size="10.00">/__w/phaseField/phaseField</text>
<text text-anchor="start" x="854.12" y="-747.5" font-family="Helvetica,sans-Serif" font-size="10.00">/include/prismspf/core/solution</text>
<text text-anchor="middle" x="929.12" y="-734.75" font-family="Helvetica,sans-Serif" font-size="10.00">_indexer.h</text>
</a>
</g>
</g>
<!-- Node2&#45;&gt;Node3 -->
<g id="edge2_Node000002_Node000003" class="edge">
<title>Node2&#45;&gt;Node3</title>
<g id="a_edge2_Node000002_Node000003"><a xlink:title=" ">
<path fill="none" stroke="#63b8ff" d="M873.88,-802C884,-792.78 894.96,-782.78 904.44,-774.14"/>
<polygon fill="#63b8ff" stroke="#63b8ff" points="871.79,-799.18 866.76,-808.5 876.5,-804.35 871.79,-799.18"/>
</a>
</g>
</g>
<!-- Node6 -->
<g id="Node000006" class="node">
<title>Node6</title>
<g id="a_Node000006"><a xlink:href="mf__operator_8h.html" target="_top" xlink:title=" ">
<polygon fill="white" stroke="#666666" points="1127.5,-362.5 978.75,-362.5 978.75,-316.25 1127.5,-316.25 1127.5,-362.5"/>
<text text-anchor="start" x="986.75" y="-349" font-family="Helvetica,sans-Serif" font-size="10.00">/__w/phaseField/phaseField</text>
<text text-anchor="start" x="986.75" y="-336.25" font-family="Helvetica,sans-Serif" font-size="10.00">/include/prismspf/solvers</text>
<text text-anchor="middle" x="1053.12" y="-323.5" font-family="Helvetica,sans-Serif" font-size="10.00">/mf_operator.h</text>
</a>
</g>
</g>
<!-- Node2&#45;&gt;Node6 -->
<g id="edge48_Node000002_Node000006" class="edge">
<title>Node2&#45;&gt;Node6</title>
<g id="a_edge48_Node000002_Node000006"><a xlink:title=" ">
<path fill="none" stroke="#63b8ff" d="M929.64,-820.62C962.09,-812.41 996.79,-798.23 1021.12,-773.75 1126.01,-668.21 1080.41,-593.52 1083.12,-444.75 1083.5,-424.2 1087.98,-418.47 1083.12,-398.5 1080.1,-386.03 1073.9,-373.24 1067.91,-362.85"/>
<polygon fill="#63b8ff" stroke="#63b8ff" points="929.15,-817.14 920.22,-822.83 930.75,-823.95 929.15,-817.14"/>
</a>
</g>
</g>
<!-- Node11 -->
<g id="Node000011" class="node">
<title>Node11</title>
<g id="a_Node000011"><a xlink:href="linear__solver_8h.html" target="_top" xlink:title=" ">
<polygon fill="white" stroke="#666666" points="923.5,-280.25 774.75,-280.25 774.75,-234 923.5,-234 923.5,-280.25"/>
<text text-anchor="start" x="782.75" y="-266.75" font-family="Helvetica,sans-Serif" font-size="10.00">/__w/phaseField/phaseField</text>
<text text-anchor="start" x="782.75" y="-254" font-family="Helvetica,sans-Serif" font-size="10.00">/include/prismspf/solvers</text>
<text text-anchor="middle" x="849.12" y="-241.25" font-family="Helvetica,sans-Serif" font-size="10.00">/linear_solver.h</text>
</a>
</g>
</g>
<!-- Node2&#45;&gt;Node11 -->
<g id="edge47_Node000002_Node000011" class="edge">
<title>Node2&#45;&gt;Node11</title>
<g id="a_edge47_Node000002_Node000011"><a xlink:title=" ">
<path fill="none" stroke="#63b8ff" d="M929.64,-820.62C962.09,-812.41 996.79,-798.23 1021.12,-773.75 1168.92,-625.04 1268.85,-478.55 1136.12,-316.25 1109.78,-284.03 999.71,-269.25 923.8,-262.78"/>
<polygon fill="#63b8ff" stroke="#63b8ff" points="929.15,-817.14 920.22,-822.83 930.75,-823.95 929.15,-817.14"/>
</a>
</g>
</g>
<!-- Node12 -->
<g id="Node000012" class="node">
<title>Node12</title>
<g id="a_Node000012"><a xlink:href="newton__solver_8h.html" target="_top" xlink:title=" ">
<polygon fill="white" stroke="#666666" points="1025.5,-198 876.75,-198 876.75,-151.75 1025.5,-151.75 1025.5,-198"/>
<text text-anchor="start" x="884.75" y="-184.5" font-family="Helvetica,sans-Serif" font-size="10.00">/__w/phaseField/phaseField</text>
<text text-anchor="start" x="884.75" y="-171.75" font-family="Helvetica,sans-Serif" font-size="10.00">/include/prismspf/solvers</text>
<text text-anchor="middle" x="951.12" y="-159" font-family="Helvetica,sans-Serif" font-size="10.00">/newton_solver.h</text>
</a>
</g>
</g>
<!-- Node2&#45;&gt;Node12 -->
<g id="edge49_Node000002_Node000012" class="edge">
<title>Node2&#45;&gt;Node12</title>
<g id="a_edge49_Node000002_Node000012"><a xlink:title=" ">
<path fill="none" stroke="#63b8ff" d="M929.88,-827.49C995.29,-821.47 1085.04,-807.26 1157.12,-773.75 1223.07,-743.1 1283.12,-742.09 1283.12,-669.38 1283.12,-669.38 1283.12,-669.38 1283.12,-338.38 1283.12,-291.22 1297.41,-267.4 1264.12,-234 1231.45,-201.21 1107.54,-186.45 1025.77,-180.16"/>
<polygon fill="#63b8ff" stroke="#63b8ff" points="929.94,-823.97 920.28,-828.32 930.55,-830.94 929.94,-823.97"/>
</a>
</g>
</g>
<!-- Node13 -->
<g id="Node000013" class="node">
<title>Node13</title>
<g id="a_Node000013"><a xlink:href="mf__operator_8cc.html" target="_top" xlink:title=" ">
<polygon fill="white" stroke="#666666" points="1255.5,-273.88 1106.75,-273.88 1106.75,-240.38 1255.5,-240.38 1255.5,-273.88"/>
<text text-anchor="start" x="1114.75" y="-260.38" font-family="Helvetica,sans-Serif" font-size="10.00">/__w/phaseField/phaseField</text>
<text text-anchor="middle" x="1181.12" y="-247.62" font-family="Helvetica,sans-Serif" font-size="10.00">/src/solvers/mf_operator.cc</text>
</a>
</g>
</g>
<!-- Node2&#45;&gt;Node13 -->
<g id="edge53_Node000002_Node000013" class="edge">
<title>Node2&#45;&gt;Node13</title>
<g id="a_edge53_Node000002_Node000013"><a xlink:title=" ">
<path fill="none" stroke="#63b8ff" d="M929.8,-814.76C1048.73,-789.23 1245.12,-736.85 1245.12,-669.38 1245.12,-669.38 1245.12,-669.38 1245.12,-420.62 1245.12,-363.62 1210.61,-302.7 1192.27,-274.36"/>
<polygon fill="#63b8ff" stroke="#63b8ff" points="929.08,-811.34 920.02,-816.83 930.53,-818.18 929.08,-811.34"/>
</a>
</g>
</g>
<!-- Node20 -->
<g id="Node000020" class="node">
<title>Node20</title>
<g id="a_Node000020"><a xlink:href="solver__base_8h.html" target="_top" xlink:title=" ">
<polygon fill="white" stroke="#666666" points="790.5,-444.75 641.75,-444.75 641.75,-398.5 790.5,-398.5 790.5,-444.75"/>
<text text-anchor="start" x="649.75" y="-431.25" font-family="Helvetica,sans-Serif" font-size="10.00">/__w/phaseField/phaseField</text>
<text text-anchor="start" x="649.75" y="-418.5" font-family="Helvetica,sans-Serif" font-size="10.00">/include/prismspf/solvers</text>
<text text-anchor="middle" x="716.12" y="-405.75" font-family="Helvetica,sans-Serif" font-size="10.00">/solver_base.h</text>
</a>
</g>
</g>
<!-- Node2&#45;&gt;Node20 -->
<g id="edge50_Node000002_Node000020" class="edge">
<title>Node2&#45;&gt;Node20</title>
<g id="a_edge50_Node000002_Node000020"><a xlink:title=" ">
<path fill="none" stroke="#63b8ff" d="M752.38,-818.36C670.36,-800.25 561.12,-759.25 561.12,-669.38 561.12,-669.38 561.12,-669.38 561.12,-585.12 561.12,-520.8 625.52,-471.88 671.29,-445.24"/>
<polygon fill="#63b8ff" stroke="#63b8ff" points="751.51,-821.76 762.02,-820.41 752.96,-814.91 751.51,-821.76"/>
</a>
</g>
</g>
<!-- Node26 -->
<g id="Node000026" class="node">
<title>Node26</title>
<g id="a_Node000026"><a xlink:href="solution__indexer_8cc.html" target="_top" xlink:title=" ">
<polygon fill="white" stroke="#666666" points="742.75,-685.12 589.5,-685.12 589.5,-651.62 742.75,-651.62 742.75,-685.12"/>
<text text-anchor="start" x="597.5" y="-671.62" font-family="Helvetica,sans-Serif" font-size="10.00">/__w/phaseField/phaseField</text>
<text text-anchor="middle" x="666.12" y="-658.88" font-family="Helvetica,sans-Serif" font-size="10.00">/src/core/solution_indexer.cc</text>
</a>
</g>
</g>
<!-- Node2&#45;&gt;Node26 -->
<g id="edge52_Node000002_Node000026" class="edge">
<title>Node2&#45;&gt;Node26</title>
<g id="a_edge52_Node000002_Node000026"><a xlink:title=" ">
<path fill="none" stroke="#63b8ff" d="M752.11,-821.89C721.64,-813.82 690.4,-799.4 671.12,-773.75 651.72,-747.94 656.88,-707.56 661.83,-685.35"/>
<polygon fill="#63b8ff" stroke="#63b8ff" points="751.26,-825.29 761.8,-824.24 752.9,-818.49 751.26,-825.29"/>
</a>
</g>
</g>
<!-- Node27 -->
<g id="Node000027" class="node">
<title>Node27</title>
<g id="a_Node000027"><a xlink:href="group__solution__handler_8cc.html" target="_top" xlink:title=" ">
<polygon fill="white" stroke="#666666" points="828.5,-773.75 679.75,-773.75 679.75,-727.5 828.5,-727.5 828.5,-773.75"/>
<text text-anchor="start" x="687.75" y="-760.25" font-family="Helvetica,sans-Serif" font-size="10.00">/__w/phaseField/phaseField</text>
<text text-anchor="start" x="687.75" y="-747.5" font-family="Helvetica,sans-Serif" font-size="10.00">/src/core/group_solution</text>
<text text-anchor="middle" x="754.12" y="-734.75" font-family="Helvetica,sans-Serif" font-size="10.00">_handler.cc</text>
</a>
</g>
</g>
<!-- Node2&#45;&gt;Node27 -->
<g id="edge51_Node000002_Node000027" class="edge">
<title>Node2&#45;&gt;Node27</title>
<g id="a_edge51_Node000002_Node000027"><a xlink:title=" ">
<path fill="none" stroke="#63b8ff" d="M808.44,-801.72C798.52,-792.58 787.8,-782.69 778.53,-774.14"/>
<polygon fill="#63b8ff" stroke="#63b8ff" points="806.05,-804.29 815.78,-808.49 810.8,-799.14 806.05,-804.29"/>
</a>
</g>
</g>
<!-- Node4 -->
<g id="Node000004" class="node">
<title>Node4</title>
<g id="a_Node000004"><a xlink:href="field__container_8h.html" target="_top" xlink:title=" ">
<polygon fill="white" stroke="#666666" points="1003.5,-691.5 854.75,-691.5 854.75,-645.25 1003.5,-645.25 1003.5,-691.5"/>
<text text-anchor="start" x="862.75" y="-678" font-family="Helvetica,sans-Serif" font-size="10.00">/__w/phaseField/phaseField</text>
<text text-anchor="start" x="862.75" y="-665.25" font-family="Helvetica,sans-Serif" font-size="10.00">/include/prismspf/core/field</text>
<text text-anchor="middle" x="929.12" y="-652.5" font-family="Helvetica,sans-Serif" font-size="10.00">_container.h</text>
</a>
</g>
</g>
<!-- Node3&#45;&gt;Node4 -->
<g id="edge3_Node000003_Node000004" class="edge">
<title>Node3&#45;&gt;Node4</title>
<g id="a_edge3_Node000003_Node000004"><a xlink:title=" ">
<path fill="none" stroke="#63b8ff" d="M929.12,-715.84C929.12,-707.75 929.12,-699.32 929.12,-691.89"/>
<polygon fill="#63b8ff" stroke="#63b8ff" points="925.63,-715.76 929.13,-725.76 932.63,-715.76 925.63,-715.76"/>
</a>
</g>
</g>
<!-- Node3&#45;&gt;Node6 -->
<g id="edge44_Node000003_Node000006" class="edge">
<title>Node3&#45;&gt;Node6</title>
<g id="a_edge44_Node000003_Node000006"><a xlink:title=" ">
<path fill="none" stroke="#63b8ff" d="M982.15,-720.68C993.36,-712.5 1004.18,-702.72 1012.12,-691.5 1077.12,-599.73 1061.33,-557 1068.12,-444.75 1069.37,-424.23 1070.71,-418.89 1068.12,-398.5 1066.6,-386.51 1063.38,-373.45 1060.31,-362.75"/>
<polygon fill="#63b8ff" stroke="#63b8ff" points="980.21,-717.77 973.95,-726.31 984.17,-723.54 980.21,-717.77"/>
</a>
</g>
</g>
<!-- Node3&#45;&gt;Node14 -->
<g id="edge45_Node000003_Node000014" class="edge">
<title>Node3&#45;&gt;Node14</title>
<g id="a_edge45_Node000003_Node000014"><a xlink:title=" ">
<path fill="none" stroke="#63b8ff" d="M852.14,-722.67C832.68,-714.16 812.41,-703.72 795.12,-691.5 772.21,-675.29 777.35,-657.56 752.12,-645.25 668.33,-604.37 404.22,-670.72 334.12,-609.25 311.11,-589.06 308.2,-551.54 309.05,-527.41"/>
<polygon fill="#63b8ff" stroke="#63b8ff" points="850.56,-725.8 861.14,-726.48 853.29,-719.36 850.56,-725.8"/>
</a>
</g>
</g>
<!-- Node17 -->
<g id="Node000017" class="node">
<title>Node17</title>
<g id="a_Node000017"><a xlink:href="solution__output_8h.html" target="_top" xlink:title=" ">
<polygon fill="white" stroke="#666666" points="568.12,-444.75 402.12,-444.75 402.12,-398.5 568.12,-398.5 568.12,-444.75"/>
<text text-anchor="start" x="410.12" y="-431.25" font-family="Helvetica,sans-Serif" font-size="10.00">/__w/phaseField/phaseField</text>
<text text-anchor="start" x="410.12" y="-418.5" font-family="Helvetica,sans-Serif" font-size="10.00">/include/prismspf/core/solution</text>
<text text-anchor="middle" x="485.12" y="-405.75" font-family="Helvetica,sans-Serif" font-size="10.00">_output.h</text>
</a>
</g>
</g>
<!-- Node3&#45;&gt;Node17 -->
<g id="edge43_Node000003_Node000017" class="edge">
<title>Node3&#45;&gt;Node17</title>
<g id="a_edge43_Node000003_Node000017"><a xlink:title=" ">
<path fill="none" stroke="#63b8ff" d="M886.77,-720.72C873.62,-711.54 859.16,-701.25 846.12,-691.5 819.72,-671.76 817.33,-660.54 788.12,-645.25 738.8,-619.42 715.79,-638.04 668.12,-609.25 594.71,-564.91 529.95,-484.32 501.08,-445.17"/>
<polygon fill="#63b8ff" stroke="#63b8ff" points="884.62,-723.49 894.83,-726.31 888.61,-717.73 884.62,-723.49"/>
</a>
</g>
</g>
<!-- Node3&#45;&gt;Node26 -->
<g id="edge46_Node000003_Node000026" class="edge">
<title>Node3&#45;&gt;Node26</title>
<g id="a_edge46_Node000003_Node000026"><a xlink:title=" ">
<path fill="none" stroke="#63b8ff" d="M844.31,-723.75C803.16,-711.19 754.99,-696.49 719.12,-685.55"/>
<polygon fill="#63b8ff" stroke="#63b8ff" points="843.13,-727.04 853.72,-726.62 845.17,-720.35 843.13,-727.04"/>
</a>
</g>
</g>
<!-- Node5 -->
<g id="Node000005" class="node">
<title>Node5</title>
<g id="a_Node000005"><a xlink:href="pde__operator__base_8h.html" target="_top" xlink:title=" ">
<polygon fill="white" stroke="#666666" points="825.5,-609.25 676.75,-609.25 676.75,-563 825.5,-563 825.5,-609.25"/>
<text text-anchor="start" x="684.75" y="-595.75" font-family="Helvetica,sans-Serif" font-size="10.00">/__w/phaseField/phaseField</text>
<text text-anchor="start" x="684.75" y="-583" font-family="Helvetica,sans-Serif" font-size="10.00">/include/prismspf/core/pde</text>
<text text-anchor="middle" x="751.12" y="-570.25" font-family="Helvetica,sans-Serif" font-size="10.00">_operator_base.h</text>
</a>
</g>
</g>
<!-- Node4&#45;&gt;Node5 -->
<g id="edge4_Node000004_Node000005" class="edge">
<title>Node4&#45;&gt;Node5</title>
<g id="a_edge4_Node000004_Node000005"><a xlink:title=" ">
<path fill="none" stroke="#63b8ff" d="M868.83,-640.19C846.8,-630.26 822.14,-619.14 801.11,-609.66"/>
<polygon fill="#63b8ff" stroke="#63b8ff" points="867.13,-643.27 877.69,-644.19 870.01,-636.88 867.13,-643.27"/>
</a>
</g>
</g>
<!-- Node4&#45;&gt;Node6 -->
<g id="edge40_Node000004_Node000006" class="edge">
<title>Node4&#45;&gt;Node6</title>
<g id="a_edge40_Node000004_Node000006"><a xlink:title=" ">
<path fill="none" stroke="#63b8ff" d="M978.12,-638.04C988.37,-629.88 998.16,-620.2 1005.12,-609.25 1055.65,-529.84 1056.68,-411.92 1054.6,-362.96"/>
<polygon fill="#63b8ff" stroke="#63b8ff" points="976.19,-635.12 970.28,-643.91 980.38,-640.72 976.19,-635.12"/>
</a>
</g>
</g>
<!-- Node4&#45;&gt;Node13 -->
<g id="edge42_Node000004_Node000013" class="edge">
<title>Node4&#45;&gt;Node13</title>
<g id="a_edge42_Node000004_Node000013"><a xlink:title=" ">
<path fill="none" stroke="#63b8ff" d="M989.12,-639.33C1003.53,-630.91 1018.19,-620.8 1030.12,-609.25 1122.85,-519.52 1147.77,-486.6 1183.12,-362.5 1191.76,-332.17 1187.74,-294.85 1184.27,-274.06"/>
<polygon fill="#63b8ff" stroke="#63b8ff" points="987.55,-636.2 980.54,-644.14 990.97,-642.3 987.55,-636.2"/>
</a>
</g>
</g>
<!-- Node25 -->
<g id="Node000025" class="node">
<title>Node25</title>
<g id="a_Node000025"><a xlink:href="field__container_8cc.html" target="_top" xlink:title=" ">
<polygon fill="white" stroke="#666666" points="996.5,-602.88 847.75,-602.88 847.75,-569.38 996.5,-569.38 996.5,-602.88"/>
<text text-anchor="start" x="855.75" y="-589.38" font-family="Helvetica,sans-Serif" font-size="10.00">/__w/phaseField/phaseField</text>
<text text-anchor="middle" x="922.12" y="-576.62" font-family="Helvetica,sans-Serif" font-size="10.00">/src/core/field_container.cc</text>
</a>
</g>
</g>
<!-- Node4&#45;&gt;Node25 -->
<g id="edge41_Node000004_Node000025" class="edge">
<title>Node4&#45;&gt;Node25</title>
<g id="a_edge41_Node000004_Node000025"><a xlink:title=" ">
<path fill="none" stroke="#63b8ff" d="M926.18,-633.57C925.26,-623.07 924.29,-611.97 923.53,-603.25"/>
<polygon fill="#63b8ff" stroke="#63b8ff" points="922.69,-633.86 927.04,-643.51 929.66,-633.25 922.69,-633.86"/>
</a>
</g>
</g>
<!-- Node5&#45;&gt;Node6 -->
<g id="edge5_Node000005_Node000006" class="edge">
<title>Node5&#45;&gt;Node6</title>
<g id="a_edge5_Node000005_Node000006"><a xlink:title=" ">
<path fill="none" stroke="#63b8ff" d="M837.11,-563.48C837.78,-563.32 838.45,-563.16 839.12,-563 909.6,-546.17 945.28,-576.57 998.12,-527 1010.35,-515.53 1036.68,-409.64 1047.9,-362.66"/>
<polygon fill="#63b8ff" stroke="#63b8ff" points="836.35,-560.06 827.46,-565.82 838,-566.87 836.35,-560.06"/>
</a>
</g>
</g>
<!-- Node5&#45;&gt;Node14 -->
<g id="edge16_Node000005_Node000014" class="edge">
<title>Node5&#45;&gt;Node14</title>
<g id="a_edge16_Node000005_Node000014"><a xlink:title=" ">
<path fill="none" stroke="#63b8ff" d="M665.28,-569.47C583.99,-554.64 463.16,-532.6 385.76,-518.49"/>
<polygon fill="#63b8ff" stroke="#63b8ff" points="664.53,-572.89 675,-571.24 665.79,-566 664.53,-572.89"/>
</a>
</g>
</g>
<!-- Node5&#45;&gt;Node20 -->
<g id="edge37_Node000005_Node000020" class="edge">
<title>Node5&#45;&gt;Node20</title>
<g id="a_edge37_Node000005_Node000020"><a xlink:title=" ">
<path fill="none" stroke="#63b8ff" d="M684.18,-556.46C672.93,-548.59 662.77,-538.86 656.12,-527 646.07,-509.07 648.11,-499.68 656.12,-480.75 662.01,-466.86 673.01,-454.66 684.01,-445.08"/>
<polygon fill="#63b8ff" stroke="#63b8ff" points="682.24,-559.38 692.55,-561.83 686.02,-553.49 682.24,-559.38"/>
</a>
</g>
</g>
<!-- Node23 -->
<g id="Node000023" class="node">
<title>Node23</title>
<g id="a_Node000023"><a xlink:href="dirichlet_8cc.html" target="_top" xlink:title=" ">
<polygon fill="white" stroke="#666666" points="813.5,-520.62 664.75,-520.62 664.75,-487.12 813.5,-487.12 813.5,-520.62"/>
<text text-anchor="start" x="672.75" y="-507.12" font-family="Helvetica,sans-Serif" font-size="10.00">/__w/phaseField/phaseField</text>
<text text-anchor="middle" x="739.12" y="-494.38" font-family="Helvetica,sans-Serif" font-size="10.00">/src/core/dirichlet.cc</text>
</a>
</g>
</g>
<!-- Node5&#45;&gt;Node23 -->
<g id="edge38_Node000005_Node000023" class="edge">
<title>Node5&#45;&gt;Node23</title>
<g id="a_edge38_Node000005_Node000023"><a xlink:title=" ">
<path fill="none" stroke="#63b8ff" d="M746.12,-551.66C744.54,-541.05 742.85,-529.81 741.54,-521"/>
<polygon fill="#63b8ff" stroke="#63b8ff" points="742.62,-551.9 747.56,-561.27 749.54,-550.87 742.62,-551.9"/>
</a>
</g>
</g>
<!-- Node24 -->
<g id="Node000024" class="node">
<title>Node24</title>
<g id="a_Node000024"><a xlink:href="initial__conditions_8cc.html" target="_top" xlink:title=" ">
<polygon fill="white" stroke="#666666" points="988.62,-520.62 831.62,-520.62 831.62,-487.12 988.62,-487.12 988.62,-520.62"/>
<text text-anchor="start" x="839.62" y="-507.12" font-family="Helvetica,sans-Serif" font-size="10.00">/__w/phaseField/phaseField</text>
<text text-anchor="middle" x="910.12" y="-494.38" font-family="Helvetica,sans-Serif" font-size="10.00">/src/core/initial_conditions.cc</text>
</a>
</g>
</g>
<!-- Node5&#45;&gt;Node24 -->
<g id="edge39_Node000005_Node000024" class="edge">
<title>Node5&#45;&gt;Node24</title>
<g id="a_edge39_Node000005_Node000024"><a xlink:title=" ">
<path fill="none" stroke="#63b8ff" d="M805.96,-557.45C830.11,-545.26 857.65,-531.36 878.34,-520.92"/>
<polygon fill="#63b8ff" stroke="#63b8ff" points="804.54,-554.24 797.19,-561.88 807.69,-560.49 804.54,-554.24"/>
</a>
</g>
</g>
<!-- Node7 -->
<g id="Node000007" class="node">
<title>Node7</title>
<g id="a_Node000007"><a xlink:href="explicit__solver_8h.html" target="_top" xlink:title=" ">
<polygon fill="white" stroke="#666666" points="756.5,-280.25 607.75,-280.25 607.75,-234 756.5,-234 756.5,-280.25"/>
<text text-anchor="start" x="615.75" y="-266.75" font-family="Helvetica,sans-Serif" font-size="10.00">/__w/phaseField/phaseField</text>
<text text-anchor="start" x="615.75" y="-254" font-family="Helvetica,sans-Serif" font-size="10.00">/include/prismspf/solvers</text>
<text text-anchor="middle" x="682.12" y="-241.25" font-family="Helvetica,sans-Serif" font-size="10.00">/explicit_solver.h</text>
</a>
</g>
</g>
<!-- Node6&#45;&gt;Node7 -->
<g id="edge6_Node000006_Node000007" class="edge">
<title>Node6&#45;&gt;Node7</title>
<g id="a_edge6_Node000006_Node000007"><a xlink:title=" ">
<path fill="none" stroke="#63b8ff" d="M967.37,-322.35C910.18,-311.33 833.43,-295.92 766.12,-280.25 763.04,-279.53 759.9,-278.78 756.72,-278.01"/>
<polygon fill="#63b8ff" stroke="#63b8ff" points="966.57,-325.76 977.05,-324.21 967.89,-318.89 966.57,-325.76"/>
</a>
</g>
</g>
<!-- Node6&#45;&gt;Node11 -->
<g id="edge10_Node000006_Node000011" class="edge">
<title>Node6&#45;&gt;Node11</title>
<g id="a_edge10_Node000006_Node000011"><a xlink:title=" ">
<path fill="none" stroke="#63b8ff" d="M985.04,-311.59C959.54,-301.56 930.85,-290.27 906.42,-280.66"/>
<polygon fill="#63b8ff" stroke="#63b8ff" points="983.76,-314.85 994.35,-315.25 986.32,-308.34 983.76,-314.85"/>
</a>
</g>
</g>
<!-- Node6&#45;&gt;Node12 -->
<g id="edge14_Node000006_Node000012" class="edge">
<title>Node6&#45;&gt;Node12</title>
<g id="a_edge14_Node000006_Node000012"><a xlink:title=" ">
<path fill="none" stroke="#63b8ff" d="M1032.82,-306.03C1012.8,-274.13 982.71,-226.2 965.19,-198.28"/>
<polygon fill="#63b8ff" stroke="#63b8ff" points="1029.86,-307.89 1038.14,-314.5 1035.79,-304.17 1029.86,-307.89"/>
</a>
</g>
</g>
<!-- Node6&#45;&gt;Node13 -->
<g id="edge15_Node000006_Node000013" class="edge">
<title>Node6&#45;&gt;Node13</title>
<g id="a_edge15_Node000006_Node000013"><a xlink:title=" ">
<path fill="none" stroke="#63b8ff" d="M1098.83,-309.72C1117.9,-297.77 1139.32,-284.33 1155.53,-274.17"/>
<polygon fill="#63b8ff" stroke="#63b8ff" points="1097.02,-306.73 1090.4,-315 1100.73,-312.66 1097.02,-306.73"/>
</a>
</g>
</g>
<!-- Node8 -->
<g id="Node000008" class="node">
<title>Node8</title>
<g id="a_Node000008"><a xlink:href="solvers_8h.html" target="_top" xlink:title=" ">
<polygon fill="white" stroke="#666666" points="820.5,-115.75 671.75,-115.75 671.75,-69.5 820.5,-69.5 820.5,-115.75"/>
<text text-anchor="start" x="679.75" y="-102.25" font-family="Helvetica,sans-Serif" font-size="10.00">/__w/phaseField/phaseField</text>
<text text-anchor="start" x="679.75" y="-89.5" font-family="Helvetica,sans-Serif" font-size="10.00">/include/prismspf/solvers</text>
<text text-anchor="middle" x="746.12" y="-76.75" font-family="Helvetica,sans-Serif" font-size="10.00">/solvers.h</text>
</a>
</g>
</g>
<!-- Node7&#45;&gt;Node8 -->
<g id="edge7_Node000007_Node000008" class="edge">
<title>Node7&#45;&gt;Node8</title>
<g id="a_edge7_Node000007_Node000008"><a xlink:title=" ">
<path fill="none" stroke="#63b8ff" d="M710.64,-224.9C716.92,-216.65 722.93,-207.4 727.12,-198 738.98,-171.42 743.44,-137.89 745.11,-116.12"/>
<polygon fill="#63b8ff" stroke="#63b8ff" points="708.01,-222.59 704.48,-232.58 713.47,-226.97 708.01,-222.59"/>
</a>
</g>
</g>
<!-- Node9 -->
<g id="Node000009" class="node">
<title>Node9</title>
<g id="a_Node000009"><a xlink:href="problem_8cc.html" target="_top" xlink:title=" ">
<polygon fill="white" stroke="#666666" points="513.5,-33.5 364.75,-33.5 364.75,0 513.5,0 513.5,-33.5"/>
<text text-anchor="start" x="372.75" y="-20" font-family="Helvetica,sans-Serif" font-size="10.00">/__w/phaseField/phaseField</text>
<text text-anchor="middle" x="439.12" y="-7.25" font-family="Helvetica,sans-Serif" font-size="10.00">/src/core/problem.cc</text>
</a>
</g>
</g>
<!-- Node8&#45;&gt;Node9 -->
<g id="edge8_Node000008_Node000009" class="edge">
<title>Node8&#45;&gt;Node9</title>
<g id="a_edge8_Node000008_Node000009"><a xlink:title=" ">
<path fill="none" stroke="#63b8ff" d="M660.28,-70.97C611.68,-59.27 551.76,-44.85 506.56,-33.98"/>
<polygon fill="#63b8ff" stroke="#63b8ff" points="659.4,-74.36 669.95,-73.29 661.04,-67.55 659.4,-74.36"/>
</a>
</g>
</g>
<!-- Node10 -->
<g id="Node000010" class="node">
<title>Node10</title>
<g id="a_Node000010"><a xlink:href="solvers_8cc.html" target="_top" xlink:title=" ">
<polygon fill="white" stroke="#666666" points="820.5,-33.5 671.75,-33.5 671.75,0 820.5,0 820.5,-33.5"/>
<text text-anchor="start" x="679.75" y="-20" font-family="Helvetica,sans-Serif" font-size="10.00">/__w/phaseField/phaseField</text>
<text text-anchor="middle" x="746.12" y="-7.25" font-family="Helvetica,sans-Serif" font-size="10.00">/src/solvers/solvers.cc</text>
</a>
</g>
</g>
<!-- Node8&#45;&gt;Node10 -->
<g id="edge9_Node000008_Node000010" class="edge">
<title>Node8&#45;&gt;Node10</title>
<g id="a_edge9_Node000008_Node000010"><a xlink:title=" ">
<path fill="none" stroke="#63b8ff" d="M746.12,-57.64C746.12,-49.35 746.12,-40.86 746.12,-33.85"/>
<polygon fill="#63b8ff" stroke="#63b8ff" points="742.63,-57.55 746.13,-67.55 749.63,-57.55 742.63,-57.55"/>
</a>
</g>
</g>
<!-- Node11&#45;&gt;Node8 -->
<g id="edge13_Node000011_Node000008" class="edge">
<title>Node11&#45;&gt;Node8</title>
<g id="a_edge13_Node000011_Node000008"><a xlink:title=" ">
<path fill="none" stroke="#63b8ff" d="M828.89,-224.19C808.66,-192.29 778.1,-144.07 760.33,-116.03"/>
<polygon fill="#63b8ff" stroke="#63b8ff" points="825.68,-225.68 833.99,-232.25 831.6,-221.93 825.68,-225.68"/>
</a>
</g>
</g>
<!-- Node11&#45;&gt;Node12 -->
<g id="edge11_Node000011_Node000012" class="edge">
<title>Node11&#45;&gt;Node12</title>
<g id="a_edge11_Node000011_Node000012"><a xlink:title=" ">
<path fill="none" stroke="#63b8ff" d="M886.65,-226.6C898.55,-217.24 911.5,-207.05 922.66,-198.27"/>
<polygon fill="#63b8ff" stroke="#63b8ff" points="884.69,-223.69 879,-232.62 889.02,-229.19 884.69,-223.69"/>
</a>
</g>
</g>
<!-- Node12&#45;&gt;Node8 -->
<g id="edge12_Node000012_Node000008" class="edge">
<title>Node12&#45;&gt;Node8</title>
<g id="a_edge12_Node000012_Node000008"><a xlink:title=" ">
<path fill="none" stroke="#63b8ff" d="M883.05,-147.23C857.34,-137.16 828.36,-125.82 803.7,-116.16"/>
<polygon fill="#63b8ff" stroke="#63b8ff" points="881.48,-150.37 892.07,-150.76 884.03,-143.85 881.48,-150.37"/>
</a>
</g>
</g>
<!-- Node15 -->
<g id="Node000015" class="node">
<title>Node15</title>
<g id="a_Node000015"><a xlink:href="problem_8h.html" target="_top" xlink:title=" ">
<polygon fill="white" stroke="#666666" points="300.38,-273.88 123.88,-273.88 123.88,-240.38 300.38,-240.38 300.38,-273.88"/>
<text text-anchor="start" x="131.88" y="-260.38" font-family="Helvetica,sans-Serif" font-size="10.00">/__w/phaseField/phaseField</text>
<text text-anchor="middle" x="212.12" y="-247.62" font-family="Helvetica,sans-Serif" font-size="10.00">/include/prismspf/core/problem.h</text>
</a>
</g>
</g>
<!-- Node14&#45;&gt;Node15 -->
<g id="edge17_Node000014_Node000015" class="edge">
<title>Node14&#45;&gt;Node15</title>
<g id="a_edge17_Node000014_Node000015"><a xlink:title=" ">
<path fill="none" stroke="#63b8ff" d="M249.14,-474.16C238.04,-466.2 227.87,-456.46 221.12,-444.75 189.14,-389.24 201.15,-308.3 208.31,-274.21"/>
<polygon fill="#63b8ff" stroke="#63b8ff" points="247.09,-477 257.37,-479.58 250.95,-471.16 247.09,-477"/>
</a>
</g>
</g>
<!-- Node14&#45;&gt;Node16 -->
<g id="edge19_Node000014_Node000016" class="edge">
<title>Node14&#45;&gt;Node16</title>
<g id="a_edge19_Node000014_Node000016"><a xlink:title=" ">
<path fill="none" stroke="#63b8ff" d="M241.68,-475.61C223.48,-467 204.4,-456.6 188.12,-444.75 170.84,-432.17 132.54,-389.38 109.27,-362.65"/>
<polygon fill="#63b8ff" stroke="#63b8ff" points="240.05,-478.71 250.6,-479.7 242.97,-472.35 240.05,-478.71"/>
</a>
</g>
</g>
<!-- Node14&#45;&gt;Node17 -->
<g id="edge21_Node000014_Node000017" class="edge">
<title>Node14&#45;&gt;Node17</title>
<g id="a_edge21_Node000014_Node000017"><a xlink:title=" ">
<path fill="none" stroke="#63b8ff" d="M370.36,-475.55C391.82,-465.66 415.79,-454.6 436.26,-445.16"/>
<polygon fill="#63b8ff" stroke="#63b8ff" points="369.05,-472.31 361.43,-479.67 371.98,-478.66 369.05,-472.31"/>
</a>
</g>
</g>
<!-- Node19 -->
<g id="Node000019" class="node">
<title>Node19</title>
<g id="a_Node000019"><a xlink:href="nucleation__manager_8h.html" target="_top" xlink:title=" ">
<polygon fill="white" stroke="#666666" points="384.12,-444.75 230.12,-444.75 230.12,-398.5 384.12,-398.5 384.12,-444.75"/>
<text text-anchor="start" x="238.12" y="-431.25" font-family="Helvetica,sans-Serif" font-size="10.00">/__w/phaseField/phaseField</text>
<text text-anchor="start" x="238.12" y="-418.5" font-family="Helvetica,sans-Serif" font-size="10.00">/include/prismspf/nucleation</text>
<text text-anchor="middle" x="307.12" y="-405.75" font-family="Helvetica,sans-Serif" font-size="10.00">/nucleation_manager.h</text>
</a>
</g>
</g>
<!-- Node14&#45;&gt;Node19 -->
<g id="edge25_Node000014_Node000019" class="edge">
<title>Node14&#45;&gt;Node19</title>
<g id="a_edge25_Node000014_Node000019"><a xlink:title=" ">
<path fill="none" stroke="#63b8ff" d="M309.44,-469.09C309.04,-461 308.62,-452.57 308.25,-445.14"/>
<polygon fill="#63b8ff" stroke="#63b8ff" points="305.94,-469.2 309.94,-479.01 312.93,-468.85 305.94,-469.2"/>
</a>
</g>
</g>
<!-- Node14&#45;&gt;Node20 -->
<g id="edge27_Node000014_Node000020" class="edge">
<title>Node14&#45;&gt;Node20</title>
<g id="a_edge27_Node000014_Node000020"><a xlink:title=" ">
<path fill="none" stroke="#63b8ff" d="M396.8,-485.9C469.33,-471.53 572.25,-451.13 641.46,-437.42"/>
<polygon fill="#63b8ff" stroke="#63b8ff" points="396.49,-482.39 387.36,-487.77 397.85,-489.26 396.49,-482.39"/>
</a>
</g>
</g>
<!-- Node15&#45;&gt;Node9 -->
<g id="edge18_Node000015_Node000009" class="edge">
<title>Node15&#45;&gt;Node9</title>
<g id="a_edge18_Node000015_Node000009"><a xlink:title=" ">
<path fill="none" stroke="#63b8ff" d="M221.79,-229.19C237.3,-189.41 271.24,-114.79 322.12,-69.5 339.79,-53.77 363.01,-42.17 384.1,-33.99"/>
<polygon fill="#63b8ff" stroke="#63b8ff" points="218.55,-227.88 218.28,-238.47 225.09,-230.36 218.55,-227.88"/>
</a>
</g>
</g>
<!-- Node16&#45;&gt;Node15 -->
<g id="edge20_Node000016_Node000015" class="edge">
<title>Node16&#45;&gt;Node15</title>
<g id="a_edge20_Node000016_Node000015"><a xlink:title=" ">
<path fill="none" stroke="#63b8ff" d="M133.69,-309.72C151.86,-297.77 172.28,-284.33 187.73,-274.17"/>
<polygon fill="#63b8ff" stroke="#63b8ff" points="132.13,-306.56 125.7,-314.98 135.98,-312.4 132.13,-306.56"/>
</a>
</g>
</g>
<!-- Node17&#45;&gt;Node9 -->
<g id="edge23_Node000017_Node000009" class="edge">
<title>Node17&#45;&gt;Node9</title>
<g id="a_edge23_Node000017_Node000009"><a xlink:title=" ">
<path fill="none" stroke="#63b8ff" d="M392.58,-392.95C378.31,-385.11 365.04,-375.14 355.12,-362.5 326.02,-325.4 336.12,-305.28 336.12,-258.12 336.12,-258.12 336.12,-258.12 336.12,-173.88 336.12,-114.13 389.33,-59.61 419.27,-33.67"/>
<polygon fill="#63b8ff" stroke="#63b8ff" points="390.74,-395.94 401.24,-397.36 393.91,-389.71 390.74,-395.94"/>
</a>
</g>
</g>
<!-- Node17&#45;&gt;Node17 -->
<g id="edge22_Node000017_Node000017" class="edge">
<title>Node17&#45;&gt;Node17</title>
<g id="a_edge22_Node000017_Node000017"><a xlink:title=" ">
<path fill="none" stroke="#63b8ff" d="M579.02,-431.4C583.5,-428.95 586.12,-425.69 586.12,-421.62 586.12,-414.96 579.05,-410.45 568.33,-408.11"/>
<polygon fill="#63b8ff" stroke="#63b8ff" points="578.05,-428.04 569.76,-434.64 580.36,-434.64 578.05,-428.04"/>
</a>
</g>
</g>
<!-- Node18 -->
<g id="Node000018" class="node">
<title>Node18</title>
<g id="a_Node000018"><a xlink:href="solution__output_8cc.html" target="_top" xlink:title=" ">
<polygon fill="white" stroke="#666666" points="513.88,-356.12 364.38,-356.12 364.38,-322.62 513.88,-322.62 513.88,-356.12"/>
<text text-anchor="start" x="372.38" y="-342.62" font-family="Helvetica,sans-Serif" font-size="10.00">/__w/phaseField/phaseField</text>
<text text-anchor="middle" x="439.12" y="-329.88" font-family="Helvetica,sans-Serif" font-size="10.00">/src/core/solution_output.cc</text>
</a>
</g>
</g>
<!-- Node17&#45;&gt;Node18 -->
<g id="edge24_Node000017_Node000018" class="edge">
<title>Node17&#45;&gt;Node18</title>
<g id="a_edge24_Node000017_Node000018"><a xlink:title=" ">
<path fill="none" stroke="#63b8ff" d="M466.72,-388.51C460.41,-377.52 453.63,-365.69 448.37,-356.5"/>
<polygon fill="#63b8ff" stroke="#63b8ff" points="463.55,-390.02 471.56,-396.96 469.62,-386.54 463.55,-390.02"/>
</a>
</g>
</g>
<!-- Node19&#45;&gt;Node15 -->
<g id="edge26_Node000019_Node000015" class="edge">
<title>Node19&#45;&gt;Node15</title>
<g id="a_edge26_Node000019_Node000015"><a xlink:title=" ">
<path fill="none" stroke="#63b8ff" d="M288.29,-388.41C268.13,-353.93 236.97,-300.62 221.5,-274.16"/>
<polygon fill="#63b8ff" stroke="#63b8ff" points="285.08,-389.86 293.15,-396.72 291.13,-386.32 285.08,-389.86"/>
</a>
</g>
</g>
<!-- Node20&#45;&gt;Node6 -->
<g id="edge33_Node000020_Node000006" class="edge">
<title>Node20&#45;&gt;Node6</title>
<g id="a_edge33_Node000020_Node000006"><a xlink:title=" ">
<path fill="none" stroke="#63b8ff" d="M802.11,-398.98C802.78,-398.82 803.45,-398.66 804.12,-398.5 875.46,-381.56 893.79,-379.44 965.12,-362.5 969.42,-361.48 973.82,-360.42 978.27,-359.34"/>
<polygon fill="#63b8ff" stroke="#63b8ff" points="801.36,-395.56 792.46,-401.31 803,-402.37 801.36,-395.56"/>
</a>
</g>
</g>
<!-- Node20&#45;&gt;Node7 -->
<g id="edge31_Node000020_Node000007" class="edge">
<title>Node20&#45;&gt;Node7</title>
<g id="a_edge31_Node000020_Node000007"><a xlink:title=" ">
<path fill="none" stroke="#63b8ff" d="M709.1,-387.03C702.42,-355.13 692.58,-308.09 686.81,-280.53"/>
<polygon fill="#63b8ff" stroke="#63b8ff" points="705.61,-387.48 711.09,-396.55 712.47,-386.04 705.61,-387.48"/>
</a>
</g>
</g>
<!-- Node20&#45;&gt;Node9 -->
<g id="edge35_Node000020_Node000009" class="edge">
<title>Node20&#45;&gt;Node9</title>
<g id="a_edge35_Node000020_Node000009"><a xlink:title=" ">
<path fill="none" stroke="#63b8ff" d="M652.87,-392.83C603.11,-366.19 542.12,-320.77 542.12,-258.12 542.12,-258.12 542.12,-258.12 542.12,-173.88 542.12,-114.13 488.92,-59.61 458.98,-33.67"/>
<polygon fill="#63b8ff" stroke="#63b8ff" points="651.14,-395.88 661.63,-397.37 654.36,-389.66 651.14,-395.88"/>
</a>
</g>
</g>
<!-- Node20&#45;&gt;Node11 -->
<g id="edge32_Node000020_Node000011" class="edge">
<title>Node20&#45;&gt;Node11</title>
<g id="a_edge32_Node000020_Node000011"><a xlink:title=" ">
<path fill="none" stroke="#63b8ff" d="M716.42,-387.2C718.19,-365.08 723.69,-336.52 739.12,-316.25 750.71,-301.04 767.43,-289.4 784.35,-280.68"/>
<polygon fill="#63b8ff" stroke="#63b8ff" points="712.94,-386.72 715.87,-396.9 719.93,-387.12 712.94,-386.72"/>
</a>
</g>
</g>
<!-- Node20&#45;&gt;Node12 -->
<g id="edge34_Node000020_Node000012" class="edge">
<title>Node20&#45;&gt;Node12</title>
<g id="a_edge34_Node000020_Node000012"><a xlink:title=" ">
<path fill="none" stroke="#63b8ff" d="M801.81,-398.15C847.97,-385.36 897.11,-370.36 905.12,-362.5 950.14,-318.33 953.76,-237.66 952.57,-198.46"/>
<polygon fill="#63b8ff" stroke="#63b8ff" points="800.96,-394.75 792.25,-400.78 802.82,-401.5 800.96,-394.75"/>
</a>
</g>
</g>
<!-- Node20&#45;&gt;Node16 -->
<g id="edge28_Node000020_Node000016" class="edge">
<title>Node20&#45;&gt;Node16</title>
<g id="a_edge28_Node000020_Node000016"><a xlink:title=" ">
<path fill="none" stroke="#63b8ff" d="M630.18,-404.19C618.42,-402.15 606.49,-400.19 595.12,-398.5 450.66,-377 281.92,-359.01 180.67,-348.97"/>
<polygon fill="#63b8ff" stroke="#63b8ff" points="629.43,-407.61 639.89,-405.9 630.65,-400.71 629.43,-407.61"/>
</a>
</g>
</g>
<!-- Node21 -->
<g id="Node000021" class="node">
<title>Node21</title>
<g id="a_Node000021"><a xlink:href="constant__solver_8h.html" target="_top" xlink:title=" ">
<polygon fill="white" stroke="#666666" points="718.5,-198 569.75,-198 569.75,-151.75 718.5,-151.75 718.5,-198"/>
<text text-anchor="start" x="577.75" y="-184.5" font-family="Helvetica,sans-Serif" font-size="10.00">/__w/phaseField/phaseField</text>
<text text-anchor="start" x="577.75" y="-171.75" font-family="Helvetica,sans-Serif" font-size="10.00">/include/prismspf/solvers</text>
<text text-anchor="middle" x="644.12" y="-159" font-family="Helvetica,sans-Serif" font-size="10.00">/constant_solver.h</text>
</a>
</g>
</g>
<!-- Node20&#45;&gt;Node21 -->
<g id="edge29_Node000020_Node000021" class="edge">
<title>Node20&#45;&gt;Node21</title>
<g id="a_edge29_Node000020_Node000021"><a xlink:title=" ">
<path fill="none" stroke="#63b8ff" d="M680.11,-390.65C652.03,-364.76 615.18,-324.59 599.12,-280.25 592.13,-260.92 592.48,-253.45 599.12,-234 603.62,-220.84 612.45,-208.35 621.1,-198.34"/>
<polygon fill="#63b8ff" stroke="#63b8ff" points="677.62,-393.12 687.39,-397.21 682.3,-387.92 677.62,-393.12"/>
</a>
</g>
</g>
<!-- Node22 -->
<g id="Node000022" class="node">
<title>Node22</title>
<g id="a_Node000022"><a xlink:href="solver__base_8cc.html" target="_top" xlink:title=" ">
<polygon fill="white" stroke="#666666" points="896.5,-356.12 747.75,-356.12 747.75,-322.62 896.5,-322.62 896.5,-356.12"/>
<text text-anchor="start" x="755.75" y="-342.62" font-family="Helvetica,sans-Serif" font-size="10.00">/__w/phaseField/phaseField</text>
<text text-anchor="middle" x="822.12" y="-329.88" font-family="Helvetica,sans-Serif" font-size="10.00">/src/solvers/solver_base.cc</text>
</a>
</g>
</g>
<!-- Node20&#45;&gt;Node22 -->
<g id="edge36_Node000020_Node000022" class="edge">
<title>Node20&#45;&gt;Node22</title>
<g id="a_edge36_Node000020_Node000022"><a xlink:title=" ">
<path fill="none" stroke="#63b8ff" d="M754.85,-391.31C770.41,-379.52 787.75,-366.4 800.93,-356.42"/>
<polygon fill="#63b8ff" stroke="#63b8ff" points="753,-388.32 747.14,-397.14 757.23,-393.9 753,-388.32"/>
</a>
</g>
</g>
<!-- Node21&#45;&gt;Node8 -->
<g id="edge30_Node000021_Node000008" class="edge">
<title>Node21&#45;&gt;Node8</title>
<g id="a_edge30_Node000021_Node000008"><a xlink:title=" ">
<path fill="none" stroke="#63b8ff" d="M681.65,-144.35C693.55,-134.99 706.5,-124.8 717.66,-116.02"/>
<polygon fill="#63b8ff" stroke="#63b8ff" points="679.69,-141.44 674,-150.37 684.02,-146.94 679.69,-141.44"/>
</a>
</g>
</g>
<!-- Node28&#45;&gt;Node2 -->
<g id="edge55_Node000028_Node000002" class="edge">
<title>Node28&#45;&gt;Node2</title>
<g id="a_edge55_Node000028_Node000002"><a xlink:title=" ">
<path fill="none" stroke="#63b8ff" d="M439.08,-892.59C440.1,-892.39 441.12,-892.19 442.12,-892 553.19,-870.88 682.92,-853.28 763.56,-843.16"/>
<polygon fill="#63b8ff" stroke="#63b8ff" points="438.61,-889.11 429.51,-894.52 440,-895.97 438.61,-889.11"/>
</a>
</g>
</g>
<!-- Node28&#45;&gt;Node6 -->
<g id="edge60_Node000028_Node000006" class="edge">
<title>Node28&#45;&gt;Node6</title>
<g id="a_edge60_Node000028_Node000006"><a xlink:title=" ">
<path fill="none" stroke="#63b8ff" d="M367.07,-881.73C420.96,-790.64 576.34,-535.31 656.12,-480.75 710.22,-443.76 736.88,-465.26 799.12,-444.75 872.03,-420.73 953.7,-385.64 1004.27,-362.91"/>
<polygon fill="#63b8ff" stroke="#63b8ff" points="364.14,-879.82 362.07,-890.21 370.17,-883.37 364.14,-879.82"/>
</a>
</g>
</g>
<!-- Node28&#45;&gt;Node14 -->
<g id="edge61_Node000028_Node000014" class="edge">
<title>Node28&#45;&gt;Node14</title>
<g id="a_edge61_Node000028_Node000014"><a xlink:title=" ">
<path fill="none" stroke="#63b8ff" d="M324.93,-882.39C304.22,-850.86 277.12,-800.31 277.12,-751.62 277.12,-751.62 277.12,-751.62 277.12,-667.38 277.12,-616.5 293.29,-558.54 303.32,-527.44"/>
<polygon fill="#63b8ff" stroke="#63b8ff" points="321.77,-883.96 330.27,-890.28 327.57,-880.04 321.77,-883.96"/>
</a>
</g>
</g>
<!-- Node28&#45;&gt;Node16 -->
<g id="edge59_Node000028_Node000016" class="edge">
<title>Node28&#45;&gt;Node16</title>
<g id="a_edge59_Node000028_Node000016"><a xlink:title=" ">
<path fill="none" stroke="#63b8ff" d="M294.73,-885.81C229.04,-846.66 126.12,-769.37 126.12,-669.38 126.12,-669.38 126.12,-669.38 126.12,-502.88 126.12,-451.87 109.01,-393.95 98.38,-362.9"/>
<polygon fill="#63b8ff" stroke="#63b8ff" points="292.82,-888.75 303.22,-890.77 296.35,-882.7 292.82,-888.75"/>
</a>
</g>
</g>
<!-- Node29 -->
<g id="Node000029" class="node">
<title>Node29</title>
<g id="a_Node000029"><a xlink:href="invm__manager_8h.html" target="_top" xlink:title=" ">
<polygon fill="white" stroke="#666666" points="495,-609.25 343.25,-609.25 343.25,-563 495,-563 495,-609.25"/>
<text text-anchor="start" x="351.25" y="-595.75" font-family="Helvetica,sans-Serif" font-size="10.00">/__w/phaseField/phaseField</text>
<text text-anchor="start" x="351.25" y="-583" font-family="Helvetica,sans-Serif" font-size="10.00">/include/prismspf/core/invm</text>
<text text-anchor="middle" x="419.12" y="-570.25" font-family="Helvetica,sans-Serif" font-size="10.00">_manager.h</text>
</a>
</g>
</g>
<!-- Node28&#45;&gt;Node29 -->
<g id="edge56_Node000028_Node000029" class="edge">
<title>Node28&#45;&gt;Node29</title>
<g id="a_edge56_Node000028_Node000029"><a xlink:title=" ">
<path fill="none" stroke="#63b8ff" d="M355.42,-880.52C369.94,-813.65 402.1,-665.52 414.3,-609.33"/>
<polygon fill="#63b8ff" stroke="#63b8ff" points="352.03,-879.65 353.33,-890.17 358.87,-881.14 352.03,-879.65"/>
</a>
</g>
</g>
<!-- Node29&#45;&gt;Node11 -->
<g id="edge57_Node000029_Node000011" class="edge">
<title>Node29&#45;&gt;Node11</title>
<g id="a_edge57_Node000029_Node000011"><a xlink:title=" ">
<path fill="none" stroke="#63b8ff" d="M454.43,-555.69C479.97,-534.56 515.41,-505.56 547.12,-480.75 568.13,-464.32 575.86,-463.18 595.12,-444.75 614.35,-426.36 615.21,-418.17 633.12,-398.5 668.1,-360.11 673.16,-345.42 716.12,-316.25 737.08,-302.02 762.08,-290.01 784.72,-280.66"/>
<polygon fill="#63b8ff" stroke="#63b8ff" points="452.47,-552.77 447,-561.85 456.94,-558.16 452.47,-552.77"/>
</a>
</g>
</g>
<!-- Node29&#45;&gt;Node14 -->
<g id="edge58_Node000029_Node000014" class="edge">
<title>Node29&#45;&gt;Node14</title>
<g id="a_edge58_Node000029_Node000014"><a xlink:title=" ">
<path fill="none" stroke="#63b8ff" d="M379.76,-555.87C367.06,-546.44 353.19,-536.13 341.27,-527.27"/>
<polygon fill="#63b8ff" stroke="#63b8ff" points="377.42,-558.5 387.54,-561.65 381.6,-552.88 377.42,-558.5"/>
</a>
</g>
</g>
</g>
</svg>
