<?xml version="1.0" encoding="UTF-8" standalone="no"?>
<!DOCTYPE svg PUBLIC "-//W3C//DTD SVG 1.1//EN"
 "http://www.w3.org/Graphics/SVG/1.1/DTD/svg11.dtd">
<!-- Generated by graphviz version 12.2.1 (20241206.2353)
 -->
<!-- Title: include/prismspf/user_inputs/constraint_parameters.h Pages: 1 -->
<svg width="2046pt" height="364pt"
 viewBox="0.00 0.00 2045.50 363.50" xmlns="http://www.w3.org/2000/svg" xmlns:xlink="http://www.w3.org/1999/xlink">
<g id="graph0" class="graph" transform="scale(1 1) rotate(0) translate(4 359.5)">
<title>include/prismspf/user_inputs/constraint_parameters.h</title>
<!-- Node1 -->
<g id="Node000001" class="node">
<title>Node1</title>
<g id="a_Node000001"><a xlink:title=" ">
<polygon fill="#999999" stroke="#666666" points="1219.38,-355.5 1045.88,-355.5 1045.88,-322 1219.38,-322 1219.38,-355.5"/>
<text text-anchor="start" x="1053.88" y="-342" font-family="Helvetica,sans-Serif" font-size="10.00">include/prismspf/user</text>
<text text-anchor="middle" x="1132.62" y="-329.25" font-family="Helvetica,sans-Serif" font-size="10.00">_inputs/constraint_parameters.h</text>
</a>
</g>
</g>
<!-- Node2 -->
<g id="Node000002" class="node">
<title>Node2</title>
<g id="a_Node000002"><a xlink:title=" ">
<polygon fill="#e0e0e0" stroke="#999999" points="553.75,-216.5 427.5,-216.5 427.5,-183 553.75,-183 553.75,-216.5"/>
<text text-anchor="start" x="435.5" y="-203" font-family="Helvetica,sans-Serif" font-size="10.00">deal.II/base/parameter</text>
<text text-anchor="middle" x="490.62" y="-190.25" font-family="Helvetica,sans-Serif" font-size="10.00">_handler.h</text>
</a>
</g>
</g>
<!-- Node1&#45;&gt;Node2 -->
<g id="edge1_Node000001_Node000002" class="edge">
<title>Node1&#45;&gt;Node2</title>
<g id="a_edge1_Node000001_Node000002"><a xlink:title=" ">
<path fill="none" stroke="#63b8ff" d="M1045.41,-331.42C964.77,-324.36 841.97,-310.58 737.62,-286 667.63,-269.52 589.62,-240.76 540.35,-221.25"/>
<polygon fill="#63b8ff" stroke="#63b8ff" points="541.67,-218.01 531.09,-217.55 539.08,-224.51 541.67,-218.01"/>
</a>
</g>
</g>
<!-- Node3 -->
<g id="Node000003" class="node">
<title>Node3</title>
<g id="a_Node000003"><a xlink:title=" ">
<polygon fill="#e0e0e0" stroke="#999999" points="1308.12,-279.62 1199.12,-279.62 1199.12,-258.88 1308.12,-258.88 1308.12,-279.62"/>
<text text-anchor="middle" x="1253.62" y="-266.12" font-family="Helvetica,sans-Serif" font-size="10.00">deal.II/base/point.h</text>
</a>
</g>
</g>
<!-- Node1&#45;&gt;Node3 -->
<g id="edge2_Node000001_Node000003" class="edge">
<title>Node1&#45;&gt;Node3</title>
<g id="a_edge2_Node000001_Node000003"><a xlink:title=" ">
<path fill="none" stroke="#63b8ff" d="M1161.61,-321.58C1181.19,-310.66 1206.89,-296.32 1226.15,-285.58"/>
<polygon fill="#63b8ff" stroke="#63b8ff" points="1227.76,-288.69 1234.79,-280.76 1224.35,-282.57 1227.76,-288.69"/>
</a>
</g>
</g>
<!-- Node4 -->
<g id="Node000004" class="node">
<title>Node4</title>
<g id="a_Node000004"><a xlink:title=" ">
<polygon fill="#e0e0e0" stroke="#999999" points="1440.75,-279.62 1326.5,-279.62 1326.5,-258.88 1440.75,-258.88 1440.75,-279.62"/>
<text text-anchor="middle" x="1383.62" y="-266.12" font-family="Helvetica,sans-Serif" font-size="10.00">deal.II/base/tensor.h</text>
</a>
</g>
</g>
<!-- Node1&#45;&gt;Node4 -->
<g id="edge3_Node000001_Node000004" class="edge">
<title>Node1&#45;&gt;Node4</title>
<g id="a_edge3_Node000001_Node000004"><a xlink:title=" ">
<path fill="none" stroke="#63b8ff" d="M1192.75,-321.58C1236.63,-309.78 1295.3,-294 1335.96,-283.07"/>
<polygon fill="#63b8ff" stroke="#63b8ff" points="1336.72,-286.49 1345.46,-280.51 1334.9,-279.73 1336.72,-286.49"/>
</a>
</g>
</g>
<!-- Node5 -->
<g id="Node000005" class="node">
<title>Node5</title>
<g id="a_Node000005"><a xlink:title=" ">
<polygon fill="#e0e0e0" stroke="#999999" points="1570.25,-279.62 1459,-279.62 1459,-258.88 1570.25,-258.88 1570.25,-279.62"/>
<text text-anchor="middle" x="1514.62" y="-266.12" font-family="Helvetica,sans-Serif" font-size="10.00">deal.II/base/types.h</text>
</a>
</g>
</g>
<!-- Node1&#45;&gt;Node5 -->
<g id="edge4_Node000001_Node000005" class="edge">
<title>Node1&#45;&gt;Node5</title>
<g id="a_edge4_Node000001_Node000005"><a xlink:title=" ">
<path fill="none" stroke="#63b8ff" d="M1219.73,-325.35C1283.6,-315.82 1372.29,-301.66 1449.62,-286 1454.76,-284.96 1460.1,-283.8 1465.43,-282.59"/>
<polygon fill="#63b8ff" stroke="#63b8ff" points="1465.82,-286.09 1474.76,-280.41 1464.23,-279.27 1465.82,-286.09"/>
</a>
</g>
</g>
<!-- Node6 -->
<g id="Node000006" class="node">
<title>Node6</title>
<g id="a_Node000006"><a xlink:title=" ">
<polygon fill="#e0e0e0" stroke="#999999" points="1709.12,-279.62 1588.12,-279.62 1588.12,-258.88 1709.12,-258.88 1709.12,-279.62"/>
<text text-anchor="middle" x="1648.62" y="-266.12" font-family="Helvetica,sans-Serif" font-size="10.00">deal.II/base/utilities.h</text>
</a>
</g>
</g>
<!-- Node1&#45;&gt;Node6 -->
<g id="edge5_Node000001_Node000006" class="edge">
<title>Node1&#45;&gt;Node6</title>
<g id="a_edge5_Node000001_Node000006"><a xlink:title=" ">
<path fill="none" stroke="#63b8ff" d="M1219.55,-330.52C1309.92,-322.34 1455.27,-307.33 1579.62,-286 1585.6,-284.97 1591.84,-283.76 1598.02,-282.46"/>
<polygon fill="#63b8ff" stroke="#63b8ff" points="1598.5,-285.94 1607.52,-280.4 1597.01,-279.1 1598.5,-285.94"/>
</a>
</g>
</g>
<!-- Node7 -->
<g id="Node000007" class="node">
<title>Node7</title>
<g id="a_Node000007"><a xlink:title=" ">
<polygon fill="#e0e0e0" stroke="#999999" points="1851.62,-286 1727.62,-286 1727.62,-252.5 1851.62,-252.5 1851.62,-286"/>
<text text-anchor="start" x="1735.62" y="-272.5" font-family="Helvetica,sans-Serif" font-size="10.00">boost/algorithm/string</text>
<text text-anchor="middle" x="1789.62" y="-259.75" font-family="Helvetica,sans-Serif" font-size="10.00">/predicate.hpp</text>
</a>
</g>
</g>
<!-- Node1&#45;&gt;Node7 -->
<g id="edge6_Node000001_Node000007" class="edge">
<title>Node1&#45;&gt;Node7</title>
<g id="a_edge6_Node000001_Node000007"><a xlink:title=" ">
<path fill="none" stroke="#63b8ff" d="M1219.43,-333.62C1331.9,-327.49 1534.19,-313.76 1716.24,-286.24"/>
<polygon fill="#63b8ff" stroke="#63b8ff" points="1716.52,-289.74 1725.88,-284.77 1715.46,-282.82 1716.52,-289.74"/>
</a>
</g>
</g>
<!-- Node8 -->
<g id="Node000008" class="node">
<title>Node8</title>
<g id="a_Node000008"><a xlink:href="conditional__ostreams_8h.html" target="_top" xlink:title=" ">
<polygon fill="white" stroke="#666666" points="167.5,-286 27.75,-286 27.75,-252.5 167.5,-252.5 167.5,-286"/>
<text text-anchor="start" x="35.75" y="-272.5" font-family="Helvetica,sans-Serif" font-size="10.00">prismspf/core/conditional</text>
<text text-anchor="middle" x="97.62" y="-259.75" font-family="Helvetica,sans-Serif" font-size="10.00">_ostreams.h</text>
</a>
</g>
</g>
<!-- Node1&#45;&gt;Node8 -->
<g id="edge7_Node000001_Node000008" class="edge">
<title>Node1&#45;&gt;Node8</title>
<g id="a_edge7_Node000001_Node000008"><a xlink:title=" ">
<path fill="none" stroke="#63b8ff" d="M1045.43,-336.82C877.6,-334.18 498.25,-324.13 181.62,-286 180.77,-285.9 179.91,-285.79 179.04,-285.68"/>
<polygon fill="#63b8ff" stroke="#63b8ff" points="179.53,-282.21 169.14,-284.3 178.56,-289.15 179.53,-282.21"/>
</a>
</g>
</g>
<!-- Node10 -->
<g id="Node000010" class="node">
<title>Node10</title>
<g id="a_Node000010"><a xlink:title=" ">
<polygon fill="#e0e0e0" stroke="#999999" points="635.62,-20.75 535.62,-20.75 535.62,0 635.62,0 635.62,-20.75"/>
<text text-anchor="middle" x="585.62" y="-7.25" font-family="Helvetica,sans-Serif" font-size="10.00">prismspf/config.h</text>
</a>
</g>
</g>
<!-- Node1&#45;&gt;Node10 -->
<g id="edge41_Node000001_Node000010" class="edge">
<title>Node1&#45;&gt;Node10</title>
<g id="a_edge41_Node000001_Node000010"><a xlink:title=" ">
<path fill="none" stroke="#63b8ff" d="M1045.63,-337.05C867.35,-334.82 466.3,-325.44 335.62,-286 265.88,-264.95 195.62,-273.6 195.62,-200.75 195.62,-200.75 195.62,-200.75 195.62,-135.62 195.62,-67.51 414.35,-31.73 524.2,-18.06"/>
<polygon fill="#63b8ff" stroke="#63b8ff" points="524.43,-21.56 533.94,-16.87 523.59,-14.61 524.43,-21.56"/>
</a>
</g>
</g>
<!-- Node11 -->
<g id="Node000011" class="node">
<title>Node11</title>
<g id="a_Node000011"><a xlink:href="exceptions_8h.html" target="_top" xlink:title=" ">
<polygon fill="white" stroke="#666666" points="371.62,-210.12 223.62,-210.12 223.62,-189.38 371.62,-189.38 371.62,-210.12"/>
<text text-anchor="middle" x="297.62" y="-196.62" font-family="Helvetica,sans-Serif" font-size="10.00">prismspf/core/exceptions.h</text>
</a>
</g>
</g>
<!-- Node1&#45;&gt;Node11 -->
<g id="edge10_Node000001_Node000011" class="edge">
<title>Node1&#45;&gt;Node11</title>
<g id="a_edge10_Node000001_Node000011"><a xlink:title=" ">
<path fill="none" stroke="#63b8ff" d="M1045.41,-335.07C861.21,-328.91 444.55,-312.27 385.62,-286 353.38,-271.63 325.96,-240.06 310.66,-219.63"/>
<polygon fill="#63b8ff" stroke="#63b8ff" points="313.55,-217.66 304.86,-211.6 307.88,-221.76 313.55,-217.66"/>
</a>
</g>
</g>
<!-- Node13 -->
<g id="Node000013" class="node">
<title>Node13</title>
<g id="a_Node000013"><a xlink:href="types_8h.html" target="_top" xlink:title=" ">
<polygon fill="white" stroke="#666666" points="621.5,-147 499.75,-147 499.75,-126.25 621.5,-126.25 621.5,-147"/>
<text text-anchor="middle" x="560.62" y="-133.5" font-family="Helvetica,sans-Serif" font-size="10.00">prismspf/core/types.h</text>
</a>
</g>
</g>
<!-- Node1&#45;&gt;Node13 -->
<g id="edge30_Node000001_Node000013" class="edge">
<title>Node1&#45;&gt;Node13</title>
<g id="a_edge30_Node000001_Node000013"><a xlink:title=" ">
<path fill="none" stroke="#63b8ff" d="M1045.51,-337.4C871.3,-334.54 490.46,-316.71 418.62,-216.5 409.95,-204.4 409.84,-195.02 418.62,-183 428.5,-169.48 464.66,-158.04 498.02,-150.02"/>
<polygon fill="#63b8ff" stroke="#63b8ff" points="498.75,-153.45 507.7,-147.78 497.17,-146.63 498.75,-153.45"/>
</a>
</g>
</g>
<!-- Node15 -->
<g id="Node000015" class="node">
<title>Node15</title>
<g id="a_Node000015"><a xlink:href="type__enums_8h.html" target="_top" xlink:title=" ">
<polygon fill="white" stroke="#666666" points="861.38,-90.25 753.88,-90.25 753.88,-56.75 861.38,-56.75 861.38,-90.25"/>
<text text-anchor="start" x="761.88" y="-76.75" font-family="Helvetica,sans-Serif" font-size="10.00">prismspf/core/type</text>
<text text-anchor="middle" x="807.62" y="-64" font-family="Helvetica,sans-Serif" font-size="10.00">_enums.h</text>
</a>
</g>
</g>
<!-- Node1&#45;&gt;Node15 -->
<g id="edge29_Node000001_Node000015" class="edge">
<title>Node1&#45;&gt;Node15</title>
<g id="a_edge29_Node000001_Node000015"><a xlink:title=" ">
<path fill="none" stroke="#63b8ff" d="M1130.36,-321.79C1123.75,-281.54 1100.5,-175.61 1033.62,-126.25 987,-91.84 921.35,-79.77 872.81,-75.79"/>
<polygon fill="#63b8ff" stroke="#63b8ff" points="873.22,-72.31 862.99,-75.09 872.72,-79.29 873.22,-72.31"/>
</a>
</g>
</g>
<!-- Node17 -->
<g id="Node000017" class="node">
<title>Node17</title>
<g id="a_Node000017"><a xlink:title=" ">
<polygon fill="#e0e0e0" stroke="#999999" points="994.5,-20.75 950.75,-20.75 950.75,0 994.5,0 994.5,-20.75"/>
<text text-anchor="middle" x="972.62" y="-7.25" font-family="Helvetica,sans-Serif" font-size="10.00">string</text>
</a>
</g>
</g>
<!-- Node1&#45;&gt;Node17 -->
<g id="edge44_Node000001_Node000017" class="edge">
<title>Node1&#45;&gt;Node17</title>
<g id="a_edge44_Node000001_Node000017"><a xlink:title=" ">
<path fill="none" stroke="#63b8ff" d="M1140.13,-321.7C1151.21,-296.52 1170.62,-245.92 1170.62,-200.75 1170.62,-200.75 1170.62,-200.75 1170.62,-135.62 1170.62,-58.9 1062.64,-27.74 1006.17,-16.68"/>
<polygon fill="#63b8ff" stroke="#63b8ff" points="1006.91,-13.26 996.44,-14.89 1005.64,-20.14 1006.91,-13.26"/>
</a>
</g>
</g>
<!-- Node19 -->
<g id="Node000019" class="node">
<title>Node19</title>
<g id="a_Node000019"><a xlink:href="field__attributes_8h.html" target="_top" xlink:title=" ">
<polygon fill="white" stroke="#666666" points="913,-216.5 806.25,-216.5 806.25,-183 913,-183 913,-216.5"/>
<text text-anchor="start" x="814.25" y="-203" font-family="Helvetica,sans-Serif" font-size="10.00">prismspf/core/field</text>
<text text-anchor="middle" x="859.62" y="-190.25" font-family="Helvetica,sans-Serif" font-size="10.00">_attributes.h</text>
</a>
</g>
</g>
<!-- Node1&#45;&gt;Node19 -->
<g id="edge21_Node000001_Node000019" class="edge">
<title>Node1&#45;&gt;Node19</title>
<g id="a_edge21_Node000001_Node000019"><a xlink:title=" ">
<path fill="none" stroke="#63b8ff" d="M1100.51,-321.63C1051.12,-296.85 956.5,-249.36 901.7,-221.86"/>
<polygon fill="#63b8ff" stroke="#63b8ff" points="903.48,-218.84 892.97,-217.49 900.34,-225.1 903.48,-218.84"/>
</a>
</g>
</g>
<!-- Node20 -->
<g id="Node000020" class="node">
<title>Node20</title>
<g id="a_Node000020"><a xlink:title=" ">
<polygon fill="#e0e0e0" stroke="#999999" points="1024.5,-147 986.75,-147 986.75,-126.25 1024.5,-126.25 1024.5,-147"/>
<text text-anchor="middle" x="1005.62" y="-133.5" font-family="Helvetica,sans-Serif" font-size="10.00">map</text>
</a>
</g>
</g>
<!-- Node1&#45;&gt;Node20 -->
<g id="edge43_Node000001_Node000020" class="edge">
<title>Node1&#45;&gt;Node20</title>
<g id="a_edge43_Node000001_Node000020"><a xlink:title=" ">
<path fill="none" stroke="#63b8ff" d="M1123.24,-321.72C1106.56,-293.39 1070.4,-232.76 1037.62,-183 1031.81,-174.17 1025.1,-164.58 1019.34,-156.49"/>
<polygon fill="#63b8ff" stroke="#63b8ff" points="1022.24,-154.54 1013.56,-148.47 1016.56,-158.63 1022.24,-154.54"/>
</a>
</g>
</g>
<!-- Node22 -->
<g id="Node000022" class="node">
<title>Node22</title>
<g id="a_Node000022"><a xlink:href="parameter__base_8h.html" target="_top" xlink:title=" ">
<polygon fill="white" stroke="#666666" points="864.62,-286 746.62,-286 746.62,-252.5 864.62,-252.5 864.62,-286"/>
<text text-anchor="start" x="754.62" y="-272.5" font-family="Helvetica,sans-Serif" font-size="10.00">prismspf/user_inputs</text>
<text text-anchor="middle" x="805.62" y="-259.75" font-family="Helvetica,sans-Serif" font-size="10.00">/parameter_base.h</text>
</a>
</g>
</g>
<!-- Node1&#45;&gt;Node22 -->
<g id="edge31_Node000001_Node000022" class="edge">
<title>Node1&#45;&gt;Node22</title>
<g id="a_edge31_Node000001_Node000022"><a xlink:title=" ">
<path fill="none" stroke="#63b8ff" d="M1054.3,-321.58C1000.08,-310.39 928.53,-295.62 876.1,-284.8"/>
<polygon fill="#63b8ff" stroke="#63b8ff" points="876.87,-281.38 866.37,-282.79 875.45,-288.24 876.87,-281.38"/>
</a>
</g>
</g>
<!-- Node26 -->
<g id="Node000026" class="node">
<title>Node26</title>
<g id="a_Node000026"><a xlink:title=" ">
<polygon fill="#e0e0e0" stroke="#999999" points="1933.25,-279.62 1870,-279.62 1870,-258.88 1933.25,-258.88 1933.25,-279.62"/>
<text text-anchor="middle" x="1901.62" y="-266.12" font-family="Helvetica,sans-Serif" font-size="10.00">algorithm</text>
</a>
</g>
</g>
<!-- Node1&#45;&gt;Node26 -->
<g id="edge42_Node000001_Node000026" class="edge">
<title>Node1&#45;&gt;Node26</title>
<g id="a_edge42_Node000001_Node000026"><a xlink:title=" ">
<path fill="none" stroke="#63b8ff" d="M1219.57,-334.79C1385.35,-328.6 1740.81,-312.65 1860.62,-286 1863.43,-285.38 1866.29,-284.6 1869.14,-283.72"/>
<polygon fill="#63b8ff" stroke="#63b8ff" points="1870.15,-287.07 1878.44,-280.48 1867.84,-280.46 1870.15,-287.07"/>
</a>
</g>
</g>
<!-- Node27 -->
<g id="Node000027" class="node">
<title>Node27</title>
<g id="a_Node000027"><a xlink:title=" ">
<polygon fill="#e0e0e0" stroke="#999999" points="2037.5,-279.62 1951.75,-279.62 1951.75,-258.88 2037.5,-258.88 2037.5,-279.62"/>
<text text-anchor="middle" x="1994.62" y="-266.12" font-family="Helvetica,sans-Serif" font-size="10.00">unordered_set</text>
</a>
</g>
</g>
<!-- Node1&#45;&gt;Node27 -->
<g id="edge45_Node000001_Node000027" class="edge">
<title>Node1&#45;&gt;Node27</title>
<g id="a_edge45_Node000001_Node000027"><a xlink:title=" ">
<path fill="none" stroke="#63b8ff" d="M1219.73,-338.72C1368.97,-338.93 1682.63,-333.03 1942.62,-286 1946.77,-285.25 1951.05,-284.28 1955.29,-283.2"/>
<polygon fill="#63b8ff" stroke="#63b8ff" points="1956.16,-286.59 1964.85,-280.52 1954.28,-279.85 1956.16,-286.59"/>
</a>
</g>
</g>
<!-- Node9 -->
<g id="Node000009" class="node">
<title>Node9</title>
<g id="a_Node000009"><a xlink:title=" ">
<polygon fill="#e0e0e0" stroke="#999999" points="129.25,-216.5 0,-216.5 0,-183 129.25,-183 129.25,-216.5"/>
<text text-anchor="start" x="8" y="-203" font-family="Helvetica,sans-Serif" font-size="10.00">deal.II/base/conditional</text>
<text text-anchor="middle" x="64.62" y="-190.25" font-family="Helvetica,sans-Serif" font-size="10.00">_ostream.h</text>
</a>
</g>
</g>
<!-- Node8&#45;&gt;Node9 -->
<g id="edge8_Node000008_Node000009" class="edge">
<title>Node8&#45;&gt;Node9</title>
<g id="a_edge8_Node000008_Node000009"><a xlink:title=" ">
<path fill="none" stroke="#63b8ff" d="M89.8,-252.25C86.11,-244.69 81.59,-235.46 77.42,-226.91"/>
<polygon fill="#63b8ff" stroke="#63b8ff" points="80.59,-225.44 73.05,-217.99 74.3,-228.51 80.59,-225.44"/>
</a>
</g>
</g>
<!-- Node8&#45;&gt;Node10 -->
<g id="edge9_Node000008_Node000010" class="edge">
<title>Node8&#45;&gt;Node10</title>
<g id="a_edge9_Node000008_Node000010"><a xlink:title=" ">
<path fill="none" stroke="#63b8ff" d="M113.18,-252.2C121.78,-242.54 132.03,-229.6 138.62,-216.5 171.69,-150.83 125.86,-104.67 181.62,-56.75 207.06,-34.89 417.44,-20.48 524.11,-14.5"/>
<polygon fill="#63b8ff" stroke="#63b8ff" points="524.04,-18.01 533.83,-13.97 523.65,-11.02 524.04,-18.01"/>
</a>
</g>
</g>
<!-- Node11&#45;&gt;Node10 -->
<g id="edge19_Node000011_Node000010" class="edge">
<title>Node11&#45;&gt;Node10</title>
<g id="a_edge19_Node000011_Node000010"><a xlink:title=" ">
<path fill="none" stroke="#63b8ff" d="M300.81,-188.88C306,-173.96 317.45,-145.39 334.62,-126.25 385.48,-69.56 469.91,-38.99 526.64,-23.95"/>
<polygon fill="#63b8ff" stroke="#63b8ff" points="527.31,-27.39 536.13,-21.52 525.58,-20.61 527.31,-27.39"/>
</a>
</g>
</g>
<!-- Node12 -->
<g id="Node000012" class="node">
<title>Node12</title>
<g id="a_Node000012"><a xlink:title=" ">
<polygon fill="#e0e0e0" stroke="#999999" points="481.38,-147 343.88,-147 343.88,-126.25 481.38,-126.25 481.38,-147"/>
<text text-anchor="middle" x="412.62" y="-133.5" font-family="Helvetica,sans-Serif" font-size="10.00">deal.II/base/exceptions.h</text>
</a>
</g>
</g>
<!-- Node11&#45;&gt;Node12 -->
<g id="edge11_Node000011_Node000012" class="edge">
<title>Node11&#45;&gt;Node12</title>
<g id="a_edge11_Node000011_Node000012"><a xlink:title=" ">
<path fill="none" stroke="#63b8ff" d="M316.1,-188.93C334.46,-179.17 362.87,-164.07 384.12,-152.78"/>
<polygon fill="#63b8ff" stroke="#63b8ff" points="385.67,-155.92 392.86,-148.13 382.38,-149.73 385.67,-155.92"/>
</a>
</g>
</g>
<!-- Node11&#45;&gt;Node13 -->
<g id="edge12_Node000011_Node000013" class="edge">
<title>Node11&#45;&gt;Node13</title>
<g id="a_edge12_Node000011_Node000013"><a xlink:title=" ">
<path fill="none" stroke="#63b8ff" d="M339.88,-188.93C385.41,-178.35 457.97,-161.48 507.38,-150"/>
<polygon fill="#63b8ff" stroke="#63b8ff" points="508.05,-153.44 517,-147.76 506.47,-146.62 508.05,-153.44"/>
</a>
</g>
</g>
<!-- Node18 -->
<g id="Node000018" class="node">
<title>Node18</title>
<g id="a_Node000018"><a xlink:title=" ">
<polygon fill="#e0e0e0" stroke="#999999" points="287.62,-147 223.62,-147 223.62,-126.25 287.62,-126.25 287.62,-147"/>
<text text-anchor="middle" x="255.62" y="-133.5" font-family="Helvetica,sans-Serif" font-size="10.00">exception</text>
</a>
</g>
</g>
<!-- Node11&#45;&gt;Node18 -->
<g id="edge20_Node000011_Node000018" class="edge">
<title>Node11&#45;&gt;Node18</title>
<g id="a_edge20_Node000011_Node000018"><a xlink:title=" ">
<path fill="none" stroke="#63b8ff" d="M290.88,-188.93C284.9,-180.23 276.01,-167.3 268.66,-156.59"/>
<polygon fill="#63b8ff" stroke="#63b8ff" points="271.62,-154.73 263.07,-148.47 265.85,-158.69 271.62,-154.73"/>
</a>
</g>
</g>
<!-- Node13&#45;&gt;Node10 -->
<g id="edge18_Node000013_Node000010" class="edge">
<title>Node13&#45;&gt;Node10</title>
<g id="a_edge18_Node000013_Node000010"><a xlink:title=" ">
<path fill="none" stroke="#63b8ff" d="M562.59,-125.88C566.64,-105.73 576.01,-59.15 581.47,-32.01"/>
<polygon fill="#63b8ff" stroke="#63b8ff" points="584.83,-33.06 583.37,-22.56 577.97,-31.68 584.83,-33.06"/>
</a>
</g>
</g>
<!-- Node14 -->
<g id="Node000014" class="node">
<title>Node14</title>
<g id="a_Node000014"><a xlink:title=" ">
<polygon fill="#e0e0e0" stroke="#999999" points="557.75,-90.25 449.5,-90.25 449.5,-56.75 557.75,-56.75 557.75,-90.25"/>
<text text-anchor="start" x="457.5" y="-76.75" font-family="Helvetica,sans-Serif" font-size="10.00">deal.II/matrix_free</text>
<text text-anchor="middle" x="503.62" y="-64" font-family="Helvetica,sans-Serif" font-size="10.00">/evaluation_flags.h</text>
</a>
</g>
</g>
<!-- Node13&#45;&gt;Node14 -->
<g id="edge13_Node000013_Node000014" class="edge">
<title>Node13&#45;&gt;Node14</title>
<g id="a_edge13_Node000013_Node000014"><a xlink:title=" ">
<path fill="none" stroke="#63b8ff" d="M551.47,-125.8C544.72,-118.57 535.24,-108.4 526.49,-99.02"/>
<polygon fill="#63b8ff" stroke="#63b8ff" points="529.18,-96.77 519.8,-91.84 524.06,-101.54 529.18,-96.77"/>
</a>
</g>
</g>
<!-- Node13&#45;&gt;Node15 -->
<g id="edge14_Node000013_Node000015" class="edge">
<title>Node13&#45;&gt;Node15</title>
<g id="a_edge14_Node000013_Node000015"><a xlink:title=" ">
<path fill="none" stroke="#63b8ff" d="M600.31,-125.8C638.65,-116.32 697.41,-101.78 742.59,-90.59"/>
<polygon fill="#63b8ff" stroke="#63b8ff" points="743.43,-93.99 752.29,-88.19 741.74,-87.2 743.43,-93.99"/>
</a>
</g>
</g>
<!-- Node15&#45;&gt;Node10 -->
<g id="edge15_Node000015_Node000010" class="edge">
<title>Node15&#45;&gt;Node10</title>
<g id="a_edge15_Node000015_Node000010"><a xlink:title=" ">
<path fill="none" stroke="#63b8ff" d="M753.6,-57.63C716.54,-47.42 667.86,-34.02 632.45,-24.27"/>
<polygon fill="#63b8ff" stroke="#63b8ff" points="633.48,-20.92 622.91,-21.64 631.62,-27.67 633.48,-20.92"/>
</a>
</g>
</g>
<!-- Node16 -->
<g id="Node000016" class="node">
<title>Node16</title>
<g id="a_Node000016"><a xlink:title=" ">
<polygon fill="#e0e0e0" stroke="#999999" points="832.12,-20.75 783.12,-20.75 783.12,0 832.12,0 832.12,-20.75"/>
<text text-anchor="middle" x="807.62" y="-7.25" font-family="Helvetica,sans-Serif" font-size="10.00">cstdint</text>
</a>
</g>
</g>
<!-- Node15&#45;&gt;Node16 -->
<g id="edge16_Node000015_Node000016" class="edge">
<title>Node15&#45;&gt;Node16</title>
<g id="a_edge16_Node000015_Node000016"><a xlink:title=" ">
<path fill="none" stroke="#63b8ff" d="M807.62,-56.44C807.62,-49.1 807.62,-40.32 807.62,-32.46"/>
<polygon fill="#63b8ff" stroke="#63b8ff" points="811.13,-32.73 807.63,-22.73 804.13,-32.73 811.13,-32.73"/>
</a>
</g>
</g>
<!-- Node15&#45;&gt;Node17 -->
<g id="edge17_Node000015_Node000017" class="edge">
<title>Node15&#45;&gt;Node17</title>
<g id="a_edge17_Node000015_Node000017"><a xlink:title=" ">
<path fill="none" stroke="#63b8ff" d="M851.41,-56.28C879.19,-45.99 914.54,-32.89 939.88,-23.5"/>
<polygon fill="#63b8ff" stroke="#63b8ff" points="940.84,-26.88 949,-20.13 938.41,-20.32 940.84,-26.88"/>
</a>
</g>
</g>
<!-- Node19&#45;&gt;Node10 -->
<g id="edge25_Node000019_Node000010" class="edge">
<title>Node19&#45;&gt;Node10</title>
<g id="a_edge25_Node000019_Node000010"><a xlink:title=" ">
<path fill="none" stroke="#63b8ff" d="M838.94,-182.7C803.71,-155.62 729.48,-99.61 663.62,-56.75 647.3,-46.13 628.44,-35.12 613.35,-26.61"/>
<polygon fill="#63b8ff" stroke="#63b8ff" points="615.35,-23.71 604.91,-21.89 611.93,-29.82 615.35,-23.71"/>
</a>
</g>
</g>
<!-- Node19&#45;&gt;Node12 -->
<g id="edge22_Node000019_Node000012" class="edge">
<title>Node19&#45;&gt;Node12</title>
<g id="a_edge22_Node000019_Node000012"><a xlink:title=" ">
<path fill="none" stroke="#63b8ff" d="M805.77,-184.8C802.68,-184.16 799.62,-183.55 796.62,-183 665.48,-158.99 628.54,-162.94 492.78,-147.24"/>
<polygon fill="#63b8ff" stroke="#63b8ff" points="493.37,-143.78 483.03,-146.09 492.55,-150.73 493.37,-143.78"/>
</a>
</g>
</g>
<!-- Node19&#45;&gt;Node13 -->
<g id="edge24_Node000019_Node000013" class="edge">
<title>Node19&#45;&gt;Node13</title>
<g id="a_edge24_Node000019_Node000013"><a xlink:title=" ">
<path fill="none" stroke="#63b8ff" d="M806.06,-185.14C802.87,-184.4 799.71,-183.68 796.62,-183 739.86,-170.46 674.98,-158.13 627.63,-149.49"/>
<polygon fill="#63b8ff" stroke="#63b8ff" points="628.55,-146.1 618.08,-147.76 627.3,-152.99 628.55,-146.1"/>
</a>
</g>
</g>
<!-- Node19&#45;&gt;Node15 -->
<g id="edge23_Node000019_Node000015" class="edge">
<title>Node19&#45;&gt;Node15</title>
<g id="a_edge23_Node000019_Node000015"><a xlink:title=" ">
<path fill="none" stroke="#63b8ff" d="M852.83,-182.51C844.18,-161.86 829.15,-125.93 818.81,-101.22"/>
<polygon fill="#63b8ff" stroke="#63b8ff" points="822.1,-100.02 815.01,-92.14 815.64,-102.72 822.1,-100.02"/>
</a>
</g>
</g>
<!-- Node19&#45;&gt;Node17 -->
<g id="edge27_Node000019_Node000017" class="edge">
<title>Node19&#45;&gt;Node17</title>
<g id="a_edge27_Node000019_Node000017"><a xlink:title=" ">
<path fill="none" stroke="#63b8ff" d="M869.26,-182.77C889.95,-148.46 938.58,-67.82 960.97,-30.7"/>
<polygon fill="#63b8ff" stroke="#63b8ff" points="963.83,-32.73 966,-22.36 957.84,-29.12 963.83,-32.73"/>
</a>
</g>
</g>
<!-- Node19&#45;&gt;Node20 -->
<g id="edge26_Node000019_Node000020" class="edge">
<title>Node19&#45;&gt;Node20</title>
<g id="a_edge26_Node000019_Node000020"><a xlink:title=" ">
<path fill="none" stroke="#63b8ff" d="M898.37,-182.53C922.65,-172.36 953.47,-159.46 975.84,-150.1"/>
<polygon fill="#63b8ff" stroke="#63b8ff" points="977.11,-153.36 984.98,-146.27 974.41,-146.9 977.11,-153.36"/>
</a>
</g>
</g>
<!-- Node21 -->
<g id="Node000021" class="node">
<title>Node21</title>
<g id="a_Node000021"><a xlink:title=" ">
<polygon fill="#e0e0e0" stroke="#999999" points="964,-147 917.25,-147 917.25,-126.25 964,-126.25 964,-147"/>
<text text-anchor="middle" x="940.62" y="-133.5" font-family="Helvetica,sans-Serif" font-size="10.00">vector</text>
</a>
</g>
</g>
<!-- Node19&#45;&gt;Node21 -->
<g id="edge28_Node000019_Node000021" class="edge">
<title>Node19&#45;&gt;Node21</title>
<g id="a_edge28_Node000019_Node000021"><a xlink:title=" ">
<path fill="none" stroke="#63b8ff" d="M880.91,-182.69C892.48,-173.96 906.78,-163.17 918.48,-154.34"/>
<polygon fill="#63b8ff" stroke="#63b8ff" points="920.5,-157.2 926.37,-148.38 916.28,-151.61 920.5,-157.2"/>
</a>
</g>
</g>
<!-- Node22&#45;&gt;Node2 -->
<g id="edge32_Node000022_Node000002" class="edge">
<title>Node22&#45;&gt;Node2</title>
<g id="a_edge32_Node000022_Node000002"><a xlink:title=" ">
<path fill="none" stroke="#63b8ff" d="M746.38,-255.55C695.11,-244.57 620.71,-228.63 565.36,-216.76"/>
<polygon fill="#63b8ff" stroke="#63b8ff" points="566.2,-213.36 555.69,-214.69 564.73,-220.21 566.2,-213.36"/>
</a>
</g>
</g>
<!-- Node22&#45;&gt;Node10 -->
<g id="edge35_Node000022_Node000010" class="edge">
<title>Node22&#45;&gt;Node10</title>
<g id="a_edge35_Node000022_Node000010"><a xlink:title=" ">
<path fill="none" stroke="#63b8ff" d="M746.43,-256.97C704.52,-247.71 653.41,-233.4 639.62,-216.5 614.15,-185.26 640.06,-165.44 630.62,-126.25 622.34,-91.85 606.01,-54.01 595.46,-31.49"/>
<polygon fill="#63b8ff" stroke="#63b8ff" points="598.68,-30.1 591.21,-22.58 592.36,-33.11 598.68,-30.1"/>
</a>
</g>
</g>
<!-- Node22&#45;&gt;Node13 -->
<g id="edge34_Node000022_Node000013" class="edge">
<title>Node22&#45;&gt;Node13</title>
<g id="a_edge34_Node000022_Node000013"><a xlink:title=" ">
<path fill="none" stroke="#63b8ff" d="M746.49,-265.06C703.6,-260.06 646.23,-247.54 605.62,-216.5 586.3,-201.72 573.92,-176.11 567.14,-158.08"/>
<polygon fill="#63b8ff" stroke="#63b8ff" points="570.47,-157.02 563.89,-148.72 563.86,-159.31 570.47,-157.02"/>
</a>
</g>
</g>
<!-- Node22&#45;&gt;Node17 -->
<g id="edge38_Node000022_Node000017" class="edge">
<title>Node22&#45;&gt;Node17</title>
<g id="a_edge38_Node000022_Node000017"><a xlink:title=" ">
<path fill="none" stroke="#63b8ff" d="M864.94,-263.32C926.38,-256.84 1016.36,-243.03 1037.62,-216.5 1083.72,-158.99 1020.17,-68.3 988.59,-29.72"/>
<polygon fill="#63b8ff" stroke="#63b8ff" points="991.42,-27.65 982.31,-22.25 986.06,-32.16 991.42,-27.65"/>
</a>
</g>
</g>
<!-- Node22&#45;&gt;Node19 -->
<g id="edge33_Node000022_Node000019" class="edge">
<title>Node22&#45;&gt;Node19</title>
<g id="a_edge33_Node000022_Node000019"><a xlink:title=" ">
<path fill="none" stroke="#63b8ff" d="M818.42,-252.25C824.81,-244.27 832.68,-234.43 839.83,-225.5"/>
<polygon fill="#63b8ff" stroke="#63b8ff" points="842.46,-227.81 845.97,-217.81 836.99,-223.44 842.46,-227.81"/>
</a>
</g>
</g>
<!-- Node22&#45;&gt;Node21 -->
<g id="edge40_Node000022_Node000021" class="edge">
<title>Node22&#45;&gt;Node21</title>
<g id="a_edge40_Node000022_Node000021"><a xlink:title=" ">
<path fill="none" stroke="#63b8ff" d="M864.84,-253.6C885.49,-245.75 907.1,-233.96 921.62,-216.5 935.11,-200.28 939.32,-176.05 940.49,-158.73"/>
<polygon fill="#63b8ff" stroke="#63b8ff" points="943.99,-158.94 940.85,-148.83 936.99,-158.69 943.99,-158.94"/>
</a>
</g>
</g>
<!-- Node23 -->
<g id="Node000023" class="node">
<title>Node23</title>
<g id="a_Node000023"><a xlink:title=" ">
<polygon fill="#e0e0e0" stroke="#999999" points="1028.38,-210.12 968.88,-210.12 968.88,-189.38 1028.38,-189.38 1028.38,-210.12"/>
<text text-anchor="middle" x="998.62" y="-196.62" font-family="Helvetica,sans-Serif" font-size="10.00">concepts</text>
</a>
</g>
</g>
<!-- Node22&#45;&gt;Node23 -->
<g id="edge36_Node000022_Node000023" class="edge">
<title>Node22&#45;&gt;Node23</title>
<g id="a_edge36_Node000022_Node000023"><a xlink:title=" ">
<path fill="none" stroke="#63b8ff" d="M852.64,-252.05C881.99,-241.9 920.54,-228.52 954.62,-216.5 956.55,-215.82 958.52,-215.12 960.51,-214.42"/>
<polygon fill="#63b8ff" stroke="#63b8ff" points="961.51,-217.78 969.75,-211.13 959.16,-211.18 961.51,-217.78"/>
</a>
</g>
</g>
<!-- Node24 -->
<g id="Node000024" class="node">
<title>Node24</title>
<g id="a_Node000024"><a xlink:title=" ">
<polygon fill="#e0e0e0" stroke="#999999" points="697.12,-210.12 648.12,-210.12 648.12,-189.38 697.12,-189.38 697.12,-210.12"/>
<text text-anchor="middle" x="672.62" y="-196.62" font-family="Helvetica,sans-Serif" font-size="10.00">ranges</text>
</a>
</g>
</g>
<!-- Node22&#45;&gt;Node24 -->
<g id="edge37_Node000022_Node000024" class="edge">
<title>Node22&#45;&gt;Node24</title>
<g id="a_edge37_Node000022_Node000024"><a xlink:title=" ">
<path fill="none" stroke="#63b8ff" d="M773.77,-252.08C751.94,-241 723.21,-226.42 701.95,-215.63"/>
<polygon fill="#63b8ff" stroke="#63b8ff" points="703.73,-212.61 693.23,-211.21 700.56,-218.85 703.73,-212.61"/>
</a>
</g>
</g>
<!-- Node25 -->
<g id="Node000025" class="node">
<title>Node25</title>
<g id="a_Node000025"><a xlink:title=" ">
<polygon fill="#e0e0e0" stroke="#999999" points="787.75,-210.12 715.5,-210.12 715.5,-189.38 787.75,-189.38 787.75,-210.12"/>
<text text-anchor="middle" x="751.62" y="-196.62" font-family="Helvetica,sans-Serif" font-size="10.00">string_view</text>
</a>
</g>
</g>
<!-- Node22&#45;&gt;Node25 -->
<g id="edge39_Node000022_Node000025" class="edge">
<title>Node22&#45;&gt;Node25</title>
<g id="a_edge39_Node000022_Node000025"><a xlink:title=" ">
<path fill="none" stroke="#63b8ff" d="M792.83,-252.25C784.98,-242.44 774.9,-229.84 766.67,-219.55"/>
<polygon fill="#63b8ff" stroke="#63b8ff" points="769.41,-217.38 760.43,-211.75 763.94,-221.75 769.41,-217.38"/>
</a>
</g>
</g>
</g>
</svg>
