<?xml version="1.0" encoding="UTF-8" standalone="no"?>
<!DOCTYPE svg PUBLIC "-//W3C//DTD SVG 1.1//EN"
 "http://www.w3.org/Graphics/SVG/1.1/DTD/svg11.dtd">
<!-- Generated by graphviz version 12.2.1 (20241206.2353)
 -->
<!-- Title: /__w/phaseField/phaseField/include/prismspf/core/dependencies.h Pages: 1 -->
<svg width="1961pt" height="446pt"
 viewBox="0.00 0.00 1960.50 445.75" xmlns="http://www.w3.org/2000/svg" xmlns:xlink="http://www.w3.org/1999/xlink">
<g id="graph0" class="graph" transform="scale(1 1) rotate(0) translate(4 441.75)">
<title>/__w/phaseField/phaseField/include/prismspf/core/dependencies.h</title>
<!-- Node1 -->
<g id="Node000001" class="node">
<title>Node1</title>
<g id="a_Node000001"><a xlink:title=" ">
<polygon fill="#999999" stroke="#666666" points="944.75,-437.75 741.25,-437.75 741.25,-404.25 944.75,-404.25 944.75,-437.75"/>
<text text-anchor="start" x="749.25" y="-424.25" font-family="Helvetica,sans-Serif" font-size="10.00">/__w/phaseField/phaseField</text>
<text text-anchor="middle" x="843" y="-411.5" font-family="Helvetica,sans-Serif" font-size="10.00">/include/prismspf/core/dependencies.h</text>
</a>
</g>
</g>
<!-- Node2 -->
<g id="Node000002" class="node">
<title>Node2</title>
<g id="a_Node000002"><a xlink:title=" ">
<polygon fill="#e0e0e0" stroke="#999999" points="399.75,-153.38 262.25,-153.38 262.25,-132.62 399.75,-132.62 399.75,-153.38"/>
<text text-anchor="middle" x="331" y="-139.88" font-family="Helvetica,sans-Serif" font-size="10.00">deal.II/base/exceptions.h</text>
</a>
</g>
</g>
<!-- Node1&#45;&gt;Node2 -->
<g id="edge1_Node000001_Node000002" class="edge">
<title>Node1&#45;&gt;Node2</title>
<g id="a_edge1_Node000001_Node000002"><a xlink:title=" ">
<path fill="none" stroke="#63b8ff" d="M740.88,-416.62C595.44,-410.83 342.71,-396.77 312,-368.25 255.28,-315.57 261.7,-268.55 288,-195.75 292.69,-182.76 302.22,-170.73 311.12,-161.55"/>
<polygon fill="#63b8ff" stroke="#63b8ff" points="313.42,-164.19 318.19,-154.73 308.56,-159.15 313.42,-164.19"/>
</a>
</g>
</g>
<!-- Node3 -->
<g id="Node000003" class="node">
<title>Node3</title>
<g id="a_Node000003"><a xlink:title=" ">
<polygon fill="#e0e0e0" stroke="#999999" points="459.5,-222.88 338.5,-222.88 338.5,-202.12 459.5,-202.12 459.5,-222.88"/>
<text text-anchor="middle" x="399" y="-209.38" font-family="Helvetica,sans-Serif" font-size="10.00">deal.II/base/utilities.h</text>
</a>
</g>
</g>
<!-- Node1&#45;&gt;Node3 -->
<g id="edge2_Node000001_Node000003" class="edge">
<title>Node1&#45;&gt;Node3</title>
<g id="a_edge2_Node000001_Node000003"><a xlink:title=" ">
<path fill="none" stroke="#63b8ff" d="M740.97,-416.82C600.22,-411.37 360.72,-397.83 334,-368.25 303.31,-334.28 314.12,-306.49 334,-265.25 341.34,-250.03 355.57,-237.9 368.85,-229.23"/>
<polygon fill="#63b8ff" stroke="#63b8ff" points="370.65,-232.22 377.4,-224.05 367.03,-226.24 370.65,-232.22"/>
</a>
</g>
</g>
<!-- Node4 -->
<g id="Node000004" class="node">
<title>Node4</title>
<g id="a_Node000004"><a xlink:title=" ">
<polygon fill="#e0e0e0" stroke="#999999" points="615.12,-90.25 506.88,-90.25 506.88,-56.75 615.12,-56.75 615.12,-90.25"/>
<text text-anchor="start" x="514.88" y="-76.75" font-family="Helvetica,sans-Serif" font-size="10.00">deal.II/matrix_free</text>
<text text-anchor="middle" x="561" y="-64" font-family="Helvetica,sans-Serif" font-size="10.00">/evaluation_flags.h</text>
</a>
</g>
</g>
<!-- Node1&#45;&gt;Node4 -->
<g id="edge3_Node000001_Node000004" class="edge">
<title>Node1&#45;&gt;Node4</title>
<g id="a_edge3_Node000001_Node000004"><a xlink:title=" ">
<path fill="none" stroke="#63b8ff" d="M740.86,-417.4C584.96,-406.99 300.65,-360.3 253,-159.75 249.56,-145.26 243.38,-137.62 253,-126.25 283.44,-90.27 414.54,-79.29 495.57,-75.95"/>
<polygon fill="#63b8ff" stroke="#63b8ff" points="495.29,-79.47 505.15,-75.59 495.02,-72.47 495.29,-79.47"/>
</a>
</g>
</g>
<!-- Node5 -->
<g id="Node000005" class="node">
<title>Node5</title>
<g id="a_Node000005"><a xlink:href="conditional__ostreams_8h.html" target="_top" xlink:title=" ">
<polygon fill="white" stroke="#666666" points="167.88,-229.25 28.12,-229.25 28.12,-195.75 167.88,-195.75 167.88,-229.25"/>
<text text-anchor="start" x="36.12" y="-215.75" font-family="Helvetica,sans-Serif" font-size="10.00">prismspf/core/conditional</text>
<text text-anchor="middle" x="98" y="-203" font-family="Helvetica,sans-Serif" font-size="10.00">_ostreams.h</text>
</a>
</g>
</g>
<!-- Node1&#45;&gt;Node5 -->
<g id="edge4_Node000001_Node000005" class="edge">
<title>Node1&#45;&gt;Node5</title>
<g id="a_edge4_Node000001_Node000005"><a xlink:title=" ">
<path fill="none" stroke="#63b8ff" d="M740.77,-416.38C609.05,-410.64 387.97,-396.98 312,-368.25 233.79,-338.67 158.4,-272.69 121.51,-237.19"/>
<polygon fill="#63b8ff" stroke="#63b8ff" points="124.08,-234.81 114.48,-230.34 119.2,-239.82 124.08,-234.81"/>
</a>
</g>
</g>
<!-- Node7 -->
<g id="Node000007" class="node">
<title>Node7</title>
<g id="a_Node000007"><a xlink:title=" ">
<polygon fill="#e0e0e0" stroke="#999999" points="611,-20.75 511,-20.75 511,0 611,0 611,-20.75"/>
<text text-anchor="middle" x="561" y="-7.25" font-family="Helvetica,sans-Serif" font-size="10.00">prismspf/config.h</text>
</a>
</g>
</g>
<!-- Node1&#45;&gt;Node7 -->
<g id="edge52_Node000001_Node000007" class="edge">
<title>Node1&#45;&gt;Node7</title>
<g id="a_edge52_Node000001_Node000007"><a xlink:title=" ">
<path fill="none" stroke="#63b8ff" d="M740.89,-413.93C516.46,-399.21 0,-357.28 0,-283 0,-283 0,-283 0,-142 0,-76.94 58.16,-79.79 119,-56.75 187.06,-30.98 394.89,-18.55 499.49,-13.79"/>
<polygon fill="#63b8ff" stroke="#63b8ff" points="499.46,-17.3 509.3,-13.36 499.15,-10.3 499.46,-17.3"/>
</a>
</g>
</g>
<!-- Node8 -->
<g id="Node000008" class="node">
<title>Node8</title>
<g id="a_Node000008"><a xlink:href="field__attributes_8h.html" target="_top" xlink:title=" ">
<polygon fill="white" stroke="#666666" points="1391.38,-368.25 1284.62,-368.25 1284.62,-334.75 1391.38,-334.75 1391.38,-368.25"/>
<text text-anchor="start" x="1292.62" y="-354.75" font-family="Helvetica,sans-Serif" font-size="10.00">prismspf/core/field</text>
<text text-anchor="middle" x="1338" y="-342" font-family="Helvetica,sans-Serif" font-size="10.00">_attributes.h</text>
</a>
</g>
</g>
<!-- Node1&#45;&gt;Node8 -->
<g id="edge7_Node000001_Node000008" class="edge">
<title>Node1&#45;&gt;Node8</title>
<g id="a_edge7_Node000001_Node000008"><a xlink:title=" ">
<path fill="none" stroke="#63b8ff" d="M944.96,-406.1C1043.35,-392.68 1189.34,-372.77 1272.92,-361.37"/>
<polygon fill="#63b8ff" stroke="#63b8ff" points="1273.35,-364.85 1282.79,-360.03 1272.41,-357.91 1273.35,-364.85"/>
</a>
</g>
</g>
<!-- Node9 -->
<g id="Node000009" class="node">
<title>Node9</title>
<g id="a_Node000009"><a xlink:href="type__enums_8h.html" target="_top" xlink:title=" ">
<polygon fill="white" stroke="#666666" points="1524.75,-90.25 1417.25,-90.25 1417.25,-56.75 1524.75,-56.75 1524.75,-90.25"/>
<text text-anchor="start" x="1425.25" y="-76.75" font-family="Helvetica,sans-Serif" font-size="10.00">prismspf/core/type</text>
<text text-anchor="middle" x="1471" y="-64" font-family="Helvetica,sans-Serif" font-size="10.00">_enums.h</text>
</a>
</g>
</g>
<!-- Node1&#45;&gt;Node9 -->
<g id="edge50_Node000001_Node000009" class="edge">
<title>Node1&#45;&gt;Node9</title>
<g id="a_edge50_Node000001_Node000009"><a xlink:title=" ">
<path fill="none" stroke="#63b8ff" d="M945.01,-415.3C1057.18,-409.02 1242.44,-395.38 1400,-368.25 1523.81,-346.93 1596.85,-397.91 1674,-298.75 1721.08,-238.24 1721.04,-186.79 1674,-126.25 1657.11,-104.51 1589.2,-90.39 1536.52,-82.47"/>
<polygon fill="#63b8ff" stroke="#63b8ff" points="1537.1,-79.02 1526.7,-81.05 1536.09,-85.95 1537.1,-79.02"/>
</a>
</g>
</g>
<!-- Node11 -->
<g id="Node000011" class="node">
<title>Node11</title>
<g id="a_Node000011"><a xlink:title=" ">
<polygon fill="#e0e0e0" stroke="#999999" points="1714.88,-20.75 1671.12,-20.75 1671.12,0 1714.88,0 1714.88,-20.75"/>
<text text-anchor="middle" x="1693" y="-7.25" font-family="Helvetica,sans-Serif" font-size="10.00">string</text>
</a>
</g>
</g>
<!-- Node1&#45;&gt;Node11 -->
<g id="edge55_Node000001_Node000011" class="edge">
<title>Node1&#45;&gt;Node11</title>
<g id="a_edge55_Node000001_Node000011"><a xlink:title=" ">
<path fill="none" stroke="#63b8ff" d="M944.86,-416.47C1197.75,-406.36 1834,-372.07 1834,-283 1834,-283 1834,-283 1834,-142 1834,-83.34 1767.51,-43.65 1725.85,-24.53"/>
<polygon fill="#63b8ff" stroke="#63b8ff" points="1727.29,-21.34 1716.73,-20.51 1724.47,-27.75 1727.29,-21.34"/>
</a>
</g>
</g>
<!-- Node12 -->
<g id="Node000012" class="node">
<title>Node12</title>
<g id="a_Node000012"><a xlink:href="types_8h.html" target="_top" xlink:title=" ">
<polygon fill="white" stroke="#666666" points="865.88,-153.38 744.12,-153.38 744.12,-132.62 865.88,-132.62 865.88,-153.38"/>
<text text-anchor="middle" x="805" y="-139.88" font-family="Helvetica,sans-Serif" font-size="10.00">prismspf/core/types.h</text>
</a>
</g>
</g>
<!-- Node1&#45;&gt;Node12 -->
<g id="edge51_Node000001_Node000012" class="edge">
<title>Node1&#45;&gt;Node12</title>
<g id="a_edge51_Node000001_Node000012"><a xlink:title=" ">
<path fill="none" stroke="#63b8ff" d="M826.7,-404.03C796.77,-373.45 734.05,-303.06 711,-229.25 706.56,-215.04 703.42,-208.57 711,-195.75 721.46,-178.05 740.37,-166 758.49,-158.01"/>
<polygon fill="#63b8ff" stroke="#63b8ff" points="759.64,-161.32 767.61,-154.33 757.02,-154.83 759.64,-161.32"/>
</a>
</g>
</g>
<!-- Node27 -->
<g id="Node000027" class="node">
<title>Node27</title>
<g id="a_Node000027"><a xlink:title=" ">
<polygon fill="#e0e0e0" stroke="#999999" points="1665.38,-153.38 1618.62,-153.38 1618.62,-132.62 1665.38,-132.62 1665.38,-153.38"/>
<text text-anchor="middle" x="1642" y="-139.88" font-family="Helvetica,sans-Serif" font-size="10.00">vector</text>
</a>
</g>
</g>
<!-- Node1&#45;&gt;Node27 -->
<g id="edge56_Node000001_Node000027" class="edge">
<title>Node1&#45;&gt;Node27</title>
<g id="a_edge56_Node000001_Node000027"><a xlink:title=" ">
<path fill="none" stroke="#63b8ff" d="M945.05,-419.16C1138.58,-415.31 1548.17,-395.6 1644,-298.75 1676.74,-265.66 1671.92,-241.44 1663,-195.75 1660.86,-184.79 1656.4,-173.22 1652.13,-163.8"/>
<polygon fill="#63b8ff" stroke="#63b8ff" points="1655.35,-162.42 1647.86,-154.94 1649.05,-165.46 1655.35,-162.42"/>
</a>
</g>
</g>
<!-- Node29 -->
<g id="Node000029" class="node">
<title>Node29</title>
<g id="a_Node000029"><a xlink:title=" ">
<polygon fill="#e0e0e0" stroke="#999999" points="1903.75,-361.88 1862.25,-361.88 1862.25,-341.12 1903.75,-341.12 1903.75,-361.88"/>
<text text-anchor="middle" x="1883" y="-348.38" font-family="Helvetica,sans-Serif" font-size="10.00">array</text>
</a>
</g>
</g>
<!-- Node1&#45;&gt;Node29 -->
<g id="edge53_Node000001_Node000029" class="edge">
<title>Node1&#45;&gt;Node29</title>
<g id="a_edge53_Node000001_Node000029"><a xlink:title=" ">
<path fill="none" stroke="#63b8ff" d="M945.15,-419.52C1165.47,-417.71 1679.03,-409.09 1848,-368.25 1850,-367.77 1852.03,-367.17 1854.05,-366.49"/>
<polygon fill="#63b8ff" stroke="#63b8ff" points="1855.15,-369.82 1863.16,-362.89 1852.57,-363.32 1855.15,-369.82"/>
</a>
</g>
</g>
<!-- Node30 -->
<g id="Node000030" class="node">
<title>Node30</title>
<g id="a_Node000030"><a xlink:title=" ">
<polygon fill="#e0e0e0" stroke="#999999" points="1952.5,-361.88 1921.5,-361.88 1921.5,-341.12 1952.5,-341.12 1952.5,-361.88"/>
<text text-anchor="middle" x="1937" y="-348.38" font-family="Helvetica,sans-Serif" font-size="10.00">set</text>
</a>
</g>
</g>
<!-- Node1&#45;&gt;Node30 -->
<g id="edge54_Node000001_Node000030" class="edge">
<title>Node1&#45;&gt;Node30</title>
<g id="a_edge54_Node000001_Node000030"><a xlink:title=" ">
<path fill="none" stroke="#63b8ff" d="M944.97,-418.12C1194.59,-413.09 1822.64,-397.65 1913,-368.25 1913.65,-368.04 1914.3,-367.8 1914.95,-367.55"/>
<polygon fill="#63b8ff" stroke="#63b8ff" points="1916.45,-370.72 1923.61,-362.91 1913.14,-364.55 1916.45,-370.72"/>
</a>
</g>
</g>
<!-- Node6 -->
<g id="Node000006" class="node">
<title>Node6</title>
<g id="a_Node000006"><a xlink:title=" ">
<polygon fill="#e0e0e0" stroke="#999999" points="205.62,-159.75 76.38,-159.75 76.38,-126.25 205.62,-126.25 205.62,-159.75"/>
<text text-anchor="start" x="84.38" y="-146.25" font-family="Helvetica,sans-Serif" font-size="10.00">deal.II/base/conditional</text>
<text text-anchor="middle" x="141" y="-133.5" font-family="Helvetica,sans-Serif" font-size="10.00">_ostream.h</text>
</a>
</g>
</g>
<!-- Node5&#45;&gt;Node6 -->
<g id="edge5_Node000005_Node000006" class="edge">
<title>Node5&#45;&gt;Node6</title>
<g id="a_edge5_Node000005_Node000006"><a xlink:title=" ">
<path fill="none" stroke="#63b8ff" d="M108.19,-195.5C113.17,-187.69 119.28,-178.09 124.88,-169.31"/>
<polygon fill="#63b8ff" stroke="#63b8ff" points="127.65,-171.47 130.07,-161.16 121.74,-167.71 127.65,-171.47"/>
</a>
</g>
</g>
<!-- Node5&#45;&gt;Node7 -->
<g id="edge6_Node000005_Node000007" class="edge">
<title>Node5&#45;&gt;Node7</title>
<g id="a_edge6_Node000005_Node000007"><a xlink:title=" ">
<path fill="none" stroke="#63b8ff" d="M83.7,-195.55C69.04,-177.21 50.55,-146.97 67,-126.25 120.45,-58.95 379.61,-27.49 499.69,-16.35"/>
<polygon fill="#63b8ff" stroke="#63b8ff" points="499.72,-19.86 509.36,-15.47 499.08,-12.89 499.72,-19.86"/>
</a>
</g>
</g>
<!-- Node8&#45;&gt;Node2 -->
<g id="edge8_Node000008_Node000002" class="edge">
<title>Node8&#45;&gt;Node2</title>
<g id="a_edge8_Node000008_Node000002"><a xlink:title=" ">
<path fill="none" stroke="#63b8ff" d="M1284.27,-350.92C1111.95,-351.74 574.77,-350.01 410,-298.75 353.34,-281.12 325.05,-280.99 296,-229.25 283.59,-207.15 299.94,-179.77 314.2,-162.09"/>
<polygon fill="#63b8ff" stroke="#63b8ff" points="316.47,-164.83 320.33,-154.96 311.16,-160.27 316.47,-164.83"/>
</a>
</g>
</g>
<!-- Node8&#45;&gt;Node7 -->
<g id="edge46_Node000008_Node000007" class="edge">
<title>Node8&#45;&gt;Node7</title>
<g id="a_edge46_Node000008_Node000007"><a xlink:title=" ">
<path fill="none" stroke="#63b8ff" d="M1284.19,-348.13C1084.36,-338.79 393.03,-301.43 329,-229.25 277.37,-171.05 394.05,-172.3 409,-159.75 451.39,-124.16 438.11,-94.06 479,-56.75 492.87,-44.1 510.89,-33.63 526.51,-25.95"/>
<polygon fill="#63b8ff" stroke="#63b8ff" points="527.92,-29.16 535.48,-21.73 524.94,-22.82 527.92,-29.16"/>
</a>
</g>
</g>
<!-- Node8&#45;&gt;Node9 -->
<g id="edge9_Node000008_Node000009" class="edge">
<title>Node8&#45;&gt;Node9</title>
<g id="a_edge9_Node000008_Node000009"><a xlink:title=" ">
<path fill="none" stroke="#63b8ff" d="M1391.83,-342.02C1451.97,-329.29 1546.23,-298.84 1587,-229.25 1616.43,-179.02 1552.78,-125.84 1508.64,-96.75"/>
<polygon fill="#63b8ff" stroke="#63b8ff" points="1510.59,-93.84 1500.28,-91.39 1506.81,-99.74 1510.59,-93.84"/>
</a>
</g>
</g>
<!-- Node8&#45;&gt;Node11 -->
<g id="edge48_Node000008_Node000011" class="edge">
<title>Node8&#45;&gt;Node11</title>
<g id="a_edge48_Node000008_Node000011"><a xlink:title=" ">
<path fill="none" stroke="#63b8ff" d="M1391.75,-347.8C1469.06,-342.88 1606.5,-329.91 1644,-298.75 1718.65,-236.71 1699.37,-186.84 1709,-90.25 1710.48,-75.43 1711.51,-71.43 1709,-56.75 1707.56,-48.33 1704.72,-39.4 1701.82,-31.7"/>
<polygon fill="#63b8ff" stroke="#63b8ff" points="1705.13,-30.56 1698.13,-22.61 1698.65,-33.19 1705.13,-30.56"/>
</a>
</g>
</g>
<!-- Node8&#45;&gt;Node12 -->
<g id="edge13_Node000008_Node000012" class="edge">
<title>Node8&#45;&gt;Node12</title>
<g id="a_edge13_Node000008_Node000012"><a xlink:title=" ">
<path fill="none" stroke="#63b8ff" d="M1341.76,-334.55C1348.17,-302.95 1357.09,-232.3 1319,-195.75 1283.29,-161.48 923.93,-167.2 875,-159.75 868.53,-158.76 861.77,-157.52 855.11,-156.17"/>
<polygon fill="#63b8ff" stroke="#63b8ff" points="856.05,-152.79 845.54,-154.12 854.59,-159.63 856.05,-152.79"/>
</a>
</g>
</g>
<!-- Node13 -->
<g id="Node000013" class="node">
<title>Node13</title>
<g id="a_Node000013"><a xlink:href="constraint__parameters_8h.html" target="_top" xlink:title=" ">
<polygon fill="white" stroke="#666666" points="1203.12,-298.75 1064.88,-298.75 1064.88,-265.25 1203.12,-265.25 1203.12,-298.75"/>
<text text-anchor="start" x="1072.88" y="-285.25" font-family="Helvetica,sans-Serif" font-size="10.00">prismspf/user_inputs</text>
<text text-anchor="middle" x="1134" y="-272.5" font-family="Helvetica,sans-Serif" font-size="10.00">/constraint_parameters.h</text>
</a>
</g>
</g>
<!-- Node8&#45;&gt;Node13 -->
<g id="edge17_Node000008_Node000013" class="edge">
<title>Node8&#45;&gt;Node13</title>
<g id="a_edge17_Node000008_Node000013"><a xlink:title=" ">
<path fill="none" stroke="#63b8ff" d="M1289.14,-334.33C1260.48,-324.85 1224.05,-312.8 1193.7,-302.75"/>
<polygon fill="#63b8ff" stroke="#63b8ff" points="1194.85,-299.45 1184.25,-299.63 1192.65,-306.09 1194.85,-299.45"/>
</a>
</g>
</g>
<!-- Node8&#45;&gt;Node27 -->
<g id="edge49_Node000008_Node000027" class="edge">
<title>Node8&#45;&gt;Node27</title>
<g id="a_edge49_Node000008_Node000027"><a xlink:title=" ">
<path fill="none" stroke="#63b8ff" d="M1391.73,-347.93C1464.61,-343.27 1589.27,-330.74 1620,-298.75 1654.84,-262.48 1650.77,-197.62 1645.86,-164.58"/>
<polygon fill="#63b8ff" stroke="#63b8ff" points="1649.38,-164.37 1644.27,-155.09 1642.47,-165.53 1649.38,-164.37"/>
</a>
</g>
</g>
<!-- Node28 -->
<g id="Node000028" class="node">
<title>Node28</title>
<g id="a_Node000028"><a xlink:title=" ">
<polygon fill="#e0e0e0" stroke="#999999" points="1577.88,-222.88 1540.12,-222.88 1540.12,-202.12 1577.88,-202.12 1577.88,-222.88"/>
<text text-anchor="middle" x="1559" y="-209.38" font-family="Helvetica,sans-Serif" font-size="10.00">map</text>
</a>
</g>
</g>
<!-- Node8&#45;&gt;Node28 -->
<g id="edge47_Node000008_Node000028" class="edge">
<title>Node8&#45;&gt;Node28</title>
<g id="a_edge47_Node000008_Node000028"><a xlink:title=" ">
<path fill="none" stroke="#63b8ff" d="M1363.78,-334.52C1406.49,-308.04 1491.39,-255.41 1533.75,-229.16"/>
<polygon fill="#63b8ff" stroke="#63b8ff" points="1535.37,-232.27 1542.02,-224.03 1531.68,-226.32 1535.37,-232.27"/>
</a>
</g>
</g>
<!-- Node9&#45;&gt;Node7 -->
<g id="edge10_Node000009_Node000007" class="edge">
<title>Node9&#45;&gt;Node7</title>
<g id="a_edge10_Node000009_Node000007"><a xlink:title=" ">
<path fill="none" stroke="#63b8ff" d="M1416.8,-68.86C1257.45,-58.16 791.1,-26.83 622.62,-15.51"/>
<polygon fill="#63b8ff" stroke="#63b8ff" points="622.97,-12.03 612.76,-14.85 622.5,-19.01 622.97,-12.03"/>
</a>
</g>
</g>
<!-- Node10 -->
<g id="Node000010" class="node">
<title>Node10</title>
<g id="a_Node000010"><a xlink:title=" ">
<polygon fill="#e0e0e0" stroke="#999999" points="1495.5,-20.75 1446.5,-20.75 1446.5,0 1495.5,0 1495.5,-20.75"/>
<text text-anchor="middle" x="1471" y="-7.25" font-family="Helvetica,sans-Serif" font-size="10.00">cstdint</text>
</a>
</g>
</g>
<!-- Node9&#45;&gt;Node10 -->
<g id="edge11_Node000009_Node000010" class="edge">
<title>Node9&#45;&gt;Node10</title>
<g id="a_edge11_Node000009_Node000010"><a xlink:title=" ">
<path fill="none" stroke="#63b8ff" d="M1471,-56.44C1471,-49.1 1471,-40.32 1471,-32.46"/>
<polygon fill="#63b8ff" stroke="#63b8ff" points="1474.5,-32.73 1471,-22.73 1467.5,-32.73 1474.5,-32.73"/>
</a>
</g>
</g>
<!-- Node9&#45;&gt;Node11 -->
<g id="edge12_Node000009_Node000011" class="edge">
<title>Node9&#45;&gt;Node11</title>
<g id="a_edge12_Node000009_Node000011"><a xlink:title=" ">
<path fill="none" stroke="#63b8ff" d="M1525.02,-57.63C1567.18,-46.02 1624.38,-30.27 1659.97,-20.47"/>
<polygon fill="#63b8ff" stroke="#63b8ff" points="1660.55,-23.94 1669.26,-17.91 1658.69,-17.19 1660.55,-23.94"/>
</a>
</g>
</g>
<!-- Node12&#45;&gt;Node4 -->
<g id="edge14_Node000012_Node000004" class="edge">
<title>Node12&#45;&gt;Node4</title>
<g id="a_edge14_Node000012_Node000004"><a xlink:title=" ">
<path fill="none" stroke="#63b8ff" d="M769.52,-132.18C732.16,-121.85 672.48,-105.34 626.53,-92.63"/>
<polygon fill="#63b8ff" stroke="#63b8ff" points="627.49,-89.26 616.92,-89.97 625.63,-96.01 627.49,-89.26"/>
</a>
</g>
</g>
<!-- Node12&#45;&gt;Node7 -->
<g id="edge16_Node000012_Node000007" class="edge">
<title>Node12&#45;&gt;Node7</title>
<g id="a_edge16_Node000012_Node000007"><a xlink:title=" ">
<path fill="none" stroke="#63b8ff" d="M789.25,-132.36C762.45,-116.1 706.13,-82.46 657,-56.75 636.11,-45.82 612.13,-34.48 593.36,-25.88"/>
<polygon fill="#63b8ff" stroke="#63b8ff" points="594.91,-22.74 584.36,-21.78 592.01,-29.11 594.91,-22.74"/>
</a>
</g>
</g>
<!-- Node12&#45;&gt;Node9 -->
<g id="edge15_Node000012_Node000009" class="edge">
<title>Node12&#45;&gt;Node9</title>
<g id="a_edge15_Node000012_Node000009"><a xlink:title=" ">
<path fill="none" stroke="#63b8ff" d="M844.43,-132.15C854.36,-129.94 865.03,-127.8 875,-126.25 1066.56,-96.52 1295.6,-82.63 1405.65,-77.29"/>
<polygon fill="#63b8ff" stroke="#63b8ff" points="1405.54,-80.8 1415.37,-76.83 1405.21,-73.81 1405.54,-80.8"/>
</a>
</g>
</g>
<!-- Node13&#45;&gt;Node3 -->
<g id="edge22_Node000013_Node000003" class="edge">
<title>Node13&#45;&gt;Node3</title>
<g id="a_edge22_Node000013_Node000003"><a xlink:title=" ">
<path fill="none" stroke="#63b8ff" d="M1064.79,-278.51C944.25,-273.51 688.17,-260 474,-229.25 467,-228.24 459.67,-226.98 452.46,-225.6"/>
<polygon fill="#63b8ff" stroke="#63b8ff" points="453.25,-222.19 442.76,-223.67 451.88,-229.05 453.25,-222.19"/>
</a>
</g>
</g>
<!-- Node13&#45;&gt;Node5 -->
<g id="edge24_Node000013_Node000005" class="edge">
<title>Node13&#45;&gt;Node5</title>
<g id="a_edge24_Node000013_Node000005"><a xlink:title=" ">
<path fill="none" stroke="#63b8ff" d="M1064.54,-276.63C925.1,-267.82 601.14,-247.27 329,-229.25 279.37,-225.96 223.76,-222.17 179.53,-219.14"/>
<polygon fill="#63b8ff" stroke="#63b8ff" points="179.98,-215.66 169.76,-218.46 179.5,-222.64 179.98,-215.66"/>
</a>
</g>
</g>
<!-- Node13&#45;&gt;Node7 -->
<g id="edge43_Node000013_Node000007" class="edge">
<title>Node13&#45;&gt;Node7</title>
<g id="a_edge43_Node000013_Node000007"><a xlink:title=" ">
<path fill="none" stroke="#63b8ff" d="M1064.65,-280.28C909.6,-277.96 545.44,-268.38 507,-229.25 453.2,-174.49 463.01,-125.08 498,-56.75 504.53,-44 516.49,-34.02 528.25,-26.7"/>
<polygon fill="#63b8ff" stroke="#63b8ff" points="529.68,-29.92 536.64,-21.93 526.22,-23.83 529.68,-29.92"/>
</a>
</g>
</g>
<!-- Node13&#45;&gt;Node9 -->
<g id="edge30_Node000013_Node000009" class="edge">
<title>Node13&#45;&gt;Node9</title>
<g id="a_edge30_Node000013_Node000009"><a xlink:title=" ">
<path fill="none" stroke="#63b8ff" d="M1203.6,-281.08C1296.97,-279.57 1455.45,-270.75 1493,-229.25 1524.87,-194.02 1502.87,-134.61 1485.77,-100.56"/>
<polygon fill="#63b8ff" stroke="#63b8ff" points="1488.91,-99.03 1481.16,-91.8 1482.72,-102.28 1488.91,-99.03"/>
</a>
</g>
</g>
<!-- Node13&#45;&gt;Node11 -->
<g id="edge45_Node000013_Node000011" class="edge">
<title>Node13&#45;&gt;Node11</title>
<g id="a_edge45_Node000013_Node000011"><a xlink:title=" ">
<path fill="none" stroke="#63b8ff" d="M1203.6,-277.75C1312.92,-271.86 1519.39,-257.35 1587,-229.25 1632.7,-210.26 1649.75,-202.89 1674,-159.75 1696.82,-119.14 1696.99,-62.59 1695.05,-32.38"/>
<polygon fill="#63b8ff" stroke="#63b8ff" points="1698.56,-32.36 1694.27,-22.68 1691.58,-32.93 1698.56,-32.36"/>
</a>
</g>
</g>
<!-- Node13&#45;&gt;Node12 -->
<g id="edge31_Node000013_Node000012" class="edge">
<title>Node13&#45;&gt;Node12</title>
<g id="a_edge31_Node000013_Node000012"><a xlink:title=" ">
<path fill="none" stroke="#63b8ff" d="M1135.38,-264.89C1136.07,-245.53 1133.97,-213.43 1115,-195.75 1075.55,-158.98 928.01,-169.68 875,-159.75 869.33,-158.69 863.42,-157.5 857.54,-156.25"/>
<polygon fill="#63b8ff" stroke="#63b8ff" points="858.35,-152.85 847.83,-154.15 856.86,-159.69 858.35,-152.85"/>
</a>
</g>
</g>
<!-- Node14 -->
<g id="Node000014" class="node">
<title>Node14</title>
<g id="a_Node000014"><a xlink:title=" ">
<polygon fill="#e0e0e0" stroke="#999999" points="1010.12,-159.75 883.88,-159.75 883.88,-126.25 1010.12,-126.25 1010.12,-159.75"/>
<text text-anchor="start" x="891.88" y="-146.25" font-family="Helvetica,sans-Serif" font-size="10.00">deal.II/base/parameter</text>
<text text-anchor="middle" x="947" y="-133.5" font-family="Helvetica,sans-Serif" font-size="10.00">_handler.h</text>
</a>
</g>
</g>
<!-- Node13&#45;&gt;Node14 -->
<g id="edge18_Node000013_Node000014" class="edge">
<title>Node13&#45;&gt;Node14</title>
<g id="a_edge18_Node000013_Node000014"><a xlink:title=" ">
<path fill="none" stroke="#63b8ff" d="M1143.3,-264.76C1152.58,-246.16 1163.44,-215.67 1148,-195.75 1143.9,-190.46 1076.84,-173.88 1021.29,-160.89"/>
<polygon fill="#63b8ff" stroke="#63b8ff" points="1022.36,-157.55 1011.83,-158.69 1020.78,-164.36 1022.36,-157.55"/>
</a>
</g>
</g>
<!-- Node15 -->
<g id="Node000015" class="node">
<title>Node15</title>
<g id="a_Node000015"><a xlink:title=" ">
<polygon fill="#e0e0e0" stroke="#999999" points="1309.5,-222.88 1200.5,-222.88 1200.5,-202.12 1309.5,-202.12 1309.5,-222.88"/>
<text text-anchor="middle" x="1255" y="-209.38" font-family="Helvetica,sans-Serif" font-size="10.00">deal.II/base/point.h</text>
</a>
</g>
</g>
<!-- Node13&#45;&gt;Node15 -->
<g id="edge19_Node000013_Node000015" class="edge">
<title>Node13&#45;&gt;Node15</title>
<g id="a_edge19_Node000013_Node000015"><a xlink:title=" ">
<path fill="none" stroke="#63b8ff" d="M1162.98,-264.83C1182.57,-253.91 1208.27,-239.57 1227.53,-228.83"/>
<polygon fill="#63b8ff" stroke="#63b8ff" points="1229.13,-231.94 1236.16,-224.01 1225.72,-225.82 1229.13,-231.94"/>
</a>
</g>
</g>
<!-- Node16 -->
<g id="Node000016" class="node">
<title>Node16</title>
<g id="a_Node000016"><a xlink:title=" ">
<polygon fill="#e0e0e0" stroke="#999999" points="834.12,-222.88 719.88,-222.88 719.88,-202.12 834.12,-202.12 834.12,-222.88"/>
<text text-anchor="middle" x="777" y="-209.38" font-family="Helvetica,sans-Serif" font-size="10.00">deal.II/base/tensor.h</text>
</a>
</g>
</g>
<!-- Node13&#45;&gt;Node16 -->
<g id="edge20_Node000013_Node000016" class="edge">
<title>Node13&#45;&gt;Node16</title>
<g id="a_edge20_Node000013_Node000016"><a xlink:title=" ">
<path fill="none" stroke="#63b8ff" d="M1064.4,-269.79C1005.31,-260 918.36,-244.93 843,-229.25 838.07,-228.22 832.94,-227.1 827.82,-225.94"/>
<polygon fill="#63b8ff" stroke="#63b8ff" points="828.71,-222.55 818.18,-223.71 827.13,-229.37 828.71,-222.55"/>
</a>
</g>
</g>
<!-- Node17 -->
<g id="Node000017" class="node">
<title>Node17</title>
<g id="a_Node000017"><a xlink:title=" ">
<polygon fill="#e0e0e0" stroke="#999999" points="963.62,-222.88 852.38,-222.88 852.38,-202.12 963.62,-202.12 963.62,-222.88"/>
<text text-anchor="middle" x="908" y="-209.38" font-family="Helvetica,sans-Serif" font-size="10.00">deal.II/base/types.h</text>
</a>
</g>
</g>
<!-- Node13&#45;&gt;Node17 -->
<g id="edge21_Node000013_Node000017" class="edge">
<title>Node13&#45;&gt;Node17</title>
<g id="a_edge21_Node000013_Node000017"><a xlink:title=" ">
<path fill="none" stroke="#63b8ff" d="M1079.87,-264.83C1040.7,-253.13 988.43,-237.52 951.86,-226.6"/>
<polygon fill="#63b8ff" stroke="#63b8ff" points="953.08,-223.31 942.49,-223.8 951.08,-230.02 953.08,-223.31"/>
</a>
</g>
</g>
<!-- Node18 -->
<g id="Node000018" class="node">
<title>Node18</title>
<g id="a_Node000018"><a xlink:title=" ">
<polygon fill="#e0e0e0" stroke="#999999" points="1106,-229.25 982,-229.25 982,-195.75 1106,-195.75 1106,-229.25"/>
<text text-anchor="start" x="990" y="-215.75" font-family="Helvetica,sans-Serif" font-size="10.00">boost/algorithm/string</text>
<text text-anchor="middle" x="1044" y="-203" font-family="Helvetica,sans-Serif" font-size="10.00">/predicate.hpp</text>
</a>
</g>
</g>
<!-- Node13&#45;&gt;Node18 -->
<g id="edge23_Node000013_Node000018" class="edge">
<title>Node13&#45;&gt;Node18</title>
<g id="a_edge23_Node000013_Node000018"><a xlink:title=" ">
<path fill="none" stroke="#63b8ff" d="M1112.67,-265C1101.32,-256.49 1087.16,-245.87 1074.66,-236.49"/>
<polygon fill="#63b8ff" stroke="#63b8ff" points="1076.8,-233.72 1066.7,-230.52 1072.6,-239.32 1076.8,-233.72"/>
</a>
</g>
</g>
<!-- Node19 -->
<g id="Node000019" class="node">
<title>Node19</title>
<g id="a_Node000019"><a xlink:href="exceptions_8h.html" target="_top" xlink:title=" ">
<polygon fill="white" stroke="#666666" points="664,-222.88 516,-222.88 516,-202.12 664,-202.12 664,-222.88"/>
<text text-anchor="middle" x="590" y="-209.38" font-family="Helvetica,sans-Serif" font-size="10.00">prismspf/core/exceptions.h</text>
</a>
</g>
</g>
<!-- Node13&#45;&gt;Node19 -->
<g id="edge25_Node000013_Node000019" class="edge">
<title>Node13&#45;&gt;Node19</title>
<g id="a_edge25_Node000013_Node000019"><a xlink:title=" ">
<path fill="none" stroke="#63b8ff" d="M1064.74,-272.69C980.95,-262.6 835.6,-244.98 711,-229.25 699.53,-227.8 687.46,-226.26 675.55,-224.72"/>
<polygon fill="#63b8ff" stroke="#63b8ff" points="676.09,-221.26 665.72,-223.45 675.19,-228.2 676.09,-221.26"/>
</a>
</g>
</g>
<!-- Node21 -->
<g id="Node000021" class="node">
<title>Node21</title>
<g id="a_Node000021"><a xlink:href="parameter__base_8h.html" target="_top" xlink:title=" ">
<polygon fill="white" stroke="#666666" points="1484,-229.25 1366,-229.25 1366,-195.75 1484,-195.75 1484,-229.25"/>
<text text-anchor="start" x="1374" y="-215.75" font-family="Helvetica,sans-Serif" font-size="10.00">prismspf/user_inputs</text>
<text text-anchor="middle" x="1425" y="-203" font-family="Helvetica,sans-Serif" font-size="10.00">/parameter_base.h</text>
</a>
</g>
</g>
<!-- Node13&#45;&gt;Node21 -->
<g id="edge32_Node000013_Node000021" class="edge">
<title>Node13&#45;&gt;Node21</title>
<g id="a_edge32_Node000013_Node000021"><a xlink:title=" ">
<path fill="none" stroke="#63b8ff" d="M1203.33,-264.92C1248.99,-254.33 1308.59,-240.5 1354.48,-229.86"/>
<polygon fill="#63b8ff" stroke="#63b8ff" points="1355.12,-233.3 1364.07,-227.63 1353.54,-226.48 1355.12,-233.3"/>
</a>
</g>
</g>
<!-- Node13&#45;&gt;Node28 -->
<g id="edge44_Node000013_Node000028" class="edge">
<title>Node13&#45;&gt;Node28</title>
<g id="a_edge44_Node000013_Node000028"><a xlink:title=" ">
<path fill="none" stroke="#63b8ff" d="M1203.34,-278.4C1282.76,-273.93 1416.09,-261.84 1526,-229.25 1527.6,-228.78 1529.21,-228.23 1530.83,-227.64"/>
<polygon fill="#63b8ff" stroke="#63b8ff" points="1532.02,-230.94 1539.86,-223.81 1529.28,-224.5 1532.02,-230.94"/>
</a>
</g>
</g>
<!-- Node19&#45;&gt;Node2 -->
<g id="edge26_Node000019_Node000002" class="edge">
<title>Node19&#45;&gt;Node2</title>
<g id="a_edge26_Node000019_Node000002"><a xlink:title=" ">
<path fill="none" stroke="#63b8ff" d="M552.34,-201.68C506.69,-189.79 429.66,-169.71 379.58,-156.66"/>
<polygon fill="#63b8ff" stroke="#63b8ff" points="380.73,-153.34 370.17,-154.21 378.96,-160.12 380.73,-153.34"/>
</a>
</g>
</g>
<!-- Node19&#45;&gt;Node7 -->
<g id="edge28_Node000019_Node000007" class="edge">
<title>Node19&#45;&gt;Node7</title>
<g id="a_edge28_Node000019_Node000007"><a xlink:title=" ">
<path fill="none" stroke="#63b8ff" d="M596.34,-201.87C612.07,-176.66 649.83,-107.19 624,-56.75 617.47,-44 605.51,-34.02 593.75,-26.7"/>
<polygon fill="#63b8ff" stroke="#63b8ff" points="595.78,-23.83 585.36,-21.93 592.32,-29.92 595.78,-23.83"/>
</a>
</g>
</g>
<!-- Node19&#45;&gt;Node12 -->
<g id="edge27_Node000019_Node000012" class="edge">
<title>Node19&#45;&gt;Node12</title>
<g id="a_edge27_Node000019_Node000012"><a xlink:title=" ">
<path fill="none" stroke="#63b8ff" d="M621.26,-201.68C658.6,-189.96 721.22,-170.3 762.82,-157.24"/>
<polygon fill="#63b8ff" stroke="#63b8ff" points="763.76,-160.62 772.26,-154.28 761.67,-153.94 763.76,-160.62"/>
</a>
</g>
</g>
<!-- Node20 -->
<g id="Node000020" class="node">
<title>Node20</title>
<g id="a_Node000020"><a xlink:title=" ">
<polygon fill="#e0e0e0" stroke="#999999" points="726,-153.38 662,-153.38 662,-132.62 726,-132.62 726,-153.38"/>
<text text-anchor="middle" x="694" y="-139.88" font-family="Helvetica,sans-Serif" font-size="10.00">exception</text>
</a>
</g>
</g>
<!-- Node19&#45;&gt;Node20 -->
<g id="edge29_Node000019_Node000020" class="edge">
<title>Node19&#45;&gt;Node20</title>
<g id="a_edge29_Node000019_Node000020"><a xlink:title=" ">
<path fill="none" stroke="#63b8ff" d="M604.9,-201.83C621.72,-190.91 649.34,-172.99 669.37,-159.98"/>
<polygon fill="#63b8ff" stroke="#63b8ff" points="671.04,-163.08 677.52,-154.7 667.23,-157.21 671.04,-163.08"/>
</a>
</g>
</g>
<!-- Node21&#45;&gt;Node7 -->
<g id="edge36_Node000021_Node000007" class="edge">
<title>Node21&#45;&gt;Node7</title>
<g id="a_edge36_Node000021_Node000007"><a xlink:title=" ">
<path fill="none" stroke="#63b8ff" d="M1365.51,-199.61C1357.95,-198.23 1350.3,-196.91 1343,-195.75 1216.91,-175.7 1174.7,-211.54 1058,-159.75 1037.11,-150.48 1039.29,-136.76 1019,-126.25 887.58,-58.21 713.75,-29.01 622.68,-17.7"/>
<polygon fill="#63b8ff" stroke="#63b8ff" points="623.31,-14.25 612.96,-16.53 622.47,-21.2 623.31,-14.25"/>
</a>
</g>
</g>
<!-- Node21&#45;&gt;Node11 -->
<g id="edge40_Node000021_Node000011" class="edge">
<title>Node21&#45;&gt;Node11</title>
<g id="a_edge40_Node000021_Node000011"><a xlink:title=" ">
<path fill="none" stroke="#63b8ff" d="M1447.45,-195.27C1461.45,-185.12 1479.82,-171.74 1496,-159.75 1560.11,-112.25 1635.27,-55.28 1671.42,-27.8"/>
<polygon fill="#63b8ff" stroke="#63b8ff" points="1673.1,-30.92 1678.94,-22.08 1668.86,-25.35 1673.1,-30.92"/>
</a>
</g>
</g>
<!-- Node21&#45;&gt;Node12 -->
<g id="edge35_Node000021_Node000012" class="edge">
<title>Node21&#45;&gt;Node12</title>
<g id="a_edge35_Node000021_Node000012"><a xlink:title=" ">
<path fill="none" stroke="#63b8ff" d="M1365.76,-198.01C1361.12,-197.17 1356.49,-196.4 1352,-195.75 1141.59,-165.26 1085.27,-191.17 875,-159.75 868.53,-158.78 861.76,-157.55 855.1,-156.2"/>
<polygon fill="#63b8ff" stroke="#63b8ff" points="856.04,-152.82 845.53,-154.16 854.59,-159.67 856.04,-152.82"/>
</a>
</g>
</g>
<!-- Node21&#45;&gt;Node14 -->
<g id="edge33_Node000021_Node000014" class="edge">
<title>Node21&#45;&gt;Node14</title>
<g id="a_edge33_Node000021_Node000014"><a xlink:title=" ">
<path fill="none" stroke="#63b8ff" d="M1365.73,-198.18C1361.1,-197.3 1356.48,-196.48 1352,-195.75 1207.24,-172.25 1168.88,-182.47 1024,-159.75 1023.17,-159.62 1022.33,-159.49 1021.48,-159.35"/>
<polygon fill="#63b8ff" stroke="#63b8ff" points="1022.3,-155.94 1011.86,-157.7 1021.12,-162.84 1022.3,-155.94"/>
</a>
</g>
</g>
<!-- Node22 -->
<g id="Node000022" class="node">
<title>Node22</title>
<g id="a_Node000022"><a xlink:title=" ">
<polygon fill="#e0e0e0" stroke="#999999" points="1487.38,-153.38 1362.62,-153.38 1362.62,-132.62 1487.38,-132.62 1487.38,-153.38"/>
<text text-anchor="middle" x="1425" y="-139.88" font-family="Helvetica,sans-Serif" font-size="10.00">deal.II/base/patterns.h</text>
</a>
</g>
</g>
<!-- Node21&#45;&gt;Node22 -->
<g id="edge34_Node000021_Node000022" class="edge">
<title>Node21&#45;&gt;Node22</title>
<g id="a_edge34_Node000021_Node000022"><a xlink:title=" ">
<path fill="none" stroke="#63b8ff" d="M1425,-195.5C1425,-186.4 1425,-174.89 1425,-165.07"/>
<polygon fill="#63b8ff" stroke="#63b8ff" points="1428.5,-165.34 1425,-155.34 1421.5,-165.34 1428.5,-165.34"/>
</a>
</g>
</g>
<!-- Node23 -->
<g id="Node000023" class="node">
<title>Node23</title>
<g id="a_Node000023"><a xlink:title=" ">
<polygon fill="#e0e0e0" stroke="#999999" points="1109.5,-153.38 1066.5,-153.38 1066.5,-132.62 1109.5,-132.62 1109.5,-153.38"/>
<text text-anchor="middle" x="1088" y="-139.88" font-family="Helvetica,sans-Serif" font-size="10.00">cfloat</text>
</a>
</g>
</g>
<!-- Node21&#45;&gt;Node23 -->
<g id="edge37_Node000021_Node000023" class="edge">
<title>Node21&#45;&gt;Node23</title>
<g id="a_edge37_Node000021_Node000023"><a xlink:title=" ">
<path fill="none" stroke="#63b8ff" d="M1365.7,-198.39C1361.07,-197.47 1356.46,-196.57 1352,-195.75 1248.53,-176.65 1217.95,-192.65 1118,-159.75 1116.85,-159.37 1115.7,-158.96 1114.55,-158.51"/>
<polygon fill="#63b8ff" stroke="#63b8ff" points="1116.31,-155.47 1105.76,-154.48 1113.39,-161.83 1116.31,-155.47"/>
</a>
</g>
</g>
<!-- Node24 -->
<g id="Node000024" class="node">
<title>Node24</title>
<g id="a_Node000024"><a xlink:title=" ">
<polygon fill="#e0e0e0" stroke="#999999" points="1186.75,-153.38 1127.25,-153.38 1127.25,-132.62 1186.75,-132.62 1186.75,-153.38"/>
<text text-anchor="middle" x="1157" y="-139.88" font-family="Helvetica,sans-Serif" font-size="10.00">concepts</text>
</a>
</g>
</g>
<!-- Node21&#45;&gt;Node24 -->
<g id="edge38_Node000021_Node000024" class="edge">
<title>Node21&#45;&gt;Node24</title>
<g id="a_edge38_Node000021_Node000024"><a xlink:title=" ">
<path fill="none" stroke="#63b8ff" d="M1365.69,-198.62C1303.36,-185 1212.12,-164.79 1196,-159.75 1194.05,-159.14 1192.05,-158.47 1190.05,-157.77"/>
<polygon fill="#63b8ff" stroke="#63b8ff" points="1191.47,-154.57 1180.88,-154.32 1189.01,-161.12 1191.47,-154.57"/>
</a>
</g>
</g>
<!-- Node25 -->
<g id="Node000025" class="node">
<title>Node25</title>
<g id="a_Node000025"><a xlink:title=" ">
<polygon fill="#e0e0e0" stroke="#999999" points="1253.5,-153.38 1204.5,-153.38 1204.5,-132.62 1253.5,-132.62 1253.5,-153.38"/>
<text text-anchor="middle" x="1229" y="-139.88" font-family="Helvetica,sans-Serif" font-size="10.00">ranges</text>
</a>
</g>
</g>
<!-- Node21&#45;&gt;Node25 -->
<g id="edge39_Node000021_Node000025" class="edge">
<title>Node21&#45;&gt;Node25</title>
<g id="a_edge39_Node000021_Node000025"><a xlink:title=" ">
<path fill="none" stroke="#63b8ff" d="M1368.54,-195.35C1337.13,-185.9 1297.53,-173.2 1263,-159.75 1261.85,-159.3 1260.68,-158.83 1259.5,-158.35"/>
<polygon fill="#63b8ff" stroke="#63b8ff" points="1260.91,-155.14 1250.34,-154.35 1258.11,-161.56 1260.91,-155.14"/>
</a>
</g>
</g>
<!-- Node26 -->
<g id="Node000026" class="node">
<title>Node26</title>
<g id="a_Node000026"><a xlink:title=" ">
<polygon fill="#e0e0e0" stroke="#999999" points="1344.12,-153.38 1271.88,-153.38 1271.88,-132.62 1344.12,-132.62 1344.12,-153.38"/>
<text text-anchor="middle" x="1308" y="-139.88" font-family="Helvetica,sans-Serif" font-size="10.00">string_view</text>
</a>
</g>
</g>
<!-- Node21&#45;&gt;Node26 -->
<g id="edge41_Node000021_Node000026" class="edge">
<title>Node21&#45;&gt;Node26</title>
<g id="a_edge41_Node000021_Node000026"><a xlink:title=" ">
<path fill="none" stroke="#63b8ff" d="M1396.98,-195.33C1378.13,-184.46 1353.42,-170.2 1334.82,-159.48"/>
<polygon fill="#63b8ff" stroke="#63b8ff" points="1336.66,-156.49 1326.25,-154.53 1333.16,-162.56 1336.66,-156.49"/>
</a>
</g>
</g>
<!-- Node21&#45;&gt;Node27 -->
<g id="edge42_Node000021_Node000027" class="edge">
<title>Node21&#45;&gt;Node27</title>
<g id="a_edge42_Node000021_Node000027"><a xlink:title=" ">
<path fill="none" stroke="#63b8ff" d="M1476.98,-195.33C1517.48,-182.73 1572.57,-165.6 1607.71,-154.67"/>
<polygon fill="#63b8ff" stroke="#63b8ff" points="1608.42,-158.11 1616.93,-151.8 1606.34,-151.43 1608.42,-158.11"/>
</a>
</g>
</g>
</g>
</svg>
