<?xml version="1.0" encoding="UTF-8" standalone="no"?>
<!DOCTYPE svg PUBLIC "-//W3C//DTD SVG 1.1//EN"
 "http://www.w3.org/Graphics/SVG/1.1/DTD/svg11.dtd">
<!-- Generated by graphviz version 12.2.1 (20241206.2353)
 -->
<!-- Title: include/prismspf/core/dependency_extents.h Pages: 1 -->
<svg width="2073pt" height="515pt"
 viewBox="0.00 0.00 2073.00 515.25" xmlns="http://www.w3.org/2000/svg" xmlns:xlink="http://www.w3.org/1999/xlink">
<g id="graph0" class="graph" transform="scale(1 1) rotate(0) translate(4 511.25)">
<title>include/prismspf/core/dependency_extents.h</title>
<!-- Node1 -->
<g id="Node000001" class="node">
<title>Node1</title>
<g id="a_Node000001"><a xlink:title=" ">
<polygon fill="#999999" stroke="#666666" points="1009.62,-507.25 880.38,-507.25 880.38,-473.75 1009.62,-473.75 1009.62,-507.25"/>
<text text-anchor="start" x="888.38" y="-493.75" font-family="Helvetica,sans-Serif" font-size="10.00">include/prismspf/core</text>
<text text-anchor="middle" x="945" y="-481" font-family="Helvetica,sans-Serif" font-size="10.00">/dependency_extents.h</text>
</a>
</g>
</g>
<!-- Node2 -->
<g id="Node000002" class="node">
<title>Node2</title>
<g id="a_Node000002"><a xlink:href="dependencies_8h.html" target="_top" xlink:title=" ">
<polygon fill="white" stroke="#666666" points="1469.12,-292.38 1306.88,-292.38 1306.88,-271.62 1469.12,-271.62 1469.12,-292.38"/>
<text text-anchor="middle" x="1388" y="-278.88" font-family="Helvetica,sans-Serif" font-size="10.00">prismspf/core/dependencies.h</text>
</a>
</g>
</g>
<!-- Node1&#45;&gt;Node2 -->
<g id="edge1_Node000001_Node000002" class="edge">
<title>Node1&#45;&gt;Node2</title>
<g id="a_edge1_Node000001_Node000002"><a xlink:title=" ">
<path fill="none" stroke="#63b8ff" d="M979.76,-473.3C1063.72,-434.16 1276.56,-334.95 1356.77,-297.56"/>
<polygon fill="#63b8ff" stroke="#63b8ff" points="1358.22,-300.74 1365.81,-293.34 1355.27,-294.4 1358.22,-300.74"/>
</a>
</g>
</g>
<!-- Node8 -->
<g id="Node000008" class="node">
<title>Node8</title>
<g id="a_Node000008"><a xlink:title=" ">
<polygon fill="#e0e0e0" stroke="#999999" points="599,-20.75 499,-20.75 499,0 599,0 599,-20.75"/>
<text text-anchor="middle" x="549" y="-7.25" font-family="Helvetica,sans-Serif" font-size="10.00">prismspf/config.h</text>
</a>
</g>
</g>
<!-- Node1&#45;&gt;Node8 -->
<g id="edge64_Node000001_Node000008" class="edge">
<title>Node1&#45;&gt;Node8</title>
<g id="a_edge64_Node000001_Node000008"><a xlink:title=" ">
<path fill="none" stroke="#63b8ff" d="M880.15,-488.67C717.64,-486.05 296.39,-475.7 162,-437.75 83.7,-415.64 0,-433.86 0,-352.5 0,-352.5 0,-352.5 0,-142 0,-90.64 32.05,-79.68 78,-56.75 148.28,-21.67 376.39,-13.68 487.31,-11.88"/>
<polygon fill="#63b8ff" stroke="#63b8ff" points="487.17,-15.39 497.12,-11.74 487.07,-8.39 487.17,-15.39"/>
</a>
</g>
</g>
<!-- Node13 -->
<g id="Node000013" class="node">
<title>Node13</title>
<g id="a_Node000013"><a xlink:href="types_8h.html" target="_top" xlink:title=" ">
<polygon fill="white" stroke="#666666" points="326.88,-153.38 205.12,-153.38 205.12,-132.62 326.88,-132.62 326.88,-153.38"/>
<text text-anchor="middle" x="266" y="-139.88" font-family="Helvetica,sans-Serif" font-size="10.00">prismspf/core/types.h</text>
</a>
</g>
</g>
<!-- Node1&#45;&gt;Node13 -->
<g id="edge63_Node000001_Node000013" class="edge">
<title>Node1&#45;&gt;Node13</title>
<g id="a_edge63_Node000001_Node000013"><a xlink:title=" ">
<path fill="none" stroke="#63b8ff" d="M880.04,-486.11C678.29,-474.71 76,-433.88 76,-352.5 76,-352.5 76,-352.5 76,-281 76,-212.57 158.1,-174.9 214.36,-157.13"/>
<polygon fill="#63b8ff" stroke="#63b8ff" points="215.24,-160.52 223.79,-154.27 213.21,-153.82 215.24,-160.52"/>
</a>
</g>
</g>
<!-- Node15 -->
<g id="Node000015" class="node">
<title>Node15</title>
<g id="a_Node000015"><a xlink:title=" ">
<polygon fill="#e0e0e0" stroke="#999999" points="1797.38,-153.38 1750.62,-153.38 1750.62,-132.62 1797.38,-132.62 1797.38,-153.38"/>
<text text-anchor="middle" x="1774" y="-139.88" font-family="Helvetica,sans-Serif" font-size="10.00">vector</text>
</a>
</g>
</g>
<!-- Node1&#45;&gt;Node15 -->
<g id="edge65_Node000001_Node000015" class="edge">
<title>Node1&#45;&gt;Node15</title>
<g id="a_edge65_Node000001_Node000015"><a xlink:title=" ">
<path fill="none" stroke="#63b8ff" d="M1010.07,-490.3C1167.57,-489.34 1577.03,-469.38 1858,-298.75 1905.52,-269.89 1961.5,-240.86 1929,-195.75 1901.77,-157.95 1845.69,-147.35 1808.98,-144.61"/>
<polygon fill="#63b8ff" stroke="#63b8ff" points="1809.5,-141.13 1799.31,-144.06 1809.1,-148.12 1809.5,-141.13"/>
</a>
</g>
</g>
<!-- Node18 -->
<g id="Node000018" class="node">
<title>Node18</title>
<g id="a_Node000018"><a xlink:href="solve__block_8h.html" target="_top" xlink:title=" ">
<polygon fill="white" stroke="#666666" points="1001,-437.75 889,-437.75 889,-404.25 1001,-404.25 1001,-437.75"/>
<text text-anchor="start" x="897" y="-424.25" font-family="Helvetica,sans-Serif" font-size="10.00">prismspf/core/solve</text>
<text text-anchor="middle" x="945" y="-411.5" font-family="Helvetica,sans-Serif" font-size="10.00">_block.h</text>
</a>
</g>
</g>
<!-- Node1&#45;&gt;Node18 -->
<g id="edge29_Node000001_Node000018" class="edge">
<title>Node1&#45;&gt;Node18</title>
<g id="a_edge29_Node000001_Node000018"><a xlink:title=" ">
<path fill="none" stroke="#63b8ff" d="M945,-473.5C945,-466.27 945,-457.53 945,-449.31"/>
<polygon fill="#63b8ff" stroke="#63b8ff" points="948.5,-449.4 945,-439.4 941.5,-449.4 948.5,-449.4"/>
</a>
</g>
</g>
<!-- Node3 -->
<g id="Node000003" class="node">
<title>Node3</title>
<g id="a_Node000003"><a xlink:title=" ">
<polygon fill="#e0e0e0" stroke="#999999" points="482.75,-153.38 345.25,-153.38 345.25,-132.62 482.75,-132.62 482.75,-153.38"/>
<text text-anchor="middle" x="414" y="-139.88" font-family="Helvetica,sans-Serif" font-size="10.00">deal.II/base/exceptions.h</text>
</a>
</g>
</g>
<!-- Node2&#45;&gt;Node3 -->
<g id="edge2_Node000002_Node000003" class="edge">
<title>Node2&#45;&gt;Node3</title>
<g id="a_edge2_Node000002_Node000003"><a xlink:title=" ">
<path fill="none" stroke="#63b8ff" d="M1306.42,-278.07C1239.22,-273.31 1142.57,-260.98 1064,-229.25 1039.88,-219.51 1040.53,-204.41 1016,-195.75 906.98,-157.27 611.66,-174.55 497,-159.75 488.71,-158.68 479.99,-157.3 471.45,-155.81"/>
<polygon fill="#63b8ff" stroke="#63b8ff" points="472.33,-152.42 461.87,-154.07 471.08,-159.3 472.33,-152.42"/>
</a>
</g>
</g>
<!-- Node4 -->
<g id="Node000004" class="node">
<title>Node4</title>
<g id="a_Node000004"><a xlink:title=" ">
<polygon fill="#e0e0e0" stroke="#999999" points="1661.5,-222.88 1540.5,-222.88 1540.5,-202.12 1661.5,-202.12 1661.5,-222.88"/>
<text text-anchor="middle" x="1601" y="-209.38" font-family="Helvetica,sans-Serif" font-size="10.00">deal.II/base/utilities.h</text>
</a>
</g>
</g>
<!-- Node2&#45;&gt;Node4 -->
<g id="edge3_Node000002_Node000004" class="edge">
<title>Node2&#45;&gt;Node4</title>
<g id="a_edge3_Node000002_Node000004"><a xlink:title=" ">
<path fill="none" stroke="#63b8ff" d="M1418.97,-271.18C1455.96,-259.46 1518,-239.8 1559.22,-226.74"/>
<polygon fill="#63b8ff" stroke="#63b8ff" points="1560.07,-230.14 1568.55,-223.78 1557.96,-223.47 1560.07,-230.14"/>
</a>
</g>
</g>
<!-- Node5 -->
<g id="Node000005" class="node">
<title>Node5</title>
<g id="a_Node000005"><a xlink:title=" ">
<polygon fill="#e0e0e0" stroke="#999999" points="320.12,-90.25 211.88,-90.25 211.88,-56.75 320.12,-56.75 320.12,-90.25"/>
<text text-anchor="start" x="219.88" y="-76.75" font-family="Helvetica,sans-Serif" font-size="10.00">deal.II/matrix_free</text>
<text text-anchor="middle" x="266" y="-64" font-family="Helvetica,sans-Serif" font-size="10.00">/evaluation_flags.h</text>
</a>
</g>
</g>
<!-- Node2&#45;&gt;Node5 -->
<g id="edge4_Node000002_Node000005" class="edge">
<title>Node2&#45;&gt;Node5</title>
<g id="a_edge4_Node000002_Node000005"><a xlink:title=" ">
<path fill="none" stroke="#63b8ff" d="M1306.51,-277.04C1246.4,-271.66 1163.8,-258.99 1097,-229.25 1074.87,-219.4 1076.24,-205.35 1054,-195.75 987.89,-167.23 508.75,-104.98 331.6,-82.66"/>
<polygon fill="#63b8ff" stroke="#63b8ff" points="332.24,-79.22 321.88,-81.44 331.37,-86.16 332.24,-79.22"/>
</a>
</g>
</g>
<!-- Node6 -->
<g id="Node000006" class="node">
<title>Node6</title>
<g id="a_Node000006"><a xlink:href="conditional__ostreams_8h.html" target="_top" xlink:title=" ">
<polygon fill="white" stroke="#666666" points="1245.88,-229.25 1106.12,-229.25 1106.12,-195.75 1245.88,-195.75 1245.88,-229.25"/>
<text text-anchor="start" x="1114.12" y="-215.75" font-family="Helvetica,sans-Serif" font-size="10.00">prismspf/core/conditional</text>
<text text-anchor="middle" x="1176" y="-203" font-family="Helvetica,sans-Serif" font-size="10.00">_ostreams.h</text>
</a>
</g>
</g>
<!-- Node2&#45;&gt;Node6 -->
<g id="edge5_Node000002_Node000006" class="edge">
<title>Node2&#45;&gt;Node6</title>
<g id="a_edge5_Node000002_Node000006"><a xlink:title=" ">
<path fill="none" stroke="#63b8ff" d="M1357.17,-271.18C1326,-261.26 1276.95,-245.64 1237.74,-233.16"/>
<polygon fill="#63b8ff" stroke="#63b8ff" points="1239,-229.89 1228.41,-230.19 1236.88,-236.56 1239,-229.89"/>
</a>
</g>
</g>
<!-- Node2&#45;&gt;Node8 -->
<g id="edge24_Node000002_Node000008" class="edge">
<title>Node2&#45;&gt;Node8</title>
<g id="a_edge24_Node000002_Node000008"><a xlink:title=" ">
<path fill="none" stroke="#63b8ff" d="M1376.11,-271.23C1364.2,-261.2 1345.58,-244.9 1331,-229.25 1291.3,-186.64 1300.15,-155.86 1250,-126.25 1141.72,-62.31 761.09,-27.34 610.75,-15.76"/>
<polygon fill="#63b8ff" stroke="#63b8ff" points="611.22,-12.29 600.99,-15.02 610.69,-19.27 611.22,-12.29"/>
</a>
</g>
</g>
<!-- Node9 -->
<g id="Node000009" class="node">
<title>Node9</title>
<g id="a_Node000009"><a xlink:href="field__attributes_8h.html" target="_top" xlink:title=" ">
<polygon fill="white" stroke="#666666" points="1446.38,-229.25 1339.62,-229.25 1339.62,-195.75 1446.38,-195.75 1446.38,-229.25"/>
<text text-anchor="start" x="1347.62" y="-215.75" font-family="Helvetica,sans-Serif" font-size="10.00">prismspf/core/field</text>
<text text-anchor="middle" x="1393" y="-203" font-family="Helvetica,sans-Serif" font-size="10.00">_attributes.h</text>
</a>
</g>
</g>
<!-- Node2&#45;&gt;Node9 -->
<g id="edge8_Node000002_Node000009" class="edge">
<title>Node2&#45;&gt;Node9</title>
<g id="a_edge8_Node000002_Node000009"><a xlink:title=" ">
<path fill="none" stroke="#63b8ff" d="M1388.72,-271.33C1389.31,-263.35 1390.18,-251.63 1390.98,-240.82"/>
<polygon fill="#63b8ff" stroke="#63b8ff" points="1394.44,-241.41 1391.69,-231.18 1387.46,-240.89 1394.44,-241.41"/>
</a>
</g>
</g>
<!-- Node10 -->
<g id="Node000010" class="node">
<title>Node10</title>
<g id="a_Node000010"><a xlink:href="type__enums_8h.html" target="_top" xlink:title=" ">
<polygon fill="white" stroke="#666666" points="1485.75,-90.25 1378.25,-90.25 1378.25,-56.75 1485.75,-56.75 1485.75,-90.25"/>
<text text-anchor="start" x="1386.25" y="-76.75" font-family="Helvetica,sans-Serif" font-size="10.00">prismspf/core/type</text>
<text text-anchor="middle" x="1432" y="-64" font-family="Helvetica,sans-Serif" font-size="10.00">_enums.h</text>
</a>
</g>
</g>
<!-- Node2&#45;&gt;Node10 -->
<g id="edge22_Node000002_Node000010" class="edge">
<title>Node2&#45;&gt;Node10</title>
<g id="a_edge22_Node000002_Node000010"><a xlink:title=" ">
<path fill="none" stroke="#63b8ff" d="M1446.25,-271.16C1458.39,-269.16 1471.11,-267.1 1483,-265.25 1537.81,-256.71 1693.72,-271.21 1730,-229.25 1739.74,-217.99 1738.58,-207.92 1730,-195.75 1702.54,-156.8 1673.34,-177.22 1629,-159.75 1576.6,-139.1 1517.4,-113.12 1477.7,-95.3"/>
<polygon fill="#63b8ff" stroke="#63b8ff" points="1479.23,-92.15 1468.67,-91.23 1476.36,-98.53 1479.23,-92.15"/>
</a>
</g>
</g>
<!-- Node12 -->
<g id="Node000012" class="node">
<title>Node12</title>
<g id="a_Node000012"><a xlink:title=" ">
<polygon fill="#e0e0e0" stroke="#999999" points="1573.88,-20.75 1530.12,-20.75 1530.12,0 1573.88,0 1573.88,-20.75"/>
<text text-anchor="middle" x="1552" y="-7.25" font-family="Helvetica,sans-Serif" font-size="10.00">string</text>
</a>
</g>
</g>
<!-- Node2&#45;&gt;Node12 -->
<g id="edge27_Node000002_Node000012" class="edge">
<title>Node2&#45;&gt;Node12</title>
<g id="a_edge27_Node000002_Node000012"><a xlink:title=" ">
<path fill="none" stroke="#63b8ff" d="M1469.3,-275.03C1578.13,-266.34 1760.34,-249.06 1784,-229.25 1819.89,-199.2 1831.38,-165.58 1806,-126.25 1756.51,-49.56 1642.1,-23.52 1585.27,-15.12"/>
<polygon fill="#63b8ff" stroke="#63b8ff" points="1585.94,-11.68 1575.56,-13.79 1584.99,-18.62 1585.94,-11.68"/>
</a>
</g>
</g>
<!-- Node2&#45;&gt;Node13 -->
<g id="edge23_Node000002_Node000013" class="edge">
<title>Node2&#45;&gt;Node13</title>
<g id="a_edge23_Node000002_Node000013"><a xlink:title=" ">
<path fill="none" stroke="#63b8ff" d="M1306.62,-275.8C1212.88,-268.75 1065.45,-254.1 1016,-229.25 997.32,-219.87 1002.05,-204.35 983,-195.75 851.77,-136.47 478.62,-179.62 336,-159.75 329.2,-158.8 322.08,-157.53 315.1,-156.12"/>
<polygon fill="#63b8ff" stroke="#63b8ff" points="316.29,-152.8 305.78,-154.14 314.83,-159.65 316.29,-152.8"/>
</a>
</g>
</g>
<!-- Node2&#45;&gt;Node15 -->
<g id="edge28_Node000002_Node000015" class="edge">
<title>Node2&#45;&gt;Node15</title>
<g id="a_edge28_Node000002_Node000015"><a xlink:title=" ">
<path fill="none" stroke="#63b8ff" d="M1445.47,-271.13C1457.84,-269.1 1470.84,-267.04 1483,-265.25 1545.07,-256.12 1718.63,-273.6 1763,-229.25 1779.54,-212.72 1779.95,-184.49 1777.78,-165.07"/>
<polygon fill="#63b8ff" stroke="#63b8ff" points="1781.27,-164.68 1776.35,-155.3 1774.34,-165.7 1781.27,-164.68"/>
</a>
</g>
</g>
<!-- Node16 -->
<g id="Node000016" class="node">
<title>Node16</title>
<g id="a_Node000016"><a xlink:title=" ">
<polygon fill="#e0e0e0" stroke="#999999" points="1720.75,-222.88 1679.25,-222.88 1679.25,-202.12 1720.75,-202.12 1720.75,-222.88"/>
<text text-anchor="middle" x="1700" y="-209.38" font-family="Helvetica,sans-Serif" font-size="10.00">array</text>
</a>
</g>
</g>
<!-- Node2&#45;&gt;Node16 -->
<g id="edge25_Node000002_Node000016" class="edge">
<title>Node2&#45;&gt;Node16</title>
<g id="a_edge25_Node000002_Node000016"><a xlink:title=" ">
<path fill="none" stroke="#63b8ff" d="M1447.57,-271.14C1524.29,-258.28 1650.28,-236.56 1671,-229.25 1671.97,-228.91 1672.94,-228.54 1673.92,-228.14"/>
<polygon fill="#63b8ff" stroke="#63b8ff" points="1675.27,-231.38 1682.79,-223.92 1672.26,-225.06 1675.27,-231.38"/>
</a>
</g>
</g>
<!-- Node17 -->
<g id="Node000017" class="node">
<title>Node17</title>
<g id="a_Node000017"><a xlink:title=" ">
<polygon fill="#e0e0e0" stroke="#999999" points="1884.5,-222.88 1853.5,-222.88 1853.5,-202.12 1884.5,-202.12 1884.5,-222.88"/>
<text text-anchor="middle" x="1869" y="-209.38" font-family="Helvetica,sans-Serif" font-size="10.00">set</text>
</a>
</g>
</g>
<!-- Node2&#45;&gt;Node17 -->
<g id="edge26_Node000002_Node000017" class="edge">
<title>Node2&#45;&gt;Node17</title>
<g id="a_edge26_Node000002_Node000017"><a xlink:title=" ">
<path fill="none" stroke="#63b8ff" d="M1443.67,-271.16C1456.56,-269.05 1470.24,-266.95 1483,-265.25 1640.63,-244.23 1686.71,-275.05 1839,-229.25 1840.36,-228.84 1841.74,-228.37 1843.1,-227.85"/>
<polygon fill="#63b8ff" stroke="#63b8ff" points="1844.28,-231.16 1851.92,-223.81 1841.37,-224.79 1844.28,-231.16"/>
</a>
</g>
</g>
<!-- Node7 -->
<g id="Node000007" class="node">
<title>Node7</title>
<g id="a_Node000007"><a xlink:title=" ">
<polygon fill="#e0e0e0" stroke="#999999" points="1240.62,-159.75 1111.38,-159.75 1111.38,-126.25 1240.62,-126.25 1240.62,-159.75"/>
<text text-anchor="start" x="1119.38" y="-146.25" font-family="Helvetica,sans-Serif" font-size="10.00">deal.II/base/conditional</text>
<text text-anchor="middle" x="1176" y="-133.5" font-family="Helvetica,sans-Serif" font-size="10.00">_ostream.h</text>
</a>
</g>
</g>
<!-- Node6&#45;&gt;Node7 -->
<g id="edge6_Node000006_Node000007" class="edge">
<title>Node6&#45;&gt;Node7</title>
<g id="a_edge6_Node000006_Node000007"><a xlink:title=" ">
<path fill="none" stroke="#63b8ff" d="M1176,-195.5C1176,-188.27 1176,-179.53 1176,-171.31"/>
<polygon fill="#63b8ff" stroke="#63b8ff" points="1179.5,-171.4 1176,-161.4 1172.5,-171.4 1179.5,-171.4"/>
</a>
</g>
</g>
<!-- Node6&#45;&gt;Node8 -->
<g id="edge7_Node000006_Node000008" class="edge">
<title>Node6&#45;&gt;Node8</title>
<g id="a_edge7_Node000006_Node000008"><a xlink:title=" ">
<path fill="none" stroke="#63b8ff" d="M1125.22,-195.29C1004.3,-156.7 701.17,-59.94 590.38,-24.58"/>
<polygon fill="#63b8ff" stroke="#63b8ff" points="591.69,-21.33 581.1,-21.62 589.56,-28 591.69,-21.33"/>
</a>
</g>
</g>
<!-- Node9&#45;&gt;Node3 -->
<g id="edge9_Node000009_Node000003" class="edge">
<title>Node9&#45;&gt;Node3</title>
<g id="a_edge9_Node000009_Node000003"><a xlink:title=" ">
<path fill="none" stroke="#63b8ff" d="M1339.33,-204.72C1313.81,-201.66 1282.86,-198.2 1255,-195.75 976.1,-171.27 644.16,-154.47 494.38,-147.55"/>
<polygon fill="#63b8ff" stroke="#63b8ff" points="494.71,-144.06 484.56,-147.1 494.38,-151.05 494.71,-144.06"/>
</a>
</g>
</g>
<!-- Node9&#45;&gt;Node8 -->
<g id="edge18_Node000009_Node000008" class="edge">
<title>Node9&#45;&gt;Node8</title>
<g id="a_edge18_Node000009_Node000008"><a xlink:title=" ">
<path fill="none" stroke="#63b8ff" d="M1391.43,-195.4C1387.32,-162.88 1373.02,-89.63 1326,-56.75 1267.99,-16.18 784.29,-11.63 610.7,-11.31"/>
<polygon fill="#63b8ff" stroke="#63b8ff" points="610.76,-7.81 600.75,-11.29 610.75,-14.81 610.76,-7.81"/>
</a>
</g>
</g>
<!-- Node9&#45;&gt;Node10 -->
<g id="edge10_Node000009_Node000010" class="edge">
<title>Node9&#45;&gt;Node10</title>
<g id="a_edge10_Node000009_Node000010"><a xlink:title=" ">
<path fill="none" stroke="#63b8ff" d="M1397.55,-195.52C1404.13,-172.42 1416.37,-129.41 1424.35,-101.38"/>
<polygon fill="#63b8ff" stroke="#63b8ff" points="1427.69,-102.41 1427.06,-91.84 1420.96,-100.5 1427.69,-102.41"/>
</a>
</g>
</g>
<!-- Node9&#45;&gt;Node12 -->
<g id="edge20_Node000009_Node000012" class="edge">
<title>Node9&#45;&gt;Node12</title>
<g id="a_edge20_Node000009_Node000012"><a xlink:title=" ">
<path fill="none" stroke="#63b8ff" d="M1407.25,-195.34C1427.33,-172.39 1464.88,-128.85 1495,-90.25 1510.6,-70.25 1527.51,-46.59 1538.82,-30.43"/>
<polygon fill="#63b8ff" stroke="#63b8ff" points="1541.67,-32.46 1544.51,-22.25 1535.93,-28.46 1541.67,-32.46"/>
</a>
</g>
</g>
<!-- Node9&#45;&gt;Node13 -->
<g id="edge14_Node000009_Node000013" class="edge">
<title>Node9&#45;&gt;Node13</title>
<g id="a_edge14_Node000009_Node000013"><a xlink:title=" ">
<path fill="none" stroke="#63b8ff" d="M1339.35,-204.44C1313.84,-201.32 1282.89,-197.88 1255,-195.75 847.43,-164.55 741.3,-212.83 336,-159.75 329.19,-158.86 322.07,-157.62 315.09,-156.23"/>
<polygon fill="#63b8ff" stroke="#63b8ff" points="315.91,-152.82 305.4,-154.17 314.45,-159.67 315.91,-152.82"/>
</a>
</g>
</g>
<!-- Node14 -->
<g id="Node000014" class="node">
<title>Node14</title>
<g id="a_Node000014"><a xlink:title=" ">
<polygon fill="#e0e0e0" stroke="#999999" points="1675.88,-153.38 1638.12,-153.38 1638.12,-132.62 1675.88,-132.62 1675.88,-153.38"/>
<text text-anchor="middle" x="1657" y="-139.88" font-family="Helvetica,sans-Serif" font-size="10.00">map</text>
</a>
</g>
</g>
<!-- Node9&#45;&gt;Node14 -->
<g id="edge19_Node000009_Node000014" class="edge">
<title>Node9&#45;&gt;Node14</title>
<g id="a_edge19_Node000009_Node000014"><a xlink:title=" ">
<path fill="none" stroke="#63b8ff" d="M1446.74,-197.76C1501.02,-183.88 1582.91,-162.94 1626.76,-151.73"/>
<polygon fill="#63b8ff" stroke="#63b8ff" points="1627.52,-155.15 1636.34,-149.28 1625.79,-148.37 1627.52,-155.15"/>
</a>
</g>
</g>
<!-- Node9&#45;&gt;Node15 -->
<g id="edge21_Node000009_Node000015" class="edge">
<title>Node9&#45;&gt;Node15</title>
<g id="a_edge21_Node000009_Node000015"><a xlink:title=" ">
<path fill="none" stroke="#63b8ff" d="M1446.78,-201.97C1526.12,-187.92 1672.32,-162.01 1739.09,-150.18"/>
<polygon fill="#63b8ff" stroke="#63b8ff" points="1739.5,-153.67 1748.74,-148.48 1738.28,-146.77 1739.5,-153.67"/>
</a>
</g>
</g>
<!-- Node10&#45;&gt;Node8 -->
<g id="edge11_Node000010_Node000008" class="edge">
<title>Node10&#45;&gt;Node8</title>
<g id="a_edge11_Node000010_Node000008"><a xlink:title=" ">
<path fill="none" stroke="#63b8ff" d="M1377.97,-59.1C1373.26,-58.2 1368.56,-57.4 1364,-56.75 1084.88,-16.96 747.37,-11.61 610.8,-11.2"/>
<polygon fill="#63b8ff" stroke="#63b8ff" points="610.9,-7.7 600.89,-11.18 610.88,-14.7 610.9,-7.7"/>
</a>
</g>
</g>
<!-- Node11 -->
<g id="Node000011" class="node">
<title>Node11</title>
<g id="a_Node000011"><a xlink:title=" ">
<polygon fill="#e0e0e0" stroke="#999999" points="1456.5,-20.75 1407.5,-20.75 1407.5,0 1456.5,0 1456.5,-20.75"/>
<text text-anchor="middle" x="1432" y="-7.25" font-family="Helvetica,sans-Serif" font-size="10.00">cstdint</text>
</a>
</g>
</g>
<!-- Node10&#45;&gt;Node11 -->
<g id="edge12_Node000010_Node000011" class="edge">
<title>Node10&#45;&gt;Node11</title>
<g id="a_edge12_Node000010_Node000011"><a xlink:title=" ">
<path fill="none" stroke="#63b8ff" d="M1432,-56.44C1432,-49.1 1432,-40.32 1432,-32.46"/>
<polygon fill="#63b8ff" stroke="#63b8ff" points="1435.5,-32.73 1432,-22.73 1428.5,-32.73 1435.5,-32.73"/>
</a>
</g>
</g>
<!-- Node10&#45;&gt;Node12 -->
<g id="edge13_Node000010_Node000012" class="edge">
<title>Node10&#45;&gt;Node12</title>
<g id="a_edge13_Node000010_Node000012"><a xlink:title=" ">
<path fill="none" stroke="#63b8ff" d="M1463.84,-56.28C1482.1,-46.98 1504.85,-35.39 1522.67,-26.31"/>
<polygon fill="#63b8ff" stroke="#63b8ff" points="1524.11,-29.51 1531.43,-21.85 1520.93,-23.27 1524.11,-29.51"/>
</a>
</g>
</g>
<!-- Node13&#45;&gt;Node5 -->
<g id="edge15_Node000013_Node000005" class="edge">
<title>Node13&#45;&gt;Node5</title>
<g id="a_edge15_Node000013_Node000005"><a xlink:title=" ">
<path fill="none" stroke="#63b8ff" d="M266,-132.33C266,-124.44 266,-112.88 266,-102.16"/>
<polygon fill="#63b8ff" stroke="#63b8ff" points="269.5,-102.18 266,-92.18 262.5,-102.18 269.5,-102.18"/>
</a>
</g>
</g>
<!-- Node13&#45;&gt;Node8 -->
<g id="edge17_Node000013_Node000008" class="edge">
<title>Node13&#45;&gt;Node8</title>
<g id="a_edge17_Node000013_Node000008"><a xlink:title=" ">
<path fill="none" stroke="#63b8ff" d="M287.27,-132.18C336.66,-109.38 459.33,-52.77 517.47,-25.93"/>
<polygon fill="#63b8ff" stroke="#63b8ff" points="518.88,-29.13 526.49,-21.76 515.95,-22.78 518.88,-29.13"/>
</a>
</g>
</g>
<!-- Node13&#45;&gt;Node10 -->
<g id="edge16_Node000013_Node000010" class="edge">
<title>Node13&#45;&gt;Node10</title>
<g id="a_edge16_Node000013_Node000010"><a xlink:title=" ">
<path fill="none" stroke="#63b8ff" d="M303.93,-132.2C314.27,-129.88 325.51,-127.67 336,-126.25 537.04,-99.1 1162.22,-81.3 1366.61,-76.09"/>
<polygon fill="#63b8ff" stroke="#63b8ff" points="1366.61,-79.59 1376.52,-75.84 1366.43,-72.6 1366.61,-79.59"/>
</a>
</g>
</g>
<!-- Node18&#45;&gt;Node2 -->
<g id="edge32_Node000018_Node000002" class="edge">
<title>Node18&#45;&gt;Node2</title>
<g id="a_edge32_Node000018_Node000002"><a xlink:title=" ">
<path fill="none" stroke="#63b8ff" d="M997.12,-403.88C1085.7,-376.49 1263.92,-321.37 1345.49,-296.15"/>
<polygon fill="#63b8ff" stroke="#63b8ff" points="1346.37,-299.54 1354.89,-293.24 1344.3,-292.85 1346.37,-299.54"/>
</a>
</g>
</g>
<!-- Node18&#45;&gt;Node3 -->
<g id="edge30_Node000018_Node000003" class="edge">
<title>Node18&#45;&gt;Node3</title>
<g id="a_edge30_Node000018_Node000003"><a xlink:title=" ">
<path fill="none" stroke="#63b8ff" d="M888.62,-418.5C743.29,-413.33 361.9,-391.06 285,-298.75 242.36,-247.57 334.56,-186.89 384.57,-159.17"/>
<polygon fill="#63b8ff" stroke="#63b8ff" points="386.08,-162.34 393.21,-154.5 382.75,-156.18 386.08,-162.34"/>
</a>
</g>
</g>
<!-- Node18&#45;&gt;Node5 -->
<g id="edge31_Node000018_Node000005" class="edge">
<title>Node18&#45;&gt;Node5</title>
<g id="a_edge31_Node000018_Node000005"><a xlink:title=" ">
<path fill="none" stroke="#63b8ff" d="M888.52,-418.37C750.12,-413.92 397.18,-399.75 284,-368.25 202.57,-345.58 114,-367.52 114,-283 114,-283 114,-283 114,-211.5 114,-156.08 170.44,-117.33 214.53,-95.51"/>
<polygon fill="#63b8ff" stroke="#63b8ff" points="215.98,-98.7 223.5,-91.25 212.97,-92.39 215.98,-98.7"/>
</a>
</g>
</g>
<!-- Node18&#45;&gt;Node8 -->
<g id="edge59_Node000018_Node000008" class="edge">
<title>Node18&#45;&gt;Node8</title>
<g id="a_edge59_Node000018_Node000008"><a xlink:title=" ">
<path fill="none" stroke="#63b8ff" d="M888.7,-418.52C716.31,-413.71 203.18,-397.09 134,-368.25 81.33,-346.3 38,-340.06 38,-283 38,-283 38,-283 38,-142 38,-50.24 351.17,-22.1 487.18,-14.2"/>
<polygon fill="#63b8ff" stroke="#63b8ff" points="487.31,-17.7 497.09,-13.64 486.91,-10.71 487.31,-17.7"/>
</a>
</g>
</g>
<!-- Node18&#45;&gt;Node10 -->
<g id="edge33_Node000018_Node000010" class="edge">
<title>Node18&#45;&gt;Node10</title>
<g id="a_edge33_Node000018_Node000010"><a xlink:title=" ">
<path fill="none" stroke="#63b8ff" d="M1001.05,-420.45C1120.71,-420.42 1409.56,-415.01 1646,-368.25 1783.47,-341.06 1874.68,-358.43 1929,-229.25 1956.64,-163.52 1873.55,-149.08 1806,-126.25 1701.75,-91.02 1573.39,-79.74 1497.37,-76.15"/>
<polygon fill="#63b8ff" stroke="#63b8ff" points="1497.75,-72.66 1487.6,-75.72 1497.44,-79.66 1497.75,-72.66"/>
</a>
</g>
</g>
<!-- Node18&#45;&gt;Node12 -->
<g id="edge61_Node000018_Node000012" class="edge">
<title>Node18&#45;&gt;Node12</title>
<g id="a_edge61_Node000018_Node000012"><a xlink:title=" ">
<path fill="none" stroke="#63b8ff" d="M1001.4,-418.84C1159.84,-415.2 1606.64,-402.13 1749,-368.25 1825.61,-350.02 1841.28,-333.41 1912,-298.75 1981.9,-264.49 2065,-291.34 2065,-213.5 2065,-213.5 2065,-213.5 2065,-142 2065,-42.8 1700.18,-18.02 1585.84,-12.68"/>
<polygon fill="#63b8ff" stroke="#63b8ff" points="1586.03,-9.19 1575.88,-12.24 1585.72,-16.18 1586.03,-9.19"/>
</a>
</g>
</g>
<!-- Node18&#45;&gt;Node13 -->
<g id="edge34_Node000018_Node000013" class="edge">
<title>Node18&#45;&gt;Node13</title>
<g id="a_edge34_Node000018_Node000013"><a xlink:title=" ">
<path fill="none" stroke="#63b8ff" d="M888.9,-420.32C757.15,-420.26 431.82,-415.23 335,-368.25 270.47,-336.94 261.58,-300.46 253,-229.25 251.22,-214.47 251.17,-210.53 253,-195.75 254.28,-185.39 256.95,-174.13 259.54,-164.77"/>
<polygon fill="#63b8ff" stroke="#63b8ff" points="262.88,-165.82 262.35,-155.24 256.16,-163.84 262.88,-165.82"/>
</a>
</g>
</g>
<!-- Node18&#45;&gt;Node15 -->
<g id="edge62_Node000018_Node000015" class="edge">
<title>Node18&#45;&gt;Node15</title>
<g id="a_edge62_Node000018_Node000015"><a xlink:title=" ">
<path fill="none" stroke="#63b8ff" d="M1001.37,-418.57C1192,-412.37 1806.5,-380.73 1912,-229.25 1941.41,-187.02 1858.49,-161.63 1808.64,-150.57"/>
<polygon fill="#63b8ff" stroke="#63b8ff" points="1809.65,-147.21 1799.14,-148.56 1808.2,-154.05 1809.65,-147.21"/>
</a>
</g>
</g>
<!-- Node18&#45;&gt;Node17 -->
<g id="edge60_Node000018_Node000017" class="edge">
<title>Node18&#45;&gt;Node17</title>
<g id="a_edge60_Node000018_Node000017"><a xlink:title=" ">
<path fill="none" stroke="#63b8ff" d="M1001.4,-413.41C1144.76,-395.5 1533.41,-339.7 1839,-229.25 1840.34,-228.77 1841.69,-228.23 1843.04,-227.67"/>
<polygon fill="#63b8ff" stroke="#63b8ff" points="1844.29,-230.95 1851.81,-223.49 1841.28,-224.63 1844.29,-230.95"/>
</a>
</g>
</g>
<!-- Node19 -->
<g id="Node000019" class="node">
<title>Node19</title>
<g id="a_Node000019"><a xlink:href="solve__parameters_8h.html" target="_top" xlink:title=" ">
<polygon fill="white" stroke="#666666" points="827,-368.25 709,-368.25 709,-334.75 827,-334.75 827,-368.25"/>
<text text-anchor="start" x="717" y="-354.75" font-family="Helvetica,sans-Serif" font-size="10.00">prismspf/user_inputs</text>
<text text-anchor="middle" x="768" y="-342" font-family="Helvetica,sans-Serif" font-size="10.00">/solve_parameters.h</text>
</a>
</g>
</g>
<!-- Node18&#45;&gt;Node19 -->
<g id="edge35_Node000018_Node000019" class="edge">
<title>Node18&#45;&gt;Node19</title>
<g id="a_edge35_Node000018_Node000019"><a xlink:title=" ">
<path fill="none" stroke="#63b8ff" d="M902.6,-403.83C878.06,-394.47 846.96,-382.61 820.84,-372.65"/>
<polygon fill="#63b8ff" stroke="#63b8ff" points="822.36,-369.49 811.77,-369.19 819.87,-376.03 822.36,-369.49"/>
</a>
</g>
</g>
<!-- Node19&#45;&gt;Node3 -->
<g id="edge36_Node000019_Node000003" class="edge">
<title>Node19&#45;&gt;Node3</title>
<g id="a_edge36_Node000019_Node000003"><a xlink:title=" ">
<path fill="none" stroke="#63b8ff" d="M769.52,-334.56C770.42,-315.05 768.56,-282.5 749,-265.25 684.88,-208.71 423.55,-292.46 366,-229.25 347.27,-208.68 372.15,-179.54 392.5,-161.21"/>
<polygon fill="#63b8ff" stroke="#63b8ff" points="394.63,-164 399.94,-154.84 390.07,-158.69 394.63,-164"/>
</a>
</g>
</g>
<!-- Node19&#45;&gt;Node6 -->
<g id="edge41_Node000019_Node000006" class="edge">
<title>Node19&#45;&gt;Node6</title>
<g id="a_edge41_Node000019_Node000006"><a xlink:title=" ">
<path fill="none" stroke="#63b8ff" d="M825.14,-334.3C858.97,-324.49 902.6,-311.45 941,-298.75 1004.08,-277.89 1075.74,-251.5 1123.17,-233.65"/>
<polygon fill="#63b8ff" stroke="#63b8ff" points="1124.26,-236.98 1132.39,-230.17 1121.79,-230.43 1124.26,-236.98"/>
</a>
</g>
</g>
<!-- Node19&#45;&gt;Node8 -->
<g id="edge56_Node000019_Node000008" class="edge">
<title>Node19&#45;&gt;Node8</title>
<g id="a_edge56_Node000019_Node000008"><a xlink:title=" ">
<path fill="none" stroke="#63b8ff" d="M708.65,-347.71C582.62,-341.33 296.84,-324.21 261,-298.75 205.4,-259.26 210.8,-226.32 196,-159.75 190.66,-135.73 202.7,-57.06 203,-56.75 241.25,-17.34 398.86,-10.99 487.59,-10.64"/>
<polygon fill="#63b8ff" stroke="#63b8ff" points="487.33,-14.14 497.33,-10.63 487.32,-7.14 487.33,-14.14"/>
</a>
</g>
</g>
<!-- Node19&#45;&gt;Node10 -->
<g id="edge42_Node000019_Node000010" class="edge">
<title>Node19&#45;&gt;Node10</title>
<g id="a_edge42_Node000019_Node000010"><a xlink:title=" ">
<path fill="none" stroke="#63b8ff" d="M827.21,-345.23C922.4,-334.75 1113.14,-305.33 1255,-229.25 1319.06,-194.9 1379.65,-133.45 1410.6,-99.23"/>
<polygon fill="#63b8ff" stroke="#63b8ff" points="1413.11,-101.67 1417.16,-91.88 1407.89,-97.01 1413.11,-101.67"/>
</a>
</g>
</g>
<!-- Node19&#45;&gt;Node13 -->
<g id="edge43_Node000019_Node000013" class="edge">
<title>Node19&#45;&gt;Node13</title>
<g id="a_edge43_Node000019_Node000013"><a xlink:title=" ">
<path fill="none" stroke="#63b8ff" d="M708.51,-348.2C586.04,-342.9 314.67,-327.97 285,-298.75 249.26,-263.55 255.31,-198.22 261.37,-164.82"/>
<polygon fill="#63b8ff" stroke="#63b8ff" points="264.77,-165.7 263.31,-155.2 257.9,-164.31 264.77,-165.7"/>
</a>
</g>
</g>
<!-- Node19&#45;&gt;Node14 -->
<g id="edge58_Node000019_Node000014" class="edge">
<title>Node19&#45;&gt;Node14</title>
<g id="a_edge58_Node000019_Node000014"><a xlink:title=" ">
<path fill="none" stroke="#63b8ff" d="M827.41,-348.78C1049.85,-341.73 1824.44,-311.4 1894,-229.25 1903.62,-217.89 1903.34,-207.35 1894,-195.75 1887.47,-187.64 1749.61,-161.18 1687.21,-149.56"/>
<polygon fill="#63b8ff" stroke="#63b8ff" points="1688.1,-146.16 1677.63,-147.78 1686.82,-153.05 1688.1,-146.16"/>
</a>
</g>
</g>
<!-- Node20 -->
<g id="Node000020" class="node">
<title>Node20</title>
<g id="a_Node000020"><a xlink:title=" ">
<polygon fill="#e0e0e0" stroke="#999999" points="974.12,-229.25 847.88,-229.25 847.88,-195.75 974.12,-195.75 974.12,-229.25"/>
<text text-anchor="start" x="855.88" y="-215.75" font-family="Helvetica,sans-Serif" font-size="10.00">deal.II/base/parameter</text>
<text text-anchor="middle" x="911" y="-203" font-family="Helvetica,sans-Serif" font-size="10.00">_handler.h</text>
</a>
</g>
</g>
<!-- Node19&#45;&gt;Node20 -->
<g id="edge37_Node000019_Node000020" class="edge">
<title>Node19&#45;&gt;Node20</title>
<g id="a_edge37_Node000019_Node000020"><a xlink:title=" ">
<path fill="none" stroke="#63b8ff" d="M827.24,-347.1C861.2,-341.75 901.28,-328.9 923,-298.75 935.15,-281.88 930.55,-258.17 923.82,-240.03"/>
<polygon fill="#63b8ff" stroke="#63b8ff" points="927.13,-238.87 920.06,-230.97 920.66,-241.55 927.13,-238.87"/>
</a>
</g>
</g>
<!-- Node21 -->
<g id="Node000021" class="node">
<title>Node21</title>
<g id="a_Node000021"><a xlink:title=" ">
<polygon fill="#e0e0e0" stroke="#999999" points="430,-292.38 294,-292.38 294,-271.62 430,-271.62 430,-292.38"/>
<text text-anchor="middle" x="362" y="-278.88" font-family="Helvetica,sans-Serif" font-size="10.00">deal.II/lac/precondition.h</text>
</a>
</g>
</g>
<!-- Node19&#45;&gt;Node21 -->
<g id="edge38_Node000019_Node000021" class="edge">
<title>Node19&#45;&gt;Node21</title>
<g id="a_edge38_Node000019_Node000021"><a xlink:title=" ">
<path fill="none" stroke="#63b8ff" d="M708.73,-342.01C642.75,-332.37 533.02,-315.75 439,-298.75 432.63,-297.6 425.99,-296.33 419.38,-295.04"/>
<polygon fill="#63b8ff" stroke="#63b8ff" points="420.33,-291.66 409.84,-293.13 418.96,-298.52 420.33,-291.66"/>
</a>
</g>
</g>
<!-- Node22 -->
<g id="Node000022" class="node">
<title>Node22</title>
<g id="a_Node000022"><a xlink:title=" ">
<polygon fill="#e0e0e0" stroke="#999999" points="544.12,-298.75 447.88,-298.75 447.88,-265.25 544.12,-265.25 544.12,-298.75"/>
<text text-anchor="start" x="455.88" y="-285.25" font-family="Helvetica,sans-Serif" font-size="10.00">deal.II/lac/solver</text>
<text text-anchor="middle" x="496" y="-272.5" font-family="Helvetica,sans-Serif" font-size="10.00">_minres.h</text>
</a>
</g>
</g>
<!-- Node19&#45;&gt;Node22 -->
<g id="edge39_Node000019_Node000022" class="edge">
<title>Node19&#45;&gt;Node22</title>
<g id="a_edge39_Node000019_Node000022"><a xlink:title=" ">
<path fill="none" stroke="#63b8ff" d="M708.55,-336.75C667.93,-327.23 612.6,-314.01 555.53,-299.36"/>
<polygon fill="#63b8ff" stroke="#63b8ff" points="556.5,-296 545.95,-296.89 554.76,-302.78 556.5,-296"/>
</a>
</g>
</g>
<!-- Node23 -->
<g id="Node000023" class="node">
<title>Node23</title>
<g id="a_Node000023"><a xlink:title=" ">
<polygon fill="#e0e0e0" stroke="#999999" points="658.12,-298.75 561.88,-298.75 561.88,-265.25 658.12,-265.25 658.12,-298.75"/>
<text text-anchor="start" x="569.88" y="-285.25" font-family="Helvetica,sans-Serif" font-size="10.00">deal.II/lac/solver</text>
<text text-anchor="middle" x="610" y="-272.5" font-family="Helvetica,sans-Serif" font-size="10.00">_selector.h</text>
</a>
</g>
</g>
<!-- Node19&#45;&gt;Node23 -->
<g id="edge40_Node000019_Node000023" class="edge">
<title>Node19&#45;&gt;Node23</title>
<g id="a_edge40_Node000019_Node000023"><a xlink:title=" ">
<path fill="none" stroke="#63b8ff" d="M730.16,-334.33C708.54,-325.1 681.23,-313.43 658.1,-303.55"/>
<polygon fill="#63b8ff" stroke="#63b8ff" points="659.77,-300.46 649.2,-299.75 657.02,-306.89 659.77,-300.46"/>
</a>
</g>
</g>
<!-- Node24 -->
<g id="Node000024" class="node">
<title>Node24</title>
<g id="a_Node000024"><a xlink:href="parameter__base_8h.html" target="_top" xlink:title=" ">
<polygon fill="white" stroke="#666666" points="914,-298.75 796,-298.75 796,-265.25 914,-265.25 914,-298.75"/>
<text text-anchor="start" x="804" y="-285.25" font-family="Helvetica,sans-Serif" font-size="10.00">prismspf/user_inputs</text>
<text text-anchor="middle" x="855" y="-272.5" font-family="Helvetica,sans-Serif" font-size="10.00">/parameter_base.h</text>
</a>
</g>
</g>
<!-- Node19&#45;&gt;Node24 -->
<g id="edge44_Node000019_Node000024" class="edge">
<title>Node19&#45;&gt;Node24</title>
<g id="a_edge44_Node000019_Node000024"><a xlink:title=" ">
<path fill="none" stroke="#63b8ff" d="M788.62,-334.5C799.59,-325.99 813.28,-315.37 825.37,-305.99"/>
<polygon fill="#63b8ff" stroke="#63b8ff" points="827.28,-308.94 833.03,-300.04 822.99,-303.41 827.28,-308.94"/>
</a>
</g>
</g>
<!-- Node30 -->
<g id="Node000030" class="node">
<title>Node30</title>
<g id="a_Node000030"><a xlink:title=" ">
<polygon fill="#e0e0e0" stroke="#999999" points="739.62,-292.38 676.38,-292.38 676.38,-271.62 739.62,-271.62 739.62,-292.38"/>
<text text-anchor="middle" x="708" y="-278.88" font-family="Helvetica,sans-Serif" font-size="10.00">execution</text>
</a>
</g>
</g>
<!-- Node19&#45;&gt;Node30 -->
<g id="edge57_Node000019_Node000030" class="edge">
<title>Node19&#45;&gt;Node30</title>
<g id="a_edge57_Node000019_Node000030"><a xlink:title=" ">
<path fill="none" stroke="#63b8ff" d="M753.78,-334.5C744.88,-324.49 733.39,-311.57 724.15,-301.17"/>
<polygon fill="#63b8ff" stroke="#63b8ff" points="727,-299.1 717.74,-293.95 721.76,-303.75 727,-299.1"/>
</a>
</g>
</g>
<!-- Node24&#45;&gt;Node8 -->
<g id="edge49_Node000024_Node000008" class="edge">
<title>Node24&#45;&gt;Node8</title>
<g id="a_edge49_Node000024_Node000008"><a xlink:title=" ">
<path fill="none" stroke="#63b8ff" d="M795.72,-269.07C787.76,-267.67 779.7,-266.35 772,-265.25 730.78,-259.36 426.99,-260.07 399,-229.25 343.15,-167.75 463.62,-188.2 492,-159.75 527.45,-124.2 541.3,-64.24 546.35,-32.52"/>
<polygon fill="#63b8ff" stroke="#63b8ff" points="549.81,-33.05 547.75,-22.66 542.88,-32.06 549.81,-33.05"/>
</a>
</g>
</g>
<!-- Node24&#45;&gt;Node9 -->
<g id="edge47_Node000024_Node000009" class="edge">
<title>Node24&#45;&gt;Node9</title>
<g id="a_edge47_Node000024_Node000009"><a xlink:title=" ">
<path fill="none" stroke="#63b8ff" d="M914.37,-273.55C1016.05,-260.79 1222.69,-234.87 1328.06,-221.65"/>
<polygon fill="#63b8ff" stroke="#63b8ff" points="1328.48,-225.12 1337.97,-220.4 1327.61,-218.18 1328.48,-225.12"/>
</a>
</g>
</g>
<!-- Node24&#45;&gt;Node12 -->
<g id="edge53_Node000024_Node000012" class="edge">
<title>Node24&#45;&gt;Node12</title>
<g id="a_edge53_Node000024_Node000012"><a xlink:title=" ">
<path fill="none" stroke="#63b8ff" d="M914.31,-279.21C1057.07,-274.43 1411.25,-259.62 1455,-229.25 1489.65,-205.2 1530.58,-81.44 1545.85,-31.9"/>
<polygon fill="#63b8ff" stroke="#63b8ff" points="1549.16,-33.05 1548.72,-22.46 1542.47,-31.01 1549.16,-33.05"/>
</a>
</g>
</g>
<!-- Node24&#45;&gt;Node13 -->
<g id="edge48_Node000024_Node000013" class="edge">
<title>Node24&#45;&gt;Node13</title>
<g id="a_edge48_Node000024_Node000013"><a xlink:title=" ">
<path fill="none" stroke="#63b8ff" d="M795.65,-271.61C780.46,-269.36 764.15,-267.09 749,-265.25 579.27,-244.68 523.49,-295.8 366,-229.25 330.99,-214.45 299.19,-182.81 281.26,-162.51"/>
<polygon fill="#63b8ff" stroke="#63b8ff" points="283.97,-160.3 274.8,-154.98 278.65,-164.85 283.97,-160.3"/>
</a>
</g>
</g>
<!-- Node24&#45;&gt;Node15 -->
<g id="edge55_Node000024_Node000015" class="edge">
<title>Node24&#45;&gt;Node15</title>
<g id="a_edge55_Node000024_Node000015"><a xlink:title=" ">
<path fill="none" stroke="#63b8ff" d="M914.49,-280.37C1051.25,-278.26 1384.21,-269.05 1488,-229.25 1510.95,-220.45 1509.67,-206.01 1532,-195.75 1550.66,-187.18 1676.41,-162.55 1738.9,-150.62"/>
<polygon fill="#63b8ff" stroke="#63b8ff" points="1739.49,-154.07 1748.66,-148.77 1738.18,-147.2 1739.49,-154.07"/>
</a>
</g>
</g>
<!-- Node24&#45;&gt;Node20 -->
<g id="edge45_Node000024_Node000020" class="edge">
<title>Node24&#45;&gt;Node20</title>
<g id="a_edge45_Node000024_Node000020"><a xlink:title=" ">
<path fill="none" stroke="#63b8ff" d="M868.27,-265C874.97,-256.93 883.23,-246.97 890.7,-237.96"/>
<polygon fill="#63b8ff" stroke="#63b8ff" points="893.17,-240.48 896.86,-230.55 887.78,-236.01 893.17,-240.48"/>
</a>
</g>
</g>
<!-- Node25 -->
<g id="Node000025" class="node">
<title>Node25</title>
<g id="a_Node000025"><a xlink:title=" ">
<polygon fill="#e0e0e0" stroke="#999999" points="768.38,-222.88 643.62,-222.88 643.62,-202.12 768.38,-202.12 768.38,-222.88"/>
<text text-anchor="middle" x="706" y="-209.38" font-family="Helvetica,sans-Serif" font-size="10.00">deal.II/base/patterns.h</text>
</a>
</g>
</g>
<!-- Node24&#45;&gt;Node25 -->
<g id="edge46_Node000024_Node000025" class="edge">
<title>Node24&#45;&gt;Node25</title>
<g id="a_edge46_Node000024_Node000025"><a xlink:title=" ">
<path fill="none" stroke="#63b8ff" d="M819.31,-264.83C794.52,-253.6 761.78,-238.77 737.87,-227.94"/>
<polygon fill="#63b8ff" stroke="#63b8ff" points="739.5,-224.83 728.95,-223.9 736.61,-231.21 739.5,-224.83"/>
</a>
</g>
</g>
<!-- Node26 -->
<g id="Node000026" class="node">
<title>Node26</title>
<g id="a_Node000026"><a xlink:title=" ">
<polygon fill="#e0e0e0" stroke="#999999" points="829.5,-222.88 786.5,-222.88 786.5,-202.12 829.5,-202.12 829.5,-222.88"/>
<text text-anchor="middle" x="808" y="-209.38" font-family="Helvetica,sans-Serif" font-size="10.00">cfloat</text>
</a>
</g>
</g>
<!-- Node24&#45;&gt;Node26 -->
<g id="edge50_Node000024_Node000026" class="edge">
<title>Node24&#45;&gt;Node26</title>
<g id="a_edge50_Node000024_Node000026"><a xlink:title=" ">
<path fill="none" stroke="#63b8ff" d="M843.86,-265C837.1,-255.3 828.44,-242.85 821.32,-232.62"/>
<polygon fill="#63b8ff" stroke="#63b8ff" points="824.29,-230.77 815.7,-224.56 818.55,-234.77 824.29,-230.77"/>
</a>
</g>
</g>
<!-- Node27 -->
<g id="Node000027" class="node">
<title>Node27</title>
<g id="a_Node000027"><a xlink:title=" ">
<polygon fill="#e0e0e0" stroke="#999999" points="467.75,-222.88 408.25,-222.88 408.25,-202.12 467.75,-202.12 467.75,-222.88"/>
<text text-anchor="middle" x="438" y="-209.38" font-family="Helvetica,sans-Serif" font-size="10.00">concepts</text>
</a>
</g>
</g>
<!-- Node24&#45;&gt;Node27 -->
<g id="edge51_Node000024_Node000027" class="edge">
<title>Node24&#45;&gt;Node27</title>
<g id="a_edge51_Node000024_Node000027"><a xlink:title=" ">
<path fill="none" stroke="#63b8ff" d="M795.73,-267.72C791.09,-266.83 786.48,-265.99 782,-265.25 646.92,-242.78 608.51,-263.79 476,-229.25 473.73,-228.66 471.42,-227.96 469.12,-227.19"/>
<polygon fill="#63b8ff" stroke="#63b8ff" points="470.56,-224 459.97,-223.76 468.1,-230.55 470.56,-224"/>
</a>
</g>
</g>
<!-- Node28 -->
<g id="Node000028" class="node">
<title>Node28</title>
<g id="a_Node000028"><a xlink:title=" ">
<polygon fill="#e0e0e0" stroke="#999999" points="534.5,-222.88 485.5,-222.88 485.5,-202.12 534.5,-202.12 534.5,-222.88"/>
<text text-anchor="middle" x="510" y="-209.38" font-family="Helvetica,sans-Serif" font-size="10.00">ranges</text>
</a>
</g>
</g>
<!-- Node24&#45;&gt;Node28 -->
<g id="edge52_Node000024_Node000028" class="edge">
<title>Node24&#45;&gt;Node28</title>
<g id="a_edge52_Node000024_Node000028"><a xlink:title=" ">
<path fill="none" stroke="#63b8ff" d="M795.7,-267.88C791.07,-266.96 786.46,-266.07 782,-265.25 676.77,-245.96 646.45,-260.04 544,-229.25 542.4,-228.77 540.79,-228.23 539.17,-227.64"/>
<polygon fill="#63b8ff" stroke="#63b8ff" points="540.67,-224.47 530.09,-223.89 537.99,-230.94 540.67,-224.47"/>
</a>
</g>
</g>
<!-- Node29 -->
<g id="Node000029" class="node">
<title>Node29</title>
<g id="a_Node000029"><a xlink:title=" ">
<polygon fill="#e0e0e0" stroke="#999999" points="625.12,-222.88 552.88,-222.88 552.88,-202.12 625.12,-202.12 625.12,-222.88"/>
<text text-anchor="middle" x="589" y="-209.38" font-family="Helvetica,sans-Serif" font-size="10.00">string_view</text>
</a>
</g>
</g>
<!-- Node24&#45;&gt;Node29 -->
<g id="edge54_Node000024_Node000029" class="edge">
<title>Node24&#45;&gt;Node29</title>
<g id="a_edge54_Node000024_Node000029"><a xlink:title=" ">
<path fill="none" stroke="#63b8ff" d="M795.54,-267.71C741.12,-255.42 664.69,-237.8 635,-229.25 632.4,-228.5 629.73,-227.69 627.05,-226.85"/>
<polygon fill="#63b8ff" stroke="#63b8ff" points="628.13,-223.52 617.54,-223.75 625.96,-230.18 628.13,-223.52"/>
</a>
</g>
</g>
</g>
</svg>
