<?xml version="1.0" encoding="UTF-8" standalone="no"?>
<!DOCTYPE svg PUBLIC "-//W3C//DTD SVG 1.1//EN"
 "http://www.w3.org/Graphics/SVG/1.1/DTD/svg11.dtd">
<!-- Generated by graphviz version 12.2.1 (20241206.2353)
 -->
<!-- Title: include/prismspf/core/dependency_extents.h Pages: 1 -->
<svg width="1868pt" height="515pt"
 viewBox="0.00 0.00 1868.00 515.25" xmlns="http://www.w3.org/2000/svg" xmlns:xlink="http://www.w3.org/1999/xlink">
<g id="graph0" class="graph" transform="scale(1 1) rotate(0) translate(4 511.25)">
<title>include/prismspf/core/dependency_extents.h</title>
<!-- Node1 -->
<g id="Node000001" class="node">
<title>Node1</title>
<g id="a_Node000001"><a xlink:title=" ">
<polygon fill="#999999" stroke="#666666" points="1181.62,-507.25 1052.38,-507.25 1052.38,-473.75 1181.62,-473.75 1181.62,-507.25"/>
<text text-anchor="start" x="1060.38" y="-493.75" font-family="Helvetica,sans-Serif" font-size="10.00">include/prismspf/core</text>
<text text-anchor="middle" x="1117" y="-481" font-family="Helvetica,sans-Serif" font-size="10.00">/dependency_extents.h</text>
</a>
</g>
</g>
<!-- Node2 -->
<g id="Node000002" class="node">
<title>Node2</title>
<g id="a_Node000002"><a xlink:href="dependencies_8h.html" target="_top" xlink:title=" ">
<polygon fill="white" stroke="#666666" points="1421.12,-292.38 1258.88,-292.38 1258.88,-271.62 1421.12,-271.62 1421.12,-292.38"/>
<text text-anchor="middle" x="1340" y="-278.88" font-family="Helvetica,sans-Serif" font-size="10.00">prismspf/core/dependencies.h</text>
</a>
</g>
</g>
<!-- Node1&#45;&gt;Node2 -->
<g id="edge1_Node000001_Node000002" class="edge">
<title>Node1&#45;&gt;Node2</title>
<g id="a_edge1_Node000001_Node000002"><a xlink:title=" ">
<path fill="none" stroke="#63b8ff" d="M1134.5,-473.3C1175.73,-435.12 1278.68,-339.78 1321.19,-300.42"/>
<polygon fill="#63b8ff" stroke="#63b8ff" points="1323.45,-303.1 1328.41,-293.73 1318.69,-297.96 1323.45,-303.1"/>
</a>
</g>
</g>
<!-- Node8 -->
<g id="Node000008" class="node">
<title>Node8</title>
<g id="a_Node000008"><a xlink:title=" ">
<polygon fill="#e0e0e0" stroke="#999999" points="460,-20.75 360,-20.75 360,0 460,0 460,-20.75"/>
<text text-anchor="middle" x="410" y="-7.25" font-family="Helvetica,sans-Serif" font-size="10.00">prismspf/config.h</text>
</a>
</g>
</g>
<!-- Node1&#45;&gt;Node8 -->
<g id="edge62_Node000001_Node000008" class="edge">
<title>Node1&#45;&gt;Node8</title>
<g id="a_edge62_Node000001_Node000008"><a xlink:title=" ">
<path fill="none" stroke="#63b8ff" d="M1052.12,-488.41C813.72,-483.57 0,-459.22 0,-352.5 0,-352.5 0,-352.5 0,-142 0,-95.92 19.64,-80.72 59,-56.75 106.27,-27.96 260.85,-17.22 348.28,-13.38"/>
<polygon fill="#63b8ff" stroke="#63b8ff" points="348.28,-16.89 358.13,-12.97 347.99,-9.89 348.28,-16.89"/>
</a>
</g>
</g>
<!-- Node13 -->
<g id="Node000013" class="node">
<title>Node13</title>
<g id="a_Node000013"><a xlink:href="types_8h.html" target="_top" xlink:title=" ">
<polygon fill="white" stroke="#666666" points="918.88,-153.38 797.12,-153.38 797.12,-132.62 918.88,-132.62 918.88,-153.38"/>
<text text-anchor="middle" x="858" y="-139.88" font-family="Helvetica,sans-Serif" font-size="10.00">prismspf/core/types.h</text>
</a>
</g>
</g>
<!-- Node1&#45;&gt;Node13 -->
<g id="edge61_Node000001_Node000013" class="edge">
<title>Node1&#45;&gt;Node13</title>
<g id="a_edge61_Node000001_Node000013"><a xlink:title=" ">
<path fill="none" stroke="#63b8ff" d="M1052.19,-487.14C835.82,-478.43 152,-443.66 152,-352.5 152,-352.5 152,-352.5 152,-281 152,-235.42 169.5,-218.49 209,-195.75 319,-132.44 653.15,-176.19 779,-159.75 786.82,-158.73 795.03,-157.39 803.08,-155.93"/>
<polygon fill="#63b8ff" stroke="#63b8ff" points="803.64,-159.39 812.81,-154.08 802.33,-152.51 803.64,-159.39"/>
</a>
</g>
</g>
<!-- Node15 -->
<g id="Node000015" class="node">
<title>Node15</title>
<g id="a_Node000015"><a xlink:title=" ">
<polygon fill="#e0e0e0" stroke="#999999" points="1592.38,-153.38 1545.62,-153.38 1545.62,-132.62 1592.38,-132.62 1592.38,-153.38"/>
<text text-anchor="middle" x="1569" y="-139.88" font-family="Helvetica,sans-Serif" font-size="10.00">vector</text>
</a>
</g>
</g>
<!-- Node1&#45;&gt;Node15 -->
<g id="edge63_Node000001_Node000015" class="edge">
<title>Node1&#45;&gt;Node15</title>
<g id="a_edge63_Node000001_Node000015"><a xlink:title=" ">
<path fill="none" stroke="#63b8ff" d="M1182.08,-485.56C1285.6,-476.95 1491.62,-450.12 1644,-368.25 1686.08,-345.64 1703.77,-341.04 1726,-298.75 1747.35,-258.14 1760.71,-232.32 1733,-195.75 1697.32,-148.64 1660.65,-179.64 1605,-159.75 1603.47,-159.2 1601.92,-158.62 1600.36,-158.02"/>
<polygon fill="#63b8ff" stroke="#63b8ff" points="1602.1,-154.95 1591.52,-154.4 1599.45,-161.43 1602.1,-154.95"/>
</a>
</g>
</g>
<!-- Node18 -->
<g id="Node000018" class="node">
<title>Node18</title>
<g id="a_Node000018"><a xlink:href="solve__block_8h.html" target="_top" xlink:title=" ">
<polygon fill="white" stroke="#666666" points="1396,-437.75 1284,-437.75 1284,-404.25 1396,-404.25 1396,-437.75"/>
<text text-anchor="start" x="1292" y="-424.25" font-family="Helvetica,sans-Serif" font-size="10.00">prismspf/core/solve</text>
<text text-anchor="middle" x="1340" y="-411.5" font-family="Helvetica,sans-Serif" font-size="10.00">_block.h</text>
</a>
</g>
</g>
<!-- Node1&#45;&gt;Node18 -->
<g id="edge29_Node000001_Node000018" class="edge">
<title>Node1&#45;&gt;Node18</title>
<g id="a_edge29_Node000001_Node000018"><a xlink:title=" ">
<path fill="none" stroke="#63b8ff" d="M1170.41,-473.33C1202.16,-463.72 1242.61,-451.48 1276.05,-441.36"/>
<polygon fill="#63b8ff" stroke="#63b8ff" points="1276.63,-444.84 1285.19,-438.59 1274.6,-438.14 1276.63,-444.84"/>
</a>
</g>
</g>
<!-- Node3 -->
<g id="Node000003" class="node">
<title>Node3</title>
<g id="a_Node000003"><a xlink:title=" ">
<polygon fill="#e0e0e0" stroke="#999999" points="1310.75,-153.38 1173.25,-153.38 1173.25,-132.62 1310.75,-132.62 1310.75,-153.38"/>
<text text-anchor="middle" x="1242" y="-139.88" font-family="Helvetica,sans-Serif" font-size="10.00">deal.II/base/exceptions.h</text>
</a>
</g>
</g>
<!-- Node2&#45;&gt;Node3 -->
<g id="edge2_Node000002_Node000003" class="edge">
<title>Node2&#45;&gt;Node3</title>
<g id="a_edge2_Node000002_Node000003"><a xlink:title=" ">
<path fill="none" stroke="#63b8ff" d="M1332.95,-271.15C1316.78,-248.54 1276.76,-192.6 1255.61,-163.03"/>
<polygon fill="#63b8ff" stroke="#63b8ff" points="1258.53,-161.09 1249.86,-154.99 1252.84,-165.16 1258.53,-161.09"/>
</a>
</g>
</g>
<!-- Node4 -->
<g id="Node000004" class="node">
<title>Node4</title>
<g id="a_Node000004"><a xlink:title=" ">
<polygon fill="#e0e0e0" stroke="#999999" points="1553.5,-222.88 1432.5,-222.88 1432.5,-202.12 1553.5,-202.12 1553.5,-222.88"/>
<text text-anchor="middle" x="1493" y="-209.38" font-family="Helvetica,sans-Serif" font-size="10.00">deal.II/base/utilities.h</text>
</a>
</g>
</g>
<!-- Node2&#45;&gt;Node4 -->
<g id="edge3_Node000002_Node000004" class="edge">
<title>Node2&#45;&gt;Node4</title>
<g id="a_edge3_Node000002_Node000004"><a xlink:title=" ">
<path fill="none" stroke="#63b8ff" d="M1362.25,-271.18C1388.08,-259.79 1430.93,-240.89 1460.49,-227.84"/>
<polygon fill="#63b8ff" stroke="#63b8ff" points="1461.6,-231.18 1469.34,-223.94 1458.78,-224.77 1461.6,-231.18"/>
</a>
</g>
</g>
<!-- Node5 -->
<g id="Node000005" class="node">
<title>Node5</title>
<g id="a_Node000005"><a xlink:title=" ">
<polygon fill="#e0e0e0" stroke="#999999" points="912.12,-90.25 803.88,-90.25 803.88,-56.75 912.12,-56.75 912.12,-90.25"/>
<text text-anchor="start" x="811.88" y="-76.75" font-family="Helvetica,sans-Serif" font-size="10.00">deal.II/matrix_free</text>
<text text-anchor="middle" x="858" y="-64" font-family="Helvetica,sans-Serif" font-size="10.00">/evaluation_flags.h</text>
</a>
</g>
</g>
<!-- Node2&#45;&gt;Node5 -->
<g id="edge4_Node000002_Node000005" class="edge">
<title>Node2&#45;&gt;Node5</title>
<g id="a_edge4_Node000002_Node000005"><a xlink:title=" ">
<path fill="none" stroke="#63b8ff" d="M1258.7,-273.68C1157.83,-263.97 996.33,-246.07 974,-229.25 933.96,-199.08 959.41,-165.33 928,-126.25 919.05,-115.12 907.16,-105.15 895.73,-97"/>
<polygon fill="#63b8ff" stroke="#63b8ff" points="897.8,-94.18 887.56,-91.46 893.87,-99.97 897.8,-94.18"/>
</a>
</g>
</g>
<!-- Node6 -->
<g id="Node000006" class="node">
<title>Node6</title>
<g id="a_Node000006"><a xlink:href="conditional__ostreams_8h.html" target="_top" xlink:title=" ">
<polygon fill="white" stroke="#666666" points="774.88,-229.25 635.12,-229.25 635.12,-195.75 774.88,-195.75 774.88,-229.25"/>
<text text-anchor="start" x="643.12" y="-215.75" font-family="Helvetica,sans-Serif" font-size="10.00">prismspf/core/conditional</text>
<text text-anchor="middle" x="705" y="-203" font-family="Helvetica,sans-Serif" font-size="10.00">_ostreams.h</text>
</a>
</g>
</g>
<!-- Node2&#45;&gt;Node6 -->
<g id="edge5_Node000002_Node000006" class="edge">
<title>Node2&#45;&gt;Node6</title>
<g id="a_edge5_Node000002_Node000006"><a xlink:title=" ">
<path fill="none" stroke="#63b8ff" d="M1258.61,-272.35C1136.75,-259.39 908.21,-235.1 786.36,-222.15"/>
<polygon fill="#63b8ff" stroke="#63b8ff" points="787.09,-218.71 776.77,-221.13 786.35,-225.67 787.09,-218.71"/>
</a>
</g>
</g>
<!-- Node2&#45;&gt;Node8 -->
<g id="edge24_Node000002_Node000008" class="edge">
<title>Node2&#45;&gt;Node8</title>
<g id="a_edge24_Node000002_Node000008"><a xlink:title=" ">
<path fill="none" stroke="#63b8ff" d="M1325.36,-271.28C1265.25,-231.57 1036.71,-82.5 955,-56.75 866.4,-28.83 594.8,-17.08 471.74,-13.1"/>
<polygon fill="#63b8ff" stroke="#63b8ff" points="471.93,-9.6 461.82,-12.78 471.71,-16.6 471.93,-9.6"/>
</a>
</g>
</g>
<!-- Node9 -->
<g id="Node000009" class="node">
<title>Node9</title>
<g id="a_Node000009"><a xlink:href="field__attributes_8h.html" target="_top" xlink:title=" ">
<polygon fill="white" stroke="#666666" points="1089.38,-229.25 982.62,-229.25 982.62,-195.75 1089.38,-195.75 1089.38,-229.25"/>
<text text-anchor="start" x="990.62" y="-215.75" font-family="Helvetica,sans-Serif" font-size="10.00">prismspf/core/field</text>
<text text-anchor="middle" x="1036" y="-203" font-family="Helvetica,sans-Serif" font-size="10.00">_attributes.h</text>
</a>
</g>
</g>
<!-- Node2&#45;&gt;Node9 -->
<g id="edge8_Node000002_Node000009" class="edge">
<title>Node2&#45;&gt;Node9</title>
<g id="a_edge8_Node000002_Node000009"><a xlink:title=" ">
<path fill="none" stroke="#63b8ff" d="M1295.8,-271.18C1244.51,-259.8 1159.5,-240.92 1100.76,-227.88"/>
<polygon fill="#63b8ff" stroke="#63b8ff" points="1101.74,-224.51 1091.22,-225.76 1100.23,-231.35 1101.74,-224.51"/>
</a>
</g>
</g>
<!-- Node10 -->
<g id="Node000010" class="node">
<title>Node10</title>
<g id="a_Node000010"><a xlink:href="type__enums_8h.html" target="_top" xlink:title=" ">
<polygon fill="white" stroke="#666666" points="1166.75,-90.25 1059.25,-90.25 1059.25,-56.75 1166.75,-56.75 1166.75,-90.25"/>
<text text-anchor="start" x="1067.25" y="-76.75" font-family="Helvetica,sans-Serif" font-size="10.00">prismspf/core/type</text>
<text text-anchor="middle" x="1113" y="-64" font-family="Helvetica,sans-Serif" font-size="10.00">_enums.h</text>
</a>
</g>
</g>
<!-- Node2&#45;&gt;Node10 -->
<g id="edge22_Node000002_Node000010" class="edge">
<title>Node2&#45;&gt;Node10</title>
<g id="a_edge22_Node000002_Node000010"><a xlink:title=" ">
<path fill="none" stroke="#63b8ff" d="M1342.1,-271.16C1347.25,-244.19 1357.46,-168.34 1320,-126.25 1301.26,-105.19 1231.66,-90.88 1178.28,-82.74"/>
<polygon fill="#63b8ff" stroke="#63b8ff" points="1179.06,-79.32 1168.66,-81.32 1178.04,-86.24 1179.06,-79.32"/>
</a>
</g>
</g>
<!-- Node12 -->
<g id="Node000012" class="node">
<title>Node12</title>
<g id="a_Node000012"><a xlink:title=" ">
<polygon fill="#e0e0e0" stroke="#999999" points="1360.88,-20.75 1317.12,-20.75 1317.12,0 1360.88,0 1360.88,-20.75"/>
<text text-anchor="middle" x="1339" y="-7.25" font-family="Helvetica,sans-Serif" font-size="10.00">string</text>
</a>
</g>
</g>
<!-- Node2&#45;&gt;Node12 -->
<g id="edge27_Node000002_Node000012" class="edge">
<title>Node2&#45;&gt;Node12</title>
<g id="a_edge27_Node000002_Node000012"><a xlink:title=" ">
<path fill="none" stroke="#63b8ff" d="M1421.57,-272.85C1482.85,-265.08 1560.02,-251.25 1583,-229.25 1606.05,-207.18 1596.97,-191.4 1601,-159.75 1602.88,-144.98 1609.14,-138.71 1601,-126.25 1549.53,-47.48 1430.76,-22.39 1372.48,-14.66"/>
<polygon fill="#63b8ff" stroke="#63b8ff" points="1373.19,-11.22 1362.84,-13.48 1372.34,-18.17 1373.19,-11.22"/>
</a>
</g>
</g>
<!-- Node2&#45;&gt;Node13 -->
<g id="edge23_Node000002_Node000013" class="edge">
<title>Node2&#45;&gt;Node13</title>
<g id="a_edge23_Node000002_Node000013"><a xlink:title=" ">
<path fill="none" stroke="#63b8ff" d="M1258.73,-273.34C1150.33,-262.69 968.76,-243.14 941,-229.25 910.64,-214.06 885.05,-183.24 870.62,-163.11"/>
<polygon fill="#63b8ff" stroke="#63b8ff" points="873.55,-161.19 864.99,-154.95 867.79,-165.17 873.55,-161.19"/>
</a>
</g>
</g>
<!-- Node2&#45;&gt;Node15 -->
<g id="edge28_Node000002_Node000015" class="edge">
<title>Node2&#45;&gt;Node15</title>
<g id="a_edge28_Node000002_Node000015"><a xlink:title=" ">
<path fill="none" stroke="#63b8ff" d="M1421.5,-272.25C1477.37,-264.43 1544.58,-250.83 1563,-229.25 1578.01,-211.66 1576.97,-183.89 1573.86,-164.85"/>
<polygon fill="#63b8ff" stroke="#63b8ff" points="1577.34,-164.41 1571.95,-155.29 1570.47,-165.78 1577.34,-164.41"/>
</a>
</g>
</g>
<!-- Node16 -->
<g id="Node000016" class="node">
<title>Node16</title>
<g id="a_Node000016"><a xlink:title=" ">
<polygon fill="#e0e0e0" stroke="#999999" points="1414.75,-222.88 1373.25,-222.88 1373.25,-202.12 1414.75,-202.12 1414.75,-222.88"/>
<text text-anchor="middle" x="1394" y="-209.38" font-family="Helvetica,sans-Serif" font-size="10.00">array</text>
</a>
</g>
</g>
<!-- Node2&#45;&gt;Node16 -->
<g id="edge25_Node000002_Node000016" class="edge">
<title>Node2&#45;&gt;Node16</title>
<g id="a_edge25_Node000002_Node000016"><a xlink:title=" ">
<path fill="none" stroke="#63b8ff" d="M1347.74,-271.33C1355.92,-261.1 1369.02,-244.73 1379.2,-232"/>
<polygon fill="#63b8ff" stroke="#63b8ff" points="1381.82,-234.33 1385.33,-224.34 1376.35,-229.96 1381.82,-234.33"/>
</a>
</g>
</g>
<!-- Node17 -->
<g id="Node000017" class="node">
<title>Node17</title>
<g id="a_Node000017"><a xlink:title=" ">
<polygon fill="#e0e0e0" stroke="#999999" points="1679.5,-222.88 1648.5,-222.88 1648.5,-202.12 1679.5,-202.12 1679.5,-222.88"/>
<text text-anchor="middle" x="1664" y="-209.38" font-family="Helvetica,sans-Serif" font-size="10.00">set</text>
</a>
</g>
</g>
<!-- Node2&#45;&gt;Node17 -->
<g id="edge26_Node000002_Node000017" class="edge">
<title>Node2&#45;&gt;Node17</title>
<g id="a_edge26_Node000002_Node000017"><a xlink:title=" ">
<path fill="none" stroke="#63b8ff" d="M1421.54,-273.49C1481.51,-266.34 1564.35,-253.02 1634,-229.25 1635.35,-228.79 1636.71,-228.28 1638.07,-227.72"/>
<polygon fill="#63b8ff" stroke="#63b8ff" points="1639.29,-231.02 1646.85,-223.59 1636.31,-224.68 1639.29,-231.02"/>
</a>
</g>
</g>
<!-- Node7 -->
<g id="Node000007" class="node">
<title>Node7</title>
<g id="a_Node000007"><a xlink:title=" ">
<polygon fill="#e0e0e0" stroke="#999999" points="769.62,-159.75 640.38,-159.75 640.38,-126.25 769.62,-126.25 769.62,-159.75"/>
<text text-anchor="start" x="648.38" y="-146.25" font-family="Helvetica,sans-Serif" font-size="10.00">deal.II/base/conditional</text>
<text text-anchor="middle" x="705" y="-133.5" font-family="Helvetica,sans-Serif" font-size="10.00">_ostream.h</text>
</a>
</g>
</g>
<!-- Node6&#45;&gt;Node7 -->
<g id="edge6_Node000006_Node000007" class="edge">
<title>Node6&#45;&gt;Node7</title>
<g id="a_edge6_Node000006_Node000007"><a xlink:title=" ">
<path fill="none" stroke="#63b8ff" d="M705,-195.5C705,-188.27 705,-179.53 705,-171.31"/>
<polygon fill="#63b8ff" stroke="#63b8ff" points="708.5,-171.4 705,-161.4 701.5,-171.4 708.5,-171.4"/>
</a>
</g>
</g>
<!-- Node6&#45;&gt;Node8 -->
<g id="edge7_Node000006_Node000008" class="edge">
<title>Node6&#45;&gt;Node8</title>
<g id="a_edge7_Node000006_Node000008"><a xlink:title=" ">
<path fill="none" stroke="#63b8ff" d="M634.84,-196.69C591.12,-186.53 539.74,-172.61 521,-159.75 471.86,-126.03 435.71,-63.42 419.49,-31.38"/>
<polygon fill="#63b8ff" stroke="#63b8ff" points="422.64,-29.87 415.09,-22.43 416.36,-32.95 422.64,-29.87"/>
</a>
</g>
</g>
<!-- Node9&#45;&gt;Node3 -->
<g id="edge9_Node000009_Node000003" class="edge">
<title>Node9&#45;&gt;Node3</title>
<g id="a_edge9_Node000009_Node000003"><a xlink:title=" ">
<path fill="none" stroke="#63b8ff" d="M1085.34,-195.33C1120.74,-183.73 1167.87,-168.29 1201.16,-157.38"/>
<polygon fill="#63b8ff" stroke="#63b8ff" points="1202.03,-160.78 1210.44,-154.34 1199.85,-154.13 1202.03,-160.78"/>
</a>
</g>
</g>
<!-- Node9&#45;&gt;Node8 -->
<g id="edge18_Node000009_Node000008" class="edge">
<title>Node9&#45;&gt;Node8</title>
<g id="a_edge18_Node000009_Node000008"><a xlink:title=" ">
<path fill="none" stroke="#63b8ff" d="M1029.44,-195.26C1015.25,-162.48 978.25,-88.79 921,-56.75 845.5,-14.5 590.29,-10.25 471.62,-10.65"/>
<polygon fill="#63b8ff" stroke="#63b8ff" points="471.73,-7.15 461.74,-10.7 471.76,-14.15 471.73,-7.15"/>
</a>
</g>
</g>
<!-- Node9&#45;&gt;Node10 -->
<g id="edge10_Node000009_Node000010" class="edge">
<title>Node9&#45;&gt;Node10</title>
<g id="a_edge10_Node000009_Node000010"><a xlink:title=" ">
<path fill="none" stroke="#63b8ff" d="M1044.98,-195.52C1058.14,-172.11 1082.79,-128.25 1098.52,-100.26"/>
<polygon fill="#63b8ff" stroke="#63b8ff" points="1101.48,-102.13 1103.33,-91.7 1095.38,-98.7 1101.48,-102.13"/>
</a>
</g>
</g>
<!-- Node9&#45;&gt;Node12 -->
<g id="edge20_Node000009_Node000012" class="edge">
<title>Node9&#45;&gt;Node12</title>
<g id="a_edge20_Node000009_Node000012"><a xlink:title=" ">
<path fill="none" stroke="#63b8ff" d="M1060.03,-195.43C1085.73,-178.25 1127.7,-150.25 1164,-126.25 1217.57,-90.83 1280.57,-49.57 1314.46,-27.41"/>
<polygon fill="#63b8ff" stroke="#63b8ff" points="1316.27,-30.41 1322.73,-22 1312.44,-24.55 1316.27,-30.41"/>
</a>
</g>
</g>
<!-- Node9&#45;&gt;Node13 -->
<g id="edge14_Node000009_Node000013" class="edge">
<title>Node9&#45;&gt;Node13</title>
<g id="a_edge14_Node000009_Node000013"><a xlink:title=" ">
<path fill="none" stroke="#63b8ff" d="M993.36,-195.33C963.18,-183.88 923.12,-168.69 894.42,-157.81"/>
<polygon fill="#63b8ff" stroke="#63b8ff" points="896.03,-154.68 885.44,-154.41 893.55,-161.22 896.03,-154.68"/>
</a>
</g>
</g>
<!-- Node14 -->
<g id="Node000014" class="node">
<title>Node14</title>
<g id="a_Node000014"><a xlink:title=" ">
<polygon fill="#e0e0e0" stroke="#999999" points="567.88,-153.38 530.12,-153.38 530.12,-132.62 567.88,-132.62 567.88,-153.38"/>
<text text-anchor="middle" x="549" y="-139.88" font-family="Helvetica,sans-Serif" font-size="10.00">map</text>
</a>
</g>
</g>
<!-- Node9&#45;&gt;Node14 -->
<g id="edge19_Node000009_Node000014" class="edge">
<title>Node9&#45;&gt;Node14</title>
<g id="a_edge19_Node000009_Node000014"><a xlink:title=" ">
<path fill="none" stroke="#63b8ff" d="M982.13,-205.7C904.38,-197.09 756.29,-179.77 631,-159.75 613.78,-157 594.63,-153.35 579.17,-150.26"/>
<polygon fill="#63b8ff" stroke="#63b8ff" points="580.14,-146.89 569.64,-148.33 578.75,-153.75 580.14,-146.89"/>
</a>
</g>
</g>
<!-- Node9&#45;&gt;Node15 -->
<g id="edge21_Node000009_Node000015" class="edge">
<title>Node9&#45;&gt;Node15</title>
<g id="a_edge21_Node000009_Node000015"><a xlink:title=" ">
<path fill="none" stroke="#63b8ff" d="M1089.64,-198.29C1094.15,-197.36 1098.64,-196.5 1103,-195.75 1262.9,-168.18 1456.32,-152.17 1534.12,-146.43"/>
<polygon fill="#63b8ff" stroke="#63b8ff" points="1534.36,-149.92 1544.08,-145.71 1533.85,-142.94 1534.36,-149.92"/>
</a>
</g>
</g>
<!-- Node10&#45;&gt;Node8 -->
<g id="edge11_Node000010_Node000008" class="edge">
<title>Node10&#45;&gt;Node8</title>
<g id="a_edge11_Node000010_Node000008"><a xlink:title=" ">
<path fill="none" stroke="#63b8ff" d="M1058.96,-59.18C1054.25,-58.26 1049.55,-57.44 1045,-56.75 836.05,-25.28 585.04,-15.51 471.32,-12.58"/>
<polygon fill="#63b8ff" stroke="#63b8ff" points="471.7,-9.09 461.61,-12.34 471.52,-16.08 471.7,-9.09"/>
</a>
</g>
</g>
<!-- Node11 -->
<g id="Node000011" class="node">
<title>Node11</title>
<g id="a_Node000011"><a xlink:title=" ">
<polygon fill="#e0e0e0" stroke="#999999" points="1137.5,-20.75 1088.5,-20.75 1088.5,0 1137.5,0 1137.5,-20.75"/>
<text text-anchor="middle" x="1113" y="-7.25" font-family="Helvetica,sans-Serif" font-size="10.00">cstdint</text>
</a>
</g>
</g>
<!-- Node10&#45;&gt;Node11 -->
<g id="edge12_Node000010_Node000011" class="edge">
<title>Node10&#45;&gt;Node11</title>
<g id="a_edge12_Node000010_Node000011"><a xlink:title=" ">
<path fill="none" stroke="#63b8ff" d="M1113,-56.44C1113,-49.1 1113,-40.32 1113,-32.46"/>
<polygon fill="#63b8ff" stroke="#63b8ff" points="1116.5,-32.73 1113,-22.73 1109.5,-32.73 1116.5,-32.73"/>
</a>
</g>
</g>
<!-- Node10&#45;&gt;Node12 -->
<g id="edge13_Node000010_Node000012" class="edge">
<title>Node10&#45;&gt;Node12</title>
<g id="a_edge13_Node000010_Node000012"><a xlink:title=" ">
<path fill="none" stroke="#63b8ff" d="M1167.13,-57.86C1210.26,-46.19 1269.26,-30.24 1305.71,-20.38"/>
<polygon fill="#63b8ff" stroke="#63b8ff" points="1306.5,-23.79 1315.24,-17.8 1304.68,-17.03 1306.5,-23.79"/>
</a>
</g>
</g>
<!-- Node13&#45;&gt;Node5 -->
<g id="edge15_Node000013_Node000005" class="edge">
<title>Node13&#45;&gt;Node5</title>
<g id="a_edge15_Node000013_Node000005"><a xlink:title=" ">
<path fill="none" stroke="#63b8ff" d="M858,-132.33C858,-124.44 858,-112.88 858,-102.16"/>
<polygon fill="#63b8ff" stroke="#63b8ff" points="861.5,-102.18 858,-92.18 854.5,-102.18 861.5,-102.18"/>
</a>
</g>
</g>
<!-- Node13&#45;&gt;Node8 -->
<g id="edge17_Node000013_Node000008" class="edge">
<title>Node13&#45;&gt;Node8</title>
<g id="a_edge17_Node000013_Node000008"><a xlink:title=" ">
<path fill="none" stroke="#63b8ff" d="M824.33,-132.18C744.61,-108.94 544.33,-50.54 454.64,-24.39"/>
<polygon fill="#63b8ff" stroke="#63b8ff" points="455.79,-21.08 445.21,-21.64 453.83,-27.8 455.79,-21.08"/>
</a>
</g>
</g>
<!-- Node13&#45;&gt;Node10 -->
<g id="edge16_Node000013_Node000010" class="edge">
<title>Node13&#45;&gt;Node10</title>
<g id="a_edge16_Node000013_Node000010"><a xlink:title=" ">
<path fill="none" stroke="#63b8ff" d="M895.08,-132.18C935.06,-121.6 999.49,-104.55 1047.94,-91.72"/>
<polygon fill="#63b8ff" stroke="#63b8ff" points="1048.72,-95.14 1057.49,-89.19 1046.92,-88.37 1048.72,-95.14"/>
</a>
</g>
</g>
<!-- Node18&#45;&gt;Node2 -->
<g id="edge32_Node000018_Node000002" class="edge">
<title>Node18&#45;&gt;Node2</title>
<g id="a_edge32_Node000018_Node000002"><a xlink:title=" ">
<path fill="none" stroke="#63b8ff" d="M1340,-404.02C1340,-379.28 1340,-331.7 1340,-304.14"/>
<polygon fill="#63b8ff" stroke="#63b8ff" points="1343.5,-304.24 1340,-294.24 1336.5,-304.24 1343.5,-304.24"/>
</a>
</g>
</g>
<!-- Node18&#45;&gt;Node3 -->
<g id="edge30_Node000018_Node000003" class="edge">
<title>Node18&#45;&gt;Node3</title>
<g id="a_edge30_Node000018_Node000003"><a xlink:title=" ">
<path fill="none" stroke="#63b8ff" d="M1396.09,-408.05C1517.24,-379.87 1784.94,-303.43 1689,-195.75 1665.09,-168.91 1444.48,-153.91 1322.39,-147.6"/>
<polygon fill="#63b8ff" stroke="#63b8ff" points="1322.57,-144.11 1312.4,-147.1 1322.21,-151.1 1322.57,-144.11"/>
</a>
</g>
</g>
<!-- Node18&#45;&gt;Node5 -->
<g id="edge31_Node000018_Node000005" class="edge">
<title>Node18&#45;&gt;Node5</title>
<g id="a_edge31_Node000018_Node000005"><a xlink:title=" ">
<path fill="none" stroke="#63b8ff" d="M1283.68,-417.94C1088.76,-410.18 444.55,-378.9 256,-298.75 208.51,-278.56 186.12,-275.38 163,-229.25 104.96,-113.41 608,-83.52 792.14,-76.49"/>
<polygon fill="#63b8ff" stroke="#63b8ff" points="792.16,-79.99 802.02,-76.13 791.9,-73 792.16,-79.99"/>
</a>
</g>
</g>
<!-- Node18&#45;&gt;Node8 -->
<g id="edge57_Node000018_Node000008" class="edge">
<title>Node18&#45;&gt;Node8</title>
<g id="a_edge57_Node000018_Node000008"><a xlink:title=" ">
<path fill="none" stroke="#63b8ff" d="M1283.64,-420.08C1033.73,-419.7 38,-410.21 38,-283 38,-283 38,-283 38,-142 38,-86.26 79.9,-81.2 130,-56.75 199.6,-22.79 289.36,-13.43 348.24,-11.26"/>
<polygon fill="#63b8ff" stroke="#63b8ff" points="348.18,-14.76 358.07,-10.96 347.97,-7.77 348.18,-14.76"/>
</a>
</g>
</g>
<!-- Node18&#45;&gt;Node10 -->
<g id="edge33_Node000018_Node000010" class="edge">
<title>Node18&#45;&gt;Node10</title>
<g id="a_edge33_Node000018_Node000010"><a xlink:title=" ">
<path fill="none" stroke="#63b8ff" d="M1396.43,-419.22C1459.53,-416.39 1563.44,-405.77 1644,-368.25 1722.2,-331.83 1777.58,-269.61 1733,-195.75 1675.96,-101.26 1325.42,-80.4 1178.1,-75.8"/>
<polygon fill="#63b8ff" stroke="#63b8ff" points="1178.63,-72.31 1168.53,-75.52 1178.42,-79.31 1178.63,-72.31"/>
</a>
</g>
</g>
<!-- Node18&#45;&gt;Node12 -->
<g id="edge59_Node000018_Node000012" class="edge">
<title>Node18&#45;&gt;Node12</title>
<g id="a_edge59_Node000018_Node000012"><a xlink:title=" ">
<path fill="none" stroke="#63b8ff" d="M1396.14,-417.09C1530.6,-408.61 1860,-378.11 1860,-283 1860,-283 1860,-283 1860,-142 1860,-41.02 1487.08,-17.41 1372.25,-12.53"/>
<polygon fill="#63b8ff" stroke="#63b8ff" points="1372.7,-9.04 1362.57,-12.14 1372.42,-16.04 1372.7,-9.04"/>
</a>
</g>
</g>
<!-- Node18&#45;&gt;Node13 -->
<g id="edge34_Node000018_Node000013" class="edge">
<title>Node18&#45;&gt;Node13</title>
<g id="a_edge34_Node000018_Node000013"><a xlink:title=" ">
<path fill="none" stroke="#63b8ff" d="M1324.63,-403.8C1292.83,-371.43 1216.1,-298.96 1136,-265.25 1035.77,-223.07 979.94,-295.87 894,-229.25 873.91,-213.67 864.9,-184.78 860.95,-164.98"/>
<polygon fill="#63b8ff" stroke="#63b8ff" points="864.42,-164.55 859.31,-155.27 857.52,-165.71 864.42,-164.55"/>
</a>
</g>
</g>
<!-- Node18&#45;&gt;Node15 -->
<g id="edge60_Node000018_Node000015" class="edge">
<title>Node18&#45;&gt;Node15</title>
<g id="a_edge60_Node000018_Node000015"><a xlink:title=" ">
<path fill="none" stroke="#63b8ff" d="M1396.47,-413.99C1448.22,-407.17 1526.25,-393.55 1590,-368.25 1644.8,-346.5 1670.98,-348.26 1703,-298.75 1727.96,-260.16 1738.39,-233.37 1712,-195.75 1687.72,-161.14 1637.87,-149.58 1603.93,-145.78"/>
<polygon fill="#63b8ff" stroke="#63b8ff" points="1604.45,-142.31 1594.17,-144.87 1603.8,-149.28 1604.45,-142.31"/>
</a>
</g>
</g>
<!-- Node18&#45;&gt;Node17 -->
<g id="edge58_Node000018_Node000017" class="edge">
<title>Node18&#45;&gt;Node17</title>
<g id="a_edge58_Node000018_Node000017"><a xlink:title=" ">
<path fill="none" stroke="#63b8ff" d="M1365.42,-403.8C1426.2,-365.06 1579.32,-267.47 1639.33,-229.22"/>
<polygon fill="#63b8ff" stroke="#63b8ff" points="1640.95,-232.34 1647.5,-224.02 1637.18,-226.44 1640.95,-232.34"/>
</a>
</g>
</g>
<!-- Node19 -->
<g id="Node000019" class="node">
<title>Node19</title>
<g id="a_Node000019"><a xlink:href="solve__parameters_8h.html" target="_top" xlink:title=" ">
<polygon fill="white" stroke="#666666" points="808,-368.25 690,-368.25 690,-334.75 808,-334.75 808,-368.25"/>
<text text-anchor="start" x="698" y="-354.75" font-family="Helvetica,sans-Serif" font-size="10.00">prismspf/user_inputs</text>
<text text-anchor="middle" x="749" y="-342" font-family="Helvetica,sans-Serif" font-size="10.00">/solve_parameters.h</text>
</a>
</g>
</g>
<!-- Node18&#45;&gt;Node19 -->
<g id="edge35_Node000018_Node000019" class="edge">
<title>Node18&#45;&gt;Node19</title>
<g id="a_edge35_Node000018_Node000019"><a xlink:title=" ">
<path fill="none" stroke="#63b8ff" d="M1283.6,-413.56C1175.15,-401.17 937.81,-374.06 819.28,-360.53"/>
<polygon fill="#63b8ff" stroke="#63b8ff" points="820.02,-357.09 809.69,-359.43 819.23,-364.04 820.02,-357.09"/>
</a>
</g>
</g>
<!-- Node19&#45;&gt;Node3 -->
<g id="edge36_Node000019_Node000003" class="edge">
<title>Node19&#45;&gt;Node3</title>
<g id="a_edge36_Node000019_Node000003"><a xlink:title=" ">
<path fill="none" stroke="#63b8ff" d="M808.32,-347.59C925.48,-341.31 1177.83,-324.88 1207,-298.75 1245.02,-264.69 1246.34,-198.85 1244.16,-165.08"/>
<polygon fill="#63b8ff" stroke="#63b8ff" points="1247.67,-165.03 1243.36,-155.36 1240.7,-165.61 1247.67,-165.03"/>
</a>
</g>
</g>
<!-- Node19&#45;&gt;Node6 -->
<g id="edge41_Node000019_Node000006" class="edge">
<title>Node19&#45;&gt;Node6</title>
<g id="a_edge41_Node000019_Node000006"><a xlink:title=" ">
<path fill="none" stroke="#63b8ff" d="M689.71,-336.47C670.15,-328.72 650.48,-316.84 639,-298.75 631.02,-286.18 632.48,-278.64 639,-265.25 644.61,-253.72 654.17,-244 664.3,-236.21"/>
<polygon fill="#63b8ff" stroke="#63b8ff" points="666.27,-239.1 672.42,-230.47 662.23,-233.38 666.27,-239.1"/>
</a>
</g>
</g>
<!-- Node19&#45;&gt;Node8 -->
<g id="edge54_Node000019_Node000008" class="edge">
<title>Node19&#45;&gt;Node8</title>
<g id="a_edge54_Node000019_Node000008"><a xlink:title=" ">
<path fill="none" stroke="#63b8ff" d="M689.55,-350.21C531.69,-347.86 114,-330.58 114,-213.5 114,-213.5 114,-213.5 114,-142 114,-40.4 261.77,-17.16 348.49,-12.27"/>
<polygon fill="#63b8ff" stroke="#63b8ff" points="348.46,-15.78 358.28,-11.79 348.12,-8.79 348.46,-15.78"/>
</a>
</g>
</g>
<!-- Node19&#45;&gt;Node10 -->
<g id="edge42_Node000019_Node000010" class="edge">
<title>Node19&#45;&gt;Node10</title>
<g id="a_edge42_Node000019_Node000010"><a xlink:title=" ">
<path fill="none" stroke="#63b8ff" d="M808.27,-346.81C911.36,-339.79 1114.77,-323.01 1136,-298.75 1184.92,-242.86 1148.66,-146.59 1126.64,-100.53"/>
<polygon fill="#63b8ff" stroke="#63b8ff" points="1129.9,-99.24 1122.34,-91.82 1123.63,-102.34 1129.9,-99.24"/>
</a>
</g>
</g>
<!-- Node19&#45;&gt;Node13 -->
<g id="edge43_Node000019_Node000013" class="edge">
<title>Node19&#45;&gt;Node13</title>
<g id="a_edge43_Node000019_Node000013"><a xlink:title=" ">
<path fill="none" stroke="#63b8ff" d="M710.56,-334.46C695.72,-326.14 680.33,-314.39 672,-298.75 665,-285.61 662.83,-276.98 672,-265.25 712.91,-212.95 765.49,-271.15 817,-229.25 837.06,-212.93 847.95,-184.45 853.37,-164.93"/>
<polygon fill="#63b8ff" stroke="#63b8ff" points="856.73,-165.89 855.75,-155.34 849.94,-164.2 856.73,-165.89"/>
</a>
</g>
</g>
<!-- Node19&#45;&gt;Node14 -->
<g id="edge56_Node000019_Node000014" class="edge">
<title>Node19&#45;&gt;Node14</title>
<g id="a_edge56_Node000019_Node000014"><a xlink:title=" ">
<path fill="none" stroke="#63b8ff" d="M689.96,-347.07C561.17,-338.15 262.25,-309.09 209,-229.25 113.19,-85.6 83.19,-220.97 462,-159.75 480.78,-156.72 501.76,-152.93 518.42,-149.83"/>
<polygon fill="#63b8ff" stroke="#63b8ff" points="519.02,-153.28 528.2,-147.99 517.72,-146.4 519.02,-153.28"/>
</a>
</g>
</g>
<!-- Node20 -->
<g id="Node000020" class="node">
<title>Node20</title>
<g id="a_Node000020"><a xlink:title=" ">
<polygon fill="#e0e0e0" stroke="#999999" points="344.12,-229.25 217.88,-229.25 217.88,-195.75 344.12,-195.75 344.12,-229.25"/>
<text text-anchor="start" x="225.88" y="-215.75" font-family="Helvetica,sans-Serif" font-size="10.00">deal.II/base/parameter</text>
<text text-anchor="middle" x="281" y="-203" font-family="Helvetica,sans-Serif" font-size="10.00">_handler.h</text>
</a>
</g>
</g>
<!-- Node19&#45;&gt;Node20 -->
<g id="edge37_Node000019_Node000020" class="edge">
<title>Node19&#45;&gt;Node20</title>
<g id="a_edge37_Node000019_Node000020"><a xlink:title=" ">
<path fill="none" stroke="#63b8ff" d="M689.76,-344.58C630.54,-337.58 537.4,-323.62 460,-298.75 409.14,-282.41 354.17,-254.56 318.76,-235.15"/>
<polygon fill="#63b8ff" stroke="#63b8ff" points="320.63,-232.19 310.19,-230.4 317.24,-238.31 320.63,-232.19"/>
</a>
</g>
</g>
<!-- Node21 -->
<g id="Node000021" class="node">
<title>Node21</title>
<g id="a_Node000021"><a xlink:title=" ">
<polygon fill="#e0e0e0" stroke="#999999" points="817,-292.38 681,-292.38 681,-271.62 817,-271.62 817,-292.38"/>
<text text-anchor="middle" x="749" y="-278.88" font-family="Helvetica,sans-Serif" font-size="10.00">deal.II/lac/precondition.h</text>
</a>
</g>
</g>
<!-- Node19&#45;&gt;Node21 -->
<g id="edge38_Node000019_Node000021" class="edge">
<title>Node19&#45;&gt;Node21</title>
<g id="a_edge38_Node000019_Node000021"><a xlink:title=" ">
<path fill="none" stroke="#63b8ff" d="M749,-334.5C749,-325.4 749,-313.89 749,-304.07"/>
<polygon fill="#63b8ff" stroke="#63b8ff" points="752.5,-304.34 749,-294.34 745.5,-304.34 752.5,-304.34"/>
</a>
</g>
</g>
<!-- Node22 -->
<g id="Node000022" class="node">
<title>Node22</title>
<g id="a_Node000022"><a xlink:title=" ">
<polygon fill="#e0e0e0" stroke="#999999" points="931.12,-298.75 834.88,-298.75 834.88,-265.25 931.12,-265.25 931.12,-298.75"/>
<text text-anchor="start" x="842.88" y="-285.25" font-family="Helvetica,sans-Serif" font-size="10.00">deal.II/lac/solver</text>
<text text-anchor="middle" x="883" y="-272.5" font-family="Helvetica,sans-Serif" font-size="10.00">_minres.h</text>
</a>
</g>
</g>
<!-- Node19&#45;&gt;Node22 -->
<g id="edge39_Node000019_Node000022" class="edge">
<title>Node19&#45;&gt;Node22</title>
<g id="a_edge39_Node000019_Node000022"><a xlink:title=" ">
<path fill="none" stroke="#63b8ff" d="M781.1,-334.33C799.08,-325.27 821.72,-313.87 841.09,-304.11"/>
<polygon fill="#63b8ff" stroke="#63b8ff" points="842.46,-307.34 849.81,-299.72 839.31,-301.09 842.46,-307.34"/>
</a>
</g>
</g>
<!-- Node23 -->
<g id="Node000023" class="node">
<title>Node23</title>
<g id="a_Node000023"><a xlink:title=" ">
<polygon fill="#e0e0e0" stroke="#999999" points="1045.12,-298.75 948.88,-298.75 948.88,-265.25 1045.12,-265.25 1045.12,-298.75"/>
<text text-anchor="start" x="956.88" y="-285.25" font-family="Helvetica,sans-Serif" font-size="10.00">deal.II/lac/solver</text>
<text text-anchor="middle" x="997" y="-272.5" font-family="Helvetica,sans-Serif" font-size="10.00">_selector.h</text>
</a>
</g>
</g>
<!-- Node19&#45;&gt;Node23 -->
<g id="edge40_Node000019_Node000023" class="edge">
<title>Node19&#45;&gt;Node23</title>
<g id="a_edge40_Node000019_Node000023"><a xlink:title=" ">
<path fill="none" stroke="#63b8ff" d="M808.38,-334.49C843.44,-325.02 888.98,-312.69 937.45,-299.44"/>
<polygon fill="#63b8ff" stroke="#63b8ff" points="938.31,-302.83 947.03,-296.82 936.47,-296.08 938.31,-302.83"/>
</a>
</g>
</g>
<!-- Node24 -->
<g id="Node000024" class="node">
<title>Node24</title>
<g id="a_Node000024"><a xlink:href="parameter__base_8h.html" target="_top" xlink:title=" ">
<polygon fill="white" stroke="#666666" points="587,-298.75 469,-298.75 469,-265.25 587,-265.25 587,-298.75"/>
<text text-anchor="start" x="477" y="-285.25" font-family="Helvetica,sans-Serif" font-size="10.00">prismspf/user_inputs</text>
<text text-anchor="middle" x="528" y="-272.5" font-family="Helvetica,sans-Serif" font-size="10.00">/parameter_base.h</text>
</a>
</g>
</g>
<!-- Node19&#45;&gt;Node24 -->
<g id="edge44_Node000019_Node000024" class="edge">
<title>Node19&#45;&gt;Node24</title>
<g id="a_edge44_Node000019_Node000024"><a xlink:title=" ">
<path fill="none" stroke="#63b8ff" d="M696.06,-334.33C664.74,-324.77 624.86,-312.58 591.81,-302.49"/>
<polygon fill="#63b8ff" stroke="#63b8ff" points="592.92,-299.17 582.33,-299.59 590.87,-305.86 592.92,-299.17"/>
</a>
</g>
</g>
<!-- Node28 -->
<g id="Node000028" class="node">
<title>Node28</title>
<g id="a_Node000028"><a xlink:title=" ">
<polygon fill="#e0e0e0" stroke="#999999" points="1126.62,-292.38 1063.38,-292.38 1063.38,-271.62 1126.62,-271.62 1126.62,-292.38"/>
<text text-anchor="middle" x="1095" y="-278.88" font-family="Helvetica,sans-Serif" font-size="10.00">execution</text>
</a>
</g>
</g>
<!-- Node19&#45;&gt;Node28 -->
<g id="edge55_Node000019_Node000028" class="edge">
<title>Node19&#45;&gt;Node28</title>
<g id="a_edge55_Node000019_Node000028"><a xlink:title=" ">
<path fill="none" stroke="#63b8ff" d="M808.23,-343.99C870.24,-336.36 970.09,-321.74 1054,-298.75 1056.3,-298.12 1058.65,-297.41 1061,-296.65"/>
<polygon fill="#63b8ff" stroke="#63b8ff" points="1062.16,-299.95 1070.42,-293.32 1059.83,-293.35 1062.16,-299.95"/>
</a>
</g>
</g>
<!-- Node24&#45;&gt;Node8 -->
<g id="edge48_Node000024_Node000008" class="edge">
<title>Node24&#45;&gt;Node8</title>
<g id="a_edge48_Node000024_Node000008"><a xlink:title=" ">
<path fill="none" stroke="#63b8ff" d="M468.83,-274.2C440.32,-267.61 408.57,-254.66 391,-229.25 348.66,-168 382.34,-72.74 400.41,-31.52"/>
<polygon fill="#63b8ff" stroke="#63b8ff" points="403.53,-33.11 404.49,-22.56 397.16,-30.21 403.53,-33.11"/>
</a>
</g>
</g>
<!-- Node24&#45;&gt;Node9 -->
<g id="edge46_Node000024_Node000009" class="edge">
<title>Node24&#45;&gt;Node9</title>
<g id="a_edge46_Node000024_Node000009"><a xlink:title=" ">
<path fill="none" stroke="#63b8ff" d="M587.27,-273.12C683.19,-260.38 871.71,-235.33 971.11,-222.12"/>
<polygon fill="#63b8ff" stroke="#63b8ff" points="971.54,-225.6 980.99,-220.81 970.61,-218.66 971.54,-225.6"/>
</a>
</g>
</g>
<!-- Node24&#45;&gt;Node12 -->
<g id="edge51_Node000024_Node000012" class="edge">
<title>Node24&#45;&gt;Node12</title>
<g id="a_edge51_Node000024_Node000012"><a xlink:title=" ">
<path fill="none" stroke="#63b8ff" d="M587.17,-274.2C613.17,-271.29 644.09,-267.96 672,-265.25 817.22,-251.17 1226.3,-271.58 1320,-159.75 1350.34,-123.53 1347.15,-63.85 1342.77,-32.35"/>
<polygon fill="#63b8ff" stroke="#63b8ff" points="1346.24,-31.89 1341.21,-22.57 1339.33,-32.99 1346.24,-31.89"/>
</a>
</g>
</g>
<!-- Node24&#45;&gt;Node13 -->
<g id="edge47_Node000024_Node000013" class="edge">
<title>Node24&#45;&gt;Node13</title>
<g id="a_edge47_Node000024_Node000013"><a xlink:title=" ">
<path fill="none" stroke="#63b8ff" d="M587.47,-271.06C657.7,-259 767.18,-239.05 784,-229.25 811.56,-213.19 833.98,-183.09 846.67,-163.3"/>
<polygon fill="#63b8ff" stroke="#63b8ff" points="849.48,-165.41 851.74,-155.06 843.52,-161.74 849.48,-165.41"/>
</a>
</g>
</g>
<!-- Node24&#45;&gt;Node15 -->
<g id="edge53_Node000024_Node000015" class="edge">
<title>Node24&#45;&gt;Node15</title>
<g id="a_edge53_Node000024_Node000015"><a xlink:title=" ">
<path fill="none" stroke="#63b8ff" d="M587.17,-274.2C613.17,-271.29 644.09,-267.96 672,-265.25 861.12,-246.92 909.64,-254.2 1098,-229.25 1262.55,-207.46 1457.06,-167.77 1534.6,-151.38"/>
<polygon fill="#63b8ff" stroke="#63b8ff" points="1535.06,-154.86 1544.12,-149.36 1533.61,-148.02 1535.06,-154.86"/>
</a>
</g>
</g>
<!-- Node24&#45;&gt;Node20 -->
<g id="edge45_Node000024_Node000020" class="edge">
<title>Node24&#45;&gt;Node20</title>
<g id="a_edge45_Node000024_Node000020"><a xlink:title=" ">
<path fill="none" stroke="#63b8ff" d="M468.84,-264.83C433.38,-255.14 388.09,-242.77 350.88,-232.6"/>
<polygon fill="#63b8ff" stroke="#63b8ff" points="352.14,-229.31 341.57,-230.05 350.29,-236.06 352.14,-229.31"/>
</a>
</g>
</g>
<!-- Node25 -->
<g id="Node000025" class="node">
<title>Node25</title>
<g id="a_Node000025"><a xlink:title=" ">
<polygon fill="#e0e0e0" stroke="#999999" points="459.75,-222.88 400.25,-222.88 400.25,-202.12 459.75,-202.12 459.75,-222.88"/>
<text text-anchor="middle" x="430" y="-209.38" font-family="Helvetica,sans-Serif" font-size="10.00">concepts</text>
</a>
</g>
</g>
<!-- Node24&#45;&gt;Node25 -->
<g id="edge49_Node000024_Node000025" class="edge">
<title>Node24&#45;&gt;Node25</title>
<g id="a_edge49_Node000024_Node000025"><a xlink:title=" ">
<path fill="none" stroke="#63b8ff" d="M504.78,-265C489.36,-254.39 469.19,-240.49 453.68,-229.81"/>
<polygon fill="#63b8ff" stroke="#63b8ff" points="455.73,-226.97 445.51,-224.18 451.76,-232.74 455.73,-226.97"/>
</a>
</g>
</g>
<!-- Node26 -->
<g id="Node000026" class="node">
<title>Node26</title>
<g id="a_Node000026"><a xlink:title=" ">
<polygon fill="#e0e0e0" stroke="#999999" points="526.5,-222.88 477.5,-222.88 477.5,-202.12 526.5,-202.12 526.5,-222.88"/>
<text text-anchor="middle" x="502" y="-209.38" font-family="Helvetica,sans-Serif" font-size="10.00">ranges</text>
</a>
</g>
</g>
<!-- Node24&#45;&gt;Node26 -->
<g id="edge50_Node000024_Node000026" class="edge">
<title>Node24&#45;&gt;Node26</title>
<g id="a_edge50_Node000024_Node000026"><a xlink:title=" ">
<path fill="none" stroke="#63b8ff" d="M521.84,-265C518.26,-255.7 513.7,-243.88 509.86,-233.91"/>
<polygon fill="#63b8ff" stroke="#63b8ff" points="513.19,-232.81 506.33,-224.73 506.66,-235.32 513.19,-232.81"/>
</a>
</g>
</g>
<!-- Node27 -->
<g id="Node000027" class="node">
<title>Node27</title>
<g id="a_Node000027"><a xlink:title=" ">
<polygon fill="#e0e0e0" stroke="#999999" points="617.12,-222.88 544.88,-222.88 544.88,-202.12 617.12,-202.12 617.12,-222.88"/>
<text text-anchor="middle" x="581" y="-209.38" font-family="Helvetica,sans-Serif" font-size="10.00">string_view</text>
</a>
</g>
</g>
<!-- Node24&#45;&gt;Node27 -->
<g id="edge52_Node000024_Node000027" class="edge">
<title>Node24&#45;&gt;Node27</title>
<g id="a_edge52_Node000024_Node000027"><a xlink:title=" ">
<path fill="none" stroke="#63b8ff" d="M540.56,-265C548.26,-255.19 558.16,-242.59 566.23,-232.3"/>
<polygon fill="#63b8ff" stroke="#63b8ff" points="568.93,-234.54 572.35,-224.51 563.42,-230.22 568.93,-234.54"/>
</a>
</g>
</g>
</g>
</svg>
