<?xml version="1.0" encoding="UTF-8" standalone="no"?>
<!DOCTYPE svg PUBLIC "-//W3C//DTD SVG 1.1//EN"
 "http://www.w3.org/Graphics/SVG/1.1/DTD/svg11.dtd">
<!-- Generated by graphviz version 2.43.0 (0)
 -->
<!-- Title: /home/runner/work/phaseField/phaseField/include/prismspf/core/dependency_extents.h Pages: 1 -->
<svg width="1272pt" height="500pt"
 viewBox="0.00 0.00 1272.00 500.00" xmlns="http://www.w3.org/2000/svg" xmlns:xlink="http://www.w3.org/1999/xlink">
<g id="graph0" class="graph" transform="scale(1 1) rotate(0) translate(4 496)">
<title>/home/runner/work/phaseField/phaseField/include/prismspf/core/dependency_extents.h</title>
<!-- Node1 -->
<g id="Node000001" class="node">
<title>Node1</title>
<g id="a_Node000001"><a xlink:title=" ">
<polygon fill="#999999" stroke="#666666" points="660,-492 496,-492 496,-451 660,-451 660,-492"/>
<text text-anchor="start" x="504" y="-480" font-family="Helvetica,sans-Serif" font-size="10.00">/home/runner/work/phaseField</text>
<text text-anchor="start" x="504" y="-469" font-family="Helvetica,sans-Serif" font-size="10.00">/phaseField/include/prismspf</text>
<text text-anchor="middle" x="578" y="-458" font-family="Helvetica,sans-Serif" font-size="10.00">/core/dependency_extents.h</text>
</a>
</g>
</g>
<!-- Node2 -->
<g id="Node000002" class="node">
<title>Node2</title>
<g id="a_Node000002"><a xlink:href="solver__base_8h.html" target="_top" xlink:title=" ">
<polygon fill="white" stroke="#666666" points="660,-415 496,-415 496,-374 660,-374 660,-415"/>
<text text-anchor="start" x="504" y="-403" font-family="Helvetica,sans-Serif" font-size="10.00">/home/runner/work/phaseField</text>
<text text-anchor="start" x="504" y="-392" font-family="Helvetica,sans-Serif" font-size="10.00">/phaseField/include/prismspf</text>
<text text-anchor="middle" x="578" y="-381" font-family="Helvetica,sans-Serif" font-size="10.00">/solvers/solver_base.h</text>
</a>
</g>
</g>
<!-- Node1&#45;&gt;Node2 -->
<g id="edge1_Node000001_Node000002" class="edge">
<title>Node1&#45;&gt;Node2</title>
<g id="a_edge1_Node000001_Node000002"><a xlink:title=" ">
<path fill="none" stroke="#63b8ff" d="M578,-440.69C578,-432.08 578,-422.9 578,-415.07"/>
<polygon fill="#63b8ff" stroke="#63b8ff" points="574.5,-440.79 578,-450.79 581.5,-440.79 574.5,-440.79"/>
</a>
</g>
</g>
<!-- Node3 -->
<g id="Node000003" class="node">
<title>Node3</title>
<g id="a_Node000003"><a xlink:href="refinement__manager_8h.html" target="_top" xlink:title=" ">
<polygon fill="white" stroke="#666666" points="164,-338 0,-338 0,-297 164,-297 164,-338"/>
<text text-anchor="start" x="8" y="-326" font-family="Helvetica,sans-Serif" font-size="10.00">/home/runner/work/phaseField</text>
<text text-anchor="start" x="8" y="-315" font-family="Helvetica,sans-Serif" font-size="10.00">/phaseField/include/prismspf</text>
<text text-anchor="middle" x="82" y="-304" font-family="Helvetica,sans-Serif" font-size="10.00">/core/refinement_manager.h</text>
</a>
</g>
</g>
<!-- Node2&#45;&gt;Node3 -->
<g id="edge2_Node000002_Node000003" class="edge">
<title>Node2&#45;&gt;Node3</title>
<g id="a_edge2_Node000002_Node000003"><a xlink:title=" ">
<path fill="none" stroke="#63b8ff" d="M485.6,-382.34C404.36,-372.14 283.05,-355.94 178,-338 173.47,-337.23 168.83,-336.4 164.16,-335.54"/>
<polygon fill="#63b8ff" stroke="#63b8ff" points="485.44,-385.85 495.8,-383.62 486.31,-378.91 485.44,-385.85"/>
</a>
</g>
</g>
<!-- Node5 -->
<g id="Node000005" class="node">
<title>Node5</title>
<g id="a_Node000005"><a xlink:href="problem_8cc.html" target="_top" xlink:title=" ">
<polygon fill="white" stroke="#666666" points="277,-30 107,-30 107,0 277,0 277,-30"/>
<text text-anchor="start" x="115" y="-18" font-family="Helvetica,sans-Serif" font-size="10.00">/home/runner/work/phaseField</text>
<text text-anchor="middle" x="192" y="-7" font-family="Helvetica,sans-Serif" font-size="10.00">/phaseField/src/core/problem.cc</text>
</a>
</g>
</g>
<!-- Node2&#45;&gt;Node5 -->
<g id="edge25_Node000002_Node000005" class="edge">
<title>Node2&#45;&gt;Node5</title>
<g id="a_edge25_Node000002_Node000005"><a xlink:title=" ">
<path fill="none" stroke="#63b8ff" d="M485.74,-391.21C424.38,-386.21 343.83,-372.75 281,-338 229.95,-309.76 192,-299.84 192,-241.5 192,-241.5 192,-241.5 192,-162.5 192,-113.92 192,-56.28 192,-30.14"/>
<polygon fill="#63b8ff" stroke="#63b8ff" points="485.57,-394.7 495.8,-391.97 486.09,-387.72 485.57,-394.7"/>
</a>
</g>
</g>
<!-- Node6 -->
<g id="Node000006" class="node">
<title>Node6</title>
<g id="a_Node000006"><a xlink:href="constant__solver_8h.html" target="_top" xlink:title=" ">
<polygon fill="white" stroke="#666666" points="384,-184 220,-184 220,-143 384,-143 384,-184"/>
<text text-anchor="start" x="228" y="-172" font-family="Helvetica,sans-Serif" font-size="10.00">/home/runner/work/phaseField</text>
<text text-anchor="start" x="228" y="-161" font-family="Helvetica,sans-Serif" font-size="10.00">/phaseField/include/prismspf</text>
<text text-anchor="middle" x="302" y="-150" font-family="Helvetica,sans-Serif" font-size="10.00">/solvers/constant_solver.h</text>
</a>
</g>
</g>
<!-- Node2&#45;&gt;Node6 -->
<g id="edge5_Node000002_Node000006" class="edge">
<title>Node2&#45;&gt;Node6</title>
<g id="a_edge5_Node000002_Node000006"><a xlink:title=" ">
<path fill="none" stroke="#63b8ff" d="M485.5,-384.67C407.38,-371.71 300.28,-339.77 249,-261 239.06,-245.73 242.22,-236.91 249,-220 254.6,-206.03 265.58,-193.57 276.11,-184.02"/>
<polygon fill="#63b8ff" stroke="#63b8ff" points="485.42,-388.2 495.84,-386.3 486.51,-381.28 485.42,-388.2"/>
</a>
</g>
</g>
<!-- Node9 -->
<g id="Node000009" class="node">
<title>Node9</title>
<g id="a_Node000009"><a xlink:href="explicit__solver_8h.html" target="_top" xlink:title=" ">
<polygon fill="white" stroke="#666666" points="422,-261 258,-261 258,-220 422,-220 422,-261"/>
<text text-anchor="start" x="266" y="-249" font-family="Helvetica,sans-Serif" font-size="10.00">/home/runner/work/phaseField</text>
<text text-anchor="start" x="266" y="-238" font-family="Helvetica,sans-Serif" font-size="10.00">/phaseField/include/prismspf</text>
<text text-anchor="middle" x="340" y="-227" font-family="Helvetica,sans-Serif" font-size="10.00">/solvers/explicit_solver.h</text>
</a>
</g>
</g>
<!-- Node2&#45;&gt;Node9 -->
<g id="edge9_Node000002_Node000009" class="edge">
<title>Node2&#45;&gt;Node9</title>
<g id="a_edge9_Node000002_Node000009"><a xlink:title=" ">
<path fill="none" stroke="#63b8ff" d="M536.52,-368.6C520.92,-359.13 503.08,-348.18 487,-338 445.73,-311.88 398.62,-280.71 369.1,-261.01"/>
<polygon fill="#63b8ff" stroke="#63b8ff" points="535.04,-371.8 545.41,-373.98 538.67,-365.81 535.04,-371.8"/>
</a>
</g>
</g>
<!-- Node10 -->
<g id="Node000010" class="node">
<title>Node10</title>
<g id="a_Node000010"><a xlink:href="linear__helper_8h.html" target="_top" xlink:title=" ">
<polygon fill="white" stroke="#666666" points="1044,-261 880,-261 880,-220 1044,-220 1044,-261"/>
<text text-anchor="start" x="888" y="-249" font-family="Helvetica,sans-Serif" font-size="10.00">/home/runner/work/phaseField</text>
<text text-anchor="start" x="888" y="-238" font-family="Helvetica,sans-Serif" font-size="10.00">/phaseField/include/prismspf</text>
<text text-anchor="middle" x="962" y="-227" font-family="Helvetica,sans-Serif" font-size="10.00">/solvers/linear_helper.h</text>
</a>
</g>
</g>
<!-- Node2&#45;&gt;Node10 -->
<g id="edge11_Node000002_Node000010" class="edge">
<title>Node2&#45;&gt;Node10</title>
<g id="a_edge11_Node000002_Node000010"><a xlink:title=" ">
<path fill="none" stroke="#63b8ff" d="M636.79,-370.23C712.24,-340.36 841.8,-289.08 912.47,-261.11"/>
<polygon fill="#63b8ff" stroke="#63b8ff" points="635.43,-367 627.42,-373.94 638,-373.51 635.43,-367"/>
</a>
</g>
</g>
<!-- Node11 -->
<g id="Node000011" class="node">
<title>Node11</title>
<g id="a_Node000011"><a xlink:href="linear__solver_8h.html" target="_top" xlink:title=" ">
<polygon fill="white" stroke="#666666" points="824,-261 660,-261 660,-220 824,-220 824,-261"/>
<text text-anchor="start" x="668" y="-249" font-family="Helvetica,sans-Serif" font-size="10.00">/home/runner/work/phaseField</text>
<text text-anchor="start" x="668" y="-238" font-family="Helvetica,sans-Serif" font-size="10.00">/phaseField/include/prismspf</text>
<text text-anchor="middle" x="742" y="-227" font-family="Helvetica,sans-Serif" font-size="10.00">/solvers/linear_solver.h</text>
</a>
</g>
</g>
<!-- Node2&#45;&gt;Node11 -->
<g id="edge12_Node000002_Node000011" class="edge">
<title>Node2&#45;&gt;Node11</title>
<g id="a_edge12_Node000002_Node000011"><a xlink:title=" ">
<path fill="none" stroke="#63b8ff" d="M626.29,-368.62C640.82,-359.97 656.27,-349.51 669,-338 694.39,-315.03 717.04,-282.19 730.15,-261.36"/>
<polygon fill="#63b8ff" stroke="#63b8ff" points="624.3,-365.73 617.4,-373.77 627.81,-371.79 624.3,-365.73"/>
</a>
</g>
</g>
<!-- Node13 -->
<g id="Node000013" class="node">
<title>Node13</title>
<g id="a_Node000013"><a xlink:href="newton__solver_8h.html" target="_top" xlink:title=" ">
<polygon fill="white" stroke="#666666" points="879,-184 715,-184 715,-143 879,-143 879,-184"/>
<text text-anchor="start" x="723" y="-172" font-family="Helvetica,sans-Serif" font-size="10.00">/home/runner/work/phaseField</text>
<text text-anchor="start" x="723" y="-161" font-family="Helvetica,sans-Serif" font-size="10.00">/phaseField/include/prismspf</text>
<text text-anchor="middle" x="797" y="-150" font-family="Helvetica,sans-Serif" font-size="10.00">/solvers/newton_solver.h</text>
</a>
</g>
</g>
<!-- Node2&#45;&gt;Node13 -->
<g id="edge24_Node000002_Node000013" class="edge">
<title>Node2&#45;&gt;Node13</title>
<g id="a_edge24_Node000002_Node000013"><a xlink:title=" ">
<path fill="none" stroke="#63b8ff" d="M670.02,-381.13C794.7,-362.27 1007.05,-321.94 1053,-261 1101.89,-196.15 971.25,-174.88 879.1,-167.9"/>
<polygon fill="#63b8ff" stroke="#63b8ff" points="669.46,-377.68 660.09,-382.62 670.5,-384.6 669.46,-377.68"/>
</a>
</g>
</g>
<!-- Node14 -->
<g id="Node000014" class="node">
<title>Node14</title>
<g id="a_Node000014"><a xlink:href="mf__operator_8h.html" target="_top" xlink:title=" ">
<polygon fill="white" stroke="#666666" points="660,-338 496,-338 496,-297 660,-297 660,-338"/>
<text text-anchor="start" x="504" y="-326" font-family="Helvetica,sans-Serif" font-size="10.00">/home/runner/work/phaseField</text>
<text text-anchor="start" x="504" y="-315" font-family="Helvetica,sans-Serif" font-size="10.00">/phaseField/include/prismspf</text>
<text text-anchor="middle" x="578" y="-304" font-family="Helvetica,sans-Serif" font-size="10.00">/solvers/mf_operator.h</text>
</a>
</g>
</g>
<!-- Node2&#45;&gt;Node14 -->
<g id="edge17_Node000002_Node000014" class="edge">
<title>Node2&#45;&gt;Node14</title>
<g id="a_edge17_Node000002_Node000014"><a xlink:title=" ">
<path fill="none" stroke="#63b8ff" d="M578,-363.69C578,-355.08 578,-345.9 578,-338.07"/>
<polygon fill="#63b8ff" stroke="#63b8ff" points="574.5,-363.79 578,-373.79 581.5,-363.79 574.5,-363.79"/>
</a>
</g>
</g>
<!-- Node16 -->
<g id="Node000016" class="node">
<title>Node16</title>
<g id="a_Node000016"><a xlink:href="solver__base_8cc.html" target="_top" xlink:title=" ">
<polygon fill="white" stroke="#666666" points="1264,-338 1100,-338 1100,-297 1264,-297 1264,-338"/>
<text text-anchor="start" x="1108" y="-326" font-family="Helvetica,sans-Serif" font-size="10.00">/home/runner/work/phaseField</text>
<text text-anchor="start" x="1108" y="-315" font-family="Helvetica,sans-Serif" font-size="10.00">/phaseField/src/solvers/solver</text>
<text text-anchor="middle" x="1182" y="-304" font-family="Helvetica,sans-Serif" font-size="10.00">_base.cc</text>
</a>
</g>
</g>
<!-- Node2&#45;&gt;Node16 -->
<g id="edge26_Node000002_Node000016" class="edge">
<title>Node2&#45;&gt;Node16</title>
<g id="a_edge26_Node000002_Node000016"><a xlink:title=" ">
<path fill="none" stroke="#63b8ff" d="M670.1,-385.99C772.12,-377.08 941.35,-360.54 1086,-338 1090.54,-337.29 1095.19,-336.52 1099.87,-335.7"/>
<polygon fill="#63b8ff" stroke="#63b8ff" points="669.79,-382.51 660.13,-386.86 670.39,-389.48 669.79,-382.51"/>
</a>
</g>
</g>
<!-- Node4 -->
<g id="Node000004" class="node">
<title>Node4</title>
<g id="a_Node000004"><a xlink:href="problem_8h.html" target="_top" xlink:title=" ">
<polygon fill="white" stroke="#666666" points="164,-107 0,-107 0,-66 164,-66 164,-107"/>
<text text-anchor="start" x="8" y="-95" font-family="Helvetica,sans-Serif" font-size="10.00">/home/runner/work/phaseField</text>
<text text-anchor="start" x="8" y="-84" font-family="Helvetica,sans-Serif" font-size="10.00">/phaseField/include/prismspf</text>
<text text-anchor="middle" x="82" y="-73" font-family="Helvetica,sans-Serif" font-size="10.00">/core/problem.h</text>
</a>
</g>
</g>
<!-- Node3&#45;&gt;Node4 -->
<g id="edge3_Node000003_Node000004" class="edge">
<title>Node3&#45;&gt;Node4</title>
<g id="a_edge3_Node000003_Node000004"><a xlink:title=" ">
<path fill="none" stroke="#63b8ff" d="M82,-286.73C82,-239.23 82,-147.57 82,-107.3"/>
<polygon fill="#63b8ff" stroke="#63b8ff" points="78.5,-286.98 82,-296.98 85.5,-286.98 78.5,-286.98"/>
</a>
</g>
</g>
<!-- Node4&#45;&gt;Node5 -->
<g id="edge4_Node000004_Node000005" class="edge">
<title>Node4&#45;&gt;Node5</title>
<g id="a_edge4_Node000004_Node000005"><a xlink:title=" ">
<path fill="none" stroke="#63b8ff" d="M121.67,-60.44C137.82,-50.23 155.89,-38.82 169.66,-30.11"/>
<polygon fill="#63b8ff" stroke="#63b8ff" points="119.52,-57.66 112.93,-65.96 123.26,-63.57 119.52,-57.66"/>
</a>
</g>
</g>
<!-- Node7 -->
<g id="Node000007" class="node">
<title>Node7</title>
<g id="a_Node000007"><a xlink:href="solvers_8h.html" target="_top" xlink:title=" ">
<polygon fill="white" stroke="#666666" points="494,-107 330,-107 330,-66 494,-66 494,-107"/>
<text text-anchor="start" x="338" y="-95" font-family="Helvetica,sans-Serif" font-size="10.00">/home/runner/work/phaseField</text>
<text text-anchor="start" x="338" y="-84" font-family="Helvetica,sans-Serif" font-size="10.00">/phaseField/include/prismspf</text>
<text text-anchor="middle" x="412" y="-73" font-family="Helvetica,sans-Serif" font-size="10.00">/solvers/solvers.h</text>
</a>
</g>
</g>
<!-- Node6&#45;&gt;Node7 -->
<g id="edge6_Node000006_Node000007" class="edge">
<title>Node6&#45;&gt;Node7</title>
<g id="a_edge6_Node000006_Node000007"><a xlink:title=" ">
<path fill="none" stroke="#63b8ff" d="M339.26,-137.09C353.6,-127.32 369.72,-116.32 383.15,-107.17"/>
<polygon fill="#63b8ff" stroke="#63b8ff" points="336.9,-134.47 330.61,-142.99 340.85,-140.25 336.9,-134.47"/>
</a>
</g>
</g>
<!-- Node7&#45;&gt;Node5 -->
<g id="edge7_Node000007_Node000005" class="edge">
<title>Node7&#45;&gt;Node5</title>
<g id="a_edge7_Node000007_Node000005"><a xlink:title=" ">
<path fill="none" stroke="#63b8ff" d="M340.17,-62.81C305.94,-52 266.08,-39.4 236.33,-30"/>
<polygon fill="#63b8ff" stroke="#63b8ff" points="339.54,-66.28 350.13,-65.96 341.65,-59.61 339.54,-66.28"/>
</a>
</g>
</g>
<!-- Node8 -->
<g id="Node000008" class="node">
<title>Node8</title>
<g id="a_Node000008"><a xlink:href="solvers_8cc.html" target="_top" xlink:title=" ">
<polygon fill="white" stroke="#666666" points="501.5,-30 322.5,-30 322.5,0 501.5,0 501.5,-30"/>
<text text-anchor="start" x="330.5" y="-18" font-family="Helvetica,sans-Serif" font-size="10.00">/home/runner/work/phaseField</text>
<text text-anchor="middle" x="412" y="-7" font-family="Helvetica,sans-Serif" font-size="10.00">/phaseField/src/solvers/solvers.cc</text>
</a>
</g>
</g>
<!-- Node7&#45;&gt;Node8 -->
<g id="edge8_Node000007_Node000008" class="edge">
<title>Node7&#45;&gt;Node8</title>
<g id="a_edge8_Node000007_Node000008"><a xlink:title=" ">
<path fill="none" stroke="#63b8ff" d="M412,-55.66C412,-46.76 412,-37.42 412,-30.04"/>
<polygon fill="#63b8ff" stroke="#63b8ff" points="408.5,-55.77 412,-65.77 415.5,-55.77 408.5,-55.77"/>
</a>
</g>
</g>
<!-- Node9&#45;&gt;Node7 -->
<g id="edge10_Node000009_Node000007" class="edge">
<title>Node9&#45;&gt;Node7</title>
<g id="a_edge10_Node000009_Node000007"><a xlink:title=" ">
<path fill="none" stroke="#63b8ff" d="M371.28,-212.88C379.48,-204.43 387.54,-194.52 393,-184 405.73,-159.44 409.96,-127.32 411.35,-107.04"/>
<polygon fill="#63b8ff" stroke="#63b8ff" points="368.8,-210.42 364.1,-219.92 373.7,-215.42 368.8,-210.42"/>
</a>
</g>
</g>
<!-- Node11&#45;&gt;Node7 -->
<g id="edge16_Node000011_Node000007" class="edge">
<title>Node11&#45;&gt;Node7</title>
<g id="a_edge16_Node000011_Node000007"><a xlink:title=" ">
<path fill="none" stroke="#63b8ff" d="M716.79,-212.5C694.99,-190.7 661.62,-160.82 627,-143 585.7,-121.74 535.64,-108.2 494.22,-99.82"/>
<polygon fill="#63b8ff" stroke="#63b8ff" points="714.49,-215.16 724,-219.84 719.49,-210.26 714.49,-215.16"/>
</a>
</g>
</g>
<!-- Node12 -->
<g id="Node000012" class="node">
<title>Node12</title>
<g id="a_Node000012"><a xlink:href="mg__solver_8h.html" target="_top" xlink:title=" ">
<polygon fill="white" stroke="#666666" points="618,-184 454,-184 454,-143 618,-143 618,-184"/>
<text text-anchor="start" x="462" y="-172" font-family="Helvetica,sans-Serif" font-size="10.00">/home/runner/work/phaseField</text>
<text text-anchor="start" x="462" y="-161" font-family="Helvetica,sans-Serif" font-size="10.00">/phaseField/include/prismspf</text>
<text text-anchor="middle" x="536" y="-150" font-family="Helvetica,sans-Serif" font-size="10.00">/solvers/mg_solver.h</text>
</a>
</g>
</g>
<!-- Node11&#45;&gt;Node12 -->
<g id="edge13_Node000011_Node000012" class="edge">
<title>Node11&#45;&gt;Node12</title>
<g id="a_edge13_Node000011_Node000012"><a xlink:title=" ">
<path fill="none" stroke="#63b8ff" d="M678.93,-216.54C650.39,-206.15 617,-193.99 589.68,-184.04"/>
<polygon fill="#63b8ff" stroke="#63b8ff" points="677.82,-219.86 688.41,-219.99 680.21,-213.28 677.82,-219.86"/>
</a>
</g>
</g>
<!-- Node11&#45;&gt;Node13 -->
<g id="edge14_Node000011_Node000013" class="edge">
<title>Node11&#45;&gt;Node13</title>
<g id="a_edge14_Node000011_Node000013"><a xlink:title=" ">
<path fill="none" stroke="#63b8ff" d="M762.41,-211.67C769.13,-202.5 776.47,-192.5 782.65,-184.07"/>
<polygon fill="#63b8ff" stroke="#63b8ff" points="759.54,-209.66 756.45,-219.79 765.19,-213.8 759.54,-209.66"/>
</a>
</g>
</g>
<!-- Node13&#45;&gt;Node7 -->
<g id="edge15_Node000013_Node000007" class="edge">
<title>Node13&#45;&gt;Node7</title>
<g id="a_edge15_Node000013_Node000007"><a xlink:title=" ">
<path fill="none" stroke="#63b8ff" d="M704.78,-144.54C640.72,-132.06 556.11,-115.57 494.33,-103.54"/>
<polygon fill="#63b8ff" stroke="#63b8ff" points="704.4,-148.03 714.88,-146.5 705.73,-141.16 704.4,-148.03"/>
</a>
</g>
</g>
<!-- Node14&#45;&gt;Node9 -->
<g id="edge18_Node000014_Node000009" class="edge">
<title>Node14&#45;&gt;Node9</title>
<g id="a_edge18_Node000014_Node000009"><a xlink:title=" ">
<path fill="none" stroke="#63b8ff" d="M506.43,-293.94C473.16,-283.46 433.99,-271.12 402.01,-261.04"/>
<polygon fill="#63b8ff" stroke="#63b8ff" points="505.5,-297.32 516.09,-296.99 507.6,-290.65 505.5,-297.32"/>
</a>
</g>
</g>
<!-- Node14&#45;&gt;Node10 -->
<g id="edge19_Node000014_Node000010" class="edge">
<title>Node14&#45;&gt;Node10</title>
<g id="a_edge19_Node000014_Node000010"><a xlink:title=" ">
<path fill="none" stroke="#63b8ff" d="M670.28,-298.96C726.81,-288.16 800.62,-273.94 866,-261 870.5,-260.11 875.13,-259.19 879.79,-258.25"/>
<polygon fill="#63b8ff" stroke="#63b8ff" points="669.45,-295.56 660.29,-300.87 670.77,-302.43 669.45,-295.56"/>
</a>
</g>
</g>
<!-- Node14&#45;&gt;Node11 -->
<g id="edge20_Node000014_Node000011" class="edge">
<title>Node14&#45;&gt;Node11</title>
<g id="a_edge20_Node000014_Node000011"><a xlink:title=" ">
<path fill="none" stroke="#63b8ff" d="M629.99,-292.72C652.32,-282.51 678.08,-270.73 699.27,-261.04"/>
<polygon fill="#63b8ff" stroke="#63b8ff" points="628.3,-289.65 620.66,-296.99 631.21,-296.01 628.3,-289.65"/>
</a>
</g>
</g>
<!-- Node14&#45;&gt;Node12 -->
<g id="edge21_Node000014_Node000012" class="edge">
<title>Node14&#45;&gt;Node12</title>
<g id="a_edge21_Node000014_Node000012"><a xlink:title=" ">
<path fill="none" stroke="#63b8ff" d="M502.73,-292.1C489.31,-284.3 477.06,-274.14 469,-261 459.48,-245.46 461.25,-236.49 469,-220 475.88,-205.37 488.71,-193.28 501.32,-184.15"/>
<polygon fill="#63b8ff" stroke="#63b8ff" points="501.22,-295.26 511.69,-296.89 504.52,-289.09 501.22,-295.26"/>
</a>
</g>
</g>
<!-- Node14&#45;&gt;Node13 -->
<g id="edge22_Node000014_Node000013" class="edge">
<title>Node14&#45;&gt;Node13</title>
<g id="a_edge22_Node000014_Node000013"><a xlink:title=" ">
<path fill="none" stroke="#63b8ff" d="M670.23,-308.48C734.62,-300.75 812.56,-286.37 833,-261 851.4,-238.17 831.45,-204.98 814.74,-184.08"/>
<polygon fill="#63b8ff" stroke="#63b8ff" points="669.55,-305.04 660.02,-309.67 670.35,-311.99 669.55,-305.04"/>
</a>
</g>
</g>
<!-- Node15 -->
<g id="Node000015" class="node">
<title>Node15</title>
<g id="a_Node000015"><a xlink:href="mf__operator_8cc.html" target="_top" xlink:title=" ">
<polygon fill="white" stroke="#666666" points="642,-261 478,-261 478,-220 642,-220 642,-261"/>
<text text-anchor="start" x="486" y="-249" font-family="Helvetica,sans-Serif" font-size="10.00">/home/runner/work/phaseField</text>
<text text-anchor="start" x="486" y="-238" font-family="Helvetica,sans-Serif" font-size="10.00">/phaseField/src/solvers/mf</text>
<text text-anchor="middle" x="560" y="-227" font-family="Helvetica,sans-Serif" font-size="10.00">_operator.cc</text>
</a>
</g>
</g>
<!-- Node14&#45;&gt;Node15 -->
<g id="edge23_Node000014_Node000015" class="edge">
<title>Node14&#45;&gt;Node15</title>
<g id="a_edge23_Node000014_Node000015"><a xlink:title=" ">
<path fill="none" stroke="#63b8ff" d="M570.91,-286.98C568.83,-278.28 566.6,-268.98 564.7,-261.07"/>
<polygon fill="#63b8ff" stroke="#63b8ff" points="567.53,-287.89 573.27,-296.79 574.34,-286.25 567.53,-287.89"/>
</a>
</g>
</g>
</g>
</svg>
