<?xml version="1.0" encoding="UTF-8" standalone="no"?>
<!DOCTYPE svg PUBLIC "-//W3C//DTD SVG 1.1//EN"
 "http://www.w3.org/Graphics/SVG/1.1/DTD/svg11.dtd">
<!-- Generated by graphviz version 12.2.1 (20241206.2353)
 -->
<!-- Title: include/prismspf Pages: 1 -->
<svg width="264pt" height="325pt"
 viewBox="0.00 0.00 264.00 324.50" xmlns="http://www.w3.org/2000/svg" xmlns:xlink="http://www.w3.org/1999/xlink">
<g id="graph0" class="graph" transform="scale(1 1) rotate(0) translate(4 320.5)">
<title>include/prismspf</title>
<g id="clust1" class="cluster">
<title>clusterdir_d44c64559bbebec7f509842c48db8b23</title>
<g id="a_clust1"><a xlink:href="dir_d44c64559bbebec7f509842c48db8b23.html" target="_top" xlink:title="include">
<polygon fill="#daedff" stroke="#404040" stroke-dasharray="5,2" points="8,-8 8,-308.5 248,-308.5 248,-8 8,-8"/>
<text text-anchor="middle" x="128" y="-295" font-family="Helvetica,sans-Serif" font-size="10.00">include</text>
</a>
</g>
</g>
<g id="clust2" class="cluster">
<title>clusterdir_d7097b21af907bf9dd39f88b5093fe19</title>
<g id="a_clust2"><a xlink:href="dir_d7097b21af907bf9dd39f88b5093fe19.html" target="_top">
<polygon fill="#daedff" stroke="#404040" stroke-width="2" points="16,-16 16,-279.75 240,-279.75 240,-16 16,-16"/>
</a>
</g>
</g>
<!-- dir_d7097b21af907bf9dd39f88b5093fe19 -->
<g id="node1" class="node">
<title>dir_d7097b21af907bf9dd39f88b5093fe19</title>
<text text-anchor="middle" x="53" y="-258.25" font-family="Helvetica,sans-Serif" font-size="10.00">prismspf</text>
</g>
<!-- dir_72d2fbe96e504e5d9d70c5885bd9c513 -->
<g id="node2" class="node">
<title>dir_72d2fbe96e504e5d9d70c5885bd9c513</title>
<g id="a_node2"><a xlink:href="dir_72d2fbe96e504e5d9d70c5885bd9c513.html" target="_top" xlink:title="core">
<polygon fill="#4ea9ff" stroke="#404040" points="152.5,-215 115.5,-215 115.5,-194.25 152.5,-194.25 152.5,-215"/>
<text text-anchor="middle" x="134" y="-201.5" font-family="Helvetica,sans-Serif" font-size="10.00">core</text>
</a>
</g>
</g>
<!-- dir_cce3571c19e1460ab7bfdfaca6a2c71d -->
<g id="node5" class="node">
<title>dir_cce3571c19e1460ab7bfdfaca6a2c71d</title>
<g id="a_node5"><a xlink:href="dir_cce3571c19e1460ab7bfdfaca6a2c71d.html" target="_top" xlink:title="nucleation">
<polygon fill="#4ea9ff" stroke="#404040" points="169.5,-158.25 102.5,-158.25 102.5,-137.5 169.5,-137.5 169.5,-158.25"/>
<text text-anchor="middle" x="136" y="-144.75" font-family="Helvetica,sans-Serif" font-size="10.00">nucleation</text>
</a>
</g>
</g>
<!-- dir_72d2fbe96e504e5d9d70c5885bd9c513&#45;&gt;dir_cce3571c19e1460ab7bfdfaca6a2c71d -->
<g id="edge3" class="edge">
<title>dir_72d2fbe96e504e5d9d70c5885bd9c513&#45;&gt;dir_cce3571c19e1460ab7bfdfaca6a2c71d</title>
<g id="a_edge3"><a xlink:href="dir_000001_000010.html" target="_top">
<path fill="none" stroke="#63b8ff" d="M129.04,-193.84C128,-187.14 127.91,-178.01 128.66,-169.73"/>
<polygon fill="#63b8ff" stroke="#63b8ff" points="132.09,-170.49 130.12,-160.08 125.17,-169.44 132.09,-170.49"/>
</a>
</g>
<g id="a_edge3&#45;headlabel"><a xlink:href="dir_000001_000010.html" target="_top" xlink:title="3">
<text text-anchor="middle" x="134.58" y="-169.84" font-family="Helvetica,sans-Serif" font-size="10.00" fill="#63b8ff">3</text>
</a>
</g>
</g>
<!-- dir_1b89f3ef2cea2c4e7a7e310b8e37f1bd -->
<g id="node6" class="node">
<title>dir_1b89f3ef2cea2c4e7a7e310b8e37f1bd</title>
<g id="a_node6"><a xlink:href="dir_1b89f3ef2cea2c4e7a7e310b8e37f1bd.html" target="_top" xlink:title="solvers">
<polygon fill="#4ea9ff" stroke="#404040" points="208.62,-101.5 157.38,-101.5 157.38,-80.75 208.62,-80.75 208.62,-101.5"/>
<text text-anchor="middle" x="183" y="-88" font-family="Helvetica,sans-Serif" font-size="10.00">solvers</text>
</a>
</g>
</g>
<!-- dir_72d2fbe96e504e5d9d70c5885bd9c513&#45;&gt;dir_1b89f3ef2cea2c4e7a7e310b8e37f1bd -->
<g id="edge1" class="edge">
<title>dir_72d2fbe96e504e5d9d70c5885bd9c513&#45;&gt;dir_1b89f3ef2cea2c4e7a7e310b8e37f1bd</title>
<g id="a_edge1"><a xlink:href="dir_000001_000012.html" target="_top">
<path fill="none" stroke="#63b8ff" d="M140.79,-193.88C149.68,-185.71 163.38,-173.03 170,-158.25 176.34,-144.09 177.11,-126.49 177.73,-113.01"/>
<polygon fill="#63b8ff" stroke="#63b8ff" points="181.22,-113.31 178.37,-103.11 174.24,-112.86 181.22,-113.31"/>
</a>
</g>
<g id="a_edge1&#45;headlabel"><a xlink:href="dir_000001_000012.html" target="_top" xlink:title="4">
<text text-anchor="middle" x="183.92" y="-112.44" font-family="Helvetica,sans-Serif" font-size="10.00" fill="#63b8ff">4</text>
</a>
</g>
</g>
<!-- dir_8e29679e8d9320f4689771ebd9c97198 -->
<g id="node7" class="node">
<title>dir_8e29679e8d9320f4689771ebd9c97198</title>
<g id="a_node7"><a xlink:href="dir_8e29679e8d9320f4689771ebd9c97198.html" target="_top" xlink:title="user_inputs">
<polygon fill="#4ea9ff" stroke="#404040" points="151.12,-44.75 78.88,-44.75 78.88,-24 151.12,-24 151.12,-44.75"/>
<text text-anchor="middle" x="115" y="-31.25" font-family="Helvetica,sans-Serif" font-size="10.00">user_inputs</text>
</a>
</g>
</g>
<!-- dir_72d2fbe96e504e5d9d70c5885bd9c513&#45;&gt;dir_8e29679e8d9320f4689771ebd9c97198 -->
<g id="edge2" class="edge">
<title>dir_72d2fbe96e504e5d9d70c5885bd9c513&#45;&gt;dir_8e29679e8d9320f4689771ebd9c97198</title>
<g id="a_edge2"><a xlink:href="dir_000001_000016.html" target="_top">
<path fill="none" stroke="#63b8ff" d="M115.17,-194.52C102.73,-185.99 87.49,-172.46 77,-158.25 60.3,-135.62 55.39,-128.89 49,-101.5 46.9,-92.52 45,-89.06 49,-80.75 54.96,-68.38 66.13,-58.34 77.69,-50.88"/>
<polygon fill="#63b8ff" stroke="#63b8ff" points="79.21,-54.04 86.08,-45.98 75.68,-48 79.21,-54.04"/>
</a>
</g>
<g id="a_edge2&#45;headlabel"><a xlink:href="dir_000001_000016.html" target="_top" xlink:title="8">
<text text-anchor="middle" x="78.84" y="-54.42" font-family="Helvetica,sans-Serif" font-size="10.00" fill="#63b8ff">8</text>
</a>
</g>
</g>
<!-- dir_db21045c204ec69458cba4d9d7ba76a8 -->
<g id="node8" class="node">
<title>dir_db21045c204ec69458cba4d9d7ba76a8</title>
<g id="a_node8"><a xlink:href="dir_db21045c204ec69458cba4d9d7ba76a8.html" target="_top" xlink:title="utilities">
<polygon fill="#4ea9ff" stroke="#404040" points="119.38,-101.5 66.62,-101.5 66.62,-80.75 119.38,-80.75 119.38,-101.5"/>
<text text-anchor="middle" x="93" y="-88" font-family="Helvetica,sans-Serif" font-size="10.00">utilities</text>
</a>
</g>
</g>
<!-- dir_72d2fbe96e504e5d9d70c5885bd9c513&#45;&gt;dir_db21045c204ec69458cba4d9d7ba76a8 -->
<g id="edge4" class="edge">
<title>dir_72d2fbe96e504e5d9d70c5885bd9c513&#45;&gt;dir_db21045c204ec69458cba4d9d7ba76a8</title>
<g id="a_edge4"><a xlink:href="dir_000001_000018.html" target="_top">
<path fill="none" stroke="#63b8ff" d="M115.29,-194.62C103.78,-186.34 90.75,-173.14 85,-158.25 79.42,-143.82 79.44,-126.26 82.02,-112.86"/>
<polygon fill="#63b8ff" stroke="#63b8ff" points="85.35,-113.97 84.62,-103.4 78.6,-112.11 85.35,-113.97"/>
</a>
</g>
<g id="a_edge4&#45;headlabel"><a xlink:href="dir_000001_000018.html" target="_top" xlink:title="1">
<text text-anchor="middle" x="87.53" y="-113.6" font-family="Helvetica,sans-Serif" font-size="10.00" fill="#63b8ff">1</text>
</a>
</g>
</g>
<!-- dir_bc5d835c988615d2fc1ba7c872f30ae9 -->
<g id="node3" class="node">
<title>dir_bc5d835c988615d2fc1ba7c872f30ae9</title>
<g id="a_node3"><a xlink:href="dir_bc5d835c988615d2fc1ba7c872f30ae9.html" target="_top" xlink:title="field_input">
<polygon fill="#4ea9ff" stroke="#404040" points="167.5,-271.75 100.5,-271.75 100.5,-251 167.5,-251 167.5,-271.75"/>
<text text-anchor="middle" x="134" y="-258.25" font-family="Helvetica,sans-Serif" font-size="10.00">field_input</text>
</a>
</g>
</g>
<!-- dir_bc5d835c988615d2fc1ba7c872f30ae9&#45;&gt;dir_72d2fbe96e504e5d9d70c5885bd9c513 -->
<g id="edge5" class="edge">
<title>dir_bc5d835c988615d2fc1ba7c872f30ae9&#45;&gt;dir_72d2fbe96e504e5d9d70c5885bd9c513</title>
<g id="a_edge5"><a xlink:href="dir_000005_000001.html" target="_top">
<path fill="none" stroke="#63b8ff" d="M134,-250.59C134,-243.97 134,-234.97 134,-226.77"/>
<polygon fill="#63b8ff" stroke="#63b8ff" points="137.5,-226.84 134,-216.84 130.5,-226.84 137.5,-226.84"/>
</a>
</g>
<g id="a_edge5&#45;headlabel"><a xlink:href="dir_000005_000001.html" target="_top" xlink:title="4">
<text text-anchor="middle" x="140.34" y="-225.8" font-family="Helvetica,sans-Serif" font-size="10.00" fill="#63b8ff">4</text>
</a>
</g>
</g>
<!-- dir_bc5d835c988615d2fc1ba7c872f30ae9&#45;&gt;dir_8e29679e8d9320f4689771ebd9c97198 -->
<g id="edge6" class="edge">
<title>dir_bc5d835c988615d2fc1ba7c872f30ae9&#45;&gt;dir_8e29679e8d9320f4689771ebd9c97198</title>
<g id="a_edge6"><a xlink:href="dir_000005_000016.html" target="_top">
<path fill="none" stroke="#63b8ff" d="M145.43,-250.53C176.44,-222.6 257.31,-141.02 218,-80.75 205.6,-61.74 183.26,-50.64 162.54,-44.19"/>
<polygon fill="#63b8ff" stroke="#63b8ff" points="163.63,-40.86 153.06,-41.54 161.75,-47.6 163.63,-40.86"/>
</a>
</g>
<g id="a_edge6&#45;headlabel"><a xlink:href="dir_000005_000016.html" target="_top" xlink:title="4">
<text text-anchor="middle" x="166.39" y="-35.56" font-family="Helvetica,sans-Serif" font-size="10.00" fill="#63b8ff">4</text>
</a>
</g>
</g>
<!-- dir_bc5d835c988615d2fc1ba7c872f30ae9&#45;&gt;dir_db21045c204ec69458cba4d9d7ba76a8 -->
<g id="edge7" class="edge">
<title>dir_bc5d835c988615d2fc1ba7c872f30ae9&#45;&gt;dir_db21045c204ec69458cba4d9d7ba76a8</title>
<g id="a_edge7"><a xlink:href="dir_000005_000018.html" target="_top">
<path fill="none" stroke="#63b8ff" d="M127.2,-250.54C115.58,-232.99 92.53,-194.7 86,-158.25 83.29,-143.09 85.3,-125.78 87.85,-112.67"/>
<polygon fill="#63b8ff" stroke="#63b8ff" points="91.23,-113.6 90,-103.08 84.4,-112.07 91.23,-113.6"/>
</a>
</g>
<g id="a_edge7&#45;headlabel"><a xlink:href="dir_000005_000018.html" target="_top" xlink:title="3">
<text text-anchor="middle" x="93.55" y="-113.13" font-family="Helvetica,sans-Serif" font-size="10.00" fill="#63b8ff">3</text>
</a>
</g>
</g>
<!-- dir_bf5fb59c6751b7e03ce123ab2d1984b4 -->
<g id="node4" class="node">
<title>dir_bf5fb59c6751b7e03ce123ab2d1984b4</title>
<g id="a_node4"><a xlink:href="dir_bf5fb59c6751b7e03ce123ab2d1984b4.html" target="_top" xlink:title="grains">
<polygon fill="#4ea9ff" stroke="#404040" points="232,-271.75 186,-271.75 186,-251 232,-251 232,-271.75"/>
<text text-anchor="middle" x="209" y="-258.25" font-family="Helvetica,sans-Serif" font-size="10.00">grains</text>
</a>
</g>
</g>
<!-- dir_cce3571c19e1460ab7bfdfaca6a2c71d&#45;&gt;dir_72d2fbe96e504e5d9d70c5885bd9c513 -->
<g id="edge9" class="edge">
<title>dir_cce3571c19e1460ab7bfdfaca6a2c71d&#45;&gt;dir_72d2fbe96e504e5d9d70c5885bd9c513</title>
<g id="a_edge9"><a xlink:href="dir_000010_000001.html" target="_top">
<path fill="none" stroke="#63b8ff" d="M140.95,-158.58C142,-165.25 142.09,-174.38 141.35,-182.67"/>
<polygon fill="#63b8ff" stroke="#63b8ff" points="137.92,-181.93 139.9,-192.34 144.84,-182.97 137.92,-181.93"/>
</a>
</g>
<g id="a_edge9&#45;headlabel"><a xlink:href="dir_000010_000001.html" target="_top" xlink:title="8">
<text text-anchor="middle" x="135.42" y="-176.33" font-family="Helvetica,sans-Serif" font-size="10.00" fill="#63b8ff">8</text>
</a>
</g>
</g>
<!-- dir_cce3571c19e1460ab7bfdfaca6a2c71d&#45;&gt;dir_1b89f3ef2cea2c4e7a7e310b8e37f1bd -->
<g id="edge8" class="edge">
<title>dir_cce3571c19e1460ab7bfdfaca6a2c71d&#45;&gt;dir_1b89f3ef2cea2c4e7a7e310b8e37f1bd</title>
<g id="a_edge8"><a xlink:href="dir_000010_000012.html" target="_top">
<path fill="none" stroke="#63b8ff" d="M144.4,-137.09C150.75,-129.69 159.65,-119.32 167.3,-110.41"/>
<polygon fill="#63b8ff" stroke="#63b8ff" points="169.83,-112.84 173.68,-102.98 164.51,-108.28 169.83,-112.84"/>
</a>
</g>
<g id="a_edge8&#45;headlabel"><a xlink:href="dir_000010_000012.html" target="_top" xlink:title="1">
<text text-anchor="middle" x="170.63" y="-113.15" font-family="Helvetica,sans-Serif" font-size="10.00" fill="#63b8ff">1</text>
</a>
</g>
</g>
<!-- dir_cce3571c19e1460ab7bfdfaca6a2c71d&#45;&gt;dir_8e29679e8d9320f4689771ebd9c97198 -->
<g id="edge10" class="edge">
<title>dir_cce3571c19e1460ab7bfdfaca6a2c71d&#45;&gt;dir_8e29679e8d9320f4689771ebd9c97198</title>
<g id="a_edge10"><a xlink:href="dir_000010_000016.html" target="_top">
<path fill="none" stroke="#63b8ff" d="M129.25,-137.38C125.3,-124.47 123.04,-100.7 119,-80.75 117.36,-72.63 114.98,-63.84 113.27,-56.18"/>
<polygon fill="#63b8ff" stroke="#63b8ff" points="116.74,-55.72 111.54,-46.49 109.85,-56.95 116.74,-55.72"/>
</a>
</g>
<g id="a_edge10&#45;headlabel"><a xlink:href="dir_000010_000016.html" target="_top" xlink:title="6">
<text text-anchor="middle" x="119.9" y="-54.15" font-family="Helvetica,sans-Serif" font-size="10.00" fill="#63b8ff">6</text>
</a>
</g>
</g>
<!-- dir_cce3571c19e1460ab7bfdfaca6a2c71d&#45;&gt;dir_db21045c204ec69458cba4d9d7ba76a8 -->
<g id="edge11" class="edge">
<title>dir_cce3571c19e1460ab7bfdfaca6a2c71d&#45;&gt;dir_db21045c204ec69458cba4d9d7ba76a8</title>
<g id="a_edge11"><a xlink:href="dir_000010_000018.html" target="_top">
<path fill="none" stroke="#63b8ff" d="M128.31,-137.09C122.56,-129.77 114.53,-119.54 107.58,-110.69"/>
<polygon fill="#63b8ff" stroke="#63b8ff" points="110.49,-108.72 101.56,-103.02 104.98,-113.05 110.49,-108.72"/>
</a>
</g>
<g id="a_edge11&#45;headlabel"><a xlink:href="dir_000010_000018.html" target="_top" xlink:title="1">
<text text-anchor="middle" x="114" y="-105.48" font-family="Helvetica,sans-Serif" font-size="10.00" fill="#63b8ff">1</text>
</a>
</g>
</g>
<!-- dir_1b89f3ef2cea2c4e7a7e310b8e37f1bd&#45;&gt;dir_72d2fbe96e504e5d9d70c5885bd9c513 -->
<g id="edge12" class="edge">
<title>dir_1b89f3ef2cea2c4e7a7e310b8e37f1bd&#45;&gt;dir_72d2fbe96e504e5d9d70c5885bd9c513</title>
<g id="a_edge12"><a xlink:href="dir_000012_000001.html" target="_top">
<path fill="none" stroke="#63b8ff" d="M190.42,-101.6C195.03,-114.89 196.36,-139.56 188,-158.25 182.59,-170.35 172.43,-181.03 162.22,-188.99"/>
<polygon fill="#63b8ff" stroke="#63b8ff" points="160.37,-186.01 154.2,-194.62 164.39,-191.74 160.37,-186.01"/>
</a>
</g>
<g id="a_edge12&#45;headlabel"><a xlink:href="dir_000012_000001.html" target="_top" xlink:title="42">
<text text-anchor="middle" x="160.44" y="-179.37" font-family="Helvetica,sans-Serif" font-size="10.00" fill="#63b8ff">42</text>
</a>
</g>
</g>
<!-- dir_1b89f3ef2cea2c4e7a7e310b8e37f1bd&#45;&gt;dir_8e29679e8d9320f4689771ebd9c97198 -->
<g id="edge13" class="edge">
<title>dir_1b89f3ef2cea2c4e7a7e310b8e37f1bd&#45;&gt;dir_8e29679e8d9320f4689771ebd9c97198</title>
<g id="a_edge13"><a xlink:href="dir_000012_000016.html" target="_top">
<path fill="none" stroke="#63b8ff" d="M170.84,-80.34C161.17,-72.55 147.42,-61.47 135.98,-52.26"/>
<polygon fill="#63b8ff" stroke="#63b8ff" points="138.21,-49.57 128.23,-46.03 133.82,-55.03 138.21,-49.57"/>
</a>
</g>
<g id="a_edge13&#45;headlabel"><a xlink:href="dir_000012_000016.html" target="_top" xlink:title="3">
<text text-anchor="middle" x="141.62" y="-45.54" font-family="Helvetica,sans-Serif" font-size="10.00" fill="#63b8ff">3</text>
</a>
</g>
</g>
<!-- dir_8e29679e8d9320f4689771ebd9c97198&#45;&gt;dir_72d2fbe96e504e5d9d70c5885bd9c513 -->
<g id="edge14" class="edge">
<title>dir_8e29679e8d9320f4689771ebd9c97198&#45;&gt;dir_72d2fbe96e504e5d9d70c5885bd9c513</title>
<g id="a_edge14"><a xlink:href="dir_000016_000001.html" target="_top">
<path fill="none" stroke="#63b8ff" d="M102.51,-45.22C90.78,-52.9 74.64,-64.91 67,-80.75 63,-89.06 64.9,-92.52 67,-101.5 73.39,-128.89 78.3,-135.62 95,-158.25 102.42,-168.3 112.22,-178.02 120.34,-185.87"/>
<polygon fill="#63b8ff" stroke="#63b8ff" points="117.87,-188.34 127.48,-192.79 122.74,-183.32 117.87,-188.34"/>
</a>
</g>
<g id="a_edge14&#45;headlabel"><a xlink:href="dir_000016_000001.html" target="_top" xlink:title="35">
<text text-anchor="middle" x="114.4" y="-185.81" font-family="Helvetica,sans-Serif" font-size="10.00" fill="#63b8ff">35</text>
</a>
</g>
</g>
<!-- dir_8e29679e8d9320f4689771ebd9c97198&#45;&gt;dir_cce3571c19e1460ab7bfdfaca6a2c71d -->
<g id="edge15" class="edge">
<title>dir_8e29679e8d9320f4689771ebd9c97198&#45;&gt;dir_cce3571c19e1460ab7bfdfaca6a2c71d</title>
<g id="a_edge15"><a xlink:href="dir_000016_000010.html" target="_top">
<path fill="none" stroke="#63b8ff" d="M125.2,-45C130.19,-54.11 134.46,-68.22 137,-80.75 140.03,-95.71 142.06,-112.82 142.09,-125.89"/>
<polygon fill="#63b8ff" stroke="#63b8ff" points="138.59,-125.68 141.49,-135.87 145.58,-126.1 138.59,-125.68"/>
</a>
</g>
<g id="a_edge15&#45;headlabel"><a xlink:href="dir_000016_000010.html" target="_top" xlink:title="1">
<text text-anchor="middle" x="135.88" y="-120.31" font-family="Helvetica,sans-Serif" font-size="10.00" fill="#63b8ff">1</text>
</a>
</g>
</g>
<!-- dir_8e29679e8d9320f4689771ebd9c97198&#45;&gt;dir_db21045c204ec69458cba4d9d7ba76a8 -->
<g id="edge16" class="edge">
<title>dir_8e29679e8d9320f4689771ebd9c97198&#45;&gt;dir_db21045c204ec69458cba4d9d7ba76a8</title>
<g id="a_edge16"><a xlink:href="dir_000016_000018.html" target="_top">
<path fill="none" stroke="#63b8ff" d="M116.4,-45.08C114.95,-52.06 111.47,-61.73 107.47,-70.32"/>
<polygon fill="#63b8ff" stroke="#63b8ff" points="104.47,-68.51 102.95,-78.99 110.68,-71.75 104.47,-68.51"/>
</a>
</g>
<g id="a_edge16&#45;headlabel"><a xlink:href="dir_000016_000018.html" target="_top" xlink:title="6">
<text text-anchor="middle" x="102.91" y="-62.23" font-family="Helvetica,sans-Serif" font-size="10.00" fill="#63b8ff">6</text>
</a>
</g>
</g>
<!-- dir_db21045c204ec69458cba4d9d7ba76a8&#45;&gt;dir_72d2fbe96e504e5d9d70c5885bd9c513 -->
<g id="edge17" class="edge">
<title>dir_db21045c204ec69458cba4d9d7ba76a8&#45;&gt;dir_72d2fbe96e504e5d9d70c5885bd9c513</title>
<g id="a_edge17"><a xlink:href="dir_000018_000001.html" target="_top">
<path fill="none" stroke="#63b8ff" d="M97.17,-101.94C97.97,-115.22 95.71,-139.4 103,-158.25 106.98,-168.56 114.45,-178.06 121.24,-185.67"/>
<polygon fill="#63b8ff" stroke="#63b8ff" points="118.51,-187.88 127.87,-192.84 123.65,-183.12 118.51,-187.88"/>
</a>
</g>
<g id="a_edge17&#45;headlabel"><a xlink:href="dir_000018_000001.html" target="_top" xlink:title="1">
<text text-anchor="middle" x="115.02" y="-185.16" font-family="Helvetica,sans-Serif" font-size="10.00" fill="#63b8ff">1</text>
</a>
</g>
</g>
<!-- dir_db21045c204ec69458cba4d9d7ba76a8&#45;&gt;dir_8e29679e8d9320f4689771ebd9c97198 -->
<g id="edge18" class="edge">
<title>dir_db21045c204ec69458cba4d9d7ba76a8&#45;&gt;dir_8e29679e8d9320f4689771ebd9c97198</title>
<g id="a_edge18"><a xlink:href="dir_000018_000016.html" target="_top">
<path fill="none" stroke="#63b8ff" d="M91.62,-80.34C93.08,-73.33 96.57,-63.66 100.57,-55.08"/>
<polygon fill="#63b8ff" stroke="#63b8ff" points="103.57,-56.9 105.1,-46.42 97.37,-53.66 103.57,-56.9"/>
</a>
</g>
<g id="a_edge18&#45;headlabel"><a xlink:href="dir_000018_000016.html" target="_top" xlink:title="2">
<text text-anchor="middle" x="105.12" y="-56.94" font-family="Helvetica,sans-Serif" font-size="10.00" fill="#63b8ff">2</text>
</a>
</g>
</g>
</g>
</svg>
