<?xml version="1.0" encoding="UTF-8" standalone="no"?>
<!DOCTYPE svg PUBLIC "-//W3C//DTD SVG 1.1//EN"
 "http://www.w3.org/Graphics/SVG/1.1/DTD/svg11.dtd">
<!-- Generated by graphviz version 12.2.1 (20241206.2353)
 -->
<!-- Title: src Pages: 1 -->
<svg width="356pt" height="102pt"
 viewBox="0.00 0.00 356.00 101.50" xmlns="http://www.w3.org/2000/svg" xmlns:xlink="http://www.w3.org/1999/xlink">
<g id="graph0" class="graph" transform="scale(1 1) rotate(0) translate(4 97.5)">
<title>src</title>
<g id="clust1" class="cluster">
<title>clusterdir_68267d1309a1af8e8297ef4c3efbcdba</title>
<g id="a_clust1"><a xlink:href="dir_68267d1309a1af8e8297ef4c3efbcdba.html" target="_top">
<polygon fill="#daedff" stroke="#404040" stroke-width="2" points="8,-48.75 8,-85.5 340,-85.5 340,-48.75 8,-48.75"/>
</a>
</g>
</g>
<!-- dir_68267d1309a1af8e8297ef4c3efbcdba -->
<g id="node1" class="node">
<title>dir_68267d1309a1af8e8297ef4c3efbcdba</title>
<text text-anchor="middle" x="31" y="-64" font-family="Helvetica,sans-Serif" font-size="10.00">src</text>
</g>
<!-- dir_aebb8dcc11953d78e620bbef0b9e2183 -->
<g id="node2" class="node">
<title>dir_aebb8dcc11953d78e620bbef0b9e2183</title>
<g id="a_node2"><a xlink:href="dir_aebb8dcc11953d78e620bbef0b9e2183.html" target="_top" xlink:title="core">
<polygon fill="#4ea9ff" stroke="#404040" points="101.5,-77.5 64.5,-77.5 64.5,-56.75 101.5,-56.75 101.5,-77.5"/>
<text text-anchor="middle" x="83" y="-64" font-family="Helvetica,sans-Serif" font-size="10.00">core</text>
</a>
</g>
</g>
<!-- dir_d44c64559bbebec7f509842c48db8b23 -->
<g id="node6" class="node">
<title>dir_d44c64559bbebec7f509842c48db8b23</title>
<g id="a_node6"><a xlink:href="dir_d44c64559bbebec7f509842c48db8b23.html" target="_top" xlink:title="include">
<polygon fill="#daedff" stroke="red" points="210.62,-20.75 159.38,-20.75 159.38,0 210.62,0 210.62,-20.75"/>
<text text-anchor="middle" x="185" y="-7.25" font-family="Helvetica,sans-Serif" font-size="10.00">include</text>
</a>
</g>
</g>
<!-- dir_aebb8dcc11953d78e620bbef0b9e2183&#45;&gt;dir_d44c64559bbebec7f509842c48db8b23 -->
<g id="edge1" class="edge">
<title>dir_aebb8dcc11953d78e620bbef0b9e2183&#45;&gt;dir_d44c64559bbebec7f509842c48db8b23</title>
<g id="a_edge1"><a xlink:href="dir_000002_000007.html" target="_top">
<path fill="none" stroke="#63b8ff" d="M97.67,-56.27C101.62,-53.73 105.93,-51.06 110,-48.75 123.97,-40.81 139.85,-32.76 153.39,-26.18"/>
<polygon fill="#63b8ff" stroke="#63b8ff" points="154.8,-29.38 162.3,-21.9 151.77,-23.07 154.8,-29.38"/>
</a>
</g>
<g id="a_edge1&#45;headlabel"><a xlink:href="dir_000002_000007.html" target="_top" xlink:title="51">
<text text-anchor="middle" x="154.15" y="-29.72" font-family="Helvetica,sans-Serif" font-size="10.00" fill="#63b8ff">51</text>
</a>
</g>
</g>
<!-- dir_19373f467389307dc54ab8a6e9e19559 -->
<g id="node3" class="node">
<title>dir_19373f467389307dc54ab8a6e9e19559</title>
<g id="a_node3"><a xlink:href="dir_19373f467389307dc54ab8a6e9e19559.html" target="_top" xlink:title="solvers">
<polygon fill="#4ea9ff" stroke="#404040" points="170.62,-77.5 119.38,-77.5 119.38,-56.75 170.62,-56.75 170.62,-77.5"/>
<text text-anchor="middle" x="145" y="-64" font-family="Helvetica,sans-Serif" font-size="10.00">solvers</text>
</a>
</g>
</g>
<!-- dir_19373f467389307dc54ab8a6e9e19559&#45;&gt;dir_d44c64559bbebec7f509842c48db8b23 -->
<g id="edge2" class="edge">
<title>dir_19373f467389307dc54ab8a6e9e19559&#45;&gt;dir_d44c64559bbebec7f509842c48db8b23</title>
<g id="a_edge2"><a xlink:href="dir_000013_000007.html" target="_top">
<path fill="none" stroke="#63b8ff" d="M152.15,-56.34C157.44,-49.1 164.81,-39.01 171.23,-30.22"/>
<polygon fill="#63b8ff" stroke="#63b8ff" points="173.94,-32.44 177.02,-22.3 168.29,-28.31 173.94,-32.44"/>
</a>
</g>
<g id="a_edge2&#45;headlabel"><a xlink:href="dir_000013_000007.html" target="_top" xlink:title="5">
<text text-anchor="middle" x="175.01" y="-32.67" font-family="Helvetica,sans-Serif" font-size="10.00" fill="#63b8ff">5</text>
</a>
</g>
</g>
<!-- dir_3ae96976a4e92a3295ef8ec10c14aeb9 -->
<g id="node4" class="node">
<title>dir_3ae96976a4e92a3295ef8ec10c14aeb9</title>
<g id="a_node4"><a xlink:href="dir_3ae96976a4e92a3295ef8ec10c14aeb9.html" target="_top" xlink:title="user_inputs">
<polygon fill="#4ea9ff" stroke="#404040" points="261.12,-77.5 188.88,-77.5 188.88,-56.75 261.12,-56.75 261.12,-77.5"/>
<text text-anchor="middle" x="225" y="-64" font-family="Helvetica,sans-Serif" font-size="10.00">user_inputs</text>
</a>
</g>
</g>
<!-- dir_3ae96976a4e92a3295ef8ec10c14aeb9&#45;&gt;dir_d44c64559bbebec7f509842c48db8b23 -->
<g id="edge3" class="edge">
<title>dir_3ae96976a4e92a3295ef8ec10c14aeb9&#45;&gt;dir_d44c64559bbebec7f509842c48db8b23</title>
<g id="a_edge3"><a xlink:href="dir_000017_000007.html" target="_top">
<path fill="none" stroke="#63b8ff" d="M217.85,-56.34C212.56,-49.1 205.19,-39.01 198.77,-30.22"/>
<polygon fill="#63b8ff" stroke="#63b8ff" points="201.71,-28.31 192.98,-22.3 196.06,-32.44 201.71,-28.31"/>
</a>
</g>
<g id="a_edge3&#45;headlabel"><a xlink:href="dir_000017_000007.html" target="_top" xlink:title="15">
<text text-anchor="middle" x="205.23" y="-25.19" font-family="Helvetica,sans-Serif" font-size="10.00" fill="#63b8ff">15</text>
</a>
</g>
</g>
<!-- dir_7b5d38f1875f1b693f62ca6a108a1129 -->
<g id="node5" class="node">
<title>dir_7b5d38f1875f1b693f62ca6a108a1129</title>
<g id="a_node5"><a xlink:href="dir_7b5d38f1875f1b693f62ca6a108a1129.html" target="_top" xlink:title="utilities">
<polygon fill="#4ea9ff" stroke="#404040" points="332.38,-77.5 279.62,-77.5 279.62,-56.75 332.38,-56.75 332.38,-77.5"/>
<text text-anchor="middle" x="306" y="-64" font-family="Helvetica,sans-Serif" font-size="10.00">utilities</text>
</a>
</g>
</g>
<!-- dir_7b5d38f1875f1b693f62ca6a108a1129&#45;&gt;dir_d44c64559bbebec7f509842c48db8b23 -->
<g id="edge4" class="edge">
<title>dir_7b5d38f1875f1b693f62ca6a108a1129&#45;&gt;dir_d44c64559bbebec7f509842c48db8b23</title>
<g id="a_edge4"><a xlink:href="dir_000019_000007.html" target="_top">
<path fill="none" stroke="#63b8ff" d="M285.88,-56.26C280.72,-53.77 275.17,-51.13 270,-48.75 252.99,-40.91 233.91,-32.49 218.15,-25.63"/>
<polygon fill="#63b8ff" stroke="#63b8ff" points="219.78,-22.52 209.22,-21.75 217,-28.94 219.78,-22.52"/>
</a>
</g>
<g id="a_edge4&#45;headlabel"><a xlink:href="dir_000019_000007.html" target="_top" xlink:title="2">
<text text-anchor="middle" x="222.82" y="-17.62" font-family="Helvetica,sans-Serif" font-size="10.00" fill="#63b8ff">2</text>
</a>
</g>
</g>
</g>
</svg>
