<?xml version="1.0" encoding="UTF-8" standalone="no"?>
<!DOCTYPE svg PUBLIC "-//W3C//DTD SVG 1.1//EN"
 "http://www.w3.org/Graphics/SVG/1.1/DTD/svg11.dtd">
<!-- Generated by graphviz version 12.2.1 (20241206.2353)
 -->
<!-- Title: include/prismspf/core/dirichlet.h Pages: 1 -->
<svg width="242pt" height="111pt"
 viewBox="0.00 0.00 242.25 111.00" xmlns="http://www.w3.org/2000/svg" xmlns:xlink="http://www.w3.org/1999/xlink">
<g id="graph0" class="graph" transform="scale(1 1) rotate(0) translate(4 107)">
<title>include/prismspf/core/dirichlet.h</title>
<!-- Node1 -->
<g id="Node000001" class="node">
<title>Node1</title>
<g id="a_Node000001"><a xlink:title=" ">
<polygon fill="#999999" stroke="#666666" points="176.5,-103 55.5,-103 55.5,-69.5 176.5,-69.5 176.5,-103"/>
<text text-anchor="start" x="63.5" y="-89.5" font-family="Helvetica,sans-Serif" font-size="10.00">include/prismspf/core</text>
<text text-anchor="middle" x="116" y="-76.75" font-family="Helvetica,sans-Serif" font-size="10.00">/dirichlet.h</text>
</a>
</g>
</g>
<!-- Node2 -->
<g id="Node000002" class="node">
<title>Node2</title>
<g id="a_Node000002"><a xlink:href="constraint__manager_8cc.html" target="_top" xlink:title=" ">
<polygon fill="white" stroke="#666666" points="106,-33.5 0,-33.5 0,0 106,0 106,-33.5"/>
<text text-anchor="start" x="8" y="-20" font-family="Helvetica,sans-Serif" font-size="10.00">src/core/constraint</text>
<text text-anchor="middle" x="53" y="-7.25" font-family="Helvetica,sans-Serif" font-size="10.00">_manager.cc</text>
</a>
</g>
</g>
<!-- Node1&#45;&gt;Node2 -->
<g id="edge1_Node000001_Node000002" class="edge">
<title>Node1&#45;&gt;Node2</title>
<g id="a_edge1_Node000001_Node000002"><a xlink:title=" ">
<path fill="none" stroke="#63b8ff" d="M93.31,-60.94C84.83,-51.85 75.42,-41.77 67.82,-33.63"/>
<polygon fill="#63b8ff" stroke="#63b8ff" points="90.66,-63.22 100.04,-68.15 95.77,-58.45 90.66,-63.22"/>
</a>
</g>
</g>
<!-- Node3 -->
<g id="Node000003" class="node">
<title>Node3</title>
<g id="a_Node000003"><a xlink:href="dirichlet_8cc.html" target="_top" xlink:title=" ">
<polygon fill="white" stroke="#666666" points="234.25,-27.12 123.75,-27.12 123.75,-6.38 234.25,-6.38 234.25,-27.12"/>
<text text-anchor="middle" x="179" y="-13.62" font-family="Helvetica,sans-Serif" font-size="10.00">src/core/dirichlet.cc</text>
</a>
</g>
</g>
<!-- Node1&#45;&gt;Node3 -->
<g id="edge2_Node000001_Node000003" class="edge">
<title>Node1&#45;&gt;Node3</title>
<g id="a_edge2_Node000001_Node000003"><a xlink:title=" ">
<path fill="none" stroke="#63b8ff" d="M138.76,-60.86C149.5,-49.36 161.71,-36.28 169.83,-27.57"/>
<polygon fill="#63b8ff" stroke="#63b8ff" points="136.23,-58.45 131.96,-68.15 141.34,-63.22 136.23,-58.45"/>
</a>
</g>
</g>
</g>
</svg>
