<?xml version="1.0" encoding="UTF-8" standalone="no"?>
<!DOCTYPE svg PUBLIC "-//W3C//DTD SVG 1.1//EN"
 "http://www.w3.org/Graphics/SVG/1.1/DTD/svg11.dtd">
<!-- Generated by graphviz version 12.2.1 (20241206.2353)
 -->
<!-- Title: include/prismspf/core/dof_manager.h Pages: 1 -->
<svg width="1576pt" height="932pt"
 viewBox="0.00 0.00 1575.88 932.25" xmlns="http://www.w3.org/2000/svg" xmlns:xlink="http://www.w3.org/1999/xlink">
<g id="graph0" class="graph" transform="scale(1 1) rotate(0) translate(4 928.25)">
<title>include/prismspf/core/dof_manager.h</title>
<!-- Node1 -->
<g id="Node000001" class="node">
<title>Node1</title>
<g id="a_Node000001"><a xlink:title=" ">
<polygon fill="#999999" stroke="#666666" points="1273.12,-924.25 1152.12,-924.25 1152.12,-890.75 1273.12,-890.75 1273.12,-924.25"/>
<text text-anchor="start" x="1160.12" y="-910.75" font-family="Helvetica,sans-Serif" font-size="10.00">include/prismspf/core</text>
<text text-anchor="middle" x="1212.62" y="-898" font-family="Helvetica,sans-Serif" font-size="10.00">/dof_manager.h</text>
</a>
</g>
</g>
<!-- Node2 -->
<g id="Node000002" class="node">
<title>Node2</title>
<g id="a_Node000002"><a xlink:href="constraint__manager_8h.html" target="_top" xlink:title=" ">
<polygon fill="white" stroke="#666666" points="1275,-854.75 1150.25,-854.75 1150.25,-821.25 1275,-821.25 1275,-854.75"/>
<text text-anchor="start" x="1158.25" y="-841.25" font-family="Helvetica,sans-Serif" font-size="10.00">include/prismspf/core</text>
<text text-anchor="middle" x="1212.62" y="-828.5" font-family="Helvetica,sans-Serif" font-size="10.00">/constraint_manager.h</text>
</a>
</g>
</g>
<!-- Node1&#45;&gt;Node2 -->
<g id="edge1_Node000001_Node000002" class="edge">
<title>Node1&#45;&gt;Node2</title>
<g id="a_edge1_Node000001_Node000002"><a xlink:title=" ">
<path fill="none" stroke="#63b8ff" d="M1212.62,-879.06C1212.62,-870.84 1212.62,-862.09 1212.62,-854.88"/>
<polygon fill="#63b8ff" stroke="#63b8ff" points="1209.13,-878.99 1212.63,-888.99 1216.13,-878.99 1209.13,-878.99"/>
</a>
</g>
</g>
<!-- Node3 -->
<g id="Node000003" class="node">
<title>Node3</title>
<g id="a_Node000003"><a xlink:href="group__solution__handler_8h.html" target="_top" xlink:title=" ">
<polygon fill="white" stroke="#666666" points="600.25,-715.75 459,-715.75 459,-682.25 600.25,-682.25 600.25,-715.75"/>
<text text-anchor="start" x="467" y="-702.25" font-family="Helvetica,sans-Serif" font-size="10.00">include/prismspf/core</text>
<text text-anchor="middle" x="529.62" y="-689.5" font-family="Helvetica,sans-Serif" font-size="10.00">/group_solution_handler.h</text>
</a>
</g>
</g>
<!-- Node1&#45;&gt;Node3 -->
<g id="edge66_Node000001_Node000003" class="edge">
<title>Node1&#45;&gt;Node3</title>
<g id="a_edge66_Node000001_Node000003"><a xlink:title=" ">
<path fill="none" stroke="#63b8ff" d="M1141.19,-887.27C1056.16,-864.13 910.02,-823.6 785.62,-785.25 711.99,-762.55 627.28,-733.82 576.14,-716.19"/>
<polygon fill="#63b8ff" stroke="#63b8ff" points="1140.24,-890.64 1150.81,-889.88 1142.07,-883.88 1140.24,-890.64"/>
</a>
</g>
</g>
<!-- Node15 -->
<g id="Node000015" class="node">
<title>Node15</title>
<g id="a_Node000015"><a xlink:href="solve__context_8h.html" target="_top" xlink:title=" ">
<polygon fill="white" stroke="#666666" points="1043.25,-437.75 908,-437.75 908,-404.25 1043.25,-404.25 1043.25,-437.75"/>
<text text-anchor="start" x="916" y="-424.25" font-family="Helvetica,sans-Serif" font-size="10.00">include/prismspf/solvers</text>
<text text-anchor="middle" x="975.62" y="-411.5" font-family="Helvetica,sans-Serif" font-size="10.00">/solve_context.h</text>
</a>
</g>
</g>
<!-- Node1&#45;&gt;Node15 -->
<g id="edge70_Node000001_Node000015" class="edge">
<title>Node1&#45;&gt;Node15</title>
<g id="a_edge70_Node000001_Node000015"><a xlink:title=" ">
<path fill="none" stroke="#63b8ff" d="M1169.54,-884.08C1158.64,-876.29 1148.18,-866.49 1141.62,-854.75 1108,-794.52 1129.62,-768.98 1129.62,-700 1129.62,-700 1129.62,-700 1129.62,-559 1129.62,-498.88 1063.3,-458.67 1017.71,-438.12"/>
<polygon fill="#63b8ff" stroke="#63b8ff" points="1167.61,-887 1177.88,-889.58 1171.46,-881.15 1167.61,-887"/>
</a>
</g>
</g>
<!-- Node17 -->
<g id="Node000017" class="node">
<title>Node17</title>
<g id="a_Node000017"><a xlink:href="refinement__manager_8h.html" target="_top" xlink:title=" ">
<polygon fill="white" stroke="#666666" points="1393.25,-298.75 1264,-298.75 1264,-265.25 1393.25,-265.25 1393.25,-298.75"/>
<text text-anchor="start" x="1272" y="-285.25" font-family="Helvetica,sans-Serif" font-size="10.00">include/prismspf/core</text>
<text text-anchor="middle" x="1328.62" y="-272.5" font-family="Helvetica,sans-Serif" font-size="10.00">/refinement_manager.h</text>
</a>
</g>
</g>
<!-- Node1&#45;&gt;Node17 -->
<g id="edge68_Node000001_Node000017" class="edge">
<title>Node1&#45;&gt;Node17</title>
<g id="a_edge68_Node000001_Node000017"><a xlink:title=" ">
<path fill="none" stroke="#63b8ff" d="M1284.23,-887.28C1339.16,-867.69 1405.62,-831.23 1405.62,-769.5 1405.62,-769.5 1405.62,-769.5 1405.62,-420 1405.62,-370.89 1367.56,-323.11 1344.95,-299.07"/>
<polygon fill="#63b8ff" stroke="#63b8ff" points="1283.19,-883.94 1274.86,-890.49 1285.45,-890.56 1283.19,-883.94"/>
</a>
</g>
</g>
<!-- Node18 -->
<g id="Node000018" class="node">
<title>Node18</title>
<g id="a_Node000018"><a xlink:href="solution__output_8h.html" target="_top" xlink:title=" ">
<polygon fill="white" stroke="#666666" points="1271.12,-368.25 1150.12,-368.25 1150.12,-334.75 1271.12,-334.75 1271.12,-368.25"/>
<text text-anchor="start" x="1158.12" y="-354.75" font-family="Helvetica,sans-Serif" font-size="10.00">include/prismspf/core</text>
<text text-anchor="middle" x="1210.62" y="-342" font-family="Helvetica,sans-Serif" font-size="10.00">/solution_output.h</text>
</a>
</g>
</g>
<!-- Node1&#45;&gt;Node18 -->
<g id="edge69_Node000001_Node000018" class="edge">
<title>Node1&#45;&gt;Node18</title>
<g id="a_edge69_Node000001_Node000018"><a xlink:title=" ">
<path fill="none" stroke="#63b8ff" d="M1258.46,-885.03C1273.21,-876.82 1289,-866.55 1301.62,-854.75 1328.87,-829.29 1337.7,-820.9 1348.62,-785.25 1398.64,-622.01 1265.36,-425.37 1223.04,-368.57"/>
<polygon fill="#63b8ff" stroke="#63b8ff" points="1256.96,-881.86 1249.79,-889.66 1260.26,-888.03 1256.96,-881.86"/>
</a>
</g>
</g>
<!-- Node28 -->
<g id="Node000028" class="node">
<title>Node28</title>
<g id="a_Node000028"><a xlink:href="group__solution__handler_8cc.html" target="_top" xlink:title=" ">
<polygon fill="white" stroke="#666666" points="129.25,-646.25 0,-646.25 0,-612.75 129.25,-612.75 129.25,-646.25"/>
<text text-anchor="start" x="8" y="-632.75" font-family="Helvetica,sans-Serif" font-size="10.00">src/core/group_solution</text>
<text text-anchor="middle" x="64.62" y="-620" font-family="Helvetica,sans-Serif" font-size="10.00">_handler.cc</text>
</a>
</g>
</g>
<!-- Node1&#45;&gt;Node28 -->
<g id="edge73_Node000001_Node000028" class="edge">
<title>Node1&#45;&gt;Node28</title>
<g id="a_edge73_Node000001_Node000028"><a xlink:title=" ">
<path fill="none" stroke="#63b8ff" d="M1140.37,-896.21C1078.13,-886.89 986.06,-872 906.62,-854.75 605.79,-789.4 251.18,-686.24 118.38,-646.68"/>
<polygon fill="#63b8ff" stroke="#63b8ff" points="1139.73,-899.66 1150.14,-897.67 1140.76,-892.73 1139.73,-899.66"/>
</a>
</g>
</g>
<!-- Node29 -->
<g id="Node000029" class="node">
<title>Node29</title>
<g id="a_Node000029"><a xlink:href="matrix__free__manager_8h.html" target="_top" xlink:title=" ">
<polygon fill="white" stroke="#666666" points="1101.12,-785.25 968.12,-785.25 968.12,-751.75 1101.12,-751.75 1101.12,-785.25"/>
<text text-anchor="start" x="976.12" y="-771.75" font-family="Helvetica,sans-Serif" font-size="10.00">include/prismspf/core</text>
<text text-anchor="middle" x="1034.62" y="-759" font-family="Helvetica,sans-Serif" font-size="10.00">/matrix_free_manager.h</text>
</a>
</g>
</g>
<!-- Node1&#45;&gt;Node29 -->
<g id="edge67_Node000001_Node000029" class="edge">
<title>Node1&#45;&gt;Node29</title>
<g id="a_edge67_Node000001_Node000029"><a xlink:title=" ">
<path fill="none" stroke="#63b8ff" d="M1160.88,-885.68C1143.4,-877.4 1124.35,-866.93 1108.62,-854.75 1082.59,-834.59 1058.86,-804.18 1045.62,-785.65"/>
<polygon fill="#63b8ff" stroke="#63b8ff" points="1159.02,-888.68 1169.57,-889.67 1161.94,-882.32 1159.02,-888.68"/>
</a>
</g>
</g>
<!-- Node31 -->
<g id="Node000031" class="node">
<title>Node31</title>
<g id="a_Node000031"><a xlink:href="constraint__manager_8cc.html" target="_top" xlink:title=" ">
<polygon fill="white" stroke="#666666" points="1339.62,-785.25 1233.62,-785.25 1233.62,-751.75 1339.62,-751.75 1339.62,-785.25"/>
<text text-anchor="start" x="1241.62" y="-771.75" font-family="Helvetica,sans-Serif" font-size="10.00">src/core/constraint</text>
<text text-anchor="middle" x="1286.62" y="-759" font-family="Helvetica,sans-Serif" font-size="10.00">_manager.cc</text>
</a>
</g>
</g>
<!-- Node1&#45;&gt;Node31 -->
<g id="edge71_Node000001_Node000031" class="edge">
<title>Node1&#45;&gt;Node31</title>
<g id="a_edge71_Node000001_Node000031"><a xlink:title=" ">
<path fill="none" stroke="#63b8ff" d="M1256.32,-884.05C1267.12,-876.29 1277.37,-866.52 1283.62,-854.75 1295.15,-833.04 1292.99,-803.64 1290.05,-785.65"/>
<polygon fill="#63b8ff" stroke="#63b8ff" points="1254.45,-881.08 1248.03,-889.51 1258.31,-886.93 1254.45,-881.08"/>
</a>
</g>
</g>
<!-- Node32 -->
<g id="Node000032" class="node">
<title>Node32</title>
<g id="a_Node000032"><a xlink:href="dof__manager_8cc.html" target="_top" xlink:title=" ">
<polygon fill="white" stroke="#666666" points="1567.88,-848.38 1433.38,-848.38 1433.38,-827.62 1567.88,-827.62 1567.88,-848.38"/>
<text text-anchor="middle" x="1500.62" y="-834.88" font-family="Helvetica,sans-Serif" font-size="10.00">src/core/dof_manager.cc</text>
</a>
</g>
</g>
<!-- Node1&#45;&gt;Node32 -->
<g id="edge72_Node000001_Node000032" class="edge">
<title>Node1&#45;&gt;Node32</title>
<g id="a_edge72_Node000001_Node000032"><a xlink:title=" ">
<path fill="none" stroke="#63b8ff" d="M1284.4,-889.68C1339.26,-876.82 1412.98,-859.54 1458.61,-848.85"/>
<polygon fill="#63b8ff" stroke="#63b8ff" points="1283.76,-886.23 1274.82,-891.92 1285.36,-893.05 1283.76,-886.23"/>
</a>
</g>
</g>
<!-- Node2&#45;&gt;Node3 -->
<g id="edge2_Node000002_Node000003" class="edge">
<title>Node2&#45;&gt;Node3</title>
<g id="a_edge2_Node000002_Node000003"><a xlink:title=" ">
<path fill="none" stroke="#63b8ff" d="M1138.7,-822.17C1006.42,-795.64 730.9,-740.37 600.7,-714.26"/>
<polygon fill="#63b8ff" stroke="#63b8ff" points="1137.92,-825.59 1148.41,-824.12 1139.3,-818.72 1137.92,-825.59"/>
</a>
</g>
</g>
<!-- Node2&#45;&gt;Node15 -->
<g id="edge64_Node000002_Node000015" class="edge">
<title>Node2&#45;&gt;Node15</title>
<g id="a_edge64_Node000002_Node000015"><a xlink:title=" ">
<path fill="none" stroke="#63b8ff" d="M1198.59,-810.97C1185.39,-784.01 1167.62,-740.27 1167.62,-700 1167.62,-700 1167.62,-700 1167.62,-559 1167.62,-519.64 1171.12,-501.92 1143.62,-473.75 1117.51,-446.99 1077.92,-433.99 1043.73,-427.71"/>
<polygon fill="#63b8ff" stroke="#63b8ff" points="1195.4,-812.42 1203.05,-819.76 1201.65,-809.26 1195.4,-812.42"/>
</a>
</g>
</g>
<!-- Node2&#45;&gt;Node17 -->
<g id="edge63_Node000002_Node000017" class="edge">
<title>Node2&#45;&gt;Node17</title>
<g id="a_edge63_Node000002_Node000017"><a xlink:title=" ">
<path fill="none" stroke="#63b8ff" d="M1215.73,-809.68C1217.82,-792.9 1220.87,-770.99 1224.62,-751.75 1258.25,-579.29 1291,-541.44 1320.62,-368.25 1324.71,-344.37 1326.84,-316.34 1327.84,-299.12"/>
<polygon fill="#63b8ff" stroke="#63b8ff" points="1212.28,-809.04 1214.56,-819.39 1219.23,-809.88 1212.28,-809.04"/>
</a>
</g>
</g>
<!-- Node2&#45;&gt;Node29 -->
<g id="edge55_Node000002_Node000029" class="edge">
<title>Node2&#45;&gt;Node29</title>
<g id="a_edge55_Node000002_Node000029"><a xlink:title=" ">
<path fill="none" stroke="#63b8ff" d="M1159.44,-816.83C1133.17,-806.87 1101.89,-795.01 1077.22,-785.65"/>
<polygon fill="#63b8ff" stroke="#63b8ff" points="1157.98,-820.02 1168.57,-820.3 1160.47,-813.48 1157.98,-820.02"/>
</a>
</g>
</g>
<!-- Node2&#45;&gt;Node31 -->
<g id="edge65_Node000002_Node000031" class="edge">
<title>Node2&#45;&gt;Node31</title>
<g id="a_edge65_Node000002_Node000031"><a xlink:title=" ">
<path fill="none" stroke="#63b8ff" d="M1238.6,-813.31C1248.64,-804.15 1259.88,-793.9 1268.96,-785.62"/>
<polygon fill="#63b8ff" stroke="#63b8ff" points="1236.31,-810.66 1231.28,-819.98 1241.03,-815.83 1236.31,-810.66"/>
</a>
</g>
</g>
<!-- Node4 -->
<g id="Node000004" class="node">
<title>Node4</title>
<g id="a_Node000004"><a xlink:href="solution__indexer_8h.html" target="_top" xlink:title=" ">
<polygon fill="white" stroke="#666666" points="590.12,-646.25 469.12,-646.25 469.12,-612.75 590.12,-612.75 590.12,-646.25"/>
<text text-anchor="start" x="477.12" y="-632.75" font-family="Helvetica,sans-Serif" font-size="10.00">include/prismspf/core</text>
<text text-anchor="middle" x="529.62" y="-620" font-family="Helvetica,sans-Serif" font-size="10.00">/solution_indexer.h</text>
</a>
</g>
</g>
<!-- Node3&#45;&gt;Node4 -->
<g id="edge3_Node000003_Node000004" class="edge">
<title>Node3&#45;&gt;Node4</title>
<g id="a_edge3_Node000003_Node000004"><a xlink:title=" ">
<path fill="none" stroke="#63b8ff" d="M529.62,-670.56C529.62,-662.34 529.62,-653.59 529.62,-646.38"/>
<polygon fill="#63b8ff" stroke="#63b8ff" points="526.13,-670.49 529.63,-680.49 533.13,-670.49 526.13,-670.49"/>
</a>
</g>
</g>
<!-- Node7 -->
<g id="Node000007" class="node">
<title>Node7</title>
<g id="a_Node000007"><a xlink:href="mf__operator_8h.html" target="_top" xlink:title=" ">
<polygon fill="white" stroke="#666666" points="440.25,-298.75 305,-298.75 305,-265.25 440.25,-265.25 440.25,-298.75"/>
<text text-anchor="start" x="313" y="-285.25" font-family="Helvetica,sans-Serif" font-size="10.00">include/prismspf/solvers</text>
<text text-anchor="middle" x="372.62" y="-272.5" font-family="Helvetica,sans-Serif" font-size="10.00">/mf_operator.h</text>
</a>
</g>
</g>
<!-- Node3&#45;&gt;Node7 -->
<g id="edge49_Node000003_Node000007" class="edge">
<title>Node3&#45;&gt;Node7</title>
<g id="a_edge49_Node000003_Node000007"><a xlink:title=" ">
<path fill="none" stroke="#63b8ff" d="M447.44,-694.15C359.85,-685.11 233.62,-655.66 233.62,-561 233.62,-561 233.62,-561 233.62,-489.5 233.62,-406.09 312.63,-331.08 351.51,-299.21"/>
<polygon fill="#63b8ff" stroke="#63b8ff" points="446.93,-697.62 457.22,-695.09 447.6,-690.65 446.93,-697.62"/>
</a>
</g>
</g>
<!-- Node12 -->
<g id="Node000012" class="node">
<title>Node12</title>
<g id="a_Node000012"><a xlink:href="linear__solver_8h.html" target="_top" xlink:title=" ">
<polygon fill="white" stroke="#666666" points="785.25,-229.25 650,-229.25 650,-195.75 785.25,-195.75 785.25,-229.25"/>
<text text-anchor="start" x="658" y="-215.75" font-family="Helvetica,sans-Serif" font-size="10.00">include/prismspf/solvers</text>
<text text-anchor="middle" x="717.62" y="-203" font-family="Helvetica,sans-Serif" font-size="10.00">/linear_solver.h</text>
</a>
</g>
</g>
<!-- Node3&#45;&gt;Node12 -->
<g id="edge48_Node000003_Node000012" class="edge">
<title>Node3&#45;&gt;Node12</title>
<g id="a_edge48_Node000003_Node000012"><a xlink:title=" ">
<path fill="none" stroke="#63b8ff" d="M585.51,-677.58C674.3,-641.12 837.62,-555.85 837.62,-422 837.62,-422 837.62,-422 837.62,-350.5 837.62,-295.48 782.19,-251.96 746.67,-229.73"/>
<polygon fill="#63b8ff" stroke="#63b8ff" points="584.44,-674.24 576.48,-681.22 587.06,-680.73 584.44,-674.24"/>
</a>
</g>
</g>
<!-- Node13 -->
<g id="Node000013" class="node">
<title>Node13</title>
<g id="a_Node000013"><a xlink:href="newton__solver_8h.html" target="_top" xlink:title=" ">
<polygon fill="white" stroke="#666666" points="536.25,-159.75 401,-159.75 401,-126.25 536.25,-126.25 536.25,-159.75"/>
<text text-anchor="start" x="409" y="-146.25" font-family="Helvetica,sans-Serif" font-size="10.00">include/prismspf/solvers</text>
<text text-anchor="middle" x="468.62" y="-133.5" font-family="Helvetica,sans-Serif" font-size="10.00">/newton_solver.h</text>
</a>
</g>
</g>
<!-- Node3&#45;&gt;Node13 -->
<g id="edge50_Node000003_Node000013" class="edge">
<title>Node3&#45;&gt;Node13</title>
<g id="a_edge50_Node000003_Node000013"><a xlink:title=" ">
<path fill="none" stroke="#63b8ff" d="M447.26,-692.96C364.42,-686.48 243.69,-672.75 205.62,-646.25 169.94,-621.41 157.62,-604.48 157.62,-561 157.62,-561 157.62,-561 157.62,-281 157.62,-242.18 148.58,-222.59 176.62,-195.75 207.96,-165.76 324.55,-152.83 400.59,-147.49"/>
<polygon fill="#63b8ff" stroke="#63b8ff" points="446.93,-696.44 457.17,-693.71 447.46,-689.46 446.93,-696.44"/>
</a>
</g>
</g>
<!-- Node14 -->
<g id="Node000014" class="node">
<title>Node14</title>
<g id="a_Node000014"><a xlink:href="mf__operator_8cc.html" target="_top" xlink:title=" ">
<polygon fill="white" stroke="#666666" points="329.75,-222.88 185.5,-222.88 185.5,-202.12 329.75,-202.12 329.75,-222.88"/>
<text text-anchor="middle" x="257.62" y="-209.38" font-family="Helvetica,sans-Serif" font-size="10.00">src/solvers/mf_operator.cc</text>
</a>
</g>
</g>
<!-- Node3&#45;&gt;Node14 -->
<g id="edge54_Node000003_Node000014" class="edge">
<title>Node3&#45;&gt;Node14</title>
<g id="a_edge54_Node000003_Node000014"><a xlink:title=" ">
<path fill="none" stroke="#63b8ff" d="M447.36,-690.65C375.4,-682.87 277.54,-668.57 245.62,-646.25 209.63,-621.08 195.62,-604.92 195.62,-561 195.62,-561 195.62,-561 195.62,-350.5 195.62,-298.55 233.09,-244.58 249.77,-223.12"/>
<polygon fill="#63b8ff" stroke="#63b8ff" points="446.85,-694.12 457.16,-691.69 447.59,-687.16 446.85,-694.12"/>
</a>
</g>
</g>
<!-- Node21 -->
<g id="Node000021" class="node">
<title>Node21</title>
<g id="a_Node000021"><a xlink:href="solver__base_8h.html" target="_top" xlink:title=" ">
<polygon fill="white" stroke="#666666" points="809.25,-368.25 674,-368.25 674,-334.75 809.25,-334.75 809.25,-368.25"/>
<text text-anchor="start" x="682" y="-354.75" font-family="Helvetica,sans-Serif" font-size="10.00">include/prismspf/solvers</text>
<text text-anchor="middle" x="741.62" y="-342" font-family="Helvetica,sans-Serif" font-size="10.00">/solver_base.h</text>
</a>
</g>
</g>
<!-- Node3&#45;&gt;Node21 -->
<g id="edge51_Node000003_Node000021" class="edge">
<title>Node3&#45;&gt;Node21</title>
<g id="a_edge51_Node000003_Node000021"><a xlink:title=" ">
<path fill="none" stroke="#63b8ff" d="M565.02,-675.19C576.47,-666.87 588.75,-656.88 598.62,-646.25 672.93,-566.23 691.99,-540.62 728.62,-437.75 736.86,-414.62 739.88,-386.14 740.99,-368.66"/>
<polygon fill="#63b8ff" stroke="#63b8ff" points="563.07,-672.28 556.9,-680.89 567.1,-678.01 563.07,-672.28"/>
</a>
</g>
</g>
<!-- Node27 -->
<g id="Node000027" class="node">
<title>Node27</title>
<g id="a_Node000027"><a xlink:href="solution__indexer_8cc.html" target="_top" xlink:title=" ">
<polygon fill="white" stroke="#666666" points="411.75,-570.38 261.5,-570.38 261.5,-549.62 411.75,-549.62 411.75,-570.38"/>
<text text-anchor="middle" x="336.62" y="-556.88" font-family="Helvetica,sans-Serif" font-size="10.00">src/core/solution_indexer.cc</text>
</a>
</g>
</g>
<!-- Node3&#45;&gt;Node27 -->
<g id="edge53_Node000003_Node000027" class="edge">
<title>Node3&#45;&gt;Node27</title>
<g id="a_edge53_Node000003_Node000027"><a xlink:title=" ">
<path fill="none" stroke="#63b8ff" d="M497.98,-675.54C455.24,-645.2 380.88,-592.42 350.33,-570.73"/>
<polygon fill="#63b8ff" stroke="#63b8ff" points="495.69,-678.21 505.87,-681.14 499.75,-672.5 495.69,-678.21"/>
</a>
</g>
</g>
<!-- Node3&#45;&gt;Node28 -->
<g id="edge52_Node000003_Node000028" class="edge">
<title>Node3&#45;&gt;Node28</title>
<g id="a_edge52_Node000003_Node000028"><a xlink:title=" ">
<path fill="none" stroke="#63b8ff" d="M447.4,-688.51C369.1,-679.11 248.04,-663.64 143.62,-646.25 139.07,-645.49 134.38,-644.67 129.66,-643.81"/>
<polygon fill="#63b8ff" stroke="#63b8ff" points="446.79,-691.96 457.13,-689.67 447.62,-685.01 446.79,-691.96"/>
</a>
</g>
</g>
<!-- Node5 -->
<g id="Node000005" class="node">
<title>Node5</title>
<g id="a_Node000005"><a xlink:href="field__container_8h.html" target="_top" xlink:title=" ">
<polygon fill="white" stroke="#666666" points="590.12,-576.75 469.12,-576.75 469.12,-543.25 590.12,-543.25 590.12,-576.75"/>
<text text-anchor="start" x="477.12" y="-563.25" font-family="Helvetica,sans-Serif" font-size="10.00">include/prismspf/core</text>
<text text-anchor="middle" x="529.62" y="-550.5" font-family="Helvetica,sans-Serif" font-size="10.00">/field_container.h</text>
</a>
</g>
</g>
<!-- Node4&#45;&gt;Node5 -->
<g id="edge4_Node000004_Node000005" class="edge">
<title>Node4&#45;&gt;Node5</title>
<g id="a_edge4_Node000004_Node000005"><a xlink:title=" ">
<path fill="none" stroke="#63b8ff" d="M529.62,-601.06C529.62,-592.84 529.62,-584.09 529.62,-576.88"/>
<polygon fill="#63b8ff" stroke="#63b8ff" points="526.13,-600.99 529.63,-610.99 533.13,-600.99 526.13,-600.99"/>
</a>
</g>
</g>
<!-- Node4&#45;&gt;Node7 -->
<g id="edge45_Node000004_Node000007" class="edge">
<title>Node4&#45;&gt;Node7</title>
<g id="a_edge45_Node000004_Node000007"><a xlink:title=" ">
<path fill="none" stroke="#63b8ff" d="M497.67,-605.63C485.6,-596.8 471.84,-586.49 459.62,-576.75 441.76,-562.5 439.58,-556.01 420.62,-543.25 391.6,-523.72 368.85,-537.11 350.62,-507.25 309.26,-439.46 347.33,-338.17 364.87,-299.14"/>
<polygon fill="#63b8ff" stroke="#63b8ff" points="495.56,-608.42 505.7,-611.47 499.67,-602.76 495.56,-608.42"/>
</a>
</g>
</g>
<!-- Node4&#45;&gt;Node15 -->
<g id="edge46_Node000004_Node000015" class="edge">
<title>Node4&#45;&gt;Node15</title>
<g id="a_edge46_Node000004_Node000015"><a xlink:title=" ">
<path fill="none" stroke="#63b8ff" d="M573.15,-607.36C635.62,-577.15 754.45,-520.13 856.62,-473.75 883.5,-461.55 914.03,-448.29 937.44,-438.24"/>
<polygon fill="#63b8ff" stroke="#63b8ff" points="571.72,-604.16 564.25,-611.67 574.77,-610.46 571.72,-604.16"/>
</a>
</g>
</g>
<!-- Node4&#45;&gt;Node18 -->
<g id="edge44_Node000004_Node000018" class="edge">
<title>Node4&#45;&gt;Node18</title>
<g id="a_edge44_Node000004_Node000018"><a xlink:title=" ">
<path fill="none" stroke="#63b8ff" d="M601.63,-618.23C695.68,-602.95 863.84,-569.16 995.62,-507.25 1076.38,-469.31 1158.21,-400 1193.11,-368.66"/>
<polygon fill="#63b8ff" stroke="#63b8ff" points="601.36,-614.73 592.03,-619.76 602.46,-621.64 601.36,-614.73"/>
</a>
</g>
</g>
<!-- Node4&#45;&gt;Node27 -->
<g id="edge47_Node000004_Node000027" class="edge">
<title>Node4&#45;&gt;Node27</title>
<g id="a_edge47_Node000004_Node000027"><a xlink:title=" ">
<path fill="none" stroke="#63b8ff" d="M472.68,-608.59C437.18,-596.17 393.04,-580.73 364.84,-570.87"/>
<polygon fill="#63b8ff" stroke="#63b8ff" points="471.37,-611.83 481.97,-611.83 473.68,-605.23 471.37,-611.83"/>
</a>
</g>
</g>
<!-- Node6 -->
<g id="Node000006" class="node">
<title>Node6</title>
<g id="a_Node000006"><a xlink:href="pde__operator__base_8h.html" target="_top" xlink:title=" ">
<polygon fill="white" stroke="#666666" points="679.12,-507.25 558.12,-507.25 558.12,-473.75 679.12,-473.75 679.12,-507.25"/>
<text text-anchor="start" x="566.12" y="-493.75" font-family="Helvetica,sans-Serif" font-size="10.00">include/prismspf/core</text>
<text text-anchor="middle" x="618.62" y="-481" font-family="Helvetica,sans-Serif" font-size="10.00">/pde_operator_base.h</text>
</a>
</g>
</g>
<!-- Node5&#45;&gt;Node6 -->
<g id="edge5_Node000005_Node000006" class="edge">
<title>Node5&#45;&gt;Node6</title>
<g id="a_edge5_Node000005_Node000006"><a xlink:title=" ">
<path fill="none" stroke="#63b8ff" d="M559.77,-536.14C572.12,-526.77 586.13,-516.15 597.38,-507.62"/>
<polygon fill="#63b8ff" stroke="#63b8ff" points="557.78,-533.26 551.92,-542.09 562.01,-538.83 557.78,-533.26"/>
</a>
</g>
</g>
<!-- Node5&#45;&gt;Node7 -->
<g id="edge41_Node000005_Node000007" class="edge">
<title>Node5&#45;&gt;Node7</title>
<g id="a_edge41_Node000005_Node000007"><a xlink:title=" ">
<path fill="none" stroke="#63b8ff" d="M530.46,-531.6C529.54,-512.99 525.21,-489.06 510.62,-473.75 468.99,-430.02 420.81,-481.9 379.62,-437.75 344.03,-399.6 358.37,-330.4 367.4,-299.12"/>
<polygon fill="#63b8ff" stroke="#63b8ff" points="526.96,-531.47 530.63,-541.41 533.96,-531.35 526.96,-531.47"/>
</a>
</g>
</g>
<!-- Node5&#45;&gt;Node14 -->
<g id="edge43_Node000005_Node000014" class="edge">
<title>Node5&#45;&gt;Node14</title>
<g id="a_edge43_Node000005_Node000014"><a xlink:title=" ">
<path fill="none" stroke="#63b8ff" d="M457.72,-545.41C415.01,-536.01 366.23,-522.47 350.62,-507.25 265.6,-424.34 258.1,-264.32 257.61,-223.28"/>
<polygon fill="#63b8ff" stroke="#63b8ff" points="456.71,-548.78 467.23,-547.46 458.18,-541.93 456.71,-548.78"/>
</a>
</g>
</g>
<!-- Node26 -->
<g id="Node000026" class="node">
<title>Node26</title>
<g id="a_Node000026"><a xlink:href="field__container_8cc.html" target="_top" xlink:title=" ">
<polygon fill="white" stroke="#666666" points="501.62,-500.88 359.62,-500.88 359.62,-480.12 501.62,-480.12 501.62,-500.88"/>
<text text-anchor="middle" x="430.62" y="-487.38" font-family="Helvetica,sans-Serif" font-size="10.00">src/core/field_container.cc</text>
</a>
</g>
</g>
<!-- Node5&#45;&gt;Node26 -->
<g id="edge42_Node000005_Node000026" class="edge">
<title>Node5&#45;&gt;Node26</title>
<g id="a_edge42_Node000005_Node000026"><a xlink:title=" ">
<path fill="none" stroke="#63b8ff" d="M496.56,-536.46C479.04,-524.51 458.41,-510.44 444.96,-501.27"/>
<polygon fill="#63b8ff" stroke="#63b8ff" points="494.43,-539.24 504.66,-541.98 498.37,-533.45 494.43,-539.24"/>
</a>
</g>
</g>
<!-- Node6&#45;&gt;Node7 -->
<g id="edge6_Node000006_Node000007" class="edge">
<title>Node6&#45;&gt;Node7</title>
<g id="a_edge6_Node000006_Node000007"><a xlink:title=" ">
<path fill="none" stroke="#63b8ff" d="M546.67,-474.02C486.53,-460.78 409.75,-443.05 404.62,-437.75 367.62,-399.49 368.33,-330.35 370.84,-299.1"/>
<polygon fill="#63b8ff" stroke="#63b8ff" points="545.69,-477.39 556.21,-476.11 547.19,-470.55 545.69,-477.39"/>
</a>
</g>
</g>
<!-- Node6&#45;&gt;Node15 -->
<g id="edge17_Node000006_Node000015" class="edge">
<title>Node6&#45;&gt;Node15</title>
<g id="a_edge17_Node000006_Node000015"><a xlink:title=" ">
<path fill="none" stroke="#63b8ff" d="M690.68,-475.88C754.01,-463.9 845.51,-446.6 907.6,-434.86"/>
<polygon fill="#63b8ff" stroke="#63b8ff" points="690.25,-472.39 681.08,-477.69 691.55,-479.27 690.25,-472.39"/>
</a>
</g>
</g>
<!-- Node6&#45;&gt;Node21 -->
<g id="edge38_Node000006_Node000021" class="edge">
<title>Node6&#45;&gt;Node21</title>
<g id="a_edge38_Node000006_Node000021"><a xlink:title=" ">
<path fill="none" stroke="#63b8ff" d="M666.04,-467.98C679.82,-460 694,-449.88 704.62,-437.75 722.48,-417.36 732.84,-387.02 737.85,-368.57"/>
<polygon fill="#63b8ff" stroke="#63b8ff" points="664.55,-464.81 657.46,-472.69 667.92,-470.95 664.55,-464.81"/>
</a>
</g>
</g>
<!-- Node24 -->
<g id="Node000024" class="node">
<title>Node24</title>
<g id="a_Node000024"><a xlink:href="dirichlet_8cc.html" target="_top" xlink:title=" ">
<polygon fill="white" stroke="#666666" points="523.88,-431.38 413.38,-431.38 413.38,-410.62 523.88,-410.62 523.88,-431.38"/>
<text text-anchor="middle" x="468.62" y="-417.88" font-family="Helvetica,sans-Serif" font-size="10.00">src/core/dirichlet.cc</text>
</a>
</g>
</g>
<!-- Node6&#45;&gt;Node24 -->
<g id="edge39_Node000006_Node000024" class="edge">
<title>Node6&#45;&gt;Node24</title>
<g id="a_edge39_Node000006_Node000024"><a xlink:title=" ">
<path fill="none" stroke="#63b8ff" d="M572.55,-468.76C545.19,-456.45 511.76,-441.41 490.34,-431.77"/>
<polygon fill="#63b8ff" stroke="#63b8ff" points="570.76,-471.8 581.32,-472.71 573.63,-465.42 570.76,-471.8"/>
</a>
</g>
</g>
<!-- Node25 -->
<g id="Node000025" class="node">
<title>Node25</title>
<g id="a_Node000025"><a xlink:href="initial__conditions_8cc.html" target="_top" xlink:title=" ">
<polygon fill="white" stroke="#666666" points="695.62,-431.38 541.62,-431.38 541.62,-410.62 695.62,-410.62 695.62,-431.38"/>
<text text-anchor="middle" x="618.62" y="-417.88" font-family="Helvetica,sans-Serif" font-size="10.00">src/core/initial_conditions.cc</text>
</a>
</g>
</g>
<!-- Node6&#45;&gt;Node25 -->
<g id="edge40_Node000006_Node000025" class="edge">
<title>Node6&#45;&gt;Node25</title>
<g id="a_edge40_Node000006_Node000025"><a xlink:title=" ">
<path fill="none" stroke="#63b8ff" d="M618.62,-462.03C618.62,-451.33 618.62,-439.76 618.62,-431.82"/>
<polygon fill="#63b8ff" stroke="#63b8ff" points="615.13,-461.99 618.63,-471.99 622.13,-461.99 615.13,-461.99"/>
</a>
</g>
</g>
<!-- Node8 -->
<g id="Node000008" class="node">
<title>Node8</title>
<g id="a_Node000008"><a xlink:href="explicit__solver_8h.html" target="_top" xlink:title=" ">
<polygon fill="white" stroke="#666666" points="632.25,-229.25 497,-229.25 497,-195.75 632.25,-195.75 632.25,-229.25"/>
<text text-anchor="start" x="505" y="-215.75" font-family="Helvetica,sans-Serif" font-size="10.00">include/prismspf/solvers</text>
<text text-anchor="middle" x="564.62" y="-203" font-family="Helvetica,sans-Serif" font-size="10.00">/explicit_solver.h</text>
</a>
</g>
</g>
<!-- Node7&#45;&gt;Node8 -->
<g id="edge7_Node000007_Node000008" class="edge">
<title>Node7&#45;&gt;Node8</title>
<g id="a_edge7_Node000007_Node000008"><a xlink:title=" ">
<path fill="none" stroke="#63b8ff" d="M429.23,-261.1C457.73,-251.08 491.83,-239.09 518.68,-229.65"/>
<polygon fill="#63b8ff" stroke="#63b8ff" points="428.31,-257.71 420.04,-264.33 430.64,-264.32 428.31,-257.71"/>
</a>
</g>
</g>
<!-- Node7&#45;&gt;Node12 -->
<g id="edge11_Node000007_Node000012" class="edge">
<title>Node7&#45;&gt;Node12</title>
<g id="a_edge11_Node000007_Node000012"><a xlink:title=" ">
<path fill="none" stroke="#63b8ff" d="M451.81,-266.07C505.43,-255.89 577.84,-241.99 641.62,-229.25 644.27,-228.72 646.96,-228.18 649.68,-227.63"/>
<polygon fill="#63b8ff" stroke="#63b8ff" points="451.33,-262.6 442.16,-267.91 452.63,-269.48 451.33,-262.6"/>
</a>
</g>
</g>
<!-- Node7&#45;&gt;Node13 -->
<g id="edge15_Node000007_Node000013" class="edge">
<title>Node7&#45;&gt;Node13</title>
<g id="a_edge15_Node000007_Node000013"><a xlink:title=" ">
<path fill="none" stroke="#63b8ff" d="M390.24,-255.86C409.87,-227.85 440.99,-183.44 457.5,-159.88"/>
<polygon fill="#63b8ff" stroke="#63b8ff" points="387.57,-253.58 384.69,-263.78 393.3,-257.6 387.57,-253.58"/>
</a>
</g>
</g>
<!-- Node7&#45;&gt;Node14 -->
<g id="edge16_Node000007_Node000014" class="edge">
<title>Node7&#45;&gt;Node14</title>
<g id="a_edge16_Node000007_Node000014"><a xlink:title=" ">
<path fill="none" stroke="#63b8ff" d="M335.34,-259.12C314.75,-247.03 290.19,-232.61 274.27,-223.27"/>
<polygon fill="#63b8ff" stroke="#63b8ff" points="333.38,-262.02 343.77,-264.07 336.92,-255.99 333.38,-262.02"/>
</a>
</g>
</g>
<!-- Node9 -->
<g id="Node000009" class="node">
<title>Node9</title>
<g id="a_Node000009"><a xlink:href="solvers_8h.html" target="_top" xlink:title=" ">
<polygon fill="white" stroke="#666666" points="785.25,-90.25 650,-90.25 650,-56.75 785.25,-56.75 785.25,-90.25"/>
<text text-anchor="start" x="658" y="-76.75" font-family="Helvetica,sans-Serif" font-size="10.00">include/prismspf/solvers</text>
<text text-anchor="middle" x="717.62" y="-64" font-family="Helvetica,sans-Serif" font-size="10.00">/solvers.h</text>
</a>
</g>
</g>
<!-- Node8&#45;&gt;Node9 -->
<g id="edge8_Node000008_Node000009" class="edge">
<title>Node8&#45;&gt;Node9</title>
<g id="a_edge8_Node000008_Node000009"><a xlink:title=" ">
<path fill="none" stroke="#63b8ff" d="M590.68,-188.17C621.8,-160.3 673.01,-114.45 699.89,-90.38"/>
<polygon fill="#63b8ff" stroke="#63b8ff" points="588.72,-185.23 583.6,-194.51 593.39,-190.44 588.72,-185.23"/>
</a>
</g>
</g>
<!-- Node10 -->
<g id="Node000010" class="node">
<title>Node10</title>
<g id="a_Node000010"><a xlink:href="problem_8cc.html" target="_top" xlink:title=" ">
<polygon fill="white" stroke="#666666" points="1027.25,-20.75 916,-20.75 916,0 1027.25,0 1027.25,-20.75"/>
<text text-anchor="middle" x="971.62" y="-7.25" font-family="Helvetica,sans-Serif" font-size="10.00">src/core/problem.cc</text>
</a>
</g>
</g>
<!-- Node9&#45;&gt;Node10 -->
<g id="edge9_Node000009_Node000010" class="edge">
<title>Node9&#45;&gt;Node10</title>
<g id="a_edge9_Node000009_Node000010"><a xlink:title=" ">
<path fill="none" stroke="#63b8ff" d="M796.15,-53.6C840.75,-42.87 894.73,-29.88 930.94,-21.17"/>
<polygon fill="#63b8ff" stroke="#63b8ff" points="795.4,-50.18 786.5,-55.93 797.04,-56.99 795.4,-50.18"/>
</a>
</g>
</g>
<!-- Node11 -->
<g id="Node000011" class="node">
<title>Node11</title>
<g id="a_Node000011"><a xlink:href="solvers_8cc.html" target="_top" xlink:title=" ">
<polygon fill="white" stroke="#666666" points="777.75,-20.75 657.5,-20.75 657.5,0 777.75,0 777.75,-20.75"/>
<text text-anchor="middle" x="717.62" y="-7.25" font-family="Helvetica,sans-Serif" font-size="10.00">src/solvers/solvers.cc</text>
</a>
</g>
</g>
<!-- Node9&#45;&gt;Node11 -->
<g id="edge10_Node000009_Node000011" class="edge">
<title>Node9&#45;&gt;Node11</title>
<g id="a_edge10_Node000009_Node000011"><a xlink:title=" ">
<path fill="none" stroke="#63b8ff" d="M717.62,-44.94C717.62,-36.46 717.62,-27.67 717.62,-21.22"/>
<polygon fill="#63b8ff" stroke="#63b8ff" points="714.13,-44.93 717.63,-54.93 721.13,-44.93 714.13,-44.93"/>
</a>
</g>
</g>
<!-- Node12&#45;&gt;Node9 -->
<g id="edge14_Node000012_Node000009" class="edge">
<title>Node12&#45;&gt;Node9</title>
<g id="a_edge14_Node000012_Node000009"><a xlink:title=" ">
<path fill="none" stroke="#63b8ff" d="M717.62,-184.12C717.62,-156.04 717.62,-113.32 717.62,-90.38"/>
<polygon fill="#63b8ff" stroke="#63b8ff" points="714.13,-184 717.63,-194 721.13,-184 714.13,-184"/>
</a>
</g>
</g>
<!-- Node12&#45;&gt;Node13 -->
<g id="edge12_Node000012_Node000013" class="edge">
<title>Node12&#45;&gt;Node13</title>
<g id="a_edge12_Node000012_Node000013"><a xlink:title=" ">
<path fill="none" stroke="#63b8ff" d="M647.12,-192.39C609.6,-182.22 563.95,-169.84 528.21,-160.15"/>
<polygon fill="#63b8ff" stroke="#63b8ff" points="645.96,-195.7 656.52,-194.94 647.79,-188.94 645.96,-195.7"/>
</a>
</g>
</g>
<!-- Node13&#45;&gt;Node9 -->
<g id="edge13_Node000013_Node000009" class="edge">
<title>Node13&#45;&gt;Node9</title>
<g id="a_edge13_Node000013_Node000009"><a xlink:title=" ">
<path fill="none" stroke="#63b8ff" d="M539.13,-122.89C576.65,-112.72 622.3,-100.34 658.04,-90.65"/>
<polygon fill="#63b8ff" stroke="#63b8ff" points="538.46,-119.44 529.73,-125.44 540.29,-126.2 538.46,-119.44"/>
</a>
</g>
</g>
<!-- Node16 -->
<g id="Node000016" class="node">
<title>Node16</title>
<g id="a_Node000016"><a xlink:href="problem_8h.html" target="_top" xlink:title=" ">
<polygon fill="white" stroke="#666666" points="1115.12,-229.25 994.12,-229.25 994.12,-195.75 1115.12,-195.75 1115.12,-229.25"/>
<text text-anchor="start" x="1002.12" y="-215.75" font-family="Helvetica,sans-Serif" font-size="10.00">include/prismspf/core</text>
<text text-anchor="middle" x="1054.62" y="-203" font-family="Helvetica,sans-Serif" font-size="10.00">/problem.h</text>
</a>
</g>
</g>
<!-- Node15&#45;&gt;Node16 -->
<g id="edge18_Node000015_Node000016" class="edge">
<title>Node15&#45;&gt;Node16</title>
<g id="a_edge18_Node000015_Node000016"><a xlink:title=" ">
<path fill="none" stroke="#63b8ff" d="M1032.55,-398.63C1045.31,-391.04 1057.24,-381.09 1064.62,-368.25 1090.27,-323.68 1072.08,-259.47 1061.19,-229.74"/>
<polygon fill="#63b8ff" stroke="#63b8ff" points="1031.14,-395.41 1024.02,-403.25 1034.48,-401.56 1031.14,-395.41"/>
</a>
</g>
</g>
<!-- Node15&#45;&gt;Node17 -->
<g id="edge20_Node000015_Node000017" class="edge">
<title>Node15&#45;&gt;Node17</title>
<g id="a_edge20_Node000015_Node000017"><a xlink:title=" ">
<path fill="none" stroke="#63b8ff" d="M1031.73,-399.62C1052.94,-391.04 1076.94,-380.26 1097.62,-368.25 1118.88,-355.91 1119.61,-345.67 1141.62,-334.75 1163.13,-324.09 1218.63,-309.26 1263.62,-298.21"/>
<polygon fill="#63b8ff" stroke="#63b8ff" points="1030.66,-396.28 1022.65,-403.22 1033.24,-402.79 1030.66,-396.28"/>
</a>
</g>
</g>
<!-- Node15&#45;&gt;Node18 -->
<g id="edge22_Node000015_Node000018" class="edge">
<title>Node15&#45;&gt;Node18</title>
<g id="a_edge22_Node000015_Node000018"><a xlink:title=" ">
<path fill="none" stroke="#63b8ff" d="M1042.62,-400.76C1077.95,-390.61 1120.8,-378.3 1154.39,-368.65"/>
<polygon fill="#63b8ff" stroke="#63b8ff" points="1042.01,-397.29 1033.37,-403.41 1043.95,-404.02 1042.01,-397.29"/>
</a>
</g>
</g>
<!-- Node20 -->
<g id="Node000020" class="node">
<title>Node20</title>
<g id="a_Node000020"><a xlink:href="nucleation__manager_8h.html" target="_top" xlink:title=" ">
<polygon fill="white" stroke="#666666" points="1055.12,-368.25 904.12,-368.25 904.12,-334.75 1055.12,-334.75 1055.12,-368.25"/>
<text text-anchor="start" x="912.12" y="-354.75" font-family="Helvetica,sans-Serif" font-size="10.00">include/prismspf/nucleation</text>
<text text-anchor="middle" x="979.62" y="-342" font-family="Helvetica,sans-Serif" font-size="10.00">/nucleation_manager.h</text>
</a>
</g>
</g>
<!-- Node15&#45;&gt;Node20 -->
<g id="edge26_Node000015_Node000020" class="edge">
<title>Node15&#45;&gt;Node20</title>
<g id="a_edge26_Node000015_Node000020"><a xlink:title=" ">
<path fill="none" stroke="#63b8ff" d="M977.25,-392.56C977.74,-384.34 978.26,-375.59 978.68,-368.38"/>
<polygon fill="#63b8ff" stroke="#63b8ff" points="973.76,-392.3 976.66,-402.49 980.75,-392.72 973.76,-392.3"/>
</a>
</g>
</g>
<!-- Node15&#45;&gt;Node21 -->
<g id="edge28_Node000015_Node000021" class="edge">
<title>Node15&#45;&gt;Node21</title>
<g id="a_edge28_Node000015_Node000021"><a xlink:title=" ">
<path fill="none" stroke="#63b8ff" d="M908.92,-400.76C873.74,-390.61 831.06,-378.3 797.62,-368.65"/>
<polygon fill="#63b8ff" stroke="#63b8ff" points="907.54,-404 918.12,-403.41 909.48,-397.28 907.54,-404"/>
</a>
</g>
</g>
<!-- Node16&#45;&gt;Node10 -->
<g id="edge19_Node000016_Node000010" class="edge">
<title>Node16&#45;&gt;Node10</title>
<g id="a_edge19_Node000016_Node000010"><a xlink:title=" ">
<path fill="none" stroke="#63b8ff" d="M1043.65,-185.03C1024.95,-139.96 987.79,-50.35 975.6,-20.96"/>
<polygon fill="#63b8ff" stroke="#63b8ff" points="1040.33,-186.17 1047.39,-194.06 1046.8,-183.49 1040.33,-186.17"/>
</a>
</g>
</g>
<!-- Node17&#45;&gt;Node16 -->
<g id="edge21_Node000017_Node000016" class="edge">
<title>Node17&#45;&gt;Node16</title>
<g id="a_edge21_Node000017_Node000016"><a xlink:title=" ">
<path fill="none" stroke="#63b8ff" d="M1252.63,-262.28C1209.33,-251.61 1155.81,-238.43 1115.34,-228.46"/>
<polygon fill="#63b8ff" stroke="#63b8ff" points="1251.67,-265.65 1262.22,-264.64 1253.35,-258.85 1251.67,-265.65"/>
</a>
</g>
</g>
<!-- Node18&#45;&gt;Node10 -->
<g id="edge24_Node000018_Node000010" class="edge">
<title>Node18&#45;&gt;Node10</title>
<g id="a_edge24_Node000018_Node000010"><a xlink:title=" ">
<path fill="none" stroke="#63b8ff" d="M1282.45,-348.72C1323.07,-343.88 1371.75,-331.01 1402.62,-298.75 1429.46,-270.7 1421.62,-252.32 1421.62,-213.5 1421.62,-213.5 1421.62,-213.5 1421.62,-142 1421.62,-60.85 1148.34,-26.85 1027.71,-15.8"/>
<polygon fill="#63b8ff" stroke="#63b8ff" points="1282.32,-345.22 1272.73,-349.73 1283.04,-352.18 1282.32,-345.22"/>
</a>
</g>
</g>
<!-- Node18&#45;&gt;Node18 -->
<g id="edge23_Node000018_Node000018" class="edge">
<title>Node18&#45;&gt;Node18</title>
<g id="a_edge23_Node000018_Node000018"><a xlink:title=" ">
<path fill="none" stroke="#63b8ff" d="M1282.34,-360.45C1286.58,-358.31 1289.12,-355.33 1289.12,-351.5 1289.12,-345.05 1281.92,-341 1271.52,-339.33"/>
<polygon fill="#63b8ff" stroke="#63b8ff" points="1281.56,-357.04 1272.97,-363.23 1283.55,-363.75 1281.56,-357.04"/>
</a>
</g>
</g>
<!-- Node19 -->
<g id="Node000019" class="node">
<title>Node19</title>
<g id="a_Node000019"><a xlink:href="solution__output_8cc.html" target="_top" xlink:title=" ">
<polygon fill="white" stroke="#666666" points="1245.88,-292.38 1099.38,-292.38 1099.38,-271.62 1245.88,-271.62 1245.88,-292.38"/>
<text text-anchor="middle" x="1172.62" y="-278.88" font-family="Helvetica,sans-Serif" font-size="10.00">src/core/solution_output.cc</text>
</a>
</g>
</g>
<!-- Node18&#45;&gt;Node19 -->
<g id="edge25_Node000018_Node000019" class="edge">
<title>Node18&#45;&gt;Node19</title>
<g id="a_edge25_Node000018_Node000019"><a xlink:title=" ">
<path fill="none" stroke="#63b8ff" d="M1196.13,-324.75C1189.85,-313.59 1182.86,-301.19 1178.15,-292.82"/>
<polygon fill="#63b8ff" stroke="#63b8ff" points="1192.92,-326.19 1200.88,-333.18 1199.02,-322.75 1192.92,-326.19"/>
</a>
</g>
</g>
<!-- Node20&#45;&gt;Node16 -->
<g id="edge27_Node000020_Node000016" class="edge">
<title>Node20&#45;&gt;Node16</title>
<g id="a_edge27_Node000020_Node000016"><a xlink:title=" ">
<path fill="none" stroke="#63b8ff" d="M993.79,-324.62C1009.14,-296.58 1033.15,-252.73 1045.93,-229.38"/>
<polygon fill="#63b8ff" stroke="#63b8ff" points="990.83,-322.74 989.1,-333.19 996.97,-326.1 990.83,-322.74"/>
</a>
</g>
</g>
<!-- Node21&#45;&gt;Node7 -->
<g id="edge34_Node000021_Node000007" class="edge">
<title>Node21&#45;&gt;Node7</title>
<g id="a_edge34_Node000021_Node000007"><a xlink:title=" ">
<path fill="none" stroke="#63b8ff" d="M662.64,-335.31C661.63,-335.12 660.62,-334.93 659.62,-334.75 568.64,-318.03 545.61,-315.47 454.62,-298.75 450.06,-297.91 445.36,-297.04 440.62,-296.15"/>
<polygon fill="#63b8ff" stroke="#63b8ff" points="661.67,-338.68 672.14,-337.08 662.95,-331.8 661.67,-338.68"/>
</a>
</g>
</g>
<!-- Node21&#45;&gt;Node8 -->
<g id="edge32_Node000021_Node000008" class="edge">
<title>Node21&#45;&gt;Node8</title>
<g id="a_edge32_Node000021_Node000008"><a xlink:title=" ">
<path fill="none" stroke="#63b8ff" d="M662.96,-333.3C641.42,-325.57 619.41,-314.51 602.62,-298.75 582.54,-279.89 572.38,-248.49 567.81,-229.51"/>
<polygon fill="#63b8ff" stroke="#63b8ff" points="661.78,-336.59 672.38,-336.45 664.01,-329.96 661.78,-336.59"/>
</a>
</g>
</g>
<!-- Node21&#45;&gt;Node10 -->
<g id="edge36_Node000021_Node000010" class="edge">
<title>Node21&#45;&gt;Node10</title>
<g id="a_edge36_Node000021_Node000010"><a xlink:title=" ">
<path fill="none" stroke="#63b8ff" d="M813.13,-330.58C867,-310.71 931.62,-274.21 931.62,-213.5 931.62,-213.5 931.62,-213.5 931.62,-142 931.62,-95.04 955.55,-42.58 966.4,-21.22"/>
<polygon fill="#63b8ff" stroke="#63b8ff" points="812.21,-327.2 803.95,-333.83 814.55,-333.79 812.21,-327.2"/>
</a>
</g>
</g>
<!-- Node21&#45;&gt;Node12 -->
<g id="edge33_Node000021_Node000012" class="edge">
<title>Node21&#45;&gt;Node12</title>
<g id="a_edge33_Node000021_Node000012"><a xlink:title=" ">
<path fill="none" stroke="#63b8ff" d="M736.89,-323.5C731.98,-295.42 724.44,-252.42 720.41,-229.38"/>
<polygon fill="#63b8ff" stroke="#63b8ff" points="733.39,-323.78 738.56,-333.03 740.29,-322.57 733.39,-323.78"/>
</a>
</g>
</g>
<!-- Node21&#45;&gt;Node13 -->
<g id="edge35_Node000021_Node000013" class="edge">
<title>Node21&#45;&gt;Node13</title>
<g id="a_edge35_Node000021_Node000013"><a xlink:title=" ">
<path fill="none" stroke="#63b8ff" d="M662.48,-332.22C634.17,-324.05 602.62,-312.98 575.62,-298.75 531.54,-275.5 514.13,-271.45 487.62,-229.25 474.16,-207.81 470.17,-178.06 469.03,-159.97"/>
<polygon fill="#63b8ff" stroke="#63b8ff" points="661.53,-335.59 672.11,-334.92 663.42,-328.85 661.53,-335.59"/>
</a>
</g>
</g>
<!-- Node21&#45;&gt;Node17 -->
<g id="edge29_Node000021_Node000017" class="edge">
<title>Node21&#45;&gt;Node17</title>
<g id="a_edge29_Node000021_Node000017"><a xlink:title=" ">
<path fill="none" stroke="#63b8ff" d="M820.85,-342.3C844.57,-339.86 870.65,-337.18 894.62,-334.75 1054.6,-318.52 1095.75,-323.52 1254.62,-298.75 1257.61,-298.28 1260.66,-297.78 1263.73,-297.23"/>
<polygon fill="#63b8ff" stroke="#63b8ff" points="820.5,-338.82 810.91,-343.32 821.22,-345.78 820.5,-338.82"/>
</a>
</g>
</g>
<!-- Node22 -->
<g id="Node000022" class="node">
<title>Node22</title>
<g id="a_Node000022"><a xlink:href="constant__solver_8h.html" target="_top" xlink:title=" ">
<polygon fill="white" stroke="#666666" points="881.25,-159.75 746,-159.75 746,-126.25 881.25,-126.25 881.25,-159.75"/>
<text text-anchor="start" x="754" y="-146.25" font-family="Helvetica,sans-Serif" font-size="10.00">include/prismspf/solvers</text>
<text text-anchor="middle" x="813.62" y="-133.5" font-family="Helvetica,sans-Serif" font-size="10.00">/constant_solver.h</text>
</a>
</g>
</g>
<!-- Node21&#45;&gt;Node22 -->
<g id="edge30_Node000021_Node000022" class="edge">
<title>Node21&#45;&gt;Node22</title>
<g id="a_edge30_Node000021_Node000022"><a xlink:title=" ">
<path fill="none" stroke="#63b8ff" d="M754.85,-324.28C766.61,-300.1 783.62,-262.96 794.62,-229.25 802.35,-205.61 807.97,-177.27 811.02,-159.96"/>
<polygon fill="#63b8ff" stroke="#63b8ff" points="751.8,-322.54 750.52,-333.06 758.08,-325.64 751.8,-322.54"/>
</a>
</g>
</g>
<!-- Node23 -->
<g id="Node000023" class="node">
<title>Node23</title>
<g id="a_Node000023"><a xlink:href="solver__base_8cc.html" target="_top" xlink:title=" ">
<polygon fill="white" stroke="#666666" points="713.38,-298.75 611.88,-298.75 611.88,-265.25 713.38,-265.25 713.38,-298.75"/>
<text text-anchor="start" x="619.88" y="-285.25" font-family="Helvetica,sans-Serif" font-size="10.00">src/solvers/solver</text>
<text text-anchor="middle" x="662.62" y="-272.5" font-family="Helvetica,sans-Serif" font-size="10.00">_base.cc</text>
</a>
</g>
</g>
<!-- Node21&#45;&gt;Node23 -->
<g id="edge37_Node000021_Node000023" class="edge">
<title>Node21&#45;&gt;Node23</title>
<g id="a_edge37_Node000021_Node000023"><a xlink:title=" ">
<path fill="none" stroke="#63b8ff" d="M714.22,-327.09C703.42,-317.85 691.28,-307.48 681.49,-299.12"/>
<polygon fill="#63b8ff" stroke="#63b8ff" points="711.88,-329.69 721.75,-333.52 716.42,-324.36 711.88,-329.69"/>
</a>
</g>
</g>
<!-- Node22&#45;&gt;Node9 -->
<g id="edge31_Node000022_Node000009" class="edge">
<title>Node22&#45;&gt;Node9</title>
<g id="a_edge31_Node000022_Node000009"><a xlink:title=" ">
<path fill="none" stroke="#63b8ff" d="M781.5,-119.41C768.08,-109.98 752.8,-99.23 740.55,-90.62"/>
<polygon fill="#63b8ff" stroke="#63b8ff" points="779.44,-122.24 789.64,-125.13 783.47,-116.52 779.44,-122.24"/>
</a>
</g>
</g>
<!-- Node29&#45;&gt;Node3 -->
<g id="edge56_Node000029_Node000003" class="edge">
<title>Node29&#45;&gt;Node3</title>
<g id="a_edge56_Node000029_Node000003"><a xlink:title=" ">
<path fill="none" stroke="#63b8ff" d="M956.6,-757.07C859.37,-744.07 694.59,-722.05 600.71,-709.5"/>
<polygon fill="#63b8ff" stroke="#63b8ff" points="955.95,-760.52 966.33,-758.37 956.88,-753.58 955.95,-760.52"/>
</a>
</g>
</g>
<!-- Node29&#45;&gt;Node7 -->
<g id="edge61_Node000029_Node000007" class="edge">
<title>Node29&#45;&gt;Node7</title>
<g id="a_edge61_Node000029_Node000007"><a xlink:title=" ">
<path fill="none" stroke="#63b8ff" d="M1014.92,-742.9C955.79,-669.57 779.39,-454.5 704.62,-404.25 622.12,-348.8 511.09,-314.97 440.67,-297.61"/>
<polygon fill="#63b8ff" stroke="#63b8ff" points="1011.9,-744.73 1020.9,-750.33 1017.35,-740.34 1011.9,-744.73"/>
</a>
</g>
</g>
<!-- Node29&#45;&gt;Node15 -->
<g id="edge62_Node000029_Node000015" class="edge">
<title>Node29&#45;&gt;Node15</title>
<g id="a_edge62_Node000029_Node000015"><a xlink:title=" ">
<path fill="none" stroke="#63b8ff" d="M1040.61,-740.51C1046.18,-712.98 1053.62,-668.99 1053.62,-630.5 1053.62,-630.5 1053.62,-630.5 1053.62,-559 1053.62,-509.73 1015.06,-462.02 992.17,-438.03"/>
<polygon fill="#63b8ff" stroke="#63b8ff" points="1037.22,-739.58 1038.6,-750.09 1044.08,-741.02 1037.22,-739.58"/>
</a>
</g>
</g>
<!-- Node29&#45;&gt;Node17 -->
<g id="edge60_Node000029_Node000017" class="edge">
<title>Node29&#45;&gt;Node17</title>
<g id="a_edge60_Node000029_Node000017"><a xlink:title=" ">
<path fill="none" stroke="#63b8ff" d="M1052.23,-742.23C1068.97,-715.68 1091.62,-672.07 1091.62,-630.5 1091.62,-630.5 1091.62,-630.5 1091.62,-559 1091.62,-433.89 1229.82,-472.74 1298.62,-368.25 1312.95,-346.5 1321.31,-317.11 1325.42,-299.14"/>
<polygon fill="#63b8ff" stroke="#63b8ff" points="1049.52,-739.97 1046.99,-750.26 1055.38,-743.8 1049.52,-739.97"/>
</a>
</g>
</g>
<!-- Node30 -->
<g id="Node000030" class="node">
<title>Node30</title>
<g id="a_Node000030"><a xlink:href="invm__manager_8h.html" target="_top" xlink:title=" ">
<polygon fill="white" stroke="#666666" points="987.12,-507.25 866.12,-507.25 866.12,-473.75 987.12,-473.75 987.12,-507.25"/>
<text text-anchor="start" x="874.12" y="-493.75" font-family="Helvetica,sans-Serif" font-size="10.00">include/prismspf/core</text>
<text text-anchor="middle" x="926.62" y="-481" font-family="Helvetica,sans-Serif" font-size="10.00">/invm_manager.h</text>
</a>
</g>
</g>
<!-- Node29&#45;&gt;Node30 -->
<g id="edge57_Node000029_Node000030" class="edge">
<title>Node29&#45;&gt;Node30</title>
<g id="a_edge57_Node000029_Node000030"><a xlink:title=" ">
<path fill="none" stroke="#63b8ff" d="M1024.21,-740.87C1002.04,-684.24 950.8,-553.27 932.92,-507.58"/>
<polygon fill="#63b8ff" stroke="#63b8ff" points="1020.9,-742.02 1027.8,-750.06 1027.42,-739.47 1020.9,-742.02"/>
</a>
</g>
</g>
<!-- Node30&#45;&gt;Node12 -->
<g id="edge58_Node000030_Node000012" class="edge">
<title>Node30&#45;&gt;Node12</title>
<g id="a_edge58_Node000030_Node000012"><a xlink:title=" ">
<path fill="none" stroke="#63b8ff" d="M911.15,-463.68C906.7,-455.57 902.11,-446.45 898.62,-437.75 869.08,-363.99 904.86,-324.24 851.62,-265.25 834.42,-246.18 809.36,-234.08 785.56,-226.42"/>
<polygon fill="#63b8ff" stroke="#63b8ff" points="908.08,-465.37 916.06,-472.33 914.16,-461.91 908.08,-465.37"/>
</a>
</g>
</g>
<!-- Node30&#45;&gt;Node15 -->
<g id="edge59_Node000030_Node000015" class="edge">
<title>Node30&#45;&gt;Node15</title>
<g id="a_edge59_Node000030_Node000015"><a xlink:title=" ">
<path fill="none" stroke="#63b8ff" d="M944.89,-464.34C951.32,-455.48 958.37,-445.77 964.1,-437.88"/>
<polygon fill="#63b8ff" stroke="#63b8ff" points="942.17,-462.13 939.13,-472.28 947.83,-466.24 942.17,-462.13"/>
</a>
</g>
</g>
</g>
</svg>
