<?xml version="1.0" encoding="UTF-8" standalone="no"?>
<!DOCTYPE svg PUBLIC "-//W3C//DTD SVG 1.1//EN"
 "http://www.w3.org/Graphics/SVG/1.1/DTD/svg11.dtd">
<!-- Generated by graphviz version 12.2.1 (20241206.2353)
 -->
<!-- Title: applications/blank/equations.cc Pages: 1 -->
<svg width="988pt" height="181pt"
 viewBox="0.00 0.00 987.88 180.50" xmlns="http://www.w3.org/2000/svg" xmlns:xlink="http://www.w3.org/1999/xlink">
<g id="graph0" class="graph" transform="scale(1 1) rotate(0) translate(4 176.5)">
<title>applications/blank/equations.cc</title>
<!-- Node1 -->
<g id="Node000001" class="node">
<title>Node1</title>
<g id="a_Node000001"><a xlink:title=" ">
<polygon fill="#999999" stroke="#666666" points="679.38,-172.5 574.12,-172.5 574.12,-139 679.38,-139 679.38,-172.5"/>
<text text-anchor="start" x="582.12" y="-159" font-family="Helvetica,sans-Serif" font-size="10.00">applications/blank</text>
<text text-anchor="middle" x="626.75" y="-146.25" font-family="Helvetica,sans-Serif" font-size="10.00">/equations.cc</text>
</a>
</g>
</g>
<!-- Node2 -->
<g id="Node000002" class="node">
<title>Node2</title>
<g id="a_Node000002"><a xlink:href="blank_2custom__pde_8h.html" target="_top" xlink:title=" ">
<polygon fill="white" stroke="#666666" points="557.88,-96.62 473.62,-96.62 473.62,-75.88 557.88,-75.88 557.88,-96.62"/>
<text text-anchor="middle" x="515.75" y="-83.12" font-family="Helvetica,sans-Serif" font-size="10.00">custom_pde.h</text>
</a>
</g>
</g>
<!-- Node1&#45;&gt;Node2 -->
<g id="edge1_Node000001_Node000002" class="edge">
<title>Node1&#45;&gt;Node2</title>
<g id="a_edge1_Node000001_Node000002"><a xlink:title=" ">
<path fill="none" stroke="#63b8ff" d="M600.16,-138.58C582.36,-127.76 559.06,-113.59 541.45,-102.88"/>
<polygon fill="#63b8ff" stroke="#63b8ff" points="543.47,-100.01 533.11,-97.81 539.84,-105.99 543.47,-100.01"/>
</a>
</g>
</g>
<!-- Node5 -->
<g id="Node000005" class="node">
<title>Node5</title>
<g id="a_Node000005"><a xlink:title=" ">
<polygon fill="#e0e0e0" stroke="#999999" points="125.5,-33.5 0,-33.5 0,0 125.5,0 125.5,-33.5"/>
<text text-anchor="start" x="8" y="-20" font-family="Helvetica,sans-Serif" font-size="10.00">prismspf/core/variable</text>
<text text-anchor="middle" x="62.75" y="-7.25" font-family="Helvetica,sans-Serif" font-size="10.00">_attribute_loader.h</text>
</a>
</g>
</g>
<!-- Node1&#45;&gt;Node5 -->
<g id="edge10_Node000001_Node000005" class="edge">
<title>Node1&#45;&gt;Node5</title>
<g id="a_edge10_Node000001_Node000005"><a xlink:title=" ">
<path fill="none" stroke="#63b8ff" d="M573.69,-141.86C472.61,-117.31 252.25,-63.78 136.74,-35.72"/>
<polygon fill="#63b8ff" stroke="#63b8ff" points="137.92,-32.41 127.37,-33.45 136.26,-39.21 137.92,-32.41"/>
</a>
</g>
</g>
<!-- Node9 -->
<g id="Node000009" class="node">
<title>Node9</title>
<g id="a_Node000009"><a xlink:title=" ">
<polygon fill="#e0e0e0" stroke="#999999" points="971.75,-27.12 871.75,-27.12 871.75,-6.38 971.75,-6.38 971.75,-27.12"/>
<text text-anchor="middle" x="921.75" y="-13.62" font-family="Helvetica,sans-Serif" font-size="10.00">prismspf/config.h</text>
</a>
</g>
</g>
<!-- Node1&#45;&gt;Node9 -->
<g id="edge12_Node000001_Node000009" class="edge">
<title>Node1&#45;&gt;Node9</title>
<g id="a_edge12_Node000001_Node000009"><a xlink:title=" ">
<path fill="none" stroke="#63b8ff" d="M614.98,-138.66C602.81,-119.9 587.79,-88.99 604.75,-69.5 642.75,-25.83 806.01,-44.99 862.75,-33.5 867.31,-32.58 872.04,-31.51 876.75,-30.37"/>
<polygon fill="#63b8ff" stroke="#63b8ff" points="877.3,-33.84 886.13,-28 875.58,-27.05 877.3,-33.84"/>
</a>
</g>
</g>
<!-- Node10 -->
<g id="Node000010" class="node">
<title>Node10</title>
<g id="a_Node000010"><a xlink:title=" ">
<polygon fill="#e0e0e0" stroke="#999999" points="721.5,-103 614,-103 614,-69.5 721.5,-69.5 721.5,-103"/>
<text text-anchor="start" x="622" y="-89.5" font-family="Helvetica,sans-Serif" font-size="10.00">prismspf/core/type</text>
<text text-anchor="middle" x="667.75" y="-76.75" font-family="Helvetica,sans-Serif" font-size="10.00">_enums.h</text>
</a>
</g>
</g>
<!-- Node1&#45;&gt;Node10 -->
<g id="edge9_Node000001_Node000010" class="edge">
<title>Node1&#45;&gt;Node10</title>
<g id="a_edge9_Node000001_Node000010"><a xlink:title=" ">
<path fill="none" stroke="#63b8ff" d="M636.47,-138.75C641.16,-131.02 646.92,-121.55 652.2,-112.84"/>
<polygon fill="#63b8ff" stroke="#63b8ff" points="655.12,-114.79 657.32,-104.43 649.13,-111.16 655.12,-114.79"/>
</a>
</g>
</g>
<!-- Node11 -->
<g id="Node000011" class="node">
<title>Node11</title>
<g id="a_Node000011"><a xlink:title=" ">
<polygon fill="#e0e0e0" stroke="#999999" points="865.5,-103 740,-103 740,-69.5 865.5,-69.5 865.5,-103"/>
<text text-anchor="start" x="748" y="-89.5" font-family="Helvetica,sans-Serif" font-size="10.00">prismspf/core/variable</text>
<text text-anchor="middle" x="802.75" y="-76.75" font-family="Helvetica,sans-Serif" font-size="10.00">_container.h</text>
</a>
</g>
</g>
<!-- Node1&#45;&gt;Node11 -->
<g id="edge11_Node000001_Node000011" class="edge">
<title>Node1&#45;&gt;Node11</title>
<g id="a_edge11_Node000001_Node000011"><a xlink:title=" ">
<path fill="none" stroke="#63b8ff" d="M668.91,-138.58C693.31,-129.22 724.23,-117.36 750.21,-107.4"/>
<polygon fill="#63b8ff" stroke="#63b8ff" points="751.14,-110.79 759.22,-103.94 748.63,-104.26 751.14,-110.79"/>
</a>
</g>
</g>
<!-- Node12 -->
<g id="Node000012" class="node">
<title>Node12</title>
<g id="a_Node000012"><a xlink:title=" ">
<polygon fill="#e0e0e0" stroke="#999999" points="979.88,-96.62 883.62,-96.62 883.62,-75.88 979.88,-75.88 979.88,-96.62"/>
<text text-anchor="middle" x="931.75" y="-83.12" font-family="Helvetica,sans-Serif" font-size="10.00">custom_pde.inst</text>
</a>
</g>
</g>
<!-- Node1&#45;&gt;Node12 -->
<g id="edge13_Node000001_Node000012" class="edge">
<title>Node1&#45;&gt;Node12</title>
<g id="a_edge13_Node000001_Node000012"><a xlink:title=" ">
<path fill="none" stroke="#63b8ff" d="M679.7,-144.72C730.06,-134.94 807.85,-119.2 874.75,-103 878.56,-102.08 882.5,-101.08 886.44,-100.05"/>
<polygon fill="#63b8ff" stroke="#63b8ff" points="887.26,-103.46 896.02,-97.49 885.45,-96.69 887.26,-103.46"/>
</a>
</g>
</g>
<!-- Node3 -->
<g id="Node000003" class="node">
<title>Node3</title>
<g id="a_Node000003"><a xlink:title=" ">
<polygon fill="#e0e0e0" stroke="#999999" points="302,-27.12 143.5,-27.12 143.5,-6.38 302,-6.38 302,-27.12"/>
<text text-anchor="middle" x="222.75" y="-13.62" font-family="Helvetica,sans-Serif" font-size="10.00">prismspf/core/pde_operator.h</text>
</a>
</g>
</g>
<!-- Node2&#45;&gt;Node3 -->
<g id="edge2_Node000002_Node000003" class="edge">
<title>Node2&#45;&gt;Node3</title>
<g id="a_edge2_Node000002_Node000003"><a xlink:title=" ">
<path fill="none" stroke="#63b8ff" d="M473.15,-75.43C421.07,-63.44 332.9,-43.13 276.29,-30.08"/>
<polygon fill="#63b8ff" stroke="#63b8ff" points="277.41,-26.75 266.88,-27.92 275.84,-33.57 277.41,-26.75"/>
</a>
</g>
</g>
<!-- Node4 -->
<g id="Node000004" class="node">
<title>Node4</title>
<g id="a_Node000004"><a xlink:title=" ">
<polygon fill="#e0e0e0" stroke="#999999" points="435.25,-33.5 320.25,-33.5 320.25,0 435.25,0 435.25,-33.5"/>
<text text-anchor="start" x="328.25" y="-20" font-family="Helvetica,sans-Serif" font-size="10.00">prismspf/core/phase</text>
<text text-anchor="middle" x="377.75" y="-7.25" font-family="Helvetica,sans-Serif" font-size="10.00">_field_tools.h</text>
</a>
</g>
</g>
<!-- Node2&#45;&gt;Node4 -->
<g id="edge3_Node000002_Node000004" class="edge">
<title>Node2&#45;&gt;Node4</title>
<g id="a_edge3_Node000002_Node000004"><a xlink:title=" ">
<path fill="none" stroke="#63b8ff" d="M495.68,-75.43C476.26,-65.93 446.17,-51.22 421.25,-39.03"/>
<polygon fill="#63b8ff" stroke="#63b8ff" points="422.81,-35.89 412.29,-34.64 419.73,-42.18 422.81,-35.89"/>
</a>
</g>
</g>
<!-- Node2&#45;&gt;Node5 -->
<g id="edge4_Node000002_Node000005" class="edge">
<title>Node2&#45;&gt;Node5</title>
<g id="a_edge4_Node000002_Node000005"><a xlink:title=" ">
<path fill="none" stroke="#63b8ff" d="M473.29,-80.61C404.74,-72.88 265.2,-56.12 137.08,-33.83"/>
<polygon fill="#63b8ff" stroke="#63b8ff" points="137.85,-30.41 127.4,-32.13 136.64,-37.31 137.85,-30.41"/>
</a>
</g>
</g>
<!-- Node6 -->
<g id="Node000006" class="node">
<title>Node6</title>
<g id="a_Node000006"><a xlink:title=" ">
<polygon fill="#e0e0e0" stroke="#999999" points="578.5,-33.5 453,-33.5 453,0 578.5,0 578.5,-33.5"/>
<text text-anchor="start" x="461" y="-20" font-family="Helvetica,sans-Serif" font-size="10.00">prismspf/core/variable</text>
<text text-anchor="middle" x="515.75" y="-7.25" font-family="Helvetica,sans-Serif" font-size="10.00">_attributes.h</text>
</a>
</g>
</g>
<!-- Node2&#45;&gt;Node6 -->
<g id="edge5_Node000002_Node000006" class="edge">
<title>Node2&#45;&gt;Node6</title>
<g id="a_edge5_Node000002_Node000006"><a xlink:title=" ">
<path fill="none" stroke="#63b8ff" d="M515.75,-75.58C515.75,-67.69 515.75,-56.13 515.75,-45.41"/>
<polygon fill="#63b8ff" stroke="#63b8ff" points="519.25,-45.43 515.75,-35.43 512.25,-45.43 519.25,-45.43"/>
</a>
</g>
</g>
<!-- Node7 -->
<g id="Node000007" class="node">
<title>Node7</title>
<g id="a_Node000007"><a xlink:title=" ">
<polygon fill="#e0e0e0" stroke="#999999" points="737,-33.5 596.5,-33.5 596.5,0 737,0 737,-33.5"/>
<text text-anchor="start" x="604.5" y="-20" font-family="Helvetica,sans-Serif" font-size="10.00">prismspf/user_inputs</text>
<text text-anchor="middle" x="666.75" y="-7.25" font-family="Helvetica,sans-Serif" font-size="10.00">/user_input_parameters.h</text>
</a>
</g>
</g>
<!-- Node2&#45;&gt;Node7 -->
<g id="edge6_Node000002_Node000007" class="edge">
<title>Node2&#45;&gt;Node7</title>
<g id="a_edge6_Node000002_Node000007"><a xlink:title=" ">
<path fill="none" stroke="#63b8ff" d="M537.71,-75.43C559.25,-65.81 592.77,-50.82 620.25,-38.54"/>
<polygon fill="#63b8ff" stroke="#63b8ff" points="621.36,-41.87 629.07,-34.6 618.51,-35.48 621.36,-41.87"/>
</a>
</g>
</g>
<!-- Node8 -->
<g id="Node000008" class="node">
<title>Node8</title>
<g id="a_Node000008"><a xlink:title=" ">
<polygon fill="#e0e0e0" stroke="#999999" points="854,-33.5 755.5,-33.5 755.5,0 854,0 854,-33.5"/>
<text text-anchor="start" x="763.5" y="-20" font-family="Helvetica,sans-Serif" font-size="10.00">prismspf/utilities</text>
<text text-anchor="middle" x="804.75" y="-7.25" font-family="Helvetica,sans-Serif" font-size="10.00">/utilities.h</text>
</a>
</g>
</g>
<!-- Node2&#45;&gt;Node8 -->
<g id="edge7_Node000002_Node000008" class="edge">
<title>Node2&#45;&gt;Node8</title>
<g id="a_edge7_Node000002_Node000008"><a xlink:title=" ">
<path fill="none" stroke="#63b8ff" d="M549.11,-75.45C556.54,-73.39 564.39,-71.29 571.75,-69.5 645.18,-51.6 667.04,-51.65 744.45,-33.72"/>
<polygon fill="#63b8ff" stroke="#63b8ff" points="744.82,-37.23 753.75,-31.53 743.22,-30.41 744.82,-37.23"/>
</a>
</g>
</g>
<!-- Node2&#45;&gt;Node9 -->
<g id="edge8_Node000002_Node000009" class="edge">
<title>Node2&#45;&gt;Node9</title>
<g id="a_edge8_Node000002_Node000009"><a xlink:title=" ">
<path fill="none" stroke="#63b8ff" d="M547.53,-75.41C555.39,-73.23 563.83,-71.09 571.75,-69.5 699.51,-43.78 734.82,-58.36 862.75,-33.5 867.43,-32.59 872.29,-31.51 877.12,-30.36"/>
<polygon fill="#63b8ff" stroke="#63b8ff" points="877.93,-33.76 886.77,-27.92 876.22,-26.97 877.93,-33.76"/>
</a>
</g>
</g>
</g>
</svg>
