<?xml version="1.0" encoding="UTF-8" standalone="no"?>
<!DOCTYPE svg PUBLIC "-//W3C//DTD SVG 1.1//EN"
 "http://www.w3.org/Graphics/SVG/1.1/DTD/svg11.dtd">
<!-- Generated by graphviz version 12.2.1 (20241206.2353)
 -->
<!-- Title: include/prismspf/core/exceptions.h Pages: 1 -->
<svg width="506pt" height="225pt"
 viewBox="0.00 0.00 505.62 224.50" xmlns="http://www.w3.org/2000/svg" xmlns:xlink="http://www.w3.org/1999/xlink">
<g id="graph0" class="graph" transform="scale(1 1) rotate(0) translate(4 220.5)">
<title>include/prismspf/core/exceptions.h</title>
<!-- Node1 -->
<g id="Node000001" class="node">
<title>Node1</title>
<g id="a_Node000001"><a xlink:title=" ">
<polygon fill="#999999" stroke="#666666" points="270.25,-216.5 149.25,-216.5 149.25,-183 270.25,-183 270.25,-216.5"/>
<text text-anchor="start" x="157.25" y="-203" font-family="Helvetica,sans-Serif" font-size="10.00">include/prismspf/core</text>
<text text-anchor="middle" x="209.75" y="-190.25" font-family="Helvetica,sans-Serif" font-size="10.00">/exceptions.h</text>
</a>
</g>
</g>
<!-- Node2 -->
<g id="Node000002" class="node">
<title>Node2</title>
<g id="a_Node000002"><a xlink:title=" ">
<polygon fill="#e0e0e0" stroke="#999999" points="137.5,-147 0,-147 0,-126.25 137.5,-126.25 137.5,-147"/>
<text text-anchor="middle" x="68.75" y="-133.5" font-family="Helvetica,sans-Serif" font-size="10.00">deal.II/base/exceptions.h</text>
</a>
</g>
</g>
<!-- Node1&#45;&gt;Node2 -->
<g id="edge1_Node000001_Node000002" class="edge">
<title>Node1&#45;&gt;Node2</title>
<g id="a_edge1_Node000001_Node000002"><a xlink:title=" ">
<path fill="none" stroke="#63b8ff" d="M172.33,-182.53C150.38,-173.01 122.89,-161.1 101.75,-151.93"/>
<polygon fill="#63b8ff" stroke="#63b8ff" points="103.29,-148.78 92.72,-148.02 100.5,-155.21 103.29,-148.78"/>
</a>
</g>
</g>
<!-- Node3 -->
<g id="Node000003" class="node">
<title>Node3</title>
<g id="a_Node000003"><a xlink:href="types_8h.html" target="_top" xlink:title=" ">
<polygon fill="white" stroke="#666666" points="315.62,-147 193.88,-147 193.88,-126.25 315.62,-126.25 315.62,-147"/>
<text text-anchor="middle" x="254.75" y="-133.5" font-family="Helvetica,sans-Serif" font-size="10.00">prismspf/core/types.h</text>
</a>
</g>
</g>
<!-- Node1&#45;&gt;Node3 -->
<g id="edge2_Node000001_Node000003" class="edge">
<title>Node1&#45;&gt;Node3</title>
<g id="a_edge2_Node000001_Node000003"><a xlink:title=" ">
<path fill="none" stroke="#63b8ff" d="M221.57,-182.69C227.49,-174.66 234.68,-164.88 240.86,-156.49"/>
<polygon fill="#63b8ff" stroke="#63b8ff" points="243.5,-158.81 246.61,-148.69 237.86,-154.66 243.5,-158.81"/>
</a>
</g>
</g>
<!-- Node6 -->
<g id="Node000006" class="node">
<title>Node6</title>
<g id="a_Node000006"><a xlink:title=" ">
<polygon fill="#e0e0e0" stroke="#999999" points="368.75,-20.75 268.75,-20.75 268.75,0 368.75,0 368.75,-20.75"/>
<text text-anchor="middle" x="318.75" y="-7.25" font-family="Helvetica,sans-Serif" font-size="10.00">prismspf/config.h</text>
</a>
</g>
</g>
<!-- Node1&#45;&gt;Node6 -->
<g id="edge9_Node000001_Node000006" class="edge">
<title>Node1&#45;&gt;Node6</title>
<g id="a_edge9_Node000001_Node000006"><a xlink:title=" ">
<path fill="none" stroke="#63b8ff" d="M199.84,-182.56C183.94,-154.27 157.18,-95.2 184.75,-56.75 201.35,-33.61 230.39,-22.12 257.21,-16.48"/>
<polygon fill="#63b8ff" stroke="#63b8ff" points="257.83,-19.92 267.04,-14.68 256.57,-13.04 257.83,-19.92"/>
</a>
</g>
</g>
<!-- Node9 -->
<g id="Node000009" class="node">
<title>Node9</title>
<g id="a_Node000009"><a xlink:title=" ">
<polygon fill="#e0e0e0" stroke="#999999" points="397.75,-147 333.75,-147 333.75,-126.25 397.75,-126.25 397.75,-147"/>
<text text-anchor="middle" x="365.75" y="-133.5" font-family="Helvetica,sans-Serif" font-size="10.00">exception</text>
</a>
</g>
</g>
<!-- Node1&#45;&gt;Node9 -->
<g id="edge10_Node000001_Node000009" class="edge">
<title>Node1&#45;&gt;Node9</title>
<g id="a_edge10_Node000001_Node000009"><a xlink:title=" ">
<path fill="none" stroke="#63b8ff" d="M251.15,-182.53C275.77,-172.88 306.69,-160.77 330.2,-151.55"/>
<polygon fill="#63b8ff" stroke="#63b8ff" points="331.32,-154.87 339.36,-147.97 328.77,-148.36 331.32,-154.87"/>
</a>
</g>
</g>
<!-- Node4 -->
<g id="Node000004" class="node">
<title>Node4</title>
<g id="a_Node000004"><a xlink:title=" ">
<polygon fill="#e0e0e0" stroke="#999999" points="301.88,-90.25 193.62,-90.25 193.62,-56.75 301.88,-56.75 301.88,-90.25"/>
<text text-anchor="start" x="201.62" y="-76.75" font-family="Helvetica,sans-Serif" font-size="10.00">deal.II/matrix_free</text>
<text text-anchor="middle" x="247.75" y="-64" font-family="Helvetica,sans-Serif" font-size="10.00">/evaluation_flags.h</text>
</a>
</g>
</g>
<!-- Node3&#45;&gt;Node4 -->
<g id="edge3_Node000003_Node000004" class="edge">
<title>Node3&#45;&gt;Node4</title>
<g id="a_edge3_Node000003_Node000004"><a xlink:title=" ">
<path fill="none" stroke="#63b8ff" d="M253.63,-125.8C252.88,-119.31 251.87,-110.44 250.89,-101.91"/>
<polygon fill="#63b8ff" stroke="#63b8ff" points="254.4,-101.78 249.78,-92.24 247.44,-102.57 254.4,-101.78"/>
</a>
</g>
</g>
<!-- Node5 -->
<g id="Node000005" class="node">
<title>Node5</title>
<g id="a_Node000005"><a xlink:href="type__enums_8h.html" target="_top" xlink:title=" ">
<polygon fill="white" stroke="#666666" points="465.5,-90.25 358,-90.25 358,-56.75 465.5,-56.75 465.5,-90.25"/>
<text text-anchor="start" x="366" y="-76.75" font-family="Helvetica,sans-Serif" font-size="10.00">prismspf/core/type</text>
<text text-anchor="middle" x="411.75" y="-64" font-family="Helvetica,sans-Serif" font-size="10.00">_enums.h</text>
</a>
</g>
</g>
<!-- Node3&#45;&gt;Node5 -->
<g id="edge4_Node000003_Node000005" class="edge">
<title>Node3&#45;&gt;Node5</title>
<g id="a_edge4_Node000003_Node000005"><a xlink:title=" ">
<path fill="none" stroke="#63b8ff" d="M279.97,-125.8C301.4,-117.46 332.85,-105.22 359.66,-94.78"/>
<polygon fill="#63b8ff" stroke="#63b8ff" points="360.59,-98.17 368.64,-91.28 358.05,-91.65 360.59,-98.17"/>
</a>
</g>
</g>
<!-- Node3&#45;&gt;Node6 -->
<g id="edge8_Node000003_Node000006" class="edge">
<title>Node3&#45;&gt;Node6</title>
<g id="a_edge8_Node000003_Node000006"><a xlink:title=" ">
<path fill="none" stroke="#63b8ff" d="M273.42,-125.78C286.23,-117.96 302.36,-105.77 310.75,-90.25 320.45,-72.3 321.6,-48.7 320.85,-32"/>
<polygon fill="#63b8ff" stroke="#63b8ff" points="324.36,-32.01 320.13,-22.3 317.38,-32.53 324.36,-32.01"/>
</a>
</g>
</g>
<!-- Node5&#45;&gt;Node6 -->
<g id="edge5_Node000005_Node000006" class="edge">
<title>Node5&#45;&gt;Node6</title>
<g id="a_edge5_Node000005_Node000006"><a xlink:title=" ">
<path fill="none" stroke="#63b8ff" d="M387.32,-56.44C373.63,-47.45 356.63,-36.27 342.98,-27.3"/>
<polygon fill="#63b8ff" stroke="#63b8ff" points="345.27,-24.62 334.99,-22.05 341.42,-30.47 345.27,-24.62"/>
</a>
</g>
</g>
<!-- Node7 -->
<g id="Node000007" class="node">
<title>Node7</title>
<g id="a_Node000007"><a xlink:title=" ">
<polygon fill="#e0e0e0" stroke="#999999" points="436.25,-20.75 387.25,-20.75 387.25,0 436.25,0 436.25,-20.75"/>
<text text-anchor="middle" x="411.75" y="-7.25" font-family="Helvetica,sans-Serif" font-size="10.00">cstdint</text>
</a>
</g>
</g>
<!-- Node5&#45;&gt;Node7 -->
<g id="edge6_Node000005_Node000007" class="edge">
<title>Node5&#45;&gt;Node7</title>
<g id="a_edge6_Node000005_Node000007"><a xlink:title=" ">
<path fill="none" stroke="#63b8ff" d="M411.75,-56.44C411.75,-49.1 411.75,-40.32 411.75,-32.46"/>
<polygon fill="#63b8ff" stroke="#63b8ff" points="415.25,-32.73 411.75,-22.73 408.25,-32.73 415.25,-32.73"/>
</a>
</g>
</g>
<!-- Node8 -->
<g id="Node000008" class="node">
<title>Node8</title>
<g id="a_Node000008"><a xlink:title=" ">
<polygon fill="#e0e0e0" stroke="#999999" points="497.62,-20.75 453.88,-20.75 453.88,0 497.62,0 497.62,-20.75"/>
<text text-anchor="middle" x="475.75" y="-7.25" font-family="Helvetica,sans-Serif" font-size="10.00">string</text>
</a>
</g>
</g>
<!-- Node5&#45;&gt;Node8 -->
<g id="edge7_Node000005_Node000008" class="edge">
<title>Node5&#45;&gt;Node8</title>
<g id="a_edge7_Node000005_Node000008"><a xlink:title=" ">
<path fill="none" stroke="#63b8ff" d="M428.57,-56.44C437.34,-48.06 448.1,-37.78 457.13,-29.16"/>
<polygon fill="#63b8ff" stroke="#63b8ff" points="459.54,-31.7 464.35,-22.26 454.7,-26.64 459.54,-31.7"/>
</a>
</g>
</g>
</g>
</svg>
