<?xml version="1.0" encoding="UTF-8" standalone="no"?>
<!DOCTYPE svg PUBLIC "-//W3C//DTD SVG 1.1//EN"
 "http://www.w3.org/Graphics/SVG/1.1/DTD/svg11.dtd">
<!-- Generated by graphviz version 12.2.1 (20241206.2353)
 -->
<!-- Title: include/prismspf/core/field_container.h Pages: 1 -->
<svg width="1221pt" height="585pt"
 viewBox="0.00 0.00 1220.82 584.75" xmlns="http://www.w3.org/2000/svg" xmlns:xlink="http://www.w3.org/1999/xlink">
<g id="graph0" class="graph" transform="scale(1 1) rotate(0) translate(4 580.75)">
<title>include/prismspf/core/field_container.h</title>
<!-- Node1 -->
<g id="Node000001" class="node">
<title>Node1</title>
<g id="a_Node000001"><a xlink:title=" ">
<polygon fill="#999999" stroke="#666666" points="1057.2,-576.75 936.2,-576.75 936.2,-543.25 1057.2,-543.25 1057.2,-576.75"/>
<text text-anchor="start" x="944.2" y="-563.25" font-family="Helvetica,sans-Serif" font-size="10.00">include/prismspf/core</text>
<text text-anchor="middle" x="996.7" y="-550.5" font-family="Helvetica,sans-Serif" font-size="10.00">/field_container.h</text>
</a>
</g>
</g>
<!-- Node2 -->
<g id="Node000002" class="node">
<title>Node2</title>
<g id="a_Node000002"><a xlink:href="pde__operator__base_8h.html" target="_top" xlink:title=" ">
<polygon fill="white" stroke="#666666" points="742.2,-507.25 621.2,-507.25 621.2,-473.75 742.2,-473.75 742.2,-507.25"/>
<text text-anchor="start" x="629.2" y="-493.75" font-family="Helvetica,sans-Serif" font-size="10.00">include/prismspf/core</text>
<text text-anchor="middle" x="681.7" y="-481" font-family="Helvetica,sans-Serif" font-size="10.00">/pde_operator_base.h</text>
</a>
</g>
</g>
<!-- Node1&#45;&gt;Node2 -->
<g id="edge1_Node000001_Node000002" class="edge">
<title>Node1&#45;&gt;Node2</title>
<g id="a_edge1_Node000001_Node000002"><a xlink:title=" ">
<path fill="none" stroke="#63b8ff" d="M924.88,-543.61C869.81,-531.81 794.64,-515.7 742.52,-504.53"/>
<polygon fill="#63b8ff" stroke="#63b8ff" points="923.97,-547 934.48,-545.67 925.44,-540.15 923.97,-547"/>
</a>
</g>
</g>
<!-- Node3 -->
<g id="Node000003" class="node">
<title>Node3</title>
<g id="a_Node000003"><a xlink:href="mf__operator_8h.html" target="_top" xlink:title=" ">
<polygon fill="white" stroke="#666666" points="916.32,-298.75 781.07,-298.75 781.07,-265.25 916.32,-265.25 916.32,-298.75"/>
<text text-anchor="start" x="789.07" y="-285.25" font-family="Helvetica,sans-Serif" font-size="10.00">include/prismspf/solvers</text>
<text text-anchor="middle" x="848.7" y="-272.5" font-family="Helvetica,sans-Serif" font-size="10.00">/mf_operator.h</text>
</a>
</g>
</g>
<!-- Node1&#45;&gt;Node3 -->
<g id="edge41_Node000001_Node000003" class="edge">
<title>Node1&#45;&gt;Node3</title>
<g id="a_edge41_Node000001_Node000003"><a xlink:title=" ">
<path fill="none" stroke="#63b8ff" d="M994.15,-532.04C990.22,-499.98 980.7,-445.62 958.7,-404.25 935.48,-360.59 893,-320.26 868.18,-298.91"/>
<polygon fill="#63b8ff" stroke="#63b8ff" points="990.63,-532.11 995.22,-541.66 997.59,-531.33 990.63,-532.11"/>
</a>
</g>
</g>
<!-- Node12 -->
<g id="Node000012" class="node">
<title>Node12</title>
<g id="a_Node000012"><a xlink:href="mf__operator_8cc.html" target="_top" xlink:title=" ">
<polygon fill="white" stroke="#666666" points="1212.82,-222.88 1068.57,-222.88 1068.57,-202.12 1212.82,-202.12 1212.82,-222.88"/>
<text text-anchor="middle" x="1140.7" y="-209.38" font-family="Helvetica,sans-Serif" font-size="10.00">src/solvers/mf_operator.cc</text>
</a>
</g>
</g>
<!-- Node1&#45;&gt;Node12 -->
<g id="edge43_Node000001_Node000012" class="edge">
<title>Node1&#45;&gt;Node12</title>
<g id="a_edge43_Node000001_Node000012"><a xlink:title=" ">
<path fill="none" stroke="#63b8ff" d="M1002.68,-532.01C1008.25,-504.48 1015.7,-460.49 1015.7,-422 1015.7,-422 1015.7,-422 1015.7,-350.5 1015.7,-288.68 1086.01,-242.53 1121.17,-223.32"/>
<polygon fill="#63b8ff" stroke="#63b8ff" points="999.3,-531.08 1000.67,-541.59 1006.15,-532.52 999.3,-531.08"/>
</a>
</g>
</g>
<!-- Node24 -->
<g id="Node000024" class="node">
<title>Node24</title>
<g id="a_Node000024"><a xlink:href="field__container_8cc.html" target="_top" xlink:title=" ">
<polygon fill="white" stroke="#666666" points="1185.7,-500.88 1043.7,-500.88 1043.7,-480.12 1185.7,-480.12 1185.7,-500.88"/>
<text text-anchor="middle" x="1114.7" y="-487.38" font-family="Helvetica,sans-Serif" font-size="10.00">src/core/field_container.cc</text>
</a>
</g>
</g>
<!-- Node1&#45;&gt;Node24 -->
<g id="edge42_Node000001_Node000024" class="edge">
<title>Node1&#45;&gt;Node24</title>
<g id="a_edge42_Node000001_Node000024"><a xlink:title=" ">
<path fill="none" stroke="#63b8ff" d="M1034.95,-537.12C1056.08,-525.03 1081.28,-510.61 1097.62,-501.27"/>
<polygon fill="#63b8ff" stroke="#63b8ff" points="1033.22,-534.08 1026.28,-542.08 1036.69,-540.15 1033.22,-534.08"/>
</a>
</g>
</g>
<!-- Node2&#45;&gt;Node3 -->
<g id="edge2_Node000002_Node000003" class="edge">
<title>Node2&#45;&gt;Node3</title>
<g id="a_edge2_Node000002_Node000003"><a xlink:title=" ">
<path fill="none" stroke="#63b8ff" d="M665.05,-463.66C656,-446.1 648.54,-422.79 658.7,-404.25 688.23,-350.38 753,-316.98 798.68,-299.2"/>
<polygon fill="#63b8ff" stroke="#63b8ff" points="661.75,-464.93 669.7,-471.93 667.85,-461.5 661.75,-464.93"/>
</a>
</g>
</g>
<!-- Node13 -->
<g id="Node000013" class="node">
<title>Node13</title>
<g id="a_Node000013"><a xlink:href="solve__context_8h.html" target="_top" xlink:title=" ">
<polygon fill="white" stroke="#666666" points="426.32,-437.75 291.07,-437.75 291.07,-404.25 426.32,-404.25 426.32,-437.75"/>
<text text-anchor="start" x="299.07" y="-424.25" font-family="Helvetica,sans-Serif" font-size="10.00">include/prismspf/solvers</text>
<text text-anchor="middle" x="358.7" y="-411.5" font-family="Helvetica,sans-Serif" font-size="10.00">/solve_context.h</text>
</a>
</g>
</g>
<!-- Node2&#45;&gt;Node13 -->
<g id="edge16_Node000002_Node000013" class="edge">
<title>Node2&#45;&gt;Node13</title>
<g id="a_edge16_Node000002_Node000013"><a xlink:title=" ">
<path fill="none" stroke="#63b8ff" d="M609.94,-474.5C555.26,-463.08 480.46,-447.45 426.72,-436.22"/>
<polygon fill="#63b8ff" stroke="#63b8ff" points="608.96,-477.87 619.46,-476.49 610.39,-471.02 608.96,-477.87"/>
</a>
</g>
</g>
<!-- Node19 -->
<g id="Node000019" class="node">
<title>Node19</title>
<g id="a_Node000019"><a xlink:href="solver__base_8h.html" target="_top" xlink:title=" ">
<polygon fill="white" stroke="#666666" points="611.32,-368.25 476.07,-368.25 476.07,-334.75 611.32,-334.75 611.32,-368.25"/>
<text text-anchor="start" x="484.07" y="-354.75" font-family="Helvetica,sans-Serif" font-size="10.00">include/prismspf/solvers</text>
<text text-anchor="middle" x="543.7" y="-342" font-family="Helvetica,sans-Serif" font-size="10.00">/solver_base.h</text>
</a>
</g>
</g>
<!-- Node2&#45;&gt;Node19 -->
<g id="edge38_Node000002_Node000019" class="edge">
<title>Node2&#45;&gt;Node19</title>
<g id="a_edge38_Node000002_Node000019"><a xlink:title=" ">
<path fill="none" stroke="#63b8ff" d="M655.49,-465.87C645.99,-457.15 635.25,-447.11 625.7,-437.75 601.65,-414.17 574.76,-385.82 558.54,-368.48"/>
<polygon fill="#63b8ff" stroke="#63b8ff" points="652.93,-468.27 662.68,-472.43 657.65,-463.1 652.93,-468.27"/>
</a>
</g>
</g>
<!-- Node22 -->
<g id="Node000022" class="node">
<title>Node22</title>
<g id="a_Node000022"><a xlink:href="dirichlet_8cc.html" target="_top" xlink:title=" ">
<polygon fill="white" stroke="#666666" points="777.95,-431.38 667.45,-431.38 667.45,-410.62 777.95,-410.62 777.95,-431.38"/>
<text text-anchor="middle" x="722.7" y="-417.88" font-family="Helvetica,sans-Serif" font-size="10.00">src/core/dirichlet.cc</text>
</a>
</g>
</g>
<!-- Node2&#45;&gt;Node22 -->
<g id="edge39_Node000002_Node000022" class="edge">
<title>Node2&#45;&gt;Node22</title>
<g id="a_edge39_Node000002_Node000022"><a xlink:title=" ">
<path fill="none" stroke="#63b8ff" d="M697.34,-463.75C704.12,-452.59 711.65,-440.19 716.73,-431.82"/>
<polygon fill="#63b8ff" stroke="#63b8ff" points="694.4,-461.85 692.2,-472.21 700.38,-465.48 694.4,-461.85"/>
</a>
</g>
</g>
<!-- Node23 -->
<g id="Node000023" class="node">
<title>Node23</title>
<g id="a_Node000023"><a xlink:href="initial__conditions_8cc.html" target="_top" xlink:title=" ">
<polygon fill="white" stroke="#666666" points="949.7,-431.38 795.7,-431.38 795.7,-410.62 949.7,-410.62 949.7,-431.38"/>
<text text-anchor="middle" x="872.7" y="-417.88" font-family="Helvetica,sans-Serif" font-size="10.00">src/core/initial_conditions.cc</text>
</a>
</g>
</g>
<!-- Node2&#45;&gt;Node23 -->
<g id="edge40_Node000002_Node000023" class="edge">
<title>Node2&#45;&gt;Node23</title>
<g id="a_edge40_Node000002_Node000023"><a xlink:title=" ">
<path fill="none" stroke="#63b8ff" d="M738.05,-469.59C773.18,-457.17 816.87,-441.73 844.77,-431.87"/>
<polygon fill="#63b8ff" stroke="#63b8ff" points="737.14,-466.2 728.87,-472.83 739.47,-472.8 737.14,-466.2"/>
</a>
</g>
</g>
<!-- Node4 -->
<g id="Node000004" class="node">
<title>Node4</title>
<g id="a_Node000004"><a xlink:href="explicit__solver_8h.html" target="_top" xlink:title=" ">
<polygon fill="white" stroke="#666666" points="628.32,-229.25 493.07,-229.25 493.07,-195.75 628.32,-195.75 628.32,-229.25"/>
<text text-anchor="start" x="501.07" y="-215.75" font-family="Helvetica,sans-Serif" font-size="10.00">include/prismspf/solvers</text>
<text text-anchor="middle" x="560.7" y="-203" font-family="Helvetica,sans-Serif" font-size="10.00">/explicit_solver.h</text>
</a>
</g>
</g>
<!-- Node3&#45;&gt;Node4 -->
<g id="edge3_Node000003_Node000004" class="edge">
<title>Node3&#45;&gt;Node4</title>
<g id="a_edge3_Node000003_Node000004"><a xlink:title=" ">
<path fill="none" stroke="#63b8ff" d="M769.8,-262.51C725.57,-252.14 670.95,-239.34 628.63,-229.42"/>
<polygon fill="#63b8ff" stroke="#63b8ff" points="768.8,-265.87 779.34,-264.74 770.4,-259.05 768.8,-265.87"/>
</a>
</g>
</g>
<!-- Node8 -->
<g id="Node000008" class="node">
<title>Node8</title>
<g id="a_Node000008"><a xlink:href="linear__helper_8h.html" target="_top" xlink:title=" ">
<polygon fill="white" stroke="#666666" points="820.32,-229.25 685.07,-229.25 685.07,-195.75 820.32,-195.75 820.32,-229.25"/>
<text text-anchor="start" x="693.07" y="-215.75" font-family="Helvetica,sans-Serif" font-size="10.00">include/prismspf/solvers</text>
<text text-anchor="middle" x="752.7" y="-203" font-family="Helvetica,sans-Serif" font-size="10.00">/linear_helper.h</text>
</a>
</g>
</g>
<!-- Node3&#45;&gt;Node8 -->
<g id="edge7_Node000003_Node000008" class="edge">
<title>Node3&#45;&gt;Node8</title>
<g id="a_edge7_Node000003_Node000008"><a xlink:title=" ">
<path fill="none" stroke="#63b8ff" d="M816.58,-258.41C803.16,-248.98 787.87,-238.23 775.62,-229.62"/>
<polygon fill="#63b8ff" stroke="#63b8ff" points="814.52,-261.24 824.71,-264.13 818.54,-255.52 814.52,-261.24"/>
</a>
</g>
</g>
<!-- Node9 -->
<g id="Node000009" class="node">
<title>Node9</title>
<g id="a_Node000009"><a xlink:href="linear__solver_8h.html" target="_top" xlink:title=" ">
<polygon fill="white" stroke="#666666" points="1012.32,-229.25 877.07,-229.25 877.07,-195.75 1012.32,-195.75 1012.32,-229.25"/>
<text text-anchor="start" x="885.07" y="-215.75" font-family="Helvetica,sans-Serif" font-size="10.00">include/prismspf/solvers</text>
<text text-anchor="middle" x="944.7" y="-203" font-family="Helvetica,sans-Serif" font-size="10.00">/linear_solver.h</text>
</a>
</g>
</g>
<!-- Node3&#45;&gt;Node9 -->
<g id="edge8_Node000003_Node000009" class="edge">
<title>Node3&#45;&gt;Node9</title>
<g id="a_edge8_Node000003_Node000009"><a xlink:title=" ">
<path fill="none" stroke="#63b8ff" d="M880.82,-258.41C894.24,-248.98 909.53,-238.23 921.78,-229.62"/>
<polygon fill="#63b8ff" stroke="#63b8ff" points="878.85,-255.52 872.69,-264.13 882.88,-261.24 878.85,-255.52"/>
</a>
</g>
</g>
<!-- Node10 -->
<g id="Node000010" class="node">
<title>Node10</title>
<g id="a_Node000010"><a xlink:href="mg__solver_8h.html" target="_top" xlink:title=" ">
<polygon fill="white" stroke="#666666" points="1060.32,-159.75 925.07,-159.75 925.07,-126.25 1060.32,-126.25 1060.32,-159.75"/>
<text text-anchor="start" x="933.07" y="-146.25" font-family="Helvetica,sans-Serif" font-size="10.00">include/prismspf/solvers</text>
<text text-anchor="middle" x="992.7" y="-133.5" font-family="Helvetica,sans-Serif" font-size="10.00">/mg_solver.h</text>
</a>
</g>
</g>
<!-- Node3&#45;&gt;Node10 -->
<g id="edge13_Node000003_Node000010" class="edge">
<title>Node3&#45;&gt;Node10</title>
<g id="a_edge13_Node000003_Node000010"><a xlink:title=" ">
<path fill="none" stroke="#63b8ff" d="M927.54,-266.9C967.41,-258 1009.85,-245.17 1021.7,-229.25 1037.29,-208.31 1020.2,-178.41 1006.43,-160.15"/>
<polygon fill="#63b8ff" stroke="#63b8ff" points="926.9,-263.46 917.86,-268.99 928.38,-270.3 926.9,-263.46"/>
</a>
</g>
</g>
<!-- Node11 -->
<g id="Node000011" class="node">
<title>Node11</title>
<g id="a_Node000011"><a xlink:href="newton__solver_8h.html" target="_top" xlink:title=" ">
<polygon fill="white" stroke="#666666" points="840.32,-159.75 705.07,-159.75 705.07,-126.25 840.32,-126.25 840.32,-159.75"/>
<text text-anchor="start" x="713.07" y="-146.25" font-family="Helvetica,sans-Serif" font-size="10.00">include/prismspf/solvers</text>
<text text-anchor="middle" x="772.7" y="-133.5" font-family="Helvetica,sans-Serif" font-size="10.00">/newton_solver.h</text>
</a>
</g>
</g>
<!-- Node3&#45;&gt;Node11 -->
<g id="edge14_Node000003_Node000011" class="edge">
<title>Node3&#45;&gt;Node11</title>
<g id="a_edge14_Node000003_Node000011"><a xlink:title=" ">
<path fill="none" stroke="#63b8ff" d="M846.83,-253.43C844.65,-235.93 839.93,-213.35 829.7,-195.75 821.51,-181.65 808.18,-169.24 796.47,-160.1"/>
<polygon fill="#63b8ff" stroke="#63b8ff" points="843.35,-253.77 847.84,-263.36 850.31,-253.06 843.35,-253.77"/>
</a>
</g>
</g>
<!-- Node3&#45;&gt;Node12 -->
<g id="edge15_Node000003_Node000012" class="edge">
<title>Node3&#45;&gt;Node12</title>
<g id="a_edge15_Node000003_Node000012"><a xlink:title=" ">
<path fill="none" stroke="#63b8ff" d="M927.9,-262.69C982.82,-250 1053.81,-233.59 1098.31,-223.3"/>
<polygon fill="#63b8ff" stroke="#63b8ff" points="927.22,-259.26 918.27,-264.92 928.8,-266.08 927.22,-259.26"/>
</a>
</g>
</g>
<!-- Node5 -->
<g id="Node000005" class="node">
<title>Node5</title>
<g id="a_Node000005"><a xlink:href="solvers_8h.html" target="_top" xlink:title=" ">
<polygon fill="white" stroke="#666666" points="686.32,-90.25 551.07,-90.25 551.07,-56.75 686.32,-56.75 686.32,-90.25"/>
<text text-anchor="start" x="559.07" y="-76.75" font-family="Helvetica,sans-Serif" font-size="10.00">include/prismspf/solvers</text>
<text text-anchor="middle" x="618.7" y="-64" font-family="Helvetica,sans-Serif" font-size="10.00">/solvers.h</text>
</a>
</g>
</g>
<!-- Node4&#45;&gt;Node5 -->
<g id="edge4_Node000004_Node000005" class="edge">
<title>Node4&#45;&gt;Node5</title>
<g id="a_edge4_Node000004_Node000005"><a xlink:title=" ">
<path fill="none" stroke="#63b8ff" d="M582.87,-186.57C589.1,-178.47 595.36,-169.15 599.7,-159.75 610.19,-137.03 615.05,-108.19 617.18,-90.55"/>
<polygon fill="#63b8ff" stroke="#63b8ff" points="580.21,-184.29 576.63,-194.26 585.65,-188.7 580.21,-184.29"/>
</a>
</g>
</g>
<!-- Node6 -->
<g id="Node000006" class="node">
<title>Node6</title>
<g id="a_Node000006"><a xlink:href="problem_8cc.html" target="_top" xlink:title=" ">
<polygon fill="white" stroke="#666666" points="389.32,-20.75 278.07,-20.75 278.07,0 389.32,0 389.32,-20.75"/>
<text text-anchor="middle" x="333.7" y="-7.25" font-family="Helvetica,sans-Serif" font-size="10.00">src/core/problem.cc</text>
</a>
</g>
</g>
<!-- Node5&#45;&gt;Node6 -->
<g id="edge5_Node000005_Node000006" class="edge">
<title>Node5&#45;&gt;Node6</title>
<g id="a_edge5_Node000005_Node000006"><a xlink:title=" ">
<path fill="none" stroke="#63b8ff" d="M539.7,-55.56C488.23,-44.52 422.87,-30.5 379.73,-21.25"/>
<polygon fill="#63b8ff" stroke="#63b8ff" points="538.8,-58.94 549.32,-57.62 540.27,-52.1 538.8,-58.94"/>
</a>
</g>
</g>
<!-- Node7 -->
<g id="Node000007" class="node">
<title>Node7</title>
<g id="a_Node000007"><a xlink:href="solvers_8cc.html" target="_top" xlink:title=" ">
<polygon fill="white" stroke="#666666" points="678.82,-20.75 558.57,-20.75 558.57,0 678.82,0 678.82,-20.75"/>
<text text-anchor="middle" x="618.7" y="-7.25" font-family="Helvetica,sans-Serif" font-size="10.00">src/solvers/solvers.cc</text>
</a>
</g>
</g>
<!-- Node5&#45;&gt;Node7 -->
<g id="edge6_Node000005_Node000007" class="edge">
<title>Node5&#45;&gt;Node7</title>
<g id="a_edge6_Node000005_Node000007"><a xlink:title=" ">
<path fill="none" stroke="#63b8ff" d="M618.7,-44.94C618.7,-36.46 618.7,-27.67 618.7,-21.22"/>
<polygon fill="#63b8ff" stroke="#63b8ff" points="615.2,-44.93 618.7,-54.93 622.2,-44.93 615.2,-44.93"/>
</a>
</g>
</g>
<!-- Node9&#45;&gt;Node5 -->
<g id="edge12_Node000009_Node000005" class="edge">
<title>Node9&#45;&gt;Node5</title>
<g id="a_edge12_Node000009_Node000005"><a xlink:title=" ">
<path fill="none" stroke="#63b8ff" d="M923.91,-186.92C906.15,-167.52 878.91,-141.3 849.7,-126.25 798.65,-99.94 734.49,-86.93 686.76,-80.55"/>
<polygon fill="#63b8ff" stroke="#63b8ff" points="921.1,-189.02 930.37,-194.16 926.32,-184.37 921.1,-189.02"/>
</a>
</g>
</g>
<!-- Node9&#45;&gt;Node10 -->
<g id="edge9_Node000009_Node000010" class="edge">
<title>Node9&#45;&gt;Node10</title>
<g id="a_edge9_Node000009_Node000010"><a xlink:title=" ">
<path fill="none" stroke="#63b8ff" d="M962.59,-186.34C968.89,-177.48 975.8,-167.77 981.41,-159.88"/>
<polygon fill="#63b8ff" stroke="#63b8ff" points="959.89,-184.09 956.95,-194.27 965.6,-188.15 959.89,-184.09"/>
</a>
</g>
</g>
<!-- Node9&#45;&gt;Node11 -->
<g id="edge10_Node000009_Node000011" class="edge">
<title>Node9&#45;&gt;Node11</title>
<g id="a_edge10_Node000009_Node000011"><a xlink:title=" ">
<path fill="none" stroke="#63b8ff" d="M892.97,-191.2C867.65,-181.26 837.59,-169.47 813.86,-160.15"/>
<polygon fill="#63b8ff" stroke="#63b8ff" points="891.5,-194.38 902.09,-194.78 894.06,-187.87 891.5,-194.38"/>
</a>
</g>
</g>
<!-- Node11&#45;&gt;Node5 -->
<g id="edge11_Node000011_Node000005" class="edge">
<title>Node11&#45;&gt;Node5</title>
<g id="a_edge11_Node000011_Node000005"><a xlink:title=" ">
<path fill="none" stroke="#63b8ff" d="M725.47,-121.3C702.99,-111.45 676.52,-99.84 655.55,-90.65"/>
<polygon fill="#63b8ff" stroke="#63b8ff" points="723.86,-124.42 734.43,-125.22 726.67,-118 723.86,-124.42"/>
</a>
</g>
</g>
<!-- Node14 -->
<g id="Node000014" class="node">
<title>Node14</title>
<g id="a_Node000014"><a xlink:href="problem_8h.html" target="_top" xlink:title=" ">
<polygon fill="white" stroke="#666666" points="324.2,-229.25 203.2,-229.25 203.2,-195.75 324.2,-195.75 324.2,-229.25"/>
<text text-anchor="start" x="211.2" y="-215.75" font-family="Helvetica,sans-Serif" font-size="10.00">include/prismspf/core</text>
<text text-anchor="middle" x="263.7" y="-203" font-family="Helvetica,sans-Serif" font-size="10.00">/problem.h</text>
</a>
</g>
</g>
<!-- Node13&#45;&gt;Node14 -->
<g id="edge17_Node000013_Node000014" class="edge">
<title>Node13&#45;&gt;Node14</title>
<g id="a_edge17_Node000013_Node000014"><a xlink:title=" ">
<path fill="none" stroke="#63b8ff" d="M279.64,-407.6C257.22,-400.02 235.24,-387.84 221.7,-368.25 191.31,-324.28 230.13,-259.22 251.44,-229.44"/>
<polygon fill="#63b8ff" stroke="#63b8ff" points="278.61,-410.94 289.2,-410.51 280.66,-404.25 278.61,-410.94"/>
</a>
</g>
</g>
<!-- Node15 -->
<g id="Node000015" class="node">
<title>Node15</title>
<g id="a_Node000015"><a xlink:href="refinement__manager_8h.html" target="_top" xlink:title=" ">
<polygon fill="white" stroke="#666666" points="398.32,-298.75 269.07,-298.75 269.07,-265.25 398.32,-265.25 398.32,-298.75"/>
<text text-anchor="start" x="277.07" y="-285.25" font-family="Helvetica,sans-Serif" font-size="10.00">include/prismspf/core</text>
<text text-anchor="middle" x="333.7" y="-272.5" font-family="Helvetica,sans-Serif" font-size="10.00">/refinement_manager.h</text>
</a>
</g>
</g>
<!-- Node13&#45;&gt;Node15 -->
<g id="edge19_Node000013_Node000015" class="edge">
<title>Node13&#45;&gt;Node15</title>
<g id="a_edge19_Node000013_Node000015"><a xlink:title=" ">
<path fill="none" stroke="#63b8ff" d="M378.88,-394.42C389.79,-377.33 399.42,-354.45 390.7,-334.75 384.26,-320.21 371.49,-308 359.67,-299.1"/>
<polygon fill="#63b8ff" stroke="#63b8ff" points="376.1,-392.29 373.29,-402.51 381.85,-396.27 376.1,-392.29"/>
</a>
</g>
</g>
<!-- Node16 -->
<g id="Node000016" class="node">
<title>Node16</title>
<g id="a_Node000016"><a xlink:href="solution__output_8h.html" target="_top" xlink:title=" ">
<polygon fill="white" stroke="#666666" points="156.2,-368.25 35.2,-368.25 35.2,-334.75 156.2,-334.75 156.2,-368.25"/>
<text text-anchor="start" x="43.2" y="-354.75" font-family="Helvetica,sans-Serif" font-size="10.00">include/prismspf/core</text>
<text text-anchor="middle" x="95.7" y="-342" font-family="Helvetica,sans-Serif" font-size="10.00">/solution_output.h</text>
</a>
</g>
</g>
<!-- Node13&#45;&gt;Node16 -->
<g id="edge21_Node000013_Node000016" class="edge">
<title>Node13&#45;&gt;Node16</title>
<g id="a_edge21_Node000013_Node000016"><a xlink:title=" ">
<path fill="none" stroke="#63b8ff" d="M284.8,-401.03C244.26,-390.63 194.62,-377.89 156.37,-368.07"/>
<polygon fill="#63b8ff" stroke="#63b8ff" points="283.68,-404.36 294.24,-403.46 285.42,-397.58 283.68,-404.36"/>
</a>
</g>
</g>
<!-- Node18 -->
<g id="Node000018" class="node">
<title>Node18</title>
<g id="a_Node000018"><a xlink:href="nucleation__manager_8h.html" target="_top" xlink:title=" ">
<polygon fill="white" stroke="#666666" points="382.2,-368.25 231.2,-368.25 231.2,-334.75 382.2,-334.75 382.2,-368.25"/>
<text text-anchor="start" x="239.2" y="-354.75" font-family="Helvetica,sans-Serif" font-size="10.00">include/prismspf/nucleation</text>
<text text-anchor="middle" x="306.7" y="-342" font-family="Helvetica,sans-Serif" font-size="10.00">/nucleation_manager.h</text>
</a>
</g>
</g>
<!-- Node13&#45;&gt;Node18 -->
<g id="edge25_Node000013_Node000018" class="edge">
<title>Node13&#45;&gt;Node18</title>
<g id="a_edge25_Node000013_Node000018"><a xlink:title=" ">
<path fill="none" stroke="#63b8ff" d="M339.54,-395.13C332.65,-386.19 325.07,-376.35 318.93,-368.38"/>
<polygon fill="#63b8ff" stroke="#63b8ff" points="336.58,-397.02 345.45,-402.8 342.12,-392.75 336.58,-397.02"/>
</a>
</g>
</g>
<!-- Node13&#45;&gt;Node19 -->
<g id="edge27_Node000013_Node000019" class="edge">
<title>Node13&#45;&gt;Node19</title>
<g id="a_edge27_Node000013_Node000019"><a xlink:title=" ">
<path fill="none" stroke="#63b8ff" d="M413.61,-399.97C440.99,-389.97 473.67,-378.05 499.43,-368.65"/>
<polygon fill="#63b8ff" stroke="#63b8ff" points="412.63,-396.6 404.43,-403.31 415.03,-403.17 412.63,-396.6"/>
</a>
</g>
</g>
<!-- Node14&#45;&gt;Node6 -->
<g id="edge18_Node000014_Node000006" class="edge">
<title>Node14&#45;&gt;Node6</title>
<g id="a_edge18_Node000014_Node000006"><a xlink:title=" ">
<path fill="none" stroke="#63b8ff" d="M273.06,-184.74C288.86,-139.58 320.09,-50.29 330.35,-20.96"/>
<polygon fill="#63b8ff" stroke="#63b8ff" points="269.81,-183.44 269.81,-194.03 276.41,-185.75 269.81,-183.44"/>
</a>
</g>
</g>
<!-- Node15&#45;&gt;Node14 -->
<g id="edge20_Node000015_Node000014" class="edge">
<title>Node15&#45;&gt;Node14</title>
<g id="a_edge20_Node000015_Node000014"><a xlink:title=" ">
<path fill="none" stroke="#63b8ff" d="M309.07,-257.25C299.49,-248.02 288.78,-237.69 280.17,-229.38"/>
<polygon fill="#63b8ff" stroke="#63b8ff" points="306.39,-259.53 316.02,-263.95 311.25,-254.49 306.39,-259.53"/>
</a>
</g>
</g>
<!-- Node16&#45;&gt;Node6 -->
<g id="edge23_Node000016_Node000006" class="edge">
<title>Node16&#45;&gt;Node6</title>
<g id="a_edge23_Node000016_Node000006"><a xlink:title=" ">
<path fill="none" stroke="#63b8ff" d="M51.43,-328.43C39.54,-320.55 27.76,-310.63 19.7,-298.75 -2.1,-266.63 0.7,-252.32 0.7,-213.5 0.7,-213.5 0.7,-213.5 0.7,-142 0.7,-83 184.13,-39.63 278.71,-21.18"/>
<polygon fill="#63b8ff" stroke="#63b8ff" points="49.29,-331.21 59.63,-333.5 52.97,-325.26 49.29,-331.21"/>
</a>
</g>
</g>
<!-- Node16&#45;&gt;Node16 -->
<g id="edge22_Node000016_Node000016" class="edge">
<title>Node16&#45;&gt;Node16</title>
<g id="a_edge22_Node000016_Node000016"><a xlink:title=" ">
<path fill="none" stroke="#63b8ff" d="M167.42,-360.45C171.66,-358.31 174.2,-355.33 174.2,-351.5 174.2,-345.05 166.99,-341 156.59,-339.33"/>
<polygon fill="#63b8ff" stroke="#63b8ff" points="166.63,-357.04 158.04,-363.23 168.62,-363.75 166.63,-357.04"/>
</a>
</g>
</g>
<!-- Node17 -->
<g id="Node000017" class="node">
<title>Node17</title>
<g id="a_Node000017"><a xlink:href="solution__output_8cc.html" target="_top" xlink:title=" ">
<polygon fill="white" stroke="#666666" points="174.95,-292.38 28.45,-292.38 28.45,-271.62 174.95,-271.62 174.95,-292.38"/>
<text text-anchor="middle" x="101.7" y="-278.88" font-family="Helvetica,sans-Serif" font-size="10.00">src/core/solution_output.cc</text>
</a>
</g>
</g>
<!-- Node16&#45;&gt;Node17 -->
<g id="edge24_Node000016_Node000017" class="edge">
<title>Node16&#45;&gt;Node17</title>
<g id="a_edge24_Node000016_Node000017"><a xlink:title=" ">
<path fill="none" stroke="#63b8ff" d="M98.11,-323.38C99.07,-312.58 100.11,-300.85 100.83,-292.82"/>
<polygon fill="#63b8ff" stroke="#63b8ff" points="94.65,-322.73 97.25,-333 101.63,-323.35 94.65,-322.73"/>
</a>
</g>
</g>
<!-- Node18&#45;&gt;Node14 -->
<g id="edge26_Node000018_Node000014" class="edge">
<title>Node18&#45;&gt;Node14</title>
<g id="a_edge26_Node000018_Node000014"><a xlink:title=" ">
<path fill="none" stroke="#63b8ff" d="M278.27,-326.57C270.78,-318.58 263.68,-309.06 259.7,-298.75 250.89,-275.95 255.1,-247.12 259.2,-229.51"/>
<polygon fill="#63b8ff" stroke="#63b8ff" points="275.77,-329.02 285.35,-333.55 280.68,-324.04 275.77,-329.02"/>
</a>
</g>
</g>
<!-- Node19&#45;&gt;Node3 -->
<g id="edge34_Node000019_Node000003" class="edge">
<title>Node19&#45;&gt;Node3</title>
<g id="a_edge34_Node000019_Node000003"><a xlink:title=" ">
<path fill="none" stroke="#63b8ff" d="M622.94,-332.96C671.83,-322.14 733.9,-308.41 780.58,-298.08"/>
<polygon fill="#63b8ff" stroke="#63b8ff" points="622.25,-329.53 613.24,-335.11 623.76,-336.37 622.25,-329.53"/>
</a>
</g>
</g>
<!-- Node19&#45;&gt;Node4 -->
<g id="edge31_Node000019_Node000004" class="edge">
<title>Node19&#45;&gt;Node4</title>
<g id="a_edge31_Node000019_Node000004"><a xlink:title=" ">
<path fill="none" stroke="#63b8ff" d="M528.99,-323.99C521.5,-307.02 515.21,-284.63 521.7,-265.25 526.2,-251.81 535.71,-239.06 544.22,-229.58"/>
<polygon fill="#63b8ff" stroke="#63b8ff" points="525.8,-325.44 533.31,-332.91 532.11,-322.39 525.8,-325.44"/>
</a>
</g>
</g>
<!-- Node19&#45;&gt;Node6 -->
<g id="edge36_Node000019_Node000006" class="edge">
<title>Node19&#45;&gt;Node6</title>
<g id="a_edge36_Node000019_Node000006"><a xlink:title=" ">
<path fill="none" stroke="#63b8ff" d="M506.36,-328.04C472.12,-304.29 426.7,-263.39 426.7,-213.5 426.7,-213.5 426.7,-213.5 426.7,-142 426.7,-87.99 373.29,-40.83 347.42,-21.15"/>
<polygon fill="#63b8ff" stroke="#63b8ff" points="504.16,-330.78 514.42,-333.44 508.05,-324.97 504.16,-330.78"/>
</a>
</g>
</g>
<!-- Node19&#45;&gt;Node8 -->
<g id="edge32_Node000019_Node000008" class="edge">
<title>Node19&#45;&gt;Node8</title>
<g id="a_edge32_Node000019_Node000008"><a xlink:title=" ">
<path fill="none" stroke="#63b8ff" d="M611.29,-330.46C632.61,-322.44 655.57,-311.92 674.7,-298.75 702.62,-279.52 727.67,-248.53 741.47,-229.68"/>
<polygon fill="#63b8ff" stroke="#63b8ff" points="610.29,-327.1 602.08,-333.8 612.67,-333.69 610.29,-327.1"/>
</a>
</g>
</g>
<!-- Node19&#45;&gt;Node9 -->
<g id="edge33_Node000019_Node000009" class="edge">
<title>Node19&#45;&gt;Node9</title>
<g id="a_edge33_Node000019_Node000009"><a xlink:title=" ">
<path fill="none" stroke="#63b8ff" d="M613.93,-331.03C643.03,-322.24 676.89,-311.06 706.7,-298.75 736.74,-286.34 741.56,-277.4 771.7,-265.25 806.88,-251.06 847.45,-238.73 880.46,-229.66"/>
<polygon fill="#63b8ff" stroke="#63b8ff" points="613.06,-327.64 604.47,-333.85 615.06,-334.35 613.06,-327.64"/>
</a>
</g>
</g>
<!-- Node19&#45;&gt;Node11 -->
<g id="edge35_Node000019_Node000011" class="edge">
<title>Node19&#45;&gt;Node11</title>
<g id="a_edge35_Node000019_Node000011"><a xlink:title=" ">
<path fill="none" stroke="#63b8ff" d="M601.34,-329.31C616.13,-321.59 630.9,-311.52 641.7,-298.75 672.82,-261.94 644.65,-232.63 675.7,-195.75 688.97,-179.98 708.31,-168.31 726.24,-160.08"/>
<polygon fill="#63b8ff" stroke="#63b8ff" points="599.95,-326.1 592.5,-333.63 603.02,-332.39 599.95,-326.1"/>
</a>
</g>
</g>
<!-- Node19&#45;&gt;Node15 -->
<g id="edge28_Node000019_Node000015" class="edge">
<title>Node19&#45;&gt;Node15</title>
<g id="a_edge28_Node000019_Node000015"><a xlink:title=" ">
<path fill="none" stroke="#63b8ff" d="M482.6,-330.86C451.27,-320.79 413.58,-308.67 383.95,-299.15"/>
<polygon fill="#63b8ff" stroke="#63b8ff" points="481.37,-334.14 491.96,-333.87 483.51,-327.48 481.37,-334.14"/>
</a>
</g>
</g>
<!-- Node20 -->
<g id="Node000020" class="node">
<title>Node20</title>
<g id="a_Node000020"><a xlink:href="constant__solver_8h.html" target="_top" xlink:title=" ">
<polygon fill="white" stroke="#666666" points="590.32,-159.75 455.07,-159.75 455.07,-126.25 590.32,-126.25 590.32,-159.75"/>
<text text-anchor="start" x="463.07" y="-146.25" font-family="Helvetica,sans-Serif" font-size="10.00">include/prismspf/solvers</text>
<text text-anchor="middle" x="522.7" y="-133.5" font-family="Helvetica,sans-Serif" font-size="10.00">/constant_solver.h</text>
</a>
</g>
</g>
<!-- Node19&#45;&gt;Node20 -->
<g id="edge29_Node000019_Node000020" class="edge">
<title>Node19&#45;&gt;Node20</title>
<g id="a_edge29_Node000019_Node000020"><a xlink:title=" ">
<path fill="none" stroke="#63b8ff" d="M526.35,-325.03C511.46,-301.41 491.24,-264.67 483.7,-229.25 480.6,-214.69 478.97,-209.87 483.7,-195.75 488.2,-182.31 497.71,-169.56 506.22,-160.08"/>
<polygon fill="#63b8ff" stroke="#63b8ff" points="523.36,-326.84 531.73,-333.33 529.24,-323.04 523.36,-326.84"/>
</a>
</g>
</g>
<!-- Node21 -->
<g id="Node000021" class="node">
<title>Node21</title>
<g id="a_Node000021"><a xlink:href="solver__base_8cc.html" target="_top" xlink:title=" ">
<polygon fill="white" stroke="#666666" points="632.45,-298.75 530.95,-298.75 530.95,-265.25 632.45,-265.25 632.45,-298.75"/>
<text text-anchor="start" x="538.95" y="-285.25" font-family="Helvetica,sans-Serif" font-size="10.00">src/solvers/solver</text>
<text text-anchor="middle" x="581.7" y="-272.5" font-family="Helvetica,sans-Serif" font-size="10.00">_base.cc</text>
</a>
</g>
</g>
<!-- Node19&#45;&gt;Node21 -->
<g id="edge37_Node000019_Node000021" class="edge">
<title>Node19&#45;&gt;Node21</title>
<g id="a_edge37_Node000019_Node000021"><a xlink:title=" ">
<path fill="none" stroke="#63b8ff" d="M558.34,-324.49C563.2,-315.86 568.46,-306.51 572.76,-298.88"/>
<polygon fill="#63b8ff" stroke="#63b8ff" points="555.3,-322.75 553.45,-333.18 561.4,-326.19 555.3,-322.75"/>
</a>
</g>
</g>
<!-- Node20&#45;&gt;Node5 -->
<g id="edge30_Node000020_Node000005" class="edge">
<title>Node20&#45;&gt;Node5</title>
<g id="a_edge30_Node000020_Node000005"><a xlink:title=" ">
<path fill="none" stroke="#63b8ff" d="M554.82,-119.41C568.24,-109.98 583.53,-99.23 595.78,-90.62"/>
<polygon fill="#63b8ff" stroke="#63b8ff" points="552.85,-116.52 546.69,-125.13 556.88,-122.24 552.85,-116.52"/>
</a>
</g>
</g>
</g>
</svg>
