<?xml version="1.0" encoding="UTF-8" standalone="no"?>
<!DOCTYPE svg PUBLIC "-//W3C//DTD SVG 1.1//EN"
 "http://www.w3.org/Graphics/SVG/1.1/DTD/svg11.dtd">
<!-- Generated by graphviz version 2.43.0 (0)
 -->
<!-- Title: /home/runner/work/phaseField/phaseField/include/prismspf/core/field_attributes.h Pages: 1 -->
<svg width="636pt" height="225pt"
 viewBox="0.00 0.00 635.50 225.00" xmlns="http://www.w3.org/2000/svg" xmlns:xlink="http://www.w3.org/1999/xlink">
<g id="graph0" class="graph" transform="scale(1 1) rotate(0) translate(4 221)">
<title>/home/runner/work/phaseField/phaseField/include/prismspf/core/field_attributes.h</title>
<!-- Node1 -->
<g id="Node000001" class="node">
<title>Node1</title>
<g id="a_Node000001"><a xlink:title=" ">
<polygon fill="#999999" stroke="#666666" points="419,-217 255,-217 255,-176 419,-176 419,-217"/>
<text text-anchor="start" x="263" y="-205" font-family="Helvetica,sans-Serif" font-size="10.00">/home/runner/work/phaseField</text>
<text text-anchor="start" x="263" y="-194" font-family="Helvetica,sans-Serif" font-size="10.00">/phaseField/include/prismspf</text>
<text text-anchor="middle" x="337" y="-183" font-family="Helvetica,sans-Serif" font-size="10.00">/core/field_attributes.h</text>
</a>
</g>
</g>
<!-- Node2 -->
<g id="Node000002" class="node">
<title>Node2</title>
<g id="a_Node000002"><a xlink:title=" ">
<polygon fill="#e0e0e0" stroke="#999999" points="138,-140 0,-140 0,-121 138,-121 138,-140"/>
<text text-anchor="middle" x="69" y="-128" font-family="Helvetica,sans-Serif" font-size="10.00">deal.II/base/exceptions.h</text>
</a>
</g>
</g>
<!-- Node1&#45;&gt;Node2 -->
<g id="edge1_Node000001_Node000002" class="edge">
<title>Node1&#45;&gt;Node2</title>
<g id="a_edge1_Node000001_Node000002"><a xlink:title=" ">
<path fill="none" stroke="#63b8ff" d="M255.13,-175.95C208.93,-164.92 152.92,-151.54 114.49,-142.36"/>
<polygon fill="#63b8ff" stroke="#63b8ff" points="115.17,-138.93 104.63,-140.01 113.54,-145.74 115.17,-138.93"/>
</a>
</g>
</g>
<!-- Node3 -->
<g id="Node000003" class="node">
<title>Node3</title>
<g id="a_Node000003"><a xlink:href="type__enums_8h.html" target="_top" xlink:title=" ">
<polygon fill="white" stroke="#666666" points="302,-85 194,-85 194,-55 302,-55 302,-85"/>
<text text-anchor="start" x="202" y="-73" font-family="Helvetica,sans-Serif" font-size="10.00">prismspf/core/type</text>
<text text-anchor="middle" x="248" y="-62" font-family="Helvetica,sans-Serif" font-size="10.00">_enums.h</text>
</a>
</g>
</g>
<!-- Node1&#45;&gt;Node3 -->
<g id="edge2_Node000001_Node000003" class="edge">
<title>Node1&#45;&gt;Node3</title>
<g id="a_edge2_Node000001_Node000003"><a xlink:title=" ">
<path fill="none" stroke="#63b8ff" d="M303.85,-175.82C290.66,-166.47 276.41,-154.23 267,-140 258.09,-126.54 253.33,-108.98 250.81,-94.94"/>
<polygon fill="#63b8ff" stroke="#63b8ff" points="254.26,-94.36 249.28,-85.02 247.34,-95.43 254.26,-94.36"/>
</a>
</g>
</g>
<!-- Node4 -->
<g id="Node000004" class="node">
<title>Node4</title>
<g id="a_Node000004"><a xlink:title=" ">
<polygon fill="#e0e0e0" stroke="#999999" points="386.5,-19 285.5,-19 285.5,0 386.5,0 386.5,-19"/>
<text text-anchor="middle" x="336" y="-7" font-family="Helvetica,sans-Serif" font-size="10.00">prismspf/config.h</text>
</a>
</g>
</g>
<!-- Node1&#45;&gt;Node4 -->
<g id="edge10_Node000001_Node000004" class="edge">
<title>Node1&#45;&gt;Node4</title>
<g id="a_edge10_Node000001_Node000004"><a xlink:title=" ">
<path fill="none" stroke="#63b8ff" d="M382.71,-175.92C435.9,-150.32 512.22,-103.05 477,-55 458.61,-29.91 426.02,-18.6 396.81,-13.65"/>
<polygon fill="#63b8ff" stroke="#63b8ff" points="397.05,-10.15 386.64,-12.15 396.03,-17.07 397.05,-10.15"/>
</a>
</g>
</g>
<!-- Node6 -->
<g id="Node000006" class="node">
<title>Node6</title>
<g id="a_Node000006"><a xlink:title=" ">
<polygon fill="#e0e0e0" stroke="#999999" points="197,-19 153,-19 153,0 197,0 197,-19"/>
<text text-anchor="middle" x="175" y="-7" font-family="Helvetica,sans-Serif" font-size="10.00">string</text>
</a>
</g>
</g>
<!-- Node1&#45;&gt;Node6 -->
<g id="edge12_Node000001_Node000006" class="edge">
<title>Node1&#45;&gt;Node6</title>
<g id="a_edge12_Node000001_Node000006"><a xlink:title=" ">
<path fill="none" stroke="#63b8ff" d="M292.18,-175.85C256.65,-157.72 209.12,-127.21 185,-85 175.31,-68.04 173.53,-45.45 173.73,-29.6"/>
<polygon fill="#63b8ff" stroke="#63b8ff" points="177.23,-29.57 174.13,-19.44 170.24,-29.29 177.23,-29.57"/>
</a>
</g>
</g>
<!-- Node7 -->
<g id="Node000007" class="node">
<title>Node7</title>
<g id="a_Node000007"><a xlink:href="types_8h.html" target="_top" xlink:title=" ">
<polygon fill="white" stroke="#666666" points="398,-140 276,-140 276,-121 398,-121 398,-140"/>
<text text-anchor="middle" x="337" y="-128" font-family="Helvetica,sans-Serif" font-size="10.00">prismspf/core/types.h</text>
</a>
</g>
</g>
<!-- Node1&#45;&gt;Node7 -->
<g id="edge6_Node000001_Node000007" class="edge">
<title>Node1&#45;&gt;Node7</title>
<g id="a_edge6_Node000001_Node000007"><a xlink:title=" ">
<path fill="none" stroke="#63b8ff" d="M337,-175.95C337,-167.85 337,-158.5 337,-150.47"/>
<polygon fill="#63b8ff" stroke="#63b8ff" points="340.5,-150.26 337,-140.26 333.5,-150.26 340.5,-150.26"/>
</a>
</g>
</g>
<!-- Node9 -->
<g id="Node000009" class="node">
<title>Node9</title>
<g id="a_Node000009"><a xlink:title=" ">
<polygon fill="#e0e0e0" stroke="#999999" points="562,-140 524,-140 524,-121 562,-121 562,-140"/>
<text text-anchor="middle" x="543" y="-128" font-family="Helvetica,sans-Serif" font-size="10.00">map</text>
</a>
</g>
</g>
<!-- Node1&#45;&gt;Node9 -->
<g id="edge11_Node000001_Node000009" class="edge">
<title>Node1&#45;&gt;Node9</title>
<g id="a_edge11_Node000001_Node000009"><a xlink:title=" ">
<path fill="none" stroke="#63b8ff" d="M399.93,-175.95C438.03,-164.11 484.8,-149.58 514.26,-140.43"/>
<polygon fill="#63b8ff" stroke="#63b8ff" points="515.41,-143.74 523.92,-137.43 513.33,-137.05 515.41,-143.74"/>
</a>
</g>
</g>
<!-- Node10 -->
<g id="Node000010" class="node">
<title>Node10</title>
<g id="a_Node000010"><a xlink:title=" ">
<polygon fill="#e0e0e0" stroke="#999999" points="627.5,-140 580.5,-140 580.5,-121 627.5,-121 627.5,-140"/>
<text text-anchor="middle" x="604" y="-128" font-family="Helvetica,sans-Serif" font-size="10.00">vector</text>
</a>
</g>
</g>
<!-- Node1&#45;&gt;Node10 -->
<g id="edge13_Node000001_Node000010" class="edge">
<title>Node1&#45;&gt;Node10</title>
<g id="a_edge13_Node000001_Node000010"><a xlink:title=" ">
<path fill="none" stroke="#63b8ff" d="M419.13,-176.43C461.59,-166.47 514.49,-153.92 570.47,-140.09"/>
<polygon fill="#63b8ff" stroke="#63b8ff" points="571.35,-143.48 580.22,-137.68 569.67,-136.69 571.35,-143.48"/>
</a>
</g>
</g>
<!-- Node3&#45;&gt;Node4 -->
<g id="edge3_Node000003_Node000004" class="edge">
<title>Node3&#45;&gt;Node4</title>
<g id="a_edge3_Node000003_Node000004"><a xlink:title=" ">
<path fill="none" stroke="#63b8ff" d="M269.3,-54.84C283.07,-45.68 300.93,-33.82 314.7,-24.66"/>
<polygon fill="#63b8ff" stroke="#63b8ff" points="316.68,-27.55 323.07,-19.09 312.81,-21.72 316.68,-27.55"/>
</a>
</g>
</g>
<!-- Node5 -->
<g id="Node000005" class="node">
<title>Node5</title>
<g id="a_Node000005"><a xlink:title=" ">
<polygon fill="#e0e0e0" stroke="#999999" points="267,-19 217,-19 217,0 267,0 267,-19"/>
<text text-anchor="middle" x="242" y="-7" font-family="Helvetica,sans-Serif" font-size="10.00">cstdint</text>
</a>
</g>
</g>
<!-- Node3&#45;&gt;Node5 -->
<g id="edge4_Node000003_Node000005" class="edge">
<title>Node3&#45;&gt;Node5</title>
<g id="a_edge4_Node000003_Node000005"><a xlink:title=" ">
<path fill="none" stroke="#63b8ff" d="M246.55,-54.84C245.77,-47.21 244.79,-37.7 243.94,-29.45"/>
<polygon fill="#63b8ff" stroke="#63b8ff" points="247.4,-28.86 242.9,-19.27 240.44,-29.57 247.4,-28.86"/>
</a>
</g>
</g>
<!-- Node3&#45;&gt;Node6 -->
<g id="edge5_Node000003_Node000006" class="edge">
<title>Node3&#45;&gt;Node6</title>
<g id="a_edge5_Node000003_Node000006"><a xlink:title=" ">
<path fill="none" stroke="#63b8ff" d="M230.33,-54.84C219.3,-46 205.11,-34.63 193.87,-25.62"/>
<polygon fill="#63b8ff" stroke="#63b8ff" points="195.93,-22.79 185.94,-19.27 191.55,-28.25 195.93,-22.79"/>
</a>
</g>
</g>
<!-- Node7&#45;&gt;Node3 -->
<g id="edge8_Node000007_Node000003" class="edge">
<title>Node7&#45;&gt;Node3</title>
<g id="a_edge8_Node000007_Node000003"><a xlink:title=" ">
<path fill="none" stroke="#63b8ff" d="M323.87,-120.87C311.9,-113 293.78,-101.09 278.25,-90.89"/>
<polygon fill="#63b8ff" stroke="#63b8ff" points="279.75,-87.68 269.47,-85.11 275.91,-93.53 279.75,-87.68"/>
</a>
</g>
</g>
<!-- Node7&#45;&gt;Node4 -->
<g id="edge9_Node000007_Node000004" class="edge">
<title>Node7&#45;&gt;Node4</title>
<g id="a_edge9_Node000007_Node000004"><a xlink:title=" ">
<path fill="none" stroke="#63b8ff" d="M336.93,-120.94C336.77,-101.91 336.38,-55.69 336.16,-29.47"/>
<polygon fill="#63b8ff" stroke="#63b8ff" points="339.66,-29.27 336.07,-19.3 332.66,-29.33 339.66,-29.27"/>
</a>
</g>
</g>
<!-- Node8 -->
<g id="Node000008" class="node">
<title>Node8</title>
<g id="a_Node000008"><a xlink:title=" ">
<polygon fill="#e0e0e0" stroke="#999999" points="467.5,-85 358.5,-85 358.5,-55 467.5,-55 467.5,-85"/>
<text text-anchor="start" x="366.5" y="-73" font-family="Helvetica,sans-Serif" font-size="10.00">deal.II/matrix_free</text>
<text text-anchor="middle" x="413" y="-62" font-family="Helvetica,sans-Serif" font-size="10.00">/evaluation_flags.h</text>
</a>
</g>
</g>
<!-- Node7&#45;&gt;Node8 -->
<g id="edge7_Node000007_Node000008" class="edge">
<title>Node7&#45;&gt;Node8</title>
<g id="a_edge7_Node000007_Node000008"><a xlink:title=" ">
<path fill="none" stroke="#63b8ff" d="M348.21,-120.87C358.24,-113.15 373.33,-101.54 386.42,-91.46"/>
<polygon fill="#63b8ff" stroke="#63b8ff" points="388.87,-93.99 394.66,-85.11 384.6,-88.44 388.87,-93.99"/>
</a>
</g>
</g>
</g>
</svg>
