<?xml version="1.0" encoding="UTF-8" standalone="no"?>
<!DOCTYPE svg PUBLIC "-//W3C//DTD SVG 1.1//EN"
 "http://www.w3.org/Graphics/SVG/1.1/DTD/svg11.dtd">
<!-- Generated by graphviz version 12.2.1 (20241206.2353)
 -->
<!-- Title: include/prismspf/core/group_solution_handler.h Pages: 1 -->
<svg width="1330pt" height="724pt"
 viewBox="0.00 0.00 1329.81 723.75" xmlns="http://www.w3.org/2000/svg" xmlns:xlink="http://www.w3.org/1999/xlink">
<g id="graph0" class="graph" transform="scale(1 1) rotate(0) translate(4 719.75)">
<title>include/prismspf/core/group_solution_handler.h</title>
<!-- Node1 -->
<g id="Node000001" class="node">
<title>Node1</title>
<g id="a_Node000001"><a xlink:title=" ">
<polygon fill="#999999" stroke="#666666" points="422.81,-715.75 281.56,-715.75 281.56,-682.25 422.81,-682.25 422.81,-715.75"/>
<text text-anchor="start" x="289.56" y="-702.25" font-family="Helvetica,sans-Serif" font-size="10.00">include/prismspf/core</text>
<text text-anchor="middle" x="352.19" y="-689.5" font-family="Helvetica,sans-Serif" font-size="10.00">/group_solution_handler.h</text>
</a>
</g>
</g>
<!-- Node2 -->
<g id="Node000002" class="node">
<title>Node2</title>
<g id="a_Node000002"><a xlink:href="invm__manager_8h.html" target="_top" xlink:title=" ">
<polygon fill="white" stroke="#666666" points="189.69,-507.25 68.69,-507.25 68.69,-473.75 189.69,-473.75 189.69,-507.25"/>
<text text-anchor="start" x="76.69" y="-493.75" font-family="Helvetica,sans-Serif" font-size="10.00">include/prismspf/core</text>
<text text-anchor="middle" x="129.19" y="-481" font-family="Helvetica,sans-Serif" font-size="10.00">/invm_manager.h</text>
</a>
</g>
</g>
<!-- Node1&#45;&gt;Node2 -->
<g id="edge1_Node000001_Node000002" class="edge">
<title>Node1&#45;&gt;Node2</title>
<g id="a_edge1_Node000001_Node000002"><a xlink:title=" ">
<path fill="none" stroke="#63b8ff" d="M270.41,-681.88C246.98,-674.15 222.78,-662.82 204.19,-646.25 160.95,-607.71 140.17,-538.71 132.64,-507.55"/>
<polygon fill="#63b8ff" stroke="#63b8ff" points="269.07,-685.13 279.66,-684.74 271.14,-678.44 269.07,-685.13"/>
</a>
</g>
</g>
<!-- Node3 -->
<g id="Node000003" class="node">
<title>Node3</title>
<g id="a_Node000003"><a xlink:href="linear__helper_8h.html" target="_top" xlink:title=" ">
<polygon fill="white" stroke="#666666" points="165.81,-229.25 30.56,-229.25 30.56,-195.75 165.81,-195.75 165.81,-229.25"/>
<text text-anchor="start" x="38.56" y="-215.75" font-family="Helvetica,sans-Serif" font-size="10.00">include/prismspf/solvers</text>
<text text-anchor="middle" x="98.19" y="-203" font-family="Helvetica,sans-Serif" font-size="10.00">/linear_helper.h</text>
</a>
</g>
</g>
<!-- Node1&#45;&gt;Node3 -->
<g id="edge54_Node000001_Node000003" class="edge">
<title>Node1&#45;&gt;Node3</title>
<g id="a_edge54_Node000001_Node000003"><a xlink:title=" ">
<path fill="none" stroke="#63b8ff" d="M270.07,-696.04C177.63,-688.96 40.19,-661.52 40.19,-561 40.19,-561 40.19,-561 40.19,-350.5 40.19,-303.49 69.5,-254.08 86.45,-229.44"/>
<polygon fill="#63b8ff" stroke="#63b8ff" points="269.66,-699.52 279.88,-696.72 270.14,-692.54 269.66,-699.52"/>
</a>
</g>
</g>
<!-- Node4 -->
<g id="Node000004" class="node">
<title>Node4</title>
<g id="a_Node000004"><a xlink:href="linear__solver_8h.html" target="_top" xlink:title=" ">
<polygon fill="white" stroke="#666666" points="318.81,-229.25 183.56,-229.25 183.56,-195.75 318.81,-195.75 318.81,-229.25"/>
<text text-anchor="start" x="191.56" y="-215.75" font-family="Helvetica,sans-Serif" font-size="10.00">include/prismspf/solvers</text>
<text text-anchor="middle" x="251.19" y="-203" font-family="Helvetica,sans-Serif" font-size="10.00">/linear_solver.h</text>
</a>
</g>
</g>
<!-- Node1&#45;&gt;Node4 -->
<g id="edge55_Node000001_Node000004" class="edge">
<title>Node1&#45;&gt;Node4</title>
<g id="a_edge55_Node000001_Node000004"><a xlink:title=" ">
<path fill="none" stroke="#63b8ff" d="M313.41,-675.47C302.77,-667.52 292.23,-657.66 285.19,-646.25 202.5,-512.35 232.37,-455.39 217.19,-298.75 215.75,-283.93 212.92,-279.51 217.19,-265.25 221.13,-252.07 229.63,-239.13 237.14,-229.49"/>
<polygon fill="#63b8ff" stroke="#63b8ff" points="311.27,-678.24 321.47,-681.1 315.28,-672.5 311.27,-678.24"/>
</a>
</g>
</g>
<!-- Node6 -->
<g id="Node000006" class="node">
<title>Node6</title>
<g id="a_Node000006"><a xlink:href="newton__solver_8h.html" target="_top" xlink:title=" ">
<polygon fill="white" stroke="#666666" points="346.81,-159.75 211.56,-159.75 211.56,-126.25 346.81,-126.25 346.81,-159.75"/>
<text text-anchor="start" x="219.56" y="-146.25" font-family="Helvetica,sans-Serif" font-size="10.00">include/prismspf/solvers</text>
<text text-anchor="middle" x="279.19" y="-133.5" font-family="Helvetica,sans-Serif" font-size="10.00">/newton_solver.h</text>
</a>
</g>
</g>
<!-- Node1&#45;&gt;Node6 -->
<g id="edge57_Node000001_Node000006" class="edge">
<title>Node1&#45;&gt;Node6</title>
<g id="a_edge57_Node000001_Node000006"><a xlink:title=" ">
<path fill="none" stroke="#63b8ff" d="M269.9,-691.46C193.85,-684.06 87.58,-669.86 53.19,-646.25 16.78,-621.26 2.19,-605.15 2.19,-561 2.19,-561 2.19,-561 2.19,-281 2.19,-242.18 -6.56,-222.9 21.19,-195.75 47.63,-169.86 143.92,-156.02 211.07,-149.34"/>
<polygon fill="#63b8ff" stroke="#63b8ff" points="269.57,-694.95 279.85,-692.4 270.23,-687.98 269.57,-694.95"/>
</a>
</g>
</g>
<!-- Node16 -->
<g id="Node000016" class="node">
<title>Node16</title>
<g id="a_Node000016"><a xlink:href="solver__base_8h.html" target="_top" xlink:title=" ">
<polygon fill="white" stroke="#666666" points="584.81,-368.25 449.56,-368.25 449.56,-334.75 584.81,-334.75 584.81,-368.25"/>
<text text-anchor="start" x="457.56" y="-354.75" font-family="Helvetica,sans-Serif" font-size="10.00">include/prismspf/solvers</text>
<text text-anchor="middle" x="517.19" y="-342" font-family="Helvetica,sans-Serif" font-size="10.00">/solver_base.h</text>
</a>
</g>
</g>
<!-- Node1&#45;&gt;Node16 -->
<g id="edge58_Node000001_Node000016" class="edge">
<title>Node1&#45;&gt;Node16</title>
<g id="a_edge58_Node000001_Node000016"><a xlink:title=" ">
<path fill="none" stroke="#63b8ff" d="M375.81,-673.5C398.12,-647.7 428.19,-604.8 428.19,-561 428.19,-561 428.19,-561 428.19,-489.5 428.19,-438.73 471.7,-391.98 497.87,-368.45"/>
<polygon fill="#63b8ff" stroke="#63b8ff" points="373.37,-670.98 369.31,-680.76 378.59,-675.64 373.37,-670.98"/>
</a>
</g>
</g>
<!-- Node19 -->
<g id="Node000019" class="node">
<title>Node19</title>
<g id="a_Node000019"><a xlink:href="mf__operator_8h.html" target="_top" xlink:title=" ">
<polygon fill="white" stroke="#666666" points="361.81,-298.75 226.56,-298.75 226.56,-265.25 361.81,-265.25 361.81,-298.75"/>
<text text-anchor="start" x="234.56" y="-285.25" font-family="Helvetica,sans-Serif" font-size="10.00">include/prismspf/solvers</text>
<text text-anchor="middle" x="294.19" y="-272.5" font-family="Helvetica,sans-Serif" font-size="10.00">/mf_operator.h</text>
</a>
</g>
</g>
<!-- Node1&#45;&gt;Node19 -->
<g id="edge56_Node000001_Node000019" class="edge">
<title>Node1&#45;&gt;Node19</title>
<g id="a_edge56_Node000001_Node000019"><a xlink:title=" ">
<path fill="none" stroke="#63b8ff" d="M328.56,-673.5C306.25,-647.7 276.19,-604.8 276.19,-561 276.19,-561 276.19,-561 276.19,-420 276.19,-375.86 285.48,-324.4 290.71,-298.94"/>
<polygon fill="#63b8ff" stroke="#63b8ff" points="325.78,-675.64 335.06,-680.76 331,-670.98 325.78,-675.64"/>
</a>
</g>
</g>
<!-- Node20 -->
<g id="Node000020" class="node">
<title>Node20</title>
<g id="a_Node000020"><a xlink:href="mf__operator_8cc.html" target="_top" xlink:title=" ">
<polygon fill="white" stroke="#666666" points="1198.31,-222.88 1054.06,-222.88 1054.06,-202.12 1198.31,-202.12 1198.31,-222.88"/>
<text text-anchor="middle" x="1126.19" y="-209.38" font-family="Helvetica,sans-Serif" font-size="10.00">src/solvers/mf_operator.cc</text>
</a>
</g>
</g>
<!-- Node1&#45;&gt;Node20 -->
<g id="edge61_Node000001_Node000020" class="edge">
<title>Node1&#45;&gt;Node20</title>
<g id="a_edge61_Node000001_Node000020"><a xlink:title=" ">
<path fill="none" stroke="#63b8ff" d="M434.6,-696.77C548.67,-693.69 760.59,-683.03 937.19,-646.25 1042.69,-624.27 1164.19,-668.77 1164.19,-561 1164.19,-561 1164.19,-561 1164.19,-350.5 1164.19,-301.13 1140.99,-245.28 1130.84,-223.21"/>
<polygon fill="#63b8ff" stroke="#63b8ff" points="434.62,-693.26 424.72,-697.02 434.8,-700.26 434.62,-693.26"/>
</a>
</g>
</g>
<!-- Node22 -->
<g id="Node000022" class="node">
<title>Node22</title>
<g id="a_Node000022"><a xlink:href="solution__indexer_8h.html" target="_top" xlink:title=" ">
<polygon fill="white" stroke="#666666" points="869.69,-646.25 748.69,-646.25 748.69,-612.75 869.69,-612.75 869.69,-646.25"/>
<text text-anchor="start" x="756.69" y="-632.75" font-family="Helvetica,sans-Serif" font-size="10.00">include/prismspf/core</text>
<text text-anchor="middle" x="809.19" y="-620" font-family="Helvetica,sans-Serif" font-size="10.00">/solution_indexer.h</text>
</a>
</g>
</g>
<!-- Node1&#45;&gt;Node22 -->
<g id="edge39_Node000001_Node000022" class="edge">
<title>Node1&#45;&gt;Node22</title>
<g id="a_edge39_Node000001_Node000022"><a xlink:title=" ">
<path fill="none" stroke="#63b8ff" d="M434.38,-685.86C524.68,-672.52 667.59,-651.41 748.36,-639.48"/>
<polygon fill="#63b8ff" stroke="#63b8ff" points="433.97,-682.38 424.59,-687.31 434.99,-689.31 433.97,-682.38"/>
</a>
</g>
</g>
<!-- Node28 -->
<g id="Node000028" class="node">
<title>Node28</title>
<g id="a_Node000028"><a xlink:href="solution__indexer_8cc.html" target="_top" xlink:title=" ">
<polygon fill="white" stroke="#666666" points="1136.31,-570.38 986.06,-570.38 986.06,-549.62 1136.31,-549.62 1136.31,-570.38"/>
<text text-anchor="middle" x="1061.19" y="-556.88" font-family="Helvetica,sans-Serif" font-size="10.00">src/core/solution_indexer.cc</text>
</a>
</g>
</g>
<!-- Node1&#45;&gt;Node28 -->
<g id="edge60_Node000001_Node000028" class="edge">
<title>Node1&#45;&gt;Node28</title>
<g id="a_edge60_Node000001_Node000028"><a xlink:title=" ">
<path fill="none" stroke="#63b8ff" d="M434.5,-698.48C539.55,-697.17 726.02,-688.31 879.19,-646.25 944.12,-628.42 1014.59,-589.02 1045.34,-570.71"/>
<polygon fill="#63b8ff" stroke="#63b8ff" points="434.51,-694.98 424.55,-698.58 434.59,-701.98 434.51,-694.98"/>
</a>
</g>
</g>
<!-- Node29 -->
<g id="Node000029" class="node">
<title>Node29</title>
<g id="a_Node000029"><a xlink:href="group__solution__handler_8cc.html" target="_top" xlink:title=" ">
<polygon fill="white" stroke="#666666" points="1321.81,-646.25 1192.56,-646.25 1192.56,-612.75 1321.81,-612.75 1321.81,-646.25"/>
<text text-anchor="start" x="1200.56" y="-632.75" font-family="Helvetica,sans-Serif" font-size="10.00">src/core/group_solution</text>
<text text-anchor="middle" x="1257.19" y="-620" font-family="Helvetica,sans-Serif" font-size="10.00">_handler.cc</text>
</a>
</g>
</g>
<!-- Node1&#45;&gt;Node29 -->
<g id="edge59_Node000001_Node000029" class="edge">
<title>Node1&#45;&gt;Node29</title>
<g id="a_edge59_Node000001_Node000029"><a xlink:title=" ">
<path fill="none" stroke="#63b8ff" d="M434.49,-696.5C583.44,-692.97 907.41,-681.56 1178.19,-646.25 1182.76,-645.65 1187.47,-644.95 1192.2,-644.17"/>
<polygon fill="#63b8ff" stroke="#63b8ff" points="434.64,-692.99 424.72,-696.72 434.8,-699.99 434.64,-692.99"/>
</a>
</g>
</g>
<!-- Node2&#45;&gt;Node3 -->
<g id="edge2_Node000002_Node000003" class="edge">
<title>Node2&#45;&gt;Node3</title>
<g id="a_edge2_Node000002_Node000003"><a xlink:title=" ">
<path fill="none" stroke="#63b8ff" d="M116.46,-463.12C113.18,-455.15 110.04,-446.25 108.19,-437.75 91.47,-361.22 94.84,-266.62 97.06,-229.51"/>
<polygon fill="#63b8ff" stroke="#63b8ff" points="113.25,-464.51 120.49,-472.25 119.66,-461.69 113.25,-464.51"/>
</a>
</g>
</g>
<!-- Node2&#45;&gt;Node4 -->
<g id="edge3_Node000002_Node000004" class="edge">
<title>Node2&#45;&gt;Node4</title>
<g id="a_edge3_Node000002_Node000004"><a xlink:title=" ">
<path fill="none" stroke="#63b8ff" d="M130.17,-462.07C132.96,-417.38 143.62,-327.6 184.19,-265.25 193.64,-250.71 208.62,-238.58 222.01,-229.73"/>
<polygon fill="#63b8ff" stroke="#63b8ff" points="126.68,-461.73 129.65,-471.9 133.68,-462.1 126.68,-461.73"/>
</a>
</g>
</g>
<!-- Node10 -->
<g id="Node000010" class="node">
<title>Node10</title>
<g id="a_Node000010"><a xlink:href="solve__context_8h.html" target="_top" xlink:title=" ">
<polygon fill="white" stroke="#666666" points="929.81,-437.75 794.56,-437.75 794.56,-404.25 929.81,-404.25 929.81,-437.75"/>
<text text-anchor="start" x="802.56" y="-424.25" font-family="Helvetica,sans-Serif" font-size="10.00">include/prismspf/solvers</text>
<text text-anchor="middle" x="862.19" y="-411.5" font-family="Helvetica,sans-Serif" font-size="10.00">/solve_context.h</text>
</a>
</g>
</g>
<!-- Node2&#45;&gt;Node10 -->
<g id="edge10_Node000002_Node000010" class="edge">
<title>Node2&#45;&gt;Node10</title>
<g id="a_edge10_Node000002_Node000010"><a xlink:title=" ">
<path fill="none" stroke="#63b8ff" d="M201.36,-486.71C322.51,-481.38 574.23,-467.53 785.19,-437.75 788.16,-437.33 791.19,-436.87 794.24,-436.37"/>
<polygon fill="#63b8ff" stroke="#63b8ff" points="201.4,-483.21 191.57,-487.14 201.71,-490.2 201.4,-483.21"/>
</a>
</g>
</g>
<!-- Node5 -->
<g id="Node000005" class="node">
<title>Node5</title>
<g id="a_Node000005"><a xlink:href="mg__solver_8h.html" target="_top" xlink:title=" ">
<polygon fill="white" stroke="#666666" points="499.81,-159.75 364.56,-159.75 364.56,-126.25 499.81,-126.25 499.81,-159.75"/>
<text text-anchor="start" x="372.56" y="-146.25" font-family="Helvetica,sans-Serif" font-size="10.00">include/prismspf/solvers</text>
<text text-anchor="middle" x="432.19" y="-133.5" font-family="Helvetica,sans-Serif" font-size="10.00">/mg_solver.h</text>
</a>
</g>
</g>
<!-- Node4&#45;&gt;Node5 -->
<g id="edge4_Node000004_Node000005" class="edge">
<title>Node4&#45;&gt;Node5</title>
<g id="a_edge4_Node000004_Node000005"><a xlink:title=" ">
<path fill="none" stroke="#63b8ff" d="M305.26,-191.33C331.98,-181.37 363.78,-169.51 388.87,-160.15"/>
<polygon fill="#63b8ff" stroke="#63b8ff" points="304.1,-188.03 295.96,-194.8 306.55,-194.59 304.1,-188.03"/>
</a>
</g>
</g>
<!-- Node4&#45;&gt;Node6 -->
<g id="edge5_Node000004_Node000006" class="edge">
<title>Node4&#45;&gt;Node6</title>
<g id="a_edge5_Node000004_Node000006"><a xlink:title=" ">
<path fill="none" stroke="#63b8ff" d="M262.21,-184.92C265.72,-176.45 269.5,-167.35 272.6,-159.88"/>
<polygon fill="#63b8ff" stroke="#63b8ff" points="259,-183.53 258.4,-194.11 265.47,-186.21 259,-183.53"/>
</a>
</g>
</g>
<!-- Node7 -->
<g id="Node000007" class="node">
<title>Node7</title>
<g id="a_Node000007"><a xlink:href="solvers_8h.html" target="_top" xlink:title=" ">
<polygon fill="white" stroke="#666666" points="595.81,-90.25 460.56,-90.25 460.56,-56.75 595.81,-56.75 595.81,-90.25"/>
<text text-anchor="start" x="468.56" y="-76.75" font-family="Helvetica,sans-Serif" font-size="10.00">include/prismspf/solvers</text>
<text text-anchor="middle" x="528.19" y="-64" font-family="Helvetica,sans-Serif" font-size="10.00">/solvers.h</text>
</a>
</g>
</g>
<!-- Node4&#45;&gt;Node7 -->
<g id="edge9_Node000004_Node000007" class="edge">
<title>Node4&#45;&gt;Node7</title>
<g id="a_edge9_Node000004_Node000007"><a xlink:title=" ">
<path fill="none" stroke="#63b8ff" d="M222.07,-187.54C203.71,-169.57 186.23,-144.94 202.19,-126.25 234.7,-88.17 374.73,-77.96 460.34,-75.32"/>
<polygon fill="#63b8ff" stroke="#63b8ff" points="219.62,-190.04 229.34,-194.26 224.37,-184.9 219.62,-190.04"/>
</a>
</g>
</g>
<!-- Node6&#45;&gt;Node7 -->
<g id="edge6_Node000006_Node000007" class="edge">
<title>Node6&#45;&gt;Node7</title>
<g id="a_edge6_Node000006_Node000007"><a xlink:title=" ">
<path fill="none" stroke="#63b8ff" d="M349.69,-122.89C387.21,-112.72 432.86,-100.34 468.6,-90.65"/>
<polygon fill="#63b8ff" stroke="#63b8ff" points="349.02,-119.44 340.29,-125.44 350.85,-126.2 349.02,-119.44"/>
</a>
</g>
</g>
<!-- Node8 -->
<g id="Node000008" class="node">
<title>Node8</title>
<g id="a_Node000008"><a xlink:href="problem_8cc.html" target="_top" xlink:title=" ">
<polygon fill="white" stroke="#666666" points="810.81,-20.75 699.56,-20.75 699.56,0 810.81,0 810.81,-20.75"/>
<text text-anchor="middle" x="755.19" y="-7.25" font-family="Helvetica,sans-Serif" font-size="10.00">src/core/problem.cc</text>
</a>
</g>
</g>
<!-- Node7&#45;&gt;Node8 -->
<g id="edge7_Node000007_Node000008" class="edge">
<title>Node7&#45;&gt;Node8</title>
<g id="a_edge7_Node000007_Node000008"><a xlink:title=" ">
<path fill="none" stroke="#63b8ff" d="M599.37,-53.33C639.03,-42.65 686.74,-29.81 718.83,-21.17"/>
<polygon fill="#63b8ff" stroke="#63b8ff" points="598.63,-49.91 589.88,-55.89 600.45,-56.67 598.63,-49.91"/>
</a>
</g>
</g>
<!-- Node9 -->
<g id="Node000009" class="node">
<title>Node9</title>
<g id="a_Node000009"><a xlink:href="solvers_8cc.html" target="_top" xlink:title=" ">
<polygon fill="white" stroke="#666666" points="588.31,-20.75 468.06,-20.75 468.06,0 588.31,0 588.31,-20.75"/>
<text text-anchor="middle" x="528.19" y="-7.25" font-family="Helvetica,sans-Serif" font-size="10.00">src/solvers/solvers.cc</text>
</a>
</g>
</g>
<!-- Node7&#45;&gt;Node9 -->
<g id="edge8_Node000007_Node000009" class="edge">
<title>Node7&#45;&gt;Node9</title>
<g id="a_edge8_Node000007_Node000009"><a xlink:title=" ">
<path fill="none" stroke="#63b8ff" d="M528.19,-44.94C528.19,-36.46 528.19,-27.67 528.19,-21.22"/>
<polygon fill="#63b8ff" stroke="#63b8ff" points="524.69,-44.93 528.19,-54.93 531.69,-44.93 524.69,-44.93"/>
</a>
</g>
</g>
<!-- Node11 -->
<g id="Node000011" class="node">
<title>Node11</title>
<g id="a_Node000011"><a xlink:href="problem_8h.html" target="_top" xlink:title=" ">
<polygon fill="white" stroke="#666666" points="882.69,-229.25 761.69,-229.25 761.69,-195.75 882.69,-195.75 882.69,-229.25"/>
<text text-anchor="start" x="769.69" y="-215.75" font-family="Helvetica,sans-Serif" font-size="10.00">include/prismspf/core</text>
<text text-anchor="middle" x="822.19" y="-203" font-family="Helvetica,sans-Serif" font-size="10.00">/problem.h</text>
</a>
</g>
</g>
<!-- Node10&#45;&gt;Node11 -->
<g id="edge11_Node000010_Node000011" class="edge">
<title>Node10&#45;&gt;Node11</title>
<g id="a_edge11_Node000010_Node000011"><a xlink:title=" ">
<path fill="none" stroke="#63b8ff" d="M865.3,-392.9C866.08,-384.97 866.8,-376.27 867.19,-368.25 867.9,-353.38 869.46,-349.46 867.19,-334.75 862.24,-302.73 856.67,-295.55 845.19,-265.25 840.58,-253.11 834.61,-239.74 829.91,-229.62"/>
<polygon fill="#63b8ff" stroke="#63b8ff" points="861.84,-392.36 864.27,-402.67 868.8,-393.09 861.84,-392.36"/>
</a>
</g>
</g>
<!-- Node12 -->
<g id="Node000012" class="node">
<title>Node12</title>
<g id="a_Node000012"><a xlink:href="refinement__manager_8h.html" target="_top" xlink:title=" ">
<polygon fill="white" stroke="#666666" points="819.81,-298.75 690.56,-298.75 690.56,-265.25 819.81,-265.25 819.81,-298.75"/>
<text text-anchor="start" x="698.56" y="-285.25" font-family="Helvetica,sans-Serif" font-size="10.00">include/prismspf/core</text>
<text text-anchor="middle" x="755.19" y="-272.5" font-family="Helvetica,sans-Serif" font-size="10.00">/refinement_manager.h</text>
</a>
</g>
</g>
<!-- Node10&#45;&gt;Node12 -->
<g id="edge13_Node000010_Node000012" class="edge">
<title>Node10&#45;&gt;Node12</title>
<g id="a_edge13_Node000010_Node000012"><a xlink:title=" ">
<path fill="none" stroke="#63b8ff" d="M787.62,-400.79C747.07,-389.59 703.99,-376.16 698.19,-368.25 680.92,-344.7 709.17,-316.34 731.7,-298.99"/>
<polygon fill="#63b8ff" stroke="#63b8ff" points="786.65,-404.15 797.22,-403.41 788.49,-397.4 786.65,-404.15"/>
</a>
</g>
</g>
<!-- Node13 -->
<g id="Node000013" class="node">
<title>Node13</title>
<g id="a_Node000013"><a xlink:href="solution__output_8h.html" target="_top" xlink:title=" ">
<polygon fill="white" stroke="#666666" points="1035.69,-368.25 914.69,-368.25 914.69,-334.75 1035.69,-334.75 1035.69,-368.25"/>
<text text-anchor="start" x="922.69" y="-354.75" font-family="Helvetica,sans-Serif" font-size="10.00">include/prismspf/core</text>
<text text-anchor="middle" x="975.19" y="-342" font-family="Helvetica,sans-Serif" font-size="10.00">/solution_output.h</text>
</a>
</g>
</g>
<!-- Node10&#45;&gt;Node13 -->
<g id="edge15_Node000010_Node000013" class="edge">
<title>Node10&#45;&gt;Node13</title>
<g id="a_edge15_Node000010_Node000013"><a xlink:title=" ">
<path fill="none" stroke="#63b8ff" d="M898.9,-398.07C915.01,-388.45 933.56,-377.36 948.34,-368.54"/>
<polygon fill="#63b8ff" stroke="#63b8ff" points="897.34,-394.92 890.55,-403.06 900.93,-400.93 897.34,-394.92"/>
</a>
</g>
</g>
<!-- Node15 -->
<g id="Node000015" class="node">
<title>Node15</title>
<g id="a_Node000015"><a xlink:href="nucleation__manager_8h.html" target="_top" xlink:title=" ">
<polygon fill="white" stroke="#666666" points="857.69,-368.25 706.69,-368.25 706.69,-334.75 857.69,-334.75 857.69,-368.25"/>
<text text-anchor="start" x="714.69" y="-354.75" font-family="Helvetica,sans-Serif" font-size="10.00">include/prismspf/nucleation</text>
<text text-anchor="middle" x="782.19" y="-342" font-family="Helvetica,sans-Serif" font-size="10.00">/nucleation_manager.h</text>
</a>
</g>
</g>
<!-- Node10&#45;&gt;Node15 -->
<g id="edge19_Node000010_Node000015" class="edge">
<title>Node10&#45;&gt;Node15</title>
<g id="a_edge19_Node000010_Node000015"><a xlink:title=" ">
<path fill="none" stroke="#63b8ff" d="M834.44,-396.59C823.49,-387.35 811.2,-376.98 801.29,-368.62"/>
<polygon fill="#63b8ff" stroke="#63b8ff" points="832.17,-399.25 842.07,-403.03 836.68,-393.9 832.17,-399.25"/>
</a>
</g>
</g>
<!-- Node10&#45;&gt;Node16 -->
<g id="edge21_Node000010_Node000016" class="edge">
<title>Node10&#45;&gt;Node16</title>
<g id="a_edge21_Node000010_Node000016"><a xlink:title=" ">
<path fill="none" stroke="#63b8ff" d="M782.9,-403.81C709.67,-389.29 636.79,-375.27 585.24,-365.43"/>
<polygon fill="#63b8ff" stroke="#63b8ff" points="782.2,-407.24 792.69,-405.75 783.56,-400.37 782.2,-407.24"/>
</a>
</g>
</g>
<!-- Node11&#45;&gt;Node8 -->
<g id="edge12_Node000011_Node000008" class="edge">
<title>Node11&#45;&gt;Node8</title>
<g id="a_edge12_Node000011_Node000008"><a xlink:title=" ">
<path fill="none" stroke="#63b8ff" d="M813.23,-184.74C798.11,-139.58 768.21,-50.29 758.39,-20.96"/>
<polygon fill="#63b8ff" stroke="#63b8ff" points="809.84,-185.65 816.33,-194.03 816.48,-183.43 809.84,-185.65"/>
</a>
</g>
</g>
<!-- Node12&#45;&gt;Node11 -->
<g id="edge14_Node000012_Node000011" class="edge">
<title>Node12&#45;&gt;Node11</title>
<g id="a_edge14_Node000012_Node000011"><a xlink:title=" ">
<path fill="none" stroke="#63b8ff" d="M779.04,-256.97C788.13,-247.81 798.26,-237.6 806.42,-229.38"/>
<polygon fill="#63b8ff" stroke="#63b8ff" points="776.69,-254.37 772.13,-263.93 781.66,-259.3 776.69,-254.37"/>
</a>
</g>
</g>
<!-- Node13&#45;&gt;Node8 -->
<g id="edge17_Node000013_Node000008" class="edge">
<title>Node13&#45;&gt;Node8</title>
<g id="a_edge17_Node000013_Node000008"><a xlink:title=" ">
<path fill="none" stroke="#63b8ff" d="M957.02,-324.92C951.95,-316.85 946.83,-307.69 943.19,-298.75 928.55,-262.8 924.19,-252.32 924.19,-213.5 924.19,-213.5 924.19,-213.5 924.19,-142 924.19,-74.88 839.7,-37.37 790.2,-21.16"/>
<polygon fill="#63b8ff" stroke="#63b8ff" points="954.06,-326.79 962.49,-333.21 959.91,-322.94 954.06,-326.79"/>
</a>
</g>
</g>
<!-- Node13&#45;&gt;Node13 -->
<g id="edge16_Node000013_Node000013" class="edge">
<title>Node13&#45;&gt;Node13</title>
<g id="a_edge16_Node000013_Node000013"><a xlink:title=" ">
<path fill="none" stroke="#63b8ff" d="M1046.9,-360.45C1051.14,-358.31 1053.69,-355.33 1053.69,-351.5 1053.69,-345.05 1046.48,-341 1036.08,-339.33"/>
<polygon fill="#63b8ff" stroke="#63b8ff" points="1046.12,-357.04 1037.53,-363.23 1048.11,-363.75 1046.12,-357.04"/>
</a>
</g>
</g>
<!-- Node14 -->
<g id="Node000014" class="node">
<title>Node14</title>
<g id="a_Node000014"><a xlink:href="solution__output_8cc.html" target="_top" xlink:title=" ">
<polygon fill="white" stroke="#666666" points="1098.44,-292.38 951.94,-292.38 951.94,-271.62 1098.44,-271.62 1098.44,-292.38"/>
<text text-anchor="middle" x="1025.19" y="-278.88" font-family="Helvetica,sans-Serif" font-size="10.00">src/core/solution_output.cc</text>
</a>
</g>
</g>
<!-- Node13&#45;&gt;Node14 -->
<g id="edge18_Node000013_Node000014" class="edge">
<title>Node13&#45;&gt;Node14</title>
<g id="a_edge18_Node000013_Node000014"><a xlink:title=" ">
<path fill="none" stroke="#63b8ff" d="M993.75,-325.43C1002.15,-314.1 1011.59,-301.36 1017.91,-292.82"/>
<polygon fill="#63b8ff" stroke="#63b8ff" points="991.08,-323.17 987.94,-333.29 996.7,-327.33 991.08,-323.17"/>
</a>
</g>
</g>
<!-- Node15&#45;&gt;Node11 -->
<g id="edge20_Node000015_Node000011" class="edge">
<title>Node15&#45;&gt;Node11</title>
<g id="a_edge20_Node000015_Node000011"><a xlink:title=" ">
<path fill="none" stroke="#63b8ff" d="M810.61,-326.57C818.11,-318.58 825.2,-309.06 829.19,-298.75 838.02,-275.89 832.55,-247.09 827.56,-229.49"/>
<polygon fill="#63b8ff" stroke="#63b8ff" points="808.2,-324.04 803.54,-333.55 813.12,-329.02 808.2,-324.04"/>
</a>
</g>
</g>
<!-- Node16&#45;&gt;Node3 -->
<g id="edge27_Node000016_Node000003" class="edge">
<title>Node16&#45;&gt;Node3</title>
<g id="a_edge27_Node000016_Node000003"><a xlink:title=" ">
<path fill="none" stroke="#63b8ff" d="M437.94,-346.53C375.84,-341.16 288.33,-328.51 217.19,-298.75 176.86,-281.88 137,-249.2 115.19,-229.56"/>
<polygon fill="#63b8ff" stroke="#63b8ff" points="437.47,-350.01 447.72,-347.33 438.04,-343.03 437.47,-350.01"/>
</a>
</g>
</g>
<!-- Node16&#45;&gt;Node4 -->
<g id="edge28_Node000016_Node000004" class="edge">
<title>Node16&#45;&gt;Node4</title>
<g id="a_edge28_Node000016_Node000004"><a xlink:title=" ">
<path fill="none" stroke="#63b8ff" d="M466.41,-329.67C447.79,-321.14 426.95,-310.51 409.19,-298.75 390.41,-286.32 390.2,-277.3 371.19,-265.25 348.38,-250.8 320.85,-238.6 297.91,-229.68"/>
<polygon fill="#63b8ff" stroke="#63b8ff" points="464.84,-332.8 475.4,-333.7 467.7,-326.42 464.84,-332.8"/>
</a>
</g>
</g>
<!-- Node16&#45;&gt;Node6 -->
<g id="edge36_Node000016_Node000006" class="edge">
<title>Node16&#45;&gt;Node6</title>
<g id="a_edge36_Node000016_Node000006"><a xlink:title=" ">
<path fill="none" stroke="#63b8ff" d="M529.62,-323.8C535.97,-305.92 540.27,-282.58 529.19,-265.25 508.61,-233.09 485.63,-245.73 451.19,-229.25 402.03,-205.73 345.5,-177.48 311.07,-160.14"/>
<polygon fill="#63b8ff" stroke="#63b8ff" points="526.41,-322.39 525.97,-332.97 532.92,-324.97 526.41,-322.39"/>
</a>
</g>
</g>
<!-- Node16&#45;&gt;Node8 -->
<g id="edge37_Node000016_Node000008" class="edge">
<title>Node16&#45;&gt;Node8</title>
<g id="a_edge37_Node000016_Node000008"><a xlink:title=" ">
<path fill="none" stroke="#63b8ff" d="M559.91,-328.6C573.91,-320.32 588.98,-310.11 601.19,-298.75 656.89,-246.89 665.61,-227.03 701.19,-159.75 727.32,-110.31 746.09,-45.45 752.64,-21.13"/>
<polygon fill="#63b8ff" stroke="#63b8ff" points="558.23,-325.53 551.29,-333.54 561.7,-331.61 558.23,-325.53"/>
</a>
</g>
</g>
<!-- Node16&#45;&gt;Node12 -->
<g id="edge22_Node000016_Node000012" class="edge">
<title>Node16&#45;&gt;Node12</title>
<g id="a_edge22_Node000016_Node000012"><a xlink:title=" ">
<path fill="none" stroke="#63b8ff" d="M585.03,-331.26C620.82,-321.11 664.22,-308.8 698.23,-299.15"/>
<polygon fill="#63b8ff" stroke="#63b8ff" points="584.31,-327.82 575.65,-333.92 586.22,-334.56 584.31,-327.82"/>
</a>
</g>
</g>
<!-- Node17 -->
<g id="Node000017" class="node">
<title>Node17</title>
<g id="a_Node000017"><a xlink:href="constant__solver_8h.html" target="_top" xlink:title=" ">
<polygon fill="white" stroke="#666666" points="691.81,-159.75 556.56,-159.75 556.56,-126.25 691.81,-126.25 691.81,-159.75"/>
<text text-anchor="start" x="564.56" y="-146.25" font-family="Helvetica,sans-Serif" font-size="10.00">include/prismspf/solvers</text>
<text text-anchor="middle" x="624.19" y="-133.5" font-family="Helvetica,sans-Serif" font-size="10.00">/constant_solver.h</text>
</a>
</g>
</g>
<!-- Node16&#45;&gt;Node17 -->
<g id="edge23_Node000016_Node000017" class="edge">
<title>Node16&#45;&gt;Node17</title>
<g id="a_edge23_Node000016_Node000017"><a xlink:title=" ">
<path fill="none" stroke="#63b8ff" d="M550.4,-327.38C560.34,-319.22 570.6,-309.4 578.19,-298.75 609.4,-254.92 619.67,-189.79 622.85,-159.96"/>
<polygon fill="#63b8ff" stroke="#63b8ff" points="548.36,-324.53 542.64,-333.44 552.67,-330.04 548.36,-324.53"/>
</a>
</g>
</g>
<!-- Node18 -->
<g id="Node000018" class="node">
<title>Node18</title>
<g id="a_Node000018"><a xlink:href="explicit__solver_8h.html" target="_top" xlink:title=" ">
<polygon fill="white" stroke="#666666" points="595.81,-229.25 460.56,-229.25 460.56,-195.75 595.81,-195.75 595.81,-229.25"/>
<text text-anchor="start" x="468.56" y="-215.75" font-family="Helvetica,sans-Serif" font-size="10.00">include/prismspf/solvers</text>
<text text-anchor="middle" x="528.19" y="-203" font-family="Helvetica,sans-Serif" font-size="10.00">/explicit_solver.h</text>
</a>
</g>
</g>
<!-- Node16&#45;&gt;Node18 -->
<g id="edge25_Node000016_Node000018" class="edge">
<title>Node16&#45;&gt;Node18</title>
<g id="a_edge25_Node000016_Node000018"><a xlink:title=" ">
<path fill="none" stroke="#63b8ff" d="M544.42,-326.38C551.6,-318.38 558.39,-308.91 562.19,-298.75 567.4,-284.8 566.45,-279.51 562.19,-265.25 558.24,-252.07 549.74,-239.13 542.23,-229.49"/>
<polygon fill="#63b8ff" stroke="#63b8ff" points="542.11,-323.74 537.67,-333.35 547.14,-328.61 542.11,-323.74"/>
</a>
</g>
</g>
<!-- Node16&#45;&gt;Node19 -->
<g id="edge29_Node000016_Node000019" class="edge">
<title>Node16&#45;&gt;Node19</title>
<g id="a_edge29_Node000016_Node000019"><a xlink:title=" ">
<path fill="none" stroke="#63b8ff" d="M453.18,-331.13C419.74,-321 379.28,-308.76 347.55,-299.15"/>
<polygon fill="#63b8ff" stroke="#63b8ff" points="451.74,-334.35 462.32,-333.89 453.77,-327.65 451.74,-334.35"/>
</a>
</g>
</g>
<!-- Node21 -->
<g id="Node000021" class="node">
<title>Node21</title>
<g id="a_Node000021"><a xlink:href="solver__base_8cc.html" target="_top" xlink:title=" ">
<polygon fill="white" stroke="#666666" points="519.94,-298.75 418.44,-298.75 418.44,-265.25 519.94,-265.25 519.94,-298.75"/>
<text text-anchor="start" x="426.44" y="-285.25" font-family="Helvetica,sans-Serif" font-size="10.00">src/solvers/solver</text>
<text text-anchor="middle" x="469.19" y="-272.5" font-family="Helvetica,sans-Serif" font-size="10.00">_base.cc</text>
</a>
</g>
</g>
<!-- Node16&#45;&gt;Node21 -->
<g id="edge38_Node000016_Node000021" class="edge">
<title>Node16&#45;&gt;Node21</title>
<g id="a_edge38_Node000016_Node000021"><a xlink:title=" ">
<path fill="none" stroke="#63b8ff" d="M499.3,-325.34C492.99,-316.48 486.09,-306.77 480.48,-298.88"/>
<polygon fill="#63b8ff" stroke="#63b8ff" points="496.28,-327.15 504.93,-333.27 501.99,-323.09 496.28,-327.15"/>
</a>
</g>
</g>
<!-- Node17&#45;&gt;Node7 -->
<g id="edge24_Node000017_Node000007" class="edge">
<title>Node17&#45;&gt;Node7</title>
<g id="a_edge24_Node000017_Node000007"><a xlink:title=" ">
<path fill="none" stroke="#63b8ff" d="M592.06,-119.41C578.64,-109.98 563.36,-99.23 551.11,-90.62"/>
<polygon fill="#63b8ff" stroke="#63b8ff" points="590,-122.24 600.2,-125.13 594.03,-116.52 590,-122.24"/>
</a>
</g>
</g>
<!-- Node18&#45;&gt;Node7 -->
<g id="edge26_Node000018_Node000007" class="edge">
<title>Node18&#45;&gt;Node7</title>
<g id="a_edge26_Node000018_Node000007"><a xlink:title=" ">
<path fill="none" stroke="#63b8ff" d="M528.19,-184.12C528.19,-156.04 528.19,-113.32 528.19,-90.38"/>
<polygon fill="#63b8ff" stroke="#63b8ff" points="524.69,-184 528.19,-194 531.69,-184 524.69,-184"/>
</a>
</g>
</g>
<!-- Node19&#45;&gt;Node3 -->
<g id="edge31_Node000019_Node000003" class="edge">
<title>Node19&#45;&gt;Node3</title>
<g id="a_edge31_Node000019_Node000003"><a xlink:title=" ">
<path fill="none" stroke="#63b8ff" d="M236.4,-261.1C207.31,-251.08 172.5,-239.09 145.09,-229.65"/>
<polygon fill="#63b8ff" stroke="#63b8ff" points="235.21,-264.39 245.81,-264.34 237.49,-257.77 235.21,-264.39"/>
</a>
</g>
</g>
<!-- Node19&#45;&gt;Node4 -->
<g id="edge32_Node000019_Node000004" class="edge">
<title>Node19&#45;&gt;Node4</title>
<g id="a_edge32_Node000019_Node000004"><a xlink:title=" ">
<path fill="none" stroke="#63b8ff" d="M277.98,-255.56C272.38,-246.77 266.27,-237.18 261.3,-229.38"/>
<polygon fill="#63b8ff" stroke="#63b8ff" points="274.86,-257.17 283.18,-263.73 280.76,-253.41 274.86,-257.17"/>
</a>
</g>
</g>
<!-- Node19&#45;&gt;Node5 -->
<g id="edge33_Node000019_Node000005" class="edge">
<title>Node19&#45;&gt;Node5</title>
<g id="a_edge33_Node000019_Node000005"><a xlink:title=" ">
<path fill="none" stroke="#63b8ff" d="M318.41,-256.95C346.54,-229.02 392.15,-183.74 416.19,-159.88"/>
<polygon fill="#63b8ff" stroke="#63b8ff" points="315.99,-254.42 311.36,-263.95 320.92,-259.39 315.99,-254.42"/>
</a>
</g>
</g>
<!-- Node19&#45;&gt;Node6 -->
<g id="edge34_Node000019_Node000006" class="edge">
<title>Node19&#45;&gt;Node6</title>
<g id="a_edge34_Node000019_Node000006"><a xlink:title=" ">
<path fill="none" stroke="#63b8ff" d="M314.86,-255.9C320.28,-247.87 325.38,-238.62 328.19,-229.25 332.45,-214.99 333.69,-209.58 328.19,-195.75 322.6,-181.73 311.21,-169.32 300.82,-160.17"/>
<polygon fill="#63b8ff" stroke="#63b8ff" points="312.17,-253.64 309.12,-263.79 317.83,-257.76 312.17,-253.64"/>
</a>
</g>
</g>
<!-- Node19&#45;&gt;Node18 -->
<g id="edge30_Node000019_Node000018" class="edge">
<title>Node19&#45;&gt;Node18</title>
<g id="a_edge30_Node000019_Node000018"><a xlink:title=" ">
<path fill="none" stroke="#63b8ff" d="M360.89,-261.76C396.07,-251.61 438.75,-239.3 472.19,-229.65"/>
<polygon fill="#63b8ff" stroke="#63b8ff" points="360.33,-258.28 351.69,-264.41 362.27,-265 360.33,-258.28"/>
</a>
</g>
</g>
<!-- Node19&#45;&gt;Node20 -->
<g id="edge35_Node000019_Node000020" class="edge">
<title>Node19&#45;&gt;Node20</title>
<g id="a_edge35_Node000019_Node000020"><a xlink:title=" ">
<path fill="none" stroke="#63b8ff" d="M373.54,-269.46C385.47,-267.92 397.64,-266.46 409.19,-265.25 472.02,-258.69 884.08,-230.13 1053.56,-218.48"/>
<polygon fill="#63b8ff" stroke="#63b8ff" points="373.16,-265.98 363.71,-270.75 374.08,-272.92 373.16,-265.98"/>
</a>
</g>
</g>
<!-- Node22&#45;&gt;Node10 -->
<g id="edge52_Node000022_Node000010" class="edge">
<title>Node22&#45;&gt;Node10</title>
<g id="a_edge52_Node000022_Node000010"><a xlink:title=" ">
<path fill="none" stroke="#63b8ff" d="M822.22,-602.29C825.84,-594.24 829.51,-585.26 832.19,-576.75 847.71,-527.41 856.66,-466.58 860.29,-438.11"/>
<polygon fill="#63b8ff" stroke="#63b8ff" points="819.12,-600.64 818.05,-611.18 825.46,-603.61 819.12,-600.64"/>
</a>
</g>
</g>
<!-- Node22&#45;&gt;Node13 -->
<g id="edge50_Node000022_Node000013" class="edge">
<title>Node22&#45;&gt;Node13</title>
<g id="a_edge50_Node000022_Node000013"><a xlink:title=" ">
<path fill="none" stroke="#63b8ff" d="M830.1,-603.94C837.03,-595.49 844.64,-585.86 851.19,-576.75 893.85,-517.37 905.29,-502.54 939.19,-437.75 951.4,-414.4 962.74,-385.98 969.31,-368.57"/>
<polygon fill="#63b8ff" stroke="#63b8ff" points="827.6,-601.48 823.9,-611.4 832.98,-605.95 827.6,-601.48"/>
</a>
</g>
</g>
<!-- Node22&#45;&gt;Node19 -->
<g id="edge51_Node000022_Node000019" class="edge">
<title>Node22&#45;&gt;Node19</title>
<g id="a_edge51_Node000022_Node000019"><a xlink:title=" ">
<path fill="none" stroke="#63b8ff" d="M737.27,-623.6C600.01,-612.26 314.19,-578.23 314.19,-491.5 314.19,-491.5 314.19,-491.5 314.19,-420 314.19,-375.77 303.85,-324.35 298.04,-298.92"/>
<polygon fill="#63b8ff" stroke="#63b8ff" points="736.73,-627.07 746.98,-624.38 737.29,-620.09 736.73,-627.07"/>
</a>
</g>
</g>
<!-- Node23 -->
<g id="Node000023" class="node">
<title>Node23</title>
<g id="a_Node000023"><a xlink:href="field__container_8h.html" target="_top" xlink:title=" ">
<polygon fill="white" stroke="#666666" points="822.69,-576.75 701.69,-576.75 701.69,-543.25 822.69,-543.25 822.69,-576.75"/>
<text text-anchor="start" x="709.69" y="-563.25" font-family="Helvetica,sans-Serif" font-size="10.00">include/prismspf/core</text>
<text text-anchor="middle" x="762.19" y="-550.5" font-family="Helvetica,sans-Serif" font-size="10.00">/field_container.h</text>
</a>
</g>
</g>
<!-- Node22&#45;&gt;Node23 -->
<g id="edge40_Node000022_Node000023" class="edge">
<title>Node22&#45;&gt;Node23</title>
<g id="a_edge40_Node000022_Node000023"><a xlink:title=" ">
<path fill="none" stroke="#63b8ff" d="M791.47,-603.06C785.35,-594.27 778.67,-584.68 773.24,-576.88"/>
<polygon fill="#63b8ff" stroke="#63b8ff" points="788.6,-605.05 797.18,-611.26 794.34,-601.05 788.6,-605.05"/>
</a>
</g>
</g>
<!-- Node22&#45;&gt;Node28 -->
<g id="edge53_Node000022_Node000028" class="edge">
<title>Node22&#45;&gt;Node28</title>
<g id="a_edge53_Node000022_Node000028"><a xlink:title=" ">
<path fill="none" stroke="#63b8ff" d="M880.55,-609.38C927.4,-596.84 986.73,-580.94 1024.34,-570.87"/>
<polygon fill="#63b8ff" stroke="#63b8ff" points="879.76,-605.97 871.01,-611.94 881.57,-612.73 879.76,-605.97"/>
</a>
</g>
</g>
<!-- Node23&#45;&gt;Node19 -->
<g id="edge47_Node000023_Node000019" class="edge">
<title>Node23&#45;&gt;Node19</title>
<g id="a_edge47_Node000023_Node000019"><a xlink:title=" ">
<path fill="none" stroke="#63b8ff" d="M689.89,-556.15C635.21,-551.37 559.79,-538.96 501.19,-507.25 452.14,-480.71 343.79,-346.2 306.83,-299.22"/>
<polygon fill="#63b8ff" stroke="#63b8ff" points="689.48,-559.63 699.73,-556.94 690.04,-552.65 689.48,-559.63"/>
</a>
</g>
</g>
<!-- Node23&#45;&gt;Node20 -->
<g id="edge49_Node000023_Node000020" class="edge">
<title>Node23&#45;&gt;Node20</title>
<g id="a_edge49_Node000023_Node000020"><a xlink:title=" ">
<path fill="none" stroke="#63b8ff" d="M807.72,-538.16C870.72,-507.66 985.5,-445.97 1063.19,-368.25 1089.03,-342.39 1093.22,-332.54 1107.19,-298.75 1117.96,-272.68 1123.11,-239.49 1125.12,-223.29"/>
<polygon fill="#63b8ff" stroke="#63b8ff" points="806.56,-534.83 799.06,-542.31 809.59,-541.14 806.56,-534.83"/>
</a>
</g>
</g>
<!-- Node24 -->
<g id="Node000024" class="node">
<title>Node24</title>
<g id="a_Node000024"><a xlink:href="pde__operator__base_8h.html" target="_top" xlink:title=" ">
<polygon fill="white" stroke="#666666" points="630.69,-507.25 509.69,-507.25 509.69,-473.75 630.69,-473.75 630.69,-507.25"/>
<text text-anchor="start" x="517.69" y="-493.75" font-family="Helvetica,sans-Serif" font-size="10.00">include/prismspf/core</text>
<text text-anchor="middle" x="570.19" y="-481" font-family="Helvetica,sans-Serif" font-size="10.00">/pde_operator_base.h</text>
</a>
</g>
</g>
<!-- Node23&#45;&gt;Node24 -->
<g id="edge41_Node000023_Node000024" class="edge">
<title>Node23&#45;&gt;Node24</title>
<g id="a_edge41_Node000023_Node000024"><a xlink:title=" ">
<path fill="none" stroke="#63b8ff" d="M705.58,-539.1C677.08,-529.08 642.98,-517.09 616.13,-507.65"/>
<polygon fill="#63b8ff" stroke="#63b8ff" points="704.17,-542.32 714.77,-542.33 706.5,-535.71 704.17,-542.32"/>
</a>
</g>
</g>
<!-- Node27 -->
<g id="Node000027" class="node">
<title>Node27</title>
<g id="a_Node000027"><a xlink:href="field__container_8cc.html" target="_top" xlink:title=" ">
<polygon fill="white" stroke="#666666" points="833.19,-500.88 691.19,-500.88 691.19,-480.12 833.19,-480.12 833.19,-500.88"/>
<text text-anchor="middle" x="762.19" y="-487.38" font-family="Helvetica,sans-Serif" font-size="10.00">src/core/field_container.cc</text>
</a>
</g>
</g>
<!-- Node23&#45;&gt;Node27 -->
<g id="edge48_Node000023_Node000027" class="edge">
<title>Node23&#45;&gt;Node27</title>
<g id="a_edge48_Node000023_Node000027"><a xlink:title=" ">
<path fill="none" stroke="#63b8ff" d="M762.19,-531.53C762.19,-520.83 762.19,-509.26 762.19,-501.32"/>
<polygon fill="#63b8ff" stroke="#63b8ff" points="758.69,-531.49 762.19,-541.49 765.69,-531.49 758.69,-531.49"/>
</a>
</g>
</g>
<!-- Node24&#45;&gt;Node10 -->
<g id="edge43_Node000024_Node000010" class="edge">
<title>Node24&#45;&gt;Node10</title>
<g id="a_edge43_Node000024_Node000010"><a xlink:title=" ">
<path fill="none" stroke="#63b8ff" d="M642.24,-472.84C688.67,-462.11 748.66,-448.24 794.26,-437.7"/>
<polygon fill="#63b8ff" stroke="#63b8ff" points="641.47,-469.43 632.52,-475.09 643.05,-476.25 641.47,-469.43"/>
</a>
</g>
</g>
<!-- Node24&#45;&gt;Node16 -->
<g id="edge44_Node000024_Node000016" class="edge">
<title>Node24&#45;&gt;Node16</title>
<g id="a_edge44_Node000024_Node000016"><a xlink:title=" ">
<path fill="none" stroke="#63b8ff" d="M516.1,-467.84C503.79,-460.24 492.26,-450.35 485.19,-437.75 472.41,-415.01 489.39,-386.17 503.09,-368.54"/>
<polygon fill="#63b8ff" stroke="#63b8ff" points="514.33,-470.86 524.76,-472.72 517.76,-464.76 514.33,-470.86"/>
</a>
</g>
</g>
<!-- Node24&#45;&gt;Node19 -->
<g id="edge42_Node000024_Node000019" class="edge">
<title>Node24&#45;&gt;Node19</title>
<g id="a_edge42_Node000024_Node000019"><a xlink:title=" ">
<path fill="none" stroke="#63b8ff" d="M526.47,-468.35C510.15,-459.71 491.79,-449.08 476.19,-437.75 421.98,-398.41 417.93,-377.27 366.19,-334.75 350.72,-322.04 332.4,-308.9 318.1,-299.03"/>
<polygon fill="#63b8ff" stroke="#63b8ff" points="524.5,-471.27 534.99,-472.77 527.73,-465.06 524.5,-471.27"/>
</a>
</g>
</g>
<!-- Node25 -->
<g id="Node000025" class="node">
<title>Node25</title>
<g id="a_Node000025"><a xlink:href="dirichlet_8cc.html" target="_top" xlink:title=" ">
<polygon fill="white" stroke="#666666" points="604.44,-431.38 493.94,-431.38 493.94,-410.62 604.44,-410.62 604.44,-431.38"/>
<text text-anchor="middle" x="549.19" y="-417.88" font-family="Helvetica,sans-Serif" font-size="10.00">src/core/dirichlet.cc</text>
</a>
</g>
</g>
<!-- Node24&#45;&gt;Node25 -->
<g id="edge45_Node000024_Node000025" class="edge">
<title>Node24&#45;&gt;Node25</title>
<g id="a_edge45_Node000024_Node000025"><a xlink:title=" ">
<path fill="none" stroke="#63b8ff" d="M561.85,-462.72C558.47,-451.83 554.76,-439.93 552.24,-431.82"/>
<polygon fill="#63b8ff" stroke="#63b8ff" points="558.45,-463.55 564.76,-472.06 565.13,-461.47 558.45,-463.55"/>
</a>
</g>
</g>
<!-- Node26 -->
<g id="Node000026" class="node">
<title>Node26</title>
<g id="a_Node000026"><a xlink:href="initial__conditions_8cc.html" target="_top" xlink:title=" ">
<polygon fill="white" stroke="#666666" points="776.19,-431.38 622.19,-431.38 622.19,-410.62 776.19,-410.62 776.19,-431.38"/>
<text text-anchor="middle" x="699.19" y="-417.88" font-family="Helvetica,sans-Serif" font-size="10.00">src/core/initial_conditions.cc</text>
</a>
</g>
</g>
<!-- Node24&#45;&gt;Node26 -->
<g id="edge46_Node000024_Node000026" class="edge">
<title>Node24&#45;&gt;Node26</title>
<g id="a_edge46_Node000024_Node000026"><a xlink:title=" ">
<path fill="none" stroke="#63b8ff" d="M611.06,-468.11C634.35,-455.92 662.41,-441.24 680.51,-431.77"/>
<polygon fill="#63b8ff" stroke="#63b8ff" points="609.66,-464.89 602.42,-472.63 612.91,-471.1 609.66,-464.89"/>
</a>
</g>
</g>
</g>
</svg>
