<?xml version="1.0" encoding="UTF-8" standalone="no"?>
<!DOCTYPE svg PUBLIC "-//W3C//DTD SVG 1.1//EN"
 "http://www.w3.org/Graphics/SVG/1.1/DTD/svg11.dtd">
<!-- Generated by graphviz version 12.2.1 (20241206.2353)
 -->
<!-- Title: applications/blank/ICs_and_BCs.cc Pages: 1 -->
<svg width="1300pt" height="181pt"
 viewBox="0.00 0.00 1299.62 180.50" xmlns="http://www.w3.org/2000/svg" xmlns:xlink="http://www.w3.org/1999/xlink">
<g id="graph0" class="graph" transform="scale(1 1) rotate(0) translate(4 176.5)">
<title>applications/blank/ICs_and_BCs.cc</title>
<!-- Node1 -->
<g id="Node000001" class="node">
<title>Node1</title>
<g id="a_Node000001"><a xlink:title=" ">
<polygon fill="#999999" stroke="#666666" points="918.12,-172.5 812.88,-172.5 812.88,-139 918.12,-139 918.12,-172.5"/>
<text text-anchor="start" x="820.88" y="-159" font-family="Helvetica,sans-Serif" font-size="10.00">applications/blank</text>
<text text-anchor="middle" x="865.5" y="-146.25" font-family="Helvetica,sans-Serif" font-size="10.00">/ICs_and_BCs.cc</text>
</a>
</g>
</g>
<!-- Node2 -->
<g id="Node000002" class="node">
<title>Node2</title>
<g id="a_Node000002"><a xlink:href="blank_2custom__pde_8h.html" target="_top" xlink:title=" ">
<polygon fill="white" stroke="#666666" points="615.62,-96.62 531.38,-96.62 531.38,-75.88 615.62,-75.88 615.62,-96.62"/>
<text text-anchor="middle" x="573.5" y="-83.12" font-family="Helvetica,sans-Serif" font-size="10.00">custom_pde.h</text>
</a>
</g>
</g>
<!-- Node1&#45;&gt;Node2 -->
<g id="edge1_Node000001_Node000002" class="edge">
<title>Node1&#45;&gt;Node2</title>
<g id="a_edge1_Node000001_Node000002"><a xlink:title=" ">
<path fill="none" stroke="#63b8ff" d="M812.62,-142.53C760.1,-130.39 680,-111.87 627.19,-99.66"/>
<polygon fill="#63b8ff" stroke="#63b8ff" points="628.04,-96.27 617.51,-97.42 626.46,-103.09 628.04,-96.27"/>
</a>
</g>
</g>
<!-- Node7 -->
<g id="Node000007" class="node">
<title>Node7</title>
<g id="a_Node000007"><a xlink:title=" ">
<polygon fill="#e0e0e0" stroke="#999999" points="737.75,-33.5 597.25,-33.5 597.25,0 737.75,0 737.75,-33.5"/>
<text text-anchor="start" x="605.25" y="-20" font-family="Helvetica,sans-Serif" font-size="10.00">prismspf/user_inputs</text>
<text text-anchor="middle" x="667.5" y="-7.25" font-family="Helvetica,sans-Serif" font-size="10.00">/user_input_parameters.h</text>
</a>
</g>
</g>
<!-- Node1&#45;&gt;Node7 -->
<g id="edge11_Node000001_Node000007" class="edge">
<title>Node1&#45;&gt;Node7</title>
<g id="a_edge11_Node000001_Node000007"><a xlink:title=" ">
<path fill="none" stroke="#63b8ff" d="M842.4,-138.77C807.25,-114.44 740.19,-68.04 700.09,-40.3"/>
<polygon fill="#63b8ff" stroke="#63b8ff" points="702.22,-37.52 692,-34.7 698.24,-43.27 702.22,-37.52"/>
</a>
</g>
</g>
<!-- Node8 -->
<g id="Node000008" class="node">
<title>Node8</title>
<g id="a_Node000008"><a xlink:title=" ">
<polygon fill="#e0e0e0" stroke="#999999" points="854.75,-33.5 756.25,-33.5 756.25,0 854.75,0 854.75,-33.5"/>
<text text-anchor="start" x="764.25" y="-20" font-family="Helvetica,sans-Serif" font-size="10.00">prismspf/utilities</text>
<text text-anchor="middle" x="805.5" y="-7.25" font-family="Helvetica,sans-Serif" font-size="10.00">/utilities.h</text>
</a>
</g>
</g>
<!-- Node1&#45;&gt;Node8 -->
<g id="edge12_Node000001_Node000008" class="edge">
<title>Node1&#45;&gt;Node8</title>
<g id="a_edge12_Node000001_Node000008"><a xlink:title=" ">
<path fill="none" stroke="#63b8ff" d="M851.9,-138.91C844.09,-129.12 834.64,-115.98 828.5,-103 819.75,-84.51 813.87,-62.14 810.25,-44.95"/>
<polygon fill="#63b8ff" stroke="#63b8ff" points="813.7,-44.37 808.34,-35.23 806.83,-45.71 813.7,-44.37"/>
</a>
</g>
</g>
<!-- Node9 -->
<g id="Node000009" class="node">
<title>Node9</title>
<g id="a_Node000009"><a xlink:title=" ">
<polygon fill="#e0e0e0" stroke="#999999" points="972.5,-27.12 872.5,-27.12 872.5,-6.38 972.5,-6.38 972.5,-27.12"/>
<text text-anchor="middle" x="922.5" y="-13.62" font-family="Helvetica,sans-Serif" font-size="10.00">prismspf/config.h</text>
</a>
</g>
</g>
<!-- Node1&#45;&gt;Node9 -->
<g id="edge13_Node000001_Node000009" class="edge">
<title>Node1&#45;&gt;Node9</title>
<g id="a_edge13_Node000001_Node000009"><a xlink:title=" ">
<path fill="none" stroke="#63b8ff" d="M852.63,-138.59C840.18,-120.85 824.91,-91.91 837.5,-69.5 847.1,-52.41 864.89,-40.31 881.72,-32.12"/>
<polygon fill="#63b8ff" stroke="#63b8ff" points="882.91,-35.42 890.61,-28.14 880.05,-29.03 882.91,-35.42"/>
</a>
</g>
</g>
<!-- Node10 -->
<g id="Node000010" class="node">
<title>Node10</title>
<g id="a_Node000010"><a xlink:title=" ">
<polygon fill="#e0e0e0" stroke="#999999" points="980.75,-96.62 846.25,-96.62 846.25,-75.88 980.75,-75.88 980.75,-96.62"/>
<text text-anchor="middle" x="913.5" y="-83.12" font-family="Helvetica,sans-Serif" font-size="10.00">prismspf/core/dirichlet.h</text>
</a>
</g>
</g>
<!-- Node1&#45;&gt;Node10 -->
<g id="edge9_Node000001_Node000010" class="edge">
<title>Node1&#45;&gt;Node10</title>
<g id="a_edge9_Node000001_Node000010"><a xlink:title=" ">
<path fill="none" stroke="#63b8ff" d="M876.88,-138.75C883.78,-129.05 892.63,-116.6 899.9,-106.37"/>
<polygon fill="#63b8ff" stroke="#63b8ff" points="902.7,-108.48 905.64,-98.31 896.99,-104.43 902.7,-108.48"/>
</a>
</g>
</g>
<!-- Node11 -->
<g id="Node000011" class="node">
<title>Node11</title>
<g id="a_Node000011"><a xlink:title=" ">
<polygon fill="#e0e0e0" stroke="#999999" points="1112.25,-103 998.75,-103 998.75,-69.5 1112.25,-69.5 1112.25,-103"/>
<text text-anchor="start" x="1006.75" y="-89.5" font-family="Helvetica,sans-Serif" font-size="10.00">prismspf/core/initial</text>
<text text-anchor="middle" x="1055.5" y="-76.75" font-family="Helvetica,sans-Serif" font-size="10.00">_conditions.h</text>
</a>
</g>
</g>
<!-- Node1&#45;&gt;Node11 -->
<g id="edge10_Node000001_Node000011" class="edge">
<title>Node1&#45;&gt;Node11</title>
<g id="a_edge10_Node000001_Node000011"><a xlink:title=" ">
<path fill="none" stroke="#63b8ff" d="M911.01,-138.58C937.59,-129.14 971.33,-117.15 999.53,-107.14"/>
<polygon fill="#63b8ff" stroke="#63b8ff" points="1000.36,-110.56 1008.61,-103.91 998.01,-103.96 1000.36,-110.56"/>
</a>
</g>
</g>
<!-- Node12 -->
<g id="Node000012" class="node">
<title>Node12</title>
<g id="a_Node000012"><a xlink:title=" ">
<polygon fill="#e0e0e0" stroke="#999999" points="1176.88,-96.62 1130.12,-96.62 1130.12,-75.88 1176.88,-75.88 1176.88,-96.62"/>
<text text-anchor="middle" x="1153.5" y="-83.12" font-family="Helvetica,sans-Serif" font-size="10.00">cmath</text>
</a>
</g>
</g>
<!-- Node1&#45;&gt;Node12 -->
<g id="edge14_Node000001_Node000012" class="edge">
<title>Node1&#45;&gt;Node12</title>
<g id="a_edge14_Node000001_Node000012"><a xlink:title=" ">
<path fill="none" stroke="#63b8ff" d="M918.52,-148.11C971.03,-140.59 1053.26,-126.25 1121.5,-103 1122.67,-102.6 1123.86,-102.17 1125.04,-101.71"/>
<polygon fill="#63b8ff" stroke="#63b8ff" points="1126.44,-104.92 1134.18,-97.69 1123.62,-98.51 1126.44,-104.92"/>
</a>
</g>
</g>
<!-- Node13 -->
<g id="Node000013" class="node">
<title>Node13</title>
<g id="a_Node000013"><a xlink:title=" ">
<polygon fill="#e0e0e0" stroke="#999999" points="1291.62,-96.62 1195.38,-96.62 1195.38,-75.88 1291.62,-75.88 1291.62,-96.62"/>
<text text-anchor="middle" x="1243.5" y="-83.12" font-family="Helvetica,sans-Serif" font-size="10.00">custom_pde.inst</text>
</a>
</g>
</g>
<!-- Node1&#45;&gt;Node13 -->
<g id="edge15_Node000001_Node000013" class="edge">
<title>Node1&#45;&gt;Node13</title>
<g id="a_edge15_Node000001_Node000013"><a xlink:title=" ">
<path fill="none" stroke="#63b8ff" d="M918.48,-147.92C982.21,-139.3 1092.26,-123.14 1185.5,-103 1189.79,-102.07 1194.25,-101.02 1198.69,-99.92"/>
<polygon fill="#63b8ff" stroke="#63b8ff" points="1199.33,-103.37 1208.14,-97.47 1197.58,-96.59 1199.33,-103.37"/>
</a>
</g>
</g>
<!-- Node3 -->
<g id="Node000003" class="node">
<title>Node3</title>
<g id="a_Node000003"><a xlink:title=" ">
<polygon fill="#e0e0e0" stroke="#999999" points="578.75,-27.12 420.25,-27.12 420.25,-6.38 578.75,-6.38 578.75,-27.12"/>
<text text-anchor="middle" x="499.5" y="-13.62" font-family="Helvetica,sans-Serif" font-size="10.00">prismspf/core/pde_operator.h</text>
</a>
</g>
</g>
<!-- Node2&#45;&gt;Node3 -->
<g id="edge2_Node000002_Node000003" class="edge">
<title>Node2&#45;&gt;Node3</title>
<g id="a_edge2_Node000002_Node000003"><a xlink:title=" ">
<path fill="none" stroke="#63b8ff" d="M562.9,-75.58C551.36,-65.05 532.67,-48.01 518.57,-35.14"/>
<polygon fill="#63b8ff" stroke="#63b8ff" points="520.95,-32.58 511.2,-28.42 516.23,-37.75 520.95,-32.58"/>
</a>
</g>
</g>
<!-- Node4 -->
<g id="Node000004" class="node">
<title>Node4</title>
<g id="a_Node000004"><a xlink:title=" ">
<polygon fill="#e0e0e0" stroke="#999999" points="115,-33.5 0,-33.5 0,0 115,0 115,-33.5"/>
<text text-anchor="start" x="8" y="-20" font-family="Helvetica,sans-Serif" font-size="10.00">prismspf/core/phase</text>
<text text-anchor="middle" x="57.5" y="-7.25" font-family="Helvetica,sans-Serif" font-size="10.00">_field_tools.h</text>
</a>
</g>
</g>
<!-- Node2&#45;&gt;Node4 -->
<g id="edge3_Node000002_Node000004" class="edge">
<title>Node2&#45;&gt;Node4</title>
<g id="a_edge3_Node000002_Node000004"><a xlink:title=" ">
<path fill="none" stroke="#63b8ff" d="M531.07,-82.08C452.85,-75.86 280.52,-60.44 126.43,-33.9"/>
<polygon fill="#63b8ff" stroke="#63b8ff" points="127.31,-30.5 116.86,-32.23 126.11,-37.4 127.31,-30.5"/>
</a>
</g>
</g>
<!-- Node5 -->
<g id="Node000005" class="node">
<title>Node5</title>
<g id="a_Node000005"><a xlink:title=" ">
<polygon fill="#e0e0e0" stroke="#999999" points="258.25,-33.5 132.75,-33.5 132.75,0 258.25,0 258.25,-33.5"/>
<text text-anchor="start" x="140.75" y="-20" font-family="Helvetica,sans-Serif" font-size="10.00">prismspf/core/variable</text>
<text text-anchor="middle" x="195.5" y="-7.25" font-family="Helvetica,sans-Serif" font-size="10.00">_attribute_loader.h</text>
</a>
</g>
</g>
<!-- Node2&#45;&gt;Node5 -->
<g id="edge4_Node000002_Node000005" class="edge">
<title>Node2&#45;&gt;Node5</title>
<g id="a_edge4_Node000002_Node000005"><a xlink:title=" ">
<path fill="none" stroke="#63b8ff" d="M531.06,-78.73C474.02,-69.82 369.18,-52.95 269.83,-33.9"/>
<polygon fill="#63b8ff" stroke="#63b8ff" points="270.65,-30.49 260.17,-32.04 269.32,-37.37 270.65,-30.49"/>
</a>
</g>
</g>
<!-- Node6 -->
<g id="Node000006" class="node">
<title>Node6</title>
<g id="a_Node000006"><a xlink:title=" ">
<polygon fill="#e0e0e0" stroke="#999999" points="402.25,-33.5 276.75,-33.5 276.75,0 402.25,0 402.25,-33.5"/>
<text text-anchor="start" x="284.75" y="-20" font-family="Helvetica,sans-Serif" font-size="10.00">prismspf/core/variable</text>
<text text-anchor="middle" x="339.5" y="-7.25" font-family="Helvetica,sans-Serif" font-size="10.00">_attributes.h</text>
</a>
</g>
</g>
<!-- Node2&#45;&gt;Node6 -->
<g id="edge5_Node000002_Node000006" class="edge">
<title>Node2&#45;&gt;Node6</title>
<g id="a_edge5_Node000002_Node000006"><a xlink:title=" ">
<path fill="none" stroke="#63b8ff" d="M539.47,-75.43C504.84,-65.44 450.23,-49.69 406.82,-37.17"/>
<polygon fill="#63b8ff" stroke="#63b8ff" points="407.79,-33.81 397.21,-34.4 405.85,-40.53 407.79,-33.81"/>
</a>
</g>
</g>
<!-- Node2&#45;&gt;Node7 -->
<g id="edge6_Node000002_Node000007" class="edge">
<title>Node2&#45;&gt;Node7</title>
<g id="a_edge6_Node000002_Node000007"><a xlink:title=" ">
<path fill="none" stroke="#63b8ff" d="M586.97,-75.58C599.73,-66.41 619.38,-52.3 636.08,-40.32"/>
<polygon fill="#63b8ff" stroke="#63b8ff" points="637.67,-43.48 643.75,-34.8 633.59,-37.79 637.67,-43.48"/>
</a>
</g>
</g>
<!-- Node2&#45;&gt;Node8 -->
<g id="edge7_Node000002_Node000008" class="edge">
<title>Node2&#45;&gt;Node8</title>
<g id="a_edge7_Node000002_Node000008"><a xlink:title=" ">
<path fill="none" stroke="#63b8ff" d="M607.23,-75.43C643.27,-64.95 701.11,-48.12 745.05,-35.34"/>
<polygon fill="#63b8ff" stroke="#63b8ff" points="745.82,-38.76 754.44,-32.61 743.86,-32.04 745.82,-38.76"/>
</a>
</g>
</g>
<!-- Node2&#45;&gt;Node9 -->
<g id="edge8_Node000002_Node000009" class="edge">
<title>Node2&#45;&gt;Node9</title>
<g id="a_edge8_Node000002_Node000009"><a xlink:title=" ">
<path fill="none" stroke="#63b8ff" d="M615.99,-78.82C672.7,-69.97 776.13,-52.92 863.5,-33.5 867.8,-32.54 872.26,-31.48 876.71,-30.38"/>
<polygon fill="#63b8ff" stroke="#63b8ff" points="877.39,-33.82 886.21,-27.94 875.66,-27.04 877.39,-33.82"/>
</a>
</g>
</g>
</g>
</svg>
