<?xml version="1.0" encoding="UTF-8" standalone="no"?>
<!DOCTYPE svg PUBLIC "-//W3C//DTD SVG 1.1//EN"
 "http://www.w3.org/Graphics/SVG/1.1/DTD/svg11.dtd">
<!-- Generated by graphviz version 2.43.0 (0)
 -->
<!-- Title: Graphical Class Hierarchy Pages: 1 -->
<svg width="477pt" height="110pt"
 viewBox="0.00 0.00 477.00 110.00" xmlns="http://www.w3.org/2000/svg" xmlns:xlink="http://www.w3.org/1999/xlink">
<g id="graph0" class="graph" transform="scale(1 1) rotate(0) translate(4 106)">
<title>Graphical Class Hierarchy</title>
<!-- Node0 -->
<g id="Node000000" class="node">
<title>Node0</title>
<g id="a_Node000000"><a xlink:href="classSolverBase.html" target="_top" xlink:title=" ">
<polygon fill="white" stroke="#666666" points="144,-78 0,-78 0,-48 144,-48 144,-78"/>
<text text-anchor="start" x="8" y="-66" font-family="Helvetica,sans-Serif" font-size="10.00">SolverBase&lt; dim, degree,</text>
<text text-anchor="middle" x="72" y="-55" font-family="Helvetica,sans-Serif" font-size="10.00"> number &gt;</text>
</a>
</g>
</g>
<!-- Node1 -->
<g id="Node000001" class="node">
<title>Node1</title>
<g id="a_Node000001"><a xlink:href="classExplicitSolver.html" target="_top" xlink:title="This class handles the explicit solves of all explicit fields.">
<polygon fill="white" stroke="#666666" points="296,-102 180,-102 180,-72 296,-72 296,-102"/>
<text text-anchor="start" x="188" y="-90" font-family="Helvetica,sans-Serif" font-size="10.00">ExplicitSolver&lt; dim,</text>
<text text-anchor="middle" x="238" y="-79" font-family="Helvetica,sans-Serif" font-size="10.00"> degree, number &gt;</text>
</a>
</g>
</g>
<!-- Node0&#45;&gt;Node1 -->
<g id="edge11_Node000000_Node000001" class="edge">
<title>Node0&#45;&gt;Node1</title>
<g id="a_edge11_Node000000_Node000001"><a xlink:title=" ">
<path fill="none" stroke="#63b8ff" d="M154.41,-74.91C162.91,-76.16 171.42,-77.4 179.57,-78.6"/>
<polygon fill="#63b8ff" stroke="#63b8ff" points="154.86,-71.44 144.46,-73.46 153.84,-78.37 154.86,-71.44"/>
</a>
</g>
</g>
<!-- Node2 -->
<g id="Node000002" class="node">
<title>Node2</title>
<g id="a_Node000002"><a xlink:href="classLinearSolver.html" target="_top" xlink:title="This class handles the explicit solves of all explicit fields.">
<polygon fill="white" stroke="#666666" points="293,-54 183,-54 183,-24 293,-24 293,-54"/>
<text text-anchor="start" x="191" y="-42" font-family="Helvetica,sans-Serif" font-size="10.00">LinearSolver&lt; dim,</text>
<text text-anchor="middle" x="238" y="-31" font-family="Helvetica,sans-Serif" font-size="10.00"> degree, number &gt;</text>
</a>
</g>
</g>
<!-- Node0&#45;&gt;Node2 -->
<g id="edge12_Node000000_Node000002" class="edge">
<title>Node0&#45;&gt;Node2</title>
<g id="a_edge12_Node000000_Node000002"><a xlink:title=" ">
<path fill="none" stroke="#63b8ff" d="M154.38,-51.09C163.94,-49.69 173.5,-48.29 182.55,-46.97"/>
<polygon fill="#63b8ff" stroke="#63b8ff" points="153.84,-47.63 144.46,-52.54 154.86,-54.56 153.84,-47.63"/>
</a>
</g>
</g>
<!-- Node3 -->
<g id="Node000003" class="node">
<title>Node3</title>
<g id="a_Node000003"><a xlink:href="classMGSolver.html" target="_top" xlink:title="This class handles the explicit solves of all explicit fields.">
<polygon fill="white" stroke="#666666" points="469,-78 332,-78 332,-48 469,-48 469,-78"/>
<text text-anchor="start" x="340" y="-66" font-family="Helvetica,sans-Serif" font-size="10.00">MGSolver&lt; dim, degree,</text>
<text text-anchor="middle" x="400.5" y="-55" font-family="Helvetica,sans-Serif" font-size="10.00"> number &gt;</text>
</a>
</g>
</g>
<!-- Node2&#45;&gt;Node3 -->
<g id="edge13_Node000002_Node000003" class="edge">
<title>Node2&#45;&gt;Node3</title>
<g id="a_edge13_Node000002_Node000003"><a xlink:title=" ">
<path fill="none" stroke="#63b8ff" d="M303.36,-48.62C312.73,-50.03 322.41,-51.47 331.84,-52.88"/>
<polygon fill="#63b8ff" stroke="#63b8ff" points="303.75,-45.14 293.34,-47.13 302.71,-52.07 303.75,-45.14"/>
</a>
</g>
</g>
<!-- Node4 -->
<g id="Node000004" class="node">
<title>Node4</title>
<g id="a_Node000004"><a xlink:href="classNewtonSolver.html" target="_top" xlink:title="This class handles the explicit solves of all explicit fields.">
<polygon fill="white" stroke="#666666" points="459.5,-30 341.5,-30 341.5,0 459.5,0 459.5,-30"/>
<text text-anchor="start" x="349.5" y="-18" font-family="Helvetica,sans-Serif" font-size="10.00">NewtonSolver&lt; dim,</text>
<text text-anchor="middle" x="400.5" y="-7" font-family="Helvetica,sans-Serif" font-size="10.00"> degree, number &gt;</text>
</a>
</g>
</g>
<!-- Node2&#45;&gt;Node4 -->
<g id="edge14_Node000002_Node000004" class="edge">
<title>Node2&#45;&gt;Node4</title>
<g id="a_edge14_Node000002_Node000004"><a xlink:title=" ">
<path fill="none" stroke="#63b8ff" d="M303.29,-29.39C315.87,-27.51 329,-25.54 341.37,-23.69"/>
<polygon fill="#63b8ff" stroke="#63b8ff" points="302.71,-25.93 293.34,-30.87 303.75,-32.86 302.71,-25.93"/>
</a>
</g>
</g>
</g>
</svg>
