<?xml version="1.0" encoding="UTF-8" standalone="no"?>
<!DOCTYPE svg PUBLIC "-//W3C//DTD SVG 1.1//EN"
 "http://www.w3.org/Graphics/SVG/1.1/DTD/svg11.dtd">
<!-- Generated by graphviz version 12.2.1 (20241206.2353)
 -->
<!-- Title: include/prismspf/user_inputs/input_file_reader.h Pages: 1 -->
<svg width="363pt" height="111pt"
 viewBox="0.00 0.00 363.00 111.00" xmlns="http://www.w3.org/2000/svg" xmlns:xlink="http://www.w3.org/1999/xlink">
<g id="graph0" class="graph" transform="scale(1 1) rotate(0) translate(4 107)">
<title>include/prismspf/user_inputs/input_file_reader.h</title>
<!-- Node1 -->
<g id="Node000001" class="node">
<title>Node1</title>
<g id="a_Node000001"><a xlink:title=" ">
<polygon fill="#999999" stroke="#666666" points="308.25,-103 164,-103 164,-69.5 308.25,-69.5 308.25,-103"/>
<text text-anchor="start" x="172" y="-89.5" font-family="Helvetica,sans-Serif" font-size="10.00">include/prismspf/user</text>
<text text-anchor="middle" x="236.12" y="-76.75" font-family="Helvetica,sans-Serif" font-size="10.00">_inputs/input_file_reader.h</text>
</a>
</g>
</g>
<!-- Node2 -->
<g id="Node000002" class="node">
<title>Node2</title>
<g id="a_Node000002"><a xlink:title=" ">
<polygon fill="#e0e0e0" stroke="#999999" points="126.25,-33.5 0,-33.5 0,0 126.25,0 126.25,-33.5"/>
<text text-anchor="start" x="8" y="-20" font-family="Helvetica,sans-Serif" font-size="10.00">deal.II/base/parameter</text>
<text text-anchor="middle" x="63.12" y="-7.25" font-family="Helvetica,sans-Serif" font-size="10.00">_handler.h</text>
</a>
</g>
</g>
<!-- Node1&#45;&gt;Node2 -->
<g id="edge1_Node000001_Node000002" class="edge">
<title>Node1&#45;&gt;Node2</title>
<g id="a_edge1_Node000001_Node000002"><a xlink:title=" ">
<path fill="none" stroke="#63b8ff" d="M194.69,-69.08C170.81,-59.77 140.57,-47.97 115.11,-38.03"/>
<polygon fill="#63b8ff" stroke="#63b8ff" points="116.52,-34.83 105.93,-34.45 113.98,-41.35 116.52,-34.83"/>
</a>
</g>
</g>
<!-- Node3 -->
<g id="Node000003" class="node">
<title>Node3</title>
<g id="a_Node000003"><a xlink:title=" ">
<polygon fill="#e0e0e0" stroke="#999999" points="244.12,-27.12 144.12,-27.12 144.12,-6.38 244.12,-6.38 244.12,-27.12"/>
<text text-anchor="middle" x="194.12" y="-13.62" font-family="Helvetica,sans-Serif" font-size="10.00">prismspf/config.h</text>
</a>
</g>
</g>
<!-- Node1&#45;&gt;Node3 -->
<g id="edge2_Node000001_Node000003" class="edge">
<title>Node1&#45;&gt;Node3</title>
<g id="a_edge2_Node000001_Node000003"><a xlink:title=" ">
<path fill="none" stroke="#63b8ff" d="M226.17,-69.25C220.19,-59.65 212.55,-47.36 206.22,-37.19"/>
<polygon fill="#63b8ff" stroke="#63b8ff" points="209.29,-35.5 201.04,-28.86 203.35,-39.2 209.29,-35.5"/>
</a>
</g>
</g>
<!-- Node4 -->
<g id="Node000004" class="node">
<title>Node4</title>
<g id="a_Node000004"><a xlink:title=" ">
<polygon fill="#e0e0e0" stroke="#999999" points="293.62,-27.12 262.62,-27.12 262.62,-6.38 293.62,-6.38 293.62,-27.12"/>
<text text-anchor="middle" x="278.12" y="-13.62" font-family="Helvetica,sans-Serif" font-size="10.00">set</text>
</a>
</g>
</g>
<!-- Node1&#45;&gt;Node4 -->
<g id="edge3_Node000001_Node000004" class="edge">
<title>Node1&#45;&gt;Node4</title>
<g id="a_edge3_Node000001_Node000004"><a xlink:title=" ">
<path fill="none" stroke="#63b8ff" d="M246.08,-69.25C252.06,-59.65 259.7,-47.36 266.03,-37.19"/>
<polygon fill="#63b8ff" stroke="#63b8ff" points="268.9,-39.2 271.21,-28.86 262.96,-35.5 268.9,-39.2"/>
</a>
</g>
</g>
<!-- Node5 -->
<g id="Node000005" class="node">
<title>Node5</title>
<g id="a_Node000005"><a xlink:title=" ">
<polygon fill="#e0e0e0" stroke="#999999" points="355,-27.12 311.25,-27.12 311.25,-6.38 355,-6.38 355,-27.12"/>
<text text-anchor="middle" x="333.12" y="-13.62" font-family="Helvetica,sans-Serif" font-size="10.00">string</text>
</a>
</g>
</g>
<!-- Node1&#45;&gt;Node5 -->
<g id="edge4_Node000001_Node000005" class="edge">
<title>Node1&#45;&gt;Node5</title>
<g id="a_edge4_Node000001_Node000005"><a xlink:title=" ">
<path fill="none" stroke="#63b8ff" d="M259.11,-69.25C274.37,-58.64 294.34,-44.74 309.69,-34.06"/>
<polygon fill="#63b8ff" stroke="#63b8ff" points="311.56,-37.02 317.77,-28.44 307.56,-31.28 311.56,-37.02"/>
</a>
</g>
</g>
</g>
</svg>
