<?xml version="1.0" encoding="UTF-8" standalone="no"?>
<!DOCTYPE svg PUBLIC "-//W3C//DTD SVG 1.1//EN"
 "http://www.w3.org/Graphics/SVG/1.1/DTD/svg11.dtd">
<!-- Generated by graphviz version 2.43.0 (0)
 -->
<!-- Title: /home/runner/work/phaseField/phaseField/src/utilities/integrator.cc Pages: 1 -->
<svg width="959pt" height="368pt"
 viewBox="0.00 0.00 959.00 368.00" xmlns="http://www.w3.org/2000/svg" xmlns:xlink="http://www.w3.org/1999/xlink">
<g id="graph0" class="graph" transform="scale(1 1) rotate(0) translate(4 364)">
<title>/home/runner/work/phaseField/phaseField/src/utilities/integrator.cc</title>
<!-- Node1 -->
<g id="Node000001" class="node">
<title>Node1</title>
<g id="a_Node000001"><a xlink:title=" ">
<polygon fill="#999999" stroke="#666666" points="686.5,-360 522.5,-360 522.5,-319 686.5,-319 686.5,-360"/>
<text text-anchor="start" x="530.5" y="-348" font-family="Helvetica,sans-Serif" font-size="10.00">/home/runner/work/phaseField</text>
<text text-anchor="start" x="530.5" y="-337" font-family="Helvetica,sans-Serif" font-size="10.00">/phaseField/src/utilities</text>
<text text-anchor="middle" x="604.5" y="-326" font-family="Helvetica,sans-Serif" font-size="10.00">/integrator.cc</text>
</a>
</g>
</g>
<!-- Node2 -->
<g id="Node000002" class="node">
<title>Node2</title>
<g id="a_Node000002"><a xlink:href="integrator_8h.html" target="_top" xlink:title=" ">
<polygon fill="white" stroke="#666666" points="589,-283 490,-283 490,-253 589,-253 589,-283"/>
<text text-anchor="start" x="498" y="-271" font-family="Helvetica,sans-Serif" font-size="10.00">prismspf/utilities</text>
<text text-anchor="middle" x="539.5" y="-260" font-family="Helvetica,sans-Serif" font-size="10.00">/integrator.h</text>
</a>
</g>
</g>
<!-- Node1&#45;&gt;Node2 -->
<g id="edge1_Node000001_Node000002" class="edge">
<title>Node1&#45;&gt;Node2</title>
<g id="a_edge1_Node000001_Node000002"><a xlink:title=" ">
<path fill="none" stroke="#63b8ff" d="M586.05,-318.77C577.8,-309.95 568.07,-299.54 559.63,-290.53"/>
<polygon fill="#63b8ff" stroke="#63b8ff" points="562.02,-287.95 552.63,-283.04 556.9,-292.73 562.02,-287.95"/>
</a>
</g>
</g>
<!-- Node19 -->
<g id="Node000019" class="node">
<title>Node19</title>
<g id="a_Node000019"><a xlink:title=" ">
<polygon fill="#e0e0e0" stroke="#999999" points="732,-277.5 607,-277.5 607,-258.5 732,-258.5 732,-277.5"/>
<text text-anchor="middle" x="669.5" y="-265.5" font-family="Helvetica,sans-Serif" font-size="10.00">utilities/integrator.inst</text>
</a>
</g>
</g>
<!-- Node1&#45;&gt;Node19 -->
<g id="edge21_Node000001_Node000019" class="edge">
<title>Node1&#45;&gt;Node19</title>
<g id="a_edge21_Node000001_Node000019"><a xlink:title=" ">
<path fill="none" stroke="#63b8ff" d="M622.95,-318.77C632.9,-308.13 645.03,-295.16 654.41,-285.13"/>
<polygon fill="#63b8ff" stroke="#63b8ff" points="656.98,-287.51 661.25,-277.82 651.86,-282.73 656.98,-287.51"/>
</a>
</g>
</g>
<!-- Node3 -->
<g id="Node000003" class="node">
<title>Node3</title>
<g id="a_Node000003"><a xlink:title=" ">
<polygon fill="#e0e0e0" stroke="#999999" points="255.5,-211.5 115.5,-211.5 115.5,-192.5 255.5,-192.5 255.5,-211.5"/>
<text text-anchor="middle" x="185.5" y="-199.5" font-family="Helvetica,sans-Serif" font-size="10.00">deal.II/dofs/dof_handler.h</text>
</a>
</g>
</g>
<!-- Node2&#45;&gt;Node3 -->
<g id="edge2_Node000002_Node000003" class="edge">
<title>Node2&#45;&gt;Node3</title>
<g id="a_edge2_Node000002_Node000003"><a xlink:title=" ">
<path fill="none" stroke="#63b8ff" d="M489.91,-258.03C425.02,-246.3 311.54,-225.79 242.97,-213.39"/>
<polygon fill="#63b8ff" stroke="#63b8ff" points="243.25,-209.88 232.78,-211.55 242,-216.77 243.25,-209.88"/>
</a>
</g>
</g>
<!-- Node4 -->
<g id="Node000004" class="node">
<title>Node4</title>
<g id="a_Node000004"><a xlink:title=" ">
<polygon fill="#e0e0e0" stroke="#999999" points="393,-211.5 274,-211.5 274,-192.5 393,-192.5 393,-211.5"/>
<text text-anchor="middle" x="333.5" y="-199.5" font-family="Helvetica,sans-Serif" font-size="10.00">deal.II/fe/fe_values.h</text>
</a>
</g>
</g>
<!-- Node2&#45;&gt;Node4 -->
<g id="edge3_Node000002_Node000004" class="edge">
<title>Node2&#45;&gt;Node4</title>
<g id="a_edge3_Node000002_Node000004"><a xlink:title=" ">
<path fill="none" stroke="#63b8ff" d="M494.29,-252.95C457.21,-241.43 405.35,-225.32 370.66,-214.54"/>
<polygon fill="#63b8ff" stroke="#63b8ff" points="371.5,-211.14 360.92,-211.52 369.43,-217.83 371.5,-211.14"/>
</a>
</g>
</g>
<!-- Node5 -->
<g id="Node000005" class="node">
<title>Node5</title>
<g id="a_Node000005"><a xlink:title=" ">
<polygon fill="#e0e0e0" stroke="#999999" points="529.5,-217 411.5,-217 411.5,-187 529.5,-187 529.5,-217"/>
<text text-anchor="start" x="419.5" y="-205" font-family="Helvetica,sans-Serif" font-size="10.00">deal.II/lac/la_parallel</text>
<text text-anchor="middle" x="470.5" y="-194" font-family="Helvetica,sans-Serif" font-size="10.00">_vector.h</text>
</a>
</g>
</g>
<!-- Node2&#45;&gt;Node5 -->
<g id="edge4_Node000002_Node000005" class="edge">
<title>Node2&#45;&gt;Node5</title>
<g id="a_edge4_Node000002_Node000005"><a xlink:title=" ">
<path fill="none" stroke="#63b8ff" d="M524.19,-252.8C515.07,-244.34 503.34,-233.46 493.17,-224.03"/>
<polygon fill="#63b8ff" stroke="#63b8ff" points="495.48,-221.4 485.77,-217.16 490.72,-226.53 495.48,-221.4"/>
</a>
</g>
</g>
<!-- Node6 -->
<g id="Node000006" class="node">
<title>Node6</title>
<g id="a_Node000006"><a xlink:href="system__wide_8h.html" target="_top" xlink:title=" ">
<polygon fill="white" stroke="#666666" points="669.5,-217 547.5,-217 547.5,-187 669.5,-187 669.5,-217"/>
<text text-anchor="start" x="555.5" y="-205" font-family="Helvetica,sans-Serif" font-size="10.00">prismspf/core/system</text>
<text text-anchor="middle" x="608.5" y="-194" font-family="Helvetica,sans-Serif" font-size="10.00">_wide.h</text>
</a>
</g>
</g>
<!-- Node2&#45;&gt;Node6 -->
<g id="edge5_Node000002_Node000006" class="edge">
<title>Node2&#45;&gt;Node6</title>
<g id="a_edge5_Node000002_Node000006"><a xlink:title=" ">
<path fill="none" stroke="#63b8ff" d="M554.81,-252.8C563.93,-244.34 575.66,-233.46 585.83,-224.03"/>
<polygon fill="#63b8ff" stroke="#63b8ff" points="588.28,-226.53 593.23,-217.16 583.52,-221.4 588.28,-226.53"/>
</a>
</g>
</g>
<!-- Node15 -->
<g id="Node000015" class="node">
<title>Node15</title>
<g id="a_Node000015"><a xlink:title=" ">
<polygon fill="#e0e0e0" stroke="#999999" points="740,-19 639,-19 639,0 740,0 740,-19"/>
<text text-anchor="middle" x="689.5" y="-7" font-family="Helvetica,sans-Serif" font-size="10.00">prismspf/config.h</text>
</a>
</g>
</g>
<!-- Node2&#45;&gt;Node15 -->
<g id="edge19_Node000002_Node000015" class="edge">
<title>Node2&#45;&gt;Node15</title>
<g id="a_edge19_Node000002_Node000015"><a xlink:title=" ">
<path fill="none" stroke="#63b8ff" d="M587.01,-252.91C671.48,-227.38 840.5,-174 856.5,-151 897.29,-92.37 787.46,-43.9 726.71,-22.42"/>
<polygon fill="#63b8ff" stroke="#63b8ff" points="727.65,-19.04 717.06,-19.09 725.37,-25.66 727.65,-19.04"/>
</a>
</g>
</g>
<!-- Node18 -->
<g id="Node000018" class="node">
<title>Node18</title>
<g id="a_Node000018"><a xlink:title=" ">
<polygon fill="#e0e0e0" stroke="#999999" points="951,-211.5 904,-211.5 904,-192.5 951,-192.5 951,-211.5"/>
<text text-anchor="middle" x="927.5" y="-199.5" font-family="Helvetica,sans-Serif" font-size="10.00">vector</text>
</a>
</g>
</g>
<!-- Node2&#45;&gt;Node18 -->
<g id="edge20_Node000002_Node000018" class="edge">
<title>Node2&#45;&gt;Node18</title>
<g id="a_edge20_Node000002_Node000018"><a xlink:title=" ">
<path fill="none" stroke="#63b8ff" d="M589.09,-254.63C591.93,-254.05 594.75,-253.5 597.5,-253 726.15,-229.62 762.42,-247.81 889.5,-217 892.01,-216.39 894.58,-215.67 897.15,-214.88"/>
<polygon fill="#63b8ff" stroke="#63b8ff" points="898.52,-218.11 906.86,-211.58 896.27,-211.48 898.52,-218.11"/>
</a>
</g>
</g>
<!-- Node7 -->
<g id="Node000007" class="node">
<title>Node7</title>
<g id="a_Node000007"><a xlink:title=" ">
<polygon fill="#e0e0e0" stroke="#999999" points="847,-151 726,-151 726,-121 847,-121 847,-151"/>
<text text-anchor="start" x="734" y="-139" font-family="Helvetica,sans-Serif" font-size="10.00">deal.II/base/mg_level</text>
<text text-anchor="middle" x="786.5" y="-128" font-family="Helvetica,sans-Serif" font-size="10.00">_object.h</text>
</a>
</g>
</g>
<!-- Node6&#45;&gt;Node7 -->
<g id="edge6_Node000006_Node000007" class="edge">
<title>Node6&#45;&gt;Node7</title>
<g id="a_edge6_Node000006_Node000007"><a xlink:title=" ">
<path fill="none" stroke="#63b8ff" d="M647.56,-186.95C674.11,-177.41 709.42,-164.71 737.8,-154.51"/>
<polygon fill="#63b8ff" stroke="#63b8ff" points="739.3,-157.69 747.53,-151.01 736.93,-151.1 739.3,-157.69"/>
</a>
</g>
</g>
<!-- Node8 -->
<g id="Node000008" class="node">
<title>Node8</title>
<g id="a_Node000008"><a xlink:title=" ">
<polygon fill="#e0e0e0" stroke="#999999" points="129,-151 0,-151 0,-121 129,-121 129,-151"/>
<text text-anchor="start" x="8" y="-139" font-family="Helvetica,sans-Serif" font-size="10.00">deal.II/base/quadrature</text>
<text text-anchor="middle" x="64.5" y="-128" font-family="Helvetica,sans-Serif" font-size="10.00">_lib.h</text>
</a>
</g>
</g>
<!-- Node6&#45;&gt;Node8 -->
<g id="edge7_Node000006_Node000008" class="edge">
<title>Node6&#45;&gt;Node8</title>
<g id="a_edge7_Node000006_Node000008"><a xlink:title=" ">
<path fill="none" stroke="#63b8ff" d="M547.48,-188.39C544.45,-187.89 541.44,-187.43 538.5,-187 365.03,-161.92 317.01,-175.12 138.97,-150.96"/>
<polygon fill="#63b8ff" stroke="#63b8ff" points="139.4,-147.48 129.01,-149.59 138.44,-154.42 139.4,-147.48"/>
</a>
</g>
</g>
<!-- Node9 -->
<g id="Node000009" class="node">
<title>Node9</title>
<g id="a_Node000009"><a xlink:title=" ">
<polygon fill="#e0e0e0" stroke="#999999" points="239.5,-145.5 147.5,-145.5 147.5,-126.5 239.5,-126.5 239.5,-145.5"/>
<text text-anchor="middle" x="193.5" y="-133.5" font-family="Helvetica,sans-Serif" font-size="10.00">deal.II/fe/fe_q.h</text>
</a>
</g>
</g>
<!-- Node6&#45;&gt;Node9 -->
<g id="edge8_Node000006_Node000009" class="edge">
<title>Node6&#45;&gt;Node9</title>
<g id="a_edge8_Node000006_Node000009"><a xlink:title=" ">
<path fill="none" stroke="#63b8ff" d="M547.46,-188.52C544.44,-187.98 541.44,-187.48 538.5,-187 410.29,-166.25 376.13,-175.07 248.5,-151 243.79,-150.11 238.88,-149.05 234.01,-147.92"/>
<polygon fill="#63b8ff" stroke="#63b8ff" points="234.73,-144.5 224.18,-145.54 233.07,-151.3 234.73,-144.5"/>
</a>
</g>
</g>
<!-- Node10 -->
<g id="Node000010" class="node">
<title>Node10</title>
<g id="a_Node000010"><a xlink:title=" ">
<polygon fill="#e0e0e0" stroke="#999999" points="379.5,-145.5 257.5,-145.5 257.5,-126.5 379.5,-126.5 379.5,-145.5"/>
<text text-anchor="middle" x="318.5" y="-133.5" font-family="Helvetica,sans-Serif" font-size="10.00">deal.II/fe/fe_system.h</text>
</a>
</g>
</g>
<!-- Node6&#45;&gt;Node10 -->
<g id="edge9_Node000006_Node000010" class="edge">
<title>Node6&#45;&gt;Node10</title>
<g id="a_edge9_Node000006_Node000010"><a xlink:title=" ">
<path fill="none" stroke="#63b8ff" d="M547.35,-187.51C493.72,-175.67 416.76,-158.68 367.2,-147.75"/>
<polygon fill="#63b8ff" stroke="#63b8ff" points="367.88,-144.31 357.36,-145.58 366.37,-151.15 367.88,-144.31"/>
</a>
</g>
</g>
<!-- Node11 -->
<g id="Node000011" class="node">
<title>Node11</title>
<g id="a_Node000011"><a xlink:title=" ">
<polygon fill="#e0e0e0" stroke="#999999" points="529,-145.5 398,-145.5 398,-126.5 529,-126.5 529,-145.5"/>
<text text-anchor="middle" x="463.5" y="-133.5" font-family="Helvetica,sans-Serif" font-size="10.00">deal.II/fe/mapping_q1.h</text>
</a>
</g>
</g>
<!-- Node6&#45;&gt;Node11 -->
<g id="edge10_Node000006_Node000011" class="edge">
<title>Node6&#45;&gt;Node11</title>
<g id="a_edge10_Node000006_Node000011"><a xlink:title=" ">
<path fill="none" stroke="#63b8ff" d="M576.68,-186.95C551.47,-175.83 516.57,-160.42 492.21,-149.67"/>
<polygon fill="#63b8ff" stroke="#63b8ff" points="493.36,-146.35 482.8,-145.52 490.53,-152.76 493.36,-146.35"/>
</a>
</g>
</g>
<!-- Node12 -->
<g id="Node000012" class="node">
<title>Node12</title>
<g id="a_Node000012"><a xlink:href="types_8h.html" target="_top" xlink:title=" ">
<polygon fill="white" stroke="#666666" points="669.5,-145.5 547.5,-145.5 547.5,-126.5 669.5,-126.5 669.5,-145.5"/>
<text text-anchor="middle" x="608.5" y="-133.5" font-family="Helvetica,sans-Serif" font-size="10.00">prismspf/core/types.h</text>
</a>
</g>
</g>
<!-- Node6&#45;&gt;Node12 -->
<g id="edge11_Node000006_Node000012" class="edge">
<title>Node6&#45;&gt;Node12</title>
<g id="a_edge11_Node000006_Node000012"><a xlink:title=" ">
<path fill="none" stroke="#63b8ff" d="M608.5,-186.8C608.5,-177.7 608.5,-165.79 608.5,-155.9"/>
<polygon fill="#63b8ff" stroke="#63b8ff" points="612,-155.84 608.5,-145.84 605,-155.84 612,-155.84"/>
</a>
</g>
</g>
<!-- Node6&#45;&gt;Node15 -->
<g id="edge18_Node000006_Node000015" class="edge">
<title>Node6&#45;&gt;Node15</title>
<g id="a_edge18_Node000006_Node000015"><a xlink:title=" ">
<path fill="none" stroke="#63b8ff" d="M639.31,-186.87C653.75,-178.56 669.68,-166.6 678.5,-151 700.4,-112.25 696.73,-57.61 692.77,-29.25"/>
<polygon fill="#63b8ff" stroke="#63b8ff" points="696.19,-28.46 691.18,-19.13 689.27,-29.55 696.19,-28.46"/>
</a>
</g>
</g>
<!-- Node13 -->
<g id="Node000013" class="node">
<title>Node13</title>
<g id="a_Node000013"><a xlink:title=" ">
<polygon fill="#e0e0e0" stroke="#999999" points="505,-85 396,-85 396,-55 505,-55 505,-85"/>
<text text-anchor="start" x="404" y="-73" font-family="Helvetica,sans-Serif" font-size="10.00">deal.II/matrix_free</text>
<text text-anchor="middle" x="450.5" y="-62" font-family="Helvetica,sans-Serif" font-size="10.00">/evaluation_flags.h</text>
</a>
</g>
</g>
<!-- Node12&#45;&gt;Node13 -->
<g id="edge12_Node000012_Node000013" class="edge">
<title>Node12&#45;&gt;Node13</title>
<g id="a_edge12_Node000012_Node000013"><a xlink:title=" ">
<path fill="none" stroke="#63b8ff" d="M587.19,-126.37C563.63,-116.82 525.01,-101.18 494.82,-88.95"/>
<polygon fill="#63b8ff" stroke="#63b8ff" points="495.93,-85.63 485.35,-85.12 493.3,-92.11 495.93,-85.63"/>
</a>
</g>
</g>
<!-- Node14 -->
<g id="Node000014" class="node">
<title>Node14</title>
<g id="a_Node000014"><a xlink:href="type__enums_8h.html" target="_top" xlink:title=" ">
<polygon fill="white" stroke="#666666" points="631.5,-85 523.5,-85 523.5,-55 631.5,-55 631.5,-85"/>
<text text-anchor="start" x="531.5" y="-73" font-family="Helvetica,sans-Serif" font-size="10.00">prismspf/core/type</text>
<text text-anchor="middle" x="577.5" y="-62" font-family="Helvetica,sans-Serif" font-size="10.00">_enums.h</text>
</a>
</g>
</g>
<!-- Node12&#45;&gt;Node14 -->
<g id="edge13_Node000012_Node000014" class="edge">
<title>Node12&#45;&gt;Node14</title>
<g id="a_edge13_Node000012_Node000014"><a xlink:title=" ">
<path fill="none" stroke="#63b8ff" d="M604.32,-126.37C600.38,-118.24 594.3,-105.69 588.93,-94.59"/>
<polygon fill="#63b8ff" stroke="#63b8ff" points="591.97,-92.83 584.46,-85.36 585.67,-95.89 591.97,-92.83"/>
</a>
</g>
</g>
<!-- Node12&#45;&gt;Node15 -->
<g id="edge17_Node000012_Node000015" class="edge">
<title>Node12&#45;&gt;Node15</title>
<g id="a_edge17_Node000012_Node000015"><a xlink:title=" ">
<path fill="none" stroke="#63b8ff" d="M614.07,-126.44C627.3,-106.1 660.86,-54.53 678.41,-27.54"/>
<polygon fill="#63b8ff" stroke="#63b8ff" points="681.37,-29.41 683.89,-19.12 675.51,-25.59 681.37,-29.41"/>
</a>
</g>
</g>
<!-- Node14&#45;&gt;Node15 -->
<g id="edge14_Node000014_Node000015" class="edge">
<title>Node14&#45;&gt;Node15</title>
<g id="a_edge14_Node000014_Node000015"><a xlink:title=" ">
<path fill="none" stroke="#63b8ff" d="M604.33,-54.99C622.35,-45.58 645.96,-33.24 663.75,-23.95"/>
<polygon fill="#63b8ff" stroke="#63b8ff" points="665.72,-26.87 672.96,-19.14 662.48,-20.67 665.72,-26.87"/>
</a>
</g>
</g>
<!-- Node16 -->
<g id="Node000016" class="node">
<title>Node16</title>
<g id="a_Node000016"><a xlink:title=" ">
<polygon fill="#e0e0e0" stroke="#999999" points="544.5,-19 494.5,-19 494.5,0 544.5,0 544.5,-19"/>
<text text-anchor="middle" x="519.5" y="-7" font-family="Helvetica,sans-Serif" font-size="10.00">cstdint</text>
</a>
</g>
</g>
<!-- Node14&#45;&gt;Node16 -->
<g id="edge15_Node000014_Node000016" class="edge">
<title>Node14&#45;&gt;Node16</title>
<g id="a_edge15_Node000014_Node000016"><a xlink:title=" ">
<path fill="none" stroke="#63b8ff" d="M563.46,-54.84C554.95,-46.26 544.09,-35.3 535.28,-26.42"/>
<polygon fill="#63b8ff" stroke="#63b8ff" points="537.72,-23.9 528.19,-19.27 532.75,-28.83 537.72,-23.9"/>
</a>
</g>
</g>
<!-- Node17 -->
<g id="Node000017" class="node">
<title>Node17</title>
<g id="a_Node000017"><a xlink:title=" ">
<polygon fill="#e0e0e0" stroke="#999999" points="606.5,-19 562.5,-19 562.5,0 606.5,0 606.5,-19"/>
<text text-anchor="middle" x="584.5" y="-7" font-family="Helvetica,sans-Serif" font-size="10.00">string</text>
</a>
</g>
</g>
<!-- Node14&#45;&gt;Node17 -->
<g id="edge16_Node000014_Node000017" class="edge">
<title>Node14&#45;&gt;Node17</title>
<g id="a_edge16_Node000014_Node000017"><a xlink:title=" ">
<path fill="none" stroke="#63b8ff" d="M579.19,-54.84C580.11,-47.21 581.24,-37.7 582.23,-29.45"/>
<polygon fill="#63b8ff" stroke="#63b8ff" points="585.74,-29.61 583.45,-19.27 578.79,-28.78 585.74,-29.61"/>
</a>
</g>
</g>
</g>
</svg>
