<?xml version="1.0" encoding="UTF-8" standalone="no"?>
<!DOCTYPE svg PUBLIC "-//W3C//DTD SVG 1.1//EN"
 "http://www.w3.org/Graphics/SVG/1.1/DTD/svg11.dtd">
<!-- Generated by graphviz version 12.2.1 (20241206.2353)
 -->
<!-- Title: include/prismspf/core/invm_manager.h Pages: 1 -->
<svg width="1274pt" height="515pt"
 viewBox="0.00 0.00 1274.12 515.25" xmlns="http://www.w3.org/2000/svg" xmlns:xlink="http://www.w3.org/1999/xlink">
<g id="graph0" class="graph" transform="scale(1 1) rotate(0) translate(4 511.25)">
<title>include/prismspf/core/invm_manager.h</title>
<!-- Node1 -->
<g id="Node000001" class="node">
<title>Node1</title>
<g id="a_Node000001"><a xlink:title=" ">
<polygon fill="#999999" stroke="#666666" points="1132,-507.25 1011,-507.25 1011,-473.75 1132,-473.75 1132,-507.25"/>
<text text-anchor="start" x="1019" y="-493.75" font-family="Helvetica,sans-Serif" font-size="10.00">include/prismspf/core</text>
<text text-anchor="middle" x="1071.5" y="-481" font-family="Helvetica,sans-Serif" font-size="10.00">/invm_manager.h</text>
</a>
</g>
</g>
<!-- Node2 -->
<g id="Node000002" class="node">
<title>Node2</title>
<g id="a_Node000002"><a xlink:href="linear__helper_8h.html" target="_top" xlink:title=" ">
<polygon fill="white" stroke="#666666" points="1113.12,-229.25 977.88,-229.25 977.88,-195.75 1113.12,-195.75 1113.12,-229.25"/>
<text text-anchor="start" x="985.88" y="-215.75" font-family="Helvetica,sans-Serif" font-size="10.00">include/prismspf/solvers</text>
<text text-anchor="middle" x="1045.5" y="-203" font-family="Helvetica,sans-Serif" font-size="10.00">/linear_helper.h</text>
</a>
</g>
</g>
<!-- Node1&#45;&gt;Node2 -->
<g id="edge1_Node000001_Node000002" class="edge">
<title>Node1&#45;&gt;Node2</title>
<g id="a_edge1_Node000001_Node000002"><a xlink:title=" ">
<path fill="none" stroke="#63b8ff" d="M1068.92,-462.16C1063.55,-405.14 1051.3,-275.08 1047.01,-229.58"/>
<polygon fill="#63b8ff" stroke="#63b8ff" points="1065.43,-462.33 1069.85,-471.96 1072.39,-461.68 1065.43,-462.33"/>
</a>
</g>
</g>
<!-- Node3 -->
<g id="Node000003" class="node">
<title>Node3</title>
<g id="a_Node000003"><a xlink:href="linear__solver_8h.html" target="_top" xlink:title=" ">
<polygon fill="white" stroke="#666666" points="1266.12,-229.25 1130.88,-229.25 1130.88,-195.75 1266.12,-195.75 1266.12,-229.25"/>
<text text-anchor="start" x="1138.88" y="-215.75" font-family="Helvetica,sans-Serif" font-size="10.00">include/prismspf/solvers</text>
<text text-anchor="middle" x="1198.5" y="-203" font-family="Helvetica,sans-Serif" font-size="10.00">/linear_solver.h</text>
</a>
</g>
</g>
<!-- Node1&#45;&gt;Node3 -->
<g id="edge2_Node000001_Node000003" class="edge">
<title>Node1&#45;&gt;Node3</title>
<g id="a_edge2_Node000001_Node000003"><a xlink:title=" ">
<path fill="none" stroke="#63b8ff" d="M1083.59,-463.23C1109.56,-406.78 1170.03,-275.36 1191.1,-229.58"/>
<polygon fill="#63b8ff" stroke="#63b8ff" points="1080.51,-461.55 1079.51,-472.09 1086.87,-464.47 1080.51,-461.55"/>
</a>
</g>
</g>
<!-- Node9 -->
<g id="Node000009" class="node">
<title>Node9</title>
<g id="a_Node000009"><a xlink:href="solve__context_8h.html" target="_top" xlink:title=" ">
<polygon fill="white" stroke="#666666" points="432.12,-437.75 296.88,-437.75 296.88,-404.25 432.12,-404.25 432.12,-437.75"/>
<text text-anchor="start" x="304.88" y="-424.25" font-family="Helvetica,sans-Serif" font-size="10.00">include/prismspf/solvers</text>
<text text-anchor="middle" x="364.5" y="-411.5" font-family="Helvetica,sans-Serif" font-size="10.00">/solve_context.h</text>
</a>
</g>
</g>
<!-- Node1&#45;&gt;Node9 -->
<g id="edge9_Node000001_Node000009" class="edge">
<title>Node1&#45;&gt;Node9</title>
<g id="a_edge9_Node000001_Node000009"><a xlink:title=" ">
<path fill="none" stroke="#63b8ff" d="M999.44,-482.62C862.44,-469.54 566.17,-441.25 432.44,-428.49"/>
<polygon fill="#63b8ff" stroke="#63b8ff" points="998.82,-486.08 1009.1,-483.54 999.48,-479.11 998.82,-486.08"/>
</a>
</g>
</g>
<!-- Node4 -->
<g id="Node000004" class="node">
<title>Node4</title>
<g id="a_Node000004"><a xlink:href="mg__solver_8h.html" target="_top" xlink:title=" ">
<polygon fill="white" stroke="#666666" points="1055.12,-159.75 919.88,-159.75 919.88,-126.25 1055.12,-126.25 1055.12,-159.75"/>
<text text-anchor="start" x="927.88" y="-146.25" font-family="Helvetica,sans-Serif" font-size="10.00">include/prismspf/solvers</text>
<text text-anchor="middle" x="987.5" y="-133.5" font-family="Helvetica,sans-Serif" font-size="10.00">/mg_solver.h</text>
</a>
</g>
</g>
<!-- Node3&#45;&gt;Node4 -->
<g id="edge3_Node000003_Node000004" class="edge">
<title>Node3&#45;&gt;Node4</title>
<g id="a_edge3_Node000003_Node000004"><a xlink:title=" ">
<path fill="none" stroke="#63b8ff" d="M1137.11,-191.86C1105.63,-181.79 1067.76,-169.67 1037.99,-160.15"/>
<polygon fill="#63b8ff" stroke="#63b8ff" points="1135.93,-195.16 1146.52,-194.87 1138.06,-188.49 1135.93,-195.16"/>
</a>
</g>
</g>
<!-- Node5 -->
<g id="Node000005" class="node">
<title>Node5</title>
<g id="a_Node000005"><a xlink:href="newton__solver_8h.html" target="_top" xlink:title=" ">
<polygon fill="white" stroke="#666666" points="821.12,-159.75 685.88,-159.75 685.88,-126.25 821.12,-126.25 821.12,-159.75"/>
<text text-anchor="start" x="693.88" y="-146.25" font-family="Helvetica,sans-Serif" font-size="10.00">include/prismspf/solvers</text>
<text text-anchor="middle" x="753.5" y="-133.5" font-family="Helvetica,sans-Serif" font-size="10.00">/newton_solver.h</text>
</a>
</g>
</g>
<!-- Node3&#45;&gt;Node5 -->
<g id="edge4_Node000003_Node000005" class="edge">
<title>Node3&#45;&gt;Node5</title>
<g id="a_edge4_Node000003_Node000005"><a xlink:title=" ">
<path fill="none" stroke="#63b8ff" d="M1119.33,-195.26C1009.75,-176.52 893.1,-161.12 821.38,-152.18"/>
<polygon fill="#63b8ff" stroke="#63b8ff" points="1118.65,-198.69 1129.1,-196.94 1119.84,-191.79 1118.65,-198.69"/>
</a>
</g>
</g>
<!-- Node6 -->
<g id="Node000006" class="node">
<title>Node6</title>
<g id="a_Node000006"><a xlink:href="solvers_8h.html" target="_top" xlink:title=" ">
<polygon fill="white" stroke="#666666" points="725.12,-90.25 589.88,-90.25 589.88,-56.75 725.12,-56.75 725.12,-90.25"/>
<text text-anchor="start" x="597.88" y="-76.75" font-family="Helvetica,sans-Serif" font-size="10.00">include/prismspf/solvers</text>
<text text-anchor="middle" x="657.5" y="-64" font-family="Helvetica,sans-Serif" font-size="10.00">/solvers.h</text>
</a>
</g>
</g>
<!-- Node3&#45;&gt;Node6 -->
<g id="edge8_Node000003_Node000006" class="edge">
<title>Node3&#45;&gt;Node6</title>
<g id="a_edge8_Node000003_Node000006"><a xlink:title=" ">
<path fill="none" stroke="#63b8ff" d="M1170.69,-188.58C1144.86,-168.62 1104.46,-140.68 1064.5,-126.25 950.44,-85.06 808.08,-75.77 725.51,-74.17"/>
<polygon fill="#63b8ff" stroke="#63b8ff" points="1168.31,-191.16 1178.34,-194.6 1172.64,-185.66 1168.31,-191.16"/>
</a>
</g>
</g>
<!-- Node5&#45;&gt;Node6 -->
<g id="edge5_Node000005_Node000006" class="edge">
<title>Node5&#45;&gt;Node6</title>
<g id="a_edge5_Node000005_Node000006"><a xlink:title=" ">
<path fill="none" stroke="#63b8ff" d="M721.38,-119.41C707.96,-109.98 692.67,-99.23 680.42,-90.62"/>
<polygon fill="#63b8ff" stroke="#63b8ff" points="719.32,-122.24 729.51,-125.13 723.34,-116.52 719.32,-122.24"/>
</a>
</g>
</g>
<!-- Node7 -->
<g id="Node000007" class="node">
<title>Node7</title>
<g id="a_Node000007"><a xlink:href="problem_8cc.html" target="_top" xlink:title=" ">
<polygon fill="white" stroke="#666666" points="502.12,-20.75 390.88,-20.75 390.88,0 502.12,0 502.12,-20.75"/>
<text text-anchor="middle" x="446.5" y="-7.25" font-family="Helvetica,sans-Serif" font-size="10.00">src/core/problem.cc</text>
</a>
</g>
</g>
<!-- Node6&#45;&gt;Node7 -->
<g id="edge6_Node000006_Node000007" class="edge">
<title>Node6&#45;&gt;Node7</title>
<g id="a_edge6_Node000006_Node000007"><a xlink:title=" ">
<path fill="none" stroke="#63b8ff" d="M590.86,-53.19C554.08,-42.54 509.99,-29.77 480.29,-21.17"/>
<polygon fill="#63b8ff" stroke="#63b8ff" points="589.48,-56.44 600.06,-55.86 591.42,-49.71 589.48,-56.44"/>
</a>
</g>
</g>
<!-- Node8 -->
<g id="Node000008" class="node">
<title>Node8</title>
<g id="a_Node000008"><a xlink:href="solvers_8cc.html" target="_top" xlink:title=" ">
<polygon fill="white" stroke="#666666" points="717.62,-20.75 597.38,-20.75 597.38,0 717.62,0 717.62,-20.75"/>
<text text-anchor="middle" x="657.5" y="-7.25" font-family="Helvetica,sans-Serif" font-size="10.00">src/solvers/solvers.cc</text>
</a>
</g>
</g>
<!-- Node6&#45;&gt;Node8 -->
<g id="edge7_Node000006_Node000008" class="edge">
<title>Node6&#45;&gt;Node8</title>
<g id="a_edge7_Node000006_Node000008"><a xlink:title=" ">
<path fill="none" stroke="#63b8ff" d="M657.5,-44.94C657.5,-36.46 657.5,-27.67 657.5,-21.22"/>
<polygon fill="#63b8ff" stroke="#63b8ff" points="654,-44.93 657.5,-54.93 661,-44.93 654,-44.93"/>
</a>
</g>
</g>
<!-- Node10 -->
<g id="Node000010" class="node">
<title>Node10</title>
<g id="a_Node000010"><a xlink:href="problem_8h.html" target="_top" xlink:title=" ">
<polygon fill="white" stroke="#666666" points="401,-229.25 280,-229.25 280,-195.75 401,-195.75 401,-229.25"/>
<text text-anchor="start" x="288" y="-215.75" font-family="Helvetica,sans-Serif" font-size="10.00">include/prismspf/core</text>
<text text-anchor="middle" x="340.5" y="-203" font-family="Helvetica,sans-Serif" font-size="10.00">/problem.h</text>
</a>
</g>
</g>
<!-- Node9&#45;&gt;Node10 -->
<g id="edge10_Node000009_Node000010" class="edge">
<title>Node9&#45;&gt;Node10</title>
<g id="a_edge10_Node000009_Node000010"><a xlink:title=" ">
<path fill="none" stroke="#63b8ff" d="M350.14,-393.74C337.91,-369.79 321.29,-333.03 314.5,-298.75 311.61,-284.14 311.07,-279.74 314.5,-265.25 317.52,-252.53 324.17,-239.39 330,-229.53"/>
<polygon fill="#63b8ff" stroke="#63b8ff" points="346.95,-395.2 354.69,-402.44 353.16,-391.96 346.95,-395.2"/>
</a>
</g>
</g>
<!-- Node11 -->
<g id="Node000011" class="node">
<title>Node11</title>
<g id="a_Node000011"><a xlink:href="refinement__manager_8h.html" target="_top" xlink:title=" ">
<polygon fill="white" stroke="#666666" points="453.12,-298.75 323.88,-298.75 323.88,-265.25 453.12,-265.25 453.12,-298.75"/>
<text text-anchor="start" x="331.88" y="-285.25" font-family="Helvetica,sans-Serif" font-size="10.00">include/prismspf/core</text>
<text text-anchor="middle" x="388.5" y="-272.5" font-family="Helvetica,sans-Serif" font-size="10.00">/refinement_manager.h</text>
</a>
</g>
</g>
<!-- Node9&#45;&gt;Node11 -->
<g id="edge12_Node000009_Node000011" class="edge">
<title>Node9&#45;&gt;Node11</title>
<g id="a_edge12_Node000009_Node000011"><a xlink:title=" ">
<path fill="none" stroke="#63b8ff" d="M369.23,-393C374.15,-364.92 381.68,-321.92 385.72,-298.88"/>
<polygon fill="#63b8ff" stroke="#63b8ff" points="365.84,-392.07 367.56,-402.53 372.73,-393.28 365.84,-392.07"/>
</a>
</g>
</g>
<!-- Node12 -->
<g id="Node000012" class="node">
<title>Node12</title>
<g id="a_Node000012"><a xlink:href="solution__output_8h.html" target="_top" xlink:title=" ">
<polygon fill="white" stroke="#666666" points="121,-368.25 0,-368.25 0,-334.75 121,-334.75 121,-368.25"/>
<text text-anchor="start" x="8" y="-354.75" font-family="Helvetica,sans-Serif" font-size="10.00">include/prismspf/core</text>
<text text-anchor="middle" x="60.5" y="-342" font-family="Helvetica,sans-Serif" font-size="10.00">/solution_output.h</text>
</a>
</g>
</g>
<!-- Node9&#45;&gt;Node12 -->
<g id="edge14_Node000009_Node000012" class="edge">
<title>Node9&#45;&gt;Node12</title>
<g id="a_edge14_Node000009_Node000012"><a xlink:title=" ">
<path fill="none" stroke="#63b8ff" d="M285.63,-402.49C234.41,-391.11 168.64,-376.51 121.43,-366.03"/>
<polygon fill="#63b8ff" stroke="#63b8ff" points="284.66,-405.86 295.18,-404.61 286.17,-399.02 284.66,-405.86"/>
</a>
</g>
</g>
<!-- Node14 -->
<g id="Node000014" class="node">
<title>Node14</title>
<g id="a_Node000014"><a xlink:href="nucleation__manager_8h.html" target="_top" xlink:title=" ">
<polygon fill="white" stroke="#666666" points="308,-368.25 157,-368.25 157,-334.75 308,-334.75 308,-368.25"/>
<text text-anchor="start" x="165" y="-354.75" font-family="Helvetica,sans-Serif" font-size="10.00">include/prismspf/nucleation</text>
<text text-anchor="middle" x="232.5" y="-342" font-family="Helvetica,sans-Serif" font-size="10.00">/nucleation_manager.h</text>
</a>
</g>
</g>
<!-- Node9&#45;&gt;Node14 -->
<g id="edge18_Node000009_Node000014" class="edge">
<title>Node9&#45;&gt;Node14</title>
<g id="a_edge18_Node000009_Node000014"><a xlink:title=" ">
<path fill="none" stroke="#63b8ff" d="M322.67,-398.61C303.62,-388.87 281.45,-377.53 263.86,-368.54"/>
<polygon fill="#63b8ff" stroke="#63b8ff" points="321.04,-401.71 331.54,-403.14 324.23,-395.47 321.04,-401.71"/>
</a>
</g>
</g>
<!-- Node15 -->
<g id="Node000015" class="node">
<title>Node15</title>
<g id="a_Node000015"><a xlink:href="solver__base_8h.html" target="_top" xlink:title=" ">
<polygon fill="white" stroke="#666666" points="732.12,-368.25 596.88,-368.25 596.88,-334.75 732.12,-334.75 732.12,-368.25"/>
<text text-anchor="start" x="604.88" y="-354.75" font-family="Helvetica,sans-Serif" font-size="10.00">include/prismspf/solvers</text>
<text text-anchor="middle" x="664.5" y="-342" font-family="Helvetica,sans-Serif" font-size="10.00">/solver_base.h</text>
</a>
</g>
</g>
<!-- Node9&#45;&gt;Node15 -->
<g id="edge20_Node000009_Node000015" class="edge">
<title>Node9&#45;&gt;Node15</title>
<g id="a_edge20_Node000009_Node000015"><a xlink:title=" ">
<path fill="none" stroke="#63b8ff" d="M443.75,-402.17C491.27,-391.48 551.06,-378.02 596.44,-367.81"/>
<polygon fill="#63b8ff" stroke="#63b8ff" points="443.04,-398.74 434.05,-404.35 444.58,-405.57 443.04,-398.74"/>
</a>
</g>
</g>
<!-- Node10&#45;&gt;Node7 -->
<g id="edge11_Node000010_Node000007" class="edge">
<title>Node10&#45;&gt;Node7</title>
<g id="a_edge11_Node000010_Node000007"><a xlink:title=" ">
<path fill="none" stroke="#63b8ff" d="M354.37,-185.31C378.19,-140.34 425.82,-50.41 441.42,-20.96"/>
<polygon fill="#63b8ff" stroke="#63b8ff" points="351.29,-183.65 349.7,-194.12 357.48,-186.93 351.29,-183.65"/>
</a>
</g>
</g>
<!-- Node11&#45;&gt;Node10 -->
<g id="edge13_Node000011_Node000010" class="edge">
<title>Node11&#45;&gt;Node10</title>
<g id="a_edge13_Node000011_Node000010"><a xlink:title=" ">
<path fill="none" stroke="#63b8ff" d="M370.61,-255.84C364.31,-246.98 357.4,-237.27 351.79,-229.38"/>
<polygon fill="#63b8ff" stroke="#63b8ff" points="367.6,-257.65 376.25,-263.77 373.3,-253.59 367.6,-257.65"/>
</a>
</g>
</g>
<!-- Node12&#45;&gt;Node7 -->
<g id="edge16_Node000012_Node000007" class="edge">
<title>Node12&#45;&gt;Node7</title>
<g id="a_edge16_Node000012_Node000007"><a xlink:title=" ">
<path fill="none" stroke="#63b8ff" d="M58.91,-322.99C57.44,-295.34 55.5,-251.48 55.5,-213.5 55.5,-213.5 55.5,-213.5 55.5,-142 55.5,-72.22 282.36,-32.95 390.48,-18.2"/>
<polygon fill="#63b8ff" stroke="#63b8ff" points="55.41,-323.17 59.45,-332.97 62.4,-322.79 55.41,-323.17"/>
</a>
</g>
</g>
<!-- Node12&#45;&gt;Node12 -->
<g id="edge15_Node000012_Node000012" class="edge">
<title>Node12&#45;&gt;Node12</title>
<g id="a_edge15_Node000012_Node000012"><a xlink:title=" ">
<path fill="none" stroke="#63b8ff" d="M132.22,-360.45C136.46,-358.31 139,-355.33 139,-351.5 139,-345.05 131.79,-341 121.39,-339.33"/>
<polygon fill="#63b8ff" stroke="#63b8ff" points="131.43,-357.04 122.84,-363.23 133.42,-363.75 131.43,-357.04"/>
</a>
</g>
</g>
<!-- Node13 -->
<g id="Node000013" class="node">
<title>Node13</title>
<g id="a_Node000013"><a xlink:href="solution__output_8cc.html" target="_top" xlink:title=" ">
<polygon fill="white" stroke="#666666" points="229.75,-292.38 83.25,-292.38 83.25,-271.62 229.75,-271.62 229.75,-292.38"/>
<text text-anchor="middle" x="156.5" y="-278.88" font-family="Helvetica,sans-Serif" font-size="10.00">src/core/solution_output.cc</text>
</a>
</g>
</g>
<!-- Node12&#45;&gt;Node13 -->
<g id="edge17_Node000012_Node000013" class="edge">
<title>Node12&#45;&gt;Node13</title>
<g id="a_edge17_Node000012_Node000013"><a xlink:title=" ">
<path fill="none" stroke="#63b8ff" d="M92.32,-328.12C109.34,-316.16 129.42,-302.04 142.53,-292.82"/>
<polygon fill="#63b8ff" stroke="#63b8ff" points="90.66,-325.02 84.49,-333.63 94.68,-330.74 90.66,-325.02"/>
</a>
</g>
</g>
<!-- Node14&#45;&gt;Node10 -->
<g id="edge19_Node000014_Node000010" class="edge">
<title>Node14&#45;&gt;Node10</title>
<g id="a_edge19_Node000014_Node000010"><a xlink:title=" ">
<path fill="none" stroke="#63b8ff" d="M244.72,-324.27C253.6,-306.64 266.63,-283.41 281.5,-265.25 292.38,-251.97 306.84,-239.22 318.72,-229.71"/>
<polygon fill="#63b8ff" stroke="#63b8ff" points="241.67,-322.55 240.42,-333.07 247.96,-325.63 241.67,-322.55"/>
</a>
</g>
</g>
<!-- Node15&#45;&gt;Node2 -->
<g id="edge26_Node000015_Node000002" class="edge">
<title>Node15&#45;&gt;Node2</title>
<g id="a_edge26_Node000015_Node000002"><a xlink:title=" ">
<path fill="none" stroke="#63b8ff" d="M743.87,-343.78C822.95,-335.96 938,-321.17 976.5,-298.75 1004.8,-282.27 1026.22,-249.45 1037.23,-229.69"/>
<polygon fill="#63b8ff" stroke="#63b8ff" points="743.59,-340.29 733.98,-344.74 744.27,-347.26 743.59,-340.29"/>
</a>
</g>
</g>
<!-- Node15&#45;&gt;Node3 -->
<g id="edge27_Node000015_Node000003" class="edge">
<title>Node15&#45;&gt;Node3</title>
<g id="a_edge27_Node000015_Node000003"><a xlink:title=" ">
<path fill="none" stroke="#63b8ff" d="M744.04,-344.72C814.63,-338.13 919.99,-324.73 1008.5,-298.75 1067.82,-281.34 1132.67,-249.15 1169.19,-229.69"/>
<polygon fill="#63b8ff" stroke="#63b8ff" points="743.74,-341.23 734.09,-345.62 744.37,-348.2 743.74,-341.23"/>
</a>
</g>
</g>
<!-- Node15&#45;&gt;Node5 -->
<g id="edge35_Node000015_Node000005" class="edge">
<title>Node15&#45;&gt;Node5</title>
<g id="a_edge35_Node000015_Node000005"><a xlink:title=" ">
<path fill="none" stroke="#63b8ff" d="M675.94,-323.96C694.66,-280.53 731.27,-195.57 746.55,-160.13"/>
<polygon fill="#63b8ff" stroke="#63b8ff" points="672.83,-322.34 672.08,-332.91 679.25,-325.11 672.83,-322.34"/>
</a>
</g>
</g>
<!-- Node15&#45;&gt;Node7 -->
<g id="edge36_Node000015_Node000007" class="edge">
<title>Node15&#45;&gt;Node7</title>
<g id="a_edge36_Node000015_Node000007"><a xlink:title=" ">
<path fill="none" stroke="#63b8ff" d="M604.63,-329.69C587.98,-321.86 570.83,-311.64 557.5,-298.75 472.36,-216.38 451.45,-61.41 447.37,-21.14"/>
<polygon fill="#63b8ff" stroke="#63b8ff" points="602.95,-332.78 613.51,-333.65 605.8,-326.38 602.95,-332.78"/>
</a>
</g>
</g>
<!-- Node15&#45;&gt;Node11 -->
<g id="edge21_Node000015_Node000011" class="edge">
<title>Node15&#45;&gt;Node11</title>
<g id="a_edge21_Node000015_Node000011"><a xlink:title=" ">
<path fill="none" stroke="#63b8ff" d="M587.34,-331.63C545.23,-321.33 493.66,-308.72 453.59,-298.92"/>
<polygon fill="#63b8ff" stroke="#63b8ff" points="586.38,-335 596.92,-333.97 588.04,-328.2 586.38,-335"/>
</a>
</g>
</g>
<!-- Node16 -->
<g id="Node000016" class="node">
<title>Node16</title>
<g id="a_Node000016"><a xlink:href="constant__solver_8h.html" target="_top" xlink:title=" ">
<polygon fill="white" stroke="#666666" points="629.12,-159.75 493.88,-159.75 493.88,-126.25 629.12,-126.25 629.12,-159.75"/>
<text text-anchor="start" x="501.88" y="-146.25" font-family="Helvetica,sans-Serif" font-size="10.00">include/prismspf/solvers</text>
<text text-anchor="middle" x="561.5" y="-133.5" font-family="Helvetica,sans-Serif" font-size="10.00">/constant_solver.h</text>
</a>
</g>
</g>
<!-- Node15&#45;&gt;Node16 -->
<g id="edge22_Node000015_Node000016" class="edge">
<title>Node15&#45;&gt;Node16</title>
<g id="a_edge22_Node000015_Node000016"><a xlink:title=" ">
<path fill="none" stroke="#63b8ff" d="M628.25,-327.96C597.87,-306.72 556.63,-271.85 538.5,-229.25 528.66,-206.12 540.86,-177.64 550.91,-160.15"/>
<polygon fill="#63b8ff" stroke="#63b8ff" points="626.2,-330.79 636.44,-333.51 630.13,-325 626.2,-330.79"/>
</a>
</g>
</g>
<!-- Node17 -->
<g id="Node000017" class="node">
<title>Node17</title>
<g id="a_Node000017"><a xlink:href="explicit__solver_8h.html" target="_top" xlink:title=" ">
<polygon fill="white" stroke="#666666" points="683.12,-229.25 547.88,-229.25 547.88,-195.75 683.12,-195.75 683.12,-229.25"/>
<text text-anchor="start" x="555.88" y="-215.75" font-family="Helvetica,sans-Serif" font-size="10.00">include/prismspf/solvers</text>
<text text-anchor="middle" x="615.5" y="-203" font-family="Helvetica,sans-Serif" font-size="10.00">/explicit_solver.h</text>
</a>
</g>
</g>
<!-- Node15&#45;&gt;Node17 -->
<g id="edge24_Node000015_Node000017" class="edge">
<title>Node15&#45;&gt;Node17</title>
<g id="a_edge24_Node000015_Node000017"><a xlink:title=" ">
<path fill="none" stroke="#63b8ff" d="M654.98,-323.87C644.94,-295.81 629.46,-252.52 621.18,-229.38"/>
<polygon fill="#63b8ff" stroke="#63b8ff" points="651.61,-324.85 658.27,-333.09 658.2,-322.5 651.61,-324.85"/>
</a>
</g>
</g>
<!-- Node18 -->
<g id="Node000018" class="node">
<title>Node18</title>
<g id="a_Node000018"><a xlink:href="mf__operator_8h.html" target="_top" xlink:title=" ">
<polygon fill="white" stroke="#666666" points="967.12,-298.75 831.88,-298.75 831.88,-265.25 967.12,-265.25 967.12,-298.75"/>
<text text-anchor="start" x="839.88" y="-285.25" font-family="Helvetica,sans-Serif" font-size="10.00">include/prismspf/solvers</text>
<text text-anchor="middle" x="899.5" y="-272.5" font-family="Helvetica,sans-Serif" font-size="10.00">/mf_operator.h</text>
</a>
</g>
</g>
<!-- Node15&#45;&gt;Node18 -->
<g id="edge28_Node000015_Node000018" class="edge">
<title>Node15&#45;&gt;Node18</title>
<g id="a_edge28_Node000015_Node000018"><a xlink:title=" ">
<path fill="none" stroke="#63b8ff" d="M731.49,-331.26C766.82,-321.11 809.68,-308.8 843.26,-299.15"/>
<polygon fill="#63b8ff" stroke="#63b8ff" points="730.89,-327.79 722.24,-333.91 732.82,-334.52 730.89,-327.79"/>
</a>
</g>
</g>
<!-- Node20 -->
<g id="Node000020" class="node">
<title>Node20</title>
<g id="a_Node000020"><a xlink:href="solver__base_8cc.html" target="_top" xlink:title=" ">
<polygon fill="white" stroke="#666666" points="814.25,-298.75 712.75,-298.75 712.75,-265.25 814.25,-265.25 814.25,-298.75"/>
<text text-anchor="start" x="720.75" y="-285.25" font-family="Helvetica,sans-Serif" font-size="10.00">src/solvers/solver</text>
<text text-anchor="middle" x="763.5" y="-272.5" font-family="Helvetica,sans-Serif" font-size="10.00">_base.cc</text>
</a>
</g>
</g>
<!-- Node15&#45;&gt;Node20 -->
<g id="edge37_Node000015_Node000020" class="edge">
<title>Node15&#45;&gt;Node20</title>
<g id="a_edge37_Node000015_Node000020"><a xlink:title=" ">
<path fill="none" stroke="#63b8ff" d="M697.47,-328.02C711.39,-318.53 727.28,-307.7 739.98,-299.04"/>
<polygon fill="#63b8ff" stroke="#63b8ff" points="695.75,-324.95 689.46,-333.48 699.7,-330.74 695.75,-324.95"/>
</a>
</g>
</g>
<!-- Node16&#45;&gt;Node6 -->
<g id="edge23_Node000016_Node000006" class="edge">
<title>Node16&#45;&gt;Node6</title>
<g id="a_edge23_Node000016_Node000006"><a xlink:title=" ">
<path fill="none" stroke="#63b8ff" d="M593.62,-119.41C607.04,-109.98 622.33,-99.23 634.58,-90.62"/>
<polygon fill="#63b8ff" stroke="#63b8ff" points="591.66,-116.52 585.49,-125.13 595.68,-122.24 591.66,-116.52"/>
</a>
</g>
</g>
<!-- Node17&#45;&gt;Node6 -->
<g id="edge25_Node000017_Node000006" class="edge">
<title>Node17&#45;&gt;Node6</title>
<g id="a_edge25_Node000017_Node000006"><a xlink:title=" ">
<path fill="none" stroke="#63b8ff" d="M628.38,-185.24C632,-177.19 635.7,-168.22 638.5,-159.75 646.29,-136.13 651.9,-107.79 654.92,-90.47"/>
<polygon fill="#63b8ff" stroke="#63b8ff" points="625.29,-183.6 624.24,-194.14 631.63,-186.55 625.29,-183.6"/>
</a>
</g>
</g>
<!-- Node18&#45;&gt;Node2 -->
<g id="edge30_Node000018_Node000002" class="edge">
<title>Node18&#45;&gt;Node2</title>
<g id="a_edge30_Node000018_Node000002"><a xlink:title=" ">
<path fill="none" stroke="#63b8ff" d="M944.85,-260.03C966.04,-250.24 990.87,-238.76 1010.56,-229.65"/>
<polygon fill="#63b8ff" stroke="#63b8ff" points="943.45,-256.82 935.84,-264.2 946.39,-263.18 943.45,-256.82"/>
</a>
</g>
</g>
<!-- Node18&#45;&gt;Node3 -->
<g id="edge31_Node000018_Node000003" class="edge">
<title>Node18&#45;&gt;Node3</title>
<g id="a_edge31_Node000018_Node000003"><a xlink:title=" ">
<path fill="none" stroke="#63b8ff" d="M978.47,-263.17C1025.74,-252.5 1085.21,-239.08 1130.4,-228.87"/>
<polygon fill="#63b8ff" stroke="#63b8ff" points="977.81,-259.73 968.82,-265.35 979.35,-266.56 977.81,-259.73"/>
</a>
</g>
</g>
<!-- Node18&#45;&gt;Node4 -->
<g id="edge32_Node000018_Node000004" class="edge">
<title>Node18&#45;&gt;Node4</title>
<g id="a_edge32_Node000018_Node000004"><a xlink:title=" ">
<path fill="none" stroke="#63b8ff" d="M915.89,-255.49C933.89,-227.47 962.23,-183.33 977.3,-159.88"/>
<polygon fill="#63b8ff" stroke="#63b8ff" points="913.04,-253.44 910.58,-263.74 918.93,-257.22 913.04,-253.44"/>
</a>
</g>
</g>
<!-- Node18&#45;&gt;Node5 -->
<g id="edge33_Node000018_Node000005" class="edge">
<title>Node18&#45;&gt;Node5</title>
<g id="a_edge33_Node000018_Node000005"><a xlink:title=" ">
<path fill="none" stroke="#63b8ff" d="M832.29,-261.16C804.83,-251.74 777.4,-240.16 768.5,-229.25 752.44,-209.57 751.05,-178.72 751.96,-160.03"/>
<polygon fill="#63b8ff" stroke="#63b8ff" points="831.16,-264.47 841.76,-264.32 833.38,-257.83 831.16,-264.47"/>
</a>
</g>
</g>
<!-- Node18&#45;&gt;Node17 -->
<g id="edge29_Node000018_Node000017" class="edge">
<title>Node18&#45;&gt;Node17</title>
<g id="a_edge29_Node000018_Node000017"><a xlink:title=" ">
<path fill="none" stroke="#63b8ff" d="M820.46,-262.22C777.41,-251.98 724.66,-239.45 683.46,-229.65"/>
<polygon fill="#63b8ff" stroke="#63b8ff" points="819.46,-265.57 830,-264.48 821.08,-258.76 819.46,-265.57"/>
</a>
</g>
</g>
<!-- Node19 -->
<g id="Node000019" class="node">
<title>Node19</title>
<g id="a_Node000019"><a xlink:href="mf__operator_8cc.html" target="_top" xlink:title=" ">
<polygon fill="white" stroke="#666666" points="921.62,-222.88 777.38,-222.88 777.38,-202.12 921.62,-202.12 921.62,-222.88"/>
<text text-anchor="middle" x="849.5" y="-209.38" font-family="Helvetica,sans-Serif" font-size="10.00">src/solvers/mf_operator.cc</text>
</a>
</g>
</g>
<!-- Node18&#45;&gt;Node19 -->
<g id="edge34_Node000018_Node000019" class="edge">
<title>Node18&#45;&gt;Node19</title>
<g id="a_edge34_Node000018_Node000019"><a xlink:title=" ">
<path fill="none" stroke="#63b8ff" d="M880.93,-255.93C872.53,-244.6 863.1,-231.86 856.78,-223.32"/>
<polygon fill="#63b8ff" stroke="#63b8ff" points="877.99,-257.83 886.75,-263.79 883.61,-253.67 877.99,-257.83"/>
</a>
</g>
</g>
</g>
</svg>
