<?xml version="1.0" encoding="UTF-8" standalone="no"?>
<!DOCTYPE svg PUBLIC "-//W3C//DTD SVG 1.1//EN"
 "http://www.w3.org/Graphics/SVG/1.1/DTD/svg11.dtd">
<!-- Generated by graphviz version 2.43.0 (0)
 -->
<!-- Title: /home/runner/work/phaseField/phaseField/include/prismspf/core/invm_manager.h Pages: 1 -->
<svg width="1457pt" height="577pt"
 viewBox="0.00 0.00 1457.00 577.00" xmlns="http://www.w3.org/2000/svg" xmlns:xlink="http://www.w3.org/1999/xlink">
<g id="graph0" class="graph" transform="scale(1 1) rotate(0) translate(4 573)">
<title>/home/runner/work/phaseField/phaseField/include/prismspf/core/invm_manager.h</title>
<!-- Node1 -->
<g id="Node000001" class="node">
<title>Node1</title>
<g id="a_Node000001"><a xlink:title=" ">
<polygon fill="#999999" stroke="#666666" points="1334,-569 1170,-569 1170,-528 1334,-528 1334,-569"/>
<text text-anchor="start" x="1178" y="-557" font-family="Helvetica,sans-Serif" font-size="10.00">/home/runner/work/phaseField</text>
<text text-anchor="start" x="1178" y="-546" font-family="Helvetica,sans-Serif" font-size="10.00">/phaseField/include/prismspf</text>
<text text-anchor="middle" x="1252" y="-535" font-family="Helvetica,sans-Serif" font-size="10.00">/core/invm_manager.h</text>
</a>
</g>
</g>
<!-- Node2 -->
<g id="Node000002" class="node">
<title>Node2</title>
<g id="a_Node000002"><a xlink:href="linear__helper_8h.html" target="_top" xlink:title=" ">
<polygon fill="white" stroke="#666666" points="1267,-261 1103,-261 1103,-220 1267,-220 1267,-261"/>
<text text-anchor="start" x="1111" y="-249" font-family="Helvetica,sans-Serif" font-size="10.00">/home/runner/work/phaseField</text>
<text text-anchor="start" x="1111" y="-238" font-family="Helvetica,sans-Serif" font-size="10.00">/phaseField/include/prismspf</text>
<text text-anchor="middle" x="1185" y="-227" font-family="Helvetica,sans-Serif" font-size="10.00">/solvers/linear_helper.h</text>
</a>
</g>
</g>
<!-- Node1&#45;&gt;Node2 -->
<g id="edge1_Node000001_Node000002" class="edge">
<title>Node1&#45;&gt;Node2</title>
<g id="a_edge1_Node000001_Node000002"><a xlink:title=" ">
<path fill="none" stroke="#63b8ff" d="M1245.54,-517.97C1231.96,-455.99 1200.82,-313.73 1189.34,-261.34"/>
<polygon fill="#63b8ff" stroke="#63b8ff" points="1242.15,-518.87 1247.71,-527.89 1248.99,-517.38 1242.15,-518.87"/>
</a>
</g>
</g>
<!-- Node3 -->
<g id="Node000003" class="node">
<title>Node3</title>
<g id="a_Node000003"><a xlink:href="linear__solver_8h.html" target="_top" xlink:title=" ">
<polygon fill="white" stroke="#666666" points="1449,-261 1285,-261 1285,-220 1449,-220 1449,-261"/>
<text text-anchor="start" x="1293" y="-249" font-family="Helvetica,sans-Serif" font-size="10.00">/home/runner/work/phaseField</text>
<text text-anchor="start" x="1293" y="-238" font-family="Helvetica,sans-Serif" font-size="10.00">/phaseField/include/prismspf</text>
<text text-anchor="middle" x="1367" y="-227" font-family="Helvetica,sans-Serif" font-size="10.00">/solvers/linear_solver.h</text>
</a>
</g>
</g>
<!-- Node1&#45;&gt;Node3 -->
<g id="edge2_Node000001_Node000003" class="edge">
<title>Node1&#45;&gt;Node3</title>
<g id="a_edge2_Node000001_Node000003"><a xlink:title=" ">
<path fill="none" stroke="#63b8ff" d="M1262.95,-518.36C1286.17,-456.58 1339.81,-313.84 1359.54,-261.34"/>
<polygon fill="#63b8ff" stroke="#63b8ff" points="1259.61,-517.3 1259.37,-527.89 1266.16,-519.76 1259.61,-517.3"/>
</a>
</g>
</g>
<!-- Node9 -->
<g id="Node000009" class="node">
<title>Node9</title>
<g id="a_Node000009"><a xlink:href="solve__context_8h.html" target="_top" xlink:title=" ">
<polygon fill="white" stroke="#666666" points="511,-492 347,-492 347,-451 511,-451 511,-492"/>
<text text-anchor="start" x="355" y="-480" font-family="Helvetica,sans-Serif" font-size="10.00">/home/runner/work/phaseField</text>
<text text-anchor="start" x="355" y="-469" font-family="Helvetica,sans-Serif" font-size="10.00">/phaseField/include/prismspf</text>
<text text-anchor="middle" x="429" y="-458" font-family="Helvetica,sans-Serif" font-size="10.00">/solvers/solve_context.h</text>
</a>
</g>
</g>
<!-- Node1&#45;&gt;Node9 -->
<g id="edge9_Node000001_Node000009" class="edge">
<title>Node1&#45;&gt;Node9</title>
<g id="a_edge9_Node000001_Node000009"><a xlink:title=" ">
<path fill="none" stroke="#63b8ff" d="M1159.28,-539.05C997.29,-524.29 665.32,-494.04 511.11,-479.98"/>
<polygon fill="#63b8ff" stroke="#63b8ff" points="1159.42,-542.58 1169.7,-540 1160.06,-535.61 1159.42,-542.58"/>
</a>
</g>
</g>
<!-- Node4 -->
<g id="Node000004" class="node">
<title>Node4</title>
<g id="a_Node000004"><a xlink:href="mg__solver_8h.html" target="_top" xlink:title=" ">
<polygon fill="white" stroke="#666666" points="1202,-184 1038,-184 1038,-143 1202,-143 1202,-184"/>
<text text-anchor="start" x="1046" y="-172" font-family="Helvetica,sans-Serif" font-size="10.00">/home/runner/work/phaseField</text>
<text text-anchor="start" x="1046" y="-161" font-family="Helvetica,sans-Serif" font-size="10.00">/phaseField/include/prismspf</text>
<text text-anchor="middle" x="1120" y="-150" font-family="Helvetica,sans-Serif" font-size="10.00">/solvers/mg_solver.h</text>
</a>
</g>
</g>
<!-- Node3&#45;&gt;Node4 -->
<g id="edge3_Node000003_Node000004" class="edge">
<title>Node3&#45;&gt;Node4</title>
<g id="a_edge3_Node000003_Node000004"><a xlink:title=" ">
<path fill="none" stroke="#63b8ff" d="M1293.16,-217.08C1258.55,-206.57 1217.69,-194.16 1184.36,-184.04"/>
<polygon fill="#63b8ff" stroke="#63b8ff" points="1292.16,-220.43 1302.75,-219.99 1294.2,-213.74 1292.16,-220.43"/>
</a>
</g>
</g>
<!-- Node5 -->
<g id="Node000005" class="node">
<title>Node5</title>
<g id="a_Node000005"><a xlink:href="newton__solver_8h.html" target="_top" xlink:title=" ">
<polygon fill="white" stroke="#666666" points="946,-184 782,-184 782,-143 946,-143 946,-184"/>
<text text-anchor="start" x="790" y="-172" font-family="Helvetica,sans-Serif" font-size="10.00">/home/runner/work/phaseField</text>
<text text-anchor="start" x="790" y="-161" font-family="Helvetica,sans-Serif" font-size="10.00">/phaseField/include/prismspf</text>
<text text-anchor="middle" x="864" y="-150" font-family="Helvetica,sans-Serif" font-size="10.00">/solvers/newton_solver.h</text>
</a>
</g>
</g>
<!-- Node3&#45;&gt;Node5 -->
<g id="edge4_Node000003_Node000005" class="edge">
<title>Node3&#45;&gt;Node5</title>
<g id="a_edge4_Node000003_Node000005"><a xlink:title=" ">
<path fill="none" stroke="#63b8ff" d="M1274.67,-219.86C1199.54,-207.34 1042.93,-187.07 946.01,-174.78"/>
<polygon fill="#63b8ff" stroke="#63b8ff" points="1274.27,-223.34 1284.72,-221.57 1275.45,-216.44 1274.27,-223.34"/>
</a>
</g>
</g>
<!-- Node6 -->
<g id="Node000006" class="node">
<title>Node6</title>
<g id="a_Node000006"><a xlink:href="solvers_8h.html" target="_top" xlink:title=" ">
<polygon fill="white" stroke="#666666" points="836,-107 672,-107 672,-66 836,-66 836,-107"/>
<text text-anchor="start" x="680" y="-95" font-family="Helvetica,sans-Serif" font-size="10.00">/home/runner/work/phaseField</text>
<text text-anchor="start" x="680" y="-84" font-family="Helvetica,sans-Serif" font-size="10.00">/phaseField/include/prismspf</text>
<text text-anchor="middle" x="754" y="-73" font-family="Helvetica,sans-Serif" font-size="10.00">/solvers/solvers.h</text>
</a>
</g>
</g>
<!-- Node3&#45;&gt;Node6 -->
<g id="edge8_Node000003_Node000006" class="edge">
<title>Node3&#45;&gt;Node6</title>
<g id="a_edge8_Node000003_Node000006"><a xlink:title=" ">
<path fill="none" stroke="#63b8ff" d="M1334.76,-213.69C1304.62,-191.05 1257.42,-159.29 1211,-143 1085.24,-98.88 929.42,-88.69 836.05,-86.95"/>
<polygon fill="#63b8ff" stroke="#63b8ff" points="1332.72,-216.54 1342.79,-219.81 1336.96,-210.97 1332.72,-216.54"/>
</a>
</g>
</g>
<!-- Node5&#45;&gt;Node6 -->
<g id="edge5_Node000005_Node000006" class="edge">
<title>Node5&#45;&gt;Node6</title>
<g id="a_edge5_Node000005_Node000006"><a xlink:title=" ">
<path fill="none" stroke="#63b8ff" d="M826.74,-137.09C812.4,-127.32 796.28,-116.32 782.85,-107.17"/>
<polygon fill="#63b8ff" stroke="#63b8ff" points="825.15,-140.25 835.39,-142.99 829.1,-134.47 825.15,-140.25"/>
</a>
</g>
</g>
<!-- Node7 -->
<g id="Node000007" class="node">
<title>Node7</title>
<g id="a_Node000007"><a xlink:href="problem_8cc.html" target="_top" xlink:title=" ">
<polygon fill="white" stroke="#666666" points="549,-30 379,-30 379,0 549,0 549,-30"/>
<text text-anchor="start" x="387" y="-18" font-family="Helvetica,sans-Serif" font-size="10.00">/home/runner/work/phaseField</text>
<text text-anchor="middle" x="464" y="-7" font-family="Helvetica,sans-Serif" font-size="10.00">/phaseField/src/core/problem.cc</text>
</a>
</g>
</g>
<!-- Node6&#45;&gt;Node7 -->
<g id="edge6_Node000006_Node000007" class="edge">
<title>Node6&#45;&gt;Node7</title>
<g id="a_edge6_Node000006_Node000007"><a xlink:title=" ">
<path fill="none" stroke="#63b8ff" d="M662.5,-63.57C616.69,-52.59 562.58,-39.62 522.43,-30"/>
<polygon fill="#63b8ff" stroke="#63b8ff" points="661.91,-67.03 672.45,-65.96 663.54,-60.22 661.91,-67.03"/>
</a>
</g>
</g>
<!-- Node8 -->
<g id="Node000008" class="node">
<title>Node8</title>
<g id="a_Node000008"><a xlink:href="solvers_8cc.html" target="_top" xlink:title=" ">
<polygon fill="white" stroke="#666666" points="843.5,-30 664.5,-30 664.5,0 843.5,0 843.5,-30"/>
<text text-anchor="start" x="672.5" y="-18" font-family="Helvetica,sans-Serif" font-size="10.00">/home/runner/work/phaseField</text>
<text text-anchor="middle" x="754" y="-7" font-family="Helvetica,sans-Serif" font-size="10.00">/phaseField/src/solvers/solvers.cc</text>
</a>
</g>
</g>
<!-- Node6&#45;&gt;Node8 -->
<g id="edge7_Node000006_Node000008" class="edge">
<title>Node6&#45;&gt;Node8</title>
<g id="a_edge7_Node000006_Node000008"><a xlink:title=" ">
<path fill="none" stroke="#63b8ff" d="M754,-55.66C754,-46.76 754,-37.42 754,-30.04"/>
<polygon fill="#63b8ff" stroke="#63b8ff" points="750.5,-55.77 754,-65.77 757.5,-55.77 750.5,-55.77"/>
</a>
</g>
</g>
<!-- Node10 -->
<g id="Node000010" class="node">
<title>Node10</title>
<g id="a_Node000010"><a xlink:href="problem_8h.html" target="_top" xlink:title=" ">
<polygon fill="white" stroke="#666666" points="476,-261 312,-261 312,-220 476,-220 476,-261"/>
<text text-anchor="start" x="320" y="-249" font-family="Helvetica,sans-Serif" font-size="10.00">/home/runner/work/phaseField</text>
<text text-anchor="start" x="320" y="-238" font-family="Helvetica,sans-Serif" font-size="10.00">/phaseField/include/prismspf</text>
<text text-anchor="middle" x="394" y="-227" font-family="Helvetica,sans-Serif" font-size="10.00">/core/problem.h</text>
</a>
</g>
</g>
<!-- Node9&#45;&gt;Node10 -->
<g id="edge10_Node000009_Node000010" class="edge">
<title>Node9&#45;&gt;Node10</title>
<g id="a_edge10_Node000009_Node000010"><a xlink:title=" ">
<path fill="none" stroke="#63b8ff" d="M420.49,-440.93C414.05,-421.12 404.08,-394.93 391,-374 379.5,-355.59 365.87,-358.23 358,-338 351.39,-321.02 352.83,-314.47 358,-297 361.85,-284 369.79,-271.2 377.25,-261.17"/>
<polygon fill="#63b8ff" stroke="#63b8ff" points="417.2,-442.15 423.53,-450.65 423.88,-440.06 417.2,-442.15"/>
</a>
</g>
</g>
<!-- Node11 -->
<g id="Node000011" class="node">
<title>Node11</title>
<g id="a_Node000011"><a xlink:href="refinement__manager_8h.html" target="_top" xlink:title=" ">
<polygon fill="white" stroke="#666666" points="531,-338 367,-338 367,-297 531,-297 531,-338"/>
<text text-anchor="start" x="375" y="-326" font-family="Helvetica,sans-Serif" font-size="10.00">/home/runner/work/phaseField</text>
<text text-anchor="start" x="375" y="-315" font-family="Helvetica,sans-Serif" font-size="10.00">/phaseField/include/prismspf</text>
<text text-anchor="middle" x="449" y="-304" font-family="Helvetica,sans-Serif" font-size="10.00">/core/refinement_manager.h</text>
</a>
</g>
</g>
<!-- Node9&#45;&gt;Node11 -->
<g id="edge12_Node000009_Node000011" class="edge">
<title>Node9&#45;&gt;Node11</title>
<g id="a_edge12_Node000009_Node000011"><a xlink:title=" ">
<path fill="none" stroke="#63b8ff" d="M432.88,-440.98C436.86,-410.76 442.93,-364.64 446.37,-338.47"/>
<polygon fill="#63b8ff" stroke="#63b8ff" points="429.41,-440.57 431.57,-450.94 436.35,-441.48 429.41,-440.57"/>
</a>
</g>
</g>
<!-- Node12 -->
<g id="Node000012" class="node">
<title>Node12</title>
<g id="a_Node000012"><a xlink:href="solution__output_8h.html" target="_top" xlink:title=" ">
<polygon fill="white" stroke="#666666" points="164,-415 0,-415 0,-374 164,-374 164,-415"/>
<text text-anchor="start" x="8" y="-403" font-family="Helvetica,sans-Serif" font-size="10.00">/home/runner/work/phaseField</text>
<text text-anchor="start" x="8" y="-392" font-family="Helvetica,sans-Serif" font-size="10.00">/phaseField/include/prismspf</text>
<text text-anchor="middle" x="82" y="-381" font-family="Helvetica,sans-Serif" font-size="10.00">/core/solution_output.h</text>
</a>
</g>
</g>
<!-- Node9&#45;&gt;Node12 -->
<g id="edge14_Node000009_Node000012" class="edge">
<title>Node9&#45;&gt;Node12</title>
<g id="a_edge14_Node000009_Node000012"><a xlink:title=" ">
<path fill="none" stroke="#63b8ff" d="M336.91,-450.6C283.24,-439 216.13,-424.49 164.24,-413.28"/>
<polygon fill="#63b8ff" stroke="#63b8ff" points="336.25,-454.03 346.77,-452.73 337.73,-447.19 336.25,-454.03"/>
</a>
</g>
</g>
<!-- Node14 -->
<g id="Node000014" class="node">
<title>Node14</title>
<g id="a_Node000014"><a xlink:href="nucleation__manager_8h.html" target="_top" xlink:title=" ">
<polygon fill="white" stroke="#666666" points="382,-415 200,-415 200,-374 382,-374 382,-415"/>
<text text-anchor="start" x="208" y="-403" font-family="Helvetica,sans-Serif" font-size="10.00">/home/runner/work/phaseField</text>
<text text-anchor="start" x="208" y="-392" font-family="Helvetica,sans-Serif" font-size="10.00">/phaseField/include/prismspf</text>
<text text-anchor="middle" x="291" y="-381" font-family="Helvetica,sans-Serif" font-size="10.00">/nucleation/nucleation_manager.h</text>
</a>
</g>
</g>
<!-- Node9&#45;&gt;Node14 -->
<g id="edge18_Node000009_Node000014" class="edge">
<title>Node9&#45;&gt;Node14</title>
<g id="a_edge18_Node000009_Node000014"><a xlink:title=" ">
<path fill="none" stroke="#63b8ff" d="M384.28,-446.19C365.8,-436.15 344.67,-424.67 327.2,-415.17"/>
<polygon fill="#63b8ff" stroke="#63b8ff" points="382.64,-449.29 393.1,-450.99 385.99,-443.14 382.64,-449.29"/>
</a>
</g>
</g>
<!-- Node15 -->
<g id="Node000015" class="node">
<title>Node15</title>
<g id="a_Node000015"><a xlink:href="solver__base_8h.html" target="_top" xlink:title=" ">
<polygon fill="white" stroke="#666666" points="827,-415 663,-415 663,-374 827,-374 827,-415"/>
<text text-anchor="start" x="671" y="-403" font-family="Helvetica,sans-Serif" font-size="10.00">/home/runner/work/phaseField</text>
<text text-anchor="start" x="671" y="-392" font-family="Helvetica,sans-Serif" font-size="10.00">/phaseField/include/prismspf</text>
<text text-anchor="middle" x="745" y="-381" font-family="Helvetica,sans-Serif" font-size="10.00">/solvers/solver_base.h</text>
</a>
</g>
</g>
<!-- Node9&#45;&gt;Node15 -->
<g id="edge20_Node000009_Node000015" class="edge">
<title>Node9&#45;&gt;Node15</title>
<g id="a_edge20_Node000009_Node000015"><a xlink:title=" ">
<path fill="none" stroke="#63b8ff" d="M520.94,-448.68C565.84,-438.02 619.43,-425.3 662.94,-414.98"/>
<polygon fill="#63b8ff" stroke="#63b8ff" points="520.12,-445.28 511.2,-450.99 521.74,-452.09 520.12,-445.28"/>
</a>
</g>
</g>
<!-- Node10&#45;&gt;Node7 -->
<g id="edge11_Node000010_Node000007" class="edge">
<title>Node10&#45;&gt;Node7</title>
<g id="a_edge11_Node000010_Node000007"><a xlink:title=" ">
<path fill="none" stroke="#63b8ff" d="M403.23,-210.03C418.47,-161.36 448.34,-66 459.58,-30.11"/>
<polygon fill="#63b8ff" stroke="#63b8ff" points="399.86,-209.08 400.21,-219.67 406.54,-211.17 399.86,-209.08"/>
</a>
</g>
</g>
<!-- Node11&#45;&gt;Node10 -->
<g id="edge13_Node000011_Node000010" class="edge">
<title>Node11&#45;&gt;Node10</title>
<g id="a_edge13_Node000011_Node000010"><a xlink:title=" ">
<path fill="none" stroke="#63b8ff" d="M428.59,-288.67C421.87,-279.5 414.53,-269.5 408.35,-261.07"/>
<polygon fill="#63b8ff" stroke="#63b8ff" points="425.81,-290.8 434.55,-296.79 431.46,-286.66 425.81,-290.8"/>
</a>
</g>
</g>
<!-- Node12&#45;&gt;Node7 -->
<g id="edge16_Node000012_Node000007" class="edge">
<title>Node12&#45;&gt;Node7</title>
<g id="a_edge16_Node000012_Node000007"><a xlink:title=" ">
<path fill="none" stroke="#63b8ff" d="M81.69,-363.8C81.4,-333.16 81,-283.99 81,-241.5 81,-241.5 81,-241.5 81,-162.5 81,-98.34 270.88,-51.9 383.24,-30.04"/>
<polygon fill="#63b8ff" stroke="#63b8ff" points="78.19,-363.86 81.79,-373.82 85.19,-363.79 78.19,-363.86"/>
</a>
</g>
</g>
<!-- Node12&#45;&gt;Node12 -->
<g id="edge15_Node000012_Node000012" class="edge">
<title>Node12&#45;&gt;Node12</title>
<g id="a_edge15_Node000012_Node000012"><a xlink:title=" ">
<path fill="none" stroke="#63b8ff" d="M174.27,-403.88C179.12,-401.57 182,-398.45 182,-394.5 182,-388.34 174.99,-384.18 164.38,-382.01"/>
<polygon fill="#63b8ff" stroke="#63b8ff" points="172.87,-400.65 164.38,-406.99 174.97,-407.33 172.87,-400.65"/>
</a>
</g>
</g>
<!-- Node13 -->
<g id="Node000013" class="node">
<title>Node13</title>
<g id="a_Node000013"><a xlink:href="solution__output_8cc.html" target="_top" xlink:title=" ">
<polygon fill="white" stroke="#666666" points="273,-338 109,-338 109,-297 273,-297 273,-338"/>
<text text-anchor="start" x="117" y="-326" font-family="Helvetica,sans-Serif" font-size="10.00">/home/runner/work/phaseField</text>
<text text-anchor="start" x="117" y="-315" font-family="Helvetica,sans-Serif" font-size="10.00">/phaseField/src/core/solution</text>
<text text-anchor="middle" x="191" y="-304" font-family="Helvetica,sans-Serif" font-size="10.00">_output.cc</text>
</a>
</g>
</g>
<!-- Node12&#45;&gt;Node13 -->
<g id="edge17_Node000012_Node000013" class="edge">
<title>Node12&#45;&gt;Node13</title>
<g id="a_edge17_Node000012_Node000013"><a xlink:title=" ">
<path fill="none" stroke="#63b8ff" d="M118.93,-368.09C133.13,-358.32 149.11,-347.32 162.41,-338.17"/>
<polygon fill="#63b8ff" stroke="#63b8ff" points="116.61,-365.44 110.35,-373.99 120.58,-371.21 116.61,-365.44"/>
</a>
</g>
</g>
<!-- Node14&#45;&gt;Node10 -->
<g id="edge19_Node000014_Node000010" class="edge">
<title>Node14&#45;&gt;Node10</title>
<g id="a_edge19_Node000014_Node000010"><a xlink:title=" ">
<path fill="none" stroke="#63b8ff" d="M296.9,-364C301.96,-343.79 310.75,-317.12 325,-297 334.95,-282.95 349.4,-270.57 362.51,-261.09"/>
<polygon fill="#63b8ff" stroke="#63b8ff" points="293.45,-363.37 294.58,-373.9 300.26,-364.96 293.45,-363.37"/>
</a>
</g>
</g>
<!-- Node15&#45;&gt;Node2 -->
<g id="edge26_Node000015_Node000002" class="edge">
<title>Node15&#45;&gt;Node2</title>
<g id="a_edge26_Node000015_Node000002"><a xlink:title=" ">
<path fill="none" stroke="#63b8ff" d="M837.48,-392.48C944.06,-389.38 1110.52,-378.05 1157,-338 1179.2,-318.87 1184.32,-283.29 1185.22,-261.09"/>
<polygon fill="#63b8ff" stroke="#63b8ff" points="837.26,-388.98 827.36,-392.75 837.45,-395.98 837.26,-388.98"/>
</a>
</g>
</g>
<!-- Node15&#45;&gt;Node3 -->
<g id="edge27_Node000015_Node000003" class="edge">
<title>Node15&#45;&gt;Node3</title>
<g id="a_edge27_Node000015_Node000003"><a xlink:title=" ">
<path fill="none" stroke="#63b8ff" d="M837.36,-391.3C927.43,-386.97 1067.35,-374.35 1183,-338 1241.16,-319.72 1302.72,-283.52 1337.84,-261.03"/>
<polygon fill="#63b8ff" stroke="#63b8ff" points="837,-387.82 827.17,-391.77 837.32,-394.81 837,-387.82"/>
</a>
</g>
</g>
<!-- Node15&#45;&gt;Node5 -->
<g id="edge35_Node000015_Node000005" class="edge">
<title>Node15&#45;&gt;Node5</title>
<g id="a_edge35_Node000015_Node000005"><a xlink:title=" ">
<path fill="none" stroke="#63b8ff" d="M759.05,-364.68C768.5,-345.44 781.32,-319.61 793,-297 813.84,-256.65 839.15,-209.94 853.23,-184.16"/>
<polygon fill="#63b8ff" stroke="#63b8ff" points="755.83,-363.3 754.57,-373.82 762.12,-366.38 755.83,-363.3"/>
</a>
</g>
</g>
<!-- Node15&#45;&gt;Node7 -->
<g id="edge36_Node000015_Node000007" class="edge">
<title>Node15&#45;&gt;Node7</title>
<g id="a_edge36_Node000015_Node000007"><a xlink:title=" ">
<path fill="none" stroke="#63b8ff" d="M679.63,-369.61C663.06,-361.39 646.23,-350.92 633,-338 535.46,-242.7 482.2,-78.98 467.94,-30.15"/>
<polygon fill="#63b8ff" stroke="#63b8ff" points="678.25,-372.83 688.79,-373.95 681.25,-366.5 678.25,-372.83"/>
</a>
</g>
</g>
<!-- Node15&#45;&gt;Node11 -->
<g id="edge21_Node000015_Node000011" class="edge">
<title>Node15&#45;&gt;Node11</title>
<g id="a_edge21_Node000015_Node000011"><a xlink:title=" ">
<path fill="none" stroke="#63b8ff" d="M658.11,-371.48C616.29,-360.89 566.58,-348.29 526.13,-338.04"/>
<polygon fill="#63b8ff" stroke="#63b8ff" points="657.45,-374.93 668,-373.99 659.17,-368.14 657.45,-374.93"/>
</a>
</g>
</g>
<!-- Node16 -->
<g id="Node000016" class="node">
<title>Node16</title>
<g id="a_Node000016"><a xlink:href="constant__solver_8h.html" target="_top" xlink:title=" ">
<polygon fill="white" stroke="#666666" points="726,-184 562,-184 562,-143 726,-143 726,-184"/>
<text text-anchor="start" x="570" y="-172" font-family="Helvetica,sans-Serif" font-size="10.00">/home/runner/work/phaseField</text>
<text text-anchor="start" x="570" y="-161" font-family="Helvetica,sans-Serif" font-size="10.00">/phaseField/include/prismspf</text>
<text text-anchor="middle" x="644" y="-150" font-family="Helvetica,sans-Serif" font-size="10.00">/solvers/constant_solver.h</text>
</a>
</g>
</g>
<!-- Node15&#45;&gt;Node16 -->
<g id="edge22_Node000015_Node000016" class="edge">
<title>Node15&#45;&gt;Node16</title>
<g id="a_edge22_Node000015_Node000016"><a xlink:title=" ">
<path fill="none" stroke="#63b8ff" d="M707.48,-368.01C676.36,-344.41 634.36,-306.19 616,-261 605.49,-235.14 619.06,-203.91 630.71,-184.12"/>
<polygon fill="#63b8ff" stroke="#63b8ff" points="705.42,-370.84 715.53,-373.99 709.59,-365.22 705.42,-370.84"/>
</a>
</g>
</g>
<!-- Node17 -->
<g id="Node000017" class="node">
<title>Node17</title>
<g id="a_Node000017"><a xlink:href="explicit__solver_8h.html" target="_top" xlink:title=" ">
<polygon fill="white" stroke="#666666" points="789,-261 625,-261 625,-220 789,-220 789,-261"/>
<text text-anchor="start" x="633" y="-249" font-family="Helvetica,sans-Serif" font-size="10.00">/home/runner/work/phaseField</text>
<text text-anchor="start" x="633" y="-238" font-family="Helvetica,sans-Serif" font-size="10.00">/phaseField/include/prismspf</text>
<text text-anchor="middle" x="707" y="-227" font-family="Helvetica,sans-Serif" font-size="10.00">/solvers/explicit_solver.h</text>
</a>
</g>
</g>
<!-- Node15&#45;&gt;Node17 -->
<g id="edge24_Node000015_Node000017" class="edge">
<title>Node15&#45;&gt;Node17</title>
<g id="a_edge24_Node000015_Node000017"><a xlink:title=" ">
<path fill="none" stroke="#63b8ff" d="M737.62,-363.98C730.07,-333.76 718.54,-287.64 711.99,-261.47"/>
<polygon fill="#63b8ff" stroke="#63b8ff" points="734.29,-365.09 740.11,-373.94 741.08,-363.39 734.29,-365.09"/>
</a>
</g>
</g>
<!-- Node18 -->
<g id="Node000018" class="node">
<title>Node18</title>
<g id="a_Node000018"><a xlink:href="mf__operator_8h.html" target="_top" xlink:title=" ">
<polygon fill="white" stroke="#666666" points="1148,-338 984,-338 984,-297 1148,-297 1148,-338"/>
<text text-anchor="start" x="992" y="-326" font-family="Helvetica,sans-Serif" font-size="10.00">/home/runner/work/phaseField</text>
<text text-anchor="start" x="992" y="-315" font-family="Helvetica,sans-Serif" font-size="10.00">/phaseField/include/prismspf</text>
<text text-anchor="middle" x="1066" y="-304" font-family="Helvetica,sans-Serif" font-size="10.00">/solvers/mf_operator.h</text>
</a>
</g>
</g>
<!-- Node15&#45;&gt;Node18 -->
<g id="edge28_Node000015_Node000018" class="edge">
<title>Node15&#45;&gt;Node18</title>
<g id="a_edge28_Node000015_Node000018"><a xlink:title=" ">
<path fill="none" stroke="#63b8ff" d="M836.99,-372.01C883.34,-361.18 939.08,-348.15 983.97,-337.67"/>
<polygon fill="#63b8ff" stroke="#63b8ff" points="836.19,-368.6 827.25,-374.28 837.78,-375.42 836.19,-368.6"/>
</a>
</g>
</g>
<!-- Node20 -->
<g id="Node000020" class="node">
<title>Node20</title>
<g id="a_Node000020"><a xlink:href="solver__base_8cc.html" target="_top" xlink:title=" ">
<polygon fill="white" stroke="#666666" points="966,-338 802,-338 802,-297 966,-297 966,-338"/>
<text text-anchor="start" x="810" y="-326" font-family="Helvetica,sans-Serif" font-size="10.00">/home/runner/work/phaseField</text>
<text text-anchor="start" x="810" y="-315" font-family="Helvetica,sans-Serif" font-size="10.00">/phaseField/src/solvers/solver</text>
<text text-anchor="middle" x="884" y="-304" font-family="Helvetica,sans-Serif" font-size="10.00">_base.cc</text>
</a>
</g>
</g>
<!-- Node15&#45;&gt;Node20 -->
<g id="edge37_Node000015_Node000020" class="edge">
<title>Node15&#45;&gt;Node20</title>
<g id="a_edge37_Node000015_Node000020"><a xlink:title=" ">
<path fill="none" stroke="#63b8ff" d="M790.05,-369.19C808.65,-359.15 829.94,-347.67 847.54,-338.17"/>
<polygon fill="#63b8ff" stroke="#63b8ff" points="788.3,-366.16 781.16,-373.99 791.62,-372.32 788.3,-366.16"/>
</a>
</g>
</g>
<!-- Node16&#45;&gt;Node6 -->
<g id="edge23_Node000016_Node000006" class="edge">
<title>Node16&#45;&gt;Node6</title>
<g id="a_edge23_Node000016_Node000006"><a xlink:title=" ">
<path fill="none" stroke="#63b8ff" d="M681.26,-137.09C695.6,-127.32 711.72,-116.32 725.15,-107.17"/>
<polygon fill="#63b8ff" stroke="#63b8ff" points="678.9,-134.47 672.61,-142.99 682.85,-140.25 678.9,-134.47"/>
</a>
</g>
</g>
<!-- Node17&#45;&gt;Node6 -->
<g id="edge25_Node000017_Node000006" class="edge">
<title>Node17&#45;&gt;Node6</title>
<g id="a_edge25_Node000017_Node000006"><a xlink:title=" ">
<path fill="none" stroke="#63b8ff" d="M723.38,-210.75C727.65,-202.33 731.92,-192.97 735,-184 743.87,-158.16 749.08,-126.93 751.73,-107.13"/>
<polygon fill="#63b8ff" stroke="#63b8ff" points="720.18,-209.3 718.61,-219.78 726.37,-212.57 720.18,-209.3"/>
</a>
</g>
</g>
<!-- Node18&#45;&gt;Node2 -->
<g id="edge30_Node000018_Node000002" class="edge">
<title>Node18&#45;&gt;Node2</title>
<g id="a_edge30_Node000018_Node000002"><a xlink:title=" ">
<path fill="none" stroke="#63b8ff" d="M1105.44,-291.64C1121.16,-281.74 1138.99,-270.5 1153.79,-261.17"/>
<polygon fill="#63b8ff" stroke="#63b8ff" points="1103.55,-288.7 1096.96,-296.99 1107.28,-294.62 1103.55,-288.7"/>
</a>
</g>
</g>
<!-- Node18&#45;&gt;Node3 -->
<g id="edge31_Node000018_Node000003" class="edge">
<title>Node18&#45;&gt;Node3</title>
<g id="a_edge31_Node000018_Node000003"><a xlink:title=" ">
<path fill="none" stroke="#63b8ff" d="M1154.09,-294.55C1196.67,-283.94 1247.34,-271.31 1288.57,-261.04"/>
<polygon fill="#63b8ff" stroke="#63b8ff" points="1153.16,-291.18 1144.3,-296.99 1154.85,-297.97 1153.16,-291.18"/>
</a>
</g>
</g>
<!-- Node18&#45;&gt;Node4 -->
<g id="edge32_Node000018_Node000004" class="edge">
<title>Node18&#45;&gt;Node4</title>
<g id="a_edge32_Node000018_Node000004"><a xlink:title=" ">
<path fill="none" stroke="#63b8ff" d="M1073.22,-287.24C1078.3,-267.91 1085.66,-242.14 1094,-220 1098.58,-207.85 1104.7,-194.68 1109.85,-184.21"/>
<polygon fill="#63b8ff" stroke="#63b8ff" points="1069.81,-286.43 1070.71,-296.99 1076.59,-288.18 1069.81,-286.43"/>
</a>
</g>
</g>
<!-- Node18&#45;&gt;Node5 -->
<g id="edge33_Node000018_Node000005" class="edge">
<title>Node18&#45;&gt;Node5</title>
<g id="a_edge33_Node000018_Node000005"><a xlink:title=" ">
<path fill="none" stroke="#63b8ff" d="M974.22,-294.85C928.35,-283.17 881.06,-269.45 874,-261 856.17,-239.68 857.17,-205.75 860.14,-184.33"/>
<polygon fill="#63b8ff" stroke="#63b8ff" points="973.42,-298.26 983.98,-297.31 975.14,-291.47 973.42,-298.26"/>
</a>
</g>
</g>
<!-- Node18&#45;&gt;Node17 -->
<g id="edge29_Node000018_Node000017" class="edge">
<title>Node18&#45;&gt;Node17</title>
<g id="a_edge29_Node000018_Node000017"><a xlink:title=" ">
<path fill="none" stroke="#63b8ff" d="M973.69,-296.73C906.13,-282.51 839.7,-268.77 789.14,-258.36"/>
<polygon fill="#63b8ff" stroke="#63b8ff" points="973.16,-300.19 983.67,-298.83 974.6,-293.34 973.16,-300.19"/>
</a>
</g>
</g>
<!-- Node19 -->
<g id="Node000019" class="node">
<title>Node19</title>
<g id="a_Node000019"><a xlink:href="mf__operator_8cc.html" target="_top" xlink:title=" ">
<polygon fill="white" stroke="#666666" points="1047,-261 883,-261 883,-220 1047,-220 1047,-261"/>
<text text-anchor="start" x="891" y="-249" font-family="Helvetica,sans-Serif" font-size="10.00">/home/runner/work/phaseField</text>
<text text-anchor="start" x="891" y="-238" font-family="Helvetica,sans-Serif" font-size="10.00">/phaseField/src/solvers/mf</text>
<text text-anchor="middle" x="965" y="-227" font-family="Helvetica,sans-Serif" font-size="10.00">_operator.cc</text>
</a>
</g>
</g>
<!-- Node18&#45;&gt;Node19 -->
<g id="edge34_Node000018_Node000019" class="edge">
<title>Node18&#45;&gt;Node19</title>
<g id="a_edge34_Node000018_Node000019"><a xlink:title=" ">
<path fill="none" stroke="#63b8ff" d="M1031.41,-290.82C1018.35,-281.11 1003.7,-270.24 991.49,-261.17"/>
<polygon fill="#63b8ff" stroke="#63b8ff" points="1029.61,-293.84 1039.73,-296.99 1033.79,-288.22 1029.61,-293.84"/>
</a>
</g>
</g>
</g>
</svg>
