<?xml version="1.0" encoding="UTF-8" standalone="no"?>
<!DOCTYPE svg PUBLIC "-//W3C//DTD SVG 1.1//EN"
 "http://www.w3.org/Graphics/SVG/1.1/DTD/svg11.dtd">
<!-- Generated by graphviz version 12.2.1 (20241206.2353)
 -->
<!-- Title: include/prismspf/user_inputs/io_parameters.h Pages: 1 -->
<svg width="2507pt" height="307pt"
 viewBox="0.00 0.00 2507.25 306.75" xmlns="http://www.w3.org/2000/svg" xmlns:xlink="http://www.w3.org/1999/xlink">
<g id="graph0" class="graph" transform="scale(1 1) rotate(0) translate(4 302.75)">
<title>include/prismspf/user_inputs/io_parameters.h</title>
<!-- Node1 -->
<g id="Node000001" class="node">
<title>Node1</title>
<g id="a_Node000001"><a xlink:title=" ">
<polygon fill="#999999" stroke="#666666" points="930.88,-298.75 797.12,-298.75 797.12,-265.25 930.88,-265.25 930.88,-298.75"/>
<text text-anchor="start" x="805.12" y="-285.25" font-family="Helvetica,sans-Serif" font-size="10.00">include/prismspf/user</text>
<text text-anchor="middle" x="864" y="-272.5" font-family="Helvetica,sans-Serif" font-size="10.00">_inputs/io_parameters.h</text>
</a>
</g>
</g>
<!-- Node2 -->
<g id="Node000002" class="node">
<title>Node2</title>
<g id="a_Node000002"><a xlink:title=" ">
<polygon fill="#e0e0e0" stroke="#999999" points="118,-229.25 0,-229.25 0,-195.75 118,-195.75 118,-229.25"/>
<text text-anchor="start" x="8" y="-215.75" font-family="Helvetica,sans-Serif" font-size="10.00">deal.II/base/data_out</text>
<text text-anchor="middle" x="59" y="-203" font-family="Helvetica,sans-Serif" font-size="10.00">_base.h</text>
</a>
</g>
</g>
<!-- Node1&#45;&gt;Node2 -->
<g id="edge1_Node000001_Node000002" class="edge">
<title>Node1&#45;&gt;Node2</title>
<g id="a_edge1_Node000001_Node000002"><a xlink:title=" ">
<path fill="none" stroke="#63b8ff" d="M796.8,-279.82C668.67,-276.79 380.58,-266.3 129.41,-229.46"/>
<polygon fill="#63b8ff" stroke="#63b8ff" points="130.14,-226.03 119.73,-228.02 129.11,-232.95 130.14,-226.03"/>
</a>
</g>
</g>
<!-- Node3 -->
<g id="Node000003" class="node">
<title>Node3</title>
<g id="a_Node000003"><a xlink:title=" ">
<polygon fill="#e0e0e0" stroke="#999999" points="257.5,-222.88 136.5,-222.88 136.5,-202.12 257.5,-202.12 257.5,-222.88"/>
<text text-anchor="middle" x="197" y="-209.38" font-family="Helvetica,sans-Serif" font-size="10.00">deal.II/base/utilities.h</text>
</a>
</g>
</g>
<!-- Node1&#45;&gt;Node3 -->
<g id="edge2_Node000001_Node000003" class="edge">
<title>Node1&#45;&gt;Node3</title>
<g id="a_edge2_Node000001_Node000003"><a xlink:title=" ">
<path fill="none" stroke="#63b8ff" d="M796.82,-278.21C685.79,-272.93 457.23,-259.2 266,-229.25 259.85,-228.29 253.44,-227.09 247.11,-225.79"/>
<polygon fill="#63b8ff" stroke="#63b8ff" points="247.86,-222.37 237.34,-223.68 246.38,-229.21 247.86,-222.37"/>
</a>
</g>
</g>
<!-- Node4 -->
<g id="Node000004" class="node">
<title>Node4</title>
<g id="a_Node000004"><a xlink:href="conditional__ostreams_8h.html" target="_top" xlink:title=" ">
<polygon fill="white" stroke="#666666" points="414.88,-229.25 275.12,-229.25 275.12,-195.75 414.88,-195.75 414.88,-229.25"/>
<text text-anchor="start" x="283.12" y="-215.75" font-family="Helvetica,sans-Serif" font-size="10.00">prismspf/core/conditional</text>
<text text-anchor="middle" x="345" y="-203" font-family="Helvetica,sans-Serif" font-size="10.00">_ostreams.h</text>
</a>
</g>
</g>
<!-- Node1&#45;&gt;Node4 -->
<g id="edge3_Node000001_Node000004" class="edge">
<title>Node1&#45;&gt;Node4</title>
<g id="a_edge3_Node000001_Node000004"><a xlink:title=" ">
<path fill="none" stroke="#63b8ff" d="M796.74,-274.41C711.11,-265.69 558.68,-249.1 429,-229.25 428.15,-229.12 427.29,-228.99 426.43,-228.85"/>
<polygon fill="#63b8ff" stroke="#63b8ff" points="426.99,-225.4 416.56,-227.24 425.87,-232.31 426.99,-225.4"/>
</a>
</g>
</g>
<!-- Node6 -->
<g id="Node000006" class="node">
<title>Node6</title>
<g id="a_Node000006"><a xlink:title=" ">
<polygon fill="#e0e0e0" stroke="#999999" points="617,-20.75 517,-20.75 517,0 617,0 617,-20.75"/>
<text text-anchor="middle" x="567" y="-7.25" font-family="Helvetica,sans-Serif" font-size="10.00">prismspf/config.h</text>
</a>
</g>
</g>
<!-- Node1&#45;&gt;Node6 -->
<g id="edge41_Node000001_Node000006" class="edge">
<title>Node1&#45;&gt;Node6</title>
<g id="a_edge41_Node000001_Node000006"><a xlink:title=" ">
<path fill="none" stroke="#63b8ff" d="M796.71,-278C688.81,-268.93 482.54,-232.85 417,-90.25 410.78,-76.72 408.13,-68.71 417,-56.75 427.95,-42 469.08,-30.19 505.51,-22.31"/>
<polygon fill="#63b8ff" stroke="#63b8ff" points="506.06,-25.77 515.14,-20.31 504.64,-18.92 506.06,-25.77"/>
</a>
</g>
</g>
<!-- Node7 -->
<g id="Node000007" class="node">
<title>Node7</title>
<g id="a_Node000007"><a xlink:href="exceptions_8h.html" target="_top" xlink:title=" ">
<polygon fill="white" stroke="#666666" points="818,-222.88 670,-222.88 670,-202.12 818,-202.12 818,-222.88"/>
<text text-anchor="middle" x="744" y="-209.38" font-family="Helvetica,sans-Serif" font-size="10.00">prismspf/core/exceptions.h</text>
</a>
</g>
</g>
<!-- Node1&#45;&gt;Node7 -->
<g id="edge6_Node000001_Node000007" class="edge">
<title>Node1&#45;&gt;Node7</title>
<g id="a_edge6_Node000001_Node000007"><a xlink:title=" ">
<path fill="none" stroke="#63b8ff" d="M835.26,-264.83C815.83,-253.91 790.35,-239.57 771.25,-228.83"/>
<polygon fill="#63b8ff" stroke="#63b8ff" points="773.12,-225.87 762.69,-224.01 769.69,-231.97 773.12,-225.87"/>
</a>
</g>
</g>
<!-- Node9 -->
<g id="Node000009" class="node">
<title>Node9</title>
<g id="a_Node000009"><a xlink:href="types_8h.html" target="_top" xlink:title=" ">
<polygon fill="white" stroke="#666666" points="677.88,-153.38 556.12,-153.38 556.12,-132.62 677.88,-132.62 677.88,-153.38"/>
<text text-anchor="middle" x="617" y="-139.88" font-family="Helvetica,sans-Serif" font-size="10.00">prismspf/core/types.h</text>
</a>
</g>
</g>
<!-- Node1&#45;&gt;Node9 -->
<g id="edge18_Node000001_Node000009" class="edge">
<title>Node1&#45;&gt;Node9</title>
<g id="a_edge18_Node000001_Node000009"><a xlink:title=" ">
<path fill="none" stroke="#63b8ff" d="M797.05,-277.79C754.18,-272.63 699.57,-259.93 661,-229.25 640.48,-212.93 628.56,-184.44 622.42,-164.93"/>
<polygon fill="#63b8ff" stroke="#63b8ff" points="625.79,-163.97 619.67,-155.32 619.06,-165.9 625.79,-163.97"/>
</a>
</g>
</g>
<!-- Node11 -->
<g id="Node000011" class="node">
<title>Node11</title>
<g id="a_Node000011"><a xlink:href="type__enums_8h.html" target="_top" xlink:title=" ">
<polygon fill="white" stroke="#666666" points="533.75,-90.25 426.25,-90.25 426.25,-56.75 533.75,-56.75 533.75,-90.25"/>
<text text-anchor="start" x="434.25" y="-76.75" font-family="Helvetica,sans-Serif" font-size="10.00">prismspf/core/type</text>
<text text-anchor="middle" x="480" y="-64" font-family="Helvetica,sans-Serif" font-size="10.00">_enums.h</text>
</a>
</g>
</g>
<!-- Node1&#45;&gt;Node11 -->
<g id="edge17_Node000001_Node000011" class="edge">
<title>Node1&#45;&gt;Node11</title>
<g id="a_edge17_Node000001_Node000011"><a xlink:title=" ">
<path fill="none" stroke="#63b8ff" d="M796.78,-274.38C748.94,-267.71 684.15,-254.6 632,-229.25 571.32,-199.76 521.13,-135.75 496.46,-99.99"/>
<polygon fill="#63b8ff" stroke="#63b8ff" points="499.54,-98.29 491.04,-91.95 493.73,-102.2 499.54,-98.29"/>
</a>
</g>
</g>
<!-- Node13 -->
<g id="Node000013" class="node">
<title>Node13</title>
<g id="a_Node000013"><a xlink:title=" ">
<polygon fill="#e0e0e0" stroke="#999999" points="785.88,-20.75 742.12,-20.75 742.12,0 785.88,0 785.88,-20.75"/>
<text text-anchor="middle" x="764" y="-7.25" font-family="Helvetica,sans-Serif" font-size="10.00">string</text>
</a>
</g>
</g>
<!-- Node1&#45;&gt;Node13 -->
<g id="edge45_Node000001_Node000013" class="edge">
<title>Node1&#45;&gt;Node13</title>
<g id="a_edge45_Node000001_Node000013"><a xlink:title=" ">
<path fill="none" stroke="#63b8ff" d="M866.4,-264.95C870,-234.98 873.63,-169.62 845,-126.25 827.45,-99.66 802.04,-115.8 783,-90.25 770.46,-73.43 766.08,-49.48 764.61,-32.39"/>
<polygon fill="#63b8ff" stroke="#63b8ff" points="768.12,-32.43 764.06,-22.64 761.13,-32.82 768.12,-32.43"/>
</a>
</g>
</g>
<!-- Node15 -->
<g id="Node000015" class="node">
<title>Node15</title>
<g id="a_Node000015"><a xlink:title=" ">
<polygon fill="#e0e0e0" stroke="#999999" points="1093.75,-229.25 968.25,-229.25 968.25,-195.75 1093.75,-195.75 1093.75,-229.25"/>
<text text-anchor="start" x="976.25" y="-215.75" font-family="Helvetica,sans-Serif" font-size="10.00">prismspf/core/variable</text>
<text text-anchor="middle" x="1031" y="-203" font-family="Helvetica,sans-Serif" font-size="10.00">_attributes.h</text>
</a>
</g>
</g>
<!-- Node1&#45;&gt;Node15 -->
<g id="edge19_Node000001_Node000015" class="edge">
<title>Node1&#45;&gt;Node15</title>
<g id="a_edge19_Node000001_Node000015"><a xlink:title=" ">
<path fill="none" stroke="#63b8ff" d="M904,-264.83C926.95,-255.56 955.98,-243.82 980.49,-233.92"/>
<polygon fill="#63b8ff" stroke="#63b8ff" points="981.67,-237.21 989.63,-230.22 979.05,-230.72 981.67,-237.21"/>
</a>
</g>
</g>
<!-- Node16 -->
<g id="Node000016" class="node">
<title>Node16</title>
<g id="a_Node000016"><a xlink:title=" ">
<polygon fill="#e0e0e0" stroke="#999999" points="1230,-229.25 1112,-229.25 1112,-195.75 1230,-195.75 1230,-229.25"/>
<text text-anchor="start" x="1120" y="-215.75" font-family="Helvetica,sans-Serif" font-size="10.00">prismspf/user_inputs</text>
<text text-anchor="middle" x="1171" y="-203" font-family="Helvetica,sans-Serif" font-size="10.00">/parameter_base.h</text>
</a>
</g>
</g>
<!-- Node1&#45;&gt;Node16 -->
<g id="edge20_Node000001_Node000016" class="edge">
<title>Node1&#45;&gt;Node16</title>
<g id="a_edge20_Node000001_Node000016"><a xlink:title=" ">
<path fill="none" stroke="#63b8ff" d="M931.28,-266.7C976.58,-257.01 1037.95,-243.77 1100.76,-229.74"/>
<polygon fill="#63b8ff" stroke="#63b8ff" points="1101.2,-233.22 1110.2,-227.62 1099.67,-226.39 1101.2,-233.22"/>
</a>
</g>
</g>
<!-- Node17 -->
<g id="Node000017" class="node">
<title>Node17</title>
<g id="a_Node000017"><a xlink:href="utilities_8h.html" target="_top" xlink:title=" ">
<polygon fill="white" stroke="#666666" points="1348.25,-159.75 1249.75,-159.75 1249.75,-126.25 1348.25,-126.25 1348.25,-159.75"/>
<text text-anchor="start" x="1257.75" y="-146.25" font-family="Helvetica,sans-Serif" font-size="10.00">prismspf/utilities</text>
<text text-anchor="middle" x="1299" y="-133.5" font-family="Helvetica,sans-Serif" font-size="10.00">/utilities.h</text>
</a>
</g>
</g>
<!-- Node1&#45;&gt;Node17 -->
<g id="edge21_Node000001_Node000017" class="edge">
<title>Node1&#45;&gt;Node17</title>
<g id="a_edge21_Node000001_Node000017"><a xlink:title=" ">
<path fill="none" stroke="#63b8ff" d="M870.76,-265.06C880.08,-245.24 898.84,-212.03 926,-195.75 977.36,-164.97 1146.17,-151.74 1238.07,-146.71"/>
<polygon fill="#63b8ff" stroke="#63b8ff" points="1238.12,-150.21 1247.92,-146.19 1237.75,-143.22 1238.12,-150.21"/>
</a>
</g>
</g>
<!-- Node30 -->
<g id="Node000030" class="node">
<title>Node30</title>
<g id="a_Node000030"><a xlink:title=" ">
<polygon fill="#e0e0e0" stroke="#999999" points="2499.25,-83.88 2406.75,-83.88 2406.75,-63.12 2499.25,-63.12 2499.25,-83.88"/>
<text text-anchor="middle" x="2453" y="-70.38" font-family="Helvetica,sans-Serif" font-size="10.00">unordered_map</text>
</a>
</g>
</g>
<!-- Node1&#45;&gt;Node30 -->
<g id="edge46_Node000001_Node000030" class="edge">
<title>Node1&#45;&gt;Node30</title>
<g id="a_edge46_Node000001_Node000030"><a xlink:title=" ">
<path fill="none" stroke="#63b8ff" d="M883.14,-264.93C895.03,-254.84 910.56,-241.46 924,-229.25 939.94,-214.77 939.32,-204.5 959,-195.75 995.62,-179.47 2358.54,-97.27 2398,-90.25 2402.62,-89.43 2407.41,-88.37 2412.15,-87.2"/>
<polygon fill="#63b8ff" stroke="#63b8ff" points="2412.78,-90.65 2421.54,-84.69 2410.98,-83.89 2412.78,-90.65"/>
</a>
</g>
</g>
<!-- Node31 -->
<g id="Node000031" class="node">
<title>Node31</title>
<g id="a_Node000031"><a xlink:title=" ">
<polygon fill="#e0e0e0" stroke="#999999" points="1297.5,-222.88 1248.5,-222.88 1248.5,-202.12 1297.5,-202.12 1297.5,-222.88"/>
<text text-anchor="middle" x="1273" y="-209.38" font-family="Helvetica,sans-Serif" font-size="10.00">climits</text>
</a>
</g>
</g>
<!-- Node1&#45;&gt;Node31 -->
<g id="edge42_Node000001_Node000031" class="edge">
<title>Node1&#45;&gt;Node31</title>
<g id="a_edge42_Node000001_Node000031"><a xlink:title=" ">
<path fill="none" stroke="#63b8ff" d="M931.3,-277.72C1007.34,-272.65 1134.16,-260.02 1239,-229.25 1240.6,-228.78 1242.22,-228.25 1243.84,-227.67"/>
<polygon fill="#63b8ff" stroke="#63b8ff" points="1245.01,-230.97 1252.92,-223.93 1242.34,-224.5 1245.01,-230.97"/>
</a>
</g>
</g>
<!-- Node32 -->
<g id="Node000032" class="node">
<title>Node32</title>
<g id="a_Node000032"><a xlink:title=" ">
<polygon fill="#e0e0e0" stroke="#999999" points="1378.62,-222.88 1315.38,-222.88 1315.38,-202.12 1378.62,-202.12 1378.62,-222.88"/>
<text text-anchor="middle" x="1347" y="-209.38" font-family="Helvetica,sans-Serif" font-size="10.00">execution</text>
</a>
</g>
</g>
<!-- Node1&#45;&gt;Node32 -->
<g id="edge43_Node000001_Node000032" class="edge">
<title>Node1&#45;&gt;Node32</title>
<g id="a_edge43_Node000001_Node000032"><a xlink:title=" ">
<path fill="none" stroke="#63b8ff" d="M931.01,-278.56C1018.62,-274.15 1176.31,-262.02 1307,-229.25 1309.41,-228.65 1311.87,-227.93 1314.33,-227.15"/>
<polygon fill="#63b8ff" stroke="#63b8ff" points="1315.24,-230.54 1323.48,-223.88 1312.89,-223.94 1315.24,-230.54"/>
</a>
</g>
</g>
<!-- Node33 -->
<g id="Node000033" class="node">
<title>Node33</title>
<g id="a_Node000033"><a xlink:title=" ">
<polygon fill="#e0e0e0" stroke="#999999" points="1427.5,-222.88 1396.5,-222.88 1396.5,-202.12 1427.5,-202.12 1427.5,-222.88"/>
<text text-anchor="middle" x="1412" y="-209.38" font-family="Helvetica,sans-Serif" font-size="10.00">set</text>
</a>
</g>
</g>
<!-- Node1&#45;&gt;Node33 -->
<g id="edge44_Node000001_Node000033" class="edge">
<title>Node1&#45;&gt;Node33</title>
<g id="a_edge44_Node000001_Node000033"><a xlink:title=" ">
<path fill="none" stroke="#63b8ff" d="M931.31,-278.35C1053.2,-272.9 1305.47,-258.41 1388,-229.25 1388.65,-229.02 1389.29,-228.77 1389.94,-228.51"/>
<polygon fill="#63b8ff" stroke="#63b8ff" points="1391.48,-231.65 1398.57,-223.78 1388.12,-225.51 1391.48,-231.65"/>
</a>
</g>
</g>
<!-- Node5 -->
<g id="Node000005" class="node">
<title>Node5</title>
<g id="a_Node000005"><a xlink:title=" ">
<polygon fill="#e0e0e0" stroke="#999999" points="331.62,-159.75 202.38,-159.75 202.38,-126.25 331.62,-126.25 331.62,-159.75"/>
<text text-anchor="start" x="210.38" y="-146.25" font-family="Helvetica,sans-Serif" font-size="10.00">deal.II/base/conditional</text>
<text text-anchor="middle" x="267" y="-133.5" font-family="Helvetica,sans-Serif" font-size="10.00">_ostream.h</text>
</a>
</g>
</g>
<!-- Node4&#45;&gt;Node5 -->
<g id="edge4_Node000004_Node000005" class="edge">
<title>Node4&#45;&gt;Node5</title>
<g id="a_edge4_Node000004_Node000005"><a xlink:title=" ">
<path fill="none" stroke="#63b8ff" d="M326.52,-195.5C316.87,-187.16 304.89,-176.79 294.21,-167.55"/>
<polygon fill="#63b8ff" stroke="#63b8ff" points="296.62,-165 286.77,-161.11 292.04,-170.3 296.62,-165"/>
</a>
</g>
</g>
<!-- Node4&#45;&gt;Node6 -->
<g id="edge5_Node000004_Node000006" class="edge">
<title>Node4&#45;&gt;Node6</title>
<g id="a_edge5_Node000004_Node000006"><a xlink:title=" ">
<path fill="none" stroke="#63b8ff" d="M344.05,-195.34C343.16,-163.99 345.92,-94.68 384,-56.75 392.84,-47.94 456.06,-33.53 505.75,-23.32"/>
<polygon fill="#63b8ff" stroke="#63b8ff" points="506.18,-26.8 515.28,-21.38 504.79,-19.94 506.18,-26.8"/>
</a>
</g>
</g>
<!-- Node7&#45;&gt;Node6 -->
<g id="edge15_Node000007_Node000006" class="edge">
<title>Node7&#45;&gt;Node6</title>
<g id="a_edge15_Node000007_Node000006"><a xlink:title=" ">
<path fill="none" stroke="#63b8ff" d="M744.7,-201.67C746.05,-174.73 746,-98.95 707,-56.75 686.8,-34.9 656.01,-23.54 628.44,-17.65"/>
<polygon fill="#63b8ff" stroke="#63b8ff" points="629.23,-14.23 618.75,-15.79 627.92,-21.11 629.23,-14.23"/>
</a>
</g>
</g>
<!-- Node8 -->
<g id="Node000008" class="node">
<title>Node8</title>
<g id="a_Node000008"><a xlink:title=" ">
<polygon fill="#e0e0e0" stroke="#999999" points="929.75,-83.88 792.25,-83.88 792.25,-63.12 929.75,-63.12 929.75,-83.88"/>
<text text-anchor="middle" x="861" y="-70.38" font-family="Helvetica,sans-Serif" font-size="10.00">deal.II/base/exceptions.h</text>
</a>
</g>
</g>
<!-- Node7&#45;&gt;Node8 -->
<g id="edge7_Node000007_Node000008" class="edge">
<title>Node7&#45;&gt;Node8</title>
<g id="a_edge7_Node000007_Node000008"><a xlink:title=" ">
<path fill="none" stroke="#63b8ff" d="M743.65,-201.72C743.54,-184.64 745.61,-149.03 763,-126.25 776.34,-108.78 797.28,-96.6 816.39,-88.47"/>
<polygon fill="#63b8ff" stroke="#63b8ff" points="817.64,-91.74 825.65,-84.8 815.06,-85.23 817.64,-91.74"/>
</a>
</g>
</g>
<!-- Node7&#45;&gt;Node9 -->
<g id="edge8_Node000007_Node000009" class="edge">
<title>Node7&#45;&gt;Node9</title>
<g id="a_edge8_Node000007_Node000009"><a xlink:title=" ">
<path fill="none" stroke="#63b8ff" d="M725.53,-201.68C704.56,-190.54 670.08,-172.21 645.62,-159.21"/>
<polygon fill="#63b8ff" stroke="#63b8ff" points="647.3,-156.14 636.83,-154.54 644.01,-162.32 647.3,-156.14"/>
</a>
</g>
</g>
<!-- Node14 -->
<g id="Node000014" class="node">
<title>Node14</title>
<g id="a_Node000014"><a xlink:title=" ">
<polygon fill="#e0e0e0" stroke="#999999" points="836,-153.38 772,-153.38 772,-132.62 836,-132.62 836,-153.38"/>
<text text-anchor="middle" x="804" y="-139.88" font-family="Helvetica,sans-Serif" font-size="10.00">exception</text>
</a>
</g>
</g>
<!-- Node7&#45;&gt;Node14 -->
<g id="edge16_Node000007_Node000014" class="edge">
<title>Node7&#45;&gt;Node14</title>
<g id="a_edge16_Node000007_Node000014"><a xlink:title=" ">
<path fill="none" stroke="#63b8ff" d="M752.6,-201.83C761.77,-191.5 776.53,-174.9 787.88,-162.13"/>
<polygon fill="#63b8ff" stroke="#63b8ff" points="790.39,-164.58 794.41,-154.78 785.15,-159.93 790.39,-164.58"/>
</a>
</g>
</g>
<!-- Node9&#45;&gt;Node6 -->
<g id="edge14_Node000009_Node000006" class="edge">
<title>Node9&#45;&gt;Node6</title>
<g id="a_edge14_Node000009_Node000006"><a xlink:title=" ">
<path fill="none" stroke="#63b8ff" d="M608.43,-132.45C600.08,-122.6 587.69,-106.43 581,-90.25 573.33,-71.69 569.86,-48.97 568.29,-32.69"/>
<polygon fill="#63b8ff" stroke="#63b8ff" points="571.78,-32.43 567.51,-22.73 564.8,-32.97 571.78,-32.43"/>
</a>
</g>
</g>
<!-- Node10 -->
<g id="Node000010" class="node">
<title>Node10</title>
<g id="a_Node000010"><a xlink:title=" ">
<polygon fill="#e0e0e0" stroke="#999999" points="698.12,-90.25 589.88,-90.25 589.88,-56.75 698.12,-56.75 698.12,-90.25"/>
<text text-anchor="start" x="597.88" y="-76.75" font-family="Helvetica,sans-Serif" font-size="10.00">deal.II/matrix_free</text>
<text text-anchor="middle" x="644" y="-64" font-family="Helvetica,sans-Serif" font-size="10.00">/evaluation_flags.h</text>
</a>
</g>
</g>
<!-- Node9&#45;&gt;Node10 -->
<g id="edge9_Node000009_Node000010" class="edge">
<title>Node9&#45;&gt;Node10</title>
<g id="a_edge9_Node000009_Node000010"><a xlink:title=" ">
<path fill="none" stroke="#63b8ff" d="M620.87,-132.33C624.13,-124.18 628.95,-112.13 633.35,-101.13"/>
<polygon fill="#63b8ff" stroke="#63b8ff" points="636.51,-102.66 636.97,-92.07 630.01,-100.06 636.51,-102.66"/>
</a>
</g>
</g>
<!-- Node9&#45;&gt;Node11 -->
<g id="edge10_Node000009_Node000011" class="edge">
<title>Node9&#45;&gt;Node11</title>
<g id="a_edge10_Node000009_Node000011"><a xlink:title=" ">
<path fill="none" stroke="#63b8ff" d="M597.08,-132.18C577.79,-122.68 547.92,-107.97 523.18,-95.78"/>
<polygon fill="#63b8ff" stroke="#63b8ff" points="524.81,-92.68 514.29,-91.4 521.72,-98.96 524.81,-92.68"/>
</a>
</g>
</g>
<!-- Node11&#45;&gt;Node6 -->
<g id="edge11_Node000011_Node000006" class="edge">
<title>Node11&#45;&gt;Node6</title>
<g id="a_edge11_Node000011_Node000006"><a xlink:title=" ">
<path fill="none" stroke="#63b8ff" d="M502.86,-56.44C515.41,-47.62 530.95,-36.7 543.59,-27.82"/>
<polygon fill="#63b8ff" stroke="#63b8ff" points="545.58,-30.7 551.75,-22.09 541.56,-24.97 545.58,-30.7"/>
</a>
</g>
</g>
<!-- Node12 -->
<g id="Node000012" class="node">
<title>Node12</title>
<g id="a_Node000012"><a xlink:title=" ">
<polygon fill="#e0e0e0" stroke="#999999" points="498.5,-20.75 449.5,-20.75 449.5,0 498.5,0 498.5,-20.75"/>
<text text-anchor="middle" x="474" y="-7.25" font-family="Helvetica,sans-Serif" font-size="10.00">cstdint</text>
</a>
</g>
</g>
<!-- Node11&#45;&gt;Node12 -->
<g id="edge12_Node000011_Node000012" class="edge">
<title>Node11&#45;&gt;Node12</title>
<g id="a_edge12_Node000011_Node000012"><a xlink:title=" ">
<path fill="none" stroke="#63b8ff" d="M478.42,-56.44C477.7,-49.1 476.84,-40.32 476.07,-32.46"/>
<polygon fill="#63b8ff" stroke="#63b8ff" points="479.57,-32.33 475.11,-22.72 472.61,-33.02 479.57,-32.33"/>
</a>
</g>
</g>
<!-- Node11&#45;&gt;Node13 -->
<g id="edge13_Node000011_Node000013" class="edge">
<title>Node11&#45;&gt;Node13</title>
<g id="a_edge13_Node000011_Node000013"><a xlink:title=" ">
<path fill="none" stroke="#63b8ff" d="M534.09,-60.86C592.07,-48.38 682.3,-28.96 730.68,-18.55"/>
<polygon fill="#63b8ff" stroke="#63b8ff" points="731.23,-22.01 740.27,-16.48 729.76,-15.16 731.23,-22.01"/>
</a>
</g>
</g>
<!-- Node17&#45;&gt;Node6 -->
<g id="edge37_Node000017_Node000006" class="edge">
<title>Node17&#45;&gt;Node6</title>
<g id="a_edge37_Node000017_Node000006"><a xlink:title=" ">
<path fill="none" stroke="#63b8ff" d="M1249.37,-137.96C1170.21,-130.89 1019.47,-114.66 972,-90.25 953.41,-80.69 957.75,-65.97 939,-56.75 885.81,-30.59 719.89,-18.68 628.65,-13.99"/>
<polygon fill="#63b8ff" stroke="#63b8ff" points="629.04,-10.51 618.88,-13.5 628.69,-17.5 629.04,-10.51"/>
</a>
</g>
</g>
<!-- Node17&#45;&gt;Node8 -->
<g id="edge23_Node000017_Node000008" class="edge">
<title>Node17&#45;&gt;Node8</title>
<g id="a_edge23_Node000017_Node000008"><a xlink:title=" ">
<path fill="none" stroke="#63b8ff" d="M1249.51,-135.47C1180.81,-126.24 1052.72,-108.48 944,-90.25 936.89,-89.06 929.45,-87.74 922.08,-86.4"/>
<polygon fill="#63b8ff" stroke="#63b8ff" points="922.93,-83 912.46,-84.62 921.66,-89.88 922.93,-83"/>
</a>
</g>
</g>
<!-- Node17&#45;&gt;Node10 -->
<g id="edge30_Node000017_Node000010" class="edge">
<title>Node17&#45;&gt;Node10</title>
<g id="a_edge30_Node000017_Node000010"><a xlink:title=" ">
<path fill="none" stroke="#63b8ff" d="M1249.53,-137.25C1157.6,-128.38 954.21,-108.53 783,-90.25 759.14,-87.7 732.99,-84.77 709.87,-82.14"/>
<polygon fill="#63b8ff" stroke="#63b8ff" points="710.28,-78.66 699.95,-81.01 709.49,-85.62 710.28,-78.66"/>
</a>
</g>
</g>
<!-- Node17&#45;&gt;Node13 -->
<g id="edge38_Node000017_Node000013" class="edge">
<title>Node17&#45;&gt;Node13</title>
<g id="a_edge38_Node000017_Node000013"><a xlink:title=" ">
<path fill="none" stroke="#63b8ff" d="M1249.42,-140.11C1191.02,-136.3 1092.19,-124.82 1015,-90.25 992.89,-80.35 993.94,-67.03 972,-56.75 914.31,-29.71 840,-18.51 797.61,-14.08"/>
<polygon fill="#63b8ff" stroke="#63b8ff" points="798.08,-10.61 787.79,-13.13 797.41,-17.58 798.08,-10.61"/>
</a>
</g>
</g>
<!-- Node18 -->
<g id="Node000018" class="node">
<title>Node18</title>
<g id="a_Node000018"><a xlink:title=" ">
<polygon fill="#e0e0e0" stroke="#999999" points="1137.75,-83.88 1024.25,-83.88 1024.25,-63.12 1137.75,-63.12 1137.75,-83.88"/>
<text text-anchor="middle" x="1081" y="-70.38" font-family="Helvetica,sans-Serif" font-size="10.00">deal.II/base/config.h</text>
</a>
</g>
</g>
<!-- Node17&#45;&gt;Node18 -->
<g id="edge22_Node000017_Node000018" class="edge">
<title>Node17&#45;&gt;Node18</title>
<g id="a_edge22_Node000017_Node000018"><a xlink:title=" ">
<path fill="none" stroke="#63b8ff" d="M1249.26,-126.6C1211.22,-114.82 1159.35,-98.76 1123.3,-87.6"/>
<polygon fill="#63b8ff" stroke="#63b8ff" points="1124.68,-84.36 1114.1,-84.75 1122.61,-91.05 1124.68,-84.36"/>
</a>
</g>
</g>
<!-- Node19 -->
<g id="Node000019" class="node">
<title>Node19</title>
<g id="a_Node000019"><a xlink:title=" ">
<polygon fill="#e0e0e0" stroke="#999999" points="1289.88,-83.88 1156.12,-83.88 1156.12,-63.12 1289.88,-63.12 1289.88,-83.88"/>
<text text-anchor="middle" x="1223" y="-70.38" font-family="Helvetica,sans-Serif" font-size="10.00">deal.II/base/logstream.h</text>
</a>
</g>
</g>
<!-- Node17&#45;&gt;Node19 -->
<g id="edge24_Node000017_Node000019" class="edge">
<title>Node17&#45;&gt;Node19</title>
<g id="a_edge24_Node000017_Node000019"><a xlink:title=" ">
<path fill="none" stroke="#63b8ff" d="M1280.99,-126C1269.38,-115.69 1254.28,-102.28 1242.4,-91.73"/>
<polygon fill="#63b8ff" stroke="#63b8ff" points="1244.99,-89.35 1235.19,-85.33 1240.34,-94.58 1244.99,-89.35"/>
</a>
</g>
</g>
<!-- Node20 -->
<g id="Node000020" class="node">
<title>Node20</title>
<g id="a_Node000020"><a xlink:title=" ">
<polygon fill="#e0e0e0" stroke="#999999" points="1565.5,-83.88 1462.5,-83.88 1462.5,-63.12 1565.5,-63.12 1565.5,-83.88"/>
<text text-anchor="middle" x="1514" y="-70.38" font-family="Helvetica,sans-Serif" font-size="10.00">deal.II/base/mpi.h</text>
</a>
</g>
</g>
<!-- Node17&#45;&gt;Node20 -->
<g id="edge25_Node000017_Node000020" class="edge">
<title>Node17&#45;&gt;Node20</title>
<g id="a_edge25_Node000017_Node000020"><a xlink:title=" ">
<path fill="none" stroke="#63b8ff" d="M1348.6,-126.43C1385.86,-114.73 1436.35,-98.88 1471.71,-87.78"/>
<polygon fill="#63b8ff" stroke="#63b8ff" points="1472.69,-91.14 1481.18,-84.8 1470.59,-84.46 1472.69,-91.14"/>
</a>
</g>
</g>
<!-- Node21 -->
<g id="Node000021" class="node">
<title>Node21</title>
<g id="a_Node000021"><a xlink:title=" ">
<polygon fill="#e0e0e0" stroke="#999999" points="1692.5,-83.88 1583.5,-83.88 1583.5,-63.12 1692.5,-63.12 1692.5,-83.88"/>
<text text-anchor="middle" x="1638" y="-70.38" font-family="Helvetica,sans-Serif" font-size="10.00">deal.II/base/point.h</text>
</a>
</g>
</g>
<!-- Node17&#45;&gt;Node21 -->
<g id="edge26_Node000017_Node000021" class="edge">
<title>Node17&#45;&gt;Node21</title>
<g id="a_edge26_Node000017_Node000021"><a xlink:title=" ">
<path fill="none" stroke="#63b8ff" d="M1348.44,-129.26C1353.01,-128.19 1357.59,-127.17 1362,-126.25 1455.98,-106.59 1481.02,-109.91 1575,-90.25 1579.85,-89.24 1584.89,-88.11 1589.91,-86.93"/>
<polygon fill="#63b8ff" stroke="#63b8ff" points="1590.43,-90.41 1599.33,-84.66 1588.79,-83.6 1590.43,-90.41"/>
</a>
</g>
</g>
<!-- Node22 -->
<g id="Node000022" class="node">
<title>Node22</title>
<g id="a_Node000022"><a xlink:title=" ">
<polygon fill="#e0e0e0" stroke="#999999" points="1825.12,-83.88 1710.88,-83.88 1710.88,-63.12 1825.12,-63.12 1825.12,-83.88"/>
<text text-anchor="middle" x="1768" y="-70.38" font-family="Helvetica,sans-Serif" font-size="10.00">deal.II/base/tensor.h</text>
</a>
</g>
</g>
<!-- Node17&#45;&gt;Node22 -->
<g id="edge27_Node000017_Node000022" class="edge">
<title>Node17&#45;&gt;Node22</title>
<g id="a_edge27_Node000017_Node000022"><a xlink:title=" ">
<path fill="none" stroke="#63b8ff" d="M1348.73,-128.89C1353.2,-127.92 1357.67,-127.02 1362,-126.25 1511.63,-99.76 1552.23,-115.94 1702,-90.25 1707.66,-89.28 1713.56,-88.11 1719.4,-86.85"/>
<polygon fill="#63b8ff" stroke="#63b8ff" points="1720.02,-90.29 1729,-84.67 1718.48,-83.47 1720.02,-90.29"/>
</a>
</g>
</g>
<!-- Node23 -->
<g id="Node000023" class="node">
<title>Node23</title>
<g id="a_Node000023"><a xlink:title=" ">
<polygon fill="#e0e0e0" stroke="#999999" points="1954.62,-83.88 1843.38,-83.88 1843.38,-63.12 1954.62,-63.12 1954.62,-83.88"/>
<text text-anchor="middle" x="1899" y="-70.38" font-family="Helvetica,sans-Serif" font-size="10.00">deal.II/base/types.h</text>
</a>
</g>
</g>
<!-- Node17&#45;&gt;Node23 -->
<g id="edge28_Node000017_Node000023" class="edge">
<title>Node17&#45;&gt;Node23</title>
<g id="a_edge28_Node000017_Node000023"><a xlink:title=" ">
<path fill="none" stroke="#63b8ff" d="M1348.7,-128.75C1353.18,-127.81 1357.66,-126.95 1362,-126.25 1569.68,-92.62 1626.2,-123.13 1834,-90.25 1839.95,-89.31 1846.16,-88.1 1852.27,-86.78"/>
<polygon fill="#63b8ff" stroke="#63b8ff" points="1852.67,-90.28 1861.63,-84.63 1851.1,-83.45 1852.67,-90.28"/>
</a>
</g>
</g>
<!-- Node24 -->
<g id="Node000024" class="node">
<title>Node24</title>
<g id="a_Node000024"><a xlink:title=" ">
<polygon fill="#e0e0e0" stroke="#999999" points="1811,-20.75 1663,-20.75 1663,0 1811,0 1811,-20.75"/>
<text text-anchor="middle" x="1737" y="-7.25" font-family="Helvetica,sans-Serif" font-size="10.00">deal.II/base/vectorization.h</text>
</a>
</g>
</g>
<!-- Node17&#45;&gt;Node24 -->
<g id="edge29_Node000017_Node000024" class="edge">
<title>Node17&#45;&gt;Node24</title>
<g id="a_edge29_Node000017_Node000024"><a xlink:title=" ">
<path fill="none" stroke="#63b8ff" d="M1348.69,-128.67C1353.17,-127.75 1357.65,-126.92 1362,-126.25 1428.23,-116.08 1918.05,-139.03 1964,-90.25 2010.79,-40.58 1905.13,-22.18 1822.73,-15.37"/>
<polygon fill="#63b8ff" stroke="#63b8ff" points="1823.02,-11.88 1812.78,-14.6 1822.48,-18.86 1823.02,-11.88"/>
</a>
</g>
</g>
<!-- Node25 -->
<g id="Node000025" class="node">
<title>Node25</title>
<g id="a_Node000025"><a xlink:title=" ">
<polygon fill="#e0e0e0" stroke="#999999" points="2156.5,-83.88 2011.5,-83.88 2011.5,-63.12 2156.5,-63.12 2156.5,-83.88"/>
<text text-anchor="middle" x="2084" y="-70.38" font-family="Helvetica,sans-Serif" font-size="10.00">boost/range/algorithm.hpp</text>
</a>
</g>
</g>
<!-- Node17&#45;&gt;Node25 -->
<g id="edge31_Node000017_Node000025" class="edge">
<title>Node17&#45;&gt;Node25</title>
<g id="a_edge31_Node000017_Node000025"><a xlink:title=" ">
<path fill="none" stroke="#63b8ff" d="M1348.69,-128.66C1353.17,-127.74 1357.65,-126.91 1362,-126.25 1641.47,-83.78 1716.29,-123.49 1997,-90.25 2005.99,-89.18 2015.47,-87.77 2024.71,-86.23"/>
<polygon fill="#63b8ff" stroke="#63b8ff" points="2025.09,-89.72 2034.35,-84.56 2023.9,-82.82 2025.09,-89.72"/>
</a>
</g>
</g>
<!-- Node26 -->
<g id="Node000026" class="node">
<title>Node26</title>
<g id="a_Node000026"><a xlink:title=" ">
<polygon fill="#e0e0e0" stroke="#999999" points="2299,-90.25 2175,-90.25 2175,-56.75 2299,-56.75 2299,-90.25"/>
<text text-anchor="start" x="2183" y="-76.75" font-family="Helvetica,sans-Serif" font-size="10.00">boost/range/algorithm</text>
<text text-anchor="middle" x="2237" y="-64" font-family="Helvetica,sans-Serif" font-size="10.00">_ext.hpp</text>
</a>
</g>
</g>
<!-- Node17&#45;&gt;Node26 -->
<g id="edge32_Node000017_Node000026" class="edge">
<title>Node17&#45;&gt;Node26</title>
<g id="a_edge32_Node000017_Node000026"><a xlink:title=" ">
<path fill="none" stroke="#63b8ff" d="M1348.68,-128.6C1353.16,-127.69 1357.65,-126.88 1362,-126.25 1712.23,-75.16 1809.37,-135.86 2163.41,-90.43"/>
<polygon fill="#63b8ff" stroke="#63b8ff" points="2163.81,-93.91 2173.27,-89.14 2162.9,-86.96 2163.81,-93.91"/>
</a>
</g>
</g>
<!-- Node27 -->
<g id="Node000027" class="node">
<title>Node27</title>
<g id="a_Node000027"><a xlink:href="vectorized__operations_8h.html" target="_top" xlink:title=" ">
<polygon fill="white" stroke="#666666" points="1444,-90.25 1308,-90.25 1308,-56.75 1444,-56.75 1444,-90.25"/>
<text text-anchor="start" x="1316" y="-76.75" font-family="Helvetica,sans-Serif" font-size="10.00">prismspf/utilities</text>
<text text-anchor="middle" x="1376" y="-64" font-family="Helvetica,sans-Serif" font-size="10.00">/vectorized_operations.h</text>
</a>
</g>
</g>
<!-- Node17&#45;&gt;Node27 -->
<g id="edge33_Node000017_Node000027" class="edge">
<title>Node17&#45;&gt;Node27</title>
<g id="a_edge33_Node000017_Node000027"><a xlink:title=" ">
<path fill="none" stroke="#63b8ff" d="M1317.25,-126C1326.77,-117.66 1338.6,-107.29 1349.14,-98.05"/>
<polygon fill="#63b8ff" stroke="#63b8ff" points="1351.27,-100.84 1356.48,-91.61 1346.65,-95.57 1351.27,-100.84"/>
</a>
</g>
</g>
<!-- Node29 -->
<g id="Node000029" class="node">
<title>Node29</title>
<g id="a_Node000029"><a xlink:title=" ">
<polygon fill="#e0e0e0" stroke="#999999" points="2389.12,-83.88 2316.88,-83.88 2316.88,-63.12 2389.12,-63.12 2389.12,-83.88"/>
<text text-anchor="middle" x="2353" y="-70.38" font-family="Helvetica,sans-Serif" font-size="10.00">string_view</text>
</a>
</g>
</g>
<!-- Node17&#45;&gt;Node29 -->
<g id="edge39_Node000017_Node000029" class="edge">
<title>Node17&#45;&gt;Node29</title>
<g id="a_edge39_Node000017_Node000029"><a xlink:title=" ">
<path fill="none" stroke="#63b8ff" d="M1348.68,-128.57C1353.16,-127.67 1357.65,-126.87 1362,-126.25 1778.54,-66.91 1894.61,-168.62 2308,-90.25 2311.39,-89.61 2314.86,-88.76 2318.31,-87.78"/>
<polygon fill="#63b8ff" stroke="#63b8ff" points="2319.17,-91.19 2327.63,-84.82 2317.04,-84.51 2319.17,-91.19"/>
</a>
</g>
</g>
<!-- Node17&#45;&gt;Node30 -->
<g id="edge40_Node000017_Node000030" class="edge">
<title>Node17&#45;&gt;Node30</title>
<g id="a_edge40_Node000017_Node000030"><a xlink:title=" ">
<path fill="none" stroke="#63b8ff" d="M1348.67,-128.56C1353.16,-127.65 1357.65,-126.86 1362,-126.25 1818.22,-62.02 1942.93,-162.2 2398,-90.25 2402.75,-89.5 2407.66,-88.47 2412.51,-87.29"/>
<polygon fill="#63b8ff" stroke="#63b8ff" points="2413.38,-90.69 2422.15,-84.74 2411.59,-83.92 2413.38,-90.69"/>
</a>
</g>
</g>
<!-- Node27&#45;&gt;Node6 -->
<g id="edge35_Node000027_Node000006" class="edge">
<title>Node27&#45;&gt;Node6</title>
<g id="a_edge35_Node000027_Node000006"><a xlink:title=" ">
<path fill="none" stroke="#63b8ff" d="M1307.65,-58C1304.73,-57.55 1301.84,-57.13 1299,-56.75 1266.03,-52.38 799.23,-24.91 628.75,-14.97"/>
<polygon fill="#63b8ff" stroke="#63b8ff" points="629.18,-11.49 618.99,-14.4 628.77,-18.47 629.18,-11.49"/>
</a>
</g>
</g>
<!-- Node27&#45;&gt;Node24 -->
<g id="edge34_Node000027_Node000024" class="edge">
<title>Node27&#45;&gt;Node24</title>
<g id="a_edge34_Node000027_Node000024"><a xlink:title=" ">
<path fill="none" stroke="#63b8ff" d="M1444.45,-58.52C1447.68,-57.91 1450.87,-57.32 1454,-56.75 1523.43,-44.18 1602.77,-31.61 1659.74,-22.9"/>
<polygon fill="#63b8ff" stroke="#63b8ff" points="1659.97,-26.41 1669.33,-21.44 1658.92,-19.49 1659.97,-26.41"/>
</a>
</g>
</g>
<!-- Node28 -->
<g id="Node000028" class="node">
<title>Node28</title>
<g id="a_Node000028"><a xlink:title=" ">
<polygon fill="#e0e0e0" stroke="#999999" points="1399.38,-20.75 1352.62,-20.75 1352.62,0 1399.38,0 1399.38,-20.75"/>
<text text-anchor="middle" x="1376" y="-7.25" font-family="Helvetica,sans-Serif" font-size="10.00">cmath</text>
</a>
</g>
</g>
<!-- Node27&#45;&gt;Node28 -->
<g id="edge36_Node000027_Node000028" class="edge">
<title>Node27&#45;&gt;Node28</title>
<g id="a_edge36_Node000027_Node000028"><a xlink:title=" ">
<path fill="none" stroke="#63b8ff" d="M1376,-56.44C1376,-49.1 1376,-40.32 1376,-32.46"/>
<polygon fill="#63b8ff" stroke="#63b8ff" points="1379.5,-32.73 1376,-22.73 1372.5,-32.73 1379.5,-32.73"/>
</a>
</g>
</g>
</g>
</svg>
