<?xml version="1.0" encoding="UTF-8" standalone="no"?>
<!DOCTYPE svg PUBLIC "-//W3C//DTD SVG 1.1//EN"
 "http://www.w3.org/Graphics/SVG/1.1/DTD/svg11.dtd">
<!-- Generated by graphviz version 12.2.1 (20241206.2353)
 -->
<!-- Title: src/user_inputs/io_parameters.cc Pages: 1 -->
<svg width="3090pt" height="376pt"
 viewBox="0.00 0.00 3090.12 376.25" xmlns="http://www.w3.org/2000/svg" xmlns:xlink="http://www.w3.org/1999/xlink">
<g id="graph0" class="graph" transform="scale(1 1) rotate(0) translate(4 372.25)">
<title>src/user_inputs/io_parameters.cc</title>
<!-- Node1 -->
<g id="Node000001" class="node">
<title>Node1</title>
<g id="a_Node000001"><a xlink:title=" ">
<polygon fill="#999999" stroke="#666666" points="1765.75,-368.25 1664.25,-368.25 1664.25,-334.75 1765.75,-334.75 1765.75,-368.25"/>
<text text-anchor="start" x="1672.25" y="-354.75" font-family="Helvetica,sans-Serif" font-size="10.00">src/user_inputs/io</text>
<text text-anchor="middle" x="1715" y="-342" font-family="Helvetica,sans-Serif" font-size="10.00">_parameters.cc</text>
</a>
</g>
</g>
<!-- Node2 -->
<g id="Node000002" class="node">
<title>Node2</title>
<g id="a_Node000002"><a xlink:title=" ">
<polygon fill="#e0e0e0" stroke="#999999" points="1783.75,-153.38 1646.25,-153.38 1646.25,-132.62 1783.75,-132.62 1783.75,-153.38"/>
<text text-anchor="middle" x="1715" y="-139.88" font-family="Helvetica,sans-Serif" font-size="10.00">deal.II/base/exceptions.h</text>
</a>
</g>
</g>
<!-- Node1&#45;&gt;Node2 -->
<g id="edge1_Node000001_Node000002" class="edge">
<title>Node1&#45;&gt;Node2</title>
<g id="a_edge1_Node000001_Node000002"><a xlink:title=" ">
<path fill="none" stroke="#63b8ff" d="M1715,-334.3C1715,-297.15 1715,-205.91 1715,-164.74"/>
<polygon fill="#63b8ff" stroke="#63b8ff" points="1718.5,-164.99 1715,-154.99 1711.5,-164.99 1718.5,-164.99"/>
</a>
</g>
</g>
<!-- Node3 -->
<g id="Node000003" class="node">
<title>Node3</title>
<g id="a_Node000003"><a xlink:href="io__parameters_8h.html" target="_top" xlink:title=" ">
<polygon fill="white" stroke="#666666" points="2525,-298.75 2407,-298.75 2407,-265.25 2525,-265.25 2525,-298.75"/>
<text text-anchor="start" x="2415" y="-285.25" font-family="Helvetica,sans-Serif" font-size="10.00">prismspf/user_inputs</text>
<text text-anchor="middle" x="2466" y="-272.5" font-family="Helvetica,sans-Serif" font-size="10.00">/io_parameters.h</text>
</a>
</g>
</g>
<!-- Node1&#45;&gt;Node3 -->
<g id="edge2_Node000001_Node000003" class="edge">
<title>Node1&#45;&gt;Node3</title>
<g id="a_edge2_Node000001_Node000003"><a xlink:title=" ">
<path fill="none" stroke="#63b8ff" d="M1766.03,-345.91C1896.98,-334.14 2245.16,-302.85 2395.38,-289.35"/>
<polygon fill="#63b8ff" stroke="#63b8ff" points="2395.56,-292.85 2405.2,-288.46 2394.93,-285.87 2395.56,-292.85"/>
</a>
</g>
</g>
<!-- Node11 -->
<g id="Node000011" class="node">
<title>Node11</title>
<g id="a_Node000011"><a xlink:title=" ">
<polygon fill="#e0e0e0" stroke="#999999" points="2092,-20.75 1992,-20.75 1992,0 2092,0 2092,-20.75"/>
<text text-anchor="middle" x="2042" y="-7.25" font-family="Helvetica,sans-Serif" font-size="10.00">prismspf/config.h</text>
</a>
</g>
</g>
<!-- Node1&#45;&gt;Node11 -->
<g id="edge63_Node000001_Node000011" class="edge">
<title>Node1&#45;&gt;Node11</title>
<g id="a_edge63_Node000001_Node000011"><a xlink:title=" ">
<path fill="none" stroke="#63b8ff" d="M1664.14,-349.17C1379.82,-341.39 0,-299.23 0,-213.5 0,-213.5 0,-213.5 0,-142 0,-65.32 76.1,-77.23 150,-56.75 329.46,-7.01 1674.89,-9.78 1980.41,-11.07"/>
<polygon fill="#63b8ff" stroke="#63b8ff" points="1980.15,-14.57 1990.16,-11.11 1980.18,-7.57 1980.15,-14.57"/>
</a>
</g>
</g>
<!-- Node4 -->
<g id="Node000004" class="node">
<title>Node4</title>
<g id="a_Node000004"><a xlink:title=" ">
<polygon fill="#e0e0e0" stroke="#999999" points="2280,-229.25 2162,-229.25 2162,-195.75 2280,-195.75 2280,-229.25"/>
<text text-anchor="start" x="2170" y="-215.75" font-family="Helvetica,sans-Serif" font-size="10.00">deal.II/base/data_out</text>
<text text-anchor="middle" x="2221" y="-203" font-family="Helvetica,sans-Serif" font-size="10.00">_base.h</text>
</a>
</g>
</g>
<!-- Node3&#45;&gt;Node4 -->
<g id="edge3_Node000003_Node000004" class="edge">
<title>Node3&#45;&gt;Node4</title>
<g id="a_edge3_Node000003_Node000004"><a xlink:title=" ">
<path fill="none" stroke="#63b8ff" d="M2407.32,-264.83C2372.14,-255.14 2327.23,-242.77 2290.31,-232.6"/>
<polygon fill="#63b8ff" stroke="#63b8ff" points="2291.66,-229.34 2281.09,-230.05 2289.8,-236.09 2291.66,-229.34"/>
</a>
</g>
</g>
<!-- Node5 -->
<g id="Node000005" class="node">
<title>Node5</title>
<g id="a_Node000005"><a xlink:title=" ">
<polygon fill="#e0e0e0" stroke="#999999" points="2847.12,-159.75 2720.88,-159.75 2720.88,-126.25 2847.12,-126.25 2847.12,-159.75"/>
<text text-anchor="start" x="2728.88" y="-146.25" font-family="Helvetica,sans-Serif" font-size="10.00">deal.II/base/parameter</text>
<text text-anchor="middle" x="2784" y="-133.5" font-family="Helvetica,sans-Serif" font-size="10.00">_handler.h</text>
</a>
</g>
</g>
<!-- Node3&#45;&gt;Node5 -->
<g id="edge4_Node000003_Node000005" class="edge">
<title>Node3&#45;&gt;Node5</title>
<g id="a_edge4_Node000003_Node000005"><a xlink:title=" ">
<path fill="none" stroke="#63b8ff" d="M2525.35,-266.32C2555.06,-257.71 2590.99,-245.33 2621,-229.25 2642.35,-217.8 2643.15,-208.09 2664,-195.75 2684.2,-183.79 2707.67,-173.05 2728.47,-164.49"/>
<polygon fill="#63b8ff" stroke="#63b8ff" points="2729.71,-167.76 2737.67,-160.78 2727.09,-161.27 2729.71,-167.76"/>
</a>
</g>
</g>
<!-- Node6 -->
<g id="Node000006" class="node">
<title>Node6</title>
<g id="a_Node000006"><a xlink:title=" ">
<polygon fill="#e0e0e0" stroke="#999999" points="2990.38,-153.38 2865.62,-153.38 2865.62,-132.62 2990.38,-132.62 2990.38,-153.38"/>
<text text-anchor="middle" x="2928" y="-139.88" font-family="Helvetica,sans-Serif" font-size="10.00">deal.II/base/patterns.h</text>
</a>
</g>
</g>
<!-- Node3&#45;&gt;Node6 -->
<g id="edge5_Node000003_Node000006" class="edge">
<title>Node3&#45;&gt;Node6</title>
<g id="a_edge5_Node000003_Node000006"><a xlink:title=" ">
<path fill="none" stroke="#63b8ff" d="M2525.25,-271.79C2564.26,-264.12 2615.58,-250.86 2657,-229.25 2677.56,-218.52 2676.21,-206.02 2697,-195.75 2699,-194.76 2804.78,-171.26 2872.49,-156.27"/>
<polygon fill="#63b8ff" stroke="#63b8ff" points="2872.94,-159.75 2881.94,-154.18 2871.42,-152.92 2872.94,-159.75"/>
</a>
</g>
</g>
<!-- Node7 -->
<g id="Node000007" class="node">
<title>Node7</title>
<g id="a_Node000007"><a xlink:title=" ">
<polygon fill="#e0e0e0" stroke="#999999" points="1517.5,-153.38 1396.5,-153.38 1396.5,-132.62 1517.5,-132.62 1517.5,-153.38"/>
<text text-anchor="middle" x="1457" y="-139.88" font-family="Helvetica,sans-Serif" font-size="10.00">deal.II/base/utilities.h</text>
</a>
</g>
</g>
<!-- Node3&#45;&gt;Node7 -->
<g id="edge6_Node000003_Node000007" class="edge">
<title>Node3&#45;&gt;Node7</title>
<g id="a_edge6_Node000003_Node000007"><a xlink:title=" ">
<path fill="none" stroke="#63b8ff" d="M2406.63,-279.85C2288.85,-276.82 2017.63,-266.1 1793,-229.25 1685.43,-211.6 1561.88,-176.25 1498.81,-157.08"/>
<polygon fill="#63b8ff" stroke="#63b8ff" points="1500.15,-153.83 1489.57,-154.26 1498.11,-160.53 1500.15,-153.83"/>
</a>
</g>
</g>
<!-- Node8 -->
<g id="Node000008" class="node">
<title>Node8</title>
<g id="a_Node000008"><a xlink:title=" ">
<polygon fill="#e0e0e0" stroke="#999999" points="2812,-229.25 2706,-229.25 2706,-195.75 2812,-195.75 2812,-229.25"/>
<text text-anchor="start" x="2714" y="-215.75" font-family="Helvetica,sans-Serif" font-size="10.00">boost/serialization</text>
<text text-anchor="middle" x="2759" y="-203" font-family="Helvetica,sans-Serif" font-size="10.00">/vector.hpp</text>
</a>
</g>
</g>
<!-- Node3&#45;&gt;Node8 -->
<g id="edge7_Node000003_Node000008" class="edge">
<title>Node3&#45;&gt;Node8</title>
<g id="a_edge7_Node000003_Node000008"><a xlink:title=" ">
<path fill="none" stroke="#63b8ff" d="M2525.03,-267.58C2570.64,-257.19 2635.34,-242.4 2692,-229.25 2692.83,-229.06 2693.66,-228.86 2694.5,-228.67"/>
<polygon fill="#63b8ff" stroke="#63b8ff" points="2695.19,-232.1 2704.14,-226.42 2693.61,-225.28 2695.19,-232.1"/>
</a>
</g>
</g>
<!-- Node9 -->
<g id="Node000009" class="node">
<title>Node9</title>
<g id="a_Node000009"><a xlink:href="conditional__ostreams_8h.html" target="_top" xlink:title=" ">
<polygon fill="white" stroke="#666666" points="2437.88,-229.25 2298.12,-229.25 2298.12,-195.75 2437.88,-195.75 2437.88,-229.25"/>
<text text-anchor="start" x="2306.12" y="-215.75" font-family="Helvetica,sans-Serif" font-size="10.00">prismspf/core/conditional</text>
<text text-anchor="middle" x="2368" y="-203" font-family="Helvetica,sans-Serif" font-size="10.00">_ostreams.h</text>
</a>
</g>
</g>
<!-- Node3&#45;&gt;Node9 -->
<g id="edge8_Node000003_Node000009" class="edge">
<title>Node3&#45;&gt;Node9</title>
<g id="a_edge8_Node000003_Node000009"><a xlink:title=" ">
<path fill="none" stroke="#63b8ff" d="M2442.78,-265C2430.17,-256.32 2414.39,-245.46 2400.58,-235.94"/>
<polygon fill="#63b8ff" stroke="#63b8ff" points="2402.86,-233.26 2392.64,-230.47 2398.89,-239.03 2402.86,-233.26"/>
</a>
</g>
</g>
<!-- Node3&#45;&gt;Node11 -->
<g id="edge56_Node000003_Node000011" class="edge">
<title>Node3&#45;&gt;Node11</title>
<g id="a_edge56_Node000003_Node000011"><a xlink:title=" ">
<path fill="none" stroke="#63b8ff" d="M2406.54,-279.52C2325.5,-276.15 2186.57,-265.16 2153,-229.25 2121.59,-195.66 2161.29,-168.45 2143,-126.25 2125.29,-85.38 2087.42,-48.75 2063.42,-28.35"/>
<polygon fill="#63b8ff" stroke="#63b8ff" points="2065.78,-25.76 2055.84,-22.08 2061.32,-31.15 2065.78,-25.76"/>
</a>
</g>
</g>
<!-- Node12 -->
<g id="Node000012" class="node">
<title>Node12</title>
<g id="a_Node000012"><a xlink:href="exceptions_8h.html" target="_top" xlink:title=" ">
<polygon fill="white" stroke="#666666" points="2106,-222.88 1958,-222.88 1958,-202.12 2106,-202.12 2106,-222.88"/>
<text text-anchor="middle" x="2032" y="-209.38" font-family="Helvetica,sans-Serif" font-size="10.00">prismspf/core/exceptions.h</text>
</a>
</g>
</g>
<!-- Node3&#45;&gt;Node12 -->
<g id="edge11_Node000003_Node000012" class="edge">
<title>Node3&#45;&gt;Node12</title>
<g id="a_edge11_Node000003_Node000012"><a xlink:title=" ">
<path fill="none" stroke="#63b8ff" d="M2406.53,-272.63C2337.53,-262.8 2220.39,-245.74 2120,-229.25 2112.4,-228 2104.44,-226.65 2096.55,-225.27"/>
<polygon fill="#63b8ff" stroke="#63b8ff" points="2097.42,-221.87 2086.97,-223.59 2096.21,-228.77 2097.42,-221.87"/>
</a>
</g>
</g>
<!-- Node13 -->
<g id="Node000013" class="node">
<title>Node13</title>
<g id="a_Node000013"><a xlink:href="types_8h.html" target="_top" xlink:title=" ">
<polygon fill="white" stroke="#666666" points="2013.88,-153.38 1892.12,-153.38 1892.12,-132.62 2013.88,-132.62 2013.88,-153.38"/>
<text text-anchor="middle" x="1953" y="-139.88" font-family="Helvetica,sans-Serif" font-size="10.00">prismspf/core/types.h</text>
</a>
</g>
</g>
<!-- Node3&#45;&gt;Node13 -->
<g id="edge23_Node000003_Node000013" class="edge">
<title>Node3&#45;&gt;Node13</title>
<g id="a_edge23_Node000003_Node000013"><a xlink:title=" ">
<path fill="none" stroke="#63b8ff" d="M2406.95,-279.46C2277.79,-275.47 1979.26,-262.69 1949,-229.25 1933.28,-211.87 1938.51,-183.42 1944.81,-164.22"/>
<polygon fill="#63b8ff" stroke="#63b8ff" points="1948.01,-165.65 1948.16,-155.06 1941.44,-163.24 1948.01,-165.65"/>
</a>
</g>
</g>
<!-- Node15 -->
<g id="Node000015" class="node">
<title>Node15</title>
<g id="a_Node000015"><a xlink:href="type__enums_8h.html" target="_top" xlink:title=" ">
<polygon fill="white" stroke="#666666" points="2463.75,-90.25 2356.25,-90.25 2356.25,-56.75 2463.75,-56.75 2463.75,-90.25"/>
<text text-anchor="start" x="2364.25" y="-76.75" font-family="Helvetica,sans-Serif" font-size="10.00">prismspf/core/type</text>
<text text-anchor="middle" x="2410" y="-64" font-family="Helvetica,sans-Serif" font-size="10.00">_enums.h</text>
</a>
</g>
</g>
<!-- Node3&#45;&gt;Node15 -->
<g id="edge22_Node000003_Node000015" class="edge">
<title>Node3&#45;&gt;Node15</title>
<g id="a_edge22_Node000003_Node000015"><a xlink:title=" ">
<path fill="none" stroke="#63b8ff" d="M2462.79,-264.88C2459.28,-247.68 2453.3,-219.65 2447,-195.75 2438.37,-163.01 2426.75,-125.84 2418.85,-101.38"/>
<polygon fill="#63b8ff" stroke="#63b8ff" points="2422.19,-100.34 2415.77,-91.91 2415.54,-102.5 2422.19,-100.34"/>
</a>
</g>
</g>
<!-- Node17 -->
<g id="Node000017" class="node">
<title>Node17</title>
<g id="a_Node000017"><a xlink:title=" ">
<polygon fill="#e0e0e0" stroke="#999999" points="2613.88,-20.75 2570.12,-20.75 2570.12,0 2613.88,0 2613.88,-20.75"/>
<text text-anchor="middle" x="2592" y="-7.25" font-family="Helvetica,sans-Serif" font-size="10.00">string</text>
</a>
</g>
</g>
<!-- Node3&#45;&gt;Node17 -->
<g id="edge61_Node000003_Node000017" class="edge">
<title>Node3&#45;&gt;Node17</title>
<g id="a_edge61_Node000003_Node000017"><a xlink:title=" ">
<path fill="none" stroke="#63b8ff" d="M2525.45,-278.91C2664.02,-273.57 2999.96,-257.82 3042,-229.25 3070.6,-209.81 3069.01,-193.4 3077,-159.75 3080.44,-145.26 3086.24,-137.93 3077,-126.25 3020.2,-54.43 2725.82,-22.84 2625.52,-14.06"/>
<polygon fill="#63b8ff" stroke="#63b8ff" points="2626.04,-10.59 2615.78,-13.23 2625.45,-17.56 2626.04,-10.59"/>
</a>
</g>
</g>
<!-- Node19 -->
<g id="Node000019" class="node">
<title>Node19</title>
<g id="a_Node000019"><a xlink:href="parameter__base_8h.html" target="_top" xlink:title=" ">
<polygon fill="white" stroke="#666666" points="2612,-229.25 2494,-229.25 2494,-195.75 2612,-195.75 2612,-229.25"/>
<text text-anchor="start" x="2502" y="-215.75" font-family="Helvetica,sans-Serif" font-size="10.00">prismspf/user_inputs</text>
<text text-anchor="middle" x="2553" y="-203" font-family="Helvetica,sans-Serif" font-size="10.00">/parameter_base.h</text>
</a>
</g>
</g>
<!-- Node3&#45;&gt;Node19 -->
<g id="edge24_Node000003_Node000019" class="edge">
<title>Node3&#45;&gt;Node19</title>
<g id="a_edge24_Node000003_Node000019"><a xlink:title=" ">
<path fill="none" stroke="#63b8ff" d="M2486.62,-265C2497.59,-256.49 2511.28,-245.87 2523.37,-236.49"/>
<polygon fill="#63b8ff" stroke="#63b8ff" points="2525.28,-239.44 2531.03,-230.54 2520.99,-233.91 2525.28,-239.44"/>
</a>
</g>
</g>
<!-- Node21 -->
<g id="Node000021" class="node">
<title>Node21</title>
<g id="a_Node000021"><a xlink:title=" ">
<polygon fill="#e0e0e0" stroke="#999999" points="3067.75,-153.38 3008.25,-153.38 3008.25,-132.62 3067.75,-132.62 3067.75,-153.38"/>
<text text-anchor="middle" x="3038" y="-139.88" font-family="Helvetica,sans-Serif" font-size="10.00">concepts</text>
</a>
</g>
</g>
<!-- Node3&#45;&gt;Node21 -->
<g id="edge58_Node000003_Node000021" class="edge">
<title>Node3&#45;&gt;Node21</title>
<g id="a_edge58_Node000003_Node000021"><a xlink:title=" ">
<path fill="none" stroke="#63b8ff" d="M2525.31,-279.34C2660.48,-275 2982.54,-261.39 3019,-229.25 3036.92,-213.46 3039.98,-184.83 3039.68,-165.14"/>
<polygon fill="#63b8ff" stroke="#63b8ff" points="3043.18,-165.04 3039.2,-155.22 3036.19,-165.38 3043.18,-165.04"/>
</a>
</g>
</g>
<!-- Node25 -->
<g id="Node000025" class="node">
<title>Node25</title>
<g id="a_Node000025"><a xlink:href="utilities_8h.html" target="_top" xlink:title=" ">
<polygon fill="white" stroke="#666666" points="1055.25,-229.25 956.75,-229.25 956.75,-195.75 1055.25,-195.75 1055.25,-229.25"/>
<text text-anchor="start" x="964.75" y="-215.75" font-family="Helvetica,sans-Serif" font-size="10.00">prismspf/utilities</text>
<text text-anchor="middle" x="1006" y="-203" font-family="Helvetica,sans-Serif" font-size="10.00">/utilities.h</text>
</a>
</g>
</g>
<!-- Node3&#45;&gt;Node25 -->
<g id="edge35_Node000003_Node000025" class="edge">
<title>Node3&#45;&gt;Node25</title>
<g id="a_edge35_Node000003_Node000025"><a xlink:title=" ">
<path fill="none" stroke="#63b8ff" d="M2406.5,-278.25C2170.93,-267.36 1304.85,-227.32 1066.86,-216.31"/>
<polygon fill="#63b8ff" stroke="#63b8ff" points="1067.34,-212.83 1057.19,-215.87 1067.02,-219.82 1067.34,-212.83"/>
</a>
</g>
</g>
<!-- Node37 -->
<g id="Node000037" class="node">
<title>Node37</title>
<g id="a_Node000037"><a xlink:title=" ">
<polygon fill="#e0e0e0" stroke="#999999" points="1628.25,-153.38 1535.75,-153.38 1535.75,-132.62 1628.25,-132.62 1628.25,-153.38"/>
<text text-anchor="middle" x="1582" y="-139.88" font-family="Helvetica,sans-Serif" font-size="10.00">unordered_map</text>
</a>
</g>
</g>
<!-- Node3&#45;&gt;Node37 -->
<g id="edge62_Node000003_Node000037" class="edge">
<title>Node3&#45;&gt;Node37</title>
<g id="a_edge62_Node000003_Node000037"><a xlink:title=" ">
<path fill="none" stroke="#63b8ff" d="M2406.73,-277.83C2308.26,-271.99 2104.96,-257.45 1935,-229.25 1871.03,-218.64 1856.15,-210.48 1793,-195.75 1723.71,-179.58 1705.89,-177.55 1637,-159.75 1633.49,-158.84 1629.86,-157.87 1626.22,-156.88"/>
<polygon fill="#63b8ff" stroke="#63b8ff" points="1627.4,-153.58 1616.83,-154.26 1625.52,-160.32 1627.4,-153.58"/>
</a>
</g>
</g>
<!-- Node38 -->
<g id="Node000038" class="node">
<title>Node38</title>
<g id="a_Node000038"><a xlink:title=" ">
<polygon fill="#e0e0e0" stroke="#999999" points="2879.5,-222.88 2830.5,-222.88 2830.5,-202.12 2879.5,-202.12 2879.5,-222.88"/>
<text text-anchor="middle" x="2855" y="-209.38" font-family="Helvetica,sans-Serif" font-size="10.00">climits</text>
</a>
</g>
</g>
<!-- Node3&#45;&gt;Node38 -->
<g id="edge57_Node000003_Node000038" class="edge">
<title>Node3&#45;&gt;Node38</title>
<g id="a_edge57_Node000003_Node000038"><a xlink:title=" ">
<path fill="none" stroke="#63b8ff" d="M2525.23,-277.61C2596.63,-272.33 2719.67,-259.41 2821,-229.25 2822.6,-228.77 2824.22,-228.24 2825.84,-227.65"/>
<polygon fill="#63b8ff" stroke="#63b8ff" points="2827.01,-230.96 2834.92,-223.91 2824.34,-224.48 2827.01,-230.96"/>
</a>
</g>
</g>
<!-- Node39 -->
<g id="Node000039" class="node">
<title>Node39</title>
<g id="a_Node000039"><a xlink:title=" ">
<polygon fill="#e0e0e0" stroke="#999999" points="2960.62,-222.88 2897.38,-222.88 2897.38,-202.12 2960.62,-202.12 2960.62,-222.88"/>
<text text-anchor="middle" x="2929" y="-209.38" font-family="Helvetica,sans-Serif" font-size="10.00">execution</text>
</a>
</g>
</g>
<!-- Node3&#45;&gt;Node39 -->
<g id="edge59_Node000003_Node000039" class="edge">
<title>Node3&#45;&gt;Node39</title>
<g id="a_edge59_Node000003_Node000039"><a xlink:title=" ">
<path fill="none" stroke="#63b8ff" d="M2525.37,-278.48C2608.01,-273.9 2761.89,-261.49 2889,-229.25 2891.41,-228.64 2893.87,-227.92 2896.33,-227.13"/>
<polygon fill="#63b8ff" stroke="#63b8ff" points="2897.24,-230.52 2905.48,-223.86 2894.88,-223.93 2897.24,-230.52"/>
</a>
</g>
</g>
<!-- Node40 -->
<g id="Node000040" class="node">
<title>Node40</title>
<g id="a_Node000040"><a xlink:title=" ">
<polygon fill="#e0e0e0" stroke="#999999" points="3009.5,-222.88 2978.5,-222.88 2978.5,-202.12 3009.5,-202.12 3009.5,-222.88"/>
<text text-anchor="middle" x="2994" y="-209.38" font-family="Helvetica,sans-Serif" font-size="10.00">set</text>
</a>
</g>
</g>
<!-- Node3&#45;&gt;Node40 -->
<g id="edge60_Node000003_Node000040" class="edge">
<title>Node3&#45;&gt;Node40</title>
<g id="a_edge60_Node000003_Node000040"><a xlink:title=" ">
<path fill="none" stroke="#63b8ff" d="M2525.33,-278.44C2640.34,-272.89 2889.4,-257.9 2970,-229.25 2970.65,-229.02 2971.29,-228.77 2971.93,-228.5"/>
<polygon fill="#63b8ff" stroke="#63b8ff" points="2973.48,-231.65 2980.57,-223.78 2970.12,-225.51 2973.48,-231.65"/>
</a>
</g>
</g>
<!-- Node10 -->
<g id="Node000010" class="node">
<title>Node10</title>
<g id="a_Node000010"><a xlink:title=" ">
<polygon fill="#e0e0e0" stroke="#999999" points="2395.62,-159.75 2266.38,-159.75 2266.38,-126.25 2395.62,-126.25 2395.62,-159.75"/>
<text text-anchor="start" x="2274.38" y="-146.25" font-family="Helvetica,sans-Serif" font-size="10.00">deal.II/base/conditional</text>
<text text-anchor="middle" x="2331" y="-133.5" font-family="Helvetica,sans-Serif" font-size="10.00">_ostream.h</text>
</a>
</g>
</g>
<!-- Node9&#45;&gt;Node10 -->
<g id="edge9_Node000009_Node000010" class="edge">
<title>Node9&#45;&gt;Node10</title>
<g id="a_edge9_Node000009_Node000010"><a xlink:title=" ">
<path fill="none" stroke="#63b8ff" d="M2359.23,-195.5C2355.04,-187.85 2349.91,-178.5 2345.19,-169.88"/>
<polygon fill="#63b8ff" stroke="#63b8ff" points="2348.31,-168.3 2340.43,-161.21 2342.17,-171.66 2348.31,-168.3"/>
</a>
</g>
</g>
<!-- Node9&#45;&gt;Node11 -->
<g id="edge10_Node000009_Node000011" class="edge">
<title>Node9&#45;&gt;Node11</title>
<g id="a_edge10_Node000009_Node000011"><a xlink:title=" ">
<path fill="none" stroke="#63b8ff" d="M2320.96,-195.3C2300.08,-186.72 2275.99,-174.81 2257,-159.75 2211.36,-123.57 2223.55,-90.37 2176,-56.75 2154.43,-41.5 2127.34,-31.06 2103.17,-24.07"/>
<polygon fill="#63b8ff" stroke="#63b8ff" points="2104.33,-20.76 2093.76,-21.5 2102.49,-27.51 2104.33,-20.76"/>
</a>
</g>
</g>
<!-- Node12&#45;&gt;Node2 -->
<g id="edge12_Node000012_Node000002" class="edge">
<title>Node12&#45;&gt;Node2</title>
<g id="a_edge12_Node000012_Node000002"><a xlink:title=" ">
<path fill="none" stroke="#63b8ff" d="M1985.91,-201.68C1929.33,-189.64 1833.38,-169.21 1772.16,-156.17"/>
<polygon fill="#63b8ff" stroke="#63b8ff" points="1773.14,-152.8 1762.63,-154.14 1771.68,-159.65 1773.14,-152.8"/>
</a>
</g>
</g>
<!-- Node12&#45;&gt;Node11 -->
<g id="edge20_Node000012_Node000011" class="edge">
<title>Node12&#45;&gt;Node11</title>
<g id="a_edge20_Node000012_Node000011"><a xlink:title=" ">
<path fill="none" stroke="#63b8ff" d="M2032.48,-201.85C2034.02,-171.14 2038.81,-75.21 2040.95,-32.39"/>
<polygon fill="#63b8ff" stroke="#63b8ff" points="2044.44,-32.6 2041.45,-22.44 2037.45,-32.26 2044.44,-32.6"/>
</a>
</g>
</g>
<!-- Node12&#45;&gt;Node13 -->
<g id="edge13_Node000012_Node000013" class="edge">
<title>Node12&#45;&gt;Node13</title>
<g id="a_edge13_Node000012_Node000013"><a xlink:title=" ">
<path fill="none" stroke="#63b8ff" d="M2020.68,-201.83C2008.32,-191.26 1988.26,-174.13 1973.18,-161.25"/>
<polygon fill="#63b8ff" stroke="#63b8ff" points="1975.58,-158.69 1965.71,-154.86 1971.03,-164.01 1975.58,-158.69"/>
</a>
</g>
</g>
<!-- Node18 -->
<g id="Node000018" class="node">
<title>Node18</title>
<g id="a_Node000018"><a xlink:title=" ">
<polygon fill="#e0e0e0" stroke="#999999" points="2134,-153.38 2070,-153.38 2070,-132.62 2134,-132.62 2134,-153.38"/>
<text text-anchor="middle" x="2102" y="-139.88" font-family="Helvetica,sans-Serif" font-size="10.00">exception</text>
</a>
</g>
</g>
<!-- Node12&#45;&gt;Node18 -->
<g id="edge21_Node000012_Node000018" class="edge">
<title>Node12&#45;&gt;Node18</title>
<g id="a_edge21_Node000012_Node000018"><a xlink:title=" ">
<path fill="none" stroke="#63b8ff" d="M2042.03,-201.83C2052.95,-191.3 2070.62,-174.26 2083.96,-161.39"/>
<polygon fill="#63b8ff" stroke="#63b8ff" points="2086.13,-164.16 2090.9,-154.7 2081.27,-159.13 2086.13,-164.16"/>
</a>
</g>
</g>
<!-- Node13&#45;&gt;Node11 -->
<g id="edge19_Node000013_Node000011" class="edge">
<title>Node13&#45;&gt;Node11</title>
<g id="a_edge19_Node000013_Node000011"><a xlink:title=" ">
<path fill="none" stroke="#63b8ff" d="M1959.69,-132.18C1974.45,-110.52 2010.02,-58.31 2029.21,-30.14"/>
<polygon fill="#63b8ff" stroke="#63b8ff" points="2031.88,-32.44 2034.62,-22.2 2026.1,-28.5 2031.88,-32.44"/>
</a>
</g>
</g>
<!-- Node14 -->
<g id="Node000014" class="node">
<title>Node14</title>
<g id="a_Node000014"><a xlink:title=" ">
<polygon fill="#e0e0e0" stroke="#999999" points="1515.12,-90.25 1406.88,-90.25 1406.88,-56.75 1515.12,-56.75 1515.12,-90.25"/>
<text text-anchor="start" x="1414.88" y="-76.75" font-family="Helvetica,sans-Serif" font-size="10.00">deal.II/matrix_free</text>
<text text-anchor="middle" x="1461" y="-64" font-family="Helvetica,sans-Serif" font-size="10.00">/evaluation_flags.h</text>
</a>
</g>
</g>
<!-- Node13&#45;&gt;Node14 -->
<g id="edge14_Node000013_Node000014" class="edge">
<title>Node13&#45;&gt;Node14</title>
<g id="a_edge14_Node000013_Node000014"><a xlink:title=" ">
<path fill="none" stroke="#63b8ff" d="M1912.42,-132.15C1902.81,-130.02 1892.57,-127.91 1883,-126.25 1757.8,-104.54 1610.15,-88.63 1526.86,-80.53"/>
<polygon fill="#63b8ff" stroke="#63b8ff" points="1527.34,-77.06 1517.05,-79.59 1526.67,-84.03 1527.34,-77.06"/>
</a>
</g>
</g>
<!-- Node13&#45;&gt;Node15 -->
<g id="edge15_Node000013_Node000015" class="edge">
<title>Node13&#45;&gt;Node15</title>
<g id="a_edge15_Node000013_Node000015"><a xlink:title=" ">
<path fill="none" stroke="#63b8ff" d="M2014.16,-132.97C2100.25,-120.25 2256.51,-97.17 2344.76,-84.14"/>
<polygon fill="#63b8ff" stroke="#63b8ff" points="2345.09,-87.63 2354.47,-82.7 2344.06,-80.7 2345.09,-87.63"/>
</a>
</g>
</g>
<!-- Node15&#45;&gt;Node11 -->
<g id="edge16_Node000015_Node000011" class="edge">
<title>Node15&#45;&gt;Node11</title>
<g id="a_edge16_Node000015_Node000011"><a xlink:title=" ">
<path fill="none" stroke="#63b8ff" d="M2355.89,-59.57C2351.2,-58.57 2346.52,-57.61 2342,-56.75 2259.98,-41.07 2164.49,-27.41 2103.68,-19.28"/>
<polygon fill="#63b8ff" stroke="#63b8ff" points="2104.24,-15.82 2093.86,-17.98 2103.32,-22.76 2104.24,-15.82"/>
</a>
</g>
</g>
<!-- Node16 -->
<g id="Node000016" class="node">
<title>Node16</title>
<g id="a_Node000016"><a xlink:title=" ">
<polygon fill="#e0e0e0" stroke="#999999" points="2434.5,-20.75 2385.5,-20.75 2385.5,0 2434.5,0 2434.5,-20.75"/>
<text text-anchor="middle" x="2410" y="-7.25" font-family="Helvetica,sans-Serif" font-size="10.00">cstdint</text>
</a>
</g>
</g>
<!-- Node15&#45;&gt;Node16 -->
<g id="edge17_Node000015_Node000016" class="edge">
<title>Node15&#45;&gt;Node16</title>
<g id="a_edge17_Node000015_Node000016"><a xlink:title=" ">
<path fill="none" stroke="#63b8ff" d="M2410,-56.44C2410,-49.1 2410,-40.32 2410,-32.46"/>
<polygon fill="#63b8ff" stroke="#63b8ff" points="2413.5,-32.73 2410,-22.73 2406.5,-32.73 2413.5,-32.73"/>
</a>
</g>
</g>
<!-- Node15&#45;&gt;Node17 -->
<g id="edge18_Node000015_Node000017" class="edge">
<title>Node15&#45;&gt;Node17</title>
<g id="a_edge18_Node000015_Node000017"><a xlink:title=" ">
<path fill="none" stroke="#63b8ff" d="M2458.29,-56.28C2490.13,-45.59 2530.99,-31.86 2559.12,-22.42"/>
<polygon fill="#63b8ff" stroke="#63b8ff" points="2560.16,-25.76 2568.53,-19.26 2557.93,-19.12 2560.16,-25.76"/>
</a>
</g>
</g>
<!-- Node19&#45;&gt;Node5 -->
<g id="edge25_Node000019_Node000005" class="edge">
<title>Node19&#45;&gt;Node5</title>
<g id="a_edge25_Node000019_Node000005"><a xlink:title=" ">
<path fill="none" stroke="#63b8ff" d="M2608.33,-195.33C2641.21,-185.72 2683.12,-173.48 2717.75,-163.36"/>
<polygon fill="#63b8ff" stroke="#63b8ff" points="2718.65,-166.74 2727.27,-160.58 2716.69,-160.02 2718.65,-166.74"/>
</a>
</g>
</g>
<!-- Node19&#45;&gt;Node6 -->
<g id="edge26_Node000019_Node000006" class="edge">
<title>Node19&#45;&gt;Node6</title>
<g id="a_edge26_Node000019_Node000006"><a xlink:title=" ">
<path fill="none" stroke="#63b8ff" d="M2612.37,-202.19C2673.56,-192.4 2771.66,-176.17 2856,-159.75 2861.66,-158.65 2867.57,-157.44 2873.45,-156.21"/>
<polygon fill="#63b8ff" stroke="#63b8ff" points="2874.13,-159.64 2883.18,-154.14 2872.67,-152.8 2874.13,-159.64"/>
</a>
</g>
</g>
<!-- Node19&#45;&gt;Node11 -->
<g id="edge28_Node000019_Node000011" class="edge">
<title>Node19&#45;&gt;Node11</title>
<g id="a_edge28_Node000019_Node000011"><a xlink:title=" ">
<path fill="none" stroke="#63b8ff" d="M2528.36,-195.39C2499.58,-177.04 2450.16,-146.92 2405,-126.25 2299.46,-77.93 2167.9,-41.85 2095.69,-23.95"/>
<polygon fill="#63b8ff" stroke="#63b8ff" points="2096.64,-20.58 2086.09,-21.6 2094.97,-27.38 2096.64,-20.58"/>
</a>
</g>
</g>
<!-- Node19&#45;&gt;Node13 -->
<g id="edge27_Node000019_Node000013" class="edge">
<title>Node19&#45;&gt;Node13</title>
<g id="a_edge27_Node000019_Node000013"><a xlink:title=" ">
<path fill="none" stroke="#63b8ff" d="M2493.65,-202.1C2478.46,-199.85 2462.15,-197.58 2447,-195.75 2275.94,-175.08 2232.08,-180.19 2061,-159.75 2049.52,-158.38 2037.38,-156.77 2025.55,-155.11"/>
<polygon fill="#63b8ff" stroke="#63b8ff" points="2026.22,-151.67 2015.82,-153.72 2025.23,-158.6 2026.22,-151.67"/>
</a>
</g>
</g>
<!-- Node19&#45;&gt;Node17 -->
<g id="edge32_Node000019_Node000017" class="edge">
<title>Node19&#45;&gt;Node17</title>
<g id="a_edge32_Node000019_Node000017"><a xlink:title=" ">
<path fill="none" stroke="#63b8ff" d="M2605.81,-195.35C2634.51,-185.4 2665.79,-172.19 2674,-159.75 2704.23,-113.94 2646.91,-56.15 2613.55,-28.13"/>
<polygon fill="#63b8ff" stroke="#63b8ff" points="2616,-25.61 2606.04,-22.01 2611.58,-31.04 2616,-25.61"/>
</a>
</g>
</g>
<!-- Node20 -->
<g id="Node000020" class="node">
<title>Node20</title>
<g id="a_Node000020"><a xlink:title=" ">
<polygon fill="#e0e0e0" stroke="#999999" points="2597.5,-153.38 2554.5,-153.38 2554.5,-132.62 2597.5,-132.62 2597.5,-153.38"/>
<text text-anchor="middle" x="2576" y="-139.88" font-family="Helvetica,sans-Serif" font-size="10.00">cfloat</text>
</a>
</g>
</g>
<!-- Node19&#45;&gt;Node20 -->
<g id="edge29_Node000019_Node000020" class="edge">
<title>Node19&#45;&gt;Node20</title>
<g id="a_edge29_Node000019_Node000020"><a xlink:title=" ">
<path fill="none" stroke="#63b8ff" d="M2558.45,-195.5C2561.62,-186.2 2565.65,-174.38 2569.04,-164.41"/>
<polygon fill="#63b8ff" stroke="#63b8ff" points="2572.25,-165.85 2572.17,-155.25 2565.63,-163.59 2572.25,-165.85"/>
</a>
</g>
</g>
<!-- Node19&#45;&gt;Node21 -->
<g id="edge30_Node000019_Node000021" class="edge">
<title>Node19&#45;&gt;Node21</title>
<g id="a_edge30_Node000019_Node000021"><a xlink:title=" ">
<path fill="none" stroke="#63b8ff" d="M2612.41,-205.03C2729.53,-192.23 2980.52,-164.46 2999,-159.75 3001.41,-159.13 3003.88,-158.4 3006.34,-157.6"/>
<polygon fill="#63b8ff" stroke="#63b8ff" points="3007.29,-160.98 3015.47,-154.24 3004.88,-154.41 3007.29,-160.98"/>
</a>
</g>
</g>
<!-- Node22 -->
<g id="Node000022" class="node">
<title>Node22</title>
<g id="a_Node000022"><a xlink:title=" ">
<polygon fill="#e0e0e0" stroke="#999999" points="2664.5,-153.38 2615.5,-153.38 2615.5,-132.62 2664.5,-132.62 2664.5,-153.38"/>
<text text-anchor="middle" x="2640" y="-139.88" font-family="Helvetica,sans-Serif" font-size="10.00">ranges</text>
</a>
</g>
</g>
<!-- Node19&#45;&gt;Node22 -->
<g id="edge31_Node000019_Node000022" class="edge">
<title>Node19&#45;&gt;Node22</title>
<g id="a_edge31_Node000019_Node000022"><a xlink:title=" ">
<path fill="none" stroke="#63b8ff" d="M2573.62,-195.5C2587.17,-184.99 2604.87,-171.26 2618.58,-160.62"/>
<polygon fill="#63b8ff" stroke="#63b8ff" points="2620.39,-163.64 2626.14,-154.75 2616.1,-158.11 2620.39,-163.64"/>
</a>
</g>
</g>
<!-- Node23 -->
<g id="Node000023" class="node">
<title>Node23</title>
<g id="a_Node000023"><a xlink:title=" ">
<polygon fill="#e0e0e0" stroke="#999999" points="1874.12,-153.38 1801.88,-153.38 1801.88,-132.62 1874.12,-132.62 1874.12,-153.38"/>
<text text-anchor="middle" x="1838" y="-139.88" font-family="Helvetica,sans-Serif" font-size="10.00">string_view</text>
</a>
</g>
</g>
<!-- Node19&#45;&gt;Node23 -->
<g id="edge33_Node000019_Node000023" class="edge">
<title>Node19&#45;&gt;Node23</title>
<g id="a_edge33_Node000019_Node000023"><a xlink:title=" ">
<path fill="none" stroke="#63b8ff" d="M2493.69,-201.79C2478.5,-199.55 2462.17,-197.36 2447,-195.75 2197.22,-169.27 2129.16,-209.7 1883,-159.75 1879.62,-159.06 1876.15,-158.18 1872.71,-157.19"/>
<polygon fill="#63b8ff" stroke="#63b8ff" points="1873.98,-153.93 1863.39,-154.2 1871.84,-160.59 1873.98,-153.93"/>
</a>
</g>
</g>
<!-- Node24 -->
<g id="Node000024" class="node">
<title>Node24</title>
<g id="a_Node000024"><a xlink:title=" ">
<polygon fill="#e0e0e0" stroke="#999999" points="2536.38,-153.38 2489.62,-153.38 2489.62,-132.62 2536.38,-132.62 2536.38,-153.38"/>
<text text-anchor="middle" x="2513" y="-139.88" font-family="Helvetica,sans-Serif" font-size="10.00">vector</text>
</a>
</g>
</g>
<!-- Node19&#45;&gt;Node24 -->
<g id="edge34_Node000019_Node000024" class="edge">
<title>Node19&#45;&gt;Node24</title>
<g id="a_edge34_Node000019_Node000024"><a xlink:title=" ">
<path fill="none" stroke="#63b8ff" d="M2543.52,-195.5C2537.83,-185.9 2530.55,-173.61 2524.52,-163.44"/>
<polygon fill="#63b8ff" stroke="#63b8ff" points="2527.7,-161.94 2519.59,-155.12 2521.68,-165.51 2527.7,-161.94"/>
</a>
</g>
</g>
<!-- Node25&#45;&gt;Node2 -->
<g id="edge37_Node000025_Node000002" class="edge">
<title>Node25&#45;&gt;Node2</title>
<g id="a_edge37_Node000025_Node000002"><a xlink:title=" ">
<path fill="none" stroke="#63b8ff" d="M1055.71,-209.41C1162.54,-204.48 1421.78,-190.2 1637,-159.75 1644.44,-158.7 1652.25,-157.38 1659.92,-155.96"/>
<polygon fill="#63b8ff" stroke="#63b8ff" points="1660.37,-159.44 1669.53,-154.11 1659.05,-152.56 1660.37,-159.44"/>
</a>
</g>
</g>
<!-- Node25&#45;&gt;Node7 -->
<g id="edge43_Node000025_Node000007" class="edge">
<title>Node25&#45;&gt;Node7</title>
<g id="a_edge43_Node000025_Node000007"><a xlink:title=" ">
<path fill="none" stroke="#63b8ff" d="M1055.53,-206.16C1128.43,-197.98 1268.75,-181.04 1387,-159.75 1392.9,-158.69 1399.06,-157.47 1405.16,-156.19"/>
<polygon fill="#63b8ff" stroke="#63b8ff" points="1405.52,-159.69 1414.56,-154.16 1404.04,-152.85 1405.52,-159.69"/>
</a>
</g>
</g>
<!-- Node25&#45;&gt;Node11 -->
<g id="edge52_Node000025_Node000011" class="edge">
<title>Node25&#45;&gt;Node11</title>
<g id="a_edge52_Node000025_Node000011"><a xlink:title=" ">
<path fill="none" stroke="#63b8ff" d="M956.38,-210.28C832.32,-206.72 516.31,-194.32 485,-159.75 475.01,-148.71 475.55,-137.76 485,-126.25 581.41,-8.88 1702.72,-8.98 1980.19,-10.82"/>
<polygon fill="#63b8ff" stroke="#63b8ff" points="1980.08,-14.32 1990.11,-10.89 1980.13,-7.32 1980.08,-14.32"/>
</a>
</g>
</g>
<!-- Node25&#45;&gt;Node14 -->
<g id="edge45_Node000025_Node000014" class="edge">
<title>Node25&#45;&gt;Node14</title>
<g id="a_edge45_Node000025_Node000014"><a xlink:title=" ">
<path fill="none" stroke="#63b8ff" d="M993.84,-195.33C981.26,-176.51 965.69,-145.53 983,-126.25 1010.03,-96.13 1270.46,-81.95 1395.12,-76.84"/>
<polygon fill="#63b8ff" stroke="#63b8ff" points="1395.03,-80.35 1404.88,-76.45 1394.75,-73.35 1395.03,-80.35"/>
</a>
</g>
</g>
<!-- Node25&#45;&gt;Node17 -->
<g id="edge53_Node000025_Node000017" class="edge">
<title>Node25&#45;&gt;Node17</title>
<g id="a_edge53_Node000025_Node000017"><a xlink:title=" ">
<path fill="none" stroke="#63b8ff" d="M1055.7,-210.82C1246.11,-207.99 1929.1,-195.51 2143,-159.75 2195.09,-151.04 2205.53,-138.06 2257,-126.25 2351.86,-104.49 2382.45,-125.92 2473,-90.25 2511.14,-75.23 2549.66,-46.7 2572.16,-28.38"/>
<polygon fill="#63b8ff" stroke="#63b8ff" points="2574.15,-31.28 2579.61,-22.19 2569.68,-25.89 2574.15,-31.28"/>
</a>
</g>
</g>
<!-- Node25&#45;&gt;Node23 -->
<g id="edge54_Node000025_Node000023" class="edge">
<title>Node25&#45;&gt;Node23</title>
<g id="a_edge54_Node000025_Node000023"><a xlink:title=" ">
<path fill="none" stroke="#63b8ff" d="M1055.68,-209.99C1205.45,-205.17 1650.95,-188.72 1793,-159.75 1796.38,-159.06 1799.85,-158.18 1803.29,-157.19"/>
<polygon fill="#63b8ff" stroke="#63b8ff" points="1804.16,-160.58 1812.61,-154.19 1802.02,-153.92 1804.16,-160.58"/>
</a>
</g>
</g>
<!-- Node26 -->
<g id="Node000026" class="node">
<title>Node26</title>
<g id="a_Node000026"><a xlink:title=" ">
<polygon fill="#e0e0e0" stroke="#999999" points="1105.75,-153.38 992.25,-153.38 992.25,-132.62 1105.75,-132.62 1105.75,-153.38"/>
<text text-anchor="middle" x="1049" y="-139.88" font-family="Helvetica,sans-Serif" font-size="10.00">deal.II/base/config.h</text>
</a>
</g>
</g>
<!-- Node25&#45;&gt;Node26 -->
<g id="edge36_Node000025_Node000026" class="edge">
<title>Node25&#45;&gt;Node26</title>
<g id="a_edge36_Node000025_Node000026"><a xlink:title=" ">
<path fill="none" stroke="#63b8ff" d="M1016.19,-195.5C1022.31,-185.9 1030.14,-173.61 1036.61,-163.44"/>
<polygon fill="#63b8ff" stroke="#63b8ff" points="1039.51,-165.41 1041.93,-155.1 1033.61,-161.65 1039.51,-165.41"/>
</a>
</g>
</g>
<!-- Node27 -->
<g id="Node000027" class="node">
<title>Node27</title>
<g id="a_Node000027"><a xlink:title=" ">
<polygon fill="#e0e0e0" stroke="#999999" points="1257.88,-153.38 1124.12,-153.38 1124.12,-132.62 1257.88,-132.62 1257.88,-153.38"/>
<text text-anchor="middle" x="1191" y="-139.88" font-family="Helvetica,sans-Serif" font-size="10.00">deal.II/base/logstream.h</text>
</a>
</g>
</g>
<!-- Node25&#45;&gt;Node27 -->
<g id="edge38_Node000025_Node000027" class="edge">
<title>Node25&#45;&gt;Node27</title>
<g id="a_edge38_Node000025_Node000027"><a xlink:title=" ">
<path fill="none" stroke="#63b8ff" d="M1050.31,-195.33C1081.69,-183.88 1123.32,-168.69 1153.14,-157.81"/>
<polygon fill="#63b8ff" stroke="#63b8ff" points="1154.33,-161.1 1162.53,-154.39 1151.93,-154.53 1154.33,-161.1"/>
</a>
</g>
</g>
<!-- Node28 -->
<g id="Node000028" class="node">
<title>Node28</title>
<g id="a_Node000028"><a xlink:title=" ">
<polygon fill="#e0e0e0" stroke="#999999" points="1378.5,-153.38 1275.5,-153.38 1275.5,-132.62 1378.5,-132.62 1378.5,-153.38"/>
<text text-anchor="middle" x="1327" y="-139.88" font-family="Helvetica,sans-Serif" font-size="10.00">deal.II/base/mpi.h</text>
</a>
</g>
</g>
<!-- Node25&#45;&gt;Node28 -->
<g id="edge39_Node000025_Node000028" class="edge">
<title>Node25&#45;&gt;Node28</title>
<g id="a_edge39_Node000025_Node000028"><a xlink:title=" ">
<path fill="none" stroke="#63b8ff" d="M1055.74,-202.57C1108.4,-192.9 1193.85,-176.59 1267,-159.75 1271.25,-158.77 1275.65,-157.71 1280.06,-156.61"/>
<polygon fill="#63b8ff" stroke="#63b8ff" points="1280.62,-160.08 1289.45,-154.23 1278.9,-153.3 1280.62,-160.08"/>
</a>
</g>
</g>
<!-- Node29 -->
<g id="Node000029" class="node">
<title>Node29</title>
<g id="a_Node000029"><a xlink:title=" ">
<polygon fill="#e0e0e0" stroke="#999999" points="175.5,-153.38 66.5,-153.38 66.5,-132.62 175.5,-132.62 175.5,-153.38"/>
<text text-anchor="middle" x="121" y="-139.88" font-family="Helvetica,sans-Serif" font-size="10.00">deal.II/base/point.h</text>
</a>
</g>
</g>
<!-- Node25&#45;&gt;Node29 -->
<g id="edge40_Node000025_Node000029" class="edge">
<title>Node25&#45;&gt;Node29</title>
<g id="a_edge40_Node000025_Node000029"><a xlink:title=" ">
<path fill="none" stroke="#63b8ff" d="M956.63,-211.45C828.49,-210.64 475.1,-204.22 185,-159.75 179.06,-158.84 172.87,-157.64 166.77,-156.31"/>
<polygon fill="#63b8ff" stroke="#63b8ff" points="167.99,-153 157.46,-154.15 166.41,-159.82 167.99,-153"/>
</a>
</g>
</g>
<!-- Node30 -->
<g id="Node000030" class="node">
<title>Node30</title>
<g id="a_Node000030"><a xlink:title=" ">
<polygon fill="#e0e0e0" stroke="#999999" points="308.12,-153.38 193.88,-153.38 193.88,-132.62 308.12,-132.62 308.12,-153.38"/>
<text text-anchor="middle" x="251" y="-139.88" font-family="Helvetica,sans-Serif" font-size="10.00">deal.II/base/tensor.h</text>
</a>
</g>
</g>
<!-- Node25&#45;&gt;Node30 -->
<g id="edge41_Node000025_Node000030" class="edge">
<title>Node25&#45;&gt;Node30</title>
<g id="a_edge41_Node000025_Node000030"><a xlink:title=" ">
<path fill="none" stroke="#63b8ff" d="M956.4,-210.48C842.68,-207.55 554.64,-196.79 317,-159.75 310.96,-158.81 304.66,-157.6 298.45,-156.28"/>
<polygon fill="#63b8ff" stroke="#63b8ff" points="299.45,-152.91 288.93,-154.13 297.91,-159.74 299.45,-152.91"/>
</a>
</g>
</g>
<!-- Node31 -->
<g id="Node000031" class="node">
<title>Node31</title>
<g id="a_Node000031"><a xlink:title=" ">
<polygon fill="#e0e0e0" stroke="#999999" points="437.62,-153.38 326.38,-153.38 326.38,-132.62 437.62,-132.62 437.62,-153.38"/>
<text text-anchor="middle" x="382" y="-139.88" font-family="Helvetica,sans-Serif" font-size="10.00">deal.II/base/types.h</text>
</a>
</g>
</g>
<!-- Node25&#45;&gt;Node31 -->
<g id="edge42_Node000025_Node000031" class="edge">
<title>Node25&#45;&gt;Node31</title>
<g id="a_edge42_Node000025_Node000031"><a xlink:title=" ">
<path fill="none" stroke="#63b8ff" d="M956.45,-209.01C859.23,-203.64 636.85,-189.06 452,-159.75 445.62,-158.74 438.94,-157.49 432.36,-156.14"/>
<polygon fill="#63b8ff" stroke="#63b8ff" points="433.43,-152.79 422.92,-154.12 431.97,-159.64 433.43,-152.79"/>
</a>
</g>
</g>
<!-- Node32 -->
<g id="Node000032" class="node">
<title>Node32</title>
<g id="a_Node000032"><a xlink:title=" ">
<polygon fill="#e0e0e0" stroke="#999999" points="307,-83.88 159,-83.88 159,-63.12 307,-63.12 307,-83.88"/>
<text text-anchor="middle" x="233" y="-70.38" font-family="Helvetica,sans-Serif" font-size="10.00">deal.II/base/vectorization.h</text>
</a>
</g>
</g>
<!-- Node25&#45;&gt;Node32 -->
<g id="edge44_Node000025_Node000032" class="edge">
<title>Node25&#45;&gt;Node32</title>
<g id="a_edge44_Node000025_Node000032"><a xlink:title=" ">
<path fill="none" stroke="#63b8ff" d="M956.5,-210.67C765.86,-207.22 88.18,-192.68 57,-159.75 21.27,-122.02 91.18,-98.93 153.18,-86.46"/>
<polygon fill="#63b8ff" stroke="#63b8ff" points="153.6,-89.95 162.75,-84.62 152.27,-83.08 153.6,-89.95"/>
</a>
</g>
</g>
<!-- Node33 -->
<g id="Node000033" class="node">
<title>Node33</title>
<g id="a_Node000033"><a xlink:title=" ">
<polygon fill="#e0e0e0" stroke="#999999" points="639.5,-153.38 494.5,-153.38 494.5,-132.62 639.5,-132.62 639.5,-153.38"/>
<text text-anchor="middle" x="567" y="-139.88" font-family="Helvetica,sans-Serif" font-size="10.00">boost/range/algorithm.hpp</text>
</a>
</g>
</g>
<!-- Node25&#45;&gt;Node33 -->
<g id="edge46_Node000025_Node000033" class="edge">
<title>Node25&#45;&gt;Node33</title>
<g id="a_edge46_Node000025_Node000033"><a xlink:title=" ">
<path fill="none" stroke="#63b8ff" d="M956.51,-205.06C887.49,-195.9 758.46,-178.19 649,-159.75 642.06,-158.58 634.8,-157.29 627.59,-155.96"/>
<polygon fill="#63b8ff" stroke="#63b8ff" points="628.33,-152.54 617.85,-154.14 627.04,-159.42 628.33,-152.54"/>
</a>
</g>
</g>
<!-- Node34 -->
<g id="Node000034" class="node">
<title>Node34</title>
<g id="a_Node000034"><a xlink:title=" ">
<polygon fill="#e0e0e0" stroke="#999999" points="782,-159.75 658,-159.75 658,-126.25 782,-126.25 782,-159.75"/>
<text text-anchor="start" x="666" y="-146.25" font-family="Helvetica,sans-Serif" font-size="10.00">boost/range/algorithm</text>
<text text-anchor="middle" x="720" y="-133.5" font-family="Helvetica,sans-Serif" font-size="10.00">_ext.hpp</text>
</a>
</g>
</g>
<!-- Node25&#45;&gt;Node34 -->
<g id="edge47_Node000025_Node000034" class="edge">
<title>Node25&#45;&gt;Node34</title>
<g id="a_edge47_Node000025_Node000034"><a xlink:title=" ">
<path fill="none" stroke="#63b8ff" d="M956.51,-199.82C911.53,-189.2 844.56,-173.4 793.36,-161.31"/>
<polygon fill="#63b8ff" stroke="#63b8ff" points="794.37,-157.96 783.83,-159.06 792.76,-164.77 794.37,-157.96"/>
</a>
</g>
</g>
<!-- Node35 -->
<g id="Node000035" class="node">
<title>Node35</title>
<g id="a_Node000035"><a xlink:href="vectorized__operations_8h.html" target="_top" xlink:title=" ">
<polygon fill="white" stroke="#666666" points="936,-159.75 800,-159.75 800,-126.25 936,-126.25 936,-159.75"/>
<text text-anchor="start" x="808" y="-146.25" font-family="Helvetica,sans-Serif" font-size="10.00">prismspf/utilities</text>
<text text-anchor="middle" x="868" y="-133.5" font-family="Helvetica,sans-Serif" font-size="10.00">/vectorized_operations.h</text>
</a>
</g>
</g>
<!-- Node25&#45;&gt;Node35 -->
<g id="edge48_Node000025_Node000035" class="edge">
<title>Node25&#45;&gt;Node35</title>
<g id="a_edge48_Node000025_Node000035"><a xlink:title=" ">
<path fill="none" stroke="#63b8ff" d="M972.95,-195.33C954.34,-186.23 930.9,-174.77 910.89,-164.98"/>
<polygon fill="#63b8ff" stroke="#63b8ff" points="912.67,-161.95 902.14,-160.7 909.59,-168.24 912.67,-161.95"/>
</a>
</g>
</g>
<!-- Node25&#45;&gt;Node37 -->
<g id="edge55_Node000025_Node000037" class="edge">
<title>Node25&#45;&gt;Node37</title>
<g id="a_edge55_Node000025_Node000037"><a xlink:title=" ">
<path fill="none" stroke="#63b8ff" d="M1055.52,-209.46C1148.46,-204.99 1355.06,-192.04 1526,-159.75 1530.58,-158.89 1535.32,-157.82 1540.03,-156.66"/>
<polygon fill="#63b8ff" stroke="#63b8ff" points="1540.59,-160.13 1549.37,-154.19 1538.81,-153.36 1540.59,-160.13"/>
</a>
</g>
</g>
<!-- Node35&#45;&gt;Node11 -->
<g id="edge50_Node000035_Node000011" class="edge">
<title>Node35&#45;&gt;Node11</title>
<g id="a_edge50_Node000035_Node000011"><a xlink:title=" ">
<path fill="none" stroke="#63b8ff" d="M936.34,-129.01C1037.03,-110.32 1231.35,-75.98 1398,-56.75 1611.14,-32.15 1865.61,-18.97 1980.43,-13.88"/>
<polygon fill="#63b8ff" stroke="#63b8ff" points="1980.41,-17.39 1990.25,-13.45 1980.1,-10.39 1980.41,-17.39"/>
</a>
</g>
</g>
<!-- Node35&#45;&gt;Node32 -->
<g id="edge49_Node000035_Node000032" class="edge">
<title>Node35&#45;&gt;Node32</title>
<g id="a_edge49_Node000035_Node000032"><a xlink:title=" ">
<path fill="none" stroke="#63b8ff" d="M799.63,-127.61C796.72,-127.13 793.83,-126.67 791,-126.25 624.62,-101.59 428.48,-86.64 318.65,-79.53"/>
<polygon fill="#63b8ff" stroke="#63b8ff" points="319.04,-76.04 308.83,-78.9 318.59,-83.03 319.04,-76.04"/>
</a>
</g>
</g>
<!-- Node36 -->
<g id="Node000036" class="node">
<title>Node36</title>
<g id="a_Node000036"><a xlink:title=" ">
<polygon fill="#e0e0e0" stroke="#999999" points="891.38,-83.88 844.62,-83.88 844.62,-63.12 891.38,-63.12 891.38,-83.88"/>
<text text-anchor="middle" x="868" y="-70.38" font-family="Helvetica,sans-Serif" font-size="10.00">cmath</text>
</a>
</g>
</g>
<!-- Node35&#45;&gt;Node36 -->
<g id="edge51_Node000035_Node000036" class="edge">
<title>Node35&#45;&gt;Node36</title>
<g id="a_edge51_Node000035_Node000036"><a xlink:title=" ">
<path fill="none" stroke="#63b8ff" d="M868,-126C868,-116.9 868,-105.39 868,-95.57"/>
<polygon fill="#63b8ff" stroke="#63b8ff" points="871.5,-95.84 868,-85.84 864.5,-95.84 871.5,-95.84"/>
</a>
</g>
</g>
</g>
</svg>
