<?xml version="1.0" encoding="UTF-8" standalone="no"?>
<!DOCTYPE svg PUBLIC "-//W3C//DTD SVG 1.1//EN"
 "http://www.w3.org/Graphics/SVG/1.1/DTD/svg11.dtd">
<!-- Generated by graphviz version 12.2.1 (20241206.2353)
 -->
<!-- Title: include/prismspf/user_inputs/io_parameters.h Pages: 1 -->
<svg width="2676pt" height="307pt"
 viewBox="0.00 0.00 2676.25 306.75" xmlns="http://www.w3.org/2000/svg" xmlns:xlink="http://www.w3.org/1999/xlink">
<g id="graph0" class="graph" transform="scale(1 1) rotate(0) translate(4 302.75)">
<title>include/prismspf/user_inputs/io_parameters.h</title>
<!-- Node1 -->
<g id="Node000001" class="node">
<title>Node1</title>
<g id="a_Node000001"><a xlink:title=" ">
<polygon fill="#999999" stroke="#666666" points="978.88,-298.75 845.12,-298.75 845.12,-265.25 978.88,-265.25 978.88,-298.75"/>
<text text-anchor="start" x="853.12" y="-285.25" font-family="Helvetica,sans-Serif" font-size="10.00">include/prismspf/user</text>
<text text-anchor="middle" x="912" y="-272.5" font-family="Helvetica,sans-Serif" font-size="10.00">_inputs/io_parameters.h</text>
</a>
</g>
</g>
<!-- Node2 -->
<g id="Node000002" class="node">
<title>Node2</title>
<g id="a_Node000002"><a xlink:title=" ">
<polygon fill="#e0e0e0" stroke="#999999" points="118,-229.25 0,-229.25 0,-195.75 118,-195.75 118,-229.25"/>
<text text-anchor="start" x="8" y="-215.75" font-family="Helvetica,sans-Serif" font-size="10.00">deal.II/base/data_out</text>
<text text-anchor="middle" x="59" y="-203" font-family="Helvetica,sans-Serif" font-size="10.00">_base.h</text>
</a>
</g>
</g>
<!-- Node1&#45;&gt;Node2 -->
<g id="edge1_Node000001_Node000002" class="edge">
<title>Node1&#45;&gt;Node2</title>
<g id="a_edge1_Node000001_Node000002"><a xlink:title=" ">
<path fill="none" stroke="#63b8ff" d="M844.67,-280.22C710.3,-277.88 399.3,-268.47 129.43,-229.45"/>
<polygon fill="#63b8ff" stroke="#63b8ff" points="130.13,-226.02 119.73,-228.03 129.12,-232.94 130.13,-226.02"/>
</a>
</g>
</g>
<!-- Node3 -->
<g id="Node000003" class="node">
<title>Node3</title>
<g id="a_Node000003"><a xlink:title=" ">
<polygon fill="#e0e0e0" stroke="#999999" points="262.12,-229.25 135.88,-229.25 135.88,-195.75 262.12,-195.75 262.12,-229.25"/>
<text text-anchor="start" x="143.88" y="-215.75" font-family="Helvetica,sans-Serif" font-size="10.00">deal.II/base/parameter</text>
<text text-anchor="middle" x="199" y="-203" font-family="Helvetica,sans-Serif" font-size="10.00">_handler.h</text>
</a>
</g>
</g>
<!-- Node1&#45;&gt;Node3 -->
<g id="edge2_Node000001_Node000003" class="edge">
<title>Node1&#45;&gt;Node3</title>
<g id="a_edge2_Node000001_Node000003"><a xlink:title=" ">
<path fill="none" stroke="#63b8ff" d="M844.76,-278.56C729.65,-273.72 487.34,-260.69 273.64,-229.52"/>
<polygon fill="#63b8ff" stroke="#63b8ff" points="274.42,-226.1 264.01,-228.1 273.4,-233.03 274.42,-226.1"/>
</a>
</g>
</g>
<!-- Node4 -->
<g id="Node000004" class="node">
<title>Node4</title>
<g id="a_Node000004"><a xlink:title=" ">
<polygon fill="#e0e0e0" stroke="#999999" points="1061.5,-153.38 940.5,-153.38 940.5,-132.62 1061.5,-132.62 1061.5,-153.38"/>
<text text-anchor="middle" x="1001" y="-139.88" font-family="Helvetica,sans-Serif" font-size="10.00">deal.II/base/utilities.h</text>
</a>
</g>
</g>
<!-- Node1&#45;&gt;Node4 -->
<g id="edge3_Node000001_Node000004" class="edge">
<title>Node1&#45;&gt;Node4</title>
<g id="a_edge3_Node000001_Node000004"><a xlink:title=" ">
<path fill="none" stroke="#63b8ff" d="M922.38,-265.02C938.82,-239.72 970.77,-190.53 988.46,-163.3"/>
<polygon fill="#63b8ff" stroke="#63b8ff" points="991.34,-165.29 993.86,-155 985.47,-161.48 991.34,-165.29"/>
</a>
</g>
</g>
<!-- Node5 -->
<g id="Node000005" class="node">
<title>Node5</title>
<g id="a_Node000005"><a xlink:href="conditional__ostreams_8h.html" target="_top" xlink:title=" ">
<polygon fill="white" stroke="#666666" points="419.88,-229.25 280.12,-229.25 280.12,-195.75 419.88,-195.75 419.88,-229.25"/>
<text text-anchor="start" x="288.12" y="-215.75" font-family="Helvetica,sans-Serif" font-size="10.00">prismspf/core/conditional</text>
<text text-anchor="middle" x="350" y="-203" font-family="Helvetica,sans-Serif" font-size="10.00">_ostreams.h</text>
</a>
</g>
</g>
<!-- Node1&#45;&gt;Node5 -->
<g id="edge4_Node000001_Node000005" class="edge">
<title>Node1&#45;&gt;Node5</title>
<g id="a_edge4_Node000001_Node000005"><a xlink:title=" ">
<path fill="none" stroke="#63b8ff" d="M844.9,-275.39C752.22,-267.26 579.95,-250.8 434,-229.25 433.15,-229.12 432.29,-229 431.43,-228.87"/>
<polygon fill="#63b8ff" stroke="#63b8ff" points="431.98,-225.41 421.55,-227.29 430.88,-232.32 431.98,-225.41"/>
</a>
</g>
</g>
<!-- Node7 -->
<g id="Node000007" class="node">
<title>Node7</title>
<g id="a_Node000007"><a xlink:title=" ">
<polygon fill="#e0e0e0" stroke="#999999" points="651,-20.75 551,-20.75 551,0 651,0 651,-20.75"/>
<text text-anchor="middle" x="601" y="-7.25" font-family="Helvetica,sans-Serif" font-size="10.00">prismspf/config.h</text>
</a>
</g>
</g>
<!-- Node1&#45;&gt;Node7 -->
<g id="edge42_Node000001_Node000007" class="edge">
<title>Node1&#45;&gt;Node7</title>
<g id="a_edge42_Node000001_Node000007"><a xlink:title=" ">
<path fill="none" stroke="#63b8ff" d="M845.01,-280.82C741.25,-279.23 548.09,-270.61 495,-229.25 434.52,-182.13 443.22,-111.4 497,-56.75 511.32,-42.2 531.1,-31.99 549.56,-24.99"/>
<polygon fill="#63b8ff" stroke="#63b8ff" points="550.53,-28.36 558.8,-21.74 548.21,-21.76 550.53,-28.36"/>
</a>
</g>
</g>
<!-- Node8 -->
<g id="Node000008" class="node">
<title>Node8</title>
<g id="a_Node000008"><a xlink:href="exceptions_8h.html" target="_top" xlink:title=" ">
<polygon fill="white" stroke="#666666" points="652,-222.88 504,-222.88 504,-202.12 652,-202.12 652,-222.88"/>
<text text-anchor="middle" x="578" y="-209.38" font-family="Helvetica,sans-Serif" font-size="10.00">prismspf/core/exceptions.h</text>
</a>
</g>
</g>
<!-- Node1&#45;&gt;Node8 -->
<g id="edge7_Node000001_Node000008" class="edge">
<title>Node1&#45;&gt;Node8</title>
<g id="a_edge7_Node000001_Node000008"><a xlink:title=" ">
<path fill="none" stroke="#63b8ff" d="M844.81,-267.42C784.27,-255.19 696.08,-237.36 637.9,-225.61"/>
<polygon fill="#63b8ff" stroke="#63b8ff" points="638.66,-222.19 628.17,-223.64 637.27,-229.05 638.66,-222.19"/>
</a>
</g>
</g>
<!-- Node10 -->
<g id="Node000010" class="node">
<title>Node10</title>
<g id="a_Node000010"><a xlink:href="types_8h.html" target="_top" xlink:title=" ">
<polygon fill="white" stroke="#666666" points="689.88,-153.38 568.12,-153.38 568.12,-132.62 689.88,-132.62 689.88,-153.38"/>
<text text-anchor="middle" x="629" y="-139.88" font-family="Helvetica,sans-Serif" font-size="10.00">prismspf/core/types.h</text>
</a>
</g>
</g>
<!-- Node1&#45;&gt;Node10 -->
<g id="edge19_Node000001_Node000010" class="edge">
<title>Node1&#45;&gt;Node10</title>
<g id="a_edge19_Node000001_Node000010"><a xlink:title=" ">
<path fill="none" stroke="#63b8ff" d="M844.81,-274.67C802,-268.23 746.76,-255.26 704,-229.25 676.59,-212.58 653.72,-182.65 640.69,-163.06"/>
<polygon fill="#63b8ff" stroke="#63b8ff" points="643.81,-161.44 635.47,-154.91 637.92,-165.21 643.81,-161.44"/>
</a>
</g>
</g>
<!-- Node12 -->
<g id="Node000012" class="node">
<title>Node12</title>
<g id="a_Node000012"><a xlink:href="type__enums_8h.html" target="_top" xlink:title=" ">
<polygon fill="white" stroke="#666666" points="744.75,-90.25 637.25,-90.25 637.25,-56.75 744.75,-56.75 744.75,-90.25"/>
<text text-anchor="start" x="645.25" y="-76.75" font-family="Helvetica,sans-Serif" font-size="10.00">prismspf/core/type</text>
<text text-anchor="middle" x="691" y="-64" font-family="Helvetica,sans-Serif" font-size="10.00">_enums.h</text>
</a>
</g>
</g>
<!-- Node1&#45;&gt;Node12 -->
<g id="edge18_Node000001_Node000012" class="edge">
<title>Node1&#45;&gt;Node12</title>
<g id="a_edge18_Node000001_Node000012"><a xlink:title=" ">
<path fill="none" stroke="#63b8ff" d="M879.87,-264.82C841.95,-244.46 778.77,-206.44 737,-159.75 721.57,-142.5 709.43,-119.15 701.51,-101.25"/>
<polygon fill="#63b8ff" stroke="#63b8ff" points="704.73,-99.9 697.61,-92.05 698.29,-102.62 704.73,-99.9"/>
</a>
</g>
</g>
<!-- Node14 -->
<g id="Node000014" class="node">
<title>Node14</title>
<g id="a_Node000014"><a xlink:title=" ">
<polygon fill="#e0e0e0" stroke="#999999" points="958.88,-20.75 915.12,-20.75 915.12,0 958.88,0 958.88,-20.75"/>
<text text-anchor="middle" x="937" y="-7.25" font-family="Helvetica,sans-Serif" font-size="10.00">string</text>
</a>
</g>
</g>
<!-- Node1&#45;&gt;Node14 -->
<g id="edge46_Node000001_Node000014" class="edge">
<title>Node1&#45;&gt;Node14</title>
<g id="a_edge46_Node000001_Node000014"><a xlink:title=" ">
<path fill="none" stroke="#63b8ff" d="M913.49,-264.94C917.78,-218.64 930.18,-84.88 935.03,-32.64"/>
<polygon fill="#63b8ff" stroke="#63b8ff" points="938.51,-33 935.95,-22.72 931.54,-32.35 938.51,-33"/>
</a>
</g>
</g>
<!-- Node16 -->
<g id="Node000016" class="node">
<title>Node16</title>
<g id="a_Node000016"><a xlink:title=" ">
<polygon fill="#e0e0e0" stroke="#999999" points="1096,-229.25 978,-229.25 978,-195.75 1096,-195.75 1096,-229.25"/>
<text text-anchor="start" x="986" y="-215.75" font-family="Helvetica,sans-Serif" font-size="10.00">prismspf/user_inputs</text>
<text text-anchor="middle" x="1037" y="-203" font-family="Helvetica,sans-Serif" font-size="10.00">/parameter_base.h</text>
</a>
</g>
</g>
<!-- Node1&#45;&gt;Node16 -->
<g id="edge20_Node000001_Node000016" class="edge">
<title>Node1&#45;&gt;Node16</title>
<g id="a_edge20_Node000001_Node000016"><a xlink:title=" ">
<path fill="none" stroke="#63b8ff" d="M941.94,-264.83C958.56,-255.86 979.44,-244.58 997.4,-234.88"/>
<polygon fill="#63b8ff" stroke="#63b8ff" points="998.84,-238.09 1005.97,-230.26 995.51,-231.93 998.84,-238.09"/>
</a>
</g>
</g>
<!-- Node17 -->
<g id="Node000017" class="node">
<title>Node17</title>
<g id="a_Node000017"><a xlink:href="utilities_8h.html" target="_top" xlink:title=" ">
<polygon fill="white" stroke="#666666" points="1537.25,-229.25 1438.75,-229.25 1438.75,-195.75 1537.25,-195.75 1537.25,-229.25"/>
<text text-anchor="start" x="1446.75" y="-215.75" font-family="Helvetica,sans-Serif" font-size="10.00">prismspf/utilities</text>
<text text-anchor="middle" x="1488" y="-203" font-family="Helvetica,sans-Serif" font-size="10.00">/utilities.h</text>
</a>
</g>
</g>
<!-- Node1&#45;&gt;Node17 -->
<g id="edge21_Node000001_Node000017" class="edge">
<title>Node1&#45;&gt;Node17</title>
<g id="a_edge21_Node000001_Node000017"><a xlink:title=" ">
<path fill="none" stroke="#63b8ff" d="M979.2,-273.12C1092.16,-259.89 1318.37,-233.38 1427.01,-220.65"/>
<polygon fill="#63b8ff" stroke="#63b8ff" points="1427.38,-224.13 1436.9,-219.49 1426.56,-217.18 1427.38,-224.13"/>
</a>
</g>
</g>
<!-- Node30 -->
<g id="Node000030" class="node">
<title>Node30</title>
<g id="a_Node000030"><a xlink:title=" ">
<polygon fill="#e0e0e0" stroke="#999999" points="2668.25,-153.38 2575.75,-153.38 2575.75,-132.62 2668.25,-132.62 2668.25,-153.38"/>
<text text-anchor="middle" x="2622" y="-139.88" font-family="Helvetica,sans-Serif" font-size="10.00">unordered_map</text>
</a>
</g>
</g>
<!-- Node1&#45;&gt;Node30 -->
<g id="edge47_Node000001_Node000030" class="edge">
<title>Node1&#45;&gt;Node30</title>
<g id="a_edge47_Node000001_Node000030"><a xlink:title=" ">
<path fill="none" stroke="#63b8ff" d="M979.35,-280.72C1121.02,-279.3 1445.11,-271.38 1546,-229.25 1567.09,-220.45 1563.72,-204.08 1585,-195.75 1686.67,-155.95 2459.17,-176.9 2567,-159.75 2571.75,-159 2576.66,-157.96 2581.51,-156.79"/>
<polygon fill="#63b8ff" stroke="#63b8ff" points="2582.38,-160.18 2591.15,-154.23 2580.58,-153.41 2582.38,-160.18"/>
</a>
</g>
</g>
<!-- Node31 -->
<g id="Node000031" class="node">
<title>Node31</title>
<g id="a_Node000031"><a xlink:title=" ">
<polygon fill="#e0e0e0" stroke="#999999" points="1642.5,-222.88 1593.5,-222.88 1593.5,-202.12 1642.5,-202.12 1642.5,-222.88"/>
<text text-anchor="middle" x="1618" y="-209.38" font-family="Helvetica,sans-Serif" font-size="10.00">climits</text>
</a>
</g>
</g>
<!-- Node1&#45;&gt;Node31 -->
<g id="edge43_Node000001_Node000031" class="edge">
<title>Node1&#45;&gt;Node31</title>
<g id="a_edge43_Node000001_Node000031"><a xlink:title=" ">
<path fill="none" stroke="#63b8ff" d="M979.19,-278.4C1125,-272.33 1466.35,-255.7 1579,-229.25 1581.48,-228.67 1584.02,-227.95 1586.54,-227.15"/>
<polygon fill="#63b8ff" stroke="#63b8ff" points="1587.71,-230.44 1595.91,-223.73 1585.32,-223.86 1587.71,-230.44"/>
</a>
</g>
</g>
<!-- Node32 -->
<g id="Node000032" class="node">
<title>Node32</title>
<g id="a_Node000032"><a xlink:title=" ">
<polygon fill="#e0e0e0" stroke="#999999" points="1723.62,-222.88 1660.38,-222.88 1660.38,-202.12 1723.62,-202.12 1723.62,-222.88"/>
<text text-anchor="middle" x="1692" y="-209.38" font-family="Helvetica,sans-Serif" font-size="10.00">execution</text>
</a>
</g>
</g>
<!-- Node1&#45;&gt;Node32 -->
<g id="edge44_Node000001_Node000032" class="edge">
<title>Node1&#45;&gt;Node32</title>
<g id="a_edge44_Node000001_Node000032"><a xlink:title=" ">
<path fill="none" stroke="#63b8ff" d="M979.37,-278.91C1136.78,-273.62 1524.97,-257.98 1652,-229.25 1654.64,-228.65 1657.34,-227.91 1660.02,-227.07"/>
<polygon fill="#63b8ff" stroke="#63b8ff" points="1661.12,-230.39 1669.37,-223.75 1658.77,-223.8 1661.12,-230.39"/>
</a>
</g>
</g>
<!-- Node33 -->
<g id="Node000033" class="node">
<title>Node33</title>
<g id="a_Node000033"><a xlink:title=" ">
<polygon fill="#e0e0e0" stroke="#999999" points="1772.5,-222.88 1741.5,-222.88 1741.5,-202.12 1772.5,-202.12 1772.5,-222.88"/>
<text text-anchor="middle" x="1757" y="-209.38" font-family="Helvetica,sans-Serif" font-size="10.00">set</text>
</a>
</g>
</g>
<!-- Node1&#45;&gt;Node33 -->
<g id="edge45_Node000001_Node000033" class="edge">
<title>Node1&#45;&gt;Node33</title>
<g id="a_edge45_Node000001_Node000033"><a xlink:title=" ">
<path fill="none" stroke="#63b8ff" d="M979.3,-281.17C1149.58,-280.9 1593.87,-275.64 1733,-229.25 1733.65,-229.03 1734.3,-228.79 1734.95,-228.54"/>
<polygon fill="#63b8ff" stroke="#63b8ff" points="1736.46,-231.7 1743.6,-223.87 1733.14,-225.54 1736.46,-231.7"/>
</a>
</g>
</g>
<!-- Node6 -->
<g id="Node000006" class="node">
<title>Node6</title>
<g id="a_Node000006"><a xlink:title=" ">
<polygon fill="#e0e0e0" stroke="#999999" points="353.62,-159.75 224.38,-159.75 224.38,-126.25 353.62,-126.25 353.62,-159.75"/>
<text text-anchor="start" x="232.38" y="-146.25" font-family="Helvetica,sans-Serif" font-size="10.00">deal.II/base/conditional</text>
<text text-anchor="middle" x="289" y="-133.5" font-family="Helvetica,sans-Serif" font-size="10.00">_ostream.h</text>
</a>
</g>
</g>
<!-- Node5&#45;&gt;Node6 -->
<g id="edge5_Node000005_Node000006" class="edge">
<title>Node5&#45;&gt;Node6</title>
<g id="a_edge5_Node000005_Node000006"><a xlink:title=" ">
<path fill="none" stroke="#63b8ff" d="M335.54,-195.5C328.17,-187.35 319.06,-177.26 310.85,-168.18"/>
<polygon fill="#63b8ff" stroke="#63b8ff" points="313.67,-166.08 304.37,-161 308.48,-170.77 313.67,-166.08"/>
</a>
</g>
</g>
<!-- Node5&#45;&gt;Node7 -->
<g id="edge6_Node000005_Node000007" class="edge">
<title>Node5&#45;&gt;Node7</title>
<g id="a_edge6_Node000005_Node000007"><a xlink:title=" ">
<path fill="none" stroke="#63b8ff" d="M353.73,-195.52C362.36,-159.92 384.58,-75.77 406,-56.75 425.65,-39.3 490.13,-26.63 539.62,-19.19"/>
<polygon fill="#63b8ff" stroke="#63b8ff" points="539.99,-22.67 549.38,-17.76 538.98,-15.74 539.99,-22.67"/>
</a>
</g>
</g>
<!-- Node8&#45;&gt;Node7 -->
<g id="edge16_Node000008_Node000007" class="edge">
<title>Node8&#45;&gt;Node7</title>
<g id="a_edge16_Node000008_Node000007"><a xlink:title=" ">
<path fill="none" stroke="#63b8ff" d="M537.11,-201.67C515.21,-194.1 490.1,-181.18 477,-159.75 469.23,-147.05 471.04,-139.89 477,-126.25 496.63,-81.31 543.47,-46.09 573.63,-27.05"/>
<polygon fill="#63b8ff" stroke="#63b8ff" points="575.16,-30.22 581.87,-22.01 571.51,-24.25 575.16,-30.22"/>
</a>
</g>
</g>
<!-- Node9 -->
<g id="Node000009" class="node">
<title>Node9</title>
<g id="a_Node000009"><a xlink:title=" ">
<polygon fill="#e0e0e0" stroke="#999999" points="883.75,-153.38 746.25,-153.38 746.25,-132.62 883.75,-132.62 883.75,-153.38"/>
<text text-anchor="middle" x="815" y="-139.88" font-family="Helvetica,sans-Serif" font-size="10.00">deal.II/base/exceptions.h</text>
</a>
</g>
</g>
<!-- Node8&#45;&gt;Node9 -->
<g id="edge8_Node000008_Node000009" class="edge">
<title>Node8&#45;&gt;Node9</title>
<g id="a_edge8_Node000008_Node000009"><a xlink:title=" ">
<path fill="none" stroke="#63b8ff" d="M612.46,-201.68C653.97,-189.86 723.83,-169.97 769.68,-156.91"/>
<polygon fill="#63b8ff" stroke="#63b8ff" points="770.38,-160.35 779.04,-154.24 768.46,-153.61 770.38,-160.35"/>
</a>
</g>
</g>
<!-- Node8&#45;&gt;Node10 -->
<g id="edge9_Node000008_Node000010" class="edge">
<title>Node8&#45;&gt;Node10</title>
<g id="a_edge9_Node000008_Node000010"><a xlink:title=" ">
<path fill="none" stroke="#63b8ff" d="M585.31,-201.83C593.03,-191.6 605.41,-175.23 615.02,-162.5"/>
<polygon fill="#63b8ff" stroke="#63b8ff" points="617.56,-164.95 620.79,-154.86 611.97,-160.73 617.56,-164.95"/>
</a>
</g>
</g>
<!-- Node15 -->
<g id="Node000015" class="node">
<title>Node15</title>
<g id="a_Node000015"><a xlink:title=" ">
<polygon fill="#e0e0e0" stroke="#999999" points="550,-153.38 486,-153.38 486,-132.62 550,-132.62 550,-153.38"/>
<text text-anchor="middle" x="518" y="-139.88" font-family="Helvetica,sans-Serif" font-size="10.00">exception</text>
</a>
</g>
</g>
<!-- Node8&#45;&gt;Node15 -->
<g id="edge17_Node000008_Node000015" class="edge">
<title>Node8&#45;&gt;Node15</title>
<g id="a_edge17_Node000008_Node000015"><a xlink:title=" ">
<path fill="none" stroke="#63b8ff" d="M569.4,-201.83C560.23,-191.5 545.47,-174.9 534.12,-162.13"/>
<polygon fill="#63b8ff" stroke="#63b8ff" points="536.85,-159.93 527.59,-154.78 531.61,-164.58 536.85,-159.93"/>
</a>
</g>
</g>
<!-- Node10&#45;&gt;Node7 -->
<g id="edge15_Node000010_Node000007" class="edge">
<title>Node10&#45;&gt;Node7</title>
<g id="a_edge15_Node000010_Node000007"><a xlink:title=" ">
<path fill="none" stroke="#63b8ff" d="M626.9,-132.18C622.35,-110.99 611.55,-60.58 605.43,-32.03"/>
<polygon fill="#63b8ff" stroke="#63b8ff" points="608.89,-31.48 603.37,-22.43 602.04,-32.94 608.89,-31.48"/>
</a>
</g>
</g>
<!-- Node11 -->
<g id="Node000011" class="node">
<title>Node11</title>
<g id="a_Node000011"><a xlink:title=" ">
<polygon fill="#e0e0e0" stroke="#999999" points="871.12,-90.25 762.88,-90.25 762.88,-56.75 871.12,-56.75 871.12,-90.25"/>
<text text-anchor="start" x="770.88" y="-76.75" font-family="Helvetica,sans-Serif" font-size="10.00">deal.II/matrix_free</text>
<text text-anchor="middle" x="817" y="-64" font-family="Helvetica,sans-Serif" font-size="10.00">/evaluation_flags.h</text>
</a>
</g>
</g>
<!-- Node10&#45;&gt;Node11 -->
<g id="edge10_Node000010_Node000011" class="edge">
<title>Node10&#45;&gt;Node11</title>
<g id="a_edge10_Node000010_Node000011"><a xlink:title=" ">
<path fill="none" stroke="#63b8ff" d="M656.34,-132.18C683.75,-122.34 726.74,-106.91 761.35,-94.48"/>
<polygon fill="#63b8ff" stroke="#63b8ff" points="762.15,-97.91 770.38,-91.24 759.78,-91.32 762.15,-97.91"/>
</a>
</g>
</g>
<!-- Node10&#45;&gt;Node12 -->
<g id="edge11_Node000010_Node000012" class="edge">
<title>Node10&#45;&gt;Node12</title>
<g id="a_edge11_Node000010_Node000012"><a xlink:title=" ">
<path fill="none" stroke="#63b8ff" d="M637.88,-132.33C645.83,-123.67 657.84,-110.61 668.42,-99.08"/>
<polygon fill="#63b8ff" stroke="#63b8ff" points="670.94,-101.52 675.12,-91.78 665.78,-96.78 670.94,-101.52"/>
</a>
</g>
</g>
<!-- Node12&#45;&gt;Node7 -->
<g id="edge12_Node000012_Node000007" class="edge">
<title>Node12&#45;&gt;Node7</title>
<g id="a_edge12_Node000012_Node000007"><a xlink:title=" ">
<path fill="none" stroke="#63b8ff" d="M667.35,-56.44C654.24,-47.53 637.97,-36.49 624.83,-27.56"/>
<polygon fill="#63b8ff" stroke="#63b8ff" points="626.98,-24.79 616.74,-22.07 623.05,-30.58 626.98,-24.79"/>
</a>
</g>
</g>
<!-- Node13 -->
<g id="Node000013" class="node">
<title>Node13</title>
<g id="a_Node000013"><a xlink:title=" ">
<polygon fill="#e0e0e0" stroke="#999999" points="718.5,-20.75 669.5,-20.75 669.5,0 718.5,0 718.5,-20.75"/>
<text text-anchor="middle" x="694" y="-7.25" font-family="Helvetica,sans-Serif" font-size="10.00">cstdint</text>
</a>
</g>
</g>
<!-- Node12&#45;&gt;Node13 -->
<g id="edge13_Node000012_Node000013" class="edge">
<title>Node12&#45;&gt;Node13</title>
<g id="a_edge13_Node000012_Node000013"><a xlink:title=" ">
<path fill="none" stroke="#63b8ff" d="M691.79,-56.44C692.15,-49.1 692.58,-40.32 692.97,-32.46"/>
<polygon fill="#63b8ff" stroke="#63b8ff" points="696.45,-32.89 693.44,-22.73 689.46,-32.55 696.45,-32.89"/>
</a>
</g>
</g>
<!-- Node12&#45;&gt;Node14 -->
<g id="edge14_Node000012_Node000014" class="edge">
<title>Node12&#45;&gt;Node14</title>
<g id="a_edge14_Node000012_Node000014"><a xlink:title=" ">
<path fill="none" stroke="#63b8ff" d="M744.95,-59C748.01,-58.24 751.05,-57.49 754,-56.75 806.31,-43.73 867.04,-28.68 903.72,-19.61"/>
<polygon fill="#63b8ff" stroke="#63b8ff" points="904.41,-23.04 913.27,-17.24 902.73,-16.25 904.41,-23.04"/>
</a>
</g>
</g>
<!-- Node17&#45;&gt;Node4 -->
<g id="edge29_Node000017_Node000004" class="edge">
<title>Node17&#45;&gt;Node4</title>
<g id="a_edge29_Node000017_Node000004"><a xlink:title=" ">
<path fill="none" stroke="#63b8ff" d="M1438.34,-206.59C1360.74,-198.62 1206.11,-181.55 1076,-159.75 1069.53,-158.67 1062.76,-157.41 1056.06,-156.1"/>
<polygon fill="#63b8ff" stroke="#63b8ff" points="1056.88,-152.7 1046.39,-154.15 1055.5,-159.56 1056.88,-152.7"/>
</a>
</g>
</g>
<!-- Node17&#45;&gt;Node7 -->
<g id="edge38_Node000017_Node000007" class="edge">
<title>Node17&#45;&gt;Node7</title>
<g id="a_edge38_Node000017_Node000007"><a xlink:title=" ">
<path fill="none" stroke="#63b8ff" d="M1438.51,-212.21C1369.99,-211.42 1243.74,-203.41 1147,-159.75 1125.86,-150.21 1127.98,-136.13 1107,-126.25 1027.67,-88.87 990.45,-131.38 913,-90.25 894.54,-80.45 898.57,-66.35 880,-56.75 877.58,-55.5 743.81,-34.08 662.4,-21.12"/>
<polygon fill="#63b8ff" stroke="#63b8ff" points="663.2,-17.7 652.78,-19.59 662.1,-24.62 663.2,-17.7"/>
</a>
</g>
</g>
<!-- Node17&#45;&gt;Node9 -->
<g id="edge23_Node000017_Node000009" class="edge">
<title>Node17&#45;&gt;Node9</title>
<g id="a_edge23_Node000017_Node000009"><a xlink:title=" ">
<path fill="none" stroke="#63b8ff" d="M1438.47,-207.58C1341.24,-199.72 1118.63,-180.99 932,-159.75 920.15,-158.4 907.64,-156.85 895.39,-155.26"/>
<polygon fill="#63b8ff" stroke="#63b8ff" points="896.1,-151.83 885.73,-153.99 895.19,-158.77 896.1,-151.83"/>
</a>
</g>
</g>
<!-- Node17&#45;&gt;Node11 -->
<g id="edge31_Node000017_Node000011" class="edge">
<title>Node17&#45;&gt;Node11</title>
<g id="a_edge31_Node000017_Node000011"><a xlink:title=" ">
<path fill="none" stroke="#63b8ff" d="M1438.37,-207.84C1350.53,-200.84 1171.51,-184.04 1114,-159.75 1091.68,-150.32 1093.06,-136.27 1071,-126.25 994.34,-91.42 967.36,-107.75 885,-90.25 884.18,-90.08 883.35,-89.9 882.52,-89.72"/>
<polygon fill="#63b8ff" stroke="#63b8ff" points="883.52,-86.36 873,-87.64 882.02,-93.19 883.52,-86.36"/>
</a>
</g>
</g>
<!-- Node17&#45;&gt;Node14 -->
<g id="edge39_Node000017_Node000014" class="edge">
<title>Node17&#45;&gt;Node14</title>
<g id="a_edge39_Node000017_Node000014"><a xlink:title=" ">
<path fill="none" stroke="#63b8ff" d="M1537.62,-196.54C1539.09,-196.25 1540.55,-195.99 1542,-195.75 1587.15,-188.29 2333.35,-192.81 2365,-159.75 2375.3,-148.99 2375.04,-137.24 2365,-126.25 2267.82,-19.84 1176.24,-11.95 970.38,-11.41"/>
<polygon fill="#63b8ff" stroke="#63b8ff" points="970.66,-7.91 960.66,-11.39 970.65,-14.91 970.66,-7.91"/>
</a>
</g>
</g>
<!-- Node18 -->
<g id="Node000018" class="node">
<title>Node18</title>
<g id="a_Node000018"><a xlink:title=" ">
<polygon fill="#e0e0e0" stroke="#999999" points="1693.75,-153.38 1580.25,-153.38 1580.25,-132.62 1693.75,-132.62 1693.75,-153.38"/>
<text text-anchor="middle" x="1637" y="-139.88" font-family="Helvetica,sans-Serif" font-size="10.00">deal.II/base/config.h</text>
</a>
</g>
</g>
<!-- Node17&#45;&gt;Node18 -->
<g id="edge22_Node000017_Node000018" class="edge">
<title>Node17&#45;&gt;Node18</title>
<g id="a_edge22_Node000017_Node000018"><a xlink:title=" ">
<path fill="none" stroke="#63b8ff" d="M1523.69,-195.33C1548.48,-184.1 1581.22,-169.27 1605.13,-158.44"/>
<polygon fill="#63b8ff" stroke="#63b8ff" points="1606.39,-161.71 1614.05,-154.4 1603.5,-155.33 1606.39,-161.71"/>
</a>
</g>
</g>
<!-- Node19 -->
<g id="Node000019" class="node">
<title>Node19</title>
<g id="a_Node000019"><a xlink:title=" ">
<polygon fill="#e0e0e0" stroke="#999999" points="1845.88,-153.38 1712.12,-153.38 1712.12,-132.62 1845.88,-132.62 1845.88,-153.38"/>
<text text-anchor="middle" x="1779" y="-139.88" font-family="Helvetica,sans-Serif" font-size="10.00">deal.II/base/logstream.h</text>
</a>
</g>
</g>
<!-- Node17&#45;&gt;Node19 -->
<g id="edge24_Node000017_Node000019" class="edge">
<title>Node17&#45;&gt;Node19</title>
<g id="a_edge24_Node000017_Node000019"><a xlink:title=" ">
<path fill="none" stroke="#63b8ff" d="M1537.5,-199.02C1542.06,-197.9 1546.61,-196.8 1551,-195.75 1609.73,-181.75 1677.18,-166.55 1723.39,-156.27"/>
<polygon fill="#63b8ff" stroke="#63b8ff" points="1723.89,-159.74 1732.89,-154.16 1722.37,-152.91 1723.89,-159.74"/>
</a>
</g>
</g>
<!-- Node20 -->
<g id="Node000020" class="node">
<title>Node20</title>
<g id="a_Node000020"><a xlink:title=" ">
<polygon fill="#e0e0e0" stroke="#999999" points="1966.5,-153.38 1863.5,-153.38 1863.5,-132.62 1966.5,-132.62 1966.5,-153.38"/>
<text text-anchor="middle" x="1915" y="-139.88" font-family="Helvetica,sans-Serif" font-size="10.00">deal.II/base/mpi.h</text>
</a>
</g>
</g>
<!-- Node17&#45;&gt;Node20 -->
<g id="edge25_Node000017_Node000020" class="edge">
<title>Node17&#45;&gt;Node20</title>
<g id="a_edge25_Node000017_Node000020"><a xlink:title=" ">
<path fill="none" stroke="#63b8ff" d="M1537.74,-198.45C1542.21,-197.46 1546.68,-196.54 1551,-195.75 1684.82,-171.2 1721.32,-185.08 1855,-159.75 1859.89,-158.82 1864.98,-157.72 1870.02,-156.53"/>
<polygon fill="#63b8ff" stroke="#63b8ff" points="1870.59,-159.99 1879.45,-154.19 1868.9,-153.2 1870.59,-159.99"/>
</a>
</g>
</g>
<!-- Node21 -->
<g id="Node000021" class="node">
<title>Node21</title>
<g id="a_Node000021"><a xlink:title=" ">
<polygon fill="#e0e0e0" stroke="#999999" points="2093.5,-153.38 1984.5,-153.38 1984.5,-132.62 2093.5,-132.62 2093.5,-153.38"/>
<text text-anchor="middle" x="2039" y="-139.88" font-family="Helvetica,sans-Serif" font-size="10.00">deal.II/base/point.h</text>
</a>
</g>
</g>
<!-- Node17&#45;&gt;Node21 -->
<g id="edge26_Node000017_Node000021" class="edge">
<title>Node17&#45;&gt;Node21</title>
<g id="a_edge26_Node000017_Node000021"><a xlink:title=" ">
<path fill="none" stroke="#63b8ff" d="M1537.71,-198.29C1542.18,-197.34 1546.66,-196.47 1551,-195.75 1738,-164.66 1789,-190.84 1976,-159.75 1981.56,-158.83 1987.35,-157.66 1993.06,-156.39"/>
<polygon fill="#63b8ff" stroke="#63b8ff" points="1993.49,-159.88 2002.42,-154.18 1991.88,-153.07 1993.49,-159.88"/>
</a>
</g>
</g>
<!-- Node22 -->
<g id="Node000022" class="node">
<title>Node22</title>
<g id="a_Node000022"><a xlink:title=" ">
<polygon fill="#e0e0e0" stroke="#999999" points="2226.12,-153.38 2111.88,-153.38 2111.88,-132.62 2226.12,-132.62 2226.12,-153.38"/>
<text text-anchor="middle" x="2169" y="-139.88" font-family="Helvetica,sans-Serif" font-size="10.00">deal.II/base/tensor.h</text>
</a>
</g>
</g>
<!-- Node17&#45;&gt;Node22 -->
<g id="edge27_Node000017_Node000022" class="edge">
<title>Node17&#45;&gt;Node22</title>
<g id="a_edge27_Node000017_Node000022"><a xlink:title=" ">
<path fill="none" stroke="#63b8ff" d="M1537.69,-198.2C1542.17,-197.27 1546.66,-196.43 1551,-195.75 1793.91,-157.78 1859.89,-196.41 2103,-159.75 2109.04,-158.84 2115.35,-157.65 2121.56,-156.33"/>
<polygon fill="#63b8ff" stroke="#63b8ff" points="2122.1,-159.8 2131.08,-154.19 2120.56,-152.97 2122.1,-159.8"/>
</a>
</g>
</g>
<!-- Node23 -->
<g id="Node000023" class="node">
<title>Node23</title>
<g id="a_Node000023"><a xlink:title=" ">
<polygon fill="#e0e0e0" stroke="#999999" points="2355.62,-153.38 2244.38,-153.38 2244.38,-132.62 2355.62,-132.62 2355.62,-153.38"/>
<text text-anchor="middle" x="2300" y="-139.88" font-family="Helvetica,sans-Serif" font-size="10.00">deal.II/base/types.h</text>
</a>
</g>
</g>
<!-- Node17&#45;&gt;Node23 -->
<g id="edge28_Node000017_Node000023" class="edge">
<title>Node17&#45;&gt;Node23</title>
<g id="a_edge28_Node000017_Node000023"><a xlink:title=" ">
<path fill="none" stroke="#63b8ff" d="M1537.69,-198.14C1542.17,-197.22 1546.65,-196.4 1551,-195.75 1852.06,-150.62 1933.78,-203.78 2235,-159.75 2241.03,-158.87 2247.32,-157.69 2253.51,-156.36"/>
<polygon fill="#63b8ff" stroke="#63b8ff" points="2254.02,-159.84 2263,-154.2 2252.47,-153.01 2254.02,-159.84"/>
</a>
</g>
</g>
<!-- Node24 -->
<g id="Node000024" class="node">
<title>Node24</title>
<g id="a_Node000024"><a xlink:title=" ">
<polygon fill="#e0e0e0" stroke="#999999" points="1591,-83.88 1443,-83.88 1443,-63.12 1591,-63.12 1591,-83.88"/>
<text text-anchor="middle" x="1517" y="-70.38" font-family="Helvetica,sans-Serif" font-size="10.00">deal.II/base/vectorization.h</text>
</a>
</g>
</g>
<!-- Node17&#45;&gt;Node24 -->
<g id="edge30_Node000017_Node000024" class="edge">
<title>Node17&#45;&gt;Node24</title>
<g id="a_edge30_Node000017_Node000024"><a xlink:title=" ">
<path fill="none" stroke="#63b8ff" d="M1507.43,-195.44C1517.11,-186.15 1527.83,-173.58 1533,-159.75 1541.01,-138.33 1533.89,-112.33 1526.77,-94.71"/>
<polygon fill="#63b8ff" stroke="#63b8ff" points="1530,-93.36 1522.75,-85.64 1523.6,-96.2 1530,-93.36"/>
</a>
</g>
</g>
<!-- Node25 -->
<g id="Node000025" class="node">
<title>Node25</title>
<g id="a_Node000025"><a xlink:title=" ">
<polygon fill="#e0e0e0" stroke="#999999" points="2557.5,-153.38 2412.5,-153.38 2412.5,-132.62 2557.5,-132.62 2557.5,-153.38"/>
<text text-anchor="middle" x="2485" y="-139.88" font-family="Helvetica,sans-Serif" font-size="10.00">boost/range/algorithm.hpp</text>
</a>
</g>
</g>
<!-- Node17&#45;&gt;Node25 -->
<g id="edge32_Node000017_Node000025" class="edge">
<title>Node17&#45;&gt;Node25</title>
<g id="a_edge32_Node000017_Node000025"><a xlink:title=" ">
<path fill="none" stroke="#63b8ff" d="M1537.68,-198.09C1542.16,-197.18 1546.65,-196.38 1551,-195.75 1923.9,-141.78 2023.53,-201.41 2398,-159.75 2407.11,-158.74 2416.7,-157.34 2426.06,-155.79"/>
<polygon fill="#63b8ff" stroke="#63b8ff" points="2426.56,-159.26 2435.82,-154.1 2425.37,-152.36 2426.56,-159.26"/>
</a>
</g>
</g>
<!-- Node26 -->
<g id="Node000026" class="node">
<title>Node26</title>
<g id="a_Node000026"><a xlink:title=" ">
<polygon fill="#e0e0e0" stroke="#999999" points="1280,-159.75 1156,-159.75 1156,-126.25 1280,-126.25 1280,-159.75"/>
<text text-anchor="start" x="1164" y="-146.25" font-family="Helvetica,sans-Serif" font-size="10.00">boost/range/algorithm</text>
<text text-anchor="middle" x="1218" y="-133.5" font-family="Helvetica,sans-Serif" font-size="10.00">_ext.hpp</text>
</a>
</g>
</g>
<!-- Node17&#45;&gt;Node26 -->
<g id="edge33_Node000017_Node000026" class="edge">
<title>Node17&#45;&gt;Node26</title>
<g id="a_edge33_Node000017_Node000026"><a xlink:title=" ">
<path fill="none" stroke="#63b8ff" d="M1438.48,-199.12C1397.18,-188.8 1337.76,-173.94 1291.01,-162.25"/>
<polygon fill="#63b8ff" stroke="#63b8ff" points="1292.04,-158.9 1281.49,-159.87 1290.34,-165.69 1292.04,-158.9"/>
</a>
</g>
</g>
<!-- Node27 -->
<g id="Node000027" class="node">
<title>Node27</title>
<g id="a_Node000027"><a xlink:href="vectorized__operations_8h.html" target="_top" xlink:title=" ">
<polygon fill="white" stroke="#666666" points="1434,-159.75 1298,-159.75 1298,-126.25 1434,-126.25 1434,-159.75"/>
<text text-anchor="start" x="1306" y="-146.25" font-family="Helvetica,sans-Serif" font-size="10.00">prismspf/utilities</text>
<text text-anchor="middle" x="1366" y="-133.5" font-family="Helvetica,sans-Serif" font-size="10.00">/vectorized_operations.h</text>
</a>
</g>
</g>
<!-- Node17&#45;&gt;Node27 -->
<g id="edge34_Node000017_Node000027" class="edge">
<title>Node17&#45;&gt;Node27</title>
<g id="a_edge34_Node000017_Node000027"><a xlink:title=" ">
<path fill="none" stroke="#63b8ff" d="M1458.78,-195.33C1442.63,-186.4 1422.36,-175.19 1404.89,-165.52"/>
<polygon fill="#63b8ff" stroke="#63b8ff" points="1406.75,-162.55 1396.31,-160.77 1403.36,-168.67 1406.75,-162.55"/>
</a>
</g>
</g>
<!-- Node29 -->
<g id="Node000029" class="node">
<title>Node29</title>
<g id="a_Node000029"><a xlink:title=" ">
<polygon fill="#e0e0e0" stroke="#999999" points="1524.12,-153.38 1451.88,-153.38 1451.88,-132.62 1524.12,-132.62 1524.12,-153.38"/>
<text text-anchor="middle" x="1488" y="-139.88" font-family="Helvetica,sans-Serif" font-size="10.00">string_view</text>
</a>
</g>
</g>
<!-- Node17&#45;&gt;Node29 -->
<g id="edge40_Node000017_Node000029" class="edge">
<title>Node17&#45;&gt;Node29</title>
<g id="a_edge40_Node000017_Node000029"><a xlink:title=" ">
<path fill="none" stroke="#63b8ff" d="M1488,-195.5C1488,-186.4 1488,-174.89 1488,-165.07"/>
<polygon fill="#63b8ff" stroke="#63b8ff" points="1491.5,-165.34 1488,-155.34 1484.5,-165.34 1491.5,-165.34"/>
</a>
</g>
</g>
<!-- Node17&#45;&gt;Node30 -->
<g id="edge41_Node000017_Node000030" class="edge">
<title>Node17&#45;&gt;Node30</title>
<g id="a_edge41_Node000017_Node000030"><a xlink:title=" ">
<path fill="none" stroke="#63b8ff" d="M1537.67,-198.06C1542.16,-197.16 1546.65,-196.36 1551,-195.75 1998.41,-132.61 2120.73,-230.47 2567,-159.75 2571.75,-159 2576.66,-157.97 2581.51,-156.79"/>
<polygon fill="#63b8ff" stroke="#63b8ff" points="2582.38,-160.18 2591.15,-154.23 2580.59,-153.42 2582.38,-160.18"/>
</a>
</g>
</g>
<!-- Node27&#45;&gt;Node7 -->
<g id="edge36_Node000027_Node000007" class="edge">
<title>Node27&#45;&gt;Node7</title>
<g id="a_edge36_Node000027_Node000007"><a xlink:title=" ">
<path fill="none" stroke="#63b8ff" d="M1297.58,-127.93C1294.68,-127.36 1291.81,-126.8 1289,-126.25 1122.19,-93.78 1080.71,-84.22 913,-56.75 804.84,-39.04 774.75,-37.56 662.53,-20.96"/>
<polygon fill="#63b8ff" stroke="#63b8ff" points="663.31,-17.53 652.9,-19.52 662.28,-24.46 663.31,-17.53"/>
</a>
</g>
</g>
<!-- Node27&#45;&gt;Node24 -->
<g id="edge35_Node000027_Node000024" class="edge">
<title>Node27&#45;&gt;Node24</title>
<g id="a_edge35_Node000027_Node000024"><a xlink:title=" ">
<path fill="none" stroke="#63b8ff" d="M1402.17,-125.83C1427.29,-114.6 1460.47,-99.77 1484.7,-88.94"/>
<polygon fill="#63b8ff" stroke="#63b8ff" points="1486.06,-92.17 1493.76,-84.89 1483.2,-85.77 1486.06,-92.17"/>
</a>
</g>
</g>
<!-- Node28 -->
<g id="Node000028" class="node">
<title>Node28</title>
<g id="a_Node000028"><a xlink:title=" ">
<polygon fill="#e0e0e0" stroke="#999999" points="1389.38,-83.88 1342.62,-83.88 1342.62,-63.12 1389.38,-63.12 1389.38,-83.88"/>
<text text-anchor="middle" x="1366" y="-70.38" font-family="Helvetica,sans-Serif" font-size="10.00">cmath</text>
</a>
</g>
</g>
<!-- Node27&#45;&gt;Node28 -->
<g id="edge37_Node000027_Node000028" class="edge">
<title>Node27&#45;&gt;Node28</title>
<g id="a_edge37_Node000027_Node000028"><a xlink:title=" ">
<path fill="none" stroke="#63b8ff" d="M1366,-126C1366,-116.9 1366,-105.39 1366,-95.57"/>
<polygon fill="#63b8ff" stroke="#63b8ff" points="1369.5,-95.84 1366,-85.84 1362.5,-95.84 1369.5,-95.84"/>
</a>
</g>
</g>
</g>
</svg>
