<?xml version="1.0" encoding="UTF-8" standalone="no"?>
<!DOCTYPE svg PUBLIC "-//W3C//DTD SVG 1.1//EN"
 "http://www.w3.org/Graphics/SVG/1.1/DTD/svg11.dtd">
<!-- Generated by graphviz version 12.2.1 (20241206.2353)
 -->
<!-- Title: include/prismspf/user_inputs/io_parameters.h Pages: 1 -->
<svg width="2560pt" height="307pt"
 viewBox="0.00 0.00 2560.25 306.75" xmlns="http://www.w3.org/2000/svg" xmlns:xlink="http://www.w3.org/1999/xlink">
<g id="graph0" class="graph" transform="scale(1 1) rotate(0) translate(4 302.75)">
<title>include/prismspf/user_inputs/io_parameters.h</title>
<!-- Node1 -->
<g id="Node000001" class="node">
<title>Node1</title>
<g id="a_Node000001"><a xlink:title=" ">
<polygon fill="#999999" stroke="#666666" points="900.88,-298.75 767.12,-298.75 767.12,-265.25 900.88,-265.25 900.88,-298.75"/>
<text text-anchor="start" x="775.12" y="-285.25" font-family="Helvetica,sans-Serif" font-size="10.00">include/prismspf/user</text>
<text text-anchor="middle" x="834" y="-272.5" font-family="Helvetica,sans-Serif" font-size="10.00">_inputs/io_parameters.h</text>
</a>
</g>
</g>
<!-- Node2 -->
<g id="Node000002" class="node">
<title>Node2</title>
<g id="a_Node000002"><a xlink:title=" ">
<polygon fill="#e0e0e0" stroke="#999999" points="118,-229.25 0,-229.25 0,-195.75 118,-195.75 118,-229.25"/>
<text text-anchor="start" x="8" y="-215.75" font-family="Helvetica,sans-Serif" font-size="10.00">deal.II/base/data_out</text>
<text text-anchor="middle" x="59" y="-203" font-family="Helvetica,sans-Serif" font-size="10.00">_base.h</text>
</a>
</g>
</g>
<!-- Node1&#45;&gt;Node2 -->
<g id="edge1_Node000001_Node000002" class="edge">
<title>Node1&#45;&gt;Node2</title>
<g id="a_edge1_Node000001_Node000002"><a xlink:title=" ">
<path fill="none" stroke="#63b8ff" d="M766.84,-279.54C642.74,-276.08 369.05,-264.95 129.61,-229.49"/>
<polygon fill="#63b8ff" stroke="#63b8ff" points="130.14,-226.03 119.73,-228.01 129.1,-232.96 130.14,-226.03"/>
</a>
</g>
</g>
<!-- Node3 -->
<g id="Node000003" class="node">
<title>Node3</title>
<g id="a_Node000003"><a xlink:title=" ">
<polygon fill="#e0e0e0" stroke="#999999" points="945.5,-153.38 824.5,-153.38 824.5,-132.62 945.5,-132.62 945.5,-153.38"/>
<text text-anchor="middle" x="885" y="-139.88" font-family="Helvetica,sans-Serif" font-size="10.00">deal.II/base/utilities.h</text>
</a>
</g>
</g>
<!-- Node1&#45;&gt;Node3 -->
<g id="edge2_Node000001_Node000003" class="edge">
<title>Node1&#45;&gt;Node3</title>
<g id="a_edge2_Node000001_Node000003"><a xlink:title=" ">
<path fill="none" stroke="#63b8ff" d="M835.97,-264.81C838.46,-247.29 843.62,-218.78 853,-195.75 857.68,-184.25 864.8,-172.41 871.14,-162.96"/>
<polygon fill="#63b8ff" stroke="#63b8ff" points="873.84,-165.21 876.7,-155.01 868.1,-161.2 873.84,-165.21"/>
</a>
</g>
</g>
<!-- Node4 -->
<g id="Node000004" class="node">
<title>Node4</title>
<g id="a_Node000004"><a xlink:href="conditional__ostreams_8h.html" target="_top" xlink:title=" ">
<polygon fill="white" stroke="#666666" points="275.88,-229.25 136.12,-229.25 136.12,-195.75 275.88,-195.75 275.88,-229.25"/>
<text text-anchor="start" x="144.12" y="-215.75" font-family="Helvetica,sans-Serif" font-size="10.00">prismspf/core/conditional</text>
<text text-anchor="middle" x="206" y="-203" font-family="Helvetica,sans-Serif" font-size="10.00">_ostreams.h</text>
</a>
</g>
</g>
<!-- Node1&#45;&gt;Node4 -->
<g id="edge3_Node000001_Node000004" class="edge">
<title>Node1&#45;&gt;Node4</title>
<g id="a_edge3_Node000001_Node000004"><a xlink:title=" ">
<path fill="none" stroke="#63b8ff" d="M766.77,-276.57C663.8,-269.35 460.97,-253.36 290,-229.25 289.15,-229.13 288.29,-229.01 287.43,-228.88"/>
<polygon fill="#63b8ff" stroke="#63b8ff" points="287.96,-225.42 277.54,-227.36 286.89,-232.34 287.96,-225.42"/>
</a>
</g>
</g>
<!-- Node6 -->
<g id="Node000006" class="node">
<title>Node6</title>
<g id="a_Node000006"><a xlink:title=" ">
<polygon fill="#e0e0e0" stroke="#999999" points="535,-20.75 435,-20.75 435,0 535,0 535,-20.75"/>
<text text-anchor="middle" x="485" y="-7.25" font-family="Helvetica,sans-Serif" font-size="10.00">prismspf/config.h</text>
</a>
</g>
</g>
<!-- Node1&#45;&gt;Node6 -->
<g id="edge42_Node000001_Node000006" class="edge">
<title>Node1&#45;&gt;Node6</title>
<g id="a_edge42_Node000001_Node000006"><a xlink:title=" ">
<path fill="none" stroke="#63b8ff" d="M766.83,-281.64C655.25,-281.38 438.11,-274.82 379,-229.25 318.28,-182.44 327.22,-111.4 381,-56.75 395.32,-42.2 415.1,-31.99 433.56,-24.99"/>
<polygon fill="#63b8ff" stroke="#63b8ff" points="434.53,-28.36 442.8,-21.74 432.21,-21.76 434.53,-28.36"/>
</a>
</g>
</g>
<!-- Node7 -->
<g id="Node000007" class="node">
<title>Node7</title>
<g id="a_Node000007"><a xlink:href="exceptions_8h.html" target="_top" xlink:title=" ">
<polygon fill="white" stroke="#666666" points="536,-222.88 388,-222.88 388,-202.12 536,-202.12 536,-222.88"/>
<text text-anchor="middle" x="462" y="-209.38" font-family="Helvetica,sans-Serif" font-size="10.00">prismspf/core/exceptions.h</text>
</a>
</g>
</g>
<!-- Node1&#45;&gt;Node7 -->
<g id="edge6_Node000001_Node000007" class="edge">
<title>Node1&#45;&gt;Node7</title>
<g id="a_edge6_Node000001_Node000007"><a xlink:title=" ">
<path fill="none" stroke="#63b8ff" d="M766.63,-268.78C698.75,-256.46 594.67,-237.57 527.47,-225.38"/>
<polygon fill="#63b8ff" stroke="#63b8ff" points="528.14,-221.94 517.68,-223.6 526.89,-228.83 528.14,-221.94"/>
</a>
</g>
</g>
<!-- Node9 -->
<g id="Node000009" class="node">
<title>Node9</title>
<g id="a_Node000009"><a xlink:href="types_8h.html" target="_top" xlink:title=" ">
<polygon fill="white" stroke="#666666" points="573.88,-153.38 452.12,-153.38 452.12,-132.62 573.88,-132.62 573.88,-153.38"/>
<text text-anchor="middle" x="513" y="-139.88" font-family="Helvetica,sans-Serif" font-size="10.00">prismspf/core/types.h</text>
</a>
</g>
</g>
<!-- Node1&#45;&gt;Node9 -->
<g id="edge18_Node000001_Node000009" class="edge">
<title>Node1&#45;&gt;Node9</title>
<g id="a_edge18_Node000001_Node000009"><a xlink:title=" ">
<path fill="none" stroke="#63b8ff" d="M766.72,-278.29C714.81,-273.6 642.84,-261.26 588,-229.25 560.29,-213.08 537.5,-183.01 524.57,-163.26"/>
<polygon fill="#63b8ff" stroke="#63b8ff" points="527.68,-161.62 519.4,-155.02 521.76,-165.35 527.68,-161.62"/>
</a>
</g>
</g>
<!-- Node11 -->
<g id="Node000011" class="node">
<title>Node11</title>
<g id="a_Node000011"><a xlink:href="type__enums_8h.html" target="_top" xlink:title=" ">
<polygon fill="white" stroke="#666666" points="628.75,-90.25 521.25,-90.25 521.25,-56.75 628.75,-56.75 628.75,-90.25"/>
<text text-anchor="start" x="529.25" y="-76.75" font-family="Helvetica,sans-Serif" font-size="10.00">prismspf/core/type</text>
<text text-anchor="middle" x="575" y="-64" font-family="Helvetica,sans-Serif" font-size="10.00">_enums.h</text>
</a>
</g>
</g>
<!-- Node1&#45;&gt;Node11 -->
<g id="edge17_Node000001_Node000011" class="edge">
<title>Node1&#45;&gt;Node11</title>
<g id="a_edge17_Node000001_Node000011"><a xlink:title=" ">
<path fill="none" stroke="#63b8ff" d="M790.57,-264.79C743.93,-245.59 669.93,-209.8 621,-159.75 604.64,-143.02 592.48,-119.29 584.78,-101.12"/>
<polygon fill="#63b8ff" stroke="#63b8ff" points="588.11,-100.01 581.13,-92.04 581.61,-102.62 588.11,-100.01"/>
</a>
</g>
</g>
<!-- Node13 -->
<g id="Node000013" class="node">
<title>Node13</title>
<g id="a_Node000013"><a xlink:title=" ">
<polygon fill="#e0e0e0" stroke="#999999" points="842.88,-20.75 799.12,-20.75 799.12,0 842.88,0 842.88,-20.75"/>
<text text-anchor="middle" x="821" y="-7.25" font-family="Helvetica,sans-Serif" font-size="10.00">string</text>
</a>
</g>
</g>
<!-- Node1&#45;&gt;Node13 -->
<g id="edge46_Node000001_Node000013" class="edge">
<title>Node1&#45;&gt;Node13</title>
<g id="a_edge46_Node000001_Node000013"><a xlink:title=" ">
<path fill="none" stroke="#63b8ff" d="M830.86,-265C826.49,-241.88 818.8,-197.74 816,-159.75 814.9,-144.9 815.68,-141.14 816,-126.25 816.71,-93.57 818.56,-55.69 819.8,-32.64"/>
<polygon fill="#63b8ff" stroke="#63b8ff" points="823.29,-32.89 820.34,-22.72 816.3,-32.51 823.29,-32.89"/>
</a>
</g>
</g>
<!-- Node15 -->
<g id="Node000015" class="node">
<title>Node15</title>
<g id="a_Node000015"><a xlink:title=" ">
<polygon fill="#e0e0e0" stroke="#999999" points="987.75,-229.25 862.25,-229.25 862.25,-195.75 987.75,-195.75 987.75,-229.25"/>
<text text-anchor="start" x="870.25" y="-215.75" font-family="Helvetica,sans-Serif" font-size="10.00">prismspf/core/variable</text>
<text text-anchor="middle" x="925" y="-203" font-family="Helvetica,sans-Serif" font-size="10.00">_attributes.h</text>
</a>
</g>
</g>
<!-- Node1&#45;&gt;Node15 -->
<g id="edge19_Node000001_Node000015" class="edge">
<title>Node1&#45;&gt;Node15</title>
<g id="a_edge19_Node000001_Node000015"><a xlink:title=" ">
<path fill="none" stroke="#63b8ff" d="M855.57,-265C867.15,-256.41 881.64,-245.66 894.37,-236.22"/>
<polygon fill="#63b8ff" stroke="#63b8ff" points="896.11,-239.29 902.06,-230.52 891.94,-233.66 896.11,-239.29"/>
</a>
</g>
</g>
<!-- Node16 -->
<g id="Node000016" class="node">
<title>Node16</title>
<g id="a_Node000016"><a xlink:title=" ">
<polygon fill="#e0e0e0" stroke="#999999" points="1124,-229.25 1006,-229.25 1006,-195.75 1124,-195.75 1124,-229.25"/>
<text text-anchor="start" x="1014" y="-215.75" font-family="Helvetica,sans-Serif" font-size="10.00">prismspf/user_inputs</text>
<text text-anchor="middle" x="1065" y="-203" font-family="Helvetica,sans-Serif" font-size="10.00">/parameter_base.h</text>
</a>
</g>
</g>
<!-- Node1&#45;&gt;Node16 -->
<g id="edge20_Node000001_Node000016" class="edge">
<title>Node1&#45;&gt;Node16</title>
<g id="a_edge20_Node000001_Node000016"><a xlink:title=" ">
<path fill="none" stroke="#63b8ff" d="M889.33,-264.83C922.21,-255.22 964.12,-242.98 998.75,-232.86"/>
<polygon fill="#63b8ff" stroke="#63b8ff" points="999.65,-236.24 1008.27,-230.08 997.69,-229.52 999.65,-236.24"/>
</a>
</g>
</g>
<!-- Node17 -->
<g id="Node000017" class="node">
<title>Node17</title>
<g id="a_Node000017"><a xlink:href="utilities_8h.html" target="_top" xlink:title=" ">
<polygon fill="white" stroke="#666666" points="1421.25,-229.25 1322.75,-229.25 1322.75,-195.75 1421.25,-195.75 1421.25,-229.25"/>
<text text-anchor="start" x="1330.75" y="-215.75" font-family="Helvetica,sans-Serif" font-size="10.00">prismspf/utilities</text>
<text text-anchor="middle" x="1372" y="-203" font-family="Helvetica,sans-Serif" font-size="10.00">/utilities.h</text>
</a>
</g>
</g>
<!-- Node1&#45;&gt;Node17 -->
<g id="edge21_Node000001_Node000017" class="edge">
<title>Node1&#45;&gt;Node17</title>
<g id="a_edge21_Node000001_Node000017"><a xlink:title=" ">
<path fill="none" stroke="#63b8ff" d="M901.32,-272.55C1006.93,-259.3 1209.92,-233.83 1311.29,-221.12"/>
<polygon fill="#63b8ff" stroke="#63b8ff" points="1311.56,-224.61 1321.05,-219.89 1310.69,-217.66 1311.56,-224.61"/>
</a>
</g>
</g>
<!-- Node30 -->
<g id="Node000030" class="node">
<title>Node30</title>
<g id="a_Node000030"><a xlink:title=" ">
<polygon fill="#e0e0e0" stroke="#999999" points="2552.25,-153.38 2459.75,-153.38 2459.75,-132.62 2552.25,-132.62 2552.25,-153.38"/>
<text text-anchor="middle" x="2506" y="-139.88" font-family="Helvetica,sans-Serif" font-size="10.00">unordered_map</text>
</a>
</g>
</g>
<!-- Node1&#45;&gt;Node30 -->
<g id="edge47_Node000001_Node000030" class="edge">
<title>Node1&#45;&gt;Node30</title>
<g id="a_edge47_Node000001_Node000030"><a xlink:title=" ">
<path fill="none" stroke="#63b8ff" d="M901.15,-280.31C1036.27,-278.1 1336.12,-268.74 1430,-229.25 1451.06,-220.39 1447.72,-204.08 1469,-195.75 1570.67,-155.95 2343.17,-176.9 2451,-159.75 2455.75,-159 2460.66,-157.96 2465.51,-156.79"/>
<polygon fill="#63b8ff" stroke="#63b8ff" points="2466.38,-160.18 2475.15,-154.23 2464.58,-153.41 2466.38,-160.18"/>
</a>
</g>
</g>
<!-- Node31 -->
<g id="Node000031" class="node">
<title>Node31</title>
<g id="a_Node000031"><a xlink:title=" ">
<polygon fill="#e0e0e0" stroke="#999999" points="1526.5,-222.88 1477.5,-222.88 1477.5,-202.12 1526.5,-202.12 1526.5,-222.88"/>
<text text-anchor="middle" x="1502" y="-209.38" font-family="Helvetica,sans-Serif" font-size="10.00">climits</text>
</a>
</g>
</g>
<!-- Node1&#45;&gt;Node31 -->
<g id="edge43_Node000001_Node000031" class="edge">
<title>Node1&#45;&gt;Node31</title>
<g id="a_edge43_Node000001_Node000031"><a xlink:title=" ">
<path fill="none" stroke="#63b8ff" d="M901.3,-278.03C1040.91,-271.45 1357.79,-254.21 1463,-229.25 1465.42,-228.67 1467.9,-227.97 1470.36,-227.19"/>
<polygon fill="#63b8ff" stroke="#63b8ff" points="1471.29,-230.57 1479.5,-223.87 1468.91,-223.99 1471.29,-230.57"/>
</a>
</g>
</g>
<!-- Node32 -->
<g id="Node000032" class="node">
<title>Node32</title>
<g id="a_Node000032"><a xlink:title=" ">
<polygon fill="#e0e0e0" stroke="#999999" points="1607.62,-222.88 1544.38,-222.88 1544.38,-202.12 1607.62,-202.12 1607.62,-222.88"/>
<text text-anchor="middle" x="1576" y="-209.38" font-family="Helvetica,sans-Serif" font-size="10.00">execution</text>
</a>
</g>
</g>
<!-- Node1&#45;&gt;Node32 -->
<g id="edge44_Node000001_Node000032" class="edge">
<title>Node1&#45;&gt;Node32</title>
<g id="a_edge44_Node000001_Node000032"><a xlink:title=" ">
<path fill="none" stroke="#63b8ff" d="M901.27,-278.62C1052.69,-272.85 1416.41,-256.54 1536,-229.25 1538.64,-228.65 1541.34,-227.9 1544.02,-227.06"/>
<polygon fill="#63b8ff" stroke="#63b8ff" points="1545.12,-230.38 1553.36,-223.73 1542.77,-223.79 1545.12,-230.38"/>
</a>
</g>
</g>
<!-- Node33 -->
<g id="Node000033" class="node">
<title>Node33</title>
<g id="a_Node000033"><a xlink:title=" ">
<polygon fill="#e0e0e0" stroke="#999999" points="1656.5,-222.88 1625.5,-222.88 1625.5,-202.12 1656.5,-202.12 1656.5,-222.88"/>
<text text-anchor="middle" x="1641" y="-209.38" font-family="Helvetica,sans-Serif" font-size="10.00">set</text>
</a>
</g>
</g>
<!-- Node1&#45;&gt;Node33 -->
<g id="edge45_Node000001_Node000033" class="edge">
<title>Node1&#45;&gt;Node33</title>
<g id="a_edge45_Node000001_Node000033"><a xlink:title=" ">
<path fill="none" stroke="#63b8ff" d="M901.18,-280.93C1065.75,-280.06 1485.16,-273.43 1617,-229.25 1617.65,-229.03 1618.3,-228.79 1618.95,-228.53"/>
<polygon fill="#63b8ff" stroke="#63b8ff" points="1620.46,-231.69 1627.6,-223.86 1617.14,-225.53 1620.46,-231.69"/>
</a>
</g>
</g>
<!-- Node5 -->
<g id="Node000005" class="node">
<title>Node5</title>
<g id="a_Node000005"><a xlink:title=" ">
<polygon fill="#e0e0e0" stroke="#999999" points="237.62,-159.75 108.38,-159.75 108.38,-126.25 237.62,-126.25 237.62,-159.75"/>
<text text-anchor="start" x="116.38" y="-146.25" font-family="Helvetica,sans-Serif" font-size="10.00">deal.II/base/conditional</text>
<text text-anchor="middle" x="173" y="-133.5" font-family="Helvetica,sans-Serif" font-size="10.00">_ostream.h</text>
</a>
</g>
</g>
<!-- Node4&#45;&gt;Node5 -->
<g id="edge4_Node000004_Node000005" class="edge">
<title>Node4&#45;&gt;Node5</title>
<g id="a_edge4_Node000004_Node000005"><a xlink:title=" ">
<path fill="none" stroke="#63b8ff" d="M198.18,-195.5C194.48,-187.94 189.97,-178.71 185.79,-170.16"/>
<polygon fill="#63b8ff" stroke="#63b8ff" points="188.97,-168.69 181.43,-161.24 182.68,-171.76 188.97,-168.69"/>
</a>
</g>
</g>
<!-- Node4&#45;&gt;Node6 -->
<g id="edge5_Node000004_Node000006" class="edge">
<title>Node4&#45;&gt;Node6</title>
<g id="a_edge5_Node000004_Node000006"><a xlink:title=" ">
<path fill="none" stroke="#63b8ff" d="M220.52,-195.56C228.98,-185.73 239.43,-172.59 247,-159.75 272.2,-117.02 252.12,-88.78 290,-56.75 310.01,-39.83 374.07,-27.1 423.37,-19.5"/>
<polygon fill="#63b8ff" stroke="#63b8ff" points="423.73,-22.98 433.1,-18.04 422.69,-16.06 423.73,-22.98"/>
</a>
</g>
</g>
<!-- Node7&#45;&gt;Node6 -->
<g id="edge15_Node000007_Node000006" class="edge">
<title>Node7&#45;&gt;Node6</title>
<g id="a_edge15_Node000007_Node000006"><a xlink:title=" ">
<path fill="none" stroke="#63b8ff" d="M421.11,-201.67C399.21,-194.1 374.1,-181.18 361,-159.75 353.23,-147.05 355.04,-139.89 361,-126.25 380.63,-81.31 427.47,-46.09 457.63,-27.05"/>
<polygon fill="#63b8ff" stroke="#63b8ff" points="459.16,-30.22 465.87,-22.01 455.51,-24.25 459.16,-30.22"/>
</a>
</g>
</g>
<!-- Node8 -->
<g id="Node000008" class="node">
<title>Node8</title>
<g id="a_Node000008"><a xlink:title=" ">
<polygon fill="#e0e0e0" stroke="#999999" points="767.75,-153.38 630.25,-153.38 630.25,-132.62 767.75,-132.62 767.75,-153.38"/>
<text text-anchor="middle" x="699" y="-139.88" font-family="Helvetica,sans-Serif" font-size="10.00">deal.II/base/exceptions.h</text>
</a>
</g>
</g>
<!-- Node7&#45;&gt;Node8 -->
<g id="edge7_Node000007_Node000008" class="edge">
<title>Node7&#45;&gt;Node8</title>
<g id="a_edge7_Node000007_Node000008"><a xlink:title=" ">
<path fill="none" stroke="#63b8ff" d="M496.46,-201.68C537.97,-189.86 607.83,-169.97 653.68,-156.91"/>
<polygon fill="#63b8ff" stroke="#63b8ff" points="654.38,-160.35 663.04,-154.24 652.46,-153.61 654.38,-160.35"/>
</a>
</g>
</g>
<!-- Node7&#45;&gt;Node9 -->
<g id="edge8_Node000007_Node000009" class="edge">
<title>Node7&#45;&gt;Node9</title>
<g id="a_edge8_Node000007_Node000009"><a xlink:title=" ">
<path fill="none" stroke="#63b8ff" d="M469.31,-201.83C477.03,-191.6 489.41,-175.23 499.02,-162.5"/>
<polygon fill="#63b8ff" stroke="#63b8ff" points="501.56,-164.95 504.79,-154.86 495.97,-160.73 501.56,-164.95"/>
</a>
</g>
</g>
<!-- Node14 -->
<g id="Node000014" class="node">
<title>Node14</title>
<g id="a_Node000014"><a xlink:title=" ">
<polygon fill="#e0e0e0" stroke="#999999" points="434,-153.38 370,-153.38 370,-132.62 434,-132.62 434,-153.38"/>
<text text-anchor="middle" x="402" y="-139.88" font-family="Helvetica,sans-Serif" font-size="10.00">exception</text>
</a>
</g>
</g>
<!-- Node7&#45;&gt;Node14 -->
<g id="edge16_Node000007_Node000014" class="edge">
<title>Node7&#45;&gt;Node14</title>
<g id="a_edge16_Node000007_Node000014"><a xlink:title=" ">
<path fill="none" stroke="#63b8ff" d="M453.4,-201.83C444.23,-191.5 429.47,-174.9 418.12,-162.13"/>
<polygon fill="#63b8ff" stroke="#63b8ff" points="420.85,-159.93 411.59,-154.78 415.61,-164.58 420.85,-159.93"/>
</a>
</g>
</g>
<!-- Node9&#45;&gt;Node6 -->
<g id="edge14_Node000009_Node000006" class="edge">
<title>Node9&#45;&gt;Node6</title>
<g id="a_edge14_Node000009_Node000006"><a xlink:title=" ">
<path fill="none" stroke="#63b8ff" d="M510.9,-132.18C506.35,-110.99 495.55,-60.58 489.43,-32.03"/>
<polygon fill="#63b8ff" stroke="#63b8ff" points="492.89,-31.48 487.37,-22.43 486.04,-32.94 492.89,-31.48"/>
</a>
</g>
</g>
<!-- Node10 -->
<g id="Node000010" class="node">
<title>Node10</title>
<g id="a_Node000010"><a xlink:title=" ">
<polygon fill="#e0e0e0" stroke="#999999" points="755.12,-90.25 646.88,-90.25 646.88,-56.75 755.12,-56.75 755.12,-90.25"/>
<text text-anchor="start" x="654.88" y="-76.75" font-family="Helvetica,sans-Serif" font-size="10.00">deal.II/matrix_free</text>
<text text-anchor="middle" x="701" y="-64" font-family="Helvetica,sans-Serif" font-size="10.00">/evaluation_flags.h</text>
</a>
</g>
</g>
<!-- Node9&#45;&gt;Node10 -->
<g id="edge9_Node000009_Node000010" class="edge">
<title>Node9&#45;&gt;Node10</title>
<g id="a_edge9_Node000009_Node000010"><a xlink:title=" ">
<path fill="none" stroke="#63b8ff" d="M540.34,-132.18C567.75,-122.34 610.74,-106.91 645.35,-94.48"/>
<polygon fill="#63b8ff" stroke="#63b8ff" points="646.15,-97.91 654.38,-91.24 643.78,-91.32 646.15,-97.91"/>
</a>
</g>
</g>
<!-- Node9&#45;&gt;Node11 -->
<g id="edge10_Node000009_Node000011" class="edge">
<title>Node9&#45;&gt;Node11</title>
<g id="a_edge10_Node000009_Node000011"><a xlink:title=" ">
<path fill="none" stroke="#63b8ff" d="M521.88,-132.33C529.83,-123.67 541.84,-110.61 552.42,-99.08"/>
<polygon fill="#63b8ff" stroke="#63b8ff" points="554.94,-101.52 559.12,-91.78 549.78,-96.78 554.94,-101.52"/>
</a>
</g>
</g>
<!-- Node11&#45;&gt;Node6 -->
<g id="edge11_Node000011_Node000006" class="edge">
<title>Node11&#45;&gt;Node6</title>
<g id="a_edge11_Node000011_Node000006"><a xlink:title=" ">
<path fill="none" stroke="#63b8ff" d="M551.35,-56.44C538.24,-47.53 521.97,-36.49 508.83,-27.56"/>
<polygon fill="#63b8ff" stroke="#63b8ff" points="510.98,-24.79 500.74,-22.07 507.05,-30.58 510.98,-24.79"/>
</a>
</g>
</g>
<!-- Node12 -->
<g id="Node000012" class="node">
<title>Node12</title>
<g id="a_Node000012"><a xlink:title=" ">
<polygon fill="#e0e0e0" stroke="#999999" points="602.5,-20.75 553.5,-20.75 553.5,0 602.5,0 602.5,-20.75"/>
<text text-anchor="middle" x="578" y="-7.25" font-family="Helvetica,sans-Serif" font-size="10.00">cstdint</text>
</a>
</g>
</g>
<!-- Node11&#45;&gt;Node12 -->
<g id="edge12_Node000011_Node000012" class="edge">
<title>Node11&#45;&gt;Node12</title>
<g id="a_edge12_Node000011_Node000012"><a xlink:title=" ">
<path fill="none" stroke="#63b8ff" d="M575.79,-56.44C576.15,-49.1 576.58,-40.32 576.97,-32.46"/>
<polygon fill="#63b8ff" stroke="#63b8ff" points="580.45,-32.89 577.44,-22.73 573.46,-32.55 580.45,-32.89"/>
</a>
</g>
</g>
<!-- Node11&#45;&gt;Node13 -->
<g id="edge13_Node000011_Node000013" class="edge">
<title>Node11&#45;&gt;Node13</title>
<g id="a_edge13_Node000011_Node000013"><a xlink:title=" ">
<path fill="none" stroke="#63b8ff" d="M628.95,-59C632.01,-58.24 635.05,-57.49 638,-56.75 690.31,-43.73 751.04,-28.68 787.72,-19.61"/>
<polygon fill="#63b8ff" stroke="#63b8ff" points="788.41,-23.04 797.27,-17.24 786.73,-16.25 788.41,-23.04"/>
</a>
</g>
</g>
<!-- Node17&#45;&gt;Node3 -->
<g id="edge29_Node000017_Node000003" class="edge">
<title>Node17&#45;&gt;Node3</title>
<g id="a_edge29_Node000017_Node000003"><a xlink:title=" ">
<path fill="none" stroke="#63b8ff" d="M1322.34,-206.59C1244.74,-198.62 1090.11,-181.55 960,-159.75 953.53,-158.67 946.76,-157.41 940.06,-156.1"/>
<polygon fill="#63b8ff" stroke="#63b8ff" points="940.88,-152.7 930.39,-154.15 939.5,-159.56 940.88,-152.7"/>
</a>
</g>
</g>
<!-- Node17&#45;&gt;Node6 -->
<g id="edge38_Node000017_Node000006" class="edge">
<title>Node17&#45;&gt;Node6</title>
<g id="a_edge38_Node000017_Node000006"><a xlink:title=" ">
<path fill="none" stroke="#63b8ff" d="M1322.51,-212.21C1253.99,-211.42 1127.74,-203.41 1031,-159.75 1009.86,-150.21 1011.98,-136.13 991,-126.25 911.67,-88.87 874.45,-131.38 797,-90.25 778.54,-80.45 782.57,-66.35 764,-56.75 761.58,-55.5 627.81,-34.08 546.4,-21.12"/>
<polygon fill="#63b8ff" stroke="#63b8ff" points="547.2,-17.7 536.78,-19.59 546.1,-24.62 547.2,-17.7"/>
</a>
</g>
</g>
<!-- Node17&#45;&gt;Node8 -->
<g id="edge23_Node000017_Node000008" class="edge">
<title>Node17&#45;&gt;Node8</title>
<g id="a_edge23_Node000017_Node000008"><a xlink:title=" ">
<path fill="none" stroke="#63b8ff" d="M1322.47,-207.58C1225.24,-199.72 1002.63,-180.99 816,-159.75 804.15,-158.4 791.64,-156.85 779.39,-155.26"/>
<polygon fill="#63b8ff" stroke="#63b8ff" points="780.1,-151.83 769.73,-153.99 779.19,-158.77 780.1,-151.83"/>
</a>
</g>
</g>
<!-- Node17&#45;&gt;Node10 -->
<g id="edge31_Node000017_Node000010" class="edge">
<title>Node17&#45;&gt;Node10</title>
<g id="a_edge31_Node000017_Node000010"><a xlink:title=" ">
<path fill="none" stroke="#63b8ff" d="M1322.37,-207.84C1234.53,-200.84 1055.51,-184.04 998,-159.75 975.68,-150.32 977.06,-136.27 955,-126.25 878.34,-91.42 851.36,-107.75 769,-90.25 768.18,-90.08 767.35,-89.9 766.52,-89.72"/>
<polygon fill="#63b8ff" stroke="#63b8ff" points="767.52,-86.36 757,-87.64 766.02,-93.19 767.52,-86.36"/>
</a>
</g>
</g>
<!-- Node17&#45;&gt;Node13 -->
<g id="edge39_Node000017_Node000013" class="edge">
<title>Node17&#45;&gt;Node13</title>
<g id="a_edge39_Node000017_Node000013"><a xlink:title=" ">
<path fill="none" stroke="#63b8ff" d="M1421.62,-196.54C1423.09,-196.25 1424.55,-195.99 1426,-195.75 1471.15,-188.29 2217.35,-192.81 2249,-159.75 2259.3,-148.99 2259.04,-137.24 2249,-126.25 2151.82,-19.84 1060.24,-11.95 854.38,-11.41"/>
<polygon fill="#63b8ff" stroke="#63b8ff" points="854.66,-7.91 844.66,-11.39 854.65,-14.91 854.66,-7.91"/>
</a>
</g>
</g>
<!-- Node18 -->
<g id="Node000018" class="node">
<title>Node18</title>
<g id="a_Node000018"><a xlink:title=" ">
<polygon fill="#e0e0e0" stroke="#999999" points="1577.75,-153.38 1464.25,-153.38 1464.25,-132.62 1577.75,-132.62 1577.75,-153.38"/>
<text text-anchor="middle" x="1521" y="-139.88" font-family="Helvetica,sans-Serif" font-size="10.00">deal.II/base/config.h</text>
</a>
</g>
</g>
<!-- Node17&#45;&gt;Node18 -->
<g id="edge22_Node000017_Node000018" class="edge">
<title>Node17&#45;&gt;Node18</title>
<g id="a_edge22_Node000017_Node000018"><a xlink:title=" ">
<path fill="none" stroke="#63b8ff" d="M1407.69,-195.33C1432.48,-184.1 1465.22,-169.27 1489.13,-158.44"/>
<polygon fill="#63b8ff" stroke="#63b8ff" points="1490.39,-161.71 1498.05,-154.4 1487.5,-155.33 1490.39,-161.71"/>
</a>
</g>
</g>
<!-- Node19 -->
<g id="Node000019" class="node">
<title>Node19</title>
<g id="a_Node000019"><a xlink:title=" ">
<polygon fill="#e0e0e0" stroke="#999999" points="1729.88,-153.38 1596.12,-153.38 1596.12,-132.62 1729.88,-132.62 1729.88,-153.38"/>
<text text-anchor="middle" x="1663" y="-139.88" font-family="Helvetica,sans-Serif" font-size="10.00">deal.II/base/logstream.h</text>
</a>
</g>
</g>
<!-- Node17&#45;&gt;Node19 -->
<g id="edge24_Node000017_Node000019" class="edge">
<title>Node17&#45;&gt;Node19</title>
<g id="a_edge24_Node000017_Node000019"><a xlink:title=" ">
<path fill="none" stroke="#63b8ff" d="M1421.5,-199.02C1426.06,-197.9 1430.61,-196.8 1435,-195.75 1493.73,-181.75 1561.18,-166.55 1607.39,-156.27"/>
<polygon fill="#63b8ff" stroke="#63b8ff" points="1607.89,-159.74 1616.89,-154.16 1606.37,-152.91 1607.89,-159.74"/>
</a>
</g>
</g>
<!-- Node20 -->
<g id="Node000020" class="node">
<title>Node20</title>
<g id="a_Node000020"><a xlink:title=" ">
<polygon fill="#e0e0e0" stroke="#999999" points="1850.5,-153.38 1747.5,-153.38 1747.5,-132.62 1850.5,-132.62 1850.5,-153.38"/>
<text text-anchor="middle" x="1799" y="-139.88" font-family="Helvetica,sans-Serif" font-size="10.00">deal.II/base/mpi.h</text>
</a>
</g>
</g>
<!-- Node17&#45;&gt;Node20 -->
<g id="edge25_Node000017_Node000020" class="edge">
<title>Node17&#45;&gt;Node20</title>
<g id="a_edge25_Node000017_Node000020"><a xlink:title=" ">
<path fill="none" stroke="#63b8ff" d="M1421.74,-198.45C1426.21,-197.46 1430.68,-196.54 1435,-195.75 1568.82,-171.2 1605.32,-185.08 1739,-159.75 1743.89,-158.82 1748.98,-157.72 1754.02,-156.53"/>
<polygon fill="#63b8ff" stroke="#63b8ff" points="1754.59,-159.99 1763.45,-154.19 1752.9,-153.2 1754.59,-159.99"/>
</a>
</g>
</g>
<!-- Node21 -->
<g id="Node000021" class="node">
<title>Node21</title>
<g id="a_Node000021"><a xlink:title=" ">
<polygon fill="#e0e0e0" stroke="#999999" points="1977.5,-153.38 1868.5,-153.38 1868.5,-132.62 1977.5,-132.62 1977.5,-153.38"/>
<text text-anchor="middle" x="1923" y="-139.88" font-family="Helvetica,sans-Serif" font-size="10.00">deal.II/base/point.h</text>
</a>
</g>
</g>
<!-- Node17&#45;&gt;Node21 -->
<g id="edge26_Node000017_Node000021" class="edge">
<title>Node17&#45;&gt;Node21</title>
<g id="a_edge26_Node000017_Node000021"><a xlink:title=" ">
<path fill="none" stroke="#63b8ff" d="M1421.71,-198.29C1426.18,-197.34 1430.66,-196.47 1435,-195.75 1622,-164.66 1673,-190.84 1860,-159.75 1865.56,-158.83 1871.35,-157.66 1877.06,-156.39"/>
<polygon fill="#63b8ff" stroke="#63b8ff" points="1877.49,-159.88 1886.42,-154.18 1875.88,-153.07 1877.49,-159.88"/>
</a>
</g>
</g>
<!-- Node22 -->
<g id="Node000022" class="node">
<title>Node22</title>
<g id="a_Node000022"><a xlink:title=" ">
<polygon fill="#e0e0e0" stroke="#999999" points="2110.12,-153.38 1995.88,-153.38 1995.88,-132.62 2110.12,-132.62 2110.12,-153.38"/>
<text text-anchor="middle" x="2053" y="-139.88" font-family="Helvetica,sans-Serif" font-size="10.00">deal.II/base/tensor.h</text>
</a>
</g>
</g>
<!-- Node17&#45;&gt;Node22 -->
<g id="edge27_Node000017_Node000022" class="edge">
<title>Node17&#45;&gt;Node22</title>
<g id="a_edge27_Node000017_Node000022"><a xlink:title=" ">
<path fill="none" stroke="#63b8ff" d="M1421.69,-198.2C1426.17,-197.27 1430.66,-196.43 1435,-195.75 1677.91,-157.78 1743.89,-196.41 1987,-159.75 1993.04,-158.84 1999.35,-157.65 2005.56,-156.33"/>
<polygon fill="#63b8ff" stroke="#63b8ff" points="2006.1,-159.8 2015.08,-154.19 2004.56,-152.97 2006.1,-159.8"/>
</a>
</g>
</g>
<!-- Node23 -->
<g id="Node000023" class="node">
<title>Node23</title>
<g id="a_Node000023"><a xlink:title=" ">
<polygon fill="#e0e0e0" stroke="#999999" points="2239.62,-153.38 2128.38,-153.38 2128.38,-132.62 2239.62,-132.62 2239.62,-153.38"/>
<text text-anchor="middle" x="2184" y="-139.88" font-family="Helvetica,sans-Serif" font-size="10.00">deal.II/base/types.h</text>
</a>
</g>
</g>
<!-- Node17&#45;&gt;Node23 -->
<g id="edge28_Node000017_Node000023" class="edge">
<title>Node17&#45;&gt;Node23</title>
<g id="a_edge28_Node000017_Node000023"><a xlink:title=" ">
<path fill="none" stroke="#63b8ff" d="M1421.69,-198.14C1426.17,-197.22 1430.65,-196.4 1435,-195.75 1736.06,-150.62 1817.78,-203.78 2119,-159.75 2125.03,-158.87 2131.32,-157.69 2137.51,-156.36"/>
<polygon fill="#63b8ff" stroke="#63b8ff" points="2138.02,-159.84 2147,-154.2 2136.47,-153.01 2138.02,-159.84"/>
</a>
</g>
</g>
<!-- Node24 -->
<g id="Node000024" class="node">
<title>Node24</title>
<g id="a_Node000024"><a xlink:title=" ">
<polygon fill="#e0e0e0" stroke="#999999" points="1475,-83.88 1327,-83.88 1327,-63.12 1475,-63.12 1475,-83.88"/>
<text text-anchor="middle" x="1401" y="-70.38" font-family="Helvetica,sans-Serif" font-size="10.00">deal.II/base/vectorization.h</text>
</a>
</g>
</g>
<!-- Node17&#45;&gt;Node24 -->
<g id="edge30_Node000017_Node000024" class="edge">
<title>Node17&#45;&gt;Node24</title>
<g id="a_edge30_Node000017_Node000024"><a xlink:title=" ">
<path fill="none" stroke="#63b8ff" d="M1391.43,-195.44C1401.11,-186.15 1411.83,-173.58 1417,-159.75 1425.01,-138.33 1417.89,-112.33 1410.77,-94.71"/>
<polygon fill="#63b8ff" stroke="#63b8ff" points="1414,-93.36 1406.75,-85.64 1407.6,-96.2 1414,-93.36"/>
</a>
</g>
</g>
<!-- Node25 -->
<g id="Node000025" class="node">
<title>Node25</title>
<g id="a_Node000025"><a xlink:title=" ">
<polygon fill="#e0e0e0" stroke="#999999" points="2441.5,-153.38 2296.5,-153.38 2296.5,-132.62 2441.5,-132.62 2441.5,-153.38"/>
<text text-anchor="middle" x="2369" y="-139.88" font-family="Helvetica,sans-Serif" font-size="10.00">boost/range/algorithm.hpp</text>
</a>
</g>
</g>
<!-- Node17&#45;&gt;Node25 -->
<g id="edge32_Node000017_Node000025" class="edge">
<title>Node17&#45;&gt;Node25</title>
<g id="a_edge32_Node000017_Node000025"><a xlink:title=" ">
<path fill="none" stroke="#63b8ff" d="M1421.68,-198.09C1426.16,-197.18 1430.65,-196.38 1435,-195.75 1807.9,-141.78 1907.53,-201.41 2282,-159.75 2291.11,-158.74 2300.7,-157.34 2310.06,-155.79"/>
<polygon fill="#63b8ff" stroke="#63b8ff" points="2310.56,-159.26 2319.82,-154.1 2309.37,-152.36 2310.56,-159.26"/>
</a>
</g>
</g>
<!-- Node26 -->
<g id="Node000026" class="node">
<title>Node26</title>
<g id="a_Node000026"><a xlink:title=" ">
<polygon fill="#e0e0e0" stroke="#999999" points="1164,-159.75 1040,-159.75 1040,-126.25 1164,-126.25 1164,-159.75"/>
<text text-anchor="start" x="1048" y="-146.25" font-family="Helvetica,sans-Serif" font-size="10.00">boost/range/algorithm</text>
<text text-anchor="middle" x="1102" y="-133.5" font-family="Helvetica,sans-Serif" font-size="10.00">_ext.hpp</text>
</a>
</g>
</g>
<!-- Node17&#45;&gt;Node26 -->
<g id="edge33_Node000017_Node000026" class="edge">
<title>Node17&#45;&gt;Node26</title>
<g id="a_edge33_Node000017_Node000026"><a xlink:title=" ">
<path fill="none" stroke="#63b8ff" d="M1322.48,-199.12C1281.18,-188.8 1221.76,-173.94 1175.01,-162.25"/>
<polygon fill="#63b8ff" stroke="#63b8ff" points="1176.04,-158.9 1165.49,-159.87 1174.34,-165.69 1176.04,-158.9"/>
</a>
</g>
</g>
<!-- Node27 -->
<g id="Node000027" class="node">
<title>Node27</title>
<g id="a_Node000027"><a xlink:href="vectorized__operations_8h.html" target="_top" xlink:title=" ">
<polygon fill="white" stroke="#666666" points="1318,-159.75 1182,-159.75 1182,-126.25 1318,-126.25 1318,-159.75"/>
<text text-anchor="start" x="1190" y="-146.25" font-family="Helvetica,sans-Serif" font-size="10.00">prismspf/utilities</text>
<text text-anchor="middle" x="1250" y="-133.5" font-family="Helvetica,sans-Serif" font-size="10.00">/vectorized_operations.h</text>
</a>
</g>
</g>
<!-- Node17&#45;&gt;Node27 -->
<g id="edge34_Node000017_Node000027" class="edge">
<title>Node17&#45;&gt;Node27</title>
<g id="a_edge34_Node000017_Node000027"><a xlink:title=" ">
<path fill="none" stroke="#63b8ff" d="M1342.78,-195.33C1326.63,-186.4 1306.36,-175.19 1288.89,-165.52"/>
<polygon fill="#63b8ff" stroke="#63b8ff" points="1290.75,-162.55 1280.31,-160.77 1287.36,-168.67 1290.75,-162.55"/>
</a>
</g>
</g>
<!-- Node29 -->
<g id="Node000029" class="node">
<title>Node29</title>
<g id="a_Node000029"><a xlink:title=" ">
<polygon fill="#e0e0e0" stroke="#999999" points="1408.12,-153.38 1335.88,-153.38 1335.88,-132.62 1408.12,-132.62 1408.12,-153.38"/>
<text text-anchor="middle" x="1372" y="-139.88" font-family="Helvetica,sans-Serif" font-size="10.00">string_view</text>
</a>
</g>
</g>
<!-- Node17&#45;&gt;Node29 -->
<g id="edge40_Node000017_Node000029" class="edge">
<title>Node17&#45;&gt;Node29</title>
<g id="a_edge40_Node000017_Node000029"><a xlink:title=" ">
<path fill="none" stroke="#63b8ff" d="M1372,-195.5C1372,-186.4 1372,-174.89 1372,-165.07"/>
<polygon fill="#63b8ff" stroke="#63b8ff" points="1375.5,-165.34 1372,-155.34 1368.5,-165.34 1375.5,-165.34"/>
</a>
</g>
</g>
<!-- Node17&#45;&gt;Node30 -->
<g id="edge41_Node000017_Node000030" class="edge">
<title>Node17&#45;&gt;Node30</title>
<g id="a_edge41_Node000017_Node000030"><a xlink:title=" ">
<path fill="none" stroke="#63b8ff" d="M1421.67,-198.06C1426.16,-197.16 1430.65,-196.36 1435,-195.75 1882.41,-132.61 2004.73,-230.47 2451,-159.75 2455.75,-159 2460.66,-157.97 2465.51,-156.79"/>
<polygon fill="#63b8ff" stroke="#63b8ff" points="2466.38,-160.18 2475.15,-154.23 2464.59,-153.42 2466.38,-160.18"/>
</a>
</g>
</g>
<!-- Node27&#45;&gt;Node6 -->
<g id="edge36_Node000027_Node000006" class="edge">
<title>Node27&#45;&gt;Node6</title>
<g id="a_edge36_Node000027_Node000006"><a xlink:title=" ">
<path fill="none" stroke="#63b8ff" d="M1181.58,-127.93C1178.68,-127.36 1175.81,-126.8 1173,-126.25 1006.19,-93.78 964.71,-84.22 797,-56.75 688.84,-39.04 658.75,-37.56 546.53,-20.96"/>
<polygon fill="#63b8ff" stroke="#63b8ff" points="547.31,-17.53 536.9,-19.52 546.28,-24.46 547.31,-17.53"/>
</a>
</g>
</g>
<!-- Node27&#45;&gt;Node24 -->
<g id="edge35_Node000027_Node000024" class="edge">
<title>Node27&#45;&gt;Node24</title>
<g id="a_edge35_Node000027_Node000024"><a xlink:title=" ">
<path fill="none" stroke="#63b8ff" d="M1286.17,-125.83C1311.29,-114.6 1344.47,-99.77 1368.7,-88.94"/>
<polygon fill="#63b8ff" stroke="#63b8ff" points="1370.06,-92.17 1377.76,-84.89 1367.2,-85.77 1370.06,-92.17"/>
</a>
</g>
</g>
<!-- Node28 -->
<g id="Node000028" class="node">
<title>Node28</title>
<g id="a_Node000028"><a xlink:title=" ">
<polygon fill="#e0e0e0" stroke="#999999" points="1273.38,-83.88 1226.62,-83.88 1226.62,-63.12 1273.38,-63.12 1273.38,-83.88"/>
<text text-anchor="middle" x="1250" y="-70.38" font-family="Helvetica,sans-Serif" font-size="10.00">cmath</text>
</a>
</g>
</g>
<!-- Node27&#45;&gt;Node28 -->
<g id="edge37_Node000027_Node000028" class="edge">
<title>Node27&#45;&gt;Node28</title>
<g id="a_edge37_Node000027_Node000028"><a xlink:title=" ">
<path fill="none" stroke="#63b8ff" d="M1250,-126C1250,-116.9 1250,-105.39 1250,-95.57"/>
<polygon fill="#63b8ff" stroke="#63b8ff" points="1253.5,-95.84 1250,-85.84 1246.5,-95.84 1253.5,-95.84"/>
</a>
</g>
</g>
</g>
</svg>
