<?xml version="1.0" encoding="UTF-8" standalone="no"?>
<!DOCTYPE svg PUBLIC "-//W3C//DTD SVG 1.1//EN"
 "http://www.w3.org/Graphics/SVG/1.1/DTD/svg11.dtd">
<!-- Generated by graphviz version 12.2.1 (20241206.2353)
 -->
<!-- Title: src/user_inputs/io_parameters.cc Pages: 1 -->
<svg width="2940pt" height="446pt"
 viewBox="0.00 0.00 2940.02 445.75" xmlns="http://www.w3.org/2000/svg" xmlns:xlink="http://www.w3.org/1999/xlink">
<g id="graph0" class="graph" transform="scale(1 1) rotate(0) translate(4 441.75)">
<title>src/user_inputs/io_parameters.cc</title>
<!-- Node1 -->
<g id="Node000001" class="node">
<title>Node1</title>
<g id="a_Node000001"><a xlink:title=" ">
<polygon fill="#999999" stroke="#666666" points="1494.75,-437.75 1393.25,-437.75 1393.25,-404.25 1494.75,-404.25 1494.75,-437.75"/>
<text text-anchor="start" x="1401.25" y="-424.25" font-family="Helvetica,sans-Serif" font-size="10.00">src/user_inputs/io</text>
<text text-anchor="middle" x="1444" y="-411.5" font-family="Helvetica,sans-Serif" font-size="10.00">_parameters.cc</text>
</a>
</g>
</g>
<!-- Node2 -->
<g id="Node000002" class="node">
<title>Node2</title>
<g id="a_Node000002"><a xlink:title=" ">
<polygon fill="#e0e0e0" stroke="#999999" points="1911.75,-153.38 1774.25,-153.38 1774.25,-132.62 1911.75,-132.62 1911.75,-153.38"/>
<text text-anchor="middle" x="1843" y="-139.88" font-family="Helvetica,sans-Serif" font-size="10.00">deal.II/base/exceptions.h</text>
</a>
</g>
</g>
<!-- Node1&#45;&gt;Node2 -->
<g id="edge1_Node000001_Node000002" class="edge">
<title>Node1&#45;&gt;Node2</title>
<g id="a_edge1_Node000001_Node000002"><a xlink:title=" ">
<path fill="none" stroke="#63b8ff" d="M1460.72,-403.81C1502.27,-364.21 1614.67,-261 1723,-195.75 1748.62,-180.32 1779.67,-167.06 1803.77,-157.83"/>
<polygon fill="#63b8ff" stroke="#63b8ff" points="1804.75,-161.19 1812.89,-154.41 1802.29,-154.64 1804.75,-161.19"/>
</a>
</g>
</g>
<!-- Node3 -->
<g id="Node000003" class="node">
<title>Node3</title>
<g id="a_Node000003"><a xlink:href="io__parameters_8h.html" target="_top" xlink:title=" ">
<polygon fill="white" stroke="#666666" points="2326,-368.25 2208,-368.25 2208,-334.75 2326,-334.75 2326,-368.25"/>
<text text-anchor="start" x="2216" y="-354.75" font-family="Helvetica,sans-Serif" font-size="10.00">prismspf/user_inputs</text>
<text text-anchor="middle" x="2267" y="-342" font-family="Helvetica,sans-Serif" font-size="10.00">/io_parameters.h</text>
</a>
</g>
</g>
<!-- Node1&#45;&gt;Node3 -->
<g id="edge2_Node000001_Node000003" class="edge">
<title>Node1&#45;&gt;Node3</title>
<g id="a_edge2_Node000001_Node000003"><a xlink:title=" ">
<path fill="none" stroke="#63b8ff" d="M1495.17,-415.8C1636.72,-404.19 2033.76,-371.63 2196.29,-358.3"/>
<polygon fill="#63b8ff" stroke="#63b8ff" points="2196.39,-361.8 2206.07,-357.5 2195.81,-354.83 2196.39,-361.8"/>
</a>
</g>
</g>
<!-- Node11 -->
<g id="Node000011" class="node">
<title>Node11</title>
<g id="a_Node000011"><a xlink:title=" ">
<polygon fill="#e0e0e0" stroke="#999999" points="1984,-20.75 1884,-20.75 1884,0 1984,0 1984,-20.75"/>
<text text-anchor="middle" x="1934" y="-7.25" font-family="Helvetica,sans-Serif" font-size="10.00">prismspf/config.h</text>
</a>
</g>
</g>
<!-- Node1&#45;&gt;Node11 -->
<g id="edge69_Node000001_Node000011" class="edge">
<title>Node1&#45;&gt;Node11</title>
<g id="a_edge69_Node000001_Node000011"><a xlink:title=" ">
<path fill="none" stroke="#63b8ff" d="M1393.03,-417.89C1136.62,-406.97 0,-354.49 0,-283 0,-283 0,-283 0,-142 0,-35.06 120.08,-77.4 225,-56.75 388.81,-24.5 1584.9,-13.89 1872.12,-11.79"/>
<polygon fill="#63b8ff" stroke="#63b8ff" points="1872.04,-15.29 1882.02,-11.72 1871.99,-8.29 1872.04,-15.29"/>
</a>
</g>
</g>
<!-- Node4 -->
<g id="Node000004" class="node">
<title>Node4</title>
<g id="a_Node000004"><a xlink:title=" ">
<polygon fill="#e0e0e0" stroke="#999999" points="2099,-298.75 1981,-298.75 1981,-265.25 2099,-265.25 2099,-298.75"/>
<text text-anchor="start" x="1989" y="-285.25" font-family="Helvetica,sans-Serif" font-size="10.00">deal.II/base/data_out</text>
<text text-anchor="middle" x="2040" y="-272.5" font-family="Helvetica,sans-Serif" font-size="10.00">_base.h</text>
</a>
</g>
</g>
<!-- Node3&#45;&gt;Node4 -->
<g id="edge3_Node000003_Node000004" class="edge">
<title>Node3&#45;&gt;Node4</title>
<g id="a_edge3_Node000003_Node000004"><a xlink:title=" ">
<path fill="none" stroke="#63b8ff" d="M2212.63,-334.33C2180.32,-324.72 2139.14,-312.48 2105.1,-302.36"/>
<polygon fill="#63b8ff" stroke="#63b8ff" points="2106.36,-299.08 2095.77,-299.58 2104.36,-305.79 2106.36,-299.08"/>
</a>
</g>
</g>
<!-- Node5 -->
<g id="Node000005" class="node">
<title>Node5</title>
<g id="a_Node000005"><a xlink:title=" ">
<polygon fill="#e0e0e0" stroke="#999999" points="2702.12,-229.25 2575.88,-229.25 2575.88,-195.75 2702.12,-195.75 2702.12,-229.25"/>
<text text-anchor="start" x="2583.88" y="-215.75" font-family="Helvetica,sans-Serif" font-size="10.00">deal.II/base/parameter</text>
<text text-anchor="middle" x="2639" y="-203" font-family="Helvetica,sans-Serif" font-size="10.00">_handler.h</text>
</a>
</g>
</g>
<!-- Node3&#45;&gt;Node5 -->
<g id="edge4_Node000003_Node000005" class="edge">
<title>Node3&#45;&gt;Node5</title>
<g id="a_edge4_Node000003_Node000005"><a xlink:title=" ">
<path fill="none" stroke="#63b8ff" d="M2288.18,-334.48C2301.62,-324.29 2319.37,-310.79 2335,-298.75 2354.2,-283.97 2355.95,-275.29 2378,-265.25 2453.83,-230.7 2480.29,-245.6 2562,-229.25 2562.83,-229.08 2563.66,-228.92 2564.5,-228.75"/>
<polygon fill="#63b8ff" stroke="#63b8ff" points="2564.96,-232.23 2574.08,-226.82 2563.58,-225.36 2564.96,-232.23"/>
</a>
</g>
</g>
<!-- Node6 -->
<g id="Node000006" class="node">
<title>Node6</title>
<g id="a_Node000006"><a xlink:title=" ">
<polygon fill="#e0e0e0" stroke="#999999" points="2544.38,-292.38 2419.62,-292.38 2419.62,-271.62 2544.38,-271.62 2544.38,-292.38"/>
<text text-anchor="middle" x="2482" y="-278.88" font-family="Helvetica,sans-Serif" font-size="10.00">deal.II/base/patterns.h</text>
</a>
</g>
</g>
<!-- Node3&#45;&gt;Node6 -->
<g id="edge5_Node000003_Node000006" class="edge">
<title>Node3&#45;&gt;Node6</title>
<g id="a_edge5_Node000003_Node000006"><a xlink:title=" ">
<path fill="none" stroke="#63b8ff" d="M2318.5,-334.33C2355.6,-322.68 2405.06,-307.16 2439.83,-296.24"/>
<polygon fill="#63b8ff" stroke="#63b8ff" points="2440.63,-299.66 2449.12,-293.32 2438.53,-292.98 2440.63,-299.66"/>
</a>
</g>
</g>
<!-- Node7 -->
<g id="Node000007" class="node">
<title>Node7</title>
<g id="a_Node000007"><a xlink:title=" ">
<polygon fill="#e0e0e0" stroke="#999999" points="1555.5,-153.38 1434.5,-153.38 1434.5,-132.62 1555.5,-132.62 1555.5,-153.38"/>
<text text-anchor="middle" x="1495" y="-139.88" font-family="Helvetica,sans-Serif" font-size="10.00">deal.II/base/utilities.h</text>
</a>
</g>
</g>
<!-- Node3&#45;&gt;Node7 -->
<g id="edge6_Node000003_Node000007" class="edge">
<title>Node3&#45;&gt;Node7</title>
<g id="a_edge6_Node000003_Node000007"><a xlink:title=" ">
<path fill="none" stroke="#63b8ff" d="M2207.62,-345.6C2130.7,-338.38 2001.63,-323.05 1961,-298.75 1911.25,-269 1931.53,-224.14 1881,-195.75 1757.77,-126.51 1704.38,-183.3 1565,-159.75 1558.94,-158.73 1552.61,-157.51 1546.34,-156.22"/>
<polygon fill="#63b8ff" stroke="#63b8ff" points="1547.19,-152.82 1536.68,-154.14 1545.72,-159.66 1547.19,-152.82"/>
</a>
</g>
</g>
<!-- Node8 -->
<g id="Node000008" class="node">
<title>Node8</title>
<g id="a_Node000008"><a xlink:title=" ">
<polygon fill="#e0e0e0" stroke="#999999" points="2668,-298.75 2562,-298.75 2562,-265.25 2668,-265.25 2668,-298.75"/>
<text text-anchor="start" x="2570" y="-285.25" font-family="Helvetica,sans-Serif" font-size="10.00">boost/serialization</text>
<text text-anchor="middle" x="2615" y="-272.5" font-family="Helvetica,sans-Serif" font-size="10.00">/vector.hpp</text>
</a>
</g>
</g>
<!-- Node3&#45;&gt;Node8 -->
<g id="edge7_Node000003_Node000008" class="edge">
<title>Node3&#45;&gt;Node8</title>
<g id="a_edge7_Node000003_Node000008"><a xlink:title=" ">
<path fill="none" stroke="#63b8ff" d="M2326.4,-340.99C2381.92,-331.83 2467.36,-317.01 2550.45,-299.23"/>
<polygon fill="#63b8ff" stroke="#63b8ff" points="2551.11,-302.66 2560.14,-297.13 2549.63,-295.82 2551.11,-302.66"/>
</a>
</g>
</g>
<!-- Node9 -->
<g id="Node000009" class="node">
<title>Node9</title>
<g id="a_Node000009"><a xlink:href="conditional__ostreams_8h.html" target="_top" xlink:title=" ">
<polygon fill="white" stroke="#666666" points="1871.88,-298.75 1732.12,-298.75 1732.12,-265.25 1871.88,-265.25 1871.88,-298.75"/>
<text text-anchor="start" x="1740.12" y="-285.25" font-family="Helvetica,sans-Serif" font-size="10.00">prismspf/core/conditional</text>
<text text-anchor="middle" x="1802" y="-272.5" font-family="Helvetica,sans-Serif" font-size="10.00">_ostreams.h</text>
</a>
</g>
</g>
<!-- Node3&#45;&gt;Node9 -->
<g id="edge8_Node000003_Node000009" class="edge">
<title>Node3&#45;&gt;Node9</title>
<g id="a_edge8_Node000003_Node000009"><a xlink:title=" ">
<path fill="none" stroke="#63b8ff" d="M2207.8,-343.4C2132.76,-334.18 1999.51,-317.09 1886,-298.75 1885.15,-298.61 1884.29,-298.47 1883.43,-298.33"/>
<polygon fill="#63b8ff" stroke="#63b8ff" points="1884.02,-294.88 1873.57,-296.67 1882.85,-301.78 1884.02,-294.88"/>
</a>
</g>
</g>
<!-- Node3&#45;&gt;Node11 -->
<g id="edge62_Node000003_Node000011" class="edge">
<title>Node3&#45;&gt;Node11</title>
<g id="a_edge62_Node000003_Node000011"><a xlink:title=" ">
<path fill="none" stroke="#63b8ff" d="M2207.86,-351.4C2106.68,-351.5 1894.64,-345.45 1723,-298.75 1581.98,-260.38 1503.52,-283.01 1425,-159.75 1417,-147.19 1415.7,-137.88 1425,-126.25 1480.42,-56.93 1749.16,-26.43 1872.23,-15.93"/>
<polygon fill="#63b8ff" stroke="#63b8ff" points="1872.49,-19.42 1882.16,-15.1 1871.91,-12.45 1872.49,-19.42"/>
</a>
</g>
</g>
<!-- Node12 -->
<g id="Node000012" class="node">
<title>Node12</title>
<g id="a_Node000012"><a xlink:href="exceptions_8h.html" target="_top" xlink:title=" ">
<polygon fill="white" stroke="#666666" points="2152,-222.88 2004,-222.88 2004,-202.12 2152,-202.12 2152,-222.88"/>
<text text-anchor="middle" x="2078" y="-209.38" font-family="Helvetica,sans-Serif" font-size="10.00">prismspf/core/exceptions.h</text>
</a>
</g>
</g>
<!-- Node3&#45;&gt;Node12 -->
<g id="edge11_Node000003_Node000012" class="edge">
<title>Node3&#45;&gt;Node12</title>
<g id="a_edge11_Node000003_Node000012"><a xlink:title=" ">
<path fill="none" stroke="#63b8ff" d="M2207.53,-348.78C2130.19,-345.14 2001.47,-333.84 1972,-298.75 1962.42,-287.35 1964.11,-277.88 1972,-265.25 1983.4,-247 2003.29,-235.02 2022.78,-227.23"/>
<polygon fill="#63b8ff" stroke="#63b8ff" points="2023.9,-230.55 2032.1,-223.84 2021.5,-223.97 2023.9,-230.55"/>
</a>
</g>
</g>
<!-- Node13 -->
<g id="Node000013" class="node">
<title>Node13</title>
<g id="a_Node000013"><a xlink:href="types_8h.html" target="_top" xlink:title=" ">
<polygon fill="white" stroke="#666666" points="2247.88,-153.38 2126.12,-153.38 2126.12,-132.62 2247.88,-132.62 2247.88,-153.38"/>
<text text-anchor="middle" x="2187" y="-139.88" font-family="Helvetica,sans-Serif" font-size="10.00">prismspf/core/types.h</text>
</a>
</g>
</g>
<!-- Node3&#45;&gt;Node13 -->
<g id="edge23_Node000003_Node000013" class="edge">
<title>Node3&#45;&gt;Node13</title>
<g id="a_edge23_Node000003_Node000013"><a xlink:title=" ">
<path fill="none" stroke="#63b8ff" d="M2235.27,-334.33C2221.71,-325.7 2207.16,-313.73 2199,-298.75 2175.66,-255.91 2179.33,-196.26 2183.48,-165.01"/>
<polygon fill="#63b8ff" stroke="#63b8ff" points="2186.91,-165.73 2184.93,-155.32 2179.99,-164.69 2186.91,-165.73"/>
</a>
</g>
</g>
<!-- Node15 -->
<g id="Node000015" class="node">
<title>Node15</title>
<g id="a_Node000015"><a xlink:href="type__enums_8h.html" target="_top" xlink:title=" ">
<polygon fill="white" stroke="#666666" points="2449.75,-90.25 2342.25,-90.25 2342.25,-56.75 2449.75,-56.75 2449.75,-90.25"/>
<text text-anchor="start" x="2350.25" y="-76.75" font-family="Helvetica,sans-Serif" font-size="10.00">prismspf/core/type</text>
<text text-anchor="middle" x="2396" y="-64" font-family="Helvetica,sans-Serif" font-size="10.00">_enums.h</text>
</a>
</g>
</g>
<!-- Node3&#45;&gt;Node15 -->
<g id="edge22_Node000003_Node000015" class="edge">
<title>Node3&#45;&gt;Node15</title>
<g id="a_edge22_Node000003_Node000015"><a xlink:title=" ">
<path fill="none" stroke="#63b8ff" d="M2326.47,-349.9C2472.28,-347.82 2838.36,-338.64 2875,-298.75 3002.23,-160.23 2619.2,-99.81 2461,-81.19"/>
<polygon fill="#63b8ff" stroke="#63b8ff" points="2461.85,-77.77 2451.51,-80.1 2461.05,-84.72 2461.85,-77.77"/>
</a>
</g>
</g>
<!-- Node17 -->
<g id="Node000017" class="node">
<title>Node17</title>
<g id="a_Node000017"><a xlink:title=" ">
<polygon fill="#e0e0e0" stroke="#999999" points="2499.88,-20.75 2456.12,-20.75 2456.12,0 2499.88,0 2499.88,-20.75"/>
<text text-anchor="middle" x="2478" y="-7.25" font-family="Helvetica,sans-Serif" font-size="10.00">string</text>
</a>
</g>
</g>
<!-- Node3&#45;&gt;Node17 -->
<g id="edge67_Node000003_Node000017" class="edge">
<title>Node3&#45;&gt;Node17</title>
<g id="a_edge67_Node000003_Node000017"><a xlink:title=" ">
<path fill="none" stroke="#63b8ff" d="M2326.44,-349.22C2475.19,-345.53 2854.84,-332.84 2900,-298.75 2932.3,-274.37 2932,-253.97 2932,-213.5 2932,-213.5 2932,-213.5 2932,-142 2932,-54.53 2616.81,-22.14 2511.67,-13.76"/>
<polygon fill="#63b8ff" stroke="#63b8ff" points="2511.95,-10.28 2501.71,-13 2511.42,-17.25 2511.95,-10.28"/>
</a>
</g>
</g>
<!-- Node19 -->
<g id="Node000019" class="node">
<title>Node19</title>
<g id="a_Node000019"><a xlink:href="parameter__base_8h.html" target="_top" xlink:title=" ">
<polygon fill="white" stroke="#666666" points="2326,-298.75 2208,-298.75 2208,-265.25 2326,-265.25 2326,-298.75"/>
<text text-anchor="start" x="2216" y="-285.25" font-family="Helvetica,sans-Serif" font-size="10.00">prismspf/user_inputs</text>
<text text-anchor="middle" x="2267" y="-272.5" font-family="Helvetica,sans-Serif" font-size="10.00">/parameter_base.h</text>
</a>
</g>
</g>
<!-- Node3&#45;&gt;Node19 -->
<g id="edge24_Node000003_Node000019" class="edge">
<title>Node3&#45;&gt;Node19</title>
<g id="a_edge24_Node000003_Node000019"><a xlink:title=" ">
<path fill="none" stroke="#63b8ff" d="M2267,-334.5C2267,-327.27 2267,-318.53 2267,-310.31"/>
<polygon fill="#63b8ff" stroke="#63b8ff" points="2270.5,-310.4 2267,-300.4 2263.5,-310.4 2270.5,-310.4"/>
</a>
</g>
</g>
<!-- Node23 -->
<g id="Node000023" class="node">
<title>Node23</title>
<g id="a_Node000023"><a xlink:title=" ">
<polygon fill="#e0e0e0" stroke="#999999" points="2779.75,-222.88 2720.25,-222.88 2720.25,-202.12 2779.75,-202.12 2779.75,-222.88"/>
<text text-anchor="middle" x="2750" y="-209.38" font-family="Helvetica,sans-Serif" font-size="10.00">concepts</text>
</a>
</g>
</g>
<!-- Node3&#45;&gt;Node23 -->
<g id="edge64_Node000003_Node000023" class="edge">
<title>Node3&#45;&gt;Node23</title>
<g id="a_edge64_Node000003_Node000023"><a xlink:title=" ">
<path fill="none" stroke="#63b8ff" d="M2304.75,-334.33C2325.02,-325.01 2350.07,-312.44 2371,-298.75 2390.4,-286.05 2389.72,-274.46 2411,-265.25 2534.25,-211.93 2580.94,-262.69 2711,-229.25 2713.27,-228.67 2715.57,-227.98 2717.88,-227.23"/>
<polygon fill="#63b8ff" stroke="#63b8ff" points="2718.86,-230.6 2727.06,-223.89 2716.46,-224.03 2718.86,-230.6"/>
</a>
</g>
</g>
<!-- Node26 -->
<g id="Node000026" class="node">
<title>Node26</title>
<g id="a_Node000026"><a xlink:href="utilities_8h.html" target="_top" xlink:title=" ">
<polygon fill="white" stroke="#666666" points="1212.25,-229.25 1113.75,-229.25 1113.75,-195.75 1212.25,-195.75 1212.25,-229.25"/>
<text text-anchor="start" x="1121.75" y="-215.75" font-family="Helvetica,sans-Serif" font-size="10.00">prismspf/utilities</text>
<text text-anchor="middle" x="1163" y="-203" font-family="Helvetica,sans-Serif" font-size="10.00">/utilities.h</text>
</a>
</g>
</g>
<!-- Node3&#45;&gt;Node26 -->
<g id="edge41_Node000003_Node000026" class="edge">
<title>Node3&#45;&gt;Node26</title>
<g id="a_edge41_Node000003_Node000026"><a xlink:title=" ">
<path fill="none" stroke="#63b8ff" d="M2207.62,-350.85C2074.33,-350.73 1741.56,-345.32 1468,-298.75 1379.98,-283.77 1280.9,-253.49 1220.21,-233.35"/>
<polygon fill="#63b8ff" stroke="#63b8ff" points="1221.37,-230.04 1210.77,-230.19 1219.15,-236.68 1221.37,-230.04"/>
</a>
</g>
</g>
<!-- Node38 -->
<g id="Node000038" class="node">
<title>Node38</title>
<g id="a_Node000038"><a xlink:title=" ">
<polygon fill="#e0e0e0" stroke="#999999" points="1666.25,-153.38 1573.75,-153.38 1573.75,-132.62 1666.25,-132.62 1666.25,-153.38"/>
<text text-anchor="middle" x="1620" y="-139.88" font-family="Helvetica,sans-Serif" font-size="10.00">unordered_map</text>
</a>
</g>
</g>
<!-- Node3&#45;&gt;Node38 -->
<g id="edge68_Node000003_Node000038" class="edge">
<title>Node3&#45;&gt;Node38</title>
<g id="a_edge68_Node000003_Node000038"><a xlink:title=" ">
<path fill="none" stroke="#63b8ff" d="M2241.83,-334.28C2211.29,-315.24 2157.7,-283.93 2108,-265.25 2041.39,-240.22 2015.29,-261.77 1952,-229.25 1931.97,-218.96 1934.41,-205.26 1914,-195.75 1816.63,-150.38 1779.97,-182.58 1675,-159.75 1670.98,-158.88 1666.82,-157.87 1662.67,-156.8"/>
<polygon fill="#63b8ff" stroke="#63b8ff" points="1663.84,-153.49 1653.28,-154.26 1662.01,-160.25 1663.84,-153.49"/>
</a>
</g>
</g>
<!-- Node39 -->
<g id="Node000039" class="node">
<title>Node39</title>
<g id="a_Node000039"><a xlink:title=" ">
<polygon fill="#e0e0e0" stroke="#999999" points="2735.5,-292.38 2686.5,-292.38 2686.5,-271.62 2735.5,-271.62 2735.5,-292.38"/>
<text text-anchor="middle" x="2711" y="-278.88" font-family="Helvetica,sans-Serif" font-size="10.00">climits</text>
</a>
</g>
</g>
<!-- Node3&#45;&gt;Node39 -->
<g id="edge63_Node000003_Node000039" class="edge">
<title>Node3&#45;&gt;Node39</title>
<g id="a_edge63_Node000003_Node000039"><a xlink:title=" ">
<path fill="none" stroke="#63b8ff" d="M2326.19,-348.73C2406.94,-345.03 2555.46,-333.66 2677,-298.75 2678.81,-298.23 2680.64,-297.63 2682.46,-296.97"/>
<polygon fill="#63b8ff" stroke="#63b8ff" points="2683.39,-300.37 2691.29,-293.31 2680.72,-293.91 2683.39,-300.37"/>
</a>
</g>
</g>
<!-- Node40 -->
<g id="Node000040" class="node">
<title>Node40</title>
<g id="a_Node000040"><a xlink:title=" ">
<polygon fill="#e0e0e0" stroke="#999999" points="2816.62,-292.38 2753.38,-292.38 2753.38,-271.62 2816.62,-271.62 2816.62,-292.38"/>
<text text-anchor="middle" x="2785" y="-278.88" font-family="Helvetica,sans-Serif" font-size="10.00">execution</text>
</a>
</g>
</g>
<!-- Node3&#45;&gt;Node40 -->
<g id="edge65_Node000003_Node000040" class="edge">
<title>Node3&#45;&gt;Node40</title>
<g id="a_edge65_Node000003_Node000040"><a xlink:title=" ">
<path fill="none" stroke="#63b8ff" d="M2326.38,-349.15C2417.63,-345.94 2597.29,-335.13 2745,-298.75 2747.47,-298.14 2750,-297.41 2752.52,-296.61"/>
<polygon fill="#63b8ff" stroke="#63b8ff" points="2753.67,-299.92 2761.91,-293.25 2751.32,-293.32 2753.67,-299.92"/>
</a>
</g>
</g>
<!-- Node41 -->
<g id="Node000041" class="node">
<title>Node41</title>
<g id="a_Node000041"><a xlink:title=" ">
<polygon fill="#e0e0e0" stroke="#999999" points="2865.5,-292.38 2834.5,-292.38 2834.5,-271.62 2865.5,-271.62 2865.5,-292.38"/>
<text text-anchor="middle" x="2850" y="-278.88" font-family="Helvetica,sans-Serif" font-size="10.00">set</text>
</a>
</g>
</g>
<!-- Node3&#45;&gt;Node41 -->
<g id="edge66_Node000003_Node000041" class="edge">
<title>Node3&#45;&gt;Node41</title>
<g id="a_edge66_Node000003_Node000041"><a xlink:title=" ">
<path fill="none" stroke="#63b8ff" d="M2326.05,-348.64C2450.33,-344.14 2734.92,-330.61 2826,-298.75 2826.65,-298.52 2827.29,-298.28 2827.94,-298.01"/>
<polygon fill="#63b8ff" stroke="#63b8ff" points="2829.47,-301.16 2836.58,-293.3 2826.12,-295.01 2829.47,-301.16"/>
</a>
</g>
</g>
<!-- Node10 -->
<g id="Node000010" class="node">
<title>Node10</title>
<g id="a_Node000010"><a xlink:title=" ">
<polygon fill="#e0e0e0" stroke="#999999" points="1871.62,-229.25 1742.38,-229.25 1742.38,-195.75 1871.62,-195.75 1871.62,-229.25"/>
<text text-anchor="start" x="1750.38" y="-215.75" font-family="Helvetica,sans-Serif" font-size="10.00">deal.II/base/conditional</text>
<text text-anchor="middle" x="1807" y="-203" font-family="Helvetica,sans-Serif" font-size="10.00">_ostream.h</text>
</a>
</g>
</g>
<!-- Node9&#45;&gt;Node10 -->
<g id="edge9_Node000009_Node000010" class="edge">
<title>Node9&#45;&gt;Node10</title>
<g id="a_edge9_Node000009_Node000010"><a xlink:title=" ">
<path fill="none" stroke="#63b8ff" d="M1803.18,-265C1803.72,-257.77 1804.37,-249.03 1804.98,-240.81"/>
<polygon fill="#63b8ff" stroke="#63b8ff" points="1808.46,-241.12 1805.71,-230.89 1801.48,-240.61 1808.46,-241.12"/>
</a>
</g>
</g>
<!-- Node9&#45;&gt;Node11 -->
<g id="edge10_Node000009_Node000011" class="edge">
<title>Node9&#45;&gt;Node11</title>
<g id="a_edge10_Node000009_Node000011"><a xlink:title=" ">
<path fill="none" stroke="#63b8ff" d="M1768.55,-264.76C1754.9,-256.24 1740.57,-244.38 1733,-229.25 1726.34,-215.93 1723.51,-207.23 1733,-195.75 1787.2,-130.18 1866.8,-225.32 1921,-159.75 1930.49,-148.27 1927.79,-139.5 1921,-126.25 1908.52,-101.88 1883.48,-114.62 1871,-90.25 1864.21,-77 1864.21,-70 1871,-56.75 1877.53,-44 1889.49,-34.02 1901.25,-26.7"/>
<polygon fill="#63b8ff" stroke="#63b8ff" points="1902.68,-29.92 1909.64,-21.93 1899.22,-23.83 1902.68,-29.92"/>
</a>
</g>
</g>
<!-- Node12&#45;&gt;Node2 -->
<g id="edge12_Node000012_Node000002" class="edge">
<title>Node12&#45;&gt;Node2</title>
<g id="a_edge12_Node000012_Node000002"><a xlink:title=" ">
<path fill="none" stroke="#63b8ff" d="M2043.83,-201.68C2002.76,-189.89 1933.69,-170.05 1888.23,-156.99"/>
<polygon fill="#63b8ff" stroke="#63b8ff" points="1889.24,-153.64 1878.67,-154.24 1887.31,-160.37 1889.24,-153.64"/>
</a>
</g>
</g>
<!-- Node12&#45;&gt;Node11 -->
<g id="edge20_Node000012_Node000011" class="edge">
<title>Node12&#45;&gt;Node11</title>
<g id="a_edge20_Node000012_Node000011"><a xlink:title=" ">
<path fill="none" stroke="#63b8ff" d="M2068.34,-201.96C2058.8,-192.11 2044.34,-175.94 2035,-159.75 2010.61,-117.49 2026.53,-95.59 1997,-56.75 1987.89,-44.76 1974.73,-34.6 1962.79,-26.94"/>
<polygon fill="#63b8ff" stroke="#63b8ff" points="1964.83,-24.09 1954.46,-21.91 1961.21,-30.08 1964.83,-24.09"/>
</a>
</g>
</g>
<!-- Node12&#45;&gt;Node13 -->
<g id="edge13_Node000012_Node000013" class="edge">
<title>Node12&#45;&gt;Node13</title>
<g id="a_edge13_Node000012_Node000013"><a xlink:title=" ">
<path fill="none" stroke="#63b8ff" d="M2093.62,-201.83C2111.32,-190.86 2140.45,-172.82 2161.47,-159.81"/>
<polygon fill="#63b8ff" stroke="#63b8ff" points="2163.11,-162.91 2169.77,-154.67 2159.43,-156.96 2163.11,-162.91"/>
</a>
</g>
</g>
<!-- Node18 -->
<g id="Node000018" class="node">
<title>Node18</title>
<g id="a_Node000018"><a xlink:title=" ">
<polygon fill="#e0e0e0" stroke="#999999" points="2108,-153.38 2044,-153.38 2044,-132.62 2108,-132.62 2108,-153.38"/>
<text text-anchor="middle" x="2076" y="-139.88" font-family="Helvetica,sans-Serif" font-size="10.00">exception</text>
</a>
</g>
</g>
<!-- Node12&#45;&gt;Node18 -->
<g id="edge21_Node000012_Node000018" class="edge">
<title>Node12&#45;&gt;Node18</title>
<g id="a_edge21_Node000012_Node000018"><a xlink:title=" ">
<path fill="none" stroke="#63b8ff" d="M2077.71,-201.83C2077.43,-192.21 2076.98,-177.13 2076.62,-164.79"/>
<polygon fill="#63b8ff" stroke="#63b8ff" points="2080.13,-165.06 2076.33,-155.17 2073.13,-165.27 2080.13,-165.06"/>
</a>
</g>
</g>
<!-- Node13&#45;&gt;Node11 -->
<g id="edge19_Node000013_Node000011" class="edge">
<title>Node13&#45;&gt;Node11</title>
<g id="a_edge19_Node000013_Node000011"><a xlink:title=" ">
<path fill="none" stroke="#63b8ff" d="M2169.74,-132.22C2141.01,-116.03 2081.45,-82.85 2030,-56.75 2008.84,-46.01 1984.68,-34.6 1965.9,-25.91"/>
<polygon fill="#63b8ff" stroke="#63b8ff" points="1967.44,-22.76 1956.89,-21.76 1964.51,-29.12 1967.44,-22.76"/>
</a>
</g>
</g>
<!-- Node14 -->
<g id="Node000014" class="node">
<title>Node14</title>
<g id="a_Node000014"><a xlink:title=" ">
<polygon fill="#e0e0e0" stroke="#999999" points="1988.12,-90.25 1879.88,-90.25 1879.88,-56.75 1988.12,-56.75 1988.12,-90.25"/>
<text text-anchor="start" x="1887.88" y="-76.75" font-family="Helvetica,sans-Serif" font-size="10.00">deal.II/matrix_free</text>
<text text-anchor="middle" x="1934" y="-64" font-family="Helvetica,sans-Serif" font-size="10.00">/evaluation_flags.h</text>
</a>
</g>
</g>
<!-- Node13&#45;&gt;Node14 -->
<g id="edge14_Node000013_Node000014" class="edge">
<title>Node13&#45;&gt;Node14</title>
<g id="a_edge14_Node000013_Node000014"><a xlink:title=" ">
<path fill="none" stroke="#63b8ff" d="M2150.21,-132.18C2110.8,-121.67 2047.44,-104.77 1999.48,-91.97"/>
<polygon fill="#63b8ff" stroke="#63b8ff" points="2000.6,-88.65 1990.03,-89.45 1998.79,-95.41 2000.6,-88.65"/>
</a>
</g>
</g>
<!-- Node13&#45;&gt;Node15 -->
<g id="edge15_Node000013_Node000015" class="edge">
<title>Node13&#45;&gt;Node15</title>
<g id="a_edge15_Node000013_Node000015"><a xlink:title=" ">
<path fill="none" stroke="#63b8ff" d="M2217.39,-132.18C2248.13,-122.26 2296.48,-106.64 2335.13,-94.16"/>
<polygon fill="#63b8ff" stroke="#63b8ff" points="2335.87,-97.6 2344.31,-91.19 2333.72,-90.94 2335.87,-97.6"/>
</a>
</g>
</g>
<!-- Node15&#45;&gt;Node11 -->
<g id="edge16_Node000015_Node000011" class="edge">
<title>Node15&#45;&gt;Node11</title>
<g id="a_edge16_Node000015_Node000011"><a xlink:title=" ">
<path fill="none" stroke="#63b8ff" d="M2341.92,-59.39C2337.23,-58.43 2332.54,-57.53 2328,-56.75 2211.11,-36.55 2073.11,-22.99 1995.35,-16.28"/>
<polygon fill="#63b8ff" stroke="#63b8ff" points="1996.1,-12.83 1985.83,-15.47 1995.5,-19.8 1996.1,-12.83"/>
</a>
</g>
</g>
<!-- Node16 -->
<g id="Node000016" class="node">
<title>Node16</title>
<g id="a_Node000016"><a xlink:title=" ">
<polygon fill="#e0e0e0" stroke="#999999" points="2420.5,-20.75 2371.5,-20.75 2371.5,0 2420.5,0 2420.5,-20.75"/>
<text text-anchor="middle" x="2396" y="-7.25" font-family="Helvetica,sans-Serif" font-size="10.00">cstdint</text>
</a>
</g>
</g>
<!-- Node15&#45;&gt;Node16 -->
<g id="edge17_Node000015_Node000016" class="edge">
<title>Node15&#45;&gt;Node16</title>
<g id="a_edge17_Node000015_Node000016"><a xlink:title=" ">
<path fill="none" stroke="#63b8ff" d="M2396,-56.44C2396,-49.1 2396,-40.32 2396,-32.46"/>
<polygon fill="#63b8ff" stroke="#63b8ff" points="2399.5,-32.73 2396,-22.73 2392.5,-32.73 2399.5,-32.73"/>
</a>
</g>
</g>
<!-- Node15&#45;&gt;Node17 -->
<g id="edge18_Node000015_Node000017" class="edge">
<title>Node15&#45;&gt;Node17</title>
<g id="a_edge18_Node000015_Node000017"><a xlink:title=" ">
<path fill="none" stroke="#63b8ff" d="M2417.54,-56.44C2429.26,-47.71 2443.73,-36.92 2455.58,-28.09"/>
<polygon fill="#63b8ff" stroke="#63b8ff" points="2457.66,-30.9 2463.58,-22.12 2453.47,-25.29 2457.66,-30.9"/>
</a>
</g>
</g>
<!-- Node19&#45;&gt;Node5 -->
<g id="edge25_Node000019_Node000005" class="edge">
<title>Node19&#45;&gt;Node5</title>
<g id="a_edge25_Node000019_Node000005"><a xlink:title=" ">
<path fill="none" stroke="#63b8ff" d="M2326.31,-267.94C2330.94,-267 2335.54,-266.09 2340,-265.25 2438.22,-246.7 2463.68,-247.27 2562,-229.25 2562.83,-229.1 2563.67,-228.94 2564.51,-228.79"/>
<polygon fill="#63b8ff" stroke="#63b8ff" points="2564.93,-232.27 2574.1,-226.97 2563.63,-225.39 2564.93,-232.27"/>
</a>
</g>
</g>
<!-- Node19&#45;&gt;Node11 -->
<g id="edge35_Node000019_Node000011" class="edge">
<title>Node19&#45;&gt;Node11</title>
<g id="a_edge35_Node000019_Node000011"><a xlink:title=" ">
<path fill="none" stroke="#63b8ff" d="M2326.37,-265.67C2378.84,-251.94 2447.84,-233.35 2453,-229.25 2491.22,-198.92 2521.77,-164.12 2491,-126.25 2487.05,-121.38 2138.28,-51.84 1994.71,-23.38"/>
<polygon fill="#63b8ff" stroke="#63b8ff" points="1995.48,-19.96 1984.99,-21.45 1994.12,-26.83 1995.48,-19.96"/>
</a>
</g>
</g>
<!-- Node19&#45;&gt;Node13 -->
<g id="edge34_Node000019_Node000013" class="edge">
<title>Node19&#45;&gt;Node13</title>
<g id="a_edge34_Node000019_Node000013"><a xlink:title=" ">
<path fill="none" stroke="#63b8ff" d="M2271.35,-264.8C2275.26,-246.77 2278.74,-217.33 2267,-195.75 2257.92,-179.06 2240.89,-166.93 2224.86,-158.63"/>
<polygon fill="#63b8ff" stroke="#63b8ff" points="2226.47,-155.52 2215.94,-154.37 2223.46,-161.84 2226.47,-155.52"/>
</a>
</g>
</g>
<!-- Node19&#45;&gt;Node17 -->
<g id="edge38_Node000019_Node000017" class="edge">
<title>Node19&#45;&gt;Node17</title>
<g id="a_edge38_Node000019_Node000017"><a xlink:title=" ">
<path fill="none" stroke="#63b8ff" d="M2326.25,-266.29C2327.85,-265.94 2329.43,-265.59 2331,-265.25 2373.64,-256.03 2496.12,-262.81 2524,-229.25 2573.09,-170.16 2518.26,-71.54 2491.26,-30.35"/>
<polygon fill="#63b8ff" stroke="#63b8ff" points="2494.27,-28.55 2485.77,-22.22 2488.46,-32.47 2494.27,-28.55"/>
</a>
</g>
</g>
<!-- Node20 -->
<g id="Node000020" class="node">
<title>Node20</title>
<g id="a_Node000020"><a xlink:href="field__attributes_8h.html" target="_top" xlink:title=" ">
<polygon fill="white" stroke="#666666" points="2420.38,-229.25 2313.62,-229.25 2313.62,-195.75 2420.38,-195.75 2420.38,-229.25"/>
<text text-anchor="start" x="2321.62" y="-215.75" font-family="Helvetica,sans-Serif" font-size="10.00">prismspf/core/field</text>
<text text-anchor="middle" x="2367" y="-203" font-family="Helvetica,sans-Serif" font-size="10.00">_attributes.h</text>
</a>
</g>
</g>
<!-- Node19&#45;&gt;Node20 -->
<g id="edge26_Node000019_Node000020" class="edge">
<title>Node19&#45;&gt;Node20</title>
<g id="a_edge26_Node000019_Node000020"><a xlink:title=" ">
<path fill="none" stroke="#63b8ff" d="M2290.95,-264.83C2303.82,-256.15 2319.87,-245.31 2333.91,-235.84"/>
<polygon fill="#63b8ff" stroke="#63b8ff" points="2335.66,-238.88 2341.99,-230.38 2331.74,-233.08 2335.66,-238.88"/>
</a>
</g>
</g>
<!-- Node22 -->
<g id="Node000022" class="node">
<title>Node22</title>
<g id="a_Node000022"><a xlink:title=" ">
<polygon fill="#e0e0e0" stroke="#999999" points="2482.38,-153.38 2435.62,-153.38 2435.62,-132.62 2482.38,-132.62 2482.38,-153.38"/>
<text text-anchor="middle" x="2459" y="-139.88" font-family="Helvetica,sans-Serif" font-size="10.00">vector</text>
</a>
</g>
</g>
<!-- Node19&#45;&gt;Node22 -->
<g id="edge40_Node000019_Node000022" class="edge">
<title>Node19&#45;&gt;Node22</title>
<g id="a_edge40_Node000019_Node000022"><a xlink:title=" ">
<path fill="none" stroke="#63b8ff" d="M2326.24,-267.94C2366.1,-258.08 2414.02,-243.8 2429,-229.25 2446.63,-212.12 2453.92,-184.03 2456.92,-164.8"/>
<polygon fill="#63b8ff" stroke="#63b8ff" points="2460.36,-165.52 2458.15,-155.16 2453.41,-164.64 2460.36,-165.52"/>
</a>
</g>
</g>
<!-- Node19&#45;&gt;Node23 -->
<g id="edge36_Node000019_Node000023" class="edge">
<title>Node19&#45;&gt;Node23</title>
<g id="a_edge36_Node000019_Node000023"><a xlink:title=" ">
<path fill="none" stroke="#63b8ff" d="M2326.29,-272.22C2343,-269.84 2361.2,-267.35 2378,-265.25 2525.71,-246.79 2566.61,-265.47 2711,-229.25 2713.42,-228.64 2715.88,-227.92 2718.34,-227.12"/>
<polygon fill="#63b8ff" stroke="#63b8ff" points="2719.29,-230.5 2727.48,-223.77 2716.88,-223.93 2719.29,-230.5"/>
</a>
</g>
</g>
<!-- Node24 -->
<g id="Node000024" class="node">
<title>Node24</title>
<g id="a_Node000024"><a xlink:title=" ">
<polygon fill="#e0e0e0" stroke="#999999" points="2257.5,-222.88 2208.5,-222.88 2208.5,-202.12 2257.5,-202.12 2257.5,-222.88"/>
<text text-anchor="middle" x="2233" y="-209.38" font-family="Helvetica,sans-Serif" font-size="10.00">ranges</text>
</a>
</g>
</g>
<!-- Node19&#45;&gt;Node24 -->
<g id="edge37_Node000019_Node000024" class="edge">
<title>Node19&#45;&gt;Node24</title>
<g id="a_edge37_Node000019_Node000024"><a xlink:title=" ">
<path fill="none" stroke="#63b8ff" d="M2258.94,-265C2254.21,-255.6 2248.17,-243.62 2243.12,-233.59"/>
<polygon fill="#63b8ff" stroke="#63b8ff" points="2246.25,-232.03 2238.63,-224.67 2240,-235.18 2246.25,-232.03"/>
</a>
</g>
</g>
<!-- Node25 -->
<g id="Node000025" class="node">
<title>Node25</title>
<g id="a_Node000025"><a xlink:title=" ">
<polygon fill="#e0e0e0" stroke="#999999" points="1756.12,-153.38 1683.88,-153.38 1683.88,-132.62 1756.12,-132.62 1756.12,-153.38"/>
<text text-anchor="middle" x="1720" y="-139.88" font-family="Helvetica,sans-Serif" font-size="10.00">string_view</text>
</a>
</g>
</g>
<!-- Node19&#45;&gt;Node25 -->
<g id="edge39_Node000019_Node000025" class="edge">
<title>Node19&#45;&gt;Node25</title>
<g id="a_edge39_Node000019_Node000025"><a xlink:title=" ">
<path fill="none" stroke="#63b8ff" d="M2207.54,-273.02C2139.32,-263.29 2032.12,-246.04 1995,-229.25 1972.93,-219.26 1974.06,-205.76 1952,-195.75 1874.93,-160.77 1846.72,-181.79 1765,-159.75 1762.27,-159.01 1759.47,-158.2 1756.67,-157.33"/>
<polygon fill="#63b8ff" stroke="#63b8ff" points="1758,-154.08 1747.41,-154.29 1755.82,-160.73 1758,-154.08"/>
</a>
</g>
</g>
<!-- Node20&#45;&gt;Node2 -->
<g id="edge27_Node000020_Node000002" class="edge">
<title>Node20&#45;&gt;Node2</title>
<g id="a_edge27_Node000020_Node000002"><a xlink:title=" ">
<path fill="none" stroke="#63b8ff" d="M2313.34,-202.7C2298.35,-200.33 2282.06,-197.85 2267,-195.75 2147.63,-179.07 2008.93,-162.71 1923.56,-152.99"/>
<polygon fill="#63b8ff" stroke="#63b8ff" points="1923.97,-149.51 1913.63,-151.86 1923.17,-156.47 1923.97,-149.51"/>
</a>
</g>
</g>
<!-- Node20&#45;&gt;Node11 -->
<g id="edge30_Node000020_Node000011" class="edge">
<title>Node20&#45;&gt;Node11</title>
<g id="a_edge30_Node000020_Node000011"><a xlink:title=" ">
<path fill="none" stroke="#63b8ff" d="M2343.22,-195.3C2328.97,-185.37 2310.65,-172.22 2295,-159.75 2277.39,-145.72 2276.28,-137.88 2257,-126.25 2170.52,-74.09 2056.78,-40.61 1989.91,-23.96"/>
<polygon fill="#63b8ff" stroke="#63b8ff" points="1990.8,-20.57 1980.25,-21.6 1989.14,-27.37 1990.8,-20.57"/>
</a>
</g>
</g>
<!-- Node20&#45;&gt;Node13 -->
<g id="edge29_Node000020_Node000013" class="edge">
<title>Node20&#45;&gt;Node13</title>
<g id="a_edge29_Node000020_Node000013"><a xlink:title=" ">
<path fill="none" stroke="#63b8ff" d="M2323.89,-195.33C2293.36,-183.88 2252.85,-168.69 2223.83,-157.81"/>
<polygon fill="#63b8ff" stroke="#63b8ff" points="2225.33,-154.64 2214.74,-154.4 2222.87,-161.19 2225.33,-154.64"/>
</a>
</g>
</g>
<!-- Node20&#45;&gt;Node15 -->
<g id="edge28_Node000020_Node000015" class="edge">
<title>Node20&#45;&gt;Node15</title>
<g id="a_edge28_Node000020_Node000015"><a xlink:title=" ">
<path fill="none" stroke="#63b8ff" d="M2370.38,-195.52C2375.27,-172.42 2384.38,-129.41 2390.31,-101.38"/>
<polygon fill="#63b8ff" stroke="#63b8ff" points="2393.68,-102.37 2392.32,-91.86 2386.83,-100.92 2393.68,-102.37"/>
</a>
</g>
</g>
<!-- Node20&#45;&gt;Node17 -->
<g id="edge32_Node000020_Node000017" class="edge">
<title>Node20&#45;&gt;Node17</title>
<g id="a_edge32_Node000020_Node000017"><a xlink:title=" ">
<path fill="none" stroke="#63b8ff" d="M2377.54,-195.4C2389.13,-177.96 2408.57,-149.52 2427,-126.25 2440.29,-109.47 2449.09,-109.22 2459,-90.25 2468.56,-71.95 2473.41,-48.73 2475.8,-32.24"/>
<polygon fill="#63b8ff" stroke="#63b8ff" points="2479.23,-32.99 2477,-22.63 2472.28,-32.12 2479.23,-32.99"/>
</a>
</g>
</g>
<!-- Node21 -->
<g id="Node000021" class="node">
<title>Node21</title>
<g id="a_Node000021"><a xlink:title=" ">
<polygon fill="#e0e0e0" stroke="#999999" points="2341.88,-153.38 2304.12,-153.38 2304.12,-132.62 2341.88,-132.62 2341.88,-153.38"/>
<text text-anchor="middle" x="2323" y="-139.88" font-family="Helvetica,sans-Serif" font-size="10.00">map</text>
</a>
</g>
</g>
<!-- Node20&#45;&gt;Node21 -->
<g id="edge31_Node000020_Node000021" class="edge">
<title>Node20&#45;&gt;Node21</title>
<g id="a_edge31_Node000020_Node000021"><a xlink:title=" ">
<path fill="none" stroke="#63b8ff" d="M2356.57,-195.5C2350.31,-185.9 2342.3,-173.61 2335.67,-163.44"/>
<polygon fill="#63b8ff" stroke="#63b8ff" points="2338.62,-161.56 2330.23,-155.09 2332.76,-165.38 2338.62,-161.56"/>
</a>
</g>
</g>
<!-- Node20&#45;&gt;Node22 -->
<g id="edge33_Node000020_Node000022" class="edge">
<title>Node20&#45;&gt;Node22</title>
<g id="a_edge33_Node000020_Node000022"><a xlink:title=" ">
<path fill="none" stroke="#63b8ff" d="M2388.8,-195.5C2403.14,-184.99 2421.85,-171.26 2436.35,-160.62"/>
<polygon fill="#63b8ff" stroke="#63b8ff" points="2438.4,-163.45 2444.39,-154.72 2434.26,-157.81 2438.4,-163.45"/>
</a>
</g>
</g>
<!-- Node26&#45;&gt;Node2 -->
<g id="edge43_Node000026_Node000002" class="edge">
<title>Node26&#45;&gt;Node2</title>
<g id="a_edge43_Node000026_Node000002"><a xlink:title=" ">
<path fill="none" stroke="#63b8ff" d="M1212.38,-209.16C1315.47,-203.85 1560.96,-189.02 1765,-159.75 1772.26,-158.71 1779.87,-157.42 1787.37,-156.03"/>
<polygon fill="#63b8ff" stroke="#63b8ff" points="1787.96,-159.48 1797.12,-154.16 1786.64,-152.61 1787.96,-159.48"/>
</a>
</g>
</g>
<!-- Node26&#45;&gt;Node7 -->
<g id="edge49_Node000026_Node000007" class="edge">
<title>Node26&#45;&gt;Node7</title>
<g id="a_edge49_Node000026_Node000007"><a xlink:title=" ">
<path fill="none" stroke="#63b8ff" d="M1212.7,-201.39C1272.26,-189.29 1371.95,-169.02 1435.53,-156.09"/>
<polygon fill="#63b8ff" stroke="#63b8ff" points="1435.99,-159.57 1445.1,-154.15 1434.6,-152.71 1435.99,-159.57"/>
</a>
</g>
</g>
<!-- Node26&#45;&gt;Node11 -->
<g id="edge58_Node000026_Node000011" class="edge">
<title>Node26&#45;&gt;Node11</title>
<g id="a_edge58_Node000026_Node000011"><a xlink:title=" ">
<path fill="none" stroke="#63b8ff" d="M1113.39,-211.06C903.05,-208.98 93.93,-198.45 57,-159.75 46.72,-148.98 46.92,-137.2 57,-126.25 119.93,-57.89 1555.69,-20.26 1872.51,-12.77"/>
<polygon fill="#63b8ff" stroke="#63b8ff" points="1872.31,-16.28 1882.22,-12.54 1872.14,-9.28 1872.31,-16.28"/>
</a>
</g>
</g>
<!-- Node26&#45;&gt;Node14 -->
<g id="edge51_Node000026_Node000014" class="edge">
<title>Node26&#45;&gt;Node14</title>
<g id="a_edge51_Node000026_Node000014"><a xlink:title=" ">
<path fill="none" stroke="#63b8ff" d="M1212.58,-196.36C1245.4,-186.23 1289.36,-172.48 1328,-159.75 1371.32,-145.48 1380.46,-136.07 1425,-126.25 1581.5,-91.76 1770.22,-80.18 1868.02,-76.35"/>
<polygon fill="#63b8ff" stroke="#63b8ff" points="1868.11,-79.85 1877.97,-75.98 1867.85,-72.85 1868.11,-79.85"/>
</a>
</g>
</g>
<!-- Node26&#45;&gt;Node17 -->
<g id="edge59_Node000026_Node000017" class="edge">
<title>Node26&#45;&gt;Node17</title>
<g id="a_edge59_Node000026_Node000017"><a xlink:title=" ">
<path fill="none" stroke="#63b8ff" d="M1212.67,-211.83C1334.44,-211.82 1657.09,-206.95 1921,-159.75 1972.98,-150.45 1984.1,-140.32 2035,-126.25 2187.65,-84.04 2371.17,-37.92 2444.93,-19.56"/>
<polygon fill="#63b8ff" stroke="#63b8ff" points="2445.48,-23.04 2454.34,-17.23 2443.79,-16.24 2445.48,-23.04"/>
</a>
</g>
</g>
<!-- Node26&#45;&gt;Node25 -->
<g id="edge60_Node000026_Node000025" class="edge">
<title>Node26&#45;&gt;Node25</title>
<g id="a_edge60_Node000026_Node000025"><a xlink:title=" ">
<path fill="none" stroke="#63b8ff" d="M1212.43,-208C1323.03,-199.92 1587.57,-179.18 1675,-159.75 1678.18,-159.04 1681.45,-158.18 1684.7,-157.23"/>
<polygon fill="#63b8ff" stroke="#63b8ff" points="1685.66,-160.6 1694.11,-154.2 1683.51,-153.93 1685.66,-160.6"/>
</a>
</g>
</g>
<!-- Node27 -->
<g id="Node000027" class="node">
<title>Node27</title>
<g id="a_Node000027"><a xlink:title=" ">
<polygon fill="#e0e0e0" stroke="#999999" points="179.75,-153.38 66.25,-153.38 66.25,-132.62 179.75,-132.62 179.75,-153.38"/>
<text text-anchor="middle" x="123" y="-139.88" font-family="Helvetica,sans-Serif" font-size="10.00">deal.II/base/config.h</text>
</a>
</g>
</g>
<!-- Node26&#45;&gt;Node27 -->
<g id="edge42_Node000026_Node000027" class="edge">
<title>Node26&#45;&gt;Node27</title>
<g id="a_edge42_Node000026_Node000027"><a xlink:title=" ">
<path fill="none" stroke="#63b8ff" d="M1113.28,-212.02C969.36,-212.86 540.31,-210.57 189,-159.75 182.88,-158.86 176.49,-157.68 170.21,-156.36"/>
<polygon fill="#63b8ff" stroke="#63b8ff" points="171.08,-152.97 160.56,-154.19 169.55,-159.8 171.08,-152.97"/>
</a>
</g>
</g>
<!-- Node28 -->
<g id="Node000028" class="node">
<title>Node28</title>
<g id="a_Node000028"><a xlink:title=" ">
<polygon fill="#e0e0e0" stroke="#999999" points="331.88,-153.38 198.12,-153.38 198.12,-132.62 331.88,-132.62 331.88,-153.38"/>
<text text-anchor="middle" x="265" y="-139.88" font-family="Helvetica,sans-Serif" font-size="10.00">deal.II/base/logstream.h</text>
</a>
</g>
</g>
<!-- Node26&#45;&gt;Node28 -->
<g id="edge44_Node000026_Node000028" class="edge">
<title>Node26&#45;&gt;Node28</title>
<g id="a_edge44_Node000026_Node000028"><a xlink:title=" ">
<path fill="none" stroke="#63b8ff" d="M1113.59,-210.87C985.34,-208.71 631.53,-199.32 340,-159.75 332.73,-158.76 325.12,-157.47 317.64,-156.05"/>
<polygon fill="#63b8ff" stroke="#63b8ff" points="318.44,-152.64 307.95,-154.12 317.07,-159.51 318.44,-152.64"/>
</a>
</g>
</g>
<!-- Node29 -->
<g id="Node000029" class="node">
<title>Node29</title>
<g id="a_Node000029"><a xlink:title=" ">
<polygon fill="#e0e0e0" stroke="#999999" points="452.5,-153.38 349.5,-153.38 349.5,-132.62 452.5,-132.62 452.5,-153.38"/>
<text text-anchor="middle" x="401" y="-139.88" font-family="Helvetica,sans-Serif" font-size="10.00">deal.II/base/mpi.h</text>
</a>
</g>
</g>
<!-- Node26&#45;&gt;Node29 -->
<g id="edge45_Node000026_Node000029" class="edge">
<title>Node26&#45;&gt;Node29</title>
<g id="a_edge45_Node000026_Node000029"><a xlink:title=" ">
<path fill="none" stroke="#63b8ff" d="M1113.27,-210.95C997.87,-209 703.29,-200.13 461,-159.75 455.76,-158.88 450.32,-157.76 444.94,-156.52"/>
<polygon fill="#63b8ff" stroke="#63b8ff" points="446.11,-153.2 435.56,-154.21 444.43,-160 446.11,-153.2"/>
</a>
</g>
</g>
<!-- Node30 -->
<g id="Node000030" class="node">
<title>Node30</title>
<g id="a_Node000030"><a xlink:title=" ">
<polygon fill="#e0e0e0" stroke="#999999" points="579.5,-153.38 470.5,-153.38 470.5,-132.62 579.5,-132.62 579.5,-153.38"/>
<text text-anchor="middle" x="525" y="-139.88" font-family="Helvetica,sans-Serif" font-size="10.00">deal.II/base/point.h</text>
</a>
</g>
</g>
<!-- Node26&#45;&gt;Node30 -->
<g id="edge46_Node000026_Node000030" class="edge">
<title>Node26&#45;&gt;Node30</title>
<g id="a_edge46_Node000026_Node000030"><a xlink:title=" ">
<path fill="none" stroke="#63b8ff" d="M1113.54,-209.56C1013.75,-205.1 781.44,-191.91 589,-159.75 583.36,-158.81 577.48,-157.63 571.68,-156.35"/>
<polygon fill="#63b8ff" stroke="#63b8ff" points="572.69,-152.99 562.16,-154.14 571.1,-159.81 572.69,-152.99"/>
</a>
</g>
</g>
<!-- Node31 -->
<g id="Node000031" class="node">
<title>Node31</title>
<g id="a_Node000031"><a xlink:title=" ">
<polygon fill="#e0e0e0" stroke="#999999" points="712.12,-153.38 597.88,-153.38 597.88,-132.62 712.12,-132.62 712.12,-153.38"/>
<text text-anchor="middle" x="655" y="-139.88" font-family="Helvetica,sans-Serif" font-size="10.00">deal.II/base/tensor.h</text>
</a>
</g>
</g>
<!-- Node26&#45;&gt;Node31 -->
<g id="edge47_Node000026_Node000031" class="edge">
<title>Node26&#45;&gt;Node31</title>
<g id="a_edge47_Node000026_Node000031"><a xlink:title=" ">
<path fill="none" stroke="#63b8ff" d="M1113.34,-207.61C1031.26,-200.74 862.31,-184.79 721,-159.75 715.42,-158.76 709.6,-157.59 703.83,-156.33"/>
<polygon fill="#63b8ff" stroke="#63b8ff" points="704.88,-152.98 694.36,-154.18 703.34,-159.81 704.88,-152.98"/>
</a>
</g>
</g>
<!-- Node32 -->
<g id="Node000032" class="node">
<title>Node32</title>
<g id="a_Node000032"><a xlink:title=" ">
<polygon fill="#e0e0e0" stroke="#999999" points="841.62,-153.38 730.38,-153.38 730.38,-132.62 841.62,-132.62 841.62,-153.38"/>
<text text-anchor="middle" x="786" y="-139.88" font-family="Helvetica,sans-Serif" font-size="10.00">deal.II/base/types.h</text>
</a>
</g>
</g>
<!-- Node26&#45;&gt;Node32 -->
<g id="edge48_Node000026_Node000032" class="edge">
<title>Node26&#45;&gt;Node32</title>
<g id="a_edge48_Node000026_Node000032"><a xlink:title=" ">
<path fill="none" stroke="#63b8ff" d="M1113.35,-204.41C1051.62,-195.34 943.13,-178.53 851,-159.75 845.87,-158.7 840.52,-157.54 835.2,-156.32"/>
<polygon fill="#63b8ff" stroke="#63b8ff" points="836.4,-153.01 825.86,-154.14 834.8,-159.83 836.4,-153.01"/>
</a>
</g>
</g>
<!-- Node33 -->
<g id="Node000033" class="node">
<title>Node33</title>
<g id="a_Node000033"><a xlink:title=" ">
<polygon fill="#e0e0e0" stroke="#999999" points="1267,-83.88 1119,-83.88 1119,-63.12 1267,-63.12 1267,-83.88"/>
<text text-anchor="middle" x="1193" y="-70.38" font-family="Helvetica,sans-Serif" font-size="10.00">deal.II/base/vectorization.h</text>
</a>
</g>
</g>
<!-- Node26&#45;&gt;Node33 -->
<g id="edge50_Node000026_Node000033" class="edge">
<title>Node26&#45;&gt;Node33</title>
<g id="a_edge50_Node000026_Node000033"><a xlink:title=" ">
<path fill="none" stroke="#63b8ff" d="M1212.68,-208.45C1246.45,-203.48 1288.87,-190.94 1311,-159.75 1319.62,-147.61 1319.14,-138.71 1311,-126.25 1298.81,-107.59 1278.23,-95.62 1257.65,-87.95"/>
<polygon fill="#63b8ff" stroke="#63b8ff" points="1258.95,-84.7 1248.36,-84.81 1256.71,-91.33 1258.95,-84.7"/>
</a>
</g>
</g>
<!-- Node34 -->
<g id="Node000034" class="node">
<title>Node34</title>
<g id="a_Node000034"><a xlink:title=" ">
<polygon fill="#e0e0e0" stroke="#999999" points="1159.5,-153.38 1014.5,-153.38 1014.5,-132.62 1159.5,-132.62 1159.5,-153.38"/>
<text text-anchor="middle" x="1087" y="-139.88" font-family="Helvetica,sans-Serif" font-size="10.00">boost/range/algorithm.hpp</text>
</a>
</g>
</g>
<!-- Node26&#45;&gt;Node34 -->
<g id="edge52_Node000026_Node000034" class="edge">
<title>Node26&#45;&gt;Node34</title>
<g id="a_edge52_Node000026_Node000034"><a xlink:title=" ">
<path fill="none" stroke="#63b8ff" d="M1144.99,-195.5C1133.38,-185.19 1118.28,-171.78 1106.4,-161.23"/>
<polygon fill="#63b8ff" stroke="#63b8ff" points="1108.99,-158.85 1099.19,-154.83 1104.34,-164.08 1108.99,-158.85"/>
</a>
</g>
</g>
<!-- Node35 -->
<g id="Node000035" class="node">
<title>Node35</title>
<g id="a_Node000035"><a xlink:title=" ">
<polygon fill="#e0e0e0" stroke="#999999" points="1302,-159.75 1178,-159.75 1178,-126.25 1302,-126.25 1302,-159.75"/>
<text text-anchor="start" x="1186" y="-146.25" font-family="Helvetica,sans-Serif" font-size="10.00">boost/range/algorithm</text>
<text text-anchor="middle" x="1240" y="-133.5" font-family="Helvetica,sans-Serif" font-size="10.00">_ext.hpp</text>
</a>
</g>
</g>
<!-- Node26&#45;&gt;Node35 -->
<g id="edge53_Node000026_Node000035" class="edge">
<title>Node26&#45;&gt;Node35</title>
<g id="a_edge53_Node000026_Node000035"><a xlink:title=" ">
<path fill="none" stroke="#63b8ff" d="M1181.25,-195.5C1190.77,-187.16 1202.6,-176.79 1213.14,-167.55"/>
<polygon fill="#63b8ff" stroke="#63b8ff" points="1215.27,-170.34 1220.48,-161.11 1210.65,-165.07 1215.27,-170.34"/>
</a>
</g>
</g>
<!-- Node36 -->
<g id="Node000036" class="node">
<title>Node36</title>
<g id="a_Node000036"><a xlink:href="vectorized__operations_8h.html" target="_top" xlink:title=" ">
<polygon fill="white" stroke="#666666" points="996,-159.75 860,-159.75 860,-126.25 996,-126.25 996,-159.75"/>
<text text-anchor="start" x="868" y="-146.25" font-family="Helvetica,sans-Serif" font-size="10.00">prismspf/utilities</text>
<text text-anchor="middle" x="928" y="-133.5" font-family="Helvetica,sans-Serif" font-size="10.00">/vectorized_operations.h</text>
</a>
</g>
</g>
<!-- Node26&#45;&gt;Node36 -->
<g id="edge54_Node000026_Node000036" class="edge">
<title>Node26&#45;&gt;Node36</title>
<g id="a_edge54_Node000026_Node000036"><a xlink:title=" ">
<path fill="none" stroke="#63b8ff" d="M1113.45,-197.27C1079.13,-187.41 1033.03,-174.17 995.38,-163.35"/>
<polygon fill="#63b8ff" stroke="#63b8ff" points="996.53,-160.04 985.95,-160.65 994.6,-166.77 996.53,-160.04"/>
</a>
</g>
</g>
<!-- Node26&#45;&gt;Node38 -->
<g id="edge61_Node000026_Node000038" class="edge">
<title>Node26&#45;&gt;Node38</title>
<g id="a_edge61_Node000026_Node000038"><a xlink:title=" ">
<path fill="none" stroke="#63b8ff" d="M1212.46,-207.46C1288.54,-200.71 1438.65,-185.32 1564,-159.75 1568.33,-158.87 1572.81,-157.83 1577.28,-156.71"/>
<polygon fill="#63b8ff" stroke="#63b8ff" points="1577.98,-160.14 1586.75,-154.19 1576.19,-153.37 1577.98,-160.14"/>
</a>
</g>
</g>
<!-- Node36&#45;&gt;Node11 -->
<g id="edge56_Node000036_Node000011" class="edge">
<title>Node36&#45;&gt;Node11</title>
<g id="a_edge56_Node000036_Node000011"><a xlink:title=" ">
<path fill="none" stroke="#63b8ff" d="M953.94,-125.92C988.2,-105.63 1051.12,-71.57 1110,-56.75 1254.25,-20.45 1706.59,-13.18 1872.34,-11.73"/>
<polygon fill="#63b8ff" stroke="#63b8ff" points="1872.29,-15.24 1882.26,-11.65 1872.23,-8.24 1872.29,-15.24"/>
</a>
</g>
</g>
<!-- Node36&#45;&gt;Node33 -->
<g id="edge55_Node000036_Node000033" class="edge">
<title>Node36&#45;&gt;Node33</title>
<g id="a_edge55_Node000036_Node000033"><a xlink:title=" ">
<path fill="none" stroke="#63b8ff" d="M991.47,-125.83C1038,-113.98 1100.28,-98.12 1143.23,-87.18"/>
<polygon fill="#63b8ff" stroke="#63b8ff" points="1143.96,-90.6 1152.79,-84.74 1142.23,-83.82 1143.96,-90.6"/>
</a>
</g>
</g>
<!-- Node37 -->
<g id="Node000037" class="node">
<title>Node37</title>
<g id="a_Node000037"><a xlink:title=" ">
<polygon fill="#e0e0e0" stroke="#999999" points="951.38,-83.88 904.62,-83.88 904.62,-63.12 951.38,-63.12 951.38,-83.88"/>
<text text-anchor="middle" x="928" y="-70.38" font-family="Helvetica,sans-Serif" font-size="10.00">cmath</text>
</a>
</g>
</g>
<!-- Node36&#45;&gt;Node37 -->
<g id="edge57_Node000036_Node000037" class="edge">
<title>Node36&#45;&gt;Node37</title>
<g id="a_edge57_Node000036_Node000037"><a xlink:title=" ">
<path fill="none" stroke="#63b8ff" d="M928,-126C928,-116.9 928,-105.39 928,-95.57"/>
<polygon fill="#63b8ff" stroke="#63b8ff" points="931.5,-95.84 928,-85.84 924.5,-95.84 931.5,-95.84"/>
</a>
</g>
</g>
</g>
</svg>
