<?xml version="1.0" encoding="UTF-8" standalone="no"?>
<!DOCTYPE svg PUBLIC "-//W3C//DTD SVG 1.1//EN"
 "http://www.w3.org/Graphics/SVG/1.1/DTD/svg11.dtd">
<!-- Generated by graphviz version 12.2.1 (20241206.2353)
 -->
<!-- Title: include/prismspf/user_inputs/io_parameters.h Pages: 1 -->
<svg width="2089pt" height="307pt"
 viewBox="0.00 0.00 2089.25 306.75" xmlns="http://www.w3.org/2000/svg" xmlns:xlink="http://www.w3.org/1999/xlink">
<g id="graph0" class="graph" transform="scale(1 1) rotate(0) translate(4 302.75)">
<title>include/prismspf/user_inputs/io_parameters.h</title>
<!-- Node1 -->
<g id="Node000001" class="node">
<title>Node1</title>
<g id="a_Node000001"><a xlink:title=" ">
<polygon fill="#999999" stroke="#666666" points="950.88,-298.75 817.12,-298.75 817.12,-265.25 950.88,-265.25 950.88,-298.75"/>
<text text-anchor="start" x="825.12" y="-285.25" font-family="Helvetica,sans-Serif" font-size="10.00">include/prismspf/user</text>
<text text-anchor="middle" x="884" y="-272.5" font-family="Helvetica,sans-Serif" font-size="10.00">_inputs/io_parameters.h</text>
</a>
</g>
</g>
<!-- Node2 -->
<g id="Node000002" class="node">
<title>Node2</title>
<g id="a_Node000002"><a xlink:title=" ">
<polygon fill="#e0e0e0" stroke="#999999" points="118,-229.25 0,-229.25 0,-195.75 118,-195.75 118,-229.25"/>
<text text-anchor="start" x="8" y="-215.75" font-family="Helvetica,sans-Serif" font-size="10.00">deal.II/base/data_out</text>
<text text-anchor="middle" x="59" y="-203" font-family="Helvetica,sans-Serif" font-size="10.00">_base.h</text>
</a>
</g>
</g>
<!-- Node1&#45;&gt;Node2 -->
<g id="edge1_Node000001_Node000002" class="edge">
<title>Node1&#45;&gt;Node2</title>
<g id="a_edge1_Node000001_Node000002"><a xlink:title=" ">
<path fill="none" stroke="#63b8ff" d="M816.78,-279.99C686.04,-277.25 388.35,-267.21 129.37,-229.45"/>
<polygon fill="#63b8ff" stroke="#63b8ff" points="130.13,-226.02 119.73,-228.03 129.11,-232.95 130.13,-226.02"/>
</a>
</g>
</g>
<!-- Node3 -->
<g id="Node000003" class="node">
<title>Node3</title>
<g id="a_Node000003"><a xlink:title=" ">
<polygon fill="#e0e0e0" stroke="#999999" points="257.5,-222.88 136.5,-222.88 136.5,-202.12 257.5,-202.12 257.5,-222.88"/>
<text text-anchor="middle" x="197" y="-209.38" font-family="Helvetica,sans-Serif" font-size="10.00">deal.II/base/utilities.h</text>
</a>
</g>
</g>
<!-- Node1&#45;&gt;Node3 -->
<g id="edge2_Node000001_Node000003" class="edge">
<title>Node1&#45;&gt;Node3</title>
<g id="a_edge2_Node000001_Node000003"><a xlink:title=" ">
<path fill="none" stroke="#63b8ff" d="M816.68,-278.01C703.64,-272.39 468.76,-258.12 272,-229.25 265,-228.22 257.68,-226.94 250.46,-225.56"/>
<polygon fill="#63b8ff" stroke="#63b8ff" points="251.25,-222.15 240.76,-223.62 249.88,-229.01 251.25,-222.15"/>
</a>
</g>
</g>
<!-- Node4 -->
<g id="Node000004" class="node">
<title>Node4</title>
<g id="a_Node000004"><a xlink:href="conditional__ostreams_8h.html" target="_top" xlink:title=" ">
<polygon fill="white" stroke="#666666" points="486.88,-229.25 347.12,-229.25 347.12,-195.75 486.88,-195.75 486.88,-229.25"/>
<text text-anchor="start" x="355.12" y="-215.75" font-family="Helvetica,sans-Serif" font-size="10.00">prismspf/core/conditional</text>
<text text-anchor="middle" x="417" y="-203" font-family="Helvetica,sans-Serif" font-size="10.00">_ostreams.h</text>
</a>
</g>
</g>
<!-- Node1&#45;&gt;Node4 -->
<g id="edge3_Node000001_Node000004" class="edge">
<title>Node1&#45;&gt;Node4</title>
<g id="a_edge3_Node000001_Node000004"><a xlink:title=" ">
<path fill="none" stroke="#63b8ff" d="M817.09,-271.33C733.04,-259.18 588.91,-238.35 498.52,-225.28"/>
<polygon fill="#63b8ff" stroke="#63b8ff" points="499.12,-221.83 488.72,-223.87 498.12,-228.76 499.12,-221.83"/>
</a>
</g>
</g>
<!-- Node6 -->
<g id="Node000006" class="node">
<title>Node6</title>
<g id="a_Node000006"><a xlink:title=" ">
<polygon fill="#e0e0e0" stroke="#999999" points="444,-20.75 344,-20.75 344,0 444,0 444,-20.75"/>
<text text-anchor="middle" x="394" y="-7.25" font-family="Helvetica,sans-Serif" font-size="10.00">prismspf/config.h</text>
</a>
</g>
</g>
<!-- Node1&#45;&gt;Node6 -->
<g id="edge38_Node000001_Node000006" class="edge">
<title>Node1&#45;&gt;Node6</title>
<g id="a_edge38_Node000001_Node000006"><a xlink:title=" ">
<path fill="none" stroke="#63b8ff" d="M816.83,-279.48C678.16,-275.64 370.4,-263.36 338,-229.25 285.2,-173.66 302.72,-125.32 337,-56.75 343.06,-44.62 354.04,-34.7 364.76,-27.25"/>
<polygon fill="#63b8ff" stroke="#63b8ff" points="366.55,-30.26 373.1,-21.94 362.78,-24.36 366.55,-30.26"/>
</a>
</g>
</g>
<!-- Node7 -->
<g id="Node000007" class="node">
<title>Node7</title>
<g id="a_Node000007"><a xlink:href="exceptions_8h.html" target="_top" xlink:title=" ">
<polygon fill="white" stroke="#666666" points="805,-222.88 657,-222.88 657,-202.12 805,-202.12 805,-222.88"/>
<text text-anchor="middle" x="731" y="-209.38" font-family="Helvetica,sans-Serif" font-size="10.00">prismspf/core/exceptions.h</text>
</a>
</g>
</g>
<!-- Node1&#45;&gt;Node7 -->
<g id="edge6_Node000001_Node000007" class="edge">
<title>Node1&#45;&gt;Node7</title>
<g id="a_edge6_Node000001_Node000007"><a xlink:title=" ">
<path fill="none" stroke="#63b8ff" d="M847.35,-264.83C821.79,-253.55 787.98,-238.64 763.4,-227.79"/>
<polygon fill="#63b8ff" stroke="#63b8ff" points="765.09,-224.72 754.53,-223.88 762.27,-231.12 765.09,-224.72"/>
</a>
</g>
</g>
<!-- Node9 -->
<g id="Node000009" class="node">
<title>Node9</title>
<g id="a_Node000009"><a xlink:href="types_8h.html" target="_top" xlink:title=" ">
<polygon fill="white" stroke="#666666" points="697.88,-153.38 576.12,-153.38 576.12,-132.62 697.88,-132.62 697.88,-153.38"/>
<text text-anchor="middle" x="637" y="-139.88" font-family="Helvetica,sans-Serif" font-size="10.00">prismspf/core/types.h</text>
</a>
</g>
</g>
<!-- Node1&#45;&gt;Node9 -->
<g id="edge17_Node000001_Node000009" class="edge">
<title>Node1&#45;&gt;Node9</title>
<g id="a_edge17_Node000001_Node000009"><a xlink:title=" ">
<path fill="none" stroke="#63b8ff" d="M875.01,-265.02C863.38,-245.77 841.32,-213.8 814,-195.75 782.8,-175.14 743.23,-162.56 709.42,-154.98"/>
<polygon fill="#63b8ff" stroke="#63b8ff" points="710.18,-151.56 699.67,-152.91 708.72,-158.41 710.18,-151.56"/>
</a>
</g>
</g>
<!-- Node11 -->
<g id="Node000011" class="node">
<title>Node11</title>
<g id="a_Node000011"><a xlink:href="type__enums_8h.html" target="_top" xlink:title=" ">
<polygon fill="white" stroke="#666666" points="535.75,-90.25 428.25,-90.25 428.25,-56.75 535.75,-56.75 535.75,-90.25"/>
<text text-anchor="start" x="436.25" y="-76.75" font-family="Helvetica,sans-Serif" font-size="10.00">prismspf/core/type</text>
<text text-anchor="middle" x="482" y="-64" font-family="Helvetica,sans-Serif" font-size="10.00">_enums.h</text>
</a>
</g>
</g>
<!-- Node1&#45;&gt;Node11 -->
<g id="edge16_Node000001_Node000011" class="edge">
<title>Node1&#45;&gt;Node11</title>
<g id="a_edge16_Node000001_Node000011"><a xlink:title=" ">
<path fill="none" stroke="#63b8ff" d="M816.74,-275.13C767.85,-268.8 701.21,-255.78 648,-229.25 584.56,-197.62 528.3,-134.01 500.46,-99"/>
<polygon fill="#63b8ff" stroke="#63b8ff" points="503.54,-97.26 494.62,-91.53 498.02,-101.57 503.54,-97.26"/>
</a>
</g>
</g>
<!-- Node13 -->
<g id="Node000013" class="node">
<title>Node13</title>
<g id="a_Node000013"><a xlink:title=" ">
<polygon fill="#e0e0e0" stroke="#999999" points="905.88,-20.75 862.12,-20.75 862.12,0 905.88,0 905.88,-20.75"/>
<text text-anchor="middle" x="884" y="-7.25" font-family="Helvetica,sans-Serif" font-size="10.00">string</text>
</a>
</g>
</g>
<!-- Node1&#45;&gt;Node13 -->
<g id="edge42_Node000001_Node000013" class="edge">
<title>Node1&#45;&gt;Node13</title>
<g id="a_edge42_Node000001_Node000013"><a xlink:title=" ">
<path fill="none" stroke="#63b8ff" d="M884,-264.94C884,-218.64 884,-84.88 884,-32.64"/>
<polygon fill="#63b8ff" stroke="#63b8ff" points="887.5,-32.73 884,-22.73 880.5,-32.73 887.5,-32.73"/>
</a>
</g>
</g>
<!-- Node14 -->
<g id="Node000014" class="node">
<title>Node14</title>
<g id="a_Node000014"><a xlink:title=" ">
<polygon fill="#e0e0e0" stroke="#999999" points="1113.75,-229.25 988.25,-229.25 988.25,-195.75 1113.75,-195.75 1113.75,-229.25"/>
<text text-anchor="start" x="996.25" y="-215.75" font-family="Helvetica,sans-Serif" font-size="10.00">prismspf/core/variable</text>
<text text-anchor="middle" x="1051" y="-203" font-family="Helvetica,sans-Serif" font-size="10.00">_attributes.h</text>
</a>
</g>
</g>
<!-- Node1&#45;&gt;Node14 -->
<g id="edge18_Node000001_Node000014" class="edge">
<title>Node1&#45;&gt;Node14</title>
<g id="a_edge18_Node000001_Node000014"><a xlink:title=" ">
<path fill="none" stroke="#63b8ff" d="M924,-264.83C946.95,-255.56 975.98,-243.82 1000.49,-233.92"/>
<polygon fill="#63b8ff" stroke="#63b8ff" points="1001.67,-237.21 1009.63,-230.22 999.05,-230.72 1001.67,-237.21"/>
</a>
</g>
</g>
<!-- Node15 -->
<g id="Node000015" class="node">
<title>Node15</title>
<g id="a_Node000015"><a xlink:title=" ">
<polygon fill="#e0e0e0" stroke="#999999" points="1250,-229.25 1132,-229.25 1132,-195.75 1250,-195.75 1250,-229.25"/>
<text text-anchor="start" x="1140" y="-215.75" font-family="Helvetica,sans-Serif" font-size="10.00">prismspf/user_inputs</text>
<text text-anchor="middle" x="1191" y="-203" font-family="Helvetica,sans-Serif" font-size="10.00">/parameter_base.h</text>
</a>
</g>
</g>
<!-- Node1&#45;&gt;Node15 -->
<g id="edge19_Node000001_Node000015" class="edge">
<title>Node1&#45;&gt;Node15</title>
<g id="a_edge19_Node000001_Node000015"><a xlink:title=" ">
<path fill="none" stroke="#63b8ff" d="M951.28,-266.7C996.58,-257.01 1057.95,-243.77 1120.76,-229.74"/>
<polygon fill="#63b8ff" stroke="#63b8ff" points="1121.2,-233.22 1130.2,-227.62 1119.67,-226.39 1121.2,-233.22"/>
</a>
</g>
</g>
<!-- Node16 -->
<g id="Node000016" class="node">
<title>Node16</title>
<g id="a_Node000016"><a xlink:href="utilities_8h.html" target="_top" xlink:title=" ">
<polygon fill="white" stroke="#666666" points="1153.25,-159.75 1054.75,-159.75 1054.75,-126.25 1153.25,-126.25 1153.25,-159.75"/>
<text text-anchor="start" x="1062.75" y="-146.25" font-family="Helvetica,sans-Serif" font-size="10.00">prismspf/utilities</text>
<text text-anchor="middle" x="1104" y="-133.5" font-family="Helvetica,sans-Serif" font-size="10.00">/utilities.h</text>
</a>
</g>
</g>
<!-- Node1&#45;&gt;Node16 -->
<g id="edge20_Node000001_Node000016" class="edge">
<title>Node1&#45;&gt;Node16</title>
<g id="a_edge20_Node000001_Node000016"><a xlink:title=" ">
<path fill="none" stroke="#63b8ff" d="M891.77,-264.8C901.76,-245.65 920.85,-214.06 946,-195.75 974.58,-174.95 1011.97,-162.2 1043.2,-154.57"/>
<polygon fill="#63b8ff" stroke="#63b8ff" points="1043.97,-157.99 1052.93,-152.33 1042.4,-151.16 1043.97,-157.99"/>
</a>
</g>
</g>
<!-- Node27 -->
<g id="Node000027" class="node">
<title>Node27</title>
<g id="a_Node000027"><a xlink:title=" ">
<polygon fill="#e0e0e0" stroke="#999999" points="2081.25,-83.88 1988.75,-83.88 1988.75,-63.12 2081.25,-63.12 2081.25,-83.88"/>
<text text-anchor="middle" x="2035" y="-70.38" font-family="Helvetica,sans-Serif" font-size="10.00">unordered_map</text>
</a>
</g>
</g>
<!-- Node1&#45;&gt;Node27 -->
<g id="edge43_Node000001_Node000027" class="edge">
<title>Node1&#45;&gt;Node27</title>
<g id="a_edge43_Node000001_Node000027"><a xlink:title=" ">
<path fill="none" stroke="#63b8ff" d="M903.14,-264.93C915.03,-254.84 930.56,-241.46 944,-229.25 959.94,-214.77 959.47,-204.81 979,-195.75 1080.46,-148.7 1870.22,-111.59 1980,-90.25 1984.32,-89.41 1988.79,-88.39 1993.23,-87.28"/>
<polygon fill="#63b8ff" stroke="#63b8ff" points="1993.89,-90.72 2002.64,-84.76 1992.08,-83.96 1993.89,-90.72"/>
</a>
</g>
</g>
<!-- Node28 -->
<g id="Node000028" class="node">
<title>Node28</title>
<g id="a_Node000028"><a xlink:title=" ">
<polygon fill="#e0e0e0" stroke="#999999" points="1317.5,-222.88 1268.5,-222.88 1268.5,-202.12 1317.5,-202.12 1317.5,-222.88"/>
<text text-anchor="middle" x="1293" y="-209.38" font-family="Helvetica,sans-Serif" font-size="10.00">climits</text>
</a>
</g>
</g>
<!-- Node1&#45;&gt;Node28 -->
<g id="edge39_Node000001_Node000028" class="edge">
<title>Node1&#45;&gt;Node28</title>
<g id="a_edge39_Node000001_Node000028"><a xlink:title=" ">
<path fill="none" stroke="#63b8ff" d="M951.3,-277.72C1027.34,-272.65 1154.16,-260.02 1259,-229.25 1260.6,-228.78 1262.22,-228.25 1263.84,-227.67"/>
<polygon fill="#63b8ff" stroke="#63b8ff" points="1265.01,-230.97 1272.92,-223.93 1262.34,-224.5 1265.01,-230.97"/>
</a>
</g>
</g>
<!-- Node29 -->
<g id="Node000029" class="node">
<title>Node29</title>
<g id="a_Node000029"><a xlink:title=" ">
<polygon fill="#e0e0e0" stroke="#999999" points="1398.62,-222.88 1335.38,-222.88 1335.38,-202.12 1398.62,-202.12 1398.62,-222.88"/>
<text text-anchor="middle" x="1367" y="-209.38" font-family="Helvetica,sans-Serif" font-size="10.00">execution</text>
</a>
</g>
</g>
<!-- Node1&#45;&gt;Node29 -->
<g id="edge40_Node000001_Node000029" class="edge">
<title>Node1&#45;&gt;Node29</title>
<g id="a_edge40_Node000001_Node000029"><a xlink:title=" ">
<path fill="none" stroke="#63b8ff" d="M951.01,-278.56C1038.62,-274.15 1196.31,-262.02 1327,-229.25 1329.41,-228.65 1331.87,-227.93 1334.33,-227.15"/>
<polygon fill="#63b8ff" stroke="#63b8ff" points="1335.24,-230.54 1343.48,-223.88 1332.89,-223.94 1335.24,-230.54"/>
</a>
</g>
</g>
<!-- Node30 -->
<g id="Node000030" class="node">
<title>Node30</title>
<g id="a_Node000030"><a xlink:title=" ">
<polygon fill="#e0e0e0" stroke="#999999" points="1447.5,-222.88 1416.5,-222.88 1416.5,-202.12 1447.5,-202.12 1447.5,-222.88"/>
<text text-anchor="middle" x="1432" y="-209.38" font-family="Helvetica,sans-Serif" font-size="10.00">set</text>
</a>
</g>
</g>
<!-- Node1&#45;&gt;Node30 -->
<g id="edge41_Node000001_Node000030" class="edge">
<title>Node1&#45;&gt;Node30</title>
<g id="a_edge41_Node000001_Node000030"><a xlink:title=" ">
<path fill="none" stroke="#63b8ff" d="M951.31,-278.35C1073.2,-272.9 1325.47,-258.41 1408,-229.25 1408.65,-229.02 1409.29,-228.77 1409.94,-228.51"/>
<polygon fill="#63b8ff" stroke="#63b8ff" points="1411.48,-231.65 1418.57,-223.78 1408.12,-225.51 1411.48,-231.65"/>
</a>
</g>
</g>
<!-- Node5 -->
<g id="Node000005" class="node">
<title>Node5</title>
<g id="a_Node000005"><a xlink:title=" ">
<polygon fill="#e0e0e0" stroke="#999999" points="481.62,-159.75 352.38,-159.75 352.38,-126.25 481.62,-126.25 481.62,-159.75"/>
<text text-anchor="start" x="360.38" y="-146.25" font-family="Helvetica,sans-Serif" font-size="10.00">deal.II/base/conditional</text>
<text text-anchor="middle" x="417" y="-133.5" font-family="Helvetica,sans-Serif" font-size="10.00">_ostream.h</text>
</a>
</g>
</g>
<!-- Node4&#45;&gt;Node5 -->
<g id="edge4_Node000004_Node000005" class="edge">
<title>Node4&#45;&gt;Node5</title>
<g id="a_edge4_Node000004_Node000005"><a xlink:title=" ">
<path fill="none" stroke="#63b8ff" d="M417,-195.5C417,-188.27 417,-179.53 417,-171.31"/>
<polygon fill="#63b8ff" stroke="#63b8ff" points="420.5,-171.4 417,-161.4 413.5,-171.4 420.5,-171.4"/>
</a>
</g>
</g>
<!-- Node4&#45;&gt;Node6 -->
<g id="edge5_Node000004_Node000006" class="edge">
<title>Node4&#45;&gt;Node6</title>
<g id="a_edge5_Node000004_Node000006"><a xlink:title=" ">
<path fill="none" stroke="#63b8ff" d="M380.41,-195.35C366.02,-186.96 351.04,-175.18 343,-159.75 335.17,-144.72 339.45,-75.29 348,-56.75 353.09,-45.71 362.11,-35.89 370.83,-28.23"/>
<polygon fill="#63b8ff" stroke="#63b8ff" points="372.9,-31.05 378.44,-22.03 368.48,-25.63 372.9,-31.05"/>
</a>
</g>
</g>
<!-- Node7&#45;&gt;Node6 -->
<g id="edge15_Node000007_Node000006" class="edge">
<title>Node7&#45;&gt;Node6</title>
<g id="a_edge15_Node000007_Node000006"><a xlink:title=" ">
<path fill="none" stroke="#63b8ff" d="M696.07,-201.68C662.61,-192 610.86,-176.28 567,-159.75 532.46,-146.73 525.16,-140.24 491,-126.25 449.22,-109.14 422.12,-127.08 396,-90.25 384.14,-73.53 385.46,-49.4 388.61,-32.24"/>
<polygon fill="#63b8ff" stroke="#63b8ff" points="391.99,-33.18 390.73,-22.66 385.15,-31.66 391.99,-33.18"/>
</a>
</g>
</g>
<!-- Node8 -->
<g id="Node000008" class="node">
<title>Node8</title>
<g id="a_Node000008"><a xlink:title=" ">
<polygon fill="#e0e0e0" stroke="#999999" points="817.75,-83.88 680.25,-83.88 680.25,-63.12 817.75,-63.12 817.75,-83.88"/>
<text text-anchor="middle" x="749" y="-70.38" font-family="Helvetica,sans-Serif" font-size="10.00">deal.II/base/exceptions.h</text>
</a>
</g>
</g>
<!-- Node7&#45;&gt;Node8 -->
<g id="edge7_Node000007_Node000008" class="edge">
<title>Node7&#45;&gt;Node8</title>
<g id="a_edge7_Node000007_Node000008"><a xlink:title=" ">
<path fill="none" stroke="#63b8ff" d="M732.29,-201.65C735.2,-179.53 742.3,-125.52 746.24,-95.5"/>
<polygon fill="#63b8ff" stroke="#63b8ff" points="749.69,-96.13 747.52,-85.76 742.75,-95.22 749.69,-96.13"/>
</a>
</g>
</g>
<!-- Node7&#45;&gt;Node9 -->
<g id="edge8_Node000007_Node000009" class="edge">
<title>Node7&#45;&gt;Node9</title>
<g id="a_edge8_Node000007_Node000009"><a xlink:title=" ">
<path fill="none" stroke="#63b8ff" d="M717.53,-201.83C702.54,-191.06 678.05,-173.48 660.01,-160.52"/>
<polygon fill="#63b8ff" stroke="#63b8ff" points="662.14,-157.75 651.98,-154.76 658.06,-163.43 662.14,-157.75"/>
</a>
</g>
</g>
<!-- Node9&#45;&gt;Node6 -->
<g id="edge14_Node000009_Node000006" class="edge">
<title>Node9&#45;&gt;Node6</title>
<g id="a_edge14_Node000009_Node000006"><a xlink:title=" ">
<path fill="none" stroke="#63b8ff" d="M575.78,-134.29C519.53,-126.02 441.55,-111.2 419,-90.25 403,-75.39 397.19,-50.37 395.1,-32.49"/>
<polygon fill="#63b8ff" stroke="#63b8ff" points="398.61,-32.41 394.29,-22.73 391.63,-32.99 398.61,-32.41"/>
</a>
</g>
</g>
<!-- Node10 -->
<g id="Node000010" class="node">
<title>Node10</title>
<g id="a_Node000010"><a xlink:title=" ">
<polygon fill="#e0e0e0" stroke="#999999" points="662.12,-90.25 553.88,-90.25 553.88,-56.75 662.12,-56.75 662.12,-90.25"/>
<text text-anchor="start" x="561.88" y="-76.75" font-family="Helvetica,sans-Serif" font-size="10.00">deal.II/matrix_free</text>
<text text-anchor="middle" x="608" y="-64" font-family="Helvetica,sans-Serif" font-size="10.00">/evaluation_flags.h</text>
</a>
</g>
</g>
<!-- Node9&#45;&gt;Node10 -->
<g id="edge9_Node000009_Node000010" class="edge">
<title>Node9&#45;&gt;Node10</title>
<g id="a_edge9_Node000009_Node000010"><a xlink:title=" ">
<path fill="none" stroke="#63b8ff" d="M632.85,-132.33C629.34,-124.18 624.17,-112.13 619.44,-101.13"/>
<polygon fill="#63b8ff" stroke="#63b8ff" points="622.71,-99.87 615.54,-92.06 616.28,-102.63 622.71,-99.87"/>
</a>
</g>
</g>
<!-- Node9&#45;&gt;Node11 -->
<g id="edge10_Node000009_Node000011" class="edge">
<title>Node9&#45;&gt;Node11</title>
<g id="a_edge10_Node000009_Node000011"><a xlink:title=" ">
<path fill="none" stroke="#63b8ff" d="M614.46,-132.18C592.35,-122.56 557.94,-107.57 529.73,-95.29"/>
<polygon fill="#63b8ff" stroke="#63b8ff" points="531.22,-92.12 520.65,-91.33 528.42,-98.53 531.22,-92.12"/>
</a>
</g>
</g>
<!-- Node11&#45;&gt;Node6 -->
<g id="edge11_Node000011_Node000006" class="edge">
<title>Node11&#45;&gt;Node6</title>
<g id="a_edge11_Node000011_Node000006"><a xlink:title=" ">
<path fill="none" stroke="#63b8ff" d="M458.88,-56.44C446.06,-47.53 430.15,-36.49 417.3,-27.56"/>
<polygon fill="#63b8ff" stroke="#63b8ff" points="419.62,-24.91 409.41,-22.08 415.63,-30.66 419.62,-24.91"/>
</a>
</g>
</g>
<!-- Node12 -->
<g id="Node000012" class="node">
<title>Node12</title>
<g id="a_Node000012"><a xlink:title=" ">
<polygon fill="#e0e0e0" stroke="#999999" points="511.5,-20.75 462.5,-20.75 462.5,0 511.5,0 511.5,-20.75"/>
<text text-anchor="middle" x="487" y="-7.25" font-family="Helvetica,sans-Serif" font-size="10.00">cstdint</text>
</a>
</g>
</g>
<!-- Node11&#45;&gt;Node12 -->
<g id="edge12_Node000011_Node000012" class="edge">
<title>Node11&#45;&gt;Node12</title>
<g id="a_edge12_Node000011_Node000012"><a xlink:title=" ">
<path fill="none" stroke="#63b8ff" d="M483.31,-56.44C483.91,-49.1 484.63,-40.32 485.28,-32.46"/>
<polygon fill="#63b8ff" stroke="#63b8ff" points="488.74,-32.98 486.07,-22.73 481.77,-32.41 488.74,-32.98"/>
</a>
</g>
</g>
<!-- Node11&#45;&gt;Node13 -->
<g id="edge13_Node000011_Node000013" class="edge">
<title>Node11&#45;&gt;Node13</title>
<g id="a_edge13_Node000011_Node000013"><a xlink:title=" ">
<path fill="none" stroke="#63b8ff" d="M536.21,-58.54C539.18,-57.9 542.12,-57.3 545,-56.75 655.99,-35.52 789.31,-20.78 850.42,-14.61"/>
<polygon fill="#63b8ff" stroke="#63b8ff" points="850.54,-18.12 860.14,-13.64 849.85,-11.15 850.54,-18.12"/>
</a>
</g>
</g>
<!-- Node16&#45;&gt;Node6 -->
<g id="edge33_Node000016_Node000006" class="edge">
<title>Node16&#45;&gt;Node6</title>
<g id="a_edge33_Node000016_Node000006"><a xlink:title=" ">
<path fill="none" stroke="#63b8ff" d="M1054.6,-131.65C1013.5,-122.48 953.73,-107.83 903,-90.25 868.12,-78.16 862.71,-66.09 827,-56.75 669.33,-15.53 621.29,-40.49 455.48,-20.83"/>
<polygon fill="#63b8ff" stroke="#63b8ff" points="456.24,-17.4 445.89,-19.65 455.39,-24.34 456.24,-17.4"/>
</a>
</g>
</g>
<!-- Node16&#45;&gt;Node8 -->
<g id="edge22_Node000016_Node000008" class="edge">
<title>Node16&#45;&gt;Node8</title>
<g id="a_edge22_Node000016_Node000008"><a xlink:title=" ">
<path fill="none" stroke="#63b8ff" d="M1054.26,-132.54C990.82,-120.48 881.04,-99.61 811.86,-86.45"/>
<polygon fill="#63b8ff" stroke="#63b8ff" points="812.67,-83.04 802.19,-84.61 811.36,-89.92 812.67,-83.04"/>
</a>
</g>
</g>
<!-- Node16&#45;&gt;Node10 -->
<g id="edge26_Node000016_Node000010" class="edge">
<title>Node16&#45;&gt;Node10</title>
<g id="a_edge26_Node000016_Node000010"><a xlink:title=" ">
<path fill="none" stroke="#63b8ff" d="M1054.34,-138.11C975.59,-131.51 817.06,-116.39 673.71,-90.62"/>
<polygon fill="#63b8ff" stroke="#63b8ff" points="674.5,-87.2 664.03,-88.85 673.24,-94.09 674.5,-87.2"/>
</a>
</g>
</g>
<!-- Node16&#45;&gt;Node13 -->
<g id="edge35_Node000016_Node000013" class="edge">
<title>Node16&#45;&gt;Node13</title>
<g id="a_edge35_Node000016_Node000013"><a xlink:title=" ">
<path fill="none" stroke="#63b8ff" d="M1095.17,-126.05C1083.74,-106.84 1062.03,-74.9 1035,-56.75 998.97,-32.57 949.66,-20.93 917.33,-15.58"/>
<polygon fill="#63b8ff" stroke="#63b8ff" points="918.16,-12.17 907.74,-14.11 917.09,-19.09 918.16,-12.17"/>
</a>
</g>
</g>
<!-- Node17 -->
<g id="Node000017" class="node">
<title>Node17</title>
<g id="a_Node000017"><a xlink:title=" ">
<polygon fill="#e0e0e0" stroke="#999999" points="1843.75,-83.88 1730.25,-83.88 1730.25,-63.12 1843.75,-63.12 1843.75,-83.88"/>
<text text-anchor="middle" x="1787" y="-70.38" font-family="Helvetica,sans-Serif" font-size="10.00">deal.II/base/config.h</text>
</a>
</g>
</g>
<!-- Node16&#45;&gt;Node17 -->
<g id="edge21_Node000016_Node000017" class="edge">
<title>Node16&#45;&gt;Node17</title>
<g id="a_edge21_Node000016_Node000017"><a xlink:title=" ">
<path fill="none" stroke="#63b8ff" d="M1153.7,-128.7C1158.17,-127.77 1162.66,-126.93 1167,-126.25 1408.58,-88.44 1473.93,-124.83 1716,-90.25 1722.73,-89.29 1729.76,-88.04 1736.68,-86.66"/>
<polygon fill="#63b8ff" stroke="#63b8ff" points="1737.22,-90.12 1746.28,-84.64 1735.78,-83.27 1737.22,-90.12"/>
</a>
</g>
</g>
<!-- Node18 -->
<g id="Node000018" class="node">
<title>Node18</title>
<g id="a_Node000018"><a xlink:title=" ">
<polygon fill="#e0e0e0" stroke="#999999" points="1970.5,-83.88 1861.5,-83.88 1861.5,-63.12 1970.5,-63.12 1970.5,-83.88"/>
<text text-anchor="middle" x="1916" y="-70.38" font-family="Helvetica,sans-Serif" font-size="10.00">deal.II/base/point.h</text>
</a>
</g>
</g>
<!-- Node16&#45;&gt;Node18 -->
<g id="edge23_Node000016_Node000018" class="edge">
<title>Node16&#45;&gt;Node18</title>
<g id="a_edge23_Node000016_Node000018"><a xlink:title=" ">
<path fill="none" stroke="#63b8ff" d="M1153.69,-128.64C1158.17,-127.72 1162.65,-126.9 1167,-126.25 1468.94,-81.02 1551.06,-135.48 1853,-90.25 1858.78,-89.38 1864.79,-88.22 1870.72,-86.93"/>
<polygon fill="#63b8ff" stroke="#63b8ff" points="1871.5,-90.34 1880.44,-84.64 1869.9,-83.52 1871.5,-90.34"/>
</a>
</g>
</g>
<!-- Node19 -->
<g id="Node000019" class="node">
<title>Node19</title>
<g id="a_Node000019"><a xlink:title=" ">
<polygon fill="#e0e0e0" stroke="#999999" points="1026.12,-83.88 911.88,-83.88 911.88,-63.12 1026.12,-63.12 1026.12,-83.88"/>
<text text-anchor="middle" x="969" y="-70.38" font-family="Helvetica,sans-Serif" font-size="10.00">deal.II/base/tensor.h</text>
</a>
</g>
</g>
<!-- Node16&#45;&gt;Node19 -->
<g id="edge24_Node000016_Node000019" class="edge">
<title>Node16&#45;&gt;Node19</title>
<g id="a_edge24_Node000016_Node000019"><a xlink:title=" ">
<path fill="none" stroke="#63b8ff" d="M1071.66,-125.83C1049.51,-114.75 1020.34,-100.17 998.76,-89.38"/>
<polygon fill="#63b8ff" stroke="#63b8ff" points="1000.41,-86.29 989.9,-84.95 997.28,-92.55 1000.41,-86.29"/>
</a>
</g>
</g>
<!-- Node20 -->
<g id="Node000020" class="node">
<title>Node20</title>
<g id="a_Node000020"><a xlink:title=" ">
<polygon fill="#e0e0e0" stroke="#999999" points="1776,-20.75 1628,-20.75 1628,0 1776,0 1776,-20.75"/>
<text text-anchor="middle" x="1702" y="-7.25" font-family="Helvetica,sans-Serif" font-size="10.00">deal.II/base/vectorization.h</text>
</a>
</g>
</g>
<!-- Node16&#45;&gt;Node20 -->
<g id="edge25_Node000016_Node000020" class="edge">
<title>Node16&#45;&gt;Node20</title>
<g id="a_edge25_Node000016_Node000020"><a xlink:title=" ">
<path fill="none" stroke="#63b8ff" d="M1153.7,-128.72C1158.18,-127.78 1162.66,-126.94 1167,-126.25 1223.76,-117.25 1639.12,-127.36 1683,-90.25 1699.44,-76.35 1703.02,-50.94 1703.24,-32.71"/>
<polygon fill="#63b8ff" stroke="#63b8ff" points="1706.74,-32.65 1702.99,-22.74 1699.74,-32.82 1706.74,-32.65"/>
</a>
</g>
</g>
<!-- Node21 -->
<g id="Node000021" class="node">
<title>Node21</title>
<g id="a_Node000021"><a xlink:title=" ">
<polygon fill="#e0e0e0" stroke="#999999" points="1227.5,-83.88 1082.5,-83.88 1082.5,-63.12 1227.5,-63.12 1227.5,-83.88"/>
<text text-anchor="middle" x="1155" y="-70.38" font-family="Helvetica,sans-Serif" font-size="10.00">boost/range/algorithm.hpp</text>
</a>
</g>
</g>
<!-- Node16&#45;&gt;Node21 -->
<g id="edge27_Node000016_Node000021" class="edge">
<title>Node16&#45;&gt;Node21</title>
<g id="a_edge27_Node000016_Node000021"><a xlink:title=" ">
<path fill="none" stroke="#63b8ff" d="M1116.09,-126C1123.5,-116.19 1133.02,-103.59 1140.79,-93.3"/>
<polygon fill="#63b8ff" stroke="#63b8ff" points="1143.43,-95.62 1146.67,-85.53 1137.85,-91.4 1143.43,-95.62"/>
</a>
</g>
</g>
<!-- Node22 -->
<g id="Node000022" class="node">
<title>Node22</title>
<g id="a_Node000022"><a xlink:title=" ">
<polygon fill="#e0e0e0" stroke="#999999" points="1370,-90.25 1246,-90.25 1246,-56.75 1370,-56.75 1370,-90.25"/>
<text text-anchor="start" x="1254" y="-76.75" font-family="Helvetica,sans-Serif" font-size="10.00">boost/range/algorithm</text>
<text text-anchor="middle" x="1308" y="-64" font-family="Helvetica,sans-Serif" font-size="10.00">_ext.hpp</text>
</a>
</g>
</g>
<!-- Node16&#45;&gt;Node22 -->
<g id="edge28_Node000016_Node000022" class="edge">
<title>Node16&#45;&gt;Node22</title>
<g id="a_edge28_Node000016_Node000022"><a xlink:title=" ">
<path fill="none" stroke="#63b8ff" d="M1152.86,-125.83C1181.52,-116.35 1217.95,-104.3 1248.3,-94.25"/>
<polygon fill="#63b8ff" stroke="#63b8ff" points="1249.35,-97.59 1257.75,-91.13 1247.15,-90.95 1249.35,-97.59"/>
</a>
</g>
</g>
<!-- Node23 -->
<g id="Node000023" class="node">
<title>Node23</title>
<g id="a_Node000023"><a xlink:href="vectorized__operations_8h.html" target="_top" xlink:title=" ">
<polygon fill="white" stroke="#666666" points="1674,-90.25 1538,-90.25 1538,-56.75 1674,-56.75 1674,-90.25"/>
<text text-anchor="start" x="1546" y="-76.75" font-family="Helvetica,sans-Serif" font-size="10.00">prismspf/utilities</text>
<text text-anchor="middle" x="1606" y="-64" font-family="Helvetica,sans-Serif" font-size="10.00">/vectorized_operations.h</text>
</a>
</g>
</g>
<!-- Node16&#45;&gt;Node23 -->
<g id="edge29_Node000016_Node000023" class="edge">
<title>Node16&#45;&gt;Node23</title>
<g id="a_edge29_Node000016_Node000023"><a xlink:title=" ">
<path fill="none" stroke="#63b8ff" d="M1153.72,-128.86C1158.19,-127.89 1162.67,-127 1167,-126.25 1322.72,-99.19 1367.16,-113.79 1526.47,-90.53"/>
<polygon fill="#63b8ff" stroke="#63b8ff" points="1526.76,-94.02 1536.13,-89.09 1525.73,-87.1 1526.76,-94.02"/>
</a>
</g>
</g>
<!-- Node25 -->
<g id="Node000025" class="node">
<title>Node25</title>
<g id="a_Node000025"><a xlink:title=" ">
<polygon fill="#e0e0e0" stroke="#999999" points="1429.75,-83.88 1388.25,-83.88 1388.25,-63.12 1429.75,-63.12 1429.75,-83.88"/>
<text text-anchor="middle" x="1409" y="-70.38" font-family="Helvetica,sans-Serif" font-size="10.00">array</text>
</a>
</g>
</g>
<!-- Node16&#45;&gt;Node25 -->
<g id="edge34_Node000016_Node000025" class="edge">
<title>Node16&#45;&gt;Node25</title>
<g id="a_edge34_Node000016_Node000025"><a xlink:title=" ">
<path fill="none" stroke="#63b8ff" d="M1153.44,-129.26C1158.01,-128.2 1162.59,-127.18 1167,-126.25 1260.54,-106.65 1288.46,-120.84 1379,-90.25 1380.14,-89.86 1381.29,-89.44 1382.45,-88.98"/>
<polygon fill="#63b8ff" stroke="#63b8ff" points="1383.61,-92.3 1391.22,-84.93 1380.68,-85.95 1383.61,-92.3"/>
</a>
</g>
</g>
<!-- Node26 -->
<g id="Node000026" class="node">
<title>Node26</title>
<g id="a_Node000026"><a xlink:title=" ">
<polygon fill="#e0e0e0" stroke="#999999" points="1520.12,-83.88 1447.88,-83.88 1447.88,-63.12 1520.12,-63.12 1520.12,-83.88"/>
<text text-anchor="middle" x="1484" y="-70.38" font-family="Helvetica,sans-Serif" font-size="10.00">string_view</text>
</a>
</g>
</g>
<!-- Node16&#45;&gt;Node26 -->
<g id="edge36_Node000016_Node000026" class="edge">
<title>Node16&#45;&gt;Node26</title>
<g id="a_edge36_Node000016_Node000026"><a xlink:title=" ">
<path fill="none" stroke="#63b8ff" d="M1153.75,-129.01C1158.22,-128.01 1162.68,-127.07 1167,-126.25 1286.79,-103.43 1320.38,-118.54 1439,-90.25 1441.99,-89.54 1445.06,-88.7 1448.13,-87.79"/>
<polygon fill="#63b8ff" stroke="#63b8ff" points="1449.17,-91.13 1457.6,-84.72 1447.01,-84.47 1449.17,-91.13"/>
</a>
</g>
</g>
<!-- Node16&#45;&gt;Node27 -->
<g id="edge37_Node000016_Node000027" class="edge">
<title>Node16&#45;&gt;Node27</title>
<g id="a_edge37_Node000016_Node000027"><a xlink:title=" ">
<path fill="none" stroke="#63b8ff" d="M1153.68,-128.6C1158.16,-127.69 1162.65,-126.88 1167,-126.25 1524.91,-74.13 1623.02,-148.44 1980,-90.25 1984.74,-89.48 1989.66,-88.43 1994.51,-87.25"/>
<polygon fill="#63b8ff" stroke="#63b8ff" points="1995.38,-90.64 2004.14,-84.68 1993.58,-83.88 1995.38,-90.64"/>
</a>
</g>
</g>
<!-- Node23&#45;&gt;Node6 -->
<g id="edge31_Node000023_Node000006" class="edge">
<title>Node23&#45;&gt;Node6</title>
<g id="a_edge31_Node000023_Node000006"><a xlink:title=" ">
<path fill="none" stroke="#63b8ff" d="M1537.66,-57.9C1534.74,-57.47 1531.85,-57.09 1529,-56.75 1057.97,-1.09 931.89,-64.72 455.67,-20.76"/>
<polygon fill="#63b8ff" stroke="#63b8ff" points="456.15,-17.29 445.87,-19.84 455.5,-24.26 456.15,-17.29"/>
</a>
</g>
</g>
<!-- Node23&#45;&gt;Node20 -->
<g id="edge30_Node000023_Node000020" class="edge">
<title>Node23&#45;&gt;Node20</title>
<g id="a_edge30_Node000023_Node000020"><a xlink:title=" ">
<path fill="none" stroke="#63b8ff" d="M1631.47,-56.28C1645.6,-47.29 1663.09,-36.15 1677.12,-27.22"/>
<polygon fill="#63b8ff" stroke="#63b8ff" points="1678.79,-30.3 1685.35,-21.98 1675.03,-24.4 1678.79,-30.3"/>
</a>
</g>
</g>
<!-- Node24 -->
<g id="Node000024" class="node">
<title>Node24</title>
<g id="a_Node000024"><a xlink:title=" ">
<polygon fill="#e0e0e0" stroke="#999999" points="1610.38,-20.75 1563.62,-20.75 1563.62,0 1610.38,0 1610.38,-20.75"/>
<text text-anchor="middle" x="1587" y="-7.25" font-family="Helvetica,sans-Serif" font-size="10.00">cmath</text>
</a>
</g>
</g>
<!-- Node23&#45;&gt;Node24 -->
<g id="edge32_Node000023_Node000024" class="edge">
<title>Node23&#45;&gt;Node24</title>
<g id="a_edge32_Node000023_Node000024"><a xlink:title=" ">
<path fill="none" stroke="#63b8ff" d="M1601.01,-56.44C1598.7,-49.02 1595.93,-40.11 1593.47,-32.18"/>
<polygon fill="#63b8ff" stroke="#63b8ff" points="1596.82,-31.17 1590.51,-22.66 1590.13,-33.25 1596.82,-31.17"/>
</a>
</g>
</g>
</g>
</svg>
