<?xml version="1.0" encoding="UTF-8" standalone="no"?>
<!DOCTYPE svg PUBLIC "-//W3C//DTD SVG 1.1//EN"
 "http://www.w3.org/Graphics/SVG/1.1/DTD/svg11.dtd">
<!-- Generated by graphviz version 12.2.1 (20241206.2353)
 -->
<!-- Title: include/prismspf/user_inputs/io_parameters.h Pages: 1 -->
<svg width="2246pt" height="307pt"
 viewBox="0.00 0.00 2246.25 306.75" xmlns="http://www.w3.org/2000/svg" xmlns:xlink="http://www.w3.org/1999/xlink">
<g id="graph0" class="graph" transform="scale(1 1) rotate(0) translate(4 302.75)">
<title>include/prismspf/user_inputs/io_parameters.h</title>
<!-- Node1 -->
<g id="Node000001" class="node">
<title>Node1</title>
<g id="a_Node000001"><a xlink:title=" ">
<polygon fill="#999999" stroke="#666666" points="851.88,-298.75 718.12,-298.75 718.12,-265.25 851.88,-265.25 851.88,-298.75"/>
<text text-anchor="start" x="726.12" y="-285.25" font-family="Helvetica,sans-Serif" font-size="10.00">include/prismspf/user</text>
<text text-anchor="middle" x="785" y="-272.5" font-family="Helvetica,sans-Serif" font-size="10.00">_inputs/io_parameters.h</text>
</a>
</g>
</g>
<!-- Node2 -->
<g id="Node000002" class="node">
<title>Node2</title>
<g id="a_Node000002"><a xlink:title=" ">
<polygon fill="#e0e0e0" stroke="#999999" points="118,-229.25 0,-229.25 0,-195.75 118,-195.75 118,-229.25"/>
<text text-anchor="start" x="8" y="-215.75" font-family="Helvetica,sans-Serif" font-size="10.00">deal.II/base/data_out</text>
<text text-anchor="middle" x="59" y="-203" font-family="Helvetica,sans-Serif" font-size="10.00">_base.h</text>
</a>
</g>
</g>
<!-- Node1&#45;&gt;Node2 -->
<g id="edge1_Node000001_Node000002" class="edge">
<title>Node1&#45;&gt;Node2</title>
<g id="a_edge1_Node000001_Node000002"><a xlink:title=" ">
<path fill="none" stroke="#63b8ff" d="M717.84,-279.02C600.35,-274.84 349.82,-262.72 129.38,-229.47"/>
<polygon fill="#63b8ff" stroke="#63b8ff" points="130.15,-226.05 119.73,-228 129.09,-232.97 130.15,-226.05"/>
</a>
</g>
</g>
<!-- Node3 -->
<g id="Node000003" class="node">
<title>Node3</title>
<g id="a_Node000003"><a xlink:title=" ">
<polygon fill="#e0e0e0" stroke="#999999" points="257.5,-222.88 136.5,-222.88 136.5,-202.12 257.5,-202.12 257.5,-222.88"/>
<text text-anchor="middle" x="197" y="-209.38" font-family="Helvetica,sans-Serif" font-size="10.00">deal.II/base/utilities.h</text>
</a>
</g>
</g>
<!-- Node1&#45;&gt;Node3 -->
<g id="edge2_Node000001_Node000003" class="edge">
<title>Node1&#45;&gt;Node3</title>
<g id="a_edge2_Node000001_Node000003"><a xlink:title=" ">
<path fill="none" stroke="#63b8ff" d="M717.88,-277C618.63,-270.48 427.08,-255.56 266,-229.25 259.94,-228.26 253.61,-227.06 247.35,-225.76"/>
<polygon fill="#63b8ff" stroke="#63b8ff" points="248.23,-222.37 237.72,-223.67 246.75,-229.21 248.23,-222.37"/>
</a>
</g>
</g>
<!-- Node4 -->
<g id="Node000004" class="node">
<title>Node4</title>
<g id="a_Node000004"><a xlink:href="conditional__ostreams_8h.html" target="_top" xlink:title=" ">
<polygon fill="white" stroke="#666666" points="414.88,-229.25 275.12,-229.25 275.12,-195.75 414.88,-195.75 414.88,-229.25"/>
<text text-anchor="start" x="283.12" y="-215.75" font-family="Helvetica,sans-Serif" font-size="10.00">prismspf/core/conditional</text>
<text text-anchor="middle" x="345" y="-203" font-family="Helvetica,sans-Serif" font-size="10.00">_ostreams.h</text>
</a>
</g>
</g>
<!-- Node1&#45;&gt;Node4 -->
<g id="edge3_Node000001_Node000004" class="edge">
<title>Node1&#45;&gt;Node4</title>
<g id="a_edge3_Node000001_Node000004"><a xlink:title=" ">
<path fill="none" stroke="#63b8ff" d="M717.95,-272.09C646.29,-262.37 529.42,-245.96 429,-229.25 428.01,-229.08 427.01,-228.92 426,-228.75"/>
<polygon fill="#63b8ff" stroke="#63b8ff" points="427.03,-225.37 416.58,-227.12 425.84,-232.27 427.03,-225.37"/>
</a>
</g>
</g>
<!-- Node6 -->
<g id="Node000006" class="node">
<title>Node6</title>
<g id="a_Node000006"><a xlink:title=" ">
<polygon fill="#e0e0e0" stroke="#999999" points="539,-20.75 439,-20.75 439,0 539,0 539,-20.75"/>
<text text-anchor="middle" x="489" y="-7.25" font-family="Helvetica,sans-Serif" font-size="10.00">prismspf/config.h</text>
</a>
</g>
</g>
<!-- Node1&#45;&gt;Node6 -->
<g id="edge38_Node000001_Node000006" class="edge">
<title>Node1&#45;&gt;Node6</title>
<g id="a_edge38_Node000001_Node000006"><a xlink:title=" ">
<path fill="none" stroke="#63b8ff" d="M717.76,-278.93C639,-274.94 515.5,-263.29 486,-229.25 437.19,-172.93 465.28,-74.26 480.82,-31.77"/>
<polygon fill="#63b8ff" stroke="#63b8ff" points="484.04,-33.15 484.34,-22.56 477.5,-30.65 484.04,-33.15"/>
</a>
</g>
</g>
<!-- Node7 -->
<g id="Node000007" class="node">
<title>Node7</title>
<g id="a_Node000007"><a xlink:href="exceptions_8h.html" target="_top" xlink:title=" ">
<polygon fill="white" stroke="#666666" points="643,-222.88 495,-222.88 495,-202.12 643,-202.12 643,-222.88"/>
<text text-anchor="middle" x="569" y="-209.38" font-family="Helvetica,sans-Serif" font-size="10.00">prismspf/core/exceptions.h</text>
</a>
</g>
</g>
<!-- Node1&#45;&gt;Node7 -->
<g id="edge6_Node000001_Node000007" class="edge">
<title>Node1&#45;&gt;Node7</title>
<g id="a_edge6_Node000001_Node000007"><a xlink:title=" ">
<path fill="none" stroke="#63b8ff" d="M733.26,-264.83C695.99,-253.18 646.3,-237.66 611.37,-226.74"/>
<polygon fill="#63b8ff" stroke="#63b8ff" points="612.62,-223.46 602.03,-223.82 610.53,-230.14 612.62,-223.46"/>
</a>
</g>
</g>
<!-- Node9 -->
<g id="Node000009" class="node">
<title>Node9</title>
<g id="a_Node000009"><a xlink:href="types_8h.html" target="_top" xlink:title=" ">
<polygon fill="white" stroke="#666666" points="637.88,-153.38 516.12,-153.38 516.12,-132.62 637.88,-132.62 637.88,-153.38"/>
<text text-anchor="middle" x="577" y="-139.88" font-family="Helvetica,sans-Serif" font-size="10.00">prismspf/core/types.h</text>
</a>
</g>
</g>
<!-- Node1&#45;&gt;Node9 -->
<g id="edge17_Node000001_Node000009" class="edge">
<title>Node1&#45;&gt;Node9</title>
<g id="a_edge17_Node000001_Node000009"><a xlink:title=" ">
<path fill="none" stroke="#63b8ff" d="M754.36,-264.78C736.65,-255.06 714.15,-242.12 695,-229.25 674.89,-215.73 671.53,-210.08 652,-195.75 635.31,-183.51 616.1,-170.27 601.29,-160.24"/>
<polygon fill="#63b8ff" stroke="#63b8ff" points="603.34,-157.4 593.09,-154.71 599.43,-163.2 603.34,-157.4"/>
</a>
</g>
</g>
<!-- Node11 -->
<g id="Node000011" class="node">
<title>Node11</title>
<g id="a_Node000011"><a xlink:href="type__enums_8h.html" target="_top" xlink:title=" ">
<polygon fill="white" stroke="#666666" points="630.75,-90.25 523.25,-90.25 523.25,-56.75 630.75,-56.75 630.75,-90.25"/>
<text text-anchor="start" x="531.25" y="-76.75" font-family="Helvetica,sans-Serif" font-size="10.00">prismspf/core/type</text>
<text text-anchor="middle" x="577" y="-64" font-family="Helvetica,sans-Serif" font-size="10.00">_enums.h</text>
</a>
</g>
</g>
<!-- Node1&#45;&gt;Node11 -->
<g id="edge16_Node000001_Node000011" class="edge">
<title>Node1&#45;&gt;Node11</title>
<g id="a_edge16_Node000001_Node000011"><a xlink:title=" ">
<path fill="none" stroke="#63b8ff" d="M772.65,-265.1C749.61,-235.92 697.79,-172.59 647,-126.25 635.72,-115.96 622.45,-105.74 610.51,-97.13"/>
<polygon fill="#63b8ff" stroke="#63b8ff" points="612.7,-94.39 602.52,-91.47 608.66,-100.1 612.7,-94.39"/>
</a>
</g>
</g>
<!-- Node13 -->
<g id="Node000013" class="node">
<title>Node13</title>
<g id="a_Node000013"><a xlink:title=" ">
<polygon fill="#e0e0e0" stroke="#999999" points="806.88,-20.75 763.12,-20.75 763.12,0 806.88,0 806.88,-20.75"/>
<text text-anchor="middle" x="785" y="-7.25" font-family="Helvetica,sans-Serif" font-size="10.00">string</text>
</a>
</g>
</g>
<!-- Node1&#45;&gt;Node13 -->
<g id="edge42_Node000001_Node000013" class="edge">
<title>Node1&#45;&gt;Node13</title>
<g id="a_edge42_Node000001_Node000013"><a xlink:title=" ">
<path fill="none" stroke="#63b8ff" d="M785,-264.94C785,-218.64 785,-84.88 785,-32.64"/>
<polygon fill="#63b8ff" stroke="#63b8ff" points="788.5,-32.73 785,-22.73 781.5,-32.73 788.5,-32.73"/>
</a>
</g>
</g>
<!-- Node14 -->
<g id="Node000014" class="node">
<title>Node14</title>
<g id="a_Node000014"><a xlink:title=" ">
<polygon fill="#e0e0e0" stroke="#999999" points="1014.75,-229.25 889.25,-229.25 889.25,-195.75 1014.75,-195.75 1014.75,-229.25"/>
<text text-anchor="start" x="897.25" y="-215.75" font-family="Helvetica,sans-Serif" font-size="10.00">prismspf/core/variable</text>
<text text-anchor="middle" x="952" y="-203" font-family="Helvetica,sans-Serif" font-size="10.00">_attributes.h</text>
</a>
</g>
</g>
<!-- Node1&#45;&gt;Node14 -->
<g id="edge18_Node000001_Node000014" class="edge">
<title>Node1&#45;&gt;Node14</title>
<g id="a_edge18_Node000001_Node000014"><a xlink:title=" ">
<path fill="none" stroke="#63b8ff" d="M825,-264.83C847.95,-255.56 876.98,-243.82 901.49,-233.92"/>
<polygon fill="#63b8ff" stroke="#63b8ff" points="902.67,-237.21 910.63,-230.22 900.05,-230.72 902.67,-237.21"/>
</a>
</g>
</g>
<!-- Node15 -->
<g id="Node000015" class="node">
<title>Node15</title>
<g id="a_Node000015"><a xlink:title=" ">
<polygon fill="#e0e0e0" stroke="#999999" points="1151,-229.25 1033,-229.25 1033,-195.75 1151,-195.75 1151,-229.25"/>
<text text-anchor="start" x="1041" y="-215.75" font-family="Helvetica,sans-Serif" font-size="10.00">prismspf/user_inputs</text>
<text text-anchor="middle" x="1092" y="-203" font-family="Helvetica,sans-Serif" font-size="10.00">/parameter_base.h</text>
</a>
</g>
</g>
<!-- Node1&#45;&gt;Node15 -->
<g id="edge19_Node000001_Node000015" class="edge">
<title>Node1&#45;&gt;Node15</title>
<g id="a_edge19_Node000001_Node000015"><a xlink:title=" ">
<path fill="none" stroke="#63b8ff" d="M852.28,-266.7C897.58,-257.01 958.95,-243.77 1021.76,-229.74"/>
<polygon fill="#63b8ff" stroke="#63b8ff" points="1022.2,-233.22 1031.2,-227.62 1020.67,-226.39 1022.2,-233.22"/>
</a>
</g>
</g>
<!-- Node16 -->
<g id="Node000016" class="node">
<title>Node16</title>
<g id="a_Node000016"><a xlink:href="utilities_8h.html" target="_top" xlink:title=" ">
<polygon fill="white" stroke="#666666" points="1283.25,-159.75 1184.75,-159.75 1184.75,-126.25 1283.25,-126.25 1283.25,-159.75"/>
<text text-anchor="start" x="1192.75" y="-146.25" font-family="Helvetica,sans-Serif" font-size="10.00">prismspf/utilities</text>
<text text-anchor="middle" x="1234" y="-133.5" font-family="Helvetica,sans-Serif" font-size="10.00">/utilities.h</text>
</a>
</g>
</g>
<!-- Node1&#45;&gt;Node16 -->
<g id="edge20_Node000001_Node000016" class="edge">
<title>Node1&#45;&gt;Node16</title>
<g id="a_edge20_Node000001_Node000016"><a xlink:title=" ">
<path fill="none" stroke="#63b8ff" d="M791.75,-265.04C801.05,-245.19 819.8,-211.96 847,-195.75 900.73,-163.73 1078.12,-150.98 1172.95,-146.36"/>
<polygon fill="#63b8ff" stroke="#63b8ff" points="1173.03,-149.86 1182.86,-145.89 1172.7,-142.87 1173.03,-149.86"/>
</a>
</g>
</g>
<!-- Node27 -->
<g id="Node000027" class="node">
<title>Node27</title>
<g id="a_Node000027"><a xlink:title=" ">
<polygon fill="#e0e0e0" stroke="#999999" points="2238.25,-83.88 2145.75,-83.88 2145.75,-63.12 2238.25,-63.12 2238.25,-83.88"/>
<text text-anchor="middle" x="2192" y="-70.38" font-family="Helvetica,sans-Serif" font-size="10.00">unordered_map</text>
</a>
</g>
</g>
<!-- Node1&#45;&gt;Node27 -->
<g id="edge43_Node000001_Node000027" class="edge">
<title>Node1&#45;&gt;Node27</title>
<g id="a_edge43_Node000001_Node000027"><a xlink:title=" ">
<path fill="none" stroke="#63b8ff" d="M804.14,-264.93C816.03,-254.84 831.56,-241.46 845,-229.25 860.94,-214.77 860.37,-204.6 880,-195.75 887.99,-192.15 2128.38,-91.83 2137,-90.25 2141.56,-89.41 2146.29,-88.36 2150.97,-87.19"/>
<polygon fill="#63b8ff" stroke="#63b8ff" points="2151.49,-90.68 2160.24,-84.71 2149.68,-83.91 2151.49,-90.68"/>
</a>
</g>
</g>
<!-- Node28 -->
<g id="Node000028" class="node">
<title>Node28</title>
<g id="a_Node000028"><a xlink:title=" ">
<polygon fill="#e0e0e0" stroke="#999999" points="1218.5,-222.88 1169.5,-222.88 1169.5,-202.12 1218.5,-202.12 1218.5,-222.88"/>
<text text-anchor="middle" x="1194" y="-209.38" font-family="Helvetica,sans-Serif" font-size="10.00">climits</text>
</a>
</g>
</g>
<!-- Node1&#45;&gt;Node28 -->
<g id="edge39_Node000001_Node000028" class="edge">
<title>Node1&#45;&gt;Node28</title>
<g id="a_edge39_Node000001_Node000028"><a xlink:title=" ">
<path fill="none" stroke="#63b8ff" d="M852.3,-277.72C928.34,-272.65 1055.16,-260.02 1160,-229.25 1161.6,-228.78 1163.22,-228.25 1164.84,-227.67"/>
<polygon fill="#63b8ff" stroke="#63b8ff" points="1166.01,-230.97 1173.92,-223.93 1163.34,-224.5 1166.01,-230.97"/>
</a>
</g>
</g>
<!-- Node29 -->
<g id="Node000029" class="node">
<title>Node29</title>
<g id="a_Node000029"><a xlink:title=" ">
<polygon fill="#e0e0e0" stroke="#999999" points="1299.62,-222.88 1236.38,-222.88 1236.38,-202.12 1299.62,-202.12 1299.62,-222.88"/>
<text text-anchor="middle" x="1268" y="-209.38" font-family="Helvetica,sans-Serif" font-size="10.00">execution</text>
</a>
</g>
</g>
<!-- Node1&#45;&gt;Node29 -->
<g id="edge40_Node000001_Node000029" class="edge">
<title>Node1&#45;&gt;Node29</title>
<g id="a_edge40_Node000001_Node000029"><a xlink:title=" ">
<path fill="none" stroke="#63b8ff" d="M852.01,-278.56C939.62,-274.15 1097.31,-262.02 1228,-229.25 1230.41,-228.65 1232.87,-227.93 1235.33,-227.15"/>
<polygon fill="#63b8ff" stroke="#63b8ff" points="1236.24,-230.54 1244.48,-223.88 1233.89,-223.94 1236.24,-230.54"/>
</a>
</g>
</g>
<!-- Node30 -->
<g id="Node000030" class="node">
<title>Node30</title>
<g id="a_Node000030"><a xlink:title=" ">
<polygon fill="#e0e0e0" stroke="#999999" points="1348.5,-222.88 1317.5,-222.88 1317.5,-202.12 1348.5,-202.12 1348.5,-222.88"/>
<text text-anchor="middle" x="1333" y="-209.38" font-family="Helvetica,sans-Serif" font-size="10.00">set</text>
</a>
</g>
</g>
<!-- Node1&#45;&gt;Node30 -->
<g id="edge41_Node000001_Node000030" class="edge">
<title>Node1&#45;&gt;Node30</title>
<g id="a_edge41_Node000001_Node000030"><a xlink:title=" ">
<path fill="none" stroke="#63b8ff" d="M852.31,-278.35C974.2,-272.9 1226.47,-258.41 1309,-229.25 1309.65,-229.02 1310.29,-228.77 1310.94,-228.51"/>
<polygon fill="#63b8ff" stroke="#63b8ff" points="1312.48,-231.65 1319.57,-223.78 1309.12,-225.51 1312.48,-231.65"/>
</a>
</g>
</g>
<!-- Node5 -->
<g id="Node000005" class="node">
<title>Node5</title>
<g id="a_Node000005"><a xlink:title=" ">
<polygon fill="#e0e0e0" stroke="#999999" points="352.62,-159.75 223.38,-159.75 223.38,-126.25 352.62,-126.25 352.62,-159.75"/>
<text text-anchor="start" x="231.38" y="-146.25" font-family="Helvetica,sans-Serif" font-size="10.00">deal.II/base/conditional</text>
<text text-anchor="middle" x="288" y="-133.5" font-family="Helvetica,sans-Serif" font-size="10.00">_ostream.h</text>
</a>
</g>
</g>
<!-- Node4&#45;&gt;Node5 -->
<g id="edge4_Node000004_Node000005" class="edge">
<title>Node4&#45;&gt;Node5</title>
<g id="a_edge4_Node000004_Node000005"><a xlink:title=" ">
<path fill="none" stroke="#63b8ff" d="M331.49,-195.5C324.68,-187.43 316.26,-177.47 308.66,-168.46"/>
<polygon fill="#63b8ff" stroke="#63b8ff" points="311.51,-166.42 302.39,-161.04 306.17,-170.94 311.51,-166.42"/>
</a>
</g>
</g>
<!-- Node4&#45;&gt;Node6 -->
<g id="edge5_Node000004_Node000006" class="edge">
<title>Node4&#45;&gt;Node6</title>
<g id="a_edge5_Node000004_Node000006"><a xlink:title=" ">
<path fill="none" stroke="#63b8ff" d="M350.5,-195.48C363.42,-158.15 395.35,-67.69 405,-56.75 416.94,-43.22 433.91,-32.99 449.48,-25.7"/>
<polygon fill="#63b8ff" stroke="#63b8ff" points="450.81,-28.94 458.57,-21.72 448.01,-22.52 450.81,-28.94"/>
</a>
</g>
</g>
<!-- Node7&#45;&gt;Node6 -->
<g id="edge15_Node000007_Node000006" class="edge">
<title>Node7&#45;&gt;Node6</title>
<g id="a_edge15_Node000007_Node000006"><a xlink:title=" ">
<path fill="none" stroke="#63b8ff" d="M551.6,-201.78C537.25,-192.8 517.58,-178.09 507,-159.75 483.75,-119.43 484.24,-62.77 486.62,-32.46"/>
<polygon fill="#63b8ff" stroke="#63b8ff" points="490.09,-33 487.55,-22.72 483.12,-32.34 490.09,-33"/>
</a>
</g>
</g>
<!-- Node8 -->
<g id="Node000008" class="node">
<title>Node8</title>
<g id="a_Node000008"><a xlink:title=" ">
<polygon fill="#e0e0e0" stroke="#999999" points="950.75,-83.88 813.25,-83.88 813.25,-63.12 950.75,-63.12 950.75,-83.88"/>
<text text-anchor="middle" x="882" y="-70.38" font-family="Helvetica,sans-Serif" font-size="10.00">deal.II/base/exceptions.h</text>
</a>
</g>
</g>
<!-- Node7&#45;&gt;Node8 -->
<g id="edge7_Node000007_Node000008" class="edge">
<title>Node7&#45;&gt;Node8</title>
<g id="a_edge7_Node000007_Node000008"><a xlink:title=" ">
<path fill="none" stroke="#63b8ff" d="M591.51,-201.65C646.1,-177.75 785.73,-116.64 849.43,-88.76"/>
<polygon fill="#63b8ff" stroke="#63b8ff" points="850.55,-92.09 858.31,-84.87 847.74,-85.67 850.55,-92.09"/>
</a>
</g>
</g>
<!-- Node7&#45;&gt;Node9 -->
<g id="edge8_Node000007_Node000009" class="edge">
<title>Node7&#45;&gt;Node9</title>
<g id="a_edge8_Node000007_Node000009"><a xlink:title=" ">
<path fill="none" stroke="#63b8ff" d="M570.15,-201.83C571.29,-192.21 573.07,-177.13 574.54,-164.79"/>
<polygon fill="#63b8ff" stroke="#63b8ff" points="577.98,-165.5 575.68,-155.16 571.03,-164.67 577.98,-165.5"/>
</a>
</g>
</g>
<!-- Node9&#45;&gt;Node6 -->
<g id="edge14_Node000009_Node000006" class="edge">
<title>Node9&#45;&gt;Node6</title>
<g id="a_edge14_Node000009_Node000006"><a xlink:title=" ">
<path fill="none" stroke="#63b8ff" d="M560.23,-132.14C546.01,-122.97 526.06,-108.07 514,-90.25 502.07,-72.62 495.57,-48.96 492.22,-32.17"/>
<polygon fill="#63b8ff" stroke="#63b8ff" points="495.67,-31.61 490.49,-22.37 488.78,-32.83 495.67,-31.61"/>
</a>
</g>
</g>
<!-- Node10 -->
<g id="Node000010" class="node">
<title>Node10</title>
<g id="a_Node000010"><a xlink:title=" ">
<polygon fill="#e0e0e0" stroke="#999999" points="757.12,-90.25 648.88,-90.25 648.88,-56.75 757.12,-56.75 757.12,-90.25"/>
<text text-anchor="start" x="656.88" y="-76.75" font-family="Helvetica,sans-Serif" font-size="10.00">deal.II/matrix_free</text>
<text text-anchor="middle" x="703" y="-64" font-family="Helvetica,sans-Serif" font-size="10.00">/evaluation_flags.h</text>
</a>
</g>
</g>
<!-- Node9&#45;&gt;Node10 -->
<g id="edge9_Node000009_Node000010" class="edge">
<title>Node9&#45;&gt;Node10</title>
<g id="a_edge9_Node000009_Node000010"><a xlink:title=" ">
<path fill="none" stroke="#63b8ff" d="M595.32,-132.18C612.96,-122.74 640.22,-108.13 662.9,-95.98"/>
<polygon fill="#63b8ff" stroke="#63b8ff" points="664.46,-99.12 671.62,-91.31 661.15,-92.95 664.46,-99.12"/>
</a>
</g>
</g>
<!-- Node9&#45;&gt;Node11 -->
<g id="edge10_Node000009_Node000011" class="edge">
<title>Node9&#45;&gt;Node11</title>
<g id="a_edge10_Node000009_Node000011"><a xlink:title=" ">
<path fill="none" stroke="#63b8ff" d="M577,-132.33C577,-124.44 577,-112.88 577,-102.16"/>
<polygon fill="#63b8ff" stroke="#63b8ff" points="580.5,-102.18 577,-92.18 573.5,-102.18 580.5,-102.18"/>
</a>
</g>
</g>
<!-- Node11&#45;&gt;Node6 -->
<g id="edge11_Node000011_Node000006" class="edge">
<title>Node11&#45;&gt;Node6</title>
<g id="a_edge11_Node000011_Node000006"><a xlink:title=" ">
<path fill="none" stroke="#63b8ff" d="M553.88,-56.44C541.06,-47.53 525.15,-36.49 512.3,-27.56"/>
<polygon fill="#63b8ff" stroke="#63b8ff" points="514.62,-24.91 504.41,-22.08 510.63,-30.66 514.62,-24.91"/>
</a>
</g>
</g>
<!-- Node12 -->
<g id="Node000012" class="node">
<title>Node12</title>
<g id="a_Node000012"><a xlink:title=" ">
<polygon fill="#e0e0e0" stroke="#999999" points="606.5,-20.75 557.5,-20.75 557.5,0 606.5,0 606.5,-20.75"/>
<text text-anchor="middle" x="582" y="-7.25" font-family="Helvetica,sans-Serif" font-size="10.00">cstdint</text>
</a>
</g>
</g>
<!-- Node11&#45;&gt;Node12 -->
<g id="edge12_Node000011_Node000012" class="edge">
<title>Node11&#45;&gt;Node12</title>
<g id="a_edge12_Node000011_Node000012"><a xlink:title=" ">
<path fill="none" stroke="#63b8ff" d="M578.31,-56.44C578.91,-49.1 579.63,-40.32 580.28,-32.46"/>
<polygon fill="#63b8ff" stroke="#63b8ff" points="583.74,-32.98 581.07,-22.73 576.77,-32.41 583.74,-32.98"/>
</a>
</g>
</g>
<!-- Node11&#45;&gt;Node13 -->
<g id="edge13_Node000011_Node000013" class="edge">
<title>Node11&#45;&gt;Node13</title>
<g id="a_edge13_Node000011_Node000013"><a xlink:title=" ">
<path fill="none" stroke="#63b8ff" d="M631.11,-56.6C669.44,-45.33 719.62,-30.59 752.09,-21.05"/>
<polygon fill="#63b8ff" stroke="#63b8ff" points="752.72,-24.51 761.33,-18.33 750.75,-17.79 752.72,-24.51"/>
</a>
</g>
</g>
<!-- Node16&#45;&gt;Node6 -->
<g id="edge34_Node000016_Node000006" class="edge">
<title>Node16&#45;&gt;Node6</title>
<g id="a_edge34_Node000016_Node000006"><a xlink:title=" ">
<path fill="none" stroke="#63b8ff" d="M1184.41,-138.18C1135.17,-132.79 1058.61,-120.02 999,-90.25 978.56,-80.04 981.06,-65.62 960,-56.75 878.55,-22.46 656.83,-31.12 550.8,-20.75"/>
<polygon fill="#63b8ff" stroke="#63b8ff" points="551.21,-17.27 540.88,-19.66 550.44,-24.23 551.21,-17.27"/>
</a>
</g>
</g>
<!-- Node16&#45;&gt;Node8 -->
<g id="edge22_Node000016_Node000008" class="edge">
<title>Node16&#45;&gt;Node8</title>
<g id="a_edge22_Node000016_Node000008"><a xlink:title=" ">
<path fill="none" stroke="#63b8ff" d="M1184.31,-132.47C1121.39,-120.41 1012.95,-99.61 944.48,-86.48"/>
<polygon fill="#63b8ff" stroke="#63b8ff" points="945.4,-83.09 934.92,-84.65 944.08,-89.97 945.4,-83.09"/>
</a>
</g>
</g>
<!-- Node16&#45;&gt;Node10 -->
<g id="edge27_Node000016_Node000010" class="edge">
<title>Node16&#45;&gt;Node10</title>
<g id="a_edge27_Node000016_Node000010"><a xlink:title=" ">
<path fill="none" stroke="#63b8ff" d="M1184.27,-136.59C1104.11,-127.73 941.42,-109.23 804,-90.25 792.54,-88.67 780.37,-86.87 768.6,-85.07"/>
<polygon fill="#63b8ff" stroke="#63b8ff" points="769.38,-81.65 758.96,-83.58 768.31,-88.57 769.38,-81.65"/>
</a>
</g>
</g>
<!-- Node16&#45;&gt;Node13 -->
<g id="edge35_Node000016_Node000013" class="edge">
<title>Node16&#45;&gt;Node13</title>
<g id="a_edge35_Node000016_Node000013"><a xlink:title=" ">
<path fill="none" stroke="#63b8ff" d="M1246.49,-125.82C1259.42,-106.97 1275.47,-75.98 1258,-56.75 1228.48,-24.27 921.14,-14.43 818.31,-12.04"/>
<polygon fill="#63b8ff" stroke="#63b8ff" points="818.67,-8.55 808.6,-11.82 818.52,-15.55 818.67,-8.55"/>
</a>
</g>
</g>
<!-- Node17 -->
<g id="Node000017" class="node">
<title>Node17</title>
<g id="a_Node000017"><a xlink:title=" ">
<polygon fill="#e0e0e0" stroke="#999999" points="2006.75,-83.88 1893.25,-83.88 1893.25,-63.12 2006.75,-63.12 2006.75,-83.88"/>
<text text-anchor="middle" x="1950" y="-70.38" font-family="Helvetica,sans-Serif" font-size="10.00">deal.II/base/config.h</text>
</a>
</g>
</g>
<!-- Node16&#45;&gt;Node17 -->
<g id="edge21_Node000016_Node000017" class="edge">
<title>Node16&#45;&gt;Node17</title>
<g id="a_edge21_Node000016_Node000017"><a xlink:title=" ">
<path fill="none" stroke="#63b8ff" d="M1283.69,-128.68C1288.17,-127.75 1292.65,-126.92 1297,-126.25 1553.12,-86.66 1622.38,-126.42 1879,-90.25 1885.73,-89.3 1892.77,-88.06 1899.69,-86.68"/>
<polygon fill="#63b8ff" stroke="#63b8ff" points="1900.22,-90.14 1909.29,-84.66 1898.78,-83.29 1900.22,-90.14"/>
</a>
</g>
</g>
<!-- Node18 -->
<g id="Node000018" class="node">
<title>Node18</title>
<g id="a_Node000018"><a xlink:title=" ">
<polygon fill="#e0e0e0" stroke="#999999" points="2127.5,-83.88 2024.5,-83.88 2024.5,-63.12 2127.5,-63.12 2127.5,-83.88"/>
<text text-anchor="middle" x="2076" y="-70.38" font-family="Helvetica,sans-Serif" font-size="10.00">deal.II/base/mpi.h</text>
</a>
</g>
</g>
<!-- Node16&#45;&gt;Node18 -->
<g id="edge23_Node000016_Node000018" class="edge">
<title>Node16&#45;&gt;Node18</title>
<g id="a_edge23_Node000016_Node000018"><a xlink:title=" ">
<path fill="none" stroke="#63b8ff" d="M1283.68,-128.63C1288.16,-127.71 1292.65,-126.9 1297,-126.25 1613.48,-79.23 1699.8,-139.13 2016,-90.25 2021.37,-89.42 2026.96,-88.3 2032.46,-87.05"/>
<polygon fill="#63b8ff" stroke="#63b8ff" points="2033.22,-90.47 2042.09,-84.68 2031.54,-83.67 2033.22,-90.47"/>
</a>
</g>
</g>
<!-- Node19 -->
<g id="Node000019" class="node">
<title>Node19</title>
<g id="a_Node000019"><a xlink:title=" ">
<polygon fill="#e0e0e0" stroke="#999999" points="1116.5,-83.88 1007.5,-83.88 1007.5,-63.12 1116.5,-63.12 1116.5,-83.88"/>
<text text-anchor="middle" x="1062" y="-70.38" font-family="Helvetica,sans-Serif" font-size="10.00">deal.II/base/point.h</text>
</a>
</g>
</g>
<!-- Node16&#45;&gt;Node19 -->
<g id="edge24_Node000016_Node000019" class="edge">
<title>Node16&#45;&gt;Node19</title>
<g id="a_edge24_Node000016_Node000019"><a xlink:title=" ">
<path fill="none" stroke="#63b8ff" d="M1192.8,-125.83C1163.76,-114.44 1125.26,-99.33 1097.56,-88.46"/>
<polygon fill="#63b8ff" stroke="#63b8ff" points="1099.15,-85.32 1088.56,-84.92 1096.59,-91.83 1099.15,-85.32"/>
</a>
</g>
</g>
<!-- Node20 -->
<g id="Node000020" class="node">
<title>Node20</title>
<g id="a_Node000020"><a xlink:title=" ">
<polygon fill="#e0e0e0" stroke="#999999" points="1249.12,-83.88 1134.88,-83.88 1134.88,-63.12 1249.12,-63.12 1249.12,-83.88"/>
<text text-anchor="middle" x="1192" y="-70.38" font-family="Helvetica,sans-Serif" font-size="10.00">deal.II/base/tensor.h</text>
</a>
</g>
</g>
<!-- Node16&#45;&gt;Node20 -->
<g id="edge25_Node000016_Node000020" class="edge">
<title>Node16&#45;&gt;Node20</title>
<g id="a_edge25_Node000016_Node000020"><a xlink:title=" ">
<path fill="none" stroke="#63b8ff" d="M1224.05,-126C1218.07,-116.4 1210.42,-104.11 1204.1,-93.94"/>
<polygon fill="#63b8ff" stroke="#63b8ff" points="1207.17,-92.25 1198.91,-85.61 1201.22,-95.95 1207.17,-92.25"/>
</a>
</g>
</g>
<!-- Node21 -->
<g id="Node000021" class="node">
<title>Node21</title>
<g id="a_Node000021"><a xlink:title=" ">
<polygon fill="#e0e0e0" stroke="#999999" points="1939,-20.75 1791,-20.75 1791,0 1939,0 1939,-20.75"/>
<text text-anchor="middle" x="1865" y="-7.25" font-family="Helvetica,sans-Serif" font-size="10.00">deal.II/base/vectorization.h</text>
</a>
</g>
</g>
<!-- Node16&#45;&gt;Node21 -->
<g id="edge26_Node000016_Node000021" class="edge">
<title>Node16&#45;&gt;Node21</title>
<g id="a_edge26_Node000016_Node000021"><a xlink:title=" ">
<path fill="none" stroke="#63b8ff" d="M1283.7,-128.7C1288.17,-127.77 1292.66,-126.93 1297,-126.25 1357.4,-116.8 1799.24,-129.63 1846,-90.25 1862.46,-76.38 1866.04,-50.96 1866.25,-32.73"/>
<polygon fill="#63b8ff" stroke="#63b8ff" points="1869.75,-32.65 1866,-22.74 1862.75,-32.83 1869.75,-32.65"/>
</a>
</g>
</g>
<!-- Node22 -->
<g id="Node000022" class="node">
<title>Node22</title>
<g id="a_Node000022"><a xlink:title=" ">
<polygon fill="#e0e0e0" stroke="#999999" points="1450.5,-83.88 1305.5,-83.88 1305.5,-63.12 1450.5,-63.12 1450.5,-83.88"/>
<text text-anchor="middle" x="1378" y="-70.38" font-family="Helvetica,sans-Serif" font-size="10.00">boost/range/algorithm.hpp</text>
</a>
</g>
</g>
<!-- Node16&#45;&gt;Node22 -->
<g id="edge28_Node000016_Node000022" class="edge">
<title>Node16&#45;&gt;Node22</title>
<g id="a_edge28_Node000016_Node000022"><a xlink:title=" ">
<path fill="none" stroke="#63b8ff" d="M1268.49,-125.83C1292.34,-114.65 1323.8,-99.9 1346.88,-89.09"/>
<polygon fill="#63b8ff" stroke="#63b8ff" points="1348.22,-92.33 1355.78,-84.91 1345.24,-85.99 1348.22,-92.33"/>
</a>
</g>
</g>
<!-- Node23 -->
<g id="Node000023" class="node">
<title>Node23</title>
<g id="a_Node000023"><a xlink:title=" ">
<polygon fill="#e0e0e0" stroke="#999999" points="1593,-90.25 1469,-90.25 1469,-56.75 1593,-56.75 1593,-90.25"/>
<text text-anchor="start" x="1477" y="-76.75" font-family="Helvetica,sans-Serif" font-size="10.00">boost/range/algorithm</text>
<text text-anchor="middle" x="1531" y="-64" font-family="Helvetica,sans-Serif" font-size="10.00">_ext.hpp</text>
</a>
</g>
</g>
<!-- Node16&#45;&gt;Node23 -->
<g id="edge29_Node000016_Node000023" class="edge">
<title>Node16&#45;&gt;Node23</title>
<g id="a_edge29_Node000016_Node000023"><a xlink:title=" ">
<path fill="none" stroke="#63b8ff" d="M1283.49,-129.49C1288.05,-128.38 1292.61,-127.28 1297,-126.25 1365.83,-110.05 1385.72,-106.59 1457.66,-90.76"/>
<polygon fill="#63b8ff" stroke="#63b8ff" points="1458.17,-94.23 1467.18,-88.66 1456.67,-87.4 1458.17,-94.23"/>
</a>
</g>
</g>
<!-- Node24 -->
<g id="Node000024" class="node">
<title>Node24</title>
<g id="a_Node000024"><a xlink:href="vectorized__operations_8h.html" target="_top" xlink:title=" ">
<polygon fill="white" stroke="#666666" points="1837,-90.25 1701,-90.25 1701,-56.75 1837,-56.75 1837,-90.25"/>
<text text-anchor="start" x="1709" y="-76.75" font-family="Helvetica,sans-Serif" font-size="10.00">prismspf/utilities</text>
<text text-anchor="middle" x="1769" y="-64" font-family="Helvetica,sans-Serif" font-size="10.00">/vectorized_operations.h</text>
</a>
</g>
</g>
<!-- Node16&#45;&gt;Node24 -->
<g id="edge30_Node000016_Node000024" class="edge">
<title>Node16&#45;&gt;Node24</title>
<g id="a_edge30_Node000016_Node000024"><a xlink:title=" ">
<path fill="none" stroke="#63b8ff" d="M1283.71,-128.82C1288.19,-127.86 1292.66,-126.98 1297,-126.25 1467.15,-97.4 1515.58,-115.17 1689.28,-90.54"/>
<polygon fill="#63b8ff" stroke="#63b8ff" points="1689.74,-94.01 1699.14,-89.11 1688.74,-87.08 1689.74,-94.01"/>
</a>
</g>
</g>
<!-- Node26 -->
<g id="Node000026" class="node">
<title>Node26</title>
<g id="a_Node000026"><a xlink:title=" ">
<polygon fill="#e0e0e0" stroke="#999999" points="1683.12,-83.88 1610.88,-83.88 1610.88,-63.12 1683.12,-63.12 1683.12,-83.88"/>
<text text-anchor="middle" x="1647" y="-70.38" font-family="Helvetica,sans-Serif" font-size="10.00">string_view</text>
</a>
</g>
</g>
<!-- Node16&#45;&gt;Node26 -->
<g id="edge36_Node000016_Node000026" class="edge">
<title>Node16&#45;&gt;Node26</title>
<g id="a_edge36_Node000016_Node000026"><a xlink:title=" ">
<path fill="none" stroke="#63b8ff" d="M1283.74,-128.94C1288.21,-127.96 1292.68,-127.04 1297,-126.25 1431.26,-101.65 1469.01,-120.98 1602,-90.25 1605,-89.56 1608.07,-88.73 1611.14,-87.83"/>
<polygon fill="#63b8ff" stroke="#63b8ff" points="1612.17,-91.18 1620.62,-84.78 1610.03,-84.51 1612.17,-91.18"/>
</a>
</g>
</g>
<!-- Node16&#45;&gt;Node27 -->
<g id="edge37_Node000016_Node000027" class="edge">
<title>Node16&#45;&gt;Node27</title>
<g id="a_edge37_Node000016_Node000027"><a xlink:title=" ">
<path fill="none" stroke="#63b8ff" d="M1283.68,-128.59C1288.16,-127.68 1292.65,-126.88 1297,-126.25 1666.81,-72.66 1768.15,-150.1 2137,-90.25 2141.74,-89.48 2146.66,-88.44 2151.51,-87.26"/>
<polygon fill="#63b8ff" stroke="#63b8ff" points="2152.38,-90.65 2161.14,-84.69 2150.58,-83.88 2152.38,-90.65"/>
</a>
</g>
</g>
<!-- Node24&#45;&gt;Node6 -->
<g id="edge32_Node000024_Node000006" class="edge">
<title>Node24&#45;&gt;Node6</title>
<g id="a_edge32_Node000024_Node000006"><a xlink:title=" ">
<path fill="none" stroke="#63b8ff" d="M1700.66,-57.89C1697.74,-57.47 1694.85,-57.08 1692,-56.75 1190.9,1.96 1057,-67.05 550.63,-20.75"/>
<polygon fill="#63b8ff" stroke="#63b8ff" points="551.15,-17.28 540.87,-19.84 550.5,-24.25 551.15,-17.28"/>
</a>
</g>
</g>
<!-- Node24&#45;&gt;Node21 -->
<g id="edge31_Node000024_Node000021" class="edge">
<title>Node24&#45;&gt;Node21</title>
<g id="a_edge31_Node000024_Node000021"><a xlink:title=" ">
<path fill="none" stroke="#63b8ff" d="M1794.47,-56.28C1808.6,-47.29 1826.09,-36.15 1840.12,-27.22"/>
<polygon fill="#63b8ff" stroke="#63b8ff" points="1841.79,-30.3 1848.35,-21.98 1838.03,-24.4 1841.79,-30.3"/>
</a>
</g>
</g>
<!-- Node25 -->
<g id="Node000025" class="node">
<title>Node25</title>
<g id="a_Node000025"><a xlink:title=" ">
<polygon fill="#e0e0e0" stroke="#999999" points="1773.38,-20.75 1726.62,-20.75 1726.62,0 1773.38,0 1773.38,-20.75"/>
<text text-anchor="middle" x="1750" y="-7.25" font-family="Helvetica,sans-Serif" font-size="10.00">cmath</text>
</a>
</g>
</g>
<!-- Node24&#45;&gt;Node25 -->
<g id="edge33_Node000024_Node000025" class="edge">
<title>Node24&#45;&gt;Node25</title>
<g id="a_edge33_Node000024_Node000025"><a xlink:title=" ">
<path fill="none" stroke="#63b8ff" d="M1764.01,-56.44C1761.7,-49.02 1758.93,-40.11 1756.47,-32.18"/>
<polygon fill="#63b8ff" stroke="#63b8ff" points="1759.82,-31.17 1753.51,-22.66 1753.13,-33.25 1759.82,-31.17"/>
</a>
</g>
</g>
</g>
</svg>
