<?xml version="1.0" encoding="UTF-8" standalone="no"?>
<!DOCTYPE svg PUBLIC "-//W3C//DTD SVG 1.1//EN"
 "http://www.w3.org/Graphics/SVG/1.1/DTD/svg11.dtd">
<!-- Generated by graphviz version 12.2.1 (20241206.2353)
 -->
<!-- Title: /__w/phaseField/phaseField/include/prismspf/user_inputs/io_parameters.h Pages: 1 -->
<svg width="1279pt" height="782pt"
 viewBox="0.00 0.00 1279.12 781.75" xmlns="http://www.w3.org/2000/svg" xmlns:xlink="http://www.w3.org/1999/xlink">
<g id="graph0" class="graph" transform="scale(1 1) rotate(0) translate(4 777.75)">
<title>/__w/phaseField/phaseField/include/prismspf/user_inputs/io_parameters.h</title>
<!-- Node1 -->
<g id="Node000001" class="node">
<title>Node1</title>
<g id="a_Node000001"><a xlink:title=" ">
<polygon fill="#999999" stroke="#666666" points="371.38,-773.75 212.12,-773.75 212.12,-727.5 371.38,-727.5 371.38,-773.75"/>
<text text-anchor="start" x="220.12" y="-760.25" font-family="Helvetica,sans-Serif" font-size="10.00">/__w/phaseField/phaseField</text>
<text text-anchor="start" x="220.12" y="-747.5" font-family="Helvetica,sans-Serif" font-size="10.00">/include/prismspf/user_inputs</text>
<text text-anchor="middle" x="291.75" y="-734.75" font-family="Helvetica,sans-Serif" font-size="10.00">/io_parameters.h</text>
</a>
</g>
</g>
<!-- Node2 -->
<g id="Node000002" class="node">
<title>Node2</title>
<g id="a_Node000002"><a xlink:href="solution__output_8h.html" target="_top" xlink:title=" ">
<polygon fill="white" stroke="#666666" points="169.75,-444.75 3.75,-444.75 3.75,-398.5 169.75,-398.5 169.75,-444.75"/>
<text text-anchor="start" x="11.75" y="-431.25" font-family="Helvetica,sans-Serif" font-size="10.00">/__w/phaseField/phaseField</text>
<text text-anchor="start" x="11.75" y="-418.5" font-family="Helvetica,sans-Serif" font-size="10.00">/include/prismspf/core/solution</text>
<text text-anchor="middle" x="86.75" y="-405.75" font-family="Helvetica,sans-Serif" font-size="10.00">_output.h</text>
</a>
</g>
</g>
<!-- Node1&#45;&gt;Node2 -->
<g id="edge1_Node000001_Node000002" class="edge">
<title>Node1&#45;&gt;Node2</title>
<g id="a_edge1_Node000001_Node000002"><a xlink:title=" ">
<path fill="none" stroke="#63b8ff" d="M238.46,-721.09C225.77,-712.68 212.96,-702.69 202.75,-691.5 134.41,-616.56 102.14,-495.13 91.22,-445.18"/>
<polygon fill="#63b8ff" stroke="#63b8ff" points="236.51,-724 246.83,-726.4 240.26,-718.08 236.51,-724"/>
</a>
</g>
</g>
<!-- Node5 -->
<g id="Node000005" class="node">
<title>Node5</title>
<g id="a_Node000005"><a xlink:href="user__input__parameters_8h.html" target="_top" xlink:title=" ">
<polygon fill="white" stroke="#666666" points="371.38,-691.5 212.12,-691.5 212.12,-645.25 371.38,-645.25 371.38,-691.5"/>
<text text-anchor="start" x="220.12" y="-678" font-family="Helvetica,sans-Serif" font-size="10.00">/__w/phaseField/phaseField</text>
<text text-anchor="start" x="220.12" y="-665.25" font-family="Helvetica,sans-Serif" font-size="10.00">/include/prismspf/user_inputs</text>
<text text-anchor="middle" x="291.75" y="-652.5" font-family="Helvetica,sans-Serif" font-size="10.00">/user_input_parameters.h</text>
</a>
</g>
</g>
<!-- Node1&#45;&gt;Node5 -->
<g id="edge5_Node000001_Node000005" class="edge">
<title>Node1&#45;&gt;Node5</title>
<g id="a_edge5_Node000001_Node000005"><a xlink:title=" ">
<path fill="none" stroke="#63b8ff" d="M291.75,-715.84C291.75,-707.75 291.75,-699.32 291.75,-691.89"/>
<polygon fill="#63b8ff" stroke="#63b8ff" points="288.25,-715.76 291.75,-725.76 295.25,-715.76 288.25,-715.76"/>
</a>
</g>
</g>
<!-- Node25 -->
<g id="Node000025" class="node">
<title>Node25</title>
<g id="a_Node000025"><a xlink:href="io__parameters_8cc.html" target="_top" xlink:title=" ">
<polygon fill="white" stroke="#666666" points="568.5,-685.12 389,-685.12 389,-651.62 568.5,-651.62 568.5,-685.12"/>
<text text-anchor="start" x="397" y="-671.62" font-family="Helvetica,sans-Serif" font-size="10.00">/__w/phaseField/phaseField</text>
<text text-anchor="middle" x="478.75" y="-658.88" font-family="Helvetica,sans-Serif" font-size="10.00">/src/user_inputs/io_parameters.cc</text>
</a>
</g>
</g>
<!-- Node1&#45;&gt;Node25 -->
<g id="edge46_Node000001_Node000025" class="edge">
<title>Node1&#45;&gt;Node25</title>
<g id="a_edge46_Node000001_Node000025"><a xlink:title=" ">
<path fill="none" stroke="#63b8ff" d="M354.68,-722.62C383.35,-710.32 416.32,-696.16 441.07,-685.55"/>
<polygon fill="#63b8ff" stroke="#63b8ff" points="353.54,-719.3 345.73,-726.46 356.3,-725.73 353.54,-719.3"/>
</a>
</g>
</g>
<!-- Node2&#45;&gt;Node2 -->
<g id="edge2_Node000002_Node000002" class="edge">
<title>Node2&#45;&gt;Node2</title>
<g id="a_edge2_Node000002_Node000002"><a xlink:title=" ">
<path fill="none" stroke="#63b8ff" d="M180.64,-431.4C185.12,-428.95 187.75,-425.69 187.75,-421.62 187.75,-414.96 180.67,-410.45 169.96,-408.11"/>
<polygon fill="#63b8ff" stroke="#63b8ff" points="179.67,-428.04 171.39,-434.64 181.98,-434.64 179.67,-428.04"/>
</a>
</g>
</g>
<!-- Node3 -->
<g id="Node000003" class="node">
<title>Node3</title>
<g id="a_Node000003"><a xlink:href="problem_8cc.html" target="_top" xlink:title=" ">
<polygon fill="white" stroke="#666666" points="471.12,-33.5 322.38,-33.5 322.38,0 471.12,0 471.12,-33.5"/>
<text text-anchor="start" x="330.38" y="-20" font-family="Helvetica,sans-Serif" font-size="10.00">/__w/phaseField/phaseField</text>
<text text-anchor="middle" x="396.75" y="-7.25" font-family="Helvetica,sans-Serif" font-size="10.00">/src/core/problem.cc</text>
</a>
</g>
</g>
<!-- Node2&#45;&gt;Node3 -->
<g id="edge3_Node000002_Node000003" class="edge">
<title>Node2&#45;&gt;Node3</title>
<g id="a_edge3_Node000002_Node000003"><a xlink:title=" ">
<path fill="none" stroke="#63b8ff" d="M133.46,-391.06C143.15,-382.9 152.34,-373.29 158.75,-362.5 182.82,-321.96 177.75,-305.28 177.75,-258.12 177.75,-258.12 177.75,-258.12 177.75,-173.88 177.75,-126.28 168.66,-103.72 201.75,-69.5 218.61,-52.06 274.31,-38.35 321.88,-29.43"/>
<polygon fill="#63b8ff" stroke="#63b8ff" points="131.36,-388.25 125.67,-397.19 135.69,-393.75 131.36,-388.25"/>
</a>
</g>
</g>
<!-- Node4 -->
<g id="Node000004" class="node">
<title>Node4</title>
<g id="a_Node000004"><a xlink:href="solution__output_8cc.html" target="_top" xlink:title=" ">
<polygon fill="white" stroke="#666666" points="149.5,-356.12 0,-356.12 0,-322.62 149.5,-322.62 149.5,-356.12"/>
<text text-anchor="start" x="8" y="-342.62" font-family="Helvetica,sans-Serif" font-size="10.00">/__w/phaseField/phaseField</text>
<text text-anchor="middle" x="74.75" y="-329.88" font-family="Helvetica,sans-Serif" font-size="10.00">/src/core/solution_output.cc</text>
</a>
</g>
</g>
<!-- Node2&#45;&gt;Node4 -->
<g id="edge4_Node000002_Node000004" class="edge">
<title>Node2&#45;&gt;Node4</title>
<g id="a_edge4_Node000002_Node000004"><a xlink:title=" ">
<path fill="none" stroke="#63b8ff" d="M81.75,-387.16C80.16,-376.55 78.48,-365.31 77.16,-356.5"/>
<polygon fill="#63b8ff" stroke="#63b8ff" points="78.24,-387.4 83.18,-396.77 85.17,-386.37 78.24,-387.4"/>
</a>
</g>
</g>
<!-- Node5&#45;&gt;Node2 -->
<g id="edge39_Node000005_Node000002" class="edge">
<title>Node5&#45;&gt;Node2</title>
<g id="a_edge39_Node000005_Node000002"><a xlink:title=" ">
<path fill="none" stroke="#63b8ff" d="M239.12,-638.94C226.03,-630.44 212.64,-620.37 201.75,-609.25 175.86,-582.8 122.93,-488.82 98.99,-445.18"/>
<polygon fill="#63b8ff" stroke="#63b8ff" points="236.94,-641.71 247.27,-644.05 240.66,-635.78 236.94,-641.71"/>
</a>
</g>
</g>
<!-- Node5&#45;&gt;Node3 -->
<g id="edge44_Node000005_Node000003" class="edge">
<title>Node5&#45;&gt;Node3</title>
<g id="a_edge44_Node000005_Node000003"><a xlink:title=" ">
<path fill="none" stroke="#63b8ff" d="M266.92,-635.88C244.75,-604.54 215.75,-554.13 215.75,-504.88 215.75,-504.88 215.75,-504.88 215.75,-173.88 215.75,-102.29 297.93,-56.29 351.54,-33.9"/>
<polygon fill="#63b8ff" stroke="#63b8ff" points="263.94,-637.73 272.66,-643.75 269.6,-633.61 263.94,-637.73"/>
</a>
</g>
</g>
<!-- Node6 -->
<g id="Node000006" class="node">
<title>Node6</title>
<g id="a_Node000006"><a xlink:href="pde__operator__base_8h.html" target="_top" xlink:title=" ">
<polygon fill="white" stroke="#666666" points="952.12,-609.25 803.38,-609.25 803.38,-563 952.12,-563 952.12,-609.25"/>
<text text-anchor="start" x="811.38" y="-595.75" font-family="Helvetica,sans-Serif" font-size="10.00">/__w/phaseField/phaseField</text>
<text text-anchor="start" x="811.38" y="-583" font-family="Helvetica,sans-Serif" font-size="10.00">/include/prismspf/core/pde</text>
<text text-anchor="middle" x="877.75" y="-570.25" font-family="Helvetica,sans-Serif" font-size="10.00">_operator_base.h</text>
</a>
</g>
</g>
<!-- Node5&#45;&gt;Node6 -->
<g id="edge6_Node000005_Node000006" class="edge">
<title>Node5&#45;&gt;Node6</title>
<g id="a_edge6_Node000005_Node000006"><a xlink:title=" ">
<path fill="none" stroke="#63b8ff" d="M382.84,-644.79C522.08,-620.1 560.66,-625.58 698.75,-609.25 733.11,-605.19 771.16,-600.51 803.31,-596.51"/>
<polygon fill="#63b8ff" stroke="#63b8ff" points="382.46,-641.3 373.24,-646.51 383.7,-648.19 382.46,-641.3"/>
</a>
</g>
</g>
<!-- Node14 -->
<g id="Node000014" class="node">
<title>Node14</title>
<g id="a_Node000014"><a xlink:href="solve__context_8h.html" target="_top" xlink:title=" ">
<polygon fill="white" stroke="#666666" points="500.12,-527 351.38,-527 351.38,-480.75 500.12,-480.75 500.12,-527"/>
<text text-anchor="start" x="359.38" y="-513.5" font-family="Helvetica,sans-Serif" font-size="10.00">/__w/phaseField/phaseField</text>
<text text-anchor="start" x="359.38" y="-500.75" font-family="Helvetica,sans-Serif" font-size="10.00">/include/prismspf/solvers</text>
<text text-anchor="middle" x="425.75" y="-488" font-family="Helvetica,sans-Serif" font-size="10.00">/solve_context.h</text>
</a>
</g>
</g>
<!-- Node5&#45;&gt;Node14 -->
<g id="edge41_Node000005_Node000014" class="edge">
<title>Node5&#45;&gt;Node14</title>
<g id="a_edge41_Node000005_Node000014"><a xlink:title=" ">
<path fill="none" stroke="#63b8ff" d="M290.46,-633.94C291.25,-611.82 295.62,-583.27 310.75,-563 322.19,-547.67 338.82,-536.1 355.89,-527.49"/>
<polygon fill="#63b8ff" stroke="#63b8ff" points="286.96,-633.61 290.35,-643.65 293.96,-633.69 286.96,-633.61"/>
</a>
</g>
</g>
<!-- Node17 -->
<g id="Node000017" class="node">
<title>Node17</title>
<g id="a_Node000017"><a xlink:href="nucleation__manager_8h.html" target="_top" xlink:title=" ">
<polygon fill="white" stroke="#666666" points="397.75,-444.75 243.75,-444.75 243.75,-398.5 397.75,-398.5 397.75,-444.75"/>
<text text-anchor="start" x="251.75" y="-431.25" font-family="Helvetica,sans-Serif" font-size="10.00">/__w/phaseField/phaseField</text>
<text text-anchor="start" x="251.75" y="-418.5" font-family="Helvetica,sans-Serif" font-size="10.00">/include/prismspf/nucleation</text>
<text text-anchor="middle" x="320.75" y="-405.75" font-family="Helvetica,sans-Serif" font-size="10.00">/nucleation_manager.h</text>
</a>
</g>
</g>
<!-- Node5&#45;&gt;Node17 -->
<g id="edge40_Node000005_Node000017" class="edge">
<title>Node5&#45;&gt;Node17</title>
<g id="a_edge40_Node000005_Node000017"><a xlink:title=" ">
<path fill="none" stroke="#63b8ff" d="M289.7,-633.28C289.3,-625.39 288.95,-617.03 288.75,-609.25 288.22,-588.7 286.45,-583.43 288.75,-563 293.5,-520.77 306.05,-472.73 313.95,-445.21"/>
<polygon fill="#63b8ff" stroke="#63b8ff" points="286.2,-633.44 290.23,-643.24 293.19,-633.07 286.2,-633.44"/>
</a>
</g>
</g>
<!-- Node18 -->
<g id="Node000018" class="node">
<title>Node18</title>
<g id="a_Node000018"><a xlink:href="solver__base_8h.html" target="_top" xlink:title=" ">
<polygon fill="white" stroke="#666666" points="862.12,-444.75 713.38,-444.75 713.38,-398.5 862.12,-398.5 862.12,-444.75"/>
<text text-anchor="start" x="721.38" y="-431.25" font-family="Helvetica,sans-Serif" font-size="10.00">/__w/phaseField/phaseField</text>
<text text-anchor="start" x="721.38" y="-418.5" font-family="Helvetica,sans-Serif" font-size="10.00">/include/prismspf/solvers</text>
<text text-anchor="middle" x="787.75" y="-405.75" font-family="Helvetica,sans-Serif" font-size="10.00">/solver_base.h</text>
</a>
</g>
</g>
<!-- Node5&#45;&gt;Node18 -->
<g id="edge42_Node000005_Node000018" class="edge">
<title>Node5&#45;&gt;Node18</title>
<g id="a_edge42_Node000005_Node000018"><a xlink:title=" ">
<path fill="none" stroke="#63b8ff" d="M382.86,-645.07C459.41,-634.95 619.18,-648.53 665.75,-609.25 711.37,-570.77 669.72,-529.07 704.75,-480.75 715.08,-466.51 730,-454.52 744.35,-445.2"/>
<polygon fill="#63b8ff" stroke="#63b8ff" points="382.58,-641.57 373.25,-646.59 383.67,-648.48 382.58,-641.57"/>
</a>
</g>
</g>
<!-- Node23 -->
<g id="Node000023" class="node">
<title>Node23</title>
<g id="a_Node000023"><a xlink:href="constraint__manager_8cc.html" target="_top" xlink:title=" ">
<polygon fill="white" stroke="#666666" points="490,-602.88 319.5,-602.88 319.5,-569.38 490,-569.38 490,-602.88"/>
<text text-anchor="start" x="327.5" y="-589.38" font-family="Helvetica,sans-Serif" font-size="10.00">/__w/phaseField/phaseField</text>
<text text-anchor="middle" x="404.75" y="-576.62" font-family="Helvetica,sans-Serif" font-size="10.00">/src/core/constraint_manager.cc</text>
</a>
</g>
</g>
<!-- Node5&#45;&gt;Node23 -->
<g id="edge43_Node000005_Node000023" class="edge">
<title>Node5&#45;&gt;Node23</title>
<g id="a_edge43_Node000005_Node000023"><a xlink:title=" ">
<path fill="none" stroke="#63b8ff" d="M332.57,-638.39C349.28,-626.52 367.98,-613.24 382.16,-603.17"/>
<polygon fill="#63b8ff" stroke="#63b8ff" points="330.89,-635.29 324.76,-643.93 334.94,-640.99 330.89,-635.29"/>
</a>
</g>
</g>
<!-- Node24 -->
<g id="Node000024" class="node">
<title>Node24</title>
<g id="a_Node000024"><a xlink:href="user__input__parameters_8cc.html" target="_top" xlink:title=" ">
<polygon fill="white" stroke="#666666" points="657.12,-609.25 508.38,-609.25 508.38,-563 657.12,-563 657.12,-609.25"/>
<text text-anchor="start" x="516.38" y="-595.75" font-family="Helvetica,sans-Serif" font-size="10.00">/__w/phaseField/phaseField</text>
<text text-anchor="start" x="516.38" y="-583" font-family="Helvetica,sans-Serif" font-size="10.00">/src/user_inputs/user_input</text>
<text text-anchor="middle" x="582.75" y="-570.25" font-family="Helvetica,sans-Serif" font-size="10.00">_parameters.cc</text>
</a>
</g>
</g>
<!-- Node5&#45;&gt;Node24 -->
<g id="edge45_Node000005_Node000024" class="edge">
<title>Node5&#45;&gt;Node24</title>
<g id="a_edge45_Node000005_Node000024"><a xlink:title=" ">
<path fill="none" stroke="#63b8ff" d="M382.57,-642.33C422.89,-631.21 469.77,-618.28 508.03,-607.73"/>
<polygon fill="#63b8ff" stroke="#63b8ff" points="381.82,-638.91 373.11,-644.94 383.68,-645.65 381.82,-638.91"/>
</a>
</g>
</g>
<!-- Node7 -->
<g id="Node000007" class="node">
<title>Node7</title>
<g id="a_Node000007"><a xlink:href="mf__operator_8h.html" target="_top" xlink:title=" ">
<polygon fill="white" stroke="#666666" points="1169.12,-362.5 1020.38,-362.5 1020.38,-316.25 1169.12,-316.25 1169.12,-362.5"/>
<text text-anchor="start" x="1028.38" y="-349" font-family="Helvetica,sans-Serif" font-size="10.00">/__w/phaseField/phaseField</text>
<text text-anchor="start" x="1028.38" y="-336.25" font-family="Helvetica,sans-Serif" font-size="10.00">/include/prismspf/solvers</text>
<text text-anchor="middle" x="1094.75" y="-323.5" font-family="Helvetica,sans-Serif" font-size="10.00">/mf_operator.h</text>
</a>
</g>
</g>
<!-- Node6&#45;&gt;Node7 -->
<g id="edge7_Node000006_Node000007" class="edge">
<title>Node6&#45;&gt;Node7</title>
<g id="a_edge7_Node000006_Node000007"><a xlink:title=" ">
<path fill="none" stroke="#63b8ff" d="M963.35,-578.29C999.68,-570.94 1039.42,-556.21 1064.75,-527 1105.28,-480.27 1102.39,-401.17 1098.05,-362.71"/>
<polygon fill="#63b8ff" stroke="#63b8ff" points="962.89,-574.81 953.68,-580.07 964.15,-581.7 962.89,-574.81"/>
</a>
</g>
</g>
<!-- Node6&#45;&gt;Node14 -->
<g id="edge18_Node000006_Node000014" class="edge">
<title>Node6&#45;&gt;Node14</title>
<g id="a_edge18_Node000006_Node000014"><a xlink:title=" ">
<path fill="none" stroke="#63b8ff" d="M791.78,-569.86C707.59,-554.91 580.61,-532.37 500.5,-518.15"/>
<polygon fill="#63b8ff" stroke="#63b8ff" points="791.16,-573.31 801.62,-571.61 792.39,-566.41 791.16,-573.31"/>
</a>
</g>
</g>
<!-- Node6&#45;&gt;Node18 -->
<g id="edge36_Node000006_Node000018" class="edge">
<title>Node6&#45;&gt;Node18</title>
<g id="a_edge36_Node000006_Node000018"><a xlink:title=" ">
<path fill="none" stroke="#63b8ff" d="M963.25,-576.19C994.44,-568.32 1026.69,-553.76 1045.75,-527 1057.67,-510.26 1058.59,-496.8 1045.75,-480.75 1023.13,-452.47 930.42,-436.97 862.59,-429.24"/>
<polygon fill="#63b8ff" stroke="#63b8ff" points="962.73,-572.72 953.76,-578.37 964.29,-579.54 962.73,-572.72"/>
</a>
</g>
</g>
<!-- Node21 -->
<g id="Node000021" class="node">
<title>Node21</title>
<g id="a_Node000021"><a xlink:href="dirichlet_8cc.html" target="_top" xlink:title=" ">
<polygon fill="white" stroke="#666666" points="1037.12,-520.62 888.38,-520.62 888.38,-487.12 1037.12,-487.12 1037.12,-520.62"/>
<text text-anchor="start" x="896.38" y="-507.12" font-family="Helvetica,sans-Serif" font-size="10.00">/__w/phaseField/phaseField</text>
<text text-anchor="middle" x="962.75" y="-494.38" font-family="Helvetica,sans-Serif" font-size="10.00">/src/core/dirichlet.cc</text>
</a>
</g>
</g>
<!-- Node6&#45;&gt;Node21 -->
<g id="edge37_Node000006_Node000021" class="edge">
<title>Node6&#45;&gt;Node21</title>
<g id="a_edge37_Node000006_Node000021"><a xlink:title=" ">
<path fill="none" stroke="#63b8ff" d="M909.64,-555.02C921.87,-543.47 935.35,-530.75 945.67,-521"/>
<polygon fill="#63b8ff" stroke="#63b8ff" points="907.4,-552.32 902.53,-561.73 912.2,-557.41 907.4,-552.32"/>
</a>
</g>
</g>
<!-- Node22 -->
<g id="Node000022" class="node">
<title>Node22</title>
<g id="a_Node000022"><a xlink:href="initial__conditions_8cc.html" target="_top" xlink:title=" ">
<polygon fill="white" stroke="#666666" points="870.25,-520.62 713.25,-520.62 713.25,-487.12 870.25,-487.12 870.25,-520.62"/>
<text text-anchor="start" x="721.25" y="-507.12" font-family="Helvetica,sans-Serif" font-size="10.00">/__w/phaseField/phaseField</text>
<text text-anchor="middle" x="791.75" y="-494.38" font-family="Helvetica,sans-Serif" font-size="10.00">/src/core/initial_conditions.cc</text>
</a>
</g>
</g>
<!-- Node6&#45;&gt;Node22 -->
<g id="edge38_Node000006_Node000022" class="edge">
<title>Node6&#45;&gt;Node22</title>
<g id="a_edge38_Node000006_Node000022"><a xlink:title=" ">
<path fill="none" stroke="#63b8ff" d="M845.49,-555.02C833.11,-543.47 819.48,-530.75 809.04,-521"/>
<polygon fill="#63b8ff" stroke="#63b8ff" points="842.99,-557.47 852.69,-561.74 847.76,-552.36 842.99,-557.47"/>
</a>
</g>
</g>
<!-- Node8 -->
<g id="Node000008" class="node">
<title>Node8</title>
<g id="a_Node000008"><a xlink:href="explicit__solver_8h.html" target="_top" xlink:title=" ">
<polygon fill="white" stroke="#666666" points="1271.12,-280.25 1122.38,-280.25 1122.38,-234 1271.12,-234 1271.12,-280.25"/>
<text text-anchor="start" x="1130.38" y="-266.75" font-family="Helvetica,sans-Serif" font-size="10.00">/__w/phaseField/phaseField</text>
<text text-anchor="start" x="1130.38" y="-254" font-family="Helvetica,sans-Serif" font-size="10.00">/include/prismspf/solvers</text>
<text text-anchor="middle" x="1196.75" y="-241.25" font-family="Helvetica,sans-Serif" font-size="10.00">/explicit_solver.h</text>
</a>
</g>
</g>
<!-- Node7&#45;&gt;Node8 -->
<g id="edge8_Node000007_Node000008" class="edge">
<title>Node7&#45;&gt;Node8</title>
<g id="a_edge8_Node000007_Node000008"><a xlink:title=" ">
<path fill="none" stroke="#63b8ff" d="M1132.28,-308.85C1144.18,-299.49 1157.13,-289.3 1168.28,-280.52"/>
<polygon fill="#63b8ff" stroke="#63b8ff" points="1130.32,-305.94 1124.62,-314.87 1134.65,-311.44 1130.32,-305.94"/>
</a>
</g>
</g>
<!-- Node11 -->
<g id="Node000011" class="node">
<title>Node11</title>
<g id="a_Node000011"><a xlink:href="linear__solver_8h.html" target="_top" xlink:title=" ">
<polygon fill="white" stroke="#666666" points="862.12,-280.25 713.38,-280.25 713.38,-234 862.12,-234 862.12,-280.25"/>
<text text-anchor="start" x="721.38" y="-266.75" font-family="Helvetica,sans-Serif" font-size="10.00">/__w/phaseField/phaseField</text>
<text text-anchor="start" x="721.38" y="-254" font-family="Helvetica,sans-Serif" font-size="10.00">/include/prismspf/solvers</text>
<text text-anchor="middle" x="787.75" y="-241.25" font-family="Helvetica,sans-Serif" font-size="10.00">/linear_solver.h</text>
</a>
</g>
</g>
<!-- Node7&#45;&gt;Node11 -->
<g id="edge12_Node000007_Node000011" class="edge">
<title>Node7&#45;&gt;Node11</title>
<g id="a_edge12_Node000007_Node000011"><a xlink:title=" ">
<path fill="none" stroke="#63b8ff" d="M1009.13,-315.83C954.51,-301.52 903.19,-288.15 862.6,-277.58"/>
<polygon fill="#63b8ff" stroke="#63b8ff" points="1008.07,-319.17 1018.63,-318.32 1009.85,-312.4 1008.07,-319.17"/>
</a>
</g>
</g>
<!-- Node12 -->
<g id="Node000012" class="node">
<title>Node12</title>
<g id="a_Node000012"><a xlink:href="newton__solver_8h.html" target="_top" xlink:title=" ">
<polygon fill="white" stroke="#666666" points="976.12,-198 827.38,-198 827.38,-151.75 976.12,-151.75 976.12,-198"/>
<text text-anchor="start" x="835.38" y="-184.5" font-family="Helvetica,sans-Serif" font-size="10.00">/__w/phaseField/phaseField</text>
<text text-anchor="start" x="835.38" y="-171.75" font-family="Helvetica,sans-Serif" font-size="10.00">/include/prismspf/solvers</text>
<text text-anchor="middle" x="901.75" y="-159" font-family="Helvetica,sans-Serif" font-size="10.00">/newton_solver.h</text>
</a>
</g>
</g>
<!-- Node7&#45;&gt;Node12 -->
<g id="edge16_Node000007_Node000012" class="edge">
<title>Node7&#45;&gt;Node12</title>
<g id="a_edge16_Node000007_Node000012"><a xlink:title=" ">
<path fill="none" stroke="#63b8ff" d="M1011.6,-311.98C983.75,-301.84 957.13,-290.29 946.75,-280.25 923.64,-257.88 911.71,-221.68 906.1,-198.34"/>
<polygon fill="#63b8ff" stroke="#63b8ff" points="1010.28,-315.22 1020.87,-315.28 1012.63,-308.63 1010.28,-315.22"/>
</a>
</g>
</g>
<!-- Node13 -->
<g id="Node000013" class="node">
<title>Node13</title>
<g id="a_Node000013"><a xlink:href="mf__operator_8cc.html" target="_top" xlink:title=" ">
<polygon fill="white" stroke="#666666" points="1104.12,-273.88 955.38,-273.88 955.38,-240.38 1104.12,-240.38 1104.12,-273.88"/>
<text text-anchor="start" x="963.38" y="-260.38" font-family="Helvetica,sans-Serif" font-size="10.00">/__w/phaseField/phaseField</text>
<text text-anchor="middle" x="1029.75" y="-247.62" font-family="Helvetica,sans-Serif" font-size="10.00">/src/solvers/mf_operator.cc</text>
</a>
</g>
</g>
<!-- Node7&#45;&gt;Node13 -->
<g id="edge17_Node000007_Node000013" class="edge">
<title>Node7&#45;&gt;Node13</title>
<g id="a_edge17_Node000007_Node000013"><a xlink:title=" ">
<path fill="none" stroke="#63b8ff" d="M1069.55,-307.27C1060.42,-295.99 1050.48,-283.72 1042.81,-274.25"/>
<polygon fill="#63b8ff" stroke="#63b8ff" points="1066.68,-309.28 1075.69,-314.84 1072.12,-304.87 1066.68,-309.28"/>
</a>
</g>
</g>
<!-- Node9 -->
<g id="Node000009" class="node">
<title>Node9</title>
<g id="a_Node000009"><a xlink:href="solvers_8h.html" target="_top" xlink:title=" ">
<polygon fill="white" stroke="#666666" points="874.12,-115.75 725.38,-115.75 725.38,-69.5 874.12,-69.5 874.12,-115.75"/>
<text text-anchor="start" x="733.38" y="-102.25" font-family="Helvetica,sans-Serif" font-size="10.00">/__w/phaseField/phaseField</text>
<text text-anchor="start" x="733.38" y="-89.5" font-family="Helvetica,sans-Serif" font-size="10.00">/include/prismspf/solvers</text>
<text text-anchor="middle" x="799.75" y="-76.75" font-family="Helvetica,sans-Serif" font-size="10.00">/solvers.h</text>
</a>
</g>
</g>
<!-- Node8&#45;&gt;Node9 -->
<g id="edge9_Node000008_Node000009" class="edge">
<title>Node8&#45;&gt;Node9</title>
<g id="a_edge9_Node000008_Node000009"><a xlink:title=" ">
<path fill="none" stroke="#63b8ff" d="M1145.72,-228.25C1103.39,-205.8 1041.22,-174.37 984.75,-151.75 949.12,-137.48 908.54,-124.39 874.48,-114.26"/>
<polygon fill="#63b8ff" stroke="#63b8ff" points="1143.97,-231.28 1154.44,-232.9 1147.26,-225.1 1143.97,-231.28"/>
</a>
</g>
</g>
<!-- Node9&#45;&gt;Node3 -->
<g id="edge10_Node000009_Node000003" class="edge">
<title>Node9&#45;&gt;Node3</title>
<g id="a_edge10_Node000009_Node000003"><a xlink:title=" ">
<path fill="none" stroke="#63b8ff" d="M713.61,-75.83C641.66,-62.65 540.13,-44.03 471.55,-31.46"/>
<polygon fill="#63b8ff" stroke="#63b8ff" points="712.94,-79.27 723.4,-77.63 714.2,-72.38 712.94,-79.27"/>
</a>
</g>
</g>
<!-- Node10 -->
<g id="Node000010" class="node">
<title>Node10</title>
<g id="a_Node000010"><a xlink:href="solvers_8cc.html" target="_top" xlink:title=" ">
<polygon fill="white" stroke="#666666" points="874.12,-33.5 725.38,-33.5 725.38,0 874.12,0 874.12,-33.5"/>
<text text-anchor="start" x="733.38" y="-20" font-family="Helvetica,sans-Serif" font-size="10.00">/__w/phaseField/phaseField</text>
<text text-anchor="middle" x="799.75" y="-7.25" font-family="Helvetica,sans-Serif" font-size="10.00">/src/solvers/solvers.cc</text>
</a>
</g>
</g>
<!-- Node9&#45;&gt;Node10 -->
<g id="edge11_Node000009_Node000010" class="edge">
<title>Node9&#45;&gt;Node10</title>
<g id="a_edge11_Node000009_Node000010"><a xlink:title=" ">
<path fill="none" stroke="#63b8ff" d="M799.75,-57.64C799.75,-49.35 799.75,-40.86 799.75,-33.85"/>
<polygon fill="#63b8ff" stroke="#63b8ff" points="796.25,-57.55 799.75,-67.55 803.25,-57.55 796.25,-57.55"/>
</a>
</g>
</g>
<!-- Node11&#45;&gt;Node9 -->
<g id="edge15_Node000011_Node000009" class="edge">
<title>Node11&#45;&gt;Node9</title>
<g id="a_edge15_Node000011_Node000009"><a xlink:title=" ">
<path fill="none" stroke="#63b8ff" d="M790.26,-222.11C792.62,-190.22 796.07,-143.47 798.1,-116.03"/>
<polygon fill="#63b8ff" stroke="#63b8ff" points="786.78,-221.79 789.53,-232.02 793.76,-222.31 786.78,-221.79"/>
</a>
</g>
</g>
<!-- Node11&#45;&gt;Node12 -->
<g id="edge13_Node000011_Node000012" class="edge">
<title>Node11&#45;&gt;Node12</title>
<g id="a_edge13_Node000011_Node000012"><a xlink:title=" ">
<path fill="none" stroke="#63b8ff" d="M828.91,-227.15C842.42,-217.64 857.22,-207.22 869.93,-198.27"/>
<polygon fill="#63b8ff" stroke="#63b8ff" points="827.21,-224.07 821.05,-232.69 831.24,-229.79 827.21,-224.07"/>
</a>
</g>
</g>
<!-- Node12&#45;&gt;Node9 -->
<g id="edge14_Node000012_Node000009" class="edge">
<title>Node12&#45;&gt;Node9</title>
<g id="a_edge14_Node000012_Node000009"><a xlink:title=" ">
<path fill="none" stroke="#63b8ff" d="M864.22,-144.35C852.32,-134.99 839.37,-124.8 828.22,-116.02"/>
<polygon fill="#63b8ff" stroke="#63b8ff" points="861.85,-146.94 871.88,-150.37 866.18,-141.44 861.85,-146.94"/>
</a>
</g>
</g>
<!-- Node14&#45;&gt;Node2 -->
<g id="edge23_Node000014_Node000002" class="edge">
<title>Node14&#45;&gt;Node2</title>
<g id="a_edge23_Node000014_Node000002"><a xlink:title=" ">
<path fill="none" stroke="#63b8ff" d="M340.04,-482.58C287.91,-470.25 221.67,-454.56 170,-442.33"/>
<polygon fill="#63b8ff" stroke="#63b8ff" points="338.93,-485.92 349.46,-484.82 340.54,-479.11 338.93,-485.92"/>
</a>
</g>
</g>
<!-- Node15 -->
<g id="Node000015" class="node">
<title>Node15</title>
<g id="a_Node000015"><a xlink:href="problem_8h.html" target="_top" xlink:title=" ">
<polygon fill="white" stroke="#666666" points="485,-273.88 308.5,-273.88 308.5,-240.38 485,-240.38 485,-273.88"/>
<text text-anchor="start" x="316.5" y="-260.38" font-family="Helvetica,sans-Serif" font-size="10.00">/__w/phaseField/phaseField</text>
<text text-anchor="middle" x="396.75" y="-247.62" font-family="Helvetica,sans-Serif" font-size="10.00">/include/prismspf/core/problem.h</text>
</a>
</g>
</g>
<!-- Node14&#45;&gt;Node15 -->
<g id="edge19_Node000014_Node000015" class="edge">
<title>Node14&#45;&gt;Node15</title>
<g id="a_edge19_Node000014_Node000015"><a xlink:title=" ">
<path fill="none" stroke="#63b8ff" d="M421.74,-469.05C415.42,-415.66 403.35,-313.85 398.67,-274.35"/>
<polygon fill="#63b8ff" stroke="#63b8ff" points="418.24,-469.27 422.9,-478.79 425.19,-468.44 418.24,-469.27"/>
</a>
</g>
</g>
<!-- Node16 -->
<g id="Node000016" class="node">
<title>Node16</title>
<g id="a_Node000016"><a xlink:href="refinement__manager_8h.html" target="_top" xlink:title=" ">
<polygon fill="white" stroke="#666666" points="604.88,-362.5 424.62,-362.5 424.62,-316.25 604.88,-316.25 604.88,-362.5"/>
<text text-anchor="start" x="432.62" y="-349" font-family="Helvetica,sans-Serif" font-size="10.00">/__w/phaseField/phaseField</text>
<text text-anchor="start" x="432.62" y="-336.25" font-family="Helvetica,sans-Serif" font-size="10.00">/include/prismspf/core/refinement</text>
<text text-anchor="middle" x="514.75" y="-323.5" font-family="Helvetica,sans-Serif" font-size="10.00">_manager.h</text>
</a>
</g>
</g>
<!-- Node14&#45;&gt;Node16 -->
<g id="edge21_Node000014_Node000016" class="edge">
<title>Node14&#45;&gt;Node16</title>
<g id="a_edge21_Node000014_Node000016"><a xlink:title=" ">
<path fill="none" stroke="#63b8ff" d="M443.46,-470.53C460.94,-438.63 487.19,-390.7 502.48,-362.78"/>
<polygon fill="#63b8ff" stroke="#63b8ff" points="440.59,-468.5 438.85,-478.95 446.73,-471.86 440.59,-468.5"/>
</a>
</g>
</g>
<!-- Node14&#45;&gt;Node17 -->
<g id="edge24_Node000014_Node000017" class="edge">
<title>Node14&#45;&gt;Node17</title>
<g id="a_edge24_Node000014_Node000017"><a xlink:title=" ">
<path fill="none" stroke="#63b8ff" d="M387.12,-473.35C374.87,-463.99 361.54,-453.8 350.06,-445.02"/>
<polygon fill="#63b8ff" stroke="#63b8ff" points="384.95,-476.1 395.02,-479.39 389.2,-470.54 384.95,-476.1"/>
</a>
</g>
</g>
<!-- Node14&#45;&gt;Node18 -->
<g id="edge26_Node000014_Node000018" class="edge">
<title>Node14&#45;&gt;Node18</title>
<g id="a_edge26_Node000014_Node000018"><a xlink:title=" ">
<path fill="none" stroke="#63b8ff" d="M511.51,-483.86C572.76,-470.29 654.36,-452.2 712.97,-439.2"/>
<polygon fill="#63b8ff" stroke="#63b8ff" points="510.8,-480.44 501.8,-486.02 512.32,-487.27 510.8,-480.44"/>
</a>
</g>
</g>
<!-- Node15&#45;&gt;Node3 -->
<g id="edge20_Node000015_Node000003" class="edge">
<title>Node15&#45;&gt;Node3</title>
<g id="a_edge20_Node000015_Node000003"><a xlink:title=" ">
<path fill="none" stroke="#63b8ff" d="M396.75,-228.61C396.75,-178.46 396.75,-73.65 396.75,-33.69"/>
<polygon fill="#63b8ff" stroke="#63b8ff" points="393.25,-228.6 396.75,-238.6 400.25,-228.6 393.25,-228.6"/>
</a>
</g>
</g>
<!-- Node16&#45;&gt;Node15 -->
<g id="edge22_Node000016_Node000015" class="edge">
<title>Node16&#45;&gt;Node15</title>
<g id="a_edge22_Node000016_Node000015"><a xlink:title=" ">
<path fill="none" stroke="#63b8ff" d="M472.13,-309.39C454.68,-297.52 435.15,-284.24 420.34,-274.17"/>
<polygon fill="#63b8ff" stroke="#63b8ff" points="470.08,-312.23 480.31,-314.96 474.01,-306.44 470.08,-312.23"/>
</a>
</g>
</g>
<!-- Node17&#45;&gt;Node15 -->
<g id="edge25_Node000017_Node000015" class="edge">
<title>Node17&#45;&gt;Node15</title>
<g id="a_edge25_Node000017_Node000015"><a xlink:title=" ">
<path fill="none" stroke="#63b8ff" d="M336.02,-387.97C352.16,-353.47 376.93,-300.51 389.25,-274.16"/>
<polygon fill="#63b8ff" stroke="#63b8ff" points="333.02,-386.12 331.96,-396.66 339.37,-389.08 333.02,-386.12"/>
</a>
</g>
</g>
<!-- Node18&#45;&gt;Node3 -->
<g id="edge34_Node000018_Node000003" class="edge">
<title>Node18&#45;&gt;Node3</title>
<g id="a_edge34_Node000018_Node000003"><a xlink:title=" ">
<path fill="none" stroke="#63b8ff" d="M748.87,-390.94C737.89,-382.1 726.11,-372.18 715.75,-362.5 589.16,-244.17 452.93,-84.74 410.29,-33.98"/>
<polygon fill="#63b8ff" stroke="#63b8ff" points="746.67,-393.66 756.68,-397.14 751.03,-388.18 746.67,-393.66"/>
</a>
</g>
</g>
<!-- Node18&#45;&gt;Node7 -->
<g id="edge32_Node000018_Node000007" class="edge">
<title>Node18&#45;&gt;Node7</title>
<g id="a_edge32_Node000018_Node000007"><a xlink:title=" ">
<path fill="none" stroke="#63b8ff" d="M873.49,-398.33C914.96,-387.53 965.45,-374.37 1010.75,-362.5 1013.81,-361.7 1016.94,-360.88 1020.1,-360.05"/>
<polygon fill="#63b8ff" stroke="#63b8ff" points="872.87,-394.88 864.07,-400.78 874.63,-401.65 872.87,-394.88"/>
</a>
</g>
</g>
<!-- Node18&#45;&gt;Node8 -->
<g id="edge30_Node000018_Node000008" class="edge">
<title>Node18&#45;&gt;Node8</title>
<g id="a_edge30_Node000018_Node000008"><a xlink:title=" ">
<path fill="none" stroke="#63b8ff" d="M874,-419.13C975.53,-415.5 1135.67,-403.25 1177.75,-362.5 1199.45,-341.49 1201.14,-304.56 1199.56,-280.73"/>
<polygon fill="#63b8ff" stroke="#63b8ff" points="873.93,-415.63 864.05,-419.47 874.16,-422.63 873.93,-415.63"/>
</a>
</g>
</g>
<!-- Node18&#45;&gt;Node11 -->
<g id="edge31_Node000018_Node000011" class="edge">
<title>Node18&#45;&gt;Node11</title>
<g id="a_edge31_Node000018_Node000011"><a xlink:title=" ">
<path fill="none" stroke="#63b8ff" d="M787.75,-386.61C787.75,-354.72 787.75,-307.97 787.75,-280.53"/>
<polygon fill="#63b8ff" stroke="#63b8ff" points="784.25,-386.52 787.75,-396.52 791.25,-386.52 784.25,-386.52"/>
</a>
</g>
</g>
<!-- Node18&#45;&gt;Node12 -->
<g id="edge33_Node000018_Node000012" class="edge">
<title>Node18&#45;&gt;Node12</title>
<g id="a_edge33_Node000018_Node000012"><a xlink:title=" ">
<path fill="none" stroke="#63b8ff" d="M804.12,-388.19C815,-367.28 829.96,-339.71 844.75,-316.25 855.28,-299.56 862.04,-297.96 870.75,-280.25 883.93,-253.45 892.65,-219.97 897.39,-198.27"/>
<polygon fill="#63b8ff" stroke="#63b8ff" points="801.14,-386.33 799.67,-396.83 807.36,-389.54 801.14,-386.33"/>
</a>
</g>
</g>
<!-- Node18&#45;&gt;Node16 -->
<g id="edge27_Node000018_Node000016" class="edge">
<title>Node18&#45;&gt;Node16</title>
<g id="a_edge27_Node000018_Node000016"><a xlink:title=" ">
<path fill="none" stroke="#63b8ff" d="M702.34,-395.52C666.91,-385.1 626.12,-373.11 591.64,-362.98"/>
<polygon fill="#63b8ff" stroke="#63b8ff" points="701.12,-398.81 711.7,-398.27 703.09,-392.09 701.12,-398.81"/>
</a>
</g>
</g>
<!-- Node19 -->
<g id="Node000019" class="node">
<title>Node19</title>
<g id="a_Node000019"><a xlink:href="constant__solver_8h.html" target="_top" xlink:title=" ">
<polygon fill="white" stroke="#666666" points="772.12,-198 623.38,-198 623.38,-151.75 772.12,-151.75 772.12,-198"/>
<text text-anchor="start" x="631.38" y="-184.5" font-family="Helvetica,sans-Serif" font-size="10.00">/__w/phaseField/phaseField</text>
<text text-anchor="start" x="631.38" y="-171.75" font-family="Helvetica,sans-Serif" font-size="10.00">/include/prismspf/solvers</text>
<text text-anchor="middle" x="697.75" y="-159" font-family="Helvetica,sans-Serif" font-size="10.00">/constant_solver.h</text>
</a>
</g>
</g>
<!-- Node18&#45;&gt;Node19 -->
<g id="edge28_Node000018_Node000019" class="edge">
<title>Node18&#45;&gt;Node19</title>
<g id="a_edge28_Node000018_Node000019"><a xlink:title=" ">
<path fill="none" stroke="#63b8ff" d="M763.42,-389.37C743.75,-362.19 717.34,-320.89 704.75,-280.25 696.31,-253.01 695.59,-219.93 696.29,-198.41"/>
<polygon fill="#63b8ff" stroke="#63b8ff" points="760.41,-391.19 769.16,-397.15 766.04,-387.03 760.41,-391.19"/>
</a>
</g>
</g>
<!-- Node20 -->
<g id="Node000020" class="node">
<title>Node20</title>
<g id="a_Node000020"><a xlink:href="solver__base_8cc.html" target="_top" xlink:title=" ">
<polygon fill="white" stroke="#666666" points="1002.12,-356.12 853.38,-356.12 853.38,-322.62 1002.12,-322.62 1002.12,-356.12"/>
<text text-anchor="start" x="861.38" y="-342.62" font-family="Helvetica,sans-Serif" font-size="10.00">/__w/phaseField/phaseField</text>
<text text-anchor="middle" x="927.75" y="-329.88" font-family="Helvetica,sans-Serif" font-size="10.00">/src/solvers/solver_base.cc</text>
</a>
</g>
</g>
<!-- Node18&#45;&gt;Node20 -->
<g id="edge35_Node000018_Node000020" class="edge">
<title>Node18&#45;&gt;Node20</title>
<g id="a_edge35_Node000018_Node000020"><a xlink:title=" ">
<path fill="none" stroke="#63b8ff" d="M836.88,-392.46C857.95,-380.39 881.79,-366.72 899.76,-356.42"/>
<polygon fill="#63b8ff" stroke="#63b8ff" points="835.37,-389.3 828.43,-397.3 838.85,-395.37 835.37,-389.3"/>
</a>
</g>
</g>
<!-- Node19&#45;&gt;Node9 -->
<g id="edge29_Node000019_Node000009" class="edge">
<title>Node19&#45;&gt;Node9</title>
<g id="a_edge29_Node000019_Node000009"><a xlink:title=" ">
<path fill="none" stroke="#63b8ff" d="M735.28,-144.35C747.18,-134.99 760.13,-124.8 771.28,-116.02"/>
<polygon fill="#63b8ff" stroke="#63b8ff" points="733.32,-141.44 727.62,-150.37 737.65,-146.94 733.32,-141.44"/>
</a>
</g>
</g>
</g>
</svg>
