<?xml version="1.0" encoding="UTF-8" standalone="no"?>
<!DOCTYPE svg PUBLIC "-//W3C//DTD SVG 1.1//EN"
 "http://www.w3.org/Graphics/SVG/1.1/DTD/svg11.dtd">
<!-- Generated by graphviz version 12.2.1 (20241206.2353)
 -->
<!-- Title: include/prismspf/user_inputs/io_parameters.h Pages: 1 -->
<svg width="3024pt" height="376pt"
 viewBox="0.00 0.00 3024.38 376.25" xmlns="http://www.w3.org/2000/svg" xmlns:xlink="http://www.w3.org/1999/xlink">
<g id="graph0" class="graph" transform="scale(1 1) rotate(0) translate(4 372.25)">
<title>include/prismspf/user_inputs/io_parameters.h</title>
<!-- Node1 -->
<g id="Node000001" class="node">
<title>Node1</title>
<g id="a_Node000001"><a xlink:title=" ">
<polygon fill="#999999" stroke="#666666" points="1027.88,-368.25 894.12,-368.25 894.12,-334.75 1027.88,-334.75 1027.88,-368.25"/>
<text text-anchor="start" x="902.12" y="-354.75" font-family="Helvetica,sans-Serif" font-size="10.00">include/prismspf/user</text>
<text text-anchor="middle" x="961" y="-342" font-family="Helvetica,sans-Serif" font-size="10.00">_inputs/io_parameters.h</text>
</a>
</g>
</g>
<!-- Node2 -->
<g id="Node000002" class="node">
<title>Node2</title>
<g id="a_Node000002"><a xlink:title=" ">
<polygon fill="#e0e0e0" stroke="#999999" points="118,-298.75 0,-298.75 0,-265.25 118,-265.25 118,-298.75"/>
<text text-anchor="start" x="8" y="-285.25" font-family="Helvetica,sans-Serif" font-size="10.00">deal.II/base/data_out</text>
<text text-anchor="middle" x="59" y="-272.5" font-family="Helvetica,sans-Serif" font-size="10.00">_base.h</text>
</a>
</g>
</g>
<!-- Node1&#45;&gt;Node2 -->
<g id="edge1_Node000001_Node000002" class="edge">
<title>Node1&#45;&gt;Node2</title>
<g id="a_edge1_Node000001_Node000002"><a xlink:title=" ">
<path fill="none" stroke="#63b8ff" d="M893.86,-350.09C753.47,-348.43 418.62,-340.22 129.36,-298.94"/>
<polygon fill="#63b8ff" stroke="#63b8ff" points="130.12,-295.51 119.73,-297.54 129.12,-302.44 130.12,-295.51"/>
</a>
</g>
</g>
<!-- Node3 -->
<g id="Node000003" class="node">
<title>Node3</title>
<g id="a_Node000003"><a xlink:title=" ">
<polygon fill="#e0e0e0" stroke="#999999" points="838.12,-229.25 711.88,-229.25 711.88,-195.75 838.12,-195.75 838.12,-229.25"/>
<text text-anchor="start" x="719.88" y="-215.75" font-family="Helvetica,sans-Serif" font-size="10.00">deal.II/base/parameter</text>
<text text-anchor="middle" x="775" y="-203" font-family="Helvetica,sans-Serif" font-size="10.00">_handler.h</text>
</a>
</g>
</g>
<!-- Node1&#45;&gt;Node3 -->
<g id="edge2_Node000001_Node000003" class="edge">
<title>Node1&#45;&gt;Node3</title>
<g id="a_edge2_Node000001_Node000003"><a xlink:title=" ">
<path fill="none" stroke="#63b8ff" d="M939.3,-334.52C906.35,-310.25 843.55,-263.99 805.86,-236.23"/>
<polygon fill="#63b8ff" stroke="#63b8ff" points="808.2,-233.6 798.07,-230.49 804.04,-239.24 808.2,-233.6"/>
</a>
</g>
</g>
<!-- Node4 -->
<g id="Node000004" class="node">
<title>Node4</title>
<g id="a_Node000004"><a xlink:title=" ">
<polygon fill="#e0e0e0" stroke="#999999" points="418.38,-292.38 293.62,-292.38 293.62,-271.62 418.38,-271.62 418.38,-292.38"/>
<text text-anchor="middle" x="356" y="-278.88" font-family="Helvetica,sans-Serif" font-size="10.00">deal.II/base/patterns.h</text>
</a>
</g>
</g>
<!-- Node1&#45;&gt;Node4 -->
<g id="edge3_Node000001_Node000004" class="edge">
<title>Node1&#45;&gt;Node4</title>
<g id="a_edge3_Node000001_Node000004"><a xlink:title=" ">
<path fill="none" stroke="#63b8ff" d="M893.91,-346.24C793.2,-339.33 597.13,-323.86 432,-298.75 425.01,-297.69 417.68,-296.4 410.46,-295.02"/>
<polygon fill="#63b8ff" stroke="#63b8ff" points="411.24,-291.6 400.75,-293.09 409.88,-298.47 411.24,-291.6"/>
</a>
</g>
</g>
<!-- Node5 -->
<g id="Node000005" class="node">
<title>Node5</title>
<g id="a_Node000005"><a xlink:title=" ">
<polygon fill="#e0e0e0" stroke="#999999" points="1445.5,-153.38 1324.5,-153.38 1324.5,-132.62 1445.5,-132.62 1445.5,-153.38"/>
<text text-anchor="middle" x="1385" y="-139.88" font-family="Helvetica,sans-Serif" font-size="10.00">deal.II/base/utilities.h</text>
</a>
</g>
</g>
<!-- Node1&#45;&gt;Node5 -->
<g id="edge4_Node000001_Node000005" class="edge">
<title>Node1&#45;&gt;Node5</title>
<g id="a_edge4_Node000001_Node000005"><a xlink:title=" ">
<path fill="none" stroke="#63b8ff" d="M1028.29,-345.18C1111.02,-335.35 1251.45,-307.53 1341,-229.25 1360.74,-211.99 1372.84,-183.72 1379.23,-164.51"/>
<polygon fill="#63b8ff" stroke="#63b8ff" points="1382.53,-165.68 1382.12,-155.09 1375.84,-163.63 1382.53,-165.68"/>
</a>
</g>
</g>
<!-- Node6 -->
<g id="Node000006" class="node">
<title>Node6</title>
<g id="a_Node000006"><a xlink:title=" ">
<polygon fill="#e0e0e0" stroke="#999999" points="580,-298.75 474,-298.75 474,-265.25 580,-265.25 580,-298.75"/>
<text text-anchor="start" x="482" y="-285.25" font-family="Helvetica,sans-Serif" font-size="10.00">boost/serialization</text>
<text text-anchor="middle" x="527" y="-272.5" font-family="Helvetica,sans-Serif" font-size="10.00">/vector.hpp</text>
</a>
</g>
</g>
<!-- Node1&#45;&gt;Node6 -->
<g id="edge5_Node000001_Node000006" class="edge">
<title>Node1&#45;&gt;Node6</title>
<g id="a_edge5_Node000001_Node000006"><a xlink:title=" ">
<path fill="none" stroke="#63b8ff" d="M893.73,-342.87C819.9,-334.07 698.03,-318.27 594,-298.75 593.16,-298.59 592.32,-298.43 591.47,-298.27"/>
<polygon fill="#63b8ff" stroke="#63b8ff" points="592.28,-294.86 581.78,-296.29 590.88,-301.72 592.28,-294.86"/>
</a>
</g>
</g>
<!-- Node7 -->
<g id="Node000007" class="node">
<title>Node7</title>
<g id="a_Node000007"><a xlink:href="conditional__ostreams_8h.html" target="_top" xlink:title=" ">
<polygon fill="white" stroke="#666666" points="275.88,-298.75 136.12,-298.75 136.12,-265.25 275.88,-265.25 275.88,-298.75"/>
<text text-anchor="start" x="144.12" y="-285.25" font-family="Helvetica,sans-Serif" font-size="10.00">prismspf/core/conditional</text>
<text text-anchor="middle" x="206" y="-272.5" font-family="Helvetica,sans-Serif" font-size="10.00">_ostreams.h</text>
</a>
</g>
</g>
<!-- Node1&#45;&gt;Node7 -->
<g id="edge6_Node000001_Node000007" class="edge">
<title>Node1&#45;&gt;Node7</title>
<g id="a_edge6_Node000001_Node000007"><a xlink:title=" ">
<path fill="none" stroke="#63b8ff" d="M894.03,-348.05C774.27,-343.08 515.36,-329.68 287.32,-298.96"/>
<polygon fill="#63b8ff" stroke="#63b8ff" points="288.02,-295.53 277.64,-297.64 287.07,-302.46 288.02,-295.53"/>
</a>
</g>
</g>
<!-- Node9 -->
<g id="Node000009" class="node">
<title>Node9</title>
<g id="a_Node000009"><a xlink:title=" ">
<polygon fill="#e0e0e0" stroke="#999999" points="777,-20.75 677,-20.75 677,0 777,0 777,-20.75"/>
<text text-anchor="middle" x="727" y="-7.25" font-family="Helvetica,sans-Serif" font-size="10.00">prismspf/config.h</text>
</a>
</g>
</g>
<!-- Node1&#45;&gt;Node9 -->
<g id="edge60_Node000001_Node000009" class="edge">
<title>Node1&#45;&gt;Node9</title>
<g id="a_edge60_Node000001_Node000009"><a xlink:title=" ">
<path fill="none" stroke="#63b8ff" d="M893.91,-348.25C765.28,-343.25 494.07,-329.2 465,-298.75 451.55,-284.66 452.89,-141.86 461,-126.25 499.49,-52.2 599.81,-25.88 665.65,-16.53"/>
<polygon fill="#63b8ff" stroke="#63b8ff" points="665.76,-20.05 675.21,-15.27 664.84,-13.11 665.76,-20.05"/>
</a>
</g>
</g>
<!-- Node10 -->
<g id="Node000010" class="node">
<title>Node10</title>
<g id="a_Node000010"><a xlink:href="exceptions_8h.html" target="_top" xlink:title=" ">
<polygon fill="white" stroke="#666666" points="618,-222.88 470,-222.88 470,-202.12 618,-202.12 618,-222.88"/>
<text text-anchor="middle" x="544" y="-209.38" font-family="Helvetica,sans-Serif" font-size="10.00">prismspf/core/exceptions.h</text>
</a>
</g>
</g>
<!-- Node1&#45;&gt;Node10 -->
<g id="edge9_Node000001_Node000010" class="edge">
<title>Node1&#45;&gt;Node10</title>
<g id="a_edge9_Node000001_Node000010"><a xlink:title=" ">
<path fill="none" stroke="#63b8ff" d="M893.79,-344.75C811.27,-336.86 676.75,-321.08 632,-298.75 615.44,-290.49 580.73,-254.06 560.2,-231.58"/>
<polygon fill="#63b8ff" stroke="#63b8ff" points="562.93,-229.38 553.62,-224.32 557.74,-234.08 562.93,-229.38"/>
</a>
</g>
</g>
<!-- Node12 -->
<g id="Node000012" class="node">
<title>Node12</title>
<g id="a_Node000012"><a xlink:href="types_8h.html" target="_top" xlink:title=" ">
<polygon fill="white" stroke="#666666" points="787.88,-153.38 666.12,-153.38 666.12,-132.62 787.88,-132.62 787.88,-153.38"/>
<text text-anchor="middle" x="727" y="-139.88" font-family="Helvetica,sans-Serif" font-size="10.00">prismspf/core/types.h</text>
</a>
</g>
</g>
<!-- Node1&#45;&gt;Node12 -->
<g id="edge21_Node000001_Node000012" class="edge">
<title>Node1&#45;&gt;Node12</title>
<g id="a_edge21_Node000001_Node000012"><a xlink:title=" ">
<path fill="none" stroke="#63b8ff" d="M893.71,-339.85C831.91,-326.07 743.92,-295.45 703,-229.25 690.3,-208.7 702.23,-181.25 713.35,-163.12"/>
<polygon fill="#63b8ff" stroke="#63b8ff" points="716.18,-165.18 718.77,-154.91 710.34,-161.33 716.18,-165.18"/>
</a>
</g>
</g>
<!-- Node14 -->
<g id="Node000014" class="node">
<title>Node14</title>
<g id="a_Node000014"><a xlink:href="type__enums_8h.html" target="_top" xlink:title=" ">
<polygon fill="white" stroke="#666666" points="937.75,-90.25 830.25,-90.25 830.25,-56.75 937.75,-56.75 937.75,-90.25"/>
<text text-anchor="start" x="838.25" y="-76.75" font-family="Helvetica,sans-Serif" font-size="10.00">prismspf/core/type</text>
<text text-anchor="middle" x="884" y="-64" font-family="Helvetica,sans-Serif" font-size="10.00">_enums.h</text>
</a>
</g>
</g>
<!-- Node1&#45;&gt;Node14 -->
<g id="edge20_Node000001_Node000014" class="edge">
<title>Node1&#45;&gt;Node14</title>
<g id="a_edge20_Node000001_Node000014"><a xlink:title=" ">
<path fill="none" stroke="#63b8ff" d="M893.76,-350.1C843.96,-346.58 776.9,-334.68 730,-298.75 674.61,-256.31 673.71,-227.5 657,-159.75 653.43,-145.29 647.72,-137.89 657,-126.25 676.95,-101.24 759.02,-87.37 818.76,-80.43"/>
<polygon fill="#63b8ff" stroke="#63b8ff" points="818.96,-83.93 828.51,-79.34 818.18,-76.97 818.96,-83.93"/>
</a>
</g>
</g>
<!-- Node16 -->
<g id="Node000016" class="node">
<title>Node16</title>
<g id="a_Node000016"><a xlink:title=" ">
<polygon fill="#e0e0e0" stroke="#999999" points="1227.88,-20.75 1184.12,-20.75 1184.12,0 1227.88,0 1227.88,-20.75"/>
<text text-anchor="middle" x="1206" y="-7.25" font-family="Helvetica,sans-Serif" font-size="10.00">string</text>
</a>
</g>
</g>
<!-- Node1&#45;&gt;Node16 -->
<g id="edge65_Node000001_Node000016" class="edge">
<title>Node1&#45;&gt;Node16</title>
<g id="a_edge65_Node000001_Node000016"><a xlink:title=" ">
<path fill="none" stroke="#63b8ff" d="M1028.17,-349.55C1363.28,-344.08 2843.34,-311.45 2972,-159.75 3187.64,94.5 2561.59,-79.67 2229,-56.75 1840.7,-29.99 1368.33,-15.81 1239.7,-12.27"/>
<polygon fill="#63b8ff" stroke="#63b8ff" points="1239.94,-8.78 1229.85,-12 1239.75,-15.77 1239.94,-8.78"/>
</a>
</g>
</g>
<!-- Node18 -->
<g id="Node000018" class="node">
<title>Node18</title>
<g id="a_Node000018"><a xlink:href="parameter__base_8h.html" target="_top" xlink:title=" ">
<polygon fill="white" stroke="#666666" points="1072,-298.75 954,-298.75 954,-265.25 1072,-265.25 1072,-298.75"/>
<text text-anchor="start" x="962" y="-285.25" font-family="Helvetica,sans-Serif" font-size="10.00">prismspf/user_inputs</text>
<text text-anchor="middle" x="1013" y="-272.5" font-family="Helvetica,sans-Serif" font-size="10.00">/parameter_base.h</text>
</a>
</g>
</g>
<!-- Node1&#45;&gt;Node18 -->
<g id="edge22_Node000001_Node000018" class="edge">
<title>Node1&#45;&gt;Node18</title>
<g id="a_edge22_Node000001_Node000018"><a xlink:title=" ">
<path fill="none" stroke="#63b8ff" d="M973.32,-334.5C979.48,-326.52 987.06,-316.68 993.94,-307.75"/>
<polygon fill="#63b8ff" stroke="#63b8ff" points="996.51,-310.14 999.84,-300.08 990.97,-305.87 996.51,-310.14"/>
</a>
</g>
</g>
<!-- Node22 -->
<g id="Node000022" class="node">
<title>Node22</title>
<g id="a_Node000022"><a xlink:title=" ">
<polygon fill="#e0e0e0" stroke="#999999" points="1331.75,-222.88 1272.25,-222.88 1272.25,-202.12 1331.75,-202.12 1331.75,-222.88"/>
<text text-anchor="middle" x="1302" y="-209.38" font-family="Helvetica,sans-Serif" font-size="10.00">concepts</text>
</a>
</g>
</g>
<!-- Node1&#45;&gt;Node22 -->
<g id="edge62_Node000001_Node000022" class="edge">
<title>Node1&#45;&gt;Node22</title>
<g id="a_edge62_Node000001_Node000022"><a xlink:title=" ">
<path fill="none" stroke="#63b8ff" d="M1001.12,-334.38C1068.55,-307.29 1203.47,-253.09 1267.17,-227.49"/>
<polygon fill="#63b8ff" stroke="#63b8ff" points="1268.46,-230.75 1276.44,-223.77 1265.85,-224.25 1268.46,-230.75"/>
</a>
</g>
</g>
<!-- Node25 -->
<g id="Node000025" class="node">
<title>Node25</title>
<g id="a_Node000025"><a xlink:href="utilities_8h.html" target="_top" xlink:title=" ">
<polygon fill="white" stroke="#666666" points="1984.25,-229.25 1885.75,-229.25 1885.75,-195.75 1984.25,-195.75 1984.25,-229.25"/>
<text text-anchor="start" x="1893.75" y="-215.75" font-family="Helvetica,sans-Serif" font-size="10.00">prismspf/utilities</text>
<text text-anchor="middle" x="1935" y="-203" font-family="Helvetica,sans-Serif" font-size="10.00">/utilities.h</text>
</a>
</g>
</g>
<!-- Node1&#45;&gt;Node25 -->
<g id="edge39_Node000001_Node000025" class="edge">
<title>Node1&#45;&gt;Node25</title>
<g id="a_edge39_Node000001_Node000025"><a xlink:title=" ">
<path fill="none" stroke="#63b8ff" d="M1028.23,-343.04C1112.26,-333.55 1260.44,-316.28 1387,-298.75 1564.47,-274.17 1773.47,-240.28 1874.41,-223.6"/>
<polygon fill="#63b8ff" stroke="#63b8ff" points="1874.8,-227.09 1884.09,-222 1873.66,-220.18 1874.8,-227.09"/>
</a>
</g>
</g>
<!-- Node37 -->
<g id="Node000037" class="node">
<title>Node37</title>
<g id="a_Node000037"><a xlink:title=" ">
<polygon fill="#e0e0e0" stroke="#999999" points="2963.25,-153.38 2870.75,-153.38 2870.75,-132.62 2963.25,-132.62 2963.25,-153.38"/>
<text text-anchor="middle" x="2917" y="-139.88" font-family="Helvetica,sans-Serif" font-size="10.00">unordered_map</text>
</a>
</g>
</g>
<!-- Node1&#45;&gt;Node37 -->
<g id="edge66_Node000001_Node000037" class="edge">
<title>Node1&#45;&gt;Node37</title>
<g id="a_edge66_Node000001_Node000037"><a xlink:title=" ">
<path fill="none" stroke="#63b8ff" d="M1028.27,-344.41C1132.39,-334.94 1338.87,-315.97 1514,-298.75 2113.4,-239.8 2270.64,-273.99 2862,-159.75 2866.37,-158.91 2870.9,-157.87 2875.4,-156.75"/>
<polygon fill="#63b8ff" stroke="#63b8ff" points="2876.18,-160.16 2884.93,-154.19 2874.37,-153.4 2876.18,-160.16"/>
</a>
</g>
</g>
<!-- Node38 -->
<g id="Node000038" class="node">
<title>Node38</title>
<g id="a_Node000038"><a xlink:title=" ">
<polygon fill="#e0e0e0" stroke="#999999" points="2742.5,-292.38 2693.5,-292.38 2693.5,-271.62 2742.5,-271.62 2742.5,-292.38"/>
<text text-anchor="middle" x="2718" y="-278.88" font-family="Helvetica,sans-Serif" font-size="10.00">climits</text>
</a>
</g>
</g>
<!-- Node1&#45;&gt;Node38 -->
<g id="edge61_Node000001_Node000038" class="edge">
<title>Node1&#45;&gt;Node38</title>
<g id="a_edge61_Node000001_Node000038"><a xlink:title=" ">
<path fill="none" stroke="#63b8ff" d="M1028.15,-349.88C1325.43,-346.92 2515.65,-333.05 2679,-298.75 2681.65,-298.19 2684.36,-297.47 2687.04,-296.63"/>
<polygon fill="#63b8ff" stroke="#63b8ff" points="2688.15,-299.95 2696.36,-293.26 2685.76,-293.37 2688.15,-299.95"/>
</a>
</g>
</g>
<!-- Node39 -->
<g id="Node000039" class="node">
<title>Node39</title>
<g id="a_Node000039"><a xlink:title=" ">
<polygon fill="#e0e0e0" stroke="#999999" points="2823.62,-292.38 2760.38,-292.38 2760.38,-271.62 2823.62,-271.62 2823.62,-292.38"/>
<text text-anchor="middle" x="2792" y="-278.88" font-family="Helvetica,sans-Serif" font-size="10.00">execution</text>
</a>
</g>
</g>
<!-- Node1&#45;&gt;Node39 -->
<g id="edge63_Node000001_Node000039" class="edge">
<title>Node1&#45;&gt;Node39</title>
<g id="a_edge63_Node000001_Node000039"><a xlink:title=" ">
<path fill="none" stroke="#63b8ff" d="M1028.16,-349.93C1333.24,-347.16 2581.01,-333.77 2752,-298.75 2754.81,-298.17 2757.69,-297.41 2760.54,-296.54"/>
<polygon fill="#63b8ff" stroke="#63b8ff" points="2761.56,-299.89 2769.82,-293.25 2759.22,-293.29 2761.56,-299.89"/>
</a>
</g>
</g>
<!-- Node40 -->
<g id="Node000040" class="node">
<title>Node40</title>
<g id="a_Node000040"><a xlink:title=" ">
<polygon fill="#e0e0e0" stroke="#999999" points="2872.5,-292.38 2841.5,-292.38 2841.5,-271.62 2872.5,-271.62 2872.5,-292.38"/>
<text text-anchor="middle" x="2857" y="-278.88" font-family="Helvetica,sans-Serif" font-size="10.00">set</text>
</a>
</g>
</g>
<!-- Node1&#45;&gt;Node40 -->
<g id="edge64_Node000001_Node000040" class="edge">
<title>Node1&#45;&gt;Node40</title>
<g id="a_edge64_Node000001_Node000040"><a xlink:title=" ">
<path fill="none" stroke="#63b8ff" d="M1028.24,-350.81C1342.48,-351.99 2658.37,-353.57 2833,-298.75 2833.65,-298.54 2834.31,-298.32 2834.96,-298.07"/>
<polygon fill="#63b8ff" stroke="#63b8ff" points="2836.44,-301.24 2843.63,-293.46 2833.15,-295.06 2836.44,-301.24"/>
</a>
</g>
</g>
<!-- Node8 -->
<g id="Node000008" class="node">
<title>Node8</title>
<g id="a_Node000008"><a xlink:title=" ">
<polygon fill="#e0e0e0" stroke="#999999" points="270.62,-229.25 141.38,-229.25 141.38,-195.75 270.62,-195.75 270.62,-229.25"/>
<text text-anchor="start" x="149.38" y="-215.75" font-family="Helvetica,sans-Serif" font-size="10.00">deal.II/base/conditional</text>
<text text-anchor="middle" x="206" y="-203" font-family="Helvetica,sans-Serif" font-size="10.00">_ostream.h</text>
</a>
</g>
</g>
<!-- Node7&#45;&gt;Node8 -->
<g id="edge7_Node000007_Node000008" class="edge">
<title>Node7&#45;&gt;Node8</title>
<g id="a_edge7_Node000007_Node000008"><a xlink:title=" ">
<path fill="none" stroke="#63b8ff" d="M206,-265C206,-257.77 206,-249.03 206,-240.81"/>
<polygon fill="#63b8ff" stroke="#63b8ff" points="209.5,-240.9 206,-230.9 202.5,-240.9 209.5,-240.9"/>
</a>
</g>
</g>
<!-- Node7&#45;&gt;Node9 -->
<g id="edge8_Node000007_Node000009" class="edge">
<title>Node7&#45;&gt;Node9</title>
<g id="a_edge8_Node000007_Node000009"><a xlink:title=" ">
<path fill="none" stroke="#63b8ff" d="M232.54,-264.78C247.2,-255.25 265.36,-242.51 280,-229.25 354.87,-161.44 339.65,-105.72 428,-56.75 467.69,-34.75 590.13,-21.77 665.45,-15.66"/>
<polygon fill="#63b8ff" stroke="#63b8ff" points="665.46,-19.17 675.16,-14.89 664.91,-12.19 665.46,-19.17"/>
</a>
</g>
</g>
<!-- Node10&#45;&gt;Node9 -->
<g id="edge18_Node000010_Node000009" class="edge">
<title>Node10&#45;&gt;Node9</title>
<g id="a_edge18_Node000010_Node000009"><a xlink:title=" ">
<path fill="none" stroke="#63b8ff" d="M543.66,-201.64C543.28,-174.61 546.02,-98.63 586,-56.75 606.68,-35.09 637.72,-23.75 665.42,-17.82"/>
<polygon fill="#63b8ff" stroke="#63b8ff" points="666,-21.27 675.16,-15.95 664.68,-14.39 666,-21.27"/>
</a>
</g>
</g>
<!-- Node11 -->
<g id="Node000011" class="node">
<title>Node11</title>
<g id="a_Node000011"><a xlink:title=" ">
<polygon fill="#e0e0e0" stroke="#999999" points="1113.75,-153.38 976.25,-153.38 976.25,-132.62 1113.75,-132.62 1113.75,-153.38"/>
<text text-anchor="middle" x="1045" y="-139.88" font-family="Helvetica,sans-Serif" font-size="10.00">deal.II/base/exceptions.h</text>
</a>
</g>
</g>
<!-- Node10&#45;&gt;Node11 -->
<g id="edge10_Node000010_Node000011" class="edge">
<title>Node10&#45;&gt;Node11</title>
<g id="a_edge10_Node000010_Node000011"><a xlink:title=" ">
<path fill="none" stroke="#63b8ff" d="M617.12,-201.65C709.64,-189.18 868.45,-167.79 964.39,-154.86"/>
<polygon fill="#63b8ff" stroke="#63b8ff" points="964.83,-158.33 974.27,-153.53 963.9,-151.4 964.83,-158.33"/>
</a>
</g>
</g>
<!-- Node10&#45;&gt;Node12 -->
<g id="edge11_Node000010_Node000012" class="edge">
<title>Node10&#45;&gt;Node12</title>
<g id="a_edge11_Node000010_Node000012"><a xlink:title=" ">
<path fill="none" stroke="#63b8ff" d="M570.61,-201.68C602.05,-190.09 654.56,-170.72 689.96,-157.66"/>
<polygon fill="#63b8ff" stroke="#63b8ff" points="690.77,-161.1 698.94,-154.35 688.34,-154.53 690.77,-161.1"/>
</a>
</g>
</g>
<!-- Node17 -->
<g id="Node000017" class="node">
<title>Node17</title>
<g id="a_Node000017"><a xlink:title=" ">
<polygon fill="#e0e0e0" stroke="#999999" points="534,-153.38 470,-153.38 470,-132.62 534,-132.62 534,-153.38"/>
<text text-anchor="middle" x="502" y="-139.88" font-family="Helvetica,sans-Serif" font-size="10.00">exception</text>
</a>
</g>
</g>
<!-- Node10&#45;&gt;Node17 -->
<g id="edge19_Node000010_Node000017" class="edge">
<title>Node10&#45;&gt;Node17</title>
<g id="a_edge19_Node000010_Node000017"><a xlink:title=" ">
<path fill="none" stroke="#63b8ff" d="M537.98,-201.83C531.74,-191.8 521.83,-175.87 513.98,-163.26"/>
<polygon fill="#63b8ff" stroke="#63b8ff" points="517.06,-161.58 508.81,-154.94 511.12,-165.28 517.06,-161.58"/>
</a>
</g>
</g>
<!-- Node12&#45;&gt;Node9 -->
<g id="edge17_Node000012_Node000009" class="edge">
<title>Node12&#45;&gt;Node9</title>
<g id="a_edge17_Node000012_Node000009"><a xlink:title=" ">
<path fill="none" stroke="#63b8ff" d="M727,-132.18C727,-111.09 727,-61.03 727,-32.41"/>
<polygon fill="#63b8ff" stroke="#63b8ff" points="730.5,-32.47 727,-22.47 723.5,-32.47 730.5,-32.47"/>
</a>
</g>
</g>
<!-- Node13 -->
<g id="Node000013" class="node">
<title>Node13</title>
<g id="a_Node000013"><a xlink:title=" ">
<polygon fill="#e0e0e0" stroke="#999999" points="1064.12,-90.25 955.88,-90.25 955.88,-56.75 1064.12,-56.75 1064.12,-90.25"/>
<text text-anchor="start" x="963.88" y="-76.75" font-family="Helvetica,sans-Serif" font-size="10.00">deal.II/matrix_free</text>
<text text-anchor="middle" x="1010" y="-64" font-family="Helvetica,sans-Serif" font-size="10.00">/evaluation_flags.h</text>
</a>
</g>
</g>
<!-- Node12&#45;&gt;Node13 -->
<g id="edge12_Node000012_Node000013" class="edge">
<title>Node12&#45;&gt;Node13</title>
<g id="a_edge12_Node000012_Node000013"><a xlink:title=" ">
<path fill="none" stroke="#63b8ff" d="M769.63,-132.16C811.64,-122.42 877.96,-106.93 944.3,-90.89"/>
<polygon fill="#63b8ff" stroke="#63b8ff" points="945.01,-94.32 953.9,-88.56 943.36,-87.52 945.01,-94.32"/>
</a>
</g>
</g>
<!-- Node12&#45;&gt;Node14 -->
<g id="edge13_Node000012_Node000014" class="edge">
<title>Node12&#45;&gt;Node14</title>
<g id="a_edge13_Node000012_Node000014"><a xlink:title=" ">
<path fill="none" stroke="#63b8ff" d="M749.83,-132.18C772.33,-122.51 807.39,-107.44 836.03,-95.12"/>
<polygon fill="#63b8ff" stroke="#63b8ff" points="837.06,-98.49 844.86,-91.33 834.3,-92.06 837.06,-98.49"/>
</a>
</g>
</g>
<!-- Node14&#45;&gt;Node9 -->
<g id="edge14_Node000014_Node000009" class="edge">
<title>Node14&#45;&gt;Node9</title>
<g id="a_edge14_Node000014_Node000009"><a xlink:title=" ">
<path fill="none" stroke="#63b8ff" d="M842.34,-56.28C817.56,-46.63 786.44,-34.52 762.77,-25.3"/>
<polygon fill="#63b8ff" stroke="#63b8ff" points="764.14,-22.08 753.56,-21.71 761.61,-28.6 764.14,-22.08"/>
</a>
</g>
</g>
<!-- Node15 -->
<g id="Node000015" class="node">
<title>Node15</title>
<g id="a_Node000015"><a xlink:title=" ">
<polygon fill="#e0e0e0" stroke="#999999" points="908.5,-20.75 859.5,-20.75 859.5,0 908.5,0 908.5,-20.75"/>
<text text-anchor="middle" x="884" y="-7.25" font-family="Helvetica,sans-Serif" font-size="10.00">cstdint</text>
</a>
</g>
</g>
<!-- Node14&#45;&gt;Node15 -->
<g id="edge15_Node000014_Node000015" class="edge">
<title>Node14&#45;&gt;Node15</title>
<g id="a_edge15_Node000014_Node000015"><a xlink:title=" ">
<path fill="none" stroke="#63b8ff" d="M884,-56.44C884,-49.1 884,-40.32 884,-32.46"/>
<polygon fill="#63b8ff" stroke="#63b8ff" points="887.5,-32.73 884,-22.73 880.5,-32.73 887.5,-32.73"/>
</a>
</g>
</g>
<!-- Node14&#45;&gt;Node16 -->
<g id="edge16_Node000014_Node000016" class="edge">
<title>Node14&#45;&gt;Node16</title>
<g id="a_edge16_Node000014_Node000016"><a xlink:title=" ">
<path fill="none" stroke="#63b8ff" d="M938.24,-58.68C941.2,-58.01 944.13,-57.36 947,-56.75 1027.44,-39.67 1122.93,-24.16 1172.45,-16.47"/>
<polygon fill="#63b8ff" stroke="#63b8ff" points="1172.88,-19.94 1182.23,-14.96 1171.81,-13.02 1172.88,-19.94"/>
</a>
</g>
</g>
<!-- Node18&#45;&gt;Node3 -->
<g id="edge23_Node000018_Node000003" class="edge">
<title>Node18&#45;&gt;Node3</title>
<g id="a_edge23_Node000018_Node000003"><a xlink:title=" ">
<path fill="none" stroke="#63b8ff" d="M955.99,-264.83C921.97,-255.18 878.57,-242.87 842.79,-232.73"/>
<polygon fill="#63b8ff" stroke="#63b8ff" points="843.99,-229.43 833.41,-230.07 842.08,-236.16 843.99,-229.43"/>
</a>
</g>
</g>
<!-- Node18&#45;&gt;Node9 -->
<g id="edge33_Node000018_Node000009" class="edge">
<title>Node18&#45;&gt;Node9</title>
<g id="a_edge33_Node000018_Node000009"><a xlink:title=" ">
<path fill="none" stroke="#63b8ff" d="M962.67,-264.75C938.59,-255.93 909.87,-243.83 886,-229.25 866.5,-217.34 867.59,-205.66 847,-195.75 769.55,-158.48 711.83,-225.94 657,-159.75 622.93,-118.62 676.32,-58.15 707.33,-28.73"/>
<polygon fill="#63b8ff" stroke="#63b8ff" points="709.65,-31.35 714.64,-22 704.91,-26.2 709.65,-31.35"/>
</a>
</g>
</g>
<!-- Node18&#45;&gt;Node12 -->
<g id="edge32_Node000018_Node000012" class="edge">
<title>Node18&#45;&gt;Node12</title>
<g id="a_edge32_Node000018_Node000012"><a xlink:title=" ">
<path fill="none" stroke="#63b8ff" d="M1006.05,-264.75C996.83,-245.24 978.69,-213 953,-195.75 945.93,-191 849.47,-169.92 784.88,-156.17"/>
<polygon fill="#63b8ff" stroke="#63b8ff" points="786,-152.83 775.49,-154.18 784.54,-159.68 786,-152.83"/>
</a>
</g>
</g>
<!-- Node18&#45;&gt;Node16 -->
<g id="edge36_Node000018_Node000016" class="edge">
<title>Node18&#45;&gt;Node16</title>
<g id="a_edge36_Node000018_Node000016"><a xlink:title=" ">
<path fill="none" stroke="#63b8ff" d="M1072.2,-265.01C1095.02,-256.86 1120.31,-245.22 1140,-229.25 1168.96,-205.76 1173.83,-194.64 1187,-159.75 1203.3,-116.58 1206.13,-61.85 1206.33,-32.41"/>
<polygon fill="#63b8ff" stroke="#63b8ff" points="1209.83,-32.62 1206.29,-22.63 1202.83,-32.65 1209.83,-32.62"/>
</a>
</g>
</g>
<!-- Node19 -->
<g id="Node000019" class="node">
<title>Node19</title>
<g id="a_Node000019"><a xlink:href="field__attributes_8h.html" target="_top" xlink:title=" ">
<polygon fill="white" stroke="#666666" points="1106.38,-229.25 999.62,-229.25 999.62,-195.75 1106.38,-195.75 1106.38,-229.25"/>
<text text-anchor="start" x="1007.62" y="-215.75" font-family="Helvetica,sans-Serif" font-size="10.00">prismspf/core/field</text>
<text text-anchor="middle" x="1053" y="-203" font-family="Helvetica,sans-Serif" font-size="10.00">_attributes.h</text>
</a>
</g>
</g>
<!-- Node18&#45;&gt;Node19 -->
<g id="edge24_Node000018_Node000019" class="edge">
<title>Node18&#45;&gt;Node19</title>
<g id="a_edge24_Node000018_Node000019"><a xlink:title=" ">
<path fill="none" stroke="#63b8ff" d="M1022.48,-265C1027.06,-257.27 1032.68,-247.8 1037.83,-239.09"/>
<polygon fill="#63b8ff" stroke="#63b8ff" points="1040.73,-241.07 1042.82,-230.68 1034.71,-237.5 1040.73,-241.07"/>
</a>
</g>
</g>
<!-- Node21 -->
<g id="Node000021" class="node">
<title>Node21</title>
<g id="a_Node000021"><a xlink:title=" ">
<polygon fill="#e0e0e0" stroke="#999999" points="1178.38,-153.38 1131.62,-153.38 1131.62,-132.62 1178.38,-132.62 1178.38,-153.38"/>
<text text-anchor="middle" x="1155" y="-139.88" font-family="Helvetica,sans-Serif" font-size="10.00">vector</text>
</a>
</g>
</g>
<!-- Node18&#45;&gt;Node21 -->
<g id="edge38_Node000018_Node000021" class="edge">
<title>Node18&#45;&gt;Node21</title>
<g id="a_edge38_Node000018_Node000021"><a xlink:title=" ">
<path fill="none" stroke="#63b8ff" d="M1060.37,-264.78C1079.2,-256.48 1099.93,-244.79 1115,-229.25 1132.74,-210.96 1143.7,-183.34 1149.57,-164.53"/>
<polygon fill="#63b8ff" stroke="#63b8ff" points="1152.89,-165.66 1152.29,-155.09 1146.16,-163.73 1152.89,-165.66"/>
</a>
</g>
</g>
<!-- Node18&#45;&gt;Node22 -->
<g id="edge34_Node000018_Node000022" class="edge">
<title>Node18&#45;&gt;Node22</title>
<g id="a_edge34_Node000018_Node000022"><a xlink:title=" ">
<path fill="none" stroke="#63b8ff" d="M1072.46,-270.78C1122.42,-261.63 1195.47,-246.96 1258,-229.25 1260.57,-228.52 1263.2,-227.72 1265.85,-226.88"/>
<polygon fill="#63b8ff" stroke="#63b8ff" points="1266.81,-230.25 1275.16,-223.74 1264.57,-223.62 1266.81,-230.25"/>
</a>
</g>
</g>
<!-- Node23 -->
<g id="Node000023" class="node">
<title>Node23</title>
<g id="a_Node000023"><a xlink:title=" ">
<polygon fill="#e0e0e0" stroke="#999999" points="943.5,-222.88 894.5,-222.88 894.5,-202.12 943.5,-202.12 943.5,-222.88"/>
<text text-anchor="middle" x="919" y="-209.38" font-family="Helvetica,sans-Serif" font-size="10.00">ranges</text>
</a>
</g>
</g>
<!-- Node18&#45;&gt;Node23 -->
<g id="edge35_Node000018_Node000023" class="edge">
<title>Node18&#45;&gt;Node23</title>
<g id="a_edge35_Node000018_Node000023"><a xlink:title=" ">
<path fill="none" stroke="#63b8ff" d="M990.72,-265C975.94,-254.39 956.59,-240.49 941.71,-229.81"/>
<polygon fill="#63b8ff" stroke="#63b8ff" points="944.07,-227.19 933.91,-224.2 939.99,-232.88 944.07,-227.19"/>
</a>
</g>
</g>
<!-- Node24 -->
<g id="Node000024" class="node">
<title>Node24</title>
<g id="a_Node000024"><a xlink:title=" ">
<polygon fill="#e0e0e0" stroke="#999999" points="1306.12,-153.38 1233.88,-153.38 1233.88,-132.62 1306.12,-132.62 1306.12,-153.38"/>
<text text-anchor="middle" x="1270" y="-139.88" font-family="Helvetica,sans-Serif" font-size="10.00">string_view</text>
</a>
</g>
</g>
<!-- Node18&#45;&gt;Node24 -->
<g id="edge37_Node000018_Node000024" class="edge">
<title>Node18&#45;&gt;Node24</title>
<g id="a_edge37_Node000018_Node000024"><a xlink:title=" ">
<path fill="none" stroke="#63b8ff" d="M1072.21,-278.36C1116.72,-273.68 1177.15,-261.33 1220,-229.25 1241.84,-212.9 1255.84,-183.97 1263.31,-164.4"/>
<polygon fill="#63b8ff" stroke="#63b8ff" points="1266.58,-165.64 1266.63,-155.04 1259.99,-163.3 1266.58,-165.64"/>
</a>
</g>
</g>
<!-- Node19&#45;&gt;Node9 -->
<g id="edge28_Node000019_Node000009" class="edge">
<title>Node19&#45;&gt;Node9</title>
<g id="a_edge28_Node000019_Node000009"><a xlink:title=" ">
<path fill="none" stroke="#63b8ff" d="M999.39,-199.25C935.98,-184.7 838.49,-162.07 835,-159.75 785.87,-127.04 751.29,-63.98 735.93,-31.61"/>
<polygon fill="#63b8ff" stroke="#63b8ff" points="739.13,-30.2 731.78,-22.57 732.77,-33.12 739.13,-30.2"/>
</a>
</g>
</g>
<!-- Node19&#45;&gt;Node11 -->
<g id="edge25_Node000019_Node000011" class="edge">
<title>Node19&#45;&gt;Node11</title>
<g id="a_edge25_Node000019_Node000011"><a xlink:title=" ">
<path fill="none" stroke="#63b8ff" d="M1051.1,-195.5C1050.03,-186.4 1048.66,-174.89 1047.5,-165.07"/>
<polygon fill="#63b8ff" stroke="#63b8ff" points="1050.99,-164.84 1046.34,-155.32 1044.04,-165.67 1050.99,-164.84"/>
</a>
</g>
</g>
<!-- Node19&#45;&gt;Node12 -->
<g id="edge27_Node000019_Node000012" class="edge">
<title>Node19&#45;&gt;Node12</title>
<g id="a_edge27_Node000019_Node000012"><a xlink:title=" ">
<path fill="none" stroke="#63b8ff" d="M999.28,-198.68C994.79,-197.67 990.32,-196.68 986,-195.75 904.54,-178.21 883.67,-176.31 802,-159.75 796.36,-158.61 790.48,-157.4 784.61,-156.18"/>
<polygon fill="#63b8ff" stroke="#63b8ff" points="785.37,-152.77 774.87,-154.15 783.95,-159.62 785.37,-152.77"/>
</a>
</g>
</g>
<!-- Node19&#45;&gt;Node14 -->
<g id="edge26_Node000019_Node000014" class="edge">
<title>Node19&#45;&gt;Node14</title>
<g id="a_edge26_Node000019_Node000014"><a xlink:title=" ">
<path fill="none" stroke="#63b8ff" d="M999.13,-196.24C977.12,-188.06 952.54,-176.19 934,-159.75 915.95,-143.75 902.64,-119.6 894.31,-101.09"/>
<polygon fill="#63b8ff" stroke="#63b8ff" points="897.61,-99.9 890.47,-92.07 891.17,-102.65 897.61,-99.9"/>
</a>
</g>
</g>
<!-- Node19&#45;&gt;Node16 -->
<g id="edge30_Node000019_Node000016" class="edge">
<title>Node19&#45;&gt;Node16</title>
<g id="a_edge30_Node000019_Node000016"><a xlink:title=" ">
<path fill="none" stroke="#63b8ff" d="M1007.93,-195.35C992.09,-187.25 976,-175.68 967,-159.75 959.67,-146.79 958.33,-138.35 967,-126.25 995.98,-85.81 1027.8,-111.05 1073,-90.25 1113.04,-71.82 1156.44,-44.58 1182.41,-27.42"/>
<polygon fill="#63b8ff" stroke="#63b8ff" points="1184.15,-30.46 1190.52,-22 1180.26,-24.64 1184.15,-30.46"/>
</a>
</g>
</g>
<!-- Node20 -->
<g id="Node000020" class="node">
<title>Node20</title>
<g id="a_Node000020"><a xlink:title=" ">
<polygon fill="#e0e0e0" stroke="#999999" points="881.88,-153.38 844.12,-153.38 844.12,-132.62 881.88,-132.62 881.88,-153.38"/>
<text text-anchor="middle" x="863" y="-139.88" font-family="Helvetica,sans-Serif" font-size="10.00">map</text>
</a>
</g>
</g>
<!-- Node19&#45;&gt;Node20 -->
<g id="edge29_Node000019_Node000020" class="edge">
<title>Node19&#45;&gt;Node20</title>
<g id="a_edge29_Node000019_Node000020"><a xlink:title=" ">
<path fill="none" stroke="#63b8ff" d="M999.35,-195.67C968.73,-186.17 929.82,-173.33 896,-159.75 894.88,-159.3 893.75,-158.83 892.6,-158.35"/>
<polygon fill="#63b8ff" stroke="#63b8ff" points="894.3,-155.27 883.74,-154.36 891.43,-161.66 894.3,-155.27"/>
</a>
</g>
</g>
<!-- Node19&#45;&gt;Node21 -->
<g id="edge31_Node000019_Node000021" class="edge">
<title>Node19&#45;&gt;Node21</title>
<g id="a_edge31_Node000019_Node000021"><a xlink:title=" ">
<path fill="none" stroke="#63b8ff" d="M1077.43,-195.33C1093.64,-184.61 1114.8,-170.6 1130.93,-159.93"/>
<polygon fill="#63b8ff" stroke="#63b8ff" points="1132.56,-163.04 1138.97,-154.61 1128.7,-157.21 1132.56,-163.04"/>
</a>
</g>
</g>
<!-- Node25&#45;&gt;Node5 -->
<g id="edge47_Node000025_Node000005" class="edge">
<title>Node25&#45;&gt;Node5</title>
<g id="a_edge47_Node000025_Node000005"><a xlink:title=" ">
<path fill="none" stroke="#63b8ff" d="M1885.55,-207.73C1798.97,-200.76 1614.43,-184.32 1460,-159.75 1453.27,-158.68 1446.23,-157.41 1439.27,-156.06"/>
<polygon fill="#63b8ff" stroke="#63b8ff" points="1440.07,-152.65 1429.58,-154.11 1438.69,-159.51 1440.07,-152.65"/>
</a>
</g>
</g>
<!-- Node25&#45;&gt;Node9 -->
<g id="edge56_Node000025_Node000009" class="edge">
<title>Node25&#45;&gt;Node9</title>
<g id="a_edge56_Node000025_Node000009"><a xlink:title=" ">
<path fill="none" stroke="#63b8ff" d="M1885.36,-208.63C1791.91,-202.66 1593.6,-187.13 1531,-159.75 1509.75,-150.46 1512.4,-135.18 1491,-126.25 1332.39,-60.08 1261.26,-163.93 1106,-90.25 1087.12,-81.29 1091.71,-66.06 1073,-56.75 1048.1,-44.36 880.96,-26.41 788.41,-17.24"/>
<polygon fill="#63b8ff" stroke="#63b8ff" points="789.03,-13.78 778.74,-16.29 788.35,-20.75 789.03,-13.78"/>
</a>
</g>
</g>
<!-- Node25&#45;&gt;Node11 -->
<g id="edge41_Node000025_Node000011" class="edge">
<title>Node25&#45;&gt;Node11</title>
<g id="a_edge41_Node000025_Node000011"><a xlink:title=" ">
<path fill="none" stroke="#63b8ff" d="M1885.34,-210.68C1758.08,-208.06 1410.08,-197.7 1123,-159.75 1115.27,-158.73 1107.16,-157.39 1099.22,-155.93"/>
<polygon fill="#63b8ff" stroke="#63b8ff" points="1100.11,-152.54 1089.63,-154.08 1098.79,-159.41 1100.11,-152.54"/>
</a>
</g>
</g>
<!-- Node25&#45;&gt;Node13 -->
<g id="edge49_Node000025_Node000013" class="edge">
<title>Node25&#45;&gt;Node13</title>
<g id="a_edge49_Node000025_Node000013"><a xlink:title=" ">
<path fill="none" stroke="#63b8ff" d="M1885.27,-208.97C1786.06,-203.38 1567.16,-188.17 1498,-159.75 1475.59,-150.54 1477.51,-135.2 1455,-126.25 1298.6,-64.05 1244.13,-117.3 1078,-90.25 1077.17,-90.11 1076.34,-89.98 1075.5,-89.83"/>
<polygon fill="#63b8ff" stroke="#63b8ff" points="1076.39,-86.44 1065.92,-88.05 1075.11,-93.32 1076.39,-86.44"/>
</a>
</g>
</g>
<!-- Node25&#45;&gt;Node16 -->
<g id="edge57_Node000025_Node000016" class="edge">
<title>Node25&#45;&gt;Node16</title>
<g id="a_edge57_Node000025_Node000016"><a xlink:title=" ">
<path fill="none" stroke="#63b8ff" d="M1984.48,-209.63C2098.24,-204.81 2370.77,-190.19 2398,-159.75 2407.93,-148.65 2407.43,-137.77 2398,-126.25 2322.46,-34.03 1425.55,-14.85 1239.61,-11.85"/>
<polygon fill="#63b8ff" stroke="#63b8ff" points="1239.74,-8.35 1229.69,-11.7 1239.63,-15.35 1239.74,-8.35"/>
</a>
</g>
</g>
<!-- Node25&#45;&gt;Node24 -->
<g id="edge58_Node000025_Node000024" class="edge">
<title>Node25&#45;&gt;Node24</title>
<g id="a_edge58_Node000025_Node000024"><a xlink:title=" ">
<path fill="none" stroke="#63b8ff" d="M1885.46,-211.47C1779.69,-210.52 1524.45,-203.45 1316,-159.75 1312.64,-159.05 1309.18,-158.17 1305.75,-157.19"/>
<polygon fill="#63b8ff" stroke="#63b8ff" points="1307.03,-153.92 1296.44,-154.26 1304.93,-160.6 1307.03,-153.92"/>
</a>
</g>
</g>
<!-- Node26 -->
<g id="Node000026" class="node">
<title>Node26</title>
<g id="a_Node000026"><a xlink:title=" ">
<polygon fill="#e0e0e0" stroke="#999999" points="2700.75,-153.38 2587.25,-153.38 2587.25,-132.62 2700.75,-132.62 2700.75,-153.38"/>
<text text-anchor="middle" x="2644" y="-139.88" font-family="Helvetica,sans-Serif" font-size="10.00">deal.II/base/config.h</text>
</a>
</g>
</g>
<!-- Node25&#45;&gt;Node26 -->
<g id="edge40_Node000025_Node000026" class="edge">
<title>Node25&#45;&gt;Node26</title>
<g id="a_edge40_Node000025_Node000026"><a xlink:title=" ">
<path fill="none" stroke="#63b8ff" d="M1984.51,-210.11C2092.78,-206.51 2358.44,-194.57 2578,-159.75 2583.96,-158.8 2590.18,-157.61 2596.32,-156.29"/>
<polygon fill="#63b8ff" stroke="#63b8ff" points="2596.74,-159.79 2605.72,-154.17 2595.2,-152.96 2596.74,-159.79"/>
</a>
</g>
</g>
<!-- Node27 -->
<g id="Node000027" class="node">
<title>Node27</title>
<g id="a_Node000027"><a xlink:title=" ">
<polygon fill="#e0e0e0" stroke="#999999" points="2852.88,-153.38 2719.12,-153.38 2719.12,-132.62 2852.88,-132.62 2852.88,-153.38"/>
<text text-anchor="middle" x="2786" y="-139.88" font-family="Helvetica,sans-Serif" font-size="10.00">deal.II/base/logstream.h</text>
</a>
</g>
</g>
<!-- Node25&#45;&gt;Node27 -->
<g id="edge42_Node000025_Node000027" class="edge">
<title>Node25&#45;&gt;Node27</title>
<g id="a_edge42_Node000025_Node000027"><a xlink:title=" ">
<path fill="none" stroke="#63b8ff" d="M1984.65,-210.55C2107.95,-207.68 2437.77,-196.87 2710,-159.75 2717.27,-158.76 2724.89,-157.48 2732.37,-156.07"/>
<polygon fill="#63b8ff" stroke="#63b8ff" points="2732.95,-159.53 2742.09,-154.16 2731.6,-152.66 2732.95,-159.53"/>
</a>
</g>
</g>
<!-- Node28 -->
<g id="Node000028" class="node">
<title>Node28</title>
<g id="a_Node000028"><a xlink:title=" ">
<polygon fill="#e0e0e0" stroke="#999999" points="1797.5,-153.38 1694.5,-153.38 1694.5,-132.62 1797.5,-132.62 1797.5,-153.38"/>
<text text-anchor="middle" x="1746" y="-139.88" font-family="Helvetica,sans-Serif" font-size="10.00">deal.II/base/mpi.h</text>
</a>
</g>
</g>
<!-- Node25&#45;&gt;Node28 -->
<g id="edge43_Node000025_Node000028" class="edge">
<title>Node25&#45;&gt;Node28</title>
<g id="a_edge43_Node000025_Node000028"><a xlink:title=" ">
<path fill="none" stroke="#63b8ff" d="M1889.73,-195.33C1857.54,-183.83 1814.77,-168.56 1784.27,-157.67"/>
<polygon fill="#63b8ff" stroke="#63b8ff" points="1785.65,-154.45 1775.06,-154.38 1783.3,-161.04 1785.65,-154.45"/>
</a>
</g>
</g>
<!-- Node29 -->
<g id="Node000029" class="node">
<title>Node29</title>
<g id="a_Node000029"><a xlink:title=" ">
<polygon fill="#e0e0e0" stroke="#999999" points="1924.5,-153.38 1815.5,-153.38 1815.5,-132.62 1924.5,-132.62 1924.5,-153.38"/>
<text text-anchor="middle" x="1870" y="-139.88" font-family="Helvetica,sans-Serif" font-size="10.00">deal.II/base/point.h</text>
</a>
</g>
</g>
<!-- Node25&#45;&gt;Node29 -->
<g id="edge44_Node000025_Node000029" class="edge">
<title>Node25&#45;&gt;Node29</title>
<g id="a_edge44_Node000025_Node000029"><a xlink:title=" ">
<path fill="none" stroke="#63b8ff" d="M1919.6,-195.5C1909.86,-185.39 1897.26,-172.31 1887.2,-161.86"/>
<polygon fill="#63b8ff" stroke="#63b8ff" points="1889.97,-159.69 1880.51,-154.91 1884.92,-164.54 1889.97,-159.69"/>
</a>
</g>
</g>
<!-- Node30 -->
<g id="Node000030" class="node">
<title>Node30</title>
<g id="a_Node000030"><a xlink:title=" ">
<polygon fill="#e0e0e0" stroke="#999999" points="2057.12,-153.38 1942.88,-153.38 1942.88,-132.62 2057.12,-132.62 2057.12,-153.38"/>
<text text-anchor="middle" x="2000" y="-139.88" font-family="Helvetica,sans-Serif" font-size="10.00">deal.II/base/tensor.h</text>
</a>
</g>
</g>
<!-- Node25&#45;&gt;Node30 -->
<g id="edge45_Node000025_Node000030" class="edge">
<title>Node25&#45;&gt;Node30</title>
<g id="a_edge45_Node000025_Node000030"><a xlink:title=" ">
<path fill="none" stroke="#63b8ff" d="M1950.4,-195.5C1960.14,-185.39 1972.74,-172.31 1982.8,-161.86"/>
<polygon fill="#63b8ff" stroke="#63b8ff" points="1985.08,-164.54 1989.49,-154.91 1980.03,-159.69 1985.08,-164.54"/>
</a>
</g>
</g>
<!-- Node31 -->
<g id="Node000031" class="node">
<title>Node31</title>
<g id="a_Node000031"><a xlink:title=" ">
<polygon fill="#e0e0e0" stroke="#999999" points="2186.62,-153.38 2075.38,-153.38 2075.38,-132.62 2186.62,-132.62 2186.62,-153.38"/>
<text text-anchor="middle" x="2131" y="-139.88" font-family="Helvetica,sans-Serif" font-size="10.00">deal.II/base/types.h</text>
</a>
</g>
</g>
<!-- Node25&#45;&gt;Node31 -->
<g id="edge46_Node000025_Node000031" class="edge">
<title>Node25&#45;&gt;Node31</title>
<g id="a_edge46_Node000025_Node000031"><a xlink:title=" ">
<path fill="none" stroke="#63b8ff" d="M1981.95,-195.33C2015.48,-183.78 2060.08,-168.43 2091.73,-157.53"/>
<polygon fill="#63b8ff" stroke="#63b8ff" points="2092.6,-160.93 2100.91,-154.36 2090.32,-154.31 2092.6,-160.93"/>
</a>
</g>
</g>
<!-- Node32 -->
<g id="Node000032" class="node">
<title>Node32</title>
<g id="a_Node000032"><a xlink:title=" ">
<polygon fill="#e0e0e0" stroke="#999999" points="2043,-83.88 1895,-83.88 1895,-63.12 2043,-63.12 2043,-83.88"/>
<text text-anchor="middle" x="1969" y="-70.38" font-family="Helvetica,sans-Serif" font-size="10.00">deal.II/base/vectorization.h</text>
</a>
</g>
</g>
<!-- Node25&#45;&gt;Node32 -->
<g id="edge48_Node000025_Node000032" class="edge">
<title>Node25&#45;&gt;Node32</title>
<g id="a_edge48_Node000025_Node000032"><a xlink:title=" ">
<path fill="none" stroke="#63b8ff" d="M1984.51,-208.94C2052.61,-204.27 2169.76,-191.7 2196,-159.75 2239.5,-106.77 2135.81,-86.7 2054.59,-79.1"/>
<polygon fill="#63b8ff" stroke="#63b8ff" points="2055.07,-75.63 2044.8,-78.25 2054.46,-82.61 2055.07,-75.63"/>
</a>
</g>
</g>
<!-- Node33 -->
<g id="Node000033" class="node">
<title>Node33</title>
<g id="a_Node000033"><a xlink:title=" ">
<polygon fill="#e0e0e0" stroke="#999999" points="2388.5,-153.38 2243.5,-153.38 2243.5,-132.62 2388.5,-132.62 2388.5,-153.38"/>
<text text-anchor="middle" x="2316" y="-139.88" font-family="Helvetica,sans-Serif" font-size="10.00">boost/range/algorithm.hpp</text>
</a>
</g>
</g>
<!-- Node25&#45;&gt;Node33 -->
<g id="edge50_Node000025_Node000033" class="edge">
<title>Node25&#45;&gt;Node33</title>
<g id="a_edge50_Node000025_Node000033"><a xlink:title=" ">
<path fill="none" stroke="#63b8ff" d="M1984.69,-202.83C2043.16,-192.61 2143.16,-175.07 2229,-159.75 2235.94,-158.51 2243.19,-157.21 2250.42,-155.91"/>
<polygon fill="#63b8ff" stroke="#63b8ff" points="2251,-159.36 2260.22,-154.14 2249.76,-152.47 2251,-159.36"/>
</a>
</g>
</g>
<!-- Node34 -->
<g id="Node000034" class="node">
<title>Node34</title>
<g id="a_Node000034"><a xlink:title=" ">
<polygon fill="#e0e0e0" stroke="#999999" points="2569,-159.75 2445,-159.75 2445,-126.25 2569,-126.25 2569,-159.75"/>
<text text-anchor="start" x="2453" y="-146.25" font-family="Helvetica,sans-Serif" font-size="10.00">boost/range/algorithm</text>
<text text-anchor="middle" x="2507" y="-133.5" font-family="Helvetica,sans-Serif" font-size="10.00">_ext.hpp</text>
</a>
</g>
</g>
<!-- Node25&#45;&gt;Node34 -->
<g id="edge51_Node000025_Node000034" class="edge">
<title>Node25&#45;&gt;Node34</title>
<g id="a_edge51_Node000025_Node000034"><a xlink:title=" ">
<path fill="none" stroke="#63b8ff" d="M1984.49,-207.99C2073.97,-201.28 2268.45,-185.01 2431,-159.75 2431.85,-159.62 2432.7,-159.48 2433.56,-159.34"/>
<polygon fill="#63b8ff" stroke="#63b8ff" points="2434.12,-162.8 2443.39,-157.66 2432.94,-155.9 2434.12,-162.8"/>
</a>
</g>
</g>
<!-- Node35 -->
<g id="Node000035" class="node">
<title>Node35</title>
<g id="a_Node000035"><a xlink:href="vectorized__operations_8h.html" target="_top" xlink:title=" ">
<polygon fill="white" stroke="#666666" points="1676,-159.75 1540,-159.75 1540,-126.25 1676,-126.25 1676,-159.75"/>
<text text-anchor="start" x="1548" y="-146.25" font-family="Helvetica,sans-Serif" font-size="10.00">prismspf/utilities</text>
<text text-anchor="middle" x="1608" y="-133.5" font-family="Helvetica,sans-Serif" font-size="10.00">/vectorized_operations.h</text>
</a>
</g>
</g>
<!-- Node25&#45;&gt;Node35 -->
<g id="edge52_Node000025_Node000035" class="edge">
<title>Node25&#45;&gt;Node35</title>
<g id="a_edge52_Node000025_Node000035"><a xlink:title=" ">
<path fill="none" stroke="#63b8ff" d="M1885.34,-201.25C1832.86,-190.42 1749.32,-173.17 1687.63,-160.44"/>
<polygon fill="#63b8ff" stroke="#63b8ff" points="1688.36,-157.01 1677.86,-158.42 1686.94,-163.87 1688.36,-157.01"/>
</a>
</g>
</g>
<!-- Node25&#45;&gt;Node37 -->
<g id="edge59_Node000025_Node000037" class="edge">
<title>Node25&#45;&gt;Node37</title>
<g id="a_edge59_Node000025_Node000037"><a xlink:title=" ">
<path fill="none" stroke="#63b8ff" d="M1984.69,-210.19C2151.55,-205.55 2690.85,-188.66 2862,-159.75 2866.68,-158.96 2871.53,-157.91 2876.33,-156.74"/>
<polygon fill="#63b8ff" stroke="#63b8ff" points="2877.08,-160.16 2885.84,-154.2 2875.28,-153.4 2877.08,-160.16"/>
</a>
</g>
</g>
<!-- Node35&#45;&gt;Node9 -->
<g id="edge54_Node000035_Node000009" class="edge">
<title>Node35&#45;&gt;Node9</title>
<g id="a_edge54_Node000035_Node000009"><a xlink:title=" ">
<path fill="none" stroke="#63b8ff" d="M1539.57,-128.72C1534.98,-127.87 1530.42,-127.04 1526,-126.25 1339.75,-92.96 1293.31,-83.45 1106,-56.75 994.3,-40.83 863.54,-26.02 788.47,-17.88"/>
<polygon fill="#63b8ff" stroke="#63b8ff" points="789.19,-14.43 778.87,-16.84 788.44,-21.39 789.19,-14.43"/>
</a>
</g>
</g>
<!-- Node35&#45;&gt;Node32 -->
<g id="edge53_Node000035_Node000032" class="edge">
<title>Node35&#45;&gt;Node32</title>
<g id="a_edge53_Node000035_Node000032"><a xlink:title=" ">
<path fill="none" stroke="#63b8ff" d="M1676.47,-128.1C1679.69,-127.47 1682.88,-126.85 1686,-126.25 1759.92,-112.03 1844.88,-96.62 1902.27,-86.35"/>
<polygon fill="#63b8ff" stroke="#63b8ff" points="1902.65,-89.83 1911.88,-84.63 1901.42,-82.94 1902.65,-89.83"/>
</a>
</g>
</g>
<!-- Node36 -->
<g id="Node000036" class="node">
<title>Node36</title>
<g id="a_Node000036"><a xlink:title=" ">
<polygon fill="#e0e0e0" stroke="#999999" points="1631.38,-83.88 1584.62,-83.88 1584.62,-63.12 1631.38,-63.12 1631.38,-83.88"/>
<text text-anchor="middle" x="1608" y="-70.38" font-family="Helvetica,sans-Serif" font-size="10.00">cmath</text>
</a>
</g>
</g>
<!-- Node35&#45;&gt;Node36 -->
<g id="edge55_Node000035_Node000036" class="edge">
<title>Node35&#45;&gt;Node36</title>
<g id="a_edge55_Node000035_Node000036"><a xlink:title=" ">
<path fill="none" stroke="#63b8ff" d="M1608,-126C1608,-116.9 1608,-105.39 1608,-95.57"/>
<polygon fill="#63b8ff" stroke="#63b8ff" points="1611.5,-95.84 1608,-85.84 1604.5,-95.84 1611.5,-95.84"/>
</a>
</g>
</g>
</g>
</svg>
