<?xml version="1.0" encoding="UTF-8" standalone="no"?>
<!DOCTYPE svg PUBLIC "-//W3C//DTD SVG 1.1//EN"
 "http://www.w3.org/Graphics/SVG/1.1/DTD/svg11.dtd">
<!-- Generated by graphviz version 12.2.1 (20241206.2353)
 -->
<!-- Title: include/prismspf/user_inputs/linear_solve_parameters.h Pages: 1 -->
<svg width="1046pt" height="250pt"
 viewBox="0.00 0.00 1046.25 250.00" xmlns="http://www.w3.org/2000/svg" xmlns:xlink="http://www.w3.org/1999/xlink">
<g id="graph0" class="graph" transform="scale(1 1) rotate(0) translate(4 246)">
<title>include/prismspf/user_inputs/linear_solve_parameters.h</title>
<!-- Node1 -->
<g id="Node000001" class="node">
<title>Node1</title>
<g id="a_Node000001"><a xlink:title=" ">
<polygon fill="#999999" stroke="#666666" points="698.25,-242 577.25,-242 577.25,-195.75 698.25,-195.75 698.25,-242"/>
<text text-anchor="start" x="585.25" y="-228.5" font-family="Helvetica,sans-Serif" font-size="10.00">include/prismspf/user</text>
<text text-anchor="start" x="585.25" y="-215.75" font-family="Helvetica,sans-Serif" font-size="10.00">_inputs/linear_solve</text>
<text text-anchor="middle" x="637.75" y="-203" font-family="Helvetica,sans-Serif" font-size="10.00">_parameters.h</text>
</a>
</g>
</g>
<!-- Node2 -->
<g id="Node000002" class="node">
<title>Node2</title>
<g id="a_Node000002"><a xlink:title=" ">
<polygon fill="#e0e0e0" stroke="#999999" points="137.5,-153.38 0,-153.38 0,-132.62 137.5,-132.62 137.5,-153.38"/>
<text text-anchor="middle" x="68.75" y="-139.88" font-family="Helvetica,sans-Serif" font-size="10.00">deal.II/base/exceptions.h</text>
</a>
</g>
</g>
<!-- Node1&#45;&gt;Node2 -->
<g id="edge1_Node000001_Node000002" class="edge">
<title>Node1&#45;&gt;Node2</title>
<g id="a_edge1_Node000001_Node000002"><a xlink:title=" ">
<path fill="none" stroke="#63b8ff" d="M577.06,-212.3C484.1,-203.39 301.02,-184.41 146.75,-159.75 139.86,-158.65 132.65,-157.37 125.51,-156.02"/>
<polygon fill="#63b8ff" stroke="#63b8ff" points="126.39,-152.63 115.9,-154.16 125.05,-159.5 126.39,-152.63"/>
</a>
</g>
</g>
<!-- Node3 -->
<g id="Node000003" class="node">
<title>Node3</title>
<g id="a_Node000003"><a xlink:title=" ">
<polygon fill="#e0e0e0" stroke="#999999" points="281.88,-159.75 155.62,-159.75 155.62,-126.25 281.88,-126.25 281.88,-159.75"/>
<text text-anchor="start" x="163.62" y="-146.25" font-family="Helvetica,sans-Serif" font-size="10.00">deal.II/base/parameter</text>
<text text-anchor="middle" x="218.75" y="-133.5" font-family="Helvetica,sans-Serif" font-size="10.00">_handler.h</text>
</a>
</g>
</g>
<!-- Node1&#45;&gt;Node3 -->
<g id="edge2_Node000001_Node000003" class="edge">
<title>Node1&#45;&gt;Node3</title>
<g id="a_edge2_Node000001_Node000003"><a xlink:title=" ">
<path fill="none" stroke="#63b8ff" d="M576.78,-208.6C509.73,-198.18 398.53,-180.3 293.45,-160.22"/>
<polygon fill="#63b8ff" stroke="#63b8ff" points="294.29,-156.82 283.8,-158.37 292.96,-163.69 294.29,-156.82"/>
</a>
</g>
</g>
<!-- Node4 -->
<g id="Node000004" class="node">
<title>Node4</title>
<g id="a_Node000004"><a xlink:title=" ">
<polygon fill="#e0e0e0" stroke="#999999" points="435.75,-153.38 299.75,-153.38 299.75,-132.62 435.75,-132.62 435.75,-153.38"/>
<text text-anchor="middle" x="367.75" y="-139.88" font-family="Helvetica,sans-Serif" font-size="10.00">deal.II/lac/precondition.h</text>
</a>
</g>
</g>
<!-- Node1&#45;&gt;Node4 -->
<g id="edge3_Node000001_Node000004" class="edge">
<title>Node1&#45;&gt;Node4</title>
<g id="a_edge3_Node000001_Node000004"><a xlink:title=" ">
<path fill="none" stroke="#63b8ff" d="M576.82,-201.2C527.64,-187.75 459.46,-169.09 414.51,-156.79"/>
<polygon fill="#63b8ff" stroke="#63b8ff" points="415.64,-153.47 405.07,-154.21 413.79,-160.23 415.64,-153.47"/>
</a>
</g>
</g>
<!-- Node5 -->
<g id="Node000005" class="node">
<title>Node5</title>
<g id="a_Node000005"><a xlink:title=" ">
<polygon fill="#e0e0e0" stroke="#999999" points="549.88,-159.75 453.62,-159.75 453.62,-126.25 549.88,-126.25 549.88,-159.75"/>
<text text-anchor="start" x="461.62" y="-146.25" font-family="Helvetica,sans-Serif" font-size="10.00">deal.II/lac/solver</text>
<text text-anchor="middle" x="501.75" y="-133.5" font-family="Helvetica,sans-Serif" font-size="10.00">_selector.h</text>
</a>
</g>
</g>
<!-- Node1&#45;&gt;Node5 -->
<g id="edge4_Node000001_Node000005" class="edge">
<title>Node1&#45;&gt;Node5</title>
<g id="a_edge4_Node000001_Node000005"><a xlink:title=" ">
<path fill="none" stroke="#63b8ff" d="M596.21,-195.31C578.71,-185.8 558.44,-174.79 541.17,-165.41"/>
<polygon fill="#63b8ff" stroke="#63b8ff" points="543.18,-162.52 532.73,-160.83 539.84,-168.68 543.18,-162.52"/>
</a>
</g>
</g>
<!-- Node6 -->
<g id="Node000006" class="node">
<title>Node6</title>
<g id="a_Node000006"><a xlink:href="conditional__ostreams_8h.html" target="_top" xlink:title=" ">
<polygon fill="white" stroke="#666666" points="707.62,-159.75 567.88,-159.75 567.88,-126.25 707.62,-126.25 707.62,-159.75"/>
<text text-anchor="start" x="575.88" y="-146.25" font-family="Helvetica,sans-Serif" font-size="10.00">prismspf/core/conditional</text>
<text text-anchor="middle" x="637.75" y="-133.5" font-family="Helvetica,sans-Serif" font-size="10.00">_ostreams.h</text>
</a>
</g>
</g>
<!-- Node1&#45;&gt;Node6 -->
<g id="edge5_Node000001_Node000006" class="edge">
<title>Node1&#45;&gt;Node6</title>
<g id="a_edge5_Node000001_Node000006"><a xlink:title=" ">
<path fill="none" stroke="#63b8ff" d="M637.75,-195.31C637.75,-187.76 637.75,-179.26 637.75,-171.38"/>
<polygon fill="#63b8ff" stroke="#63b8ff" points="641.25,-171.62 637.75,-161.62 634.25,-171.62 641.25,-171.62"/>
</a>
</g>
</g>
<!-- Node8 -->
<g id="Node000008" class="node">
<title>Node8</title>
<g id="a_Node000008"><a xlink:title=" ">
<polygon fill="#e0e0e0" stroke="#999999" points="804.75,-20.75 704.75,-20.75 704.75,0 804.75,0 804.75,-20.75"/>
<text text-anchor="middle" x="754.75" y="-7.25" font-family="Helvetica,sans-Serif" font-size="10.00">prismspf/config.h</text>
</a>
</g>
</g>
<!-- Node1&#45;&gt;Node8 -->
<g id="edge16_Node000001_Node000008" class="edge">
<title>Node1&#45;&gt;Node8</title>
<g id="a_edge16_Node000001_Node000008"><a xlink:title=" ">
<path fill="none" stroke="#63b8ff" d="M678.98,-195.43C692.8,-186.06 707.13,-174.01 716.75,-159.75 743.56,-120.02 751.45,-62.68 753.78,-32.22"/>
<polygon fill="#63b8ff" stroke="#63b8ff" points="757.26,-32.65 754.38,-22.46 750.27,-32.22 757.26,-32.65"/>
</a>
</g>
</g>
<!-- Node9 -->
<g id="Node000009" class="node">
<title>Node9</title>
<g id="a_Node000009"><a xlink:href="type__enums_8h.html" target="_top" xlink:title=" ">
<polygon fill="white" stroke="#666666" points="1035.5,-90.25 928,-90.25 928,-56.75 1035.5,-56.75 1035.5,-90.25"/>
<text text-anchor="start" x="936" y="-76.75" font-family="Helvetica,sans-Serif" font-size="10.00">prismspf/core/type</text>
<text text-anchor="middle" x="981.75" y="-64" font-family="Helvetica,sans-Serif" font-size="10.00">_enums.h</text>
</a>
</g>
</g>
<!-- Node1&#45;&gt;Node9 -->
<g id="edge8_Node000001_Node000009" class="edge">
<title>Node1&#45;&gt;Node9</title>
<g id="a_edge8_Node000001_Node000009"><a xlink:title=" ">
<path fill="none" stroke="#63b8ff" d="M698.7,-213.54C752.97,-207.55 833.09,-193.34 894.75,-159.75 902.28,-155.65 935.15,-122.56 958.26,-98.84"/>
<polygon fill="#63b8ff" stroke="#63b8ff" points="960.75,-101.3 965.21,-91.68 955.73,-96.42 960.75,-101.3"/>
</a>
</g>
</g>
<!-- Node12 -->
<g id="Node000012" class="node">
<title>Node12</title>
<g id="a_Node000012"><a xlink:href="types_8h.html" target="_top" xlink:title=" ">
<polygon fill="white" stroke="#666666" points="885.62,-153.38 763.88,-153.38 763.88,-132.62 885.62,-132.62 885.62,-153.38"/>
<text text-anchor="middle" x="824.75" y="-139.88" font-family="Helvetica,sans-Serif" font-size="10.00">prismspf/core/types.h</text>
</a>
</g>
</g>
<!-- Node1&#45;&gt;Node12 -->
<g id="edge12_Node000001_Node000012" class="edge">
<title>Node1&#45;&gt;Node12</title>
<g id="a_edge12_Node000001_Node000012"><a xlink:title=" ">
<path fill="none" stroke="#63b8ff" d="M694.87,-195.31C725.84,-183.08 763.11,-168.35 789.76,-157.82"/>
<polygon fill="#63b8ff" stroke="#63b8ff" points="790.71,-161.21 798.73,-154.28 788.14,-154.7 790.71,-161.21"/>
</a>
</g>
</g>
<!-- Node14 -->
<g id="Node000014" class="node">
<title>Node14</title>
<g id="a_Node000014"><a xlink:title=" ">
<polygon fill="#e0e0e0" stroke="#999999" points="979.62,-153.38 941.88,-153.38 941.88,-132.62 979.62,-132.62 979.62,-153.38"/>
<text text-anchor="middle" x="960.75" y="-139.88" font-family="Helvetica,sans-Serif" font-size="10.00">map</text>
</a>
</g>
</g>
<!-- Node1&#45;&gt;Node14 -->
<g id="edge17_Node000001_Node000014" class="edge">
<title>Node1&#45;&gt;Node14</title>
<g id="a_edge17_Node000001_Node000014"><a xlink:title=" ">
<path fill="none" stroke="#63b8ff" d="M698.58,-210.16C758.06,-201.57 850.66,-185.43 927.75,-159.75 929.11,-159.3 930.48,-158.8 931.85,-158.28"/>
<polygon fill="#63b8ff" stroke="#63b8ff" points="933.04,-161.58 940.85,-154.42 930.28,-155.15 933.04,-161.58"/>
</a>
</g>
</g>
<!-- Node7 -->
<g id="Node000007" class="node">
<title>Node7</title>
<g id="a_Node000007"><a xlink:title=" ">
<polygon fill="#e0e0e0" stroke="#999999" points="669.38,-90.25 540.12,-90.25 540.12,-56.75 669.38,-56.75 669.38,-90.25"/>
<text text-anchor="start" x="548.12" y="-76.75" font-family="Helvetica,sans-Serif" font-size="10.00">deal.II/base/conditional</text>
<text text-anchor="middle" x="604.75" y="-64" font-family="Helvetica,sans-Serif" font-size="10.00">_ostream.h</text>
</a>
</g>
</g>
<!-- Node6&#45;&gt;Node7 -->
<g id="edge6_Node000006_Node000007" class="edge">
<title>Node6&#45;&gt;Node7</title>
<g id="a_edge6_Node000006_Node000007"><a xlink:title=" ">
<path fill="none" stroke="#63b8ff" d="M629.93,-126C626.23,-118.44 621.72,-109.21 617.54,-100.66"/>
<polygon fill="#63b8ff" stroke="#63b8ff" points="620.72,-99.19 613.18,-91.74 614.43,-102.26 620.72,-99.19"/>
</a>
</g>
</g>
<!-- Node6&#45;&gt;Node8 -->
<g id="edge7_Node000006_Node000008" class="edge">
<title>Node6&#45;&gt;Node8</title>
<g id="a_edge7_Node000006_Node000008"><a xlink:title=" ">
<path fill="none" stroke="#63b8ff" d="M652.1,-125.98C673.94,-101.59 715.43,-55.27 738.41,-29.62"/>
<polygon fill="#63b8ff" stroke="#63b8ff" points="740.89,-32.09 744.96,-22.31 735.68,-27.42 740.89,-32.09"/>
</a>
</g>
</g>
<!-- Node9&#45;&gt;Node8 -->
<g id="edge9_Node000009_Node000008" class="edge">
<title>Node9&#45;&gt;Node8</title>
<g id="a_edge9_Node000009_Node000008"><a xlink:title=" ">
<path fill="none" stroke="#63b8ff" d="M927.67,-57.94C889.52,-47.66 838.9,-34.03 802.29,-24.18"/>
<polygon fill="#63b8ff" stroke="#63b8ff" points="803.44,-20.86 792.87,-21.64 801.62,-27.62 803.44,-20.86"/>
</a>
</g>
</g>
<!-- Node10 -->
<g id="Node000010" class="node">
<title>Node10</title>
<g id="a_Node000010"><a xlink:title=" ">
<polygon fill="#e0e0e0" stroke="#999999" points="1038.25,-20.75 989.25,-20.75 989.25,0 1038.25,0 1038.25,-20.75"/>
<text text-anchor="middle" x="1013.75" y="-7.25" font-family="Helvetica,sans-Serif" font-size="10.00">cstdint</text>
</a>
</g>
</g>
<!-- Node9&#45;&gt;Node10 -->
<g id="edge10_Node000009_Node000010" class="edge">
<title>Node9&#45;&gt;Node10</title>
<g id="a_edge10_Node000009_Node000010"><a xlink:title=" ">
<path fill="none" stroke="#63b8ff" d="M990.16,-56.44C994.18,-48.76 999.04,-39.48 1003.3,-31.34"/>
<polygon fill="#63b8ff" stroke="#63b8ff" points="1006.36,-33.04 1007.9,-22.56 1000.16,-29.79 1006.36,-33.04"/>
</a>
</g>
</g>
<!-- Node11 -->
<g id="Node000011" class="node">
<title>Node11</title>
<g id="a_Node000011"><a xlink:title=" ">
<polygon fill="#e0e0e0" stroke="#999999" points="971.62,-20.75 927.88,-20.75 927.88,0 971.62,0 971.62,-20.75"/>
<text text-anchor="middle" x="949.75" y="-7.25" font-family="Helvetica,sans-Serif" font-size="10.00">string</text>
</a>
</g>
</g>
<!-- Node9&#45;&gt;Node11 -->
<g id="edge11_Node000009_Node000011" class="edge">
<title>Node9&#45;&gt;Node11</title>
<g id="a_edge11_Node000009_Node000011"><a xlink:title=" ">
<path fill="none" stroke="#63b8ff" d="M973.34,-56.44C969.32,-48.76 964.46,-39.48 960.2,-31.34"/>
<polygon fill="#63b8ff" stroke="#63b8ff" points="963.34,-29.79 955.6,-22.56 957.14,-33.04 963.34,-29.79"/>
</a>
</g>
</g>
<!-- Node12&#45;&gt;Node8 -->
<g id="edge15_Node000012_Node000008" class="edge">
<title>Node12&#45;&gt;Node8</title>
<g id="a_edge15_Node000012_Node000008"><a xlink:title=" ">
<path fill="none" stroke="#63b8ff" d="M818.3,-132.26C811.6,-121.99 800.97,-105.26 792.75,-90.25 781.99,-70.62 771.04,-47.48 763.67,-31.35"/>
<polygon fill="#63b8ff" stroke="#63b8ff" points="766.93,-30.06 759.62,-22.39 760.55,-32.94 766.93,-30.06"/>
</a>
</g>
</g>
<!-- Node12&#45;&gt;Node9 -->
<g id="edge14_Node000012_Node000009" class="edge">
<title>Node12&#45;&gt;Node9</title>
<g id="a_edge14_Node000012_Node000009"><a xlink:title=" ">
<path fill="none" stroke="#63b8ff" d="M847.58,-132.18C870.08,-122.51 905.14,-107.44 933.78,-95.12"/>
<polygon fill="#63b8ff" stroke="#63b8ff" points="934.81,-98.49 942.61,-91.33 932.05,-92.06 934.81,-98.49"/>
</a>
</g>
</g>
<!-- Node13 -->
<g id="Node000013" class="node">
<title>Node13</title>
<g id="a_Node000013"><a xlink:title=" ">
<polygon fill="#e0e0e0" stroke="#999999" points="909.88,-90.25 801.62,-90.25 801.62,-56.75 909.88,-56.75 909.88,-90.25"/>
<text text-anchor="start" x="809.62" y="-76.75" font-family="Helvetica,sans-Serif" font-size="10.00">deal.II/matrix_free</text>
<text text-anchor="middle" x="855.75" y="-64" font-family="Helvetica,sans-Serif" font-size="10.00">/evaluation_flags.h</text>
</a>
</g>
</g>
<!-- Node12&#45;&gt;Node13 -->
<g id="edge13_Node000012_Node000013" class="edge">
<title>Node12&#45;&gt;Node13</title>
<g id="a_edge13_Node000012_Node000013"><a xlink:title=" ">
<path fill="none" stroke="#63b8ff" d="M829.19,-132.33C832.93,-124.18 838.47,-112.13 843.52,-101.13"/>
<polygon fill="#63b8ff" stroke="#63b8ff" points="846.7,-102.59 847.69,-92.04 840.34,-99.67 846.7,-102.59"/>
</a>
</g>
</g>
</g>
</svg>
