<?xml version="1.0" encoding="UTF-8" standalone="no"?>
<!DOCTYPE svg PUBLIC "-//W3C//DTD SVG 1.1//EN"
 "http://www.w3.org/Graphics/SVG/1.1/DTD/svg11.dtd">
<!-- Generated by graphviz version 12.2.1 (20241206.2353)
 -->
<!-- Title: include/prismspf/user_inputs/linear_solve_parameters.h Pages: 1 -->
<svg width="1365pt" height="749pt"
 viewBox="0.00 0.00 1365.12 749.25" xmlns="http://www.w3.org/2000/svg" xmlns:xlink="http://www.w3.org/1999/xlink">
<g id="graph0" class="graph" transform="scale(1 1) rotate(0) translate(4 745.25)">
<title>include/prismspf/user_inputs/linear_solve_parameters.h</title>
<!-- Node1 -->
<g id="Node000001" class="node">
<title>Node1</title>
<g id="a_Node000001"><a xlink:title=" ">
<polygon fill="#999999" stroke="#666666" points="1140.12,-741.25 1019.12,-741.25 1019.12,-695 1140.12,-695 1140.12,-741.25"/>
<text text-anchor="start" x="1027.12" y="-727.75" font-family="Helvetica,sans-Serif" font-size="10.00">include/prismspf/user</text>
<text text-anchor="start" x="1027.12" y="-715" font-family="Helvetica,sans-Serif" font-size="10.00">_inputs/linear_solve</text>
<text text-anchor="middle" x="1079.62" y="-702.25" font-family="Helvetica,sans-Serif" font-size="10.00">_parameters.h</text>
</a>
</g>
</g>
<!-- Node2 -->
<g id="Node000002" class="node">
<title>Node2</title>
<g id="a_Node000002"><a xlink:href="linear__solver_8h.html" target="_top" xlink:title=" ">
<polygon fill="white" stroke="#666666" points="135.25,-229.25 0,-229.25 0,-195.75 135.25,-195.75 135.25,-229.25"/>
<text text-anchor="start" x="8" y="-215.75" font-family="Helvetica,sans-Serif" font-size="10.00">include/prismspf/solvers</text>
<text text-anchor="middle" x="67.62" y="-203" font-family="Helvetica,sans-Serif" font-size="10.00">/linear_solver.h</text>
</a>
</g>
</g>
<!-- Node1&#45;&gt;Node2 -->
<g id="edge1_Node000001_Node000002" class="edge">
<title>Node1&#45;&gt;Node2</title>
<g id="a_edge1_Node000001_Node000002"><a xlink:title=" ">
<path fill="none" stroke="#63b8ff" d="M1007.57,-713.14C782.67,-699.76 108.62,-652.04 108.62,-561 108.62,-561 108.62,-561 108.62,-350.5 108.62,-305.07 87.67,-254.58 75.73,-229.48"/>
<polygon fill="#63b8ff" stroke="#63b8ff" points="1007.19,-716.62 1017.37,-713.72 1007.6,-709.64 1007.19,-716.62"/>
</a>
</g>
</g>
<!-- Node8 -->
<g id="Node000008" class="node">
<title>Node8</title>
<g id="a_Node000008"><a xlink:href="nonlinear__solve__parameters_8h.html" target="_top" xlink:title=" ">
<polygon fill="white" stroke="#666666" points="1192.38,-659 1060.88,-659 1060.88,-612.75 1192.38,-612.75 1192.38,-659"/>
<text text-anchor="start" x="1068.88" y="-645.5" font-family="Helvetica,sans-Serif" font-size="10.00">include/prismspf/user</text>
<text text-anchor="start" x="1068.88" y="-632.75" font-family="Helvetica,sans-Serif" font-size="10.00">_inputs/nonlinear_solve</text>
<text text-anchor="middle" x="1126.62" y="-620" font-family="Helvetica,sans-Serif" font-size="10.00">_parameters.h</text>
</a>
</g>
</g>
<!-- Node1&#45;&gt;Node8 -->
<g id="edge8_Node000001_Node000008" class="edge">
<title>Node1&#45;&gt;Node8</title>
<g id="a_edge8_Node000001_Node000008"><a xlink:title=" ">
<path fill="none" stroke="#63b8ff" d="M1098.43,-685.02C1103.46,-676.44 1108.78,-667.34 1113.44,-659.39"/>
<polygon fill="#63b8ff" stroke="#63b8ff" points="1095.52,-683.07 1093.48,-693.46 1101.56,-686.6 1095.52,-683.07"/>
</a>
</g>
</g>
<!-- Node9 -->
<g id="Node000009" class="node">
<title>Node9</title>
<g id="a_Node000009"><a xlink:href="user__input__parameters_8h.html" target="_top" xlink:title=" ">
<polygon fill="white" stroke="#666666" points="1120.5,-576.75 944.75,-576.75 944.75,-543.25 1120.5,-543.25 1120.5,-576.75"/>
<text text-anchor="start" x="952.75" y="-563.25" font-family="Helvetica,sans-Serif" font-size="10.00">include/prismspf/user</text>
<text text-anchor="middle" x="1032.62" y="-550.5" font-family="Helvetica,sans-Serif" font-size="10.00">_inputs/user_input_parameters.h</text>
</a>
</g>
</g>
<!-- Node1&#45;&gt;Node9 -->
<g id="edge54_Node000001_Node000009" class="edge">
<title>Node1&#45;&gt;Node9</title>
<g id="a_edge54_Node000001_Node000009"><a xlink:title=" ">
<path fill="none" stroke="#63b8ff" d="M1062.01,-684.32C1058.17,-676.21 1054.42,-667.43 1051.62,-659 1042.3,-630.87 1036.95,-596.59 1034.43,-576.93"/>
<polygon fill="#63b8ff" stroke="#63b8ff" points="1058.81,-685.73 1066.38,-693.14 1065.08,-682.63 1058.81,-685.73"/>
</a>
</g>
</g>
<!-- Node28 -->
<g id="Node000028" class="node">
<title>Node28</title>
<g id="a_Node000028"><a xlink:href="user__input__parameters_8cc.html" target="_top" xlink:title=" ">
<polygon fill="white" stroke="#666666" points="1357.12,-507.25 1236.12,-507.25 1236.12,-473.75 1357.12,-473.75 1357.12,-507.25"/>
<text text-anchor="start" x="1244.12" y="-493.75" font-family="Helvetica,sans-Serif" font-size="10.00">src/user_inputs/user</text>
<text text-anchor="middle" x="1296.62" y="-481" font-family="Helvetica,sans-Serif" font-size="10.00">_input_parameters.cc</text>
</a>
</g>
</g>
<!-- Node1&#45;&gt;Node28 -->
<g id="edge55_Node000001_Node000028" class="edge">
<title>Node1&#45;&gt;Node28</title>
<g id="a_edge55_Node000001_Node000028"><a xlink:title=" ">
<path fill="none" stroke="#63b8ff" d="M1151.03,-691.99C1168.92,-683.42 1187.13,-672.5 1201.62,-659 1249.46,-614.46 1279.64,-540.26 1291.23,-507.68"/>
<polygon fill="#63b8ff" stroke="#63b8ff" points="1149.59,-688.8 1141.94,-696.13 1152.49,-695.17 1149.59,-688.8"/>
</a>
</g>
</g>
<!-- Node3 -->
<g id="Node000003" class="node">
<title>Node3</title>
<g id="a_Node000003"><a xlink:href="mg__solver_8h.html" target="_top" xlink:title=" ">
<polygon fill="white" stroke="#666666" points="231.25,-159.75 96,-159.75 96,-126.25 231.25,-126.25 231.25,-159.75"/>
<text text-anchor="start" x="104" y="-146.25" font-family="Helvetica,sans-Serif" font-size="10.00">include/prismspf/solvers</text>
<text text-anchor="middle" x="163.62" y="-133.5" font-family="Helvetica,sans-Serif" font-size="10.00">/mg_solver.h</text>
</a>
</g>
</g>
<!-- Node2&#45;&gt;Node3 -->
<g id="edge2_Node000002_Node000003" class="edge">
<title>Node2&#45;&gt;Node3</title>
<g id="a_edge2_Node000002_Node000003"><a xlink:title=" ">
<path fill="none" stroke="#63b8ff" d="M99.75,-188.91C113.17,-179.48 128.45,-168.73 140.7,-160.12"/>
<polygon fill="#63b8ff" stroke="#63b8ff" points="97.78,-186.02 91.61,-194.63 101.81,-191.74 97.78,-186.02"/>
</a>
</g>
</g>
<!-- Node4 -->
<g id="Node000004" class="node">
<title>Node4</title>
<g id="a_Node000004"><a xlink:href="newton__solver_8h.html" target="_top" xlink:title=" ">
<polygon fill="white" stroke="#666666" points="498.25,-159.75 363,-159.75 363,-126.25 498.25,-126.25 498.25,-159.75"/>
<text text-anchor="start" x="371" y="-146.25" font-family="Helvetica,sans-Serif" font-size="10.00">include/prismspf/solvers</text>
<text text-anchor="middle" x="430.62" y="-133.5" font-family="Helvetica,sans-Serif" font-size="10.00">/newton_solver.h</text>
</a>
</g>
</g>
<!-- Node2&#45;&gt;Node4 -->
<g id="edge3_Node000002_Node000004" class="edge">
<title>Node2&#45;&gt;Node4</title>
<g id="a_edge3_Node000002_Node000004"><a xlink:title=" ">
<path fill="none" stroke="#63b8ff" d="M146.41,-196.85C210.98,-184.84 301.41,-168.03 362.8,-156.61"/>
<polygon fill="#63b8ff" stroke="#63b8ff" points="146.16,-193.34 136.96,-198.61 147.44,-200.22 146.16,-193.34"/>
</a>
</g>
</g>
<!-- Node5 -->
<g id="Node000005" class="node">
<title>Node5</title>
<g id="a_Node000005"><a xlink:href="solvers_8h.html" target="_top" xlink:title=" ">
<polygon fill="white" stroke="#666666" points="661.25,-90.25 526,-90.25 526,-56.75 661.25,-56.75 661.25,-90.25"/>
<text text-anchor="start" x="534" y="-76.75" font-family="Helvetica,sans-Serif" font-size="10.00">include/prismspf/solvers</text>
<text text-anchor="middle" x="593.62" y="-64" font-family="Helvetica,sans-Serif" font-size="10.00">/solvers.h</text>
</a>
</g>
</g>
<!-- Node2&#45;&gt;Node5 -->
<g id="edge7_Node000002_Node000005" class="edge">
<title>Node2&#45;&gt;Node5</title>
<g id="a_edge7_Node000002_Node000005"><a xlink:title=" ">
<path fill="none" stroke="#63b8ff" d="M66,-184.26C66.46,-165.14 70.56,-140.53 86.62,-126.25 118.8,-97.65 395.09,-82.63 525.72,-77.07"/>
<polygon fill="#63b8ff" stroke="#63b8ff" points="62.5,-184.11 66.11,-194.07 69.5,-184.03 62.5,-184.11"/>
</a>
</g>
</g>
<!-- Node4&#45;&gt;Node5 -->
<g id="edge4_Node000004_Node000005" class="edge">
<title>Node4&#45;&gt;Node5</title>
<g id="a_edge4_Node000004_Node000005"><a xlink:title=" ">
<path fill="none" stroke="#63b8ff" d="M480.29,-121.43C504.15,-111.55 532.33,-99.88 554.62,-90.65"/>
<polygon fill="#63b8ff" stroke="#63b8ff" points="478.97,-118.19 471.07,-125.25 481.64,-124.66 478.97,-118.19"/>
</a>
</g>
</g>
<!-- Node6 -->
<g id="Node000006" class="node">
<title>Node6</title>
<g id="a_Node000006"><a xlink:href="problem_8cc.html" target="_top" xlink:title=" ">
<polygon fill="white" stroke="#666666" points="879.25,-20.75 768,-20.75 768,0 879.25,0 879.25,-20.75"/>
<text text-anchor="middle" x="823.62" y="-7.25" font-family="Helvetica,sans-Serif" font-size="10.00">src/core/problem.cc</text>
</a>
</g>
</g>
<!-- Node5&#45;&gt;Node6 -->
<g id="edge5_Node000005_Node000006" class="edge">
<title>Node5&#45;&gt;Node6</title>
<g id="a_edge5_Node000005_Node000006"><a xlink:title=" ">
<path fill="none" stroke="#63b8ff" d="M665.76,-53.33C705.94,-42.65 754.27,-29.81 786.79,-21.17"/>
<polygon fill="#63b8ff" stroke="#63b8ff" points="664.89,-49.94 656.12,-55.89 666.68,-56.71 664.89,-49.94"/>
</a>
</g>
</g>
<!-- Node7 -->
<g id="Node000007" class="node">
<title>Node7</title>
<g id="a_Node000007"><a xlink:href="solvers_8cc.html" target="_top" xlink:title=" ">
<polygon fill="white" stroke="#666666" points="653.75,-20.75 533.5,-20.75 533.5,0 653.75,0 653.75,-20.75"/>
<text text-anchor="middle" x="593.62" y="-7.25" font-family="Helvetica,sans-Serif" font-size="10.00">src/solvers/solvers.cc</text>
</a>
</g>
</g>
<!-- Node5&#45;&gt;Node7 -->
<g id="edge6_Node000005_Node000007" class="edge">
<title>Node5&#45;&gt;Node7</title>
<g id="a_edge6_Node000005_Node000007"><a xlink:title=" ">
<path fill="none" stroke="#63b8ff" d="M593.62,-44.94C593.62,-36.46 593.62,-27.67 593.62,-21.22"/>
<polygon fill="#63b8ff" stroke="#63b8ff" points="590.13,-44.93 593.63,-54.93 597.13,-44.93 590.13,-44.93"/>
</a>
</g>
</g>
<!-- Node8&#45;&gt;Node9 -->
<g id="edge9_Node000008_Node000009" class="edge">
<title>Node8&#45;&gt;Node9</title>
<g id="a_edge9_Node000008_Node000009"><a xlink:title=" ">
<path fill="none" stroke="#63b8ff" d="M1089.17,-605.44C1076.88,-595.78 1063.67,-585.4 1053.12,-577.1"/>
<polygon fill="#63b8ff" stroke="#63b8ff" points="1086.7,-607.95 1096.72,-611.37 1091.02,-602.44 1086.7,-607.95"/>
</a>
</g>
</g>
<!-- Node8&#45;&gt;Node28 -->
<g id="edge53_Node000008_Node000028" class="edge">
<title>Node8&#45;&gt;Node28</title>
<g id="a_edge53_Node000008_Node000028"><a xlink:title=" ">
<path fill="none" stroke="#63b8ff" d="M1161.72,-605.28C1196.86,-575.64 1249.63,-531.13 1277.62,-507.53"/>
<polygon fill="#63b8ff" stroke="#63b8ff" points="1159.73,-602.37 1154.34,-611.5 1164.25,-607.73 1159.73,-602.37"/>
</a>
</g>
</g>
<!-- Node9&#45;&gt;Node6 -->
<g id="edge51_Node000009_Node000006" class="edge">
<title>Node9&#45;&gt;Node6</title>
<g id="a_edge51_Node000009_Node000006"><a xlink:title=" ">
<path fill="none" stroke="#63b8ff" d="M948.51,-539.45C890.44,-520.38 823.62,-484.8 823.62,-422 823.62,-422 823.62,-422 823.62,-142 823.62,-96.87 823.62,-42.97 823.62,-21.21"/>
<polygon fill="#63b8ff" stroke="#63b8ff" points="947.2,-542.7 957.79,-542.36 949.3,-536.02 947.2,-542.7"/>
</a>
</g>
</g>
<!-- Node10 -->
<g id="Node000010" class="node">
<title>Node10</title>
<g id="a_Node000010"><a xlink:href="pde__operator__base_8h.html" target="_top" xlink:title=" ">
<polygon fill="white" stroke="#666666" points="711.12,-507.25 590.12,-507.25 590.12,-473.75 711.12,-473.75 711.12,-507.25"/>
<text text-anchor="start" x="598.12" y="-493.75" font-family="Helvetica,sans-Serif" font-size="10.00">include/prismspf/core</text>
<text text-anchor="middle" x="650.62" y="-481" font-family="Helvetica,sans-Serif" font-size="10.00">/pde_operator_base.h</text>
</a>
</g>
</g>
<!-- Node9&#45;&gt;Node10 -->
<g id="edge10_Node000009_Node000010" class="edge">
<title>Node9&#45;&gt;Node10</title>
<g id="a_edge10_Node000009_Node000010"><a xlink:title=" ">
<path fill="none" stroke="#63b8ff" d="M933.43,-541.47C863.18,-529.06 771.2,-512.81 711.52,-502.26"/>
<polygon fill="#63b8ff" stroke="#63b8ff" points="932.56,-544.87 943.02,-543.17 933.78,-537.98 932.56,-544.87"/>
</a>
</g>
</g>
<!-- Node15 -->
<g id="Node000015" class="node">
<title>Node15</title>
<g id="a_Node000015"><a xlink:href="solve__context_8h.html" target="_top" xlink:title=" ">
<polygon fill="white" stroke="#666666" points="987.25,-437.75 852,-437.75 852,-404.25 987.25,-404.25 987.25,-437.75"/>
<text text-anchor="start" x="860" y="-424.25" font-family="Helvetica,sans-Serif" font-size="10.00">include/prismspf/solvers</text>
<text text-anchor="middle" x="919.62" y="-411.5" font-family="Helvetica,sans-Serif" font-size="10.00">/solve_context.h</text>
</a>
</g>
</g>
<!-- Node9&#45;&gt;Node15 -->
<g id="edge46_Node000009_Node000015" class="edge">
<title>Node9&#45;&gt;Node15</title>
<g id="a_edge46_Node000009_Node000015"><a xlink:title=" ">
<path fill="none" stroke="#63b8ff" d="M1012.19,-534.22C989.11,-506.24 952.24,-461.54 932.72,-437.88"/>
<polygon fill="#63b8ff" stroke="#63b8ff" points="1009.42,-536.36 1018.48,-541.85 1014.82,-531.91 1009.42,-536.36"/>
</a>
</g>
</g>
<!-- Node18 -->
<g id="Node000018" class="node">
<title>Node18</title>
<g id="a_Node000018"><a xlink:href="solution__output_8h.html" target="_top" xlink:title=" ">
<polygon fill="white" stroke="#666666" points="1288.12,-368.25 1167.12,-368.25 1167.12,-334.75 1288.12,-334.75 1288.12,-368.25"/>
<text text-anchor="start" x="1175.12" y="-354.75" font-family="Helvetica,sans-Serif" font-size="10.00">include/prismspf/core</text>
<text text-anchor="middle" x="1227.62" y="-342" font-family="Helvetica,sans-Serif" font-size="10.00">/solution_output.h</text>
</a>
</g>
</g>
<!-- Node9&#45;&gt;Node18 -->
<g id="edge44_Node000009_Node000018" class="edge">
<title>Node9&#45;&gt;Node18</title>
<g id="a_edge44_Node000009_Node000018"><a xlink:title=" ">
<path fill="none" stroke="#63b8ff" d="M1122.97,-538.78C1141.19,-531.31 1158.93,-521.12 1172.62,-507.25 1211.49,-467.89 1223.04,-399.32 1226.35,-368.41"/>
<polygon fill="#63b8ff" stroke="#63b8ff" points="1121.73,-535.51 1113.63,-542.34 1124.22,-542.05 1121.73,-535.51"/>
</a>
</g>
</g>
<!-- Node20 -->
<g id="Node000020" class="node">
<title>Node20</title>
<g id="a_Node000020"><a xlink:href="nucleation__manager_8h.html" target="_top" xlink:title=" ">
<polygon fill="white" stroke="#666666" points="1149.12,-368.25 998.12,-368.25 998.12,-334.75 1149.12,-334.75 1149.12,-368.25"/>
<text text-anchor="start" x="1006.12" y="-354.75" font-family="Helvetica,sans-Serif" font-size="10.00">include/prismspf/nucleation</text>
<text text-anchor="middle" x="1073.62" y="-342" font-family="Helvetica,sans-Serif" font-size="10.00">/nucleation_manager.h</text>
</a>
</g>
</g>
<!-- Node9&#45;&gt;Node20 -->
<g id="edge45_Node000009_Node000020" class="edge">
<title>Node9&#45;&gt;Node20</title>
<g id="a_edge45_Node000009_Node000020"><a xlink:title=" ">
<path fill="none" stroke="#63b8ff" d="M1114.28,-538.1C1128.66,-530.7 1141.83,-520.72 1150.62,-507.25 1175.66,-468.93 1172.15,-444.65 1150.62,-404.25 1142.29,-388.61 1126.91,-376.86 1112.06,-368.54"/>
<polygon fill="#63b8ff" stroke="#63b8ff" points="1113.12,-534.77 1105.53,-542.17 1116.08,-541.12 1113.12,-534.77"/>
</a>
</g>
</g>
<!-- Node21 -->
<g id="Node000021" class="node">
<title>Node21</title>
<g id="a_Node000021"><a xlink:href="solver__base_8h.html" target="_top" xlink:title=" ">
<polygon fill="white" stroke="#666666" points="783.25,-368.25 648,-368.25 648,-334.75 783.25,-334.75 783.25,-368.25"/>
<text text-anchor="start" x="656" y="-354.75" font-family="Helvetica,sans-Serif" font-size="10.00">include/prismspf/solvers</text>
<text text-anchor="middle" x="715.62" y="-342" font-family="Helvetica,sans-Serif" font-size="10.00">/solver_base.h</text>
</a>
</g>
</g>
<!-- Node9&#45;&gt;Node21 -->
<g id="edge47_Node000009_Node000021" class="edge">
<title>Node9&#45;&gt;Node21</title>
<g id="a_edge47_Node000009_Node000021"><a xlink:title=" ">
<path fill="none" stroke="#63b8ff" d="M933.26,-552.87C891.9,-546.24 845.31,-533.08 809.62,-507.25 759.97,-471.31 731.42,-400.33 720.63,-368.55"/>
<polygon fill="#63b8ff" stroke="#63b8ff" points="932.59,-556.3 942.99,-554.31 933.61,-549.38 932.59,-556.3"/>
</a>
</g>
</g>
<!-- Node26 -->
<g id="Node000026" class="node">
<title>Node26</title>
<g id="a_Node000026"><a xlink:href="periodic__distance_8h.html" target="_top" xlink:title=" ">
<polygon fill="white" stroke="#666666" points="1142,-437.75 1005.25,-437.75 1005.25,-404.25 1142,-404.25 1142,-437.75"/>
<text text-anchor="start" x="1013.25" y="-424.25" font-family="Helvetica,sans-Serif" font-size="10.00">include/prismspf/utilities</text>
<text text-anchor="middle" x="1073.62" y="-411.5" font-family="Helvetica,sans-Serif" font-size="10.00">/periodic_distance.h</text>
</a>
</g>
</g>
<!-- Node9&#45;&gt;Node26 -->
<g id="edge48_Node000009_Node000026" class="edge">
<title>Node9&#45;&gt;Node26</title>
<g id="a_edge48_Node000009_Node000026"><a xlink:title=" ">
<path fill="none" stroke="#63b8ff" d="M1024.96,-532.03C1021.44,-514.8 1019.46,-492.3 1026.62,-473.75 1032.05,-459.71 1043.25,-447.13 1053.35,-437.89"/>
<polygon fill="#63b8ff" stroke="#63b8ff" points="1021.5,-532.6 1027.2,-541.53 1028.31,-530.99 1021.5,-532.6"/>
</a>
</g>
</g>
<!-- Node27 -->
<g id="Node000027" class="node">
<title>Node27</title>
<g id="a_Node000027"><a xlink:href="constraint__manager_8cc.html" target="_top" xlink:title=" ">
<polygon fill="white" stroke="#666666" points="1141.62,-507.25 1035.62,-507.25 1035.62,-473.75 1141.62,-473.75 1141.62,-507.25"/>
<text text-anchor="start" x="1043.62" y="-493.75" font-family="Helvetica,sans-Serif" font-size="10.00">src/core/constraint</text>
<text text-anchor="middle" x="1088.62" y="-481" font-family="Helvetica,sans-Serif" font-size="10.00">_manager.cc</text>
</a>
</g>
</g>
<!-- Node9&#45;&gt;Node27 -->
<g id="edge50_Node000009_Node000027" class="edge">
<title>Node9&#45;&gt;Node27</title>
<g id="a_edge50_Node000009_Node000027"><a xlink:title=" ">
<path fill="none" stroke="#63b8ff" d="M1053.03,-534.41C1060.51,-525.39 1068.77,-515.43 1075.45,-507.38"/>
<polygon fill="#63b8ff" stroke="#63b8ff" points="1050.55,-531.91 1046.86,-541.84 1055.94,-536.38 1050.55,-531.91"/>
</a>
</g>
</g>
<!-- Node9&#45;&gt;Node28 -->
<g id="edge52_Node000009_Node000028" class="edge">
<title>Node9&#45;&gt;Node28</title>
<g id="a_edge52_Node000009_Node000028"><a xlink:title=" ">
<path fill="none" stroke="#63b8ff" d="M1106.81,-540.03C1147.5,-529.63 1197.33,-516.89 1235.72,-507.07"/>
<polygon fill="#63b8ff" stroke="#63b8ff" points="1106.15,-536.59 1097.33,-542.46 1107.88,-543.37 1106.15,-536.59"/>
</a>
</g>
</g>
<!-- Node11 -->
<g id="Node000011" class="node">
<title>Node11</title>
<g id="a_Node000011"><a xlink:href="mf__operator_8h.html" target="_top" xlink:title=" ">
<polygon fill="white" stroke="#666666" points="435.25,-298.75 300,-298.75 300,-265.25 435.25,-265.25 435.25,-298.75"/>
<text text-anchor="start" x="308" y="-285.25" font-family="Helvetica,sans-Serif" font-size="10.00">include/prismspf/solvers</text>
<text text-anchor="middle" x="367.62" y="-272.5" font-family="Helvetica,sans-Serif" font-size="10.00">/mf_operator.h</text>
</a>
</g>
</g>
<!-- Node10&#45;&gt;Node11 -->
<g id="edge11_Node000010_Node000011" class="edge">
<title>Node10&#45;&gt;Node11</title>
<g id="a_edge11_Node000010_Node000011"><a xlink:title=" ">
<path fill="none" stroke="#63b8ff" d="M578.6,-483.07C514.49,-475.87 427.18,-461.9 402.62,-437.75 364.52,-400.28 364.07,-330.73 366.09,-299.24"/>
<polygon fill="#63b8ff" stroke="#63b8ff" points="578.05,-486.54 588.37,-484.14 578.8,-479.58 578.05,-486.54"/>
</a>
</g>
</g>
<!-- Node10&#45;&gt;Node15 -->
<g id="edge19_Node000010_Node000015" class="edge">
<title>Node10&#45;&gt;Node15</title>
<g id="a_edge19_Node000010_Node000015"><a xlink:title=" ">
<path fill="none" stroke="#63b8ff" d="M722.39,-471.49C763.61,-461.15 814.95,-448.27 854.92,-438.24"/>
<polygon fill="#63b8ff" stroke="#63b8ff" points="721.64,-468.07 712.8,-473.9 723.35,-474.86 721.64,-468.07"/>
</a>
</g>
</g>
<!-- Node10&#45;&gt;Node21 -->
<g id="edge41_Node000010_Node000021" class="edge">
<title>Node10&#45;&gt;Node21</title>
<g id="a_edge41_Node000010_Node000021"><a xlink:title=" ">
<path fill="none" stroke="#63b8ff" d="M680.71,-465.93C689.07,-457.87 697.31,-448.23 702.62,-437.75 713.87,-415.59 716,-386.32 716.1,-368.48"/>
<polygon fill="#63b8ff" stroke="#63b8ff" points="678.61,-463.11 673.53,-472.41 683.3,-468.3 678.61,-463.11"/>
</a>
</g>
</g>
<!-- Node24 -->
<g id="Node000024" class="node">
<title>Node24</title>
<g id="a_Node000024"><a xlink:href="dirichlet_8cc.html" target="_top" xlink:title=" ">
<polygon fill="white" stroke="#666666" points="521.88,-431.38 411.38,-431.38 411.38,-410.62 521.88,-410.62 521.88,-431.38"/>
<text text-anchor="middle" x="466.62" y="-417.88" font-family="Helvetica,sans-Serif" font-size="10.00">src/core/dirichlet.cc</text>
</a>
</g>
</g>
<!-- Node10&#45;&gt;Node24 -->
<g id="edge42_Node000010_Node000024" class="edge">
<title>Node10&#45;&gt;Node24</title>
<g id="a_edge42_Node000010_Node000024"><a xlink:title=" ">
<path fill="none" stroke="#63b8ff" d="M595.9,-469.42C562.13,-457.04 520.29,-441.69 493.53,-431.87"/>
<polygon fill="#63b8ff" stroke="#63b8ff" points="594.54,-472.65 605.13,-472.81 596.95,-466.08 594.54,-472.65"/>
</a>
</g>
</g>
<!-- Node25 -->
<g id="Node000025" class="node">
<title>Node25</title>
<g id="a_Node000025"><a xlink:href="initial__conditions_8cc.html" target="_top" xlink:title=" ">
<polygon fill="white" stroke="#666666" points="693.62,-431.38 539.62,-431.38 539.62,-410.62 693.62,-410.62 693.62,-431.38"/>
<text text-anchor="middle" x="616.62" y="-417.88" font-family="Helvetica,sans-Serif" font-size="10.00">src/core/initial_conditions.cc</text>
</a>
</g>
</g>
<!-- Node10&#45;&gt;Node25 -->
<g id="edge43_Node000010_Node000025" class="edge">
<title>Node10&#45;&gt;Node25</title>
<g id="a_edge43_Node000010_Node000025"><a xlink:title=" ">
<path fill="none" stroke="#63b8ff" d="M637.48,-463.41C631.91,-452.34 625.74,-440.1 621.57,-431.82"/>
<polygon fill="#63b8ff" stroke="#63b8ff" points="634.26,-464.8 641.89,-472.15 640.51,-461.65 634.26,-464.8"/>
</a>
</g>
</g>
<!-- Node11&#45;&gt;Node2 -->
<g id="edge15_Node000011_Node000002" class="edge">
<title>Node11&#45;&gt;Node2</title>
<g id="a_edge15_Node000011_Node000002"><a xlink:title=" ">
<path fill="none" stroke="#63b8ff" d="M288.37,-263.17C240.86,-252.48 181.06,-239.02 135.69,-228.81"/>
<polygon fill="#63b8ff" stroke="#63b8ff" points="287.55,-266.57 298.07,-265.35 289.09,-259.74 287.55,-266.57"/>
</a>
</g>
</g>
<!-- Node11&#45;&gt;Node3 -->
<g id="edge16_Node000011_Node000003" class="edge">
<title>Node11&#45;&gt;Node3</title>
<g id="a_edge16_Node000011_Node000003"><a xlink:title=" ">
<path fill="none" stroke="#63b8ff" d="M288.58,-277.11C251.62,-271.2 209.86,-257.99 182.62,-229.25 164.89,-210.54 162.33,-179.09 162.61,-160.06"/>
<polygon fill="#63b8ff" stroke="#63b8ff" points="287.98,-280.56 298.38,-278.5 288.97,-273.63 287.98,-280.56"/>
</a>
</g>
</g>
<!-- Node11&#45;&gt;Node4 -->
<g id="edge17_Node000011_Node000004" class="edge">
<title>Node11&#45;&gt;Node4</title>
<g id="a_edge17_Node000011_Node000004"><a xlink:title=" ">
<path fill="none" stroke="#63b8ff" d="M368.51,-253.43C370.01,-236.1 373.71,-213.71 382.62,-195.75 389.38,-182.14 400.86,-169.57 410.89,-160.23"/>
<polygon fill="#63b8ff" stroke="#63b8ff" points="365.03,-253.05 367.88,-263.25 372.02,-253.5 365.03,-253.05"/>
</a>
</g>
</g>
<!-- Node12 -->
<g id="Node000012" class="node">
<title>Node12</title>
<g id="a_Node000012"><a xlink:href="explicit__solver_8h.html" target="_top" xlink:title=" ">
<polygon fill="white" stroke="#666666" points="719.25,-229.25 584,-229.25 584,-195.75 719.25,-195.75 719.25,-229.25"/>
<text text-anchor="start" x="592" y="-215.75" font-family="Helvetica,sans-Serif" font-size="10.00">include/prismspf/solvers</text>
<text text-anchor="middle" x="651.62" y="-203" font-family="Helvetica,sans-Serif" font-size="10.00">/explicit_solver.h</text>
</a>
</g>
</g>
<!-- Node11&#45;&gt;Node12 -->
<g id="edge12_Node000011_Node000012" class="edge">
<title>Node11&#45;&gt;Node12</title>
<g id="a_edge12_Node000011_Node000012"><a xlink:title=" ">
<path fill="none" stroke="#63b8ff" d="M446.66,-262.22C489.72,-251.98 542.46,-239.45 583.66,-229.65"/>
<polygon fill="#63b8ff" stroke="#63b8ff" points="446.04,-258.76 437.12,-264.48 447.66,-265.57 446.04,-258.76"/>
</a>
</g>
</g>
<!-- Node13 -->
<g id="Node000013" class="node">
<title>Node13</title>
<g id="a_Node000013"><a xlink:href="linear__helper_8h.html" target="_top" xlink:title=" ">
<polygon fill="white" stroke="#666666" points="527.25,-229.25 392,-229.25 392,-195.75 527.25,-195.75 527.25,-229.25"/>
<text text-anchor="start" x="400" y="-215.75" font-family="Helvetica,sans-Serif" font-size="10.00">include/prismspf/solvers</text>
<text text-anchor="middle" x="459.62" y="-203" font-family="Helvetica,sans-Serif" font-size="10.00">/linear_helper.h</text>
</a>
</g>
</g>
<!-- Node11&#45;&gt;Node13 -->
<g id="edge14_Node000011_Node000013" class="edge">
<title>Node11&#45;&gt;Node13</title>
<g id="a_edge14_Node000011_Node000013"><a xlink:title=" ">
<path fill="none" stroke="#63b8ff" d="M398.41,-258.41C411.27,-248.98 425.92,-238.23 437.66,-229.62"/>
<polygon fill="#63b8ff" stroke="#63b8ff" points="396.64,-255.37 390.65,-264.11 400.78,-261.01 396.64,-255.37"/>
</a>
</g>
</g>
<!-- Node14 -->
<g id="Node000014" class="node">
<title>Node14</title>
<g id="a_Node000014"><a xlink:href="mf__operator_8cc.html" target="_top" xlink:title=" ">
<polygon fill="white" stroke="#666666" points="335.75,-222.88 191.5,-222.88 191.5,-202.12 335.75,-202.12 335.75,-222.88"/>
<text text-anchor="middle" x="263.62" y="-209.38" font-family="Helvetica,sans-Serif" font-size="10.00">src/solvers/mf_operator.cc</text>
</a>
</g>
</g>
<!-- Node11&#45;&gt;Node14 -->
<g id="edge18_Node000011_Node000014" class="edge">
<title>Node11&#45;&gt;Node14</title>
<g id="a_edge18_Node000011_Node000014"><a xlink:title=" ">
<path fill="none" stroke="#63b8ff" d="M333.15,-258.62C314.68,-246.64 292.88,-232.49 278.68,-223.27"/>
<polygon fill="#63b8ff" stroke="#63b8ff" points="331.15,-261.5 341.44,-264.01 334.96,-255.63 331.15,-261.5"/>
</a>
</g>
</g>
<!-- Node12&#45;&gt;Node5 -->
<g id="edge13_Node000012_Node000005" class="edge">
<title>Node12&#45;&gt;Node5</title>
<g id="a_edge13_Node000012_Node000005"><a xlink:title=" ">
<path fill="none" stroke="#63b8ff" d="M629.46,-186.57C623.22,-178.47 616.96,-169.15 612.62,-159.75 602.14,-137.03 597.28,-108.19 595.14,-90.55"/>
<polygon fill="#63b8ff" stroke="#63b8ff" points="626.68,-188.7 635.7,-194.26 632.11,-184.29 626.68,-188.7"/>
</a>
</g>
</g>
<!-- Node16 -->
<g id="Node000016" class="node">
<title>Node16</title>
<g id="a_Node000016"><a xlink:href="problem_8h.html" target="_top" xlink:title=" ">
<polygon fill="white" stroke="#666666" points="1033.12,-229.25 912.12,-229.25 912.12,-195.75 1033.12,-195.75 1033.12,-229.25"/>
<text text-anchor="start" x="920.12" y="-215.75" font-family="Helvetica,sans-Serif" font-size="10.00">include/prismspf/core</text>
<text text-anchor="middle" x="972.62" y="-203" font-family="Helvetica,sans-Serif" font-size="10.00">/problem.h</text>
</a>
</g>
</g>
<!-- Node15&#45;&gt;Node16 -->
<g id="edge20_Node000015_Node000016" class="edge">
<title>Node15&#45;&gt;Node16</title>
<g id="a_edge20_Node000015_Node000016"><a xlink:title=" ">
<path fill="none" stroke="#63b8ff" d="M939.77,-394.86C957.1,-371.52 980.79,-335.01 990.62,-298.75 997.08,-274.95 988.02,-246.9 980.58,-229.66"/>
<polygon fill="#63b8ff" stroke="#63b8ff" points="936.99,-392.74 933.72,-402.81 942.56,-396.98 936.99,-392.74"/>
</a>
</g>
</g>
<!-- Node17 -->
<g id="Node000017" class="node">
<title>Node17</title>
<g id="a_Node000017"><a xlink:href="refinement__manager_8h.html" target="_top" xlink:title=" ">
<polygon fill="white" stroke="#666666" points="981.25,-298.75 852,-298.75 852,-265.25 981.25,-265.25 981.25,-298.75"/>
<text text-anchor="start" x="860" y="-285.25" font-family="Helvetica,sans-Serif" font-size="10.00">include/prismspf/core</text>
<text text-anchor="middle" x="916.62" y="-272.5" font-family="Helvetica,sans-Serif" font-size="10.00">/refinement_manager.h</text>
</a>
</g>
</g>
<!-- Node15&#45;&gt;Node17 -->
<g id="edge22_Node000015_Node000017" class="edge">
<title>Node15&#45;&gt;Node17</title>
<g id="a_edge22_Node000015_Node000017"><a xlink:title=" ">
<path fill="none" stroke="#63b8ff" d="M919.03,-392.62C918.41,-364.54 917.48,-321.82 916.97,-298.88"/>
<polygon fill="#63b8ff" stroke="#63b8ff" points="915.52,-392.58 919.24,-402.5 922.52,-392.43 915.52,-392.58"/>
</a>
</g>
</g>
<!-- Node15&#45;&gt;Node18 -->
<g id="edge24_Node000015_Node000018" class="edge">
<title>Node15&#45;&gt;Node18</title>
<g id="a_edge24_Node000015_Node000018"><a xlink:title=" ">
<path fill="none" stroke="#63b8ff" d="M998.89,-403.07C1045.44,-393.07 1105.41,-380.08 1158.62,-368.25 1161.26,-367.66 1163.96,-367.06 1166.68,-366.45"/>
<polygon fill="#63b8ff" stroke="#63b8ff" points="998.18,-399.64 989.14,-405.16 999.65,-406.49 998.18,-399.64"/>
</a>
</g>
</g>
<!-- Node15&#45;&gt;Node20 -->
<g id="edge28_Node000015_Node000020" class="edge">
<title>Node15&#45;&gt;Node20</title>
<g id="a_edge28_Node000015_Node000020"><a xlink:title=" ">
<path fill="none" stroke="#63b8ff" d="M966.85,-399.3C989.33,-389.45 1015.81,-377.84 1036.77,-368.65"/>
<polygon fill="#63b8ff" stroke="#63b8ff" points="965.65,-396 957.9,-403.22 968.46,-402.42 965.65,-396"/>
</a>
</g>
</g>
<!-- Node15&#45;&gt;Node21 -->
<g id="edge30_Node000015_Node000021" class="edge">
<title>Node15&#45;&gt;Node21</title>
<g id="a_edge30_Node000015_Node000021"><a xlink:title=" ">
<path fill="none" stroke="#63b8ff" d="M859.88,-400.23C829.52,-390.19 793.09,-378.13 764.44,-368.65"/>
<polygon fill="#63b8ff" stroke="#63b8ff" points="858.73,-403.54 869.32,-403.36 860.93,-396.89 858.73,-403.54"/>
</a>
</g>
</g>
<!-- Node16&#45;&gt;Node6 -->
<g id="edge21_Node000016_Node000006" class="edge">
<title>Node16&#45;&gt;Node6</title>
<g id="a_edge21_Node000016_Node000006"><a xlink:title=" ">
<path fill="none" stroke="#63b8ff" d="M953.97,-186.44C920.78,-141.86 852.88,-50.66 830.76,-20.96"/>
<polygon fill="#63b8ff" stroke="#63b8ff" points="951,-188.32 959.78,-194.25 956.62,-184.14 951,-188.32"/>
</a>
</g>
</g>
<!-- Node17&#45;&gt;Node16 -->
<g id="edge23_Node000017_Node000016" class="edge">
<title>Node17&#45;&gt;Node16</title>
<g id="a_edge23_Node000017_Node000016"><a xlink:title=" ">
<path fill="none" stroke="#63b8ff" d="M937.03,-256.41C944.51,-247.39 952.77,-237.43 959.45,-229.38"/>
<polygon fill="#63b8ff" stroke="#63b8ff" points="934.55,-253.91 930.86,-263.84 939.94,-258.38 934.55,-253.91"/>
</a>
</g>
</g>
<!-- Node18&#45;&gt;Node6 -->
<g id="edge26_Node000018_Node000006" class="edge">
<title>Node18&#45;&gt;Node6</title>
<g id="a_edge26_Node000018_Node000006"><a xlink:title=" ">
<path fill="none" stroke="#63b8ff" d="M1234.55,-323.56C1241,-296.08 1249.62,-252.11 1249.62,-213.5 1249.62,-213.5 1249.62,-213.5 1249.62,-142 1249.62,-65.42 994.79,-29.16 879.32,-16.66"/>
<polygon fill="#63b8ff" stroke="#63b8ff" points="1231.19,-322.59 1232.22,-333.13 1237.99,-324.24 1231.19,-322.59"/>
</a>
</g>
</g>
<!-- Node18&#45;&gt;Node18 -->
<g id="edge25_Node000018_Node000018" class="edge">
<title>Node18&#45;&gt;Node18</title>
<g id="a_edge25_Node000018_Node000018"><a xlink:title=" ">
<path fill="none" stroke="#63b8ff" d="M1299.34,-360.45C1303.58,-358.31 1306.12,-355.33 1306.12,-351.5 1306.12,-345.05 1298.92,-341 1288.52,-339.33"/>
<polygon fill="#63b8ff" stroke="#63b8ff" points="1298.56,-357.04 1289.97,-363.23 1300.55,-363.75 1298.56,-357.04"/>
</a>
</g>
</g>
<!-- Node19 -->
<g id="Node000019" class="node">
<title>Node19</title>
<g id="a_Node000019"><a xlink:href="solution__output_8cc.html" target="_top" xlink:title=" ">
<polygon fill="white" stroke="#666666" points="1221.88,-292.38 1075.38,-292.38 1075.38,-271.62 1221.88,-271.62 1221.88,-292.38"/>
<text text-anchor="middle" x="1148.62" y="-278.88" font-family="Helvetica,sans-Serif" font-size="10.00">src/core/solution_output.cc</text>
</a>
</g>
</g>
<!-- Node18&#45;&gt;Node19 -->
<g id="edge27_Node000018_Node000019" class="edge">
<title>Node18&#45;&gt;Node19</title>
<g id="a_edge27_Node000018_Node000019"><a xlink:title=" ">
<path fill="none" stroke="#63b8ff" d="M1200.26,-327.12C1186.52,-315.38 1170.61,-301.78 1160.12,-292.82"/>
<polygon fill="#63b8ff" stroke="#63b8ff" points="1197.88,-329.69 1207.75,-333.52 1202.42,-324.36 1197.88,-329.69"/>
</a>
</g>
</g>
<!-- Node20&#45;&gt;Node16 -->
<g id="edge29_Node000020_Node000016" class="edge">
<title>Node20&#45;&gt;Node16</title>
<g id="a_edge29_Node000020_Node000016"><a xlink:title=" ">
<path fill="none" stroke="#63b8ff" d="M1060.46,-324.32C1051.17,-306.88 1037.89,-283.85 1023.62,-265.25 1013.65,-252.24 1000.65,-239.1 990.27,-229.31"/>
<polygon fill="#63b8ff" stroke="#63b8ff" points="1057.27,-325.77 1064.99,-333.02 1063.47,-322.53 1057.27,-325.77"/>
</a>
</g>
</g>
<!-- Node21&#45;&gt;Node2 -->
<g id="edge36_Node000021_Node000002" class="edge">
<title>Node21&#45;&gt;Node2</title>
<g id="a_edge36_Node000021_Node000002"><a xlink:title=" ">
<path fill="none" stroke="#63b8ff" d="M636.46,-346.64C550.31,-341.1 409.03,-328.12 290.62,-298.75 221.63,-281.64 145,-249.19 101.92,-229.64"/>
<polygon fill="#63b8ff" stroke="#63b8ff" points="636.01,-350.12 646.21,-347.25 636.45,-343.13 636.01,-350.12"/>
</a>
</g>
</g>
<!-- Node21&#45;&gt;Node4 -->
<g id="edge38_Node000021_Node000004" class="edge">
<title>Node21&#45;&gt;Node4</title>
<g id="a_edge38_Node000021_Node000004"><a xlink:title=" ">
<path fill="none" stroke="#63b8ff" d="M636.72,-336.39C612.88,-328.72 588.36,-316.91 570.62,-298.75 536.95,-264.26 568.33,-232.06 536.62,-195.75 522.69,-179.78 502.69,-168.27 483.82,-160.22"/>
<polygon fill="#63b8ff" stroke="#63b8ff" points="635.57,-339.7 646.15,-339.2 637.57,-332.99 635.57,-339.7"/>
</a>
</g>
</g>
<!-- Node21&#45;&gt;Node6 -->
<g id="edge39_Node000021_Node000006" class="edge">
<title>Node21&#45;&gt;Node6</title>
<g id="a_edge39_Node000021_Node000006"><a xlink:title=" ">
<path fill="none" stroke="#63b8ff" d="M737.31,-325.77C757.87,-299.71 785.62,-256.56 785.62,-213.5 785.62,-213.5 785.62,-213.5 785.62,-142 785.62,-95 808.59,-42.14 818.81,-20.93"/>
<polygon fill="#63b8ff" stroke="#63b8ff" points="734.7,-323.43 731.09,-333.39 740.12,-327.86 734.7,-323.43"/>
</a>
</g>
</g>
<!-- Node21&#45;&gt;Node11 -->
<g id="edge37_Node000021_Node000011" class="edge">
<title>Node21&#45;&gt;Node11</title>
<g id="a_edge37_Node000021_Node000011"><a xlink:title=" ">
<path fill="none" stroke="#63b8ff" d="M636.66,-335.18C576.08,-323.43 493.34,-307.38 435.67,-296.2"/>
<polygon fill="#63b8ff" stroke="#63b8ff" points="635.73,-338.57 646.22,-337.04 637.06,-331.7 635.73,-338.57"/>
</a>
</g>
</g>
<!-- Node21&#45;&gt;Node12 -->
<g id="edge34_Node000021_Node000012" class="edge">
<title>Node21&#45;&gt;Node12</title>
<g id="a_edge34_Node000021_Node000012"><a xlink:title=" ">
<path fill="none" stroke="#63b8ff" d="M710.27,-323.23C706.26,-306.01 699.86,-283.64 690.62,-265.25 684.16,-252.38 674.41,-239.44 666.28,-229.72"/>
<polygon fill="#63b8ff" stroke="#63b8ff" points="706.85,-323.96 712.4,-332.98 713.69,-322.47 706.85,-323.96"/>
</a>
</g>
</g>
<!-- Node21&#45;&gt;Node13 -->
<g id="edge35_Node000021_Node000013" class="edge">
<title>Node21&#45;&gt;Node13</title>
<g id="a_edge35_Node000021_Node000013"><a xlink:title=" ">
<path fill="none" stroke="#63b8ff" d="M636.96,-337.36C604.52,-329.54 567.58,-317.38 537.62,-298.75 508.49,-280.63 483.48,-248.68 470.08,-229.46"/>
<polygon fill="#63b8ff" stroke="#63b8ff" points="635.77,-340.68 646.3,-339.51 637.34,-333.86 635.77,-340.68"/>
</a>
</g>
</g>
<!-- Node21&#45;&gt;Node17 -->
<g id="edge31_Node000021_Node000017" class="edge">
<title>Node21&#45;&gt;Node17</title>
<g id="a_edge31_Node000021_Node000017"><a xlink:title=" ">
<path fill="none" stroke="#63b8ff" d="M774.49,-330.73C804.41,-320.69 840.29,-308.63 868.53,-299.15"/>
<polygon fill="#63b8ff" stroke="#63b8ff" points="773.57,-327.35 765.2,-333.85 775.8,-333.98 773.57,-327.35"/>
</a>
</g>
</g>
<!-- Node22 -->
<g id="Node000022" class="node">
<title>Node22</title>
<g id="a_Node000022"><a xlink:href="constant__solver_8h.html" target="_top" xlink:title=" ">
<polygon fill="white" stroke="#666666" points="757.25,-159.75 622,-159.75 622,-126.25 757.25,-126.25 757.25,-159.75"/>
<text text-anchor="start" x="630" y="-146.25" font-family="Helvetica,sans-Serif" font-size="10.00">include/prismspf/solvers</text>
<text text-anchor="middle" x="689.62" y="-133.5" font-family="Helvetica,sans-Serif" font-size="10.00">/constant_solver.h</text>
</a>
</g>
</g>
<!-- Node21&#45;&gt;Node22 -->
<g id="edge32_Node000021_Node000022" class="edge">
<title>Node21&#45;&gt;Node22</title>
<g id="a_edge32_Node000021_Node000022"><a xlink:title=" ">
<path fill="none" stroke="#63b8ff" d="M724.2,-323.71C732.85,-292.23 743.04,-238.83 728.62,-195.75 724.13,-182.31 714.61,-169.56 706.1,-160.08"/>
<polygon fill="#63b8ff" stroke="#63b8ff" points="720.88,-322.6 721.44,-333.18 727.6,-324.56 720.88,-322.6"/>
</a>
</g>
</g>
<!-- Node23 -->
<g id="Node000023" class="node">
<title>Node23</title>
<g id="a_Node000023"><a xlink:href="solver__base_8cc.html" target="_top" xlink:title=" ">
<polygon fill="white" stroke="#666666" points="681.38,-298.75 579.88,-298.75 579.88,-265.25 681.38,-265.25 681.38,-298.75"/>
<text text-anchor="start" x="587.88" y="-285.25" font-family="Helvetica,sans-Serif" font-size="10.00">src/solvers/solver</text>
<text text-anchor="middle" x="630.62" y="-272.5" font-family="Helvetica,sans-Serif" font-size="10.00">_base.cc</text>
</a>
</g>
</g>
<!-- Node21&#45;&gt;Node23 -->
<g id="edge40_Node000021_Node000023" class="edge">
<title>Node21&#45;&gt;Node23</title>
<g id="a_edge40_Node000021_Node000023"><a xlink:title=" ">
<path fill="none" stroke="#63b8ff" d="M686.49,-327.36C674.78,-318.06 661.56,-307.56 650.92,-299.12"/>
<polygon fill="#63b8ff" stroke="#63b8ff" points="684.29,-330.08 694.3,-333.56 688.64,-324.6 684.29,-330.08"/>
</a>
</g>
</g>
<!-- Node22&#45;&gt;Node5 -->
<g id="edge33_Node000022_Node000005" class="edge">
<title>Node22&#45;&gt;Node5</title>
<g id="a_edge33_Node000022_Node000005"><a xlink:title=" ">
<path fill="none" stroke="#63b8ff" d="M657.5,-119.41C644.08,-109.98 628.8,-99.23 616.55,-90.62"/>
<polygon fill="#63b8ff" stroke="#63b8ff" points="655.44,-122.24 665.64,-125.13 659.47,-116.52 655.44,-122.24"/>
</a>
</g>
</g>
<!-- Node26&#45;&gt;Node20 -->
<g id="edge49_Node000026_Node000020" class="edge">
<title>Node26&#45;&gt;Node20</title>
<g id="a_edge49_Node000026_Node000020"><a xlink:title=" ">
<path fill="none" stroke="#63b8ff" d="M1073.62,-392.56C1073.62,-384.34 1073.62,-375.59 1073.62,-368.38"/>
<polygon fill="#63b8ff" stroke="#63b8ff" points="1070.13,-392.49 1073.63,-402.49 1077.13,-392.49 1070.13,-392.49"/>
</a>
</g>
</g>
</g>
</svg>
