<?xml version="1.0" encoding="UTF-8" standalone="no"?>
<!DOCTYPE svg PUBLIC "-//W3C//DTD SVG 1.1//EN"
 "http://www.w3.org/Graphics/SVG/1.1/DTD/svg11.dtd">
<!-- Generated by graphviz version 12.2.1 (20241206.2353)
 -->
<!-- Title: include/prismspf/user_inputs/linear_solve_parameters.h Pages: 1 -->
<svg width="902pt" height="250pt"
 viewBox="0.00 0.00 902.25 250.00" xmlns="http://www.w3.org/2000/svg" xmlns:xlink="http://www.w3.org/1999/xlink">
<g id="graph0" class="graph" transform="scale(1 1) rotate(0) translate(4 246)">
<title>include/prismspf/user_inputs/linear_solve_parameters.h</title>
<!-- Node1 -->
<g id="Node000001" class="node">
<title>Node1</title>
<g id="a_Node000001"><a xlink:title=" ">
<polygon fill="#999999" stroke="#666666" points="603.25,-242 482.25,-242 482.25,-195.75 603.25,-195.75 603.25,-242"/>
<text text-anchor="start" x="490.25" y="-228.5" font-family="Helvetica,sans-Serif" font-size="10.00">include/prismspf/user</text>
<text text-anchor="start" x="490.25" y="-215.75" font-family="Helvetica,sans-Serif" font-size="10.00">_inputs/linear_solve</text>
<text text-anchor="middle" x="542.75" y="-203" font-family="Helvetica,sans-Serif" font-size="10.00">_parameters.h</text>
</a>
</g>
</g>
<!-- Node2 -->
<g id="Node000002" class="node">
<title>Node2</title>
<g id="a_Node000002"><a xlink:title=" ">
<polygon fill="#e0e0e0" stroke="#999999" points="137.5,-153.38 0,-153.38 0,-132.62 137.5,-132.62 137.5,-153.38"/>
<text text-anchor="middle" x="68.75" y="-139.88" font-family="Helvetica,sans-Serif" font-size="10.00">deal.II/base/exceptions.h</text>
</a>
</g>
</g>
<!-- Node1&#45;&gt;Node2 -->
<g id="edge1_Node000001_Node000002" class="edge">
<title>Node1&#45;&gt;Node2</title>
<g id="a_edge1_Node000001_Node000002"><a xlink:title=" ">
<path fill="none" stroke="#63b8ff" d="M481.87,-209.97C403.99,-199.62 265.01,-180.35 146.75,-159.75 140.05,-158.58 133.05,-157.28 126.1,-155.94"/>
<polygon fill="#63b8ff" stroke="#63b8ff" points="127.25,-152.6 116.77,-154.11 125.9,-159.47 127.25,-152.6"/>
</a>
</g>
</g>
<!-- Node3 -->
<g id="Node000003" class="node">
<title>Node3</title>
<g id="a_Node000003"><a xlink:title=" ">
<polygon fill="#e0e0e0" stroke="#999999" points="291.75,-153.38 155.75,-153.38 155.75,-132.62 291.75,-132.62 291.75,-153.38"/>
<text text-anchor="middle" x="223.75" y="-139.88" font-family="Helvetica,sans-Serif" font-size="10.00">deal.II/lac/precondition.h</text>
</a>
</g>
</g>
<!-- Node1&#45;&gt;Node3 -->
<g id="edge2_Node000001_Node000003" class="edge">
<title>Node1&#45;&gt;Node3</title>
<g id="a_edge2_Node000001_Node000003"><a xlink:title=" ">
<path fill="none" stroke="#63b8ff" d="M482,-203.81C422.81,-190.1 333.7,-169.46 277.15,-156.37"/>
<polygon fill="#63b8ff" stroke="#63b8ff" points="277.96,-152.96 267.42,-154.11 276.38,-159.78 277.96,-152.96"/>
</a>
</g>
</g>
<!-- Node4 -->
<g id="Node000004" class="node">
<title>Node4</title>
<g id="a_Node000004"><a xlink:title=" ">
<polygon fill="#e0e0e0" stroke="#999999" points="405.88,-159.75 309.62,-159.75 309.62,-126.25 405.88,-126.25 405.88,-159.75"/>
<text text-anchor="start" x="317.62" y="-146.25" font-family="Helvetica,sans-Serif" font-size="10.00">deal.II/lac/solver</text>
<text text-anchor="middle" x="357.75" y="-133.5" font-family="Helvetica,sans-Serif" font-size="10.00">_selector.h</text>
</a>
</g>
</g>
<!-- Node1&#45;&gt;Node4 -->
<g id="edge3_Node000001_Node000004" class="edge">
<title>Node1&#45;&gt;Node4</title>
<g id="a_edge3_Node000001_Node000004"><a xlink:title=" ">
<path fill="none" stroke="#63b8ff" d="M486.24,-195.31C461.64,-185.48 433.01,-174.05 409.03,-164.48"/>
<polygon fill="#63b8ff" stroke="#63b8ff" points="410.36,-161.24 399.77,-160.78 407.76,-167.74 410.36,-161.24"/>
</a>
</g>
</g>
<!-- Node5 -->
<g id="Node000005" class="node">
<title>Node5</title>
<g id="a_Node000005"><a xlink:href="conditional__ostreams_8h.html" target="_top" xlink:title=" ">
<polygon fill="white" stroke="#666666" points="563.62,-159.75 423.88,-159.75 423.88,-126.25 563.62,-126.25 563.62,-159.75"/>
<text text-anchor="start" x="431.88" y="-146.25" font-family="Helvetica,sans-Serif" font-size="10.00">prismspf/core/conditional</text>
<text text-anchor="middle" x="493.75" y="-133.5" font-family="Helvetica,sans-Serif" font-size="10.00">_ostreams.h</text>
</a>
</g>
</g>
<!-- Node1&#45;&gt;Node5 -->
<g id="edge4_Node000001_Node000005" class="edge">
<title>Node1&#45;&gt;Node5</title>
<g id="a_edge4_Node000001_Node000005"><a xlink:title=" ">
<path fill="none" stroke="#63b8ff" d="M527.78,-195.31C522.36,-187.14 516.2,-177.85 510.63,-169.45"/>
<polygon fill="#63b8ff" stroke="#63b8ff" points="513.71,-167.76 505.27,-161.37 507.88,-171.63 513.71,-167.76"/>
</a>
</g>
</g>
<!-- Node7 -->
<g id="Node000007" class="node">
<title>Node7</title>
<g id="a_Node000007"><a xlink:title=" ">
<polygon fill="#e0e0e0" stroke="#999999" points="660.75,-20.75 560.75,-20.75 560.75,0 660.75,0 660.75,-20.75"/>
<text text-anchor="middle" x="610.75" y="-7.25" font-family="Helvetica,sans-Serif" font-size="10.00">prismspf/config.h</text>
</a>
</g>
</g>
<!-- Node1&#45;&gt;Node7 -->
<g id="edge15_Node000001_Node000007" class="edge">
<title>Node1&#45;&gt;Node7</title>
<g id="a_edge15_Node000001_Node000007"><a xlink:title=" ">
<path fill="none" stroke="#63b8ff" d="M555.8,-195.51C561.58,-184.92 568.11,-171.96 572.75,-159.75 589.55,-115.59 601.34,-61.24 606.98,-32.13"/>
<polygon fill="#63b8ff" stroke="#63b8ff" points="610.39,-32.94 608.79,-22.47 603.51,-31.65 610.39,-32.94"/>
</a>
</g>
</g>
<!-- Node8 -->
<g id="Node000008" class="node">
<title>Node8</title>
<g id="a_Node000008"><a xlink:href="type__enums_8h.html" target="_top" xlink:title=" ">
<polygon fill="white" stroke="#666666" points="891.5,-90.25 784,-90.25 784,-56.75 891.5,-56.75 891.5,-90.25"/>
<text text-anchor="start" x="792" y="-76.75" font-family="Helvetica,sans-Serif" font-size="10.00">prismspf/core/type</text>
<text text-anchor="middle" x="837.75" y="-64" font-family="Helvetica,sans-Serif" font-size="10.00">_enums.h</text>
</a>
</g>
</g>
<!-- Node1&#45;&gt;Node8 -->
<g id="edge7_Node000001_Node000008" class="edge">
<title>Node1&#45;&gt;Node8</title>
<g id="a_edge7_Node000001_Node000008"><a xlink:title=" ">
<path fill="none" stroke="#63b8ff" d="M603.71,-209.15C646.94,-201.04 705.13,-186.1 750.75,-159.75 758.17,-155.46 791.07,-122.43 814.21,-98.77"/>
<polygon fill="#63b8ff" stroke="#63b8ff" points="816.7,-101.23 821.18,-91.63 811.69,-96.34 816.7,-101.23"/>
</a>
</g>
</g>
<!-- Node11 -->
<g id="Node000011" class="node">
<title>Node11</title>
<g id="a_Node000011"><a xlink:href="types_8h.html" target="_top" xlink:title=" ">
<polygon fill="white" stroke="#666666" points="741.62,-153.38 619.88,-153.38 619.88,-132.62 741.62,-132.62 741.62,-153.38"/>
<text text-anchor="middle" x="680.75" y="-139.88" font-family="Helvetica,sans-Serif" font-size="10.00">prismspf/core/types.h</text>
</a>
</g>
</g>
<!-- Node1&#45;&gt;Node11 -->
<g id="edge11_Node000001_Node000011" class="edge">
<title>Node1&#45;&gt;Node11</title>
<g id="a_edge11_Node000001_Node000011"><a xlink:title=" ">
<path fill="none" stroke="#63b8ff" d="M584.9,-195.31C606.84,-183.57 633.07,-169.53 652.53,-159.1"/>
<polygon fill="#63b8ff" stroke="#63b8ff" points="654.09,-162.24 661.25,-154.44 650.78,-156.07 654.09,-162.24"/>
</a>
</g>
</g>
<!-- Node13 -->
<g id="Node000013" class="node">
<title>Node13</title>
<g id="a_Node000013"><a xlink:title=" ">
<polygon fill="#e0e0e0" stroke="#999999" points="835.62,-153.38 797.88,-153.38 797.88,-132.62 835.62,-132.62 835.62,-153.38"/>
<text text-anchor="middle" x="816.75" y="-139.88" font-family="Helvetica,sans-Serif" font-size="10.00">map</text>
</a>
</g>
</g>
<!-- Node1&#45;&gt;Node13 -->
<g id="edge16_Node000001_Node000013" class="edge">
<title>Node1&#45;&gt;Node13</title>
<g id="a_edge16_Node000001_Node000013"><a xlink:title=" ">
<path fill="none" stroke="#63b8ff" d="M603.69,-206.84C653.03,-197.04 723.92,-180.98 783.75,-159.75 784.92,-159.34 786.1,-158.89 787.28,-158.43"/>
<polygon fill="#63b8ff" stroke="#63b8ff" points="788.67,-161.64 796.45,-154.45 785.89,-155.22 788.67,-161.64"/>
</a>
</g>
</g>
<!-- Node6 -->
<g id="Node000006" class="node">
<title>Node6</title>
<g id="a_Node000006"><a xlink:title=" ">
<polygon fill="#e0e0e0" stroke="#999999" points="525.38,-90.25 396.12,-90.25 396.12,-56.75 525.38,-56.75 525.38,-90.25"/>
<text text-anchor="start" x="404.12" y="-76.75" font-family="Helvetica,sans-Serif" font-size="10.00">deal.II/base/conditional</text>
<text text-anchor="middle" x="460.75" y="-64" font-family="Helvetica,sans-Serif" font-size="10.00">_ostream.h</text>
</a>
</g>
</g>
<!-- Node5&#45;&gt;Node6 -->
<g id="edge5_Node000005_Node000006" class="edge">
<title>Node5&#45;&gt;Node6</title>
<g id="a_edge5_Node000005_Node000006"><a xlink:title=" ">
<path fill="none" stroke="#63b8ff" d="M485.93,-126C482.23,-118.44 477.72,-109.21 473.54,-100.66"/>
<polygon fill="#63b8ff" stroke="#63b8ff" points="476.72,-99.19 469.18,-91.74 470.43,-102.26 476.72,-99.19"/>
</a>
</g>
</g>
<!-- Node5&#45;&gt;Node7 -->
<g id="edge6_Node000005_Node000007" class="edge">
<title>Node5&#45;&gt;Node7</title>
<g id="a_edge6_Node000005_Node000007"><a xlink:title=" ">
<path fill="none" stroke="#63b8ff" d="M508.1,-125.98C529.94,-101.59 571.43,-55.27 594.41,-29.62"/>
<polygon fill="#63b8ff" stroke="#63b8ff" points="596.89,-32.09 600.96,-22.31 591.68,-27.42 596.89,-32.09"/>
</a>
</g>
</g>
<!-- Node8&#45;&gt;Node7 -->
<g id="edge8_Node000008_Node000007" class="edge">
<title>Node8&#45;&gt;Node7</title>
<g id="a_edge8_Node000008_Node000007"><a xlink:title=" ">
<path fill="none" stroke="#63b8ff" d="M783.67,-57.94C745.52,-47.66 694.9,-34.03 658.29,-24.18"/>
<polygon fill="#63b8ff" stroke="#63b8ff" points="659.44,-20.86 648.87,-21.64 657.62,-27.62 659.44,-20.86"/>
</a>
</g>
</g>
<!-- Node9 -->
<g id="Node000009" class="node">
<title>Node9</title>
<g id="a_Node000009"><a xlink:title=" ">
<polygon fill="#e0e0e0" stroke="#999999" points="894.25,-20.75 845.25,-20.75 845.25,0 894.25,0 894.25,-20.75"/>
<text text-anchor="middle" x="869.75" y="-7.25" font-family="Helvetica,sans-Serif" font-size="10.00">cstdint</text>
</a>
</g>
</g>
<!-- Node8&#45;&gt;Node9 -->
<g id="edge9_Node000008_Node000009" class="edge">
<title>Node8&#45;&gt;Node9</title>
<g id="a_edge9_Node000008_Node000009"><a xlink:title=" ">
<path fill="none" stroke="#63b8ff" d="M846.16,-56.44C850.18,-48.76 855.04,-39.48 859.3,-31.34"/>
<polygon fill="#63b8ff" stroke="#63b8ff" points="862.36,-33.04 863.9,-22.56 856.16,-29.79 862.36,-33.04"/>
</a>
</g>
</g>
<!-- Node10 -->
<g id="Node000010" class="node">
<title>Node10</title>
<g id="a_Node000010"><a xlink:title=" ">
<polygon fill="#e0e0e0" stroke="#999999" points="827.62,-20.75 783.88,-20.75 783.88,0 827.62,0 827.62,-20.75"/>
<text text-anchor="middle" x="805.75" y="-7.25" font-family="Helvetica,sans-Serif" font-size="10.00">string</text>
</a>
</g>
</g>
<!-- Node8&#45;&gt;Node10 -->
<g id="edge10_Node000008_Node000010" class="edge">
<title>Node8&#45;&gt;Node10</title>
<g id="a_edge10_Node000008_Node000010"><a xlink:title=" ">
<path fill="none" stroke="#63b8ff" d="M829.34,-56.44C825.32,-48.76 820.46,-39.48 816.2,-31.34"/>
<polygon fill="#63b8ff" stroke="#63b8ff" points="819.34,-29.79 811.6,-22.56 813.14,-33.04 819.34,-29.79"/>
</a>
</g>
</g>
<!-- Node11&#45;&gt;Node7 -->
<g id="edge14_Node000011_Node000007" class="edge">
<title>Node11&#45;&gt;Node7</title>
<g id="a_edge14_Node000011_Node000007"><a xlink:title=" ">
<path fill="none" stroke="#63b8ff" d="M674.3,-132.26C667.6,-121.99 656.97,-105.26 648.75,-90.25 637.99,-70.62 627.04,-47.48 619.67,-31.35"/>
<polygon fill="#63b8ff" stroke="#63b8ff" points="622.93,-30.06 615.62,-22.39 616.55,-32.94 622.93,-30.06"/>
</a>
</g>
</g>
<!-- Node11&#45;&gt;Node8 -->
<g id="edge13_Node000011_Node000008" class="edge">
<title>Node11&#45;&gt;Node8</title>
<g id="a_edge13_Node000011_Node000008"><a xlink:title=" ">
<path fill="none" stroke="#63b8ff" d="M703.58,-132.18C726.08,-122.51 761.14,-107.44 789.78,-95.12"/>
<polygon fill="#63b8ff" stroke="#63b8ff" points="790.81,-98.49 798.61,-91.33 788.05,-92.06 790.81,-98.49"/>
</a>
</g>
</g>
<!-- Node12 -->
<g id="Node000012" class="node">
<title>Node12</title>
<g id="a_Node000012"><a xlink:title=" ">
<polygon fill="#e0e0e0" stroke="#999999" points="765.88,-90.25 657.62,-90.25 657.62,-56.75 765.88,-56.75 765.88,-90.25"/>
<text text-anchor="start" x="665.62" y="-76.75" font-family="Helvetica,sans-Serif" font-size="10.00">deal.II/matrix_free</text>
<text text-anchor="middle" x="711.75" y="-64" font-family="Helvetica,sans-Serif" font-size="10.00">/evaluation_flags.h</text>
</a>
</g>
</g>
<!-- Node11&#45;&gt;Node12 -->
<g id="edge12_Node000011_Node000012" class="edge">
<title>Node11&#45;&gt;Node12</title>
<g id="a_edge12_Node000011_Node000012"><a xlink:title=" ">
<path fill="none" stroke="#63b8ff" d="M685.19,-132.33C688.93,-124.18 694.47,-112.13 699.52,-101.13"/>
<polygon fill="#63b8ff" stroke="#63b8ff" points="702.7,-102.59 703.69,-92.04 696.34,-99.67 702.7,-102.59"/>
</a>
</g>
</g>
</g>
</svg>
