<?xml version="1.0" encoding="UTF-8" standalone="no"?>
<!DOCTYPE svg PUBLIC "-//W3C//DTD SVG 1.1//EN"
 "http://www.w3.org/Graphics/SVG/1.1/DTD/svg11.dtd">
<!-- Generated by graphviz version 12.2.1 (20241206.2353)
 -->
<!-- Title: include/prismspf/user_inputs/load_initial_condition_parameters.h Pages: 1 -->
<svg width="1248pt" height="667pt"
 viewBox="0.00 0.00 1248.12 667.00" xmlns="http://www.w3.org/2000/svg" xmlns:xlink="http://www.w3.org/1999/xlink">
<g id="graph0" class="graph" transform="scale(1 1) rotate(0) translate(4 663)">
<title>include/prismspf/user_inputs/load_initial_condition_parameters.h</title>
<!-- Node1 -->
<g id="Node000001" class="node">
<title>Node1</title>
<g id="a_Node000001"><a xlink:title=" ">
<polygon fill="#999999" stroke="#666666" points="1192.38,-659 1055.62,-659 1055.62,-612.75 1192.38,-612.75 1192.38,-659"/>
<text text-anchor="start" x="1063.62" y="-645.5" font-family="Helvetica,sans-Serif" font-size="10.00">include/prismspf/user</text>
<text text-anchor="start" x="1063.62" y="-632.75" font-family="Helvetica,sans-Serif" font-size="10.00">_inputs/load_initial</text>
<text text-anchor="middle" x="1124" y="-620" font-family="Helvetica,sans-Serif" font-size="10.00">_condition_parameters.h</text>
</a>
</g>
</g>
<!-- Node2 -->
<g id="Node000002" class="node">
<title>Node2</title>
<g id="a_Node000002"><a xlink:href="read__field__base_8h.html" target="_top" xlink:title=" ">
<polygon fill="white" stroke="#666666" points="1191.25,-576.75 1056.75,-576.75 1056.75,-543.25 1191.25,-543.25 1191.25,-576.75"/>
<text text-anchor="start" x="1064.75" y="-563.25" font-family="Helvetica,sans-Serif" font-size="10.00">include/prismspf/field</text>
<text text-anchor="middle" x="1124" y="-550.5" font-family="Helvetica,sans-Serif" font-size="10.00">_input/read_field_base.h</text>
</a>
</g>
</g>
<!-- Node1&#45;&gt;Node2 -->
<g id="edge1_Node000001_Node000002" class="edge">
<title>Node1&#45;&gt;Node2</title>
<g id="a_edge1_Node000001_Node000002"><a xlink:title=" ">
<path fill="none" stroke="#63b8ff" d="M1124,-600.89C1124,-592.6 1124,-584.11 1124,-577.1"/>
<polygon fill="#63b8ff" stroke="#63b8ff" points="1120.5,-600.8 1124,-610.8 1127.5,-600.8 1120.5,-600.8"/>
</a>
</g>
</g>
<!-- Node4 -->
<g id="Node000004" class="node">
<title>Node4</title>
<g id="a_Node000004"><a xlink:href="read__field__factory_8h.html" target="_top" xlink:title=" ">
<polygon fill="white" stroke="#666666" points="1240.12,-437.75 1095.88,-437.75 1095.88,-404.25 1240.12,-404.25 1240.12,-437.75"/>
<text text-anchor="start" x="1103.88" y="-424.25" font-family="Helvetica,sans-Serif" font-size="10.00">include/prismspf/field</text>
<text text-anchor="middle" x="1168" y="-411.5" font-family="Helvetica,sans-Serif" font-size="10.00">_input/read_field_factory.h</text>
</a>
</g>
</g>
<!-- Node1&#45;&gt;Node4 -->
<g id="edge7_Node000001_Node000004" class="edge">
<title>Node1&#45;&gt;Node4</title>
<g id="a_edge7_Node000001_Node000004"><a xlink:title=" ">
<path fill="none" stroke="#63b8ff" d="M1173.88,-605.65C1183.99,-597.52 1193.5,-587.83 1200,-576.75 1223.27,-537.08 1225.38,-517.1 1210,-473.75 1205.13,-460.01 1194.88,-447.26 1185.72,-437.85"/>
<polygon fill="#63b8ff" stroke="#63b8ff" points="1172.02,-602.68 1166.12,-611.48 1176.22,-608.28 1172.02,-602.68"/>
</a>
</g>
</g>
<!-- Node7 -->
<g id="Node000007" class="node">
<title>Node7</title>
<g id="a_Node000007"><a xlink:href="user__input__parameters_8h.html" target="_top" xlink:title=" ">
<polygon fill="white" stroke="#666666" points="561.88,-576.75 386.12,-576.75 386.12,-543.25 561.88,-543.25 561.88,-576.75"/>
<text text-anchor="start" x="394.12" y="-563.25" font-family="Helvetica,sans-Serif" font-size="10.00">include/prismspf/user</text>
<text text-anchor="middle" x="474" y="-550.5" font-family="Helvetica,sans-Serif" font-size="10.00">_inputs/user_input_parameters.h</text>
</a>
</g>
</g>
<!-- Node1&#45;&gt;Node7 -->
<g id="edge8_Node000001_Node000007" class="edge">
<title>Node1&#45;&gt;Node7</title>
<g id="a_edge8_Node000001_Node000007"><a xlink:title=" ">
<path fill="none" stroke="#63b8ff" d="M1044.24,-625.81C922.02,-611.92 689.22,-585.46 562.14,-571.02"/>
<polygon fill="#63b8ff" stroke="#63b8ff" points="1043.53,-629.25 1053.86,-626.9 1044.32,-622.3 1043.53,-629.25"/>
</a>
</g>
</g>
<!-- Node3 -->
<g id="Node000003" class="node">
<title>Node3</title>
<g id="a_Node000003"><a xlink:href="read__binary_8h.html" target="_top" xlink:title=" ">
<polygon fill="white" stroke="#666666" points="1184.5,-507.25 1063.5,-507.25 1063.5,-473.75 1184.5,-473.75 1184.5,-507.25"/>
<text text-anchor="start" x="1071.5" y="-493.75" font-family="Helvetica,sans-Serif" font-size="10.00">include/prismspf/field</text>
<text text-anchor="middle" x="1124" y="-481" font-family="Helvetica,sans-Serif" font-size="10.00">_input/read_binary.h</text>
</a>
</g>
</g>
<!-- Node2&#45;&gt;Node3 -->
<g id="edge2_Node000002_Node000003" class="edge">
<title>Node2&#45;&gt;Node3</title>
<g id="a_edge2_Node000002_Node000003"><a xlink:title=" ">
<path fill="none" stroke="#63b8ff" d="M1124,-531.56C1124,-523.34 1124,-514.59 1124,-507.38"/>
<polygon fill="#63b8ff" stroke="#63b8ff" points="1120.5,-531.49 1124,-541.49 1127.5,-531.49 1120.5,-531.49"/>
</a>
</g>
</g>
<!-- Node2&#45;&gt;Node4 -->
<g id="edge5_Node000002_Node000004" class="edge">
<title>Node2&#45;&gt;Node4</title>
<g id="a_edge5_Node000002_Node000004"><a xlink:title=" ">
<path fill="none" stroke="#63b8ff" d="M1167.35,-536.57C1178.01,-528.82 1188.05,-519.04 1194,-507.25 1205.5,-484.45 1191.37,-455.63 1179.88,-438.02"/>
<polygon fill="#63b8ff" stroke="#63b8ff" points="1165.56,-533.57 1159.18,-542.03 1169.44,-539.39 1165.56,-533.57"/>
</a>
</g>
</g>
<!-- Node6 -->
<g id="Node000006" class="node">
<title>Node6</title>
<g id="a_Node000006"><a xlink:href="read__vtk_8h.html" target="_top" xlink:title=" ">
<polygon fill="white" stroke="#666666" points="1045.5,-507.25 924.5,-507.25 924.5,-473.75 1045.5,-473.75 1045.5,-507.25"/>
<text text-anchor="start" x="932.5" y="-493.75" font-family="Helvetica,sans-Serif" font-size="10.00">include/prismspf/field</text>
<text text-anchor="middle" x="985" y="-481" font-family="Helvetica,sans-Serif" font-size="10.00">_input/read_vtk.h</text>
</a>
</g>
</g>
<!-- Node2&#45;&gt;Node6 -->
<g id="edge6_Node000002_Node000006" class="edge">
<title>Node2&#45;&gt;Node6</title>
<g id="a_edge6_Node000002_Node000006"><a xlink:title=" ">
<path fill="none" stroke="#63b8ff" d="M1080.51,-537.88C1060.32,-528.08 1036.71,-516.61 1018.02,-507.54"/>
<polygon fill="#63b8ff" stroke="#63b8ff" points="1078.82,-540.95 1089.34,-542.17 1081.88,-534.65 1078.82,-540.95"/>
</a>
</g>
</g>
<!-- Node3&#45;&gt;Node4 -->
<g id="edge3_Node000003_Node000004" class="edge">
<title>Node3&#45;&gt;Node4</title>
<g id="a_edge3_Node000003_Node000004"><a xlink:title=" ">
<path fill="none" stroke="#63b8ff" d="M1140.58,-464.06C1146.31,-455.27 1152.56,-445.68 1157.65,-437.88"/>
<polygon fill="#63b8ff" stroke="#63b8ff" points="1137.78,-461.95 1135.25,-472.24 1143.65,-465.77 1137.78,-461.95"/>
</a>
</g>
</g>
<!-- Node5 -->
<g id="Node000005" class="node">
<title>Node5</title>
<g id="a_Node000005"><a xlink:href="initial__conditions_8cc.html" target="_top" xlink:title=" ">
<polygon fill="white" stroke="#666666" points="1031,-361.88 877,-361.88 877,-341.12 1031,-341.12 1031,-361.88"/>
<text text-anchor="middle" x="954" y="-348.38" font-family="Helvetica,sans-Serif" font-size="10.00">src/core/initial_conditions.cc</text>
</a>
</g>
</g>
<!-- Node4&#45;&gt;Node5 -->
<g id="edge4_Node000004_Node000005" class="edge">
<title>Node4&#45;&gt;Node5</title>
<g id="a_edge4_Node000004_Node000005"><a xlink:title=" ">
<path fill="none" stroke="#63b8ff" d="M1105.88,-400.41C1066.34,-387.94 1016.82,-372.32 985.29,-362.37"/>
<polygon fill="#63b8ff" stroke="#63b8ff" points="1104.71,-403.71 1115.3,-403.38 1106.81,-397.03 1104.71,-403.71"/>
</a>
</g>
</g>
<!-- Node8 -->
<g id="Node000008" class="node">
<title>Node8</title>
<g id="a_Node000008"><a xlink:href="pde__operator__base_8h.html" target="_top" xlink:title=" ">
<polygon fill="white" stroke="#666666" points="604.5,-507.25 483.5,-507.25 483.5,-473.75 604.5,-473.75 604.5,-507.25"/>
<text text-anchor="start" x="491.5" y="-493.75" font-family="Helvetica,sans-Serif" font-size="10.00">include/prismspf/core</text>
<text text-anchor="middle" x="544" y="-481" font-family="Helvetica,sans-Serif" font-size="10.00">/pde_operator_base.h</text>
</a>
</g>
</g>
<!-- Node7&#45;&gt;Node8 -->
<g id="edge9_Node000007_Node000008" class="edge">
<title>Node7&#45;&gt;Node8</title>
<g id="a_edge9_Node000007_Node000008"><a xlink:title=" ">
<path fill="none" stroke="#63b8ff" d="M498.63,-535.25C508.2,-526.02 518.92,-515.69 527.53,-507.38"/>
<polygon fill="#63b8ff" stroke="#63b8ff" points="496.45,-532.49 491.68,-541.95 501.31,-537.53 496.45,-532.49"/>
</a>
</g>
</g>
<!-- Node12 -->
<g id="Node000012" class="node">
<title>Node12</title>
<g id="a_Node000012"><a xlink:href="problem_8cc.html" target="_top" xlink:title=" ">
<polygon fill="white" stroke="#666666" points="359.62,-20.75 248.38,-20.75 248.38,0 359.62,0 359.62,-20.75"/>
<text text-anchor="middle" x="304" y="-7.25" font-family="Helvetica,sans-Serif" font-size="10.00">src/core/problem.cc</text>
</a>
</g>
</g>
<!-- Node7&#45;&gt;Node12 -->
<g id="edge52_Node000007_Node000012" class="edge">
<title>Node7&#45;&gt;Node12</title>
<g id="a_edge52_Node000007_Node000012"><a xlink:title=" ">
<path fill="none" stroke="#63b8ff" d="M374.6,-550.45C235.61,-535.7 0,-499.3 0,-422 0,-422 0,-422 0,-142 0,-35.3 160.05,-14.67 247.89,-11.38"/>
<polygon fill="#63b8ff" stroke="#63b8ff" points="373.86,-553.89 384.17,-551.44 374.59,-546.93 373.86,-553.89"/>
</a>
</g>
</g>
<!-- Node17 -->
<g id="Node000017" class="node">
<title>Node17</title>
<g id="a_Node000017"><a xlink:href="solve__context_8h.html" target="_top" xlink:title=" ">
<polygon fill="white" stroke="#666666" points="470.62,-437.75 335.38,-437.75 335.38,-404.25 470.62,-404.25 470.62,-437.75"/>
<text text-anchor="start" x="343.38" y="-424.25" font-family="Helvetica,sans-Serif" font-size="10.00">include/prismspf/solvers</text>
<text text-anchor="middle" x="403" y="-411.5" font-family="Helvetica,sans-Serif" font-size="10.00">/solve_context.h</text>
</a>
</g>
</g>
<!-- Node7&#45;&gt;Node17 -->
<g id="edge47_Node000007_Node000017" class="edge">
<title>Node7&#45;&gt;Node17</title>
<g id="a_edge47_Node000007_Node000017"><a xlink:title=" ">
<path fill="none" stroke="#63b8ff" d="M460.59,-533.12C446.06,-505.08 423.33,-461.23 411.23,-437.88"/>
<polygon fill="#63b8ff" stroke="#63b8ff" points="457.31,-534.4 465.02,-541.67 463.53,-531.18 457.31,-534.4"/>
</a>
</g>
</g>
<!-- Node20 -->
<g id="Node000020" class="node">
<title>Node20</title>
<g id="a_Node000020"><a xlink:href="solution__output_8h.html" target="_top" xlink:title=" ">
<polygon fill="white" stroke="#666666" points="149.5,-368.25 28.5,-368.25 28.5,-334.75 149.5,-334.75 149.5,-368.25"/>
<text text-anchor="start" x="36.5" y="-354.75" font-family="Helvetica,sans-Serif" font-size="10.00">include/prismspf/core</text>
<text text-anchor="middle" x="89" y="-342" font-family="Helvetica,sans-Serif" font-size="10.00">/solution_output.h</text>
</a>
</g>
</g>
<!-- Node7&#45;&gt;Node20 -->
<g id="edge45_Node000007_Node000020" class="edge">
<title>Node7&#45;&gt;Node20</title>
<g id="a_edge45_Node000007_Node000020"><a xlink:title=" ">
<path fill="none" stroke="#63b8ff" d="M374.34,-548.05C308.27,-539.31 228.65,-525.52 200,-507.25 145.36,-472.41 109.32,-400.21 95.43,-368.28"/>
<polygon fill="#63b8ff" stroke="#63b8ff" points="373.8,-551.5 384.16,-549.32 374.69,-544.56 373.8,-551.5"/>
</a>
</g>
</g>
<!-- Node22 -->
<g id="Node000022" class="node">
<title>Node22</title>
<g id="a_Node000022"><a xlink:href="nucleation__manager_8h.html" target="_top" xlink:title=" ">
<polygon fill="white" stroke="#666666" points="336.5,-368.25 185.5,-368.25 185.5,-334.75 336.5,-334.75 336.5,-368.25"/>
<text text-anchor="start" x="193.5" y="-354.75" font-family="Helvetica,sans-Serif" font-size="10.00">include/prismspf/nucleation</text>
<text text-anchor="middle" x="261" y="-342" font-family="Helvetica,sans-Serif" font-size="10.00">/nucleation_manager.h</text>
</a>
</g>
</g>
<!-- Node7&#45;&gt;Node22 -->
<g id="edge46_Node000007_Node000022" class="edge">
<title>Node7&#45;&gt;Node22</title>
<g id="a_edge46_Node000007_Node000022"><a xlink:title=" ">
<path fill="none" stroke="#63b8ff" d="M374.72,-548.4C304.81,-535.11 216.12,-505.18 172,-437.75 163.85,-425.29 164.58,-417.16 172,-404.25 181.27,-388.14 197.7,-376.58 213.93,-368.53"/>
<polygon fill="#63b8ff" stroke="#63b8ff" points="373.82,-551.79 384.28,-550.12 375.06,-544.9 373.82,-551.79"/>
</a>
</g>
</g>
<!-- Node23 -->
<g id="Node000023" class="node">
<title>Node23</title>
<g id="a_Node000023"><a xlink:href="solver__base_8h.html" target="_top" xlink:title=" ">
<polygon fill="white" stroke="#666666" points="651.62,-368.25 516.38,-368.25 516.38,-334.75 651.62,-334.75 651.62,-368.25"/>
<text text-anchor="start" x="524.38" y="-354.75" font-family="Helvetica,sans-Serif" font-size="10.00">include/prismspf/solvers</text>
<text text-anchor="middle" x="584" y="-342" font-family="Helvetica,sans-Serif" font-size="10.00">/solver_base.h</text>
</a>
</g>
</g>
<!-- Node7&#45;&gt;Node23 -->
<g id="edge48_Node000007_Node000023" class="edge">
<title>Node7&#45;&gt;Node23</title>
<g id="a_edge48_Node000007_Node000023"><a xlink:title=" ">
<path fill="none" stroke="#63b8ff" d="M571.46,-538.54C587.71,-531.12 602.87,-521.02 614,-507.25 642.91,-471.48 638.86,-447.78 624,-404.25 619.38,-390.71 609.61,-377.96 600.89,-368.51"/>
<polygon fill="#63b8ff" stroke="#63b8ff" points="570.5,-535.15 562.63,-542.23 573.21,-541.6 570.5,-535.15"/>
</a>
</g>
</g>
<!-- Node27 -->
<g id="Node000027" class="node">
<title>Node27</title>
<g id="a_Node000027"><a xlink:href="periodic__distance_8h.html" target="_top" xlink:title=" ">
<polygon fill="white" stroke="#666666" points="317.38,-437.75 180.62,-437.75 180.62,-404.25 317.38,-404.25 317.38,-437.75"/>
<text text-anchor="start" x="188.62" y="-424.25" font-family="Helvetica,sans-Serif" font-size="10.00">include/prismspf/utilities</text>
<text text-anchor="middle" x="249" y="-411.5" font-family="Helvetica,sans-Serif" font-size="10.00">/periodic_distance.h</text>
</a>
</g>
</g>
<!-- Node7&#45;&gt;Node27 -->
<g id="edge49_Node000007_Node000027" class="edge">
<title>Node7&#45;&gt;Node27</title>
<g id="a_edge49_Node000007_Node000027"><a xlink:title=" ">
<path fill="none" stroke="#63b8ff" d="M438.03,-537.1C392.66,-509.48 315.74,-462.64 275.43,-438.09"/>
<polygon fill="#63b8ff" stroke="#63b8ff" points="436.1,-540.02 446.46,-542.23 439.74,-534.04 436.1,-540.02"/>
</a>
</g>
</g>
<!-- Node28 -->
<g id="Node000028" class="node">
<title>Node28</title>
<g id="a_Node000028"><a xlink:href="constraint__manager_8cc.html" target="_top" xlink:title=" ">
<polygon fill="white" stroke="#666666" points="767,-507.25 661,-507.25 661,-473.75 767,-473.75 767,-507.25"/>
<text text-anchor="start" x="669" y="-493.75" font-family="Helvetica,sans-Serif" font-size="10.00">src/core/constraint</text>
<text text-anchor="middle" x="714" y="-481" font-family="Helvetica,sans-Serif" font-size="10.00">_manager.cc</text>
</a>
</g>
</g>
<!-- Node7&#45;&gt;Node28 -->
<g id="edge51_Node000007_Node000028" class="edge">
<title>Node7&#45;&gt;Node28</title>
<g id="a_edge51_Node000007_Node000028"><a xlink:title=" ">
<path fill="none" stroke="#63b8ff" d="M542.34,-539.78C579.9,-529.22 625.8,-516.31 660.68,-506.5"/>
<polygon fill="#63b8ff" stroke="#63b8ff" points="541.62,-536.35 532.94,-542.42 543.52,-543.08 541.62,-536.35"/>
</a>
</g>
</g>
<!-- Node29 -->
<g id="Node000029" class="node">
<title>Node29</title>
<g id="a_Node000029"><a xlink:href="user__input__parameters_8cc.html" target="_top" xlink:title=" ">
<polygon fill="white" stroke="#666666" points="906.5,-507.25 785.5,-507.25 785.5,-473.75 906.5,-473.75 906.5,-507.25"/>
<text text-anchor="start" x="793.5" y="-493.75" font-family="Helvetica,sans-Serif" font-size="10.00">src/user_inputs/user</text>
<text text-anchor="middle" x="846" y="-481" font-family="Helvetica,sans-Serif" font-size="10.00">_input_parameters.cc</text>
</a>
</g>
</g>
<!-- Node7&#45;&gt;Node29 -->
<g id="edge53_Node000007_Node000029" class="edge">
<title>Node7&#45;&gt;Node29</title>
<g id="a_edge53_Node000007_Node000029"><a xlink:title=" ">
<path fill="none" stroke="#63b8ff" d="M573.29,-543.31C632.32,-533.65 708.59,-520.6 776,-507.25 779.05,-506.65 782.18,-506.01 785.33,-505.35"/>
<polygon fill="#63b8ff" stroke="#63b8ff" points="572.9,-539.83 563.59,-544.89 574.03,-546.74 572.9,-539.83"/>
</a>
</g>
</g>
<!-- Node8&#45;&gt;Node5 -->
<g id="edge44_Node000008_Node000005" class="edge">
<title>Node8&#45;&gt;Node5</title>
<g id="a_edge44_Node000008_Node000005"><a xlink:title=" ">
<path fill="none" stroke="#63b8ff" d="M602.97,-469.79C692.06,-440.03 857.66,-384.69 924.7,-362.29"/>
<polygon fill="#63b8ff" stroke="#63b8ff" points="602.05,-466.41 593.67,-472.9 604.27,-473.05 602.05,-466.41"/>
</a>
</g>
</g>
<!-- Node9 -->
<g id="Node000009" class="node">
<title>Node9</title>
<g id="a_Node000009"><a xlink:href="mf__operator_8h.html" target="_top" xlink:title=" ">
<polygon fill="white" stroke="#666666" points="914.62,-298.75 779.38,-298.75 779.38,-265.25 914.62,-265.25 914.62,-298.75"/>
<text text-anchor="start" x="787.38" y="-285.25" font-family="Helvetica,sans-Serif" font-size="10.00">include/prismspf/solvers</text>
<text text-anchor="middle" x="847" y="-272.5" font-family="Helvetica,sans-Serif" font-size="10.00">/mf_operator.h</text>
</a>
</g>
</g>
<!-- Node8&#45;&gt;Node9 -->
<g id="edge10_Node000008_Node000009" class="edge">
<title>Node8&#45;&gt;Node9</title>
<g id="a_edge10_Node000008_Node000009"><a xlink:title=" ">
<path fill="none" stroke="#63b8ff" d="M578.71,-467.39C592.83,-458.31 609.26,-447.63 624,-437.75 697.99,-388.17 784.28,-327.45 824.37,-299.06"/>
<polygon fill="#63b8ff" stroke="#63b8ff" points="577.16,-464.23 570.63,-472.58 580.94,-470.12 577.16,-464.23"/>
</a>
</g>
</g>
<!-- Node8&#45;&gt;Node17 -->
<g id="edge21_Node000008_Node000017" class="edge">
<title>Node8&#45;&gt;Node17</title>
<g id="a_edge21_Node000008_Node000017"><a xlink:title=" ">
<path fill="none" stroke="#63b8ff" d="M499.88,-468.38C479.4,-458.58 455.46,-447.11 436.5,-438.04"/>
<polygon fill="#63b8ff" stroke="#63b8ff" points="498.33,-471.52 508.86,-472.68 501.35,-465.2 498.33,-471.52"/>
</a>
</g>
</g>
<!-- Node8&#45;&gt;Node23 -->
<g id="edge42_Node000008_Node000023" class="edge">
<title>Node8&#45;&gt;Node23</title>
<g id="a_edge42_Node000008_Node000023"><a xlink:title=" ">
<path fill="none" stroke="#63b8ff" d="M583.24,-466.77C593.16,-458.94 602.53,-449.2 608,-437.75 618.93,-414.86 605.8,-386.06 595.09,-368.48"/>
<polygon fill="#63b8ff" stroke="#63b8ff" points="581.34,-463.82 575.3,-472.53 585.45,-469.49 581.34,-463.82"/>
</a>
</g>
</g>
<!-- Node26 -->
<g id="Node000026" class="node">
<title>Node26</title>
<g id="a_Node000026"><a xlink:href="dirichlet_8cc.html" target="_top" xlink:title=" ">
<polygon fill="white" stroke="#666666" points="599.25,-431.38 488.75,-431.38 488.75,-410.62 599.25,-410.62 599.25,-431.38"/>
<text text-anchor="middle" x="544" y="-417.88" font-family="Helvetica,sans-Serif" font-size="10.00">src/core/dirichlet.cc</text>
</a>
</g>
</g>
<!-- Node8&#45;&gt;Node26 -->
<g id="edge43_Node000008_Node000026" class="edge">
<title>Node8&#45;&gt;Node26</title>
<g id="a_edge43_Node000008_Node000026"><a xlink:title=" ">
<path fill="none" stroke="#63b8ff" d="M544,-462.03C544,-451.33 544,-439.76 544,-431.82"/>
<polygon fill="#63b8ff" stroke="#63b8ff" points="540.5,-461.99 544,-471.99 547.5,-461.99 540.5,-461.99"/>
</a>
</g>
</g>
<!-- Node10 -->
<g id="Node000010" class="node">
<title>Node10</title>
<g id="a_Node000010"><a xlink:href="explicit__solver_8h.html" target="_top" xlink:title=" ">
<polygon fill="white" stroke="#666666" points="1076.62,-229.25 941.38,-229.25 941.38,-195.75 1076.62,-195.75 1076.62,-229.25"/>
<text text-anchor="start" x="949.38" y="-215.75" font-family="Helvetica,sans-Serif" font-size="10.00">include/prismspf/solvers</text>
<text text-anchor="middle" x="1009" y="-203" font-family="Helvetica,sans-Serif" font-size="10.00">/explicit_solver.h</text>
</a>
</g>
</g>
<!-- Node9&#45;&gt;Node10 -->
<g id="edge11_Node000009_Node000010" class="edge">
<title>Node9&#45;&gt;Node10</title>
<g id="a_edge11_Node000009_Node000010"><a xlink:title=" ">
<path fill="none" stroke="#63b8ff" d="M896.36,-260.43C920.07,-250.55 948.08,-238.88 970.23,-229.65"/>
<polygon fill="#63b8ff" stroke="#63b8ff" points="895.08,-257.17 887.2,-264.25 897.78,-263.63 895.08,-257.17"/>
</a>
</g>
</g>
<!-- Node14 -->
<g id="Node000014" class="node">
<title>Node14</title>
<g id="a_Node000014"><a xlink:href="linear__solver_8h.html" target="_top" xlink:title=" ">
<polygon fill="white" stroke="#666666" points="684.62,-229.25 549.38,-229.25 549.38,-195.75 684.62,-195.75 684.62,-229.25"/>
<text text-anchor="start" x="557.38" y="-215.75" font-family="Helvetica,sans-Serif" font-size="10.00">include/prismspf/solvers</text>
<text text-anchor="middle" x="617" y="-203" font-family="Helvetica,sans-Serif" font-size="10.00">/linear_solver.h</text>
</a>
</g>
</g>
<!-- Node9&#45;&gt;Node14 -->
<g id="edge15_Node000009_Node000014" class="edge">
<title>Node9&#45;&gt;Node14</title>
<g id="a_edge15_Node000009_Node000014"><a xlink:title=" ">
<path fill="none" stroke="#63b8ff" d="M780.98,-261.63C746.49,-251.5 704.77,-239.26 672.04,-229.65"/>
<polygon fill="#63b8ff" stroke="#63b8ff" points="779.88,-264.95 790.46,-264.41 781.85,-258.23 779.88,-264.95"/>
</a>
</g>
</g>
<!-- Node15 -->
<g id="Node000015" class="node">
<title>Node15</title>
<g id="a_Node000015"><a xlink:href="newton__solver_8h.html" target="_top" xlink:title=" ">
<polygon fill="white" stroke="#666666" points="794.62,-159.75 659.38,-159.75 659.38,-126.25 794.62,-126.25 794.62,-159.75"/>
<text text-anchor="start" x="667.38" y="-146.25" font-family="Helvetica,sans-Serif" font-size="10.00">include/prismspf/solvers</text>
<text text-anchor="middle" x="727" y="-133.5" font-family="Helvetica,sans-Serif" font-size="10.00">/newton_solver.h</text>
</a>
</g>
</g>
<!-- Node9&#45;&gt;Node15 -->
<g id="edge19_Node000009_Node000015" class="edge">
<title>Node9&#45;&gt;Node15</title>
<g id="a_edge19_Node000009_Node000015"><a xlink:title=" ">
<path fill="none" stroke="#63b8ff" d="M806.2,-259.11C793.51,-250.94 780.19,-240.8 770,-229.25 751.68,-208.49 738.96,-178.54 732.34,-160.22"/>
<polygon fill="#63b8ff" stroke="#63b8ff" points="804.08,-261.92 814.44,-264.18 807.75,-255.96 804.08,-261.92"/>
</a>
</g>
</g>
<!-- Node16 -->
<g id="Node000016" class="node">
<title>Node16</title>
<g id="a_Node000016"><a xlink:href="mf__operator_8cc.html" target="_top" xlink:title=" ">
<polygon fill="white" stroke="#666666" points="923.12,-222.88 778.88,-222.88 778.88,-202.12 923.12,-202.12 923.12,-222.88"/>
<text text-anchor="middle" x="851" y="-209.38" font-family="Helvetica,sans-Serif" font-size="10.00">src/solvers/mf_operator.cc</text>
</a>
</g>
</g>
<!-- Node9&#45;&gt;Node16 -->
<g id="edge20_Node000009_Node000016" class="edge">
<title>Node9&#45;&gt;Node16</title>
<g id="a_edge20_Node000009_Node000016"><a xlink:title=" ">
<path fill="none" stroke="#63b8ff" d="M848.63,-253.53C849.26,-242.83 849.95,-231.26 850.42,-223.32"/>
<polygon fill="#63b8ff" stroke="#63b8ff" points="845.14,-253.3 848.04,-263.49 852.12,-253.72 845.14,-253.3"/>
</a>
</g>
</g>
<!-- Node11 -->
<g id="Node000011" class="node">
<title>Node11</title>
<g id="a_Node000011"><a xlink:href="solvers_8h.html" target="_top" xlink:title=" ">
<polygon fill="white" stroke="#666666" points="698.62,-90.25 563.38,-90.25 563.38,-56.75 698.62,-56.75 698.62,-90.25"/>
<text text-anchor="start" x="571.38" y="-76.75" font-family="Helvetica,sans-Serif" font-size="10.00">include/prismspf/solvers</text>
<text text-anchor="middle" x="631" y="-64" font-family="Helvetica,sans-Serif" font-size="10.00">/solvers.h</text>
</a>
</g>
</g>
<!-- Node10&#45;&gt;Node11 -->
<g id="edge12_Node000010_Node000011" class="edge">
<title>Node10&#45;&gt;Node11</title>
<g id="a_edge12_Node000010_Node000011"><a xlink:title=" ">
<path fill="none" stroke="#63b8ff" d="M962.63,-190.6C921.42,-172.42 859.33,-145.97 804,-126.25 766.79,-112.99 724.3,-100.24 690.74,-90.72"/>
<polygon fill="#63b8ff" stroke="#63b8ff" points="961.21,-193.8 971.77,-194.65 964.04,-187.4 961.21,-193.8"/>
</a>
</g>
</g>
<!-- Node11&#45;&gt;Node12 -->
<g id="edge13_Node000011_Node000012" class="edge">
<title>Node11&#45;&gt;Node12</title>
<g id="a_edge13_Node000011_Node000012"><a xlink:title=" ">
<path fill="none" stroke="#63b8ff" d="M552.19,-57.77C491.55,-46.43 409.46,-31.09 356.61,-21.21"/>
<polygon fill="#63b8ff" stroke="#63b8ff" points="551.28,-61.16 561.76,-59.56 552.57,-54.28 551.28,-61.16"/>
</a>
</g>
</g>
<!-- Node13 -->
<g id="Node000013" class="node">
<title>Node13</title>
<g id="a_Node000013"><a xlink:href="solvers_8cc.html" target="_top" xlink:title=" ">
<polygon fill="white" stroke="#666666" points="691.12,-20.75 570.88,-20.75 570.88,0 691.12,0 691.12,-20.75"/>
<text text-anchor="middle" x="631" y="-7.25" font-family="Helvetica,sans-Serif" font-size="10.00">src/solvers/solvers.cc</text>
</a>
</g>
</g>
<!-- Node11&#45;&gt;Node13 -->
<g id="edge14_Node000011_Node000013" class="edge">
<title>Node11&#45;&gt;Node13</title>
<g id="a_edge14_Node000011_Node000013"><a xlink:title=" ">
<path fill="none" stroke="#63b8ff" d="M631,-44.94C631,-36.46 631,-27.67 631,-21.22"/>
<polygon fill="#63b8ff" stroke="#63b8ff" points="627.5,-44.93 631,-54.93 634.5,-44.93 627.5,-44.93"/>
</a>
</g>
</g>
<!-- Node14&#45;&gt;Node11 -->
<g id="edge18_Node000014_Node000011" class="edge">
<title>Node14&#45;&gt;Node11</title>
<g id="a_edge18_Node000014_Node000011"><a xlink:title=" ">
<path fill="none" stroke="#63b8ff" d="M619.8,-184.12C622.67,-156.04 627.03,-113.32 629.38,-90.38"/>
<polygon fill="#63b8ff" stroke="#63b8ff" points="616.32,-183.71 618.79,-194.01 623.29,-184.42 616.32,-183.71"/>
</a>
</g>
</g>
<!-- Node14&#45;&gt;Node15 -->
<g id="edge16_Node000014_Node000015" class="edge">
<title>Node14&#45;&gt;Node15</title>
<g id="a_edge16_Node000014_Node000015"><a xlink:title=" ">
<path fill="none" stroke="#63b8ff" d="M652.74,-189.57C668.42,-179.95 686.48,-168.86 700.87,-160.04"/>
<polygon fill="#63b8ff" stroke="#63b8ff" points="651.33,-186.33 644.64,-194.54 654.99,-192.29 651.33,-186.33"/>
</a>
</g>
</g>
<!-- Node15&#45;&gt;Node11 -->
<g id="edge17_Node000015_Node000011" class="edge">
<title>Node15&#45;&gt;Node11</title>
<g id="a_edge17_Node000015_Node000011"><a xlink:title=" ">
<path fill="none" stroke="#63b8ff" d="M694.88,-119.41C681.46,-109.98 666.17,-99.23 653.92,-90.62"/>
<polygon fill="#63b8ff" stroke="#63b8ff" points="692.82,-122.24 703.01,-125.13 696.84,-116.52 692.82,-122.24"/>
</a>
</g>
</g>
<!-- Node18 -->
<g id="Node000018" class="node">
<title>Node18</title>
<g id="a_Node000018"><a xlink:href="problem_8h.html" target="_top" xlink:title=" ">
<polygon fill="white" stroke="#666666" points="364.5,-229.25 243.5,-229.25 243.5,-195.75 364.5,-195.75 364.5,-229.25"/>
<text text-anchor="start" x="251.5" y="-215.75" font-family="Helvetica,sans-Serif" font-size="10.00">include/prismspf/core</text>
<text text-anchor="middle" x="304" y="-203" font-family="Helvetica,sans-Serif" font-size="10.00">/problem.h</text>
</a>
</g>
</g>
<!-- Node17&#45;&gt;Node18 -->
<g id="edge22_Node000017_Node000018" class="edge">
<title>Node17&#45;&gt;Node18</title>
<g id="a_edge22_Node000017_Node000018"><a xlink:title=" ">
<path fill="none" stroke="#63b8ff" d="M385.64,-394.77C363.44,-362.33 327.33,-308.95 323,-298.75 313.29,-275.86 308.22,-247.31 305.83,-229.75"/>
<polygon fill="#63b8ff" stroke="#63b8ff" points="382.64,-396.57 391.18,-402.84 388.41,-392.62 382.64,-396.57"/>
</a>
</g>
</g>
<!-- Node19 -->
<g id="Node000019" class="node">
<title>Node19</title>
<g id="a_Node000019"><a xlink:href="refinement__manager_8h.html" target="_top" xlink:title=" ">
<polygon fill="white" stroke="#666666" points="461.62,-298.75 332.38,-298.75 332.38,-265.25 461.62,-265.25 461.62,-298.75"/>
<text text-anchor="start" x="340.38" y="-285.25" font-family="Helvetica,sans-Serif" font-size="10.00">include/prismspf/core</text>
<text text-anchor="middle" x="397" y="-272.5" font-family="Helvetica,sans-Serif" font-size="10.00">/refinement_manager.h</text>
</a>
</g>
</g>
<!-- Node17&#45;&gt;Node19 -->
<g id="edge24_Node000017_Node000019" class="edge">
<title>Node17&#45;&gt;Node19</title>
<g id="a_edge24_Node000017_Node000019"><a xlink:title=" ">
<path fill="none" stroke="#63b8ff" d="M401.8,-392.62C400.57,-364.54 398.7,-321.82 397.7,-298.88"/>
<polygon fill="#63b8ff" stroke="#63b8ff" points="398.3,-392.67 402.23,-402.5 405.29,-392.36 398.3,-392.67"/>
</a>
</g>
</g>
<!-- Node17&#45;&gt;Node20 -->
<g id="edge26_Node000017_Node000020" class="edge">
<title>Node17&#45;&gt;Node20</title>
<g id="a_edge26_Node000017_Node000020"><a xlink:title=" ">
<path fill="none" stroke="#63b8ff" d="M324,-403.02C270.05,-391.42 199.62,-376.28 149.98,-365.61"/>
<polygon fill="#63b8ff" stroke="#63b8ff" points="323.26,-406.44 333.77,-405.12 324.73,-399.59 323.26,-406.44"/>
</a>
</g>
</g>
<!-- Node17&#45;&gt;Node22 -->
<g id="edge30_Node000017_Node000022" class="edge">
<title>Node17&#45;&gt;Node22</title>
<g id="a_edge30_Node000017_Node000022"><a xlink:title=" ">
<path fill="none" stroke="#63b8ff" d="M358.85,-399.01C338.17,-389.18 313.92,-377.66 294.74,-368.54"/>
<polygon fill="#63b8ff" stroke="#63b8ff" points="357.09,-402.05 367.62,-403.18 360.09,-395.73 357.09,-402.05"/>
</a>
</g>
</g>
<!-- Node17&#45;&gt;Node23 -->
<g id="edge32_Node000017_Node000023" class="edge">
<title>Node17&#45;&gt;Node23</title>
<g id="a_edge32_Node000017_Node000023"><a xlink:title=" ">
<path fill="none" stroke="#63b8ff" d="M457.08,-399.83C483.8,-389.87 515.6,-378.01 540.69,-368.65"/>
<polygon fill="#63b8ff" stroke="#63b8ff" points="455.92,-396.53 447.77,-403.3 458.36,-403.09 455.92,-396.53"/>
</a>
</g>
</g>
<!-- Node18&#45;&gt;Node12 -->
<g id="edge23_Node000018_Node000012" class="edge">
<title>Node18&#45;&gt;Node12</title>
<g id="a_edge23_Node000018_Node000012"><a xlink:title=" ">
<path fill="none" stroke="#63b8ff" d="M304,-184.16C304,-138.82 304,-50.17 304,-20.96"/>
<polygon fill="#63b8ff" stroke="#63b8ff" points="300.5,-183.95 304,-193.95 307.5,-183.95 300.5,-183.95"/>
</a>
</g>
</g>
<!-- Node19&#45;&gt;Node18 -->
<g id="edge25_Node000019_Node000018" class="edge">
<title>Node19&#45;&gt;Node18</title>
<g id="a_edge25_Node000019_Node000018"><a xlink:title=" ">
<path fill="none" stroke="#63b8ff" d="M365.88,-258.41C352.88,-248.98 338.07,-238.23 326.2,-229.62"/>
<polygon fill="#63b8ff" stroke="#63b8ff" points="363.59,-261.07 373.74,-264.11 367.7,-255.41 363.59,-261.07"/>
</a>
</g>
</g>
<!-- Node20&#45;&gt;Node12 -->
<g id="edge28_Node000020_Node000012" class="edge">
<title>Node20&#45;&gt;Node12</title>
<g id="a_edge28_Node000020_Node000012"><a xlink:title=" ">
<path fill="none" stroke="#63b8ff" d="M81.13,-323.62C73.8,-296.18 64,-252.25 64,-213.5 64,-213.5 64,-213.5 64,-142 64,-58.63 177.12,-28.16 248.03,-17.26"/>
<polygon fill="#63b8ff" stroke="#63b8ff" points="77.74,-324.48 83.78,-333.18 84.48,-322.61 77.74,-324.48"/>
</a>
</g>
</g>
<!-- Node20&#45;&gt;Node20 -->
<g id="edge27_Node000020_Node000020" class="edge">
<title>Node20&#45;&gt;Node20</title>
<g id="a_edge27_Node000020_Node000020"><a xlink:title=" ">
<path fill="none" stroke="#63b8ff" d="M160.72,-360.45C164.96,-358.31 167.5,-355.33 167.5,-351.5 167.5,-345.05 160.29,-341 149.89,-339.33"/>
<polygon fill="#63b8ff" stroke="#63b8ff" points="159.93,-357.04 151.34,-363.23 161.92,-363.75 159.93,-357.04"/>
</a>
</g>
</g>
<!-- Node21 -->
<g id="Node000021" class="node">
<title>Node21</title>
<g id="a_Node000021"><a xlink:href="solution__output_8cc.html" target="_top" xlink:title=" ">
<polygon fill="white" stroke="#666666" points="238.25,-292.38 91.75,-292.38 91.75,-271.62 238.25,-271.62 238.25,-292.38"/>
<text text-anchor="middle" x="165" y="-278.88" font-family="Helvetica,sans-Serif" font-size="10.00">src/core/solution_output.cc</text>
</a>
</g>
</g>
<!-- Node20&#45;&gt;Node21 -->
<g id="edge29_Node000020_Node000021" class="edge">
<title>Node20&#45;&gt;Node21</title>
<g id="a_edge29_Node000020_Node000021"><a xlink:title=" ">
<path fill="none" stroke="#63b8ff" d="M115.32,-327.12C128.54,-315.38 143.85,-301.78 153.94,-292.82"/>
<polygon fill="#63b8ff" stroke="#63b8ff" points="113.3,-324.24 108.14,-333.5 117.94,-329.47 113.3,-324.24"/>
</a>
</g>
</g>
<!-- Node22&#45;&gt;Node18 -->
<g id="edge31_Node000022_Node000018" class="edge">
<title>Node22&#45;&gt;Node18</title>
<g id="a_edge31_Node000022_Node000018"><a xlink:title=" ">
<path fill="none" stroke="#63b8ff" d="M269.36,-323.87C278.17,-295.81 291.75,-252.52 299.02,-229.38"/>
<polygon fill="#63b8ff" stroke="#63b8ff" points="266.13,-322.48 266.47,-333.07 272.8,-324.58 266.13,-322.48"/>
</a>
</g>
</g>
<!-- Node23&#45;&gt;Node9 -->
<g id="edge38_Node000023_Node000009" class="edge">
<title>Node23&#45;&gt;Node9</title>
<g id="a_edge38_Node000023_Node000009"><a xlink:title=" ">
<path fill="none" stroke="#63b8ff" d="M657.95,-331.52C697.69,-321.32 746.15,-308.88 784.06,-299.15"/>
<polygon fill="#63b8ff" stroke="#63b8ff" points="657.28,-328.08 648.46,-333.96 659.02,-334.86 657.28,-328.08"/>
</a>
</g>
</g>
<!-- Node23&#45;&gt;Node10 -->
<g id="edge36_Node000023_Node000010" class="edge">
<title>Node23&#45;&gt;Node10</title>
<g id="a_edge36_Node000023_Node000010"><a xlink:title=" ">
<path fill="none" stroke="#63b8ff" d="M663.32,-344.19C749.14,-336.35 879.65,-321.22 924,-298.75 956.25,-282.41 983.73,-249.22 998.16,-229.42"/>
<polygon fill="#63b8ff" stroke="#63b8ff" points="663.2,-340.68 653.55,-345.06 663.82,-347.66 663.2,-340.68"/>
</a>
</g>
</g>
<!-- Node23&#45;&gt;Node12 -->
<g id="edge40_Node000023_Node000012" class="edge">
<title>Node23&#45;&gt;Node12</title>
<g id="a_edge40_Node000023_Node000012"><a xlink:title=" ">
<path fill="none" stroke="#63b8ff" d="M563.57,-325.76C506.94,-257.17 349.66,-66.68 312.12,-21.21"/>
<polygon fill="#63b8ff" stroke="#63b8ff" points="560.84,-327.95 569.91,-333.43 566.24,-323.49 560.84,-327.95"/>
</a>
</g>
</g>
<!-- Node23&#45;&gt;Node14 -->
<g id="edge37_Node000023_Node000014" class="edge">
<title>Node23&#45;&gt;Node14</title>
<g id="a_edge37_Node000023_Node000014"><a xlink:title=" ">
<path fill="none" stroke="#63b8ff" d="M590.5,-323.5C597.27,-295.42 607.62,-252.42 613.17,-229.38"/>
<polygon fill="#63b8ff" stroke="#63b8ff" points="587.14,-322.5 588.2,-333.04 593.95,-324.14 587.14,-322.5"/>
</a>
</g>
</g>
<!-- Node23&#45;&gt;Node15 -->
<g id="edge39_Node000023_Node000015" class="edge">
<title>Node23&#45;&gt;Node15</title>
<g id="a_edge39_Node000023_Node000015"><a xlink:title=" ">
<path fill="none" stroke="#63b8ff" d="M601.72,-325.21C614.54,-307.63 632.76,-284.07 651,-265.25 668.35,-247.36 679.49,-249.51 694,-229.25 709.43,-207.7 718.77,-177.99 723.4,-159.93"/>
<polygon fill="#63b8ff" stroke="#63b8ff" points="599.07,-322.91 596.07,-333.07 604.75,-326.99 599.07,-322.91"/>
</a>
</g>
</g>
<!-- Node23&#45;&gt;Node19 -->
<g id="edge33_Node000023_Node000019" class="edge">
<title>Node23&#45;&gt;Node19</title>
<g id="a_edge33_Node000023_Node000019"><a xlink:title=" ">
<path fill="none" stroke="#63b8ff" d="M528.5,-330.47C500.82,-320.47 467.78,-308.55 441.75,-299.15"/>
<polygon fill="#63b8ff" stroke="#63b8ff" points="527.19,-333.72 537.79,-333.82 529.57,-327.13 527.19,-333.72"/>
</a>
</g>
</g>
<!-- Node24 -->
<g id="Node000024" class="node">
<title>Node24</title>
<g id="a_Node000024"><a xlink:href="constant__solver_8h.html" target="_top" xlink:title=" ">
<polygon fill="white" stroke="#666666" points="602.62,-159.75 467.38,-159.75 467.38,-126.25 602.62,-126.25 602.62,-159.75"/>
<text text-anchor="start" x="475.38" y="-146.25" font-family="Helvetica,sans-Serif" font-size="10.00">include/prismspf/solvers</text>
<text text-anchor="middle" x="535" y="-133.5" font-family="Helvetica,sans-Serif" font-size="10.00">/constant_solver.h</text>
</a>
</g>
</g>
<!-- Node23&#45;&gt;Node24 -->
<g id="edge34_Node000023_Node000024" class="edge">
<title>Node23&#45;&gt;Node24</title>
<g id="a_edge34_Node000023_Node000024"><a xlink:title=" ">
<path fill="none" stroke="#63b8ff" d="M571.86,-324.02C561.41,-299.88 546.95,-262.95 540,-229.25 535.12,-205.58 534.43,-177.49 534.57,-160.21"/>
<polygon fill="#63b8ff" stroke="#63b8ff" points="568.62,-325.35 575.86,-333.08 575.02,-322.52 568.62,-325.35"/>
</a>
</g>
</g>
<!-- Node25 -->
<g id="Node000025" class="node">
<title>Node25</title>
<g id="a_Node000025"><a xlink:href="solver__base_8cc.html" target="_top" xlink:title=" ">
<polygon fill="white" stroke="#666666" points="761.75,-298.75 660.25,-298.75 660.25,-265.25 761.75,-265.25 761.75,-298.75"/>
<text text-anchor="start" x="668.25" y="-285.25" font-family="Helvetica,sans-Serif" font-size="10.00">src/solvers/solver</text>
<text text-anchor="middle" x="711" y="-272.5" font-family="Helvetica,sans-Serif" font-size="10.00">_base.cc</text>
</a>
</g>
</g>
<!-- Node23&#45;&gt;Node25 -->
<g id="edge41_Node000023_Node000025" class="edge">
<title>Node23&#45;&gt;Node25</title>
<g id="a_edge41_Node000023_Node000025"><a xlink:title=" ">
<path fill="none" stroke="#63b8ff" d="M624.5,-328.97C642.77,-319.26 663.98,-307.99 680.83,-299.04"/>
<polygon fill="#63b8ff" stroke="#63b8ff" points="622.94,-325.84 615.76,-333.62 626.23,-332.02 622.94,-325.84"/>
</a>
</g>
</g>
<!-- Node24&#45;&gt;Node11 -->
<g id="edge35_Node000024_Node000011" class="edge">
<title>Node24&#45;&gt;Node11</title>
<g id="a_edge35_Node000024_Node000011"><a xlink:title=" ">
<path fill="none" stroke="#63b8ff" d="M567.12,-119.41C580.54,-109.98 595.83,-99.23 608.08,-90.62"/>
<polygon fill="#63b8ff" stroke="#63b8ff" points="565.16,-116.52 558.99,-125.13 569.18,-122.24 565.16,-116.52"/>
</a>
</g>
</g>
<!-- Node27&#45;&gt;Node22 -->
<g id="edge50_Node000027_Node000022" class="edge">
<title>Node27&#45;&gt;Node22</title>
<g id="a_edge50_Node000027_Node000022"><a xlink:title=" ">
<path fill="none" stroke="#63b8ff" d="M253.83,-392.85C255.3,-384.54 256.88,-375.68 258.18,-368.38"/>
<polygon fill="#63b8ff" stroke="#63b8ff" points="250.41,-392.05 252.11,-402.51 257.31,-393.28 250.41,-392.05"/>
</a>
</g>
</g>
</g>
</svg>
