<?xml version="1.0" encoding="UTF-8" standalone="no"?>
<!DOCTYPE svg PUBLIC "-//W3C//DTD SVG 1.1//EN"
 "http://www.w3.org/Graphics/SVG/1.1/DTD/svg11.dtd">
<!-- Generated by graphviz version 12.2.1 (20241206.2353)
 -->
<!-- Title: include/prismspf/user_inputs/load_initial_condition_parameters.h Pages: 1 -->
<svg width="1214pt" height="667pt"
 viewBox="0.00 0.00 1213.73 667.00" xmlns="http://www.w3.org/2000/svg" xmlns:xlink="http://www.w3.org/1999/xlink">
<g id="graph0" class="graph" transform="scale(1 1) rotate(0) translate(4 663)">
<title>include/prismspf/user_inputs/load_initial_condition_parameters.h</title>
<!-- Node1 -->
<g id="Node000001" class="node">
<title>Node1</title>
<g id="a_Node000001"><a xlink:title=" ">
<polygon fill="#999999" stroke="#666666" points="526.1,-659 389.35,-659 389.35,-612.75 526.1,-612.75 526.1,-659"/>
<text text-anchor="start" x="397.35" y="-645.5" font-family="Helvetica,sans-Serif" font-size="10.00">include/prismspf/user</text>
<text text-anchor="start" x="397.35" y="-632.75" font-family="Helvetica,sans-Serif" font-size="10.00">_inputs/load_initial</text>
<text text-anchor="middle" x="457.73" y="-620" font-family="Helvetica,sans-Serif" font-size="10.00">_condition_parameters.h</text>
</a>
</g>
</g>
<!-- Node2 -->
<g id="Node000002" class="node">
<title>Node2</title>
<g id="a_Node000002"><a xlink:href="read__field__base_8h.html" target="_top" xlink:title=" ">
<polygon fill="white" stroke="#666666" points="388.98,-576.75 254.48,-576.75 254.48,-543.25 388.98,-543.25 388.98,-576.75"/>
<text text-anchor="start" x="262.48" y="-563.25" font-family="Helvetica,sans-Serif" font-size="10.00">include/prismspf/field</text>
<text text-anchor="middle" x="321.73" y="-550.5" font-family="Helvetica,sans-Serif" font-size="10.00">_input/read_field_base.h</text>
</a>
</g>
</g>
<!-- Node1&#45;&gt;Node2 -->
<g id="edge1_Node000001_Node000002" class="edge">
<title>Node1&#45;&gt;Node2</title>
<g id="a_edge1_Node000001_Node000002"><a xlink:title=" ">
<path fill="none" stroke="#63b8ff" d="M406.12,-606.84C387.61,-596.79 367.39,-585.8 351.37,-577.1"/>
<polygon fill="#63b8ff" stroke="#63b8ff" points="404.4,-609.89 414.85,-611.59 407.74,-603.74 404.4,-609.89"/>
</a>
</g>
</g>
<!-- Node4 -->
<g id="Node000004" class="node">
<title>Node4</title>
<g id="a_Node000004"><a xlink:href="read__field__factory_8h.html" target="_top" xlink:title=" ">
<polygon fill="white" stroke="#666666" points="351.85,-437.75 207.6,-437.75 207.6,-404.25 351.85,-404.25 351.85,-437.75"/>
<text text-anchor="start" x="215.6" y="-424.25" font-family="Helvetica,sans-Serif" font-size="10.00">include/prismspf/field</text>
<text text-anchor="middle" x="279.73" y="-411.5" font-family="Helvetica,sans-Serif" font-size="10.00">_input/read_field_factory.h</text>
</a>
</g>
</g>
<!-- Node1&#45;&gt;Node4 -->
<g id="edge7_Node000001_Node000004" class="edge">
<title>Node1&#45;&gt;Node4</title>
<g id="a_edge7_Node000001_Node000004"><a xlink:title=" ">
<path fill="none" stroke="#63b8ff" d="M463.48,-601.22C467.58,-565.53 468.01,-509.46 438.73,-473.75 427.13,-459.61 388.43,-446.85 352.12,-437.54"/>
<polygon fill="#63b8ff" stroke="#63b8ff" points="460.03,-600.61 462.19,-610.99 466.97,-601.53 460.03,-600.61"/>
</a>
</g>
</g>
<!-- Node7 -->
<g id="Node000007" class="node">
<title>Node7</title>
<g id="a_Node000007"><a xlink:href="user__input__parameters_8h.html" target="_top" xlink:title=" ">
<polygon fill="white" stroke="#666666" points="908.6,-576.75 732.85,-576.75 732.85,-543.25 908.6,-543.25 908.6,-576.75"/>
<text text-anchor="start" x="740.85" y="-563.25" font-family="Helvetica,sans-Serif" font-size="10.00">include/prismspf/user</text>
<text text-anchor="middle" x="820.73" y="-550.5" font-family="Helvetica,sans-Serif" font-size="10.00">_inputs/user_input_parameters.h</text>
</a>
</g>
</g>
<!-- Node1&#45;&gt;Node7 -->
<g id="edge8_Node000001_Node000007" class="edge">
<title>Node1&#45;&gt;Node7</title>
<g id="a_edge8_Node000001_Node000007"><a xlink:title=" ">
<path fill="none" stroke="#63b8ff" d="M537.44,-618.65C597.85,-606.36 680.49,-589.54 740.92,-577.24"/>
<polygon fill="#63b8ff" stroke="#63b8ff" points="537.02,-615.17 527.92,-620.59 538.41,-622.03 537.02,-615.17"/>
</a>
</g>
</g>
<!-- Node3 -->
<g id="Node000003" class="node">
<title>Node3</title>
<g id="a_Node000003"><a xlink:href="read__binary_8h.html" target="_top" xlink:title=" ">
<polygon fill="white" stroke="#666666" points="251.23,-507.25 130.23,-507.25 130.23,-473.75 251.23,-473.75 251.23,-507.25"/>
<text text-anchor="start" x="138.23" y="-493.75" font-family="Helvetica,sans-Serif" font-size="10.00">include/prismspf/field</text>
<text text-anchor="middle" x="190.73" y="-481" font-family="Helvetica,sans-Serif" font-size="10.00">_input/read_binary.h</text>
</a>
</g>
</g>
<!-- Node2&#45;&gt;Node3 -->
<g id="edge2_Node000002_Node000003" class="edge">
<title>Node2&#45;&gt;Node3</title>
<g id="a_edge2_Node000002_Node000003"><a xlink:title=" ">
<path fill="none" stroke="#63b8ff" d="M280.21,-537.61C261.31,-527.87 239.3,-516.53 221.85,-507.54"/>
<polygon fill="#63b8ff" stroke="#63b8ff" points="278.51,-540.67 289,-542.14 281.72,-534.45 278.51,-540.67"/>
</a>
</g>
</g>
<!-- Node2&#45;&gt;Node4 -->
<g id="edge5_Node000002_Node000004" class="edge">
<title>Node2&#45;&gt;Node4</title>
<g id="a_edge5_Node000002_Node000004"><a xlink:title=" ">
<path fill="none" stroke="#63b8ff" d="M309.51,-532.67C306.05,-524.62 302.48,-515.67 299.73,-507.25 291.97,-483.55 285.95,-455.23 282.62,-437.94"/>
<polygon fill="#63b8ff" stroke="#63b8ff" points="306.2,-533.85 313.45,-541.57 312.6,-531.01 306.2,-533.85"/>
</a>
</g>
</g>
<!-- Node6 -->
<g id="Node000006" class="node">
<title>Node6</title>
<g id="a_Node000006"><a xlink:href="read__vtk_8h.html" target="_top" xlink:title=" ">
<polygon fill="white" stroke="#666666" points="429.23,-507.25 308.23,-507.25 308.23,-473.75 429.23,-473.75 429.23,-507.25"/>
<text text-anchor="start" x="316.23" y="-493.75" font-family="Helvetica,sans-Serif" font-size="10.00">include/prismspf/field</text>
<text text-anchor="middle" x="368.73" y="-481" font-family="Helvetica,sans-Serif" font-size="10.00">_input/read_vtk.h</text>
</a>
</g>
</g>
<!-- Node2&#45;&gt;Node6 -->
<g id="edge6_Node000002_Node000006" class="edge">
<title>Node2&#45;&gt;Node6</title>
<g id="a_edge6_Node000002_Node000006"><a xlink:title=" ">
<path fill="none" stroke="#63b8ff" d="M339.44,-533.56C345.56,-524.77 352.24,-515.18 357.67,-507.38"/>
<polygon fill="#63b8ff" stroke="#63b8ff" points="336.57,-531.55 333.73,-541.76 342.32,-535.55 336.57,-531.55"/>
</a>
</g>
</g>
<!-- Node3&#45;&gt;Node4 -->
<g id="edge3_Node000003_Node000004" class="edge">
<title>Node3&#45;&gt;Node4</title>
<g id="a_edge3_Node000003_Node000004"><a xlink:title=" ">
<path fill="none" stroke="#63b8ff" d="M220.87,-466.64C233.22,-457.27 247.23,-446.65 258.48,-438.12"/>
<polygon fill="#63b8ff" stroke="#63b8ff" points="218.88,-463.76 213.03,-472.59 223.11,-469.33 218.88,-463.76"/>
</a>
</g>
</g>
<!-- Node5 -->
<g id="Node000005" class="node">
<title>Node5</title>
<g id="a_Node000005"><a xlink:href="initial__conditions_8cc.html" target="_top" xlink:title=" ">
<polygon fill="white" stroke="#666666" points="373.73,-361.88 219.73,-361.88 219.73,-341.12 373.73,-341.12 373.73,-361.88"/>
<text text-anchor="middle" x="296.73" y="-348.38" font-family="Helvetica,sans-Serif" font-size="10.00">src/core/initial_conditions.cc</text>
</a>
</g>
</g>
<!-- Node4&#45;&gt;Node5 -->
<g id="edge4_Node000004_Node000005" class="edge">
<title>Node4&#45;&gt;Node5</title>
<g id="a_edge4_Node000004_Node000005"><a xlink:title=" ">
<path fill="none" stroke="#63b8ff" d="M286.56,-392.88C289.28,-382.08 292.23,-370.35 294.25,-362.32"/>
<polygon fill="#63b8ff" stroke="#63b8ff" points="283.17,-391.98 284.13,-402.54 289.96,-393.69 283.17,-391.98"/>
</a>
</g>
</g>
<!-- Node8 -->
<g id="Node000008" class="node">
<title>Node8</title>
<g id="a_Node000008"><a xlink:href="pde__operator__base_8h.html" target="_top" xlink:title=" ">
<polygon fill="white" stroke="#666666" points="607.23,-507.25 486.23,-507.25 486.23,-473.75 607.23,-473.75 607.23,-507.25"/>
<text text-anchor="start" x="494.23" y="-493.75" font-family="Helvetica,sans-Serif" font-size="10.00">include/prismspf/core</text>
<text text-anchor="middle" x="546.73" y="-481" font-family="Helvetica,sans-Serif" font-size="10.00">/pde_operator_base.h</text>
</a>
</g>
</g>
<!-- Node7&#45;&gt;Node8 -->
<g id="edge9_Node000007_Node000008" class="edge">
<title>Node7&#45;&gt;Node8</title>
<g id="a_edge9_Node000007_Node000008"><a xlink:title=" ">
<path fill="none" stroke="#63b8ff" d="M744.08,-540.12C700.95,-529.49 647.85,-516.41 607.6,-506.5"/>
<polygon fill="#63b8ff" stroke="#63b8ff" points="743.08,-543.48 753.63,-542.47 744.76,-536.68 743.08,-543.48"/>
</a>
</g>
</g>
<!-- Node12 -->
<g id="Node000012" class="node">
<title>Node12</title>
<g id="a_Node000012"><a xlink:href="problem_8cc.html" target="_top" xlink:title=" ">
<polygon fill="white" stroke="#666666" points="886.35,-20.75 775.1,-20.75 775.1,0 886.35,0 886.35,-20.75"/>
<text text-anchor="middle" x="830.73" y="-7.25" font-family="Helvetica,sans-Serif" font-size="10.00">src/core/problem.cc</text>
</a>
</g>
</g>
<!-- Node7&#45;&gt;Node12 -->
<g id="edge54_Node000007_Node000012" class="edge">
<title>Node7&#45;&gt;Node12</title>
<g id="a_edge54_Node000007_Node000012"><a xlink:title=" ">
<path fill="none" stroke="#63b8ff" d="M920.25,-543.71C1034.32,-523.32 1205.73,-482.59 1205.73,-422 1205.73,-422 1205.73,-422 1205.73,-142 1205.73,-75.21 990.93,-34.7 886.46,-18.94"/>
<polygon fill="#63b8ff" stroke="#63b8ff" points="919.79,-540.24 910.55,-545.42 921,-547.14 919.79,-540.24"/>
</a>
</g>
</g>
<!-- Node18 -->
<g id="Node000018" class="node">
<title>Node18</title>
<g id="a_Node000018"><a xlink:href="solve__context_8h.html" target="_top" xlink:title=" ">
<polygon fill="white" stroke="#666666" points="985.35,-437.75 850.1,-437.75 850.1,-404.25 985.35,-404.25 985.35,-437.75"/>
<text text-anchor="start" x="858.1" y="-424.25" font-family="Helvetica,sans-Serif" font-size="10.00">include/prismspf/solvers</text>
<text text-anchor="middle" x="917.73" y="-411.5" font-family="Helvetica,sans-Serif" font-size="10.00">/solve_context.h</text>
</a>
</g>
</g>
<!-- Node7&#45;&gt;Node18 -->
<g id="edge49_Node000007_Node000018" class="edge">
<title>Node7&#45;&gt;Node18</title>
<g id="a_edge49_Node000007_Node000018"><a xlink:title=" ">
<path fill="none" stroke="#63b8ff" d="M919.31,-538.14C934.05,-530.76 947.41,-520.77 956.73,-507.25 972.06,-485.01 951.11,-455.76 934.49,-437.95"/>
<polygon fill="#63b8ff" stroke="#63b8ff" points="917.96,-534.91 910.3,-542.22 920.85,-541.29 917.96,-534.91"/>
</a>
</g>
</g>
<!-- Node21 -->
<g id="Node000021" class="node">
<title>Node21</title>
<g id="a_Node000021"><a xlink:href="solution__output_8h.html" target="_top" xlink:title=" ">
<polygon fill="white" stroke="#666666" points="830.23,-368.25 709.23,-368.25 709.23,-334.75 830.23,-334.75 830.23,-368.25"/>
<text text-anchor="start" x="717.23" y="-354.75" font-family="Helvetica,sans-Serif" font-size="10.00">include/prismspf/core</text>
<text text-anchor="middle" x="769.73" y="-342" font-family="Helvetica,sans-Serif" font-size="10.00">/solution_output.h</text>
</a>
</g>
</g>
<!-- Node7&#45;&gt;Node21 -->
<g id="edge47_Node000007_Node000021" class="edge">
<title>Node7&#45;&gt;Node21</title>
<g id="a_edge47_Node000007_Node000021"><a xlink:title=" ">
<path fill="none" stroke="#63b8ff" d="M729.67,-538.08C715.08,-530.7 701.82,-520.73 692.73,-507.25 660.85,-459.98 718.71,-397.63 750.66,-368.63"/>
<polygon fill="#63b8ff" stroke="#63b8ff" points="728.01,-541.17 738.56,-542.15 730.93,-534.81 728.01,-541.17"/>
</a>
</g>
</g>
<!-- Node23 -->
<g id="Node000023" class="node">
<title>Node23</title>
<g id="a_Node000023"><a xlink:href="nucleation__manager_8h.html" target="_top" xlink:title=" ">
<polygon fill="white" stroke="#666666" points="1177.23,-368.25 1026.23,-368.25 1026.23,-334.75 1177.23,-334.75 1177.23,-368.25"/>
<text text-anchor="start" x="1034.23" y="-354.75" font-family="Helvetica,sans-Serif" font-size="10.00">include/prismspf/nucleation</text>
<text text-anchor="middle" x="1101.73" y="-342" font-family="Helvetica,sans-Serif" font-size="10.00">/nucleation_manager.h</text>
</a>
</g>
</g>
<!-- Node7&#45;&gt;Node23 -->
<g id="edge48_Node000007_Node000023" class="edge">
<title>Node7&#45;&gt;Node23</title>
<g id="a_edge48_Node000007_Node000023"><a xlink:title=" ">
<path fill="none" stroke="#63b8ff" d="M914.37,-539.21C935.43,-531.67 956.59,-521.35 973.73,-507.25 1014.47,-473.73 997.79,-443.78 1032.73,-404.25 1044.92,-390.45 1061.33,-377.96 1075.08,-368.72"/>
<polygon fill="#63b8ff" stroke="#63b8ff" points="913.52,-535.81 905.16,-542.32 915.75,-542.44 913.52,-535.81"/>
</a>
</g>
</g>
<!-- Node24 -->
<g id="Node000024" class="node">
<title>Node24</title>
<g id="a_Node000024"><a xlink:href="solver__base_8h.html" target="_top" xlink:title=" ">
<polygon fill="white" stroke="#666666" points="581.35,-368.25 446.1,-368.25 446.1,-334.75 581.35,-334.75 581.35,-368.25"/>
<text text-anchor="start" x="454.1" y="-354.75" font-family="Helvetica,sans-Serif" font-size="10.00">include/prismspf/solvers</text>
<text text-anchor="middle" x="513.73" y="-342" font-family="Helvetica,sans-Serif" font-size="10.00">/solver_base.h</text>
</a>
</g>
</g>
<!-- Node7&#45;&gt;Node24 -->
<g id="edge50_Node000007_Node000024" class="edge">
<title>Node7&#45;&gt;Node24</title>
<g id="a_edge50_Node000007_Node000024"><a xlink:title=" ">
<path fill="none" stroke="#63b8ff" d="M738.16,-539.08C717.61,-531.45 696.64,-521.12 679.73,-507.25 638.23,-473.22 656.22,-440.58 616.73,-404.25 600.16,-389.01 578.26,-377.17 558.92,-368.68"/>
<polygon fill="#63b8ff" stroke="#63b8ff" points="736.82,-542.32 747.41,-542.33 739.13,-535.72 736.82,-542.32"/>
</a>
</g>
</g>
<!-- Node28 -->
<g id="Node000028" class="node">
<title>Node28</title>
<g id="a_Node000028"><a xlink:href="periodic__distance_8h.html" target="_top" xlink:title=" ">
<polygon fill="white" stroke="#666666" points="1178.1,-437.75 1041.35,-437.75 1041.35,-404.25 1178.1,-404.25 1178.1,-437.75"/>
<text text-anchor="start" x="1049.35" y="-424.25" font-family="Helvetica,sans-Serif" font-size="10.00">include/prismspf/utilities</text>
<text text-anchor="middle" x="1109.73" y="-411.5" font-family="Helvetica,sans-Serif" font-size="10.00">/periodic_distance.h</text>
</a>
</g>
</g>
<!-- Node7&#45;&gt;Node28 -->
<g id="edge51_Node000007_Node000028" class="edge">
<title>Node7&#45;&gt;Node28</title>
<g id="a_edge51_Node000007_Node000028"><a xlink:title=" ">
<path fill="none" stroke="#63b8ff" d="M919.88,-545.9C955.56,-538.24 995.05,-526.18 1027.73,-507.25 1058.12,-489.65 1084.49,-457.53 1098.66,-438.13"/>
<polygon fill="#63b8ff" stroke="#63b8ff" points="919.52,-542.4 910.42,-547.83 920.92,-549.25 919.52,-542.4"/>
</a>
</g>
</g>
<!-- Node29 -->
<g id="Node000029" class="node">
<title>Node29</title>
<g id="a_Node000029"><a xlink:href="constraint__manager_8cc.html" target="_top" xlink:title=" ">
<polygon fill="white" stroke="#666666" points="807.73,-507.25 701.73,-507.25 701.73,-473.75 807.73,-473.75 807.73,-507.25"/>
<text text-anchor="start" x="709.73" y="-493.75" font-family="Helvetica,sans-Serif" font-size="10.00">src/core/constraint</text>
<text text-anchor="middle" x="754.73" y="-481" font-family="Helvetica,sans-Serif" font-size="10.00">_manager.cc</text>
</a>
</g>
</g>
<!-- Node7&#45;&gt;Node29 -->
<g id="edge53_Node000007_Node000029" class="edge">
<title>Node7&#45;&gt;Node29</title>
<g id="a_edge53_Node000007_Node000029"><a xlink:title=" ">
<path fill="none" stroke="#63b8ff" d="M797.23,-534.97C788.27,-525.81 778.29,-515.6 770.26,-507.38"/>
<polygon fill="#63b8ff" stroke="#63b8ff" points="794.53,-537.22 804.03,-541.92 799.54,-532.32 794.53,-537.22"/>
</a>
</g>
</g>
<!-- Node30 -->
<g id="Node000030" class="node">
<title>Node30</title>
<g id="a_Node000030"><a xlink:href="user__input__parameters_8cc.html" target="_top" xlink:title=" ">
<polygon fill="white" stroke="#666666" points="947.23,-507.25 826.23,-507.25 826.23,-473.75 947.23,-473.75 947.23,-507.25"/>
<text text-anchor="start" x="834.23" y="-493.75" font-family="Helvetica,sans-Serif" font-size="10.00">src/user_inputs/user</text>
<text text-anchor="middle" x="886.73" y="-481" font-family="Helvetica,sans-Serif" font-size="10.00">_input_parameters.cc</text>
</a>
</g>
</g>
<!-- Node7&#45;&gt;Node30 -->
<g id="edge55_Node000007_Node000030" class="edge">
<title>Node7&#45;&gt;Node30</title>
<g id="a_edge55_Node000007_Node000030"><a xlink:title=" ">
<path fill="none" stroke="#63b8ff" d="M844.22,-534.97C853.18,-525.81 863.16,-515.6 871.2,-507.38"/>
<polygon fill="#63b8ff" stroke="#63b8ff" points="841.92,-532.32 837.43,-541.92 846.92,-537.22 841.92,-532.32"/>
</a>
</g>
</g>
<!-- Node8&#45;&gt;Node5 -->
<g id="edge46_Node000008_Node000005" class="edge">
<title>Node8&#45;&gt;Node5</title>
<g id="a_edge46_Node000008_Node000005"><a xlink:title=" ">
<path fill="none" stroke="#63b8ff" d="M477.93,-469.67C453.72,-461.39 426.81,-450.66 403.73,-437.75 398.52,-434.84 335.53,-383.94 308.7,-362.21"/>
<polygon fill="#63b8ff" stroke="#63b8ff" points="476.81,-472.98 487.4,-472.82 479.02,-466.34 476.81,-472.98"/>
</a>
</g>
</g>
<!-- Node9 -->
<g id="Node000009" class="node">
<title>Node9</title>
<g id="a_Node000009"><a xlink:href="mf__operator_8h.html" target="_top" xlink:title=" ">
<polygon fill="white" stroke="#666666" points="404.35,-298.75 269.1,-298.75 269.1,-265.25 404.35,-265.25 404.35,-298.75"/>
<text text-anchor="start" x="277.1" y="-285.25" font-family="Helvetica,sans-Serif" font-size="10.00">include/prismspf/solvers</text>
<text text-anchor="middle" x="336.73" y="-272.5" font-family="Helvetica,sans-Serif" font-size="10.00">/mf_operator.h</text>
</a>
</g>
</g>
<!-- Node8&#45;&gt;Node9 -->
<g id="edge10_Node000008_Node000009" class="edge">
<title>Node8&#45;&gt;Node9</title>
<g id="a_edge10_Node000008_Node000009"><a xlink:title=" ">
<path fill="none" stroke="#63b8ff" d="M515.28,-466.45C504.06,-457.81 491.53,-447.68 480.73,-437.75 453.91,-413.11 382.1,-333.64 351.2,-299.18"/>
<polygon fill="#63b8ff" stroke="#63b8ff" points="513.04,-469.14 523.12,-472.4 517.27,-463.56 513.04,-469.14"/>
</a>
</g>
</g>
<!-- Node8&#45;&gt;Node18 -->
<g id="edge23_Node000008_Node000018" class="edge">
<title>Node8&#45;&gt;Node18</title>
<g id="a_edge23_Node000008_Node000018"><a xlink:title=" ">
<path fill="none" stroke="#63b8ff" d="M618.83,-476.38C685.59,-464.24 784.15,-446.3 849.61,-434.39"/>
<polygon fill="#63b8ff" stroke="#63b8ff" points="618.28,-472.92 609.06,-478.16 619.53,-479.81 618.28,-472.92"/>
</a>
</g>
</g>
<!-- Node8&#45;&gt;Node24 -->
<g id="edge44_Node000008_Node000024" class="edge">
<title>Node8&#45;&gt;Node24</title>
<g id="a_edge44_Node000008_Node000024"><a xlink:title=" ">
<path fill="none" stroke="#63b8ff" d="M511.28,-466.27C502.22,-458.4 493.66,-448.76 488.73,-437.75 478.39,-414.67 491.56,-386.17 502.36,-368.67"/>
<polygon fill="#63b8ff" stroke="#63b8ff" points="508.84,-468.8 518.83,-472.32 513.22,-463.34 508.84,-468.8"/>
</a>
</g>
</g>
<!-- Node27 -->
<g id="Node000027" class="node">
<title>Node27</title>
<g id="a_Node000027"><a xlink:href="dirichlet_8cc.html" target="_top" xlink:title=" ">
<polygon fill="white" stroke="#666666" points="607.98,-431.38 497.48,-431.38 497.48,-410.62 607.98,-410.62 607.98,-431.38"/>
<text text-anchor="middle" x="552.73" y="-417.88" font-family="Helvetica,sans-Serif" font-size="10.00">src/core/dirichlet.cc</text>
</a>
</g>
</g>
<!-- Node8&#45;&gt;Node27 -->
<g id="edge45_Node000008_Node000027" class="edge">
<title>Node8&#45;&gt;Node27</title>
<g id="a_edge45_Node000008_Node000027"><a xlink:title=" ">
<path fill="none" stroke="#63b8ff" d="M549.14,-462.38C550.1,-451.58 551.14,-439.85 551.85,-431.82"/>
<polygon fill="#63b8ff" stroke="#63b8ff" points="545.68,-461.73 548.28,-472 552.66,-462.35 545.68,-461.73"/>
</a>
</g>
</g>
<!-- Node10 -->
<g id="Node000010" class="node">
<title>Node10</title>
<g id="a_Node000010"><a xlink:href="explicit__solver_8h.html" target="_top" xlink:title=" ">
<polygon fill="white" stroke="#666666" points="150.35,-229.25 15.1,-229.25 15.1,-195.75 150.35,-195.75 150.35,-229.25"/>
<text text-anchor="start" x="23.1" y="-215.75" font-family="Helvetica,sans-Serif" font-size="10.00">include/prismspf/solvers</text>
<text text-anchor="middle" x="82.73" y="-203" font-family="Helvetica,sans-Serif" font-size="10.00">/explicit_solver.h</text>
</a>
</g>
</g>
<!-- Node9&#45;&gt;Node10 -->
<g id="edge11_Node000009_Node000010" class="edge">
<title>Node9&#45;&gt;Node10</title>
<g id="a_edge11_Node000009_Node000010"><a xlink:title=" ">
<path fill="none" stroke="#63b8ff" d="M264.81,-261.89C226.53,-251.72 179.97,-239.34 143.51,-229.65"/>
<polygon fill="#63b8ff" stroke="#63b8ff" points="263.86,-265.26 274.43,-264.44 265.66,-258.49 263.86,-265.26"/>
</a>
</g>
</g>
<!-- Node14 -->
<g id="Node000014" class="node">
<title>Node14</title>
<g id="a_Node000014"><a xlink:href="linear__solver_8h.html" target="_top" xlink:title=" ">
<polygon fill="white" stroke="#666666" points="504.35,-229.25 369.1,-229.25 369.1,-195.75 504.35,-195.75 504.35,-229.25"/>
<text text-anchor="start" x="377.1" y="-215.75" font-family="Helvetica,sans-Serif" font-size="10.00">include/prismspf/solvers</text>
<text text-anchor="middle" x="436.73" y="-203" font-family="Helvetica,sans-Serif" font-size="10.00">/linear_solver.h</text>
</a>
</g>
</g>
<!-- Node9&#45;&gt;Node14 -->
<g id="edge15_Node000009_Node000014" class="edge">
<title>Node9&#45;&gt;Node14</title>
<g id="a_edge15_Node000009_Node000014"><a xlink:title=" ">
<path fill="none" stroke="#63b8ff" d="M370.03,-258.52C384.09,-249.03 400.14,-238.2 412.97,-229.54"/>
<polygon fill="#63b8ff" stroke="#63b8ff" points="368.26,-255.49 361.93,-263.99 372.18,-261.29 368.26,-255.49"/>
</a>
</g>
</g>
<!-- Node15 -->
<g id="Node000015" class="node">
<title>Node15</title>
<g id="a_Node000015"><a xlink:href="mg__solver_8h.html" target="_top" xlink:title=" ">
<polygon fill="white" stroke="#666666" points="408.35,-159.75 273.1,-159.75 273.1,-126.25 408.35,-126.25 408.35,-159.75"/>
<text text-anchor="start" x="281.1" y="-146.25" font-family="Helvetica,sans-Serif" font-size="10.00">include/prismspf/solvers</text>
<text text-anchor="middle" x="340.73" y="-133.5" font-family="Helvetica,sans-Serif" font-size="10.00">/mg_solver.h</text>
</a>
</g>
</g>
<!-- Node9&#45;&gt;Node15 -->
<g id="edge20_Node000009_Node000015" class="edge">
<title>Node9&#45;&gt;Node15</title>
<g id="a_edge20_Node000009_Node000015"><a xlink:title=" ">
<path fill="none" stroke="#63b8ff" d="M337.53,-253.62C338.35,-225.54 339.59,-182.82 340.26,-159.88"/>
<polygon fill="#63b8ff" stroke="#63b8ff" points="334.03,-253.41 337.24,-263.5 341.03,-253.61 334.03,-253.41"/>
</a>
</g>
</g>
<!-- Node16 -->
<g id="Node000016" class="node">
<title>Node16</title>
<g id="a_Node000016"><a xlink:href="newton__solver_8h.html" target="_top" xlink:title=" ">
<polygon fill="white" stroke="#666666" points="600.35,-159.75 465.1,-159.75 465.1,-126.25 600.35,-126.25 600.35,-159.75"/>
<text text-anchor="start" x="473.1" y="-146.25" font-family="Helvetica,sans-Serif" font-size="10.00">include/prismspf/solvers</text>
<text text-anchor="middle" x="532.73" y="-133.5" font-family="Helvetica,sans-Serif" font-size="10.00">/newton_solver.h</text>
</a>
</g>
</g>
<!-- Node9&#45;&gt;Node16 -->
<g id="edge21_Node000009_Node000016" class="edge">
<title>Node9&#45;&gt;Node16</title>
<g id="a_edge21_Node000009_Node000016"><a xlink:title=" ">
<path fill="none" stroke="#63b8ff" d="M415.8,-266.09C456.25,-256.91 499.84,-244.07 513.73,-229.25 531.35,-210.44 533.95,-179.02 533.7,-160.03"/>
<polygon fill="#63b8ff" stroke="#63b8ff" points="415.27,-262.63 406.26,-268.2 416.78,-269.46 415.27,-262.63"/>
</a>
</g>
</g>
<!-- Node17 -->
<g id="Node000017" class="node">
<title>Node17</title>
<g id="a_Node000017"><a xlink:href="mf__operator_8cc.html" target="_top" xlink:title=" ">
<polygon fill="white" stroke="#666666" points="312.85,-222.88 168.6,-222.88 168.6,-202.12 312.85,-202.12 312.85,-222.88"/>
<text text-anchor="middle" x="240.73" y="-209.38" font-family="Helvetica,sans-Serif" font-size="10.00">src/solvers/mf_operator.cc</text>
</a>
</g>
</g>
<!-- Node9&#45;&gt;Node17 -->
<g id="edge22_Node000009_Node000017" class="edge">
<title>Node9&#45;&gt;Node17</title>
<g id="a_edge22_Node000009_Node000017"><a xlink:title=" ">
<path fill="none" stroke="#63b8ff" d="M304.9,-258.62C287.89,-246.66 267.81,-232.54 254.7,-223.32"/>
<polygon fill="#63b8ff" stroke="#63b8ff" points="302.55,-261.24 312.74,-264.13 306.57,-255.52 302.55,-261.24"/>
</a>
</g>
</g>
<!-- Node11 -->
<g id="Node000011" class="node">
<title>Node11</title>
<g id="a_Node000011"><a xlink:href="solvers_8h.html" target="_top" xlink:title=" ">
<polygon fill="white" stroke="#666666" points="504.35,-90.25 369.1,-90.25 369.1,-56.75 504.35,-56.75 504.35,-90.25"/>
<text text-anchor="start" x="377.1" y="-76.75" font-family="Helvetica,sans-Serif" font-size="10.00">include/prismspf/solvers</text>
<text text-anchor="middle" x="436.73" y="-64" font-family="Helvetica,sans-Serif" font-size="10.00">/solvers.h</text>
</a>
</g>
</g>
<!-- Node10&#45;&gt;Node11 -->
<g id="edge12_Node000010_Node000011" class="edge">
<title>Node10&#45;&gt;Node11</title>
<g id="a_edge12_Node000010_Node000011"><a xlink:title=" ">
<path fill="none" stroke="#63b8ff" d="M123.66,-190.06C159.86,-171.63 214.42,-145.12 263.73,-126.25 299.74,-112.47 341.09,-99.99 374.32,-90.73"/>
<polygon fill="#63b8ff" stroke="#63b8ff" points="122.15,-186.9 114.85,-194.58 125.34,-193.13 122.15,-186.9"/>
</a>
</g>
</g>
<!-- Node11&#45;&gt;Node12 -->
<g id="edge13_Node000011_Node000012" class="edge">
<title>Node11&#45;&gt;Node12</title>
<g id="a_edge13_Node000011_Node000012"><a xlink:title=" ">
<path fill="none" stroke="#63b8ff" d="M515.49,-60.28C592.2,-48.38 706.87,-30.59 774.7,-20.07"/>
<polygon fill="#63b8ff" stroke="#63b8ff" points="515.3,-56.77 505.95,-61.76 516.37,-63.69 515.3,-56.77"/>
</a>
</g>
</g>
<!-- Node13 -->
<g id="Node000013" class="node">
<title>Node13</title>
<g id="a_Node000013"><a xlink:href="solvers_8cc.html" target="_top" xlink:title=" ">
<polygon fill="white" stroke="#666666" points="496.85,-20.75 376.6,-20.75 376.6,0 496.85,0 496.85,-20.75"/>
<text text-anchor="middle" x="436.73" y="-7.25" font-family="Helvetica,sans-Serif" font-size="10.00">src/solvers/solvers.cc</text>
</a>
</g>
</g>
<!-- Node11&#45;&gt;Node13 -->
<g id="edge14_Node000011_Node000013" class="edge">
<title>Node11&#45;&gt;Node13</title>
<g id="a_edge14_Node000011_Node000013"><a xlink:title=" ">
<path fill="none" stroke="#63b8ff" d="M436.73,-44.94C436.73,-36.46 436.73,-27.67 436.73,-21.22"/>
<polygon fill="#63b8ff" stroke="#63b8ff" points="433.23,-44.93 436.73,-54.93 440.23,-44.93 433.23,-44.93"/>
</a>
</g>
</g>
<!-- Node14&#45;&gt;Node11 -->
<g id="edge19_Node000014_Node000011" class="edge">
<title>Node14&#45;&gt;Node11</title>
<g id="a_edge19_Node000014_Node000011"><a xlink:title=" ">
<path fill="none" stroke="#63b8ff" d="M436.73,-184.12C436.73,-156.04 436.73,-113.32 436.73,-90.38"/>
<polygon fill="#63b8ff" stroke="#63b8ff" points="433.23,-184 436.73,-194 440.23,-184 433.23,-184"/>
</a>
</g>
</g>
<!-- Node14&#45;&gt;Node15 -->
<g id="edge16_Node000014_Node000015" class="edge">
<title>Node14&#45;&gt;Node15</title>
<g id="a_edge16_Node000014_Node000015"><a xlink:title=" ">
<path fill="none" stroke="#63b8ff" d="M404.61,-188.91C391.19,-179.48 375.9,-168.73 363.65,-160.12"/>
<polygon fill="#63b8ff" stroke="#63b8ff" points="402.55,-191.74 412.74,-194.63 406.57,-186.02 402.55,-191.74"/>
</a>
</g>
</g>
<!-- Node14&#45;&gt;Node16 -->
<g id="edge17_Node000014_Node000016" class="edge">
<title>Node14&#45;&gt;Node16</title>
<g id="a_edge17_Node000014_Node000016"><a xlink:title=" ">
<path fill="none" stroke="#63b8ff" d="M468.85,-188.91C482.27,-179.48 497.55,-168.73 509.81,-160.12"/>
<polygon fill="#63b8ff" stroke="#63b8ff" points="466.88,-186.02 460.72,-194.63 470.91,-191.74 466.88,-186.02"/>
</a>
</g>
</g>
<!-- Node16&#45;&gt;Node11 -->
<g id="edge18_Node000016_Node000011" class="edge">
<title>Node16&#45;&gt;Node11</title>
<g id="a_edge18_Node000016_Node000011"><a xlink:title=" ">
<path fill="none" stroke="#63b8ff" d="M500.61,-119.41C487.19,-109.98 471.9,-99.23 459.65,-90.62"/>
<polygon fill="#63b8ff" stroke="#63b8ff" points="498.55,-122.24 508.74,-125.13 502.57,-116.52 498.55,-122.24"/>
</a>
</g>
</g>
<!-- Node19 -->
<g id="Node000019" class="node">
<title>Node19</title>
<g id="a_Node000019"><a xlink:href="problem_8h.html" target="_top" xlink:title=" ">
<polygon fill="white" stroke="#666666" points="1031.23,-229.25 910.23,-229.25 910.23,-195.75 1031.23,-195.75 1031.23,-229.25"/>
<text text-anchor="start" x="918.23" y="-215.75" font-family="Helvetica,sans-Serif" font-size="10.00">include/prismspf/core</text>
<text text-anchor="middle" x="970.73" y="-203" font-family="Helvetica,sans-Serif" font-size="10.00">/problem.h</text>
</a>
</g>
</g>
<!-- Node18&#45;&gt;Node19 -->
<g id="edge24_Node000018_Node000019" class="edge">
<title>Node18&#45;&gt;Node19</title>
<g id="a_edge24_Node000018_Node000019"><a xlink:title=" ">
<path fill="none" stroke="#63b8ff" d="M940.2,-395.53C959.71,-372.5 986.53,-336.07 997.73,-298.75 1002.01,-284.49 1001.27,-279.71 997.73,-265.25 994.59,-252.46 987.68,-239.31 981.63,-229.47"/>
<polygon fill="#63b8ff" stroke="#63b8ff" points="937.79,-392.97 933.87,-402.82 943.07,-397.57 937.79,-392.97"/>
</a>
</g>
</g>
<!-- Node20 -->
<g id="Node000020" class="node">
<title>Node20</title>
<g id="a_Node000020"><a xlink:href="refinement__manager_8h.html" target="_top" xlink:title=" ">
<polygon fill="white" stroke="#666666" points="988.35,-298.75 859.1,-298.75 859.1,-265.25 988.35,-265.25 988.35,-298.75"/>
<text text-anchor="start" x="867.1" y="-285.25" font-family="Helvetica,sans-Serif" font-size="10.00">include/prismspf/core</text>
<text text-anchor="middle" x="923.73" y="-272.5" font-family="Helvetica,sans-Serif" font-size="10.00">/refinement_manager.h</text>
</a>
</g>
</g>
<!-- Node18&#45;&gt;Node20 -->
<g id="edge26_Node000018_Node000020" class="edge">
<title>Node18&#45;&gt;Node20</title>
<g id="a_edge26_Node000018_Node000020"><a xlink:title=" ">
<path fill="none" stroke="#63b8ff" d="M918.93,-392.62C920.16,-364.54 922.03,-321.82 923.03,-298.88"/>
<polygon fill="#63b8ff" stroke="#63b8ff" points="915.43,-392.36 918.49,-402.5 922.43,-392.67 915.43,-392.36"/>
</a>
</g>
</g>
<!-- Node18&#45;&gt;Node21 -->
<g id="edge28_Node000018_Node000021" class="edge">
<title>Node18&#45;&gt;Node21</title>
<g id="a_edge28_Node000018_Node000021"><a xlink:title=" ">
<path fill="none" stroke="#63b8ff" d="M872.05,-399.17C850.51,-389.34 825.2,-377.8 805.14,-368.65"/>
<polygon fill="#63b8ff" stroke="#63b8ff" points="870.35,-402.24 880.9,-403.2 873.25,-395.87 870.35,-402.24"/>
</a>
</g>
</g>
<!-- Node18&#45;&gt;Node23 -->
<g id="edge32_Node000018_Node000023" class="edge">
<title>Node18&#45;&gt;Node23</title>
<g id="a_edge32_Node000018_Node000023"><a xlink:title=" ">
<path fill="none" stroke="#63b8ff" d="M972.34,-399.97C999.58,-389.97 1032.08,-378.05 1057.7,-368.65"/>
<polygon fill="#63b8ff" stroke="#63b8ff" points="971.4,-396.58 963.22,-403.31 973.81,-403.15 971.4,-396.58"/>
</a>
</g>
</g>
<!-- Node18&#45;&gt;Node24 -->
<g id="edge34_Node000018_Node000024" class="edge">
<title>Node18&#45;&gt;Node24</title>
<g id="a_edge34_Node000018_Node000024"><a xlink:title=" ">
<path fill="none" stroke="#63b8ff" d="M838.42,-406.75C763.61,-394.25 652.63,-375.71 581.75,-363.86"/>
<polygon fill="#63b8ff" stroke="#63b8ff" points="837.72,-410.18 848.16,-408.38 838.87,-403.28 837.72,-410.18"/>
</a>
</g>
</g>
<!-- Node19&#45;&gt;Node12 -->
<g id="edge25_Node000019_Node000012" class="edge">
<title>Node19&#45;&gt;Node12</title>
<g id="a_edge25_Node000019_Node000012"><a xlink:title=" ">
<path fill="none" stroke="#63b8ff" d="M953,-186.16C921.75,-141.48 858.17,-50.6 837.43,-20.96"/>
<polygon fill="#63b8ff" stroke="#63b8ff" points="950.04,-188.03 958.64,-194.22 955.78,-184.02 950.04,-188.03"/>
</a>
</g>
</g>
<!-- Node20&#45;&gt;Node19 -->
<g id="edge27_Node000020_Node000019" class="edge">
<title>Node20&#45;&gt;Node19</title>
<g id="a_edge27_Node000020_Node000019"><a xlink:title=" ">
<path fill="none" stroke="#63b8ff" d="M941.44,-255.56C947.56,-246.77 954.24,-237.18 959.67,-229.38"/>
<polygon fill="#63b8ff" stroke="#63b8ff" points="938.57,-253.55 935.73,-263.76 944.32,-257.55 938.57,-253.55"/>
</a>
</g>
</g>
<!-- Node21&#45;&gt;Node12 -->
<g id="edge30_Node000021_Node000012" class="edge">
<title>Node21&#45;&gt;Node12</title>
<g id="a_edge30_Node000021_Node000012"><a xlink:title=" ">
<path fill="none" stroke="#63b8ff" d="M793.43,-326.06C800.22,-317.92 807.04,-308.44 811.73,-298.75 828.63,-263.8 830.73,-252.32 830.73,-213.5 830.73,-213.5 830.73,-213.5 830.73,-142 830.73,-96.87 830.73,-42.97 830.73,-21.21"/>
<polygon fill="#63b8ff" stroke="#63b8ff" points="790.87,-323.67 786.89,-333.49 796.12,-328.29 790.87,-323.67"/>
</a>
</g>
</g>
<!-- Node21&#45;&gt;Node21 -->
<g id="edge29_Node000021_Node000021" class="edge">
<title>Node21&#45;&gt;Node21</title>
<g id="a_edge29_Node000021_Node000021"><a xlink:title=" ">
<path fill="none" stroke="#63b8ff" d="M841.45,-360.45C845.69,-358.31 848.23,-355.33 848.23,-351.5 848.23,-345.05 841.02,-341 830.62,-339.33"/>
<polygon fill="#63b8ff" stroke="#63b8ff" points="840.66,-357.04 832.07,-363.23 842.65,-363.75 840.66,-357.04"/>
</a>
</g>
</g>
<!-- Node22 -->
<g id="Node000022" class="node">
<title>Node22</title>
<g id="a_Node000022"><a xlink:href="solution__output_8cc.html" target="_top" xlink:title=" ">
<polygon fill="white" stroke="#666666" points="802.98,-292.38 656.48,-292.38 656.48,-271.62 802.98,-271.62 802.98,-292.38"/>
<text text-anchor="middle" x="729.73" y="-278.88" font-family="Helvetica,sans-Serif" font-size="10.00">src/core/solution_output.cc</text>
</a>
</g>
</g>
<!-- Node21&#45;&gt;Node22 -->
<g id="edge31_Node000021_Node000022" class="edge">
<title>Node21&#45;&gt;Node22</title>
<g id="a_edge31_Node000021_Node000022"><a xlink:title=" ">
<path fill="none" stroke="#63b8ff" d="M754.47,-324.75C747.85,-313.59 740.5,-301.19 735.55,-292.82"/>
<polygon fill="#63b8ff" stroke="#63b8ff" points="751.37,-326.38 759.48,-333.2 757.39,-322.81 751.37,-326.38"/>
</a>
</g>
</g>
<!-- Node23&#45;&gt;Node19 -->
<g id="edge33_Node000023_Node000019" class="edge">
<title>Node23&#45;&gt;Node19</title>
<g id="a_edge33_Node000023_Node000019"><a xlink:title=" ">
<path fill="none" stroke="#63b8ff" d="M1082.62,-325.4C1068.87,-307.91 1049.52,-284.37 1030.73,-265.25 1018.29,-252.59 1003.15,-239.55 991.19,-229.73"/>
<polygon fill="#63b8ff" stroke="#63b8ff" points="1079.81,-327.49 1088.71,-333.24 1085.33,-323.2 1079.81,-327.49"/>
</a>
</g>
</g>
<!-- Node24&#45;&gt;Node9 -->
<g id="edge40_Node000024_Node000009" class="edge">
<title>Node24&#45;&gt;Node9</title>
<g id="a_edge40_Node000024_Node000009"><a xlink:title=" ">
<path fill="none" stroke="#63b8ff" d="M460.85,-330.33C434.72,-320.37 403.62,-308.51 379.08,-299.15"/>
<polygon fill="#63b8ff" stroke="#63b8ff" points="459.33,-333.5 469.92,-333.79 461.82,-326.96 459.33,-333.5"/>
</a>
</g>
</g>
<!-- Node24&#45;&gt;Node10 -->
<g id="edge38_Node000024_Node000010" class="edge">
<title>Node24&#45;&gt;Node10</title>
<g id="a_edge38_Node000024_Node000010"><a xlink:title=" ">
<path fill="none" stroke="#63b8ff" d="M434.45,-339.54C383.67,-331.25 316.82,-317.98 259.73,-298.75 204.78,-280.24 144.76,-248.72 110.63,-229.63"/>
<polygon fill="#63b8ff" stroke="#63b8ff" points="433.76,-342.97 444.19,-341.09 434.86,-336.06 433.76,-342.97"/>
</a>
</g>
</g>
<!-- Node24&#45;&gt;Node12 -->
<g id="edge42_Node000024_Node000012" class="edge">
<title>Node24&#45;&gt;Node12</title>
<g id="a_edge42_Node000024_Node000012"><a xlink:title=" ">
<path fill="none" stroke="#63b8ff" d="M554.93,-328.31C567.26,-320.22 580.06,-310.2 589.73,-298.75 616.6,-266.91 628.73,-255.17 628.73,-213.5 628.73,-213.5 628.73,-213.5 628.73,-142 628.73,-70.27 719.65,-35.99 779.49,-21.2"/>
<polygon fill="#63b8ff" stroke="#63b8ff" points="553.12,-325.31 546.49,-333.57 556.82,-331.25 553.12,-325.31"/>
</a>
</g>
</g>
<!-- Node24&#45;&gt;Node14 -->
<g id="edge39_Node000024_Node000014" class="edge">
<title>Node24&#45;&gt;Node14</title>
<g id="a_edge39_Node000024_Node000014"><a xlink:title=" ">
<path fill="none" stroke="#63b8ff" d="M477.66,-327.51C467.82,-319.55 458.13,-309.81 451.73,-298.75 439.23,-277.16 436.63,-247.72 436.35,-229.7"/>
<polygon fill="#63b8ff" stroke="#63b8ff" points="475.35,-330.15 485.44,-333.39 479.58,-324.57 475.35,-330.15"/>
</a>
</g>
</g>
<!-- Node24&#45;&gt;Node16 -->
<g id="edge41_Node000024_Node000016" class="edge">
<title>Node24&#45;&gt;Node16</title>
<g id="a_edge41_Node000024_Node000016"><a xlink:title=" ">
<path fill="none" stroke="#63b8ff" d="M549.17,-327.27C558.23,-319.4 566.79,-309.76 571.73,-298.75 593.25,-250.71 561.34,-188.74 543.46,-159.97"/>
<polygon fill="#63b8ff" stroke="#63b8ff" points="547.24,-324.34 541.63,-333.32 551.62,-329.8 547.24,-324.34"/>
</a>
</g>
</g>
<!-- Node24&#45;&gt;Node20 -->
<g id="edge35_Node000024_Node000020" class="edge">
<title>Node24&#45;&gt;Node20</title>
<g id="a_edge35_Node000024_Node000020"><a xlink:title=" ">
<path fill="none" stroke="#63b8ff" d="M592.55,-337.52C669.88,-324.79 786.41,-305.61 858.63,-293.72"/>
<polygon fill="#63b8ff" stroke="#63b8ff" points="592.22,-334.03 582.92,-339.11 593.36,-340.94 592.22,-334.03"/>
</a>
</g>
</g>
<!-- Node25 -->
<g id="Node000025" class="node">
<title>Node25</title>
<g id="a_Node000025"><a xlink:href="constant__solver_8h.html" target="_top" xlink:title=" ">
<polygon fill="white" stroke="#666666" points="135.35,-159.75 0.1,-159.75 0.1,-126.25 135.35,-126.25 135.35,-159.75"/>
<text text-anchor="start" x="8.1" y="-146.25" font-family="Helvetica,sans-Serif" font-size="10.00">include/prismspf/solvers</text>
<text text-anchor="middle" x="67.73" y="-133.5" font-family="Helvetica,sans-Serif" font-size="10.00">/constant_solver.h</text>
</a>
</g>
</g>
<!-- Node24&#45;&gt;Node25 -->
<g id="edge36_Node000024_Node000025" class="edge">
<title>Node24&#45;&gt;Node25</title>
<g id="a_edge36_Node000024_Node000025"><a xlink:title=" ">
<path fill="none" stroke="#63b8ff" d="M434.46,-340.56C350.31,-329.62 223.04,-311.85 175.73,-298.75 97.06,-276.98 51.23,-297.01 5.73,-229.25 -2.57,-216.89 -0.58,-209.24 5.73,-195.75 12.68,-180.89 26.23,-168.81 38.89,-160.06"/>
<polygon fill="#63b8ff" stroke="#63b8ff" points="433.92,-344.02 444.28,-341.83 434.81,-337.08 433.92,-344.02"/>
</a>
</g>
</g>
<!-- Node26 -->
<g id="Node000026" class="node">
<title>Node26</title>
<g id="a_Node000026"><a xlink:href="solver__base_8cc.html" target="_top" xlink:title=" ">
<polygon fill="white" stroke="#666666" points="562.48,-298.75 460.98,-298.75 460.98,-265.25 562.48,-265.25 562.48,-298.75"/>
<text text-anchor="start" x="468.98" y="-285.25" font-family="Helvetica,sans-Serif" font-size="10.00">src/solvers/solver</text>
<text text-anchor="middle" x="511.73" y="-272.5" font-family="Helvetica,sans-Serif" font-size="10.00">_base.cc</text>
</a>
</g>
</g>
<!-- Node24&#45;&gt;Node26 -->
<g id="edge43_Node000024_Node000026" class="edge">
<title>Node24&#45;&gt;Node26</title>
<g id="a_edge43_Node000024_Node000026"><a xlink:title=" ">
<path fill="none" stroke="#63b8ff" d="M512.91,-323.06C512.67,-314.84 512.41,-306.09 512.2,-298.88"/>
<polygon fill="#63b8ff" stroke="#63b8ff" points="509.41,-323.1 513.21,-332.99 516.41,-322.89 509.41,-323.1"/>
</a>
</g>
</g>
<!-- Node25&#45;&gt;Node11 -->
<g id="edge37_Node000025_Node000011" class="edge">
<title>Node25&#45;&gt;Node11</title>
<g id="a_edge37_Node000025_Node000011"><a xlink:title=" ">
<path fill="none" stroke="#63b8ff" d="M147.01,-127.5C213.03,-115.42 306.03,-98.41 368.7,-86.94"/>
<polygon fill="#63b8ff" stroke="#63b8ff" points="146.53,-124.03 137.33,-129.27 147.79,-130.91 146.53,-124.03"/>
</a>
</g>
</g>
<!-- Node28&#45;&gt;Node23 -->
<g id="edge52_Node000028_Node000023" class="edge">
<title>Node28&#45;&gt;Node23</title>
<g id="a_edge52_Node000028_Node000023"><a xlink:title=" ">
<path fill="none" stroke="#63b8ff" d="M1106.51,-392.85C1105.53,-384.54 1104.47,-375.68 1103.61,-368.38"/>
<polygon fill="#63b8ff" stroke="#63b8ff" points="1103,-392.98 1107.65,-402.5 1109.95,-392.16 1103,-392.98"/>
</a>
</g>
</g>
</g>
</svg>
