<?xml version="1.0" encoding="UTF-8" standalone="no"?>
<!DOCTYPE svg PUBLIC "-//W3C//DTD SVG 1.1//EN"
 "http://www.w3.org/Graphics/SVG/1.1/DTD/svg11.dtd">
<!-- Generated by graphviz version 12.2.1 (20241206.2353)
 -->
<!-- Title: include/prismspf/core/matrix_free_manager.h Pages: 1 -->
<svg width="1245pt" height="793pt"
 viewBox="0.00 0.00 1244.58 793.25" xmlns="http://www.w3.org/2000/svg" xmlns:xlink="http://www.w3.org/1999/xlink">
<g id="graph0" class="graph" transform="scale(1 1) rotate(0) translate(4 789.25)">
<title>include/prismspf/core/matrix_free_manager.h</title>
<!-- Node1 -->
<g id="Node000001" class="node">
<title>Node1</title>
<g id="a_Node000001"><a xlink:title=" ">
<polygon fill="#999999" stroke="#666666" points="1028.5,-785.25 895.5,-785.25 895.5,-751.75 1028.5,-751.75 1028.5,-785.25"/>
<text text-anchor="start" x="903.5" y="-771.75" font-family="Helvetica,sans-Serif" font-size="10.00">include/prismspf/core</text>
<text text-anchor="middle" x="962" y="-759" font-family="Helvetica,sans-Serif" font-size="10.00">/matrix_free_manager.h</text>
</a>
</g>
</g>
<!-- Node2 -->
<g id="Node000002" class="node">
<title>Node2</title>
<g id="a_Node000002"><a xlink:href="group__solution__handler_8h.html" target="_top" xlink:title=" ">
<polygon fill="white" stroke="#666666" points="674.62,-715.75 533.38,-715.75 533.38,-682.25 674.62,-682.25 674.62,-715.75"/>
<text text-anchor="start" x="541.38" y="-702.25" font-family="Helvetica,sans-Serif" font-size="10.00">include/prismspf/core</text>
<text text-anchor="middle" x="604" y="-689.5" font-family="Helvetica,sans-Serif" font-size="10.00">/group_solution_handler.h</text>
</a>
</g>
</g>
<!-- Node1&#45;&gt;Node2 -->
<g id="edge1_Node000001_Node000002" class="edge">
<title>Node1&#45;&gt;Node2</title>
<g id="a_edge1_Node000001_Node000002"><a xlink:title=" ">
<path fill="none" stroke="#63b8ff" d="M884.14,-752.82C821.85,-741.08 735.25,-724.75 674.88,-713.36"/>
<polygon fill="#63b8ff" stroke="#63b8ff" points="883.12,-756.19 893.6,-754.6 884.42,-749.31 883.12,-756.19"/>
</a>
</g>
</g>
<!-- Node6 -->
<g id="Node000006" class="node">
<title>Node6</title>
<g id="a_Node000006"><a xlink:href="mf__operator_8h.html" target="_top" xlink:title=" ">
<polygon fill="white" stroke="#666666" points="296.62,-298.75 161.38,-298.75 161.38,-265.25 296.62,-265.25 296.62,-298.75"/>
<text text-anchor="start" x="169.38" y="-285.25" font-family="Helvetica,sans-Serif" font-size="10.00">include/prismspf/solvers</text>
<text text-anchor="middle" x="229" y="-272.5" font-family="Helvetica,sans-Serif" font-size="10.00">/mf_operator.h</text>
</a>
</g>
</g>
<!-- Node1&#45;&gt;Node6 -->
<g id="edge58_Node000001_Node000006" class="edge">
<title>Node1&#45;&gt;Node6</title>
<g id="a_edge58_Node000001_Node000006"><a xlink:title=" ">
<path fill="none" stroke="#63b8ff" d="M883.88,-764.56C654.67,-754.92 0,-719.57 0,-630.5 0,-630.5 0,-630.5 0,-420 0,-344.25 93.41,-309.38 160.91,-294.07"/>
<polygon fill="#63b8ff" stroke="#63b8ff" points="883.47,-768.05 893.61,-764.97 883.76,-761.06 883.47,-768.05"/>
</a>
</g>
</g>
<!-- Node14 -->
<g id="Node000014" class="node">
<title>Node14</title>
<g id="a_Node000014"><a xlink:href="solve__context_8h.html" target="_top" xlink:title=" ">
<polygon fill="white" stroke="#666666" points="954.62,-437.75 819.38,-437.75 819.38,-404.25 954.62,-404.25 954.62,-437.75"/>
<text text-anchor="start" x="827.38" y="-424.25" font-family="Helvetica,sans-Serif" font-size="10.00">include/prismspf/solvers</text>
<text text-anchor="middle" x="887" y="-411.5" font-family="Helvetica,sans-Serif" font-size="10.00">/solve_context.h</text>
</a>
</g>
</g>
<!-- Node1&#45;&gt;Node14 -->
<g id="edge59_Node000001_Node000014" class="edge">
<title>Node1&#45;&gt;Node14</title>
<g id="a_edge59_Node000001_Node000014"><a xlink:title=" ">
<path fill="none" stroke="#63b8ff" d="M974,-740.88C985.13,-713.7 1000,-670.02 1000,-630.5 1000,-630.5 1000,-630.5 1000,-559 1000,-504.89 946.89,-460.58 913.49,-438.07"/>
<polygon fill="#63b8ff" stroke="#63b8ff" points="970.79,-739.49 970.1,-750.06 977.23,-742.22 970.79,-739.49"/>
</a>
</g>
</g>
<!-- Node16 -->
<g id="Node000016" class="node">
<title>Node16</title>
<g id="a_Node000016"><a xlink:href="refinement__manager_8h.html" target="_top" xlink:title=" ">
<polygon fill="white" stroke="#666666" points="1146.62,-298.75 1017.38,-298.75 1017.38,-265.25 1146.62,-265.25 1146.62,-298.75"/>
<text text-anchor="start" x="1025.38" y="-285.25" font-family="Helvetica,sans-Serif" font-size="10.00">include/prismspf/core</text>
<text text-anchor="middle" x="1082" y="-272.5" font-family="Helvetica,sans-Serif" font-size="10.00">/refinement_manager.h</text>
</a>
</g>
</g>
<!-- Node1&#45;&gt;Node16 -->
<g id="edge57_Node000001_Node000016" class="edge">
<title>Node1&#45;&gt;Node16</title>
<g id="a_edge57_Node000001_Node000016"><a xlink:title=" ">
<path fill="none" stroke="#63b8ff" d="M1039.93,-761.19C1120.62,-749.89 1235,-718.37 1235,-630.5 1235,-630.5 1235,-630.5 1235,-420 1235,-381.18 1241.33,-364.17 1216,-334.75 1198.43,-314.34 1171.83,-301.94 1146.96,-294.42"/>
<polygon fill="#63b8ff" stroke="#63b8ff" points="1039.74,-757.68 1030.28,-762.45 1040.65,-764.62 1039.74,-757.68"/>
</a>
</g>
</g>
<!-- Node28 -->
<g id="Node000028" class="node">
<title>Node28</title>
<g id="a_Node000028"><a xlink:href="invm__manager_8h.html" target="_top" xlink:title=" ">
<polygon fill="white" stroke="#666666" points="947.5,-507.25 826.5,-507.25 826.5,-473.75 947.5,-473.75 947.5,-507.25"/>
<text text-anchor="start" x="834.5" y="-493.75" font-family="Helvetica,sans-Serif" font-size="10.00">include/prismspf/core</text>
<text text-anchor="middle" x="887" y="-481" font-family="Helvetica,sans-Serif" font-size="10.00">/invm_manager.h</text>
</a>
</g>
</g>
<!-- Node1&#45;&gt;Node28 -->
<g id="edge54_Node000001_Node000028" class="edge">
<title>Node1&#45;&gt;Node28</title>
<g id="a_edge54_Node000001_Node000028"><a xlink:title=" ">
<path fill="none" stroke="#63b8ff" d="M965.77,-740.09C970.54,-696.1 974.69,-608.08 943,-543.25 936.02,-528.98 923.28,-516.72 911.71,-507.71"/>
<polygon fill="#63b8ff" stroke="#63b8ff" points="962.3,-739.68 964.59,-750.02 969.25,-740.51 962.3,-739.68"/>
</a>
</g>
</g>
<!-- Node3 -->
<g id="Node000003" class="node">
<title>Node3</title>
<g id="a_Node000003"><a xlink:href="solution__indexer_8h.html" target="_top" xlink:title=" ">
<polygon fill="white" stroke="#666666" points="791.5,-646.25 670.5,-646.25 670.5,-612.75 791.5,-612.75 791.5,-646.25"/>
<text text-anchor="start" x="678.5" y="-632.75" font-family="Helvetica,sans-Serif" font-size="10.00">include/prismspf/core</text>
<text text-anchor="middle" x="731" y="-620" font-family="Helvetica,sans-Serif" font-size="10.00">/solution_indexer.h</text>
</a>
</g>
</g>
<!-- Node2&#45;&gt;Node3 -->
<g id="edge2_Node000002_Node000003" class="edge">
<title>Node2&#45;&gt;Node3</title>
<g id="a_edge2_Node000002_Node000003"><a xlink:title=" ">
<path fill="none" stroke="#63b8ff" d="M644.5,-676.47C662.77,-666.76 683.98,-655.49 700.83,-646.54"/>
<polygon fill="#63b8ff" stroke="#63b8ff" points="642.94,-673.34 635.76,-681.12 646.23,-679.52 642.94,-673.34"/>
</a>
</g>
</g>
<!-- Node2&#45;&gt;Node6 -->
<g id="edge48_Node000002_Node000006" class="edge">
<title>Node2&#45;&gt;Node6</title>
<g id="a_edge48_Node000002_Node000006"><a xlink:title=" ">
<path fill="none" stroke="#63b8ff" d="M522.21,-688.02C446.58,-674.78 335.55,-644.56 265,-576.75 196.15,-510.56 215.06,-463.73 213,-368.25 212.68,-353.36 210.78,-349.47 213,-334.75 214.85,-322.48 219.05,-309.1 222.68,-299.02"/>
<polygon fill="#63b8ff" stroke="#63b8ff" points="521.17,-691.4 531.61,-689.61 522.33,-684.49 521.17,-691.4"/>
</a>
</g>
</g>
<!-- Node11 -->
<g id="Node000011" class="node">
<title>Node11</title>
<g id="a_Node000011"><a xlink:href="linear__solver_8h.html" target="_top" xlink:title=" ">
<polygon fill="white" stroke="#666666" points="644.62,-229.25 509.38,-229.25 509.38,-195.75 644.62,-195.75 644.62,-229.25"/>
<text text-anchor="start" x="517.38" y="-215.75" font-family="Helvetica,sans-Serif" font-size="10.00">include/prismspf/solvers</text>
<text text-anchor="middle" x="577" y="-203" font-family="Helvetica,sans-Serif" font-size="10.00">/linear_solver.h</text>
</a>
</g>
</g>
<!-- Node2&#45;&gt;Node11 -->
<g id="edge47_Node000002_Node000011" class="edge">
<title>Node2&#45;&gt;Node11</title>
<g id="a_edge47_Node000002_Node000011"><a xlink:title=" ">
<path fill="none" stroke="#63b8ff" d="M616.07,-671.85C642.31,-611.29 699.28,-457.21 661,-334.75 647.63,-291.98 613.29,-251.02 592.89,-229.39"/>
<polygon fill="#63b8ff" stroke="#63b8ff" points="613.02,-670.1 612.17,-680.66 619.42,-672.94 613.02,-670.1"/>
</a>
</g>
</g>
<!-- Node12 -->
<g id="Node000012" class="node">
<title>Node12</title>
<g id="a_Node000012"><a xlink:href="newton__solver_8h.html" target="_top" xlink:title=" ">
<polygon fill="white" stroke="#666666" points="395.62,-159.75 260.38,-159.75 260.38,-126.25 395.62,-126.25 395.62,-159.75"/>
<text text-anchor="start" x="268.38" y="-146.25" font-family="Helvetica,sans-Serif" font-size="10.00">include/prismspf/solvers</text>
<text text-anchor="middle" x="328" y="-133.5" font-family="Helvetica,sans-Serif" font-size="10.00">/newton_solver.h</text>
</a>
</g>
</g>
<!-- Node2&#45;&gt;Node12 -->
<g id="edge49_Node000002_Node000012" class="edge">
<title>Node2&#45;&gt;Node12</title>
<g id="a_edge49_Node000002_Node000012"><a xlink:title=" ">
<path fill="none" stroke="#63b8ff" d="M521.88,-694.73C381.26,-688.44 106.09,-672.87 71,-646.25 38.63,-621.69 38,-601.63 38,-561 38,-561 38,-561 38,-281 38,-242.18 29.13,-222.78 57,-195.75 85.32,-168.28 189.43,-154.73 260.05,-148.57"/>
<polygon fill="#63b8ff" stroke="#63b8ff" points="521.34,-698.21 531.48,-695.15 521.65,-691.21 521.34,-698.21"/>
</a>
</g>
</g>
<!-- Node13 -->
<g id="Node000013" class="node">
<title>Node13</title>
<g id="a_Node000013"><a xlink:href="mf__operator_8cc.html" target="_top" xlink:title=" ">
<polygon fill="white" stroke="#666666" points="210.12,-222.88 65.88,-222.88 65.88,-202.12 210.12,-202.12 210.12,-222.88"/>
<text text-anchor="middle" x="138" y="-209.38" font-family="Helvetica,sans-Serif" font-size="10.00">src/solvers/mf_operator.cc</text>
</a>
</g>
</g>
<!-- Node2&#45;&gt;Node13 -->
<g id="edge53_Node000002_Node000013" class="edge">
<title>Node2&#45;&gt;Node13</title>
<g id="a_edge53_Node000002_Node000013"><a xlink:title=" ">
<path fill="none" stroke="#63b8ff" d="M521.87,-694.85C385.99,-688.88 126.2,-673.97 95,-646.25 65.98,-620.47 76,-599.82 76,-561 76,-561 76,-561 76,-350.5 76,-298.55 113.46,-244.58 130.15,-223.12"/>
<polygon fill="#63b8ff" stroke="#63b8ff" points="521.37,-698.33 531.52,-695.27 521.68,-691.34 521.37,-698.33"/>
</a>
</g>
</g>
<!-- Node20 -->
<g id="Node000020" class="node">
<title>Node20</title>
<g id="a_Node000020"><a xlink:href="solver__base_8h.html" target="_top" xlink:title=" ">
<polygon fill="white" stroke="#666666" points="651.62,-368.25 516.38,-368.25 516.38,-334.75 651.62,-334.75 651.62,-368.25"/>
<text text-anchor="start" x="524.38" y="-354.75" font-family="Helvetica,sans-Serif" font-size="10.00">include/prismspf/solvers</text>
<text text-anchor="middle" x="584" y="-342" font-family="Helvetica,sans-Serif" font-size="10.00">/solver_base.h</text>
</a>
</g>
</g>
<!-- Node2&#45;&gt;Node20 -->
<g id="edge50_Node000002_Node000020" class="edge">
<title>Node2&#45;&gt;Node20</title>
<g id="a_edge50_Node000002_Node000020"><a xlink:title=" ">
<path fill="none" stroke="#63b8ff" d="M602.42,-670.65C598.44,-601.88 588.1,-423.36 584.94,-368.67"/>
<polygon fill="#63b8ff" stroke="#63b8ff" points="598.9,-670.51 602.97,-680.29 605.89,-670.1 598.9,-670.51"/>
</a>
</g>
</g>
<!-- Node26 -->
<g id="Node000026" class="node">
<title>Node26</title>
<g id="a_Node000026"><a xlink:href="solution__indexer_8cc.html" target="_top" xlink:title=" ">
<polygon fill="white" stroke="#666666" points="934.12,-570.38 783.88,-570.38 783.88,-549.62 934.12,-549.62 934.12,-570.38"/>
<text text-anchor="middle" x="859" y="-556.88" font-family="Helvetica,sans-Serif" font-size="10.00">src/core/solution_indexer.cc</text>
</a>
</g>
</g>
<!-- Node2&#45;&gt;Node26 -->
<g id="edge52_Node000002_Node000026" class="edge">
<title>Node2&#45;&gt;Node26</title>
<g id="a_edge52_Node000002_Node000026"><a xlink:title=" ">
<path fill="none" stroke="#63b8ff" d="M685.77,-689.82C723.53,-682.88 767.35,-670.02 801,-646.25 829.07,-626.42 847.66,-588.38 855.2,-570.6"/>
<polygon fill="#63b8ff" stroke="#63b8ff" points="685.53,-686.31 676.27,-691.46 686.72,-693.21 685.53,-686.31"/>
</a>
</g>
</g>
<!-- Node27 -->
<g id="Node000027" class="node">
<title>Node27</title>
<g id="a_Node000027"><a xlink:href="group__solution__handler_8cc.html" target="_top" xlink:title=" ">
<polygon fill="white" stroke="#666666" points="233.62,-646.25 104.38,-646.25 104.38,-612.75 233.62,-612.75 233.62,-646.25"/>
<text text-anchor="start" x="112.38" y="-632.75" font-family="Helvetica,sans-Serif" font-size="10.00">src/core/group_solution</text>
<text text-anchor="middle" x="169" y="-620" font-family="Helvetica,sans-Serif" font-size="10.00">_handler.cc</text>
</a>
</g>
</g>
<!-- Node2&#45;&gt;Node27 -->
<g id="edge51_Node000002_Node000027" class="edge">
<title>Node2&#45;&gt;Node27</title>
<g id="a_edge51_Node000002_Node000027"><a xlink:title=" ">
<path fill="none" stroke="#63b8ff" d="M521.62,-687.27C449.34,-677.56 341.48,-662.35 248,-646.25 243.45,-645.47 238.76,-644.62 234.05,-643.75"/>
<polygon fill="#63b8ff" stroke="#63b8ff" points="521.03,-690.72 531.4,-688.58 521.96,-683.79 521.03,-690.72"/>
</a>
</g>
</g>
<!-- Node4 -->
<g id="Node000004" class="node">
<title>Node4</title>
<g id="a_Node000004"><a xlink:href="field__container_8h.html" target="_top" xlink:title=" ">
<polygon fill="white" stroke="#666666" points="395.5,-576.75 274.5,-576.75 274.5,-543.25 395.5,-543.25 395.5,-576.75"/>
<text text-anchor="start" x="282.5" y="-563.25" font-family="Helvetica,sans-Serif" font-size="10.00">include/prismspf/core</text>
<text text-anchor="middle" x="335" y="-550.5" font-family="Helvetica,sans-Serif" font-size="10.00">/field_container.h</text>
</a>
</g>
</g>
<!-- Node3&#45;&gt;Node4 -->
<g id="edge3_Node000003_Node000004" class="edge">
<title>Node3&#45;&gt;Node4</title>
<g id="a_edge3_Node000003_Node000004"><a xlink:title=" ">
<path fill="none" stroke="#63b8ff" d="M659.17,-616.26C583.86,-603.42 466.82,-583.47 395.89,-571.38"/>
<polygon fill="#63b8ff" stroke="#63b8ff" points="658.49,-619.69 668.93,-617.92 659.66,-612.79 658.49,-619.69"/>
</a>
</g>
</g>
<!-- Node3&#45;&gt;Node6 -->
<g id="edge44_Node000003_Node000006" class="edge">
<title>Node3&#45;&gt;Node6</title>
<g id="a_edge44_Node000003_Node000006"><a xlink:title=" ">
<path fill="none" stroke="#63b8ff" d="M716.18,-602.75C688.52,-556.79 624.73,-460.21 547,-404.25 470.16,-348.93 364.91,-315.36 296.93,-297.98"/>
<polygon fill="#63b8ff" stroke="#63b8ff" points="713.1,-604.41 721.21,-611.23 719.12,-600.84 713.1,-604.41"/>
</a>
</g>
</g>
<!-- Node3&#45;&gt;Node14 -->
<g id="edge45_Node000003_Node000014" class="edge">
<title>Node3&#45;&gt;Node14</title>
<g id="a_edge45_Node000003_Node000014"><a xlink:title=" ">
<path fill="none" stroke="#63b8ff" d="M741.46,-601.94C755.33,-569.12 782.28,-512.82 818,-473.75 830.53,-460.05 847.11,-447.48 860.88,-438.16"/>
<polygon fill="#63b8ff" stroke="#63b8ff" points="738.26,-600.53 737.68,-611.11 744.73,-603.2 738.26,-600.53"/>
</a>
</g>
</g>
<!-- Node17 -->
<g id="Node000017" class="node">
<title>Node17</title>
<g id="a_Node000017"><a xlink:href="solution__output_8h.html" target="_top" xlink:title=" ">
<polygon fill="white" stroke="#666666" points="926.5,-368.25 805.5,-368.25 805.5,-334.75 926.5,-334.75 926.5,-368.25"/>
<text text-anchor="start" x="813.5" y="-354.75" font-family="Helvetica,sans-Serif" font-size="10.00">include/prismspf/core</text>
<text text-anchor="middle" x="866" y="-342" font-family="Helvetica,sans-Serif" font-size="10.00">/solution_output.h</text>
</a>
</g>
</g>
<!-- Node3&#45;&gt;Node17 -->
<g id="edge43_Node000003_Node000017" class="edge">
<title>Node3&#45;&gt;Node17</title>
<g id="a_edge43_Node000003_Node000017"><a xlink:title=" ">
<path fill="none" stroke="#63b8ff" d="M735.5,-601.36C743.94,-556.77 765.45,-466.76 810,-404.25 819.6,-390.77 833.18,-378.12 844.56,-368.7"/>
<polygon fill="#63b8ff" stroke="#63b8ff" points="732.11,-600.47 733.77,-610.93 738.99,-601.71 732.11,-600.47"/>
</a>
</g>
</g>
<!-- Node3&#45;&gt;Node26 -->
<g id="edge46_Node000003_Node000026" class="edge">
<title>Node3&#45;&gt;Node26</title>
<g id="a_edge46_Node000003_Node000026"><a xlink:title=" ">
<path fill="none" stroke="#63b8ff" d="M771.56,-607.11C794.67,-594.92 822.51,-580.24 840.47,-570.77"/>
<polygon fill="#63b8ff" stroke="#63b8ff" points="770.21,-603.87 763,-611.63 773.48,-610.06 770.21,-603.87"/>
</a>
</g>
</g>
<!-- Node5 -->
<g id="Node000005" class="node">
<title>Node5</title>
<g id="a_Node000005"><a xlink:href="pde__operator__base_8h.html" target="_top" xlink:title=" ">
<polygon fill="white" stroke="#666666" points="395.5,-507.25 274.5,-507.25 274.5,-473.75 395.5,-473.75 395.5,-507.25"/>
<text text-anchor="start" x="282.5" y="-493.75" font-family="Helvetica,sans-Serif" font-size="10.00">include/prismspf/core</text>
<text text-anchor="middle" x="335" y="-481" font-family="Helvetica,sans-Serif" font-size="10.00">/pde_operator_base.h</text>
</a>
</g>
</g>
<!-- Node4&#45;&gt;Node5 -->
<g id="edge4_Node000004_Node000005" class="edge">
<title>Node4&#45;&gt;Node5</title>
<g id="a_edge4_Node000004_Node000005"><a xlink:title=" ">
<path fill="none" stroke="#63b8ff" d="M335,-531.56C335,-523.34 335,-514.59 335,-507.38"/>
<polygon fill="#63b8ff" stroke="#63b8ff" points="331.5,-531.49 335,-541.49 338.5,-531.49 331.5,-531.49"/>
</a>
</g>
</g>
<!-- Node4&#45;&gt;Node6 -->
<g id="edge40_Node000004_Node000006" class="edge">
<title>Node4&#45;&gt;Node6</title>
<g id="a_edge40_Node000004_Node000006"><a xlink:title=" ">
<path fill="none" stroke="#63b8ff" d="M298,-536.32C286.51,-528.12 274.41,-518.16 265,-507.25 242.15,-480.75 238.41,-471.16 228,-437.75 214.35,-393.91 216.05,-380.5 220,-334.75 221.04,-322.76 223.4,-309.37 225.44,-299.22"/>
<polygon fill="#63b8ff" stroke="#63b8ff" points="295.96,-539.17 306.19,-541.93 299.92,-533.39 295.96,-539.17"/>
</a>
</g>
</g>
<!-- Node4&#45;&gt;Node13 -->
<g id="edge42_Node000004_Node000013" class="edge">
<title>Node4&#45;&gt;Node13</title>
<g id="a_edge42_Node000004_Node000013"><a xlink:title=" ">
<path fill="none" stroke="#63b8ff" d="M278.75,-537.75C263.69,-529.96 248.44,-519.88 237,-507.25 156.97,-418.9 141.32,-263.53 138.55,-223.25"/>
<polygon fill="#63b8ff" stroke="#63b8ff" points="277.21,-540.9 287.74,-542.12 280.27,-534.6 277.21,-540.9"/>
</a>
</g>
</g>
<!-- Node25 -->
<g id="Node000025" class="node">
<title>Node25</title>
<g id="a_Node000025"><a xlink:href="field__container_8cc.html" target="_top" xlink:title=" ">
<polygon fill="white" stroke="#666666" points="556,-500.88 414,-500.88 414,-480.12 556,-480.12 556,-500.88"/>
<text text-anchor="middle" x="485" y="-487.38" font-family="Helvetica,sans-Serif" font-size="10.00">src/core/field_container.cc</text>
</a>
</g>
</g>
<!-- Node4&#45;&gt;Node25 -->
<g id="edge41_Node000004_Node000025" class="edge">
<title>Node4&#45;&gt;Node25</title>
<g id="a_edge41_Node000004_Node000025"><a xlink:title=" ">
<path fill="none" stroke="#63b8ff" d="M381.08,-538.26C408.44,-525.95 441.86,-510.91 463.29,-501.27"/>
<polygon fill="#63b8ff" stroke="#63b8ff" points="379.99,-534.92 372.31,-542.21 382.86,-541.3 379.99,-534.92"/>
</a>
</g>
</g>
<!-- Node5&#45;&gt;Node6 -->
<g id="edge5_Node000005_Node000006" class="edge">
<title>Node5&#45;&gt;Node6</title>
<g id="a_edge5_Node000005_Node000006"><a xlink:title=" ">
<path fill="none" stroke="#63b8ff" d="M280.79,-468.04C267.77,-460.38 255.25,-450.41 247,-437.75 218.65,-394.24 222.7,-328.95 226.5,-299.02"/>
<polygon fill="#63b8ff" stroke="#63b8ff" points="279,-471.05 289.46,-472.74 282.34,-464.9 279,-471.05"/>
</a>
</g>
</g>
<!-- Node5&#45;&gt;Node14 -->
<g id="edge16_Node000005_Node000014" class="edge">
<title>Node5&#45;&gt;Node14</title>
<g id="a_edge16_Node000005_Node000014"><a xlink:title=" ">
<path fill="none" stroke="#63b8ff" d="M406.63,-473.61C559.86,-448.73 727.82,-433.86 819.22,-426.82"/>
<polygon fill="#63b8ff" stroke="#63b8ff" points="406.42,-470.09 397.12,-475.17 407.55,-477 406.42,-470.09"/>
</a>
</g>
</g>
<!-- Node5&#45;&gt;Node20 -->
<g id="edge37_Node000005_Node000020" class="edge">
<title>Node5&#45;&gt;Node20</title>
<g id="a_edge37_Node000005_Node000020"><a xlink:title=" ">
<path fill="none" stroke="#63b8ff" d="M406.81,-472.76C467.21,-458.55 544.2,-440.11 547,-437.75 568.1,-419.97 577.52,-387.91 581.45,-368.57"/>
<polygon fill="#63b8ff" stroke="#63b8ff" points="406.16,-469.32 397.22,-475.01 407.76,-476.13 406.16,-469.32"/>
</a>
</g>
</g>
<!-- Node23 -->
<g id="Node000023" class="node">
<title>Node23</title>
<g id="a_Node000023"><a xlink:href="dirichlet_8cc.html" target="_top" xlink:title=" ">
<polygon fill="white" stroke="#666666" points="366.25,-431.38 255.75,-431.38 255.75,-410.62 366.25,-410.62 366.25,-431.38"/>
<text text-anchor="middle" x="311" y="-417.88" font-family="Helvetica,sans-Serif" font-size="10.00">src/core/dirichlet.cc</text>
</a>
</g>
</g>
<!-- Node5&#45;&gt;Node23 -->
<g id="edge38_Node000005_Node000023" class="edge">
<title>Node5&#45;&gt;Node23</title>
<g id="a_edge38_Node000005_Node000023"><a xlink:title=" ">
<path fill="none" stroke="#63b8ff" d="M325.48,-462.72C321.61,-451.83 317.38,-439.93 314.49,-431.82"/>
<polygon fill="#63b8ff" stroke="#63b8ff" points="322.16,-463.83 328.81,-472.08 328.75,-461.48 322.16,-463.83"/>
</a>
</g>
</g>
<!-- Node24 -->
<g id="Node000024" class="node">
<title>Node24</title>
<g id="a_Node000024"><a xlink:href="initial__conditions_8cc.html" target="_top" xlink:title=" ">
<polygon fill="white" stroke="#666666" points="538,-431.38 384,-431.38 384,-410.62 538,-410.62 538,-431.38"/>
<text text-anchor="middle" x="461" y="-417.88" font-family="Helvetica,sans-Serif" font-size="10.00">src/core/initial_conditions.cc</text>
</a>
</g>
</g>
<!-- Node5&#45;&gt;Node24 -->
<g id="edge39_Node000005_Node000024" class="edge">
<title>Node5&#45;&gt;Node24</title>
<g id="a_edge39_Node000005_Node000024"><a xlink:title=" ">
<path fill="none" stroke="#63b8ff" d="M375.23,-467.95C397.92,-455.79 425.16,-441.2 442.76,-431.77"/>
<polygon fill="#63b8ff" stroke="#63b8ff" points="373.68,-464.81 366.51,-472.62 376.98,-470.98 373.68,-464.81"/>
</a>
</g>
</g>
<!-- Node7 -->
<g id="Node000007" class="node">
<title>Node7</title>
<g id="a_Node000007"><a xlink:href="explicit__solver_8h.html" target="_top" xlink:title=" ">
<polygon fill="white" stroke="#666666" points="491.62,-229.25 356.38,-229.25 356.38,-195.75 491.62,-195.75 491.62,-229.25"/>
<text text-anchor="start" x="364.38" y="-215.75" font-family="Helvetica,sans-Serif" font-size="10.00">include/prismspf/solvers</text>
<text text-anchor="middle" x="424" y="-203" font-family="Helvetica,sans-Serif" font-size="10.00">/explicit_solver.h</text>
</a>
</g>
</g>
<!-- Node6&#45;&gt;Node7 -->
<g id="edge6_Node000006_Node000007" class="edge">
<title>Node6&#45;&gt;Node7</title>
<g id="a_edge6_Node000006_Node000007"><a xlink:title=" ">
<path fill="none" stroke="#63b8ff" d="M286.49,-261.1C315.44,-251.08 350.07,-239.09 377.34,-229.65"/>
<polygon fill="#63b8ff" stroke="#63b8ff" points="285.44,-257.76 277.14,-264.34 287.73,-264.37 285.44,-257.76"/>
</a>
</g>
</g>
<!-- Node6&#45;&gt;Node11 -->
<g id="edge10_Node000006_Node000011" class="edge">
<title>Node6&#45;&gt;Node11</title>
<g id="a_edge10_Node000006_Node000011"><a xlink:title=" ">
<path fill="none" stroke="#63b8ff" d="M308.25,-266.28C362.55,-256.1 436.19,-242.13 501,-229.25 503.64,-228.72 506.34,-228.19 509.06,-227.64"/>
<polygon fill="#63b8ff" stroke="#63b8ff" points="307.64,-262.83 298.45,-268.11 308.93,-269.71 307.64,-262.83"/>
</a>
</g>
</g>
<!-- Node6&#45;&gt;Node12 -->
<g id="edge14_Node000006_Node000012" class="edge">
<title>Node6&#45;&gt;Node12</title>
<g id="a_edge14_Node000006_Node000012"><a xlink:title=" ">
<path fill="none" stroke="#63b8ff" d="M247.17,-255.86C267.4,-227.85 299.5,-183.44 316.52,-159.88"/>
<polygon fill="#63b8ff" stroke="#63b8ff" points="244.46,-253.63 241.44,-263.79 250.13,-257.73 244.46,-253.63"/>
</a>
</g>
</g>
<!-- Node6&#45;&gt;Node13 -->
<g id="edge15_Node000006_Node000013" class="edge">
<title>Node6&#45;&gt;Node13</title>
<g id="a_edge15_Node000006_Node000013"><a xlink:title=" ">
<path fill="none" stroke="#63b8ff" d="M198.39,-258.29C182.35,-246.4 163.55,-232.45 151.24,-223.32"/>
<polygon fill="#63b8ff" stroke="#63b8ff" points="196.1,-260.96 206.22,-264.1 200.27,-255.33 196.1,-260.96"/>
</a>
</g>
</g>
<!-- Node8 -->
<g id="Node000008" class="node">
<title>Node8</title>
<g id="a_Node000008"><a xlink:href="solvers_8h.html" target="_top" xlink:title=" ">
<polygon fill="white" stroke="#666666" points="624.62,-90.25 489.38,-90.25 489.38,-56.75 624.62,-56.75 624.62,-90.25"/>
<text text-anchor="start" x="497.38" y="-76.75" font-family="Helvetica,sans-Serif" font-size="10.00">include/prismspf/solvers</text>
<text text-anchor="middle" x="557" y="-64" font-family="Helvetica,sans-Serif" font-size="10.00">/solvers.h</text>
</a>
</g>
</g>
<!-- Node7&#45;&gt;Node8 -->
<g id="edge7_Node000007_Node000008" class="edge">
<title>Node7&#45;&gt;Node8</title>
<g id="a_edge7_Node000007_Node000008"><a xlink:title=" ">
<path fill="none" stroke="#63b8ff" d="M447.35,-187.45C474.46,-159.52 518.42,-114.24 541.58,-90.38"/>
<polygon fill="#63b8ff" stroke="#63b8ff" points="445.03,-184.82 440.57,-194.43 450.05,-189.69 445.03,-184.82"/>
</a>
</g>
</g>
<!-- Node9 -->
<g id="Node000009" class="node">
<title>Node9</title>
<g id="a_Node000009"><a xlink:href="problem_8cc.html" target="_top" xlink:title=" ">
<polygon fill="white" stroke="#666666" points="905.62,-20.75 794.38,-20.75 794.38,0 905.62,0 905.62,-20.75"/>
<text text-anchor="middle" x="850" y="-7.25" font-family="Helvetica,sans-Serif" font-size="10.00">src/core/problem.cc</text>
</a>
</g>
</g>
<!-- Node8&#45;&gt;Node9 -->
<g id="edge8_Node000008_Node000009" class="edge">
<title>Node8&#45;&gt;Node9</title>
<g id="a_edge8_Node000008_Node000009"><a xlink:title=" ">
<path fill="none" stroke="#63b8ff" d="M636.09,-56C689.44,-44.87 758.03,-30.56 802.97,-21.19"/>
<polygon fill="#63b8ff" stroke="#63b8ff" points="635.51,-52.55 626.44,-58.01 636.94,-59.4 635.51,-52.55"/>
</a>
</g>
</g>
<!-- Node10 -->
<g id="Node000010" class="node">
<title>Node10</title>
<g id="a_Node000010"><a xlink:href="solvers_8cc.html" target="_top" xlink:title=" ">
<polygon fill="white" stroke="#666666" points="617.12,-20.75 496.88,-20.75 496.88,0 617.12,0 617.12,-20.75"/>
<text text-anchor="middle" x="557" y="-7.25" font-family="Helvetica,sans-Serif" font-size="10.00">src/solvers/solvers.cc</text>
</a>
</g>
</g>
<!-- Node8&#45;&gt;Node10 -->
<g id="edge9_Node000008_Node000010" class="edge">
<title>Node8&#45;&gt;Node10</title>
<g id="a_edge9_Node000008_Node000010"><a xlink:title=" ">
<path fill="none" stroke="#63b8ff" d="M557,-44.94C557,-36.46 557,-27.67 557,-21.22"/>
<polygon fill="#63b8ff" stroke="#63b8ff" points="553.5,-44.93 557,-54.93 560.5,-44.93 553.5,-44.93"/>
</a>
</g>
</g>
<!-- Node11&#45;&gt;Node8 -->
<g id="edge13_Node000011_Node000008" class="edge">
<title>Node11&#45;&gt;Node8</title>
<g id="a_edge13_Node000011_Node000008"><a xlink:title=" ">
<path fill="none" stroke="#63b8ff" d="M573.06,-184.5C568.96,-156.42 562.68,-113.42 559.32,-90.38"/>
<polygon fill="#63b8ff" stroke="#63b8ff" points="569.54,-184.63 574.45,-194.02 576.47,-183.62 569.54,-184.63"/>
</a>
</g>
</g>
<!-- Node11&#45;&gt;Node12 -->
<g id="edge11_Node000011_Node000012" class="edge">
<title>Node11&#45;&gt;Node12</title>
<g id="a_edge11_Node000011_Node000012"><a xlink:title=" ">
<path fill="none" stroke="#63b8ff" d="M506.5,-192.39C468.97,-182.22 423.32,-169.84 387.59,-160.15"/>
<polygon fill="#63b8ff" stroke="#63b8ff" points="505.33,-195.7 515.9,-194.94 507.16,-188.94 505.33,-195.7"/>
</a>
</g>
</g>
<!-- Node12&#45;&gt;Node8 -->
<g id="edge12_Node000012_Node000008" class="edge">
<title>Node12&#45;&gt;Node8</title>
<g id="a_edge12_Node000012_Node000008"><a xlink:title=" ">
<path fill="none" stroke="#63b8ff" d="M393.73,-122.63C428.07,-112.5 469.61,-100.26 502.2,-90.65"/>
<polygon fill="#63b8ff" stroke="#63b8ff" points="392.91,-119.22 384.3,-125.4 394.88,-125.93 392.91,-119.22"/>
</a>
</g>
</g>
<!-- Node15 -->
<g id="Node000015" class="node">
<title>Node15</title>
<g id="a_Node000015"><a xlink:href="problem_8h.html" target="_top" xlink:title=" ">
<polygon fill="white" stroke="#666666" points="1121.5,-229.25 1000.5,-229.25 1000.5,-195.75 1121.5,-195.75 1121.5,-229.25"/>
<text text-anchor="start" x="1008.5" y="-215.75" font-family="Helvetica,sans-Serif" font-size="10.00">include/prismspf/core</text>
<text text-anchor="middle" x="1061" y="-203" font-family="Helvetica,sans-Serif" font-size="10.00">/problem.h</text>
</a>
</g>
</g>
<!-- Node14&#45;&gt;Node15 -->
<g id="edge17_Node000014_Node000015" class="edge">
<title>Node14&#45;&gt;Node15</title>
<g id="a_edge17_Node000014_Node000015"><a xlink:title=" ">
<path fill="none" stroke="#63b8ff" d="M922.14,-397.32C933.22,-389.06 944.92,-379.07 954,-368.25 987.22,-328.65 977.13,-306.71 1008,-265.25 1017.76,-252.15 1030.88,-239.31 1041.62,-229.7"/>
<polygon fill="#63b8ff" stroke="#63b8ff" points="920.38,-394.28 914.28,-402.94 924.45,-399.97 920.38,-394.28"/>
</a>
</g>
</g>
<!-- Node14&#45;&gt;Node16 -->
<g id="edge19_Node000014_Node000016" class="edge">
<title>Node14&#45;&gt;Node16</title>
<g id="a_edge19_Node000014_Node000016"><a xlink:title=" ">
<path fill="none" stroke="#63b8ff" d="M945.01,-399.54C964.37,-391.34 985.45,-380.82 1003,-368.25 1030.72,-348.39 1056.27,-317.6 1070.44,-298.97"/>
<polygon fill="#63b8ff" stroke="#63b8ff" points="943.8,-396.26 935.87,-403.29 946.45,-402.74 943.8,-396.26"/>
</a>
</g>
</g>
<!-- Node14&#45;&gt;Node17 -->
<g id="edge21_Node000014_Node000017" class="edge">
<title>Node14&#45;&gt;Node17</title>
<g id="a_edge21_Node000014_Node000017"><a xlink:title=" ">
<path fill="none" stroke="#63b8ff" d="M878.64,-393.14C876.03,-384.75 873.24,-375.76 870.94,-368.38"/>
<polygon fill="#63b8ff" stroke="#63b8ff" points="875.26,-394.05 881.57,-402.56 881.94,-391.97 875.26,-394.05"/>
</a>
</g>
</g>
<!-- Node19 -->
<g id="Node000019" class="node">
<title>Node19</title>
<g id="a_Node000019"><a xlink:href="nucleation__manager_8h.html" target="_top" xlink:title=" ">
<polygon fill="white" stroke="#666666" points="1206.5,-368.25 1055.5,-368.25 1055.5,-334.75 1206.5,-334.75 1206.5,-368.25"/>
<text text-anchor="start" x="1063.5" y="-354.75" font-family="Helvetica,sans-Serif" font-size="10.00">include/prismspf/nucleation</text>
<text text-anchor="middle" x="1131" y="-342" font-family="Helvetica,sans-Serif" font-size="10.00">/nucleation_manager.h</text>
</a>
</g>
</g>
<!-- Node14&#45;&gt;Node19 -->
<g id="edge25_Node000014_Node000019" class="edge">
<title>Node14&#45;&gt;Node19</title>
<g id="a_edge25_Node000014_Node000019"><a xlink:title=" ">
<path fill="none" stroke="#63b8ff" d="M956.08,-400.89C992.86,-390.72 1037.59,-378.34 1072.61,-368.65"/>
<polygon fill="#63b8ff" stroke="#63b8ff" points="955.61,-397.39 946.9,-403.43 957.47,-404.14 955.61,-397.39"/>
</a>
</g>
</g>
<!-- Node14&#45;&gt;Node20 -->
<g id="edge27_Node000014_Node000020" class="edge">
<title>Node14&#45;&gt;Node20</title>
<g id="a_edge27_Node000014_Node000020"><a xlink:title=" ">
<path fill="none" stroke="#63b8ff" d="M807.94,-402.39C759.55,-391.61 698.26,-377.95 652.03,-367.66"/>
<polygon fill="#63b8ff" stroke="#63b8ff" points="807,-405.76 817.52,-404.52 808.52,-398.93 807,-405.76"/>
</a>
</g>
</g>
<!-- Node15&#45;&gt;Node9 -->
<g id="edge18_Node000015_Node000009" class="edge">
<title>Node15&#45;&gt;Node9</title>
<g id="a_edge18_Node000015_Node000009"><a xlink:title=" ">
<path fill="none" stroke="#63b8ff" d="M1050.83,-185.07C1036.5,-151.03 1007.3,-92.07 965,-56.75 944.24,-39.42 916.06,-28.15 892.79,-21.19"/>
<polygon fill="#63b8ff" stroke="#63b8ff" points="1047.53,-186.24 1054.55,-194.18 1054.01,-183.6 1047.53,-186.24"/>
</a>
</g>
</g>
<!-- Node16&#45;&gt;Node15 -->
<g id="edge20_Node000016_Node000015" class="edge">
<title>Node16&#45;&gt;Node15</title>
<g id="a_edge20_Node000016_Node000015"><a xlink:title=" ">
<path fill="none" stroke="#63b8ff" d="M1073.64,-254.14C1071.03,-245.75 1068.24,-236.76 1065.94,-229.38"/>
<polygon fill="#63b8ff" stroke="#63b8ff" points="1070.26,-255.05 1076.57,-263.56 1076.94,-252.97 1070.26,-255.05"/>
</a>
</g>
</g>
<!-- Node17&#45;&gt;Node9 -->
<g id="edge23_Node000017_Node000009" class="edge">
<title>Node17&#45;&gt;Node9</title>
<g id="a_edge23_Node000017_Node000009"><a xlink:title=" ">
<path fill="none" stroke="#63b8ff" d="M904.01,-327.76C914.49,-319.79 924.91,-309.99 932,-298.75 952.7,-265.91 951,-252.32 951,-213.5 951,-213.5 951,-213.5 951,-142 951,-86.67 893.59,-40.53 865.34,-21.16"/>
<polygon fill="#63b8ff" stroke="#63b8ff" points="902.22,-324.74 896.1,-333.39 906.28,-330.44 902.22,-324.74"/>
</a>
</g>
</g>
<!-- Node17&#45;&gt;Node17 -->
<g id="edge22_Node000017_Node000017" class="edge">
<title>Node17&#45;&gt;Node17</title>
<g id="a_edge22_Node000017_Node000017"><a xlink:title=" ">
<path fill="none" stroke="#63b8ff" d="M937.72,-360.45C941.96,-358.31 944.5,-355.33 944.5,-351.5 944.5,-345.05 937.29,-341 926.89,-339.33"/>
<polygon fill="#63b8ff" stroke="#63b8ff" points="936.93,-357.04 928.34,-363.23 938.92,-363.75 936.93,-357.04"/>
</a>
</g>
</g>
<!-- Node18 -->
<g id="Node000018" class="node">
<title>Node18</title>
<g id="a_Node000018"><a xlink:href="solution__output_8cc.html" target="_top" xlink:title=" ">
<polygon fill="white" stroke="#666666" points="923.25,-292.38 776.75,-292.38 776.75,-271.62 923.25,-271.62 923.25,-292.38"/>
<text text-anchor="middle" x="850" y="-278.88" font-family="Helvetica,sans-Serif" font-size="10.00">src/core/solution_output.cc</text>
</a>
</g>
</g>
<!-- Node17&#45;&gt;Node18 -->
<g id="edge24_Node000017_Node000018" class="edge">
<title>Node17&#45;&gt;Node18</title>
<g id="a_edge24_Node000017_Node000018"><a xlink:title=" ">
<path fill="none" stroke="#63b8ff" d="M859.57,-323.38C857.01,-312.58 854.23,-300.85 852.33,-292.82"/>
<polygon fill="#63b8ff" stroke="#63b8ff" points="856.15,-324.11 861.86,-333.03 862.96,-322.49 856.15,-324.11"/>
</a>
</g>
</g>
<!-- Node19&#45;&gt;Node15 -->
<g id="edge26_Node000019_Node000015" class="edge">
<title>Node19&#45;&gt;Node15</title>
<g id="a_edge26_Node000019_Node000015"><a xlink:title=" ">
<path fill="none" stroke="#63b8ff" d="M1148.8,-324.82C1158.67,-307.15 1166.93,-283.65 1156,-265.25 1146.41,-249.1 1129.81,-237.67 1113.15,-229.74"/>
<polygon fill="#63b8ff" stroke="#63b8ff" points="1145.93,-322.8 1143.73,-333.17 1151.91,-326.44 1145.93,-322.8"/>
</a>
</g>
</g>
<!-- Node20&#45;&gt;Node6 -->
<g id="edge33_Node000020_Node000006" class="edge">
<title>Node20&#45;&gt;Node6</title>
<g id="a_edge33_Node000020_Node000006"><a xlink:title=" ">
<path fill="none" stroke="#63b8ff" d="M505.01,-335.32C504,-335.13 503,-334.94 502,-334.75 432.11,-321.41 352.13,-306.27 296.88,-295.82"/>
<polygon fill="#63b8ff" stroke="#63b8ff" points="504.02,-338.7 514.5,-337.14 505.34,-331.82 504.02,-338.7"/>
</a>
</g>
</g>
<!-- Node20&#45;&gt;Node7 -->
<g id="edge31_Node000020_Node000007" class="edge">
<title>Node20&#45;&gt;Node7</title>
<g id="a_edge31_Node000020_Node000007"><a xlink:title=" ">
<path fill="none" stroke="#63b8ff" d="M505.33,-335.76C483.12,-328.08 460.75,-316.43 445,-298.75 427.86,-279.52 424.2,-248.53 423.69,-229.68"/>
<polygon fill="#63b8ff" stroke="#63b8ff" points="504.15,-339.06 514.74,-338.76 506.27,-332.39 504.15,-339.06"/>
</a>
</g>
</g>
<!-- Node20&#45;&gt;Node9 -->
<g id="edge35_Node000020_Node000009" class="edge">
<title>Node20&#45;&gt;Node9</title>
<g id="a_edge35_Node000020_Node000009"><a xlink:title=" ">
<path fill="none" stroke="#63b8ff" d="M641.84,-329.84C689.4,-308.7 749,-270.79 749,-213.5 749,-213.5 749,-213.5 749,-142 749,-86.67 806.41,-40.53 834.66,-21.16"/>
<polygon fill="#63b8ff" stroke="#63b8ff" points="640.5,-326.6 632.67,-333.75 643.25,-333.04 640.5,-326.6"/>
</a>
</g>
</g>
<!-- Node20&#45;&gt;Node11 -->
<g id="edge32_Node000020_Node000011" class="edge">
<title>Node20&#45;&gt;Node11</title>
<g id="a_edge32_Node000020_Node000011"><a xlink:title=" ">
<path fill="none" stroke="#63b8ff" d="M582.6,-323.12C581.17,-295.04 578.98,-252.32 577.81,-229.38"/>
<polygon fill="#63b8ff" stroke="#63b8ff" points="579.1,-323.2 583.11,-333 586.09,-322.84 579.1,-323.2"/>
</a>
</g>
</g>
<!-- Node20&#45;&gt;Node12 -->
<g id="edge34_Node000020_Node000012" class="edge">
<title>Node20&#45;&gt;Node12</title>
<g id="a_edge34_Node000020_Node000012"><a xlink:title=" ">
<path fill="none" stroke="#63b8ff" d="M505.25,-331.88C478.75,-323.82 449.67,-312.92 425,-298.75 384.73,-275.63 370.52,-269.29 347,-229.25 334.25,-207.55 330.05,-178.14 328.67,-160.15"/>
<polygon fill="#63b8ff" stroke="#63b8ff" points="504.01,-335.17 514.59,-334.63 505.98,-328.45 504.01,-335.17"/>
</a>
</g>
</g>
<!-- Node20&#45;&gt;Node16 -->
<g id="edge28_Node000020_Node000016" class="edge">
<title>Node20&#45;&gt;Node16</title>
<g id="a_edge28_Node000020_Node000016"><a xlink:title=" ">
<path fill="none" stroke="#63b8ff" d="M663.25,-339.76C761.19,-326.48 926.01,-304.14 1016.92,-291.82"/>
<polygon fill="#63b8ff" stroke="#63b8ff" points="662.88,-336.28 653.44,-341.09 663.82,-343.21 662.88,-336.28"/>
</a>
</g>
</g>
<!-- Node21 -->
<g id="Node000021" class="node">
<title>Node21</title>
<g id="a_Node000021"><a xlink:href="constant__solver_8h.html" target="_top" xlink:title=" ">
<polygon fill="white" stroke="#666666" points="720.62,-159.75 585.38,-159.75 585.38,-126.25 720.62,-126.25 720.62,-159.75"/>
<text text-anchor="start" x="593.38" y="-146.25" font-family="Helvetica,sans-Serif" font-size="10.00">include/prismspf/solvers</text>
<text text-anchor="middle" x="653" y="-133.5" font-family="Helvetica,sans-Serif" font-size="10.00">/constant_solver.h</text>
</a>
</g>
</g>
<!-- Node20&#45;&gt;Node21 -->
<g id="edge29_Node000020_Node000021" class="edge">
<title>Node20&#45;&gt;Node21</title>
<g id="a_edge29_Node000020_Node000021"><a xlink:title=" ">
<path fill="none" stroke="#63b8ff" d="M603.87,-325.31C620.95,-301.94 644.31,-265.41 654,-229.25 660.28,-205.8 658.11,-177.41 655.73,-160.03"/>
<polygon fill="#63b8ff" stroke="#63b8ff" points="601.1,-323.17 597.9,-333.27 606.7,-327.37 601.1,-323.17"/>
</a>
</g>
</g>
<!-- Node22 -->
<g id="Node000022" class="node">
<title>Node22</title>
<g id="a_Node000022"><a xlink:href="solver__base_8cc.html" target="_top" xlink:title=" ">
<polygon fill="white" stroke="#666666" points="555.75,-298.75 454.25,-298.75 454.25,-265.25 555.75,-265.25 555.75,-298.75"/>
<text text-anchor="start" x="462.25" y="-285.25" font-family="Helvetica,sans-Serif" font-size="10.00">src/solvers/solver</text>
<text text-anchor="middle" x="505" y="-272.5" font-family="Helvetica,sans-Serif" font-size="10.00">_base.cc</text>
</a>
</g>
</g>
<!-- Node20&#45;&gt;Node22 -->
<g id="edge36_Node000020_Node000022" class="edge">
<title>Node20&#45;&gt;Node22</title>
<g id="a_edge36_Node000020_Node000022"><a xlink:title=" ">
<path fill="none" stroke="#63b8ff" d="M556.6,-327.09C545.79,-317.85 533.65,-307.48 523.86,-299.12"/>
<polygon fill="#63b8ff" stroke="#63b8ff" points="554.25,-329.69 564.13,-333.52 558.8,-324.36 554.25,-329.69"/>
</a>
</g>
</g>
<!-- Node21&#45;&gt;Node8 -->
<g id="edge30_Node000021_Node000008" class="edge">
<title>Node21&#45;&gt;Node8</title>
<g id="a_edge30_Node000021_Node000008"><a xlink:title=" ">
<path fill="none" stroke="#63b8ff" d="M620.88,-119.41C607.46,-109.98 592.17,-99.23 579.92,-90.62"/>
<polygon fill="#63b8ff" stroke="#63b8ff" points="618.82,-122.24 629.01,-125.13 622.84,-116.52 618.82,-122.24"/>
</a>
</g>
</g>
<!-- Node28&#45;&gt;Node11 -->
<g id="edge55_Node000028_Node000011" class="edge">
<title>Node28&#45;&gt;Node11</title>
<g id="a_edge55_Node000028_Node000011"><a xlink:title=" ">
<path fill="none" stroke="#63b8ff" d="M850.58,-467.47C837.32,-458.83 822.53,-448.43 810,-437.75 730.18,-369.73 727.74,-334.52 649,-265.25 634.21,-252.23 616.21,-239.3 601.9,-229.61"/>
<polygon fill="#63b8ff" stroke="#63b8ff" points="848.32,-470.18 858.63,-472.61 852.09,-464.28 848.32,-470.18"/>
</a>
</g>
</g>
<!-- Node28&#45;&gt;Node14 -->
<g id="edge56_Node000028_Node000014" class="edge">
<title>Node28&#45;&gt;Node14</title>
<g id="a_edge56_Node000028_Node000014"><a xlink:title=" ">
<path fill="none" stroke="#63b8ff" d="M887,-462.06C887,-453.84 887,-445.09 887,-437.88"/>
<polygon fill="#63b8ff" stroke="#63b8ff" points="883.5,-461.99 887,-471.99 890.5,-461.99 883.5,-461.99"/>
</a>
</g>
</g>
</g>
</svg>
