<?xml version="1.0" encoding="UTF-8" standalone="no"?>
<!DOCTYPE svg PUBLIC "-//W3C//DTD SVG 1.1//EN"
 "http://www.w3.org/Graphics/SVG/1.1/DTD/svg11.dtd">
<!-- Generated by graphviz version 12.2.1 (20241206.2353)
 -->
<!-- Title: /__w/phaseField/phaseField/include/prismspf/utilities/mechanics.h Pages: 1 -->
<svg width="240pt" height="111pt"
 viewBox="0.00 0.00 240.12 111.00" xmlns="http://www.w3.org/2000/svg" xmlns:xlink="http://www.w3.org/1999/xlink">
<g id="graph0" class="graph" transform="scale(1 1) rotate(0) translate(4 107)">
<title>/__w/phaseField/phaseField/include/prismspf/utilities/mechanics.h</title>
<!-- Node1 -->
<g id="Node000001" class="node">
<title>Node1</title>
<g id="a_Node000001"><a xlink:title=" ">
<polygon fill="#999999" stroke="#666666" points="193.5,-103 44.75,-103 44.75,-56.75 193.5,-56.75 193.5,-103"/>
<text text-anchor="start" x="52.75" y="-89.5" font-family="Helvetica,sans-Serif" font-size="10.00">/__w/phaseField/phaseField</text>
<text text-anchor="start" x="52.75" y="-76.75" font-family="Helvetica,sans-Serif" font-size="10.00">/include/prismspf/utilities</text>
<text text-anchor="middle" x="119.12" y="-64" font-family="Helvetica,sans-Serif" font-size="10.00">/mechanics.h</text>
</a>
</g>
</g>
<!-- Node2 -->
<g id="Node000002" class="node">
<title>Node2</title>
<g id="a_Node000002"><a xlink:title=" ">
<polygon fill="#e0e0e0" stroke="#999999" points="114.25,-20.75 0,-20.75 0,0 114.25,0 114.25,-20.75"/>
<text text-anchor="middle" x="57.12" y="-7.25" font-family="Helvetica,sans-Serif" font-size="10.00">deal.II/base/tensor.h</text>
</a>
</g>
</g>
<!-- Node1&#45;&gt;Node2 -->
<g id="edge1_Node000001_Node000002" class="edge">
<title>Node1&#45;&gt;Node2</title>
<g id="a_edge1_Node000001_Node000002"><a xlink:title=" ">
<path fill="none" stroke="#63b8ff" d="M98.48,-56.4C90.41,-47.61 81.28,-37.67 73.66,-29.37"/>
<polygon fill="#63b8ff" stroke="#63b8ff" points="76.46,-27.25 67.12,-22.26 71.31,-31.99 76.46,-27.25"/>
</a>
</g>
</g>
<!-- Node3 -->
<g id="Node000003" class="node">
<title>Node3</title>
<g id="a_Node000003"><a xlink:title=" ">
<polygon fill="#e0e0e0" stroke="#999999" points="232.12,-20.75 132.12,-20.75 132.12,0 232.12,0 232.12,-20.75"/>
<text text-anchor="middle" x="182.12" y="-7.25" font-family="Helvetica,sans-Serif" font-size="10.00">prismspf/config.h</text>
</a>
</g>
</g>
<!-- Node1&#45;&gt;Node3 -->
<g id="edge2_Node000001_Node000003" class="edge">
<title>Node1&#45;&gt;Node3</title>
<g id="a_edge2_Node000001_Node000003"><a xlink:title=" ">
<path fill="none" stroke="#63b8ff" d="M140.1,-56.4C148.3,-47.61 157.58,-37.67 165.33,-29.37"/>
<polygon fill="#63b8ff" stroke="#63b8ff" points="167.71,-31.95 171.98,-22.25 162.6,-27.17 167.71,-31.95"/>
</a>
</g>
</g>
</g>
</svg>
