<?xml version="1.0" encoding="UTF-8" standalone="no"?>
<!DOCTYPE svg PUBLIC "-//W3C//DTD SVG 1.1//EN"
 "http://www.w3.org/Graphics/SVG/1.1/DTD/svg11.dtd">
<!-- Generated by graphviz version 12.2.1 (20241206.2353)
 -->
<!-- Title: src/user_inputs/miscellaneous_parameters.cc Pages: 1 -->
<svg width="2700pt" height="446pt"
 viewBox="0.00 0.00 2700.17 445.75" xmlns="http://www.w3.org/2000/svg" xmlns:xlink="http://www.w3.org/1999/xlink">
<g id="graph0" class="graph" transform="scale(1 1) rotate(0) translate(4 441.75)">
<title>src/user_inputs/miscellaneous_parameters.cc</title>
<!-- Node1 -->
<g id="Node000001" class="node">
<title>Node1</title>
<g id="a_Node000001"><a xlink:title=" ">
<polygon fill="#999999" stroke="#666666" points="321.5,-437.75 158.5,-437.75 158.5,-404.25 321.5,-404.25 321.5,-437.75"/>
<text text-anchor="start" x="166.5" y="-424.25" font-family="Helvetica,sans-Serif" font-size="10.00">src/user_inputs/miscellaneous</text>
<text text-anchor="middle" x="240" y="-411.5" font-family="Helvetica,sans-Serif" font-size="10.00">_parameters.cc</text>
</a>
</g>
</g>
<!-- Node2 -->
<g id="Node000002" class="node">
<title>Node2</title>
<g id="a_Node000002"><a xlink:href="miscellaneous__parameters_8h.html" target="_top" xlink:title=" ">
<polygon fill="white" stroke="#666666" points="698,-368.25 538,-368.25 538,-334.75 698,-334.75 698,-368.25"/>
<text text-anchor="start" x="546" y="-354.75" font-family="Helvetica,sans-Serif" font-size="10.00">prismspf/user_inputs</text>
<text text-anchor="middle" x="618" y="-342" font-family="Helvetica,sans-Serif" font-size="10.00">/miscellaneous_parameters.h</text>
</a>
</g>
</g>
<!-- Node1&#45;&gt;Node2 -->
<g id="edge1_Node000001_Node000002" class="edge">
<title>Node1&#45;&gt;Node2</title>
<g id="a_edge1_Node000001_Node000002"><a xlink:title=" ">
<path fill="none" stroke="#63b8ff" d="M321.55,-405.44C381.85,-394.67 464,-380 526.52,-368.84"/>
<polygon fill="#63b8ff" stroke="#63b8ff" points="526.85,-372.33 536.08,-367.13 525.62,-365.44 526.85,-372.33"/>
</a>
</g>
</g>
<!-- Node7 -->
<g id="Node000007" class="node">
<title>Node7</title>
<g id="a_Node000007"><a xlink:title=" ">
<polygon fill="#e0e0e0" stroke="#999999" points="451,-20.75 351,-20.75 351,0 451,0 451,-20.75"/>
<text text-anchor="middle" x="401" y="-7.25" font-family="Helvetica,sans-Serif" font-size="10.00">prismspf/config.h</text>
</a>
</g>
</g>
<!-- Node1&#45;&gt;Node7 -->
<g id="edge59_Node000001_Node000007" class="edge">
<title>Node1&#45;&gt;Node7</title>
<g id="a_edge59_Node000001_Node000007"><a xlink:title=" ">
<path fill="none" stroke="#63b8ff" d="M158.08,-407.73C88.55,-392.12 0,-357.6 0,-283 0,-283 0,-283 0,-142 0,-71.48 227.06,-33.13 339.46,-18.46"/>
<polygon fill="#63b8ff" stroke="#63b8ff" points="339.64,-21.97 349.12,-17.22 338.75,-15.02 339.64,-21.97"/>
</a>
</g>
</g>
<!-- Node3 -->
<g id="Node000003" class="node">
<title>Node3</title>
<g id="a_Node000003"><a xlink:title=" ">
<polygon fill="#e0e0e0" stroke="#999999" points="2668.5,-153.38 2565.5,-153.38 2565.5,-132.62 2668.5,-132.62 2668.5,-153.38"/>
<text text-anchor="middle" x="2617" y="-139.88" font-family="Helvetica,sans-Serif" font-size="10.00">deal.II/base/mpi.h</text>
</a>
</g>
</g>
<!-- Node2&#45;&gt;Node3 -->
<g id="edge2_Node000002_Node000003" class="edge">
<title>Node2&#45;&gt;Node3</title>
<g id="a_edge2_Node000002_Node000003"><a xlink:title=" ">
<path fill="none" stroke="#63b8ff" d="M698.37,-345.34C962.66,-327.78 1828.57,-265.45 2538,-159.75 2545.26,-158.67 2552.86,-157.37 2560.35,-155.99"/>
<polygon fill="#63b8ff" stroke="#63b8ff" points="2560.94,-159.44 2570.11,-154.12 2559.63,-152.56 2560.94,-159.44"/>
</a>
</g>
</g>
<!-- Node4 -->
<g id="Node000004" class="node">
<title>Node4</title>
<g id="a_Node000004"><a xlink:title=" ">
<polygon fill="#e0e0e0" stroke="#999999" points="544.12,-229.25 417.88,-229.25 417.88,-195.75 544.12,-195.75 544.12,-229.25"/>
<text text-anchor="start" x="425.88" y="-215.75" font-family="Helvetica,sans-Serif" font-size="10.00">deal.II/base/parameter</text>
<text text-anchor="middle" x="481" y="-203" font-family="Helvetica,sans-Serif" font-size="10.00">_handler.h</text>
</a>
</g>
</g>
<!-- Node2&#45;&gt;Node4 -->
<g id="edge3_Node000002_Node000004" class="edge">
<title>Node2&#45;&gt;Node4</title>
<g id="a_edge3_Node000002_Node000004"><a xlink:title=" ">
<path fill="none" stroke="#63b8ff" d="M602.02,-334.52C578.09,-310.59 532.81,-265.31 504.93,-237.43"/>
<polygon fill="#63b8ff" stroke="#63b8ff" points="507.5,-235.05 497.95,-230.45 502.55,-240 507.5,-235.05"/>
</a>
</g>
</g>
<!-- Node5 -->
<g id="Node000005" class="node">
<title>Node5</title>
<g id="a_Node000005"><a xlink:href="conditional__ostreams_8h.html" target="_top" xlink:title=" ">
<polygon fill="white" stroke="#666666" points="195.88,-298.75 56.12,-298.75 56.12,-265.25 195.88,-265.25 195.88,-298.75"/>
<text text-anchor="start" x="64.12" y="-285.25" font-family="Helvetica,sans-Serif" font-size="10.00">prismspf/core/conditional</text>
<text text-anchor="middle" x="126" y="-272.5" font-family="Helvetica,sans-Serif" font-size="10.00">_ostreams.h</text>
</a>
</g>
</g>
<!-- Node2&#45;&gt;Node5 -->
<g id="edge4_Node000002_Node000005" class="edge">
<title>Node2&#45;&gt;Node5</title>
<g id="a_edge4_Node000002_Node000005"><a xlink:title=" ">
<path fill="none" stroke="#63b8ff" d="M537.68,-341.73C455.25,-332.4 323.39,-316.56 210,-298.75 209.15,-298.62 208.29,-298.48 207.43,-298.34"/>
<polygon fill="#63b8ff" stroke="#63b8ff" points="208,-294.89 197.57,-296.71 206.86,-301.8 208,-294.89"/>
</a>
</g>
</g>
<!-- Node2&#45;&gt;Node7 -->
<g id="edge56_Node000002_Node000007" class="edge">
<title>Node2&#45;&gt;Node7</title>
<g id="a_edge56_Node000002_Node000007"><a xlink:title=" ">
<path fill="none" stroke="#63b8ff" d="M537.79,-339.22C422.59,-320.73 224,-279.31 224,-213.5 224,-213.5 224,-213.5 224,-142 224,-78.18 299.42,-42.02 351.8,-24.6"/>
<polygon fill="#63b8ff" stroke="#63b8ff" points="352.68,-27.99 361.15,-21.62 350.56,-21.32 352.68,-27.99"/>
</a>
</g>
</g>
<!-- Node8 -->
<g id="Node000008" class="node">
<title>Node8</title>
<g id="a_Node000008"><a xlink:href="exceptions_8h.html" target="_top" xlink:title=" ">
<polygon fill="white" stroke="#666666" points="400,-222.88 252,-222.88 252,-202.12 400,-202.12 400,-222.88"/>
<text text-anchor="middle" x="326" y="-209.38" font-family="Helvetica,sans-Serif" font-size="10.00">prismspf/core/exceptions.h</text>
</a>
</g>
</g>
<!-- Node2&#45;&gt;Node8 -->
<g id="edge7_Node000002_Node000008" class="edge">
<title>Node2&#45;&gt;Node8</title>
<g id="a_edge7_Node000002_Node000008"><a xlink:title=" ">
<path fill="none" stroke="#63b8ff" d="M583.65,-334.38C526.26,-307.46 411.81,-253.76 356.85,-227.97"/>
<polygon fill="#63b8ff" stroke="#63b8ff" points="358.6,-224.93 348.06,-223.85 355.62,-231.26 358.6,-224.93"/>
</a>
</g>
</g>
<!-- Node16 -->
<g id="Node000016" class="node">
<title>Node16</title>
<g id="a_Node000016"><a xlink:href="parameter__base_8h.html" target="_top" xlink:title=" ">
<polygon fill="white" stroke="#666666" points="710,-298.75 592,-298.75 592,-265.25 710,-265.25 710,-298.75"/>
<text text-anchor="start" x="600" y="-285.25" font-family="Helvetica,sans-Serif" font-size="10.00">prismspf/user_inputs</text>
<text text-anchor="middle" x="651" y="-272.5" font-family="Helvetica,sans-Serif" font-size="10.00">/parameter_base.h</text>
</a>
</g>
</g>
<!-- Node2&#45;&gt;Node16 -->
<g id="edge18_Node000002_Node000016" class="edge">
<title>Node2&#45;&gt;Node16</title>
<g id="a_edge18_Node000002_Node000016"><a xlink:title=" ">
<path fill="none" stroke="#63b8ff" d="M625.82,-334.5C629.52,-326.94 634.03,-317.71 638.21,-309.16"/>
<polygon fill="#63b8ff" stroke="#63b8ff" points="641.32,-310.76 642.57,-300.24 635.03,-307.69 641.32,-310.76"/>
</a>
</g>
</g>
<!-- Node23 -->
<g id="Node000023" class="node">
<title>Node23</title>
<g id="a_Node000023"><a xlink:href="utilities_8h.html" target="_top" xlink:title=" ">
<polygon fill="white" stroke="#666666" points="1597.25,-229.25 1498.75,-229.25 1498.75,-195.75 1597.25,-195.75 1597.25,-229.25"/>
<text text-anchor="start" x="1506.75" y="-215.75" font-family="Helvetica,sans-Serif" font-size="10.00">prismspf/utilities</text>
<text text-anchor="middle" x="1548" y="-203" font-family="Helvetica,sans-Serif" font-size="10.00">/utilities.h</text>
</a>
</g>
</g>
<!-- Node2&#45;&gt;Node23 -->
<g id="edge35_Node000002_Node000023" class="edge">
<title>Node2&#45;&gt;Node23</title>
<g id="a_edge35_Node000002_Node000023"><a xlink:title=" ">
<path fill="none" stroke="#63b8ff" d="M698.5,-338.64C881.42,-311.69 1325.03,-246.35 1487.27,-222.45"/>
<polygon fill="#63b8ff" stroke="#63b8ff" points="1487.58,-225.94 1496.96,-221.02 1486.56,-219.01 1487.58,-225.94"/>
</a>
</g>
</g>
<!-- Node36 -->
<g id="Node000036" class="node">
<title>Node36</title>
<g id="a_Node000036"><a xlink:title=" ">
<polygon fill="#e0e0e0" stroke="#999999" points="771.88,-292.38 728.12,-292.38 728.12,-271.62 771.88,-271.62 771.88,-292.38"/>
<text text-anchor="middle" x="750" y="-278.88" font-family="Helvetica,sans-Serif" font-size="10.00">mpi.h</text>
</a>
</g>
</g>
<!-- Node2&#45;&gt;Node36 -->
<g id="edge57_Node000002_Node000036" class="edge">
<title>Node2&#45;&gt;Node36</title>
<g id="a_edge57_Node000002_Node000036"><a xlink:title=" ">
<path fill="none" stroke="#63b8ff" d="M649.62,-334.33C671.28,-323.25 699.8,-308.67 720.9,-297.88"/>
<polygon fill="#63b8ff" stroke="#63b8ff" points="722.23,-301.13 729.54,-293.46 719.05,-294.9 722.23,-301.13"/>
</a>
</g>
</g>
<!-- Node37 -->
<g id="Node000037" class="node">
<title>Node37</title>
<g id="a_Node000037"><a xlink:title=" ">
<polygon fill="#e0e0e0" stroke="#999999" points="843.75,-292.38 790.25,-292.38 790.25,-271.62 843.75,-271.62 843.75,-292.38"/>
<text text-anchor="middle" x="817" y="-278.88" font-family="Helvetica,sans-Serif" font-size="10.00">random</text>
</a>
</g>
</g>
<!-- Node2&#45;&gt;Node37 -->
<g id="edge58_Node000002_Node000037" class="edge">
<title>Node2&#45;&gt;Node37</title>
<g id="a_edge58_Node000002_Node000037"><a xlink:title=" ">
<path fill="none" stroke="#63b8ff" d="M673.95,-334.33C705.64,-324.77 745.85,-311.98 781,-298.75 782.33,-298.25 783.68,-297.73 785.04,-297.19"/>
<polygon fill="#63b8ff" stroke="#63b8ff" points="786.16,-300.51 794.05,-293.45 783.47,-294.05 786.16,-300.51"/>
</a>
</g>
</g>
<!-- Node6 -->
<g id="Node000006" class="node">
<title>Node6</title>
<g id="a_Node000006"><a xlink:title=" ">
<polygon fill="#e0e0e0" stroke="#999999" points="195.62,-229.25 66.38,-229.25 66.38,-195.75 195.62,-195.75 195.62,-229.25"/>
<text text-anchor="start" x="74.38" y="-215.75" font-family="Helvetica,sans-Serif" font-size="10.00">deal.II/base/conditional</text>
<text text-anchor="middle" x="131" y="-203" font-family="Helvetica,sans-Serif" font-size="10.00">_ostream.h</text>
</a>
</g>
</g>
<!-- Node5&#45;&gt;Node6 -->
<g id="edge5_Node000005_Node000006" class="edge">
<title>Node5&#45;&gt;Node6</title>
<g id="a_edge5_Node000005_Node000006"><a xlink:title=" ">
<path fill="none" stroke="#63b8ff" d="M127.18,-265C127.72,-257.77 128.37,-249.03 128.98,-240.81"/>
<polygon fill="#63b8ff" stroke="#63b8ff" points="132.46,-241.12 129.71,-230.89 125.48,-240.61 132.46,-241.12"/>
</a>
</g>
</g>
<!-- Node5&#45;&gt;Node7 -->
<g id="edge6_Node000005_Node000007" class="edge">
<title>Node5&#45;&gt;Node7</title>
<g id="a_edge6_Node000005_Node000007"><a xlink:title=" ">
<path fill="none" stroke="#63b8ff" d="M92.55,-264.76C78.9,-256.24 64.57,-244.38 57,-229.25 50.34,-215.93 50.97,-209.37 57,-195.75 94.18,-111.74 128.74,-99.61 210,-56.75 250.33,-35.48 300.68,-24.05 339.55,-17.98"/>
<polygon fill="#63b8ff" stroke="#63b8ff" points="339.83,-21.48 349.21,-16.56 338.81,-14.55 339.83,-21.48"/>
</a>
</g>
</g>
<!-- Node8&#45;&gt;Node7 -->
<g id="edge16_Node000008_Node000007" class="edge">
<title>Node8&#45;&gt;Node7</title>
<g id="a_edge16_Node000008_Node000007"><a xlink:title=" ">
<path fill="none" stroke="#63b8ff" d="M313.74,-201.94C302.79,-192.56 287.51,-177.15 281,-159.75 275.78,-145.8 275.15,-139.94 281,-126.25 299.95,-81.88 345.37,-46.45 374.58,-27.22"/>
<polygon fill="#63b8ff" stroke="#63b8ff" points="376.34,-30.25 382.89,-21.92 372.57,-24.34 376.34,-30.25"/>
</a>
</g>
</g>
<!-- Node9 -->
<g id="Node000009" class="node">
<title>Node9</title>
<g id="a_Node000009"><a xlink:title=" ">
<polygon fill="#e0e0e0" stroke="#999999" points="725.75,-153.38 588.25,-153.38 588.25,-132.62 725.75,-132.62 725.75,-153.38"/>
<text text-anchor="middle" x="657" y="-139.88" font-family="Helvetica,sans-Serif" font-size="10.00">deal.II/base/exceptions.h</text>
</a>
</g>
</g>
<!-- Node8&#45;&gt;Node9 -->
<g id="edge8_Node000008_Node000009" class="edge">
<title>Node8&#45;&gt;Node9</title>
<g id="a_edge8_Node000008_Node000009"><a xlink:title=" ">
<path fill="none" stroke="#63b8ff" d="M374.13,-201.68C433.33,-189.61 533.81,-169.12 597.71,-156.09"/>
<polygon fill="#63b8ff" stroke="#63b8ff" points="598.23,-159.56 607.33,-154.13 596.83,-152.7 598.23,-159.56"/>
</a>
</g>
</g>
<!-- Node10 -->
<g id="Node000010" class="node">
<title>Node10</title>
<g id="a_Node000010"><a xlink:href="types_8h.html" target="_top" xlink:title=" ">
<polygon fill="white" stroke="#666666" points="569.88,-153.38 448.12,-153.38 448.12,-132.62 569.88,-132.62 569.88,-153.38"/>
<text text-anchor="middle" x="509" y="-139.88" font-family="Helvetica,sans-Serif" font-size="10.00">prismspf/core/types.h</text>
</a>
</g>
</g>
<!-- Node8&#45;&gt;Node10 -->
<g id="edge9_Node000008_Node000010" class="edge">
<title>Node8&#45;&gt;Node10</title>
<g id="a_edge9_Node000008_Node000010"><a xlink:title=" ">
<path fill="none" stroke="#63b8ff" d="M352.61,-201.68C384.05,-190.09 436.56,-170.72 471.96,-157.66"/>
<polygon fill="#63b8ff" stroke="#63b8ff" points="472.77,-161.1 480.94,-154.35 470.34,-154.53 472.77,-161.1"/>
</a>
</g>
</g>
<!-- Node15 -->
<g id="Node000015" class="node">
<title>Node15</title>
<g id="a_Node000015"><a xlink:title=" ">
<polygon fill="#e0e0e0" stroke="#999999" points="354,-153.38 290,-153.38 290,-132.62 354,-132.62 354,-153.38"/>
<text text-anchor="middle" x="322" y="-139.88" font-family="Helvetica,sans-Serif" font-size="10.00">exception</text>
</a>
</g>
</g>
<!-- Node8&#45;&gt;Node15 -->
<g id="edge17_Node000008_Node000015" class="edge">
<title>Node8&#45;&gt;Node15</title>
<g id="a_edge17_Node000008_Node000015"><a xlink:title=" ">
<path fill="none" stroke="#63b8ff" d="M325.43,-201.83C324.86,-192.21 323.96,-177.13 323.23,-164.79"/>
<polygon fill="#63b8ff" stroke="#63b8ff" points="326.75,-164.94 322.66,-155.16 319.76,-165.35 326.75,-164.94"/>
</a>
</g>
</g>
<!-- Node10&#45;&gt;Node7 -->
<g id="edge15_Node000010_Node000007" class="edge">
<title>Node10&#45;&gt;Node7</title>
<g id="a_edge15_Node000010_Node000007"><a xlink:title=" ">
<path fill="none" stroke="#63b8ff" d="M500.88,-132.18C482.89,-110.42 439.42,-57.85 416.21,-29.77"/>
<polygon fill="#63b8ff" stroke="#63b8ff" points="418.95,-27.6 409.88,-22.12 413.56,-32.06 418.95,-27.6"/>
</a>
</g>
</g>
<!-- Node11 -->
<g id="Node000011" class="node">
<title>Node11</title>
<g id="a_Node000011"><a xlink:title=" ">
<polygon fill="#e0e0e0" stroke="#999999" points="802.12,-90.25 693.88,-90.25 693.88,-56.75 802.12,-56.75 802.12,-90.25"/>
<text text-anchor="start" x="701.88" y="-76.75" font-family="Helvetica,sans-Serif" font-size="10.00">deal.II/matrix_free</text>
<text text-anchor="middle" x="748" y="-64" font-family="Helvetica,sans-Serif" font-size="10.00">/evaluation_flags.h</text>
</a>
</g>
</g>
<!-- Node10&#45;&gt;Node11 -->
<g id="edge10_Node000010_Node000011" class="edge">
<title>Node10&#45;&gt;Node11</title>
<g id="a_edge10_Node000010_Node000011"><a xlink:title=" ">
<path fill="none" stroke="#63b8ff" d="M543.75,-132.18C580.11,-121.92 638.04,-105.56 682.93,-92.88"/>
<polygon fill="#63b8ff" stroke="#63b8ff" points="683.62,-96.32 692.29,-90.23 681.72,-89.58 683.62,-96.32"/>
</a>
</g>
</g>
<!-- Node12 -->
<g id="Node000012" class="node">
<title>Node12</title>
<g id="a_Node000012"><a xlink:href="type__enums_8h.html" target="_top" xlink:title=" ">
<polygon fill="white" stroke="#666666" points="638.75,-90.25 531.25,-90.25 531.25,-56.75 638.75,-56.75 638.75,-90.25"/>
<text text-anchor="start" x="539.25" y="-76.75" font-family="Helvetica,sans-Serif" font-size="10.00">prismspf/core/type</text>
<text text-anchor="middle" x="585" y="-64" font-family="Helvetica,sans-Serif" font-size="10.00">_enums.h</text>
</a>
</g>
</g>
<!-- Node10&#45;&gt;Node12 -->
<g id="edge11_Node000010_Node000012" class="edge">
<title>Node10&#45;&gt;Node12</title>
<g id="a_edge11_Node000010_Node000012"><a xlink:title=" ">
<path fill="none" stroke="#63b8ff" d="M519.89,-132.33C529.92,-123.42 545.22,-109.83 558.46,-98.07"/>
<polygon fill="#63b8ff" stroke="#63b8ff" points="560.51,-100.93 565.66,-91.67 555.86,-95.7 560.51,-100.93"/>
</a>
</g>
</g>
<!-- Node12&#45;&gt;Node7 -->
<g id="edge12_Node000012_Node000007" class="edge">
<title>Node12&#45;&gt;Node7</title>
<g id="a_edge12_Node000012_Node000007"><a xlink:title=" ">
<path fill="none" stroke="#63b8ff" d="M536.17,-56.28C506.47,-46.41 469.01,-33.97 441.06,-24.68"/>
<polygon fill="#63b8ff" stroke="#63b8ff" points="442.5,-21.47 431.91,-21.64 440.29,-28.12 442.5,-21.47"/>
</a>
</g>
</g>
<!-- Node13 -->
<g id="Node000013" class="node">
<title>Node13</title>
<g id="a_Node000013"><a xlink:title=" ">
<polygon fill="#e0e0e0" stroke="#999999" points="609.5,-20.75 560.5,-20.75 560.5,0 609.5,0 609.5,-20.75"/>
<text text-anchor="middle" x="585" y="-7.25" font-family="Helvetica,sans-Serif" font-size="10.00">cstdint</text>
</a>
</g>
</g>
<!-- Node12&#45;&gt;Node13 -->
<g id="edge13_Node000012_Node000013" class="edge">
<title>Node12&#45;&gt;Node13</title>
<g id="a_edge13_Node000012_Node000013"><a xlink:title=" ">
<path fill="none" stroke="#63b8ff" d="M585,-56.44C585,-49.1 585,-40.32 585,-32.46"/>
<polygon fill="#63b8ff" stroke="#63b8ff" points="588.5,-32.73 585,-22.73 581.5,-32.73 588.5,-32.73"/>
</a>
</g>
</g>
<!-- Node14 -->
<g id="Node000014" class="node">
<title>Node14</title>
<g id="a_Node000014"><a xlink:title=" ">
<polygon fill="#e0e0e0" stroke="#999999" points="1713.88,-20.75 1670.12,-20.75 1670.12,0 1713.88,0 1713.88,-20.75"/>
<text text-anchor="middle" x="1692" y="-7.25" font-family="Helvetica,sans-Serif" font-size="10.00">string</text>
</a>
</g>
</g>
<!-- Node12&#45;&gt;Node14 -->
<g id="edge14_Node000012_Node000014" class="edge">
<title>Node12&#45;&gt;Node14</title>
<g id="a_edge14_Node000012_Node000014"><a xlink:title=" ">
<path fill="none" stroke="#63b8ff" d="M639.09,-62.86C653.93,-60.52 670.05,-58.26 685,-56.75 1066.21,-18.26 1531.91,-12.42 1658.76,-11.53"/>
<polygon fill="#63b8ff" stroke="#63b8ff" points="1658.48,-15.03 1668.45,-11.47 1658.43,-8.03 1658.48,-15.03"/>
</a>
</g>
</g>
<!-- Node16&#45;&gt;Node4 -->
<g id="edge19_Node000016_Node000004" class="edge">
<title>Node16&#45;&gt;Node4</title>
<g id="a_edge19_Node000016_Node000004"><a xlink:title=" ">
<path fill="none" stroke="#63b8ff" d="M610.28,-264.83C586.82,-255.52 557.11,-243.72 532.09,-233.78"/>
<polygon fill="#63b8ff" stroke="#63b8ff" points="533.67,-230.65 523.09,-230.21 531.09,-237.15 533.67,-230.65"/>
</a>
</g>
</g>
<!-- Node16&#45;&gt;Node7 -->
<g id="edge29_Node000016_Node000007" class="edge">
<title>Node16&#45;&gt;Node7</title>
<g id="a_edge29_Node000016_Node000007"><a xlink:title=" ">
<path fill="none" stroke="#63b8ff" d="M629.39,-264.85C616.48,-254.94 599.94,-241.79 586,-229.25 570.46,-215.27 571.12,-206.16 553,-195.75 496.92,-163.53 456.87,-206.33 412,-159.75 379.09,-125.59 387.73,-64.1 395.25,-32.06"/>
<polygon fill="#63b8ff" stroke="#63b8ff" points="398.62,-33.01 397.71,-22.45 391.84,-31.27 398.62,-33.01"/>
</a>
</g>
</g>
<!-- Node16&#45;&gt;Node10 -->
<g id="edge28_Node000016_Node000010" class="edge">
<title>Node16&#45;&gt;Node10</title>
<g id="a_edge28_Node000016_Node000010"><a xlink:title=" ">
<path fill="none" stroke="#63b8ff" d="M641.1,-264.98C629.39,-246.85 608.62,-217.06 586,-195.75 571.09,-181.71 552,-168.85 536.55,-159.46"/>
<polygon fill="#63b8ff" stroke="#63b8ff" points="538.7,-156.67 528.32,-154.59 535.14,-162.69 538.7,-156.67"/>
</a>
</g>
</g>
<!-- Node16&#45;&gt;Node14 -->
<g id="edge32_Node000016_Node000014" class="edge">
<title>Node16&#45;&gt;Node14</title>
<g id="a_edge32_Node000016_Node000014"><a xlink:title=" ">
<path fill="none" stroke="#63b8ff" d="M710.22,-266.6C713.18,-266.09 716.12,-265.64 719,-265.25 1110.01,-212.51 1212,-250.01 1606,-229.25 1844.39,-216.69 2514.75,-333.93 2678,-159.75 2813.96,-14.69 1912.07,-10.49 1725.37,-11.16"/>
<polygon fill="#63b8ff" stroke="#63b8ff" points="1725.62,-7.66 1715.64,-11.2 1725.65,-14.66 1725.62,-7.66"/>
</a>
</g>
</g>
<!-- Node17 -->
<g id="Node000017" class="node">
<title>Node17</title>
<g id="a_Node000017"><a xlink:href="field__attributes_8h.html" target="_top" xlink:title=" ">
<polygon fill="white" stroke="#666666" points="744.38,-229.25 637.62,-229.25 637.62,-195.75 744.38,-195.75 744.38,-229.25"/>
<text text-anchor="start" x="645.62" y="-215.75" font-family="Helvetica,sans-Serif" font-size="10.00">prismspf/core/field</text>
<text text-anchor="middle" x="691" y="-203" font-family="Helvetica,sans-Serif" font-size="10.00">_attributes.h</text>
</a>
</g>
</g>
<!-- Node16&#45;&gt;Node17 -->
<g id="edge20_Node000016_Node000017" class="edge">
<title>Node16&#45;&gt;Node17</title>
<g id="a_edge20_Node000016_Node000017"><a xlink:title=" ">
<path fill="none" stroke="#63b8ff" d="M660.48,-265C665.06,-257.27 670.68,-247.8 675.83,-239.09"/>
<polygon fill="#63b8ff" stroke="#63b8ff" points="678.73,-241.07 680.82,-230.68 672.71,-237.5 678.73,-241.07"/>
</a>
</g>
</g>
<!-- Node19 -->
<g id="Node000019" class="node">
<title>Node19</title>
<g id="a_Node000019"><a xlink:title=" ">
<polygon fill="#e0e0e0" stroke="#999999" points="922.38,-153.38 875.62,-153.38 875.62,-132.62 922.38,-132.62 922.38,-153.38"/>
<text text-anchor="middle" x="899" y="-139.88" font-family="Helvetica,sans-Serif" font-size="10.00">vector</text>
</a>
</g>
</g>
<!-- Node16&#45;&gt;Node19 -->
<g id="edge34_Node000016_Node000019" class="edge">
<title>Node16&#45;&gt;Node19</title>
<g id="a_edge34_Node000016_Node000019"><a xlink:title=" ">
<path fill="none" stroke="#63b8ff" d="M686.85,-264.89C706.84,-255.41 731.88,-242.66 753,-229.25 773.45,-216.26 775.52,-208.69 796,-195.75 818.62,-181.45 845.7,-167.98 866.42,-158.36"/>
<polygon fill="#63b8ff" stroke="#63b8ff" points="867.6,-161.67 875.24,-154.33 864.69,-155.3 867.6,-161.67"/>
</a>
</g>
</g>
<!-- Node20 -->
<g id="Node000020" class="node">
<title>Node20</title>
<g id="a_Node000020"><a xlink:title=" ">
<polygon fill="#e0e0e0" stroke="#999999" points="897.75,-222.88 838.25,-222.88 838.25,-202.12 897.75,-202.12 897.75,-222.88"/>
<text text-anchor="middle" x="868" y="-209.38" font-family="Helvetica,sans-Serif" font-size="10.00">concepts</text>
</a>
</g>
</g>
<!-- Node16&#45;&gt;Node20 -->
<g id="edge30_Node000016_Node000020" class="edge">
<title>Node16&#45;&gt;Node20</title>
<g id="a_edge30_Node000016_Node000020"><a xlink:title=" ">
<path fill="none" stroke="#63b8ff" d="M707.72,-264.86C741.61,-255.01 785.43,-241.91 824,-229.25 826.23,-228.52 828.51,-227.75 830.82,-226.97"/>
<polygon fill="#63b8ff" stroke="#63b8ff" points="831.83,-230.32 840.12,-223.72 829.53,-223.71 831.83,-230.32"/>
</a>
</g>
</g>
<!-- Node21 -->
<g id="Node000021" class="node">
<title>Node21</title>
<g id="a_Node000021"><a xlink:title=" ">
<polygon fill="#e0e0e0" stroke="#999999" points="964.5,-222.88 915.5,-222.88 915.5,-202.12 964.5,-202.12 964.5,-222.88"/>
<text text-anchor="middle" x="940" y="-209.38" font-family="Helvetica,sans-Serif" font-size="10.00">ranges</text>
</a>
</g>
</g>
<!-- Node16&#45;&gt;Node21 -->
<g id="edge31_Node000016_Node000021" class="edge">
<title>Node16&#45;&gt;Node21</title>
<g id="a_edge31_Node000016_Node000021"><a xlink:title=" ">
<path fill="none" stroke="#63b8ff" d="M710.31,-267.12C713.25,-266.48 716.15,-265.85 719,-265.25 802.23,-247.65 826.17,-255.79 907,-229.25 908.36,-228.8 909.73,-228.32 911.11,-227.79"/>
<polygon fill="#63b8ff" stroke="#63b8ff" points="912.29,-231.1 920.1,-223.95 909.53,-224.66 912.29,-231.1"/>
</a>
</g>
</g>
<!-- Node22 -->
<g id="Node000022" class="node">
<title>Node22</title>
<g id="a_Node000022"><a xlink:title=" ">
<polygon fill="#e0e0e0" stroke="#999999" points="1013.12,-153.38 940.88,-153.38 940.88,-132.62 1013.12,-132.62 1013.12,-153.38"/>
<text text-anchor="middle" x="977" y="-139.88" font-family="Helvetica,sans-Serif" font-size="10.00">string_view</text>
</a>
</g>
</g>
<!-- Node16&#45;&gt;Node22 -->
<g id="edge33_Node000016_Node000022" class="edge">
<title>Node16&#45;&gt;Node22</title>
<g id="a_edge33_Node000016_Node000022"><a xlink:title=" ">
<path fill="none" stroke="#63b8ff" d="M707.01,-264.8C732.89,-256.13 763.47,-244.14 789,-229.25 809.03,-217.57 808.84,-207.21 829,-195.75 831.49,-194.33 894.71,-172.4 937.7,-157.55"/>
<polygon fill="#63b8ff" stroke="#63b8ff" points="938.68,-160.91 946.99,-154.34 936.39,-154.3 938.68,-160.91"/>
</a>
</g>
</g>
<!-- Node17&#45;&gt;Node7 -->
<g id="edge24_Node000017_Node000007" class="edge">
<title>Node17&#45;&gt;Node7</title>
<g id="a_edge24_Node000017_Node000007"><a xlink:title=" ">
<path fill="none" stroke="#63b8ff" d="M637.31,-203.56C567.65,-192.79 453.27,-173.35 439,-159.75 403.65,-126.07 399.46,-64.37 399.92,-32.17"/>
<polygon fill="#63b8ff" stroke="#63b8ff" points="403.4,-32.67 400.23,-22.56 396.41,-32.44 403.4,-32.67"/>
</a>
</g>
</g>
<!-- Node17&#45;&gt;Node9 -->
<g id="edge21_Node000017_Node000009" class="edge">
<title>Node17&#45;&gt;Node9</title>
<g id="a_edge21_Node000017_Node000009"><a xlink:title=" ">
<path fill="none" stroke="#63b8ff" d="M682.94,-195.5C678.21,-186.1 672.17,-174.12 667.12,-164.09"/>
<polygon fill="#63b8ff" stroke="#63b8ff" points="670.25,-162.53 662.63,-155.17 664,-165.68 670.25,-162.53"/>
</a>
</g>
</g>
<!-- Node17&#45;&gt;Node10 -->
<g id="edge23_Node000017_Node000010" class="edge">
<title>Node17&#45;&gt;Node10</title>
<g id="a_edge23_Node000017_Node000010"><a xlink:title=" ">
<path fill="none" stroke="#63b8ff" d="M647.41,-195.33C616.54,-183.88 575.58,-168.69 546.24,-157.81"/>
<polygon fill="#63b8ff" stroke="#63b8ff" points="547.62,-154.59 537.03,-154.4 545.19,-161.15 547.62,-154.59"/>
</a>
</g>
</g>
<!-- Node17&#45;&gt;Node12 -->
<g id="edge22_Node000017_Node000012" class="edge">
<title>Node17&#45;&gt;Node12</title>
<g id="a_edge22_Node000017_Node000012"><a xlink:title=" ">
<path fill="none" stroke="#63b8ff" d="M744.77,-196.34C762.66,-188.46 780.64,-176.78 791,-159.75 798.74,-147.03 800.16,-137.99 791,-126.25 782.14,-114.89 707.28,-98.1 650.33,-86.76"/>
<polygon fill="#63b8ff" stroke="#63b8ff" points="651.18,-83.36 640.69,-84.86 649.83,-90.23 651.18,-83.36"/>
</a>
</g>
</g>
<!-- Node17&#45;&gt;Node14 -->
<g id="edge26_Node000017_Node000014" class="edge">
<title>Node17&#45;&gt;Node14</title>
<g id="a_edge26_Node000017_Node000014"><a xlink:title=" ">
<path fill="none" stroke="#63b8ff" d="M730.19,-195.33C753.13,-185.57 782.51,-172.58 808,-159.75 834.93,-146.19 838.61,-136.4 867,-126.25 1160.31,-21.38 1544.11,-11.66 1658.46,-11.21"/>
<polygon fill="#63b8ff" stroke="#63b8ff" points="1658.37,-14.71 1668.36,-11.2 1658.36,-7.71 1658.37,-14.71"/>
</a>
</g>
</g>
<!-- Node18 -->
<g id="Node000018" class="node">
<title>Node18</title>
<g id="a_Node000018"><a xlink:title=" ">
<polygon fill="#e0e0e0" stroke="#999999" points="781.88,-153.38 744.12,-153.38 744.12,-132.62 781.88,-132.62 781.88,-153.38"/>
<text text-anchor="middle" x="763" y="-139.88" font-family="Helvetica,sans-Serif" font-size="10.00">map</text>
</a>
</g>
</g>
<!-- Node17&#45;&gt;Node18 -->
<g id="edge25_Node000017_Node000018" class="edge">
<title>Node17&#45;&gt;Node18</title>
<g id="a_edge25_Node000017_Node000018"><a xlink:title=" ">
<path fill="none" stroke="#63b8ff" d="M708.06,-195.5C718.96,-185.29 733.09,-172.05 744.29,-161.54"/>
<polygon fill="#63b8ff" stroke="#63b8ff" points="746.52,-164.25 751.42,-154.86 741.73,-159.14 746.52,-164.25"/>
</a>
</g>
</g>
<!-- Node17&#45;&gt;Node19 -->
<g id="edge27_Node000017_Node000019" class="edge">
<title>Node17&#45;&gt;Node19</title>
<g id="a_edge27_Node000017_Node000019"><a xlink:title=" ">
<path fill="none" stroke="#63b8ff" d="M744.64,-196.89C778.58,-187.24 823.22,-173.82 862,-159.75 863.56,-159.18 865.15,-158.59 866.74,-157.97"/>
<polygon fill="#63b8ff" stroke="#63b8ff" points="867.88,-161.29 875.84,-154.29 865.26,-154.8 867.88,-161.29"/>
</a>
</g>
</g>
<!-- Node23&#45;&gt;Node3 -->
<g id="edge39_Node000023_Node000003" class="edge">
<title>Node23&#45;&gt;Node3</title>
<g id="a_edge39_Node000023_Node000003"><a xlink:title=" ">
<path fill="none" stroke="#63b8ff" d="M1597.7,-210.14C1773.27,-205.14 2363.74,-186.69 2551,-159.75 2557.12,-158.87 2563.51,-157.69 2569.79,-156.36"/>
<polygon fill="#63b8ff" stroke="#63b8ff" points="2570.45,-159.8 2579.44,-154.2 2568.92,-152.97 2570.45,-159.8"/>
</a>
</g>
</g>
<!-- Node23&#45;&gt;Node7 -->
<g id="edge52_Node000023_Node000007" class="edge">
<title>Node23&#45;&gt;Node7</title>
<g id="a_edge52_Node000023_Node000007"><a xlink:title=" ">
<path fill="none" stroke="#63b8ff" d="M1498.42,-211.34C1417.54,-209.79 1252.96,-201.25 1121,-159.75 1090.75,-150.24 1087.43,-138.06 1058,-126.25 952.16,-83.79 922.94,-78.54 811,-56.75 688.72,-32.95 543.32,-20.54 462.68,-15.04"/>
<polygon fill="#63b8ff" stroke="#63b8ff" points="462.98,-11.55 452.77,-14.37 462.51,-18.53 462.98,-11.55"/>
</a>
</g>
</g>
<!-- Node23&#45;&gt;Node9 -->
<g id="edge37_Node000023_Node000009" class="edge">
<title>Node23&#45;&gt;Node9</title>
<g id="a_edge37_Node000023_Node000009"><a xlink:title=" ">
<path fill="none" stroke="#63b8ff" d="M1498.28,-210.68C1370.86,-208.07 1022.43,-197.74 735,-159.75 727.27,-158.73 719.16,-157.39 711.22,-155.93"/>
<polygon fill="#63b8ff" stroke="#63b8ff" points="712.11,-152.54 701.63,-154.08 710.79,-159.41 712.11,-152.54"/>
</a>
</g>
</g>
<!-- Node23&#45;&gt;Node11 -->
<g id="edge45_Node000023_Node000011" class="edge">
<title>Node23&#45;&gt;Node11</title>
<g id="a_edge45_Node000023_Node000011"><a xlink:title=" ">
<path fill="none" stroke="#63b8ff" d="M1498.4,-209.62C1391.5,-205.03 1142.79,-191.21 1065,-159.75 1042.54,-150.67 1044.08,-136.22 1022,-126.25 955.03,-96 871.15,-83.43 813.95,-78.21"/>
<polygon fill="#63b8ff" stroke="#63b8ff" points="814.3,-74.72 804.03,-77.36 813.7,-81.7 814.3,-74.72"/>
</a>
</g>
</g>
<!-- Node23&#45;&gt;Node14 -->
<g id="edge53_Node000023_Node000014" class="edge">
<title>Node23&#45;&gt;Node14</title>
<g id="a_edge53_Node000023_Node000014"><a xlink:title=" ">
<path fill="none" stroke="#63b8ff" d="M1597.53,-209.78C1793.13,-202.85 2502,-176.63 2518,-159.75 2631.87,-39.65 1893.14,-15.86 1725.38,-12.03"/>
<polygon fill="#63b8ff" stroke="#63b8ff" points="1725.68,-8.53 1715.6,-11.81 1725.52,-15.53 1725.68,-8.53"/>
</a>
</g>
</g>
<!-- Node23&#45;&gt;Node22 -->
<g id="edge54_Node000023_Node000022" class="edge">
<title>Node23&#45;&gt;Node22</title>
<g id="a_edge54_Node000023_Node000022"><a xlink:title=" ">
<path fill="none" stroke="#63b8ff" d="M1498.29,-209.97C1405.01,-206.34 1197.75,-194.73 1027,-159.75 1023.23,-158.98 1019.34,-158.03 1015.48,-156.99"/>
<polygon fill="#63b8ff" stroke="#63b8ff" points="1016.8,-153.73 1006.22,-154.29 1014.84,-160.45 1016.8,-153.73"/>
</a>
</g>
</g>
<!-- Node24 -->
<g id="Node000024" class="node">
<title>Node24</title>
<g id="a_Node000024"><a xlink:title=" ">
<polygon fill="#e0e0e0" stroke="#999999" points="1258.75,-153.38 1145.25,-153.38 1145.25,-132.62 1258.75,-132.62 1258.75,-153.38"/>
<text text-anchor="middle" x="1202" y="-139.88" font-family="Helvetica,sans-Serif" font-size="10.00">deal.II/base/config.h</text>
</a>
</g>
</g>
<!-- Node23&#45;&gt;Node24 -->
<g id="edge36_Node000023_Node000024" class="edge">
<title>Node23&#45;&gt;Node24</title>
<g id="a_edge36_Node000023_Node000024"><a xlink:title=" ">
<path fill="none" stroke="#63b8ff" d="M1498.28,-203.11C1442.18,-193.45 1348.28,-176.74 1268,-159.75 1263.07,-158.71 1257.94,-157.57 1252.83,-156.41"/>
<polygon fill="#63b8ff" stroke="#63b8ff" points="1253.72,-153.02 1243.19,-154.17 1252.14,-159.84 1253.72,-153.02"/>
</a>
</g>
</g>
<!-- Node25 -->
<g id="Node000025" class="node">
<title>Node25</title>
<g id="a_Node000025"><a xlink:title=" ">
<polygon fill="#e0e0e0" stroke="#999999" points="1410.88,-153.38 1277.12,-153.38 1277.12,-132.62 1410.88,-132.62 1410.88,-153.38"/>
<text text-anchor="middle" x="1344" y="-139.88" font-family="Helvetica,sans-Serif" font-size="10.00">deal.II/base/logstream.h</text>
</a>
</g>
</g>
<!-- Node23&#45;&gt;Node25 -->
<g id="edge38_Node000023_Node000025" class="edge">
<title>Node23&#45;&gt;Node25</title>
<g id="a_edge38_Node000023_Node000025"><a xlink:title=" ">
<path fill="none" stroke="#63b8ff" d="M1499.14,-195.33C1464.08,-183.73 1417.41,-168.29 1384.45,-157.38"/>
<polygon fill="#63b8ff" stroke="#63b8ff" points="1385.86,-154.16 1375.26,-154.35 1383.66,-160.81 1385.86,-154.16"/>
</a>
</g>
</g>
<!-- Node26 -->
<g id="Node000026" class="node">
<title>Node26</title>
<g id="a_Node000026"><a xlink:title=" ">
<polygon fill="#e0e0e0" stroke="#999999" points="1537.5,-153.38 1428.5,-153.38 1428.5,-132.62 1537.5,-132.62 1537.5,-153.38"/>
<text text-anchor="middle" x="1483" y="-139.88" font-family="Helvetica,sans-Serif" font-size="10.00">deal.II/base/point.h</text>
</a>
</g>
</g>
<!-- Node23&#45;&gt;Node26 -->
<g id="edge40_Node000023_Node000026" class="edge">
<title>Node23&#45;&gt;Node26</title>
<g id="a_edge40_Node000023_Node000026"><a xlink:title=" ">
<path fill="none" stroke="#63b8ff" d="M1532.6,-195.5C1522.86,-185.39 1510.26,-172.31 1500.2,-161.86"/>
<polygon fill="#63b8ff" stroke="#63b8ff" points="1502.97,-159.69 1493.51,-154.91 1497.92,-164.54 1502.97,-159.69"/>
</a>
</g>
</g>
<!-- Node27 -->
<g id="Node000027" class="node">
<title>Node27</title>
<g id="a_Node000027"><a xlink:title=" ">
<polygon fill="#e0e0e0" stroke="#999999" points="1670.12,-153.38 1555.88,-153.38 1555.88,-132.62 1670.12,-132.62 1670.12,-153.38"/>
<text text-anchor="middle" x="1613" y="-139.88" font-family="Helvetica,sans-Serif" font-size="10.00">deal.II/base/tensor.h</text>
</a>
</g>
</g>
<!-- Node23&#45;&gt;Node27 -->
<g id="edge41_Node000023_Node000027" class="edge">
<title>Node23&#45;&gt;Node27</title>
<g id="a_edge41_Node000023_Node000027"><a xlink:title=" ">
<path fill="none" stroke="#63b8ff" d="M1563.4,-195.5C1573.14,-185.39 1585.74,-172.31 1595.8,-161.86"/>
<polygon fill="#63b8ff" stroke="#63b8ff" points="1598.08,-164.54 1602.49,-154.91 1593.03,-159.69 1598.08,-164.54"/>
</a>
</g>
</g>
<!-- Node28 -->
<g id="Node000028" class="node">
<title>Node28</title>
<g id="a_Node000028"><a xlink:title=" ">
<polygon fill="#e0e0e0" stroke="#999999" points="1799.62,-153.38 1688.38,-153.38 1688.38,-132.62 1799.62,-132.62 1799.62,-153.38"/>
<text text-anchor="middle" x="1744" y="-139.88" font-family="Helvetica,sans-Serif" font-size="10.00">deal.II/base/types.h</text>
</a>
</g>
</g>
<!-- Node23&#45;&gt;Node28 -->
<g id="edge42_Node000023_Node000028" class="edge">
<title>Node23&#45;&gt;Node28</title>
<g id="a_edge42_Node000023_Node000028"><a xlink:title=" ">
<path fill="none" stroke="#63b8ff" d="M1594.95,-195.33C1628.48,-183.78 1673.08,-168.43 1704.73,-157.53"/>
<polygon fill="#63b8ff" stroke="#63b8ff" points="1705.6,-160.93 1713.91,-154.36 1703.32,-154.31 1705.6,-160.93"/>
</a>
</g>
</g>
<!-- Node29 -->
<g id="Node000029" class="node">
<title>Node29</title>
<g id="a_Node000029"><a xlink:title=" ">
<polygon fill="#e0e0e0" stroke="#999999" points="1938.5,-153.38 1817.5,-153.38 1817.5,-132.62 1938.5,-132.62 1938.5,-153.38"/>
<text text-anchor="middle" x="1878" y="-139.88" font-family="Helvetica,sans-Serif" font-size="10.00">deal.II/base/utilities.h</text>
</a>
</g>
</g>
<!-- Node23&#45;&gt;Node29 -->
<g id="edge43_Node000023_Node000029" class="edge">
<title>Node23&#45;&gt;Node29</title>
<g id="a_edge43_Node000023_Node000029"><a xlink:title=" ">
<path fill="none" stroke="#63b8ff" d="M1597.64,-202.1C1650.21,-192.04 1735.58,-175.4 1809,-159.75 1814.14,-158.65 1819.48,-157.49 1824.82,-156.3"/>
<polygon fill="#63b8ff" stroke="#63b8ff" points="1825.25,-159.79 1834.24,-154.19 1823.71,-152.96 1825.25,-159.79"/>
</a>
</g>
</g>
<!-- Node30 -->
<g id="Node000030" class="node">
<title>Node30</title>
<g id="a_Node000030"><a xlink:title=" ">
<polygon fill="#e0e0e0" stroke="#999999" points="1428,-83.88 1280,-83.88 1280,-63.12 1428,-63.12 1428,-83.88"/>
<text text-anchor="middle" x="1354" y="-70.38" font-family="Helvetica,sans-Serif" font-size="10.00">deal.II/base/vectorization.h</text>
</a>
</g>
</g>
<!-- Node23&#45;&gt;Node30 -->
<g id="edge44_Node000023_Node000030" class="edge">
<title>Node23&#45;&gt;Node30</title>
<g id="a_edge44_Node000023_Node000030"><a xlink:title=" ">
<path fill="none" stroke="#63b8ff" d="M1498.56,-208.9C1394.34,-202.91 1159.67,-186.58 1136,-159.75 1092.69,-110.66 1190.19,-89.6 1268.45,-80.72"/>
<polygon fill="#63b8ff" stroke="#63b8ff" points="1268.76,-84.21 1278.33,-79.66 1268.02,-77.25 1268.76,-84.21"/>
</a>
</g>
</g>
<!-- Node31 -->
<g id="Node000031" class="node">
<title>Node31</title>
<g id="a_Node000031"><a xlink:title=" ">
<polygon fill="#e0e0e0" stroke="#999999" points="2256.5,-153.38 2111.5,-153.38 2111.5,-132.62 2256.5,-132.62 2256.5,-153.38"/>
<text text-anchor="middle" x="2184" y="-139.88" font-family="Helvetica,sans-Serif" font-size="10.00">boost/range/algorithm.hpp</text>
</a>
</g>
</g>
<!-- Node23&#45;&gt;Node31 -->
<g id="edge46_Node000023_Node000031" class="edge">
<title>Node23&#45;&gt;Node31</title>
<g id="a_edge46_Node000023_Node000031"><a xlink:title=" ">
<path fill="none" stroke="#63b8ff" d="M1597.47,-208.49C1694.56,-202.22 1916.71,-186.14 2102,-159.75 2109.71,-158.65 2117.79,-157.32 2125.75,-155.91"/>
<polygon fill="#63b8ff" stroke="#63b8ff" points="2126.18,-159.39 2135.38,-154.13 2124.91,-152.5 2126.18,-159.39"/>
</a>
</g>
</g>
<!-- Node32 -->
<g id="Node000032" class="node">
<title>Node32</title>
<g id="a_Node000032"><a xlink:title=" ">
<polygon fill="#e0e0e0" stroke="#999999" points="2399,-159.75 2275,-159.75 2275,-126.25 2399,-126.25 2399,-159.75"/>
<text text-anchor="start" x="2283" y="-146.25" font-family="Helvetica,sans-Serif" font-size="10.00">boost/range/algorithm</text>
<text text-anchor="middle" x="2337" y="-133.5" font-family="Helvetica,sans-Serif" font-size="10.00">_ext.hpp</text>
</a>
</g>
</g>
<!-- Node23&#45;&gt;Node32 -->
<g id="edge47_Node000023_Node000032" class="edge">
<title>Node23&#45;&gt;Node32</title>
<g id="a_edge47_Node000023_Node000032"><a xlink:title=" ">
<path fill="none" stroke="#63b8ff" d="M1597.45,-210.43C1712.61,-207.39 2007.7,-196.54 2263.38,-159.99"/>
<polygon fill="#63b8ff" stroke="#63b8ff" points="2263.86,-163.46 2273.26,-158.56 2262.86,-156.53 2263.86,-163.46"/>
</a>
</g>
</g>
<!-- Node33 -->
<g id="Node000033" class="node">
<title>Node33</title>
<g id="a_Node000033"><a xlink:href="vectorized__operations_8h.html" target="_top" xlink:title=" ">
<polygon fill="white" stroke="#666666" points="2093,-159.75 1957,-159.75 1957,-126.25 2093,-126.25 2093,-159.75"/>
<text text-anchor="start" x="1965" y="-146.25" font-family="Helvetica,sans-Serif" font-size="10.00">prismspf/utilities</text>
<text text-anchor="middle" x="2025" y="-133.5" font-family="Helvetica,sans-Serif" font-size="10.00">/vectorized_operations.h</text>
</a>
</g>
</g>
<!-- Node23&#45;&gt;Node33 -->
<g id="edge48_Node000023_Node000033" class="edge">
<title>Node23&#45;&gt;Node33</title>
<g id="a_edge48_Node000023_Node000033"><a xlink:title=" ">
<path fill="none" stroke="#63b8ff" d="M1597.75,-206.25C1671.49,-198.2 1814.38,-181.62 1945.58,-160.09"/>
<polygon fill="#63b8ff" stroke="#63b8ff" points="1945.83,-163.59 1955.12,-158.51 1944.68,-156.69 1945.83,-163.59"/>
</a>
</g>
</g>
<!-- Node35 -->
<g id="Node000035" class="node">
<title>Node35</title>
<g id="a_Node000035"><a xlink:title=" ">
<polygon fill="#e0e0e0" stroke="#999999" points="2509.25,-153.38 2416.75,-153.38 2416.75,-132.62 2509.25,-132.62 2509.25,-153.38"/>
<text text-anchor="middle" x="2463" y="-139.88" font-family="Helvetica,sans-Serif" font-size="10.00">unordered_map</text>
</a>
</g>
</g>
<!-- Node23&#45;&gt;Node35 -->
<g id="edge55_Node000023_Node000035" class="edge">
<title>Node23&#45;&gt;Node35</title>
<g id="a_edge55_Node000023_Node000035"><a xlink:title=" ">
<path fill="none" stroke="#63b8ff" d="M1597.67,-209.94C1756.43,-204.73 2250.43,-186.72 2408,-159.75 2412.63,-158.96 2417.42,-157.92 2422.16,-156.76"/>
<polygon fill="#63b8ff" stroke="#63b8ff" points="2422.79,-160.21 2431.55,-154.26 2420.99,-153.45 2422.79,-160.21"/>
</a>
</g>
</g>
<!-- Node33&#45;&gt;Node7 -->
<g id="edge50_Node000033_Node000007" class="edge">
<title>Node33&#45;&gt;Node7</title>
<g id="a_edge50_Node000033_Node000007"><a xlink:title=" ">
<path fill="none" stroke="#63b8ff" d="M1956.61,-127.77C1953.7,-127.24 1950.82,-126.73 1948,-126.25 1722.04,-87.82 1665.32,-76.87 1437,-56.75 1044.42,-22.16 944.58,-41.04 551,-20.75 521.93,-19.25 489.71,-17.28 462.61,-15.53"/>
<polygon fill="#63b8ff" stroke="#63b8ff" points="463.04,-12.05 452.84,-14.89 462.59,-19.04 463.04,-12.05"/>
</a>
</g>
</g>
<!-- Node33&#45;&gt;Node30 -->
<g id="edge49_Node000033_Node000030" class="edge">
<title>Node33&#45;&gt;Node30</title>
<g id="a_edge49_Node000033_Node000030"><a xlink:title=" ">
<path fill="none" stroke="#63b8ff" d="M1956.64,-127.59C1953.72,-127.11 1950.84,-126.66 1948,-126.25 1768.06,-100.1 1555.4,-85.47 1439.64,-78.86"/>
<polygon fill="#63b8ff" stroke="#63b8ff" points="1440.09,-75.38 1429.91,-78.32 1439.7,-82.37 1440.09,-75.38"/>
</a>
</g>
</g>
<!-- Node34 -->
<g id="Node000034" class="node">
<title>Node34</title>
<g id="a_Node000034"><a xlink:title=" ">
<polygon fill="#e0e0e0" stroke="#999999" points="2048.38,-83.88 2001.62,-83.88 2001.62,-63.12 2048.38,-63.12 2048.38,-83.88"/>
<text text-anchor="middle" x="2025" y="-70.38" font-family="Helvetica,sans-Serif" font-size="10.00">cmath</text>
</a>
</g>
</g>
<!-- Node33&#45;&gt;Node34 -->
<g id="edge51_Node000033_Node000034" class="edge">
<title>Node33&#45;&gt;Node34</title>
<g id="a_edge51_Node000033_Node000034"><a xlink:title=" ">
<path fill="none" stroke="#63b8ff" d="M2025,-126C2025,-116.9 2025,-105.39 2025,-95.57"/>
<polygon fill="#63b8ff" stroke="#63b8ff" points="2028.5,-95.84 2025,-85.84 2021.5,-95.84 2028.5,-95.84"/>
</a>
</g>
</g>
</g>
</svg>
