<?xml version="1.0" encoding="UTF-8" standalone="no"?>
<!DOCTYPE svg PUBLIC "-//W3C//DTD SVG 1.1//EN"
 "http://www.w3.org/Graphics/SVG/1.1/DTD/svg11.dtd">
<!-- Generated by graphviz version 2.43.0 (0)
 -->
<!-- Title: /home/runner/work/phaseField/phaseField/include/prismspf/user_inputs/miscellaneous_parameters.h Pages: 1 -->
<svg width="1848pt" height="731pt"
 viewBox="0.00 0.00 1848.25 731.00" xmlns="http://www.w3.org/2000/svg" xmlns:xlink="http://www.w3.org/1999/xlink">
<g id="graph0" class="graph" transform="scale(1 1) rotate(0) translate(4 727)">
<title>/home/runner/work/phaseField/phaseField/include/prismspf/user_inputs/miscellaneous_parameters.h</title>
<!-- Node1 -->
<g id="Node000001" class="node">
<title>Node1</title>
<g id="a_Node000001"><a xlink:title=" ">
<polygon fill="#999999" stroke="#666666" points="1363,-723 1143,-723 1143,-682 1363,-682 1363,-723"/>
<text text-anchor="start" x="1151" y="-711" font-family="Helvetica,sans-Serif" font-size="10.00">/home/runner/work/phaseField</text>
<text text-anchor="start" x="1151" y="-700" font-family="Helvetica,sans-Serif" font-size="10.00">/phaseField/include/prismspf</text>
<text text-anchor="middle" x="1253" y="-689" font-family="Helvetica,sans-Serif" font-size="10.00">/user_inputs/miscellaneous_parameters.h</text>
</a>
</g>
</g>
<!-- Node2 -->
<g id="Node000002" class="node">
<title>Node2</title>
<g id="a_Node000002"><a xlink:href="nucleation__manager_8h.html" target="_top" xlink:title=" ">
<polygon fill="white" stroke="#666666" points="1333,-415 1151,-415 1151,-374 1333,-374 1333,-415"/>
<text text-anchor="start" x="1159" y="-403" font-family="Helvetica,sans-Serif" font-size="10.00">/home/runner/work/phaseField</text>
<text text-anchor="start" x="1159" y="-392" font-family="Helvetica,sans-Serif" font-size="10.00">/phaseField/include/prismspf</text>
<text text-anchor="middle" x="1242" y="-381" font-family="Helvetica,sans-Serif" font-size="10.00">/nucleation/nucleation_manager.h</text>
</a>
</g>
</g>
<!-- Node1&#45;&gt;Node2 -->
<g id="edge1_Node000001_Node000002" class="edge">
<title>Node1&#45;&gt;Node2</title>
<g id="a_edge1_Node000001_Node000002"><a xlink:title=" ">
<path fill="none" stroke="#63b8ff" d="M1242.02,-672.32C1227.62,-632.33 1203.11,-557.94 1194,-492 1191.51,-473.95 1187.64,-468.08 1194,-451 1199.07,-437.39 1209.14,-424.9 1218.76,-415.22"/>
<polygon fill="#63b8ff" stroke="#63b8ff" points="1238.82,-673.76 1245.54,-681.95 1245.4,-671.36 1238.82,-673.76"/>
</a>
</g>
</g>
<!-- Node5 -->
<g id="Node000005" class="node">
<title>Node5</title>
<g id="a_Node000005"><a xlink:href="user__input__parameters_8h.html" target="_top" xlink:title=" ">
<polygon fill="white" stroke="#666666" points="1463,-646 1263,-646 1263,-605 1463,-605 1463,-646"/>
<text text-anchor="start" x="1271" y="-634" font-family="Helvetica,sans-Serif" font-size="10.00">/home/runner/work/phaseField</text>
<text text-anchor="start" x="1271" y="-623" font-family="Helvetica,sans-Serif" font-size="10.00">/phaseField/include/prismspf</text>
<text text-anchor="middle" x="1363" y="-612" font-family="Helvetica,sans-Serif" font-size="10.00">/user_inputs/user_input_parameters.h</text>
</a>
</g>
</g>
<!-- Node1&#45;&gt;Node5 -->
<g id="edge4_Node000001_Node000005" class="edge">
<title>Node1&#45;&gt;Node5</title>
<g id="a_edge4_Node000001_Node000005"><a xlink:title=" ">
<path fill="none" stroke="#63b8ff" d="M1290.26,-676.09C1304.6,-666.32 1320.72,-655.32 1334.15,-646.17"/>
<polygon fill="#63b8ff" stroke="#63b8ff" points="1287.9,-673.47 1281.61,-681.99 1291.85,-679.25 1287.9,-673.47"/>
</a>
</g>
</g>
<!-- Node3 -->
<g id="Node000003" class="node">
<title>Node3</title>
<g id="a_Node000003"><a xlink:href="problem_8h.html" target="_top" xlink:title=" ">
<polygon fill="white" stroke="#666666" points="1209,-261 1045,-261 1045,-220 1209,-220 1209,-261"/>
<text text-anchor="start" x="1053" y="-249" font-family="Helvetica,sans-Serif" font-size="10.00">/home/runner/work/phaseField</text>
<text text-anchor="start" x="1053" y="-238" font-family="Helvetica,sans-Serif" font-size="10.00">/phaseField/include/prismspf</text>
<text text-anchor="middle" x="1127" y="-227" font-family="Helvetica,sans-Serif" font-size="10.00">/core/problem.h</text>
</a>
</g>
</g>
<!-- Node2&#45;&gt;Node3 -->
<g id="edge2_Node000002_Node000003" class="edge">
<title>Node2&#45;&gt;Node3</title>
<g id="a_edge2_Node000002_Node000003"><a xlink:title=" ">
<path fill="none" stroke="#63b8ff" d="M1221.14,-365.93C1198.33,-335.78 1162.34,-288.21 1142.11,-261.47"/>
<polygon fill="#63b8ff" stroke="#63b8ff" points="1218.38,-368.08 1227.2,-373.94 1223.96,-363.85 1218.38,-368.08"/>
</a>
</g>
</g>
<!-- Node4 -->
<g id="Node000004" class="node">
<title>Node4</title>
<g id="a_Node000004"><a xlink:href="problem_8cc.html" target="_top" xlink:title=" ">
<polygon fill="white" stroke="#666666" points="1212,-30 1042,-30 1042,0 1212,0 1212,-30"/>
<text text-anchor="start" x="1050" y="-18" font-family="Helvetica,sans-Serif" font-size="10.00">/home/runner/work/phaseField</text>
<text text-anchor="middle" x="1127" y="-7" font-family="Helvetica,sans-Serif" font-size="10.00">/phaseField/src/core/problem.cc</text>
</a>
</g>
</g>
<!-- Node3&#45;&gt;Node4 -->
<g id="edge3_Node000003_Node000004" class="edge">
<title>Node3&#45;&gt;Node4</title>
<g id="a_edge3_Node000003_Node000004"><a xlink:title=" ">
<path fill="none" stroke="#63b8ff" d="M1127,-209.41C1127,-160.56 1127,-65.85 1127,-30.11"/>
<polygon fill="#63b8ff" stroke="#63b8ff" points="1123.5,-209.67 1127,-219.67 1130.5,-209.67 1123.5,-209.67"/>
</a>
</g>
</g>
<!-- Node5&#45;&gt;Node2 -->
<g id="edge44_Node000005_Node000002" class="edge">
<title>Node5&#45;&gt;Node2</title>
<g id="a_edge44_Node000005_Node000002"><a xlink:title=" ">
<path fill="none" stroke="#63b8ff" d="M1375.43,-595.16C1388.93,-558.23 1404.99,-494.39 1376,-451 1365.16,-434.77 1348.6,-423.29 1330.78,-415.15"/>
<polygon fill="#63b8ff" stroke="#63b8ff" points="1372.03,-594.23 1371.72,-604.82 1378.57,-596.74 1372.03,-594.23"/>
</a>
</g>
</g>
<!-- Node5&#45;&gt;Node4 -->
<g id="edge50_Node000005_Node000004" class="edge">
<title>Node5&#45;&gt;Node4</title>
<g id="a_edge50_Node000005_Node000004"><a xlink:title=" ">
<path fill="none" stroke="#63b8ff" d="M1473.3,-617.77C1599.84,-609.02 1793.17,-592.08 1818,-569 1850.02,-539.24 1837,-516.21 1837,-472.5 1837,-472.5 1837,-472.5 1837,-162.5 1837,-36.25 1400.94,-17.9 1212.29,-15.88"/>
<polygon fill="#63b8ff" stroke="#63b8ff" points="1472.91,-614.29 1463.17,-618.47 1473.39,-621.28 1472.91,-614.29"/>
</a>
</g>
</g>
<!-- Node6 -->
<g id="Node000006" class="node">
<title>Node6</title>
<g id="a_Node000006"><a xlink:href="pde__operator__base_8h.html" target="_top" xlink:title=" ">
<polygon fill="white" stroke="#666666" points="867,-569 703,-569 703,-528 867,-528 867,-569"/>
<text text-anchor="start" x="711" y="-557" font-family="Helvetica,sans-Serif" font-size="10.00">/home/runner/work/phaseField</text>
<text text-anchor="start" x="711" y="-546" font-family="Helvetica,sans-Serif" font-size="10.00">/phaseField/include/prismspf</text>
<text text-anchor="middle" x="785" y="-535" font-family="Helvetica,sans-Serif" font-size="10.00">/core/pde_operator_base.h</text>
</a>
</g>
</g>
<!-- Node5&#45;&gt;Node6 -->
<g id="edge5_Node000005_Node000006" class="edge">
<title>Node5&#45;&gt;Node6</title>
<g id="a_edge5_Node000005_Node000006"><a xlink:title=" ">
<path fill="none" stroke="#63b8ff" d="M1252.97,-610.22C1140.58,-595.64 968.63,-573.33 867.45,-560.2"/>
<polygon fill="#63b8ff" stroke="#63b8ff" points="1252.61,-613.71 1262.98,-611.52 1253.51,-606.76 1252.61,-613.71"/>
</a>
</g>
</g>
<!-- Node16 -->
<g id="Node000016" class="node">
<title>Node16</title>
<g id="a_Node000016"><a xlink:href="solve__context_8h.html" target="_top" xlink:title=" ">
<polygon fill="white" stroke="#666666" points="1147,-492 983,-492 983,-451 1147,-451 1147,-492"/>
<text text-anchor="start" x="991" y="-480" font-family="Helvetica,sans-Serif" font-size="10.00">/home/runner/work/phaseField</text>
<text text-anchor="start" x="991" y="-469" font-family="Helvetica,sans-Serif" font-size="10.00">/phaseField/include/prismspf</text>
<text text-anchor="middle" x="1065" y="-458" font-family="Helvetica,sans-Serif" font-size="10.00">/solvers/solve_context.h</text>
</a>
</g>
</g>
<!-- Node5&#45;&gt;Node16 -->
<g id="edge45_Node000005_Node000016" class="edge">
<title>Node5&#45;&gt;Node16</title>
<g id="a_edge45_Node000005_Node000016"><a xlink:title=" ">
<path fill="none" stroke="#63b8ff" d="M1315.59,-600.32C1256.88,-570.37 1158.02,-519.94 1103.67,-492.23"/>
<polygon fill="#63b8ff" stroke="#63b8ff" points="1314.15,-603.51 1324.65,-604.94 1317.33,-597.28 1314.15,-603.51"/>
</a>
</g>
</g>
<!-- Node18 -->
<g id="Node000018" class="node">
<title>Node18</title>
<g id="a_Node000018"><a xlink:href="solution__output_8h.html" target="_top" xlink:title=" ">
<polygon fill="white" stroke="#666666" points="1515,-415 1351,-415 1351,-374 1515,-374 1515,-415"/>
<text text-anchor="start" x="1359" y="-403" font-family="Helvetica,sans-Serif" font-size="10.00">/home/runner/work/phaseField</text>
<text text-anchor="start" x="1359" y="-392" font-family="Helvetica,sans-Serif" font-size="10.00">/phaseField/include/prismspf</text>
<text text-anchor="middle" x="1433" y="-381" font-family="Helvetica,sans-Serif" font-size="10.00">/core/solution_output.h</text>
</a>
</g>
</g>
<!-- Node5&#45;&gt;Node18 -->
<g id="edge43_Node000005_Node000018" class="edge">
<title>Node5&#45;&gt;Node18</title>
<g id="a_edge43_Node000005_Node000018"><a xlink:title=" ">
<path fill="none" stroke="#63b8ff" d="M1390.72,-597.16C1397.75,-588.77 1404.57,-579.07 1409,-569 1431.91,-516.96 1434.16,-448.37 1433.7,-415.18"/>
<polygon fill="#63b8ff" stroke="#63b8ff" points="1387.98,-594.97 1383.98,-604.78 1393.22,-599.61 1387.98,-594.97"/>
</a>
</g>
</g>
<!-- Node20 -->
<g id="Node000020" class="node">
<title>Node20</title>
<g id="a_Node000020"><a xlink:href="solver__base_8h.html" target="_top" xlink:title=" ">
<polygon fill="white" stroke="#666666" points="712,-415 548,-415 548,-374 712,-374 712,-415"/>
<text text-anchor="start" x="556" y="-403" font-family="Helvetica,sans-Serif" font-size="10.00">/home/runner/work/phaseField</text>
<text text-anchor="start" x="556" y="-392" font-family="Helvetica,sans-Serif" font-size="10.00">/phaseField/include/prismspf</text>
<text text-anchor="middle" x="630" y="-381" font-family="Helvetica,sans-Serif" font-size="10.00">/solvers/solver_base.h</text>
</a>
</g>
</g>
<!-- Node5&#45;&gt;Node20 -->
<g id="edge46_Node000005_Node000020" class="edge">
<title>Node5&#45;&gt;Node20</title>
<g id="a_edge46_Node000005_Node000020"><a xlink:title=" ">
<path fill="none" stroke="#63b8ff" d="M1252.69,-622.58C1089.77,-618.53 793.38,-606.15 694,-569 639.79,-548.74 615.16,-543.62 589,-492 580.76,-475.75 583.3,-468.31 589,-451 593.38,-437.69 602.32,-424.95 610.74,-415.04"/>
<polygon fill="#63b8ff" stroke="#63b8ff" points="1252.66,-626.08 1262.74,-622.83 1252.83,-619.08 1252.66,-626.08"/>
</a>
</g>
</g>
<!-- Node25 -->
<g id="Node000025" class="node">
<title>Node25</title>
<g id="a_Node000025"><a xlink:href="periodic__distance_8h.html" target="_top" xlink:title=" ">
<polygon fill="white" stroke="#666666" points="1367,-492 1203,-492 1203,-451 1367,-451 1367,-492"/>
<text text-anchor="start" x="1211" y="-480" font-family="Helvetica,sans-Serif" font-size="10.00">/home/runner/work/phaseField</text>
<text text-anchor="start" x="1211" y="-469" font-family="Helvetica,sans-Serif" font-size="10.00">/phaseField/include/prismspf</text>
<text text-anchor="middle" x="1285" y="-458" font-family="Helvetica,sans-Serif" font-size="10.00">/utilities/periodic_distance.h</text>
</a>
</g>
</g>
<!-- Node5&#45;&gt;Node25 -->
<g id="edge47_Node000005_Node000025" class="edge">
<title>Node5&#45;&gt;Node25</title>
<g id="a_edge47_Node000005_Node000025"><a xlink:title=" ">
<path fill="none" stroke="#63b8ff" d="M1348.25,-595.76C1332.76,-565.57 1308.79,-518.87 1295.25,-492.47"/>
<polygon fill="#63b8ff" stroke="#63b8ff" points="1345.28,-597.64 1352.96,-604.94 1351.51,-594.44 1345.28,-597.64"/>
</a>
</g>
</g>
<!-- Node26 -->
<g id="Node000026" class="node">
<title>Node26</title>
<g id="a_Node000026"><a xlink:href="constraint__manager_8cc.html" target="_top" xlink:title=" ">
<polygon fill="white" stroke="#666666" points="1626.5,-569 1461.5,-569 1461.5,-528 1626.5,-528 1626.5,-569"/>
<text text-anchor="start" x="1469.5" y="-557" font-family="Helvetica,sans-Serif" font-size="10.00">/home/runner/work/phaseField</text>
<text text-anchor="start" x="1469.5" y="-546" font-family="Helvetica,sans-Serif" font-size="10.00">/phaseField/src/core/constraint</text>
<text text-anchor="middle" x="1544" y="-535" font-family="Helvetica,sans-Serif" font-size="10.00">_manager.cc</text>
</a>
</g>
</g>
<!-- Node5&#45;&gt;Node26 -->
<g id="edge49_Node000005_Node000026" class="edge">
<title>Node5&#45;&gt;Node26</title>
<g id="a_edge49_Node000005_Node000026"><a xlink:title=" ">
<path fill="none" stroke="#63b8ff" d="M1419.4,-601.13C1444.26,-590.83 1473.14,-578.86 1496.84,-569.04"/>
<polygon fill="#63b8ff" stroke="#63b8ff" points="1417.98,-597.93 1410.08,-604.99 1420.66,-604.4 1417.98,-597.93"/>
</a>
</g>
</g>
<!-- Node27 -->
<g id="Node000027" class="node">
<title>Node27</title>
<g id="a_Node000027"><a xlink:href="user__input__parameters_8cc.html" target="_top" xlink:title=" ">
<polygon fill="white" stroke="#666666" points="1809,-569 1645,-569 1645,-528 1809,-528 1809,-569"/>
<text text-anchor="start" x="1653" y="-557" font-family="Helvetica,sans-Serif" font-size="10.00">/home/runner/work/phaseField</text>
<text text-anchor="start" x="1653" y="-546" font-family="Helvetica,sans-Serif" font-size="10.00">/phaseField/src/user_inputs</text>
<text text-anchor="middle" x="1727" y="-535" font-family="Helvetica,sans-Serif" font-size="10.00">/user_input_parameters.cc</text>
</a>
</g>
</g>
<!-- Node5&#45;&gt;Node27 -->
<g id="edge51_Node000005_Node000027" class="edge">
<title>Node5&#45;&gt;Node27</title>
<g id="a_edge51_Node000005_Node000027"><a xlink:title=" ">
<path fill="none" stroke="#63b8ff" d="M1470.26,-602.97C1520.6,-592.79 1581.41,-580.4 1636,-569 1638.85,-568.41 1641.74,-567.8 1644.67,-567.18"/>
<polygon fill="#63b8ff" stroke="#63b8ff" points="1469.45,-599.56 1460.34,-604.97 1470.84,-606.42 1469.45,-599.56"/>
</a>
</g>
</g>
<!-- Node7 -->
<g id="Node000007" class="node">
<title>Node7</title>
<g id="a_Node000007"><a xlink:href="mf__operator_8h.html" target="_top" xlink:title=" ">
<polygon fill="white" stroke="#666666" points="583,-338 419,-338 419,-297 583,-297 583,-338"/>
<text text-anchor="start" x="427" y="-326" font-family="Helvetica,sans-Serif" font-size="10.00">/home/runner/work/phaseField</text>
<text text-anchor="start" x="427" y="-315" font-family="Helvetica,sans-Serif" font-size="10.00">/phaseField/include/prismspf</text>
<text text-anchor="middle" x="501" y="-304" font-family="Helvetica,sans-Serif" font-size="10.00">/solvers/mf_operator.h</text>
</a>
</g>
</g>
<!-- Node6&#45;&gt;Node7 -->
<g id="edge6_Node000006_Node000007" class="edge">
<title>Node6&#45;&gt;Node7</title>
<g id="a_edge6_Node000006_Node000007"><a xlink:title=" ">
<path fill="none" stroke="#63b8ff" d="M693.09,-535.59C657.98,-527.6 619.18,-514.26 589,-492 536.67,-453.41 513.28,-374.75 504.9,-338.11"/>
<polygon fill="#63b8ff" stroke="#63b8ff" points="692.37,-539.01 702.88,-537.7 693.85,-532.17 692.37,-539.01"/>
</a>
</g>
</g>
<!-- Node6&#45;&gt;Node16 -->
<g id="edge20_Node000006_Node000016" class="edge">
<title>Node6&#45;&gt;Node16</title>
<g id="a_edge20_Node000006_Node000016"><a xlink:title=" ">
<path fill="none" stroke="#63b8ff" d="M867.7,-525.35C907.15,-514.78 953.93,-502.25 992.04,-492.04"/>
<polygon fill="#63b8ff" stroke="#63b8ff" points="866.59,-522.02 857.84,-527.99 868.4,-528.78 866.59,-522.02"/>
</a>
</g>
</g>
<!-- Node6&#45;&gt;Node20 -->
<g id="edge40_Node000006_Node000020" class="edge">
<title>Node6&#45;&gt;Node20</title>
<g id="a_edge40_Node000006_Node000020"><a xlink:title=" ">
<path fill="none" stroke="#63b8ff" d="M692.93,-530.57C652.68,-521.11 611.9,-508 600,-492 582.93,-469.06 599.76,-436.21 614.24,-415.37"/>
<polygon fill="#63b8ff" stroke="#63b8ff" points="692.34,-534.02 702.86,-532.83 693.89,-527.2 692.34,-534.02"/>
</a>
</g>
</g>
<!-- Node23 -->
<g id="Node000023" class="node">
<title>Node23</title>
<g id="a_Node000023"><a xlink:href="initial__conditions_8cc.html" target="_top" xlink:title=" ">
<polygon fill="white" stroke="#666666" points="773,-492 609,-492 609,-451 773,-451 773,-492"/>
<text text-anchor="start" x="617" y="-480" font-family="Helvetica,sans-Serif" font-size="10.00">/home/runner/work/phaseField</text>
<text text-anchor="start" x="617" y="-469" font-family="Helvetica,sans-Serif" font-size="10.00">/phaseField/src/core/initial</text>
<text text-anchor="middle" x="691" y="-458" font-family="Helvetica,sans-Serif" font-size="10.00">_conditions.cc</text>
</a>
</g>
</g>
<!-- Node6&#45;&gt;Node23 -->
<g id="edge41_Node000006_Node000023" class="edge">
<title>Node6&#45;&gt;Node23</title>
<g id="a_edge41_Node000006_Node000023"><a xlink:title=" ">
<path fill="none" stroke="#63b8ff" d="M752.22,-521.35C740.17,-511.73 726.74,-501.01 715.53,-492.07"/>
<polygon fill="#63b8ff" stroke="#63b8ff" points="750.3,-524.29 760.3,-527.79 754.67,-518.82 750.3,-524.29"/>
</a>
</g>
</g>
<!-- Node24 -->
<g id="Node000024" class="node">
<title>Node24</title>
<g id="a_Node000024"><a xlink:href="nonuniform__dirichlet_8cc.html" target="_top" xlink:title=" ">
<polygon fill="white" stroke="#666666" points="964.5,-492 791.5,-492 791.5,-451 964.5,-451 964.5,-492"/>
<text text-anchor="start" x="799.5" y="-480" font-family="Helvetica,sans-Serif" font-size="10.00">/home/runner/work/phaseField</text>
<text text-anchor="start" x="799.5" y="-469" font-family="Helvetica,sans-Serif" font-size="10.00">/phaseField/src/core/nonuniform</text>
<text text-anchor="middle" x="878" y="-458" font-family="Helvetica,sans-Serif" font-size="10.00">_dirichlet.cc</text>
</a>
</g>
</g>
<!-- Node6&#45;&gt;Node24 -->
<g id="edge42_Node000006_Node000024" class="edge">
<title>Node6&#45;&gt;Node24</title>
<g id="a_edge42_Node000006_Node000024"><a xlink:title=" ">
<path fill="none" stroke="#63b8ff" d="M817.43,-521.35C829.35,-511.73 842.64,-501.01 853.73,-492.07"/>
<polygon fill="#63b8ff" stroke="#63b8ff" points="815.02,-518.79 809.43,-527.79 819.42,-524.24 815.02,-518.79"/>
</a>
</g>
</g>
<!-- Node8 -->
<g id="Node000008" class="node">
<title>Node8</title>
<g id="a_Node000008"><a xlink:href="explicit__solver_8h.html" target="_top" xlink:title=" ">
<polygon fill="white" stroke="#666666" points="879,-261 715,-261 715,-220 879,-220 879,-261"/>
<text text-anchor="start" x="723" y="-249" font-family="Helvetica,sans-Serif" font-size="10.00">/home/runner/work/phaseField</text>
<text text-anchor="start" x="723" y="-238" font-family="Helvetica,sans-Serif" font-size="10.00">/phaseField/include/prismspf</text>
<text text-anchor="middle" x="797" y="-227" font-family="Helvetica,sans-Serif" font-size="10.00">/solvers/explicit_solver.h</text>
</a>
</g>
</g>
<!-- Node7&#45;&gt;Node8 -->
<g id="edge7_Node000007_Node000008" class="edge">
<title>Node7&#45;&gt;Node8</title>
<g id="a_edge7_Node000007_Node000008"><a xlink:title=" ">
<path fill="none" stroke="#63b8ff" d="M587.89,-294.48C629.71,-283.89 679.42,-271.29 719.87,-261.04"/>
<polygon fill="#63b8ff" stroke="#63b8ff" points="586.83,-291.14 578,-296.99 588.55,-297.93 586.83,-291.14"/>
</a>
</g>
</g>
<!-- Node11 -->
<g id="Node000011" class="node">
<title>Node11</title>
<g id="a_Node000011"><a xlink:href="linear__helper_8h.html" target="_top" xlink:title=" ">
<polygon fill="white" stroke="#666666" points="219,-261 55,-261 55,-220 219,-220 219,-261"/>
<text text-anchor="start" x="63" y="-249" font-family="Helvetica,sans-Serif" font-size="10.00">/home/runner/work/phaseField</text>
<text text-anchor="start" x="63" y="-238" font-family="Helvetica,sans-Serif" font-size="10.00">/phaseField/include/prismspf</text>
<text text-anchor="middle" x="137" y="-227" font-family="Helvetica,sans-Serif" font-size="10.00">/solvers/linear_helper.h</text>
</a>
</g>
</g>
<!-- Node7&#45;&gt;Node11 -->
<g id="edge11_Node000007_Node000011" class="edge">
<title>Node7&#45;&gt;Node11</title>
<g id="a_edge11_Node000007_Node000011"><a xlink:title=" ">
<path fill="none" stroke="#63b8ff" d="M408.89,-297.52C350.47,-285.48 275.55,-270.05 219.16,-258.43"/>
<polygon fill="#63b8ff" stroke="#63b8ff" points="408.36,-300.98 418.86,-299.58 409.77,-294.13 408.36,-300.98"/>
</a>
</g>
</g>
<!-- Node12 -->
<g id="Node000012" class="node">
<title>Node12</title>
<g id="a_Node000012"><a xlink:href="linear__solver_8h.html" target="_top" xlink:title=" ">
<polygon fill="white" stroke="#666666" points="621,-261 457,-261 457,-220 621,-220 621,-261"/>
<text text-anchor="start" x="465" y="-249" font-family="Helvetica,sans-Serif" font-size="10.00">/home/runner/work/phaseField</text>
<text text-anchor="start" x="465" y="-238" font-family="Helvetica,sans-Serif" font-size="10.00">/phaseField/include/prismspf</text>
<text text-anchor="middle" x="539" y="-227" font-family="Helvetica,sans-Serif" font-size="10.00">/solvers/linear_solver.h</text>
</a>
</g>
</g>
<!-- Node7&#45;&gt;Node12 -->
<g id="edge12_Node000007_Node000012" class="edge">
<title>Node7&#45;&gt;Node12</title>
<g id="a_edge12_Node000007_Node000012"><a xlink:title=" ">
<path fill="none" stroke="#63b8ff" d="M515.53,-287.83C520.06,-278.89 524.95,-269.24 529.08,-261.07"/>
<polygon fill="#63b8ff" stroke="#63b8ff" points="512.38,-286.29 510.98,-296.79 518.63,-289.46 512.38,-286.29"/>
</a>
</g>
</g>
<!-- Node13 -->
<g id="Node000013" class="node">
<title>Node13</title>
<g id="a_Node000013"><a xlink:href="mg__solver_8h.html" target="_top" xlink:title=" ">
<polygon fill="white" stroke="#666666" points="456,-184 292,-184 292,-143 456,-143 456,-184"/>
<text text-anchor="start" x="300" y="-172" font-family="Helvetica,sans-Serif" font-size="10.00">/home/runner/work/phaseField</text>
<text text-anchor="start" x="300" y="-161" font-family="Helvetica,sans-Serif" font-size="10.00">/phaseField/include/prismspf</text>
<text text-anchor="middle" x="374" y="-150" font-family="Helvetica,sans-Serif" font-size="10.00">/solvers/mg_solver.h</text>
</a>
</g>
</g>
<!-- Node7&#45;&gt;Node13 -->
<g id="edge17_Node000007_Node000013" class="edge">
<title>Node7&#45;&gt;Node13</title>
<g id="a_edge17_Node000007_Node000013"><a xlink:title=" ">
<path fill="none" stroke="#63b8ff" d="M409,-306.5C351.08,-298.09 283.98,-283.72 266,-261 254.69,-246.71 256.51,-235.55 266,-220 275.78,-203.99 291.81,-192.4 308.56,-184.1"/>
<polygon fill="#63b8ff" stroke="#63b8ff" points="408.56,-309.97 418.95,-307.9 409.53,-303.04 408.56,-309.97"/>
</a>
</g>
</g>
<!-- Node14 -->
<g id="Node000014" class="node">
<title>Node14</title>
<g id="a_Node000014"><a xlink:href="newton__solver_8h.html" target="_top" xlink:title=" ">
<polygon fill="white" stroke="#666666" points="731,-184 567,-184 567,-143 731,-143 731,-184"/>
<text text-anchor="start" x="575" y="-172" font-family="Helvetica,sans-Serif" font-size="10.00">/home/runner/work/phaseField</text>
<text text-anchor="start" x="575" y="-161" font-family="Helvetica,sans-Serif" font-size="10.00">/phaseField/include/prismspf</text>
<text text-anchor="middle" x="649" y="-150" font-family="Helvetica,sans-Serif" font-size="10.00">/solvers/newton_solver.h</text>
</a>
</g>
</g>
<!-- Node7&#45;&gt;Node14 -->
<g id="edge18_Node000007_Node000014" class="edge">
<title>Node7&#45;&gt;Node14</title>
<g id="a_edge18_Node000007_Node000014"><a xlink:title=" ">
<path fill="none" stroke="#63b8ff" d="M588.66,-292.55C604.33,-284.75 619.11,-274.48 630,-261 647.7,-239.08 650.48,-205.33 650.22,-184.1"/>
<polygon fill="#63b8ff" stroke="#63b8ff" points="586.95,-289.49 579.35,-296.87 589.89,-295.84 586.95,-289.49"/>
</a>
</g>
</g>
<!-- Node15 -->
<g id="Node000015" class="node">
<title>Node15</title>
<g id="a_Node000015"><a xlink:href="mf__operator_8cc.html" target="_top" xlink:title=" ">
<polygon fill="white" stroke="#666666" points="439,-261 275,-261 275,-220 439,-220 439,-261"/>
<text text-anchor="start" x="283" y="-249" font-family="Helvetica,sans-Serif" font-size="10.00">/home/runner/work/phaseField</text>
<text text-anchor="start" x="283" y="-238" font-family="Helvetica,sans-Serif" font-size="10.00">/phaseField/src/solvers/mf</text>
<text text-anchor="middle" x="357" y="-227" font-family="Helvetica,sans-Serif" font-size="10.00">_operator.cc</text>
</a>
</g>
</g>
<!-- Node7&#45;&gt;Node15 -->
<g id="edge19_Node000007_Node000015" class="edge">
<title>Node7&#45;&gt;Node15</title>
<g id="a_edge19_Node000007_Node000015"><a xlink:title=" ">
<path fill="none" stroke="#63b8ff" d="M454.56,-292.31C435.14,-282.2 412.87,-270.6 394.52,-261.04"/>
<polygon fill="#63b8ff" stroke="#63b8ff" points="453.06,-295.48 463.54,-296.99 456.29,-289.27 453.06,-295.48"/>
</a>
</g>
</g>
<!-- Node9 -->
<g id="Node000009" class="node">
<title>Node9</title>
<g id="a_Node000009"><a xlink:href="solvers_8h.html" target="_top" xlink:title=" ">
<polygon fill="white" stroke="#666666" points="731,-107 567,-107 567,-66 731,-66 731,-107"/>
<text text-anchor="start" x="575" y="-95" font-family="Helvetica,sans-Serif" font-size="10.00">/home/runner/work/phaseField</text>
<text text-anchor="start" x="575" y="-84" font-family="Helvetica,sans-Serif" font-size="10.00">/phaseField/include/prismspf</text>
<text text-anchor="middle" x="649" y="-73" font-family="Helvetica,sans-Serif" font-size="10.00">/solvers/solvers.h</text>
</a>
</g>
</g>
<!-- Node8&#45;&gt;Node9 -->
<g id="edge8_Node000008_Node000009" class="edge">
<title>Node8&#45;&gt;Node9</title>
<g id="a_edge8_Node000008_Node000009"><a xlink:title=" ">
<path fill="none" stroke="#63b8ff" d="M784.61,-210.66C774.72,-190.05 759.34,-162.62 740,-143 725.84,-128.64 707.24,-116.44 690.55,-107.18"/>
<polygon fill="#63b8ff" stroke="#63b8ff" points="781.5,-212.28 788.89,-219.87 787.85,-209.33 781.5,-212.28"/>
</a>
</g>
</g>
<!-- Node9&#45;&gt;Node4 -->
<g id="edge9_Node000009_Node000004" class="edge">
<title>Node9&#45;&gt;Node4</title>
<g id="a_edge9_Node000009_Node000004"><a xlink:title=" ">
<path fill="none" stroke="#63b8ff" d="M741.29,-72.08C828.22,-59.44 957.38,-40.66 1041.88,-28.38"/>
<polygon fill="#63b8ff" stroke="#63b8ff" points="740.56,-68.65 731.17,-73.55 741.57,-75.58 740.56,-68.65"/>
</a>
</g>
</g>
<!-- Node10 -->
<g id="Node000010" class="node">
<title>Node10</title>
<g id="a_Node000010"><a xlink:href="solvers_8cc.html" target="_top" xlink:title=" ">
<polygon fill="white" stroke="#666666" points="738.5,-30 559.5,-30 559.5,0 738.5,0 738.5,-30"/>
<text text-anchor="start" x="567.5" y="-18" font-family="Helvetica,sans-Serif" font-size="10.00">/home/runner/work/phaseField</text>
<text text-anchor="middle" x="649" y="-7" font-family="Helvetica,sans-Serif" font-size="10.00">/phaseField/src/solvers/solvers.cc</text>
</a>
</g>
</g>
<!-- Node9&#45;&gt;Node10 -->
<g id="edge10_Node000009_Node000010" class="edge">
<title>Node9&#45;&gt;Node10</title>
<g id="a_edge10_Node000009_Node000010"><a xlink:title=" ">
<path fill="none" stroke="#63b8ff" d="M649,-55.66C649,-46.76 649,-37.42 649,-30.04"/>
<polygon fill="#63b8ff" stroke="#63b8ff" points="645.5,-55.77 649,-65.77 652.5,-55.77 645.5,-55.77"/>
</a>
</g>
</g>
<!-- Node12&#45;&gt;Node9 -->
<g id="edge16_Node000012_Node000009" class="edge">
<title>Node12&#45;&gt;Node9</title>
<g id="a_edge16_Node000012_Node000009"><a xlink:title=" ">
<path fill="none" stroke="#63b8ff" d="M538.76,-209.94C539.95,-189.5 544.36,-162.56 558,-143 568.69,-127.67 585.11,-115.79 601.07,-107.04"/>
<polygon fill="#63b8ff" stroke="#63b8ff" points="535.26,-209.85 538.39,-219.97 542.25,-210.1 535.26,-209.85"/>
</a>
</g>
</g>
<!-- Node12&#45;&gt;Node13 -->
<g id="edge13_Node000012_Node000013" class="edge">
<title>Node12&#45;&gt;Node13</title>
<g id="a_edge13_Node000012_Node000013"><a xlink:title=" ">
<path fill="none" stroke="#63b8ff" d="M486.69,-215.72C464.23,-205.51 438.31,-193.73 416.99,-184.04"/>
<polygon fill="#63b8ff" stroke="#63b8ff" points="485.53,-219.04 496.08,-219.99 488.42,-212.67 485.53,-219.04"/>
</a>
</g>
</g>
<!-- Node12&#45;&gt;Node14 -->
<g id="edge14_Node000012_Node000014" class="edge">
<title>Node12&#45;&gt;Node14</title>
<g id="a_edge14_Node000012_Node000014"><a xlink:title=" ">
<path fill="none" stroke="#63b8ff" d="M576.26,-214.09C590.6,-204.32 606.72,-193.32 620.15,-184.17"/>
<polygon fill="#63b8ff" stroke="#63b8ff" points="573.9,-211.47 567.61,-219.99 577.85,-217.25 573.9,-211.47"/>
</a>
</g>
</g>
<!-- Node14&#45;&gt;Node9 -->
<g id="edge15_Node000014_Node000009" class="edge">
<title>Node14&#45;&gt;Node9</title>
<g id="a_edge15_Node000014_Node000009"><a xlink:title=" ">
<path fill="none" stroke="#63b8ff" d="M649,-132.69C649,-124.08 649,-114.9 649,-107.07"/>
<polygon fill="#63b8ff" stroke="#63b8ff" points="645.5,-132.79 649,-142.79 652.5,-132.79 645.5,-132.79"/>
</a>
</g>
</g>
<!-- Node16&#45;&gt;Node2 -->
<g id="edge28_Node000016_Node000002" class="edge">
<title>Node16&#45;&gt;Node2</title>
<g id="a_edge28_Node000016_Node000002"><a xlink:title=" ">
<path fill="none" stroke="#63b8ff" d="M1120.47,-447C1144.71,-436.72 1172.81,-424.82 1195.88,-415.04"/>
<polygon fill="#63b8ff" stroke="#63b8ff" points="1118.88,-443.87 1111.04,-450.99 1121.62,-450.31 1118.88,-443.87"/>
</a>
</g>
</g>
<!-- Node16&#45;&gt;Node3 -->
<g id="edge21_Node000016_Node000003" class="edge">
<title>Node16&#45;&gt;Node3</title>
<g id="a_edge21_Node000016_Node000003"><a xlink:title=" ">
<path fill="none" stroke="#63b8ff" d="M1075.53,-441.48C1084.93,-414.83 1098.62,-374.12 1108,-338 1114.82,-311.72 1120.5,-280.86 1123.82,-261.25"/>
<polygon fill="#63b8ff" stroke="#63b8ff" points="1072.21,-440.37 1072.15,-450.96 1078.8,-442.71 1072.21,-440.37"/>
</a>
</g>
</g>
<!-- Node17 -->
<g id="Node000017" class="node">
<title>Node17</title>
<g id="a_Node000017"><a xlink:href="refinement__manager_8h.html" target="_top" xlink:title=" ">
<polygon fill="white" stroke="#666666" points="1099,-338 935,-338 935,-297 1099,-297 1099,-338"/>
<text text-anchor="start" x="943" y="-326" font-family="Helvetica,sans-Serif" font-size="10.00">/home/runner/work/phaseField</text>
<text text-anchor="start" x="943" y="-315" font-family="Helvetica,sans-Serif" font-size="10.00">/phaseField/include/prismspf</text>
<text text-anchor="middle" x="1017" y="-304" font-family="Helvetica,sans-Serif" font-size="10.00">/core/refinement_manager.h</text>
</a>
</g>
</g>
<!-- Node16&#45;&gt;Node17 -->
<g id="edge22_Node000016_Node000017" class="edge">
<title>Node16&#45;&gt;Node17</title>
<g id="a_edge22_Node000016_Node000017"><a xlink:title=" ">
<path fill="none" stroke="#63b8ff" d="M1055.8,-441.37C1046.26,-411.16 1031.61,-364.76 1023.31,-338.47"/>
<polygon fill="#63b8ff" stroke="#63b8ff" points="1052.47,-442.46 1058.82,-450.94 1059.15,-440.35 1052.47,-442.46"/>
</a>
</g>
</g>
<!-- Node16&#45;&gt;Node18 -->
<g id="edge24_Node000016_Node000018" class="edge">
<title>Node16&#45;&gt;Node18</title>
<g id="a_edge24_Node000016_Node000018"><a xlink:title=" ">
<path fill="none" stroke="#63b8ff" d="M1157.06,-452.37C1210.99,-441.68 1280.4,-427.77 1342,-415 1344.85,-414.41 1347.74,-413.81 1350.67,-413.19"/>
<polygon fill="#63b8ff" stroke="#63b8ff" points="1156.3,-448.96 1147.18,-454.33 1157.66,-455.82 1156.3,-448.96"/>
</a>
</g>
</g>
<!-- Node16&#45;&gt;Node20 -->
<g id="edge29_Node000016_Node000020" class="edge">
<title>Node16&#45;&gt;Node20</title>
<g id="a_edge29_Node000016_Node000020"><a xlink:title=" ">
<path fill="none" stroke="#63b8ff" d="M972.66,-450.98C877.25,-433.32 779.54,-417.88 712.32,-407.67"/>
<polygon fill="#63b8ff" stroke="#63b8ff" points="972.31,-454.48 982.78,-452.87 973.59,-447.6 972.31,-454.48"/>
</a>
</g>
</g>
<!-- Node17&#45;&gt;Node3 -->
<g id="edge23_Node000017_Node000003" class="edge">
<title>Node17&#45;&gt;Node3</title>
<g id="a_edge23_Node000017_Node000003"><a xlink:title=" ">
<path fill="none" stroke="#63b8ff" d="M1054.26,-291.09C1068.6,-281.32 1084.72,-270.32 1098.15,-261.17"/>
<polygon fill="#63b8ff" stroke="#63b8ff" points="1051.9,-288.47 1045.61,-296.99 1055.85,-294.25 1051.9,-288.47"/>
</a>
</g>
</g>
<!-- Node18&#45;&gt;Node4 -->
<g id="edge26_Node000018_Node000004" class="edge">
<title>Node18&#45;&gt;Node4</title>
<g id="a_edge26_Node000018_Node000004"><a xlink:title=" ">
<path fill="none" stroke="#63b8ff" d="M1382.81,-368.86C1339.2,-343.52 1283,-299.6 1283,-241.5 1283,-241.5 1283,-241.5 1283,-162.5 1283,-96.37 1207.58,-51.37 1161.62,-30.09"/>
<polygon fill="#63b8ff" stroke="#63b8ff" points="1381.19,-371.96 1391.61,-373.83 1384.63,-365.87 1381.19,-371.96"/>
</a>
</g>
</g>
<!-- Node18&#45;&gt;Node18 -->
<g id="edge25_Node000018_Node000018" class="edge">
<title>Node18&#45;&gt;Node18</title>
<g id="a_edge25_Node000018_Node000018"><a xlink:title=" ">
<path fill="none" stroke="#63b8ff" d="M1525.27,-403.88C1530.12,-401.57 1533,-398.45 1533,-394.5 1533,-388.34 1525.99,-384.18 1515.38,-382.01"/>
<polygon fill="#63b8ff" stroke="#63b8ff" points="1523.87,-400.65 1515.38,-406.99 1525.97,-407.33 1523.87,-400.65"/>
</a>
</g>
</g>
<!-- Node19 -->
<g id="Node000019" class="node">
<title>Node19</title>
<g id="a_Node000019"><a xlink:href="solution__output_8cc.html" target="_top" xlink:title=" ">
<polygon fill="white" stroke="#666666" points="1515,-338 1351,-338 1351,-297 1515,-297 1515,-338"/>
<text text-anchor="start" x="1359" y="-326" font-family="Helvetica,sans-Serif" font-size="10.00">/home/runner/work/phaseField</text>
<text text-anchor="start" x="1359" y="-315" font-family="Helvetica,sans-Serif" font-size="10.00">/phaseField/src/core/solution</text>
<text text-anchor="middle" x="1433" y="-304" font-family="Helvetica,sans-Serif" font-size="10.00">_output.cc</text>
</a>
</g>
</g>
<!-- Node18&#45;&gt;Node19 -->
<g id="edge27_Node000018_Node000019" class="edge">
<title>Node18&#45;&gt;Node19</title>
<g id="a_edge27_Node000018_Node000019"><a xlink:title=" ">
<path fill="none" stroke="#63b8ff" d="M1433,-363.69C1433,-355.08 1433,-345.9 1433,-338.07"/>
<polygon fill="#63b8ff" stroke="#63b8ff" points="1429.5,-363.79 1433,-373.79 1436.5,-363.79 1429.5,-363.79"/>
</a>
</g>
</g>
<!-- Node20&#45;&gt;Node4 -->
<g id="edge38_Node000020_Node000004" class="edge">
<title>Node20&#45;&gt;Node4</title>
<g id="a_edge38_Node000020_Node000004"><a xlink:title=" ">
<path fill="none" stroke="#63b8ff" d="M722.42,-380.88C779.52,-371.42 845.95,-356.87 868,-338 903.14,-307.92 907,-287.76 907,-241.5 907,-241.5 907,-241.5 907,-162.5 907,-87.24 997.29,-48.29 1062.18,-30"/>
<polygon fill="#63b8ff" stroke="#63b8ff" points="721.56,-377.47 712.25,-382.53 722.68,-384.38 721.56,-377.47"/>
</a>
</g>
</g>
<!-- Node20&#45;&gt;Node7 -->
<g id="edge36_Node000020_Node000007" class="edge">
<title>Node20&#45;&gt;Node7</title>
<g id="a_edge36_Node000020_Node000007"><a xlink:title=" ">
<path fill="none" stroke="#63b8ff" d="M587.72,-368.92C570.57,-358.95 551.02,-347.58 534.84,-338.17"/>
<polygon fill="#63b8ff" stroke="#63b8ff" points="586.04,-371.99 596.44,-373.99 589.56,-365.94 586.04,-371.99"/>
</a>
</g>
</g>
<!-- Node20&#45;&gt;Node8 -->
<g id="edge33_Node000020_Node000008" class="edge">
<title>Node20&#45;&gt;Node8</title>
<g id="a_edge33_Node000020_Node000008"><a xlink:title=" ">
<path fill="none" stroke="#63b8ff" d="M722.21,-381.72C775,-372.87 833.88,-358.69 850,-338 869.03,-313.57 842.75,-281.42 820.89,-261.1"/>
<polygon fill="#63b8ff" stroke="#63b8ff" points="721.4,-378.31 712.09,-383.36 722.52,-385.21 721.4,-378.31"/>
</a>
</g>
</g>
<!-- Node20&#45;&gt;Node11 -->
<g id="edge34_Node000020_Node000011" class="edge">
<title>Node20&#45;&gt;Node11</title>
<g id="a_edge34_Node000020_Node000011"><a xlink:title=" ">
<path fill="none" stroke="#63b8ff" d="M537.85,-372.27C498.26,-362.63 451.63,-350.58 410,-338 331.56,-314.3 242.33,-281.66 187.85,-261.07"/>
<polygon fill="#63b8ff" stroke="#63b8ff" points="537.21,-375.71 547.75,-374.67 538.86,-368.91 537.21,-375.71"/>
</a>
</g>
</g>
<!-- Node20&#45;&gt;Node12 -->
<g id="edge35_Node000020_Node000012" class="edge">
<title>Node20&#45;&gt;Node12</title>
<g id="a_edge35_Node000020_Node000012"><a xlink:title=" ">
<path fill="none" stroke="#63b8ff" d="M621.75,-364.22C615.37,-344.32 605.38,-317.93 592,-297 583.6,-283.87 571.81,-271.14 561.48,-261.2"/>
<polygon fill="#63b8ff" stroke="#63b8ff" points="618.46,-365.44 624.75,-373.96 625.15,-363.38 618.46,-365.44"/>
</a>
</g>
</g>
<!-- Node20&#45;&gt;Node14 -->
<g id="edge37_Node000020_Node000014" class="edge">
<title>Node20&#45;&gt;Node14</title>
<g id="a_edge37_Node000020_Node000014"><a xlink:title=" ">
<path fill="none" stroke="#63b8ff" d="M636.62,-364.01C642.26,-337.29 649.92,-296.73 653,-261 654.56,-242.85 653.66,-238.21 653,-220 652.57,-208.03 651.62,-194.63 650.75,-184"/>
<polygon fill="#63b8ff" stroke="#63b8ff" points="633.18,-363.37 634.49,-373.88 640.02,-364.84 633.18,-363.37"/>
</a>
</g>
</g>
<!-- Node20&#45;&gt;Node17 -->
<g id="edge30_Node000020_Node000017" class="edge">
<title>Node20&#45;&gt;Node17</title>
<g id="a_edge30_Node000020_Node000017"><a xlink:title=" ">
<path fill="none" stroke="#63b8ff" d="M722.32,-376.18C779.56,-365.38 854.59,-351.08 921,-338 925.51,-337.11 930.13,-336.2 934.79,-335.27"/>
<polygon fill="#63b8ff" stroke="#63b8ff" points="721.39,-372.8 712.21,-378.09 722.68,-379.68 721.39,-372.8"/>
</a>
</g>
</g>
<!-- Node21 -->
<g id="Node000021" class="node">
<title>Node21</title>
<g id="a_Node000021"><a xlink:href="constant__solver_8h.html" target="_top" xlink:title=" ">
<polygon fill="white" stroke="#666666" points="164,-184 0,-184 0,-143 164,-143 164,-184"/>
<text text-anchor="start" x="8" y="-172" font-family="Helvetica,sans-Serif" font-size="10.00">/home/runner/work/phaseField</text>
<text text-anchor="start" x="8" y="-161" font-family="Helvetica,sans-Serif" font-size="10.00">/phaseField/include/prismspf</text>
<text text-anchor="middle" x="82" y="-150" font-family="Helvetica,sans-Serif" font-size="10.00">/solvers/constant_solver.h</text>
</a>
</g>
</g>
<!-- Node20&#45;&gt;Node21 -->
<g id="edge31_Node000020_Node000021" class="edge">
<title>Node20&#45;&gt;Node21</title>
<g id="a_edge31_Node000020_Node000021"><a xlink:title=" ">
<path fill="none" stroke="#63b8ff" d="M537.67,-386.89C387.98,-373.97 103.23,-339.47 46,-261 28.82,-237.45 48.12,-204.77 64.4,-184.13"/>
<polygon fill="#63b8ff" stroke="#63b8ff" points="537.51,-390.39 547.77,-387.75 538.11,-383.42 537.51,-390.39"/>
</a>
</g>
</g>
<!-- Node22 -->
<g id="Node000022" class="node">
<title>Node22</title>
<g id="a_Node000022"><a xlink:href="solver__base_8cc.html" target="_top" xlink:title=" ">
<polygon fill="white" stroke="#666666" points="841,-338 677,-338 677,-297 841,-297 841,-338"/>
<text text-anchor="start" x="685" y="-326" font-family="Helvetica,sans-Serif" font-size="10.00">/home/runner/work/phaseField</text>
<text text-anchor="start" x="685" y="-315" font-family="Helvetica,sans-Serif" font-size="10.00">/phaseField/src/solvers/solver</text>
<text text-anchor="middle" x="759" y="-304" font-family="Helvetica,sans-Serif" font-size="10.00">_base.cc</text>
</a>
</g>
</g>
<!-- Node20&#45;&gt;Node22 -->
<g id="edge39_Node000020_Node000022" class="edge">
<title>Node20&#45;&gt;Node22</title>
<g id="a_edge39_Node000020_Node000022"><a xlink:title=" ">
<path fill="none" stroke="#63b8ff" d="M672.28,-368.92C689.43,-358.95 708.98,-347.58 725.16,-338.17"/>
<polygon fill="#63b8ff" stroke="#63b8ff" points="670.44,-365.94 663.56,-373.99 673.96,-371.99 670.44,-365.94"/>
</a>
</g>
</g>
<!-- Node21&#45;&gt;Node9 -->
<g id="edge32_Node000021_Node000009" class="edge">
<title>Node21&#45;&gt;Node9</title>
<g id="a_edge32_Node000021_Node000009"><a xlink:title=" ">
<path fill="none" stroke="#63b8ff" d="M174.13,-150.31C283,-135.91 462.49,-112.17 566.82,-98.37"/>
<polygon fill="#63b8ff" stroke="#63b8ff" points="173.6,-146.85 164.14,-151.63 174.52,-153.79 173.6,-146.85"/>
</a>
</g>
</g>
<!-- Node25&#45;&gt;Node2 -->
<g id="edge48_Node000025_Node000002" class="edge">
<title>Node25&#45;&gt;Node2</title>
<g id="a_edge48_Node000025_Node000002"><a xlink:title=" ">
<path fill="none" stroke="#63b8ff" d="M1268.72,-442.11C1263.55,-433.09 1257.95,-423.33 1253.22,-415.07"/>
<polygon fill="#63b8ff" stroke="#63b8ff" points="1265.69,-443.86 1273.7,-450.79 1271.76,-440.38 1265.69,-443.86"/>
</a>
</g>
</g>
</g>
</svg>
