<?xml version="1.0" encoding="UTF-8" standalone="no"?>
<!DOCTYPE svg PUBLIC "-//W3C//DTD SVG 1.1//EN"
 "http://www.w3.org/Graphics/SVG/1.1/DTD/svg11.dtd">
<!-- Generated by graphviz version 12.2.1 (20241206.2353)
 -->
<!-- Title: include/prismspf/user_inputs/miscellaneous_parameters.h Pages: 1 -->
<svg width="1544pt" height="667pt"
 viewBox="0.00 0.00 1543.52 667.00" xmlns="http://www.w3.org/2000/svg" xmlns:xlink="http://www.w3.org/1999/xlink">
<g id="graph0" class="graph" transform="scale(1 1) rotate(0) translate(4 663)">
<title>include/prismspf/user_inputs/miscellaneous_parameters.h</title>
<!-- Node1 -->
<g id="Node000001" class="node">
<title>Node1</title>
<g id="a_Node000001"><a xlink:title=" ">
<polygon fill="#999999" stroke="#666666" points="1159.54,-659 1034.79,-659 1034.79,-612.75 1159.54,-612.75 1159.54,-659"/>
<text text-anchor="start" x="1042.79" y="-645.5" font-family="Helvetica,sans-Serif" font-size="10.00">include/prismspf/user</text>
<text text-anchor="start" x="1042.79" y="-632.75" font-family="Helvetica,sans-Serif" font-size="10.00">_inputs/miscellaneous</text>
<text text-anchor="middle" x="1097.16" y="-620" font-family="Helvetica,sans-Serif" font-size="10.00">_parameters.h</text>
</a>
</g>
</g>
<!-- Node2 -->
<g id="Node000002" class="node">
<title>Node2</title>
<g id="a_Node000002"><a xlink:href="nucleation__manager_8h.html" target="_top" xlink:title=" ">
<polygon fill="white" stroke="#666666" points="1128.66,-368.25 977.66,-368.25 977.66,-334.75 1128.66,-334.75 1128.66,-368.25"/>
<text text-anchor="start" x="985.66" y="-354.75" font-family="Helvetica,sans-Serif" font-size="10.00">include/prismspf/nucleation</text>
<text text-anchor="middle" x="1053.16" y="-342" font-family="Helvetica,sans-Serif" font-size="10.00">/nucleation_manager.h</text>
</a>
</g>
</g>
<!-- Node1&#45;&gt;Node2 -->
<g id="edge1_Node000001_Node000002" class="edge">
<title>Node1&#45;&gt;Node2</title>
<g id="a_edge1_Node000001_Node000002"><a xlink:title=" ">
<path fill="none" stroke="#63b8ff" d="M1079.65,-602.41C1060.25,-564.28 1030.36,-498.53 1020.16,-437.75 1017.7,-423.07 1015.99,-418.54 1020.16,-404.25 1023.98,-391.16 1032.23,-378.22 1039.53,-368.55"/>
<polygon fill="#63b8ff" stroke="#63b8ff" points="1076.42,-603.78 1084.12,-611.05 1082.64,-600.56 1076.42,-603.78"/>
</a>
</g>
</g>
<!-- Node5 -->
<g id="Node000005" class="node">
<title>Node5</title>
<g id="a_Node000005"><a xlink:href="user__input__parameters_8h.html" target="_top" xlink:title=" ">
<polygon fill="white" stroke="#666666" points="1253.04,-576.75 1077.29,-576.75 1077.29,-543.25 1253.04,-543.25 1253.04,-576.75"/>
<text text-anchor="start" x="1085.29" y="-563.25" font-family="Helvetica,sans-Serif" font-size="10.00">include/prismspf/user</text>
<text text-anchor="middle" x="1165.16" y="-550.5" font-family="Helvetica,sans-Serif" font-size="10.00">_inputs/user_input_parameters.h</text>
</a>
</g>
</g>
<!-- Node1&#45;&gt;Node5 -->
<g id="edge4_Node000001_Node000005" class="edge">
<title>Node1&#45;&gt;Node5</title>
<g id="a_edge4_Node000001_Node000005"><a xlink:title=" ">
<path fill="none" stroke="#63b8ff" d="M1125.56,-604.03C1134.07,-594.77 1143.08,-585 1150.34,-577.1"/>
<polygon fill="#63b8ff" stroke="#63b8ff" points="1123.16,-601.47 1118.96,-611.2 1128.31,-606.21 1123.16,-601.47"/>
</a>
</g>
</g>
<!-- Node3 -->
<g id="Node000003" class="node">
<title>Node3</title>
<g id="a_Node000003"><a xlink:href="problem_8h.html" target="_top" xlink:title=" ">
<polygon fill="white" stroke="#666666" points="1009.66,-229.25 888.66,-229.25 888.66,-195.75 1009.66,-195.75 1009.66,-229.25"/>
<text text-anchor="start" x="896.66" y="-215.75" font-family="Helvetica,sans-Serif" font-size="10.00">include/prismspf/core</text>
<text text-anchor="middle" x="949.16" y="-203" font-family="Helvetica,sans-Serif" font-size="10.00">/problem.h</text>
</a>
</g>
</g>
<!-- Node2&#45;&gt;Node3 -->
<g id="edge2_Node000002_Node000003" class="edge">
<title>Node2&#45;&gt;Node3</title>
<g id="a_edge2_Node000002_Node000003"><a xlink:title=" ">
<path fill="none" stroke="#63b8ff" d="M1034.08,-325.36C1012.82,-297.35 979.1,-252.94 961.22,-229.38"/>
<polygon fill="#63b8ff" stroke="#63b8ff" points="1031.28,-327.46 1040.11,-333.31 1036.86,-323.23 1031.28,-327.46"/>
</a>
</g>
</g>
<!-- Node4 -->
<g id="Node000004" class="node">
<title>Node4</title>
<g id="a_Node000004"><a xlink:href="problem_8cc.html" target="_top" xlink:title=" ">
<polygon fill="white" stroke="#666666" points="1004.79,-20.75 893.54,-20.75 893.54,0 1004.79,0 1004.79,-20.75"/>
<text text-anchor="middle" x="949.16" y="-7.25" font-family="Helvetica,sans-Serif" font-size="10.00">src/core/problem.cc</text>
</a>
</g>
</g>
<!-- Node3&#45;&gt;Node4 -->
<g id="edge3_Node000003_Node000004" class="edge">
<title>Node3&#45;&gt;Node4</title>
<g id="a_edge3_Node000003_Node000004"><a xlink:title=" ">
<path fill="none" stroke="#63b8ff" d="M949.16,-184.16C949.16,-138.82 949.16,-50.17 949.16,-20.96"/>
<polygon fill="#63b8ff" stroke="#63b8ff" points="945.66,-183.95 949.16,-193.95 952.66,-183.95 945.66,-183.95"/>
</a>
</g>
</g>
<!-- Node5&#45;&gt;Node2 -->
<g id="edge44_Node000005_Node000002" class="edge">
<title>Node5&#45;&gt;Node2</title>
<g id="a_edge44_Node000005_Node000002"><a xlink:title=" ">
<path fill="none" stroke="#63b8ff" d="M1175.72,-532.28C1186.87,-499.3 1199.62,-442.83 1174.16,-404.25 1163.21,-387.66 1145.73,-376.37 1127.42,-368.69"/>
<polygon fill="#63b8ff" stroke="#63b8ff" points="1172.5,-530.89 1172.42,-541.48 1179.09,-533.25 1172.5,-530.89"/>
</a>
</g>
</g>
<!-- Node5&#45;&gt;Node4 -->
<g id="edge50_Node000005_Node000004" class="edge">
<title>Node5&#45;&gt;Node4</title>
<g id="a_edge50_Node000005_Node000004"><a xlink:title=" ">
<path fill="none" stroke="#63b8ff" d="M1264.7,-556.51C1354.86,-552.12 1478.84,-540.11 1514.16,-507.25 1542.58,-480.81 1533.16,-460.82 1533.16,-422 1533.16,-422 1533.16,-422 1533.16,-142 1533.16,-34.47 1151.33,-15.43 1005.16,-12.08"/>
<polygon fill="#63b8ff" stroke="#63b8ff" points="1264.67,-553 1254.84,-556.96 1264.99,-560 1264.67,-553"/>
</a>
</g>
</g>
<!-- Node6 -->
<g id="Node000006" class="node">
<title>Node6</title>
<g id="a_Node000006"><a xlink:href="pde__operator__base_8h.html" target="_top" xlink:title=" ">
<polygon fill="white" stroke="#666666" points="727.66,-507.25 606.66,-507.25 606.66,-473.75 727.66,-473.75 727.66,-507.25"/>
<text text-anchor="start" x="614.66" y="-493.75" font-family="Helvetica,sans-Serif" font-size="10.00">include/prismspf/core</text>
<text text-anchor="middle" x="667.16" y="-481" font-family="Helvetica,sans-Serif" font-size="10.00">/pde_operator_base.h</text>
</a>
</g>
</g>
<!-- Node5&#45;&gt;Node6 -->
<g id="edge5_Node000005_Node000006" class="edge">
<title>Node5&#45;&gt;Node6</title>
<g id="a_edge5_Node000005_Node000006"><a xlink:title=" ">
<path fill="none" stroke="#63b8ff" d="M1065.87,-545.54C964.99,-531.87 811.96,-511.13 727.85,-499.73"/>
<polygon fill="#63b8ff" stroke="#63b8ff" points="1065.11,-548.97 1075.49,-546.85 1066.05,-542.03 1065.11,-548.97"/>
</a>
</g>
</g>
<!-- Node16 -->
<g id="Node000016" class="node">
<title>Node16</title>
<g id="a_Node000016"><a xlink:href="solve__context_8h.html" target="_top" xlink:title=" ">
<polygon fill="white" stroke="#666666" points="972.79,-437.75 837.54,-437.75 837.54,-404.25 972.79,-404.25 972.79,-437.75"/>
<text text-anchor="start" x="845.54" y="-424.25" font-family="Helvetica,sans-Serif" font-size="10.00">include/prismspf/solvers</text>
<text text-anchor="middle" x="905.16" y="-411.5" font-family="Helvetica,sans-Serif" font-size="10.00">/solve_context.h</text>
</a>
</g>
</g>
<!-- Node5&#45;&gt;Node16 -->
<g id="edge45_Node000005_Node000016" class="edge">
<title>Node5&#45;&gt;Node16</title>
<g id="a_edge45_Node000005_Node000016"><a xlink:title=" ">
<path fill="none" stroke="#63b8ff" d="M1124.64,-537.65C1072.33,-510.09 982.51,-462.75 935.64,-438.06"/>
<polygon fill="#63b8ff" stroke="#63b8ff" points="1122.76,-540.61 1133.23,-542.18 1126.02,-534.42 1122.76,-540.61"/>
</a>
</g>
</g>
<!-- Node18 -->
<g id="Node000018" class="node">
<title>Node18</title>
<g id="a_Node000018"><a xlink:href="solution__output_8h.html" target="_top" xlink:title=" ">
<polygon fill="white" stroke="#666666" points="1267.66,-368.25 1146.66,-368.25 1146.66,-334.75 1267.66,-334.75 1267.66,-368.25"/>
<text text-anchor="start" x="1154.66" y="-354.75" font-family="Helvetica,sans-Serif" font-size="10.00">include/prismspf/core</text>
<text text-anchor="middle" x="1207.16" y="-342" font-family="Helvetica,sans-Serif" font-size="10.00">/solution_output.h</text>
</a>
</g>
</g>
<!-- Node5&#45;&gt;Node18 -->
<g id="edge43_Node000005_Node000018" class="edge">
<title>Node5&#45;&gt;Node18</title>
<g id="a_edge43_Node000005_Node000018"><a xlink:title=" ">
<path fill="none" stroke="#63b8ff" d="M1190.51,-534.73C1197.24,-526.69 1203.62,-517.23 1207.16,-507.25 1224.23,-459.14 1215.96,-397.2 1210.57,-368.46"/>
<polygon fill="#63b8ff" stroke="#63b8ff" points="1188.02,-532.26 1183.9,-542.03 1193.21,-536.96 1188.02,-532.26"/>
</a>
</g>
</g>
<!-- Node20 -->
<g id="Node000020" class="node">
<title>Node20</title>
<g id="a_Node000020"><a xlink:href="solver__base_8h.html" target="_top" xlink:title=" ">
<polygon fill="white" stroke="#666666" points="615.79,-368.25 480.54,-368.25 480.54,-334.75 615.79,-334.75 615.79,-368.25"/>
<text text-anchor="start" x="488.54" y="-354.75" font-family="Helvetica,sans-Serif" font-size="10.00">include/prismspf/solvers</text>
<text text-anchor="middle" x="548.16" y="-342" font-family="Helvetica,sans-Serif" font-size="10.00">/solver_base.h</text>
</a>
</g>
</g>
<!-- Node5&#45;&gt;Node20 -->
<g id="edge46_Node000005_Node000020" class="edge">
<title>Node5&#45;&gt;Node20</title>
<g id="a_edge46_Node000005_Node000020"><a xlink:title=" ">
<path fill="none" stroke="#63b8ff" d="M1065.78,-557.32C925.91,-553.71 678.92,-542.41 597.16,-507.25 554.2,-488.77 537.43,-480.36 518.16,-437.75 507.56,-414.3 522.86,-385.91 535.22,-368.53"/>
<polygon fill="#63b8ff" stroke="#63b8ff" points="1065.31,-560.81 1075.39,-557.56 1065.48,-553.81 1065.31,-560.81"/>
</a>
</g>
</g>
<!-- Node25 -->
<g id="Node000025" class="node">
<title>Node25</title>
<g id="a_Node000025"><a xlink:href="periodic__distance_8h.html" target="_top" xlink:title=" ">
<polygon fill="white" stroke="#666666" points="1165.54,-437.75 1028.79,-437.75 1028.79,-404.25 1165.54,-404.25 1165.54,-437.75"/>
<text text-anchor="start" x="1036.79" y="-424.25" font-family="Helvetica,sans-Serif" font-size="10.00">include/prismspf/utilities</text>
<text text-anchor="middle" x="1097.16" y="-411.5" font-family="Helvetica,sans-Serif" font-size="10.00">/periodic_distance.h</text>
</a>
</g>
</g>
<!-- Node5&#45;&gt;Node25 -->
<g id="edge47_Node000005_Node000025" class="edge">
<title>Node5&#45;&gt;Node25</title>
<g id="a_edge47_Node000005_Node000025"><a xlink:title=" ">
<path fill="none" stroke="#63b8ff" d="M1152.13,-532.75C1138.21,-504.69 1116.58,-461.13 1105.05,-437.88"/>
<polygon fill="#63b8ff" stroke="#63b8ff" points="1148.98,-534.26 1156.56,-541.66 1155.25,-531.15 1148.98,-534.26"/>
</a>
</g>
</g>
<!-- Node26 -->
<g id="Node000026" class="node">
<title>Node26</title>
<g id="a_Node000026"><a xlink:href="constraint__manager_8cc.html" target="_top" xlink:title=" ">
<polygon fill="white" stroke="#666666" points="1365.16,-507.25 1259.16,-507.25 1259.16,-473.75 1365.16,-473.75 1365.16,-507.25"/>
<text text-anchor="start" x="1267.16" y="-493.75" font-family="Helvetica,sans-Serif" font-size="10.00">src/core/constraint</text>
<text text-anchor="middle" x="1312.16" y="-481" font-family="Helvetica,sans-Serif" font-size="10.00">_manager.cc</text>
</a>
</g>
</g>
<!-- Node5&#45;&gt;Node26 -->
<g id="edge49_Node000005_Node000026" class="edge">
<title>Node5&#45;&gt;Node26</title>
<g id="a_edge49_Node000005_Node000026"><a xlink:title=" ">
<path fill="none" stroke="#63b8ff" d="M1210.83,-538.03C1232.16,-528.24 1257.15,-516.76 1276.99,-507.65"/>
<polygon fill="#63b8ff" stroke="#63b8ff" points="1209.38,-534.85 1201.75,-542.2 1212.3,-541.21 1209.38,-534.85"/>
</a>
</g>
</g>
<!-- Node27 -->
<g id="Node000027" class="node">
<title>Node27</title>
<g id="a_Node000027"><a xlink:href="user__input__parameters_8cc.html" target="_top" xlink:title=" ">
<polygon fill="white" stroke="#666666" points="1504.66,-507.25 1383.66,-507.25 1383.66,-473.75 1504.66,-473.75 1504.66,-507.25"/>
<text text-anchor="start" x="1391.66" y="-493.75" font-family="Helvetica,sans-Serif" font-size="10.00">src/user_inputs/user</text>
<text text-anchor="middle" x="1444.16" y="-481" font-family="Helvetica,sans-Serif" font-size="10.00">_input_parameters.cc</text>
</a>
</g>
</g>
<!-- Node5&#45;&gt;Node27 -->
<g id="edge51_Node000005_Node000027" class="edge">
<title>Node5&#45;&gt;Node27</title>
<g id="a_edge51_Node000005_Node000027"><a xlink:title=" ">
<path fill="none" stroke="#63b8ff" d="M1243.05,-540.16C1287.5,-529.4 1342.39,-516.12 1383.59,-506.15"/>
<polygon fill="#63b8ff" stroke="#63b8ff" points="1242.36,-536.72 1233.46,-542.48 1244,-543.53 1242.36,-536.72"/>
</a>
</g>
</g>
<!-- Node7 -->
<g id="Node000007" class="node">
<title>Node7</title>
<g id="a_Node000007"><a xlink:href="mf__operator_8h.html" target="_top" xlink:title=" ">
<polygon fill="white" stroke="#666666" points="500.79,-298.75 365.54,-298.75 365.54,-265.25 500.79,-265.25 500.79,-298.75"/>
<text text-anchor="start" x="373.54" y="-285.25" font-family="Helvetica,sans-Serif" font-size="10.00">include/prismspf/solvers</text>
<text text-anchor="middle" x="433.16" y="-272.5" font-family="Helvetica,sans-Serif" font-size="10.00">/mf_operator.h</text>
</a>
</g>
</g>
<!-- Node6&#45;&gt;Node7 -->
<g id="edge6_Node000006_Node000007" class="edge">
<title>Node6&#45;&gt;Node7</title>
<g id="a_edge6_Node000006_Node000007"><a xlink:title=" ">
<path fill="none" stroke="#63b8ff" d="M595.27,-474.62C569.15,-466.73 540.58,-454.98 518.16,-437.75 470.77,-401.33 446.26,-330.6 437.27,-298.97"/>
<polygon fill="#63b8ff" stroke="#63b8ff" points="594.25,-477.97 604.83,-477.35 596.18,-471.23 594.25,-477.97"/>
</a>
</g>
</g>
<!-- Node6&#45;&gt;Node16 -->
<g id="edge20_Node000006_Node000016" class="edge">
<title>Node6&#45;&gt;Node16</title>
<g id="a_edge20_Node000006_Node000016"><a xlink:title=" ">
<path fill="none" stroke="#63b8ff" d="M735.01,-470.26C770.79,-460.11 814.2,-447.8 848.21,-438.15"/>
<polygon fill="#63b8ff" stroke="#63b8ff" points="734.29,-466.82 725.63,-472.92 736.2,-473.56 734.29,-466.82"/>
</a>
</g>
</g>
<!-- Node6&#45;&gt;Node20 -->
<g id="edge40_Node000006_Node000020" class="edge">
<title>Node6&#45;&gt;Node20</title>
<g id="a_edge40_Node000006_Node000020"><a xlink:title=" ">
<path fill="none" stroke="#63b8ff" d="M595.55,-479.99C569.96,-472.76 543.65,-460.05 528.16,-437.75 513.68,-416.9 526.6,-386.97 537.34,-368.69"/>
<polygon fill="#63b8ff" stroke="#63b8ff" points="594.42,-483.32 604.97,-482.4 596.15,-476.53 594.42,-483.32"/>
</a>
</g>
</g>
<!-- Node23 -->
<g id="Node000023" class="node">
<title>Node23</title>
<g id="a_Node000023"><a xlink:href="dirichlet_8cc.html" target="_top" xlink:title=" ">
<polygon fill="white" stroke="#666666" points="647.41,-431.38 536.91,-431.38 536.91,-410.62 647.41,-410.62 647.41,-431.38"/>
<text text-anchor="middle" x="592.16" y="-417.88" font-family="Helvetica,sans-Serif" font-size="10.00">src/core/dirichlet.cc</text>
</a>
</g>
</g>
<!-- Node6&#45;&gt;Node23 -->
<g id="edge41_Node000006_Node000023" class="edge">
<title>Node6&#45;&gt;Node23</title>
<g id="a_edge41_Node000006_Node000023"><a xlink:title=" ">
<path fill="none" stroke="#63b8ff" d="M641.19,-466.12C628.14,-454.38 613.03,-440.78 603.08,-431.82"/>
<polygon fill="#63b8ff" stroke="#63b8ff" points="638.49,-468.4 648.26,-472.49 643.17,-463.2 638.49,-468.4"/>
</a>
</g>
</g>
<!-- Node24 -->
<g id="Node000024" class="node">
<title>Node24</title>
<g id="a_Node000024"><a xlink:href="initial__conditions_8cc.html" target="_top" xlink:title=" ">
<polygon fill="white" stroke="#666666" points="819.16,-431.38 665.16,-431.38 665.16,-410.62 819.16,-410.62 819.16,-431.38"/>
<text text-anchor="middle" x="742.16" y="-417.88" font-family="Helvetica,sans-Serif" font-size="10.00">src/core/initial_conditions.cc</text>
</a>
</g>
</g>
<!-- Node6&#45;&gt;Node24 -->
<g id="edge42_Node000006_Node000024" class="edge">
<title>Node6&#45;&gt;Node24</title>
<g id="a_edge42_Node000006_Node000024"><a xlink:title=" ">
<path fill="none" stroke="#63b8ff" d="M693.14,-466.12C706.18,-454.38 721.29,-440.78 731.25,-431.82"/>
<polygon fill="#63b8ff" stroke="#63b8ff" points="691.15,-463.2 686.06,-472.49 695.84,-468.4 691.15,-463.2"/>
</a>
</g>
</g>
<!-- Node8 -->
<g id="Node000008" class="node">
<title>Node8</title>
<g id="a_Node000008"><a xlink:href="explicit__solver_8h.html" target="_top" xlink:title=" ">
<polygon fill="white" stroke="#666666" points="734.79,-229.25 599.54,-229.25 599.54,-195.75 734.79,-195.75 734.79,-229.25"/>
<text text-anchor="start" x="607.54" y="-215.75" font-family="Helvetica,sans-Serif" font-size="10.00">include/prismspf/solvers</text>
<text text-anchor="middle" x="667.16" y="-203" font-family="Helvetica,sans-Serif" font-size="10.00">/explicit_solver.h</text>
</a>
</g>
</g>
<!-- Node7&#45;&gt;Node8 -->
<g id="edge7_Node000007_Node000008" class="edge">
<title>Node7&#45;&gt;Node8</title>
<g id="a_edge7_Node000007_Node000008"><a xlink:title=" ">
<path fill="none" stroke="#63b8ff" d="M499.87,-261.76C535.05,-251.61 577.72,-239.3 611.17,-229.65"/>
<polygon fill="#63b8ff" stroke="#63b8ff" points="499.3,-258.28 490.67,-264.41 501.24,-265 499.3,-258.28"/>
</a>
</g>
</g>
<!-- Node11 -->
<g id="Node000011" class="node">
<title>Node11</title>
<g id="a_Node000011"><a xlink:href="linear__helper_8h.html" target="_top" xlink:title=" ">
<polygon fill="white" stroke="#666666" points="150.79,-229.25 15.54,-229.25 15.54,-195.75 150.79,-195.75 150.79,-229.25"/>
<text text-anchor="start" x="23.54" y="-215.75" font-family="Helvetica,sans-Serif" font-size="10.00">include/prismspf/solvers</text>
<text text-anchor="middle" x="83.16" y="-203" font-family="Helvetica,sans-Serif" font-size="10.00">/linear_helper.h</text>
</a>
</g>
</g>
<!-- Node7&#45;&gt;Node11 -->
<g id="edge11_Node000007_Node000011" class="edge">
<title>Node7&#45;&gt;Node11</title>
<g id="a_edge11_Node000007_Node000011"><a xlink:title=" ">
<path fill="none" stroke="#63b8ff" d="M354.13,-265.76C293.02,-253.97 209.31,-237.83 151.17,-226.62"/>
<polygon fill="#63b8ff" stroke="#63b8ff" points="353.3,-269.16 363.78,-267.62 354.62,-262.29 353.3,-269.16"/>
</a>
</g>
</g>
<!-- Node12 -->
<g id="Node000012" class="node">
<title>Node12</title>
<g id="a_Node000012"><a xlink:href="linear__solver_8h.html" target="_top" xlink:title=" ">
<polygon fill="white" stroke="#666666" points="504.79,-229.25 369.54,-229.25 369.54,-195.75 504.79,-195.75 504.79,-229.25"/>
<text text-anchor="start" x="377.54" y="-215.75" font-family="Helvetica,sans-Serif" font-size="10.00">include/prismspf/solvers</text>
<text text-anchor="middle" x="437.16" y="-203" font-family="Helvetica,sans-Serif" font-size="10.00">/linear_solver.h</text>
</a>
</g>
</g>
<!-- Node7&#45;&gt;Node12 -->
<g id="edge12_Node000007_Node000012" class="edge">
<title>Node7&#45;&gt;Node12</title>
<g id="a_edge12_Node000007_Node000012"><a xlink:title=" ">
<path fill="none" stroke="#63b8ff" d="M434.79,-253.56C435.28,-245.34 435.79,-236.59 436.22,-229.38"/>
<polygon fill="#63b8ff" stroke="#63b8ff" points="431.3,-253.3 434.2,-263.49 438.29,-253.72 431.3,-253.3"/>
</a>
</g>
</g>
<!-- Node13 -->
<g id="Node000013" class="node">
<title>Node13</title>
<g id="a_Node000013"><a xlink:href="mg__solver_8h.html" target="_top" xlink:title=" ">
<polygon fill="white" stroke="#666666" points="327.79,-159.75 192.54,-159.75 192.54,-126.25 327.79,-126.25 327.79,-159.75"/>
<text text-anchor="start" x="200.54" y="-146.25" font-family="Helvetica,sans-Serif" font-size="10.00">include/prismspf/solvers</text>
<text text-anchor="middle" x="260.16" y="-133.5" font-family="Helvetica,sans-Serif" font-size="10.00">/mg_solver.h</text>
</a>
</g>
</g>
<!-- Node7&#45;&gt;Node13 -->
<g id="edge17_Node000007_Node000013" class="edge">
<title>Node7&#45;&gt;Node13</title>
<g id="a_edge17_Node000007_Node000013"><a xlink:title=" ">
<path fill="none" stroke="#63b8ff" d="M354.22,-274.11C293.81,-267.01 217.63,-253.47 198.16,-229.25 179.36,-205.86 210.09,-177.45 234.61,-160.05"/>
<polygon fill="#63b8ff" stroke="#63b8ff" points="353.47,-277.55 363.8,-275.19 354.26,-270.59 353.47,-277.55"/>
</a>
</g>
</g>
<!-- Node14 -->
<g id="Node000014" class="node">
<title>Node14</title>
<g id="a_Node000014"><a xlink:href="newton__solver_8h.html" target="_top" xlink:title=" ">
<polygon fill="white" stroke="#666666" points="600.79,-159.75 465.54,-159.75 465.54,-126.25 600.79,-126.25 600.79,-159.75"/>
<text text-anchor="start" x="473.54" y="-146.25" font-family="Helvetica,sans-Serif" font-size="10.00">include/prismspf/solvers</text>
<text text-anchor="middle" x="533.16" y="-133.5" font-family="Helvetica,sans-Serif" font-size="10.00">/newton_solver.h</text>
</a>
</g>
</g>
<!-- Node7&#45;&gt;Node14 -->
<g id="edge18_Node000007_Node000014" class="edge">
<title>Node7&#45;&gt;Node14</title>
<g id="a_edge18_Node000007_Node000014"><a xlink:title=" ">
<path fill="none" stroke="#63b8ff" d="M480.62,-259.26C493.19,-251.43 505.62,-241.45 514.16,-229.25 528.69,-208.51 532.35,-178.55 533.14,-160.22"/>
<polygon fill="#63b8ff" stroke="#63b8ff" points="479.24,-256.02 472.35,-264.07 482.76,-262.07 479.24,-256.02"/>
</a>
</g>
</g>
<!-- Node15 -->
<g id="Node000015" class="node">
<title>Node15</title>
<g id="a_Node000015"><a xlink:href="mf__operator_8cc.html" target="_top" xlink:title=" ">
<polygon fill="white" stroke="#666666" points="351.29,-222.88 207.04,-222.88 207.04,-202.12 351.29,-202.12 351.29,-222.88"/>
<text text-anchor="middle" x="279.16" y="-209.38" font-family="Helvetica,sans-Serif" font-size="10.00">src/solvers/mf_operator.cc</text>
</a>
</g>
</g>
<!-- Node7&#45;&gt;Node15 -->
<g id="edge19_Node000007_Node000015" class="edge">
<title>Node7&#45;&gt;Node15</title>
<g id="a_edge19_Node000007_Node000015"><a xlink:title=" ">
<path fill="none" stroke="#63b8ff" d="M385.85,-260.26C357.77,-247.95 323.45,-232.91 301.46,-223.27"/>
<polygon fill="#63b8ff" stroke="#63b8ff" points="384.33,-263.42 394.89,-264.22 387.14,-257 384.33,-263.42"/>
</a>
</g>
</g>
<!-- Node9 -->
<g id="Node000009" class="node">
<title>Node9</title>
<g id="a_Node000009"><a xlink:href="solvers_8h.html" target="_top" xlink:title=" ">
<polygon fill="white" stroke="#666666" points="600.79,-90.25 465.54,-90.25 465.54,-56.75 600.79,-56.75 600.79,-90.25"/>
<text text-anchor="start" x="473.54" y="-76.75" font-family="Helvetica,sans-Serif" font-size="10.00">include/prismspf/solvers</text>
<text text-anchor="middle" x="533.16" y="-64" font-family="Helvetica,sans-Serif" font-size="10.00">/solvers.h</text>
</a>
</g>
</g>
<!-- Node8&#45;&gt;Node9 -->
<g id="edge8_Node000008_Node000009" class="edge">
<title>Node8&#45;&gt;Node9</title>
<g id="a_edge8_Node000008_Node000009"><a xlink:title=" ">
<path fill="none" stroke="#63b8ff" d="M653.41,-185.57C643.08,-167.6 627.72,-143.85 610.16,-126.25 596.17,-112.22 577.85,-99.73 562.59,-90.53"/>
<polygon fill="#63b8ff" stroke="#63b8ff" points="650.23,-187.04 658.16,-194.06 656.34,-183.63 650.23,-187.04"/>
</a>
</g>
</g>
<!-- Node9&#45;&gt;Node4 -->
<g id="edge9_Node000009_Node000004" class="edge">
<title>Node9&#45;&gt;Node4</title>
<g id="a_edge9_Node000009_Node000004"><a xlink:title=" ">
<path fill="none" stroke="#63b8ff" d="M612.21,-60.89C694.32,-48.82 820.72,-30.25 893.11,-19.61"/>
<polygon fill="#63b8ff" stroke="#63b8ff" points="611.81,-57.41 602.42,-62.32 612.83,-64.33 611.81,-57.41"/>
</a>
</g>
</g>
<!-- Node10 -->
<g id="Node000010" class="node">
<title>Node10</title>
<g id="a_Node000010"><a xlink:href="solvers_8cc.html" target="_top" xlink:title=" ">
<polygon fill="white" stroke="#666666" points="593.29,-20.75 473.04,-20.75 473.04,0 593.29,0 593.29,-20.75"/>
<text text-anchor="middle" x="533.16" y="-7.25" font-family="Helvetica,sans-Serif" font-size="10.00">src/solvers/solvers.cc</text>
</a>
</g>
</g>
<!-- Node9&#45;&gt;Node10 -->
<g id="edge10_Node000009_Node000010" class="edge">
<title>Node9&#45;&gt;Node10</title>
<g id="a_edge10_Node000009_Node000010"><a xlink:title=" ">
<path fill="none" stroke="#63b8ff" d="M533.16,-44.94C533.16,-36.46 533.16,-27.67 533.16,-21.22"/>
<polygon fill="#63b8ff" stroke="#63b8ff" points="529.66,-44.93 533.16,-54.93 536.66,-44.93 529.66,-44.93"/>
</a>
</g>
</g>
<!-- Node12&#45;&gt;Node9 -->
<g id="edge16_Node000012_Node000009" class="edge">
<title>Node12&#45;&gt;Node9</title>
<g id="a_edge16_Node000012_Node000009"><a xlink:title=" ">
<path fill="none" stroke="#63b8ff" d="M438.12,-183.97C439.92,-166.17 444.56,-143.24 456.16,-126.25 466.52,-111.09 482.92,-99.17 497.93,-90.61"/>
<polygon fill="#63b8ff" stroke="#63b8ff" points="434.64,-183.59 437.39,-193.83 441.62,-184.11 434.64,-183.59"/>
</a>
</g>
</g>
<!-- Node12&#45;&gt;Node13 -->
<g id="edge13_Node000012_Node000013" class="edge">
<title>Node12&#45;&gt;Node13</title>
<g id="a_edge13_Node000012_Node000013"><a xlink:title=" ">
<path fill="none" stroke="#63b8ff" d="M384.28,-191.33C358.15,-181.37 327.05,-169.51 302.52,-160.15"/>
<polygon fill="#63b8ff" stroke="#63b8ff" points="382.76,-194.5 393.35,-194.79 385.26,-187.96 382.76,-194.5"/>
</a>
</g>
</g>
<!-- Node12&#45;&gt;Node14 -->
<g id="edge14_Node000012_Node000014" class="edge">
<title>Node12&#45;&gt;Node14</title>
<g id="a_edge14_Node000012_Node000014"><a xlink:title=" ">
<path fill="none" stroke="#63b8ff" d="M469.29,-188.91C482.7,-179.48 497.99,-168.73 510.24,-160.12"/>
<polygon fill="#63b8ff" stroke="#63b8ff" points="467.32,-186.02 461.15,-194.63 471.35,-191.74 467.32,-186.02"/>
</a>
</g>
</g>
<!-- Node14&#45;&gt;Node9 -->
<g id="edge15_Node000014_Node000009" class="edge">
<title>Node14&#45;&gt;Node9</title>
<g id="a_edge15_Node000014_Node000009"><a xlink:title=" ">
<path fill="none" stroke="#63b8ff" d="M533.16,-114.56C533.16,-106.34 533.16,-97.59 533.16,-90.38"/>
<polygon fill="#63b8ff" stroke="#63b8ff" points="529.66,-114.49 533.16,-124.49 536.66,-114.49 529.66,-114.49"/>
</a>
</g>
</g>
<!-- Node16&#45;&gt;Node2 -->
<g id="edge28_Node000016_Node000002" class="edge">
<title>Node16&#45;&gt;Node2</title>
<g id="a_edge28_Node000016_Node000002"><a xlink:title=" ">
<path fill="none" stroke="#63b8ff" d="M950.84,-399.17C972.38,-389.34 997.69,-377.8 1017.75,-368.65"/>
<polygon fill="#63b8ff" stroke="#63b8ff" points="949.64,-395.87 941.99,-403.2 952.54,-402.24 949.64,-395.87"/>
</a>
</g>
</g>
<!-- Node16&#45;&gt;Node3 -->
<g id="edge21_Node000016_Node000003" class="edge">
<title>Node16&#45;&gt;Node3</title>
<g id="a_edge21_Node000016_Node000003"><a xlink:title=" ">
<path fill="none" stroke="#63b8ff" d="M911,-392.62C920.3,-348.95 938.22,-264.84 945.73,-229.63"/>
<polygon fill="#63b8ff" stroke="#63b8ff" points="907.59,-391.81 908.93,-402.32 914.44,-393.26 907.59,-391.81"/>
</a>
</g>
</g>
<!-- Node17 -->
<g id="Node000017" class="node">
<title>Node17</title>
<g id="a_Node000017"><a xlink:href="refinement__manager_8h.html" target="_top" xlink:title=" ">
<polygon fill="white" stroke="#666666" points="920.79,-298.75 791.54,-298.75 791.54,-265.25 920.79,-265.25 920.79,-298.75"/>
<text text-anchor="start" x="799.54" y="-285.25" font-family="Helvetica,sans-Serif" font-size="10.00">include/prismspf/core</text>
<text text-anchor="middle" x="856.16" y="-272.5" font-family="Helvetica,sans-Serif" font-size="10.00">/refinement_manager.h</text>
</a>
</g>
</g>
<!-- Node16&#45;&gt;Node17 -->
<g id="edge22_Node000016_Node000017" class="edge">
<title>Node16&#45;&gt;Node17</title>
<g id="a_edge22_Node000016_Node000017"><a xlink:title=" ">
<path fill="none" stroke="#63b8ff" d="M895.64,-393.37C885.6,-365.31 870.12,-322.02 861.84,-298.88"/>
<polygon fill="#63b8ff" stroke="#63b8ff" points="892.27,-394.35 898.94,-402.59 898.86,-392 892.27,-394.35"/>
</a>
</g>
</g>
<!-- Node16&#45;&gt;Node18 -->
<g id="edge24_Node000016_Node000018" class="edge">
<title>Node16&#45;&gt;Node18</title>
<g id="a_edge24_Node000016_Node000018"><a xlink:title=" ">
<path fill="none" stroke="#63b8ff" d="M984.42,-402.52C1029.51,-392.54 1087.01,-379.77 1138.16,-368.25 1140.8,-367.66 1143.49,-367.05 1146.21,-366.43"/>
<polygon fill="#63b8ff" stroke="#63b8ff" points="983.73,-399.09 974.72,-404.66 985.24,-405.92 983.73,-399.09"/>
</a>
</g>
</g>
<!-- Node16&#45;&gt;Node20 -->
<g id="edge29_Node000016_Node000020" class="edge">
<title>Node16&#45;&gt;Node20</title>
<g id="a_edge29_Node000016_Node000020"><a xlink:title=" ">
<path fill="none" stroke="#63b8ff" d="M826.19,-403.89C748.46,-388.82 670.32,-374.49 616.13,-364.69"/>
<polygon fill="#63b8ff" stroke="#63b8ff" points="825.19,-407.26 835.67,-405.73 826.52,-400.38 825.19,-407.26"/>
</a>
</g>
</g>
<!-- Node17&#45;&gt;Node3 -->
<g id="edge23_Node000017_Node000003" class="edge">
<title>Node17&#45;&gt;Node3</title>
<g id="a_edge23_Node000017_Node000003"><a xlink:title=" ">
<path fill="none" stroke="#63b8ff" d="M887.28,-258.41C900.28,-248.98 915.09,-238.23 926.96,-229.62"/>
<polygon fill="#63b8ff" stroke="#63b8ff" points="885.46,-255.41 879.43,-264.11 889.58,-261.07 885.46,-255.41"/>
</a>
</g>
</g>
<!-- Node18&#45;&gt;Node4 -->
<g id="edge26_Node000018_Node000004" class="edge">
<title>Node18&#45;&gt;Node4</title>
<g id="a_edge26_Node000018_Node000004"><a xlink:title=" ">
<path fill="none" stroke="#63b8ff" d="M1161.37,-329.02C1120.87,-306.49 1068.16,-266.91 1068.16,-213.5 1068.16,-213.5 1068.16,-213.5 1068.16,-142 1068.16,-83.56 1002.27,-39.76 968.55,-21.18"/>
<polygon fill="#63b8ff" stroke="#63b8ff" points="1159.57,-332.03 1170.03,-333.67 1162.87,-325.86 1159.57,-332.03"/>
</a>
</g>
</g>
<!-- Node18&#45;&gt;Node18 -->
<g id="edge25_Node000018_Node000018" class="edge">
<title>Node18&#45;&gt;Node18</title>
<g id="a_edge25_Node000018_Node000018"><a xlink:title=" ">
<path fill="none" stroke="#63b8ff" d="M1278.88,-360.45C1283.12,-358.31 1285.66,-355.33 1285.66,-351.5 1285.66,-345.05 1278.46,-341 1268.05,-339.33"/>
<polygon fill="#63b8ff" stroke="#63b8ff" points="1278.1,-357.04 1269.5,-363.23 1280.09,-363.75 1278.1,-357.04"/>
</a>
</g>
</g>
<!-- Node19 -->
<g id="Node000019" class="node">
<title>Node19</title>
<g id="a_Node000019"><a xlink:href="solution__output_8cc.html" target="_top" xlink:title=" ">
<polygon fill="white" stroke="#666666" points="1280.41,-292.38 1133.91,-292.38 1133.91,-271.62 1280.41,-271.62 1280.41,-292.38"/>
<text text-anchor="middle" x="1207.16" y="-278.88" font-family="Helvetica,sans-Serif" font-size="10.00">src/core/solution_output.cc</text>
</a>
</g>
</g>
<!-- Node18&#45;&gt;Node19 -->
<g id="edge27_Node000018_Node000019" class="edge">
<title>Node18&#45;&gt;Node19</title>
<g id="a_edge27_Node000018_Node000019"><a xlink:title=" ">
<path fill="none" stroke="#63b8ff" d="M1207.16,-323.03C1207.16,-312.33 1207.16,-300.76 1207.16,-292.82"/>
<polygon fill="#63b8ff" stroke="#63b8ff" points="1203.66,-322.99 1207.16,-332.99 1210.66,-322.99 1203.66,-322.99"/>
</a>
</g>
</g>
<!-- Node20&#45;&gt;Node4 -->
<g id="edge38_Node000020_Node000004" class="edge">
<title>Node20&#45;&gt;Node4</title>
<g id="a_edge38_Node000020_Node000004"><a xlink:title=" ">
<path fill="none" stroke="#63b8ff" d="M626.96,-341.64C659.78,-334.53 696.39,-321.75 723.16,-298.75 754.91,-271.48 763.16,-255.35 763.16,-213.5 763.16,-213.5 763.16,-213.5 763.16,-142 763.16,-72.35 851.58,-36.65 906.49,-21.19"/>
<polygon fill="#63b8ff" stroke="#63b8ff" points="626.6,-338.14 617.48,-343.54 627.97,-345 626.6,-338.14"/>
</a>
</g>
</g>
<!-- Node20&#45;&gt;Node7 -->
<g id="edge36_Node000020_Node000007" class="edge">
<title>Node20&#45;&gt;Node7</title>
<g id="a_edge36_Node000020_Node000007"><a xlink:title=" ">
<path fill="none" stroke="#63b8ff" d="M510.79,-328.57C494.41,-318.95 475.52,-307.86 460.48,-299.04"/>
<polygon fill="#63b8ff" stroke="#63b8ff" points="508.92,-331.52 519.31,-333.57 512.46,-325.49 508.92,-331.52"/>
</a>
</g>
</g>
<!-- Node20&#45;&gt;Node8 -->
<g id="edge33_Node000020_Node000008" class="edge">
<title>Node20&#45;&gt;Node8</title>
<g id="a_edge33_Node000020_Node000008"><a xlink:title=" ">
<path fill="none" stroke="#63b8ff" d="M627.4,-343.87C657.04,-337.08 687.91,-323.93 706.16,-298.75 722.02,-276.87 700.91,-247.52 684.11,-229.59"/>
<polygon fill="#63b8ff" stroke="#63b8ff" points="626.71,-340.44 617.62,-345.87 628.11,-347.3 626.71,-340.44"/>
</a>
</g>
</g>
<!-- Node20&#45;&gt;Node11 -->
<g id="edge34_Node000020_Node000011" class="edge">
<title>Node20&#45;&gt;Node11</title>
<g id="a_edge34_Node000020_Node000011"><a xlink:title=" ">
<path fill="none" stroke="#63b8ff" d="M474.87,-331.47C438.99,-321.97 395.22,-310.11 356.16,-298.75 277.73,-275.94 187.37,-247.25 132.8,-229.65"/>
<polygon fill="#63b8ff" stroke="#63b8ff" points="473.71,-334.78 484.27,-333.95 475.49,-328.02 473.71,-334.78"/>
</a>
</g>
</g>
<!-- Node20&#45;&gt;Node12 -->
<g id="edge35_Node000020_Node000012" class="edge">
<title>Node20&#45;&gt;Node12</title>
<g id="a_edge35_Node000020_Node000012"><a xlink:title=" ">
<path fill="none" stroke="#63b8ff" d="M540.29,-323.49C534.13,-305.62 524.24,-282.42 510.16,-265.25 498.34,-250.83 481.56,-238.56 467.07,-229.59"/>
<polygon fill="#63b8ff" stroke="#63b8ff" points="536.92,-324.46 543.33,-332.9 543.58,-322.31 536.92,-324.46"/>
</a>
</g>
</g>
<!-- Node20&#45;&gt;Node14 -->
<g id="edge37_Node000020_Node000014" class="edge">
<title>Node20&#45;&gt;Node14</title>
<g id="a_edge37_Node000020_Node000014"><a xlink:title=" ">
<path fill="none" stroke="#63b8ff" d="M546.15,-322.84C542.98,-279.09 536.89,-195.27 534.33,-160.13"/>
<polygon fill="#63b8ff" stroke="#63b8ff" points="542.66,-323.07 546.88,-332.79 549.64,-322.56 542.66,-323.07"/>
</a>
</g>
</g>
<!-- Node20&#45;&gt;Node17 -->
<g id="edge30_Node000020_Node000017" class="edge">
<title>Node20&#45;&gt;Node17</title>
<g id="a_edge30_Node000020_Node000017"><a xlink:title=" ">
<path fill="none" stroke="#63b8ff" d="M627.09,-333.2C678,-322.05 743.39,-307.72 791.26,-297.22"/>
<polygon fill="#63b8ff" stroke="#63b8ff" points="626.63,-329.72 617.61,-335.28 628.13,-336.56 626.63,-329.72"/>
</a>
</g>
</g>
<!-- Node21 -->
<g id="Node000021" class="node">
<title>Node21</title>
<g id="a_Node000021"><a xlink:href="constant__solver_8h.html" target="_top" xlink:title=" ">
<polygon fill="white" stroke="#666666" points="155.79,-159.75 20.54,-159.75 20.54,-126.25 155.79,-126.25 155.79,-159.75"/>
<text text-anchor="start" x="28.54" y="-146.25" font-family="Helvetica,sans-Serif" font-size="10.00">include/prismspf/solvers</text>
<text text-anchor="middle" x="88.16" y="-133.5" font-family="Helvetica,sans-Serif" font-size="10.00">/constant_solver.h</text>
</a>
</g>
</g>
<!-- Node20&#45;&gt;Node21 -->
<g id="edge31_Node000020_Node000021" class="edge">
<title>Node20&#45;&gt;Node21</title>
<g id="a_edge31_Node000020_Node000021"><a xlink:title=" ">
<path fill="none" stroke="#63b8ff" d="M468.93,-345.01C332.17,-333.67 61.14,-302.32 6.16,-229.25 -2.79,-217.35 -1.03,-208.79 6.16,-195.75 14.86,-179.98 30.61,-168.35 46,-160.16"/>
<polygon fill="#63b8ff" stroke="#63b8ff" points="468.38,-348.48 478.63,-345.8 468.94,-341.5 468.38,-348.48"/>
</a>
</g>
</g>
<!-- Node22 -->
<g id="Node000022" class="node">
<title>Node22</title>
<g id="a_Node000022"><a xlink:href="solver__base_8cc.html" target="_top" xlink:title=" ">
<polygon fill="white" stroke="#666666" points="696.91,-298.75 595.41,-298.75 595.41,-265.25 696.91,-265.25 696.91,-298.75"/>
<text text-anchor="start" x="603.41" y="-285.25" font-family="Helvetica,sans-Serif" font-size="10.00">src/solvers/solver</text>
<text text-anchor="middle" x="646.16" y="-272.5" font-family="Helvetica,sans-Serif" font-size="10.00">_base.cc</text>
</a>
</g>
</g>
<!-- Node20&#45;&gt;Node22 -->
<g id="edge39_Node000020_Node000022" class="edge">
<title>Node20&#45;&gt;Node22</title>
<g id="a_edge39_Node000020_Node000022"><a xlink:title=" ">
<path fill="none" stroke="#63b8ff" d="M580.56,-328.19C594.35,-318.69 610.14,-307.81 622.77,-299.12"/>
<polygon fill="#63b8ff" stroke="#63b8ff" points="578.88,-325.09 572.63,-333.64 582.85,-330.85 578.88,-325.09"/>
</a>
</g>
</g>
<!-- Node21&#45;&gt;Node9 -->
<g id="edge32_Node000021_Node000009" class="edge">
<title>Node21&#45;&gt;Node9</title>
<g id="a_edge32_Node000021_Node000009"><a xlink:title=" ">
<path fill="none" stroke="#63b8ff" d="M167.21,-128.79C172.61,-127.92 177.97,-127.07 183.16,-126.25 281.17,-110.88 394.81,-94.31 465.36,-84.17"/>
<polygon fill="#63b8ff" stroke="#63b8ff" points="166.93,-125.29 157.61,-130.34 168.05,-132.2 166.93,-125.29"/>
</a>
</g>
</g>
<!-- Node25&#45;&gt;Node2 -->
<g id="edge48_Node000025_Node000002" class="edge">
<title>Node25&#45;&gt;Node2</title>
<g id="a_edge48_Node000025_Node000002"><a xlink:title=" ">
<path fill="none" stroke="#63b8ff" d="M1080.58,-394.56C1074.85,-385.77 1068.6,-376.18 1063.52,-368.38"/>
<polygon fill="#63b8ff" stroke="#63b8ff" points="1077.52,-396.27 1085.91,-402.74 1083.38,-392.45 1077.52,-396.27"/>
</a>
</g>
</g>
</g>
</svg>
