<?xml version="1.0" encoding="UTF-8" standalone="no"?>
<!DOCTYPE svg PUBLIC "-//W3C//DTD SVG 1.1//EN"
 "http://www.w3.org/Graphics/SVG/1.1/DTD/svg11.dtd">
<!-- Generated by graphviz version 12.2.1 (20241206.2353)
 -->
<!-- Title: /__w/phaseField/phaseField/include/prismspf/user_inputs/miscellaneous_parameters.h Pages: 1 -->
<svg width="3007pt" height="320pt"
 viewBox="0.00 0.00 3007.12 319.50" xmlns="http://www.w3.org/2000/svg" xmlns:xlink="http://www.w3.org/1999/xlink">
<g id="graph0" class="graph" transform="scale(1 1) rotate(0) translate(4 315.5)">
<title>/__w/phaseField/phaseField/include/prismspf/user_inputs/miscellaneous_parameters.h</title>
<!-- Node1 -->
<g id="Node000001" class="node">
<title>Node1</title>
<g id="a_Node000001"><a xlink:title=" ">
<polygon fill="#999999" stroke="#666666" points="1078.62,-311.5 918.62,-311.5 918.62,-265.25 1078.62,-265.25 1078.62,-311.5"/>
<text text-anchor="start" x="926.62" y="-298" font-family="Helvetica,sans-Serif" font-size="10.00">/__w/phaseField/phaseField</text>
<text text-anchor="start" x="926.62" y="-285.25" font-family="Helvetica,sans-Serif" font-size="10.00">/include/prismspf/user_inputs</text>
<text text-anchor="middle" x="998.62" y="-272.5" font-family="Helvetica,sans-Serif" font-size="10.00">/miscellaneous_parameters.h</text>
</a>
</g>
</g>
<!-- Node2 -->
<g id="Node000002" class="node">
<title>Node2</title>
<g id="a_Node000002"><a xlink:title=" ">
<polygon fill="#e0e0e0" stroke="#999999" points="1465.12,-153.38 1362.12,-153.38 1362.12,-132.62 1465.12,-132.62 1465.12,-153.38"/>
<text text-anchor="middle" x="1413.62" y="-139.88" font-family="Helvetica,sans-Serif" font-size="10.00">deal.II/base/mpi.h</text>
</a>
</g>
</g>
<!-- Node1&#45;&gt;Node2 -->
<g id="edge1_Node000001_Node000002" class="edge">
<title>Node1&#45;&gt;Node2</title>
<g id="a_edge1_Node000001_Node000002"><a xlink:title=" ">
<path fill="none" stroke="#63b8ff" d="M1063.93,-264.81C1151.24,-234.65 1303.29,-182.12 1374.6,-157.48"/>
<polygon fill="#63b8ff" stroke="#63b8ff" points="1375.59,-160.84 1383.9,-154.27 1373.31,-154.23 1375.59,-160.84"/>
</a>
</g>
</g>
<!-- Node3 -->
<g id="Node000003" class="node">
<title>Node3</title>
<g id="a_Node000003"><a xlink:title=" ">
<polygon fill="#e0e0e0" stroke="#999999" points="387.75,-159.75 261.5,-159.75 261.5,-126.25 387.75,-126.25 387.75,-159.75"/>
<text text-anchor="start" x="269.5" y="-146.25" font-family="Helvetica,sans-Serif" font-size="10.00">deal.II/base/parameter</text>
<text text-anchor="middle" x="324.62" y="-133.5" font-family="Helvetica,sans-Serif" font-size="10.00">_handler.h</text>
</a>
</g>
</g>
<!-- Node1&#45;&gt;Node3 -->
<g id="edge2_Node000001_Node000003" class="edge">
<title>Node1&#45;&gt;Node3</title>
<g id="a_edge2_Node000001_Node000003"><a xlink:title=" ">
<path fill="none" stroke="#63b8ff" d="M918.17,-285.96C818.9,-282.4 645.8,-270.24 503.62,-229.25 451.85,-214.32 396.46,-185.77 361.24,-165.84"/>
<polygon fill="#63b8ff" stroke="#63b8ff" points="363.15,-162.9 352.73,-160.97 359.67,-168.98 363.15,-162.9"/>
</a>
</g>
</g>
<!-- Node4 -->
<g id="Node000004" class="node">
<title>Node4</title>
<g id="a_Node000004"><a xlink:href="conditional__ostreams_8h.html" target="_top" xlink:title=" ">
<polygon fill="white" stroke="#666666" points="167.5,-229.25 27.75,-229.25 27.75,-195.75 167.5,-195.75 167.5,-229.25"/>
<text text-anchor="start" x="35.75" y="-215.75" font-family="Helvetica,sans-Serif" font-size="10.00">prismspf/core/conditional</text>
<text text-anchor="middle" x="97.62" y="-203" font-family="Helvetica,sans-Serif" font-size="10.00">_ostreams.h</text>
</a>
</g>
</g>
<!-- Node1&#45;&gt;Node4 -->
<g id="edge3_Node000001_Node000004" class="edge">
<title>Node1&#45;&gt;Node4</title>
<g id="a_edge3_Node000001_Node000004"><a xlink:title=" ">
<path fill="none" stroke="#63b8ff" d="M918.31,-284.71C771.52,-279.16 450.29,-263.88 181.62,-229.25 180.77,-229.14 179.91,-229.03 179.05,-228.91"/>
<polygon fill="#63b8ff" stroke="#63b8ff" points="179.55,-225.45 169.15,-227.47 178.54,-232.37 179.55,-225.45"/>
</a>
</g>
</g>
<!-- Node6 -->
<g id="Node000006" class="node">
<title>Node6</title>
<g id="a_Node000006"><a xlink:title=" ">
<polygon fill="#e0e0e0" stroke="#999999" points="561.62,-20.75 461.62,-20.75 461.62,0 561.62,0 561.62,-20.75"/>
<text text-anchor="middle" x="511.62" y="-7.25" font-family="Helvetica,sans-Serif" font-size="10.00">prismspf/config.h</text>
</a>
</g>
</g>
<!-- Node1&#45;&gt;Node6 -->
<g id="edge49_Node000001_Node000006" class="edge">
<title>Node1&#45;&gt;Node6</title>
<g id="a_edge49_Node000001_Node000006"><a xlink:title=" ">
<path fill="none" stroke="#63b8ff" d="M918.29,-287.63C738.1,-286.18 311.43,-270.85 234.62,-159.75 215.91,-132.68 254.41,-60.35 258.62,-56.75 286.69,-32.73 384.27,-20.8 449.71,-15.37"/>
<polygon fill="#63b8ff" stroke="#63b8ff" points="449.93,-18.86 459.62,-14.58 449.38,-11.89 449.93,-18.86"/>
</a>
</g>
</g>
<!-- Node7 -->
<g id="Node000007" class="node">
<title>Node7</title>
<g id="a_Node000007"><a xlink:href="exceptions_8h.html" target="_top" xlink:title=" ">
<polygon fill="white" stroke="#666666" points="660.62,-222.88 512.62,-222.88 512.62,-202.12 660.62,-202.12 660.62,-222.88"/>
<text text-anchor="middle" x="586.62" y="-209.38" font-family="Helvetica,sans-Serif" font-size="10.00">prismspf/core/exceptions.h</text>
</a>
</g>
</g>
<!-- Node1&#45;&gt;Node7 -->
<g id="edge6_Node000001_Node000007" class="edge">
<title>Node1&#45;&gt;Node7</title>
<g id="a_edge6_Node000001_Node000007"><a xlink:title=" ">
<path fill="none" stroke="#63b8ff" d="M918.21,-272.96C840.74,-259.07 724.96,-238.3 652.71,-225.35"/>
<polygon fill="#63b8ff" stroke="#63b8ff" points="653.45,-221.93 642.99,-223.61 652.22,-228.82 653.45,-221.93"/>
</a>
</g>
</g>
<!-- Node15 -->
<g id="Node000015" class="node">
<title>Node15</title>
<g id="a_Node000015"><a xlink:href="parameter__base_8h.html" target="_top" xlink:title=" ">
<polygon fill="white" stroke="#666666" points="1057.62,-229.25 939.62,-229.25 939.62,-195.75 1057.62,-195.75 1057.62,-229.25"/>
<text text-anchor="start" x="947.62" y="-215.75" font-family="Helvetica,sans-Serif" font-size="10.00">prismspf/user_inputs</text>
<text text-anchor="middle" x="998.62" y="-203" font-family="Helvetica,sans-Serif" font-size="10.00">/parameter_base.h</text>
</a>
</g>
</g>
<!-- Node1&#45;&gt;Node15 -->
<g id="edge17_Node000001_Node000015" class="edge">
<title>Node1&#45;&gt;Node15</title>
<g id="a_edge17_Node000001_Node000015"><a xlink:title=" ">
<path fill="none" stroke="#63b8ff" d="M998.62,-264.81C998.62,-257.26 998.62,-248.76 998.62,-240.88"/>
<polygon fill="#63b8ff" stroke="#63b8ff" points="1002.13,-241.12 998.63,-231.12 995.13,-241.12 1002.13,-241.12"/>
</a>
</g>
</g>
<!-- Node22 -->
<g id="Node000022" class="node">
<title>Node22</title>
<g id="a_Node000022"><a xlink:href="utilities_8h.html" target="_top" xlink:title=" ">
<polygon fill="white" stroke="#666666" points="1863.88,-229.25 1765.38,-229.25 1765.38,-195.75 1863.88,-195.75 1863.88,-229.25"/>
<text text-anchor="start" x="1773.38" y="-215.75" font-family="Helvetica,sans-Serif" font-size="10.00">prismspf/utilities</text>
<text text-anchor="middle" x="1814.62" y="-203" font-family="Helvetica,sans-Serif" font-size="10.00">/utilities.h</text>
</a>
</g>
</g>
<!-- Node1&#45;&gt;Node22 -->
<g id="edge28_Node000001_Node000022" class="edge">
<title>Node1&#45;&gt;Node22</title>
<g id="a_edge28_Node000001_Node000022"><a xlink:title=" ">
<path fill="none" stroke="#63b8ff" d="M1079.1,-280.09C1242.15,-265.33 1608.32,-232.18 1753.57,-219.03"/>
<polygon fill="#63b8ff" stroke="#63b8ff" points="1753.73,-222.53 1763.37,-218.14 1753.1,-215.56 1753.73,-222.53"/>
</a>
</g>
</g>
<!-- Node35 -->
<g id="Node000035" class="node">
<title>Node35</title>
<g id="a_Node000035"><a xlink:title=" ">
<polygon fill="#e0e0e0" stroke="#999999" points="1925.5,-222.88 1881.75,-222.88 1881.75,-202.12 1925.5,-202.12 1925.5,-222.88"/>
<text text-anchor="middle" x="1903.62" y="-209.38" font-family="Helvetica,sans-Serif" font-size="10.00">mpi.h</text>
</a>
</g>
</g>
<!-- Node1&#45;&gt;Node35 -->
<g id="edge50_Node000001_Node000035" class="edge">
<title>Node1&#45;&gt;Node35</title>
<g id="a_edge50_Node000001_Node000035"><a xlink:title=" ">
<path fill="none" stroke="#63b8ff" d="M1079.12,-286.14C1265.98,-282.61 1724.53,-269.96 1872.62,-229.25 1874.03,-228.86 1875.45,-228.41 1876.87,-227.9"/>
<polygon fill="#63b8ff" stroke="#63b8ff" points="1878.25,-231.12 1886.01,-223.9 1875.44,-224.71 1878.25,-231.12"/>
</a>
</g>
</g>
<!-- Node36 -->
<g id="Node000036" class="node">
<title>Node36</title>
<g id="a_Node000036"><a xlink:title=" ">
<polygon fill="#e0e0e0" stroke="#999999" points="1997.38,-222.88 1943.88,-222.88 1943.88,-202.12 1997.38,-202.12 1997.38,-222.88"/>
<text text-anchor="middle" x="1970.62" y="-209.38" font-family="Helvetica,sans-Serif" font-size="10.00">random</text>
</a>
</g>
</g>
<!-- Node1&#45;&gt;Node36 -->
<g id="edge51_Node000001_Node000036" class="edge">
<title>Node1&#45;&gt;Node36</title>
<g id="a_edge51_Node000001_Node000036"><a xlink:title=" ">
<path fill="none" stroke="#63b8ff" d="M1078.81,-285.99C1274.68,-282.01 1773.21,-268.28 1934.62,-229.25 1936.76,-228.73 1938.93,-228.1 1941.1,-227.38"/>
<polygon fill="#63b8ff" stroke="#63b8ff" points="1942.16,-230.72 1950.22,-223.84 1939.63,-224.19 1942.16,-230.72"/>
</a>
</g>
</g>
<!-- Node5 -->
<g id="Node000005" class="node">
<title>Node5</title>
<g id="a_Node000005"><a xlink:title=" ">
<polygon fill="#e0e0e0" stroke="#999999" points="129.25,-159.75 0,-159.75 0,-126.25 129.25,-126.25 129.25,-159.75"/>
<text text-anchor="start" x="8" y="-146.25" font-family="Helvetica,sans-Serif" font-size="10.00">deal.II/base/conditional</text>
<text text-anchor="middle" x="64.62" y="-133.5" font-family="Helvetica,sans-Serif" font-size="10.00">_ostream.h</text>
</a>
</g>
</g>
<!-- Node4&#45;&gt;Node5 -->
<g id="edge4_Node000004_Node000005" class="edge">
<title>Node4&#45;&gt;Node5</title>
<g id="a_edge4_Node000004_Node000005"><a xlink:title=" ">
<path fill="none" stroke="#63b8ff" d="M89.8,-195.5C86.11,-187.94 81.59,-178.71 77.42,-170.16"/>
<polygon fill="#63b8ff" stroke="#63b8ff" points="80.59,-168.69 73.05,-161.24 74.3,-171.76 80.59,-168.69"/>
</a>
</g>
</g>
<!-- Node4&#45;&gt;Node6 -->
<g id="edge5_Node000004_Node000006" class="edge">
<title>Node4&#45;&gt;Node6</title>
<g id="a_edge5_Node000004_Node000006"><a xlink:title=" ">
<path fill="none" stroke="#63b8ff" d="M112.14,-195.56C120.6,-185.73 131.06,-172.59 138.62,-159.75 163.82,-117.02 142.31,-87.01 181.62,-56.75 222.44,-25.34 366.22,-15.67 449.92,-12.7"/>
<polygon fill="#63b8ff" stroke="#63b8ff" points="449.92,-16.2 459.8,-12.37 449.69,-9.2 449.92,-16.2"/>
</a>
</g>
</g>
<!-- Node7&#45;&gt;Node6 -->
<g id="edge15_Node000007_Node000006" class="edge">
<title>Node7&#45;&gt;Node6</title>
<g id="a_edge15_Node000007_Node000006"><a xlink:title=" ">
<path fill="none" stroke="#63b8ff" d="M512.18,-210.8C424.14,-208.2 285.37,-197.96 252.62,-159.75 189.92,-86.58 354.94,-41.43 449.96,-22.19"/>
<polygon fill="#63b8ff" stroke="#63b8ff" points="450.57,-25.64 459.7,-20.27 449.21,-18.77 450.57,-25.64"/>
</a>
</g>
</g>
<!-- Node8 -->
<g id="Node000008" class="node">
<title>Node8</title>
<g id="a_Node000008"><a xlink:title=" ">
<polygon fill="#e0e0e0" stroke="#999999" points="867.38,-153.38 729.88,-153.38 729.88,-132.62 867.38,-132.62 867.38,-153.38"/>
<text text-anchor="middle" x="798.62" y="-139.88" font-family="Helvetica,sans-Serif" font-size="10.00">deal.II/base/exceptions.h</text>
</a>
</g>
</g>
<!-- Node7&#45;&gt;Node8 -->
<g id="edge7_Node000007_Node000008" class="edge">
<title>Node7&#45;&gt;Node8</title>
<g id="a_edge7_Node000007_Node000008"><a xlink:title=" ">
<path fill="none" stroke="#63b8ff" d="M617.45,-201.68C654.27,-189.96 716.02,-170.3 757.04,-157.24"/>
<polygon fill="#63b8ff" stroke="#63b8ff" points="757.85,-160.66 766.32,-154.29 755.73,-153.99 757.85,-160.66"/>
</a>
</g>
</g>
<!-- Node9 -->
<g id="Node000009" class="node">
<title>Node9</title>
<g id="a_Node000009"><a xlink:href="types_8h.html" target="_top" xlink:title=" ">
<polygon fill="white" stroke="#666666" points="647.5,-153.38 525.75,-153.38 525.75,-132.62 647.5,-132.62 647.5,-153.38"/>
<text text-anchor="middle" x="586.62" y="-139.88" font-family="Helvetica,sans-Serif" font-size="10.00">prismspf/core/types.h</text>
</a>
</g>
</g>
<!-- Node7&#45;&gt;Node9 -->
<g id="edge8_Node000007_Node000009" class="edge">
<title>Node7&#45;&gt;Node9</title>
<g id="a_edge8_Node000007_Node000009"><a xlink:title=" ">
<path fill="none" stroke="#63b8ff" d="M586.62,-201.83C586.62,-192.21 586.62,-177.13 586.62,-164.79"/>
<polygon fill="#63b8ff" stroke="#63b8ff" points="590.13,-165.17 586.63,-155.17 583.13,-165.17 590.13,-165.17"/>
</a>
</g>
</g>
<!-- Node14 -->
<g id="Node000014" class="node">
<title>Node14</title>
<g id="a_Node000014"><a xlink:title=" ">
<polygon fill="#e0e0e0" stroke="#999999" points="469.62,-153.38 405.62,-153.38 405.62,-132.62 469.62,-132.62 469.62,-153.38"/>
<text text-anchor="middle" x="437.62" y="-139.88" font-family="Helvetica,sans-Serif" font-size="10.00">exception</text>
</a>
</g>
</g>
<!-- Node7&#45;&gt;Node14 -->
<g id="edge16_Node000007_Node000014" class="edge">
<title>Node7&#45;&gt;Node14</title>
<g id="a_edge16_Node000007_Node000014"><a xlink:title=" ">
<path fill="none" stroke="#63b8ff" d="M564.96,-201.68C539.91,-190.34 498.44,-171.55 469.66,-158.51"/>
<polygon fill="#63b8ff" stroke="#63b8ff" points="471.25,-155.39 460.7,-154.45 468.36,-161.77 471.25,-155.39"/>
</a>
</g>
</g>
<!-- Node9&#45;&gt;Node6 -->
<g id="edge14_Node000009_Node000006" class="edge">
<title>Node9&#45;&gt;Node6</title>
<g id="a_edge14_Node000009_Node000006"><a xlink:title=" ">
<path fill="none" stroke="#63b8ff" d="M580.33,-132.18C573.75,-121.84 563.22,-105.05 554.62,-90.25 543.04,-70.31 530.49,-47.09 521.96,-31.03"/>
<polygon fill="#63b8ff" stroke="#63b8ff" points="525.23,-29.73 517.46,-22.52 519.04,-33 525.23,-29.73"/>
</a>
</g>
</g>
<!-- Node10 -->
<g id="Node000010" class="node">
<title>Node10</title>
<g id="a_Node000010"><a xlink:title=" ">
<polygon fill="#e0e0e0" stroke="#999999" points="1441.75,-90.25 1333.5,-90.25 1333.5,-56.75 1441.75,-56.75 1441.75,-90.25"/>
<text text-anchor="start" x="1341.5" y="-76.75" font-family="Helvetica,sans-Serif" font-size="10.00">deal.II/matrix_free</text>
<text text-anchor="middle" x="1387.62" y="-64" font-family="Helvetica,sans-Serif" font-size="10.00">/evaluation_flags.h</text>
</a>
</g>
</g>
<!-- Node9&#45;&gt;Node10 -->
<g id="edge9_Node000009_Node000010" class="edge">
<title>Node9&#45;&gt;Node10</title>
<g id="a_edge9_Node000009_Node000010"><a xlink:title=" ">
<path fill="none" stroke="#63b8ff" d="M625.31,-132.2C635.44,-129.94 646.4,-127.75 656.62,-126.25 900.39,-90.41 1193.66,-79.18 1322.05,-75.84"/>
<polygon fill="#63b8ff" stroke="#63b8ff" points="1321.8,-79.34 1331.7,-75.59 1321.62,-72.35 1321.8,-79.34"/>
</a>
</g>
</g>
<!-- Node11 -->
<g id="Node000011" class="node">
<title>Node11</title>
<g id="a_Node000011"><a xlink:href="type__enums_8h.html" target="_top" xlink:title=" ">
<polygon fill="white" stroke="#666666" points="671.38,-90.25 563.88,-90.25 563.88,-56.75 671.38,-56.75 671.38,-90.25"/>
<text text-anchor="start" x="571.88" y="-76.75" font-family="Helvetica,sans-Serif" font-size="10.00">prismspf/core/type</text>
<text text-anchor="middle" x="617.62" y="-64" font-family="Helvetica,sans-Serif" font-size="10.00">_enums.h</text>
</a>
</g>
</g>
<!-- Node9&#45;&gt;Node11 -->
<g id="edge10_Node000009_Node000011" class="edge">
<title>Node9&#45;&gt;Node11</title>
<g id="a_edge10_Node000009_Node000011"><a xlink:title=" ">
<path fill="none" stroke="#63b8ff" d="M591.07,-132.33C594.81,-124.18 600.34,-112.13 605.39,-101.13"/>
<polygon fill="#63b8ff" stroke="#63b8ff" points="608.57,-102.59 609.57,-92.04 602.21,-99.67 608.57,-102.59"/>
</a>
</g>
</g>
<!-- Node11&#45;&gt;Node6 -->
<g id="edge11_Node000011_Node000006" class="edge">
<title>Node11&#45;&gt;Node6</title>
<g id="a_edge11_Node000011_Node000006"><a xlink:title=" ">
<path fill="none" stroke="#63b8ff" d="M589.5,-56.28C573.6,-47.11 553.84,-35.72 538.2,-26.7"/>
<polygon fill="#63b8ff" stroke="#63b8ff" points="540.32,-23.88 529.91,-21.92 536.83,-29.95 540.32,-23.88"/>
</a>
</g>
</g>
<!-- Node12 -->
<g id="Node000012" class="node">
<title>Node12</title>
<g id="a_Node000012"><a xlink:title=" ">
<polygon fill="#e0e0e0" stroke="#999999" points="642.12,-20.75 593.12,-20.75 593.12,0 642.12,0 642.12,-20.75"/>
<text text-anchor="middle" x="617.62" y="-7.25" font-family="Helvetica,sans-Serif" font-size="10.00">cstdint</text>
</a>
</g>
</g>
<!-- Node11&#45;&gt;Node12 -->
<g id="edge12_Node000011_Node000012" class="edge">
<title>Node11&#45;&gt;Node12</title>
<g id="a_edge12_Node000011_Node000012"><a xlink:title=" ">
<path fill="none" stroke="#63b8ff" d="M617.62,-56.44C617.62,-49.1 617.62,-40.32 617.62,-32.46"/>
<polygon fill="#63b8ff" stroke="#63b8ff" points="621.13,-32.73 617.63,-22.73 614.13,-32.73 621.13,-32.73"/>
</a>
</g>
</g>
<!-- Node13 -->
<g id="Node000013" class="node">
<title>Node13</title>
<g id="a_Node000013"><a xlink:title=" ">
<polygon fill="#e0e0e0" stroke="#999999" points="1265.5,-20.75 1221.75,-20.75 1221.75,0 1265.5,0 1265.5,-20.75"/>
<text text-anchor="middle" x="1243.62" y="-7.25" font-family="Helvetica,sans-Serif" font-size="10.00">string</text>
</a>
</g>
</g>
<!-- Node11&#45;&gt;Node13 -->
<g id="edge13_Node000011_Node000013" class="edge">
<title>Node11&#45;&gt;Node13</title>
<g id="a_edge13_Node000011_Node000013"><a xlink:title=" ">
<path fill="none" stroke="#63b8ff" d="M671.81,-67.21C797.82,-54.9 1107.62,-24.66 1210.1,-14.65"/>
<polygon fill="#63b8ff" stroke="#63b8ff" points="1210.43,-18.13 1220.04,-13.68 1209.75,-11.17 1210.43,-18.13"/>
</a>
</g>
</g>
<!-- Node15&#45;&gt;Node3 -->
<g id="edge18_Node000015_Node000003" class="edge">
<title>Node15&#45;&gt;Node3</title>
<g id="a_edge18_Node000015_Node000003"><a xlink:title=" ">
<path fill="none" stroke="#63b8ff" d="M939.37,-208.96C833.04,-203.84 602.72,-190.23 399.34,-160.05"/>
<polygon fill="#63b8ff" stroke="#63b8ff" points="400.05,-156.61 389.64,-158.59 399.01,-163.54 400.05,-156.61"/>
</a>
</g>
</g>
<!-- Node15&#45;&gt;Node6 -->
<g id="edge21_Node000015_Node000006" class="edge">
<title>Node15&#45;&gt;Node6</title>
<g id="a_edge21_Node000015_Node000006"><a xlink:title=" ">
<path fill="none" stroke="#63b8ff" d="M939.52,-209.42C817.12,-204.5 544.95,-190.23 516.62,-159.75 484.41,-125.08 495.84,-63.81 504.87,-31.93"/>
<polygon fill="#63b8ff" stroke="#63b8ff" points="508.22,-32.96 507.79,-22.37 501.52,-30.91 508.22,-32.96"/>
</a>
</g>
</g>
<!-- Node15&#45;&gt;Node9 -->
<g id="edge20_Node000015_Node000009" class="edge">
<title>Node15&#45;&gt;Node9</title>
<g id="a_edge20_Node000015_Node000009"><a xlink:title=" ">
<path fill="none" stroke="#63b8ff" d="M939.4,-203.84C871.04,-194.7 755.33,-178.3 656.62,-159.75 650.96,-158.68 645.05,-157.49 639.17,-156.25"/>
<polygon fill="#63b8ff" stroke="#63b8ff" points="639.97,-152.84 629.46,-154.14 638.49,-159.68 639.97,-152.84"/>
</a>
</g>
</g>
<!-- Node15&#45;&gt;Node13 -->
<g id="edge25_Node000015_Node000013" class="edge">
<title>Node15&#45;&gt;Node13</title>
<g id="a_edge25_Node000015_Node000013"><a xlink:title=" ">
<path fill="none" stroke="#63b8ff" d="M1057.96,-205.46C1116.94,-198.18 1201.68,-183.81 1223.62,-159.75 1255.63,-124.65 1252.13,-64.06 1247.51,-32.25"/>
<polygon fill="#63b8ff" stroke="#63b8ff" points="1251.02,-32.02 1245.94,-22.73 1244.12,-33.16 1251.02,-32.02"/>
</a>
</g>
</g>
<!-- Node16 -->
<g id="Node000016" class="node">
<title>Node16</title>
<g id="a_Node000016"><a xlink:title=" ">
<polygon fill="#e0e0e0" stroke="#999999" points="1010,-153.38 885.25,-153.38 885.25,-132.62 1010,-132.62 1010,-153.38"/>
<text text-anchor="middle" x="947.62" y="-139.88" font-family="Helvetica,sans-Serif" font-size="10.00">deal.II/base/patterns.h</text>
</a>
</g>
</g>
<!-- Node15&#45;&gt;Node16 -->
<g id="edge19_Node000015_Node000016" class="edge">
<title>Node15&#45;&gt;Node16</title>
<g id="a_edge19_Node000015_Node000016"><a xlink:title=" ">
<path fill="none" stroke="#63b8ff" d="M986.54,-195.5C979.13,-185.69 969.6,-173.09 961.83,-162.8"/>
<polygon fill="#63b8ff" stroke="#63b8ff" points="964.78,-160.9 955.96,-155.03 959.19,-165.12 964.78,-160.9"/>
</a>
</g>
</g>
<!-- Node17 -->
<g id="Node000017" class="node">
<title>Node17</title>
<g id="a_Node000017"><a xlink:title=" ">
<polygon fill="#e0e0e0" stroke="#999999" points="1071.12,-153.38 1028.12,-153.38 1028.12,-132.62 1071.12,-132.62 1071.12,-153.38"/>
<text text-anchor="middle" x="1049.62" y="-139.88" font-family="Helvetica,sans-Serif" font-size="10.00">cfloat</text>
</a>
</g>
</g>
<!-- Node15&#45;&gt;Node17 -->
<g id="edge22_Node000015_Node000017" class="edge">
<title>Node15&#45;&gt;Node17</title>
<g id="a_edge22_Node000015_Node000017"><a xlink:title=" ">
<path fill="none" stroke="#63b8ff" d="M1010.71,-195.5C1018.12,-185.69 1027.65,-173.09 1035.42,-162.8"/>
<polygon fill="#63b8ff" stroke="#63b8ff" points="1038.06,-165.12 1041.29,-155.03 1032.47,-160.9 1038.06,-165.12"/>
</a>
</g>
</g>
<!-- Node18 -->
<g id="Node000018" class="node">
<title>Node18</title>
<g id="a_Node000018"><a xlink:title=" ">
<polygon fill="#e0e0e0" stroke="#999999" points="1148.38,-153.38 1088.88,-153.38 1088.88,-132.62 1148.38,-132.62 1148.38,-153.38"/>
<text text-anchor="middle" x="1118.62" y="-139.88" font-family="Helvetica,sans-Serif" font-size="10.00">concepts</text>
</a>
</g>
</g>
<!-- Node15&#45;&gt;Node18 -->
<g id="edge23_Node000015_Node000018" class="edge">
<title>Node15&#45;&gt;Node18</title>
<g id="a_edge23_Node000015_Node000018"><a xlink:title=" ">
<path fill="none" stroke="#63b8ff" d="M1027.37,-195.33C1046.79,-184.41 1072.28,-170.07 1091.38,-159.33"/>
<polygon fill="#63b8ff" stroke="#63b8ff" points="1092.94,-162.47 1099.93,-154.51 1089.5,-156.37 1092.94,-162.47"/>
</a>
</g>
</g>
<!-- Node19 -->
<g id="Node000019" class="node">
<title>Node19</title>
<g id="a_Node000019"><a xlink:title=" ">
<polygon fill="#e0e0e0" stroke="#999999" points="1215.12,-153.38 1166.12,-153.38 1166.12,-132.62 1215.12,-132.62 1215.12,-153.38"/>
<text text-anchor="middle" x="1190.62" y="-139.88" font-family="Helvetica,sans-Serif" font-size="10.00">ranges</text>
</a>
</g>
</g>
<!-- Node15&#45;&gt;Node19 -->
<g id="edge24_Node000015_Node000019" class="edge">
<title>Node15&#45;&gt;Node19</title>
<g id="a_edge24_Node000015_Node000019"><a xlink:title=" ">
<path fill="none" stroke="#63b8ff" d="M1054.45,-195.29C1085.23,-185.86 1123.93,-173.21 1157.62,-159.75 1158.75,-159.3 1159.88,-158.83 1161.02,-158.35"/>
<polygon fill="#63b8ff" stroke="#63b8ff" points="1162.2,-161.66 1169.89,-154.38 1159.33,-155.28 1162.2,-161.66"/>
</a>
</g>
</g>
<!-- Node20 -->
<g id="Node000020" class="node">
<title>Node20</title>
<g id="a_Node000020"><a xlink:title=" ">
<polygon fill="#e0e0e0" stroke="#999999" points="1343.75,-153.38 1271.5,-153.38 1271.5,-132.62 1343.75,-132.62 1343.75,-153.38"/>
<text text-anchor="middle" x="1307.62" y="-139.88" font-family="Helvetica,sans-Serif" font-size="10.00">string_view</text>
</a>
</g>
</g>
<!-- Node15&#45;&gt;Node20 -->
<g id="edge26_Node000015_Node000020" class="edge">
<title>Node15&#45;&gt;Node20</title>
<g id="a_edge26_Node000015_Node000020"><a xlink:title=" ">
<path fill="none" stroke="#63b8ff" d="M1057.93,-201.53C1110.69,-192.22 1189.78,-177.16 1257.62,-159.75 1260.77,-158.94 1264,-158.06 1267.24,-157.13"/>
<polygon fill="#63b8ff" stroke="#63b8ff" points="1268.14,-160.51 1276.72,-154.29 1266.13,-153.81 1268.14,-160.51"/>
</a>
</g>
</g>
<!-- Node21 -->
<g id="Node000021" class="node">
<title>Node21</title>
<g id="a_Node000021"><a xlink:title=" ">
<polygon fill="#e0e0e0" stroke="#999999" points="712,-153.38 665.25,-153.38 665.25,-132.62 712,-132.62 712,-153.38"/>
<text text-anchor="middle" x="688.62" y="-139.88" font-family="Helvetica,sans-Serif" font-size="10.00">vector</text>
</a>
</g>
</g>
<!-- Node15&#45;&gt;Node21 -->
<g id="edge27_Node000015_Node000021" class="edge">
<title>Node15&#45;&gt;Node21</title>
<g id="a_edge27_Node000015_Node000021"><a xlink:title=" ">
<path fill="none" stroke="#63b8ff" d="M939.14,-205.2C882.04,-198.05 793.89,-184.09 720.62,-159.75 719.27,-159.3 717.9,-158.8 716.53,-158.27"/>
<polygon fill="#63b8ff" stroke="#63b8ff" points="718.15,-155.16 707.59,-154.33 715.32,-161.57 718.15,-155.16"/>
</a>
</g>
</g>
<!-- Node22&#45;&gt;Node2 -->
<g id="edge32_Node000022_Node000002" class="edge">
<title>Node22&#45;&gt;Node2</title>
<g id="a_edge32_Node000022_Node000002"><a xlink:title=" ">
<path fill="none" stroke="#63b8ff" d="M1765.02,-205.12C1699.44,-196.38 1580.4,-179.52 1479.62,-159.75 1474.41,-158.73 1468.98,-157.57 1463.58,-156.37"/>
<polygon fill="#63b8ff" stroke="#63b8ff" points="1464.6,-153.02 1454.07,-154.19 1463.04,-159.84 1464.6,-153.02"/>
</a>
</g>
</g>
<!-- Node22&#45;&gt;Node6 -->
<g id="edge45_Node000022_Node000006" class="edge">
<title>Node22&#45;&gt;Node6</title>
<g id="a_edge45_Node000022_Node000006"><a xlink:title=" ">
<path fill="none" stroke="#63b8ff" d="M1764.95,-210.51C1709.55,-207.5 1618.78,-196.71 1550.62,-159.75 1494.54,-129.34 1508.86,-82.82 1450.62,-56.75 1362.62,-17.36 679.69,-28.98 583.62,-20.75 580.22,-20.46 576.73,-20.12 573.2,-19.76"/>
<polygon fill="#63b8ff" stroke="#63b8ff" points="573.75,-16.3 563.42,-18.66 572.97,-23.25 573.75,-16.3"/>
</a>
</g>
</g>
<!-- Node22&#45;&gt;Node8 -->
<g id="edge30_Node000022_Node000008" class="edge">
<title>Node22&#45;&gt;Node8</title>
<g id="a_edge30_Node000022_Node000008"><a xlink:title=" ">
<path fill="none" stroke="#63b8ff" d="M1765.07,-211.28C1624.99,-210.1 1214.34,-202.93 876.62,-159.75 868.89,-158.76 860.78,-157.44 852.83,-155.99"/>
<polygon fill="#63b8ff" stroke="#63b8ff" points="853.73,-152.6 843.25,-154.15 852.41,-159.47 853.73,-152.6"/>
</a>
</g>
</g>
<!-- Node22&#45;&gt;Node10 -->
<g id="edge38_Node000022_Node000010" class="edge">
<title>Node22&#45;&gt;Node10</title>
<g id="a_edge38_Node000022_Node000010"><a xlink:title=" ">
<path fill="none" stroke="#63b8ff" d="M1765,-210C1704.3,-206.59 1599.53,-195.51 1517.62,-159.75 1495.1,-149.92 1493.96,-140.05 1473.62,-126.25 1458.25,-115.82 1440.76,-105.09 1425.59,-96.14"/>
<polygon fill="#63b8ff" stroke="#63b8ff" points="1427.7,-93.32 1417.3,-91.29 1424.16,-99.36 1427.7,-93.32"/>
</a>
</g>
</g>
<!-- Node22&#45;&gt;Node13 -->
<g id="edge46_Node000022_Node000013" class="edge">
<title>Node22&#45;&gt;Node13</title>
<g id="a_edge46_Node000022_Node000013"><a xlink:title=" ">
<path fill="none" stroke="#63b8ff" d="M1864.14,-197.26C1867,-196.68 1869.84,-196.17 1872.62,-195.75 1925.94,-187.63 2805.21,-198.58 2842.62,-159.75 2852.96,-149.03 2852,-137.81 2842.62,-126.25 2748.5,-10.17 2661.96,-74.93 2513.62,-56.75 2264.09,-26.17 1452.37,-14.08 1277.16,-11.79"/>
<polygon fill="#63b8ff" stroke="#63b8ff" points="1277.44,-8.29 1267.39,-11.66 1277.35,-15.29 1277.44,-8.29"/>
</a>
</g>
</g>
<!-- Node22&#45;&gt;Node20 -->
<g id="edge47_Node000022_Node000020" class="edge">
<title>Node22&#45;&gt;Node20</title>
<g id="a_edge47_Node000022_Node000020"><a xlink:title=" ">
<path fill="none" stroke="#63b8ff" d="M1765.13,-209.61C1679.9,-205.54 1500.37,-193.43 1352.62,-159.75 1349.63,-159.07 1346.55,-158.25 1343.48,-157.35"/>
<polygon fill="#63b8ff" stroke="#63b8ff" points="1344.59,-154.03 1334,-154.31 1342.45,-160.7 1344.59,-154.03"/>
</a>
</g>
</g>
<!-- Node23 -->
<g id="Node000023" class="node">
<title>Node23</title>
<g id="a_Node000023"><a xlink:title=" ">
<polygon fill="#e0e0e0" stroke="#999999" points="2681.38,-153.38 2567.88,-153.38 2567.88,-132.62 2681.38,-132.62 2681.38,-153.38"/>
<text text-anchor="middle" x="2624.62" y="-139.88" font-family="Helvetica,sans-Serif" font-size="10.00">deal.II/base/config.h</text>
</a>
</g>
</g>
<!-- Node22&#45;&gt;Node23 -->
<g id="edge29_Node000022_Node000023" class="edge">
<title>Node22&#45;&gt;Node23</title>
<g id="a_edge29_Node000022_Node000023"><a xlink:title=" ">
<path fill="none" stroke="#63b8ff" d="M1864.15,-197.31C1867,-196.72 1869.84,-196.2 1872.62,-195.75 2174.09,-147.47 2256.45,-203.36 2558.62,-159.75 2564.75,-158.87 2571.13,-157.68 2577.42,-156.36"/>
<polygon fill="#63b8ff" stroke="#63b8ff" points="2578.08,-159.8 2587.07,-154.19 2576.54,-152.97 2578.08,-159.8"/>
</a>
</g>
</g>
<!-- Node24 -->
<g id="Node000024" class="node">
<title>Node24</title>
<g id="a_Node000024"><a xlink:title=" ">
<polygon fill="#e0e0e0" stroke="#999999" points="2833.5,-153.38 2699.75,-153.38 2699.75,-132.62 2833.5,-132.62 2833.5,-153.38"/>
<text text-anchor="middle" x="2766.62" y="-139.88" font-family="Helvetica,sans-Serif" font-size="10.00">deal.II/base/logstream.h</text>
</a>
</g>
</g>
<!-- Node22&#45;&gt;Node24 -->
<g id="edge31_Node000022_Node000024" class="edge">
<title>Node22&#45;&gt;Node24</title>
<g id="a_edge31_Node000022_Node000024"><a xlink:title=" ">
<path fill="none" stroke="#63b8ff" d="M1864.14,-197.28C1867,-196.7 1869.84,-196.18 1872.62,-195.75 2232.19,-139.72 2329.52,-204.82 2690.62,-159.75 2698.35,-158.79 2706.46,-157.45 2714.39,-155.97"/>
<polygon fill="#63b8ff" stroke="#63b8ff" points="2714.79,-159.46 2723.93,-154.09 2713.44,-152.59 2714.79,-159.46"/>
</a>
</g>
</g>
<!-- Node25 -->
<g id="Node000025" class="node">
<title>Node25</title>
<g id="a_Node000025"><a xlink:title=" ">
<polygon fill="#e0e0e0" stroke="#999999" points="2999.12,-153.38 2890.12,-153.38 2890.12,-132.62 2999.12,-132.62 2999.12,-153.38"/>
<text text-anchor="middle" x="2944.62" y="-139.88" font-family="Helvetica,sans-Serif" font-size="10.00">deal.II/base/point.h</text>
</a>
</g>
</g>
<!-- Node22&#45;&gt;Node25 -->
<g id="edge33_Node000022_Node000025" class="edge">
<title>Node22&#45;&gt;Node25</title>
<g id="a_edge33_Node000022_Node000025"><a xlink:title=" ">
<path fill="none" stroke="#63b8ff" d="M1864.14,-197.25C1867,-196.68 1869.84,-196.17 1872.62,-195.75 2313.65,-128.86 2433.33,-217.64 2875.62,-159.75 2882.42,-158.86 2889.53,-157.61 2896.49,-156.2"/>
<polygon fill="#63b8ff" stroke="#63b8ff" points="2897.1,-159.65 2906.14,-154.12 2895.62,-152.81 2897.1,-159.65"/>
</a>
</g>
</g>
<!-- Node26 -->
<g id="Node000026" class="node">
<title>Node26</title>
<g id="a_Node000026"><a xlink:title=" ">
<polygon fill="#e0e0e0" stroke="#999999" points="1673.75,-153.38 1559.5,-153.38 1559.5,-132.62 1673.75,-132.62 1673.75,-153.38"/>
<text text-anchor="middle" x="1616.62" y="-139.88" font-family="Helvetica,sans-Serif" font-size="10.00">deal.II/base/tensor.h</text>
</a>
</g>
</g>
<!-- Node22&#45;&gt;Node26 -->
<g id="edge34_Node000022_Node000026" class="edge">
<title>Node22&#45;&gt;Node26</title>
<g id="a_edge34_Node000022_Node000026"><a xlink:title=" ">
<path fill="none" stroke="#63b8ff" d="M1767.2,-195.33C1733.32,-183.78 1688.27,-168.43 1656.3,-157.53"/>
<polygon fill="#63b8ff" stroke="#63b8ff" points="1657.6,-154.27 1647.01,-154.36 1655.34,-160.9 1657.6,-154.27"/>
</a>
</g>
</g>
<!-- Node27 -->
<g id="Node000027" class="node">
<title>Node27</title>
<g id="a_Node000027"><a xlink:title=" ">
<polygon fill="#e0e0e0" stroke="#999999" points="1803.25,-153.38 1692,-153.38 1692,-132.62 1803.25,-132.62 1803.25,-153.38"/>
<text text-anchor="middle" x="1747.62" y="-139.88" font-family="Helvetica,sans-Serif" font-size="10.00">deal.II/base/types.h</text>
</a>
</g>
</g>
<!-- Node22&#45;&gt;Node27 -->
<g id="edge35_Node000022_Node000027" class="edge">
<title>Node22&#45;&gt;Node27</title>
<g id="a_edge35_Node000022_Node000027"><a xlink:title=" ">
<path fill="none" stroke="#63b8ff" d="M1798.75,-195.5C1788.71,-185.39 1775.72,-172.31 1765.35,-161.86"/>
<polygon fill="#63b8ff" stroke="#63b8ff" points="1767.97,-159.53 1758.44,-154.9 1763,-164.46 1767.97,-159.53"/>
</a>
</g>
</g>
<!-- Node28 -->
<g id="Node000028" class="node">
<title>Node28</title>
<g id="a_Node000028"><a xlink:title=" ">
<polygon fill="#e0e0e0" stroke="#999999" points="1942.12,-153.38 1821.12,-153.38 1821.12,-132.62 1942.12,-132.62 1942.12,-153.38"/>
<text text-anchor="middle" x="1881.62" y="-139.88" font-family="Helvetica,sans-Serif" font-size="10.00">deal.II/base/utilities.h</text>
</a>
</g>
</g>
<!-- Node22&#45;&gt;Node28 -->
<g id="edge36_Node000022_Node000028" class="edge">
<title>Node22&#45;&gt;Node28</title>
<g id="a_edge36_Node000022_Node000028"><a xlink:title=" ">
<path fill="none" stroke="#63b8ff" d="M1830.5,-195.5C1840.54,-185.39 1853.53,-172.31 1863.9,-161.86"/>
<polygon fill="#63b8ff" stroke="#63b8ff" points="1866.25,-164.46 1870.81,-154.9 1861.28,-159.53 1866.25,-164.46"/>
</a>
</g>
</g>
<!-- Node29 -->
<g id="Node000029" class="node">
<title>Node29</title>
<g id="a_Node000029"><a xlink:title=" ">
<polygon fill="#e0e0e0" stroke="#999999" points="2362.62,-83.88 2214.62,-83.88 2214.62,-63.12 2362.62,-63.12 2362.62,-83.88"/>
<text text-anchor="middle" x="2288.62" y="-70.38" font-family="Helvetica,sans-Serif" font-size="10.00">deal.II/base/vectorization.h</text>
</a>
</g>
</g>
<!-- Node22&#45;&gt;Node29 -->
<g id="edge37_Node000022_Node000029" class="edge">
<title>Node22&#45;&gt;Node29</title>
<g id="a_edge37_Node000022_Node000029"><a xlink:title=" ">
<path fill="none" stroke="#63b8ff" d="M1864.17,-197.44C1867.02,-196.82 1869.85,-196.25 1872.62,-195.75 1956.96,-180.46 2188.53,-211.8 2256.62,-159.75 2276.5,-144.56 2284.03,-115.57 2286.89,-95.65"/>
<polygon fill="#63b8ff" stroke="#63b8ff" points="2290.35,-96.2 2287.98,-85.87 2283.39,-95.42 2290.35,-96.2"/>
</a>
</g>
</g>
<!-- Node30 -->
<g id="Node000030" class="node">
<title>Node30</title>
<g id="a_Node000030"><a xlink:title=" ">
<polygon fill="#e0e0e0" stroke="#999999" points="2105.12,-153.38 1960.12,-153.38 1960.12,-132.62 2105.12,-132.62 2105.12,-153.38"/>
<text text-anchor="middle" x="2032.62" y="-139.88" font-family="Helvetica,sans-Serif" font-size="10.00">boost/range/algorithm.hpp</text>
</a>
</g>
</g>
<!-- Node22&#45;&gt;Node30 -->
<g id="edge39_Node000022_Node000030" class="edge">
<title>Node22&#45;&gt;Node30</title>
<g id="a_edge39_Node000022_Node000030"><a xlink:title=" ">
<path fill="none" stroke="#63b8ff" d="M1864.37,-196.1C1902.4,-184.32 1954.27,-168.26 1990.33,-157.1"/>
<polygon fill="#63b8ff" stroke="#63b8ff" points="1991.01,-160.55 1999.53,-154.25 1988.94,-153.86 1991.01,-160.55"/>
</a>
</g>
</g>
<!-- Node31 -->
<g id="Node000031" class="node">
<title>Node31</title>
<g id="a_Node000031"><a xlink:title=" ">
<polygon fill="#e0e0e0" stroke="#999999" points="2247.62,-159.75 2123.62,-159.75 2123.62,-126.25 2247.62,-126.25 2247.62,-159.75"/>
<text text-anchor="start" x="2131.62" y="-146.25" font-family="Helvetica,sans-Serif" font-size="10.00">boost/range/algorithm</text>
<text text-anchor="middle" x="2185.62" y="-133.5" font-family="Helvetica,sans-Serif" font-size="10.00">_ext.hpp</text>
</a>
</g>
</g>
<!-- Node22&#45;&gt;Node31 -->
<g id="edge40_Node000022_Node000031" class="edge">
<title>Node22&#45;&gt;Node31</title>
<g id="a_edge40_Node000022_Node000031"><a xlink:title=" ">
<path fill="none" stroke="#63b8ff" d="M1864.21,-197.62C1867.05,-196.96 1869.87,-196.33 1872.62,-195.75 1975.52,-174.2 2005.71,-179.16 2112.1,-160.13"/>
<polygon fill="#63b8ff" stroke="#63b8ff" points="2112.64,-163.59 2121.85,-158.35 2111.38,-156.7 2112.64,-163.59"/>
</a>
</g>
</g>
<!-- Node32 -->
<g id="Node000032" class="node">
<title>Node32</title>
<g id="a_Node000032"><a xlink:href="vectorized__operations_8h.html" target="_top" xlink:title=" ">
<polygon fill="white" stroke="#666666" points="2549.62,-159.75 2413.62,-159.75 2413.62,-126.25 2549.62,-126.25 2549.62,-159.75"/>
<text text-anchor="start" x="2421.62" y="-146.25" font-family="Helvetica,sans-Serif" font-size="10.00">prismspf/utilities</text>
<text text-anchor="middle" x="2481.62" y="-133.5" font-family="Helvetica,sans-Serif" font-size="10.00">/vectorized_operations.h</text>
</a>
</g>
</g>
<!-- Node22&#45;&gt;Node32 -->
<g id="edge41_Node000022_Node000032" class="edge">
<title>Node22&#45;&gt;Node32</title>
<g id="a_edge41_Node000022_Node000032"><a xlink:title=" ">
<path fill="none" stroke="#63b8ff" d="M1864.16,-197.36C1867.01,-196.76 1869.85,-196.22 1872.62,-195.75 2102.69,-157.12 2167.76,-190.49 2401.99,-159.98"/>
<polygon fill="#63b8ff" stroke="#63b8ff" points="2402.32,-163.47 2411.77,-158.68 2401.4,-156.53 2402.32,-163.47"/>
</a>
</g>
</g>
<!-- Node34 -->
<g id="Node000034" class="node">
<title>Node34</title>
<g id="a_Node000034"><a xlink:title=" ">
<polygon fill="#e0e0e0" stroke="#999999" points="2395.88,-153.38 2303.38,-153.38 2303.38,-132.62 2395.88,-132.62 2395.88,-153.38"/>
<text text-anchor="middle" x="2349.62" y="-139.88" font-family="Helvetica,sans-Serif" font-size="10.00">unordered_map</text>
</a>
</g>
</g>
<!-- Node22&#45;&gt;Node34 -->
<g id="edge48_Node000022_Node000034" class="edge">
<title>Node22&#45;&gt;Node34</title>
<g id="a_edge48_Node000022_Node000034"><a xlink:title=" ">
<path fill="none" stroke="#63b8ff" d="M1864.17,-197.42C1867.02,-196.81 1869.85,-196.24 1872.62,-195.75 2055.79,-163.25 2106.33,-191.48 2289.62,-159.75 2294.66,-158.88 2299.88,-157.79 2305.06,-156.6"/>
<polygon fill="#63b8ff" stroke="#63b8ff" points="2305.87,-160 2314.74,-154.21 2304.19,-153.2 2305.87,-160"/>
</a>
</g>
</g>
<!-- Node32&#45;&gt;Node6 -->
<g id="edge43_Node000032_Node000006" class="edge">
<title>Node32&#45;&gt;Node6</title>
<g id="a_edge43_Node000032_Node000006"><a xlink:title=" ">
<path fill="none" stroke="#63b8ff" d="M2467.53,-126.03C2448.26,-105.5 2411.49,-70.84 2371.62,-56.75 2277.95,-23.64 682.7,-28.18 583.62,-20.75 580.22,-20.49 576.72,-20.19 573.2,-19.84"/>
<polygon fill="#63b8ff" stroke="#63b8ff" points="573.73,-16.38 563.41,-18.8 572.98,-23.34 573.73,-16.38"/>
</a>
</g>
</g>
<!-- Node32&#45;&gt;Node29 -->
<g id="edge42_Node000032_Node000029" class="edge">
<title>Node32&#45;&gt;Node29</title>
<g id="a_edge42_Node000032_Node000029"><a xlink:title=" ">
<path fill="none" stroke="#63b8ff" d="M2435.4,-125.83C2402.52,-114.33 2358.85,-99.06 2327.71,-88.17"/>
<polygon fill="#63b8ff" stroke="#63b8ff" points="2328.87,-84.87 2318.27,-84.87 2326.56,-91.47 2328.87,-84.87"/>
</a>
</g>
</g>
<!-- Node33 -->
<g id="Node000033" class="node">
<title>Node33</title>
<g id="a_Node000033"><a xlink:title=" ">
<polygon fill="#e0e0e0" stroke="#999999" points="2505,-83.88 2458.25,-83.88 2458.25,-63.12 2505,-63.12 2505,-83.88"/>
<text text-anchor="middle" x="2481.62" y="-70.38" font-family="Helvetica,sans-Serif" font-size="10.00">cmath</text>
</a>
</g>
</g>
<!-- Node32&#45;&gt;Node33 -->
<g id="edge44_Node000032_Node000033" class="edge">
<title>Node32&#45;&gt;Node33</title>
<g id="a_edge44_Node000032_Node000033"><a xlink:title=" ">
<path fill="none" stroke="#63b8ff" d="M2481.62,-126C2481.62,-116.9 2481.62,-105.39 2481.62,-95.57"/>
<polygon fill="#63b8ff" stroke="#63b8ff" points="2485.13,-95.84 2481.63,-85.84 2478.13,-95.84 2485.13,-95.84"/>
</a>
</g>
</g>
</g>
</svg>
