<?xml version="1.0" encoding="UTF-8" standalone="no"?>
<!DOCTYPE svg PUBLIC "-//W3C//DTD SVG 1.1//EN"
 "http://www.w3.org/Graphics/SVG/1.1/DTD/svg11.dtd">
<!-- Generated by graphviz version 12.2.1 (20241206.2353)
 -->
<!-- Title: /__w/phaseField/phaseField/include/prismspf/user_inputs/miscellaneous_parameters.h Pages: 1 -->
<svg width="1299pt" height="782pt"
 viewBox="0.00 0.00 1299.38 781.75" xmlns="http://www.w3.org/2000/svg" xmlns:xlink="http://www.w3.org/1999/xlink">
<g id="graph0" class="graph" transform="scale(1 1) rotate(0) translate(4 777.75)">
<title>/__w/phaseField/phaseField/include/prismspf/user_inputs/miscellaneous_parameters.h</title>
<!-- Node1 -->
<g id="Node000001" class="node">
<title>Node1</title>
<g id="a_Node000001"><a xlink:title=" ">
<polygon fill="#999999" stroke="#666666" points="476,-773.75 316,-773.75 316,-727.5 476,-727.5 476,-773.75"/>
<text text-anchor="start" x="324" y="-760.25" font-family="Helvetica,sans-Serif" font-size="10.00">/__w/phaseField/phaseField</text>
<text text-anchor="start" x="324" y="-747.5" font-family="Helvetica,sans-Serif" font-size="10.00">/include/prismspf/user_inputs</text>
<text text-anchor="middle" x="396" y="-734.75" font-family="Helvetica,sans-Serif" font-size="10.00">/miscellaneous_parameters.h</text>
</a>
</g>
</g>
<!-- Node2 -->
<g id="Node000002" class="node">
<title>Node2</title>
<g id="a_Node000002"><a xlink:href="nucleation__manager_8h.html" target="_top" xlink:title=" ">
<polygon fill="white" stroke="#666666" points="182,-444.75 28,-444.75 28,-398.5 182,-398.5 182,-444.75"/>
<text text-anchor="start" x="36" y="-431.25" font-family="Helvetica,sans-Serif" font-size="10.00">/__w/phaseField/phaseField</text>
<text text-anchor="start" x="36" y="-418.5" font-family="Helvetica,sans-Serif" font-size="10.00">/include/prismspf/nucleation</text>
<text text-anchor="middle" x="105" y="-405.75" font-family="Helvetica,sans-Serif" font-size="10.00">/nucleation_manager.h</text>
</a>
</g>
</g>
<!-- Node1&#45;&gt;Node2 -->
<g id="edge1_Node000001_Node000002" class="edge">
<title>Node1&#45;&gt;Node2</title>
<g id="a_edge1_Node000001_Node000002"><a xlink:title=" ">
<path fill="none" stroke="#63b8ff" d="M304.82,-732.11C235.95,-713.79 145.32,-677.75 97,-609.25 62.04,-559.7 82.42,-482.96 95.95,-445.19"/>
<polygon fill="#63b8ff" stroke="#63b8ff" points="303.65,-735.42 314.2,-734.52 305.39,-728.64 303.65,-735.42"/>
</a>
</g>
</g>
<!-- Node5 -->
<g id="Node000005" class="node">
<title>Node5</title>
<g id="a_Node000005"><a xlink:href="user__input__parameters_8h.html" target="_top" xlink:title=" ">
<polygon fill="white" stroke="#666666" points="475.62,-691.5 316.38,-691.5 316.38,-645.25 475.62,-645.25 475.62,-691.5"/>
<text text-anchor="start" x="324.38" y="-678" font-family="Helvetica,sans-Serif" font-size="10.00">/__w/phaseField/phaseField</text>
<text text-anchor="start" x="324.38" y="-665.25" font-family="Helvetica,sans-Serif" font-size="10.00">/include/prismspf/user_inputs</text>
<text text-anchor="middle" x="396" y="-652.5" font-family="Helvetica,sans-Serif" font-size="10.00">/user_input_parameters.h</text>
</a>
</g>
</g>
<!-- Node1&#45;&gt;Node5 -->
<g id="edge4_Node000001_Node000005" class="edge">
<title>Node1&#45;&gt;Node5</title>
<g id="a_edge4_Node000001_Node000005"><a xlink:title=" ">
<path fill="none" stroke="#63b8ff" d="M396,-715.84C396,-707.75 396,-699.32 396,-691.89"/>
<polygon fill="#63b8ff" stroke="#63b8ff" points="392.5,-715.76 396,-725.76 399.5,-715.76 392.5,-715.76"/>
</a>
</g>
</g>
<!-- Node25 -->
<g id="Node000025" class="node">
<title>Node25</title>
<g id="a_Node000025"><a xlink:href="miscellaneous__parameters_8cc.html" target="_top" xlink:title=" ">
<polygon fill="white" stroke="#666666" points="660,-691.5 494,-691.5 494,-645.25 660,-645.25 660,-691.5"/>
<text text-anchor="start" x="502" y="-678" font-family="Helvetica,sans-Serif" font-size="10.00">/__w/phaseField/phaseField</text>
<text text-anchor="start" x="502" y="-665.25" font-family="Helvetica,sans-Serif" font-size="10.00">/src/user_inputs/miscellaneous</text>
<text text-anchor="middle" x="577" y="-652.5" font-family="Helvetica,sans-Serif" font-size="10.00">_parameters.cc</text>
</a>
</g>
</g>
<!-- Node1&#45;&gt;Node25 -->
<g id="edge46_Node000001_Node000025" class="edge">
<title>Node1&#45;&gt;Node25</title>
<g id="a_edge46_Node000001_Node000025"><a xlink:title=" ">
<path fill="none" stroke="#63b8ff" d="M457.32,-722.44C479.71,-712.51 504.78,-701.39 526.17,-691.91"/>
<polygon fill="#63b8ff" stroke="#63b8ff" points="456.01,-719.19 448.28,-726.44 458.84,-725.59 456.01,-719.19"/>
</a>
</g>
</g>
<!-- Node3 -->
<g id="Node000003" class="node">
<title>Node3</title>
<g id="a_Node000003"><a xlink:href="problem_8h.html" target="_top" xlink:title=" ">
<polygon fill="white" stroke="#666666" points="290.25,-273.88 113.75,-273.88 113.75,-240.38 290.25,-240.38 290.25,-273.88"/>
<text text-anchor="start" x="121.75" y="-260.38" font-family="Helvetica,sans-Serif" font-size="10.00">/__w/phaseField/phaseField</text>
<text text-anchor="middle" x="202" y="-247.62" font-family="Helvetica,sans-Serif" font-size="10.00">/include/prismspf/core/problem.h</text>
</a>
</g>
</g>
<!-- Node2&#45;&gt;Node3 -->
<g id="edge2_Node000002_Node000003" class="edge">
<title>Node2&#45;&gt;Node3</title>
<g id="a_edge2_Node000002_Node000003"><a xlink:title=" ">
<path fill="none" stroke="#63b8ff" d="M107.05,-386.95C109.68,-365.35 115.62,-337.49 129,-316.25 139.97,-298.84 158.02,-284.4 173.43,-274.27"/>
<polygon fill="#63b8ff" stroke="#63b8ff" points="103.59,-386.41 106.06,-396.71 110.55,-387.12 103.59,-386.41"/>
</a>
</g>
</g>
<!-- Node4 -->
<g id="Node000004" class="node">
<title>Node4</title>
<g id="a_Node000004"><a xlink:href="problem_8cc.html" target="_top" xlink:title=" ">
<polygon fill="white" stroke="#666666" points="453.38,-33.5 304.62,-33.5 304.62,0 453.38,0 453.38,-33.5"/>
<text text-anchor="start" x="312.62" y="-20" font-family="Helvetica,sans-Serif" font-size="10.00">/__w/phaseField/phaseField</text>
<text text-anchor="middle" x="379" y="-7.25" font-family="Helvetica,sans-Serif" font-size="10.00">/src/core/problem.cc</text>
</a>
</g>
</g>
<!-- Node3&#45;&gt;Node4 -->
<g id="edge3_Node000003_Node000004" class="edge">
<title>Node3&#45;&gt;Node4</title>
<g id="a_edge3_Node000003_Node000004"><a xlink:title=" ">
<path fill="none" stroke="#63b8ff" d="M220.57,-231.12C257.02,-182.03 336.99,-74.33 367.16,-33.69"/>
<polygon fill="#63b8ff" stroke="#63b8ff" points="217.94,-228.78 214.79,-238.9 223.56,-232.96 217.94,-228.78"/>
</a>
</g>
</g>
<!-- Node5&#45;&gt;Node2 -->
<g id="edge40_Node000005_Node000002" class="edge">
<title>Node5&#45;&gt;Node2</title>
<g id="a_edge40_Node000005_Node000002"><a xlink:title=" ">
<path fill="none" stroke="#63b8ff" d="M304.7,-659.32C235.33,-651.18 147.89,-635.9 124,-609.25 83.02,-563.54 92.09,-483.96 99.72,-445.17"/>
<polygon fill="#63b8ff" stroke="#63b8ff" points="304.27,-662.79 314.6,-660.44 305.06,-655.83 304.27,-662.79"/>
</a>
</g>
</g>
<!-- Node5&#45;&gt;Node4 -->
<g id="edge44_Node000005_Node000004" class="edge">
<title>Node5&#45;&gt;Node4</title>
<g id="a_edge44_Node000005_Node000004"><a xlink:title=" ">
<path fill="none" stroke="#63b8ff" d="M304.85,-664.31C242.88,-658.84 160.87,-644.72 97,-609.25 41.64,-578.5 0,-568.2 0,-504.88 0,-504.88 0,-504.88 0,-173.88 0,-108.67 194.2,-56.82 304.57,-32.61"/>
<polygon fill="#63b8ff" stroke="#63b8ff" points="304.42,-667.79 314.67,-665.12 304.99,-660.81 304.42,-667.79"/>
</a>
</g>
</g>
<!-- Node6 -->
<g id="Node000006" class="node">
<title>Node6</title>
<g id="a_Node000006"><a xlink:href="pde__operator__base_8h.html" target="_top" xlink:title=" ">
<polygon fill="white" stroke="#666666" points="675.38,-609.25 526.62,-609.25 526.62,-563 675.38,-563 675.38,-609.25"/>
<text text-anchor="start" x="534.62" y="-595.75" font-family="Helvetica,sans-Serif" font-size="10.00">/__w/phaseField/phaseField</text>
<text text-anchor="start" x="534.62" y="-583" font-family="Helvetica,sans-Serif" font-size="10.00">/include/prismspf/core/pde</text>
<text text-anchor="middle" x="601" y="-570.25" font-family="Helvetica,sans-Serif" font-size="10.00">_operator_base.h</text>
</a>
</g>
</g>
<!-- Node5&#45;&gt;Node6 -->
<g id="edge5_Node000005_Node000006" class="edge">
<title>Node5&#45;&gt;Node6</title>
<g id="a_edge5_Node000005_Node000006"><a xlink:title=" ">
<path fill="none" stroke="#63b8ff" d="M464.07,-640.73C489.79,-630.66 518.77,-619.32 543.43,-609.66"/>
<polygon fill="#63b8ff" stroke="#63b8ff" points="463.09,-637.35 455.06,-644.26 465.65,-643.87 463.09,-637.35"/>
</a>
</g>
</g>
<!-- Node14 -->
<g id="Node000014" class="node">
<title>Node14</title>
<g id="a_Node000014"><a xlink:href="solve__context_8h.html" target="_top" xlink:title=" ">
<polygon fill="white" stroke="#666666" points="333.38,-527 184.62,-527 184.62,-480.75 333.38,-480.75 333.38,-527"/>
<text text-anchor="start" x="192.62" y="-513.5" font-family="Helvetica,sans-Serif" font-size="10.00">/__w/phaseField/phaseField</text>
<text text-anchor="start" x="192.62" y="-500.75" font-family="Helvetica,sans-Serif" font-size="10.00">/include/prismspf/solvers</text>
<text text-anchor="middle" x="259" y="-488" font-family="Helvetica,sans-Serif" font-size="10.00">/solve_context.h</text>
</a>
</g>
</g>
<!-- Node5&#45;&gt;Node14 -->
<g id="edge41_Node000005_Node000014" class="edge">
<title>Node5&#45;&gt;Node14</title>
<g id="a_edge41_Node000005_Node000014"><a xlink:title=" ">
<path fill="none" stroke="#63b8ff" d="M453.31,-638.35C463.65,-630.39 473.03,-620.72 479,-609.25 488.49,-591.02 491.54,-579.29 479,-563 478.93,-562.9 397.51,-541.41 333.76,-524.59"/>
<polygon fill="#63b8ff" stroke="#63b8ff" points="451.42,-635.41 445.27,-644.04 455.46,-641.12 451.42,-635.41"/>
</a>
</g>
</g>
<!-- Node16 -->
<g id="Node000016" class="node">
<title>Node16</title>
<g id="a_Node000016"><a xlink:href="solution__output_8h.html" target="_top" xlink:title=" ">
<polygon fill="white" stroke="#666666" points="514,-444.75 348,-444.75 348,-398.5 514,-398.5 514,-444.75"/>
<text text-anchor="start" x="356" y="-431.25" font-family="Helvetica,sans-Serif" font-size="10.00">/__w/phaseField/phaseField</text>
<text text-anchor="start" x="356" y="-418.5" font-family="Helvetica,sans-Serif" font-size="10.00">/include/prismspf/core/solution</text>
<text text-anchor="middle" x="431" y="-405.75" font-family="Helvetica,sans-Serif" font-size="10.00">_output.h</text>
</a>
</g>
</g>
<!-- Node5&#45;&gt;Node16 -->
<g id="edge39_Node000005_Node000016" class="edge">
<title>Node5&#45;&gt;Node16</title>
<g id="a_edge39_Node000005_Node000016"><a xlink:title=" ">
<path fill="none" stroke="#63b8ff" d="M487.1,-645.25C544.81,-636.67 657.05,-641.52 684,-609.25 720.61,-565.42 719.58,-525.43 684,-480.75 662.94,-454.31 579.7,-438.9 514.38,-430.67"/>
<polygon fill="#63b8ff" stroke="#63b8ff" points="486.72,-641.76 477.49,-646.96 487.95,-648.65 486.72,-641.76"/>
</a>
</g>
</g>
<!-- Node18 -->
<g id="Node000018" class="node">
<title>Node18</title>
<g id="a_Node000018"><a xlink:href="solver__base_8h.html" target="_top" xlink:title=" ">
<polygon fill="white" stroke="#666666" points="777.38,-444.75 628.62,-444.75 628.62,-398.5 777.38,-398.5 777.38,-444.75"/>
<text text-anchor="start" x="636.62" y="-431.25" font-family="Helvetica,sans-Serif" font-size="10.00">/__w/phaseField/phaseField</text>
<text text-anchor="start" x="636.62" y="-418.5" font-family="Helvetica,sans-Serif" font-size="10.00">/include/prismspf/solvers</text>
<text text-anchor="middle" x="703" y="-405.75" font-family="Helvetica,sans-Serif" font-size="10.00">/solver_base.h</text>
</a>
</g>
</g>
<!-- Node5&#45;&gt;Node18 -->
<g id="edge42_Node000005_Node000018" class="edge">
<title>Node5&#45;&gt;Node18</title>
<g id="a_edge42_Node000005_Node000018"><a xlink:title=" ">
<path fill="none" stroke="#63b8ff" d="M487.11,-645.28C550.94,-636.44 679.07,-645.52 710,-609.25 749.66,-562.74 727.12,-483.54 712.47,-445.01"/>
<polygon fill="#63b8ff" stroke="#63b8ff" points="486.75,-641.79 477.47,-646.9 487.92,-648.69 486.75,-641.79"/>
</a>
</g>
</g>
<!-- Node23 -->
<g id="Node000023" class="node">
<title>Node23</title>
<g id="a_Node000023"><a xlink:href="constraint__manager_8cc.html" target="_top" xlink:title=" ">
<polygon fill="white" stroke="#666666" points="303.25,-602.88 132.75,-602.88 132.75,-569.38 303.25,-569.38 303.25,-602.88"/>
<text text-anchor="start" x="140.75" y="-589.38" font-family="Helvetica,sans-Serif" font-size="10.00">/__w/phaseField/phaseField</text>
<text text-anchor="middle" x="218" y="-576.62" font-family="Helvetica,sans-Serif" font-size="10.00">/src/core/constraint_manager.cc</text>
</a>
</g>
</g>
<!-- Node5&#45;&gt;Node23 -->
<g id="edge43_Node000005_Node000023" class="edge">
<title>Node5&#45;&gt;Node23</title>
<g id="a_edge43_Node000005_Node000023"><a xlink:title=" ">
<path fill="none" stroke="#63b8ff" d="M335.74,-640.21C308.53,-627.94 277.32,-613.87 253.87,-603.3"/>
<polygon fill="#63b8ff" stroke="#63b8ff" points="334.01,-643.27 344.56,-644.19 336.89,-636.88 334.01,-643.27"/>
</a>
</g>
</g>
<!-- Node24 -->
<g id="Node000024" class="node">
<title>Node24</title>
<g id="a_Node000024"><a xlink:href="user__input__parameters_8cc.html" target="_top" xlink:title=" ">
<polygon fill="white" stroke="#666666" points="470.38,-609.25 321.62,-609.25 321.62,-563 470.38,-563 470.38,-609.25"/>
<text text-anchor="start" x="329.62" y="-595.75" font-family="Helvetica,sans-Serif" font-size="10.00">/__w/phaseField/phaseField</text>
<text text-anchor="start" x="329.62" y="-583" font-family="Helvetica,sans-Serif" font-size="10.00">/src/user_inputs/user_input</text>
<text text-anchor="middle" x="396" y="-570.25" font-family="Helvetica,sans-Serif" font-size="10.00">_parameters.cc</text>
</a>
</g>
</g>
<!-- Node5&#45;&gt;Node24 -->
<g id="edge45_Node000005_Node000024" class="edge">
<title>Node5&#45;&gt;Node24</title>
<g id="a_edge45_Node000005_Node000024"><a xlink:title=" ">
<path fill="none" stroke="#63b8ff" d="M396,-633.59C396,-625.5 396,-617.07 396,-609.64"/>
<polygon fill="#63b8ff" stroke="#63b8ff" points="392.5,-633.51 396,-643.51 399.5,-633.51 392.5,-633.51"/>
</a>
</g>
</g>
<!-- Node7 -->
<g id="Node000007" class="node">
<title>Node7</title>
<g id="a_Node000007"><a xlink:href="mf__operator_8h.html" target="_top" xlink:title=" ">
<polygon fill="white" stroke="#666666" points="1086.38,-362.5 937.62,-362.5 937.62,-316.25 1086.38,-316.25 1086.38,-362.5"/>
<text text-anchor="start" x="945.62" y="-349" font-family="Helvetica,sans-Serif" font-size="10.00">/__w/phaseField/phaseField</text>
<text text-anchor="start" x="945.62" y="-336.25" font-family="Helvetica,sans-Serif" font-size="10.00">/include/prismspf/solvers</text>
<text text-anchor="middle" x="1012" y="-323.5" font-family="Helvetica,sans-Serif" font-size="10.00">/mf_operator.h</text>
</a>
</g>
</g>
<!-- Node6&#45;&gt;Node7 -->
<g id="edge6_Node000006_Node000007" class="edge">
<title>Node6&#45;&gt;Node7</title>
<g id="a_edge6_Node000006_Node000007"><a xlink:title=" ">
<path fill="none" stroke="#63b8ff" d="M652.44,-557.21C669.57,-547.77 688.68,-537.07 706,-527 804.71,-469.61 919.13,-398.61 976.03,-362.99"/>
<polygon fill="#63b8ff" stroke="#63b8ff" points="651.02,-554 643.94,-561.88 654.39,-560.13 651.02,-554"/>
</a>
</g>
</g>
<!-- Node6&#45;&gt;Node14 -->
<g id="edge17_Node000006_Node000014" class="edge">
<title>Node6&#45;&gt;Node14</title>
<g id="a_edge17_Node000006_Node000014"><a xlink:title=" ">
<path fill="none" stroke="#63b8ff" d="M515.07,-563.71C514.04,-563.47 513.02,-563.23 512,-563 437.17,-545.73 417.71,-544.79 343,-527 339.92,-526.27 336.78,-525.5 333.61,-524.72"/>
<polygon fill="#63b8ff" stroke="#63b8ff" points="514.25,-567.11 524.79,-566 515.86,-560.3 514.25,-567.11"/>
</a>
</g>
</g>
<!-- Node6&#45;&gt;Node18 -->
<g id="edge36_Node000006_Node000018" class="edge">
<title>Node6&#45;&gt;Node18</title>
<g id="a_edge36_Node000006_Node000018"><a xlink:title=" ">
<path fill="none" stroke="#63b8ff" d="M655.46,-556.2C666.39,-548.1 676.73,-538.34 684,-527 699.9,-502.19 703.35,-467.62 703.7,-445.18"/>
<polygon fill="#63b8ff" stroke="#63b8ff" points="653.66,-553.19 647.44,-561.76 657.65,-558.94 653.66,-553.19"/>
</a>
</g>
</g>
<!-- Node21 -->
<g id="Node000021" class="node">
<title>Node21</title>
<g id="a_Node000021"><a xlink:href="dirichlet_8cc.html" target="_top" xlink:title=" ">
<polygon fill="white" stroke="#666666" points="675.38,-520.62 526.62,-520.62 526.62,-487.12 675.38,-487.12 675.38,-520.62"/>
<text text-anchor="start" x="534.62" y="-507.12" font-family="Helvetica,sans-Serif" font-size="10.00">/__w/phaseField/phaseField</text>
<text text-anchor="middle" x="601" y="-494.38" font-family="Helvetica,sans-Serif" font-size="10.00">/src/core/dirichlet.cc</text>
</a>
</g>
</g>
<!-- Node6&#45;&gt;Node21 -->
<g id="edge37_Node000006_Node000021" class="edge">
<title>Node6&#45;&gt;Node21</title>
<g id="a_edge37_Node000006_Node000021"><a xlink:title=" ">
<path fill="none" stroke="#63b8ff" d="M601,-551.32C601,-540.82 601,-529.72 601,-521"/>
<polygon fill="#63b8ff" stroke="#63b8ff" points="597.5,-551.26 601,-561.26 604.5,-551.26 597.5,-551.26"/>
</a>
</g>
</g>
<!-- Node22 -->
<g id="Node000022" class="node">
<title>Node22</title>
<g id="a_Node000022"><a xlink:href="initial__conditions_8cc.html" target="_top" xlink:title=" ">
<polygon fill="white" stroke="#666666" points="508.5,-520.62 351.5,-520.62 351.5,-487.12 508.5,-487.12 508.5,-520.62"/>
<text text-anchor="start" x="359.5" y="-507.12" font-family="Helvetica,sans-Serif" font-size="10.00">/__w/phaseField/phaseField</text>
<text text-anchor="middle" x="430" y="-494.38" font-family="Helvetica,sans-Serif" font-size="10.00">/src/core/initial_conditions.cc</text>
</a>
</g>
</g>
<!-- Node6&#45;&gt;Node22 -->
<g id="edge38_Node000006_Node000022" class="edge">
<title>Node6&#45;&gt;Node22</title>
<g id="a_edge38_Node000006_Node000022"><a xlink:title=" ">
<path fill="none" stroke="#63b8ff" d="M542.76,-557.79C516.71,-545.57 486.89,-531.57 464.46,-521.05"/>
<polygon fill="#63b8ff" stroke="#63b8ff" points="541,-560.83 551.54,-561.91 543.98,-554.5 541,-560.83"/>
</a>
</g>
</g>
<!-- Node8 -->
<g id="Node000008" class="node">
<title>Node8</title>
<g id="a_Node000008"><a xlink:href="explicit__solver_8h.html" target="_top" xlink:title=" ">
<polygon fill="white" stroke="#666666" points="882.38,-280.25 733.62,-280.25 733.62,-234 882.38,-234 882.38,-280.25"/>
<text text-anchor="start" x="741.62" y="-266.75" font-family="Helvetica,sans-Serif" font-size="10.00">/__w/phaseField/phaseField</text>
<text text-anchor="start" x="741.62" y="-254" font-family="Helvetica,sans-Serif" font-size="10.00">/include/prismspf/solvers</text>
<text text-anchor="middle" x="808" y="-241.25" font-family="Helvetica,sans-Serif" font-size="10.00">/explicit_solver.h</text>
</a>
</g>
</g>
<!-- Node7&#45;&gt;Node8 -->
<g id="edge7_Node000007_Node000008" class="edge">
<title>Node7&#45;&gt;Node8</title>
<g id="a_edge7_Node000007_Node000008"><a xlink:title=" ">
<path fill="none" stroke="#63b8ff" d="M943.92,-311.59C918.42,-301.56 889.72,-290.27 865.29,-280.66"/>
<polygon fill="#63b8ff" stroke="#63b8ff" points="942.64,-314.85 953.22,-315.25 945.2,-308.34 942.64,-314.85"/>
</a>
</g>
</g>
<!-- Node11 -->
<g id="Node000011" class="node">
<title>Node11</title>
<g id="a_Node000011"><a xlink:href="linear__solver_8h.html" target="_top" xlink:title=" ">
<polygon fill="white" stroke="#666666" points="1291.38,-280.25 1142.62,-280.25 1142.62,-234 1291.38,-234 1291.38,-280.25"/>
<text text-anchor="start" x="1150.62" y="-266.75" font-family="Helvetica,sans-Serif" font-size="10.00">/__w/phaseField/phaseField</text>
<text text-anchor="start" x="1150.62" y="-254" font-family="Helvetica,sans-Serif" font-size="10.00">/include/prismspf/solvers</text>
<text text-anchor="middle" x="1217" y="-241.25" font-family="Helvetica,sans-Serif" font-size="10.00">/linear_solver.h</text>
</a>
</g>
</g>
<!-- Node7&#45;&gt;Node11 -->
<g id="edge11_Node000007_Node000011" class="edge">
<title>Node7&#45;&gt;Node11</title>
<g id="a_edge11_Node000007_Node000011"><a xlink:title=" ">
<path fill="none" stroke="#63b8ff" d="M1080.07,-311.73C1105.79,-301.66 1134.77,-290.32 1159.43,-280.66"/>
<polygon fill="#63b8ff" stroke="#63b8ff" points="1079.09,-308.35 1071.06,-315.26 1081.65,-314.87 1079.09,-308.35"/>
</a>
</g>
</g>
<!-- Node12 -->
<g id="Node000012" class="node">
<title>Node12</title>
<g id="a_Node000012"><a xlink:href="newton__solver_8h.html" target="_top" xlink:title=" ">
<polygon fill="white" stroke="#666666" points="1003.38,-198 854.62,-198 854.62,-151.75 1003.38,-151.75 1003.38,-198"/>
<text text-anchor="start" x="862.62" y="-184.5" font-family="Helvetica,sans-Serif" font-size="10.00">/__w/phaseField/phaseField</text>
<text text-anchor="start" x="862.62" y="-171.75" font-family="Helvetica,sans-Serif" font-size="10.00">/include/prismspf/solvers</text>
<text text-anchor="middle" x="929" y="-159" font-family="Helvetica,sans-Serif" font-size="10.00">/newton_solver.h</text>
</a>
</g>
</g>
<!-- Node7&#45;&gt;Node12 -->
<g id="edge15_Node000007_Node000012" class="edge">
<title>Node7&#45;&gt;Node12</title>
<g id="a_edge15_Node000007_Node000012"><a xlink:title=" ">
<path fill="none" stroke="#63b8ff" d="M984.75,-306.83C978.39,-298.53 972.02,-289.34 967,-280.25 952.29,-253.57 941.26,-220.06 934.97,-198.32"/>
<polygon fill="#63b8ff" stroke="#63b8ff" points="981.95,-308.93 990.91,-314.59 987.43,-304.58 981.95,-308.93"/>
</a>
</g>
</g>
<!-- Node13 -->
<g id="Node000013" class="node">
<title>Node13</title>
<g id="a_Node000013"><a xlink:href="mf__operator_8cc.html" target="_top" xlink:title=" ">
<polygon fill="white" stroke="#666666" points="1124.38,-273.88 975.62,-273.88 975.62,-240.38 1124.38,-240.38 1124.38,-273.88"/>
<text text-anchor="start" x="983.62" y="-260.38" font-family="Helvetica,sans-Serif" font-size="10.00">/__w/phaseField/phaseField</text>
<text text-anchor="middle" x="1050" y="-247.62" font-family="Helvetica,sans-Serif" font-size="10.00">/src/solvers/mf_operator.cc</text>
</a>
</g>
</g>
<!-- Node7&#45;&gt;Node13 -->
<g id="edge16_Node000007_Node000013" class="edge">
<title>Node7&#45;&gt;Node13</title>
<g id="a_edge16_Node000007_Node000013"><a xlink:title=" ">
<path fill="none" stroke="#63b8ff" d="M1027.37,-305.92C1032.53,-295.02 1038.06,-283.34 1042.36,-274.25"/>
<polygon fill="#63b8ff" stroke="#63b8ff" points="1024.35,-304.12 1023.23,-314.65 1030.68,-307.11 1024.35,-304.12"/>
</a>
</g>
</g>
<!-- Node9 -->
<g id="Node000009" class="node">
<title>Node9</title>
<g id="a_Node000009"><a xlink:href="solvers_8h.html" target="_top" xlink:title=" ">
<polygon fill="white" stroke="#666666" points="882.38,-115.75 733.62,-115.75 733.62,-69.5 882.38,-69.5 882.38,-115.75"/>
<text text-anchor="start" x="741.62" y="-102.25" font-family="Helvetica,sans-Serif" font-size="10.00">/__w/phaseField/phaseField</text>
<text text-anchor="start" x="741.62" y="-89.5" font-family="Helvetica,sans-Serif" font-size="10.00">/include/prismspf/solvers</text>
<text text-anchor="middle" x="808" y="-76.75" font-family="Helvetica,sans-Serif" font-size="10.00">/solvers.h</text>
</a>
</g>
</g>
<!-- Node8&#45;&gt;Node9 -->
<g id="edge8_Node000008_Node000009" class="edge">
<title>Node8&#45;&gt;Node9</title>
<g id="a_edge8_Node000008_Node000009"><a xlink:title=" ">
<path fill="none" stroke="#63b8ff" d="M808,-222.11C808,-190.22 808,-143.47 808,-116.03"/>
<polygon fill="#63b8ff" stroke="#63b8ff" points="804.5,-222.02 808,-232.02 811.5,-222.02 804.5,-222.02"/>
</a>
</g>
</g>
<!-- Node9&#45;&gt;Node4 -->
<g id="edge9_Node000009_Node000004" class="edge">
<title>Node9&#45;&gt;Node4</title>
<g id="a_edge9_Node000009_Node000004"><a xlink:title=" ">
<path fill="none" stroke="#63b8ff" d="M721.95,-76.81C643.36,-63.27 528.36,-43.47 453.59,-30.59"/>
<polygon fill="#63b8ff" stroke="#63b8ff" points="721.33,-80.25 731.78,-78.5 722.52,-73.35 721.33,-80.25"/>
</a>
</g>
</g>
<!-- Node10 -->
<g id="Node000010" class="node">
<title>Node10</title>
<g id="a_Node000010"><a xlink:href="solvers_8cc.html" target="_top" xlink:title=" ">
<polygon fill="white" stroke="#666666" points="882.38,-33.5 733.62,-33.5 733.62,0 882.38,0 882.38,-33.5"/>
<text text-anchor="start" x="741.62" y="-20" font-family="Helvetica,sans-Serif" font-size="10.00">/__w/phaseField/phaseField</text>
<text text-anchor="middle" x="808" y="-7.25" font-family="Helvetica,sans-Serif" font-size="10.00">/src/solvers/solvers.cc</text>
</a>
</g>
</g>
<!-- Node9&#45;&gt;Node10 -->
<g id="edge10_Node000009_Node000010" class="edge">
<title>Node9&#45;&gt;Node10</title>
<g id="a_edge10_Node000009_Node000010"><a xlink:title=" ">
<path fill="none" stroke="#63b8ff" d="M808,-57.64C808,-49.35 808,-40.86 808,-33.85"/>
<polygon fill="#63b8ff" stroke="#63b8ff" points="804.5,-57.55 808,-67.55 811.5,-57.55 804.5,-57.55"/>
</a>
</g>
</g>
<!-- Node11&#45;&gt;Node9 -->
<g id="edge14_Node000011_Node000009" class="edge">
<title>Node11&#45;&gt;Node9</title>
<g id="a_edge14_Node000011_Node000009"><a xlink:title=" ">
<path fill="none" stroke="#63b8ff" d="M1168.43,-228.01C1127.65,-205.24 1067.34,-173.49 1012,-151.75 970.18,-135.33 921.89,-121.35 882.79,-111.23"/>
<polygon fill="#63b8ff" stroke="#63b8ff" points="1166.61,-231.01 1177.04,-232.85 1170.04,-224.9 1166.61,-231.01"/>
</a>
</g>
</g>
<!-- Node11&#45;&gt;Node12 -->
<g id="edge12_Node000011_Node000012" class="edge">
<title>Node11&#45;&gt;Node12</title>
<g id="a_edge12_Node000011_Node000012"><a xlink:title=" ">
<path fill="none" stroke="#63b8ff" d="M1131.49,-232.3C1090.9,-220.99 1042.84,-207.6 1003.73,-196.7"/>
<polygon fill="#63b8ff" stroke="#63b8ff" points="1130.43,-235.64 1141,-234.95 1132.31,-228.89 1130.43,-235.64"/>
</a>
</g>
</g>
<!-- Node12&#45;&gt;Node9 -->
<g id="edge13_Node000012_Node000009" class="edge">
<title>Node12&#45;&gt;Node9</title>
<g id="a_edge13_Node000012_Node000009"><a xlink:title=" ">
<path fill="none" stroke="#63b8ff" d="M885.72,-145.17C871.27,-135.59 855.39,-125.06 841.77,-116.02"/>
<polygon fill="#63b8ff" stroke="#63b8ff" points="883.44,-147.86 893.71,-150.47 887.31,-142.03 883.44,-147.86"/>
</a>
</g>
</g>
<!-- Node14&#45;&gt;Node2 -->
<g id="edge25_Node000014_Node000002" class="edge">
<title>Node14&#45;&gt;Node2</title>
<g id="a_edge25_Node000014_Node000002"><a xlink:title=" ">
<path fill="none" stroke="#63b8ff" d="M205.53,-475.01C186.81,-465.26 166.03,-454.43 148.25,-445.16"/>
<polygon fill="#63b8ff" stroke="#63b8ff" points="203.86,-478.09 214.35,-479.61 207.1,-471.88 203.86,-478.09"/>
</a>
</g>
</g>
<!-- Node14&#45;&gt;Node3 -->
<g id="edge18_Node000014_Node000003" class="edge">
<title>Node14&#45;&gt;Node3</title>
<g id="a_edge18_Node000014_Node000003"><a xlink:title=" ">
<path fill="none" stroke="#63b8ff" d="M239.26,-470.76C226.1,-449.83 208.14,-422.12 191,-398.5 178.93,-381.87 168.83,-381.88 162,-362.5 155.16,-343.11 155.9,-335.88 162,-316.25 166.95,-300.34 177.93,-284.93 187.13,-273.98"/>
<polygon fill="#63b8ff" stroke="#63b8ff" points="236.24,-472.54 244.5,-479.17 242.17,-468.83 236.24,-472.54"/>
</a>
</g>
</g>
<!-- Node15 -->
<g id="Node000015" class="node">
<title>Node15</title>
<g id="a_Node000015"><a xlink:href="refinement__manager_8h.html" target="_top" xlink:title=" ">
<polygon fill="white" stroke="#666666" points="351.12,-362.5 170.88,-362.5 170.88,-316.25 351.12,-316.25 351.12,-362.5"/>
<text text-anchor="start" x="178.88" y="-349" font-family="Helvetica,sans-Serif" font-size="10.00">/__w/phaseField/phaseField</text>
<text text-anchor="start" x="178.88" y="-336.25" font-family="Helvetica,sans-Serif" font-size="10.00">/include/prismspf/core/refinement</text>
<text text-anchor="middle" x="261" y="-323.5" font-family="Helvetica,sans-Serif" font-size="10.00">_manager.h</text>
</a>
</g>
</g>
<!-- Node14&#45;&gt;Node15 -->
<g id="edge19_Node000014_Node000015" class="edge">
<title>Node14&#45;&gt;Node15</title>
<g id="a_edge19_Node000014_Node000015"><a xlink:title=" ">
<path fill="none" stroke="#63b8ff" d="M259.42,-468.86C259.81,-436.97 260.39,-390.22 260.72,-362.78"/>
<polygon fill="#63b8ff" stroke="#63b8ff" points="255.92,-468.72 259.3,-478.77 262.92,-468.81 255.92,-468.72"/>
</a>
</g>
</g>
<!-- Node14&#45;&gt;Node16 -->
<g id="edge21_Node000014_Node000016" class="edge">
<title>Node14&#45;&gt;Node16</title>
<g id="a_edge21_Node000014_Node000016"><a xlink:title=" ">
<path fill="none" stroke="#63b8ff" d="M317.56,-475.55C338.77,-465.66 362.47,-454.6 382.7,-445.16"/>
<polygon fill="#63b8ff" stroke="#63b8ff" points="316.32,-472.27 308.74,-479.67 319.28,-478.61 316.32,-472.27"/>
</a>
</g>
</g>
<!-- Node14&#45;&gt;Node18 -->
<g id="edge26_Node000014_Node000018" class="edge">
<title>Node14&#45;&gt;Node18</title>
<g id="a_edge26_Node000014_Node000018"><a xlink:title=" ">
<path fill="none" stroke="#63b8ff" d="M344.59,-480.51C448.61,-458.84 557.55,-442.38 628.14,-432.54"/>
<polygon fill="#63b8ff" stroke="#63b8ff" points="344.11,-477.04 335.05,-482.52 345.55,-483.89 344.11,-477.04"/>
</a>
</g>
</g>
<!-- Node15&#45;&gt;Node3 -->
<g id="edge20_Node000015_Node000003" class="edge">
<title>Node15&#45;&gt;Node3</title>
<g id="a_edge20_Node000015_Node000003"><a xlink:title=" ">
<path fill="none" stroke="#63b8ff" d="M237.88,-306.93C229.66,-295.75 220.75,-283.62 213.86,-274.25"/>
<polygon fill="#63b8ff" stroke="#63b8ff" points="234.93,-308.82 243.67,-314.8 240.57,-304.67 234.93,-308.82"/>
</a>
</g>
</g>
<!-- Node16&#45;&gt;Node4 -->
<g id="edge23_Node000016_Node000004" class="edge">
<title>Node16&#45;&gt;Node4</title>
<g id="a_edge23_Node000016_Node000004"><a xlink:title=" ">
<path fill="none" stroke="#63b8ff" d="M410.05,-388.19C405.52,-380.05 401.15,-371.17 398,-362.5 381.91,-318.18 379,-305.28 379,-258.12 379,-258.12 379,-258.12 379,-173.88 379,-122.65 379,-61.96 379,-33.71"/>
<polygon fill="#63b8ff" stroke="#63b8ff" points="406.97,-389.84 415.04,-396.71 413.01,-386.31 406.97,-389.84"/>
</a>
</g>
</g>
<!-- Node16&#45;&gt;Node16 -->
<g id="edge22_Node000016_Node000016" class="edge">
<title>Node16&#45;&gt;Node16</title>
<g id="a_edge22_Node000016_Node000016"><a xlink:title=" ">
<path fill="none" stroke="#63b8ff" d="M524.89,-431.4C529.37,-428.95 532,-425.69 532,-421.62 532,-414.96 524.92,-410.45 514.21,-408.11"/>
<polygon fill="#63b8ff" stroke="#63b8ff" points="523.92,-428.04 515.64,-434.64 526.23,-434.64 523.92,-428.04"/>
</a>
</g>
</g>
<!-- Node17 -->
<g id="Node000017" class="node">
<title>Node17</title>
<g id="a_Node000017"><a xlink:href="solution__output_8cc.html" target="_top" xlink:title=" ">
<polygon fill="white" stroke="#666666" points="556.75,-356.12 407.25,-356.12 407.25,-322.62 556.75,-322.62 556.75,-356.12"/>
<text text-anchor="start" x="415.25" y="-342.62" font-family="Helvetica,sans-Serif" font-size="10.00">/__w/phaseField/phaseField</text>
<text text-anchor="middle" x="482" y="-329.88" font-family="Helvetica,sans-Serif" font-size="10.00">/src/core/solution_output.cc</text>
</a>
</g>
</g>
<!-- Node16&#45;&gt;Node17 -->
<g id="edge24_Node000016_Node000017" class="edge">
<title>Node16&#45;&gt;Node17</title>
<g id="a_edge24_Node000016_Node000017"><a xlink:title=" ">
<path fill="none" stroke="#63b8ff" d="M451.2,-388.85C458.24,-377.76 465.86,-365.78 471.75,-356.5"/>
<polygon fill="#63b8ff" stroke="#63b8ff" points="448.43,-386.68 446.02,-396.99 454.34,-390.43 448.43,-386.68"/>
</a>
</g>
</g>
<!-- Node18&#45;&gt;Node4 -->
<g id="edge34_Node000018_Node000004" class="edge">
<title>Node18&#45;&gt;Node4</title>
<g id="a_edge34_Node000018_Node000004"><a xlink:title=" ">
<path fill="none" stroke="#63b8ff" d="M636.5,-392.37C624.07,-384.36 612.37,-374.48 604,-362.5 576.99,-323.85 585,-305.28 585,-258.12 585,-258.12 585,-258.12 585,-173.88 585,-98.82 497.07,-55.2 436.11,-33.97"/>
<polygon fill="#63b8ff" stroke="#63b8ff" points="634.43,-395.21 644.8,-397.35 638.03,-389.21 634.43,-395.21"/>
</a>
</g>
</g>
<!-- Node18&#45;&gt;Node7 -->
<g id="edge32_Node000018_Node000007" class="edge">
<title>Node18&#45;&gt;Node7</title>
<g id="a_edge32_Node000018_Node000007"><a xlink:title=" ">
<path fill="none" stroke="#63b8ff" d="M788.8,-398.34C835.44,-386.23 892.57,-371.39 937.35,-359.76"/>
<polygon fill="#63b8ff" stroke="#63b8ff" points="788.06,-394.92 779.27,-400.82 789.82,-401.69 788.06,-394.92"/>
</a>
</g>
</g>
<!-- Node18&#45;&gt;Node8 -->
<g id="edge30_Node000018_Node000008" class="edge">
<title>Node18&#45;&gt;Node8</title>
<g id="a_edge30_Node000018_Node000008"><a xlink:title=" ">
<path fill="none" stroke="#63b8ff" d="M773.18,-392.13C784.97,-384.25 795.72,-374.48 803,-362.5 818.07,-337.69 816.26,-303.12 812.78,-280.69"/>
<polygon fill="#63b8ff" stroke="#63b8ff" points="771.53,-389.03 764.85,-397.25 775.2,-395 771.53,-389.03"/>
</a>
</g>
</g>
<!-- Node18&#45;&gt;Node11 -->
<g id="edge31_Node000018_Node000011" class="edge">
<title>Node18&#45;&gt;Node11</title>
<g id="a_edge31_Node000018_Node000011"><a xlink:title=" ">
<path fill="none" stroke="#63b8ff" d="M789.2,-413.45C887.66,-404.27 1042,-386.64 1095,-362.5 1137.11,-343.32 1175.9,-305.13 1197.98,-280.64"/>
<polygon fill="#63b8ff" stroke="#63b8ff" points="788.92,-409.96 779.28,-414.36 789.56,-416.93 788.92,-409.96"/>
</a>
</g>
</g>
<!-- Node18&#45;&gt;Node12 -->
<g id="edge33_Node000018_Node000012" class="edge">
<title>Node18&#45;&gt;Node12</title>
<g id="a_edge33_Node000018_Node000012"><a xlink:title=" ">
<path fill="none" stroke="#63b8ff" d="M772.26,-393.3C789.7,-384.79 807.78,-374.45 823,-362.5 860.31,-333.21 867.43,-321.41 891,-280.25 906.14,-253.81 917.07,-220.25 923.21,-198.43"/>
<polygon fill="#63b8ff" stroke="#63b8ff" points="771.01,-390.02 763.46,-397.46 774,-396.35 771.01,-390.02"/>
</a>
</g>
</g>
<!-- Node18&#45;&gt;Node15 -->
<g id="edge27_Node000018_Node000015" class="edge">
<title>Node18&#45;&gt;Node15</title>
<g id="a_edge27_Node000018_Node000015"><a xlink:title=" ">
<path fill="none" stroke="#63b8ff" d="M617.51,-405.1C541.06,-391.22 429.39,-370.95 351.47,-356.8"/>
<polygon fill="#63b8ff" stroke="#63b8ff" points="616.57,-408.49 627.03,-406.83 617.82,-401.6 616.57,-408.49"/>
</a>
</g>
</g>
<!-- Node19 -->
<g id="Node000019" class="node">
<title>Node19</title>
<g id="a_Node000019"><a xlink:href="constant__solver_8h.html" target="_top" xlink:title=" ">
<polygon fill="white" stroke="#666666" points="780.38,-198 631.62,-198 631.62,-151.75 780.38,-151.75 780.38,-198"/>
<text text-anchor="start" x="639.62" y="-184.5" font-family="Helvetica,sans-Serif" font-size="10.00">/__w/phaseField/phaseField</text>
<text text-anchor="start" x="639.62" y="-171.75" font-family="Helvetica,sans-Serif" font-size="10.00">/include/prismspf/solvers</text>
<text text-anchor="middle" x="706" y="-159" font-family="Helvetica,sans-Serif" font-size="10.00">/constant_solver.h</text>
</a>
</g>
</g>
<!-- Node18&#45;&gt;Node19 -->
<g id="edge28_Node000018_Node000019" class="edge">
<title>Node18&#45;&gt;Node19</title>
<g id="a_edge28_Node000018_Node000019"><a xlink:title=" ">
<path fill="none" stroke="#63b8ff" d="M748.4,-390.79C757.15,-382.73 765.11,-373.22 770,-362.5 778.53,-343.8 778.9,-334.78 770,-316.25 758.9,-293.17 738.13,-302.24 725,-280.25 709.9,-254.94 706.25,-220.5 705.64,-198.22"/>
<polygon fill="#63b8ff" stroke="#63b8ff" points="746.35,-387.94 740.99,-397.08 750.88,-393.27 746.35,-387.94"/>
</a>
</g>
</g>
<!-- Node20 -->
<g id="Node000020" class="node">
<title>Node20</title>
<g id="a_Node000020"><a xlink:href="solver__base_8cc.html" target="_top" xlink:title=" ">
<polygon fill="white" stroke="#666666" points="761.38,-356.12 612.62,-356.12 612.62,-322.62 761.38,-322.62 761.38,-356.12"/>
<text text-anchor="start" x="620.62" y="-342.62" font-family="Helvetica,sans-Serif" font-size="10.00">/__w/phaseField/phaseField</text>
<text text-anchor="middle" x="687" y="-329.88" font-family="Helvetica,sans-Serif" font-size="10.00">/src/solvers/solver_base.cc</text>
</a>
</g>
</g>
<!-- Node18&#45;&gt;Node20 -->
<g id="edge35_Node000018_Node000020" class="edge">
<title>Node18&#45;&gt;Node20</title>
<g id="a_edge35_Node000018_Node000020"><a xlink:title=" ">
<path fill="none" stroke="#63b8ff" d="M696.33,-387.16C694.21,-376.55 691.97,-365.31 690.22,-356.5"/>
<polygon fill="#63b8ff" stroke="#63b8ff" points="692.86,-387.66 698.25,-396.79 699.72,-386.3 692.86,-387.66"/>
</a>
</g>
</g>
<!-- Node19&#45;&gt;Node9 -->
<g id="edge29_Node000019_Node000009" class="edge">
<title>Node19&#45;&gt;Node9</title>
<g id="a_edge29_Node000019_Node000009"><a xlink:title=" ">
<path fill="none" stroke="#63b8ff" d="M743.53,-144.35C755.43,-134.99 768.38,-124.8 779.53,-116.02"/>
<polygon fill="#63b8ff" stroke="#63b8ff" points="741.57,-141.44 735.87,-150.37 745.9,-146.94 741.57,-141.44"/>
</a>
</g>
</g>
</g>
</svg>
