<?xml version="1.0" encoding="UTF-8" standalone="no"?>
<!DOCTYPE svg PUBLIC "-//W3C//DTD SVG 1.1//EN"
 "http://www.w3.org/Graphics/SVG/1.1/DTD/svg11.dtd">
<!-- Generated by graphviz version 12.2.1 (20241206.2353)
 -->
<!-- Title: include/prismspf/user_inputs/miscellaneous_parameters.h Pages: 1 -->
<svg width="1294pt" height="667pt"
 viewBox="0.00 0.00 1294.12 667.00" xmlns="http://www.w3.org/2000/svg" xmlns:xlink="http://www.w3.org/1999/xlink">
<g id="graph0" class="graph" transform="scale(1 1) rotate(0) translate(4 663)">
<title>include/prismspf/user_inputs/miscellaneous_parameters.h</title>
<!-- Node1 -->
<g id="Node000001" class="node">
<title>Node1</title>
<g id="a_Node000001"><a xlink:title=" ">
<polygon fill="#999999" stroke="#666666" points="1154,-659 1029.25,-659 1029.25,-612.75 1154,-612.75 1154,-659"/>
<text text-anchor="start" x="1037.25" y="-645.5" font-family="Helvetica,sans-Serif" font-size="10.00">include/prismspf/user</text>
<text text-anchor="start" x="1037.25" y="-632.75" font-family="Helvetica,sans-Serif" font-size="10.00">_inputs/miscellaneous</text>
<text text-anchor="middle" x="1091.62" y="-620" font-family="Helvetica,sans-Serif" font-size="10.00">_parameters.h</text>
</a>
</g>
</g>
<!-- Node2 -->
<g id="Node000002" class="node">
<title>Node2</title>
<g id="a_Node000002"><a xlink:href="nucleation__manager_8h.html" target="_top" xlink:title=" ">
<polygon fill="white" stroke="#666666" points="1286.12,-368.25 1135.12,-368.25 1135.12,-334.75 1286.12,-334.75 1286.12,-368.25"/>
<text text-anchor="start" x="1143.12" y="-354.75" font-family="Helvetica,sans-Serif" font-size="10.00">include/prismspf/nucleation</text>
<text text-anchor="middle" x="1210.62" y="-342" font-family="Helvetica,sans-Serif" font-size="10.00">/nucleation_manager.h</text>
</a>
</g>
</g>
<!-- Node1&#45;&gt;Node2 -->
<g id="edge1_Node000001_Node000002" class="edge">
<title>Node1&#45;&gt;Node2</title>
<g id="a_edge1_Node000001_Node000002"><a xlink:title=" ">
<path fill="none" stroke="#63b8ff" d="M1143.9,-606.48C1178.94,-584.4 1222.56,-550.3 1244.62,-507.25 1265.53,-466.46 1264.17,-447.71 1249.62,-404.25 1245.13,-390.81 1235.61,-378.06 1227.1,-368.58"/>
<polygon fill="#63b8ff" stroke="#63b8ff" points="1142.26,-603.39 1135.56,-611.6 1145.92,-609.35 1142.26,-603.39"/>
</a>
</g>
</g>
<!-- Node5 -->
<g id="Node000005" class="node">
<title>Node5</title>
<g id="a_Node000005"><a xlink:href="user__input__parameters_8h.html" target="_top" xlink:title=" ">
<polygon fill="white" stroke="#666666" points="1009.5,-576.75 833.75,-576.75 833.75,-543.25 1009.5,-543.25 1009.5,-576.75"/>
<text text-anchor="start" x="841.75" y="-563.25" font-family="Helvetica,sans-Serif" font-size="10.00">include/prismspf/user</text>
<text text-anchor="middle" x="921.62" y="-550.5" font-family="Helvetica,sans-Serif" font-size="10.00">_inputs/user_input_parameters.h</text>
</a>
</g>
</g>
<!-- Node1&#45;&gt;Node5 -->
<g id="edge4_Node000001_Node000005" class="edge">
<title>Node1&#45;&gt;Node5</title>
<g id="a_edge4_Node000001_Node000005"><a xlink:title=" ">
<path fill="none" stroke="#63b8ff" d="M1029.39,-607.83C1005.76,-597.56 979.58,-586.19 958.95,-577.22"/>
<polygon fill="#63b8ff" stroke="#63b8ff" points="1027.74,-610.93 1038.31,-611.71 1030.53,-604.51 1027.74,-610.93"/>
</a>
</g>
</g>
<!-- Node3 -->
<g id="Node000003" class="node">
<title>Node3</title>
<g id="a_Node000003"><a xlink:href="problem_8h.html" target="_top" xlink:title=" ">
<polygon fill="white" stroke="#666666" points="943.12,-229.25 822.12,-229.25 822.12,-195.75 943.12,-195.75 943.12,-229.25"/>
<text text-anchor="start" x="830.12" y="-215.75" font-family="Helvetica,sans-Serif" font-size="10.00">include/prismspf/core</text>
<text text-anchor="middle" x="882.62" y="-203" font-family="Helvetica,sans-Serif" font-size="10.00">/problem.h</text>
</a>
</g>
</g>
<!-- Node2&#45;&gt;Node3 -->
<g id="edge2_Node000002_Node000003" class="edge">
<title>Node2&#45;&gt;Node3</title>
<g id="a_edge2_Node000002_Node000003"><a xlink:title=" ">
<path fill="none" stroke="#63b8ff" d="M1206.55,-323.49C1202.21,-304.32 1193.37,-279.54 1175.62,-265.25 1140.73,-237.14 1018.55,-223.36 943.43,-217.4"/>
<polygon fill="#63b8ff" stroke="#63b8ff" points="1203.07,-323.94 1208.42,-333.08 1209.94,-322.59 1203.07,-323.94"/>
</a>
</g>
</g>
<!-- Node4 -->
<g id="Node000004" class="node">
<title>Node4</title>
<g id="a_Node000004"><a xlink:href="problem_8cc.html" target="_top" xlink:title=" ">
<polygon fill="white" stroke="#666666" points="824.25,-20.75 713,-20.75 713,0 824.25,0 824.25,-20.75"/>
<text text-anchor="middle" x="768.62" y="-7.25" font-family="Helvetica,sans-Serif" font-size="10.00">src/core/problem.cc</text>
</a>
</g>
</g>
<!-- Node3&#45;&gt;Node4 -->
<g id="edge3_Node000003_Node000004" class="edge">
<title>Node3&#45;&gt;Node4</title>
<g id="a_edge3_Node000003_Node000004"><a xlink:title=" ">
<path fill="none" stroke="#63b8ff" d="M867.87,-185.6C842.3,-140.72 790.9,-50.48 774.08,-20.96"/>
<polygon fill="#63b8ff" stroke="#63b8ff" points="864.75,-187.19 872.74,-194.15 870.83,-183.72 864.75,-187.19"/>
</a>
</g>
</g>
<!-- Node5&#45;&gt;Node2 -->
<g id="edge40_Node000005_Node000002" class="edge">
<title>Node5&#45;&gt;Node2</title>
<g id="a_edge40_Node000005_Node000002"><a xlink:title=" ">
<path fill="none" stroke="#63b8ff" d="M1021.04,-555.41C1098.8,-550.25 1197.93,-537.73 1223.62,-507.25 1257.34,-467.26 1232.49,-399.01 1218.48,-368.3"/>
<polygon fill="#63b8ff" stroke="#63b8ff" points="1021,-551.9 1011.24,-556.02 1021.44,-558.89 1021,-551.9"/>
</a>
</g>
</g>
<!-- Node5&#45;&gt;Node4 -->
<g id="edge46_Node000005_Node000004" class="edge">
<title>Node5&#45;&gt;Node4</title>
<g id="a_edge46_Node000005_Node000004"><a xlink:title=" ">
<path fill="none" stroke="#63b8ff" d="M869.43,-537.88C825.1,-516.1 768.62,-477.45 768.62,-422 768.62,-422 768.62,-422 768.62,-142 768.62,-96.87 768.62,-42.97 768.62,-21.21"/>
<polygon fill="#63b8ff" stroke="#63b8ff" points="867.91,-541.04 878.45,-542.15 870.91,-534.71 867.91,-541.04"/>
</a>
</g>
</g>
<!-- Node6 -->
<g id="Node000006" class="node">
<title>Node6</title>
<g id="a_Node000006"><a xlink:href="pde__operator__base_8h.html" target="_top" xlink:title=" ">
<polygon fill="white" stroke="#666666" points="675.12,-507.25 554.12,-507.25 554.12,-473.75 675.12,-473.75 675.12,-507.25"/>
<text text-anchor="start" x="562.12" y="-493.75" font-family="Helvetica,sans-Serif" font-size="10.00">include/prismspf/core</text>
<text text-anchor="middle" x="614.62" y="-481" font-family="Helvetica,sans-Serif" font-size="10.00">/pde_operator_base.h</text>
</a>
</g>
</g>
<!-- Node5&#45;&gt;Node6 -->
<g id="edge5_Node000005_Node000006" class="edge">
<title>Node5&#45;&gt;Node6</title>
<g id="a_edge5_Node000005_Node000006"><a xlink:title=" ">
<path fill="none" stroke="#63b8ff" d="M837.04,-540.4C785.81,-529.14 721.66,-515.03 675.43,-504.87"/>
<polygon fill="#63b8ff" stroke="#63b8ff" points="836.09,-543.78 846.61,-542.51 837.6,-536.94 836.09,-543.78"/>
</a>
</g>
</g>
<!-- Node14 -->
<g id="Node000014" class="node">
<title>Node14</title>
<g id="a_Node000014"><a xlink:href="solve__context_8h.html" target="_top" xlink:title=" ">
<polygon fill="white" stroke="#666666" points="932.25,-437.75 797,-437.75 797,-404.25 932.25,-404.25 932.25,-437.75"/>
<text text-anchor="start" x="805" y="-424.25" font-family="Helvetica,sans-Serif" font-size="10.00">include/prismspf/solvers</text>
<text text-anchor="middle" x="864.62" y="-411.5" font-family="Helvetica,sans-Serif" font-size="10.00">/solve_context.h</text>
</a>
</g>
</g>
<!-- Node5&#45;&gt;Node14 -->
<g id="edge41_Node000005_Node000014" class="edge">
<title>Node5&#45;&gt;Node14</title>
<g id="a_edge41_Node000005_Node000014"><a xlink:title=" ">
<path fill="none" stroke="#63b8ff" d="M903.35,-533.62C898.07,-525.48 892.65,-516.24 888.62,-507.25 878.32,-484.24 871.37,-455.72 867.7,-438.2"/>
<polygon fill="#63b8ff" stroke="#63b8ff" points="900.28,-535.33 908.78,-541.66 906.09,-531.42 900.28,-535.33"/>
</a>
</g>
</g>
<!-- Node16 -->
<g id="Node000016" class="node">
<title>Node16</title>
<g id="a_Node000016"><a xlink:href="solution__output_8h.html" target="_top" xlink:title=" ">
<polygon fill="white" stroke="#666666" points="1099.12,-368.25 978.12,-368.25 978.12,-334.75 1099.12,-334.75 1099.12,-368.25"/>
<text text-anchor="start" x="986.12" y="-354.75" font-family="Helvetica,sans-Serif" font-size="10.00">include/prismspf/core</text>
<text text-anchor="middle" x="1038.62" y="-342" font-family="Helvetica,sans-Serif" font-size="10.00">/solution_output.h</text>
</a>
</g>
</g>
<!-- Node5&#45;&gt;Node16 -->
<g id="edge39_Node000005_Node000016" class="edge">
<title>Node5&#45;&gt;Node16</title>
<g id="a_edge39_Node000005_Node000016"><a xlink:title=" ">
<path fill="none" stroke="#63b8ff" d="M921.15,-531.57C921.8,-514.29 924.45,-491.9 932.62,-473.75 952.5,-429.65 993.92,-389.78 1018.69,-368.56"/>
<polygon fill="#63b8ff" stroke="#63b8ff" points="917.65,-531.28 921,-541.34 924.65,-531.4 917.65,-531.28"/>
</a>
</g>
</g>
<!-- Node18 -->
<g id="Node000018" class="node">
<title>Node18</title>
<g id="a_Node000018"><a xlink:href="solver__base_8h.html" target="_top" xlink:title=" ">
<polygon fill="white" stroke="#666666" points="678.25,-368.25 543,-368.25 543,-334.75 678.25,-334.75 678.25,-368.25"/>
<text text-anchor="start" x="551" y="-354.75" font-family="Helvetica,sans-Serif" font-size="10.00">include/prismspf/solvers</text>
<text text-anchor="middle" x="610.62" y="-342" font-family="Helvetica,sans-Serif" font-size="10.00">/solver_base.h</text>
</a>
</g>
</g>
<!-- Node5&#45;&gt;Node18 -->
<g id="edge42_Node000005_Node000018" class="edge">
<title>Node5&#45;&gt;Node18</title>
<g id="a_edge42_Node000005_Node000018"><a xlink:title=" ">
<path fill="none" stroke="#63b8ff" d="M822.38,-540.75C798.58,-533.13 774.36,-522.39 754.62,-507.25 711.67,-474.31 727.58,-442.85 689.62,-404.25 675.72,-390.1 657.31,-377.77 641.76,-368.69"/>
<polygon fill="#63b8ff" stroke="#63b8ff" points="821.24,-544.06 831.82,-543.6 823.26,-537.36 821.24,-544.06"/>
</a>
</g>
</g>
<!-- Node23 -->
<g id="Node000023" class="node">
<title>Node23</title>
<g id="a_Node000023"><a xlink:href="periodic__distance_8h.html" target="_top" xlink:title=" ">
<polygon fill="white" stroke="#666666" points="1170,-437.75 1033.25,-437.75 1033.25,-404.25 1170,-404.25 1170,-437.75"/>
<text text-anchor="start" x="1041.25" y="-424.25" font-family="Helvetica,sans-Serif" font-size="10.00">include/prismspf/utilities</text>
<text text-anchor="middle" x="1101.62" y="-411.5" font-family="Helvetica,sans-Serif" font-size="10.00">/periodic_distance.h</text>
</a>
</g>
</g>
<!-- Node5&#45;&gt;Node23 -->
<g id="edge43_Node000005_Node000023" class="edge">
<title>Node5&#45;&gt;Node23</title>
<g id="a_edge43_Node000005_Node000023"><a xlink:title=" ">
<path fill="none" stroke="#63b8ff" d="M927.73,-531.93C933.21,-513.31 943.02,-489.23 959.62,-473.75 979.87,-454.87 1007.55,-442.76 1033.09,-435.05"/>
<polygon fill="#63b8ff" stroke="#63b8ff" points="924.37,-530.94 925.18,-541.5 931.13,-532.74 924.37,-530.94"/>
</a>
</g>
</g>
<!-- Node24 -->
<g id="Node000024" class="node">
<title>Node24</title>
<g id="a_Node000024"><a xlink:href="constraint__manager_8cc.html" target="_top" xlink:title=" ">
<polygon fill="white" stroke="#666666" points="1074.62,-507.25 968.62,-507.25 968.62,-473.75 1074.62,-473.75 1074.62,-507.25"/>
<text text-anchor="start" x="976.62" y="-493.75" font-family="Helvetica,sans-Serif" font-size="10.00">src/core/constraint</text>
<text text-anchor="middle" x="1021.62" y="-481" font-family="Helvetica,sans-Serif" font-size="10.00">_manager.cc</text>
</a>
</g>
</g>
<!-- Node5&#45;&gt;Node24 -->
<g id="edge45_Node000005_Node000024" class="edge">
<title>Node5&#45;&gt;Node24</title>
<g id="a_edge45_Node000005_Node000024"><a xlink:title=" ">
<path fill="none" stroke="#63b8ff" d="M954.93,-536.52C968.99,-527.03 985.04,-516.2 997.87,-507.54"/>
<polygon fill="#63b8ff" stroke="#63b8ff" points="953.16,-533.49 946.83,-541.99 957.08,-539.29 953.16,-533.49"/>
</a>
</g>
</g>
<!-- Node25 -->
<g id="Node000025" class="node">
<title>Node25</title>
<g id="a_Node000025"><a xlink:href="user__input__parameters_8cc.html" target="_top" xlink:title=" ">
<polygon fill="white" stroke="#666666" points="1214.12,-507.25 1093.12,-507.25 1093.12,-473.75 1214.12,-473.75 1214.12,-507.25"/>
<text text-anchor="start" x="1101.12" y="-493.75" font-family="Helvetica,sans-Serif" font-size="10.00">src/user_inputs/user</text>
<text text-anchor="middle" x="1153.62" y="-481" font-family="Helvetica,sans-Serif" font-size="10.00">_input_parameters.cc</text>
</a>
</g>
</g>
<!-- Node5&#45;&gt;Node25 -->
<g id="edge47_Node000005_Node000025" class="edge">
<title>Node5&#45;&gt;Node25</title>
<g id="a_edge47_Node000005_Node000025"><a xlink:title=" ">
<path fill="none" stroke="#63b8ff" d="M988.21,-539.63C1023.01,-529.5 1065.09,-517.26 1098.11,-507.65"/>
<polygon fill="#63b8ff" stroke="#63b8ff" points="987.27,-536.25 978.65,-542.41 989.23,-542.98 987.27,-536.25"/>
</a>
</g>
</g>
<!-- Node7 -->
<g id="Node000007" class="node">
<title>Node7</title>
<g id="a_Node000007"><a xlink:href="mf__operator_8h.html" target="_top" xlink:title=" ">
<polygon fill="white" stroke="#666666" points="435.25,-298.75 300,-298.75 300,-265.25 435.25,-265.25 435.25,-298.75"/>
<text text-anchor="start" x="308" y="-285.25" font-family="Helvetica,sans-Serif" font-size="10.00">include/prismspf/solvers</text>
<text text-anchor="middle" x="367.62" y="-272.5" font-family="Helvetica,sans-Serif" font-size="10.00">/mf_operator.h</text>
</a>
</g>
</g>
<!-- Node6&#45;&gt;Node7 -->
<g id="edge6_Node000006_Node000007" class="edge">
<title>Node6&#45;&gt;Node7</title>
<g id="a_edge6_Node000006_Node000007"><a xlink:title=" ">
<path fill="none" stroke="#63b8ff" d="M542.73,-483.66C479.78,-476.91 395.09,-463.28 373.62,-437.75 340.06,-397.82 353.92,-329.54 362.6,-298.81"/>
<polygon fill="#63b8ff" stroke="#63b8ff" points="542.01,-487.11 552.31,-484.65 542.72,-480.14 542.01,-487.11"/>
</a>
</g>
</g>
<!-- Node6&#45;&gt;Node14 -->
<g id="edge17_Node000006_Node000014" class="edge">
<title>Node6&#45;&gt;Node14</title>
<g id="a_edge17_Node000006_Node000014"><a xlink:title=" ">
<path fill="none" stroke="#63b8ff" d="M685.41,-470.39C723.09,-460.22 768.92,-447.84 804.8,-438.15"/>
<polygon fill="#63b8ff" stroke="#63b8ff" points="684.71,-466.95 675.97,-472.94 686.53,-473.71 684.71,-466.95"/>
</a>
</g>
</g>
<!-- Node6&#45;&gt;Node18 -->
<g id="edge36_Node000006_Node000018" class="edge">
<title>Node6&#45;&gt;Node18</title>
<g id="a_edge36_Node000006_Node000018"><a xlink:title=" ">
<path fill="none" stroke="#63b8ff" d="M650.67,-466.38C659.88,-458.51 668.6,-448.85 673.62,-437.75 679.77,-424.19 679.99,-417.71 673.62,-404.25 666.61,-389.41 653.02,-377.39 640.25,-368.68"/>
<polygon fill="#63b8ff" stroke="#63b8ff" points="648.68,-463.5 642.98,-472.43 653,-469 648.68,-463.5"/>
</a>
</g>
</g>
<!-- Node21 -->
<g id="Node000021" class="node">
<title>Node21</title>
<g id="a_Node000021"><a xlink:href="dirichlet_8cc.html" target="_top" xlink:title=" ">
<polygon fill="white" stroke="#666666" points="492.88,-431.38 382.38,-431.38 382.38,-410.62 492.88,-410.62 492.88,-431.38"/>
<text text-anchor="middle" x="437.62" y="-417.88" font-family="Helvetica,sans-Serif" font-size="10.00">src/core/dirichlet.cc</text>
</a>
</g>
</g>
<!-- Node6&#45;&gt;Node21 -->
<g id="edge37_Node000006_Node000021" class="edge">
<title>Node6&#45;&gt;Node21</title>
<g id="a_edge37_Node000006_Node000021"><a xlink:title=" ">
<path fill="none" stroke="#63b8ff" d="M561.56,-469.26C529.15,-456.9 489.14,-441.65 463.51,-431.87"/>
<polygon fill="#63b8ff" stroke="#63b8ff" points="560.22,-472.5 570.81,-472.79 562.72,-465.96 560.22,-472.5"/>
</a>
</g>
</g>
<!-- Node22 -->
<g id="Node000022" class="node">
<title>Node22</title>
<g id="a_Node000022"><a xlink:href="initial__conditions_8cc.html" target="_top" xlink:title=" ">
<polygon fill="white" stroke="#666666" points="664.62,-431.38 510.62,-431.38 510.62,-410.62 664.62,-410.62 664.62,-431.38"/>
<text text-anchor="middle" x="587.62" y="-417.88" font-family="Helvetica,sans-Serif" font-size="10.00">src/core/initial_conditions.cc</text>
</a>
</g>
</g>
<!-- Node6&#45;&gt;Node22 -->
<g id="edge38_Node000006_Node000022" class="edge">
<title>Node6&#45;&gt;Node22</title>
<g id="a_edge38_Node000006_Node000022"><a xlink:title=" ">
<path fill="none" stroke="#63b8ff" d="M604.05,-463.07C599.66,-452.08 594.83,-440.02 591.55,-431.82"/>
<polygon fill="#63b8ff" stroke="#63b8ff" points="600.7,-464.11 607.66,-472.1 607.2,-461.51 600.7,-464.11"/>
</a>
</g>
</g>
<!-- Node8 -->
<g id="Node000008" class="node">
<title>Node8</title>
<g id="a_Node000008"><a xlink:href="explicit__solver_8h.html" target="_top" xlink:title=" ">
<polygon fill="white" stroke="#666666" points="544.25,-229.25 409,-229.25 409,-195.75 544.25,-195.75 544.25,-229.25"/>
<text text-anchor="start" x="417" y="-215.75" font-family="Helvetica,sans-Serif" font-size="10.00">include/prismspf/solvers</text>
<text text-anchor="middle" x="476.62" y="-203" font-family="Helvetica,sans-Serif" font-size="10.00">/explicit_solver.h</text>
</a>
</g>
</g>
<!-- Node7&#45;&gt;Node8 -->
<g id="edge7_Node000007_Node000008" class="edge">
<title>Node7&#45;&gt;Node8</title>
<g id="a_edge7_Node000007_Node000008"><a xlink:title=" ">
<path fill="none" stroke="#63b8ff" d="M403.48,-258.79C418.91,-249.24 436.61,-238.28 450.73,-229.54"/>
<polygon fill="#63b8ff" stroke="#63b8ff" points="401.68,-255.79 395.02,-264.04 405.36,-261.75 401.68,-255.79"/>
</a>
</g>
</g>
<!-- Node11 -->
<g id="Node000011" class="node">
<title>Node11</title>
<g id="a_Node000011"><a xlink:href="linear__solver_8h.html" target="_top" xlink:title=" ">
<polygon fill="white" stroke="#666666" points="190.25,-229.25 55,-229.25 55,-195.75 190.25,-195.75 190.25,-229.25"/>
<text text-anchor="start" x="63" y="-215.75" font-family="Helvetica,sans-Serif" font-size="10.00">include/prismspf/solvers</text>
<text text-anchor="middle" x="122.62" y="-203" font-family="Helvetica,sans-Serif" font-size="10.00">/linear_solver.h</text>
</a>
</g>
</g>
<!-- Node7&#45;&gt;Node11 -->
<g id="edge11_Node000007_Node000011" class="edge">
<title>Node7&#45;&gt;Node11</title>
<g id="a_edge11_Node000007_Node000011"><a xlink:title=" ">
<path fill="none" stroke="#63b8ff" d="M298.26,-261.89C261.33,-251.72 216.42,-239.34 181.25,-229.65"/>
<polygon fill="#63b8ff" stroke="#63b8ff" points="296.91,-265.15 307.48,-264.43 298.77,-258.4 296.91,-265.15"/>
</a>
</g>
</g>
<!-- Node12 -->
<g id="Node000012" class="node">
<title>Node12</title>
<g id="a_Node000012"><a xlink:href="newton__solver_8h.html" target="_top" xlink:title=" ">
<polygon fill="white" stroke="#666666" points="448.25,-159.75 313,-159.75 313,-126.25 448.25,-126.25 448.25,-159.75"/>
<text text-anchor="start" x="321" y="-146.25" font-family="Helvetica,sans-Serif" font-size="10.00">include/prismspf/solvers</text>
<text text-anchor="middle" x="380.62" y="-133.5" font-family="Helvetica,sans-Serif" font-size="10.00">/newton_solver.h</text>
</a>
</g>
</g>
<!-- Node7&#45;&gt;Node12 -->
<g id="edge15_Node000007_Node000012" class="edge">
<title>Node7&#45;&gt;Node12</title>
<g id="a_edge15_Node000007_Node000012"><a xlink:title=" ">
<path fill="none" stroke="#63b8ff" d="M370.22,-253.62C372.89,-225.54 376.94,-182.82 379.12,-159.88"/>
<polygon fill="#63b8ff" stroke="#63b8ff" points="366.75,-253.22 369.28,-263.51 373.71,-253.88 366.75,-253.22"/>
</a>
</g>
</g>
<!-- Node13 -->
<g id="Node000013" class="node">
<title>Node13</title>
<g id="a_Node000013"><a xlink:href="mf__operator_8cc.html" target="_top" xlink:title=" ">
<polygon fill="white" stroke="#666666" points="352.75,-222.88 208.5,-222.88 208.5,-202.12 352.75,-202.12 352.75,-222.88"/>
<text text-anchor="middle" x="280.62" y="-209.38" font-family="Helvetica,sans-Serif" font-size="10.00">src/solvers/mf_operator.cc</text>
</a>
</g>
</g>
<!-- Node7&#45;&gt;Node13 -->
<g id="edge16_Node000007_Node000013" class="edge">
<title>Node7&#45;&gt;Node13</title>
<g id="a_edge16_Node000007_Node000013"><a xlink:title=" ">
<path fill="none" stroke="#63b8ff" d="M337.93,-257.96C322.69,-246.14 304.95,-232.37 293.28,-223.32"/>
<polygon fill="#63b8ff" stroke="#63b8ff" points="335.77,-260.71 345.81,-264.08 340.06,-255.18 335.77,-260.71"/>
</a>
</g>
</g>
<!-- Node9 -->
<g id="Node000009" class="node">
<title>Node9</title>
<g id="a_Node000009"><a xlink:href="solvers_8h.html" target="_top" xlink:title=" ">
<polygon fill="white" stroke="#666666" points="448.25,-90.25 313,-90.25 313,-56.75 448.25,-56.75 448.25,-90.25"/>
<text text-anchor="start" x="321" y="-76.75" font-family="Helvetica,sans-Serif" font-size="10.00">include/prismspf/solvers</text>
<text text-anchor="middle" x="380.62" y="-64" font-family="Helvetica,sans-Serif" font-size="10.00">/solvers.h</text>
</a>
</g>
</g>
<!-- Node8&#45;&gt;Node9 -->
<g id="edge8_Node000008_Node000009" class="edge">
<title>Node8&#45;&gt;Node9</title>
<g id="a_edge8_Node000008_Node000009"><a xlink:title=" ">
<path fill="none" stroke="#63b8ff" d="M475.67,-183.97C473.87,-166.17 469.23,-143.24 457.62,-126.25 447.27,-111.09 430.87,-99.17 415.86,-90.61"/>
<polygon fill="#63b8ff" stroke="#63b8ff" points="472.17,-184.11 476.4,-193.83 479.15,-183.59 472.17,-184.11"/>
</a>
</g>
</g>
<!-- Node9&#45;&gt;Node4 -->
<g id="edge9_Node000009_Node000004" class="edge">
<title>Node9&#45;&gt;Node4</title>
<g id="a_edge9_Node000009_Node000004"><a xlink:title=" ">
<path fill="none" stroke="#63b8ff" d="M459.94,-60C535.16,-48.15 646.26,-30.65 712.64,-20.19"/>
<polygon fill="#63b8ff" stroke="#63b8ff" points="459.48,-56.53 450.15,-61.55 460.57,-63.45 459.48,-56.53"/>
</a>
</g>
</g>
<!-- Node10 -->
<g id="Node000010" class="node">
<title>Node10</title>
<g id="a_Node000010"><a xlink:href="solvers_8cc.html" target="_top" xlink:title=" ">
<polygon fill="white" stroke="#666666" points="440.75,-20.75 320.5,-20.75 320.5,0 440.75,0 440.75,-20.75"/>
<text text-anchor="middle" x="380.62" y="-7.25" font-family="Helvetica,sans-Serif" font-size="10.00">src/solvers/solvers.cc</text>
</a>
</g>
</g>
<!-- Node9&#45;&gt;Node10 -->
<g id="edge10_Node000009_Node000010" class="edge">
<title>Node9&#45;&gt;Node10</title>
<g id="a_edge10_Node000009_Node000010"><a xlink:title=" ">
<path fill="none" stroke="#63b8ff" d="M380.62,-44.94C380.62,-36.46 380.62,-27.67 380.62,-21.22"/>
<polygon fill="#63b8ff" stroke="#63b8ff" points="377.13,-44.93 380.63,-54.93 384.13,-44.93 377.13,-44.93"/>
</a>
</g>
</g>
<!-- Node11&#45;&gt;Node9 -->
<g id="edge14_Node000011_Node000009" class="edge">
<title>Node11&#45;&gt;Node9</title>
<g id="a_edge14_Node000011_Node000009"><a xlink:title=" ">
<path fill="none" stroke="#63b8ff" d="M162.84,-190.15C214.74,-162.59 303.88,-115.25 350.39,-90.56"/>
<polygon fill="#63b8ff" stroke="#63b8ff" points="161.51,-186.89 154.32,-194.67 164.79,-193.07 161.51,-186.89"/>
</a>
</g>
</g>
<!-- Node11&#45;&gt;Node12 -->
<g id="edge12_Node000011_Node000012" class="edge">
<title>Node11&#45;&gt;Node12</title>
<g id="a_edge12_Node000011_Node000012"><a xlink:title=" ">
<path fill="none" stroke="#63b8ff" d="M195.42,-192.45C234.35,-182.27 281.78,-169.86 318.89,-160.15"/>
<polygon fill="#63b8ff" stroke="#63b8ff" points="194.68,-189.03 185.89,-194.95 196.45,-195.8 194.68,-189.03"/>
</a>
</g>
</g>
<!-- Node12&#45;&gt;Node9 -->
<g id="edge13_Node000012_Node000009" class="edge">
<title>Node12&#45;&gt;Node9</title>
<g id="a_edge13_Node000012_Node000009"><a xlink:title=" ">
<path fill="none" stroke="#63b8ff" d="M380.62,-114.56C380.62,-106.34 380.62,-97.59 380.62,-90.38"/>
<polygon fill="#63b8ff" stroke="#63b8ff" points="377.13,-114.49 380.63,-124.49 384.13,-114.49 377.13,-114.49"/>
</a>
</g>
</g>
<!-- Node14&#45;&gt;Node2 -->
<g id="edge25_Node000014_Node000002" class="edge">
<title>Node14&#45;&gt;Node2</title>
<g id="a_edge25_Node000014_Node000002"><a xlink:title=" ">
<path fill="none" stroke="#63b8ff" d="M943.76,-404.56C1001.09,-393.38 1078.14,-378.35 1134.72,-367.31"/>
<polygon fill="#63b8ff" stroke="#63b8ff" points="943.2,-401.1 934.06,-406.45 944.54,-407.98 943.2,-401.1"/>
</a>
</g>
</g>
<!-- Node14&#45;&gt;Node3 -->
<g id="edge18_Node000014_Node000003" class="edge">
<title>Node14&#45;&gt;Node3</title>
<g id="a_edge18_Node000014_Node000003"><a xlink:title=" ">
<path fill="none" stroke="#63b8ff" d="M884.77,-394.86C902.1,-371.52 925.79,-335.01 935.62,-298.75 939.52,-284.38 941.4,-278.97 935.62,-265.25 929.58,-250.91 917.41,-238.56 906.26,-229.53"/>
<polygon fill="#63b8ff" stroke="#63b8ff" points="881.99,-392.74 878.72,-402.81 887.56,-396.98 881.99,-392.74"/>
</a>
</g>
</g>
<!-- Node15 -->
<g id="Node000015" class="node">
<title>Node15</title>
<g id="a_Node000015"><a xlink:href="refinement__manager_8h.html" target="_top" xlink:title=" ">
<polygon fill="white" stroke="#666666" points="926.25,-298.75 797,-298.75 797,-265.25 926.25,-265.25 926.25,-298.75"/>
<text text-anchor="start" x="805" y="-285.25" font-family="Helvetica,sans-Serif" font-size="10.00">include/prismspf/core</text>
<text text-anchor="middle" x="861.62" y="-272.5" font-family="Helvetica,sans-Serif" font-size="10.00">/refinement_manager.h</text>
</a>
</g>
</g>
<!-- Node14&#45;&gt;Node15 -->
<g id="edge19_Node000014_Node000015" class="edge">
<title>Node14&#45;&gt;Node15</title>
<g id="a_edge19_Node000014_Node000015"><a xlink:title=" ">
<path fill="none" stroke="#63b8ff" d="M864.03,-392.62C863.41,-364.54 862.48,-321.82 861.97,-298.88"/>
<polygon fill="#63b8ff" stroke="#63b8ff" points="860.52,-392.58 864.24,-402.5 867.52,-392.43 860.52,-392.58"/>
</a>
</g>
</g>
<!-- Node14&#45;&gt;Node16 -->
<g id="edge21_Node000014_Node000016" class="edge">
<title>Node14&#45;&gt;Node16</title>
<g id="a_edge21_Node000014_Node000016"><a xlink:title=" ">
<path fill="none" stroke="#63b8ff" d="M916.95,-399.7C942.57,-389.76 972.98,-377.97 996.99,-368.65"/>
<polygon fill="#63b8ff" stroke="#63b8ff" points="915.77,-396.4 907.71,-403.28 918.3,-402.93 915.77,-396.4"/>
</a>
</g>
</g>
<!-- Node14&#45;&gt;Node18 -->
<g id="edge26_Node000014_Node000018" class="edge">
<title>Node14&#45;&gt;Node18</title>
<g id="a_edge26_Node000014_Node000018"><a xlink:title=" ">
<path fill="none" stroke="#63b8ff" d="M792.71,-400.89C754.43,-390.72 707.86,-378.34 671.41,-368.65"/>
<polygon fill="#63b8ff" stroke="#63b8ff" points="791.76,-404.26 802.32,-403.44 793.56,-397.49 791.76,-404.26"/>
</a>
</g>
</g>
<!-- Node15&#45;&gt;Node3 -->
<g id="edge20_Node000015_Node000003" class="edge">
<title>Node15&#45;&gt;Node3</title>
<g id="a_edge20_Node000015_Node000003"><a xlink:title=" ">
<path fill="none" stroke="#63b8ff" d="M869.98,-254.14C872.59,-245.75 875.39,-236.76 877.68,-229.38"/>
<polygon fill="#63b8ff" stroke="#63b8ff" points="866.68,-252.97 867.05,-263.56 873.36,-255.05 866.68,-252.97"/>
</a>
</g>
</g>
<!-- Node16&#45;&gt;Node4 -->
<g id="edge23_Node000016_Node000004" class="edge">
<title>Node16&#45;&gt;Node4</title>
<g id="a_edge23_Node000016_Node000004"><a xlink:title=" ">
<path fill="none" stroke="#63b8ff" d="M1023.49,-324.72C1019.19,-316.61 1014.82,-307.49 1011.62,-298.75 998.31,-262.29 992.62,-252.32 992.62,-213.5 992.62,-213.5 992.62,-213.5 992.62,-142 992.62,-64.34 890.92,-32.03 824.57,-19.22"/>
<polygon fill="#63b8ff" stroke="#63b8ff" points="1020.36,-326.29 1028.26,-333.36 1026.48,-322.91 1020.36,-326.29"/>
</a>
</g>
</g>
<!-- Node16&#45;&gt;Node16 -->
<g id="edge22_Node000016_Node000016" class="edge">
<title>Node16&#45;&gt;Node16</title>
<g id="a_edge22_Node000016_Node000016"><a xlink:title=" ">
<path fill="none" stroke="#63b8ff" d="M1110.34,-360.45C1114.58,-358.31 1117.12,-355.33 1117.12,-351.5 1117.12,-345.05 1109.92,-341 1099.52,-339.33"/>
<polygon fill="#63b8ff" stroke="#63b8ff" points="1109.56,-357.04 1100.97,-363.23 1111.55,-363.75 1109.56,-357.04"/>
</a>
</g>
</g>
<!-- Node17 -->
<g id="Node000017" class="node">
<title>Node17</title>
<g id="a_Node000017"><a xlink:href="solution__output_8cc.html" target="_top" xlink:title=" ">
<polygon fill="white" stroke="#666666" points="1166.88,-292.38 1020.38,-292.38 1020.38,-271.62 1166.88,-271.62 1166.88,-292.38"/>
<text text-anchor="middle" x="1093.62" y="-278.88" font-family="Helvetica,sans-Serif" font-size="10.00">src/core/solution_output.cc</text>
</a>
</g>
</g>
<!-- Node16&#45;&gt;Node17 -->
<g id="edge24_Node000016_Node000017" class="edge">
<title>Node16&#45;&gt;Node17</title>
<g id="a_edge24_Node000016_Node000017"><a xlink:title=" ">
<path fill="none" stroke="#63b8ff" d="M1058.77,-325.77C1068.08,-314.35 1078.6,-301.44 1085.62,-292.82"/>
<polygon fill="#63b8ff" stroke="#63b8ff" points="1056.22,-323.37 1052.62,-333.33 1061.65,-327.79 1056.22,-323.37"/>
</a>
</g>
</g>
<!-- Node18&#45;&gt;Node4 -->
<g id="edge34_Node000018_Node000004" class="edge">
<title>Node18&#45;&gt;Node4</title>
<g id="a_edge34_Node000018_Node000004"><a xlink:title=" ">
<path fill="none" stroke="#63b8ff" d="M610.62,-322.98C610.62,-295.32 610.62,-251.45 610.62,-213.5 610.62,-213.5 610.62,-213.5 610.62,-142 610.62,-76.69 691.81,-37.89 737.79,-21.16"/>
<polygon fill="#63b8ff" stroke="#63b8ff" points="607.13,-322.96 610.63,-332.96 614.13,-322.96 607.13,-322.96"/>
</a>
</g>
</g>
<!-- Node18&#45;&gt;Node7 -->
<g id="edge32_Node000018_Node000007" class="edge">
<title>Node18&#45;&gt;Node7</title>
<g id="a_edge32_Node000018_Node000007"><a xlink:title=" ">
<path fill="none" stroke="#63b8ff" d="M541.35,-331.26C504.82,-321.11 460.5,-308.8 425.78,-299.15"/>
<polygon fill="#63b8ff" stroke="#63b8ff" points="540.39,-334.62 550.96,-333.93 542.26,-327.88 540.39,-334.62"/>
</a>
</g>
</g>
<!-- Node18&#45;&gt;Node8 -->
<g id="edge30_Node000018_Node000008" class="edge">
<title>Node18&#45;&gt;Node8</title>
<g id="a_edge30_Node000018_Node000008"><a xlink:title=" ">
<path fill="none" stroke="#63b8ff" d="M586.19,-326.4C577.45,-317.72 567.56,-307.84 558.62,-298.75 535.16,-274.88 508.33,-246.85 491.94,-229.63"/>
<polygon fill="#63b8ff" stroke="#63b8ff" points="583.5,-328.66 593.06,-333.21 588.42,-323.69 583.5,-328.66"/>
</a>
</g>
</g>
<!-- Node18&#45;&gt;Node11 -->
<g id="edge31_Node000018_Node000011" class="edge">
<title>Node18&#45;&gt;Node11</title>
<g id="a_edge31_Node000018_Node000011"><a xlink:title=" ">
<path fill="none" stroke="#63b8ff" d="M531.59,-344.57C465.83,-338.02 370.42,-324.75 290.62,-298.75 237.45,-281.42 180.35,-249.21 148.3,-229.72"/>
<polygon fill="#63b8ff" stroke="#63b8ff" points="530.91,-348.02 541.19,-345.49 531.58,-341.05 530.91,-348.02"/>
</a>
</g>
</g>
<!-- Node18&#45;&gt;Node12 -->
<g id="edge33_Node000018_Node000012" class="edge">
<title>Node18&#45;&gt;Node12</title>
<g id="a_edge33_Node000018_Node000012"><a xlink:title=" ">
<path fill="none" stroke="#63b8ff" d="M602.15,-323.55C588.77,-281.68 563.28,-204.82 553.62,-195.75 525.3,-169.13 483.82,-156.16 448.58,-149.86"/>
<polygon fill="#63b8ff" stroke="#63b8ff" points="598.76,-324.44 605.12,-332.91 605.43,-322.32 598.76,-324.44"/>
</a>
</g>
</g>
<!-- Node18&#45;&gt;Node15 -->
<g id="edge27_Node000018_Node000015" class="edge">
<title>Node18&#45;&gt;Node15</title>
<g id="a_edge27_Node000018_Node000015"><a xlink:title=" ">
<path fill="none" stroke="#63b8ff" d="M681.69,-331.39C719.52,-321.22 765.53,-308.84 801.56,-299.15"/>
<polygon fill="#63b8ff" stroke="#63b8ff" points="680.96,-327.96 672.21,-333.94 682.77,-334.72 680.96,-327.96"/>
</a>
</g>
</g>
<!-- Node19 -->
<g id="Node000019" class="node">
<title>Node19</title>
<g id="a_Node000019"><a xlink:href="constant__solver_8h.html" target="_top" xlink:title=" ">
<polygon fill="white" stroke="#666666" points="135.25,-159.75 0,-159.75 0,-126.25 135.25,-126.25 135.25,-159.75"/>
<text text-anchor="start" x="8" y="-146.25" font-family="Helvetica,sans-Serif" font-size="10.00">include/prismspf/solvers</text>
<text text-anchor="middle" x="67.62" y="-133.5" font-family="Helvetica,sans-Serif" font-size="10.00">/constant_solver.h</text>
</a>
</g>
</g>
<!-- Node18&#45;&gt;Node19 -->
<g id="edge28_Node000018_Node000019" class="edge">
<title>Node18&#45;&gt;Node19</title>
<g id="a_edge28_Node000018_Node000019"><a xlink:title=" ">
<path fill="none" stroke="#63b8ff" d="M531.48,-346.57C449.89,-341.05 319.58,-328.16 210.62,-298.75 133.8,-278.01 89.64,-295.54 45.62,-229.25 31.51,-207.98 45.17,-178.18 56.38,-160.04"/>
<polygon fill="#63b8ff" stroke="#63b8ff" points="530.94,-350.04 541.15,-347.2 531.4,-343.05 530.94,-350.04"/>
</a>
</g>
</g>
<!-- Node20 -->
<g id="Node000020" class="node">
<title>Node20</title>
<g id="a_Node000020"><a xlink:href="solver__base_8cc.html" target="_top" xlink:title=" ">
<polygon fill="white" stroke="#666666" points="740.38,-298.75 638.88,-298.75 638.88,-265.25 740.38,-265.25 740.38,-298.75"/>
<text text-anchor="start" x="646.88" y="-285.25" font-family="Helvetica,sans-Serif" font-size="10.00">src/solvers/solver</text>
<text text-anchor="middle" x="689.62" y="-272.5" font-family="Helvetica,sans-Serif" font-size="10.00">_base.cc</text>
</a>
</g>
</g>
<!-- Node18&#45;&gt;Node20 -->
<g id="edge35_Node000018_Node000020" class="edge">
<title>Node18&#45;&gt;Node20</title>
<g id="a_edge35_Node000018_Node000020"><a xlink:title=" ">
<path fill="none" stroke="#63b8ff" d="M638.03,-327.09C648.83,-317.85 660.97,-307.48 670.76,-299.12"/>
<polygon fill="#63b8ff" stroke="#63b8ff" points="635.83,-324.36 630.5,-333.52 640.37,-329.69 635.83,-324.36"/>
</a>
</g>
</g>
<!-- Node19&#45;&gt;Node9 -->
<g id="edge29_Node000019_Node000009" class="edge">
<title>Node19&#45;&gt;Node9</title>
<g id="a_edge29_Node000019_Node000009"><a xlink:title=" ">
<path fill="none" stroke="#63b8ff" d="M146.55,-124.98C197.73,-113.94 263.71,-99.71 312.57,-89.18"/>
<polygon fill="#63b8ff" stroke="#63b8ff" points="146.06,-121.5 137.02,-127.03 147.53,-128.35 146.06,-121.5"/>
</a>
</g>
</g>
<!-- Node23&#45;&gt;Node2 -->
<g id="edge44_Node000023_Node000002" class="edge">
<title>Node23&#45;&gt;Node2</title>
<g id="a_edge44_Node000023_Node000002"><a xlink:title=" ">
<path fill="none" stroke="#63b8ff" d="M1137.48,-397.79C1152.91,-388.24 1170.61,-377.28 1184.73,-368.54"/>
<polygon fill="#63b8ff" stroke="#63b8ff" points="1135.68,-394.79 1129.02,-403.04 1139.36,-400.75 1135.68,-394.79"/>
</a>
</g>
</g>
</g>
</svg>
