<?xml version="1.0" encoding="UTF-8" standalone="no"?>
<!DOCTYPE svg PUBLIC "-//W3C//DTD SVG 1.1//EN"
 "http://www.w3.org/Graphics/SVG/1.1/DTD/svg11.dtd">
<!-- Generated by graphviz version 12.2.1 (20241206.2353)
 -->
<!-- Title: include/prismspf/user_inputs/miscellaneous_parameters.h Pages: 1 -->
<svg width="2117pt" height="320pt"
 viewBox="0.00 0.00 2117.25 319.50" xmlns="http://www.w3.org/2000/svg" xmlns:xlink="http://www.w3.org/1999/xlink">
<g id="graph0" class="graph" transform="scale(1 1) rotate(0) translate(4 315.5)">
<title>include/prismspf/user_inputs/miscellaneous_parameters.h</title>
<!-- Node1 -->
<g id="Node000001" class="node">
<title>Node1</title>
<g id="a_Node000001"><a xlink:title=" ">
<polygon fill="#999999" stroke="#666666" points="1885.88,-311.5 1761.12,-311.5 1761.12,-265.25 1885.88,-265.25 1885.88,-311.5"/>
<text text-anchor="start" x="1769.12" y="-298" font-family="Helvetica,sans-Serif" font-size="10.00">include/prismspf/user</text>
<text text-anchor="start" x="1769.12" y="-285.25" font-family="Helvetica,sans-Serif" font-size="10.00">_inputs/miscellaneous</text>
<text text-anchor="middle" x="1823.5" y="-272.5" font-family="Helvetica,sans-Serif" font-size="10.00">_parameters.h</text>
</a>
</g>
</g>
<!-- Node2 -->
<g id="Node000002" class="node">
<title>Node2</title>
<g id="a_Node000002"><a xlink:title=" ">
<polygon fill="#e0e0e0" stroke="#999999" points="103,-83.88 0,-83.88 0,-63.12 103,-63.12 103,-83.88"/>
<text text-anchor="middle" x="51.5" y="-70.38" font-family="Helvetica,sans-Serif" font-size="10.00">deal.II/base/mpi.h</text>
</a>
</g>
</g>
<!-- Node1&#45;&gt;Node2 -->
<g id="edge1_Node000001_Node000002" class="edge">
<title>Node1&#45;&gt;Node2</title>
<g id="a_edge1_Node000001_Node000002"><a xlink:title=" ">
<path fill="none" stroke="#63b8ff" d="M1760.7,-281.82C1651.84,-272.08 1421.08,-250.86 1226.5,-229.25 730.6,-174.18 602.62,-183.7 112.5,-90.25 107.59,-89.31 102.5,-88.21 97.43,-87.03"/>
<polygon fill="#63b8ff" stroke="#63b8ff" points="98.5,-83.69 87.96,-84.71 96.84,-90.49 98.5,-83.69"/>
</a>
</g>
</g>
<!-- Node3 -->
<g id="Node000003" class="node">
<title>Node3</title>
<g id="a_Node000003"><a xlink:href="conditional__ostreams_8h.html" target="_top" xlink:title=" ">
<polygon fill="white" stroke="#666666" points="1893.38,-229.25 1753.62,-229.25 1753.62,-195.75 1893.38,-195.75 1893.38,-229.25"/>
<text text-anchor="start" x="1761.62" y="-215.75" font-family="Helvetica,sans-Serif" font-size="10.00">prismspf/core/conditional</text>
<text text-anchor="middle" x="1823.5" y="-203" font-family="Helvetica,sans-Serif" font-size="10.00">_ostreams.h</text>
</a>
</g>
</g>
<!-- Node1&#45;&gt;Node3 -->
<g id="edge2_Node000001_Node000003" class="edge">
<title>Node1&#45;&gt;Node3</title>
<g id="a_edge2_Node000001_Node000003"><a xlink:title=" ">
<path fill="none" stroke="#63b8ff" d="M1823.5,-264.81C1823.5,-257.26 1823.5,-248.76 1823.5,-240.88"/>
<polygon fill="#63b8ff" stroke="#63b8ff" points="1827,-241.12 1823.5,-231.12 1820,-241.12 1827,-241.12"/>
</a>
</g>
</g>
<!-- Node5 -->
<g id="Node000005" class="node">
<title>Node5</title>
<g id="a_Node000005"><a xlink:title=" ">
<polygon fill="#e0e0e0" stroke="#999999" points="1753.5,-20.75 1653.5,-20.75 1653.5,0 1753.5,0 1753.5,-20.75"/>
<text text-anchor="middle" x="1703.5" y="-7.25" font-family="Helvetica,sans-Serif" font-size="10.00">prismspf/config.h</text>
</a>
</g>
</g>
<!-- Node1&#45;&gt;Node5 -->
<g id="edge33_Node000001_Node000005" class="edge">
<title>Node1&#45;&gt;Node5</title>
<g id="a_edge33_Node000001_Node000005"><a xlink:title=" ">
<path fill="none" stroke="#63b8ff" d="M1862.55,-264.82C1909.88,-234.47 1979.45,-178.28 1946.5,-126.25 1906.94,-63.79 1823.27,-34.64 1765.24,-21.5"/>
<polygon fill="#63b8ff" stroke="#63b8ff" points="1765.99,-18.08 1755.48,-19.39 1764.52,-24.92 1765.99,-18.08"/>
</a>
</g>
</g>
<!-- Node6 -->
<g id="Node000006" class="node">
<title>Node6</title>
<g id="a_Node000006"><a xlink:href="exceptions_8h.html" target="_top" xlink:title=" ">
<polygon fill="white" stroke="#666666" points="1718.5,-222.88 1570.5,-222.88 1570.5,-202.12 1718.5,-202.12 1718.5,-222.88"/>
<text text-anchor="middle" x="1644.5" y="-209.38" font-family="Helvetica,sans-Serif" font-size="10.00">prismspf/core/exceptions.h</text>
</a>
</g>
</g>
<!-- Node1&#45;&gt;Node6 -->
<g id="edge5_Node000001_Node000006" class="edge">
<title>Node1&#45;&gt;Node6</title>
<g id="a_edge5_Node000001_Node000006"><a xlink:title=" ">
<path fill="none" stroke="#63b8ff" d="M1768.82,-264.81C1739.45,-252.68 1704.14,-238.11 1678.67,-227.6"/>
<polygon fill="#63b8ff" stroke="#63b8ff" points="1680.04,-224.38 1669.46,-223.8 1677.37,-230.85 1680.04,-224.38"/>
</a>
</g>
</g>
<!-- Node13 -->
<g id="Node000013" class="node">
<title>Node13</title>
<g id="a_Node000013"><a xlink:href="utilities_8h.html" target="_top" xlink:title=" ">
<polygon fill="white" stroke="#666666" points="914.75,-159.75 816.25,-159.75 816.25,-126.25 914.75,-126.25 914.75,-159.75"/>
<text text-anchor="start" x="824.25" y="-146.25" font-family="Helvetica,sans-Serif" font-size="10.00">prismspf/utilities</text>
<text text-anchor="middle" x="865.5" y="-133.5" font-family="Helvetica,sans-Serif" font-size="10.00">/utilities.h</text>
</a>
</g>
</g>
<!-- Node1&#45;&gt;Node13 -->
<g id="edge15_Node000001_Node000013" class="edge">
<title>Node1&#45;&gt;Node13</title>
<g id="a_edge15_Node000001_Node000013"><a xlink:title=" ">
<path fill="none" stroke="#63b8ff" d="M1760.64,-277.97C1586.38,-251.89 1098.65,-178.89 926.56,-153.14"/>
<polygon fill="#63b8ff" stroke="#63b8ff" points="927.11,-149.68 916.7,-151.66 926.08,-156.6 927.11,-149.68"/>
</a>
</g>
</g>
<!-- Node24 -->
<g id="Node000024" class="node">
<title>Node24</title>
<g id="a_Node000024"><a xlink:title=" ">
<polygon fill="#e0e0e0" stroke="#999999" points="2037.38,-222.88 1993.62,-222.88 1993.62,-202.12 2037.38,-202.12 2037.38,-222.88"/>
<text text-anchor="middle" x="2015.5" y="-209.38" font-family="Helvetica,sans-Serif" font-size="10.00">mpi.h</text>
</a>
</g>
</g>
<!-- Node1&#45;&gt;Node24 -->
<g id="edge34_Node000001_Node000024" class="edge">
<title>Node1&#45;&gt;Node24</title>
<g id="a_edge34_Node000001_Node000024"><a xlink:title=" ">
<path fill="none" stroke="#63b8ff" d="M1886.05,-264.97C1914.68,-254.49 1948.96,-241.61 1979.5,-229.25 1980.64,-228.79 1981.79,-228.32 1982.96,-227.83"/>
<polygon fill="#63b8ff" stroke="#63b8ff" points="1984.27,-231.08 1992.1,-223.95 1981.53,-224.64 1984.27,-231.08"/>
</a>
</g>
</g>
<!-- Node25 -->
<g id="Node000025" class="node">
<title>Node25</title>
<g id="a_Node000025"><a xlink:title=" ">
<polygon fill="#e0e0e0" stroke="#999999" points="2109.25,-222.88 2055.75,-222.88 2055.75,-202.12 2109.25,-202.12 2109.25,-222.88"/>
<text text-anchor="middle" x="2082.5" y="-209.38" font-family="Helvetica,sans-Serif" font-size="10.00">random</text>
</a>
</g>
</g>
<!-- Node1&#45;&gt;Node25 -->
<g id="edge35_Node000001_Node000025" class="edge">
<title>Node1&#45;&gt;Node25</title>
<g id="a_edge35_Node000001_Node000025"><a xlink:title=" ">
<path fill="none" stroke="#63b8ff" d="M1886.29,-273.8C1931.4,-263.37 1993.39,-247.66 2046.5,-229.25 2048.07,-228.71 2049.67,-228.12 2051.28,-227.51"/>
<polygon fill="#63b8ff" stroke="#63b8ff" points="2052.44,-230.82 2060.38,-223.8 2049.8,-224.33 2052.44,-230.82"/>
</a>
</g>
</g>
<!-- Node4 -->
<g id="Node000004" class="node">
<title>Node4</title>
<g id="a_Node000004"><a xlink:title=" ">
<polygon fill="#e0e0e0" stroke="#999999" points="1937.12,-159.75 1807.88,-159.75 1807.88,-126.25 1937.12,-126.25 1937.12,-159.75"/>
<text text-anchor="start" x="1815.88" y="-146.25" font-family="Helvetica,sans-Serif" font-size="10.00">deal.II/base/conditional</text>
<text text-anchor="middle" x="1872.5" y="-133.5" font-family="Helvetica,sans-Serif" font-size="10.00">_ostream.h</text>
</a>
</g>
</g>
<!-- Node3&#45;&gt;Node4 -->
<g id="edge3_Node000003_Node000004" class="edge">
<title>Node3&#45;&gt;Node4</title>
<g id="a_edge3_Node000003_Node000004"><a xlink:title=" ">
<path fill="none" stroke="#63b8ff" d="M1835.11,-195.5C1840.85,-187.6 1847.9,-177.88 1854.33,-169.03"/>
<polygon fill="#63b8ff" stroke="#63b8ff" points="1857.04,-171.26 1860.08,-161.11 1851.37,-167.14 1857.04,-171.26"/>
</a>
</g>
</g>
<!-- Node3&#45;&gt;Node5 -->
<g id="edge4_Node000003_Node000005" class="edge">
<title>Node3&#45;&gt;Node5</title>
<g id="a_edge4_Node000003_Node000005"><a xlink:title=" ">
<path fill="none" stroke="#63b8ff" d="M1813.88,-195.46C1792.02,-159.01 1738.67,-70.04 1715.07,-30.66"/>
<polygon fill="#63b8ff" stroke="#63b8ff" points="1718.17,-29.03 1710.03,-22.26 1712.17,-32.63 1718.17,-29.03"/>
</a>
</g>
</g>
<!-- Node6&#45;&gt;Node5 -->
<g id="edge14_Node000006_Node000005" class="edge">
<title>Node6&#45;&gt;Node5</title>
<g id="a_edge14_Node000006_Node000005"><a xlink:title=" ">
<path fill="none" stroke="#63b8ff" d="M1653.59,-201.99C1662.48,-192.16 1675.79,-176.01 1683.5,-159.75 1703.39,-117.81 1705.26,-62.19 1704.58,-32.37"/>
<polygon fill="#63b8ff" stroke="#63b8ff" points="1708.08,-32.34 1704.21,-22.48 1701.08,-32.6 1708.08,-32.34"/>
</a>
</g>
</g>
<!-- Node7 -->
<g id="Node000007" class="node">
<title>Node7</title>
<g id="a_Node000007"><a xlink:title=" ">
<polygon fill="#e0e0e0" stroke="#999999" points="1385.25,-83.88 1247.75,-83.88 1247.75,-63.12 1385.25,-63.12 1385.25,-83.88"/>
<text text-anchor="middle" x="1316.5" y="-70.38" font-family="Helvetica,sans-Serif" font-size="10.00">deal.II/base/exceptions.h</text>
</a>
</g>
</g>
<!-- Node6&#45;&gt;Node7 -->
<g id="edge6_Node000006_Node000007" class="edge">
<title>Node6&#45;&gt;Node7</title>
<g id="a_edge6_Node000006_Node000007"><a xlink:title=" ">
<path fill="none" stroke="#63b8ff" d="M1620.91,-201.65C1563.58,-177.7 1416.78,-116.39 1350.22,-88.58"/>
<polygon fill="#63b8ff" stroke="#63b8ff" points="1351.85,-85.47 1341.27,-84.85 1349.15,-91.93 1351.85,-85.47"/>
</a>
</g>
</g>
<!-- Node8 -->
<g id="Node000008" class="node">
<title>Node8</title>
<g id="a_Node000008"><a xlink:href="types_8h.html" target="_top" xlink:title=" ">
<polygon fill="white" stroke="#666666" points="1674.38,-153.38 1552.62,-153.38 1552.62,-132.62 1674.38,-132.62 1674.38,-153.38"/>
<text text-anchor="middle" x="1613.5" y="-139.88" font-family="Helvetica,sans-Serif" font-size="10.00">prismspf/core/types.h</text>
</a>
</g>
</g>
<!-- Node6&#45;&gt;Node8 -->
<g id="edge7_Node000006_Node000008" class="edge">
<title>Node6&#45;&gt;Node8</title>
<g id="a_edge7_Node000006_Node000008"><a xlink:title=" ">
<path fill="none" stroke="#63b8ff" d="M1640.06,-201.83C1635.55,-192 1628.43,-176.5 1622.69,-164.02"/>
<polygon fill="#63b8ff" stroke="#63b8ff" points="1625.92,-162.66 1618.56,-155.03 1619.56,-165.58 1625.92,-162.66"/>
</a>
</g>
</g>
<!-- Node8&#45;&gt;Node5 -->
<g id="edge13_Node000008_Node000005" class="edge">
<title>Node8&#45;&gt;Node5</title>
<g id="a_edge13_Node000008_Node000005"><a xlink:title=" ">
<path fill="none" stroke="#63b8ff" d="M1631.43,-132.18C1646.34,-123.13 1667.07,-108.39 1679.5,-90.25 1691.43,-72.84 1697.57,-49.33 1700.65,-32.51"/>
<polygon fill="#63b8ff" stroke="#63b8ff" points="1704.1,-33.09 1702.2,-22.66 1697.18,-32 1704.1,-33.09"/>
</a>
</g>
</g>
<!-- Node9 -->
<g id="Node000009" class="node">
<title>Node9</title>
<g id="a_Node000009"><a xlink:title=" ">
<polygon fill="#e0e0e0" stroke="#999999" points="1511.62,-90.25 1403.38,-90.25 1403.38,-56.75 1511.62,-56.75 1511.62,-90.25"/>
<text text-anchor="start" x="1411.38" y="-76.75" font-family="Helvetica,sans-Serif" font-size="10.00">deal.II/matrix_free</text>
<text text-anchor="middle" x="1457.5" y="-64" font-family="Helvetica,sans-Serif" font-size="10.00">/evaluation_flags.h</text>
</a>
</g>
</g>
<!-- Node8&#45;&gt;Node9 -->
<g id="edge8_Node000008_Node000009" class="edge">
<title>Node8&#45;&gt;Node9</title>
<g id="a_edge8_Node000008_Node000009"><a xlink:title=" ">
<path fill="none" stroke="#63b8ff" d="M1590.82,-132.18C1568.56,-122.56 1533.93,-107.57 1505.54,-95.29"/>
<polygon fill="#63b8ff" stroke="#63b8ff" points="1506.96,-92.09 1496.39,-91.33 1504.18,-98.51 1506.96,-92.09"/>
</a>
</g>
</g>
<!-- Node10 -->
<g id="Node000010" class="node">
<title>Node10</title>
<g id="a_Node000010"><a xlink:href="type__enums_8h.html" target="_top" xlink:title=" ">
<polygon fill="white" stroke="#666666" points="1637.25,-90.25 1529.75,-90.25 1529.75,-56.75 1637.25,-56.75 1637.25,-90.25"/>
<text text-anchor="start" x="1537.75" y="-76.75" font-family="Helvetica,sans-Serif" font-size="10.00">prismspf/core/type</text>
<text text-anchor="middle" x="1583.5" y="-64" font-family="Helvetica,sans-Serif" font-size="10.00">_enums.h</text>
</a>
</g>
</g>
<!-- Node8&#45;&gt;Node10 -->
<g id="edge9_Node000008_Node000010" class="edge">
<title>Node8&#45;&gt;Node10</title>
<g id="a_edge9_Node000008_Node000010"><a xlink:title=" ">
<path fill="none" stroke="#63b8ff" d="M1609.2,-132.33C1605.58,-124.18 1600.22,-112.13 1595.34,-101.13"/>
<polygon fill="#63b8ff" stroke="#63b8ff" points="1598.56,-99.77 1591.3,-92.05 1592.16,-102.61 1598.56,-99.77"/>
</a>
</g>
</g>
<!-- Node10&#45;&gt;Node5 -->
<g id="edge10_Node000010_Node000005" class="edge">
<title>Node10&#45;&gt;Node5</title>
<g id="a_edge10_Node000010_Node000005"><a xlink:title=" ">
<path fill="none" stroke="#63b8ff" d="M1615.34,-56.28C1633.6,-46.98 1656.35,-35.39 1674.17,-26.31"/>
<polygon fill="#63b8ff" stroke="#63b8ff" points="1675.61,-29.51 1682.93,-21.85 1672.43,-23.27 1675.61,-29.51"/>
</a>
</g>
</g>
<!-- Node11 -->
<g id="Node000011" class="node">
<title>Node11</title>
<g id="a_Node000011"><a xlink:title=" ">
<polygon fill="#e0e0e0" stroke="#999999" points="1608,-20.75 1559,-20.75 1559,0 1608,0 1608,-20.75"/>
<text text-anchor="middle" x="1583.5" y="-7.25" font-family="Helvetica,sans-Serif" font-size="10.00">cstdint</text>
</a>
</g>
</g>
<!-- Node10&#45;&gt;Node11 -->
<g id="edge11_Node000010_Node000011" class="edge">
<title>Node10&#45;&gt;Node11</title>
<g id="a_edge11_Node000010_Node000011"><a xlink:title=" ">
<path fill="none" stroke="#63b8ff" d="M1583.5,-56.44C1583.5,-49.1 1583.5,-40.32 1583.5,-32.46"/>
<polygon fill="#63b8ff" stroke="#63b8ff" points="1587,-32.73 1583.5,-22.73 1580,-32.73 1587,-32.73"/>
</a>
</g>
</g>
<!-- Node12 -->
<g id="Node000012" class="node">
<title>Node12</title>
<g id="a_Node000012"><a xlink:title=" ">
<polygon fill="#e0e0e0" stroke="#999999" points="1262.38,-20.75 1218.62,-20.75 1218.62,0 1262.38,0 1262.38,-20.75"/>
<text text-anchor="middle" x="1240.5" y="-7.25" font-family="Helvetica,sans-Serif" font-size="10.00">string</text>
</a>
</g>
</g>
<!-- Node10&#45;&gt;Node12 -->
<g id="edge12_Node000010_Node000012" class="edge">
<title>Node10&#45;&gt;Node12</title>
<g id="a_edge12_Node000010_Node000012"><a xlink:title=" ">
<path fill="none" stroke="#63b8ff" d="M1529.27,-58.63C1526.31,-57.97 1523.37,-57.34 1520.5,-56.75 1432.12,-38.57 1326.82,-23.17 1274.09,-15.88"/>
<polygon fill="#63b8ff" stroke="#63b8ff" points="1274.64,-12.43 1264.26,-14.54 1273.69,-19.36 1274.64,-12.43"/>
</a>
</g>
</g>
<!-- Node13&#45;&gt;Node2 -->
<g id="edge18_Node000013_Node000002" class="edge">
<title>Node13&#45;&gt;Node2</title>
<g id="a_edge18_Node000013_Node000002"><a xlink:title=" ">
<path fill="none" stroke="#63b8ff" d="M815.8,-141.74C694.71,-140.41 375.08,-132.8 112.5,-90.25 107.18,-89.39 101.65,-88.27 96.18,-87.04"/>
<polygon fill="#63b8ff" stroke="#63b8ff" points="97.16,-83.67 86.62,-84.72 95.51,-90.48 97.16,-83.67"/>
</a>
</g>
</g>
<!-- Node13&#45;&gt;Node5 -->
<g id="edge29_Node000013_Node000005" class="edge">
<title>Node13&#45;&gt;Node5</title>
<g id="a_edge29_Node000013_Node000005"><a xlink:title=" ">
<path fill="none" stroke="#63b8ff" d="M915.11,-141.15C1076.93,-138.04 1582.71,-125.56 1646.5,-90.25 1658.84,-83.42 1679.32,-51.97 1692.08,-30.9"/>
<polygon fill="#63b8ff" stroke="#63b8ff" points="1695.08,-32.7 1697.19,-22.32 1689.06,-29.12 1695.08,-32.7"/>
</a>
</g>
</g>
<!-- Node13&#45;&gt;Node7 -->
<g id="edge17_Node000013_Node000007" class="edge">
<title>Node13&#45;&gt;Node7</title>
<g id="a_edge17_Node000013_Node000007"><a xlink:title=" ">
<path fill="none" stroke="#63b8ff" d="M914.96,-136.18C986.7,-127.52 1123.69,-110.09 1239.5,-90.25 1246.21,-89.1 1253.22,-87.8 1260.18,-86.46"/>
<polygon fill="#63b8ff" stroke="#63b8ff" points="1260.38,-89.98 1269.5,-84.61 1259.02,-83.12 1260.38,-89.98"/>
</a>
</g>
</g>
<!-- Node13&#45;&gt;Node9 -->
<g id="edge22_Node000013_Node000009" class="edge">
<title>Node13&#45;&gt;Node9</title>
<g id="a_edge22_Node000013_Node000009"><a xlink:title=" ">
<path fill="none" stroke="#63b8ff" d="M915.05,-139.6C1007.17,-134.6 1211.1,-121.05 1391.66,-90.59"/>
<polygon fill="#63b8ff" stroke="#63b8ff" points="1392.21,-94.05 1401.48,-88.91 1391.03,-87.15 1392.21,-94.05"/>
</a>
</g>
</g>
<!-- Node13&#45;&gt;Node12 -->
<g id="edge30_Node000013_Node000012" class="edge">
<title>Node13&#45;&gt;Node12</title>
<g id="a_edge30_Node000013_Node000012"><a xlink:title=" ">
<path fill="none" stroke="#63b8ff" d="M891.4,-125.8C906.63,-115.98 926.05,-102.94 942.5,-90.25 960.33,-76.5 960.2,-66.5 980.5,-56.75 1055.83,-20.58 1155.79,-12.91 1207.05,-11.5"/>
<polygon fill="#63b8ff" stroke="#63b8ff" points="1206.96,-15 1216.89,-11.3 1206.82,-8 1206.96,-15"/>
</a>
</g>
</g>
<!-- Node14 -->
<g id="Node000014" class="node">
<title>Node14</title>
<g id="a_Node000014"><a xlink:title=" ">
<polygon fill="#e0e0e0" stroke="#999999" points="1103.25,-83.88 989.75,-83.88 989.75,-63.12 1103.25,-63.12 1103.25,-83.88"/>
<text text-anchor="middle" x="1046.5" y="-70.38" font-family="Helvetica,sans-Serif" font-size="10.00">deal.II/base/config.h</text>
</a>
</g>
</g>
<!-- Node13&#45;&gt;Node14 -->
<g id="edge16_Node000013_Node000014" class="edge">
<title>Node13&#45;&gt;Node14</title>
<g id="a_edge16_Node000013_Node000014"><a xlink:title=" ">
<path fill="none" stroke="#63b8ff" d="M908.85,-125.83C939.55,-114.38 980.29,-99.19 1009.46,-88.31"/>
<polygon fill="#63b8ff" stroke="#63b8ff" points="1010.47,-91.67 1018.62,-84.9 1008.02,-85.11 1010.47,-91.67"/>
</a>
</g>
</g>
<!-- Node15 -->
<g id="Node000015" class="node">
<title>Node15</title>
<g id="a_Node000015"><a xlink:title=" ">
<polygon fill="#e0e0e0" stroke="#999999" points="1230,-83.88 1121,-83.88 1121,-63.12 1230,-63.12 1230,-83.88"/>
<text text-anchor="middle" x="1175.5" y="-70.38" font-family="Helvetica,sans-Serif" font-size="10.00">deal.II/base/point.h</text>
</a>
</g>
</g>
<!-- Node13&#45;&gt;Node15 -->
<g id="edge19_Node000013_Node000015" class="edge">
<title>Node13&#45;&gt;Node15</title>
<g id="a_edge19_Node000013_Node000015"><a xlink:title=" ">
<path fill="none" stroke="#63b8ff" d="M914.83,-132.25C964.77,-122.23 1044.18,-105.94 1112.5,-90.25 1117.01,-89.21 1121.7,-88.1 1126.38,-86.97"/>
<polygon fill="#63b8ff" stroke="#63b8ff" points="1126.89,-90.45 1135.77,-84.67 1125.23,-83.65 1126.89,-90.45"/>
</a>
</g>
</g>
<!-- Node16 -->
<g id="Node000016" class="node">
<title>Node16</title>
<g id="a_Node000016"><a xlink:title=" ">
<polygon fill="#e0e0e0" stroke="#999999" points="235.62,-83.88 121.38,-83.88 121.38,-63.12 235.62,-63.12 235.62,-83.88"/>
<text text-anchor="middle" x="178.5" y="-70.38" font-family="Helvetica,sans-Serif" font-size="10.00">deal.II/base/tensor.h</text>
</a>
</g>
</g>
<!-- Node13&#45;&gt;Node16 -->
<g id="edge20_Node000013_Node000016" class="edge">
<title>Node13&#45;&gt;Node16</title>
<g id="a_edge20_Node000013_Node000016"><a xlink:title=" ">
<path fill="none" stroke="#63b8ff" d="M816.09,-140.42C710.54,-136.48 455.48,-124.02 244.5,-90.25 238.54,-89.3 232.32,-88.09 226.18,-86.78"/>
<polygon fill="#63b8ff" stroke="#63b8ff" points="227.31,-83.44 216.78,-84.66 225.76,-90.27 227.31,-83.44"/>
</a>
</g>
</g>
<!-- Node17 -->
<g id="Node000017" class="node">
<title>Node17</title>
<g id="a_Node000017"><a xlink:title=" ">
<polygon fill="#e0e0e0" stroke="#999999" points="843.5,-20.75 695.5,-20.75 695.5,0 843.5,0 843.5,-20.75"/>
<text text-anchor="middle" x="769.5" y="-7.25" font-family="Helvetica,sans-Serif" font-size="10.00">deal.II/base/vectorization.h</text>
</a>
</g>
</g>
<!-- Node13&#45;&gt;Node17 -->
<g id="edge21_Node000013_Node000017" class="edge">
<title>Node13&#45;&gt;Node17</title>
<g id="a_edge21_Node000013_Node000017"><a xlink:title=" ">
<path fill="none" stroke="#63b8ff" d="M830.39,-125.81C815.4,-117.23 798.98,-105.32 788.5,-90.25 776.58,-73.11 772.09,-49.38 770.43,-32.43"/>
<polygon fill="#63b8ff" stroke="#63b8ff" points="773.93,-32.26 769.74,-22.53 766.94,-32.75 773.93,-32.26"/>
</a>
</g>
</g>
<!-- Node18 -->
<g id="Node000018" class="node">
<title>Node18</title>
<g id="a_Node000018"><a xlink:title=" ">
<polygon fill="#e0e0e0" stroke="#999999" points="399,-83.88 254,-83.88 254,-63.12 399,-63.12 399,-83.88"/>
<text text-anchor="middle" x="326.5" y="-70.38" font-family="Helvetica,sans-Serif" font-size="10.00">boost/range/algorithm.hpp</text>
</a>
</g>
</g>
<!-- Node13&#45;&gt;Node18 -->
<g id="edge23_Node000013_Node000018" class="edge">
<title>Node13&#45;&gt;Node18</title>
<g id="a_edge23_Node000013_Node000018"><a xlink:title=" ">
<path fill="none" stroke="#63b8ff" d="M815.97,-137.65C731.92,-129.99 556.11,-112.75 408.5,-90.25 401.09,-89.12 393.32,-87.8 385.65,-86.42"/>
<polygon fill="#63b8ff" stroke="#63b8ff" points="386.48,-83.02 376.01,-84.64 385.21,-89.9 386.48,-83.02"/>
</a>
</g>
</g>
<!-- Node19 -->
<g id="Node000019" class="node">
<title>Node19</title>
<g id="a_Node000019"><a xlink:title=" ">
<polygon fill="#e0e0e0" stroke="#999999" points="541.5,-90.25 417.5,-90.25 417.5,-56.75 541.5,-56.75 541.5,-90.25"/>
<text text-anchor="start" x="425.5" y="-76.75" font-family="Helvetica,sans-Serif" font-size="10.00">boost/range/algorithm</text>
<text text-anchor="middle" x="479.5" y="-64" font-family="Helvetica,sans-Serif" font-size="10.00">_ext.hpp</text>
</a>
</g>
</g>
<!-- Node13&#45;&gt;Node19 -->
<g id="edge24_Node000013_Node000019" class="edge">
<title>Node13&#45;&gt;Node19</title>
<g id="a_edge24_Node000013_Node000019"><a xlink:title=" ">
<path fill="none" stroke="#63b8ff" d="M815.97,-134.73C756.05,-125.75 651.84,-109.51 552.9,-90.66"/>
<polygon fill="#63b8ff" stroke="#63b8ff" points="553.76,-87.26 543.28,-88.81 552.44,-94.13 553.76,-87.26"/>
</a>
</g>
</g>
<!-- Node20 -->
<g id="Node000020" class="node">
<title>Node20</title>
<g id="a_Node000020"><a xlink:href="vectorized__operations_8h.html" target="_top" xlink:title=" ">
<polygon fill="white" stroke="#666666" points="933.5,-90.25 797.5,-90.25 797.5,-56.75 933.5,-56.75 933.5,-90.25"/>
<text text-anchor="start" x="805.5" y="-76.75" font-family="Helvetica,sans-Serif" font-size="10.00">prismspf/utilities</text>
<text text-anchor="middle" x="865.5" y="-64" font-family="Helvetica,sans-Serif" font-size="10.00">/vectorized_operations.h</text>
</a>
</g>
</g>
<!-- Node13&#45;&gt;Node20 -->
<g id="edge25_Node000013_Node000020" class="edge">
<title>Node13&#45;&gt;Node20</title>
<g id="a_edge25_Node000013_Node000020"><a xlink:title=" ">
<path fill="none" stroke="#63b8ff" d="M865.5,-126C865.5,-118.77 865.5,-110.03 865.5,-101.81"/>
<polygon fill="#63b8ff" stroke="#63b8ff" points="869,-101.9 865.5,-91.9 862,-101.9 869,-101.9"/>
</a>
</g>
</g>
<!-- Node22 -->
<g id="Node000022" class="node">
<title>Node22</title>
<g id="a_Node000022"><a xlink:title=" ">
<polygon fill="#e0e0e0" stroke="#999999" points="631.62,-83.88 559.38,-83.88 559.38,-63.12 631.62,-63.12 631.62,-83.88"/>
<text text-anchor="middle" x="595.5" y="-70.38" font-family="Helvetica,sans-Serif" font-size="10.00">string_view</text>
</a>
</g>
</g>
<!-- Node13&#45;&gt;Node22 -->
<g id="edge31_Node000013_Node000022" class="edge">
<title>Node13&#45;&gt;Node22</title>
<g id="a_edge31_Node000013_Node000022"><a xlink:title=" ">
<path fill="none" stroke="#63b8ff" d="M815.94,-132.25C770.08,-122.83 700.18,-107.5 640.5,-90.25 637.95,-89.51 635.33,-88.71 632.71,-87.88"/>
<polygon fill="#63b8ff" stroke="#63b8ff" points="634.02,-84.63 623.43,-84.8 631.82,-91.27 634.02,-84.63"/>
</a>
</g>
</g>
<!-- Node23 -->
<g id="Node000023" class="node">
<title>Node23</title>
<g id="a_Node000023"><a xlink:title=" ">
<polygon fill="#e0e0e0" stroke="#999999" points="741.75,-83.88 649.25,-83.88 649.25,-63.12 741.75,-63.12 741.75,-83.88"/>
<text text-anchor="middle" x="695.5" y="-70.38" font-family="Helvetica,sans-Serif" font-size="10.00">unordered_map</text>
</a>
</g>
</g>
<!-- Node13&#45;&gt;Node23 -->
<g id="edge32_Node000013_Node000023" class="edge">
<title>Node13&#45;&gt;Node23</title>
<g id="a_edge32_Node000013_Node000023"><a xlink:title=" ">
<path fill="none" stroke="#63b8ff" d="M824.78,-125.83C796.12,-114.45 758.14,-99.37 730.77,-88.5"/>
<polygon fill="#63b8ff" stroke="#63b8ff" points="732.1,-85.27 721.52,-84.83 729.52,-91.77 732.1,-85.27"/>
</a>
</g>
</g>
<!-- Node20&#45;&gt;Node5 -->
<g id="edge27_Node000020_Node000005" class="edge">
<title>Node20&#45;&gt;Node5</title>
<g id="a_edge27_Node000020_Node000005"><a xlink:title=" ">
<path fill="none" stroke="#63b8ff" d="M933.81,-62.23C949.14,-60.18 965.36,-58.21 980.5,-56.75 1262.75,-29.49 1334.9,-44.12 1617.5,-20.75 1625.33,-20.1 1633.56,-19.33 1641.69,-18.5"/>
<polygon fill="#63b8ff" stroke="#63b8ff" points="1641.98,-21.99 1651.56,-17.47 1641.25,-15.03 1641.98,-21.99"/>
</a>
</g>
</g>
<!-- Node20&#45;&gt;Node17 -->
<g id="edge26_Node000020_Node000017" class="edge">
<title>Node20&#45;&gt;Node17</title>
<g id="a_edge26_Node000020_Node000017"><a xlink:title=" ">
<path fill="none" stroke="#63b8ff" d="M840.03,-56.28C825.9,-47.29 808.41,-36.15 794.38,-27.22"/>
<polygon fill="#63b8ff" stroke="#63b8ff" points="796.47,-24.4 786.15,-21.98 792.71,-30.3 796.47,-24.4"/>
</a>
</g>
</g>
<!-- Node21 -->
<g id="Node000021" class="node">
<title>Node21</title>
<g id="a_Node000021"><a xlink:title=" ">
<polygon fill="#e0e0e0" stroke="#999999" points="907.88,-20.75 861.12,-20.75 861.12,0 907.88,0 907.88,-20.75"/>
<text text-anchor="middle" x="884.5" y="-7.25" font-family="Helvetica,sans-Serif" font-size="10.00">cmath</text>
</a>
</g>
</g>
<!-- Node20&#45;&gt;Node21 -->
<g id="edge28_Node000020_Node000021" class="edge">
<title>Node20&#45;&gt;Node21</title>
<g id="a_edge28_Node000020_Node000021"><a xlink:title=" ">
<path fill="none" stroke="#63b8ff" d="M870.49,-56.44C872.8,-49.02 875.57,-40.11 878.03,-32.18"/>
<polygon fill="#63b8ff" stroke="#63b8ff" points="881.37,-33.25 880.99,-22.66 874.68,-31.17 881.37,-33.25"/>
</a>
</g>
</g>
</g>
</svg>
