<?xml version="1.0" encoding="UTF-8" standalone="no"?>
<!DOCTYPE svg PUBLIC "-//W3C//DTD SVG 1.1//EN"
 "http://www.w3.org/Graphics/SVG/1.1/DTD/svg11.dtd">
<!-- Generated by graphviz version 12.2.1 (20241206.2353)
 -->
<!-- Title: include/prismspf/user_inputs/nucleation_parameters.h Pages: 1 -->
<svg width="1583pt" height="654pt"
 viewBox="0.00 0.00 1583.12 654.25" xmlns="http://www.w3.org/2000/svg" xmlns:xlink="http://www.w3.org/1999/xlink">
<g id="graph0" class="graph" transform="scale(1 1) rotate(0) translate(4 650.25)">
<title>include/prismspf/user_inputs/nucleation_parameters.h</title>
<!-- Node1 -->
<g id="Node000001" class="node">
<title>Node1</title>
<g id="a_Node000001"><a xlink:title=" ">
<polygon fill="#999999" stroke="#666666" points="1465.5,-646.25 1289.75,-646.25 1289.75,-612.75 1465.5,-612.75 1465.5,-646.25"/>
<text text-anchor="start" x="1297.75" y="-632.75" font-family="Helvetica,sans-Serif" font-size="10.00">include/prismspf/user</text>
<text text-anchor="middle" x="1377.62" y="-620" font-family="Helvetica,sans-Serif" font-size="10.00">_inputs/nucleation_parameters.h</text>
</a>
</g>
</g>
<!-- Node2 -->
<g id="Node000002" class="node">
<title>Node2</title>
<g id="a_Node000002"><a xlink:href="nucleation__manager_8h.html" target="_top" xlink:title=" ">
<polygon fill="white" stroke="#666666" points="1357.12,-368.25 1206.12,-368.25 1206.12,-334.75 1357.12,-334.75 1357.12,-368.25"/>
<text text-anchor="start" x="1214.12" y="-354.75" font-family="Helvetica,sans-Serif" font-size="10.00">include/prismspf/nucleation</text>
<text text-anchor="middle" x="1281.62" y="-342" font-family="Helvetica,sans-Serif" font-size="10.00">/nucleation_manager.h</text>
</a>
</g>
</g>
<!-- Node1&#45;&gt;Node2 -->
<g id="edge1_Node000001_Node000002" class="edge">
<title>Node1&#45;&gt;Node2</title>
<g id="a_edge1_Node000001_Node000002"><a xlink:title=" ">
<path fill="none" stroke="#63b8ff" d="M1382.45,-601.1C1388.84,-556.45 1395.39,-466.74 1358.62,-404.25 1349.56,-388.84 1333.88,-377.06 1319.02,-368.67"/>
<polygon fill="#63b8ff" stroke="#63b8ff" points="1379,-600.52 1380.92,-610.94 1385.92,-601.6 1379,-600.52"/>
</a>
</g>
</g>
<!-- Node5 -->
<g id="Node000005" class="node">
<title>Node5</title>
<g id="a_Node000005"><a xlink:href="nucleus__refinement__function_8h.html" target="_top" xlink:title=" ">
<polygon fill="white" stroke="#666666" points="1575.12,-576.75 1406.12,-576.75 1406.12,-543.25 1575.12,-543.25 1575.12,-576.75"/>
<text text-anchor="start" x="1414.12" y="-563.25" font-family="Helvetica,sans-Serif" font-size="10.00">include/prismspf/nucleation</text>
<text text-anchor="middle" x="1490.62" y="-550.5" font-family="Helvetica,sans-Serif" font-size="10.00">/nucleus_refinement_function.h</text>
</a>
</g>
</g>
<!-- Node1&#45;&gt;Node5 -->
<g id="edge4_Node000001_Node000005" class="edge">
<title>Node1&#45;&gt;Node5</title>
<g id="a_edge4_Node000001_Node000005"><a xlink:title=" ">
<path fill="none" stroke="#63b8ff" d="M1414.34,-606.57C1430.45,-596.95 1449,-585.86 1463.78,-577.04"/>
<polygon fill="#63b8ff" stroke="#63b8ff" points="1412.78,-603.42 1405.99,-611.56 1416.37,-609.43 1412.78,-603.42"/>
</a>
</g>
</g>
<!-- Node6 -->
<g id="Node000006" class="node">
<title>Node6</title>
<g id="a_Node000006"><a xlink:href="user__input__parameters_8h.html" target="_top" xlink:title=" ">
<polygon fill="white" stroke="#666666" points="1105.5,-576.75 929.75,-576.75 929.75,-543.25 1105.5,-543.25 1105.5,-576.75"/>
<text text-anchor="start" x="937.75" y="-563.25" font-family="Helvetica,sans-Serif" font-size="10.00">include/prismspf/user</text>
<text text-anchor="middle" x="1017.62" y="-550.5" font-family="Helvetica,sans-Serif" font-size="10.00">_inputs/user_input_parameters.h</text>
</a>
</g>
</g>
<!-- Node1&#45;&gt;Node6 -->
<g id="edge6_Node000001_Node000006" class="edge">
<title>Node1&#45;&gt;Node6</title>
<g id="a_edge6_Node000001_Node000006"><a xlink:title=" ">
<path fill="none" stroke="#63b8ff" d="M1280.23,-610.24C1225.26,-599.93 1157.16,-587.16 1104.09,-577.21"/>
<polygon fill="#63b8ff" stroke="#63b8ff" points="1279.43,-613.65 1289.91,-612.05 1280.72,-606.77 1279.43,-613.65"/>
</a>
</g>
</g>
<!-- Node3 -->
<g id="Node000003" class="node">
<title>Node3</title>
<g id="a_Node000003"><a xlink:href="problem_8h.html" target="_top" xlink:title=" ">
<polygon fill="white" stroke="#666666" points="1238.12,-229.25 1117.12,-229.25 1117.12,-195.75 1238.12,-195.75 1238.12,-229.25"/>
<text text-anchor="start" x="1125.12" y="-215.75" font-family="Helvetica,sans-Serif" font-size="10.00">include/prismspf/core</text>
<text text-anchor="middle" x="1177.62" y="-203" font-family="Helvetica,sans-Serif" font-size="10.00">/problem.h</text>
</a>
</g>
</g>
<!-- Node2&#45;&gt;Node3 -->
<g id="edge2_Node000002_Node000003" class="edge">
<title>Node2&#45;&gt;Node3</title>
<g id="a_edge2_Node000002_Node000003"><a xlink:title=" ">
<path fill="none" stroke="#63b8ff" d="M1262.54,-325.36C1241.28,-297.35 1207.56,-252.94 1189.68,-229.38"/>
<polygon fill="#63b8ff" stroke="#63b8ff" points="1259.74,-327.46 1268.58,-333.31 1265.32,-323.23 1259.74,-327.46"/>
</a>
</g>
</g>
<!-- Node4 -->
<g id="Node000004" class="node">
<title>Node4</title>
<g id="a_Node000004"><a xlink:href="problem_8cc.html" target="_top" xlink:title=" ">
<polygon fill="white" stroke="#666666" points="845.25,-20.75 734,-20.75 734,0 845.25,0 845.25,-20.75"/>
<text text-anchor="middle" x="789.62" y="-7.25" font-family="Helvetica,sans-Serif" font-size="10.00">src/core/problem.cc</text>
</a>
</g>
</g>
<!-- Node3&#45;&gt;Node4 -->
<g id="edge3_Node000003_Node000004" class="edge">
<title>Node3&#45;&gt;Node4</title>
<g id="a_edge3_Node000003_Node000004"><a xlink:title=" ">
<path fill="none" stroke="#63b8ff" d="M1136.09,-190.08C1052.79,-147.11 868.22,-51.91 808.6,-21.16"/>
<polygon fill="#63b8ff" stroke="#63b8ff" points="1134.36,-193.13 1144.86,-194.6 1137.57,-186.9 1134.36,-193.13"/>
</a>
</g>
</g>
<!-- Node5&#45;&gt;Node3 -->
<g id="edge5_Node000005_Node000003" class="edge">
<title>Node5&#45;&gt;Node3</title>
<g id="a_edge5_Node000005_Node000003"><a xlink:title=" ">
<path fill="none" stroke="#63b8ff" d="M1478.94,-532.35C1468.1,-505.15 1453.62,-461.45 1453.62,-422 1453.62,-422 1453.62,-422 1453.62,-350.5 1453.62,-255.15 1319.82,-226.16 1238.54,-217.35"/>
<polygon fill="#63b8ff" stroke="#63b8ff" points="1475.69,-533.63 1482.74,-541.53 1482.16,-530.95 1475.69,-533.63"/>
</a>
</g>
</g>
<!-- Node6&#45;&gt;Node2 -->
<g id="edge44_Node000006_Node000002" class="edge">
<title>Node6&#45;&gt;Node2</title>
<g id="a_edge44_Node000006_Node000002"><a xlink:title=" ">
<path fill="none" stroke="#63b8ff" d="M1046.85,-535.78C1077.1,-511.62 1125.57,-472.52 1166.62,-437.75 1183.8,-423.2 1186.8,-418 1204.62,-404.25 1221.08,-391.56 1240.5,-378.52 1255.72,-368.7"/>
<polygon fill="#63b8ff" stroke="#63b8ff" points="1044.9,-532.86 1039.26,-541.83 1049.26,-538.33 1044.9,-532.86"/>
</a>
</g>
</g>
<!-- Node6&#45;&gt;Node4 -->
<g id="edge50_Node000006_Node000004" class="edge">
<title>Node6&#45;&gt;Node4</title>
<g id="a_edge50_Node000006_Node000004"><a xlink:title=" ">
<path fill="none" stroke="#63b8ff" d="M926.23,-540.32C833.93,-519.23 701.25,-482.02 674.62,-437.75 637.04,-375.27 748.62,-341.14 770.62,-298.75 788.51,-264.3 789.62,-252.32 789.62,-213.5 789.62,-213.5 789.62,-213.5 789.62,-142 789.62,-96.87 789.62,-42.97 789.62,-21.21"/>
<polygon fill="#63b8ff" stroke="#63b8ff" points="925.28,-543.69 935.81,-542.48 926.82,-536.86 925.28,-543.69"/>
</a>
</g>
</g>
<!-- Node7 -->
<g id="Node000007" class="node">
<title>Node7</title>
<g id="a_Node000007"><a xlink:href="pde__operator__base_8h.html" target="_top" xlink:title=" ">
<polygon fill="white" stroke="#666666" points="936.12,-507.25 815.12,-507.25 815.12,-473.75 936.12,-473.75 936.12,-507.25"/>
<text text-anchor="start" x="823.12" y="-493.75" font-family="Helvetica,sans-Serif" font-size="10.00">include/prismspf/core</text>
<text text-anchor="middle" x="875.62" y="-481" font-family="Helvetica,sans-Serif" font-size="10.00">/pde_operator_base.h</text>
</a>
</g>
</g>
<!-- Node6&#45;&gt;Node7 -->
<g id="edge7_Node000006_Node000007" class="edge">
<title>Node6&#45;&gt;Node7</title>
<g id="a_edge7_Node000006_Node000007"><a xlink:title=" ">
<path fill="none" stroke="#63b8ff" d="M973.48,-538.01C952.79,-528.18 928.54,-516.66 909.36,-507.54"/>
<polygon fill="#63b8ff" stroke="#63b8ff" points="971.71,-541.05 982.25,-542.18 974.72,-534.73 971.71,-541.05"/>
</a>
</g>
</g>
<!-- Node16 -->
<g id="Node000016" class="node">
<title>Node16</title>
<g id="a_Node000016"><a xlink:href="solve__context_8h.html" target="_top" xlink:title=" ">
<polygon fill="white" stroke="#666666" points="1157.25,-437.75 1022,-437.75 1022,-404.25 1157.25,-404.25 1157.25,-437.75"/>
<text text-anchor="start" x="1030" y="-424.25" font-family="Helvetica,sans-Serif" font-size="10.00">include/prismspf/solvers</text>
<text text-anchor="middle" x="1089.62" y="-411.5" font-family="Helvetica,sans-Serif" font-size="10.00">/solve_context.h</text>
</a>
</g>
</g>
<!-- Node6&#45;&gt;Node16 -->
<g id="edge45_Node000006_Node000016" class="edge">
<title>Node6&#45;&gt;Node16</title>
<g id="a_edge45_Node000006_Node000016"><a xlink:title=" ">
<path fill="none" stroke="#63b8ff" d="M1031.23,-533.12C1045.96,-505.08 1069.01,-461.23 1081.28,-437.88"/>
<polygon fill="#63b8ff" stroke="#63b8ff" points="1028.28,-531.2 1026.73,-541.68 1034.48,-534.45 1028.28,-531.2"/>
</a>
</g>
</g>
<!-- Node18 -->
<g id="Node000018" class="node">
<title>Node18</title>
<g id="a_Node000018"><a xlink:href="solution__output_8h.html" target="_top" xlink:title=" ">
<polygon fill="white" stroke="#666666" points="1016.12,-368.25 895.12,-368.25 895.12,-334.75 1016.12,-334.75 1016.12,-368.25"/>
<text text-anchor="start" x="903.12" y="-354.75" font-family="Helvetica,sans-Serif" font-size="10.00">include/prismspf/core</text>
<text text-anchor="middle" x="955.62" y="-342" font-family="Helvetica,sans-Serif" font-size="10.00">/solution_output.h</text>
</a>
</g>
</g>
<!-- Node6&#45;&gt;Node18 -->
<g id="edge43_Node000006_Node000018" class="edge">
<title>Node6&#45;&gt;Node18</title>
<g id="a_edge43_Node000006_Node000018"><a xlink:title=" ">
<path fill="none" stroke="#63b8ff" d="M1010.91,-532.29C1002.94,-501.29 988.95,-448.73 974.62,-404.25 970.75,-392.22 965.82,-378.84 961.95,-368.7"/>
<polygon fill="#63b8ff" stroke="#63b8ff" points="1007.41,-532.77 1013.28,-541.59 1014.2,-531.04 1007.41,-532.77"/>
</a>
</g>
</g>
<!-- Node20 -->
<g id="Node000020" class="node">
<title>Node20</title>
<g id="a_Node000020"><a xlink:href="solver__base_8h.html" target="_top" xlink:title=" ">
<polygon fill="white" stroke="#666666" points="661.25,-368.25 526,-368.25 526,-334.75 661.25,-334.75 661.25,-368.25"/>
<text text-anchor="start" x="534" y="-354.75" font-family="Helvetica,sans-Serif" font-size="10.00">include/prismspf/solvers</text>
<text text-anchor="middle" x="593.62" y="-342" font-family="Helvetica,sans-Serif" font-size="10.00">/solver_base.h</text>
</a>
</g>
</g>
<!-- Node6&#45;&gt;Node20 -->
<g id="edge46_Node000006_Node000020" class="edge">
<title>Node6&#45;&gt;Node20</title>
<g id="a_edge46_Node000006_Node000020"><a xlink:title=" ">
<path fill="none" stroke="#63b8ff" d="M918.14,-554.52C792.17,-547.81 588.67,-533.09 565.62,-507.25 530.37,-467.72 564.63,-399.23 583.29,-368.38"/>
<polygon fill="#63b8ff" stroke="#63b8ff" points="917.64,-558 927.81,-555.03 918.01,-551.01 917.64,-558"/>
</a>
</g>
</g>
<!-- Node25 -->
<g id="Node000025" class="node">
<title>Node25</title>
<g id="a_Node000025"><a xlink:href="periodic__distance_8h.html" target="_top" xlink:title=" ">
<polygon fill="white" stroke="#666666" points="1350,-437.75 1213.25,-437.75 1213.25,-404.25 1350,-404.25 1350,-437.75"/>
<text text-anchor="start" x="1221.25" y="-424.25" font-family="Helvetica,sans-Serif" font-size="10.00">include/prismspf/utilities</text>
<text text-anchor="middle" x="1281.62" y="-411.5" font-family="Helvetica,sans-Serif" font-size="10.00">/periodic_distance.h</text>
</a>
</g>
</g>
<!-- Node6&#45;&gt;Node25 -->
<g id="edge47_Node000006_Node000025" class="edge">
<title>Node6&#45;&gt;Node25</title>
<g id="a_edge47_Node000006_Node000025"><a xlink:title=" ">
<path fill="none" stroke="#63b8ff" d="M1111.56,-539.74C1138.49,-531.96 1167.16,-521.38 1191.62,-507.25 1208.31,-497.62 1245.66,-459.78 1266.62,-437.88"/>
<polygon fill="#63b8ff" stroke="#63b8ff" points="1110.7,-536.35 1102,-542.4 1112.58,-543.09 1110.7,-536.35"/>
</a>
</g>
</g>
<!-- Node26 -->
<g id="Node000026" class="node">
<title>Node26</title>
<g id="a_Node000026"><a xlink:href="constraint__manager_8cc.html" target="_top" xlink:title=" ">
<polygon fill="white" stroke="#666666" points="1349.62,-507.25 1243.62,-507.25 1243.62,-473.75 1349.62,-473.75 1349.62,-507.25"/>
<text text-anchor="start" x="1251.62" y="-493.75" font-family="Helvetica,sans-Serif" font-size="10.00">src/core/constraint</text>
<text text-anchor="middle" x="1296.62" y="-481" font-family="Helvetica,sans-Serif" font-size="10.00">_manager.cc</text>
</a>
</g>
</g>
<!-- Node6&#45;&gt;Node26 -->
<g id="edge49_Node000006_Node000026" class="edge">
<title>Node6&#45;&gt;Node26</title>
<g id="a_edge49_Node000006_Node000026"><a xlink:title=" ">
<path fill="none" stroke="#63b8ff" d="M1095.55,-540.15C1142.69,-528.74 1201.56,-514.5 1243.4,-504.38"/>
<polygon fill="#63b8ff" stroke="#63b8ff" points="1094.82,-536.72 1085.92,-542.48 1096.47,-543.53 1094.82,-536.72"/>
</a>
</g>
</g>
<!-- Node27 -->
<g id="Node000027" class="node">
<title>Node27</title>
<g id="a_Node000027"><a xlink:href="user__input__parameters_8cc.html" target="_top" xlink:title=" ">
<polygon fill="white" stroke="#666666" points="696.12,-507.25 575.12,-507.25 575.12,-473.75 696.12,-473.75 696.12,-507.25"/>
<text text-anchor="start" x="583.12" y="-493.75" font-family="Helvetica,sans-Serif" font-size="10.00">src/user_inputs/user</text>
<text text-anchor="middle" x="635.62" y="-481" font-family="Helvetica,sans-Serif" font-size="10.00">_input_parameters.cc</text>
</a>
</g>
</g>
<!-- Node6&#45;&gt;Node27 -->
<g id="edge51_Node000006_Node000027" class="edge">
<title>Node6&#45;&gt;Node27</title>
<g id="a_edge51_Node000006_Node000027"><a xlink:title=" ">
<path fill="none" stroke="#63b8ff" d="M918.43,-543.31C858.22,-533.53 779.87,-520.35 710.62,-507.25 706.05,-506.38 701.32,-505.46 696.57,-504.51"/>
<polygon fill="#63b8ff" stroke="#63b8ff" points="917.53,-546.71 927.96,-544.86 918.65,-539.8 917.53,-546.71"/>
</a>
</g>
</g>
<!-- Node8 -->
<g id="Node000008" class="node">
<title>Node8</title>
<g id="a_Node000008"><a xlink:href="mf__operator_8h.html" target="_top" xlink:title=" ">
<polygon fill="white" stroke="#666666" points="489.25,-298.75 354,-298.75 354,-265.25 489.25,-265.25 489.25,-298.75"/>
<text text-anchor="start" x="362" y="-285.25" font-family="Helvetica,sans-Serif" font-size="10.00">include/prismspf/solvers</text>
<text text-anchor="middle" x="421.62" y="-272.5" font-family="Helvetica,sans-Serif" font-size="10.00">/mf_operator.h</text>
</a>
</g>
</g>
<!-- Node7&#45;&gt;Node8 -->
<g id="edge8_Node000007_Node000008" class="edge">
<title>Node7&#45;&gt;Node8</title>
<g id="a_edge8_Node000007_Node000008"><a xlink:title=" ">
<path fill="none" stroke="#63b8ff" d="M803.5,-480.83C753.67,-473.28 686.57,-459.96 630.62,-437.75 575.47,-415.86 564.24,-403.66 516.62,-368.25 487.11,-346.3 455.93,-316.97 437.65,-299.06"/>
<polygon fill="#63b8ff" stroke="#63b8ff" points="802.91,-484.29 813.31,-482.28 803.93,-477.36 802.91,-484.29"/>
</a>
</g>
</g>
<!-- Node7&#45;&gt;Node16 -->
<g id="edge21_Node000007_Node000016" class="edge">
<title>Node7&#45;&gt;Node16</title>
<g id="a_edge21_Node000007_Node000016"><a xlink:title=" ">
<path fill="none" stroke="#63b8ff" d="M937.46,-469.99C969.48,-459.9 1008.09,-447.72 1038.41,-438.15"/>
<polygon fill="#63b8ff" stroke="#63b8ff" points="936.81,-466.53 928.33,-472.88 938.92,-473.21 936.81,-466.53"/>
</a>
</g>
</g>
<!-- Node7&#45;&gt;Node20 -->
<g id="edge40_Node000007_Node000020" class="edge">
<title>Node7&#45;&gt;Node20</title>
<g id="a_edge40_Node000007_Node000020"><a xlink:title=" ">
<path fill="none" stroke="#63b8ff" d="M803.36,-480.88C763.32,-473.72 713.87,-460.82 674.62,-437.75 644.53,-420.06 618.5,-387.96 604.53,-368.6"/>
<polygon fill="#63b8ff" stroke="#63b8ff" points="802.72,-484.32 813.16,-482.53 803.89,-477.41 802.72,-484.32"/>
</a>
</g>
</g>
<!-- Node23 -->
<g id="Node000023" class="node">
<title>Node23</title>
<g id="a_Node000023"><a xlink:href="dirichlet_8cc.html" target="_top" xlink:title=" ">
<polygon fill="white" stroke="#666666" points="965.88,-431.38 855.38,-431.38 855.38,-410.62 965.88,-410.62 965.88,-431.38"/>
<text text-anchor="middle" x="910.62" y="-417.88" font-family="Helvetica,sans-Serif" font-size="10.00">src/core/dirichlet.cc</text>
</a>
</g>
</g>
<!-- Node7&#45;&gt;Node23 -->
<g id="edge41_Node000007_Node000023" class="edge">
<title>Node7&#45;&gt;Node23</title>
<g id="a_edge41_Node000007_Node000023"><a xlink:title=" ">
<path fill="none" stroke="#63b8ff" d="M889.15,-463.41C894.9,-452.34 901.24,-440.1 905.53,-431.82"/>
<polygon fill="#63b8ff" stroke="#63b8ff" points="886.11,-461.67 884.62,-472.16 892.33,-464.89 886.11,-461.67"/>
</a>
</g>
</g>
<!-- Node24 -->
<g id="Node000024" class="node">
<title>Node24</title>
<g id="a_Node000024"><a xlink:href="initial__conditions_8cc.html" target="_top" xlink:title=" ">
<polygon fill="white" stroke="#666666" points="837.62,-431.38 683.62,-431.38 683.62,-410.62 837.62,-410.62 837.62,-431.38"/>
<text text-anchor="middle" x="760.62" y="-417.88" font-family="Helvetica,sans-Serif" font-size="10.00">src/core/initial_conditions.cc</text>
</a>
</g>
</g>
<!-- Node7&#45;&gt;Node24 -->
<g id="edge42_Node000007_Node000024" class="edge">
<title>Node7&#45;&gt;Node24</title>
<g id="a_edge42_Node000007_Node000024"><a xlink:title=" ">
<path fill="none" stroke="#63b8ff" d="M838.34,-467.62C817.75,-455.53 793.19,-441.11 777.27,-431.77"/>
<polygon fill="#63b8ff" stroke="#63b8ff" points="836.38,-470.52 846.77,-472.57 839.92,-464.49 836.38,-470.52"/>
</a>
</g>
</g>
<!-- Node9 -->
<g id="Node000009" class="node">
<title>Node9</title>
<g id="a_Node000009"><a xlink:href="explicit__solver_8h.html" target="_top" xlink:title=" ">
<polygon fill="white" stroke="#666666" points="135.25,-229.25 0,-229.25 0,-195.75 135.25,-195.75 135.25,-229.25"/>
<text text-anchor="start" x="8" y="-215.75" font-family="Helvetica,sans-Serif" font-size="10.00">include/prismspf/solvers</text>
<text text-anchor="middle" x="67.62" y="-203" font-family="Helvetica,sans-Serif" font-size="10.00">/explicit_solver.h</text>
</a>
</g>
</g>
<!-- Node8&#45;&gt;Node9 -->
<g id="edge9_Node000008_Node000009" class="edge">
<title>Node8&#45;&gt;Node9</title>
<g id="a_edge9_Node000008_Node000009"><a xlink:title=" ">
<path fill="none" stroke="#63b8ff" d="M342.43,-265.97C288.16,-255.66 214.53,-241.66 149.62,-229.25 145.07,-228.38 140.37,-227.48 135.64,-226.57"/>
<polygon fill="#63b8ff" stroke="#63b8ff" points="341.75,-269.4 352.22,-267.83 343.05,-262.53 341.75,-269.4"/>
</a>
</g>
</g>
<!-- Node12 -->
<g id="Node000012" class="node">
<title>Node12</title>
<g id="a_Node000012"><a xlink:href="linear__solver_8h.html" target="_top" xlink:title=" ">
<polygon fill="white" stroke="#666666" points="489.25,-229.25 354,-229.25 354,-195.75 489.25,-195.75 489.25,-229.25"/>
<text text-anchor="start" x="362" y="-215.75" font-family="Helvetica,sans-Serif" font-size="10.00">include/prismspf/solvers</text>
<text text-anchor="middle" x="421.62" y="-203" font-family="Helvetica,sans-Serif" font-size="10.00">/linear_solver.h</text>
</a>
</g>
</g>
<!-- Node8&#45;&gt;Node12 -->
<g id="edge13_Node000008_Node000012" class="edge">
<title>Node8&#45;&gt;Node12</title>
<g id="a_edge13_Node000008_Node000012"><a xlink:title=" ">
<path fill="none" stroke="#63b8ff" d="M421.62,-253.56C421.62,-245.34 421.62,-236.59 421.62,-229.38"/>
<polygon fill="#63b8ff" stroke="#63b8ff" points="418.13,-253.49 421.63,-263.49 425.13,-253.49 418.13,-253.49"/>
</a>
</g>
</g>
<!-- Node13 -->
<g id="Node000013" class="node">
<title>Node13</title>
<g id="a_Node000013"><a xlink:href="mg__solver_8h.html" target="_top" xlink:title=" ">
<polygon fill="white" stroke="#666666" points="290.25,-159.75 155,-159.75 155,-126.25 290.25,-126.25 290.25,-159.75"/>
<text text-anchor="start" x="163" y="-146.25" font-family="Helvetica,sans-Serif" font-size="10.00">include/prismspf/solvers</text>
<text text-anchor="middle" x="222.62" y="-133.5" font-family="Helvetica,sans-Serif" font-size="10.00">/mg_solver.h</text>
</a>
</g>
</g>
<!-- Node8&#45;&gt;Node13 -->
<g id="edge18_Node000008_Node000013" class="edge">
<title>Node8&#45;&gt;Node13</title>
<g id="a_edge18_Node000008_Node000013"><a xlink:title=" ">
<path fill="none" stroke="#63b8ff" d="M342.23,-274.4C280.66,-267.44 202.54,-253.94 182.62,-229.25 165.48,-208 187.73,-178.2 205.27,-160.04"/>
<polygon fill="#63b8ff" stroke="#63b8ff" points="341.69,-277.86 352.01,-275.46 342.45,-270.9 341.69,-277.86"/>
</a>
</g>
</g>
<!-- Node14 -->
<g id="Node000014" class="node">
<title>Node14</title>
<g id="a_Node000014"><a xlink:href="newton__solver_8h.html" target="_top" xlink:title=" ">
<polygon fill="white" stroke="#666666" points="498.25,-159.75 363,-159.75 363,-126.25 498.25,-126.25 498.25,-159.75"/>
<text text-anchor="start" x="371" y="-146.25" font-family="Helvetica,sans-Serif" font-size="10.00">include/prismspf/solvers</text>
<text text-anchor="middle" x="430.62" y="-133.5" font-family="Helvetica,sans-Serif" font-size="10.00">/newton_solver.h</text>
</a>
</g>
</g>
<!-- Node8&#45;&gt;Node14 -->
<g id="edge19_Node000008_Node000014" class="edge">
<title>Node8&#45;&gt;Node14</title>
<g id="a_edge19_Node000008_Node000014"><a xlink:title=" ">
<path fill="none" stroke="#63b8ff" d="M469.8,-259C481.3,-251.31 492.12,-241.47 498.62,-229.25 505.63,-216.11 505.24,-209.09 498.62,-195.75 491.11,-180.6 476.81,-168.68 463.25,-160.12"/>
<polygon fill="#63b8ff" stroke="#63b8ff" points="468.06,-255.97 461.35,-264.17 471.71,-261.94 468.06,-255.97"/>
</a>
</g>
</g>
<!-- Node15 -->
<g id="Node000015" class="node">
<title>Node15</title>
<g id="a_Node000015"><a xlink:href="mf__operator_8cc.html" target="_top" xlink:title=" ">
<polygon fill="white" stroke="#666666" points="335.75,-222.88 191.5,-222.88 191.5,-202.12 335.75,-202.12 335.75,-222.88"/>
<text text-anchor="middle" x="263.62" y="-209.38" font-family="Helvetica,sans-Serif" font-size="10.00">src/solvers/mf_operator.cc</text>
</a>
</g>
</g>
<!-- Node8&#45;&gt;Node15 -->
<g id="edge20_Node000008_Node000015" class="edge">
<title>Node8&#45;&gt;Node15</title>
<g id="a_edge20_Node000008_Node000015"><a xlink:title=" ">
<path fill="none" stroke="#63b8ff" d="M373.47,-260.43C344.58,-248.08 309.16,-232.95 286.5,-223.27"/>
<polygon fill="#63b8ff" stroke="#63b8ff" points="371.82,-263.53 382.39,-264.24 374.57,-257.09 371.82,-263.53"/>
</a>
</g>
</g>
<!-- Node10 -->
<g id="Node000010" class="node">
<title>Node10</title>
<g id="a_Node000010"><a xlink:href="solvers_8h.html" target="_top" xlink:title=" ">
<polygon fill="white" stroke="#666666" points="498.25,-90.25 363,-90.25 363,-56.75 498.25,-56.75 498.25,-90.25"/>
<text text-anchor="start" x="371" y="-76.75" font-family="Helvetica,sans-Serif" font-size="10.00">include/prismspf/solvers</text>
<text text-anchor="middle" x="430.62" y="-64" font-family="Helvetica,sans-Serif" font-size="10.00">/solvers.h</text>
</a>
</g>
</g>
<!-- Node9&#45;&gt;Node10 -->
<g id="edge10_Node000009_Node000010" class="edge">
<title>Node9&#45;&gt;Node10</title>
<g id="a_edge10_Node000009_Node000010"><a xlink:title=" ">
<path fill="none" stroke="#63b8ff" d="M83.93,-186.11C97.88,-166.55 119.79,-140.52 145.62,-126.25 213.19,-88.92 302.2,-77.75 362.64,-74.79"/>
<polygon fill="#63b8ff" stroke="#63b8ff" points="81.19,-183.91 78.41,-194.13 86.96,-187.87 81.19,-183.91"/>
</a>
</g>
</g>
<!-- Node10&#45;&gt;Node4 -->
<g id="edge11_Node000010_Node000004" class="edge">
<title>Node10&#45;&gt;Node4</title>
<g id="a_edge11_Node000010_Node000004"><a xlink:title=" ">
<path fill="none" stroke="#63b8ff" d="M509.63,-59.05C577.48,-47.5 673.6,-31.13 733.74,-20.89"/>
<polygon fill="#63b8ff" stroke="#63b8ff" points="509.33,-55.55 500.06,-60.68 510.51,-62.45 509.33,-55.55"/>
</a>
</g>
</g>
<!-- Node11 -->
<g id="Node000011" class="node">
<title>Node11</title>
<g id="a_Node000011"><a xlink:href="solvers_8cc.html" target="_top" xlink:title=" ">
<polygon fill="white" stroke="#666666" points="490.75,-20.75 370.5,-20.75 370.5,0 490.75,0 490.75,-20.75"/>
<text text-anchor="middle" x="430.62" y="-7.25" font-family="Helvetica,sans-Serif" font-size="10.00">src/solvers/solvers.cc</text>
</a>
</g>
</g>
<!-- Node10&#45;&gt;Node11 -->
<g id="edge12_Node000010_Node000011" class="edge">
<title>Node10&#45;&gt;Node11</title>
<g id="a_edge12_Node000010_Node000011"><a xlink:title=" ">
<path fill="none" stroke="#63b8ff" d="M430.62,-44.94C430.62,-36.46 430.62,-27.67 430.62,-21.22"/>
<polygon fill="#63b8ff" stroke="#63b8ff" points="427.13,-44.93 430.63,-54.93 434.13,-44.93 427.13,-44.93"/>
</a>
</g>
</g>
<!-- Node12&#45;&gt;Node10 -->
<g id="edge17_Node000012_Node000010" class="edge">
<title>Node12&#45;&gt;Node10</title>
<g id="a_edge17_Node000012_Node000010"><a xlink:title=" ">
<path fill="none" stroke="#63b8ff" d="M379.76,-189.05C369.31,-181.26 359.43,-171.47 353.62,-159.75 347.01,-146.41 346.62,-139.39 353.62,-126.25 361.96,-110.61 377.34,-98.86 392.19,-90.54"/>
<polygon fill="#63b8ff" stroke="#63b8ff" points="377.53,-191.76 387.75,-194.53 381.48,-185.99 377.53,-191.76"/>
</a>
</g>
</g>
<!-- Node12&#45;&gt;Node13 -->
<g id="edge14_Node000012_Node000013" class="edge">
<title>Node12&#45;&gt;Node13</title>
<g id="a_edge14_Node000012_Node000013"><a xlink:title=" ">
<path fill="none" stroke="#63b8ff" d="M363.34,-191.73C333.73,-181.69 298.2,-169.63 270.25,-160.15"/>
<polygon fill="#63b8ff" stroke="#63b8ff" points="361.93,-194.95 372.53,-194.85 364.18,-188.32 361.93,-194.95"/>
</a>
</g>
</g>
<!-- Node12&#45;&gt;Node14 -->
<g id="edge15_Node000012_Node000014" class="edge">
<title>Node12&#45;&gt;Node14</title>
<g id="a_edge15_Node000012_Node000014"><a xlink:title=" ">
<path fill="none" stroke="#63b8ff" d="M425.25,-184.35C426.35,-176.04 427.53,-167.18 428.51,-159.88"/>
<polygon fill="#63b8ff" stroke="#63b8ff" points="421.81,-183.63 423.96,-194 428.75,-184.55 421.81,-183.63"/>
</a>
</g>
</g>
<!-- Node14&#45;&gt;Node10 -->
<g id="edge16_Node000014_Node000010" class="edge">
<title>Node14&#45;&gt;Node10</title>
<g id="a_edge16_Node000014_Node000010"><a xlink:title=" ">
<path fill="none" stroke="#63b8ff" d="M430.62,-114.56C430.62,-106.34 430.62,-97.59 430.62,-90.38"/>
<polygon fill="#63b8ff" stroke="#63b8ff" points="427.13,-114.49 430.63,-124.49 434.13,-114.49 427.13,-114.49"/>
</a>
</g>
</g>
<!-- Node16&#45;&gt;Node2 -->
<g id="edge29_Node000016_Node000002" class="edge">
<title>Node16&#45;&gt;Node2</title>
<g id="a_edge29_Node000016_Node000002"><a xlink:title=" ">
<path fill="none" stroke="#63b8ff" d="M1146.23,-400.1C1174.73,-390.08 1208.83,-378.09 1235.68,-368.65"/>
<polygon fill="#63b8ff" stroke="#63b8ff" points="1145.31,-396.71 1137.04,-403.33 1147.64,-403.32 1145.31,-396.71"/>
</a>
</g>
</g>
<!-- Node16&#45;&gt;Node3 -->
<g id="edge22_Node000016_Node000003" class="edge">
<title>Node16&#45;&gt;Node3</title>
<g id="a_edge22_Node000016_Node000003"><a xlink:title=" ">
<path fill="none" stroke="#63b8ff" d="M1107.1,-394.57C1122.7,-370.78 1145.12,-333.75 1158.62,-298.75 1167.58,-275.55 1172.86,-247.09 1175.5,-229.63"/>
<polygon fill="#63b8ff" stroke="#63b8ff" points="1104.34,-392.39 1101.71,-402.65 1110.17,-396.27 1104.34,-392.39"/>
</a>
</g>
</g>
<!-- Node17 -->
<g id="Node000017" class="node">
<title>Node17</title>
<g id="a_Node000017"><a xlink:href="refinement__manager_8h.html" target="_top" xlink:title=" ">
<polygon fill="white" stroke="#666666" points="1149.25,-298.75 1020,-298.75 1020,-265.25 1149.25,-265.25 1149.25,-298.75"/>
<text text-anchor="start" x="1028" y="-285.25" font-family="Helvetica,sans-Serif" font-size="10.00">include/prismspf/core</text>
<text text-anchor="middle" x="1084.62" y="-272.5" font-family="Helvetica,sans-Serif" font-size="10.00">/refinement_manager.h</text>
</a>
</g>
</g>
<!-- Node16&#45;&gt;Node17 -->
<g id="edge23_Node000016_Node000017" class="edge">
<title>Node16&#45;&gt;Node17</title>
<g id="a_edge23_Node000016_Node000017"><a xlink:title=" ">
<path fill="none" stroke="#63b8ff" d="M1088.63,-392.62C1087.6,-364.54 1086.04,-321.82 1085.2,-298.88"/>
<polygon fill="#63b8ff" stroke="#63b8ff" points="1085.12,-392.64 1088.99,-402.5 1092.12,-392.38 1085.12,-392.64"/>
</a>
</g>
</g>
<!-- Node16&#45;&gt;Node18 -->
<g id="edge25_Node000016_Node000018" class="edge">
<title>Node16&#45;&gt;Node18</title>
<g id="a_edge25_Node000016_Node000018"><a xlink:title=" ">
<path fill="none" stroke="#63b8ff" d="M1047.43,-398.74C1028.03,-388.97 1005.4,-377.57 987.46,-368.54"/>
<polygon fill="#63b8ff" stroke="#63b8ff" points="1045.67,-401.78 1056.18,-403.15 1048.82,-395.53 1045.67,-401.78"/>
</a>
</g>
</g>
<!-- Node16&#45;&gt;Node20 -->
<g id="edge30_Node000016_Node000020" class="edge">
<title>Node16&#45;&gt;Node20</title>
<g id="a_edge30_Node000016_Node000020"><a xlink:title=" ">
<path fill="none" stroke="#63b8ff" d="M1010.19,-409.11C998.27,-407.48 986.12,-405.82 974.62,-404.25 865,-389.3 737.61,-372.01 661.42,-361.69"/>
<polygon fill="#63b8ff" stroke="#63b8ff" points="1009.64,-412.57 1020.02,-410.45 1010.59,-405.63 1009.64,-412.57"/>
</a>
</g>
</g>
<!-- Node17&#45;&gt;Node3 -->
<g id="edge24_Node000017_Node000003" class="edge">
<title>Node17&#45;&gt;Node3</title>
<g id="a_edge24_Node000017_Node000003"><a xlink:title=" ">
<path fill="none" stroke="#63b8ff" d="M1115.74,-258.41C1128.74,-248.98 1143.55,-238.23 1155.42,-229.62"/>
<polygon fill="#63b8ff" stroke="#63b8ff" points="1113.93,-255.41 1107.89,-264.11 1118.04,-261.07 1113.93,-255.41"/>
</a>
</g>
</g>
<!-- Node18&#45;&gt;Node4 -->
<g id="edge27_Node000018_Node000004" class="edge">
<title>Node18&#45;&gt;Node4</title>
<g id="a_edge27_Node000018_Node000004"><a xlink:title=" ">
<path fill="none" stroke="#63b8ff" d="M887.41,-329.67C872.08,-322.12 857.23,-312.05 846.62,-298.75 822.42,-268.41 827.62,-252.32 827.62,-213.5 827.62,-213.5 827.62,-213.5 827.62,-142 827.62,-95 804.66,-42.14 794.44,-20.93"/>
<polygon fill="#63b8ff" stroke="#63b8ff" points="885.59,-332.68 896.14,-333.65 888.49,-326.31 885.59,-332.68"/>
</a>
</g>
</g>
<!-- Node18&#45;&gt;Node18 -->
<g id="edge26_Node000018_Node000018" class="edge">
<title>Node18&#45;&gt;Node18</title>
<g id="a_edge26_Node000018_Node000018"><a xlink:title=" ">
<path fill="none" stroke="#63b8ff" d="M1027.34,-360.45C1031.58,-358.31 1034.12,-355.33 1034.12,-351.5 1034.12,-345.05 1026.92,-341 1016.52,-339.33"/>
<polygon fill="#63b8ff" stroke="#63b8ff" points="1026.56,-357.04 1017.97,-363.23 1028.55,-363.75 1026.56,-357.04"/>
</a>
</g>
</g>
<!-- Node19 -->
<g id="Node000019" class="node">
<title>Node19</title>
<g id="a_Node000019"><a xlink:href="solution__output_8cc.html" target="_top" xlink:title=" ">
<polygon fill="white" stroke="#666666" points="1001.88,-292.38 855.38,-292.38 855.38,-271.62 1001.88,-271.62 1001.88,-292.38"/>
<text text-anchor="middle" x="928.62" y="-278.88" font-family="Helvetica,sans-Serif" font-size="10.00">src/core/solution_output.cc</text>
</a>
</g>
</g>
<!-- Node18&#45;&gt;Node19 -->
<g id="edge28_Node000018_Node000019" class="edge">
<title>Node18&#45;&gt;Node19</title>
<g id="a_edge28_Node000018_Node000019"><a xlink:title=" ">
<path fill="none" stroke="#63b8ff" d="M945.05,-324.07C940.66,-313.08 935.83,-301.02 932.55,-292.82"/>
<polygon fill="#63b8ff" stroke="#63b8ff" points="941.7,-325.11 948.66,-333.1 948.2,-322.51 941.7,-325.11"/>
</a>
</g>
</g>
<!-- Node20&#45;&gt;Node4 -->
<g id="edge38_Node000020_Node000004" class="edge">
<title>Node20&#45;&gt;Node4</title>
<g id="a_edge38_Node000020_Node000004"><a xlink:title=" ">
<path fill="none" stroke="#63b8ff" d="M608.42,-324.91C648.47,-255.61 757.77,-66.49 783.94,-21.21"/>
<polygon fill="#63b8ff" stroke="#63b8ff" points="605.55,-322.88 603.57,-333.29 611.61,-326.38 605.55,-322.88"/>
</a>
</g>
</g>
<!-- Node20&#45;&gt;Node8 -->
<g id="edge36_Node000020_Node000008" class="edge">
<title>Node20&#45;&gt;Node8</title>
<g id="a_edge36_Node000020_Node000008"><a xlink:title=" ">
<path fill="none" stroke="#63b8ff" d="M541.9,-330.2C516.58,-320.26 486.52,-308.47 462.78,-299.15"/>
<polygon fill="#63b8ff" stroke="#63b8ff" points="540.43,-333.38 551.02,-333.78 542.99,-326.87 540.43,-333.38"/>
</a>
</g>
</g>
<!-- Node20&#45;&gt;Node9 -->
<g id="edge34_Node000020_Node000009" class="edge">
<title>Node20&#45;&gt;Node9</title>
<g id="a_edge34_Node000020_Node000009"><a xlink:title=" ">
<path fill="none" stroke="#63b8ff" d="M514.4,-336C465.25,-326.52 400.96,-313.24 344.62,-298.75 263.25,-277.82 170.16,-247.92 115.28,-229.66"/>
<polygon fill="#63b8ff" stroke="#63b8ff" points="513.63,-339.42 524.11,-337.86 514.94,-332.54 513.63,-339.42"/>
</a>
</g>
</g>
<!-- Node20&#45;&gt;Node12 -->
<g id="edge35_Node000020_Node000012" class="edge">
<title>Node20&#45;&gt;Node12</title>
<g id="a_edge35_Node000020_Node000012"><a xlink:title=" ">
<path fill="none" stroke="#63b8ff" d="M568.83,-326.51C550.13,-308.85 523.53,-284.64 498.62,-265.25 482.23,-252.49 462.81,-239.44 447.57,-229.65"/>
<polygon fill="#63b8ff" stroke="#63b8ff" points="566.33,-328.96 575.99,-333.31 571.16,-323.88 566.33,-328.96"/>
</a>
</g>
</g>
<!-- Node20&#45;&gt;Node14 -->
<g id="edge37_Node000020_Node000014" class="edge">
<title>Node20&#45;&gt;Node14</title>
<g id="a_edge37_Node000020_Node000014"><a xlink:title=" ">
<path fill="none" stroke="#63b8ff" d="M585.23,-323.59C573.8,-290.4 550.67,-233.72 515.62,-195.75 501.91,-180.9 482.98,-168.81 466.46,-160.07"/>
<polygon fill="#63b8ff" stroke="#63b8ff" points="581.83,-324.46 588.31,-332.84 588.47,-322.25 581.83,-324.46"/>
</a>
</g>
</g>
<!-- Node20&#45;&gt;Node17 -->
<g id="edge31_Node000020_Node000017" class="edge">
<title>Node20&#45;&gt;Node17</title>
<g id="a_edge31_Node000020_Node000017"><a xlink:title=" ">
<path fill="none" stroke="#63b8ff" d="M672.67,-342.74C756.76,-334.01 893.53,-318.44 1010.62,-298.75 1013.6,-298.25 1016.65,-297.71 1019.71,-297.15"/>
<polygon fill="#63b8ff" stroke="#63b8ff" points="672.51,-339.24 662.92,-343.75 673.23,-346.2 672.51,-339.24"/>
</a>
</g>
</g>
<!-- Node21 -->
<g id="Node000021" class="node">
<title>Node21</title>
<g id="a_Node000021"><a xlink:href="constant__solver_8h.html" target="_top" xlink:title=" ">
<polygon fill="white" stroke="#666666" points="651.25,-159.75 516,-159.75 516,-126.25 651.25,-126.25 651.25,-159.75"/>
<text text-anchor="start" x="524" y="-146.25" font-family="Helvetica,sans-Serif" font-size="10.00">include/prismspf/solvers</text>
<text text-anchor="middle" x="583.62" y="-133.5" font-family="Helvetica,sans-Serif" font-size="10.00">/constant_solver.h</text>
</a>
</g>
</g>
<!-- Node20&#45;&gt;Node21 -->
<g id="edge32_Node000020_Node000021" class="edge">
<title>Node20&#45;&gt;Node21</title>
<g id="a_edge32_Node000020_Node000021"><a xlink:title=" ">
<path fill="none" stroke="#63b8ff" d="M592.29,-322.84C590.17,-279.09 586.11,-195.27 584.41,-160.13"/>
<polygon fill="#63b8ff" stroke="#63b8ff" points="588.79,-322.97 592.77,-332.78 595.78,-322.63 588.79,-322.97"/>
</a>
</g>
</g>
<!-- Node22 -->
<g id="Node000022" class="node">
<title>Node22</title>
<g id="a_Node000022"><a xlink:href="solver__base_8cc.html" target="_top" xlink:title=" ">
<polygon fill="white" stroke="#666666" points="761.38,-298.75 659.88,-298.75 659.88,-265.25 761.38,-265.25 761.38,-298.75"/>
<text text-anchor="start" x="667.88" y="-285.25" font-family="Helvetica,sans-Serif" font-size="10.00">src/solvers/solver</text>
<text text-anchor="middle" x="710.62" y="-272.5" font-family="Helvetica,sans-Serif" font-size="10.00">_base.cc</text>
</a>
</g>
</g>
<!-- Node20&#45;&gt;Node22 -->
<g id="edge39_Node000020_Node000022" class="edge">
<title>Node20&#45;&gt;Node22</title>
<g id="a_edge39_Node000020_Node000022"><a xlink:title=" ">
<path fill="none" stroke="#63b8ff" d="M631.17,-328.84C647.95,-319.16 667.38,-307.95 682.83,-299.04"/>
<polygon fill="#63b8ff" stroke="#63b8ff" points="629.87,-325.55 622.96,-333.58 633.37,-331.61 629.87,-325.55"/>
</a>
</g>
</g>
<!-- Node21&#45;&gt;Node10 -->
<g id="edge33_Node000021_Node000010" class="edge">
<title>Node21&#45;&gt;Node10</title>
<g id="a_edge33_Node000021_Node000010"><a xlink:title=" ">
<path fill="none" stroke="#63b8ff" d="M536.7,-121.3C514.37,-111.45 488.07,-99.84 467.24,-90.65"/>
<polygon fill="#63b8ff" stroke="#63b8ff" points="535.03,-124.39 545.59,-125.22 537.86,-117.98 535.03,-124.39"/>
</a>
</g>
</g>
<!-- Node25&#45;&gt;Node2 -->
<g id="edge48_Node000025_Node000002" class="edge">
<title>Node25&#45;&gt;Node2</title>
<g id="a_edge48_Node000025_Node000002"><a xlink:title=" ">
<path fill="none" stroke="#63b8ff" d="M1281.62,-392.56C1281.62,-384.34 1281.62,-375.59 1281.62,-368.38"/>
<polygon fill="#63b8ff" stroke="#63b8ff" points="1278.13,-392.49 1281.63,-402.49 1285.13,-392.49 1278.13,-392.49"/>
</a>
</g>
</g>
</g>
</svg>
