<?xml version="1.0" encoding="UTF-8" standalone="no"?>
<!DOCTYPE svg PUBLIC "-//W3C//DTD SVG 1.1//EN"
 "http://www.w3.org/Graphics/SVG/1.1/DTD/svg11.dtd">
<!-- Generated by graphviz version 2.43.0 (0)
 -->
<!-- Title: /home/runner/work/phaseField/phaseField/include/prismspf/user_inputs/nucleation_parameters.h Pages: 1 -->
<svg width="2668pt" height="489pt"
 viewBox="0.00 0.00 2668.00 489.00" xmlns="http://www.w3.org/2000/svg" xmlns:xlink="http://www.w3.org/1999/xlink">
<g id="graph0" class="graph" transform="scale(1 1) rotate(0) translate(4 485)">
<title>/home/runner/work/phaseField/phaseField/include/prismspf/user_inputs/nucleation_parameters.h</title>
<!-- Node1 -->
<g id="Node000001" class="node">
<title>Node1</title>
<g id="a_Node000001"><a xlink:title=" ">
<polygon fill="#999999" stroke="#666666" points="1385,-481 1185,-481 1185,-440 1385,-440 1385,-481"/>
<text text-anchor="start" x="1193" y="-469" font-family="Helvetica,sans-Serif" font-size="10.00">/home/runner/work/phaseField</text>
<text text-anchor="start" x="1193" y="-458" font-family="Helvetica,sans-Serif" font-size="10.00">/phaseField/include/prismspf</text>
<text text-anchor="middle" x="1285" y="-447" font-family="Helvetica,sans-Serif" font-size="10.00">/user_inputs/nucleation_parameters.h</text>
</a>
</g>
</g>
<!-- Node2 -->
<g id="Node000002" class="node">
<title>Node2</title>
<g id="a_Node000002"><a xlink:href="conditional__ostreams_8h.html" target="_top" xlink:title=" ">
<polygon fill="white" stroke="#666666" points="234,-217 94,-217 94,-187 234,-187 234,-217"/>
<text text-anchor="start" x="102" y="-205" font-family="Helvetica,sans-Serif" font-size="10.00">prismspf/core/conditional</text>
<text text-anchor="middle" x="164" y="-194" font-family="Helvetica,sans-Serif" font-size="10.00">_ostreams.h</text>
</a>
</g>
</g>
<!-- Node1&#45;&gt;Node2 -->
<g id="edge1_Node000001_Node000002" class="edge">
<title>Node1&#45;&gt;Node2</title>
<g id="a_edge1_Node000001_Node000002"><a xlink:title=" ">
<path fill="none" stroke="#63b8ff" d="M1184.76,-457.11C1011.01,-450.65 644.23,-426.71 349,-338 285.04,-318.78 265.11,-314.99 214,-272 198.68,-259.11 185.58,-240.56 176.64,-225.94"/>
<polygon fill="#63b8ff" stroke="#63b8ff" points="179.47,-223.85 171.38,-217 173.43,-227.4 179.47,-223.85"/>
</a>
</g>
</g>
<!-- Node4 -->
<g id="Node000004" class="node">
<title>Node4</title>
<g id="a_Node000004"><a xlink:title=" ">
<polygon fill="#e0e0e0" stroke="#999999" points="1165.5,-19 1064.5,-19 1064.5,0 1165.5,0 1165.5,-19"/>
<text text-anchor="middle" x="1115" y="-7" font-family="Helvetica,sans-Serif" font-size="10.00">prismspf/config.h</text>
</a>
</g>
</g>
<!-- Node1&#45;&gt;Node4 -->
<g id="edge73_Node000001_Node000004" class="edge">
<title>Node1&#45;&gt;Node4</title>
<g id="a_edge73_Node000001_Node000004"><a xlink:title=" ">
<path fill="none" stroke="#63b8ff" d="M1385.16,-459.51C1689.38,-458.22 2582,-444.2 2582,-324 2582,-324 2582,-324 2582,-135 2582,-82.14 2542.99,-74.85 2494,-55 2432.21,-29.96 1434.67,-14.81 1175.92,-11.29"/>
<polygon fill="#63b8ff" stroke="#63b8ff" points="1175.64,-7.79 1165.59,-11.15 1175.54,-14.79 1175.64,-7.79"/>
</a>
</g>
</g>
<!-- Node5 -->
<g id="Node000005" class="node">
<title>Node5</title>
<g id="a_Node000005"><a xlink:href="exceptions_8h.html" target="_top" xlink:title=" ">
<polygon fill="white" stroke="#666666" points="1172.5,-211.5 1023.5,-211.5 1023.5,-192.5 1172.5,-192.5 1172.5,-211.5"/>
<text text-anchor="middle" x="1098" y="-199.5" font-family="Helvetica,sans-Serif" font-size="10.00">prismspf/core/exceptions.h</text>
</a>
</g>
</g>
<!-- Node1&#45;&gt;Node5 -->
<g id="edge4_Node000001_Node000005" class="edge">
<title>Node1&#45;&gt;Node5</title>
<g id="a_edge4_Node000001_Node000005"><a xlink:title=" ">
<path fill="none" stroke="#63b8ff" d="M1270.64,-439.8C1235.11,-391.07 1143.6,-265.55 1110.33,-219.91"/>
<polygon fill="#63b8ff" stroke="#63b8ff" points="1113.04,-217.68 1104.32,-211.67 1107.38,-221.81 1113.04,-217.68"/>
</a>
</g>
</g>
<!-- Node11 -->
<g id="Node000011" class="node">
<title>Node11</title>
<g id="a_Node000011"><a xlink:title=" ">
<polygon fill="#e0e0e0" stroke="#999999" points="464,-19 420,-19 420,0 464,0 464,-19"/>
<text text-anchor="middle" x="442" y="-7" font-family="Helvetica,sans-Serif" font-size="10.00">string</text>
</a>
</g>
</g>
<!-- Node1&#45;&gt;Node11 -->
<g id="edge75_Node000001_Node000011" class="edge">
<title>Node1&#45;&gt;Node11</title>
<g id="a_edge75_Node000001_Node000011"><a xlink:title=" ">
<path fill="none" stroke="#63b8ff" d="M1184.97,-459.41C882.8,-457.82 0,-443 0,-324 0,-324 0,-324 0,-135 0,-83.12 38.05,-77.08 85,-55 142.36,-28.03 333.15,-15.85 409.76,-11.97"/>
<polygon fill="#63b8ff" stroke="#63b8ff" points="409.97,-15.46 419.78,-11.47 409.62,-8.47 409.97,-15.46"/>
</a>
</g>
</g>
<!-- Node12 -->
<g id="Node000012" class="node">
<title>Node12</title>
<g id="a_Node000012"><a xlink:href="simulation__timer_8h.html" target="_top" xlink:title=" ">
<polygon fill="white" stroke="#666666" points="1590,-217 1452,-217 1452,-187 1590,-187 1590,-217"/>
<text text-anchor="start" x="1460" y="-205" font-family="Helvetica,sans-Serif" font-size="10.00">prismspf/core/simulation</text>
<text text-anchor="middle" x="1521" y="-194" font-family="Helvetica,sans-Serif" font-size="10.00">_timer.h</text>
</a>
</g>
</g>
<!-- Node1&#45;&gt;Node12 -->
<g id="edge14_Node000001_Node000012" class="edge">
<title>Node1&#45;&gt;Node12</title>
<g id="a_edge14_Node000001_Node000012"><a xlink:title=" ">
<path fill="none" stroke="#63b8ff" d="M1315.78,-439.83C1348.68,-417.78 1401.09,-379.62 1438,-338 1469.19,-302.83 1495.72,-254.47 1509.91,-226.2"/>
<polygon fill="#63b8ff" stroke="#63b8ff" points="1513.12,-227.6 1514.41,-217.09 1506.84,-224.51 1513.12,-227.6"/>
</a>
</g>
</g>
<!-- Node13 -->
<g id="Node000013" class="node">
<title>Node13</title>
<g id="a_Node000013"><a xlink:href="nucleus_8h.html" target="_top" xlink:title=" ">
<polygon fill="white" stroke="#666666" points="1341.5,-217 1228.5,-217 1228.5,-187 1341.5,-187 1341.5,-217"/>
<text text-anchor="start" x="1236.5" y="-205" font-family="Helvetica,sans-Serif" font-size="10.00">prismspf/nucleation</text>
<text text-anchor="middle" x="1285" y="-194" font-family="Helvetica,sans-Serif" font-size="10.00">/nucleus.h</text>
</a>
</g>
</g>
<!-- Node1&#45;&gt;Node13 -->
<g id="edge17_Node000001_Node000013" class="edge">
<title>Node1&#45;&gt;Node13</title>
<g id="a_edge17_Node000001_Node000013"><a xlink:title=" ">
<path fill="none" stroke="#63b8ff" d="M1285,-439.8C1285,-393.46 1285,-277.67 1285,-227.18"/>
<polygon fill="#63b8ff" stroke="#63b8ff" points="1288.5,-227.17 1285,-217.17 1281.5,-227.17 1288.5,-227.17"/>
</a>
</g>
</g>
<!-- Node17 -->
<g id="Node000017" class="node">
<title>Node17</title>
<g id="a_Node000017"><a xlink:href="temporal__discretization_8h.html" target="_top" xlink:title=" ">
<polygon fill="white" stroke="#666666" points="1036,-404 892,-404 892,-374 1036,-374 1036,-404"/>
<text text-anchor="start" x="900" y="-392" font-family="Helvetica,sans-Serif" font-size="10.00">prismspf/user_inputs</text>
<text text-anchor="middle" x="964" y="-381" font-family="Helvetica,sans-Serif" font-size="10.00">/temporal_discretization.h</text>
</a>
</g>
</g>
<!-- Node1&#45;&gt;Node17 -->
<g id="edge24_Node000001_Node000017" class="edge">
<title>Node1&#45;&gt;Node17</title>
<g id="a_edge24_Node000001_Node000017"><a xlink:title=" ">
<path fill="none" stroke="#63b8ff" d="M1194.73,-439.96C1145.49,-429.3 1085.27,-416.26 1038.7,-406.17"/>
<polygon fill="#63b8ff" stroke="#63b8ff" points="1039.19,-402.7 1028.68,-404 1037.71,-409.54 1039.19,-402.7"/>
</a>
</g>
</g>
<!-- Node26 -->
<g id="Node000026" class="node">
<title>Node26</title>
<g id="a_Node000026"><a xlink:href="utilities_8h.html" target="_top" xlink:title=" ">
<polygon fill="white" stroke="#666666" points="1768.5,-217 1669.5,-217 1669.5,-187 1768.5,-187 1768.5,-217"/>
<text text-anchor="start" x="1677.5" y="-205" font-family="Helvetica,sans-Serif" font-size="10.00">prismspf/utilities</text>
<text text-anchor="middle" x="1719" y="-194" font-family="Helvetica,sans-Serif" font-size="10.00">/utilities.h</text>
</a>
</g>
</g>
<!-- Node1&#45;&gt;Node26 -->
<g id="edge56_Node000001_Node000026" class="edge">
<title>Node1&#45;&gt;Node26</title>
<g id="a_edge56_Node000001_Node000026"><a xlink:title=" ">
<path fill="none" stroke="#63b8ff" d="M1326.33,-439.97C1347.42,-429.72 1373.34,-416.68 1396,-404 1506.79,-342.01 1633.31,-259.79 1689.47,-222.67"/>
<polygon fill="#63b8ff" stroke="#63b8ff" points="1691.46,-225.55 1697.87,-217.11 1687.6,-219.71 1691.46,-225.55"/>
</a>
</g>
</g>
<!-- Node35 -->
<g id="Node000035" class="node">
<title>Node35</title>
<g id="a_Node000035"><a xlink:title=" ">
<polygon fill="#e0e0e0" stroke="#999999" points="2660,-398.5 2610,-398.5 2610,-379.5 2660,-379.5 2660,-398.5"/>
<text text-anchor="middle" x="2635" y="-386.5" font-family="Helvetica,sans-Serif" font-size="10.00">climits</text>
</a>
</g>
</g>
<!-- Node1&#45;&gt;Node35 -->
<g id="edge74_Node000001_Node000035" class="edge">
<title>Node1&#45;&gt;Node35</title>
<g id="a_edge74_Node000001_Node000035"><a xlink:title=" ">
<path fill="none" stroke="#63b8ff" d="M1385.27,-459.16C1650.26,-457.64 2364.62,-449.33 2596,-404 2599.01,-403.41 2602.1,-402.63 2605.16,-401.74"/>
<polygon fill="#63b8ff" stroke="#63b8ff" points="2606.28,-405.05 2614.68,-398.6 2604.09,-398.4 2606.28,-405.05"/>
</a>
</g>
</g>
<!-- Node3 -->
<g id="Node000003" class="node">
<title>Node3</title>
<g id="a_Node000003"><a xlink:title=" ">
<polygon fill="#e0e0e0" stroke="#999999" points="196,-151 66,-151 66,-121 196,-121 196,-151"/>
<text text-anchor="start" x="74" y="-139" font-family="Helvetica,sans-Serif" font-size="10.00">deal.II/base/conditional</text>
<text text-anchor="middle" x="131" y="-128" font-family="Helvetica,sans-Serif" font-size="10.00">_ostream.h</text>
</a>
</g>
</g>
<!-- Node2&#45;&gt;Node3 -->
<g id="edge2_Node000002_Node000003" class="edge">
<title>Node2&#45;&gt;Node3</title>
<g id="a_edge2_Node000002_Node000003"><a xlink:title=" ">
<path fill="none" stroke="#63b8ff" d="M156.68,-186.8C152.66,-179.01 147.58,-169.16 143,-160.28"/>
<polygon fill="#63b8ff" stroke="#63b8ff" points="146,-158.45 138.3,-151.16 139.78,-161.66 146,-158.45"/>
</a>
</g>
</g>
<!-- Node2&#45;&gt;Node4 -->
<g id="edge3_Node000002_Node000004" class="edge">
<title>Node2&#45;&gt;Node4</title>
<g id="a_edge3_Node000002_Node000004"><a xlink:title=" ">
<path fill="none" stroke="#63b8ff" d="M174.96,-186.97C189.68,-169.06 217.55,-138.33 248,-121 342.29,-67.34 376.12,-73.57 483,-55 690.29,-18.98 940.65,-11.94 1053.99,-10.69"/>
<polygon fill="#63b8ff" stroke="#63b8ff" points="1054.23,-14.19 1064.2,-10.59 1054.16,-7.19 1054.23,-14.19"/>
</a>
</g>
</g>
<!-- Node5&#45;&gt;Node4 -->
<g id="edge13_Node000005_Node000004" class="edge">
<title>Node5&#45;&gt;Node4</title>
<g id="a_edge13_Node000005_Node000004"><a xlink:title=" ">
<path fill="none" stroke="#63b8ff" d="M1097.33,-192.37C1095.75,-169.67 1092.54,-106.54 1101,-55 1102.44,-46.21 1105.23,-36.76 1107.94,-28.83"/>
<polygon fill="#63b8ff" stroke="#63b8ff" points="1111.32,-29.78 1111.46,-19.19 1104.74,-27.38 1111.32,-29.78"/>
</a>
</g>
</g>
<!-- Node6 -->
<g id="Node000006" class="node">
<title>Node6</title>
<g id="a_Node000006"><a xlink:title=" ">
<polygon fill="#e0e0e0" stroke="#999999" points="909,-145.5 771,-145.5 771,-126.5 909,-126.5 909,-145.5"/>
<text text-anchor="middle" x="840" y="-133.5" font-family="Helvetica,sans-Serif" font-size="10.00">deal.II/base/exceptions.h</text>
</a>
</g>
</g>
<!-- Node5&#45;&gt;Node6 -->
<g id="edge5_Node000005_Node000006" class="edge">
<title>Node5&#45;&gt;Node6</title>
<g id="a_edge5_Node000005_Node000006"><a xlink:title=" ">
<path fill="none" stroke="#63b8ff" d="M1063.47,-192.44C1017.13,-180.94 934.78,-160.51 884.03,-147.92"/>
<polygon fill="#63b8ff" stroke="#63b8ff" points="884.87,-144.52 874.32,-145.51 883.19,-151.32 884.87,-144.52"/>
</a>
</g>
</g>
<!-- Node7 -->
<g id="Node000007" class="node">
<title>Node7</title>
<g id="a_Node000007"><a xlink:href="types_8h.html" target="_top" xlink:title=" ">
<polygon fill="white" stroke="#666666" points="1049,-145.5 927,-145.5 927,-126.5 1049,-126.5 1049,-145.5"/>
<text text-anchor="middle" x="988" y="-133.5" font-family="Helvetica,sans-Serif" font-size="10.00">prismspf/core/types.h</text>
</a>
</g>
</g>
<!-- Node5&#45;&gt;Node7 -->
<g id="edge6_Node000005_Node000007" class="edge">
<title>Node5&#45;&gt;Node7</title>
<g id="a_edge6_Node000005_Node000007"><a xlink:title=" ">
<path fill="none" stroke="#63b8ff" d="M1083.16,-192.37C1064.88,-181.73 1033.56,-163.51 1011.87,-150.89"/>
<polygon fill="#63b8ff" stroke="#63b8ff" points="1013.36,-147.7 1002.95,-145.7 1009.83,-153.75 1013.36,-147.7"/>
</a>
</g>
</g>
<!-- Node7&#45;&gt;Node4 -->
<g id="edge12_Node000007_Node000004" class="edge">
<title>Node7&#45;&gt;Node4</title>
<g id="a_edge12_Node000007_Node000004"><a xlink:title=" ">
<path fill="none" stroke="#63b8ff" d="M995.59,-126.3C1008.81,-111.28 1037.12,-79.73 1063,-55 1073.74,-44.74 1086.39,-33.89 1096.52,-25.47"/>
<polygon fill="#63b8ff" stroke="#63b8ff" points="1098.84,-28.09 1104.35,-19.04 1094.4,-22.69 1098.84,-28.09"/>
</a>
</g>
</g>
<!-- Node8 -->
<g id="Node000008" class="node">
<title>Node8</title>
<g id="a_Node000008"><a xlink:title=" ">
<polygon fill="#e0e0e0" stroke="#999999" points="787.5,-85 678.5,-85 678.5,-55 787.5,-55 787.5,-85"/>
<text text-anchor="start" x="686.5" y="-73" font-family="Helvetica,sans-Serif" font-size="10.00">deal.II/matrix_free</text>
<text text-anchor="middle" x="733" y="-62" font-family="Helvetica,sans-Serif" font-size="10.00">/evaluation_flags.h</text>
</a>
</g>
</g>
<!-- Node7&#45;&gt;Node8 -->
<g id="edge7_Node000007_Node000008" class="edge">
<title>Node7&#45;&gt;Node8</title>
<g id="a_edge7_Node000007_Node000008"><a xlink:title=" ">
<path fill="none" stroke="#63b8ff" d="M953.87,-126.44C914.05,-116.44 847.32,-99.69 797.61,-87.22"/>
<polygon fill="#63b8ff" stroke="#63b8ff" points="798.46,-83.82 787.91,-84.78 796.76,-90.61 798.46,-83.82"/>
</a>
</g>
</g>
<!-- Node9 -->
<g id="Node000009" class="node">
<title>Node9</title>
<g id="a_Node000009"><a xlink:href="type__enums_8h.html" target="_top" xlink:title=" ">
<polygon fill="white" stroke="#666666" points="600,-85 492,-85 492,-55 600,-55 600,-85"/>
<text text-anchor="start" x="500" y="-73" font-family="Helvetica,sans-Serif" font-size="10.00">prismspf/core/type</text>
<text text-anchor="middle" x="546" y="-62" font-family="Helvetica,sans-Serif" font-size="10.00">_enums.h</text>
</a>
</g>
</g>
<!-- Node7&#45;&gt;Node9 -->
<g id="edge8_Node000007_Node000009" class="edge">
<title>Node7&#45;&gt;Node9</title>
<g id="a_edge8_Node000007_Node000009"><a xlink:title=" ">
<path fill="none" stroke="#63b8ff" d="M947.73,-126.49C938.02,-124.56 927.66,-122.61 918,-121 810.42,-103.03 684.49,-87.19 610.2,-78.37"/>
<polygon fill="#63b8ff" stroke="#63b8ff" points="610.41,-74.87 600.07,-77.17 609.59,-81.82 610.41,-74.87"/>
</a>
</g>
</g>
<!-- Node9&#45;&gt;Node4 -->
<g id="edge9_Node000009_Node000004" class="edge">
<title>Node9&#45;&gt;Node4</title>
<g id="a_edge9_Node000009_Node000004"><a xlink:title=" ">
<path fill="none" stroke="#63b8ff" d="M600.18,-60.02C611.97,-58.22 624.39,-56.44 636,-55 785.84,-36.4 962.92,-21.88 1054.05,-14.95"/>
<polygon fill="#63b8ff" stroke="#63b8ff" points="1054.49,-18.43 1064.2,-14.18 1053.96,-11.45 1054.49,-18.43"/>
</a>
</g>
</g>
<!-- Node10 -->
<g id="Node000010" class="node">
<title>Node10</title>
<g id="a_Node000010"><a xlink:title=" ">
<polygon fill="#e0e0e0" stroke="#999999" points="571,-19 521,-19 521,0 571,0 571,-19"/>
<text text-anchor="middle" x="546" y="-7" font-family="Helvetica,sans-Serif" font-size="10.00">cstdint</text>
</a>
</g>
</g>
<!-- Node9&#45;&gt;Node10 -->
<g id="edge10_Node000009_Node000010" class="edge">
<title>Node9&#45;&gt;Node10</title>
<g id="a_edge10_Node000009_Node000010"><a xlink:title=" ">
<path fill="none" stroke="#63b8ff" d="M546,-54.84C546,-47.21 546,-37.7 546,-29.45"/>
<polygon fill="#63b8ff" stroke="#63b8ff" points="549.5,-29.27 546,-19.27 542.5,-29.27 549.5,-29.27"/>
</a>
</g>
</g>
<!-- Node9&#45;&gt;Node11 -->
<g id="edge11_Node000009_Node000011" class="edge">
<title>Node9&#45;&gt;Node11</title>
<g id="a_edge11_Node000009_Node000011"><a xlink:title=" ">
<path fill="none" stroke="#63b8ff" d="M521.09,-54.99C504.51,-45.66 482.84,-33.47 466.37,-24.21"/>
<polygon fill="#63b8ff" stroke="#63b8ff" points="467.79,-20.99 457.36,-19.14 464.36,-27.09 467.79,-20.99"/>
</a>
</g>
</g>
<!-- Node12&#45;&gt;Node4 -->
<g id="edge16_Node000012_Node000004" class="edge">
<title>Node12&#45;&gt;Node4</title>
<g id="a_edge16_Node000012_Node000004"><a xlink:title=" ">
<path fill="none" stroke="#63b8ff" d="M1525.05,-186.6C1532.3,-157.35 1543.71,-90.78 1509,-55 1486.24,-31.54 1280.39,-18.4 1175.64,-13.17"/>
<polygon fill="#63b8ff" stroke="#63b8ff" points="1175.69,-9.67 1165.53,-12.68 1175.34,-16.66 1175.69,-9.67"/>
</a>
</g>
</g>
<!-- Node12&#45;&gt;Node7 -->
<g id="edge15_Node000012_Node000007" class="edge">
<title>Node12&#45;&gt;Node7</title>
<g id="a_edge15_Node000012_Node000007"><a xlink:title=" ">
<path fill="none" stroke="#63b8ff" d="M1451.87,-192.7C1350.32,-180.51 1161.81,-157.87 1059.14,-145.54"/>
<polygon fill="#63b8ff" stroke="#63b8ff" points="1059.52,-142.06 1049.17,-144.35 1058.69,-149.01 1059.52,-142.06"/>
</a>
</g>
</g>
<!-- Node13&#45;&gt;Node4 -->
<g id="edge20_Node000013_Node000004" class="edge">
<title>Node13&#45;&gt;Node4</title>
<g id="a_edge20_Node000013_Node000004"><a xlink:title=" ">
<path fill="none" stroke="#63b8ff" d="M1295.99,-186.92C1307.52,-170.31 1322.38,-142.25 1310,-121 1277.99,-66.07 1207.42,-36.25 1160.54,-21.86"/>
<polygon fill="#63b8ff" stroke="#63b8ff" points="1161.5,-18.49 1150.92,-19.02 1159.52,-25.2 1161.5,-18.49"/>
</a>
</g>
</g>
<!-- Node13&#45;&gt;Node7 -->
<g id="edge19_Node000013_Node000007" class="edge">
<title>Node13&#45;&gt;Node7</title>
<g id="a_edge19_Node000013_Node000007"><a xlink:title=" ">
<path fill="none" stroke="#63b8ff" d="M1228.44,-188.81C1173.26,-176.92 1090.15,-159.01 1037.51,-147.67"/>
<polygon fill="#63b8ff" stroke="#63b8ff" points="1038.24,-144.25 1027.73,-145.56 1036.77,-151.09 1038.24,-144.25"/>
</a>
</g>
</g>
<!-- Node13&#45;&gt;Node11 -->
<g id="edge23_Node000013_Node000011" class="edge">
<title>Node13&#45;&gt;Node11</title>
<g id="a_edge23_Node000013_Node000011"><a xlink:title=" ">
<path fill="none" stroke="#63b8ff" d="M1248.38,-186.92C1203.8,-170.05 1126.01,-141.5 1058,-121 943.03,-86.34 914.01,-77.2 796,-55 780.24,-52.04 558.22,-24.73 474.04,-14.42"/>
<polygon fill="#63b8ff" stroke="#63b8ff" points="474.37,-10.94 464.02,-13.19 473.52,-17.88 474.37,-10.94"/>
</a>
</g>
</g>
<!-- Node14 -->
<g id="Node000014" class="node">
<title>Node14</title>
<g id="a_Node000014"><a xlink:title=" ">
<polygon fill="#e0e0e0" stroke="#999999" points="1467,-145.5 1357,-145.5 1357,-126.5 1467,-126.5 1467,-145.5"/>
<text text-anchor="middle" x="1412" y="-133.5" font-family="Helvetica,sans-Serif" font-size="10.00">deal.II/base/point.h</text>
</a>
</g>
</g>
<!-- Node13&#45;&gt;Node14 -->
<g id="edge18_Node000013_Node000014" class="edge">
<title>Node13&#45;&gt;Node14</title>
<g id="a_edge18_Node000013_Node000014"><a xlink:title=" ">
<path fill="none" stroke="#63b8ff" d="M1312.87,-186.95C1334.65,-175.98 1364.7,-160.83 1385.99,-150.11"/>
<polygon fill="#63b8ff" stroke="#63b8ff" points="1387.74,-153.14 1395.1,-145.52 1384.59,-146.89 1387.74,-153.14"/>
</a>
</g>
</g>
<!-- Node15 -->
<g id="Node000015" class="node">
<title>Node15</title>
<g id="a_Node000015"><a xlink:title=" ">
<polygon fill="#e0e0e0" stroke="#999999" points="1225,-145.5 1181,-145.5 1181,-126.5 1225,-126.5 1225,-145.5"/>
<text text-anchor="middle" x="1203" y="-133.5" font-family="Helvetica,sans-Serif" font-size="10.00">mpi.h</text>
</a>
</g>
</g>
<!-- Node13&#45;&gt;Node15 -->
<g id="edge21_Node000013_Node000015" class="edge">
<title>Node13&#45;&gt;Node15</title>
<g id="a_edge21_Node000013_Node000015"><a xlink:title=" ">
<path fill="none" stroke="#63b8ff" d="M1266.8,-186.8C1253.64,-176.53 1235.89,-162.67 1222.45,-152.18"/>
<polygon fill="#63b8ff" stroke="#63b8ff" points="1224.37,-149.24 1214.33,-145.84 1220.06,-154.76 1224.37,-149.24"/>
</a>
</g>
</g>
<!-- Node16 -->
<g id="Node000016" class="node">
<title>Node16</title>
<g id="a_Node000016"><a xlink:title=" ">
<polygon fill="#e0e0e0" stroke="#999999" points="1300.5,-145.5 1243.5,-145.5 1243.5,-126.5 1300.5,-126.5 1300.5,-145.5"/>
<text text-anchor="middle" x="1272" y="-133.5" font-family="Helvetica,sans-Serif" font-size="10.00">ostream</text>
</a>
</g>
</g>
<!-- Node13&#45;&gt;Node16 -->
<g id="edge22_Node000013_Node000016" class="edge">
<title>Node13&#45;&gt;Node16</title>
<g id="a_edge22_Node000013_Node000016"><a xlink:title=" ">
<path fill="none" stroke="#63b8ff" d="M1282.11,-186.8C1280.27,-177.7 1277.85,-165.79 1275.84,-155.9"/>
<polygon fill="#63b8ff" stroke="#63b8ff" points="1279.22,-154.95 1273.8,-145.84 1272.36,-156.34 1279.22,-154.95"/>
</a>
</g>
</g>
<!-- Node17&#45;&gt;Node2 -->
<g id="edge25_Node000017_Node000002" class="edge">
<title>Node17&#45;&gt;Node2</title>
<g id="a_edge25_Node000017_Node000002"><a xlink:title=" ">
<path fill="none" stroke="#63b8ff" d="M891.88,-388.51C758.64,-386.88 467.49,-371.11 248,-272 223.17,-260.79 199.63,-240.28 183.82,-224.52"/>
<polygon fill="#63b8ff" stroke="#63b8ff" points="186.2,-221.94 176.71,-217.23 181.19,-226.83 186.2,-221.94"/>
</a>
</g>
</g>
<!-- Node17&#45;&gt;Node4 -->
<g id="edge55_Node000017_Node000004" class="edge">
<title>Node17&#45;&gt;Node4</title>
<g id="a_edge55_Node000017_Node000004"><a xlink:title=" ">
<path fill="none" stroke="#63b8ff" d="M1010.27,-373.9C1126.3,-337.48 1424.1,-237.09 1476,-151 1544.15,-37.95 1295.58,-15.66 1175.9,-11.41"/>
<polygon fill="#63b8ff" stroke="#63b8ff" points="1175.88,-7.91 1165.77,-11.09 1175.66,-14.91 1175.88,-7.91"/>
</a>
</g>
</g>
<!-- Node18 -->
<g id="Node000018" class="node">
<title>Node18</title>
<g id="a_Node000018"><a xlink:href="solve__group_8h.html" target="_top" xlink:title=" ">
<polygon fill="white" stroke="#666666" points="841.5,-338 728.5,-338 728.5,-308 841.5,-308 841.5,-338"/>
<text text-anchor="start" x="736.5" y="-326" font-family="Helvetica,sans-Serif" font-size="10.00">prismspf/core/solve</text>
<text text-anchor="middle" x="785" y="-315" font-family="Helvetica,sans-Serif" font-size="10.00">_group.h</text>
</a>
</g>
</g>
<!-- Node17&#45;&gt;Node18 -->
<g id="edge26_Node000017_Node000018" class="edge">
<title>Node17&#45;&gt;Node18</title>
<g id="a_edge26_Node000017_Node000018"><a xlink:title=" ">
<path fill="none" stroke="#63b8ff" d="M924.72,-373.95C898.02,-364.41 862.51,-351.71 833.97,-341.51"/>
<polygon fill="#63b8ff" stroke="#63b8ff" points="834.79,-338.08 824.19,-338.01 832.43,-344.67 834.79,-338.08"/>
</a>
</g>
</g>
<!-- Node18&#45;&gt;Node4 -->
<g id="edge51_Node000018_Node000004" class="edge">
<title>Node18&#45;&gt;Node4</title>
<g id="a_edge51_Node000018_Node000004"><a xlink:title=" ">
<path fill="none" stroke="#63b8ff" d="M841.78,-315.39C941.1,-302.54 1139.74,-270.62 1181,-217 1189.13,-206.43 1183.37,-200.12 1181,-187 1175.23,-155.07 1138.78,-66.66 1122.65,-28.46"/>
<polygon fill="#63b8ff" stroke="#63b8ff" points="1125.81,-26.95 1118.69,-19.11 1119.37,-29.68 1125.81,-26.95"/>
</a>
</g>
</g>
<!-- Node18&#45;&gt;Node6 -->
<g id="edge27_Node000018_Node000006" class="edge">
<title>Node18&#45;&gt;Node6</title>
<g id="a_edge27_Node000018_Node000006"><a xlink:title=" ">
<path fill="none" stroke="#63b8ff" d="M824.56,-307.97C861.97,-292.28 915.74,-262.9 939,-217 945.03,-205.11 945.99,-198.36 939,-187 927.55,-168.4 906.81,-156.46 887.26,-148.94"/>
<polygon fill="#63b8ff" stroke="#63b8ff" points="888.4,-145.63 877.81,-145.59 886.06,-152.23 888.4,-145.63"/>
</a>
</g>
</g>
<!-- Node18&#45;&gt;Node7 -->
<g id="edge50_Node000018_Node000007" class="edge">
<title>Node18&#45;&gt;Node7</title>
<g id="a_edge50_Node000018_Node000007"><a xlink:title=" ">
<path fill="none" stroke="#63b8ff" d="M841.51,-308.28C866.07,-300.42 894.16,-288.72 916,-272 955.09,-242.08 975.32,-184.73 983.5,-155.35"/>
<polygon fill="#63b8ff" stroke="#63b8ff" points="986.92,-156.13 986.07,-145.57 980.15,-154.35 986.92,-156.13"/>
</a>
</g>
</g>
<!-- Node18&#45;&gt;Node8 -->
<g id="edge28_Node000018_Node000008" class="edge">
<title>Node18&#45;&gt;Node8</title>
<g id="a_edge28_Node000018_Node000008"><a xlink:title=" ">
<path fill="none" stroke="#63b8ff" d="M728.46,-320.11C664.47,-316.37 558.09,-305.2 473,-272 403.6,-244.92 374.12,-223.51 357,-151 353.94,-138.02 348.22,-131.03 357,-121 362.1,-115.18 562.35,-90.96 668.48,-78.49"/>
<polygon fill="#63b8ff" stroke="#63b8ff" points="668.92,-81.96 678.45,-77.32 668.11,-75.01 668.92,-81.96"/>
</a>
</g>
</g>
<!-- Node18&#45;&gt;Node9 -->
<g id="edge49_Node000018_Node000009" class="edge">
<title>Node18&#45;&gt;Node9</title>
<g id="a_edge49_Node000018_Node000009"><a xlink:title=" ">
<path fill="none" stroke="#63b8ff" d="M728.42,-318.1C641.43,-311.43 479.43,-296.18 427,-272 393.55,-256.57 383.99,-248.57 365,-217 342.71,-179.93 322.44,-155.14 349,-121 365.35,-99.98 430.9,-86.37 481.96,-78.73"/>
<polygon fill="#63b8ff" stroke="#63b8ff" points="482.56,-82.18 491.95,-77.28 481.55,-75.25 482.56,-82.18"/>
</a>
</g>
</g>
<!-- Node18&#45;&gt;Node11 -->
<g id="edge53_Node000018_Node000011" class="edge">
<title>Node18&#45;&gt;Node11</title>
<g id="a_edge53_Node000018_Node000011"><a xlink:title=" ">
<path fill="none" stroke="#63b8ff" d="M728.24,-318.94C553.92,-308.79 38,-272.85 38,-203 38,-203 38,-203 38,-135 38,-57.35 314,-23.01 409.75,-13.43"/>
<polygon fill="#63b8ff" stroke="#63b8ff" points="410.38,-16.88 419.99,-12.43 409.7,-9.92 410.38,-16.88"/>
</a>
</g>
</g>
<!-- Node19 -->
<g id="Node000019" class="node">
<title>Node19</title>
<g id="a_Node000019"><a xlink:href="dependencies_8h.html" target="_top" xlink:title=" ">
<polygon fill="white" stroke="#666666" points="786.5,-272 623.5,-272 623.5,-253 786.5,-253 786.5,-272"/>
<text text-anchor="middle" x="705" y="-260" font-family="Helvetica,sans-Serif" font-size="10.00">prismspf/core/dependencies.h</text>
</a>
</g>
</g>
<!-- Node18&#45;&gt;Node19 -->
<g id="edge29_Node000018_Node000019" class="edge">
<title>Node18&#45;&gt;Node19</title>
<g id="a_edge29_Node000018_Node000019"><a xlink:title=" ">
<path fill="none" stroke="#63b8ff" d="M765.63,-307.84C753.43,-298.91 737.69,-287.41 725.31,-278.35"/>
<polygon fill="#63b8ff" stroke="#63b8ff" points="727.13,-275.34 716.99,-272.27 722.99,-280.99 727.13,-275.34"/>
</a>
</g>
</g>
<!-- Node23 -->
<g id="Node000023" class="node">
<title>Node23</title>
<g id="a_Node000023"><a xlink:title=" ">
<polygon fill="#e0e0e0" stroke="#999999" points="413.5,-145.5 366.5,-145.5 366.5,-126.5 413.5,-126.5 413.5,-145.5"/>
<text text-anchor="middle" x="390" y="-133.5" font-family="Helvetica,sans-Serif" font-size="10.00">vector</text>
</a>
</g>
</g>
<!-- Node18&#45;&gt;Node23 -->
<g id="edge54_Node000018_Node000023" class="edge">
<title>Node18&#45;&gt;Node23</title>
<g id="a_edge54_Node000018_Node000023"><a xlink:title=" ">
<path fill="none" stroke="#63b8ff" d="M728.27,-313.45C634.21,-298.12 451.95,-263.22 408,-217 392.48,-200.67 389.27,-173.96 389.08,-155.94"/>
<polygon fill="#63b8ff" stroke="#63b8ff" points="392.58,-155.85 389.28,-145.79 385.58,-155.71 392.58,-155.85"/>
</a>
</g>
</g>
<!-- Node25 -->
<g id="Node000025" class="node">
<title>Node25</title>
<g id="a_Node000025"><a xlink:title=" ">
<polygon fill="#e0e0e0" stroke="#999999" points="930,-211.5 898,-211.5 898,-192.5 930,-192.5 930,-211.5"/>
<text text-anchor="middle" x="914" y="-199.5" font-family="Helvetica,sans-Serif" font-size="10.00">set</text>
</a>
</g>
</g>
<!-- Node18&#45;&gt;Node25 -->
<g id="edge52_Node000018_Node000025" class="edge">
<title>Node18&#45;&gt;Node25</title>
<g id="a_edge52_Node000018_Node000025"><a xlink:title=" ">
<path fill="none" stroke="#63b8ff" d="M800.3,-307.88C824.63,-285.44 871.96,-241.78 897.2,-218.5"/>
<polygon fill="#63b8ff" stroke="#63b8ff" points="899.58,-221.06 904.56,-211.71 894.83,-215.92 899.58,-221.06"/>
</a>
</g>
</g>
<!-- Node19&#45;&gt;Node2 -->
<g id="edge33_Node000019_Node000002" class="edge">
<title>Node19&#45;&gt;Node2</title>
<g id="a_edge33_Node000019_Node000002"><a xlink:title=" ">
<path fill="none" stroke="#63b8ff" d="M626.33,-252.99C524.23,-241.95 347.01,-222.79 244.17,-211.67"/>
<polygon fill="#63b8ff" stroke="#63b8ff" points="244.47,-208.18 234.15,-210.59 243.72,-215.14 244.47,-208.18"/>
</a>
</g>
</g>
<!-- Node19&#45;&gt;Node4 -->
<g id="edge44_Node000019_Node000004" class="edge">
<title>Node19&#45;&gt;Node4</title>
<g id="a_edge44_Node000019_Node000004"><a xlink:title=" ">
<path fill="none" stroke="#63b8ff" d="M729.81,-252.95C745.84,-245.99 765.43,-234.42 775,-217 795.73,-179.26 736.5,-155.7 762,-121 796.86,-73.55 962.91,-37.38 1054.31,-20.68"/>
<polygon fill="#63b8ff" stroke="#63b8ff" points="1055.04,-24.1 1064.26,-18.88 1053.8,-17.21 1055.04,-24.1"/>
</a>
</g>
</g>
<!-- Node19&#45;&gt;Node6 -->
<g id="edge30_Node000019_Node000006" class="edge">
<title>Node19&#45;&gt;Node6</title>
<g id="a_edge30_Node000019_Node000006"><a xlink:title=" ">
<path fill="none" stroke="#63b8ff" d="M742.46,-252.96C764.05,-246.34 790.34,-235.15 808,-217 824.51,-200.03 832.84,-173.47 836.79,-155.66"/>
<polygon fill="#63b8ff" stroke="#63b8ff" points="840.26,-156.13 838.76,-145.64 833.39,-154.78 840.26,-156.13"/>
</a>
</g>
</g>
<!-- Node19&#45;&gt;Node7 -->
<g id="edge43_Node000019_Node000007" class="edge">
<title>Node19&#45;&gt;Node7</title>
<g id="a_edge43_Node000019_Node000007"><a xlink:title=" ">
<path fill="none" stroke="#63b8ff" d="M733.2,-252.94C759.25,-244.72 798.8,-231.46 832,-217 858.25,-205.57 863.56,-200.12 889,-187 913.56,-174.34 941.7,-160.16 961.68,-150.14"/>
<polygon fill="#63b8ff" stroke="#63b8ff" points="963.41,-153.19 970.79,-145.58 960.28,-146.93 963.41,-153.19"/>
</a>
</g>
</g>
<!-- Node19&#45;&gt;Node8 -->
<g id="edge32_Node000019_Node000008" class="edge">
<title>Node19&#45;&gt;Node8</title>
<g id="a_edge32_Node000019_Node000008"><a xlink:title=" ">
<path fill="none" stroke="#63b8ff" d="M623.3,-253.19C576.21,-246.52 523.53,-235.2 509,-217 500.68,-206.58 506.34,-200.07 509,-187 515.35,-155.78 512.83,-141.76 537,-121 556.69,-104.09 618.99,-90.04 668.12,-81.18"/>
<polygon fill="#63b8ff" stroke="#63b8ff" points="668.83,-84.61 678.07,-79.42 667.62,-77.72 668.83,-84.61"/>
</a>
</g>
</g>
<!-- Node19&#45;&gt;Node9 -->
<g id="edge42_Node000019_Node000009" class="edge">
<title>Node19&#45;&gt;Node9</title>
<g id="a_edge42_Node000019_Node000009"><a xlink:title=" ">
<path fill="none" stroke="#63b8ff" d="M623.29,-254.06C573.49,-247.64 516.52,-236.27 501,-217 471.35,-180.18 504.8,-123.86 527.86,-93.04"/>
<polygon fill="#63b8ff" stroke="#63b8ff" points="530.68,-95.11 534.03,-85.06 525.14,-90.83 530.68,-95.11"/>
</a>
</g>
</g>
<!-- Node19&#45;&gt;Node11 -->
<g id="edge47_Node000019_Node000011" class="edge">
<title>Node19&#45;&gt;Node11</title>
<g id="a_edge47_Node000019_Node000011"><a xlink:title=" ">
<path fill="none" stroke="#63b8ff" d="M623.37,-256.1C548.33,-249.92 443.52,-237.85 408,-217 366.33,-192.54 341.44,-166.74 357,-121 370.28,-81.96 403.53,-45.94 424.29,-26.21"/>
<polygon fill="#63b8ff" stroke="#63b8ff" points="426.86,-28.61 431.82,-19.25 422.1,-23.47 426.86,-28.61"/>
</a>
</g>
</g>
<!-- Node20 -->
<g id="Node000020" class="node">
<title>Node20</title>
<g id="a_Node000020"><a xlink:title=" ">
<polygon fill="#e0e0e0" stroke="#999999" points="766,-211.5 644,-211.5 644,-192.5 766,-192.5 766,-211.5"/>
<text text-anchor="middle" x="705" y="-199.5" font-family="Helvetica,sans-Serif" font-size="10.00">deal.II/base/utilities.h</text>
</a>
</g>
</g>
<!-- Node19&#45;&gt;Node20 -->
<g id="edge31_Node000019_Node000020" class="edge">
<title>Node19&#45;&gt;Node20</title>
<g id="a_edge31_Node000019_Node000020"><a xlink:title=" ">
<path fill="none" stroke="#63b8ff" d="M705,-252.87C705,-244.75 705,-232.31 705,-221.89"/>
<polygon fill="#63b8ff" stroke="#63b8ff" points="708.5,-221.67 705,-211.67 701.5,-221.67 708.5,-221.67"/>
</a>
</g>
</g>
<!-- Node21 -->
<g id="Node000021" class="node">
<title>Node21</title>
<g id="a_Node000021"><a xlink:href="field__attributes_8h.html" target="_top" xlink:title=" ">
<polygon fill="white" stroke="#666666" points="625.5,-217 518.5,-217 518.5,-187 625.5,-187 625.5,-217"/>
<text text-anchor="start" x="526.5" y="-205" font-family="Helvetica,sans-Serif" font-size="10.00">prismspf/core/field</text>
<text text-anchor="middle" x="572" y="-194" font-family="Helvetica,sans-Serif" font-size="10.00">_attributes.h</text>
</a>
</g>
</g>
<!-- Node19&#45;&gt;Node21 -->
<g id="edge34_Node000019_Node000021" class="edge">
<title>Node19&#45;&gt;Node21</title>
<g id="a_edge34_Node000019_Node000021"><a xlink:title=" ">
<path fill="none" stroke="#63b8ff" d="M685.66,-252.99C666.77,-244.68 637.42,-231.78 613.28,-221.16"/>
<polygon fill="#63b8ff" stroke="#63b8ff" points="614.54,-217.89 603.98,-217.06 611.72,-224.29 614.54,-217.89"/>
</a>
</g>
</g>
<!-- Node19&#45;&gt;Node23 -->
<g id="edge48_Node000019_Node000023" class="edge">
<title>Node19&#45;&gt;Node23</title>
<g id="a_edge48_Node000019_Node000023"><a xlink:title=" ">
<path fill="none" stroke="#63b8ff" d="M623.22,-255.39C556.11,-249.02 467.52,-237.1 438,-217 416.29,-202.22 402.82,-174.06 395.87,-155.4"/>
<polygon fill="#63b8ff" stroke="#63b8ff" points="399.09,-154 392.51,-145.69 392.47,-156.29 399.09,-154"/>
</a>
</g>
</g>
<!-- Node24 -->
<g id="Node000024" class="node">
<title>Node24</title>
<g id="a_Node000024"><a xlink:title=" ">
<polygon fill="#e0e0e0" stroke="#999999" points="1603,-145.5 1561,-145.5 1561,-126.5 1603,-126.5 1603,-145.5"/>
<text text-anchor="middle" x="1582" y="-133.5" font-family="Helvetica,sans-Serif" font-size="10.00">array</text>
</a>
</g>
</g>
<!-- Node19&#45;&gt;Node24 -->
<g id="edge45_Node000019_Node000024" class="edge">
<title>Node19&#45;&gt;Node24</title>
<g id="a_edge45_Node000019_Node000024"><a xlink:title=" ">
<path fill="none" stroke="#63b8ff" d="M786.5,-260.45C1001.81,-257.29 1571.23,-246.18 1599,-217 1614.86,-200.34 1603.84,-172.73 1593.61,-154.7"/>
<polygon fill="#63b8ff" stroke="#63b8ff" points="1596.37,-152.51 1588.18,-145.8 1590.4,-156.16 1596.37,-152.51"/>
</a>
</g>
</g>
<!-- Node19&#45;&gt;Node25 -->
<g id="edge46_Node000019_Node000025" class="edge">
<title>Node19&#45;&gt;Node25</title>
<g id="a_edge46_Node000019_Node000025"><a xlink:title=" ">
<path fill="none" stroke="#63b8ff" d="M749.47,-252.94C786.12,-245.3 839.17,-232.86 884,-217 885.42,-216.5 886.87,-215.95 888.32,-215.37"/>
<polygon fill="#63b8ff" stroke="#63b8ff" points="889.95,-218.48 897.73,-211.29 887.17,-212.06 889.95,-218.48"/>
</a>
</g>
</g>
<!-- Node21&#45;&gt;Node4 -->
<g id="edge38_Node000021_Node000004" class="edge">
<title>Node21&#45;&gt;Node4</title>
<g id="a_edge38_Node000021_Node000004"><a xlink:title=" ">
<path fill="none" stroke="#63b8ff" d="M582.99,-186.77C590.52,-176.88 600.61,-163.32 609,-151 637.32,-109.41 626.26,-81.55 669,-55 731.85,-15.96 947.43,-10.37 1054.16,-10.07"/>
<polygon fill="#63b8ff" stroke="#63b8ff" points="1054.45,-13.57 1064.45,-10.06 1054.44,-6.57 1054.45,-13.57"/>
</a>
</g>
</g>
<!-- Node21&#45;&gt;Node6 -->
<g id="edge35_Node000021_Node000006" class="edge">
<title>Node21&#45;&gt;Node6</title>
<g id="a_edge35_Node000021_Node000006"><a xlink:title=" ">
<path fill="none" stroke="#63b8ff" d="M625.59,-188.2C674.97,-176.41 747.47,-159.1 794.21,-147.93"/>
<polygon fill="#63b8ff" stroke="#63b8ff" points="795.15,-151.31 804.06,-145.58 793.52,-144.5 795.15,-151.31"/>
</a>
</g>
</g>
<!-- Node21&#45;&gt;Node7 -->
<g id="edge37_Node000021_Node000007" class="edge">
<title>Node21&#45;&gt;Node7</title>
<g id="a_edge37_Node000021_Node000007"><a xlink:title=" ">
<path fill="none" stroke="#63b8ff" d="M625.55,-188.75C628.74,-188.13 631.91,-187.54 635,-187 759.91,-165.22 792.87,-171.45 918,-151 924.34,-149.96 930.98,-148.77 937.55,-147.53"/>
<polygon fill="#63b8ff" stroke="#63b8ff" points="938.59,-150.9 947.74,-145.56 937.26,-144.02 938.59,-150.9"/>
</a>
</g>
</g>
<!-- Node21&#45;&gt;Node9 -->
<g id="edge36_Node000021_Node000009" class="edge">
<title>Node21&#45;&gt;Node9</title>
<g id="a_edge36_Node000021_Node000009"><a xlink:title=" ">
<path fill="none" stroke="#63b8ff" d="M581.05,-186.8C590.21,-170.55 601.83,-143.29 593,-121 588.7,-110.15 580.8,-100.27 572.7,-92.22"/>
<polygon fill="#63b8ff" stroke="#63b8ff" points="575,-89.59 565.29,-85.37 570.25,-94.73 575,-89.59"/>
</a>
</g>
</g>
<!-- Node21&#45;&gt;Node11 -->
<g id="edge40_Node000021_Node000011" class="edge">
<title>Node21&#45;&gt;Node11</title>
<g id="a_edge40_Node000021_Node000011"><a xlink:title=" ">
<path fill="none" stroke="#63b8ff" d="M560.03,-186.87C542.22,-165.52 508.13,-123.46 483,-85 470.8,-66.32 458.71,-43.73 450.86,-28.36"/>
<polygon fill="#63b8ff" stroke="#63b8ff" points="453.77,-26.37 446.15,-19.01 447.52,-29.51 453.77,-26.37"/>
</a>
</g>
</g>
<!-- Node22 -->
<g id="Node000022" class="node">
<title>Node22</title>
<g id="a_Node000022"><a xlink:title=" ">
<polygon fill="#e0e0e0" stroke="#999999" points="584,-145.5 546,-145.5 546,-126.5 584,-126.5 584,-145.5"/>
<text text-anchor="middle" x="565" y="-133.5" font-family="Helvetica,sans-Serif" font-size="10.00">map</text>
</a>
</g>
</g>
<!-- Node21&#45;&gt;Node22 -->
<g id="edge39_Node000021_Node000022" class="edge">
<title>Node21&#45;&gt;Node22</title>
<g id="a_edge39_Node000021_Node000022"><a xlink:title=" ">
<path fill="none" stroke="#63b8ff" d="M570.45,-186.8C569.45,-177.7 568.15,-165.79 567.07,-155.9"/>
<polygon fill="#63b8ff" stroke="#63b8ff" points="570.53,-155.4 565.97,-145.84 563.58,-156.17 570.53,-155.4"/>
</a>
</g>
</g>
<!-- Node21&#45;&gt;Node23 -->
<g id="edge41_Node000021_Node000023" class="edge">
<title>Node21&#45;&gt;Node23</title>
<g id="a_edge41_Node000021_Node000023"><a xlink:title=" ">
<path fill="none" stroke="#63b8ff" d="M530.96,-186.98C502.11,-177.07 462.64,-163.39 428,-151 426.16,-150.34 424.28,-149.66 422.38,-148.97"/>
<polygon fill="#63b8ff" stroke="#63b8ff" points="423.48,-145.65 412.88,-145.51 421.08,-152.23 423.48,-145.65"/>
</a>
</g>
</g>
<!-- Node26&#45;&gt;Node4 -->
<g id="edge64_Node000026_Node000004" class="edge">
<title>Node26&#45;&gt;Node4</title>
<g id="a_edge64_Node000026_Node000004"><a xlink:title=" ">
<path fill="none" stroke="#63b8ff" d="M1715.94,-186.76C1711.49,-169.19 1701.65,-139.4 1683,-121 1630.58,-69.27 1602.21,-73.8 1531,-55 1407.59,-22.42 1257.58,-13.6 1175.64,-11.27"/>
<polygon fill="#63b8ff" stroke="#63b8ff" points="1175.6,-7.77 1165.51,-11.01 1175.42,-14.77 1175.6,-7.77"/>
</a>
</g>
</g>
<!-- Node26&#45;&gt;Node6 -->
<g id="edge57_Node000026_Node000006" class="edge">
<title>Node26&#45;&gt;Node6</title>
<g id="a_edge57_Node000026_Node000006"><a xlink:title=" ">
<path fill="none" stroke="#63b8ff" d="M1669.44,-194.5C1647.84,-191.86 1622.2,-188.96 1599,-187 1296.99,-161.43 1219.08,-185.84 918,-151 909.55,-150.02 900.64,-148.7 891.97,-147.26"/>
<polygon fill="#63b8ff" stroke="#63b8ff" points="892.41,-143.78 881.96,-145.52 891.21,-150.68 892.41,-143.78"/>
</a>
</g>
</g>
<!-- Node26&#45;&gt;Node8 -->
<g id="edge61_Node000026_Node000008" class="edge">
<title>Node26&#45;&gt;Node8</title>
<g id="a_edge61_Node000026_Node000008"><a xlink:title=" ">
<path fill="none" stroke="#63b8ff" d="M1700.51,-186.74C1671.26,-164.24 1617.07,-122.85 1612,-121 1607.21,-119.26 1000.23,-85.71 797.83,-74.56"/>
<polygon fill="#63b8ff" stroke="#63b8ff" points="797.82,-71.06 787.65,-74 797.44,-78.05 797.82,-71.06"/>
</a>
</g>
</g>
<!-- Node26&#45;&gt;Node11 -->
<g id="edge66_Node000026_Node000011" class="edge">
<title>Node26&#45;&gt;Node11</title>
<g id="a_edge66_Node000026_Node000011"><a xlink:title=" ">
<path fill="none" stroke="#63b8ff" d="M1708.07,-186.72C1691.76,-165.83 1661.33,-128.6 1646,-121 1532.66,-64.79 637.81,-32.29 512,-19 499.57,-17.69 485.92,-16.07 474,-14.6"/>
<polygon fill="#63b8ff" stroke="#63b8ff" points="474.41,-11.12 464.05,-13.36 473.54,-18.07 474.41,-11.12"/>
</a>
</g>
</g>
<!-- Node26&#45;&gt;Node14 -->
<g id="edge58_Node000026_Node000014" class="edge">
<title>Node26&#45;&gt;Node14</title>
<g id="a_edge58_Node000026_Node000014"><a xlink:title=" ">
<path fill="none" stroke="#63b8ff" d="M1669.33,-190.65C1612.66,-178.83 1520.44,-159.61 1463.16,-147.66"/>
<polygon fill="#63b8ff" stroke="#63b8ff" points="1463.73,-144.21 1453.23,-145.6 1462.31,-151.06 1463.73,-144.21"/>
</a>
</g>
</g>
<!-- Node26&#45;&gt;Node24 -->
<g id="edge65_Node000026_Node000024" class="edge">
<title>Node26&#45;&gt;Node24</title>
<g id="a_edge65_Node000026_Node000024"><a xlink:title=" ">
<path fill="none" stroke="#63b8ff" d="M1688.93,-186.95C1665.23,-175.88 1632.44,-160.56 1609.44,-149.82"/>
<polygon fill="#63b8ff" stroke="#63b8ff" points="1610.77,-146.58 1600.23,-145.52 1607.81,-152.92 1610.77,-146.58"/>
</a>
</g>
</g>
<!-- Node27 -->
<g id="Node000027" class="node">
<title>Node27</title>
<g id="a_Node000027"><a xlink:title=" ">
<polygon fill="#e0e0e0" stroke="#999999" points="2553.5,-145.5 2438.5,-145.5 2438.5,-126.5 2553.5,-126.5 2553.5,-145.5"/>
<text text-anchor="middle" x="2496" y="-133.5" font-family="Helvetica,sans-Serif" font-size="10.00">deal.II/base/tensor.h</text>
</a>
</g>
</g>
<!-- Node26&#45;&gt;Node27 -->
<g id="edge59_Node000026_Node000027" class="edge">
<title>Node26&#45;&gt;Node27</title>
<g id="a_edge59_Node000026_Node000027"><a xlink:title=" ">
<path fill="none" stroke="#63b8ff" d="M1768.78,-199.54C1884.33,-195.71 2179.49,-183.32 2424,-151 2431.29,-150.04 2438.96,-148.79 2446.46,-147.45"/>
<polygon fill="#63b8ff" stroke="#63b8ff" points="2447.34,-150.85 2456.53,-145.57 2446.06,-143.96 2447.34,-150.85"/>
</a>
</g>
</g>
<!-- Node28 -->
<g id="Node000028" class="node">
<title>Node28</title>
<g id="a_Node000028"><a xlink:title=" ">
<polygon fill="#e0e0e0" stroke="#999999" points="2484.5,-79.5 2335.5,-79.5 2335.5,-60.5 2484.5,-60.5 2484.5,-79.5"/>
<text text-anchor="middle" x="2410" y="-67.5" font-family="Helvetica,sans-Serif" font-size="10.00">deal.II/base/vectorization.h</text>
</a>
</g>
</g>
<!-- Node26&#45;&gt;Node28 -->
<g id="edge60_Node000026_Node000028" class="edge">
<title>Node26&#45;&gt;Node28</title>
<g id="a_edge60_Node000026_Node000028"><a xlink:title=" ">
<path fill="none" stroke="#63b8ff" d="M1768.59,-200.63C1915.95,-199.08 2343.93,-191.13 2391,-151 2408.45,-136.12 2411.48,-108.41 2411.32,-89.83"/>
<polygon fill="#63b8ff" stroke="#63b8ff" points="2414.81,-89.49 2410.9,-79.64 2407.81,-89.78 2414.81,-89.49"/>
</a>
</g>
</g>
<!-- Node29 -->
<g id="Node000029" class="node">
<title>Node29</title>
<g id="a_Node000029"><a xlink:title=" ">
<polygon fill="#e0e0e0" stroke="#999999" points="1881,-145.5 1735,-145.5 1735,-126.5 1881,-126.5 1881,-145.5"/>
<text text-anchor="middle" x="1808" y="-133.5" font-family="Helvetica,sans-Serif" font-size="10.00">boost/range/algorithm.hpp</text>
</a>
</g>
</g>
<!-- Node26&#45;&gt;Node29 -->
<g id="edge62_Node000026_Node000029" class="edge">
<title>Node26&#45;&gt;Node29</title>
<g id="a_edge62_Node000026_Node000029"><a xlink:title=" ">
<path fill="none" stroke="#63b8ff" d="M1738.75,-186.8C1753.26,-176.37 1772.9,-162.24 1787.56,-151.69"/>
<polygon fill="#63b8ff" stroke="#63b8ff" points="1789.88,-154.34 1795.96,-145.66 1785.8,-148.66 1789.88,-154.34"/>
</a>
</g>
</g>
<!-- Node30 -->
<g id="Node000030" class="node">
<title>Node30</title>
<g id="a_Node000030"><a xlink:title=" ">
<polygon fill="#e0e0e0" stroke="#999999" points="2024.5,-151 1899.5,-151 1899.5,-121 2024.5,-121 2024.5,-151"/>
<text text-anchor="start" x="1907.5" y="-139" font-family="Helvetica,sans-Serif" font-size="10.00">boost/range/algorithm</text>
<text text-anchor="middle" x="1962" y="-128" font-family="Helvetica,sans-Serif" font-size="10.00">_ext.hpp</text>
</a>
</g>
</g>
<!-- Node26&#45;&gt;Node30 -->
<g id="edge63_Node000026_Node000030" class="edge">
<title>Node26&#45;&gt;Node30</title>
<g id="a_edge63_Node000026_Node000030"><a xlink:title=" ">
<path fill="none" stroke="#63b8ff" d="M1768.76,-187.89C1806.35,-178 1858.2,-164.34 1898.73,-153.66"/>
<polygon fill="#63b8ff" stroke="#63b8ff" points="1899.73,-157.02 1908.51,-151.09 1897.95,-150.25 1899.73,-157.02"/>
</a>
</g>
</g>
<!-- Node31 -->
<g id="Node000031" class="node">
<title>Node31</title>
<g id="a_Node000031"><a xlink:title=" ">
<polygon fill="#e0e0e0" stroke="#999999" points="2115.5,-145.5 2042.5,-145.5 2042.5,-126.5 2115.5,-126.5 2115.5,-145.5"/>
<text text-anchor="middle" x="2079" y="-133.5" font-family="Helvetica,sans-Serif" font-size="10.00">string_view</text>
</a>
</g>
</g>
<!-- Node26&#45;&gt;Node31 -->
<g id="edge67_Node000026_Node000031" class="edge">
<title>Node26&#45;&gt;Node31</title>
<g id="a_edge67_Node000026_Node000031"><a xlink:title=" ">
<path fill="none" stroke="#63b8ff" d="M1768.53,-195.38C1830.94,-187.79 1941.26,-172.67 2034,-151 2037.19,-150.26 2040.48,-149.4 2043.76,-148.49"/>
<polygon fill="#63b8ff" stroke="#63b8ff" points="2044.86,-151.81 2053.47,-145.64 2042.89,-145.1 2044.86,-151.81"/>
</a>
</g>
</g>
<!-- Node32 -->
<g id="Node000032" class="node">
<title>Node32</title>
<g id="a_Node000032"><a xlink:title=" ">
<polygon fill="#e0e0e0" stroke="#999999" points="2226.5,-145.5 2133.5,-145.5 2133.5,-126.5 2226.5,-126.5 2226.5,-145.5"/>
<text text-anchor="middle" x="2180" y="-133.5" font-family="Helvetica,sans-Serif" font-size="10.00">unordered_map</text>
</a>
</g>
</g>
<!-- Node26&#45;&gt;Node32 -->
<g id="edge68_Node000026_Node000032" class="edge">
<title>Node26&#45;&gt;Node32</title>
<g id="a_edge68_Node000026_Node000032"><a xlink:title=" ">
<path fill="none" stroke="#63b8ff" d="M1768.68,-196.93C1845.52,-190.17 1997.62,-174.95 2125,-151 2129.71,-150.11 2134.63,-149.06 2139.49,-147.93"/>
<polygon fill="#63b8ff" stroke="#63b8ff" points="2140.43,-151.3 2149.32,-145.54 2138.78,-144.5 2140.43,-151.3"/>
</a>
</g>
</g>
<!-- Node33 -->
<g id="Node000033" class="node">
<title>Node33</title>
<g id="a_Node000033"><a xlink:href="vectorized__operations_8h.html" target="_top" xlink:title=" ">
<polygon fill="white" stroke="#666666" points="2381.5,-151 2244.5,-151 2244.5,-121 2381.5,-121 2381.5,-151"/>
<text text-anchor="start" x="2252.5" y="-139" font-family="Helvetica,sans-Serif" font-size="10.00">prismspf/utilities</text>
<text text-anchor="middle" x="2313" y="-128" font-family="Helvetica,sans-Serif" font-size="10.00">/vectorized_operations.h</text>
</a>
</g>
</g>
<!-- Node26&#45;&gt;Node33 -->
<g id="edge69_Node000026_Node000033" class="edge">
<title>Node26&#45;&gt;Node33</title>
<g id="a_edge69_Node000026_Node000033"><a xlink:title=" ">
<path fill="none" stroke="#63b8ff" d="M1768.71,-197.58C1859.33,-191.04 2057.64,-175.34 2234.21,-151.18"/>
<polygon fill="#63b8ff" stroke="#63b8ff" points="2234.77,-154.64 2244.2,-149.8 2233.81,-147.7 2234.77,-154.64"/>
</a>
</g>
</g>
<!-- Node33&#45;&gt;Node4 -->
<g id="edge71_Node000033_Node000004" class="edge">
<title>Node33&#45;&gt;Node4</title>
<g id="a_edge71_Node000033_Node000004"><a xlink:title=" ">
<path fill="none" stroke="#63b8ff" d="M2244.18,-122.3C2241.42,-121.85 2238.69,-121.42 2236,-121 2007.96,-85.68 1950.6,-78.13 1721,-55 1521.96,-34.95 1285.28,-20.19 1175.94,-13.88"/>
<polygon fill="#63b8ff" stroke="#63b8ff" points="1175.94,-10.37 1165.76,-13.3 1175.54,-17.36 1175.94,-10.37"/>
</a>
</g>
</g>
<!-- Node33&#45;&gt;Node28 -->
<g id="edge70_Node000033_Node000028" class="edge">
<title>Node33&#45;&gt;Node28</title>
<g id="a_edge70_Node000033_Node000028"><a xlink:title=" ">
<path fill="none" stroke="#63b8ff" d="M2334.53,-120.8C2350.48,-110.27 2372.15,-95.97 2388.18,-85.4"/>
<polygon fill="#63b8ff" stroke="#63b8ff" points="2390.46,-88.09 2396.88,-79.66 2386.6,-82.24 2390.46,-88.09"/>
</a>
</g>
</g>
<!-- Node34 -->
<g id="Node000034" class="node">
<title>Node34</title>
<g id="a_Node000034"><a xlink:title=" ">
<polygon fill="#e0e0e0" stroke="#999999" points="2317.5,-79.5 2270.5,-79.5 2270.5,-60.5 2317.5,-60.5 2317.5,-79.5"/>
<text text-anchor="middle" x="2294" y="-67.5" font-family="Helvetica,sans-Serif" font-size="10.00">cmath</text>
</a>
</g>
</g>
<!-- Node33&#45;&gt;Node34 -->
<g id="edge72_Node000033_Node000034" class="edge">
<title>Node33&#45;&gt;Node34</title>
<g id="a_edge72_Node000033_Node000034"><a xlink:title=" ">
<path fill="none" stroke="#63b8ff" d="M2308.78,-120.8C2306.05,-111.6 2302.47,-99.53 2299.52,-89.58"/>
<polygon fill="#63b8ff" stroke="#63b8ff" points="2302.83,-88.43 2296.63,-79.84 2296.12,-90.43 2302.83,-88.43"/>
</a>
</g>
</g>
</g>
</svg>
