<?xml version="1.0" encoding="UTF-8" standalone="no"?>
<!DOCTYPE svg PUBLIC "-//W3C//DTD SVG 1.1//EN"
 "http://www.w3.org/Graphics/SVG/1.1/DTD/svg11.dtd">
<!-- Generated by graphviz version 2.43.0 (0)
 -->
<!-- Title: /home/runner/work/phaseField/phaseField/include/prismspf/nucleation/nucleus.h Pages: 1 -->
<svg width="1849pt" height="819pt"
 viewBox="0.00 0.00 1849.00 819.00" xmlns="http://www.w3.org/2000/svg" xmlns:xlink="http://www.w3.org/1999/xlink">
<g id="graph0" class="graph" transform="scale(1 1) rotate(0) translate(4 815)">
<title>/home/runner/work/phaseField/phaseField/include/prismspf/nucleation/nucleus.h</title>
<!-- Node1 -->
<g id="Node000001" class="node">
<title>Node1</title>
<g id="a_Node000001"><a xlink:title=" ">
<polygon fill="#999999" stroke="#666666" points="1661,-811 1497,-811 1497,-770 1661,-770 1661,-811"/>
<text text-anchor="start" x="1505" y="-799" font-family="Helvetica,sans-Serif" font-size="10.00">/home/runner/work/phaseField</text>
<text text-anchor="start" x="1505" y="-788" font-family="Helvetica,sans-Serif" font-size="10.00">/phaseField/include/prismspf</text>
<text text-anchor="middle" x="1579" y="-777" font-family="Helvetica,sans-Serif" font-size="10.00">/nucleation/nucleus.h</text>
</a>
</g>
</g>
<!-- Node2 -->
<g id="Node000002" class="node">
<title>Node2</title>
<g id="a_Node000002"><a xlink:href="phase__field__tools_8h.html" target="_top" xlink:title=" ">
<polygon fill="white" stroke="#666666" points="962,-651.5 798,-651.5 798,-610.5 962,-610.5 962,-651.5"/>
<text text-anchor="start" x="806" y="-639.5" font-family="Helvetica,sans-Serif" font-size="10.00">/home/runner/work/phaseField</text>
<text text-anchor="start" x="806" y="-628.5" font-family="Helvetica,sans-Serif" font-size="10.00">/phaseField/include/prismspf</text>
<text text-anchor="middle" x="880" y="-617.5" font-family="Helvetica,sans-Serif" font-size="10.00">/core/phase_field_tools.h</text>
</a>
</g>
</g>
<!-- Node1&#45;&gt;Node2 -->
<g id="edge1_Node000001_Node000002" class="edge">
<title>Node1&#45;&gt;Node2</title>
<g id="a_edge1_Node000001_Node000002"><a xlink:title=" ">
<path fill="none" stroke="#63b8ff" d="M1486.68,-768.7C1349.35,-737.76 1093.41,-680.09 962.2,-650.52"/>
<polygon fill="#63b8ff" stroke="#63b8ff" points="1486.24,-772.19 1496.76,-770.97 1487.77,-765.36 1486.24,-772.19"/>
</a>
</g>
</g>
<!-- Node19 -->
<g id="Node000019" class="node">
<title>Node19</title>
<g id="a_Node000019"><a xlink:href="nucleation__manager_8h.html" target="_top" xlink:title=" ">
<polygon fill="white" stroke="#666666" points="1596,-415 1414,-415 1414,-374 1596,-374 1596,-415"/>
<text text-anchor="start" x="1422" y="-403" font-family="Helvetica,sans-Serif" font-size="10.00">/home/runner/work/phaseField</text>
<text text-anchor="start" x="1422" y="-392" font-family="Helvetica,sans-Serif" font-size="10.00">/phaseField/include/prismspf</text>
<text text-anchor="middle" x="1505" y="-381" font-family="Helvetica,sans-Serif" font-size="10.00">/nucleation/nucleation_manager.h</text>
</a>
</g>
</g>
<!-- Node1&#45;&gt;Node19 -->
<g id="edge44_Node000001_Node000019" class="edge">
<title>Node1&#45;&gt;Node19</title>
<g id="a_edge44_Node000001_Node000019"><a xlink:title=" ">
<path fill="none" stroke="#63b8ff" d="M1605.63,-762.16C1612.57,-753.71 1619.39,-743.98 1624,-734 1643.34,-692.14 1643,-678.11 1643,-632 1643,-632 1643,-632 1643,-547.5 1643,-487.09 1582.5,-440.04 1541.62,-415.14"/>
<polygon fill="#63b8ff" stroke="#63b8ff" points="1602.89,-759.98 1599.01,-769.83 1608.19,-764.55 1602.89,-759.98"/>
</a>
</g>
</g>
<!-- Node26 -->
<g id="Node000026" class="node">
<title>Node26</title>
<g id="a_Node000026"><a xlink:href="nucleus__refinement__function_8h.html" target="_top" xlink:title=" ">
<polygon fill="white" stroke="#666666" points="1841,-657 1671,-657 1671,-605 1841,-605 1841,-657"/>
<text text-anchor="start" x="1679" y="-645" font-family="Helvetica,sans-Serif" font-size="10.00">/home/runner/work/phaseField</text>
<text text-anchor="start" x="1679" y="-634" font-family="Helvetica,sans-Serif" font-size="10.00">/phaseField/include/prismspf</text>
<text text-anchor="start" x="1679" y="-623" font-family="Helvetica,sans-Serif" font-size="10.00">/nucleation/nucleus_refinement</text>
<text text-anchor="middle" x="1756" y="-612" font-family="Helvetica,sans-Serif" font-size="10.00">_function.h</text>
</a>
</g>
</g>
<!-- Node1&#45;&gt;Node26 -->
<g id="edge45_Node000001_Node000026" class="edge">
<title>Node1&#45;&gt;Node26</title>
<g id="a_edge45_Node000001_Node000026"><a xlink:title=" ">
<path fill="none" stroke="#63b8ff" d="M1617.49,-764.19C1630.43,-755.15 1644.69,-744.57 1657,-734 1685.27,-709.73 1714.64,-678.6 1733.97,-657.15"/>
<polygon fill="#63b8ff" stroke="#63b8ff" points="1615.46,-761.34 1609.21,-769.9 1619.43,-767.1 1615.46,-761.34"/>
</a>
</g>
</g>
<!-- Node27 -->
<g id="Node000027" class="node">
<title>Node27</title>
<g id="a_Node000027"><a xlink:href="nucleation__parameters_8h.html" target="_top" xlink:title=" ">
<polygon fill="white" stroke="#666666" points="1615,-734 1415,-734 1415,-693 1615,-693 1615,-734"/>
<text text-anchor="start" x="1423" y="-722" font-family="Helvetica,sans-Serif" font-size="10.00">/home/runner/work/phaseField</text>
<text text-anchor="start" x="1423" y="-711" font-family="Helvetica,sans-Serif" font-size="10.00">/phaseField/include/prismspf</text>
<text text-anchor="middle" x="1515" y="-700" font-family="Helvetica,sans-Serif" font-size="10.00">/user_inputs/nucleation_parameters.h</text>
</a>
</g>
</g>
<!-- Node1&#45;&gt;Node27 -->
<g id="edge47_Node000001_Node000027" class="edge">
<title>Node1&#45;&gt;Node27</title>
<g id="a_edge47_Node000001_Node000027"><a xlink:title=" ">
<path fill="none" stroke="#63b8ff" d="M1555.49,-761.95C1547.6,-752.7 1538.96,-742.58 1531.7,-734.07"/>
<polygon fill="#63b8ff" stroke="#63b8ff" points="1553.03,-764.46 1562.18,-769.79 1558.36,-759.92 1553.03,-764.46"/>
</a>
</g>
</g>
<!-- Node3 -->
<g id="Node000003" class="node">
<title>Node3</title>
<g id="a_Node000003"><a xlink:href="pde__operator__base_8h.html" target="_top" xlink:title=" ">
<polygon fill="white" stroke="#666666" points="909,-569 745,-569 745,-528 909,-528 909,-569"/>
<text text-anchor="start" x="753" y="-557" font-family="Helvetica,sans-Serif" font-size="10.00">/home/runner/work/phaseField</text>
<text text-anchor="start" x="753" y="-546" font-family="Helvetica,sans-Serif" font-size="10.00">/phaseField/include/prismspf</text>
<text text-anchor="middle" x="827" y="-535" font-family="Helvetica,sans-Serif" font-size="10.00">/core/pde_operator_base.h</text>
</a>
</g>
</g>
<!-- Node2&#45;&gt;Node3 -->
<g id="edge2_Node000002_Node000003" class="edge">
<title>Node2&#45;&gt;Node3</title>
<g id="a_edge2_Node000002_Node000003"><a xlink:title=" ">
<path fill="none" stroke="#63b8ff" d="M861.22,-601.48C854.18,-590.79 846.35,-578.88 839.95,-569.17"/>
<polygon fill="#63b8ff" stroke="#63b8ff" points="858.48,-603.67 866.9,-610.1 864.32,-599.82 858.48,-603.67"/>
</a>
</g>
</g>
<!-- Node2&#45;&gt;Node19 -->
<g id="edge42_Node000002_Node000019" class="edge">
<title>Node2&#45;&gt;Node19</title>
<g id="a_edge42_Node000002_Node000019"><a xlink:title=" ">
<path fill="none" stroke="#63b8ff" d="M939.34,-606.74C992.78,-585.88 1073.51,-554.55 1144,-528 1252.55,-487.11 1380.05,-440.69 1450.77,-415.08"/>
<polygon fill="#63b8ff" stroke="#63b8ff" points="938.06,-603.48 930.02,-610.38 940.61,-610 938.06,-603.48"/>
</a>
</g>
</g>
<!-- Node25 -->
<g id="Node000025" class="node">
<title>Node25</title>
<g id="a_Node000025"><a xlink:href="phase__field__tools_8cc.html" target="_top" xlink:title=" ">
<polygon fill="white" stroke="#666666" points="727,-569 563,-569 563,-528 727,-528 727,-569"/>
<text text-anchor="start" x="571" y="-557" font-family="Helvetica,sans-Serif" font-size="10.00">/home/runner/work/phaseField</text>
<text text-anchor="start" x="571" y="-546" font-family="Helvetica,sans-Serif" font-size="10.00">/phaseField/src/core/phase</text>
<text text-anchor="middle" x="645" y="-535" font-family="Helvetica,sans-Serif" font-size="10.00">_field_tools.cc</text>
</a>
</g>
</g>
<!-- Node2&#45;&gt;Node25 -->
<g id="edge43_Node000002_Node000025" class="edge">
<title>Node2&#45;&gt;Node25</title>
<g id="a_edge43_Node000002_Node000025"><a xlink:title=" ">
<path fill="none" stroke="#63b8ff" d="M813.13,-607.09C778.06,-595.08 735.54,-580.51 702.04,-569.04"/>
<polygon fill="#63b8ff" stroke="#63b8ff" points="812.22,-610.48 822.81,-610.41 814.49,-603.86 812.22,-610.48"/>
</a>
</g>
</g>
<!-- Node4 -->
<g id="Node000004" class="node">
<title>Node4</title>
<g id="a_Node000004"><a xlink:href="mf__operator_8h.html" target="_top" xlink:title=" ">
<polygon fill="white" stroke="#666666" points="582,-338 418,-338 418,-297 582,-297 582,-338"/>
<text text-anchor="start" x="426" y="-326" font-family="Helvetica,sans-Serif" font-size="10.00">/home/runner/work/phaseField</text>
<text text-anchor="start" x="426" y="-315" font-family="Helvetica,sans-Serif" font-size="10.00">/phaseField/include/prismspf</text>
<text text-anchor="middle" x="500" y="-304" font-family="Helvetica,sans-Serif" font-size="10.00">/solvers/mf_operator.h</text>
</a>
</g>
</g>
<!-- Node3&#45;&gt;Node4 -->
<g id="edge3_Node000003_Node000004" class="edge">
<title>Node3&#45;&gt;Node4</title>
<g id="a_edge3_Node000003_Node000004"><a xlink:title=" ">
<path fill="none" stroke="#63b8ff" d="M734.75,-527.96C642.78,-513.41 595.97,-554.19 533,-492 491.22,-450.74 493.48,-374.12 497.27,-338.13"/>
<polygon fill="#63b8ff" stroke="#63b8ff" points="734.23,-531.43 744.69,-529.72 735.45,-524.53 734.23,-531.43"/>
</a>
</g>
</g>
<!-- Node14 -->
<g id="Node000014" class="node">
<title>Node14</title>
<g id="a_Node000014"><a xlink:href="solve__context_8h.html" target="_top" xlink:title=" ">
<polygon fill="white" stroke="#666666" points="1169,-492 1005,-492 1005,-451 1169,-451 1169,-492"/>
<text text-anchor="start" x="1013" y="-480" font-family="Helvetica,sans-Serif" font-size="10.00">/home/runner/work/phaseField</text>
<text text-anchor="start" x="1013" y="-469" font-family="Helvetica,sans-Serif" font-size="10.00">/phaseField/include/prismspf</text>
<text text-anchor="middle" x="1087" y="-458" font-family="Helvetica,sans-Serif" font-size="10.00">/solvers/solve_context.h</text>
</a>
</g>
</g>
<!-- Node3&#45;&gt;Node14 -->
<g id="edge17_Node000003_Node000014" class="edge">
<title>Node3&#45;&gt;Node14</title>
<g id="a_edge17_Node000003_Node000014"><a xlink:title=" ">
<path fill="none" stroke="#63b8ff" d="M904.26,-525.21C940.79,-514.68 984.02,-502.21 1019.25,-492.04"/>
<polygon fill="#63b8ff" stroke="#63b8ff" points="903.27,-521.86 894.63,-527.99 905.21,-528.58 903.27,-521.86"/>
</a>
</g>
</g>
<!-- Node20 -->
<g id="Node000020" class="node">
<title>Node20</title>
<g id="a_Node000020"><a xlink:href="solver__base_8h.html" target="_top" xlink:title=" ">
<polygon fill="white" stroke="#666666" points="818,-415 654,-415 654,-374 818,-374 818,-415"/>
<text text-anchor="start" x="662" y="-403" font-family="Helvetica,sans-Serif" font-size="10.00">/home/runner/work/phaseField</text>
<text text-anchor="start" x="662" y="-392" font-family="Helvetica,sans-Serif" font-size="10.00">/phaseField/include/prismspf</text>
<text text-anchor="middle" x="736" y="-381" font-family="Helvetica,sans-Serif" font-size="10.00">/solvers/solver_base.h</text>
</a>
</g>
</g>
<!-- Node3&#45;&gt;Node20 -->
<g id="edge39_Node000003_Node000020" class="edge">
<title>Node3&#45;&gt;Node20</title>
<g id="a_edge39_Node000003_Node000020"><a xlink:title=" ">
<path fill="none" stroke="#63b8ff" d="M734.72,-528.06C679.63,-520.03 571.75,-523.09 546,-492 509.36,-447.77 587.04,-421.69 653.85,-408.02"/>
<polygon fill="#63b8ff" stroke="#63b8ff" points="734.23,-531.53 744.68,-529.77 735.41,-524.63 734.23,-531.53"/>
</a>
</g>
</g>
<!-- Node23 -->
<g id="Node000023" class="node">
<title>Node23</title>
<g id="a_Node000023"><a xlink:href="initial__conditions_8cc.html" target="_top" xlink:title=" ">
<polygon fill="white" stroke="#666666" points="719,-492 555,-492 555,-451 719,-451 719,-492"/>
<text text-anchor="start" x="563" y="-480" font-family="Helvetica,sans-Serif" font-size="10.00">/home/runner/work/phaseField</text>
<text text-anchor="start" x="563" y="-469" font-family="Helvetica,sans-Serif" font-size="10.00">/phaseField/src/core/initial</text>
<text text-anchor="middle" x="637" y="-458" font-family="Helvetica,sans-Serif" font-size="10.00">_conditions.cc</text>
</a>
</g>
</g>
<!-- Node3&#45;&gt;Node23 -->
<g id="edge40_Node000003_Node000023" class="edge">
<title>Node3&#45;&gt;Node23</title>
<g id="a_edge40_Node000003_Node000023"><a xlink:title=" ">
<path fill="none" stroke="#63b8ff" d="M768.14,-524.27C741.97,-513.94 711.49,-501.9 686.51,-492.04"/>
<polygon fill="#63b8ff" stroke="#63b8ff" points="766.99,-527.57 777.58,-527.99 769.56,-521.06 766.99,-527.57"/>
</a>
</g>
</g>
<!-- Node24 -->
<g id="Node000024" class="node">
<title>Node24</title>
<g id="a_Node000024"><a xlink:href="nonuniform__dirichlet_8cc.html" target="_top" xlink:title=" ">
<polygon fill="white" stroke="#666666" points="910.5,-492 737.5,-492 737.5,-451 910.5,-451 910.5,-492"/>
<text text-anchor="start" x="745.5" y="-480" font-family="Helvetica,sans-Serif" font-size="10.00">/home/runner/work/phaseField</text>
<text text-anchor="start" x="745.5" y="-469" font-family="Helvetica,sans-Serif" font-size="10.00">/phaseField/src/core/nonuniform</text>
<text text-anchor="middle" x="824" y="-458" font-family="Helvetica,sans-Serif" font-size="10.00">_dirichlet.cc</text>
</a>
</g>
</g>
<!-- Node3&#45;&gt;Node24 -->
<g id="edge41_Node000003_Node000024" class="edge">
<title>Node3&#45;&gt;Node24</title>
<g id="a_edge41_Node000003_Node000024"><a xlink:title=" ">
<path fill="none" stroke="#63b8ff" d="M825.81,-517.69C825.46,-509.08 825.1,-499.9 824.78,-492.07"/>
<polygon fill="#63b8ff" stroke="#63b8ff" points="822.31,-517.94 826.21,-527.79 829.31,-517.66 822.31,-517.94"/>
</a>
</g>
</g>
<!-- Node5 -->
<g id="Node000005" class="node">
<title>Node5</title>
<g id="a_Node000005"><a xlink:href="explicit__solver_8h.html" target="_top" xlink:title=" ">
<polygon fill="white" stroke="#666666" points="251,-261 87,-261 87,-220 251,-220 251,-261"/>
<text text-anchor="start" x="95" y="-249" font-family="Helvetica,sans-Serif" font-size="10.00">/home/runner/work/phaseField</text>
<text text-anchor="start" x="95" y="-238" font-family="Helvetica,sans-Serif" font-size="10.00">/phaseField/include/prismspf</text>
<text text-anchor="middle" x="169" y="-227" font-family="Helvetica,sans-Serif" font-size="10.00">/solvers/explicit_solver.h</text>
</a>
</g>
</g>
<!-- Node4&#45;&gt;Node5 -->
<g id="edge4_Node000004_Node000005" class="edge">
<title>Node4&#45;&gt;Node5</title>
<g id="a_edge4_Node000004_Node000005"><a xlink:title=" ">
<path fill="none" stroke="#63b8ff" d="M407.76,-295.6C358.6,-284.46 298.64,-270.88 251.11,-260.1"/>
<polygon fill="#63b8ff" stroke="#63b8ff" points="407.23,-299.07 417.75,-297.86 408.78,-292.24 407.23,-299.07"/>
</a>
</g>
</g>
<!-- Node9 -->
<g id="Node000009" class="node">
<title>Node9</title>
<g id="a_Node000009"><a xlink:href="linear__helper_8h.html" target="_top" xlink:title=" ">
<polygon fill="white" stroke="#666666" points="873,-261 709,-261 709,-220 873,-220 873,-261"/>
<text text-anchor="start" x="717" y="-249" font-family="Helvetica,sans-Serif" font-size="10.00">/home/runner/work/phaseField</text>
<text text-anchor="start" x="717" y="-238" font-family="Helvetica,sans-Serif" font-size="10.00">/phaseField/include/prismspf</text>
<text text-anchor="middle" x="791" y="-227" font-family="Helvetica,sans-Serif" font-size="10.00">/solvers/linear_helper.h</text>
</a>
</g>
</g>
<!-- Node4&#45;&gt;Node9 -->
<g id="edge8_Node000004_Node000009" class="edge">
<title>Node4&#45;&gt;Node9</title>
<g id="a_edge8_Node000004_Node000009"><a xlink:title=" ">
<path fill="none" stroke="#63b8ff" d="M585.43,-294.48C626.53,-283.89 675.4,-271.29 715.18,-261.04"/>
<polygon fill="#63b8ff" stroke="#63b8ff" points="584.51,-291.11 575.7,-296.99 586.25,-297.88 584.51,-291.11"/>
</a>
</g>
</g>
<!-- Node10 -->
<g id="Node000010" class="node">
<title>Node10</title>
<g id="a_Node000010"><a xlink:href="linear__solver_8h.html" target="_top" xlink:title=" ">
<polygon fill="white" stroke="#666666" points="653,-261 489,-261 489,-220 653,-220 653,-261"/>
<text text-anchor="start" x="497" y="-249" font-family="Helvetica,sans-Serif" font-size="10.00">/home/runner/work/phaseField</text>
<text text-anchor="start" x="497" y="-238" font-family="Helvetica,sans-Serif" font-size="10.00">/phaseField/include/prismspf</text>
<text text-anchor="middle" x="571" y="-227" font-family="Helvetica,sans-Serif" font-size="10.00">/solvers/linear_solver.h</text>
</a>
</g>
</g>
<!-- Node4&#45;&gt;Node10 -->
<g id="edge9_Node000004_Node000010" class="edge">
<title>Node4&#45;&gt;Node10</title>
<g id="a_edge9_Node000004_Node000010"><a xlink:title=" ">
<path fill="none" stroke="#63b8ff" d="M525.55,-289.51C534.45,-280.11 544.25,-269.76 552.47,-261.07"/>
<polygon fill="#63b8ff" stroke="#63b8ff" points="522.99,-287.13 518.65,-296.79 528.07,-291.94 522.99,-287.13"/>
</a>
</g>
</g>
<!-- Node11 -->
<g id="Node000011" class="node">
<title>Node11</title>
<g id="a_Node000011"><a xlink:href="mg__solver_8h.html" target="_top" xlink:title=" ">
<polygon fill="white" stroke="#666666" points="520,-184 356,-184 356,-143 520,-143 520,-184"/>
<text text-anchor="start" x="364" y="-172" font-family="Helvetica,sans-Serif" font-size="10.00">/home/runner/work/phaseField</text>
<text text-anchor="start" x="364" y="-161" font-family="Helvetica,sans-Serif" font-size="10.00">/phaseField/include/prismspf</text>
<text text-anchor="middle" x="438" y="-150" font-family="Helvetica,sans-Serif" font-size="10.00">/solvers/mg_solver.h</text>
</a>
</g>
</g>
<!-- Node4&#45;&gt;Node11 -->
<g id="edge14_Node000004_Node000011" class="edge">
<title>Node4&#45;&gt;Node11</title>
<g id="a_edge14_Node000004_Node000011"><a xlink:title=" ">
<path fill="none" stroke="#63b8ff" d="M407.93,-302.31C361.43,-293.06 311.95,-279.29 298,-261 286.95,-246.51 287.76,-235.07 298,-220 311.52,-200.1 333.4,-187.34 355.89,-179.15"/>
<polygon fill="#63b8ff" stroke="#63b8ff" points="407.31,-305.75 417.8,-304.21 408.64,-298.88 407.31,-305.75"/>
</a>
</g>
</g>
<!-- Node12 -->
<g id="Node000012" class="node">
<title>Node12</title>
<g id="a_Node000012"><a xlink:href="newton__solver_8h.html" target="_top" xlink:title=" ">
<polygon fill="white" stroke="#666666" points="763,-184 599,-184 599,-143 763,-143 763,-184"/>
<text text-anchor="start" x="607" y="-172" font-family="Helvetica,sans-Serif" font-size="10.00">/home/runner/work/phaseField</text>
<text text-anchor="start" x="607" y="-161" font-family="Helvetica,sans-Serif" font-size="10.00">/phaseField/include/prismspf</text>
<text text-anchor="middle" x="681" y="-150" font-family="Helvetica,sans-Serif" font-size="10.00">/solvers/newton_solver.h</text>
</a>
</g>
</g>
<!-- Node4&#45;&gt;Node12 -->
<g id="edge15_Node000004_Node000012" class="edge">
<title>Node4&#45;&gt;Node12</title>
<g id="a_edge15_Node000004_Node000012"><a xlink:title=" ">
<path fill="none" stroke="#63b8ff" d="M591.94,-302.78C617.91,-294.63 643.97,-281.66 662,-261 680.53,-239.77 683.06,-205.82 682.53,-184.37"/>
<polygon fill="#63b8ff" stroke="#63b8ff" points="590.63,-299.52 582.01,-305.67 592.59,-306.24 590.63,-299.52"/>
</a>
</g>
</g>
<!-- Node13 -->
<g id="Node000013" class="node">
<title>Node13</title>
<g id="a_Node000013"><a xlink:href="mf__operator_8cc.html" target="_top" xlink:title=" ">
<polygon fill="white" stroke="#666666" points="471,-261 307,-261 307,-220 471,-220 471,-261"/>
<text text-anchor="start" x="315" y="-249" font-family="Helvetica,sans-Serif" font-size="10.00">/home/runner/work/phaseField</text>
<text text-anchor="start" x="315" y="-238" font-family="Helvetica,sans-Serif" font-size="10.00">/phaseField/src/solvers/mf</text>
<text text-anchor="middle" x="389" y="-227" font-family="Helvetica,sans-Serif" font-size="10.00">_operator.cc</text>
</a>
</g>
</g>
<!-- Node4&#45;&gt;Node13 -->
<g id="edge16_Node000004_Node000013" class="edge">
<title>Node4&#45;&gt;Node13</title>
<g id="a_edge16_Node000004_Node000013"><a xlink:title=" ">
<path fill="none" stroke="#63b8ff" d="M462.81,-291.37C448.24,-281.53 431.79,-270.41 418.12,-261.17"/>
<polygon fill="#63b8ff" stroke="#63b8ff" points="460.88,-294.29 471.13,-296.99 464.8,-288.49 460.88,-294.29"/>
</a>
</g>
</g>
<!-- Node6 -->
<g id="Node000006" class="node">
<title>Node6</title>
<g id="a_Node000006"><a xlink:href="solvers_8h.html" target="_top" xlink:title=" ">
<polygon fill="white" stroke="#666666" points="653,-107 489,-107 489,-66 653,-66 653,-107"/>
<text text-anchor="start" x="497" y="-95" font-family="Helvetica,sans-Serif" font-size="10.00">/home/runner/work/phaseField</text>
<text text-anchor="start" x="497" y="-84" font-family="Helvetica,sans-Serif" font-size="10.00">/phaseField/include/prismspf</text>
<text text-anchor="middle" x="571" y="-73" font-family="Helvetica,sans-Serif" font-size="10.00">/solvers/solvers.h</text>
</a>
</g>
</g>
<!-- Node5&#45;&gt;Node6 -->
<g id="edge5_Node000005_Node000006" class="edge">
<title>Node5&#45;&gt;Node6</title>
<g id="a_edge5_Node000005_Node000006"><a xlink:title=" ">
<path fill="none" stroke="#63b8ff" d="M207.88,-214.66C243.05,-193.12 296.84,-162.44 347,-143 392.67,-125.3 445.8,-111.84 488.86,-102.62"/>
<polygon fill="#63b8ff" stroke="#63b8ff" points="206.03,-211.69 199.36,-219.93 209.71,-217.65 206.03,-211.69"/>
</a>
</g>
</g>
<!-- Node7 -->
<g id="Node000007" class="node">
<title>Node7</title>
<g id="a_Node000007"><a xlink:href="problem_8cc.html" target="_top" xlink:title=" ">
<polygon fill="white" stroke="#666666" points="1062,-30 892,-30 892,0 1062,0 1062,-30"/>
<text text-anchor="start" x="900" y="-18" font-family="Helvetica,sans-Serif" font-size="10.00">/home/runner/work/phaseField</text>
<text text-anchor="middle" x="977" y="-7" font-family="Helvetica,sans-Serif" font-size="10.00">/phaseField/src/core/problem.cc</text>
</a>
</g>
</g>
<!-- Node6&#45;&gt;Node7 -->
<g id="edge6_Node000006_Node000007" class="edge">
<title>Node6&#45;&gt;Node7</title>
<g id="a_edge6_Node000006_Node000007"><a xlink:title=" ">
<path fill="none" stroke="#63b8ff" d="M663.26,-69.71C733,-57.77 827.86,-41.53 894.96,-30.04"/>
<polygon fill="#63b8ff" stroke="#63b8ff" points="662.43,-66.3 653.16,-71.44 663.61,-73.2 662.43,-66.3"/>
</a>
</g>
</g>
<!-- Node8 -->
<g id="Node000008" class="node">
<title>Node8</title>
<g id="a_Node000008"><a xlink:href="solvers_8cc.html" target="_top" xlink:title=" ">
<polygon fill="white" stroke="#666666" points="660.5,-30 481.5,-30 481.5,0 660.5,0 660.5,-30"/>
<text text-anchor="start" x="489.5" y="-18" font-family="Helvetica,sans-Serif" font-size="10.00">/home/runner/work/phaseField</text>
<text text-anchor="middle" x="571" y="-7" font-family="Helvetica,sans-Serif" font-size="10.00">/phaseField/src/solvers/solvers.cc</text>
</a>
</g>
</g>
<!-- Node6&#45;&gt;Node8 -->
<g id="edge7_Node000006_Node000008" class="edge">
<title>Node6&#45;&gt;Node8</title>
<g id="a_edge7_Node000006_Node000008"><a xlink:title=" ">
<path fill="none" stroke="#63b8ff" d="M571,-55.66C571,-46.76 571,-37.42 571,-30.04"/>
<polygon fill="#63b8ff" stroke="#63b8ff" points="567.5,-55.77 571,-65.77 574.5,-55.77 567.5,-55.77"/>
</a>
</g>
</g>
<!-- Node10&#45;&gt;Node6 -->
<g id="edge13_Node000010_Node000006" class="edge">
<title>Node10&#45;&gt;Node6</title>
<g id="a_edge13_Node000010_Node000006"><a xlink:title=" ">
<path fill="none" stroke="#63b8ff" d="M571,-209.58C571,-179.36 571,-133.53 571,-107.47"/>
<polygon fill="#63b8ff" stroke="#63b8ff" points="567.5,-209.94 571,-219.94 574.5,-209.94 567.5,-209.94"/>
</a>
</g>
</g>
<!-- Node10&#45;&gt;Node11 -->
<g id="edge10_Node000010_Node000011" class="edge">
<title>Node10&#45;&gt;Node11</title>
<g id="a_edge10_Node000010_Node000011"><a xlink:title=" ">
<path fill="none" stroke="#63b8ff" d="M527.41,-214.92C509.72,-204.95 489.57,-193.58 472.89,-184.17"/>
<polygon fill="#63b8ff" stroke="#63b8ff" points="525.97,-218.13 536.4,-219.99 529.41,-212.03 525.97,-218.13"/>
</a>
</g>
</g>
<!-- Node10&#45;&gt;Node12 -->
<g id="edge11_Node000010_Node000012" class="edge">
<title>Node10&#45;&gt;Node12</title>
<g id="a_edge11_Node000010_Node000012"><a xlink:title=" ">
<path fill="none" stroke="#63b8ff" d="M608.26,-214.09C622.6,-204.32 638.72,-193.32 652.15,-184.17"/>
<polygon fill="#63b8ff" stroke="#63b8ff" points="605.9,-211.47 599.61,-219.99 609.85,-217.25 605.9,-211.47"/>
</a>
</g>
</g>
<!-- Node12&#45;&gt;Node6 -->
<g id="edge12_Node000012_Node000006" class="edge">
<title>Node12&#45;&gt;Node6</title>
<g id="a_edge12_Node000012_Node000006"><a xlink:title=" ">
<path fill="none" stroke="#63b8ff" d="M643.74,-137.09C629.4,-127.32 613.28,-116.32 599.85,-107.17"/>
<polygon fill="#63b8ff" stroke="#63b8ff" points="642.15,-140.25 652.39,-142.99 646.1,-134.47 642.15,-140.25"/>
</a>
</g>
</g>
<!-- Node15 -->
<g id="Node000015" class="node">
<title>Node15</title>
<g id="a_Node000015"><a xlink:href="problem_8h.html" target="_top" xlink:title=" ">
<polygon fill="white" stroke="#666666" points="1389,-261 1225,-261 1225,-220 1389,-220 1389,-261"/>
<text text-anchor="start" x="1233" y="-249" font-family="Helvetica,sans-Serif" font-size="10.00">/home/runner/work/phaseField</text>
<text text-anchor="start" x="1233" y="-238" font-family="Helvetica,sans-Serif" font-size="10.00">/phaseField/include/prismspf</text>
<text text-anchor="middle" x="1307" y="-227" font-family="Helvetica,sans-Serif" font-size="10.00">/core/problem.h</text>
</a>
</g>
</g>
<!-- Node14&#45;&gt;Node15 -->
<g id="edge18_Node000014_Node000015" class="edge">
<title>Node14&#45;&gt;Node15</title>
<g id="a_edge18_Node000014_Node000015"><a xlink:title=" ">
<path fill="none" stroke="#63b8ff" d="M1112.78,-443.67C1157.51,-397.11 1248.47,-302.42 1287.98,-261.3"/>
<polygon fill="#63b8ff" stroke="#63b8ff" points="1110.16,-441.34 1105.76,-450.98 1115.21,-446.19 1110.16,-441.34"/>
</a>
</g>
</g>
<!-- Node16 -->
<g id="Node000016" class="node">
<title>Node16</title>
<g id="a_Node000016"><a xlink:href="refinement__manager_8h.html" target="_top" xlink:title=" ">
<polygon fill="white" stroke="#666666" points="1169,-338 1005,-338 1005,-297 1169,-297 1169,-338"/>
<text text-anchor="start" x="1013" y="-326" font-family="Helvetica,sans-Serif" font-size="10.00">/home/runner/work/phaseField</text>
<text text-anchor="start" x="1013" y="-315" font-family="Helvetica,sans-Serif" font-size="10.00">/phaseField/include/prismspf</text>
<text text-anchor="middle" x="1087" y="-304" font-family="Helvetica,sans-Serif" font-size="10.00">/core/refinement_manager.h</text>
</a>
</g>
</g>
<!-- Node14&#45;&gt;Node16 -->
<g id="edge20_Node000014_Node000016" class="edge">
<title>Node14&#45;&gt;Node16</title>
<g id="a_edge20_Node000014_Node000016"><a xlink:title=" ">
<path fill="none" stroke="#63b8ff" d="M1087,-440.58C1087,-410.36 1087,-364.53 1087,-338.47"/>
<polygon fill="#63b8ff" stroke="#63b8ff" points="1083.5,-440.94 1087,-450.94 1090.5,-440.94 1083.5,-440.94"/>
</a>
</g>
</g>
<!-- Node17 -->
<g id="Node000017" class="node">
<title>Node17</title>
<g id="a_Node000017"><a xlink:href="solution__output_8h.html" target="_top" xlink:title=" ">
<polygon fill="white" stroke="#666666" points="1378,-415 1214,-415 1214,-374 1378,-374 1378,-415"/>
<text text-anchor="start" x="1222" y="-403" font-family="Helvetica,sans-Serif" font-size="10.00">/home/runner/work/phaseField</text>
<text text-anchor="start" x="1222" y="-392" font-family="Helvetica,sans-Serif" font-size="10.00">/phaseField/include/prismspf</text>
<text text-anchor="middle" x="1296" y="-381" font-family="Helvetica,sans-Serif" font-size="10.00">/core/solution_output.h</text>
</a>
</g>
</g>
<!-- Node14&#45;&gt;Node17 -->
<g id="edge22_Node000014_Node000017" class="edge">
<title>Node14&#45;&gt;Node17</title>
<g id="a_edge22_Node000014_Node000017"><a xlink:title=" ">
<path fill="none" stroke="#63b8ff" d="M1150.98,-447.54C1179.95,-437.15 1213.82,-424.99 1241.54,-415.04"/>
<polygon fill="#63b8ff" stroke="#63b8ff" points="1149.6,-444.32 1141.37,-450.99 1151.96,-450.91 1149.6,-444.32"/>
</a>
</g>
</g>
<!-- Node14&#45;&gt;Node19 -->
<g id="edge26_Node000014_Node000019" class="edge">
<title>Node14&#45;&gt;Node19</title>
<g id="a_edge26_Node000014_Node000019"><a xlink:title=" ">
<path fill="none" stroke="#63b8ff" d="M1179.1,-454.92C1242.64,-444.05 1329.02,-429.04 1405,-415 1407.96,-414.45 1410.96,-413.89 1414,-413.33"/>
<polygon fill="#63b8ff" stroke="#63b8ff" points="1178.38,-451.49 1169.11,-456.63 1179.56,-458.39 1178.38,-451.49"/>
</a>
</g>
</g>
<!-- Node14&#45;&gt;Node20 -->
<g id="edge28_Node000014_Node000020" class="edge">
<title>Node14&#45;&gt;Node20</title>
<g id="a_edge28_Node000014_Node000020"><a xlink:title=" ">
<path fill="none" stroke="#63b8ff" d="M994.64,-450.77C939.84,-439.06 870.97,-424.34 818.08,-413.04"/>
<polygon fill="#63b8ff" stroke="#63b8ff" points="994.2,-454.25 1004.71,-452.92 995.66,-447.4 994.2,-454.25"/>
</a>
</g>
</g>
<!-- Node15&#45;&gt;Node7 -->
<g id="edge19_Node000015_Node000007" class="edge">
<title>Node15&#45;&gt;Node7</title>
<g id="a_edge19_Node000015_Node000007"><a xlink:title=" ">
<path fill="none" stroke="#63b8ff" d="M1299.05,-210C1286.87,-170.75 1259.74,-102.14 1211,-66 1187.51,-48.59 1119.12,-35.21 1062.3,-26.69"/>
<polygon fill="#63b8ff" stroke="#63b8ff" points="1295.75,-211.19 1301.96,-219.77 1302.46,-209.19 1295.75,-211.19"/>
</a>
</g>
</g>
<!-- Node16&#45;&gt;Node15 -->
<g id="edge21_Node000016_Node000015" class="edge">
<title>Node16&#45;&gt;Node15</title>
<g id="a_edge21_Node000016_Node000015"><a xlink:title=" ">
<path fill="none" stroke="#63b8ff" d="M1153.95,-293.67C1184.53,-283.25 1220.37,-271.03 1249.68,-261.04"/>
<polygon fill="#63b8ff" stroke="#63b8ff" points="1152.56,-290.45 1144.23,-296.99 1154.82,-297.08 1152.56,-290.45"/>
</a>
</g>
</g>
<!-- Node17&#45;&gt;Node7 -->
<g id="edge24_Node000017_Node000007" class="edge">
<title>Node17&#45;&gt;Node7</title>
<g id="a_edge24_Node000017_Node000007"><a xlink:title=" ">
<path fill="none" stroke="#63b8ff" d="M1264.78,-366.76C1235.76,-338.77 1197,-291.95 1197,-241.5 1197,-241.5 1197,-241.5 1197,-162.5 1197,-87.24 1106.71,-48.29 1041.82,-30"/>
<polygon fill="#63b8ff" stroke="#63b8ff" points="1262.6,-369.52 1272.29,-373.8 1267.39,-364.41 1262.6,-369.52"/>
</a>
</g>
</g>
<!-- Node17&#45;&gt;Node17 -->
<g id="edge23_Node000017_Node000017" class="edge">
<title>Node17&#45;&gt;Node17</title>
<g id="a_edge23_Node000017_Node000017"><a xlink:title=" ">
<path fill="none" stroke="#63b8ff" d="M1388.27,-403.88C1393.12,-401.57 1396,-398.45 1396,-394.5 1396,-388.34 1388.99,-384.18 1378.38,-382.01"/>
<polygon fill="#63b8ff" stroke="#63b8ff" points="1386.87,-400.65 1378.38,-406.99 1388.97,-407.33 1386.87,-400.65"/>
</a>
</g>
</g>
<!-- Node18 -->
<g id="Node000018" class="node">
<title>Node18</title>
<g id="a_Node000018"><a xlink:href="solution__output_8cc.html" target="_top" xlink:title=" ">
<polygon fill="white" stroke="#666666" points="1427,-338 1263,-338 1263,-297 1427,-297 1427,-338"/>
<text text-anchor="start" x="1271" y="-326" font-family="Helvetica,sans-Serif" font-size="10.00">/home/runner/work/phaseField</text>
<text text-anchor="start" x="1271" y="-315" font-family="Helvetica,sans-Serif" font-size="10.00">/phaseField/src/core/solution</text>
<text text-anchor="middle" x="1345" y="-304" font-family="Helvetica,sans-Serif" font-size="10.00">_output.cc</text>
</a>
</g>
</g>
<!-- Node17&#45;&gt;Node18 -->
<g id="edge25_Node000017_Node000018" class="edge">
<title>Node17&#45;&gt;Node18</title>
<g id="a_edge25_Node000017_Node000018"><a xlink:title=" ">
<path fill="none" stroke="#63b8ff" d="M1314.36,-365.39C1320.31,-356.3 1326.76,-346.41 1332.21,-338.07"/>
<polygon fill="#63b8ff" stroke="#63b8ff" points="1311.41,-363.51 1308.87,-373.79 1317.27,-367.34 1311.41,-363.51"/>
</a>
</g>
</g>
<!-- Node19&#45;&gt;Node15 -->
<g id="edge27_Node000019_Node000015" class="edge">
<title>Node19&#45;&gt;Node15</title>
<g id="a_edge27_Node000019_Node000015"><a xlink:title=" ">
<path fill="none" stroke="#63b8ff" d="M1490.13,-364.82C1477.97,-343.71 1459.05,-315.57 1436,-297 1416.92,-281.63 1392.94,-269.77 1370.85,-261.04"/>
<polygon fill="#63b8ff" stroke="#63b8ff" points="1487.14,-366.65 1495.07,-373.67 1493.25,-363.23 1487.14,-366.65"/>
</a>
</g>
</g>
<!-- Node20&#45;&gt;Node4 -->
<g id="edge35_Node000020_Node000004" class="edge">
<title>Node20&#45;&gt;Node4</title>
<g id="a_edge35_Node000020_Node000004"><a xlink:title=" ">
<path fill="none" stroke="#63b8ff" d="M665.03,-370.94C632.05,-360.46 593.2,-348.12 561.49,-338.04"/>
<polygon fill="#63b8ff" stroke="#63b8ff" points="664.02,-374.3 674.61,-373.99 666.14,-367.63 664.02,-374.3"/>
</a>
</g>
</g>
<!-- Node20&#45;&gt;Node5 -->
<g id="edge32_Node000020_Node000005" class="edge">
<title>Node20&#45;&gt;Node5</title>
<g id="a_edge32_Node000020_Node000005"><a xlink:title=" ">
<path fill="none" stroke="#63b8ff" d="M643.97,-383.23C577.8,-374.56 486.88,-359.99 409,-338 337.04,-317.68 257.16,-282.97 210.11,-261.19"/>
<polygon fill="#63b8ff" stroke="#63b8ff" points="643.59,-386.72 653.96,-384.52 644.49,-379.77 643.59,-386.72"/>
</a>
</g>
</g>
<!-- Node20&#45;&gt;Node7 -->
<g id="edge37_Node000020_Node000007" class="edge">
<title>Node20&#45;&gt;Node7</title>
<g id="a_edge37_Node000020_Node000007"><a xlink:title=" ">
<path fill="none" stroke="#63b8ff" d="M828.24,-380.24C856.56,-372.13 885.81,-359.06 907,-338 939.05,-306.15 939,-286.69 939,-241.5 939,-241.5 939,-241.5 939,-162.5 939,-112.58 959.93,-56.06 970.73,-30.24"/>
<polygon fill="#63b8ff" stroke="#63b8ff" points="827.03,-376.94 818.28,-382.91 828.84,-383.7 827.03,-376.94"/>
</a>
</g>
</g>
<!-- Node20&#45;&gt;Node9 -->
<g id="edge33_Node000020_Node000009" class="edge">
<title>Node20&#45;&gt;Node9</title>
<g id="a_edge33_Node000020_Node000009"><a xlink:title=" ">
<path fill="none" stroke="#63b8ff" d="M713.05,-365.57C699.7,-345.74 687.72,-318.87 700,-297 708.79,-281.35 723.98,-269.59 739.46,-261.02"/>
<polygon fill="#63b8ff" stroke="#63b8ff" points="710.32,-367.77 718.98,-373.87 716.01,-363.7 710.32,-367.77"/>
</a>
</g>
</g>
<!-- Node20&#45;&gt;Node10 -->
<g id="edge34_Node000020_Node000010" class="edge">
<title>Node20&#45;&gt;Node10</title>
<g id="a_edge34_Node000020_Node000010"><a xlink:title=" ">
<path fill="none" stroke="#63b8ff" d="M707.3,-367.06C674.56,-336.9 621.76,-288.26 592.41,-261.23"/>
<polygon fill="#63b8ff" stroke="#63b8ff" points="705.04,-369.74 714.77,-373.94 709.78,-364.59 705.04,-369.74"/>
</a>
</g>
</g>
<!-- Node20&#45;&gt;Node12 -->
<g id="edge36_Node000020_Node000012" class="edge">
<title>Node20&#45;&gt;Node12</title>
<g id="a_edge36_Node000020_Node000012"><a xlink:title=" ">
<path fill="none" stroke="#63b8ff" d="M827.6,-377.42C848.87,-369.19 869.06,-356.76 882,-338 911.78,-294.83 913.77,-261.73 882,-220 867.17,-200.52 811.91,-186.13 763.07,-176.89"/>
<polygon fill="#63b8ff" stroke="#63b8ff" points="826.35,-374.15 818.1,-380.8 828.7,-380.74 826.35,-374.15"/>
</a>
</g>
</g>
<!-- Node20&#45;&gt;Node16 -->
<g id="edge29_Node000020_Node000016" class="edge">
<title>Node20&#45;&gt;Node16</title>
<g id="a_edge29_Node000020_Node000016"><a xlink:title=" ">
<path fill="none" stroke="#63b8ff" d="M828.36,-373.77C883.16,-362.06 952.03,-347.34 1004.92,-336.04"/>
<polygon fill="#63b8ff" stroke="#63b8ff" points="827.34,-370.4 818.29,-375.92 828.8,-377.25 827.34,-370.4"/>
</a>
</g>
</g>
<!-- Node21 -->
<g id="Node000021" class="node">
<title>Node21</title>
<g id="a_Node000021"><a xlink:href="constant__solver_8h.html" target="_top" xlink:title=" ">
<polygon fill="white" stroke="#666666" points="164,-184 0,-184 0,-143 164,-143 164,-184"/>
<text text-anchor="start" x="8" y="-172" font-family="Helvetica,sans-Serif" font-size="10.00">/home/runner/work/phaseField</text>
<text text-anchor="start" x="8" y="-161" font-family="Helvetica,sans-Serif" font-size="10.00">/phaseField/include/prismspf</text>
<text text-anchor="middle" x="82" y="-150" font-family="Helvetica,sans-Serif" font-size="10.00">/solvers/constant_solver.h</text>
</a>
</g>
</g>
<!-- Node20&#45;&gt;Node21 -->
<g id="edge30_Node000020_Node000021" class="edge">
<title>Node20&#45;&gt;Node21</title>
<g id="a_edge30_Node000020_Node000021"><a xlink:title=" ">
<path fill="none" stroke="#63b8ff" d="M643.36,-387.91C552.8,-381.04 411.49,-366.59 292,-338 193.69,-314.48 136.13,-343.69 78,-261 62.19,-238.5 68.28,-205.23 74.69,-184.21"/>
<polygon fill="#63b8ff" stroke="#63b8ff" points="643.37,-391.42 653.6,-388.67 643.89,-384.43 643.37,-391.42"/>
</a>
</g>
</g>
<!-- Node22 -->
<g id="Node000022" class="node">
<title>Node22</title>
<g id="a_Node000022"><a xlink:href="solver__base_8cc.html" target="_top" xlink:title=" ">
<polygon fill="white" stroke="#666666" points="873,-338 709,-338 709,-297 873,-297 873,-338"/>
<text text-anchor="start" x="717" y="-326" font-family="Helvetica,sans-Serif" font-size="10.00">/home/runner/work/phaseField</text>
<text text-anchor="start" x="717" y="-315" font-family="Helvetica,sans-Serif" font-size="10.00">/phaseField/src/solvers/solver</text>
<text text-anchor="middle" x="791" y="-304" font-family="Helvetica,sans-Serif" font-size="10.00">_base.cc</text>
</a>
</g>
</g>
<!-- Node20&#45;&gt;Node22 -->
<g id="edge38_Node000020_Node000022" class="edge">
<title>Node20&#45;&gt;Node22</title>
<g id="a_edge38_Node000020_Node000022"><a xlink:title=" ">
<path fill="none" stroke="#63b8ff" d="M756.41,-365.67C763.13,-356.5 770.47,-346.5 776.65,-338.07"/>
<polygon fill="#63b8ff" stroke="#63b8ff" points="753.54,-363.66 750.45,-373.79 759.19,-367.8 753.54,-363.66"/>
</a>
</g>
</g>
<!-- Node21&#45;&gt;Node6 -->
<g id="edge31_Node000021_Node000006" class="edge">
<title>Node21&#45;&gt;Node6</title>
<g id="a_edge31_Node000021_Node000006"><a xlink:title=" ">
<path fill="none" stroke="#63b8ff" d="M174.12,-148.37C264.8,-134.46 401.97,-113.42 488.98,-100.08"/>
<polygon fill="#63b8ff" stroke="#63b8ff" points="173.48,-144.93 164.12,-149.9 174.54,-151.85 173.48,-144.93"/>
</a>
</g>
</g>
<!-- Node26&#45;&gt;Node15 -->
<g id="edge46_Node000026_Node000015" class="edge">
<title>Node26&#45;&gt;Node15</title>
<g id="a_edge46_Node000026_Node000015"><a xlink:title=" ">
<path fill="none" stroke="#63b8ff" d="M1742.93,-595.14C1732.29,-563.59 1719,-515.59 1719,-472.5 1719,-472.5 1719,-472.5 1719,-393.5 1719,-323.93 1509.62,-276.3 1389.38,-254.69"/>
<polygon fill="#63b8ff" stroke="#63b8ff" points="1739.69,-596.48 1746.28,-604.79 1746.31,-594.19 1739.69,-596.48"/>
</a>
</g>
</g>
<!-- Node27&#45;&gt;Node19 -->
<g id="edge48_Node000027_Node000019" class="edge">
<title>Node27&#45;&gt;Node19</title>
<g id="a_edge48_Node000027_Node000019"><a xlink:title=" ">
<path fill="none" stroke="#63b8ff" d="M1531.42,-684.05C1557.65,-634.63 1602.58,-530.6 1567,-451 1560.57,-436.62 1548.38,-424.43 1536.5,-415.16"/>
<polygon fill="#63b8ff" stroke="#63b8ff" points="1528.31,-682.45 1526.61,-692.9 1534.46,-685.79 1528.31,-682.45"/>
</a>
</g>
</g>
<!-- Node27&#45;&gt;Node26 -->
<g id="edge49_Node000027_Node000026" class="edge">
<title>Node27&#45;&gt;Node26</title>
<g id="a_edge49_Node000027_Node000026"><a xlink:title=" ">
<path fill="none" stroke="#63b8ff" d="M1583.34,-689.67C1613.82,-679.49 1649.82,-667.47 1681.04,-657.04"/>
<polygon fill="#63b8ff" stroke="#63b8ff" points="1582.02,-686.42 1573.65,-692.91 1584.24,-693.06 1582.02,-686.42"/>
</a>
</g>
</g>
<!-- Node28 -->
<g id="Node000028" class="node">
<title>Node28</title>
<g id="a_Node000028"><a xlink:href="user__input__parameters_8h.html" target="_top" xlink:title=" ">
<polygon fill="white" stroke="#666666" points="1284,-651.5 1084,-651.5 1084,-610.5 1284,-610.5 1284,-651.5"/>
<text text-anchor="start" x="1092" y="-639.5" font-family="Helvetica,sans-Serif" font-size="10.00">/home/runner/work/phaseField</text>
<text text-anchor="start" x="1092" y="-628.5" font-family="Helvetica,sans-Serif" font-size="10.00">/phaseField/include/prismspf</text>
<text text-anchor="middle" x="1184" y="-617.5" font-family="Helvetica,sans-Serif" font-size="10.00">/user_inputs/user_input_parameters.h</text>
</a>
</g>
</g>
<!-- Node27&#45;&gt;Node28 -->
<g id="edge50_Node000027_Node000028" class="edge">
<title>Node27&#45;&gt;Node28</title>
<g id="a_edge50_Node000027_Node000028"><a xlink:title=" ">
<path fill="none" stroke="#63b8ff" d="M1424.59,-690.51C1374.49,-678.33 1312.73,-663.31 1264.34,-651.54"/>
<polygon fill="#63b8ff" stroke="#63b8ff" points="1423.91,-693.95 1434.45,-692.91 1425.56,-687.15 1423.91,-693.95"/>
</a>
</g>
</g>
<!-- Node28&#45;&gt;Node3 -->
<g id="edge51_Node000028_Node000003" class="edge">
<title>Node28&#45;&gt;Node3</title>
<g id="a_edge51_Node000028_Node000003"><a xlink:title=" ">
<path fill="none" stroke="#63b8ff" d="M1087.23,-608.18C1031.47,-595.6 962.12,-579.97 909.04,-568"/>
<polygon fill="#63b8ff" stroke="#63b8ff" points="1086.6,-611.62 1097.12,-610.41 1088.14,-604.8 1086.6,-611.62"/>
</a>
</g>
</g>
<!-- Node28&#45;&gt;Node7 -->
<g id="edge59_Node000028_Node000007" class="edge">
<title>Node28&#45;&gt;Node7</title>
<g id="a_edge59_Node000028_Node000007"><a xlink:title=" ">
<path fill="none" stroke="#63b8ff" d="M1108.57,-606.85C1049.4,-583.46 977,-540.87 977,-472.5 977,-472.5 977,-472.5 977,-162.5 977,-113.92 977,-56.28 977,-30.14"/>
<polygon fill="#63b8ff" stroke="#63b8ff" points="1107.34,-610.13 1117.93,-610.44 1109.85,-603.59 1107.34,-610.13"/>
</a>
</g>
</g>
<!-- Node28&#45;&gt;Node14 -->
<g id="edge54_Node000028_Node000014" class="edge">
<title>Node28&#45;&gt;Node14</title>
<g id="a_edge54_Node000028_Node000014"><a xlink:title=" ">
<path fill="none" stroke="#63b8ff" d="M1144.26,-604.29C1131.99,-594.58 1119.48,-582.55 1111,-569 1096.07,-545.15 1090.42,-512.55 1088.29,-492.01"/>
<polygon fill="#63b8ff" stroke="#63b8ff" points="1142.16,-607.09 1152.24,-610.33 1146.38,-601.51 1142.16,-607.09"/>
</a>
</g>
</g>
<!-- Node28&#45;&gt;Node17 -->
<g id="edge52_Node000028_Node000017" class="edge">
<title>Node28&#45;&gt;Node17</title>
<g id="a_edge52_Node000028_Node000017"><a xlink:title=" ">
<path fill="none" stroke="#63b8ff" d="M1160.54,-601.85C1146.3,-581.18 1132.84,-552.54 1144,-528 1150.83,-512.98 1230.01,-448.24 1271.29,-415.15"/>
<polygon fill="#63b8ff" stroke="#63b8ff" points="1157.9,-604.17 1166.62,-610.19 1163.55,-600.05 1157.9,-604.17"/>
</a>
</g>
</g>
<!-- Node28&#45;&gt;Node19 -->
<g id="edge53_Node000028_Node000019" class="edge">
<title>Node28&#45;&gt;Node19</title>
<g id="a_edge53_Node000028_Node000019"><a xlink:title=" ">
<path fill="none" stroke="#63b8ff" d="M1294.39,-623.03C1381.42,-615.29 1493.5,-599.61 1527,-569 1566.33,-533.07 1565.24,-501.4 1548,-451 1543.42,-437.62 1534.17,-424.97 1525.41,-415.14"/>
<polygon fill="#63b8ff" stroke="#63b8ff" points="1293.84,-619.57 1284.18,-623.91 1294.44,-626.54 1293.84,-619.57"/>
</a>
</g>
</g>
<!-- Node28&#45;&gt;Node20 -->
<g id="edge55_Node000028_Node000020" class="edge">
<title>Node28&#45;&gt;Node20</title>
<g id="a_edge55_Node000028_Node000020"><a xlink:title=" ">
<path fill="none" stroke="#63b8ff" d="M1073.96,-620.36C1034.93,-611.98 993.24,-596.7 963,-569 921.73,-531.19 959.79,-489.32 919,-451 891.78,-425.43 853.14,-411.61 818.38,-404.16"/>
<polygon fill="#63b8ff" stroke="#63b8ff" points="1073.32,-623.8 1083.81,-622.34 1074.7,-616.94 1073.32,-623.8"/>
</a>
</g>
</g>
<!-- Node29 -->
<g id="Node000029" class="node">
<title>Node29</title>
<g id="a_Node000029"><a xlink:href="periodic__distance_8h.html" target="_top" xlink:title=" ">
<polygon fill="white" stroke="#666666" points="1539,-492 1375,-492 1375,-451 1539,-451 1539,-492"/>
<text text-anchor="start" x="1383" y="-480" font-family="Helvetica,sans-Serif" font-size="10.00">/home/runner/work/phaseField</text>
<text text-anchor="start" x="1383" y="-469" font-family="Helvetica,sans-Serif" font-size="10.00">/phaseField/include/prismspf</text>
<text text-anchor="middle" x="1457" y="-458" font-family="Helvetica,sans-Serif" font-size="10.00">/utilities/periodic_distance.h</text>
</a>
</g>
</g>
<!-- Node28&#45;&gt;Node29 -->
<g id="edge56_Node000028_Node000029" class="edge">
<title>Node28&#45;&gt;Node29</title>
<g id="a_edge56_Node000028_Node000029"><a xlink:title=" ">
<path fill="none" stroke="#63b8ff" d="M1294.2,-624.13C1377.76,-617.09 1482.74,-601.83 1510,-569 1529.78,-545.18 1503.3,-512.86 1481.19,-492.34"/>
<polygon fill="#63b8ff" stroke="#63b8ff" points="1293.8,-620.65 1284.12,-624.94 1294.37,-627.62 1293.8,-620.65"/>
</a>
</g>
</g>
<!-- Node30 -->
<g id="Node000030" class="node">
<title>Node30</title>
<g id="a_Node000030"><a xlink:href="constraint__manager_8cc.html" target="_top" xlink:title=" ">
<polygon fill="white" stroke="#666666" points="1318.5,-569 1153.5,-569 1153.5,-528 1318.5,-528 1318.5,-569"/>
<text text-anchor="start" x="1161.5" y="-557" font-family="Helvetica,sans-Serif" font-size="10.00">/home/runner/work/phaseField</text>
<text text-anchor="start" x="1161.5" y="-546" font-family="Helvetica,sans-Serif" font-size="10.00">/phaseField/src/core/constraint</text>
<text text-anchor="middle" x="1236" y="-535" font-family="Helvetica,sans-Serif" font-size="10.00">_manager.cc</text>
</a>
</g>
</g>
<!-- Node28&#45;&gt;Node30 -->
<g id="edge58_Node000028_Node000030" class="edge">
<title>Node28&#45;&gt;Node30</title>
<g id="a_edge58_Node000028_Node000030"><a xlink:title=" ">
<path fill="none" stroke="#63b8ff" d="M1202.42,-601.48C1209.33,-590.79 1217.02,-578.88 1223.29,-569.17"/>
<polygon fill="#63b8ff" stroke="#63b8ff" points="1199.34,-599.8 1196.85,-610.1 1205.22,-603.6 1199.34,-599.8"/>
</a>
</g>
</g>
<!-- Node31 -->
<g id="Node000031" class="node">
<title>Node31</title>
<g id="a_Node000031"><a xlink:href="user__input__parameters_8cc.html" target="_top" xlink:title=" ">
<polygon fill="white" stroke="#666666" points="1501,-569 1337,-569 1337,-528 1501,-528 1501,-569"/>
<text text-anchor="start" x="1345" y="-557" font-family="Helvetica,sans-Serif" font-size="10.00">/home/runner/work/phaseField</text>
<text text-anchor="start" x="1345" y="-546" font-family="Helvetica,sans-Serif" font-size="10.00">/phaseField/src/user_inputs</text>
<text text-anchor="middle" x="1419" y="-535" font-family="Helvetica,sans-Serif" font-size="10.00">/user_input_parameters.cc</text>
</a>
</g>
</g>
<!-- Node28&#45;&gt;Node31 -->
<g id="edge60_Node000028_Node000031" class="edge">
<title>Node28&#45;&gt;Node31</title>
<g id="a_edge60_Node000028_Node000031"><a xlink:title=" ">
<path fill="none" stroke="#63b8ff" d="M1250.87,-607.09C1285.94,-595.08 1328.46,-580.51 1361.96,-569.04"/>
<polygon fill="#63b8ff" stroke="#63b8ff" points="1249.51,-603.86 1241.19,-610.41 1251.78,-610.48 1249.51,-603.86"/>
</a>
</g>
</g>
<!-- Node29&#45;&gt;Node19 -->
<g id="edge57_Node000029_Node000019" class="edge">
<title>Node29&#45;&gt;Node19</title>
<g id="a_edge57_Node000029_Node000019"><a xlink:title=" ">
<path fill="none" stroke="#63b8ff" d="M1475.17,-442.11C1480.94,-433.09 1487.19,-423.33 1492.47,-415.07"/>
<polygon fill="#63b8ff" stroke="#63b8ff" points="1472.05,-440.49 1469.61,-450.79 1477.95,-444.26 1472.05,-440.49"/>
</a>
</g>
</g>
</g>
</svg>
