<?xml version="1.0" encoding="UTF-8" standalone="no"?>
<!DOCTYPE svg PUBLIC "-//W3C//DTD SVG 1.1//EN"
 "http://www.w3.org/Graphics/SVG/1.1/DTD/svg11.dtd">
<!-- Generated by graphviz version 12.2.1 (20241206.2353)
 -->
<!-- Title: include/prismspf/user_inputs/nucleation_parameters.h Pages: 1 -->
<svg width="2657pt" height="503pt"
 viewBox="0.00 0.00 2656.50 502.50" xmlns="http://www.w3.org/2000/svg" xmlns:xlink="http://www.w3.org/1999/xlink">
<g id="graph0" class="graph" transform="scale(1 1) rotate(0) translate(4 498.5)">
<title>include/prismspf/user_inputs/nucleation_parameters.h</title>
<!-- Node1 -->
<g id="Node000001" class="node">
<title>Node1</title>
<g id="a_Node000001"><a xlink:title=" ">
<polygon fill="#999999" stroke="#666666" points="1369.88,-494.5 1194.12,-494.5 1194.12,-461 1369.88,-461 1369.88,-494.5"/>
<text text-anchor="start" x="1202.12" y="-481" font-family="Helvetica,sans-Serif" font-size="10.00">include/prismspf/user</text>
<text text-anchor="middle" x="1282" y="-468.25" font-family="Helvetica,sans-Serif" font-size="10.00">_inputs/nucleation_parameters.h</text>
</a>
</g>
</g>
<!-- Node2 -->
<g id="Node000002" class="node">
<title>Node2</title>
<g id="a_Node000002"><a xlink:href="conditional__ostreams_8h.html" target="_top" xlink:title=" ">
<polygon fill="white" stroke="#666666" points="233.88,-229.25 94.12,-229.25 94.12,-195.75 233.88,-195.75 233.88,-229.25"/>
<text text-anchor="start" x="102.12" y="-215.75" font-family="Helvetica,sans-Serif" font-size="10.00">prismspf/core/conditional</text>
<text text-anchor="middle" x="164" y="-203" font-family="Helvetica,sans-Serif" font-size="10.00">_ostreams.h</text>
</a>
</g>
</g>
<!-- Node1&#45;&gt;Node2 -->
<g id="edge1_Node000001_Node000002" class="edge">
<title>Node1&#45;&gt;Node2</title>
<g id="a_edge1_Node000001_Node000002"><a xlink:title=" ">
<path fill="none" stroke="#63b8ff" d="M1193.63,-476.76C1023.08,-474.35 638.6,-456.98 335,-355.5 275.82,-335.72 258.78,-328.41 213,-286 198.51,-272.58 186.1,-254.09 177.4,-239.15"/>
<polygon fill="#63b8ff" stroke="#63b8ff" points="180.66,-237.81 172.72,-230.79 174.55,-241.23 180.66,-237.81"/>
</a>
</g>
</g>
<!-- Node4 -->
<g id="Node000004" class="node">
<title>Node4</title>
<g id="a_Node000004"><a xlink:title=" ">
<polygon fill="#e0e0e0" stroke="#999999" points="1163,-20.75 1063,-20.75 1063,0 1163,0 1163,-20.75"/>
<text text-anchor="middle" x="1113" y="-7.25" font-family="Helvetica,sans-Serif" font-size="10.00">prismspf/config.h</text>
</a>
</g>
</g>
<!-- Node1&#45;&gt;Node4 -->
<g id="edge73_Node000001_Node000004" class="edge">
<title>Node1&#45;&gt;Node4</title>
<g id="a_edge73_Node000001_Node000004"><a xlink:title=" ">
<path fill="none" stroke="#63b8ff" d="M1370.34,-476.64C1661.29,-475.14 2571,-460.75 2571,-339.75 2571,-339.75 2571,-339.75 2571,-142 2571,-87.86 2533.77,-78.04 2484,-56.75 2423.15,-30.72 1433.89,-15.68 1174.74,-12.17"/>
<polygon fill="#63b8ff" stroke="#63b8ff" points="1174.88,-8.67 1164.83,-12.04 1174.78,-15.67 1174.88,-8.67"/>
</a>
</g>
</g>
<!-- Node5 -->
<g id="Node000005" class="node">
<title>Node5</title>
<g id="a_Node000005"><a xlink:href="exceptions_8h.html" target="_top" xlink:title=" ">
<polygon fill="white" stroke="#666666" points="1170,-222.88 1022,-222.88 1022,-202.12 1170,-202.12 1170,-222.88"/>
<text text-anchor="middle" x="1096" y="-209.38" font-family="Helvetica,sans-Serif" font-size="10.00">prismspf/core/exceptions.h</text>
</a>
</g>
</g>
<!-- Node1&#45;&gt;Node5 -->
<g id="edge4_Node000001_Node000005" class="edge">
<title>Node1&#45;&gt;Node5</title>
<g id="a_edge4_Node000001_Node000005"><a xlink:title=" ">
<path fill="none" stroke="#63b8ff" d="M1270.64,-460.68C1238.1,-414.61 1144.57,-282.24 1109.5,-232.61"/>
<polygon fill="#63b8ff" stroke="#63b8ff" points="1112.45,-230.71 1103.82,-224.57 1106.73,-234.75 1112.45,-230.71"/>
</a>
</g>
</g>
<!-- Node11 -->
<g id="Node000011" class="node">
<title>Node11</title>
<g id="a_Node000011"><a xlink:title=" ">
<polygon fill="#e0e0e0" stroke="#999999" points="461.88,-20.75 418.12,-20.75 418.12,0 461.88,0 461.88,-20.75"/>
<text text-anchor="middle" x="440" y="-7.25" font-family="Helvetica,sans-Serif" font-size="10.00">string</text>
</a>
</g>
</g>
<!-- Node1&#45;&gt;Node11 -->
<g id="edge75_Node000001_Node000011" class="edge">
<title>Node1&#45;&gt;Node11</title>
<g id="a_edge75_Node000001_Node000011"><a xlink:title=" ">
<path fill="none" stroke="#63b8ff" d="M1193.63,-476.59C903.72,-474.91 0,-460.03 0,-339.75 0,-339.75 0,-339.75 0,-142 0,-88.81 36.33,-80.35 84,-56.75 140.31,-28.87 328.9,-16.75 406.36,-12.87"/>
<polygon fill="#63b8ff" stroke="#63b8ff" points="406.46,-16.37 416.28,-12.39 406.13,-9.38 406.46,-16.37"/>
</a>
</g>
</g>
<!-- Node12 -->
<g id="Node000012" class="node">
<title>Node12</title>
<g id="a_Node000012"><a xlink:href="simulation__timer_8h.html" target="_top" xlink:title=" ">
<polygon fill="white" stroke="#666666" points="1585.75,-229.25 1448.25,-229.25 1448.25,-195.75 1585.75,-195.75 1585.75,-229.25"/>
<text text-anchor="start" x="1456.25" y="-215.75" font-family="Helvetica,sans-Serif" font-size="10.00">prismspf/core/simulation</text>
<text text-anchor="middle" x="1517" y="-203" font-family="Helvetica,sans-Serif" font-size="10.00">_timer.h</text>
</a>
</g>
</g>
<!-- Node1&#45;&gt;Node12 -->
<g id="edge14_Node000001_Node000012" class="edge">
<title>Node1&#45;&gt;Node12</title>
<g id="a_edge14_Node000001_Node000012"><a xlink:title=" ">
<path fill="none" stroke="#63b8ff" d="M1307.8,-460.52C1340.13,-439.28 1395.9,-399.54 1434,-355.5 1465.28,-319.34 1491.15,-269.74 1505.3,-239.74"/>
<polygon fill="#63b8ff" stroke="#63b8ff" points="1508.32,-241.56 1509.34,-231.01 1501.97,-238.62 1508.32,-241.56"/>
</a>
</g>
</g>
<!-- Node13 -->
<g id="Node000013" class="node">
<title>Node13</title>
<g id="a_Node000013"><a xlink:href="nucleus_8h.html" target="_top" xlink:title=" ">
<polygon fill="white" stroke="#666666" points="1338.38,-229.25 1225.62,-229.25 1225.62,-195.75 1338.38,-195.75 1338.38,-229.25"/>
<text text-anchor="start" x="1233.62" y="-215.75" font-family="Helvetica,sans-Serif" font-size="10.00">prismspf/nucleation</text>
<text text-anchor="middle" x="1282" y="-203" font-family="Helvetica,sans-Serif" font-size="10.00">/nucleus.h</text>
</a>
</g>
</g>
<!-- Node1&#45;&gt;Node13 -->
<g id="edge17_Node000001_Node000013" class="edge">
<title>Node1&#45;&gt;Node13</title>
<g id="a_edge17_Node000001_Node000013"><a xlink:title=" ">
<path fill="none" stroke="#63b8ff" d="M1282,-460.68C1282,-416.99 1282,-295.65 1282,-240.91"/>
<polygon fill="#63b8ff" stroke="#63b8ff" points="1285.5,-241.21 1282,-231.21 1278.5,-241.21 1285.5,-241.21"/>
</a>
</g>
</g>
<!-- Node17 -->
<g id="Node000017" class="node">
<title>Node17</title>
<g id="a_Node000017"><a xlink:href="temporal__discretization_8h.html" target="_top" xlink:title=" ">
<polygon fill="white" stroke="#666666" points="1033.75,-425 890.25,-425 890.25,-391.5 1033.75,-391.5 1033.75,-425"/>
<text text-anchor="start" x="898.25" y="-411.5" font-family="Helvetica,sans-Serif" font-size="10.00">prismspf/user_inputs</text>
<text text-anchor="middle" x="962" y="-398.75" font-family="Helvetica,sans-Serif" font-size="10.00">/temporal_discretization.h</text>
</a>
</g>
</g>
<!-- Node1&#45;&gt;Node17 -->
<g id="edge24_Node000001_Node000017" class="edge">
<title>Node1&#45;&gt;Node17</title>
<g id="a_edge24_Node000001_Node000017"><a xlink:title=" ">
<path fill="none" stroke="#63b8ff" d="M1205.35,-460.58C1157.05,-450.39 1094.68,-437.24 1045.18,-426.8"/>
<polygon fill="#63b8ff" stroke="#63b8ff" points="1046.17,-423.43 1035.66,-424.79 1044.72,-430.28 1046.17,-423.43"/>
</a>
</g>
</g>
<!-- Node26 -->
<g id="Node000026" class="node">
<title>Node26</title>
<g id="a_Node000026"><a xlink:href="utilities_8h.html" target="_top" xlink:title=" ">
<polygon fill="white" stroke="#666666" points="1764.25,-229.25 1665.75,-229.25 1665.75,-195.75 1764.25,-195.75 1764.25,-229.25"/>
<text text-anchor="start" x="1673.75" y="-215.75" font-family="Helvetica,sans-Serif" font-size="10.00">prismspf/utilities</text>
<text text-anchor="middle" x="1715" y="-203" font-family="Helvetica,sans-Serif" font-size="10.00">/utilities.h</text>
</a>
</g>
</g>
<!-- Node1&#45;&gt;Node26 -->
<g id="edge56_Node000001_Node000026" class="edge">
<title>Node1&#45;&gt;Node26</title>
<g id="a_edge56_Node000001_Node000026"><a xlink:title=" ">
<path fill="none" stroke="#63b8ff" d="M1319.21,-460.59C1340.57,-450.94 1367.7,-438.06 1391,-425 1502.07,-362.76 1626.27,-276.75 1683.28,-236.28"/>
<polygon fill="#63b8ff" stroke="#63b8ff" points="1685.14,-239.26 1691.25,-230.61 1681.08,-233.55 1685.14,-239.26"/>
</a>
</g>
</g>
<!-- Node35 -->
<g id="Node000035" class="node">
<title>Node35</title>
<g id="a_Node000035"><a xlink:title=" ">
<polygon fill="#e0e0e0" stroke="#999999" points="2648.5,-418.62 2599.5,-418.62 2599.5,-397.88 2648.5,-397.88 2648.5,-418.62"/>
<text text-anchor="middle" x="2624" y="-405.12" font-family="Helvetica,sans-Serif" font-size="10.00">climits</text>
</a>
</g>
</g>
<!-- Node1&#45;&gt;Node35 -->
<g id="edge74_Node000001_Node000035" class="edge">
<title>Node1&#45;&gt;Node35</title>
<g id="a_edge74_Node000001_Node000035"><a xlink:title=" ">
<path fill="none" stroke="#63b8ff" d="M1370.13,-477.18C1623.81,-477.78 2352.46,-474.99 2585,-425 2587.49,-424.46 2590.03,-423.78 2592.56,-423"/>
<polygon fill="#63b8ff" stroke="#63b8ff" points="2593.72,-426.3 2601.94,-419.63 2591.35,-419.72 2593.72,-426.3"/>
</a>
</g>
</g>
<!-- Node3 -->
<g id="Node000003" class="node">
<title>Node3</title>
<g id="a_Node000003"><a xlink:title=" ">
<polygon fill="#e0e0e0" stroke="#999999" points="195.62,-159.75 66.38,-159.75 66.38,-126.25 195.62,-126.25 195.62,-159.75"/>
<text text-anchor="start" x="74.38" y="-146.25" font-family="Helvetica,sans-Serif" font-size="10.00">deal.II/base/conditional</text>
<text text-anchor="middle" x="131" y="-133.5" font-family="Helvetica,sans-Serif" font-size="10.00">_ostream.h</text>
</a>
</g>
</g>
<!-- Node2&#45;&gt;Node3 -->
<g id="edge2_Node000002_Node000003" class="edge">
<title>Node2&#45;&gt;Node3</title>
<g id="a_edge2_Node000002_Node000003"><a xlink:title=" ">
<path fill="none" stroke="#63b8ff" d="M156.18,-195.5C152.48,-187.94 147.97,-178.71 143.79,-170.16"/>
<polygon fill="#63b8ff" stroke="#63b8ff" points="146.97,-168.69 139.43,-161.24 140.68,-171.76 146.97,-168.69"/>
</a>
</g>
</g>
<!-- Node2&#45;&gt;Node4 -->
<g id="edge3_Node000002_Node000004" class="edge">
<title>Node2&#45;&gt;Node4</title>
<g id="a_edge3_Node000002_Node000004"><a xlink:title=" ">
<path fill="none" stroke="#63b8ff" d="M175.82,-195.26C190.62,-176.07 217.73,-144.45 248,-126.25 340.61,-70.57 374.7,-76.18 481,-56.75 687.62,-18.99 937.61,-12.31 1051.33,-11.36"/>
<polygon fill="#63b8ff" stroke="#63b8ff" points="1051.07,-14.86 1061.04,-11.29 1051.02,-7.86 1051.07,-14.86"/>
</a>
</g>
</g>
<!-- Node5&#45;&gt;Node4 -->
<g id="edge13_Node000005_Node000004" class="edge">
<title>Node5&#45;&gt;Node4</title>
<g id="a_edge13_Node000005_Node000004"><a xlink:title=" ">
<path fill="none" stroke="#63b8ff" d="M1095.24,-201.64C1093.56,-177.01 1090.3,-110.87 1099,-56.75 1100.34,-48.42 1102.85,-39.49 1105.37,-31.78"/>
<polygon fill="#63b8ff" stroke="#63b8ff" points="1108.67,-32.95 1108.69,-22.35 1102.07,-30.62 1108.67,-32.95"/>
</a>
</g>
</g>
<!-- Node6 -->
<g id="Node000006" class="node">
<title>Node6</title>
<g id="a_Node000006"><a xlink:title=" ">
<polygon fill="#e0e0e0" stroke="#999999" points="906.75,-153.38 769.25,-153.38 769.25,-132.62 906.75,-132.62 906.75,-153.38"/>
<text text-anchor="middle" x="838" y="-139.88" font-family="Helvetica,sans-Serif" font-size="10.00">deal.II/base/exceptions.h</text>
</a>
</g>
</g>
<!-- Node5&#45;&gt;Node6 -->
<g id="edge5_Node000005_Node000006" class="edge">
<title>Node5&#45;&gt;Node6</title>
<g id="a_edge5_Node000005_Node000006"><a xlink:title=" ">
<path fill="none" stroke="#63b8ff" d="M1058.48,-201.68C1013.01,-189.79 936.28,-169.71 886.39,-156.66"/>
<polygon fill="#63b8ff" stroke="#63b8ff" points="887.59,-153.36 877.02,-154.21 885.81,-160.13 887.59,-153.36"/>
</a>
</g>
</g>
<!-- Node7 -->
<g id="Node000007" class="node">
<title>Node7</title>
<g id="a_Node000007"><a xlink:href="types_8h.html" target="_top" xlink:title=" ">
<polygon fill="white" stroke="#666666" points="1046.88,-153.38 925.12,-153.38 925.12,-132.62 1046.88,-132.62 1046.88,-153.38"/>
<text text-anchor="middle" x="986" y="-139.88" font-family="Helvetica,sans-Serif" font-size="10.00">prismspf/core/types.h</text>
</a>
</g>
</g>
<!-- Node5&#45;&gt;Node7 -->
<g id="edge6_Node000005_Node000007" class="edge">
<title>Node5&#45;&gt;Node7</title>
<g id="a_edge6_Node000005_Node000007"><a xlink:title=" ">
<path fill="none" stroke="#63b8ff" d="M1080.24,-201.83C1062.37,-190.86 1032.97,-172.82 1011.76,-159.81"/>
<polygon fill="#63b8ff" stroke="#63b8ff" points="1013.73,-156.91 1003.38,-154.66 1010.07,-162.88 1013.73,-156.91"/>
</a>
</g>
</g>
<!-- Node7&#45;&gt;Node4 -->
<g id="edge12_Node000007_Node000004" class="edge">
<title>Node7&#45;&gt;Node4</title>
<g id="a_edge12_Node000007_Node000004"><a xlink:title=" ">
<path fill="none" stroke="#63b8ff" d="M993.93,-132.17C1007.2,-115.9 1035.02,-82.62 1061,-56.75 1070.91,-46.88 1082.59,-36.58 1092.37,-28.29"/>
<polygon fill="#63b8ff" stroke="#63b8ff" points="1094.45,-31.11 1099.88,-22.01 1089.96,-25.74 1094.45,-31.11"/>
</a>
</g>
</g>
<!-- Node8 -->
<g id="Node000008" class="node">
<title>Node8</title>
<g id="a_Node000008"><a xlink:title=" ">
<polygon fill="#e0e0e0" stroke="#999999" points="784.12,-90.25 675.88,-90.25 675.88,-56.75 784.12,-56.75 784.12,-90.25"/>
<text text-anchor="start" x="683.88" y="-76.75" font-family="Helvetica,sans-Serif" font-size="10.00">deal.II/matrix_free</text>
<text text-anchor="middle" x="730" y="-64" font-family="Helvetica,sans-Serif" font-size="10.00">/evaluation_flags.h</text>
</a>
</g>
</g>
<!-- Node7&#45;&gt;Node8 -->
<g id="edge7_Node000007_Node000008" class="edge">
<title>Node7&#45;&gt;Node8</title>
<g id="a_edge7_Node000007_Node000008"><a xlink:title=" ">
<path fill="none" stroke="#63b8ff" d="M948.78,-132.18C908.64,-121.6 843.96,-104.55 795.32,-91.72"/>
<polygon fill="#63b8ff" stroke="#63b8ff" points="796.29,-88.36 785.73,-89.19 794.5,-95.13 796.29,-88.36"/>
</a>
</g>
</g>
<!-- Node9 -->
<g id="Node000009" class="node">
<title>Node9</title>
<g id="a_Node000009"><a xlink:href="type__enums_8h.html" target="_top" xlink:title=" ">
<polygon fill="white" stroke="#666666" points="597.75,-90.25 490.25,-90.25 490.25,-56.75 597.75,-56.75 597.75,-90.25"/>
<text text-anchor="start" x="498.25" y="-76.75" font-family="Helvetica,sans-Serif" font-size="10.00">prismspf/core/type</text>
<text text-anchor="middle" x="544" y="-64" font-family="Helvetica,sans-Serif" font-size="10.00">_enums.h</text>
</a>
</g>
</g>
<!-- Node7&#45;&gt;Node9 -->
<g id="edge8_Node000007_Node000009" class="edge">
<title>Node7&#45;&gt;Node9</title>
<g id="a_edge8_Node000007_Node000009"><a xlink:title=" ">
<path fill="none" stroke="#63b8ff" d="M945.03,-132.18C935.53,-130.07 925.44,-127.97 916,-126.25 858.63,-115.82 699.85,-94.71 609.36,-82.93"/>
<polygon fill="#63b8ff" stroke="#63b8ff" points="610.01,-79.48 599.64,-81.66 609.1,-86.42 610.01,-79.48"/>
</a>
</g>
</g>
<!-- Node9&#45;&gt;Node4 -->
<g id="edge9_Node000009_Node000004" class="edge">
<title>Node9&#45;&gt;Node4</title>
<g id="a_edge9_Node000009_Node000004"><a xlink:title=" ">
<path fill="none" stroke="#63b8ff" d="M598.15,-62.31C609.94,-60.29 622.37,-58.32 634,-56.75 783.25,-36.65 959.85,-22.36 1051.26,-15.66"/>
<polygon fill="#63b8ff" stroke="#63b8ff" points="1051.28,-19.17 1061,-14.95 1050.77,-12.19 1051.28,-19.17"/>
</a>
</g>
</g>
<!-- Node10 -->
<g id="Node000010" class="node">
<title>Node10</title>
<g id="a_Node000010"><a xlink:title=" ">
<polygon fill="#e0e0e0" stroke="#999999" points="568.5,-20.75 519.5,-20.75 519.5,0 568.5,0 568.5,-20.75"/>
<text text-anchor="middle" x="544" y="-7.25" font-family="Helvetica,sans-Serif" font-size="10.00">cstdint</text>
</a>
</g>
</g>
<!-- Node9&#45;&gt;Node10 -->
<g id="edge10_Node000009_Node000010" class="edge">
<title>Node9&#45;&gt;Node10</title>
<g id="a_edge10_Node000009_Node000010"><a xlink:title=" ">
<path fill="none" stroke="#63b8ff" d="M544,-56.44C544,-49.1 544,-40.32 544,-32.46"/>
<polygon fill="#63b8ff" stroke="#63b8ff" points="547.5,-32.73 544,-22.73 540.5,-32.73 547.5,-32.73"/>
</a>
</g>
</g>
<!-- Node9&#45;&gt;Node11 -->
<g id="edge11_Node000009_Node000011" class="edge">
<title>Node9&#45;&gt;Node11</title>
<g id="a_edge11_Node000009_Node000011"><a xlink:title=" ">
<path fill="none" stroke="#63b8ff" d="M516.4,-56.28C500.95,-47.2 481.79,-35.93 466.51,-26.96"/>
<polygon fill="#63b8ff" stroke="#63b8ff" points="468.36,-23.98 457.96,-21.93 464.81,-30.02 468.36,-23.98"/>
</a>
</g>
</g>
<!-- Node12&#45;&gt;Node4 -->
<g id="edge16_Node000012_Node000004" class="edge">
<title>Node12&#45;&gt;Node4</title>
<g id="a_edge16_Node000012_Node000004"><a xlink:title=" ">
<path fill="none" stroke="#63b8ff" d="M1521.61,-195.29C1529.45,-163.86 1541.26,-94.41 1505,-56.75 1482.53,-33.41 1279.24,-19.79 1174.62,-14.27"/>
<polygon fill="#63b8ff" stroke="#63b8ff" points="1174.96,-10.78 1164.8,-13.76 1174.6,-17.77 1174.96,-10.78"/>
</a>
</g>
</g>
<!-- Node12&#45;&gt;Node7 -->
<g id="edge15_Node000012_Node000007" class="edge">
<title>Node12&#45;&gt;Node7</title>
<g id="a_edge15_Node000012_Node000007"><a xlink:title=" ">
<path fill="none" stroke="#63b8ff" d="M1447.85,-202.71C1347.15,-189.91 1160.98,-166.24 1058.45,-153.21"/>
<polygon fill="#63b8ff" stroke="#63b8ff" points="1059.14,-149.77 1048.78,-151.98 1058.26,-156.71 1059.14,-149.77"/>
</a>
</g>
</g>
<!-- Node13&#45;&gt;Node4 -->
<g id="edge20_Node000013_Node000004" class="edge">
<title>Node13&#45;&gt;Node4</title>
<g id="a_edge20_Node000013_Node000004"><a xlink:title=" ">
<path fill="none" stroke="#63b8ff" d="M1293.49,-195.53C1304.78,-177.7 1318.61,-148.44 1306,-126.25 1275.05,-71.8 1206.96,-40.46 1160.52,-24.66"/>
<polygon fill="#63b8ff" stroke="#63b8ff" points="1161.83,-21.4 1151.23,-21.62 1159.65,-28.06 1161.83,-21.4"/>
</a>
</g>
</g>
<!-- Node13&#45;&gt;Node7 -->
<g id="edge19_Node000013_Node000007" class="edge">
<title>Node13&#45;&gt;Node7</title>
<g id="a_edge19_Node000013_Node000007"><a xlink:title=" ">
<path fill="none" stroke="#63b8ff" d="M1225.28,-198.57C1171.95,-186.4 1092.68,-168.33 1040.19,-156.36"/>
<polygon fill="#63b8ff" stroke="#63b8ff" points="1041.09,-152.97 1030.56,-154.16 1039.53,-159.8 1041.09,-152.97"/>
</a>
</g>
</g>
<!-- Node13&#45;&gt;Node11 -->
<g id="edge23_Node000013_Node000011" class="edge">
<title>Node13&#45;&gt;Node11</title>
<g id="a_edge23_Node000013_Node000011"><a xlink:title=" ">
<path fill="none" stroke="#63b8ff" d="M1242.83,-195.32C1198.1,-177.18 1122.5,-147.52 1056,-126.25 940.84,-89.42 911.67,-79.87 793,-56.75 668.55,-32.5 635.72,-37.17 510,-20.75 498.09,-19.19 485.04,-17.46 473.47,-15.9"/>
<polygon fill="#63b8ff" stroke="#63b8ff" points="473.94,-12.44 463.56,-14.57 473.01,-19.37 473.94,-12.44"/>
</a>
</g>
</g>
<!-- Node14 -->
<g id="Node000014" class="node">
<title>Node14</title>
<g id="a_Node000014"><a xlink:title=" ">
<polygon fill="#e0e0e0" stroke="#999999" points="1462.5,-153.38 1353.5,-153.38 1353.5,-132.62 1462.5,-132.62 1462.5,-153.38"/>
<text text-anchor="middle" x="1408" y="-139.88" font-family="Helvetica,sans-Serif" font-size="10.00">deal.II/base/point.h</text>
</a>
</g>
</g>
<!-- Node13&#45;&gt;Node14 -->
<g id="edge18_Node000013_Node000014" class="edge">
<title>Node13&#45;&gt;Node14</title>
<g id="a_edge18_Node000013_Node000014"><a xlink:title=" ">
<path fill="none" stroke="#63b8ff" d="M1312.18,-195.33C1332.67,-184.36 1359.58,-169.94 1379.67,-159.18"/>
<polygon fill="#63b8ff" stroke="#63b8ff" points="1381.26,-162.29 1388.43,-154.49 1377.96,-156.12 1381.26,-162.29"/>
</a>
</g>
</g>
<!-- Node15 -->
<g id="Node000015" class="node">
<title>Node15</title>
<g id="a_Node000015"><a xlink:title=" ">
<polygon fill="#e0e0e0" stroke="#999999" points="1222.88,-153.38 1179.12,-153.38 1179.12,-132.62 1222.88,-132.62 1222.88,-153.38"/>
<text text-anchor="middle" x="1201" y="-139.88" font-family="Helvetica,sans-Serif" font-size="10.00">mpi.h</text>
</a>
</g>
</g>
<!-- Node13&#45;&gt;Node15 -->
<g id="edge21_Node000013_Node000015" class="edge">
<title>Node13&#45;&gt;Node15</title>
<g id="a_edge21_Node000013_Node000015"><a xlink:title=" ">
<path fill="none" stroke="#63b8ff" d="M1262.8,-195.5C1250.31,-185.09 1234.02,-171.52 1221.31,-160.92"/>
<polygon fill="#63b8ff" stroke="#63b8ff" points="1223.87,-158.5 1213.95,-154.79 1219.39,-163.88 1223.87,-158.5"/>
</a>
</g>
</g>
<!-- Node16 -->
<g id="Node000016" class="node">
<title>Node16</title>
<g id="a_Node000016"><a xlink:title=" ">
<polygon fill="#e0e0e0" stroke="#999999" points="1297.25,-153.38 1240.75,-153.38 1240.75,-132.62 1297.25,-132.62 1297.25,-153.38"/>
<text text-anchor="middle" x="1269" y="-139.88" font-family="Helvetica,sans-Serif" font-size="10.00">ostream</text>
</a>
</g>
</g>
<!-- Node13&#45;&gt;Node16 -->
<g id="edge22_Node000013_Node000016" class="edge">
<title>Node13&#45;&gt;Node16</title>
<g id="a_edge22_Node000013_Node000016"><a xlink:title=" ">
<path fill="none" stroke="#63b8ff" d="M1278.92,-195.5C1277.17,-186.4 1274.95,-174.89 1273.06,-165.07"/>
<polygon fill="#63b8ff" stroke="#63b8ff" points="1276.51,-164.47 1271.18,-155.31 1269.63,-165.79 1276.51,-164.47"/>
</a>
</g>
</g>
<!-- Node17&#45;&gt;Node2 -->
<g id="edge25_Node000017_Node000002" class="edge">
<title>Node17&#45;&gt;Node2</title>
<g id="a_edge25_Node000017_Node000002"><a xlink:title=" ">
<path fill="none" stroke="#63b8ff" d="M889.83,-407.57C756.54,-405.5 465.55,-388.45 248,-286 223.66,-274.54 200.88,-254.01 185.2,-237.71"/>
<polygon fill="#63b8ff" stroke="#63b8ff" points="188.09,-235.68 178.71,-230.75 182.97,-240.45 188.09,-235.68"/>
</a>
</g>
</g>
<!-- Node17&#45;&gt;Node4 -->
<g id="edge55_Node000017_Node000004" class="edge">
<title>Node17&#45;&gt;Node4</title>
<g id="a_edge55_Node000017_Node000004"><a xlink:title=" ">
<path fill="none" stroke="#63b8ff" d="M1011.58,-391.04C1129.63,-351.29 1421.29,-245.96 1472,-159.75 1538.84,-46.11 1294.25,-19.51 1174.89,-13.28"/>
<polygon fill="#63b8ff" stroke="#63b8ff" points="1175.07,-9.78 1164.91,-12.79 1174.73,-16.77 1175.07,-9.78"/>
</a>
</g>
</g>
<!-- Node18 -->
<g id="Node000018" class="node">
<title>Node18</title>
<g id="a_Node000018"><a xlink:href="solve__block_8h.html" target="_top" xlink:title=" ">
<polygon fill="white" stroke="#666666" points="839,-355.5 727,-355.5 727,-322 839,-322 839,-355.5"/>
<text text-anchor="start" x="735" y="-342" font-family="Helvetica,sans-Serif" font-size="10.00">prismspf/core/solve</text>
<text text-anchor="middle" x="783" y="-329.25" font-family="Helvetica,sans-Serif" font-size="10.00">_block.h</text>
</a>
</g>
</g>
<!-- Node17&#45;&gt;Node18 -->
<g id="edge26_Node000017_Node000018" class="edge">
<title>Node17&#45;&gt;Node18</title>
<g id="a_edge26_Node000017_Node000018"><a xlink:title=" ">
<path fill="none" stroke="#63b8ff" d="M919.13,-391.08C894.31,-381.72 862.86,-369.86 836.44,-359.9"/>
<polygon fill="#63b8ff" stroke="#63b8ff" points="837.84,-356.69 827.25,-356.44 835.37,-363.24 837.84,-356.69"/>
</a>
</g>
</g>
<!-- Node18&#45;&gt;Node4 -->
<g id="edge51_Node000018_Node000004" class="edge">
<title>Node18&#45;&gt;Node4</title>
<g id="a_edge51_Node000018_Node000004"><a xlink:title=" ">
<path fill="none" stroke="#63b8ff" d="M839.42,-330.68C938.64,-316.96 1137.82,-283.23 1179,-229.25 1188.03,-217.41 1181.55,-210.42 1179,-195.75 1173.28,-162.82 1137.42,-71.74 1121.09,-31.23"/>
<polygon fill="#63b8ff" stroke="#63b8ff" points="1124.44,-30.18 1117.44,-22.23 1117.95,-32.81 1124.44,-30.18"/>
</a>
</g>
</g>
<!-- Node18&#45;&gt;Node6 -->
<g id="edge27_Node000018_Node000006" class="edge">
<title>Node18&#45;&gt;Node6</title>
<g id="a_edge27_Node000018_Node000006"><a xlink:title=" ">
<path fill="none" stroke="#63b8ff" d="M825.16,-321.51C862.18,-304.69 913.52,-274.44 936,-229.25 942.63,-215.92 943.69,-208.5 936,-195.75 925.16,-177.76 905.74,-165.7 887.03,-157.79"/>
<polygon fill="#63b8ff" stroke="#63b8ff" points="888.47,-154.59 877.88,-154.25 885.94,-161.12 888.47,-154.59"/>
</a>
</g>
</g>
<!-- Node18&#45;&gt;Node7 -->
<g id="edge50_Node000018_Node000007" class="edge">
<title>Node18&#45;&gt;Node7</title>
<g id="a_edge50_Node000018_Node000007"><a xlink:title=" ">
<path fill="none" stroke="#63b8ff" d="M839.43,-322.43C863.11,-314.18 889.96,-302.29 911,-286 951.28,-254.81 972.27,-195.79 980.99,-164.57"/>
<polygon fill="#63b8ff" stroke="#63b8ff" points="984.29,-165.76 983.44,-155.2 977.52,-163.98 984.29,-165.76"/>
</a>
</g>
</g>
<!-- Node18&#45;&gt;Node8 -->
<g id="edge28_Node000018_Node000008" class="edge">
<title>Node18&#45;&gt;Node8</title>
<g id="a_edge28_Node000018_Node000008"><a xlink:title=" ">
<path fill="none" stroke="#63b8ff" d="M726.51,-335.66C662.29,-331.65 555.32,-319.98 470,-286 400.04,-258.14 371.79,-233.59 357,-159.75 354.08,-145.15 347.22,-137.48 357,-126.25 359.51,-123.37 557.76,-97.03 664.17,-83.08"/>
<polygon fill="#63b8ff" stroke="#63b8ff" points="664.46,-86.58 673.92,-81.81 663.55,-79.63 664.46,-86.58"/>
</a>
</g>
</g>
<!-- Node18&#45;&gt;Node9 -->
<g id="edge49_Node000018_Node000009" class="edge">
<title>Node18&#45;&gt;Node9</title>
<g id="a_edge49_Node000018_Node000009"><a xlink:title=" ">
<path fill="none" stroke="#63b8ff" d="M726.53,-333.89C638.83,-327.19 474.49,-311.62 422,-286 389.3,-270.04 380.72,-261.03 363,-229.25 340.47,-188.85 319.77,-162.9 348,-126.25 364.07,-105.38 428.35,-91.23 478.98,-83.07"/>
<polygon fill="#63b8ff" stroke="#63b8ff" points="479.36,-86.55 488.71,-81.55 478.29,-79.63 479.36,-86.55"/>
</a>
</g>
</g>
<!-- Node18&#45;&gt;Node11 -->
<g id="edge53_Node000018_Node000011" class="edge">
<title>Node18&#45;&gt;Node11</title>
<g id="a_edge53_Node000018_Node000011"><a xlink:title=" ">
<path fill="none" stroke="#63b8ff" d="M726.7,-334.3C553.14,-322.93 38,-283.28 38,-213.5 38,-213.5 38,-213.5 38,-142 38,-64.76 309.79,-26.23 406.41,-14.97"/>
<polygon fill="#63b8ff" stroke="#63b8ff" points="406.77,-18.45 416.31,-13.84 405.98,-11.5 406.77,-18.45"/>
</a>
</g>
</g>
<!-- Node19 -->
<g id="Node000019" class="node">
<title>Node19</title>
<g id="a_Node000019"><a xlink:href="dependencies_8h.html" target="_top" xlink:title=" ">
<polygon fill="white" stroke="#666666" points="784.12,-286 621.88,-286 621.88,-265.25 784.12,-265.25 784.12,-286"/>
<text text-anchor="middle" x="703" y="-272.5" font-family="Helvetica,sans-Serif" font-size="10.00">prismspf/core/dependencies.h</text>
</a>
</g>
</g>
<!-- Node18&#45;&gt;Node19 -->
<g id="edge29_Node000018_Node000019" class="edge">
<title>Node18&#45;&gt;Node19</title>
<g id="a_edge29_Node000018_Node000019"><a xlink:title=" ">
<path fill="none" stroke="#63b8ff" d="M761.98,-321.69C750.55,-312.96 736.43,-302.17 724.87,-293.34"/>
<polygon fill="#63b8ff" stroke="#63b8ff" points="727.15,-290.68 717.08,-287.39 722.9,-296.24 727.15,-290.68"/>
</a>
</g>
</g>
<!-- Node23 -->
<g id="Node000023" class="node">
<title>Node23</title>
<g id="a_Node000023"><a xlink:title=" ">
<polygon fill="#e0e0e0" stroke="#999999" points="412.38,-153.38 365.62,-153.38 365.62,-132.62 412.38,-132.62 412.38,-153.38"/>
<text text-anchor="middle" x="389" y="-139.88" font-family="Helvetica,sans-Serif" font-size="10.00">vector</text>
</a>
</g>
</g>
<!-- Node18&#45;&gt;Node23 -->
<g id="edge54_Node000018_Node000023" class="edge">
<title>Node18&#45;&gt;Node23</title>
<g id="a_edge54_Node000018_Node000023"><a xlink:title=" ">
<path fill="none" stroke="#63b8ff" d="M726.51,-328.82C632.34,-312.8 449.34,-276.37 406,-229.25 390.15,-212.02 387.27,-184.37 387.46,-165.26"/>
<polygon fill="#63b8ff" stroke="#63b8ff" points="390.95,-165.52 387.87,-155.38 383.95,-165.22 390.95,-165.52"/>
</a>
</g>
</g>
<!-- Node25 -->
<g id="Node000025" class="node">
<title>Node25</title>
<g id="a_Node000025"><a xlink:title=" ">
<polygon fill="#e0e0e0" stroke="#999999" points="927.5,-222.88 896.5,-222.88 896.5,-202.12 927.5,-202.12 927.5,-222.88"/>
<text text-anchor="middle" x="912" y="-209.38" font-family="Helvetica,sans-Serif" font-size="10.00">set</text>
</a>
</g>
</g>
<!-- Node18&#45;&gt;Node25 -->
<g id="edge52_Node000018_Node000025" class="edge">
<title>Node18&#45;&gt;Node25</title>
<g id="a_edge52_Node000018_Node000025"><a xlink:title=" ">
<path fill="none" stroke="#63b8ff" d="M799.86,-321.51C824.07,-298.19 868.51,-255.39 893.56,-231.26"/>
<polygon fill="#63b8ff" stroke="#63b8ff" points="895.98,-233.79 900.75,-224.34 891.12,-228.75 895.98,-233.79"/>
</a>
</g>
</g>
<!-- Node19&#45;&gt;Node2 -->
<g id="edge33_Node000019_Node000002" class="edge">
<title>Node19&#45;&gt;Node2</title>
<g id="a_edge33_Node000019_Node000002"><a xlink:title=" ">
<path fill="none" stroke="#63b8ff" d="M621.43,-265.37C519.84,-253.85 347.31,-234.29 245.67,-222.76"/>
<polygon fill="#63b8ff" stroke="#63b8ff" points="246.08,-219.29 235.75,-221.64 245.29,-226.24 246.08,-219.29"/>
</a>
</g>
</g>
<!-- Node19&#45;&gt;Node4 -->
<g id="edge44_Node000019_Node000004" class="edge">
<title>Node19&#45;&gt;Node4</title>
<g id="a_edge44_Node000019_Node000004"><a xlink:title=" ">
<path fill="none" stroke="#63b8ff" d="M729.21,-264.89C744.68,-257.63 762.95,-246.03 772,-229.25 793.87,-188.68 732.92,-163.54 760,-126.25 826.84,-34.2 969.33,-14.48 1051.36,-11.1"/>
<polygon fill="#63b8ff" stroke="#63b8ff" points="1051.38,-14.6 1061.26,-10.77 1051.15,-7.61 1051.38,-14.6"/>
</a>
</g>
</g>
<!-- Node19&#45;&gt;Node6 -->
<g id="edge30_Node000019_Node000006" class="edge">
<title>Node19&#45;&gt;Node6</title>
<g id="a_edge30_Node000019_Node000006"><a xlink:title=" ">
<path fill="none" stroke="#63b8ff" d="M743.89,-264.83C764.86,-257.96 789.42,-246.78 806,-229.25 822.85,-211.43 831.03,-183.91 834.86,-164.98"/>
<polygon fill="#63b8ff" stroke="#63b8ff" points="838.29,-165.67 836.57,-155.22 831.4,-164.46 838.29,-165.67"/>
</a>
</g>
</g>
<!-- Node19&#45;&gt;Node7 -->
<g id="edge43_Node000019_Node000007" class="edge">
<title>Node19&#45;&gt;Node7</title>
<g id="a_edge43_Node000019_Node000007"><a xlink:title=" ">
<path fill="none" stroke="#63b8ff" d="M735.77,-264.79C761.83,-256.54 798.93,-243.77 830,-229.25 856.62,-216.81 861.3,-210.01 887,-195.75 910.04,-182.97 936.5,-169.18 956.27,-159.05"/>
<polygon fill="#63b8ff" stroke="#63b8ff" points="957.83,-162.18 965.15,-154.52 954.65,-155.95 957.83,-162.18"/>
</a>
</g>
</g>
<!-- Node19&#45;&gt;Node8 -->
<g id="edge32_Node000019_Node000008" class="edge">
<title>Node19&#45;&gt;Node8</title>
<g id="a_edge32_Node000019_Node000008"><a xlink:title=" ">
<path fill="none" stroke="#63b8ff" d="M621.58,-265.75C575.1,-258.82 523.29,-247.27 509,-229.25 499.75,-217.58 506.35,-210.4 509,-195.75 514.87,-163.3 510.56,-148.39 535,-126.25 554.08,-108.96 615.58,-94.46 664.47,-85.25"/>
<polygon fill="#63b8ff" stroke="#63b8ff" points="664.95,-88.72 674.15,-83.47 663.68,-81.83 664.95,-88.72"/>
</a>
</g>
</g>
<!-- Node19&#45;&gt;Node9 -->
<g id="edge42_Node000019_Node000009" class="edge">
<title>Node19&#45;&gt;Node9</title>
<g id="a_edge42_Node000019_Node000009"><a xlink:title=" ">
<path fill="none" stroke="#63b8ff" d="M621.4,-266.73C571.89,-260.07 515.38,-248.45 500,-229.25 469.32,-190.96 501.46,-132.36 524.66,-99.34"/>
<polygon fill="#63b8ff" stroke="#63b8ff" points="527.25,-101.73 530.3,-91.58 521.59,-97.61 527.25,-101.73"/>
</a>
</g>
</g>
<!-- Node19&#45;&gt;Node11 -->
<g id="edge47_Node000019_Node000011" class="edge">
<title>Node19&#45;&gt;Node11</title>
<g id="a_edge47_Node000019_Node000011"><a xlink:title=" ">
<path fill="none" stroke="#63b8ff" d="M621.51,-269.33C546.29,-263.17 441.1,-250.97 406,-229.25 362.89,-202.57 341.4,-174.48 357,-126.25 369.66,-87.13 401.16,-50.13 421.51,-29.15"/>
<polygon fill="#63b8ff" stroke="#63b8ff" points="423.81,-31.81 428.39,-22.26 418.85,-26.86 423.81,-31.81"/>
</a>
</g>
</g>
<!-- Node20 -->
<g id="Node000020" class="node">
<title>Node20</title>
<g id="a_Node000020"><a xlink:title=" ">
<polygon fill="#e0e0e0" stroke="#999999" points="763.5,-222.88 642.5,-222.88 642.5,-202.12 763.5,-202.12 763.5,-222.88"/>
<text text-anchor="middle" x="703" y="-209.38" font-family="Helvetica,sans-Serif" font-size="10.00">deal.II/base/utilities.h</text>
</a>
</g>
</g>
<!-- Node19&#45;&gt;Node20 -->
<g id="edge31_Node000019_Node000020" class="edge">
<title>Node19&#45;&gt;Node20</title>
<g id="a_edge31_Node000019_Node000020"><a xlink:title=" ">
<path fill="none" stroke="#63b8ff" d="M703,-264.8C703,-256.65 703,-244.76 703,-234.48"/>
<polygon fill="#63b8ff" stroke="#63b8ff" points="706.5,-234.61 703,-224.61 699.5,-234.61 706.5,-234.61"/>
</a>
</g>
</g>
<!-- Node21 -->
<g id="Node000021" class="node">
<title>Node21</title>
<g id="a_Node000021"><a xlink:href="field__attributes_8h.html" target="_top" xlink:title=" ">
<polygon fill="white" stroke="#666666" points="624.38,-229.25 517.62,-229.25 517.62,-195.75 624.38,-195.75 624.38,-229.25"/>
<text text-anchor="start" x="525.62" y="-215.75" font-family="Helvetica,sans-Serif" font-size="10.00">prismspf/core/field</text>
<text text-anchor="middle" x="571" y="-203" font-family="Helvetica,sans-Serif" font-size="10.00">_attributes.h</text>
</a>
</g>
</g>
<!-- Node19&#45;&gt;Node21 -->
<g id="edge34_Node000019_Node000021" class="edge">
<title>Node19&#45;&gt;Node21</title>
<g id="a_edge34_Node000019_Node000021"><a xlink:title=" ">
<path fill="none" stroke="#63b8ff" d="M681.79,-264.8C664.18,-256.65 638.5,-244.76 616.3,-234.48"/>
<polygon fill="#63b8ff" stroke="#63b8ff" points="617.98,-231.4 607.43,-230.37 615.04,-237.75 617.98,-231.4"/>
</a>
</g>
</g>
<!-- Node19&#45;&gt;Node23 -->
<g id="edge48_Node000019_Node000023" class="edge">
<title>Node19&#45;&gt;Node23</title>
<g id="a_edge48_Node000019_Node000023"><a xlink:title=" ">
<path fill="none" stroke="#63b8ff" d="M621.4,-268.26C554.77,-261.7 467.04,-249.52 438,-229.25 415.64,-213.64 402.1,-184.32 395.09,-164.47"/>
<polygon fill="#63b8ff" stroke="#63b8ff" points="398.51,-163.67 392.09,-155.24 391.85,-165.83 398.51,-163.67"/>
</a>
</g>
</g>
<!-- Node24 -->
<g id="Node000024" class="node">
<title>Node24</title>
<g id="a_Node000024"><a xlink:title=" ">
<polygon fill="#e0e0e0" stroke="#999999" points="1598.75,-153.38 1557.25,-153.38 1557.25,-132.62 1598.75,-132.62 1598.75,-153.38"/>
<text text-anchor="middle" x="1578" y="-139.88" font-family="Helvetica,sans-Serif" font-size="10.00">array</text>
</a>
</g>
</g>
<!-- Node19&#45;&gt;Node24 -->
<g id="edge45_Node000019_Node000024" class="edge">
<title>Node19&#45;&gt;Node24</title>
<g id="a_edge45_Node000019_Node000024"><a xlink:title=" ">
<path fill="none" stroke="#63b8ff" d="M784.32,-273.49C999.15,-270.09 1567.31,-258.39 1595,-229.25 1611.68,-211.7 1600.78,-182.67 1590.32,-163.44"/>
<polygon fill="#63b8ff" stroke="#63b8ff" points="1593.42,-161.81 1585.34,-154.96 1587.38,-165.36 1593.42,-161.81"/>
</a>
</g>
</g>
<!-- Node19&#45;&gt;Node25 -->
<g id="edge46_Node000019_Node000025" class="edge">
<title>Node19&#45;&gt;Node25</title>
<g id="a_edge46_Node000019_Node000025"><a xlink:title=" ">
<path fill="none" stroke="#63b8ff" d="M755.31,-264.76C791.54,-257.11 840.54,-245.13 882,-229.25 883.33,-228.74 884.67,-228.19 886.02,-227.6"/>
<polygon fill="#63b8ff" stroke="#63b8ff" points="887.29,-230.88 894.77,-223.38 884.24,-224.58 887.29,-230.88"/>
</a>
</g>
</g>
<!-- Node21&#45;&gt;Node4 -->
<g id="edge38_Node000021_Node000004" class="edge">
<title>Node21&#45;&gt;Node4</title>
<g id="a_edge38_Node000021_Node000004"><a xlink:title=" ">
<path fill="none" stroke="#63b8ff" d="M582.69,-195.41C589.9,-185.31 599.23,-171.93 607,-159.75 635.48,-115.08 622.46,-85.44 667,-56.75 729.1,-16.74 944.35,-11.12 1051.46,-10.88"/>
<polygon fill="#63b8ff" stroke="#63b8ff" points="1051.22,-14.38 1061.22,-10.88 1051.21,-7.38 1051.22,-14.38"/>
</a>
</g>
</g>
<!-- Node21&#45;&gt;Node6 -->
<g id="edge35_Node000021_Node000006" class="edge">
<title>Node21&#45;&gt;Node6</title>
<g id="a_edge35_Node000021_Node000006"><a xlink:title=" ">
<path fill="none" stroke="#63b8ff" d="M624.77,-197.84C627.55,-197.13 630.31,-196.43 633,-195.75 685.97,-182.34 746.65,-167.03 788.16,-156.56"/>
<polygon fill="#63b8ff" stroke="#63b8ff" points="788.77,-160.02 797.61,-154.18 787.06,-153.23 788.77,-160.02"/>
</a>
</g>
</g>
<!-- Node21&#45;&gt;Node7 -->
<g id="edge37_Node000021_Node000007" class="edge">
<title>Node21&#45;&gt;Node7</title>
<g id="a_edge37_Node000021_Node000007"><a xlink:title=" ">
<path fill="none" stroke="#63b8ff" d="M624.68,-197.44C627.49,-196.83 630.27,-196.27 633,-195.75 757.57,-172.1 791.12,-181.69 916,-159.75 921.98,-158.7 928.22,-157.48 934.41,-156.19"/>
<polygon fill="#63b8ff" stroke="#63b8ff" points="934.9,-159.66 943.94,-154.13 933.42,-152.82 934.9,-159.66"/>
</a>
</g>
</g>
<!-- Node21&#45;&gt;Node9 -->
<g id="edge36_Node000021_Node000009" class="edge">
<title>Node21&#45;&gt;Node9</title>
<g id="a_edge36_Node000021_Node000009"><a xlink:title=" ">
<path fill="none" stroke="#63b8ff" d="M580.37,-195.39C589.25,-177.95 599.98,-149.51 591,-126.25 587.02,-115.94 579.92,-106.42 572.43,-98.43"/>
<polygon fill="#63b8ff" stroke="#63b8ff" points="574.93,-95.98 565.35,-91.45 570.02,-100.96 574.93,-95.98"/>
</a>
</g>
</g>
<!-- Node21&#45;&gt;Node11 -->
<g id="edge40_Node000021_Node000011" class="edge">
<title>Node21&#45;&gt;Node11</title>
<g id="a_edge40_Node000021_Node000011"><a xlink:title=" ">
<path fill="none" stroke="#63b8ff" d="M557.92,-195.61C539.59,-172.98 505.75,-129.81 481,-90.25 468.83,-70.8 456.97,-47.33 449.16,-31.08"/>
<polygon fill="#63b8ff" stroke="#63b8ff" points="452.53,-30.03 445.09,-22.49 446.21,-33.02 452.53,-30.03"/>
</a>
</g>
</g>
<!-- Node22 -->
<g id="Node000022" class="node">
<title>Node22</title>
<g id="a_Node000022"><a xlink:title=" ">
<polygon fill="#e0e0e0" stroke="#999999" points="581.88,-153.38 544.12,-153.38 544.12,-132.62 581.88,-132.62 581.88,-153.38"/>
<text text-anchor="middle" x="563" y="-139.88" font-family="Helvetica,sans-Serif" font-size="10.00">map</text>
</a>
</g>
</g>
<!-- Node21&#45;&gt;Node22 -->
<g id="edge39_Node000021_Node000022" class="edge">
<title>Node21&#45;&gt;Node22</title>
<g id="a_edge39_Node000021_Node000022"><a xlink:title=" ">
<path fill="none" stroke="#63b8ff" d="M569.1,-195.5C568.03,-186.4 566.66,-174.89 565.5,-165.07"/>
<polygon fill="#63b8ff" stroke="#63b8ff" points="568.99,-164.84 564.34,-155.32 562.04,-165.67 568.99,-164.84"/>
</a>
</g>
</g>
<!-- Node21&#45;&gt;Node23 -->
<g id="edge41_Node000021_Node000023" class="edge">
<title>Node21&#45;&gt;Node23</title>
<g id="a_edge41_Node000021_Node000023"><a xlink:title=" ">
<path fill="none" stroke="#63b8ff" d="M523.39,-195.31C494.97,-185.45 458.24,-172.35 426,-159.75 424.5,-159.16 422.96,-158.55 421.42,-157.93"/>
<polygon fill="#63b8ff" stroke="#63b8ff" points="423.19,-154.88 412.62,-154.29 420.52,-161.35 423.19,-154.88"/>
</a>
</g>
</g>
<!-- Node26&#45;&gt;Node4 -->
<g id="edge64_Node000026_Node000004" class="edge">
<title>Node26&#45;&gt;Node4</title>
<g id="a_edge64_Node000026_Node000004"><a xlink:title=" ">
<path fill="none" stroke="#63b8ff" d="M1711.9,-195.41C1707.53,-176.66 1697.89,-145.75 1679,-126.25 1627.6,-73.19 1599.2,-76.47 1528,-56.75 1405.88,-22.93 1256.99,-14.14 1174.86,-11.97"/>
<polygon fill="#63b8ff" stroke="#63b8ff" points="1175.08,-8.47 1165,-11.73 1174.91,-15.47 1175.08,-8.47"/>
</a>
</g>
</g>
<!-- Node26&#45;&gt;Node6 -->
<g id="edge57_Node000026_Node000006" class="edge">
<title>Node26&#45;&gt;Node6</title>
<g id="a_edge57_Node000026_Node000006"><a xlink:title=" ">
<path fill="none" stroke="#63b8ff" d="M1665.47,-204.12C1643.87,-201.13 1618.23,-197.89 1595,-195.75 1294.07,-168.07 1215.8,-197.76 916,-159.75 908.18,-158.76 899.96,-157.43 891.92,-155.95"/>
<polygon fill="#63b8ff" stroke="#63b8ff" points="892.69,-152.54 882.21,-154.08 891.37,-159.41 892.69,-152.54"/>
</a>
</g>
</g>
<!-- Node26&#45;&gt;Node8 -->
<g id="edge61_Node000026_Node000008" class="edge">
<title>Node26&#45;&gt;Node8</title>
<g id="a_edge61_Node000026_Node000008"><a xlink:title=" ">
<path fill="none" stroke="#63b8ff" d="M1694.97,-195.29C1664.71,-170.84 1610.55,-127.23 1608,-126.25 1478.47,-76.72 1123.43,-98.52 985,-90.25 920.58,-86.4 847.02,-81.84 795.51,-78.62"/>
<polygon fill="#63b8ff" stroke="#63b8ff" points="795.93,-75.14 785.73,-78.01 795.49,-82.12 795.93,-75.14"/>
</a>
</g>
</g>
<!-- Node26&#45;&gt;Node11 -->
<g id="edge66_Node000026_Node000011" class="edge">
<title>Node26&#45;&gt;Node11</title>
<g id="a_edge66_Node000026_Node000011"><a xlink:title=" ">
<path fill="none" stroke="#63b8ff" d="M1703.82,-195.55C1687.77,-173.19 1658.46,-134.32 1643,-126.25 1530.92,-67.74 635.63,-35.01 510,-20.75 498.15,-19.41 485.21,-17.73 473.71,-16.17"/>
<polygon fill="#63b8ff" stroke="#63b8ff" points="474.24,-12.71 463.85,-14.81 473.28,-19.64 474.24,-12.71"/>
</a>
</g>
</g>
<!-- Node26&#45;&gt;Node14 -->
<g id="edge58_Node000026_Node000014" class="edge">
<title>Node26&#45;&gt;Node14</title>
<g id="a_edge58_Node000026_Node000014"><a xlink:title=" ">
<path fill="none" stroke="#63b8ff" d="M1665.33,-200.58C1610.13,-188.44 1521.19,-168.89 1463.67,-156.24"/>
<polygon fill="#63b8ff" stroke="#63b8ff" points="1464.6,-152.86 1454.08,-154.13 1463.1,-159.7 1464.6,-152.86"/>
</a>
</g>
</g>
<!-- Node26&#45;&gt;Node24 -->
<g id="edge65_Node000026_Node000024" class="edge">
<title>Node26&#45;&gt;Node24</title>
<g id="a_edge65_Node000026_Node000024"><a xlink:title=" ">
<path fill="none" stroke="#63b8ff" d="M1682.19,-195.33C1659.6,-184.2 1629.83,-169.54 1607.9,-158.73"/>
<polygon fill="#63b8ff" stroke="#63b8ff" points="1609.71,-155.72 1599.19,-154.44 1606.61,-162 1609.71,-155.72"/>
</a>
</g>
</g>
<!-- Node27 -->
<g id="Node000027" class="node">
<title>Node27</title>
<g id="a_Node000027"><a xlink:title=" ">
<polygon fill="#e0e0e0" stroke="#999999" points="2543.12,-153.38 2428.88,-153.38 2428.88,-132.62 2543.12,-132.62 2543.12,-153.38"/>
<text text-anchor="middle" x="2486" y="-139.88" font-family="Helvetica,sans-Serif" font-size="10.00">deal.II/base/tensor.h</text>
</a>
</g>
</g>
<!-- Node26&#45;&gt;Node27 -->
<g id="edge59_Node000026_Node000027" class="edge">
<title>Node26&#45;&gt;Node27</title>
<g id="a_edge59_Node000026_Node000027"><a xlink:title=" ">
<path fill="none" stroke="#63b8ff" d="M1764.49,-210.3C1879.34,-206.97 2172.67,-195.39 2415,-159.75 2421.56,-158.78 2428.42,-157.55 2435.18,-156.2"/>
<polygon fill="#63b8ff" stroke="#63b8ff" points="2435.84,-159.64 2444.9,-154.16 2434.4,-152.79 2435.84,-159.64"/>
</a>
</g>
</g>
<!-- Node28 -->
<g id="Node000028" class="node">
<title>Node28</title>
<g id="a_Node000028"><a xlink:title=" ">
<polygon fill="#e0e0e0" stroke="#999999" points="2475,-83.88 2327,-83.88 2327,-63.12 2475,-63.12 2475,-83.88"/>
<text text-anchor="middle" x="2401" y="-70.38" font-family="Helvetica,sans-Serif" font-size="10.00">deal.II/base/vectorization.h</text>
</a>
</g>
</g>
<!-- Node26&#45;&gt;Node28 -->
<g id="edge60_Node000026_Node000028" class="edge">
<title>Node26&#45;&gt;Node28</title>
<g id="a_edge60_Node000026_Node000028"><a xlink:title=" ">
<path fill="none" stroke="#63b8ff" d="M1764.51,-211C1911.11,-209.05 2335.63,-199.96 2382,-159.75 2400.04,-144.1 2403.08,-115.44 2402.74,-95.7"/>
<polygon fill="#63b8ff" stroke="#63b8ff" points="2406.24,-95.56 2402.23,-85.76 2399.25,-95.92 2406.24,-95.56"/>
</a>
</g>
</g>
<!-- Node29 -->
<g id="Node000029" class="node">
<title>Node29</title>
<g id="a_Node000029"><a xlink:title=" ">
<polygon fill="#e0e0e0" stroke="#999999" points="1876.5,-153.38 1731.5,-153.38 1731.5,-132.62 1876.5,-132.62 1876.5,-153.38"/>
<text text-anchor="middle" x="1804" y="-139.88" font-family="Helvetica,sans-Serif" font-size="10.00">boost/range/algorithm.hpp</text>
</a>
</g>
</g>
<!-- Node26&#45;&gt;Node29 -->
<g id="edge62_Node000026_Node000029" class="edge">
<title>Node26&#45;&gt;Node29</title>
<g id="a_edge62_Node000026_Node000029"><a xlink:title=" ">
<path fill="none" stroke="#63b8ff" d="M1736.09,-195.5C1749.96,-184.99 1768.06,-171.26 1782.09,-160.62"/>
<polygon fill="#63b8ff" stroke="#63b8ff" points="1783.99,-163.57 1789.84,-154.74 1779.76,-157.99 1783.99,-163.57"/>
</a>
</g>
</g>
<!-- Node30 -->
<g id="Node000030" class="node">
<title>Node30</title>
<g id="a_Node000030"><a xlink:title=" ">
<polygon fill="#e0e0e0" stroke="#999999" points="2019,-159.75 1895,-159.75 1895,-126.25 2019,-126.25 2019,-159.75"/>
<text text-anchor="start" x="1903" y="-146.25" font-family="Helvetica,sans-Serif" font-size="10.00">boost/range/algorithm</text>
<text text-anchor="middle" x="1957" y="-133.5" font-family="Helvetica,sans-Serif" font-size="10.00">_ext.hpp</text>
</a>
</g>
</g>
<!-- Node26&#45;&gt;Node30 -->
<g id="edge63_Node000026_Node000030" class="edge">
<title>Node26&#45;&gt;Node30</title>
<g id="a_edge63_Node000026_Node000030"><a xlink:title=" ">
<path fill="none" stroke="#63b8ff" d="M1764.56,-197.68C1800.2,-187.74 1848.73,-174.2 1888.14,-163.21"/>
<polygon fill="#63b8ff" stroke="#63b8ff" points="1888.84,-166.64 1897.54,-160.59 1886.96,-159.9 1888.84,-166.64"/>
</a>
</g>
</g>
<!-- Node31 -->
<g id="Node000031" class="node">
<title>Node31</title>
<g id="a_Node000031"><a xlink:title=" ">
<polygon fill="#e0e0e0" stroke="#999999" points="2109.12,-153.38 2036.88,-153.38 2036.88,-132.62 2109.12,-132.62 2109.12,-153.38"/>
<text text-anchor="middle" x="2073" y="-139.88" font-family="Helvetica,sans-Serif" font-size="10.00">string_view</text>
</a>
</g>
</g>
<!-- Node26&#45;&gt;Node31 -->
<g id="edge67_Node000026_Node000031" class="edge">
<title>Node26&#45;&gt;Node31</title>
<g id="a_edge67_Node000026_Node000031"><a xlink:title=" ">
<path fill="none" stroke="#63b8ff" d="M1764.61,-205.99C1826.79,-198.46 1936.35,-183.18 2028,-159.75 2030.91,-159.01 2033.89,-158.16 2036.88,-157.25"/>
<polygon fill="#63b8ff" stroke="#63b8ff" points="2037.67,-160.67 2046.1,-154.24 2035.5,-154.02 2037.67,-160.67"/>
</a>
</g>
</g>
<!-- Node32 -->
<g id="Node000032" class="node">
<title>Node32</title>
<g id="a_Node000032"><a xlink:title=" ">
<polygon fill="#e0e0e0" stroke="#999999" points="2219.25,-153.38 2126.75,-153.38 2126.75,-132.62 2219.25,-132.62 2219.25,-153.38"/>
<text text-anchor="middle" x="2173" y="-139.88" font-family="Helvetica,sans-Serif" font-size="10.00">unordered_map</text>
</a>
</g>
</g>
<!-- Node26&#45;&gt;Node32 -->
<g id="edge68_Node000026_Node000032" class="edge">
<title>Node26&#45;&gt;Node32</title>
<g id="a_edge68_Node000026_Node000032"><a xlink:title=" ">
<path fill="none" stroke="#63b8ff" d="M1764.72,-207.55C1841.2,-200.93 1992.09,-185.71 2118,-159.75 2122.26,-158.87 2126.66,-157.84 2131.05,-156.72"/>
<polygon fill="#63b8ff" stroke="#63b8ff" points="2131.59,-160.2 2140.33,-154.22 2129.76,-153.44 2131.59,-160.2"/>
</a>
</g>
</g>
<!-- Node33 -->
<g id="Node000033" class="node">
<title>Node33</title>
<g id="a_Node000033"><a xlink:href="vectorized__operations_8h.html" target="_top" xlink:title=" ">
<polygon fill="white" stroke="#666666" points="2373,-159.75 2237,-159.75 2237,-126.25 2373,-126.25 2373,-159.75"/>
<text text-anchor="start" x="2245" y="-146.25" font-family="Helvetica,sans-Serif" font-size="10.00">prismspf/utilities</text>
<text text-anchor="middle" x="2305" y="-133.5" font-family="Helvetica,sans-Serif" font-size="10.00">/vectorized_operations.h</text>
</a>
</g>
</g>
<!-- Node26&#45;&gt;Node33 -->
<g id="edge69_Node000026_Node000033" class="edge">
<title>Node26&#45;&gt;Node33</title>
<g id="a_edge69_Node000026_Node000033"><a xlink:title=" ">
<path fill="none" stroke="#63b8ff" d="M1764.73,-208.16C1854.67,-201.77 2050.53,-186.17 2225.41,-160.05"/>
<polygon fill="#63b8ff" stroke="#63b8ff" points="2225.77,-163.54 2235.13,-158.58 2224.72,-156.62 2225.77,-163.54"/>
</a>
</g>
</g>
<!-- Node33&#45;&gt;Node4 -->
<g id="edge71_Node000033_Node000004" class="edge">
<title>Node33&#45;&gt;Node4</title>
<g id="a_edge71_Node000033_Node000004"><a xlink:title=" ">
<path fill="none" stroke="#63b8ff" d="M2236.61,-127.77C2233.7,-127.24 2230.82,-126.73 2228,-126.25 2002.04,-87.82 1944.94,-80.79 1717,-56.75 1519.24,-35.89 1284.05,-21.09 1174.66,-14.78"/>
<polygon fill="#63b8ff" stroke="#63b8ff" points="1174.9,-11.29 1164.72,-14.21 1174.5,-18.27 1174.9,-11.29"/>
</a>
</g>
</g>
<!-- Node33&#45;&gt;Node28 -->
<g id="edge70_Node000033_Node000028" class="edge">
<title>Node33&#45;&gt;Node28</title>
<g id="a_edge70_Node000033_Node000028"><a xlink:title=" ">
<path fill="none" stroke="#63b8ff" d="M2327.75,-126C2342.85,-115.39 2362.61,-101.49 2377.8,-90.81"/>
<polygon fill="#63b8ff" stroke="#63b8ff" points="2379.63,-93.81 2385.79,-85.19 2375.6,-88.08 2379.63,-93.81"/>
</a>
</g>
</g>
<!-- Node34 -->
<g id="Node000034" class="node">
<title>Node34</title>
<g id="a_Node000034"><a xlink:title=" ">
<polygon fill="#e0e0e0" stroke="#999999" points="2309.38,-83.88 2262.62,-83.88 2262.62,-63.12 2309.38,-63.12 2309.38,-83.88"/>
<text text-anchor="middle" x="2286" y="-70.38" font-family="Helvetica,sans-Serif" font-size="10.00">cmath</text>
</a>
</g>
</g>
<!-- Node33&#45;&gt;Node34 -->
<g id="edge72_Node000033_Node000034" class="edge">
<title>Node33&#45;&gt;Node34</title>
<g id="a_edge72_Node000033_Node000034"><a xlink:title=" ">
<path fill="none" stroke="#63b8ff" d="M2300.5,-126C2297.91,-116.8 2294.62,-105.14 2291.84,-95.24"/>
<polygon fill="#63b8ff" stroke="#63b8ff" points="2295.25,-94.46 2289.17,-85.78 2288.52,-96.35 2295.25,-94.46"/>
</a>
</g>
</g>
</g>
</svg>
