<?xml version="1.0" encoding="UTF-8" standalone="no"?>
<!DOCTYPE svg PUBLIC "-//W3C//DTD SVG 1.1//EN"
 "http://www.w3.org/Graphics/SVG/1.1/DTD/svg11.dtd">
<!-- Generated by graphviz version 12.2.1 (20241206.2353)
 -->
<!-- Title: include/prismspf/user_inputs/nucleation_parameters.h Pages: 1 -->
<svg width="1334pt" height="654pt"
 viewBox="0.00 0.00 1333.62 654.25" xmlns="http://www.w3.org/2000/svg" xmlns:xlink="http://www.w3.org/1999/xlink">
<g id="graph0" class="graph" transform="scale(1 1) rotate(0) translate(4 650.25)">
<title>include/prismspf/user_inputs/nucleation_parameters.h</title>
<!-- Node1 -->
<g id="Node000001" class="node">
<title>Node1</title>
<g id="a_Node000001"><a xlink:title=" ">
<polygon fill="#999999" stroke="#666666" points="1035.5,-646.25 859.75,-646.25 859.75,-612.75 1035.5,-612.75 1035.5,-646.25"/>
<text text-anchor="start" x="867.75" y="-632.75" font-family="Helvetica,sans-Serif" font-size="10.00">include/prismspf/user</text>
<text text-anchor="middle" x="947.62" y="-620" font-family="Helvetica,sans-Serif" font-size="10.00">_inputs/nucleation_parameters.h</text>
</a>
</g>
</g>
<!-- Node2 -->
<g id="Node000002" class="node">
<title>Node2</title>
<g id="a_Node000002"><a xlink:href="nucleation__manager_8h.html" target="_top" xlink:title=" ">
<polygon fill="white" stroke="#666666" points="1073.12,-368.25 922.12,-368.25 922.12,-334.75 1073.12,-334.75 1073.12,-368.25"/>
<text text-anchor="start" x="930.12" y="-354.75" font-family="Helvetica,sans-Serif" font-size="10.00">include/prismspf/nucleation</text>
<text text-anchor="middle" x="997.62" y="-342" font-family="Helvetica,sans-Serif" font-size="10.00">/nucleation_manager.h</text>
</a>
</g>
</g>
<!-- Node1&#45;&gt;Node2 -->
<g id="edge1_Node000001_Node000002" class="edge">
<title>Node1&#45;&gt;Node2</title>
<g id="a_edge1_Node000001_Node000002"><a xlink:title=" ">
<path fill="none" stroke="#63b8ff" d="M1046.67,-614.22C1110.93,-599.26 1190.01,-568.84 1230.62,-507.25 1276.81,-437.22 1154.56,-391.24 1070.17,-368.73"/>
<polygon fill="#63b8ff" stroke="#63b8ff" points="1046.16,-610.75 1037.15,-616.34 1047.68,-617.58 1046.16,-610.75"/>
</a>
</g>
</g>
<!-- Node5 -->
<g id="Node000005" class="node">
<title>Node5</title>
<g id="a_Node000005"><a xlink:href="nucleus__refinement__function_8h.html" target="_top" xlink:title=" ">
<polygon fill="white" stroke="#666666" points="670.12,-576.75 501.12,-576.75 501.12,-543.25 670.12,-543.25 670.12,-576.75"/>
<text text-anchor="start" x="509.12" y="-563.25" font-family="Helvetica,sans-Serif" font-size="10.00">include/prismspf/nucleation</text>
<text text-anchor="middle" x="585.62" y="-550.5" font-family="Helvetica,sans-Serif" font-size="10.00">/nucleus_refinement_function.h</text>
</a>
</g>
</g>
<!-- Node1&#45;&gt;Node5 -->
<g id="edge4_Node000001_Node000005" class="edge">
<title>Node1&#45;&gt;Node5</title>
<g id="a_edge4_Node000001_Node000005"><a xlink:title=" ">
<path fill="none" stroke="#63b8ff" d="M849.89,-610.28C793.82,-599.82 724.12,-586.82 670.38,-576.8"/>
<polygon fill="#63b8ff" stroke="#63b8ff" points="848.96,-613.66 859.43,-612.05 850.24,-606.78 848.96,-613.66"/>
</a>
</g>
</g>
<!-- Node6 -->
<g id="Node000006" class="node">
<title>Node6</title>
<g id="a_Node000006"><a xlink:href="user__input__parameters_8h.html" target="_top" xlink:title=" ">
<polygon fill="white" stroke="#666666" points="1035.5,-576.75 859.75,-576.75 859.75,-543.25 1035.5,-543.25 1035.5,-576.75"/>
<text text-anchor="start" x="867.75" y="-563.25" font-family="Helvetica,sans-Serif" font-size="10.00">include/prismspf/user</text>
<text text-anchor="middle" x="947.62" y="-550.5" font-family="Helvetica,sans-Serif" font-size="10.00">_inputs/user_input_parameters.h</text>
</a>
</g>
</g>
<!-- Node1&#45;&gt;Node6 -->
<g id="edge6_Node000001_Node000006" class="edge">
<title>Node1&#45;&gt;Node6</title>
<g id="a_edge6_Node000001_Node000006"><a xlink:title=" ">
<path fill="none" stroke="#63b8ff" d="M947.62,-601.06C947.62,-592.84 947.62,-584.09 947.62,-576.88"/>
<polygon fill="#63b8ff" stroke="#63b8ff" points="944.13,-600.99 947.63,-610.99 951.13,-600.99 944.13,-600.99"/>
</a>
</g>
</g>
<!-- Node3 -->
<g id="Node000003" class="node">
<title>Node3</title>
<g id="a_Node000003"><a xlink:href="problem_8h.html" target="_top" xlink:title=" ">
<polygon fill="white" stroke="#666666" points="954.12,-229.25 833.12,-229.25 833.12,-195.75 954.12,-195.75 954.12,-229.25"/>
<text text-anchor="start" x="841.12" y="-215.75" font-family="Helvetica,sans-Serif" font-size="10.00">include/prismspf/core</text>
<text text-anchor="middle" x="893.62" y="-203" font-family="Helvetica,sans-Serif" font-size="10.00">/problem.h</text>
</a>
</g>
</g>
<!-- Node2&#45;&gt;Node3 -->
<g id="edge2_Node000002_Node000003" class="edge">
<title>Node2&#45;&gt;Node3</title>
<g id="a_edge2_Node000002_Node000003"><a xlink:title=" ">
<path fill="none" stroke="#63b8ff" d="M978.54,-325.36C957.28,-297.35 923.56,-252.94 905.68,-229.38"/>
<polygon fill="#63b8ff" stroke="#63b8ff" points="975.74,-327.46 984.58,-333.31 981.32,-323.23 975.74,-327.46"/>
</a>
</g>
</g>
<!-- Node4 -->
<g id="Node000004" class="node">
<title>Node4</title>
<g id="a_Node000004"><a xlink:href="problem_8cc.html" target="_top" xlink:title=" ">
<polygon fill="white" stroke="#666666" points="949.25,-20.75 838,-20.75 838,0 949.25,0 949.25,-20.75"/>
<text text-anchor="middle" x="893.62" y="-7.25" font-family="Helvetica,sans-Serif" font-size="10.00">src/core/problem.cc</text>
</a>
</g>
</g>
<!-- Node3&#45;&gt;Node4 -->
<g id="edge3_Node000003_Node000004" class="edge">
<title>Node3&#45;&gt;Node4</title>
<g id="a_edge3_Node000003_Node000004"><a xlink:title=" ">
<path fill="none" stroke="#63b8ff" d="M893.62,-184.16C893.62,-138.82 893.62,-50.17 893.62,-20.96"/>
<polygon fill="#63b8ff" stroke="#63b8ff" points="890.13,-183.95 893.63,-193.95 897.13,-183.95 890.13,-183.95"/>
</a>
</g>
</g>
<!-- Node5&#45;&gt;Node3 -->
<g id="edge5_Node000005_Node000003" class="edge">
<title>Node5&#45;&gt;Node3</title>
<g id="a_edge5_Node000005_Node000003"><a xlink:title=" ">
<path fill="none" stroke="#63b8ff" d="M562.06,-534.75C534.93,-503.74 496.97,-448.75 520.62,-404.25 522.25,-401.2 723.51,-266.74 726.62,-265.25 760.43,-249.04 800.48,-236.43 832.89,-227.72"/>
<polygon fill="#63b8ff" stroke="#63b8ff" points="559.39,-537.01 568.69,-542.07 564.58,-532.31 559.39,-537.01"/>
</a>
</g>
</g>
<!-- Node6&#45;&gt;Node2 -->
<g id="edge46_Node000006_Node000002" class="edge">
<title>Node6&#45;&gt;Node2</title>
<g id="a_edge46_Node000006_Node000002"><a xlink:title=" ">
<path fill="none" stroke="#63b8ff" d="M943.28,-531.41C941.64,-514.36 941.45,-492.28 947.62,-473.75 953.95,-454.78 965.86,-455.73 974.62,-437.75 985.71,-415.01 992.06,-386.17 995.17,-368.54"/>
<polygon fill="#63b8ff" stroke="#63b8ff" points="939.8,-531.79 944.47,-541.3 946.75,-530.96 939.8,-531.79"/>
</a>
</g>
</g>
<!-- Node6&#45;&gt;Node4 -->
<g id="edge52_Node000006_Node000004" class="edge">
<title>Node6&#45;&gt;Node4</title>
<g id="a_edge52_Node000006_Node000004"><a xlink:title=" ">
<path fill="none" stroke="#63b8ff" d="M1047.08,-549.24C1121.61,-540.59 1216.39,-526.37 1250.62,-507.25 1294.69,-482.65 1325.62,-472.46 1325.62,-422 1325.62,-422 1325.62,-422 1325.62,-142 1325.62,-64.33 1066.55,-28.62 949.66,-16.46"/>
<polygon fill="#63b8ff" stroke="#63b8ff" points="1046.82,-545.74 1037.28,-550.35 1047.61,-552.7 1046.82,-545.74"/>
</a>
</g>
</g>
<!-- Node7 -->
<g id="Node000007" class="node">
<title>Node7</title>
<g id="a_Node000007"><a xlink:href="pde__operator__base_8h.html" target="_top" xlink:title=" ">
<polygon fill="white" stroke="#666666" points="720.12,-507.25 599.12,-507.25 599.12,-473.75 720.12,-473.75 720.12,-507.25"/>
<text text-anchor="start" x="607.12" y="-493.75" font-family="Helvetica,sans-Serif" font-size="10.00">include/prismspf/core</text>
<text text-anchor="middle" x="659.62" y="-481" font-family="Helvetica,sans-Serif" font-size="10.00">/pde_operator_base.h</text>
</a>
</g>
</g>
<!-- Node6&#45;&gt;Node7 -->
<g id="edge7_Node000006_Node000007" class="edge">
<title>Node6&#45;&gt;Node7</title>
<g id="a_edge7_Node000006_Node000007"><a xlink:title=" ">
<path fill="none" stroke="#63b8ff" d="M867.65,-540.26C821,-529.32 763.09,-515.75 720.23,-505.7"/>
<polygon fill="#63b8ff" stroke="#63b8ff" points="866.63,-543.61 877.17,-542.49 868.23,-536.8 866.63,-543.61"/>
</a>
</g>
</g>
<!-- Node17 -->
<g id="Node000017" class="node">
<title>Node17</title>
<g id="a_Node000017"><a xlink:href="solve__context_8h.html" target="_top" xlink:title=" ">
<polygon fill="white" stroke="#666666" points="965.25,-437.75 830,-437.75 830,-404.25 965.25,-404.25 965.25,-437.75"/>
<text text-anchor="start" x="838" y="-424.25" font-family="Helvetica,sans-Serif" font-size="10.00">include/prismspf/solvers</text>
<text text-anchor="middle" x="897.62" y="-411.5" font-family="Helvetica,sans-Serif" font-size="10.00">/solve_context.h</text>
</a>
</g>
</g>
<!-- Node6&#45;&gt;Node17 -->
<g id="edge47_Node000006_Node000017" class="edge">
<title>Node6&#45;&gt;Node17</title>
<g id="a_edge47_Node000006_Node000017"><a xlink:title=" ">
<path fill="none" stroke="#63b8ff" d="M915.88,-535.24C907.72,-527.33 900.01,-517.81 895.62,-507.25 886.25,-484.69 889.79,-455.8 893.49,-438.11"/>
<polygon fill="#63b8ff" stroke="#63b8ff" points="913.51,-537.82 923.3,-541.87 918.18,-532.6 913.51,-537.82"/>
</a>
</g>
</g>
<!-- Node19 -->
<g id="Node000019" class="node">
<title>Node19</title>
<g id="a_Node000019"><a xlink:href="solution__output_8h.html" target="_top" xlink:title=" ">
<polygon fill="white" stroke="#666666" points="1212.12,-368.25 1091.12,-368.25 1091.12,-334.75 1212.12,-334.75 1212.12,-368.25"/>
<text text-anchor="start" x="1099.12" y="-354.75" font-family="Helvetica,sans-Serif" font-size="10.00">include/prismspf/core</text>
<text text-anchor="middle" x="1151.62" y="-342" font-family="Helvetica,sans-Serif" font-size="10.00">/solution_output.h</text>
</a>
</g>
</g>
<!-- Node6&#45;&gt;Node19 -->
<g id="edge45_Node000006_Node000019" class="edge">
<title>Node6&#45;&gt;Node19</title>
<g id="a_edge45_Node000006_Node000019"><a xlink:title=" ">
<path fill="none" stroke="#63b8ff" d="M1047.33,-553.99C1119.16,-548.05 1207.36,-535.15 1230.62,-507.25 1267.62,-462.88 1205.06,-398.3 1171.19,-368.57"/>
<polygon fill="#63b8ff" stroke="#63b8ff" points="1047.16,-550.5 1037.46,-554.77 1047.71,-557.47 1047.16,-550.5"/>
</a>
</g>
</g>
<!-- Node21 -->
<g id="Node000021" class="node">
<title>Node21</title>
<g id="a_Node000021"><a xlink:href="solver__base_8h.html" target="_top" xlink:title=" ">
<polygon fill="white" stroke="#666666" points="473.25,-368.25 338,-368.25 338,-334.75 473.25,-334.75 473.25,-368.25"/>
<text text-anchor="start" x="346" y="-354.75" font-family="Helvetica,sans-Serif" font-size="10.00">include/prismspf/solvers</text>
<text text-anchor="middle" x="405.62" y="-342" font-family="Helvetica,sans-Serif" font-size="10.00">/solver_base.h</text>
</a>
</g>
</g>
<!-- Node6&#45;&gt;Node21 -->
<g id="edge48_Node000006_Node000021" class="edge">
<title>Node6&#45;&gt;Node21</title>
<g id="a_edge48_Node000006_Node000021"><a xlink:title=" ">
<path fill="none" stroke="#63b8ff" d="M848.08,-552.54C775.5,-545.93 675.43,-532.82 590.62,-507.25 521.43,-486.39 494.15,-489.42 443.62,-437.75 424.48,-418.17 414.05,-387.29 409.17,-368.56"/>
<polygon fill="#63b8ff" stroke="#63b8ff" points="847.71,-556.03 857.97,-553.42 848.32,-549.05 847.71,-556.03"/>
</a>
</g>
</g>
<!-- Node26 -->
<g id="Node000026" class="node">
<title>Node26</title>
<g id="a_Node000026"><a xlink:href="periodic__distance_8h.html" target="_top" xlink:title=" ">
<polygon fill="white" stroke="#666666" points="1158,-437.75 1021.25,-437.75 1021.25,-404.25 1158,-404.25 1158,-437.75"/>
<text text-anchor="start" x="1029.25" y="-424.25" font-family="Helvetica,sans-Serif" font-size="10.00">include/prismspf/utilities</text>
<text text-anchor="middle" x="1089.62" y="-411.5" font-family="Helvetica,sans-Serif" font-size="10.00">/periodic_distance.h</text>
</a>
</g>
</g>
<!-- Node6&#45;&gt;Node26 -->
<g id="edge49_Node000006_Node000026" class="edge">
<title>Node6&#45;&gt;Node26</title>
<g id="a_edge49_Node000006_Node000026"><a xlink:title=" ">
<path fill="none" stroke="#63b8ff" d="M947.46,-531.59C948.74,-513.32 953.21,-489.81 966.62,-473.75 980.59,-457.04 1000.88,-445.62 1020.97,-437.86"/>
<polygon fill="#63b8ff" stroke="#63b8ff" points="943.97,-531.33 947.08,-541.46 950.97,-531.6 943.97,-531.33"/>
</a>
</g>
</g>
<!-- Node27 -->
<g id="Node000027" class="node">
<title>Node27</title>
<g id="a_Node000027"><a xlink:href="constraint__manager_8cc.html" target="_top" xlink:title=" ">
<polygon fill="white" stroke="#666666" points="1081.62,-507.25 975.62,-507.25 975.62,-473.75 1081.62,-473.75 1081.62,-507.25"/>
<text text-anchor="start" x="983.62" y="-493.75" font-family="Helvetica,sans-Serif" font-size="10.00">src/core/constraint</text>
<text text-anchor="middle" x="1028.62" y="-481" font-family="Helvetica,sans-Serif" font-size="10.00">_manager.cc</text>
</a>
</g>
</g>
<!-- Node6&#45;&gt;Node27 -->
<g id="edge51_Node000006_Node000027" class="edge">
<title>Node6&#45;&gt;Node27</title>
<g id="a_edge51_Node000006_Node000027"><a xlink:title=" ">
<path fill="none" stroke="#63b8ff" d="M975.39,-535.86C986.55,-526.56 999.15,-516.06 1009.29,-507.62"/>
<polygon fill="#63b8ff" stroke="#63b8ff" points="973.43,-532.94 967.98,-542.03 977.91,-538.32 973.43,-532.94"/>
</a>
</g>
</g>
<!-- Node28 -->
<g id="Node000028" class="node">
<title>Node28</title>
<g id="a_Node000028"><a xlink:href="user__input__parameters_8cc.html" target="_top" xlink:title=" ">
<polygon fill="white" stroke="#666666" points="1221.12,-507.25 1100.12,-507.25 1100.12,-473.75 1221.12,-473.75 1221.12,-507.25"/>
<text text-anchor="start" x="1108.12" y="-493.75" font-family="Helvetica,sans-Serif" font-size="10.00">src/user_inputs/user</text>
<text text-anchor="middle" x="1160.62" y="-481" font-family="Helvetica,sans-Serif" font-size="10.00">_input_parameters.cc</text>
</a>
</g>
</g>
<!-- Node6&#45;&gt;Node28 -->
<g id="edge53_Node000006_Node000028" class="edge">
<title>Node6&#45;&gt;Node28</title>
<g id="a_edge53_Node000006_Node000028"><a xlink:title=" ">
<path fill="none" stroke="#63b8ff" d="M1009.59,-539.36C1041.37,-529.29 1079.61,-517.17 1109.65,-507.65"/>
<polygon fill="#63b8ff" stroke="#63b8ff" points="1008.56,-536.02 1000.09,-542.37 1010.68,-542.69 1008.56,-536.02"/>
</a>
</g>
</g>
<!-- Node8 -->
<g id="Node000008" class="node">
<title>Node8</title>
<g id="a_Node000008"><a xlink:href="mf__operator_8h.html" target="_top" xlink:title=" ">
<polygon fill="white" stroke="#666666" points="569.25,-298.75 434,-298.75 434,-265.25 569.25,-265.25 569.25,-298.75"/>
<text text-anchor="start" x="442" y="-285.25" font-family="Helvetica,sans-Serif" font-size="10.00">include/prismspf/solvers</text>
<text text-anchor="middle" x="501.62" y="-272.5" font-family="Helvetica,sans-Serif" font-size="10.00">/mf_operator.h</text>
</a>
</g>
</g>
<!-- Node7&#45;&gt;Node8 -->
<g id="edge8_Node000007_Node000008" class="edge">
<title>Node7&#45;&gt;Node8</title>
<g id="a_edge8_Node000007_Node000008"><a xlink:title=" ">
<path fill="none" stroke="#63b8ff" d="M587.8,-478.5C562.88,-471.06 537.1,-458.61 520.62,-437.75 488.25,-396.75 493.89,-329.61 498.63,-299.05"/>
<polygon fill="#63b8ff" stroke="#63b8ff" points="586.74,-481.84 597.31,-481.08 588.57,-475.08 586.74,-481.84"/>
</a>
</g>
</g>
<!-- Node7&#45;&gt;Node17 -->
<g id="edge22_Node000007_Node000017" class="edge">
<title>Node7&#45;&gt;Node17</title>
<g id="a_edge22_Node000007_Node000017"><a xlink:title=" ">
<path fill="none" stroke="#63b8ff" d="M727.47,-470.26C763.26,-460.11 806.66,-447.8 840.67,-438.15"/>
<polygon fill="#63b8ff" stroke="#63b8ff" points="726.75,-466.82 718.09,-472.92 728.66,-473.56 726.75,-466.82"/>
</a>
</g>
</g>
<!-- Node7&#45;&gt;Node21 -->
<g id="edge42_Node000007_Node000021" class="edge">
<title>Node7&#45;&gt;Node21</title>
<g id="a_edge42_Node000007_Node000021"><a xlink:title=" ">
<path fill="none" stroke="#63b8ff" d="M587.62,-476.52C555.42,-468.59 517.97,-456.3 487.62,-437.75 457.84,-419.55 431.45,-387.93 417.08,-368.74"/>
<polygon fill="#63b8ff" stroke="#63b8ff" points="586.76,-479.91 597.29,-478.8 588.36,-473.1 586.76,-479.91"/>
</a>
</g>
</g>
<!-- Node24 -->
<g id="Node000024" class="node">
<title>Node24</title>
<g id="a_Node000024"><a xlink:href="dirichlet_8cc.html" target="_top" xlink:title=" ">
<polygon fill="white" stroke="#666666" points="639.88,-431.38 529.38,-431.38 529.38,-410.62 639.88,-410.62 639.88,-431.38"/>
<text text-anchor="middle" x="584.62" y="-417.88" font-family="Helvetica,sans-Serif" font-size="10.00">src/core/dirichlet.cc</text>
</a>
</g>
</g>
<!-- Node7&#45;&gt;Node24 -->
<g id="edge43_Node000007_Node000024" class="edge">
<title>Node7&#45;&gt;Node24</title>
<g id="a_edge43_Node000007_Node000024"><a xlink:title=" ">
<path fill="none" stroke="#63b8ff" d="M633.65,-466.12C620.6,-454.38 605.5,-440.78 595.54,-431.82"/>
<polygon fill="#63b8ff" stroke="#63b8ff" points="630.95,-468.4 640.73,-472.49 635.63,-463.2 630.95,-468.4"/>
</a>
</g>
</g>
<!-- Node25 -->
<g id="Node000025" class="node">
<title>Node25</title>
<g id="a_Node000025"><a xlink:href="initial__conditions_8cc.html" target="_top" xlink:title=" ">
<polygon fill="white" stroke="#666666" points="811.62,-431.38 657.62,-431.38 657.62,-410.62 811.62,-410.62 811.62,-431.38"/>
<text text-anchor="middle" x="734.62" y="-417.88" font-family="Helvetica,sans-Serif" font-size="10.00">src/core/initial_conditions.cc</text>
</a>
</g>
</g>
<!-- Node7&#45;&gt;Node25 -->
<g id="edge44_Node000007_Node000025" class="edge">
<title>Node7&#45;&gt;Node25</title>
<g id="a_edge44_Node000007_Node000025"><a xlink:title=" ">
<path fill="none" stroke="#63b8ff" d="M685.6,-466.12C698.65,-454.38 713.75,-440.78 723.71,-431.82"/>
<polygon fill="#63b8ff" stroke="#63b8ff" points="683.62,-463.2 678.52,-472.49 688.3,-468.4 683.62,-463.2"/>
</a>
</g>
</g>
<!-- Node9 -->
<g id="Node000009" class="node">
<title>Node9</title>
<g id="a_Node000009"><a xlink:href="explicit__solver_8h.html" target="_top" xlink:title=" ">
<polygon fill="white" stroke="#666666" points="776.25,-229.25 641,-229.25 641,-195.75 776.25,-195.75 776.25,-229.25"/>
<text text-anchor="start" x="649" y="-215.75" font-family="Helvetica,sans-Serif" font-size="10.00">include/prismspf/solvers</text>
<text text-anchor="middle" x="708.62" y="-203" font-family="Helvetica,sans-Serif" font-size="10.00">/explicit_solver.h</text>
</a>
</g>
</g>
<!-- Node8&#45;&gt;Node9 -->
<g id="edge9_Node000008_Node000009" class="edge">
<title>Node8&#45;&gt;Node9</title>
<g id="a_edge9_Node000008_Node000009"><a xlink:title=" ">
<path fill="none" stroke="#63b8ff" d="M561.85,-261.36C592.73,-251.29 629.89,-239.17 659.09,-229.65"/>
<polygon fill="#63b8ff" stroke="#63b8ff" points="561.07,-257.94 552.65,-264.36 563.24,-264.59 561.07,-257.94"/>
</a>
</g>
</g>
<!-- Node12 -->
<g id="Node000012" class="node">
<title>Node12</title>
<g id="a_Node000012"><a xlink:href="linear__helper_8h.html" target="_top" xlink:title=" ">
<polygon fill="white" stroke="#666666" points="230.25,-229.25 95,-229.25 95,-195.75 230.25,-195.75 230.25,-229.25"/>
<text text-anchor="start" x="103" y="-215.75" font-family="Helvetica,sans-Serif" font-size="10.00">include/prismspf/solvers</text>
<text text-anchor="middle" x="162.62" y="-203" font-family="Helvetica,sans-Serif" font-size="10.00">/linear_helper.h</text>
</a>
</g>
</g>
<!-- Node8&#45;&gt;Node12 -->
<g id="edge13_Node000008_Node000012" class="edge">
<title>Node8&#45;&gt;Node12</title>
<g id="a_edge13_Node000008_Node000012"><a xlink:title=" ">
<path fill="none" stroke="#63b8ff" d="M422.79,-264.69C352.03,-250.43 281.04,-236.51 230.5,-226.66"/>
<polygon fill="#63b8ff" stroke="#63b8ff" points="421.7,-268.04 432.2,-266.58 423.09,-261.18 421.7,-268.04"/>
</a>
</g>
</g>
<!-- Node13 -->
<g id="Node000013" class="node">
<title>Node13</title>
<g id="a_Node000013"><a xlink:href="linear__solver_8h.html" target="_top" xlink:title=" ">
<polygon fill="white" stroke="#666666" points="422.25,-229.25 287,-229.25 287,-195.75 422.25,-195.75 422.25,-229.25"/>
<text text-anchor="start" x="295" y="-215.75" font-family="Helvetica,sans-Serif" font-size="10.00">include/prismspf/solvers</text>
<text text-anchor="middle" x="354.62" y="-203" font-family="Helvetica,sans-Serif" font-size="10.00">/linear_solver.h</text>
</a>
</g>
</g>
<!-- Node8&#45;&gt;Node13 -->
<g id="edge14_Node000008_Node000013" class="edge">
<title>Node8&#45;&gt;Node13</title>
<g id="a_edge14_Node000008_Node000013"><a xlink:title=" ">
<path fill="none" stroke="#63b8ff" d="M455.96,-260.03C434.63,-250.24 409.63,-238.76 389.8,-229.65"/>
<polygon fill="#63b8ff" stroke="#63b8ff" points="454.49,-263.21 465.04,-264.2 457.41,-256.85 454.49,-263.21"/>
</a>
</g>
</g>
<!-- Node14 -->
<g id="Node000014" class="node">
<title>Node14</title>
<g id="a_Node000014"><a xlink:href="mg__solver_8h.html" target="_top" xlink:title=" ">
<polygon fill="white" stroke="#666666" points="518.25,-159.75 383,-159.75 383,-126.25 518.25,-126.25 518.25,-159.75"/>
<text text-anchor="start" x="391" y="-146.25" font-family="Helvetica,sans-Serif" font-size="10.00">include/prismspf/solvers</text>
<text text-anchor="middle" x="450.62" y="-133.5" font-family="Helvetica,sans-Serif" font-size="10.00">/mg_solver.h</text>
</a>
</g>
</g>
<!-- Node8&#45;&gt;Node14 -->
<g id="edge19_Node000008_Node000014" class="edge">
<title>Node8&#45;&gt;Node14</title>
<g id="a_edge19_Node000008_Node000014"><a xlink:title=" ">
<path fill="none" stroke="#63b8ff" d="M483.46,-255.42C478.39,-247.35 473.27,-238.19 469.62,-229.25 460.25,-206.22 455.09,-177.71 452.59,-160.19"/>
<polygon fill="#63b8ff" stroke="#63b8ff" points="480.5,-257.29 488.93,-263.71 486.35,-253.44 480.5,-257.29"/>
</a>
</g>
</g>
<!-- Node15 -->
<g id="Node000015" class="node">
<title>Node15</title>
<g id="a_Node000015"><a xlink:href="newton__solver_8h.html" target="_top" xlink:title=" ">
<polygon fill="white" stroke="#666666" points="326.25,-159.75 191,-159.75 191,-126.25 326.25,-126.25 326.25,-159.75"/>
<text text-anchor="start" x="199" y="-146.25" font-family="Helvetica,sans-Serif" font-size="10.00">include/prismspf/solvers</text>
<text text-anchor="middle" x="258.62" y="-133.5" font-family="Helvetica,sans-Serif" font-size="10.00">/newton_solver.h</text>
</a>
</g>
</g>
<!-- Node8&#45;&gt;Node15 -->
<g id="edge20_Node000008_Node000015" class="edge">
<title>Node8&#45;&gt;Node15</title>
<g id="a_edge20_Node000008_Node000015"><a xlink:title=" ">
<path fill="none" stroke="#63b8ff" d="M422.52,-263.75C359.13,-249.76 280.3,-231.95 277.62,-229.25 259.47,-210.95 257.05,-179.36 257.47,-160.2"/>
<polygon fill="#63b8ff" stroke="#63b8ff" points="421.75,-267.16 432.27,-265.89 423.26,-260.33 421.75,-267.16"/>
</a>
</g>
</g>
<!-- Node16 -->
<g id="Node000016" class="node">
<title>Node16</title>
<g id="a_Node000016"><a xlink:href="mf__operator_8cc.html" target="_top" xlink:title=" ">
<polygon fill="white" stroke="#666666" points="622.75,-222.88 478.5,-222.88 478.5,-202.12 622.75,-202.12 622.75,-222.88"/>
<text text-anchor="middle" x="550.62" y="-209.38" font-family="Helvetica,sans-Serif" font-size="10.00">src/solvers/mf_operator.cc</text>
</a>
</g>
</g>
<!-- Node8&#45;&gt;Node16 -->
<g id="edge21_Node000008_Node000016" class="edge">
<title>Node8&#45;&gt;Node16</title>
<g id="a_edge21_Node000008_Node000016"><a xlink:title=" ">
<path fill="none" stroke="#63b8ff" d="M519.82,-255.93C528.05,-244.6 537.3,-231.86 543.5,-223.32"/>
<polygon fill="#63b8ff" stroke="#63b8ff" points="517.17,-253.63 514.13,-263.78 522.83,-257.74 517.17,-253.63"/>
</a>
</g>
</g>
<!-- Node10 -->
<g id="Node000010" class="node">
<title>Node10</title>
<g id="a_Node000010"><a xlink:href="solvers_8h.html" target="_top" xlink:title=" ">
<polygon fill="white" stroke="#666666" points="422.25,-90.25 287,-90.25 287,-56.75 422.25,-56.75 422.25,-90.25"/>
<text text-anchor="start" x="295" y="-76.75" font-family="Helvetica,sans-Serif" font-size="10.00">include/prismspf/solvers</text>
<text text-anchor="middle" x="354.62" y="-64" font-family="Helvetica,sans-Serif" font-size="10.00">/solvers.h</text>
</a>
</g>
</g>
<!-- Node9&#45;&gt;Node10 -->
<g id="edge10_Node000009_Node000010" class="edge">
<title>Node9&#45;&gt;Node10</title>
<g id="a_edge10_Node000009_Node000010"><a xlink:title=" ">
<path fill="none" stroke="#63b8ff" d="M667.69,-190.06C631.5,-171.63 576.93,-145.12 527.62,-126.25 491.61,-112.47 450.27,-99.99 417.03,-90.73"/>
<polygon fill="#63b8ff" stroke="#63b8ff" points="666.01,-193.13 676.5,-194.58 669.2,-186.9 666.01,-193.13"/>
</a>
</g>
</g>
<!-- Node10&#45;&gt;Node4 -->
<g id="edge11_Node000010_Node000004" class="edge">
<title>Node10&#45;&gt;Node4</title>
<g id="a_edge11_Node000010_Node000004"><a xlink:title=" ">
<path fill="none" stroke="#63b8ff" d="M434,-63.5C544.38,-50.98 741.47,-28.63 837.69,-17.72"/>
<polygon fill="#63b8ff" stroke="#63b8ff" points="433.66,-60.01 424.12,-64.62 434.45,-66.97 433.66,-60.01"/>
</a>
</g>
</g>
<!-- Node11 -->
<g id="Node000011" class="node">
<title>Node11</title>
<g id="a_Node000011"><a xlink:href="solvers_8cc.html" target="_top" xlink:title=" ">
<polygon fill="white" stroke="#666666" points="414.75,-20.75 294.5,-20.75 294.5,0 414.75,0 414.75,-20.75"/>
<text text-anchor="middle" x="354.62" y="-7.25" font-family="Helvetica,sans-Serif" font-size="10.00">src/solvers/solvers.cc</text>
</a>
</g>
</g>
<!-- Node10&#45;&gt;Node11 -->
<g id="edge12_Node000010_Node000011" class="edge">
<title>Node10&#45;&gt;Node11</title>
<g id="a_edge12_Node000010_Node000011"><a xlink:title=" ">
<path fill="none" stroke="#63b8ff" d="M354.62,-44.94C354.62,-36.46 354.62,-27.67 354.62,-21.22"/>
<polygon fill="#63b8ff" stroke="#63b8ff" points="351.13,-44.93 354.63,-54.93 358.13,-44.93 351.13,-44.93"/>
</a>
</g>
</g>
<!-- Node13&#45;&gt;Node10 -->
<g id="edge18_Node000013_Node000010" class="edge">
<title>Node13&#45;&gt;Node10</title>
<g id="a_edge18_Node000013_Node000010"><a xlink:title=" ">
<path fill="none" stroke="#63b8ff" d="M354.62,-184.12C354.62,-156.04 354.62,-113.32 354.62,-90.38"/>
<polygon fill="#63b8ff" stroke="#63b8ff" points="351.13,-184 354.63,-194 358.13,-184 351.13,-184"/>
</a>
</g>
</g>
<!-- Node13&#45;&gt;Node14 -->
<g id="edge15_Node000013_Node000014" class="edge">
<title>Node13&#45;&gt;Node14</title>
<g id="a_edge15_Node000013_Node000014"><a xlink:title=" ">
<path fill="none" stroke="#63b8ff" d="M386.75,-188.91C400.17,-179.48 415.45,-168.73 427.7,-160.12"/>
<polygon fill="#63b8ff" stroke="#63b8ff" points="384.78,-186.02 378.61,-194.63 388.81,-191.74 384.78,-186.02"/>
</a>
</g>
</g>
<!-- Node13&#45;&gt;Node15 -->
<g id="edge16_Node000013_Node000015" class="edge">
<title>Node13&#45;&gt;Node15</title>
<g id="a_edge16_Node000013_Node000015"><a xlink:title=" ">
<path fill="none" stroke="#63b8ff" d="M322.5,-188.91C309.08,-179.48 293.8,-168.73 281.55,-160.12"/>
<polygon fill="#63b8ff" stroke="#63b8ff" points="320.44,-191.74 330.64,-194.63 324.47,-186.02 320.44,-191.74"/>
</a>
</g>
</g>
<!-- Node15&#45;&gt;Node10 -->
<g id="edge17_Node000015_Node000010" class="edge">
<title>Node15&#45;&gt;Node10</title>
<g id="a_edge17_Node000015_Node000010"><a xlink:title=" ">
<path fill="none" stroke="#63b8ff" d="M290.75,-119.41C304.17,-109.98 319.45,-99.23 331.7,-90.62"/>
<polygon fill="#63b8ff" stroke="#63b8ff" points="288.78,-116.52 282.61,-125.13 292.81,-122.24 288.78,-116.52"/>
</a>
</g>
</g>
<!-- Node17&#45;&gt;Node2 -->
<g id="edge30_Node000017_Node000002" class="edge">
<title>Node17&#45;&gt;Node2</title>
<g id="a_edge30_Node000017_Node000002"><a xlink:title=" ">
<path fill="none" stroke="#63b8ff" d="M930.93,-397.52C944.99,-388.03 961.04,-377.2 973.87,-368.54"/>
<polygon fill="#63b8ff" stroke="#63b8ff" points="929.16,-394.49 922.83,-402.99 933.08,-400.29 929.16,-394.49"/>
</a>
</g>
</g>
<!-- Node17&#45;&gt;Node3 -->
<g id="edge23_Node000017_Node000003" class="edge">
<title>Node17&#45;&gt;Node3</title>
<g id="a_edge23_Node000017_Node000003"><a xlink:title=" ">
<path fill="none" stroke="#63b8ff" d="M897.09,-392.34C896.24,-348.59 894.62,-264.77 893.94,-229.63"/>
<polygon fill="#63b8ff" stroke="#63b8ff" points="893.59,-392.35 897.28,-402.28 900.59,-392.22 893.59,-392.35"/>
</a>
</g>
</g>
<!-- Node18 -->
<g id="Node000018" class="node">
<title>Node18</title>
<g id="a_Node000018"><a xlink:href="refinement__manager_8h.html" target="_top" xlink:title=" ">
<polygon fill="white" stroke="#666666" points="865.25,-298.75 736,-298.75 736,-265.25 865.25,-265.25 865.25,-298.75"/>
<text text-anchor="start" x="744" y="-285.25" font-family="Helvetica,sans-Serif" font-size="10.00">include/prismspf/core</text>
<text text-anchor="middle" x="800.62" y="-272.5" font-family="Helvetica,sans-Serif" font-size="10.00">/refinement_manager.h</text>
</a>
</g>
</g>
<!-- Node17&#45;&gt;Node18 -->
<g id="edge24_Node000017_Node000018" class="edge">
<title>Node17&#45;&gt;Node18</title>
<g id="a_edge24_Node000017_Node000018"><a xlink:title=" ">
<path fill="none" stroke="#63b8ff" d="M879.82,-394.86C860,-366.85 828.55,-322.44 811.87,-298.88"/>
<polygon fill="#63b8ff" stroke="#63b8ff" points="876.8,-396.64 885.43,-402.78 882.51,-392.6 876.8,-396.64"/>
</a>
</g>
</g>
<!-- Node17&#45;&gt;Node19 -->
<g id="edge26_Node000017_Node000019" class="edge">
<title>Node17&#45;&gt;Node19</title>
<g id="a_edge26_Node000017_Node000019"><a xlink:title=" ">
<path fill="none" stroke="#63b8ff" d="M969.54,-400.89C1007.82,-390.72 1054.39,-378.34 1090.84,-368.65"/>
<polygon fill="#63b8ff" stroke="#63b8ff" points="968.69,-397.49 959.93,-403.44 970.49,-404.26 968.69,-397.49"/>
</a>
</g>
</g>
<!-- Node17&#45;&gt;Node21 -->
<g id="edge31_Node000017_Node000021" class="edge">
<title>Node17&#45;&gt;Node21</title>
<g id="a_edge31_Node000017_Node000021"><a xlink:title=" ">
<path fill="none" stroke="#63b8ff" d="M818.51,-403.98C690.77,-383.32 553.45,-367.73 473.43,-359.32"/>
<polygon fill="#63b8ff" stroke="#63b8ff" points="817.73,-407.4 828.16,-405.56 818.86,-400.49 817.73,-407.4"/>
</a>
</g>
</g>
<!-- Node18&#45;&gt;Node3 -->
<g id="edge25_Node000018_Node000003" class="edge">
<title>Node18&#45;&gt;Node3</title>
<g id="a_edge25_Node000018_Node000003"><a xlink:title=" ">
<path fill="none" stroke="#63b8ff" d="M831.74,-258.41C844.74,-248.98 859.55,-238.23 871.42,-229.62"/>
<polygon fill="#63b8ff" stroke="#63b8ff" points="829.93,-255.41 823.89,-264.11 834.04,-261.07 829.93,-255.41"/>
</a>
</g>
</g>
<!-- Node19&#45;&gt;Node4 -->
<g id="edge28_Node000019_Node000004" class="edge">
<title>Node19&#45;&gt;Node4</title>
<g id="a_edge28_Node000019_Node000004"><a xlink:title=" ">
<path fill="none" stroke="#63b8ff" d="M1107.25,-328.74C1067.9,-305.96 1016.62,-266.18 1016.62,-213.5 1016.62,-213.5 1016.62,-213.5 1016.62,-142 1016.62,-82.82 948.87,-39.53 913.94,-21.14"/>
<polygon fill="#63b8ff" stroke="#63b8ff" points="1105.45,-331.74 1115.89,-333.56 1108.86,-325.63 1105.45,-331.74"/>
</a>
</g>
</g>
<!-- Node19&#45;&gt;Node19 -->
<g id="edge27_Node000019_Node000019" class="edge">
<title>Node19&#45;&gt;Node19</title>
<g id="a_edge27_Node000019_Node000019"><a xlink:title=" ">
<path fill="none" stroke="#63b8ff" d="M1223.34,-360.45C1227.58,-358.31 1230.12,-355.33 1230.12,-351.5 1230.12,-345.05 1222.92,-341 1212.52,-339.33"/>
<polygon fill="#63b8ff" stroke="#63b8ff" points="1222.56,-357.04 1213.97,-363.23 1224.55,-363.75 1222.56,-357.04"/>
</a>
</g>
</g>
<!-- Node20 -->
<g id="Node000020" class="node">
<title>Node20</title>
<g id="a_Node000020"><a xlink:href="solution__output_8cc.html" target="_top" xlink:title=" ">
<polygon fill="white" stroke="#666666" points="1224.88,-292.38 1078.38,-292.38 1078.38,-271.62 1224.88,-271.62 1224.88,-292.38"/>
<text text-anchor="middle" x="1151.62" y="-278.88" font-family="Helvetica,sans-Serif" font-size="10.00">src/core/solution_output.cc</text>
</a>
</g>
</g>
<!-- Node19&#45;&gt;Node20 -->
<g id="edge29_Node000019_Node000020" class="edge">
<title>Node19&#45;&gt;Node20</title>
<g id="a_edge29_Node000019_Node000020"><a xlink:title=" ">
<path fill="none" stroke="#63b8ff" d="M1151.62,-323.03C1151.62,-312.33 1151.62,-300.76 1151.62,-292.82"/>
<polygon fill="#63b8ff" stroke="#63b8ff" points="1148.13,-322.99 1151.63,-332.99 1155.13,-322.99 1148.13,-322.99"/>
</a>
</g>
</g>
<!-- Node21&#45;&gt;Node4 -->
<g id="edge40_Node000021_Node000004" class="edge">
<title>Node21&#45;&gt;Node4</title>
<g id="a_edge40_Node000021_Node000004"><a xlink:title=" ">
<path fill="none" stroke="#63b8ff" d="M484.8,-337.56C526.23,-329.28 577.23,-316.67 620.62,-298.75 647.08,-287.82 649.63,-277.23 675.62,-265.25 722.35,-243.73 746.73,-262.91 785.62,-229.25 854.89,-169.3 884.33,-54.43 891.69,-20.83"/>
<polygon fill="#63b8ff" stroke="#63b8ff" points="484.29,-334.09 475.14,-339.44 485.63,-340.97 484.29,-334.09"/>
</a>
</g>
</g>
<!-- Node21&#45;&gt;Node8 -->
<g id="edge38_Node000021_Node000008" class="edge">
<title>Node21&#45;&gt;Node8</title>
<g id="a_edge38_Node000021_Node000008"><a xlink:title=" ">
<path fill="none" stroke="#63b8ff" d="M437.75,-327.91C451.17,-318.48 466.45,-307.73 478.7,-299.12"/>
<polygon fill="#63b8ff" stroke="#63b8ff" points="435.78,-325.02 429.61,-333.63 439.81,-330.74 435.78,-325.02"/>
</a>
</g>
</g>
<!-- Node21&#45;&gt;Node9 -->
<g id="edge35_Node000021_Node000009" class="edge">
<title>Node21&#45;&gt;Node9</title>
<g id="a_edge35_Node000021_Node000009"><a xlink:title=" ">
<path fill="none" stroke="#63b8ff" d="M484.34,-332.14C514.55,-323.76 548.88,-312.59 578.62,-298.75 619.98,-279.51 663.39,-248.52 688.12,-229.68"/>
<polygon fill="#63b8ff" stroke="#63b8ff" points="483.62,-328.71 474.88,-334.7 485.45,-335.46 483.62,-328.71"/>
</a>
</g>
</g>
<!-- Node21&#45;&gt;Node12 -->
<g id="edge36_Node000021_Node000012" class="edge">
<title>Node21&#45;&gt;Node12</title>
<g id="a_edge36_Node000021_Node000012"><a xlink:title=" ">
<path fill="none" stroke="#63b8ff" d="M358.78,-329.5C339.57,-320.52 317.28,-309.61 297.62,-298.75 257.36,-276.49 212.55,-247.25 186.02,-229.45"/>
<polygon fill="#63b8ff" stroke="#63b8ff" points="357.17,-332.62 367.72,-333.65 360.12,-326.27 357.17,-332.62"/>
</a>
</g>
</g>
<!-- Node21&#45;&gt;Node13 -->
<g id="edge37_Node000021_Node000013" class="edge">
<title>Node21&#45;&gt;Node13</title>
<g id="a_edge37_Node000021_Node000013"><a xlink:title=" ">
<path fill="none" stroke="#63b8ff" d="M339.55,-329.26C326.08,-321.78 313.6,-311.85 305.62,-298.75 291.16,-274.98 314.98,-246.92 334.2,-229.67"/>
<polygon fill="#63b8ff" stroke="#63b8ff" points="337.63,-332.21 348.13,-333.59 340.79,-325.96 337.63,-332.21"/>
</a>
</g>
</g>
<!-- Node21&#45;&gt;Node15 -->
<g id="edge39_Node000021_Node000015" class="edge">
<title>Node21&#45;&gt;Node15</title>
<g id="a_edge39_Node000021_Node000015"><a xlink:title=" ">
<path fill="none" stroke="#63b8ff" d="M326.69,-345.86C249.88,-336.58 137.41,-309.22 85.62,-229.25 56.64,-184.49 130.66,-162.43 190.75,-152.15"/>
<polygon fill="#63b8ff" stroke="#63b8ff" points="325.92,-349.3 336.25,-346.93 326.71,-342.34 325.92,-349.3"/>
</a>
</g>
</g>
<!-- Node21&#45;&gt;Node18 -->
<g id="edge32_Node000021_Node000018" class="edge">
<title>Node21&#45;&gt;Node18</title>
<g id="a_edge32_Node000021_Node000018"><a xlink:title=" ">
<path fill="none" stroke="#63b8ff" d="M484.58,-337.01C558.23,-324.42 666.78,-305.87 735.57,-294.12"/>
<polygon fill="#63b8ff" stroke="#63b8ff" points="484.29,-333.51 475.02,-338.64 485.47,-340.41 484.29,-333.51"/>
</a>
</g>
</g>
<!-- Node22 -->
<g id="Node000022" class="node">
<title>Node22</title>
<g id="a_Node000022"><a xlink:href="constant__solver_8h.html" target="_top" xlink:title=" ">
<polygon fill="white" stroke="#666666" points="135.25,-159.75 0,-159.75 0,-126.25 135.25,-126.25 135.25,-159.75"/>
<text text-anchor="start" x="8" y="-146.25" font-family="Helvetica,sans-Serif" font-size="10.00">include/prismspf/solvers</text>
<text text-anchor="middle" x="67.62" y="-133.5" font-family="Helvetica,sans-Serif" font-size="10.00">/constant_solver.h</text>
</a>
</g>
</g>
<!-- Node21&#45;&gt;Node22 -->
<g id="edge33_Node000021_Node000022" class="edge">
<title>Node21&#45;&gt;Node22</title>
<g id="a_edge33_Node000021_Node000022"><a xlink:title=" ">
<path fill="none" stroke="#63b8ff" d="M326.38,-343.89C252.5,-336.4 148.86,-322.1 115.62,-298.75 70.29,-266.89 66.3,-192.42 66.87,-159.79"/>
<polygon fill="#63b8ff" stroke="#63b8ff" points="325.71,-347.34 336.01,-344.84 326.4,-340.37 325.71,-347.34"/>
</a>
</g>
</g>
<!-- Node23 -->
<g id="Node000023" class="node">
<title>Node23</title>
<g id="a_Node000023"><a xlink:href="solver__base_8cc.html" target="_top" xlink:title=" ">
<polygon fill="white" stroke="#666666" points="416.38,-298.75 314.88,-298.75 314.88,-265.25 416.38,-265.25 416.38,-298.75"/>
<text text-anchor="start" x="322.88" y="-285.25" font-family="Helvetica,sans-Serif" font-size="10.00">src/solvers/solver</text>
<text text-anchor="middle" x="365.62" y="-272.5" font-family="Helvetica,sans-Serif" font-size="10.00">_base.cc</text>
</a>
</g>
</g>
<!-- Node21&#45;&gt;Node23 -->
<g id="edge41_Node000021_Node000023" class="edge">
<title>Node21&#45;&gt;Node23</title>
<g id="a_edge41_Node000021_Node000023"><a xlink:title=" ">
<path fill="none" stroke="#63b8ff" d="M390.38,-324.78C385.22,-316.07 379.61,-306.6 375.04,-298.88"/>
<polygon fill="#63b8ff" stroke="#63b8ff" points="387.26,-326.38 395.37,-333.2 393.29,-322.81 387.26,-326.38"/>
</a>
</g>
</g>
<!-- Node22&#45;&gt;Node10 -->
<g id="edge34_Node000022_Node000010" class="edge">
<title>Node22&#45;&gt;Node10</title>
<g id="a_edge34_Node000022_Node000010"><a xlink:title=" ">
<path fill="none" stroke="#63b8ff" d="M146.57,-123.43C190.48,-113.11 244.58,-100.38 286.6,-90.5"/>
<polygon fill="#63b8ff" stroke="#63b8ff" points="146.05,-119.96 137.11,-125.66 147.65,-126.77 146.05,-119.96"/>
</a>
</g>
</g>
<!-- Node26&#45;&gt;Node2 -->
<g id="edge50_Node000026_Node000002" class="edge">
<title>Node26&#45;&gt;Node2</title>
<g id="a_edge50_Node000026_Node000002"><a xlink:title=" ">
<path fill="none" stroke="#63b8ff" d="M1058.84,-397.41C1045.98,-387.98 1031.33,-377.23 1019.59,-368.62"/>
<polygon fill="#63b8ff" stroke="#63b8ff" points="1056.47,-400.01 1066.6,-403.11 1060.61,-394.37 1056.47,-400.01"/>
</a>
</g>
</g>
</g>
</svg>
