<?xml version="1.0" encoding="UTF-8" standalone="no"?>
<!DOCTYPE svg PUBLIC "-//W3C//DTD SVG 1.1//EN"
 "http://www.w3.org/Graphics/SVG/1.1/DTD/svg11.dtd">
<!-- Generated by graphviz version 12.2.1 (20241206.2353)
 -->
<!-- Title: include/prismspf/nucleation/nucleus.h Pages: 1 -->
<svg width="1507pt" height="724pt"
 viewBox="0.00 0.00 1507.12 723.75" xmlns="http://www.w3.org/2000/svg" xmlns:xlink="http://www.w3.org/1999/xlink">
<g id="graph0" class="graph" transform="scale(1 1) rotate(0) translate(4 719.75)">
<title>include/prismspf/nucleation/nucleus.h</title>
<!-- Node1 -->
<g id="Node000001" class="node">
<title>Node1</title>
<g id="a_Node000001"><a xlink:title=" ">
<polygon fill="#999999" stroke="#666666" points="1319.12,-715.75 1168.12,-715.75 1168.12,-682.25 1319.12,-682.25 1319.12,-715.75"/>
<text text-anchor="start" x="1176.12" y="-702.25" font-family="Helvetica,sans-Serif" font-size="10.00">include/prismspf/nucleation</text>
<text text-anchor="middle" x="1243.62" y="-689.5" font-family="Helvetica,sans-Serif" font-size="10.00">/nucleus.h</text>
</a>
</g>
</g>
<!-- Node2 -->
<g id="Node000002" class="node">
<title>Node2</title>
<g id="a_Node000002"><a xlink:href="phase__field__tools_8h.html" target="_top" xlink:title=" ">
<polygon fill="white" stroke="#666666" points="723.12,-576.75 602.12,-576.75 602.12,-543.25 723.12,-543.25 723.12,-576.75"/>
<text text-anchor="start" x="610.12" y="-563.25" font-family="Helvetica,sans-Serif" font-size="10.00">include/prismspf/core</text>
<text text-anchor="middle" x="662.62" y="-550.5" font-family="Helvetica,sans-Serif" font-size="10.00">/phase_field_tools.h</text>
</a>
</g>
</g>
<!-- Node1&#45;&gt;Node2 -->
<g id="edge1_Node000001_Node000002" class="edge">
<title>Node1&#45;&gt;Node2</title>
<g id="a_edge1_Node000001_Node000002"><a xlink:title=" ">
<path fill="none" stroke="#63b8ff" d="M1163.93,-679.21C1046.45,-651.51 829.31,-600.31 723.62,-575.38"/>
<polygon fill="#63b8ff" stroke="#63b8ff" points="1162.97,-682.58 1173.51,-681.47 1164.58,-675.76 1162.97,-682.58"/>
</a>
</g>
</g>
<!-- Node18 -->
<g id="Node000018" class="node">
<title>Node18</title>
<g id="a_Node000018"><a xlink:href="nucleation__manager_8h.html" target="_top" xlink:title=" ">
<polygon fill="white" stroke="#666666" points="1175.12,-368.25 1024.12,-368.25 1024.12,-334.75 1175.12,-334.75 1175.12,-368.25"/>
<text text-anchor="start" x="1032.12" y="-354.75" font-family="Helvetica,sans-Serif" font-size="10.00">include/prismspf/nucleation</text>
<text text-anchor="middle" x="1099.62" y="-342" font-family="Helvetica,sans-Serif" font-size="10.00">/nucleation_manager.h</text>
</a>
</g>
</g>
<!-- Node1&#45;&gt;Node18 -->
<g id="edge42_Node000001_Node000018" class="edge">
<title>Node1&#45;&gt;Node18</title>
<g id="a_edge42_Node000001_Node000018"><a xlink:title=" ">
<path fill="none" stroke="#63b8ff" d="M1265.79,-673.07C1272.03,-664.97 1278.29,-655.65 1282.62,-646.25 1298.9,-611.01 1301.62,-599.82 1301.62,-561 1301.62,-561 1301.62,-561 1301.62,-489.5 1301.62,-423.5 1226.85,-387.1 1168.29,-368.71"/>
<polygon fill="#63b8ff" stroke="#63b8ff" points="1263.14,-670.79 1259.55,-680.76 1268.57,-675.2 1263.14,-670.79"/>
</a>
</g>
</g>
<!-- Node25 -->
<g id="Node000025" class="node">
<title>Node25</title>
<g id="a_Node000025"><a xlink:href="nucleus__refinement__function_8h.html" target="_top" xlink:title=" ">
<polygon fill="white" stroke="#666666" points="1499.12,-576.75 1330.12,-576.75 1330.12,-543.25 1499.12,-543.25 1499.12,-576.75"/>
<text text-anchor="start" x="1338.12" y="-563.25" font-family="Helvetica,sans-Serif" font-size="10.00">include/prismspf/nucleation</text>
<text text-anchor="middle" x="1414.62" y="-550.5" font-family="Helvetica,sans-Serif" font-size="10.00">/nucleus_refinement_function.h</text>
</a>
</g>
</g>
<!-- Node1&#45;&gt;Node25 -->
<g id="edge43_Node000001_Node000025" class="edge">
<title>Node1&#45;&gt;Node25</title>
<g id="a_edge43_Node000001_Node000025"><a xlink:title=" ">
<path fill="none" stroke="#63b8ff" d="M1276.19,-675.51C1288.7,-666.63 1303,-656.19 1315.62,-646.25 1344.85,-623.24 1377.26,-594.72 1396.78,-577.2"/>
<polygon fill="#63b8ff" stroke="#63b8ff" points="1274.43,-672.47 1268.27,-681.09 1278.46,-678.19 1274.43,-672.47"/>
</a>
</g>
</g>
<!-- Node26 -->
<g id="Node000026" class="node">
<title>Node26</title>
<g id="a_Node000026"><a xlink:href="nucleation__parameters_8h.html" target="_top" xlink:title=" ">
<polygon fill="white" stroke="#666666" points="1273.5,-646.25 1097.75,-646.25 1097.75,-612.75 1273.5,-612.75 1273.5,-646.25"/>
<text text-anchor="start" x="1105.75" y="-632.75" font-family="Helvetica,sans-Serif" font-size="10.00">include/prismspf/user</text>
<text text-anchor="middle" x="1185.62" y="-620" font-family="Helvetica,sans-Serif" font-size="10.00">_inputs/nucleation_parameters.h</text>
</a>
</g>
</g>
<!-- Node1&#45;&gt;Node26 -->
<g id="edge45_Node000001_Node000026" class="edge">
<title>Node1&#45;&gt;Node26</title>
<g id="a_edge45_Node000001_Node000026"><a xlink:title=" ">
<path fill="none" stroke="#63b8ff" d="M1222.49,-673.41C1214.75,-664.39 1206.19,-654.43 1199.27,-646.38"/>
<polygon fill="#63b8ff" stroke="#63b8ff" points="1219.72,-675.55 1228.89,-680.86 1225.03,-670.99 1219.72,-675.55"/>
</a>
</g>
</g>
<!-- Node3 -->
<g id="Node000003" class="node">
<title>Node3</title>
<g id="a_Node000003"><a xlink:href="pde__operator__base_8h.html" target="_top" xlink:title=" ">
<polygon fill="white" stroke="#666666" points="681.12,-507.25 560.12,-507.25 560.12,-473.75 681.12,-473.75 681.12,-507.25"/>
<text text-anchor="start" x="568.12" y="-493.75" font-family="Helvetica,sans-Serif" font-size="10.00">include/prismspf/core</text>
<text text-anchor="middle" x="620.62" y="-481" font-family="Helvetica,sans-Serif" font-size="10.00">/pde_operator_base.h</text>
</a>
</g>
</g>
<!-- Node2&#45;&gt;Node3 -->
<g id="edge2_Node000002_Node000003" class="edge">
<title>Node2&#45;&gt;Node3</title>
<g id="a_edge2_Node000002_Node000003"><a xlink:title=" ">
<path fill="none" stroke="#63b8ff" d="M646.62,-533.28C641.2,-524.57 635.31,-515.1 630.51,-507.38"/>
<polygon fill="#63b8ff" stroke="#63b8ff" points="643.62,-535.08 651.87,-541.72 649.56,-531.38 643.62,-535.08"/>
</a>
</g>
</g>
<!-- Node2&#45;&gt;Node18 -->
<g id="edge40_Node000002_Node000018" class="edge">
<title>Node2&#45;&gt;Node18</title>
<g id="a_edge40_Node000002_Node000018"><a xlink:title=" ">
<path fill="none" stroke="#63b8ff" d="M709.56,-538.02C756.99,-515.91 831.52,-478.68 890.62,-437.75 909.14,-424.93 908.96,-415.21 928.62,-404.25 958.03,-387.87 993.22,-376.08 1024.02,-367.93"/>
<polygon fill="#63b8ff" stroke="#63b8ff" points="708.26,-534.76 700.65,-542.13 711.2,-541.11 708.26,-534.76"/>
</a>
</g>
</g>
<!-- Node24 -->
<g id="Node000024" class="node">
<title>Node24</title>
<g id="a_Node000024"><a xlink:href="phase__field__tools_8cc.html" target="_top" xlink:title=" ">
<polygon fill="white" stroke="#666666" points="542,-507.25 429.25,-507.25 429.25,-473.75 542,-473.75 542,-507.25"/>
<text text-anchor="start" x="437.25" y="-493.75" font-family="Helvetica,sans-Serif" font-size="10.00">src/core/phase_field</text>
<text text-anchor="middle" x="485.62" y="-481" font-family="Helvetica,sans-Serif" font-size="10.00">_tools.cc</text>
</a>
</g>
</g>
<!-- Node2&#45;&gt;Node24 -->
<g id="edge41_Node000002_Node000024" class="edge">
<title>Node2&#45;&gt;Node24</title>
<g id="a_edge41_Node000002_Node000024"><a xlink:title=" ">
<path fill="none" stroke="#63b8ff" d="M609.74,-538.83C583.61,-528.87 552.51,-517.01 527.98,-507.65"/>
<polygon fill="#63b8ff" stroke="#63b8ff" points="608.22,-542 618.81,-542.29 610.72,-535.46 608.22,-542"/>
</a>
</g>
</g>
<!-- Node4 -->
<g id="Node000004" class="node">
<title>Node4</title>
<g id="a_Node000004"><a xlink:href="mf__operator_8h.html" target="_top" xlink:title=" ">
<polygon fill="white" stroke="#666666" points="444.25,-298.75 309,-298.75 309,-265.25 444.25,-265.25 444.25,-298.75"/>
<text text-anchor="start" x="317" y="-285.25" font-family="Helvetica,sans-Serif" font-size="10.00">include/prismspf/solvers</text>
<text text-anchor="middle" x="376.62" y="-272.5" font-family="Helvetica,sans-Serif" font-size="10.00">/mf_operator.h</text>
</a>
</g>
</g>
<!-- Node3&#45;&gt;Node4 -->
<g id="edge3_Node000003_Node000004" class="edge">
<title>Node3&#45;&gt;Node4</title>
<g id="a_edge3_Node000003_Node000004"><a xlink:title=" ">
<path fill="none" stroke="#63b8ff" d="M548.69,-473.61C474.25,-460.81 433.84,-491.27 387.62,-437.75 353.48,-398.2 364.77,-329.72 372.24,-298.87"/>
<polygon fill="#63b8ff" stroke="#63b8ff" points="547.95,-477.03 558.44,-475.53 549.3,-470.16 547.95,-477.03"/>
</a>
</g>
</g>
<!-- Node13 -->
<g id="Node000013" class="node">
<title>Node13</title>
<g id="a_Node000013"><a xlink:href="solve__context_8h.html" target="_top" xlink:title=" ">
<polygon fill="white" stroke="#666666" points="881.25,-437.75 746,-437.75 746,-404.25 881.25,-404.25 881.25,-437.75"/>
<text text-anchor="start" x="754" y="-424.25" font-family="Helvetica,sans-Serif" font-size="10.00">include/prismspf/solvers</text>
<text text-anchor="middle" x="813.62" y="-411.5" font-family="Helvetica,sans-Serif" font-size="10.00">/solve_context.h</text>
</a>
</g>
</g>
<!-- Node3&#45;&gt;Node13 -->
<g id="edge16_Node000003_Node000013" class="edge">
<title>Node3&#45;&gt;Node13</title>
<g id="a_edge16_Node000003_Node000013"><a xlink:title=" ">
<path fill="none" stroke="#63b8ff" d="M677.53,-469.6C706.17,-459.58 740.45,-447.59 767.44,-438.15"/>
<polygon fill="#63b8ff" stroke="#63b8ff" points="676.57,-466.23 668.28,-472.83 678.88,-472.83 676.57,-466.23"/>
</a>
</g>
</g>
<!-- Node19 -->
<g id="Node000019" class="node">
<title>Node19</title>
<g id="a_Node000019"><a xlink:href="solver__base_8h.html" target="_top" xlink:title=" ">
<polygon fill="white" stroke="#666666" points="619.25,-368.25 484,-368.25 484,-334.75 619.25,-334.75 619.25,-368.25"/>
<text text-anchor="start" x="492" y="-354.75" font-family="Helvetica,sans-Serif" font-size="10.00">include/prismspf/solvers</text>
<text text-anchor="middle" x="551.62" y="-342" font-family="Helvetica,sans-Serif" font-size="10.00">/solver_base.h</text>
</a>
</g>
</g>
<!-- Node3&#45;&gt;Node19 -->
<g id="edge37_Node000003_Node000019" class="edge">
<title>Node3&#45;&gt;Node19</title>
<g id="a_edge37_Node000003_Node000019"><a xlink:title=" ">
<path fill="none" stroke="#63b8ff" d="M548.88,-473.32C484.48,-458.72 399.84,-439.28 398.62,-437.75 369.61,-401.19 430.4,-377.82 483.73,-364.97"/>
<polygon fill="#63b8ff" stroke="#63b8ff" points="547.83,-476.67 558.36,-475.47 549.38,-469.85 547.83,-476.67"/>
</a>
</g>
</g>
<!-- Node22 -->
<g id="Node000022" class="node">
<title>Node22</title>
<g id="a_Node000022"><a xlink:href="dirichlet_8cc.html" target="_top" xlink:title=" ">
<polygon fill="white" stroke="#666666" points="517.88,-431.38 407.38,-431.38 407.38,-410.62 517.88,-410.62 517.88,-431.38"/>
<text text-anchor="middle" x="462.62" y="-417.88" font-family="Helvetica,sans-Serif" font-size="10.00">src/core/dirichlet.cc</text>
</a>
</g>
</g>
<!-- Node3&#45;&gt;Node22 -->
<g id="edge38_Node000003_Node000022" class="edge">
<title>Node3&#45;&gt;Node22</title>
<g id="a_edge38_Node000003_Node000022"><a xlink:title=" ">
<path fill="none" stroke="#63b8ff" d="M572.47,-468.93C543.58,-456.58 508.16,-441.45 485.5,-431.77"/>
<polygon fill="#63b8ff" stroke="#63b8ff" points="570.82,-472.03 581.39,-472.74 573.57,-465.59 570.82,-472.03"/>
</a>
</g>
</g>
<!-- Node23 -->
<g id="Node000023" class="node">
<title>Node23</title>
<g id="a_Node000023"><a xlink:href="initial__conditions_8cc.html" target="_top" xlink:title=" ">
<polygon fill="white" stroke="#666666" points="689.62,-431.38 535.62,-431.38 535.62,-410.62 689.62,-410.62 689.62,-431.38"/>
<text text-anchor="middle" x="612.62" y="-417.88" font-family="Helvetica,sans-Serif" font-size="10.00">src/core/initial_conditions.cc</text>
</a>
</g>
</g>
<!-- Node3&#45;&gt;Node23 -->
<g id="edge39_Node000003_Node000023" class="edge">
<title>Node3&#45;&gt;Node23</title>
<g id="a_edge39_Node000003_Node000023"><a xlink:title=" ">
<path fill="none" stroke="#63b8ff" d="M617.41,-462.38C616.13,-451.58 614.74,-439.85 613.79,-431.82"/>
<polygon fill="#63b8ff" stroke="#63b8ff" points="613.9,-462.48 618.55,-472 620.85,-461.66 613.9,-462.48"/>
</a>
</g>
</g>
<!-- Node5 -->
<g id="Node000005" class="node">
<title>Node5</title>
<g id="a_Node000005"><a xlink:href="explicit__solver_8h.html" target="_top" xlink:title=" ">
<polygon fill="white" stroke="#666666" points="190.25,-229.25 55,-229.25 55,-195.75 190.25,-195.75 190.25,-229.25"/>
<text text-anchor="start" x="63" y="-215.75" font-family="Helvetica,sans-Serif" font-size="10.00">include/prismspf/solvers</text>
<text text-anchor="middle" x="122.62" y="-203" font-family="Helvetica,sans-Serif" font-size="10.00">/explicit_solver.h</text>
</a>
</g>
</g>
<!-- Node4&#45;&gt;Node5 -->
<g id="edge4_Node000004_Node000005" class="edge">
<title>Node4&#45;&gt;Node5</title>
<g id="a_edge4_Node000004_Node000005"><a xlink:title=" ">
<path fill="none" stroke="#63b8ff" d="M304.71,-261.89C266.43,-251.72 219.86,-239.34 183.41,-229.65"/>
<polygon fill="#63b8ff" stroke="#63b8ff" points="303.76,-265.26 314.32,-264.44 305.56,-258.49 303.76,-265.26"/>
</a>
</g>
</g>
<!-- Node9 -->
<g id="Node000009" class="node">
<title>Node9</title>
<g id="a_Node000009"><a xlink:href="linear__solver_8h.html" target="_top" xlink:title=" ">
<polygon fill="white" stroke="#666666" points="544.25,-229.25 409,-229.25 409,-195.75 544.25,-195.75 544.25,-229.25"/>
<text text-anchor="start" x="417" y="-215.75" font-family="Helvetica,sans-Serif" font-size="10.00">include/prismspf/solvers</text>
<text text-anchor="middle" x="476.62" y="-203" font-family="Helvetica,sans-Serif" font-size="10.00">/linear_solver.h</text>
</a>
</g>
</g>
<!-- Node4&#45;&gt;Node9 -->
<g id="edge8_Node000004_Node000009" class="edge">
<title>Node4&#45;&gt;Node9</title>
<g id="a_edge8_Node000004_Node000009"><a xlink:title=" ">
<path fill="none" stroke="#63b8ff" d="M409.93,-258.52C423.99,-249.03 440.04,-238.2 452.87,-229.54"/>
<polygon fill="#63b8ff" stroke="#63b8ff" points="408.16,-255.49 401.83,-263.99 412.08,-261.29 408.16,-255.49"/>
</a>
</g>
</g>
<!-- Node10 -->
<g id="Node000010" class="node">
<title>Node10</title>
<g id="a_Node000010"><a xlink:href="mg__solver_8h.html" target="_top" xlink:title=" ">
<polygon fill="white" stroke="#666666" points="448.25,-159.75 313,-159.75 313,-126.25 448.25,-126.25 448.25,-159.75"/>
<text text-anchor="start" x="321" y="-146.25" font-family="Helvetica,sans-Serif" font-size="10.00">include/prismspf/solvers</text>
<text text-anchor="middle" x="380.62" y="-133.5" font-family="Helvetica,sans-Serif" font-size="10.00">/mg_solver.h</text>
</a>
</g>
</g>
<!-- Node4&#45;&gt;Node10 -->
<g id="edge13_Node000004_Node000010" class="edge">
<title>Node4&#45;&gt;Node10</title>
<g id="a_edge13_Node000004_Node000010"><a xlink:title=" ">
<path fill="none" stroke="#63b8ff" d="M377.42,-253.62C378.24,-225.54 379.49,-182.82 380.16,-159.88"/>
<polygon fill="#63b8ff" stroke="#63b8ff" points="373.93,-253.41 377.14,-263.5 380.93,-253.61 373.93,-253.41"/>
</a>
</g>
</g>
<!-- Node11 -->
<g id="Node000011" class="node">
<title>Node11</title>
<g id="a_Node000011"><a xlink:href="newton__solver_8h.html" target="_top" xlink:title=" ">
<polygon fill="white" stroke="#666666" points="640.25,-159.75 505,-159.75 505,-126.25 640.25,-126.25 640.25,-159.75"/>
<text text-anchor="start" x="513" y="-146.25" font-family="Helvetica,sans-Serif" font-size="10.00">include/prismspf/solvers</text>
<text text-anchor="middle" x="572.62" y="-133.5" font-family="Helvetica,sans-Serif" font-size="10.00">/newton_solver.h</text>
</a>
</g>
</g>
<!-- Node4&#45;&gt;Node11 -->
<g id="edge14_Node000004_Node000011" class="edge">
<title>Node4&#45;&gt;Node11</title>
<g id="a_edge14_Node000004_Node000011"><a xlink:title=" ">
<path fill="none" stroke="#63b8ff" d="M455.7,-266.09C496.15,-256.91 539.74,-244.07 553.62,-229.25 571.25,-210.44 573.84,-179.02 573.6,-160.03"/>
<polygon fill="#63b8ff" stroke="#63b8ff" points="455.17,-262.63 446.16,-268.2 456.68,-269.46 455.17,-262.63"/>
</a>
</g>
</g>
<!-- Node12 -->
<g id="Node000012" class="node">
<title>Node12</title>
<g id="a_Node000012"><a xlink:href="mf__operator_8cc.html" target="_top" xlink:title=" ">
<polygon fill="white" stroke="#666666" points="352.75,-222.88 208.5,-222.88 208.5,-202.12 352.75,-202.12 352.75,-222.88"/>
<text text-anchor="middle" x="280.62" y="-209.38" font-family="Helvetica,sans-Serif" font-size="10.00">src/solvers/mf_operator.cc</text>
</a>
</g>
</g>
<!-- Node4&#45;&gt;Node12 -->
<g id="edge15_Node000004_Node000012" class="edge">
<title>Node4&#45;&gt;Node12</title>
<g id="a_edge15_Node000004_Node000012"><a xlink:title=" ">
<path fill="none" stroke="#63b8ff" d="M344.8,-258.62C327.79,-246.66 307.7,-232.54 294.59,-223.32"/>
<polygon fill="#63b8ff" stroke="#63b8ff" points="342.44,-261.24 352.64,-264.13 346.47,-255.52 342.44,-261.24"/>
</a>
</g>
</g>
<!-- Node6 -->
<g id="Node000006" class="node">
<title>Node6</title>
<g id="a_Node000006"><a xlink:href="solvers_8h.html" target="_top" xlink:title=" ">
<polygon fill="white" stroke="#666666" points="544.25,-90.25 409,-90.25 409,-56.75 544.25,-56.75 544.25,-90.25"/>
<text text-anchor="start" x="417" y="-76.75" font-family="Helvetica,sans-Serif" font-size="10.00">include/prismspf/solvers</text>
<text text-anchor="middle" x="476.62" y="-64" font-family="Helvetica,sans-Serif" font-size="10.00">/solvers.h</text>
</a>
</g>
</g>
<!-- Node5&#45;&gt;Node6 -->
<g id="edge5_Node000005_Node000006" class="edge">
<title>Node5&#45;&gt;Node6</title>
<g id="a_edge5_Node000005_Node000006"><a xlink:title=" ">
<path fill="none" stroke="#63b8ff" d="M163.56,-190.06C199.75,-171.63 254.32,-145.12 303.62,-126.25 339.64,-112.47 380.98,-99.99 414.22,-90.73"/>
<polygon fill="#63b8ff" stroke="#63b8ff" points="162.05,-186.9 154.75,-194.58 165.24,-193.13 162.05,-186.9"/>
</a>
</g>
</g>
<!-- Node7 -->
<g id="Node000007" class="node">
<title>Node7</title>
<g id="a_Node000007"><a xlink:href="problem_8cc.html" target="_top" xlink:title=" ">
<polygon fill="white" stroke="#666666" points="1012.25,-20.75 901,-20.75 901,0 1012.25,0 1012.25,-20.75"/>
<text text-anchor="middle" x="956.62" y="-7.25" font-family="Helvetica,sans-Serif" font-size="10.00">src/core/problem.cc</text>
</a>
</g>
</g>
<!-- Node6&#45;&gt;Node7 -->
<g id="edge6_Node000006_Node000007" class="edge">
<title>Node6&#45;&gt;Node7</title>
<g id="a_edge6_Node000006_Node000007"><a xlink:title=" ">
<path fill="none" stroke="#63b8ff" d="M555.88,-62.41C653.19,-50.02 815.77,-29.31 900.86,-18.48"/>
<polygon fill="#63b8ff" stroke="#63b8ff" points="555.61,-58.91 546.13,-63.65 556.5,-65.86 555.61,-58.91"/>
</a>
</g>
</g>
<!-- Node8 -->
<g id="Node000008" class="node">
<title>Node8</title>
<g id="a_Node000008"><a xlink:href="solvers_8cc.html" target="_top" xlink:title=" ">
<polygon fill="white" stroke="#666666" points="536.75,-20.75 416.5,-20.75 416.5,0 536.75,0 536.75,-20.75"/>
<text text-anchor="middle" x="476.62" y="-7.25" font-family="Helvetica,sans-Serif" font-size="10.00">src/solvers/solvers.cc</text>
</a>
</g>
</g>
<!-- Node6&#45;&gt;Node8 -->
<g id="edge7_Node000006_Node000008" class="edge">
<title>Node6&#45;&gt;Node8</title>
<g id="a_edge7_Node000006_Node000008"><a xlink:title=" ">
<path fill="none" stroke="#63b8ff" d="M476.62,-44.94C476.62,-36.46 476.62,-27.67 476.62,-21.22"/>
<polygon fill="#63b8ff" stroke="#63b8ff" points="473.13,-44.93 476.63,-54.93 480.13,-44.93 473.13,-44.93"/>
</a>
</g>
</g>
<!-- Node9&#45;&gt;Node6 -->
<g id="edge12_Node000009_Node000006" class="edge">
<title>Node9&#45;&gt;Node6</title>
<g id="a_edge12_Node000009_Node000006"><a xlink:title=" ">
<path fill="none" stroke="#63b8ff" d="M476.62,-184.12C476.62,-156.04 476.62,-113.32 476.62,-90.38"/>
<polygon fill="#63b8ff" stroke="#63b8ff" points="473.13,-184 476.63,-194 480.13,-184 473.13,-184"/>
</a>
</g>
</g>
<!-- Node9&#45;&gt;Node10 -->
<g id="edge9_Node000009_Node000010" class="edge">
<title>Node9&#45;&gt;Node10</title>
<g id="a_edge9_Node000009_Node000010"><a xlink:title=" ">
<path fill="none" stroke="#63b8ff" d="M444.5,-188.91C431.08,-179.48 415.8,-168.73 403.55,-160.12"/>
<polygon fill="#63b8ff" stroke="#63b8ff" points="442.44,-191.74 452.64,-194.63 446.47,-186.02 442.44,-191.74"/>
</a>
</g>
</g>
<!-- Node9&#45;&gt;Node11 -->
<g id="edge10_Node000009_Node000011" class="edge">
<title>Node9&#45;&gt;Node11</title>
<g id="a_edge10_Node000009_Node000011"><a xlink:title=" ">
<path fill="none" stroke="#63b8ff" d="M508.75,-188.91C522.17,-179.48 537.45,-168.73 549.7,-160.12"/>
<polygon fill="#63b8ff" stroke="#63b8ff" points="506.78,-186.02 500.61,-194.63 510.81,-191.74 506.78,-186.02"/>
</a>
</g>
</g>
<!-- Node11&#45;&gt;Node6 -->
<g id="edge11_Node000011_Node000006" class="edge">
<title>Node11&#45;&gt;Node6</title>
<g id="a_edge11_Node000011_Node000006"><a xlink:title=" ">
<path fill="none" stroke="#63b8ff" d="M540.5,-119.41C527.08,-109.98 511.8,-99.23 499.55,-90.62"/>
<polygon fill="#63b8ff" stroke="#63b8ff" points="538.44,-122.24 548.64,-125.13 542.47,-116.52 538.44,-122.24"/>
</a>
</g>
</g>
<!-- Node14 -->
<g id="Node000014" class="node">
<title>Node14</title>
<g id="a_Node000014"><a xlink:href="problem_8h.html" target="_top" xlink:title=" ">
<polygon fill="white" stroke="#666666" points="1017.12,-229.25 896.12,-229.25 896.12,-195.75 1017.12,-195.75 1017.12,-229.25"/>
<text text-anchor="start" x="904.12" y="-215.75" font-family="Helvetica,sans-Serif" font-size="10.00">include/prismspf/core</text>
<text text-anchor="middle" x="956.62" y="-203" font-family="Helvetica,sans-Serif" font-size="10.00">/problem.h</text>
</a>
</g>
</g>
<!-- Node13&#45;&gt;Node14 -->
<g id="edge17_Node000013_Node000014" class="edge">
<title>Node13&#45;&gt;Node14</title>
<g id="a_edge17_Node000013_Node000014"><a xlink:title=" ">
<path fill="none" stroke="#63b8ff" d="M818.68,-392.7C825.99,-359.5 842.2,-303.2 873.62,-265.25 886.08,-250.21 904.09,-238.24 920.16,-229.61"/>
<polygon fill="#63b8ff" stroke="#63b8ff" points="815.29,-391.83 816.69,-402.33 822.14,-393.24 815.29,-391.83"/>
</a>
</g>
</g>
<!-- Node15 -->
<g id="Node000015" class="node">
<title>Node15</title>
<g id="a_Node000015"><a xlink:href="refinement__manager_8h.html" target="_top" xlink:title=" ">
<polygon fill="white" stroke="#666666" points="826.25,-298.75 697,-298.75 697,-265.25 826.25,-265.25 826.25,-298.75"/>
<text text-anchor="start" x="705" y="-285.25" font-family="Helvetica,sans-Serif" font-size="10.00">include/prismspf/core</text>
<text text-anchor="middle" x="761.62" y="-272.5" font-family="Helvetica,sans-Serif" font-size="10.00">/refinement_manager.h</text>
</a>
</g>
</g>
<!-- Node13&#45;&gt;Node15 -->
<g id="edge19_Node000013_Node000015" class="edge">
<title>Node13&#45;&gt;Node15</title>
<g id="a_edge19_Node000013_Node000015"><a xlink:title=" ">
<path fill="none" stroke="#63b8ff" d="M803.52,-393.37C792.87,-365.31 776.44,-322.02 767.65,-298.88"/>
<polygon fill="#63b8ff" stroke="#63b8ff" points="800.2,-394.49 807.02,-402.6 806.74,-392.01 800.2,-394.49"/>
</a>
</g>
</g>
<!-- Node16 -->
<g id="Node000016" class="node">
<title>Node16</title>
<g id="a_Node000016"><a xlink:href="solution__output_8h.html" target="_top" xlink:title=" ">
<polygon fill="white" stroke="#666666" points="988.12,-368.25 867.12,-368.25 867.12,-334.75 988.12,-334.75 988.12,-368.25"/>
<text text-anchor="start" x="875.12" y="-354.75" font-family="Helvetica,sans-Serif" font-size="10.00">include/prismspf/core</text>
<text text-anchor="middle" x="927.62" y="-342" font-family="Helvetica,sans-Serif" font-size="10.00">/solution_output.h</text>
</a>
</g>
</g>
<!-- Node13&#45;&gt;Node16 -->
<g id="edge21_Node000013_Node000016" class="edge">
<title>Node13&#45;&gt;Node16</title>
<g id="a_edge21_Node000013_Node000016"><a xlink:title=" ">
<path fill="none" stroke="#63b8ff" d="M850.67,-398.07C866.91,-388.45 885.63,-377.36 900.54,-368.54"/>
<polygon fill="#63b8ff" stroke="#63b8ff" points="849.05,-394.95 842.23,-403.06 852.62,-400.98 849.05,-394.95"/>
</a>
</g>
</g>
<!-- Node13&#45;&gt;Node18 -->
<g id="edge25_Node000013_Node000018" class="edge">
<title>Node13&#45;&gt;Node18</title>
<g id="a_edge25_Node000013_Node000018"><a xlink:title=" ">
<path fill="none" stroke="#63b8ff" d="M892.49,-401.39C935.87,-391.15 989.17,-378.57 1030.85,-368.73"/>
<polygon fill="#63b8ff" stroke="#63b8ff" points="891.8,-397.95 882.88,-403.66 893.41,-404.77 891.8,-397.95"/>
</a>
</g>
</g>
<!-- Node13&#45;&gt;Node19 -->
<g id="edge27_Node000013_Node000019" class="edge">
<title>Node13&#45;&gt;Node19</title>
<g id="a_edge27_Node000013_Node000019"><a xlink:title=" ">
<path fill="none" stroke="#63b8ff" d="M739.95,-401.02C700.37,-390.82 652.09,-378.38 614.32,-368.65"/>
<polygon fill="#63b8ff" stroke="#63b8ff" points="738.85,-404.35 749.4,-403.45 740.59,-397.57 738.85,-404.35"/>
</a>
</g>
</g>
<!-- Node14&#45;&gt;Node7 -->
<g id="edge18_Node000014_Node000007" class="edge">
<title>Node14&#45;&gt;Node7</title>
<g id="a_edge18_Node000014_Node000007"><a xlink:title=" ">
<path fill="none" stroke="#63b8ff" d="M956.62,-184.16C956.62,-138.82 956.62,-50.17 956.62,-20.96"/>
<polygon fill="#63b8ff" stroke="#63b8ff" points="953.13,-183.95 956.63,-193.95 960.13,-183.95 953.13,-183.95"/>
</a>
</g>
</g>
<!-- Node15&#45;&gt;Node14 -->
<g id="edge20_Node000015_Node000014" class="edge">
<title>Node15&#45;&gt;Node14</title>
<g id="a_edge20_Node000015_Node000014"><a xlink:title=" ">
<path fill="none" stroke="#63b8ff" d="M819.12,-261.1C848.06,-251.08 882.69,-239.09 909.96,-229.65"/>
<polygon fill="#63b8ff" stroke="#63b8ff" points="818.07,-257.76 809.76,-264.34 820.36,-264.37 818.07,-257.76"/>
</a>
</g>
</g>
<!-- Node16&#45;&gt;Node7 -->
<g id="edge23_Node000016_Node000007" class="edge">
<title>Node16&#45;&gt;Node7</title>
<g id="a_edge23_Node000016_Node000007"><a xlink:title=" ">
<path fill="none" stroke="#63b8ff" d="M996.8,-330.93C1078.56,-305.71 1203.62,-259.59 1203.62,-213.5 1203.62,-213.5 1203.62,-213.5 1203.62,-142 1203.62,-56.14 1085.55,-26.56 1012.67,-16.49"/>
<polygon fill="#63b8ff" stroke="#63b8ff" points="995.82,-327.58 987.27,-333.84 997.85,-334.27 995.82,-327.58"/>
</a>
</g>
</g>
<!-- Node16&#45;&gt;Node16 -->
<g id="edge22_Node000016_Node000016" class="edge">
<title>Node16&#45;&gt;Node16</title>
<g id="a_edge22_Node000016_Node000016"><a xlink:title=" ">
<path fill="none" stroke="#63b8ff" d="M999.34,-360.45C1003.58,-358.31 1006.12,-355.33 1006.12,-351.5 1006.12,-345.05 998.92,-341 988.52,-339.33"/>
<polygon fill="#63b8ff" stroke="#63b8ff" points="998.56,-357.04 989.97,-363.23 1000.55,-363.75 998.56,-357.04"/>
</a>
</g>
</g>
<!-- Node17 -->
<g id="Node000017" class="node">
<title>Node17</title>
<g id="a_Node000017"><a xlink:href="solution__output_8cc.html" target="_top" xlink:title=" ">
<polygon fill="white" stroke="#666666" points="1028.88,-292.38 882.38,-292.38 882.38,-271.62 1028.88,-271.62 1028.88,-292.38"/>
<text text-anchor="middle" x="955.62" y="-278.88" font-family="Helvetica,sans-Serif" font-size="10.00">src/core/solution_output.cc</text>
</a>
</g>
</g>
<!-- Node16&#45;&gt;Node17 -->
<g id="edge24_Node000016_Node000017" class="edge">
<title>Node16&#45;&gt;Node17</title>
<g id="a_edge24_Node000016_Node000017"><a xlink:title=" ">
<path fill="none" stroke="#63b8ff" d="M938.59,-324.07C943.15,-313.08 948.15,-301.02 951.55,-292.82"/>
<polygon fill="#63b8ff" stroke="#63b8ff" points="935.44,-322.53 934.84,-333.11 941.91,-325.21 935.44,-322.53"/>
</a>
</g>
</g>
<!-- Node18&#45;&gt;Node14 -->
<g id="edge26_Node000018_Node000014" class="edge">
<title>Node18&#45;&gt;Node14</title>
<g id="a_edge26_Node000018_Node000014"><a xlink:title=" ">
<path fill="none" stroke="#63b8ff" d="M1084.52,-324.77C1073.13,-306.75 1056.31,-282.84 1037.62,-265.25 1022.8,-251.29 1003.71,-238.89 987.79,-229.72"/>
<polygon fill="#63b8ff" stroke="#63b8ff" points="1081.41,-326.38 1089.63,-333.06 1087.37,-322.71 1081.41,-326.38"/>
</a>
</g>
</g>
<!-- Node19&#45;&gt;Node4 -->
<g id="edge33_Node000019_Node000004" class="edge">
<title>Node19&#45;&gt;Node4</title>
<g id="a_edge33_Node000019_Node000004"><a xlink:title=" ">
<path fill="none" stroke="#63b8ff" d="M499,-330.2C473.23,-320.26 442.65,-308.47 418.5,-299.15"/>
<polygon fill="#63b8ff" stroke="#63b8ff" points="497.71,-333.45 508.3,-333.79 500.23,-326.92 497.71,-333.45"/>
</a>
</g>
</g>
<!-- Node19&#45;&gt;Node5 -->
<g id="edge31_Node000019_Node000005" class="edge">
<title>Node19&#45;&gt;Node5</title>
<g id="a_edge31_Node000019_Node000005"><a xlink:title=" ">
<path fill="none" stroke="#63b8ff" d="M472.44,-339.38C422.13,-331.06 356.08,-317.82 299.62,-298.75 244.69,-280.2 184.66,-248.69 150.53,-229.62"/>
<polygon fill="#63b8ff" stroke="#63b8ff" points="471.65,-342.8 482.09,-340.94 472.77,-335.89 471.65,-342.8"/>
</a>
</g>
</g>
<!-- Node19&#45;&gt;Node7 -->
<g id="edge35_Node000019_Node000007" class="edge">
<title>Node19&#45;&gt;Node7</title>
<g id="a_edge35_Node000019_Node000007"><a xlink:title=" ">
<path fill="none" stroke="#63b8ff" d="M593.86,-328.52C606.54,-320.43 619.7,-310.37 629.62,-298.75 656.69,-267.07 668.62,-255.17 668.62,-213.5 668.62,-213.5 668.62,-213.5 668.62,-142 668.62,-41.12 817,-17.76 900.75,-12.61"/>
<polygon fill="#63b8ff" stroke="#63b8ff" points="592.35,-325.34 585.62,-333.52 595.99,-331.33 592.35,-325.34"/>
</a>
</g>
</g>
<!-- Node19&#45;&gt;Node9 -->
<g id="edge32_Node000019_Node000009" class="edge">
<title>Node19&#45;&gt;Node9</title>
<g id="a_edge32_Node000019_Node000009"><a xlink:title=" ">
<path fill="none" stroke="#63b8ff" d="M516.67,-327.27C507.16,-319.31 497.8,-309.63 491.62,-298.75 479.3,-277.06 476.65,-247.65 476.31,-229.66"/>
<polygon fill="#63b8ff" stroke="#63b8ff" points="514.5,-330.01 524.53,-333.42 518.81,-324.5 514.5,-330.01"/>
</a>
</g>
</g>
<!-- Node19&#45;&gt;Node11 -->
<g id="edge34_Node000019_Node000011" class="edge">
<title>Node19&#45;&gt;Node11</title>
<g id="a_edge34_Node000019_Node000011"><a xlink:title=" ">
<path fill="none" stroke="#63b8ff" d="M588.27,-327.49C597.64,-319.62 606.5,-309.93 611.62,-298.75 633.55,-250.89 601.45,-188.83 583.44,-160.01"/>
<polygon fill="#63b8ff" stroke="#63b8ff" points="586.21,-324.65 580.44,-333.54 590.49,-330.19 586.21,-324.65"/>
</a>
</g>
</g>
<!-- Node19&#45;&gt;Node15 -->
<g id="edge28_Node000019_Node000015" class="edge">
<title>Node19&#45;&gt;Node15</title>
<g id="a_edge28_Node000019_Node000015"><a xlink:title=" ">
<path fill="none" stroke="#63b8ff" d="M612.72,-330.86C644.05,-320.79 681.75,-308.67 711.37,-299.15"/>
<polygon fill="#63b8ff" stroke="#63b8ff" points="611.82,-327.48 603.37,-333.87 613.96,-334.14 611.82,-327.48"/>
</a>
</g>
</g>
<!-- Node20 -->
<g id="Node000020" class="node">
<title>Node20</title>
<g id="a_Node000020"><a xlink:href="constant__solver_8h.html" target="_top" xlink:title=" ">
<polygon fill="white" stroke="#666666" points="135.25,-159.75 0,-159.75 0,-126.25 135.25,-126.25 135.25,-159.75"/>
<text text-anchor="start" x="8" y="-146.25" font-family="Helvetica,sans-Serif" font-size="10.00">include/prismspf/solvers</text>
<text text-anchor="middle" x="67.62" y="-133.5" font-family="Helvetica,sans-Serif" font-size="10.00">/constant_solver.h</text>
</a>
</g>
</g>
<!-- Node19&#45;&gt;Node20 -->
<g id="edge29_Node000019_Node000020" class="edge">
<title>Node19&#45;&gt;Node20</title>
<g id="a_edge29_Node000019_Node000020"><a xlink:title=" ">
<path fill="none" stroke="#63b8ff" d="M472.16,-344.16C341.96,-331.84 92.87,-299.45 45.62,-229.25 31.37,-208.07 45.08,-178.25 56.33,-160.07"/>
<polygon fill="#63b8ff" stroke="#63b8ff" points="471.83,-347.65 482.11,-345.08 472.48,-340.68 471.83,-347.65"/>
</a>
</g>
</g>
<!-- Node21 -->
<g id="Node000021" class="node">
<title>Node21</title>
<g id="a_Node000021"><a xlink:href="solver__base_8cc.html" target="_top" xlink:title=" ">
<polygon fill="white" stroke="#666666" points="602.38,-298.75 500.88,-298.75 500.88,-265.25 602.38,-265.25 602.38,-298.75"/>
<text text-anchor="start" x="508.88" y="-285.25" font-family="Helvetica,sans-Serif" font-size="10.00">src/solvers/solver</text>
<text text-anchor="middle" x="551.62" y="-272.5" font-family="Helvetica,sans-Serif" font-size="10.00">_base.cc</text>
</a>
</g>
</g>
<!-- Node19&#45;&gt;Node21 -->
<g id="edge36_Node000019_Node000021" class="edge">
<title>Node19&#45;&gt;Node21</title>
<g id="a_edge36_Node000019_Node000021"><a xlink:title=" ">
<path fill="none" stroke="#63b8ff" d="M551.62,-323.06C551.62,-314.84 551.62,-306.09 551.62,-298.88"/>
<polygon fill="#63b8ff" stroke="#63b8ff" points="548.13,-322.99 551.63,-332.99 555.13,-322.99 548.13,-322.99"/>
</a>
</g>
</g>
<!-- Node20&#45;&gt;Node6 -->
<g id="edge30_Node000020_Node000006" class="edge">
<title>Node20&#45;&gt;Node6</title>
<g id="a_edge30_Node000020_Node000006"><a xlink:title=" ">
<path fill="none" stroke="#63b8ff" d="M146.57,-128.97C222.69,-116.41 336.67,-97.6 408.81,-85.69"/>
<polygon fill="#63b8ff" stroke="#63b8ff" points="146.41,-125.45 137.12,-130.53 147.55,-132.36 146.41,-125.45"/>
</a>
</g>
</g>
<!-- Node25&#45;&gt;Node14 -->
<g id="edge44_Node000025_Node000014" class="edge">
<title>Node25&#45;&gt;Node14</title>
<g id="a_edge44_Node000025_Node000014"><a xlink:title=" ">
<path fill="none" stroke="#63b8ff" d="M1395.53,-534.47C1370.26,-502.72 1323.52,-446.49 1277.62,-404.25 1194.72,-327.95 1165.25,-317.87 1065.62,-265.25 1041.54,-252.53 1013.81,-239.39 992.35,-229.53"/>
<polygon fill="#63b8ff" stroke="#63b8ff" points="1392.48,-536.25 1401.43,-541.93 1397.97,-531.91 1392.48,-536.25"/>
</a>
</g>
</g>
<!-- Node26&#45;&gt;Node18 -->
<g id="edge46_Node000026_Node000018" class="edge">
<title>Node26&#45;&gt;Node18</title>
<g id="a_edge46_Node000026_Node000018"><a xlink:title=" ">
<path fill="none" stroke="#63b8ff" d="M1191.38,-601.69C1196.96,-570.19 1202.72,-516.77 1188.62,-473.75 1174.48,-430.57 1138.45,-390.07 1116.82,-368.56"/>
<polygon fill="#63b8ff" stroke="#63b8ff" points="1188.01,-600.65 1189.57,-611.13 1194.89,-601.97 1188.01,-600.65"/>
</a>
</g>
</g>
<!-- Node26&#45;&gt;Node25 -->
<g id="edge47_Node000026_Node000025" class="edge">
<title>Node26&#45;&gt;Node25</title>
<g id="a_edge47_Node000026_Node000025"><a xlink:title=" ">
<path fill="none" stroke="#63b8ff" d="M1251.35,-609.13C1285.7,-599 1327.24,-586.76 1359.82,-577.15"/>
<polygon fill="#63b8ff" stroke="#63b8ff" points="1250.53,-605.72 1241.93,-611.9 1252.51,-612.43 1250.53,-605.72"/>
</a>
</g>
</g>
<!-- Node27 -->
<g id="Node000027" class="node">
<title>Node27</title>
<g id="a_Node000027"><a xlink:href="user__input__parameters_8h.html" target="_top" xlink:title=" ">
<polygon fill="white" stroke="#666666" points="1014.5,-576.75 838.75,-576.75 838.75,-543.25 1014.5,-543.25 1014.5,-576.75"/>
<text text-anchor="start" x="846.75" y="-563.25" font-family="Helvetica,sans-Serif" font-size="10.00">include/prismspf/user</text>
<text text-anchor="middle" x="926.62" y="-550.5" font-family="Helvetica,sans-Serif" font-size="10.00">_inputs/user_input_parameters.h</text>
</a>
</g>
</g>
<!-- Node26&#45;&gt;Node27 -->
<g id="edge48_Node000026_Node000027" class="edge">
<title>Node26&#45;&gt;Node27</title>
<g id="a_edge48_Node000026_Node000027"><a xlink:title=" ">
<path fill="none" stroke="#63b8ff" d="M1112.54,-609.45C1073.46,-599.27 1025.86,-586.86 988.6,-577.15"/>
<polygon fill="#63b8ff" stroke="#63b8ff" points="1111.56,-612.82 1122.12,-611.95 1113.33,-606.04 1111.56,-612.82"/>
</a>
</g>
</g>
<!-- Node27&#45;&gt;Node3 -->
<g id="edge49_Node000027_Node000003" class="edge">
<title>Node27&#45;&gt;Node3</title>
<g id="a_edge49_Node000027_Node000003"><a xlink:title=" ">
<path fill="none" stroke="#63b8ff" d="M842.33,-540.41C791.36,-529.16 727.54,-515.09 681.49,-504.93"/>
<polygon fill="#63b8ff" stroke="#63b8ff" points="841.33,-543.77 851.85,-542.51 842.84,-536.93 841.33,-543.77"/>
</a>
</g>
</g>
<!-- Node27&#45;&gt;Node7 -->
<g id="edge57_Node000027_Node000007" class="edge">
<title>Node27&#45;&gt;Node7</title>
<g id="a_edge57_Node000027_Node000007"><a xlink:title=" ">
<path fill="none" stroke="#63b8ff" d="M1026.36,-550.45C1090.27,-542.93 1165.44,-529.59 1188.62,-507.25 1262.37,-436.19 1241.62,-385.41 1241.62,-283 1241.62,-283 1241.62,-283 1241.62,-142 1241.62,-42.26 1095.59,-18.38 1012.59,-12.86"/>
<polygon fill="#63b8ff" stroke="#63b8ff" points="1026.03,-546.96 1016.49,-551.57 1026.82,-553.92 1026.03,-546.96"/>
</a>
</g>
</g>
<!-- Node27&#45;&gt;Node13 -->
<g id="edge52_Node000027_Node000013" class="edge">
<title>Node27&#45;&gt;Node13</title>
<g id="a_edge52_Node000027_Node000013"><a xlink:title=" ">
<path fill="none" stroke="#63b8ff" d="M893.53,-536.03C882.91,-527.71 871.59,-517.76 862.62,-507.25 844.23,-485.69 829.09,-456.25 820.72,-438.21"/>
<polygon fill="#63b8ff" stroke="#63b8ff" points="891.31,-538.74 901.4,-541.98 895.53,-533.15 891.31,-538.74"/>
</a>
</g>
</g>
<!-- Node27&#45;&gt;Node16 -->
<g id="edge50_Node000027_Node000016" class="edge">
<title>Node27&#45;&gt;Node16</title>
<g id="a_edge50_Node000027_Node000016"><a xlink:title=" ">
<path fill="none" stroke="#63b8ff" d="M1026.04,-550.29C1084.5,-542.87 1150.45,-529.73 1168.62,-507.25 1226,-436.31 1077.3,-387.56 988.47,-365.63"/>
<polygon fill="#63b8ff" stroke="#63b8ff" points="1025.85,-546.79 1016.34,-551.47 1026.69,-553.73 1025.85,-546.79"/>
</a>
</g>
</g>
<!-- Node27&#45;&gt;Node18 -->
<g id="edge51_Node000027_Node000018" class="edge">
<title>Node27&#45;&gt;Node18</title>
<g id="a_edge51_Node000027_Node000018"><a xlink:title=" ">
<path fill="none" stroke="#63b8ff" d="M909.05,-532.98C899.05,-514.63 890.97,-490.44 904.62,-473.75 955.73,-411.28 1025.63,-494.9 1082.62,-437.75 1100.74,-419.58 1102.29,-387.95 1101.29,-368.75"/>
<polygon fill="#63b8ff" stroke="#63b8ff" points="905.96,-534.63 914.08,-541.45 911.99,-531.06 905.96,-534.63"/>
</a>
</g>
</g>
<!-- Node27&#45;&gt;Node19 -->
<g id="edge53_Node000027_Node000019" class="edge">
<title>Node27&#45;&gt;Node19</title>
<g id="a_edge53_Node000027_Node000019"><a xlink:title=" ">
<path fill="none" stroke="#63b8ff" d="M887.02,-537.55C870.87,-528.53 852.15,-517.72 835.62,-507.25 790.21,-478.49 778.85,-471.02 736.62,-437.75 718.94,-423.82 718.04,-415.64 698.62,-404.25 672.49,-388.92 641.08,-377.1 614.02,-368.65"/>
<polygon fill="#63b8ff" stroke="#63b8ff" points="884.93,-540.4 895.37,-542.18 888.32,-534.28 884.93,-540.4"/>
</a>
</g>
</g>
<!-- Node28 -->
<g id="Node000028" class="node">
<title>Node28</title>
<g id="a_Node000028"><a xlink:href="periodic__distance_8h.html" target="_top" xlink:title=" ">
<polygon fill="white" stroke="#666666" points="1074,-437.75 937.25,-437.75 937.25,-404.25 1074,-404.25 1074,-437.75"/>
<text text-anchor="start" x="945.25" y="-424.25" font-family="Helvetica,sans-Serif" font-size="10.00">include/prismspf/utilities</text>
<text text-anchor="middle" x="1005.62" y="-411.5" font-family="Helvetica,sans-Serif" font-size="10.00">/periodic_distance.h</text>
</a>
</g>
</g>
<!-- Node27&#45;&gt;Node28 -->
<g id="edge54_Node000027_Node000028" class="edge">
<title>Node27&#45;&gt;Node28</title>
<g id="a_edge54_Node000027_Node000028"><a xlink:title=" ">
<path fill="none" stroke="#63b8ff" d="M894.94,-535.37C875.78,-518.13 857.54,-494.28 871.62,-473.75 880.58,-460.69 913.63,-447.85 944.66,-438.23"/>
<polygon fill="#63b8ff" stroke="#63b8ff" points="892.65,-538.02 902.54,-541.82 897.18,-532.68 892.65,-538.02"/>
</a>
</g>
</g>
<!-- Node29 -->
<g id="Node000029" class="node">
<title>Node29</title>
<g id="a_Node000029"><a xlink:href="constraint__manager_8cc.html" target="_top" xlink:title=" ">
<polygon fill="white" stroke="#666666" points="1019.62,-507.25 913.62,-507.25 913.62,-473.75 1019.62,-473.75 1019.62,-507.25"/>
<text text-anchor="start" x="921.62" y="-493.75" font-family="Helvetica,sans-Serif" font-size="10.00">src/core/constraint</text>
<text text-anchor="middle" x="966.62" y="-481" font-family="Helvetica,sans-Serif" font-size="10.00">_manager.cc</text>
</a>
</g>
</g>
<!-- Node27&#45;&gt;Node29 -->
<g id="edge56_Node000027_Node000029" class="edge">
<title>Node27&#45;&gt;Node29</title>
<g id="a_edge56_Node000027_Node000029"><a xlink:title=" ">
<path fill="none" stroke="#63b8ff" d="M941.87,-533.28C947.03,-524.57 952.64,-515.1 957.21,-507.38"/>
<polygon fill="#63b8ff" stroke="#63b8ff" points="938.96,-531.31 936.88,-541.7 944.99,-534.88 938.96,-531.31"/>
</a>
</g>
</g>
<!-- Node30 -->
<g id="Node000030" class="node">
<title>Node30</title>
<g id="a_Node000030"><a xlink:href="user__input__parameters_8cc.html" target="_top" xlink:title=" ">
<polygon fill="white" stroke="#666666" points="1159.12,-507.25 1038.12,-507.25 1038.12,-473.75 1159.12,-473.75 1159.12,-507.25"/>
<text text-anchor="start" x="1046.12" y="-493.75" font-family="Helvetica,sans-Serif" font-size="10.00">src/user_inputs/user</text>
<text text-anchor="middle" x="1098.62" y="-481" font-family="Helvetica,sans-Serif" font-size="10.00">_input_parameters.cc</text>
</a>
</g>
</g>
<!-- Node27&#45;&gt;Node30 -->
<g id="edge58_Node000027_Node000030" class="edge">
<title>Node27&#45;&gt;Node30</title>
<g id="a_edge58_Node000027_Node000030"><a xlink:title=" ">
<path fill="none" stroke="#63b8ff" d="M978.35,-538.7C1003.67,-528.76 1033.73,-516.97 1057.47,-507.65"/>
<polygon fill="#63b8ff" stroke="#63b8ff" points="977.26,-535.37 969.23,-542.28 979.82,-541.88 977.26,-535.37"/>
</a>
</g>
</g>
<!-- Node28&#45;&gt;Node18 -->
<g id="edge55_Node000028_Node000018" class="edge">
<title>Node28&#45;&gt;Node18</title>
<g id="a_edge55_Node000028_Node000018"><a xlink:title=" ">
<path fill="none" stroke="#63b8ff" d="M1037.08,-397.41C1050.22,-387.98 1065.18,-377.23 1077.18,-368.62"/>
<polygon fill="#63b8ff" stroke="#63b8ff" points="1035.21,-394.44 1029.13,-403.12 1039.3,-400.13 1035.21,-394.44"/>
</a>
</g>
</g>
</g>
</svg>
