<?xml version="1.0" encoding="UTF-8" standalone="no"?>
<!DOCTYPE svg PUBLIC "-//W3C//DTD SVG 1.1//EN"
 "http://www.w3.org/Graphics/SVG/1.1/DTD/svg11.dtd">
<!-- Generated by graphviz version 2.43.0 (0)
 -->
<!-- Title: /home/runner/work/phaseField/phaseField/include/prismspf/user_inputs/nucleation_parameters.h Pages: 1 -->
<svg width="1507pt" height="742pt"
 viewBox="0.00 0.00 1507.00 742.00" xmlns="http://www.w3.org/2000/svg" xmlns:xlink="http://www.w3.org/1999/xlink">
<g id="graph0" class="graph" transform="scale(1 1) rotate(0) translate(4 738)">
<title>/home/runner/work/phaseField/phaseField/include/prismspf/user_inputs/nucleation_parameters.h</title>
<!-- Node1 -->
<g id="Node000001" class="node">
<title>Node1</title>
<g id="a_Node000001"><a xlink:title=" ">
<polygon fill="#999999" stroke="#666666" points="1119,-734 919,-734 919,-693 1119,-693 1119,-734"/>
<text text-anchor="start" x="927" y="-722" font-family="Helvetica,sans-Serif" font-size="10.00">/home/runner/work/phaseField</text>
<text text-anchor="start" x="927" y="-711" font-family="Helvetica,sans-Serif" font-size="10.00">/phaseField/include/prismspf</text>
<text text-anchor="middle" x="1019" y="-700" font-family="Helvetica,sans-Serif" font-size="10.00">/user_inputs/nucleation_parameters.h</text>
</a>
</g>
</g>
<!-- Node2 -->
<g id="Node000002" class="node">
<title>Node2</title>
<g id="a_Node000002"><a xlink:href="nucleation__manager_8h.html" target="_top" xlink:title=" ">
<polygon fill="white" stroke="#666666" points="1244,-415 1062,-415 1062,-374 1244,-374 1244,-415"/>
<text text-anchor="start" x="1070" y="-403" font-family="Helvetica,sans-Serif" font-size="10.00">/home/runner/work/phaseField</text>
<text text-anchor="start" x="1070" y="-392" font-family="Helvetica,sans-Serif" font-size="10.00">/phaseField/include/prismspf</text>
<text text-anchor="middle" x="1153" y="-381" font-family="Helvetica,sans-Serif" font-size="10.00">/nucleation/nucleation_manager.h</text>
</a>
</g>
</g>
<!-- Node1&#45;&gt;Node2 -->
<g id="edge1_Node000001_Node000002" class="edge">
<title>Node1&#45;&gt;Node2</title>
<g id="a_edge1_Node000001_Node000002"><a xlink:title=" ">
<path fill="none" stroke="#63b8ff" d="M1129.44,-704.49C1219.9,-691.43 1342.62,-657.38 1404,-569 1437,-521.48 1396.32,-484.3 1349,-451 1331.39,-438.61 1286.2,-425.45 1243.65,-415.06"/>
<polygon fill="#63b8ff" stroke="#63b8ff" points="1128.84,-701.04 1119.41,-705.87 1129.8,-707.97 1128.84,-701.04"/>
</a>
</g>
</g>
<!-- Node5 -->
<g id="Node000005" class="node">
<title>Node5</title>
<g id="a_Node000005"><a xlink:href="nucleus__refinement__function_8h.html" target="_top" xlink:title=" ">
<polygon fill="white" stroke="#666666" points="722,-657 552,-657 552,-605 722,-605 722,-657"/>
<text text-anchor="start" x="560" y="-645" font-family="Helvetica,sans-Serif" font-size="10.00">/home/runner/work/phaseField</text>
<text text-anchor="start" x="560" y="-634" font-family="Helvetica,sans-Serif" font-size="10.00">/phaseField/include/prismspf</text>
<text text-anchor="start" x="560" y="-623" font-family="Helvetica,sans-Serif" font-size="10.00">/nucleation/nucleus_refinement</text>
<text text-anchor="middle" x="637" y="-612" font-family="Helvetica,sans-Serif" font-size="10.00">_function.h</text>
</a>
</g>
</g>
<!-- Node1&#45;&gt;Node5 -->
<g id="edge4_Node000001_Node000005" class="edge">
<title>Node1&#45;&gt;Node5</title>
<g id="a_edge4_Node000001_Node000005"><a xlink:title=" ">
<path fill="none" stroke="#63b8ff" d="M916.05,-690.81C855.37,-678.02 779.5,-662.03 722.2,-649.95"/>
<polygon fill="#63b8ff" stroke="#63b8ff" points="915.53,-694.27 926.04,-692.91 916.98,-687.42 915.53,-694.27"/>
</a>
</g>
</g>
<!-- Node6 -->
<g id="Node000006" class="node">
<title>Node6</title>
<g id="a_Node000006"><a xlink:href="user__input__parameters_8h.html" target="_top" xlink:title=" ">
<polygon fill="white" stroke="#666666" points="1119,-651.5 919,-651.5 919,-610.5 1119,-610.5 1119,-651.5"/>
<text text-anchor="start" x="927" y="-639.5" font-family="Helvetica,sans-Serif" font-size="10.00">/home/runner/work/phaseField</text>
<text text-anchor="start" x="927" y="-628.5" font-family="Helvetica,sans-Serif" font-size="10.00">/phaseField/include/prismspf</text>
<text text-anchor="middle" x="1019" y="-617.5" font-family="Helvetica,sans-Serif" font-size="10.00">/user_inputs/user_input_parameters.h</text>
</a>
</g>
</g>
<!-- Node1&#45;&gt;Node6 -->
<g id="edge6_Node000001_Node000006" class="edge">
<title>Node1&#45;&gt;Node6</title>
<g id="a_edge6_Node000001_Node000006"><a xlink:title=" ">
<path fill="none" stroke="#63b8ff" d="M1019,-682.37C1019,-672.1 1019,-660.9 1019,-651.67"/>
<polygon fill="#63b8ff" stroke="#63b8ff" points="1015.5,-682.6 1019,-692.6 1022.5,-682.6 1015.5,-682.6"/>
</a>
</g>
</g>
<!-- Node3 -->
<g id="Node000003" class="node">
<title>Node3</title>
<g id="a_Node000003"><a xlink:href="problem_8h.html" target="_top" xlink:title=" ">
<polygon fill="white" stroke="#666666" points="1116,-261 952,-261 952,-220 1116,-220 1116,-261"/>
<text text-anchor="start" x="960" y="-249" font-family="Helvetica,sans-Serif" font-size="10.00">/home/runner/work/phaseField</text>
<text text-anchor="start" x="960" y="-238" font-family="Helvetica,sans-Serif" font-size="10.00">/phaseField/include/prismspf</text>
<text text-anchor="middle" x="1034" y="-227" font-family="Helvetica,sans-Serif" font-size="10.00">/core/problem.h</text>
</a>
</g>
</g>
<!-- Node2&#45;&gt;Node3 -->
<g id="edge2_Node000002_Node000003" class="edge">
<title>Node2&#45;&gt;Node3</title>
<g id="a_edge2_Node000002_Node000003"><a xlink:title=" ">
<path fill="none" stroke="#63b8ff" d="M1131.42,-365.93C1107.82,-335.78 1070.57,-288.21 1049.63,-261.47"/>
<polygon fill="#63b8ff" stroke="#63b8ff" points="1128.77,-368.22 1137.69,-373.94 1134.28,-363.91 1128.77,-368.22"/>
</a>
</g>
</g>
<!-- Node4 -->
<g id="Node000004" class="node">
<title>Node4</title>
<g id="a_Node000004"><a xlink:href="problem_8cc.html" target="_top" xlink:title=" ">
<polygon fill="white" stroke="#666666" points="1119,-30 949,-30 949,0 1119,0 1119,-30"/>
<text text-anchor="start" x="957" y="-18" font-family="Helvetica,sans-Serif" font-size="10.00">/home/runner/work/phaseField</text>
<text text-anchor="middle" x="1034" y="-7" font-family="Helvetica,sans-Serif" font-size="10.00">/phaseField/src/core/problem.cc</text>
</a>
</g>
</g>
<!-- Node3&#45;&gt;Node4 -->
<g id="edge3_Node000003_Node000004" class="edge">
<title>Node3&#45;&gt;Node4</title>
<g id="a_edge3_Node000003_Node000004"><a xlink:title=" ">
<path fill="none" stroke="#63b8ff" d="M1034,-209.41C1034,-160.56 1034,-65.85 1034,-30.11"/>
<polygon fill="#63b8ff" stroke="#63b8ff" points="1030.5,-209.67 1034,-219.67 1037.5,-209.67 1030.5,-209.67"/>
</a>
</g>
</g>
<!-- Node5&#45;&gt;Node3 -->
<g id="edge5_Node000005_Node000003" class="edge">
<title>Node5&#45;&gt;Node3</title>
<g id="a_edge5_Node000005_Node000003"><a xlink:title=" ">
<path fill="none" stroke="#63b8ff" d="M608.6,-596.72C580.55,-559.54 545.5,-498.36 573,-451 623.88,-363.38 684.7,-391.08 771,-338 799.14,-320.69 802.93,-310.68 833,-297 870.57,-279.91 914.53,-267.04 951.75,-258.01"/>
<polygon fill="#63b8ff" stroke="#63b8ff" points="605.92,-598.97 614.82,-604.72 611.45,-594.68 605.92,-598.97"/>
</a>
</g>
</g>
<!-- Node6&#45;&gt;Node2 -->
<g id="edge46_Node000006_Node000002" class="edge">
<title>Node6&#45;&gt;Node2</title>
<g id="a_edge46_Node000006_Node000002"><a xlink:title=" ">
<path fill="none" stroke="#63b8ff" d="M1009.15,-600.42C1003.78,-578.36 1000.93,-548.62 1016,-528 1047.1,-485.45 1092.95,-530.46 1129,-492 1148.6,-471.09 1152.87,-436.72 1153.45,-415.14"/>
<polygon fill="#63b8ff" stroke="#63b8ff" points="1005.83,-601.52 1011.83,-610.25 1012.58,-599.68 1005.83,-601.52"/>
</a>
</g>
</g>
<!-- Node6&#45;&gt;Node4 -->
<g id="edge52_Node000006_Node000004" class="edge">
<title>Node6&#45;&gt;Node4</title>
<g id="a_edge52_Node000006_Node000004"><a xlink:title=" ">
<path fill="none" stroke="#63b8ff" d="M1129.23,-622.72C1231.91,-614.29 1376.28,-597.73 1425,-569 1471.55,-541.54 1499,-526.55 1499,-472.5 1499,-472.5 1499,-472.5 1499,-162.5 1499,-83.73 1253.2,-42.06 1119.02,-25.18"/>
<polygon fill="#63b8ff" stroke="#63b8ff" points="1128.8,-619.24 1119.11,-623.53 1129.36,-626.22 1128.8,-619.24"/>
</a>
</g>
</g>
<!-- Node7 -->
<g id="Node000007" class="node">
<title>Node7</title>
<g id="a_Node000007"><a xlink:href="pde__operator__base_8h.html" target="_top" xlink:title=" ">
<polygon fill="white" stroke="#666666" points="831,-569 667,-569 667,-528 831,-528 831,-569"/>
<text text-anchor="start" x="675" y="-557" font-family="Helvetica,sans-Serif" font-size="10.00">/home/runner/work/phaseField</text>
<text text-anchor="start" x="675" y="-546" font-family="Helvetica,sans-Serif" font-size="10.00">/phaseField/include/prismspf</text>
<text text-anchor="middle" x="749" y="-535" font-family="Helvetica,sans-Serif" font-size="10.00">/core/pde_operator_base.h</text>
</a>
</g>
</g>
<!-- Node6&#45;&gt;Node7 -->
<g id="edge7_Node000006_Node000007" class="edge">
<title>Node6&#45;&gt;Node7</title>
<g id="a_edge7_Node000006_Node000007"><a xlink:title=" ">
<path fill="none" stroke="#63b8ff" d="M943.46,-607.48C902.92,-595.39 853.43,-580.64 814.53,-569.04"/>
<polygon fill="#63b8ff" stroke="#63b8ff" points="942.71,-610.91 953.3,-610.41 944.71,-604.2 942.71,-610.91"/>
</a>
</g>
</g>
<!-- Node17 -->
<g id="Node000017" class="node">
<title>Node17</title>
<g id="a_Node000017"><a xlink:href="solve__context_8h.html" target="_top" xlink:title=" ">
<polygon fill="white" stroke="#666666" points="1120,-492 956,-492 956,-451 1120,-451 1120,-492"/>
<text text-anchor="start" x="964" y="-480" font-family="Helvetica,sans-Serif" font-size="10.00">/home/runner/work/phaseField</text>
<text text-anchor="start" x="964" y="-469" font-family="Helvetica,sans-Serif" font-size="10.00">/phaseField/include/prismspf</text>
<text text-anchor="middle" x="1038" y="-458" font-family="Helvetica,sans-Serif" font-size="10.00">/solvers/solve_context.h</text>
</a>
</g>
</g>
<!-- Node6&#45;&gt;Node17 -->
<g id="edge47_Node000006_Node000017" class="edge">
<title>Node6&#45;&gt;Node17</title>
<g id="a_edge47_Node000006_Node000017"><a xlink:title=" ">
<path fill="none" stroke="#63b8ff" d="M988.94,-603.07C980.13,-593.31 971.63,-581.57 967,-569 960.7,-551.9 959.01,-544.38 967,-528 974.2,-513.23 987.44,-501.24 1000.55,-492.24"/>
<polygon fill="#63b8ff" stroke="#63b8ff" points="986.56,-605.64 996,-610.45 991.61,-600.81 986.56,-605.64"/>
</a>
</g>
</g>
<!-- Node19 -->
<g id="Node000019" class="node">
<title>Node19</title>
<g id="a_Node000019"><a xlink:href="solution__output_8h.html" target="_top" xlink:title=" ">
<polygon fill="white" stroke="#666666" points="1426,-415 1262,-415 1262,-374 1426,-374 1426,-415"/>
<text text-anchor="start" x="1270" y="-403" font-family="Helvetica,sans-Serif" font-size="10.00">/home/runner/work/phaseField</text>
<text text-anchor="start" x="1270" y="-392" font-family="Helvetica,sans-Serif" font-size="10.00">/phaseField/include/prismspf</text>
<text text-anchor="middle" x="1344" y="-381" font-family="Helvetica,sans-Serif" font-size="10.00">/core/solution_output.h</text>
</a>
</g>
</g>
<!-- Node6&#45;&gt;Node19 -->
<g id="edge45_Node000006_Node000019" class="edge">
<title>Node6&#45;&gt;Node19</title>
<g id="a_edge45_Node000006_Node000019"><a xlink:title=" ">
<path fill="none" stroke="#63b8ff" d="M1129.66,-627.91C1230.64,-623.37 1369.26,-609.67 1404,-569 1443.22,-523.07 1391.5,-450.07 1361.98,-415.24"/>
<polygon fill="#63b8ff" stroke="#63b8ff" points="1129.24,-624.42 1119.4,-628.34 1129.54,-631.41 1129.24,-624.42"/>
</a>
</g>
</g>
<!-- Node21 -->
<g id="Node000021" class="node">
<title>Node21</title>
<g id="a_Node000021"><a xlink:href="solver__base_8h.html" target="_top" xlink:title=" ">
<polygon fill="white" stroke="#666666" points="526,-415 362,-415 362,-374 526,-374 526,-415"/>
<text text-anchor="start" x="370" y="-403" font-family="Helvetica,sans-Serif" font-size="10.00">/home/runner/work/phaseField</text>
<text text-anchor="start" x="370" y="-392" font-family="Helvetica,sans-Serif" font-size="10.00">/phaseField/include/prismspf</text>
<text text-anchor="middle" x="444" y="-381" font-family="Helvetica,sans-Serif" font-size="10.00">/solvers/solver_base.h</text>
</a>
</g>
</g>
<!-- Node6&#45;&gt;Node21 -->
<g id="edge48_Node000006_Node000021" class="edge">
<title>Node6&#45;&gt;Node21</title>
<g id="a_edge48_Node000006_Node000021"><a xlink:title=" ">
<path fill="none" stroke="#63b8ff" d="M908.83,-619.12C836.41,-610.09 740.19,-594.5 658,-569 580.32,-544.9 550.29,-548.72 492,-492 469.87,-470.47 456.33,-436.6 449.5,-415.25"/>
<polygon fill="#63b8ff" stroke="#63b8ff" points="908.54,-622.61 918.89,-620.35 909.39,-615.66 908.54,-622.61"/>
</a>
</g>
</g>
<!-- Node26 -->
<g id="Node000026" class="node">
<title>Node26</title>
<g id="a_Node000026"><a xlink:href="periodic__distance_8h.html" target="_top" xlink:title=" ">
<polygon fill="white" stroke="#666666" points="1340,-492 1176,-492 1176,-451 1340,-451 1340,-492"/>
<text text-anchor="start" x="1184" y="-480" font-family="Helvetica,sans-Serif" font-size="10.00">/home/runner/work/phaseField</text>
<text text-anchor="start" x="1184" y="-469" font-family="Helvetica,sans-Serif" font-size="10.00">/phaseField/include/prismspf</text>
<text text-anchor="middle" x="1258" y="-458" font-family="Helvetica,sans-Serif" font-size="10.00">/utilities/periodic_distance.h</text>
</a>
</g>
</g>
<!-- Node6&#45;&gt;Node26 -->
<g id="edge49_Node000006_Node000026" class="edge">
<title>Node6&#45;&gt;Node26</title>
<g id="a_edge49_Node000006_Node000026"><a xlink:title=" ">
<path fill="none" stroke="#63b8ff" d="M1016.87,-600.23C1016.93,-577.57 1020.9,-547.12 1039,-528 1043.96,-522.76 1115.67,-505.18 1175.7,-491.2"/>
<polygon fill="#63b8ff" stroke="#63b8ff" points="1013.37,-600.42 1017.09,-610.34 1020.37,-600.26 1013.37,-600.42"/>
</a>
</g>
</g>
<!-- Node27 -->
<g id="Node000027" class="node">
<title>Node27</title>
<g id="a_Node000027"><a xlink:href="constraint__manager_8cc.html" target="_top" xlink:title=" ">
<polygon fill="white" stroke="#666666" points="1212.5,-569 1047.5,-569 1047.5,-528 1212.5,-528 1212.5,-569"/>
<text text-anchor="start" x="1055.5" y="-557" font-family="Helvetica,sans-Serif" font-size="10.00">/home/runner/work/phaseField</text>
<text text-anchor="start" x="1055.5" y="-546" font-family="Helvetica,sans-Serif" font-size="10.00">/phaseField/src/core/constraint</text>
<text text-anchor="middle" x="1130" y="-535" font-family="Helvetica,sans-Serif" font-size="10.00">_manager.cc</text>
</a>
</g>
</g>
<!-- Node6&#45;&gt;Node27 -->
<g id="edge51_Node000006_Node000027" class="edge">
<title>Node6&#45;&gt;Node27</title>
<g id="a_edge51_Node000006_Node000027"><a xlink:title=" ">
<path fill="none" stroke="#63b8ff" d="M1054.54,-604.22C1070.16,-592.9 1088.21,-579.81 1102.74,-569.27"/>
<polygon fill="#63b8ff" stroke="#63b8ff" points="1052.19,-601.6 1046.15,-610.31 1056.3,-607.27 1052.19,-601.6"/>
</a>
</g>
</g>
<!-- Node28 -->
<g id="Node000028" class="node">
<title>Node28</title>
<g id="a_Node000028"><a xlink:href="user__input__parameters_8cc.html" target="_top" xlink:title=" ">
<polygon fill="white" stroke="#666666" points="1395,-569 1231,-569 1231,-528 1395,-528 1395,-569"/>
<text text-anchor="start" x="1239" y="-557" font-family="Helvetica,sans-Serif" font-size="10.00">/home/runner/work/phaseField</text>
<text text-anchor="start" x="1239" y="-546" font-family="Helvetica,sans-Serif" font-size="10.00">/phaseField/src/user_inputs</text>
<text text-anchor="middle" x="1313" y="-535" font-family="Helvetica,sans-Serif" font-size="10.00">/user_input_parameters.cc</text>
</a>
</g>
</g>
<!-- Node6&#45;&gt;Node28 -->
<g id="edge53_Node000006_Node000028" class="edge">
<title>Node6&#45;&gt;Node28</title>
<g id="a_edge53_Node000006_Node000028"><a xlink:title=" ">
<path fill="none" stroke="#63b8ff" d="M1100.42,-607.71C1144.72,-595.58 1199.01,-580.71 1241.64,-569.04"/>
<polygon fill="#63b8ff" stroke="#63b8ff" points="1099.27,-604.39 1090.54,-610.41 1101.11,-611.15 1099.27,-604.39"/>
</a>
</g>
</g>
<!-- Node8 -->
<g id="Node000008" class="node">
<title>Node8</title>
<g id="a_Node000008"><a xlink:href="mf__operator_8h.html" target="_top" xlink:title=" ">
<polygon fill="white" stroke="#666666" points="636,-338 472,-338 472,-297 636,-297 636,-338"/>
<text text-anchor="start" x="480" y="-326" font-family="Helvetica,sans-Serif" font-size="10.00">/home/runner/work/phaseField</text>
<text text-anchor="start" x="480" y="-315" font-family="Helvetica,sans-Serif" font-size="10.00">/phaseField/include/prismspf</text>
<text text-anchor="middle" x="554" y="-304" font-family="Helvetica,sans-Serif" font-size="10.00">/solvers/mf_operator.h</text>
</a>
</g>
</g>
<!-- Node7&#45;&gt;Node8 -->
<g id="edge8_Node000007_Node000008" class="edge">
<title>Node7&#45;&gt;Node8</title>
<g id="a_edge8_Node000007_Node000008"><a xlink:title=" ">
<path fill="none" stroke="#63b8ff" d="M656.62,-538.73C625.58,-531.07 593.63,-517.14 573,-492 536.48,-447.49 543.7,-373.48 549.85,-338.28"/>
<polygon fill="#63b8ff" stroke="#63b8ff" points="656.12,-542.2 666.65,-541 657.67,-535.38 656.12,-542.2"/>
</a>
</g>
</g>
<!-- Node7&#45;&gt;Node17 -->
<g id="edge22_Node000007_Node000017" class="edge">
<title>Node7&#45;&gt;Node17</title>
<g id="a_edge22_Node000007_Node000017"><a xlink:title=" ">
<path fill="none" stroke="#63b8ff" d="M834.1,-525.42C874.87,-514.84 923.28,-502.27 962.7,-492.04"/>
<polygon fill="#63b8ff" stroke="#63b8ff" points="832.98,-522.09 824.18,-527.99 834.74,-528.87 832.98,-522.09"/>
</a>
</g>
</g>
<!-- Node7&#45;&gt;Node21 -->
<g id="edge42_Node000007_Node000021" class="edge">
<title>Node7&#45;&gt;Node21</title>
<g id="a_edge42_Node000007_Node000021"><a xlink:title=" ">
<path fill="none" stroke="#63b8ff" d="M656.94,-533.97C618.95,-525.68 575.59,-512.55 540,-492 522.09,-481.66 483.81,-440.36 461.37,-415.26"/>
<polygon fill="#63b8ff" stroke="#63b8ff" points="656.48,-537.45 666.99,-536.08 657.92,-530.6 656.48,-537.45"/>
</a>
</g>
</g>
<!-- Node24 -->
<g id="Node000024" class="node">
<title>Node24</title>
<g id="a_Node000024"><a xlink:href="initial__conditions_8cc.html" target="_top" xlink:title=" ">
<polygon fill="white" stroke="#666666" points="746,-492 582,-492 582,-451 746,-451 746,-492"/>
<text text-anchor="start" x="590" y="-480" font-family="Helvetica,sans-Serif" font-size="10.00">/home/runner/work/phaseField</text>
<text text-anchor="start" x="590" y="-469" font-family="Helvetica,sans-Serif" font-size="10.00">/phaseField/src/core/initial</text>
<text text-anchor="middle" x="664" y="-458" font-family="Helvetica,sans-Serif" font-size="10.00">_conditions.cc</text>
</a>
</g>
</g>
<!-- Node7&#45;&gt;Node24 -->
<g id="edge43_Node000007_Node000024" class="edge">
<title>Node7&#45;&gt;Node24</title>
<g id="a_edge43_Node000007_Node000024"><a xlink:title=" ">
<path fill="none" stroke="#63b8ff" d="M719.05,-521.07C708.23,-511.52 696.22,-500.93 686.18,-492.07"/>
<polygon fill="#63b8ff" stroke="#63b8ff" points="716.85,-523.8 726.67,-527.79 721.48,-518.55 716.85,-523.8"/>
</a>
</g>
</g>
<!-- Node25 -->
<g id="Node000025" class="node">
<title>Node25</title>
<g id="a_Node000025"><a xlink:href="nonuniform__dirichlet_8cc.html" target="_top" xlink:title=" ">
<polygon fill="white" stroke="#666666" points="937.5,-492 764.5,-492 764.5,-451 937.5,-451 937.5,-492"/>
<text text-anchor="start" x="772.5" y="-480" font-family="Helvetica,sans-Serif" font-size="10.00">/home/runner/work/phaseField</text>
<text text-anchor="start" x="772.5" y="-469" font-family="Helvetica,sans-Serif" font-size="10.00">/phaseField/src/core/nonuniform</text>
<text text-anchor="middle" x="851" y="-458" font-family="Helvetica,sans-Serif" font-size="10.00">_dirichlet.cc</text>
</a>
</g>
</g>
<!-- Node7&#45;&gt;Node25 -->
<g id="edge44_Node000007_Node000025" class="edge">
<title>Node7&#45;&gt;Node25</title>
<g id="a_edge44_Node000007_Node000025"><a xlink:title=" ">
<path fill="none" stroke="#63b8ff" d="M783.93,-521.82C797.12,-512.11 811.92,-501.24 824.25,-492.17"/>
<polygon fill="#63b8ff" stroke="#63b8ff" points="781.52,-519.25 775.53,-527.99 785.66,-524.89 781.52,-519.25"/>
</a>
</g>
</g>
<!-- Node9 -->
<g id="Node000009" class="node">
<title>Node9</title>
<g id="a_Node000009"><a xlink:href="explicit__solver_8h.html" target="_top" xlink:title=" ">
<polygon fill="white" stroke="#666666" points="896,-261 732,-261 732,-220 896,-220 896,-261"/>
<text text-anchor="start" x="740" y="-249" font-family="Helvetica,sans-Serif" font-size="10.00">/home/runner/work/phaseField</text>
<text text-anchor="start" x="740" y="-238" font-family="Helvetica,sans-Serif" font-size="10.00">/phaseField/include/prismspf</text>
<text text-anchor="middle" x="814" y="-227" font-family="Helvetica,sans-Serif" font-size="10.00">/solvers/explicit_solver.h</text>
</a>
</g>
</g>
<!-- Node8&#45;&gt;Node9 -->
<g id="edge9_Node000008_Node000009" class="edge">
<title>Node8&#45;&gt;Node9</title>
<g id="a_edge9_Node000008_Node000009"><a xlink:title=" ">
<path fill="none" stroke="#63b8ff" d="M631.26,-294.21C667.79,-283.68 711.02,-271.21 746.25,-261.04"/>
<polygon fill="#63b8ff" stroke="#63b8ff" points="630.27,-290.86 621.63,-296.99 632.21,-297.58 630.27,-290.86"/>
</a>
</g>
</g>
<!-- Node12 -->
<g id="Node000012" class="node">
<title>Node12</title>
<g id="a_Node000012"><a xlink:href="linear__helper_8h.html" target="_top" xlink:title=" ">
<polygon fill="white" stroke="#666666" points="274,-261 110,-261 110,-220 274,-220 274,-261"/>
<text text-anchor="start" x="118" y="-249" font-family="Helvetica,sans-Serif" font-size="10.00">/home/runner/work/phaseField</text>
<text text-anchor="start" x="118" y="-238" font-family="Helvetica,sans-Serif" font-size="10.00">/phaseField/include/prismspf</text>
<text text-anchor="middle" x="192" y="-227" font-family="Helvetica,sans-Serif" font-size="10.00">/solvers/linear_helper.h</text>
</a>
</g>
</g>
<!-- Node8&#45;&gt;Node12 -->
<g id="edge13_Node000008_Node000012" class="edge">
<title>Node8&#45;&gt;Node12</title>
<g id="a_edge13_Node000008_Node000012"><a xlink:title=" ">
<path fill="none" stroke="#63b8ff" d="M461.76,-296.75C415.44,-287.1 335.54,-270.76 274.12,-258.23"/>
<polygon fill="#63b8ff" stroke="#63b8ff" points="461.16,-300.2 471.67,-298.82 462.59,-293.35 461.16,-300.2"/>
</a>
</g>
</g>
<!-- Node13 -->
<g id="Node000013" class="node">
<title>Node13</title>
<g id="a_Node000013"><a xlink:href="linear__solver_8h.html" target="_top" xlink:title=" ">
<polygon fill="white" stroke="#666666" points="494,-261 330,-261 330,-220 494,-220 494,-261"/>
<text text-anchor="start" x="338" y="-249" font-family="Helvetica,sans-Serif" font-size="10.00">/home/runner/work/phaseField</text>
<text text-anchor="start" x="338" y="-238" font-family="Helvetica,sans-Serif" font-size="10.00">/phaseField/include/prismspf</text>
<text text-anchor="middle" x="412" y="-227" font-family="Helvetica,sans-Serif" font-size="10.00">/solvers/linear_solver.h</text>
</a>
</g>
</g>
<!-- Node8&#45;&gt;Node13 -->
<g id="edge14_Node000008_Node000013" class="edge">
<title>Node8&#45;&gt;Node13</title>
<g id="a_edge14_Node000008_Node000013"><a xlink:title=" ">
<path fill="none" stroke="#63b8ff" d="M507.98,-292.19C488.97,-282.15 467.23,-270.67 449.25,-261.17"/>
<polygon fill="#63b8ff" stroke="#63b8ff" points="506.58,-295.41 517.06,-296.99 509.85,-289.23 506.58,-295.41"/>
</a>
</g>
</g>
<!-- Node14 -->
<g id="Node000014" class="node">
<title>Node14</title>
<g id="a_Node000014"><a xlink:href="mg__solver_8h.html" target="_top" xlink:title=" ">
<polygon fill="white" stroke="#666666" points="604,-184 440,-184 440,-143 604,-143 604,-184"/>
<text text-anchor="start" x="448" y="-172" font-family="Helvetica,sans-Serif" font-size="10.00">/home/runner/work/phaseField</text>
<text text-anchor="start" x="448" y="-161" font-family="Helvetica,sans-Serif" font-size="10.00">/phaseField/include/prismspf</text>
<text text-anchor="middle" x="522" y="-150" font-family="Helvetica,sans-Serif" font-size="10.00">/solvers/mg_solver.h</text>
</a>
</g>
</g>
<!-- Node8&#45;&gt;Node14 -->
<g id="edge19_Node000008_Node000014" class="edge">
<title>Node8&#45;&gt;Node14</title>
<g id="a_edge19_Node000008_Node000014"><a xlink:title=" ">
<path fill="none" stroke="#63b8ff" d="M546.89,-287.01C544.92,-278.62 542.82,-269.46 541,-261 535.28,-234.46 529.34,-203.66 525.65,-184.13"/>
<polygon fill="#63b8ff" stroke="#63b8ff" points="543.48,-287.84 549.2,-296.76 550.3,-286.22 543.48,-287.84"/>
</a>
</g>
</g>
<!-- Node15 -->
<g id="Node000015" class="node">
<title>Node15</title>
<g id="a_Node000015"><a xlink:href="newton__solver_8h.html" target="_top" xlink:title=" ">
<polygon fill="white" stroke="#666666" points="384,-184 220,-184 220,-143 384,-143 384,-184"/>
<text text-anchor="start" x="228" y="-172" font-family="Helvetica,sans-Serif" font-size="10.00">/home/runner/work/phaseField</text>
<text text-anchor="start" x="228" y="-161" font-family="Helvetica,sans-Serif" font-size="10.00">/phaseField/include/prismspf</text>
<text text-anchor="middle" x="302" y="-150" font-family="Helvetica,sans-Serif" font-size="10.00">/solvers/newton_solver.h</text>
</a>
</g>
</g>
<!-- Node8&#45;&gt;Node15 -->
<g id="edge20_Node000008_Node000015" class="edge">
<title>Node8&#45;&gt;Node15</title>
<g id="a_edge20_Node000008_Node000015"><a xlink:title=" ">
<path fill="none" stroke="#63b8ff" d="M462.12,-295.79C398.07,-281.17 323.61,-263.72 321,-261 301.36,-240.57 299.2,-206.06 300.11,-184.32"/>
<polygon fill="#63b8ff" stroke="#63b8ff" points="461.36,-299.21 471.89,-298.02 462.91,-292.39 461.36,-299.21"/>
</a>
</g>
</g>
<!-- Node16 -->
<g id="Node000016" class="node">
<title>Node16</title>
<g id="a_Node000016"><a xlink:href="mf__operator_8cc.html" target="_top" xlink:title=" ">
<polygon fill="white" stroke="#666666" points="714,-261 550,-261 550,-220 714,-220 714,-261"/>
<text text-anchor="start" x="558" y="-249" font-family="Helvetica,sans-Serif" font-size="10.00">/home/runner/work/phaseField</text>
<text text-anchor="start" x="558" y="-238" font-family="Helvetica,sans-Serif" font-size="10.00">/phaseField/src/solvers/mf</text>
<text text-anchor="middle" x="632" y="-227" font-family="Helvetica,sans-Serif" font-size="10.00">_operator.cc</text>
</a>
</g>
</g>
<!-- Node8&#45;&gt;Node16 -->
<g id="edge21_Node000008_Node000016" class="edge">
<title>Node8&#45;&gt;Node16</title>
<g id="a_edge21_Node000008_Node000016"><a xlink:title=" ">
<path fill="none" stroke="#63b8ff" d="M581.78,-289.79C591.63,-280.32 602.53,-269.84 611.64,-261.07"/>
<polygon fill="#63b8ff" stroke="#63b8ff" points="579.28,-287.34 574.49,-296.79 584.13,-292.39 579.28,-287.34"/>
</a>
</g>
</g>
<!-- Node10 -->
<g id="Node000010" class="node">
<title>Node10</title>
<g id="a_Node000010"><a xlink:href="solvers_8h.html" target="_top" xlink:title=" ">
<polygon fill="white" stroke="#666666" points="494,-107 330,-107 330,-66 494,-66 494,-107"/>
<text text-anchor="start" x="338" y="-95" font-family="Helvetica,sans-Serif" font-size="10.00">/home/runner/work/phaseField</text>
<text text-anchor="start" x="338" y="-84" font-family="Helvetica,sans-Serif" font-size="10.00">/phaseField/include/prismspf</text>
<text text-anchor="middle" x="412" y="-73" font-family="Helvetica,sans-Serif" font-size="10.00">/solvers/solvers.h</text>
</a>
</g>
</g>
<!-- Node9&#45;&gt;Node10 -->
<g id="edge10_Node000009_Node000010" class="edge">
<title>Node9&#45;&gt;Node10</title>
<g id="a_edge10_Node000009_Node000010"><a xlink:title=" ">
<path fill="none" stroke="#63b8ff" d="M769.2,-215.14C729.11,-194.04 668.32,-163.73 613,-143 574.69,-128.65 531.04,-116.15 494.23,-106.67"/>
<polygon fill="#63b8ff" stroke="#63b8ff" points="767.7,-218.3 778.17,-219.89 770.98,-212.12 767.7,-218.3"/>
</a>
</g>
</g>
<!-- Node10&#45;&gt;Node4 -->
<g id="edge11_Node000010_Node000004" class="edge">
<title>Node10&#45;&gt;Node4</title>
<g id="a_edge11_Node000010_Node000004"><a xlink:title=" ">
<path fill="none" stroke="#63b8ff" d="M504.55,-75.16C624.68,-61.74 832.65,-38.5 948.97,-25.5"/>
<polygon fill="#63b8ff" stroke="#63b8ff" points="503.83,-71.72 494.28,-76.31 504.6,-78.67 503.83,-71.72"/>
</a>
</g>
</g>
<!-- Node11 -->
<g id="Node000011" class="node">
<title>Node11</title>
<g id="a_Node000011"><a xlink:href="solvers_8cc.html" target="_top" xlink:title=" ">
<polygon fill="white" stroke="#666666" points="501.5,-30 322.5,-30 322.5,0 501.5,0 501.5,-30"/>
<text text-anchor="start" x="330.5" y="-18" font-family="Helvetica,sans-Serif" font-size="10.00">/home/runner/work/phaseField</text>
<text text-anchor="middle" x="412" y="-7" font-family="Helvetica,sans-Serif" font-size="10.00">/phaseField/src/solvers/solvers.cc</text>
</a>
</g>
</g>
<!-- Node10&#45;&gt;Node11 -->
<g id="edge12_Node000010_Node000011" class="edge">
<title>Node10&#45;&gt;Node11</title>
<g id="a_edge12_Node000010_Node000011"><a xlink:title=" ">
<path fill="none" stroke="#63b8ff" d="M412,-55.66C412,-46.76 412,-37.42 412,-30.04"/>
<polygon fill="#63b8ff" stroke="#63b8ff" points="408.5,-55.77 412,-65.77 415.5,-55.77 408.5,-55.77"/>
</a>
</g>
</g>
<!-- Node13&#45;&gt;Node10 -->
<g id="edge18_Node000013_Node000010" class="edge">
<title>Node13&#45;&gt;Node10</title>
<g id="a_edge18_Node000013_Node000010"><a xlink:title=" ">
<path fill="none" stroke="#63b8ff" d="M412,-209.58C412,-179.36 412,-133.53 412,-107.47"/>
<polygon fill="#63b8ff" stroke="#63b8ff" points="408.5,-209.94 412,-219.94 415.5,-209.94 408.5,-209.94"/>
</a>
</g>
</g>
<!-- Node13&#45;&gt;Node14 -->
<g id="edge15_Node000013_Node000014" class="edge">
<title>Node13&#45;&gt;Node14</title>
<g id="a_edge15_Node000013_Node000014"><a xlink:title=" ">
<path fill="none" stroke="#63b8ff" d="M449.26,-214.09C463.6,-204.32 479.72,-193.32 493.15,-184.17"/>
<polygon fill="#63b8ff" stroke="#63b8ff" points="446.9,-211.47 440.61,-219.99 450.85,-217.25 446.9,-211.47"/>
</a>
</g>
</g>
<!-- Node13&#45;&gt;Node15 -->
<g id="edge16_Node000013_Node000015" class="edge">
<title>Node13&#45;&gt;Node15</title>
<g id="a_edge16_Node000013_Node000015"><a xlink:title=" ">
<path fill="none" stroke="#63b8ff" d="M374.74,-214.09C360.4,-204.32 344.28,-193.32 330.85,-184.17"/>
<polygon fill="#63b8ff" stroke="#63b8ff" points="373.15,-217.25 383.39,-219.99 377.1,-211.47 373.15,-217.25"/>
</a>
</g>
</g>
<!-- Node15&#45;&gt;Node10 -->
<g id="edge17_Node000015_Node000010" class="edge">
<title>Node15&#45;&gt;Node10</title>
<g id="a_edge17_Node000015_Node000010"><a xlink:title=" ">
<path fill="none" stroke="#63b8ff" d="M339.26,-137.09C353.6,-127.32 369.72,-116.32 383.15,-107.17"/>
<polygon fill="#63b8ff" stroke="#63b8ff" points="336.9,-134.47 330.61,-142.99 340.85,-140.25 336.9,-134.47"/>
</a>
</g>
</g>
<!-- Node17&#45;&gt;Node2 -->
<g id="edge30_Node000017_Node000002" class="edge">
<title>Node17&#45;&gt;Node2</title>
<g id="a_edge30_Node000017_Node000002"><a xlink:title=" ">
<path fill="none" stroke="#63b8ff" d="M1076.53,-445.37C1091.62,-435.53 1108.67,-424.41 1122.84,-415.17"/>
<polygon fill="#63b8ff" stroke="#63b8ff" points="1074.38,-442.6 1067.91,-450.99 1078.2,-448.46 1074.38,-442.6"/>
</a>
</g>
</g>
<!-- Node17&#45;&gt;Node3 -->
<g id="edge23_Node000017_Node000003" class="edge">
<title>Node17&#45;&gt;Node3</title>
<g id="a_edge23_Node000017_Node000003"><a xlink:title=" ">
<path fill="none" stroke="#63b8ff" d="M1037.48,-440.73C1036.65,-393.23 1035.05,-301.57 1034.35,-261.3"/>
<polygon fill="#63b8ff" stroke="#63b8ff" points="1033.98,-441.04 1037.66,-450.98 1040.98,-440.92 1033.98,-441.04"/>
</a>
</g>
</g>
<!-- Node18 -->
<g id="Node000018" class="node">
<title>Node18</title>
<g id="a_Node000018"><a xlink:href="refinement__manager_8h.html" target="_top" xlink:title=" ">
<polygon fill="white" stroke="#666666" points="1006,-338 842,-338 842,-297 1006,-297 1006,-338"/>
<text text-anchor="start" x="850" y="-326" font-family="Helvetica,sans-Serif" font-size="10.00">/home/runner/work/phaseField</text>
<text text-anchor="start" x="850" y="-315" font-family="Helvetica,sans-Serif" font-size="10.00">/phaseField/include/prismspf</text>
<text text-anchor="middle" x="924" y="-304" font-family="Helvetica,sans-Serif" font-size="10.00">/core/refinement_manager.h</text>
</a>
</g>
</g>
<!-- Node17&#45;&gt;Node18 -->
<g id="edge24_Node000017_Node000018" class="edge">
<title>Node17&#45;&gt;Node18</title>
<g id="a_edge24_Node000017_Node000018"><a xlink:title=" ">
<path fill="none" stroke="#63b8ff" d="M1017.32,-442.93C994.71,-412.78 959.03,-365.21 938.98,-338.47"/>
<polygon fill="#63b8ff" stroke="#63b8ff" points="1014.53,-445.04 1023.33,-450.94 1020.13,-440.84 1014.53,-445.04"/>
</a>
</g>
</g>
<!-- Node17&#45;&gt;Node19 -->
<g id="edge26_Node000017_Node000019" class="edge">
<title>Node17&#45;&gt;Node19</title>
<g id="a_edge26_Node000017_Node000019"><a xlink:title=" ">
<path fill="none" stroke="#63b8ff" d="M1127.56,-448.55C1170.84,-437.94 1222.36,-425.31 1264.27,-415.04"/>
<polygon fill="#63b8ff" stroke="#63b8ff" points="1126.48,-445.21 1117.6,-450.99 1128.14,-452.01 1126.48,-445.21"/>
</a>
</g>
</g>
<!-- Node17&#45;&gt;Node21 -->
<g id="edge31_Node000017_Node000021" class="edge">
<title>Node17&#45;&gt;Node21</title>
<g id="a_edge31_Node000017_Node000021"><a xlink:title=" ">
<path fill="none" stroke="#63b8ff" d="M945.64,-450.86C792.15,-426.42 623.98,-410.31 526.24,-402"/>
<polygon fill="#63b8ff" stroke="#63b8ff" points="945.3,-454.35 955.73,-452.48 946.41,-447.44 945.3,-454.35"/>
</a>
</g>
</g>
<!-- Node18&#45;&gt;Node3 -->
<g id="edge25_Node000018_Node000003" class="edge">
<title>Node18&#45;&gt;Node3</title>
<g id="a_edge25_Node000018_Node000003"><a xlink:title=" ">
<path fill="none" stroke="#63b8ff" d="M961.26,-291.09C975.6,-281.32 991.72,-270.32 1005.15,-261.17"/>
<polygon fill="#63b8ff" stroke="#63b8ff" points="958.9,-288.47 952.61,-296.99 962.85,-294.25 958.9,-288.47"/>
</a>
</g>
</g>
<!-- Node19&#45;&gt;Node4 -->
<g id="edge28_Node000019_Node000004" class="edge">
<title>Node19&#45;&gt;Node4</title>
<g id="a_edge28_Node000019_Node000004"><a xlink:title=" ">
<path fill="none" stroke="#63b8ff" d="M1293.14,-369.03C1248.95,-343.82 1192,-299.98 1192,-241.5 1192,-241.5 1192,-241.5 1192,-162.5 1192,-96.1 1116.04,-51.35 1069.46,-30.15"/>
<polygon fill="#63b8ff" stroke="#63b8ff" points="1291.62,-372.19 1302.06,-373.97 1295.01,-366.07 1291.62,-372.19"/>
</a>
</g>
</g>
<!-- Node19&#45;&gt;Node19 -->
<g id="edge27_Node000019_Node000019" class="edge">
<title>Node19&#45;&gt;Node19</title>
<g id="a_edge27_Node000019_Node000019"><a xlink:title=" ">
<path fill="none" stroke="#63b8ff" d="M1436.27,-403.88C1441.12,-401.57 1444,-398.45 1444,-394.5 1444,-388.34 1436.99,-384.18 1426.38,-382.01"/>
<polygon fill="#63b8ff" stroke="#63b8ff" points="1434.87,-400.65 1426.38,-406.99 1436.97,-407.33 1434.87,-400.65"/>
</a>
</g>
</g>
<!-- Node20 -->
<g id="Node000020" class="node">
<title>Node20</title>
<g id="a_Node000020"><a xlink:href="solution__output_8cc.html" target="_top" xlink:title=" ">
<polygon fill="white" stroke="#666666" points="1426,-338 1262,-338 1262,-297 1426,-297 1426,-338"/>
<text text-anchor="start" x="1270" y="-326" font-family="Helvetica,sans-Serif" font-size="10.00">/home/runner/work/phaseField</text>
<text text-anchor="start" x="1270" y="-315" font-family="Helvetica,sans-Serif" font-size="10.00">/phaseField/src/core/solution</text>
<text text-anchor="middle" x="1344" y="-304" font-family="Helvetica,sans-Serif" font-size="10.00">_output.cc</text>
</a>
</g>
</g>
<!-- Node19&#45;&gt;Node20 -->
<g id="edge29_Node000019_Node000020" class="edge">
<title>Node19&#45;&gt;Node20</title>
<g id="a_edge29_Node000019_Node000020"><a xlink:title=" ">
<path fill="none" stroke="#63b8ff" d="M1344,-363.69C1344,-355.08 1344,-345.9 1344,-338.07"/>
<polygon fill="#63b8ff" stroke="#63b8ff" points="1340.5,-363.79 1344,-373.79 1347.5,-363.79 1340.5,-363.79"/>
</a>
</g>
</g>
<!-- Node21&#45;&gt;Node4 -->
<g id="edge40_Node000021_Node000004" class="edge">
<title>Node21&#45;&gt;Node4</title>
<g id="a_edge40_Node000021_Node000004"><a xlink:title=" ">
<path fill="none" stroke="#63b8ff" d="M536.24,-380.38C585.58,-371.64 646.75,-358.02 699,-338 733.39,-324.82 736.94,-311 771,-297 828.04,-273.55 856.83,-299.5 905,-261 945.46,-228.66 1009.21,-77.16 1028.37,-30.03"/>
<polygon fill="#63b8ff" stroke="#63b8ff" points="535.47,-376.96 526.22,-382.11 536.67,-383.86 535.47,-376.96"/>
</a>
</g>
</g>
<!-- Node21&#45;&gt;Node8 -->
<g id="edge38_Node000021_Node000008" class="edge">
<title>Node21&#45;&gt;Node8</title>
<g id="a_edge38_Node000021_Node000008"><a xlink:title=" ">
<path fill="none" stroke="#63b8ff" d="M481.26,-368.09C495.6,-358.32 511.72,-347.32 525.15,-338.17"/>
<polygon fill="#63b8ff" stroke="#63b8ff" points="478.9,-365.47 472.61,-373.99 482.85,-371.25 478.9,-365.47"/>
</a>
</g>
</g>
<!-- Node21&#45;&gt;Node9 -->
<g id="edge35_Node000021_Node000009" class="edge">
<title>Node21&#45;&gt;Node9</title>
<g id="a_edge35_Node000021_Node000009"><a xlink:title=" ">
<path fill="none" stroke="#63b8ff" d="M536.37,-373.15C571.08,-364.17 610.47,-352.36 645,-338 696.63,-316.53 752.14,-282.49 784.93,-261.1"/>
<polygon fill="#63b8ff" stroke="#63b8ff" points="535.07,-369.87 526.24,-375.72 536.79,-376.65 535.07,-369.87"/>
</a>
</g>
</g>
<!-- Node21&#45;&gt;Node12 -->
<g id="edge36_Node000021_Node000012" class="edge">
<title>Node21&#45;&gt;Node12</title>
<g id="a_edge36_Node000021_Node000012"><a xlink:title=" ">
<path fill="none" stroke="#63b8ff" d="M351.84,-374.91C323.98,-366.53 294.35,-354.65 270,-338 240.31,-317.69 216.16,-282.81 202.96,-261.02"/>
<polygon fill="#63b8ff" stroke="#63b8ff" points="351.03,-378.32 361.6,-377.73 352.97,-371.59 351.03,-378.32"/>
</a>
</g>
</g>
<!-- Node21&#45;&gt;Node13 -->
<g id="edge37_Node000021_Node000013" class="edge">
<title>Node21&#45;&gt;Node13</title>
<g id="a_edge37_Node000021_Node000013"><a xlink:title=" ">
<path fill="none" stroke="#63b8ff" d="M352.29,-382.95C324.89,-375.02 297.73,-361.37 281,-338 270.39,-323.18 270.94,-312.19 281,-297 292.53,-279.6 310.72,-267.64 329.91,-259.42"/>
<polygon fill="#63b8ff" stroke="#63b8ff" points="351.41,-386.33 361.97,-385.52 353.21,-379.57 351.41,-386.33"/>
</a>
</g>
</g>
<!-- Node21&#45;&gt;Node15 -->
<g id="edge39_Node000021_Node000015" class="edge">
<title>Node21&#45;&gt;Node15</title>
<g id="a_edge39_Node000021_Node000015"><a xlink:title=" ">
<path fill="none" stroke="#63b8ff" d="M351.82,-388.7C267.85,-378.62 149.75,-348.65 101,-261 92.14,-245.07 89.96,-234.5 101,-220 115.83,-200.52 171.09,-186.13 219.93,-176.89"/>
<polygon fill="#63b8ff" stroke="#63b8ff" points="351.56,-392.19 361.89,-389.83 352.34,-385.23 351.56,-392.19"/>
</a>
</g>
</g>
<!-- Node21&#45;&gt;Node18 -->
<g id="edge32_Node000021_Node000018" class="edge">
<title>Node21&#45;&gt;Node18</title>
<g id="a_edge32_Node000021_Node000018"><a xlink:title=" ">
<path fill="none" stroke="#63b8ff" d="M536.26,-379.08C624.64,-365.28 756.76,-344.63 841.66,-331.37"/>
<polygon fill="#63b8ff" stroke="#63b8ff" points="535.58,-375.65 526.24,-380.65 536.66,-382.56 535.58,-375.65"/>
</a>
</g>
</g>
<!-- Node22 -->
<g id="Node000022" class="node">
<title>Node22</title>
<g id="a_Node000022"><a xlink:href="constant__solver_8h.html" target="_top" xlink:title=" ">
<polygon fill="white" stroke="#666666" points="164,-184 0,-184 0,-143 164,-143 164,-184"/>
<text text-anchor="start" x="8" y="-172" font-family="Helvetica,sans-Serif" font-size="10.00">/home/runner/work/phaseField</text>
<text text-anchor="start" x="8" y="-161" font-family="Helvetica,sans-Serif" font-size="10.00">/phaseField/include/prismspf</text>
<text text-anchor="middle" x="82" y="-150" font-family="Helvetica,sans-Serif" font-size="10.00">/solvers/constant_solver.h</text>
</a>
</g>
</g>
<!-- Node21&#45;&gt;Node22 -->
<g id="edge33_Node000021_Node000022" class="edge">
<title>Node21&#45;&gt;Node22</title>
<g id="a_edge33_Node000021_Node000022"><a xlink:title=" ">
<path fill="none" stroke="#63b8ff" d="M351.6,-386.81C270.64,-379.28 160.63,-364.49 126,-338 78.37,-301.56 77.55,-221.45 80.03,-184.23"/>
<polygon fill="#63b8ff" stroke="#63b8ff" points="351.55,-390.32 361.82,-387.74 352.18,-383.35 351.55,-390.32"/>
</a>
</g>
</g>
<!-- Node23 -->
<g id="Node000023" class="node">
<title>Node23</title>
<g id="a_Node000023"><a xlink:href="solver__base_8cc.html" target="_top" xlink:title=" ">
<polygon fill="white" stroke="#666666" points="454,-338 290,-338 290,-297 454,-297 454,-338"/>
<text text-anchor="start" x="298" y="-326" font-family="Helvetica,sans-Serif" font-size="10.00">/home/runner/work/phaseField</text>
<text text-anchor="start" x="298" y="-315" font-family="Helvetica,sans-Serif" font-size="10.00">/phaseField/src/solvers/solver</text>
<text text-anchor="middle" x="372" y="-304" font-family="Helvetica,sans-Serif" font-size="10.00">_base.cc</text>
</a>
</g>
</g>
<!-- Node21&#45;&gt;Node23 -->
<g id="edge41_Node000021_Node000023" class="edge">
<title>Node21&#45;&gt;Node23</title>
<g id="a_edge41_Node000021_Node000023"><a xlink:title=" ">
<path fill="none" stroke="#63b8ff" d="M418.09,-366.51C409.07,-357.11 399.13,-346.76 390.79,-338.07"/>
<polygon fill="#63b8ff" stroke="#63b8ff" points="415.63,-369 425.08,-373.79 420.68,-364.16 415.63,-369"/>
</a>
</g>
</g>
<!-- Node22&#45;&gt;Node10 -->
<g id="edge34_Node000022_Node000010" class="edge">
<title>Node22&#45;&gt;Node10</title>
<g id="a_edge34_Node000022_Node000010"><a xlink:title=" ">
<path fill="none" stroke="#63b8ff" d="M174.35,-141.51C223.16,-130.42 282.56,-116.92 329.77,-106.19"/>
<polygon fill="#63b8ff" stroke="#63b8ff" points="173.4,-138.14 164.42,-143.77 174.95,-144.96 173.4,-138.14"/>
</a>
</g>
</g>
<!-- Node26&#45;&gt;Node2 -->
<g id="edge50_Node000026_Node000002" class="edge">
<title>Node26&#45;&gt;Node2</title>
<g id="a_edge50_Node000026_Node000002"><a xlink:title=" ">
<path fill="none" stroke="#63b8ff" d="M1222.43,-445.09C1208.75,-435.32 1193.35,-424.32 1180.54,-415.17"/>
<polygon fill="#63b8ff" stroke="#63b8ff" points="1220.51,-448.03 1230.69,-450.99 1224.58,-442.33 1220.51,-448.03"/>
</a>
</g>
</g>
</g>
</svg>
