<?xml version="1.0" encoding="UTF-8" standalone="no"?>
<!DOCTYPE svg PUBLIC "-//W3C//DTD SVG 1.1//EN"
 "http://www.w3.org/Graphics/SVG/1.1/DTD/svg11.dtd">
<!-- Generated by graphviz version 12.2.1 (20241206.2353)
 -->
<!-- Title: include/prismspf/user_inputs/nucleation_parameters.h Pages: 1 -->
<svg width="2730pt" height="503pt"
 viewBox="0.00 0.00 2729.75 502.50" xmlns="http://www.w3.org/2000/svg" xmlns:xlink="http://www.w3.org/1999/xlink">
<g id="graph0" class="graph" transform="scale(1 1) rotate(0) translate(4 498.5)">
<title>include/prismspf/user_inputs/nucleation_parameters.h</title>
<!-- Node1 -->
<g id="Node000001" class="node">
<title>Node1</title>
<g id="a_Node000001"><a xlink:title=" ">
<polygon fill="#999999" stroke="#666666" points="592.88,-494.5 417.12,-494.5 417.12,-461 592.88,-461 592.88,-494.5"/>
<text text-anchor="start" x="425.12" y="-481" font-family="Helvetica,sans-Serif" font-size="10.00">include/prismspf/user</text>
<text text-anchor="middle" x="505" y="-468.25" font-family="Helvetica,sans-Serif" font-size="10.00">_inputs/nucleation_parameters.h</text>
</a>
</g>
</g>
<!-- Node2 -->
<g id="Node000002" class="node">
<title>Node2</title>
<g id="a_Node000002"><a xlink:href="conditional__ostreams_8h.html" target="_top" xlink:title=" ">
<polygon fill="white" stroke="#666666" points="417.88,-229.25 278.12,-229.25 278.12,-195.75 417.88,-195.75 417.88,-229.25"/>
<text text-anchor="start" x="286.12" y="-215.75" font-family="Helvetica,sans-Serif" font-size="10.00">prismspf/core/conditional</text>
<text text-anchor="middle" x="348" y="-203" font-family="Helvetica,sans-Serif" font-size="10.00">_ostreams.h</text>
</a>
</g>
</g>
<!-- Node1&#45;&gt;Node2 -->
<g id="edge1_Node000001_Node000002" class="edge">
<title>Node1&#45;&gt;Node2</title>
<g id="a_edge1_Node000001_Node000002"><a xlink:title=" ">
<path fill="none" stroke="#63b8ff" d="M495.42,-460.68C469.14,-416.62 395.77,-293.6 363.53,-239.54"/>
<polygon fill="#63b8ff" stroke="#63b8ff" points="366.56,-237.79 358.43,-231 360.55,-241.38 366.56,-237.79"/>
</a>
</g>
</g>
<!-- Node4 -->
<g id="Node000004" class="node">
<title>Node4</title>
<g id="a_Node000004"><a xlink:title=" ">
<polygon fill="#e0e0e0" stroke="#999999" points="626,-20.75 526,-20.75 526,0 626,0 626,-20.75"/>
<text text-anchor="middle" x="576" y="-7.25" font-family="Helvetica,sans-Serif" font-size="10.00">prismspf/config.h</text>
</a>
</g>
</g>
<!-- Node1&#45;&gt;Node4 -->
<g id="edge74_Node000001_Node000004" class="edge">
<title>Node1&#45;&gt;Node4</title>
<g id="a_edge74_Node000001_Node000004"><a xlink:title=" ">
<path fill="none" stroke="#63b8ff" d="M416.75,-470.94C271.99,-458.95 0,-425.09 0,-339.75 0,-339.75 0,-339.75 0,-142 0,-37.38 365.98,-16.55 514.49,-12.4"/>
<polygon fill="#63b8ff" stroke="#63b8ff" points="514.22,-15.91 524.13,-12.15 514.04,-8.92 514.22,-15.91"/>
</a>
</g>
</g>
<!-- Node5 -->
<g id="Node000005" class="node">
<title>Node5</title>
<g id="a_Node000005"><a xlink:href="exceptions_8h.html" target="_top" xlink:title=" ">
<polygon fill="white" stroke="#666666" points="866,-222.88 718,-222.88 718,-202.12 866,-202.12 866,-222.88"/>
<text text-anchor="middle" x="792" y="-209.38" font-family="Helvetica,sans-Serif" font-size="10.00">prismspf/core/exceptions.h</text>
</a>
</g>
</g>
<!-- Node1&#45;&gt;Node5 -->
<g id="edge4_Node000001_Node000005" class="edge">
<title>Node1&#45;&gt;Node5</title>
<g id="a_edge4_Node000001_Node000005"><a xlink:title=" ">
<path fill="none" stroke="#63b8ff" d="M522.52,-460.68C573.27,-414.13 720.08,-279.46 772.84,-231.08"/>
<polygon fill="#63b8ff" stroke="#63b8ff" points="775.16,-233.69 780.17,-224.35 770.43,-228.53 775.16,-233.69"/>
</a>
</g>
</g>
<!-- Node11 -->
<g id="Node000011" class="node">
<title>Node11</title>
<g id="a_Node000011"><a xlink:title=" ">
<polygon fill="#e0e0e0" stroke="#999999" points="1483.88,-20.75 1440.12,-20.75 1440.12,0 1483.88,0 1483.88,-20.75"/>
<text text-anchor="middle" x="1462" y="-7.25" font-family="Helvetica,sans-Serif" font-size="10.00">string</text>
</a>
</g>
</g>
<!-- Node1&#45;&gt;Node11 -->
<g id="edge76_Node000001_Node000011" class="edge">
<title>Node1&#45;&gt;Node11</title>
<g id="a_edge76_Node000001_Node000011"><a xlink:title=" ">
<path fill="none" stroke="#63b8ff" d="M593.28,-475.3C859.46,-469.77 1636,-444.64 1636,-339.75 1636,-339.75 1636,-339.75 1636,-211.5 1636,-138.05 1632.02,-106.51 1578,-56.75 1554.83,-35.41 1520.46,-23.66 1495.15,-17.5"/>
<polygon fill="#63b8ff" stroke="#63b8ff" points="1496.23,-14.16 1485.7,-15.38 1494.69,-20.99 1496.23,-14.16"/>
</a>
</g>
</g>
<!-- Node12 -->
<g id="Node000012" class="node">
<title>Node12</title>
<g id="a_Node000012"><a xlink:href="simulation__timer_8h.html" target="_top" xlink:title=" ">
<polygon fill="white" stroke="#666666" points="573.75,-229.25 436.25,-229.25 436.25,-195.75 573.75,-195.75 573.75,-229.25"/>
<text text-anchor="start" x="444.25" y="-215.75" font-family="Helvetica,sans-Serif" font-size="10.00">prismspf/core/simulation</text>
<text text-anchor="middle" x="505" y="-203" font-family="Helvetica,sans-Serif" font-size="10.00">_timer.h</text>
</a>
</g>
</g>
<!-- Node1&#45;&gt;Node12 -->
<g id="edge14_Node000001_Node000012" class="edge">
<title>Node1&#45;&gt;Node12</title>
<g id="a_edge14_Node000001_Node000012"><a xlink:title=" ">
<path fill="none" stroke="#63b8ff" d="M505,-460.68C505,-416.99 505,-295.65 505,-240.91"/>
<polygon fill="#63b8ff" stroke="#63b8ff" points="508.5,-241.21 505,-231.21 501.5,-241.21 508.5,-241.21"/>
</a>
</g>
</g>
<!-- Node13 -->
<g id="Node000013" class="node">
<title>Node13</title>
<g id="a_Node000013"><a xlink:href="nucleus_8h.html" target="_top" xlink:title=" ">
<polygon fill="white" stroke="#666666" points="184.38,-229.25 71.62,-229.25 71.62,-195.75 184.38,-195.75 184.38,-229.25"/>
<text text-anchor="start" x="79.62" y="-215.75" font-family="Helvetica,sans-Serif" font-size="10.00">prismspf/nucleation</text>
<text text-anchor="middle" x="128" y="-203" font-family="Helvetica,sans-Serif" font-size="10.00">/nucleus.h</text>
</a>
</g>
</g>
<!-- Node1&#45;&gt;Node13 -->
<g id="edge17_Node000001_Node000013" class="edge">
<title>Node1&#45;&gt;Node13</title>
<g id="a_edge17_Node000001_Node000013"><a xlink:title=" ">
<path fill="none" stroke="#63b8ff" d="M416.93,-474.54C328.87,-470.42 201.67,-458.64 167,-425 116.92,-376.42 119.17,-286.07 124.04,-240.81"/>
<polygon fill="#63b8ff" stroke="#63b8ff" points="127.49,-241.42 125.22,-231.07 120.54,-240.58 127.49,-241.42"/>
</a>
</g>
</g>
<!-- Node17 -->
<g id="Node000017" class="node">
<title>Node17</title>
<g id="a_Node000017"><a xlink:href="temporal__discretization_8h.html" target="_top" xlink:title=" ">
<polygon fill="white" stroke="#666666" points="319.75,-425 176.25,-425 176.25,-391.5 319.75,-391.5 319.75,-425"/>
<text text-anchor="start" x="184.25" y="-411.5" font-family="Helvetica,sans-Serif" font-size="10.00">prismspf/user_inputs</text>
<text text-anchor="middle" x="248" y="-398.75" font-family="Helvetica,sans-Serif" font-size="10.00">/temporal_discretization.h</text>
</a>
</g>
</g>
<!-- Node1&#45;&gt;Node17 -->
<g id="edge24_Node000001_Node000017" class="edge">
<title>Node1&#45;&gt;Node17</title>
<g id="a_edge24_Node000001_Node000017"><a xlink:title=" ">
<path fill="none" stroke="#63b8ff" d="M443.44,-460.58C406.39,-450.85 359.03,-438.41 320.21,-428.21"/>
<polygon fill="#63b8ff" stroke="#63b8ff" points="321.53,-424.94 310.96,-425.79 319.75,-431.71 321.53,-424.94"/>
</a>
</g>
</g>
<!-- Node26 -->
<g id="Node000026" class="node">
<title>Node26</title>
<g id="a_Node000026"><a xlink:href="utilities_8h.html" target="_top" xlink:title=" ">
<polygon fill="white" stroke="#666666" points="1884.25,-229.25 1785.75,-229.25 1785.75,-195.75 1884.25,-195.75 1884.25,-229.25"/>
<text text-anchor="start" x="1793.75" y="-215.75" font-family="Helvetica,sans-Serif" font-size="10.00">prismspf/utilities</text>
<text text-anchor="middle" x="1835" y="-203" font-family="Helvetica,sans-Serif" font-size="10.00">/utilities.h</text>
</a>
</g>
</g>
<!-- Node1&#45;&gt;Node26 -->
<g id="edge56_Node000001_Node000026" class="edge">
<title>Node1&#45;&gt;Node26</title>
<g id="a_edge56_Node000001_Node000026"><a xlink:title=" ">
<path fill="none" stroke="#63b8ff" d="M593.05,-476.73C844.84,-476.11 1555.81,-470.34 1650,-425 1693.26,-404.18 1779.35,-290.36 1816.84,-238.85"/>
<polygon fill="#63b8ff" stroke="#63b8ff" points="1819.55,-241.08 1822.58,-230.93 1813.88,-236.98 1819.55,-241.08"/>
</a>
</g>
</g>
<!-- Node36 -->
<g id="Node000036" class="node">
<title>Node36</title>
<g id="a_Node000036"><a xlink:title=" ">
<polygon fill="#e0e0e0" stroke="#999999" points="1751.5,-418.62 1702.5,-418.62 1702.5,-397.88 1751.5,-397.88 1751.5,-418.62"/>
<text text-anchor="middle" x="1727" y="-405.12" font-family="Helvetica,sans-Serif" font-size="10.00">climits</text>
</a>
</g>
</g>
<!-- Node1&#45;&gt;Node36 -->
<g id="edge75_Node000001_Node000036" class="edge">
<title>Node1&#45;&gt;Node36</title>
<g id="a_edge75_Node000001_Node000036"><a xlink:title=" ">
<path fill="none" stroke="#63b8ff" d="M592.99,-476.76C830.25,-476.16 1479.32,-470.3 1688,-425 1690.49,-424.46 1693.03,-423.77 1695.56,-422.99"/>
<polygon fill="#63b8ff" stroke="#63b8ff" points="1696.72,-426.29 1704.94,-419.61 1694.35,-419.71 1696.72,-426.29"/>
</a>
</g>
</g>
<!-- Node3 -->
<g id="Node000003" class="node">
<title>Node3</title>
<g id="a_Node000003"><a xlink:title=" ">
<polygon fill="#e0e0e0" stroke="#999999" points="505.62,-159.75 376.38,-159.75 376.38,-126.25 505.62,-126.25 505.62,-159.75"/>
<text text-anchor="start" x="384.38" y="-146.25" font-family="Helvetica,sans-Serif" font-size="10.00">deal.II/base/conditional</text>
<text text-anchor="middle" x="441" y="-133.5" font-family="Helvetica,sans-Serif" font-size="10.00">_ostream.h</text>
</a>
</g>
</g>
<!-- Node2&#45;&gt;Node3 -->
<g id="edge2_Node000002_Node000003" class="edge">
<title>Node2&#45;&gt;Node3</title>
<g id="a_edge2_Node000002_Node000003"><a xlink:title=" ">
<path fill="none" stroke="#63b8ff" d="M370.04,-195.5C381.88,-186.91 396.68,-176.16 409.7,-166.72"/>
<polygon fill="#63b8ff" stroke="#63b8ff" points="411.53,-169.71 417.57,-161 407.42,-164.05 411.53,-169.71"/>
</a>
</g>
</g>
<!-- Node2&#45;&gt;Node4 -->
<g id="edge3_Node000002_Node000004" class="edge">
<title>Node2&#45;&gt;Node4</title>
<g id="a_edge3_Node000002_Node000004"><a xlink:title=" ">
<path fill="none" stroke="#63b8ff" d="M347.77,-195.43C348.31,-176.97 351.71,-146.63 367,-126.25 407.35,-72.48 480.58,-40.71 528.76,-24.66"/>
<polygon fill="#63b8ff" stroke="#63b8ff" points="529.64,-28.05 538.09,-21.66 527.5,-21.39 529.64,-28.05"/>
</a>
</g>
</g>
<!-- Node5&#45;&gt;Node4 -->
<g id="edge13_Node000005_Node000004" class="edge">
<title>Node5&#45;&gt;Node4</title>
<g id="a_edge13_Node000005_Node000004"><a xlink:title=" ">
<path fill="none" stroke="#63b8ff" d="M748.03,-201.68C707.02,-191.75 649.74,-175.64 633,-159.75 623.32,-150.56 595.7,-70.48 582.8,-31.93"/>
<polygon fill="#63b8ff" stroke="#63b8ff" points="586.19,-31.04 579.71,-22.66 579.55,-33.25 586.19,-31.04"/>
</a>
</g>
</g>
<!-- Node6 -->
<g id="Node000006" class="node">
<title>Node6</title>
<g id="a_Node000006"><a xlink:title=" ">
<polygon fill="#e0e0e0" stroke="#999999" points="1395.75,-153.38 1258.25,-153.38 1258.25,-132.62 1395.75,-132.62 1395.75,-153.38"/>
<text text-anchor="middle" x="1327" y="-139.88" font-family="Helvetica,sans-Serif" font-size="10.00">deal.II/base/exceptions.h</text>
</a>
</g>
</g>
<!-- Node5&#45;&gt;Node6 -->
<g id="edge5_Node000005_Node000006" class="edge">
<title>Node5&#45;&gt;Node6</title>
<g id="a_edge5_Node000005_Node000006"><a xlink:title=" ">
<path fill="none" stroke="#63b8ff" d="M866.27,-205.08C956.92,-196.79 1114.71,-180.87 1249,-159.75 1255.99,-158.65 1263.3,-157.36 1270.52,-156"/>
<polygon fill="#63b8ff" stroke="#63b8ff" points="1271.11,-159.45 1280.26,-154.11 1269.78,-152.58 1271.11,-159.45"/>
</a>
</g>
</g>
<!-- Node7 -->
<g id="Node000007" class="node">
<title>Node7</title>
<g id="a_Node000007"><a xlink:href="types_8h.html" target="_top" xlink:title=" ">
<polygon fill="white" stroke="#666666" points="763.88,-153.38 642.12,-153.38 642.12,-132.62 763.88,-132.62 763.88,-153.38"/>
<text text-anchor="middle" x="703" y="-139.88" font-family="Helvetica,sans-Serif" font-size="10.00">prismspf/core/types.h</text>
</a>
</g>
</g>
<!-- Node5&#45;&gt;Node7 -->
<g id="edge6_Node000005_Node000007" class="edge">
<title>Node5&#45;&gt;Node7</title>
<g id="a_edge6_Node000005_Node000007"><a xlink:title=" ">
<path fill="none" stroke="#63b8ff" d="M779.25,-201.83C765.05,-191.06 741.87,-173.48 724.78,-160.52"/>
<polygon fill="#63b8ff" stroke="#63b8ff" points="727.31,-158.04 717.22,-154.79 723.08,-163.62 727.31,-158.04"/>
</a>
</g>
</g>
<!-- Node7&#45;&gt;Node4 -->
<g id="edge12_Node000007_Node000004" class="edge">
<title>Node7&#45;&gt;Node4</title>
<g id="a_edge12_Node000007_Node000004"><a xlink:title=" ">
<path fill="none" stroke="#63b8ff" d="M695.07,-132.17C681.8,-115.9 653.98,-82.62 628,-56.75 618.09,-46.88 606.41,-36.58 596.63,-28.29"/>
<polygon fill="#63b8ff" stroke="#63b8ff" points="599.04,-25.74 589.12,-22.01 594.55,-31.11 599.04,-25.74"/>
</a>
</g>
</g>
<!-- Node8 -->
<g id="Node000008" class="node">
<title>Node8</title>
<g id="a_Node000008"><a xlink:title=" ">
<polygon fill="#e0e0e0" stroke="#999999" points="847.12,-90.25 738.88,-90.25 738.88,-56.75 847.12,-56.75 847.12,-90.25"/>
<text text-anchor="start" x="746.88" y="-76.75" font-family="Helvetica,sans-Serif" font-size="10.00">deal.II/matrix_free</text>
<text text-anchor="middle" x="793" y="-64" font-family="Helvetica,sans-Serif" font-size="10.00">/evaluation_flags.h</text>
</a>
</g>
</g>
<!-- Node7&#45;&gt;Node8 -->
<g id="edge7_Node000007_Node000008" class="edge">
<title>Node7&#45;&gt;Node8</title>
<g id="a_edge7_Node000007_Node000008"><a xlink:title=" ">
<path fill="none" stroke="#63b8ff" d="M715.89,-132.33C728,-123.25 746.58,-109.31 762.47,-97.4"/>
<polygon fill="#63b8ff" stroke="#63b8ff" points="764.33,-100.38 770.23,-91.58 760.13,-94.78 764.33,-100.38"/>
</a>
</g>
</g>
<!-- Node9 -->
<g id="Node000009" class="node">
<title>Node9</title>
<g id="a_Node000009"><a xlink:href="type__enums_8h.html" target="_top" xlink:title=" ">
<polygon fill="white" stroke="#666666" points="1095.75,-90.25 988.25,-90.25 988.25,-56.75 1095.75,-56.75 1095.75,-90.25"/>
<text text-anchor="start" x="996.25" y="-76.75" font-family="Helvetica,sans-Serif" font-size="10.00">prismspf/core/type</text>
<text text-anchor="middle" x="1042" y="-64" font-family="Helvetica,sans-Serif" font-size="10.00">_enums.h</text>
</a>
</g>
</g>
<!-- Node7&#45;&gt;Node9 -->
<g id="edge8_Node000007_Node000009" class="edge">
<title>Node7&#45;&gt;Node9</title>
<g id="a_edge8_Node000007_Node000009"><a xlink:title=" ">
<path fill="none" stroke="#63b8ff" d="M752.29,-132.18C811.58,-120.38 911.27,-100.53 976.85,-87.47"/>
<polygon fill="#63b8ff" stroke="#63b8ff" points="977.27,-90.96 986.4,-85.57 975.9,-84.09 977.27,-90.96"/>
</a>
</g>
</g>
<!-- Node9&#45;&gt;Node4 -->
<g id="edge9_Node000009_Node000004" class="edge">
<title>Node9&#45;&gt;Node4</title>
<g id="a_edge9_Node000009_Node000004"><a xlink:title=" ">
<path fill="none" stroke="#63b8ff" d="M988.09,-65.43C900.9,-53.99 729.45,-31.5 637.58,-19.45"/>
<polygon fill="#63b8ff" stroke="#63b8ff" points="638.11,-15.99 627.74,-18.16 637.2,-22.93 638.11,-15.99"/>
</a>
</g>
</g>
<!-- Node10 -->
<g id="Node000010" class="node">
<title>Node10</title>
<g id="a_Node000010"><a xlink:title=" ">
<polygon fill="#e0e0e0" stroke="#999999" points="1066.5,-20.75 1017.5,-20.75 1017.5,0 1066.5,0 1066.5,-20.75"/>
<text text-anchor="middle" x="1042" y="-7.25" font-family="Helvetica,sans-Serif" font-size="10.00">cstdint</text>
</a>
</g>
</g>
<!-- Node9&#45;&gt;Node10 -->
<g id="edge10_Node000009_Node000010" class="edge">
<title>Node9&#45;&gt;Node10</title>
<g id="a_edge10_Node000009_Node000010"><a xlink:title=" ">
<path fill="none" stroke="#63b8ff" d="M1042,-56.44C1042,-49.1 1042,-40.32 1042,-32.46"/>
<polygon fill="#63b8ff" stroke="#63b8ff" points="1045.5,-32.73 1042,-22.73 1038.5,-32.73 1045.5,-32.73"/>
</a>
</g>
</g>
<!-- Node9&#45;&gt;Node11 -->
<g id="edge11_Node000009_Node000011" class="edge">
<title>Node9&#45;&gt;Node11</title>
<g id="a_edge11_Node000009_Node000011"><a xlink:title=" ">
<path fill="none" stroke="#63b8ff" d="M1096.05,-64.63C1184.19,-51.81 1356.32,-26.76 1428.69,-16.22"/>
<polygon fill="#63b8ff" stroke="#63b8ff" points="1428.92,-19.73 1438.31,-14.82 1427.91,-12.8 1428.92,-19.73"/>
</a>
</g>
</g>
<!-- Node12&#45;&gt;Node4 -->
<g id="edge16_Node000012_Node000004" class="edge">
<title>Node12&#45;&gt;Node4</title>
<g id="a_edge16_Node000012_Node000004"><a xlink:title=" ">
<path fill="none" stroke="#63b8ff" d="M510.69,-195.46C523.51,-159.32 554.65,-71.55 568.79,-31.68"/>
<polygon fill="#63b8ff" stroke="#63b8ff" points="572.05,-32.98 572.09,-22.39 565.45,-30.64 572.05,-32.98"/>
</a>
</g>
</g>
<!-- Node12&#45;&gt;Node7 -->
<g id="edge15_Node000012_Node000007" class="edge">
<title>Node12&#45;&gt;Node7</title>
<g id="a_edge15_Node000012_Node000007"><a xlink:title=" ">
<path fill="none" stroke="#63b8ff" d="M552.43,-195.33C586.3,-183.78 631.35,-168.43 663.33,-157.53"/>
<polygon fill="#63b8ff" stroke="#63b8ff" points="664.28,-160.9 672.62,-154.36 662.02,-154.27 664.28,-160.9"/>
</a>
</g>
</g>
<!-- Node13&#45;&gt;Node4 -->
<g id="edge20_Node000013_Node000004" class="edge">
<title>Node13&#45;&gt;Node4</title>
<g id="a_edge20_Node000013_Node000004"><a xlink:title=" ">
<path fill="none" stroke="#63b8ff" d="M125.25,-195.37C122.97,-177.66 121.46,-148.75 131,-126.25 147.75,-86.75 159.59,-75.86 198,-56.75 252.13,-29.83 421.9,-18.21 514.42,-13.77"/>
<polygon fill="#63b8ff" stroke="#63b8ff" points="514.51,-17.27 524.34,-13.31 514.18,-10.28 514.51,-17.27"/>
</a>
</g>
</g>
<!-- Node13&#45;&gt;Node7 -->
<g id="edge19_Node000013_Node000007" class="edge">
<title>Node13&#45;&gt;Node7</title>
<g id="a_edge19_Node000013_Node000007"><a xlink:title=" ">
<path fill="none" stroke="#63b8ff" d="M184.71,-204.84C289.86,-192.5 514.91,-166.08 630.78,-152.48"/>
<polygon fill="#63b8ff" stroke="#63b8ff" points="630.95,-155.98 640.48,-151.34 630.14,-149.03 630.95,-155.98"/>
</a>
</g>
</g>
<!-- Node13&#45;&gt;Node11 -->
<g id="edge23_Node000013_Node000011" class="edge">
<title>Node13&#45;&gt;Node11</title>
<g id="a_edge23_Node000013_Node000011"><a xlink:title=" ">
<path fill="none" stroke="#63b8ff" d="M184.55,-204.66C210.29,-201.68 241.16,-198.3 269,-195.75 492.64,-175.28 556.41,-219.1 773,-159.75 871.72,-132.7 880.59,-84.91 979,-56.75 1063.84,-32.48 1333.38,-17.54 1428.43,-12.92"/>
<polygon fill="#63b8ff" stroke="#63b8ff" points="1428.31,-16.43 1438.13,-12.45 1427.97,-9.44 1428.31,-16.43"/>
</a>
</g>
</g>
<!-- Node14 -->
<g id="Node000014" class="node">
<title>Node14</title>
<g id="a_Node000014"><a xlink:title=" ">
<polygon fill="#e0e0e0" stroke="#999999" points="1137.5,-153.38 1028.5,-153.38 1028.5,-132.62 1137.5,-132.62 1137.5,-153.38"/>
<text text-anchor="middle" x="1083" y="-139.88" font-family="Helvetica,sans-Serif" font-size="10.00">deal.II/base/point.h</text>
</a>
</g>
</g>
<!-- Node13&#45;&gt;Node14 -->
<g id="edge18_Node000013_Node000014" class="edge">
<title>Node13&#45;&gt;Node14</title>
<g id="a_edge18_Node000013_Node000014"><a xlink:title=" ">
<path fill="none" stroke="#63b8ff" d="M184.87,-204.35C210.53,-201.33 241.26,-198 269,-195.75 584.81,-170.15 665.79,-191.97 981,-159.75 992.62,-158.56 1004.93,-156.96 1016.83,-155.23"/>
<polygon fill="#63b8ff" stroke="#63b8ff" points="1017.21,-158.71 1026.58,-153.76 1016.17,-151.79 1017.21,-158.71"/>
</a>
</g>
</g>
<!-- Node15 -->
<g id="Node000015" class="node">
<title>Node15</title>
<g id="a_Node000015"><a xlink:title=" ">
<polygon fill="#e0e0e0" stroke="#999999" points="183.88,-153.38 140.12,-153.38 140.12,-132.62 183.88,-132.62 183.88,-153.38"/>
<text text-anchor="middle" x="162" y="-139.88" font-family="Helvetica,sans-Serif" font-size="10.00">mpi.h</text>
</a>
</g>
</g>
<!-- Node13&#45;&gt;Node15 -->
<g id="edge21_Node000013_Node000015" class="edge">
<title>Node13&#45;&gt;Node15</title>
<g id="a_edge21_Node000013_Node000015"><a xlink:title=" ">
<path fill="none" stroke="#63b8ff" d="M136.06,-195.5C140.79,-186.1 146.83,-174.12 151.88,-164.09"/>
<polygon fill="#63b8ff" stroke="#63b8ff" points="155,-165.68 156.37,-155.17 148.75,-162.53 155,-165.68"/>
</a>
</g>
</g>
<!-- Node16 -->
<g id="Node000016" class="node">
<title>Node16</title>
<g id="a_Node000016"><a xlink:title=" ">
<polygon fill="#e0e0e0" stroke="#999999" points="84.25,-153.38 27.75,-153.38 27.75,-132.62 84.25,-132.62 84.25,-153.38"/>
<text text-anchor="middle" x="56" y="-139.88" font-family="Helvetica,sans-Serif" font-size="10.00">ostream</text>
</a>
</g>
</g>
<!-- Node13&#45;&gt;Node16 -->
<g id="edge22_Node000013_Node000016" class="edge">
<title>Node13&#45;&gt;Node16</title>
<g id="a_edge22_Node000013_Node000016"><a xlink:title=" ">
<path fill="none" stroke="#63b8ff" d="M110.94,-195.5C100.04,-185.29 85.91,-172.05 74.71,-161.54"/>
<polygon fill="#63b8ff" stroke="#63b8ff" points="77.27,-159.14 67.58,-154.86 72.48,-164.25 77.27,-159.14"/>
</a>
</g>
</g>
<!-- Node17&#45;&gt;Node2 -->
<g id="edge25_Node000017_Node000002" class="edge">
<title>Node17&#45;&gt;Node2</title>
<g id="a_edge25_Node000017_Node000002"><a xlink:title=" ">
<path fill="none" stroke="#63b8ff" d="M256.35,-391.06C273.64,-357.57 313.47,-280.41 334.47,-239.71"/>
<polygon fill="#63b8ff" stroke="#63b8ff" points="337.57,-241.34 339.05,-230.85 331.35,-238.13 337.57,-241.34"/>
</a>
</g>
</g>
<!-- Node17&#45;&gt;Node4 -->
<g id="edge55_Node000017_Node000004" class="edge">
<title>Node17&#45;&gt;Node4</title>
<g id="a_edge55_Node000017_Node000004"><a xlink:title=" ">
<path fill="none" stroke="#63b8ff" d="M240.54,-391.15C230,-366.87 212,-319.2 212,-276.62 212,-276.62 212,-276.62 212,-142 212,-126.76 139.38,-138.08 340,-56.75 396.56,-33.82 465.53,-22.28 514.27,-16.6"/>
<polygon fill="#63b8ff" stroke="#63b8ff" points="514.53,-20.09 524.08,-15.51 513.75,-13.14 514.53,-20.09"/>
</a>
</g>
</g>
<!-- Node18 -->
<g id="Node000018" class="node">
<title>Node18</title>
<g id="a_Node000018"><a xlink:href="solve__block_8h.html" target="_top" xlink:title=" ">
<polygon fill="white" stroke="#666666" points="1047,-355.5 935,-355.5 935,-322 1047,-322 1047,-355.5"/>
<text text-anchor="start" x="943" y="-342" font-family="Helvetica,sans-Serif" font-size="10.00">prismspf/core/solve</text>
<text text-anchor="middle" x="991" y="-329.25" font-family="Helvetica,sans-Serif" font-size="10.00">_block.h</text>
</a>
</g>
</g>
<!-- Node17&#45;&gt;Node18 -->
<g id="edge26_Node000017_Node000018" class="edge">
<title>Node17&#45;&gt;Node18</title>
<g id="a_edge26_Node000017_Node000018"><a xlink:title=" ">
<path fill="none" stroke="#63b8ff" d="M319.92,-400.72C463.38,-387.68 783.34,-358.62 923.28,-345.9"/>
<polygon fill="#63b8ff" stroke="#63b8ff" points="923.5,-349.4 933.14,-345.01 922.87,-342.43 923.5,-349.4"/>
</a>
</g>
</g>
<!-- Node18&#45;&gt;Node4 -->
<g id="edge51_Node000018_Node000004" class="edge">
<title>Node18&#45;&gt;Node4</title>
<g id="a_edge51_Node000018_Node000004"><a xlink:title=" ">
<path fill="none" stroke="#63b8ff" d="M934.56,-338.27C779.92,-338.38 355.22,-329.39 269,-229.25 204.41,-154.23 214.5,-165.78 398,-56.75 433.5,-35.66 478.63,-24.29 514.56,-18.21"/>
<polygon fill="#63b8ff" stroke="#63b8ff" points="515.06,-21.68 524.39,-16.65 513.96,-14.76 515.06,-21.68"/>
</a>
</g>
</g>
<!-- Node18&#45;&gt;Node6 -->
<g id="edge27_Node000018_Node000006" class="edge">
<title>Node18&#45;&gt;Node6</title>
<g id="a_edge27_Node000018_Node000006"><a xlink:title=" ">
<path fill="none" stroke="#63b8ff" d="M1047.49,-335.62C1103.02,-331.52 1188.84,-319.73 1255,-286 1287.99,-269.18 1299.07,-262.18 1316,-229.25 1326.27,-209.28 1328.27,-183.33 1328.17,-165.33"/>
<polygon fill="#63b8ff" stroke="#63b8ff" points="1331.67,-165.23 1327.86,-155.34 1324.67,-165.45 1331.67,-165.23"/>
</a>
</g>
</g>
<!-- Node18&#45;&gt;Node7 -->
<g id="edge50_Node000018_Node000007" class="edge">
<title>Node18&#45;&gt;Node7</title>
<g id="a_edge50_Node000018_Node000007"><a xlink:title=" ">
<path fill="none" stroke="#63b8ff" d="M934.58,-329.89C840.25,-315.42 657.37,-281.21 622,-229.25 613.62,-216.94 614.85,-208.81 622,-195.75 631.14,-179.06 648.21,-166.97 664.33,-158.7"/>
<polygon fill="#63b8ff" stroke="#63b8ff" points="665.78,-161.88 673.32,-154.45 662.79,-155.56 665.78,-161.88"/>
</a>
</g>
</g>
<!-- Node18&#45;&gt;Node8 -->
<g id="edge28_Node000018_Node000008" class="edge">
<title>Node18&#45;&gt;Node8</title>
<g id="a_edge28_Node000018_Node000008"><a xlink:title=" ">
<path fill="none" stroke="#63b8ff" d="M977.72,-321.67C946.92,-284.27 871.42,-192.22 848,-159.75 833.87,-140.17 819.1,-117.11 808.43,-99.92"/>
<polygon fill="#63b8ff" stroke="#63b8ff" points="811.68,-98.51 803.45,-91.83 805.72,-102.18 811.68,-98.51"/>
</a>
</g>
</g>
<!-- Node18&#45;&gt;Node9 -->
<g id="edge49_Node000018_Node000009" class="edge">
<title>Node18&#45;&gt;Node9</title>
<g id="a_edge49_Node000018_Node000009"><a xlink:title=" ">
<path fill="none" stroke="#63b8ff" d="M1047.12,-336.81C1149.73,-331.53 1362.95,-303.07 1427,-159.75 1433.07,-146.16 1436.8,-137.46 1427,-126.25 1406.33,-102.61 1211.91,-85.97 1107.53,-78.67"/>
<polygon fill="#63b8ff" stroke="#63b8ff" points="1107.92,-75.18 1097.7,-77.99 1107.43,-82.17 1107.92,-75.18"/>
</a>
</g>
</g>
<!-- Node18&#45;&gt;Node11 -->
<g id="edge53_Node000018_Node000011" class="edge">
<title>Node18&#45;&gt;Node11</title>
<g id="a_edge53_Node000018_Node000011"><a xlink:title=" ">
<path fill="none" stroke="#63b8ff" d="M1047.29,-338.08C1197.77,-337.46 1598,-325.3 1598,-213.5 1598,-213.5 1598,-213.5 1598,-142 1598,-84.87 1534.81,-44.93 1494.57,-25.29"/>
<polygon fill="#63b8ff" stroke="#63b8ff" points="1496.06,-22.12 1485.52,-21.05 1493.09,-28.46 1496.06,-22.12"/>
</a>
</g>
</g>
<!-- Node19 -->
<g id="Node000019" class="node">
<title>Node19</title>
<g id="a_Node000019"><a xlink:href="dependencies_8h.html" target="_top" xlink:title=" ">
<polygon fill="white" stroke="#666666" points="1132.12,-286 969.88,-286 969.88,-265.25 1132.12,-265.25 1132.12,-286"/>
<text text-anchor="middle" x="1051" y="-272.5" font-family="Helvetica,sans-Serif" font-size="10.00">prismspf/core/dependencies.h</text>
</a>
</g>
</g>
<!-- Node18&#45;&gt;Node19 -->
<g id="edge29_Node000018_Node000019" class="edge">
<title>Node18&#45;&gt;Node19</title>
<g id="a_edge29_Node000018_Node000019"><a xlink:title=" ">
<path fill="none" stroke="#63b8ff" d="M1006.76,-321.69C1014.91,-313.39 1024.87,-303.24 1033.28,-294.68"/>
<polygon fill="#63b8ff" stroke="#63b8ff" points="1035.77,-297.14 1040.28,-287.55 1030.78,-292.23 1035.77,-297.14"/>
</a>
</g>
</g>
<!-- Node23 -->
<g id="Node000023" class="node">
<title>Node23</title>
<g id="a_Node000023"><a xlink:title=" ">
<polygon fill="#e0e0e0" stroke="#999999" points="1240.38,-153.38 1193.62,-153.38 1193.62,-132.62 1240.38,-132.62 1240.38,-153.38"/>
<text text-anchor="middle" x="1217" y="-139.88" font-family="Helvetica,sans-Serif" font-size="10.00">vector</text>
</a>
</g>
</g>
<!-- Node18&#45;&gt;Node23 -->
<g id="edge54_Node000018_Node000023" class="edge">
<title>Node18&#45;&gt;Node23</title>
<g id="a_edge54_Node000018_Node000023"><a xlink:title=" ">
<path fill="none" stroke="#63b8ff" d="M1047.37,-335.84C1118,-330.04 1236.38,-308.31 1291,-229.25 1299.46,-217 1297.88,-208.95 1291,-195.75 1285.81,-185.79 1263.26,-170.77 1244.4,-159.48"/>
<polygon fill="#63b8ff" stroke="#63b8ff" points="1246.41,-156.6 1236.02,-154.56 1242.87,-162.64 1246.41,-156.6"/>
</a>
</g>
</g>
<!-- Node25 -->
<g id="Node000025" class="node">
<title>Node25</title>
<g id="a_Node000025"><a xlink:title=" ">
<polygon fill="#e0e0e0" stroke="#999999" points="661.5,-222.88 630.5,-222.88 630.5,-202.12 661.5,-202.12 661.5,-222.88"/>
<text text-anchor="middle" x="646" y="-209.38" font-family="Helvetica,sans-Serif" font-size="10.00">set</text>
</a>
</g>
</g>
<!-- Node18&#45;&gt;Node25 -->
<g id="edge52_Node000018_Node000025" class="edge">
<title>Node18&#45;&gt;Node25</title>
<g id="a_edge52_Node000018_Node000025"><a xlink:title=" ">
<path fill="none" stroke="#63b8ff" d="M935.98,-321.58C872.35,-302.25 764.95,-267.65 676,-229.25 674.69,-228.69 673.37,-228.09 672.03,-227.47"/>
<polygon fill="#63b8ff" stroke="#63b8ff" points="673.84,-224.46 663.33,-223.13 670.72,-230.72 673.84,-224.46"/>
</a>
</g>
</g>
<!-- Node19&#45;&gt;Node2 -->
<g id="edge33_Node000019_Node000002" class="edge">
<title>Node19&#45;&gt;Node2</title>
<g id="a_edge33_Node000019_Node000002"><a xlink:title=" ">
<path fill="none" stroke="#63b8ff" d="M969.39,-271.92C852.11,-267.33 628.95,-255.9 429.43,-229.47"/>
<polygon fill="#63b8ff" stroke="#63b8ff" points="430.01,-226.02 419.64,-228.15 429.08,-232.95 430.01,-226.02"/>
</a>
</g>
</g>
<!-- Node19&#45;&gt;Node4 -->
<g id="edge44_Node000019_Node000004" class="edge">
<title>Node19&#45;&gt;Node4</title>
<g id="a_edge44_Node000019_Node000004"><a xlink:title=" ">
<path fill="none" stroke="#63b8ff" d="M969.52,-269.29C883.44,-262.69 754.04,-249.76 709,-229.25 688.51,-219.92 689.07,-209.18 671,-195.75 646.65,-177.66 631.78,-183.58 613,-159.75 583.25,-122 577.07,-63.43 576.01,-32.37"/>
<polygon fill="#63b8ff" stroke="#63b8ff" points="579.51,-32.68 575.84,-22.74 572.51,-32.8 579.51,-32.68"/>
</a>
</g>
</g>
<!-- Node19&#45;&gt;Node6 -->
<g id="edge30_Node000019_Node000006" class="edge">
<title>Node19&#45;&gt;Node6</title>
<g id="a_edge30_Node000019_Node000006"><a xlink:title=" ">
<path fill="none" stroke="#63b8ff" d="M1132.51,-267.46C1192.24,-260.72 1266.91,-248.69 1291,-229.25 1310.78,-213.28 1319.87,-184.48 1323.92,-164.81"/>
<polygon fill="#63b8ff" stroke="#63b8ff" points="1327.32,-165.63 1325.61,-155.18 1320.43,-164.42 1327.32,-165.63"/>
</a>
</g>
</g>
<!-- Node19&#45;&gt;Node7 -->
<g id="edge43_Node000019_Node000007" class="edge">
<title>Node19&#45;&gt;Node7</title>
<g id="a_edge43_Node000019_Node000007"><a xlink:title=" ">
<path fill="none" stroke="#63b8ff" d="M1031.29,-264.78C999.11,-248.94 933.04,-217.39 875,-195.75 834,-180.47 786.27,-166.39 751.51,-156.79"/>
<polygon fill="#63b8ff" stroke="#63b8ff" points="752.73,-153.5 742.16,-154.23 750.89,-160.25 752.73,-153.5"/>
</a>
</g>
</g>
<!-- Node19&#45;&gt;Node8 -->
<g id="edge32_Node000019_Node000008" class="edge">
<title>Node19&#45;&gt;Node8</title>
<g id="a_edge32_Node000019_Node000008"><a xlink:title=" ">
<path fill="none" stroke="#63b8ff" d="M1037.61,-265C1025,-255.9 1005.61,-241.79 989,-229.25 969.67,-214.65 965.65,-209.92 946,-195.75 922.61,-178.87 914.97,-177.19 892,-159.75 866.15,-140.12 838.27,-115.8 818.7,-98.17"/>
<polygon fill="#63b8ff" stroke="#63b8ff" points="821.22,-95.72 811.46,-91.6 816.51,-100.91 821.22,-95.72"/>
</a>
</g>
</g>
<!-- Node19&#45;&gt;Node9 -->
<g id="edge42_Node000019_Node000009" class="edge">
<title>Node19&#45;&gt;Node9</title>
<g id="a_edge42_Node000019_Node000009"><a xlink:title=" ">
<path fill="none" stroke="#63b8ff" d="M1132.6,-268.56C1260.74,-256.07 1486.55,-220.25 1405,-126.25 1367.26,-82.74 1201.5,-74.89 1107.57,-74.02"/>
<polygon fill="#63b8ff" stroke="#63b8ff" points="1107.74,-70.52 1097.72,-73.95 1107.69,-77.52 1107.74,-70.52"/>
</a>
</g>
</g>
<!-- Node19&#45;&gt;Node11 -->
<g id="edge47_Node000019_Node000011" class="edge">
<title>Node19&#45;&gt;Node11</title>
<g id="a_edge47_Node000019_Node000011"><a xlink:title=" ">
<path fill="none" stroke="#63b8ff" d="M1132.42,-271.91C1218.58,-267.62 1347.59,-256.7 1388,-229.25 1453.71,-184.62 1461.99,-77.88 1462.41,-32.44"/>
<polygon fill="#63b8ff" stroke="#63b8ff" points="1465.91,-32.61 1462.36,-22.63 1458.91,-32.65 1465.91,-32.61"/>
</a>
</g>
</g>
<!-- Node20 -->
<g id="Node000020" class="node">
<title>Node20</title>
<g id="a_Node000020"><a xlink:title=" ">
<polygon fill="#e0e0e0" stroke="#999999" points="1281.5,-222.88 1160.5,-222.88 1160.5,-202.12 1281.5,-202.12 1281.5,-222.88"/>
<text text-anchor="middle" x="1221" y="-209.38" font-family="Helvetica,sans-Serif" font-size="10.00">deal.II/base/utilities.h</text>
</a>
</g>
</g>
<!-- Node19&#45;&gt;Node20 -->
<g id="edge31_Node000019_Node000020" class="edge">
<title>Node19&#45;&gt;Node20</title>
<g id="a_edge31_Node000019_Node000020"><a xlink:title=" ">
<path fill="none" stroke="#63b8ff" d="M1078.31,-264.8C1106.69,-254.6 1151.31,-238.56 1183.1,-227.13"/>
<polygon fill="#63b8ff" stroke="#63b8ff" points="1184.1,-230.49 1192.33,-223.81 1181.74,-223.9 1184.1,-230.49"/>
</a>
</g>
</g>
<!-- Node21 -->
<g id="Node000021" class="node">
<title>Node21</title>
<g id="a_Node000021"><a xlink:href="field__attributes_8h.html" target="_top" xlink:title=" ">
<polygon fill="white" stroke="#666666" points="1104.38,-229.25 997.62,-229.25 997.62,-195.75 1104.38,-195.75 1104.38,-229.25"/>
<text text-anchor="start" x="1005.62" y="-215.75" font-family="Helvetica,sans-Serif" font-size="10.00">prismspf/core/field</text>
<text text-anchor="middle" x="1051" y="-203" font-family="Helvetica,sans-Serif" font-size="10.00">_attributes.h</text>
</a>
</g>
</g>
<!-- Node19&#45;&gt;Node21 -->
<g id="edge34_Node000019_Node000021" class="edge">
<title>Node19&#45;&gt;Node21</title>
<g id="a_edge34_Node000019_Node000021"><a xlink:title=" ">
<path fill="none" stroke="#63b8ff" d="M1051,-264.8C1051,-258.38 1051,-249.65 1051,-241.2"/>
<polygon fill="#63b8ff" stroke="#63b8ff" points="1054.5,-241.25 1051,-231.25 1047.5,-241.25 1054.5,-241.25"/>
</a>
</g>
</g>
<!-- Node19&#45;&gt;Node23 -->
<g id="edge48_Node000019_Node000023" class="edge">
<title>Node19&#45;&gt;Node23</title>
<g id="a_edge48_Node000019_Node000023"><a xlink:title=" ">
<path fill="none" stroke="#63b8ff" d="M1065.02,-264.84C1077.74,-255.84 1096.91,-242.02 1113,-229.25 1130.9,-215.05 1134.39,-210.31 1152,-195.75 1166.35,-183.88 1182.76,-170.82 1195.5,-160.79"/>
<polygon fill="#63b8ff" stroke="#63b8ff" points="1197.53,-163.65 1203.24,-154.72 1193.21,-158.14 1197.53,-163.65"/>
</a>
</g>
</g>
<!-- Node24 -->
<g id="Node000024" class="node">
<title>Node24</title>
<g id="a_Node000024"><a xlink:title=" ">
<polygon fill="#e0e0e0" stroke="#999999" points="1569.75,-153.38 1528.25,-153.38 1528.25,-132.62 1569.75,-132.62 1569.75,-153.38"/>
<text text-anchor="middle" x="1549" y="-139.88" font-family="Helvetica,sans-Serif" font-size="10.00">array</text>
</a>
</g>
</g>
<!-- Node19&#45;&gt;Node24 -->
<g id="edge45_Node000019_Node000024" class="edge">
<title>Node19&#45;&gt;Node24</title>
<g id="a_edge45_Node000019_Node000024"><a xlink:title=" ">
<path fill="none" stroke="#63b8ff" d="M1132.19,-273.03C1238.5,-269.73 1418.13,-259.71 1476,-229.25 1504.21,-214.4 1526.18,-183.72 1538.36,-163.5"/>
<polygon fill="#63b8ff" stroke="#63b8ff" points="1541.25,-165.49 1543.2,-155.08 1535.18,-162 1541.25,-165.49"/>
</a>
</g>
</g>
<!-- Node19&#45;&gt;Node25 -->
<g id="edge46_Node000019_Node000025" class="edge">
<title>Node19&#45;&gt;Node25</title>
<g id="a_edge46_Node000019_Node000025"><a xlink:title=" ">
<path fill="none" stroke="#63b8ff" d="M969.5,-273.22C892.32,-269.93 773.99,-259.77 676,-229.25 674.64,-228.83 673.27,-228.34 671.91,-227.81"/>
<polygon fill="#63b8ff" stroke="#63b8ff" points="673.65,-224.76 663.1,-223.76 670.72,-231.12 673.65,-224.76"/>
</a>
</g>
</g>
<!-- Node21&#45;&gt;Node4 -->
<g id="edge38_Node000021_Node000004" class="edge">
<title>Node21&#45;&gt;Node4</title>
<g id="a_edge38_Node000021_Node000004"><a xlink:title=" ">
<path fill="none" stroke="#63b8ff" d="M997.29,-197.25C973.38,-189.04 945.97,-176.88 925,-159.75 882.33,-124.88 902.37,-86.51 856,-56.75 820.74,-34.12 708.66,-21.53 637.45,-15.63"/>
<polygon fill="#63b8ff" stroke="#63b8ff" points="638.15,-12.17 627.9,-14.86 637.59,-19.15 638.15,-12.17"/>
</a>
</g>
</g>
<!-- Node21&#45;&gt;Node6 -->
<g id="edge35_Node000021_Node000006" class="edge">
<title>Node21&#45;&gt;Node6</title>
<g id="a_edge35_Node000021_Node000006"><a xlink:title=" ">
<path fill="none" stroke="#63b8ff" d="M1104.87,-198.33C1154.35,-186.22 1227.18,-168.41 1275.8,-156.52"/>
<polygon fill="#63b8ff" stroke="#63b8ff" points="1276.34,-159.99 1285.23,-154.22 1274.68,-153.19 1276.34,-159.99"/>
</a>
</g>
</g>
<!-- Node21&#45;&gt;Node7 -->
<g id="edge37_Node000021_Node000007" class="edge">
<title>Node21&#45;&gt;Node7</title>
<g id="a_edge37_Node000021_Node000007"><a xlink:title=" ">
<path fill="none" stroke="#63b8ff" d="M997.39,-201.1C934.67,-188.94 831.01,-168.83 764.92,-156.01"/>
<polygon fill="#63b8ff" stroke="#63b8ff" points="765.81,-152.62 755.33,-154.15 764.48,-159.49 765.81,-152.62"/>
</a>
</g>
</g>
<!-- Node21&#45;&gt;Node9 -->
<g id="edge36_Node000021_Node000009" class="edge">
<title>Node21&#45;&gt;Node9</title>
<g id="a_edge36_Node000021_Node000009"><a xlink:title=" ">
<path fill="none" stroke="#63b8ff" d="M1038.18,-195.32C1031.32,-185.61 1023.57,-172.67 1020,-159.75 1014.55,-140.05 1020.8,-117.67 1028.01,-100.79"/>
<polygon fill="#63b8ff" stroke="#63b8ff" points="1031.08,-102.48 1032.13,-91.94 1024.73,-99.53 1031.08,-102.48"/>
</a>
</g>
</g>
<!-- Node21&#45;&gt;Node11 -->
<g id="edge40_Node000021_Node000011" class="edge">
<title>Node21&#45;&gt;Node11</title>
<g id="a_edge40_Node000021_Node000011"><a xlink:title=" ">
<path fill="none" stroke="#63b8ff" d="M1085.43,-195.34C1104.24,-185.93 1127.58,-173.28 1147,-159.75 1165.47,-146.88 1165.9,-138.17 1185,-126.25 1266.89,-75.16 1375.45,-37.82 1429.1,-21.11"/>
<polygon fill="#63b8ff" stroke="#63b8ff" points="1430.01,-24.49 1438.54,-18.21 1427.96,-17.8 1430.01,-24.49"/>
</a>
</g>
</g>
<!-- Node22 -->
<g id="Node000022" class="node">
<title>Node22</title>
<g id="a_Node000022"><a xlink:title=" ">
<polygon fill="#e0e0e0" stroke="#999999" points="971.88,-153.38 934.12,-153.38 934.12,-132.62 971.88,-132.62 971.88,-153.38"/>
<text text-anchor="middle" x="953" y="-139.88" font-family="Helvetica,sans-Serif" font-size="10.00">map</text>
</a>
</g>
</g>
<!-- Node21&#45;&gt;Node22 -->
<g id="edge39_Node000021_Node000022" class="edge">
<title>Node21&#45;&gt;Node22</title>
<g id="a_edge39_Node000021_Node000022"><a xlink:title=" ">
<path fill="none" stroke="#63b8ff" d="M1027.78,-195.5C1012.36,-184.89 992.19,-170.99 976.68,-160.31"/>
<polygon fill="#63b8ff" stroke="#63b8ff" points="978.73,-157.47 968.51,-154.68 974.76,-163.24 978.73,-157.47"/>
</a>
</g>
</g>
<!-- Node21&#45;&gt;Node23 -->
<g id="edge41_Node000021_Node000023" class="edge">
<title>Node21&#45;&gt;Node23</title>
<g id="a_edge41_Node000021_Node000023"><a xlink:title=" ">
<path fill="none" stroke="#63b8ff" d="M1092.05,-195.29C1117.44,-185.2 1150.67,-171.87 1180,-159.75 1181.31,-159.21 1182.64,-158.66 1183.98,-158.1"/>
<polygon fill="#63b8ff" stroke="#63b8ff" points="1185.08,-161.43 1192.94,-154.32 1182.36,-154.98 1185.08,-161.43"/>
</a>
</g>
</g>
<!-- Node26&#45;&gt;Node4 -->
<g id="edge69_Node000026_Node000004" class="edge">
<title>Node26&#45;&gt;Node4</title>
<g id="a_edge69_Node000026_Node000004"><a xlink:title=" ">
<path fill="none" stroke="#63b8ff" d="M1806.4,-195.25C1770.41,-175.59 1706.13,-143.04 1647,-126.25 1274.56,-20.51 804.06,-10.67 637.69,-10.77"/>
<polygon fill="#63b8ff" stroke="#63b8ff" points="637.75,-7.27 627.75,-10.79 637.76,-14.27 637.75,-7.27"/>
</a>
</g>
</g>
<!-- Node26&#45;&gt;Node6 -->
<g id="edge58_Node000026_Node000006" class="edge">
<title>Node26&#45;&gt;Node6</title>
<g id="a_edge58_Node000026_Node000006"><a xlink:title=" ">
<path fill="none" stroke="#63b8ff" d="M1785.37,-204.9C1697.44,-193.22 1513.62,-168.8 1407.41,-154.68"/>
<polygon fill="#63b8ff" stroke="#63b8ff" points="1407.99,-151.23 1397.62,-153.38 1407.07,-158.17 1407.99,-151.23"/>
</a>
</g>
</g>
<!-- Node26&#45;&gt;Node8 -->
<g id="edge62_Node000026_Node000008" class="edge">
<title>Node26&#45;&gt;Node8</title>
<g id="a_edge62_Node000026_Node000008"><a xlink:title=" ">
<path fill="none" stroke="#63b8ff" d="M1790.88,-195.25C1729.23,-172.82 1620.22,-134.21 1579,-126.25 1316.7,-75.62 1245.45,-109.52 979,-90.25 939.04,-87.36 894.3,-83.59 858.72,-80.46"/>
<polygon fill="#63b8ff" stroke="#63b8ff" points="859.28,-77 849.01,-79.6 858.66,-83.97 859.28,-77"/>
</a>
</g>
</g>
<!-- Node26&#45;&gt;Node11 -->
<g id="edge71_Node000026_Node000011" class="edge">
<title>Node26&#45;&gt;Node11</title>
<g id="a_edge71_Node000026_Node000011"><a xlink:title=" ">
<path fill="none" stroke="#63b8ff" d="M1811.58,-195.28C1798.43,-185.65 1782.09,-172.82 1769,-159.75 1727.79,-118.6 1737.61,-87.25 1688,-56.75 1627.47,-19.54 1542.2,-12.11 1495.61,-11.06"/>
<polygon fill="#63b8ff" stroke="#63b8ff" points="1495.93,-7.57 1485.88,-10.94 1495.84,-14.57 1495.93,-7.57"/>
</a>
</g>
</g>
<!-- Node26&#45;&gt;Node14 -->
<g id="edge59_Node000026_Node000014" class="edge">
<title>Node26&#45;&gt;Node14</title>
<g id="a_edge59_Node000026_Node000014"><a xlink:title=" ">
<path fill="none" stroke="#63b8ff" d="M1785.55,-208.81C1676.74,-202.62 1408.47,-185.86 1185,-159.75 1173.4,-158.39 1161.1,-156.71 1149.2,-154.95"/>
<polygon fill="#63b8ff" stroke="#63b8ff" points="1149.86,-151.51 1139.45,-153.47 1148.81,-158.43 1149.86,-151.51"/>
</a>
</g>
</g>
<!-- Node26&#45;&gt;Node24 -->
<g id="edge70_Node000026_Node000024" class="edge">
<title>Node26&#45;&gt;Node24</title>
<g id="a_edge70_Node000026_Node000024"><a xlink:title=" ">
<path fill="none" stroke="#63b8ff" d="M1785.51,-199.82C1726.9,-185.99 1630.96,-163.34 1581.2,-151.6"/>
<polygon fill="#63b8ff" stroke="#63b8ff" points="1582.18,-148.23 1571.64,-149.34 1580.57,-155.05 1582.18,-148.23"/>
</a>
</g>
</g>
<!-- Node27 -->
<g id="Node000027" class="node">
<title>Node27</title>
<g id="a_Node000027"><a xlink:title=" ">
<polygon fill="#e0e0e0" stroke="#999999" points="2721.75,-153.38 2608.25,-153.38 2608.25,-132.62 2721.75,-132.62 2721.75,-153.38"/>
<text text-anchor="middle" x="2665" y="-139.88" font-family="Helvetica,sans-Serif" font-size="10.00">deal.II/base/config.h</text>
</a>
</g>
</g>
<!-- Node26&#45;&gt;Node27 -->
<g id="edge57_Node000026_Node000027" class="edge">
<title>Node26&#45;&gt;Node27</title>
<g id="a_edge57_Node000026_Node000027"><a xlink:title=" ">
<path fill="none" stroke="#63b8ff" d="M1884.55,-210.69C2006.07,-208.16 2328.3,-198.06 2594,-159.75 2600.73,-158.78 2607.76,-157.52 2614.68,-156.14"/>
<polygon fill="#63b8ff" stroke="#63b8ff" points="2615.22,-159.6 2624.28,-154.12 2613.77,-152.75 2615.22,-159.6"/>
</a>
</g>
</g>
<!-- Node28 -->
<g id="Node000028" class="node">
<title>Node28</title>
<g id="a_Node000028"><a xlink:title=" ">
<polygon fill="#e0e0e0" stroke="#999999" points="1892.12,-153.38 1777.88,-153.38 1777.88,-132.62 1892.12,-132.62 1892.12,-153.38"/>
<text text-anchor="middle" x="1835" y="-139.88" font-family="Helvetica,sans-Serif" font-size="10.00">deal.II/base/tensor.h</text>
</a>
</g>
</g>
<!-- Node26&#45;&gt;Node28 -->
<g id="edge60_Node000026_Node000028" class="edge">
<title>Node26&#45;&gt;Node28</title>
<g id="a_edge60_Node000026_Node000028"><a xlink:title=" ">
<path fill="none" stroke="#63b8ff" d="M1835,-195.5C1835,-186.4 1835,-174.89 1835,-165.07"/>
<polygon fill="#63b8ff" stroke="#63b8ff" points="1838.5,-165.34 1835,-155.34 1831.5,-165.34 1838.5,-165.34"/>
</a>
</g>
</g>
<!-- Node29 -->
<g id="Node000029" class="node">
<title>Node29</title>
<g id="a_Node000029"><a xlink:title=" ">
<polygon fill="#e0e0e0" stroke="#999999" points="2410,-83.88 2262,-83.88 2262,-63.12 2410,-63.12 2410,-83.88"/>
<text text-anchor="middle" x="2336" y="-70.38" font-family="Helvetica,sans-Serif" font-size="10.00">deal.II/base/vectorization.h</text>
</a>
</g>
</g>
<!-- Node26&#45;&gt;Node29 -->
<g id="edge61_Node000026_Node000029" class="edge">
<title>Node26&#45;&gt;Node29</title>
<g id="a_edge61_Node000026_Node000029"><a xlink:title=" ">
<path fill="none" stroke="#63b8ff" d="M1884.58,-211.78C2040.78,-212.13 2515.04,-209.11 2561,-159.75 2607.43,-109.9 2503.4,-88.96 2421.76,-80.34"/>
<polygon fill="#63b8ff" stroke="#63b8ff" points="2422.21,-76.87 2411.91,-79.35 2421.51,-83.83 2422.21,-76.87"/>
</a>
</g>
</g>
<!-- Node30 -->
<g id="Node000030" class="node">
<title>Node30</title>
<g id="a_Node000030"><a xlink:title=" ">
<polygon fill="#e0e0e0" stroke="#999999" points="2209.5,-153.38 2064.5,-153.38 2064.5,-132.62 2209.5,-132.62 2209.5,-153.38"/>
<text text-anchor="middle" x="2137" y="-139.88" font-family="Helvetica,sans-Serif" font-size="10.00">boost/range/algorithm.hpp</text>
</a>
</g>
</g>
<!-- Node26&#45;&gt;Node30 -->
<g id="edge63_Node000026_Node000030" class="edge">
<title>Node26&#45;&gt;Node30</title>
<g id="a_edge63_Node000026_Node000030"><a xlink:title=" ">
<path fill="none" stroke="#63b8ff" d="M1884.53,-200.43C1938.7,-188.32 2025.29,-168.97 2081.65,-156.37"/>
<polygon fill="#63b8ff" stroke="#63b8ff" points="2082.38,-159.8 2091.37,-154.2 2080.85,-152.96 2082.38,-159.8"/>
</a>
</g>
</g>
<!-- Node31 -->
<g id="Node000031" class="node">
<title>Node31</title>
<g id="a_Node000031"><a xlink:title=" ">
<polygon fill="#e0e0e0" stroke="#999999" points="2352,-159.75 2228,-159.75 2228,-126.25 2352,-126.25 2352,-159.75"/>
<text text-anchor="start" x="2236" y="-146.25" font-family="Helvetica,sans-Serif" font-size="10.00">boost/range/algorithm</text>
<text text-anchor="middle" x="2290" y="-133.5" font-family="Helvetica,sans-Serif" font-size="10.00">_ext.hpp</text>
</a>
</g>
</g>
<!-- Node26&#45;&gt;Node31 -->
<g id="edge64_Node000026_Node000031" class="edge">
<title>Node26&#45;&gt;Node31</title>
<g id="a_edge64_Node000026_Node000031"><a xlink:title=" ">
<path fill="none" stroke="#63b8ff" d="M1884.61,-206.17C1955.83,-198.22 2091.38,-181.98 2216.43,-160.12"/>
<polygon fill="#63b8ff" stroke="#63b8ff" points="2216.99,-163.58 2226.23,-158.39 2215.77,-156.68 2216.99,-163.58"/>
</a>
</g>
</g>
<!-- Node32 -->
<g id="Node000032" class="node">
<title>Node32</title>
<g id="a_Node000032"><a xlink:href="vectorized__operations_8h.html" target="_top" xlink:title=" ">
<polygon fill="white" stroke="#666666" points="2046,-159.75 1910,-159.75 1910,-126.25 2046,-126.25 2046,-159.75"/>
<text text-anchor="start" x="1918" y="-146.25" font-family="Helvetica,sans-Serif" font-size="10.00">prismspf/utilities</text>
<text text-anchor="middle" x="1978" y="-133.5" font-family="Helvetica,sans-Serif" font-size="10.00">/vectorized_operations.h</text>
</a>
</g>
</g>
<!-- Node26&#45;&gt;Node32 -->
<g id="edge65_Node000026_Node000032" class="edge">
<title>Node26&#45;&gt;Node32</title>
<g id="a_edge65_Node000026_Node000032"><a xlink:title=" ">
<path fill="none" stroke="#63b8ff" d="M1869.25,-195.33C1888.62,-186.19 1913.05,-174.66 1933.84,-164.84"/>
<polygon fill="#63b8ff" stroke="#63b8ff" points="1935.11,-168.12 1942.66,-160.68 1932.12,-161.79 1935.11,-168.12"/>
</a>
</g>
</g>
<!-- Node34 -->
<g id="Node000034" class="node">
<title>Node34</title>
<g id="a_Node000034"><a xlink:title=" ">
<polygon fill="#e0e0e0" stroke="#999999" points="2442.12,-153.38 2369.88,-153.38 2369.88,-132.62 2442.12,-132.62 2442.12,-153.38"/>
<text text-anchor="middle" x="2406" y="-139.88" font-family="Helvetica,sans-Serif" font-size="10.00">string_view</text>
</a>
</g>
</g>
<!-- Node26&#45;&gt;Node34 -->
<g id="edge72_Node000026_Node000034" class="edge">
<title>Node26&#45;&gt;Node34</title>
<g id="a_edge72_Node000026_Node000034"><a xlink:title=" ">
<path fill="none" stroke="#63b8ff" d="M1884.56,-210.55C1978.56,-207.88 2188.74,-197.8 2361,-159.75 2364.18,-159.05 2367.45,-158.19 2370.7,-157.24"/>
<polygon fill="#63b8ff" stroke="#63b8ff" points="2371.66,-160.6 2380.11,-154.21 2369.52,-153.94 2371.66,-160.6"/>
</a>
</g>
</g>
<!-- Node35 -->
<g id="Node000035" class="node">
<title>Node35</title>
<g id="a_Node000035"><a xlink:title=" ">
<polygon fill="#e0e0e0" stroke="#999999" points="2552.25,-153.38 2459.75,-153.38 2459.75,-132.62 2552.25,-132.62 2552.25,-153.38"/>
<text text-anchor="middle" x="2506" y="-139.88" font-family="Helvetica,sans-Serif" font-size="10.00">unordered_map</text>
</a>
</g>
</g>
<!-- Node26&#45;&gt;Node35 -->
<g id="edge73_Node000026_Node000035" class="edge">
<title>Node26&#45;&gt;Node35</title>
<g id="a_edge73_Node000026_Node000035"><a xlink:title=" ">
<path fill="none" stroke="#63b8ff" d="M1884.54,-210.61C1989.72,-208 2242.78,-197.93 2451,-159.75 2455.56,-158.91 2460.29,-157.86 2464.97,-156.69"/>
<polygon fill="#63b8ff" stroke="#63b8ff" points="2465.49,-160.18 2474.24,-154.21 2463.68,-153.41 2465.49,-160.18"/>
</a>
</g>
</g>
<!-- Node32&#45;&gt;Node4 -->
<g id="edge67_Node000032_Node000004" class="edge">
<title>Node32&#45;&gt;Node4</title>
<g id="a_edge67_Node000032_Node000004"><a xlink:title=" ">
<path fill="none" stroke="#63b8ff" d="M1928.94,-125.76C1865.4,-105.53 1750.82,-71.81 1650,-56.75 1550.09,-41.83 850.93,-19.69 637.63,-13.22"/>
<polygon fill="#63b8ff" stroke="#63b8ff" points="637.98,-9.72 627.87,-12.92 637.76,-16.72 637.98,-9.72"/>
</a>
</g>
</g>
<!-- Node32&#45;&gt;Node29 -->
<g id="edge66_Node000032_Node000029" class="edge">
<title>Node32&#45;&gt;Node29</title>
<g id="a_edge66_Node000032_Node000029"><a xlink:title=" ">
<path fill="none" stroke="#63b8ff" d="M2046.47,-128.11C2049.69,-127.48 2052.88,-126.85 2056,-126.25 2129.26,-112.08 2213.47,-96.63 2270.25,-86.34"/>
<polygon fill="#63b8ff" stroke="#63b8ff" points="2270.52,-89.84 2279.73,-84.62 2269.27,-82.96 2270.52,-89.84"/>
</a>
</g>
</g>
<!-- Node33 -->
<g id="Node000033" class="node">
<title>Node33</title>
<g id="a_Node000033"><a xlink:title=" ">
<polygon fill="#e0e0e0" stroke="#999999" points="2001.38,-83.88 1954.62,-83.88 1954.62,-63.12 2001.38,-63.12 2001.38,-83.88"/>
<text text-anchor="middle" x="1978" y="-70.38" font-family="Helvetica,sans-Serif" font-size="10.00">cmath</text>
</a>
</g>
</g>
<!-- Node32&#45;&gt;Node33 -->
<g id="edge68_Node000032_Node000033" class="edge">
<title>Node32&#45;&gt;Node33</title>
<g id="a_edge68_Node000032_Node000033"><a xlink:title=" ">
<path fill="none" stroke="#63b8ff" d="M1978,-126C1978,-116.9 1978,-105.39 1978,-95.57"/>
<polygon fill="#63b8ff" stroke="#63b8ff" points="1981.5,-95.84 1978,-85.84 1974.5,-95.84 1981.5,-95.84"/>
</a>
</g>
</g>
</g>
</svg>
