<?xml version="1.0" encoding="UTF-8" standalone="no"?>
<!DOCTYPE svg PUBLIC "-//W3C//DTD SVG 1.1//EN"
 "http://www.w3.org/Graphics/SVG/1.1/DTD/svg11.dtd">
<!-- Generated by graphviz version 12.2.1 (20241206.2353)
 -->
<!-- Title: include/prismspf/nucleation/nucleus.h Pages: 1 -->
<svg width="1616pt" height="724pt"
 viewBox="0.00 0.00 1616.12 723.75" xmlns="http://www.w3.org/2000/svg" xmlns:xlink="http://www.w3.org/1999/xlink">
<g id="graph0" class="graph" transform="scale(1 1) rotate(0) translate(4 719.75)">
<title>include/prismspf/nucleation/nucleus.h</title>
<!-- Node1 -->
<g id="Node000001" class="node">
<title>Node1</title>
<g id="a_Node000001"><a xlink:title=" ">
<polygon fill="#999999" stroke="#666666" points="1428.12,-715.75 1277.12,-715.75 1277.12,-682.25 1428.12,-682.25 1428.12,-715.75"/>
<text text-anchor="start" x="1285.12" y="-702.25" font-family="Helvetica,sans-Serif" font-size="10.00">include/prismspf/nucleation</text>
<text text-anchor="middle" x="1352.62" y="-689.5" font-family="Helvetica,sans-Serif" font-size="10.00">/nucleus.h</text>
</a>
</g>
</g>
<!-- Node2 -->
<g id="Node000002" class="node">
<title>Node2</title>
<g id="a_Node000002"><a xlink:href="phase__field__tools_8h.html" target="_top" xlink:title=" ">
<polygon fill="white" stroke="#666666" points="838.12,-576.75 717.12,-576.75 717.12,-543.25 838.12,-543.25 838.12,-576.75"/>
<text text-anchor="start" x="725.12" y="-563.25" font-family="Helvetica,sans-Serif" font-size="10.00">include/prismspf/core</text>
<text text-anchor="middle" x="777.62" y="-550.5" font-family="Helvetica,sans-Serif" font-size="10.00">/phase_field_tools.h</text>
</a>
</g>
</g>
<!-- Node1&#45;&gt;Node2 -->
<g id="edge1_Node000001_Node000002" class="edge">
<title>Node1&#45;&gt;Node2</title>
<g id="a_edge1_Node000001_Node000002"><a xlink:title=" ">
<path fill="none" stroke="#63b8ff" d="M1273.77,-679.21C1157.66,-651.55 943.18,-600.44 838.41,-575.48"/>
<polygon fill="#63b8ff" stroke="#63b8ff" points="1272.68,-682.55 1283.22,-681.46 1274.3,-675.74 1272.68,-682.55"/>
</a>
</g>
</g>
<!-- Node19 -->
<g id="Node000019" class="node">
<title>Node19</title>
<g id="a_Node000019"><a xlink:href="nucleation__manager_8h.html" target="_top" xlink:title=" ">
<polygon fill="white" stroke="#666666" points="1398.12,-368.25 1247.12,-368.25 1247.12,-334.75 1398.12,-334.75 1398.12,-368.25"/>
<text text-anchor="start" x="1255.12" y="-354.75" font-family="Helvetica,sans-Serif" font-size="10.00">include/prismspf/nucleation</text>
<text text-anchor="middle" x="1322.62" y="-342" font-family="Helvetica,sans-Serif" font-size="10.00">/nucleation_manager.h</text>
</a>
</g>
</g>
<!-- Node1&#45;&gt;Node19 -->
<g id="edge44_Node000001_Node000019" class="edge">
<title>Node1&#45;&gt;Node19</title>
<g id="a_edge44_Node000001_Node000019"><a xlink:title=" ">
<path fill="none" stroke="#63b8ff" d="M1374.79,-673.07C1381.03,-664.97 1387.29,-655.65 1391.62,-646.25 1407.9,-611.01 1410.62,-599.82 1410.62,-561 1410.62,-561 1410.62,-561 1410.62,-489.5 1410.62,-438.9 1367.6,-392.08 1341.72,-368.49"/>
<polygon fill="#63b8ff" stroke="#63b8ff" points="1372.14,-670.79 1368.55,-680.76 1377.57,-675.2 1372.14,-670.79"/>
</a>
</g>
</g>
<!-- Node26 -->
<g id="Node000026" class="node">
<title>Node26</title>
<g id="a_Node000026"><a xlink:href="nucleus__refinement__function_8h.html" target="_top" xlink:title=" ">
<polygon fill="white" stroke="#666666" points="1608.12,-576.75 1439.12,-576.75 1439.12,-543.25 1608.12,-543.25 1608.12,-576.75"/>
<text text-anchor="start" x="1447.12" y="-563.25" font-family="Helvetica,sans-Serif" font-size="10.00">include/prismspf/nucleation</text>
<text text-anchor="middle" x="1523.62" y="-550.5" font-family="Helvetica,sans-Serif" font-size="10.00">/nucleus_refinement_function.h</text>
</a>
</g>
</g>
<!-- Node1&#45;&gt;Node26 -->
<g id="edge45_Node000001_Node000026" class="edge">
<title>Node1&#45;&gt;Node26</title>
<g id="a_edge45_Node000001_Node000026"><a xlink:title=" ">
<path fill="none" stroke="#63b8ff" d="M1385.19,-675.51C1397.7,-666.63 1412,-656.19 1424.62,-646.25 1453.85,-623.24 1486.26,-594.72 1505.78,-577.2"/>
<polygon fill="#63b8ff" stroke="#63b8ff" points="1383.43,-672.47 1377.27,-681.09 1387.46,-678.19 1383.43,-672.47"/>
</a>
</g>
</g>
<!-- Node27 -->
<g id="Node000027" class="node">
<title>Node27</title>
<g id="a_Node000027"><a xlink:href="nucleation__parameters_8h.html" target="_top" xlink:title=" ">
<polygon fill="white" stroke="#666666" points="1382.5,-646.25 1206.75,-646.25 1206.75,-612.75 1382.5,-612.75 1382.5,-646.25"/>
<text text-anchor="start" x="1214.75" y="-632.75" font-family="Helvetica,sans-Serif" font-size="10.00">include/prismspf/user</text>
<text text-anchor="middle" x="1294.62" y="-620" font-family="Helvetica,sans-Serif" font-size="10.00">_inputs/nucleation_parameters.h</text>
</a>
</g>
</g>
<!-- Node1&#45;&gt;Node27 -->
<g id="edge47_Node000001_Node000027" class="edge">
<title>Node1&#45;&gt;Node27</title>
<g id="a_edge47_Node000001_Node000027"><a xlink:title=" ">
<path fill="none" stroke="#63b8ff" d="M1331.49,-673.41C1323.75,-664.39 1315.19,-654.43 1308.27,-646.38"/>
<polygon fill="#63b8ff" stroke="#63b8ff" points="1328.72,-675.55 1337.89,-680.86 1334.03,-670.99 1328.72,-675.55"/>
</a>
</g>
</g>
<!-- Node3 -->
<g id="Node000003" class="node">
<title>Node3</title>
<g id="a_Node000003"><a xlink:href="pde__operator__base_8h.html" target="_top" xlink:title=" ">
<polygon fill="white" stroke="#666666" points="786.12,-507.25 665.12,-507.25 665.12,-473.75 786.12,-473.75 786.12,-507.25"/>
<text text-anchor="start" x="673.12" y="-493.75" font-family="Helvetica,sans-Serif" font-size="10.00">include/prismspf/core</text>
<text text-anchor="middle" x="725.62" y="-481" font-family="Helvetica,sans-Serif" font-size="10.00">/pde_operator_base.h</text>
</a>
</g>
</g>
<!-- Node2&#45;&gt;Node3 -->
<g id="edge2_Node000002_Node000003" class="edge">
<title>Node2&#45;&gt;Node3</title>
<g id="a_edge2_Node000002_Node000003"><a xlink:title=" ">
<path fill="none" stroke="#63b8ff" d="M758.46,-534.13C751.58,-525.19 744,-515.35 737.86,-507.38"/>
<polygon fill="#63b8ff" stroke="#63b8ff" points="755.5,-536.02 764.38,-541.8 761.05,-531.75 755.5,-536.02"/>
</a>
</g>
</g>
<!-- Node2&#45;&gt;Node19 -->
<g id="edge42_Node000002_Node000019" class="edge">
<title>Node2&#45;&gt;Node19</title>
<g id="a_edge42_Node000002_Node000019"><a xlink:title=" ">
<path fill="none" stroke="#63b8ff" d="M825.74,-538.31C898.04,-507.51 1039.31,-448.49 1161.62,-404.25 1197.1,-391.42 1237.53,-378.43 1269,-368.67"/>
<polygon fill="#63b8ff" stroke="#63b8ff" points="824.37,-535.09 816.55,-542.23 827.12,-541.52 824.37,-535.09"/>
</a>
</g>
</g>
<!-- Node25 -->
<g id="Node000025" class="node">
<title>Node25</title>
<g id="a_Node000025"><a xlink:href="phase__field__tools_8cc.html" target="_top" xlink:title=" ">
<polygon fill="white" stroke="#666666" points="647,-507.25 534.25,-507.25 534.25,-473.75 647,-473.75 647,-507.25"/>
<text text-anchor="start" x="542.25" y="-493.75" font-family="Helvetica,sans-Serif" font-size="10.00">src/core/phase_field</text>
<text text-anchor="middle" x="590.62" y="-481" font-family="Helvetica,sans-Serif" font-size="10.00">_tools.cc</text>
</a>
</g>
</g>
<!-- Node2&#45;&gt;Node25 -->
<g id="edge43_Node000002_Node000025" class="edge">
<title>Node2&#45;&gt;Node25</title>
<g id="a_edge43_Node000002_Node000025"><a xlink:title=" ">
<path fill="none" stroke="#63b8ff" d="M722.12,-538.97C694.44,-528.97 661.41,-517.05 635.37,-507.65"/>
<polygon fill="#63b8ff" stroke="#63b8ff" points="720.82,-542.22 731.41,-542.32 723.19,-535.63 720.82,-542.22"/>
</a>
</g>
</g>
<!-- Node4 -->
<g id="Node000004" class="node">
<title>Node4</title>
<g id="a_Node000004"><a xlink:href="mf__operator_8h.html" target="_top" xlink:title=" ">
<polygon fill="white" stroke="#666666" points="525.25,-298.75 390,-298.75 390,-265.25 525.25,-265.25 525.25,-298.75"/>
<text text-anchor="start" x="398" y="-285.25" font-family="Helvetica,sans-Serif" font-size="10.00">include/prismspf/solvers</text>
<text text-anchor="middle" x="457.62" y="-272.5" font-family="Helvetica,sans-Serif" font-size="10.00">/mf_operator.h</text>
</a>
</g>
</g>
<!-- Node3&#45;&gt;Node4 -->
<g id="edge3_Node000003_Node000004" class="edge">
<title>Node3&#45;&gt;Node4</title>
<g id="a_edge3_Node000003_Node000004"><a xlink:title=" ">
<path fill="none" stroke="#63b8ff" d="M653.65,-473.58C579.15,-460.46 541.92,-488.04 491.62,-437.75 453.89,-400.02 453.82,-330.6 456,-299.19"/>
<polygon fill="#63b8ff" stroke="#63b8ff" points="652.95,-477.01 663.44,-475.53 654.31,-470.14 652.95,-477.01"/>
</a>
</g>
</g>
<!-- Node14 -->
<g id="Node000014" class="node">
<title>Node14</title>
<g id="a_Node000014"><a xlink:href="solve__context_8h.html" target="_top" xlink:title=" ">
<polygon fill="white" stroke="#666666" points="1024.25,-437.75 889,-437.75 889,-404.25 1024.25,-404.25 1024.25,-437.75"/>
<text text-anchor="start" x="897" y="-424.25" font-family="Helvetica,sans-Serif" font-size="10.00">include/prismspf/solvers</text>
<text text-anchor="middle" x="956.62" y="-411.5" font-family="Helvetica,sans-Serif" font-size="10.00">/solve_context.h</text>
</a>
</g>
</g>
<!-- Node3&#45;&gt;Node14 -->
<g id="edge17_Node000003_Node000014" class="edge">
<title>Node3&#45;&gt;Node14</title>
<g id="a_edge17_Node000003_Node000014"><a xlink:title=" ">
<path fill="none" stroke="#63b8ff" d="M791.93,-470.13C826.57,-460 868.48,-447.76 901.35,-438.15"/>
<polygon fill="#63b8ff" stroke="#63b8ff" points="791.02,-466.74 782.41,-472.91 792.99,-473.46 791.02,-466.74"/>
</a>
</g>
</g>
<!-- Node20 -->
<g id="Node000020" class="node">
<title>Node20</title>
<g id="a_Node000020"><a xlink:href="solver__base_8h.html" target="_top" xlink:title=" ">
<polygon fill="white" stroke="#666666" points="733.25,-368.25 598,-368.25 598,-334.75 733.25,-334.75 733.25,-368.25"/>
<text text-anchor="start" x="606" y="-354.75" font-family="Helvetica,sans-Serif" font-size="10.00">include/prismspf/solvers</text>
<text text-anchor="middle" x="665.62" y="-342" font-family="Helvetica,sans-Serif" font-size="10.00">/solver_base.h</text>
</a>
</g>
</g>
<!-- Node3&#45;&gt;Node20 -->
<g id="edge39_Node000003_Node000020" class="edge">
<title>Node3&#45;&gt;Node20</title>
<g id="a_edge39_Node000003_Node000020"><a xlink:title=" ">
<path fill="none" stroke="#63b8ff" d="M653.88,-473.32C589.48,-458.72 504.84,-439.28 503.62,-437.75 472.6,-398.67 540.56,-375.46 597.76,-363.35"/>
<polygon fill="#63b8ff" stroke="#63b8ff" points="652.83,-476.67 663.36,-475.47 654.38,-469.85 652.83,-476.67"/>
</a>
</g>
</g>
<!-- Node23 -->
<g id="Node000023" class="node">
<title>Node23</title>
<g id="a_Node000023"><a xlink:href="dirichlet_8cc.html" target="_top" xlink:title=" ">
<polygon fill="white" stroke="#666666" points="622.88,-431.38 512.38,-431.38 512.38,-410.62 622.88,-410.62 622.88,-431.38"/>
<text text-anchor="middle" x="567.62" y="-417.88" font-family="Helvetica,sans-Serif" font-size="10.00">src/core/dirichlet.cc</text>
</a>
</g>
</g>
<!-- Node3&#45;&gt;Node23 -->
<g id="edge40_Node000003_Node000023" class="edge">
<title>Node3&#45;&gt;Node23</title>
<g id="a_edge40_Node000003_Node000023"><a xlink:title=" ">
<path fill="none" stroke="#63b8ff" d="M677.47,-468.93C648.58,-456.58 613.16,-441.45 590.5,-431.77"/>
<polygon fill="#63b8ff" stroke="#63b8ff" points="675.82,-472.03 686.39,-472.74 678.57,-465.59 675.82,-472.03"/>
</a>
</g>
</g>
<!-- Node24 -->
<g id="Node000024" class="node">
<title>Node24</title>
<g id="a_Node000024"><a xlink:href="initial__conditions_8cc.html" target="_top" xlink:title=" ">
<polygon fill="white" stroke="#666666" points="794.62,-431.38 640.62,-431.38 640.62,-410.62 794.62,-410.62 794.62,-431.38"/>
<text text-anchor="middle" x="717.62" y="-417.88" font-family="Helvetica,sans-Serif" font-size="10.00">src/core/initial_conditions.cc</text>
</a>
</g>
</g>
<!-- Node3&#45;&gt;Node24 -->
<g id="edge41_Node000003_Node000024" class="edge">
<title>Node3&#45;&gt;Node24</title>
<g id="a_edge41_Node000003_Node000024"><a xlink:title=" ">
<path fill="none" stroke="#63b8ff" d="M722.41,-462.38C721.13,-451.58 719.74,-439.85 718.79,-431.82"/>
<polygon fill="#63b8ff" stroke="#63b8ff" points="718.9,-462.48 723.55,-472 725.85,-461.66 718.9,-462.48"/>
</a>
</g>
</g>
<!-- Node5 -->
<g id="Node000005" class="node">
<title>Node5</title>
<g id="a_Node000005"><a xlink:href="explicit__solver_8h.html" target="_top" xlink:title=" ">
<polygon fill="white" stroke="#666666" points="210.25,-229.25 75,-229.25 75,-195.75 210.25,-195.75 210.25,-229.25"/>
<text text-anchor="start" x="83" y="-215.75" font-family="Helvetica,sans-Serif" font-size="10.00">include/prismspf/solvers</text>
<text text-anchor="middle" x="142.62" y="-203" font-family="Helvetica,sans-Serif" font-size="10.00">/explicit_solver.h</text>
</a>
</g>
</g>
<!-- Node4&#45;&gt;Node5 -->
<g id="edge4_Node000004_Node000005" class="edge">
<title>Node4&#45;&gt;Node5</title>
<g id="a_edge4_Node000004_Node000005"><a xlink:title=" ">
<path fill="none" stroke="#63b8ff" d="M378.54,-264.05C326.86,-252.98 260.06,-238.66 210.74,-228.1"/>
<polygon fill="#63b8ff" stroke="#63b8ff" points="377.67,-267.45 388.18,-266.12 379.14,-260.6 377.67,-267.45"/>
</a>
</g>
</g>
<!-- Node9 -->
<g id="Node000009" class="node">
<title>Node9</title>
<g id="a_Node000009"><a xlink:href="linear__helper_8h.html" target="_top" xlink:title=" ">
<polygon fill="white" stroke="#666666" points="756.25,-229.25 621,-229.25 621,-195.75 756.25,-195.75 756.25,-229.25"/>
<text text-anchor="start" x="629" y="-215.75" font-family="Helvetica,sans-Serif" font-size="10.00">include/prismspf/solvers</text>
<text text-anchor="middle" x="688.62" y="-203" font-family="Helvetica,sans-Serif" font-size="10.00">/linear_helper.h</text>
</a>
</g>
</g>
<!-- Node4&#45;&gt;Node9 -->
<g id="edge8_Node000004_Node000009" class="edge">
<title>Node4&#45;&gt;Node9</title>
<g id="a_edge8_Node000004_Node000009"><a xlink:title=" ">
<path fill="none" stroke="#63b8ff" d="M523.93,-261.63C558.57,-251.5 600.48,-239.26 633.35,-229.65"/>
<polygon fill="#63b8ff" stroke="#63b8ff" points="523.02,-258.24 514.41,-264.41 524.99,-264.96 523.02,-258.24"/>
</a>
</g>
</g>
<!-- Node10 -->
<g id="Node000010" class="node">
<title>Node10</title>
<g id="a_Node000010"><a xlink:href="linear__solver_8h.html" target="_top" xlink:title=" ">
<polygon fill="white" stroke="#666666" points="564.25,-229.25 429,-229.25 429,-195.75 564.25,-195.75 564.25,-229.25"/>
<text text-anchor="start" x="437" y="-215.75" font-family="Helvetica,sans-Serif" font-size="10.00">include/prismspf/solvers</text>
<text text-anchor="middle" x="496.62" y="-203" font-family="Helvetica,sans-Serif" font-size="10.00">/linear_solver.h</text>
</a>
</g>
</g>
<!-- Node4&#45;&gt;Node10 -->
<g id="edge9_Node000004_Node000010" class="edge">
<title>Node4&#45;&gt;Node10</title>
<g id="a_edge9_Node000004_Node000010"><a xlink:title=" ">
<path fill="none" stroke="#63b8ff" d="M472.49,-255.28C477.52,-246.57 482.99,-237.1 487.45,-229.38"/>
<polygon fill="#63b8ff" stroke="#63b8ff" points="469.6,-253.28 467.62,-263.69 475.66,-256.79 469.6,-253.28"/>
</a>
</g>
</g>
<!-- Node11 -->
<g id="Node000011" class="node">
<title>Node11</title>
<g id="a_Node000011"><a xlink:href="mg__solver_8h.html" target="_top" xlink:title=" ">
<polygon fill="white" stroke="#666666" points="448.25,-159.75 313,-159.75 313,-126.25 448.25,-126.25 448.25,-159.75"/>
<text text-anchor="start" x="321" y="-146.25" font-family="Helvetica,sans-Serif" font-size="10.00">include/prismspf/solvers</text>
<text text-anchor="middle" x="380.62" y="-133.5" font-family="Helvetica,sans-Serif" font-size="10.00">/mg_solver.h</text>
</a>
</g>
</g>
<!-- Node4&#45;&gt;Node11 -->
<g id="edge14_Node000004_Node000011" class="edge">
<title>Node4&#45;&gt;Node11</title>
<g id="a_edge14_Node000004_Node000011"><a xlink:title=" ">
<path fill="none" stroke="#63b8ff" d="M378.23,-270.5C329.14,-262.19 272.7,-248.72 257.62,-229.25 248.51,-217.48 249.39,-208.15 257.62,-195.75 270.25,-176.74 291.37,-164.7 312.58,-157.08"/>
<polygon fill="#63b8ff" stroke="#63b8ff" points="377.62,-273.94 388.05,-272.1 378.75,-267.04 377.62,-273.94"/>
</a>
</g>
</g>
<!-- Node12 -->
<g id="Node000012" class="node">
<title>Node12</title>
<g id="a_Node000012"><a xlink:href="newton__solver_8h.html" target="_top" xlink:title=" ">
<polygon fill="white" stroke="#666666" points="660.25,-159.75 525,-159.75 525,-126.25 660.25,-126.25 660.25,-159.75"/>
<text text-anchor="start" x="533" y="-146.25" font-family="Helvetica,sans-Serif" font-size="10.00">include/prismspf/solvers</text>
<text text-anchor="middle" x="592.62" y="-133.5" font-family="Helvetica,sans-Serif" font-size="10.00">/newton_solver.h</text>
</a>
</g>
</g>
<!-- Node4&#45;&gt;Node12 -->
<g id="edge15_Node000004_Node000012" class="edge">
<title>Node4&#45;&gt;Node12</title>
<g id="a_edge15_Node000004_Node000012"><a xlink:title=" ">
<path fill="none" stroke="#63b8ff" d="M531.64,-260.27C547.43,-252.77 562.63,-242.7 573.62,-229.25 589.84,-209.41 592.93,-178.61 593.15,-159.97"/>
<polygon fill="#63b8ff" stroke="#63b8ff" points="530.36,-257.01 522.61,-264.23 533.17,-263.42 530.36,-257.01"/>
</a>
</g>
</g>
<!-- Node13 -->
<g id="Node000013" class="node">
<title>Node13</title>
<g id="a_Node000013"><a xlink:href="mf__operator_8cc.html" target="_top" xlink:title=" ">
<polygon fill="white" stroke="#666666" points="410.75,-222.88 266.5,-222.88 266.5,-202.12 410.75,-202.12 410.75,-222.88"/>
<text text-anchor="middle" x="338.62" y="-209.38" font-family="Helvetica,sans-Serif" font-size="10.00">src/solvers/mf_operator.cc</text>
</a>
</g>
</g>
<!-- Node4&#45;&gt;Node13 -->
<g id="edge16_Node000004_Node000013" class="edge">
<title>Node4&#45;&gt;Node13</title>
<g id="a_edge16_Node000004_Node000013"><a xlink:title=" ">
<path fill="none" stroke="#63b8ff" d="M419.34,-259.28C397.97,-247.16 372.4,-232.66 355.85,-223.27"/>
<polygon fill="#63b8ff" stroke="#63b8ff" points="417.38,-262.2 427.81,-264.09 420.83,-256.11 417.38,-262.2"/>
</a>
</g>
</g>
<!-- Node6 -->
<g id="Node000006" class="node">
<title>Node6</title>
<g id="a_Node000006"><a xlink:href="solvers_8h.html" target="_top" xlink:title=" ">
<polygon fill="white" stroke="#666666" points="564.25,-90.25 429,-90.25 429,-56.75 564.25,-56.75 564.25,-90.25"/>
<text text-anchor="start" x="437" y="-76.75" font-family="Helvetica,sans-Serif" font-size="10.00">include/prismspf/solvers</text>
<text text-anchor="middle" x="496.62" y="-64" font-family="Helvetica,sans-Serif" font-size="10.00">/solvers.h</text>
</a>
</g>
</g>
<!-- Node5&#45;&gt;Node6 -->
<g id="edge5_Node000005_Node000006" class="edge">
<title>Node5&#45;&gt;Node6</title>
<g id="a_edge5_Node000005_Node000006"><a xlink:title=" ">
<path fill="none" stroke="#63b8ff" d="M178.57,-189.45C210.48,-170.61 258.87,-143.84 303.62,-126.25 344.14,-110.33 391.32,-97.58 428.89,-88.72"/>
<polygon fill="#63b8ff" stroke="#63b8ff" points="176.91,-186.36 170.11,-194.49 180.49,-192.37 176.91,-186.36"/>
</a>
</g>
</g>
<!-- Node7 -->
<g id="Node000007" class="node">
<title>Node7</title>
<g id="a_Node000007"><a xlink:href="problem_8cc.html" target="_top" xlink:title=" ">
<polygon fill="white" stroke="#666666" points="916.25,-20.75 805,-20.75 805,0 916.25,0 916.25,-20.75"/>
<text text-anchor="middle" x="860.62" y="-7.25" font-family="Helvetica,sans-Serif" font-size="10.00">src/core/problem.cc</text>
</a>
</g>
</g>
<!-- Node6&#45;&gt;Node7 -->
<g id="edge6_Node000006_Node000007" class="edge">
<title>Node6&#45;&gt;Node7</title>
<g id="a_edge6_Node000006_Node000007"><a xlink:title=" ">
<path fill="none" stroke="#63b8ff" d="M575.91,-59.19C644.98,-47.59 743.38,-31.06 804.55,-20.79"/>
<polygon fill="#63b8ff" stroke="#63b8ff" points="575.44,-55.72 566.16,-60.82 576.6,-62.62 575.44,-55.72"/>
</a>
</g>
</g>
<!-- Node8 -->
<g id="Node000008" class="node">
<title>Node8</title>
<g id="a_Node000008"><a xlink:href="solvers_8cc.html" target="_top" xlink:title=" ">
<polygon fill="white" stroke="#666666" points="556.75,-20.75 436.5,-20.75 436.5,0 556.75,0 556.75,-20.75"/>
<text text-anchor="middle" x="496.62" y="-7.25" font-family="Helvetica,sans-Serif" font-size="10.00">src/solvers/solvers.cc</text>
</a>
</g>
</g>
<!-- Node6&#45;&gt;Node8 -->
<g id="edge7_Node000006_Node000008" class="edge">
<title>Node6&#45;&gt;Node8</title>
<g id="a_edge7_Node000006_Node000008"><a xlink:title=" ">
<path fill="none" stroke="#63b8ff" d="M496.62,-44.94C496.62,-36.46 496.62,-27.67 496.62,-21.22"/>
<polygon fill="#63b8ff" stroke="#63b8ff" points="493.13,-44.93 496.63,-54.93 500.13,-44.93 493.13,-44.93"/>
</a>
</g>
</g>
<!-- Node10&#45;&gt;Node6 -->
<g id="edge13_Node000010_Node000006" class="edge">
<title>Node10&#45;&gt;Node6</title>
<g id="a_edge13_Node000010_Node000006"><a xlink:title=" ">
<path fill="none" stroke="#63b8ff" d="M496.62,-184.12C496.62,-156.04 496.62,-113.32 496.62,-90.38"/>
<polygon fill="#63b8ff" stroke="#63b8ff" points="493.13,-184 496.63,-194 500.13,-184 493.13,-184"/>
</a>
</g>
</g>
<!-- Node10&#45;&gt;Node11 -->
<g id="edge10_Node000010_Node000011" class="edge">
<title>Node10&#45;&gt;Node11</title>
<g id="a_edge10_Node000010_Node000011"><a xlink:title=" ">
<path fill="none" stroke="#63b8ff" d="M458.93,-189.57C442.4,-179.95 423.35,-168.86 408.18,-160.04"/>
<polygon fill="#63b8ff" stroke="#63b8ff" points="457.13,-192.57 467.53,-194.57 460.65,-186.52 457.13,-192.57"/>
</a>
</g>
</g>
<!-- Node10&#45;&gt;Node12 -->
<g id="edge11_Node000010_Node000012" class="edge">
<title>Node10&#45;&gt;Node12</title>
<g id="a_edge11_Node000010_Node000012"><a xlink:title=" ">
<path fill="none" stroke="#63b8ff" d="M528.75,-188.91C542.17,-179.48 557.45,-168.73 569.7,-160.12"/>
<polygon fill="#63b8ff" stroke="#63b8ff" points="526.78,-186.02 520.61,-194.63 530.81,-191.74 526.78,-186.02"/>
</a>
</g>
</g>
<!-- Node12&#45;&gt;Node6 -->
<g id="edge12_Node000012_Node000006" class="edge">
<title>Node12&#45;&gt;Node6</title>
<g id="a_edge12_Node000012_Node000006"><a xlink:title=" ">
<path fill="none" stroke="#63b8ff" d="M560.5,-119.41C547.08,-109.98 531.8,-99.23 519.55,-90.62"/>
<polygon fill="#63b8ff" stroke="#63b8ff" points="558.44,-122.24 568.64,-125.13 562.47,-116.52 558.44,-122.24"/>
</a>
</g>
</g>
<!-- Node15 -->
<g id="Node000015" class="node">
<title>Node15</title>
<g id="a_Node000015"><a xlink:href="problem_8h.html" target="_top" xlink:title=" ">
<polygon fill="white" stroke="#666666" points="1196.12,-229.25 1075.12,-229.25 1075.12,-195.75 1196.12,-195.75 1196.12,-229.25"/>
<text text-anchor="start" x="1083.12" y="-215.75" font-family="Helvetica,sans-Serif" font-size="10.00">include/prismspf/core</text>
<text text-anchor="middle" x="1135.62" y="-203" font-family="Helvetica,sans-Serif" font-size="10.00">/problem.h</text>
</a>
</g>
</g>
<!-- Node14&#45;&gt;Node15 -->
<g id="edge18_Node000014_Node000015" class="edge">
<title>Node14&#45;&gt;Node15</title>
<g id="a_edge18_Node000014_Node000015"><a xlink:title=" ">
<path fill="none" stroke="#63b8ff" d="M978.21,-395.1C1015.4,-352.2 1090.53,-265.52 1121.64,-229.63"/>
<polygon fill="#63b8ff" stroke="#63b8ff" points="975.57,-392.8 971.66,-402.65 980.86,-397.39 975.57,-392.8"/>
</a>
</g>
</g>
<!-- Node16 -->
<g id="Node000016" class="node">
<title>Node16</title>
<g id="a_Node000016"><a xlink:href="refinement__manager_8h.html" target="_top" xlink:title=" ">
<polygon fill="white" stroke="#666666" points="1018.25,-298.75 889,-298.75 889,-265.25 1018.25,-265.25 1018.25,-298.75"/>
<text text-anchor="start" x="897" y="-285.25" font-family="Helvetica,sans-Serif" font-size="10.00">include/prismspf/core</text>
<text text-anchor="middle" x="953.62" y="-272.5" font-family="Helvetica,sans-Serif" font-size="10.00">/refinement_manager.h</text>
</a>
</g>
</g>
<!-- Node14&#45;&gt;Node16 -->
<g id="edge20_Node000014_Node000016" class="edge">
<title>Node14&#45;&gt;Node16</title>
<g id="a_edge20_Node000014_Node000016"><a xlink:title=" ">
<path fill="none" stroke="#63b8ff" d="M956.03,-392.62C955.41,-364.54 954.48,-321.82 953.97,-298.88"/>
<polygon fill="#63b8ff" stroke="#63b8ff" points="952.52,-392.58 956.24,-402.5 959.52,-392.43 952.52,-392.58"/>
</a>
</g>
</g>
<!-- Node17 -->
<g id="Node000017" class="node">
<title>Node17</title>
<g id="a_Node000017"><a xlink:href="solution__output_8h.html" target="_top" xlink:title=" ">
<polygon fill="white" stroke="#666666" points="1211.12,-368.25 1090.12,-368.25 1090.12,-334.75 1211.12,-334.75 1211.12,-368.25"/>
<text text-anchor="start" x="1098.12" y="-354.75" font-family="Helvetica,sans-Serif" font-size="10.00">include/prismspf/core</text>
<text text-anchor="middle" x="1150.62" y="-342" font-family="Helvetica,sans-Serif" font-size="10.00">/solution_output.h</text>
</a>
</g>
</g>
<!-- Node14&#45;&gt;Node17 -->
<g id="edge22_Node000014_Node000017" class="edge">
<title>Node14&#45;&gt;Node17</title>
<g id="a_edge22_Node000014_Node000017"><a xlink:title=" ">
<path fill="none" stroke="#63b8ff" d="M1013.82,-400.1C1042.62,-390.08 1077.07,-378.09 1104.2,-368.65"/>
<polygon fill="#63b8ff" stroke="#63b8ff" points="1012.82,-396.74 1004.52,-403.33 1015.12,-403.35 1012.82,-396.74"/>
</a>
</g>
</g>
<!-- Node14&#45;&gt;Node19 -->
<g id="edge26_Node000014_Node000019" class="edge">
<title>Node14&#45;&gt;Node19</title>
<g id="a_edge26_Node000014_Node000019"><a xlink:title=" ">
<path fill="none" stroke="#63b8ff" d="M1035.75,-405.56C1092.28,-395.23 1170.15,-380.95 1238.62,-368.25 1241.4,-367.74 1244.22,-367.21 1247.07,-366.68"/>
<polygon fill="#63b8ff" stroke="#63b8ff" points="1035.43,-402.06 1026.22,-407.31 1036.69,-408.95 1035.43,-402.06"/>
</a>
</g>
</g>
<!-- Node14&#45;&gt;Node20 -->
<g id="edge28_Node000014_Node000020" class="edge">
<title>Node14&#45;&gt;Node20</title>
<g id="a_edge28_Node000014_Node000020"><a xlink:title=" ">
<path fill="none" stroke="#63b8ff" d="M877.56,-401.66C832.52,-391.21 776.65,-378.25 733.59,-368.27"/>
<polygon fill="#63b8ff" stroke="#63b8ff" points="876.76,-405.07 887.29,-403.92 878.34,-398.25 876.76,-405.07"/>
</a>
</g>
</g>
<!-- Node15&#45;&gt;Node7 -->
<g id="edge19_Node000015_Node000007" class="edge">
<title>Node15&#45;&gt;Node7</title>
<g id="a_edge19_Node000015_Node000007"><a xlink:title=" ">
<path fill="none" stroke="#63b8ff" d="M1130.17,-184.7C1121.61,-149.76 1101.58,-89.28 1060.62,-56.75 1019.78,-24.31 960.19,-14.14 916.68,-11.37"/>
<polygon fill="#63b8ff" stroke="#63b8ff" points="1126.66,-185.06 1132.31,-194.02 1133.48,-183.49 1126.66,-185.06"/>
</a>
</g>
</g>
<!-- Node16&#45;&gt;Node15 -->
<g id="edge21_Node000016_Node000015" class="edge">
<title>Node16&#45;&gt;Node15</title>
<g id="a_edge21_Node000016_Node000015"><a xlink:title=" ">
<path fill="none" stroke="#63b8ff" d="M1008,-260.83C1034.87,-250.87 1066.85,-239.01 1092.07,-229.65"/>
<polygon fill="#63b8ff" stroke="#63b8ff" points="1006.8,-257.55 998.64,-264.31 1009.23,-264.11 1006.8,-257.55"/>
</a>
</g>
</g>
<!-- Node17&#45;&gt;Node7 -->
<g id="edge24_Node000017_Node000007" class="edge">
<title>Node17&#45;&gt;Node7</title>
<g id="a_edge24_Node000017_Node000007"><a xlink:title=" ">
<path fill="none" stroke="#63b8ff" d="M1117.69,-327.29C1087.23,-302.83 1046.62,-261.26 1046.62,-213.5 1046.62,-213.5 1046.62,-213.5 1046.62,-142 1046.62,-72.35 958.21,-36.65 903.3,-21.19"/>
<polygon fill="#63b8ff" stroke="#63b8ff" points="1115.52,-330.03 1125.57,-333.39 1119.81,-324.5 1115.52,-330.03"/>
</a>
</g>
</g>
<!-- Node17&#45;&gt;Node17 -->
<g id="edge23_Node000017_Node000017" class="edge">
<title>Node17&#45;&gt;Node17</title>
<g id="a_edge23_Node000017_Node000017"><a xlink:title=" ">
<path fill="none" stroke="#63b8ff" d="M1222.34,-360.45C1226.58,-358.31 1229.12,-355.33 1229.12,-351.5 1229.12,-345.05 1221.92,-341 1211.52,-339.33"/>
<polygon fill="#63b8ff" stroke="#63b8ff" points="1221.56,-357.04 1212.97,-363.23 1223.55,-363.75 1221.56,-357.04"/>
</a>
</g>
</g>
<!-- Node18 -->
<g id="Node000018" class="node">
<title>Node18</title>
<g id="a_Node000018"><a xlink:href="solution__output_8cc.html" target="_top" xlink:title=" ">
<polygon fill="white" stroke="#666666" points="1258.88,-292.38 1112.38,-292.38 1112.38,-271.62 1258.88,-271.62 1258.88,-292.38"/>
<text text-anchor="middle" x="1185.62" y="-278.88" font-family="Helvetica,sans-Serif" font-size="10.00">src/core/solution_output.cc</text>
</a>
</g>
</g>
<!-- Node17&#45;&gt;Node18 -->
<g id="edge25_Node000017_Node000018" class="edge">
<title>Node17&#45;&gt;Node18</title>
<g id="a_edge25_Node000017_Node000018"><a xlink:title=" ">
<path fill="none" stroke="#63b8ff" d="M1164.15,-324.41C1169.9,-313.34 1176.24,-301.1 1180.53,-292.82"/>
<polygon fill="#63b8ff" stroke="#63b8ff" points="1161.11,-322.67 1159.62,-333.16 1167.33,-325.89 1161.11,-322.67"/>
</a>
</g>
</g>
<!-- Node19&#45;&gt;Node15 -->
<g id="edge27_Node000019_Node000015" class="edge">
<title>Node19&#45;&gt;Node15</title>
<g id="a_edge27_Node000019_Node000015"><a xlink:title=" ">
<path fill="none" stroke="#63b8ff" d="M1311.16,-324.31C1301.81,-305.62 1287,-281.1 1267.62,-265.25 1247.05,-248.42 1220.34,-236.58 1196.34,-228.51"/>
<polygon fill="#63b8ff" stroke="#63b8ff" points="1307.91,-325.63 1315.37,-333.15 1314.23,-322.62 1307.91,-325.63"/>
</a>
</g>
</g>
<!-- Node20&#45;&gt;Node4 -->
<g id="edge35_Node000020_Node000004" class="edge">
<title>Node20&#45;&gt;Node4</title>
<g id="a_edge35_Node000020_Node000004"><a xlink:title=" ">
<path fill="none" stroke="#63b8ff" d="M605.11,-330.86C574.08,-320.79 536.74,-308.67 507.4,-299.15"/>
<polygon fill="#63b8ff" stroke="#63b8ff" points="603.77,-334.11 614.36,-333.86 605.93,-327.45 603.77,-334.11"/>
</a>
</g>
</g>
<!-- Node20&#45;&gt;Node5 -->
<g id="edge32_Node000020_Node000005" class="edge">
<title>Node20&#45;&gt;Node5</title>
<g id="a_edge32_Node000020_Node000005"><a xlink:title=" ">
<path fill="none" stroke="#63b8ff" d="M586.34,-339.68C528.72,-330.95 449.16,-317.11 380.62,-298.75 308.98,-279.55 228.21,-248.55 181.58,-229.69"/>
<polygon fill="#63b8ff" stroke="#63b8ff" points="585.65,-343.12 596.06,-341.13 586.69,-336.19 585.65,-343.12"/>
</a>
</g>
</g>
<!-- Node20&#45;&gt;Node7 -->
<g id="edge37_Node000020_Node000007" class="edge">
<title>Node20&#45;&gt;Node7</title>
<g id="a_edge37_Node000020_Node000007"><a xlink:title=" ">
<path fill="none" stroke="#63b8ff" d="M739.23,-330.08C756.76,-322.49 774.24,-312.29 787.62,-298.75 816.42,-269.62 822.62,-254.46 822.62,-213.5 822.62,-213.5 822.62,-213.5 822.62,-142 822.62,-95 845.59,-42.14 855.81,-20.93"/>
<polygon fill="#63b8ff" stroke="#63b8ff" points="738.29,-326.69 730.34,-333.69 740.92,-333.17 738.29,-326.69"/>
</a>
</g>
</g>
<!-- Node20&#45;&gt;Node9 -->
<g id="edge33_Node000020_Node000009" class="edge">
<title>Node20&#45;&gt;Node9</title>
<g id="a_edge33_Node000020_Node000009"><a xlink:title=" ">
<path fill="none" stroke="#63b8ff" d="M651.7,-324.13C644.55,-307.05 638.68,-284.49 645.62,-265.25 650.55,-251.63 660.79,-239.06 670.04,-229.72"/>
<polygon fill="#63b8ff" stroke="#63b8ff" points="648.46,-325.47 655.82,-333.09 654.82,-322.55 648.46,-325.47"/>
</a>
</g>
</g>
<!-- Node20&#45;&gt;Node10 -->
<g id="edge34_Node000020_Node000010" class="edge">
<title>Node20&#45;&gt;Node10</title>
<g id="a_edge34_Node000020_Node000010"><a xlink:title=" ">
<path fill="none" stroke="#63b8ff" d="M637.31,-327.54C603.08,-299.8 546.37,-253.83 516.48,-229.59"/>
<polygon fill="#63b8ff" stroke="#63b8ff" points="634.76,-329.98 644.73,-333.56 639.17,-324.55 634.76,-329.98"/>
</a>
</g>
</g>
<!-- Node20&#45;&gt;Node12 -->
<g id="edge36_Node000020_Node000012" class="edge">
<title>Node20&#45;&gt;Node12</title>
<g id="a_edge36_Node000020_Node000012"><a xlink:title=" ">
<path fill="none" stroke="#63b8ff" d="M731.7,-329.26C745.17,-321.78 757.65,-311.85 765.62,-298.75 789.42,-259.64 792.97,-232.47 765.62,-195.75 752.66,-178.34 703.09,-164.62 660.31,-155.69"/>
<polygon fill="#63b8ff" stroke="#63b8ff" points="730.46,-325.96 723.12,-333.59 733.62,-332.21 730.46,-325.96"/>
</a>
</g>
</g>
<!-- Node20&#45;&gt;Node16 -->
<g id="edge29_Node000020_Node000016" class="edge">
<title>Node20&#45;&gt;Node16</title>
<g id="a_edge29_Node000020_Node000016"><a xlink:title=" ">
<path fill="none" stroke="#63b8ff" d="M744.48,-332.02C789.76,-321.4 845.94,-308.24 888.67,-298.22"/>
<polygon fill="#63b8ff" stroke="#63b8ff" points="743.92,-328.55 734.99,-334.24 745.52,-335.37 743.92,-328.55"/>
</a>
</g>
</g>
<!-- Node21 -->
<g id="Node000021" class="node">
<title>Node21</title>
<g id="a_Node000021"><a xlink:href="constant__solver_8h.html" target="_top" xlink:title=" ">
<polygon fill="white" stroke="#666666" points="135.25,-159.75 0,-159.75 0,-126.25 135.25,-126.25 135.25,-159.75"/>
<text text-anchor="start" x="8" y="-146.25" font-family="Helvetica,sans-Serif" font-size="10.00">include/prismspf/solvers</text>
<text text-anchor="middle" x="67.62" y="-133.5" font-family="Helvetica,sans-Serif" font-size="10.00">/constant_solver.h</text>
</a>
</g>
</g>
<!-- Node20&#45;&gt;Node21 -->
<g id="edge30_Node000020_Node000021" class="edge">
<title>Node20&#45;&gt;Node21</title>
<g id="a_edge30_Node000020_Node000021"><a xlink:title=" ">
<path fill="none" stroke="#63b8ff" d="M586.21,-347.22C437.35,-339.13 125.9,-312.44 65.62,-229.25 51.03,-209.11 56.45,-178.69 61.91,-160.16"/>
<polygon fill="#63b8ff" stroke="#63b8ff" points="585.83,-350.7 596,-347.73 586.19,-343.71 585.83,-350.7"/>
</a>
</g>
</g>
<!-- Node22 -->
<g id="Node000022" class="node">
<title>Node22</title>
<g id="a_Node000022"><a xlink:href="solver__base_8cc.html" target="_top" xlink:title=" ">
<polygon fill="white" stroke="#666666" points="756.38,-298.75 654.88,-298.75 654.88,-265.25 756.38,-265.25 756.38,-298.75"/>
<text text-anchor="start" x="662.88" y="-285.25" font-family="Helvetica,sans-Serif" font-size="10.00">src/solvers/solver</text>
<text text-anchor="middle" x="705.62" y="-272.5" font-family="Helvetica,sans-Serif" font-size="10.00">_base.cc</text>
</a>
</g>
</g>
<!-- Node20&#45;&gt;Node22 -->
<g id="edge38_Node000020_Node000022" class="edge">
<title>Node20&#45;&gt;Node22</title>
<g id="a_edge38_Node000020_Node000022"><a xlink:title=" ">
<path fill="none" stroke="#63b8ff" d="M680.87,-324.78C686.03,-316.07 691.64,-306.6 696.21,-298.88"/>
<polygon fill="#63b8ff" stroke="#63b8ff" points="677.96,-322.81 675.88,-333.2 683.99,-326.38 677.96,-322.81"/>
</a>
</g>
</g>
<!-- Node21&#45;&gt;Node6 -->
<g id="edge31_Node000021_Node000006" class="edge">
<title>Node21&#45;&gt;Node6</title>
<g id="a_edge31_Node000021_Node000006"><a xlink:title=" ">
<path fill="none" stroke="#63b8ff" d="M146.72,-129.56C227.62,-116.83 351.99,-97.26 428.61,-85.2"/>
<polygon fill="#63b8ff" stroke="#63b8ff" points="146.43,-126.06 137.1,-131.07 147.52,-132.97 146.43,-126.06"/>
</a>
</g>
</g>
<!-- Node26&#45;&gt;Node15 -->
<g id="edge46_Node000026_Node000015" class="edge">
<title>Node26&#45;&gt;Node15</title>
<g id="a_edge46_Node000026_Node000015"><a xlink:title=" ">
<path fill="none" stroke="#63b8ff" d="M1511.94,-532.35C1501.1,-505.15 1486.62,-461.45 1486.62,-422 1486.62,-422 1486.62,-422 1486.62,-350.5 1486.62,-288.93 1296.82,-243.83 1196.36,-224.27"/>
<polygon fill="#63b8ff" stroke="#63b8ff" points="1508.69,-533.63 1515.74,-541.53 1515.16,-530.95 1508.69,-533.63"/>
</a>
</g>
</g>
<!-- Node27&#45;&gt;Node19 -->
<g id="edge48_Node000027_Node000019" class="edge">
<title>Node27&#45;&gt;Node19</title>
<g id="a_edge48_Node000027_Node000019"><a xlink:title=" ">
<path fill="none" stroke="#63b8ff" d="M1303.42,-601.69C1314.9,-565.12 1334.39,-497.33 1341.62,-437.75 1343.42,-422.97 1344.23,-418.91 1341.62,-404.25 1339.41,-391.81 1334.43,-378.44 1330.12,-368.41"/>
<polygon fill="#63b8ff" stroke="#63b8ff" points="1300.16,-600.38 1300.45,-610.97 1306.83,-602.51 1300.16,-600.38"/>
</a>
</g>
</g>
<!-- Node27&#45;&gt;Node26 -->
<g id="edge49_Node000027_Node000026" class="edge">
<title>Node27&#45;&gt;Node26</title>
<g id="a_edge49_Node000027_Node000026"><a xlink:title=" ">
<path fill="none" stroke="#63b8ff" d="M1360.35,-609.13C1394.7,-599 1436.24,-586.76 1468.82,-577.15"/>
<polygon fill="#63b8ff" stroke="#63b8ff" points="1359.53,-605.72 1350.93,-611.9 1361.51,-612.43 1359.53,-605.72"/>
</a>
</g>
</g>
<!-- Node28 -->
<g id="Node000028" class="node">
<title>Node28</title>
<g id="a_Node000028"><a xlink:href="user__input__parameters_8h.html" target="_top" xlink:title=" ">
<polygon fill="white" stroke="#666666" points="1123.5,-576.75 947.75,-576.75 947.75,-543.25 1123.5,-543.25 1123.5,-576.75"/>
<text text-anchor="start" x="955.75" y="-563.25" font-family="Helvetica,sans-Serif" font-size="10.00">include/prismspf/user</text>
<text text-anchor="middle" x="1035.62" y="-550.5" font-family="Helvetica,sans-Serif" font-size="10.00">_inputs/user_input_parameters.h</text>
</a>
</g>
</g>
<!-- Node27&#45;&gt;Node28 -->
<g id="edge50_Node000027_Node000028" class="edge">
<title>Node27&#45;&gt;Node28</title>
<g id="a_edge50_Node000027_Node000028"><a xlink:title=" ">
<path fill="none" stroke="#63b8ff" d="M1221.54,-609.45C1182.46,-599.27 1134.86,-586.86 1097.6,-577.15"/>
<polygon fill="#63b8ff" stroke="#63b8ff" points="1220.56,-612.82 1231.12,-611.95 1222.33,-606.04 1220.56,-612.82"/>
</a>
</g>
</g>
<!-- Node28&#45;&gt;Node3 -->
<g id="edge51_Node000028_Node000003" class="edge">
<title>Node28&#45;&gt;Node3</title>
<g id="a_edge51_Node000028_Node000003"><a xlink:title=" ">
<path fill="none" stroke="#63b8ff" d="M950.17,-540.39C898.26,-529.09 833.22,-514.93 786.52,-504.76"/>
<polygon fill="#63b8ff" stroke="#63b8ff" points="949.38,-543.8 959.89,-542.51 950.87,-536.96 949.38,-543.8"/>
</a>
</g>
</g>
<!-- Node28&#45;&gt;Node7 -->
<g id="edge59_Node000028_Node000007" class="edge">
<title>Node28&#45;&gt;Node7</title>
<g id="a_edge59_Node000028_Node000007"><a xlink:title=" ">
<path fill="none" stroke="#63b8ff" d="M972.62,-538.65C922.46,-518.04 860.62,-480.72 860.62,-422 860.62,-422 860.62,-422 860.62,-142 860.62,-96.87 860.62,-42.97 860.62,-21.21"/>
<polygon fill="#63b8ff" stroke="#63b8ff" points="971.12,-541.82 981.71,-542.24 973.7,-535.31 971.12,-541.82"/>
</a>
</g>
</g>
<!-- Node28&#45;&gt;Node14 -->
<g id="edge54_Node000028_Node000014" class="edge">
<title>Node28&#45;&gt;Node14</title>
<g id="a_edge54_Node000028_Node000014"><a xlink:title=" ">
<path fill="none" stroke="#63b8ff" d="M1004.6,-535.26C995.79,-527.2 986.9,-517.59 980.62,-507.25 967.39,-485.43 961.23,-456.06 958.53,-438.11"/>
<polygon fill="#63b8ff" stroke="#63b8ff" points="1002.29,-537.89 1012.14,-541.78 1006.87,-532.59 1002.29,-537.89"/>
</a>
</g>
</g>
<!-- Node28&#45;&gt;Node17 -->
<g id="edge52_Node000028_Node000017" class="edge">
<title>Node28&#45;&gt;Node17</title>
<g id="a_edge52_Node000028_Node000017"><a xlink:title=" ">
<path fill="none" stroke="#63b8ff" d="M1020.14,-533.1C1011.9,-515.8 1005.05,-492.79 1013.62,-473.75 1035.41,-425.39 1087.07,-388.52 1120.36,-368.74"/>
<polygon fill="#63b8ff" stroke="#63b8ff" points="1016.91,-534.47 1024.64,-541.72 1023.12,-531.23 1016.91,-534.47"/>
</a>
</g>
</g>
<!-- Node28&#45;&gt;Node19 -->
<g id="edge53_Node000028_Node000019" class="edge">
<title>Node28&#45;&gt;Node19</title>
<g id="a_edge53_Node000028_Node000019"><a xlink:title=" ">
<path fill="none" stroke="#63b8ff" d="M1135.1,-549.7C1197.81,-541.89 1271.21,-528.52 1294.62,-507.25 1334.04,-471.46 1329.65,-400.4 1325.33,-368.58"/>
<polygon fill="#63b8ff" stroke="#63b8ff" points="1134.94,-546.2 1125.43,-550.87 1135.78,-553.15 1134.94,-546.2"/>
</a>
</g>
</g>
<!-- Node28&#45;&gt;Node20 -->
<g id="edge55_Node000028_Node000020" class="edge">
<title>Node28&#45;&gt;Node20</title>
<g id="a_edge55_Node000028_Node000020"><a xlink:title=" ">
<path fill="none" stroke="#63b8ff" d="M936.2,-549.14C904.58,-541.76 871.42,-529.05 846.62,-507.25 809.37,-474.49 839.34,-438.68 803.62,-404.25 784.47,-385.78 758.1,-373.78 733.54,-366.03"/>
<polygon fill="#63b8ff" stroke="#63b8ff" points="935.31,-552.53 945.82,-551.21 936.79,-545.69 935.31,-552.53"/>
</a>
</g>
</g>
<!-- Node29 -->
<g id="Node000029" class="node">
<title>Node29</title>
<g id="a_Node000029"><a xlink:href="periodic__distance_8h.html" target="_top" xlink:title=" ">
<polygon fill="white" stroke="#666666" points="1307,-437.75 1170.25,-437.75 1170.25,-404.25 1307,-404.25 1307,-437.75"/>
<text text-anchor="start" x="1178.25" y="-424.25" font-family="Helvetica,sans-Serif" font-size="10.00">include/prismspf/utilities</text>
<text text-anchor="middle" x="1238.62" y="-411.5" font-family="Helvetica,sans-Serif" font-size="10.00">/periodic_distance.h</text>
</a>
</g>
</g>
<!-- Node28&#45;&gt;Node29 -->
<g id="edge56_Node000028_Node000029" class="edge">
<title>Node28&#45;&gt;Node29</title>
<g id="a_edge56_Node000028_Node000029"><a xlink:title=" ">
<path fill="none" stroke="#63b8ff" d="M1135.04,-550.29C1193.5,-542.87 1259.45,-529.73 1277.62,-507.25 1294.72,-486.12 1272.91,-456.28 1255.69,-438.08"/>
<polygon fill="#63b8ff" stroke="#63b8ff" points="1134.85,-546.79 1125.34,-551.47 1135.69,-553.73 1134.85,-546.79"/>
</a>
</g>
</g>
<!-- Node30 -->
<g id="Node000030" class="node">
<title>Node30</title>
<g id="a_Node000030"><a xlink:href="constraint__manager_8cc.html" target="_top" xlink:title=" ">
<polygon fill="white" stroke="#666666" points="1128.62,-507.25 1022.62,-507.25 1022.62,-473.75 1128.62,-473.75 1128.62,-507.25"/>
<text text-anchor="start" x="1030.62" y="-493.75" font-family="Helvetica,sans-Serif" font-size="10.00">src/core/constraint</text>
<text text-anchor="middle" x="1075.62" y="-481" font-family="Helvetica,sans-Serif" font-size="10.00">_manager.cc</text>
</a>
</g>
</g>
<!-- Node28&#45;&gt;Node30 -->
<g id="edge58_Node000028_Node000030" class="edge">
<title>Node28&#45;&gt;Node30</title>
<g id="a_edge58_Node000028_Node000030"><a xlink:title=" ">
<path fill="none" stroke="#63b8ff" d="M1050.87,-533.28C1056.03,-524.57 1061.64,-515.1 1066.21,-507.38"/>
<polygon fill="#63b8ff" stroke="#63b8ff" points="1047.96,-531.31 1045.88,-541.7 1053.99,-534.88 1047.96,-531.31"/>
</a>
</g>
</g>
<!-- Node31 -->
<g id="Node000031" class="node">
<title>Node31</title>
<g id="a_Node000031"><a xlink:href="user__input__parameters_8cc.html" target="_top" xlink:title=" ">
<polygon fill="white" stroke="#666666" points="1268.12,-507.25 1147.12,-507.25 1147.12,-473.75 1268.12,-473.75 1268.12,-507.25"/>
<text text-anchor="start" x="1155.12" y="-493.75" font-family="Helvetica,sans-Serif" font-size="10.00">src/user_inputs/user</text>
<text text-anchor="middle" x="1207.62" y="-481" font-family="Helvetica,sans-Serif" font-size="10.00">_input_parameters.cc</text>
</a>
</g>
</g>
<!-- Node28&#45;&gt;Node31 -->
<g id="edge60_Node000028_Node000031" class="edge">
<title>Node28&#45;&gt;Node31</title>
<g id="a_edge60_Node000028_Node000031"><a xlink:title=" ">
<path fill="none" stroke="#63b8ff" d="M1087.35,-538.7C1112.67,-528.76 1142.73,-516.97 1166.47,-507.65"/>
<polygon fill="#63b8ff" stroke="#63b8ff" points="1086.26,-535.37 1078.23,-542.28 1088.82,-541.88 1086.26,-535.37"/>
</a>
</g>
</g>
<!-- Node29&#45;&gt;Node19 -->
<g id="edge57_Node000029_Node000019" class="edge">
<title>Node29&#45;&gt;Node19</title>
<g id="a_edge57_Node000029_Node000019"><a xlink:title=" ">
<path fill="none" stroke="#63b8ff" d="M1267.42,-396.86C1278.99,-387.56 1292.06,-377.06 1302.57,-368.62"/>
<polygon fill="#63b8ff" stroke="#63b8ff" points="1265.31,-394.06 1259.71,-403.06 1269.7,-399.52 1265.31,-394.06"/>
</a>
</g>
</g>
</g>
</svg>
