<?xml version="1.0" encoding="UTF-8" standalone="no"?>
<!DOCTYPE svg PUBLIC "-//W3C//DTD SVG 1.1//EN"
 "http://www.w3.org/Graphics/SVG/1.1/DTD/svg11.dtd">
<!-- Generated by graphviz version 12.2.1 (20241206.2353)
 -->
<!-- Title: include/prismspf/nucleation/nucleus.h Pages: 1 -->
<svg width="1495pt" height="724pt"
 viewBox="0.00 0.00 1495.12 723.75" xmlns="http://www.w3.org/2000/svg" xmlns:xlink="http://www.w3.org/1999/xlink">
<g id="graph0" class="graph" transform="scale(1 1) rotate(0) translate(4 719.75)">
<title>include/prismspf/nucleation/nucleus.h</title>
<!-- Node1 -->
<g id="Node000001" class="node">
<title>Node1</title>
<g id="a_Node000001"><a xlink:title=" ">
<polygon fill="#999999" stroke="#666666" points="1307.12,-715.75 1156.12,-715.75 1156.12,-682.25 1307.12,-682.25 1307.12,-715.75"/>
<text text-anchor="start" x="1164.12" y="-702.25" font-family="Helvetica,sans-Serif" font-size="10.00">include/prismspf/nucleation</text>
<text text-anchor="middle" x="1231.62" y="-689.5" font-family="Helvetica,sans-Serif" font-size="10.00">/nucleus.h</text>
</a>
</g>
</g>
<!-- Node2 -->
<g id="Node000002" class="node">
<title>Node2</title>
<g id="a_Node000002"><a xlink:href="phase__field__tools_8h.html" target="_top" xlink:title=" ">
<polygon fill="white" stroke="#666666" points="721.12,-576.75 600.12,-576.75 600.12,-543.25 721.12,-543.25 721.12,-576.75"/>
<text text-anchor="start" x="608.12" y="-563.25" font-family="Helvetica,sans-Serif" font-size="10.00">include/prismspf/core</text>
<text text-anchor="middle" x="660.62" y="-550.5" font-family="Helvetica,sans-Serif" font-size="10.00">/phase_field_tools.h</text>
</a>
</g>
</g>
<!-- Node1&#45;&gt;Node2 -->
<g id="edge1_Node000001_Node000002" class="edge">
<title>Node1&#45;&gt;Node2</title>
<g id="a_edge1_Node000001_Node000002"><a xlink:title=" ">
<path fill="none" stroke="#63b8ff" d="M1152.98,-679.13C1037.77,-651.49 825.5,-600.56 721.41,-575.58"/>
<polygon fill="#63b8ff" stroke="#63b8ff" points="1152.15,-682.53 1162.69,-681.46 1153.78,-675.72 1152.15,-682.53"/>
</a>
</g>
</g>
<!-- Node17 -->
<g id="Node000017" class="node">
<title>Node17</title>
<g id="a_Node000017"><a xlink:href="nucleation__manager_8h.html" target="_top" xlink:title=" ">
<polygon fill="white" stroke="#666666" points="1277.12,-368.25 1126.12,-368.25 1126.12,-334.75 1277.12,-334.75 1277.12,-368.25"/>
<text text-anchor="start" x="1134.12" y="-354.75" font-family="Helvetica,sans-Serif" font-size="10.00">include/prismspf/nucleation</text>
<text text-anchor="middle" x="1201.62" y="-342" font-family="Helvetica,sans-Serif" font-size="10.00">/nucleation_manager.h</text>
</a>
</g>
</g>
<!-- Node1&#45;&gt;Node17 -->
<g id="edge40_Node000001_Node000017" class="edge">
<title>Node1&#45;&gt;Node17</title>
<g id="a_edge40_Node000001_Node000017"><a xlink:title=" ">
<path fill="none" stroke="#63b8ff" d="M1253.79,-673.07C1260.03,-664.97 1266.29,-655.65 1270.62,-646.25 1286.9,-611.01 1289.62,-599.82 1289.62,-561 1289.62,-561 1289.62,-561 1289.62,-489.5 1289.62,-438.9 1246.6,-392.08 1220.72,-368.49"/>
<polygon fill="#63b8ff" stroke="#63b8ff" points="1251.14,-670.79 1247.55,-680.76 1256.57,-675.2 1251.14,-670.79"/>
</a>
</g>
</g>
<!-- Node24 -->
<g id="Node000024" class="node">
<title>Node24</title>
<g id="a_Node000024"><a xlink:href="nucleus__refinement__function_8h.html" target="_top" xlink:title=" ">
<polygon fill="white" stroke="#666666" points="1487.12,-576.75 1318.12,-576.75 1318.12,-543.25 1487.12,-543.25 1487.12,-576.75"/>
<text text-anchor="start" x="1326.12" y="-563.25" font-family="Helvetica,sans-Serif" font-size="10.00">include/prismspf/nucleation</text>
<text text-anchor="middle" x="1402.62" y="-550.5" font-family="Helvetica,sans-Serif" font-size="10.00">/nucleus_refinement_function.h</text>
</a>
</g>
</g>
<!-- Node1&#45;&gt;Node24 -->
<g id="edge41_Node000001_Node000024" class="edge">
<title>Node1&#45;&gt;Node24</title>
<g id="a_edge41_Node000001_Node000024"><a xlink:title=" ">
<path fill="none" stroke="#63b8ff" d="M1264.19,-675.51C1276.7,-666.63 1291,-656.19 1303.62,-646.25 1332.85,-623.24 1365.26,-594.72 1384.78,-577.2"/>
<polygon fill="#63b8ff" stroke="#63b8ff" points="1262.43,-672.47 1256.27,-681.09 1266.46,-678.19 1262.43,-672.47"/>
</a>
</g>
</g>
<!-- Node25 -->
<g id="Node000025" class="node">
<title>Node25</title>
<g id="a_Node000025"><a xlink:href="nucleation__parameters_8h.html" target="_top" xlink:title=" ">
<polygon fill="white" stroke="#666666" points="1261.5,-646.25 1085.75,-646.25 1085.75,-612.75 1261.5,-612.75 1261.5,-646.25"/>
<text text-anchor="start" x="1093.75" y="-632.75" font-family="Helvetica,sans-Serif" font-size="10.00">include/prismspf/user</text>
<text text-anchor="middle" x="1173.62" y="-620" font-family="Helvetica,sans-Serif" font-size="10.00">_inputs/nucleation_parameters.h</text>
</a>
</g>
</g>
<!-- Node1&#45;&gt;Node25 -->
<g id="edge43_Node000001_Node000025" class="edge">
<title>Node1&#45;&gt;Node25</title>
<g id="a_edge43_Node000001_Node000025"><a xlink:title=" ">
<path fill="none" stroke="#63b8ff" d="M1210.49,-673.41C1202.75,-664.39 1194.19,-654.43 1187.27,-646.38"/>
<polygon fill="#63b8ff" stroke="#63b8ff" points="1207.72,-675.55 1216.89,-680.86 1213.03,-670.99 1207.72,-675.55"/>
</a>
</g>
</g>
<!-- Node3 -->
<g id="Node000003" class="node">
<title>Node3</title>
<g id="a_Node000003"><a xlink:href="pde__operator__base_8h.html" target="_top" xlink:title=" ">
<polygon fill="white" stroke="#666666" points="665.12,-507.25 544.12,-507.25 544.12,-473.75 665.12,-473.75 665.12,-507.25"/>
<text text-anchor="start" x="552.12" y="-493.75" font-family="Helvetica,sans-Serif" font-size="10.00">include/prismspf/core</text>
<text text-anchor="middle" x="604.62" y="-481" font-family="Helvetica,sans-Serif" font-size="10.00">/pde_operator_base.h</text>
</a>
</g>
</g>
<!-- Node2&#45;&gt;Node3 -->
<g id="edge2_Node000002_Node000003" class="edge">
<title>Node2&#45;&gt;Node3</title>
<g id="a_edge2_Node000002_Node000003"><a xlink:title=" ">
<path fill="none" stroke="#63b8ff" d="M640.22,-534.41C632.74,-525.39 624.48,-515.43 617.8,-507.38"/>
<polygon fill="#63b8ff" stroke="#63b8ff" points="637.31,-536.38 646.39,-541.84 642.7,-531.91 637.31,-536.38"/>
</a>
</g>
</g>
<!-- Node2&#45;&gt;Node17 -->
<g id="edge38_Node000002_Node000017" class="edge">
<title>Node2&#45;&gt;Node17</title>
<g id="a_edge38_Node000002_Node000017"><a xlink:title=" ">
<path fill="none" stroke="#63b8ff" d="M708.21,-538.26C779.73,-507.41 919.49,-448.31 1040.62,-404.25 1075.94,-391.4 1116.19,-378.47 1147.61,-368.74"/>
<polygon fill="#63b8ff" stroke="#63b8ff" points="706.93,-535.01 699.13,-542.19 709.7,-541.43 706.93,-535.01"/>
</a>
</g>
</g>
<!-- Node23 -->
<g id="Node000023" class="node">
<title>Node23</title>
<g id="a_Node000023"><a xlink:href="phase__field__tools_8cc.html" target="_top" xlink:title=" ">
<polygon fill="white" stroke="#666666" points="526,-507.25 413.25,-507.25 413.25,-473.75 526,-473.75 526,-507.25"/>
<text text-anchor="start" x="421.25" y="-493.75" font-family="Helvetica,sans-Serif" font-size="10.00">src/core/phase_field</text>
<text text-anchor="middle" x="469.62" y="-481" font-family="Helvetica,sans-Serif" font-size="10.00">_tools.cc</text>
</a>
</g>
</g>
<!-- Node2&#45;&gt;Node23 -->
<g id="edge39_Node000002_Node000023" class="edge">
<title>Node2&#45;&gt;Node23</title>
<g id="a_edge39_Node000002_Node000023"><a xlink:title=" ">
<path fill="none" stroke="#63b8ff" d="M604.31,-539.1C575.96,-529.08 542.04,-517.09 515.33,-507.65"/>
<polygon fill="#63b8ff" stroke="#63b8ff" points="602.85,-542.3 613.45,-542.33 605.19,-535.7 602.85,-542.3"/>
</a>
</g>
</g>
<!-- Node4 -->
<g id="Node000004" class="node">
<title>Node4</title>
<g id="a_Node000004"><a xlink:href="mf__operator_8h.html" target="_top" xlink:title=" ">
<polygon fill="white" stroke="#666666" points="393.25,-298.75 258,-298.75 258,-265.25 393.25,-265.25 393.25,-298.75"/>
<text text-anchor="start" x="266" y="-285.25" font-family="Helvetica,sans-Serif" font-size="10.00">include/prismspf/solvers</text>
<text text-anchor="middle" x="325.62" y="-272.5" font-family="Helvetica,sans-Serif" font-size="10.00">/mf_operator.h</text>
</a>
</g>
</g>
<!-- Node3&#45;&gt;Node4 -->
<g id="edge3_Node000003_Node000004" class="edge">
<title>Node3&#45;&gt;Node4</title>
<g id="a_edge3_Node000003_Node000004"><a xlink:title=" ">
<path fill="none" stroke="#63b8ff" d="M533.07,-473.64C457.98,-460.19 421.87,-486.84 369.62,-437.75 329.93,-400.45 325.18,-330.19 325.17,-298.82"/>
<polygon fill="#63b8ff" stroke="#63b8ff" points="531.95,-476.99 542.44,-475.52 533.32,-470.12 531.95,-476.99"/>
</a>
</g>
</g>
<!-- Node12 -->
<g id="Node000012" class="node">
<title>Node12</title>
<g id="a_Node000012"><a xlink:href="solve__context_8h.html" target="_top" xlink:title=" ">
<polygon fill="white" stroke="#666666" points="903.25,-437.75 768,-437.75 768,-404.25 903.25,-404.25 903.25,-437.75"/>
<text text-anchor="start" x="776" y="-424.25" font-family="Helvetica,sans-Serif" font-size="10.00">include/prismspf/solvers</text>
<text text-anchor="middle" x="835.62" y="-411.5" font-family="Helvetica,sans-Serif" font-size="10.00">/solve_context.h</text>
</a>
</g>
</g>
<!-- Node3&#45;&gt;Node12 -->
<g id="edge14_Node000003_Node000012" class="edge">
<title>Node3&#45;&gt;Node12</title>
<g id="a_edge14_Node000003_Node000012"><a xlink:title=" ">
<path fill="none" stroke="#63b8ff" d="M670.93,-470.13C705.57,-460 747.48,-447.76 780.35,-438.15"/>
<polygon fill="#63b8ff" stroke="#63b8ff" points="670.02,-466.74 661.41,-472.91 671.99,-473.46 670.02,-466.74"/>
</a>
</g>
</g>
<!-- Node18 -->
<g id="Node000018" class="node">
<title>Node18</title>
<g id="a_Node000018"><a xlink:href="solver__base_8h.html" target="_top" xlink:title=" ">
<polygon fill="white" stroke="#666666" points="652.25,-368.25 517,-368.25 517,-334.75 652.25,-334.75 652.25,-368.25"/>
<text text-anchor="start" x="525" y="-354.75" font-family="Helvetica,sans-Serif" font-size="10.00">include/prismspf/solvers</text>
<text text-anchor="middle" x="584.62" y="-342" font-family="Helvetica,sans-Serif" font-size="10.00">/solver_base.h</text>
</a>
</g>
</g>
<!-- Node3&#45;&gt;Node18 -->
<g id="edge35_Node000003_Node000018" class="edge">
<title>Node3&#45;&gt;Node18</title>
<g id="a_edge35_Node000003_Node000018"><a xlink:title=" ">
<path fill="none" stroke="#63b8ff" d="M532.88,-473.32C468.48,-458.72 383.84,-439.28 382.62,-437.75 342.63,-387.36 443.48,-366.35 516.64,-357.89"/>
<polygon fill="#63b8ff" stroke="#63b8ff" points="531.83,-476.67 542.36,-475.47 533.38,-469.85 531.83,-476.67"/>
</a>
</g>
</g>
<!-- Node21 -->
<g id="Node000021" class="node">
<title>Node21</title>
<g id="a_Node000021"><a xlink:href="dirichlet_8cc.html" target="_top" xlink:title=" ">
<polygon fill="white" stroke="#666666" points="501.88,-431.38 391.38,-431.38 391.38,-410.62 501.88,-410.62 501.88,-431.38"/>
<text text-anchor="middle" x="446.62" y="-417.88" font-family="Helvetica,sans-Serif" font-size="10.00">src/core/dirichlet.cc</text>
</a>
</g>
</g>
<!-- Node3&#45;&gt;Node21 -->
<g id="edge36_Node000003_Node000021" class="edge">
<title>Node3&#45;&gt;Node21</title>
<g id="a_edge36_Node000003_Node000021"><a xlink:title=" ">
<path fill="none" stroke="#63b8ff" d="M556.47,-468.93C527.58,-456.58 492.16,-441.45 469.5,-431.77"/>
<polygon fill="#63b8ff" stroke="#63b8ff" points="554.82,-472.03 565.39,-472.74 557.57,-465.59 554.82,-472.03"/>
</a>
</g>
</g>
<!-- Node22 -->
<g id="Node000022" class="node">
<title>Node22</title>
<g id="a_Node000022"><a xlink:href="initial__conditions_8cc.html" target="_top" xlink:title=" ">
<polygon fill="white" stroke="#666666" points="673.62,-431.38 519.62,-431.38 519.62,-410.62 673.62,-410.62 673.62,-431.38"/>
<text text-anchor="middle" x="596.62" y="-417.88" font-family="Helvetica,sans-Serif" font-size="10.00">src/core/initial_conditions.cc</text>
</a>
</g>
</g>
<!-- Node3&#45;&gt;Node22 -->
<g id="edge37_Node000003_Node000022" class="edge">
<title>Node3&#45;&gt;Node22</title>
<g id="a_edge37_Node000003_Node000022"><a xlink:title=" ">
<path fill="none" stroke="#63b8ff" d="M601.41,-462.38C600.13,-451.58 598.74,-439.85 597.79,-431.82"/>
<polygon fill="#63b8ff" stroke="#63b8ff" points="597.9,-462.48 602.55,-472 604.85,-461.66 597.9,-462.48"/>
</a>
</g>
</g>
<!-- Node5 -->
<g id="Node000005" class="node">
<title>Node5</title>
<g id="a_Node000005"><a xlink:href="explicit__solver_8h.html" target="_top" xlink:title=" ">
<polygon fill="white" stroke="#666666" points="135.25,-229.25 0,-229.25 0,-195.75 135.25,-195.75 135.25,-229.25"/>
<text text-anchor="start" x="8" y="-215.75" font-family="Helvetica,sans-Serif" font-size="10.00">include/prismspf/solvers</text>
<text text-anchor="middle" x="67.62" y="-203" font-family="Helvetica,sans-Serif" font-size="10.00">/explicit_solver.h</text>
</a>
</g>
</g>
<!-- Node4&#45;&gt;Node5 -->
<g id="edge4_Node000004_Node000005" class="edge">
<title>Node4&#45;&gt;Node5</title>
<g id="a_edge4_Node000004_Node000005"><a xlink:title=" ">
<path fill="none" stroke="#63b8ff" d="M252.83,-261.95C213.9,-251.77 166.47,-239.36 129.36,-229.65"/>
<polygon fill="#63b8ff" stroke="#63b8ff" points="251.8,-265.3 262.36,-264.45 253.57,-258.53 251.8,-265.3"/>
</a>
</g>
</g>
<!-- Node9 -->
<g id="Node000009" class="node">
<title>Node9</title>
<g id="a_Node000009"><a xlink:href="linear__solver_8h.html" target="_top" xlink:title=" ">
<polygon fill="white" stroke="#666666" points="489.25,-229.25 354,-229.25 354,-195.75 489.25,-195.75 489.25,-229.25"/>
<text text-anchor="start" x="362" y="-215.75" font-family="Helvetica,sans-Serif" font-size="10.00">include/prismspf/solvers</text>
<text text-anchor="middle" x="421.62" y="-203" font-family="Helvetica,sans-Serif" font-size="10.00">/linear_solver.h</text>
</a>
</g>
</g>
<!-- Node4&#45;&gt;Node9 -->
<g id="edge8_Node000004_Node000009" class="edge">
<title>Node4&#45;&gt;Node9</title>
<g id="a_edge8_Node000004_Node000009"><a xlink:title=" ">
<path fill="none" stroke="#63b8ff" d="M357.75,-258.41C371.17,-248.98 386.45,-238.23 398.7,-229.62"/>
<polygon fill="#63b8ff" stroke="#63b8ff" points="355.78,-255.52 349.61,-264.13 359.81,-261.24 355.78,-255.52"/>
</a>
</g>
</g>
<!-- Node10 -->
<g id="Node000010" class="node">
<title>Node10</title>
<g id="a_Node000010"><a xlink:href="newton__solver_8h.html" target="_top" xlink:title=" ">
<polygon fill="white" stroke="#666666" points="520.25,-159.75 385,-159.75 385,-126.25 520.25,-126.25 520.25,-159.75"/>
<text text-anchor="start" x="393" y="-146.25" font-family="Helvetica,sans-Serif" font-size="10.00">include/prismspf/solvers</text>
<text text-anchor="middle" x="452.62" y="-133.5" font-family="Helvetica,sans-Serif" font-size="10.00">/newton_solver.h</text>
</a>
</g>
</g>
<!-- Node4&#45;&gt;Node10 -->
<g id="edge12_Node000004_Node000010" class="edge">
<title>Node4&#45;&gt;Node10</title>
<g id="a_edge12_Node000004_Node000010"><a xlink:title=" ">
<path fill="none" stroke="#63b8ff" d="M325.74,-253.47C327.16,-235.34 331.68,-212.03 344.62,-195.75 357.5,-179.56 376.68,-168.13 395.32,-160.22"/>
<polygon fill="#63b8ff" stroke="#63b8ff" points="322.25,-253.11 325.27,-263.26 329.25,-253.44 322.25,-253.11"/>
</a>
</g>
</g>
<!-- Node11 -->
<g id="Node000011" class="node">
<title>Node11</title>
<g id="a_Node000011"><a xlink:href="mf__operator_8cc.html" target="_top" xlink:title=" ">
<polygon fill="white" stroke="#666666" points="297.75,-222.88 153.5,-222.88 153.5,-202.12 297.75,-202.12 297.75,-222.88"/>
<text text-anchor="middle" x="225.62" y="-209.38" font-family="Helvetica,sans-Serif" font-size="10.00">src/solvers/mf_operator.cc</text>
</a>
</g>
</g>
<!-- Node4&#45;&gt;Node11 -->
<g id="edge13_Node000004_Node000011" class="edge">
<title>Node4&#45;&gt;Node11</title>
<g id="a_edge13_Node000004_Node000011"><a xlink:title=" ">
<path fill="none" stroke="#63b8ff" d="M292.23,-258.46C274.52,-246.51 253.69,-232.44 240.1,-223.27"/>
<polygon fill="#63b8ff" stroke="#63b8ff" points="290.17,-261.29 300.42,-263.99 294.09,-255.49 290.17,-261.29"/>
</a>
</g>
</g>
<!-- Node6 -->
<g id="Node000006" class="node">
<title>Node6</title>
<g id="a_Node000006"><a xlink:href="solvers_8h.html" target="_top" xlink:title=" ">
<polygon fill="white" stroke="#666666" points="520.25,-90.25 385,-90.25 385,-56.75 520.25,-56.75 520.25,-90.25"/>
<text text-anchor="start" x="393" y="-76.75" font-family="Helvetica,sans-Serif" font-size="10.00">include/prismspf/solvers</text>
<text text-anchor="middle" x="452.62" y="-64" font-family="Helvetica,sans-Serif" font-size="10.00">/solvers.h</text>
</a>
</g>
</g>
<!-- Node5&#45;&gt;Node6 -->
<g id="edge5_Node000005_Node000006" class="edge">
<title>Node5&#45;&gt;Node6</title>
<g id="a_edge5_Node000005_Node000006"><a xlink:title=" ">
<path fill="none" stroke="#63b8ff" d="M123.32,-191.68C199.95,-164.41 336.41,-115.86 407.2,-90.66"/>
<polygon fill="#63b8ff" stroke="#63b8ff" points="122.6,-188.22 114.35,-194.87 124.94,-194.82 122.6,-188.22"/>
</a>
</g>
</g>
<!-- Node7 -->
<g id="Node000007" class="node">
<title>Node7</title>
<g id="a_Node000007"><a xlink:href="problem_8cc.html" target="_top" xlink:title=" ">
<polygon fill="white" stroke="#666666" points="795.25,-20.75 684,-20.75 684,0 795.25,0 795.25,-20.75"/>
<text text-anchor="middle" x="739.62" y="-7.25" font-family="Helvetica,sans-Serif" font-size="10.00">src/core/problem.cc</text>
</a>
</g>
</g>
<!-- Node6&#45;&gt;Node7 -->
<g id="edge6_Node000006_Node000007" class="edge">
<title>Node6&#45;&gt;Node7</title>
<g id="a_edge6_Node000006_Node000007"><a xlink:title=" ">
<path fill="none" stroke="#63b8ff" d="M531.84,-55.63C583.85,-44.55 650.06,-30.45 693.59,-21.18"/>
<polygon fill="#63b8ff" stroke="#63b8ff" points="531.17,-52.19 522.12,-57.7 532.63,-59.04 531.17,-52.19"/>
</a>
</g>
</g>
<!-- Node8 -->
<g id="Node000008" class="node">
<title>Node8</title>
<g id="a_Node000008"><a xlink:href="solvers_8cc.html" target="_top" xlink:title=" ">
<polygon fill="white" stroke="#666666" points="512.75,-20.75 392.5,-20.75 392.5,0 512.75,0 512.75,-20.75"/>
<text text-anchor="middle" x="452.62" y="-7.25" font-family="Helvetica,sans-Serif" font-size="10.00">src/solvers/solvers.cc</text>
</a>
</g>
</g>
<!-- Node6&#45;&gt;Node8 -->
<g id="edge7_Node000006_Node000008" class="edge">
<title>Node6&#45;&gt;Node8</title>
<g id="a_edge7_Node000006_Node000008"><a xlink:title=" ">
<path fill="none" stroke="#63b8ff" d="M452.62,-44.94C452.62,-36.46 452.62,-27.67 452.62,-21.22"/>
<polygon fill="#63b8ff" stroke="#63b8ff" points="449.13,-44.93 452.63,-54.93 456.13,-44.93 449.13,-44.93"/>
</a>
</g>
</g>
<!-- Node9&#45;&gt;Node6 -->
<g id="edge11_Node000009_Node000006" class="edge">
<title>Node9&#45;&gt;Node6</title>
<g id="a_edge11_Node000009_Node000006"><a xlink:title=" ">
<path fill="none" stroke="#63b8ff" d="M393.79,-187.48C386.46,-179.48 379.52,-169.98 375.62,-159.75 370.33,-145.83 368.62,-139.39 375.62,-126.25 383.96,-110.61 399.34,-98.86 414.19,-90.54"/>
<polygon fill="#63b8ff" stroke="#63b8ff" points="391.18,-189.82 400.71,-194.45 396.15,-184.89 391.18,-189.82"/>
</a>
</g>
</g>
<!-- Node9&#45;&gt;Node10 -->
<g id="edge9_Node000009_Node000010" class="edge">
<title>Node9&#45;&gt;Node10</title>
<g id="a_edge9_Node000009_Node000010"><a xlink:title=" ">
<path fill="none" stroke="#63b8ff" d="M433.7,-185.21C437.63,-176.66 441.86,-167.43 445.33,-159.88"/>
<polygon fill="#63b8ff" stroke="#63b8ff" points="430.6,-183.58 429.6,-194.13 436.96,-186.5 430.6,-183.58"/>
</a>
</g>
</g>
<!-- Node10&#45;&gt;Node6 -->
<g id="edge10_Node000010_Node000006" class="edge">
<title>Node10&#45;&gt;Node6</title>
<g id="a_edge10_Node000010_Node000006"><a xlink:title=" ">
<path fill="none" stroke="#63b8ff" d="M452.62,-114.56C452.62,-106.34 452.62,-97.59 452.62,-90.38"/>
<polygon fill="#63b8ff" stroke="#63b8ff" points="449.13,-114.49 452.63,-124.49 456.13,-114.49 449.13,-114.49"/>
</a>
</g>
</g>
<!-- Node13 -->
<g id="Node000013" class="node">
<title>Node13</title>
<g id="a_Node000013"><a xlink:href="problem_8h.html" target="_top" xlink:title=" ">
<polygon fill="white" stroke="#666666" points="1075.12,-229.25 954.12,-229.25 954.12,-195.75 1075.12,-195.75 1075.12,-229.25"/>
<text text-anchor="start" x="962.12" y="-215.75" font-family="Helvetica,sans-Serif" font-size="10.00">include/prismspf/core</text>
<text text-anchor="middle" x="1014.62" y="-203" font-family="Helvetica,sans-Serif" font-size="10.00">/problem.h</text>
</a>
</g>
</g>
<!-- Node12&#45;&gt;Node13 -->
<g id="edge15_Node000012_Node000013" class="edge">
<title>Node12&#45;&gt;Node13</title>
<g id="a_edge15_Node000012_Node000013"><a xlink:title=" ">
<path fill="none" stroke="#63b8ff" d="M857.21,-395.1C894.4,-352.2 969.53,-265.52 1000.64,-229.63"/>
<polygon fill="#63b8ff" stroke="#63b8ff" points="854.57,-392.8 850.66,-402.65 859.86,-397.39 854.57,-392.8"/>
</a>
</g>
</g>
<!-- Node14 -->
<g id="Node000014" class="node">
<title>Node14</title>
<g id="a_Node000014"><a xlink:href="refinement__manager_8h.html" target="_top" xlink:title=" ">
<polygon fill="white" stroke="#666666" points="897.25,-298.75 768,-298.75 768,-265.25 897.25,-265.25 897.25,-298.75"/>
<text text-anchor="start" x="776" y="-285.25" font-family="Helvetica,sans-Serif" font-size="10.00">include/prismspf/core</text>
<text text-anchor="middle" x="832.62" y="-272.5" font-family="Helvetica,sans-Serif" font-size="10.00">/refinement_manager.h</text>
</a>
</g>
</g>
<!-- Node12&#45;&gt;Node14 -->
<g id="edge17_Node000012_Node000014" class="edge">
<title>Node12&#45;&gt;Node14</title>
<g id="a_edge17_Node000012_Node000014"><a xlink:title=" ">
<path fill="none" stroke="#63b8ff" d="M835.03,-392.62C834.41,-364.54 833.48,-321.82 832.97,-298.88"/>
<polygon fill="#63b8ff" stroke="#63b8ff" points="831.52,-392.58 835.24,-402.5 838.52,-392.43 831.52,-392.58"/>
</a>
</g>
</g>
<!-- Node15 -->
<g id="Node000015" class="node">
<title>Node15</title>
<g id="a_Node000015"><a xlink:href="solution__output_8h.html" target="_top" xlink:title=" ">
<polygon fill="white" stroke="#666666" points="1090.12,-368.25 969.12,-368.25 969.12,-334.75 1090.12,-334.75 1090.12,-368.25"/>
<text text-anchor="start" x="977.12" y="-354.75" font-family="Helvetica,sans-Serif" font-size="10.00">include/prismspf/core</text>
<text text-anchor="middle" x="1029.62" y="-342" font-family="Helvetica,sans-Serif" font-size="10.00">/solution_output.h</text>
</a>
</g>
</g>
<!-- Node12&#45;&gt;Node15 -->
<g id="edge19_Node000012_Node000015" class="edge">
<title>Node12&#45;&gt;Node15</title>
<g id="a_edge19_Node000012_Node000015"><a xlink:title=" ">
<path fill="none" stroke="#63b8ff" d="M892.82,-400.1C921.62,-390.08 956.07,-378.09 983.2,-368.65"/>
<polygon fill="#63b8ff" stroke="#63b8ff" points="891.82,-396.74 883.52,-403.33 894.12,-403.35 891.82,-396.74"/>
</a>
</g>
</g>
<!-- Node12&#45;&gt;Node17 -->
<g id="edge23_Node000012_Node000017" class="edge">
<title>Node12&#45;&gt;Node17</title>
<g id="a_edge23_Node000012_Node000017"><a xlink:title=" ">
<path fill="none" stroke="#63b8ff" d="M914.75,-405.56C971.28,-395.23 1049.15,-380.95 1117.62,-368.25 1120.4,-367.74 1123.22,-367.21 1126.07,-366.68"/>
<polygon fill="#63b8ff" stroke="#63b8ff" points="914.43,-402.06 905.22,-407.31 915.69,-408.95 914.43,-402.06"/>
</a>
</g>
</g>
<!-- Node12&#45;&gt;Node18 -->
<g id="edge25_Node000012_Node000018" class="edge">
<title>Node12&#45;&gt;Node18</title>
<g id="a_edge25_Node000012_Node000018"><a xlink:title=" ">
<path fill="none" stroke="#63b8ff" d="M764.56,-400.89C726.73,-390.72 680.72,-378.34 644.69,-368.65"/>
<polygon fill="#63b8ff" stroke="#63b8ff" points="763.48,-404.22 774.04,-403.44 765.29,-397.46 763.48,-404.22"/>
</a>
</g>
</g>
<!-- Node13&#45;&gt;Node7 -->
<g id="edge16_Node000013_Node000007" class="edge">
<title>Node13&#45;&gt;Node7</title>
<g id="a_edge16_Node000013_Node000007"><a xlink:title=" ">
<path fill="none" stroke="#63b8ff" d="M1009.17,-184.7C1000.61,-149.76 980.58,-89.28 939.62,-56.75 898.78,-24.31 839.19,-14.14 795.68,-11.37"/>
<polygon fill="#63b8ff" stroke="#63b8ff" points="1005.66,-185.06 1011.31,-194.02 1012.48,-183.49 1005.66,-185.06"/>
</a>
</g>
</g>
<!-- Node14&#45;&gt;Node13 -->
<g id="edge18_Node000014_Node000013" class="edge">
<title>Node14&#45;&gt;Node13</title>
<g id="a_edge18_Node000014_Node000013"><a xlink:title=" ">
<path fill="none" stroke="#63b8ff" d="M887,-260.83C913.87,-250.87 945.85,-239.01 971.07,-229.65"/>
<polygon fill="#63b8ff" stroke="#63b8ff" points="885.8,-257.55 877.64,-264.31 888.23,-264.11 885.8,-257.55"/>
</a>
</g>
</g>
<!-- Node15&#45;&gt;Node7 -->
<g id="edge21_Node000015_Node000007" class="edge">
<title>Node15&#45;&gt;Node7</title>
<g id="a_edge21_Node000015_Node000007"><a xlink:title=" ">
<path fill="none" stroke="#63b8ff" d="M996.69,-327.29C966.23,-302.83 925.62,-261.26 925.62,-213.5 925.62,-213.5 925.62,-213.5 925.62,-142 925.62,-72.35 837.21,-36.65 782.3,-21.19"/>
<polygon fill="#63b8ff" stroke="#63b8ff" points="994.52,-330.03 1004.57,-333.39 998.81,-324.5 994.52,-330.03"/>
</a>
</g>
</g>
<!-- Node15&#45;&gt;Node15 -->
<g id="edge20_Node000015_Node000015" class="edge">
<title>Node15&#45;&gt;Node15</title>
<g id="a_edge20_Node000015_Node000015"><a xlink:title=" ">
<path fill="none" stroke="#63b8ff" d="M1101.34,-360.45C1105.58,-358.31 1108.12,-355.33 1108.12,-351.5 1108.12,-345.05 1100.92,-341 1090.52,-339.33"/>
<polygon fill="#63b8ff" stroke="#63b8ff" points="1100.56,-357.04 1091.97,-363.23 1102.55,-363.75 1100.56,-357.04"/>
</a>
</g>
</g>
<!-- Node16 -->
<g id="Node000016" class="node">
<title>Node16</title>
<g id="a_Node000016"><a xlink:href="solution__output_8cc.html" target="_top" xlink:title=" ">
<polygon fill="white" stroke="#666666" points="1137.88,-292.38 991.38,-292.38 991.38,-271.62 1137.88,-271.62 1137.88,-292.38"/>
<text text-anchor="middle" x="1064.62" y="-278.88" font-family="Helvetica,sans-Serif" font-size="10.00">src/core/solution_output.cc</text>
</a>
</g>
</g>
<!-- Node15&#45;&gt;Node16 -->
<g id="edge22_Node000015_Node000016" class="edge">
<title>Node15&#45;&gt;Node16</title>
<g id="a_edge22_Node000015_Node000016"><a xlink:title=" ">
<path fill="none" stroke="#63b8ff" d="M1043.15,-324.41C1048.9,-313.34 1055.24,-301.1 1059.53,-292.82"/>
<polygon fill="#63b8ff" stroke="#63b8ff" points="1040.11,-322.67 1038.62,-333.16 1046.33,-325.89 1040.11,-322.67"/>
</a>
</g>
</g>
<!-- Node17&#45;&gt;Node13 -->
<g id="edge24_Node000017_Node000013" class="edge">
<title>Node17&#45;&gt;Node13</title>
<g id="a_edge24_Node000017_Node000013"><a xlink:title=" ">
<path fill="none" stroke="#63b8ff" d="M1190.16,-324.31C1180.81,-305.62 1166,-281.1 1146.62,-265.25 1126.05,-248.42 1099.34,-236.58 1075.34,-228.51"/>
<polygon fill="#63b8ff" stroke="#63b8ff" points="1186.91,-325.63 1194.37,-333.15 1193.23,-322.62 1186.91,-325.63"/>
</a>
</g>
</g>
<!-- Node18&#45;&gt;Node4 -->
<g id="edge31_Node000018_Node000004" class="edge">
<title>Node18&#45;&gt;Node4</title>
<g id="a_edge31_Node000018_Node000004"><a xlink:title=" ">
<path fill="none" stroke="#63b8ff" d="M511.54,-331.45C472.46,-321.27 424.86,-308.86 387.6,-299.15"/>
<polygon fill="#63b8ff" stroke="#63b8ff" points="510.56,-334.82 521.12,-333.95 512.33,-328.04 510.56,-334.82"/>
</a>
</g>
</g>
<!-- Node18&#45;&gt;Node5 -->
<g id="edge29_Node000018_Node000005" class="edge">
<title>Node18&#45;&gt;Node5</title>
<g id="a_edge29_Node000018_Node000005"><a xlink:title=" ">
<path fill="none" stroke="#63b8ff" d="M505.53,-344.77C436.52,-338.26 334.31,-324.93 248.62,-298.75 191.82,-281.4 130.14,-249.19 95.45,-229.71"/>
<polygon fill="#63b8ff" stroke="#63b8ff" points="504.95,-348.23 515.23,-345.66 505.59,-341.26 504.95,-348.23"/>
</a>
</g>
</g>
<!-- Node18&#45;&gt;Node7 -->
<g id="edge33_Node000018_Node000007" class="edge">
<title>Node18&#45;&gt;Node7</title>
<g id="a_edge33_Node000018_Node000007"><a xlink:title=" ">
<path fill="none" stroke="#63b8ff" d="M626.86,-328.52C639.54,-320.43 652.7,-310.37 662.62,-298.75 689.69,-267.07 701.62,-255.17 701.62,-213.5 701.62,-213.5 701.62,-213.5 701.62,-142 701.62,-95 724.59,-42.14 734.81,-20.93"/>
<polygon fill="#63b8ff" stroke="#63b8ff" points="625.35,-325.34 618.62,-333.52 628.99,-331.33 625.35,-325.34"/>
</a>
</g>
</g>
<!-- Node18&#45;&gt;Node9 -->
<g id="edge30_Node000018_Node000009" class="edge">
<title>Node18&#45;&gt;Node9</title>
<g id="a_edge30_Node000018_Node000009"><a xlink:title=" ">
<path fill="none" stroke="#63b8ff" d="M538.56,-329.27C522.85,-320.92 505.7,-310.5 491.62,-298.75 466.93,-278.13 444.5,-247.86 432,-229.49"/>
<polygon fill="#63b8ff" stroke="#63b8ff" points="536.79,-332.3 547.29,-333.76 540,-326.08 536.79,-332.3"/>
</a>
</g>
</g>
<!-- Node18&#45;&gt;Node10 -->
<g id="edge32_Node000018_Node000010" class="edge">
<title>Node18&#45;&gt;Node10</title>
<g id="a_edge32_Node000018_Node000010"><a xlink:title=" ">
<path fill="none" stroke="#63b8ff" d="M550.69,-327.42C541.03,-319.37 531.32,-309.59 524.62,-298.75 499.82,-258.58 520.72,-237.48 498.62,-195.75 491.54,-182.36 480.28,-169.62 470.68,-160.13"/>
<polygon fill="#63b8ff" stroke="#63b8ff" points="548.25,-329.95 558.27,-333.38 552.57,-324.45 548.25,-329.95"/>
</a>
</g>
</g>
<!-- Node18&#45;&gt;Node14 -->
<g id="edge26_Node000018_Node000014" class="edge">
<title>Node18&#45;&gt;Node14</title>
<g id="a_edge26_Node000018_Node000014"><a xlink:title=" ">
<path fill="none" stroke="#63b8ff" d="M654.84,-331.39C692.22,-321.22 737.68,-308.84 773.28,-299.15"/>
<polygon fill="#63b8ff" stroke="#63b8ff" points="654.22,-327.93 645.49,-333.93 656.06,-334.69 654.22,-327.93"/>
</a>
</g>
</g>
<!-- Node19 -->
<g id="Node000019" class="node">
<title>Node19</title>
<g id="a_Node000019"><a xlink:href="constant__solver_8h.html" target="_top" xlink:title=" ">
<polygon fill="white" stroke="#666666" points="673.25,-159.75 538,-159.75 538,-126.25 673.25,-126.25 673.25,-159.75"/>
<text text-anchor="start" x="546" y="-146.25" font-family="Helvetica,sans-Serif" font-size="10.00">include/prismspf/solvers</text>
<text text-anchor="middle" x="605.62" y="-133.5" font-family="Helvetica,sans-Serif" font-size="10.00">/constant_solver.h</text>
</a>
</g>
</g>
<!-- Node18&#45;&gt;Node19 -->
<g id="edge27_Node000018_Node000019" class="edge">
<title>Node18&#45;&gt;Node19</title>
<g id="a_edge27_Node000018_Node000019"><a xlink:title=" ">
<path fill="none" stroke="#63b8ff" d="M621.27,-327.49C630.64,-319.62 639.5,-309.93 644.62,-298.75 666.55,-250.89 634.45,-188.83 616.44,-160.01"/>
<polygon fill="#63b8ff" stroke="#63b8ff" points="619.21,-324.65 613.44,-333.54 623.49,-330.19 619.21,-324.65"/>
</a>
</g>
</g>
<!-- Node20 -->
<g id="Node000020" class="node">
<title>Node20</title>
<g id="a_Node000020"><a xlink:href="solver__base_8cc.html" target="_top" xlink:title=" ">
<polygon fill="white" stroke="#666666" points="635.38,-298.75 533.88,-298.75 533.88,-265.25 635.38,-265.25 635.38,-298.75"/>
<text text-anchor="start" x="541.88" y="-285.25" font-family="Helvetica,sans-Serif" font-size="10.00">src/solvers/solver</text>
<text text-anchor="middle" x="584.62" y="-272.5" font-family="Helvetica,sans-Serif" font-size="10.00">_base.cc</text>
</a>
</g>
</g>
<!-- Node18&#45;&gt;Node20 -->
<g id="edge34_Node000018_Node000020" class="edge">
<title>Node18&#45;&gt;Node20</title>
<g id="a_edge34_Node000018_Node000020"><a xlink:title=" ">
<path fill="none" stroke="#63b8ff" d="M584.62,-323.06C584.62,-314.84 584.62,-306.09 584.62,-298.88"/>
<polygon fill="#63b8ff" stroke="#63b8ff" points="581.13,-322.99 584.63,-332.99 588.13,-322.99 581.13,-322.99"/>
</a>
</g>
</g>
<!-- Node19&#45;&gt;Node6 -->
<g id="edge28_Node000019_Node000006" class="edge">
<title>Node19&#45;&gt;Node6</title>
<g id="a_edge28_Node000019_Node000006"><a xlink:title=" ">
<path fill="none" stroke="#63b8ff" d="M558.7,-121.3C536.37,-111.45 510.07,-99.84 489.24,-90.65"/>
<polygon fill="#63b8ff" stroke="#63b8ff" points="557.03,-124.39 567.59,-125.22 559.86,-117.98 557.03,-124.39"/>
</a>
</g>
</g>
<!-- Node24&#45;&gt;Node13 -->
<g id="edge42_Node000024_Node000013" class="edge">
<title>Node24&#45;&gt;Node13</title>
<g id="a_edge42_Node000024_Node000013"><a xlink:title=" ">
<path fill="none" stroke="#63b8ff" d="M1390.63,-532.38C1379.49,-505.2 1364.62,-461.52 1364.62,-422 1364.62,-422 1364.62,-422 1364.62,-350.5 1364.62,-289.16 1175.87,-244.03 1075.59,-224.38"/>
<polygon fill="#63b8ff" stroke="#63b8ff" points="1387.4,-533.72 1394.53,-541.56 1393.84,-530.99 1387.4,-533.72"/>
</a>
</g>
</g>
<!-- Node25&#45;&gt;Node17 -->
<g id="edge44_Node000025_Node000017" class="edge">
<title>Node25&#45;&gt;Node17</title>
<g id="a_edge44_Node000025_Node000017"><a xlink:title=" ">
<path fill="none" stroke="#63b8ff" d="M1182.42,-601.69C1193.9,-565.12 1213.39,-497.33 1220.62,-437.75 1222.42,-422.97 1223.23,-418.91 1220.62,-404.25 1218.41,-391.81 1213.43,-378.44 1209.12,-368.41"/>
<polygon fill="#63b8ff" stroke="#63b8ff" points="1179.16,-600.38 1179.45,-610.97 1185.83,-602.51 1179.16,-600.38"/>
</a>
</g>
</g>
<!-- Node25&#45;&gt;Node24 -->
<g id="edge45_Node000025_Node000024" class="edge">
<title>Node25&#45;&gt;Node24</title>
<g id="a_edge45_Node000025_Node000024"><a xlink:title=" ">
<path fill="none" stroke="#63b8ff" d="M1239.35,-609.13C1273.7,-599 1315.24,-586.76 1347.82,-577.15"/>
<polygon fill="#63b8ff" stroke="#63b8ff" points="1238.53,-605.72 1229.93,-611.9 1240.51,-612.43 1238.53,-605.72"/>
</a>
</g>
</g>
<!-- Node26 -->
<g id="Node000026" class="node">
<title>Node26</title>
<g id="a_Node000026"><a xlink:href="user__input__parameters_8h.html" target="_top" xlink:title=" ">
<polygon fill="white" stroke="#666666" points="1002.5,-576.75 826.75,-576.75 826.75,-543.25 1002.5,-543.25 1002.5,-576.75"/>
<text text-anchor="start" x="834.75" y="-563.25" font-family="Helvetica,sans-Serif" font-size="10.00">include/prismspf/user</text>
<text text-anchor="middle" x="914.62" y="-550.5" font-family="Helvetica,sans-Serif" font-size="10.00">_inputs/user_input_parameters.h</text>
</a>
</g>
</g>
<!-- Node25&#45;&gt;Node26 -->
<g id="edge46_Node000025_Node000026" class="edge">
<title>Node25&#45;&gt;Node26</title>
<g id="a_edge46_Node000025_Node000026"><a xlink:title=" ">
<path fill="none" stroke="#63b8ff" d="M1100.54,-609.45C1061.46,-599.27 1013.86,-586.86 976.6,-577.15"/>
<polygon fill="#63b8ff" stroke="#63b8ff" points="1099.56,-612.82 1110.12,-611.95 1101.33,-606.04 1099.56,-612.82"/>
</a>
</g>
</g>
<!-- Node26&#45;&gt;Node3 -->
<g id="edge47_Node000026_Node000003" class="edge">
<title>Node26&#45;&gt;Node3</title>
<g id="a_edge47_Node000026_Node000003"><a xlink:title=" ">
<path fill="none" stroke="#63b8ff" d="M829.17,-540.39C777.26,-529.09 712.22,-514.93 665.52,-504.76"/>
<polygon fill="#63b8ff" stroke="#63b8ff" points="828.38,-543.8 838.89,-542.51 829.87,-536.96 828.38,-543.8"/>
</a>
</g>
</g>
<!-- Node26&#45;&gt;Node7 -->
<g id="edge55_Node000026_Node000007" class="edge">
<title>Node26&#45;&gt;Node7</title>
<g id="a_edge55_Node000026_Node000007"><a xlink:title=" ">
<path fill="none" stroke="#63b8ff" d="M851.62,-538.65C801.46,-518.04 739.62,-480.72 739.62,-422 739.62,-422 739.62,-422 739.62,-142 739.62,-96.87 739.62,-42.97 739.62,-21.21"/>
<polygon fill="#63b8ff" stroke="#63b8ff" points="850.12,-541.82 860.71,-542.24 852.7,-535.31 850.12,-541.82"/>
</a>
</g>
</g>
<!-- Node26&#45;&gt;Node12 -->
<g id="edge50_Node000026_Node000012" class="edge">
<title>Node26&#45;&gt;Node12</title>
<g id="a_edge50_Node000026_Node000012"><a xlink:title=" ">
<path fill="none" stroke="#63b8ff" d="M883.6,-535.26C874.79,-527.2 865.9,-517.59 859.62,-507.25 846.39,-485.43 840.23,-456.06 837.53,-438.11"/>
<polygon fill="#63b8ff" stroke="#63b8ff" points="881.29,-537.89 891.14,-541.78 885.87,-532.59 881.29,-537.89"/>
</a>
</g>
</g>
<!-- Node26&#45;&gt;Node15 -->
<g id="edge48_Node000026_Node000015" class="edge">
<title>Node26&#45;&gt;Node15</title>
<g id="a_edge48_Node000026_Node000015"><a xlink:title=" ">
<path fill="none" stroke="#63b8ff" d="M899.14,-533.1C890.9,-515.8 884.05,-492.79 892.62,-473.75 914.41,-425.39 966.07,-388.52 999.36,-368.74"/>
<polygon fill="#63b8ff" stroke="#63b8ff" points="895.91,-534.47 903.64,-541.72 902.12,-531.23 895.91,-534.47"/>
</a>
</g>
</g>
<!-- Node26&#45;&gt;Node17 -->
<g id="edge49_Node000026_Node000017" class="edge">
<title>Node26&#45;&gt;Node17</title>
<g id="a_edge49_Node000026_Node000017"><a xlink:title=" ">
<path fill="none" stroke="#63b8ff" d="M1014.1,-549.7C1076.81,-541.89 1150.21,-528.52 1173.62,-507.25 1213.04,-471.46 1208.65,-400.4 1204.33,-368.58"/>
<polygon fill="#63b8ff" stroke="#63b8ff" points="1013.94,-546.2 1004.43,-550.87 1014.78,-553.15 1013.94,-546.2"/>
</a>
</g>
</g>
<!-- Node26&#45;&gt;Node18 -->
<g id="edge51_Node000026_Node000018" class="edge">
<title>Node26&#45;&gt;Node18</title>
<g id="a_edge51_Node000026_Node000018"><a xlink:title=" ">
<path fill="none" stroke="#63b8ff" d="M815.2,-549.14C783.58,-541.76 750.42,-529.05 725.62,-507.25 688.37,-474.49 716.08,-440.88 682.62,-404.25 668.35,-388.62 648.25,-376.87 629.96,-368.55"/>
<polygon fill="#63b8ff" stroke="#63b8ff" points="814.31,-552.53 824.82,-551.21 815.79,-545.69 814.31,-552.53"/>
</a>
</g>
</g>
<!-- Node27 -->
<g id="Node000027" class="node">
<title>Node27</title>
<g id="a_Node000027"><a xlink:href="periodic__distance_8h.html" target="_top" xlink:title=" ">
<polygon fill="white" stroke="#666666" points="1186,-437.75 1049.25,-437.75 1049.25,-404.25 1186,-404.25 1186,-437.75"/>
<text text-anchor="start" x="1057.25" y="-424.25" font-family="Helvetica,sans-Serif" font-size="10.00">include/prismspf/utilities</text>
<text text-anchor="middle" x="1117.62" y="-411.5" font-family="Helvetica,sans-Serif" font-size="10.00">/periodic_distance.h</text>
</a>
</g>
</g>
<!-- Node26&#45;&gt;Node27 -->
<g id="edge52_Node000026_Node000027" class="edge">
<title>Node26&#45;&gt;Node27</title>
<g id="a_edge52_Node000026_Node000027"><a xlink:title=" ">
<path fill="none" stroke="#63b8ff" d="M1014.04,-550.29C1072.5,-542.87 1138.45,-529.73 1156.62,-507.25 1173.72,-486.12 1151.91,-456.28 1134.69,-438.08"/>
<polygon fill="#63b8ff" stroke="#63b8ff" points="1013.85,-546.79 1004.34,-551.47 1014.69,-553.73 1013.85,-546.79"/>
</a>
</g>
</g>
<!-- Node28 -->
<g id="Node000028" class="node">
<title>Node28</title>
<g id="a_Node000028"><a xlink:href="constraint__manager_8cc.html" target="_top" xlink:title=" ">
<polygon fill="white" stroke="#666666" points="1007.62,-507.25 901.62,-507.25 901.62,-473.75 1007.62,-473.75 1007.62,-507.25"/>
<text text-anchor="start" x="909.62" y="-493.75" font-family="Helvetica,sans-Serif" font-size="10.00">src/core/constraint</text>
<text text-anchor="middle" x="954.62" y="-481" font-family="Helvetica,sans-Serif" font-size="10.00">_manager.cc</text>
</a>
</g>
</g>
<!-- Node26&#45;&gt;Node28 -->
<g id="edge54_Node000026_Node000028" class="edge">
<title>Node26&#45;&gt;Node28</title>
<g id="a_edge54_Node000026_Node000028"><a xlink:title=" ">
<path fill="none" stroke="#63b8ff" d="M929.87,-533.28C935.03,-524.57 940.64,-515.1 945.21,-507.38"/>
<polygon fill="#63b8ff" stroke="#63b8ff" points="926.96,-531.31 924.88,-541.7 932.99,-534.88 926.96,-531.31"/>
</a>
</g>
</g>
<!-- Node29 -->
<g id="Node000029" class="node">
<title>Node29</title>
<g id="a_Node000029"><a xlink:href="user__input__parameters_8cc.html" target="_top" xlink:title=" ">
<polygon fill="white" stroke="#666666" points="1147.12,-507.25 1026.12,-507.25 1026.12,-473.75 1147.12,-473.75 1147.12,-507.25"/>
<text text-anchor="start" x="1034.12" y="-493.75" font-family="Helvetica,sans-Serif" font-size="10.00">src/user_inputs/user</text>
<text text-anchor="middle" x="1086.62" y="-481" font-family="Helvetica,sans-Serif" font-size="10.00">_input_parameters.cc</text>
</a>
</g>
</g>
<!-- Node26&#45;&gt;Node29 -->
<g id="edge56_Node000026_Node000029" class="edge">
<title>Node26&#45;&gt;Node29</title>
<g id="a_edge56_Node000026_Node000029"><a xlink:title=" ">
<path fill="none" stroke="#63b8ff" d="M966.35,-538.7C991.67,-528.76 1021.73,-516.97 1045.47,-507.65"/>
<polygon fill="#63b8ff" stroke="#63b8ff" points="965.26,-535.37 957.23,-542.28 967.82,-541.88 965.26,-535.37"/>
</a>
</g>
</g>
<!-- Node27&#45;&gt;Node17 -->
<g id="edge53_Node000027_Node000017" class="edge">
<title>Node27&#45;&gt;Node17</title>
<g id="a_edge53_Node000027_Node000017"><a xlink:title=" ">
<path fill="none" stroke="#63b8ff" d="M1146.42,-396.86C1157.99,-387.56 1171.06,-377.06 1181.57,-368.62"/>
<polygon fill="#63b8ff" stroke="#63b8ff" points="1144.31,-394.06 1138.71,-403.06 1148.7,-399.52 1144.31,-394.06"/>
</a>
</g>
</g>
</g>
</svg>
