<?xml version="1.0" encoding="UTF-8" standalone="no"?>
<!DOCTYPE svg PUBLIC "-//W3C//DTD SVG 1.1//EN"
 "http://www.w3.org/Graphics/SVG/1.1/DTD/svg11.dtd">
<!-- Generated by graphviz version 12.2.1 (20241206.2353)
 -->
<!-- Title: include/prismspf/user_inputs/output_parameters.h Pages: 1 -->
<svg width="3027pt" height="503pt"
 viewBox="0.00 0.00 3026.88 502.50" xmlns="http://www.w3.org/2000/svg" xmlns:xlink="http://www.w3.org/1999/xlink">
<g id="graph0" class="graph" transform="scale(1 1) rotate(0) translate(4 498.5)">
<title>include/prismspf/user_inputs/output_parameters.h</title>
<!-- Node1 -->
<g id="Node000001" class="node">
<title>Node1</title>
<g id="a_Node000001"><a xlink:title=" ">
<polygon fill="#999999" stroke="#666666" points="1989.5,-494.5 1833.25,-494.5 1833.25,-461 1989.5,-461 1989.5,-494.5"/>
<text text-anchor="start" x="1841.25" y="-481" font-family="Helvetica,sans-Serif" font-size="10.00">include/prismspf/user</text>
<text text-anchor="middle" x="1911.38" y="-468.25" font-family="Helvetica,sans-Serif" font-size="10.00">_inputs/output_parameters.h</text>
</a>
</g>
</g>
<!-- Node2 -->
<g id="Node000002" class="node">
<title>Node2</title>
<g id="a_Node000002"><a xlink:title=" ">
<polygon fill="#e0e0e0" stroke="#999999" points="2380.12,-153.38 2242.62,-153.38 2242.62,-132.62 2380.12,-132.62 2380.12,-153.38"/>
<text text-anchor="middle" x="2311.38" y="-139.88" font-family="Helvetica,sans-Serif" font-size="10.00">deal.II/base/exceptions.h</text>
</a>
</g>
</g>
<!-- Node1&#45;&gt;Node2 -->
<g id="edge1_Node000001_Node000002" class="edge">
<title>Node1&#45;&gt;Node2</title>
<g id="a_edge1_Node000001_Node000002"><a xlink:title=" ">
<path fill="none" stroke="#63b8ff" d="M1989.63,-474.15C2223.87,-465.34 2903.38,-431.84 2903.38,-339.75 2903.38,-339.75 2903.38,-339.75 2903.38,-274.62 2903.38,-205.9 2835.53,-217.61 2770.38,-195.75 2752.69,-189.81 2518.07,-165.15 2391.33,-152.13"/>
<polygon fill="#63b8ff" stroke="#63b8ff" points="2391.97,-148.68 2381.66,-151.14 2391.25,-155.64 2391.97,-148.68"/>
</a>
</g>
</g>
<!-- Node3 -->
<g id="Node000003" class="node">
<title>Node3</title>
<g id="a_Node000003"><a xlink:href="conditional__ostreams_8h.html" target="_top" xlink:title=" ">
<polygon fill="white" stroke="#666666" points="1970.25,-229.25 1830.5,-229.25 1830.5,-195.75 1970.25,-195.75 1970.25,-229.25"/>
<text text-anchor="start" x="1838.5" y="-215.75" font-family="Helvetica,sans-Serif" font-size="10.00">prismspf/core/conditional</text>
<text text-anchor="middle" x="1900.38" y="-203" font-family="Helvetica,sans-Serif" font-size="10.00">_ostreams.h</text>
</a>
</g>
</g>
<!-- Node1&#45;&gt;Node3 -->
<g id="edge2_Node000001_Node000003" class="edge">
<title>Node1&#45;&gt;Node3</title>
<g id="a_edge2_Node000001_Node000003"><a xlink:title=" ">
<path fill="none" stroke="#63b8ff" d="M1870.14,-460.71C1854.8,-452.49 1839.03,-440.81 1830.38,-425 1795.97,-362.19 1847.95,-279.6 1879.36,-238.7"/>
<polygon fill="#63b8ff" stroke="#63b8ff" points="1882.07,-240.9 1885.52,-230.88 1876.58,-236.57 1882.07,-240.9"/>
</a>
</g>
</g>
<!-- Node5 -->
<g id="Node000005" class="node">
<title>Node5</title>
<g id="a_Node000005"><a xlink:title=" ">
<polygon fill="#e0e0e0" stroke="#999999" points="2001.38,-20.75 1901.38,-20.75 1901.38,0 2001.38,0 2001.38,-20.75"/>
<text text-anchor="middle" x="1951.38" y="-7.25" font-family="Helvetica,sans-Serif" font-size="10.00">prismspf/config.h</text>
</a>
</g>
</g>
<!-- Node1&#45;&gt;Node5 -->
<g id="edge67_Node000001_Node000005" class="edge">
<title>Node1&#45;&gt;Node5</title>
<g id="a_edge67_Node000001_Node000005"><a xlink:title=" ">
<path fill="none" stroke="#63b8ff" d="M1832.8,-475.16C1740.08,-468.63 1598.38,-441.92 1598.38,-339.75 1598.38,-339.75 1598.38,-339.75 1598.38,-274.62 1598.38,-156.56 1645.55,-111.08 1750.38,-56.75 1793.92,-34.18 1848.48,-22.77 1889.76,-17.04"/>
<polygon fill="#63b8ff" stroke="#63b8ff" points="1890.07,-20.53 1899.53,-15.77 1889.17,-13.59 1890.07,-20.53"/>
</a>
</g>
</g>
<!-- Node6 -->
<g id="Node000006" class="node">
<title>Node6</title>
<g id="a_Node000006"><a xlink:href="exceptions_8h.html" target="_top" xlink:title=" ">
<polygon fill="white" stroke="#666666" points="1812.38,-222.88 1664.38,-222.88 1664.38,-202.12 1812.38,-202.12 1812.38,-222.88"/>
<text text-anchor="middle" x="1738.38" y="-209.38" font-family="Helvetica,sans-Serif" font-size="10.00">prismspf/core/exceptions.h</text>
</a>
</g>
</g>
<!-- Node1&#45;&gt;Node6 -->
<g id="edge5_Node000001_Node000006" class="edge">
<title>Node1&#45;&gt;Node6</title>
<g id="a_edge5_Node000001_Node000006"><a xlink:title=" ">
<path fill="none" stroke="#63b8ff" d="M1866.12,-460.6C1848.28,-452.31 1828.87,-440.61 1815.38,-425 1765.69,-367.52 1747.06,-275.36 1740.97,-234.35"/>
<polygon fill="#63b8ff" stroke="#63b8ff" points="1744.47,-234.08 1739.65,-224.65 1737.53,-235.03 1744.47,-234.08"/>
</a>
</g>
</g>
<!-- Node11 -->
<g id="Node000011" class="node">
<title>Node11</title>
<g id="a_Node000011"><a xlink:title=" ">
<polygon fill="#e0e0e0" stroke="#999999" points="2705.25,-20.75 2661.5,-20.75 2661.5,0 2705.25,0 2705.25,-20.75"/>
<text text-anchor="middle" x="2683.38" y="-7.25" font-family="Helvetica,sans-Serif" font-size="10.00">string</text>
</a>
</g>
</g>
<!-- Node1&#45;&gt;Node11 -->
<g id="edge70_Node000001_Node000011" class="edge">
<title>Node1&#45;&gt;Node11</title>
<g id="a_edge70_Node000001_Node000011"><a xlink:title=" ">
<path fill="none" stroke="#63b8ff" d="M1989.95,-475.41C2170.7,-471.77 2611.46,-459.53 2755.38,-425 2843.8,-403.78 2941.38,-430.69 2941.38,-339.75 2941.38,-339.75 2941.38,-339.75 2941.38,-142 2941.38,-42.33 2786.23,-18.69 2716.56,-13.1"/>
<polygon fill="#63b8ff" stroke="#63b8ff" points="2717.11,-9.63 2706.88,-12.41 2716.61,-16.61 2717.11,-9.63"/>
</a>
</g>
</g>
<!-- Node12 -->
<g id="Node000012" class="node">
<title>Node12</title>
<g id="a_Node000012"><a xlink:href="temporal__discretization_8h.html" target="_top" xlink:title=" ">
<polygon fill="white" stroke="#666666" points="1983.12,-425 1839.62,-425 1839.62,-391.5 1983.12,-391.5 1983.12,-425"/>
<text text-anchor="start" x="1847.62" y="-411.5" font-family="Helvetica,sans-Serif" font-size="10.00">prismspf/user_inputs</text>
<text text-anchor="middle" x="1911.38" y="-398.75" font-family="Helvetica,sans-Serif" font-size="10.00">/temporal_discretization.h</text>
</a>
</g>
</g>
<!-- Node1&#45;&gt;Node12 -->
<g id="edge15_Node000001_Node000012" class="edge">
<title>Node1&#45;&gt;Node12</title>
<g id="a_edge15_Node000001_Node000012"><a xlink:title=" ">
<path fill="none" stroke="#63b8ff" d="M1911.38,-460.75C1911.38,-453.52 1911.38,-444.78 1911.38,-436.56"/>
<polygon fill="#63b8ff" stroke="#63b8ff" points="1914.88,-436.65 1911.38,-426.65 1907.88,-436.65 1914.88,-436.65"/>
</a>
</g>
</g>
<!-- Node20 -->
<g id="Node000020" class="node">
<title>Node20</title>
<g id="a_Node000020"><a xlink:title=" ">
<polygon fill="#e0e0e0" stroke="#999999" points="2760.88,-222.88 2729.88,-222.88 2729.88,-202.12 2760.88,-202.12 2760.88,-222.88"/>
<text text-anchor="middle" x="2745.38" y="-209.38" font-family="Helvetica,sans-Serif" font-size="10.00">set</text>
</a>
</g>
</g>
<!-- Node1&#45;&gt;Node20 -->
<g id="edge69_Node000001_Node000020" class="edge">
<title>Node1&#45;&gt;Node20</title>
<g id="a_edge69_Node000001_Node000020"><a xlink:title=" ">
<path fill="none" stroke="#63b8ff" d="M1982.29,-460.52C2106.26,-431.29 2369.66,-365.39 2584.38,-286 2633.24,-267.93 2688.19,-241.9 2719.6,-226.44"/>
<polygon fill="#63b8ff" stroke="#63b8ff" points="2720.92,-229.69 2728.33,-222.12 2717.81,-223.42 2720.92,-229.69"/>
</a>
</g>
</g>
<!-- Node21 -->
<g id="Node000021" class="node">
<title>Node21</title>
<g id="a_Node000021"><a xlink:href="utilities_8h.html" target="_top" xlink:title=" ">
<polygon fill="white" stroke="#666666" points="1113.62,-229.25 1015.12,-229.25 1015.12,-195.75 1113.62,-195.75 1113.62,-229.25"/>
<text text-anchor="start" x="1023.12" y="-215.75" font-family="Helvetica,sans-Serif" font-size="10.00">prismspf/utilities</text>
<text text-anchor="middle" x="1064.38" y="-203" font-family="Helvetica,sans-Serif" font-size="10.00">/utilities.h</text>
</a>
</g>
</g>
<!-- Node1&#45;&gt;Node21 -->
<g id="edge47_Node000001_Node000021" class="edge">
<title>Node1&#45;&gt;Node21</title>
<g id="a_edge47_Node000001_Node000021"><a xlink:title=" ">
<path fill="none" stroke="#63b8ff" d="M1833,-469.45C1766.07,-462.01 1667.71,-448.21 1584.38,-425 1400.74,-373.86 1194.16,-277.4 1106.9,-234.73"/>
<polygon fill="#63b8ff" stroke="#63b8ff" points="1108.49,-231.61 1097.97,-230.34 1105.4,-237.89 1108.49,-231.61"/>
</a>
</g>
</g>
<!-- Node35 -->
<g id="Node000035" class="node">
<title>Node35</title>
<g id="a_Node000035"><a xlink:title=" ">
<polygon fill="#e0e0e0" stroke="#999999" points="3018.88,-418.62 2969.88,-418.62 2969.88,-397.88 3018.88,-397.88 3018.88,-418.62"/>
<text text-anchor="middle" x="2994.38" y="-405.12" font-family="Helvetica,sans-Serif" font-size="10.00">climits</text>
</a>
</g>
</g>
<!-- Node1&#45;&gt;Node35 -->
<g id="edge68_Node000001_Node000035" class="edge">
<title>Node1&#45;&gt;Node35</title>
<g id="a_edge68_Node000001_Node000035"><a xlink:title=" ">
<path fill="none" stroke="#63b8ff" d="M1989.79,-476.24C2199.81,-474.34 2771.5,-465.48 2955.38,-425 2957.87,-424.45 2960.4,-423.76 2962.93,-422.97"/>
<polygon fill="#63b8ff" stroke="#63b8ff" points="2964.09,-426.27 2972.31,-419.59 2961.72,-419.69 2964.09,-426.27"/>
</a>
</g>
</g>
<!-- Node4 -->
<g id="Node000004" class="node">
<title>Node4</title>
<g id="a_Node000004"><a xlink:title=" ">
<polygon fill="#e0e0e0" stroke="#999999" points="1923,-159.75 1793.75,-159.75 1793.75,-126.25 1923,-126.25 1923,-159.75"/>
<text text-anchor="start" x="1801.75" y="-146.25" font-family="Helvetica,sans-Serif" font-size="10.00">deal.II/base/conditional</text>
<text text-anchor="middle" x="1858.38" y="-133.5" font-family="Helvetica,sans-Serif" font-size="10.00">_ostream.h</text>
</a>
</g>
</g>
<!-- Node3&#45;&gt;Node4 -->
<g id="edge3_Node000003_Node000004" class="edge">
<title>Node3&#45;&gt;Node4</title>
<g id="a_edge3_Node000003_Node000004"><a xlink:title=" ">
<path fill="none" stroke="#63b8ff" d="M1890.42,-195.5C1885.61,-187.77 1879.72,-178.3 1874.3,-169.59"/>
<polygon fill="#63b8ff" stroke="#63b8ff" points="1877.31,-167.81 1869.06,-161.17 1871.37,-171.51 1877.31,-167.81"/>
</a>
</g>
</g>
<!-- Node3&#45;&gt;Node5 -->
<g id="edge4_Node000003_Node000005" class="edge">
<title>Node3&#45;&gt;Node5</title>
<g id="a_edge4_Node000003_Node000005"><a xlink:title=" ">
<path fill="none" stroke="#63b8ff" d="M1912.67,-195.64C1919.61,-185.84 1927.79,-172.69 1932.38,-159.75 1947.79,-116.25 1950.96,-61.65 1951.46,-32.32"/>
<polygon fill="#63b8ff" stroke="#63b8ff" points="1954.95,-32.61 1951.52,-22.59 1947.95,-32.56 1954.95,-32.61"/>
</a>
</g>
</g>
<!-- Node6&#45;&gt;Node2 -->
<g id="edge6_Node000006_Node000002" class="edge">
<title>Node6&#45;&gt;Node2</title>
<g id="a_edge6_Node000006_Node000002"><a xlink:title=" ">
<path fill="none" stroke="#63b8ff" d="M1785.64,-201.68C1797.29,-199.5 1809.75,-197.36 1821.38,-195.75 2003.45,-170.58 2051.45,-185.98 2233.38,-159.75 2240.64,-158.7 2248.25,-157.41 2255.74,-156.02"/>
<polygon fill="#63b8ff" stroke="#63b8ff" points="2256.33,-159.47 2265.49,-154.15 2255.01,-152.6 2256.33,-159.47"/>
</a>
</g>
</g>
<!-- Node6&#45;&gt;Node5 -->
<g id="edge14_Node000006_Node000005" class="edge">
<title>Node6&#45;&gt;Node5</title>
<g id="a_edge14_Node000006_Node000005"><a xlink:title=" ">
<path fill="none" stroke="#63b8ff" d="M1741.92,-201.63C1748.35,-184.72 1763.25,-149.78 1784.38,-126.25 1824.38,-81.68 1885.01,-45.6 1921.15,-26.42"/>
<polygon fill="#63b8ff" stroke="#63b8ff" points="1922.5,-29.66 1929.76,-21.94 1919.27,-23.45 1922.5,-29.66"/>
</a>
</g>
</g>
<!-- Node7 -->
<g id="Node000007" class="node">
<title>Node7</title>
<g id="a_Node000007"><a xlink:href="types_8h.html" target="_top" xlink:title=" ">
<polygon fill="white" stroke="#666666" points="2224.25,-153.38 2102.5,-153.38 2102.5,-132.62 2224.25,-132.62 2224.25,-153.38"/>
<text text-anchor="middle" x="2163.38" y="-139.88" font-family="Helvetica,sans-Serif" font-size="10.00">prismspf/core/types.h</text>
</a>
</g>
</g>
<!-- Node6&#45;&gt;Node7 -->
<g id="edge7_Node000006_Node000007" class="edge">
<title>Node6&#45;&gt;Node7</title>
<g id="a_edge7_Node000006_Node000007"><a xlink:title=" ">
<path fill="none" stroke="#63b8ff" d="M1788.36,-201.7C1799.23,-199.66 1810.68,-197.57 1821.38,-195.75 1914.18,-179.93 2021.58,-164.08 2090.89,-154.17"/>
<polygon fill="#63b8ff" stroke="#63b8ff" points="2091.2,-157.66 2100.6,-152.78 2090.21,-150.73 2091.2,-157.66"/>
</a>
</g>
</g>
<!-- Node7&#45;&gt;Node5 -->
<g id="edge13_Node000007_Node000005" class="edge">
<title>Node7&#45;&gt;Node5</title>
<g id="a_edge13_Node000007_Node000005"><a xlink:title=" ">
<path fill="none" stroke="#63b8ff" d="M2164.13,-132.28C2164.93,-114.64 2163.89,-77.3 2143.38,-56.75 2125.13,-38.48 2061.79,-25.99 2012.79,-18.81"/>
<polygon fill="#63b8ff" stroke="#63b8ff" points="2013.52,-15.38 2003.13,-17.44 2012.54,-22.31 2013.52,-15.38"/>
</a>
</g>
</g>
<!-- Node8 -->
<g id="Node000008" class="node">
<title>Node8</title>
<g id="a_Node000008"><a xlink:title=" ">
<polygon fill="#e0e0e0" stroke="#999999" points="2134.5,-90.25 2026.25,-90.25 2026.25,-56.75 2134.5,-56.75 2134.5,-90.25"/>
<text text-anchor="start" x="2034.25" y="-76.75" font-family="Helvetica,sans-Serif" font-size="10.00">deal.II/matrix_free</text>
<text text-anchor="middle" x="2080.38" y="-64" font-family="Helvetica,sans-Serif" font-size="10.00">/evaluation_flags.h</text>
</a>
</g>
</g>
<!-- Node7&#45;&gt;Node8 -->
<g id="edge8_Node000007_Node000008" class="edge">
<title>Node7&#45;&gt;Node8</title>
<g id="a_edge8_Node000007_Node000008"><a xlink:title=" ">
<path fill="none" stroke="#63b8ff" d="M2151.48,-132.33C2140.42,-123.33 2123.5,-109.57 2108.94,-97.73"/>
<polygon fill="#63b8ff" stroke="#63b8ff" points="2111.4,-95.22 2101.43,-91.62 2106.98,-100.65 2111.4,-95.22"/>
</a>
</g>
</g>
<!-- Node9 -->
<g id="Node000009" class="node">
<title>Node9</title>
<g id="a_Node000009"><a xlink:href="type__enums_8h.html" target="_top" xlink:title=" ">
<polygon fill="white" stroke="#666666" points="2582.12,-90.25 2474.62,-90.25 2474.62,-56.75 2582.12,-56.75 2582.12,-90.25"/>
<text text-anchor="start" x="2482.62" y="-76.75" font-family="Helvetica,sans-Serif" font-size="10.00">prismspf/core/type</text>
<text text-anchor="middle" x="2528.38" y="-64" font-family="Helvetica,sans-Serif" font-size="10.00">_enums.h</text>
</a>
</g>
</g>
<!-- Node7&#45;&gt;Node9 -->
<g id="edge9_Node000007_Node000009" class="edge">
<title>Node7&#45;&gt;Node9</title>
<g id="a_edge9_Node000007_Node000009"><a xlink:title=" ">
<path fill="none" stroke="#63b8ff" d="M2205.5,-132.18C2214.67,-130.14 2224.34,-128.06 2233.38,-126.25 2312.05,-110.51 2403.06,-94.94 2462.95,-85.06"/>
<polygon fill="#63b8ff" stroke="#63b8ff" points="2463.34,-88.54 2472.64,-83.47 2462.2,-81.63 2463.34,-88.54"/>
</a>
</g>
</g>
<!-- Node9&#45;&gt;Node5 -->
<g id="edge10_Node000009_Node000005" class="edge">
<title>Node9&#45;&gt;Node5</title>
<g id="a_edge10_Node000009_Node000005"><a xlink:title=" ">
<path fill="none" stroke="#63b8ff" d="M2474.32,-59.27C2469.62,-58.33 2464.92,-57.48 2460.38,-56.75 2300.21,-31.19 2109.22,-19 2013.11,-14.11"/>
<polygon fill="#63b8ff" stroke="#63b8ff" points="2013.54,-10.63 2003.38,-13.63 2013.2,-17.62 2013.54,-10.63"/>
</a>
</g>
</g>
<!-- Node10 -->
<g id="Node000010" class="node">
<title>Node10</title>
<g id="a_Node000010"><a xlink:title=" ">
<polygon fill="#e0e0e0" stroke="#999999" points="2552.88,-20.75 2503.88,-20.75 2503.88,0 2552.88,0 2552.88,-20.75"/>
<text text-anchor="middle" x="2528.38" y="-7.25" font-family="Helvetica,sans-Serif" font-size="10.00">cstdint</text>
</a>
</g>
</g>
<!-- Node9&#45;&gt;Node10 -->
<g id="edge11_Node000009_Node000010" class="edge">
<title>Node9&#45;&gt;Node10</title>
<g id="a_edge11_Node000009_Node000010"><a xlink:title=" ">
<path fill="none" stroke="#63b8ff" d="M2528.38,-56.44C2528.38,-49.1 2528.38,-40.32 2528.38,-32.46"/>
<polygon fill="#63b8ff" stroke="#63b8ff" points="2531.88,-32.73 2528.38,-22.73 2524.88,-32.73 2531.88,-32.73"/>
</a>
</g>
</g>
<!-- Node9&#45;&gt;Node11 -->
<g id="edge12_Node000009_Node000011" class="edge">
<title>Node9&#45;&gt;Node11</title>
<g id="a_edge12_Node000009_Node000011"><a xlink:title=" ">
<path fill="none" stroke="#63b8ff" d="M2569.51,-56.28C2594.9,-46.27 2627.03,-33.59 2650.69,-24.27"/>
<polygon fill="#63b8ff" stroke="#63b8ff" points="2651.8,-27.59 2659.82,-20.67 2649.23,-21.08 2651.8,-27.59"/>
</a>
</g>
</g>
<!-- Node12&#45;&gt;Node3 -->
<g id="edge16_Node000012_Node000003" class="edge">
<title>Node12&#45;&gt;Node3</title>
<g id="a_edge16_Node000012_Node000003"><a xlink:title=" ">
<path fill="none" stroke="#63b8ff" d="M1910.46,-391.06C1908.57,-357.86 1904.25,-281.72 1901.92,-240.76"/>
<polygon fill="#63b8ff" stroke="#63b8ff" points="1905.43,-240.8 1901.37,-231.01 1898.44,-241.2 1905.43,-240.8"/>
</a>
</g>
</g>
<!-- Node12&#45;&gt;Node5 -->
<g id="edge46_Node000012_Node000005" class="edge">
<title>Node12&#45;&gt;Node5</title>
<g id="a_edge46_Node000012_Node000005"><a xlink:title=" ">
<path fill="none" stroke="#63b8ff" d="M1856.76,-391.09C1768.73,-361.84 1609.73,-293.89 1655.38,-195.75 1701.3,-97.01 1828.83,-46 1900.61,-24.39"/>
<polygon fill="#63b8ff" stroke="#63b8ff" points="1901.55,-27.76 1910.17,-21.6 1899.59,-21.04 1901.55,-27.76"/>
</a>
</g>
</g>
<!-- Node13 -->
<g id="Node000013" class="node">
<title>Node13</title>
<g id="a_Node000013"><a xlink:href="solve__block_8h.html" target="_top" xlink:title=" ">
<polygon fill="white" stroke="#666666" points="2338.38,-355.5 2226.38,-355.5 2226.38,-322 2338.38,-322 2338.38,-355.5"/>
<text text-anchor="start" x="2234.38" y="-342" font-family="Helvetica,sans-Serif" font-size="10.00">prismspf/core/solve</text>
<text text-anchor="middle" x="2282.38" y="-329.25" font-family="Helvetica,sans-Serif" font-size="10.00">_block.h</text>
</a>
</g>
</g>
<!-- Node12&#45;&gt;Node13 -->
<g id="edge17_Node000012_Node000013" class="edge">
<title>Node12&#45;&gt;Node13</title>
<g id="a_edge17_Node000012_Node000013"><a xlink:title=" ">
<path fill="none" stroke="#63b8ff" d="M1983.35,-394.16C2050.38,-381.96 2149.54,-363.92 2215.04,-352"/>
<polygon fill="#63b8ff" stroke="#63b8ff" points="2215.35,-355.5 2224.56,-350.27 2214.1,-348.61 2215.35,-355.5"/>
</a>
</g>
</g>
<!-- Node13&#45;&gt;Node2 -->
<g id="edge18_Node000013_Node000002" class="edge">
<title>Node13&#45;&gt;Node2</title>
<g id="a_edge18_Node000013_Node000002"><a xlink:title=" ">
<path fill="none" stroke="#63b8ff" d="M2269.24,-321.71C2248.78,-294.65 2213.85,-238.66 2236.38,-195.75 2244.86,-179.59 2260.93,-167.48 2276.02,-159.06"/>
<polygon fill="#63b8ff" stroke="#63b8ff" points="2277.58,-162.2 2284.87,-154.51 2274.38,-155.97 2277.58,-162.2"/>
</a>
</g>
</g>
<!-- Node13&#45;&gt;Node5 -->
<g id="edge42_Node000013_Node000005" class="edge">
<title>Node13&#45;&gt;Node5</title>
<g id="a_edge42_Node000013_Node000005"><a xlink:title=" ">
<path fill="none" stroke="#63b8ff" d="M2225.93,-337.21C2143.1,-333.1 1998.38,-311.85 1998.38,-213.5 1998.38,-213.5 1998.38,-213.5 1998.38,-142 1998.38,-100.43 1977.04,-55.58 1963.12,-30.74"/>
<polygon fill="#63b8ff" stroke="#63b8ff" points="1966.33,-29.3 1958.28,-22.41 1960.28,-32.82 1966.33,-29.3"/>
</a>
</g>
</g>
<!-- Node13&#45;&gt;Node7 -->
<g id="edge41_Node000013_Node000007" class="edge">
<title>Node13&#45;&gt;Node7</title>
<g id="a_edge41_Node000013_Node000007"><a xlink:title=" ">
<path fill="none" stroke="#63b8ff" d="M2264.66,-321.62C2254.67,-311.94 2242.42,-299 2233.38,-286 2205.48,-245.93 2182.6,-193.1 2171.2,-164.51"/>
<polygon fill="#63b8ff" stroke="#63b8ff" points="2174.48,-163.3 2167.59,-155.26 2167.96,-165.85 2174.48,-163.3"/>
</a>
</g>
</g>
<!-- Node13&#45;&gt;Node8 -->
<g id="edge19_Node000013_Node000008" class="edge">
<title>Node13&#45;&gt;Node8</title>
<g id="a_edge19_Node000013_Node000008"><a xlink:title=" ">
<path fill="none" stroke="#63b8ff" d="M2250.81,-321.66C2216.15,-302.88 2160.25,-269.26 2121.38,-229.25 2095.9,-203.03 2087.56,-194.86 2077.38,-159.75 2071.93,-140.98 2072.9,-118.91 2075.11,-101.92"/>
<polygon fill="#63b8ff" stroke="#63b8ff" points="2078.57,-102.49 2076.64,-92.07 2071.65,-101.42 2078.57,-102.49"/>
</a>
</g>
</g>
<!-- Node13&#45;&gt;Node9 -->
<g id="edge40_Node000013_Node000009" class="edge">
<title>Node13&#45;&gt;Node9</title>
<g id="a_edge40_Node000013_Node000009"><a xlink:title=" ">
<path fill="none" stroke="#63b8ff" d="M2338.83,-334.1C2437.69,-327.15 2637.86,-310.53 2703.38,-286 2745.57,-270.2 2766.24,-269.04 2787.38,-229.25 2831.8,-145.63 2684.34,-102.94 2593.84,-85.07"/>
<polygon fill="#63b8ff" stroke="#63b8ff" points="2594.53,-81.64 2584.05,-83.2 2593.21,-88.52 2594.53,-81.64"/>
</a>
</g>
</g>
<!-- Node13&#45;&gt;Node11 -->
<g id="edge44_Node000013_Node000011" class="edge">
<title>Node13&#45;&gt;Node11</title>
<g id="a_edge44_Node000013_Node000011"><a xlink:title=" ">
<path fill="none" stroke="#63b8ff" d="M2338.81,-337.6C2485.12,-335.7 2865.38,-320.48 2865.38,-213.5 2865.38,-213.5 2865.38,-213.5 2865.38,-142 2865.38,-69.68 2769.36,-33.51 2716.81,-19.12"/>
<polygon fill="#63b8ff" stroke="#63b8ff" points="2717.72,-15.74 2707.16,-16.61 2715.95,-22.51 2717.72,-15.74"/>
</a>
</g>
</g>
<!-- Node14 -->
<g id="Node000014" class="node">
<title>Node14</title>
<g id="a_Node000014"><a xlink:href="dependencies_8h.html" target="_top" xlink:title=" ">
<polygon fill="white" stroke="#666666" points="2495.5,-286 2333.25,-286 2333.25,-265.25 2495.5,-265.25 2495.5,-286"/>
<text text-anchor="middle" x="2414.38" y="-272.5" font-family="Helvetica,sans-Serif" font-size="10.00">prismspf/core/dependencies.h</text>
</a>
</g>
</g>
<!-- Node13&#45;&gt;Node14 -->
<g id="edge20_Node000013_Node000014" class="edge">
<title>Node13&#45;&gt;Node14</title>
<g id="a_edge20_Node000013_Node000014"><a xlink:title=" ">
<path fill="none" stroke="#63b8ff" d="M2317.4,-321.53C2337.77,-312.1 2363.22,-300.31 2382.94,-291.18"/>
<polygon fill="#63b8ff" stroke="#63b8ff" points="2384.26,-294.43 2391.86,-287.05 2381.31,-288.08 2384.26,-294.43"/>
</a>
</g>
</g>
<!-- Node18 -->
<g id="Node000018" class="node">
<title>Node18</title>
<g id="a_Node000018"><a xlink:title=" ">
<polygon fill="#e0e0e0" stroke="#999999" points="2652.75,-153.38 2606,-153.38 2606,-132.62 2652.75,-132.62 2652.75,-153.38"/>
<text text-anchor="middle" x="2629.38" y="-139.88" font-family="Helvetica,sans-Serif" font-size="10.00">vector</text>
</a>
</g>
</g>
<!-- Node13&#45;&gt;Node18 -->
<g id="edge45_Node000013_Node000018" class="edge">
<title>Node13&#45;&gt;Node18</title>
<g id="a_edge45_Node000013_Node000018"><a xlink:title=" ">
<path fill="none" stroke="#63b8ff" d="M2338.74,-334.17C2455.95,-325.38 2719.31,-298.22 2770.38,-229.25 2801.64,-187.02 2715.44,-161.5 2664.25,-150.45"/>
<polygon fill="#63b8ff" stroke="#63b8ff" points="2664.98,-147.03 2654.48,-148.44 2663.57,-153.89 2664.98,-147.03"/>
</a>
</g>
</g>
<!-- Node13&#45;&gt;Node20 -->
<g id="edge43_Node000013_Node000020" class="edge">
<title>Node13&#45;&gt;Node20</title>
<g id="a_edge43_Node000013_Node000020"><a xlink:title=" ">
<path fill="none" stroke="#63b8ff" d="M2338.81,-328.37C2422.83,-313.36 2584.93,-280.31 2715.38,-229.25 2716.7,-228.73 2718.04,-228.17 2719.39,-227.58"/>
<polygon fill="#63b8ff" stroke="#63b8ff" points="2720.66,-230.85 2728.13,-223.33 2717.6,-224.55 2720.66,-230.85"/>
</a>
</g>
</g>
<!-- Node14&#45;&gt;Node2 -->
<g id="edge21_Node000014_Node000002" class="edge">
<title>Node14&#45;&gt;Node2</title>
<g id="a_edge21_Node000014_Node000002"><a xlink:title=" ">
<path fill="none" stroke="#63b8ff" d="M2346.47,-264.81C2305.5,-257.35 2258.87,-245.56 2246.38,-229.25 2237.32,-217.43 2239.91,-209.16 2246.38,-195.75 2253.71,-180.53 2267.94,-168.4 2281.23,-159.73"/>
<polygon fill="#63b8ff" stroke="#63b8ff" points="2283.03,-162.72 2289.77,-154.55 2279.4,-156.74 2283.03,-162.72"/>
</a>
</g>
</g>
<!-- Node14&#45;&gt;Node3 -->
<g id="edge24_Node000014_Node000003" class="edge">
<title>Node14&#45;&gt;Node3</title>
<g id="a_edge24_Node000014_Node000003"><a xlink:title=" ">
<path fill="none" stroke="#63b8ff" d="M2332.93,-264.94C2236.91,-253.52 2078.26,-234.65 1982.11,-223.22"/>
<polygon fill="#63b8ff" stroke="#63b8ff" points="1982.55,-219.75 1972.2,-222.04 1981.72,-226.7 1982.55,-219.75"/>
</a>
</g>
</g>
<!-- Node14&#45;&gt;Node5 -->
<g id="edge35_Node000014_Node000005" class="edge">
<title>Node14&#45;&gt;Node5</title>
<g id="a_edge35_Node000014_Node000005"><a xlink:title=" ">
<path fill="none" stroke="#63b8ff" d="M2423.16,-265.05C2430.44,-256.42 2440.24,-243 2444.38,-229.25 2448.66,-214.99 2449.27,-209.81 2444.38,-195.75 2431.43,-158.55 2421.85,-148.55 2389.38,-126.25 2272.5,-46 2102.92,-21.8 2012.9,-14.52"/>
<polygon fill="#63b8ff" stroke="#63b8ff" points="2013.28,-11.03 2003.04,-13.77 2012.75,-18.01 2013.28,-11.03"/>
</a>
</g>
</g>
<!-- Node14&#45;&gt;Node7 -->
<g id="edge34_Node000014_Node000007" class="edge">
<title>Node14&#45;&gt;Node7</title>
<g id="a_edge34_Node000014_Node000007"><a xlink:title=" ">
<path fill="none" stroke="#63b8ff" d="M2333.57,-264.8C2301.54,-258.25 2265.49,-247.35 2236.38,-229.25 2209.57,-212.59 2187.45,-182.87 2174.83,-163.3"/>
<polygon fill="#63b8ff" stroke="#63b8ff" points="2177.87,-161.56 2169.62,-154.9 2171.92,-165.25 2177.87,-161.56"/>
</a>
</g>
</g>
<!-- Node14&#45;&gt;Node8 -->
<g id="edge23_Node000014_Node000008" class="edge">
<title>Node14&#45;&gt;Node8</title>
<g id="a_edge23_Node000014_Node000008"><a xlink:title=" ">
<path fill="none" stroke="#63b8ff" d="M2332.91,-265.34C2290.95,-258.66 2239.65,-247.51 2196.38,-229.25 2145.5,-207.78 2122.91,-206.41 2093.38,-159.75 2082.51,-142.58 2079.51,-119.67 2079.09,-101.92"/>
<polygon fill="#63b8ff" stroke="#63b8ff" points="2082.59,-102.12 2079.14,-92.1 2075.59,-102.08 2082.59,-102.12"/>
</a>
</g>
</g>
<!-- Node14&#45;&gt;Node9 -->
<g id="edge33_Node000014_Node000009" class="edge">
<title>Node14&#45;&gt;Node9</title>
<g id="a_edge33_Node000014_Node000009"><a xlink:title=" ">
<path fill="none" stroke="#63b8ff" d="M2495.91,-265.1C2547.71,-257.62 2608.77,-245.7 2629.38,-229.25 2655.95,-208.04 2654.1,-192.97 2661.38,-159.75 2664.56,-145.21 2669.78,-138.54 2661.38,-126.25 2645.89,-103.61 2618.94,-90.88 2593.32,-83.71"/>
<polygon fill="#63b8ff" stroke="#63b8ff" points="2594.48,-80.4 2583.93,-81.34 2592.77,-87.18 2594.48,-80.4"/>
</a>
</g>
</g>
<!-- Node14&#45;&gt;Node11 -->
<g id="edge38_Node000014_Node000011" class="edge">
<title>Node14&#45;&gt;Node11</title>
<g id="a_edge38_Node000014_Node000011"><a xlink:title=" ">
<path fill="none" stroke="#63b8ff" d="M2495.81,-268.21C2556.23,-261.85 2632,-249.97 2655.38,-229.25 2711.87,-179.19 2697.74,-76.3 2688.43,-32.19"/>
<polygon fill="#63b8ff" stroke="#63b8ff" points="2691.89,-31.64 2686.27,-22.66 2685.06,-33.18 2691.89,-31.64"/>
</a>
</g>
</g>
<!-- Node15 -->
<g id="Node000015" class="node">
<title>Node15</title>
<g id="a_Node000015"><a xlink:title=" ">
<polygon fill="#e0e0e0" stroke="#999999" points="2375.88,-222.88 2254.88,-222.88 2254.88,-202.12 2375.88,-202.12 2375.88,-222.88"/>
<text text-anchor="middle" x="2315.38" y="-209.38" font-family="Helvetica,sans-Serif" font-size="10.00">deal.II/base/utilities.h</text>
</a>
</g>
</g>
<!-- Node14&#45;&gt;Node15 -->
<g id="edge22_Node000014_Node000015" class="edge">
<title>Node14&#45;&gt;Node15</title>
<g id="a_edge22_Node000014_Node000015"><a xlink:title=" ">
<path fill="none" stroke="#63b8ff" d="M2398.47,-264.8C2382.95,-255.22 2359.1,-240.5 2340.92,-229.27"/>
<polygon fill="#63b8ff" stroke="#63b8ff" points="2342.88,-226.37 2332.53,-224.09 2339.2,-232.32 2342.88,-226.37"/>
</a>
</g>
</g>
<!-- Node16 -->
<g id="Node000016" class="node">
<title>Node16</title>
<g id="a_Node000016"><a xlink:href="field__attributes_8h.html" target="_top" xlink:title=" ">
<polygon fill="white" stroke="#666666" points="2597.75,-229.25 2491,-229.25 2491,-195.75 2597.75,-195.75 2597.75,-229.25"/>
<text text-anchor="start" x="2499" y="-215.75" font-family="Helvetica,sans-Serif" font-size="10.00">prismspf/core/field</text>
<text text-anchor="middle" x="2544.38" y="-203" font-family="Helvetica,sans-Serif" font-size="10.00">_attributes.h</text>
</a>
</g>
</g>
<!-- Node14&#45;&gt;Node16 -->
<g id="edge25_Node000014_Node000016" class="edge">
<title>Node14&#45;&gt;Node16</title>
<g id="a_edge25_Node000014_Node000016"><a xlink:title=" ">
<path fill="none" stroke="#63b8ff" d="M2435.26,-264.8C2452.53,-256.68 2477.67,-244.86 2499.46,-234.62"/>
<polygon fill="#63b8ff" stroke="#63b8ff" points="2500.92,-237.8 2508.48,-230.38 2497.94,-231.47 2500.92,-237.8"/>
</a>
</g>
</g>
<!-- Node14&#45;&gt;Node18 -->
<g id="edge39_Node000014_Node000018" class="edge">
<title>Node14&#45;&gt;Node18</title>
<g id="a_edge39_Node000014_Node000018"><a xlink:title=" ">
<path fill="none" stroke="#63b8ff" d="M2490.11,-264.79C2536.31,-257.29 2589.62,-245.49 2606.38,-229.25 2623.62,-212.54 2628.37,-184.35 2629.46,-164.99"/>
<polygon fill="#63b8ff" stroke="#63b8ff" points="2632.96,-165.35 2629.71,-155.27 2625.96,-165.18 2632.96,-165.35"/>
</a>
</g>
</g>
<!-- Node19 -->
<g id="Node000019" class="node">
<title>Node19</title>
<g id="a_Node000019"><a xlink:title=" ">
<polygon fill="#e0e0e0" stroke="#999999" points="2435.12,-222.88 2393.62,-222.88 2393.62,-202.12 2435.12,-202.12 2435.12,-222.88"/>
<text text-anchor="middle" x="2414.38" y="-209.38" font-family="Helvetica,sans-Serif" font-size="10.00">array</text>
</a>
</g>
</g>
<!-- Node14&#45;&gt;Node19 -->
<g id="edge36_Node000014_Node000019" class="edge">
<title>Node14&#45;&gt;Node19</title>
<g id="a_edge36_Node000014_Node000019"><a xlink:title=" ">
<path fill="none" stroke="#63b8ff" d="M2414.38,-264.8C2414.38,-256.65 2414.38,-244.76 2414.38,-234.48"/>
<polygon fill="#63b8ff" stroke="#63b8ff" points="2417.88,-234.61 2414.38,-224.61 2410.88,-234.61 2417.88,-234.61"/>
</a>
</g>
</g>
<!-- Node14&#45;&gt;Node20 -->
<g id="edge37_Node000014_Node000020" class="edge">
<title>Node14&#45;&gt;Node20</title>
<g id="a_edge37_Node000014_Node000020"><a xlink:title=" ">
<path fill="none" stroke="#63b8ff" d="M2495.92,-269.71C2557.46,-264.25 2643.31,-252.86 2715.38,-229.25 2716.73,-228.81 2718.09,-228.31 2719.45,-227.77"/>
<polygon fill="#63b8ff" stroke="#63b8ff" points="2720.66,-231.06 2728.25,-223.67 2717.7,-224.72 2720.66,-231.06"/>
</a>
</g>
</g>
<!-- Node16&#45;&gt;Node2 -->
<g id="edge26_Node000016_Node000002" class="edge">
<title>Node16&#45;&gt;Node2</title>
<g id="a_edge26_Node000016_Node000002"><a xlink:title=" ">
<path fill="none" stroke="#63b8ff" d="M2490.63,-195.93C2449.89,-184.13 2394.57,-168.1 2356.21,-156.99"/>
<polygon fill="#63b8ff" stroke="#63b8ff" points="2357.41,-153.69 2346.83,-154.27 2355.46,-160.41 2357.41,-153.69"/>
</a>
</g>
</g>
<!-- Node16&#45;&gt;Node5 -->
<g id="edge29_Node000016_Node000005" class="edge">
<title>Node16&#45;&gt;Node5</title>
<g id="a_edge29_Node000016_Node000005"><a xlink:title=" ">
<path fill="none" stroke="#63b8ff" d="M2510.64,-195.35C2495.19,-186.58 2477.63,-174.51 2465.38,-159.75 2433.68,-121.59 2462.29,-86.2 2422.38,-56.75 2390.12,-32.95 2133.2,-19.06 2012.99,-13.81"/>
<polygon fill="#63b8ff" stroke="#63b8ff" points="2013.45,-10.33 2003.31,-13.39 2013.15,-17.32 2013.45,-10.33"/>
</a>
</g>
</g>
<!-- Node16&#45;&gt;Node7 -->
<g id="edge28_Node000016_Node000007" class="edge">
<title>Node16&#45;&gt;Node7</title>
<g id="a_edge28_Node000016_Node000007"><a xlink:title=" ">
<path fill="none" stroke="#63b8ff" d="M2490.57,-202.92C2415.09,-190.83 2281.59,-169.18 2233.38,-159.75 2227.79,-158.66 2221.96,-157.45 2216.17,-156.21"/>
<polygon fill="#63b8ff" stroke="#63b8ff" points="2217.12,-152.84 2206.6,-154.12 2215.62,-159.67 2217.12,-152.84"/>
</a>
</g>
</g>
<!-- Node16&#45;&gt;Node9 -->
<g id="edge27_Node000016_Node000009" class="edge">
<title>Node16&#45;&gt;Node9</title>
<g id="a_edge27_Node000016_Node000009"><a xlink:title=" ">
<path fill="none" stroke="#63b8ff" d="M2542.51,-195.52C2539.82,-172.52 2534.83,-129.79 2531.56,-101.75"/>
<polygon fill="#63b8ff" stroke="#63b8ff" points="2535.04,-101.41 2530.41,-91.89 2528.09,-102.22 2535.04,-101.41"/>
</a>
</g>
</g>
<!-- Node16&#45;&gt;Node11 -->
<g id="edge31_Node000016_Node000011" class="edge">
<title>Node16&#45;&gt;Node11</title>
<g id="a_edge31_Node000016_Node000011"><a xlink:title=" ">
<path fill="none" stroke="#63b8ff" d="M2553.74,-195.53C2564.03,-178.2 2581.25,-149.85 2597.38,-126.25 2621.25,-91.31 2651.3,-52.16 2668.83,-29.77"/>
<polygon fill="#63b8ff" stroke="#63b8ff" points="2671.36,-32.22 2674.79,-22.19 2665.85,-27.89 2671.36,-32.22"/>
</a>
</g>
</g>
<!-- Node17 -->
<g id="Node000017" class="node">
<title>Node17</title>
<g id="a_Node000017"><a xlink:title=" ">
<polygon fill="#e0e0e0" stroke="#999999" points="2512.25,-153.38 2474.5,-153.38 2474.5,-132.62 2512.25,-132.62 2512.25,-153.38"/>
<text text-anchor="middle" x="2493.38" y="-139.88" font-family="Helvetica,sans-Serif" font-size="10.00">map</text>
</a>
</g>
</g>
<!-- Node16&#45;&gt;Node17 -->
<g id="edge30_Node000016_Node000017" class="edge">
<title>Node16&#45;&gt;Node17</title>
<g id="a_edge30_Node000016_Node000017"><a xlink:title=" ">
<path fill="none" stroke="#63b8ff" d="M2532.29,-195.5C2524.88,-185.69 2515.35,-173.09 2507.58,-162.8"/>
<polygon fill="#63b8ff" stroke="#63b8ff" points="2510.53,-160.9 2501.71,-155.03 2504.94,-165.12 2510.53,-160.9"/>
</a>
</g>
</g>
<!-- Node16&#45;&gt;Node18 -->
<g id="edge32_Node000016_Node000018" class="edge">
<title>Node16&#45;&gt;Node18</title>
<g id="a_edge32_Node000016_Node000018"><a xlink:title=" ">
<path fill="none" stroke="#63b8ff" d="M2564.52,-195.5C2577.63,-185.09 2594.72,-171.52 2608.06,-160.92"/>
<polygon fill="#63b8ff" stroke="#63b8ff" points="2610.17,-163.72 2615.82,-154.76 2605.81,-158.24 2610.17,-163.72"/>
</a>
</g>
</g>
<!-- Node21&#45;&gt;Node2 -->
<g id="edge49_Node000021_Node000002" class="edge">
<title>Node21&#45;&gt;Node2</title>
<g id="a_edge49_Node000021_Node000002"><a xlink:title=" ">
<path fill="none" stroke="#63b8ff" d="M1114.07,-210.33C1307.65,-205.6 2011.56,-186.89 2233.38,-159.75 2241.2,-158.79 2249.42,-157.48 2257.46,-156.01"/>
<polygon fill="#63b8ff" stroke="#63b8ff" points="2258.01,-159.47 2267.17,-154.15 2256.69,-152.6 2258.01,-159.47"/>
</a>
</g>
</g>
<!-- Node21&#45;&gt;Node5 -->
<g id="edge63_Node000021_Node000005" class="edge">
<title>Node21&#45;&gt;Node5</title>
<g id="a_edge63_Node000021_Node000005"><a xlink:title=" ">
<path fill="none" stroke="#63b8ff" d="M1114.02,-210.14C1211.79,-206.71 1425.3,-195.28 1488.38,-159.75 1539.12,-131.17 1518.59,-85.25 1569.38,-56.75 1622.84,-26.75 1796.09,-16.44 1889.81,-13.01"/>
<polygon fill="#63b8ff" stroke="#63b8ff" points="1889.73,-16.52 1899.6,-12.67 1889.48,-9.52 1889.73,-16.52"/>
</a>
</g>
</g>
<!-- Node21&#45;&gt;Node8 -->
<g id="edge56_Node000021_Node000008" class="edge">
<title>Node21&#45;&gt;Node8</title>
<g id="a_edge56_Node000021_Node000008"><a xlink:title=" ">
<path fill="none" stroke="#63b8ff" d="M1114.02,-207.27C1203.32,-199.45 1396.87,-181.52 1559.38,-159.75 1723.65,-137.74 1915.82,-104.29 2014.5,-86.54"/>
<polygon fill="#63b8ff" stroke="#63b8ff" points="2015.06,-89.99 2024.28,-84.77 2013.82,-83.1 2015.06,-89.99"/>
</a>
</g>
</g>
<!-- Node21&#45;&gt;Node11 -->
<g id="edge64_Node000021_Node000011" class="edge">
<title>Node21&#45;&gt;Node11</title>
<g id="a_edge64_Node000021_Node000011"><a xlink:title=" ">
<path fill="none" stroke="#63b8ff" d="M1113.74,-209.38C1215.76,-204.43 1446.29,-190.17 1518.38,-159.75 1540.06,-150.6 1537.87,-135.8 1559.38,-126.25 1764.21,-35.31 2338.83,-36.79 2562.38,-20.75 2591.86,-18.63 2625.37,-16.02 2649.64,-14.09"/>
<polygon fill="#63b8ff" stroke="#63b8ff" points="2649.88,-17.58 2659.57,-13.3 2649.32,-10.61 2649.88,-17.58"/>
</a>
</g>
</g>
<!-- Node22 -->
<g id="Node000022" class="node">
<title>Node22</title>
<g id="a_Node000022"><a xlink:title=" ">
<polygon fill="#e0e0e0" stroke="#999999" points="312.12,-153.38 198.62,-153.38 198.62,-132.62 312.12,-132.62 312.12,-153.38"/>
<text text-anchor="middle" x="255.38" y="-139.88" font-family="Helvetica,sans-Serif" font-size="10.00">deal.II/base/config.h</text>
</a>
</g>
</g>
<!-- Node21&#45;&gt;Node22 -->
<g id="edge48_Node000021_Node000022" class="edge">
<title>Node21&#45;&gt;Node22</title>
<g id="a_edge48_Node000021_Node000022"><a xlink:title=" ">
<path fill="none" stroke="#63b8ff" d="M1014.94,-210.86C895.23,-208.71 580.52,-199.42 321.38,-159.75 315.33,-158.83 309.03,-157.63 302.82,-156.31"/>
<polygon fill="#63b8ff" stroke="#63b8ff" points="303.82,-152.95 293.3,-154.16 302.28,-159.77 303.82,-152.95"/>
</a>
</g>
</g>
<!-- Node23 -->
<g id="Node000023" class="node">
<title>Node23</title>
<g id="a_Node000023"><a xlink:title=" ">
<polygon fill="#e0e0e0" stroke="#999999" points="464.25,-153.38 330.5,-153.38 330.5,-132.62 464.25,-132.62 464.25,-153.38"/>
<text text-anchor="middle" x="397.38" y="-139.88" font-family="Helvetica,sans-Serif" font-size="10.00">deal.II/base/logstream.h</text>
</a>
</g>
</g>
<!-- Node21&#45;&gt;Node23 -->
<g id="edge50_Node000021_Node000023" class="edge">
<title>Node21&#45;&gt;Node23</title>
<g id="a_edge50_Node000021_Node000023"><a xlink:title=" ">
<path fill="none" stroke="#63b8ff" d="M1014.63,-209.17C912.54,-203.94 672.15,-189.35 472.38,-159.75 465.38,-158.71 458.05,-157.43 450.84,-156.04"/>
<polygon fill="#63b8ff" stroke="#63b8ff" points="451.63,-152.63 441.14,-154.1 450.26,-159.5 451.63,-152.63"/>
</a>
</g>
</g>
<!-- Node24 -->
<g id="Node000024" class="node">
<title>Node24</title>
<g id="a_Node000024"><a xlink:title=" ">
<polygon fill="#e0e0e0" stroke="#999999" points="584.88,-153.38 481.88,-153.38 481.88,-132.62 584.88,-132.62 584.88,-153.38"/>
<text text-anchor="middle" x="533.38" y="-139.88" font-family="Helvetica,sans-Serif" font-size="10.00">deal.II/base/mpi.h</text>
</a>
</g>
</g>
<!-- Node21&#45;&gt;Node24 -->
<g id="edge51_Node000021_Node000024" class="edge">
<title>Node21&#45;&gt;Node24</title>
<g id="a_edge51_Node000021_Node000024"><a xlink:title=" ">
<path fill="none" stroke="#63b8ff" d="M1014.87,-208.47C928.66,-202.66 745.65,-187.94 593.38,-159.75 588.48,-158.84 583.39,-157.75 578.34,-156.57"/>
<polygon fill="#63b8ff" stroke="#63b8ff" points="579.46,-153.24 568.92,-154.24 577.78,-160.03 579.46,-153.24"/>
</a>
</g>
</g>
<!-- Node25 -->
<g id="Node000025" class="node">
<title>Node25</title>
<g id="a_Node000025"><a xlink:title=" ">
<polygon fill="#e0e0e0" stroke="#999999" points="711.88,-153.38 602.88,-153.38 602.88,-132.62 711.88,-132.62 711.88,-153.38"/>
<text text-anchor="middle" x="657.38" y="-139.88" font-family="Helvetica,sans-Serif" font-size="10.00">deal.II/base/point.h</text>
</a>
</g>
</g>
<!-- Node21&#45;&gt;Node25 -->
<g id="edge52_Node000021_Node000025" class="edge">
<title>Node21&#45;&gt;Node25</title>
<g id="a_edge52_Node000021_Node000025"><a xlink:title=" ">
<path fill="none" stroke="#63b8ff" d="M1014.71,-205.46C947.78,-196.98 825.05,-180.28 721.38,-159.75 716.38,-158.76 711.18,-157.64 706.01,-156.46"/>
<polygon fill="#63b8ff" stroke="#63b8ff" points="706.82,-153.06 696.28,-154.17 705.22,-159.87 706.82,-153.06"/>
</a>
</g>
</g>
<!-- Node26 -->
<g id="Node000026" class="node">
<title>Node26</title>
<g id="a_Node000026"><a xlink:title=" ">
<polygon fill="#e0e0e0" stroke="#999999" points="844.5,-153.38 730.25,-153.38 730.25,-132.62 844.5,-132.62 844.5,-153.38"/>
<text text-anchor="middle" x="787.38" y="-139.88" font-family="Helvetica,sans-Serif" font-size="10.00">deal.II/base/tensor.h</text>
</a>
</g>
</g>
<!-- Node21&#45;&gt;Node26 -->
<g id="edge53_Node000021_Node000026" class="edge">
<title>Node21&#45;&gt;Node26</title>
<g id="a_edge53_Node000021_Node000026"><a xlink:title=" ">
<path fill="none" stroke="#63b8ff" d="M1014.85,-199.43C965.09,-187.3 888.74,-168.7 838.43,-156.44"/>
<polygon fill="#63b8ff" stroke="#63b8ff" points="839.5,-153.1 828.96,-154.13 837.84,-159.9 839.5,-153.1"/>
</a>
</g>
</g>
<!-- Node27 -->
<g id="Node000027" class="node">
<title>Node27</title>
<g id="a_Node000027"><a xlink:title=" ">
<polygon fill="#e0e0e0" stroke="#999999" points="974,-153.38 862.75,-153.38 862.75,-132.62 974,-132.62 974,-153.38"/>
<text text-anchor="middle" x="918.38" y="-139.88" font-family="Helvetica,sans-Serif" font-size="10.00">deal.II/base/types.h</text>
</a>
</g>
</g>
<!-- Node21&#45;&gt;Node27 -->
<g id="edge54_Node000021_Node000027" class="edge">
<title>Node21&#45;&gt;Node27</title>
<g id="a_edge54_Node000021_Node000027"><a xlink:title=" ">
<path fill="none" stroke="#63b8ff" d="M1029.4,-195.33C1005.23,-184.15 973.32,-169.4 949.92,-158.59"/>
<polygon fill="#63b8ff" stroke="#63b8ff" points="951.43,-155.43 940.88,-154.41 948.49,-161.78 951.43,-155.43"/>
</a>
</g>
</g>
<!-- Node28 -->
<g id="Node000028" class="node">
<title>Node28</title>
<g id="a_Node000028"><a xlink:title=" ">
<polygon fill="#e0e0e0" stroke="#999999" points="250.38,-83.88 102.38,-83.88 102.38,-63.12 250.38,-63.12 250.38,-83.88"/>
<text text-anchor="middle" x="176.38" y="-70.38" font-family="Helvetica,sans-Serif" font-size="10.00">deal.II/base/vectorization.h</text>
</a>
</g>
</g>
<!-- Node21&#45;&gt;Node28 -->
<g id="edge55_Node000021_Node000028" class="edge">
<title>Node21&#45;&gt;Node28</title>
<g id="a_edge55_Node000021_Node000028"><a xlink:title=" ">
<path fill="none" stroke="#63b8ff" d="M1014.91,-210.28C834.39,-205.61 220.05,-187.72 189.38,-159.75 171.95,-143.86 171.05,-115.26 172.93,-95.59"/>
<polygon fill="#63b8ff" stroke="#63b8ff" points="176.4,-96.06 174.23,-85.69 169.46,-95.15 176.4,-96.06"/>
</a>
</g>
</g>
<!-- Node29 -->
<g id="Node000029" class="node">
<title>Node29</title>
<g id="a_Node000029"><a xlink:title=" ">
<polygon fill="#e0e0e0" stroke="#999999" points="1136.88,-153.38 991.88,-153.38 991.88,-132.62 1136.88,-132.62 1136.88,-153.38"/>
<text text-anchor="middle" x="1064.38" y="-139.88" font-family="Helvetica,sans-Serif" font-size="10.00">boost/range/algorithm.hpp</text>
</a>
</g>
</g>
<!-- Node21&#45;&gt;Node29 -->
<g id="edge57_Node000021_Node000029" class="edge">
<title>Node21&#45;&gt;Node29</title>
<g id="a_edge57_Node000021_Node000029"><a xlink:title=" ">
<path fill="none" stroke="#63b8ff" d="M1064.38,-195.5C1064.38,-186.4 1064.38,-174.89 1064.38,-165.07"/>
<polygon fill="#63b8ff" stroke="#63b8ff" points="1067.88,-165.34 1064.38,-155.34 1060.88,-165.34 1067.88,-165.34"/>
</a>
</g>
</g>
<!-- Node30 -->
<g id="Node000030" class="node">
<title>Node30</title>
<g id="a_Node000030"><a xlink:title=" ">
<polygon fill="#e0e0e0" stroke="#999999" points="1279.38,-159.75 1155.38,-159.75 1155.38,-126.25 1279.38,-126.25 1279.38,-159.75"/>
<text text-anchor="start" x="1163.38" y="-146.25" font-family="Helvetica,sans-Serif" font-size="10.00">boost/range/algorithm</text>
<text text-anchor="middle" x="1217.38" y="-133.5" font-family="Helvetica,sans-Serif" font-size="10.00">_ext.hpp</text>
</a>
</g>
</g>
<!-- Node21&#45;&gt;Node30 -->
<g id="edge58_Node000021_Node000030" class="edge">
<title>Node21&#45;&gt;Node30</title>
<g id="a_edge58_Node000021_Node000030"><a xlink:title=" ">
<path fill="none" stroke="#63b8ff" d="M1101.02,-195.33C1121.86,-186.14 1148.16,-174.53 1170.49,-164.68"/>
<polygon fill="#63b8ff" stroke="#63b8ff" points="1171.64,-168 1179.38,-160.76 1168.82,-161.6 1171.64,-168"/>
</a>
</g>
</g>
<!-- Node31 -->
<g id="Node000031" class="node">
<title>Node31</title>
<g id="a_Node000031"><a xlink:href="vectorized__operations_8h.html" target="_top" xlink:title=" ">
<polygon fill="white" stroke="#666666" points="142.38,-159.75 6.38,-159.75 6.38,-126.25 142.38,-126.25 142.38,-159.75"/>
<text text-anchor="start" x="14.38" y="-146.25" font-family="Helvetica,sans-Serif" font-size="10.00">prismspf/utilities</text>
<text text-anchor="middle" x="74.38" y="-133.5" font-family="Helvetica,sans-Serif" font-size="10.00">/vectorized_operations.h</text>
</a>
</g>
</g>
<!-- Node21&#45;&gt;Node31 -->
<g id="edge59_Node000021_Node000031" class="edge">
<title>Node21&#45;&gt;Node31</title>
<g id="a_edge59_Node000021_Node000031"><a xlink:title=" ">
<path fill="none" stroke="#63b8ff" d="M1014.96,-210.99C878.02,-209.07 482.3,-200.16 156.38,-159.75 155.54,-159.65 154.7,-159.54 153.85,-159.43"/>
<polygon fill="#63b8ff" stroke="#63b8ff" points="154.62,-156 144.22,-158.05 153.62,-162.93 154.62,-156"/>
</a>
</g>
</g>
<!-- Node33 -->
<g id="Node000033" class="node">
<title>Node33</title>
<g id="a_Node000033"><a xlink:title=" ">
<polygon fill="#e0e0e0" stroke="#999999" points="1369.5,-153.38 1297.25,-153.38 1297.25,-132.62 1369.5,-132.62 1369.5,-153.38"/>
<text text-anchor="middle" x="1333.38" y="-139.88" font-family="Helvetica,sans-Serif" font-size="10.00">string_view</text>
</a>
</g>
</g>
<!-- Node21&#45;&gt;Node33 -->
<g id="edge65_Node000021_Node000033" class="edge">
<title>Node21&#45;&gt;Node33</title>
<g id="a_edge65_Node000021_Node000033"><a xlink:title=" ">
<path fill="none" stroke="#63b8ff" d="M1113.71,-201.73C1159.37,-192.3 1228.95,-176.96 1288.38,-159.75 1290.92,-159.01 1293.54,-158.21 1296.17,-157.38"/>
<polygon fill="#63b8ff" stroke="#63b8ff" points="1297.06,-160.77 1305.44,-154.29 1294.85,-154.13 1297.06,-160.77"/>
</a>
</g>
</g>
<!-- Node34 -->
<g id="Node000034" class="node">
<title>Node34</title>
<g id="a_Node000034"><a xlink:title=" ">
<polygon fill="#e0e0e0" stroke="#999999" points="1479.62,-153.38 1387.12,-153.38 1387.12,-132.62 1479.62,-132.62 1479.62,-153.38"/>
<text text-anchor="middle" x="1433.38" y="-139.88" font-family="Helvetica,sans-Serif" font-size="10.00">unordered_map</text>
</a>
</g>
</g>
<!-- Node21&#45;&gt;Node34 -->
<g id="edge66_Node000021_Node000034" class="edge">
<title>Node21&#45;&gt;Node34</title>
<g id="a_edge66_Node000021_Node000034"><a xlink:title=" ">
<path fill="none" stroke="#63b8ff" d="M1113.93,-205.14C1176.11,-196.74 1285.79,-180.56 1378.38,-159.75 1382.22,-158.89 1386.2,-157.91 1390.17,-156.88"/>
<polygon fill="#63b8ff" stroke="#63b8ff" points="1391.06,-160.27 1399.79,-154.27 1389.23,-153.51 1391.06,-160.27"/>
</a>
</g>
</g>
<!-- Node31&#45;&gt;Node5 -->
<g id="edge61_Node000031_Node000005" class="edge">
<title>Node31&#45;&gt;Node5</title>
<g id="a_edge61_Node000031_Node000005"><a xlink:title=" ">
<path fill="none" stroke="#63b8ff" d="M72.66,-125.84C71.58,-106.1 73.23,-73.31 93.38,-56.75 128.87,-27.58 1572.52,-14.39 1890.04,-11.84"/>
<polygon fill="#63b8ff" stroke="#63b8ff" points="1889.8,-15.35 1899.77,-11.77 1889.75,-8.35 1889.8,-15.35"/>
</a>
</g>
</g>
<!-- Node31&#45;&gt;Node28 -->
<g id="edge60_Node000031_Node000028" class="edge">
<title>Node31&#45;&gt;Node28</title>
<g id="a_edge60_Node000031_Node000028"><a xlink:title=" ">
<path fill="none" stroke="#63b8ff" d="M98.81,-125.83C115.01,-115.11 136.18,-101.1 152.31,-90.43"/>
<polygon fill="#63b8ff" stroke="#63b8ff" points="153.94,-93.54 160.35,-85.11 150.08,-87.71 153.94,-93.54"/>
</a>
</g>
</g>
<!-- Node32 -->
<g id="Node000032" class="node">
<title>Node32</title>
<g id="a_Node000032"><a xlink:title=" ">
<polygon fill="#e0e0e0" stroke="#999999" points="46.75,-83.88 0,-83.88 0,-63.12 46.75,-63.12 46.75,-83.88"/>
<text text-anchor="middle" x="23.38" y="-70.38" font-family="Helvetica,sans-Serif" font-size="10.00">cmath</text>
</a>
</g>
</g>
<!-- Node31&#45;&gt;Node32 -->
<g id="edge62_Node000031_Node000032" class="edge">
<title>Node31&#45;&gt;Node32</title>
<g id="a_edge62_Node000031_Node000032"><a xlink:title=" ">
<path fill="none" stroke="#63b8ff" d="M62.29,-126C54.88,-116.19 45.35,-103.59 37.58,-93.3"/>
<polygon fill="#63b8ff" stroke="#63b8ff" points="40.53,-91.4 31.71,-85.53 34.94,-95.62 40.53,-91.4"/>
</a>
</g>
</g>
</g>
</svg>
