<?xml version="1.0" encoding="UTF-8" standalone="no"?>
<!DOCTYPE svg PUBLIC "-//W3C//DTD SVG 1.1//EN"
 "http://www.w3.org/Graphics/SVG/1.1/DTD/svg11.dtd">
<!-- Generated by graphviz version 12.2.1 (20241206.2353)
 -->
<!-- Title: include/prismspf/user_inputs/output_parameters.h Pages: 1 -->
<svg width="2366pt" height="503pt"
 viewBox="0.00 0.00 2365.50 502.50" xmlns="http://www.w3.org/2000/svg" xmlns:xlink="http://www.w3.org/1999/xlink">
<g id="graph0" class="graph" transform="scale(1 1) rotate(0) translate(4 498.5)">
<title>include/prismspf/user_inputs/output_parameters.h</title>
<!-- Node1 -->
<g id="Node000001" class="node">
<title>Node1</title>
<g id="a_Node000001"><a xlink:title=" ">
<polygon fill="#999999" stroke="#666666" points="1319.12,-494.5 1162.88,-494.5 1162.88,-461 1319.12,-461 1319.12,-494.5"/>
<text text-anchor="start" x="1170.88" y="-481" font-family="Helvetica,sans-Serif" font-size="10.00">include/prismspf/user</text>
<text text-anchor="middle" x="1241" y="-468.25" font-family="Helvetica,sans-Serif" font-size="10.00">_inputs/output_parameters.h</text>
</a>
</g>
</g>
<!-- Node2 -->
<g id="Node000002" class="node">
<title>Node2</title>
<g id="a_Node000002"><a xlink:title=" ">
<polygon fill="#e0e0e0" stroke="#999999" points="1373.75,-153.38 1236.25,-153.38 1236.25,-132.62 1373.75,-132.62 1373.75,-153.38"/>
<text text-anchor="middle" x="1305" y="-139.88" font-family="Helvetica,sans-Serif" font-size="10.00">deal.II/base/exceptions.h</text>
</a>
</g>
</g>
<!-- Node1&#45;&gt;Node2 -->
<g id="edge1_Node000001_Node000002" class="edge">
<title>Node1&#45;&gt;Node2</title>
<g id="a_edge1_Node000001_Node000002"><a xlink:title=" ">
<path fill="none" stroke="#63b8ff" d="M1233.94,-460.5C1215.39,-415.15 1170.03,-284.67 1220,-195.75 1229.6,-178.66 1247.39,-166.56 1264.22,-158.37"/>
<polygon fill="#63b8ff" stroke="#63b8ff" points="1265.41,-161.67 1273.11,-154.39 1262.55,-155.28 1265.41,-161.67"/>
</a>
</g>
</g>
<!-- Node3 -->
<g id="Node000003" class="node">
<title>Node3</title>
<g id="a_Node000003"><a xlink:href="conditional__ostreams_8h.html" target="_top" xlink:title=" ">
<polygon fill="white" stroke="#666666" points="2251.88,-229.25 2112.12,-229.25 2112.12,-195.75 2251.88,-195.75 2251.88,-229.25"/>
<text text-anchor="start" x="2120.12" y="-215.75" font-family="Helvetica,sans-Serif" font-size="10.00">prismspf/core/conditional</text>
<text text-anchor="middle" x="2182" y="-203" font-family="Helvetica,sans-Serif" font-size="10.00">_ostreams.h</text>
</a>
</g>
</g>
<!-- Node1&#45;&gt;Node3 -->
<g id="edge2_Node000001_Node000003" class="edge">
<title>Node1&#45;&gt;Node3</title>
<g id="a_edge2_Node000001_Node000003"><a xlink:title=" ">
<path fill="none" stroke="#63b8ff" d="M1319.61,-469.99C1454.5,-457 1737.77,-423.58 1968,-355.5 2042.35,-333.51 2067.24,-334.16 2128,-286 2144.09,-273.25 2157.84,-254.6 2167.43,-239.41"/>
<polygon fill="#63b8ff" stroke="#63b8ff" points="2170.43,-241.22 2172.61,-230.85 2164.44,-237.6 2170.43,-241.22"/>
</a>
</g>
</g>
<!-- Node5 -->
<g id="Node000005" class="node">
<title>Node5</title>
<g id="a_Node000005"><a xlink:title=" ">
<polygon fill="#e0e0e0" stroke="#999999" points="1452,-20.75 1352,-20.75 1352,0 1452,0 1452,-20.75"/>
<text text-anchor="middle" x="1402" y="-7.25" font-family="Helvetica,sans-Serif" font-size="10.00">prismspf/config.h</text>
</a>
</g>
</g>
<!-- Node1&#45;&gt;Node5 -->
<g id="edge64_Node000001_Node000005" class="edge">
<title>Node1&#45;&gt;Node5</title>
<g id="a_edge64_Node000001_Node000005"><a xlink:title=" ">
<path fill="none" stroke="#63b8ff" d="M1162.43,-476.36C889.63,-473.98 0,-457.21 0,-339.75 0,-339.75 0,-339.75 0,-142 0,-80.15 51.84,-77.8 110,-56.75 226.22,-14.69 1098.94,-11.42 1340.31,-11.32"/>
<polygon fill="#63b8ff" stroke="#63b8ff" points="1340.14,-14.82 1350.14,-11.32 1340.14,-7.82 1340.14,-14.82"/>
</a>
</g>
</g>
<!-- Node6 -->
<g id="Node000006" class="node">
<title>Node6</title>
<g id="a_Node000006"><a xlink:href="exceptions_8h.html" target="_top" xlink:title=" ">
<polygon fill="white" stroke="#666666" points="1172,-222.88 1024,-222.88 1024,-202.12 1172,-202.12 1172,-222.88"/>
<text text-anchor="middle" x="1098" y="-209.38" font-family="Helvetica,sans-Serif" font-size="10.00">prismspf/core/exceptions.h</text>
</a>
</g>
</g>
<!-- Node1&#45;&gt;Node6 -->
<g id="edge5_Node000001_Node000006" class="edge">
<title>Node1&#45;&gt;Node6</title>
<g id="a_edge5_Node000001_Node000006"><a xlink:title=" ">
<path fill="none" stroke="#63b8ff" d="M1197.77,-460.66C1180.92,-452.38 1162.85,-440.67 1151,-425 1106.72,-366.41 1099.11,-275.16 1098.03,-234.4"/>
<polygon fill="#63b8ff" stroke="#63b8ff" points="1101.53,-234.5 1097.89,-224.55 1094.53,-234.6 1101.53,-234.5"/>
</a>
</g>
</g>
<!-- Node11 -->
<g id="Node000011" class="node">
<title>Node11</title>
<g id="a_Node000011"><a xlink:title=" ">
<polygon fill="#e0e0e0" stroke="#999999" points="1991.88,-20.75 1948.12,-20.75 1948.12,0 1991.88,0 1991.88,-20.75"/>
<text text-anchor="middle" x="1970" y="-7.25" font-family="Helvetica,sans-Serif" font-size="10.00">string</text>
</a>
</g>
</g>
<!-- Node1&#45;&gt;Node11 -->
<g id="edge67_Node000001_Node000011" class="edge">
<title>Node1&#45;&gt;Node11</title>
<g id="a_edge67_Node000001_Node000011"><a xlink:title=" ">
<path fill="none" stroke="#63b8ff" d="M1319.52,-474.64C1561.57,-467.1 2280,-436.58 2280,-339.75 2280,-339.75 2280,-339.75 2280,-142 2280,-23.12 2084.01,-10.71 2003.71,-10.61"/>
<polygon fill="#63b8ff" stroke="#63b8ff" points="2003.79,-7.11 1993.81,-10.67 2003.83,-14.11 2003.79,-7.11"/>
</a>
</g>
</g>
<!-- Node12 -->
<g id="Node000012" class="node">
<title>Node12</title>
<g id="a_Node000012"><a xlink:href="temporal__discretization_8h.html" target="_top" xlink:title=" ">
<polygon fill="white" stroke="#666666" points="1463.75,-425 1320.25,-425 1320.25,-391.5 1463.75,-391.5 1463.75,-425"/>
<text text-anchor="start" x="1328.25" y="-411.5" font-family="Helvetica,sans-Serif" font-size="10.00">prismspf/user_inputs</text>
<text text-anchor="middle" x="1392" y="-398.75" font-family="Helvetica,sans-Serif" font-size="10.00">/temporal_discretization.h</text>
</a>
</g>
</g>
<!-- Node1&#45;&gt;Node12 -->
<g id="edge15_Node000001_Node000012" class="edge">
<title>Node1&#45;&gt;Node12</title>
<g id="a_edge15_Node000001_Node000012"><a xlink:title=" ">
<path fill="none" stroke="#63b8ff" d="M1277.17,-460.58C1297.64,-451.43 1323.46,-439.89 1345.43,-430.07"/>
<polygon fill="#63b8ff" stroke="#63b8ff" points="1346.78,-433.3 1354.48,-426.02 1343.93,-426.91 1346.78,-433.3"/>
</a>
</g>
</g>
<!-- Node20 -->
<g id="Node000020" class="node">
<title>Node20</title>
<g id="a_Node000020"><a xlink:title=" ">
<polygon fill="#e0e0e0" stroke="#999999" points="1259.5,-222.88 1228.5,-222.88 1228.5,-202.12 1259.5,-202.12 1259.5,-222.88"/>
<text text-anchor="middle" x="1244" y="-209.38" font-family="Helvetica,sans-Serif" font-size="10.00">set</text>
</a>
</g>
</g>
<!-- Node1&#45;&gt;Node20 -->
<g id="edge66_Node000001_Node000020" class="edge">
<title>Node1&#45;&gt;Node20</title>
<g id="a_edge66_Node000001_Node000020"><a xlink:title=" ">
<path fill="none" stroke="#63b8ff" d="M1241.18,-460.68C1241.7,-415.29 1243.17,-286.1 1243.76,-234.84"/>
<polygon fill="#63b8ff" stroke="#63b8ff" points="1247.26,-234.88 1243.87,-224.84 1240.26,-234.8 1247.26,-234.88"/>
</a>
</g>
</g>
<!-- Node21 -->
<g id="Node000021" class="node">
<title>Node21</title>
<g id="a_Node000021"><a xlink:href="utilities_8h.html" target="_top" xlink:title=" ">
<polygon fill="white" stroke="#666666" points="827.25,-229.25 728.75,-229.25 728.75,-195.75 827.25,-195.75 827.25,-229.25"/>
<text text-anchor="start" x="736.75" y="-215.75" font-family="Helvetica,sans-Serif" font-size="10.00">prismspf/utilities</text>
<text text-anchor="middle" x="778" y="-203" font-family="Helvetica,sans-Serif" font-size="10.00">/utilities.h</text>
</a>
</g>
</g>
<!-- Node1&#45;&gt;Node21 -->
<g id="edge47_Node000001_Node000021" class="edge">
<title>Node1&#45;&gt;Node21</title>
<g id="a_edge47_Node000001_Node000021"><a xlink:title=" ">
<path fill="none" stroke="#63b8ff" d="M1202.81,-460.56C1180.66,-450.85 1152.41,-437.91 1128,-425 1008.8,-361.96 873.83,-276.04 812.09,-235.9"/>
<polygon fill="#63b8ff" stroke="#63b8ff" points="814.03,-232.98 803.74,-230.45 810.21,-238.85 814.03,-232.98"/>
</a>
</g>
</g>
<!-- Node31 -->
<g id="Node000031" class="node">
<title>Node31</title>
<g id="a_Node000031"><a xlink:title=" ">
<polygon fill="#e0e0e0" stroke="#999999" points="2357.5,-418.62 2308.5,-418.62 2308.5,-397.88 2357.5,-397.88 2357.5,-418.62"/>
<text text-anchor="middle" x="2333" y="-405.12" font-family="Helvetica,sans-Serif" font-size="10.00">climits</text>
</a>
</g>
</g>
<!-- Node1&#45;&gt;Node31 -->
<g id="edge65_Node000001_Node000031" class="edge">
<title>Node1&#45;&gt;Node31</title>
<g id="a_edge65_Node000001_Node000031"><a xlink:title=" ">
<path fill="none" stroke="#63b8ff" d="M1319.33,-476.28C1530.53,-474.47 2108.31,-465.83 2294,-425 2296.49,-424.45 2299.03,-423.76 2301.55,-422.97"/>
<polygon fill="#63b8ff" stroke="#63b8ff" points="2302.72,-426.28 2310.94,-419.59 2300.34,-419.69 2302.72,-426.28"/>
</a>
</g>
</g>
<!-- Node4 -->
<g id="Node000004" class="node">
<title>Node4</title>
<g id="a_Node000004"><a xlink:title=" ">
<polygon fill="#e0e0e0" stroke="#999999" points="2246.62,-159.75 2117.38,-159.75 2117.38,-126.25 2246.62,-126.25 2246.62,-159.75"/>
<text text-anchor="start" x="2125.38" y="-146.25" font-family="Helvetica,sans-Serif" font-size="10.00">deal.II/base/conditional</text>
<text text-anchor="middle" x="2182" y="-133.5" font-family="Helvetica,sans-Serif" font-size="10.00">_ostream.h</text>
</a>
</g>
</g>
<!-- Node3&#45;&gt;Node4 -->
<g id="edge3_Node000003_Node000004" class="edge">
<title>Node3&#45;&gt;Node4</title>
<g id="a_edge3_Node000003_Node000004"><a xlink:title=" ">
<path fill="none" stroke="#63b8ff" d="M2182,-195.5C2182,-188.27 2182,-179.53 2182,-171.31"/>
<polygon fill="#63b8ff" stroke="#63b8ff" points="2185.5,-171.4 2182,-161.4 2178.5,-171.4 2185.5,-171.4"/>
</a>
</g>
</g>
<!-- Node3&#45;&gt;Node5 -->
<g id="edge4_Node000003_Node000005" class="edge">
<title>Node3&#45;&gt;Node5</title>
<g id="a_edge4_Node000003_Node000005"><a xlink:title=" ">
<path fill="none" stroke="#63b8ff" d="M2157.24,-195.39C2101.02,-159.14 1964.64,-73.03 1913,-56.75 1830.79,-30.84 1580.78,-18.17 1463.71,-13.53"/>
<polygon fill="#63b8ff" stroke="#63b8ff" points="1464.11,-10.05 1453.98,-13.15 1463.83,-17.04 1464.11,-10.05"/>
</a>
</g>
</g>
<!-- Node6&#45;&gt;Node2 -->
<g id="edge6_Node000006_Node000002" class="edge">
<title>Node6&#45;&gt;Node2</title>
<g id="a_edge6_Node000006_Node000002"><a xlink:title=" ">
<path fill="none" stroke="#63b8ff" d="M1128.1,-201.68C1163.97,-189.99 1224.08,-170.39 1264.14,-157.33"/>
<polygon fill="#63b8ff" stroke="#63b8ff" points="1265,-160.72 1273.43,-154.3 1262.83,-154.07 1265,-160.72"/>
</a>
</g>
</g>
<!-- Node6&#45;&gt;Node5 -->
<g id="edge14_Node000006_Node000005" class="edge">
<title>Node6&#45;&gt;Node5</title>
<g id="a_edge14_Node000006_Node000005"><a xlink:title=" ">
<path fill="none" stroke="#63b8ff" d="M1103.92,-201.65C1114.66,-184.45 1138.85,-148.67 1167,-126.25 1227.77,-77.86 1312.25,-42.84 1361.63,-24.94"/>
<polygon fill="#63b8ff" stroke="#63b8ff" points="1362.53,-28.33 1370.78,-21.68 1360.18,-21.74 1362.53,-28.33"/>
</a>
</g>
</g>
<!-- Node7 -->
<g id="Node000007" class="node">
<title>Node7</title>
<g id="a_Node000007"><a xlink:href="types_8h.html" target="_top" xlink:title=" ">
<polygon fill="white" stroke="#666666" points="1729.88,-153.38 1608.12,-153.38 1608.12,-132.62 1729.88,-132.62 1729.88,-153.38"/>
<text text-anchor="middle" x="1669" y="-139.88" font-family="Helvetica,sans-Serif" font-size="10.00">prismspf/core/types.h</text>
</a>
</g>
</g>
<!-- Node6&#45;&gt;Node7 -->
<g id="edge7_Node000006_Node000007" class="edge">
<title>Node6&#45;&gt;Node7</title>
<g id="a_edge7_Node000006_Node000007"><a xlink:title=" ">
<path fill="none" stroke="#63b8ff" d="M1172.16,-201.65C1187.94,-199.63 1204.52,-197.57 1220,-195.75 1371.36,-177.99 1409.79,-178.75 1561,-159.75 1572.47,-158.31 1584.6,-156.66 1596.44,-154.98"/>
<polygon fill="#63b8ff" stroke="#63b8ff" points="1596.76,-158.47 1606.16,-153.59 1595.77,-151.55 1596.76,-158.47"/>
</a>
</g>
</g>
<!-- Node7&#45;&gt;Node5 -->
<g id="edge13_Node000007_Node000005" class="edge">
<title>Node7&#45;&gt;Node5</title>
<g id="a_edge13_Node000007_Node000005"><a xlink:title=" ">
<path fill="none" stroke="#63b8ff" d="M1667.86,-132.33C1665.22,-114.43 1656.94,-76.21 1633,-56.75 1607.49,-36.01 1522.81,-23.42 1463.41,-16.92"/>
<polygon fill="#63b8ff" stroke="#63b8ff" points="1464.08,-13.47 1453.77,-15.9 1463.34,-20.44 1464.08,-13.47"/>
</a>
</g>
</g>
<!-- Node8 -->
<g id="Node000008" class="node">
<title>Node8</title>
<g id="a_Node000008"><a xlink:title=" ">
<polygon fill="#e0e0e0" stroke="#999999" points="1624.12,-90.25 1515.88,-90.25 1515.88,-56.75 1624.12,-56.75 1624.12,-90.25"/>
<text text-anchor="start" x="1523.88" y="-76.75" font-family="Helvetica,sans-Serif" font-size="10.00">deal.II/matrix_free</text>
<text text-anchor="middle" x="1570" y="-64" font-family="Helvetica,sans-Serif" font-size="10.00">/evaluation_flags.h</text>
</a>
</g>
</g>
<!-- Node7&#45;&gt;Node8 -->
<g id="edge8_Node000007_Node000008" class="edge">
<title>Node7&#45;&gt;Node8</title>
<g id="a_edge8_Node000007_Node000008"><a xlink:title=" ">
<path fill="none" stroke="#63b8ff" d="M1654.82,-132.33C1641.37,-123.16 1620.68,-109.05 1603.1,-97.07"/>
<polygon fill="#63b8ff" stroke="#63b8ff" points="1605.2,-94.26 1594.97,-91.52 1601.26,-100.05 1605.2,-94.26"/>
</a>
</g>
</g>
<!-- Node9 -->
<g id="Node000009" class="node">
<title>Node9</title>
<g id="a_Node000009"><a xlink:href="type__enums_8h.html" target="_top" xlink:title=" ">
<polygon fill="white" stroke="#666666" points="1903.75,-90.25 1796.25,-90.25 1796.25,-56.75 1903.75,-56.75 1903.75,-90.25"/>
<text text-anchor="start" x="1804.25" y="-76.75" font-family="Helvetica,sans-Serif" font-size="10.00">prismspf/core/type</text>
<text text-anchor="middle" x="1850" y="-64" font-family="Helvetica,sans-Serif" font-size="10.00">_enums.h</text>
</a>
</g>
</g>
<!-- Node7&#45;&gt;Node9 -->
<g id="edge9_Node000007_Node000009" class="edge">
<title>Node7&#45;&gt;Node9</title>
<g id="a_edge9_Node000007_Node000009"><a xlink:title=" ">
<path fill="none" stroke="#63b8ff" d="M1695.32,-132.18C1721.6,-122.39 1762.74,-107.04 1796,-94.64"/>
<polygon fill="#63b8ff" stroke="#63b8ff" points="1796.92,-98.03 1805.07,-91.26 1794.47,-91.47 1796.92,-98.03"/>
</a>
</g>
</g>
<!-- Node9&#45;&gt;Node5 -->
<g id="edge10_Node000009_Node000005" class="edge">
<title>Node9&#45;&gt;Node5</title>
<g id="a_edge10_Node000009_Node000005"><a xlink:title=" ">
<path fill="none" stroke="#63b8ff" d="M1795.97,-61.03C1787.95,-59.49 1779.77,-58.01 1772,-56.75 1664.06,-39.26 1537.43,-25.09 1463.8,-17.48"/>
<polygon fill="#63b8ff" stroke="#63b8ff" points="1464.26,-14.01 1453.95,-16.47 1463.54,-20.97 1464.26,-14.01"/>
</a>
</g>
</g>
<!-- Node10 -->
<g id="Node000010" class="node">
<title>Node10</title>
<g id="a_Node000010"><a xlink:title=" ">
<polygon fill="#e0e0e0" stroke="#999999" points="1874.5,-20.75 1825.5,-20.75 1825.5,0 1874.5,0 1874.5,-20.75"/>
<text text-anchor="middle" x="1850" y="-7.25" font-family="Helvetica,sans-Serif" font-size="10.00">cstdint</text>
</a>
</g>
</g>
<!-- Node9&#45;&gt;Node10 -->
<g id="edge11_Node000009_Node000010" class="edge">
<title>Node9&#45;&gt;Node10</title>
<g id="a_edge11_Node000009_Node000010"><a xlink:title=" ">
<path fill="none" stroke="#63b8ff" d="M1850,-56.44C1850,-49.1 1850,-40.32 1850,-32.46"/>
<polygon fill="#63b8ff" stroke="#63b8ff" points="1853.5,-32.73 1850,-22.73 1846.5,-32.73 1853.5,-32.73"/>
</a>
</g>
</g>
<!-- Node9&#45;&gt;Node11 -->
<g id="edge12_Node000009_Node000011" class="edge">
<title>Node9&#45;&gt;Node11</title>
<g id="a_edge12_Node000009_Node000011"><a xlink:title=" ">
<path fill="none" stroke="#63b8ff" d="M1881.84,-56.28C1900.1,-46.98 1922.85,-35.39 1940.67,-26.31"/>
<polygon fill="#63b8ff" stroke="#63b8ff" points="1942.11,-29.51 1949.43,-21.85 1938.93,-23.27 1942.11,-29.51"/>
</a>
</g>
</g>
<!-- Node12&#45;&gt;Node3 -->
<g id="edge16_Node000012_Node000003" class="edge">
<title>Node12&#45;&gt;Node3</title>
<g id="a_edge16_Node000012_Node000003"><a xlink:title=" ">
<path fill="none" stroke="#63b8ff" d="M1464.15,-407.38C1596.3,-404.97 1883.34,-387.34 2098,-286 2122.33,-274.51 2145.11,-253.98 2160.8,-237.7"/>
<polygon fill="#63b8ff" stroke="#63b8ff" points="2163.02,-240.44 2167.29,-230.74 2157.91,-235.66 2163.02,-240.44"/>
</a>
</g>
</g>
<!-- Node12&#45;&gt;Node5 -->
<g id="edge46_Node000012_Node000005" class="edge">
<title>Node12&#45;&gt;Node5</title>
<g id="a_edge46_Node000012_Node000005"><a xlink:title=" ">
<path fill="none" stroke="#63b8ff" d="M1320,-398.03C1192.82,-378.31 947.89,-323.04 1015,-195.75 1078.39,-75.52 1248.3,-33 1340.48,-18.5"/>
<polygon fill="#63b8ff" stroke="#63b8ff" points="1340.73,-22 1350.1,-17.05 1339.69,-15.08 1340.73,-22"/>
</a>
</g>
</g>
<!-- Node13 -->
<g id="Node000013" class="node">
<title>Node13</title>
<g id="a_Node000013"><a xlink:href="solve__block_8h.html" target="_top" xlink:title=" ">
<polygon fill="white" stroke="#666666" points="1534,-355.5 1422,-355.5 1422,-322 1534,-322 1534,-355.5"/>
<text text-anchor="start" x="1430" y="-342" font-family="Helvetica,sans-Serif" font-size="10.00">prismspf/core/solve</text>
<text text-anchor="middle" x="1478" y="-329.25" font-family="Helvetica,sans-Serif" font-size="10.00">_block.h</text>
</a>
</g>
</g>
<!-- Node12&#45;&gt;Node13 -->
<g id="edge17_Node000012_Node000013" class="edge">
<title>Node12&#45;&gt;Node13</title>
<g id="a_edge17_Node000012_Node000013"><a xlink:title=" ">
<path fill="none" stroke="#63b8ff" d="M1412.38,-391.25C1423.23,-382.74 1436.75,-372.12 1448.71,-362.74"/>
<polygon fill="#63b8ff" stroke="#63b8ff" points="1450.57,-365.73 1456.28,-356.8 1446.25,-360.22 1450.57,-365.73"/>
</a>
</g>
</g>
<!-- Node13&#45;&gt;Node2 -->
<g id="edge18_Node000013_Node000002" class="edge">
<title>Node13&#45;&gt;Node2</title>
<g id="a_edge18_Node000013_Node000002"><a xlink:title=" ">
<path fill="none" stroke="#63b8ff" d="M1440.45,-321.69C1423.05,-312.94 1402.96,-300.86 1388,-286 1351.33,-249.59 1325.03,-193.69 1312.76,-164.06"/>
<polygon fill="#63b8ff" stroke="#63b8ff" points="1316.16,-163.13 1309.19,-155.16 1309.66,-165.74 1316.16,-163.13"/>
</a>
</g>
</g>
<!-- Node13&#45;&gt;Node5 -->
<g id="edge42_Node000013_Node000005" class="edge">
<title>Node13&#45;&gt;Node5</title>
<g id="a_edge42_Node000013_Node000005"><a xlink:title=" ">
<path fill="none" stroke="#63b8ff" d="M1459.99,-321.59C1437.51,-299.56 1402,-257.75 1402,-213.5 1402,-213.5 1402,-213.5 1402,-142 1402,-103.39 1402,-58.37 1402,-32.53"/>
<polygon fill="#63b8ff" stroke="#63b8ff" points="1405.5,-32.72 1402,-22.72 1398.5,-32.72 1405.5,-32.72"/>
</a>
</g>
</g>
<!-- Node13&#45;&gt;Node7 -->
<g id="edge41_Node000013_Node000007" class="edge">
<title>Node13&#45;&gt;Node7</title>
<g id="a_edge41_Node000013_Node000007"><a xlink:title=" ">
<path fill="none" stroke="#63b8ff" d="M1534.19,-332.35C1641.18,-320.76 1867.56,-289.54 1913,-229.25 1921.96,-217.36 1922.37,-207.32 1913,-195.75 1902.07,-182.26 1809.13,-165.37 1741.19,-154.63"/>
<polygon fill="#63b8ff" stroke="#63b8ff" points="1742.01,-151.22 1731.59,-153.13 1740.93,-158.13 1742.01,-151.22"/>
</a>
</g>
</g>
<!-- Node13&#45;&gt;Node8 -->
<g id="edge19_Node000013_Node000008" class="edge">
<title>Node13&#45;&gt;Node8</title>
<g id="a_edge19_Node000013_Node000008"><a xlink:title=" ">
<path fill="none" stroke="#63b8ff" d="M1475.14,-321.55C1469.41,-284.24 1460.06,-190.49 1497,-126.25 1503.84,-114.36 1514.64,-104.52 1525.86,-96.72"/>
<polygon fill="#63b8ff" stroke="#63b8ff" points="1527.51,-99.82 1534.03,-91.48 1523.73,-93.93 1527.51,-99.82"/>
</a>
</g>
</g>
<!-- Node13&#45;&gt;Node9 -->
<g id="edge40_Node000013_Node000009" class="edge">
<title>Node13&#45;&gt;Node9</title>
<g id="a_edge40_Node000013_Node000009"><a xlink:title=" ">
<path fill="none" stroke="#63b8ff" d="M1534.27,-337.28C1607.6,-335 1738.75,-325.17 1843,-286 1886.22,-269.76 1908.01,-269.84 1930,-229.25 1940.1,-210.61 1928.21,-138.42 1921,-126.25 1914.01,-114.46 1903.19,-104.57 1892.08,-96.7"/>
<polygon fill="#63b8ff" stroke="#63b8ff" points="1894.29,-93.97 1884.02,-91.4 1890.45,-99.82 1894.29,-93.97"/>
</a>
</g>
</g>
<!-- Node13&#45;&gt;Node11 -->
<g id="edge44_Node000013_Node000011" class="edge">
<title>Node13&#45;&gt;Node11</title>
<g id="a_edge44_Node000013_Node000011"><a xlink:title=" ">
<path fill="none" stroke="#63b8ff" d="M1534.47,-338.06C1684.91,-337.38 2084,-325.06 2084,-213.5 2084,-213.5 2084,-213.5 2084,-142 2084,-89.9 2031.88,-48.54 1998.12,-27.21"/>
<polygon fill="#63b8ff" stroke="#63b8ff" points="1999.97,-24.24 1989.61,-22.03 1996.33,-30.22 1999.97,-24.24"/>
</a>
</g>
</g>
<!-- Node14 -->
<g id="Node000014" class="node">
<title>Node14</title>
<g id="a_Node000014"><a xlink:href="dependencies_8h.html" target="_top" xlink:title=" ">
<polygon fill="white" stroke="#666666" points="1706.12,-286 1543.88,-286 1543.88,-265.25 1706.12,-265.25 1706.12,-286"/>
<text text-anchor="middle" x="1625" y="-272.5" font-family="Helvetica,sans-Serif" font-size="10.00">prismspf/core/dependencies.h</text>
</a>
</g>
</g>
<!-- Node13&#45;&gt;Node14 -->
<g id="edge20_Node000013_Node000014" class="edge">
<title>Node13&#45;&gt;Node14</title>
<g id="a_edge20_Node000013_Node000014"><a xlink:title=" ">
<path fill="none" stroke="#63b8ff" d="M1517.01,-321.53C1540,-311.97 1568.82,-299.99 1590.9,-290.8"/>
<polygon fill="#63b8ff" stroke="#63b8ff" points="1592.17,-294.07 1600.06,-287 1589.48,-287.6 1592.17,-294.07"/>
</a>
</g>
</g>
<!-- Node18 -->
<g id="Node000018" class="node">
<title>Node18</title>
<g id="a_Node000018"><a xlink:title=" ">
<polygon fill="#e0e0e0" stroke="#999999" points="1552.38,-153.38 1505.62,-153.38 1505.62,-132.62 1552.38,-132.62 1552.38,-153.38"/>
<text text-anchor="middle" x="1529" y="-139.88" font-family="Helvetica,sans-Serif" font-size="10.00">vector</text>
</a>
</g>
</g>
<!-- Node13&#45;&gt;Node18 -->
<g id="edge45_Node000013_Node000018" class="edge">
<title>Node13&#45;&gt;Node18</title>
<g id="a_edge45_Node000013_Node000018"><a xlink:title=" ">
<path fill="none" stroke="#63b8ff" d="M1482.26,-321.56C1491.51,-286.44 1513.4,-203.27 1523.6,-164.53"/>
<polygon fill="#63b8ff" stroke="#63b8ff" points="1526.92,-165.65 1526.08,-155.09 1520.15,-163.87 1526.92,-165.65"/>
</a>
</g>
</g>
<!-- Node13&#45;&gt;Node20 -->
<g id="edge43_Node000013_Node000020" class="edge">
<title>Node13&#45;&gt;Node20</title>
<g id="a_edge43_Node000013_Node000020"><a xlink:title=" ">
<path fill="none" stroke="#63b8ff" d="M1421.53,-329.89C1385.32,-322.81 1338.6,-309.71 1303,-286 1282.39,-272.27 1265.39,-249.16 1255.02,-232.72"/>
<polygon fill="#63b8ff" stroke="#63b8ff" points="1258.13,-231.1 1249.97,-224.34 1252.13,-234.71 1258.13,-231.1"/>
</a>
</g>
</g>
<!-- Node14&#45;&gt;Node2 -->
<g id="edge21_Node000014_Node000002" class="edge">
<title>Node14&#45;&gt;Node2</title>
<g id="a_edge21_Node000014_Node000002"><a xlink:title=" ">
<path fill="none" stroke="#63b8ff" d="M1580.41,-264.82C1547.6,-256.95 1502.24,-244.68 1464,-229.25 1414.42,-209.25 1360.26,-178.02 1329.68,-159.42"/>
<polygon fill="#63b8ff" stroke="#63b8ff" points="1331.89,-156.68 1321.54,-154.43 1328.23,-162.64 1331.89,-156.68"/>
</a>
</g>
</g>
<!-- Node14&#45;&gt;Node3 -->
<g id="edge24_Node000014_Node000003" class="edge">
<title>Node14&#45;&gt;Node3</title>
<g id="a_edge24_Node000014_Node000003"><a xlink:title=" ">
<path fill="none" stroke="#63b8ff" d="M1706.59,-265.67C1812.13,-254.09 1994.91,-234.03 2100.44,-222.45"/>
<polygon fill="#63b8ff" stroke="#63b8ff" points="2100.6,-225.95 2110.16,-221.38 2099.83,-219 2100.6,-225.95"/>
</a>
</g>
</g>
<!-- Node14&#45;&gt;Node5 -->
<g id="edge35_Node000014_Node000005" class="edge">
<title>Node14&#45;&gt;Node5</title>
<g id="a_edge35_Node000014_Node000005"><a xlink:title=" ">
<path fill="none" stroke="#63b8ff" d="M1605.78,-264.81C1590.55,-256.51 1569.22,-243.69 1553,-229.25 1485.28,-168.96 1432.36,-72.42 1411.57,-31.14"/>
<polygon fill="#63b8ff" stroke="#63b8ff" points="1414.71,-29.6 1407.14,-22.19 1408.44,-32.7 1414.71,-29.6"/>
</a>
</g>
</g>
<!-- Node14&#45;&gt;Node7 -->
<g id="edge34_Node000014_Node000007" class="edge">
<title>Node14&#45;&gt;Node7</title>
<g id="a_edge34_Node000014_Node000007"><a xlink:title=" ">
<path fill="none" stroke="#63b8ff" d="M1627.73,-264.84C1631.96,-249.85 1640.51,-220.38 1649,-195.75 1652.62,-185.26 1657.03,-173.74 1660.79,-164.23"/>
<polygon fill="#63b8ff" stroke="#63b8ff" points="1663.91,-165.83 1664.39,-155.25 1657.42,-163.23 1663.91,-165.83"/>
</a>
</g>
</g>
<!-- Node14&#45;&gt;Node8 -->
<g id="edge23_Node000014_Node000008" class="edge">
<title>Node14&#45;&gt;Node8</title>
<g id="a_edge23_Node000014_Node000008"><a xlink:title=" ">
<path fill="none" stroke="#63b8ff" d="M1622.35,-264.97C1614.29,-235.66 1589.9,-146.91 1577.47,-101.66"/>
<polygon fill="#63b8ff" stroke="#63b8ff" points="1580.86,-100.82 1574.84,-92.11 1574.11,-102.68 1580.86,-100.82"/>
</a>
</g>
</g>
<!-- Node14&#45;&gt;Node9 -->
<g id="edge33_Node000014_Node000009" class="edge">
<title>Node14&#45;&gt;Node9</title>
<g id="a_edge33_Node000014_Node000009"><a xlink:title=" ">
<path fill="none" stroke="#63b8ff" d="M1706.45,-273.19C1782.09,-269.93 1886.85,-259.84 1913,-229.25 1946.22,-190.39 1903.84,-131.69 1874.2,-98.88"/>
<polygon fill="#63b8ff" stroke="#63b8ff" points="1877.03,-96.79 1867.66,-91.85 1871.91,-101.55 1877.03,-96.79"/>
</a>
</g>
</g>
<!-- Node14&#45;&gt;Node11 -->
<g id="edge38_Node000014_Node000011" class="edge">
<title>Node14&#45;&gt;Node11</title>
<g id="a_edge38_Node000014_Node000011"><a xlink:title=" ">
<path fill="none" stroke="#63b8ff" d="M1706.43,-273.15C1786.68,-269.9 1901.71,-259.87 1933,-229.25 1987.05,-176.37 1979.81,-75.78 1973.61,-32.28"/>
<polygon fill="#63b8ff" stroke="#63b8ff" points="1977.08,-31.78 1972.06,-22.45 1970.16,-32.87 1977.08,-31.78"/>
</a>
</g>
</g>
<!-- Node15 -->
<g id="Node000015" class="node">
<title>Node15</title>
<g id="a_Node000015"><a xlink:title=" ">
<polygon fill="#e0e0e0" stroke="#999999" points="1903.5,-222.88 1782.5,-222.88 1782.5,-202.12 1903.5,-202.12 1903.5,-222.88"/>
<text text-anchor="middle" x="1843" y="-209.38" font-family="Helvetica,sans-Serif" font-size="10.00">deal.II/base/utilities.h</text>
</a>
</g>
</g>
<!-- Node14&#45;&gt;Node15 -->
<g id="edge22_Node000014_Node000015" class="edge">
<title>Node14&#45;&gt;Node15</title>
<g id="a_edge22_Node000014_Node000015"><a xlink:title=" ">
<path fill="none" stroke="#63b8ff" d="M1660.03,-264.8C1697.21,-254.38 1756.14,-237.85 1797.04,-226.39"/>
<polygon fill="#63b8ff" stroke="#63b8ff" points="1797.92,-229.77 1806.6,-223.71 1796.03,-223.03 1797.92,-229.77"/>
</a>
</g>
</g>
<!-- Node16 -->
<g id="Node000016" class="node">
<title>Node16</title>
<g id="a_Node000016"><a xlink:href="field__attributes_8h.html" target="_top" xlink:title=" ">
<polygon fill="white" stroke="#666666" points="1764.38,-229.25 1657.62,-229.25 1657.62,-195.75 1764.38,-195.75 1764.38,-229.25"/>
<text text-anchor="start" x="1665.62" y="-215.75" font-family="Helvetica,sans-Serif" font-size="10.00">prismspf/core/field</text>
<text text-anchor="middle" x="1711" y="-203" font-family="Helvetica,sans-Serif" font-size="10.00">_attributes.h</text>
</a>
</g>
</g>
<!-- Node14&#45;&gt;Node16 -->
<g id="edge25_Node000014_Node000016" class="edge">
<title>Node14&#45;&gt;Node16</title>
<g id="a_edge25_Node000014_Node000016"><a xlink:title=" ">
<path fill="none" stroke="#63b8ff" d="M1638.82,-264.8C1649.62,-257.13 1665.07,-246.14 1678.91,-236.31"/>
<polygon fill="#63b8ff" stroke="#63b8ff" points="1680.8,-239.26 1686.92,-230.61 1676.75,-233.55 1680.8,-239.26"/>
</a>
</g>
</g>
<!-- Node14&#45;&gt;Node18 -->
<g id="edge39_Node000014_Node000018" class="edge">
<title>Node14&#45;&gt;Node18</title>
<g id="a_edge39_Node000014_Node000018"><a xlink:title=" ">
<path fill="none" stroke="#63b8ff" d="M1613.28,-264.97C1603.18,-256.29 1588.6,-242.84 1578,-229.25 1561.82,-208.5 1547.36,-181.84 1538.42,-163.9"/>
<polygon fill="#63b8ff" stroke="#63b8ff" points="1541.67,-162.58 1534.14,-155.12 1535.37,-165.64 1541.67,-162.58"/>
</a>
</g>
</g>
<!-- Node19 -->
<g id="Node000019" class="node">
<title>Node19</title>
<g id="a_Node000019"><a xlink:title=" ">
<polygon fill="#e0e0e0" stroke="#999999" points="1217.75,-153.38 1176.25,-153.38 1176.25,-132.62 1217.75,-132.62 1217.75,-153.38"/>
<text text-anchor="middle" x="1197" y="-139.88" font-family="Helvetica,sans-Serif" font-size="10.00">array</text>
</a>
</g>
</g>
<!-- Node14&#45;&gt;Node19 -->
<g id="edge36_Node000014_Node000019" class="edge">
<title>Node14&#45;&gt;Node19</title>
<g id="a_edge36_Node000014_Node000019"><a xlink:title=" ">
<path fill="none" stroke="#63b8ff" d="M1555.07,-264.75C1508.55,-257.26 1446.41,-245.47 1393,-229.25 1316.47,-206.01 1299.37,-193.82 1227,-159.75 1226.38,-159.46 1225.76,-159.16 1225.14,-158.86"/>
<polygon fill="#63b8ff" stroke="#63b8ff" points="1226.82,-155.79 1216.31,-154.43 1223.68,-162.05 1226.82,-155.79"/>
</a>
</g>
</g>
<!-- Node14&#45;&gt;Node20 -->
<g id="edge37_Node000014_Node000020" class="edge">
<title>Node14&#45;&gt;Node20</title>
<g id="a_edge37_Node000014_Node000020"><a xlink:title=" ">
<path fill="none" stroke="#63b8ff" d="M1543.95,-264.77C1480.58,-256.6 1390.38,-243.98 1312,-229.25 1298.37,-226.69 1283.34,-223.27 1270.88,-220.27"/>
<polygon fill="#63b8ff" stroke="#63b8ff" points="1271.87,-216.91 1261.33,-217.93 1270.21,-223.71 1271.87,-216.91"/>
</a>
</g>
</g>
<!-- Node16&#45;&gt;Node2 -->
<g id="edge26_Node000016_Node000002" class="edge">
<title>Node16&#45;&gt;Node2</title>
<g id="a_edge26_Node000016_Node000002"><a xlink:title=" ">
<path fill="none" stroke="#63b8ff" d="M1657.51,-202.61C1585.01,-190.55 1455.44,-169.01 1375.2,-155.67"/>
<polygon fill="#63b8ff" stroke="#63b8ff" points="1376.15,-152.28 1365.71,-154.09 1375,-159.19 1376.15,-152.28"/>
</a>
</g>
</g>
<!-- Node16&#45;&gt;Node5 -->
<g id="edge29_Node000016_Node000005" class="edge">
<title>Node16&#45;&gt;Node5</title>
<g id="a_edge29_Node000016_Node000005"><a xlink:title=" ">
<path fill="none" stroke="#63b8ff" d="M1723.38,-195.38C1735.18,-177.92 1749.67,-149.46 1739,-126.25 1719.19,-83.15 1700.87,-77.05 1658,-56.75 1596.05,-27.41 1517.52,-16.91 1463.87,-13.23"/>
<polygon fill="#63b8ff" stroke="#63b8ff" points="1464.19,-9.74 1453.99,-12.62 1463.76,-16.73 1464.19,-9.74"/>
</a>
</g>
</g>
<!-- Node16&#45;&gt;Node7 -->
<g id="edge28_Node000016_Node000007" class="edge">
<title>Node16&#45;&gt;Node7</title>
<g id="a_edge28_Node000016_Node000007"><a xlink:title=" ">
<path fill="none" stroke="#63b8ff" d="M1701.05,-195.5C1695.07,-185.9 1687.42,-173.61 1681.1,-163.44"/>
<polygon fill="#63b8ff" stroke="#63b8ff" points="1684.17,-161.75 1675.91,-155.11 1678.22,-165.45 1684.17,-161.75"/>
</a>
</g>
</g>
<!-- Node16&#45;&gt;Node9 -->
<g id="edge27_Node000016_Node000009" class="edge">
<title>Node16&#45;&gt;Node9</title>
<g id="a_edge27_Node000016_Node000009"><a xlink:title=" ">
<path fill="none" stroke="#63b8ff" d="M1761.74,-195.36C1790.79,-185.12 1823.34,-171.62 1833,-159.75 1846.15,-143.6 1850.06,-120.1 1850.87,-101.86"/>
<polygon fill="#63b8ff" stroke="#63b8ff" points="1854.37,-102.05 1851,-92.01 1847.37,-101.96 1854.37,-102.05"/>
</a>
</g>
</g>
<!-- Node16&#45;&gt;Node11 -->
<g id="edge31_Node000016_Node000011" class="edge">
<title>Node16&#45;&gt;Node11</title>
<g id="a_edge31_Node000016_Node000011"><a xlink:title=" ">
<path fill="none" stroke="#63b8ff" d="M1764.6,-195.28C1798.65,-184.37 1839.04,-170.14 1854,-159.75 1903.97,-125.04 1942.58,-62.41 1959.95,-30.78"/>
<polygon fill="#63b8ff" stroke="#63b8ff" points="1962.84,-32.78 1964.47,-22.31 1956.67,-29.48 1962.84,-32.78"/>
</a>
</g>
</g>
<!-- Node17 -->
<g id="Node000017" class="node">
<title>Node17</title>
<g id="a_Node000017"><a xlink:title=" ">
<polygon fill="#e0e0e0" stroke="#999999" points="1823.88,-153.38 1786.12,-153.38 1786.12,-132.62 1823.88,-132.62 1823.88,-153.38"/>
<text text-anchor="middle" x="1805" y="-139.88" font-family="Helvetica,sans-Serif" font-size="10.00">map</text>
</a>
</g>
</g>
<!-- Node16&#45;&gt;Node17 -->
<g id="edge30_Node000016_Node000017" class="edge">
<title>Node16&#45;&gt;Node17</title>
<g id="a_edge30_Node000016_Node000017"><a xlink:title=" ">
<path fill="none" stroke="#63b8ff" d="M1733.28,-195.5C1748.06,-184.89 1767.41,-170.99 1782.29,-160.31"/>
<polygon fill="#63b8ff" stroke="#63b8ff" points="1784.01,-163.38 1790.09,-154.7 1779.93,-157.69 1784.01,-163.38"/>
</a>
</g>
</g>
<!-- Node16&#45;&gt;Node18 -->
<g id="edge32_Node000016_Node000018" class="edge">
<title>Node16&#45;&gt;Node18</title>
<g id="a_edge32_Node000016_Node000018"><a xlink:title=" ">
<path fill="none" stroke="#63b8ff" d="M1667.41,-195.33C1635.52,-183.5 1592.85,-167.68 1563.36,-156.74"/>
<polygon fill="#63b8ff" stroke="#63b8ff" points="1564.76,-153.53 1554.17,-153.33 1562.33,-160.09 1564.76,-153.53"/>
</a>
</g>
</g>
<!-- Node21&#45;&gt;Node2 -->
<g id="edge48_Node000021_Node000002" class="edge">
<title>Node21&#45;&gt;Node2</title>
<g id="a_edge48_Node000021_Node000002"><a xlink:title=" ">
<path fill="none" stroke="#63b8ff" d="M827.68,-207.16C910.68,-199.59 1082.65,-182.6 1227,-159.75 1233.98,-158.64 1241.29,-157.35 1248.52,-155.99"/>
<polygon fill="#63b8ff" stroke="#63b8ff" points="1249.11,-159.44 1258.26,-154.1 1247.78,-152.57 1249.11,-159.44"/>
</a>
</g>
</g>
<!-- Node21&#45;&gt;Node5 -->
<g id="edge55_Node000021_Node000005" class="edge">
<title>Node21&#45;&gt;Node5</title>
<g id="a_edge55_Node000021_Node000005"><a xlink:title=" ">
<path fill="none" stroke="#63b8ff" d="M728.32,-211.63C575.83,-211.53 122.08,-207.21 78,-159.75 67.87,-148.84 69.33,-138.35 78,-126.25 134.05,-48.06 188.41,-74.32 283,-56.75 488.33,-18.6 1137.07,-12.53 1340.42,-11.56"/>
<polygon fill="#63b8ff" stroke="#63b8ff" points="1340.25,-15.06 1350.24,-11.51 1340.22,-8.06 1340.25,-15.06"/>
</a>
</g>
</g>
<!-- Node21&#45;&gt;Node8 -->
<g id="edge52_Node000021_Node000008" class="edge">
<title>Node21&#45;&gt;Node8</title>
<g id="a_edge52_Node000021_Node000008"><a xlink:title=" ">
<path fill="none" stroke="#63b8ff" d="M827.57,-206.66C889.08,-199.86 996.74,-185.35 1086,-159.75 1123.45,-149.01 1129.35,-136.26 1167,-126.25 1283.3,-95.32 1423.58,-82.63 1504.22,-77.61"/>
<polygon fill="#63b8ff" stroke="#63b8ff" points="1504.39,-81.1 1514.16,-77.01 1503.97,-74.12 1504.39,-81.1"/>
</a>
</g>
</g>
<!-- Node21&#45;&gt;Node11 -->
<g id="edge57_Node000021_Node000011" class="edge">
<title>Node21&#45;&gt;Node11</title>
<g id="a_edge57_Node000021_Node000011"><a xlink:title=" ">
<path fill="none" stroke="#63b8ff" d="M827.45,-204.05C876.01,-195.96 951.8,-181.25 1015,-159.75 1048.03,-148.51 1052.69,-136.64 1086,-126.25 1427.54,-19.76 1528.1,-57.14 1884,-20.75 1901.26,-18.98 1920.46,-16.9 1936.33,-15.15"/>
<polygon fill="#63b8ff" stroke="#63b8ff" points="1936.68,-18.63 1946.23,-14.05 1935.91,-11.68 1936.68,-18.63"/>
</a>
</g>
</g>
<!-- Node21&#45;&gt;Node19 -->
<g id="edge56_Node000021_Node000019" class="edge">
<title>Node21&#45;&gt;Node19</title>
<g id="a_edge56_Node000021_Node000019"><a xlink:title=" ">
<path fill="none" stroke="#63b8ff" d="M827.73,-205.08C895.09,-196.15 1018.99,-178.91 1124,-159.75 1137.48,-157.29 1152.26,-154.18 1164.98,-151.37"/>
<polygon fill="#63b8ff" stroke="#63b8ff" points="1165.52,-154.84 1174.51,-149.24 1163.99,-148.01 1165.52,-154.84"/>
</a>
</g>
</g>
<!-- Node22 -->
<g id="Node000022" class="node">
<title>Node22</title>
<g id="a_Node000022"><a xlink:title=" ">
<polygon fill="#e0e0e0" stroke="#999999" points="323.5,-153.38 214.5,-153.38 214.5,-132.62 323.5,-132.62 323.5,-153.38"/>
<text text-anchor="middle" x="269" y="-139.88" font-family="Helvetica,sans-Serif" font-size="10.00">deal.II/base/point.h</text>
</a>
</g>
</g>
<!-- Node21&#45;&gt;Node22 -->
<g id="edge49_Node000021_Node000022" class="edge">
<title>Node21&#45;&gt;Node22</title>
<g id="a_edge49_Node000021_Node000022"><a xlink:title=" ">
<path fill="none" stroke="#63b8ff" d="M728.31,-207.77C645.77,-201.12 475.37,-185.44 333,-159.75 327.72,-158.8 322.22,-157.66 316.77,-156.45"/>
<polygon fill="#63b8ff" stroke="#63b8ff" points="317.73,-153.08 307.19,-154.22 316.14,-159.9 317.73,-153.08"/>
</a>
</g>
</g>
<!-- Node23 -->
<g id="Node000023" class="node">
<title>Node23</title>
<g id="a_Node000023"><a xlink:title=" ">
<polygon fill="#e0e0e0" stroke="#999999" points="456.12,-153.38 341.88,-153.38 341.88,-132.62 456.12,-132.62 456.12,-153.38"/>
<text text-anchor="middle" x="399" y="-139.88" font-family="Helvetica,sans-Serif" font-size="10.00">deal.II/base/tensor.h</text>
</a>
</g>
</g>
<!-- Node21&#45;&gt;Node23 -->
<g id="edge50_Node000021_Node000023" class="edge">
<title>Node21&#45;&gt;Node23</title>
<g id="a_edge50_Node000021_Node000023"><a xlink:title=" ">
<path fill="none" stroke="#63b8ff" d="M728.47,-204.41C666.6,-195.31 557.59,-178.43 465,-159.75 459.86,-158.71 454.51,-157.56 449.18,-156.36"/>
<polygon fill="#63b8ff" stroke="#63b8ff" points="450.34,-153.04 439.81,-154.21 448.77,-159.86 450.34,-153.04"/>
</a>
</g>
</g>
<!-- Node24 -->
<g id="Node000024" class="node">
<title>Node24</title>
<g id="a_Node000024"><a xlink:title=" ">
<polygon fill="#e0e0e0" stroke="#999999" points="440,-83.88 292,-83.88 292,-63.12 440,-63.12 440,-83.88"/>
<text text-anchor="middle" x="366" y="-70.38" font-family="Helvetica,sans-Serif" font-size="10.00">deal.II/base/vectorization.h</text>
</a>
</g>
</g>
<!-- Node21&#45;&gt;Node24 -->
<g id="edge51_Node000021_Node000024" class="edge">
<title>Node21&#45;&gt;Node24</title>
<g id="a_edge51_Node000021_Node000024"><a xlink:title=" ">
<path fill="none" stroke="#63b8ff" d="M728.47,-211.54C578.64,-211.13 137.87,-206 95,-159.75 37.04,-97.24 180.88,-80.28 280.44,-75.85"/>
<polygon fill="#63b8ff" stroke="#63b8ff" points="280.38,-79.36 290.23,-75.46 280.09,-72.36 280.38,-79.36"/>
</a>
</g>
</g>
<!-- Node25 -->
<g id="Node000025" class="node">
<title>Node25</title>
<g id="a_Node000025"><a xlink:title=" ">
<polygon fill="#e0e0e0" stroke="#999999" points="619.5,-153.38 474.5,-153.38 474.5,-132.62 619.5,-132.62 619.5,-153.38"/>
<text text-anchor="middle" x="547" y="-139.88" font-family="Helvetica,sans-Serif" font-size="10.00">boost/range/algorithm.hpp</text>
</a>
</g>
</g>
<!-- Node21&#45;&gt;Node25 -->
<g id="edge53_Node000021_Node000025" class="edge">
<title>Node21&#45;&gt;Node25</title>
<g id="a_edge53_Node000021_Node000025"><a xlink:title=" ">
<path fill="none" stroke="#63b8ff" d="M728.44,-197.02C687.82,-185.15 630.82,-168.49 591.6,-157.03"/>
<polygon fill="#63b8ff" stroke="#63b8ff" points="592.82,-153.74 582.24,-154.3 590.86,-160.46 592.82,-153.74"/>
</a>
</g>
</g>
<!-- Node26 -->
<g id="Node000026" class="node">
<title>Node26</title>
<g id="a_Node000026"><a xlink:title=" ">
<polygon fill="#e0e0e0" stroke="#999999" points="916,-159.75 792,-159.75 792,-126.25 916,-126.25 916,-159.75"/>
<text text-anchor="start" x="800" y="-146.25" font-family="Helvetica,sans-Serif" font-size="10.00">boost/range/algorithm</text>
<text text-anchor="middle" x="854" y="-133.5" font-family="Helvetica,sans-Serif" font-size="10.00">_ext.hpp</text>
</a>
</g>
</g>
<!-- Node21&#45;&gt;Node26 -->
<g id="edge54_Node000021_Node000026" class="edge">
<title>Node21&#45;&gt;Node26</title>
<g id="a_edge54_Node000021_Node000026"><a xlink:title=" ">
<path fill="none" stroke="#63b8ff" d="M796.01,-195.5C805.41,-187.16 817.08,-176.79 827.49,-167.55"/>
<polygon fill="#63b8ff" stroke="#63b8ff" points="829.57,-170.38 834.72,-161.12 824.92,-165.14 829.57,-170.38"/>
</a>
</g>
</g>
<!-- Node27 -->
<g id="Node000027" class="node">
<title>Node27</title>
<g id="a_Node000027"><a xlink:title=" ">
<polygon fill="#e0e0e0" stroke="#999999" points="1006.12,-153.38 933.88,-153.38 933.88,-132.62 1006.12,-132.62 1006.12,-153.38"/>
<text text-anchor="middle" x="970" y="-139.88" font-family="Helvetica,sans-Serif" font-size="10.00">string_view</text>
</a>
</g>
</g>
<!-- Node21&#45;&gt;Node27 -->
<g id="edge58_Node000021_Node000027" class="edge">
<title>Node21&#45;&gt;Node27</title>
<g id="a_edge58_Node000021_Node000027"><a xlink:title=" ">
<path fill="none" stroke="#63b8ff" d="M823.99,-195.33C856.69,-183.83 900.14,-168.56 931.12,-157.67"/>
<polygon fill="#63b8ff" stroke="#63b8ff" points="932.23,-160.99 940.5,-154.37 929.9,-154.39 932.23,-160.99"/>
</a>
</g>
</g>
<!-- Node28 -->
<g id="Node000028" class="node">
<title>Node28</title>
<g id="a_Node000028"><a xlink:title=" ">
<polygon fill="#e0e0e0" stroke="#999999" points="196.25,-153.38 103.75,-153.38 103.75,-132.62 196.25,-132.62 196.25,-153.38"/>
<text text-anchor="middle" x="150" y="-139.88" font-family="Helvetica,sans-Serif" font-size="10.00">unordered_map</text>
</a>
</g>
</g>
<!-- Node21&#45;&gt;Node28 -->
<g id="edge59_Node000021_Node000028" class="edge">
<title>Node21&#45;&gt;Node28</title>
<g id="a_edge59_Node000021_Node000028"><a xlink:title=" ">
<path fill="none" stroke="#63b8ff" d="M728.52,-210.17C628.71,-206.8 396.47,-195.48 205,-159.75 200.62,-158.93 196.09,-157.92 191.59,-156.8"/>
<polygon fill="#63b8ff" stroke="#63b8ff" points="192.62,-153.45 182.05,-154.26 190.81,-160.22 192.62,-153.45"/>
</a>
</g>
</g>
<!-- Node29 -->
<g id="Node000029" class="node">
<title>Node29</title>
<g id="a_Node000029"><a xlink:href="vectorized__operations_8h.html" target="_top" xlink:title=" ">
<polygon fill="white" stroke="#666666" points="774,-159.75 638,-159.75 638,-126.25 774,-126.25 774,-159.75"/>
<text text-anchor="start" x="646" y="-146.25" font-family="Helvetica,sans-Serif" font-size="10.00">prismspf/utilities</text>
<text text-anchor="middle" x="706" y="-133.5" font-family="Helvetica,sans-Serif" font-size="10.00">/vectorized_operations.h</text>
</a>
</g>
</g>
<!-- Node21&#45;&gt;Node29 -->
<g id="edge60_Node000021_Node000029" class="edge">
<title>Node21&#45;&gt;Node29</title>
<g id="a_edge60_Node000021_Node000029"><a xlink:title=" ">
<path fill="none" stroke="#63b8ff" d="M760.94,-195.5C752.06,-187.18 741.04,-176.85 731.2,-167.62"/>
<polygon fill="#63b8ff" stroke="#63b8ff" points="733.73,-165.2 724.04,-160.92 728.95,-170.31 733.73,-165.2"/>
</a>
</g>
</g>
<!-- Node29&#45;&gt;Node5 -->
<g id="edge62_Node000029_Node000005" class="edge">
<title>Node29&#45;&gt;Node5</title>
<g id="a_edge62_Node000029_Node000005"><a xlink:title=" ">
<path fill="none" stroke="#63b8ff" d="M756.58,-125.79C818.19,-106.63 925.73,-75.04 1020,-56.75 1131.94,-35.03 1264.48,-22.1 1340.35,-15.89"/>
<polygon fill="#63b8ff" stroke="#63b8ff" points="1340.38,-19.4 1350.07,-15.11 1339.82,-12.43 1340.38,-19.4"/>
</a>
</g>
</g>
<!-- Node29&#45;&gt;Node24 -->
<g id="edge61_Node000029_Node000024" class="edge">
<title>Node29&#45;&gt;Node24</title>
<g id="a_edge61_Node000029_Node000024"><a xlink:title=" ">
<path fill="none" stroke="#63b8ff" d="M637.52,-128.16C634.3,-127.51 631.12,-126.87 628,-126.25 559.38,-112.54 480.6,-97.01 427.5,-86.57"/>
<polygon fill="#63b8ff" stroke="#63b8ff" points="428.21,-83.14 417.72,-84.65 426.86,-90.01 428.21,-83.14"/>
</a>
</g>
</g>
<!-- Node30 -->
<g id="Node000030" class="node">
<title>Node30</title>
<g id="a_Node000030"><a xlink:title=" ">
<polygon fill="#e0e0e0" stroke="#999999" points="729.38,-83.88 682.62,-83.88 682.62,-63.12 729.38,-63.12 729.38,-83.88"/>
<text text-anchor="middle" x="706" y="-70.38" font-family="Helvetica,sans-Serif" font-size="10.00">cmath</text>
</a>
</g>
</g>
<!-- Node29&#45;&gt;Node30 -->
<g id="edge63_Node000029_Node000030" class="edge">
<title>Node29&#45;&gt;Node30</title>
<g id="a_edge63_Node000029_Node000030"><a xlink:title=" ">
<path fill="none" stroke="#63b8ff" d="M706,-126C706,-116.9 706,-105.39 706,-95.57"/>
<polygon fill="#63b8ff" stroke="#63b8ff" points="709.5,-95.84 706,-85.84 702.5,-95.84 709.5,-95.84"/>
</a>
</g>
</g>
</g>
</svg>
