<?xml version="1.0" encoding="UTF-8" standalone="no"?>
<!DOCTYPE svg PUBLIC "-//W3C//DTD SVG 1.1//EN"
 "http://www.w3.org/Graphics/SVG/1.1/DTD/svg11.dtd">
<!-- Generated by graphviz version 2.43.0 (0)
 -->
<!-- Title: /home/runner/work/phaseField/phaseField/include/prismspf/user_inputs/output_parameters.h Pages: 1 -->
<svg width="2376pt" height="489pt"
 viewBox="0.00 0.00 2376.00 489.00" xmlns="http://www.w3.org/2000/svg" xmlns:xlink="http://www.w3.org/1999/xlink">
<g id="graph0" class="graph" transform="scale(1 1) rotate(0) translate(4 485)">
<title>/home/runner/work/phaseField/phaseField/include/prismspf/user_inputs/output_parameters.h</title>
<!-- Node1 -->
<g id="Node000001" class="node">
<title>Node1</title>
<g id="a_Node000001"><a xlink:title=" ">
<polygon fill="#999999" stroke="#666666" points="1326.5,-481 1145.5,-481 1145.5,-440 1326.5,-440 1326.5,-481"/>
<text text-anchor="start" x="1153.5" y="-469" font-family="Helvetica,sans-Serif" font-size="10.00">/home/runner/work/phaseField</text>
<text text-anchor="start" x="1153.5" y="-458" font-family="Helvetica,sans-Serif" font-size="10.00">/phaseField/include/prismspf</text>
<text text-anchor="middle" x="1236" y="-447" font-family="Helvetica,sans-Serif" font-size="10.00">/user_inputs/output_parameters.h</text>
</a>
</g>
</g>
<!-- Node2 -->
<g id="Node000002" class="node">
<title>Node2</title>
<g id="a_Node000002"><a xlink:title=" ">
<polygon fill="#e0e0e0" stroke="#999999" points="1382,-145.5 1244,-145.5 1244,-126.5 1382,-126.5 1382,-145.5"/>
<text text-anchor="middle" x="1313" y="-133.5" font-family="Helvetica,sans-Serif" font-size="10.00">deal.II/base/exceptions.h</text>
</a>
</g>
</g>
<!-- Node1&#45;&gt;Node2 -->
<g id="edge1_Node000001_Node000002" class="edge">
<title>Node1&#45;&gt;Node2</title>
<g id="a_edge1_Node000001_Node000002"><a xlink:title=" ">
<path fill="none" stroke="#63b8ff" d="M1228.72,-439.66C1212.65,-392.23 1179.2,-270.08 1227,-187 1237.17,-169.32 1256.27,-157.31 1273.89,-149.5"/>
<polygon fill="#63b8ff" stroke="#63b8ff" points="1275.53,-152.61 1283.46,-145.59 1272.88,-146.13 1275.53,-152.61"/>
</a>
</g>
</g>
<!-- Node3 -->
<g id="Node000003" class="node">
<title>Node3</title>
<g id="a_Node000003"><a xlink:href="conditional__ostreams_8h.html" target="_top" xlink:title=" ">
<polygon fill="white" stroke="#666666" points="2262,-217 2122,-217 2122,-187 2262,-187 2262,-217"/>
<text text-anchor="start" x="2130" y="-205" font-family="Helvetica,sans-Serif" font-size="10.00">prismspf/core/conditional</text>
<text text-anchor="middle" x="2192" y="-194" font-family="Helvetica,sans-Serif" font-size="10.00">_ostreams.h</text>
</a>
</g>
</g>
<!-- Node1&#45;&gt;Node3 -->
<g id="edge2_Node000001_Node000003" class="edge">
<title>Node1&#45;&gt;Node3</title>
<g id="a_edge2_Node000001_Node000003"><a xlink:title=" ">
<path fill="none" stroke="#63b8ff" d="M1326.59,-450.77C1466.53,-435.88 1742.83,-400.92 1970,-338 2046.91,-316.7 2072.85,-319.48 2137,-272 2153.83,-259.55 2168.36,-240.73 2178.25,-225.89"/>
<polygon fill="#63b8ff" stroke="#63b8ff" points="2181.34,-227.56 2183.79,-217.26 2175.45,-223.78 2181.34,-227.56"/>
</a>
</g>
</g>
<!-- Node5 -->
<g id="Node000005" class="node">
<title>Node5</title>
<g id="a_Node000005"><a xlink:title=" ">
<polygon fill="#e0e0e0" stroke="#999999" points="1460.5,-19 1359.5,-19 1359.5,0 1460.5,0 1460.5,-19"/>
<text text-anchor="middle" x="1410" y="-7" font-family="Helvetica,sans-Serif" font-size="10.00">prismspf/config.h</text>
</a>
</g>
</g>
<!-- Node1&#45;&gt;Node5 -->
<g id="edge64_Node000001_Node000005" class="edge">
<title>Node1&#45;&gt;Node5</title>
<g id="a_edge64_Node000001_Node000005"><a xlink:title=" ">
<path fill="none" stroke="#63b8ff" d="M1145.11,-459.06C859.68,-456.5 0,-439.22 0,-324 0,-324 0,-324 0,-135 0,-74.19 53.46,-74.67 111,-55 228.76,-14.75 1108.12,-10.82 1349.09,-10.51"/>
<polygon fill="#63b8ff" stroke="#63b8ff" points="1349.42,-14.01 1359.41,-10.5 1349.41,-7.01 1349.42,-14.01"/>
</a>
</g>
</g>
<!-- Node6 -->
<g id="Node000006" class="node">
<title>Node6</title>
<g id="a_Node000006"><a xlink:href="exceptions_8h.html" target="_top" xlink:title=" ">
<polygon fill="white" stroke="#666666" points="1180.5,-211.5 1031.5,-211.5 1031.5,-192.5 1180.5,-192.5 1180.5,-211.5"/>
<text text-anchor="middle" x="1106" y="-199.5" font-family="Helvetica,sans-Serif" font-size="10.00">prismspf/core/exceptions.h</text>
</a>
</g>
</g>
<!-- Node1&#45;&gt;Node6 -->
<g id="edge5_Node000001_Node000006" class="edge">
<title>Node1&#45;&gt;Node6</title>
<g id="a_edge5_Node000001_Node000006"><a xlink:title=" ">
<path fill="none" stroke="#63b8ff" d="M1188.61,-439.84C1172.82,-431.08 1156.58,-419.23 1146,-404 1106.25,-346.81 1103.9,-259.56 1105,-221.66"/>
<polygon fill="#63b8ff" stroke="#63b8ff" points="1108.5,-221.7 1105.41,-211.57 1101.51,-221.41 1108.5,-221.7"/>
</a>
</g>
</g>
<!-- Node11 -->
<g id="Node000011" class="node">
<title>Node11</title>
<g id="a_Node000011"><a xlink:title=" ">
<polygon fill="#e0e0e0" stroke="#999999" points="2002,-19 1958,-19 1958,0 2002,0 2002,-19"/>
<text text-anchor="middle" x="1980" y="-7" font-family="Helvetica,sans-Serif" font-size="10.00">string</text>
</a>
</g>
</g>
<!-- Node1&#45;&gt;Node11 -->
<g id="edge67_Node000001_Node000011" class="edge">
<title>Node1&#45;&gt;Node11</title>
<g id="a_edge67_Node000001_Node000011"><a xlink:title=" ">
<path fill="none" stroke="#63b8ff" d="M1326.78,-457.3C1582.44,-449.92 2290,-420.74 2290,-324 2290,-324 2290,-324 2290,-135 2290,-75.61 2091.59,-31.56 2012.23,-16.32"/>
<polygon fill="#63b8ff" stroke="#63b8ff" points="2012.77,-12.86 2002.29,-14.44 2011.47,-19.74 2012.77,-12.86"/>
</a>
</g>
</g>
<!-- Node12 -->
<g id="Node000012" class="node">
<title>Node12</title>
<g id="a_Node000012"><a xlink:href="temporal__discretization_8h.html" target="_top" xlink:title=" ">
<polygon fill="white" stroke="#666666" points="1472,-404 1328,-404 1328,-374 1472,-374 1472,-404"/>
<text text-anchor="start" x="1336" y="-392" font-family="Helvetica,sans-Serif" font-size="10.00">prismspf/user_inputs</text>
<text text-anchor="middle" x="1400" y="-381" font-family="Helvetica,sans-Serif" font-size="10.00">/temporal_discretization.h</text>
</a>
</g>
</g>
<!-- Node1&#45;&gt;Node12 -->
<g id="edge15_Node000001_Node000012" class="edge">
<title>Node1&#45;&gt;Node12</title>
<g id="a_edge15_Node000001_Node000012"><a xlink:title=" ">
<path fill="none" stroke="#63b8ff" d="M1282.12,-439.96C1305.85,-429.9 1334.58,-417.73 1357.73,-407.91"/>
<polygon fill="#63b8ff" stroke="#63b8ff" points="1359.11,-411.13 1366.95,-404 1356.38,-404.68 1359.11,-411.13"/>
</a>
</g>
</g>
<!-- Node20 -->
<g id="Node000020" class="node">
<title>Node20</title>
<g id="a_Node000020"><a xlink:title=" ">
<polygon fill="#e0e0e0" stroke="#999999" points="1268,-211.5 1236,-211.5 1236,-192.5 1268,-192.5 1268,-211.5"/>
<text text-anchor="middle" x="1252" y="-199.5" font-family="Helvetica,sans-Serif" font-size="10.00">set</text>
</a>
</g>
</g>
<!-- Node1&#45;&gt;Node20 -->
<g id="edge66_Node000001_Node000020" class="edge">
<title>Node1&#45;&gt;Node20</title>
<g id="a_edge66_Node000001_Node000020"><a xlink:title=" ">
<path fill="none" stroke="#63b8ff" d="M1237.23,-439.8C1240.23,-391.68 1247.9,-268.68 1250.84,-221.66"/>
<polygon fill="#63b8ff" stroke="#63b8ff" points="1254.33,-221.86 1251.46,-211.67 1247.34,-221.43 1254.33,-221.86"/>
</a>
</g>
</g>
<!-- Node21 -->
<g id="Node000021" class="node">
<title>Node21</title>
<g id="a_Node000021"><a xlink:href="utilities_8h.html" target="_top" xlink:title=" ">
<polygon fill="white" stroke="#666666" points="832.5,-217 733.5,-217 733.5,-187 832.5,-187 832.5,-217"/>
<text text-anchor="start" x="741.5" y="-205" font-family="Helvetica,sans-Serif" font-size="10.00">prismspf/utilities</text>
<text text-anchor="middle" x="783" y="-194" font-family="Helvetica,sans-Serif" font-size="10.00">/utilities.h</text>
</a>
</g>
</g>
<!-- Node1&#45;&gt;Node21 -->
<g id="edge47_Node000001_Node000021" class="edge">
<title>Node1&#45;&gt;Node21</title>
<g id="a_edge47_Node000001_Node000021"><a xlink:title=" ">
<path fill="none" stroke="#63b8ff" d="M1195.33,-439.98C1174.18,-429.63 1148,-416.49 1125,-404 1008.72,-340.85 874.33,-259.27 814.52,-222.5"/>
<polygon fill="#63b8ff" stroke="#63b8ff" points="816.26,-219.46 805.91,-217.2 812.59,-225.42 816.26,-219.46"/>
</a>
</g>
</g>
<!-- Node31 -->
<g id="Node000031" class="node">
<title>Node31</title>
<g id="a_Node000031"><a xlink:title=" ">
<polygon fill="#e0e0e0" stroke="#999999" points="2368,-398.5 2318,-398.5 2318,-379.5 2368,-379.5 2368,-398.5"/>
<text text-anchor="middle" x="2343" y="-386.5" font-family="Helvetica,sans-Serif" font-size="10.00">climits</text>
</a>
</g>
</g>
<!-- Node1&#45;&gt;Node31 -->
<g id="edge65_Node000001_Node000031" class="edge">
<title>Node1&#45;&gt;Node31</title>
<g id="a_edge65_Node000001_Node000031"><a xlink:title=" ">
<path fill="none" stroke="#63b8ff" d="M1326.9,-458.19C1549.69,-454.41 2118.22,-441.33 2304,-404 2307.01,-403.4 2310.09,-402.6 2313.15,-401.71"/>
<polygon fill="#63b8ff" stroke="#63b8ff" points="2314.28,-405.02 2322.68,-398.56 2312.08,-398.37 2314.28,-405.02"/>
</a>
</g>
</g>
<!-- Node4 -->
<g id="Node000004" class="node">
<title>Node4</title>
<g id="a_Node000004"><a xlink:title=" ">
<polygon fill="#e0e0e0" stroke="#999999" points="2257,-151 2127,-151 2127,-121 2257,-121 2257,-151"/>
<text text-anchor="start" x="2135" y="-139" font-family="Helvetica,sans-Serif" font-size="10.00">deal.II/base/conditional</text>
<text text-anchor="middle" x="2192" y="-128" font-family="Helvetica,sans-Serif" font-size="10.00">_ostream.h</text>
</a>
</g>
</g>
<!-- Node3&#45;&gt;Node4 -->
<g id="edge3_Node000003_Node000004" class="edge">
<title>Node3&#45;&gt;Node4</title>
<g id="a_edge3_Node000003_Node000004"><a xlink:title=" ">
<path fill="none" stroke="#63b8ff" d="M2192,-186.8C2192,-179.34 2192,-169.99 2192,-161.41"/>
<polygon fill="#63b8ff" stroke="#63b8ff" points="2195.5,-161.16 2192,-151.16 2188.5,-161.16 2195.5,-161.16"/>
</a>
</g>
</g>
<!-- Node3&#45;&gt;Node5 -->
<g id="edge4_Node000003_Node000005" class="edge">
<title>Node3&#45;&gt;Node5</title>
<g id="a_edge4_Node000003_Node000005"><a xlink:title=" ">
<path fill="none" stroke="#63b8ff" d="M2168.83,-186.81C2113.53,-153.23 1974.65,-70.52 1923,-55 1839.89,-30.03 1587.8,-17.34 1470.83,-12.66"/>
<polygon fill="#63b8ff" stroke="#63b8ff" points="1470.74,-9.16 1460.61,-12.26 1470.47,-16.15 1470.74,-9.16"/>
</a>
</g>
</g>
<!-- Node6&#45;&gt;Node2 -->
<g id="edge6_Node000006_Node000002" class="edge">
<title>Node6&#45;&gt;Node2</title>
<g id="a_edge6_Node000006_Node000002"><a xlink:title=" ">
<path fill="none" stroke="#63b8ff" d="M1133.92,-192.37C1170.52,-181.05 1234.84,-161.16 1275.62,-148.56"/>
<polygon fill="#63b8ff" stroke="#63b8ff" points="1276.68,-151.89 1285.2,-145.6 1274.61,-145.21 1276.68,-151.89"/>
</a>
</g>
</g>
<!-- Node6&#45;&gt;Node5 -->
<g id="edge14_Node000006_Node000005" class="edge">
<title>Node6&#45;&gt;Node5</title>
<g id="a_edge14_Node000006_Node000005"><a xlink:title=" ">
<path fill="none" stroke="#63b8ff" d="M1111.52,-192.49C1122.16,-176.65 1146.95,-142.29 1175,-121 1237.86,-73.28 1324.63,-39.16 1373.22,-22.35"/>
<polygon fill="#63b8ff" stroke="#63b8ff" points="1374.65,-25.56 1382.99,-19.02 1372.4,-18.93 1374.65,-25.56"/>
</a>
</g>
</g>
<!-- Node7 -->
<g id="Node000007" class="node">
<title>Node7</title>
<g id="a_Node000007"><a xlink:href="types_8h.html" target="_top" xlink:title=" ">
<polygon fill="white" stroke="#666666" points="1740,-145.5 1618,-145.5 1618,-126.5 1740,-126.5 1740,-145.5"/>
<text text-anchor="middle" x="1679" y="-133.5" font-family="Helvetica,sans-Serif" font-size="10.00">prismspf/core/types.h</text>
</a>
</g>
</g>
<!-- Node6&#45;&gt;Node7 -->
<g id="edge7_Node000006_Node000007" class="edge">
<title>Node6&#45;&gt;Node7</title>
<g id="a_edge7_Node000006_Node000007"><a xlink:title=" ">
<path fill="none" stroke="#63b8ff" d="M1178.61,-192.47C1194.55,-190.63 1211.34,-188.73 1227,-187 1379.8,-170.17 1418.32,-168.88 1571,-151 1582.88,-149.61 1595.49,-148.05 1607.74,-146.49"/>
<polygon fill="#63b8ff" stroke="#63b8ff" points="1608.44,-149.93 1617.92,-145.18 1607.55,-142.99 1608.44,-149.93"/>
</a>
</g>
</g>
<!-- Node7&#45;&gt;Node5 -->
<g id="edge13_Node000007_Node000005" class="edge">
<title>Node7&#45;&gt;Node5</title>
<g id="a_edge13_Node000007_Node000005"><a xlink:title=" ">
<path fill="none" stroke="#63b8ff" d="M1677.77,-126.42C1674.91,-109.81 1666.19,-73.31 1643,-55 1616.84,-34.34 1530.59,-22.02 1470.71,-15.75"/>
<polygon fill="#63b8ff" stroke="#63b8ff" points="1470.9,-12.25 1460.6,-14.72 1470.2,-19.21 1470.9,-12.25"/>
</a>
</g>
</g>
<!-- Node8 -->
<g id="Node000008" class="node">
<title>Node8</title>
<g id="a_Node000008"><a xlink:title=" ">
<polygon fill="#e0e0e0" stroke="#999999" points="1633.5,-85 1524.5,-85 1524.5,-55 1633.5,-55 1633.5,-85"/>
<text text-anchor="start" x="1532.5" y="-73" font-family="Helvetica,sans-Serif" font-size="10.00">deal.II/matrix_free</text>
<text text-anchor="middle" x="1579" y="-62" font-family="Helvetica,sans-Serif" font-size="10.00">/evaluation_flags.h</text>
</a>
</g>
</g>
<!-- Node7&#45;&gt;Node8 -->
<g id="edge8_Node000007_Node000008" class="edge">
<title>Node7&#45;&gt;Node8</title>
<g id="a_edge8_Node000007_Node000008"><a xlink:title=" ">
<path fill="none" stroke="#63b8ff" d="M1665.51,-126.37C1651.25,-117.24 1628.26,-102.53 1609.56,-90.56"/>
<polygon fill="#63b8ff" stroke="#63b8ff" points="1611.37,-87.56 1601.06,-85.12 1607.59,-93.45 1611.37,-87.56"/>
</a>
</g>
</g>
<!-- Node9 -->
<g id="Node000009" class="node">
<title>Node9</title>
<g id="a_Node000009"><a xlink:href="type__enums_8h.html" target="_top" xlink:title=" ">
<polygon fill="white" stroke="#666666" points="1914,-85 1806,-85 1806,-55 1914,-55 1914,-85"/>
<text text-anchor="start" x="1814" y="-73" font-family="Helvetica,sans-Serif" font-size="10.00">prismspf/core/type</text>
<text text-anchor="middle" x="1860" y="-62" font-family="Helvetica,sans-Serif" font-size="10.00">_enums.h</text>
</a>
</g>
</g>
<!-- Node7&#45;&gt;Node9 -->
<g id="edge9_Node000007_Node000009" class="edge">
<title>Node7&#45;&gt;Node9</title>
<g id="a_edge9_Node000007_Node000009"><a xlink:title=" ">
<path fill="none" stroke="#63b8ff" d="M1703.41,-126.37C1730.75,-116.7 1775.79,-100.77 1810.57,-88.48"/>
<polygon fill="#63b8ff" stroke="#63b8ff" points="1811.82,-91.75 1820.08,-85.12 1809.48,-85.15 1811.82,-91.75"/>
</a>
</g>
</g>
<!-- Node9&#45;&gt;Node5 -->
<g id="edge10_Node000009_Node000005" class="edge">
<title>Node9&#45;&gt;Node5</title>
<g id="a_edge10_Node000009_Node000005"><a xlink:title=" ">
<path fill="none" stroke="#63b8ff" d="M1805.94,-58.87C1797.93,-57.5 1789.76,-56.16 1782,-55 1672.64,-38.66 1544.47,-24.4 1470.71,-16.66"/>
<polygon fill="#63b8ff" stroke="#63b8ff" points="1470.98,-13.17 1460.67,-15.61 1470.25,-20.13 1470.98,-13.17"/>
</a>
</g>
</g>
<!-- Node10 -->
<g id="Node000010" class="node">
<title>Node10</title>
<g id="a_Node000010"><a xlink:title=" ">
<polygon fill="#e0e0e0" stroke="#999999" points="1885,-19 1835,-19 1835,0 1885,0 1885,-19"/>
<text text-anchor="middle" x="1860" y="-7" font-family="Helvetica,sans-Serif" font-size="10.00">cstdint</text>
</a>
</g>
</g>
<!-- Node9&#45;&gt;Node10 -->
<g id="edge11_Node000009_Node000010" class="edge">
<title>Node9&#45;&gt;Node10</title>
<g id="a_edge11_Node000009_Node000010"><a xlink:title=" ">
<path fill="none" stroke="#63b8ff" d="M1860,-54.84C1860,-47.21 1860,-37.7 1860,-29.45"/>
<polygon fill="#63b8ff" stroke="#63b8ff" points="1863.5,-29.27 1860,-19.27 1856.5,-29.27 1863.5,-29.27"/>
</a>
</g>
</g>
<!-- Node9&#45;&gt;Node11 -->
<g id="edge12_Node000009_Node000011" class="edge">
<title>Node9&#45;&gt;Node11</title>
<g id="a_edge12_Node000009_Node000011"><a xlink:title=" ">
<path fill="none" stroke="#63b8ff" d="M1888.74,-54.99C1908.32,-45.45 1934.05,-32.9 1953.2,-23.57"/>
<polygon fill="#63b8ff" stroke="#63b8ff" points="1954.82,-26.67 1962.28,-19.14 1951.76,-20.38 1954.82,-26.67"/>
</a>
</g>
</g>
<!-- Node12&#45;&gt;Node3 -->
<g id="edge16_Node000012_Node000003" class="edge">
<title>Node12&#45;&gt;Node3</title>
<g id="a_edge16_Node000012_Node000003"><a xlink:title=" ">
<path fill="none" stroke="#63b8ff" d="M1472.09,-388.33C1604.2,-386.37 1891.41,-370.03 2108,-272 2132.82,-260.76 2156.36,-240.26 2172.17,-224.51"/>
<polygon fill="#63b8ff" stroke="#63b8ff" points="2174.81,-226.82 2179.29,-217.22 2169.8,-221.93 2174.81,-226.82"/>
</a>
</g>
</g>
<!-- Node12&#45;&gt;Node5 -->
<g id="edge46_Node000012_Node000005" class="edge">
<title>Node12&#45;&gt;Node5</title>
<g id="a_edge46_Node000012_Node000005"><a xlink:title=" ">
<path fill="none" stroke="#63b8ff" d="M1327.76,-379.94C1200.19,-362.37 954.62,-311.71 1023,-187 1087.94,-68.58 1257.62,-29.28 1349.23,-16.49"/>
<polygon fill="#63b8ff" stroke="#63b8ff" points="1349.75,-19.95 1359.2,-15.16 1348.82,-13.01 1349.75,-19.95"/>
</a>
</g>
</g>
<!-- Node13 -->
<g id="Node000013" class="node">
<title>Node13</title>
<g id="a_Node000013"><a xlink:href="solve__group_8h.html" target="_top" xlink:title=" ">
<polygon fill="white" stroke="#666666" points="1542.5,-338 1429.5,-338 1429.5,-308 1542.5,-308 1542.5,-338"/>
<text text-anchor="start" x="1437.5" y="-326" font-family="Helvetica,sans-Serif" font-size="10.00">prismspf/core/solve</text>
<text text-anchor="middle" x="1486" y="-315" font-family="Helvetica,sans-Serif" font-size="10.00">_group.h</text>
</a>
</g>
</g>
<!-- Node12&#45;&gt;Node13 -->
<g id="edge17_Node000012_Node000013" class="edge">
<title>Node12&#45;&gt;Node13</title>
<g id="a_edge17_Node000012_Node000013"><a xlink:title=" ">
<path fill="none" stroke="#63b8ff" d="M1419.09,-373.8C1430.78,-365.1 1445.93,-353.82 1458.85,-344.2"/>
<polygon fill="#63b8ff" stroke="#63b8ff" points="1461.03,-346.94 1466.97,-338.16 1456.86,-341.33 1461.03,-346.94"/>
</a>
</g>
</g>
<!-- Node13&#45;&gt;Node2 -->
<g id="edge18_Node000013_Node000002" class="edge">
<title>Node13&#45;&gt;Node2</title>
<g id="a_edge18_Node000013_Node000002"><a xlink:title=" ">
<path fill="none" stroke="#63b8ff" d="M1451.23,-307.84C1433.28,-299.34 1411.89,-287.2 1396,-272 1359.51,-237.09 1332.68,-182.84 1320.41,-154.93"/>
<polygon fill="#63b8ff" stroke="#63b8ff" points="1323.58,-153.44 1316.44,-145.62 1317.15,-156.19 1323.58,-153.44"/>
</a>
</g>
</g>
<!-- Node13&#45;&gt;Node5 -->
<g id="edge42_Node000013_Node000005" class="edge">
<title>Node13&#45;&gt;Node5</title>
<g id="a_edge42_Node000013_Node000005"><a xlink:title=" ">
<path fill="none" stroke="#63b8ff" d="M1469.13,-307.74C1446.74,-287.12 1410,-246.63 1410,-203 1410,-203 1410,-203 1410,-135 1410,-97.49 1410,-53.63 1410,-29.26"/>
<polygon fill="#63b8ff" stroke="#63b8ff" points="1413.5,-29.25 1410,-19.25 1406.5,-29.25 1413.5,-29.25"/>
</a>
</g>
</g>
<!-- Node13&#45;&gt;Node7 -->
<g id="edge41_Node000013_Node000007" class="edge">
<title>Node13&#45;&gt;Node7</title>
<g id="a_edge41_Node000013_Node000007"><a xlink:title=" ">
<path fill="none" stroke="#63b8ff" d="M1542.84,-317.07C1650.44,-306.41 1877.26,-277.18 1923,-217 1931.07,-206.38 1931.43,-197.33 1923,-187 1912,-173.52 1818.34,-157.22 1750.34,-146.98"/>
<polygon fill="#63b8ff" stroke="#63b8ff" points="1750.49,-143.46 1740.08,-145.45 1749.46,-150.39 1750.49,-143.46"/>
</a>
</g>
</g>
<!-- Node13&#45;&gt;Node8 -->
<g id="edge19_Node000013_Node000008" class="edge">
<title>Node13&#45;&gt;Node8</title>
<g id="a_edge19_Node000013_Node000008"><a xlink:title=" ">
<path fill="none" stroke="#63b8ff" d="M1483.59,-307.85C1478.45,-273.2 1469.63,-182.4 1506,-121 1513.5,-108.34 1525.6,-98.16 1537.81,-90.37"/>
<polygon fill="#63b8ff" stroke="#63b8ff" points="1539.85,-93.23 1546.66,-85.12 1536.27,-87.21 1539.85,-93.23"/>
</a>
</g>
</g>
<!-- Node13&#45;&gt;Node9 -->
<g id="edge40_Node000013_Node000009" class="edge">
<title>Node13&#45;&gt;Node9</title>
<g id="a_edge40_Node000013_Node000009"><a xlink:title=" ">
<path fill="none" stroke="#63b8ff" d="M1542.72,-322.04C1616.99,-320.38 1750.17,-311.47 1856,-272 1897.81,-256.4 1918.78,-256.26 1940,-217 1950.56,-197.46 1935.7,-131.81 1929,-121 1921.35,-108.65 1909.43,-98.42 1897.62,-90.5"/>
<polygon fill="#63b8ff" stroke="#63b8ff" points="1899.44,-87.51 1889.11,-85.14 1895.71,-93.43 1899.44,-87.51"/>
</a>
</g>
</g>
<!-- Node13&#45;&gt;Node11 -->
<g id="edge44_Node000013_Node000011" class="edge">
<title>Node13&#45;&gt;Node11</title>
<g id="a_edge44_Node000013_Node000011"><a xlink:title=" ">
<path fill="none" stroke="#63b8ff" d="M1542.65,-322.82C1693.59,-323.49 2094,-314.73 2094,-203 2094,-203 2094,-203 2094,-135 2094,-83.3 2039.86,-43.73 2006.2,-24.13"/>
<polygon fill="#63b8ff" stroke="#63b8ff" points="2007.75,-20.98 1997.31,-19.13 2004.32,-27.08 2007.75,-20.98"/>
</a>
</g>
</g>
<!-- Node14 -->
<g id="Node000014" class="node">
<title>Node14</title>
<g id="a_Node000014"><a xlink:href="dependencies_8h.html" target="_top" xlink:title=" ">
<polygon fill="white" stroke="#666666" points="1715.5,-272 1552.5,-272 1552.5,-253 1715.5,-253 1715.5,-272"/>
<text text-anchor="middle" x="1634" y="-260" font-family="Helvetica,sans-Serif" font-size="10.00">prismspf/core/dependencies.h</text>
</a>
</g>
</g>
<!-- Node13&#45;&gt;Node14 -->
<g id="edge20_Node000013_Node000014" class="edge">
<title>Node13&#45;&gt;Node14</title>
<g id="a_edge20_Node000013_Node000014"><a xlink:title=" ">
<path fill="none" stroke="#63b8ff" d="M1521.45,-307.99C1546.14,-298.23 1578.78,-285.33 1602.55,-275.93"/>
<polygon fill="#63b8ff" stroke="#63b8ff" points="1604.13,-279.07 1612.14,-272.14 1601.56,-272.56 1604.13,-279.07"/>
</a>
</g>
</g>
<!-- Node18 -->
<g id="Node000018" class="node">
<title>Node18</title>
<g id="a_Node000018"><a xlink:title=" ">
<polygon fill="#e0e0e0" stroke="#999999" points="1561.5,-145.5 1514.5,-145.5 1514.5,-126.5 1561.5,-126.5 1561.5,-145.5"/>
<text text-anchor="middle" x="1538" y="-133.5" font-family="Helvetica,sans-Serif" font-size="10.00">vector</text>
</a>
</g>
</g>
<!-- Node13&#45;&gt;Node18 -->
<g id="edge45_Node000013_Node000018" class="edge">
<title>Node13&#45;&gt;Node18</title>
<g id="a_edge45_Node000013_Node000018"><a xlink:title=" ">
<path fill="none" stroke="#63b8ff" d="M1489.99,-307.79C1499.3,-274.67 1522.45,-192.34 1532.82,-155.42"/>
<polygon fill="#63b8ff" stroke="#63b8ff" points="1536.27,-156.1 1535.6,-145.53 1529.53,-154.21 1536.27,-156.1"/>
</a>
</g>
</g>
<!-- Node13&#45;&gt;Node20 -->
<g id="edge43_Node000013_Node000020" class="edge">
<title>Node13&#45;&gt;Node20</title>
<g id="a_edge43_Node000013_Node000020"><a xlink:title=" ">
<path fill="none" stroke="#63b8ff" d="M1429.29,-317.52C1389.44,-311.99 1336.58,-299.62 1298,-272 1279.95,-259.07 1266.95,-236.68 1259.47,-220.92"/>
<polygon fill="#63b8ff" stroke="#63b8ff" points="1262.62,-219.39 1255.35,-211.68 1256.23,-222.24 1262.62,-219.39"/>
</a>
</g>
</g>
<!-- Node14&#45;&gt;Node2 -->
<g id="edge21_Node000014_Node000002" class="edge">
<title>Node14&#45;&gt;Node2</title>
<g id="a_edge21_Node000014_Node000002"><a xlink:title=" ">
<path fill="none" stroke="#63b8ff" d="M1594.35,-252.93C1561.11,-245.2 1512.7,-232.65 1472,-217 1422.03,-197.78 1366.87,-167.94 1336.44,-150.65"/>
<polygon fill="#63b8ff" stroke="#63b8ff" points="1337.88,-147.44 1327.46,-145.51 1334.4,-153.52 1337.88,-147.44"/>
</a>
</g>
</g>
<!-- Node14&#45;&gt;Node3 -->
<g id="edge24_Node000014_Node000003" class="edge">
<title>Node14&#45;&gt;Node3</title>
<g id="a_edge24_Node000014_Node000003"><a xlink:title=" ">
<path fill="none" stroke="#63b8ff" d="M1715.14,-252.99C1821.29,-241.87 2006.16,-222.48 2111.82,-211.41"/>
<polygon fill="#63b8ff" stroke="#63b8ff" points="2112.22,-214.88 2121.8,-210.36 2111.49,-207.92 2112.22,-214.88"/>
</a>
</g>
</g>
<!-- Node14&#45;&gt;Node5 -->
<g id="edge35_Node000014_Node000005" class="edge">
<title>Node14&#45;&gt;Node5</title>
<g id="a_edge35_Node000014_Node000005"><a xlink:title=" ">
<path fill="none" stroke="#63b8ff" d="M1616.41,-252.89C1600.91,-244.83 1578.2,-231.83 1561,-217 1494.01,-159.21 1439.85,-66.33 1419.11,-27.95"/>
<polygon fill="#63b8ff" stroke="#63b8ff" points="1422.15,-26.22 1414.36,-19.03 1415.97,-29.51 1422.15,-26.22"/>
</a>
</g>
</g>
<!-- Node14&#45;&gt;Node7 -->
<g id="edge34_Node000014_Node000007" class="edge">
<title>Node14&#45;&gt;Node7</title>
<g id="a_edge34_Node000014_Node000007"><a xlink:title=" ">
<path fill="none" stroke="#63b8ff" d="M1636.57,-252.7C1640.72,-238.68 1649.32,-210.45 1658,-187 1661.99,-176.24 1666.94,-164.39 1671.03,-154.92"/>
<polygon fill="#63b8ff" stroke="#63b8ff" points="1674.24,-156.32 1675.05,-145.76 1667.83,-153.51 1674.24,-156.32"/>
</a>
</g>
</g>
<!-- Node14&#45;&gt;Node8 -->
<g id="edge23_Node000014_Node000008" class="edge">
<title>Node14&#45;&gt;Node8</title>
<g id="a_edge23_Node000014_Node000008"><a xlink:title=" ">
<path fill="none" stroke="#63b8ff" d="M1631.49,-252.82C1623.47,-225.04 1598.24,-137.65 1585.91,-94.95"/>
<polygon fill="#63b8ff" stroke="#63b8ff" points="1589.21,-93.76 1583.08,-85.12 1582.49,-95.7 1589.21,-93.76"/>
</a>
</g>
</g>
<!-- Node14&#45;&gt;Node9 -->
<g id="edge33_Node000014_Node000009" class="edge">
<title>Node14&#45;&gt;Node9</title>
<g id="a_edge33_Node000014_Node000009"><a xlink:title=" ">
<path fill="none" stroke="#63b8ff" d="M1715.71,-260.37C1791.6,-257.38 1896.72,-247.63 1923,-217 1955.15,-179.53 1911.63,-123.16 1882.48,-92.58"/>
<polygon fill="#63b8ff" stroke="#63b8ff" points="1884.93,-90.08 1875.43,-85.39 1879.93,-94.98 1884.93,-90.08"/>
</a>
</g>
</g>
<!-- Node14&#45;&gt;Node11 -->
<g id="edge38_Node000014_Node000011" class="edge">
<title>Node14&#45;&gt;Node11</title>
<g id="a_edge38_Node000014_Node000011"><a xlink:title=" ">
<path fill="none" stroke="#63b8ff" d="M1715.7,-260.17C1795.86,-257.07 1910.51,-247.3 1942,-217 1994.23,-166.74 1988.25,-69.98 1982.97,-29.27"/>
<polygon fill="#63b8ff" stroke="#63b8ff" points="1986.41,-28.56 1981.52,-19.16 1979.48,-29.55 1986.41,-28.56"/>
</a>
</g>
</g>
<!-- Node15 -->
<g id="Node000015" class="node">
<title>Node15</title>
<g id="a_Node000015"><a xlink:title=" ">
<polygon fill="#e0e0e0" stroke="#999999" points="1914,-211.5 1792,-211.5 1792,-192.5 1914,-192.5 1914,-211.5"/>
<text text-anchor="middle" x="1853" y="-199.5" font-family="Helvetica,sans-Serif" font-size="10.00">deal.II/base/utilities.h</text>
</a>
</g>
</g>
<!-- Node14&#45;&gt;Node15 -->
<g id="edge22_Node000014_Node000015" class="edge">
<title>Node14&#45;&gt;Node15</title>
<g id="a_edge22_Node000014_Node000015"><a xlink:title=" ">
<path fill="none" stroke="#63b8ff" d="M1665.84,-252.99C1704.28,-242.73 1769.03,-225.43 1811.39,-214.12"/>
<polygon fill="#63b8ff" stroke="#63b8ff" points="1812.36,-217.48 1821.12,-211.52 1810.55,-210.72 1812.36,-217.48"/>
</a>
</g>
</g>
<!-- Node16 -->
<g id="Node000016" class="node">
<title>Node16</title>
<g id="a_Node000016"><a xlink:href="field__attributes_8h.html" target="_top" xlink:title=" ">
<polygon fill="white" stroke="#666666" points="1773.5,-217 1666.5,-217 1666.5,-187 1773.5,-187 1773.5,-217"/>
<text text-anchor="start" x="1674.5" y="-205" font-family="Helvetica,sans-Serif" font-size="10.00">prismspf/core/field</text>
<text text-anchor="middle" x="1720" y="-194" font-family="Helvetica,sans-Serif" font-size="10.00">_attributes.h</text>
</a>
</g>
</g>
<!-- Node14&#45;&gt;Node16 -->
<g id="edge25_Node000014_Node000016" class="edge">
<title>Node14&#45;&gt;Node16</title>
<g id="a_edge25_Node000014_Node000016"><a xlink:title=" ">
<path fill="none" stroke="#63b8ff" d="M1646.69,-252.87C1658.25,-245 1675.76,-233.09 1690.77,-222.89"/>
<polygon fill="#63b8ff" stroke="#63b8ff" points="1692.95,-225.63 1699.25,-217.11 1689.01,-219.85 1692.95,-225.63"/>
</a>
</g>
</g>
<!-- Node14&#45;&gt;Node18 -->
<g id="edge39_Node000014_Node000018" class="edge">
<title>Node14&#45;&gt;Node18</title>
<g id="a_edge39_Node000014_Node000018"><a xlink:title=" ">
<path fill="none" stroke="#63b8ff" d="M1622.86,-252.73C1612.55,-244.28 1597.17,-230.76 1586,-217 1570.11,-197.42 1555.79,-172.07 1547.01,-155.21"/>
<polygon fill="#63b8ff" stroke="#63b8ff" points="1549.95,-153.26 1542.3,-145.93 1543.71,-156.43 1549.95,-153.26"/>
</a>
</g>
</g>
<!-- Node19 -->
<g id="Node000019" class="node">
<title>Node19</title>
<g id="a_Node000019"><a xlink:title=" ">
<polygon fill="#e0e0e0" stroke="#999999" points="1226,-145.5 1184,-145.5 1184,-126.5 1226,-126.5 1226,-145.5"/>
<text text-anchor="middle" x="1205" y="-133.5" font-family="Helvetica,sans-Serif" font-size="10.00">array</text>
</a>
</g>
</g>
<!-- Node14&#45;&gt;Node19 -->
<g id="edge36_Node000014_Node000019" class="edge">
<title>Node14&#45;&gt;Node19</title>
<g id="a_edge36_Node000014_Node000019"><a xlink:title=" ">
<path fill="none" stroke="#63b8ff" d="M1571.92,-252.93C1524.54,-245.6 1457.93,-233.59 1401,-217 1324.78,-194.79 1307.89,-182.47 1235,-151 1234.15,-150.63 1233.28,-150.25 1232.41,-149.87"/>
<polygon fill="#63b8ff" stroke="#63b8ff" points="1233.56,-146.55 1223.01,-145.61 1230.67,-152.93 1233.56,-146.55"/>
</a>
</g>
</g>
<!-- Node14&#45;&gt;Node20 -->
<g id="edge37_Node000014_Node000020" class="edge">
<title>Node14&#45;&gt;Node20</title>
<g id="a_edge37_Node000014_Node000020"><a xlink:title=" ">
<path fill="none" stroke="#63b8ff" d="M1564.89,-252.96C1501.14,-244.79 1403.95,-231.58 1320,-217 1306.08,-214.58 1290.66,-211.45 1278.02,-208.75"/>
<polygon fill="#63b8ff" stroke="#63b8ff" points="1278.67,-205.31 1268.16,-206.62 1277.19,-212.16 1278.67,-205.31"/>
</a>
</g>
</g>
<!-- Node16&#45;&gt;Node2 -->
<g id="edge26_Node000016_Node000002" class="edge">
<title>Node16&#45;&gt;Node2</title>
<g id="a_edge26_Node000016_Node000002"><a xlink:title=" ">
<path fill="none" stroke="#63b8ff" d="M1666.37,-192.57C1591.75,-180.83 1456.79,-159.61 1377,-147.06"/>
<polygon fill="#63b8ff" stroke="#63b8ff" points="1377.49,-143.6 1367.07,-145.5 1376.4,-150.51 1377.49,-143.6"/>
</a>
</g>
</g>
<!-- Node16&#45;&gt;Node5 -->
<g id="edge29_Node000016_Node000005" class="edge">
<title>Node16&#45;&gt;Node5</title>
<g id="a_edge29_Node000016_Node000005"><a xlink:title=" ">
<path fill="none" stroke="#63b8ff" d="M1731.94,-186.78C1744.07,-170.52 1759.65,-143.25 1749,-121 1728.8,-78.8 1709.63,-74.27 1667,-55 1604.01,-26.52 1524.75,-16.19 1471.03,-12.48"/>
<polygon fill="#63b8ff" stroke="#63b8ff" points="1471.17,-8.98 1460.97,-11.84 1470.73,-15.97 1471.17,-8.98"/>
</a>
</g>
</g>
<!-- Node16&#45;&gt;Node7 -->
<g id="edge28_Node000016_Node000007" class="edge">
<title>Node16&#45;&gt;Node7</title>
<g id="a_edge28_Node000016_Node000007"><a xlink:title=" ">
<path fill="none" stroke="#63b8ff" d="M1710.9,-186.8C1704.76,-177.21 1696.62,-164.5 1690.1,-154.32"/>
<polygon fill="#63b8ff" stroke="#63b8ff" points="1693.01,-152.38 1684.67,-145.84 1687.11,-156.15 1693.01,-152.38"/>
</a>
</g>
</g>
<!-- Node16&#45;&gt;Node9 -->
<g id="edge27_Node000016_Node000009" class="edge">
<title>Node16&#45;&gt;Node9</title>
<g id="a_edge27_Node000016_Node000009"><a xlink:title=" ">
<path fill="none" stroke="#63b8ff" d="M1767.15,-186.91C1797.34,-176.97 1832.72,-163.28 1843,-151 1855.86,-135.64 1859.71,-112.91 1860.57,-95.6"/>
<polygon fill="#63b8ff" stroke="#63b8ff" points="1864.08,-95.2 1860.77,-85.14 1857.08,-95.07 1864.08,-95.2"/>
</a>
</g>
</g>
<!-- Node16&#45;&gt;Node11 -->
<g id="edge31_Node000016_Node000011" class="edge">
<title>Node16&#45;&gt;Node11</title>
<g id="a_edge31_Node000016_Node000011"><a xlink:title=" ">
<path fill="none" stroke="#63b8ff" d="M1773.5,-189.09C1801.68,-181.19 1835.91,-168.93 1863,-151 1912.7,-118.1 1952.44,-57.88 1970.09,-28.11"/>
<polygon fill="#63b8ff" stroke="#63b8ff" points="1973.23,-29.67 1975.21,-19.27 1967.17,-26.17 1973.23,-29.67"/>
</a>
</g>
</g>
<!-- Node17 -->
<g id="Node000017" class="node">
<title>Node17</title>
<g id="a_Node000017"><a xlink:title=" ">
<polygon fill="#e0e0e0" stroke="#999999" points="1834,-145.5 1796,-145.5 1796,-126.5 1834,-126.5 1834,-145.5"/>
<text text-anchor="middle" x="1815" y="-133.5" font-family="Helvetica,sans-Serif" font-size="10.00">map</text>
</a>
</g>
</g>
<!-- Node16&#45;&gt;Node17 -->
<g id="edge30_Node000016_Node000017" class="edge">
<title>Node16&#45;&gt;Node17</title>
<g id="a_edge30_Node000016_Node000017"><a xlink:title=" ">
<path fill="none" stroke="#63b8ff" d="M1741.08,-186.8C1756.71,-176.27 1777.93,-161.97 1793.63,-151.4"/>
<polygon fill="#63b8ff" stroke="#63b8ff" points="1795.81,-154.15 1802.15,-145.66 1791.9,-148.34 1795.81,-154.15"/>
</a>
</g>
</g>
<!-- Node16&#45;&gt;Node18 -->
<g id="edge32_Node000016_Node000018" class="edge">
<title>Node16&#45;&gt;Node18</title>
<g id="a_edge32_Node000016_Node000018"><a xlink:title=" ">
<path fill="none" stroke="#63b8ff" d="M1680.06,-186.95C1647.53,-175.52 1602.14,-159.55 1571.49,-148.78"/>
<polygon fill="#63b8ff" stroke="#63b8ff" points="1572.29,-145.35 1561.7,-145.33 1569.97,-151.95 1572.29,-145.35"/>
</a>
</g>
</g>
<!-- Node21&#45;&gt;Node2 -->
<g id="edge48_Node000021_Node000002" class="edge">
<title>Node21&#45;&gt;Node2</title>
<g id="a_edge48_Node000021_Node000002"><a xlink:title=" ">
<path fill="none" stroke="#63b8ff" d="M832.63,-196.61C915.99,-189 1089.28,-172.11 1235,-151 1242.66,-149.89 1250.72,-148.59 1258.63,-147.24"/>
<polygon fill="#63b8ff" stroke="#63b8ff" points="1259.29,-150.68 1268.54,-145.52 1258.08,-143.79 1259.29,-150.68"/>
</a>
</g>
</g>
<!-- Node21&#45;&gt;Node5 -->
<g id="edge55_Node000021_Node000005" class="edge">
<title>Node21&#45;&gt;Node5</title>
<g id="a_edge55_Node000021_Node000005"><a xlink:title=" ">
<path fill="none" stroke="#63b8ff" d="M733.24,-201.29C579.94,-201.67 122.49,-198.75 78,-151 68.91,-141.24 70.14,-131.77 78,-121 134.67,-43.34 189.32,-71.72 284,-55 491.36,-18.39 1146.11,-11.88 1349.27,-10.74"/>
<polygon fill="#63b8ff" stroke="#63b8ff" points="1349.47,-14.24 1359.46,-10.69 1349.44,-7.24 1349.47,-14.24"/>
</a>
</g>
</g>
<!-- Node21&#45;&gt;Node8 -->
<g id="edge52_Node000021_Node000008" class="edge">
<title>Node21&#45;&gt;Node8</title>
<g id="a_edge52_Node000021_Node000008"><a xlink:title=" ">
<path fill="none" stroke="#63b8ff" d="M832.64,-196.05C894.54,-189.18 1003.29,-174.84 1094,-151 1131.13,-141.24 1137.7,-130.09 1175,-121 1292.71,-92.33 1433.92,-79.64 1514.39,-74.38"/>
<polygon fill="#63b8ff" stroke="#63b8ff" points="1514.61,-77.87 1524.37,-73.74 1514.17,-70.89 1514.61,-77.87"/>
</a>
</g>
</g>
<!-- Node21&#45;&gt;Node11 -->
<g id="edge57_Node000021_Node000011" class="edge">
<title>Node21&#45;&gt;Node11</title>
<g id="a_edge57_Node000021_Node000011"><a xlink:title=" ">
<path fill="none" stroke="#63b8ff" d="M832.67,-193.42C881.5,-185.32 957.82,-170.89 1022,-151 1055.11,-140.74 1060.64,-130.41 1094,-121 1438.97,-23.68 1537.24,-53.62 1894,-19 1911.76,-17.28 1931.58,-15.32 1947.72,-13.72"/>
<polygon fill="#63b8ff" stroke="#63b8ff" points="1948.12,-17.2 1957.73,-12.72 1947.43,-10.23 1948.12,-17.2"/>
</a>
</g>
</g>
<!-- Node21&#45;&gt;Node19 -->
<g id="edge56_Node000021_Node000019" class="edge">
<title>Node21&#45;&gt;Node19</title>
<g id="a_edge56_Node000021_Node000019"><a xlink:title=" ">
<path fill="none" stroke="#63b8ff" d="M832.53,-194.65C900.28,-185.8 1025.6,-168.81 1132,-151 1145.86,-148.68 1161.14,-145.8 1174.12,-143.26"/>
<polygon fill="#63b8ff" stroke="#63b8ff" points="1174.83,-146.68 1183.96,-141.31 1173.47,-139.82 1174.83,-146.68"/>
</a>
</g>
</g>
<!-- Node22 -->
<g id="Node000022" class="node">
<title>Node22</title>
<g id="a_Node000022"><a xlink:title=" ">
<polygon fill="#e0e0e0" stroke="#999999" points="326,-145.5 216,-145.5 216,-126.5 326,-126.5 326,-145.5"/>
<text text-anchor="middle" x="271" y="-133.5" font-family="Helvetica,sans-Serif" font-size="10.00">deal.II/base/point.h</text>
</a>
</g>
</g>
<!-- Node21&#45;&gt;Node22 -->
<g id="edge49_Node000021_Node000022" class="edge">
<title>Node21&#45;&gt;Node22</title>
<g id="a_edge49_Node000021_Node000022"><a xlink:title=" ">
<path fill="none" stroke="#63b8ff" d="M733.38,-197.16C650.5,-190.37 478.82,-174.69 335,-151 329.1,-150.03 322.93,-148.87 316.85,-147.63"/>
<polygon fill="#63b8ff" stroke="#63b8ff" points="317.26,-144.14 306.75,-145.51 315.82,-150.99 317.26,-144.14"/>
</a>
</g>
</g>
<!-- Node23 -->
<g id="Node000023" class="node">
<title>Node23</title>
<g id="a_Node000023"><a xlink:title=" ">
<polygon fill="#e0e0e0" stroke="#999999" points="459.5,-145.5 344.5,-145.5 344.5,-126.5 459.5,-126.5 459.5,-145.5"/>
<text text-anchor="middle" x="402" y="-133.5" font-family="Helvetica,sans-Serif" font-size="10.00">deal.II/base/tensor.h</text>
</a>
</g>
</g>
<!-- Node21&#45;&gt;Node23 -->
<g id="edge50_Node000021_Node000023" class="edge">
<title>Node21&#45;&gt;Node23</title>
<g id="a_edge50_Node000021_Node000023"><a xlink:title=" ">
<path fill="none" stroke="#63b8ff" d="M733.38,-193.85C671.39,-184.75 562.11,-168.13 469,-151 463.24,-149.94 457.2,-148.77 451.22,-147.57"/>
<polygon fill="#63b8ff" stroke="#63b8ff" points="451.76,-144.1 441.26,-145.53 450.36,-150.96 451.76,-144.1"/>
</a>
</g>
</g>
<!-- Node24 -->
<g id="Node000024" class="node">
<title>Node24</title>
<g id="a_Node000024"><a xlink:title=" ">
<polygon fill="#e0e0e0" stroke="#999999" points="442.5,-79.5 293.5,-79.5 293.5,-60.5 442.5,-60.5 442.5,-79.5"/>
<text text-anchor="middle" x="368" y="-67.5" font-family="Helvetica,sans-Serif" font-size="10.00">deal.II/base/vectorization.h</text>
</a>
</g>
</g>
<!-- Node21&#45;&gt;Node24 -->
<g id="edge51_Node000021_Node000024" class="edge">
<title>Node21&#45;&gt;Node24</title>
<g id="a_edge51_Node000021_Node000024"><a xlink:title=" ">
<path fill="none" stroke="#63b8ff" d="M733.38,-201.2C582.73,-201.28 138.28,-197.53 95,-151 36.63,-88.24 182.85,-73.8 283.1,-71.02"/>
<polygon fill="#63b8ff" stroke="#63b8ff" points="283.35,-74.51 293.26,-70.77 283.18,-67.51 283.35,-74.51"/>
</a>
</g>
</g>
<!-- Node25 -->
<g id="Node000025" class="node">
<title>Node25</title>
<g id="a_Node000025"><a xlink:title=" ">
<polygon fill="#e0e0e0" stroke="#999999" points="624,-145.5 478,-145.5 478,-126.5 624,-126.5 624,-145.5"/>
<text text-anchor="middle" x="551" y="-133.5" font-family="Helvetica,sans-Serif" font-size="10.00">boost/range/algorithm.hpp</text>
</a>
</g>
</g>
<!-- Node21&#45;&gt;Node25 -->
<g id="edge53_Node000021_Node000025" class="edge">
<title>Node21&#45;&gt;Node25</title>
<g id="a_edge53_Node000021_Node000025"><a xlink:title=" ">
<path fill="none" stroke="#63b8ff" d="M733.23,-187.27C690.97,-175.61 631.08,-159.09 591.66,-148.22"/>
<polygon fill="#63b8ff" stroke="#63b8ff" points="592.42,-144.8 581.85,-145.51 590.56,-151.54 592.42,-144.8"/>
</a>
</g>
</g>
<!-- Node26 -->
<g id="Node000026" class="node">
<title>Node26</title>
<g id="a_Node000026"><a xlink:title=" ">
<polygon fill="#e0e0e0" stroke="#999999" points="922.5,-151 797.5,-151 797.5,-121 922.5,-121 922.5,-151"/>
<text text-anchor="start" x="805.5" y="-139" font-family="Helvetica,sans-Serif" font-size="10.00">boost/range/algorithm</text>
<text text-anchor="middle" x="860" y="-128" font-family="Helvetica,sans-Serif" font-size="10.00">_ext.hpp</text>
</a>
</g>
</g>
<!-- Node21&#45;&gt;Node26 -->
<g id="edge54_Node000021_Node000026" class="edge">
<title>Node21&#45;&gt;Node26</title>
<g id="a_edge54_Node000021_Node000026"><a xlink:title=" ">
<path fill="none" stroke="#63b8ff" d="M800.09,-186.8C810.36,-178.26 823.6,-167.25 835.03,-157.75"/>
<polygon fill="#63b8ff" stroke="#63b8ff" points="837.51,-160.25 842.96,-151.16 833.03,-154.86 837.51,-160.25"/>
</a>
</g>
</g>
<!-- Node27 -->
<g id="Node000027" class="node">
<title>Node27</title>
<g id="a_Node000027"><a xlink:title=" ">
<polygon fill="#e0e0e0" stroke="#999999" points="1013.5,-145.5 940.5,-145.5 940.5,-126.5 1013.5,-126.5 1013.5,-145.5"/>
<text text-anchor="middle" x="977" y="-133.5" font-family="Helvetica,sans-Serif" font-size="10.00">string_view</text>
</a>
</g>
</g>
<!-- Node21&#45;&gt;Node27 -->
<g id="edge58_Node000021_Node000027" class="edge">
<title>Node21&#45;&gt;Node27</title>
<g id="a_edge58_Node000021_Node000027"><a xlink:title=" ">
<path fill="none" stroke="#63b8ff" d="M825.57,-186.95C860.35,-175.48 908.91,-159.46 941.59,-148.68"/>
<polygon fill="#63b8ff" stroke="#63b8ff" points="942.78,-151.97 951.18,-145.52 940.59,-145.33 942.78,-151.97"/>
</a>
</g>
</g>
<!-- Node28 -->
<g id="Node000028" class="node">
<title>Node28</title>
<g id="a_Node000028"><a xlink:title=" ">
<polygon fill="#e0e0e0" stroke="#999999" points="197.5,-145.5 104.5,-145.5 104.5,-126.5 197.5,-126.5 197.5,-145.5"/>
<text text-anchor="middle" x="151" y="-133.5" font-family="Helvetica,sans-Serif" font-size="10.00">unordered_map</text>
</a>
</g>
</g>
<!-- Node21&#45;&gt;Node28 -->
<g id="edge59_Node000021_Node000028" class="edge">
<title>Node21&#45;&gt;Node28</title>
<g id="a_edge59_Node000021_Node000028"><a xlink:title=" ">
<path fill="none" stroke="#63b8ff" d="M733.36,-199.34C633.2,-195.4 400.05,-183.3 207,-151 201.88,-150.14 196.54,-149.06 191.28,-147.88"/>
<polygon fill="#63b8ff" stroke="#63b8ff" points="191.87,-144.42 181.33,-145.51 190.25,-151.23 191.87,-144.42"/>
</a>
</g>
</g>
<!-- Node29 -->
<g id="Node000029" class="node">
<title>Node29</title>
<g id="a_Node000029"><a xlink:href="vectorized__operations_8h.html" target="_top" xlink:title=" ">
<polygon fill="white" stroke="#666666" points="779.5,-151 642.5,-151 642.5,-121 779.5,-121 779.5,-151"/>
<text text-anchor="start" x="650.5" y="-139" font-family="Helvetica,sans-Serif" font-size="10.00">prismspf/utilities</text>
<text text-anchor="middle" x="711" y="-128" font-family="Helvetica,sans-Serif" font-size="10.00">/vectorized_operations.h</text>
</a>
</g>
</g>
<!-- Node21&#45;&gt;Node29 -->
<g id="edge60_Node000021_Node000029" class="edge">
<title>Node21&#45;&gt;Node29</title>
<g id="a_edge60_Node000021_Node000029"><a xlink:title=" ">
<path fill="none" stroke="#63b8ff" d="M767.02,-186.8C757.51,-178.34 745.27,-167.46 734.66,-158.03"/>
<polygon fill="#63b8ff" stroke="#63b8ff" points="736.73,-155.19 726.93,-151.16 732.08,-160.42 736.73,-155.19"/>
</a>
</g>
</g>
<!-- Node29&#45;&gt;Node5 -->
<g id="edge62_Node000029_Node000005" class="edge">
<title>Node29&#45;&gt;Node5</title>
<g id="a_edge62_Node000029_Node000005"><a xlink:title=" ">
<path fill="none" stroke="#63b8ff" d="M758.37,-120.97C819.97,-103.21 931.14,-72.78 1028,-55 1140.43,-34.36 1273.32,-21.42 1349.03,-15.12"/>
<polygon fill="#63b8ff" stroke="#63b8ff" points="1349.64,-18.58 1359.32,-14.27 1349.07,-11.6 1349.64,-18.58"/>
</a>
</g>
</g>
<!-- Node29&#45;&gt;Node24 -->
<g id="edge61_Node000029_Node000024" class="edge">
<title>Node29&#45;&gt;Node24</title>
<g id="a_edge61_Node000029_Node000024"><a xlink:title=" ">
<path fill="none" stroke="#63b8ff" d="M642.41,-122.2C578.19,-110.22 483.42,-92.54 423.73,-81.4"/>
<polygon fill="#63b8ff" stroke="#63b8ff" points="424.21,-77.93 413.74,-79.53 422.93,-84.81 424.21,-77.93"/>
</a>
</g>
</g>
<!-- Node30 -->
<g id="Node000030" class="node">
<title>Node30</title>
<g id="a_Node000030"><a xlink:title=" ">
<polygon fill="#e0e0e0" stroke="#999999" points="734.5,-79.5 687.5,-79.5 687.5,-60.5 734.5,-60.5 734.5,-79.5"/>
<text text-anchor="middle" x="711" y="-67.5" font-family="Helvetica,sans-Serif" font-size="10.00">cmath</text>
</a>
</g>
</g>
<!-- Node29&#45;&gt;Node30 -->
<g id="edge63_Node000029_Node000030" class="edge">
<title>Node29&#45;&gt;Node30</title>
<g id="a_edge63_Node000029_Node000030"><a xlink:title=" ">
<path fill="none" stroke="#63b8ff" d="M711,-120.8C711,-111.7 711,-99.79 711,-89.9"/>
<polygon fill="#63b8ff" stroke="#63b8ff" points="714.5,-89.84 711,-79.84 707.5,-89.84 714.5,-89.84"/>
</a>
</g>
</g>
</g>
</svg>
