<?xml version="1.0" encoding="UTF-8" standalone="no"?>
<!DOCTYPE svg PUBLIC "-//W3C//DTD SVG 1.1//EN"
 "http://www.w3.org/Graphics/SVG/1.1/DTD/svg11.dtd">
<!-- Generated by graphviz version 12.2.1 (20241206.2353)
 -->
<!-- Title: include/prismspf/user_inputs/output_parameters.h Pages: 1 -->
<svg width="1226pt" height="654pt"
 viewBox="0.00 0.00 1226.12 654.25" xmlns="http://www.w3.org/2000/svg" xmlns:xlink="http://www.w3.org/1999/xlink">
<g id="graph0" class="graph" transform="scale(1 1) rotate(0) translate(4 650.25)">
<title>include/prismspf/user_inputs/output_parameters.h</title>
<!-- Node1 -->
<g id="Node000001" class="node">
<title>Node1</title>
<g id="a_Node000001"><a xlink:title=" ">
<polygon fill="#999999" stroke="#666666" points="224.62,-646.25 68.38,-646.25 68.38,-612.75 224.62,-612.75 224.62,-646.25"/>
<text text-anchor="start" x="76.38" y="-632.75" font-family="Helvetica,sans-Serif" font-size="10.00">include/prismspf/user</text>
<text text-anchor="middle" x="146.5" y="-620" font-family="Helvetica,sans-Serif" font-size="10.00">_inputs/output_parameters.h</text>
</a>
</g>
</g>
<!-- Node2 -->
<g id="Node000002" class="node">
<title>Node2</title>
<g id="a_Node000002"><a xlink:href="solution__output_8h.html" target="_top" xlink:title=" ">
<polygon fill="white" stroke="#666666" points="121,-368.25 0,-368.25 0,-334.75 121,-334.75 121,-368.25"/>
<text text-anchor="start" x="8" y="-354.75" font-family="Helvetica,sans-Serif" font-size="10.00">include/prismspf/core</text>
<text text-anchor="middle" x="60.5" y="-342" font-family="Helvetica,sans-Serif" font-size="10.00">/solution_output.h</text>
</a>
</g>
</g>
<!-- Node1&#45;&gt;Node2 -->
<g id="edge1_Node000001_Node000002" class="edge">
<title>Node1&#45;&gt;Node2</title>
<g id="a_edge1_Node000001_Node000002"><a xlink:title=" ">
<path fill="none" stroke="#63b8ff" d="M129.6,-603.08C107.24,-567.77 68.96,-501.04 54.5,-437.75 49.11,-414.17 53.02,-386.06 56.57,-368.74"/>
<polygon fill="#63b8ff" stroke="#63b8ff" points="126.55,-604.8 134.9,-611.32 132.43,-601.01 126.55,-604.8"/>
</a>
</g>
</g>
<!-- Node5 -->
<g id="Node000005" class="node">
<title>Node5</title>
<g id="a_Node000005"><a xlink:href="user__input__parameters_8h.html" target="_top" xlink:title=" ">
<polygon fill="white" stroke="#666666" points="408.38,-576.75 232.62,-576.75 232.62,-543.25 408.38,-543.25 408.38,-576.75"/>
<text text-anchor="start" x="240.62" y="-563.25" font-family="Helvetica,sans-Serif" font-size="10.00">include/prismspf/user</text>
<text text-anchor="middle" x="320.5" y="-550.5" font-family="Helvetica,sans-Serif" font-size="10.00">_inputs/user_input_parameters.h</text>
</a>
</g>
</g>
<!-- Node1&#45;&gt;Node5 -->
<g id="edge5_Node000001_Node000005" class="edge">
<title>Node1&#45;&gt;Node5</title>
<g id="a_edge5_Node000001_Node000005"><a xlink:title=" ">
<path fill="none" stroke="#63b8ff" d="M198.83,-608.2C224.44,-598.26 254.85,-586.47 278.86,-577.15"/>
<polygon fill="#63b8ff" stroke="#63b8ff" points="197.65,-604.9 189.59,-611.78 200.18,-611.43 197.65,-604.9"/>
</a>
</g>
</g>
<!-- Node2&#45;&gt;Node2 -->
<g id="edge2_Node000002_Node000002" class="edge">
<title>Node2&#45;&gt;Node2</title>
<g id="a_edge2_Node000002_Node000002"><a xlink:title=" ">
<path fill="none" stroke="#63b8ff" d="M132.22,-360.45C136.46,-358.31 139,-355.33 139,-351.5 139,-345.05 131.79,-341 121.39,-339.33"/>
<polygon fill="#63b8ff" stroke="#63b8ff" points="131.43,-357.04 122.84,-363.23 133.42,-363.75 131.43,-357.04"/>
</a>
</g>
</g>
<!-- Node3 -->
<g id="Node000003" class="node">
<title>Node3</title>
<g id="a_Node000003"><a xlink:href="problem_8cc.html" target="_top" xlink:title=" ">
<polygon fill="white" stroke="#666666" points="622.12,-20.75 510.88,-20.75 510.88,0 622.12,0 622.12,-20.75"/>
<text text-anchor="middle" x="566.5" y="-7.25" font-family="Helvetica,sans-Serif" font-size="10.00">src/core/problem.cc</text>
</a>
</g>
</g>
<!-- Node2&#45;&gt;Node3 -->
<g id="edge3_Node000002_Node000003" class="edge">
<title>Node2&#45;&gt;Node3</title>
<g id="a_edge3_Node000002_Node000003"><a xlink:title=" ">
<path fill="none" stroke="#63b8ff" d="M60.5,-322.98C60.5,-295.32 60.5,-251.45 60.5,-213.5 60.5,-213.5 60.5,-213.5 60.5,-142 60.5,-49.91 378.67,-21.73 510.42,-14.01"/>
<polygon fill="#63b8ff" stroke="#63b8ff" points="57,-322.96 60.5,-332.96 64,-322.96 57,-322.96"/>
</a>
</g>
</g>
<!-- Node4 -->
<g id="Node000004" class="node">
<title>Node4</title>
<g id="a_Node000004"><a xlink:href="solution__output_8cc.html" target="_top" xlink:title=" ">
<polygon fill="white" stroke="#666666" points="234.75,-292.38 88.25,-292.38 88.25,-271.62 234.75,-271.62 234.75,-292.38"/>
<text text-anchor="middle" x="161.5" y="-278.88" font-family="Helvetica,sans-Serif" font-size="10.00">src/core/solution_output.cc</text>
</a>
</g>
</g>
<!-- Node2&#45;&gt;Node4 -->
<g id="edge4_Node000002_Node000004" class="edge">
<title>Node2&#45;&gt;Node4</title>
<g id="a_edge4_Node000002_Node000004"><a xlink:title=" ">
<path fill="none" stroke="#63b8ff" d="M94.23,-327.96C112.11,-316.01 133.15,-301.94 146.88,-292.77"/>
<polygon fill="#63b8ff" stroke="#63b8ff" points="92.32,-325.02 85.95,-333.49 96.21,-330.84 92.32,-325.02"/>
</a>
</g>
</g>
<!-- Node5&#45;&gt;Node2 -->
<g id="edge39_Node000005_Node000002" class="edge">
<title>Node5&#45;&gt;Node2</title>
<g id="a_edge39_Node000005_Node000002"><a xlink:title=" ">
<path fill="none" stroke="#63b8ff" d="M227.29,-539.59C171.41,-522.7 104.59,-492.05 69.5,-437.75 56.01,-416.88 56.29,-386.96 58.12,-368.68"/>
<polygon fill="#63b8ff" stroke="#63b8ff" points="226.27,-542.94 236.85,-542.37 228.22,-536.22 226.27,-542.94"/>
</a>
</g>
</g>
<!-- Node5&#45;&gt;Node3 -->
<g id="edge46_Node000005_Node000003" class="edge">
<title>Node5&#45;&gt;Node3</title>
<g id="a_edge46_Node000005_Node000003"><a xlink:title=" ">
<path fill="none" stroke="#63b8ff" d="M419.96,-558.34C519.39,-555.5 663.04,-544.77 702.5,-507.25 735.94,-475.45 731.92,-447.37 715.5,-404.25 693.15,-345.56 659.53,-348.73 621.5,-298.75 594.2,-262.87 566.5,-258.59 566.5,-213.5 566.5,-213.5 566.5,-213.5 566.5,-142 566.5,-96.87 566.5,-42.97 566.5,-21.21"/>
<polygon fill="#63b8ff" stroke="#63b8ff" points="420.09,-554.84 410.18,-558.6 420.27,-561.83 420.09,-554.84"/>
</a>
</g>
</g>
<!-- Node6 -->
<g id="Node000006" class="node">
<title>Node6</title>
<g id="a_Node000006"><a xlink:href="pde__operator__base_8h.html" target="_top" xlink:title=" ">
<polygon fill="white" stroke="#666666" points="693,-507.25 572,-507.25 572,-473.75 693,-473.75 693,-507.25"/>
<text text-anchor="start" x="580" y="-493.75" font-family="Helvetica,sans-Serif" font-size="10.00">include/prismspf/core</text>
<text text-anchor="middle" x="632.5" y="-481" font-family="Helvetica,sans-Serif" font-size="10.00">/pde_operator_base.h</text>
</a>
</g>
</g>
<!-- Node5&#45;&gt;Node6 -->
<g id="edge6_Node000005_Node000006" class="edge">
<title>Node5&#45;&gt;Node6</title>
<g id="a_edge6_Node000005_Node000006"><a xlink:title=" ">
<path fill="none" stroke="#63b8ff" d="M409.15,-540.45C455.22,-530.72 512.43,-518.52 563.5,-507.25 566.14,-506.67 568.84,-506.07 571.56,-505.46"/>
<polygon fill="#63b8ff" stroke="#63b8ff" points="408.53,-537 399.47,-542.49 409.98,-543.85 408.53,-537"/>
</a>
</g>
</g>
<!-- Node14 -->
<g id="Node000014" class="node">
<title>Node14</title>
<g id="a_Node000014"><a xlink:href="solve__context_8h.html" target="_top" xlink:title=" ">
<polygon fill="white" stroke="#666666" points="406.12,-437.75 270.88,-437.75 270.88,-404.25 406.12,-404.25 406.12,-437.75"/>
<text text-anchor="start" x="278.88" y="-424.25" font-family="Helvetica,sans-Serif" font-size="10.00">include/prismspf/solvers</text>
<text text-anchor="middle" x="338.5" y="-411.5" font-family="Helvetica,sans-Serif" font-size="10.00">/solve_context.h</text>
</a>
</g>
</g>
<!-- Node5&#45;&gt;Node14 -->
<g id="edge41_Node000005_Node000014" class="edge">
<title>Node5&#45;&gt;Node14</title>
<g id="a_edge41_Node000005_Node000014"><a xlink:title=" ">
<path fill="none" stroke="#63b8ff" d="M306.27,-532.46C299.05,-515.47 293.03,-493.08 299.5,-473.75 304,-460.31 313.52,-447.56 322.02,-438.08"/>
<polygon fill="#63b8ff" stroke="#63b8ff" points="303.04,-533.8 310.44,-541.38 309.38,-530.84 303.04,-533.8"/>
</a>
</g>
</g>
<!-- Node17 -->
<g id="Node000017" class="node">
<title>Node17</title>
<g id="a_Node000017"><a xlink:href="nucleation__manager_8h.html" target="_top" xlink:title=" ">
<polygon fill="white" stroke="#666666" points="318,-368.25 167,-368.25 167,-334.75 318,-334.75 318,-368.25"/>
<text text-anchor="start" x="175" y="-354.75" font-family="Helvetica,sans-Serif" font-size="10.00">include/prismspf/nucleation</text>
<text text-anchor="middle" x="242.5" y="-342" font-family="Helvetica,sans-Serif" font-size="10.00">/nucleation_manager.h</text>
</a>
</g>
</g>
<!-- Node5&#45;&gt;Node17 -->
<g id="edge40_Node000005_Node000017" class="edge">
<title>Node5&#45;&gt;Node17</title>
<g id="a_edge40_Node000005_Node000017"><a xlink:title=" ">
<path fill="none" stroke="#63b8ff" d="M305.83,-532.82C301.41,-524.69 296.64,-515.66 292.5,-507.25 277.55,-476.91 272.12,-469.86 261.5,-437.75 253.69,-414.14 248.09,-385.79 245.07,-368.47"/>
<polygon fill="#63b8ff" stroke="#63b8ff" points="302.73,-534.45 310.62,-541.53 308.87,-531.08 302.73,-534.45"/>
</a>
</g>
</g>
<!-- Node18 -->
<g id="Node000018" class="node">
<title>Node18</title>
<g id="a_Node000018"><a xlink:href="solver__base_8h.html" target="_top" xlink:title=" ">
<polygon fill="white" stroke="#666666" points="840.12,-368.25 704.88,-368.25 704.88,-334.75 840.12,-334.75 840.12,-368.25"/>
<text text-anchor="start" x="712.88" y="-354.75" font-family="Helvetica,sans-Serif" font-size="10.00">include/prismspf/solvers</text>
<text text-anchor="middle" x="772.5" y="-342" font-family="Helvetica,sans-Serif" font-size="10.00">/solver_base.h</text>
</a>
</g>
</g>
<!-- Node5&#45;&gt;Node18 -->
<g id="edge42_Node000005_Node000018" class="edge">
<title>Node5&#45;&gt;Node18</title>
<g id="a_edge42_Node000005_Node000018"><a xlink:title=" ">
<path fill="none" stroke="#63b8ff" d="M420.12,-553.23C539.17,-545.37 725.31,-529.68 748.5,-507.25 786.61,-470.4 780.59,-399.9 775.55,-368.39"/>
<polygon fill="#63b8ff" stroke="#63b8ff" points="420.08,-549.72 410.33,-553.86 420.54,-556.71 420.08,-549.72"/>
</a>
</g>
</g>
<!-- Node23 -->
<g id="Node000023" class="node">
<title>Node23</title>
<g id="a_Node000023"><a xlink:href="periodic__distance_8h.html" target="_top" xlink:title=" ">
<polygon fill="white" stroke="#666666" points="214.88,-437.75 78.12,-437.75 78.12,-404.25 214.88,-404.25 214.88,-437.75"/>
<text text-anchor="start" x="86.12" y="-424.25" font-family="Helvetica,sans-Serif" font-size="10.00">include/prismspf/utilities</text>
<text text-anchor="middle" x="146.5" y="-411.5" font-family="Helvetica,sans-Serif" font-size="10.00">/periodic_distance.h</text>
</a>
</g>
</g>
<!-- Node5&#45;&gt;Node23 -->
<g id="edge43_Node000005_Node000023" class="edge">
<title>Node5&#45;&gt;Node23</title>
<g id="a_edge43_Node000005_Node000023"><a xlink:title=" ">
<path fill="none" stroke="#63b8ff" d="M276.21,-537.49C260.51,-529 243.12,-518.57 228.5,-507.25 201.38,-486.26 174.75,-456.38 159.51,-438.14"/>
<polygon fill="#63b8ff" stroke="#63b8ff" points="274.42,-540.51 284.9,-542.07 277.69,-534.31 274.42,-540.51"/>
</a>
</g>
</g>
<!-- Node24 -->
<g id="Node000024" class="node">
<title>Node24</title>
<g id="a_Node000024"><a xlink:href="constraint__manager_8cc.html" target="_top" xlink:title=" ">
<polygon fill="white" stroke="#666666" points="414.5,-507.25 308.5,-507.25 308.5,-473.75 414.5,-473.75 414.5,-507.25"/>
<text text-anchor="start" x="316.5" y="-493.75" font-family="Helvetica,sans-Serif" font-size="10.00">src/core/constraint</text>
<text text-anchor="middle" x="361.5" y="-481" font-family="Helvetica,sans-Serif" font-size="10.00">_manager.cc</text>
</a>
</g>
</g>
<!-- Node5&#45;&gt;Node24 -->
<g id="edge45_Node000005_Node000024" class="edge">
<title>Node5&#45;&gt;Node24</title>
<g id="a_edge45_Node000005_Node000024"><a xlink:title=" ">
<path fill="none" stroke="#63b8ff" d="M336.12,-533.28C341.42,-524.57 347.17,-515.1 351.85,-507.38"/>
<polygon fill="#63b8ff" stroke="#63b8ff" points="333.2,-531.35 331,-541.71 339.19,-534.98 333.2,-531.35"/>
</a>
</g>
</g>
<!-- Node25 -->
<g id="Node000025" class="node">
<title>Node25</title>
<g id="a_Node000025"><a xlink:href="user__input__parameters_8cc.html" target="_top" xlink:title=" ">
<polygon fill="white" stroke="#666666" points="554,-507.25 433,-507.25 433,-473.75 554,-473.75 554,-507.25"/>
<text text-anchor="start" x="441" y="-493.75" font-family="Helvetica,sans-Serif" font-size="10.00">src/user_inputs/user</text>
<text text-anchor="middle" x="493.5" y="-481" font-family="Helvetica,sans-Serif" font-size="10.00">_input_parameters.cc</text>
</a>
</g>
</g>
<!-- Node5&#45;&gt;Node25 -->
<g id="edge47_Node000005_Node000025" class="edge">
<title>Node5&#45;&gt;Node25</title>
<g id="a_edge47_Node000005_Node000025"><a xlink:title=" ">
<path fill="none" stroke="#63b8ff" d="M372.53,-538.7C398,-528.76 428.23,-516.97 452.1,-507.65"/>
<polygon fill="#63b8ff" stroke="#63b8ff" points="371.39,-535.39 363.35,-542.28 373.94,-541.91 371.39,-535.39"/>
</a>
</g>
</g>
<!-- Node7 -->
<g id="Node000007" class="node">
<title>Node7</title>
<g id="a_Node000007"><a xlink:href="mf__operator_8h.html" target="_top" xlink:title=" ">
<polygon fill="white" stroke="#666666" points="1018.12,-298.75 882.88,-298.75 882.88,-265.25 1018.12,-265.25 1018.12,-298.75"/>
<text text-anchor="start" x="890.88" y="-285.25" font-family="Helvetica,sans-Serif" font-size="10.00">include/prismspf/solvers</text>
<text text-anchor="middle" x="950.5" y="-272.5" font-family="Helvetica,sans-Serif" font-size="10.00">/mf_operator.h</text>
</a>
</g>
</g>
<!-- Node6&#45;&gt;Node7 -->
<g id="edge7_Node000006_Node000007" class="edge">
<title>Node6&#45;&gt;Node7</title>
<g id="a_edge7_Node000006_Node000007"><a xlink:title=" ">
<path fill="none" stroke="#63b8ff" d="M680.78,-468.51C700.25,-459.61 722.74,-448.75 742.5,-437.75 792.05,-410.17 803.97,-402.05 849.5,-368.25 879.9,-345.68 913.07,-316.79 932.81,-299.1"/>
<polygon fill="#63b8ff" stroke="#63b8ff" points="679.35,-465.32 671.68,-472.63 682.24,-471.7 679.35,-465.32"/>
</a>
</g>
</g>
<!-- Node6&#45;&gt;Node14 -->
<g id="edge18_Node000006_Node000014" class="edge">
<title>Node6&#45;&gt;Node14</title>
<g id="a_edge18_Node000006_Node000014"><a xlink:title=" ">
<path fill="none" stroke="#63b8ff" d="M560.57,-472.99C513.62,-462.21 452.69,-448.22 406.53,-437.62"/>
<polygon fill="#63b8ff" stroke="#63b8ff" points="559.58,-476.35 570.11,-475.18 561.14,-469.53 559.58,-476.35"/>
</a>
</g>
</g>
<!-- Node6&#45;&gt;Node18 -->
<g id="edge36_Node000006_Node000018" class="edge">
<title>Node6&#45;&gt;Node18</title>
<g id="a_edge36_Node000006_Node000018"><a xlink:title=" ">
<path fill="none" stroke="#63b8ff" d="M674.93,-467.77C688.78,-459.49 703.62,-449.25 715.5,-437.75 736.86,-417.06 754.61,-387.09 764.37,-368.75"/>
<polygon fill="#63b8ff" stroke="#63b8ff" points="673.32,-464.65 666.4,-472.68 676.81,-470.72 673.32,-464.65"/>
</a>
</g>
</g>
<!-- Node21 -->
<g id="Node000021" class="node">
<title>Node21</title>
<g id="a_Node000021"><a xlink:href="dirichlet_8cc.html" target="_top" xlink:title=" ">
<polygon fill="white" stroke="#666666" points="534.75,-431.38 424.25,-431.38 424.25,-410.62 534.75,-410.62 534.75,-431.38"/>
<text text-anchor="middle" x="479.5" y="-417.88" font-family="Helvetica,sans-Serif" font-size="10.00">src/core/dirichlet.cc</text>
</a>
</g>
</g>
<!-- Node6&#45;&gt;Node21 -->
<g id="edge37_Node000006_Node000021" class="edge">
<title>Node6&#45;&gt;Node21</title>
<g id="a_edge37_Node000006_Node000021"><a xlink:title=" ">
<path fill="none" stroke="#63b8ff" d="M585.5,-468.76C557.59,-456.45 523.5,-441.41 501.65,-431.77"/>
<polygon fill="#63b8ff" stroke="#63b8ff" points="583.91,-471.89 594.47,-472.72 586.73,-465.48 583.91,-471.89"/>
</a>
</g>
</g>
<!-- Node22 -->
<g id="Node000022" class="node">
<title>Node22</title>
<g id="a_Node000022"><a xlink:href="initial__conditions_8cc.html" target="_top" xlink:title=" ">
<polygon fill="white" stroke="#666666" points="706.5,-431.38 552.5,-431.38 552.5,-410.62 706.5,-410.62 706.5,-431.38"/>
<text text-anchor="middle" x="629.5" y="-417.88" font-family="Helvetica,sans-Serif" font-size="10.00">src/core/initial_conditions.cc</text>
</a>
</g>
</g>
<!-- Node6&#45;&gt;Node22 -->
<g id="edge38_Node000006_Node000022" class="edge">
<title>Node6&#45;&gt;Node22</title>
<g id="a_edge38_Node000006_Node000022"><a xlink:title=" ">
<path fill="none" stroke="#63b8ff" d="M631.28,-462.03C630.8,-451.33 630.29,-439.76 629.94,-431.82"/>
<polygon fill="#63b8ff" stroke="#63b8ff" points="627.78,-462.16 631.72,-471.99 634.77,-461.85 627.78,-462.16"/>
</a>
</g>
</g>
<!-- Node8 -->
<g id="Node000008" class="node">
<title>Node8</title>
<g id="a_Node000008"><a xlink:href="explicit__solver_8h.html" target="_top" xlink:title=" ">
<polygon fill="white" stroke="#666666" points="1218.12,-229.25 1082.88,-229.25 1082.88,-195.75 1218.12,-195.75 1218.12,-229.25"/>
<text text-anchor="start" x="1090.88" y="-215.75" font-family="Helvetica,sans-Serif" font-size="10.00">include/prismspf/solvers</text>
<text text-anchor="middle" x="1150.5" y="-203" font-family="Helvetica,sans-Serif" font-size="10.00">/explicit_solver.h</text>
</a>
</g>
</g>
<!-- Node7&#45;&gt;Node8 -->
<g id="edge8_Node000007_Node000008" class="edge">
<title>Node7&#45;&gt;Node8</title>
<g id="a_edge8_Node000007_Node000008"><a xlink:title=" ">
<path fill="none" stroke="#63b8ff" d="M1009.08,-261.23C1038.84,-251.19 1074.55,-239.13 1102.64,-229.65"/>
<polygon fill="#63b8ff" stroke="#63b8ff" points="1008.19,-257.83 999.84,-264.35 1010.43,-264.47 1008.19,-257.83"/>
</a>
</g>
</g>
<!-- Node11 -->
<g id="Node000011" class="node">
<title>Node11</title>
<g id="a_Node000011"><a xlink:href="linear__solver_8h.html" target="_top" xlink:title=" ">
<polygon fill="white" stroke="#666666" points="826.12,-229.25 690.88,-229.25 690.88,-195.75 826.12,-195.75 826.12,-229.25"/>
<text text-anchor="start" x="698.88" y="-215.75" font-family="Helvetica,sans-Serif" font-size="10.00">include/prismspf/solvers</text>
<text text-anchor="middle" x="758.5" y="-203" font-family="Helvetica,sans-Serif" font-size="10.00">/linear_solver.h</text>
</a>
</g>
</g>
<!-- Node7&#45;&gt;Node11 -->
<g id="edge12_Node000007_Node000011" class="edge">
<title>Node7&#45;&gt;Node11</title>
<g id="a_edge12_Node000007_Node000011"><a xlink:title=" ">
<path fill="none" stroke="#63b8ff" d="M893.89,-261.1C865.39,-251.08 831.29,-239.09 804.45,-229.65"/>
<polygon fill="#63b8ff" stroke="#63b8ff" points="892.49,-264.32 903.08,-264.33 894.81,-257.71 892.49,-264.32"/>
</a>
</g>
</g>
<!-- Node12 -->
<g id="Node000012" class="node">
<title>Node12</title>
<g id="a_Node000012"><a xlink:href="newton__solver_8h.html" target="_top" xlink:title=" ">
<polygon fill="white" stroke="#666666" points="960.12,-159.75 824.88,-159.75 824.88,-126.25 960.12,-126.25 960.12,-159.75"/>
<text text-anchor="start" x="832.88" y="-146.25" font-family="Helvetica,sans-Serif" font-size="10.00">include/prismspf/solvers</text>
<text text-anchor="middle" x="892.5" y="-133.5" font-family="Helvetica,sans-Serif" font-size="10.00">/newton_solver.h</text>
</a>
</g>
</g>
<!-- Node7&#45;&gt;Node12 -->
<g id="edge16_Node000007_Node000012" class="edge">
<title>Node7&#45;&gt;Node12</title>
<g id="a_edge16_Node000007_Node000012"><a xlink:title=" ">
<path fill="none" stroke="#63b8ff" d="M928.33,-256.07C922.1,-247.97 915.84,-238.65 911.5,-229.25 901.01,-206.53 896.15,-177.69 894.02,-160.05"/>
<polygon fill="#63b8ff" stroke="#63b8ff" points="925.55,-258.2 934.57,-263.76 930.99,-253.79 925.55,-258.2"/>
</a>
</g>
</g>
<!-- Node13 -->
<g id="Node000013" class="node">
<title>Node13</title>
<g id="a_Node000013"><a xlink:href="mf__operator_8cc.html" target="_top" xlink:title=" ">
<polygon fill="white" stroke="#666666" points="1064.62,-222.88 920.38,-222.88 920.38,-202.12 1064.62,-202.12 1064.62,-222.88"/>
<text text-anchor="middle" x="992.5" y="-209.38" font-family="Helvetica,sans-Serif" font-size="10.00">src/solvers/mf_operator.cc</text>
</a>
</g>
</g>
<!-- Node7&#45;&gt;Node13 -->
<g id="edge17_Node000007_Node000013" class="edge">
<title>Node7&#45;&gt;Node13</title>
<g id="a_edge17_Node000007_Node000013"><a xlink:title=" ">
<path fill="none" stroke="#63b8ff" d="M966.52,-255.25C973.47,-244.09 981.18,-231.69 986.39,-223.32"/>
<polygon fill="#63b8ff" stroke="#63b8ff" points="963.56,-253.38 961.25,-263.72 969.51,-257.08 963.56,-253.38"/>
</a>
</g>
</g>
<!-- Node9 -->
<g id="Node000009" class="node">
<title>Node9</title>
<g id="a_Node000009"><a xlink:href="solvers_8h.html" target="_top" xlink:title=" ">
<polygon fill="white" stroke="#666666" points="864.12,-90.25 728.88,-90.25 728.88,-56.75 864.12,-56.75 864.12,-90.25"/>
<text text-anchor="start" x="736.88" y="-76.75" font-family="Helvetica,sans-Serif" font-size="10.00">include/prismspf/solvers</text>
<text text-anchor="middle" x="796.5" y="-64" font-family="Helvetica,sans-Serif" font-size="10.00">/solvers.h</text>
</a>
</g>
</g>
<!-- Node8&#45;&gt;Node9 -->
<g id="edge9_Node000008_Node000009" class="edge">
<title>Node8&#45;&gt;Node9</title>
<g id="a_edge9_Node000008_Node000009"><a xlink:title=" ">
<path fill="none" stroke="#63b8ff" d="M1109.57,-190.06C1073.37,-171.63 1018.81,-145.12 969.5,-126.25 933.49,-112.47 892.14,-99.99 858.9,-90.73"/>
<polygon fill="#63b8ff" stroke="#63b8ff" points="1107.88,-193.13 1118.38,-194.58 1111.08,-186.9 1107.88,-193.13"/>
</a>
</g>
</g>
<!-- Node9&#45;&gt;Node3 -->
<g id="edge10_Node000009_Node000003" class="edge">
<title>Node9&#45;&gt;Node3</title>
<g id="a_edge10_Node000009_Node000003"><a xlink:title=" ">
<path fill="none" stroke="#63b8ff" d="M724.37,-53.33C684.19,-42.65 635.85,-29.81 603.34,-21.17"/>
<polygon fill="#63b8ff" stroke="#63b8ff" points="723.44,-56.71 734.01,-55.89 725.24,-49.94 723.44,-56.71"/>
</a>
</g>
</g>
<!-- Node10 -->
<g id="Node000010" class="node">
<title>Node10</title>
<g id="a_Node000010"><a xlink:href="solvers_8cc.html" target="_top" xlink:title=" ">
<polygon fill="white" stroke="#666666" points="856.62,-20.75 736.38,-20.75 736.38,0 856.62,0 856.62,-20.75"/>
<text text-anchor="middle" x="796.5" y="-7.25" font-family="Helvetica,sans-Serif" font-size="10.00">src/solvers/solvers.cc</text>
</a>
</g>
</g>
<!-- Node9&#45;&gt;Node10 -->
<g id="edge11_Node000009_Node000010" class="edge">
<title>Node9&#45;&gt;Node10</title>
<g id="a_edge11_Node000009_Node000010"><a xlink:title=" ">
<path fill="none" stroke="#63b8ff" d="M796.5,-44.94C796.5,-36.46 796.5,-27.67 796.5,-21.22"/>
<polygon fill="#63b8ff" stroke="#63b8ff" points="793,-44.93 796.5,-54.93 800,-44.93 793,-44.93"/>
</a>
</g>
</g>
<!-- Node11&#45;&gt;Node9 -->
<g id="edge15_Node000011_Node000009" class="edge">
<title>Node11&#45;&gt;Node9</title>
<g id="a_edge15_Node000011_Node000009"><a xlink:title=" ">
<path fill="none" stroke="#63b8ff" d="M769.07,-184.79C772.02,-176.81 775.08,-167.99 777.5,-159.75 784.46,-136.03 790.26,-107.96 793.56,-90.69"/>
<polygon fill="#63b8ff" stroke="#63b8ff" points="765.87,-183.36 765.59,-193.95 772.41,-185.85 765.87,-183.36"/>
</a>
</g>
</g>
<!-- Node11&#45;&gt;Node12 -->
<g id="edge13_Node000011_Node000012" class="edge">
<title>Node11&#45;&gt;Node12</title>
<g id="a_edge13_Node000011_Node000012"><a xlink:title=" ">
<path fill="none" stroke="#63b8ff" d="M800.7,-190.24C820.1,-180.47 842.73,-169.07 860.67,-160.04"/>
<polygon fill="#63b8ff" stroke="#63b8ff" points="799.3,-187.03 791.95,-194.65 802.45,-193.28 799.3,-187.03"/>
</a>
</g>
</g>
<!-- Node12&#45;&gt;Node9 -->
<g id="edge14_Node000012_Node000009" class="edge">
<title>Node12&#45;&gt;Node9</title>
<g id="a_edge14_Node000012_Node000009"><a xlink:title=" ">
<path fill="none" stroke="#63b8ff" d="M860.38,-119.41C846.96,-109.98 831.67,-99.23 819.42,-90.62"/>
<polygon fill="#63b8ff" stroke="#63b8ff" points="858.32,-122.24 868.51,-125.13 862.34,-116.52 858.32,-122.24"/>
</a>
</g>
</g>
<!-- Node14&#45;&gt;Node2 -->
<g id="edge23_Node000014_Node000002" class="edge">
<title>Node14&#45;&gt;Node2</title>
<g id="a_edge23_Node000014_Node000002"><a xlink:title=" ">
<path fill="none" stroke="#63b8ff" d="M260.93,-401.17C216.8,-390.45 162.34,-377.23 121.32,-367.27"/>
<polygon fill="#63b8ff" stroke="#63b8ff" points="259.9,-404.52 270.44,-403.47 261.55,-397.71 259.9,-404.52"/>
</a>
</g>
</g>
<!-- Node15 -->
<g id="Node000015" class="node">
<title>Node15</title>
<g id="a_Node000015"><a xlink:href="problem_8h.html" target="_top" xlink:title=" ">
<polygon fill="white" stroke="#666666" points="453,-229.25 332,-229.25 332,-195.75 453,-195.75 453,-229.25"/>
<text text-anchor="start" x="340" y="-215.75" font-family="Helvetica,sans-Serif" font-size="10.00">include/prismspf/core</text>
<text text-anchor="middle" x="392.5" y="-203" font-family="Helvetica,sans-Serif" font-size="10.00">/problem.h</text>
</a>
</g>
</g>
<!-- Node14&#45;&gt;Node15 -->
<g id="edge19_Node000014_Node000015" class="edge">
<title>Node14&#45;&gt;Node15</title>
<g id="a_edge19_Node000014_Node000015"><a xlink:title=" ">
<path fill="none" stroke="#63b8ff" d="M340.73,-392.45C343.86,-361 350.89,-308.35 365.5,-265.25 369.73,-252.77 376.63,-239.62 382.39,-229.7"/>
<polygon fill="#63b8ff" stroke="#63b8ff" points="337.26,-391.99 339.82,-402.27 344.23,-392.64 337.26,-391.99"/>
</a>
</g>
</g>
<!-- Node16 -->
<g id="Node000016" class="node">
<title>Node16</title>
<g id="a_Node000016"><a xlink:href="refinement__manager_8h.html" target="_top" xlink:title=" ">
<polygon fill="white" stroke="#666666" points="504.12,-298.75 374.88,-298.75 374.88,-265.25 504.12,-265.25 504.12,-298.75"/>
<text text-anchor="start" x="382.88" y="-285.25" font-family="Helvetica,sans-Serif" font-size="10.00">include/prismspf/core</text>
<text text-anchor="middle" x="439.5" y="-272.5" font-family="Helvetica,sans-Serif" font-size="10.00">/refinement_manager.h</text>
</a>
</g>
</g>
<!-- Node14&#45;&gt;Node16 -->
<g id="edge21_Node000014_Node000016" class="edge">
<title>Node14&#45;&gt;Node16</title>
<g id="a_edge21_Node000014_Node000016"><a xlink:title=" ">
<path fill="none" stroke="#63b8ff" d="M357.04,-394.86C377.68,-366.85 410.43,-322.44 427.79,-298.88"/>
<polygon fill="#63b8ff" stroke="#63b8ff" points="354.3,-392.67 351.18,-402.8 359.93,-396.83 354.3,-392.67"/>
</a>
</g>
</g>
<!-- Node14&#45;&gt;Node17 -->
<g id="edge24_Node000014_Node000017" class="edge">
<title>Node14&#45;&gt;Node17</title>
<g id="a_edge24_Node000014_Node000017"><a xlink:title=" ">
<path fill="none" stroke="#63b8ff" d="M306.38,-397.41C292.96,-387.98 277.67,-377.23 265.42,-368.62"/>
<polygon fill="#63b8ff" stroke="#63b8ff" points="304.32,-400.24 314.51,-403.13 308.34,-394.52 304.32,-400.24"/>
</a>
</g>
</g>
<!-- Node14&#45;&gt;Node18 -->
<g id="edge26_Node000014_Node000018" class="edge">
<title>Node14&#45;&gt;Node18</title>
<g id="a_edge26_Node000014_Node000018"><a xlink:title=" ">
<path fill="none" stroke="#63b8ff" d="M417.71,-403.92C523.69,-385.65 635.04,-370.29 704.54,-361.16"/>
<polygon fill="#63b8ff" stroke="#63b8ff" points="417.22,-400.45 407.97,-405.61 418.42,-407.35 417.22,-400.45"/>
</a>
</g>
</g>
<!-- Node15&#45;&gt;Node3 -->
<g id="edge20_Node000015_Node000003" class="edge">
<title>Node15&#45;&gt;Node3</title>
<g id="a_edge20_Node000015_Node000003"><a xlink:title=" ">
<path fill="none" stroke="#63b8ff" d="M413.8,-187C452.38,-142.63 532.23,-50.79 558.17,-20.96"/>
<polygon fill="#63b8ff" stroke="#63b8ff" points="411.36,-184.48 407.44,-194.32 416.64,-189.07 411.36,-184.48"/>
</a>
</g>
</g>
<!-- Node16&#45;&gt;Node15 -->
<g id="edge22_Node000016_Node000015" class="edge">
<title>Node16&#45;&gt;Node15</title>
<g id="a_edge22_Node000016_Node000015"><a xlink:title=" ">
<path fill="none" stroke="#63b8ff" d="M421.79,-255.56C415.67,-246.77 408.99,-237.18 403.56,-229.38"/>
<polygon fill="#63b8ff" stroke="#63b8ff" points="418.91,-257.55 427.5,-263.76 424.65,-253.55 418.91,-257.55"/>
</a>
</g>
</g>
<!-- Node17&#45;&gt;Node15 -->
<g id="edge25_Node000017_Node000015" class="edge">
<title>Node17&#45;&gt;Node15</title>
<g id="a_edge25_Node000017_Node000015"><a xlink:title=" ">
<path fill="none" stroke="#63b8ff" d="M267.06,-326.64C284.99,-309.37 310,-285.59 332.5,-265.25 345.97,-253.07 361.5,-239.7 373.39,-229.59"/>
<polygon fill="#63b8ff" stroke="#63b8ff" points="264.72,-324.04 259.96,-333.5 269.58,-329.07 264.72,-324.04"/>
</a>
</g>
</g>
<!-- Node18&#45;&gt;Node3 -->
<g id="edge34_Node000018_Node000003" class="edge">
<title>Node18&#45;&gt;Node3</title>
<g id="a_edge34_Node000018_Node000003"><a xlink:title=" ">
<path fill="none" stroke="#63b8ff" d="M713.48,-330.07C665.08,-309.13 604.5,-271.35 604.5,-213.5 604.5,-213.5 604.5,-213.5 604.5,-142 604.5,-95 581.54,-42.14 571.31,-20.93"/>
<polygon fill="#63b8ff" stroke="#63b8ff" points="711.93,-333.22 722.51,-333.83 714.62,-326.76 711.93,-333.22"/>
</a>
</g>
</g>
<!-- Node18&#45;&gt;Node7 -->
<g id="edge32_Node000018_Node000007" class="edge">
<title>Node18&#45;&gt;Node7</title>
<g id="a_edge32_Node000018_Node000007"><a xlink:title=" ">
<path fill="none" stroke="#63b8ff" d="M825.68,-330.33C851.96,-320.37 883.23,-308.51 907.9,-299.15"/>
<polygon fill="#63b8ff" stroke="#63b8ff" points="824.66,-326.98 816.55,-333.8 827.14,-333.52 824.66,-326.98"/>
</a>
</g>
</g>
<!-- Node18&#45;&gt;Node8 -->
<g id="edge30_Node000018_Node000008" class="edge">
<title>Node18&#45;&gt;Node8</title>
<g id="a_edge30_Node000018_Node000008"><a xlink:title=" ">
<path fill="none" stroke="#63b8ff" d="M851.59,-342.83C903.24,-335.82 971.27,-322.73 1027.5,-298.75 1068.37,-281.32 1109.52,-249.14 1132.34,-229.69"/>
<polygon fill="#63b8ff" stroke="#63b8ff" points="851.46,-339.32 842,-344.08 852.36,-346.26 851.46,-339.32"/>
</a>
</g>
</g>
<!-- Node18&#45;&gt;Node11 -->
<g id="edge31_Node000018_Node000011" class="edge">
<title>Node18&#45;&gt;Node11</title>
<g id="a_edge31_Node000018_Node000011"><a xlink:title=" ">
<path fill="none" stroke="#63b8ff" d="M788.41,-324.6C796.8,-307.62 804.11,-284.99 797.5,-265.25 793,-251.81 783.48,-239.06 774.98,-229.58"/>
<polygon fill="#63b8ff" stroke="#63b8ff" points="785.53,-322.56 783.88,-333.03 791.69,-325.88 785.53,-322.56"/>
</a>
</g>
</g>
<!-- Node18&#45;&gt;Node12 -->
<g id="edge33_Node000018_Node000012" class="edge">
<title>Node18&#45;&gt;Node12</title>
<g id="a_edge33_Node000018_Node000012"><a xlink:title=" ">
<path fill="none" stroke="#63b8ff" d="M793.29,-325.49C799.78,-317.21 806.73,-307.79 812.5,-298.75 843.39,-250.3 872.5,-188.52 885.45,-159.89"/>
<polygon fill="#63b8ff" stroke="#63b8ff" points="790.72,-323.1 787.21,-333.1 796.19,-327.47 790.72,-323.1"/>
</a>
</g>
</g>
<!-- Node18&#45;&gt;Node16 -->
<g id="edge27_Node000018_Node000016" class="edge">
<title>Node18&#45;&gt;Node16</title>
<g id="a_edge27_Node000018_Node000016"><a xlink:title=" ">
<path fill="none" stroke="#63b8ff" d="M693.44,-334.47C635.73,-322.78 558.46,-307.11 504.36,-296.15"/>
<polygon fill="#63b8ff" stroke="#63b8ff" points="692.73,-337.9 703.23,-336.46 694.12,-331.04 692.73,-337.9"/>
</a>
</g>
</g>
<!-- Node19 -->
<g id="Node000019" class="node">
<title>Node19</title>
<g id="a_Node000019"><a xlink:href="constant__solver_8h.html" target="_top" xlink:title=" ">
<polygon fill="white" stroke="#666666" points="768.12,-159.75 632.88,-159.75 632.88,-126.25 768.12,-126.25 768.12,-159.75"/>
<text text-anchor="start" x="640.88" y="-146.25" font-family="Helvetica,sans-Serif" font-size="10.00">include/prismspf/solvers</text>
<text text-anchor="middle" x="700.5" y="-133.5" font-family="Helvetica,sans-Serif" font-size="10.00">/constant_solver.h</text>
</a>
</g>
</g>
<!-- Node18&#45;&gt;Node19 -->
<g id="edge28_Node000018_Node000019" class="edge">
<title>Node18&#45;&gt;Node19</title>
<g id="a_edge28_Node000018_Node000019"><a xlink:title=" ">
<path fill="none" stroke="#63b8ff" d="M710.26,-328.98C697.23,-321.49 685.14,-311.62 677.5,-298.75 651.01,-254.15 676.85,-189.96 691.68,-160.24"/>
<polygon fill="#63b8ff" stroke="#63b8ff" points="708.52,-332.02 719.01,-333.56 711.77,-325.82 708.52,-332.02"/>
</a>
</g>
</g>
<!-- Node20 -->
<g id="Node000020" class="node">
<title>Node20</title>
<g id="a_Node000020"><a xlink:href="solver__base_8cc.html" target="_top" xlink:title=" ">
<polygon fill="white" stroke="#666666" points="788.25,-298.75 686.75,-298.75 686.75,-265.25 788.25,-265.25 788.25,-298.75"/>
<text text-anchor="start" x="694.75" y="-285.25" font-family="Helvetica,sans-Serif" font-size="10.00">src/solvers/solver</text>
<text text-anchor="middle" x="737.5" y="-272.5" font-family="Helvetica,sans-Serif" font-size="10.00">_base.cc</text>
</a>
</g>
</g>
<!-- Node18&#45;&gt;Node20 -->
<g id="edge35_Node000018_Node000020" class="edge">
<title>Node18&#45;&gt;Node20</title>
<g id="a_edge35_Node000018_Node000020"><a xlink:title=" ">
<path fill="none" stroke="#63b8ff" d="M759.01,-324.49C754.54,-315.86 749.69,-306.51 745.73,-298.88"/>
<polygon fill="#63b8ff" stroke="#63b8ff" points="755.8,-325.89 763.51,-333.16 762.01,-322.67 755.8,-325.89"/>
</a>
</g>
</g>
<!-- Node19&#45;&gt;Node9 -->
<g id="edge29_Node000019_Node000009" class="edge">
<title>Node19&#45;&gt;Node9</title>
<g id="a_edge29_Node000019_Node000009"><a xlink:title=" ">
<path fill="none" stroke="#63b8ff" d="M732.62,-119.41C746.04,-109.98 761.33,-99.23 773.58,-90.62"/>
<polygon fill="#63b8ff" stroke="#63b8ff" points="730.66,-116.52 724.49,-125.13 734.68,-122.24 730.66,-116.52"/>
</a>
</g>
</g>
<!-- Node23&#45;&gt;Node17 -->
<g id="edge44_Node000023_Node000017" class="edge">
<title>Node23&#45;&gt;Node17</title>
<g id="a_edge44_Node000023_Node000017"><a xlink:title=" ">
<path fill="none" stroke="#63b8ff" d="M178.62,-397.41C192.04,-387.98 207.33,-377.23 219.58,-368.62"/>
<polygon fill="#63b8ff" stroke="#63b8ff" points="176.66,-394.52 170.49,-403.13 180.68,-400.24 176.66,-394.52"/>
</a>
</g>
</g>
</g>
</svg>
