<?xml version="1.0" encoding="UTF-8" standalone="no"?>
<!DOCTYPE svg PUBLIC "-//W3C//DTD SVG 1.1//EN"
 "http://www.w3.org/Graphics/SVG/1.1/DTD/svg11.dtd">
<!-- Generated by graphviz version 12.2.1 (20241206.2353)
 -->
<!-- Title: include/prismspf/user_inputs/parameter_base.h Pages: 1 -->
<svg width="986pt" height="237pt"
 viewBox="0.00 0.00 985.50 237.25" xmlns="http://www.w3.org/2000/svg" xmlns:xlink="http://www.w3.org/1999/xlink">
<g id="graph0" class="graph" transform="scale(1 1) rotate(0) translate(4 233.25)">
<title>include/prismspf/user_inputs/parameter_base.h</title>
<!-- Node1 -->
<g id="Node000001" class="node">
<title>Node1</title>
<g id="a_Node000001"><a xlink:title=" ">
<polygon fill="#999999" stroke="#666666" points="702.5,-229.25 559.75,-229.25 559.75,-195.75 702.5,-195.75 702.5,-229.25"/>
<text text-anchor="start" x="567.75" y="-215.75" font-family="Helvetica,sans-Serif" font-size="10.00">include/prismspf/user</text>
<text text-anchor="middle" x="631.12" y="-203" font-family="Helvetica,sans-Serif" font-size="10.00">_inputs/parameter_base.h</text>
</a>
</g>
</g>
<!-- Node2 -->
<g id="Node000002" class="node">
<title>Node2</title>
<g id="a_Node000002"><a xlink:title=" ">
<polygon fill="#e0e0e0" stroke="#999999" points="126.25,-159.75 0,-159.75 0,-126.25 126.25,-126.25 126.25,-159.75"/>
<text text-anchor="start" x="8" y="-146.25" font-family="Helvetica,sans-Serif" font-size="10.00">deal.II/base/parameter</text>
<text text-anchor="middle" x="63.12" y="-133.5" font-family="Helvetica,sans-Serif" font-size="10.00">_handler.h</text>
</a>
</g>
</g>
<!-- Node1&#45;&gt;Node2 -->
<g id="edge1_Node000001_Node000002" class="edge">
<title>Node1&#45;&gt;Node2</title>
<g id="a_edge1_Node000001_Node000002"><a xlink:title=" ">
<path fill="none" stroke="#63b8ff" d="M559.49,-206.46C465.2,-199.28 294.13,-184.38 137.97,-159.93"/>
<polygon fill="#63b8ff" stroke="#63b8ff" points="138.67,-156.5 128.24,-158.39 137.57,-163.41 138.67,-156.5"/>
</a>
</g>
</g>
<!-- Node3 -->
<g id="Node000003" class="node">
<title>Node3</title>
<g id="a_Node000003"><a xlink:title=" ">
<polygon fill="#e0e0e0" stroke="#999999" points="269.5,-153.38 144.75,-153.38 144.75,-132.62 269.5,-132.62 269.5,-153.38"/>
<text text-anchor="middle" x="207.12" y="-139.88" font-family="Helvetica,sans-Serif" font-size="10.00">deal.II/base/patterns.h</text>
</a>
</g>
</g>
<!-- Node1&#45;&gt;Node3 -->
<g id="edge2_Node000001_Node000003" class="edge">
<title>Node1&#45;&gt;Node3</title>
<g id="a_edge2_Node000001_Node000003"><a xlink:title=" ">
<path fill="none" stroke="#63b8ff" d="M559.28,-202.03C488.78,-192.45 378.29,-176.67 283.12,-159.75 276.75,-158.62 270.09,-157.35 263.48,-156.05"/>
<polygon fill="#63b8ff" stroke="#63b8ff" points="264.43,-152.67 253.94,-154.13 263.05,-159.53 264.43,-152.67"/>
</a>
</g>
</g>
<!-- Node4 -->
<g id="Node000004" class="node">
<title>Node4</title>
<g id="a_Node000004"><a xlink:href="types_8h.html" target="_top" xlink:title=" ">
<polygon fill="white" stroke="#666666" points="541,-153.38 419.25,-153.38 419.25,-132.62 541,-132.62 541,-153.38"/>
<text text-anchor="middle" x="480.12" y="-139.88" font-family="Helvetica,sans-Serif" font-size="10.00">prismspf/core/types.h</text>
</a>
</g>
</g>
<!-- Node1&#45;&gt;Node4 -->
<g id="edge3_Node000001_Node000004" class="edge">
<title>Node1&#45;&gt;Node4</title>
<g id="a_edge3_Node000001_Node000004"><a xlink:title=" ">
<path fill="none" stroke="#63b8ff" d="M594.96,-195.33C569.84,-184.1 536.66,-169.27 512.43,-158.44"/>
<polygon fill="#63b8ff" stroke="#63b8ff" points="513.92,-155.27 503.37,-154.39 511.07,-161.67 513.92,-155.27"/>
</a>
</g>
</g>
<!-- Node7 -->
<g id="Node000007" class="node">
<title>Node7</title>
<g id="a_Node000007"><a xlink:title=" ">
<polygon fill="#e0e0e0" stroke="#999999" points="504.12,-20.75 404.12,-20.75 404.12,0 504.12,0 504.12,-20.75"/>
<text text-anchor="middle" x="454.12" y="-7.25" font-family="Helvetica,sans-Serif" font-size="10.00">prismspf/config.h</text>
</a>
</g>
</g>
<!-- Node1&#45;&gt;Node7 -->
<g id="edge10_Node000001_Node000007" class="edge">
<title>Node1&#45;&gt;Node7</title>
<g id="a_edge10_Node000001_Node000007"><a xlink:title=" ">
<path fill="none" stroke="#63b8ff" d="M559.36,-209.41C480.81,-202.6 360.19,-177.63 316.12,-90.25 309.42,-76.96 307.39,-68.81 316.12,-56.75 333.68,-32.49 364.64,-20.98 392.79,-15.6"/>
<polygon fill="#63b8ff" stroke="#63b8ff" points="393.03,-19.11 402.32,-14.02 391.89,-12.2 393.03,-19.11"/>
</a>
</g>
</g>
<!-- Node9 -->
<g id="Node000009" class="node">
<title>Node9</title>
<g id="a_Node000009"><a xlink:title=" ">
<polygon fill="#e0e0e0" stroke="#999999" points="642,-20.75 598.25,-20.75 598.25,0 642,0 642,-20.75"/>
<text text-anchor="middle" x="620.12" y="-7.25" font-family="Helvetica,sans-Serif" font-size="10.00">string</text>
</a>
</g>
</g>
<!-- Node1&#45;&gt;Node9 -->
<g id="edge14_Node000001_Node000009" class="edge">
<title>Node1&#45;&gt;Node9</title>
<g id="a_edge14_Node000001_Node000009"><a xlink:title=" ">
<path fill="none" stroke="#63b8ff" d="M629.36,-195.66C628.28,-185.43 626.95,-171.82 626.12,-159.75 623.02,-114.47 621.35,-61.3 620.61,-32.51"/>
<polygon fill="#63b8ff" stroke="#63b8ff" points="624.11,-32.53 620.37,-22.62 617.11,-32.7 624.11,-32.53"/>
</a>
</g>
</g>
<!-- Node10 -->
<g id="Node000010" class="node">
<title>Node10</title>
<g id="a_Node000010"><a xlink:title=" ">
<polygon fill="#e0e0e0" stroke="#999999" points="677.62,-153.38 634.62,-153.38 634.62,-132.62 677.62,-132.62 677.62,-153.38"/>
<text text-anchor="middle" x="656.12" y="-139.88" font-family="Helvetica,sans-Serif" font-size="10.00">cfloat</text>
</a>
</g>
</g>
<!-- Node1&#45;&gt;Node10 -->
<g id="edge11_Node000001_Node000010" class="edge">
<title>Node1&#45;&gt;Node10</title>
<g id="a_edge11_Node000001_Node000010"><a xlink:title=" ">
<path fill="none" stroke="#63b8ff" d="M637.05,-195.5C640.5,-186.2 644.87,-174.38 648.56,-164.41"/>
<polygon fill="#63b8ff" stroke="#63b8ff" points="651.77,-165.83 651.96,-155.24 645.21,-163.4 651.77,-165.83"/>
</a>
</g>
</g>
<!-- Node11 -->
<g id="Node000011" class="node">
<title>Node11</title>
<g id="a_Node000011"><a xlink:title=" ">
<polygon fill="#e0e0e0" stroke="#999999" points="754.88,-153.38 695.38,-153.38 695.38,-132.62 754.88,-132.62 754.88,-153.38"/>
<text text-anchor="middle" x="725.12" y="-139.88" font-family="Helvetica,sans-Serif" font-size="10.00">concepts</text>
</a>
</g>
</g>
<!-- Node1&#45;&gt;Node11 -->
<g id="edge12_Node000001_Node000011" class="edge">
<title>Node1&#45;&gt;Node11</title>
<g id="a_edge12_Node000001_Node000011"><a xlink:title=" ">
<path fill="none" stroke="#63b8ff" d="M653.4,-195.5C668.19,-184.89 687.54,-170.99 702.41,-160.31"/>
<polygon fill="#63b8ff" stroke="#63b8ff" points="704.14,-163.38 710.22,-154.7 700.05,-157.69 704.14,-163.38"/>
</a>
</g>
</g>
<!-- Node12 -->
<g id="Node000012" class="node">
<title>Node12</title>
<g id="a_Node000012"><a xlink:title=" ">
<polygon fill="#e0e0e0" stroke="#999999" points="821.62,-153.38 772.62,-153.38 772.62,-132.62 821.62,-132.62 821.62,-153.38"/>
<text text-anchor="middle" x="797.12" y="-139.88" font-family="Helvetica,sans-Serif" font-size="10.00">ranges</text>
</a>
</g>
</g>
<!-- Node1&#45;&gt;Node12 -->
<g id="edge13_Node000001_Node000012" class="edge">
<title>Node1&#45;&gt;Node12</title>
<g id="a_edge13_Node000001_Node000012"><a xlink:title=" ">
<path fill="none" stroke="#63b8ff" d="M675.19,-195.3C701.25,-185.48 734.79,-172.44 764.12,-159.75 765.07,-159.34 766.02,-158.92 766.99,-158.5"/>
<polygon fill="#63b8ff" stroke="#63b8ff" points="768.34,-161.72 775.97,-154.37 765.42,-155.36 768.34,-161.72"/>
</a>
</g>
</g>
<!-- Node13 -->
<g id="Node000013" class="node">
<title>Node13</title>
<g id="a_Node000013"><a xlink:title=" ">
<polygon fill="#e0e0e0" stroke="#999999" points="912.25,-153.38 840,-153.38 840,-132.62 912.25,-132.62 912.25,-153.38"/>
<text text-anchor="middle" x="876.12" y="-139.88" font-family="Helvetica,sans-Serif" font-size="10.00">string_view</text>
</a>
</g>
</g>
<!-- Node1&#45;&gt;Node13 -->
<g id="edge15_Node000001_Node000013" class="edge">
<title>Node1&#45;&gt;Node13</title>
<g id="a_edge15_Node000001_Node000013"><a xlink:title=" ">
<path fill="none" stroke="#63b8ff" d="M699.56,-195.29C738.37,-185.73 787.71,-172.94 831.12,-159.75 833.51,-159.03 835.95,-158.26 838.4,-157.46"/>
<polygon fill="#63b8ff" stroke="#63b8ff" points="839.32,-160.85 847.68,-154.34 837.09,-154.21 839.32,-160.85"/>
</a>
</g>
</g>
<!-- Node14 -->
<g id="Node000014" class="node">
<title>Node14</title>
<g id="a_Node000014"><a xlink:title=" ">
<polygon fill="#e0e0e0" stroke="#999999" points="977.5,-153.38 930.75,-153.38 930.75,-132.62 977.5,-132.62 977.5,-153.38"/>
<text text-anchor="middle" x="954.12" y="-139.88" font-family="Helvetica,sans-Serif" font-size="10.00">vector</text>
</a>
</g>
</g>
<!-- Node1&#45;&gt;Node14 -->
<g id="edge16_Node000001_Node000014" class="edge">
<title>Node1&#45;&gt;Node14</title>
<g id="a_edge16_Node000001_Node000014"><a xlink:title=" ">
<path fill="none" stroke="#63b8ff" d="M702.74,-204.15C762.24,-196.77 848.58,-183.06 921.12,-159.75 922.67,-159.25 924.24,-158.7 925.81,-158.1"/>
<polygon fill="#63b8ff" stroke="#63b8ff" points="926.79,-161.49 934.59,-154.33 924.02,-155.06 926.79,-161.49"/>
</a>
</g>
</g>
<!-- Node5 -->
<g id="Node000005" class="node">
<title>Node5</title>
<g id="a_Node000005"><a xlink:title=" ">
<polygon fill="#e0e0e0" stroke="#999999" points="433.25,-90.25 325,-90.25 325,-56.75 433.25,-56.75 433.25,-90.25"/>
<text text-anchor="start" x="333" y="-76.75" font-family="Helvetica,sans-Serif" font-size="10.00">deal.II/matrix_free</text>
<text text-anchor="middle" x="379.12" y="-64" font-family="Helvetica,sans-Serif" font-size="10.00">/evaluation_flags.h</text>
</a>
</g>
</g>
<!-- Node4&#45;&gt;Node5 -->
<g id="edge4_Node000004_Node000005" class="edge">
<title>Node4&#45;&gt;Node5</title>
<g id="a_edge4_Node000004_Node000005"><a xlink:title=" ">
<path fill="none" stroke="#63b8ff" d="M465.65,-132.33C451.94,-123.16 430.83,-109.05 412.89,-97.07"/>
<polygon fill="#63b8ff" stroke="#63b8ff" points="414.84,-94.16 404.58,-91.51 410.95,-99.98 414.84,-94.16"/>
</a>
</g>
</g>
<!-- Node6 -->
<g id="Node000006" class="node">
<title>Node6</title>
<g id="a_Node000006"><a xlink:href="type__enums_8h.html" target="_top" xlink:title=" ">
<polygon fill="white" stroke="#666666" points="596.88,-90.25 489.38,-90.25 489.38,-56.75 596.88,-56.75 596.88,-90.25"/>
<text text-anchor="start" x="497.38" y="-76.75" font-family="Helvetica,sans-Serif" font-size="10.00">prismspf/core/type</text>
<text text-anchor="middle" x="543.12" y="-64" font-family="Helvetica,sans-Serif" font-size="10.00">_enums.h</text>
</a>
</g>
</g>
<!-- Node4&#45;&gt;Node6 -->
<g id="edge5_Node000004_Node000006" class="edge">
<title>Node4&#45;&gt;Node6</title>
<g id="a_edge5_Node000004_Node000006"><a xlink:title=" ">
<path fill="none" stroke="#63b8ff" d="M489.15,-132.33C497.23,-123.67 509.43,-110.61 520.18,-99.08"/>
<polygon fill="#63b8ff" stroke="#63b8ff" points="522.74,-101.47 527,-91.78 517.62,-96.7 522.74,-101.47"/>
</a>
</g>
</g>
<!-- Node4&#45;&gt;Node7 -->
<g id="edge9_Node000004_Node000007" class="edge">
<title>Node4&#45;&gt;Node7</title>
<g id="a_edge9_Node000004_Node000007"><a xlink:title=" ">
<path fill="none" stroke="#63b8ff" d="M478.17,-132.18C473.95,-110.99 463.92,-60.58 458.24,-32.03"/>
<polygon fill="#63b8ff" stroke="#63b8ff" points="461.71,-31.56 456.33,-22.44 454.85,-32.93 461.71,-31.56"/>
</a>
</g>
</g>
<!-- Node6&#45;&gt;Node7 -->
<g id="edge6_Node000006_Node000007" class="edge">
<title>Node6&#45;&gt;Node7</title>
<g id="a_edge6_Node000006_Node000007"><a xlink:title=" ">
<path fill="none" stroke="#63b8ff" d="M519.74,-56.44C506.77,-47.53 490.69,-36.49 477.69,-27.56"/>
<polygon fill="#63b8ff" stroke="#63b8ff" points="479.93,-24.85 469.7,-22.07 475.96,-30.62 479.93,-24.85"/>
</a>
</g>
</g>
<!-- Node8 -->
<g id="Node000008" class="node">
<title>Node8</title>
<g id="a_Node000008"><a xlink:title=" ">
<polygon fill="#e0e0e0" stroke="#999999" points="571.62,-20.75 522.62,-20.75 522.62,0 571.62,0 571.62,-20.75"/>
<text text-anchor="middle" x="547.12" y="-7.25" font-family="Helvetica,sans-Serif" font-size="10.00">cstdint</text>
</a>
</g>
</g>
<!-- Node6&#45;&gt;Node8 -->
<g id="edge7_Node000006_Node000008" class="edge">
<title>Node6&#45;&gt;Node8</title>
<g id="a_edge7_Node000006_Node000008"><a xlink:title=" ">
<path fill="none" stroke="#63b8ff" d="M544.18,-56.44C544.66,-49.1 545.23,-40.32 545.75,-32.46"/>
<polygon fill="#63b8ff" stroke="#63b8ff" points="549.22,-32.93 546.38,-22.73 542.24,-32.48 549.22,-32.93"/>
</a>
</g>
</g>
<!-- Node6&#45;&gt;Node9 -->
<g id="edge8_Node000006_Node000009" class="edge">
<title>Node6&#45;&gt;Node9</title>
<g id="a_edge8_Node000006_Node000009"><a xlink:title=" ">
<path fill="none" stroke="#63b8ff" d="M563.36,-56.44C574.25,-47.8 587.68,-37.13 598.74,-28.35"/>
<polygon fill="#63b8ff" stroke="#63b8ff" points="600.89,-31.12 606.54,-22.16 596.53,-25.63 600.89,-31.12"/>
</a>
</g>
</g>
</g>
</svg>
