<?xml version="1.0" encoding="UTF-8" standalone="no"?>
<!DOCTYPE svg PUBLIC "-//W3C//DTD SVG 1.1//EN"
 "http://www.w3.org/Graphics/SVG/1.1/DTD/svg11.dtd">
<!-- Generated by graphviz version 12.2.1 (20241206.2353)
 -->
<!-- Title: include/prismspf/user_inputs/parameter_base.h Pages: 1 -->
<svg width="992pt" height="294pt"
 viewBox="0.00 0.00 992.25 294.00" xmlns="http://www.w3.org/2000/svg" xmlns:xlink="http://www.w3.org/1999/xlink">
<g id="graph0" class="graph" transform="scale(1 1) rotate(0) translate(4 290)">
<title>include/prismspf/user_inputs/parameter_base.h</title>
<!-- Node1 -->
<g id="Node000001" class="node">
<title>Node1</title>
<g id="a_Node000001"><a xlink:title=" ">
<polygon fill="#999999" stroke="#666666" points="766.5,-286 623.75,-286 623.75,-252.5 766.5,-252.5 766.5,-286"/>
<text text-anchor="start" x="631.75" y="-272.5" font-family="Helvetica,sans-Serif" font-size="10.00">include/prismspf/user</text>
<text text-anchor="middle" x="695.12" y="-259.75" font-family="Helvetica,sans-Serif" font-size="10.00">_inputs/parameter_base.h</text>
</a>
</g>
</g>
<!-- Node2 -->
<g id="Node000002" class="node">
<title>Node2</title>
<g id="a_Node000002"><a xlink:title=" ">
<polygon fill="#e0e0e0" stroke="#999999" points="126.25,-216.5 0,-216.5 0,-183 126.25,-183 126.25,-216.5"/>
<text text-anchor="start" x="8" y="-203" font-family="Helvetica,sans-Serif" font-size="10.00">deal.II/base/parameter</text>
<text text-anchor="middle" x="63.12" y="-190.25" font-family="Helvetica,sans-Serif" font-size="10.00">_handler.h</text>
</a>
</g>
</g>
<!-- Node1&#45;&gt;Node2 -->
<g id="edge1_Node000001_Node000002" class="edge">
<title>Node1&#45;&gt;Node2</title>
<g id="a_edge1_Node000001_Node000002"><a xlink:title=" ">
<path fill="none" stroke="#63b8ff" d="M623.42,-264.07C517.38,-257.31 312.67,-242.11 140.12,-216.5 139.29,-216.38 138.45,-216.25 137.61,-216.12"/>
<polygon fill="#63b8ff" stroke="#63b8ff" points="138.41,-212.7 127.97,-214.52 137.26,-219.61 138.41,-212.7"/>
</a>
</g>
</g>
<!-- Node3 -->
<g id="Node000003" class="node">
<title>Node3</title>
<g id="a_Node000003"><a xlink:href="field__attributes_8h.html" target="_top" xlink:title=" ">
<polygon fill="white" stroke="#666666" points="508.5,-216.5 401.75,-216.5 401.75,-183 508.5,-183 508.5,-216.5"/>
<text text-anchor="start" x="409.75" y="-203" font-family="Helvetica,sans-Serif" font-size="10.00">prismspf/core/field</text>
<text text-anchor="middle" x="455.12" y="-190.25" font-family="Helvetica,sans-Serif" font-size="10.00">_attributes.h</text>
</a>
</g>
</g>
<!-- Node1&#45;&gt;Node3 -->
<g id="edge2_Node000001_Node000003" class="edge">
<title>Node1&#45;&gt;Node3</title>
<g id="a_edge2_Node000001_Node000003"><a xlink:title=" ">
<path fill="none" stroke="#63b8ff" d="M637.64,-252.08C602.05,-242.07 556.27,-229.2 519.47,-218.85"/>
<polygon fill="#63b8ff" stroke="#63b8ff" points="520.88,-215.61 510.31,-216.27 518.99,-222.35 520.88,-215.61"/>
</a>
</g>
</g>
<!-- Node6 -->
<g id="Node000006" class="node">
<title>Node6</title>
<g id="a_Node000006"><a xlink:title=" ">
<polygon fill="#e0e0e0" stroke="#999999" points="382.12,-20.75 282.12,-20.75 282.12,0 382.12,0 382.12,-20.75"/>
<text text-anchor="middle" x="332.12" y="-7.25" font-family="Helvetica,sans-Serif" font-size="10.00">prismspf/config.h</text>
</a>
</g>
</g>
<!-- Node1&#45;&gt;Node6 -->
<g id="edge17_Node000001_Node000006" class="edge">
<title>Node1&#45;&gt;Node6</title>
<g id="a_edge17_Node000001_Node000006"><a xlink:title=" ">
<path fill="none" stroke="#63b8ff" d="M623.47,-265.48C548.27,-260.9 427.42,-248.74 328.12,-216.5 265.44,-196.15 241.64,-195.6 197.12,-147 169.09,-116.39 148.13,-89.88 173.12,-56.75 185.15,-40.81 231.05,-28.8 270.46,-21.15"/>
<polygon fill="#63b8ff" stroke="#63b8ff" points="270.96,-24.62 280.15,-19.34 269.68,-17.74 270.96,-24.62"/>
</a>
</g>
</g>
<!-- Node8 -->
<g id="Node000008" class="node">
<title>Node8</title>
<g id="a_Node000008"><a xlink:title=" ">
<polygon fill="#e0e0e0" stroke="#999999" points="542,-20.75 498.25,-20.75 498.25,0 542,0 542,-20.75"/>
<text text-anchor="middle" x="520.12" y="-7.25" font-family="Helvetica,sans-Serif" font-size="10.00">string</text>
</a>
</g>
</g>
<!-- Node1&#45;&gt;Node8 -->
<g id="edge20_Node000001_Node000008" class="edge">
<title>Node1&#45;&gt;Node8</title>
<g id="a_edge20_Node000001_Node000008"><a xlink:title=" ">
<path fill="none" stroke="#63b8ff" d="M705.8,-252.18C722.67,-224.58 751.23,-167.19 727.12,-126.25 689.37,-62.12 601.46,-31.24 553.24,-18.66"/>
<polygon fill="#63b8ff" stroke="#63b8ff" points="554.19,-15.28 543.64,-16.27 552.5,-22.08 554.19,-15.28"/>
</a>
</g>
</g>
<!-- Node9 -->
<g id="Node000009" class="node">
<title>Node9</title>
<g id="a_Node000009"><a xlink:href="types_8h.html" target="_top" xlink:title=" ">
<polygon fill="white" stroke="#666666" points="328,-147 206.25,-147 206.25,-126.25 328,-126.25 328,-147"/>
<text text-anchor="middle" x="267.12" y="-133.5" font-family="Helvetica,sans-Serif" font-size="10.00">prismspf/core/types.h</text>
</a>
</g>
</g>
<!-- Node1&#45;&gt;Node9 -->
<g id="edge16_Node000001_Node000009" class="edge">
<title>Node1&#45;&gt;Node9</title>
<g id="a_edge16_Node000001_Node000009"><a xlink:title=" ">
<path fill="none" stroke="#63b8ff" d="M623.5,-263.84C560.97,-258.16 468.67,-245.32 393.12,-216.5 353.07,-201.22 311.95,-172.56 288,-154.32"/>
<polygon fill="#63b8ff" stroke="#63b8ff" points="290.38,-151.73 280.33,-148.36 286.08,-157.26 290.38,-151.73"/>
</a>
</g>
</g>
<!-- Node12 -->
<g id="Node000012" class="node">
<title>Node12</title>
<g id="a_Node000012"><a xlink:title=" ">
<polygon fill="#e0e0e0" stroke="#999999" points="718.5,-147 671.75,-147 671.75,-126.25 718.5,-126.25 718.5,-147"/>
<text text-anchor="middle" x="695.12" y="-133.5" font-family="Helvetica,sans-Serif" font-size="10.00">vector</text>
</a>
</g>
</g>
<!-- Node1&#45;&gt;Node12 -->
<g id="edge22_Node000001_Node000012" class="edge">
<title>Node1&#45;&gt;Node12</title>
<g id="a_edge22_Node000001_Node000012"><a xlink:title=" ">
<path fill="none" stroke="#63b8ff" d="M695.12,-252.23C695.12,-228.7 695.12,-184.74 695.12,-158.64"/>
<polygon fill="#63b8ff" stroke="#63b8ff" points="698.63,-158.94 695.13,-148.94 691.63,-158.94 698.63,-158.94"/>
</a>
</g>
</g>
<!-- Node13 -->
<g id="Node000013" class="node">
<title>Node13</title>
<g id="a_Node000013"><a xlink:title=" ">
<polygon fill="#e0e0e0" stroke="#999999" points="826.88,-210.12 767.38,-210.12 767.38,-189.38 826.88,-189.38 826.88,-210.12"/>
<text text-anchor="middle" x="797.12" y="-196.62" font-family="Helvetica,sans-Serif" font-size="10.00">concepts</text>
</a>
</g>
</g>
<!-- Node1&#45;&gt;Node13 -->
<g id="edge18_Node000001_Node000013" class="edge">
<title>Node1&#45;&gt;Node13</title>
<g id="a_edge18_Node000001_Node000013"><a xlink:title=" ">
<path fill="none" stroke="#63b8ff" d="M719.56,-252.08C735.76,-241.36 756.93,-227.35 773.06,-216.68"/>
<polygon fill="#63b8ff" stroke="#63b8ff" points="774.69,-219.79 781.1,-211.36 770.83,-213.96 774.69,-219.79"/>
</a>
</g>
</g>
<!-- Node14 -->
<g id="Node000014" class="node">
<title>Node14</title>
<g id="a_Node000014"><a xlink:title=" ">
<polygon fill="#e0e0e0" stroke="#999999" points="893.62,-210.12 844.62,-210.12 844.62,-189.38 893.62,-189.38 893.62,-210.12"/>
<text text-anchor="middle" x="869.12" y="-196.62" font-family="Helvetica,sans-Serif" font-size="10.00">ranges</text>
</a>
</g>
</g>
<!-- Node1&#45;&gt;Node14 -->
<g id="edge19_Node000001_Node000014" class="edge">
<title>Node1&#45;&gt;Node14</title>
<g id="a_edge19_Node000001_Node000014"><a xlink:title=" ">
<path fill="none" stroke="#63b8ff" d="M742.55,-252.09C770.11,-242.39 805.36,-229.45 836.12,-216.5 837.07,-216.1 838.03,-215.69 839,-215.27"/>
<polygon fill="#63b8ff" stroke="#63b8ff" points="840.34,-218.5 847.99,-211.18 837.44,-212.13 840.34,-218.5"/>
</a>
</g>
</g>
<!-- Node15 -->
<g id="Node000015" class="node">
<title>Node15</title>
<g id="a_Node000015"><a xlink:title=" ">
<polygon fill="#e0e0e0" stroke="#999999" points="984.25,-210.12 912,-210.12 912,-189.38 984.25,-189.38 984.25,-210.12"/>
<text text-anchor="middle" x="948.12" y="-196.62" font-family="Helvetica,sans-Serif" font-size="10.00">string_view</text>
</a>
</g>
</g>
<!-- Node1&#45;&gt;Node15 -->
<g id="edge21_Node000001_Node000015" class="edge">
<title>Node1&#45;&gt;Node15</title>
<g id="a_edge21_Node000001_Node000015"><a xlink:title=" ">
<path fill="none" stroke="#63b8ff" d="M766.81,-252.15C807.11,-242.67 858.2,-229.92 903.12,-216.5 905.67,-215.74 908.28,-214.92 910.9,-214.08"/>
<polygon fill="#63b8ff" stroke="#63b8ff" points="911.8,-217.47 920.17,-210.97 909.58,-210.83 911.8,-217.47"/>
</a>
</g>
</g>
<!-- Node4 -->
<g id="Node000004" class="node">
<title>Node4</title>
<g id="a_Node000004"><a xlink:title=" ">
<polygon fill="#e0e0e0" stroke="#999999" points="653.88,-147 516.38,-147 516.38,-126.25 653.88,-126.25 653.88,-147"/>
<text text-anchor="middle" x="585.12" y="-133.5" font-family="Helvetica,sans-Serif" font-size="10.00">deal.II/base/exceptions.h</text>
</a>
</g>
</g>
<!-- Node3&#45;&gt;Node4 -->
<g id="edge3_Node000003_Node000004" class="edge">
<title>Node3&#45;&gt;Node4</title>
<g id="a_edge3_Node000003_Node000004"><a xlink:title=" ">
<path fill="none" stroke="#63b8ff" d="M489.62,-182.53C509.58,-173.14 534.51,-161.42 553.89,-152.31"/>
<polygon fill="#63b8ff" stroke="#63b8ff" points="555.37,-155.48 562.93,-148.06 552.4,-149.15 555.37,-155.48"/>
</a>
</g>
</g>
<!-- Node5 -->
<g id="Node000005" class="node">
<title>Node5</title>
<g id="a_Node000005"><a xlink:href="type__enums_8h.html" target="_top" xlink:title=" ">
<polygon fill="white" stroke="#666666" points="491.88,-90.25 384.38,-90.25 384.38,-56.75 491.88,-56.75 491.88,-90.25"/>
<text text-anchor="start" x="392.38" y="-76.75" font-family="Helvetica,sans-Serif" font-size="10.00">prismspf/core/type</text>
<text text-anchor="middle" x="438.12" y="-64" font-family="Helvetica,sans-Serif" font-size="10.00">_enums.h</text>
</a>
</g>
</g>
<!-- Node3&#45;&gt;Node5 -->
<g id="edge4_Node000003_Node000005" class="edge">
<title>Node3&#45;&gt;Node5</title>
<g id="a_edge4_Node000003_Node000005"><a xlink:title=" ">
<path fill="none" stroke="#63b8ff" d="M439.48,-182.52C431.4,-172.99 422.37,-160.25 418.12,-147 413.28,-131.89 417.54,-114.79 423.35,-100.99"/>
<polygon fill="#63b8ff" stroke="#63b8ff" points="426.45,-102.64 427.56,-92.11 420.12,-99.65 426.45,-102.64"/>
</a>
</g>
</g>
<!-- Node3&#45;&gt;Node6 -->
<g id="edge12_Node000003_Node000006" class="edge">
<title>Node3&#45;&gt;Node6</title>
<g id="a_edge12_Node000003_Node000006"><a xlink:title=" ">
<path fill="none" stroke="#63b8ff" d="M441.07,-182.82C432.42,-172.78 421.28,-159.41 412.12,-147 383.44,-108.12 356.23,-58.27 342.13,-31.14"/>
<polygon fill="#63b8ff" stroke="#63b8ff" points="345.3,-29.65 337.62,-22.35 339.07,-32.84 345.3,-29.65"/>
</a>
</g>
</g>
<!-- Node3&#45;&gt;Node8 -->
<g id="edge14_Node000003_Node000008" class="edge">
<title>Node3&#45;&gt;Node8</title>
<g id="a_edge14_Node000003_Node000008"><a xlink:title=" ">
<path fill="none" stroke="#63b8ff" d="M449.74,-182.51C445.65,-167.14 442.1,-143.86 451.12,-126.25 463.61,-101.88 485.85,-112.98 501.12,-90.25 512.7,-73.01 517.25,-49.47 519.02,-32.6"/>
<polygon fill="#63b8ff" stroke="#63b8ff" points="522.5,-32.97 519.79,-22.73 515.52,-32.43 522.5,-32.97"/>
</a>
</g>
</g>
<!-- Node3&#45;&gt;Node9 -->
<g id="edge8_Node000003_Node000009" class="edge">
<title>Node3&#45;&gt;Node9</title>
<g id="a_edge8_Node000003_Node000009"><a xlink:title=" ">
<path fill="none" stroke="#63b8ff" d="M405.24,-182.53C374.89,-172.66 336.61,-160.22 308.05,-150.93"/>
<polygon fill="#63b8ff" stroke="#63b8ff" points="309.27,-147.65 298.68,-147.88 307.1,-154.3 309.27,-147.65"/>
</a>
</g>
</g>
<!-- Node11 -->
<g id="Node000011" class="node">
<title>Node11</title>
<g id="a_Node000011"><a xlink:title=" ">
<polygon fill="#e0e0e0" stroke="#999999" points="498,-147 460.25,-147 460.25,-126.25 498,-126.25 498,-147"/>
<text text-anchor="middle" x="479.12" y="-133.5" font-family="Helvetica,sans-Serif" font-size="10.00">map</text>
</a>
</g>
</g>
<!-- Node3&#45;&gt;Node11 -->
<g id="edge13_Node000003_Node000011" class="edge">
<title>Node3&#45;&gt;Node11</title>
<g id="a_edge13_Node000003_Node000011"><a xlink:title=" ">
<path fill="none" stroke="#63b8ff" d="M461.43,-182.69C464.38,-175.18 467.93,-166.15 471.07,-158.15"/>
<polygon fill="#63b8ff" stroke="#63b8ff" points="474.31,-159.46 474.71,-148.88 467.79,-156.9 474.31,-159.46"/>
</a>
</g>
</g>
<!-- Node3&#45;&gt;Node12 -->
<g id="edge15_Node000003_Node000012" class="edge">
<title>Node3&#45;&gt;Node12</title>
<g id="a_edge15_Node000003_Node000012"><a xlink:title=" ">
<path fill="none" stroke="#63b8ff" d="M508.72,-186.06C548.27,-176.55 603.66,-162.92 660.41,-147.67"/>
<polygon fill="#63b8ff" stroke="#63b8ff" points="661.19,-151.08 669.93,-145.09 659.36,-144.32 661.19,-151.08"/>
</a>
</g>
</g>
<!-- Node5&#45;&gt;Node6 -->
<g id="edge5_Node000005_Node000006" class="edge">
<title>Node5&#45;&gt;Node6</title>
<g id="a_edge5_Node000005_Node000006"><a xlink:title=" ">
<path fill="none" stroke="#63b8ff" d="M410,-56.28C394.1,-47.11 374.34,-35.72 358.7,-26.7"/>
<polygon fill="#63b8ff" stroke="#63b8ff" points="360.82,-23.88 350.41,-21.92 357.33,-29.95 360.82,-23.88"/>
</a>
</g>
</g>
<!-- Node7 -->
<g id="Node000007" class="node">
<title>Node7</title>
<g id="a_Node000007"><a xlink:title=" ">
<polygon fill="#e0e0e0" stroke="#999999" points="462.62,-20.75 413.62,-20.75 413.62,0 462.62,0 462.62,-20.75"/>
<text text-anchor="middle" x="438.12" y="-7.25" font-family="Helvetica,sans-Serif" font-size="10.00">cstdint</text>
</a>
</g>
</g>
<!-- Node5&#45;&gt;Node7 -->
<g id="edge6_Node000005_Node000007" class="edge">
<title>Node5&#45;&gt;Node7</title>
<g id="a_edge6_Node000005_Node000007"><a xlink:title=" ">
<path fill="none" stroke="#63b8ff" d="M438.12,-56.44C438.12,-49.1 438.12,-40.32 438.12,-32.46"/>
<polygon fill="#63b8ff" stroke="#63b8ff" points="441.63,-32.73 438.13,-22.73 434.63,-32.73 441.63,-32.73"/>
</a>
</g>
</g>
<!-- Node5&#45;&gt;Node8 -->
<g id="edge7_Node000005_Node000008" class="edge">
<title>Node5&#45;&gt;Node8</title>
<g id="a_edge7_Node000005_Node000008"><a xlink:title=" ">
<path fill="none" stroke="#63b8ff" d="M459.67,-56.44C471.38,-47.71 485.86,-36.92 497.71,-28.09"/>
<polygon fill="#63b8ff" stroke="#63b8ff" points="499.78,-30.9 505.71,-22.12 495.6,-25.29 499.78,-30.9"/>
</a>
</g>
</g>
<!-- Node9&#45;&gt;Node5 -->
<g id="edge10_Node000009_Node000005" class="edge">
<title>Node9&#45;&gt;Node5</title>
<g id="a_edge10_Node000009_Node000005"><a xlink:title=" ">
<path fill="none" stroke="#63b8ff" d="M294.6,-125.8C318.14,-117.39 352.8,-105 382.16,-94.5"/>
<polygon fill="#63b8ff" stroke="#63b8ff" points="383.04,-97.91 391.28,-91.24 380.69,-91.31 383.04,-97.91"/>
</a>
</g>
</g>
<!-- Node9&#45;&gt;Node6 -->
<g id="edge11_Node000009_Node000006" class="edge">
<title>Node9&#45;&gt;Node6</title>
<g id="a_edge11_Node000009_Node000006"><a xlink:title=" ">
<path fill="none" stroke="#63b8ff" d="M274.9,-125.94C281.82,-117.02 291.94,-103.24 299.12,-90.25 309.7,-71.12 319.03,-47.9 325.05,-31.63"/>
<polygon fill="#63b8ff" stroke="#63b8ff" points="328.21,-33.18 328.3,-22.58 321.62,-30.81 328.21,-33.18"/>
</a>
</g>
</g>
<!-- Node10 -->
<g id="Node000010" class="node">
<title>Node10</title>
<g id="a_Node000010"><a xlink:title=" ">
<polygon fill="#e0e0e0" stroke="#999999" points="290.25,-90.25 182,-90.25 182,-56.75 290.25,-56.75 290.25,-90.25"/>
<text text-anchor="start" x="190" y="-76.75" font-family="Helvetica,sans-Serif" font-size="10.00">deal.II/matrix_free</text>
<text text-anchor="middle" x="236.12" y="-64" font-family="Helvetica,sans-Serif" font-size="10.00">/evaluation_flags.h</text>
</a>
</g>
</g>
<!-- Node9&#45;&gt;Node10 -->
<g id="edge9_Node000009_Node000010" class="edge">
<title>Node9&#45;&gt;Node10</title>
<g id="a_edge9_Node000009_Node000010"><a xlink:title=" ">
<path fill="none" stroke="#63b8ff" d="M262.14,-125.8C258.7,-119.01 253.94,-109.63 249.44,-100.75"/>
<polygon fill="#63b8ff" stroke="#63b8ff" points="252.69,-99.42 245.04,-92.08 246.44,-102.59 252.69,-99.42"/>
</a>
</g>
</g>
</g>
</svg>
