<?xml version="1.0" encoding="UTF-8" standalone="no"?>
<!DOCTYPE svg PUBLIC "-//W3C//DTD SVG 1.1//EN"
 "http://www.w3.org/Graphics/SVG/1.1/DTD/svg11.dtd">
<!-- Generated by graphviz version 12.2.1 (20241206.2353)
 -->
<!-- Title: /__w/phaseField/phaseField/include/prismspf/user_inputs/parameter_base.h Pages: 1 -->
<svg width="986pt" height="250pt"
 viewBox="0.00 0.00 985.50 250.00" xmlns="http://www.w3.org/2000/svg" xmlns:xlink="http://www.w3.org/1999/xlink">
<g id="graph0" class="graph" transform="scale(1 1) rotate(0) translate(4 246)">
<title>/__w/phaseField/phaseField/include/prismspf/user_inputs/parameter_base.h</title>
<!-- Node1 -->
<g id="Node000001" class="node">
<title>Node1</title>
<g id="a_Node000001"><a xlink:title=" ">
<polygon fill="#999999" stroke="#666666" points="710.75,-242 551.5,-242 551.5,-195.75 710.75,-195.75 710.75,-242"/>
<text text-anchor="start" x="559.5" y="-228.5" font-family="Helvetica,sans-Serif" font-size="10.00">/__w/phaseField/phaseField</text>
<text text-anchor="start" x="559.5" y="-215.75" font-family="Helvetica,sans-Serif" font-size="10.00">/include/prismspf/user_inputs</text>
<text text-anchor="middle" x="631.12" y="-203" font-family="Helvetica,sans-Serif" font-size="10.00">/parameter_base.h</text>
</a>
</g>
</g>
<!-- Node2 -->
<g id="Node000002" class="node">
<title>Node2</title>
<g id="a_Node000002"><a xlink:title=" ">
<polygon fill="#e0e0e0" stroke="#999999" points="126.25,-159.75 0,-159.75 0,-126.25 126.25,-126.25 126.25,-159.75"/>
<text text-anchor="start" x="8" y="-146.25" font-family="Helvetica,sans-Serif" font-size="10.00">deal.II/base/parameter</text>
<text text-anchor="middle" x="63.12" y="-133.5" font-family="Helvetica,sans-Serif" font-size="10.00">_handler.h</text>
</a>
</g>
</g>
<!-- Node1&#45;&gt;Node2 -->
<g id="edge1_Node000001_Node000002" class="edge">
<title>Node1&#45;&gt;Node2</title>
<g id="a_edge1_Node000001_Node000002"><a xlink:title=" ">
<path fill="none" stroke="#63b8ff" d="M551.06,-210.85C455.21,-201.9 289.65,-184.76 137.31,-159.84"/>
<polygon fill="#63b8ff" stroke="#63b8ff" points="138.29,-156.45 127.86,-158.28 137.15,-163.36 138.29,-156.45"/>
</a>
</g>
</g>
<!-- Node3 -->
<g id="Node000003" class="node">
<title>Node3</title>
<g id="a_Node000003"><a xlink:title=" ">
<polygon fill="#e0e0e0" stroke="#999999" points="269.5,-153.38 144.75,-153.38 144.75,-132.62 269.5,-132.62 269.5,-153.38"/>
<text text-anchor="middle" x="207.12" y="-139.88" font-family="Helvetica,sans-Serif" font-size="10.00">deal.II/base/patterns.h</text>
</a>
</g>
</g>
<!-- Node1&#45;&gt;Node3 -->
<g id="edge2_Node000001_Node000003" class="edge">
<title>Node1&#45;&gt;Node3</title>
<g id="a_edge2_Node000001_Node000003"><a xlink:title=" ">
<path fill="none" stroke="#63b8ff" d="M551.15,-205.42C480.51,-194.21 374.79,-176.9 283.12,-159.75 277.08,-158.62 270.78,-157.39 264.5,-156.14"/>
<polygon fill="#63b8ff" stroke="#63b8ff" points="265.27,-152.72 254.77,-154.17 263.88,-159.58 265.27,-152.72"/>
</a>
</g>
</g>
<!-- Node4 -->
<g id="Node000004" class="node">
<title>Node4</title>
<g id="a_Node000004"><a xlink:href="types_8h.html" target="_top" xlink:title=" ">
<polygon fill="white" stroke="#666666" points="541,-153.38 419.25,-153.38 419.25,-132.62 541,-132.62 541,-153.38"/>
<text text-anchor="middle" x="480.12" y="-139.88" font-family="Helvetica,sans-Serif" font-size="10.00">prismspf/core/types.h</text>
</a>
</g>
</g>
<!-- Node1&#45;&gt;Node4 -->
<g id="edge3_Node000001_Node000004" class="edge">
<title>Node1&#45;&gt;Node4</title>
<g id="a_edge3_Node000001_Node000004"><a xlink:title=" ">
<path fill="none" stroke="#63b8ff" d="M585,-195.31C560.66,-183.4 531.5,-169.14 510.12,-158.67"/>
<polygon fill="#63b8ff" stroke="#63b8ff" points="511.88,-155.64 501.36,-154.39 508.81,-161.93 511.88,-155.64"/>
</a>
</g>
</g>
<!-- Node7 -->
<g id="Node000007" class="node">
<title>Node7</title>
<g id="a_Node000007"><a xlink:title=" ">
<polygon fill="#e0e0e0" stroke="#999999" points="504.12,-20.75 404.12,-20.75 404.12,0 504.12,0 504.12,-20.75"/>
<text text-anchor="middle" x="454.12" y="-7.25" font-family="Helvetica,sans-Serif" font-size="10.00">prismspf/config.h</text>
</a>
</g>
</g>
<!-- Node1&#45;&gt;Node7 -->
<g id="edge10_Node000001_Node000007" class="edge">
<title>Node1&#45;&gt;Node7</title>
<g id="a_edge10_Node000001_Node000007"><a xlink:title=" ">
<path fill="none" stroke="#63b8ff" d="M551.22,-213.28C472.81,-203.77 358.97,-175.21 316.12,-90.25 309.42,-76.96 307.39,-68.81 316.12,-56.75 333.68,-32.49 364.64,-20.98 392.79,-15.6"/>
<polygon fill="#63b8ff" stroke="#63b8ff" points="393.03,-19.11 402.32,-14.02 391.89,-12.2 393.03,-19.11"/>
</a>
</g>
</g>
<!-- Node9 -->
<g id="Node000009" class="node">
<title>Node9</title>
<g id="a_Node000009"><a xlink:title=" ">
<polygon fill="#e0e0e0" stroke="#999999" points="642,-20.75 598.25,-20.75 598.25,0 642,0 642,-20.75"/>
<text text-anchor="middle" x="620.12" y="-7.25" font-family="Helvetica,sans-Serif" font-size="10.00">string</text>
</a>
</g>
</g>
<!-- Node1&#45;&gt;Node9 -->
<g id="edge14_Node000001_Node000009" class="edge">
<title>Node1&#45;&gt;Node9</title>
<g id="a_edge14_Node000001_Node000009"><a xlink:title=" ">
<path fill="none" stroke="#63b8ff" d="M628.94,-195.26C627.96,-184.51 626.87,-171.48 626.12,-159.75 623.26,-114.46 621.5,-61.29 620.68,-32.5"/>
<polygon fill="#63b8ff" stroke="#63b8ff" points="624.18,-32.52 620.41,-22.62 617.18,-32.71 624.18,-32.52"/>
</a>
</g>
</g>
<!-- Node10 -->
<g id="Node000010" class="node">
<title>Node10</title>
<g id="a_Node000010"><a xlink:title=" ">
<polygon fill="#e0e0e0" stroke="#999999" points="677.62,-153.38 634.62,-153.38 634.62,-132.62 677.62,-132.62 677.62,-153.38"/>
<text text-anchor="middle" x="656.12" y="-139.88" font-family="Helvetica,sans-Serif" font-size="10.00">cfloat</text>
</a>
</g>
</g>
<!-- Node1&#45;&gt;Node10 -->
<g id="edge11_Node000001_Node000010" class="edge">
<title>Node1&#45;&gt;Node10</title>
<g id="a_edge11_Node000001_Node000010"><a xlink:title=" ">
<path fill="none" stroke="#63b8ff" d="M638.76,-195.31C642.07,-185.52 645.92,-174.14 649.16,-164.59"/>
<polygon fill="#63b8ff" stroke="#63b8ff" points="652.46,-165.75 652.35,-155.16 645.83,-163.51 652.46,-165.75"/>
</a>
</g>
</g>
<!-- Node11 -->
<g id="Node000011" class="node">
<title>Node11</title>
<g id="a_Node000011"><a xlink:title=" ">
<polygon fill="#e0e0e0" stroke="#999999" points="754.88,-153.38 695.38,-153.38 695.38,-132.62 754.88,-132.62 754.88,-153.38"/>
<text text-anchor="middle" x="725.12" y="-139.88" font-family="Helvetica,sans-Serif" font-size="10.00">concepts</text>
</a>
</g>
</g>
<!-- Node1&#45;&gt;Node11 -->
<g id="edge12_Node000001_Node000011" class="edge">
<title>Node1&#45;&gt;Node11</title>
<g id="a_edge12_Node000001_Node000011"><a xlink:title=" ">
<path fill="none" stroke="#63b8ff" d="M659.84,-195.31C674.09,-184.11 691,-170.82 704.03,-160.57"/>
<polygon fill="#63b8ff" stroke="#63b8ff" points="705.86,-163.59 711.56,-154.66 701.54,-158.09 705.86,-163.59"/>
</a>
</g>
</g>
<!-- Node12 -->
<g id="Node000012" class="node">
<title>Node12</title>
<g id="a_Node000012"><a xlink:title=" ">
<polygon fill="#e0e0e0" stroke="#999999" points="821.62,-153.38 772.62,-153.38 772.62,-132.62 821.62,-132.62 821.62,-153.38"/>
<text text-anchor="middle" x="797.12" y="-139.88" font-family="Helvetica,sans-Serif" font-size="10.00">ranges</text>
</a>
</g>
</g>
<!-- Node1&#45;&gt;Node12 -->
<g id="edge13_Node000001_Node000012" class="edge">
<title>Node1&#45;&gt;Node12</title>
<g id="a_edge13_Node000001_Node000012"><a xlink:title=" ">
<path fill="none" stroke="#63b8ff" d="M683.73,-195.36C708.25,-184.75 737.77,-171.8 764.12,-159.75 765.03,-159.33 765.96,-158.91 766.89,-158.48"/>
<polygon fill="#63b8ff" stroke="#63b8ff" points="767.99,-161.83 775.56,-154.41 765.02,-155.49 767.99,-161.83"/>
</a>
</g>
</g>
<!-- Node13 -->
<g id="Node000013" class="node">
<title>Node13</title>
<g id="a_Node000013"><a xlink:title=" ">
<polygon fill="#e0e0e0" stroke="#999999" points="912.25,-153.38 840,-153.38 840,-132.62 912.25,-132.62 912.25,-153.38"/>
<text text-anchor="middle" x="876.12" y="-139.88" font-family="Helvetica,sans-Serif" font-size="10.00">string_view</text>
</a>
</g>
</g>
<!-- Node1&#45;&gt;Node13 -->
<g id="edge15_Node000001_Node000013" class="edge">
<title>Node1&#45;&gt;Node13</title>
<g id="a_edge15_Node000001_Node000013"><a xlink:title=" ">
<path fill="none" stroke="#63b8ff" d="M711.23,-195.66C747.91,-185.22 791.87,-172.32 831.12,-159.75 833.49,-158.99 835.93,-158.19 838.38,-157.38"/>
<polygon fill="#63b8ff" stroke="#63b8ff" points="839.31,-160.76 847.64,-154.22 837.05,-154.13 839.31,-160.76"/>
</a>
</g>
</g>
<!-- Node14 -->
<g id="Node000014" class="node">
<title>Node14</title>
<g id="a_Node000014"><a xlink:title=" ">
<polygon fill="#e0e0e0" stroke="#999999" points="977.5,-153.38 930.75,-153.38 930.75,-132.62 977.5,-132.62 977.5,-153.38"/>
<text text-anchor="middle" x="954.12" y="-139.88" font-family="Helvetica,sans-Serif" font-size="10.00">vector</text>
</a>
</g>
</g>
<!-- Node1&#45;&gt;Node14 -->
<g id="edge16_Node000001_Node000014" class="edge">
<title>Node1&#45;&gt;Node14</title>
<g id="a_edge16_Node000001_Node000014"><a xlink:title=" ">
<path fill="none" stroke="#63b8ff" d="M710.96,-207.32C770,-198.21 851.83,-182.83 921.12,-159.75 922.48,-159.3 923.85,-158.8 925.23,-158.28"/>
<polygon fill="#63b8ff" stroke="#63b8ff" points="926.41,-161.58 934.22,-154.42 923.65,-155.15 926.41,-161.58"/>
</a>
</g>
</g>
<!-- Node5 -->
<g id="Node000005" class="node">
<title>Node5</title>
<g id="a_Node000005"><a xlink:title=" ">
<polygon fill="#e0e0e0" stroke="#999999" points="433.25,-90.25 325,-90.25 325,-56.75 433.25,-56.75 433.25,-90.25"/>
<text text-anchor="start" x="333" y="-76.75" font-family="Helvetica,sans-Serif" font-size="10.00">deal.II/matrix_free</text>
<text text-anchor="middle" x="379.12" y="-64" font-family="Helvetica,sans-Serif" font-size="10.00">/evaluation_flags.h</text>
</a>
</g>
</g>
<!-- Node4&#45;&gt;Node5 -->
<g id="edge4_Node000004_Node000005" class="edge">
<title>Node4&#45;&gt;Node5</title>
<g id="a_edge4_Node000004_Node000005"><a xlink:title=" ">
<path fill="none" stroke="#63b8ff" d="M465.65,-132.33C451.94,-123.16 430.83,-109.05 412.89,-97.07"/>
<polygon fill="#63b8ff" stroke="#63b8ff" points="414.84,-94.16 404.58,-91.51 410.95,-99.98 414.84,-94.16"/>
</a>
</g>
</g>
<!-- Node6 -->
<g id="Node000006" class="node">
<title>Node6</title>
<g id="a_Node000006"><a xlink:href="type__enums_8h.html" target="_top" xlink:title=" ">
<polygon fill="white" stroke="#666666" points="596.88,-90.25 489.38,-90.25 489.38,-56.75 596.88,-56.75 596.88,-90.25"/>
<text text-anchor="start" x="497.38" y="-76.75" font-family="Helvetica,sans-Serif" font-size="10.00">prismspf/core/type</text>
<text text-anchor="middle" x="543.12" y="-64" font-family="Helvetica,sans-Serif" font-size="10.00">_enums.h</text>
</a>
</g>
</g>
<!-- Node4&#45;&gt;Node6 -->
<g id="edge5_Node000004_Node000006" class="edge">
<title>Node4&#45;&gt;Node6</title>
<g id="a_edge5_Node000004_Node000006"><a xlink:title=" ">
<path fill="none" stroke="#63b8ff" d="M489.15,-132.33C497.23,-123.67 509.43,-110.61 520.18,-99.08"/>
<polygon fill="#63b8ff" stroke="#63b8ff" points="522.74,-101.47 527,-91.78 517.62,-96.7 522.74,-101.47"/>
</a>
</g>
</g>
<!-- Node4&#45;&gt;Node7 -->
<g id="edge9_Node000004_Node000007" class="edge">
<title>Node4&#45;&gt;Node7</title>
<g id="a_edge9_Node000004_Node000007"><a xlink:title=" ">
<path fill="none" stroke="#63b8ff" d="M478.17,-132.18C473.95,-110.99 463.92,-60.58 458.24,-32.03"/>
<polygon fill="#63b8ff" stroke="#63b8ff" points="461.71,-31.56 456.33,-22.44 454.85,-32.93 461.71,-31.56"/>
</a>
</g>
</g>
<!-- Node6&#45;&gt;Node7 -->
<g id="edge6_Node000006_Node000007" class="edge">
<title>Node6&#45;&gt;Node7</title>
<g id="a_edge6_Node000006_Node000007"><a xlink:title=" ">
<path fill="none" stroke="#63b8ff" d="M519.74,-56.44C506.77,-47.53 490.69,-36.49 477.69,-27.56"/>
<polygon fill="#63b8ff" stroke="#63b8ff" points="479.93,-24.85 469.7,-22.07 475.96,-30.62 479.93,-24.85"/>
</a>
</g>
</g>
<!-- Node8 -->
<g id="Node000008" class="node">
<title>Node8</title>
<g id="a_Node000008"><a xlink:title=" ">
<polygon fill="#e0e0e0" stroke="#999999" points="571.62,-20.75 522.62,-20.75 522.62,0 571.62,0 571.62,-20.75"/>
<text text-anchor="middle" x="547.12" y="-7.25" font-family="Helvetica,sans-Serif" font-size="10.00">cstdint</text>
</a>
</g>
</g>
<!-- Node6&#45;&gt;Node8 -->
<g id="edge7_Node000006_Node000008" class="edge">
<title>Node6&#45;&gt;Node8</title>
<g id="a_edge7_Node000006_Node000008"><a xlink:title=" ">
<path fill="none" stroke="#63b8ff" d="M544.18,-56.44C544.66,-49.1 545.23,-40.32 545.75,-32.46"/>
<polygon fill="#63b8ff" stroke="#63b8ff" points="549.22,-32.93 546.38,-22.73 542.24,-32.48 549.22,-32.93"/>
</a>
</g>
</g>
<!-- Node6&#45;&gt;Node9 -->
<g id="edge8_Node000006_Node000009" class="edge">
<title>Node6&#45;&gt;Node9</title>
<g id="a_edge8_Node000006_Node000009"><a xlink:title=" ">
<path fill="none" stroke="#63b8ff" d="M563.36,-56.44C574.25,-47.8 587.68,-37.13 598.74,-28.35"/>
<polygon fill="#63b8ff" stroke="#63b8ff" points="600.89,-31.12 606.54,-22.16 596.53,-25.63 600.89,-31.12"/>
</a>
</g>
</g>
</g>
</svg>
