<?xml version="1.0" encoding="UTF-8" standalone="no"?>
<!DOCTYPE svg PUBLIC "-//W3C//DTD SVG 1.1//EN"
 "http://www.w3.org/Graphics/SVG/1.1/DTD/svg11.dtd">
<!-- Generated by graphviz version 12.2.1 (20241206.2353)
 -->
<!-- Title: include/prismspf/core/parse_cmd_options.h Pages: 1 -->
<svg width="505pt" height="181pt"
 viewBox="0.00 0.00 504.88 180.50" xmlns="http://www.w3.org/2000/svg" xmlns:xlink="http://www.w3.org/1999/xlink">
<g id="graph0" class="graph" transform="scale(1 1) rotate(0) translate(4 176.5)">
<title>include/prismspf/core/parse_cmd_options.h</title>
<!-- Node1 -->
<g id="Node000001" class="node">
<title>Node1</title>
<g id="a_Node000001"><a xlink:title=" ">
<polygon fill="#999999" stroke="#666666" points="376.75,-172.5 254.25,-172.5 254.25,-139 376.75,-139 376.75,-172.5"/>
<text text-anchor="start" x="262.25" y="-159" font-family="Helvetica,sans-Serif" font-size="10.00">include/prismspf/core</text>
<text text-anchor="middle" x="315.5" y="-146.25" font-family="Helvetica,sans-Serif" font-size="10.00">/parse_cmd_options.h</text>
</a>
</g>
</g>
<!-- Node2 -->
<g id="Node000002" class="node">
<title>Node2</title>
<g id="a_Node000002"><a xlink:title=" ">
<polygon fill="#e0e0e0" stroke="#999999" points="103,-96.62 0,-96.62 0,-75.88 103,-75.88 103,-96.62"/>
<text text-anchor="middle" x="51.5" y="-83.12" font-family="Helvetica,sans-Serif" font-size="10.00">deal.II/base/mpi.h</text>
</a>
</g>
</g>
<!-- Node1&#45;&gt;Node2 -->
<g id="edge1_Node000001_Node000002" class="edge">
<title>Node1&#45;&gt;Node2</title>
<g id="a_edge1_Node000001_Node000002"><a xlink:title=" ">
<path fill="none" stroke="#63b8ff" d="M253.87,-139.26C213.38,-129.04 159.26,-115.33 111.5,-103 107.57,-101.98 103.49,-100.93 99.4,-99.86"/>
<polygon fill="#63b8ff" stroke="#63b8ff" points="100.64,-96.57 90.08,-97.43 98.87,-103.34 100.64,-96.57"/>
</a>
</g>
</g>
<!-- Node3 -->
<g id="Node000003" class="node">
<title>Node3</title>
<g id="a_Node000003"><a xlink:href="conditional__ostreams_8h.html" target="_top" xlink:title=" ">
<polygon fill="white" stroke="#666666" points="260.38,-103 120.62,-103 120.62,-69.5 260.38,-69.5 260.38,-103"/>
<text text-anchor="start" x="128.62" y="-89.5" font-family="Helvetica,sans-Serif" font-size="10.00">prismspf/core/conditional</text>
<text text-anchor="middle" x="190.5" y="-76.75" font-family="Helvetica,sans-Serif" font-size="10.00">_ostreams.h</text>
</a>
</g>
</g>
<!-- Node1&#45;&gt;Node3 -->
<g id="edge2_Node000001_Node000003" class="edge">
<title>Node1&#45;&gt;Node3</title>
<g id="a_edge2_Node000001_Node000003"><a xlink:title=" ">
<path fill="none" stroke="#63b8ff" d="M285.56,-138.58C268.94,-129.61 248.06,-118.33 230.1,-108.63"/>
<polygon fill="#63b8ff" stroke="#63b8ff" points="231.99,-105.68 221.53,-104.01 228.66,-111.84 231.99,-105.68"/>
</a>
</g>
</g>
<!-- Node5 -->
<g id="Node000005" class="node">
<title>Node5</title>
<g id="a_Node000005"><a xlink:title=" ">
<polygon fill="#e0e0e0" stroke="#999999" points="338.5,-27.12 238.5,-27.12 238.5,-6.38 338.5,-6.38 338.5,-27.12"/>
<text text-anchor="middle" x="288.5" y="-13.62" font-family="Helvetica,sans-Serif" font-size="10.00">prismspf/config.h</text>
</a>
</g>
</g>
<!-- Node1&#45;&gt;Node5 -->
<g id="edge5_Node000001_Node000005" class="edge">
<title>Node1&#45;&gt;Node5</title>
<g id="a_edge5_Node000001_Node000005"><a xlink:title=" ">
<path fill="none" stroke="#63b8ff" d="M312.35,-138.77C307.45,-113.92 298.01,-66.02 292.59,-38.52"/>
<polygon fill="#63b8ff" stroke="#63b8ff" points="296.08,-38.1 290.71,-28.96 289.21,-39.45 296.08,-38.1"/>
</a>
</g>
</g>
<!-- Node6 -->
<g id="Node000006" class="node">
<title>Node6</title>
<g id="a_Node000006"><a xlink:title=" ">
<polygon fill="#e0e0e0" stroke="#999999" points="370.62,-96.62 316.38,-96.62 316.38,-75.88 370.62,-75.88 370.62,-96.62"/>
<text text-anchor="middle" x="343.5" y="-83.12" font-family="Helvetica,sans-Serif" font-size="10.00">fstream</text>
</a>
</g>
</g>
<!-- Node1&#45;&gt;Node6 -->
<g id="edge6_Node000001_Node000006" class="edge">
<title>Node1&#45;&gt;Node6</title>
<g id="a_edge6_Node000001_Node000006"><a xlink:title=" ">
<path fill="none" stroke="#63b8ff" d="M322.14,-138.75C325.99,-129.45 330.9,-117.63 335.03,-107.66"/>
<polygon fill="#63b8ff" stroke="#63b8ff" points="338.25,-109.05 338.85,-98.47 331.78,-106.37 338.25,-109.05"/>
</a>
</g>
</g>
<!-- Node7 -->
<g id="Node000007" class="node">
<title>Node7</title>
<g id="a_Node000007"><a xlink:title=" ">
<polygon fill="#e0e0e0" stroke="#999999" points="432.38,-96.62 388.62,-96.62 388.62,-75.88 432.38,-75.88 432.38,-96.62"/>
<text text-anchor="middle" x="410.5" y="-83.12" font-family="Helvetica,sans-Serif" font-size="10.00">string</text>
</a>
</g>
</g>
<!-- Node1&#45;&gt;Node7 -->
<g id="edge7_Node000001_Node000007" class="edge">
<title>Node1&#45;&gt;Node7</title>
<g id="a_edge7_Node000001_Node000007"><a xlink:title=" ">
<path fill="none" stroke="#63b8ff" d="M338.01,-138.75C352.96,-128.14 372.51,-114.24 387.54,-103.56"/>
<polygon fill="#63b8ff" stroke="#63b8ff" points="389.32,-106.59 395.44,-97.95 385.26,-100.89 389.32,-106.59"/>
</a>
</g>
</g>
<!-- Node8 -->
<g id="Node000008" class="node">
<title>Node8</title>
<g id="a_Node000008"><a xlink:title=" ">
<polygon fill="#e0e0e0" stroke="#999999" points="496.88,-96.62 450.12,-96.62 450.12,-75.88 496.88,-75.88 496.88,-96.62"/>
<text text-anchor="middle" x="473.5" y="-83.12" font-family="Helvetica,sans-Serif" font-size="10.00">vector</text>
</a>
</g>
</g>
<!-- Node1&#45;&gt;Node8 -->
<g id="edge8_Node000001_Node000008" class="edge">
<title>Node1&#45;&gt;Node8</title>
<g id="a_edge8_Node000001_Node000008"><a xlink:title=" ">
<path fill="none" stroke="#63b8ff" d="M356.94,-138.55C381.67,-128.68 413.58,-115.59 441.5,-103 442.26,-102.66 443.03,-102.31 443.81,-101.95"/>
<polygon fill="#63b8ff" stroke="#63b8ff" points="445.07,-105.22 452.6,-97.77 442.07,-98.9 445.07,-105.22"/>
</a>
</g>
</g>
<!-- Node4 -->
<g id="Node000004" class="node">
<title>Node4</title>
<g id="a_Node000004"><a xlink:title=" ">
<polygon fill="#e0e0e0" stroke="#999999" points="220.12,-33.5 90.88,-33.5 90.88,0 220.12,0 220.12,-33.5"/>
<text text-anchor="start" x="98.88" y="-20" font-family="Helvetica,sans-Serif" font-size="10.00">deal.II/base/conditional</text>
<text text-anchor="middle" x="155.5" y="-7.25" font-family="Helvetica,sans-Serif" font-size="10.00">_ostream.h</text>
</a>
</g>
</g>
<!-- Node3&#45;&gt;Node4 -->
<g id="edge3_Node000003_Node000004" class="edge">
<title>Node3&#45;&gt;Node4</title>
<g id="a_edge3_Node000003_Node000004"><a xlink:title=" ">
<path fill="none" stroke="#63b8ff" d="M182.21,-69.25C178.24,-61.6 173.39,-52.25 168.92,-43.63"/>
<polygon fill="#63b8ff" stroke="#63b8ff" points="172.14,-42.24 164.43,-34.98 165.93,-45.46 172.14,-42.24"/>
</a>
</g>
</g>
<!-- Node3&#45;&gt;Node5 -->
<g id="edge4_Node000003_Node000005" class="edge">
<title>Node3&#45;&gt;Node5</title>
<g id="a_edge4_Node000003_Node000005"><a xlink:title=" ">
<path fill="none" stroke="#63b8ff" d="M213.72,-69.25C229.14,-58.64 249.31,-44.74 264.82,-34.06"/>
<polygon fill="#63b8ff" stroke="#63b8ff" points="266.74,-36.99 272.99,-28.43 262.77,-31.22 266.74,-36.99"/>
</a>
</g>
</g>
</g>
</svg>
