<?xml version="1.0" encoding="UTF-8" standalone="no"?>
<!DOCTYPE svg PUBLIC "-//W3C//DTD SVG 1.1//EN"
 "http://www.w3.org/Graphics/SVG/1.1/DTD/svg11.dtd">
<!-- Generated by graphviz version 12.2.1 (20241206.2353)
 -->
<!-- Title: include/prismspf/core/pde_operator_base.h Pages: 1 -->
<svg width="1044pt" height="515pt"
 viewBox="0.00 0.00 1043.52 515.25" xmlns="http://www.w3.org/2000/svg" xmlns:xlink="http://www.w3.org/1999/xlink">
<g id="graph0" class="graph" transform="scale(1 1) rotate(0) translate(4 511.25)">
<title>include/prismspf/core/pde_operator_base.h</title>
<!-- Node1 -->
<g id="Node000001" class="node">
<title>Node1</title>
<g id="a_Node000001"><a xlink:title=" ">
<polygon fill="#999999" stroke="#666666" points="685.18,-507.25 564.18,-507.25 564.18,-473.75 685.18,-473.75 685.18,-507.25"/>
<text text-anchor="start" x="572.18" y="-493.75" font-family="Helvetica,sans-Serif" font-size="10.00">include/prismspf/core</text>
<text text-anchor="middle" x="624.68" y="-481" font-family="Helvetica,sans-Serif" font-size="10.00">/pde_operator_base.h</text>
</a>
</g>
</g>
<!-- Node2 -->
<g id="Node000002" class="node">
<title>Node2</title>
<g id="a_Node000002"><a xlink:href="mf__operator_8h.html" target="_top" xlink:title=" ">
<polygon fill="white" stroke="#666666" points="346.3,-298.75 211.05,-298.75 211.05,-265.25 346.3,-265.25 346.3,-298.75"/>
<text text-anchor="start" x="219.05" y="-285.25" font-family="Helvetica,sans-Serif" font-size="10.00">include/prismspf/solvers</text>
<text text-anchor="middle" x="278.68" y="-272.5" font-family="Helvetica,sans-Serif" font-size="10.00">/mf_operator.h</text>
</a>
</g>
</g>
<!-- Node1&#45;&gt;Node2 -->
<g id="edge1_Node000001_Node000002" class="edge">
<title>Node1&#45;&gt;Node2</title>
<g id="a_edge1_Node000001_Node000002"><a xlink:title=" ">
<path fill="none" stroke="#63b8ff" d="M579.77,-468.46C561.24,-459.44 539.69,-448.52 520.68,-437.75 438.23,-391.05 344.86,-328.43 302.2,-299.24"/>
<polygon fill="#63b8ff" stroke="#63b8ff" points="578.11,-471.54 588.64,-472.74 581.15,-465.24 578.11,-471.54"/>
</a>
</g>
</g>
<!-- Node11 -->
<g id="Node000011" class="node">
<title>Node11</title>
<g id="a_Node000011"><a xlink:href="solve__context_8h.html" target="_top" xlink:title=" ">
<polygon fill="white" stroke="#666666" points="692.3,-437.75 557.05,-437.75 557.05,-404.25 692.3,-404.25 692.3,-437.75"/>
<text text-anchor="start" x="565.05" y="-424.25" font-family="Helvetica,sans-Serif" font-size="10.00">include/prismspf/solvers</text>
<text text-anchor="middle" x="624.68" y="-411.5" font-family="Helvetica,sans-Serif" font-size="10.00">/solve_context.h</text>
</a>
</g>
</g>
<!-- Node1&#45;&gt;Node11 -->
<g id="edge14_Node000001_Node000011" class="edge">
<title>Node1&#45;&gt;Node11</title>
<g id="a_edge14_Node000001_Node000011"><a xlink:title=" ">
<path fill="none" stroke="#63b8ff" d="M624.68,-462.06C624.68,-453.84 624.68,-445.09 624.68,-437.88"/>
<polygon fill="#63b8ff" stroke="#63b8ff" points="621.18,-461.99 624.68,-471.99 628.18,-461.99 621.18,-461.99"/>
</a>
</g>
</g>
<!-- Node17 -->
<g id="Node000017" class="node">
<title>Node17</title>
<g id="a_Node000017"><a xlink:href="solver__base_8h.html" target="_top" xlink:title=" ">
<polygon fill="white" stroke="#666666" points="569.3,-368.25 434.05,-368.25 434.05,-334.75 569.3,-334.75 569.3,-368.25"/>
<text text-anchor="start" x="442.05" y="-354.75" font-family="Helvetica,sans-Serif" font-size="10.00">include/prismspf/solvers</text>
<text text-anchor="middle" x="501.68" y="-342" font-family="Helvetica,sans-Serif" font-size="10.00">/solver_base.h</text>
</a>
</g>
</g>
<!-- Node1&#45;&gt;Node17 -->
<g id="edge35_Node000001_Node000017" class="edge">
<title>Node1&#45;&gt;Node17</title>
<g id="a_edge35_Node000001_Node000017"><a xlink:title=" ">
<path fill="none" stroke="#63b8ff" d="M584.07,-467.45C571.39,-459.26 558.03,-449.16 547.68,-437.75 528.8,-416.95 514.98,-387.01 507.65,-368.71"/>
<polygon fill="#63b8ff" stroke="#63b8ff" points="581.94,-470.24 592.28,-472.52 585.62,-464.29 581.94,-470.24"/>
</a>
</g>
</g>
<!-- Node20 -->
<g id="Node000020" class="node">
<title>Node20</title>
<g id="a_Node000020"><a xlink:href="dirichlet_8cc.html" target="_top" xlink:title=" ">
<polygon fill="white" stroke="#666666" points="820.93,-431.38 710.43,-431.38 710.43,-410.62 820.93,-410.62 820.93,-431.38"/>
<text text-anchor="middle" x="765.68" y="-417.88" font-family="Helvetica,sans-Serif" font-size="10.00">src/core/dirichlet.cc</text>
</a>
</g>
</g>
<!-- Node1&#45;&gt;Node20 -->
<g id="edge36_Node000001_Node000020" class="edge">
<title>Node1&#45;&gt;Node20</title>
<g id="a_edge36_Node000001_Node000020"><a xlink:title=" ">
<path fill="none" stroke="#63b8ff" d="M668.67,-468.44C694.26,-456.19 725.31,-441.33 745.27,-431.77"/>
<polygon fill="#63b8ff" stroke="#63b8ff" points="667.32,-465.2 659.82,-472.68 670.35,-471.52 667.32,-465.2"/>
</a>
</g>
</g>
<!-- Node21 -->
<g id="Node000021" class="node">
<title>Node21</title>
<g id="a_Node000021"><a xlink:href="initial__conditions_8cc.html" target="_top" xlink:title=" ">
<polygon fill="white" stroke="#666666" points="992.68,-431.38 838.68,-431.38 838.68,-410.62 992.68,-410.62 992.68,-431.38"/>
<text text-anchor="middle" x="915.68" y="-417.88" font-family="Helvetica,sans-Serif" font-size="10.00">src/core/initial_conditions.cc</text>
</a>
</g>
</g>
<!-- Node1&#45;&gt;Node21 -->
<g id="edge37_Node000001_Node000021" class="edge">
<title>Node1&#45;&gt;Node21</title>
<g id="a_edge37_Node000001_Node000021"><a xlink:title=" ">
<path fill="none" stroke="#63b8ff" d="M696.52,-472.84C752.11,-459.94 827.17,-442.53 873.46,-431.79"/>
<polygon fill="#63b8ff" stroke="#63b8ff" points="695.75,-469.42 686.8,-475.09 697.33,-476.24 695.75,-469.42"/>
</a>
</g>
</g>
<!-- Node3 -->
<g id="Node000003" class="node">
<title>Node3</title>
<g id="a_Node000003"><a xlink:href="explicit__solver_8h.html" target="_top" xlink:title=" ">
<polygon fill="white" stroke="#666666" points="542.3,-229.25 407.05,-229.25 407.05,-195.75 542.3,-195.75 542.3,-229.25"/>
<text text-anchor="start" x="415.05" y="-215.75" font-family="Helvetica,sans-Serif" font-size="10.00">include/prismspf/solvers</text>
<text text-anchor="middle" x="474.68" y="-203" font-family="Helvetica,sans-Serif" font-size="10.00">/explicit_solver.h</text>
</a>
</g>
</g>
<!-- Node2&#45;&gt;Node3 -->
<g id="edge2_Node000002_Node000003" class="edge">
<title>Node2&#45;&gt;Node3</title>
<g id="a_edge2_Node000002_Node000003"><a xlink:title=" ">
<path fill="none" stroke="#63b8ff" d="M336.47,-261.1C365.56,-251.08 400.37,-239.09 427.77,-229.65"/>
<polygon fill="#63b8ff" stroke="#63b8ff" points="335.37,-257.77 327.06,-264.34 337.65,-264.39 335.37,-257.77"/>
</a>
</g>
</g>
<!-- Node7 -->
<g id="Node000007" class="node">
<title>Node7</title>
<g id="a_Node000007"><a xlink:href="linear__solver_8h.html" target="_top" xlink:title=" ">
<polygon fill="white" stroke="#666666" points="389.3,-229.25 254.05,-229.25 254.05,-195.75 389.3,-195.75 389.3,-229.25"/>
<text text-anchor="start" x="262.05" y="-215.75" font-family="Helvetica,sans-Serif" font-size="10.00">include/prismspf/solvers</text>
<text text-anchor="middle" x="321.68" y="-203" font-family="Helvetica,sans-Serif" font-size="10.00">/linear_solver.h</text>
</a>
</g>
</g>
<!-- Node2&#45;&gt;Node7 -->
<g id="edge6_Node000002_Node000007" class="edge">
<title>Node2&#45;&gt;Node7</title>
<g id="a_edge6_Node000002_Node000007"><a xlink:title=" ">
<path fill="none" stroke="#63b8ff" d="M294.88,-255.56C300.48,-246.77 306.59,-237.18 311.56,-229.38"/>
<polygon fill="#63b8ff" stroke="#63b8ff" points="292.1,-253.41 289.68,-263.73 298.01,-257.17 292.1,-253.41"/>
</a>
</g>
</g>
<!-- Node8 -->
<g id="Node000008" class="node">
<title>Node8</title>
<g id="a_Node000008"><a xlink:href="mg__solver_8h.html" target="_top" xlink:title=" ">
<polygon fill="white" stroke="#666666" points="370.3,-159.75 235.05,-159.75 235.05,-126.25 370.3,-126.25 370.3,-159.75"/>
<text text-anchor="start" x="243.05" y="-146.25" font-family="Helvetica,sans-Serif" font-size="10.00">include/prismspf/solvers</text>
<text text-anchor="middle" x="302.68" y="-133.5" font-family="Helvetica,sans-Serif" font-size="10.00">/mg_solver.h</text>
</a>
</g>
</g>
<!-- Node2&#45;&gt;Node8 -->
<g id="edge11_Node000002_Node000008" class="edge">
<title>Node2&#45;&gt;Node8</title>
<g id="a_edge11_Node000002_Node000008"><a xlink:title=" ">
<path fill="none" stroke="#63b8ff" d="M257.82,-255.98C246.2,-238.86 235.72,-215.75 244.68,-195.75 251.19,-181.22 264.02,-169.09 275.96,-160.23"/>
<polygon fill="#63b8ff" stroke="#63b8ff" points="254.65,-257.58 263.38,-263.58 260.3,-253.45 254.65,-257.58"/>
</a>
</g>
</g>
<!-- Node9 -->
<g id="Node000009" class="node">
<title>Node9</title>
<g id="a_Node000009"><a xlink:href="newton__solver_8h.html" target="_top" xlink:title=" ">
<polygon fill="white" stroke="#666666" points="217.3,-159.75 82.05,-159.75 82.05,-126.25 217.3,-126.25 217.3,-159.75"/>
<text text-anchor="start" x="90.05" y="-146.25" font-family="Helvetica,sans-Serif" font-size="10.00">include/prismspf/solvers</text>
<text text-anchor="middle" x="149.68" y="-133.5" font-family="Helvetica,sans-Serif" font-size="10.00">/newton_solver.h</text>
</a>
</g>
</g>
<!-- Node2&#45;&gt;Node9 -->
<g id="edge12_Node000002_Node000009" class="edge">
<title>Node2&#45;&gt;Node9</title>
<g id="a_edge12_Node000002_Node000009"><a xlink:title=" ">
<path fill="none" stroke="#63b8ff" d="M256.03,-256.95C229.73,-229.02 187.1,-183.74 164.63,-159.88"/>
<polygon fill="#63b8ff" stroke="#63b8ff" points="253.19,-259.03 262.59,-263.91 258.28,-254.23 253.19,-259.03"/>
</a>
</g>
</g>
<!-- Node10 -->
<g id="Node000010" class="node">
<title>Node10</title>
<g id="a_Node000010"><a xlink:href="mf__operator_8cc.html" target="_top" xlink:title=" ">
<polygon fill="white" stroke="#666666" points="159.8,-222.88 15.55,-222.88 15.55,-202.12 159.8,-202.12 159.8,-222.88"/>
<text text-anchor="middle" x="87.68" y="-209.38" font-family="Helvetica,sans-Serif" font-size="10.00">src/solvers/mf_operator.cc</text>
</a>
</g>
</g>
<!-- Node2&#45;&gt;Node10 -->
<g id="edge13_Node000002_Node000010" class="edge">
<title>Node2&#45;&gt;Node10</title>
<g id="a_edge13_Node000002_Node000010"><a xlink:title=" ">
<path fill="none" stroke="#63b8ff" d="M222.33,-261.09C187.19,-248.67 143.51,-233.23 115.61,-223.37"/>
<polygon fill="#63b8ff" stroke="#63b8ff" points="220.91,-264.3 231.5,-264.33 223.24,-257.7 220.91,-264.3"/>
</a>
</g>
</g>
<!-- Node4 -->
<g id="Node000004" class="node">
<title>Node4</title>
<g id="a_Node000004"><a xlink:href="solvers_8h.html" target="_top" xlink:title=" ">
<polygon fill="white" stroke="#666666" points="504.3,-90.25 369.05,-90.25 369.05,-56.75 504.3,-56.75 504.3,-90.25"/>
<text text-anchor="start" x="377.05" y="-76.75" font-family="Helvetica,sans-Serif" font-size="10.00">include/prismspf/solvers</text>
<text text-anchor="middle" x="436.68" y="-64" font-family="Helvetica,sans-Serif" font-size="10.00">/solvers.h</text>
</a>
</g>
</g>
<!-- Node3&#45;&gt;Node4 -->
<g id="edge3_Node000003_Node000004" class="edge">
<title>Node3&#45;&gt;Node4</title>
<g id="a_edge3_Node000003_Node000004"><a xlink:title=" ">
<path fill="none" stroke="#63b8ff" d="M464.1,-184.79C461.15,-176.81 458.1,-167.99 455.68,-159.75 448.71,-136.03 442.92,-107.96 439.62,-90.69"/>
<polygon fill="#63b8ff" stroke="#63b8ff" points="460.76,-185.85 467.59,-193.95 467.31,-183.36 460.76,-185.85"/>
</a>
</g>
</g>
<!-- Node5 -->
<g id="Node000005" class="node">
<title>Node5</title>
<g id="a_Node000005"><a xlink:href="problem_8cc.html" target="_top" xlink:title=" ">
<polygon fill="white" stroke="#666666" points="719.3,-20.75 608.05,-20.75 608.05,0 719.3,0 719.3,-20.75"/>
<text text-anchor="middle" x="663.68" y="-7.25" font-family="Helvetica,sans-Serif" font-size="10.00">src/core/problem.cc</text>
</a>
</g>
</g>
<!-- Node4&#45;&gt;Node5 -->
<g id="edge4_Node000004_Node000005" class="edge">
<title>Node4&#45;&gt;Node5</title>
<g id="a_edge4_Node000004_Node000005"><a xlink:title=" ">
<path fill="none" stroke="#63b8ff" d="M507.87,-53.33C547.53,-42.65 595.23,-29.81 627.32,-21.17"/>
<polygon fill="#63b8ff" stroke="#63b8ff" points="507.12,-49.91 498.38,-55.89 508.94,-56.67 507.12,-49.91"/>
</a>
</g>
</g>
<!-- Node6 -->
<g id="Node000006" class="node">
<title>Node6</title>
<g id="a_Node000006"><a xlink:href="solvers_8cc.html" target="_top" xlink:title=" ">
<polygon fill="white" stroke="#666666" points="496.8,-20.75 376.55,-20.75 376.55,0 496.8,0 496.8,-20.75"/>
<text text-anchor="middle" x="436.68" y="-7.25" font-family="Helvetica,sans-Serif" font-size="10.00">src/solvers/solvers.cc</text>
</a>
</g>
</g>
<!-- Node4&#45;&gt;Node6 -->
<g id="edge5_Node000004_Node000006" class="edge">
<title>Node4&#45;&gt;Node6</title>
<g id="a_edge5_Node000004_Node000006"><a xlink:title=" ">
<path fill="none" stroke="#63b8ff" d="M436.68,-44.94C436.68,-36.46 436.68,-27.67 436.68,-21.22"/>
<polygon fill="#63b8ff" stroke="#63b8ff" points="433.18,-44.93 436.68,-54.93 440.18,-44.93 433.18,-44.93"/>
</a>
</g>
</g>
<!-- Node7&#45;&gt;Node4 -->
<g id="edge10_Node000007_Node000004" class="edge">
<title>Node7&#45;&gt;Node4</title>
<g id="a_edge10_Node000007_Node000004"><a xlink:title=" ">
<path fill="none" stroke="#63b8ff" d="M350.77,-188.1C360.47,-179.65 371,-169.73 379.68,-159.75 399.07,-137.45 417.28,-108.22 427.69,-90.43"/>
<polygon fill="#63b8ff" stroke="#63b8ff" points="348.68,-185.28 343.33,-194.42 353.22,-190.61 348.68,-185.28"/>
</a>
</g>
</g>
<!-- Node7&#45;&gt;Node8 -->
<g id="edge7_Node000007_Node000008" class="edge">
<title>Node7&#45;&gt;Node8</title>
<g id="a_edge7_Node000007_Node000008"><a xlink:title=" ">
<path fill="none" stroke="#63b8ff" d="M314.12,-184.64C311.75,-176.25 309.23,-167.26 307.15,-159.88"/>
<polygon fill="#63b8ff" stroke="#63b8ff" points="310.69,-185.37 316.77,-194.05 317.42,-183.47 310.69,-185.37"/>
</a>
</g>
</g>
<!-- Node7&#45;&gt;Node9 -->
<g id="edge8_Node000007_Node000009" class="edge">
<title>Node7&#45;&gt;Node9</title>
<g id="a_edge8_Node000007_Node000009"><a xlink:title=" ">
<path fill="none" stroke="#63b8ff" d="M269.95,-191.2C244.63,-181.26 214.57,-169.47 190.84,-160.15"/>
<polygon fill="#63b8ff" stroke="#63b8ff" points="268.48,-194.38 279.07,-194.78 271.04,-187.87 268.48,-194.38"/>
</a>
</g>
</g>
<!-- Node9&#45;&gt;Node4 -->
<g id="edge9_Node000009_Node000004" class="edge">
<title>Node9&#45;&gt;Node4</title>
<g id="a_edge9_Node000009_Node000004"><a xlink:title=" ">
<path fill="none" stroke="#63b8ff" d="M228.62,-123.43C272.53,-113.11 326.63,-100.38 368.65,-90.5"/>
<polygon fill="#63b8ff" stroke="#63b8ff" points="228.1,-119.96 219.17,-125.66 229.7,-126.77 228.1,-119.96"/>
</a>
</g>
</g>
<!-- Node12 -->
<g id="Node000012" class="node">
<title>Node12</title>
<g id="a_Node000012"><a xlink:href="problem_8h.html" target="_top" xlink:title=" ">
<polygon fill="white" stroke="#666666" points="823.18,-229.25 702.18,-229.25 702.18,-195.75 823.18,-195.75 823.18,-229.25"/>
<text text-anchor="start" x="710.18" y="-215.75" font-family="Helvetica,sans-Serif" font-size="10.00">include/prismspf/core</text>
<text text-anchor="middle" x="762.68" y="-203" font-family="Helvetica,sans-Serif" font-size="10.00">/problem.h</text>
</a>
</g>
</g>
<!-- Node11&#45;&gt;Node12 -->
<g id="edge15_Node000011_Node000012" class="edge">
<title>Node11&#45;&gt;Node12</title>
<g id="a_edge15_Node000011_Node000012"><a xlink:title=" ">
<path fill="none" stroke="#63b8ff" d="M703.83,-403.04C752.38,-391.84 806.57,-377.57 813.68,-368.25 846.62,-325.07 801.46,-259.61 776.82,-229.58"/>
<polygon fill="#63b8ff" stroke="#63b8ff" points="703.06,-399.63 694.09,-405.26 704.62,-406.45 703.06,-399.63"/>
</a>
</g>
</g>
<!-- Node13 -->
<g id="Node000013" class="node">
<title>Node13</title>
<g id="a_Node000013"><a xlink:href="refinement__manager_8h.html" target="_top" xlink:title=" ">
<polygon fill="white" stroke="#666666" points="766.3,-298.75 637.05,-298.75 637.05,-265.25 766.3,-265.25 766.3,-298.75"/>
<text text-anchor="start" x="645.05" y="-285.25" font-family="Helvetica,sans-Serif" font-size="10.00">include/prismspf/core</text>
<text text-anchor="middle" x="701.68" y="-272.5" font-family="Helvetica,sans-Serif" font-size="10.00">/refinement_manager.h</text>
</a>
</g>
</g>
<!-- Node11&#45;&gt;Node13 -->
<g id="edge17_Node000011_Node000013" class="edge">
<title>Node11&#45;&gt;Node13</title>
<g id="a_edge17_Node000011_Node000013"><a xlink:title=" ">
<path fill="none" stroke="#63b8ff" d="M626.89,-392.67C629.28,-375.13 634.28,-352.42 644.68,-334.75 652.95,-320.7 666.28,-308.29 677.97,-299.14"/>
<polygon fill="#63b8ff" stroke="#63b8ff" points="623.44,-392.03 625.78,-402.36 630.39,-392.82 623.44,-392.03"/>
</a>
</g>
</g>
<!-- Node14 -->
<g id="Node000014" class="node">
<title>Node14</title>
<g id="a_Node000014"><a xlink:href="solution__output_8h.html" target="_top" xlink:title=" ">
<polygon fill="white" stroke="#666666" points="994.18,-368.25 873.18,-368.25 873.18,-334.75 994.18,-334.75 994.18,-368.25"/>
<text text-anchor="start" x="881.18" y="-354.75" font-family="Helvetica,sans-Serif" font-size="10.00">include/prismspf/core</text>
<text text-anchor="middle" x="933.68" y="-342" font-family="Helvetica,sans-Serif" font-size="10.00">/solution_output.h</text>
</a>
</g>
</g>
<!-- Node11&#45;&gt;Node14 -->
<g id="edge19_Node000011_Node000014" class="edge">
<title>Node11&#45;&gt;Node14</title>
<g id="a_edge19_Node000011_Node000014"><a xlink:title=" ">
<path fill="none" stroke="#63b8ff" d="M703.48,-402.79C756.12,-391.29 824.35,-376.38 872.83,-365.79"/>
<polygon fill="#63b8ff" stroke="#63b8ff" points="702.99,-399.31 693.97,-404.86 704.48,-406.15 702.99,-399.31"/>
</a>
</g>
</g>
<!-- Node16 -->
<g id="Node000016" class="node">
<title>Node16</title>
<g id="a_Node000016"><a xlink:href="nucleation__manager_8h.html" target="_top" xlink:title=" ">
<polygon fill="white" stroke="#666666" points="804.18,-368.25 653.18,-368.25 653.18,-334.75 804.18,-334.75 804.18,-368.25"/>
<text text-anchor="start" x="661.18" y="-354.75" font-family="Helvetica,sans-Serif" font-size="10.00">include/prismspf/nucleation</text>
<text text-anchor="middle" x="728.68" y="-342" font-family="Helvetica,sans-Serif" font-size="10.00">/nucleation_manager.h</text>
</a>
</g>
</g>
<!-- Node11&#45;&gt;Node16 -->
<g id="edge23_Node000011_Node000016" class="edge">
<title>Node11&#45;&gt;Node16</title>
<g id="a_edge23_Node000011_Node000016"><a xlink:title=" ">
<path fill="none" stroke="#63b8ff" d="M658.89,-397.79C673.61,-388.24 690.5,-377.28 703.97,-368.54"/>
<polygon fill="#63b8ff" stroke="#63b8ff" points="657.34,-394.63 650.86,-403.01 661.15,-400.5 657.34,-394.63"/>
</a>
</g>
</g>
<!-- Node11&#45;&gt;Node17 -->
<g id="edge25_Node000011_Node000017" class="edge">
<title>Node11&#45;&gt;Node17</title>
<g id="a_edge25_Node000011_Node000017"><a xlink:title=" ">
<path fill="none" stroke="#63b8ff" d="M585.2,-398.34C567.56,-388.66 547.14,-377.45 530.9,-368.54"/>
<polygon fill="#63b8ff" stroke="#63b8ff" points="583.44,-401.36 593.89,-403.1 586.81,-395.22 583.44,-401.36"/>
</a>
</g>
</g>
<!-- Node12&#45;&gt;Node5 -->
<g id="edge16_Node000012_Node000005" class="edge">
<title>Node12&#45;&gt;Node5</title>
<g id="a_edge16_Node000012_Node000005"><a xlink:title=" ">
<path fill="none" stroke="#63b8ff" d="M749.72,-185.31C727.47,-140.34 682.99,-50.41 668.42,-20.96"/>
<polygon fill="#63b8ff" stroke="#63b8ff" points="746.5,-186.69 754.07,-194.1 752.78,-183.59 746.5,-186.69"/>
</a>
</g>
</g>
<!-- Node13&#45;&gt;Node12 -->
<g id="edge18_Node000013_Node000012" class="edge">
<title>Node13&#45;&gt;Node12</title>
<g id="a_edge18_Node000013_Node000012"><a xlink:title=" ">
<path fill="none" stroke="#63b8ff" d="M723.65,-256.69C731.86,-247.6 740.97,-237.52 748.33,-229.38"/>
<polygon fill="#63b8ff" stroke="#63b8ff" points="721.26,-254.11 717.15,-263.88 726.45,-258.81 721.26,-254.11"/>
</a>
</g>
</g>
<!-- Node14&#45;&gt;Node5 -->
<g id="edge21_Node000014_Node000005" class="edge">
<title>Node14&#45;&gt;Node5</title>
<g id="a_edge21_Node000014_Node000005"><a xlink:title=" ">
<path fill="none" stroke="#63b8ff" d="M981.72,-328.87C994.44,-321.04 1007.03,-311.03 1015.68,-298.75 1038.03,-267.01 1034.68,-252.32 1034.68,-213.5 1034.68,-213.5 1034.68,-213.5 1034.68,-142 1034.68,-76.02 823.26,-35.22 719.62,-19.18"/>
<polygon fill="#63b8ff" stroke="#63b8ff" points="980.27,-325.67 973.33,-333.68 983.75,-331.74 980.27,-325.67"/>
</a>
</g>
</g>
<!-- Node14&#45;&gt;Node14 -->
<g id="edge20_Node000014_Node000014" class="edge">
<title>Node14&#45;&gt;Node14</title>
<g id="a_edge20_Node000014_Node000014"><a xlink:title=" ">
<path fill="none" stroke="#63b8ff" d="M1005.4,-360.45C1009.64,-358.31 1012.18,-355.33 1012.18,-351.5 1012.18,-345.05 1004.97,-341 994.57,-339.33"/>
<polygon fill="#63b8ff" stroke="#63b8ff" points="1004.61,-357.04 996.02,-363.23 1006.6,-363.75 1004.61,-357.04"/>
</a>
</g>
</g>
<!-- Node15 -->
<g id="Node000015" class="node">
<title>Node15</title>
<g id="a_Node000015"><a xlink:href="solution__output_8cc.html" target="_top" xlink:title=" ">
<polygon fill="white" stroke="#666666" points="1006.93,-292.38 860.43,-292.38 860.43,-271.62 1006.93,-271.62 1006.93,-292.38"/>
<text text-anchor="middle" x="933.68" y="-278.88" font-family="Helvetica,sans-Serif" font-size="10.00">src/core/solution_output.cc</text>
</a>
</g>
</g>
<!-- Node14&#45;&gt;Node15 -->
<g id="edge22_Node000014_Node000015" class="edge">
<title>Node14&#45;&gt;Node15</title>
<g id="a_edge22_Node000014_Node000015"><a xlink:title=" ">
<path fill="none" stroke="#63b8ff" d="M933.68,-323.03C933.68,-312.33 933.68,-300.76 933.68,-292.82"/>
<polygon fill="#63b8ff" stroke="#63b8ff" points="930.18,-322.99 933.68,-332.99 937.18,-322.99 930.18,-322.99"/>
</a>
</g>
</g>
<!-- Node16&#45;&gt;Node12 -->
<g id="edge24_Node000016_Node000012" class="edge">
<title>Node16&#45;&gt;Node12</title>
<g id="a_edge24_Node000016_Node000012"><a xlink:title=" ">
<path fill="none" stroke="#63b8ff" d="M757.11,-326.57C764.6,-318.58 771.7,-309.06 775.68,-298.75 784.53,-275.85 776.7,-247.3 769.94,-229.74"/>
<polygon fill="#63b8ff" stroke="#63b8ff" points="754.7,-324.04 750.03,-333.55 759.61,-329.02 754.7,-324.04"/>
</a>
</g>
</g>
<!-- Node17&#45;&gt;Node2 -->
<g id="edge31_Node000017_Node000002" class="edge">
<title>Node17&#45;&gt;Node2</title>
<g id="a_edge31_Node000017_Node000002"><a xlink:title=" ">
<path fill="none" stroke="#63b8ff" d="M437.67,-331.13C404.23,-321 363.77,-308.76 332.04,-299.15"/>
<polygon fill="#63b8ff" stroke="#63b8ff" points="436.23,-334.35 446.82,-333.89 438.26,-327.65 436.23,-334.35"/>
</a>
</g>
</g>
<!-- Node17&#45;&gt;Node3 -->
<g id="edge29_Node000017_Node000003" class="edge">
<title>Node17&#45;&gt;Node3</title>
<g id="a_edge29_Node000017_Node000003"><a xlink:title=" ">
<path fill="none" stroke="#63b8ff" d="M458.32,-328.07C447.67,-320.32 437.63,-310.54 431.68,-298.75 424.97,-285.46 426.62,-279.25 431.68,-265.25 436.6,-251.63 446.84,-239.06 456.1,-229.72"/>
<polygon fill="#63b8ff" stroke="#63b8ff" points="456.23,-330.89 466.49,-333.53 460.12,-325.07 456.23,-330.89"/>
</a>
</g>
</g>
<!-- Node17&#45;&gt;Node5 -->
<g id="edge33_Node000017_Node000005" class="edge">
<title>Node17&#45;&gt;Node5</title>
<g id="a_edge33_Node000017_Node000005"><a xlink:title=" ">
<path fill="none" stroke="#63b8ff" d="M540.14,-328.05C551.27,-320 562.59,-310.08 570.68,-298.75 637.87,-204.65 658.31,-59.45 662.69,-20.99"/>
<polygon fill="#63b8ff" stroke="#63b8ff" points="538.44,-324.97 532.16,-333.51 542.39,-330.75 538.44,-324.97"/>
</a>
</g>
</g>
<!-- Node17&#45;&gt;Node7 -->
<g id="edge30_Node000017_Node000007" class="edge">
<title>Node17&#45;&gt;Node7</title>
<g id="a_edge30_Node000017_Node000007"><a xlink:title=" ">
<path fill="none" stroke="#63b8ff" d="M466.4,-328.28C452.82,-319.41 437.3,-308.92 423.68,-298.75 393.16,-275.98 359.61,-247.15 339.61,-229.53"/>
<polygon fill="#63b8ff" stroke="#63b8ff" points="464.33,-331.1 474.63,-333.59 468.13,-325.22 464.33,-331.1"/>
</a>
</g>
</g>
<!-- Node17&#45;&gt;Node9 -->
<g id="edge32_Node000017_Node000009" class="edge">
<title>Node17&#45;&gt;Node9</title>
<g id="a_edge32_Node000017_Node000009"><a xlink:title=" ">
<path fill="none" stroke="#63b8ff" d="M422.79,-343.48C295.51,-330.25 54.26,-296.72 6.68,-229.25 -17.97,-194.29 33.67,-171.26 81.64,-158.05"/>
<polygon fill="#63b8ff" stroke="#63b8ff" points="422.19,-346.93 432.49,-344.46 422.9,-339.97 422.19,-346.93"/>
</a>
</g>
</g>
<!-- Node17&#45;&gt;Node13 -->
<g id="edge26_Node000017_Node000013" class="edge">
<title>Node17&#45;&gt;Node13</title>
<g id="a_edge26_Node000017_Node000013"><a xlink:title=" ">
<path fill="none" stroke="#63b8ff" d="M560.25,-330.73C590.02,-320.69 625.73,-308.63 653.82,-299.15"/>
<polygon fill="#63b8ff" stroke="#63b8ff" points="559.37,-327.33 551.02,-333.85 561.61,-333.97 559.37,-327.33"/>
</a>
</g>
</g>
<!-- Node18 -->
<g id="Node000018" class="node">
<title>Node18</title>
<g id="a_Node000018"><a xlink:href="constant__solver_8h.html" target="_top" xlink:title=" ">
<polygon fill="white" stroke="#666666" points="600.3,-159.75 465.05,-159.75 465.05,-126.25 600.3,-126.25 600.3,-159.75"/>
<text text-anchor="start" x="473.05" y="-146.25" font-family="Helvetica,sans-Serif" font-size="10.00">include/prismspf/solvers</text>
<text text-anchor="middle" x="532.68" y="-133.5" font-family="Helvetica,sans-Serif" font-size="10.00">/constant_solver.h</text>
</a>
</g>
</g>
<!-- Node17&#45;&gt;Node18 -->
<g id="edge27_Node000017_Node000018" class="edge">
<title>Node17&#45;&gt;Node18</title>
<g id="a_edge27_Node000017_Node000018"><a xlink:title=" ">
<path fill="none" stroke="#63b8ff" d="M532.03,-326.73C539.94,-318.78 547.44,-309.24 551.68,-298.75 568.83,-256.31 559.69,-240.82 551.68,-195.75 549.47,-183.31 544.48,-169.94 540.18,-159.91"/>
<polygon fill="#63b8ff" stroke="#63b8ff" points="529.8,-324.03 524.85,-333.39 534.56,-329.16 529.8,-324.03"/>
</a>
</g>
</g>
<!-- Node19 -->
<g id="Node000019" class="node">
<title>Node19</title>
<g id="a_Node000019"><a xlink:href="solver__base_8cc.html" target="_top" xlink:title=" ">
<polygon fill="white" stroke="#666666" points="542.43,-298.75 440.93,-298.75 440.93,-265.25 542.43,-265.25 542.43,-298.75"/>
<text text-anchor="start" x="448.93" y="-285.25" font-family="Helvetica,sans-Serif" font-size="10.00">src/solvers/solver</text>
<text text-anchor="middle" x="491.68" y="-272.5" font-family="Helvetica,sans-Serif" font-size="10.00">_base.cc</text>
</a>
</g>
</g>
<!-- Node17&#45;&gt;Node19 -->
<g id="edge34_Node000017_Node000019" class="edge">
<title>Node17&#45;&gt;Node19</title>
<g id="a_edge34_Node000017_Node000019"><a xlink:title=" ">
<path fill="none" stroke="#63b8ff" d="M497.66,-323.35C496.42,-315.04 495.11,-306.18 494.03,-298.88"/>
<polygon fill="#63b8ff" stroke="#63b8ff" points="494.16,-323.63 499.09,-333.01 501.08,-322.6 494.16,-323.63"/>
</a>
</g>
</g>
<!-- Node18&#45;&gt;Node4 -->
<g id="edge28_Node000018_Node000004" class="edge">
<title>Node18&#45;&gt;Node4</title>
<g id="a_edge28_Node000018_Node000004"><a xlink:title=" ">
<path fill="none" stroke="#63b8ff" d="M500.56,-119.41C487.14,-109.98 471.85,-99.23 459.6,-90.62"/>
<polygon fill="#63b8ff" stroke="#63b8ff" points="498.5,-122.24 508.69,-125.13 502.52,-116.52 498.5,-122.24"/>
</a>
</g>
</g>
</g>
</svg>
