<?xml version="1.0" encoding="UTF-8" standalone="no"?>
<!DOCTYPE svg PUBLIC "-//W3C//DTD SVG 1.1//EN"
 "http://www.w3.org/Graphics/SVG/1.1/DTD/svg11.dtd">
<!-- Generated by graphviz version 2.43.0 (0)
 -->
<!-- Title: /home/runner/work/phaseField/phaseField/include/prismspf/core/pde_operator_base.h Pages: 1 -->
<svg width="1643pt" height="577pt"
 viewBox="0.00 0.00 1642.50 577.00" xmlns="http://www.w3.org/2000/svg" xmlns:xlink="http://www.w3.org/1999/xlink">
<g id="graph0" class="graph" transform="scale(1 1) rotate(0) translate(4 573)">
<title>/home/runner/work/phaseField/phaseField/include/prismspf/core/pde_operator_base.h</title>
<!-- Node1 -->
<g id="Node000001" class="node">
<title>Node1</title>
<g id="a_Node000001"><a xlink:title=" ">
<polygon fill="#999999" stroke="#666666" points="1261,-569 1097,-569 1097,-528 1261,-528 1261,-569"/>
<text text-anchor="start" x="1105" y="-557" font-family="Helvetica,sans-Serif" font-size="10.00">/home/runner/work/phaseField</text>
<text text-anchor="start" x="1105" y="-546" font-family="Helvetica,sans-Serif" font-size="10.00">/phaseField/include/prismspf</text>
<text text-anchor="middle" x="1179" y="-535" font-family="Helvetica,sans-Serif" font-size="10.00">/core/pde_operator_base.h</text>
</a>
</g>
</g>
<!-- Node2 -->
<g id="Node000002" class="node">
<title>Node2</title>
<g id="a_Node000002"><a xlink:href="mf__operator_8h.html" target="_top" xlink:title=" ">
<polygon fill="white" stroke="#666666" points="584,-338 420,-338 420,-297 584,-297 584,-338"/>
<text text-anchor="start" x="428" y="-326" font-family="Helvetica,sans-Serif" font-size="10.00">/home/runner/work/phaseField</text>
<text text-anchor="start" x="428" y="-315" font-family="Helvetica,sans-Serif" font-size="10.00">/phaseField/include/prismspf</text>
<text text-anchor="middle" x="502" y="-304" font-family="Helvetica,sans-Serif" font-size="10.00">/solvers/mf_operator.h</text>
</a>
</g>
</g>
<!-- Node1&#45;&gt;Node2 -->
<g id="edge1_Node000001_Node000002" class="edge">
<title>Node1&#45;&gt;Node2</title>
<g id="a_edge1_Node000001_Node000002"><a xlink:title=" ">
<path fill="none" stroke="#63b8ff" d="M1089.72,-525.4C1053.04,-515.84 1010.27,-504.09 972,-492 815.66,-442.62 634.73,-371.89 550.19,-338.03"/>
<polygon fill="#63b8ff" stroke="#63b8ff" points="1088.84,-528.79 1099.4,-527.91 1090.6,-522.01 1088.84,-528.79"/>
</a>
</g>
</g>
<!-- Node12 -->
<g id="Node000012" class="node">
<title>Node12</title>
<g id="a_Node000012"><a xlink:href="solve__context_8h.html" target="_top" xlink:title=" ">
<polygon fill="white" stroke="#666666" points="1261,-492 1097,-492 1097,-451 1261,-451 1261,-492"/>
<text text-anchor="start" x="1105" y="-480" font-family="Helvetica,sans-Serif" font-size="10.00">/home/runner/work/phaseField</text>
<text text-anchor="start" x="1105" y="-469" font-family="Helvetica,sans-Serif" font-size="10.00">/phaseField/include/prismspf</text>
<text text-anchor="middle" x="1179" y="-458" font-family="Helvetica,sans-Serif" font-size="10.00">/solvers/solve_context.h</text>
</a>
</g>
</g>
<!-- Node1&#45;&gt;Node12 -->
<g id="edge15_Node000001_Node000012" class="edge">
<title>Node1&#45;&gt;Node12</title>
<g id="a_edge15_Node000001_Node000012"><a xlink:title=" ">
<path fill="none" stroke="#63b8ff" d="M1179,-517.69C1179,-509.08 1179,-499.9 1179,-492.07"/>
<polygon fill="#63b8ff" stroke="#63b8ff" points="1175.5,-517.79 1179,-527.79 1182.5,-517.79 1175.5,-517.79"/>
</a>
</g>
</g>
<!-- Node18 -->
<g id="Node000018" class="node">
<title>Node18</title>
<g id="a_Node000018"><a xlink:href="solver__base_8h.html" target="_top" xlink:title=" ">
<polygon fill="white" stroke="#666666" points="934,-415 770,-415 770,-374 934,-374 934,-415"/>
<text text-anchor="start" x="778" y="-403" font-family="Helvetica,sans-Serif" font-size="10.00">/home/runner/work/phaseField</text>
<text text-anchor="start" x="778" y="-392" font-family="Helvetica,sans-Serif" font-size="10.00">/phaseField/include/prismspf</text>
<text text-anchor="middle" x="852" y="-381" font-family="Helvetica,sans-Serif" font-size="10.00">/solvers/solver_base.h</text>
</a>
</g>
</g>
<!-- Node1&#45;&gt;Node18 -->
<g id="edge37_Node000001_Node000018" class="edge">
<title>Node1&#45;&gt;Node18</title>
<g id="a_edge37_Node000001_Node000018"><a xlink:title=" ">
<path fill="none" stroke="#63b8ff" d="M1127.75,-523.68C1063.34,-493.74 953.99,-442.91 894.18,-415.11"/>
<polygon fill="#63b8ff" stroke="#63b8ff" points="1126.38,-526.9 1136.92,-527.94 1129.33,-520.55 1126.38,-526.9"/>
</a>
</g>
</g>
<!-- Node21 -->
<g id="Node000021" class="node">
<title>Node21</title>
<g id="a_Node000021"><a xlink:href="initial__conditions_8cc.html" target="_top" xlink:title=" ">
<polygon fill="white" stroke="#666666" points="1443,-492 1279,-492 1279,-451 1443,-451 1443,-492"/>
<text text-anchor="start" x="1287" y="-480" font-family="Helvetica,sans-Serif" font-size="10.00">/home/runner/work/phaseField</text>
<text text-anchor="start" x="1287" y="-469" font-family="Helvetica,sans-Serif" font-size="10.00">/phaseField/src/core/initial</text>
<text text-anchor="middle" x="1361" y="-458" font-family="Helvetica,sans-Serif" font-size="10.00">_conditions.cc</text>
</a>
</g>
</g>
<!-- Node1&#45;&gt;Node21 -->
<g id="edge38_Node000001_Node000021" class="edge">
<title>Node1&#45;&gt;Node21</title>
<g id="a_edge38_Node000001_Node000021"><a xlink:title=" ">
<path fill="none" stroke="#63b8ff" d="M1235.71,-524.13C1260.71,-513.83 1289.75,-501.86 1313.58,-492.04"/>
<polygon fill="#63b8ff" stroke="#63b8ff" points="1234.26,-520.94 1226.34,-527.99 1236.92,-527.42 1234.26,-520.94"/>
</a>
</g>
</g>
<!-- Node22 -->
<g id="Node000022" class="node">
<title>Node22</title>
<g id="a_Node000022"><a xlink:href="nonuniform__dirichlet_8cc.html" target="_top" xlink:title=" ">
<polygon fill="white" stroke="#666666" points="1634.5,-492 1461.5,-492 1461.5,-451 1634.5,-451 1634.5,-492"/>
<text text-anchor="start" x="1469.5" y="-480" font-family="Helvetica,sans-Serif" font-size="10.00">/home/runner/work/phaseField</text>
<text text-anchor="start" x="1469.5" y="-469" font-family="Helvetica,sans-Serif" font-size="10.00">/phaseField/src/core/nonuniform</text>
<text text-anchor="middle" x="1548" y="-458" font-family="Helvetica,sans-Serif" font-size="10.00">_dirichlet.cc</text>
</a>
</g>
</g>
<!-- Node1&#45;&gt;Node22 -->
<g id="edge39_Node000001_Node000022" class="edge">
<title>Node1&#45;&gt;Node22</title>
<g id="a_edge39_Node000001_Node000022"><a xlink:title=" ">
<path fill="none" stroke="#63b8ff" d="M1271.29,-528.74C1329.53,-516.9 1404.28,-501.71 1461.41,-490.1"/>
<polygon fill="#63b8ff" stroke="#63b8ff" points="1270.45,-525.34 1261.35,-530.76 1271.85,-532.2 1270.45,-525.34"/>
</a>
</g>
</g>
<!-- Node3 -->
<g id="Node000003" class="node">
<title>Node3</title>
<g id="a_Node000003"><a xlink:href="explicit__solver_8h.html" target="_top" xlink:title=" ">
<polygon fill="white" stroke="#666666" points="164,-261 0,-261 0,-220 164,-220 164,-261"/>
<text text-anchor="start" x="8" y="-249" font-family="Helvetica,sans-Serif" font-size="10.00">/home/runner/work/phaseField</text>
<text text-anchor="start" x="8" y="-238" font-family="Helvetica,sans-Serif" font-size="10.00">/phaseField/include/prismspf</text>
<text text-anchor="middle" x="82" y="-227" font-family="Helvetica,sans-Serif" font-size="10.00">/solvers/explicit_solver.h</text>
</a>
</g>
</g>
<!-- Node2&#45;&gt;Node3 -->
<g id="edge2_Node000002_Node000003" class="edge">
<title>Node2&#45;&gt;Node3</title>
<g id="a_edge2_Node000002_Node000003"><a xlink:title=" ">
<path fill="none" stroke="#63b8ff" d="M409.71,-302.04C343.66,-291.43 252.68,-276.25 173,-261 170.14,-260.45 167.24,-259.89 164.31,-259.31"/>
<polygon fill="#63b8ff" stroke="#63b8ff" points="409.25,-305.52 419.68,-303.64 410.36,-298.6 409.25,-305.52"/>
</a>
</g>
</g>
<!-- Node7 -->
<g id="Node000007" class="node">
<title>Node7</title>
<g id="a_Node000007"><a xlink:href="linear__helper_8h.html" target="_top" xlink:title=" ">
<polygon fill="white" stroke="#666666" points="786,-261 622,-261 622,-220 786,-220 786,-261"/>
<text text-anchor="start" x="630" y="-249" font-family="Helvetica,sans-Serif" font-size="10.00">/home/runner/work/phaseField</text>
<text text-anchor="start" x="630" y="-238" font-family="Helvetica,sans-Serif" font-size="10.00">/phaseField/include/prismspf</text>
<text text-anchor="middle" x="704" y="-227" font-family="Helvetica,sans-Serif" font-size="10.00">/solvers/linear_helper.h</text>
</a>
</g>
</g>
<!-- Node2&#45;&gt;Node7 -->
<g id="edge6_Node000002_Node000007" class="edge">
<title>Node2&#45;&gt;Node7</title>
<g id="a_edge6_Node000002_Node000007"><a xlink:title=" ">
<path fill="none" stroke="#63b8ff" d="M564.21,-293.4C592.12,-283.04 624.69,-270.95 651.37,-261.04"/>
<polygon fill="#63b8ff" stroke="#63b8ff" points="562.7,-290.23 554.55,-296.99 565.14,-296.79 562.7,-290.23"/>
</a>
</g>
</g>
<!-- Node8 -->
<g id="Node000008" class="node">
<title>Node8</title>
<g id="a_Node000008"><a xlink:href="linear__solver_8h.html" target="_top" xlink:title=" ">
<polygon fill="white" stroke="#666666" points="566,-261 402,-261 402,-220 566,-220 566,-261"/>
<text text-anchor="start" x="410" y="-249" font-family="Helvetica,sans-Serif" font-size="10.00">/home/runner/work/phaseField</text>
<text text-anchor="start" x="410" y="-238" font-family="Helvetica,sans-Serif" font-size="10.00">/phaseField/include/prismspf</text>
<text text-anchor="middle" x="484" y="-227" font-family="Helvetica,sans-Serif" font-size="10.00">/solvers/linear_solver.h</text>
</a>
</g>
</g>
<!-- Node2&#45;&gt;Node8 -->
<g id="edge7_Node000002_Node000008" class="edge">
<title>Node2&#45;&gt;Node8</title>
<g id="a_edge7_Node000002_Node000008"><a xlink:title=" ">
<path fill="none" stroke="#63b8ff" d="M494.91,-286.98C492.83,-278.28 490.6,-268.98 488.7,-261.07"/>
<polygon fill="#63b8ff" stroke="#63b8ff" points="491.53,-287.89 497.27,-296.79 498.34,-286.25 491.53,-287.89"/>
</a>
</g>
</g>
<!-- Node9 -->
<g id="Node000009" class="node">
<title>Node9</title>
<g id="a_Node000009"><a xlink:href="mg__solver_8h.html" target="_top" xlink:title=" ">
<polygon fill="white" stroke="#666666" points="456,-184 292,-184 292,-143 456,-143 456,-184"/>
<text text-anchor="start" x="300" y="-172" font-family="Helvetica,sans-Serif" font-size="10.00">/home/runner/work/phaseField</text>
<text text-anchor="start" x="300" y="-161" font-family="Helvetica,sans-Serif" font-size="10.00">/phaseField/include/prismspf</text>
<text text-anchor="middle" x="374" y="-150" font-family="Helvetica,sans-Serif" font-size="10.00">/solvers/mg_solver.h</text>
</a>
</g>
</g>
<!-- Node2&#45;&gt;Node9 -->
<g id="edge12_Node000002_Node000009" class="edge">
<title>Node2&#45;&gt;Node9</title>
<g id="a_edge12_Node000002_Node000009"><a xlink:title=" ">
<path fill="none" stroke="#63b8ff" d="M431.35,-292.31C416.8,-284.38 402.91,-274.12 393,-261 376.12,-238.66 373.07,-205.34 373.06,-184.27"/>
<polygon fill="#63b8ff" stroke="#63b8ff" points="429.97,-295.53 440.47,-296.95 433.15,-289.29 429.97,-295.53"/>
</a>
</g>
</g>
<!-- Node10 -->
<g id="Node000010" class="node">
<title>Node10</title>
<g id="a_Node000010"><a xlink:href="newton__solver_8h.html" target="_top" xlink:title=" ">
<polygon fill="white" stroke="#666666" points="676,-184 512,-184 512,-143 676,-143 676,-184"/>
<text text-anchor="start" x="520" y="-172" font-family="Helvetica,sans-Serif" font-size="10.00">/home/runner/work/phaseField</text>
<text text-anchor="start" x="520" y="-161" font-family="Helvetica,sans-Serif" font-size="10.00">/phaseField/include/prismspf</text>
<text text-anchor="middle" x="594" y="-150" font-family="Helvetica,sans-Serif" font-size="10.00">/solvers/newton_solver.h</text>
</a>
</g>
</g>
<!-- Node2&#45;&gt;Node10 -->
<g id="edge13_Node000002_Node000010" class="edge">
<title>Node2&#45;&gt;Node10</title>
<g id="a_edge13_Node000002_Node000010"><a xlink:title=" ">
<path fill="none" stroke="#63b8ff" d="M546.21,-290.97C557.12,-282.71 567.75,-272.63 575,-261 589.73,-237.38 593.4,-204.72 594.13,-184.1"/>
<polygon fill="#63b8ff" stroke="#63b8ff" points="543.97,-288.27 537.86,-296.93 548.04,-293.97 543.97,-288.27"/>
</a>
</g>
</g>
<!-- Node11 -->
<g id="Node000011" class="node">
<title>Node11</title>
<g id="a_Node000011"><a xlink:href="mf__operator_8cc.html" target="_top" xlink:title=" ">
<polygon fill="white" stroke="#666666" points="346,-261 182,-261 182,-220 346,-220 346,-261"/>
<text text-anchor="start" x="190" y="-249" font-family="Helvetica,sans-Serif" font-size="10.00">/home/runner/work/phaseField</text>
<text text-anchor="start" x="190" y="-238" font-family="Helvetica,sans-Serif" font-size="10.00">/phaseField/src/solvers/mf</text>
<text text-anchor="middle" x="264" y="-227" font-family="Helvetica,sans-Serif" font-size="10.00">_operator.cc</text>
</a>
</g>
</g>
<!-- Node2&#45;&gt;Node11 -->
<g id="edge14_Node000002_Node000011" class="edge">
<title>Node2&#45;&gt;Node11</title>
<g id="a_edge14_Node000002_Node000011"><a xlink:title=" ">
<path fill="none" stroke="#63b8ff" d="M430.43,-293.94C397.16,-283.46 357.99,-271.12 326.01,-261.04"/>
<polygon fill="#63b8ff" stroke="#63b8ff" points="429.5,-297.32 440.09,-296.99 431.6,-290.65 429.5,-297.32"/>
</a>
</g>
</g>
<!-- Node4 -->
<g id="Node000004" class="node">
<title>Node4</title>
<g id="a_Node000004"><a xlink:href="solvers_8h.html" target="_top" xlink:title=" ">
<polygon fill="white" stroke="#666666" points="676,-107 512,-107 512,-66 676,-66 676,-107"/>
<text text-anchor="start" x="520" y="-95" font-family="Helvetica,sans-Serif" font-size="10.00">/home/runner/work/phaseField</text>
<text text-anchor="start" x="520" y="-84" font-family="Helvetica,sans-Serif" font-size="10.00">/phaseField/include/prismspf</text>
<text text-anchor="middle" x="594" y="-73" font-family="Helvetica,sans-Serif" font-size="10.00">/solvers/solvers.h</text>
</a>
</g>
</g>
<!-- Node3&#45;&gt;Node4 -->
<g id="edge3_Node000003_Node000004" class="edge">
<title>Node3&#45;&gt;Node4</title>
<g id="a_edge3_Node000003_Node000004"><a xlink:title=" ">
<path fill="none" stroke="#63b8ff" d="M124.56,-214.86C164.31,-192.89 225.92,-161.42 283,-143 358.68,-118.58 448.41,-104.02 511.98,-95.98"/>
<polygon fill="#63b8ff" stroke="#63b8ff" points="122.71,-211.89 115.68,-219.82 126.12,-218 122.71,-211.89"/>
</a>
</g>
</g>
<!-- Node5 -->
<g id="Node000005" class="node">
<title>Node5</title>
<g id="a_Node000005"><a xlink:href="problem_8cc.html" target="_top" xlink:title=" ">
<polygon fill="white" stroke="#666666" points="1218,-30 1048,-30 1048,0 1218,0 1218,-30"/>
<text text-anchor="start" x="1056" y="-18" font-family="Helvetica,sans-Serif" font-size="10.00">/home/runner/work/phaseField</text>
<text text-anchor="middle" x="1133" y="-7" font-family="Helvetica,sans-Serif" font-size="10.00">/phaseField/src/core/problem.cc</text>
</a>
</g>
</g>
<!-- Node4&#45;&gt;Node5 -->
<g id="edge4_Node000004_Node000005" class="edge">
<title>Node4&#45;&gt;Node5</title>
<g id="a_edge4_Node000004_Node000005"><a xlink:title=" ">
<path fill="none" stroke="#63b8ff" d="M686.08,-73.63C787.49,-60.55 949.21,-39.7 1047.79,-26.99"/>
<polygon fill="#63b8ff" stroke="#63b8ff" points="685.63,-70.16 676.16,-74.91 686.52,-77.1 685.63,-70.16"/>
</a>
</g>
</g>
<!-- Node6 -->
<g id="Node000006" class="node">
<title>Node6</title>
<g id="a_Node000006"><a xlink:href="solvers_8cc.html" target="_top" xlink:title=" ">
<polygon fill="white" stroke="#666666" points="683.5,-30 504.5,-30 504.5,0 683.5,0 683.5,-30"/>
<text text-anchor="start" x="512.5" y="-18" font-family="Helvetica,sans-Serif" font-size="10.00">/home/runner/work/phaseField</text>
<text text-anchor="middle" x="594" y="-7" font-family="Helvetica,sans-Serif" font-size="10.00">/phaseField/src/solvers/solvers.cc</text>
</a>
</g>
</g>
<!-- Node4&#45;&gt;Node6 -->
<g id="edge5_Node000004_Node000006" class="edge">
<title>Node4&#45;&gt;Node6</title>
<g id="a_edge5_Node000004_Node000006"><a xlink:title=" ">
<path fill="none" stroke="#63b8ff" d="M594,-55.66C594,-46.76 594,-37.42 594,-30.04"/>
<polygon fill="#63b8ff" stroke="#63b8ff" points="590.5,-55.77 594,-65.77 597.5,-55.77 590.5,-55.77"/>
</a>
</g>
</g>
<!-- Node8&#45;&gt;Node4 -->
<g id="edge11_Node000008_Node000004" class="edge">
<title>Node8&#45;&gt;Node4</title>
<g id="a_edge11_Node000008_Node000004"><a xlink:title=" ">
<path fill="none" stroke="#63b8ff" d="M483.76,-209.94C484.95,-189.5 489.36,-162.56 503,-143 513.69,-127.67 530.11,-115.79 546.07,-107.04"/>
<polygon fill="#63b8ff" stroke="#63b8ff" points="480.26,-209.85 483.39,-219.97 487.25,-210.1 480.26,-209.85"/>
</a>
</g>
</g>
<!-- Node8&#45;&gt;Node9 -->
<g id="edge8_Node000008_Node000009" class="edge">
<title>Node8&#45;&gt;Node9</title>
<g id="a_edge8_Node000008_Node000009"><a xlink:title=" ">
<path fill="none" stroke="#63b8ff" d="M446.74,-214.09C432.4,-204.32 416.28,-193.32 402.85,-184.17"/>
<polygon fill="#63b8ff" stroke="#63b8ff" points="445.15,-217.25 455.39,-219.99 449.1,-211.47 445.15,-217.25"/>
</a>
</g>
</g>
<!-- Node8&#45;&gt;Node10 -->
<g id="edge9_Node000008_Node000010" class="edge">
<title>Node8&#45;&gt;Node10</title>
<g id="a_edge9_Node000008_Node000010"><a xlink:title=" ">
<path fill="none" stroke="#63b8ff" d="M521.26,-214.09C535.6,-204.32 551.72,-193.32 565.15,-184.17"/>
<polygon fill="#63b8ff" stroke="#63b8ff" points="518.9,-211.47 512.61,-219.99 522.85,-217.25 518.9,-211.47"/>
</a>
</g>
</g>
<!-- Node10&#45;&gt;Node4 -->
<g id="edge10_Node000010_Node000004" class="edge">
<title>Node10&#45;&gt;Node4</title>
<g id="a_edge10_Node000010_Node000004"><a xlink:title=" ">
<path fill="none" stroke="#63b8ff" d="M594,-132.69C594,-124.08 594,-114.9 594,-107.07"/>
<polygon fill="#63b8ff" stroke="#63b8ff" points="590.5,-132.79 594,-142.79 597.5,-132.79 590.5,-132.79"/>
</a>
</g>
</g>
<!-- Node13 -->
<g id="Node000013" class="node">
<title>Node13</title>
<g id="a_Node000013"><a xlink:href="problem_8h.html" target="_top" xlink:title=" ">
<polygon fill="white" stroke="#666666" points="1359,-261 1195,-261 1195,-220 1359,-220 1359,-261"/>
<text text-anchor="start" x="1203" y="-249" font-family="Helvetica,sans-Serif" font-size="10.00">/home/runner/work/phaseField</text>
<text text-anchor="start" x="1203" y="-238" font-family="Helvetica,sans-Serif" font-size="10.00">/phaseField/include/prismspf</text>
<text text-anchor="middle" x="1277" y="-227" font-family="Helvetica,sans-Serif" font-size="10.00">/core/problem.h</text>
</a>
</g>
</g>
<!-- Node12&#45;&gt;Node13 -->
<g id="edge16_Node000012_Node000013" class="edge">
<title>Node12&#45;&gt;Node13</title>
<g id="a_edge16_Node000012_Node000013"><a xlink:title=" ">
<path fill="none" stroke="#63b8ff" d="M1193.36,-441.77C1203.92,-421.88 1219.28,-395.26 1236,-374 1250.18,-355.96 1263.64,-358.95 1273,-338 1284.01,-313.35 1282.76,-281.54 1280.31,-261.32"/>
<polygon fill="#63b8ff" stroke="#63b8ff" points="1190.24,-440.18 1188.72,-450.67 1196.45,-443.42 1190.24,-440.18"/>
</a>
</g>
</g>
<!-- Node14 -->
<g id="Node000014" class="node">
<title>Node14</title>
<g id="a_Node000014"><a xlink:href="refinement__manager_8h.html" target="_top" xlink:title=" ">
<polygon fill="white" stroke="#666666" points="1264,-338 1100,-338 1100,-297 1264,-297 1264,-338"/>
<text text-anchor="start" x="1108" y="-326" font-family="Helvetica,sans-Serif" font-size="10.00">/home/runner/work/phaseField</text>
<text text-anchor="start" x="1108" y="-315" font-family="Helvetica,sans-Serif" font-size="10.00">/phaseField/include/prismspf</text>
<text text-anchor="middle" x="1182" y="-304" font-family="Helvetica,sans-Serif" font-size="10.00">/core/refinement_manager.h</text>
</a>
</g>
</g>
<!-- Node12&#45;&gt;Node14 -->
<g id="edge18_Node000012_Node000014" class="edge">
<title>Node12&#45;&gt;Node14</title>
<g id="a_edge18_Node000012_Node000014"><a xlink:title=" ">
<path fill="none" stroke="#63b8ff" d="M1179.59,-440.58C1180.19,-410.36 1181.09,-364.53 1181.61,-338.47"/>
<polygon fill="#63b8ff" stroke="#63b8ff" points="1176.08,-440.87 1179.39,-450.94 1183.08,-441.01 1176.08,-440.87"/>
</a>
</g>
</g>
<!-- Node15 -->
<g id="Node000015" class="node">
<title>Node15</title>
<g id="a_Node000015"><a xlink:href="solution__output_8h.html" target="_top" xlink:title=" ">
<polygon fill="white" stroke="#666666" points="1609,-415 1445,-415 1445,-374 1609,-374 1609,-415"/>
<text text-anchor="start" x="1453" y="-403" font-family="Helvetica,sans-Serif" font-size="10.00">/home/runner/work/phaseField</text>
<text text-anchor="start" x="1453" y="-392" font-family="Helvetica,sans-Serif" font-size="10.00">/phaseField/include/prismspf</text>
<text text-anchor="middle" x="1527" y="-381" font-family="Helvetica,sans-Serif" font-size="10.00">/core/solution_output.h</text>
</a>
</g>
</g>
<!-- Node12&#45;&gt;Node15 -->
<g id="edge20_Node000012_Node000015" class="edge">
<title>Node12&#45;&gt;Node15</title>
<g id="a_edge20_Node000012_Node000015"><a xlink:title=" ">
<path fill="none" stroke="#63b8ff" d="M1270.95,-450.68C1324.98,-439.04 1392.7,-424.44 1444.92,-413.19"/>
<polygon fill="#63b8ff" stroke="#63b8ff" points="1270.07,-447.29 1261.03,-452.82 1271.54,-454.14 1270.07,-447.29"/>
</a>
</g>
</g>
<!-- Node17 -->
<g id="Node000017" class="node">
<title>Node17</title>
<g id="a_Node000017"><a xlink:href="nucleation__manager_8h.html" target="_top" xlink:title=" ">
<polygon fill="white" stroke="#666666" points="1427,-415 1245,-415 1245,-374 1427,-374 1427,-415"/>
<text text-anchor="start" x="1253" y="-403" font-family="Helvetica,sans-Serif" font-size="10.00">/home/runner/work/phaseField</text>
<text text-anchor="start" x="1253" y="-392" font-family="Helvetica,sans-Serif" font-size="10.00">/phaseField/include/prismspf</text>
<text text-anchor="middle" x="1336" y="-381" font-family="Helvetica,sans-Serif" font-size="10.00">/nucleation/nucleation_manager.h</text>
</a>
</g>
</g>
<!-- Node12&#45;&gt;Node17 -->
<g id="edge24_Node000012_Node000017" class="edge">
<title>Node12&#45;&gt;Node17</title>
<g id="a_edge24_Node000012_Node000017"><a xlink:title=" ">
<path fill="none" stroke="#63b8ff" d="M1229.06,-446.59C1250.37,-436.41 1274.9,-424.69 1295.09,-415.04"/>
<polygon fill="#63b8ff" stroke="#63b8ff" points="1227.35,-443.52 1219.84,-450.99 1230.37,-449.84 1227.35,-443.52"/>
</a>
</g>
</g>
<!-- Node12&#45;&gt;Node18 -->
<g id="edge26_Node000012_Node000018" class="edge">
<title>Node12&#45;&gt;Node18</title>
<g id="a_edge26_Node000012_Node000018"><a xlink:title=" ">
<path fill="none" stroke="#63b8ff" d="M1087.12,-449.43C1039.05,-438.4 980.68,-425.01 934.13,-414.34"/>
<polygon fill="#63b8ff" stroke="#63b8ff" points="1086.38,-452.85 1096.91,-451.67 1087.94,-446.02 1086.38,-452.85"/>
</a>
</g>
</g>
<!-- Node13&#45;&gt;Node5 -->
<g id="edge17_Node000013_Node000005" class="edge">
<title>Node13&#45;&gt;Node5</title>
<g id="a_edge17_Node000013_Node000005"><a xlink:title=" ">
<path fill="none" stroke="#63b8ff" d="M1258.79,-211.24C1227.68,-162.96 1165.41,-66.3 1142.09,-30.11"/>
<polygon fill="#63b8ff" stroke="#63b8ff" points="1255.86,-213.16 1264.22,-219.67 1261.75,-209.36 1255.86,-213.16"/>
</a>
</g>
</g>
<!-- Node14&#45;&gt;Node13 -->
<g id="edge19_Node000014_Node000013" class="edge">
<title>Node14&#45;&gt;Node13</title>
<g id="a_edge19_Node000014_Node000013"><a xlink:title=" ">
<path fill="none" stroke="#63b8ff" d="M1215.13,-290.35C1227.31,-280.73 1240.88,-270.01 1252.21,-261.07"/>
<polygon fill="#63b8ff" stroke="#63b8ff" points="1212.64,-287.85 1206.96,-296.79 1216.98,-293.35 1212.64,-287.85"/>
</a>
</g>
</g>
<!-- Node15&#45;&gt;Node5 -->
<g id="edge22_Node000015_Node000005" class="edge">
<title>Node15&#45;&gt;Node5</title>
<g id="a_edge22_Node000015_Node000005"><a xlink:title=" ">
<path fill="none" stroke="#63b8ff" d="M1472.91,-368.68C1459.43,-360.46 1445.99,-350.22 1436,-338 1407.12,-302.68 1401,-287.12 1401,-241.5 1401,-241.5 1401,-241.5 1401,-162.5 1401,-77.79 1296.64,-41.76 1218.17,-26.63"/>
<polygon fill="#63b8ff" stroke="#63b8ff" points="1471.33,-371.81 1481.74,-373.79 1474.84,-365.75 1471.33,-371.81"/>
</a>
</g>
</g>
<!-- Node15&#45;&gt;Node15 -->
<g id="edge21_Node000015_Node000015" class="edge">
<title>Node15&#45;&gt;Node15</title>
<g id="a_edge21_Node000015_Node000015"><a xlink:title=" ">
<path fill="none" stroke="#63b8ff" d="M1619.27,-403.88C1624.12,-401.57 1627,-398.45 1627,-394.5 1627,-388.34 1619.99,-384.18 1609.38,-382.01"/>
<polygon fill="#63b8ff" stroke="#63b8ff" points="1617.87,-400.65 1609.38,-406.99 1619.97,-407.33 1617.87,-400.65"/>
</a>
</g>
</g>
<!-- Node16 -->
<g id="Node000016" class="node">
<title>Node16</title>
<g id="a_Node000016"><a xlink:href="solution__output_8cc.html" target="_top" xlink:title=" ">
<polygon fill="white" stroke="#666666" points="1609,-338 1445,-338 1445,-297 1609,-297 1609,-338"/>
<text text-anchor="start" x="1453" y="-326" font-family="Helvetica,sans-Serif" font-size="10.00">/home/runner/work/phaseField</text>
<text text-anchor="start" x="1453" y="-315" font-family="Helvetica,sans-Serif" font-size="10.00">/phaseField/src/core/solution</text>
<text text-anchor="middle" x="1527" y="-304" font-family="Helvetica,sans-Serif" font-size="10.00">_output.cc</text>
</a>
</g>
</g>
<!-- Node15&#45;&gt;Node16 -->
<g id="edge23_Node000015_Node000016" class="edge">
<title>Node15&#45;&gt;Node16</title>
<g id="a_edge23_Node000015_Node000016"><a xlink:title=" ">
<path fill="none" stroke="#63b8ff" d="M1527,-363.69C1527,-355.08 1527,-345.9 1527,-338.07"/>
<polygon fill="#63b8ff" stroke="#63b8ff" points="1523.5,-363.79 1527,-373.79 1530.5,-363.79 1523.5,-363.79"/>
</a>
</g>
</g>
<!-- Node17&#45;&gt;Node13 -->
<g id="edge25_Node000017_Node000013" class="edge">
<title>Node17&#45;&gt;Node13</title>
<g id="a_edge25_Node000017_Node000013"><a xlink:title=" ">
<path fill="none" stroke="#63b8ff" d="M1328.36,-364.15C1322.96,-344.77 1315.08,-318.99 1306,-297 1300.94,-284.74 1294.12,-271.56 1288.36,-261.12"/>
<polygon fill="#63b8ff" stroke="#63b8ff" points="1325.02,-365.19 1331.03,-373.91 1331.77,-363.34 1325.02,-365.19"/>
</a>
</g>
</g>
<!-- Node18&#45;&gt;Node2 -->
<g id="edge33_Node000018_Node000002" class="edge">
<title>Node18&#45;&gt;Node2</title>
<g id="a_edge33_Node000018_Node000002"><a xlink:title=" ">
<path fill="none" stroke="#63b8ff" d="M759.93,-373.77C705.38,-362.08 636.86,-347.4 584.15,-336.1"/>
<polygon fill="#63b8ff" stroke="#63b8ff" points="759.43,-377.24 769.94,-375.92 760.9,-370.4 759.43,-377.24"/>
</a>
</g>
</g>
<!-- Node18&#45;&gt;Node3 -->
<g id="edge30_Node000018_Node000003" class="edge">
<title>Node18&#45;&gt;Node3</title>
<g id="a_edge30_Node000018_Node000003"><a xlink:title=" ">
<path fill="none" stroke="#63b8ff" d="M759.52,-386.2C669.79,-378.1 530.12,-362.8 411,-338 313.68,-317.74 203.33,-282.85 138.36,-261.03"/>
<polygon fill="#63b8ff" stroke="#63b8ff" points="759.4,-389.7 769.67,-387.11 760.02,-382.73 759.4,-389.7"/>
</a>
</g>
</g>
<!-- Node18&#45;&gt;Node5 -->
<g id="edge35_Node000018_Node000005" class="edge">
<title>Node18&#45;&gt;Node5</title>
<g id="a_edge35_Node000018_Node000005"><a xlink:title=" ">
<path fill="none" stroke="#63b8ff" d="M944.37,-388.91C983,-382.24 1025.26,-367.91 1053,-338 1082.73,-305.95 1072,-285.21 1072,-241.5 1072,-241.5 1072,-241.5 1072,-162.5 1072,-110.43 1105.25,-55.39 1122.65,-30.15"/>
<polygon fill="#63b8ff" stroke="#63b8ff" points="943.45,-385.51 934.12,-390.52 944.54,-392.43 943.45,-385.51"/>
</a>
</g>
</g>
<!-- Node18&#45;&gt;Node7 -->
<g id="edge31_Node000018_Node000007" class="edge">
<title>Node18&#45;&gt;Node7</title>
<g id="a_edge31_Node000018_Node000007"><a xlink:title=" ">
<path fill="none" stroke="#63b8ff" d="M825.91,-366.7C796.6,-336.6 749.71,-288.44 723.44,-261.47"/>
<polygon fill="#63b8ff" stroke="#63b8ff" points="823.47,-369.22 832.95,-373.94 828.49,-364.33 823.47,-369.22"/>
</a>
</g>
</g>
<!-- Node18&#45;&gt;Node8 -->
<g id="edge32_Node000018_Node000008" class="edge">
<title>Node18&#45;&gt;Node8</title>
<g id="a_edge32_Node000018_Node000008"><a xlink:title=" ">
<path fill="none" stroke="#63b8ff" d="M795.22,-370.05C722.85,-340.16 599.06,-289.02 531.47,-261.11"/>
<polygon fill="#63b8ff" stroke="#63b8ff" points="794.07,-373.36 804.64,-373.94 796.74,-366.89 794.07,-373.36"/>
</a>
</g>
</g>
<!-- Node18&#45;&gt;Node10 -->
<g id="edge34_Node000018_Node000010" class="edge">
<title>Node18&#45;&gt;Node10</title>
<g id="a_edge34_Node000018_Node000010"><a xlink:title=" ">
<path fill="none" stroke="#63b8ff" d="M843.93,-363.91C830.91,-317.09 805.67,-230.17 795,-220 777.51,-203.33 723.6,-188.95 676.01,-179.01"/>
<polygon fill="#63b8ff" stroke="#63b8ff" points="840.62,-365.09 846.66,-373.8 847.37,-363.22 840.62,-365.09"/>
</a>
</g>
</g>
<!-- Node18&#45;&gt;Node14 -->
<g id="edge27_Node000018_Node000014" class="edge">
<title>Node18&#45;&gt;Node14</title>
<g id="a_edge27_Node000018_Node000014"><a xlink:title=" ">
<path fill="none" stroke="#63b8ff" d="M944.35,-372.51C993.16,-361.42 1052.56,-347.92 1099.77,-337.19"/>
<polygon fill="#63b8ff" stroke="#63b8ff" points="943.4,-369.14 934.42,-374.77 944.95,-375.96 943.4,-369.14"/>
</a>
</g>
</g>
<!-- Node19 -->
<g id="Node000019" class="node">
<title>Node19</title>
<g id="a_Node000019"><a xlink:href="constant__solver_8h.html" target="_top" xlink:title=" ">
<polygon fill="white" stroke="#666666" points="896,-184 732,-184 732,-143 896,-143 896,-184"/>
<text text-anchor="start" x="740" y="-172" font-family="Helvetica,sans-Serif" font-size="10.00">/home/runner/work/phaseField</text>
<text text-anchor="start" x="740" y="-161" font-family="Helvetica,sans-Serif" font-size="10.00">/phaseField/include/prismspf</text>
<text text-anchor="middle" x="814" y="-150" font-family="Helvetica,sans-Serif" font-size="10.00">/solvers/constant_solver.h</text>
</a>
</g>
</g>
<!-- Node18&#45;&gt;Node19 -->
<g id="edge28_Node000018_Node000019" class="edge">
<title>Node18&#45;&gt;Node19</title>
<g id="a_edge28_Node000018_Node000019"><a xlink:title=" ">
<path fill="none" stroke="#63b8ff" d="M848.86,-363.48C844.99,-328.76 837.73,-269.96 828,-220 825.66,-208 822.34,-194.72 819.52,-184.16"/>
<polygon fill="#63b8ff" stroke="#63b8ff" points="845.43,-364.31 849.99,-373.87 852.39,-363.55 845.43,-364.31"/>
</a>
</g>
</g>
<!-- Node20 -->
<g id="Node000020" class="node">
<title>Node20</title>
<g id="a_Node000020"><a xlink:href="solver__base_8cc.html" target="_top" xlink:title=" ">
<polygon fill="white" stroke="#666666" points="1044,-338 880,-338 880,-297 1044,-297 1044,-338"/>
<text text-anchor="start" x="888" y="-326" font-family="Helvetica,sans-Serif" font-size="10.00">/home/runner/work/phaseField</text>
<text text-anchor="start" x="888" y="-315" font-family="Helvetica,sans-Serif" font-size="10.00">/phaseField/src/solvers/solver</text>
<text text-anchor="middle" x="962" y="-304" font-family="Helvetica,sans-Serif" font-size="10.00">_base.cc</text>
</a>
</g>
</g>
<!-- Node18&#45;&gt;Node20 -->
<g id="edge36_Node000018_Node000020" class="edge">
<title>Node18&#45;&gt;Node20</title>
<g id="a_edge36_Node000018_Node000020"><a xlink:title=" ">
<path fill="none" stroke="#63b8ff" d="M889.26,-368.09C903.6,-358.32 919.72,-347.32 933.15,-338.17"/>
<polygon fill="#63b8ff" stroke="#63b8ff" points="886.9,-365.47 880.61,-373.99 890.85,-371.25 886.9,-365.47"/>
</a>
</g>
</g>
<!-- Node19&#45;&gt;Node4 -->
<g id="edge29_Node000019_Node000004" class="edge">
<title>Node19&#45;&gt;Node4</title>
<g id="a_edge29_Node000019_Node000004"><a xlink:title=" ">
<path fill="none" stroke="#63b8ff" d="M747.05,-139.67C716.47,-129.25 680.63,-117.03 651.32,-107.04"/>
<polygon fill="#63b8ff" stroke="#63b8ff" points="746.18,-143.08 756.77,-142.99 748.44,-136.45 746.18,-143.08"/>
</a>
</g>
</g>
</g>
</svg>
