<?xml version="1.0" encoding="UTF-8" standalone="no"?>
<!DOCTYPE svg PUBLIC "-//W3C//DTD SVG 1.1//EN"
 "http://www.w3.org/Graphics/SVG/1.1/DTD/svg11.dtd">
<!-- Generated by graphviz version 12.2.1 (20241206.2353)
 -->
<!-- Title: /__w/phaseField/phaseField/include/prismspf/core/pde_operator_base.h Pages: 1 -->
<svg width="1219pt" height="617pt"
 viewBox="0.00 0.00 1219.38 617.25" xmlns="http://www.w3.org/2000/svg" xmlns:xlink="http://www.w3.org/1999/xlink">
<g id="graph0" class="graph" transform="scale(1 1) rotate(0) translate(4 613.25)">
<title>/__w/phaseField/phaseField/include/prismspf/core/pde_operator_base.h</title>
<!-- Node1 -->
<g id="Node000001" class="node">
<title>Node1</title>
<g id="a_Node000001"><a xlink:title=" ">
<polygon fill="#999999" stroke="#666666" points="863.75,-609.25 715,-609.25 715,-563 863.75,-563 863.75,-609.25"/>
<text text-anchor="start" x="723" y="-595.75" font-family="Helvetica,sans-Serif" font-size="10.00">/__w/phaseField/phaseField</text>
<text text-anchor="start" x="723" y="-583" font-family="Helvetica,sans-Serif" font-size="10.00">/include/prismspf/core/pde</text>
<text text-anchor="middle" x="789.38" y="-570.25" font-family="Helvetica,sans-Serif" font-size="10.00">_operator_base.h</text>
</a>
</g>
</g>
<!-- Node2 -->
<g id="Node000002" class="node">
<title>Node2</title>
<g id="a_Node000002"><a xlink:href="mf__operator_8h.html" target="_top" xlink:title=" ">
<polygon fill="white" stroke="#666666" points="417.75,-362.5 269,-362.5 269,-316.25 417.75,-316.25 417.75,-362.5"/>
<text text-anchor="start" x="277" y="-349" font-family="Helvetica,sans-Serif" font-size="10.00">/__w/phaseField/phaseField</text>
<text text-anchor="start" x="277" y="-336.25" font-family="Helvetica,sans-Serif" font-size="10.00">/include/prismspf/solvers</text>
<text text-anchor="middle" x="343.38" y="-323.5" font-family="Helvetica,sans-Serif" font-size="10.00">/mf_operator.h</text>
</a>
</g>
</g>
<!-- Node1&#45;&gt;Node2 -->
<g id="edge1_Node000001_Node000002" class="edge">
<title>Node1&#45;&gt;Node2</title>
<g id="a_edge1_Node000001_Node000002"><a xlink:title=" ">
<path fill="none" stroke="#63b8ff" d="M724.29,-558.04C703.03,-548.72 679.47,-537.88 658.38,-527 553.58,-472.94 435.26,-399.24 378.04,-362.74"/>
<polygon fill="#63b8ff" stroke="#63b8ff" points="722.89,-561.25 733.46,-562.03 725.68,-554.83 722.89,-561.25"/>
</a>
</g>
</g>
<!-- Node10 -->
<g id="Node000010" class="node">
<title>Node10</title>
<g id="a_Node000010"><a xlink:href="solve__context_8h.html" target="_top" xlink:title=" ">
<polygon fill="white" stroke="#666666" points="863.75,-527 715,-527 715,-480.75 863.75,-480.75 863.75,-527"/>
<text text-anchor="start" x="723" y="-513.5" font-family="Helvetica,sans-Serif" font-size="10.00">/__w/phaseField/phaseField</text>
<text text-anchor="start" x="723" y="-500.75" font-family="Helvetica,sans-Serif" font-size="10.00">/include/prismspf/solvers</text>
<text text-anchor="middle" x="789.38" y="-488" font-family="Helvetica,sans-Serif" font-size="10.00">/solve_context.h</text>
</a>
</g>
</g>
<!-- Node1&#45;&gt;Node10 -->
<g id="edge12_Node000001_Node000010" class="edge">
<title>Node1&#45;&gt;Node10</title>
<g id="a_edge12_Node000001_Node000010"><a xlink:title=" ">
<path fill="none" stroke="#63b8ff" d="M789.38,-551.34C789.38,-543.25 789.38,-534.82 789.38,-527.39"/>
<polygon fill="#63b8ff" stroke="#63b8ff" points="785.88,-551.26 789.38,-561.26 792.88,-551.26 785.88,-551.26"/>
</a>
</g>
</g>
<!-- Node16 -->
<g id="Node000016" class="node">
<title>Node16</title>
<g id="a_Node000016"><a xlink:href="solver__base_8h.html" target="_top" xlink:title=" ">
<polygon fill="white" stroke="#666666" points="685.75,-444.75 537,-444.75 537,-398.5 685.75,-398.5 685.75,-444.75"/>
<text text-anchor="start" x="545" y="-431.25" font-family="Helvetica,sans-Serif" font-size="10.00">/__w/phaseField/phaseField</text>
<text text-anchor="start" x="545" y="-418.5" font-family="Helvetica,sans-Serif" font-size="10.00">/include/prismspf/solvers</text>
<text text-anchor="middle" x="611.38" y="-405.75" font-family="Helvetica,sans-Serif" font-size="10.00">/solver_base.h</text>
</a>
</g>
</g>
<!-- Node1&#45;&gt;Node16 -->
<g id="edge33_Node000001_Node000016" class="edge">
<title>Node1&#45;&gt;Node16</title>
<g id="a_edge33_Node000001_Node000016"><a xlink:title=" ">
<path fill="none" stroke="#63b8ff" d="M744.27,-556.23C731.57,-547.39 718.06,-537.28 706.38,-527 677.13,-501.26 647.56,-467.23 629.36,-445.14"/>
<polygon fill="#63b8ff" stroke="#63b8ff" points="742.28,-559.12 752.51,-561.87 746.23,-553.34 742.28,-559.12"/>
</a>
</g>
</g>
<!-- Node19 -->
<g id="Node000019" class="node">
<title>Node19</title>
<g id="a_Node000019"><a xlink:href="dirichlet_8cc.html" target="_top" xlink:title=" ">
<polygon fill="white" stroke="#666666" points="1030.75,-520.62 882,-520.62 882,-487.12 1030.75,-487.12 1030.75,-520.62"/>
<text text-anchor="start" x="890" y="-507.12" font-family="Helvetica,sans-Serif" font-size="10.00">/__w/phaseField/phaseField</text>
<text text-anchor="middle" x="956.38" y="-494.38" font-family="Helvetica,sans-Serif" font-size="10.00">/src/core/dirichlet.cc</text>
</a>
</g>
</g>
<!-- Node1&#45;&gt;Node19 -->
<g id="edge34_Node000001_Node000019" class="edge">
<title>Node1&#45;&gt;Node19</title>
<g id="a_edge34_Node000001_Node000019"><a xlink:title=" ">
<path fill="none" stroke="#63b8ff" d="M846.59,-557.63C871.95,-545.44 900.92,-531.52 922.73,-521.05"/>
<polygon fill="#63b8ff" stroke="#63b8ff" points="845.2,-554.42 837.7,-561.9 848.23,-560.73 845.2,-554.42"/>
</a>
</g>
</g>
<!-- Node20 -->
<g id="Node000020" class="node">
<title>Node20</title>
<g id="a_Node000020"><a xlink:href="initial__conditions_8cc.html" target="_top" xlink:title=" ">
<polygon fill="white" stroke="#666666" points="1205.88,-520.62 1048.88,-520.62 1048.88,-487.12 1205.88,-487.12 1205.88,-520.62"/>
<text text-anchor="start" x="1056.88" y="-507.12" font-family="Helvetica,sans-Serif" font-size="10.00">/__w/phaseField/phaseField</text>
<text text-anchor="middle" x="1127.38" y="-494.38" font-family="Helvetica,sans-Serif" font-size="10.00">/src/core/initial_conditions.cc</text>
</a>
</g>
</g>
<!-- Node1&#45;&gt;Node20 -->
<g id="edge35_Node000001_Node000020" class="edge">
<title>Node1&#45;&gt;Node20</title>
<g id="a_edge35_Node000001_Node000020"><a xlink:title=" ">
<path fill="none" stroke="#63b8ff" d="M875.16,-565.58C923.45,-554.48 984.83,-540.2 1039.38,-527 1047.18,-525.11 1055.37,-523.1 1063.48,-521.08"/>
<polygon fill="#63b8ff" stroke="#63b8ff" points="874.56,-562.13 865.59,-567.78 876.12,-568.95 874.56,-562.13"/>
</a>
</g>
</g>
<!-- Node3 -->
<g id="Node000003" class="node">
<title>Node3</title>
<g id="a_Node000003"><a xlink:href="explicit__solver_8h.html" target="_top" xlink:title=" ">
<polygon fill="white" stroke="#666666" points="148.75,-280.25 0,-280.25 0,-234 148.75,-234 148.75,-280.25"/>
<text text-anchor="start" x="8" y="-266.75" font-family="Helvetica,sans-Serif" font-size="10.00">/__w/phaseField/phaseField</text>
<text text-anchor="start" x="8" y="-254" font-family="Helvetica,sans-Serif" font-size="10.00">/include/prismspf/solvers</text>
<text text-anchor="middle" x="74.38" y="-241.25" font-family="Helvetica,sans-Serif" font-size="10.00">/explicit_solver.h</text>
</a>
</g>
</g>
<!-- Node2&#45;&gt;Node3 -->
<g id="edge2_Node000002_Node000003" class="edge">
<title>Node2&#45;&gt;Node3</title>
<g id="a_edge2_Node000002_Node000003"><a xlink:title=" ">
<path fill="none" stroke="#63b8ff" d="M258.11,-312.94C223.1,-302.5 182.93,-290.51 149.09,-280.42"/>
<polygon fill="#63b8ff" stroke="#63b8ff" points="256.77,-316.19 267.35,-315.69 258.77,-309.48 256.77,-316.19"/>
</a>
</g>
</g>
<!-- Node7 -->
<g id="Node000007" class="node">
<title>Node7</title>
<g id="a_Node000007"><a xlink:href="linear__solver_8h.html" target="_top" xlink:title=" ">
<polygon fill="white" stroke="#666666" points="519.75,-280.25 371,-280.25 371,-234 519.75,-234 519.75,-280.25"/>
<text text-anchor="start" x="379" y="-266.75" font-family="Helvetica,sans-Serif" font-size="10.00">/__w/phaseField/phaseField</text>
<text text-anchor="start" x="379" y="-254" font-family="Helvetica,sans-Serif" font-size="10.00">/include/prismspf/solvers</text>
<text text-anchor="middle" x="445.38" y="-241.25" font-family="Helvetica,sans-Serif" font-size="10.00">/linear_solver.h</text>
</a>
</g>
</g>
<!-- Node2&#45;&gt;Node7 -->
<g id="edge6_Node000002_Node000007" class="edge">
<title>Node2&#45;&gt;Node7</title>
<g id="a_edge6_Node000002_Node000007"><a xlink:title=" ">
<path fill="none" stroke="#63b8ff" d="M380.9,-308.85C392.8,-299.49 405.75,-289.3 416.91,-280.52"/>
<polygon fill="#63b8ff" stroke="#63b8ff" points="378.94,-305.94 373.25,-314.87 383.27,-311.44 378.94,-305.94"/>
</a>
</g>
</g>
<!-- Node8 -->
<g id="Node000008" class="node">
<title>Node8</title>
<g id="a_Node000008"><a xlink:href="newton__solver_8h.html" target="_top" xlink:title=" ">
<polygon fill="white" stroke="#666666" points="493.75,-198 345,-198 345,-151.75 493.75,-151.75 493.75,-198"/>
<text text-anchor="start" x="353" y="-184.5" font-family="Helvetica,sans-Serif" font-size="10.00">/__w/phaseField/phaseField</text>
<text text-anchor="start" x="353" y="-171.75" font-family="Helvetica,sans-Serif" font-size="10.00">/include/prismspf/solvers</text>
<text text-anchor="middle" x="419.38" y="-159" font-family="Helvetica,sans-Serif" font-size="10.00">/newton_solver.h</text>
</a>
</g>
</g>
<!-- Node2&#45;&gt;Node8 -->
<g id="edge10_Node000002_Node000008" class="edge">
<title>Node2&#45;&gt;Node8</title>
<g id="a_edge10_Node000002_Node000008"><a xlink:title=" ">
<path fill="none" stroke="#63b8ff" d="M344.49,-304.56C346.38,-283.3 351.06,-255.84 362.38,-234 369.33,-220.57 380.43,-208.21 390.99,-198.38"/>
<polygon fill="#63b8ff" stroke="#63b8ff" points="341.01,-304.25 343.8,-314.47 347.99,-304.74 341.01,-304.25"/>
</a>
</g>
</g>
<!-- Node9 -->
<g id="Node000009" class="node">
<title>Node9</title>
<g id="a_Node000009"><a xlink:href="mf__operator_8cc.html" target="_top" xlink:title=" ">
<polygon fill="white" stroke="#666666" points="315.75,-273.88 167,-273.88 167,-240.38 315.75,-240.38 315.75,-273.88"/>
<text text-anchor="start" x="175" y="-260.38" font-family="Helvetica,sans-Serif" font-size="10.00">/__w/phaseField/phaseField</text>
<text text-anchor="middle" x="241.38" y="-247.62" font-family="Helvetica,sans-Serif" font-size="10.00">/src/solvers/mf_operator.cc</text>
</a>
</g>
</g>
<!-- Node2&#45;&gt;Node9 -->
<g id="edge11_Node000002_Node000009" class="edge">
<title>Node2&#45;&gt;Node9</title>
<g id="a_edge11_Node000002_Node000009"><a xlink:title=" ">
<path fill="none" stroke="#63b8ff" d="M305.69,-308.73C290.82,-297.03 274.33,-284.05 261.77,-274.17"/>
<polygon fill="#63b8ff" stroke="#63b8ff" points="303.48,-311.44 313.5,-314.87 307.81,-305.94 303.48,-311.44"/>
</a>
</g>
</g>
<!-- Node4 -->
<g id="Node000004" class="node">
<title>Node4</title>
<g id="a_Node000004"><a xlink:href="solvers_8h.html" target="_top" xlink:title=" ">
<polygon fill="white" stroke="#666666" points="595.75,-115.75 447,-115.75 447,-69.5 595.75,-69.5 595.75,-115.75"/>
<text text-anchor="start" x="455" y="-102.25" font-family="Helvetica,sans-Serif" font-size="10.00">/__w/phaseField/phaseField</text>
<text text-anchor="start" x="455" y="-89.5" font-family="Helvetica,sans-Serif" font-size="10.00">/include/prismspf/solvers</text>
<text text-anchor="middle" x="521.38" y="-76.75" font-family="Helvetica,sans-Serif" font-size="10.00">/solvers.h</text>
</a>
</g>
</g>
<!-- Node3&#45;&gt;Node4 -->
<g id="edge3_Node000003_Node000004" class="edge">
<title>Node3&#45;&gt;Node4</title>
<g id="a_edge3_Node000003_Node000004"><a xlink:title=" ">
<path fill="none" stroke="#63b8ff" d="M138.16,-229.16C190.91,-207.25 267.97,-176.08 336.38,-151.75 372.38,-138.94 412.82,-126.07 446.69,-115.7"/>
<polygon fill="#63b8ff" stroke="#63b8ff" points="136.9,-225.9 129.02,-232.97 139.6,-232.36 136.9,-225.9"/>
</a>
</g>
</g>
<!-- Node5 -->
<g id="Node000005" class="node">
<title>Node5</title>
<g id="a_Node000005"><a xlink:href="problem_8cc.html" target="_top" xlink:title=" ">
<polygon fill="white" stroke="#666666" points="853.75,-33.5 705,-33.5 705,0 853.75,0 853.75,-33.5"/>
<text text-anchor="start" x="713" y="-20" font-family="Helvetica,sans-Serif" font-size="10.00">/__w/phaseField/phaseField</text>
<text text-anchor="middle" x="779.38" y="-7.25" font-family="Helvetica,sans-Serif" font-size="10.00">/src/core/problem.cc</text>
</a>
</g>
</g>
<!-- Node4&#45;&gt;Node5 -->
<g id="edge4_Node000004_Node000005" class="edge">
<title>Node4&#45;&gt;Node5</title>
<g id="a_edge4_Node000004_Node000005"><a xlink:title=" ">
<path fill="none" stroke="#63b8ff" d="M606.62,-67.22C644.85,-56.27 688.9,-43.66 722.96,-33.91"/>
<polygon fill="#63b8ff" stroke="#63b8ff" points="606.1,-63.72 597.45,-69.84 608.03,-70.45 606.1,-63.72"/>
</a>
</g>
</g>
<!-- Node6 -->
<g id="Node000006" class="node">
<title>Node6</title>
<g id="a_Node000006"><a xlink:href="solvers_8cc.html" target="_top" xlink:title=" ">
<polygon fill="white" stroke="#666666" points="595.75,-33.5 447,-33.5 447,0 595.75,0 595.75,-33.5"/>
<text text-anchor="start" x="455" y="-20" font-family="Helvetica,sans-Serif" font-size="10.00">/__w/phaseField/phaseField</text>
<text text-anchor="middle" x="521.38" y="-7.25" font-family="Helvetica,sans-Serif" font-size="10.00">/src/solvers/solvers.cc</text>
</a>
</g>
</g>
<!-- Node4&#45;&gt;Node6 -->
<g id="edge5_Node000004_Node000006" class="edge">
<title>Node4&#45;&gt;Node6</title>
<g id="a_edge5_Node000004_Node000006"><a xlink:title=" ">
<path fill="none" stroke="#63b8ff" d="M521.38,-57.64C521.38,-49.35 521.38,-40.86 521.38,-33.85"/>
<polygon fill="#63b8ff" stroke="#63b8ff" points="517.88,-57.55 521.38,-67.55 524.88,-57.55 517.88,-57.55"/>
</a>
</g>
</g>
<!-- Node7&#45;&gt;Node4 -->
<g id="edge9_Node000007_Node000004" class="edge">
<title>Node7&#45;&gt;Node4</title>
<g id="a_edge9_Node000007_Node000004"><a xlink:title=" ">
<path fill="none" stroke="#63b8ff" d="M481.95,-225.54C489.77,-217.34 497.21,-207.97 502.38,-198 515.84,-171.99 519.91,-138.03 521.06,-116.02"/>
<polygon fill="#63b8ff" stroke="#63b8ff" points="479.5,-223.05 474.84,-232.56 484.41,-228.03 479.5,-223.05"/>
</a>
</g>
</g>
<!-- Node7&#45;&gt;Node8 -->
<g id="edge7_Node000007_Node000008" class="edge">
<title>Node7&#45;&gt;Node8</title>
<g id="a_edge7_Node000007_Node000008"><a xlink:title=" ">
<path fill="none" stroke="#63b8ff" d="M434.61,-222.9C431.94,-214.65 429.13,-205.99 426.67,-198.39"/>
<polygon fill="#63b8ff" stroke="#63b8ff" points="431.25,-223.9 437.67,-232.33 437.91,-221.74 431.25,-223.9"/>
</a>
</g>
</g>
<!-- Node8&#45;&gt;Node4 -->
<g id="edge8_Node000008_Node000004" class="edge">
<title>Node8&#45;&gt;Node4</title>
<g id="a_edge8_Node000008_Node000004"><a xlink:title=" ">
<path fill="none" stroke="#63b8ff" d="M456.9,-144.35C468.8,-134.99 481.75,-124.8 492.91,-116.02"/>
<polygon fill="#63b8ff" stroke="#63b8ff" points="454.94,-141.44 449.25,-150.37 459.27,-146.94 454.94,-141.44"/>
</a>
</g>
</g>
<!-- Node11 -->
<g id="Node000011" class="node">
<title>Node11</title>
<g id="a_Node000011"><a xlink:href="problem_8h.html" target="_top" xlink:title=" ">
<polygon fill="white" stroke="#666666" points="990.62,-273.88 814.12,-273.88 814.12,-240.38 990.62,-240.38 990.62,-273.88"/>
<text text-anchor="start" x="822.12" y="-260.38" font-family="Helvetica,sans-Serif" font-size="10.00">/__w/phaseField/phaseField</text>
<text text-anchor="middle" x="902.38" y="-247.62" font-family="Helvetica,sans-Serif" font-size="10.00">/include/prismspf/core/problem.h</text>
</a>
</g>
</g>
<!-- Node10&#45;&gt;Node11 -->
<g id="edge13_Node000010_Node000011" class="edge">
<title>Node10&#45;&gt;Node11</title>
<g id="a_edge13_Node000010_Node000011"><a xlink:title=" ">
<path fill="none" stroke="#63b8ff" d="M875.18,-479.21C924.3,-465.26 976.9,-449.43 980.38,-444.75 1000.4,-417.73 960.59,-320.17 958.38,-316.25 949.21,-300.02 934.45,-284.97 922.39,-274.25"/>
<polygon fill="#63b8ff" stroke="#63b8ff" points="874.25,-475.84 865.58,-481.93 876.15,-482.57 874.25,-475.84"/>
</a>
</g>
</g>
<!-- Node12 -->
<g id="Node000012" class="node">
<title>Node12</title>
<g id="a_Node000012"><a xlink:href="refinement__manager_8h.html" target="_top" xlink:title=" ">
<polygon fill="white" stroke="#666666" points="933.5,-362.5 753.25,-362.5 753.25,-316.25 933.5,-316.25 933.5,-362.5"/>
<text text-anchor="start" x="761.25" y="-349" font-family="Helvetica,sans-Serif" font-size="10.00">/__w/phaseField/phaseField</text>
<text text-anchor="start" x="761.25" y="-336.25" font-family="Helvetica,sans-Serif" font-size="10.00">/include/prismspf/core/refinement</text>
<text text-anchor="middle" x="843.38" y="-323.5" font-family="Helvetica,sans-Serif" font-size="10.00">_manager.h</text>
</a>
</g>
</g>
<!-- Node10&#45;&gt;Node12 -->
<g id="edge15_Node000010_Node000012" class="edge">
<title>Node10&#45;&gt;Node12</title>
<g id="a_edge15_Node000010_Node000012"><a xlink:title=" ">
<path fill="none" stroke="#63b8ff" d="M792.39,-469.07C795.01,-448.23 799.8,-421.22 808.38,-398.5 813.08,-386.05 820.45,-373.26 827.21,-362.87"/>
<polygon fill="#63b8ff" stroke="#63b8ff" points="788.95,-468.42 791.29,-478.75 795.9,-469.21 788.95,-468.42"/>
</a>
</g>
</g>
<!-- Node13 -->
<g id="Node000013" class="node">
<title>Node13</title>
<g id="a_Node000013"><a xlink:href="solution__output_8h.html" target="_top" xlink:title=" ">
<polygon fill="white" stroke="#666666" points="1193.38,-444.75 1027.38,-444.75 1027.38,-398.5 1193.38,-398.5 1193.38,-444.75"/>
<text text-anchor="start" x="1035.38" y="-431.25" font-family="Helvetica,sans-Serif" font-size="10.00">/__w/phaseField/phaseField</text>
<text text-anchor="start" x="1035.38" y="-418.5" font-family="Helvetica,sans-Serif" font-size="10.00">/include/prismspf/core/solution</text>
<text text-anchor="middle" x="1110.38" y="-405.75" font-family="Helvetica,sans-Serif" font-size="10.00">_output.h</text>
</a>
</g>
</g>
<!-- Node10&#45;&gt;Node13 -->
<g id="edge17_Node000010_Node000013" class="edge">
<title>Node10&#45;&gt;Node13</title>
<g id="a_edge17_Node000010_Node000013"><a xlink:title=" ">
<path fill="none" stroke="#63b8ff" d="M874.93,-480.37C931.17,-466.11 984.23,-453.09 1026.93,-442.72"/>
<polygon fill="#63b8ff" stroke="#63b8ff" points="874.31,-476.92 865.48,-482.77 876.03,-483.7 874.31,-476.92"/>
</a>
</g>
</g>
<!-- Node15 -->
<g id="Node000015" class="node">
<title>Node15</title>
<g id="a_Node000015"><a xlink:href="nucleation__manager_8h.html" target="_top" xlink:title=" ">
<polygon fill="white" stroke="#666666" points="971.38,-444.75 817.38,-444.75 817.38,-398.5 971.38,-398.5 971.38,-444.75"/>
<text text-anchor="start" x="825.38" y="-431.25" font-family="Helvetica,sans-Serif" font-size="10.00">/__w/phaseField/phaseField</text>
<text text-anchor="start" x="825.38" y="-418.5" font-family="Helvetica,sans-Serif" font-size="10.00">/include/prismspf/nucleation</text>
<text text-anchor="middle" x="894.38" y="-405.75" font-family="Helvetica,sans-Serif" font-size="10.00">/nucleation_manager.h</text>
</a>
</g>
</g>
<!-- Node10&#45;&gt;Node15 -->
<g id="edge21_Node000010_Node000015" class="edge">
<title>Node10&#45;&gt;Node15</title>
<g id="a_edge21_Node000010_Node000015"><a xlink:title=" ">
<path fill="none" stroke="#63b8ff" d="M828.01,-473.35C840.26,-463.99 853.59,-453.8 865.07,-445.02"/>
<polygon fill="#63b8ff" stroke="#63b8ff" points="825.93,-470.54 820.11,-479.39 830.18,-476.1 825.93,-470.54"/>
</a>
</g>
</g>
<!-- Node10&#45;&gt;Node16 -->
<g id="edge23_Node000010_Node000016" class="edge">
<title>Node10&#45;&gt;Node16</title>
<g id="a_edge23_Node000010_Node000016"><a xlink:title=" ">
<path fill="none" stroke="#63b8ff" d="M729.08,-475.69C707.05,-465.76 682.39,-454.64 661.36,-445.16"/>
<polygon fill="#63b8ff" stroke="#63b8ff" points="727.38,-478.77 737.94,-479.69 730.26,-472.38 727.38,-478.77"/>
</a>
</g>
</g>
<!-- Node11&#45;&gt;Node5 -->
<g id="edge14_Node000011_Node000005" class="edge">
<title>Node11&#45;&gt;Node5</title>
<g id="a_edge14_Node000011_Node000005"><a xlink:title=" ">
<path fill="none" stroke="#63b8ff" d="M888.99,-230.19C863.45,-180.69 808.44,-74.07 787.6,-33.69"/>
<polygon fill="#63b8ff" stroke="#63b8ff" points="885.72,-231.49 893.42,-238.77 891.94,-228.28 885.72,-231.49"/>
</a>
</g>
</g>
<!-- Node12&#45;&gt;Node11 -->
<g id="edge16_Node000012_Node000011" class="edge">
<title>Node12&#45;&gt;Node11</title>
<g id="a_edge16_Node000012_Node000011"><a xlink:title=" ">
<path fill="none" stroke="#63b8ff" d="M866.49,-306.93C874.71,-295.75 883.63,-283.62 890.52,-274.25"/>
<polygon fill="#63b8ff" stroke="#63b8ff" points="863.81,-304.67 860.71,-314.8 869.45,-308.82 863.81,-304.67"/>
</a>
</g>
</g>
<!-- Node13&#45;&gt;Node5 -->
<g id="edge19_Node000013_Node000005" class="edge">
<title>Node13&#45;&gt;Node5</title>
<g id="a_edge19_Node000013_Node000005"><a xlink:title=" ">
<path fill="none" stroke="#63b8ff" d="M1159.66,-391.47C1169.89,-383.3 1179.6,-373.57 1186.38,-362.5 1210.98,-322.28 1205.38,-305.28 1205.38,-258.12 1205.38,-258.12 1205.38,-258.12 1205.38,-173.88 1205.38,-99.93 976.24,-50.47 854.07,-29.36"/>
<polygon fill="#63b8ff" stroke="#63b8ff" points="1157.72,-388.55 1151.8,-397.34 1161.91,-394.15 1157.72,-388.55"/>
</a>
</g>
</g>
<!-- Node13&#45;&gt;Node13 -->
<g id="edge18_Node000013_Node000013" class="edge">
<title>Node13&#45;&gt;Node13</title>
<g id="a_edge18_Node000013_Node000013"><a xlink:title=" ">
<path fill="none" stroke="#63b8ff" d="M1204.27,-431.4C1208.75,-428.95 1211.38,-425.69 1211.38,-421.62 1211.38,-414.96 1204.3,-410.45 1193.58,-408.11"/>
<polygon fill="#63b8ff" stroke="#63b8ff" points="1203.3,-428.04 1195.01,-434.64 1205.61,-434.64 1203.3,-428.04"/>
</a>
</g>
</g>
<!-- Node14 -->
<g id="Node000014" class="node">
<title>Node14</title>
<g id="a_Node000014"><a xlink:href="solution__output_8cc.html" target="_top" xlink:title=" ">
<polygon fill="white" stroke="#666666" points="1177.12,-356.12 1027.62,-356.12 1027.62,-322.62 1177.12,-322.62 1177.12,-356.12"/>
<text text-anchor="start" x="1035.62" y="-342.62" font-family="Helvetica,sans-Serif" font-size="10.00">/__w/phaseField/phaseField</text>
<text text-anchor="middle" x="1102.38" y="-329.88" font-family="Helvetica,sans-Serif" font-size="10.00">/src/core/solution_output.cc</text>
</a>
</g>
</g>
<!-- Node13&#45;&gt;Node14 -->
<g id="edge20_Node000013_Node000014" class="edge">
<title>Node13&#45;&gt;Node14</title>
<g id="a_edge20_Node000013_Node000014"><a xlink:title=" ">
<path fill="none" stroke="#63b8ff" d="M1107.01,-386.82C1105.96,-376.32 1104.85,-365.22 1103.98,-356.5"/>
<polygon fill="#63b8ff" stroke="#63b8ff" points="1103.52,-387.16 1108,-396.76 1110.49,-386.47 1103.52,-387.16"/>
</a>
</g>
</g>
<!-- Node15&#45;&gt;Node11 -->
<g id="edge22_Node000015_Node000011" class="edge">
<title>Node15&#45;&gt;Node11</title>
<g id="a_edge22_Node000015_Node000011"><a xlink:title=" ">
<path fill="none" stroke="#63b8ff" d="M926.6,-389.48C933.05,-381.36 938.9,-372.16 942.38,-362.5 949.33,-343.16 948.48,-335.88 942.38,-316.25 937.43,-300.34 926.45,-284.93 917.24,-273.98"/>
<polygon fill="#63b8ff" stroke="#63b8ff" points="924,-387.13 920.15,-396.99 929.31,-391.69 924,-387.13"/>
</a>
</g>
</g>
<!-- Node16&#45;&gt;Node2 -->
<g id="edge29_Node000016_Node000002" class="edge">
<title>Node16&#45;&gt;Node2</title>
<g id="a_edge29_Node000016_Node000002"><a xlink:title=" ">
<path fill="none" stroke="#63b8ff" d="M526.12,-395.1C491.41,-384.7 451.65,-372.8 418.09,-362.75"/>
<polygon fill="#63b8ff" stroke="#63b8ff" points="524.69,-398.32 535.27,-397.84 526.7,-391.62 524.69,-398.32"/>
</a>
</g>
</g>
<!-- Node16&#45;&gt;Node3 -->
<g id="edge27_Node000016_Node000003" class="edge">
<title>Node16&#45;&gt;Node3</title>
<g id="a_edge27_Node000016_Node000003"><a xlink:title=" ">
<path fill="none" stroke="#63b8ff" d="M525.26,-414.74C452.91,-407.83 347.64,-393.15 260.38,-362.5 202.73,-342.26 142.12,-304.75 106.32,-280.64"/>
<polygon fill="#63b8ff" stroke="#63b8ff" points="524.8,-418.21 535.07,-415.64 525.44,-411.24 524.8,-418.21"/>
</a>
</g>
</g>
<!-- Node16&#45;&gt;Node5 -->
<g id="edge31_Node000016_Node000005" class="edge">
<title>Node16&#45;&gt;Node5</title>
<g id="a_edge31_Node000016_Node000005"><a xlink:title=" ">
<path fill="none" stroke="#63b8ff" d="M657.73,-391.17C668.2,-382.88 678.52,-373.17 686.38,-362.5 715.73,-322.62 725.38,-307.65 725.38,-258.12 725.38,-258.12 725.38,-258.12 725.38,-173.88 725.38,-120.24 754.19,-61.66 769.72,-33.97"/>
<polygon fill="#63b8ff" stroke="#63b8ff" points="655.65,-388.35 649.77,-397.17 659.86,-393.95 655.65,-388.35"/>
</a>
</g>
</g>
<!-- Node16&#45;&gt;Node7 -->
<g id="edge28_Node000016_Node000007" class="edge">
<title>Node16&#45;&gt;Node7</title>
<g id="a_edge28_Node000016_Node000007"><a xlink:title=" ">
<path fill="none" stroke="#63b8ff" d="M525.97,-400.73C504.88,-392.12 484.13,-379.87 469.38,-362.5 449.87,-339.54 445.44,-303.84 444.82,-280.72"/>
<polygon fill="#63b8ff" stroke="#63b8ff" points="524.65,-403.98 535.25,-404.26 527.14,-397.44 524.65,-403.98"/>
</a>
</g>
</g>
<!-- Node16&#45;&gt;Node8 -->
<g id="edge30_Node000016_Node000008" class="edge">
<title>Node16&#45;&gt;Node8</title>
<g id="a_edge30_Node000016_Node000008"><a xlink:title=" ">
<path fill="none" stroke="#63b8ff" d="M532.56,-392.25C520.52,-384.46 509.69,-374.69 502.38,-362.5 491.8,-344.87 496.05,-335.81 502.38,-316.25 508.45,-297.47 522.3,-299.03 528.38,-280.25 534.7,-260.69 538.95,-251.63 528.38,-234 519.11,-218.55 504.18,-206.98 488.32,-198.41"/>
<polygon fill="#63b8ff" stroke="#63b8ff" points="530.74,-395.24 541.13,-397.32 534.3,-389.22 530.74,-395.24"/>
</a>
</g>
</g>
<!-- Node16&#45;&gt;Node12 -->
<g id="edge24_Node000016_Node000012" class="edge">
<title>Node16&#45;&gt;Node12</title>
<g id="a_edge24_Node000016_Node000012"><a xlink:title=" ">
<path fill="none" stroke="#63b8ff" d="M687.25,-394.38C716.64,-384.21 749.94,-372.69 778.22,-362.91"/>
<polygon fill="#63b8ff" stroke="#63b8ff" points="686.35,-390.99 678.05,-397.56 688.64,-397.6 686.35,-390.99"/>
</a>
</g>
</g>
<!-- Node17 -->
<g id="Node000017" class="node">
<title>Node17</title>
<g id="a_Node000017"><a xlink:href="constant__solver_8h.html" target="_top" xlink:title=" ">
<polygon fill="white" stroke="#666666" points="697.75,-198 549,-198 549,-151.75 697.75,-151.75 697.75,-198"/>
<text text-anchor="start" x="557" y="-184.5" font-family="Helvetica,sans-Serif" font-size="10.00">/__w/phaseField/phaseField</text>
<text text-anchor="start" x="557" y="-171.75" font-family="Helvetica,sans-Serif" font-size="10.00">/include/prismspf/solvers</text>
<text text-anchor="middle" x="623.38" y="-159" font-family="Helvetica,sans-Serif" font-size="10.00">/constant_solver.h</text>
</a>
</g>
</g>
<!-- Node16&#45;&gt;Node17 -->
<g id="edge25_Node000016_Node000017" class="edge">
<title>Node16&#45;&gt;Node17</title>
<g id="a_edge25_Node000016_Node000017"><a xlink:title=" ">
<path fill="none" stroke="#63b8ff" d="M649.7,-390.18C657.3,-382.07 664.21,-372.7 668.38,-362.5 691.57,-305.73 658.17,-234.16 637.55,-198.39"/>
<polygon fill="#63b8ff" stroke="#63b8ff" points="647.36,-387.58 642.69,-397.09 652.27,-392.56 647.36,-387.58"/>
</a>
</g>
</g>
<!-- Node18 -->
<g id="Node000018" class="node">
<title>Node18</title>
<g id="a_Node000018"><a xlink:href="solver__base_8cc.html" target="_top" xlink:title=" ">
<polygon fill="white" stroke="#666666" points="659.75,-356.12 511,-356.12 511,-322.62 659.75,-322.62 659.75,-356.12"/>
<text text-anchor="start" x="519" y="-342.62" font-family="Helvetica,sans-Serif" font-size="10.00">/__w/phaseField/phaseField</text>
<text text-anchor="middle" x="585.38" y="-329.88" font-family="Helvetica,sans-Serif" font-size="10.00">/src/solvers/solver_base.cc</text>
</a>
</g>
</g>
<!-- Node16&#45;&gt;Node18 -->
<g id="edge32_Node000016_Node000018" class="edge">
<title>Node16&#45;&gt;Node18</title>
<g id="a_edge32_Node000016_Node000018"><a xlink:title=" ">
<path fill="none" stroke="#63b8ff" d="M600.64,-387.5C597.17,-376.79 593.48,-365.4 590.6,-356.5"/>
<polygon fill="#63b8ff" stroke="#63b8ff" points="597.25,-388.4 603.67,-396.83 603.91,-386.24 597.25,-388.4"/>
</a>
</g>
</g>
<!-- Node17&#45;&gt;Node4 -->
<g id="edge26_Node000017_Node000004" class="edge">
<title>Node17&#45;&gt;Node4</title>
<g id="a_edge26_Node000017_Node000004"><a xlink:title=" ">
<path fill="none" stroke="#63b8ff" d="M585.85,-144.35C573.95,-134.99 561,-124.8 549.84,-116.02"/>
<polygon fill="#63b8ff" stroke="#63b8ff" points="583.48,-146.94 593.5,-150.37 587.81,-141.44 583.48,-146.94"/>
</a>
</g>
</g>
</g>
</svg>
