<?xml version="1.0" encoding="UTF-8" standalone="no"?>
<!DOCTYPE svg PUBLIC "-//W3C//DTD SVG 1.1//EN"
 "http://www.w3.org/Graphics/SVG/1.1/DTD/svg11.dtd">
<!-- Generated by graphviz version 12.2.1 (20241206.2353)
 -->
<!-- Title: include/prismspf/core/pde_operator_base.h Pages: 1 -->
<svg width="1378pt" height="515pt"
 viewBox="0.00 0.00 1378.12 515.25" xmlns="http://www.w3.org/2000/svg" xmlns:xlink="http://www.w3.org/1999/xlink">
<g id="graph0" class="graph" transform="scale(1 1) rotate(0) translate(4 511.25)">
<title>include/prismspf/core/pde_operator_base.h</title>
<!-- Node1 -->
<g id="Node000001" class="node">
<title>Node1</title>
<g id="a_Node000001"><a xlink:title=" ">
<polygon fill="#999999" stroke="#666666" points="1056.12,-507.25 935.12,-507.25 935.12,-473.75 1056.12,-473.75 1056.12,-507.25"/>
<text text-anchor="start" x="943.12" y="-493.75" font-family="Helvetica,sans-Serif" font-size="10.00">include/prismspf/core</text>
<text text-anchor="middle" x="995.62" y="-481" font-family="Helvetica,sans-Serif" font-size="10.00">/pde_operator_base.h</text>
</a>
</g>
</g>
<!-- Node2 -->
<g id="Node000002" class="node">
<title>Node2</title>
<g id="a_Node000002"><a xlink:href="mf__operator_8h.html" target="_top" xlink:title=" ">
<polygon fill="white" stroke="#666666" points="503.25,-298.75 368,-298.75 368,-265.25 503.25,-265.25 503.25,-298.75"/>
<text text-anchor="start" x="376" y="-285.25" font-family="Helvetica,sans-Serif" font-size="10.00">include/prismspf/solvers</text>
<text text-anchor="middle" x="435.62" y="-272.5" font-family="Helvetica,sans-Serif" font-size="10.00">/mf_operator.h</text>
</a>
</g>
</g>
<!-- Node1&#45;&gt;Node2 -->
<g id="edge1_Node000001_Node000002" class="edge">
<title>Node1&#45;&gt;Node2</title>
<g id="a_edge1_Node000001_Node000002"><a xlink:title=" ">
<path fill="none" stroke="#63b8ff" d="M932.96,-469.79C903.85,-460.42 868.85,-448.87 837.62,-437.75 703.94,-390.16 547.58,-328.1 475.6,-299.17"/>
<polygon fill="#63b8ff" stroke="#63b8ff" points="931.78,-473.08 942.37,-472.8 933.91,-466.42 931.78,-473.08"/>
</a>
</g>
</g>
<!-- Node12 -->
<g id="Node000012" class="node">
<title>Node12</title>
<g id="a_Node000012"><a xlink:href="solve__context_8h.html" target="_top" xlink:title=" ">
<polygon fill="white" stroke="#666666" points="1063.25,-437.75 928,-437.75 928,-404.25 1063.25,-404.25 1063.25,-437.75"/>
<text text-anchor="start" x="936" y="-424.25" font-family="Helvetica,sans-Serif" font-size="10.00">include/prismspf/solvers</text>
<text text-anchor="middle" x="995.62" y="-411.5" font-family="Helvetica,sans-Serif" font-size="10.00">/solve_context.h</text>
</a>
</g>
</g>
<!-- Node1&#45;&gt;Node12 -->
<g id="edge15_Node000001_Node000012" class="edge">
<title>Node1&#45;&gt;Node12</title>
<g id="a_edge15_Node000001_Node000012"><a xlink:title=" ">
<path fill="none" stroke="#63b8ff" d="M995.62,-462.06C995.62,-453.84 995.62,-445.09 995.62,-437.88"/>
<polygon fill="#63b8ff" stroke="#63b8ff" points="992.13,-461.99 995.63,-471.99 999.13,-461.99 992.13,-461.99"/>
</a>
</g>
</g>
<!-- Node18 -->
<g id="Node000018" class="node">
<title>Node18</title>
<g id="a_Node000018"><a xlink:href="solver__base_8h.html" target="_top" xlink:title=" ">
<polygon fill="white" stroke="#666666" points="815.25,-368.25 680,-368.25 680,-334.75 815.25,-334.75 815.25,-368.25"/>
<text text-anchor="start" x="688" y="-354.75" font-family="Helvetica,sans-Serif" font-size="10.00">include/prismspf/solvers</text>
<text text-anchor="middle" x="747.62" y="-342" font-family="Helvetica,sans-Serif" font-size="10.00">/solver_base.h</text>
</a>
</g>
</g>
<!-- Node1&#45;&gt;Node18 -->
<g id="edge37_Node000001_Node000018" class="edge">
<title>Node1&#45;&gt;Node18</title>
<g id="a_edge37_Node000001_Node000018"><a xlink:title=" ">
<path fill="none" stroke="#63b8ff" d="M956.92,-468.12C907.05,-440.57 821.47,-393.29 776.76,-368.59"/>
<polygon fill="#63b8ff" stroke="#63b8ff" points="954.92,-471.01 965.37,-472.78 958.31,-464.89 954.92,-471.01"/>
</a>
</g>
</g>
<!-- Node21 -->
<g id="Node000021" class="node">
<title>Node21</title>
<g id="a_Node000021"><a xlink:href="dirichlet_8cc.html" target="_top" xlink:title=" ">
<polygon fill="white" stroke="#666666" points="1191.88,-431.38 1081.38,-431.38 1081.38,-410.62 1191.88,-410.62 1191.88,-431.38"/>
<text text-anchor="middle" x="1136.62" y="-417.88" font-family="Helvetica,sans-Serif" font-size="10.00">src/core/dirichlet.cc</text>
</a>
</g>
</g>
<!-- Node1&#45;&gt;Node21 -->
<g id="edge38_Node000001_Node000021" class="edge">
<title>Node1&#45;&gt;Node21</title>
<g id="a_edge38_Node000001_Node000021"><a xlink:title=" ">
<path fill="none" stroke="#63b8ff" d="M1039.62,-468.44C1065.21,-456.19 1096.25,-441.33 1116.21,-431.77"/>
<polygon fill="#63b8ff" stroke="#63b8ff" points="1038.27,-465.2 1030.76,-472.68 1041.29,-471.52 1038.27,-465.2"/>
</a>
</g>
</g>
<!-- Node22 -->
<g id="Node000022" class="node">
<title>Node22</title>
<g id="a_Node000022"><a xlink:href="initial__conditions_8cc.html" target="_top" xlink:title=" ">
<polygon fill="white" stroke="#666666" points="1363.62,-431.38 1209.62,-431.38 1209.62,-410.62 1363.62,-410.62 1363.62,-431.38"/>
<text text-anchor="middle" x="1286.62" y="-417.88" font-family="Helvetica,sans-Serif" font-size="10.00">src/core/initial_conditions.cc</text>
</a>
</g>
</g>
<!-- Node1&#45;&gt;Node22 -->
<g id="edge39_Node000001_Node000022" class="edge">
<title>Node1&#45;&gt;Node22</title>
<g id="a_edge39_Node000001_Node000022"><a xlink:title=" ">
<path fill="none" stroke="#63b8ff" d="M1067.47,-472.84C1123.05,-459.94 1198.12,-442.53 1244.4,-431.79"/>
<polygon fill="#63b8ff" stroke="#63b8ff" points="1066.7,-469.42 1057.75,-475.09 1068.28,-476.24 1066.7,-469.42"/>
</a>
</g>
</g>
<!-- Node3 -->
<g id="Node000003" class="node">
<title>Node3</title>
<g id="a_Node000003"><a xlink:href="explicit__solver_8h.html" target="_top" xlink:title=" ">
<polygon fill="white" stroke="#666666" points="135.25,-229.25 0,-229.25 0,-195.75 135.25,-195.75 135.25,-229.25"/>
<text text-anchor="start" x="8" y="-215.75" font-family="Helvetica,sans-Serif" font-size="10.00">include/prismspf/solvers</text>
<text text-anchor="middle" x="67.62" y="-203" font-family="Helvetica,sans-Serif" font-size="10.00">/explicit_solver.h</text>
</a>
</g>
</g>
<!-- Node2&#45;&gt;Node3 -->
<g id="edge2_Node000002_Node000003" class="edge">
<title>Node2&#45;&gt;Node3</title>
<g id="a_edge2_Node000002_Node000003"><a xlink:title=" ">
<path fill="none" stroke="#63b8ff" d="M356.59,-267.51C298.01,-257.38 216.24,-242.94 144.62,-229.25 141.68,-228.69 138.67,-228.1 135.63,-227.51"/>
<polygon fill="#63b8ff" stroke="#63b8ff" points="355.68,-270.91 366.13,-269.16 356.87,-264.01 355.68,-270.91"/>
</a>
</g>
</g>
<!-- Node7 -->
<g id="Node000007" class="node">
<title>Node7</title>
<g id="a_Node000007"><a xlink:href="linear__helper_8h.html" target="_top" xlink:title=" ">
<polygon fill="white" stroke="#666666" points="681.25,-229.25 546,-229.25 546,-195.75 681.25,-195.75 681.25,-229.25"/>
<text text-anchor="start" x="554" y="-215.75" font-family="Helvetica,sans-Serif" font-size="10.00">include/prismspf/solvers</text>
<text text-anchor="middle" x="613.62" y="-203" font-family="Helvetica,sans-Serif" font-size="10.00">/linear_helper.h</text>
</a>
</g>
</g>
<!-- Node2&#45;&gt;Node7 -->
<g id="edge6_Node000002_Node000007" class="edge">
<title>Node2&#45;&gt;Node7</title>
<g id="a_edge6_Node000002_Node000007"><a xlink:title=" ">
<path fill="none" stroke="#63b8ff" d="M488.81,-260.83C515.08,-250.87 546.36,-239.01 571.03,-229.65"/>
<polygon fill="#63b8ff" stroke="#63b8ff" points="487.78,-257.48 479.68,-264.3 490.27,-264.02 487.78,-257.48"/>
</a>
</g>
</g>
<!-- Node8 -->
<g id="Node000008" class="node">
<title>Node8</title>
<g id="a_Node000008"><a xlink:href="linear__solver_8h.html" target="_top" xlink:title=" ">
<polygon fill="white" stroke="#666666" points="489.25,-229.25 354,-229.25 354,-195.75 489.25,-195.75 489.25,-229.25"/>
<text text-anchor="start" x="362" y="-215.75" font-family="Helvetica,sans-Serif" font-size="10.00">include/prismspf/solvers</text>
<text text-anchor="middle" x="421.62" y="-203" font-family="Helvetica,sans-Serif" font-size="10.00">/linear_solver.h</text>
</a>
</g>
</g>
<!-- Node2&#45;&gt;Node8 -->
<g id="edge7_Node000002_Node000008" class="edge">
<title>Node2&#45;&gt;Node8</title>
<g id="a_edge7_Node000002_Node000008"><a xlink:title=" ">
<path fill="none" stroke="#63b8ff" d="M429.99,-253.85C428.27,-245.54 426.43,-236.68 424.92,-229.38"/>
<polygon fill="#63b8ff" stroke="#63b8ff" points="426.54,-254.44 432,-263.52 433.4,-253.02 426.54,-254.44"/>
</a>
</g>
</g>
<!-- Node9 -->
<g id="Node000009" class="node">
<title>Node9</title>
<g id="a_Node000009"><a xlink:href="mg__solver_8h.html" target="_top" xlink:title=" ">
<polygon fill="white" stroke="#666666" points="393.25,-159.75 258,-159.75 258,-126.25 393.25,-126.25 393.25,-159.75"/>
<text text-anchor="start" x="266" y="-146.25" font-family="Helvetica,sans-Serif" font-size="10.00">include/prismspf/solvers</text>
<text text-anchor="middle" x="325.62" y="-133.5" font-family="Helvetica,sans-Serif" font-size="10.00">/mg_solver.h</text>
</a>
</g>
</g>
<!-- Node2&#45;&gt;Node9 -->
<g id="edge12_Node000002_Node000009" class="edge">
<title>Node2&#45;&gt;Node9</title>
<g id="a_edge12_Node000002_Node000009"><a xlink:title=" ">
<path fill="none" stroke="#63b8ff" d="M381.25,-259.72C367.51,-251.99 354.01,-241.95 344.62,-229.25 329.48,-208.76 326.03,-178.45 325.45,-160.03"/>
<polygon fill="#63b8ff" stroke="#63b8ff" points="379.42,-262.71 389.9,-264.24 382.66,-256.5 379.42,-262.71"/>
</a>
</g>
</g>
<!-- Node10 -->
<g id="Node000010" class="node">
<title>Node10</title>
<g id="a_Node000010"><a xlink:href="newton__solver_8h.html" target="_top" xlink:title=" ">
<polygon fill="white" stroke="#666666" points="585.25,-159.75 450,-159.75 450,-126.25 585.25,-126.25 585.25,-159.75"/>
<text text-anchor="start" x="458" y="-146.25" font-family="Helvetica,sans-Serif" font-size="10.00">include/prismspf/solvers</text>
<text text-anchor="middle" x="517.62" y="-133.5" font-family="Helvetica,sans-Serif" font-size="10.00">/newton_solver.h</text>
</a>
</g>
</g>
<!-- Node2&#45;&gt;Node10 -->
<g id="edge13_Node000002_Node000010" class="edge">
<title>Node2&#45;&gt;Node10</title>
<g id="a_edge13_Node000002_Node000010"><a xlink:title=" ">
<path fill="none" stroke="#63b8ff" d="M471.71,-258.12C481.78,-250.12 491.81,-240.33 498.62,-229.25 511.89,-207.68 515.93,-177.97 517.14,-159.92"/>
<polygon fill="#63b8ff" stroke="#63b8ff" points="469.68,-255.27 463.76,-264.05 473.87,-260.88 469.68,-255.27"/>
</a>
</g>
</g>
<!-- Node11 -->
<g id="Node000011" class="node">
<title>Node11</title>
<g id="a_Node000011"><a xlink:href="mf__operator_8cc.html" target="_top" xlink:title=" ">
<polygon fill="white" stroke="#666666" points="297.75,-222.88 153.5,-222.88 153.5,-202.12 297.75,-202.12 297.75,-222.88"/>
<text text-anchor="middle" x="225.62" y="-209.38" font-family="Helvetica,sans-Serif" font-size="10.00">src/solvers/mf_operator.cc</text>
</a>
</g>
</g>
<!-- Node2&#45;&gt;Node11 -->
<g id="edge14_Node000002_Node000011" class="edge">
<title>Node2&#45;&gt;Node11</title>
<g id="a_edge14_Node000002_Node000011"><a xlink:title=" ">
<path fill="none" stroke="#63b8ff" d="M374.66,-261.41C335.87,-248.94 287.27,-233.32 256.33,-223.37"/>
<polygon fill="#63b8ff" stroke="#63b8ff" points="373.29,-264.64 383.88,-264.37 375.43,-257.98 373.29,-264.64"/>
</a>
</g>
</g>
<!-- Node4 -->
<g id="Node000004" class="node">
<title>Node4</title>
<g id="a_Node000004"><a xlink:href="solvers_8h.html" target="_top" xlink:title=" ">
<polygon fill="white" stroke="#666666" points="585.25,-90.25 450,-90.25 450,-56.75 585.25,-56.75 585.25,-90.25"/>
<text text-anchor="start" x="458" y="-76.75" font-family="Helvetica,sans-Serif" font-size="10.00">include/prismspf/solvers</text>
<text text-anchor="middle" x="517.62" y="-64" font-family="Helvetica,sans-Serif" font-size="10.00">/solvers.h</text>
</a>
</g>
</g>
<!-- Node3&#45;&gt;Node4 -->
<g id="edge3_Node000003_Node000004" class="edge">
<title>Node3&#45;&gt;Node4</title>
<g id="a_edge3_Node000003_Node000004"><a xlink:title=" ">
<path fill="none" stroke="#63b8ff" d="M106.2,-189.85C142.08,-170.57 197.53,-142.91 248.62,-126.25 315.32,-104.51 394.46,-90.64 449.56,-82.79"/>
<polygon fill="#63b8ff" stroke="#63b8ff" points="104.62,-186.73 97.5,-194.58 107.96,-192.88 104.62,-186.73"/>
</a>
</g>
</g>
<!-- Node5 -->
<g id="Node000005" class="node">
<title>Node5</title>
<g id="a_Node000005"><a xlink:href="problem_8cc.html" target="_top" xlink:title=" ">
<polygon fill="white" stroke="#666666" points="1016.25,-20.75 905,-20.75 905,0 1016.25,0 1016.25,-20.75"/>
<text text-anchor="middle" x="960.62" y="-7.25" font-family="Helvetica,sans-Serif" font-size="10.00">src/core/problem.cc</text>
</a>
</g>
</g>
<!-- Node4&#45;&gt;Node5 -->
<g id="edge4_Node000004_Node000005" class="edge">
<title>Node4&#45;&gt;Node5</title>
<g id="a_edge4_Node000004_Node000005"><a xlink:title=" ">
<path fill="none" stroke="#63b8ff" d="M596.74,-61.58C685.42,-49.35 826.95,-29.82 904.79,-19.08"/>
<polygon fill="#63b8ff" stroke="#63b8ff" points="596.32,-58.11 586.89,-62.94 597.27,-65.04 596.32,-58.11"/>
</a>
</g>
</g>
<!-- Node6 -->
<g id="Node000006" class="node">
<title>Node6</title>
<g id="a_Node000006"><a xlink:href="solvers_8cc.html" target="_top" xlink:title=" ">
<polygon fill="white" stroke="#666666" points="577.75,-20.75 457.5,-20.75 457.5,0 577.75,0 577.75,-20.75"/>
<text text-anchor="middle" x="517.62" y="-7.25" font-family="Helvetica,sans-Serif" font-size="10.00">src/solvers/solvers.cc</text>
</a>
</g>
</g>
<!-- Node4&#45;&gt;Node6 -->
<g id="edge5_Node000004_Node000006" class="edge">
<title>Node4&#45;&gt;Node6</title>
<g id="a_edge5_Node000004_Node000006"><a xlink:title=" ">
<path fill="none" stroke="#63b8ff" d="M517.62,-44.94C517.62,-36.46 517.62,-27.67 517.62,-21.22"/>
<polygon fill="#63b8ff" stroke="#63b8ff" points="514.13,-44.93 517.63,-54.93 521.13,-44.93 514.13,-44.93"/>
</a>
</g>
</g>
<!-- Node8&#45;&gt;Node4 -->
<g id="edge11_Node000008_Node000004" class="edge">
<title>Node8&#45;&gt;Node4</title>
<g id="a_edge11_Node000008_Node000004"><a xlink:title=" ">
<path fill="none" stroke="#63b8ff" d="M422.58,-183.97C424.38,-166.17 429.02,-143.24 440.62,-126.25 450.98,-111.09 467.38,-99.17 482.39,-90.61"/>
<polygon fill="#63b8ff" stroke="#63b8ff" points="419.1,-183.59 421.85,-193.83 426.08,-184.11 419.1,-183.59"/>
</a>
</g>
</g>
<!-- Node8&#45;&gt;Node9 -->
<g id="edge8_Node000008_Node000009" class="edge">
<title>Node8&#45;&gt;Node9</title>
<g id="a_edge8_Node000008_Node000009"><a xlink:title=" ">
<path fill="none" stroke="#63b8ff" d="M389.5,-188.91C376.08,-179.48 360.8,-168.73 348.55,-160.12"/>
<polygon fill="#63b8ff" stroke="#63b8ff" points="387.44,-191.74 397.64,-194.63 391.47,-186.02 387.44,-191.74"/>
</a>
</g>
</g>
<!-- Node8&#45;&gt;Node10 -->
<g id="edge9_Node000008_Node000010" class="edge">
<title>Node8&#45;&gt;Node10</title>
<g id="a_edge9_Node000008_Node000010"><a xlink:title=" ">
<path fill="none" stroke="#63b8ff" d="M453.75,-188.91C467.17,-179.48 482.45,-168.73 494.7,-160.12"/>
<polygon fill="#63b8ff" stroke="#63b8ff" points="451.78,-186.02 445.61,-194.63 455.81,-191.74 451.78,-186.02"/>
</a>
</g>
</g>
<!-- Node10&#45;&gt;Node4 -->
<g id="edge10_Node000010_Node000004" class="edge">
<title>Node10&#45;&gt;Node4</title>
<g id="a_edge10_Node000010_Node000004"><a xlink:title=" ">
<path fill="none" stroke="#63b8ff" d="M517.62,-114.56C517.62,-106.34 517.62,-97.59 517.62,-90.38"/>
<polygon fill="#63b8ff" stroke="#63b8ff" points="514.13,-114.49 517.63,-124.49 521.13,-114.49 514.13,-114.49"/>
</a>
</g>
</g>
<!-- Node13 -->
<g id="Node000013" class="node">
<title>Node13</title>
<g id="a_Node000013"><a xlink:href="problem_8h.html" target="_top" xlink:title=" ">
<polygon fill="white" stroke="#666666" points="1148.12,-229.25 1027.12,-229.25 1027.12,-195.75 1148.12,-195.75 1148.12,-229.25"/>
<text text-anchor="start" x="1035.12" y="-215.75" font-family="Helvetica,sans-Serif" font-size="10.00">include/prismspf/core</text>
<text text-anchor="middle" x="1087.62" y="-203" font-family="Helvetica,sans-Serif" font-size="10.00">/problem.h</text>
</a>
</g>
</g>
<!-- Node12&#45;&gt;Node13 -->
<g id="edge16_Node000012_Node000013" class="edge">
<title>Node12&#45;&gt;Node13</title>
<g id="a_edge16_Node000012_Node000013"><a xlink:title=" ">
<path fill="none" stroke="#63b8ff" d="M1013.33,-394.73C1033.59,-365.39 1064.97,-318.49 1072.62,-298.75 1081.54,-275.77 1085.19,-247.25 1086.66,-229.71"/>
<polygon fill="#63b8ff" stroke="#63b8ff" points="1010.63,-392.49 1007.8,-402.7 1016.38,-396.48 1010.63,-392.49"/>
</a>
</g>
</g>
<!-- Node14 -->
<g id="Node000014" class="node">
<title>Node14</title>
<g id="a_Node000014"><a xlink:href="refinement__manager_8h.html" target="_top" xlink:title=" ">
<polygon fill="white" stroke="#666666" points="1063.25,-298.75 934,-298.75 934,-265.25 1063.25,-265.25 1063.25,-298.75"/>
<text text-anchor="start" x="942" y="-285.25" font-family="Helvetica,sans-Serif" font-size="10.00">include/prismspf/core</text>
<text text-anchor="middle" x="998.62" y="-272.5" font-family="Helvetica,sans-Serif" font-size="10.00">/refinement_manager.h</text>
</a>
</g>
</g>
<!-- Node12&#45;&gt;Node14 -->
<g id="edge18_Node000012_Node000014" class="edge">
<title>Node12&#45;&gt;Node14</title>
<g id="a_edge18_Node000012_Node000014"><a xlink:title=" ">
<path fill="none" stroke="#63b8ff" d="M996.22,-392.62C996.84,-364.54 997.77,-321.82 998.28,-298.88"/>
<polygon fill="#63b8ff" stroke="#63b8ff" points="992.73,-392.43 996.01,-402.5 999.73,-392.58 992.73,-392.43"/>
</a>
</g>
</g>
<!-- Node15 -->
<g id="Node000015" class="node">
<title>Node15</title>
<g id="a_Node000015"><a xlink:href="solution__output_8h.html" target="_top" xlink:title=" ">
<polygon fill="white" stroke="#666666" points="1352.12,-368.25 1231.12,-368.25 1231.12,-334.75 1352.12,-334.75 1352.12,-368.25"/>
<text text-anchor="start" x="1239.12" y="-354.75" font-family="Helvetica,sans-Serif" font-size="10.00">include/prismspf/core</text>
<text text-anchor="middle" x="1291.62" y="-342" font-family="Helvetica,sans-Serif" font-size="10.00">/solution_output.h</text>
</a>
</g>
</g>
<!-- Node12&#45;&gt;Node15 -->
<g id="edge20_Node000012_Node000015" class="edge">
<title>Node12&#45;&gt;Node15</title>
<g id="a_edge20_Node000012_Node000015"><a xlink:title=" ">
<path fill="none" stroke="#63b8ff" d="M1074.78,-401.96C1118.4,-392.02 1173.5,-379.46 1222.62,-368.25 1225.26,-367.65 1227.95,-367.03 1230.67,-366.41"/>
<polygon fill="#63b8ff" stroke="#63b8ff" points="1074.12,-398.52 1065.14,-404.16 1075.67,-405.35 1074.12,-398.52"/>
</a>
</g>
</g>
<!-- Node17 -->
<g id="Node000017" class="node">
<title>Node17</title>
<g id="a_Node000017"><a xlink:href="nucleation__manager_8h.html" target="_top" xlink:title=" ">
<polygon fill="white" stroke="#666666" points="1213.12,-368.25 1062.12,-368.25 1062.12,-334.75 1213.12,-334.75 1213.12,-368.25"/>
<text text-anchor="start" x="1070.12" y="-354.75" font-family="Helvetica,sans-Serif" font-size="10.00">include/prismspf/nucleation</text>
<text text-anchor="middle" x="1137.62" y="-342" font-family="Helvetica,sans-Serif" font-size="10.00">/nucleation_manager.h</text>
</a>
</g>
</g>
<!-- Node12&#45;&gt;Node17 -->
<g id="edge24_Node000012_Node000017" class="edge">
<title>Node12&#45;&gt;Node17</title>
<g id="a_edge24_Node000012_Node000017"><a xlink:title=" ">
<path fill="none" stroke="#63b8ff" d="M1039.77,-399.01C1060.46,-389.18 1084.71,-377.66 1103.89,-368.54"/>
<polygon fill="#63b8ff" stroke="#63b8ff" points="1038.53,-395.73 1031,-403.18 1041.54,-402.05 1038.53,-395.73"/>
</a>
</g>
</g>
<!-- Node12&#45;&gt;Node18 -->
<g id="edge26_Node000012_Node000018" class="edge">
<title>Node12&#45;&gt;Node18</title>
<g id="a_edge26_Node000012_Node000018"><a xlink:title=" ">
<path fill="none" stroke="#63b8ff" d="M925.41,-400.89C888.03,-390.72 842.57,-378.34 806.97,-368.65"/>
<polygon fill="#63b8ff" stroke="#63b8ff" points="924.19,-404.19 934.76,-403.43 926.03,-397.43 924.19,-404.19"/>
</a>
</g>
</g>
<!-- Node13&#45;&gt;Node5 -->
<g id="edge17_Node000013_Node000005" class="edge">
<title>Node13&#45;&gt;Node5</title>
<g id="a_edge17_Node000013_Node000005"><a xlink:title=" ">
<path fill="none" stroke="#63b8ff" d="M1071.37,-185.88C1042.95,-141.1 985.48,-50.54 966.71,-20.96"/>
<polygon fill="#63b8ff" stroke="#63b8ff" points="1068.32,-187.62 1076.64,-194.18 1074.23,-183.86 1068.32,-187.62"/>
</a>
</g>
</g>
<!-- Node14&#45;&gt;Node13 -->
<g id="edge19_Node000014_Node000013" class="edge">
<title>Node14&#45;&gt;Node13</title>
<g id="a_edge19_Node000014_Node000013"><a xlink:title=" ">
<path fill="none" stroke="#63b8ff" d="M1028.77,-258.14C1041.12,-248.77 1055.13,-238.15 1066.38,-229.62"/>
<polygon fill="#63b8ff" stroke="#63b8ff" points="1026.78,-255.26 1020.92,-264.09 1031.01,-260.83 1026.78,-255.26"/>
</a>
</g>
</g>
<!-- Node15&#45;&gt;Node5 -->
<g id="edge22_Node000015_Node000005" class="edge">
<title>Node15&#45;&gt;Node5</title>
<g id="a_edge22_Node000015_Node000005"><a xlink:title=" ">
<path fill="none" stroke="#63b8ff" d="M1245.02,-328.73C1232.09,-320.82 1219.03,-310.81 1209.62,-298.75 1185.09,-267.31 1181.62,-253.38 1181.62,-213.5 1181.62,-213.5 1181.62,-213.5 1181.62,-142 1181.62,-65.45 1082.15,-32.82 1016.68,-19.63"/>
<polygon fill="#63b8ff" stroke="#63b8ff" points="1243.1,-331.66 1253.51,-333.61 1246.58,-325.59 1243.1,-331.66"/>
</a>
</g>
</g>
<!-- Node15&#45;&gt;Node15 -->
<g id="edge21_Node000015_Node000015" class="edge">
<title>Node15&#45;&gt;Node15</title>
<g id="a_edge21_Node000015_Node000015"><a xlink:title=" ">
<path fill="none" stroke="#63b8ff" d="M1363.34,-360.45C1367.58,-358.31 1370.12,-355.33 1370.12,-351.5 1370.12,-345.05 1362.92,-341 1352.52,-339.33"/>
<polygon fill="#63b8ff" stroke="#63b8ff" points="1362.56,-357.04 1353.97,-363.23 1364.55,-363.75 1362.56,-357.04"/>
</a>
</g>
</g>
<!-- Node16 -->
<g id="Node000016" class="node">
<title>Node16</title>
<g id="a_Node000016"><a xlink:href="solution__output_8cc.html" target="_top" xlink:title=" ">
<polygon fill="white" stroke="#666666" points="1364.88,-292.38 1218.38,-292.38 1218.38,-271.62 1364.88,-271.62 1364.88,-292.38"/>
<text text-anchor="middle" x="1291.62" y="-278.88" font-family="Helvetica,sans-Serif" font-size="10.00">src/core/solution_output.cc</text>
</a>
</g>
</g>
<!-- Node15&#45;&gt;Node16 -->
<g id="edge23_Node000015_Node000016" class="edge">
<title>Node15&#45;&gt;Node16</title>
<g id="a_edge23_Node000015_Node000016"><a xlink:title=" ">
<path fill="none" stroke="#63b8ff" d="M1291.62,-323.03C1291.62,-312.33 1291.62,-300.76 1291.62,-292.82"/>
<polygon fill="#63b8ff" stroke="#63b8ff" points="1288.13,-322.99 1291.63,-332.99 1295.13,-322.99 1288.13,-322.99"/>
</a>
</g>
</g>
<!-- Node17&#45;&gt;Node13 -->
<g id="edge25_Node000017_Node000013" class="edge">
<title>Node17&#45;&gt;Node13</title>
<g id="a_edge25_Node000017_Node000013"><a xlink:title=" ">
<path fill="none" stroke="#63b8ff" d="M1127.91,-323.87C1117.66,-295.81 1101.87,-252.52 1093.42,-229.38"/>
<polygon fill="#63b8ff" stroke="#63b8ff" points="1124.56,-324.9 1131.27,-333.09 1131.13,-322.5 1124.56,-324.9"/>
</a>
</g>
</g>
<!-- Node18&#45;&gt;Node2 -->
<g id="edge33_Node000018_Node000002" class="edge">
<title>Node18&#45;&gt;Node2</title>
<g id="a_edge33_Node000018_Node000002"><a xlink:title=" ">
<path fill="none" stroke="#63b8ff" d="M668.58,-333.4C617.66,-322.38 552.14,-308.21 503.56,-297.7"/>
<polygon fill="#63b8ff" stroke="#63b8ff" points="667.55,-336.76 678.06,-335.45 669.03,-329.91 667.55,-336.76"/>
</a>
</g>
</g>
<!-- Node18&#45;&gt;Node3 -->
<g id="edge30_Node000018_Node000003" class="edge">
<title>Node18&#45;&gt;Node3</title>
<g id="a_edge30_Node000018_Node000003"><a xlink:title=" ">
<path fill="none" stroke="#63b8ff" d="M668.3,-343.53C589.26,-335.75 464.72,-321.21 358.62,-298.75 271.2,-280.24 171.77,-248.8 114.69,-229.71"/>
<polygon fill="#63b8ff" stroke="#63b8ff" points="667.83,-347 678.12,-344.48 668.51,-340.03 667.83,-347"/>
</a>
</g>
</g>
<!-- Node18&#45;&gt;Node5 -->
<g id="edge35_Node000018_Node000005" class="edge">
<title>Node18&#45;&gt;Node5</title>
<g id="a_edge35_Node000018_Node000005"><a xlink:title=" ">
<path fill="none" stroke="#63b8ff" d="M826.54,-335.97C848.75,-328.3 871.07,-316.6 886.62,-298.75 912.13,-269.49 905.62,-252.32 905.62,-213.5 905.62,-213.5 905.62,-213.5 905.62,-142 905.62,-93.28 938.53,-41.78 953.43,-20.95"/>
<polygon fill="#63b8ff" stroke="#63b8ff" points="825.59,-332.6 817.12,-338.97 827.71,-339.28 825.59,-332.6"/>
</a>
</g>
</g>
<!-- Node18&#45;&gt;Node7 -->
<g id="edge31_Node000018_Node000007" class="edge">
<title>Node18&#45;&gt;Node7</title>
<g id="a_edge31_Node000018_Node000007"><a xlink:title=" ">
<path fill="none" stroke="#63b8ff" d="M723.19,-326.4C714.45,-317.72 704.56,-307.84 695.62,-298.75 672.16,-274.88 645.33,-246.85 628.94,-229.63"/>
<polygon fill="#63b8ff" stroke="#63b8ff" points="720.5,-328.66 730.06,-333.21 725.42,-323.69 720.5,-328.66"/>
</a>
</g>
</g>
<!-- Node18&#45;&gt;Node8 -->
<g id="edge32_Node000018_Node000008" class="edge">
<title>Node18&#45;&gt;Node8</title>
<g id="a_edge32_Node000018_Node000008"><a xlink:title=" ">
<path fill="none" stroke="#63b8ff" d="M698.86,-330.01C633.69,-302.62 519.54,-254.65 460.09,-229.66"/>
<polygon fill="#63b8ff" stroke="#63b8ff" points="697.3,-333.15 707.87,-333.8 700.01,-326.69 697.3,-333.15"/>
</a>
</g>
</g>
<!-- Node18&#45;&gt;Node10 -->
<g id="edge34_Node000018_Node000010" class="edge">
<title>Node18&#45;&gt;Node10</title>
<g id="a_edge34_Node000018_Node000010"><a xlink:title=" ">
<path fill="none" stroke="#63b8ff" d="M739.15,-323.55C725.77,-281.68 700.28,-204.82 690.62,-195.75 662.3,-169.13 620.82,-156.16 585.58,-149.86"/>
<polygon fill="#63b8ff" stroke="#63b8ff" points="735.76,-324.44 742.12,-332.91 742.43,-322.32 735.76,-324.44"/>
</a>
</g>
</g>
<!-- Node18&#45;&gt;Node14 -->
<g id="edge27_Node000018_Node000014" class="edge">
<title>Node18&#45;&gt;Node14</title>
<g id="a_edge27_Node000018_Node000014"><a xlink:title=" ">
<path fill="none" stroke="#63b8ff" d="M818.69,-331.39C856.52,-321.22 902.53,-308.84 938.56,-299.15"/>
<polygon fill="#63b8ff" stroke="#63b8ff" points="817.96,-327.96 809.21,-333.94 819.77,-334.72 817.96,-327.96"/>
</a>
</g>
</g>
<!-- Node19 -->
<g id="Node000019" class="node">
<title>Node19</title>
<g id="a_Node000019"><a xlink:href="constant__solver_8h.html" target="_top" xlink:title=" ">
<polygon fill="white" stroke="#666666" points="777.25,-159.75 642,-159.75 642,-126.25 777.25,-126.25 777.25,-159.75"/>
<text text-anchor="start" x="650" y="-146.25" font-family="Helvetica,sans-Serif" font-size="10.00">include/prismspf/solvers</text>
<text text-anchor="middle" x="709.62" y="-133.5" font-family="Helvetica,sans-Serif" font-size="10.00">/constant_solver.h</text>
</a>
</g>
</g>
<!-- Node18&#45;&gt;Node19 -->
<g id="edge28_Node000018_Node000019" class="edge">
<title>Node18&#45;&gt;Node19</title>
<g id="a_edge28_Node000018_Node000019"><a xlink:title=" ">
<path fill="none" stroke="#63b8ff" d="M744.35,-323.42C740.38,-292.39 733.04,-240.13 723.62,-195.75 721.08,-183.73 717.43,-170.35 714.5,-160.2"/>
<polygon fill="#63b8ff" stroke="#63b8ff" points="740.84,-323.59 745.56,-333.08 747.79,-322.72 740.84,-323.59"/>
</a>
</g>
</g>
<!-- Node20 -->
<g id="Node000020" class="node">
<title>Node20</title>
<g id="a_Node000020"><a xlink:href="solver__base_8cc.html" target="_top" xlink:title=" ">
<polygon fill="white" stroke="#666666" points="877.38,-298.75 775.88,-298.75 775.88,-265.25 877.38,-265.25 877.38,-298.75"/>
<text text-anchor="start" x="783.88" y="-285.25" font-family="Helvetica,sans-Serif" font-size="10.00">src/solvers/solver</text>
<text text-anchor="middle" x="826.62" y="-272.5" font-family="Helvetica,sans-Serif" font-size="10.00">_base.cc</text>
</a>
</g>
</g>
<!-- Node18&#45;&gt;Node20 -->
<g id="edge36_Node000018_Node000020" class="edge">
<title>Node18&#45;&gt;Node20</title>
<g id="a_edge36_Node000018_Node000020"><a xlink:title=" ">
<path fill="none" stroke="#63b8ff" d="M775.03,-327.09C785.83,-317.85 797.97,-307.48 807.76,-299.12"/>
<polygon fill="#63b8ff" stroke="#63b8ff" points="772.83,-324.36 767.5,-333.52 777.37,-329.69 772.83,-324.36"/>
</a>
</g>
</g>
<!-- Node19&#45;&gt;Node4 -->
<g id="edge29_Node000019_Node000004" class="edge">
<title>Node19&#45;&gt;Node4</title>
<g id="a_edge29_Node000019_Node000004"><a xlink:title=" ">
<path fill="none" stroke="#63b8ff" d="M653.02,-122.1C624.52,-112.08 590.42,-100.09 563.57,-90.65"/>
<polygon fill="#63b8ff" stroke="#63b8ff" points="651.61,-125.32 662.21,-125.33 653.94,-118.71 651.61,-125.32"/>
</a>
</g>
</g>
</g>
</svg>
