<?xml version="1.0" encoding="UTF-8" standalone="no"?>
<!DOCTYPE svg PUBLIC "-//W3C//DTD SVG 1.1//EN"
 "http://www.w3.org/Graphics/SVG/1.1/DTD/svg11.dtd">
<!-- Generated by graphviz version 12.2.1 (20241206.2353)
 -->
<!-- Title: include/prismspf/core/phase_field_tools.h Pages: 1 -->
<svg width="1258pt" height="585pt"
 viewBox="0.00 0.00 1258.12 584.75" xmlns="http://www.w3.org/2000/svg" xmlns:xlink="http://www.w3.org/1999/xlink">
<g id="graph0" class="graph" transform="scale(1 1) rotate(0) translate(4 580.75)">
<title>include/prismspf/core/phase_field_tools.h</title>
<!-- Node1 -->
<g id="Node000001" class="node">
<title>Node1</title>
<g id="a_Node000001"><a xlink:title=" ">
<polygon fill="#999999" stroke="#666666" points="575,-576.75 454,-576.75 454,-543.25 575,-543.25 575,-576.75"/>
<text text-anchor="start" x="462" y="-563.25" font-family="Helvetica,sans-Serif" font-size="10.00">include/prismspf/core</text>
<text text-anchor="middle" x="514.5" y="-550.5" font-family="Helvetica,sans-Serif" font-size="10.00">/phase_field_tools.h</text>
</a>
</g>
</g>
<!-- Node2 -->
<g id="Node000002" class="node">
<title>Node2</title>
<g id="a_Node000002"><a xlink:href="pde__operator__base_8h.html" target="_top" xlink:title=" ">
<polygon fill="white" stroke="#666666" points="575,-507.25 454,-507.25 454,-473.75 575,-473.75 575,-507.25"/>
<text text-anchor="start" x="462" y="-493.75" font-family="Helvetica,sans-Serif" font-size="10.00">include/prismspf/core</text>
<text text-anchor="middle" x="514.5" y="-481" font-family="Helvetica,sans-Serif" font-size="10.00">/pde_operator_base.h</text>
</a>
</g>
</g>
<!-- Node1&#45;&gt;Node2 -->
<g id="edge1_Node000001_Node000002" class="edge">
<title>Node1&#45;&gt;Node2</title>
<g id="a_edge1_Node000001_Node000002"><a xlink:title=" ">
<path fill="none" stroke="#63b8ff" d="M514.5,-531.56C514.5,-523.34 514.5,-514.59 514.5,-507.38"/>
<polygon fill="#63b8ff" stroke="#63b8ff" points="511,-531.49 514.5,-541.49 518,-531.49 511,-531.49"/>
</a>
</g>
</g>
<!-- Node16 -->
<g id="Node000016" class="node">
<title>Node16</title>
<g id="a_Node000016"><a xlink:href="nucleation__manager_8h.html" target="_top" xlink:title=" ">
<polygon fill="white" stroke="#666666" points="151,-368.25 0,-368.25 0,-334.75 151,-334.75 151,-368.25"/>
<text text-anchor="start" x="8" y="-354.75" font-family="Helvetica,sans-Serif" font-size="10.00">include/prismspf/nucleation</text>
<text text-anchor="middle" x="75.5" y="-342" font-family="Helvetica,sans-Serif" font-size="10.00">/nucleation_manager.h</text>
</a>
</g>
</g>
<!-- Node1&#45;&gt;Node16 -->
<g id="edge37_Node000001_Node000016" class="edge">
<title>Node1&#45;&gt;Node16</title>
<g id="a_edge37_Node000001_Node000016"><a xlink:title=" ">
<path fill="none" stroke="#63b8ff" d="M459.81,-538.93C400.21,-516.47 302.52,-477.93 221.5,-437.75 177.85,-416.1 129.42,-386.68 100.76,-368.67"/>
<polygon fill="#63b8ff" stroke="#63b8ff" points="458.48,-542.17 469.07,-542.4 460.94,-535.62 458.48,-542.17"/>
</a>
</g>
</g>
<!-- Node22 -->
<g id="Node000022" class="node">
<title>Node22</title>
<g id="a_Node000022"><a xlink:href="phase__field__tools_8cc.html" target="_top" xlink:title=" ">
<polygon fill="white" stroke="#666666" points="705.88,-507.25 593.12,-507.25 593.12,-473.75 705.88,-473.75 705.88,-507.25"/>
<text text-anchor="start" x="601.12" y="-493.75" font-family="Helvetica,sans-Serif" font-size="10.00">src/core/phase_field</text>
<text text-anchor="middle" x="649.5" y="-481" font-family="Helvetica,sans-Serif" font-size="10.00">_tools.cc</text>
</a>
</g>
</g>
<!-- Node1&#45;&gt;Node22 -->
<g id="edge38_Node000001_Node000022" class="edge">
<title>Node1&#45;&gt;Node22</title>
<g id="a_edge38_Node000001_Node000022"><a xlink:title=" ">
<path fill="none" stroke="#63b8ff" d="M557.01,-537.74C576.56,-527.97 599.36,-516.57 617.43,-507.54"/>
<polygon fill="#63b8ff" stroke="#63b8ff" points="555.57,-534.55 548.19,-542.16 558.7,-540.81 555.57,-534.55"/>
</a>
</g>
</g>
<!-- Node3 -->
<g id="Node000003" class="node">
<title>Node3</title>
<g id="a_Node000003"><a xlink:href="mf__operator_8h.html" target="_top" xlink:title=" ">
<polygon fill="white" stroke="#666666" points="934.12,-298.75 798.88,-298.75 798.88,-265.25 934.12,-265.25 934.12,-298.75"/>
<text text-anchor="start" x="806.88" y="-285.25" font-family="Helvetica,sans-Serif" font-size="10.00">include/prismspf/solvers</text>
<text text-anchor="middle" x="866.5" y="-272.5" font-family="Helvetica,sans-Serif" font-size="10.00">/mf_operator.h</text>
</a>
</g>
</g>
<!-- Node2&#45;&gt;Node3 -->
<g id="edge2_Node000002_Node000003" class="edge">
<title>Node2&#45;&gt;Node3</title>
<g id="a_edge2_Node000002_Node000003"><a xlink:title=" ">
<path fill="none" stroke="#63b8ff" d="M586.11,-472.85C628.72,-462.26 678.13,-448.54 697.5,-437.75 764.91,-400.17 827.21,-330.68 853.43,-299.22"/>
<polygon fill="#63b8ff" stroke="#63b8ff" points="585.51,-469.4 576.64,-475.19 587.18,-476.2 585.51,-469.4"/>
</a>
</g>
</g>
<!-- Node11 -->
<g id="Node000011" class="node">
<title>Node11</title>
<g id="a_Node000011"><a xlink:href="solve__context_8h.html" target="_top" xlink:title=" ">
<polygon fill="white" stroke="#666666" points="366.12,-437.75 230.88,-437.75 230.88,-404.25 366.12,-404.25 366.12,-437.75"/>
<text text-anchor="start" x="238.88" y="-424.25" font-family="Helvetica,sans-Serif" font-size="10.00">include/prismspf/solvers</text>
<text text-anchor="middle" x="298.5" y="-411.5" font-family="Helvetica,sans-Serif" font-size="10.00">/solve_context.h</text>
</a>
</g>
</g>
<!-- Node2&#45;&gt;Node11 -->
<g id="edge13_Node000002_Node000011" class="edge">
<title>Node2&#45;&gt;Node11</title>
<g id="a_edge13_Node000002_Node000011"><a xlink:title=" ">
<path fill="none" stroke="#63b8ff" d="M452.08,-469.99C419.77,-459.9 380.79,-447.72 350.19,-438.15"/>
<polygon fill="#63b8ff" stroke="#63b8ff" points="450.73,-473.24 461.32,-472.88 452.82,-466.56 450.73,-473.24"/>
</a>
</g>
</g>
<!-- Node17 -->
<g id="Node000017" class="node">
<title>Node17</title>
<g id="a_Node000017"><a xlink:href="solver__base_8h.html" target="_top" xlink:title=" ">
<polygon fill="white" stroke="#666666" points="762.12,-368.25 626.88,-368.25 626.88,-334.75 762.12,-334.75 762.12,-368.25"/>
<text text-anchor="start" x="634.88" y="-354.75" font-family="Helvetica,sans-Serif" font-size="10.00">include/prismspf/solvers</text>
<text text-anchor="middle" x="694.5" y="-342" font-family="Helvetica,sans-Serif" font-size="10.00">/solver_base.h</text>
</a>
</g>
</g>
<!-- Node2&#45;&gt;Node17 -->
<g id="edge34_Node000002_Node000017" class="edge">
<title>Node2&#45;&gt;Node17</title>
<g id="a_edge34_Node000002_Node000017"><a xlink:title=" ">
<path fill="none" stroke="#63b8ff" d="M585.48,-470.21C625.54,-458.71 668.91,-444.98 675.5,-437.75 692.87,-418.71 695.55,-387.36 695.39,-368.45"/>
<polygon fill="#63b8ff" stroke="#63b8ff" points="584.69,-466.79 576.03,-472.89 586.6,-473.53 584.69,-466.79"/>
</a>
</g>
</g>
<!-- Node20 -->
<g id="Node000020" class="node">
<title>Node20</title>
<g id="a_Node000020"><a xlink:href="dirichlet_8cc.html" target="_top" xlink:title=" ">
<polygon fill="white" stroke="#666666" points="494.75,-431.38 384.25,-431.38 384.25,-410.62 494.75,-410.62 494.75,-431.38"/>
<text text-anchor="middle" x="439.5" y="-417.88" font-family="Helvetica,sans-Serif" font-size="10.00">src/core/dirichlet.cc</text>
</a>
</g>
</g>
<!-- Node2&#45;&gt;Node20 -->
<g id="edge35_Node000002_Node000020" class="edge">
<title>Node2&#45;&gt;Node20</title>
<g id="a_edge35_Node000002_Node000020"><a xlink:title=" ">
<path fill="none" stroke="#63b8ff" d="M488.53,-466.12C475.48,-454.38 460.37,-440.78 450.41,-431.82"/>
<polygon fill="#63b8ff" stroke="#63b8ff" points="485.83,-468.4 495.6,-472.49 490.51,-463.2 485.83,-468.4"/>
</a>
</g>
</g>
<!-- Node21 -->
<g id="Node000021" class="node">
<title>Node21</title>
<g id="a_Node000021"><a xlink:href="initial__conditions_8cc.html" target="_top" xlink:title=" ">
<polygon fill="white" stroke="#666666" points="666.5,-431.38 512.5,-431.38 512.5,-410.62 666.5,-410.62 666.5,-431.38"/>
<text text-anchor="middle" x="589.5" y="-417.88" font-family="Helvetica,sans-Serif" font-size="10.00">src/core/initial_conditions.cc</text>
</a>
</g>
</g>
<!-- Node2&#45;&gt;Node21 -->
<g id="edge36_Node000002_Node000021" class="edge">
<title>Node2&#45;&gt;Node21</title>
<g id="a_edge36_Node000002_Node000021"><a xlink:title=" ">
<path fill="none" stroke="#63b8ff" d="M540.47,-466.12C553.52,-454.38 568.63,-440.78 578.59,-431.82"/>
<polygon fill="#63b8ff" stroke="#63b8ff" points="538.49,-463.2 533.4,-472.49 543.17,-468.4 538.49,-463.2"/>
</a>
</g>
</g>
<!-- Node4 -->
<g id="Node000004" class="node">
<title>Node4</title>
<g id="a_Node000004"><a xlink:href="explicit__solver_8h.html" target="_top" xlink:title=" ">
<polygon fill="white" stroke="#666666" points="1250.12,-229.25 1114.88,-229.25 1114.88,-195.75 1250.12,-195.75 1250.12,-229.25"/>
<text text-anchor="start" x="1122.88" y="-215.75" font-family="Helvetica,sans-Serif" font-size="10.00">include/prismspf/solvers</text>
<text text-anchor="middle" x="1182.5" y="-203" font-family="Helvetica,sans-Serif" font-size="10.00">/explicit_solver.h</text>
</a>
</g>
</g>
<!-- Node3&#45;&gt;Node4 -->
<g id="edge3_Node000003_Node000004" class="edge">
<title>Node3&#45;&gt;Node4</title>
<g id="a_edge3_Node000003_Node000004"><a xlink:title=" ">
<path fill="none" stroke="#63b8ff" d="M945.48,-264.13C997.51,-253.02 1064.92,-238.62 1114.55,-228.01"/>
<polygon fill="#63b8ff" stroke="#63b8ff" points="944.82,-260.69 935.77,-266.2 946.28,-267.54 944.82,-260.69"/>
</a>
</g>
</g>
<!-- Node8 -->
<g id="Node000008" class="node">
<title>Node8</title>
<g id="a_Node000008"><a xlink:href="linear__solver_8h.html" target="_top" xlink:title=" ">
<polygon fill="white" stroke="#666666" points="934.12,-229.25 798.88,-229.25 798.88,-195.75 934.12,-195.75 934.12,-229.25"/>
<text text-anchor="start" x="806.88" y="-215.75" font-family="Helvetica,sans-Serif" font-size="10.00">include/prismspf/solvers</text>
<text text-anchor="middle" x="866.5" y="-203" font-family="Helvetica,sans-Serif" font-size="10.00">/linear_solver.h</text>
</a>
</g>
</g>
<!-- Node3&#45;&gt;Node8 -->
<g id="edge7_Node000003_Node000008" class="edge">
<title>Node3&#45;&gt;Node8</title>
<g id="a_edge7_Node000003_Node000008"><a xlink:title=" ">
<path fill="none" stroke="#63b8ff" d="M866.5,-253.56C866.5,-245.34 866.5,-236.59 866.5,-229.38"/>
<polygon fill="#63b8ff" stroke="#63b8ff" points="863,-253.49 866.5,-263.49 870,-253.49 863,-253.49"/>
</a>
</g>
</g>
<!-- Node9 -->
<g id="Node000009" class="node">
<title>Node9</title>
<g id="a_Node000009"><a xlink:href="newton__solver_8h.html" target="_top" xlink:title=" ">
<polygon fill="white" stroke="#666666" points="853.12,-159.75 717.88,-159.75 717.88,-126.25 853.12,-126.25 853.12,-159.75"/>
<text text-anchor="start" x="725.88" y="-146.25" font-family="Helvetica,sans-Serif" font-size="10.00">include/prismspf/solvers</text>
<text text-anchor="middle" x="785.5" y="-133.5" font-family="Helvetica,sans-Serif" font-size="10.00">/newton_solver.h</text>
</a>
</g>
</g>
<!-- Node3&#45;&gt;Node9 -->
<g id="edge11_Node000003_Node000009" class="edge">
<title>Node3&#45;&gt;Node9</title>
<g id="a_edge11_Node000003_Node000009"><a xlink:title=" ">
<path fill="none" stroke="#63b8ff" d="M818.7,-258.8C807.2,-251.1 796.29,-241.31 789.5,-229.25 777.36,-207.69 779.35,-177.98 782.21,-159.93"/>
<polygon fill="#63b8ff" stroke="#63b8ff" points="816.77,-261.72 827.13,-263.97 820.44,-255.76 816.77,-261.72"/>
</a>
</g>
</g>
<!-- Node10 -->
<g id="Node000010" class="node">
<title>Node10</title>
<g id="a_Node000010"><a xlink:href="mf__operator_8cc.html" target="_top" xlink:title=" ">
<polygon fill="white" stroke="#666666" points="1096.62,-222.88 952.38,-222.88 952.38,-202.12 1096.62,-202.12 1096.62,-222.88"/>
<text text-anchor="middle" x="1024.5" y="-209.38" font-family="Helvetica,sans-Serif" font-size="10.00">src/solvers/mf_operator.cc</text>
</a>
</g>
</g>
<!-- Node3&#45;&gt;Node10 -->
<g id="edge12_Node000003_Node000010" class="edge">
<title>Node3&#45;&gt;Node10</title>
<g id="a_edge12_Node000003_Node000010"><a xlink:title=" ">
<path fill="none" stroke="#63b8ff" d="M914.66,-260.43C943.55,-248.08 978.96,-232.95 1001.63,-223.27"/>
<polygon fill="#63b8ff" stroke="#63b8ff" points="913.56,-257.09 905.74,-264.24 916.31,-263.53 913.56,-257.09"/>
</a>
</g>
</g>
<!-- Node5 -->
<g id="Node000005" class="node">
<title>Node5</title>
<g id="a_Node000005"><a xlink:href="solvers_8h.html" target="_top" xlink:title=" ">
<polygon fill="white" stroke="#666666" points="853.12,-90.25 717.88,-90.25 717.88,-56.75 853.12,-56.75 853.12,-90.25"/>
<text text-anchor="start" x="725.88" y="-76.75" font-family="Helvetica,sans-Serif" font-size="10.00">include/prismspf/solvers</text>
<text text-anchor="middle" x="785.5" y="-64" font-family="Helvetica,sans-Serif" font-size="10.00">/solvers.h</text>
</a>
</g>
</g>
<!-- Node4&#45;&gt;Node5 -->
<g id="edge4_Node000004_Node000005" class="edge">
<title>Node4&#45;&gt;Node5</title>
<g id="a_edge4_Node000004_Node000005"><a xlink:title=" ">
<path fill="none" stroke="#63b8ff" d="M1125.07,-191.68C1046.05,-164.41 905.34,-115.86 832.34,-90.66"/>
<polygon fill="#63b8ff" stroke="#63b8ff" points="1123.77,-194.93 1134.36,-194.89 1126.05,-188.32 1123.77,-194.93"/>
</a>
</g>
</g>
<!-- Node6 -->
<g id="Node000006" class="node">
<title>Node6</title>
<g id="a_Node000006"><a xlink:href="problem_8cc.html" target="_top" xlink:title=" ">
<polygon fill="white" stroke="#666666" points="499.12,-20.75 387.88,-20.75 387.88,0 499.12,0 499.12,-20.75"/>
<text text-anchor="middle" x="443.5" y="-7.25" font-family="Helvetica,sans-Serif" font-size="10.00">src/core/problem.cc</text>
</a>
</g>
</g>
<!-- Node5&#45;&gt;Node6 -->
<g id="edge5_Node000005_Node000006" class="edge">
<title>Node5&#45;&gt;Node6</title>
<g id="a_edge5_Node000005_Node000006"><a xlink:title=" ">
<path fill="none" stroke="#63b8ff" d="M706.33,-58.35C642.68,-46.97 554.9,-31.29 498.66,-21.23"/>
<polygon fill="#63b8ff" stroke="#63b8ff" points="705.57,-61.77 716.03,-60.08 706.8,-54.88 705.57,-61.77"/>
</a>
</g>
</g>
<!-- Node7 -->
<g id="Node000007" class="node">
<title>Node7</title>
<g id="a_Node000007"><a xlink:href="solvers_8cc.html" target="_top" xlink:title=" ">
<polygon fill="white" stroke="#666666" points="845.62,-20.75 725.38,-20.75 725.38,0 845.62,0 845.62,-20.75"/>
<text text-anchor="middle" x="785.5" y="-7.25" font-family="Helvetica,sans-Serif" font-size="10.00">src/solvers/solvers.cc</text>
</a>
</g>
</g>
<!-- Node5&#45;&gt;Node7 -->
<g id="edge6_Node000005_Node000007" class="edge">
<title>Node5&#45;&gt;Node7</title>
<g id="a_edge6_Node000005_Node000007"><a xlink:title=" ">
<path fill="none" stroke="#63b8ff" d="M785.5,-44.94C785.5,-36.46 785.5,-27.67 785.5,-21.22"/>
<polygon fill="#63b8ff" stroke="#63b8ff" points="782,-44.93 785.5,-54.93 789,-44.93 782,-44.93"/>
</a>
</g>
</g>
<!-- Node8&#45;&gt;Node5 -->
<g id="edge10_Node000008_Node000005" class="edge">
<title>Node8&#45;&gt;Node5</title>
<g id="a_edge10_Node000008_Node000005"><a xlink:title=" ">
<path fill="none" stroke="#63b8ff" d="M871.22,-184.32C872.9,-166.66 872.37,-143.77 862.5,-126.25 853.8,-110.81 838.37,-99.09 823.58,-90.73"/>
<polygon fill="#63b8ff" stroke="#63b8ff" points="867.77,-183.71 869.98,-194.07 874.71,-184.59 867.77,-183.71"/>
</a>
</g>
</g>
<!-- Node8&#45;&gt;Node9 -->
<g id="edge8_Node000008_Node000009" class="edge">
<title>Node8&#45;&gt;Node9</title>
<g id="a_edge8_Node000008_Node000009"><a xlink:title=" ">
<path fill="none" stroke="#63b8ff" d="M838.74,-188.36C827.57,-179.06 814.98,-168.56 804.84,-160.12"/>
<polygon fill="#63b8ff" stroke="#63b8ff" points="836.22,-190.82 846.14,-194.53 840.7,-185.44 836.22,-190.82"/>
</a>
</g>
</g>
<!-- Node9&#45;&gt;Node5 -->
<g id="edge9_Node000009_Node000005" class="edge">
<title>Node9&#45;&gt;Node5</title>
<g id="a_edge9_Node000009_Node000005"><a xlink:title=" ">
<path fill="none" stroke="#63b8ff" d="M785.5,-114.56C785.5,-106.34 785.5,-97.59 785.5,-90.38"/>
<polygon fill="#63b8ff" stroke="#63b8ff" points="782,-114.49 785.5,-124.49 789,-114.49 782,-114.49"/>
</a>
</g>
</g>
<!-- Node12 -->
<g id="Node000012" class="node">
<title>Node12</title>
<g id="a_Node000012"><a xlink:href="problem_8h.html" target="_top" xlink:title=" ">
<polygon fill="white" stroke="#666666" points="266,-229.25 145,-229.25 145,-195.75 266,-195.75 266,-229.25"/>
<text text-anchor="start" x="153" y="-215.75" font-family="Helvetica,sans-Serif" font-size="10.00">include/prismspf/core</text>
<text text-anchor="middle" x="205.5" y="-203" font-family="Helvetica,sans-Serif" font-size="10.00">/problem.h</text>
</a>
</g>
</g>
<!-- Node11&#45;&gt;Node12 -->
<g id="edge14_Node000011_Node000012" class="edge">
<title>Node11&#45;&gt;Node12</title>
<g id="a_edge14_Node000011_Node000012"><a xlink:title=" ">
<path fill="none" stroke="#63b8ff" d="M259.1,-397.75C226.94,-376.96 184.21,-342.57 167.5,-298.75 162.2,-284.84 162.86,-279.4 167.5,-265.25 171.87,-251.9 181.15,-239.16 189.44,-229.66"/>
<polygon fill="#63b8ff" stroke="#63b8ff" points="257.08,-400.61 267.41,-402.96 260.79,-394.68 257.08,-400.61"/>
</a>
</g>
</g>
<!-- Node13 -->
<g id="Node000013" class="node">
<title>Node13</title>
<g id="a_Node000013"><a xlink:href="refinement__manager_8h.html" target="_top" xlink:title=" ">
<polygon fill="white" stroke="#666666" points="508.12,-298.75 378.88,-298.75 378.88,-265.25 508.12,-265.25 508.12,-298.75"/>
<text text-anchor="start" x="386.88" y="-285.25" font-family="Helvetica,sans-Serif" font-size="10.00">include/prismspf/core</text>
<text text-anchor="middle" x="443.5" y="-272.5" font-family="Helvetica,sans-Serif" font-size="10.00">/refinement_manager.h</text>
</a>
</g>
</g>
<!-- Node11&#45;&gt;Node13 -->
<g id="edge16_Node000011_Node000013" class="edge">
<title>Node11&#45;&gt;Node13</title>
<g id="a_edge16_Node000011_Node000013"><a xlink:title=" ">
<path fill="none" stroke="#63b8ff" d="M343.84,-398.49C358.44,-390.27 374.04,-380.01 386.5,-368.25 408.25,-347.72 426,-317.42 435.64,-299.02"/>
<polygon fill="#63b8ff" stroke="#63b8ff" points="342.41,-395.28 335.29,-403.12 345.75,-401.44 342.41,-395.28"/>
</a>
</g>
</g>
<!-- Node14 -->
<g id="Node000014" class="node">
<title>Node14</title>
<g id="a_Node000014"><a xlink:href="solution__output_8h.html" target="_top" xlink:title=" ">
<polygon fill="white" stroke="#666666" points="359,-368.25 238,-368.25 238,-334.75 359,-334.75 359,-368.25"/>
<text text-anchor="start" x="246" y="-354.75" font-family="Helvetica,sans-Serif" font-size="10.00">include/prismspf/core</text>
<text text-anchor="middle" x="298.5" y="-342" font-family="Helvetica,sans-Serif" font-size="10.00">/solution_output.h</text>
</a>
</g>
</g>
<!-- Node11&#45;&gt;Node14 -->
<g id="edge18_Node000011_Node000014" class="edge">
<title>Node11&#45;&gt;Node14</title>
<g id="a_edge18_Node000011_Node000014"><a xlink:title=" ">
<path fill="none" stroke="#63b8ff" d="M298.5,-392.56C298.5,-384.34 298.5,-375.59 298.5,-368.38"/>
<polygon fill="#63b8ff" stroke="#63b8ff" points="295,-392.49 298.5,-402.49 302,-392.49 295,-392.49"/>
</a>
</g>
</g>
<!-- Node11&#45;&gt;Node16 -->
<g id="edge22_Node000011_Node000016" class="edge">
<title>Node11&#45;&gt;Node16</title>
<g id="a_edge22_Node000011_Node000016"><a xlink:title=" ">
<path fill="none" stroke="#63b8ff" d="M234.49,-400.63C201.05,-390.5 160.6,-378.26 128.86,-368.65"/>
<polygon fill="#63b8ff" stroke="#63b8ff" points="233.05,-403.85 243.64,-403.39 235.08,-397.15 233.05,-403.85"/>
</a>
</g>
</g>
<!-- Node11&#45;&gt;Node17 -->
<g id="edge24_Node000011_Node000017" class="edge">
<title>Node11&#45;&gt;Node17</title>
<g id="a_edge24_Node000011_Node000017"><a xlink:title=" ">
<path fill="none" stroke="#63b8ff" d="M377.69,-403.89C469.62,-387.19 564.38,-372.22 626.53,-362.7"/>
<polygon fill="#63b8ff" stroke="#63b8ff" points="377.19,-400.42 367.98,-405.66 378.45,-407.31 377.19,-400.42"/>
</a>
</g>
</g>
<!-- Node12&#45;&gt;Node6 -->
<g id="edge15_Node000012_Node000006" class="edge">
<title>Node12&#45;&gt;Node6</title>
<g id="a_edge15_Node000012_Node000006"><a xlink:title=" ">
<path fill="none" stroke="#63b8ff" d="M221.68,-185.74C243.94,-152.12 286.92,-93.26 336.5,-56.75 358.6,-40.48 387.41,-28.69 409.58,-21.21"/>
<polygon fill="#63b8ff" stroke="#63b8ff" points="218.8,-183.76 216.28,-194.05 224.67,-187.57 218.8,-183.76"/>
</a>
</g>
</g>
<!-- Node13&#45;&gt;Node12 -->
<g id="edge17_Node000013_Node000012" class="edge">
<title>Node13&#45;&gt;Node12</title>
<g id="a_edge17_Node000013_Node000012"><a xlink:title=" ">
<path fill="none" stroke="#63b8ff" d="M375.65,-261.76C339.87,-251.61 296.47,-239.3 262.45,-229.65"/>
<polygon fill="#63b8ff" stroke="#63b8ff" points="374.46,-265.06 385.04,-264.42 376.37,-258.32 374.46,-265.06"/>
</a>
</g>
</g>
<!-- Node14&#45;&gt;Node6 -->
<g id="edge20_Node000014_Node000006" class="edge">
<title>Node14&#45;&gt;Node6</title>
<g id="a_edge20_Node000014_Node000006"><a xlink:title=" ">
<path fill="none" stroke="#63b8ff" d="M317.08,-325.26C322.37,-317.12 327.72,-307.85 331.5,-298.75 346.38,-262.9 350.5,-252.32 350.5,-213.5 350.5,-213.5 350.5,-213.5 350.5,-142 350.5,-87.99 403.91,-40.83 429.78,-21.15"/>
<polygon fill="#63b8ff" stroke="#63b8ff" points="314.35,-323.04 311.61,-333.28 320.13,-326.99 314.35,-323.04"/>
</a>
</g>
</g>
<!-- Node14&#45;&gt;Node14 -->
<g id="edge19_Node000014_Node000014" class="edge">
<title>Node14&#45;&gt;Node14</title>
<g id="a_edge19_Node000014_Node000014"><a xlink:title=" ">
<path fill="none" stroke="#63b8ff" d="M370.22,-360.45C374.46,-358.31 377,-355.33 377,-351.5 377,-345.05 369.79,-341 359.39,-339.33"/>
<polygon fill="#63b8ff" stroke="#63b8ff" points="369.43,-357.04 360.84,-363.23 371.42,-363.75 369.43,-357.04"/>
</a>
</g>
</g>
<!-- Node15 -->
<g id="Node000015" class="node">
<title>Node15</title>
<g id="a_Node000015"><a xlink:href="solution__output_8cc.html" target="_top" xlink:title=" ">
<polygon fill="white" stroke="#666666" points="322.75,-292.38 176.25,-292.38 176.25,-271.62 322.75,-271.62 322.75,-292.38"/>
<text text-anchor="middle" x="249.5" y="-278.88" font-family="Helvetica,sans-Serif" font-size="10.00">src/core/solution_output.cc</text>
</a>
</g>
</g>
<!-- Node14&#45;&gt;Node15 -->
<g id="edge21_Node000014_Node000015" class="edge">
<title>Node14&#45;&gt;Node15</title>
<g id="a_edge21_Node000014_Node000015"><a xlink:title=" ">
<path fill="none" stroke="#63b8ff" d="M280.3,-325.43C272.07,-314.1 262.83,-301.36 256.63,-292.82"/>
<polygon fill="#63b8ff" stroke="#63b8ff" points="277.29,-327.24 286,-333.28 282.96,-323.13 277.29,-327.24"/>
</a>
</g>
</g>
<!-- Node16&#45;&gt;Node12 -->
<g id="edge23_Node000016_Node000012" class="edge">
<title>Node16&#45;&gt;Node12</title>
<g id="a_edge23_Node000016_Node000012"><a xlink:title=" ">
<path fill="none" stroke="#63b8ff" d="M90.12,-324.81C101,-306.95 116.95,-283.23 134.5,-265.25 147.82,-251.6 165.06,-238.95 179.21,-229.56"/>
<polygon fill="#63b8ff" stroke="#63b8ff" points="87.2,-322.87 85.1,-333.25 93.21,-326.45 87.2,-322.87"/>
</a>
</g>
</g>
<!-- Node17&#45;&gt;Node3 -->
<g id="edge30_Node000017_Node000003" class="edge">
<title>Node17&#45;&gt;Node3</title>
<g id="a_edge30_Node000017_Node000003"><a xlink:title=" ">
<path fill="none" stroke="#63b8ff" d="M746.23,-330.2C771.55,-320.26 801.61,-308.47 825.34,-299.15"/>
<polygon fill="#63b8ff" stroke="#63b8ff" points="745.14,-326.87 737.11,-333.78 747.69,-333.38 745.14,-326.87"/>
</a>
</g>
</g>
<!-- Node17&#45;&gt;Node4 -->
<g id="edge28_Node000017_Node000004" class="edge">
<title>Node17&#45;&gt;Node4</title>
<g id="a_edge28_Node000017_Node000004"><a xlink:title=" ">
<path fill="none" stroke="#63b8ff" d="M773.7,-336.92C822.97,-327.77 887.4,-314.5 943.5,-298.75 1014.75,-278.74 1095.42,-248.28 1142.45,-229.7"/>
<polygon fill="#63b8ff" stroke="#63b8ff" points="773.17,-333.46 763.97,-338.71 774.44,-340.35 773.17,-333.46"/>
</a>
</g>
</g>
<!-- Node17&#45;&gt;Node6 -->
<g id="edge32_Node000017_Node000006" class="edge">
<title>Node17&#45;&gt;Node6</title>
<g id="a_edge32_Node000017_Node000006"><a xlink:title=" ">
<path fill="none" stroke="#63b8ff" d="M615.58,-335.97C593.37,-328.3 571.06,-316.6 555.5,-298.75 530,-269.49 536.5,-252.32 536.5,-213.5 536.5,-213.5 536.5,-213.5 536.5,-142 536.5,-87.99 483.09,-40.83 457.22,-21.15"/>
<polygon fill="#63b8ff" stroke="#63b8ff" points="614.41,-339.28 625,-338.97 616.53,-332.6 614.41,-339.28"/>
</a>
</g>
</g>
<!-- Node17&#45;&gt;Node8 -->
<g id="edge29_Node000017_Node000008" class="edge">
<title>Node17&#45;&gt;Node8</title>
<g id="a_edge29_Node000017_Node000008"><a xlink:title=" ">
<path fill="none" stroke="#63b8ff" d="M719.29,-326.51C737.99,-308.85 764.59,-284.64 789.5,-265.25 805.89,-252.49 825.32,-239.44 840.56,-229.65"/>
<polygon fill="#63b8ff" stroke="#63b8ff" points="716.97,-323.88 712.14,-333.31 721.79,-328.96 716.97,-323.88"/>
</a>
</g>
</g>
<!-- Node17&#45;&gt;Node9 -->
<g id="edge31_Node000017_Node000009" class="edge">
<title>Node17&#45;&gt;Node9</title>
<g id="a_edge31_Node000017_Node000009"><a xlink:title=" ">
<path fill="none" stroke="#63b8ff" d="M706.2,-323.96C725.34,-280.53 762.77,-195.57 778.39,-160.13"/>
<polygon fill="#63b8ff" stroke="#63b8ff" points="703.08,-322.35 702.25,-332.91 709.49,-325.17 703.08,-322.35"/>
</a>
</g>
</g>
<!-- Node17&#45;&gt;Node13 -->
<g id="edge25_Node000017_Node000013" class="edge">
<title>Node17&#45;&gt;Node13</title>
<g id="a_edge25_Node000017_Node000013"><a xlink:title=" ">
<path fill="none" stroke="#63b8ff" d="M623.43,-331.39C585.6,-321.22 539.59,-308.84 503.56,-299.15"/>
<polygon fill="#63b8ff" stroke="#63b8ff" points="622.35,-334.72 632.92,-333.94 624.17,-327.96 622.35,-334.72"/>
</a>
</g>
</g>
<!-- Node18 -->
<g id="Node000018" class="node">
<title>Node18</title>
<g id="a_Node000018"><a xlink:href="constant__solver_8h.html" target="_top" xlink:title=" ">
<polygon fill="white" stroke="#666666" points="700.12,-159.75 564.88,-159.75 564.88,-126.25 700.12,-126.25 700.12,-159.75"/>
<text text-anchor="start" x="572.88" y="-146.25" font-family="Helvetica,sans-Serif" font-size="10.00">include/prismspf/solvers</text>
<text text-anchor="middle" x="632.5" y="-133.5" font-family="Helvetica,sans-Serif" font-size="10.00">/constant_solver.h</text>
</a>
</g>
</g>
<!-- Node17&#45;&gt;Node18 -->
<g id="edge26_Node000017_Node000018" class="edge">
<title>Node17&#45;&gt;Node18</title>
<g id="a_edge26_Node000017_Node000018"><a xlink:title=" ">
<path fill="none" stroke="#63b8ff" d="M689.27,-323.09C685.85,-306.27 681,-284.36 675.5,-265.25 664.45,-226.83 647.83,-182.86 638.83,-159.88"/>
<polygon fill="#63b8ff" stroke="#63b8ff" points="685.83,-323.71 691.21,-332.84 692.7,-322.35 685.83,-323.71"/>
</a>
</g>
</g>
<!-- Node19 -->
<g id="Node000019" class="node">
<title>Node19</title>
<g id="a_Node000019"><a xlink:href="solver__base_8cc.html" target="_top" xlink:title=" ">
<polygon fill="white" stroke="#666666" points="666.25,-298.75 564.75,-298.75 564.75,-265.25 666.25,-265.25 666.25,-298.75"/>
<text text-anchor="start" x="572.75" y="-285.25" font-family="Helvetica,sans-Serif" font-size="10.00">src/solvers/solver</text>
<text text-anchor="middle" x="615.5" y="-272.5" font-family="Helvetica,sans-Serif" font-size="10.00">_base.cc</text>
</a>
</g>
</g>
<!-- Node17&#45;&gt;Node19 -->
<g id="edge33_Node000017_Node000019" class="edge">
<title>Node17&#45;&gt;Node19</title>
<g id="a_edge33_Node000017_Node000019"><a xlink:title=" ">
<path fill="none" stroke="#63b8ff" d="M667.1,-327.09C656.29,-317.85 644.15,-307.48 634.36,-299.12"/>
<polygon fill="#63b8ff" stroke="#63b8ff" points="664.75,-329.69 674.63,-333.52 669.3,-324.36 664.75,-329.69"/>
</a>
</g>
</g>
<!-- Node18&#45;&gt;Node5 -->
<g id="edge27_Node000018_Node000005" class="edge">
<title>Node18&#45;&gt;Node5</title>
<g id="a_edge27_Node000018_Node000005"><a xlink:title=" ">
<path fill="none" stroke="#63b8ff" d="M679.42,-121.3C701.75,-111.45 728.06,-99.84 748.89,-90.65"/>
<polygon fill="#63b8ff" stroke="#63b8ff" points="678.27,-117.98 670.53,-125.22 681.09,-124.39 678.27,-117.98"/>
</a>
</g>
</g>
</g>
</svg>
