<?xml version="1.0" encoding="UTF-8" standalone="no"?>
<!DOCTYPE svg PUBLIC "-//W3C//DTD SVG 1.1//EN"
 "http://www.w3.org/Graphics/SVG/1.1/DTD/svg11.dtd">
<!-- Generated by graphviz version 12.2.1 (20241206.2353)
 -->
<!-- Title: include/prismspf/core/phase_field_tools.h Pages: 1 -->
<svg width="1159pt" height="585pt"
 viewBox="0.00 0.00 1159.12 584.75" xmlns="http://www.w3.org/2000/svg" xmlns:xlink="http://www.w3.org/1999/xlink">
<g id="graph0" class="graph" transform="scale(1 1) rotate(0) translate(4 580.75)">
<title>include/prismspf/core/phase_field_tools.h</title>
<!-- Node1 -->
<g id="Node000001" class="node">
<title>Node1</title>
<g id="a_Node000001"><a xlink:title=" ">
<polygon fill="#999999" stroke="#666666" points="975.12,-576.75 854.12,-576.75 854.12,-543.25 975.12,-543.25 975.12,-576.75"/>
<text text-anchor="start" x="862.12" y="-563.25" font-family="Helvetica,sans-Serif" font-size="10.00">include/prismspf/core</text>
<text text-anchor="middle" x="914.62" y="-550.5" font-family="Helvetica,sans-Serif" font-size="10.00">/phase_field_tools.h</text>
</a>
</g>
</g>
<!-- Node2 -->
<g id="Node000002" class="node">
<title>Node2</title>
<g id="a_Node000002"><a xlink:href="pde__operator__base_8h.html" target="_top" xlink:title=" ">
<polygon fill="white" stroke="#666666" points="727.12,-507.25 606.12,-507.25 606.12,-473.75 727.12,-473.75 727.12,-507.25"/>
<text text-anchor="start" x="614.12" y="-493.75" font-family="Helvetica,sans-Serif" font-size="10.00">include/prismspf/core</text>
<text text-anchor="middle" x="666.62" y="-481" font-family="Helvetica,sans-Serif" font-size="10.00">/pde_operator_base.h</text>
</a>
</g>
</g>
<!-- Node1&#45;&gt;Node2 -->
<g id="edge1_Node000001_Node000002" class="edge">
<title>Node1&#45;&gt;Node2</title>
<g id="a_edge1_Node000001_Node000002"><a xlink:title=" ">
<path fill="none" stroke="#63b8ff" d="M844.41,-539.89C807.03,-529.72 761.57,-517.34 725.97,-507.65"/>
<polygon fill="#63b8ff" stroke="#63b8ff" points="843.19,-543.19 853.76,-542.43 845.03,-536.43 843.19,-543.19"/>
</a>
</g>
</g>
<!-- Node17 -->
<g id="Node000017" class="node">
<title>Node17</title>
<g id="a_Node000017"><a xlink:href="nucleation__manager_8h.html" target="_top" xlink:title=" ">
<polygon fill="white" stroke="#666666" points="994.12,-368.25 843.12,-368.25 843.12,-334.75 994.12,-334.75 994.12,-368.25"/>
<text text-anchor="start" x="851.12" y="-354.75" font-family="Helvetica,sans-Serif" font-size="10.00">include/prismspf/nucleation</text>
<text text-anchor="middle" x="918.62" y="-342" font-family="Helvetica,sans-Serif" font-size="10.00">/nucleation_manager.h</text>
</a>
</g>
</g>
<!-- Node1&#45;&gt;Node17 -->
<g id="edge39_Node000001_Node000017" class="edge">
<title>Node1&#45;&gt;Node17</title>
<g id="a_edge39_Node000001_Node000017"><a xlink:title=" ">
<path fill="none" stroke="#63b8ff" d="M915.16,-531.34C916.01,-487.59 917.63,-403.77 918.31,-368.63"/>
<polygon fill="#63b8ff" stroke="#63b8ff" points="911.66,-531.22 914.97,-541.28 918.66,-531.35 911.66,-531.22"/>
</a>
</g>
</g>
<!-- Node23 -->
<g id="Node000023" class="node">
<title>Node23</title>
<g id="a_Node000023"><a xlink:href="phase__field__tools_8cc.html" target="_top" xlink:title=" ">
<polygon fill="white" stroke="#666666" points="1055,-507.25 942.25,-507.25 942.25,-473.75 1055,-473.75 1055,-507.25"/>
<text text-anchor="start" x="950.25" y="-493.75" font-family="Helvetica,sans-Serif" font-size="10.00">src/core/phase_field</text>
<text text-anchor="middle" x="998.62" y="-481" font-family="Helvetica,sans-Serif" font-size="10.00">_tools.cc</text>
</a>
</g>
</g>
<!-- Node1&#45;&gt;Node23 -->
<g id="edge40_Node000001_Node000023" class="edge">
<title>Node1&#45;&gt;Node23</title>
<g id="a_edge40_Node000001_Node000023"><a xlink:title=" ">
<path fill="none" stroke="#63b8ff" d="M943.42,-535.86C954.99,-526.56 968.06,-516.06 978.57,-507.62"/>
<polygon fill="#63b8ff" stroke="#63b8ff" points="941.31,-533.06 935.71,-542.06 945.7,-538.52 941.31,-533.06"/>
</a>
</g>
</g>
<!-- Node3 -->
<g id="Node000003" class="node">
<title>Node3</title>
<g id="a_Node000003"><a xlink:href="mf__operator_8h.html" target="_top" xlink:title=" ">
<polygon fill="white" stroke="#666666" points="448.25,-298.75 313,-298.75 313,-265.25 448.25,-265.25 448.25,-298.75"/>
<text text-anchor="start" x="321" y="-285.25" font-family="Helvetica,sans-Serif" font-size="10.00">include/prismspf/solvers</text>
<text text-anchor="middle" x="380.62" y="-272.5" font-family="Helvetica,sans-Serif" font-size="10.00">/mf_operator.h</text>
</a>
</g>
</g>
<!-- Node2&#45;&gt;Node3 -->
<g id="edge2_Node000002_Node000003" class="edge">
<title>Node2&#45;&gt;Node3</title>
<g id="a_edge2_Node000002_Node000003"><a xlink:title=" ">
<path fill="none" stroke="#63b8ff" d="M594.37,-484.9C524.52,-478.85 425.56,-465.55 399.62,-437.75 363.8,-399.35 371.36,-330.28 377.12,-299.08"/>
<polygon fill="#63b8ff" stroke="#63b8ff" points="593.98,-488.38 604.24,-485.71 594.56,-481.4 593.98,-488.38"/>
</a>
</g>
</g>
<!-- Node12 -->
<g id="Node000012" class="node">
<title>Node12</title>
<g id="a_Node000012"><a xlink:href="solve__context_8h.html" target="_top" xlink:title=" ">
<polygon fill="white" stroke="#666666" points="882.25,-437.75 747,-437.75 747,-404.25 882.25,-404.25 882.25,-437.75"/>
<text text-anchor="start" x="755" y="-424.25" font-family="Helvetica,sans-Serif" font-size="10.00">include/prismspf/solvers</text>
<text text-anchor="middle" x="814.62" y="-411.5" font-family="Helvetica,sans-Serif" font-size="10.00">/solve_context.h</text>
</a>
</g>
</g>
<!-- Node2&#45;&gt;Node12 -->
<g id="edge15_Node000002_Node000012" class="edge">
<title>Node2&#45;&gt;Node12</title>
<g id="a_edge15_Node000002_Node000012"><a xlink:title=" ">
<path fill="none" stroke="#63b8ff" d="M712.31,-468.67C733.84,-458.84 759.15,-447.3 779.21,-438.15"/>
<polygon fill="#63b8ff" stroke="#63b8ff" points="711.1,-465.37 703.45,-472.7 714,-471.74 711.1,-465.37"/>
</a>
</g>
</g>
<!-- Node18 -->
<g id="Node000018" class="node">
<title>Node18</title>
<g id="a_Node000018"><a xlink:href="solver__base_8h.html" target="_top" xlink:title=" ">
<polygon fill="white" stroke="#666666" points="621.25,-368.25 486,-368.25 486,-334.75 621.25,-334.75 621.25,-368.25"/>
<text text-anchor="start" x="494" y="-354.75" font-family="Helvetica,sans-Serif" font-size="10.00">include/prismspf/solvers</text>
<text text-anchor="middle" x="553.62" y="-342" font-family="Helvetica,sans-Serif" font-size="10.00">/solver_base.h</text>
</a>
</g>
</g>
<!-- Node2&#45;&gt;Node18 -->
<g id="edge36_Node000002_Node000018" class="edge">
<title>Node2&#45;&gt;Node18</title>
<g id="a_edge36_Node000002_Node000018"><a xlink:title=" ">
<path fill="none" stroke="#63b8ff" d="M688.34,-464.55C701.16,-446.65 712.57,-422.57 699.62,-404.25 681.78,-378.99 650.5,-365.98 621.47,-359.32"/>
<polygon fill="#63b8ff" stroke="#63b8ff" points="685.87,-462.02 682.55,-472.08 691.42,-466.28 685.87,-462.02"/>
</a>
</g>
</g>
<!-- Node21 -->
<g id="Node000021" class="node">
<title>Node21</title>
<g id="a_Node000021"><a xlink:href="dirichlet_8cc.html" target="_top" xlink:title=" ">
<polygon fill="white" stroke="#666666" points="518.88,-431.38 408.38,-431.38 408.38,-410.62 518.88,-410.62 518.88,-431.38"/>
<text text-anchor="middle" x="463.62" y="-417.88" font-family="Helvetica,sans-Serif" font-size="10.00">src/core/dirichlet.cc</text>
</a>
</g>
</g>
<!-- Node2&#45;&gt;Node21 -->
<g id="edge37_Node000002_Node000021" class="edge">
<title>Node2&#45;&gt;Node21</title>
<g id="a_edge37_Node000002_Node000021"><a xlink:title=" ">
<path fill="none" stroke="#63b8ff" d="M607.22,-469.75C569.79,-457.3 523.09,-441.77 493.31,-431.87"/>
<polygon fill="#63b8ff" stroke="#63b8ff" points="605.97,-473.02 616.57,-472.85 608.18,-466.38 605.97,-473.02"/>
</a>
</g>
</g>
<!-- Node22 -->
<g id="Node000022" class="node">
<title>Node22</title>
<g id="a_Node000022"><a xlink:href="initial__conditions_8cc.html" target="_top" xlink:title=" ">
<polygon fill="white" stroke="#666666" points="690.62,-431.38 536.62,-431.38 536.62,-410.62 690.62,-410.62 690.62,-431.38"/>
<text text-anchor="middle" x="613.62" y="-417.88" font-family="Helvetica,sans-Serif" font-size="10.00">src/core/initial_conditions.cc</text>
</a>
</g>
</g>
<!-- Node2&#45;&gt;Node22 -->
<g id="edge38_Node000002_Node000022" class="edge">
<title>Node2&#45;&gt;Node22</title>
<g id="a_edge38_Node000002_Node000022"><a xlink:title=" ">
<path fill="none" stroke="#63b8ff" d="M647.21,-464.77C638.24,-453.35 628.11,-440.44 621.34,-431.82"/>
<polygon fill="#63b8ff" stroke="#63b8ff" points="644.2,-466.61 653.13,-472.31 649.71,-462.29 644.2,-466.61"/>
</a>
</g>
</g>
<!-- Node4 -->
<g id="Node000004" class="node">
<title>Node4</title>
<g id="a_Node000004"><a xlink:href="explicit__solver_8h.html" target="_top" xlink:title=" ">
<polygon fill="white" stroke="#666666" points="190.25,-229.25 55,-229.25 55,-195.75 190.25,-195.75 190.25,-229.25"/>
<text text-anchor="start" x="63" y="-215.75" font-family="Helvetica,sans-Serif" font-size="10.00">include/prismspf/solvers</text>
<text text-anchor="middle" x="122.62" y="-203" font-family="Helvetica,sans-Serif" font-size="10.00">/explicit_solver.h</text>
</a>
</g>
</g>
<!-- Node3&#45;&gt;Node4 -->
<g id="edge3_Node000003_Node000004" class="edge">
<title>Node3&#45;&gt;Node4</title>
<g id="a_edge3_Node000003_Node000004"><a xlink:title=" ">
<path fill="none" stroke="#63b8ff" d="M307.83,-261.95C268.9,-251.77 221.47,-239.36 184.36,-229.65"/>
<polygon fill="#63b8ff" stroke="#63b8ff" points="306.8,-265.3 317.36,-264.45 308.57,-258.53 306.8,-265.3"/>
</a>
</g>
</g>
<!-- Node8 -->
<g id="Node000008" class="node">
<title>Node8</title>
<g id="a_Node000008"><a xlink:href="linear__solver_8h.html" target="_top" xlink:title=" ">
<polygon fill="white" stroke="#666666" points="544.25,-229.25 409,-229.25 409,-195.75 544.25,-195.75 544.25,-229.25"/>
<text text-anchor="start" x="417" y="-215.75" font-family="Helvetica,sans-Serif" font-size="10.00">include/prismspf/solvers</text>
<text text-anchor="middle" x="476.62" y="-203" font-family="Helvetica,sans-Serif" font-size="10.00">/linear_solver.h</text>
</a>
</g>
</g>
<!-- Node3&#45;&gt;Node8 -->
<g id="edge7_Node000003_Node000008" class="edge">
<title>Node3&#45;&gt;Node8</title>
<g id="a_edge7_Node000003_Node000008"><a xlink:title=" ">
<path fill="none" stroke="#63b8ff" d="M412.75,-258.41C426.17,-248.98 441.45,-238.23 453.7,-229.62"/>
<polygon fill="#63b8ff" stroke="#63b8ff" points="410.78,-255.52 404.61,-264.13 414.81,-261.24 410.78,-255.52"/>
</a>
</g>
</g>
<!-- Node9 -->
<g id="Node000009" class="node">
<title>Node9</title>
<g id="a_Node000009"><a xlink:href="mg__solver_8h.html" target="_top" xlink:title=" ">
<polygon fill="white" stroke="#666666" points="448.25,-159.75 313,-159.75 313,-126.25 448.25,-126.25 448.25,-159.75"/>
<text text-anchor="start" x="321" y="-146.25" font-family="Helvetica,sans-Serif" font-size="10.00">include/prismspf/solvers</text>
<text text-anchor="middle" x="380.62" y="-133.5" font-family="Helvetica,sans-Serif" font-size="10.00">/mg_solver.h</text>
</a>
</g>
</g>
<!-- Node3&#45;&gt;Node9 -->
<g id="edge12_Node000003_Node000009" class="edge">
<title>Node3&#45;&gt;Node9</title>
<g id="a_edge12_Node000003_Node000009"><a xlink:title=" ">
<path fill="none" stroke="#63b8ff" d="M380.62,-253.62C380.62,-225.54 380.62,-182.82 380.62,-159.88"/>
<polygon fill="#63b8ff" stroke="#63b8ff" points="377.13,-253.5 380.63,-263.5 384.13,-253.5 377.13,-253.5"/>
</a>
</g>
</g>
<!-- Node10 -->
<g id="Node000010" class="node">
<title>Node10</title>
<g id="a_Node000010"><a xlink:href="newton__solver_8h.html" target="_top" xlink:title=" ">
<polygon fill="white" stroke="#666666" points="640.25,-159.75 505,-159.75 505,-126.25 640.25,-126.25 640.25,-159.75"/>
<text text-anchor="start" x="513" y="-146.25" font-family="Helvetica,sans-Serif" font-size="10.00">include/prismspf/solvers</text>
<text text-anchor="middle" x="572.62" y="-133.5" font-family="Helvetica,sans-Serif" font-size="10.00">/newton_solver.h</text>
</a>
</g>
</g>
<!-- Node3&#45;&gt;Node10 -->
<g id="edge13_Node000003_Node000010" class="edge">
<title>Node3&#45;&gt;Node10</title>
<g id="a_edge13_Node000003_Node000010"><a xlink:title=" ">
<path fill="none" stroke="#63b8ff" d="M459.48,-274.9C492.82,-268.35 529.44,-255.22 553.62,-229.25 571.19,-210.38 573.81,-178.98 573.58,-160.01"/>
<polygon fill="#63b8ff" stroke="#63b8ff" points="459.05,-271.42 449.82,-276.62 460.28,-278.32 459.05,-271.42"/>
</a>
</g>
</g>
<!-- Node11 -->
<g id="Node000011" class="node">
<title>Node11</title>
<g id="a_Node000011"><a xlink:href="mf__operator_8cc.html" target="_top" xlink:title=" ">
<polygon fill="white" stroke="#666666" points="352.75,-222.88 208.5,-222.88 208.5,-202.12 352.75,-202.12 352.75,-222.88"/>
<text text-anchor="middle" x="280.62" y="-209.38" font-family="Helvetica,sans-Serif" font-size="10.00">src/solvers/mf_operator.cc</text>
</a>
</g>
</g>
<!-- Node3&#45;&gt;Node11 -->
<g id="edge14_Node000003_Node000011" class="edge">
<title>Node3&#45;&gt;Node11</title>
<g id="a_edge14_Node000003_Node000011"><a xlink:title=" ">
<path fill="none" stroke="#63b8ff" d="M347.23,-258.46C329.52,-246.51 308.69,-232.44 295.1,-223.27"/>
<polygon fill="#63b8ff" stroke="#63b8ff" points="345.17,-261.29 355.42,-263.99 349.09,-255.49 345.17,-261.29"/>
</a>
</g>
</g>
<!-- Node5 -->
<g id="Node000005" class="node">
<title>Node5</title>
<g id="a_Node000005"><a xlink:href="solvers_8h.html" target="_top" xlink:title=" ">
<polygon fill="white" stroke="#666666" points="544.25,-90.25 409,-90.25 409,-56.75 544.25,-56.75 544.25,-90.25"/>
<text text-anchor="start" x="417" y="-76.75" font-family="Helvetica,sans-Serif" font-size="10.00">include/prismspf/solvers</text>
<text text-anchor="middle" x="476.62" y="-64" font-family="Helvetica,sans-Serif" font-size="10.00">/solvers.h</text>
</a>
</g>
</g>
<!-- Node4&#45;&gt;Node5 -->
<g id="edge4_Node000004_Node000005" class="edge">
<title>Node4&#45;&gt;Node5</title>
<g id="a_edge4_Node000004_Node000005"><a xlink:title=" ">
<path fill="none" stroke="#63b8ff" d="M163.56,-190.06C199.75,-171.63 254.32,-145.12 303.62,-126.25 339.64,-112.47 380.98,-99.99 414.22,-90.73"/>
<polygon fill="#63b8ff" stroke="#63b8ff" points="162.05,-186.9 154.75,-194.58 165.24,-193.13 162.05,-186.9"/>
</a>
</g>
</g>
<!-- Node6 -->
<g id="Node000006" class="node">
<title>Node6</title>
<g id="a_Node000006"><a xlink:href="problem_8cc.html" target="_top" xlink:title=" ">
<polygon fill="white" stroke="#666666" points="756.25,-20.75 645,-20.75 645,0 756.25,0 756.25,-20.75"/>
<text text-anchor="middle" x="700.62" y="-7.25" font-family="Helvetica,sans-Serif" font-size="10.00">src/core/problem.cc</text>
</a>
</g>
</g>
<!-- Node5&#45;&gt;Node6 -->
<g id="edge5_Node000005_Node000006" class="edge">
<title>Node5&#45;&gt;Node6</title>
<g id="a_edge5_Node000005_Node000006"><a xlink:title=" ">
<path fill="none" stroke="#63b8ff" d="M547.12,-53.26C586.21,-42.6 633.15,-29.79 664.75,-21.17"/>
<polygon fill="#63b8ff" stroke="#63b8ff" points="546.25,-49.87 537.52,-55.88 548.09,-56.63 546.25,-49.87"/>
</a>
</g>
</g>
<!-- Node7 -->
<g id="Node000007" class="node">
<title>Node7</title>
<g id="a_Node000007"><a xlink:href="solvers_8cc.html" target="_top" xlink:title=" ">
<polygon fill="white" stroke="#666666" points="536.75,-20.75 416.5,-20.75 416.5,0 536.75,0 536.75,-20.75"/>
<text text-anchor="middle" x="476.62" y="-7.25" font-family="Helvetica,sans-Serif" font-size="10.00">src/solvers/solvers.cc</text>
</a>
</g>
</g>
<!-- Node5&#45;&gt;Node7 -->
<g id="edge6_Node000005_Node000007" class="edge">
<title>Node5&#45;&gt;Node7</title>
<g id="a_edge6_Node000005_Node000007"><a xlink:title=" ">
<path fill="none" stroke="#63b8ff" d="M476.62,-44.94C476.62,-36.46 476.62,-27.67 476.62,-21.22"/>
<polygon fill="#63b8ff" stroke="#63b8ff" points="473.13,-44.93 476.63,-54.93 480.13,-44.93 473.13,-44.93"/>
</a>
</g>
</g>
<!-- Node8&#45;&gt;Node5 -->
<g id="edge11_Node000008_Node000005" class="edge">
<title>Node8&#45;&gt;Node5</title>
<g id="a_edge11_Node000008_Node000005"><a xlink:title=" ">
<path fill="none" stroke="#63b8ff" d="M476.62,-184.12C476.62,-156.04 476.62,-113.32 476.62,-90.38"/>
<polygon fill="#63b8ff" stroke="#63b8ff" points="473.13,-184 476.63,-194 480.13,-184 473.13,-184"/>
</a>
</g>
</g>
<!-- Node8&#45;&gt;Node9 -->
<g id="edge8_Node000008_Node000009" class="edge">
<title>Node8&#45;&gt;Node9</title>
<g id="a_edge8_Node000008_Node000009"><a xlink:title=" ">
<path fill="none" stroke="#63b8ff" d="M444.5,-188.91C431.08,-179.48 415.8,-168.73 403.55,-160.12"/>
<polygon fill="#63b8ff" stroke="#63b8ff" points="442.44,-191.74 452.64,-194.63 446.47,-186.02 442.44,-191.74"/>
</a>
</g>
</g>
<!-- Node8&#45;&gt;Node10 -->
<g id="edge9_Node000008_Node000010" class="edge">
<title>Node8&#45;&gt;Node10</title>
<g id="a_edge9_Node000008_Node000010"><a xlink:title=" ">
<path fill="none" stroke="#63b8ff" d="M508.75,-188.91C522.17,-179.48 537.45,-168.73 549.7,-160.12"/>
<polygon fill="#63b8ff" stroke="#63b8ff" points="506.78,-186.02 500.61,-194.63 510.81,-191.74 506.78,-186.02"/>
</a>
</g>
</g>
<!-- Node10&#45;&gt;Node5 -->
<g id="edge10_Node000010_Node000005" class="edge">
<title>Node10&#45;&gt;Node5</title>
<g id="a_edge10_Node000010_Node000005"><a xlink:title=" ">
<path fill="none" stroke="#63b8ff" d="M540.5,-119.41C527.08,-109.98 511.8,-99.23 499.55,-90.62"/>
<polygon fill="#63b8ff" stroke="#63b8ff" points="538.44,-122.24 548.64,-125.13 542.47,-116.52 538.44,-122.24"/>
</a>
</g>
</g>
<!-- Node13 -->
<g id="Node000013" class="node">
<title>Node13</title>
<g id="a_Node000013"><a xlink:href="problem_8h.html" target="_top" xlink:title=" ">
<polygon fill="white" stroke="#666666" points="891.12,-229.25 770.12,-229.25 770.12,-195.75 891.12,-195.75 891.12,-229.25"/>
<text text-anchor="start" x="778.12" y="-215.75" font-family="Helvetica,sans-Serif" font-size="10.00">include/prismspf/core</text>
<text text-anchor="middle" x="830.62" y="-203" font-family="Helvetica,sans-Serif" font-size="10.00">/problem.h</text>
</a>
</g>
</g>
<!-- Node12&#45;&gt;Node13 -->
<g id="edge16_Node000012_Node000013" class="edge">
<title>Node12&#45;&gt;Node13</title>
<g id="a_edge16_Node000012_Node000013"><a xlink:title=" ">
<path fill="none" stroke="#63b8ff" d="M821.79,-393.19C827.92,-368.78 836.27,-331.64 839.62,-298.75 841.14,-283.94 840.91,-280.08 839.62,-265.25 838.59,-253.26 836.23,-239.87 834.19,-229.72"/>
<polygon fill="#63b8ff" stroke="#63b8ff" points="818.47,-392.06 819.37,-402.61 825.25,-393.8 818.47,-392.06"/>
</a>
</g>
</g>
<!-- Node14 -->
<g id="Node000014" class="node">
<title>Node14</title>
<g id="a_Node000014"><a xlink:href="refinement__manager_8h.html" target="_top" xlink:title=" ">
<polygon fill="white" stroke="#666666" points="830.25,-298.75 701,-298.75 701,-265.25 830.25,-265.25 830.25,-298.75"/>
<text text-anchor="start" x="709" y="-285.25" font-family="Helvetica,sans-Serif" font-size="10.00">include/prismspf/core</text>
<text text-anchor="middle" x="765.62" y="-272.5" font-family="Helvetica,sans-Serif" font-size="10.00">/refinement_manager.h</text>
</a>
</g>
</g>
<!-- Node12&#45;&gt;Node14 -->
<g id="edge18_Node000012_Node000014" class="edge">
<title>Node12&#45;&gt;Node14</title>
<g id="a_edge18_Node000012_Node000014"><a xlink:title=" ">
<path fill="none" stroke="#63b8ff" d="M805.1,-393.37C795.06,-365.31 779.58,-322.02 771.31,-298.88"/>
<polygon fill="#63b8ff" stroke="#63b8ff" points="801.74,-394.35 808.4,-402.59 808.33,-392 801.74,-394.35"/>
</a>
</g>
</g>
<!-- Node15 -->
<g id="Node000015" class="node">
<title>Node15</title>
<g id="a_Node000015"><a xlink:href="solution__output_8h.html" target="_top" xlink:title=" ">
<polygon fill="white" stroke="#666666" points="1133.12,-368.25 1012.12,-368.25 1012.12,-334.75 1133.12,-334.75 1133.12,-368.25"/>
<text text-anchor="start" x="1020.12" y="-354.75" font-family="Helvetica,sans-Serif" font-size="10.00">include/prismspf/core</text>
<text text-anchor="middle" x="1072.62" y="-342" font-family="Helvetica,sans-Serif" font-size="10.00">/solution_output.h</text>
</a>
</g>
</g>
<!-- Node12&#45;&gt;Node15 -->
<g id="edge20_Node000012_Node000015" class="edge">
<title>Node12&#45;&gt;Node15</title>
<g id="a_edge20_Node000012_Node000015"><a xlink:title=" ">
<path fill="none" stroke="#63b8ff" d="M887.51,-400.93C926.73,-390.67 974.56,-378.16 1011.78,-368.42"/>
<polygon fill="#63b8ff" stroke="#63b8ff" points="886.68,-397.53 877.89,-403.45 888.45,-404.3 886.68,-397.53"/>
</a>
</g>
</g>
<!-- Node12&#45;&gt;Node17 -->
<g id="edge24_Node000012_Node000017" class="edge">
<title>Node12&#45;&gt;Node17</title>
<g id="a_edge24_Node000012_Node000017"><a xlink:title=" ">
<path fill="none" stroke="#63b8ff" d="M848.84,-397.79C863.56,-388.24 880.45,-377.28 893.92,-368.54"/>
<polygon fill="#63b8ff" stroke="#63b8ff" points="847.29,-394.63 840.81,-403.01 851.1,-400.5 847.29,-394.63"/>
</a>
</g>
</g>
<!-- Node12&#45;&gt;Node18 -->
<g id="edge26_Node000012_Node000018" class="edge">
<title>Node12&#45;&gt;Node18</title>
<g id="a_edge26_Node000012_Node000018"><a xlink:title=" ">
<path fill="none" stroke="#63b8ff" d="M740.98,-400.95C701.6,-390.77 653.62,-378.36 616.08,-368.65"/>
<polygon fill="#63b8ff" stroke="#63b8ff" points="740.09,-404.34 750.64,-403.45 741.84,-397.56 740.09,-404.34"/>
</a>
</g>
</g>
<!-- Node13&#45;&gt;Node6 -->
<g id="edge17_Node000013_Node000006" class="edge">
<title>Node13&#45;&gt;Node6</title>
<g id="a_edge17_Node000013_Node000006"><a xlink:title=" ">
<path fill="none" stroke="#63b8ff" d="M813.98,-185.88C784.89,-141.1 726.07,-50.54 706.85,-20.96"/>
<polygon fill="#63b8ff" stroke="#63b8ff" points="811,-187.71 819.38,-194.19 816.87,-183.9 811,-187.71"/>
</a>
</g>
</g>
<!-- Node14&#45;&gt;Node13 -->
<g id="edge19_Node000014_Node000013" class="edge">
<title>Node14&#45;&gt;Node13</title>
<g id="a_edge19_Node000014_Node000013"><a xlink:title=" ">
<path fill="none" stroke="#63b8ff" d="M788.76,-256.97C797.59,-247.81 807.42,-237.6 815.33,-229.38"/>
<polygon fill="#63b8ff" stroke="#63b8ff" points="786.49,-254.28 782.08,-263.91 791.54,-259.14 786.49,-254.28"/>
</a>
</g>
</g>
<!-- Node15&#45;&gt;Node6 -->
<g id="edge22_Node000015_Node000006" class="edge">
<title>Node15&#45;&gt;Node6</title>
<g id="a_edge22_Node000015_Node000006"><a xlink:title=" ">
<path fill="none" stroke="#63b8ff" d="M1080.81,-323.64C1088.43,-296.22 1098.62,-252.3 1098.62,-213.5 1098.62,-213.5 1098.62,-213.5 1098.62,-142 1098.62,-70.82 865.92,-32.12 756.38,-17.85"/>
<polygon fill="#63b8ff" stroke="#63b8ff" points="1077.46,-322.62 1078.06,-333.2 1084.19,-324.56 1077.46,-322.62"/>
</a>
</g>
</g>
<!-- Node15&#45;&gt;Node15 -->
<g id="edge21_Node000015_Node000015" class="edge">
<title>Node15&#45;&gt;Node15</title>
<g id="a_edge21_Node000015_Node000015"><a xlink:title=" ">
<path fill="none" stroke="#63b8ff" d="M1144.34,-360.45C1148.58,-358.31 1151.12,-355.33 1151.12,-351.5 1151.12,-345.05 1143.92,-341 1133.52,-339.33"/>
<polygon fill="#63b8ff" stroke="#63b8ff" points="1143.56,-357.04 1134.97,-363.23 1145.55,-363.75 1143.56,-357.04"/>
</a>
</g>
</g>
<!-- Node16 -->
<g id="Node000016" class="node">
<title>Node16</title>
<g id="a_Node000016"><a xlink:href="solution__output_8cc.html" target="_top" xlink:title=" ">
<polygon fill="white" stroke="#666666" points="1070.88,-292.38 924.38,-292.38 924.38,-271.62 1070.88,-271.62 1070.88,-292.38"/>
<text text-anchor="middle" x="997.62" y="-278.88" font-family="Helvetica,sans-Serif" font-size="10.00">src/core/solution_output.cc</text>
</a>
</g>
</g>
<!-- Node15&#45;&gt;Node16 -->
<g id="edge23_Node000015_Node000016" class="edge">
<title>Node15&#45;&gt;Node16</title>
<g id="a_edge23_Node000015_Node000016"><a xlink:title=" ">
<path fill="none" stroke="#63b8ff" d="M1046.65,-327.12C1033.6,-315.38 1018.5,-301.78 1008.54,-292.82"/>
<polygon fill="#63b8ff" stroke="#63b8ff" points="1043.95,-329.4 1053.73,-333.49 1048.63,-324.2 1043.95,-329.4"/>
</a>
</g>
</g>
<!-- Node17&#45;&gt;Node13 -->
<g id="edge25_Node000017_Node000013" class="edge">
<title>Node17&#45;&gt;Node13</title>
<g id="a_edge25_Node000017_Node000013"><a xlink:title=" ">
<path fill="none" stroke="#63b8ff" d="M906.11,-324.34C897.47,-307.08 885.3,-284.25 872.62,-265.25 864.28,-252.74 853.58,-239.59 845.07,-229.67"/>
<polygon fill="#63b8ff" stroke="#63b8ff" points="902.78,-325.49 910.33,-332.92 909.06,-322.4 902.78,-325.49"/>
</a>
</g>
</g>
<!-- Node18&#45;&gt;Node3 -->
<g id="edge32_Node000018_Node000003" class="edge">
<title>Node18&#45;&gt;Node3</title>
<g id="a_edge32_Node000018_Node000003"><a xlink:title=" ">
<path fill="none" stroke="#63b8ff" d="M501.6,-330.2C476.13,-320.26 445.9,-308.47 422.02,-299.15"/>
<polygon fill="#63b8ff" stroke="#63b8ff" points="500.19,-333.41 510.78,-333.78 502.73,-326.89 500.19,-333.41"/>
</a>
</g>
</g>
<!-- Node18&#45;&gt;Node4 -->
<g id="edge30_Node000018_Node000004" class="edge">
<title>Node18&#45;&gt;Node4</title>
<g id="a_edge30_Node000018_Node000004"><a xlink:title=" ">
<path fill="none" stroke="#63b8ff" d="M474.3,-339C424.51,-330.59 359.4,-317.37 303.62,-298.75 247.78,-280.11 186.54,-248.78 151.53,-229.74"/>
<polygon fill="#63b8ff" stroke="#63b8ff" points="473.71,-342.45 484.15,-340.63 474.85,-335.55 473.71,-342.45"/>
</a>
</g>
</g>
<!-- Node18&#45;&gt;Node6 -->
<g id="edge34_Node000018_Node000006" class="edge">
<title>Node18&#45;&gt;Node6</title>
<g id="a_edge34_Node000018_Node000006"><a xlink:title=" ">
<path fill="none" stroke="#63b8ff" d="M614.77,-329.45C629.36,-321.83 643.59,-311.77 653.62,-298.75 677.31,-268 672.62,-252.32 672.62,-213.5 672.62,-213.5 672.62,-213.5 672.62,-142 672.62,-95.85 689.54,-42.52 697.08,-21.05"/>
<polygon fill="#63b8ff" stroke="#63b8ff" points="613.5,-326.18 606.02,-333.69 616.55,-332.48 613.5,-326.18"/>
</a>
</g>
</g>
<!-- Node18&#45;&gt;Node8 -->
<g id="edge31_Node000018_Node000008" class="edge">
<title>Node18&#45;&gt;Node8</title>
<g id="a_edge31_Node000018_Node000008"><a xlink:title=" ">
<path fill="none" stroke="#63b8ff" d="M523.95,-326.78C515.4,-318.67 506.73,-309.03 500.62,-298.75 487.59,-276.8 481.37,-247.47 478.61,-229.56"/>
<polygon fill="#63b8ff" stroke="#63b8ff" points="521.47,-329.26 531.25,-333.34 526.15,-324.05 521.47,-329.26"/>
</a>
</g>
</g>
<!-- Node18&#45;&gt;Node10 -->
<g id="edge33_Node000018_Node000010" class="edge">
<title>Node18&#45;&gt;Node10</title>
<g id="a_edge33_Node000018_Node000010"><a xlink:title=" ">
<path fill="none" stroke="#63b8ff" d="M541.28,-324.12C538.14,-316.14 535.21,-307.25 533.62,-298.75 530.9,-284.11 527.4,-278.78 533.62,-265.25 543.9,-242.91 565.35,-251.59 575.62,-229.25 585.84,-207.05 581.64,-178.05 577.36,-160.24"/>
<polygon fill="#63b8ff" stroke="#63b8ff" points="538.02,-325.4 545.14,-333.24 544.47,-322.67 538.02,-325.4"/>
</a>
</g>
</g>
<!-- Node18&#45;&gt;Node14 -->
<g id="edge27_Node000018_Node000014" class="edge">
<title>Node18&#45;&gt;Node14</title>
<g id="a_edge27_Node000018_Node000014"><a xlink:title=" ">
<path fill="none" stroke="#63b8ff" d="M615.3,-330.86C646.93,-320.79 684.99,-308.67 714.89,-299.15"/>
<polygon fill="#63b8ff" stroke="#63b8ff" points="614.31,-327.5 605.85,-333.87 616.44,-334.17 614.31,-327.5"/>
</a>
</g>
</g>
<!-- Node19 -->
<g id="Node000019" class="node">
<title>Node19</title>
<g id="a_Node000019"><a xlink:href="constant__solver_8h.html" target="_top" xlink:title=" ">
<polygon fill="white" stroke="#666666" points="135.25,-159.75 0,-159.75 0,-126.25 135.25,-126.25 135.25,-159.75"/>
<text text-anchor="start" x="8" y="-146.25" font-family="Helvetica,sans-Serif" font-size="10.00">include/prismspf/solvers</text>
<text text-anchor="middle" x="67.62" y="-133.5" font-family="Helvetica,sans-Serif" font-size="10.00">/constant_solver.h</text>
</a>
</g>
</g>
<!-- Node18&#45;&gt;Node19 -->
<g id="edge28_Node000018_Node000019" class="edge">
<title>Node18&#45;&gt;Node19</title>
<g id="a_edge28_Node000018_Node000019"><a xlink:title=" ">
<path fill="none" stroke="#63b8ff" d="M474.78,-344.28C344.35,-332.08 93.3,-299.78 45.62,-229.25 31.33,-208.1 45.05,-178.27 56.31,-160.08"/>
<polygon fill="#63b8ff" stroke="#63b8ff" points="474.08,-347.73 484.36,-345.16 474.72,-340.76 474.08,-347.73"/>
</a>
</g>
</g>
<!-- Node20 -->
<g id="Node000020" class="node">
<title>Node20</title>
<g id="a_Node000020"><a xlink:href="solver__base_8cc.html" target="_top" xlink:title=" ">
<polygon fill="white" stroke="#666666" points="644.38,-298.75 542.88,-298.75 542.88,-265.25 644.38,-265.25 644.38,-298.75"/>
<text text-anchor="start" x="550.88" y="-285.25" font-family="Helvetica,sans-Serif" font-size="10.00">src/solvers/solver</text>
<text text-anchor="middle" x="593.62" y="-272.5" font-family="Helvetica,sans-Serif" font-size="10.00">_base.cc</text>
</a>
</g>
</g>
<!-- Node18&#45;&gt;Node20 -->
<g id="edge35_Node000018_Node000020" class="edge">
<title>Node18&#45;&gt;Node20</title>
<g id="a_edge35_Node000018_Node000020"><a xlink:title=" ">
<path fill="none" stroke="#63b8ff" d="M568.87,-324.78C574.03,-316.07 579.64,-306.6 584.21,-298.88"/>
<polygon fill="#63b8ff" stroke="#63b8ff" points="565.96,-322.81 563.88,-333.2 571.99,-326.38 565.96,-322.81"/>
</a>
</g>
</g>
<!-- Node19&#45;&gt;Node5 -->
<g id="edge29_Node000019_Node000005" class="edge">
<title>Node19&#45;&gt;Node5</title>
<g id="a_edge29_Node000019_Node000005"><a xlink:title=" ">
<path fill="none" stroke="#63b8ff" d="M146.57,-128.97C222.69,-116.41 336.67,-97.6 408.81,-85.69"/>
<polygon fill="#63b8ff" stroke="#63b8ff" points="146.41,-125.45 137.12,-130.53 147.55,-132.36 146.41,-125.45"/>
</a>
</g>
</g>
</g>
</svg>
