<?xml version="1.0" encoding="UTF-8" standalone="no"?>
<!DOCTYPE svg PUBLIC "-//W3C//DTD SVG 1.1//EN"
 "http://www.w3.org/Graphics/SVG/1.1/DTD/svg11.dtd">
<!-- Generated by graphviz version 12.2.1 (20241206.2353)
 -->
<!-- Title: include/prismspf/field_input/read_field_base.h Pages: 1 -->
<svg width="2452pt" height="389pt"
 viewBox="0.00 0.00 2452.00 389.00" xmlns="http://www.w3.org/2000/svg" xmlns:xlink="http://www.w3.org/1999/xlink">
<g id="graph0" class="graph" transform="scale(1 1) rotate(0) translate(4 385)">
<title>include/prismspf/field_input/read_field_base.h</title>
<!-- Node1 -->
<g id="Node000001" class="node">
<title>Node1</title>
<g id="a_Node000001"><a xlink:title=" ">
<polygon fill="#999999" stroke="#666666" points="803.75,-381 669.25,-381 669.25,-347.5 803.75,-347.5 803.75,-381"/>
<text text-anchor="start" x="677.25" y="-367.5" font-family="Helvetica,sans-Serif" font-size="10.00">include/prismspf/field</text>
<text text-anchor="middle" x="736.5" y="-354.75" font-family="Helvetica,sans-Serif" font-size="10.00">_input/read_field_base.h</text>
</a>
</g>
</g>
<!-- Node2 -->
<g id="Node000002" class="node">
<title>Node2</title>
<g id="a_Node000002"><a xlink:title=" ">
<polygon fill="#e0e0e0" stroke="#999999" points="903.25,-153.38 765.75,-153.38 765.75,-132.62 903.25,-132.62 903.25,-153.38"/>
<text text-anchor="middle" x="834.5" y="-139.88" font-family="Helvetica,sans-Serif" font-size="10.00">deal.II/base/exceptions.h</text>
</a>
</g>
</g>
<!-- Node1&#45;&gt;Node2 -->
<g id="edge1_Node000001_Node000002" class="edge">
<title>Node1&#45;&gt;Node2</title>
<g id="a_edge1_Node000001_Node000002"><a xlink:title=" ">
<path fill="none" stroke="#63b8ff" d="M732.08,-347.02C724.42,-315.3 712.17,-243.97 741.5,-195.75 752.17,-178.2 771.12,-166.13 789.14,-158.1"/>
<polygon fill="#63b8ff" stroke="#63b8ff" points="790.24,-161.42 798.17,-154.39 787.59,-154.95 790.24,-161.42"/>
</a>
</g>
</g>
<!-- Node3 -->
<g id="Node000003" class="node">
<title>Node3</title>
<g id="a_Node000003"><a xlink:title=" ">
<polygon fill="#e0e0e0" stroke="#999999" points="1247,-153.38 1138,-153.38 1138,-132.62 1247,-132.62 1247,-153.38"/>
<text text-anchor="middle" x="1192.5" y="-139.88" font-family="Helvetica,sans-Serif" font-size="10.00">deal.II/base/point.h</text>
</a>
</g>
</g>
<!-- Node1&#45;&gt;Node3 -->
<g id="edge2_Node000001_Node000003" class="edge">
<title>Node1&#45;&gt;Node3</title>
<g id="a_edge2_Node000001_Node000003"><a xlink:title=" ">
<path fill="none" stroke="#63b8ff" d="M804,-358.42C992.74,-344.25 1515.36,-300.03 1564.5,-242 1714.93,-64.36 1837.59,-269.72 1252.5,-159.75 1247.6,-158.83 1242.52,-157.73 1237.47,-156.54"/>
<polygon fill="#63b8ff" stroke="#63b8ff" points="1238.59,-153.21 1228.05,-154.2 1236.91,-160.01 1238.59,-153.21"/>
</a>
</g>
</g>
<!-- Node4 -->
<g id="Node000004" class="node">
<title>Node4</title>
<g id="a_Node000004"><a xlink:title=" ">
<polygon fill="#e0e0e0" stroke="#999999" points="689.12,-305.12 583.88,-305.12 583.88,-284.38 689.12,-284.38 689.12,-305.12"/>
<text text-anchor="middle" x="636.5" y="-291.62" font-family="Helvetica,sans-Serif" font-size="10.00">deal.II/lac/vector.h</text>
</a>
</g>
</g>
<!-- Node1&#45;&gt;Node4 -->
<g id="edge3_Node000001_Node000004" class="edge">
<title>Node1&#45;&gt;Node4</title>
<g id="a_edge3_Node000001_Node000004"><a xlink:title=" ">
<path fill="none" stroke="#63b8ff" d="M712.55,-347.08C696.66,-336.36 675.91,-322.35 660.1,-311.68"/>
<polygon fill="#63b8ff" stroke="#63b8ff" points="662.48,-309.06 652.23,-306.37 658.56,-314.86 662.48,-309.06"/>
</a>
</g>
</g>
<!-- Node5 -->
<g id="Node000005" class="node">
<title>Node5</title>
<g id="a_Node000005"><a xlink:href="types_8h.html" target="_top" xlink:title=" ">
<polygon fill="white" stroke="#666666" points="1043.38,-153.38 921.62,-153.38 921.62,-132.62 1043.38,-132.62 1043.38,-153.38"/>
<text text-anchor="middle" x="982.5" y="-139.88" font-family="Helvetica,sans-Serif" font-size="10.00">prismspf/core/types.h</text>
</a>
</g>
</g>
<!-- Node1&#45;&gt;Node5 -->
<g id="edge4_Node000001_Node000005" class="edge">
<title>Node1&#45;&gt;Node5</title>
<g id="a_edge4_Node000001_Node000005"><a xlink:title=" ">
<path fill="none" stroke="#63b8ff" d="M738.02,-347.19C741.89,-309.57 753.37,-217.32 774.5,-195.75 777.28,-192.91 869.01,-170.81 929.71,-156.42"/>
<polygon fill="#63b8ff" stroke="#63b8ff" points="930.26,-159.89 939.18,-154.18 928.65,-153.08 930.26,-159.89"/>
</a>
</g>
</g>
<!-- Node11 -->
<g id="Node000011" class="node">
<title>Node11</title>
<g id="a_Node000011"><a xlink:href="load__initial__condition__parameters_8h.html" target="_top" xlink:title=" ">
<polygon fill="white" stroke="#666666" points="408.12,-242 284.88,-242 284.88,-195.75 408.12,-195.75 408.12,-242"/>
<text text-anchor="start" x="292.88" y="-228.5" font-family="Helvetica,sans-Serif" font-size="10.00">prismspf/user_inputs</text>
<text text-anchor="start" x="292.88" y="-215.75" font-family="Helvetica,sans-Serif" font-size="10.00">/load_initial_condition</text>
<text text-anchor="middle" x="346.5" y="-203" font-family="Helvetica,sans-Serif" font-size="10.00">_parameters.h</text>
</a>
</g>
</g>
<!-- Node1&#45;&gt;Node11 -->
<g id="edge11_Node000001_Node000011" class="edge">
<title>Node1&#45;&gt;Node11</title>
<g id="a_edge11_Node000001_Node000011"><a xlink:title=" ">
<path fill="none" stroke="#63b8ff" d="M682.54,-347.09C650.87,-337.34 610.2,-324.35 574.5,-311.5 518.39,-291.29 455.57,-265.83 410.11,-246.88"/>
<polygon fill="#63b8ff" stroke="#63b8ff" points="411.49,-243.67 400.91,-243.04 408.79,-250.13 411.49,-243.67"/>
</a>
</g>
</g>
<!-- Node15 -->
<g id="Node000015" class="node">
<title>Node15</title>
<g id="a_Node000015"><a xlink:title=" ">
<polygon fill="#e0e0e0" stroke="#999999" points="67,-153.38 0,-153.38 0,-132.62 67,-132.62 67,-153.38"/>
<text text-anchor="middle" x="33.5" y="-139.88" font-family="Helvetica,sans-Serif" font-size="10.00">filesystem</text>
</a>
</g>
</g>
<!-- Node1&#45;&gt;Node15 -->
<g id="edge61_Node000001_Node000015" class="edge">
<title>Node1&#45;&gt;Node15</title>
<g id="a_edge61_Node000001_Node000015"><a xlink:title=" ">
<path fill="none" stroke="#63b8ff" d="M668.93,-351.22C618.8,-341.8 548.95,-327.62 488.5,-311.5 326.04,-268.18 140.1,-190.49 66.22,-158.43"/>
<polygon fill="#63b8ff" stroke="#63b8ff" points="67.7,-155.26 57.14,-154.47 64.9,-161.68 67.7,-155.26"/>
</a>
</g>
</g>
<!-- Node17 -->
<g id="Node000017" class="node">
<title>Node17</title>
<g id="a_Node000017"><a xlink:href="spatial__discretization_8h.html" target="_top" xlink:title=" ">
<polygon fill="white" stroke="#666666" points="1139.62,-311.5 1007.38,-311.5 1007.38,-278 1139.62,-278 1139.62,-311.5"/>
<text text-anchor="start" x="1015.38" y="-298" font-family="Helvetica,sans-Serif" font-size="10.00">prismspf/user_inputs</text>
<text text-anchor="middle" x="1073.5" y="-285.25" font-family="Helvetica,sans-Serif" font-size="10.00">/spatial_discretization.h</text>
</a>
</g>
</g>
<!-- Node1&#45;&gt;Node17 -->
<g id="edge23_Node000001_Node000017" class="edge">
<title>Node1&#45;&gt;Node17</title>
<g id="a_edge23_Node000001_Node000017"><a xlink:title=" ">
<path fill="none" stroke="#63b8ff" d="M803.89,-349.75C859.38,-338.64 938.08,-322.87 996.14,-311.25"/>
<polygon fill="#63b8ff" stroke="#63b8ff" points="996.49,-314.74 1005.61,-309.35 995.12,-307.88 996.49,-314.74"/>
</a>
</g>
</g>
<!-- Node25 -->
<g id="Node000025" class="node">
<title>Node25</title>
<g id="a_Node000025"><a xlink:href="utilities_8h.html" target="_top" xlink:title=" ">
<polygon fill="white" stroke="#666666" points="1730.75,-235.62 1632.25,-235.62 1632.25,-202.12 1730.75,-202.12 1730.75,-235.62"/>
<text text-anchor="start" x="1640.25" y="-222.12" font-family="Helvetica,sans-Serif" font-size="10.00">prismspf/utilities</text>
<text text-anchor="middle" x="1681.5" y="-209.38" font-family="Helvetica,sans-Serif" font-size="10.00">/utilities.h</text>
</a>
</g>
</g>
<!-- Node1&#45;&gt;Node25 -->
<g id="edge60_Node000001_Node000025" class="edge">
<title>Node1&#45;&gt;Node25</title>
<g id="a_edge60_Node000001_Node000025"><a xlink:title=" ">
<path fill="none" stroke="#63b8ff" d="M804.05,-362.09C994.52,-358.42 1526.65,-345.24 1597.5,-311.5 1627.27,-297.32 1651.43,-267.43 1666.07,-245.63"/>
<polygon fill="#63b8ff" stroke="#63b8ff" points="1668.99,-247.55 1671.47,-237.25 1663.11,-243.76 1668.99,-247.55"/>
</a>
</g>
</g>
<!-- Node6 -->
<g id="Node000006" class="node">
<title>Node6</title>
<g id="a_Node000006"><a xlink:title=" ">
<polygon fill="#e0e0e0" stroke="#999999" points="1043.62,-90.25 935.38,-90.25 935.38,-56.75 1043.62,-56.75 1043.62,-90.25"/>
<text text-anchor="start" x="943.38" y="-76.75" font-family="Helvetica,sans-Serif" font-size="10.00">deal.II/matrix_free</text>
<text text-anchor="middle" x="989.5" y="-64" font-family="Helvetica,sans-Serif" font-size="10.00">/evaluation_flags.h</text>
</a>
</g>
</g>
<!-- Node5&#45;&gt;Node6 -->
<g id="edge5_Node000005_Node000006" class="edge">
<title>Node5&#45;&gt;Node6</title>
<g id="a_edge5_Node000005_Node000006"><a xlink:title=" ">
<path fill="none" stroke="#63b8ff" d="M983.5,-132.33C984.33,-124.35 985.55,-112.63 986.67,-101.82"/>
<polygon fill="#63b8ff" stroke="#63b8ff" points="990.12,-102.48 987.67,-92.17 983.15,-101.76 990.12,-102.48"/>
</a>
</g>
</g>
<!-- Node7 -->
<g id="Node000007" class="node">
<title>Node7</title>
<g id="a_Node000007"><a xlink:href="type__enums_8h.html" target="_top" xlink:title=" ">
<polygon fill="white" stroke="#666666" points="773.25,-90.25 665.75,-90.25 665.75,-56.75 773.25,-56.75 773.25,-90.25"/>
<text text-anchor="start" x="673.75" y="-76.75" font-family="Helvetica,sans-Serif" font-size="10.00">prismspf/core/type</text>
<text text-anchor="middle" x="719.5" y="-64" font-family="Helvetica,sans-Serif" font-size="10.00">_enums.h</text>
</a>
</g>
</g>
<!-- Node5&#45;&gt;Node7 -->
<g id="edge6_Node000005_Node000007" class="edge">
<title>Node5&#45;&gt;Node7</title>
<g id="a_edge6_Node000005_Node000007"><a xlink:title=" ">
<path fill="none" stroke="#63b8ff" d="M944.26,-132.18C902.4,-121.44 834.58,-104.04 784.37,-91.15"/>
<polygon fill="#63b8ff" stroke="#63b8ff" points="785.32,-87.78 774.77,-88.68 783.58,-94.56 785.32,-87.78"/>
</a>
</g>
</g>
<!-- Node8 -->
<g id="Node000008" class="node">
<title>Node8</title>
<g id="a_Node000008"><a xlink:title=" ">
<polygon fill="#e0e0e0" stroke="#999999" points="957.5,-20.75 857.5,-20.75 857.5,0 957.5,0 957.5,-20.75"/>
<text text-anchor="middle" x="907.5" y="-7.25" font-family="Helvetica,sans-Serif" font-size="10.00">prismspf/config.h</text>
</a>
</g>
</g>
<!-- Node5&#45;&gt;Node8 -->
<g id="edge10_Node000005_Node000008" class="edge">
<title>Node5&#45;&gt;Node8</title>
<g id="a_edge10_Node000005_Node000008"><a xlink:title=" ">
<path fill="none" stroke="#63b8ff" d="M967.83,-132.27C954.99,-122.99 936.82,-107.83 926.5,-90.25 915.94,-72.24 911.23,-48.65 909.15,-31.97"/>
<polygon fill="#63b8ff" stroke="#63b8ff" points="912.66,-31.87 908.16,-22.28 905.69,-32.58 912.66,-31.87"/>
</a>
</g>
</g>
<!-- Node7&#45;&gt;Node8 -->
<g id="edge7_Node000007_Node000008" class="edge">
<title>Node7&#45;&gt;Node8</title>
<g id="a_edge7_Node000007_Node000008"><a xlink:title=" ">
<path fill="none" stroke="#63b8ff" d="M769.39,-56.28C799.73,-46.41 838.01,-33.97 866.57,-24.68"/>
<polygon fill="#63b8ff" stroke="#63b8ff" points="867.52,-28.05 875.95,-21.63 865.36,-21.4 867.52,-28.05"/>
</a>
</g>
</g>
<!-- Node9 -->
<g id="Node000009" class="node">
<title>Node9</title>
<g id="a_Node000009"><a xlink:title=" ">
<polygon fill="#e0e0e0" stroke="#999999" points="586,-20.75 537,-20.75 537,0 586,0 586,-20.75"/>
<text text-anchor="middle" x="561.5" y="-7.25" font-family="Helvetica,sans-Serif" font-size="10.00">cstdint</text>
</a>
</g>
</g>
<!-- Node7&#45;&gt;Node9 -->
<g id="edge8_Node000007_Node000009" class="edge">
<title>Node7&#45;&gt;Node9</title>
<g id="a_edge8_Node000007_Node000009"><a xlink:title=" ">
<path fill="none" stroke="#63b8ff" d="M677.57,-56.28C652.48,-46.57 620.92,-34.36 597.05,-25.13"/>
<polygon fill="#63b8ff" stroke="#63b8ff" points="598.34,-21.88 587.76,-21.53 595.82,-28.4 598.34,-21.88"/>
</a>
</g>
</g>
<!-- Node10 -->
<g id="Node000010" class="node">
<title>Node10</title>
<g id="a_Node000010"><a xlink:title=" ">
<polygon fill="#e0e0e0" stroke="#999999" points="700.38,-20.75 656.62,-20.75 656.62,0 700.38,0 700.38,-20.75"/>
<text text-anchor="middle" x="678.5" y="-7.25" font-family="Helvetica,sans-Serif" font-size="10.00">string</text>
</a>
</g>
</g>
<!-- Node7&#45;&gt;Node10 -->
<g id="edge9_Node000007_Node000010" class="edge">
<title>Node7&#45;&gt;Node10</title>
<g id="a_edge9_Node000007_Node000010"><a xlink:title=" ">
<path fill="none" stroke="#63b8ff" d="M708.73,-56.44C703.4,-48.49 696.93,-38.84 691.34,-30.52"/>
<polygon fill="#63b8ff" stroke="#63b8ff" points="694.42,-28.83 685.94,-22.47 688.61,-32.73 694.42,-28.83"/>
</a>
</g>
</g>
<!-- Node11&#45;&gt;Node2 -->
<g id="edge12_Node000011_Node000002" class="edge">
<title>Node11&#45;&gt;Node2</title>
<g id="a_edge12_Node000011_Node000002"><a xlink:title=" ">
<path fill="none" stroke="#63b8ff" d="M408.31,-208.52C497.37,-195.04 661.66,-170.16 758.18,-155.55"/>
<polygon fill="#63b8ff" stroke="#63b8ff" points="758.45,-159.05 767.82,-154.09 757.41,-152.13 758.45,-159.05"/>
</a>
</g>
</g>
<!-- Node11&#45;&gt;Node7 -->
<g id="edge17_Node000011_Node000007" class="edge">
<title>Node11&#45;&gt;Node7</title>
<g id="a_edge17_Node000011_Node000007"><a xlink:title=" ">
<path fill="none" stroke="#63b8ff" d="M408.26,-202.29C447.28,-191.78 498.47,-176.76 542.5,-159.75 591.01,-141.02 644.51,-114.36 679.86,-95.86"/>
<polygon fill="#63b8ff" stroke="#63b8ff" points="681.22,-99.1 688.43,-91.35 677.96,-92.91 681.22,-99.1"/>
</a>
</g>
</g>
<!-- Node11&#45;&gt;Node8 -->
<g id="edge18_Node000011_Node000008" class="edge">
<title>Node11&#45;&gt;Node8</title>
<g id="a_edge18_Node000011_Node000008"><a xlink:title=" ">
<path fill="none" stroke="#63b8ff" d="M345.12,-195.52C344.3,-160 348.49,-91.2 389.5,-56.75 406.75,-42.26 712.24,-22.77 845.82,-14.89"/>
<polygon fill="#63b8ff" stroke="#63b8ff" points="845.76,-18.4 855.54,-14.32 845.35,-11.41 845.76,-18.4"/>
</a>
</g>
</g>
<!-- Node11&#45;&gt;Node9 -->
<g id="edge19_Node000011_Node000009" class="edge">
<title>Node11&#45;&gt;Node9</title>
<g id="a_edge19_Node000011_Node000009"><a xlink:title=" ">
<path fill="none" stroke="#63b8ff" d="M284.67,-215.2C201.67,-209.18 69.5,-189.63 114.5,-126.25 162.76,-58.28 427.86,-24.91 525.44,-14.8"/>
<polygon fill="#63b8ff" stroke="#63b8ff" points="525.64,-18.3 535.24,-13.81 524.94,-11.33 525.64,-18.3"/>
</a>
</g>
</g>
<!-- Node11&#45;&gt;Node10 -->
<g id="edge21_Node000011_Node000010" class="edge">
<title>Node11&#45;&gt;Node10</title>
<g id="a_edge21_Node000011_Node000010"><a xlink:title=" ">
<path fill="none" stroke="#63b8ff" d="M339.14,-195.34C329.42,-160.81 317.27,-94.85 351.5,-56.75 356.4,-51.3 562.51,-25.56 644.94,-15.46"/>
<polygon fill="#63b8ff" stroke="#63b8ff" points="645.16,-18.96 654.66,-14.27 644.31,-12.01 645.16,-18.96"/>
</a>
</g>
</g>
<!-- Node12 -->
<g id="Node000012" class="node">
<title>Node12</title>
<g id="a_Node000012"><a xlink:title=" ">
<polygon fill="#e0e0e0" stroke="#999999" points="235.12,-153.38 123.88,-153.38 123.88,-132.62 235.12,-132.62 235.12,-153.38"/>
<text text-anchor="middle" x="179.5" y="-139.88" font-family="Helvetica,sans-Serif" font-size="10.00">deal.II/base/types.h</text>
</a>
</g>
</g>
<!-- Node11&#45;&gt;Node12 -->
<g id="edge13_Node000011_Node000012" class="edge">
<title>Node11&#45;&gt;Node12</title>
<g id="a_edge13_Node000011_Node000012"><a xlink:title=" ">
<path fill="none" stroke="#63b8ff" d="M295.49,-195.31C268.2,-183.24 235.44,-168.74 211.7,-158.24"/>
<polygon fill="#63b8ff" stroke="#63b8ff" points="213.43,-155.18 202.87,-154.34 210.6,-161.58 213.43,-155.18"/>
</a>
</g>
</g>
<!-- Node13 -->
<g id="Node000013" class="node">
<title>Node13</title>
<g id="a_Node000013"><a xlink:href="conditional__ostreams_8h.html" target="_top" xlink:title=" ">
<polygon fill="white" stroke="#666666" points="533.38,-159.75 393.62,-159.75 393.62,-126.25 533.38,-126.25 533.38,-159.75"/>
<text text-anchor="start" x="401.62" y="-146.25" font-family="Helvetica,sans-Serif" font-size="10.00">prismspf/core/conditional</text>
<text text-anchor="middle" x="463.5" y="-133.5" font-family="Helvetica,sans-Serif" font-size="10.00">_ostreams.h</text>
</a>
</g>
</g>
<!-- Node11&#45;&gt;Node13 -->
<g id="edge14_Node000011_Node000013" class="edge">
<title>Node11&#45;&gt;Node13</title>
<g id="a_edge14_Node000011_Node000013"><a xlink:title=" ">
<path fill="none" stroke="#63b8ff" d="M382.24,-195.31C396.87,-186.07 413.76,-175.41 428.33,-166.21"/>
<polygon fill="#63b8ff" stroke="#63b8ff" points="430.13,-169.21 436.72,-160.91 426.39,-163.29 430.13,-169.21"/>
</a>
</g>
</g>
<!-- Node11&#45;&gt;Node15 -->
<g id="edge20_Node000011_Node000015" class="edge">
<title>Node11&#45;&gt;Node15</title>
<g id="a_edge20_Node000011_Node000015"><a xlink:title=" ">
<path fill="none" stroke="#63b8ff" d="M284.49,-206.12C230.51,-195.45 150.34,-178.54 81.5,-159.75 78.59,-158.95 75.59,-158.09 72.58,-157.18"/>
<polygon fill="#63b8ff" stroke="#63b8ff" points="73.82,-153.9 63.23,-154.26 71.73,-160.58 73.82,-153.9"/>
</a>
</g>
</g>
<!-- Node16 -->
<g id="Node000016" class="node">
<title>Node16</title>
<g id="a_Node000016"><a xlink:title=" ">
<polygon fill="#e0e0e0" stroke="#999999" points="299.88,-153.38 253.12,-153.38 253.12,-132.62 299.88,-132.62 299.88,-153.38"/>
<text text-anchor="middle" x="276.5" y="-139.88" font-family="Helvetica,sans-Serif" font-size="10.00">vector</text>
</a>
</g>
</g>
<!-- Node11&#45;&gt;Node16 -->
<g id="edge22_Node000011_Node000016" class="edge">
<title>Node11&#45;&gt;Node16</title>
<g id="a_edge22_Node000011_Node000016"><a xlink:title=" ">
<path fill="none" stroke="#63b8ff" d="M325.12,-195.31C314.92,-184.54 302.89,-171.85 293.35,-161.78"/>
<polygon fill="#63b8ff" stroke="#63b8ff" points="296.17,-159.67 286.76,-154.82 291.09,-164.49 296.17,-159.67"/>
</a>
</g>
</g>
<!-- Node13&#45;&gt;Node8 -->
<g id="edge16_Node000013_Node000008" class="edge">
<title>Node13&#45;&gt;Node8</title>
<g id="a_edge16_Node000013_Node000008"><a xlink:title=" ">
<path fill="none" stroke="#63b8ff" d="M494.05,-125.78C531.39,-106.6 596.96,-75 656.5,-56.75 719.68,-37.39 794.48,-25.18 845.89,-18.37"/>
<polygon fill="#63b8ff" stroke="#63b8ff" points="846.17,-21.86 855.64,-17.11 845.27,-14.92 846.17,-21.86"/>
</a>
</g>
</g>
<!-- Node14 -->
<g id="Node000014" class="node">
<title>Node14</title>
<g id="a_Node000014"><a xlink:title=" ">
<polygon fill="#e0e0e0" stroke="#999999" points="528.12,-90.25 398.88,-90.25 398.88,-56.75 528.12,-56.75 528.12,-90.25"/>
<text text-anchor="start" x="406.88" y="-76.75" font-family="Helvetica,sans-Serif" font-size="10.00">deal.II/base/conditional</text>
<text text-anchor="middle" x="463.5" y="-64" font-family="Helvetica,sans-Serif" font-size="10.00">_ostream.h</text>
</a>
</g>
</g>
<!-- Node13&#45;&gt;Node14 -->
<g id="edge15_Node000013_Node000014" class="edge">
<title>Node13&#45;&gt;Node14</title>
<g id="a_edge15_Node000013_Node000014"><a xlink:title=" ">
<path fill="none" stroke="#63b8ff" d="M463.5,-126C463.5,-118.77 463.5,-110.03 463.5,-101.81"/>
<polygon fill="#63b8ff" stroke="#63b8ff" points="467,-101.9 463.5,-91.9 460,-101.9 467,-101.9"/>
</a>
</g>
</g>
<!-- Node17&#45;&gt;Node5 -->
<g id="edge40_Node000017_Node000005" class="edge">
<title>Node17&#45;&gt;Node5</title>
<g id="a_edge40_Node000017_Node000005"><a xlink:title=" ">
<path fill="none" stroke="#63b8ff" d="M1073.91,-277.84C1073.69,-257.29 1070.76,-221.15 1054.5,-195.75 1044.59,-180.27 1028.25,-167.97 1013.64,-159.25"/>
<polygon fill="#63b8ff" stroke="#63b8ff" points="1015.66,-156.37 1005.23,-154.53 1012.24,-162.47 1015.66,-156.37"/>
</a>
</g>
</g>
<!-- Node17&#45;&gt;Node8 -->
<g id="edge59_Node000017_Node000008" class="edge">
<title>Node17&#45;&gt;Node8</title>
<g id="a_edge59_Node000017_Node000008"><a xlink:title=" ">
<path fill="none" stroke="#63b8ff" d="M1079.65,-277.52C1094.31,-235.82 1126.34,-123.55 1074.5,-56.75 1061.38,-39.85 1011.16,-27.7 969.19,-20.26"/>
<polygon fill="#63b8ff" stroke="#63b8ff" points="969.82,-16.82 959.38,-18.59 968.64,-23.72 969.82,-16.82"/>
</a>
</g>
</g>
<!-- Node17&#45;&gt;Node13 -->
<g id="edge28_Node000017_Node000013" class="edge">
<title>Node17&#45;&gt;Node13</title>
<g id="a_edge28_Node000017_Node000013"><a xlink:title=" ">
<path fill="none" stroke="#63b8ff" d="M1007.31,-291.97C889.51,-287.97 648.73,-275.82 572.5,-242 535.54,-225.6 502.46,-191.8 482.69,-168.52"/>
<polygon fill="#63b8ff" stroke="#63b8ff" points="485.58,-166.52 476.51,-161.04 480.18,-170.98 485.58,-166.52"/>
</a>
</g>
</g>
<!-- Node18 -->
<g id="Node000018" class="node">
<title>Node18</title>
<g id="a_Node000018"><a xlink:title=" ">
<polygon fill="#e0e0e0" stroke="#999999" points="1241.25,-235.62 1139.75,-235.62 1139.75,-202.12 1241.25,-202.12 1241.25,-235.62"/>
<text text-anchor="start" x="1147.75" y="-222.12" font-family="Helvetica,sans-Serif" font-size="10.00">deal.II/distributed</text>
<text text-anchor="middle" x="1190.5" y="-209.38" font-family="Helvetica,sans-Serif" font-size="10.00">/tria.h</text>
</a>
</g>
</g>
<!-- Node17&#45;&gt;Node18 -->
<g id="edge24_Node000017_Node000018" class="edge">
<title>Node17&#45;&gt;Node18</title>
<g id="a_edge24_Node000017_Node000018"><a xlink:title=" ">
<path fill="none" stroke="#63b8ff" d="M1099.18,-277.54C1115.64,-267.15 1137.22,-253.52 1155.27,-242.12"/>
<polygon fill="#63b8ff" stroke="#63b8ff" points="1157.02,-245.16 1163.6,-236.86 1153.28,-239.24 1157.02,-245.16"/>
</a>
</g>
</g>
<!-- Node19 -->
<g id="Node000019" class="node">
<title>Node19</title>
<g id="a_Node000019"><a xlink:title=" ">
<polygon fill="#e0e0e0" stroke="#999999" points="1409.62,-229.25 1259.38,-229.25 1259.38,-208.5 1409.62,-208.5 1409.62,-229.25"/>
<text text-anchor="middle" x="1334.5" y="-215.75" font-family="Helvetica,sans-Serif" font-size="10.00">deal.II/grid/grid_generator.h</text>
</a>
</g>
</g>
<!-- Node17&#45;&gt;Node19 -->
<g id="edge25_Node000017_Node000019" class="edge">
<title>Node17&#45;&gt;Node19</title>
<g id="a_edge25_Node000017_Node000019"><a xlink:title=" ">
<path fill="none" stroke="#63b8ff" d="M1130.78,-277.54C1178.26,-264.1 1244.87,-245.24 1288.83,-232.8"/>
<polygon fill="#63b8ff" stroke="#63b8ff" points="1289.64,-236.21 1298.31,-230.12 1287.73,-229.47 1289.64,-236.21"/>
</a>
</g>
</g>
<!-- Node20 -->
<g id="Node000020" class="node">
<title>Node20</title>
<g id="a_Node000020"><a xlink:title=" ">
<polygon fill="#e0e0e0" stroke="#999999" points="1555.38,-229.25 1427.62,-229.25 1427.62,-208.5 1555.38,-208.5 1555.38,-229.25"/>
<text text-anchor="middle" x="1491.5" y="-215.75" font-family="Helvetica,sans-Serif" font-size="10.00">deal.II/grid/grid_tools.h</text>
</a>
</g>
</g>
<!-- Node17&#45;&gt;Node20 -->
<g id="edge26_Node000017_Node000020" class="edge">
<title>Node17&#45;&gt;Node20</title>
<g id="a_edge26_Node000017_Node000020"><a xlink:title=" ">
<path fill="none" stroke="#63b8ff" d="M1139.85,-286.7C1209.7,-278.61 1322.63,-263.6 1418.5,-242 1429.43,-239.54 1441.11,-236.29 1451.85,-233.04"/>
<polygon fill="#63b8ff" stroke="#63b8ff" points="1452.68,-236.44 1461.18,-230.13 1450.6,-229.76 1452.68,-236.44"/>
</a>
</g>
</g>
<!-- Node21 -->
<g id="Node000021" class="node">
<title>Node21</title>
<g id="a_Node000021"><a xlink:title=" ">
<polygon fill="#e0e0e0" stroke="#999999" points="879.62,-229.25 783.38,-229.25 783.38,-208.5 879.62,-208.5 879.62,-229.25"/>
<text text-anchor="middle" x="831.5" y="-215.75" font-family="Helvetica,sans-Serif" font-size="10.00">deal.II/grid/tria.h</text>
</a>
</g>
</g>
<!-- Node17&#45;&gt;Node21 -->
<g id="edge27_Node000017_Node000021" class="edge">
<title>Node17&#45;&gt;Node21</title>
<g id="a_edge27_Node000017_Node000021"><a xlink:title=" ">
<path fill="none" stroke="#63b8ff" d="M1009.68,-277.54C973.81,-268.02 928.37,-255.28 888.5,-242 881.06,-239.52 873.16,-236.63 865.69,-233.77"/>
<polygon fill="#63b8ff" stroke="#63b8ff" points="867.16,-230.59 856.57,-230.21 864.61,-237.11 867.16,-230.59"/>
</a>
</g>
</g>
<!-- Node22 -->
<g id="Node000022" class="node">
<title>Node22</title>
<g id="a_Node000022"><a xlink:href="exceptions_8h.html" target="_top" xlink:title=" ">
<polygon fill="white" stroke="#666666" points="1045.5,-229.25 897.5,-229.25 897.5,-208.5 1045.5,-208.5 1045.5,-229.25"/>
<text text-anchor="middle" x="971.5" y="-215.75" font-family="Helvetica,sans-Serif" font-size="10.00">prismspf/core/exceptions.h</text>
</a>
</g>
</g>
<!-- Node17&#45;&gt;Node22 -->
<g id="edge29_Node000017_Node000022" class="edge">
<title>Node17&#45;&gt;Node22</title>
<g id="a_edge29_Node000017_Node000022"><a xlink:title=" ">
<path fill="none" stroke="#63b8ff" d="M1051.12,-277.54C1034.25,-265.32 1011.22,-248.64 994.26,-236.36"/>
<polygon fill="#63b8ff" stroke="#63b8ff" points="996.45,-233.63 986.3,-230.59 992.35,-239.29 996.45,-233.63"/>
</a>
</g>
</g>
<!-- Node23 -->
<g id="Node000023" class="node">
<title>Node23</title>
<g id="a_Node000023"><a xlink:href="grid__refiner__criterion_8h.html" target="_top" xlink:title=" ">
<polygon fill="white" stroke="#666666" points="689.25,-235.62 581.75,-235.62 581.75,-202.12 689.25,-202.12 689.25,-235.62"/>
<text text-anchor="start" x="589.75" y="-222.12" font-family="Helvetica,sans-Serif" font-size="10.00">prismspf/core/grid</text>
<text text-anchor="middle" x="635.5" y="-209.38" font-family="Helvetica,sans-Serif" font-size="10.00">_refiner_criterion.h</text>
</a>
</g>
</g>
<!-- Node17&#45;&gt;Node23 -->
<g id="edge33_Node000017_Node000023" class="edge">
<title>Node17&#45;&gt;Node23</title>
<g id="a_edge33_Node000017_Node000023"><a xlink:title=" ">
<path fill="none" stroke="#63b8ff" d="M1006.98,-282.53C924.01,-268.54 783.07,-244.77 700.72,-230.88"/>
<polygon fill="#63b8ff" stroke="#63b8ff" points="701.43,-227.45 690.99,-229.23 700.27,-234.35 701.43,-227.45"/>
</a>
</g>
</g>
<!-- Node17&#45;&gt;Node25 -->
<g id="edge41_Node000017_Node000025" class="edge">
<title>Node17&#45;&gt;Node25</title>
<g id="a_edge41_Node000017_Node000025"><a xlink:title=" ">
<path fill="none" stroke="#63b8ff" d="M1140.03,-288.48C1234.63,-280.59 1413.34,-264.22 1564.5,-242 1582.79,-239.31 1602.58,-235.8 1620.59,-232.37"/>
<polygon fill="#63b8ff" stroke="#63b8ff" points="1621.2,-235.82 1630.35,-230.48 1619.87,-228.95 1621.2,-235.82"/>
</a>
</g>
</g>
<!-- Node22&#45;&gt;Node2 -->
<g id="edge30_Node000022_Node000002" class="edge">
<title>Node22&#45;&gt;Node2</title>
<g id="a_edge30_Node000022_Node000002"><a xlink:title=" ">
<path fill="none" stroke="#63b8ff" d="M953.31,-208.06C930.18,-195.59 889.98,-173.92 862.82,-159.27"/>
<polygon fill="#63b8ff" stroke="#63b8ff" points="864.56,-156.23 854.1,-154.57 861.24,-162.4 864.56,-156.23"/>
</a>
</g>
</g>
<!-- Node22&#45;&gt;Node5 -->
<g id="edge31_Node000022_Node000005" class="edge">
<title>Node22&#45;&gt;Node5</title>
<g id="a_edge31_Node000022_Node000005"><a xlink:title=" ">
<path fill="none" stroke="#63b8ff" d="M972.94,-208.22C974.58,-197.21 977.31,-178.89 979.43,-164.63"/>
<polygon fill="#63b8ff" stroke="#63b8ff" points="982.86,-165.33 980.87,-154.92 975.94,-164.3 982.86,-165.33"/>
</a>
</g>
</g>
<!-- Node22&#45;&gt;Node8 -->
<g id="edge32_Node000022_Node000008" class="edge">
<title>Node22&#45;&gt;Node8</title>
<g id="a_edge32_Node000022_Node000008"><a xlink:title=" ">
<path fill="none" stroke="#63b8ff" d="M995.56,-208.11C1014.87,-198.83 1040.65,-182.85 1052.5,-159.75 1073.4,-119.02 1079.61,-93.64 1052.5,-56.75 1033.39,-30.74 999.42,-19.23 969.16,-14.3"/>
<polygon fill="#63b8ff" stroke="#63b8ff" points="969.67,-10.83 959.28,-12.92 968.7,-17.77 969.67,-10.83"/>
</a>
</g>
</g>
<!-- Node23&#45;&gt;Node2 -->
<g id="edge34_Node000023_Node000002" class="edge">
<title>Node23&#45;&gt;Node2</title>
<g id="a_edge34_Node000023_Node000002"><a xlink:title=" ">
<path fill="none" stroke="#63b8ff" d="M679.17,-201.66C714.53,-188.54 763.8,-170.25 797.3,-157.81"/>
<polygon fill="#63b8ff" stroke="#63b8ff" points="798.44,-161.12 806.6,-154.36 796,-154.56 798.44,-161.12"/>
</a>
</g>
</g>
<!-- Node23&#45;&gt;Node5 -->
<g id="edge35_Node000023_Node000005" class="edge">
<title>Node23&#45;&gt;Node5</title>
<g id="a_edge35_Node000023_Node000005"><a xlink:title=" ">
<path fill="none" stroke="#63b8ff" d="M689.46,-206.6C763.79,-191.05 890.98,-164.43 912.5,-159.75 917.63,-158.63 922.97,-157.46 928.31,-156.27"/>
<polygon fill="#63b8ff" stroke="#63b8ff" points="928.73,-159.77 937.73,-154.17 927.21,-152.93 928.73,-159.77"/>
</a>
</g>
</g>
<!-- Node23&#45;&gt;Node8 -->
<g id="edge36_Node000023_Node000008" class="edge">
<title>Node23&#45;&gt;Node8</title>
<g id="a_edge36_Node000023_Node000008"><a xlink:title=" ">
<path fill="none" stroke="#63b8ff" d="M659.99,-201.78C676.79,-190.48 699.42,-174.76 718.5,-159.75 736.19,-145.83 739.08,-140.52 756.5,-126.25 800.91,-89.86 854.84,-49.77 884.75,-27.89"/>
<polygon fill="#63b8ff" stroke="#63b8ff" points="886.68,-30.81 892.69,-22.09 882.55,-25.16 886.68,-30.81"/>
</a>
</g>
</g>
<!-- Node23&#45;&gt;Node9 -->
<g id="edge38_Node000023_Node000009" class="edge">
<title>Node23&#45;&gt;Node9</title>
<g id="a_edge38_Node000023_Node000009"><a xlink:title=" ">
<path fill="none" stroke="#63b8ff" d="M629.69,-201.67C616.33,-164.37 583.4,-72.49 568.74,-31.59"/>
<polygon fill="#63b8ff" stroke="#63b8ff" points="572.08,-30.51 565.41,-22.28 565.49,-32.87 572.08,-30.51"/>
</a>
</g>
</g>
<!-- Node23&#45;&gt;Node10 -->
<g id="edge39_Node000023_Node000010" class="edge">
<title>Node23&#45;&gt;Node10</title>
<g id="a_edge39_Node000023_Node000010"><a xlink:title=" ">
<path fill="none" stroke="#63b8ff" d="M635.89,-201.97C636.97,-172.66 641.07,-108.37 656.5,-56.75 659.13,-47.97 663.28,-38.78 667.28,-30.99"/>
<polygon fill="#63b8ff" stroke="#63b8ff" points="670.23,-32.88 671.92,-22.42 664.08,-29.55 670.23,-32.88"/>
</a>
</g>
</g>
<!-- Node24 -->
<g id="Node000024" class="node">
<title>Node24</title>
<g id="a_Node000024"><a xlink:title=" ">
<polygon fill="#e0e0e0" stroke="#999999" points="709,-153.38 666,-153.38 666,-132.62 709,-132.62 709,-153.38"/>
<text text-anchor="middle" x="687.5" y="-139.88" font-family="Helvetica,sans-Serif" font-size="10.00">cfloat</text>
</a>
</g>
</g>
<!-- Node23&#45;&gt;Node24 -->
<g id="edge37_Node000023_Node000024" class="edge">
<title>Node23&#45;&gt;Node24</title>
<g id="a_edge37_Node000023_Node000024"><a xlink:title=" ">
<path fill="none" stroke="#63b8ff" d="M646.78,-201.85C654.9,-190.31 665.88,-174.71 674.39,-162.62"/>
<polygon fill="#63b8ff" stroke="#63b8ff" points="677.08,-164.89 679.97,-154.69 671.35,-160.86 677.08,-164.89"/>
</a>
</g>
</g>
<!-- Node25&#45;&gt;Node2 -->
<g id="edge43_Node000025_Node000002" class="edge">
<title>Node25&#45;&gt;Node2</title>
<g id="a_edge43_Node000025_Node000002"><a xlink:title=" ">
<path fill="none" stroke="#63b8ff" d="M1631.91,-207C1611.17,-202.84 1586.77,-198.46 1564.5,-195.75 1276.4,-160.71 1200.37,-196.57 912.5,-159.75 904.77,-158.76 896.66,-157.44 888.71,-155.99"/>
<polygon fill="#63b8ff" stroke="#63b8ff" points="889.6,-152.6 879.12,-154.15 888.28,-159.47 889.6,-152.6"/>
</a>
</g>
</g>
<!-- Node25&#45;&gt;Node3 -->
<g id="edge45_Node000025_Node000003" class="edge">
<title>Node25&#45;&gt;Node3</title>
<g id="a_edge45_Node000025_Node000003"><a xlink:title=" ">
<path fill="none" stroke="#63b8ff" d="M1632.03,-203.52C1620.75,-200.62 1608.77,-197.83 1597.5,-195.75 1449.8,-168.55 1409.63,-184.5 1261.5,-159.75 1255.44,-158.74 1249.12,-157.52 1242.86,-156.22"/>
<polygon fill="#63b8ff" stroke="#63b8ff" points="1243.74,-152.83 1233.23,-154.12 1242.26,-159.67 1243.74,-152.83"/>
</a>
</g>
</g>
<!-- Node25&#45;&gt;Node6 -->
<g id="edge48_Node000025_Node000006" class="edge">
<title>Node25&#45;&gt;Node6</title>
<g id="a_edge48_Node000025_Node000006"><a xlink:title=" ">
<path fill="none" stroke="#63b8ff" d="M1632.01,-203.63C1620.73,-200.73 1608.76,-197.9 1597.5,-195.75 1466.47,-170.7 1422.84,-210.6 1299.5,-159.75 1277.1,-150.52 1278.55,-136.28 1256.5,-126.25 1191.76,-96.82 1110.77,-84.11 1055.07,-78.63"/>
<polygon fill="#63b8ff" stroke="#63b8ff" points="1055.71,-75.17 1045.43,-77.73 1055.07,-82.14 1055.71,-75.17"/>
</a>
</g>
</g>
<!-- Node25&#45;&gt;Node8 -->
<g id="edge55_Node000025_Node000008" class="edge">
<title>Node25&#45;&gt;Node8</title>
<g id="a_edge55_Node000025_Node000008"><a xlink:title=" ">
<path fill="none" stroke="#63b8ff" d="M1731.17,-215.54C1848.32,-209.53 2134.18,-191.69 2162.5,-159.75 2172.38,-148.61 2171.67,-137.98 2162.5,-126.25 2088.27,-31.26 1211.71,-14.69 969.28,-11.91"/>
<polygon fill="#63b8ff" stroke="#63b8ff" points="969.44,-8.41 959.4,-11.8 969.36,-15.41 969.44,-8.41"/>
</a>
</g>
</g>
<!-- Node25&#45;&gt;Node10 -->
<g id="edge56_Node000025_Node000010" class="edge">
<title>Node25&#45;&gt;Node10</title>
<g id="a_edge56_Node000025_Node000010"><a xlink:title=" ">
<path fill="none" stroke="#63b8ff" d="M1632.06,-203.25C1621.69,-200.5 1610.79,-197.84 1600.5,-195.75 1482.72,-171.86 1442.46,-208.25 1332.5,-159.75 1311.28,-150.39 1312.97,-137.15 1292.5,-126.25 1194.49,-74.03 1161.31,-78.95 1052.5,-56.75 928.22,-31.39 777.61,-18.41 711.88,-13.61"/>
<polygon fill="#63b8ff" stroke="#63b8ff" points="712.35,-10.14 702.13,-12.92 711.86,-17.12 712.35,-10.14"/>
</a>
</g>
</g>
<!-- Node26 -->
<g id="Node000026" class="node">
<title>Node26</title>
<g id="a_Node000026"><a xlink:title=" ">
<polygon fill="#e0e0e0" stroke="#999999" points="2323.25,-153.38 2209.75,-153.38 2209.75,-132.62 2323.25,-132.62 2323.25,-153.38"/>
<text text-anchor="middle" x="2266.5" y="-139.88" font-family="Helvetica,sans-Serif" font-size="10.00">deal.II/base/config.h</text>
</a>
</g>
</g>
<!-- Node25&#45;&gt;Node26 -->
<g id="edge42_Node000025_Node000026" class="edge">
<title>Node25&#45;&gt;Node26</title>
<g id="a_edge42_Node000025_Node000026"><a xlink:title=" ">
<path fill="none" stroke="#63b8ff" d="M1731,-214.03C1822.93,-206.5 2026.09,-188.04 2195.5,-159.75 2201.8,-158.7 2208.39,-157.45 2214.9,-156.11"/>
<polygon fill="#63b8ff" stroke="#63b8ff" points="2215.18,-159.63 2224.24,-154.13 2213.73,-152.78 2215.18,-159.63"/>
</a>
</g>
</g>
<!-- Node27 -->
<g id="Node000027" class="node">
<title>Node27</title>
<g id="a_Node000027"><a xlink:title=" ">
<polygon fill="#e0e0e0" stroke="#999999" points="2444,-153.38 2341,-153.38 2341,-132.62 2444,-132.62 2444,-153.38"/>
<text text-anchor="middle" x="2392.5" y="-139.88" font-family="Helvetica,sans-Serif" font-size="10.00">deal.II/base/mpi.h</text>
</a>
</g>
</g>
<!-- Node25&#45;&gt;Node27 -->
<g id="edge44_Node000025_Node000027" class="edge">
<title>Node25&#45;&gt;Node27</title>
<g id="a_edge44_Node000025_Node000027"><a xlink:title=" ">
<path fill="none" stroke="#63b8ff" d="M1730.87,-216.29C1840.07,-212.17 2110.06,-198.59 2332.5,-159.75 2337.53,-158.87 2342.75,-157.78 2347.93,-156.58"/>
<polygon fill="#63b8ff" stroke="#63b8ff" points="2348.74,-159.99 2357.61,-154.19 2347.06,-153.19 2348.74,-159.99"/>
</a>
</g>
</g>
<!-- Node28 -->
<g id="Node000028" class="node">
<title>Node28</title>
<g id="a_Node000028"><a xlink:title=" ">
<polygon fill="#e0e0e0" stroke="#999999" points="1455.62,-153.38 1341.38,-153.38 1341.38,-132.62 1455.62,-132.62 1455.62,-153.38"/>
<text text-anchor="middle" x="1398.5" y="-139.88" font-family="Helvetica,sans-Serif" font-size="10.00">deal.II/base/tensor.h</text>
</a>
</g>
</g>
<!-- Node25&#45;&gt;Node28 -->
<g id="edge46_Node000025_Node000028" class="edge">
<title>Node25&#45;&gt;Node28</title>
<g id="a_edge46_Node000025_Node000028"><a xlink:title=" ">
<path fill="none" stroke="#63b8ff" d="M1631.76,-204.75C1620.5,-201.78 1608.59,-198.65 1597.5,-195.75 1546.31,-182.35 1487.69,-167.12 1447.4,-156.67"/>
<polygon fill="#63b8ff" stroke="#63b8ff" points="1448.31,-153.29 1437.75,-154.17 1446.55,-160.07 1448.31,-153.29"/>
</a>
</g>
</g>
<!-- Node29 -->
<g id="Node000029" class="node">
<title>Node29</title>
<g id="a_Node000029"><a xlink:title=" ">
<polygon fill="#e0e0e0" stroke="#999999" points="1874.5,-83.88 1726.5,-83.88 1726.5,-63.12 1874.5,-63.12 1874.5,-83.88"/>
<text text-anchor="middle" x="1800.5" y="-70.38" font-family="Helvetica,sans-Serif" font-size="10.00">deal.II/base/vectorization.h</text>
</a>
</g>
</g>
<!-- Node25&#45;&gt;Node29 -->
<g id="edge47_Node000025_Node000029" class="edge">
<title>Node25&#45;&gt;Node29</title>
<g id="a_edge47_Node000025_Node000029"><a xlink:title=" ">
<path fill="none" stroke="#63b8ff" d="M1731.21,-213.14C1795.17,-205.91 1900.89,-189.67 1924.5,-159.75 1933.72,-148.06 1932.76,-138.64 1924.5,-126.25 1912.05,-107.57 1891.44,-95.62 1870.57,-87.98"/>
<polygon fill="#63b8ff" stroke="#63b8ff" points="1871.7,-84.67 1861.1,-84.84 1869.49,-91.31 1871.7,-84.67"/>
</a>
</g>
</g>
<!-- Node30 -->
<g id="Node000030" class="node">
<title>Node30</title>
<g id="a_Node000030"><a xlink:title=" ">
<polygon fill="#e0e0e0" stroke="#999999" points="1773,-153.38 1628,-153.38 1628,-132.62 1773,-132.62 1773,-153.38"/>
<text text-anchor="middle" x="1700.5" y="-139.88" font-family="Helvetica,sans-Serif" font-size="10.00">boost/range/algorithm.hpp</text>
</a>
</g>
</g>
<!-- Node25&#45;&gt;Node30 -->
<g id="edge49_Node000025_Node000030" class="edge">
<title>Node25&#45;&gt;Node30</title>
<g id="a_edge49_Node000025_Node000030"><a xlink:title=" ">
<path fill="none" stroke="#63b8ff" d="M1685.62,-201.85C1688.44,-190.88 1692.2,-176.26 1695.24,-164.46"/>
<polygon fill="#63b8ff" stroke="#63b8ff" points="1698.59,-165.48 1697.69,-154.92 1691.81,-163.74 1698.59,-165.48"/>
</a>
</g>
</g>
<!-- Node31 -->
<g id="Node000031" class="node">
<title>Node31</title>
<g id="a_Node000031"><a xlink:title=" ">
<polygon fill="#e0e0e0" stroke="#999999" points="1915.5,-159.75 1791.5,-159.75 1791.5,-126.25 1915.5,-126.25 1915.5,-159.75"/>
<text text-anchor="start" x="1799.5" y="-146.25" font-family="Helvetica,sans-Serif" font-size="10.00">boost/range/algorithm</text>
<text text-anchor="middle" x="1853.5" y="-133.5" font-family="Helvetica,sans-Serif" font-size="10.00">_ext.hpp</text>
</a>
</g>
</g>
<!-- Node25&#45;&gt;Node31 -->
<g id="edge50_Node000025_Node000031" class="edge">
<title>Node25&#45;&gt;Node31</title>
<g id="a_edge50_Node000025_Node000031"><a xlink:title=" ">
<path fill="none" stroke="#63b8ff" d="M1719.25,-201.66C1744.56,-190.79 1778.13,-176.37 1805.36,-164.67"/>
<polygon fill="#63b8ff" stroke="#63b8ff" points="1806.64,-167.93 1814.45,-160.77 1803.88,-161.5 1806.64,-167.93"/>
</a>
</g>
</g>
<!-- Node32 -->
<g id="Node000032" class="node">
<title>Node32</title>
<g id="a_Node000032"><a xlink:href="vectorized__operations_8h.html" target="_top" xlink:title=" ">
<polygon fill="white" stroke="#666666" points="1609.5,-159.75 1473.5,-159.75 1473.5,-126.25 1609.5,-126.25 1609.5,-159.75"/>
<text text-anchor="start" x="1481.5" y="-146.25" font-family="Helvetica,sans-Serif" font-size="10.00">prismspf/utilities</text>
<text text-anchor="middle" x="1541.5" y="-133.5" font-family="Helvetica,sans-Serif" font-size="10.00">/vectorized_operations.h</text>
</a>
</g>
</g>
<!-- Node25&#45;&gt;Node32 -->
<g id="edge51_Node000025_Node000032" class="edge">
<title>Node25&#45;&gt;Node32</title>
<g id="a_edge51_Node000025_Node000032"><a xlink:title=" ">
<path fill="none" stroke="#63b8ff" d="M1650.78,-201.66C1630.63,-191.03 1604.05,-177.01 1582.16,-165.45"/>
<polygon fill="#63b8ff" stroke="#63b8ff" points="1583.97,-162.45 1573.49,-160.88 1580.7,-168.64 1583.97,-162.45"/>
</a>
</g>
</g>
<!-- Node34 -->
<g id="Node000034" class="node">
<title>Node34</title>
<g id="a_Node000034"><a xlink:title=" ">
<polygon fill="#e0e0e0" stroke="#999999" points="2043.62,-153.38 1971.38,-153.38 1971.38,-132.62 2043.62,-132.62 2043.62,-153.38"/>
<text text-anchor="middle" x="2007.5" y="-139.88" font-family="Helvetica,sans-Serif" font-size="10.00">string_view</text>
</a>
</g>
</g>
<!-- Node25&#45;&gt;Node34 -->
<g id="edge57_Node000025_Node000034" class="edge">
<title>Node25&#45;&gt;Node34</title>
<g id="a_edge57_Node000025_Node000034"><a xlink:title=" ">
<path fill="none" stroke="#63b8ff" d="M1731.2,-208.92C1786.72,-198.57 1879.11,-180.3 1957.5,-159.75 1960.64,-158.93 1963.87,-158.03 1967.11,-157.09"/>
<polygon fill="#63b8ff" stroke="#63b8ff" points="1968.01,-160.48 1976.58,-154.24 1965.99,-153.77 1968.01,-160.48"/>
</a>
</g>
</g>
<!-- Node35 -->
<g id="Node000035" class="node">
<title>Node35</title>
<g id="a_Node000035"><a xlink:title=" ">
<polygon fill="#e0e0e0" stroke="#999999" points="2153.75,-153.38 2061.25,-153.38 2061.25,-132.62 2153.75,-132.62 2153.75,-153.38"/>
<text text-anchor="middle" x="2107.5" y="-139.88" font-family="Helvetica,sans-Serif" font-size="10.00">unordered_map</text>
</a>
</g>
</g>
<!-- Node25&#45;&gt;Node35 -->
<g id="edge58_Node000025_Node000035" class="edge">
<title>Node25&#45;&gt;Node35</title>
<g id="a_edge58_Node000025_Node000035"><a xlink:title=" ">
<path fill="none" stroke="#63b8ff" d="M1731.07,-212.09C1802.56,-203.29 1938.54,-184.89 2052.5,-159.75 2056.52,-158.86 2060.68,-157.85 2064.83,-156.78"/>
<polygon fill="#63b8ff" stroke="#63b8ff" points="2065.48,-160.23 2074.22,-154.23 2063.65,-153.47 2065.48,-160.23"/>
</a>
</g>
</g>
<!-- Node32&#45;&gt;Node8 -->
<g id="edge53_Node000032_Node000008" class="edge">
<title>Node32&#45;&gt;Node8</title>
<g id="a_edge53_Node000032_Node000008"><a xlink:title=" ">
<path fill="none" stroke="#63b8ff" d="M1509.06,-125.84C1467.91,-106.11 1394.26,-73.32 1327.5,-56.75 1202.71,-25.77 1051.86,-15.94 969.17,-12.82"/>
<polygon fill="#63b8ff" stroke="#63b8ff" points="969.35,-9.33 959.24,-12.47 969.11,-16.32 969.35,-9.33"/>
</a>
</g>
</g>
<!-- Node32&#45;&gt;Node29 -->
<g id="edge52_Node000032_Node000029" class="edge">
<title>Node32&#45;&gt;Node29</title>
<g id="a_edge52_Node000032_Node000029"><a xlink:title=" ">
<path fill="none" stroke="#63b8ff" d="M1603.54,-125.83C1648.91,-114.01 1709.62,-98.19 1751.59,-87.25"/>
<polygon fill="#63b8ff" stroke="#63b8ff" points="1752.37,-90.66 1761.17,-84.75 1750.61,-83.89 1752.37,-90.66"/>
</a>
</g>
</g>
<!-- Node33 -->
<g id="Node000033" class="node">
<title>Node33</title>
<g id="a_Node000033"><a xlink:title=" ">
<polygon fill="#e0e0e0" stroke="#999999" points="1564.88,-83.88 1518.12,-83.88 1518.12,-63.12 1564.88,-63.12 1564.88,-83.88"/>
<text text-anchor="middle" x="1541.5" y="-70.38" font-family="Helvetica,sans-Serif" font-size="10.00">cmath</text>
</a>
</g>
</g>
<!-- Node32&#45;&gt;Node33 -->
<g id="edge54_Node000032_Node000033" class="edge">
<title>Node32&#45;&gt;Node33</title>
<g id="a_edge54_Node000032_Node000033"><a xlink:title=" ">
<path fill="none" stroke="#63b8ff" d="M1541.5,-126C1541.5,-116.9 1541.5,-105.39 1541.5,-95.57"/>
<polygon fill="#63b8ff" stroke="#63b8ff" points="1545,-95.84 1541.5,-85.84 1538,-95.84 1545,-95.84"/>
</a>
</g>
</g>
</g>
</svg>
