<?xml version="1.0" encoding="UTF-8" standalone="no"?>
<!DOCTYPE svg PUBLIC "-//W3C//DTD SVG 1.1//EN"
 "http://www.w3.org/Graphics/SVG/1.1/DTD/svg11.dtd">
<!-- Generated by graphviz version 12.2.1 (20241206.2353)
 -->
<!-- Title: include/prismspf/field_input/read_field_base.h Pages: 1 -->
<svg width="3110pt" height="389pt"
 viewBox="0.00 0.00 3110.00 389.00" xmlns="http://www.w3.org/2000/svg" xmlns:xlink="http://www.w3.org/1999/xlink">
<g id="graph0" class="graph" transform="scale(1 1) rotate(0) translate(4 385)">
<title>include/prismspf/field_input/read_field_base.h</title>
<!-- Node1 -->
<g id="Node000001" class="node">
<title>Node1</title>
<g id="a_Node000001"><a xlink:title=" ">
<polygon fill="#999999" stroke="#666666" points="1323.75,-381 1189.25,-381 1189.25,-347.5 1323.75,-347.5 1323.75,-381"/>
<text text-anchor="start" x="1197.25" y="-367.5" font-family="Helvetica,sans-Serif" font-size="10.00">include/prismspf/field</text>
<text text-anchor="middle" x="1256.5" y="-354.75" font-family="Helvetica,sans-Serif" font-size="10.00">_input/read_field_base.h</text>
</a>
</g>
</g>
<!-- Node2 -->
<g id="Node000002" class="node">
<title>Node2</title>
<g id="a_Node000002"><a xlink:title=" ">
<polygon fill="#e0e0e0" stroke="#999999" points="1448.25,-153.38 1310.75,-153.38 1310.75,-132.62 1448.25,-132.62 1448.25,-153.38"/>
<text text-anchor="middle" x="1379.5" y="-139.88" font-family="Helvetica,sans-Serif" font-size="10.00">deal.II/base/exceptions.h</text>
</a>
</g>
</g>
<!-- Node1&#45;&gt;Node2 -->
<g id="edge1_Node000001_Node000002" class="edge">
<title>Node1&#45;&gt;Node2</title>
<g id="a_edge1_Node000001_Node000002"><a xlink:title=" ">
<path fill="none" stroke="#63b8ff" d="M1324.14,-357.95C1397.14,-348.2 1510.08,-320.54 1563.5,-242 1575.06,-225 1575.91,-212.13 1563.5,-195.75 1555.57,-185.28 1487.02,-167.96 1435.9,-156.27"/>
<polygon fill="#63b8ff" stroke="#63b8ff" points="1436.96,-152.92 1426.44,-154.12 1435.42,-159.75 1436.96,-152.92"/>
</a>
</g>
</g>
<!-- Node3 -->
<g id="Node000003" class="node">
<title>Node3</title>
<g id="a_Node000003"><a xlink:title=" ">
<polygon fill="#e0e0e0" stroke="#999999" points="3102,-153.38 2993,-153.38 2993,-132.62 3102,-132.62 3102,-153.38"/>
<text text-anchor="middle" x="3047.5" y="-139.88" font-family="Helvetica,sans-Serif" font-size="10.00">deal.II/base/point.h</text>
</a>
</g>
</g>
<!-- Node1&#45;&gt;Node3 -->
<g id="edge2_Node000001_Node000003" class="edge">
<title>Node1&#45;&gt;Node3</title>
<g id="a_edge2_Node000001_Node000003"><a xlink:title=" ">
<path fill="none" stroke="#63b8ff" d="M1324.08,-358.42C1556.49,-341.13 2343.81,-277.07 2984.5,-159.75 2989.77,-158.79 2995.25,-157.64 3000.68,-156.41"/>
<polygon fill="#63b8ff" stroke="#63b8ff" points="3001.3,-159.86 3010.22,-154.14 2999.68,-153.05 3001.3,-159.86"/>
</a>
</g>
</g>
<!-- Node4 -->
<g id="Node000004" class="node">
<title>Node4</title>
<g id="a_Node000004"><a xlink:title=" ">
<polygon fill="#e0e0e0" stroke="#999999" points="1050.12,-305.12 944.88,-305.12 944.88,-284.38 1050.12,-284.38 1050.12,-305.12"/>
<text text-anchor="middle" x="997.5" y="-291.62" font-family="Helvetica,sans-Serif" font-size="10.00">deal.II/lac/vector.h</text>
</a>
</g>
</g>
<!-- Node1&#45;&gt;Node4 -->
<g id="edge3_Node000001_Node000004" class="edge">
<title>Node1&#45;&gt;Node4</title>
<g id="a_edge3_Node000001_Node000004"><a xlink:title=" ">
<path fill="none" stroke="#63b8ff" d="M1194.46,-347.08C1149.09,-335.26 1088.38,-319.44 1046.41,-308.5"/>
<polygon fill="#63b8ff" stroke="#63b8ff" points="1047.39,-305.14 1036.83,-306 1045.63,-311.91 1047.39,-305.14"/>
</a>
</g>
</g>
<!-- Node5 -->
<g id="Node000005" class="node">
<title>Node5</title>
<g id="a_Node000005"><a xlink:href="types_8h.html" target="_top" xlink:title=" ">
<polygon fill="white" stroke="#666666" points="1210.38,-153.38 1088.62,-153.38 1088.62,-132.62 1210.38,-132.62 1210.38,-153.38"/>
<text text-anchor="middle" x="1149.5" y="-139.88" font-family="Helvetica,sans-Serif" font-size="10.00">prismspf/core/types.h</text>
</a>
</g>
</g>
<!-- Node1&#45;&gt;Node5 -->
<g id="edge4_Node000001_Node000005" class="edge">
<title>Node1&#45;&gt;Node5</title>
<g id="a_edge4_Node000001_Node000005"><a xlink:title=" ">
<path fill="none" stroke="#63b8ff" d="M1275.92,-347.11C1311.19,-315.86 1378.75,-245.74 1340.5,-195.75 1336.15,-190.07 1256.64,-169.88 1201.59,-156.46"/>
<polygon fill="#63b8ff" stroke="#63b8ff" points="1202.61,-153.11 1192.07,-154.15 1200.96,-159.91 1202.61,-153.11"/>
</a>
</g>
</g>
<!-- Node11 -->
<g id="Node000011" class="node">
<title>Node11</title>
<g id="a_Node000011"><a xlink:href="load__initial__condition__parameters_8h.html" target="_top" xlink:title=" ">
<polygon fill="white" stroke="#666666" points="458.12,-242 334.88,-242 334.88,-195.75 458.12,-195.75 458.12,-242"/>
<text text-anchor="start" x="342.88" y="-228.5" font-family="Helvetica,sans-Serif" font-size="10.00">prismspf/user_inputs</text>
<text text-anchor="start" x="342.88" y="-215.75" font-family="Helvetica,sans-Serif" font-size="10.00">/load_initial_condition</text>
<text text-anchor="middle" x="396.5" y="-203" font-family="Helvetica,sans-Serif" font-size="10.00">_parameters.h</text>
</a>
</g>
</g>
<!-- Node1&#45;&gt;Node11 -->
<g id="edge11_Node000001_Node000011" class="edge">
<title>Node1&#45;&gt;Node11</title>
<g id="a_edge11_Node000001_Node000011"><a xlink:title=" ">
<path fill="none" stroke="#63b8ff" d="M1188.84,-352.51C1123.86,-342.16 1022.93,-325.98 935.5,-311.5 768.74,-283.89 573.18,-250.35 469.57,-232.5"/>
<polygon fill="#63b8ff" stroke="#63b8ff" points="470.25,-229.07 459.8,-230.82 469.06,-235.96 470.25,-229.07"/>
</a>
</g>
</g>
<!-- Node17 -->
<g id="Node000017" class="node">
<title>Node17</title>
<g id="a_Node000017"><a xlink:title=" ">
<polygon fill="#e0e0e0" stroke="#999999" points="67,-153.38 0,-153.38 0,-132.62 67,-132.62 67,-153.38"/>
<text text-anchor="middle" x="33.5" y="-139.88" font-family="Helvetica,sans-Serif" font-size="10.00">filesystem</text>
</a>
</g>
</g>
<!-- Node1&#45;&gt;Node17 -->
<g id="edge68_Node000001_Node000017" class="edge">
<title>Node1&#45;&gt;Node17</title>
<g id="a_edge68_Node000001_Node000017"><a xlink:title=" ">
<path fill="none" stroke="#63b8ff" d="M1188.9,-359.81C1034.04,-350.78 642.53,-321.35 325.5,-242 230.87,-218.31 122.82,-178.62 68.54,-157.76"/>
<polygon fill="#63b8ff" stroke="#63b8ff" points="70.11,-154.61 59.52,-154.27 67.58,-161.14 70.11,-154.61"/>
</a>
</g>
</g>
<!-- Node19 -->
<g id="Node000019" class="node">
<title>Node19</title>
<g id="a_Node000019"><a xlink:href="spatial__discretization_8h.html" target="_top" xlink:title=" ">
<polygon fill="white" stroke="#666666" points="1200.62,-311.5 1068.38,-311.5 1068.38,-278 1200.62,-278 1200.62,-311.5"/>
<text text-anchor="start" x="1076.38" y="-298" font-family="Helvetica,sans-Serif" font-size="10.00">prismspf/user_inputs</text>
<text text-anchor="middle" x="1134.5" y="-285.25" font-family="Helvetica,sans-Serif" font-size="10.00">/spatial_discretization.h</text>
</a>
</g>
</g>
<!-- Node1&#45;&gt;Node19 -->
<g id="edge25_Node000001_Node000019" class="edge">
<title>Node1&#45;&gt;Node19</title>
<g id="a_edge25_Node000001_Node000019"><a xlink:title=" ">
<path fill="none" stroke="#63b8ff" d="M1227.28,-347.08C1211.13,-338.15 1190.86,-326.94 1173.39,-317.27"/>
<polygon fill="#63b8ff" stroke="#63b8ff" points="1175.25,-314.3 1164.81,-312.52 1171.86,-320.42 1175.25,-314.3"/>
</a>
</g>
</g>
<!-- Node28 -->
<g id="Node000028" class="node">
<title>Node28</title>
<g id="a_Node000028"><a xlink:href="utilities_8h.html" target="_top" xlink:title=" ">
<polygon fill="white" stroke="#666666" points="2039.75,-235.62 1941.25,-235.62 1941.25,-202.12 2039.75,-202.12 2039.75,-235.62"/>
<text text-anchor="start" x="1949.25" y="-222.12" font-family="Helvetica,sans-Serif" font-size="10.00">prismspf/utilities</text>
<text text-anchor="middle" x="1990.5" y="-209.38" font-family="Helvetica,sans-Serif" font-size="10.00">/utilities.h</text>
</a>
</g>
</g>
<!-- Node1&#45;&gt;Node28 -->
<g id="edge67_Node000001_Node000028" class="edge">
<title>Node1&#45;&gt;Node28</title>
<g id="a_edge67_Node000001_Node000028"><a xlink:title=" ">
<path fill="none" stroke="#63b8ff" d="M1324.18,-354.52C1392.98,-345.28 1502.54,-329.55 1596.5,-311.5 1715.48,-288.65 1853.03,-254.99 1930.08,-235.46"/>
<polygon fill="#63b8ff" stroke="#63b8ff" points="1930.71,-238.91 1939.54,-233.06 1928.98,-232.13 1930.71,-238.91"/>
</a>
</g>
</g>
<!-- Node6 -->
<g id="Node000006" class="node">
<title>Node6</title>
<g id="a_Node000006"><a xlink:title=" ">
<polygon fill="#e0e0e0" stroke="#999999" points="1373.62,-90.25 1265.38,-90.25 1265.38,-56.75 1373.62,-56.75 1373.62,-90.25"/>
<text text-anchor="start" x="1273.38" y="-76.75" font-family="Helvetica,sans-Serif" font-size="10.00">deal.II/matrix_free</text>
<text text-anchor="middle" x="1319.5" y="-64" font-family="Helvetica,sans-Serif" font-size="10.00">/evaluation_flags.h</text>
</a>
</g>
</g>
<!-- Node5&#45;&gt;Node6 -->
<g id="edge5_Node000005_Node000006" class="edge">
<title>Node5&#45;&gt;Node6</title>
<g id="a_edge5_Node000005_Node000006"><a xlink:title=" ">
<path fill="none" stroke="#63b8ff" d="M1174.22,-132.18C1198.69,-122.47 1236.88,-107.31 1267.96,-94.96"/>
<polygon fill="#63b8ff" stroke="#63b8ff" points="1269.22,-98.23 1277.22,-91.29 1266.64,-91.72 1269.22,-98.23"/>
</a>
</g>
</g>
<!-- Node7 -->
<g id="Node000007" class="node">
<title>Node7</title>
<g id="a_Node000007"><a xlink:href="type__enums_8h.html" target="_top" xlink:title=" ">
<polygon fill="white" stroke="#666666" points="475.25,-90.25 367.75,-90.25 367.75,-56.75 475.25,-56.75 475.25,-90.25"/>
<text text-anchor="start" x="375.75" y="-76.75" font-family="Helvetica,sans-Serif" font-size="10.00">prismspf/core/type</text>
<text text-anchor="middle" x="421.5" y="-64" font-family="Helvetica,sans-Serif" font-size="10.00">_enums.h</text>
</a>
</g>
</g>
<!-- Node5&#45;&gt;Node7 -->
<g id="edge6_Node000005_Node000007" class="edge">
<title>Node5&#45;&gt;Node7</title>
<g id="a_edge6_Node000005_Node000007"><a xlink:title=" ">
<path fill="none" stroke="#63b8ff" d="M1088.19,-132.39C1072.96,-130.19 1056.65,-127.99 1041.5,-126.25 839.71,-103.14 599.85,-86.06 486.72,-78.62"/>
<polygon fill="#63b8ff" stroke="#63b8ff" points="487.23,-75.14 477.03,-77.98 486.78,-82.13 487.23,-75.14"/>
</a>
</g>
</g>
<!-- Node8 -->
<g id="Node000008" class="node">
<title>Node8</title>
<g id="a_Node000008"><a xlink:title=" ">
<polygon fill="#e0e0e0" stroke="#999999" points="1110.5,-20.75 1010.5,-20.75 1010.5,0 1110.5,0 1110.5,-20.75"/>
<text text-anchor="middle" x="1060.5" y="-7.25" font-family="Helvetica,sans-Serif" font-size="10.00">prismspf/config.h</text>
</a>
</g>
</g>
<!-- Node5&#45;&gt;Node8 -->
<g id="edge10_Node000005_Node000008" class="edge">
<title>Node5&#45;&gt;Node8</title>
<g id="a_edge10_Node000005_Node000008"><a xlink:title=" ">
<path fill="none" stroke="#63b8ff" d="M1142.81,-132.18C1128.05,-110.52 1092.48,-58.31 1073.29,-30.14"/>
<polygon fill="#63b8ff" stroke="#63b8ff" points="1076.4,-28.5 1067.88,-22.2 1070.62,-32.44 1076.4,-28.5"/>
</a>
</g>
</g>
<!-- Node7&#45;&gt;Node8 -->
<g id="edge7_Node000007_Node000008" class="edge">
<title>Node7&#45;&gt;Node8</title>
<g id="a_edge7_Node000007_Node000008"><a xlink:title=" ">
<path fill="none" stroke="#63b8ff" d="M475.55,-59.22C480.25,-58.3 484.95,-57.45 489.5,-56.75 673.5,-28.29 893.79,-17.19 998.86,-13.28"/>
<polygon fill="#63b8ff" stroke="#63b8ff" points="998.8,-16.78 1008.67,-12.92 998.55,-9.79 998.8,-16.78"/>
</a>
</g>
</g>
<!-- Node9 -->
<g id="Node000009" class="node">
<title>Node9</title>
<g id="a_Node000009"><a xlink:title=" ">
<polygon fill="#e0e0e0" stroke="#999999" points="326,-20.75 277,-20.75 277,0 326,0 326,-20.75"/>
<text text-anchor="middle" x="301.5" y="-7.25" font-family="Helvetica,sans-Serif" font-size="10.00">cstdint</text>
</a>
</g>
</g>
<!-- Node7&#45;&gt;Node9 -->
<g id="edge8_Node000007_Node000009" class="edge">
<title>Node7&#45;&gt;Node9</title>
<g id="a_edge8_Node000007_Node000009"><a xlink:title=" ">
<path fill="none" stroke="#63b8ff" d="M389.66,-56.28C371.4,-46.98 348.65,-35.39 330.83,-26.31"/>
<polygon fill="#63b8ff" stroke="#63b8ff" points="332.57,-23.27 322.07,-21.85 329.39,-29.51 332.57,-23.27"/>
</a>
</g>
</g>
<!-- Node10 -->
<g id="Node000010" class="node">
<title>Node10</title>
<g id="a_Node000010"><a xlink:title=" ">
<polygon fill="#e0e0e0" stroke="#999999" points="648.38,-20.75 604.62,-20.75 604.62,0 648.38,0 648.38,-20.75"/>
<text text-anchor="middle" x="626.5" y="-7.25" font-family="Helvetica,sans-Serif" font-size="10.00">string</text>
</a>
</g>
</g>
<!-- Node7&#45;&gt;Node10 -->
<g id="edge9_Node000007_Node000010" class="edge">
<title>Node7&#45;&gt;Node10</title>
<g id="a_edge9_Node000007_Node000010"><a xlink:title=" ">
<path fill="none" stroke="#63b8ff" d="M475.63,-56.36C513.03,-45.21 561.58,-30.73 593.36,-21.26"/>
<polygon fill="#63b8ff" stroke="#63b8ff" points="594.23,-24.65 602.81,-18.44 592.23,-17.94 594.23,-24.65"/>
</a>
</g>
</g>
<!-- Node11&#45;&gt;Node2 -->
<g id="edge12_Node000011_Node000002" class="edge">
<title>Node11&#45;&gt;Node2</title>
<g id="a_edge12_Node000011_Node000002"><a xlink:title=" ">
<path fill="none" stroke="#63b8ff" d="M458.6,-211.83C509.37,-207.02 583.03,-200.36 647.5,-195.75 937.86,-174.97 1012.74,-196.66 1301.5,-159.75 1309.23,-158.76 1317.34,-157.44 1325.29,-155.99"/>
<polygon fill="#63b8ff" stroke="#63b8ff" points="1325.72,-159.47 1334.88,-154.15 1324.4,-152.6 1325.72,-159.47"/>
</a>
</g>
</g>
<!-- Node11&#45;&gt;Node7 -->
<g id="edge19_Node000011_Node000007" class="edge">
<title>Node11&#45;&gt;Node7</title>
<g id="a_edge19_Node000011_Node000007"><a xlink:title=" ">
<path fill="none" stroke="#63b8ff" d="M395.78,-195.4C395.64,-176.69 396.51,-149.46 401.5,-126.25 403.32,-117.8 406.31,-108.92 409.45,-100.94"/>
<polygon fill="#63b8ff" stroke="#63b8ff" points="412.64,-102.39 413.26,-91.81 406.18,-99.69 412.64,-102.39"/>
</a>
</g>
</g>
<!-- Node11&#45;&gt;Node8 -->
<g id="edge20_Node000011_Node000008" class="edge">
<title>Node11&#45;&gt;Node8</title>
<g id="a_edge20_Node000011_Node000008"><a xlink:title=" ">
<path fill="none" stroke="#63b8ff" d="M400.51,-195.39C405.27,-174.84 415.15,-144.89 434.5,-126.25 466.43,-95.49 578.33,-66.83 621.5,-56.75 753.65,-25.89 913.07,-16.01 998.77,-12.85"/>
<polygon fill="#63b8ff" stroke="#63b8ff" points="998.73,-16.36 1008.6,-12.51 998.49,-9.36 998.73,-16.36"/>
</a>
</g>
</g>
<!-- Node11&#45;&gt;Node9 -->
<g id="edge21_Node000011_Node000009" class="edge">
<title>Node11&#45;&gt;Node9</title>
<g id="a_edge21_Node000011_Node000009"><a xlink:title=" ">
<path fill="none" stroke="#63b8ff" d="M334.44,-214C259.96,-207.9 141.7,-193.12 114.5,-159.75 63.41,-97.06 198.86,-43.73 266.15,-21.92"/>
<polygon fill="#63b8ff" stroke="#63b8ff" points="266.8,-25.38 275.27,-19.03 264.68,-18.71 266.8,-25.38"/>
</a>
</g>
</g>
<!-- Node11&#45;&gt;Node10 -->
<g id="edge23_Node000011_Node000010" class="edge">
<title>Node11&#45;&gt;Node10</title>
<g id="a_edge23_Node000011_Node000010"><a xlink:title=" ">
<path fill="none" stroke="#63b8ff" d="M380.35,-195.28C358.19,-161.29 324.74,-96.71 358.5,-56.75 388.18,-21.63 527.96,-13.68 593.03,-11.89"/>
<polygon fill="#63b8ff" stroke="#63b8ff" points="592.84,-15.4 602.75,-11.66 592.67,-8.4 592.84,-15.4"/>
</a>
</g>
</g>
<!-- Node12 -->
<g id="Node000012" class="node">
<title>Node12</title>
<g id="a_Node000012"><a xlink:title=" ">
<polygon fill="#e0e0e0" stroke="#999999" points="569.62,-159.75 443.38,-159.75 443.38,-126.25 569.62,-126.25 569.62,-159.75"/>
<text text-anchor="start" x="451.38" y="-146.25" font-family="Helvetica,sans-Serif" font-size="10.00">deal.II/base/parameter</text>
<text text-anchor="middle" x="506.5" y="-133.5" font-family="Helvetica,sans-Serif" font-size="10.00">_handler.h</text>
</a>
</g>
</g>
<!-- Node11&#45;&gt;Node12 -->
<g id="edge13_Node000011_Node000012" class="edge">
<title>Node11&#45;&gt;Node12</title>
<g id="a_edge13_Node000011_Node000012"><a xlink:title=" ">
<path fill="none" stroke="#63b8ff" d="M430.1,-195.31C443.73,-186.16 459.43,-175.61 473.04,-166.47"/>
<polygon fill="#63b8ff" stroke="#63b8ff" points="474.91,-169.43 481.26,-160.95 471.01,-163.62 474.91,-169.43"/>
</a>
</g>
</g>
<!-- Node13 -->
<g id="Node000013" class="node">
<title>Node13</title>
<g id="a_Node000013"><a xlink:title=" ">
<polygon fill="#e0e0e0" stroke="#999999" points="1032.12,-153.38 920.88,-153.38 920.88,-132.62 1032.12,-132.62 1032.12,-153.38"/>
<text text-anchor="middle" x="976.5" y="-139.88" font-family="Helvetica,sans-Serif" font-size="10.00">deal.II/base/types.h</text>
</a>
</g>
</g>
<!-- Node11&#45;&gt;Node13 -->
<g id="edge14_Node000011_Node000013" class="edge">
<title>Node11&#45;&gt;Node13</title>
<g id="a_edge14_Node000011_Node000013"><a xlink:title=" ">
<path fill="none" stroke="#63b8ff" d="M458.4,-211.92C575.77,-200.45 826.64,-175.08 912.5,-159.75 917.85,-158.79 923.42,-157.65 928.94,-156.42"/>
<polygon fill="#63b8ff" stroke="#63b8ff" points="929.7,-159.84 938.65,-154.16 928.11,-153.02 929.7,-159.84"/>
</a>
</g>
</g>
<!-- Node14 -->
<g id="Node000014" class="node">
<title>Node14</title>
<g id="a_Node000014"><a xlink:title=" ">
<polygon fill="#e0e0e0" stroke="#999999" points="247.5,-159.75 123.5,-159.75 123.5,-126.25 247.5,-126.25 247.5,-159.75"/>
<text text-anchor="start" x="131.5" y="-146.25" font-family="Helvetica,sans-Serif" font-size="10.00">boost/algorithm/string</text>
<text text-anchor="middle" x="185.5" y="-133.5" font-family="Helvetica,sans-Serif" font-size="10.00">/predicate.hpp</text>
</a>
</g>
</g>
<!-- Node11&#45;&gt;Node14 -->
<g id="edge15_Node000011_Node000014" class="edge">
<title>Node11&#45;&gt;Node14</title>
<g id="a_edge15_Node000011_Node000014"><a xlink:title=" ">
<path fill="none" stroke="#63b8ff" d="M334.62,-196.21C305.4,-185.98 270.76,-173.85 242.22,-163.86"/>
<polygon fill="#63b8ff" stroke="#63b8ff" points="243.63,-160.65 233.04,-160.64 241.32,-167.25 243.63,-160.65"/>
</a>
</g>
</g>
<!-- Node15 -->
<g id="Node000015" class="node">
<title>Node15</title>
<g id="a_Node000015"><a xlink:href="conditional__ostreams_8h.html" target="_top" xlink:title=" ">
<polygon fill="white" stroke="#666666" points="803.38,-159.75 663.62,-159.75 663.62,-126.25 803.38,-126.25 803.38,-159.75"/>
<text text-anchor="start" x="671.62" y="-146.25" font-family="Helvetica,sans-Serif" font-size="10.00">prismspf/core/conditional</text>
<text text-anchor="middle" x="733.5" y="-133.5" font-family="Helvetica,sans-Serif" font-size="10.00">_ostreams.h</text>
</a>
</g>
</g>
<!-- Node11&#45;&gt;Node15 -->
<g id="edge16_Node000011_Node000015" class="edge">
<title>Node11&#45;&gt;Node15</title>
<g id="a_edge16_Node000011_Node000015"><a xlink:title=" ">
<path fill="none" stroke="#63b8ff" d="M458.31,-204.33C512.87,-192.36 592.78,-174.85 652.45,-161.77"/>
<polygon fill="#63b8ff" stroke="#63b8ff" points="652.85,-165.26 661.87,-159.7 651.35,-158.43 652.85,-165.26"/>
</a>
</g>
</g>
<!-- Node11&#45;&gt;Node17 -->
<g id="edge22_Node000011_Node000017" class="edge">
<title>Node11&#45;&gt;Node17</title>
<g id="a_edge22_Node000011_Node000017"><a xlink:title=" ">
<path fill="none" stroke="#63b8ff" d="M334.4,-208.95C270.48,-199.16 168.26,-181.88 81.5,-159.75 78.39,-158.96 75.19,-158.07 71.99,-157.13"/>
<polygon fill="#63b8ff" stroke="#63b8ff" points="73.27,-153.86 62.68,-154.25 71.2,-160.55 73.27,-153.86"/>
</a>
</g>
</g>
<!-- Node18 -->
<g id="Node000018" class="node">
<title>Node18</title>
<g id="a_Node000018"><a xlink:title=" ">
<polygon fill="#e0e0e0" stroke="#999999" points="311.88,-153.38 265.12,-153.38 265.12,-132.62 311.88,-132.62 311.88,-153.38"/>
<text text-anchor="middle" x="288.5" y="-139.88" font-family="Helvetica,sans-Serif" font-size="10.00">vector</text>
</a>
</g>
</g>
<!-- Node11&#45;&gt;Node18 -->
<g id="edge24_Node000011_Node000018" class="edge">
<title>Node11&#45;&gt;Node18</title>
<g id="a_edge24_Node000011_Node000018"><a xlink:title=" ">
<path fill="none" stroke="#63b8ff" d="M363.51,-195.31C346.82,-183.89 326.96,-170.3 311.86,-159.98"/>
<polygon fill="#63b8ff" stroke="#63b8ff" points="314.2,-157.34 303.97,-154.58 310.24,-163.11 314.2,-157.34"/>
</a>
</g>
</g>
<!-- Node15&#45;&gt;Node8 -->
<g id="edge18_Node000015_Node000008" class="edge">
<title>Node15&#45;&gt;Node8</title>
<g id="a_edge18_Node000015_Node000008"><a xlink:title=" ">
<path fill="none" stroke="#63b8ff" d="M773.92,-125.85C838.59,-100.02 964.23,-49.83 1025.38,-25.41"/>
<polygon fill="#63b8ff" stroke="#63b8ff" points="1026.62,-28.68 1034.61,-21.72 1024.02,-22.18 1026.62,-28.68"/>
</a>
</g>
</g>
<!-- Node16 -->
<g id="Node000016" class="node">
<title>Node16</title>
<g id="a_Node000016"><a xlink:title=" ">
<polygon fill="#e0e0e0" stroke="#999999" points="798.12,-90.25 668.88,-90.25 668.88,-56.75 798.12,-56.75 798.12,-90.25"/>
<text text-anchor="start" x="676.88" y="-76.75" font-family="Helvetica,sans-Serif" font-size="10.00">deal.II/base/conditional</text>
<text text-anchor="middle" x="733.5" y="-64" font-family="Helvetica,sans-Serif" font-size="10.00">_ostream.h</text>
</a>
</g>
</g>
<!-- Node15&#45;&gt;Node16 -->
<g id="edge17_Node000015_Node000016" class="edge">
<title>Node15&#45;&gt;Node16</title>
<g id="a_edge17_Node000015_Node000016"><a xlink:title=" ">
<path fill="none" stroke="#63b8ff" d="M733.5,-126C733.5,-118.77 733.5,-110.03 733.5,-101.81"/>
<polygon fill="#63b8ff" stroke="#63b8ff" points="737,-101.9 733.5,-91.9 730,-101.9 737,-101.9"/>
</a>
</g>
</g>
<!-- Node19&#45;&gt;Node5 -->
<g id="edge44_Node000019_Node000005" class="edge">
<title>Node19&#45;&gt;Node5</title>
<g id="a_edge44_Node000019_Node000005"><a xlink:title=" ">
<path fill="none" stroke="#63b8ff" d="M1200.65,-284.05C1248.28,-275.55 1306.66,-261.5 1321.5,-242 1333.95,-225.64 1333.76,-212.25 1321.5,-195.75 1314.14,-185.85 1250.11,-168.4 1202.31,-156.53"/>
<polygon fill="#63b8ff" stroke="#63b8ff" points="1203.18,-153.14 1192.63,-154.15 1201.51,-159.94 1203.18,-153.14"/>
</a>
</g>
</g>
<!-- Node19&#45;&gt;Node8 -->
<g id="edge66_Node000019_Node000008" class="edge">
<title>Node19&#45;&gt;Node8</title>
<g id="a_edge66_Node000019_Node000008"><a xlink:title=" ">
<path fill="none" stroke="#63b8ff" d="M1067.92,-279.33C1065.08,-278.85 1062.26,-278.41 1059.5,-278 1012.61,-271.12 666.57,-276.9 634.5,-242 600.69,-205.21 593.24,-118.82 659.5,-56.75 683.77,-34.02 892.54,-20.05 998.85,-14.35"/>
<polygon fill="#63b8ff" stroke="#63b8ff" points="998.73,-17.86 1008.53,-13.84 998.36,-10.87 998.73,-17.86"/>
</a>
</g>
</g>
<!-- Node19&#45;&gt;Node12 -->
<g id="edge26_Node000019_Node000012" class="edge">
<title>Node19&#45;&gt;Node12</title>
<g id="a_edge26_Node000019_Node000012"><a xlink:title=" ">
<path fill="none" stroke="#63b8ff" d="M1067.92,-279.29C1065.08,-278.83 1062.27,-278.39 1059.5,-278 952.93,-262.91 670.3,-294.78 576.5,-242 548.18,-226.07 528.45,-193.37 517.32,-170.13"/>
<polygon fill="#63b8ff" stroke="#63b8ff" points="520.62,-168.94 513.3,-161.28 514.25,-171.83 520.62,-168.94"/>
</a>
</g>
</g>
<!-- Node19&#45;&gt;Node15 -->
<g id="edge31_Node000019_Node000015" class="edge">
<title>Node19&#45;&gt;Node15</title>
<g id="a_edge31_Node000019_Node000015"><a xlink:title=" ">
<path fill="none" stroke="#63b8ff" d="M1067.92,-279.34C1065.08,-278.86 1062.26,-278.41 1059.5,-278 1014.04,-271.27 678.55,-275.88 647.5,-242 633.61,-226.85 637.38,-213.64 647.5,-195.75 654.61,-183.18 666.12,-173.33 678.44,-165.75"/>
<polygon fill="#63b8ff" stroke="#63b8ff" points="680.1,-168.83 687.11,-160.89 676.68,-162.73 680.1,-168.83"/>
</a>
</g>
</g>
<!-- Node20 -->
<g id="Node000020" class="node">
<title>Node20</title>
<g id="a_Node000020"><a xlink:title=" ">
<polygon fill="#e0e0e0" stroke="#999999" points="758.25,-235.62 656.75,-235.62 656.75,-202.12 758.25,-202.12 758.25,-235.62"/>
<text text-anchor="start" x="664.75" y="-222.12" font-family="Helvetica,sans-Serif" font-size="10.00">deal.II/distributed</text>
<text text-anchor="middle" x="707.5" y="-209.38" font-family="Helvetica,sans-Serif" font-size="10.00">/tria.h</text>
</a>
</g>
</g>
<!-- Node19&#45;&gt;Node20 -->
<g id="edge27_Node000019_Node000020" class="edge">
<title>Node19&#45;&gt;Node20</title>
<g id="a_edge27_Node000019_Node000020"><a xlink:title=" ">
<path fill="none" stroke="#63b8ff" d="M1067.9,-279.46C1065.06,-278.95 1062.26,-278.46 1059.5,-278 930.51,-256.54 894.58,-272.82 767.5,-242 764.41,-241.25 761.27,-240.39 758.12,-239.46"/>
<polygon fill="#63b8ff" stroke="#63b8ff" points="759.48,-236.22 748.89,-236.51 757.35,-242.89 759.48,-236.22"/>
</a>
</g>
</g>
<!-- Node21 -->
<g id="Node000021" class="node">
<title>Node21</title>
<g id="a_Node000021"><a xlink:title=" ">
<polygon fill="#e0e0e0" stroke="#999999" points="926.62,-229.25 776.38,-229.25 776.38,-208.5 926.62,-208.5 926.62,-229.25"/>
<text text-anchor="middle" x="851.5" y="-215.75" font-family="Helvetica,sans-Serif" font-size="10.00">deal.II/grid/grid_generator.h</text>
</a>
</g>
</g>
<!-- Node19&#45;&gt;Node21 -->
<g id="edge28_Node000019_Node000021" class="edge">
<title>Node19&#45;&gt;Node21</title>
<g id="a_edge28_Node000019_Node000021"><a xlink:title=" ">
<path fill="none" stroke="#63b8ff" d="M1072.19,-277.6C1032.96,-267.42 981.26,-253.98 935.5,-242 923.89,-238.96 911.38,-235.67 899.66,-232.59"/>
<polygon fill="#63b8ff" stroke="#63b8ff" points="900.73,-229.25 890.17,-230.09 898.95,-236.02 900.73,-229.25"/>
</a>
</g>
</g>
<!-- Node22 -->
<g id="Node000022" class="node">
<title>Node22</title>
<g id="a_Node000022"><a xlink:title=" ">
<polygon fill="#e0e0e0" stroke="#999999" points="1198.38,-229.25 1070.62,-229.25 1070.62,-208.5 1198.38,-208.5 1198.38,-229.25"/>
<text text-anchor="middle" x="1134.5" y="-215.75" font-family="Helvetica,sans-Serif" font-size="10.00">deal.II/grid/grid_tools.h</text>
</a>
</g>
</g>
<!-- Node19&#45;&gt;Node22 -->
<g id="edge29_Node000019_Node000022" class="edge">
<title>Node19&#45;&gt;Node22</title>
<g id="a_edge29_Node000019_Node000022"><a xlink:title=" ">
<path fill="none" stroke="#63b8ff" d="M1134.5,-277.72C1134.5,-266.88 1134.5,-252.44 1134.5,-240.71"/>
<polygon fill="#63b8ff" stroke="#63b8ff" points="1138,-240.85 1134.5,-230.85 1131,-240.85 1138,-240.85"/>
</a>
</g>
</g>
<!-- Node23 -->
<g id="Node000023" class="node">
<title>Node23</title>
<g id="a_Node000023"><a xlink:title=" ">
<polygon fill="#e0e0e0" stroke="#999999" points="1312.62,-229.25 1216.38,-229.25 1216.38,-208.5 1312.62,-208.5 1312.62,-229.25"/>
<text text-anchor="middle" x="1264.5" y="-215.75" font-family="Helvetica,sans-Serif" font-size="10.00">deal.II/grid/tria.h</text>
</a>
</g>
</g>
<!-- Node19&#45;&gt;Node23 -->
<g id="edge30_Node000019_Node000023" class="edge">
<title>Node19&#45;&gt;Node23</title>
<g id="a_edge30_Node000019_Node000023"><a xlink:title=" ">
<path fill="none" stroke="#63b8ff" d="M1163.03,-277.54C1185.12,-264.98 1215.53,-247.7 1237.29,-235.34"/>
<polygon fill="#63b8ff" stroke="#63b8ff" points="1238.92,-238.44 1245.88,-230.45 1235.46,-232.35 1238.92,-238.44"/>
</a>
</g>
</g>
<!-- Node24 -->
<g id="Node000024" class="node">
<title>Node24</title>
<g id="a_Node000024"><a xlink:href="exceptions_8h.html" target="_top" xlink:title=" ">
<polygon fill="white" stroke="#666666" points="1554.5,-229.25 1406.5,-229.25 1406.5,-208.5 1554.5,-208.5 1554.5,-229.25"/>
<text text-anchor="middle" x="1480.5" y="-215.75" font-family="Helvetica,sans-Serif" font-size="10.00">prismspf/core/exceptions.h</text>
</a>
</g>
</g>
<!-- Node19&#45;&gt;Node24 -->
<g id="edge32_Node000019_Node000024" class="edge">
<title>Node19&#45;&gt;Node24</title>
<g id="a_edge32_Node000019_Node000024"><a xlink:title=" ">
<path fill="none" stroke="#63b8ff" d="M1200.8,-279.59C1265.27,-265.83 1362.18,-245.14 1423.34,-232.08"/>
<polygon fill="#63b8ff" stroke="#63b8ff" points="1423.8,-235.56 1432.85,-230.05 1422.34,-228.71 1423.8,-235.56"/>
</a>
</g>
</g>
<!-- Node26 -->
<g id="Node000026" class="node">
<title>Node26</title>
<g id="a_Node000026"><a xlink:href="grid__refiner__criterion_8h.html" target="_top" xlink:title=" ">
<polygon fill="white" stroke="#666666" points="1052.25,-235.62 944.75,-235.62 944.75,-202.12 1052.25,-202.12 1052.25,-235.62"/>
<text text-anchor="start" x="952.75" y="-222.12" font-family="Helvetica,sans-Serif" font-size="10.00">prismspf/core/grid</text>
<text text-anchor="middle" x="998.5" y="-209.38" font-family="Helvetica,sans-Serif" font-size="10.00">_refiner_criterion.h</text>
</a>
</g>
</g>
<!-- Node19&#45;&gt;Node26 -->
<g id="edge37_Node000019_Node000026" class="edge">
<title>Node19&#45;&gt;Node26</title>
<g id="a_edge37_Node000019_Node000026"><a xlink:title=" ">
<path fill="none" stroke="#63b8ff" d="M1104.65,-277.54C1085.17,-266.95 1059.5,-253.01 1038.29,-241.49"/>
<polygon fill="#63b8ff" stroke="#63b8ff" points="1040.06,-238.47 1029.61,-236.77 1036.72,-244.62 1040.06,-238.47"/>
</a>
</g>
</g>
<!-- Node19&#45;&gt;Node28 -->
<g id="edge45_Node000019_Node000028" class="edge">
<title>Node19&#45;&gt;Node28</title>
<g id="a_edge45_Node000019_Node000028"><a xlink:title=" ">
<path fill="none" stroke="#63b8ff" d="M1200.96,-288.01C1362.58,-274.07 1774.33,-238.53 1929.81,-225.11"/>
<polygon fill="#63b8ff" stroke="#63b8ff" points="1929.83,-228.62 1939.49,-224.28 1929.22,-221.65 1929.83,-228.62"/>
</a>
</g>
</g>
<!-- Node24&#45;&gt;Node2 -->
<g id="edge33_Node000024_Node000002" class="edge">
<title>Node24&#45;&gt;Node2</title>
<g id="a_edge33_Node000024_Node000002"><a xlink:title=" ">
<path fill="none" stroke="#63b8ff" d="M1467.3,-208.22C1450.66,-196.05 1421.83,-174.96 1401.76,-160.28"/>
<polygon fill="#63b8ff" stroke="#63b8ff" points="1404.07,-157.63 1393.93,-154.55 1399.93,-163.28 1404.07,-157.63"/>
</a>
</g>
</g>
<!-- Node24&#45;&gt;Node5 -->
<g id="edge34_Node000024_Node000005" class="edge">
<title>Node24&#45;&gt;Node5</title>
<g id="a_edge34_Node000024_Node000005"><a xlink:title=" ">
<path fill="none" stroke="#63b8ff" d="M1442.9,-208.06C1427.33,-204.09 1409.08,-199.56 1392.5,-195.75 1315.96,-178.17 1296.26,-176.37 1219.5,-159.75 1214.37,-158.64 1209.03,-157.47 1203.69,-156.28"/>
<polygon fill="#63b8ff" stroke="#63b8ff" points="1204.79,-152.94 1194.27,-154.18 1203.27,-159.78 1204.79,-152.94"/>
</a>
</g>
</g>
<!-- Node24&#45;&gt;Node8 -->
<g id="edge35_Node000024_Node000008" class="edge">
<title>Node24&#45;&gt;Node8</title>
<g id="a_edge35_Node000024_Node000008"><a xlink:title=" ">
<path fill="none" stroke="#63b8ff" d="M1479.87,-208.09C1478.36,-190.55 1473.38,-153.06 1457.5,-126.25 1434.34,-87.15 1423.54,-76.26 1382.5,-56.75 1337.67,-35.44 1202.49,-22 1122.24,-15.67"/>
<polygon fill="#63b8ff" stroke="#63b8ff" points="1122.56,-12.18 1112.32,-14.9 1122.03,-19.16 1122.56,-12.18"/>
</a>
</g>
</g>
<!-- Node25 -->
<g id="Node000025" class="node">
<title>Node25</title>
<g id="a_Node000025"><a xlink:title=" ">
<polygon fill="#e0e0e0" stroke="#999999" points="1292.5,-153.38 1228.5,-153.38 1228.5,-132.62 1292.5,-132.62 1292.5,-153.38"/>
<text text-anchor="middle" x="1260.5" y="-139.88" font-family="Helvetica,sans-Serif" font-size="10.00">exception</text>
</a>
</g>
</g>
<!-- Node24&#45;&gt;Node25 -->
<g id="edge36_Node000024_Node000025" class="edge">
<title>Node24&#45;&gt;Node25</title>
<g id="a_edge36_Node000024_Node000025"><a xlink:title=" ">
<path fill="none" stroke="#63b8ff" d="M1448.64,-208.09C1412.71,-196.92 1352.63,-177.86 1301.5,-159.75 1299.72,-159.12 1297.9,-158.46 1296.07,-157.79"/>
<polygon fill="#63b8ff" stroke="#63b8ff" points="1297.58,-154.62 1286.99,-154.4 1295.13,-161.18 1297.58,-154.62"/>
</a>
</g>
</g>
<!-- Node26&#45;&gt;Node2 -->
<g id="edge38_Node000026_Node000002" class="edge">
<title>Node26&#45;&gt;Node2</title>
<g id="a_edge38_Node000026_Node000002"><a xlink:title=" ">
<path fill="none" stroke="#63b8ff" d="M1041.21,-201.66C1047.94,-199.46 1054.86,-197.4 1061.5,-195.75 1166.18,-169.76 1195.27,-178.43 1301.5,-159.75 1308.2,-158.57 1315.2,-157.27 1322.15,-155.92"/>
<polygon fill="#63b8ff" stroke="#63b8ff" points="1322.34,-159.45 1331.48,-154.09 1320.99,-152.58 1322.34,-159.45"/>
</a>
</g>
</g>
<!-- Node26&#45;&gt;Node5 -->
<g id="edge39_Node000026_Node000005" class="edge">
<title>Node26&#45;&gt;Node5</title>
<g id="a_edge39_Node000026_Node000005"><a xlink:title=" ">
<path fill="none" stroke="#63b8ff" d="M1031.64,-201.66C1057.77,-188.88 1093.91,-171.2 1119.26,-158.79"/>
<polygon fill="#63b8ff" stroke="#63b8ff" points="1120.6,-162.04 1128.04,-154.5 1117.52,-155.75 1120.6,-162.04"/>
</a>
</g>
</g>
<!-- Node26&#45;&gt;Node8 -->
<g id="edge40_Node000026_Node000008" class="edge">
<title>Node26&#45;&gt;Node8</title>
<g id="a_edge40_Node000026_Node000008"><a xlink:title=" ">
<path fill="none" stroke="#63b8ff" d="M1013.79,-201.97C1023.4,-191 1035.13,-175.59 1041.5,-159.75 1058.71,-116.93 1061.18,-62.06 1061.08,-32.51"/>
<polygon fill="#63b8ff" stroke="#63b8ff" points="1064.59,-32.63 1060.94,-22.68 1057.59,-32.73 1064.59,-32.63"/>
</a>
</g>
</g>
<!-- Node26&#45;&gt;Node9 -->
<g id="edge42_Node000026_Node000009" class="edge">
<title>Node26&#45;&gt;Node9</title>
<g id="a_edge42_Node000026_Node000009"><a xlink:title=" ">
<path fill="none" stroke="#63b8ff" d="M956.16,-201.65C949.32,-199.42 942.27,-197.35 935.5,-195.75 812.98,-166.73 775.8,-193.49 654.5,-159.75 618.94,-149.86 613.89,-136.76 578.5,-126.25 483.52,-98.04 442.78,-142.34 358.5,-90.25 335.89,-76.27 319.54,-49.68 310.3,-31.26"/>
<polygon fill="#63b8ff" stroke="#63b8ff" points="313.55,-29.95 306.11,-22.4 307.22,-32.94 313.55,-29.95"/>
</a>
</g>
</g>
<!-- Node26&#45;&gt;Node10 -->
<g id="edge43_Node000026_Node000010" class="edge">
<title>Node26&#45;&gt;Node10</title>
<g id="a_edge43_Node000026_Node000010"><a xlink:title=" ">
<path fill="none" stroke="#63b8ff" d="M952.63,-201.75C912.42,-187.29 859.19,-167.24 851.5,-159.75 815.83,-125.03 845.37,-89.06 807.5,-56.75 765.73,-21.12 699.95,-12.78 660.24,-11.21"/>
<polygon fill="#63b8ff" stroke="#63b8ff" points="660.41,-7.71 650.33,-10.96 660.24,-14.71 660.41,-7.71"/>
</a>
</g>
</g>
<!-- Node27 -->
<g id="Node000027" class="node">
<title>Node27</title>
<g id="a_Node000027"><a xlink:title=" ">
<polygon fill="#e0e0e0" stroke="#999999" points="903,-153.38 860,-153.38 860,-132.62 903,-132.62 903,-153.38"/>
<text text-anchor="middle" x="881.5" y="-139.88" font-family="Helvetica,sans-Serif" font-size="10.00">cfloat</text>
</a>
</g>
</g>
<!-- Node26&#45;&gt;Node27 -->
<g id="edge41_Node000026_Node000027" class="edge">
<title>Node26&#45;&gt;Node27</title>
<g id="a_edge41_Node000026_Node000027"><a xlink:title=" ">
<path fill="none" stroke="#63b8ff" d="M972.82,-201.66C953.21,-189.28 926.32,-172.3 906.8,-159.97"/>
<polygon fill="#63b8ff" stroke="#63b8ff" points="908.67,-157.02 898.35,-154.64 904.94,-162.94 908.67,-157.02"/>
</a>
</g>
</g>
<!-- Node28&#45;&gt;Node2 -->
<g id="edge47_Node000028_Node000002" class="edge">
<title>Node28&#45;&gt;Node2</title>
<g id="a_edge47_Node000028_Node000002"><a xlink:title=" ">
<path fill="none" stroke="#63b8ff" d="M1940.83,-213.71C1847.06,-205.55 1637.61,-185.96 1462.5,-159.75 1454.81,-158.6 1446.75,-157.25 1438.79,-155.83"/>
<polygon fill="#63b8ff" stroke="#63b8ff" points="1439.63,-152.43 1429.16,-154.07 1438.37,-159.31 1439.63,-152.43"/>
</a>
</g>
</g>
<!-- Node28&#45;&gt;Node3 -->
<g id="edge50_Node000028_Node000003" class="edge">
<title>Node28&#45;&gt;Node3</title>
<g id="a_edge50_Node000028_Node000003"><a xlink:title=" ">
<path fill="none" stroke="#63b8ff" d="M2040.07,-216.2C2214.47,-210.12 2799.2,-188.08 2984.5,-159.75 2990.2,-158.88 2996.15,-157.72 3002,-156.44"/>
<polygon fill="#63b8ff" stroke="#63b8ff" points="3002.67,-159.88 3011.6,-154.18 3001.07,-153.06 3002.67,-159.88"/>
</a>
</g>
</g>
<!-- Node28&#45;&gt;Node6 -->
<g id="edge55_Node000028_Node000006" class="edge">
<title>Node28&#45;&gt;Node6</title>
<g id="a_edge55_Node000028_Node000006"><a xlink:title=" ">
<path fill="none" stroke="#63b8ff" d="M1940.98,-215.38C1832.97,-209.39 1579.54,-192.23 1500.5,-159.75 1478.09,-150.54 1478.64,-138.08 1457.5,-126.25 1434.75,-113.52 1408.25,-102.72 1384.58,-94.34"/>
<polygon fill="#63b8ff" stroke="#63b8ff" points="1385.96,-91.11 1375.37,-91.15 1383.67,-97.73 1385.96,-91.11"/>
</a>
</g>
</g>
<!-- Node28&#45;&gt;Node8 -->
<g id="edge62_Node000028_Node000008" class="edge">
<title>Node28&#45;&gt;Node8</title>
<g id="a_edge62_Node000028_Node000008"><a xlink:title=" ">
<path fill="none" stroke="#63b8ff" d="M2040.02,-216.08C2209.48,-209.7 2757.13,-187.05 2782.5,-159.75 2792.64,-148.84 2792.09,-137.64 2782.5,-126.25 2666.03,12.14 2561.42,-75.34 2381.5,-56.75 2132.46,-31.01 1348.22,-16.18 1122.09,-12.37"/>
<polygon fill="#63b8ff" stroke="#63b8ff" points="1122.38,-8.87 1112.32,-12.2 1122.26,-15.87 1122.38,-8.87"/>
</a>
</g>
</g>
<!-- Node28&#45;&gt;Node10 -->
<g id="edge63_Node000028_Node000010" class="edge">
<title>Node28&#45;&gt;Node10</title>
<g id="a_edge63_Node000028_Node000010"><a xlink:title=" ">
<path fill="none" stroke="#63b8ff" d="M1940.82,-216.73C1861.02,-213.64 1700.19,-202.17 1571.5,-159.75 1480.64,-129.8 1474.45,-83.14 1382.5,-56.75 1312.49,-36.66 797.38,-17.36 660.06,-12.53"/>
<polygon fill="#63b8ff" stroke="#63b8ff" points="660.31,-9.03 650.19,-12.18 660.07,-16.03 660.31,-9.03"/>
</a>
</g>
</g>
<!-- Node28&#45;&gt;Node13 -->
<g id="edge52_Node000028_Node000013" class="edge">
<title>Node28&#45;&gt;Node13</title>
<g id="a_edge52_Node000028_Node000013"><a xlink:title=" ">
<path fill="none" stroke="#63b8ff" d="M1940.92,-215.29C1776.32,-206.62 1248.88,-178.07 1079.5,-159.75 1067.92,-158.5 1055.64,-156.88 1043.75,-155.16"/>
<polygon fill="#63b8ff" stroke="#63b8ff" points="1044.42,-151.72 1034.01,-153.7 1043.38,-158.64 1044.42,-151.72"/>
</a>
</g>
</g>
<!-- Node29 -->
<g id="Node000029" class="node">
<title>Node29</title>
<g id="a_Node000029"><a xlink:title=" ">
<polygon fill="#e0e0e0" stroke="#999999" points="2190.25,-153.38 2076.75,-153.38 2076.75,-132.62 2190.25,-132.62 2190.25,-153.38"/>
<text text-anchor="middle" x="2133.5" y="-139.88" font-family="Helvetica,sans-Serif" font-size="10.00">deal.II/base/config.h</text>
</a>
</g>
</g>
<!-- Node28&#45;&gt;Node29 -->
<g id="edge46_Node000028_Node000029" class="edge">
<title>Node28&#45;&gt;Node29</title>
<g id="a_edge46_Node000028_Node000029"><a xlink:title=" ">
<path fill="none" stroke="#63b8ff" d="M2021.88,-201.66C2046.52,-188.94 2080.55,-171.35 2104.54,-158.96"/>
<polygon fill="#63b8ff" stroke="#63b8ff" points="2105.85,-162.23 2113.12,-154.53 2102.63,-156.01 2105.85,-162.23"/>
</a>
</g>
</g>
<!-- Node30 -->
<g id="Node000030" class="node">
<title>Node30</title>
<g id="a_Node000030"><a xlink:title=" ">
<polygon fill="#e0e0e0" stroke="#999999" points="2342.38,-153.38 2208.62,-153.38 2208.62,-132.62 2342.38,-132.62 2342.38,-153.38"/>
<text text-anchor="middle" x="2275.5" y="-139.88" font-family="Helvetica,sans-Serif" font-size="10.00">deal.II/base/logstream.h</text>
</a>
</g>
</g>
<!-- Node28&#45;&gt;Node30 -->
<g id="edge48_Node000028_Node000030" class="edge">
<title>Node28&#45;&gt;Node30</title>
<g id="a_edge48_Node000028_Node000030"><a xlink:title=" ">
<path fill="none" stroke="#63b8ff" d="M2040.14,-205.01C2092.59,-191.41 2174.77,-170.11 2226.84,-156.61"/>
<polygon fill="#63b8ff" stroke="#63b8ff" points="2227.53,-160.05 2236.33,-154.15 2225.77,-153.28 2227.53,-160.05"/>
</a>
</g>
</g>
<!-- Node31 -->
<g id="Node000031" class="node">
<title>Node31</title>
<g id="a_Node000031"><a xlink:title=" ">
<polygon fill="#e0e0e0" stroke="#999999" points="2463,-153.38 2360,-153.38 2360,-132.62 2463,-132.62 2463,-153.38"/>
<text text-anchor="middle" x="2411.5" y="-139.88" font-family="Helvetica,sans-Serif" font-size="10.00">deal.II/base/mpi.h</text>
</a>
</g>
</g>
<!-- Node28&#45;&gt;Node31 -->
<g id="edge49_Node000028_Node000031" class="edge">
<title>Node28&#45;&gt;Node31</title>
<g id="a_edge49_Node000028_Node000031"><a xlink:title=" ">
<path fill="none" stroke="#63b8ff" d="M2040.12,-211.44C2109.97,-202.03 2241.1,-183.07 2351.5,-159.75 2356.06,-158.79 2360.8,-157.7 2365.52,-156.55"/>
<polygon fill="#63b8ff" stroke="#63b8ff" points="2366.1,-160.02 2374.95,-154.19 2364.4,-153.23 2366.1,-160.02"/>
</a>
</g>
</g>
<!-- Node32 -->
<g id="Node000032" class="node">
<title>Node32</title>
<g id="a_Node000032"><a xlink:title=" ">
<polygon fill="#e0e0e0" stroke="#999999" points="2633.62,-153.38 2519.38,-153.38 2519.38,-132.62 2633.62,-132.62 2633.62,-153.38"/>
<text text-anchor="middle" x="2576.5" y="-139.88" font-family="Helvetica,sans-Serif" font-size="10.00">deal.II/base/tensor.h</text>
</a>
</g>
</g>
<!-- Node28&#45;&gt;Node32 -->
<g id="edge51_Node000028_Node000032" class="edge">
<title>Node28&#45;&gt;Node32</title>
<g id="a_edge51_Node000028_Node000032"><a xlink:title=" ">
<path fill="none" stroke="#63b8ff" d="M2040.1,-214.04C2132.21,-206.52 2335.77,-188.07 2505.5,-159.75 2511.8,-158.7 2518.39,-157.45 2524.9,-156.12"/>
<polygon fill="#63b8ff" stroke="#63b8ff" points="2525.18,-159.63 2534.24,-154.14 2523.73,-152.79 2525.18,-159.63"/>
</a>
</g>
</g>
<!-- Node33 -->
<g id="Node000033" class="node">
<title>Node33</title>
<g id="a_Node000033"><a xlink:title=" ">
<polygon fill="#e0e0e0" stroke="#999999" points="2773,-153.38 2652,-153.38 2652,-132.62 2773,-132.62 2773,-153.38"/>
<text text-anchor="middle" x="2712.5" y="-139.88" font-family="Helvetica,sans-Serif" font-size="10.00">deal.II/base/utilities.h</text>
</a>
</g>
</g>
<!-- Node28&#45;&gt;Node33 -->
<g id="edge53_Node000028_Node000033" class="edge">
<title>Node28&#45;&gt;Node33</title>
<g id="a_edge53_Node000028_Node000033"><a xlink:title=" ">
<path fill="none" stroke="#63b8ff" d="M2039.85,-215.71C2149.02,-210.43 2419.06,-194.69 2642.5,-159.75 2648.89,-158.75 2655.56,-157.51 2662.14,-156.17"/>
<polygon fill="#63b8ff" stroke="#63b8ff" points="2662.54,-159.66 2671.58,-154.15 2661.07,-152.82 2662.54,-159.66"/>
</a>
</g>
</g>
<!-- Node34 -->
<g id="Node000034" class="node">
<title>Node34</title>
<g id="a_Node000034"><a xlink:title=" ">
<polygon fill="#e0e0e0" stroke="#999999" points="2372.5,-83.88 2224.5,-83.88 2224.5,-63.12 2372.5,-63.12 2372.5,-83.88"/>
<text text-anchor="middle" x="2298.5" y="-70.38" font-family="Helvetica,sans-Serif" font-size="10.00">deal.II/base/vectorization.h</text>
</a>
</g>
</g>
<!-- Node28&#45;&gt;Node34 -->
<g id="edge54_Node000028_Node000034" class="edge">
<title>Node28&#45;&gt;Node34</title>
<g id="a_edge54_Node000028_Node000034"><a xlink:title=" ">
<path fill="none" stroke="#63b8ff" d="M2039.84,-215.57C2156.96,-209.6 2444.09,-191.8 2472.5,-159.75 2506.22,-121.72 2439.52,-98.88 2379.2,-86.55"/>
<polygon fill="#63b8ff" stroke="#63b8ff" points="2380,-83.15 2369.52,-84.66 2378.66,-90.02 2380,-83.15"/>
</a>
</g>
</g>
<!-- Node35 -->
<g id="Node000035" class="node">
<title>Node35</title>
<g id="a_Node000035"><a xlink:title=" ">
<polygon fill="#e0e0e0" stroke="#999999" points="2975,-153.38 2830,-153.38 2830,-132.62 2975,-132.62 2975,-153.38"/>
<text text-anchor="middle" x="2902.5" y="-139.88" font-family="Helvetica,sans-Serif" font-size="10.00">boost/range/algorithm.hpp</text>
</a>
</g>
</g>
<!-- Node28&#45;&gt;Node35 -->
<g id="edge56_Node000028_Node000035" class="edge">
<title>Node28&#45;&gt;Node35</title>
<g id="a_edge56_Node000028_Node000035"><a xlink:title=" ">
<path fill="none" stroke="#63b8ff" d="M2039.97,-216.27C2168.38,-211.69 2522.73,-196.45 2815.5,-159.75 2824.17,-158.66 2833.29,-157.28 2842.23,-155.79"/>
<polygon fill="#63b8ff" stroke="#63b8ff" points="2842.67,-159.26 2851.92,-154.11 2841.47,-152.37 2842.67,-159.26"/>
</a>
</g>
</g>
<!-- Node36 -->
<g id="Node000036" class="node">
<title>Node36</title>
<g id="a_Node000036"><a xlink:title=" ">
<polygon fill="#e0e0e0" stroke="#999999" points="1704.5,-159.75 1580.5,-159.75 1580.5,-126.25 1704.5,-126.25 1704.5,-159.75"/>
<text text-anchor="start" x="1588.5" y="-146.25" font-family="Helvetica,sans-Serif" font-size="10.00">boost/range/algorithm</text>
<text text-anchor="middle" x="1642.5" y="-133.5" font-family="Helvetica,sans-Serif" font-size="10.00">_ext.hpp</text>
</a>
</g>
</g>
<!-- Node28&#45;&gt;Node36 -->
<g id="edge57_Node000028_Node000036" class="edge">
<title>Node28&#45;&gt;Node36</title>
<g id="a_edge57_Node000028_Node000036"><a xlink:title=" ">
<path fill="none" stroke="#63b8ff" d="M1940.93,-207.65C1887.8,-196.66 1800.69,-178.51 1715.96,-160.27"/>
<polygon fill="#63b8ff" stroke="#63b8ff" points="1716.82,-156.87 1706.31,-158.19 1715.35,-163.72 1716.82,-156.87"/>
</a>
</g>
</g>
<!-- Node37 -->
<g id="Node000037" class="node">
<title>Node37</title>
<g id="a_Node000037"><a xlink:href="vectorized__operations_8h.html" target="_top" xlink:title=" ">
<polygon fill="white" stroke="#666666" points="2058.5,-159.75 1922.5,-159.75 1922.5,-126.25 2058.5,-126.25 2058.5,-159.75"/>
<text text-anchor="start" x="1930.5" y="-146.25" font-family="Helvetica,sans-Serif" font-size="10.00">prismspf/utilities</text>
<text text-anchor="middle" x="1990.5" y="-133.5" font-family="Helvetica,sans-Serif" font-size="10.00">/vectorized_operations.h</text>
</a>
</g>
</g>
<!-- Node28&#45;&gt;Node37 -->
<g id="edge58_Node000028_Node000037" class="edge">
<title>Node28&#45;&gt;Node37</title>
<g id="a_edge58_Node000028_Node000037"><a xlink:title=" ">
<path fill="none" stroke="#63b8ff" d="M1990.5,-201.85C1990.5,-192.94 1990.5,-181.61 1990.5,-171.35"/>
<polygon fill="#63b8ff" stroke="#63b8ff" points="1994,-171.51 1990.5,-161.51 1987,-171.51 1994,-171.51"/>
</a>
</g>
</g>
<!-- Node39 -->
<g id="Node000039" class="node">
<title>Node39</title>
<g id="a_Node000039"><a xlink:title=" ">
<polygon fill="#e0e0e0" stroke="#999999" points="1794.62,-153.38 1722.38,-153.38 1722.38,-132.62 1794.62,-132.62 1794.62,-153.38"/>
<text text-anchor="middle" x="1758.5" y="-139.88" font-family="Helvetica,sans-Serif" font-size="10.00">string_view</text>
</a>
</g>
</g>
<!-- Node28&#45;&gt;Node39 -->
<g id="edge64_Node000028_Node000039" class="edge">
<title>Node28&#45;&gt;Node39</title>
<g id="a_edge64_Node000028_Node000039"><a xlink:title=" ">
<path fill="none" stroke="#63b8ff" d="M1941.13,-203.05C1903.34,-191.58 1849.99,-175.1 1803.5,-159.75 1801.29,-159.02 1799.02,-158.26 1796.74,-157.49"/>
<polygon fill="#63b8ff" stroke="#63b8ff" points="1798.08,-154.25 1787.48,-154.31 1795.81,-160.87 1798.08,-154.25"/>
</a>
</g>
</g>
<!-- Node40 -->
<g id="Node000040" class="node">
<title>Node40</title>
<g id="a_Node000040"><a xlink:title=" ">
<polygon fill="#e0e0e0" stroke="#999999" points="1904.75,-153.38 1812.25,-153.38 1812.25,-132.62 1904.75,-132.62 1904.75,-153.38"/>
<text text-anchor="middle" x="1858.5" y="-139.88" font-family="Helvetica,sans-Serif" font-size="10.00">unordered_map</text>
</a>
</g>
</g>
<!-- Node28&#45;&gt;Node40 -->
<g id="edge65_Node000028_Node000040" class="edge">
<title>Node28&#45;&gt;Node40</title>
<g id="a_edge65_Node000028_Node000040"><a xlink:title=" ">
<path fill="none" stroke="#63b8ff" d="M1961.53,-201.66C1938.99,-189.05 1907.94,-171.67 1885.83,-159.3"/>
<polygon fill="#63b8ff" stroke="#63b8ff" points="1887.82,-156.4 1877.39,-154.57 1884.4,-162.51 1887.82,-156.4"/>
</a>
</g>
</g>
<!-- Node37&#45;&gt;Node8 -->
<g id="edge60_Node000037_Node000008" class="edge">
<title>Node37&#45;&gt;Node8</title>
<g id="a_edge60_Node000037_Node000008"><a xlink:title=" ">
<path fill="none" stroke="#63b8ff" d="M1922.07,-127.99C1919.17,-127.4 1916.31,-126.82 1913.5,-126.25 1759.34,-95.05 1722.17,-79.25 1566.5,-56.75 1407.28,-33.74 1218.09,-20.48 1122.45,-14.76"/>
<polygon fill="#63b8ff" stroke="#63b8ff" points="1122.68,-11.27 1112.49,-14.18 1122.27,-18.26 1122.68,-11.27"/>
</a>
</g>
</g>
<!-- Node37&#45;&gt;Node34 -->
<g id="edge59_Node000037_Node000034" class="edge">
<title>Node37&#45;&gt;Node34</title>
<g id="a_edge59_Node000037_Node000034"><a xlink:title=" ">
<path fill="none" stroke="#63b8ff" d="M2058.86,-127.02C2114.17,-114.9 2191.09,-98.04 2242.73,-86.72"/>
<polygon fill="#63b8ff" stroke="#63b8ff" points="2243.17,-90.21 2252.19,-84.65 2241.67,-83.37 2243.17,-90.21"/>
</a>
</g>
</g>
<!-- Node38 -->
<g id="Node000038" class="node">
<title>Node38</title>
<g id="a_Node000038"><a xlink:title=" ">
<polygon fill="#e0e0e0" stroke="#999999" points="2013.88,-83.88 1967.12,-83.88 1967.12,-63.12 2013.88,-63.12 2013.88,-83.88"/>
<text text-anchor="middle" x="1990.5" y="-70.38" font-family="Helvetica,sans-Serif" font-size="10.00">cmath</text>
</a>
</g>
</g>
<!-- Node37&#45;&gt;Node38 -->
<g id="edge61_Node000037_Node000038" class="edge">
<title>Node37&#45;&gt;Node38</title>
<g id="a_edge61_Node000037_Node000038"><a xlink:title=" ">
<path fill="none" stroke="#63b8ff" d="M1990.5,-126C1990.5,-116.9 1990.5,-105.39 1990.5,-95.57"/>
<polygon fill="#63b8ff" stroke="#63b8ff" points="1994,-95.84 1990.5,-85.84 1987,-95.84 1994,-95.84"/>
</a>
</g>
</g>
</g>
</svg>
