<?xml version="1.0" encoding="UTF-8" standalone="no"?>
<!DOCTYPE svg PUBLIC "-//W3C//DTD SVG 1.1//EN"
 "http://www.w3.org/Graphics/SVG/1.1/DTD/svg11.dtd">
<!-- Generated by graphviz version 12.2.1 (20241206.2353)
 -->
<!-- Title: /__w/phaseField/phaseField/include/prismspf/field_input/read_field_base.h Pages: 1 -->
<svg width="361pt" height="288pt"
 viewBox="0.00 0.00 360.75 288.25" xmlns="http://www.w3.org/2000/svg" xmlns:xlink="http://www.w3.org/1999/xlink">
<g id="graph0" class="graph" transform="scale(1 1) rotate(0) translate(4 284.25)">
<title>/__w/phaseField/phaseField/include/prismspf/field_input/read_field_base.h</title>
<!-- Node1 -->
<g id="Node000001" class="node">
<title>Node1</title>
<g id="a_Node000001"><a xlink:title=" ">
<polygon fill="#999999" stroke="#666666" points="250.75,-280.25 102,-280.25 102,-234 250.75,-234 250.75,-280.25"/>
<text text-anchor="start" x="110" y="-266.75" font-family="Helvetica,sans-Serif" font-size="10.00">/__w/phaseField/phaseField</text>
<text text-anchor="start" x="110" y="-254" font-family="Helvetica,sans-Serif" font-size="10.00">/include/prismspf/field</text>
<text text-anchor="middle" x="176.38" y="-241.25" font-family="Helvetica,sans-Serif" font-size="10.00">_input/read_field_base.h</text>
</a>
</g>
</g>
<!-- Node2 -->
<g id="Node000002" class="node">
<title>Node2</title>
<g id="a_Node000002"><a xlink:href="read__binary_8h.html" target="_top" xlink:title=" ">
<polygon fill="white" stroke="#666666" points="148.75,-198 0,-198 0,-151.75 148.75,-151.75 148.75,-198"/>
<text text-anchor="start" x="8" y="-184.5" font-family="Helvetica,sans-Serif" font-size="10.00">/__w/phaseField/phaseField</text>
<text text-anchor="start" x="8" y="-171.75" font-family="Helvetica,sans-Serif" font-size="10.00">/include/prismspf/field</text>
<text text-anchor="middle" x="74.38" y="-159" font-family="Helvetica,sans-Serif" font-size="10.00">_input/read_binary.h</text>
</a>
</g>
</g>
<!-- Node1&#45;&gt;Node2 -->
<g id="edge1_Node000001_Node000002" class="edge">
<title>Node1&#45;&gt;Node2</title>
<g id="a_edge1_Node000001_Node000002"><a xlink:title=" ">
<path fill="none" stroke="#63b8ff" d="M138.85,-226.6C126.95,-217.24 114,-207.05 102.84,-198.27"/>
<polygon fill="#63b8ff" stroke="#63b8ff" points="136.48,-229.19 146.5,-232.62 140.81,-223.69 136.48,-229.19"/>
</a>
</g>
</g>
<!-- Node3 -->
<g id="Node000003" class="node">
<title>Node3</title>
<g id="a_Node000003"><a xlink:href="read__field__factory_8h.html" target="_top" xlink:title=" ">
<polygon fill="white" stroke="#666666" points="199.75,-115.75 51,-115.75 51,-69.5 199.75,-69.5 199.75,-115.75"/>
<text text-anchor="start" x="59" y="-102.25" font-family="Helvetica,sans-Serif" font-size="10.00">/__w/phaseField/phaseField</text>
<text text-anchor="start" x="59" y="-89.5" font-family="Helvetica,sans-Serif" font-size="10.00">/include/prismspf/field</text>
<text text-anchor="middle" x="125.38" y="-76.75" font-family="Helvetica,sans-Serif" font-size="10.00">_input/read_field_factory.h</text>
</a>
</g>
</g>
<!-- Node1&#45;&gt;Node3 -->
<g id="edge4_Node000001_Node000003" class="edge">
<title>Node1&#45;&gt;Node3</title>
<g id="a_edge4_Node000001_Node000003"><a xlink:title=" ">
<path fill="none" stroke="#63b8ff" d="M173.04,-222.44C170.31,-201.63 165.51,-174.63 157.38,-151.75 152.98,-139.38 146.15,-126.5 139.93,-116.02"/>
<polygon fill="#63b8ff" stroke="#63b8ff" points="169.54,-222.58 174.21,-232.09 176.49,-221.74 169.54,-222.58"/>
</a>
</g>
</g>
<!-- Node5 -->
<g id="Node000005" class="node">
<title>Node5</title>
<g id="a_Node000005"><a xlink:href="read__vtk_8h.html" target="_top" xlink:title=" ">
<polygon fill="white" stroke="#666666" points="352.75,-198 204,-198 204,-151.75 352.75,-151.75 352.75,-198"/>
<text text-anchor="start" x="212" y="-184.5" font-family="Helvetica,sans-Serif" font-size="10.00">/__w/phaseField/phaseField</text>
<text text-anchor="start" x="212" y="-171.75" font-family="Helvetica,sans-Serif" font-size="10.00">/include/prismspf/field</text>
<text text-anchor="middle" x="278.38" y="-159" font-family="Helvetica,sans-Serif" font-size="10.00">_input/read_vtk.h</text>
</a>
</g>
</g>
<!-- Node1&#45;&gt;Node5 -->
<g id="edge5_Node000001_Node000005" class="edge">
<title>Node1&#45;&gt;Node5</title>
<g id="a_edge5_Node000001_Node000005"><a xlink:title=" ">
<path fill="none" stroke="#63b8ff" d="M213.9,-226.6C225.8,-217.24 238.75,-207.05 249.91,-198.27"/>
<polygon fill="#63b8ff" stroke="#63b8ff" points="211.94,-223.69 206.25,-232.62 216.27,-229.19 211.94,-223.69"/>
</a>
</g>
</g>
<!-- Node2&#45;&gt;Node3 -->
<g id="edge2_Node000002_Node000003" class="edge">
<title>Node2&#45;&gt;Node3</title>
<g id="a_edge2_Node000002_Node000003"><a xlink:title=" ">
<path fill="none" stroke="#63b8ff" d="M94.6,-142.05C100.11,-133.38 105.96,-124.17 111.07,-116.14"/>
<polygon fill="#63b8ff" stroke="#63b8ff" points="91.8,-139.93 89.39,-150.24 97.71,-143.68 91.8,-139.93"/>
</a>
</g>
</g>
<!-- Node4 -->
<g id="Node000004" class="node">
<title>Node4</title>
<g id="a_Node000004"><a xlink:href="initial__conditions_8cc.html" target="_top" xlink:title=" ">
<polygon fill="white" stroke="#666666" points="203.88,-33.5 46.88,-33.5 46.88,0 203.88,0 203.88,-33.5"/>
<text text-anchor="start" x="54.88" y="-20" font-family="Helvetica,sans-Serif" font-size="10.00">/__w/phaseField/phaseField</text>
<text text-anchor="middle" x="125.38" y="-7.25" font-family="Helvetica,sans-Serif" font-size="10.00">/src/core/initial_conditions.cc</text>
</a>
</g>
</g>
<!-- Node3&#45;&gt;Node4 -->
<g id="edge3_Node000003_Node000004" class="edge">
<title>Node3&#45;&gt;Node4</title>
<g id="a_edge3_Node000003_Node000004"><a xlink:title=" ">
<path fill="none" stroke="#63b8ff" d="M125.38,-57.64C125.38,-49.35 125.38,-40.86 125.38,-33.85"/>
<polygon fill="#63b8ff" stroke="#63b8ff" points="121.88,-57.55 125.38,-67.55 128.88,-57.55 121.88,-57.55"/>
</a>
</g>
</g>
</g>
</svg>
