<?xml version="1.0" encoding="UTF-8" standalone="no"?>
<!DOCTYPE svg PUBLIC "-//W3C//DTD SVG 1.1//EN"
 "http://www.w3.org/Graphics/SVG/1.1/DTD/svg11.dtd">
<!-- Generated by graphviz version 12.2.1 (20241206.2353)
 -->
<!-- Title: /__w/phaseField/phaseField/include/prismspf/core/refinement_manager.h Pages: 1 -->
<svg width="188pt" height="193pt"
 viewBox="0.00 0.00 188.25 193.25" xmlns="http://www.w3.org/2000/svg" xmlns:xlink="http://www.w3.org/1999/xlink">
<g id="graph0" class="graph" transform="scale(1 1) rotate(0) translate(4 189.25)">
<title>/__w/phaseField/phaseField/include/prismspf/core/refinement_manager.h</title>
<!-- Node1 -->
<g id="Node000001" class="node">
<title>Node1</title>
<g id="a_Node000001"><a xlink:title=" ">
<polygon fill="#999999" stroke="#666666" points="180.25,-185.25 0,-185.25 0,-139 180.25,-139 180.25,-185.25"/>
<text text-anchor="start" x="8" y="-171.75" font-family="Helvetica,sans-Serif" font-size="10.00">/__w/phaseField/phaseField</text>
<text text-anchor="start" x="8" y="-159" font-family="Helvetica,sans-Serif" font-size="10.00">/include/prismspf/core/refinement</text>
<text text-anchor="middle" x="90.12" y="-146.25" font-family="Helvetica,sans-Serif" font-size="10.00">_manager.h</text>
</a>
</g>
</g>
<!-- Node2 -->
<g id="Node000002" class="node">
<title>Node2</title>
<g id="a_Node000002"><a xlink:href="problem_8h.html" target="_top" xlink:title=" ">
<polygon fill="white" stroke="#666666" points="178.38,-103 1.88,-103 1.88,-69.5 178.38,-69.5 178.38,-103"/>
<text text-anchor="start" x="9.88" y="-89.5" font-family="Helvetica,sans-Serif" font-size="10.00">/__w/phaseField/phaseField</text>
<text text-anchor="middle" x="90.12" y="-76.75" font-family="Helvetica,sans-Serif" font-size="10.00">/include/prismspf/core/problem.h</text>
</a>
</g>
</g>
<!-- Node1&#45;&gt;Node2 -->
<g id="edge1_Node000001_Node000002" class="edge">
<title>Node1&#45;&gt;Node2</title>
<g id="a_edge1_Node000001_Node000002"><a xlink:title=" ">
<path fill="none" stroke="#63b8ff" d="M90.12,-127.14C90.12,-118.85 90.12,-110.36 90.12,-103.35"/>
<polygon fill="#63b8ff" stroke="#63b8ff" points="86.63,-127.05 90.13,-137.05 93.63,-127.05 86.63,-127.05"/>
</a>
</g>
</g>
<!-- Node3 -->
<g id="Node000003" class="node">
<title>Node3</title>
<g id="a_Node000003"><a xlink:href="problem_8cc.html" target="_top" xlink:title=" ">
<polygon fill="white" stroke="#666666" points="164.5,-33.5 15.75,-33.5 15.75,0 164.5,0 164.5,-33.5"/>
<text text-anchor="start" x="23.75" y="-20" font-family="Helvetica,sans-Serif" font-size="10.00">/__w/phaseField/phaseField</text>
<text text-anchor="middle" x="90.12" y="-7.25" font-family="Helvetica,sans-Serif" font-size="10.00">/src/core/problem.cc</text>
</a>
</g>
</g>
<!-- Node2&#45;&gt;Node3 -->
<g id="edge2_Node000002_Node000003" class="edge">
<title>Node2&#45;&gt;Node3</title>
<g id="a_edge2_Node000002_Node000003"><a xlink:title=" ">
<path fill="none" stroke="#63b8ff" d="M90.12,-57.81C90.12,-49.59 90.12,-40.84 90.12,-33.63"/>
<polygon fill="#63b8ff" stroke="#63b8ff" points="86.63,-57.74 90.13,-67.74 93.63,-57.74 86.63,-57.74"/>
</a>
</g>
</g>
</g>
</svg>
