<?xml version="1.0" encoding="UTF-8" standalone="no"?>
<!DOCTYPE svg PUBLIC "-//W3C//DTD SVG 1.1//EN"
 "http://www.w3.org/Graphics/SVG/1.1/DTD/svg11.dtd">
<!-- Generated by graphviz version 12.2.1 (20241206.2353)
 -->
<!-- Title: /__w/phaseField/phaseField/include/prismspf/core/simulation_timer.h Pages: 1 -->
<svg width="385pt" height="237pt"
 viewBox="0.00 0.00 385.25 237.25" xmlns="http://www.w3.org/2000/svg" xmlns:xlink="http://www.w3.org/1999/xlink">
<g id="graph0" class="graph" transform="scale(1 1) rotate(0) translate(4 233.25)">
<title>/__w/phaseField/phaseField/include/prismspf/core/simulation_timer.h</title>
<!-- Node1 -->
<g id="Node000001" class="node">
<title>Node1</title>
<g id="a_Node000001"><a xlink:title=" ">
<polygon fill="#999999" stroke="#666666" points="178.75,-229.25 0,-229.25 0,-183 178.75,-183 178.75,-229.25"/>
<text text-anchor="start" x="8" y="-215.75" font-family="Helvetica,sans-Serif" font-size="10.00">/__w/phaseField/phaseField</text>
<text text-anchor="start" x="8" y="-203" font-family="Helvetica,sans-Serif" font-size="10.00">/include/prismspf/core/simulation</text>
<text text-anchor="middle" x="89.38" y="-190.25" font-family="Helvetica,sans-Serif" font-size="10.00">_timer.h</text>
</a>
</g>
</g>
<!-- Node2 -->
<g id="Node000002" class="node">
<title>Node2</title>
<g id="a_Node000002"><a xlink:href="types_8h.html" target="_top" xlink:title=" ">
<polygon fill="white" stroke="#666666" points="232.25,-147 110.5,-147 110.5,-126.25 232.25,-126.25 232.25,-147"/>
<text text-anchor="middle" x="171.38" y="-133.5" font-family="Helvetica,sans-Serif" font-size="10.00">prismspf/core/types.h</text>
</a>
</g>
</g>
<!-- Node1&#45;&gt;Node2 -->
<g id="edge1_Node000001_Node000002" class="edge">
<title>Node1&#45;&gt;Node2</title>
<g id="a_edge1_Node000001_Node000002"><a xlink:title=" ">
<path fill="none" stroke="#63b8ff" d="M116.68,-182.65C127.81,-173.49 140.46,-163.07 150.79,-154.57"/>
<polygon fill="#63b8ff" stroke="#63b8ff" points="152.85,-157.41 158.34,-148.35 148.4,-152.01 152.85,-157.41"/>
</a>
</g>
</g>
<!-- Node5 -->
<g id="Node000005" class="node">
<title>Node5</title>
<g id="a_Node000005"><a xlink:title=" ">
<polygon fill="#e0e0e0" stroke="#999999" points="248.38,-20.75 148.38,-20.75 148.38,0 248.38,0 248.38,-20.75"/>
<text text-anchor="middle" x="198.38" y="-7.25" font-family="Helvetica,sans-Serif" font-size="10.00">prismspf/config.h</text>
</a>
</g>
</g>
<!-- Node1&#45;&gt;Node5 -->
<g id="edge8_Node000001_Node000005" class="edge">
<title>Node1&#45;&gt;Node5</title>
<g id="a_edge8_Node000001_Node000005"><a xlink:title=" ">
<path fill="none" stroke="#63b8ff" d="M76.28,-182.72C59.95,-151.51 37.28,-94.54 64.38,-56.75 80.97,-33.61 110.02,-22.12 136.83,-16.48"/>
<polygon fill="#63b8ff" stroke="#63b8ff" points="137.46,-19.92 146.66,-14.68 136.19,-13.04 137.46,-19.92"/>
</a>
</g>
</g>
<!-- Node3 -->
<g id="Node000003" class="node">
<title>Node3</title>
<g id="a_Node000003"><a xlink:title=" ">
<polygon fill="#e0e0e0" stroke="#999999" points="181.5,-90.25 73.25,-90.25 73.25,-56.75 181.5,-56.75 181.5,-90.25"/>
<text text-anchor="start" x="81.25" y="-76.75" font-family="Helvetica,sans-Serif" font-size="10.00">deal.II/matrix_free</text>
<text text-anchor="middle" x="127.38" y="-64" font-family="Helvetica,sans-Serif" font-size="10.00">/evaluation_flags.h</text>
</a>
</g>
</g>
<!-- Node2&#45;&gt;Node3 -->
<g id="edge2_Node000002_Node000003" class="edge">
<title>Node2&#45;&gt;Node3</title>
<g id="a_edge2_Node000002_Node000003"><a xlink:title=" ">
<path fill="none" stroke="#63b8ff" d="M164.31,-125.8C159.26,-118.79 152.22,-109.02 145.65,-99.88"/>
<polygon fill="#63b8ff" stroke="#63b8ff" points="148.63,-98.03 139.95,-91.96 142.95,-102.12 148.63,-98.03"/>
</a>
</g>
</g>
<!-- Node4 -->
<g id="Node000004" class="node">
<title>Node4</title>
<g id="a_Node000004"><a xlink:href="type__enums_8h.html" target="_top" xlink:title=" ">
<polygon fill="white" stroke="#666666" points="345.12,-90.25 237.62,-90.25 237.62,-56.75 345.12,-56.75 345.12,-90.25"/>
<text text-anchor="start" x="245.62" y="-76.75" font-family="Helvetica,sans-Serif" font-size="10.00">prismspf/core/type</text>
<text text-anchor="middle" x="291.38" y="-64" font-family="Helvetica,sans-Serif" font-size="10.00">_enums.h</text>
</a>
</g>
</g>
<!-- Node2&#45;&gt;Node4 -->
<g id="edge3_Node000002_Node000004" class="edge">
<title>Node2&#45;&gt;Node4</title>
<g id="a_edge3_Node000002_Node000004"><a xlink:title=" ">
<path fill="none" stroke="#63b8ff" d="M190.66,-125.8C206.45,-117.76 229.38,-106.08 249.37,-95.9"/>
<polygon fill="#63b8ff" stroke="#63b8ff" points="250.83,-99.08 258.15,-91.42 247.65,-92.84 250.83,-99.08"/>
</a>
</g>
</g>
<!-- Node2&#45;&gt;Node5 -->
<g id="edge7_Node000002_Node000005" class="edge">
<title>Node2&#45;&gt;Node5</title>
<g id="a_edge7_Node000002_Node000005"><a xlink:title=" ">
<path fill="none" stroke="#63b8ff" d="M176.48,-125.83C180.92,-116.83 187.14,-103 190.38,-90.25 195.27,-70.99 197.19,-48.36 197.93,-32.29"/>
<polygon fill="#63b8ff" stroke="#63b8ff" points="201.42,-32.63 198.26,-22.52 194.42,-32.39 201.42,-32.63"/>
</a>
</g>
</g>
<!-- Node4&#45;&gt;Node5 -->
<g id="edge4_Node000004_Node000005" class="edge">
<title>Node4&#45;&gt;Node5</title>
<g id="a_edge4_Node000004_Node000005"><a xlink:title=" ">
<path fill="none" stroke="#63b8ff" d="M266.94,-56.44C253.26,-47.45 236.25,-36.27 222.6,-27.3"/>
<polygon fill="#63b8ff" stroke="#63b8ff" points="224.89,-24.62 214.61,-22.05 221.05,-30.47 224.89,-24.62"/>
</a>
</g>
</g>
<!-- Node6 -->
<g id="Node000006" class="node">
<title>Node6</title>
<g id="a_Node000006"><a xlink:title=" ">
<polygon fill="#e0e0e0" stroke="#999999" points="315.88,-20.75 266.88,-20.75 266.88,0 315.88,0 315.88,-20.75"/>
<text text-anchor="middle" x="291.38" y="-7.25" font-family="Helvetica,sans-Serif" font-size="10.00">cstdint</text>
</a>
</g>
</g>
<!-- Node4&#45;&gt;Node6 -->
<g id="edge5_Node000004_Node000006" class="edge">
<title>Node4&#45;&gt;Node6</title>
<g id="a_edge5_Node000004_Node000006"><a xlink:title=" ">
<path fill="none" stroke="#63b8ff" d="M291.38,-56.44C291.38,-49.1 291.38,-40.32 291.38,-32.46"/>
<polygon fill="#63b8ff" stroke="#63b8ff" points="294.88,-32.73 291.38,-22.73 287.88,-32.73 294.88,-32.73"/>
</a>
</g>
</g>
<!-- Node7 -->
<g id="Node000007" class="node">
<title>Node7</title>
<g id="a_Node000007"><a xlink:title=" ">
<polygon fill="#e0e0e0" stroke="#999999" points="377.25,-20.75 333.5,-20.75 333.5,0 377.25,0 377.25,-20.75"/>
<text text-anchor="middle" x="355.38" y="-7.25" font-family="Helvetica,sans-Serif" font-size="10.00">string</text>
</a>
</g>
</g>
<!-- Node4&#45;&gt;Node7 -->
<g id="edge6_Node000004_Node000007" class="edge">
<title>Node4&#45;&gt;Node7</title>
<g id="a_edge6_Node000004_Node000007"><a xlink:title=" ">
<path fill="none" stroke="#63b8ff" d="M308.19,-56.44C316.97,-48.06 327.73,-37.78 336.76,-29.16"/>
<polygon fill="#63b8ff" stroke="#63b8ff" points="339.16,-31.7 343.98,-22.26 334.33,-26.64 339.16,-31.7"/>
</a>
</g>
</g>
</g>
</svg>
