<?xml version="1.0" encoding="UTF-8" standalone="no"?>
<!DOCTYPE svg PUBLIC "-//W3C//DTD SVG 1.1//EN"
 "http://www.w3.org/Graphics/SVG/1.1/DTD/svg11.dtd">
<!-- Generated by graphviz version 12.2.1 (20241206.2353)
 -->
<!-- Title: include/prismspf/core/simulation_timer.h Pages: 1 -->
<svg width="356pt" height="225pt"
 viewBox="0.00 0.00 356.38 224.50" xmlns="http://www.w3.org/2000/svg" xmlns:xlink="http://www.w3.org/1999/xlink">
<g id="graph0" class="graph" transform="scale(1 1) rotate(0) translate(4 220.5)">
<title>include/prismspf/core/simulation_timer.h</title>
<!-- Node1 -->
<g id="Node000001" class="node">
<title>Node1</title>
<g id="a_Node000001"><a xlink:title=" ">
<polygon fill="#999999" stroke="#666666" points="121,-216.5 0,-216.5 0,-183 121,-183 121,-216.5"/>
<text text-anchor="start" x="8" y="-203" font-family="Helvetica,sans-Serif" font-size="10.00">include/prismspf/core</text>
<text text-anchor="middle" x="60.5" y="-190.25" font-family="Helvetica,sans-Serif" font-size="10.00">/simulation_timer.h</text>
</a>
</g>
</g>
<!-- Node2 -->
<g id="Node000002" class="node">
<title>Node2</title>
<g id="a_Node000002"><a xlink:href="types_8h.html" target="_top" xlink:title=" ">
<polygon fill="white" stroke="#666666" points="203.38,-147 81.62,-147 81.62,-126.25 203.38,-126.25 203.38,-147"/>
<text text-anchor="middle" x="142.5" y="-133.5" font-family="Helvetica,sans-Serif" font-size="10.00">prismspf/core/types.h</text>
</a>
</g>
</g>
<!-- Node1&#45;&gt;Node2 -->
<g id="edge1_Node000001_Node000002" class="edge">
<title>Node1&#45;&gt;Node2</title>
<g id="a_edge1_Node000001_Node000002"><a xlink:title=" ">
<path fill="none" stroke="#63b8ff" d="M82.04,-182.69C93.76,-173.96 108.23,-163.17 120.08,-154.34"/>
<polygon fill="#63b8ff" stroke="#63b8ff" points="122.16,-157.15 128.08,-148.37 117.97,-151.54 122.16,-157.15"/>
</a>
</g>
</g>
<!-- Node5 -->
<g id="Node000005" class="node">
<title>Node5</title>
<g id="a_Node000005"><a xlink:title=" ">
<polygon fill="#e0e0e0" stroke="#999999" points="219.5,-20.75 119.5,-20.75 119.5,0 219.5,0 219.5,-20.75"/>
<text text-anchor="middle" x="169.5" y="-7.25" font-family="Helvetica,sans-Serif" font-size="10.00">prismspf/config.h</text>
</a>
</g>
</g>
<!-- Node1&#45;&gt;Node5 -->
<g id="edge8_Node000001_Node000005" class="edge">
<title>Node1&#45;&gt;Node5</title>
<g id="a_edge8_Node000001_Node000005"><a xlink:title=" ">
<path fill="none" stroke="#63b8ff" d="M50.59,-182.56C34.69,-154.27 7.93,-95.2 35.5,-56.75 52.1,-33.61 81.14,-22.12 107.96,-16.48"/>
<polygon fill="#63b8ff" stroke="#63b8ff" points="108.58,-19.92 117.79,-14.68 107.32,-13.04 108.58,-19.92"/>
</a>
</g>
</g>
<!-- Node3 -->
<g id="Node000003" class="node">
<title>Node3</title>
<g id="a_Node000003"><a xlink:title=" ">
<polygon fill="#e0e0e0" stroke="#999999" points="152.62,-90.25 44.38,-90.25 44.38,-56.75 152.62,-56.75 152.62,-90.25"/>
<text text-anchor="start" x="52.38" y="-76.75" font-family="Helvetica,sans-Serif" font-size="10.00">deal.II/matrix_free</text>
<text text-anchor="middle" x="98.5" y="-64" font-family="Helvetica,sans-Serif" font-size="10.00">/evaluation_flags.h</text>
</a>
</g>
</g>
<!-- Node2&#45;&gt;Node3 -->
<g id="edge2_Node000002_Node000003" class="edge">
<title>Node2&#45;&gt;Node3</title>
<g id="a_edge2_Node000002_Node000003"><a xlink:title=" ">
<path fill="none" stroke="#63b8ff" d="M135.43,-125.8C130.38,-118.79 123.35,-109.02 116.77,-99.88"/>
<polygon fill="#63b8ff" stroke="#63b8ff" points="119.75,-98.03 111.07,-91.96 114.07,-102.12 119.75,-98.03"/>
</a>
</g>
</g>
<!-- Node4 -->
<g id="Node000004" class="node">
<title>Node4</title>
<g id="a_Node000004"><a xlink:href="type__enums_8h.html" target="_top" xlink:title=" ">
<polygon fill="white" stroke="#666666" points="316.25,-90.25 208.75,-90.25 208.75,-56.75 316.25,-56.75 316.25,-90.25"/>
<text text-anchor="start" x="216.75" y="-76.75" font-family="Helvetica,sans-Serif" font-size="10.00">prismspf/core/type</text>
<text text-anchor="middle" x="262.5" y="-64" font-family="Helvetica,sans-Serif" font-size="10.00">_enums.h</text>
</a>
</g>
</g>
<!-- Node2&#45;&gt;Node4 -->
<g id="edge3_Node000002_Node000004" class="edge">
<title>Node2&#45;&gt;Node4</title>
<g id="a_edge3_Node000002_Node000004"><a xlink:title=" ">
<path fill="none" stroke="#63b8ff" d="M161.78,-125.8C177.58,-117.76 200.5,-106.08 220.5,-95.9"/>
<polygon fill="#63b8ff" stroke="#63b8ff" points="221.96,-99.08 229.28,-91.42 218.78,-92.84 221.96,-99.08"/>
</a>
</g>
</g>
<!-- Node2&#45;&gt;Node5 -->
<g id="edge7_Node000002_Node000005" class="edge">
<title>Node2&#45;&gt;Node5</title>
<g id="a_edge7_Node000002_Node000005"><a xlink:title=" ">
<path fill="none" stroke="#63b8ff" d="M147.6,-125.83C152.04,-116.83 158.26,-103 161.5,-90.25 166.39,-70.99 168.31,-48.36 169.05,-32.29"/>
<polygon fill="#63b8ff" stroke="#63b8ff" points="172.55,-32.63 169.38,-22.52 165.55,-32.39 172.55,-32.63"/>
</a>
</g>
</g>
<!-- Node4&#45;&gt;Node5 -->
<g id="edge4_Node000004_Node000005" class="edge">
<title>Node4&#45;&gt;Node5</title>
<g id="a_edge4_Node000004_Node000005"><a xlink:title=" ">
<path fill="none" stroke="#63b8ff" d="M238.07,-56.44C224.38,-47.45 207.38,-36.27 193.73,-27.3"/>
<polygon fill="#63b8ff" stroke="#63b8ff" points="196.02,-24.62 185.74,-22.05 192.17,-30.47 196.02,-24.62"/>
</a>
</g>
</g>
<!-- Node6 -->
<g id="Node000006" class="node">
<title>Node6</title>
<g id="a_Node000006"><a xlink:title=" ">
<polygon fill="#e0e0e0" stroke="#999999" points="287,-20.75 238,-20.75 238,0 287,0 287,-20.75"/>
<text text-anchor="middle" x="262.5" y="-7.25" font-family="Helvetica,sans-Serif" font-size="10.00">cstdint</text>
</a>
</g>
</g>
<!-- Node4&#45;&gt;Node6 -->
<g id="edge5_Node000004_Node000006" class="edge">
<title>Node4&#45;&gt;Node6</title>
<g id="a_edge5_Node000004_Node000006"><a xlink:title=" ">
<path fill="none" stroke="#63b8ff" d="M262.5,-56.44C262.5,-49.1 262.5,-40.32 262.5,-32.46"/>
<polygon fill="#63b8ff" stroke="#63b8ff" points="266,-32.73 262.5,-22.73 259,-32.73 266,-32.73"/>
</a>
</g>
</g>
<!-- Node7 -->
<g id="Node000007" class="node">
<title>Node7</title>
<g id="a_Node000007"><a xlink:title=" ">
<polygon fill="#e0e0e0" stroke="#999999" points="348.38,-20.75 304.62,-20.75 304.62,0 348.38,0 348.38,-20.75"/>
<text text-anchor="middle" x="326.5" y="-7.25" font-family="Helvetica,sans-Serif" font-size="10.00">string</text>
</a>
</g>
</g>
<!-- Node4&#45;&gt;Node7 -->
<g id="edge6_Node000004_Node000007" class="edge">
<title>Node4&#45;&gt;Node7</title>
<g id="a_edge6_Node000004_Node000007"><a xlink:title=" ">
<path fill="none" stroke="#63b8ff" d="M279.32,-56.44C288.09,-48.06 298.85,-37.78 307.88,-29.16"/>
<polygon fill="#63b8ff" stroke="#63b8ff" points="310.29,-31.7 315.1,-22.26 305.45,-26.64 310.29,-31.7"/>
</a>
</g>
</g>
</g>
</svg>
