<?xml version="1.0" encoding="UTF-8" standalone="no"?>
<!DOCTYPE svg PUBLIC "-//W3C//DTD SVG 1.1//EN"
 "http://www.w3.org/Graphics/SVG/1.1/DTD/svg11.dtd">
<!-- Generated by graphviz version 12.2.1 (20241206.2353)
 -->
<!-- Title: include/prismspf/core/simulation_timer.h Pages: 1 -->
<svg width="1324pt" height="724pt"
 viewBox="0.00 0.00 1324.00 723.75" xmlns="http://www.w3.org/2000/svg" xmlns:xlink="http://www.w3.org/1999/xlink">
<g id="graph0" class="graph" transform="scale(1 1) rotate(0) translate(4 719.75)">
<title>include/prismspf/core/simulation_timer.h</title>
<!-- Node1 -->
<g id="Node000001" class="node">
<title>Node1</title>
<g id="a_Node000001"><a xlink:title=" ">
<polygon fill="#999999" stroke="#666666" points="958.5,-715.75 837.5,-715.75 837.5,-682.25 958.5,-682.25 958.5,-715.75"/>
<text text-anchor="start" x="845.5" y="-702.25" font-family="Helvetica,sans-Serif" font-size="10.00">include/prismspf/core</text>
<text text-anchor="middle" x="898" y="-689.5" font-family="Helvetica,sans-Serif" font-size="10.00">/simulation_timer.h</text>
</a>
</g>
</g>
<!-- Node2 -->
<g id="Node000002" class="node">
<title>Node2</title>
<g id="a_Node000002"><a xlink:href="cell__marker__base_8h.html" target="_top" xlink:title=" ">
<polygon fill="white" stroke="#666666" points="1071.5,-646.25 950.5,-646.25 950.5,-612.75 1071.5,-612.75 1071.5,-646.25"/>
<text text-anchor="start" x="958.5" y="-632.75" font-family="Helvetica,sans-Serif" font-size="10.00">include/prismspf/core</text>
<text text-anchor="middle" x="1011" y="-620" font-family="Helvetica,sans-Serif" font-size="10.00">/cell_marker_base.h</text>
</a>
</g>
</g>
<!-- Node1&#45;&gt;Node2 -->
<g id="edge1_Node000001_Node000002" class="edge">
<title>Node1&#45;&gt;Node2</title>
<g id="a_edge1_Node000001_Node000002"><a xlink:title=" ">
<path fill="none" stroke="#63b8ff" d="M934.72,-676.07C950.82,-666.45 969.38,-655.36 984.15,-646.54"/>
<polygon fill="#63b8ff" stroke="#63b8ff" points="933.16,-672.92 926.37,-681.06 936.75,-678.93 933.16,-672.92"/>
</a>
</g>
</g>
<!-- Node4 -->
<g id="Node000004" class="node">
<title>Node4</title>
<g id="a_Node000004"><a xlink:href="problem_8h.html" target="_top" xlink:title=" ">
<polygon fill="white" stroke="#666666" points="1014.5,-229.25 893.5,-229.25 893.5,-195.75 1014.5,-195.75 1014.5,-229.25"/>
<text text-anchor="start" x="901.5" y="-215.75" font-family="Helvetica,sans-Serif" font-size="10.00">include/prismspf/core</text>
<text text-anchor="middle" x="954" y="-203" font-family="Helvetica,sans-Serif" font-size="10.00">/problem.h</text>
</a>
</g>
</g>
<!-- Node1&#45;&gt;Node4 -->
<g id="edge43_Node000001_Node000004" class="edge">
<title>Node1&#45;&gt;Node4</title>
<g id="a_edge43_Node000001_Node000004"><a xlink:title=" ">
<path fill="none" stroke="#63b8ff" d="M969.99,-687.11C1080.17,-668.4 1278,-625.77 1278,-561 1278,-561 1278,-561 1278,-350.5 1278,-237.52 1108.8,-216.28 1014.94,-213.2"/>
<polygon fill="#63b8ff" stroke="#63b8ff" points="969.41,-683.66 960.13,-688.76 970.57,-690.57 969.41,-683.66"/>
</a>
</g>
</g>
<!-- Node5 -->
<g id="Node000005" class="node">
<title>Node5</title>
<g id="a_Node000005"><a xlink:href="problem_8cc.html" target="_top" xlink:title=" ">
<polygon fill="white" stroke="#666666" points="1160.62,-20.75 1049.38,-20.75 1049.38,0 1160.62,0 1160.62,-20.75"/>
<text text-anchor="middle" x="1105" y="-7.25" font-family="Helvetica,sans-Serif" font-size="10.00">src/core/problem.cc</text>
</a>
</g>
</g>
<!-- Node1&#45;&gt;Node5 -->
<g id="edge62_Node000001_Node000005" class="edge">
<title>Node1&#45;&gt;Node5</title>
<g id="a_edge62_Node000001_Node000005"><a xlink:title=" ">
<path fill="none" stroke="#63b8ff" d="M970.15,-695.94C1034.68,-691.81 1130.57,-679.91 1207,-646.25 1263.29,-621.46 1316,-622.5 1316,-561 1316,-561 1316,-561 1316,-142 1316,-68.97 1223.5,-35.39 1160.99,-21.02"/>
<polygon fill="#63b8ff" stroke="#63b8ff" points="970.17,-692.43 960.39,-696.52 970.58,-699.42 970.17,-692.43"/>
</a>
</g>
</g>
<!-- Node7 -->
<g id="Node000007" class="node">
<title>Node7</title>
<g id="a_Node000007"><a xlink:href="pde__operator__base_8h.html" target="_top" xlink:title=" ">
<polygon fill="white" stroke="#666666" points="385.5,-507.25 264.5,-507.25 264.5,-473.75 385.5,-473.75 385.5,-507.25"/>
<text text-anchor="start" x="272.5" y="-493.75" font-family="Helvetica,sans-Serif" font-size="10.00">include/prismspf/core</text>
<text text-anchor="middle" x="325" y="-481" font-family="Helvetica,sans-Serif" font-size="10.00">/pde_operator_base.h</text>
</a>
</g>
</g>
<!-- Node1&#45;&gt;Node7 -->
<g id="edge7_Node000001_Node000007" class="edge">
<title>Node1&#45;&gt;Node7</title>
<g id="a_edge7_Node000001_Node000007"><a xlink:title=" ">
<path fill="none" stroke="#63b8ff" d="M825.83,-694.73C723.67,-687.09 534.38,-661.63 400,-576.75 371.5,-558.75 347.61,-526.76 334.89,-507.5"/>
<polygon fill="#63b8ff" stroke="#63b8ff" points="825.52,-698.21 835.74,-695.43 826.01,-691.23 825.52,-698.21"/>
</a>
</g>
</g>
<!-- Node8 -->
<g id="Node000008" class="node">
<title>Node8</title>
<g id="a_Node000008"><a xlink:href="mf__operator_8h.html" target="_top" xlink:title=" ">
<polygon fill="white" stroke="#666666" points="405.62,-298.75 270.38,-298.75 270.38,-265.25 405.62,-265.25 405.62,-298.75"/>
<text text-anchor="start" x="278.38" y="-285.25" font-family="Helvetica,sans-Serif" font-size="10.00">include/prismspf/solvers</text>
<text text-anchor="middle" x="338" y="-272.5" font-family="Helvetica,sans-Serif" font-size="10.00">/mf_operator.h</text>
</a>
</g>
</g>
<!-- Node1&#45;&gt;Node8 -->
<g id="edge46_Node000001_Node000008" class="edge">
<title>Node1&#45;&gt;Node8</title>
<g id="a_edge46_Node000001_Node000008"><a xlink:title=" ">
<path fill="none" stroke="#63b8ff" d="M825.98,-694.58C612.85,-683.49 0,-644.38 0,-561 0,-561 0,-561 0,-420 0,-362.3 171.31,-317.32 270.01,-296.19"/>
<polygon fill="#63b8ff" stroke="#63b8ff" points="825.66,-698.06 835.82,-695.08 826.02,-691.07 825.66,-698.06"/>
</a>
</g>
</g>
<!-- Node16 -->
<g id="Node000016" class="node">
<title>Node16</title>
<g id="a_Node000016"><a xlink:href="solve__context_8h.html" target="_top" xlink:title=" ">
<polygon fill="white" stroke="#666666" points="971.62,-437.75 836.38,-437.75 836.38,-404.25 971.62,-404.25 971.62,-437.75"/>
<text text-anchor="start" x="844.38" y="-424.25" font-family="Helvetica,sans-Serif" font-size="10.00">include/prismspf/solvers</text>
<text text-anchor="middle" x="904" y="-411.5" font-family="Helvetica,sans-Serif" font-size="10.00">/solve_context.h</text>
</a>
</g>
</g>
<!-- Node1&#45;&gt;Node16 -->
<g id="edge47_Node000001_Node000016" class="edge">
<title>Node1&#45;&gt;Node16</title>
<g id="a_edge47_Node000001_Node000016"><a xlink:title=" ">
<path fill="none" stroke="#63b8ff" d="M898.59,-670.66C899.83,-613.64 902.66,-483.58 903.65,-438.08"/>
<polygon fill="#63b8ff" stroke="#63b8ff" points="895.1,-670.38 898.38,-680.45 902.1,-670.53 895.1,-670.38"/>
</a>
</g>
</g>
<!-- Node17 -->
<g id="Node000017" class="node">
<title>Node17</title>
<g id="a_Node000017"><a xlink:href="solution__output_8h.html" target="_top" xlink:title=" ">
<polygon fill="white" stroke="#666666" points="1193.5,-368.25 1072.5,-368.25 1072.5,-334.75 1193.5,-334.75 1193.5,-368.25"/>
<text text-anchor="start" x="1080.5" y="-354.75" font-family="Helvetica,sans-Serif" font-size="10.00">include/prismspf/core</text>
<text text-anchor="middle" x="1133" y="-342" font-family="Helvetica,sans-Serif" font-size="10.00">/solution_output.h</text>
</a>
</g>
</g>
<!-- Node1&#45;&gt;Node17 -->
<g id="edge44_Node000001_Node000017" class="edge">
<title>Node1&#45;&gt;Node17</title>
<g id="a_edge44_Node000001_Node000017"><a xlink:title=" ">
<path fill="none" stroke="#63b8ff" d="M970.16,-691.31C1048.32,-679.64 1162,-647.74 1162,-561 1162,-561 1162,-561 1162,-489.5 1162,-445.01 1147.18,-394.12 1138.73,-368.71"/>
<polygon fill="#63b8ff" stroke="#63b8ff" points="969.81,-687.83 960.4,-692.68 970.79,-694.76 969.81,-687.83"/>
</a>
</g>
</g>
<!-- Node19 -->
<g id="Node000019" class="node">
<title>Node19</title>
<g id="a_Node000019"><a xlink:href="nucleation__manager_8h.html" target="_top" xlink:title=" ">
<polygon fill="white" stroke="#666666" points="785.5,-368.25 634.5,-368.25 634.5,-334.75 785.5,-334.75 785.5,-368.25"/>
<text text-anchor="start" x="642.5" y="-354.75" font-family="Helvetica,sans-Serif" font-size="10.00">include/prismspf/nucleation</text>
<text text-anchor="middle" x="710" y="-342" font-family="Helvetica,sans-Serif" font-size="10.00">/nucleation_manager.h</text>
</a>
</g>
</g>
<!-- Node1&#45;&gt;Node19 -->
<g id="edge45_Node000001_Node000019" class="edge">
<title>Node1&#45;&gt;Node19</title>
<g id="a_edge45_Node000001_Node000019"><a xlink:title=" ">
<path fill="none" stroke="#63b8ff" d="M893.46,-670.7C883.09,-615.3 853.27,-487.87 787,-404.25 775.3,-389.48 758.21,-377.4 743.1,-368.64"/>
<polygon fill="#63b8ff" stroke="#63b8ff" points="890,-671.27 895.21,-680.49 896.89,-670.03 890,-671.27"/>
</a>
</g>
</g>
<!-- Node25 -->
<g id="Node000025" class="node">
<title>Node25</title>
<g id="a_Node000025"><a xlink:href="nucleation__parameters_8h.html" target="_top" xlink:title=" ">
<polygon fill="white" stroke="#666666" points="828.88,-646.25 653.12,-646.25 653.12,-612.75 828.88,-612.75 828.88,-646.25"/>
<text text-anchor="start" x="661.12" y="-632.75" font-family="Helvetica,sans-Serif" font-size="10.00">include/prismspf/user</text>
<text text-anchor="middle" x="741" y="-620" font-family="Helvetica,sans-Serif" font-size="10.00">_inputs/nucleation_parameters.h</text>
</a>
</g>
</g>
<!-- Node1&#45;&gt;Node25 -->
<g id="edge48_Node000001_Node000025" class="edge">
<title>Node1&#45;&gt;Node25</title>
<g id="a_edge48_Node000001_Node000025"><a xlink:title=" ">
<path fill="none" stroke="#63b8ff" d="M849.85,-677.3C826.94,-667.45 799.94,-655.84 778.57,-646.65"/>
<polygon fill="#63b8ff" stroke="#63b8ff" points="848.43,-680.5 859,-681.23 851.2,-674.07 848.43,-680.5"/>
</a>
</g>
</g>
<!-- Node3 -->
<g id="Node000003" class="node">
<title>Node3</title>
<g id="a_Node000003"><a xlink:href="refinement__manager_8h.html" target="_top" xlink:title=" ">
<polygon fill="white" stroke="#666666" points="971.62,-298.75 842.38,-298.75 842.38,-265.25 971.62,-265.25 971.62,-298.75"/>
<text text-anchor="start" x="850.38" y="-285.25" font-family="Helvetica,sans-Serif" font-size="10.00">include/prismspf/core</text>
<text text-anchor="middle" x="907" y="-272.5" font-family="Helvetica,sans-Serif" font-size="10.00">/refinement_manager.h</text>
</a>
</g>
</g>
<!-- Node2&#45;&gt;Node3 -->
<g id="edge2_Node000002_Node000003" class="edge">
<title>Node2&#45;&gt;Node3</title>
<g id="a_edge2_Node000002_Node000003"><a xlink:title=" ">
<path fill="none" stroke="#63b8ff" d="M1072.21,-607.08C1085.25,-599.56 1097.37,-589.66 1105,-576.75 1112.58,-563.93 1109.76,-557.36 1105,-543.25 1068.63,-435.39 967.78,-336.84 925.76,-299.18"/>
<polygon fill="#63b8ff" stroke="#63b8ff" points="1070.69,-603.93 1063.46,-611.67 1073.94,-610.12 1070.69,-603.93"/>
</a>
</g>
</g>
<!-- Node6 -->
<g id="Node000006" class="node">
<title>Node6</title>
<g id="a_Node000006"><a xlink:href="nucleus__refinement__function_8h.html" target="_top" xlink:title=" ">
<polygon fill="white" stroke="#666666" points="1095.5,-576.75 926.5,-576.75 926.5,-543.25 1095.5,-543.25 1095.5,-576.75"/>
<text text-anchor="start" x="934.5" y="-563.25" font-family="Helvetica,sans-Serif" font-size="10.00">include/prismspf/nucleation</text>
<text text-anchor="middle" x="1011" y="-550.5" font-family="Helvetica,sans-Serif" font-size="10.00">/nucleus_refinement_function.h</text>
</a>
</g>
</g>
<!-- Node2&#45;&gt;Node6 -->
<g id="edge5_Node000002_Node000006" class="edge">
<title>Node2&#45;&gt;Node6</title>
<g id="a_edge5_Node000002_Node000006"><a xlink:title=" ">
<path fill="none" stroke="#63b8ff" d="M1011,-601.06C1011,-592.84 1011,-584.09 1011,-576.88"/>
<polygon fill="#63b8ff" stroke="#63b8ff" points="1007.5,-600.99 1011,-610.99 1014.5,-600.99 1007.5,-600.99"/>
</a>
</g>
</g>
<!-- Node3&#45;&gt;Node4 -->
<g id="edge3_Node000003_Node000004" class="edge">
<title>Node3&#45;&gt;Node4</title>
<g id="a_edge3_Node000003_Node000004"><a xlink:title=" ">
<path fill="none" stroke="#63b8ff" d="M924.71,-255.56C930.83,-246.77 937.51,-237.18 942.94,-229.38"/>
<polygon fill="#63b8ff" stroke="#63b8ff" points="921.85,-253.55 919,-263.76 927.59,-257.55 921.85,-253.55"/>
</a>
</g>
</g>
<!-- Node4&#45;&gt;Node5 -->
<g id="edge4_Node000004_Node000005" class="edge">
<title>Node4&#45;&gt;Node5</title>
<g id="a_edge4_Node000004_Node000005"><a xlink:title=" ">
<path fill="none" stroke="#63b8ff" d="M972.91,-186.44C1006.54,-141.86 1075.36,-50.66 1097.77,-20.96"/>
<polygon fill="#63b8ff" stroke="#63b8ff" points="970.24,-184.16 967.01,-194.25 975.83,-188.38 970.24,-184.16"/>
</a>
</g>
</g>
<!-- Node6&#45;&gt;Node4 -->
<g id="edge6_Node000006_Node000004" class="edge">
<title>Node6&#45;&gt;Node4</title>
<g id="a_edge6_Node000006_Node000004"><a xlink:title=" ">
<path fill="none" stroke="#63b8ff" d="M1007.54,-531.9C1004.31,-504.3 1000,-460.25 1000,-422 1000,-422 1000,-422 1000,-350.5 1000,-311.68 994.31,-301.71 981,-265.25 976.41,-252.68 969.38,-239.32 963.64,-229.32"/>
<polygon fill="#63b8ff" stroke="#63b8ff" points="1004.02,-531.99 1008.7,-541.5 1010.97,-531.15 1004.02,-531.99"/>
</a>
</g>
</g>
<!-- Node7&#45;&gt;Node8 -->
<g id="edge8_Node000007_Node000008" class="edge">
<title>Node7&#45;&gt;Node8</title>
<g id="a_edge8_Node000007_Node000008"><a xlink:title=" ">
<path fill="none" stroke="#63b8ff" d="M326.74,-461.84C329.5,-418.09 334.77,-334.27 336.98,-299.13"/>
<polygon fill="#63b8ff" stroke="#63b8ff" points="323.25,-461.59 326.12,-471.79 330.24,-462.03 323.25,-461.59"/>
</a>
</g>
</g>
<!-- Node7&#45;&gt;Node16 -->
<g id="edge21_Node000007_Node000016" class="edge">
<title>Node7&#45;&gt;Node16</title>
<g id="a_edge21_Node000007_Node000016"><a xlink:title=" ">
<path fill="none" stroke="#63b8ff" d="M397.04,-481.63C507.44,-469.53 713.41,-446.82 787,-437.75 802.87,-435.79 819.93,-433.57 835.98,-431.42"/>
<polygon fill="#63b8ff" stroke="#63b8ff" points="396.76,-478.14 387.2,-482.71 397.52,-485.1 396.76,-478.14"/>
</a>
</g>
</g>
<!-- Node20 -->
<g id="Node000020" class="node">
<title>Node20</title>
<g id="a_Node000020"><a xlink:href="solver__base_8h.html" target="_top" xlink:title=" ">
<polygon fill="white" stroke="#666666" points="577.62,-368.25 442.38,-368.25 442.38,-334.75 577.62,-334.75 577.62,-368.25"/>
<text text-anchor="start" x="450.38" y="-354.75" font-family="Helvetica,sans-Serif" font-size="10.00">include/prismspf/solvers</text>
<text text-anchor="middle" x="510" y="-342" font-family="Helvetica,sans-Serif" font-size="10.00">/solver_base.h</text>
</a>
</g>
</g>
<!-- Node7&#45;&gt;Node20 -->
<g id="edge40_Node000007_Node000020" class="edge">
<title>Node7&#45;&gt;Node20</title>
<g id="a_edge40_Node000007_Node000020"><a xlink:title=" ">
<path fill="none" stroke="#63b8ff" d="M342.94,-464C356.88,-445.6 377.56,-421.12 400,-404.25 419.66,-389.48 444.2,-377.43 465.12,-368.69"/>
<polygon fill="#63b8ff" stroke="#63b8ff" points="340.13,-461.92 337.01,-472.04 345.76,-466.07 340.13,-461.92"/>
</a>
</g>
</g>
<!-- Node23 -->
<g id="Node000023" class="node">
<title>Node23</title>
<g id="a_Node000023"><a xlink:href="dirichlet_8cc.html" target="_top" xlink:title=" ">
<polygon fill="white" stroke="#666666" points="138.25,-431.38 27.75,-431.38 27.75,-410.62 138.25,-410.62 138.25,-431.38"/>
<text text-anchor="middle" x="83" y="-417.88" font-family="Helvetica,sans-Serif" font-size="10.00">src/core/dirichlet.cc</text>
</a>
</g>
</g>
<!-- Node7&#45;&gt;Node23 -->
<g id="edge41_Node000007_Node000023" class="edge">
<title>Node7&#45;&gt;Node23</title>
<g id="a_edge41_Node000007_Node000023"><a xlink:title=" ">
<path fill="none" stroke="#63b8ff" d="M256.18,-470.3C211.24,-457.77 154.42,-441.92 118.38,-431.87"/>
<polygon fill="#63b8ff" stroke="#63b8ff" points="255,-473.61 265.58,-472.93 256.89,-466.87 255,-473.61"/>
</a>
</g>
</g>
<!-- Node24 -->
<g id="Node000024" class="node">
<title>Node24</title>
<g id="a_Node000024"><a xlink:href="initial__conditions_8cc.html" target="_top" xlink:title=" ">
<polygon fill="white" stroke="#666666" points="310,-431.38 156,-431.38 156,-410.62 310,-410.62 310,-431.38"/>
<text text-anchor="middle" x="233" y="-417.88" font-family="Helvetica,sans-Serif" font-size="10.00">src/core/initial_conditions.cc</text>
</a>
</g>
</g>
<!-- Node7&#45;&gt;Node24 -->
<g id="edge42_Node000007_Node000024" class="edge">
<title>Node7&#45;&gt;Node24</title>
<g id="a_edge42_Node000007_Node000024"><a xlink:title=" ">
<path fill="none" stroke="#63b8ff" d="M294.05,-466.79C277.84,-454.9 258.83,-440.95 246.39,-431.82"/>
<polygon fill="#63b8ff" stroke="#63b8ff" points="291.84,-469.51 301.98,-472.61 295.98,-463.87 291.84,-469.51"/>
</a>
</g>
</g>
<!-- Node9 -->
<g id="Node000009" class="node">
<title>Node9</title>
<g id="a_Node000009"><a xlink:href="explicit__solver_8h.html" target="_top" xlink:title=" ">
<polygon fill="white" stroke="#666666" points="635.62,-229.25 500.38,-229.25 500.38,-195.75 635.62,-195.75 635.62,-229.25"/>
<text text-anchor="start" x="508.38" y="-215.75" font-family="Helvetica,sans-Serif" font-size="10.00">include/prismspf/solvers</text>
<text text-anchor="middle" x="568" y="-203" font-family="Helvetica,sans-Serif" font-size="10.00">/explicit_solver.h</text>
</a>
</g>
</g>
<!-- Node8&#45;&gt;Node9 -->
<g id="edge9_Node000008_Node000009" class="edge">
<title>Node8&#45;&gt;Node9</title>
<g id="a_edge9_Node000008_Node000009"><a xlink:title=" ">
<path fill="none" stroke="#63b8ff" d="M404.02,-261.63C438.51,-251.5 480.23,-239.26 512.96,-229.65"/>
<polygon fill="#63b8ff" stroke="#63b8ff" points="403.15,-258.23 394.54,-264.41 405.12,-264.95 403.15,-258.23"/>
</a>
</g>
</g>
<!-- Node12 -->
<g id="Node000012" class="node">
<title>Node12</title>
<g id="a_Node000012"><a xlink:href="linear__solver_8h.html" target="_top" xlink:title=" ">
<polygon fill="white" stroke="#666666" points="405.62,-229.25 270.38,-229.25 270.38,-195.75 405.62,-195.75 405.62,-229.25"/>
<text text-anchor="start" x="278.38" y="-215.75" font-family="Helvetica,sans-Serif" font-size="10.00">include/prismspf/solvers</text>
<text text-anchor="middle" x="338" y="-203" font-family="Helvetica,sans-Serif" font-size="10.00">/linear_solver.h</text>
</a>
</g>
</g>
<!-- Node8&#45;&gt;Node12 -->
<g id="edge13_Node000008_Node000012" class="edge">
<title>Node8&#45;&gt;Node12</title>
<g id="a_edge13_Node000008_Node000012"><a xlink:title=" ">
<path fill="none" stroke="#63b8ff" d="M338,-253.56C338,-245.34 338,-236.59 338,-229.38"/>
<polygon fill="#63b8ff" stroke="#63b8ff" points="334.5,-253.49 338,-263.49 341.5,-253.49 334.5,-253.49"/>
</a>
</g>
</g>
<!-- Node13 -->
<g id="Node000013" class="node">
<title>Node13</title>
<g id="a_Node000013"><a xlink:href="mg__solver_8h.html" target="_top" xlink:title=" ">
<polygon fill="white" stroke="#666666" points="313.62,-159.75 178.38,-159.75 178.38,-126.25 313.62,-126.25 313.62,-159.75"/>
<text text-anchor="start" x="186.38" y="-146.25" font-family="Helvetica,sans-Serif" font-size="10.00">include/prismspf/solvers</text>
<text text-anchor="middle" x="246" y="-133.5" font-family="Helvetica,sans-Serif" font-size="10.00">/mg_solver.h</text>
</a>
</g>
</g>
<!-- Node8&#45;&gt;Node13 -->
<g id="edge18_Node000008_Node000013" class="edge">
<title>Node8&#45;&gt;Node13</title>
<g id="a_edge18_Node000008_Node000013"><a xlink:title=" ">
<path fill="none" stroke="#63b8ff" d="M292.49,-259.05C280.55,-251.22 268.83,-241.29 261,-229.25 247.32,-208.21 245.1,-178.34 245.22,-160.12"/>
<polygon fill="#63b8ff" stroke="#63b8ff" points="290.4,-261.87 300.76,-264.09 294.04,-255.9 290.4,-261.87"/>
</a>
</g>
</g>
<!-- Node14 -->
<g id="Node000014" class="node">
<title>Node14</title>
<g id="a_Node000014"><a xlink:href="newton__solver_8h.html" target="_top" xlink:title=" ">
<polygon fill="white" stroke="#666666" points="509.62,-159.75 374.38,-159.75 374.38,-126.25 509.62,-126.25 509.62,-159.75"/>
<text text-anchor="start" x="382.38" y="-146.25" font-family="Helvetica,sans-Serif" font-size="10.00">include/prismspf/solvers</text>
<text text-anchor="middle" x="442" y="-133.5" font-family="Helvetica,sans-Serif" font-size="10.00">/newton_solver.h</text>
</a>
</g>
</g>
<!-- Node8&#45;&gt;Node14 -->
<g id="edge19_Node000008_Node000014" class="edge">
<title>Node8&#45;&gt;Node14</title>
<g id="a_edge19_Node000008_Node000014"><a xlink:title=" ">
<path fill="none" stroke="#63b8ff" d="M381.56,-258.98C393.8,-251.03 406.16,-241.05 415,-229.25 430.54,-208.5 437.3,-178.54 440.11,-160.22"/>
<polygon fill="#63b8ff" stroke="#63b8ff" points="379.85,-255.92 373.14,-264.12 383.5,-261.9 379.85,-255.92"/>
</a>
</g>
</g>
<!-- Node15 -->
<g id="Node000015" class="node">
<title>Node15</title>
<g id="a_Node000015"><a xlink:href="mf__operator_8cc.html" target="_top" xlink:title=" ">
<polygon fill="white" stroke="#666666" points="214.12,-222.88 69.88,-222.88 69.88,-202.12 214.12,-202.12 214.12,-222.88"/>
<text text-anchor="middle" x="142" y="-209.38" font-family="Helvetica,sans-Serif" font-size="10.00">src/solvers/mf_operator.cc</text>
</a>
</g>
</g>
<!-- Node8&#45;&gt;Node15 -->
<g id="edge20_Node000008_Node000015" class="edge">
<title>Node8&#45;&gt;Node15</title>
<g id="a_edge20_Node000008_Node000015"><a xlink:title=" ">
<path fill="none" stroke="#63b8ff" d="M280.17,-261.09C244.12,-248.67 199.29,-233.23 170.66,-223.37"/>
<polygon fill="#63b8ff" stroke="#63b8ff" points="279.03,-264.39 289.62,-264.34 281.31,-257.77 279.03,-264.39"/>
</a>
</g>
</g>
<!-- Node10 -->
<g id="Node000010" class="node">
<title>Node10</title>
<g id="a_Node000010"><a xlink:href="solvers_8h.html" target="_top" xlink:title=" ">
<polygon fill="white" stroke="#666666" points="613.62,-90.25 478.38,-90.25 478.38,-56.75 613.62,-56.75 613.62,-90.25"/>
<text text-anchor="start" x="486.38" y="-76.75" font-family="Helvetica,sans-Serif" font-size="10.00">include/prismspf/solvers</text>
<text text-anchor="middle" x="546" y="-64" font-family="Helvetica,sans-Serif" font-size="10.00">/solvers.h</text>
</a>
</g>
</g>
<!-- Node9&#45;&gt;Node10 -->
<g id="edge10_Node000009_Node000010" class="edge">
<title>Node9&#45;&gt;Node10</title>
<g id="a_edge10_Node000009_Node000010"><a xlink:title=" ">
<path fill="none" stroke="#63b8ff" d="M563.66,-184.5C559.16,-156.42 552.25,-113.42 548.55,-90.38"/>
<polygon fill="#63b8ff" stroke="#63b8ff" points="560.15,-184.7 565.19,-194.02 567.06,-183.59 560.15,-184.7"/>
</a>
</g>
</g>
<!-- Node10&#45;&gt;Node5 -->
<g id="edge11_Node000010_Node000005" class="edge">
<title>Node10&#45;&gt;Node5</title>
<g id="a_edge11_Node000010_Node000005"><a xlink:title=" ">
<path fill="none" stroke="#63b8ff" d="M625.12,-63.85C739.8,-51.31 949.37,-28.39 1049.23,-17.47"/>
<polygon fill="#63b8ff" stroke="#63b8ff" points="625.05,-60.34 615.49,-64.9 625.81,-67.29 625.05,-60.34"/>
</a>
</g>
</g>
<!-- Node11 -->
<g id="Node000011" class="node">
<title>Node11</title>
<g id="a_Node000011"><a xlink:href="solvers_8cc.html" target="_top" xlink:title=" ">
<polygon fill="white" stroke="#666666" points="606.12,-20.75 485.88,-20.75 485.88,0 606.12,0 606.12,-20.75"/>
<text text-anchor="middle" x="546" y="-7.25" font-family="Helvetica,sans-Serif" font-size="10.00">src/solvers/solvers.cc</text>
</a>
</g>
</g>
<!-- Node10&#45;&gt;Node11 -->
<g id="edge12_Node000010_Node000011" class="edge">
<title>Node10&#45;&gt;Node11</title>
<g id="a_edge12_Node000010_Node000011"><a xlink:title=" ">
<path fill="none" stroke="#63b8ff" d="M546,-44.94C546,-36.46 546,-27.67 546,-21.22"/>
<polygon fill="#63b8ff" stroke="#63b8ff" points="542.5,-44.93 546,-54.93 549.5,-44.93 542.5,-44.93"/>
</a>
</g>
</g>
<!-- Node12&#45;&gt;Node10 -->
<g id="edge17_Node000012_Node000010" class="edge">
<title>Node12&#45;&gt;Node10</title>
<g id="a_edge17_Node000012_Node000010"><a xlink:title=" ">
<path fill="none" stroke="#63b8ff" d="M340.04,-183.96C342.85,-165.29 349.48,-141.34 365,-126.25 395,-97.09 440.25,-84.15 478,-78.5"/>
<polygon fill="#63b8ff" stroke="#63b8ff" points="336.57,-183.48 338.87,-193.83 343.52,-184.31 336.57,-183.48"/>
</a>
</g>
</g>
<!-- Node12&#45;&gt;Node13 -->
<g id="edge14_Node000012_Node000013" class="edge">
<title>Node12&#45;&gt;Node13</title>
<g id="a_edge14_Node000012_Node000013"><a xlink:title=" ">
<path fill="none" stroke="#63b8ff" d="M307.22,-188.91C294.36,-179.48 279.71,-168.73 267.97,-160.12"/>
<polygon fill="#63b8ff" stroke="#63b8ff" points="304.84,-191.51 314.98,-194.61 308.98,-185.87 304.84,-191.51"/>
</a>
</g>
</g>
<!-- Node12&#45;&gt;Node14 -->
<g id="edge15_Node000012_Node000014" class="edge">
<title>Node12&#45;&gt;Node14</title>
<g id="a_edge15_Node000012_Node000014"><a xlink:title=" ">
<path fill="none" stroke="#63b8ff" d="M372.21,-189.29C386.94,-179.74 403.82,-168.78 417.29,-160.04"/>
<polygon fill="#63b8ff" stroke="#63b8ff" points="370.66,-186.13 364.18,-194.51 374.47,-192 370.66,-186.13"/>
</a>
</g>
</g>
<!-- Node14&#45;&gt;Node10 -->
<g id="edge16_Node000014_Node000010" class="edge">
<title>Node14&#45;&gt;Node10</title>
<g id="a_edge16_Node000014_Node000010"><a xlink:title=" ">
<path fill="none" stroke="#63b8ff" d="M476.21,-119.79C490.94,-110.24 507.82,-99.28 521.29,-90.54"/>
<polygon fill="#63b8ff" stroke="#63b8ff" points="474.66,-116.63 468.18,-125.01 478.47,-122.5 474.66,-116.63"/>
</a>
</g>
</g>
<!-- Node16&#45;&gt;Node3 -->
<g id="edge23_Node000016_Node000003" class="edge">
<title>Node16&#45;&gt;Node3</title>
<g id="a_edge23_Node000016_Node000003"><a xlink:title=" ">
<path fill="none" stroke="#63b8ff" d="M904.6,-392.62C905.21,-364.54 906.15,-321.82 906.65,-298.88"/>
<polygon fill="#63b8ff" stroke="#63b8ff" points="901.1,-392.43 904.38,-402.5 908.1,-392.58 901.1,-392.43"/>
</a>
</g>
</g>
<!-- Node16&#45;&gt;Node4 -->
<g id="edge22_Node000016_Node000004" class="edge">
<title>Node16&#45;&gt;Node4</title>
<g id="a_edge22_Node000016_Node000004"><a xlink:title=" ">
<path fill="none" stroke="#63b8ff" d="M878.31,-395.98C847.86,-364.51 804.6,-308.28 833,-265.25 846.59,-244.66 870.25,-232.23 893.06,-224.74"/>
<polygon fill="#63b8ff" stroke="#63b8ff" points="875.5,-398.11 885.04,-402.72 880.45,-393.17 875.5,-398.11"/>
</a>
</g>
</g>
<!-- Node16&#45;&gt;Node17 -->
<g id="edge24_Node000016_Node000017" class="edge">
<title>Node16&#45;&gt;Node17</title>
<g id="a_edge24_Node000016_Node000017"><a xlink:title=" ">
<path fill="none" stroke="#63b8ff" d="M969.73,-400.63C1004.07,-390.5 1045.61,-378.26 1078.2,-368.65"/>
<polygon fill="#63b8ff" stroke="#63b8ff" points="968.91,-397.22 960.3,-403.4 970.88,-403.93 968.91,-397.22"/>
</a>
</g>
</g>
<!-- Node16&#45;&gt;Node19 -->
<g id="edge28_Node000016_Node000019" class="edge">
<title>Node16&#45;&gt;Node19</title>
<g id="a_edge28_Node000016_Node000019"><a xlink:title=" ">
<path fill="none" stroke="#63b8ff" d="M846.8,-400.1C818.01,-390.08 783.55,-378.09 756.42,-368.65"/>
<polygon fill="#63b8ff" stroke="#63b8ff" points="845.51,-403.35 856.1,-403.33 847.81,-396.74 845.51,-403.35"/>
</a>
</g>
</g>
<!-- Node16&#45;&gt;Node20 -->
<g id="edge30_Node000016_Node000020" class="edge">
<title>Node16&#45;&gt;Node20</title>
<g id="a_edge30_Node000016_Node000020"><a xlink:title=" ">
<path fill="none" stroke="#63b8ff" d="M824.95,-406.46C752.54,-394.05 646.48,-375.88 577.84,-364.12"/>
<polygon fill="#63b8ff" stroke="#63b8ff" points="824.33,-409.9 834.78,-408.14 825.51,-403 824.33,-409.9"/>
</a>
</g>
</g>
<!-- Node17&#45;&gt;Node5 -->
<g id="edge26_Node000017_Node000005" class="edge">
<title>Node17&#45;&gt;Node5</title>
<g id="a_edge26_Node000017_Node000005"><a xlink:title=" ">
<path fill="none" stroke="#63b8ff" d="M1161.55,-326.47C1169.56,-318.41 1177.55,-308.87 1183,-298.75 1201.4,-264.57 1202,-252.32 1202,-213.5 1202,-213.5 1202,-213.5 1202,-142 1202,-87.2 1146.29,-40.44 1119.31,-21.01"/>
<polygon fill="#63b8ff" stroke="#63b8ff" points="1159.25,-323.82 1154.41,-333.25 1164.07,-328.9 1159.25,-323.82"/>
</a>
</g>
</g>
<!-- Node17&#45;&gt;Node17 -->
<g id="edge25_Node000017_Node000017" class="edge">
<title>Node17&#45;&gt;Node17</title>
<g id="a_edge25_Node000017_Node000017"><a xlink:title=" ">
<path fill="none" stroke="#63b8ff" d="M1204.72,-360.45C1208.96,-358.31 1211.5,-355.33 1211.5,-351.5 1211.5,-345.05 1204.29,-341 1193.89,-339.33"/>
<polygon fill="#63b8ff" stroke="#63b8ff" points="1203.93,-357.04 1195.34,-363.23 1205.92,-363.75 1203.93,-357.04"/>
</a>
</g>
</g>
<!-- Node18 -->
<g id="Node000018" class="node">
<title>Node18</title>
<g id="a_Node000018"><a xlink:href="solution__output_8cc.html" target="_top" xlink:title=" ">
<polygon fill="white" stroke="#666666" points="1174.25,-292.38 1027.75,-292.38 1027.75,-271.62 1174.25,-271.62 1174.25,-292.38"/>
<text text-anchor="middle" x="1101" y="-278.88" font-family="Helvetica,sans-Serif" font-size="10.00">src/core/solution_output.cc</text>
</a>
</g>
</g>
<!-- Node17&#45;&gt;Node18 -->
<g id="edge27_Node000017_Node000018" class="edge">
<title>Node17&#45;&gt;Node18</title>
<g id="a_edge27_Node000017_Node000018"><a xlink:title=" ">
<path fill="none" stroke="#63b8ff" d="M1120.63,-324.41C1115.38,-313.34 1109.58,-301.1 1105.66,-292.82"/>
<polygon fill="#63b8ff" stroke="#63b8ff" points="1117.32,-325.6 1124.77,-333.14 1123.65,-322.6 1117.32,-325.6"/>
</a>
</g>
</g>
<!-- Node19&#45;&gt;Node4 -->
<g id="edge29_Node000019_Node000004" class="edge">
<title>Node19&#45;&gt;Node4</title>
<g id="a_edge29_Node000019_Node000004"><a xlink:title=" ">
<path fill="none" stroke="#63b8ff" d="M730.39,-326.07C747.32,-307.15 772.93,-281.52 800,-265.25 828.65,-248.03 863.77,-235.66 893.24,-227.35"/>
<polygon fill="#63b8ff" stroke="#63b8ff" points="727.98,-323.51 724.03,-333.34 733.24,-328.12 727.98,-323.51"/>
</a>
</g>
</g>
<!-- Node20&#45;&gt;Node3 -->
<g id="edge31_Node000020_Node000003" class="edge">
<title>Node20&#45;&gt;Node3</title>
<g id="a_edge31_Node000020_Node000003"><a xlink:title=" ">
<path fill="none" stroke="#63b8ff" d="M588.93,-337.08C663.14,-324.46 772.87,-305.8 842.12,-294.03"/>
<polygon fill="#63b8ff" stroke="#63b8ff" points="588.56,-333.59 579.29,-338.72 589.73,-340.49 588.56,-333.59"/>
</a>
</g>
</g>
<!-- Node20&#45;&gt;Node5 -->
<g id="edge38_Node000020_Node000005" class="edge">
<title>Node20&#45;&gt;Node5</title>
<g id="a_edge38_Node000020_Node000005"><a xlink:title=" ">
<path fill="none" stroke="#63b8ff" d="M588.92,-336.66C654.8,-320.04 738,-284.91 738,-213.5 738,-213.5 738,-213.5 738,-142 738,-76.74 946.59,-35.63 1049.26,-19.36"/>
<polygon fill="#63b8ff" stroke="#63b8ff" points="588.47,-333.17 579.57,-338.91 590.11,-339.98 588.47,-333.17"/>
</a>
</g>
</g>
<!-- Node20&#45;&gt;Node8 -->
<g id="edge36_Node000020_Node000008" class="edge">
<title>Node20&#45;&gt;Node8</title>
<g id="a_edge36_Node000020_Node000008"><a xlink:title=" ">
<path fill="none" stroke="#63b8ff" d="M458.27,-330.2C432.95,-320.26 402.89,-308.47 379.16,-299.15"/>
<polygon fill="#63b8ff" stroke="#63b8ff" points="456.81,-333.38 467.39,-333.78 459.36,-326.87 456.81,-333.38"/>
</a>
</g>
</g>
<!-- Node20&#45;&gt;Node9 -->
<g id="edge34_Node000020_Node000009" class="edge">
<title>Node20&#45;&gt;Node9</title>
<g id="a_edge34_Node000020_Node000009"><a xlink:title=" ">
<path fill="none" stroke="#63b8ff" d="M513.06,-323.21C515.72,-305.99 520.52,-283.62 529,-265.25 535.04,-252.18 544.79,-239.24 553.03,-229.57"/>
<polygon fill="#63b8ff" stroke="#63b8ff" points="509.62,-322.57 511.73,-332.95 516.55,-323.52 509.62,-322.57"/>
</a>
</g>
</g>
<!-- Node20&#45;&gt;Node12 -->
<g id="edge35_Node000020_Node000012" class="edge">
<title>Node20&#45;&gt;Node12</title>
<g id="a_edge35_Node000020_Node000012"><a xlink:title=" ">
<path fill="none" stroke="#63b8ff" d="M485.21,-326.51C466.51,-308.85 439.91,-284.64 415,-265.25 398.61,-252.49 379.18,-239.44 363.94,-229.65"/>
<polygon fill="#63b8ff" stroke="#63b8ff" points="482.71,-328.96 492.36,-333.31 487.53,-323.88 482.71,-328.96"/>
</a>
</g>
</g>
<!-- Node20&#45;&gt;Node14 -->
<g id="edge37_Node000020_Node000014" class="edge">
<title>Node20&#45;&gt;Node14</title>
<g id="a_edge37_Node000020_Node000014"><a xlink:title=" ">
<path fill="none" stroke="#63b8ff" d="M501.08,-323.4C486.72,-279.81 458.93,-195.42 447.31,-160.13"/>
<polygon fill="#63b8ff" stroke="#63b8ff" points="497.74,-324.46 504.19,-332.86 504.39,-322.27 497.74,-324.46"/>
</a>
</g>
</g>
<!-- Node21 -->
<g id="Node000021" class="node">
<title>Node21</title>
<g id="a_Node000021"><a xlink:href="constant__solver_8h.html" target="_top" xlink:title=" ">
<polygon fill="white" stroke="#666666" points="709.62,-159.75 574.38,-159.75 574.38,-126.25 709.62,-126.25 709.62,-159.75"/>
<text text-anchor="start" x="582.38" y="-146.25" font-family="Helvetica,sans-Serif" font-size="10.00">include/prismspf/solvers</text>
<text text-anchor="middle" x="642" y="-133.5" font-family="Helvetica,sans-Serif" font-size="10.00">/constant_solver.h</text>
</a>
</g>
</g>
<!-- Node20&#45;&gt;Node21 -->
<g id="edge32_Node000020_Node000021" class="edge">
<title>Node20&#45;&gt;Node21</title>
<g id="a_edge32_Node000020_Node000021"><a xlink:title=" ">
<path fill="none" stroke="#63b8ff" d="M588.93,-338.77C612.11,-331.25 634.98,-318.92 649,-298.75 678.46,-256.34 659.79,-190.5 648.62,-160.23"/>
<polygon fill="#63b8ff" stroke="#63b8ff" points="587.99,-335.4 579.38,-341.57 589.96,-342.12 587.99,-335.4"/>
</a>
</g>
</g>
<!-- Node22 -->
<g id="Node000022" class="node">
<title>Node22</title>
<g id="a_Node000022"><a xlink:href="solver__base_8cc.html" target="_top" xlink:title=" ">
<polygon fill="white" stroke="#666666" points="639.75,-298.75 538.25,-298.75 538.25,-265.25 639.75,-265.25 639.75,-298.75"/>
<text text-anchor="start" x="546.25" y="-285.25" font-family="Helvetica,sans-Serif" font-size="10.00">src/solvers/solver</text>
<text text-anchor="middle" x="589" y="-272.5" font-family="Helvetica,sans-Serif" font-size="10.00">_base.cc</text>
</a>
</g>
</g>
<!-- Node20&#45;&gt;Node22 -->
<g id="edge39_Node000020_Node000022" class="edge">
<title>Node20&#45;&gt;Node22</title>
<g id="a_edge39_Node000020_Node000022"><a xlink:title=" ">
<path fill="none" stroke="#63b8ff" d="M537.4,-327.09C548.21,-317.85 560.35,-307.48 570.14,-299.12"/>
<polygon fill="#63b8ff" stroke="#63b8ff" points="535.2,-324.36 529.87,-333.52 539.75,-329.69 535.2,-324.36"/>
</a>
</g>
</g>
<!-- Node21&#45;&gt;Node10 -->
<g id="edge33_Node000021_Node000010" class="edge">
<title>Node21&#45;&gt;Node10</title>
<g id="a_edge33_Node000021_Node000010"><a xlink:title=" ">
<path fill="none" stroke="#63b8ff" d="M609.88,-119.41C596.46,-109.98 581.17,-99.23 568.92,-90.62"/>
<polygon fill="#63b8ff" stroke="#63b8ff" points="607.82,-122.24 618.01,-125.13 611.84,-116.52 607.82,-122.24"/>
</a>
</g>
</g>
<!-- Node25&#45;&gt;Node6 -->
<g id="edge50_Node000025_Node000006" class="edge">
<title>Node25&#45;&gt;Node6</title>
<g id="a_edge50_Node000025_Node000006"><a xlink:title=" ">
<path fill="none" stroke="#63b8ff" d="M816.66,-609.58C857.5,-599.37 907.39,-586.9 946.39,-577.15"/>
<polygon fill="#63b8ff" stroke="#63b8ff" points="815.99,-606.14 807.14,-611.96 817.69,-612.94 815.99,-606.14"/>
</a>
</g>
</g>
<!-- Node25&#45;&gt;Node19 -->
<g id="edge49_Node000025_Node000019" class="edge">
<title>Node25&#45;&gt;Node19</title>
<g id="a_edge49_Node000025_Node000019"><a xlink:title=" ">
<path fill="none" stroke="#63b8ff" d="M641.49,-611.66C581.05,-595.74 508.52,-565.22 471,-507.25 424.94,-436.08 547.86,-390.81 634.02,-368.69"/>
<polygon fill="#63b8ff" stroke="#63b8ff" points="640.61,-615.04 651.16,-614.09 642.32,-608.26 640.61,-615.04"/>
</a>
</g>
</g>
<!-- Node26 -->
<g id="Node000026" class="node">
<title>Node26</title>
<g id="a_Node000026"><a xlink:href="user__input__parameters_8h.html" target="_top" xlink:title=" ">
<polygon fill="white" stroke="#666666" points="824.88,-576.75 649.12,-576.75 649.12,-543.25 824.88,-543.25 824.88,-576.75"/>
<text text-anchor="start" x="657.12" y="-563.25" font-family="Helvetica,sans-Serif" font-size="10.00">include/prismspf/user</text>
<text text-anchor="middle" x="737" y="-550.5" font-family="Helvetica,sans-Serif" font-size="10.00">_inputs/user_input_parameters.h</text>
</a>
</g>
</g>
<!-- Node25&#45;&gt;Node26 -->
<g id="edge51_Node000025_Node000026" class="edge">
<title>Node25&#45;&gt;Node26</title>
<g id="a_edge51_Node000025_Node000026"><a xlink:title=" ">
<path fill="none" stroke="#63b8ff" d="M739.37,-601.06C738.89,-592.84 738.37,-584.09 737.94,-576.88"/>
<polygon fill="#63b8ff" stroke="#63b8ff" points="735.88,-601.22 739.96,-610.99 742.86,-600.8 735.88,-601.22"/>
</a>
</g>
</g>
<!-- Node26&#45;&gt;Node5 -->
<g id="edge60_Node000026_Node000005" class="edge">
<title>Node26&#45;&gt;Node5</title>
<g id="a_edge60_Node000026_Node000005"><a xlink:title=" ">
<path fill="none" stroke="#63b8ff" d="M836.42,-542.03C983.01,-515.61 1240,-463.4 1240,-422 1240,-422 1240,-422 1240,-142 1240,-80.69 1167.19,-38.98 1128.52,-21.15"/>
<polygon fill="#63b8ff" stroke="#63b8ff" points="835.91,-538.56 826.68,-543.77 837.14,-545.45 835.91,-538.56"/>
</a>
</g>
</g>
<!-- Node26&#45;&gt;Node7 -->
<g id="edge52_Node000026_Node000007" class="edge">
<title>Node26&#45;&gt;Node7</title>
<g id="a_edge52_Node000026_Node000007"><a xlink:title=" ">
<path fill="none" stroke="#63b8ff" d="M637.51,-542.7C559.07,-529.85 452.21,-512.34 385.96,-501.49"/>
<polygon fill="#63b8ff" stroke="#63b8ff" points="636.94,-546.15 647.37,-544.32 638.07,-539.25 636.94,-546.15"/>
</a>
</g>
</g>
<!-- Node26&#45;&gt;Node16 -->
<g id="edge55_Node000026_Node000016" class="edge">
<title>Node26&#45;&gt;Node16</title>
<g id="a_edge55_Node000026_Node000016"><a xlink:title=" ">
<path fill="none" stroke="#63b8ff" d="M771.28,-536.42C784.02,-527.66 798.43,-517.33 811,-507.25 839.19,-484.64 869.68,-455.76 887.79,-438.09"/>
<polygon fill="#63b8ff" stroke="#63b8ff" points="769.48,-533.41 763.17,-541.92 773.41,-539.2 769.48,-533.41"/>
</a>
</g>
</g>
<!-- Node26&#45;&gt;Node17 -->
<g id="edge53_Node000026_Node000017" class="edge">
<title>Node26&#45;&gt;Node17</title>
<g id="a_edge53_Node000026_Node000017"><a xlink:title=" ">
<path fill="none" stroke="#63b8ff" d="M780.7,-537.81C799.85,-528.49 822.57,-517.38 843,-507.25 904.52,-476.74 920.37,-470 981,-437.75 1024.67,-414.52 1074.56,-386.19 1104.91,-368.75"/>
<polygon fill="#63b8ff" stroke="#63b8ff" points="779.29,-534.61 771.83,-542.13 782.36,-540.9 779.29,-534.61"/>
</a>
</g>
</g>
<!-- Node26&#45;&gt;Node19 -->
<g id="edge54_Node000026_Node000019" class="edge">
<title>Node26&#45;&gt;Node19</title>
<g id="a_edge54_Node000026_Node000019"><a xlink:title=" ">
<path fill="none" stroke="#63b8ff" d="M696.75,-536.75C684.74,-528.66 672.3,-518.66 663,-507.25 641.74,-481.17 639.81,-470.7 633,-437.75 629.99,-423.17 626,-417.39 633,-404.25 641.33,-388.61 656.72,-376.86 671.56,-368.54"/>
<polygon fill="#63b8ff" stroke="#63b8ff" points="694.65,-539.56 704.96,-542.01 698.42,-533.67 694.65,-539.56"/>
</a>
</g>
</g>
<!-- Node26&#45;&gt;Node20 -->
<g id="edge56_Node000026_Node000020" class="edge">
<title>Node26&#45;&gt;Node20</title>
<g id="a_edge56_Node000026_Node000020"><a xlink:title=" ">
<path fill="none" stroke="#63b8ff" d="M637.42,-552.59C571.01,-546 492.14,-532.9 471,-507.25 436.99,-465.99 476.43,-398.98 497.9,-368.51"/>
<polygon fill="#63b8ff" stroke="#63b8ff" points="637.02,-556.07 647.3,-553.53 637.68,-549.1 637.02,-556.07"/>
</a>
</g>
</g>
<!-- Node27 -->
<g id="Node000027" class="node">
<title>Node27</title>
<g id="a_Node000027"><a xlink:href="periodic__distance_8h.html" target="_top" xlink:title=" ">
<polygon fill="white" stroke="#666666" points="778.38,-437.75 641.62,-437.75 641.62,-404.25 778.38,-404.25 778.38,-437.75"/>
<text text-anchor="start" x="649.62" y="-424.25" font-family="Helvetica,sans-Serif" font-size="10.00">include/prismspf/utilities</text>
<text text-anchor="middle" x="710" y="-411.5" font-family="Helvetica,sans-Serif" font-size="10.00">/periodic_distance.h</text>
</a>
</g>
</g>
<!-- Node26&#45;&gt;Node27 -->
<g id="edge57_Node000026_Node000027" class="edge">
<title>Node26&#45;&gt;Node27</title>
<g id="a_edge57_Node000026_Node000027"><a xlink:title=" ">
<path fill="none" stroke="#63b8ff" d="M696.3,-536.29C686.17,-528.5 676.61,-518.78 671,-507.25 659.39,-483.4 678.38,-455.36 693.7,-438.13"/>
<polygon fill="#63b8ff" stroke="#63b8ff" points="694.23,-539.12 704.42,-542.03 698.27,-533.4 694.23,-539.12"/>
</a>
</g>
</g>
<!-- Node28 -->
<g id="Node000028" class="node">
<title>Node28</title>
<g id="a_Node000028"><a xlink:href="constraint__manager_8cc.html" target="_top" xlink:title=" ">
<polygon fill="white" stroke="#666666" points="586,-507.25 480,-507.25 480,-473.75 586,-473.75 586,-507.25"/>
<text text-anchor="start" x="488" y="-493.75" font-family="Helvetica,sans-Serif" font-size="10.00">src/core/constraint</text>
<text text-anchor="middle" x="533" y="-481" font-family="Helvetica,sans-Serif" font-size="10.00">_manager.cc</text>
</a>
</g>
</g>
<!-- Node26&#45;&gt;Node28 -->
<g id="edge59_Node000026_Node000028" class="edge">
<title>Node26&#45;&gt;Node28</title>
<g id="a_edge59_Node000026_Node000028"><a xlink:title=" ">
<path fill="none" stroke="#63b8ff" d="M677.25,-539.23C646.89,-529.19 610.47,-517.13 581.82,-507.65"/>
<polygon fill="#63b8ff" stroke="#63b8ff" points="676.11,-542.54 686.7,-542.36 678.31,-535.89 676.11,-542.54"/>
</a>
</g>
</g>
<!-- Node29 -->
<g id="Node000029" class="node">
<title>Node29</title>
<g id="a_Node000029"><a xlink:href="user__input__parameters_8cc.html" target="_top" xlink:title=" ">
<polygon fill="white" stroke="#666666" points="801.5,-507.25 680.5,-507.25 680.5,-473.75 801.5,-473.75 801.5,-507.25"/>
<text text-anchor="start" x="688.5" y="-493.75" font-family="Helvetica,sans-Serif" font-size="10.00">src/user_inputs/user</text>
<text text-anchor="middle" x="741" y="-481" font-family="Helvetica,sans-Serif" font-size="10.00">_input_parameters.cc</text>
</a>
</g>
</g>
<!-- Node26&#45;&gt;Node29 -->
<g id="edge61_Node000026_Node000029" class="edge">
<title>Node26&#45;&gt;Node29</title>
<g id="a_edge61_Node000026_Node000029"><a xlink:title=" ">
<path fill="none" stroke="#63b8ff" d="M738.63,-531.56C739.11,-523.34 739.63,-514.59 740.06,-507.38"/>
<polygon fill="#63b8ff" stroke="#63b8ff" points="735.14,-531.3 738.04,-541.49 742.12,-531.72 735.14,-531.3"/>
</a>
</g>
</g>
<!-- Node27&#45;&gt;Node19 -->
<g id="edge58_Node000027_Node000019" class="edge">
<title>Node27&#45;&gt;Node19</title>
<g id="a_edge58_Node000027_Node000019"><a xlink:title=" ">
<path fill="none" stroke="#63b8ff" d="M710,-392.56C710,-384.34 710,-375.59 710,-368.38"/>
<polygon fill="#63b8ff" stroke="#63b8ff" points="706.5,-392.49 710,-402.49 713.5,-392.49 706.5,-392.49"/>
</a>
</g>
</g>
</g>
</svg>
