<?xml version="1.0" encoding="UTF-8" standalone="no"?>
<!DOCTYPE svg PUBLIC "-//W3C//DTD SVG 1.1//EN"
 "http://www.w3.org/Graphics/SVG/1.1/DTD/svg11.dtd">
<!-- Generated by graphviz version 12.2.1 (20241206.2353)
 -->
<!-- Title: include/prismspf/core/solution_indexer.h Pages: 1 -->
<svg width="1162pt" height="654pt"
 viewBox="0.00 0.00 1162.40 654.25" xmlns="http://www.w3.org/2000/svg" xmlns:xlink="http://www.w3.org/1999/xlink">
<g id="graph0" class="graph" transform="scale(1 1) rotate(0) translate(4 650.25)">
<title>include/prismspf/core/solution_indexer.h</title>
<!-- Node1 -->
<g id="Node000001" class="node">
<title>Node1</title>
<g id="a_Node000001"><a xlink:title=" ">
<polygon fill="#999999" stroke="#666666" points="840.4,-646.25 719.4,-646.25 719.4,-612.75 840.4,-612.75 840.4,-646.25"/>
<text text-anchor="start" x="727.4" y="-632.75" font-family="Helvetica,sans-Serif" font-size="10.00">include/prismspf/core</text>
<text text-anchor="middle" x="779.9" y="-620" font-family="Helvetica,sans-Serif" font-size="10.00">/solution_indexer.h</text>
</a>
</g>
</g>
<!-- Node2 -->
<g id="Node000002" class="node">
<title>Node2</title>
<g id="a_Node000002"><a xlink:href="field__container_8h.html" target="_top" xlink:title=" ">
<polygon fill="white" stroke="#666666" points="260.4,-576.75 139.4,-576.75 139.4,-543.25 260.4,-543.25 260.4,-576.75"/>
<text text-anchor="start" x="147.4" y="-563.25" font-family="Helvetica,sans-Serif" font-size="10.00">include/prismspf/core</text>
<text text-anchor="middle" x="199.9" y="-550.5" font-family="Helvetica,sans-Serif" font-size="10.00">/field_container.h</text>
</a>
</g>
</g>
<!-- Node1&#45;&gt;Node2 -->
<g id="edge1_Node000001_Node000002" class="edge">
<title>Node1&#45;&gt;Node2</title>
<g id="a_edge1_Node000001_Node000002"><a xlink:title=" ">
<path fill="none" stroke="#63b8ff" d="M707.76,-620.1C592.32,-606.67 368.16,-580.58 260.49,-568.05"/>
<polygon fill="#63b8ff" stroke="#63b8ff" points="707.08,-623.55 717.42,-621.23 707.89,-616.6 707.08,-623.55"/>
</a>
</g>
</g>
<!-- Node4 -->
<g id="Node000004" class="node">
<title>Node4</title>
<g id="a_Node000004"><a xlink:href="mf__operator_8h.html" target="_top" xlink:title=" ">
<polygon fill="white" stroke="#666666" points="397.52,-298.75 262.27,-298.75 262.27,-265.25 397.52,-265.25 397.52,-298.75"/>
<text text-anchor="start" x="270.27" y="-285.25" font-family="Helvetica,sans-Serif" font-size="10.00">include/prismspf/solvers</text>
<text text-anchor="middle" x="329.9" y="-272.5" font-family="Helvetica,sans-Serif" font-size="10.00">/mf_operator.h</text>
</a>
</g>
</g>
<!-- Node1&#45;&gt;Node4 -->
<g id="edge42_Node000001_Node000004" class="edge">
<title>Node1&#45;&gt;Node4</title>
<g id="a_edge42_Node000001_Node000004"><a xlink:title=" ">
<path fill="none" stroke="#63b8ff" d="M761.47,-603.35C719.07,-547.17 608.72,-410.5 485.9,-334.75 459.06,-318.2 426.32,-306.29 397.78,-298.11"/>
<polygon fill="#63b8ff" stroke="#63b8ff" points="758.67,-605.44 767.46,-611.35 764.27,-601.25 758.67,-605.44"/>
</a>
</g>
</g>
<!-- Node12 -->
<g id="Node000012" class="node">
<title>Node12</title>
<g id="a_Node000012"><a xlink:href="solve__context_8h.html" target="_top" xlink:title=" ">
<polygon fill="white" stroke="#666666" points="847.52,-437.75 712.27,-437.75 712.27,-404.25 847.52,-404.25 847.52,-437.75"/>
<text text-anchor="start" x="720.27" y="-424.25" font-family="Helvetica,sans-Serif" font-size="10.00">include/prismspf/solvers</text>
<text text-anchor="middle" x="779.9" y="-411.5" font-family="Helvetica,sans-Serif" font-size="10.00">/solve_context.h</text>
</a>
</g>
</g>
<!-- Node1&#45;&gt;Node12 -->
<g id="edge43_Node000001_Node000012" class="edge">
<title>Node1&#45;&gt;Node12</title>
<g id="a_edge43_Node000001_Node000012"><a xlink:title=" ">
<path fill="none" stroke="#63b8ff" d="M779.9,-600.84C779.9,-557.09 779.9,-473.27 779.9,-438.13"/>
<polygon fill="#63b8ff" stroke="#63b8ff" points="776.4,-600.78 779.9,-610.78 783.4,-600.78 776.4,-600.78"/>
</a>
</g>
</g>
<!-- Node15 -->
<g id="Node000015" class="node">
<title>Node15</title>
<g id="a_Node000015"><a xlink:href="solution__output_8h.html" target="_top" xlink:title=" ">
<polygon fill="white" stroke="#666666" points="1136.4,-368.25 1015.4,-368.25 1015.4,-334.75 1136.4,-334.75 1136.4,-368.25"/>
<text text-anchor="start" x="1023.4" y="-354.75" font-family="Helvetica,sans-Serif" font-size="10.00">include/prismspf/core</text>
<text text-anchor="middle" x="1075.9" y="-342" font-family="Helvetica,sans-Serif" font-size="10.00">/solution_output.h</text>
</a>
</g>
</g>
<!-- Node1&#45;&gt;Node15 -->
<g id="edge41_Node000001_Node000015" class="edge">
<title>Node1&#45;&gt;Node15</title>
<g id="a_edge41_Node000001_Node000015"><a xlink:title=" ">
<path fill="none" stroke="#63b8ff" d="M805.48,-604.65C864.48,-549.64 1008.83,-415.03 1058.65,-368.58"/>
<polygon fill="#63b8ff" stroke="#63b8ff" points="803.12,-602.06 798.2,-611.44 807.9,-607.18 803.12,-602.06"/>
</a>
</g>
</g>
<!-- Node24 -->
<g id="Node000024" class="node">
<title>Node24</title>
<g id="a_Node000024"><a xlink:href="solution__indexer_8cc.html" target="_top" xlink:title=" ">
<polygon fill="white" stroke="#666666" points="1054.02,-570.38 903.77,-570.38 903.77,-549.62 1054.02,-549.62 1054.02,-570.38"/>
<text text-anchor="middle" x="978.9" y="-556.88" font-family="Helvetica,sans-Serif" font-size="10.00">src/core/solution_indexer.cc</text>
</a>
</g>
</g>
<!-- Node1&#45;&gt;Node24 -->
<g id="edge44_Node000001_Node000024" class="edge">
<title>Node1&#45;&gt;Node24</title>
<g id="a_edge44_Node000001_Node000024"><a xlink:title=" ">
<path fill="none" stroke="#63b8ff" d="M838.13,-608.75C874.82,-596.3 920.6,-580.77 949.8,-570.87"/>
<polygon fill="#63b8ff" stroke="#63b8ff" points="837.34,-605.32 828.99,-611.85 839.59,-611.95 837.34,-605.32"/>
</a>
</g>
</g>
<!-- Node3 -->
<g id="Node000003" class="node">
<title>Node3</title>
<g id="a_Node000003"><a xlink:href="pde__operator__base_8h.html" target="_top" xlink:title=" ">
<polygon fill="white" stroke="#666666" points="539.4,-507.25 418.4,-507.25 418.4,-473.75 539.4,-473.75 539.4,-507.25"/>
<text text-anchor="start" x="426.4" y="-493.75" font-family="Helvetica,sans-Serif" font-size="10.00">include/prismspf/core</text>
<text text-anchor="middle" x="478.9" y="-481" font-family="Helvetica,sans-Serif" font-size="10.00">/pde_operator_base.h</text>
</a>
</g>
</g>
<!-- Node2&#45;&gt;Node3 -->
<g id="edge2_Node000002_Node000003" class="edge">
<title>Node2&#45;&gt;Node3</title>
<g id="a_edge2_Node000002_Node000003"><a xlink:title=" ">
<path fill="none" stroke="#63b8ff" d="M271.73,-541.62C317.1,-530.64 375.07,-516.62 418.14,-506.2"/>
<polygon fill="#63b8ff" stroke="#63b8ff" points="271.15,-538.16 262.25,-543.91 272.79,-544.96 271.15,-538.16"/>
</a>
</g>
</g>
<!-- Node2&#45;&gt;Node4 -->
<g id="edge38_Node000002_Node000004" class="edge">
<title>Node2&#45;&gt;Node4</title>
<g id="a_edge38_Node000002_Node000004"><a xlink:title=" ">
<path fill="none" stroke="#63b8ff" d="M198.35,-531.63C197.62,-499.6 199.81,-445.67 218.9,-404.25 239.44,-359.67 282.48,-320.26 308.52,-299.2"/>
<polygon fill="#63b8ff" stroke="#63b8ff" points="194.84,-531.38 198.69,-541.25 201.83,-531.13 194.84,-531.38"/>
</a>
</g>
</g>
<!-- Node11 -->
<g id="Node000011" class="node">
<title>Node11</title>
<g id="a_Node000011"><a xlink:href="mf__operator_8cc.html" target="_top" xlink:title=" ">
<polygon fill="white" stroke="#666666" points="195.02,-222.88 50.77,-222.88 50.77,-202.12 195.02,-202.12 195.02,-222.88"/>
<text text-anchor="middle" x="122.9" y="-209.38" font-family="Helvetica,sans-Serif" font-size="10.00">src/solvers/mf_operator.cc</text>
</a>
</g>
</g>
<!-- Node2&#45;&gt;Node11 -->
<g id="edge40_Node000002_Node000011" class="edge">
<title>Node2&#45;&gt;Node11</title>
<g id="a_edge40_Node000002_Node000011"><a xlink:title=" ">
<path fill="none" stroke="#63b8ff" d="M127.85,-555.19C91.02,-549.47 48.3,-536.41 20.9,-507.25 -5.69,-478.96 1.9,-460.82 1.9,-422 1.9,-422 1.9,-422 1.9,-350.5 1.9,-289.41 70.31,-242.73 104.25,-223.33"/>
<polygon fill="#63b8ff" stroke="#63b8ff" points="127.18,-558.63 137.56,-556.53 128.14,-551.69 127.18,-558.63"/>
</a>
</g>
</g>
<!-- Node23 -->
<g id="Node000023" class="node">
<title>Node23</title>
<g id="a_Node000023"><a xlink:href="field__container_8cc.html" target="_top" xlink:title=" ">
<polygon fill="white" stroke="#666666" points="171.9,-500.88 29.9,-500.88 29.9,-480.12 171.9,-480.12 171.9,-500.88"/>
<text text-anchor="middle" x="100.9" y="-487.38" font-family="Helvetica,sans-Serif" font-size="10.00">src/core/field_container.cc</text>
</a>
</g>
</g>
<!-- Node2&#45;&gt;Node23 -->
<g id="edge39_Node000002_Node000023" class="edge">
<title>Node2&#45;&gt;Node23</title>
<g id="a_edge39_Node000002_Node000023"><a xlink:title=" ">
<path fill="none" stroke="#63b8ff" d="M166.83,-536.46C149.31,-524.51 128.68,-510.44 115.23,-501.27"/>
<polygon fill="#63b8ff" stroke="#63b8ff" points="164.7,-539.24 174.93,-541.98 168.64,-533.45 164.7,-539.24"/>
</a>
</g>
</g>
<!-- Node3&#45;&gt;Node4 -->
<g id="edge3_Node000003_Node000004" class="edge">
<title>Node3&#45;&gt;Node4</title>
<g id="a_edge3_Node000003_Node000004"><a xlink:title=" ">
<path fill="none" stroke="#63b8ff" d="M502.96,-465.1C516.94,-447.83 529.85,-424.28 518.9,-404.25 489.45,-350.37 424.7,-316.89 379.23,-299.11"/>
<polygon fill="#63b8ff" stroke="#63b8ff" points="500.57,-462.51 496.65,-472.36 505.85,-467.1 500.57,-462.51"/>
</a>
</g>
</g>
<!-- Node3&#45;&gt;Node12 -->
<g id="edge14_Node000003_Node000012" class="edge">
<title>Node3&#45;&gt;Node12</title>
<g id="a_edge14_Node000003_Node000012"><a xlink:title=" ">
<path fill="none" stroke="#63b8ff" d="M550.94,-473.34C599.81,-462.38 664.01,-447.99 711.99,-437.23"/>
<polygon fill="#63b8ff" stroke="#63b8ff" points="550.28,-469.91 541.28,-475.51 551.81,-476.74 550.28,-469.91"/>
</a>
</g>
</g>
<!-- Node18 -->
<g id="Node000018" class="node">
<title>Node18</title>
<g id="a_Node000018"><a xlink:href="solver__base_8h.html" target="_top" xlink:title=" ">
<polygon fill="white" stroke="#666666" points="739.52,-368.25 604.27,-368.25 604.27,-334.75 739.52,-334.75 739.52,-368.25"/>
<text text-anchor="start" x="612.27" y="-354.75" font-family="Helvetica,sans-Serif" font-size="10.00">include/prismspf/solvers</text>
<text text-anchor="middle" x="671.9" y="-342" font-family="Helvetica,sans-Serif" font-size="10.00">/solver_base.h</text>
</a>
</g>
</g>
<!-- Node3&#45;&gt;Node18 -->
<g id="edge35_Node000003_Node000018" class="edge">
<title>Node3&#45;&gt;Node18</title>
<g id="a_edge35_Node000003_Node000018"><a xlink:title=" ">
<path fill="none" stroke="#63b8ff" d="M510.89,-466.83C523.65,-457.79 538.47,-447.28 551.9,-437.75 585.87,-413.64 625.23,-385.67 649.34,-368.53"/>
<polygon fill="#63b8ff" stroke="#63b8ff" points="508.96,-463.91 502.82,-472.55 513.01,-469.62 508.96,-463.91"/>
</a>
</g>
</g>
<!-- Node21 -->
<g id="Node000021" class="node">
<title>Node21</title>
<g id="a_Node000021"><a xlink:href="dirichlet_8cc.html" target="_top" xlink:title=" ">
<polygon fill="white" stroke="#666666" points="338.15,-431.38 227.65,-431.38 227.65,-410.62 338.15,-410.62 338.15,-431.38"/>
<text text-anchor="middle" x="282.9" y="-417.88" font-family="Helvetica,sans-Serif" font-size="10.00">src/core/dirichlet.cc</text>
</a>
</g>
</g>
<!-- Node3&#45;&gt;Node21 -->
<g id="edge36_Node000003_Node000021" class="edge">
<title>Node3&#45;&gt;Node21</title>
<g id="a_edge36_Node000003_Node000021"><a xlink:title=" ">
<path fill="none" stroke="#63b8ff" d="M421.07,-469.59C385.01,-457.17 340.19,-441.73 311.55,-431.87"/>
<polygon fill="#63b8ff" stroke="#63b8ff" points="419.92,-472.89 430.52,-472.84 422.2,-466.27 419.92,-472.89"/>
</a>
</g>
</g>
<!-- Node22 -->
<g id="Node000022" class="node">
<title>Node22</title>
<g id="a_Node000022"><a xlink:href="initial__conditions_8cc.html" target="_top" xlink:title=" ">
<polygon fill="white" stroke="#666666" points="509.9,-431.38 355.9,-431.38 355.9,-410.62 509.9,-410.62 509.9,-431.38"/>
<text text-anchor="middle" x="432.9" y="-417.88" font-family="Helvetica,sans-Serif" font-size="10.00">src/core/initial_conditions.cc</text>
</a>
</g>
</g>
<!-- Node3&#45;&gt;Node22 -->
<g id="edge37_Node000003_Node000022" class="edge">
<title>Node3&#45;&gt;Node22</title>
<g id="a_edge37_Node000003_Node000022"><a xlink:title=" ">
<path fill="none" stroke="#63b8ff" d="M461.58,-464.09C453.91,-452.84 445.35,-440.27 439.59,-431.82"/>
<polygon fill="#63b8ff" stroke="#63b8ff" points="458.62,-465.96 467.14,-472.25 464.4,-462.02 458.62,-465.96"/>
</a>
</g>
</g>
<!-- Node5 -->
<g id="Node000005" class="node">
<title>Node5</title>
<g id="a_Node000005"><a xlink:href="explicit__solver_8h.html" target="_top" xlink:title=" ">
<polygon fill="white" stroke="#666666" points="766.52,-229.25 631.27,-229.25 631.27,-195.75 766.52,-195.75 766.52,-229.25"/>
<text text-anchor="start" x="639.27" y="-215.75" font-family="Helvetica,sans-Serif" font-size="10.00">include/prismspf/solvers</text>
<text text-anchor="middle" x="698.9" y="-203" font-family="Helvetica,sans-Serif" font-size="10.00">/explicit_solver.h</text>
</a>
</g>
</g>
<!-- Node4&#45;&gt;Node5 -->
<g id="edge4_Node000004_Node000005" class="edge">
<title>Node4&#45;&gt;Node5</title>
<g id="a_edge4_Node000004_Node000005"><a xlink:title=" ">
<path fill="none" stroke="#63b8ff" d="M409.18,-266.5C475.19,-254.42 568.2,-237.41 630.87,-225.94"/>
<polygon fill="#63b8ff" stroke="#63b8ff" points="408.7,-263.03 399.49,-268.27 409.96,-269.91 408.7,-263.03"/>
</a>
</g>
</g>
<!-- Node9 -->
<g id="Node000009" class="node">
<title>Node9</title>
<g id="a_Node000009"><a xlink:href="linear__solver_8h.html" target="_top" xlink:title=" ">
<polygon fill="white" stroke="#666666" points="574.52,-229.25 439.27,-229.25 439.27,-195.75 574.52,-195.75 574.52,-229.25"/>
<text text-anchor="start" x="447.27" y="-215.75" font-family="Helvetica,sans-Serif" font-size="10.00">include/prismspf/solvers</text>
<text text-anchor="middle" x="506.9" y="-203" font-family="Helvetica,sans-Serif" font-size="10.00">/linear_solver.h</text>
</a>
</g>
</g>
<!-- Node4&#45;&gt;Node9 -->
<g id="edge8_Node000004_Node000009" class="edge">
<title>Node4&#45;&gt;Node9</title>
<g id="a_edge8_Node000004_Node000009"><a xlink:title=" ">
<path fill="none" stroke="#63b8ff" d="M382.78,-260.83C408.91,-250.87 440.01,-239.01 464.54,-229.65"/>
<polygon fill="#63b8ff" stroke="#63b8ff" points="381.8,-257.46 373.71,-264.29 384.3,-264 381.8,-257.46"/>
</a>
</g>
</g>
<!-- Node10 -->
<g id="Node000010" class="node">
<title>Node10</title>
<g id="a_Node000010"><a xlink:href="newton__solver_8h.html" target="_top" xlink:title=" ">
<polygon fill="white" stroke="#666666" points="478.52,-159.75 343.27,-159.75 343.27,-126.25 478.52,-126.25 478.52,-159.75"/>
<text text-anchor="start" x="351.27" y="-146.25" font-family="Helvetica,sans-Serif" font-size="10.00">include/prismspf/solvers</text>
<text text-anchor="middle" x="410.9" y="-133.5" font-family="Helvetica,sans-Serif" font-size="10.00">/newton_solver.h</text>
</a>
</g>
</g>
<!-- Node4&#45;&gt;Node10 -->
<g id="edge12_Node000004_Node000010" class="edge">
<title>Node4&#45;&gt;Node10</title>
<g id="a_edge12_Node000004_Node000010"><a xlink:title=" ">
<path fill="none" stroke="#63b8ff" d="M345.2,-255.12C361.78,-227.08 387.7,-183.23 401.51,-159.88"/>
<polygon fill="#63b8ff" stroke="#63b8ff" points="342.19,-253.32 340.12,-263.71 348.22,-256.89 342.19,-253.32"/>
</a>
</g>
</g>
<!-- Node4&#45;&gt;Node11 -->
<g id="edge13_Node000004_Node000011" class="edge">
<title>Node4&#45;&gt;Node11</title>
<g id="a_edge13_Node000004_Node000011"><a xlink:title=" ">
<path fill="none" stroke="#63b8ff" d="M269.81,-261.41C231.56,-248.94 183.66,-233.32 153.16,-223.37"/>
<polygon fill="#63b8ff" stroke="#63b8ff" points="268.28,-264.59 278.88,-264.36 270.45,-257.94 268.28,-264.59"/>
</a>
</g>
</g>
<!-- Node6 -->
<g id="Node000006" class="node">
<title>Node6</title>
<g id="a_Node000006"><a xlink:href="solvers_8h.html" target="_top" xlink:title=" ">
<polygon fill="white" stroke="#666666" points="670.52,-90.25 535.27,-90.25 535.27,-56.75 670.52,-56.75 670.52,-90.25"/>
<text text-anchor="start" x="543.27" y="-76.75" font-family="Helvetica,sans-Serif" font-size="10.00">include/prismspf/solvers</text>
<text text-anchor="middle" x="602.9" y="-64" font-family="Helvetica,sans-Serif" font-size="10.00">/solvers.h</text>
</a>
</g>
</g>
<!-- Node5&#45;&gt;Node6 -->
<g id="edge5_Node000005_Node000006" class="edge">
<title>Node5&#45;&gt;Node6</title>
<g id="a_edge5_Node000005_Node000006"><a xlink:title=" ">
<path fill="none" stroke="#63b8ff" d="M697.94,-183.97C696.14,-166.17 691.5,-143.24 679.9,-126.25 669.54,-111.09 653.14,-99.17 638.13,-90.61"/>
<polygon fill="#63b8ff" stroke="#63b8ff" points="694.44,-184.11 698.67,-193.83 701.42,-183.59 694.44,-184.11"/>
</a>
</g>
</g>
<!-- Node7 -->
<g id="Node000007" class="node">
<title>Node7</title>
<g id="a_Node000007"><a xlink:href="problem_8cc.html" target="_top" xlink:title=" ">
<polygon fill="white" stroke="#666666" points="894.52,-20.75 783.27,-20.75 783.27,0 894.52,0 894.52,-20.75"/>
<text text-anchor="middle" x="838.9" y="-7.25" font-family="Helvetica,sans-Serif" font-size="10.00">src/core/problem.cc</text>
</a>
</g>
</g>
<!-- Node6&#45;&gt;Node7 -->
<g id="edge6_Node000006_Node000007" class="edge">
<title>Node6&#45;&gt;Node7</title>
<g id="a_edge6_Node000006_Node000007"><a xlink:title=" ">
<path fill="none" stroke="#63b8ff" d="M676.64,-53.4C717.93,-42.71 767.67,-29.82 801.1,-21.17"/>
<polygon fill="#63b8ff" stroke="#63b8ff" points="675.79,-50.01 666.98,-55.9 677.54,-56.78 675.79,-50.01"/>
</a>
</g>
</g>
<!-- Node8 -->
<g id="Node000008" class="node">
<title>Node8</title>
<g id="a_Node000008"><a xlink:href="solvers_8cc.html" target="_top" xlink:title=" ">
<polygon fill="white" stroke="#666666" points="663.02,-20.75 542.77,-20.75 542.77,0 663.02,0 663.02,-20.75"/>
<text text-anchor="middle" x="602.9" y="-7.25" font-family="Helvetica,sans-Serif" font-size="10.00">src/solvers/solvers.cc</text>
</a>
</g>
</g>
<!-- Node6&#45;&gt;Node8 -->
<g id="edge7_Node000006_Node000008" class="edge">
<title>Node6&#45;&gt;Node8</title>
<g id="a_edge7_Node000006_Node000008"><a xlink:title=" ">
<path fill="none" stroke="#63b8ff" d="M602.9,-44.94C602.9,-36.46 602.9,-27.67 602.9,-21.22"/>
<polygon fill="#63b8ff" stroke="#63b8ff" points="599.4,-44.93 602.9,-54.93 606.4,-44.93 599.4,-44.93"/>
</a>
</g>
</g>
<!-- Node9&#45;&gt;Node6 -->
<g id="edge11_Node000009_Node000006" class="edge">
<title>Node9&#45;&gt;Node6</title>
<g id="a_edge11_Node000009_Node000006"><a xlink:title=" ">
<path fill="none" stroke="#63b8ff" d="M507.85,-183.97C509.65,-166.17 514.29,-143.24 525.9,-126.25 536.25,-111.09 552.65,-99.17 567.66,-90.61"/>
<polygon fill="#63b8ff" stroke="#63b8ff" points="504.37,-183.59 507.12,-193.83 511.35,-184.11 504.37,-183.59"/>
</a>
</g>
</g>
<!-- Node9&#45;&gt;Node10 -->
<g id="edge9_Node000009_Node000010" class="edge">
<title>Node9&#45;&gt;Node10</title>
<g id="a_edge9_Node000009_Node000010"><a xlink:title=" ">
<path fill="none" stroke="#63b8ff" d="M474.77,-188.91C461.35,-179.48 446.07,-168.73 433.82,-160.12"/>
<polygon fill="#63b8ff" stroke="#63b8ff" points="472.71,-191.74 482.91,-194.63 476.74,-186.02 472.71,-191.74"/>
</a>
</g>
</g>
<!-- Node10&#45;&gt;Node6 -->
<g id="edge10_Node000010_Node000006" class="edge">
<title>Node10&#45;&gt;Node6</title>
<g id="a_edge10_Node000010_Node000006"><a xlink:title=" ">
<path fill="none" stroke="#63b8ff" d="M467.51,-122.1C496,-112.08 530.1,-100.09 556.95,-90.65"/>
<polygon fill="#63b8ff" stroke="#63b8ff" points="466.59,-118.71 458.31,-125.33 468.91,-125.32 466.59,-118.71"/>
</a>
</g>
</g>
<!-- Node13 -->
<g id="Node000013" class="node">
<title>Node13</title>
<g id="a_Node000013"><a xlink:href="problem_8h.html" target="_top" xlink:title=" ">
<polygon fill="white" stroke="#666666" points="944.4,-229.25 823.4,-229.25 823.4,-195.75 944.4,-195.75 944.4,-229.25"/>
<text text-anchor="start" x="831.4" y="-215.75" font-family="Helvetica,sans-Serif" font-size="10.00">include/prismspf/core</text>
<text text-anchor="middle" x="883.9" y="-203" font-family="Helvetica,sans-Serif" font-size="10.00">/problem.h</text>
</a>
</g>
</g>
<!-- Node12&#45;&gt;Node13 -->
<g id="edge15_Node000012_Node000013" class="edge">
<title>Node12&#45;&gt;Node13</title>
<g id="a_edge15_Node000012_Node000013"><a xlink:title=" ">
<path fill="none" stroke="#63b8ff" d="M796.79,-394.52C808.2,-377.47 823.71,-354.6 837.9,-334.75 849.52,-318.48 856.53,-316.92 864.9,-298.75 875.36,-276.02 880.23,-247.18 882.37,-229.54"/>
<polygon fill="#63b8ff" stroke="#63b8ff" points="794.06,-392.3 791.42,-402.56 799.88,-396.19 794.06,-392.3"/>
</a>
</g>
</g>
<!-- Node14 -->
<g id="Node000014" class="node">
<title>Node14</title>
<g id="a_Node000014"><a xlink:href="refinement__manager_8h.html" target="_top" xlink:title=" ">
<polygon fill="white" stroke="#666666" points="855.52,-298.75 726.27,-298.75 726.27,-265.25 855.52,-265.25 855.52,-298.75"/>
<text text-anchor="start" x="734.27" y="-285.25" font-family="Helvetica,sans-Serif" font-size="10.00">include/prismspf/core</text>
<text text-anchor="middle" x="790.9" y="-272.5" font-family="Helvetica,sans-Serif" font-size="10.00">/refinement_manager.h</text>
</a>
</g>
</g>
<!-- Node12&#45;&gt;Node14 -->
<g id="edge17_Node000012_Node000014" class="edge">
<title>Node12&#45;&gt;Node14</title>
<g id="a_edge17_Node000012_Node000014"><a xlink:title=" ">
<path fill="none" stroke="#63b8ff" d="M782.09,-392.62C784.35,-364.54 787.78,-321.82 789.62,-298.88"/>
<polygon fill="#63b8ff" stroke="#63b8ff" points="778.61,-392.26 781.3,-402.51 785.59,-392.82 778.61,-392.26"/>
</a>
</g>
</g>
<!-- Node12&#45;&gt;Node15 -->
<g id="edge19_Node000012_Node000015" class="edge">
<title>Node12&#45;&gt;Node15</title>
<g id="a_edge19_Node000012_Node000015"><a xlink:title=" ">
<path fill="none" stroke="#63b8ff" d="M859.06,-401.96C902.67,-392.02 957.77,-379.46 1006.9,-368.25 1009.53,-367.65 1012.22,-367.03 1014.94,-366.41"/>
<polygon fill="#63b8ff" stroke="#63b8ff" points="858.39,-398.52 849.41,-404.16 859.94,-405.35 858.39,-398.52"/>
</a>
</g>
</g>
<!-- Node17 -->
<g id="Node000017" class="node">
<title>Node17</title>
<g id="a_Node000017"><a xlink:href="nucleation__manager_8h.html" target="_top" xlink:title=" ">
<polygon fill="white" stroke="#666666" points="997.4,-368.25 846.4,-368.25 846.4,-334.75 997.4,-334.75 997.4,-368.25"/>
<text text-anchor="start" x="854.4" y="-354.75" font-family="Helvetica,sans-Serif" font-size="10.00">include/prismspf/nucleation</text>
<text text-anchor="middle" x="921.9" y="-342" font-family="Helvetica,sans-Serif" font-size="10.00">/nucleation_manager.h</text>
</a>
</g>
</g>
<!-- Node12&#45;&gt;Node17 -->
<g id="edge23_Node000012_Node000017" class="edge">
<title>Node12&#45;&gt;Node17</title>
<g id="a_edge23_Node000012_Node000017"><a xlink:title=" ">
<path fill="none" stroke="#63b8ff" d="M824.04,-399.01C844.73,-389.18 868.98,-377.66 888.16,-368.54"/>
<polygon fill="#63b8ff" stroke="#63b8ff" points="822.8,-395.73 815.28,-403.18 825.81,-402.05 822.8,-395.73"/>
</a>
</g>
</g>
<!-- Node12&#45;&gt;Node18 -->
<g id="edge25_Node000012_Node000018" class="edge">
<title>Node12&#45;&gt;Node18</title>
<g id="a_edge25_Node000012_Node000018"><a xlink:title=" ">
<path fill="none" stroke="#63b8ff" d="M744.36,-397.79C729.08,-388.24 711.54,-377.28 697.55,-368.54"/>
<polygon fill="#63b8ff" stroke="#63b8ff" points="742.41,-400.7 752.74,-403.03 746.12,-394.76 742.41,-400.7"/>
</a>
</g>
</g>
<!-- Node13&#45;&gt;Node7 -->
<g id="edge16_Node000013_Node000007" class="edge">
<title>Node13&#45;&gt;Node7</title>
<g id="a_edge16_Node000013_Node000007"><a xlink:title=" ">
<path fill="none" stroke="#63b8ff" d="M877.81,-184.45C867.64,-139.2 847.63,-50.23 841.05,-20.96"/>
<polygon fill="#63b8ff" stroke="#63b8ff" points="874.35,-185 879.96,-193.98 881.18,-183.46 874.35,-185"/>
</a>
</g>
</g>
<!-- Node14&#45;&gt;Node13 -->
<g id="edge18_Node000014_Node000013" class="edge">
<title>Node14&#45;&gt;Node13</title>
<g id="a_edge18_Node000014_Node000013"><a xlink:title=" ">
<path fill="none" stroke="#63b8ff" d="M822.01,-258.41C835.01,-248.98 849.82,-238.23 861.69,-229.62"/>
<polygon fill="#63b8ff" stroke="#63b8ff" points="820.2,-255.41 814.16,-264.11 824.31,-261.07 820.2,-255.41"/>
</a>
</g>
</g>
<!-- Node15&#45;&gt;Node7 -->
<g id="edge21_Node000015_Node000007" class="edge">
<title>Node15&#45;&gt;Node7</title>
<g id="a_edge21_Node000015_Node000007"><a xlink:title=" ">
<path fill="none" stroke="#63b8ff" d="M1027.94,-328.81C1015.22,-320.98 1002.61,-310.99 993.9,-298.75 971.31,-267.06 973.9,-252.42 973.9,-213.5 973.9,-213.5 973.9,-213.5 973.9,-142 973.9,-80.69 901.09,-38.98 862.41,-21.15"/>
<polygon fill="#63b8ff" stroke="#63b8ff" points="1025.91,-331.67 1036.32,-333.62 1029.39,-325.6 1025.91,-331.67"/>
</a>
</g>
</g>
<!-- Node15&#45;&gt;Node15 -->
<g id="edge20_Node000015_Node000015" class="edge">
<title>Node15&#45;&gt;Node15</title>
<g id="a_edge20_Node000015_Node000015"><a xlink:title=" ">
<path fill="none" stroke="#63b8ff" d="M1147.61,-360.45C1151.86,-358.31 1154.4,-355.33 1154.4,-351.5 1154.4,-345.05 1147.19,-341 1136.79,-339.33"/>
<polygon fill="#63b8ff" stroke="#63b8ff" points="1146.83,-357.04 1138.24,-363.23 1148.82,-363.75 1146.83,-357.04"/>
</a>
</g>
</g>
<!-- Node16 -->
<g id="Node000016" class="node">
<title>Node16</title>
<g id="a_Node000016"><a xlink:href="solution__output_8cc.html" target="_top" xlink:title=" ">
<polygon fill="white" stroke="#666666" points="1149.15,-292.38 1002.65,-292.38 1002.65,-271.62 1149.15,-271.62 1149.15,-292.38"/>
<text text-anchor="middle" x="1075.9" y="-278.88" font-family="Helvetica,sans-Serif" font-size="10.00">src/core/solution_output.cc</text>
</a>
</g>
</g>
<!-- Node15&#45;&gt;Node16 -->
<g id="edge22_Node000015_Node000016" class="edge">
<title>Node15&#45;&gt;Node16</title>
<g id="a_edge22_Node000015_Node000016"><a xlink:title=" ">
<path fill="none" stroke="#63b8ff" d="M1075.9,-323.03C1075.9,-312.33 1075.9,-300.76 1075.9,-292.82"/>
<polygon fill="#63b8ff" stroke="#63b8ff" points="1072.4,-322.99 1075.9,-332.99 1079.4,-322.99 1072.4,-322.99"/>
</a>
</g>
</g>
<!-- Node17&#45;&gt;Node13 -->
<g id="edge24_Node000017_Node000013" class="edge">
<title>Node17&#45;&gt;Node13</title>
<g id="a_edge24_Node000017_Node000013"><a xlink:title=" ">
<path fill="none" stroke="#63b8ff" d="M914.41,-323.5C906.62,-295.42 894.69,-252.42 888.3,-229.38"/>
<polygon fill="#63b8ff" stroke="#63b8ff" points="911.01,-324.36 917.06,-333.06 917.76,-322.49 911.01,-324.36"/>
</a>
</g>
</g>
<!-- Node18&#45;&gt;Node4 -->
<g id="edge31_Node000018_Node000004" class="edge">
<title>Node18&#45;&gt;Node4</title>
<g id="a_edge31_Node000018_Node000004"><a xlink:title=" ">
<path fill="none" stroke="#63b8ff" d="M592.77,-334.88C533.73,-323.23 453.89,-307.47 397.74,-296.39"/>
<polygon fill="#63b8ff" stroke="#63b8ff" points="591.95,-338.29 602.43,-336.79 593.3,-331.42 591.95,-338.29"/>
</a>
</g>
</g>
<!-- Node18&#45;&gt;Node5 -->
<g id="edge29_Node000018_Node000005" class="edge">
<title>Node18&#45;&gt;Node5</title>
<g id="a_edge29_Node000018_Node000005"><a xlink:title=" ">
<path fill="none" stroke="#63b8ff" d="M674.74,-323.13C676.74,-306.32 679.79,-284.42 683.9,-265.25 686.48,-253.18 690.39,-239.79 693.57,-229.66"/>
<polygon fill="#63b8ff" stroke="#63b8ff" points="671.29,-322.52 673.65,-332.85 678.25,-323.31 671.29,-322.52"/>
</a>
</g>
</g>
<!-- Node18&#45;&gt;Node7 -->
<g id="edge33_Node000018_Node000007" class="edge">
<title>Node18&#45;&gt;Node7</title>
<g id="a_edge33_Node000018_Node000007"><a xlink:title=" ">
<path fill="none" stroke="#63b8ff" d="M681.61,-323.77C689.16,-305.7 701.03,-282.14 716.9,-265.25 737.93,-242.86 757.25,-253.66 775.9,-229.25 827.28,-161.97 836.79,-54.02 838.52,-21.17"/>
<polygon fill="#63b8ff" stroke="#63b8ff" points="678.36,-322.48 677.92,-333.06 684.86,-325.05 678.36,-322.48"/>
</a>
</g>
</g>
<!-- Node18&#45;&gt;Node9 -->
<g id="edge30_Node000018_Node000009" class="edge">
<title>Node18&#45;&gt;Node9</title>
<g id="a_edge30_Node000018_Node000009"><a xlink:title=" ">
<path fill="none" stroke="#63b8ff" d="M592.74,-333.54C544.2,-322.34 490,-308.07 482.9,-298.75 467.23,-278.21 482.46,-247.92 494.78,-229.52"/>
<polygon fill="#63b8ff" stroke="#63b8ff" points="591.95,-336.95 602.48,-335.76 593.51,-330.13 591.95,-336.95"/>
</a>
</g>
</g>
<!-- Node18&#45;&gt;Node10 -->
<g id="edge32_Node000018_Node000010" class="edge">
<title>Node18&#45;&gt;Node10</title>
<g id="a_edge32_Node000018_Node000010"><a xlink:title=" ">
<path fill="none" stroke="#63b8ff" d="M592.61,-332.98C541.21,-321.12 481.99,-306.27 471.9,-298.75 426.62,-265.02 414.92,-192.56 411.92,-160.19"/>
<polygon fill="#63b8ff" stroke="#63b8ff" points="591.77,-336.38 602.3,-335.21 593.33,-329.56 591.77,-336.38"/>
</a>
</g>
</g>
<!-- Node18&#45;&gt;Node14 -->
<g id="edge26_Node000018_Node000014" class="edge">
<title>Node18&#45;&gt;Node14</title>
<g id="a_edge26_Node000018_Node000014"><a xlink:title=" ">
<path fill="none" stroke="#63b8ff" d="M710.09,-328.84C727.15,-319.16 746.92,-307.95 762.62,-299.04"/>
<polygon fill="#63b8ff" stroke="#63b8ff" points="708.69,-325.61 701.72,-333.59 712.14,-331.7 708.69,-325.61"/>
</a>
</g>
</g>
<!-- Node19 -->
<g id="Node000019" class="node">
<title>Node19</title>
<g id="a_Node000019"><a xlink:href="constant__solver_8h.html" target="_top" xlink:title=" ">
<polygon fill="white" stroke="#666666" points="670.52,-159.75 535.27,-159.75 535.27,-126.25 670.52,-126.25 670.52,-159.75"/>
<text text-anchor="start" x="543.27" y="-146.25" font-family="Helvetica,sans-Serif" font-size="10.00">include/prismspf/solvers</text>
<text text-anchor="middle" x="602.9" y="-133.5" font-family="Helvetica,sans-Serif" font-size="10.00">/constant_solver.h</text>
</a>
</g>
</g>
<!-- Node18&#45;&gt;Node19 -->
<g id="edge27_Node000018_Node000019" class="edge">
<title>Node18&#45;&gt;Node19</title>
<g id="a_edge27_Node000018_Node000019"><a xlink:title=" ">
<path fill="none" stroke="#63b8ff" d="M659.5,-324.19C648.46,-299.95 632.46,-262.77 621.9,-229.25 614.47,-205.68 608.8,-177.56 605.66,-160.24"/>
<polygon fill="#63b8ff" stroke="#63b8ff" points="656.19,-325.37 663.56,-332.98 662.55,-322.44 656.19,-325.37"/>
</a>
</g>
</g>
<!-- Node20 -->
<g id="Node000020" class="node">
<title>Node20</title>
<g id="a_Node000020"><a xlink:href="solver__base_8cc.html" target="_top" xlink:title=" ">
<polygon fill="white" stroke="#666666" points="593.65,-298.75 492.15,-298.75 492.15,-265.25 593.65,-265.25 593.65,-298.75"/>
<text text-anchor="start" x="500.15" y="-285.25" font-family="Helvetica,sans-Serif" font-size="10.00">src/solvers/solver</text>
<text text-anchor="middle" x="542.9" y="-272.5" font-family="Helvetica,sans-Serif" font-size="10.00">_base.cc</text>
</a>
</g>
</g>
<!-- Node18&#45;&gt;Node20 -->
<g id="edge34_Node000018_Node000020" class="edge">
<title>Node18&#45;&gt;Node20</title>
<g id="a_edge34_Node000018_Node000020"><a xlink:title=" ">
<path fill="none" stroke="#63b8ff" d="M631.01,-329.11C612.4,-319.37 590.73,-308.03 573.54,-299.04"/>
<polygon fill="#63b8ff" stroke="#63b8ff" points="629.17,-332.1 639.66,-333.63 632.42,-325.89 629.17,-332.1"/>
</a>
</g>
</g>
<!-- Node19&#45;&gt;Node6 -->
<g id="edge28_Node000019_Node000006" class="edge">
<title>Node19&#45;&gt;Node6</title>
<g id="a_edge28_Node000019_Node000006"><a xlink:title=" ">
<path fill="none" stroke="#63b8ff" d="M602.9,-114.56C602.9,-106.34 602.9,-97.59 602.9,-90.38"/>
<polygon fill="#63b8ff" stroke="#63b8ff" points="599.4,-114.49 602.9,-124.49 606.4,-114.49 599.4,-114.49"/>
</a>
</g>
</g>
</g>
</svg>
