<?xml version="1.0" encoding="UTF-8" standalone="no"?>
<!DOCTYPE svg PUBLIC "-//W3C//DTD SVG 1.1//EN"
 "http://www.w3.org/Graphics/SVG/1.1/DTD/svg11.dtd">
<!-- Generated by graphviz version 12.2.1 (20241206.2353)
 -->
<!-- Title: /__w/phaseField/phaseField/include/prismspf/core/solution_indexer.h Pages: 1 -->
<svg width="1300pt" height="782pt"
 viewBox="0.00 0.00 1300.05 781.75" xmlns="http://www.w3.org/2000/svg" xmlns:xlink="http://www.w3.org/1999/xlink">
<g id="graph0" class="graph" transform="scale(1 1) rotate(0) translate(4 777.75)">
<title>/__w/phaseField/phaseField/include/prismspf/core/solution_indexer.h</title>
<!-- Node1 -->
<g id="Node000001" class="node">
<title>Node1</title>
<g id="a_Node000001"><a xlink:title=" ">
<polygon fill="#999999" stroke="#666666" points="947.05,-773.75 781.05,-773.75 781.05,-727.5 947.05,-727.5 947.05,-773.75"/>
<text text-anchor="start" x="789.05" y="-760.25" font-family="Helvetica,sans-Serif" font-size="10.00">/__w/phaseField/phaseField</text>
<text text-anchor="start" x="789.05" y="-747.5" font-family="Helvetica,sans-Serif" font-size="10.00">/include/prismspf/core/solution</text>
<text text-anchor="middle" x="864.05" y="-734.75" font-family="Helvetica,sans-Serif" font-size="10.00">_indexer.h</text>
</a>
</g>
</g>
<!-- Node2 -->
<g id="Node000002" class="node">
<title>Node2</title>
<g id="a_Node000002"><a xlink:href="field__container_8h.html" target="_top" xlink:title=" ">
<polygon fill="white" stroke="#666666" points="281.43,-691.5 132.68,-691.5 132.68,-645.25 281.43,-645.25 281.43,-691.5"/>
<text text-anchor="start" x="140.68" y="-678" font-family="Helvetica,sans-Serif" font-size="10.00">/__w/phaseField/phaseField</text>
<text text-anchor="start" x="140.68" y="-665.25" font-family="Helvetica,sans-Serif" font-size="10.00">/include/prismspf/core/field</text>
<text text-anchor="middle" x="207.05" y="-652.5" font-family="Helvetica,sans-Serif" font-size="10.00">_container.h</text>
</a>
</g>
</g>
<!-- Node1&#45;&gt;Node2 -->
<g id="edge1_Node000001_Node000002" class="edge">
<title>Node1&#45;&gt;Node2</title>
<g id="a_edge1_Node000001_Node000002"><a xlink:title=" ">
<path fill="none" stroke="#63b8ff" d="M769.59,-738.09C637.83,-721.99 401.56,-693.13 281.49,-678.47"/>
<polygon fill="#63b8ff" stroke="#63b8ff" points="768.99,-741.54 779.34,-739.28 769.84,-734.59 768.99,-741.54"/>
</a>
</g>
</g>
<!-- Node4 -->
<g id="Node000004" class="node">
<title>Node4</title>
<g id="a_Node000004"><a xlink:href="mf__operator_8h.html" target="_top" xlink:title=" ">
<polygon fill="white" stroke="#666666" points="400.43,-362.5 251.68,-362.5 251.68,-316.25 400.43,-316.25 400.43,-362.5"/>
<text text-anchor="start" x="259.68" y="-349" font-family="Helvetica,sans-Serif" font-size="10.00">/__w/phaseField/phaseField</text>
<text text-anchor="start" x="259.68" y="-336.25" font-family="Helvetica,sans-Serif" font-size="10.00">/include/prismspf/solvers</text>
<text text-anchor="middle" x="326.05" y="-323.5" font-family="Helvetica,sans-Serif" font-size="10.00">/mf_operator.h</text>
</a>
</g>
</g>
<!-- Node1&#45;&gt;Node4 -->
<g id="edge42_Node000001_Node000004" class="edge">
<title>Node1&#45;&gt;Node4</title>
<g id="a_edge42_Node000001_Node000004"><a xlink:title=" ">
<path fill="none" stroke="#63b8ff" d="M842.68,-718.26C794.33,-649.73 669.46,-485.77 525.05,-398.5 503.87,-385.7 448.04,-369.88 400.88,-357.98"/>
<polygon fill="#63b8ff" stroke="#63b8ff" points="839.52,-719.85 848.12,-726.04 845.26,-715.84 839.52,-719.85"/>
</a>
</g>
</g>
<!-- Node12 -->
<g id="Node000012" class="node">
<title>Node12</title>
<g id="a_Node000012"><a xlink:href="solve__context_8h.html" target="_top" xlink:title=" ">
<polygon fill="white" stroke="#666666" points="938.43,-527 789.68,-527 789.68,-480.75 938.43,-480.75 938.43,-527"/>
<text text-anchor="start" x="797.68" y="-513.5" font-family="Helvetica,sans-Serif" font-size="10.00">/__w/phaseField/phaseField</text>
<text text-anchor="start" x="797.68" y="-500.75" font-family="Helvetica,sans-Serif" font-size="10.00">/include/prismspf/solvers</text>
<text text-anchor="middle" x="864.05" y="-488" font-family="Helvetica,sans-Serif" font-size="10.00">/solve_context.h</text>
</a>
</g>
</g>
<!-- Node1&#45;&gt;Node12 -->
<g id="edge43_Node000001_Node000012" class="edge">
<title>Node1&#45;&gt;Node12</title>
<g id="a_edge43_Node000001_Node000012"><a xlink:title=" ">
<path fill="none" stroke="#63b8ff" d="M864.05,-715.72C864.05,-664.94 864.05,-570.53 864.05,-527.41"/>
<polygon fill="#63b8ff" stroke="#63b8ff" points="860.55,-715.52 864.05,-725.52 867.55,-715.52 860.55,-715.52"/>
</a>
</g>
</g>
<!-- Node15 -->
<g id="Node000015" class="node">
<title>Node15</title>
<g id="a_Node000015"><a xlink:href="solution__output_8h.html" target="_top" xlink:title=" ">
<polygon fill="white" stroke="#666666" points="1274.05,-444.75 1108.05,-444.75 1108.05,-398.5 1274.05,-398.5 1274.05,-444.75"/>
<text text-anchor="start" x="1116.05" y="-431.25" font-family="Helvetica,sans-Serif" font-size="10.00">/__w/phaseField/phaseField</text>
<text text-anchor="start" x="1116.05" y="-418.5" font-family="Helvetica,sans-Serif" font-size="10.00">/include/prismspf/core/solution</text>
<text text-anchor="middle" x="1191.05" y="-405.75" font-family="Helvetica,sans-Serif" font-size="10.00">_output.h</text>
</a>
</g>
</g>
<!-- Node1&#45;&gt;Node15 -->
<g id="edge41_Node000001_Node000015" class="edge">
<title>Node1&#45;&gt;Node15</title>
<g id="a_edge41_Node000001_Node000015"><a xlink:title=" ">
<path fill="none" stroke="#63b8ff" d="M894.4,-719.28C959.6,-654.08 1111.73,-501.95 1168.85,-444.83"/>
<polygon fill="#63b8ff" stroke="#63b8ff" points="892.19,-716.53 887.6,-726.08 897.14,-721.48 892.19,-716.53"/>
</a>
</g>
</g>
<!-- Node24 -->
<g id="Node000024" class="node">
<title>Node24</title>
<g id="a_Node000024"><a xlink:href="solution__indexer_8cc.html" target="_top" xlink:title=" ">
<polygon fill="white" stroke="#666666" points="1147.68,-685.12 994.43,-685.12 994.43,-651.62 1147.68,-651.62 1147.68,-685.12"/>
<text text-anchor="start" x="1002.43" y="-671.62" font-family="Helvetica,sans-Serif" font-size="10.00">/__w/phaseField/phaseField</text>
<text text-anchor="middle" x="1071.05" y="-658.88" font-family="Helvetica,sans-Serif" font-size="10.00">/src/core/solution_indexer.cc</text>
</a>
</g>
</g>
<!-- Node1&#45;&gt;Node24 -->
<g id="edge44_Node000001_Node000024" class="edge">
<title>Node1&#45;&gt;Node24</title>
<g id="a_edge44_Node000001_Node000024"><a xlink:title=" ">
<path fill="none" stroke="#63b8ff" d="M932.88,-722.94C964.81,-710.56 1001.71,-696.26 1029.34,-685.55"/>
<polygon fill="#63b8ff" stroke="#63b8ff" points="931.73,-719.63 923.67,-726.51 934.26,-726.16 931.73,-719.63"/>
</a>
</g>
</g>
<!-- Node3 -->
<g id="Node000003" class="node">
<title>Node3</title>
<g id="a_Node000003"><a xlink:href="pde__operator__base_8h.html" target="_top" xlink:title=" ">
<polygon fill="white" stroke="#666666" points="594.43,-609.25 445.68,-609.25 445.68,-563 594.43,-563 594.43,-609.25"/>
<text text-anchor="start" x="453.68" y="-595.75" font-family="Helvetica,sans-Serif" font-size="10.00">/__w/phaseField/phaseField</text>
<text text-anchor="start" x="453.68" y="-583" font-family="Helvetica,sans-Serif" font-size="10.00">/include/prismspf/core/pde</text>
<text text-anchor="middle" x="520.05" y="-570.25" font-family="Helvetica,sans-Serif" font-size="10.00">_operator_base.h</text>
</a>
</g>
</g>
<!-- Node2&#45;&gt;Node3 -->
<g id="edge2_Node000002_Node000003" class="edge">
<title>Node2&#45;&gt;Node3</title>
<g id="a_edge2_Node000002_Node000003"><a xlink:title=" ">
<path fill="none" stroke="#63b8ff" d="M292.57,-645.45C340.34,-633.2 399.31,-618.08 445.24,-606.31"/>
<polygon fill="#63b8ff" stroke="#63b8ff" points="291.91,-642.01 283.09,-647.88 293.65,-648.79 291.91,-642.01"/>
</a>
</g>
</g>
<!-- Node2&#45;&gt;Node4 -->
<g id="edge38_Node000002_Node000004" class="edge">
<title>Node2&#45;&gt;Node4</title>
<g id="a_edge38_Node000002_Node000004"><a xlink:title=" ">
<path fill="none" stroke="#63b8ff" d="M205.39,-633.49C204.65,-595.16 206.94,-531.49 226.05,-480.75 243.56,-434.27 280.41,-389.04 304.15,-362.99"/>
<polygon fill="#63b8ff" stroke="#63b8ff" points="201.89,-633.58 205.67,-643.48 208.88,-633.38 201.89,-633.58"/>
</a>
</g>
</g>
<!-- Node11 -->
<g id="Node000011" class="node">
<title>Node11</title>
<g id="a_Node000011"><a xlink:href="mf__operator_8cc.html" target="_top" xlink:title=" ">
<polygon fill="white" stroke="#666666" points="197.43,-273.88 48.68,-273.88 48.68,-240.38 197.43,-240.38 197.43,-273.88"/>
<text text-anchor="start" x="56.68" y="-260.38" font-family="Helvetica,sans-Serif" font-size="10.00">/__w/phaseField/phaseField</text>
<text text-anchor="middle" x="123.05" y="-247.62" font-family="Helvetica,sans-Serif" font-size="10.00">/src/solvers/mf_operator.cc</text>
</a>
</g>
</g>
<!-- Node2&#45;&gt;Node11 -->
<g id="edge40_Node000002_Node000011" class="edge">
<title>Node2&#45;&gt;Node11</title>
<g id="a_edge40_Node000002_Node000011"><a xlink:title=" ">
<path fill="none" stroke="#63b8ff" d="M121.34,-659.8C85.79,-652.27 47.09,-637.61 22.05,-609.25 -9.15,-573.9 3.05,-552.03 3.05,-504.88 3.05,-504.88 3.05,-504.88 3.05,-420.62 3.05,-356.27 64.71,-300.68 99.63,-274.36"/>
<polygon fill="#63b8ff" stroke="#63b8ff" points="120.28,-663.16 130.77,-661.62 121.61,-656.29 120.28,-663.16"/>
</a>
</g>
</g>
<!-- Node23 -->
<g id="Node000023" class="node">
<title>Node23</title>
<g id="a_Node000023"><a xlink:href="field__container_8cc.html" target="_top" xlink:title=" ">
<polygon fill="white" stroke="#666666" points="179.43,-602.88 30.68,-602.88 30.68,-569.38 179.43,-569.38 179.43,-602.88"/>
<text text-anchor="start" x="38.68" y="-589.38" font-family="Helvetica,sans-Serif" font-size="10.00">/__w/phaseField/phaseField</text>
<text text-anchor="middle" x="105.05" y="-576.62" font-family="Helvetica,sans-Serif" font-size="10.00">/src/core/field_container.cc</text>
</a>
</g>
</g>
<!-- Node2&#45;&gt;Node23 -->
<g id="edge39_Node000002_Node000023" class="edge">
<title>Node2&#45;&gt;Node23</title>
<g id="a_edge39_Node000002_Node000023"><a xlink:title=" ">
<path fill="none" stroke="#63b8ff" d="M169.37,-637.73C154.5,-626.03 138.01,-613.05 125.44,-603.17"/>
<polygon fill="#63b8ff" stroke="#63b8ff" points="167.15,-640.44 177.18,-643.87 171.48,-634.94 167.15,-640.44"/>
</a>
</g>
</g>
<!-- Node3&#45;&gt;Node4 -->
<g id="edge3_Node000003_Node000004" class="edge">
<title>Node3&#45;&gt;Node4</title>
<g id="a_edge3_Node000003_Node000004"><a xlink:title=" ">
<path fill="none" stroke="#63b8ff" d="M552.27,-553.98C558.72,-545.86 564.58,-536.66 568.05,-527 575.01,-507.66 578.31,-498.56 568.05,-480.75 532.41,-418.88 457.91,-381.78 400.93,-361.4"/>
<polygon fill="#63b8ff" stroke="#63b8ff" points="549.68,-551.63 545.82,-561.49 554.99,-556.19 549.68,-551.63"/>
</a>
</g>
</g>
<!-- Node3&#45;&gt;Node12 -->
<g id="edge14_Node000003_Node000012" class="edge">
<title>Node3&#45;&gt;Node12</title>
<g id="a_edge14_Node000003_Node000012"><a xlink:title=" ">
<path fill="none" stroke="#63b8ff" d="M605.74,-565.14C662.13,-551.98 735.22,-534.93 789.26,-522.32"/>
<polygon fill="#63b8ff" stroke="#63b8ff" points="605.11,-561.69 596.17,-567.37 606.7,-568.5 605.11,-561.69"/>
</a>
</g>
</g>
<!-- Node18 -->
<g id="Node000018" class="node">
<title>Node18</title>
<g id="a_Node000018"><a xlink:href="solver__base_8h.html" target="_top" xlink:title=" ">
<polygon fill="white" stroke="#666666" points="801.43,-444.75 652.68,-444.75 652.68,-398.5 801.43,-398.5 801.43,-444.75"/>
<text text-anchor="start" x="660.68" y="-431.25" font-family="Helvetica,sans-Serif" font-size="10.00">/__w/phaseField/phaseField</text>
<text text-anchor="start" x="660.68" y="-418.5" font-family="Helvetica,sans-Serif" font-size="10.00">/include/prismspf/solvers</text>
<text text-anchor="middle" x="727.05" y="-405.75" font-family="Helvetica,sans-Serif" font-size="10.00">/solver_base.h</text>
</a>
</g>
</g>
<!-- Node3&#45;&gt;Node18 -->
<g id="edge35_Node000003_Node000018" class="edge">
<title>Node3&#45;&gt;Node18</title>
<g id="a_edge35_Node000003_Node000018"><a xlink:title=" ">
<path fill="none" stroke="#63b8ff" d="M561.44,-556.26C574.27,-547.09 588.37,-536.78 601.05,-527 636.36,-499.76 675.75,-466.67 700.94,-445.16"/>
<polygon fill="#63b8ff" stroke="#63b8ff" points="559.71,-553.19 553.59,-561.84 563.77,-558.9 559.71,-553.19"/>
</a>
</g>
</g>
<!-- Node21 -->
<g id="Node000021" class="node">
<title>Node21</title>
<g id="a_Node000021"><a xlink:href="dirichlet_8cc.html" target="_top" xlink:title=" ">
<polygon fill="white" stroke="#666666" points="383.43,-520.62 234.68,-520.62 234.68,-487.12 383.43,-487.12 383.43,-520.62"/>
<text text-anchor="start" x="242.68" y="-507.12" font-family="Helvetica,sans-Serif" font-size="10.00">/__w/phaseField/phaseField</text>
<text text-anchor="middle" x="309.05" y="-494.38" font-family="Helvetica,sans-Serif" font-size="10.00">/src/core/dirichlet.cc</text>
</a>
</g>
</g>
<!-- Node3&#45;&gt;Node21 -->
<g id="edge36_Node000003_Node000021" class="edge">
<title>Node3&#45;&gt;Node21</title>
<g id="a_edge36_Node000003_Node000021"><a xlink:title=" ">
<path fill="none" stroke="#63b8ff" d="M450.32,-558.6C417.68,-546.19 379.86,-531.8 351.57,-521.05"/>
<polygon fill="#63b8ff" stroke="#63b8ff" points="448.71,-561.74 459.3,-562.02 451.2,-555.19 448.71,-561.74"/>
</a>
</g>
</g>
<!-- Node22 -->
<g id="Node000022" class="node">
<title>Node22</title>
<g id="a_Node000022"><a xlink:href="initial__conditions_8cc.html" target="_top" xlink:title=" ">
<polygon fill="white" stroke="#666666" points="558.55,-520.62 401.55,-520.62 401.55,-487.12 558.55,-487.12 558.55,-520.62"/>
<text text-anchor="start" x="409.55" y="-507.12" font-family="Helvetica,sans-Serif" font-size="10.00">/__w/phaseField/phaseField</text>
<text text-anchor="middle" x="480.05" y="-494.38" font-family="Helvetica,sans-Serif" font-size="10.00">/src/core/initial_conditions.cc</text>
</a>
</g>
</g>
<!-- Node3&#45;&gt;Node22 -->
<g id="edge37_Node000003_Node000022" class="edge">
<title>Node3&#45;&gt;Node22</title>
<g id="a_edge37_Node000003_Node000022"><a xlink:title=" ">
<path fill="none" stroke="#63b8ff" d="M503.88,-552.67C498.44,-541.77 492.62,-530.09 488.09,-521"/>
<polygon fill="#63b8ff" stroke="#63b8ff" points="500.64,-554.03 508.23,-561.42 506.91,-550.91 500.64,-554.03"/>
</a>
</g>
</g>
<!-- Node5 -->
<g id="Node000005" class="node">
<title>Node5</title>
<g id="a_Node000005"><a xlink:href="explicit__solver_8h.html" target="_top" xlink:title=" ">
<polygon fill="white" stroke="#666666" points="808.43,-280.25 659.68,-280.25 659.68,-234 808.43,-234 808.43,-280.25"/>
<text text-anchor="start" x="667.68" y="-266.75" font-family="Helvetica,sans-Serif" font-size="10.00">/__w/phaseField/phaseField</text>
<text text-anchor="start" x="667.68" y="-254" font-family="Helvetica,sans-Serif" font-size="10.00">/include/prismspf/solvers</text>
<text text-anchor="middle" x="734.05" y="-241.25" font-family="Helvetica,sans-Serif" font-size="10.00">/explicit_solver.h</text>
</a>
</g>
</g>
<!-- Node4&#45;&gt;Node5 -->
<g id="edge4_Node000004_Node000005" class="edge">
<title>Node4&#45;&gt;Node5</title>
<g id="a_edge4_Node000004_Node000005"><a xlink:title=" ">
<path fill="none" stroke="#63b8ff" d="M411.91,-321.49C485.18,-307.07 589.48,-286.56 659.35,-272.82"/>
<polygon fill="#63b8ff" stroke="#63b8ff" points="411.51,-318 402.37,-323.36 412.86,-324.87 411.51,-318"/>
</a>
</g>
</g>
<!-- Node9 -->
<g id="Node000009" class="node">
<title>Node9</title>
<g id="a_Node000009"><a xlink:href="linear__solver_8h.html" target="_top" xlink:title=" ">
<polygon fill="white" stroke="#666666" points="604.43,-280.25 455.68,-280.25 455.68,-234 604.43,-234 604.43,-280.25"/>
<text text-anchor="start" x="463.68" y="-266.75" font-family="Helvetica,sans-Serif" font-size="10.00">/__w/phaseField/phaseField</text>
<text text-anchor="start" x="463.68" y="-254" font-family="Helvetica,sans-Serif" font-size="10.00">/include/prismspf/solvers</text>
<text text-anchor="middle" x="530.05" y="-241.25" font-family="Helvetica,sans-Serif" font-size="10.00">/linear_solver.h</text>
</a>
</g>
</g>
<!-- Node4&#45;&gt;Node9 -->
<g id="edge8_Node000004_Node000009" class="edge">
<title>Node4&#45;&gt;Node9</title>
<g id="a_edge8_Node000004_Node000009"><a xlink:title=" ">
<path fill="none" stroke="#63b8ff" d="M394.13,-311.59C419.64,-301.56 448.33,-290.27 472.76,-280.66"/>
<polygon fill="#63b8ff" stroke="#63b8ff" points="392.85,-308.34 384.83,-315.25 395.42,-314.85 392.85,-308.34"/>
</a>
</g>
</g>
<!-- Node10 -->
<g id="Node000010" class="node">
<title>Node10</title>
<g id="a_Node000010"><a xlink:href="newton__solver_8h.html" target="_top" xlink:title=" ">
<polygon fill="white" stroke="#666666" points="502.43,-198 353.68,-198 353.68,-151.75 502.43,-151.75 502.43,-198"/>
<text text-anchor="start" x="361.68" y="-184.5" font-family="Helvetica,sans-Serif" font-size="10.00">/__w/phaseField/phaseField</text>
<text text-anchor="start" x="361.68" y="-171.75" font-family="Helvetica,sans-Serif" font-size="10.00">/include/prismspf/solvers</text>
<text text-anchor="middle" x="428.05" y="-159" font-family="Helvetica,sans-Serif" font-size="10.00">/newton_solver.h</text>
</a>
</g>
</g>
<!-- Node4&#45;&gt;Node10 -->
<g id="edge12_Node000004_Node000010" class="edge">
<title>Node4&#45;&gt;Node10</title>
<g id="a_edge12_Node000004_Node000010"><a xlink:title=" ">
<path fill="none" stroke="#63b8ff" d="M346.35,-306.03C366.38,-274.13 396.46,-226.2 413.99,-198.28"/>
<polygon fill="#63b8ff" stroke="#63b8ff" points="343.39,-304.17 341.04,-314.5 349.32,-307.89 343.39,-304.17"/>
</a>
</g>
</g>
<!-- Node4&#45;&gt;Node11 -->
<g id="edge13_Node000004_Node000011" class="edge">
<title>Node4&#45;&gt;Node11</title>
<g id="a_edge13_Node000004_Node000011"><a xlink:title=" ">
<path fill="none" stroke="#63b8ff" d="M258.55,-311.69C227.24,-299.31 191.05,-285.01 163.95,-274.3"/>
<polygon fill="#63b8ff" stroke="#63b8ff" points="256.97,-314.83 267.56,-315.25 259.54,-308.32 256.97,-314.83"/>
</a>
</g>
</g>
<!-- Node6 -->
<g id="Node000006" class="node">
<title>Node6</title>
<g id="a_Node000006"><a xlink:href="solvers_8h.html" target="_top" xlink:title=" ">
<polygon fill="white" stroke="#666666" points="706.43,-115.75 557.68,-115.75 557.68,-69.5 706.43,-69.5 706.43,-115.75"/>
<text text-anchor="start" x="565.68" y="-102.25" font-family="Helvetica,sans-Serif" font-size="10.00">/__w/phaseField/phaseField</text>
<text text-anchor="start" x="565.68" y="-89.5" font-family="Helvetica,sans-Serif" font-size="10.00">/include/prismspf/solvers</text>
<text text-anchor="middle" x="632.05" y="-76.75" font-family="Helvetica,sans-Serif" font-size="10.00">/solvers.h</text>
</a>
</g>
</g>
<!-- Node5&#45;&gt;Node6 -->
<g id="edge5_Node000005_Node000006" class="edge">
<title>Node5&#45;&gt;Node6</title>
<g id="a_edge5_Node000005_Node000006"><a xlink:title=" ">
<path fill="none" stroke="#63b8ff" d="M734.32,-222.24C733.02,-200.57 728.47,-172.68 715.05,-151.75 705.75,-137.24 691.4,-125.32 677.24,-116.13"/>
<polygon fill="#63b8ff" stroke="#63b8ff" points="730.82,-222.19 734.69,-232.05 737.81,-221.93 730.82,-222.19"/>
</a>
</g>
</g>
<!-- Node7 -->
<g id="Node000007" class="node">
<title>Node7</title>
<g id="a_Node000007"><a xlink:href="problem_8cc.html" target="_top" xlink:title=" ">
<polygon fill="white" stroke="#666666" points="951.43,-33.5 802.68,-33.5 802.68,0 951.43,0 951.43,-33.5"/>
<text text-anchor="start" x="810.68" y="-20" font-family="Helvetica,sans-Serif" font-size="10.00">/__w/phaseField/phaseField</text>
<text text-anchor="middle" x="877.05" y="-7.25" font-family="Helvetica,sans-Serif" font-size="10.00">/src/core/problem.cc</text>
</a>
</g>
</g>
<!-- Node6&#45;&gt;Node7 -->
<g id="edge6_Node000006_Node000007" class="edge">
<title>Node6&#45;&gt;Node7</title>
<g id="a_edge6_Node000006_Node000007"><a xlink:title=" ">
<path fill="none" stroke="#63b8ff" d="M717.63,-65.82C752.74,-55.23 792.32,-43.3 823.26,-33.97"/>
<polygon fill="#63b8ff" stroke="#63b8ff" points="716.9,-62.38 708.34,-68.62 718.92,-69.09 716.9,-62.38"/>
</a>
</g>
</g>
<!-- Node8 -->
<g id="Node000008" class="node">
<title>Node8</title>
<g id="a_Node000008"><a xlink:href="solvers_8cc.html" target="_top" xlink:title=" ">
<polygon fill="white" stroke="#666666" points="706.43,-33.5 557.68,-33.5 557.68,0 706.43,0 706.43,-33.5"/>
<text text-anchor="start" x="565.68" y="-20" font-family="Helvetica,sans-Serif" font-size="10.00">/__w/phaseField/phaseField</text>
<text text-anchor="middle" x="632.05" y="-7.25" font-family="Helvetica,sans-Serif" font-size="10.00">/src/solvers/solvers.cc</text>
</a>
</g>
</g>
<!-- Node6&#45;&gt;Node8 -->
<g id="edge7_Node000006_Node000008" class="edge">
<title>Node6&#45;&gt;Node8</title>
<g id="a_edge7_Node000006_Node000008"><a xlink:title=" ">
<path fill="none" stroke="#63b8ff" d="M632.05,-57.64C632.05,-49.35 632.05,-40.86 632.05,-33.85"/>
<polygon fill="#63b8ff" stroke="#63b8ff" points="628.55,-57.55 632.05,-67.55 635.55,-57.55 628.55,-57.55"/>
</a>
</g>
</g>
<!-- Node9&#45;&gt;Node6 -->
<g id="edge11_Node000009_Node000006" class="edge">
<title>Node9&#45;&gt;Node6</title>
<g id="a_edge11_Node000009_Node000006"><a xlink:title=" ">
<path fill="none" stroke="#63b8ff" d="M529.78,-222.24C531.08,-200.57 535.63,-172.68 549.05,-151.75 558.35,-137.24 572.7,-125.32 586.86,-116.13"/>
<polygon fill="#63b8ff" stroke="#63b8ff" points="526.29,-221.93 529.41,-232.05 533.28,-222.19 526.29,-221.93"/>
</a>
</g>
</g>
<!-- Node9&#45;&gt;Node10 -->
<g id="edge9_Node000009_Node000010" class="edge">
<title>Node9&#45;&gt;Node10</title>
<g id="a_edge9_Node000009_Node000010"><a xlink:title=" ">
<path fill="none" stroke="#63b8ff" d="M492.52,-226.6C480.62,-217.24 467.67,-207.05 456.52,-198.27"/>
<polygon fill="#63b8ff" stroke="#63b8ff" points="490.15,-229.19 500.18,-232.62 494.48,-223.69 490.15,-229.19"/>
</a>
</g>
</g>
<!-- Node10&#45;&gt;Node6 -->
<g id="edge10_Node000010_Node000006" class="edge">
<title>Node10&#45;&gt;Node6</title>
<g id="a_edge10_Node000010_Node000006"><a xlink:title=" ">
<path fill="none" stroke="#63b8ff" d="M496.13,-147.09C521.64,-137.06 550.33,-125.77 574.76,-116.16"/>
<polygon fill="#63b8ff" stroke="#63b8ff" points="494.85,-143.84 486.83,-150.75 497.42,-150.35 494.85,-143.84"/>
</a>
</g>
</g>
<!-- Node13 -->
<g id="Node000013" class="node">
<title>Node13</title>
<g id="a_Node000013"><a xlink:href="problem_8h.html" target="_top" xlink:title=" ">
<polygon fill="white" stroke="#666666" points="1050.3,-273.88 873.8,-273.88 873.8,-240.38 1050.3,-240.38 1050.3,-273.88"/>
<text text-anchor="start" x="881.8" y="-260.38" font-family="Helvetica,sans-Serif" font-size="10.00">/__w/phaseField/phaseField</text>
<text text-anchor="middle" x="962.05" y="-247.62" font-family="Helvetica,sans-Serif" font-size="10.00">/include/prismspf/core/problem.h</text>
</a>
</g>
</g>
<!-- Node12&#45;&gt;Node13 -->
<g id="edge15_Node000012_Node000013" class="edge">
<title>Node12&#45;&gt;Node13</title>
<g id="a_edge15_Node000012_Node000013"><a xlink:title=" ">
<path fill="none" stroke="#63b8ff" d="M880.96,-470.41C892.69,-449.12 909.33,-421.13 927.05,-398.5 941,-380.68 954.39,-383.41 963.05,-362.5 975.19,-333.2 970.26,-295.18 965.93,-274.06"/>
<polygon fill="#63b8ff" stroke="#63b8ff" points="878.02,-468.48 876.34,-478.94 884.18,-471.82 878.02,-468.48"/>
</a>
</g>
</g>
<!-- Node14 -->
<g id="Node000014" class="node">
<title>Node14</title>
<g id="a_Node000014"><a xlink:href="refinement__manager_8h.html" target="_top" xlink:title=" ">
<polygon fill="white" stroke="#666666" points="954.18,-362.5 773.93,-362.5 773.93,-316.25 954.18,-316.25 954.18,-362.5"/>
<text text-anchor="start" x="781.93" y="-349" font-family="Helvetica,sans-Serif" font-size="10.00">/__w/phaseField/phaseField</text>
<text text-anchor="start" x="781.93" y="-336.25" font-family="Helvetica,sans-Serif" font-size="10.00">/include/prismspf/core/refinement</text>
<text text-anchor="middle" x="864.05" y="-323.5" font-family="Helvetica,sans-Serif" font-size="10.00">_manager.h</text>
</a>
</g>
</g>
<!-- Node12&#45;&gt;Node14 -->
<g id="edge17_Node000012_Node000014" class="edge">
<title>Node12&#45;&gt;Node14</title>
<g id="a_edge17_Node000012_Node000014"><a xlink:title=" ">
<path fill="none" stroke="#63b8ff" d="M864.05,-468.86C864.05,-436.97 864.05,-390.22 864.05,-362.78"/>
<polygon fill="#63b8ff" stroke="#63b8ff" points="860.55,-468.77 864.05,-478.77 867.55,-468.77 860.55,-468.77"/>
</a>
</g>
</g>
<!-- Node12&#45;&gt;Node15 -->
<g id="edge19_Node000012_Node000015" class="edge">
<title>Node12&#45;&gt;Node15</title>
<g id="a_edge19_Node000012_Node000015"><a xlink:title=" ">
<path fill="none" stroke="#63b8ff" d="M949.54,-481.37C950.38,-481.16 951.22,-480.96 952.05,-480.75 1003.76,-467.96 1061.83,-453.83 1107.78,-442.71"/>
<polygon fill="#63b8ff" stroke="#63b8ff" points="948.79,-477.95 939.93,-483.76 950.48,-484.75 948.79,-477.95"/>
</a>
</g>
</g>
<!-- Node17 -->
<g id="Node000017" class="node">
<title>Node17</title>
<g id="a_Node000017"><a xlink:href="nucleation__manager_8h.html" target="_top" xlink:title=" ">
<polygon fill="white" stroke="#666666" points="1090.05,-444.75 936.05,-444.75 936.05,-398.5 1090.05,-398.5 1090.05,-444.75"/>
<text text-anchor="start" x="944.05" y="-431.25" font-family="Helvetica,sans-Serif" font-size="10.00">/__w/phaseField/phaseField</text>
<text text-anchor="start" x="944.05" y="-418.5" font-family="Helvetica,sans-Serif" font-size="10.00">/include/prismspf/nucleation</text>
<text text-anchor="middle" x="1013.05" y="-405.75" font-family="Helvetica,sans-Serif" font-size="10.00">/nucleation_manager.h</text>
</a>
</g>
</g>
<!-- Node12&#45;&gt;Node17 -->
<g id="edge23_Node000012_Node000017" class="edge">
<title>Node12&#45;&gt;Node17</title>
<g id="a_edge23_Node000012_Node000017"><a xlink:title=" ">
<path fill="none" stroke="#63b8ff" d="M916.03,-474.88C934.08,-465.16 954.08,-454.39 971.21,-445.16"/>
<polygon fill="#63b8ff" stroke="#63b8ff" points="914.43,-471.77 907.29,-479.59 917.75,-477.93 914.43,-471.77"/>
</a>
</g>
</g>
<!-- Node12&#45;&gt;Node18 -->
<g id="edge25_Node000012_Node000018" class="edge">
<title>Node12&#45;&gt;Node18</title>
<g id="a_edge25_Node000012_Node000018"><a xlink:title=" ">
<path fill="none" stroke="#63b8ff" d="M815.98,-474.72C799.37,-464.99 781,-454.23 765.29,-445.02"/>
<polygon fill="#63b8ff" stroke="#63b8ff" points="813.82,-477.51 824.22,-479.54 817.36,-471.47 813.82,-477.51"/>
</a>
</g>
</g>
<!-- Node13&#45;&gt;Node7 -->
<g id="edge16_Node000013_Node000007" class="edge">
<title>Node13&#45;&gt;Node7</title>
<g id="a_edge16_Node000013_Node000007"><a xlink:title=" ">
<path fill="none" stroke="#63b8ff" d="M952.58,-229.56C934.83,-179.79 897.07,-73.9 882.74,-33.69"/>
<polygon fill="#63b8ff" stroke="#63b8ff" points="949.18,-230.45 955.83,-238.69 955.77,-228.09 949.18,-230.45"/>
</a>
</g>
</g>
<!-- Node14&#45;&gt;Node13 -->
<g id="edge18_Node000014_Node000013" class="edge">
<title>Node14&#45;&gt;Node13</title>
<g id="a_edge18_Node000014_Node000013"><a xlink:title=" ">
<path fill="none" stroke="#63b8ff" d="M900.26,-308.73C914.54,-297.03 930.39,-284.05 942.46,-274.17"/>
<polygon fill="#63b8ff" stroke="#63b8ff" points="898.3,-305.8 892.78,-314.85 902.74,-311.22 898.3,-305.8"/>
</a>
</g>
</g>
<!-- Node15&#45;&gt;Node7 -->
<g id="edge21_Node000015_Node000007" class="edge">
<title>Node15&#45;&gt;Node7</title>
<g id="a_edge21_Node000015_Node000007"><a xlink:title=" ">
<path fill="none" stroke="#63b8ff" d="M1136.17,-391.65C1125.1,-383.55 1114.57,-373.81 1107.05,-362.5 1080.81,-323.02 1085.05,-305.53 1085.05,-258.12 1085.05,-258.12 1085.05,-258.12 1085.05,-173.88 1085.05,-98.58 996.8,-55.14 935.27,-33.99"/>
<polygon fill="#63b8ff" stroke="#63b8ff" points="1134.07,-394.46 1144.3,-397.22 1138.03,-388.68 1134.07,-394.46"/>
</a>
</g>
</g>
<!-- Node15&#45;&gt;Node15 -->
<g id="edge20_Node000015_Node000015" class="edge">
<title>Node15&#45;&gt;Node15</title>
<g id="a_edge20_Node000015_Node000015"><a xlink:title=" ">
<path fill="none" stroke="#63b8ff" d="M1284.95,-431.4C1289.42,-428.95 1292.05,-425.69 1292.05,-421.62 1292.05,-414.96 1284.97,-410.45 1274.26,-408.11"/>
<polygon fill="#63b8ff" stroke="#63b8ff" points="1283.97,-428.04 1275.69,-434.64 1286.28,-434.64 1283.97,-428.04"/>
</a>
</g>
</g>
<!-- Node16 -->
<g id="Node000016" class="node">
<title>Node16</title>
<g id="a_Node000016"><a xlink:href="solution__output_8cc.html" target="_top" xlink:title=" ">
<polygon fill="white" stroke="#666666" points="1265.8,-356.12 1116.3,-356.12 1116.3,-322.62 1265.8,-322.62 1265.8,-356.12"/>
<text text-anchor="start" x="1124.3" y="-342.62" font-family="Helvetica,sans-Serif" font-size="10.00">/__w/phaseField/phaseField</text>
<text text-anchor="middle" x="1191.05" y="-329.88" font-family="Helvetica,sans-Serif" font-size="10.00">/src/core/solution_output.cc</text>
</a>
</g>
</g>
<!-- Node15&#45;&gt;Node16 -->
<g id="edge22_Node000015_Node000016" class="edge">
<title>Node15&#45;&gt;Node16</title>
<g id="a_edge22_Node000015_Node000016"><a xlink:title=" ">
<path fill="none" stroke="#63b8ff" d="M1191.05,-386.82C1191.05,-376.32 1191.05,-365.22 1191.05,-356.5"/>
<polygon fill="#63b8ff" stroke="#63b8ff" points="1187.55,-386.76 1191.05,-396.76 1194.55,-386.76 1187.55,-386.76"/>
</a>
</g>
</g>
<!-- Node17&#45;&gt;Node13 -->
<g id="edge24_Node000017_Node000013" class="edge">
<title>Node17&#45;&gt;Node13</title>
<g id="a_edge24_Node000017_Node000013"><a xlink:title=" ">
<path fill="none" stroke="#63b8ff" d="M1010.72,-386.86C1008.51,-366.03 1004.25,-339.03 996.05,-316.25 990.59,-301.07 981.14,-285.36 973.58,-274.11"/>
<polygon fill="#63b8ff" stroke="#63b8ff" points="1007.21,-386.9 1011.63,-396.53 1014.17,-386.25 1007.21,-386.9"/>
</a>
</g>
</g>
<!-- Node18&#45;&gt;Node4 -->
<g id="edge31_Node000018_Node000004" class="edge">
<title>Node18&#45;&gt;Node4</title>
<g id="a_edge31_Node000018_Node000004"><a xlink:title=" ">
<path fill="none" stroke="#63b8ff" d="M641.08,-398.92C640.4,-398.78 639.73,-398.64 639.05,-398.5 539.85,-378.13 513.25,-382.87 414.05,-362.5 409.73,-361.61 405.3,-360.66 400.84,-359.65"/>
<polygon fill="#63b8ff" stroke="#63b8ff" points="640.27,-402.32 650.78,-401.03 641.75,-395.48 640.27,-402.32"/>
</a>
</g>
</g>
<!-- Node18&#45;&gt;Node5 -->
<g id="edge29_Node000018_Node000005" class="edge">
<title>Node18&#45;&gt;Node5</title>
<g id="a_edge29_Node000018_Node000005"><a xlink:title=" ">
<path fill="none" stroke="#63b8ff" d="M728.52,-386.61C729.89,-354.72 731.9,-307.97 733.09,-280.53"/>
<polygon fill="#63b8ff" stroke="#63b8ff" points="725.02,-386.38 728.09,-396.52 732.02,-386.68 725.02,-386.38"/>
</a>
</g>
</g>
<!-- Node18&#45;&gt;Node7 -->
<g id="edge33_Node000018_Node000007" class="edge">
<title>Node18&#45;&gt;Node7</title>
<g id="a_edge33_Node000018_Node000007"><a xlink:title=" ">
<path fill="none" stroke="#63b8ff" d="M733.65,-387.24C739.24,-365.37 748.97,-337.09 765.05,-316.25 782.22,-294 801.3,-303.53 817.05,-280.25 871.42,-199.92 877.07,-77.35 877.26,-33.8"/>
<polygon fill="#63b8ff" stroke="#63b8ff" points="730.27,-386.32 731.38,-396.85 737.09,-387.93 730.27,-386.32"/>
</a>
</g>
</g>
<!-- Node18&#45;&gt;Node9 -->
<g id="edge30_Node000018_Node000009" class="edge">
<title>Node18&#45;&gt;Node9</title>
<g id="a_edge30_Node000018_Node000009"><a xlink:title=" ">
<path fill="none" stroke="#63b8ff" d="M641.07,-398.99C640.39,-398.83 639.72,-398.66 639.05,-398.5 570.74,-381.93 528.73,-417.57 485.05,-362.5 465.43,-337.76 487.91,-303.18 507.54,-280.71"/>
<polygon fill="#63b8ff" stroke="#63b8ff" points="640.16,-402.37 650.71,-401.35 641.83,-395.57 640.16,-402.37"/>
</a>
</g>
</g>
<!-- Node18&#45;&gt;Node10 -->
<g id="edge32_Node000018_Node000010" class="edge">
<title>Node18&#45;&gt;Node10</title>
<g id="a_edge32_Node000018_Node000010"><a xlink:title=" ">
<path fill="none" stroke="#63b8ff" d="M641.07,-398.97C640.4,-398.82 639.72,-398.66 639.05,-398.5 565.55,-381.29 528.85,-413.35 473.05,-362.5 426.37,-319.96 424.14,-238.14 426.13,-198.5"/>
<polygon fill="#63b8ff" stroke="#63b8ff" points="640.19,-402.36 650.73,-401.28 641.81,-395.55 640.19,-402.36"/>
</a>
</g>
</g>
<!-- Node18&#45;&gt;Node14 -->
<g id="edge26_Node000018_Node000014" class="edge">
<title>Node18&#45;&gt;Node14</title>
<g id="a_edge26_Node000018_Node000014"><a xlink:title=" ">
<path fill="none" stroke="#63b8ff" d="M775.12,-392.47C791.73,-382.74 810.1,-371.98 825.81,-362.77"/>
<polygon fill="#63b8ff" stroke="#63b8ff" points="773.74,-389.22 766.88,-397.29 777.28,-395.26 773.74,-389.22"/>
</a>
</g>
</g>
<!-- Node19 -->
<g id="Node000019" class="node">
<title>Node19</title>
<g id="a_Node000019"><a xlink:href="constant__solver_8h.html" target="_top" xlink:title=" ">
<polygon fill="white" stroke="#666666" points="706.43,-198 557.68,-198 557.68,-151.75 706.43,-151.75 706.43,-198"/>
<text text-anchor="start" x="565.68" y="-184.5" font-family="Helvetica,sans-Serif" font-size="10.00">/__w/phaseField/phaseField</text>
<text text-anchor="start" x="565.68" y="-171.75" font-family="Helvetica,sans-Serif" font-size="10.00">/include/prismspf/solvers</text>
<text text-anchor="middle" x="632.05" y="-159" font-family="Helvetica,sans-Serif" font-size="10.00">/constant_solver.h</text>
</a>
</g>
</g>
<!-- Node18&#45;&gt;Node19 -->
<g id="edge27_Node000018_Node000019" class="edge">
<title>Node18&#45;&gt;Node19</title>
<g id="a_edge27_Node000018_Node000019"><a xlink:title=" ">
<path fill="none" stroke="#63b8ff" d="M706.02,-388.81C688.73,-361.2 664.89,-319.6 651.05,-280.25 641.46,-252.97 636.49,-219.89 634.07,-198.39"/>
<polygon fill="#63b8ff" stroke="#63b8ff" points="702.94,-390.48 711.26,-397.04 708.84,-386.72 702.94,-390.48"/>
</a>
</g>
</g>
<!-- Node20 -->
<g id="Node000020" class="node">
<title>Node20</title>
<g id="a_Node000020"><a xlink:href="solver__base_8cc.html" target="_top" xlink:title=" ">
<polygon fill="white" stroke="#666666" points="642.43,-356.12 493.68,-356.12 493.68,-322.62 642.43,-322.62 642.43,-356.12"/>
<text text-anchor="start" x="501.68" y="-342.62" font-family="Helvetica,sans-Serif" font-size="10.00">/__w/phaseField/phaseField</text>
<text text-anchor="middle" x="568.05" y="-329.88" font-family="Helvetica,sans-Serif" font-size="10.00">/src/solvers/solver_base.cc</text>
</a>
</g>
</g>
<!-- Node18&#45;&gt;Node20 -->
<g id="edge34_Node000018_Node000020" class="edge">
<title>Node18&#45;&gt;Node20</title>
<g id="a_edge34_Node000018_Node000020"><a xlink:title=" ">
<path fill="none" stroke="#63b8ff" d="M672.22,-392.95C648.06,-380.76 620.53,-366.86 599.84,-356.42"/>
<polygon fill="#63b8ff" stroke="#63b8ff" points="670.48,-395.99 680.99,-397.38 673.64,-389.74 670.48,-395.99"/>
</a>
</g>
</g>
<!-- Node19&#45;&gt;Node6 -->
<g id="edge28_Node000019_Node000006" class="edge">
<title>Node19&#45;&gt;Node6</title>
<g id="a_edge28_Node000019_Node000006"><a xlink:title=" ">
<path fill="none" stroke="#63b8ff" d="M632.05,-140.09C632.05,-132 632.05,-123.57 632.05,-116.14"/>
<polygon fill="#63b8ff" stroke="#63b8ff" points="628.55,-140.01 632.05,-150.01 635.55,-140.01 628.55,-140.01"/>
</a>
</g>
</g>
</g>
</svg>
