<?xml version="1.0" encoding="UTF-8" standalone="no"?>
<!DOCTYPE svg PUBLIC "-//W3C//DTD SVG 1.1//EN"
 "http://www.w3.org/Graphics/SVG/1.1/DTD/svg11.dtd">
<!-- Generated by graphviz version 12.2.1 (20241206.2353)
 -->
<!-- Title: include/prismspf/core/solution_indexer.h Pages: 1 -->
<svg width="1069pt" height="654pt"
 viewBox="0.00 0.00 1069.38 654.25" xmlns="http://www.w3.org/2000/svg" xmlns:xlink="http://www.w3.org/1999/xlink">
<g id="graph0" class="graph" transform="scale(1 1) rotate(0) translate(4 650.25)">
<title>include/prismspf/core/solution_indexer.h</title>
<!-- Node1 -->
<g id="Node000001" class="node">
<title>Node1</title>
<g id="a_Node000001"><a xlink:title=" ">
<polygon fill="#999999" stroke="#666666" points="701.62,-646.25 580.62,-646.25 580.62,-612.75 701.62,-612.75 701.62,-646.25"/>
<text text-anchor="start" x="588.62" y="-632.75" font-family="Helvetica,sans-Serif" font-size="10.00">include/prismspf/core</text>
<text text-anchor="middle" x="641.12" y="-620" font-family="Helvetica,sans-Serif" font-size="10.00">/solution_indexer.h</text>
</a>
</g>
</g>
<!-- Node2 -->
<g id="Node000002" class="node">
<title>Node2</title>
<g id="a_Node000002"><a xlink:href="field__container_8h.html" target="_top" xlink:title=" ">
<polygon fill="white" stroke="#666666" points="428.62,-576.75 307.62,-576.75 307.62,-543.25 428.62,-543.25 428.62,-576.75"/>
<text text-anchor="start" x="315.62" y="-563.25" font-family="Helvetica,sans-Serif" font-size="10.00">include/prismspf/core</text>
<text text-anchor="middle" x="368.12" y="-550.5" font-family="Helvetica,sans-Serif" font-size="10.00">/field_container.h</text>
</a>
</g>
</g>
<!-- Node1&#45;&gt;Node2 -->
<g id="edge1_Node000001_Node000002" class="edge">
<title>Node1&#45;&gt;Node2</title>
<g id="a_edge1_Node000001_Node000002"><a xlink:title=" ">
<path fill="none" stroke="#63b8ff" d="M569.07,-610.68C525.4,-599.89 470.31,-586.27 428.87,-576.02"/>
<polygon fill="#63b8ff" stroke="#63b8ff" points="568.18,-614.07 578.73,-613.07 569.86,-607.27 568.18,-614.07"/>
</a>
</g>
</g>
<!-- Node4 -->
<g id="Node000004" class="node">
<title>Node4</title>
<g id="a_Node000004"><a xlink:href="mf__operator_8h.html" target="_top" xlink:title=" ">
<polygon fill="white" stroke="#666666" points="253.75,-298.75 118.5,-298.75 118.5,-265.25 253.75,-265.25 253.75,-298.75"/>
<text text-anchor="start" x="126.5" y="-285.25" font-family="Helvetica,sans-Serif" font-size="10.00">include/prismspf/solvers</text>
<text text-anchor="middle" x="186.12" y="-272.5" font-family="Helvetica,sans-Serif" font-size="10.00">/mf_operator.h</text>
</a>
</g>
</g>
<!-- Node1&#45;&gt;Node4 -->
<g id="edge44_Node000001_Node000004" class="edge">
<title>Node1&#45;&gt;Node4</title>
<g id="a_edge44_Node000001_Node000004"><a xlink:title=" ">
<path fill="none" stroke="#63b8ff" d="M568.89,-626.77C411.6,-621.05 52.12,-596.48 52.12,-491.5 52.12,-491.5 52.12,-491.5 52.12,-420 52.12,-362.77 112.61,-320.6 152.31,-299.09"/>
<polygon fill="#63b8ff" stroke="#63b8ff" points="568.68,-630.27 578.8,-627.11 568.92,-623.27 568.68,-630.27"/>
</a>
</g>
</g>
<!-- Node13 -->
<g id="Node000013" class="node">
<title>Node13</title>
<g id="a_Node000013"><a xlink:href="solve__context_8h.html" target="_top" xlink:title=" ">
<polygon fill="white" stroke="#666666" points="708.75,-437.75 573.5,-437.75 573.5,-404.25 708.75,-404.25 708.75,-437.75"/>
<text text-anchor="start" x="581.5" y="-424.25" font-family="Helvetica,sans-Serif" font-size="10.00">include/prismspf/solvers</text>
<text text-anchor="middle" x="641.12" y="-411.5" font-family="Helvetica,sans-Serif" font-size="10.00">/solve_context.h</text>
</a>
</g>
</g>
<!-- Node1&#45;&gt;Node13 -->
<g id="edge45_Node000001_Node000013" class="edge">
<title>Node1&#45;&gt;Node13</title>
<g id="a_edge45_Node000001_Node000013"><a xlink:title=" ">
<path fill="none" stroke="#63b8ff" d="M641.12,-600.84C641.12,-557.09 641.12,-473.27 641.12,-438.13"/>
<polygon fill="#63b8ff" stroke="#63b8ff" points="637.63,-600.78 641.13,-610.78 644.63,-600.78 637.63,-600.78"/>
</a>
</g>
</g>
<!-- Node16 -->
<g id="Node000016" class="node">
<title>Node16</title>
<g id="a_Node000016"><a xlink:href="solution__output_8h.html" target="_top" xlink:title=" ">
<polygon fill="white" stroke="#666666" points="998.62,-368.25 877.62,-368.25 877.62,-334.75 998.62,-334.75 998.62,-368.25"/>
<text text-anchor="start" x="885.62" y="-354.75" font-family="Helvetica,sans-Serif" font-size="10.00">include/prismspf/core</text>
<text text-anchor="middle" x="938.12" y="-342" font-family="Helvetica,sans-Serif" font-size="10.00">/solution_output.h</text>
</a>
</g>
</g>
<!-- Node1&#45;&gt;Node16 -->
<g id="edge43_Node000001_Node000016" class="edge">
<title>Node1&#45;&gt;Node16</title>
<g id="a_edge43_Node000001_Node000016"><a xlink:title=" ">
<path fill="none" stroke="#63b8ff" d="M666.79,-604.65C725.99,-549.64 870.84,-415.03 920.83,-368.58"/>
<polygon fill="#63b8ff" stroke="#63b8ff" points="664.43,-602.07 659.49,-611.44 669.19,-607.19 664.43,-602.07"/>
</a>
</g>
</g>
<!-- Node25 -->
<g id="Node000025" class="node">
<title>Node25</title>
<g id="a_Node000025"><a xlink:href="solution__indexer_8cc.html" target="_top" xlink:title=" ">
<polygon fill="white" stroke="#666666" points="915.25,-570.38 765,-570.38 765,-549.62 915.25,-549.62 915.25,-570.38"/>
<text text-anchor="middle" x="840.12" y="-556.88" font-family="Helvetica,sans-Serif" font-size="10.00">src/core/solution_indexer.cc</text>
</a>
</g>
</g>
<!-- Node1&#45;&gt;Node25 -->
<g id="edge46_Node000001_Node000025" class="edge">
<title>Node1&#45;&gt;Node25</title>
<g id="a_edge46_Node000001_Node000025"><a xlink:title=" ">
<path fill="none" stroke="#63b8ff" d="M699.36,-608.75C736.05,-596.3 781.83,-580.77 811.03,-570.87"/>
<polygon fill="#63b8ff" stroke="#63b8ff" points="698.57,-605.32 690.22,-611.85 700.82,-611.95 698.57,-605.32"/>
</a>
</g>
</g>
<!-- Node3 -->
<g id="Node000003" class="node">
<title>Node3</title>
<g id="a_Node000003"><a xlink:href="pde__operator__base_8h.html" target="_top" xlink:title=" ">
<polygon fill="white" stroke="#666666" points="428.62,-507.25 307.62,-507.25 307.62,-473.75 428.62,-473.75 428.62,-507.25"/>
<text text-anchor="start" x="315.62" y="-493.75" font-family="Helvetica,sans-Serif" font-size="10.00">include/prismspf/core</text>
<text text-anchor="middle" x="368.12" y="-481" font-family="Helvetica,sans-Serif" font-size="10.00">/pde_operator_base.h</text>
</a>
</g>
</g>
<!-- Node2&#45;&gt;Node3 -->
<g id="edge2_Node000002_Node000003" class="edge">
<title>Node2&#45;&gt;Node3</title>
<g id="a_edge2_Node000002_Node000003"><a xlink:title=" ">
<path fill="none" stroke="#63b8ff" d="M368.12,-531.56C368.12,-523.34 368.12,-514.59 368.12,-507.38"/>
<polygon fill="#63b8ff" stroke="#63b8ff" points="364.63,-531.49 368.13,-541.49 371.63,-531.49 364.63,-531.49"/>
</a>
</g>
</g>
<!-- Node2&#45;&gt;Node4 -->
<g id="edge40_Node000002_Node000004" class="edge">
<title>Node2&#45;&gt;Node4</title>
<g id="a_edge40_Node000002_Node000004"><a xlink:title=" ">
<path fill="none" stroke="#63b8ff" d="M296.43,-540.74C244.93,-523.47 179.18,-491.89 147.12,-437.75 120.17,-392.21 155.15,-328.48 174.65,-299.06"/>
<polygon fill="#63b8ff" stroke="#63b8ff" points="295.15,-544.01 305.74,-543.75 297.3,-537.34 295.15,-544.01"/>
</a>
</g>
</g>
<!-- Node12 -->
<g id="Node000012" class="node">
<title>Node12</title>
<g id="a_Node000012"><a xlink:href="mf__operator_8cc.html" target="_top" xlink:title=" ">
<polygon fill="white" stroke="#666666" points="144.25,-222.88 0,-222.88 0,-202.12 144.25,-202.12 144.25,-222.88"/>
<text text-anchor="middle" x="72.12" y="-209.38" font-family="Helvetica,sans-Serif" font-size="10.00">src/solvers/mf_operator.cc</text>
</a>
</g>
</g>
<!-- Node2&#45;&gt;Node12 -->
<g id="edge42_Node000002_Node000012" class="edge">
<title>Node2&#45;&gt;Node12</title>
<g id="a_edge42_Node000002_Node000012"><a xlink:title=" ">
<path fill="none" stroke="#63b8ff" d="M296.13,-554.1C213.76,-544.13 90.12,-513.86 90.12,-422 90.12,-422 90.12,-422 90.12,-350.5 90.12,-302.28 79.03,-245.32 74.26,-223.08"/>
<polygon fill="#63b8ff" stroke="#63b8ff" points="295.63,-557.57 305.96,-555.21 296.41,-550.61 295.63,-557.57"/>
</a>
</g>
</g>
<!-- Node24 -->
<g id="Node000024" class="node">
<title>Node24</title>
<g id="a_Node000024"><a xlink:href="field__container_8cc.html" target="_top" xlink:title=" ">
<polygon fill="white" stroke="#666666" points="589.12,-500.88 447.12,-500.88 447.12,-480.12 589.12,-480.12 589.12,-500.88"/>
<text text-anchor="middle" x="518.12" y="-487.38" font-family="Helvetica,sans-Serif" font-size="10.00">src/core/field_container.cc</text>
</a>
</g>
</g>
<!-- Node2&#45;&gt;Node24 -->
<g id="edge41_Node000002_Node000024" class="edge">
<title>Node2&#45;&gt;Node24</title>
<g id="a_edge41_Node000002_Node000024"><a xlink:title=" ">
<path fill="none" stroke="#63b8ff" d="M414.2,-538.26C441.56,-525.95 474.99,-510.91 496.41,-501.27"/>
<polygon fill="#63b8ff" stroke="#63b8ff" points="413.12,-534.92 405.43,-542.21 415.99,-541.3 413.12,-534.92"/>
</a>
</g>
</g>
<!-- Node3&#45;&gt;Node4 -->
<g id="edge3_Node000003_Node000004" class="edge">
<title>Node3&#45;&gt;Node4</title>
<g id="a_edge3_Node000003_Node000004"><a xlink:title=" ">
<path fill="none" stroke="#63b8ff" d="M417.5,-467.76C429.3,-460.07 440.42,-450.16 447.12,-437.75 454.2,-424.65 455.13,-416.8 447.12,-404.25 404.93,-338.12 316.32,-307.5 254.1,-293.71"/>
<polygon fill="#63b8ff" stroke="#63b8ff" points="416.04,-464.55 409.25,-472.68 419.63,-470.56 416.04,-464.55"/>
</a>
</g>
</g>
<!-- Node3&#45;&gt;Node13 -->
<g id="edge16_Node000003_Node000013" class="edge">
<title>Node3&#45;&gt;Node13</title>
<g id="a_edge16_Node000003_Node000013"><a xlink:title=" ">
<path fill="none" stroke="#63b8ff" d="M440.05,-471.72C482.09,-461.32 534.74,-448.3 575.62,-438.2"/>
<polygon fill="#63b8ff" stroke="#63b8ff" points="439.39,-468.27 430.52,-474.07 441.07,-475.07 439.39,-468.27"/>
</a>
</g>
</g>
<!-- Node19 -->
<g id="Node000019" class="node">
<title>Node19</title>
<g id="a_Node000019"><a xlink:href="solver__base_8h.html" target="_top" xlink:title=" ">
<polygon fill="white" stroke="#666666" points="612.75,-368.25 477.5,-368.25 477.5,-334.75 612.75,-334.75 612.75,-368.25"/>
<text text-anchor="start" x="485.5" y="-354.75" font-family="Helvetica,sans-Serif" font-size="10.00">include/prismspf/solvers</text>
<text text-anchor="middle" x="545.12" y="-342" font-family="Helvetica,sans-Serif" font-size="10.00">/solver_base.h</text>
</a>
</g>
</g>
<!-- Node3&#45;&gt;Node19 -->
<g id="edge37_Node000003_Node000019" class="edge">
<title>Node3&#45;&gt;Node19</title>
<g id="a_edge37_Node000003_Node000019"><a xlink:title=" ">
<path fill="none" stroke="#63b8ff" d="M426.78,-468.81C444.96,-460.77 464.34,-450.41 480.12,-437.75 504.66,-418.07 525.13,-387.22 536.21,-368.53"/>
<polygon fill="#63b8ff" stroke="#63b8ff" points="425.48,-465.56 417.64,-472.68 428.22,-472 425.48,-465.56"/>
</a>
</g>
</g>
<!-- Node22 -->
<g id="Node000022" class="node">
<title>Node22</title>
<g id="a_Node000022"><a xlink:href="dirichlet_8cc.html" target="_top" xlink:title=" ">
<polygon fill="white" stroke="#666666" points="266.38,-431.38 155.88,-431.38 155.88,-410.62 266.38,-410.62 266.38,-431.38"/>
<text text-anchor="middle" x="211.12" y="-417.88" font-family="Helvetica,sans-Serif" font-size="10.00">src/core/dirichlet.cc</text>
</a>
</g>
</g>
<!-- Node3&#45;&gt;Node22 -->
<g id="edge38_Node000003_Node000022" class="edge">
<title>Node3&#45;&gt;Node22</title>
<g id="a_edge38_Node000003_Node000022"><a xlink:title=" ">
<path fill="none" stroke="#63b8ff" d="M320.27,-468.93C291.57,-456.58 256.37,-441.45 233.85,-431.77"/>
<polygon fill="#63b8ff" stroke="#63b8ff" points="318.56,-472 329.13,-472.73 321.32,-465.57 318.56,-472"/>
</a>
</g>
</g>
<!-- Node23 -->
<g id="Node000023" class="node">
<title>Node23</title>
<g id="a_Node000023"><a xlink:href="initial__conditions_8cc.html" target="_top" xlink:title=" ">
<polygon fill="white" stroke="#666666" points="438.12,-431.38 284.12,-431.38 284.12,-410.62 438.12,-410.62 438.12,-431.38"/>
<text text-anchor="middle" x="361.12" y="-417.88" font-family="Helvetica,sans-Serif" font-size="10.00">src/core/initial_conditions.cc</text>
</a>
</g>
</g>
<!-- Node3&#45;&gt;Node23 -->
<g id="edge39_Node000003_Node000023" class="edge">
<title>Node3&#45;&gt;Node23</title>
<g id="a_edge39_Node000003_Node000023"><a xlink:title=" ">
<path fill="none" stroke="#63b8ff" d="M365.31,-462.38C364.19,-451.58 362.98,-439.85 362.14,-431.82"/>
<polygon fill="#63b8ff" stroke="#63b8ff" points="361.8,-462.41 366.31,-472 368.76,-461.69 361.8,-462.41"/>
</a>
</g>
</g>
<!-- Node5 -->
<g id="Node000005" class="node">
<title>Node5</title>
<g id="a_Node000005"><a xlink:href="explicit__solver_8h.html" target="_top" xlink:title=" ">
<polygon fill="white" stroke="#666666" points="565.75,-229.25 430.5,-229.25 430.5,-195.75 565.75,-195.75 565.75,-229.25"/>
<text text-anchor="start" x="438.5" y="-215.75" font-family="Helvetica,sans-Serif" font-size="10.00">include/prismspf/solvers</text>
<text text-anchor="middle" x="498.12" y="-203" font-family="Helvetica,sans-Serif" font-size="10.00">/explicit_solver.h</text>
</a>
</g>
</g>
<!-- Node4&#45;&gt;Node5 -->
<g id="edge4_Node000004_Node000005" class="edge">
<title>Node4&#45;&gt;Node5</title>
<g id="a_edge4_Node000004_Node000005"><a xlink:title=" ">
<path fill="none" stroke="#63b8ff" d="M265.17,-263.9C316.09,-252.88 381.61,-238.71 430.19,-228.2"/>
<polygon fill="#63b8ff" stroke="#63b8ff" points="264.72,-260.41 255.69,-265.95 266.2,-267.26 264.72,-260.41"/>
</a>
</g>
</g>
<!-- Node9 -->
<g id="Node000009" class="node">
<title>Node9</title>
<g id="a_Node000009"><a xlink:href="linear__solver_8h.html" target="_top" xlink:title=" ">
<polygon fill="white" stroke="#666666" points="335.75,-229.25 200.5,-229.25 200.5,-195.75 335.75,-195.75 335.75,-229.25"/>
<text text-anchor="start" x="208.5" y="-215.75" font-family="Helvetica,sans-Serif" font-size="10.00">include/prismspf/solvers</text>
<text text-anchor="middle" x="268.12" y="-203" font-family="Helvetica,sans-Serif" font-size="10.00">/linear_solver.h</text>
</a>
</g>
</g>
<!-- Node4&#45;&gt;Node9 -->
<g id="edge8_Node000004_Node000009" class="edge">
<title>Node4&#45;&gt;Node9</title>
<g id="a_edge8_Node000004_Node000009"><a xlink:title=" ">
<path fill="none" stroke="#63b8ff" d="M214.23,-257.86C225.53,-248.56 238.28,-238.06 248.55,-229.62"/>
<polygon fill="#63b8ff" stroke="#63b8ff" points="212.22,-254.98 206.73,-264.04 216.67,-260.39 212.22,-254.98"/>
</a>
</g>
</g>
<!-- Node10 -->
<g id="Node000010" class="node">
<title>Node10</title>
<g id="a_Node000010"><a xlink:href="mg__solver_8h.html" target="_top" xlink:title=" ">
<polygon fill="white" stroke="#666666" points="239.75,-159.75 104.5,-159.75 104.5,-126.25 239.75,-126.25 239.75,-159.75"/>
<text text-anchor="start" x="112.5" y="-146.25" font-family="Helvetica,sans-Serif" font-size="10.00">include/prismspf/solvers</text>
<text text-anchor="middle" x="172.12" y="-133.5" font-family="Helvetica,sans-Serif" font-size="10.00">/mg_solver.h</text>
</a>
</g>
</g>
<!-- Node4&#45;&gt;Node10 -->
<g id="edge13_Node000004_Node000010" class="edge">
<title>Node4&#45;&gt;Node10</title>
<g id="a_edge13_Node000004_Node000010"><a xlink:title=" ">
<path fill="none" stroke="#63b8ff" d="M183.33,-253.62C180.46,-225.54 176.09,-182.82 173.75,-159.88"/>
<polygon fill="#63b8ff" stroke="#63b8ff" points="179.84,-253.92 184.34,-263.51 186.8,-253.21 179.84,-253.92"/>
</a>
</g>
</g>
<!-- Node11 -->
<g id="Node000011" class="node">
<title>Node11</title>
<g id="a_Node000011"><a xlink:href="newton__solver_8h.html" target="_top" xlink:title=" ">
<polygon fill="white" stroke="#666666" points="431.75,-159.75 296.5,-159.75 296.5,-126.25 431.75,-126.25 431.75,-159.75"/>
<text text-anchor="start" x="304.5" y="-146.25" font-family="Helvetica,sans-Serif" font-size="10.00">include/prismspf/solvers</text>
<text text-anchor="middle" x="364.12" y="-133.5" font-family="Helvetica,sans-Serif" font-size="10.00">/newton_solver.h</text>
</a>
</g>
</g>
<!-- Node4&#45;&gt;Node11 -->
<g id="edge14_Node000004_Node000011" class="edge">
<title>Node4&#45;&gt;Node11</title>
<g id="a_edge14_Node000004_Node000011"><a xlink:title=" ">
<path fill="none" stroke="#63b8ff" d="M265,-271.88C293.89,-264.69 324.52,-251.92 345.12,-229.25 362.46,-210.17 365.15,-178.84 365,-159.94"/>
<polygon fill="#63b8ff" stroke="#63b8ff" points="264.49,-268.4 255.51,-274.03 266.04,-275.23 264.49,-268.4"/>
</a>
</g>
</g>
<!-- Node4&#45;&gt;Node12 -->
<g id="edge15_Node000004_Node000012" class="edge">
<title>Node4&#45;&gt;Node12</title>
<g id="a_edge15_Node000004_Node000012"><a xlink:title=" ">
<path fill="none" stroke="#63b8ff" d="M149.17,-259.12C128.75,-247.03 104.41,-232.61 88.63,-223.27"/>
<polygon fill="#63b8ff" stroke="#63b8ff" points="147.13,-261.98 157.52,-264.06 150.7,-255.95 147.13,-261.98"/>
</a>
</g>
</g>
<!-- Node6 -->
<g id="Node000006" class="node">
<title>Node6</title>
<g id="a_Node000006"><a xlink:href="solvers_8h.html" target="_top" xlink:title=" ">
<polygon fill="white" stroke="#666666" points="527.75,-90.25 392.5,-90.25 392.5,-56.75 527.75,-56.75 527.75,-90.25"/>
<text text-anchor="start" x="400.5" y="-76.75" font-family="Helvetica,sans-Serif" font-size="10.00">include/prismspf/solvers</text>
<text text-anchor="middle" x="460.12" y="-64" font-family="Helvetica,sans-Serif" font-size="10.00">/solvers.h</text>
</a>
</g>
</g>
<!-- Node5&#45;&gt;Node6 -->
<g id="edge5_Node000005_Node000006" class="edge">
<title>Node5&#45;&gt;Node6</title>
<g id="a_edge5_Node000005_Node000006"><a xlink:title=" ">
<path fill="none" stroke="#63b8ff" d="M487.55,-184.79C484.6,-176.81 481.54,-167.99 479.12,-159.75 472.16,-136.03 466.36,-107.96 463.07,-90.69"/>
<polygon fill="#63b8ff" stroke="#63b8ff" points="484.21,-185.85 491.04,-193.95 490.75,-183.36 484.21,-185.85"/>
</a>
</g>
</g>
<!-- Node7 -->
<g id="Node000007" class="node">
<title>Node7</title>
<g id="a_Node000007"><a xlink:href="problem_8cc.html" target="_top" xlink:title=" ">
<polygon fill="white" stroke="#666666" points="743.75,-20.75 632.5,-20.75 632.5,0 743.75,0 743.75,-20.75"/>
<text text-anchor="middle" x="688.12" y="-7.25" font-family="Helvetica,sans-Serif" font-size="10.00">src/core/problem.cc</text>
</a>
</g>
</g>
<!-- Node6&#45;&gt;Node7 -->
<g id="edge6_Node000006_Node000007" class="edge">
<title>Node6&#45;&gt;Node7</title>
<g id="a_edge6_Node000006_Node000007"><a xlink:title=" ">
<path fill="none" stroke="#63b8ff" d="M531.63,-53.33C571.46,-42.65 619.38,-29.81 651.61,-21.17"/>
<polygon fill="#63b8ff" stroke="#63b8ff" points="530.84,-49.92 522.09,-55.89 532.65,-56.68 530.84,-49.92"/>
</a>
</g>
</g>
<!-- Node8 -->
<g id="Node000008" class="node">
<title>Node8</title>
<g id="a_Node000008"><a xlink:href="solvers_8cc.html" target="_top" xlink:title=" ">
<polygon fill="white" stroke="#666666" points="520.25,-20.75 400,-20.75 400,0 520.25,0 520.25,-20.75"/>
<text text-anchor="middle" x="460.12" y="-7.25" font-family="Helvetica,sans-Serif" font-size="10.00">src/solvers/solvers.cc</text>
</a>
</g>
</g>
<!-- Node6&#45;&gt;Node8 -->
<g id="edge7_Node000006_Node000008" class="edge">
<title>Node6&#45;&gt;Node8</title>
<g id="a_edge7_Node000006_Node000008"><a xlink:title=" ">
<path fill="none" stroke="#63b8ff" d="M460.12,-44.94C460.12,-36.46 460.12,-27.67 460.12,-21.22"/>
<polygon fill="#63b8ff" stroke="#63b8ff" points="456.63,-44.93 460.13,-54.93 463.63,-44.93 456.63,-44.93"/>
</a>
</g>
</g>
<!-- Node9&#45;&gt;Node6 -->
<g id="edge12_Node000009_Node000006" class="edge">
<title>Node9&#45;&gt;Node6</title>
<g id="a_edge12_Node000009_Node000006"><a xlink:title=" ">
<path fill="none" stroke="#63b8ff" d="M267.39,-184.2C268.37,-165.64 272.72,-141.73 287.12,-126.25 314.04,-97.34 356.37,-84.35 392.42,-78.62"/>
<polygon fill="#63b8ff" stroke="#63b8ff" points="263.9,-183.91 267.2,-193.98 270.9,-184.05 263.9,-183.91"/>
</a>
</g>
</g>
<!-- Node9&#45;&gt;Node10 -->
<g id="edge9_Node000009_Node000010" class="edge">
<title>Node9&#45;&gt;Node10</title>
<g id="a_edge9_Node000009_Node000010"><a xlink:title=" ">
<path fill="none" stroke="#63b8ff" d="M236,-188.91C222.58,-179.48 207.3,-168.73 195.05,-160.12"/>
<polygon fill="#63b8ff" stroke="#63b8ff" points="233.94,-191.74 244.14,-194.63 237.97,-186.02 233.94,-191.74"/>
</a>
</g>
</g>
<!-- Node9&#45;&gt;Node11 -->
<g id="edge10_Node000009_Node000011" class="edge">
<title>Node9&#45;&gt;Node11</title>
<g id="a_edge10_Node000009_Node000011"><a xlink:title=" ">
<path fill="none" stroke="#63b8ff" d="M300.25,-188.91C313.67,-179.48 328.95,-168.73 341.2,-160.12"/>
<polygon fill="#63b8ff" stroke="#63b8ff" points="298.28,-186.02 292.11,-194.63 302.31,-191.74 298.28,-186.02"/>
</a>
</g>
</g>
<!-- Node11&#45;&gt;Node6 -->
<g id="edge11_Node000011_Node000006" class="edge">
<title>Node11&#45;&gt;Node6</title>
<g id="a_edge11_Node000011_Node000006"><a xlink:title=" ">
<path fill="none" stroke="#63b8ff" d="M396.25,-119.41C409.67,-109.98 424.95,-99.23 437.2,-90.62"/>
<polygon fill="#63b8ff" stroke="#63b8ff" points="394.28,-116.52 388.11,-125.13 398.31,-122.24 394.28,-116.52"/>
</a>
</g>
</g>
<!-- Node14 -->
<g id="Node000014" class="node">
<title>Node14</title>
<g id="a_Node000014"><a xlink:href="problem_8h.html" target="_top" xlink:title=" ">
<polygon fill="white" stroke="#666666" points="840.62,-229.25 719.62,-229.25 719.62,-195.75 840.62,-195.75 840.62,-229.25"/>
<text text-anchor="start" x="727.62" y="-215.75" font-family="Helvetica,sans-Serif" font-size="10.00">include/prismspf/core</text>
<text text-anchor="middle" x="780.12" y="-203" font-family="Helvetica,sans-Serif" font-size="10.00">/problem.h</text>
</a>
</g>
</g>
<!-- Node13&#45;&gt;Node14 -->
<g id="edge17_Node000013_Node000014" class="edge">
<title>Node13&#45;&gt;Node14</title>
<g id="a_edge17_Node000013_Node000014"><a xlink:title=" ">
<path fill="none" stroke="#63b8ff" d="M720.28,-403.04C768.82,-391.84 823.02,-377.57 830.12,-368.25 863.01,-325.15 818.44,-259.65 794.1,-229.6"/>
<polygon fill="#63b8ff" stroke="#63b8ff" points="719.51,-399.63 710.54,-405.26 721.07,-406.45 719.51,-399.63"/>
</a>
</g>
</g>
<!-- Node15 -->
<g id="Node000015" class="node">
<title>Node15</title>
<g id="a_Node000015"><a xlink:href="refinement__manager_8h.html" target="_top" xlink:title=" ">
<polygon fill="white" stroke="#666666" points="782.75,-298.75 653.5,-298.75 653.5,-265.25 782.75,-265.25 782.75,-298.75"/>
<text text-anchor="start" x="661.5" y="-285.25" font-family="Helvetica,sans-Serif" font-size="10.00">include/prismspf/core</text>
<text text-anchor="middle" x="718.12" y="-272.5" font-family="Helvetica,sans-Serif" font-size="10.00">/refinement_manager.h</text>
</a>
</g>
</g>
<!-- Node13&#45;&gt;Node15 -->
<g id="edge19_Node000013_Node000015" class="edge">
<title>Node13&#45;&gt;Node15</title>
<g id="a_edge19_Node000013_Node000015"><a xlink:title=" ">
<path fill="none" stroke="#63b8ff" d="M643.33,-392.67C645.73,-375.13 650.72,-352.42 661.12,-334.75 669.4,-320.7 682.73,-308.29 694.42,-299.14"/>
<polygon fill="#63b8ff" stroke="#63b8ff" points="639.89,-392.03 642.23,-402.36 646.84,-392.82 639.89,-392.03"/>
</a>
</g>
</g>
<!-- Node13&#45;&gt;Node16 -->
<g id="edge21_Node000013_Node000016" class="edge">
<title>Node13&#45;&gt;Node16</title>
<g id="a_edge21_Node000013_Node000016"><a xlink:title=" ">
<path fill="none" stroke="#63b8ff" d="M719.83,-402.11C769.13,-390.91 831.71,-376.69 877.21,-366.34"/>
<polygon fill="#63b8ff" stroke="#63b8ff" points="719.34,-398.63 710.37,-404.26 720.89,-405.46 719.34,-398.63"/>
</a>
</g>
</g>
<!-- Node18 -->
<g id="Node000018" class="node">
<title>Node18</title>
<g id="a_Node000018"><a xlink:href="nucleation__manager_8h.html" target="_top" xlink:title=" ">
<polygon fill="white" stroke="#666666" points="820.62,-368.25 669.62,-368.25 669.62,-334.75 820.62,-334.75 820.62,-368.25"/>
<text text-anchor="start" x="677.62" y="-354.75" font-family="Helvetica,sans-Serif" font-size="10.00">include/prismspf/nucleation</text>
<text text-anchor="middle" x="745.12" y="-342" font-family="Helvetica,sans-Serif" font-size="10.00">/nucleation_manager.h</text>
</a>
</g>
</g>
<!-- Node13&#45;&gt;Node18 -->
<g id="edge25_Node000013_Node000018" class="edge">
<title>Node13&#45;&gt;Node18</title>
<g id="a_edge25_Node000013_Node000018"><a xlink:title=" ">
<path fill="none" stroke="#63b8ff" d="M675.34,-397.79C690.06,-388.24 706.95,-377.28 720.42,-368.54"/>
<polygon fill="#63b8ff" stroke="#63b8ff" points="673.79,-394.63 667.31,-403.01 677.6,-400.5 673.79,-394.63"/>
</a>
</g>
</g>
<!-- Node13&#45;&gt;Node19 -->
<g id="edge27_Node000013_Node000019" class="edge">
<title>Node13&#45;&gt;Node19</title>
<g id="a_edge27_Node000013_Node000019"><a xlink:title=" ">
<path fill="none" stroke="#63b8ff" d="M609,-397.41C595.58,-387.98 580.3,-377.23 568.05,-368.62"/>
<polygon fill="#63b8ff" stroke="#63b8ff" points="606.94,-400.24 617.14,-403.13 610.97,-394.52 606.94,-400.24"/>
</a>
</g>
</g>
<!-- Node14&#45;&gt;Node7 -->
<g id="edge18_Node000014_Node000007" class="edge">
<title>Node14&#45;&gt;Node7</title>
<g id="a_edge18_Node000014_Node000007"><a xlink:title=" ">
<path fill="none" stroke="#63b8ff" d="M767.95,-185.03C747.24,-139.96 706.04,-50.35 692.53,-20.96"/>
<polygon fill="#63b8ff" stroke="#63b8ff" points="764.76,-186.46 772.12,-194.09 771.12,-183.54 764.76,-186.46"/>
</a>
</g>
</g>
<!-- Node15&#45;&gt;Node14 -->
<g id="edge20_Node000015_Node000014" class="edge">
<title>Node15&#45;&gt;Node14</title>
<g id="a_edge20_Node000015_Node000014"><a xlink:title=" ">
<path fill="none" stroke="#63b8ff" d="M740.45,-256.69C748.8,-247.6 758.06,-237.52 765.54,-229.38"/>
<polygon fill="#63b8ff" stroke="#63b8ff" points="738.03,-254.16 733.84,-263.89 743.18,-258.89 738.03,-254.16"/>
</a>
</g>
</g>
<!-- Node16&#45;&gt;Node7 -->
<g id="edge23_Node000016_Node000007" class="edge">
<title>Node16&#45;&gt;Node7</title>
<g id="a_edge23_Node000016_Node000007"><a xlink:title=" ">
<path fill="none" stroke="#63b8ff" d="M919.96,-324.92C914.89,-316.85 909.77,-307.69 906.12,-298.75 891.49,-262.8 887.12,-252.32 887.12,-213.5 887.12,-213.5 887.12,-213.5 887.12,-142 887.12,-70.71 796.77,-36.19 737.83,-21.25"/>
<polygon fill="#63b8ff" stroke="#63b8ff" points="917,-326.79 925.43,-333.21 922.85,-322.94 917,-326.79"/>
</a>
</g>
</g>
<!-- Node16&#45;&gt;Node16 -->
<g id="edge22_Node000016_Node000016" class="edge">
<title>Node16&#45;&gt;Node16</title>
<g id="a_edge22_Node000016_Node000016"><a xlink:title=" ">
<path fill="none" stroke="#63b8ff" d="M1009.84,-360.45C1014.08,-358.31 1016.62,-355.33 1016.62,-351.5 1016.62,-345.05 1009.42,-341 999.02,-339.33"/>
<polygon fill="#63b8ff" stroke="#63b8ff" points="1009.06,-357.04 1000.47,-363.23 1011.05,-363.75 1009.06,-357.04"/>
</a>
</g>
</g>
<!-- Node17 -->
<g id="Node000017" class="node">
<title>Node17</title>
<g id="a_Node000017"><a xlink:href="solution__output_8cc.html" target="_top" xlink:title=" ">
<polygon fill="white" stroke="#666666" points="1061.38,-292.38 914.88,-292.38 914.88,-271.62 1061.38,-271.62 1061.38,-292.38"/>
<text text-anchor="middle" x="988.12" y="-278.88" font-family="Helvetica,sans-Serif" font-size="10.00">src/core/solution_output.cc</text>
</a>
</g>
</g>
<!-- Node16&#45;&gt;Node17 -->
<g id="edge24_Node000016_Node000017" class="edge">
<title>Node16&#45;&gt;Node17</title>
<g id="a_edge24_Node000016_Node000017"><a xlink:title=" ">
<path fill="none" stroke="#63b8ff" d="M956.69,-325.43C965.09,-314.1 974.53,-301.36 980.85,-292.82"/>
<polygon fill="#63b8ff" stroke="#63b8ff" points="954.02,-323.17 950.88,-333.29 959.64,-327.33 954.02,-323.17"/>
</a>
</g>
</g>
<!-- Node18&#45;&gt;Node14 -->
<g id="edge26_Node000018_Node000014" class="edge">
<title>Node18&#45;&gt;Node14</title>
<g id="a_edge26_Node000018_Node000014"><a xlink:title=" ">
<path fill="none" stroke="#63b8ff" d="M773.55,-326.57C781.05,-318.58 788.14,-309.06 792.12,-298.75 801.01,-275.75 793.46,-246.98 786.96,-229.44"/>
<polygon fill="#63b8ff" stroke="#63b8ff" points="771.14,-324.04 766.48,-333.55 776.06,-329.02 771.14,-324.04"/>
</a>
</g>
</g>
<!-- Node19&#45;&gt;Node4 -->
<g id="edge33_Node000019_Node000004" class="edge">
<title>Node19&#45;&gt;Node4</title>
<g id="a_edge33_Node000019_Node000004"><a xlink:title=" ">
<path fill="none" stroke="#63b8ff" d="M466.14,-335.32C465.13,-335.13 464.12,-334.94 463.12,-334.75 376.52,-318.44 354.73,-315.06 268.12,-298.75 263.57,-297.89 258.87,-297 254.13,-296.1"/>
<polygon fill="#63b8ff" stroke="#63b8ff" points="465.16,-338.69 475.63,-337.12 466.46,-331.82 465.16,-338.69"/>
</a>
</g>
</g>
<!-- Node19&#45;&gt;Node5 -->
<g id="edge31_Node000019_Node000005" class="edge">
<title>Node19&#45;&gt;Node5</title>
<g id="a_edge31_Node000019_Node000005"><a xlink:title=" ">
<path fill="none" stroke="#63b8ff" d="M535.99,-323.87C526.36,-295.81 511.51,-252.52 503.57,-229.38"/>
<polygon fill="#63b8ff" stroke="#63b8ff" points="532.59,-324.76 539.15,-333.08 539.22,-322.49 532.59,-324.76"/>
</a>
</g>
</g>
<!-- Node19&#45;&gt;Node7 -->
<g id="edge35_Node000019_Node000007" class="edge">
<title>Node19&#45;&gt;Node7</title>
<g id="a_edge35_Node000019_Node000007"><a xlink:title=" ">
<path fill="none" stroke="#63b8ff" d="M565.68,-325.51C571.82,-317.3 578.21,-307.93 583.12,-298.75 638.06,-196.21 675.85,-58.8 685.62,-21.22"/>
<polygon fill="#63b8ff" stroke="#63b8ff" points="562.99,-323.27 559.63,-333.32 568.52,-327.55 562.99,-323.27"/>
</a>
</g>
</g>
<!-- Node19&#45;&gt;Node9 -->
<g id="edge32_Node000019_Node000009" class="edge">
<title>Node19&#45;&gt;Node9</title>
<g id="a_edge32_Node000019_Node000009"><a xlink:title=" ">
<path fill="none" stroke="#63b8ff" d="M466.09,-334.66C396.06,-320.48 304.37,-301.51 301.12,-298.75 280.46,-281.16 272.68,-249.03 269.79,-229.64"/>
<polygon fill="#63b8ff" stroke="#63b8ff" points="465.15,-338.04 475.64,-336.59 466.53,-331.18 465.15,-338.04"/>
</a>
</g>
</g>
<!-- Node19&#45;&gt;Node11 -->
<g id="edge34_Node000019_Node000011" class="edge">
<title>Node19&#45;&gt;Node11</title>
<g id="a_edge34_Node000019_Node000011"><a xlink:title=" ">
<path fill="none" stroke="#63b8ff" d="M517.95,-326.94C491.69,-303.52 451.54,-265.88 421.12,-229.25 402.36,-206.65 384.1,-177.77 373.5,-160.09"/>
<polygon fill="#63b8ff" stroke="#63b8ff" points="515.34,-329.31 525.15,-333.32 519.98,-324.07 515.34,-329.31"/>
</a>
</g>
</g>
<!-- Node19&#45;&gt;Node15 -->
<g id="edge28_Node000019_Node000015" class="edge">
<title>Node19&#45;&gt;Node15</title>
<g id="a_edge28_Node000019_Node000015"><a xlink:title=" ">
<path fill="none" stroke="#63b8ff" d="M597.15,-330.2C622.62,-320.26 652.85,-308.47 676.73,-299.15"/>
<polygon fill="#63b8ff" stroke="#63b8ff" points="596.02,-326.89 587.97,-333.78 598.56,-333.41 596.02,-326.89"/>
</a>
</g>
</g>
<!-- Node20 -->
<g id="Node000020" class="node">
<title>Node20</title>
<g id="a_Node000020"><a xlink:href="constant__solver_8h.html" target="_top" xlink:title=" ">
<polygon fill="white" stroke="#666666" points="623.75,-159.75 488.5,-159.75 488.5,-126.25 623.75,-126.25 623.75,-159.75"/>
<text text-anchor="start" x="496.5" y="-146.25" font-family="Helvetica,sans-Serif" font-size="10.00">include/prismspf/solvers</text>
<text text-anchor="middle" x="556.12" y="-133.5" font-family="Helvetica,sans-Serif" font-size="10.00">/constant_solver.h</text>
</a>
</g>
</g>
<!-- Node19&#45;&gt;Node20 -->
<g id="edge29_Node000019_Node000020" class="edge">
<title>Node19&#45;&gt;Node20</title>
<g id="a_edge29_Node000019_Node000020"><a xlink:title=" ">
<path fill="none" stroke="#63b8ff" d="M556.44,-323.54C567.97,-292.71 583.11,-240.67 575.12,-195.75 572.91,-183.31 567.93,-169.94 563.62,-159.91"/>
<polygon fill="#63b8ff" stroke="#63b8ff" points="553.18,-322.27 552.81,-332.86 559.71,-324.81 553.18,-322.27"/>
</a>
</g>
</g>
<!-- Node21 -->
<g id="Node000021" class="node">
<title>Node21</title>
<g id="a_Node000021"><a xlink:href="solver__base_8cc.html" target="_top" xlink:title=" ">
<polygon fill="white" stroke="#666666" points="411.88,-298.75 310.38,-298.75 310.38,-265.25 411.88,-265.25 411.88,-298.75"/>
<text text-anchor="start" x="318.38" y="-285.25" font-family="Helvetica,sans-Serif" font-size="10.00">src/solvers/solver</text>
<text text-anchor="middle" x="361.12" y="-272.5" font-family="Helvetica,sans-Serif" font-size="10.00">_base.cc</text>
</a>
</g>
</g>
<!-- Node19&#45;&gt;Node21 -->
<g id="edge36_Node000019_Node000021" class="edge">
<title>Node19&#45;&gt;Node21</title>
<g id="a_edge36_Node000019_Node000021"><a xlink:title=" ">
<path fill="none" stroke="#63b8ff" d="M490.51,-330.47C463.28,-320.47 430.77,-308.55 405.16,-299.15"/>
<polygon fill="#63b8ff" stroke="#63b8ff" points="489.04,-333.65 499.63,-333.81 491.45,-327.08 489.04,-333.65"/>
</a>
</g>
</g>
<!-- Node20&#45;&gt;Node6 -->
<g id="edge30_Node000020_Node000006" class="edge">
<title>Node20&#45;&gt;Node6</title>
<g id="a_edge30_Node000020_Node000006"><a xlink:title=" ">
<path fill="none" stroke="#63b8ff" d="M524,-119.41C510.58,-109.98 495.3,-99.23 483.05,-90.62"/>
<polygon fill="#63b8ff" stroke="#63b8ff" points="521.94,-122.24 532.14,-125.13 525.97,-116.52 521.94,-122.24"/>
</a>
</g>
</g>
</g>
</svg>
