<?xml version="1.0" encoding="UTF-8" standalone="no"?>
<!DOCTYPE svg PUBLIC "-//W3C//DTD SVG 1.1//EN"
 "http://www.w3.org/Graphics/SVG/1.1/DTD/svg11.dtd">
<!-- Generated by graphviz version 12.2.1 (20241206.2353)
 -->
<!-- Title: include/prismspf/core/solve_block.h Pages: 1 -->
<svg width="1589pt" height="376pt"
 viewBox="0.00 0.00 1589.00 376.25" xmlns="http://www.w3.org/2000/svg" xmlns:xlink="http://www.w3.org/1999/xlink">
<g id="graph0" class="graph" transform="scale(1 1) rotate(0) translate(4 372.25)">
<title>include/prismspf/core/solve_block.h</title>
<!-- Node1 -->
<g id="Node000001" class="node">
<title>Node1</title>
<g id="a_Node000001"><a xlink:title=" ">
<polygon fill="#999999" stroke="#666666" points="845.5,-368.25 724.5,-368.25 724.5,-334.75 845.5,-334.75 845.5,-368.25"/>
<text text-anchor="start" x="732.5" y="-354.75" font-family="Helvetica,sans-Serif" font-size="10.00">include/prismspf/core</text>
<text text-anchor="middle" x="785" y="-342" font-family="Helvetica,sans-Serif" font-size="10.00">/solve_block.h</text>
</a>
</g>
</g>
<!-- Node2 -->
<g id="Node000002" class="node">
<title>Node2</title>
<g id="a_Node000002"><a xlink:title=" ">
<polygon fill="#e0e0e0" stroke="#999999" points="830.75,-153.38 693.25,-153.38 693.25,-132.62 830.75,-132.62 830.75,-153.38"/>
<text text-anchor="middle" x="762" y="-139.88" font-family="Helvetica,sans-Serif" font-size="10.00">deal.II/base/exceptions.h</text>
</a>
</g>
</g>
<!-- Node1&#45;&gt;Node2 -->
<g id="edge1_Node000001_Node000002" class="edge">
<title>Node1&#45;&gt;Node2</title>
<g id="a_edge1_Node000001_Node000002"><a xlink:title=" ">
<path fill="none" stroke="#63b8ff" d="M792.89,-334.54C805.97,-305.81 828.89,-243.89 810,-195.75 804.72,-182.3 794.12,-170.26 784.23,-161.19"/>
<polygon fill="#63b8ff" stroke="#63b8ff" points="786.53,-158.55 776.66,-154.72 781.98,-163.87 786.53,-158.55"/>
</a>
</g>
</g>
<!-- Node3 -->
<g id="Node000003" class="node">
<title>Node3</title>
<g id="a_Node000003"><a xlink:title=" ">
<polygon fill="#e0e0e0" stroke="#999999" points="637.12,-90.25 528.88,-90.25 528.88,-56.75 637.12,-56.75 637.12,-90.25"/>
<text text-anchor="start" x="536.88" y="-76.75" font-family="Helvetica,sans-Serif" font-size="10.00">deal.II/matrix_free</text>
<text text-anchor="middle" x="583" y="-64" font-family="Helvetica,sans-Serif" font-size="10.00">/evaluation_flags.h</text>
</a>
</g>
</g>
<!-- Node1&#45;&gt;Node3 -->
<g id="edge2_Node000001_Node000003" class="edge">
<title>Node1&#45;&gt;Node3</title>
<g id="a_edge2_Node000001_Node000003"><a xlink:title=" ">
<path fill="none" stroke="#63b8ff" d="M801.33,-334.29C809.88,-324.77 819.66,-312.02 825,-298.75 853.74,-227.36 888.75,-185.8 840,-126.25 816.29,-97.29 716.95,-84.18 648.96,-78.51"/>
<polygon fill="#63b8ff" stroke="#63b8ff" points="649.25,-75.02 639,-77.72 648.69,-82 649.25,-75.02"/>
</a>
</g>
</g>
<!-- Node4 -->
<g id="Node000004" class="node">
<title>Node4</title>
<g id="a_Node000004"><a xlink:href="dependencies_8h.html" target="_top" xlink:title=" ">
<polygon fill="white" stroke="#666666" points="670.12,-292.38 507.88,-292.38 507.88,-271.62 670.12,-271.62 670.12,-292.38"/>
<text text-anchor="middle" x="589" y="-278.88" font-family="Helvetica,sans-Serif" font-size="10.00">prismspf/core/dependencies.h</text>
</a>
</g>
</g>
<!-- Node1&#45;&gt;Node4 -->
<g id="edge3_Node000001_Node000004" class="edge">
<title>Node1&#45;&gt;Node4</title>
<g id="a_edge3_Node000001_Node000004"><a xlink:title=" ">
<path fill="none" stroke="#63b8ff" d="M738.05,-334.33C704.52,-322.78 659.92,-307.43 628.27,-296.53"/>
<polygon fill="#63b8ff" stroke="#63b8ff" points="629.68,-293.31 619.09,-293.36 627.4,-299.93 629.68,-293.31"/>
</a>
</g>
</g>
<!-- Node8 -->
<g id="Node000008" class="node">
<title>Node8</title>
<g id="a_Node000008"><a xlink:title=" ">
<polygon fill="#e0e0e0" stroke="#999999" points="880,-20.75 780,-20.75 780,0 880,0 880,-20.75"/>
<text text-anchor="middle" x="830" y="-7.25" font-family="Helvetica,sans-Serif" font-size="10.00">prismspf/config.h</text>
</a>
</g>
</g>
<!-- Node1&#45;&gt;Node8 -->
<g id="edge48_Node000001_Node000008" class="edge">
<title>Node1&#45;&gt;Node8</title>
<g id="a_edge48_Node000001_Node000008"><a xlink:title=" ">
<path fill="none" stroke="#63b8ff" d="M845.81,-346.45C1031.89,-333.27 1581,-288.04 1581,-213.5 1581,-213.5 1581,-213.5 1581,-142 1581,-69.15 1510.37,-79.01 1441,-56.75 1340,-24.34 1025.54,-14.89 891.51,-12.29"/>
<polygon fill="#63b8ff" stroke="#63b8ff" points="891.84,-8.8 881.78,-12.11 891.71,-15.8 891.84,-8.8"/>
</a>
</g>
</g>
<!-- Node10 -->
<g id="Node000010" class="node">
<title>Node10</title>
<g id="a_Node000010"><a xlink:href="type__enums_8h.html" target="_top" xlink:title=" ">
<polygon fill="white" stroke="#666666" points="324.75,-90.25 217.25,-90.25 217.25,-56.75 324.75,-56.75 324.75,-90.25"/>
<text text-anchor="start" x="225.25" y="-76.75" font-family="Helvetica,sans-Serif" font-size="10.00">prismspf/core/type</text>
<text text-anchor="middle" x="271" y="-64" font-family="Helvetica,sans-Serif" font-size="10.00">_enums.h</text>
</a>
</g>
</g>
<!-- Node1&#45;&gt;Node10 -->
<g id="edge31_Node000001_Node000010" class="edge">
<title>Node1&#45;&gt;Node10</title>
<g id="a_edge31_Node000001_Node000010"><a xlink:title=" ">
<path fill="none" stroke="#63b8ff" d="M724.47,-350.13C594.07,-348.55 290.91,-340.35 198,-298.75 116.5,-262.26 41.5,-197.74 95,-126.25 108.59,-108.09 161.54,-94.12 205.84,-85.3"/>
<polygon fill="#63b8ff" stroke="#63b8ff" points="206.25,-88.78 215.4,-83.45 204.92,-81.91 206.25,-88.78"/>
</a>
</g>
</g>
<!-- Node12 -->
<g id="Node000012" class="node">
<title>Node12</title>
<g id="a_Node000012"><a xlink:title=" ">
<polygon fill="#e0e0e0" stroke="#999999" points="148.88,-20.75 105.12,-20.75 105.12,0 148.88,0 148.88,-20.75"/>
<text text-anchor="middle" x="127" y="-7.25" font-family="Helvetica,sans-Serif" font-size="10.00">string</text>
</a>
</g>
</g>
<!-- Node1&#45;&gt;Node12 -->
<g id="edge50_Node000001_Node000012" class="edge">
<title>Node1&#45;&gt;Node12</title>
<g id="a_edge50_Node000001_Node000012"><a xlink:title=" ">
<path fill="none" stroke="#63b8ff" d="M724.14,-349.37C584.2,-346.16 243.28,-334.8 135,-298.75 67.67,-276.34 0,-284.46 0,-213.5 0,-213.5 0,-213.5 0,-142 0,-87.36 57.84,-46.98 95.45,-26.49"/>
<polygon fill="#63b8ff" stroke="#63b8ff" points="96.88,-29.69 104.12,-21.95 93.63,-23.49 96.88,-29.69"/>
</a>
</g>
</g>
<!-- Node13 -->
<g id="Node000013" class="node">
<title>Node13</title>
<g id="a_Node000013"><a xlink:href="types_8h.html" target="_top" xlink:title=" ">
<polygon fill="white" stroke="#666666" points="542.88,-153.38 421.12,-153.38 421.12,-132.62 542.88,-132.62 542.88,-153.38"/>
<text text-anchor="middle" x="482" y="-139.88" font-family="Helvetica,sans-Serif" font-size="10.00">prismspf/core/types.h</text>
</a>
</g>
</g>
<!-- Node1&#45;&gt;Node13 -->
<g id="edge32_Node000001_Node000013" class="edge">
<title>Node1&#45;&gt;Node13</title>
<g id="a_edge32_Node000001_Node000013"><a xlink:title=" ">
<path fill="none" stroke="#63b8ff" d="M724.14,-345.15C665.24,-338.67 574.09,-325.16 499,-298.75 437.93,-277.27 404.1,-284.88 371,-229.25 363.39,-216.45 363,-208.31 371,-195.75 382.77,-177.28 403.03,-165.3 423.05,-157.57"/>
<polygon fill="#63b8ff" stroke="#63b8ff" points="424.07,-160.92 432.34,-154.3 421.75,-154.32 424.07,-160.92"/>
</a>
</g>
</g>
<!-- Node15 -->
<g id="Node000015" class="node">
<title>Node15</title>
<g id="a_Node000015"><a xlink:title=" ">
<polygon fill="#e0e0e0" stroke="#999999" points="150.38,-153.38 103.62,-153.38 103.62,-132.62 150.38,-132.62 150.38,-153.38"/>
<text text-anchor="middle" x="127" y="-139.88" font-family="Helvetica,sans-Serif" font-size="10.00">vector</text>
</a>
</g>
</g>
<!-- Node1&#45;&gt;Node15 -->
<g id="edge51_Node000001_Node000015" class="edge">
<title>Node1&#45;&gt;Node15</title>
<g id="a_edge51_Node000001_Node000015"><a xlink:title=" ">
<path fill="none" stroke="#63b8ff" d="M724.04,-347.87C579.53,-340.29 222.42,-313.3 144,-229.25 127.95,-212.04 125.14,-184.17 125.4,-165.01"/>
<polygon fill="#63b8ff" stroke="#63b8ff" points="128.89,-165.28 125.86,-155.13 121.9,-164.96 128.89,-165.28"/>
</a>
</g>
</g>
<!-- Node17 -->
<g id="Node000017" class="node">
<title>Node17</title>
<g id="a_Node000017"><a xlink:title=" ">
<polygon fill="#e0e0e0" stroke="#999999" points="800.5,-222.88 769.5,-222.88 769.5,-202.12 800.5,-202.12 800.5,-222.88"/>
<text text-anchor="middle" x="785" y="-209.38" font-family="Helvetica,sans-Serif" font-size="10.00">set</text>
</a>
</g>
</g>
<!-- Node1&#45;&gt;Node17 -->
<g id="edge49_Node000001_Node000017" class="edge">
<title>Node1&#45;&gt;Node17</title>
<g id="a_edge49_Node000001_Node000017"><a xlink:title=" ">
<path fill="none" stroke="#63b8ff" d="M785,-334.52C785,-309.78 785,-262.2 785,-234.64"/>
<polygon fill="#63b8ff" stroke="#63b8ff" points="788.5,-234.74 785,-224.74 781.5,-234.74 788.5,-234.74"/>
</a>
</g>
</g>
<!-- Node18 -->
<g id="Node000018" class="node">
<title>Node18</title>
<g id="a_Node000018"><a xlink:href="linear__solve__parameters_8h.html" target="_top" xlink:title=" ">
<polygon fill="white" stroke="#666666" points="1081.38,-229.25 932.62,-229.25 932.62,-195.75 1081.38,-195.75 1081.38,-229.25"/>
<text text-anchor="start" x="940.62" y="-215.75" font-family="Helvetica,sans-Serif" font-size="10.00">prismspf/user_inputs</text>
<text text-anchor="middle" x="1007" y="-203" font-family="Helvetica,sans-Serif" font-size="10.00">/linear_solve_parameters.h</text>
</a>
</g>
</g>
<!-- Node1&#45;&gt;Node18 -->
<g id="edge33_Node000001_Node000018" class="edge">
<title>Node1&#45;&gt;Node18</title>
<g id="a_edge33_Node000001_Node000018"><a xlink:title=" ">
<path fill="none" stroke="#63b8ff" d="M841.5,-334.31C866.37,-325.8 895.26,-313.93 919,-298.75 945.02,-282.1 969.84,-256.91 986.45,-238.22"/>
<polygon fill="#63b8ff" stroke="#63b8ff" points="989,-240.62 992.92,-230.78 983.72,-236.03 989,-240.62"/>
</a>
</g>
</g>
<!-- Node22 -->
<g id="Node000022" class="node">
<title>Node22</title>
<g id="a_Node000022"><a xlink:href="nonlinear__solve__parameters_8h.html" target="_top" xlink:title=" ">
<polygon fill="white" stroke="#666666" points="1137.38,-298.75 970.62,-298.75 970.62,-265.25 1137.38,-265.25 1137.38,-298.75"/>
<text text-anchor="start" x="978.62" y="-285.25" font-family="Helvetica,sans-Serif" font-size="10.00">prismspf/user_inputs</text>
<text text-anchor="middle" x="1054" y="-272.5" font-family="Helvetica,sans-Serif" font-size="10.00">/nonlinear_solve_parameters.h</text>
</a>
</g>
</g>
<!-- Node1&#45;&gt;Node22 -->
<g id="edge43_Node000001_Node000022" class="edge">
<title>Node1&#45;&gt;Node22</title>
<g id="a_edge43_Node000001_Node000022"><a xlink:title=" ">
<path fill="none" stroke="#63b8ff" d="M845.7,-335.27C884.96,-325.42 936.37,-312.52 978.3,-302"/>
<polygon fill="#63b8ff" stroke="#63b8ff" points="978.98,-305.43 987.82,-299.61 977.27,-298.64 978.98,-305.43"/>
</a>
</g>
</g>
<!-- Node4&#45;&gt;Node2 -->
<g id="edge4_Node000004_Node000002" class="edge">
<title>Node4&#45;&gt;Node2</title>
<g id="a_edge4_Node000004_Node000002"><a xlink:title=" ">
<path fill="none" stroke="#63b8ff" d="M609.67,-271.19C628.6,-261.74 656.94,-246.39 679,-229.25 705.12,-208.97 731.03,-180.71 746.78,-162.39"/>
<polygon fill="#63b8ff" stroke="#63b8ff" points="749.27,-164.86 753.06,-154.96 743.93,-160.34 749.27,-164.86"/>
</a>
</g>
</g>
<!-- Node4&#45;&gt;Node3 -->
<g id="edge6_Node000004_Node000003" class="edge">
<title>Node4&#45;&gt;Node3</title>
<g id="a_edge6_Node000004_Node000003"><a xlink:title=" ">
<path fill="none" stroke="#63b8ff" d="M592.44,-271.46C600.75,-247.04 620.38,-180.34 608,-126.25 606.01,-117.56 602.36,-108.63 598.46,-100.68"/>
<polygon fill="#63b8ff" stroke="#63b8ff" points="601.59,-99.11 593.81,-91.92 595.4,-102.39 601.59,-99.11"/>
</a>
</g>
</g>
<!-- Node5 -->
<g id="Node000005" class="node">
<title>Node5</title>
<g id="a_Node000005"><a xlink:title=" ">
<polygon fill="#e0e0e0" stroke="#999999" points="501.5,-222.88 380.5,-222.88 380.5,-202.12 501.5,-202.12 501.5,-222.88"/>
<text text-anchor="middle" x="441" y="-209.38" font-family="Helvetica,sans-Serif" font-size="10.00">deal.II/base/utilities.h</text>
</a>
</g>
</g>
<!-- Node4&#45;&gt;Node5 -->
<g id="edge5_Node000004_Node000005" class="edge">
<title>Node4&#45;&gt;Node5</title>
<g id="a_edge5_Node000004_Node000005"><a xlink:title=" ">
<path fill="none" stroke="#63b8ff" d="M567.48,-271.18C542.6,-259.84 501.41,-241.05 472.82,-228.01"/>
<polygon fill="#63b8ff" stroke="#63b8ff" points="474.47,-224.92 463.92,-223.95 471.57,-231.29 474.47,-224.92"/>
</a>
</g>
</g>
<!-- Node6 -->
<g id="Node000006" class="node">
<title>Node6</title>
<g id="a_Node000006"><a xlink:href="conditional__ostreams_8h.html" target="_top" xlink:title=" ">
<polygon fill="white" stroke="#666666" points="1064.88,-159.75 925.12,-159.75 925.12,-126.25 1064.88,-126.25 1064.88,-159.75"/>
<text text-anchor="start" x="933.12" y="-146.25" font-family="Helvetica,sans-Serif" font-size="10.00">prismspf/core/conditional</text>
<text text-anchor="middle" x="995" y="-133.5" font-family="Helvetica,sans-Serif" font-size="10.00">_ostreams.h</text>
</a>
</g>
</g>
<!-- Node4&#45;&gt;Node6 -->
<g id="edge7_Node000004_Node000006" class="edge">
<title>Node4&#45;&gt;Node6</title>
<g id="a_edge7_Node000004_Node000006"><a xlink:title=" ">
<path fill="none" stroke="#63b8ff" d="M615.85,-271.3C641.03,-261.8 679.43,-246.32 711,-229.25 734.53,-216.53 736.4,-206.26 761,-195.75 809.6,-174.98 867.58,-162.08 913.67,-154.35"/>
<polygon fill="#63b8ff" stroke="#63b8ff" points="914.01,-157.84 923.32,-152.79 912.89,-150.93 914.01,-157.84"/>
</a>
</g>
</g>
<!-- Node4&#45;&gt;Node8 -->
<g id="edge26_Node000004_Node000008" class="edge">
<title>Node4&#45;&gt;Node8</title>
<g id="a_edge26_Node000004_Node000008"><a xlink:title=" ">
<path fill="none" stroke="#63b8ff" d="M594.91,-271.47C601.34,-261.09 611.92,-244.01 621,-229.25 649.11,-183.54 648.35,-166.36 684,-126.25 720.57,-85.1 773.29,-47.75 804.36,-27.43"/>
<polygon fill="#63b8ff" stroke="#63b8ff" points="806.23,-30.39 812.74,-22.03 802.43,-24.5 806.23,-30.39"/>
</a>
</g>
</g>
<!-- Node9 -->
<g id="Node000009" class="node">
<title>Node9</title>
<g id="a_Node000009"><a xlink:href="field__attributes_8h.html" target="_top" xlink:title=" ">
<polygon fill="white" stroke="#666666" points="324.38,-229.25 217.62,-229.25 217.62,-195.75 324.38,-195.75 324.38,-229.25"/>
<text text-anchor="start" x="225.62" y="-215.75" font-family="Helvetica,sans-Serif" font-size="10.00">prismspf/core/field</text>
<text text-anchor="middle" x="271" y="-203" font-family="Helvetica,sans-Serif" font-size="10.00">_attributes.h</text>
</a>
</g>
</g>
<!-- Node4&#45;&gt;Node9 -->
<g id="edge10_Node000004_Node000009" class="edge">
<title>Node4&#45;&gt;Node9</title>
<g id="a_edge10_Node000004_Node000009"><a xlink:title=" ">
<path fill="none" stroke="#63b8ff" d="M542.76,-271.18C488.27,-259.62 397.39,-240.33 335.87,-227.27"/>
<polygon fill="#63b8ff" stroke="#63b8ff" points="336.73,-223.87 326.22,-225.22 335.28,-230.72 336.73,-223.87"/>
</a>
</g>
</g>
<!-- Node4&#45;&gt;Node10 -->
<g id="edge24_Node000004_Node000010" class="edge">
<title>Node4&#45;&gt;Node10</title>
<g id="a_edge24_Node000004_Node000010"><a xlink:title=" ">
<path fill="none" stroke="#63b8ff" d="M507.44,-281.89C407.56,-281.04 246.93,-272.7 209,-229.25 175.28,-190.62 217.93,-131.34 247.39,-98.5"/>
<polygon fill="#63b8ff" stroke="#63b8ff" points="249.67,-101.19 253.88,-91.47 244.53,-96.44 249.67,-101.19"/>
</a>
</g>
</g>
<!-- Node4&#45;&gt;Node12 -->
<g id="edge29_Node000004_Node000012" class="edge">
<title>Node4&#45;&gt;Node12</title>
<g id="a_edge29_Node000004_Node000012"><a xlink:title=" ">
<path fill="none" stroke="#63b8ff" d="M507.75,-279.39C396.48,-275.88 203.67,-264.72 144,-229.25 111.51,-209.94 106.42,-195.78 95,-159.75 80.66,-114.51 102.33,-59.49 116.45,-30.84"/>
<polygon fill="#63b8ff" stroke="#63b8ff" points="119.4,-32.75 120.87,-22.26 113.18,-29.54 119.4,-32.75"/>
</a>
</g>
</g>
<!-- Node4&#45;&gt;Node13 -->
<g id="edge25_Node000004_Node000013" class="edge">
<title>Node4&#45;&gt;Node13</title>
<g id="a_edge25_Node000004_Node000013"><a xlink:title=" ">
<path fill="none" stroke="#63b8ff" d="M589.24,-271.3C589.18,-254.34 586.87,-218.92 570,-195.75 557.71,-178.86 538.08,-166.55 520.48,-158.19"/>
<polygon fill="#63b8ff" stroke="#63b8ff" points="522.36,-155.2 511.8,-154.33 519.51,-161.59 522.36,-155.2"/>
</a>
</g>
</g>
<!-- Node4&#45;&gt;Node15 -->
<g id="edge30_Node000004_Node000015" class="edge">
<title>Node4&#45;&gt;Node15</title>
<g id="a_edge30_Node000004_Node000015"><a xlink:title=" ">
<path fill="none" stroke="#63b8ff" d="M507.39,-279.27C402.81,-275.62 228.72,-264.31 176,-229.25 153.17,-214.07 139.7,-184.39 132.83,-164.37"/>
<polygon fill="#63b8ff" stroke="#63b8ff" points="136.25,-163.57 129.91,-155.08 129.57,-165.67 136.25,-163.57"/>
</a>
</g>
</g>
<!-- Node16 -->
<g id="Node000016" class="node">
<title>Node16</title>
<g id="a_Node000016"><a xlink:title=" ">
<polygon fill="#e0e0e0" stroke="#999999" points="560.75,-222.88 519.25,-222.88 519.25,-202.12 560.75,-202.12 560.75,-222.88"/>
<text text-anchor="middle" x="540" y="-209.38" font-family="Helvetica,sans-Serif" font-size="10.00">array</text>
</a>
</g>
</g>
<!-- Node4&#45;&gt;Node16 -->
<g id="edge27_Node000004_Node000016" class="edge">
<title>Node4&#45;&gt;Node16</title>
<g id="a_edge27_Node000004_Node000016"><a xlink:title=" ">
<path fill="none" stroke="#63b8ff" d="M581.98,-271.33C574.63,-261.2 562.9,-245.05 553.71,-232.38"/>
<polygon fill="#63b8ff" stroke="#63b8ff" points="556.6,-230.41 547.9,-224.38 550.94,-234.53 556.6,-230.41"/>
</a>
</g>
</g>
<!-- Node4&#45;&gt;Node17 -->
<g id="edge28_Node000004_Node000017" class="edge">
<title>Node4&#45;&gt;Node17</title>
<g id="a_edge28_Node000004_Node000017"><a xlink:title=" ">
<path fill="none" stroke="#63b8ff" d="M627.27,-271.2C661.37,-261.96 712.33,-246.93 755,-229.25 756.31,-228.71 757.65,-228.12 758.99,-227.51"/>
<polygon fill="#63b8ff" stroke="#63b8ff" points="760.28,-230.78 767.71,-223.22 757.19,-224.5 760.28,-230.78"/>
</a>
</g>
</g>
<!-- Node7 -->
<g id="Node000007" class="node">
<title>Node7</title>
<g id="a_Node000007"><a xlink:title=" ">
<polygon fill="#e0e0e0" stroke="#999999" points="966.62,-90.25 837.38,-90.25 837.38,-56.75 966.62,-56.75 966.62,-90.25"/>
<text text-anchor="start" x="845.38" y="-76.75" font-family="Helvetica,sans-Serif" font-size="10.00">deal.II/base/conditional</text>
<text text-anchor="middle" x="902" y="-64" font-family="Helvetica,sans-Serif" font-size="10.00">_ostream.h</text>
</a>
</g>
</g>
<!-- Node6&#45;&gt;Node7 -->
<g id="edge8_Node000006_Node000007" class="edge">
<title>Node6&#45;&gt;Node7</title>
<g id="a_edge8_Node000006_Node000007"><a xlink:title=" ">
<path fill="none" stroke="#63b8ff" d="M972.96,-126C961.12,-117.41 946.32,-106.66 933.3,-97.22"/>
<polygon fill="#63b8ff" stroke="#63b8ff" points="935.58,-94.55 925.43,-91.5 931.47,-100.21 935.58,-94.55"/>
</a>
</g>
</g>
<!-- Node6&#45;&gt;Node8 -->
<g id="edge9_Node000006_Node000008" class="edge">
<title>Node6&#45;&gt;Node8</title>
<g id="a_edge9_Node000006_Node000008"><a xlink:title=" ">
<path fill="none" stroke="#63b8ff" d="M995.92,-126.02C996.11,-107.08 993.46,-75.71 976,-56.75 954.39,-33.29 920.91,-21.86 891.45,-16.33"/>
<polygon fill="#63b8ff" stroke="#63b8ff" points="892.33,-12.93 881.89,-14.74 891.18,-19.83 892.33,-12.93"/>
</a>
</g>
</g>
<!-- Node9&#45;&gt;Node2 -->
<g id="edge11_Node000009_Node000002" class="edge">
<title>Node9&#45;&gt;Node2</title>
<g id="a_edge11_Node000009_Node000002"><a xlink:title=" ">
<path fill="none" stroke="#63b8ff" d="M324.68,-202.8C339.66,-200.44 355.95,-197.93 371,-195.75 478.38,-180.19 602.63,-164.07 681.73,-154.04"/>
<polygon fill="#63b8ff" stroke="#63b8ff" points="682.08,-157.52 691.56,-152.79 681.2,-150.58 682.08,-157.52"/>
</a>
</g>
</g>
<!-- Node9&#45;&gt;Node8 -->
<g id="edge20_Node000009_Node000008" class="edge">
<title>Node9&#45;&gt;Node8</title>
<g id="a_edge20_Node000009_Node000008"><a xlink:title=" ">
<path fill="none" stroke="#63b8ff" d="M287.64,-195.48C322.37,-163.11 406.48,-90.13 492,-56.75 583.82,-20.91 699.16,-12.49 768.6,-10.99"/>
<polygon fill="#63b8ff" stroke="#63b8ff" points="768.3,-14.5 778.24,-10.83 768.19,-7.5 768.3,-14.5"/>
</a>
</g>
</g>
<!-- Node9&#45;&gt;Node10 -->
<g id="edge12_Node000009_Node000010" class="edge">
<title>Node9&#45;&gt;Node10</title>
<g id="a_edge12_Node000009_Node000010"><a xlink:title=" ">
<path fill="none" stroke="#63b8ff" d="M271,-195.52C271,-172.52 271,-129.79 271,-101.75"/>
<polygon fill="#63b8ff" stroke="#63b8ff" points="274.5,-101.9 271,-91.9 267.5,-101.9 274.5,-101.9"/>
</a>
</g>
</g>
<!-- Node9&#45;&gt;Node12 -->
<g id="edge22_Node000009_Node000012" class="edge">
<title>Node9&#45;&gt;Node12</title>
<g id="a_edge22_Node000009_Node000012"><a xlink:title=" ">
<path fill="none" stroke="#63b8ff" d="M259.46,-195.46C233.12,-158.85 168.66,-69.28 140.52,-30.16"/>
<polygon fill="#63b8ff" stroke="#63b8ff" points="143.46,-28.26 134.78,-22.19 137.78,-32.35 143.46,-28.26"/>
</a>
</g>
</g>
<!-- Node9&#45;&gt;Node13 -->
<g id="edge16_Node000009_Node000013" class="edge">
<title>Node9&#45;&gt;Node13</title>
<g id="a_edge16_Node000009_Node000013"><a xlink:title=" ">
<path fill="none" stroke="#63b8ff" d="M321.54,-195.33C357.95,-183.68 406.49,-168.16 440.61,-157.24"/>
<polygon fill="#63b8ff" stroke="#63b8ff" points="441.25,-160.71 449.71,-154.33 439.12,-154.04 441.25,-160.71"/>
</a>
</g>
</g>
<!-- Node14 -->
<g id="Node000014" class="node">
<title>Node14</title>
<g id="a_Node000014"><a xlink:title=" ">
<polygon fill="#e0e0e0" stroke="#999999" points="598.88,-153.38 561.12,-153.38 561.12,-132.62 598.88,-132.62 598.88,-153.38"/>
<text text-anchor="middle" x="580" y="-139.88" font-family="Helvetica,sans-Serif" font-size="10.00">map</text>
</a>
</g>
</g>
<!-- Node9&#45;&gt;Node14 -->
<g id="edge21_Node000009_Node000014" class="edge">
<title>Node9&#45;&gt;Node14</title>
<g id="a_edge21_Node000009_Node000014"><a xlink:title=" ">
<path fill="none" stroke="#63b8ff" d="M324.73,-202.59C400.25,-189.91 530.98,-167.36 552,-159.75 552.81,-159.46 553.62,-159.14 554.43,-158.81"/>
<polygon fill="#63b8ff" stroke="#63b8ff" points="555.93,-161.98 563.38,-154.44 552.86,-155.69 555.93,-161.98"/>
</a>
</g>
</g>
<!-- Node9&#45;&gt;Node15 -->
<g id="edge23_Node000009_Node000015" class="edge">
<title>Node9&#45;&gt;Node15</title>
<g id="a_edge23_Node000009_Node000015"><a xlink:title=" ">
<path fill="none" stroke="#63b8ff" d="M236.51,-195.33C212.66,-184.15 181.2,-169.4 158.12,-158.59"/>
<polygon fill="#63b8ff" stroke="#63b8ff" points="159.76,-155.49 149.22,-154.41 156.78,-161.83 159.76,-155.49"/>
</a>
</g>
</g>
<!-- Node10&#45;&gt;Node8 -->
<g id="edge13_Node000010_Node000008" class="edge">
<title>Node10&#45;&gt;Node8</title>
<g id="a_edge13_Node000010_Node000008"><a xlink:title=" ">
<path fill="none" stroke="#63b8ff" d="M324.88,-62.14C336.12,-60.18 347.93,-58.27 359,-56.75 505.19,-36.66 678.12,-22.42 768.28,-15.72"/>
<polygon fill="#63b8ff" stroke="#63b8ff" points="768.43,-19.22 778.15,-14.99 767.92,-12.23 768.43,-19.22"/>
</a>
</g>
</g>
<!-- Node11 -->
<g id="Node000011" class="node">
<title>Node11</title>
<g id="a_Node000011"><a xlink:title=" ">
<polygon fill="#e0e0e0" stroke="#999999" points="295.5,-20.75 246.5,-20.75 246.5,0 295.5,0 295.5,-20.75"/>
<text text-anchor="middle" x="271" y="-7.25" font-family="Helvetica,sans-Serif" font-size="10.00">cstdint</text>
</a>
</g>
</g>
<!-- Node10&#45;&gt;Node11 -->
<g id="edge14_Node000010_Node000011" class="edge">
<title>Node10&#45;&gt;Node11</title>
<g id="a_edge14_Node000010_Node000011"><a xlink:title=" ">
<path fill="none" stroke="#63b8ff" d="M271,-56.44C271,-49.1 271,-40.32 271,-32.46"/>
<polygon fill="#63b8ff" stroke="#63b8ff" points="274.5,-32.73 271,-22.73 267.5,-32.73 274.5,-32.73"/>
</a>
</g>
</g>
<!-- Node10&#45;&gt;Node12 -->
<g id="edge15_Node000010_Node000012" class="edge">
<title>Node10&#45;&gt;Node12</title>
<g id="a_edge15_Node000010_Node000012"><a xlink:title=" ">
<path fill="none" stroke="#63b8ff" d="M232.79,-56.28C209.98,-46.6 181.32,-34.43 159.58,-25.21"/>
<polygon fill="#63b8ff" stroke="#63b8ff" points="161.19,-22.09 150.62,-21.4 158.45,-28.53 161.19,-22.09"/>
</a>
</g>
</g>
<!-- Node13&#45;&gt;Node3 -->
<g id="edge17_Node000013_Node000003" class="edge">
<title>Node13&#45;&gt;Node3</title>
<g id="a_edge17_Node000013_Node000003"><a xlink:title=" ">
<path fill="none" stroke="#63b8ff" d="M496.47,-132.33C510.19,-123.16 531.3,-109.05 549.23,-97.07"/>
<polygon fill="#63b8ff" stroke="#63b8ff" points="551.18,-99.98 557.55,-91.51 547.29,-94.16 551.18,-99.98"/>
</a>
</g>
</g>
<!-- Node13&#45;&gt;Node8 -->
<g id="edge19_Node000013_Node000008" class="edge">
<title>Node13&#45;&gt;Node8</title>
<g id="a_edge19_Node000013_Node000008"><a xlink:title=" ">
<path fill="none" stroke="#63b8ff" d="M483.29,-132.2C486.23,-114.1 495.2,-75.54 520,-56.75 558.02,-27.95 689.43,-17.31 768.44,-13.47"/>
<polygon fill="#63b8ff" stroke="#63b8ff" points="768.35,-16.98 778.18,-13.02 768.03,-9.99 768.35,-16.98"/>
</a>
</g>
</g>
<!-- Node13&#45;&gt;Node10 -->
<g id="edge18_Node000013_Node000010" class="edge">
<title>Node13&#45;&gt;Node10</title>
<g id="a_edge18_Node000013_Node000010"><a xlink:title=" ">
<path fill="none" stroke="#63b8ff" d="M451.32,-132.18C420.29,-122.26 371.47,-106.64 332.45,-94.16"/>
<polygon fill="#63b8ff" stroke="#63b8ff" points="333.76,-90.9 323.17,-91.19 331.63,-97.57 333.76,-90.9"/>
</a>
</g>
</g>
<!-- Node18&#45;&gt;Node2 -->
<g id="edge34_Node000018_Node000002" class="edge">
<title>Node18&#45;&gt;Node2</title>
<g id="a_edge34_Node000018_Node000002"><a xlink:title=" ">
<path fill="none" stroke="#63b8ff" d="M948.32,-195.33C905.58,-183.56 848.46,-167.82 808.78,-156.89"/>
<polygon fill="#63b8ff" stroke="#63b8ff" points="809.85,-153.55 799.28,-154.27 807.99,-160.3 809.85,-153.55"/>
</a>
</g>
</g>
<!-- Node18&#45;&gt;Node6 -->
<g id="edge38_Node000018_Node000006" class="edge">
<title>Node18&#45;&gt;Node6</title>
<g id="a_edge38_Node000018_Node000006"><a xlink:title=" ">
<path fill="none" stroke="#63b8ff" d="M1004.16,-195.5C1002.86,-188.19 1001.28,-179.32 999.8,-171.02"/>
<polygon fill="#63b8ff" stroke="#63b8ff" points="1003.28,-170.6 998.09,-161.37 996.39,-171.83 1003.28,-170.6"/>
</a>
</g>
</g>
<!-- Node18&#45;&gt;Node8 -->
<g id="edge41_Node000018_Node000008" class="edge">
<title>Node18&#45;&gt;Node8</title>
<g id="a_edge41_Node000018_Node000008"><a xlink:title=" ">
<path fill="none" stroke="#63b8ff" d="M1081.76,-205.07C1175.28,-196.25 1325.27,-179.27 1342,-159.75 1351.69,-148.45 1351.3,-137.87 1342,-126.25 1286.1,-56.42 1014.7,-26.13 891.3,-15.8"/>
<polygon fill="#63b8ff" stroke="#63b8ff" points="891.95,-12.35 881.69,-15.02 891.38,-19.32 891.95,-12.35"/>
</a>
</g>
</g>
<!-- Node18&#45;&gt;Node10 -->
<g id="edge39_Node000018_Node000010" class="edge">
<title>Node18&#45;&gt;Node10</title>
<g id="a_edge39_Node000018_Node000010"><a xlink:title=" ">
<path fill="none" stroke="#63b8ff" d="M978.69,-195.38C938.88,-173.01 868.07,-134.36 840,-126.25 792.61,-112.55 475.36,-88.9 336.21,-79.03"/>
<polygon fill="#63b8ff" stroke="#63b8ff" points="336.63,-75.55 326.41,-78.34 336.14,-82.53 336.63,-75.55"/>
</a>
</g>
</g>
<!-- Node18&#45;&gt;Node13 -->
<g id="edge40_Node000018_Node000013" class="edge">
<title>Node18&#45;&gt;Node13</title>
<g id="a_edge40_Node000018_Node000013"><a xlink:title=" ">
<path fill="none" stroke="#63b8ff" d="M932.35,-204C822.66,-192.81 623.24,-171.78 552,-159.75 545.94,-158.73 539.61,-157.51 533.34,-156.22"/>
<polygon fill="#63b8ff" stroke="#63b8ff" points="534.19,-152.82 523.68,-154.14 532.72,-159.66 534.19,-152.82"/>
</a>
</g>
</g>
<!-- Node18&#45;&gt;Node14 -->
<g id="edge42_Node000018_Node000014" class="edge">
<title>Node18&#45;&gt;Node14</title>
<g id="a_edge42_Node000018_Node000014"><a xlink:title=" ">
<path fill="none" stroke="#63b8ff" d="M932.13,-199.67C836.89,-184.61 676.79,-159.3 610.33,-148.79"/>
<polygon fill="#63b8ff" stroke="#63b8ff" points="610.97,-145.35 600.54,-147.25 609.88,-152.27 610.97,-145.35"/>
</a>
</g>
</g>
<!-- Node19 -->
<g id="Node000019" class="node">
<title>Node19</title>
<g id="a_Node000019"><a xlink:title=" ">
<polygon fill="#e0e0e0" stroke="#999999" points="1515.12,-159.75 1388.88,-159.75 1388.88,-126.25 1515.12,-126.25 1515.12,-159.75"/>
<text text-anchor="start" x="1396.88" y="-146.25" font-family="Helvetica,sans-Serif" font-size="10.00">deal.II/base/parameter</text>
<text text-anchor="middle" x="1452" y="-133.5" font-family="Helvetica,sans-Serif" font-size="10.00">_handler.h</text>
</a>
</g>
</g>
<!-- Node18&#45;&gt;Node19 -->
<g id="edge35_Node000018_Node000019" class="edge">
<title>Node18&#45;&gt;Node19</title>
<g id="a_edge35_Node000018_Node000019"><a xlink:title=" ">
<path fill="none" stroke="#63b8ff" d="M1081.57,-202.39C1156.06,-192.97 1273.75,-177.21 1375,-159.75 1375.83,-159.61 1376.67,-159.46 1377.51,-159.31"/>
<polygon fill="#63b8ff" stroke="#63b8ff" points="1377.91,-162.8 1387.12,-157.56 1376.66,-155.91 1377.91,-162.8"/>
</a>
</g>
</g>
<!-- Node20 -->
<g id="Node000020" class="node">
<title>Node20</title>
<g id="a_Node000020"><a xlink:title=" ">
<polygon fill="#e0e0e0" stroke="#999999" points="1219,-153.38 1083,-153.38 1083,-132.62 1219,-132.62 1219,-153.38"/>
<text text-anchor="middle" x="1151" y="-139.88" font-family="Helvetica,sans-Serif" font-size="10.00">deal.II/lac/precondition.h</text>
</a>
</g>
</g>
<!-- Node18&#45;&gt;Node20 -->
<g id="edge36_Node000018_Node000020" class="edge">
<title>Node18&#45;&gt;Node20</title>
<g id="a_edge36_Node000018_Node000020"><a xlink:title=" ">
<path fill="none" stroke="#63b8ff" d="M1041.49,-195.33C1065.34,-184.15 1096.8,-169.4 1119.88,-158.59"/>
<polygon fill="#63b8ff" stroke="#63b8ff" points="1121.22,-161.83 1128.78,-154.41 1118.24,-155.49 1121.22,-161.83"/>
</a>
</g>
</g>
<!-- Node21 -->
<g id="Node000021" class="node">
<title>Node21</title>
<g id="a_Node000021"><a xlink:title=" ">
<polygon fill="#e0e0e0" stroke="#999999" points="1333.12,-159.75 1236.88,-159.75 1236.88,-126.25 1333.12,-126.25 1333.12,-159.75"/>
<text text-anchor="start" x="1244.88" y="-146.25" font-family="Helvetica,sans-Serif" font-size="10.00">deal.II/lac/solver</text>
<text text-anchor="middle" x="1285" y="-133.5" font-family="Helvetica,sans-Serif" font-size="10.00">_selector.h</text>
</a>
</g>
</g>
<!-- Node18&#45;&gt;Node21 -->
<g id="edge37_Node000018_Node000021" class="edge">
<title>Node18&#45;&gt;Node21</title>
<g id="a_edge37_Node000018_Node000021"><a xlink:title=" ">
<path fill="none" stroke="#63b8ff" d="M1079.59,-195.26C1120.1,-186.03 1171.72,-173.96 1225.7,-160.29"/>
<polygon fill="#63b8ff" stroke="#63b8ff" points="1226.23,-163.77 1235.06,-157.91 1224.5,-156.98 1226.23,-163.77"/>
</a>
</g>
</g>
<!-- Node22&#45;&gt;Node8 -->
<g id="edge47_Node000022_Node000008" class="edge">
<title>Node22&#45;&gt;Node8</title>
<g id="a_edge47_Node000022_Node000008"><a xlink:title=" ">
<path fill="none" stroke="#63b8ff" d="M1137.61,-281.37C1298.62,-279.17 1627.07,-258.85 1524,-126.25 1447,-27.19 1046.48,-13.14 891.41,-11.46"/>
<polygon fill="#63b8ff" stroke="#63b8ff" points="891.79,-7.96 881.75,-11.37 891.72,-14.96 891.79,-7.96"/>
</a>
</g>
</g>
<!-- Node22&#45;&gt;Node13 -->
<g id="edge45_Node000022_Node000013" class="edge">
<title>Node22&#45;&gt;Node13</title>
<g id="a_edge45_Node000022_Node000013"><a xlink:title=" ">
<path fill="none" stroke="#63b8ff" d="M1015.41,-264.84C967.9,-245.58 884.36,-213.74 810,-195.75 697.47,-168.52 665.91,-180.47 552,-159.75 546.1,-158.68 539.95,-157.45 533.84,-156.17"/>
<polygon fill="#63b8ff" stroke="#63b8ff" points="534.96,-152.83 524.45,-154.13 533.48,-159.67 534.96,-152.83"/>
</a>
</g>
</g>
<!-- Node22&#45;&gt;Node18 -->
<g id="edge46_Node000022_Node000018" class="edge">
<title>Node22&#45;&gt;Node18</title>
<g id="a_edge46_Node000022_Node000018"><a xlink:title=" ">
<path fill="none" stroke="#63b8ff" d="M1042.86,-265C1037.42,-257.19 1030.74,-247.59 1024.62,-238.81"/>
<polygon fill="#63b8ff" stroke="#63b8ff" points="1027.51,-236.83 1018.92,-230.62 1021.77,-240.83 1027.51,-236.83"/>
</a>
</g>
</g>
<!-- Node22&#45;&gt;Node19 -->
<g id="edge44_Node000022_Node000019" class="edge">
<title>Node22&#45;&gt;Node19</title>
<g id="a_edge44_Node000022_Node000019"><a xlink:title=" ">
<path fill="none" stroke="#63b8ff" d="M1100.83,-264.88C1173.93,-239.72 1315,-191.16 1394.28,-163.87"/>
<polygon fill="#63b8ff" stroke="#63b8ff" points="1395.3,-167.22 1403.61,-160.66 1393.02,-160.6 1395.3,-167.22"/>
</a>
</g>
</g>
</g>
</svg>
