<?xml version="1.0" encoding="UTF-8" standalone="no"?>
<!DOCTYPE svg PUBLIC "-//W3C//DTD SVG 1.1//EN"
 "http://www.w3.org/Graphics/SVG/1.1/DTD/svg11.dtd">
<!-- Generated by graphviz version 12.2.1 (20241206.2353)
 -->
<!-- Title: include/prismspf/solvers/solve_context.h Pages: 1 -->
<svg width="1181pt" height="446pt"
 viewBox="0.00 0.00 1181.12 445.75" xmlns="http://www.w3.org/2000/svg" xmlns:xlink="http://www.w3.org/1999/xlink">
<g id="graph0" class="graph" transform="scale(1 1) rotate(0) translate(4 441.75)">
<title>include/prismspf/solvers/solve_context.h</title>
<!-- Node1 -->
<g id="Node000001" class="node">
<title>Node1</title>
<g id="a_Node000001"><a xlink:title=" ">
<polygon fill="#999999" stroke="#666666" points="904.25,-437.75 769,-437.75 769,-404.25 904.25,-404.25 904.25,-437.75"/>
<text text-anchor="start" x="777" y="-424.25" font-family="Helvetica,sans-Serif" font-size="10.00">include/prismspf/solvers</text>
<text text-anchor="middle" x="836.62" y="-411.5" font-family="Helvetica,sans-Serif" font-size="10.00">/solve_context.h</text>
</a>
</g>
</g>
<!-- Node2 -->
<g id="Node000002" class="node">
<title>Node2</title>
<g id="a_Node000002"><a xlink:href="problem_8h.html" target="_top" xlink:title=" ">
<polygon fill="white" stroke="#666666" points="865.12,-229.25 744.12,-229.25 744.12,-195.75 865.12,-195.75 865.12,-229.25"/>
<text text-anchor="start" x="752.12" y="-215.75" font-family="Helvetica,sans-Serif" font-size="10.00">include/prismspf/core</text>
<text text-anchor="middle" x="804.62" y="-203" font-family="Helvetica,sans-Serif" font-size="10.00">/problem.h</text>
</a>
</g>
</g>
<!-- Node1&#45;&gt;Node2 -->
<g id="edge1_Node000001_Node000002" class="edge">
<title>Node1&#45;&gt;Node2</title>
<g id="a_edge1_Node000001_Node000002"><a xlink:title=" ">
<path fill="none" stroke="#63b8ff" d="M836.17,-392.78C835.18,-361.63 832.12,-309.25 822.62,-265.25 819.98,-252.98 815.27,-239.6 811.34,-229.52"/>
<polygon fill="#63b8ff" stroke="#63b8ff" points="832.66,-392.57 836.42,-402.48 839.66,-392.39 832.66,-392.57"/>
</a>
</g>
</g>
<!-- Node4 -->
<g id="Node000004" class="node">
<title>Node4</title>
<g id="a_Node000004"><a xlink:href="refinement__manager_8h.html" target="_top" xlink:title=" ">
<polygon fill="white" stroke="#666666" points="813.25,-298.75 684,-298.75 684,-265.25 813.25,-265.25 813.25,-298.75"/>
<text text-anchor="start" x="692" y="-285.25" font-family="Helvetica,sans-Serif" font-size="10.00">include/prismspf/core</text>
<text text-anchor="middle" x="748.62" y="-272.5" font-family="Helvetica,sans-Serif" font-size="10.00">/refinement_manager.h</text>
</a>
</g>
</g>
<!-- Node1&#45;&gt;Node4 -->
<g id="edge3_Node000001_Node000004" class="edge">
<title>Node1&#45;&gt;Node4</title>
<g id="a_edge3_Node000001_Node000004"><a xlink:title=" ">
<path fill="none" stroke="#63b8ff" d="M820.24,-394.49C802.24,-366.47 773.89,-322.33 758.83,-298.88"/>
<polygon fill="#63b8ff" stroke="#63b8ff" points="817.19,-396.22 825.54,-402.74 823.08,-392.44 817.19,-396.22"/>
</a>
</g>
</g>
<!-- Node5 -->
<g id="Node000005" class="node">
<title>Node5</title>
<g id="a_Node000005"><a xlink:href="solution__output_8h.html" target="_top" xlink:title=" ">
<polygon fill="white" stroke="#666666" points="1155.12,-368.25 1034.12,-368.25 1034.12,-334.75 1155.12,-334.75 1155.12,-368.25"/>
<text text-anchor="start" x="1042.12" y="-354.75" font-family="Helvetica,sans-Serif" font-size="10.00">include/prismspf/core</text>
<text text-anchor="middle" x="1094.62" y="-342" font-family="Helvetica,sans-Serif" font-size="10.00">/solution_output.h</text>
</a>
</g>
</g>
<!-- Node1&#45;&gt;Node5 -->
<g id="edge5_Node000001_Node000005" class="edge">
<title>Node1&#45;&gt;Node5</title>
<g id="a_edge5_Node000001_Node000005"><a xlink:title=" ">
<path fill="none" stroke="#63b8ff" d="M909.51,-400.93C948.73,-390.67 996.56,-378.16 1033.78,-368.42"/>
<polygon fill="#63b8ff" stroke="#63b8ff" points="908.68,-397.53 899.89,-403.45 910.45,-404.3 908.68,-397.53"/>
</a>
</g>
</g>
<!-- Node7 -->
<g id="Node000007" class="node">
<title>Node7</title>
<g id="a_Node000007"><a xlink:href="nucleation__manager_8h.html" target="_top" xlink:title=" ">
<polygon fill="white" stroke="#666666" points="1016.12,-368.25 865.12,-368.25 865.12,-334.75 1016.12,-334.75 1016.12,-368.25"/>
<text text-anchor="start" x="873.12" y="-354.75" font-family="Helvetica,sans-Serif" font-size="10.00">include/prismspf/nucleation</text>
<text text-anchor="middle" x="940.62" y="-342" font-family="Helvetica,sans-Serif" font-size="10.00">/nucleation_manager.h</text>
</a>
</g>
</g>
<!-- Node1&#45;&gt;Node7 -->
<g id="edge9_Node000001_Node000007" class="edge">
<title>Node1&#45;&gt;Node7</title>
<g id="a_edge9_Node000001_Node000007"><a xlink:title=" ">
<path fill="none" stroke="#63b8ff" d="M870.84,-397.79C885.56,-388.24 902.45,-377.28 915.92,-368.54"/>
<polygon fill="#63b8ff" stroke="#63b8ff" points="869.29,-394.63 862.81,-403.01 873.1,-400.5 869.29,-394.63"/>
</a>
</g>
</g>
<!-- Node8 -->
<g id="Node000008" class="node">
<title>Node8</title>
<g id="a_Node000008"><a xlink:href="solver__base_8h.html" target="_top" xlink:title=" ">
<polygon fill="white" stroke="#666666" points="565.25,-368.25 430,-368.25 430,-334.75 565.25,-334.75 565.25,-368.25"/>
<text text-anchor="start" x="438" y="-354.75" font-family="Helvetica,sans-Serif" font-size="10.00">include/prismspf/solvers</text>
<text text-anchor="middle" x="497.62" y="-342" font-family="Helvetica,sans-Serif" font-size="10.00">/solver_base.h</text>
</a>
</g>
</g>
<!-- Node1&#45;&gt;Node8 -->
<g id="edge11_Node000001_Node000008" class="edge">
<title>Node1&#45;&gt;Node8</title>
<g id="a_edge11_Node000001_Node000008"><a xlink:title=" ">
<path fill="none" stroke="#63b8ff" d="M757.84,-404.31C699.59,-392.72 621.09,-377.08 565.58,-366.03"/>
<polygon fill="#63b8ff" stroke="#63b8ff" points="756.86,-407.69 767.35,-406.21 758.23,-400.82 756.86,-407.69"/>
</a>
</g>
</g>
<!-- Node3 -->
<g id="Node000003" class="node">
<title>Node3</title>
<g id="a_Node000003"><a xlink:href="problem_8cc.html" target="_top" xlink:title=" ">
<polygon fill="white" stroke="#666666" points="767.25,-20.75 656,-20.75 656,0 767.25,0 767.25,-20.75"/>
<text text-anchor="middle" x="711.62" y="-7.25" font-family="Helvetica,sans-Serif" font-size="10.00">src/core/problem.cc</text>
</a>
</g>
</g>
<!-- Node2&#45;&gt;Node3 -->
<g id="edge2_Node000002_Node000003" class="edge">
<title>Node2&#45;&gt;Node3</title>
<g id="a_edge2_Node000002_Node000003"><a xlink:title=" ">
<path fill="none" stroke="#63b8ff" d="M792.32,-185.03C771.38,-139.96 729.74,-50.35 716.08,-20.96"/>
<polygon fill="#63b8ff" stroke="#63b8ff" points="789.15,-186.5 796.53,-194.09 795.49,-183.55 789.15,-186.5"/>
</a>
</g>
</g>
<!-- Node4&#45;&gt;Node2 -->
<g id="edge4_Node000004_Node000002" class="edge">
<title>Node4&#45;&gt;Node2</title>
<g id="a_edge4_Node000004_Node000002"><a xlink:title=" ">
<path fill="none" stroke="#63b8ff" d="M769.03,-256.41C776.51,-247.39 784.77,-237.43 791.45,-229.38"/>
<polygon fill="#63b8ff" stroke="#63b8ff" points="766.55,-253.91 762.86,-263.84 771.94,-258.38 766.55,-253.91"/>
</a>
</g>
</g>
<!-- Node5&#45;&gt;Node3 -->
<g id="edge7_Node000005_Node000003" class="edge">
<title>Node5&#45;&gt;Node3</title>
<g id="a_edge7_Node000005_Node000003"><a xlink:title=" ">
<path fill="none" stroke="#63b8ff" d="M1094.62,-322.98C1094.62,-295.32 1094.62,-251.45 1094.62,-213.5 1094.62,-213.5 1094.62,-213.5 1094.62,-142 1094.62,-73.77 874.11,-33.87 767.73,-18.6"/>
<polygon fill="#63b8ff" stroke="#63b8ff" points="1091.13,-322.96 1094.63,-332.96 1098.13,-322.96 1091.13,-322.96"/>
</a>
</g>
</g>
<!-- Node5&#45;&gt;Node5 -->
<g id="edge6_Node000005_Node000005" class="edge">
<title>Node5&#45;&gt;Node5</title>
<g id="a_edge6_Node000005_Node000005"><a xlink:title=" ">
<path fill="none" stroke="#63b8ff" d="M1166.34,-360.45C1170.58,-358.31 1173.12,-355.33 1173.12,-351.5 1173.12,-345.05 1165.92,-341 1155.52,-339.33"/>
<polygon fill="#63b8ff" stroke="#63b8ff" points="1165.56,-357.04 1156.97,-363.23 1167.55,-363.75 1165.56,-357.04"/>
</a>
</g>
</g>
<!-- Node6 -->
<g id="Node000006" class="node">
<title>Node6</title>
<g id="a_Node000006"><a xlink:href="solution__output_8cc.html" target="_top" xlink:title=" ">
<polygon fill="white" stroke="#666666" points="1066.88,-292.38 920.38,-292.38 920.38,-271.62 1066.88,-271.62 1066.88,-292.38"/>
<text text-anchor="middle" x="993.62" y="-278.88" font-family="Helvetica,sans-Serif" font-size="10.00">src/core/solution_output.cc</text>
</a>
</g>
</g>
<!-- Node5&#45;&gt;Node6 -->
<g id="edge8_Node000005_Node000006" class="edge">
<title>Node5&#45;&gt;Node6</title>
<g id="a_edge8_Node000005_Node000006"><a xlink:title=" ">
<path fill="none" stroke="#63b8ff" d="M1060.89,-327.96C1043.01,-316.01 1021.97,-301.94 1008.25,-292.77"/>
<polygon fill="#63b8ff" stroke="#63b8ff" points="1058.92,-330.84 1069.17,-333.49 1062.81,-325.02 1058.92,-330.84"/>
</a>
</g>
</g>
<!-- Node7&#45;&gt;Node2 -->
<g id="edge10_Node000007_Node000002" class="edge">
<title>Node7&#45;&gt;Node2</title>
<g id="a_edge10_Node000007_Node000002"><a xlink:title=" ">
<path fill="none" stroke="#63b8ff" d="M916.75,-326.45C889.03,-298.52 844.08,-253.24 820.39,-229.38"/>
<polygon fill="#63b8ff" stroke="#63b8ff" points="914.16,-328.81 923.69,-333.44 919.13,-323.88 914.16,-328.81"/>
</a>
</g>
</g>
<!-- Node8&#45;&gt;Node3 -->
<g id="edge29_Node000008_Node000003" class="edge">
<title>Node8&#45;&gt;Node3</title>
<g id="a_edge29_Node000008_Node000003"><a xlink:title=" ">
<path fill="none" stroke="#63b8ff" d="M576.54,-335.97C598.75,-328.3 621.07,-316.6 636.62,-298.75 662.13,-269.49 655.62,-252.32 655.62,-213.5 655.62,-213.5 655.62,-213.5 655.62,-142 655.62,-93.39 688.79,-42.24 704.07,-21.25"/>
<polygon fill="#63b8ff" stroke="#63b8ff" points="575.59,-332.6 567.12,-338.97 577.71,-339.28 575.59,-332.6"/>
</a>
</g>
</g>
<!-- Node8&#45;&gt;Node4 -->
<g id="edge12_Node000008_Node000004" class="edge">
<title>Node8&#45;&gt;Node4</title>
<g id="a_edge12_Node000008_Node000004"><a xlink:title=" ">
<path fill="none" stroke="#63b8ff" d="M568.69,-331.39C606.52,-321.22 652.53,-308.84 688.56,-299.15"/>
<polygon fill="#63b8ff" stroke="#63b8ff" points="567.96,-327.96 559.21,-333.94 569.77,-334.72 567.96,-327.96"/>
</a>
</g>
</g>
<!-- Node9 -->
<g id="Node000009" class="node">
<title>Node9</title>
<g id="a_Node000009"><a xlink:href="constant__solver_8h.html" target="_top" xlink:title=" ">
<polygon fill="white" stroke="#666666" points="623.25,-159.75 488,-159.75 488,-126.25 623.25,-126.25 623.25,-159.75"/>
<text text-anchor="start" x="496" y="-146.25" font-family="Helvetica,sans-Serif" font-size="10.00">include/prismspf/solvers</text>
<text text-anchor="middle" x="555.62" y="-133.5" font-family="Helvetica,sans-Serif" font-size="10.00">/constant_solver.h</text>
</a>
</g>
</g>
<!-- Node8&#45;&gt;Node9 -->
<g id="edge13_Node000008_Node000009" class="edge">
<title>Node8&#45;&gt;Node9</title>
<g id="a_edge13_Node000008_Node000009"><a xlink:title=" ">
<path fill="none" stroke="#63b8ff" d="M501.59,-323.52C504.59,-306.46 509.45,-284.14 516.62,-265.25 523.13,-248.14 530.12,-246.36 536.62,-229.25 545.46,-206 550.77,-177.56 553.45,-160.11"/>
<polygon fill="#63b8ff" stroke="#63b8ff" points="498.22,-322.46 500.05,-332.9 505.12,-323.6 498.22,-322.46"/>
</a>
</g>
</g>
<!-- Node12 -->
<g id="Node000012" class="node">
<title>Node12</title>
<g id="a_Node000012"><a xlink:href="explicit__solver_8h.html" target="_top" xlink:title=" ">
<polygon fill="white" stroke="#666666" points="527.25,-229.25 392,-229.25 392,-195.75 527.25,-195.75 527.25,-229.25"/>
<text text-anchor="start" x="400" y="-215.75" font-family="Helvetica,sans-Serif" font-size="10.00">include/prismspf/solvers</text>
<text text-anchor="middle" x="459.62" y="-203" font-family="Helvetica,sans-Serif" font-size="10.00">/explicit_solver.h</text>
</a>
</g>
</g>
<!-- Node8&#45;&gt;Node12 -->
<g id="edge17_Node000008_Node000012" class="edge">
<title>Node8&#45;&gt;Node12</title>
<g id="a_edge17_Node000008_Node000012"><a xlink:title=" ">
<path fill="none" stroke="#63b8ff" d="M490.14,-323.5C482.35,-295.42 470.42,-252.42 464.03,-229.38"/>
<polygon fill="#63b8ff" stroke="#63b8ff" points="486.74,-324.36 492.79,-333.06 493.49,-322.49 486.74,-324.36"/>
</a>
</g>
</g>
<!-- Node13 -->
<g id="Node000013" class="node">
<title>Node13</title>
<g id="a_Node000013"><a xlink:href="linear__solver_8h.html" target="_top" xlink:title=" ">
<polygon fill="white" stroke="#666666" points="135.25,-229.25 0,-229.25 0,-195.75 135.25,-195.75 135.25,-229.25"/>
<text text-anchor="start" x="8" y="-215.75" font-family="Helvetica,sans-Serif" font-size="10.00">include/prismspf/solvers</text>
<text text-anchor="middle" x="67.62" y="-203" font-family="Helvetica,sans-Serif" font-size="10.00">/linear_solver.h</text>
</a>
</g>
</g>
<!-- Node8&#45;&gt;Node13 -->
<g id="edge19_Node000008_Node000013" class="edge">
<title>Node8&#45;&gt;Node13</title>
<g id="a_edge19_Node000008_Node000013"><a xlink:title=" ">
<path fill="none" stroke="#63b8ff" d="M418.37,-347.23C353.84,-342.26 261.5,-329.82 186.62,-298.75 146.25,-282 106.41,-249.27 84.61,-229.6"/>
<polygon fill="#63b8ff" stroke="#63b8ff" points="417.94,-350.7 428.17,-347.93 418.45,-343.72 417.94,-350.7"/>
</a>
</g>
</g>
<!-- Node14 -->
<g id="Node000014" class="node">
<title>Node14</title>
<g id="a_Node000014"><a xlink:href="newton__solver_8h.html" target="_top" xlink:title=" ">
<polygon fill="white" stroke="#666666" points="381.25,-159.75 246,-159.75 246,-126.25 381.25,-126.25 381.25,-159.75"/>
<text text-anchor="start" x="254" y="-146.25" font-family="Helvetica,sans-Serif" font-size="10.00">include/prismspf/solvers</text>
<text text-anchor="middle" x="313.62" y="-133.5" font-family="Helvetica,sans-Serif" font-size="10.00">/newton_solver.h</text>
</a>
</g>
</g>
<!-- Node8&#45;&gt;Node14 -->
<g id="edge28_Node000008_Node000014" class="edge">
<title>Node8&#45;&gt;Node14</title>
<g id="a_edge28_Node000008_Node000014"><a xlink:title=" ">
<path fill="none" stroke="#63b8ff" d="M473.8,-326.51C450.14,-302.42 413.08,-263.99 382.62,-229.25 362.04,-205.77 339.51,-177.39 325.98,-160.02"/>
<polygon fill="#63b8ff" stroke="#63b8ff" points="471.01,-328.66 480.52,-333.33 475.99,-323.75 471.01,-328.66"/>
</a>
</g>
</g>
<!-- Node15 -->
<g id="Node000015" class="node">
<title>Node15</title>
<g id="a_Node000015"><a xlink:href="mf__operator_8h.html" target="_top" xlink:title=" ">
<polygon fill="white" stroke="#666666" points="331.25,-298.75 196,-298.75 196,-265.25 331.25,-265.25 331.25,-298.75"/>
<text text-anchor="start" x="204" y="-285.25" font-family="Helvetica,sans-Serif" font-size="10.00">include/prismspf/solvers</text>
<text text-anchor="middle" x="263.62" y="-272.5" font-family="Helvetica,sans-Serif" font-size="10.00">/mf_operator.h</text>
</a>
</g>
</g>
<!-- Node8&#45;&gt;Node15 -->
<g id="edge23_Node000008_Node000015" class="edge">
<title>Node8&#45;&gt;Node15</title>
<g id="a_edge23_Node000008_Node000015"><a xlink:title=" ">
<path fill="none" stroke="#63b8ff" d="M430.92,-331.26C395.74,-321.11 353.06,-308.8 319.62,-299.15"/>
<polygon fill="#63b8ff" stroke="#63b8ff" points="429.54,-334.5 440.12,-333.91 431.48,-327.78 429.54,-334.5"/>
</a>
</g>
</g>
<!-- Node17 -->
<g id="Node000017" class="node">
<title>Node17</title>
<g id="a_Node000017"><a xlink:href="solver__base_8cc.html" target="_top" xlink:title=" ">
<polygon fill="white" stroke="#666666" points="627.38,-298.75 525.88,-298.75 525.88,-265.25 627.38,-265.25 627.38,-298.75"/>
<text text-anchor="start" x="533.88" y="-285.25" font-family="Helvetica,sans-Serif" font-size="10.00">src/solvers/solver</text>
<text text-anchor="middle" x="576.62" y="-272.5" font-family="Helvetica,sans-Serif" font-size="10.00">_base.cc</text>
</a>
</g>
</g>
<!-- Node8&#45;&gt;Node17 -->
<g id="edge30_Node000008_Node000017" class="edge">
<title>Node8&#45;&gt;Node17</title>
<g id="a_edge30_Node000008_Node000017"><a xlink:title=" ">
<path fill="none" stroke="#63b8ff" d="M525.03,-327.09C535.83,-317.85 547.97,-307.48 557.76,-299.12"/>
<polygon fill="#63b8ff" stroke="#63b8ff" points="522.83,-324.36 517.5,-333.52 527.37,-329.69 522.83,-324.36"/>
</a>
</g>
</g>
<!-- Node10 -->
<g id="Node000010" class="node">
<title>Node10</title>
<g id="a_Node000010"><a xlink:href="solvers_8h.html" target="_top" xlink:title=" ">
<polygon fill="white" stroke="#666666" points="527.25,-90.25 392,-90.25 392,-56.75 527.25,-56.75 527.25,-90.25"/>
<text text-anchor="start" x="400" y="-76.75" font-family="Helvetica,sans-Serif" font-size="10.00">include/prismspf/solvers</text>
<text text-anchor="middle" x="459.62" y="-64" font-family="Helvetica,sans-Serif" font-size="10.00">/solvers.h</text>
</a>
</g>
</g>
<!-- Node9&#45;&gt;Node10 -->
<g id="edge14_Node000009_Node000010" class="edge">
<title>Node9&#45;&gt;Node10</title>
<g id="a_edge14_Node000009_Node000010"><a xlink:title=" ">
<path fill="none" stroke="#63b8ff" d="M523.5,-119.41C510.08,-109.98 494.8,-99.23 482.55,-90.62"/>
<polygon fill="#63b8ff" stroke="#63b8ff" points="521.44,-122.24 531.64,-125.13 525.47,-116.52 521.44,-122.24"/>
</a>
</g>
</g>
<!-- Node10&#45;&gt;Node3 -->
<g id="edge15_Node000010_Node000003" class="edge">
<title>Node10&#45;&gt;Node3</title>
<g id="a_edge15_Node000010_Node000003"><a xlink:title=" ">
<path fill="none" stroke="#63b8ff" d="M537.53,-53.6C581.78,-42.87 635.34,-29.88 671.26,-21.17"/>
<polygon fill="#63b8ff" stroke="#63b8ff" points="536.86,-50.16 527.97,-55.92 538.51,-56.97 536.86,-50.16"/>
</a>
</g>
</g>
<!-- Node11 -->
<g id="Node000011" class="node">
<title>Node11</title>
<g id="a_Node000011"><a xlink:href="solvers_8cc.html" target="_top" xlink:title=" ">
<polygon fill="white" stroke="#666666" points="519.75,-20.75 399.5,-20.75 399.5,0 519.75,0 519.75,-20.75"/>
<text text-anchor="middle" x="459.62" y="-7.25" font-family="Helvetica,sans-Serif" font-size="10.00">src/solvers/solvers.cc</text>
</a>
</g>
</g>
<!-- Node10&#45;&gt;Node11 -->
<g id="edge16_Node000010_Node000011" class="edge">
<title>Node10&#45;&gt;Node11</title>
<g id="a_edge16_Node000010_Node000011"><a xlink:title=" ">
<path fill="none" stroke="#63b8ff" d="M459.62,-44.94C459.62,-36.46 459.62,-27.67 459.62,-21.22"/>
<polygon fill="#63b8ff" stroke="#63b8ff" points="456.13,-44.93 459.63,-54.93 463.13,-44.93 456.13,-44.93"/>
</a>
</g>
</g>
<!-- Node12&#45;&gt;Node10 -->
<g id="edge18_Node000012_Node000010" class="edge">
<title>Node12&#45;&gt;Node10</title>
<g id="a_edge18_Node000012_Node000010"><a xlink:title=" ">
<path fill="none" stroke="#63b8ff" d="M459.62,-184.12C459.62,-156.04 459.62,-113.32 459.62,-90.38"/>
<polygon fill="#63b8ff" stroke="#63b8ff" points="456.13,-184 459.63,-194 463.13,-184 456.13,-184"/>
</a>
</g>
</g>
<!-- Node13&#45;&gt;Node10 -->
<g id="edge22_Node000013_Node000010" class="edge">
<title>Node13&#45;&gt;Node10</title>
<g id="a_edge22_Node000013_Node000010"><a xlink:title=" ">
<path fill="none" stroke="#63b8ff" d="M104.33,-189.75C137.81,-170.7 189.17,-143.45 236.62,-126.25 287.26,-107.9 346.77,-94.48 391.57,-85.91"/>
<polygon fill="#63b8ff" stroke="#63b8ff" points="102.77,-186.61 95.85,-194.62 106.26,-192.68 102.77,-186.61"/>
</a>
</g>
</g>
<!-- Node13&#45;&gt;Node14 -->
<g id="edge20_Node000013_Node000014" class="edge">
<title>Node13&#45;&gt;Node14</title>
<g id="a_edge20_Node000013_Node000014"><a xlink:title=" ">
<path fill="none" stroke="#63b8ff" d="M137.28,-192.39C174.35,-182.22 219.45,-169.84 254.76,-160.15"/>
<polygon fill="#63b8ff" stroke="#63b8ff" points="136.73,-188.91 128.01,-194.93 138.58,-195.66 136.73,-188.91"/>
</a>
</g>
</g>
<!-- Node14&#45;&gt;Node10 -->
<g id="edge21_Node000014_Node000010" class="edge">
<title>Node14&#45;&gt;Node10</title>
<g id="a_edge21_Node000014_Node000010"><a xlink:title=" ">
<path fill="none" stroke="#63b8ff" d="M358.98,-121.03C380.16,-111.24 404.99,-99.76 424.69,-90.65"/>
<polygon fill="#63b8ff" stroke="#63b8ff" points="357.58,-117.82 349.97,-125.2 360.52,-124.18 357.58,-117.82"/>
</a>
</g>
</g>
<!-- Node15&#45;&gt;Node12 -->
<g id="edge24_Node000015_Node000012" class="edge">
<title>Node15&#45;&gt;Node12</title>
<g id="a_edge24_Node000015_Node000012"><a xlink:title=" ">
<path fill="none" stroke="#63b8ff" d="M321.41,-261.1C350.5,-251.08 385.31,-239.09 412.72,-229.65"/>
<polygon fill="#63b8ff" stroke="#63b8ff" points="320.32,-257.77 312,-264.34 322.6,-264.39 320.32,-257.77"/>
</a>
</g>
</g>
<!-- Node15&#45;&gt;Node13 -->
<g id="edge25_Node000015_Node000013" class="edge">
<title>Node15&#45;&gt;Node13</title>
<g id="a_edge25_Node000015_Node000013"><a xlink:title=" ">
<path fill="none" stroke="#63b8ff" d="M205.84,-261.1C176.75,-251.08 141.94,-239.09 114.53,-229.65"/>
<polygon fill="#63b8ff" stroke="#63b8ff" points="204.65,-264.39 215.25,-264.34 206.93,-257.77 204.65,-264.39"/>
</a>
</g>
</g>
<!-- Node15&#45;&gt;Node14 -->
<g id="edge26_Node000015_Node000014" class="edge">
<title>Node15&#45;&gt;Node14</title>
<g id="a_edge26_Node000015_Node000014"><a xlink:title=" ">
<path fill="none" stroke="#63b8ff" d="M212.7,-259.29C200.72,-251.63 189.46,-241.72 182.62,-229.25 175.47,-216.19 174.25,-208.06 182.62,-195.75 197.07,-174.52 221.7,-162 245.73,-154.61"/>
<polygon fill="#63b8ff" stroke="#63b8ff" points="210.69,-262.17 221.09,-264.19 214.22,-256.12 210.69,-262.17"/>
</a>
</g>
</g>
<!-- Node16 -->
<g id="Node000016" class="node">
<title>Node16</title>
<g id="a_Node000016"><a xlink:href="mf__operator_8cc.html" target="_top" xlink:title=" ">
<polygon fill="white" stroke="#666666" points="335.75,-222.88 191.5,-222.88 191.5,-202.12 335.75,-202.12 335.75,-222.88"/>
<text text-anchor="middle" x="263.62" y="-209.38" font-family="Helvetica,sans-Serif" font-size="10.00">src/solvers/mf_operator.cc</text>
</a>
</g>
</g>
<!-- Node15&#45;&gt;Node16 -->
<g id="edge27_Node000015_Node000016" class="edge">
<title>Node15&#45;&gt;Node16</title>
<g id="a_edge27_Node000015_Node000016"><a xlink:title=" ">
<path fill="none" stroke="#63b8ff" d="M263.62,-253.53C263.62,-242.83 263.62,-231.26 263.62,-223.32"/>
<polygon fill="#63b8ff" stroke="#63b8ff" points="260.13,-253.49 263.63,-263.49 267.13,-253.49 260.13,-253.49"/>
</a>
</g>
</g>
</g>
</svg>
