<?xml version="1.0" encoding="UTF-8" standalone="no"?>
<!DOCTYPE svg PUBLIC "-//W3C//DTD SVG 1.1//EN"
 "http://www.w3.org/Graphics/SVG/1.1/DTD/svg11.dtd">
<!-- Generated by graphviz version 12.2.1 (20241206.2353)
 -->
<!-- Title: include/prismspf/core/solve_block.h Pages: 1 -->
<svg width="2024pt" height="446pt"
 viewBox="0.00 0.00 2024.28 445.75" xmlns="http://www.w3.org/2000/svg" xmlns:xlink="http://www.w3.org/1999/xlink">
<g id="graph0" class="graph" transform="scale(1 1) rotate(0) translate(4 441.75)">
<title>include/prismspf/core/solve_block.h</title>
<!-- Node1 -->
<g id="Node000001" class="node">
<title>Node1</title>
<g id="a_Node000001"><a xlink:title=" ">
<polygon fill="#999999" stroke="#666666" points="655.5,-437.75 534.5,-437.75 534.5,-404.25 655.5,-404.25 655.5,-437.75"/>
<text text-anchor="start" x="542.5" y="-424.25" font-family="Helvetica,sans-Serif" font-size="10.00">include/prismspf/core</text>
<text text-anchor="middle" x="595" y="-411.5" font-family="Helvetica,sans-Serif" font-size="10.00">/solve_block.h</text>
</a>
</g>
</g>
<!-- Node2 -->
<g id="Node000002" class="node">
<title>Node2</title>
<g id="a_Node000002"><a xlink:title=" ">
<polygon fill="#e0e0e0" stroke="#999999" points="598.75,-153.38 461.25,-153.38 461.25,-132.62 598.75,-132.62 598.75,-153.38"/>
<text text-anchor="middle" x="530" y="-139.88" font-family="Helvetica,sans-Serif" font-size="10.00">deal.II/base/exceptions.h</text>
</a>
</g>
</g>
<!-- Node1&#45;&gt;Node2 -->
<g id="edge1_Node000001_Node000002" class="edge">
<title>Node1&#45;&gt;Node2</title>
<g id="a_edge1_Node000001_Node000002"><a xlink:title=" ">
<path fill="none" stroke="#63b8ff" d="M534.13,-406.78C452.12,-385.34 309.23,-334.33 247,-229.25 239.41,-216.44 237.47,-207.19 247,-195.75 272.4,-165.28 375.24,-152.7 449.63,-147.54"/>
<polygon fill="#63b8ff" stroke="#63b8ff" points="449.59,-151.05 459.34,-146.9 449.13,-144.06 449.59,-151.05"/>
</a>
</g>
</g>
<!-- Node3 -->
<g id="Node000003" class="node">
<title>Node3</title>
<g id="a_Node000003"><a xlink:title=" ">
<polygon fill="#e0e0e0" stroke="#999999" points="288.12,-90.25 179.88,-90.25 179.88,-56.75 288.12,-56.75 288.12,-90.25"/>
<text text-anchor="start" x="187.88" y="-76.75" font-family="Helvetica,sans-Serif" font-size="10.00">deal.II/matrix_free</text>
<text text-anchor="middle" x="234" y="-64" font-family="Helvetica,sans-Serif" font-size="10.00">/evaluation_flags.h</text>
</a>
</g>
</g>
<!-- Node1&#45;&gt;Node3 -->
<g id="edge2_Node000001_Node000003" class="edge">
<title>Node1&#45;&gt;Node3</title>
<g id="a_edge2_Node000001_Node000003"><a xlink:title=" ">
<path fill="none" stroke="#63b8ff" d="M534.03,-418.73C421.87,-415.52 187.73,-404.57 116,-368.25 70.18,-345.05 38,-334.36 38,-283 38,-283 38,-283 38,-211.5 38,-146.37 111.61,-109.61 168.61,-90.92"/>
<polygon fill="#63b8ff" stroke="#63b8ff" points="169.47,-94.32 177.96,-87.98 167.37,-87.64 169.47,-94.32"/>
</a>
</g>
</g>
<!-- Node4 -->
<g id="Node000004" class="node">
<title>Node4</title>
<g id="a_Node000004"><a xlink:href="dependencies_8h.html" target="_top" xlink:title=" ">
<polygon fill="white" stroke="#666666" points="595.12,-292.38 432.88,-292.38 432.88,-271.62 595.12,-271.62 595.12,-292.38"/>
<text text-anchor="middle" x="514" y="-278.88" font-family="Helvetica,sans-Serif" font-size="10.00">prismspf/core/dependencies.h</text>
</a>
</g>
</g>
<!-- Node1&#45;&gt;Node4 -->
<g id="edge3_Node000001_Node000004" class="edge">
<title>Node1&#45;&gt;Node4</title>
<g id="a_edge3_Node000001_Node000004"><a xlink:title=" ">
<path fill="none" stroke="#63b8ff" d="M585.55,-404.02C570.59,-378.72 541.51,-329.53 525.41,-302.3"/>
<polygon fill="#63b8ff" stroke="#63b8ff" points="528.62,-300.86 520.52,-294.03 522.6,-304.42 528.62,-300.86"/>
</a>
</g>
</g>
<!-- Node8 -->
<g id="Node000008" class="node">
<title>Node8</title>
<g id="a_Node000008"><a xlink:title=" ">
<polygon fill="#e0e0e0" stroke="#999999" points="1056,-20.75 956,-20.75 956,0 1056,0 1056,-20.75"/>
<text text-anchor="middle" x="1006" y="-7.25" font-family="Helvetica,sans-Serif" font-size="10.00">prismspf/config.h</text>
</a>
</g>
</g>
<!-- Node1&#45;&gt;Node8 -->
<g id="edge57_Node000001_Node000008" class="edge">
<title>Node1&#45;&gt;Node8</title>
<g id="a_edge57_Node000001_Node000008"><a xlink:title=" ">
<path fill="none" stroke="#63b8ff" d="M655.81,-420.32C919.27,-420.93 1949,-414.87 1949,-283 1949,-283 1949,-283 1949,-142 1949,-102.58 2193.47,-154.44 1744,-56.75 1615.71,-28.87 1221.28,-16.57 1067.91,-12.76"/>
<polygon fill="#63b8ff" stroke="#63b8ff" points="1068.02,-9.26 1057.93,-12.51 1067.85,-16.26 1068.02,-9.26"/>
</a>
</g>
</g>
<!-- Node10 -->
<g id="Node000010" class="node">
<title>Node10</title>
<g id="a_Node000010"><a xlink:href="type__enums_8h.html" target="_top" xlink:title=" ">
<polygon fill="white" stroke="#666666" points="612.75,-90.25 505.25,-90.25 505.25,-56.75 612.75,-56.75 612.75,-90.25"/>
<text text-anchor="start" x="513.25" y="-76.75" font-family="Helvetica,sans-Serif" font-size="10.00">prismspf/core/type</text>
<text text-anchor="middle" x="559" y="-64" font-family="Helvetica,sans-Serif" font-size="10.00">_enums.h</text>
</a>
</g>
</g>
<!-- Node1&#45;&gt;Node10 -->
<g id="edge31_Node000001_Node000010" class="edge">
<title>Node1&#45;&gt;Node10</title>
<g id="a_edge31_Node000001_Node000010"><a xlink:title=" ">
<path fill="none" stroke="#63b8ff" d="M534.19,-416.77C397.14,-407.82 76,-376.83 76,-283 76,-283 76,-283 76,-211.5 76,-125.64 362.05,-90.8 493.88,-79.29"/>
<polygon fill="#63b8ff" stroke="#63b8ff" points="493.82,-82.81 503.49,-78.48 493.23,-75.84 493.82,-82.81"/>
</a>
</g>
</g>
<!-- Node12 -->
<g id="Node000012" class="node">
<title>Node12</title>
<g id="a_Node000012"><a xlink:title=" ">
<polygon fill="#e0e0e0" stroke="#999999" points="612.88,-20.75 569.12,-20.75 569.12,0 612.88,0 612.88,-20.75"/>
<text text-anchor="middle" x="591" y="-7.25" font-family="Helvetica,sans-Serif" font-size="10.00">string</text>
</a>
</g>
</g>
<!-- Node1&#45;&gt;Node12 -->
<g id="edge59_Node000001_Node000012" class="edge">
<title>Node1&#45;&gt;Node12</title>
<g id="a_edge59_Node000001_Node000012"><a xlink:title=" ">
<path fill="none" stroke="#63b8ff" d="M534,-420.64C410.33,-420.91 135.09,-415.95 56,-368.25 17.18,-344.84 0,-328.33 0,-283 0,-283 0,-283 0,-142 0,-66.48 74.99,-79.51 147,-56.75 319.58,-2.2 377.48,-54.33 557.66,-21.03"/>
<polygon fill="#63b8ff" stroke="#63b8ff" points="558.21,-24.49 567.37,-19.17 556.89,-17.61 558.21,-24.49"/>
</a>
</g>
</g>
<!-- Node13 -->
<g id="Node000013" class="node">
<title>Node13</title>
<g id="a_Node000013"><a xlink:href="types_8h.html" target="_top" xlink:title=" ">
<polygon fill="white" stroke="#666666" points="738.88,-153.38 617.12,-153.38 617.12,-132.62 738.88,-132.62 738.88,-153.38"/>
<text text-anchor="middle" x="678" y="-139.88" font-family="Helvetica,sans-Serif" font-size="10.00">prismspf/core/types.h</text>
</a>
</g>
</g>
<!-- Node1&#45;&gt;Node13 -->
<g id="edge32_Node000001_Node000013" class="edge">
<title>Node1&#45;&gt;Node13</title>
<g id="a_edge32_Node000001_Node000013"><a xlink:title=" ">
<path fill="none" stroke="#63b8ff" d="M602.92,-403.95C607.69,-393.86 613.67,-380.49 618,-368.25 643.94,-294.88 664.89,-204.6 673.61,-164.67"/>
<polygon fill="#63b8ff" stroke="#63b8ff" points="677,-165.55 675.69,-155.04 670.16,-164.08 677,-165.55"/>
</a>
</g>
</g>
<!-- Node15 -->
<g id="Node000015" class="node">
<title>Node15</title>
<g id="a_Node000015"><a xlink:title=" ">
<polygon fill="#e0e0e0" stroke="#999999" points="955.38,-153.38 908.62,-153.38 908.62,-132.62 955.38,-132.62 955.38,-153.38"/>
<text text-anchor="middle" x="932" y="-139.88" font-family="Helvetica,sans-Serif" font-size="10.00">vector</text>
</a>
</g>
</g>
<!-- Node1&#45;&gt;Node15 -->
<g id="edge60_Node000001_Node000015" class="edge">
<title>Node1&#45;&gt;Node15</title>
<g id="a_edge60_Node000001_Node000015"><a xlink:title=" ">
<path fill="none" stroke="#63b8ff" d="M655.85,-406.98C738.27,-385.72 882.28,-334.86 945,-229.25 956.85,-209.3 949.59,-182.27 942.01,-164.04"/>
<polygon fill="#63b8ff" stroke="#63b8ff" points="945.27,-162.75 937.94,-155.1 938.9,-165.65 945.27,-162.75"/>
</a>
</g>
</g>
<!-- Node17 -->
<g id="Node000017" class="node">
<title>Node17</title>
<g id="a_Node000017"><a xlink:title=" ">
<polygon fill="#e0e0e0" stroke="#999999" points="638.5,-222.88 607.5,-222.88 607.5,-202.12 638.5,-202.12 638.5,-222.88"/>
<text text-anchor="middle" x="623" y="-209.38" font-family="Helvetica,sans-Serif" font-size="10.00">set</text>
</a>
</g>
</g>
<!-- Node1&#45;&gt;Node17 -->
<g id="edge58_Node000001_Node000017" class="edge">
<title>Node1&#45;&gt;Node17</title>
<g id="a_edge58_Node000001_Node000017"><a xlink:title=" ">
<path fill="none" stroke="#63b8ff" d="M597.2,-403.8C602.23,-366.65 614.61,-275.41 620.19,-234.24"/>
<polygon fill="#63b8ff" stroke="#63b8ff" points="623.64,-234.86 621.51,-224.48 616.7,-233.92 623.64,-234.86"/>
</a>
</g>
</g>
<!-- Node18 -->
<g id="Node000018" class="node">
<title>Node18</title>
<g id="a_Node000018"><a xlink:href="solve__parameters_8h.html" target="_top" xlink:title=" ">
<polygon fill="white" stroke="#666666" points="1379,-368.25 1261,-368.25 1261,-334.75 1379,-334.75 1379,-368.25"/>
<text text-anchor="start" x="1269" y="-354.75" font-family="Helvetica,sans-Serif" font-size="10.00">prismspf/user_inputs</text>
<text text-anchor="middle" x="1320" y="-342" font-family="Helvetica,sans-Serif" font-size="10.00">/solve_parameters.h</text>
</a>
</g>
</g>
<!-- Node1&#45;&gt;Node18 -->
<g id="edge33_Node000001_Node000018" class="edge">
<title>Node1&#45;&gt;Node18</title>
<g id="a_edge33_Node000001_Node000018"><a xlink:title=" ">
<path fill="none" stroke="#63b8ff" d="M655.88,-414.33C789.45,-401.9 1107.62,-372.27 1249.55,-359.06"/>
<polygon fill="#63b8ff" stroke="#63b8ff" points="1249.55,-362.57 1259.18,-358.16 1248.9,-355.6 1249.55,-362.57"/>
</a>
</g>
</g>
<!-- Node4&#45;&gt;Node2 -->
<g id="edge4_Node000004_Node000002" class="edge">
<title>Node4&#45;&gt;Node2</title>
<g id="a_edge4_Node000004_Node000002"><a xlink:title=" ">
<path fill="none" stroke="#63b8ff" d="M515.15,-271.15C517.73,-249.03 524.04,-195.02 527.55,-165"/>
<polygon fill="#63b8ff" stroke="#63b8ff" points="531,-165.61 528.68,-155.27 524.05,-164.79 531,-165.61"/>
</a>
</g>
</g>
<!-- Node4&#45;&gt;Node3 -->
<g id="edge6_Node000004_Node000003" class="edge">
<title>Node4&#45;&gt;Node3</title>
<g id="a_edge6_Node000004_Node000003"><a xlink:title=" ">
<path fill="none" stroke="#63b8ff" d="M432.52,-275.82C363.27,-269.58 271.33,-256.35 247,-229.25 215.74,-194.43 220.89,-135.71 227.45,-101.49"/>
<polygon fill="#63b8ff" stroke="#63b8ff" points="230.82,-102.47 229.46,-91.97 223.97,-101.03 230.82,-102.47"/>
</a>
</g>
</g>
<!-- Node5 -->
<g id="Node000005" class="node">
<title>Node5</title>
<g id="a_Node000005"><a xlink:title=" ">
<polygon fill="#e0e0e0" stroke="#999999" points="436.5,-222.88 315.5,-222.88 315.5,-202.12 436.5,-202.12 436.5,-222.88"/>
<text text-anchor="middle" x="376" y="-209.38" font-family="Helvetica,sans-Serif" font-size="10.00">deal.II/base/utilities.h</text>
</a>
</g>
</g>
<!-- Node4&#45;&gt;Node5 -->
<g id="edge5_Node000004_Node000005" class="edge">
<title>Node4&#45;&gt;Node5</title>
<g id="a_edge5_Node000004_Node000005"><a xlink:title=" ">
<path fill="none" stroke="#63b8ff" d="M493.93,-271.18C470.94,-259.94 433,-241.38 406.38,-228.36"/>
<polygon fill="#63b8ff" stroke="#63b8ff" points="407.97,-225.24 397.45,-223.99 404.9,-231.53 407.97,-225.24"/>
</a>
</g>
</g>
<!-- Node6 -->
<g id="Node000006" class="node">
<title>Node6</title>
<g id="a_Node000006"><a xlink:href="conditional__ostreams_8h.html" target="_top" xlink:title=" ">
<polygon fill="white" stroke="#666666" points="1148.88,-229.25 1009.12,-229.25 1009.12,-195.75 1148.88,-195.75 1148.88,-229.25"/>
<text text-anchor="start" x="1017.12" y="-215.75" font-family="Helvetica,sans-Serif" font-size="10.00">prismspf/core/conditional</text>
<text text-anchor="middle" x="1079" y="-203" font-family="Helvetica,sans-Serif" font-size="10.00">_ostreams.h</text>
</a>
</g>
</g>
<!-- Node4&#45;&gt;Node6 -->
<g id="edge7_Node000004_Node000006" class="edge">
<title>Node4&#45;&gt;Node6</title>
<g id="a_edge7_Node000004_Node000006"><a xlink:title=" ">
<path fill="none" stroke="#63b8ff" d="M595.28,-271.8C684.15,-261.68 830.77,-244.77 957,-229.25 970.08,-227.64 983.95,-225.89 997.46,-224.17"/>
<polygon fill="#63b8ff" stroke="#63b8ff" points="997.72,-227.66 1007.2,-222.92 996.83,-220.72 997.72,-227.66"/>
</a>
</g>
</g>
<!-- Node4&#45;&gt;Node8 -->
<g id="edge26_Node000004_Node000008" class="edge">
<title>Node4&#45;&gt;Node8</title>
<g id="a_edge26_Node000004_Node000008"><a xlink:title=" ">
<path fill="none" stroke="#63b8ff" d="M523.44,-271.39C545.11,-249.37 596.7,-197.04 599,-195.75 658.39,-162.37 684.82,-185.23 748,-159.75 832.06,-125.86 845.23,-101.58 924,-56.75 941.98,-46.52 962.33,-35.26 978.26,-26.51"/>
<polygon fill="#63b8ff" stroke="#63b8ff" points="979.6,-29.77 986.69,-21.89 976.24,-23.63 979.6,-29.77"/>
</a>
</g>
</g>
<!-- Node9 -->
<g id="Node000009" class="node">
<title>Node9</title>
<g id="a_Node000009"><a xlink:href="field__attributes_8h.html" target="_top" xlink:title=" ">
<polygon fill="white" stroke="#666666" points="915.38,-229.25 808.62,-229.25 808.62,-195.75 915.38,-195.75 915.38,-229.25"/>
<text text-anchor="start" x="816.62" y="-215.75" font-family="Helvetica,sans-Serif" font-size="10.00">prismspf/core/field</text>
<text text-anchor="middle" x="862" y="-203" font-family="Helvetica,sans-Serif" font-size="10.00">_attributes.h</text>
</a>
</g>
</g>
<!-- Node4&#45;&gt;Node9 -->
<g id="edge10_Node000004_Node000009" class="edge">
<title>Node4&#45;&gt;Node9</title>
<g id="a_edge10_Node000004_Node000009"><a xlink:title=" ">
<path fill="none" stroke="#63b8ff" d="M564.6,-271.18C625.99,-259.28 729.6,-239.18 796.89,-226.13"/>
<polygon fill="#63b8ff" stroke="#63b8ff" points="797.55,-229.57 806.7,-224.23 796.22,-222.69 797.55,-229.57"/>
</a>
</g>
</g>
<!-- Node4&#45;&gt;Node10 -->
<g id="edge24_Node000004_Node000010" class="edge">
<title>Node4&#45;&gt;Node10</title>
<g id="a_edge24_Node000004_Node000010"><a xlink:title=" ">
<path fill="none" stroke="#63b8ff" d="M504.2,-271.38C479.77,-246.18 420.32,-176.76 452,-126.25 461.81,-110.62 477.82,-99.59 494.51,-91.86"/>
<polygon fill="#63b8ff" stroke="#63b8ff" points="495.69,-95.16 503.54,-88.05 492.97,-88.71 495.69,-95.16"/>
</a>
</g>
</g>
<!-- Node4&#45;&gt;Node12 -->
<g id="edge29_Node000004_Node000012" class="edge">
<title>Node4&#45;&gt;Node12</title>
<g id="a_edge29_Node000004_Node000012"><a xlink:title=" ">
<path fill="none" stroke="#63b8ff" d="M432.69,-275.27C358.56,-268.51 256.04,-254.8 225,-229.25 162.98,-178.19 116.87,-116.11 171,-56.75 227.41,5.11 457.19,-34.53 557.56,-20.76"/>
<polygon fill="#63b8ff" stroke="#63b8ff" points="558.08,-24.22 567.36,-19.12 556.92,-17.32 558.08,-24.22"/>
</a>
</g>
</g>
<!-- Node4&#45;&gt;Node13 -->
<g id="edge25_Node000004_Node000013" class="edge">
<title>Node4&#45;&gt;Node13</title>
<g id="a_edge25_Node000004_Node000013"><a xlink:title=" ">
<path fill="none" stroke="#63b8ff" d="M517.56,-271.28C524.32,-253.98 540.59,-217.62 565,-195.75 584.34,-178.43 610.46,-165.96 632.71,-157.6"/>
<polygon fill="#63b8ff" stroke="#63b8ff" points="633.61,-161 641.86,-154.34 631.26,-154.41 633.61,-161"/>
</a>
</g>
</g>
<!-- Node4&#45;&gt;Node15 -->
<g id="edge30_Node000004_Node000015" class="edge">
<title>Node4&#45;&gt;Node15</title>
<g id="a_edge30_Node000004_Node000015"><a xlink:title=" ">
<path fill="none" stroke="#63b8ff" d="M595.48,-276.13C708.5,-268.56 901.57,-252.41 924,-229.25 940.2,-212.52 939.57,-184.34 936.64,-164.98"/>
<polygon fill="#63b8ff" stroke="#63b8ff" points="940.1,-164.42 934.81,-155.24 933.21,-165.71 940.1,-164.42"/>
</a>
</g>
</g>
<!-- Node16 -->
<g id="Node000016" class="node">
<title>Node16</title>
<g id="a_Node000016"><a xlink:title=" ">
<polygon fill="#e0e0e0" stroke="#999999" points="297.75,-222.88 256.25,-222.88 256.25,-202.12 297.75,-202.12 297.75,-222.88"/>
<text text-anchor="middle" x="277" y="-209.38" font-family="Helvetica,sans-Serif" font-size="10.00">array</text>
</a>
</g>
</g>
<!-- Node4&#45;&gt;Node16 -->
<g id="edge27_Node000004_Node000016" class="edge">
<title>Node4&#45;&gt;Node16</title>
<g id="a_edge27_Node000004_Node000016"><a xlink:title=" ">
<path fill="none" stroke="#63b8ff" d="M458.52,-271.19C415.93,-262.71 356.12,-248.73 306,-229.25 305.07,-228.89 304.12,-228.5 303.18,-228.09"/>
<polygon fill="#63b8ff" stroke="#63b8ff" points="305.1,-225.14 294.58,-223.91 302.04,-231.43 305.1,-225.14"/>
</a>
</g>
</g>
<!-- Node4&#45;&gt;Node17 -->
<g id="edge28_Node000004_Node000017" class="edge">
<title>Node4&#45;&gt;Node17</title>
<g id="a_edge28_Node000004_Node000017"><a xlink:title=" ">
<path fill="none" stroke="#63b8ff" d="M529.62,-271.33C547.32,-260.36 576.45,-242.32 597.47,-229.31"/>
<polygon fill="#63b8ff" stroke="#63b8ff" points="599.11,-232.41 605.77,-224.17 595.43,-226.46 599.11,-232.41"/>
</a>
</g>
</g>
<!-- Node7 -->
<g id="Node000007" class="node">
<title>Node7</title>
<g id="a_Node000007"><a xlink:title=" ">
<polygon fill="#e0e0e0" stroke="#999999" points="1102.62,-159.75 973.38,-159.75 973.38,-126.25 1102.62,-126.25 1102.62,-159.75"/>
<text text-anchor="start" x="981.38" y="-146.25" font-family="Helvetica,sans-Serif" font-size="10.00">deal.II/base/conditional</text>
<text text-anchor="middle" x="1038" y="-133.5" font-family="Helvetica,sans-Serif" font-size="10.00">_ostream.h</text>
</a>
</g>
</g>
<!-- Node6&#45;&gt;Node7 -->
<g id="edge8_Node000006_Node000007" class="edge">
<title>Node6&#45;&gt;Node7</title>
<g id="a_edge8_Node000006_Node000007"><a xlink:title=" ">
<path fill="none" stroke="#63b8ff" d="M1069.28,-195.5C1064.59,-187.77 1058.83,-178.3 1053.55,-169.59"/>
<polygon fill="#63b8ff" stroke="#63b8ff" points="1056.62,-167.91 1048.43,-161.18 1050.63,-171.54 1056.62,-167.91"/>
</a>
</g>
</g>
<!-- Node6&#45;&gt;Node8 -->
<g id="edge9_Node000006_Node000008" class="edge">
<title>Node6&#45;&gt;Node8</title>
<g id="a_edge9_Node000006_Node000008"><a xlink:title=" ">
<path fill="none" stroke="#63b8ff" d="M1092.64,-195.45C1099.93,-185.78 1108.18,-172.84 1112,-159.75 1116.17,-145.46 1117.42,-140.12 1112,-126.25 1095.44,-83.89 1055.14,-47.76 1029.27,-27.86"/>
<polygon fill="#63b8ff" stroke="#63b8ff" points="1031.46,-25.13 1021.36,-21.95 1027.28,-30.74 1031.46,-25.13"/>
</a>
</g>
</g>
<!-- Node9&#45;&gt;Node2 -->
<g id="edge11_Node000009_Node000002" class="edge">
<title>Node9&#45;&gt;Node2</title>
<g id="a_edge11_Node000009_Node000002"><a xlink:title=" ">
<path fill="none" stroke="#63b8ff" d="M808.29,-200.58C748.43,-188.41 651.88,-168.78 589.7,-156.14"/>
<polygon fill="#63b8ff" stroke="#63b8ff" points="590.48,-152.73 579.98,-154.16 589.09,-159.58 590.48,-152.73"/>
</a>
</g>
</g>
<!-- Node9&#45;&gt;Node8 -->
<g id="edge20_Node000009_Node000008" class="edge">
<title>Node9&#45;&gt;Node8</title>
<g id="a_edge20_Node000009_Node000008"><a xlink:title=" ">
<path fill="none" stroke="#63b8ff" d="M867.42,-195.31C873.76,-177.54 885.3,-148.58 900,-126.25 925.29,-87.83 963.56,-49.93 986.54,-28.7"/>
<polygon fill="#63b8ff" stroke="#63b8ff" points="988.65,-31.5 993.69,-22.18 983.94,-26.33 988.65,-31.5"/>
</a>
</g>
</g>
<!-- Node9&#45;&gt;Node10 -->
<g id="edge12_Node000009_Node000010" class="edge">
<title>Node9&#45;&gt;Node10</title>
<g id="a_edge12_Node000009_Node000010"><a xlink:title=" ">
<path fill="none" stroke="#63b8ff" d="M844.83,-195.35C823.63,-176.24 785.74,-144.7 748,-126.25 708.78,-107.08 661.38,-94.12 623.87,-85.97"/>
<polygon fill="#63b8ff" stroke="#63b8ff" points="625.05,-82.64 614.54,-84.01 623.61,-89.49 625.05,-82.64"/>
</a>
</g>
</g>
<!-- Node9&#45;&gt;Node12 -->
<g id="edge22_Node000009_Node000012" class="edge">
<title>Node9&#45;&gt;Node12</title>
<g id="a_edge22_Node000009_Node000012"><a xlink:title=" ">
<path fill="none" stroke="#63b8ff" d="M850.53,-195.32C837.01,-177.05 813.2,-147.13 788,-126.25 735.25,-82.54 663.8,-45.44 623.04,-25.98"/>
<polygon fill="#63b8ff" stroke="#63b8ff" points="624.79,-22.93 614.25,-21.84 621.8,-29.27 624.79,-22.93"/>
</a>
</g>
</g>
<!-- Node9&#45;&gt;Node13 -->
<g id="edge16_Node000009_Node000013" class="edge">
<title>Node9&#45;&gt;Node13</title>
<g id="a_edge16_Node000009_Node000013"><a xlink:title=" ">
<path fill="none" stroke="#63b8ff" d="M817.93,-195.33C786.72,-183.88 745.31,-168.69 715.65,-157.81"/>
<polygon fill="#63b8ff" stroke="#63b8ff" points="716.92,-154.55 706.32,-154.39 714.51,-161.12 716.92,-154.55"/>
</a>
</g>
</g>
<!-- Node14 -->
<g id="Node000014" class="node">
<title>Node14</title>
<g id="a_Node000014"><a xlink:title=" ">
<polygon fill="#e0e0e0" stroke="#999999" points="1196.88,-153.38 1159.12,-153.38 1159.12,-132.62 1196.88,-132.62 1196.88,-153.38"/>
<text text-anchor="middle" x="1178" y="-139.88" font-family="Helvetica,sans-Serif" font-size="10.00">map</text>
</a>
</g>
</g>
<!-- Node9&#45;&gt;Node14 -->
<g id="edge21_Node000009_Node000014" class="edge">
<title>Node9&#45;&gt;Node14</title>
<g id="a_edge21_Node000009_Node000014"><a xlink:title=" ">
<path fill="none" stroke="#63b8ff" d="M915.74,-200.86C966.44,-190.71 1044.51,-174.78 1112,-159.75 1123.69,-157.15 1136.51,-154.13 1147.71,-151.43"/>
<polygon fill="#63b8ff" stroke="#63b8ff" points="1148.32,-154.88 1157.22,-149.13 1146.67,-148.08 1148.32,-154.88"/>
</a>
</g>
</g>
<!-- Node9&#45;&gt;Node15 -->
<g id="edge23_Node000009_Node000015" class="edge">
<title>Node9&#45;&gt;Node15</title>
<g id="a_edge23_Node000009_Node000015"><a xlink:title=" ">
<path fill="none" stroke="#63b8ff" d="M878.59,-195.5C889.18,-185.29 902.92,-172.05 913.81,-161.54"/>
<polygon fill="#63b8ff" stroke="#63b8ff" points="915.96,-164.33 920.72,-154.87 911.1,-159.29 915.96,-164.33"/>
</a>
</g>
</g>
<!-- Node10&#45;&gt;Node8 -->
<g id="edge13_Node000010_Node000008" class="edge">
<title>Node10&#45;&gt;Node8</title>
<g id="a_edge13_Node000010_Node000008"><a xlink:title=" ">
<path fill="none" stroke="#63b8ff" d="M612.92,-65.13C696.36,-53.72 856.32,-31.84 944.27,-19.82"/>
<polygon fill="#63b8ff" stroke="#63b8ff" points="944.74,-23.28 954.17,-18.46 943.79,-16.35 944.74,-23.28"/>
</a>
</g>
</g>
<!-- Node11 -->
<g id="Node000011" class="node">
<title>Node11</title>
<g id="a_Node000011"><a xlink:title=" ">
<polygon fill="#e0e0e0" stroke="#999999" points="551.5,-20.75 502.5,-20.75 502.5,0 551.5,0 551.5,-20.75"/>
<text text-anchor="middle" x="527" y="-7.25" font-family="Helvetica,sans-Serif" font-size="10.00">cstdint</text>
</a>
</g>
</g>
<!-- Node10&#45;&gt;Node11 -->
<g id="edge14_Node000010_Node000011" class="edge">
<title>Node10&#45;&gt;Node11</title>
<g id="a_edge14_Node000010_Node000011"><a xlink:title=" ">
<path fill="none" stroke="#63b8ff" d="M550.59,-56.44C546.57,-48.76 541.71,-39.48 537.45,-31.34"/>
<polygon fill="#63b8ff" stroke="#63b8ff" points="540.59,-29.79 532.85,-22.56 534.39,-33.04 540.59,-29.79"/>
</a>
</g>
</g>
<!-- Node10&#45;&gt;Node12 -->
<g id="edge15_Node000010_Node000012" class="edge">
<title>Node10&#45;&gt;Node12</title>
<g id="a_edge15_Node000010_Node000012"><a xlink:title=" ">
<path fill="none" stroke="#63b8ff" d="M567.41,-56.44C571.43,-48.76 576.29,-39.48 580.55,-31.34"/>
<polygon fill="#63b8ff" stroke="#63b8ff" points="583.61,-33.04 585.15,-22.56 577.41,-29.79 583.61,-33.04"/>
</a>
</g>
</g>
<!-- Node13&#45;&gt;Node3 -->
<g id="edge17_Node000013_Node000003" class="edge">
<title>Node13&#45;&gt;Node3</title>
<g id="a_edge17_Node000013_Node000003"><a xlink:title=" ">
<path fill="none" stroke="#63b8ff" d="M637.03,-132.18C627.53,-130.07 617.44,-127.96 608,-126.25 500.49,-106.75 374.42,-90.7 299.54,-81.88"/>
<polygon fill="#63b8ff" stroke="#63b8ff" points="300.26,-78.44 289.92,-80.76 299.45,-85.39 300.26,-78.44"/>
</a>
</g>
</g>
<!-- Node13&#45;&gt;Node8 -->
<g id="edge19_Node000013_Node000008" class="edge">
<title>Node13&#45;&gt;Node8</title>
<g id="a_edge19_Node000013_Node000008"><a xlink:title=" ">
<path fill="none" stroke="#63b8ff" d="M687.6,-132.34C705.97,-114.48 748.06,-76.3 791,-56.75 840.03,-34.43 900.38,-22.93 944.65,-17.1"/>
<polygon fill="#63b8ff" stroke="#63b8ff" points="944.84,-20.61 954.33,-15.89 943.97,-13.66 944.84,-20.61"/>
</a>
</g>
</g>
<!-- Node13&#45;&gt;Node10 -->
<g id="edge18_Node000013_Node000010" class="edge">
<title>Node13&#45;&gt;Node10</title>
<g id="a_edge18_Node000013_Node000010"><a xlink:title=" ">
<path fill="none" stroke="#63b8ff" d="M660.7,-132.18C644.11,-122.78 618.52,-108.26 597.16,-96.14"/>
<polygon fill="#63b8ff" stroke="#63b8ff" points="599.12,-93.23 588.7,-91.34 595.67,-99.32 599.12,-93.23"/>
</a>
</g>
</g>
<!-- Node18&#45;&gt;Node2 -->
<g id="edge34_Node000018_Node000002" class="edge">
<title>Node18&#45;&gt;Node2</title>
<g id="a_edge34_Node000018_Node000002"><a xlink:title=" ">
<path fill="none" stroke="#63b8ff" d="M1260.68,-347.17C1148.91,-340.41 911.32,-323.57 833,-298.75 743.29,-270.32 732.3,-237.58 648,-195.75 620.5,-182.1 588.56,-168.21 564.86,-158.26"/>
<polygon fill="#63b8ff" stroke="#63b8ff" points="566.24,-155.05 555.66,-154.43 563.55,-161.51 566.24,-155.05"/>
</a>
</g>
</g>
<!-- Node18&#45;&gt;Node6 -->
<g id="edge39_Node000018_Node000006" class="edge">
<title>Node18&#45;&gt;Node6</title>
<g id="a_edge39_Node000018_Node000006"><a xlink:title=" ">
<path fill="none" stroke="#63b8ff" d="M1321.15,-334.3C1321.57,-315.15 1319.14,-283.57 1301,-265.25 1295.82,-260.02 1221.72,-243.4 1160.53,-230.39"/>
<polygon fill="#63b8ff" stroke="#63b8ff" points="1161.26,-226.97 1150.75,-228.32 1159.81,-233.81 1161.26,-226.97"/>
</a>
</g>
</g>
<!-- Node18&#45;&gt;Node8 -->
<g id="edge54_Node000018_Node000008" class="edge">
<title>Node18&#45;&gt;Node8</title>
<g id="a_edge54_Node000018_Node000008"><a xlink:title=" ">
<path fill="none" stroke="#63b8ff" d="M1379.28,-349.04C1517.83,-345.07 1854.06,-332.09 1892,-298.75 1921.16,-273.13 1911,-252.32 1911,-213.5 1911,-213.5 1911,-213.5 1911,-142 1911,-56.6 1271.5,-22.47 1067.64,-13.76"/>
<polygon fill="#63b8ff" stroke="#63b8ff" points="1067.92,-10.27 1057.78,-13.35 1067.63,-17.27 1067.92,-10.27"/>
</a>
</g>
</g>
<!-- Node18&#45;&gt;Node10 -->
<g id="edge40_Node000018_Node000010" class="edge">
<title>Node18&#45;&gt;Node10</title>
<g id="a_edge40_Node000018_Node000010"><a xlink:title=" ">
<path fill="none" stroke="#63b8ff" d="M1260.64,-349.51C1087.34,-346.24 584.28,-333.91 424,-298.75 341.45,-280.64 294.6,-299.08 247,-229.25 182.45,-134.55 384.52,-95.25 493.79,-81.23"/>
<polygon fill="#63b8ff" stroke="#63b8ff" points="494.03,-84.72 503.52,-80.02 493.17,-77.78 494.03,-84.72"/>
</a>
</g>
</g>
<!-- Node18&#45;&gt;Node13 -->
<g id="edge41_Node000018_Node000013" class="edge">
<title>Node18&#45;&gt;Node13</title>
<g id="a_edge41_Node000018_Node000013"><a xlink:title=" ">
<path fill="none" stroke="#63b8ff" d="M1260.79,-349.26C1153.45,-344.63 922.5,-323.52 757,-229.25 741.88,-220.64 711.27,-184.93 692.91,-162.55"/>
<polygon fill="#63b8ff" stroke="#63b8ff" points="695.63,-160.35 686.61,-154.8 690.2,-164.76 695.63,-160.35"/>
</a>
</g>
</g>
<!-- Node18&#45;&gt;Node14 -->
<g id="edge56_Node000018_Node000014" class="edge">
<title>Node18&#45;&gt;Node14</title>
<g id="a_edge56_Node000018_Node000014"><a xlink:title=" ">
<path fill="none" stroke="#63b8ff" d="M1379.41,-341.07C1427.1,-332.61 1495.37,-318.47 1553,-298.75 1586.01,-287.45 1590.65,-275.5 1624,-265.25 1673.45,-250.06 1820.37,-268.56 1854,-229.25 1863.68,-217.94 1864.12,-206.67 1854,-195.75 1809.63,-147.86 1334.44,-144.11 1208.49,-143.96"/>
<polygon fill="#63b8ff" stroke="#63b8ff" points="1208.61,-140.46 1198.61,-143.96 1208.61,-147.46 1208.61,-140.46"/>
</a>
</g>
</g>
<!-- Node19 -->
<g id="Node000019" class="node">
<title>Node19</title>
<g id="a_Node000019"><a xlink:title=" ">
<polygon fill="#e0e0e0" stroke="#999999" points="1845.12,-229.25 1718.88,-229.25 1718.88,-195.75 1845.12,-195.75 1845.12,-229.25"/>
<text text-anchor="start" x="1726.88" y="-215.75" font-family="Helvetica,sans-Serif" font-size="10.00">deal.II/base/parameter</text>
<text text-anchor="middle" x="1782" y="-203" font-family="Helvetica,sans-Serif" font-size="10.00">_handler.h</text>
</a>
</g>
</g>
<!-- Node18&#45;&gt;Node19 -->
<g id="edge35_Node000018_Node000019" class="edge">
<title>Node18&#45;&gt;Node19</title>
<g id="a_edge35_Node000018_Node000019"><a xlink:title=" ">
<path fill="none" stroke="#63b8ff" d="M1369.27,-334.35C1423.44,-316.74 1513.13,-288.04 1591,-265.25 1629.85,-253.88 1673.39,-242.02 1709.08,-232.52"/>
<polygon fill="#63b8ff" stroke="#63b8ff" points="1709.66,-235.99 1718.43,-230.04 1707.86,-229.22 1709.66,-235.99"/>
</a>
</g>
</g>
<!-- Node20 -->
<g id="Node000020" class="node">
<title>Node20</title>
<g id="a_Node000020"><a xlink:title=" ">
<polygon fill="#e0e0e0" stroke="#999999" points="1769,-292.38 1633,-292.38 1633,-271.62 1769,-271.62 1769,-292.38"/>
<text text-anchor="middle" x="1701" y="-278.88" font-family="Helvetica,sans-Serif" font-size="10.00">deal.II/lac/precondition.h</text>
</a>
</g>
</g>
<!-- Node18&#45;&gt;Node20 -->
<g id="edge36_Node000018_Node000020" class="edge">
<title>Node18&#45;&gt;Node20</title>
<g id="a_edge36_Node000018_Node000020"><a xlink:title=" ">
<path fill="none" stroke="#63b8ff" d="M1379.34,-340.56C1439.71,-330.37 1535.95,-313.91 1619,-298.75 1625.66,-297.53 1632.61,-296.24 1639.54,-294.93"/>
<polygon fill="#63b8ff" stroke="#63b8ff" points="1640.06,-298.39 1649.24,-293.09 1638.76,-291.52 1640.06,-298.39"/>
</a>
</g>
</g>
<!-- Node21 -->
<g id="Node000021" class="node">
<title>Node21</title>
<g id="a_Node000021"><a xlink:title=" ">
<polygon fill="#e0e0e0" stroke="#999999" points="1883.12,-298.75 1786.88,-298.75 1786.88,-265.25 1883.12,-265.25 1883.12,-298.75"/>
<text text-anchor="start" x="1794.88" y="-285.25" font-family="Helvetica,sans-Serif" font-size="10.00">deal.II/lac/solver</text>
<text text-anchor="middle" x="1835" y="-272.5" font-family="Helvetica,sans-Serif" font-size="10.00">_minres.h</text>
</a>
</g>
</g>
<!-- Node18&#45;&gt;Node21 -->
<g id="edge37_Node000018_Node000021" class="edge">
<title>Node18&#45;&gt;Node21</title>
<g id="a_edge37_Node000018_Node000021"><a xlink:title=" ">
<path fill="none" stroke="#63b8ff" d="M1379.37,-346.78C1464.99,-340.76 1628.17,-326.84 1775.58,-299.04"/>
<polygon fill="#63b8ff" stroke="#63b8ff" points="1775.96,-302.53 1785.13,-297.21 1774.65,-295.66 1775.96,-302.53"/>
</a>
</g>
</g>
<!-- Node22 -->
<g id="Node000022" class="node">
<title>Node22</title>
<g id="a_Node000022"><a xlink:title=" ">
<polygon fill="#e0e0e0" stroke="#999999" points="1210.12,-298.75 1113.88,-298.75 1113.88,-265.25 1210.12,-265.25 1210.12,-298.75"/>
<text text-anchor="start" x="1121.88" y="-285.25" font-family="Helvetica,sans-Serif" font-size="10.00">deal.II/lac/solver</text>
<text text-anchor="middle" x="1162" y="-272.5" font-family="Helvetica,sans-Serif" font-size="10.00">_selector.h</text>
</a>
</g>
</g>
<!-- Node18&#45;&gt;Node22 -->
<g id="edge38_Node000018_Node000022" class="edge">
<title>Node18&#45;&gt;Node22</title>
<g id="a_edge38_Node000018_Node000022"><a xlink:title=" ">
<path fill="none" stroke="#63b8ff" d="M1282.16,-334.33C1260.54,-325.1 1233.23,-313.43 1210.1,-303.55"/>
<polygon fill="#63b8ff" stroke="#63b8ff" points="1211.77,-300.46 1201.2,-299.75 1209.02,-306.89 1211.77,-300.46"/>
</a>
</g>
</g>
<!-- Node23 -->
<g id="Node000023" class="node">
<title>Node23</title>
<g id="a_Node000023"><a xlink:href="parameter__base_8h.html" target="_top" xlink:title=" ">
<polygon fill="white" stroke="#666666" points="1466,-298.75 1348,-298.75 1348,-265.25 1466,-265.25 1466,-298.75"/>
<text text-anchor="start" x="1356" y="-285.25" font-family="Helvetica,sans-Serif" font-size="10.00">prismspf/user_inputs</text>
<text text-anchor="middle" x="1407" y="-272.5" font-family="Helvetica,sans-Serif" font-size="10.00">/parameter_base.h</text>
</a>
</g>
</g>
<!-- Node18&#45;&gt;Node23 -->
<g id="edge42_Node000018_Node000023" class="edge">
<title>Node18&#45;&gt;Node23</title>
<g id="a_edge42_Node000018_Node000023"><a xlink:title=" ">
<path fill="none" stroke="#63b8ff" d="M1340.62,-334.5C1351.59,-325.99 1365.28,-315.37 1377.37,-305.99"/>
<polygon fill="#63b8ff" stroke="#63b8ff" points="1379.28,-308.94 1385.03,-300.04 1374.99,-303.41 1379.28,-308.94"/>
</a>
</g>
</g>
<!-- Node29 -->
<g id="Node000029" class="node">
<title>Node29</title>
<g id="a_Node000029"><a xlink:title=" ">
<polygon fill="#e0e0e0" stroke="#999999" points="1291.62,-292.38 1228.38,-292.38 1228.38,-271.62 1291.62,-271.62 1291.62,-292.38"/>
<text text-anchor="middle" x="1260" y="-278.88" font-family="Helvetica,sans-Serif" font-size="10.00">execution</text>
</a>
</g>
</g>
<!-- Node18&#45;&gt;Node29 -->
<g id="edge55_Node000018_Node000029" class="edge">
<title>Node18&#45;&gt;Node29</title>
<g id="a_edge55_Node000018_Node000029"><a xlink:title=" ">
<path fill="none" stroke="#63b8ff" d="M1305.78,-334.5C1296.88,-324.49 1285.39,-311.57 1276.15,-301.17"/>
<polygon fill="#63b8ff" stroke="#63b8ff" points="1279,-299.1 1269.74,-293.95 1273.76,-303.75 1279,-299.1"/>
</a>
</g>
</g>
<!-- Node23&#45;&gt;Node8 -->
<g id="edge47_Node000023_Node000008" class="edge">
<title>Node23&#45;&gt;Node8</title>
<g id="a_edge47_Node000023_Node000008"><a xlink:title=" ">
<path fill="none" stroke="#63b8ff" d="M1466.34,-268.43C1471.63,-267.34 1476.91,-266.27 1482,-265.25 1570.18,-247.64 1726.44,-267.31 1672,-195.75 1597.84,-98.27 1218.31,-39 1067.7,-19"/>
<polygon fill="#63b8ff" stroke="#63b8ff" points="1068.28,-15.54 1057.91,-17.71 1067.37,-22.48 1068.28,-15.54"/>
</a>
</g>
</g>
<!-- Node23&#45;&gt;Node9 -->
<g id="edge45_Node000023_Node000009" class="edge">
<title>Node23&#45;&gt;Node9</title>
<g id="a_edge45_Node000023_Node000009"><a xlink:title=" ">
<path fill="none" stroke="#63b8ff" d="M1347.62,-271.85C1332.43,-269.6 1316.12,-267.26 1301,-265.25 1230.34,-255.84 1031.03,-232.83 927.01,-220.92"/>
<polygon fill="#63b8ff" stroke="#63b8ff" points="927.56,-217.46 917.23,-219.8 926.77,-224.41 927.56,-217.46"/>
</a>
</g>
</g>
<!-- Node23&#45;&gt;Node12 -->
<g id="edge51_Node000023_Node000012" class="edge">
<title>Node23&#45;&gt;Node12</title>
<g id="a_edge51_Node000023_Node000012"><a xlink:title=" ">
<path fill="none" stroke="#63b8ff" d="M1347.92,-269.72C1304.37,-260.26 1250.03,-245.69 1234,-229.25 1200.88,-195.28 1240.87,-158.41 1206,-126.25 1119.63,-46.59 740.02,-19.53 624.48,-13.06"/>
<polygon fill="#63b8ff" stroke="#63b8ff" points="624.92,-9.57 614.75,-12.53 624.54,-16.56 624.92,-9.57"/>
</a>
</g>
</g>
<!-- Node23&#45;&gt;Node13 -->
<g id="edge46_Node000023_Node000013" class="edge">
<title>Node23&#45;&gt;Node13</title>
<g id="a_edge46_Node000023_Node000013"><a xlink:title=" ">
<path fill="none" stroke="#63b8ff" d="M1347.68,-271.38C1332.49,-269.13 1316.16,-266.92 1301,-265.25 1190.05,-253.04 904.2,-269.28 800,-229.25 777.39,-220.56 776.7,-209.84 757,-195.75 739.39,-183.15 718.92,-169.78 703.23,-159.78"/>
<polygon fill="#63b8ff" stroke="#63b8ff" points="705.29,-156.95 694.97,-154.56 701.55,-162.86 705.29,-156.95"/>
</a>
</g>
</g>
<!-- Node23&#45;&gt;Node15 -->
<g id="edge53_Node000023_Node000015" class="edge">
<title>Node23&#45;&gt;Node15</title>
<g id="a_edge53_Node000023_Node000015"><a xlink:title=" ">
<path fill="none" stroke="#63b8ff" d="M1347.6,-268.94C1296.33,-258.01 1226.6,-241.74 1201,-229.25 1179.23,-218.63 1180.09,-205.69 1158,-195.75 1078.02,-159.78 1047.23,-187.37 964,-159.75 962.64,-159.3 961.27,-158.8 959.9,-158.27"/>
<polygon fill="#63b8ff" stroke="#63b8ff" points="961.52,-155.16 950.96,-154.33 958.7,-161.57 961.52,-155.16"/>
</a>
</g>
</g>
<!-- Node23&#45;&gt;Node19 -->
<g id="edge43_Node000023_Node000019" class="edge">
<title>Node23&#45;&gt;Node19</title>
<g id="a_edge43_Node000023_Node000019"><a xlink:title=" ">
<path fill="none" stroke="#63b8ff" d="M1466.46,-271.21C1526.68,-261.17 1622.45,-244.86 1705,-229.25 1705.83,-229.09 1706.66,-228.93 1707.5,-228.77"/>
<polygon fill="#63b8ff" stroke="#63b8ff" points="1707.94,-232.25 1717.09,-226.92 1706.61,-225.38 1707.94,-232.25"/>
</a>
</g>
</g>
<!-- Node24 -->
<g id="Node000024" class="node">
<title>Node24</title>
<g id="a_Node000024"><a xlink:title=" ">
<polygon fill="#e0e0e0" stroke="#999999" points="1367.38,-222.88 1242.62,-222.88 1242.62,-202.12 1367.38,-202.12 1367.38,-222.88"/>
<text text-anchor="middle" x="1305" y="-209.38" font-family="Helvetica,sans-Serif" font-size="10.00">deal.II/base/patterns.h</text>
</a>
</g>
</g>
<!-- Node23&#45;&gt;Node24 -->
<g id="edge44_Node000023_Node000024" class="edge">
<title>Node23&#45;&gt;Node24</title>
<g id="a_edge44_Node000023_Node000024"><a xlink:title=" ">
<path fill="none" stroke="#63b8ff" d="M1382.57,-264.83C1366.36,-254.11 1345.2,-240.1 1329.07,-229.43"/>
<polygon fill="#63b8ff" stroke="#63b8ff" points="1331.3,-226.71 1321.03,-224.11 1327.44,-232.54 1331.3,-226.71"/>
</a>
</g>
</g>
<!-- Node25 -->
<g id="Node000025" class="node">
<title>Node25</title>
<g id="a_Node000025"><a xlink:title=" ">
<polygon fill="#e0e0e0" stroke="#999999" points="1428.5,-222.88 1385.5,-222.88 1385.5,-202.12 1428.5,-202.12 1428.5,-222.88"/>
<text text-anchor="middle" x="1407" y="-209.38" font-family="Helvetica,sans-Serif" font-size="10.00">cfloat</text>
</a>
</g>
</g>
<!-- Node23&#45;&gt;Node25 -->
<g id="edge48_Node000023_Node000025" class="edge">
<title>Node23&#45;&gt;Node25</title>
<g id="a_edge48_Node000023_Node000025"><a xlink:title=" ">
<path fill="none" stroke="#63b8ff" d="M1407,-265C1407,-255.9 1407,-244.39 1407,-234.57"/>
<polygon fill="#63b8ff" stroke="#63b8ff" points="1410.5,-234.84 1407,-224.84 1403.5,-234.84 1410.5,-234.84"/>
</a>
</g>
</g>
<!-- Node26 -->
<g id="Node000026" class="node">
<title>Node26</title>
<g id="a_Node000026"><a xlink:title=" ">
<polygon fill="#e0e0e0" stroke="#999999" points="1505.75,-222.88 1446.25,-222.88 1446.25,-202.12 1505.75,-202.12 1505.75,-222.88"/>
<text text-anchor="middle" x="1476" y="-209.38" font-family="Helvetica,sans-Serif" font-size="10.00">concepts</text>
</a>
</g>
</g>
<!-- Node23&#45;&gt;Node26 -->
<g id="edge49_Node000023_Node000026" class="edge">
<title>Node23&#45;&gt;Node26</title>
<g id="a_edge49_Node000023_Node000026"><a xlink:title=" ">
<path fill="none" stroke="#63b8ff" d="M1423.35,-265C1433.69,-254.89 1447.06,-241.81 1457.75,-231.36"/>
<polygon fill="#63b8ff" stroke="#63b8ff" points="1460.18,-233.88 1464.88,-224.38 1455.28,-228.87 1460.18,-233.88"/>
</a>
</g>
</g>
<!-- Node27 -->
<g id="Node000027" class="node">
<title>Node27</title>
<g id="a_Node000027"><a xlink:title=" ">
<polygon fill="#e0e0e0" stroke="#999999" points="1572.5,-222.88 1523.5,-222.88 1523.5,-202.12 1572.5,-202.12 1572.5,-222.88"/>
<text text-anchor="middle" x="1548" y="-209.38" font-family="Helvetica,sans-Serif" font-size="10.00">ranges</text>
</a>
</g>
</g>
<!-- Node23&#45;&gt;Node27 -->
<g id="edge50_Node000023_Node000027" class="edge">
<title>Node23&#45;&gt;Node27</title>
<g id="a_edge50_Node000023_Node000027"><a xlink:title=" ">
<path fill="none" stroke="#63b8ff" d="M1440.77,-264.83C1464.02,-253.7 1494.65,-239.04 1517.22,-228.23"/>
<polygon fill="#63b8ff" stroke="#63b8ff" points="1518.72,-231.4 1526.22,-223.92 1515.69,-225.09 1518.72,-231.4"/>
</a>
</g>
</g>
<!-- Node28 -->
<g id="Node000028" class="node">
<title>Node28</title>
<g id="a_Node000028"><a xlink:title=" ">
<polygon fill="#e0e0e0" stroke="#999999" points="1663.12,-222.88 1590.88,-222.88 1590.88,-202.12 1663.12,-202.12 1663.12,-222.88"/>
<text text-anchor="middle" x="1627" y="-209.38" font-family="Helvetica,sans-Serif" font-size="10.00">string_view</text>
</a>
</g>
</g>
<!-- Node23&#45;&gt;Node28 -->
<g id="edge52_Node000023_Node000028" class="edge">
<title>Node23&#45;&gt;Node28</title>
<g id="a_edge52_Node000023_Node000028"><a xlink:title=" ">
<path fill="none" stroke="#63b8ff" d="M1464.36,-264.81C1498.63,-254.94 1542.95,-241.85 1582,-229.25 1584.37,-228.49 1586.8,-227.68 1589.25,-226.86"/>
<polygon fill="#63b8ff" stroke="#63b8ff" points="1590.18,-230.24 1598.51,-223.7 1587.92,-223.62 1590.18,-230.24"/>
</a>
</g>
</g>
</g>
</svg>
