<?xml version="1.0" encoding="UTF-8" standalone="no"?>
<!DOCTYPE svg PUBLIC "-//W3C//DTD SVG 1.1//EN"
 "http://www.w3.org/Graphics/SVG/1.1/DTD/svg11.dtd">
<!-- Generated by graphviz version 12.2.1 (20241206.2353)
 -->
<!-- Title: include/prismspf/solvers/solve_context.h Pages: 1 -->
<svg width="1373pt" height="446pt"
 viewBox="0.00 0.00 1373.12 445.75" xmlns="http://www.w3.org/2000/svg" xmlns:xlink="http://www.w3.org/1999/xlink">
<g id="graph0" class="graph" transform="scale(1 1) rotate(0) translate(4 441.75)">
<title>include/prismspf/solvers/solve_context.h</title>
<!-- Node1 -->
<g id="Node000001" class="node">
<title>Node1</title>
<g id="a_Node000001"><a xlink:title=" ">
<polygon fill="#999999" stroke="#666666" points="404.12,-437.75 268.88,-437.75 268.88,-404.25 404.12,-404.25 404.12,-437.75"/>
<text text-anchor="start" x="276.88" y="-424.25" font-family="Helvetica,sans-Serif" font-size="10.00">include/prismspf/solvers</text>
<text text-anchor="middle" x="336.5" y="-411.5" font-family="Helvetica,sans-Serif" font-size="10.00">/solve_context.h</text>
</a>
</g>
</g>
<!-- Node2 -->
<g id="Node000002" class="node">
<title>Node2</title>
<g id="a_Node000002"><a xlink:href="problem_8h.html" target="_top" xlink:title=" ">
<polygon fill="white" stroke="#666666" points="398,-229.25 277,-229.25 277,-195.75 398,-195.75 398,-229.25"/>
<text text-anchor="start" x="285" y="-215.75" font-family="Helvetica,sans-Serif" font-size="10.00">include/prismspf/core</text>
<text text-anchor="middle" x="337.5" y="-203" font-family="Helvetica,sans-Serif" font-size="10.00">/problem.h</text>
</a>
</g>
</g>
<!-- Node1&#45;&gt;Node2 -->
<g id="edge1_Node000001_Node000002" class="edge">
<title>Node1&#45;&gt;Node2</title>
<g id="a_edge1_Node000001_Node000002"><a xlink:title=" ">
<path fill="none" stroke="#63b8ff" d="M336.63,-392.34C336.85,-348.59 337.25,-264.77 337.42,-229.63"/>
<polygon fill="#63b8ff" stroke="#63b8ff" points="333.13,-392.27 336.59,-402.28 340.13,-392.3 333.13,-392.27"/>
</a>
</g>
</g>
<!-- Node4 -->
<g id="Node000004" class="node">
<title>Node4</title>
<g id="a_Node000004"><a xlink:href="refinement__manager_8h.html" target="_top" xlink:title=" ">
<polygon fill="white" stroke="#666666" points="485.12,-298.75 355.88,-298.75 355.88,-265.25 485.12,-265.25 485.12,-298.75"/>
<text text-anchor="start" x="363.88" y="-285.25" font-family="Helvetica,sans-Serif" font-size="10.00">include/prismspf/core</text>
<text text-anchor="middle" x="420.5" y="-272.5" font-family="Helvetica,sans-Serif" font-size="10.00">/refinement_manager.h</text>
</a>
</g>
</g>
<!-- Node1&#45;&gt;Node4 -->
<g id="edge3_Node000001_Node000004" class="edge">
<title>Node1&#45;&gt;Node4</title>
<g id="a_edge3_Node000001_Node000004"><a xlink:title=" ">
<path fill="none" stroke="#63b8ff" d="M352.14,-394.49C369.32,-366.47 396.38,-322.33 410.76,-298.88"/>
<polygon fill="#63b8ff" stroke="#63b8ff" points="349.33,-392.37 347.09,-402.73 355.3,-396.03 349.33,-392.37"/>
</a>
</g>
</g>
<!-- Node5 -->
<g id="Node000005" class="node">
<title>Node5</title>
<g id="a_Node000005"><a xlink:href="solution__output_8h.html" target="_top" xlink:title=" ">
<polygon fill="white" stroke="#666666" points="121,-368.25 0,-368.25 0,-334.75 121,-334.75 121,-368.25"/>
<text text-anchor="start" x="8" y="-354.75" font-family="Helvetica,sans-Serif" font-size="10.00">include/prismspf/core</text>
<text text-anchor="middle" x="60.5" y="-342" font-family="Helvetica,sans-Serif" font-size="10.00">/solution_output.h</text>
</a>
</g>
</g>
<!-- Node1&#45;&gt;Node5 -->
<g id="edge5_Node000001_Node000005" class="edge">
<title>Node1&#45;&gt;Node5</title>
<g id="a_edge5_Node000001_Node000005"><a xlink:title=" ">
<path fill="none" stroke="#63b8ff" d="M259.25,-401.11C215.65,-390.44 161.94,-377.31 121.35,-367.38"/>
<polygon fill="#63b8ff" stroke="#63b8ff" points="258.38,-404.5 268.92,-403.47 260.04,-397.7 258.38,-404.5"/>
</a>
</g>
</g>
<!-- Node7 -->
<g id="Node000007" class="node">
<title>Node7</title>
<g id="a_Node000007"><a xlink:href="nucleation__manager_8h.html" target="_top" xlink:title=" ">
<polygon fill="white" stroke="#666666" points="308,-368.25 157,-368.25 157,-334.75 308,-334.75 308,-368.25"/>
<text text-anchor="start" x="165" y="-354.75" font-family="Helvetica,sans-Serif" font-size="10.00">include/prismspf/nucleation</text>
<text text-anchor="middle" x="232.5" y="-342" font-family="Helvetica,sans-Serif" font-size="10.00">/nucleation_manager.h</text>
</a>
</g>
</g>
<!-- Node1&#45;&gt;Node7 -->
<g id="edge9_Node000001_Node000007" class="edge">
<title>Node1&#45;&gt;Node7</title>
<g id="a_edge9_Node000001_Node000007"><a xlink:title=" ">
<path fill="none" stroke="#63b8ff" d="M302.29,-397.79C287.56,-388.24 270.68,-377.28 257.21,-368.54"/>
<polygon fill="#63b8ff" stroke="#63b8ff" points="300.03,-400.5 310.32,-403.01 303.84,-394.63 300.03,-400.5"/>
</a>
</g>
</g>
<!-- Node8 -->
<g id="Node000008" class="node">
<title>Node8</title>
<g id="a_Node000008"><a xlink:href="solver__base_8h.html" target="_top" xlink:title=" ">
<polygon fill="white" stroke="#666666" points="737.12,-368.25 601.88,-368.25 601.88,-334.75 737.12,-334.75 737.12,-368.25"/>
<text text-anchor="start" x="609.88" y="-354.75" font-family="Helvetica,sans-Serif" font-size="10.00">include/prismspf/solvers</text>
<text text-anchor="middle" x="669.5" y="-342" font-family="Helvetica,sans-Serif" font-size="10.00">/solver_base.h</text>
</a>
</g>
</g>
<!-- Node1&#45;&gt;Node8 -->
<g id="edge11_Node000001_Node000008" class="edge">
<title>Node1&#45;&gt;Node8</title>
<g id="a_edge11_Node000001_Node000008"><a xlink:title=" ">
<path fill="none" stroke="#63b8ff" d="M415.35,-404.02C471.98,-392.54 547.54,-377.22 601.52,-366.28"/>
<polygon fill="#63b8ff" stroke="#63b8ff" points="414.88,-400.54 405.77,-405.96 416.27,-407.4 414.88,-400.54"/>
</a>
</g>
</g>
<!-- Node3 -->
<g id="Node000003" class="node">
<title>Node3</title>
<g id="a_Node000003"><a xlink:href="problem_8cc.html" target="_top" xlink:title=" ">
<polygon fill="white" stroke="#666666" points="457.12,-20.75 345.88,-20.75 345.88,0 457.12,0 457.12,-20.75"/>
<text text-anchor="middle" x="401.5" y="-7.25" font-family="Helvetica,sans-Serif" font-size="10.00">src/core/problem.cc</text>
</a>
</g>
</g>
<!-- Node2&#45;&gt;Node3 -->
<g id="edge2_Node000002_Node000003" class="edge">
<title>Node2&#45;&gt;Node3</title>
<g id="a_edge2_Node000002_Node000003"><a xlink:title=" ">
<path fill="none" stroke="#63b8ff" d="M346.06,-184.74C360.5,-139.58 389.05,-50.29 398.44,-20.96"/>
<polygon fill="#63b8ff" stroke="#63b8ff" points="342.8,-183.43 343.09,-194.02 349.47,-185.56 342.8,-183.43"/>
</a>
</g>
</g>
<!-- Node4&#45;&gt;Node2 -->
<g id="edge4_Node000004_Node000002" class="edge">
<title>Node4&#45;&gt;Node2</title>
<g id="a_edge4_Node000004_Node000002"><a xlink:title=" ">
<path fill="none" stroke="#63b8ff" d="M392.05,-257.86C380.61,-248.56 367.7,-238.06 357.32,-229.62"/>
<polygon fill="#63b8ff" stroke="#63b8ff" points="389.69,-260.45 399.66,-264.05 394.11,-255.02 389.69,-260.45"/>
</a>
</g>
</g>
<!-- Node5&#45;&gt;Node3 -->
<g id="edge7_Node000005_Node000003" class="edge">
<title>Node5&#45;&gt;Node3</title>
<g id="a_edge7_Node000005_Node000003"><a xlink:title=" ">
<path fill="none" stroke="#63b8ff" d="M60.5,-322.98C60.5,-295.32 60.5,-251.45 60.5,-213.5 60.5,-213.5 60.5,-213.5 60.5,-142 60.5,-81.69 248.83,-38.88 345.57,-20.86"/>
<polygon fill="#63b8ff" stroke="#63b8ff" points="57,-322.96 60.5,-332.96 64,-322.96 57,-322.96"/>
</a>
</g>
</g>
<!-- Node5&#45;&gt;Node5 -->
<g id="edge6_Node000005_Node000005" class="edge">
<title>Node5&#45;&gt;Node5</title>
<g id="a_edge6_Node000005_Node000005"><a xlink:title=" ">
<path fill="none" stroke="#63b8ff" d="M132.22,-360.45C136.46,-358.31 139,-355.33 139,-351.5 139,-345.05 131.79,-341 121.39,-339.33"/>
<polygon fill="#63b8ff" stroke="#63b8ff" points="131.43,-357.04 122.84,-363.23 133.42,-363.75 131.43,-357.04"/>
</a>
</g>
</g>
<!-- Node6 -->
<g id="Node000006" class="node">
<title>Node6</title>
<g id="a_Node000006"><a xlink:href="solution__output_8cc.html" target="_top" xlink:title=" ">
<polygon fill="white" stroke="#666666" points="234.75,-292.38 88.25,-292.38 88.25,-271.62 234.75,-271.62 234.75,-292.38"/>
<text text-anchor="middle" x="161.5" y="-278.88" font-family="Helvetica,sans-Serif" font-size="10.00">src/core/solution_output.cc</text>
</a>
</g>
</g>
<!-- Node5&#45;&gt;Node6 -->
<g id="edge8_Node000005_Node000006" class="edge">
<title>Node5&#45;&gt;Node6</title>
<g id="a_edge8_Node000005_Node000006"><a xlink:title=" ">
<path fill="none" stroke="#63b8ff" d="M94.23,-327.96C112.11,-316.01 133.15,-301.94 146.88,-292.77"/>
<polygon fill="#63b8ff" stroke="#63b8ff" points="92.32,-325.02 85.95,-333.49 96.21,-330.84 92.32,-325.02"/>
</a>
</g>
</g>
<!-- Node7&#45;&gt;Node2 -->
<g id="edge10_Node000007_Node000002" class="edge">
<title>Node7&#45;&gt;Node2</title>
<g id="a_edge10_Node000007_Node000002"><a xlink:title=" ">
<path fill="none" stroke="#63b8ff" d="M251.49,-325.72C272.93,-297.74 307.2,-253.04 325.33,-229.38"/>
<polygon fill="#63b8ff" stroke="#63b8ff" points="248.98,-323.25 245.67,-333.31 254.53,-327.51 248.98,-323.25"/>
</a>
</g>
</g>
<!-- Node8&#45;&gt;Node3 -->
<g id="edge33_Node000008_Node000003" class="edge">
<title>Node8&#45;&gt;Node3</title>
<g id="a_edge33_Node000008_Node000003"><a xlink:title=" ">
<path fill="none" stroke="#63b8ff" d="M606.03,-330.23C558.95,-311.71 497.43,-279.45 464.5,-229.25 418.07,-158.46 405.19,-52.9 402.26,-20.9"/>
<polygon fill="#63b8ff" stroke="#63b8ff" points="604.75,-333.49 615.34,-333.77 607.24,-326.94 604.75,-333.49"/>
</a>
</g>
</g>
<!-- Node8&#45;&gt;Node4 -->
<g id="edge12_Node000008_Node000004" class="edge">
<title>Node8&#45;&gt;Node4</title>
<g id="a_edge12_Node000008_Node000004"><a xlink:title=" ">
<path fill="none" stroke="#63b8ff" d="M599,-331.39C561.47,-321.22 515.82,-308.84 480.09,-299.15"/>
<polygon fill="#63b8ff" stroke="#63b8ff" points="597.83,-334.7 608.4,-333.94 599.66,-327.94 597.83,-334.7"/>
</a>
</g>
</g>
<!-- Node9 -->
<g id="Node000009" class="node">
<title>Node9</title>
<g id="a_Node000009"><a xlink:href="constant__solver_8h.html" target="_top" xlink:title=" ">
<polygon fill="white" stroke="#666666" points="1365.12,-159.75 1229.88,-159.75 1229.88,-126.25 1365.12,-126.25 1365.12,-159.75"/>
<text text-anchor="start" x="1237.88" y="-146.25" font-family="Helvetica,sans-Serif" font-size="10.00">include/prismspf/solvers</text>
<text text-anchor="middle" x="1297.5" y="-133.5" font-family="Helvetica,sans-Serif" font-size="10.00">/constant_solver.h</text>
</a>
</g>
</g>
<!-- Node8&#45;&gt;Node9 -->
<g id="edge13_Node000008_Node000009" class="edge">
<title>Node8&#45;&gt;Node9</title>
<g id="a_edge13_Node000008_Node000009"><a xlink:title=" ">
<path fill="none" stroke="#63b8ff" d="M749.08,-350.63C830.92,-348.37 960.83,-338.04 1065.5,-298.75 1154.34,-265.4 1243.14,-192.41 1279.88,-160.02"/>
<polygon fill="#63b8ff" stroke="#63b8ff" points="749.04,-347.13 739.12,-350.86 749.2,-354.12 749.04,-347.13"/>
</a>
</g>
</g>
<!-- Node12 -->
<g id="Node000012" class="node">
<title>Node12</title>
<g id="a_Node000012"><a xlink:href="explicit__solver_8h.html" target="_top" xlink:title=" ">
<polygon fill="white" stroke="#666666" points="762.12,-229.25 626.88,-229.25 626.88,-195.75 762.12,-195.75 762.12,-229.25"/>
<text text-anchor="start" x="634.88" y="-215.75" font-family="Helvetica,sans-Serif" font-size="10.00">include/prismspf/solvers</text>
<text text-anchor="middle" x="694.5" y="-203" font-family="Helvetica,sans-Serif" font-size="10.00">/explicit_solver.h</text>
</a>
</g>
</g>
<!-- Node8&#45;&gt;Node12 -->
<g id="edge17_Node000008_Node000012" class="edge">
<title>Node8&#45;&gt;Node12</title>
<g id="a_edge17_Node000008_Node000012"><a xlink:title=" ">
<path fill="none" stroke="#63b8ff" d="M682.21,-324.12C685.5,-316.14 688.63,-307.25 690.5,-298.75 695.68,-275.16 695.89,-247.05 695.35,-229.74"/>
<polygon fill="#63b8ff" stroke="#63b8ff" points="679.01,-322.69 678.19,-333.25 685.42,-325.51 679.01,-322.69"/>
</a>
</g>
</g>
<!-- Node13 -->
<g id="Node000013" class="node">
<title>Node13</title>
<g id="a_Node000013"><a xlink:href="linear__helper_8h.html" target="_top" xlink:title=" ">
<polygon fill="white" stroke="#666666" points="609.12,-229.25 473.88,-229.25 473.88,-195.75 609.12,-195.75 609.12,-229.25"/>
<text text-anchor="start" x="481.88" y="-215.75" font-family="Helvetica,sans-Serif" font-size="10.00">include/prismspf/solvers</text>
<text text-anchor="middle" x="541.5" y="-203" font-family="Helvetica,sans-Serif" font-size="10.00">/linear_helper.h</text>
</a>
</g>
</g>
<!-- Node8&#45;&gt;Node13 -->
<g id="edge19_Node000008_Node000013" class="edge">
<title>Node8&#45;&gt;Node13</title>
<g id="a_edge19_Node000008_Node000013"><a xlink:title=" ">
<path fill="none" stroke="#63b8ff" d="M611.35,-329.35C596.41,-321.63 581.47,-311.55 570.5,-298.75 553.41,-278.81 546.26,-248.33 543.37,-229.73"/>
<polygon fill="#63b8ff" stroke="#63b8ff" points="609.76,-332.47 620.29,-333.67 612.81,-326.17 609.76,-332.47"/>
</a>
</g>
</g>
<!-- Node14 -->
<g id="Node000014" class="node">
<title>Node14</title>
<g id="a_Node000014"><a xlink:href="linear__solver_8h.html" target="_top" xlink:title=" ">
<polygon fill="white" stroke="#666666" points="1116.12,-229.25 980.88,-229.25 980.88,-195.75 1116.12,-195.75 1116.12,-229.25"/>
<text text-anchor="start" x="988.88" y="-215.75" font-family="Helvetica,sans-Serif" font-size="10.00">include/prismspf/solvers</text>
<text text-anchor="middle" x="1048.5" y="-203" font-family="Helvetica,sans-Serif" font-size="10.00">/linear_solver.h</text>
</a>
</g>
</g>
<!-- Node8&#45;&gt;Node14 -->
<g id="edge20_Node000008_Node000014" class="edge">
<title>Node8&#45;&gt;Node14</title>
<g id="a_edge20_Node000008_Node000014"><a xlink:title=" ">
<path fill="none" stroke="#63b8ff" d="M748.91,-343.53C801.78,-336.79 871.87,-323.73 929.5,-298.75 969.37,-281.46 1009.07,-249.23 1031.04,-229.74"/>
<polygon fill="#63b8ff" stroke="#63b8ff" points="748.56,-340.05 739.06,-344.73 749.41,-347 748.56,-340.05"/>
</a>
</g>
</g>
<!-- Node16 -->
<g id="Node000016" class="node">
<title>Node16</title>
<g id="a_Node000016"><a xlink:href="newton__solver_8h.html" target="_top" xlink:title=" ">
<polygon fill="white" stroke="#666666" points="1212.12,-159.75 1076.88,-159.75 1076.88,-126.25 1212.12,-126.25 1212.12,-159.75"/>
<text text-anchor="start" x="1084.88" y="-146.25" font-family="Helvetica,sans-Serif" font-size="10.00">include/prismspf/solvers</text>
<text text-anchor="middle" x="1144.5" y="-133.5" font-family="Helvetica,sans-Serif" font-size="10.00">/newton_solver.h</text>
</a>
</g>
</g>
<!-- Node8&#45;&gt;Node16 -->
<g id="edge32_Node000008_Node000016" class="edge">
<title>Node8&#45;&gt;Node16</title>
<g id="a_edge32_Node000008_Node000016"><a xlink:title=" ">
<path fill="none" stroke="#63b8ff" d="M748.69,-342.85C872.62,-328.97 1102.9,-294.81 1147.5,-229.25 1161.49,-208.68 1155.83,-178.39 1150.28,-160"/>
<polygon fill="#63b8ff" stroke="#63b8ff" points="748.47,-339.36 738.91,-343.93 749.23,-346.31 748.47,-339.36"/>
</a>
</g>
</g>
<!-- Node17 -->
<g id="Node000017" class="node">
<title>Node17</title>
<g id="a_Node000017"><a xlink:href="mf__operator_8h.html" target="_top" xlink:title=" ">
<polygon fill="white" stroke="#666666" points="920.12,-298.75 784.88,-298.75 784.88,-265.25 920.12,-265.25 920.12,-298.75"/>
<text text-anchor="start" x="792.88" y="-285.25" font-family="Helvetica,sans-Serif" font-size="10.00">include/prismspf/solvers</text>
<text text-anchor="middle" x="852.5" y="-272.5" font-family="Helvetica,sans-Serif" font-size="10.00">/mf_operator.h</text>
</a>
</g>
</g>
<!-- Node8&#45;&gt;Node17 -->
<g id="edge25_Node000008_Node000017" class="edge">
<title>Node8&#45;&gt;Node17</title>
<g id="a_edge25_Node000008_Node000017"><a xlink:title=" ">
<path fill="none" stroke="#63b8ff" d="M723.82,-330.47C750.9,-320.47 783.23,-308.55 808.71,-299.15"/>
<polygon fill="#63b8ff" stroke="#63b8ff" points="722.92,-327.06 714.75,-333.81 725.35,-333.63 722.92,-327.06"/>
</a>
</g>
</g>
<!-- Node19 -->
<g id="Node000019" class="node">
<title>Node19</title>
<g id="a_Node000019"><a xlink:href="solver__base_8cc.html" target="_top" xlink:title=" ">
<polygon fill="white" stroke="#666666" points="681.25,-298.75 579.75,-298.75 579.75,-265.25 681.25,-265.25 681.25,-298.75"/>
<text text-anchor="start" x="587.75" y="-285.25" font-family="Helvetica,sans-Serif" font-size="10.00">src/solvers/solver</text>
<text text-anchor="middle" x="630.5" y="-272.5" font-family="Helvetica,sans-Serif" font-size="10.00">_base.cc</text>
</a>
</g>
</g>
<!-- Node8&#45;&gt;Node19 -->
<g id="edge34_Node000008_Node000019" class="edge">
<title>Node8&#45;&gt;Node19</title>
<g id="a_edge34_Node000008_Node000019"><a xlink:title=" ">
<path fill="none" stroke="#63b8ff" d="M654.64,-324.78C649.6,-316.07 644.13,-306.6 639.68,-298.88"/>
<polygon fill="#63b8ff" stroke="#63b8ff" points="651.47,-326.29 659.5,-333.19 657.53,-322.78 651.47,-326.29"/>
</a>
</g>
</g>
<!-- Node10 -->
<g id="Node000010" class="node">
<title>Node10</title>
<g id="a_Node000010"><a xlink:href="solvers_8h.html" target="_top" xlink:title=" ">
<polygon fill="white" stroke="#666666" points="1116.12,-90.25 980.88,-90.25 980.88,-56.75 1116.12,-56.75 1116.12,-90.25"/>
<text text-anchor="start" x="988.88" y="-76.75" font-family="Helvetica,sans-Serif" font-size="10.00">include/prismspf/solvers</text>
<text text-anchor="middle" x="1048.5" y="-64" font-family="Helvetica,sans-Serif" font-size="10.00">/solvers.h</text>
</a>
</g>
</g>
<!-- Node9&#45;&gt;Node10 -->
<g id="edge14_Node000009_Node000010" class="edge">
<title>Node9&#45;&gt;Node10</title>
<g id="a_edge14_Node000009_Node000010"><a xlink:title=" ">
<path fill="none" stroke="#63b8ff" d="M1227,-122.89C1189.47,-112.72 1143.82,-100.34 1108.09,-90.65"/>
<polygon fill="#63b8ff" stroke="#63b8ff" points="1225.83,-126.2 1236.4,-125.44 1227.66,-119.44 1225.83,-126.2"/>
</a>
</g>
</g>
<!-- Node10&#45;&gt;Node3 -->
<g id="edge15_Node000010_Node000003" class="edge">
<title>Node10&#45;&gt;Node3</title>
<g id="a_edge15_Node000010_Node000003"><a xlink:title=" ">
<path fill="none" stroke="#63b8ff" d="M969.22,-65.01C836.49,-52.47 572.56,-27.54 457.41,-16.66"/>
<polygon fill="#63b8ff" stroke="#63b8ff" points="968.69,-68.48 978.98,-65.93 969.35,-61.51 968.69,-68.48"/>
</a>
</g>
</g>
<!-- Node11 -->
<g id="Node000011" class="node">
<title>Node11</title>
<g id="a_Node000011"><a xlink:href="solvers_8cc.html" target="_top" xlink:title=" ">
<polygon fill="white" stroke="#666666" points="1108.62,-20.75 988.38,-20.75 988.38,0 1108.62,0 1108.62,-20.75"/>
<text text-anchor="middle" x="1048.5" y="-7.25" font-family="Helvetica,sans-Serif" font-size="10.00">src/solvers/solvers.cc</text>
</a>
</g>
</g>
<!-- Node10&#45;&gt;Node11 -->
<g id="edge16_Node000010_Node000011" class="edge">
<title>Node10&#45;&gt;Node11</title>
<g id="a_edge16_Node000010_Node000011"><a xlink:title=" ">
<path fill="none" stroke="#63b8ff" d="M1048.5,-44.94C1048.5,-36.46 1048.5,-27.67 1048.5,-21.22"/>
<polygon fill="#63b8ff" stroke="#63b8ff" points="1045,-44.93 1048.5,-54.93 1052,-44.93 1045,-44.93"/>
</a>
</g>
</g>
<!-- Node12&#45;&gt;Node10 -->
<g id="edge18_Node000012_Node000010" class="edge">
<title>Node12&#45;&gt;Node10</title>
<g id="a_edge18_Node000012_Node000010"><a xlink:title=" ">
<path fill="none" stroke="#63b8ff" d="M735.43,-190.06C771.63,-171.63 826.19,-145.12 875.5,-126.25 911.51,-112.47 952.86,-99.99 986.1,-90.73"/>
<polygon fill="#63b8ff" stroke="#63b8ff" points="733.92,-186.9 726.62,-194.58 737.12,-193.13 733.92,-186.9"/>
</a>
</g>
</g>
<!-- Node14&#45;&gt;Node10 -->
<g id="edge24_Node000014_Node000010" class="edge">
<title>Node14&#45;&gt;Node10</title>
<g id="a_edge24_Node000014_Node000010"><a xlink:title=" ">
<path fill="none" stroke="#63b8ff" d="M1048.5,-184.12C1048.5,-156.04 1048.5,-113.32 1048.5,-90.38"/>
<polygon fill="#63b8ff" stroke="#63b8ff" points="1045,-184 1048.5,-194 1052,-184 1045,-184"/>
</a>
</g>
</g>
<!-- Node15 -->
<g id="Node000015" class="node">
<title>Node15</title>
<g id="a_Node000015"><a xlink:href="mg__solver_8h.html" target="_top" xlink:title=" ">
<polygon fill="white" stroke="#666666" points="1020.12,-159.75 884.88,-159.75 884.88,-126.25 1020.12,-126.25 1020.12,-159.75"/>
<text text-anchor="start" x="892.88" y="-146.25" font-family="Helvetica,sans-Serif" font-size="10.00">include/prismspf/solvers</text>
<text text-anchor="middle" x="952.5" y="-133.5" font-family="Helvetica,sans-Serif" font-size="10.00">/mg_solver.h</text>
</a>
</g>
</g>
<!-- Node14&#45;&gt;Node15 -->
<g id="edge21_Node000014_Node000015" class="edge">
<title>Node14&#45;&gt;Node15</title>
<g id="a_edge21_Node000014_Node000015"><a xlink:title=" ">
<path fill="none" stroke="#63b8ff" d="M1016.38,-188.91C1002.96,-179.48 987.67,-168.73 975.42,-160.12"/>
<polygon fill="#63b8ff" stroke="#63b8ff" points="1014.32,-191.74 1024.51,-194.63 1018.34,-186.02 1014.32,-191.74"/>
</a>
</g>
</g>
<!-- Node14&#45;&gt;Node16 -->
<g id="edge22_Node000014_Node000016" class="edge">
<title>Node14&#45;&gt;Node16</title>
<g id="a_edge22_Node000014_Node000016"><a xlink:title=" ">
<path fill="none" stroke="#63b8ff" d="M1080.62,-188.91C1094.04,-179.48 1109.33,-168.73 1121.58,-160.12"/>
<polygon fill="#63b8ff" stroke="#63b8ff" points="1078.66,-186.02 1072.49,-194.63 1082.68,-191.74 1078.66,-186.02"/>
</a>
</g>
</g>
<!-- Node16&#45;&gt;Node10 -->
<g id="edge23_Node000016_Node000010" class="edge">
<title>Node16&#45;&gt;Node10</title>
<g id="a_edge23_Node000016_Node000010"><a xlink:title=" ">
<path fill="none" stroke="#63b8ff" d="M1112.38,-119.41C1098.96,-109.98 1083.67,-99.23 1071.42,-90.62"/>
<polygon fill="#63b8ff" stroke="#63b8ff" points="1110.32,-122.24 1120.51,-125.13 1114.34,-116.52 1110.32,-122.24"/>
</a>
</g>
</g>
<!-- Node17&#45;&gt;Node12 -->
<g id="edge26_Node000017_Node000012" class="edge">
<title>Node17&#45;&gt;Node12</title>
<g id="a_edge26_Node000017_Node000012"><a xlink:title=" ">
<path fill="none" stroke="#63b8ff" d="M804.36,-260.43C781.23,-250.55 753.92,-238.88 732.31,-229.65"/>
<polygon fill="#63b8ff" stroke="#63b8ff" points="802.69,-263.53 813.26,-264.24 805.44,-257.09 802.69,-263.53"/>
</a>
</g>
</g>
<!-- Node17&#45;&gt;Node13 -->
<g id="edge27_Node000017_Node000013" class="edge">
<title>Node17&#45;&gt;Node13</title>
<g id="a_edge27_Node000017_Node000013"><a xlink:title=" ">
<path fill="none" stroke="#63b8ff" d="M773.41,-263.83C722.79,-252.85 657.79,-238.74 609.49,-228.26"/>
<polygon fill="#63b8ff" stroke="#63b8ff" points="772.64,-267.25 783.15,-265.95 774.12,-260.41 772.64,-267.25"/>
</a>
</g>
</g>
<!-- Node17&#45;&gt;Node14 -->
<g id="edge28_Node000017_Node000014" class="edge">
<title>Node17&#45;&gt;Node14</title>
<g id="a_edge28_Node000017_Node000014"><a xlink:title=" ">
<path fill="none" stroke="#63b8ff" d="M910.29,-261.1C939.38,-251.08 974.19,-239.09 1001.6,-229.65"/>
<polygon fill="#63b8ff" stroke="#63b8ff" points="909.19,-257.77 900.88,-264.34 911.47,-264.39 909.19,-257.77"/>
</a>
</g>
</g>
<!-- Node17&#45;&gt;Node15 -->
<g id="edge29_Node000017_Node000015" class="edge">
<title>Node17&#45;&gt;Node15</title>
<g id="a_edge29_Node000017_Node000015"><a xlink:title=" ">
<path fill="none" stroke="#63b8ff" d="M899.96,-259.26C912.53,-251.43 924.96,-241.45 933.5,-229.25 948.02,-208.51 951.68,-178.55 952.47,-160.22"/>
<polygon fill="#63b8ff" stroke="#63b8ff" points="898.57,-256.02 891.69,-264.07 902.09,-262.07 898.57,-256.02"/>
</a>
</g>
</g>
<!-- Node17&#45;&gt;Node16 -->
<g id="edge30_Node000017_Node000016" class="edge">
<title>Node17&#45;&gt;Node16</title>
<g id="a_edge30_Node000017_Node000016"><a xlink:title=" ">
<path fill="none" stroke="#63b8ff" d="M931.39,-275.57C1001.96,-269.07 1098.32,-255.57 1125.5,-229.25 1144.13,-211.21 1146.35,-179.23 1145.77,-159.99"/>
<polygon fill="#63b8ff" stroke="#63b8ff" points="931.46,-272.05 921.81,-276.42 932.08,-279.02 931.46,-272.05"/>
</a>
</g>
</g>
<!-- Node18 -->
<g id="Node000018" class="node">
<title>Node18</title>
<g id="a_Node000018"><a xlink:href="mf__operator_8cc.html" target="_top" xlink:title=" ">
<polygon fill="white" stroke="#666666" points="924.62,-222.88 780.38,-222.88 780.38,-202.12 924.62,-202.12 924.62,-222.88"/>
<text text-anchor="middle" x="852.5" y="-209.38" font-family="Helvetica,sans-Serif" font-size="10.00">src/solvers/mf_operator.cc</text>
</a>
</g>
</g>
<!-- Node17&#45;&gt;Node18 -->
<g id="edge31_Node000017_Node000018" class="edge">
<title>Node17&#45;&gt;Node18</title>
<g id="a_edge31_Node000017_Node000018"><a xlink:title=" ">
<path fill="none" stroke="#63b8ff" d="M852.5,-253.53C852.5,-242.83 852.5,-231.26 852.5,-223.32"/>
<polygon fill="#63b8ff" stroke="#63b8ff" points="849,-253.49 852.5,-263.49 856,-253.49 849,-253.49"/>
</a>
</g>
</g>
</g>
</svg>
