<?xml version="1.0" encoding="UTF-8" standalone="no"?>
<!DOCTYPE svg PUBLIC "-//W3C//DTD SVG 1.1//EN"
 "http://www.w3.org/Graphics/SVG/1.1/DTD/svg11.dtd">
<!-- Generated by graphviz version 12.2.1 (20241206.2353)
 -->
<!-- Title: src/user_inputs/solve_parameters.cc Pages: 1 -->
<svg width="1700pt" height="433pt"
 viewBox="0.00 0.00 1699.73 433.00" xmlns="http://www.w3.org/2000/svg" xmlns:xlink="http://www.w3.org/1999/xlink">
<g id="graph0" class="graph" transform="scale(1 1) rotate(0) translate(4 429)">
<title>src/user_inputs/solve_parameters.cc</title>
<!-- Node1 -->
<g id="Node000001" class="node">
<title>Node1</title>
<g id="a_Node000001"><a xlink:title=" ">
<polygon fill="#999999" stroke="#666666" points="484,-425 365.25,-425 365.25,-391.5 484,-391.5 484,-425"/>
<text text-anchor="start" x="373.25" y="-411.5" font-family="Helvetica,sans-Serif" font-size="10.00">src/user_inputs/solve</text>
<text text-anchor="middle" x="424.62" y="-398.75" font-family="Helvetica,sans-Serif" font-size="10.00">_parameters.cc</text>
</a>
</g>
</g>
<!-- Node2 -->
<g id="Node000002" class="node">
<title>Node2</title>
<g id="a_Node000002"><a xlink:href="solve__parameters_8h.html" target="_top" xlink:title=" ">
<polygon fill="white" stroke="#666666" points="712.62,-355.5 594.62,-355.5 594.62,-322 712.62,-322 712.62,-355.5"/>
<text text-anchor="start" x="602.62" y="-342" font-family="Helvetica,sans-Serif" font-size="10.00">prismspf/user_inputs</text>
<text text-anchor="middle" x="653.62" y="-329.25" font-family="Helvetica,sans-Serif" font-size="10.00">/solve_parameters.h</text>
</a>
</g>
</g>
<!-- Node1&#45;&gt;Node2 -->
<g id="edge1_Node000001_Node000002" class="edge">
<title>Node1&#45;&gt;Node2</title>
<g id="a_edge1_Node000001_Node000002"><a xlink:title=" ">
<path fill="none" stroke="#63b8ff" d="M479.48,-391.08C512.07,-381.47 553.62,-369.23 587.95,-359.11"/>
<polygon fill="#63b8ff" stroke="#63b8ff" points="588.77,-362.52 597.37,-356.33 586.79,-355.8 588.77,-362.52"/>
</a>
</g>
</g>
<!-- Node10 -->
<g id="Node000010" class="node">
<title>Node10</title>
<g id="a_Node000010"><a xlink:title=" ">
<polygon fill="#e0e0e0" stroke="#999999" points="871.62,-20.75 771.62,-20.75 771.62,0 871.62,0 871.62,-20.75"/>
<text text-anchor="middle" x="821.62" y="-7.25" font-family="Helvetica,sans-Serif" font-size="10.00">prismspf/config.h</text>
</a>
</g>
</g>
<!-- Node1&#45;&gt;Node10 -->
<g id="edge40_Node000001_Node000010" class="edge">
<title>Node1&#45;&gt;Node10</title>
<g id="a_edge40_Node000001_Node000010"><a xlink:title=" ">
<path fill="none" stroke="#63b8ff" d="M364.76,-397.98C296.91,-383.68 195.62,-349.12 195.62,-270.25 195.62,-270.25 195.62,-270.25 195.62,-135.62 195.62,-21.38 601.82,-10.57 759.81,-10.68"/>
<polygon fill="#63b8ff" stroke="#63b8ff" points="759.67,-14.18 769.68,-10.71 759.69,-7.18 759.67,-14.18"/>
</a>
</g>
</g>
<!-- Node3 -->
<g id="Node000003" class="node">
<title>Node3</title>
<g id="a_Node000003"><a xlink:title=" ">
<polygon fill="#e0e0e0" stroke="#999999" points="1678.38,-147 1540.88,-147 1540.88,-126.25 1678.38,-126.25 1678.38,-147"/>
<text text-anchor="middle" x="1609.62" y="-133.5" font-family="Helvetica,sans-Serif" font-size="10.00">deal.II/base/exceptions.h</text>
</a>
</g>
</g>
<!-- Node2&#45;&gt;Node3 -->
<g id="edge2_Node000002_Node000003" class="edge">
<title>Node2&#45;&gt;Node3</title>
<g id="a_edge2_Node000002_Node000003"><a xlink:title=" ">
<path fill="none" stroke="#63b8ff" d="M712.91,-336.89C827.92,-334.38 1088.94,-324.54 1304.62,-286 1416.89,-265.94 1457.86,-281.41 1551.62,-216.5 1573.5,-201.36 1590.31,-175.25 1600.07,-157.24"/>
<polygon fill="#63b8ff" stroke="#63b8ff" points="1603.05,-159.09 1604.52,-148.59 1596.83,-155.88 1603.05,-159.09"/>
</a>
</g>
</g>
<!-- Node4 -->
<g id="Node000004" class="node">
<title>Node4</title>
<g id="a_Node000004"><a xlink:title=" ">
<polygon fill="#e0e0e0" stroke="#999999" points="793.75,-216.5 667.5,-216.5 667.5,-183 793.75,-183 793.75,-216.5"/>
<text text-anchor="start" x="675.5" y="-203" font-family="Helvetica,sans-Serif" font-size="10.00">deal.II/base/parameter</text>
<text text-anchor="middle" x="730.62" y="-190.25" font-family="Helvetica,sans-Serif" font-size="10.00">_handler.h</text>
</a>
</g>
</g>
<!-- Node2&#45;&gt;Node4 -->
<g id="edge3_Node000002_Node000004" class="edge">
<title>Node2&#45;&gt;Node4</title>
<g id="a_edge3_Node000002_Node000004"><a xlink:title=" ">
<path fill="none" stroke="#63b8ff" d="M662.61,-321.77C675.76,-298.36 700.41,-254.5 716.15,-226.51"/>
<polygon fill="#63b8ff" stroke="#63b8ff" points="719.11,-228.38 720.96,-217.95 713.01,-224.95 719.11,-228.38"/>
</a>
</g>
</g>
<!-- Node5 -->
<g id="Node000005" class="node">
<title>Node5</title>
<g id="a_Node000005"><a xlink:title=" ">
<polygon fill="#e0e0e0" stroke="#999999" points="359.62,-279.62 223.62,-279.62 223.62,-258.88 359.62,-258.88 359.62,-279.62"/>
<text text-anchor="middle" x="291.62" y="-266.12" font-family="Helvetica,sans-Serif" font-size="10.00">deal.II/lac/precondition.h</text>
</a>
</g>
</g>
<!-- Node2&#45;&gt;Node5 -->
<g id="edge4_Node000002_Node000005" class="edge">
<title>Node2&#45;&gt;Node5</title>
<g id="a_edge4_Node000002_Node000005"><a xlink:title=" ">
<path fill="none" stroke="#63b8ff" d="M594.33,-327.38C536.63,-317.19 446.52,-301.04 368.62,-286 362.6,-284.84 356.31,-283.59 350.04,-282.34"/>
<polygon fill="#63b8ff" stroke="#63b8ff" points="350.81,-278.92 340.31,-280.38 349.42,-285.79 350.81,-278.92"/>
</a>
</g>
</g>
<!-- Node6 -->
<g id="Node000006" class="node">
<title>Node6</title>
<g id="a_Node000006"><a xlink:title=" ">
<polygon fill="#e0e0e0" stroke="#999999" points="473.75,-286 377.5,-286 377.5,-252.5 473.75,-252.5 473.75,-286"/>
<text text-anchor="start" x="385.5" y="-272.5" font-family="Helvetica,sans-Serif" font-size="10.00">deal.II/lac/solver</text>
<text text-anchor="middle" x="425.62" y="-259.75" font-family="Helvetica,sans-Serif" font-size="10.00">_minres.h</text>
</a>
</g>
</g>
<!-- Node2&#45;&gt;Node6 -->
<g id="edge5_Node000002_Node000006" class="edge">
<title>Node2&#45;&gt;Node6</title>
<g id="a_edge5_Node000002_Node000006"><a xlink:title=" ">
<path fill="none" stroke="#63b8ff" d="M599.01,-321.58C564.51,-311.37 519.94,-298.17 484.62,-287.72"/>
<polygon fill="#63b8ff" stroke="#63b8ff" points="486.01,-284.48 475.43,-285 484.03,-291.19 486.01,-284.48"/>
</a>
</g>
</g>
<!-- Node7 -->
<g id="Node000007" class="node">
<title>Node7</title>
<g id="a_Node000007"><a xlink:title=" ">
<polygon fill="#e0e0e0" stroke="#999999" points="587.75,-286 491.5,-286 491.5,-252.5 587.75,-252.5 587.75,-286"/>
<text text-anchor="start" x="499.5" y="-272.5" font-family="Helvetica,sans-Serif" font-size="10.00">deal.II/lac/solver</text>
<text text-anchor="middle" x="539.62" y="-259.75" font-family="Helvetica,sans-Serif" font-size="10.00">_selector.h</text>
</a>
</g>
</g>
<!-- Node2&#45;&gt;Node7 -->
<g id="edge6_Node000002_Node000007" class="edge">
<title>Node2&#45;&gt;Node7</title>
<g id="a_edge6_Node000002_Node000007"><a xlink:title=" ">
<path fill="none" stroke="#63b8ff" d="M626.32,-321.58C611.37,-312.73 592.65,-301.64 576.43,-292.04"/>
<polygon fill="#63b8ff" stroke="#63b8ff" points="578.4,-289.14 568.01,-287.06 574.83,-295.16 578.4,-289.14"/>
</a>
</g>
</g>
<!-- Node8 -->
<g id="Node000008" class="node">
<title>Node8</title>
<g id="a_Node000008"><a xlink:href="conditional__ostreams_8h.html" target="_top" xlink:title=" ">
<polygon fill="white" stroke="#666666" points="167.5,-286 27.75,-286 27.75,-252.5 167.5,-252.5 167.5,-286"/>
<text text-anchor="start" x="35.75" y="-272.5" font-family="Helvetica,sans-Serif" font-size="10.00">prismspf/core/conditional</text>
<text text-anchor="middle" x="97.62" y="-259.75" font-family="Helvetica,sans-Serif" font-size="10.00">_ostreams.h</text>
</a>
</g>
</g>
<!-- Node2&#45;&gt;Node8 -->
<g id="edge7_Node000002_Node000008" class="edge">
<title>Node2&#45;&gt;Node8</title>
<g id="a_edge7_Node000002_Node000008"><a xlink:title=" ">
<path fill="none" stroke="#63b8ff" d="M594.3,-331.07C509.9,-321.5 350.34,-303.13 214.62,-286 203.14,-284.55 191.04,-282.97 179.14,-281.4"/>
<polygon fill="#63b8ff" stroke="#63b8ff" points="179.7,-277.94 169.32,-280.09 178.77,-284.88 179.7,-277.94"/>
</a>
</g>
</g>
<!-- Node2&#45;&gt;Node10 -->
<g id="edge37_Node000002_Node000010" class="edge">
<title>Node2&#45;&gt;Node10</title>
<g id="a_edge37_Node000002_Node000010"><a xlink:title=" ">
<path fill="none" stroke="#63b8ff" d="M645.73,-321.88C641.2,-311.87 635.96,-298.5 633.62,-286 629.59,-264.38 635.44,-187.66 637.62,-183 671.83,-110.12 752.15,-53.22 794.46,-27.07"/>
<polygon fill="#63b8ff" stroke="#63b8ff" points="796.06,-30.19 802.81,-22.02 792.44,-24.2 796.06,-30.19"/>
</a>
</g>
</g>
<!-- Node11 -->
<g id="Node000011" class="node">
<title>Node11</title>
<g id="a_Node000011"><a xlink:href="type__enums_8h.html" target="_top" xlink:title=" ">
<polygon fill="white" stroke="#666666" points="1390.38,-90.25 1282.88,-90.25 1282.88,-56.75 1390.38,-56.75 1390.38,-90.25"/>
<text text-anchor="start" x="1290.88" y="-76.75" font-family="Helvetica,sans-Serif" font-size="10.00">prismspf/core/type</text>
<text text-anchor="middle" x="1336.62" y="-64" font-family="Helvetica,sans-Serif" font-size="10.00">_enums.h</text>
</a>
</g>
</g>
<!-- Node2&#45;&gt;Node11 -->
<g id="edge10_Node000002_Node000011" class="edge">
<title>Node2&#45;&gt;Node11</title>
<g id="a_edge10_Node000002_Node000011"><a xlink:title=" ">
<path fill="none" stroke="#63b8ff" d="M713,-336.12C867.32,-331.5 1278.19,-316.61 1410.62,-286 1544.83,-254.98 1622.17,-268.19 1687.62,-147 1692.01,-138.89 1693.65,-133.23 1687.62,-126.25 1651.48,-84.39 1493.34,-75.79 1402.14,-74.39"/>
<polygon fill="#63b8ff" stroke="#63b8ff" points="1402.37,-70.89 1392.33,-74.27 1402.29,-77.89 1402.37,-70.89"/>
</a>
</g>
</g>
<!-- Node14 -->
<g id="Node000014" class="node">
<title>Node14</title>
<g id="a_Node000014"><a xlink:href="types_8h.html" target="_top" xlink:title=" ">
<polygon fill="white" stroke="#666666" points="987.5,-147 865.75,-147 865.75,-126.25 987.5,-126.25 987.5,-147"/>
<text text-anchor="middle" x="926.62" y="-133.5" font-family="Helvetica,sans-Serif" font-size="10.00">prismspf/core/types.h</text>
</a>
</g>
</g>
<!-- Node2&#45;&gt;Node14 -->
<g id="edge14_Node000002_Node000014" class="edge">
<title>Node2&#45;&gt;Node14</title>
<g id="a_edge14_Node000002_Node000014"><a xlink:title=" ">
<path fill="none" stroke="#63b8ff" d="M648.33,-321.83C639.14,-290.9 624.33,-222.28 658.62,-183 683.65,-154.33 783.5,-143.78 853.98,-139.89"/>
<polygon fill="#63b8ff" stroke="#63b8ff" points="854.13,-143.39 863.94,-139.38 853.78,-136.4 854.13,-143.39"/>
</a>
</g>
</g>
<!-- Node16 -->
<g id="Node000016" class="node">
<title>Node16</title>
<g id="a_Node000016"><a xlink:href="parameter__base_8h.html" target="_top" xlink:title=" ">
<polygon fill="white" stroke="#666666" points="1050.62,-286 932.62,-286 932.62,-252.5 1050.62,-252.5 1050.62,-286"/>
<text text-anchor="start" x="940.62" y="-272.5" font-family="Helvetica,sans-Serif" font-size="10.00">prismspf/user_inputs</text>
<text text-anchor="middle" x="991.62" y="-259.75" font-family="Helvetica,sans-Serif" font-size="10.00">/parameter_base.h</text>
</a>
</g>
</g>
<!-- Node2&#45;&gt;Node16 -->
<g id="edge18_Node000002_Node000016" class="edge">
<title>Node2&#45;&gt;Node16</title>
<g id="a_edge18_Node000002_Node000016"><a xlink:title=" ">
<path fill="none" stroke="#63b8ff" d="M712.89,-325.92C770.9,-314.33 859.32,-296.67 920.96,-284.36"/>
<polygon fill="#63b8ff" stroke="#63b8ff" points="921.54,-287.82 930.66,-282.42 920.17,-280.95 921.54,-287.82"/>
</a>
</g>
</g>
<!-- Node19 -->
<g id="Node000019" class="node">
<title>Node19</title>
<g id="a_Node000019"><a xlink:title=" ">
<polygon fill="#e0e0e0" stroke="#999999" points="1484.5,-147 1446.75,-147 1446.75,-126.25 1484.5,-126.25 1484.5,-147"/>
<text text-anchor="middle" x="1465.62" y="-133.5" font-family="Helvetica,sans-Serif" font-size="10.00">map</text>
</a>
</g>
</g>
<!-- Node2&#45;&gt;Node19 -->
<g id="edge39_Node000002_Node000019" class="edge">
<title>Node2&#45;&gt;Node19</title>
<g id="a_edge39_Node000002_Node000019"><a xlink:title=" ">
<path fill="none" stroke="#63b8ff" d="M712.92,-333.61C894.24,-320.35 1431.89,-276.23 1480.62,-216.5 1494.27,-199.77 1485.92,-174.42 1477.19,-157"/>
<polygon fill="#63b8ff" stroke="#63b8ff" points="1480.49,-155.75 1472.62,-148.65 1474.35,-159.11 1480.49,-155.75"/>
</a>
</g>
</g>
<!-- Node25 -->
<g id="Node000025" class="node">
<title>Node25</title>
<g id="a_Node000025"><a xlink:title=" ">
<polygon fill="#e0e0e0" stroke="#999999" points="1132.25,-279.62 1069,-279.62 1069,-258.88 1132.25,-258.88 1132.25,-279.62"/>
<text text-anchor="middle" x="1100.62" y="-266.12" font-family="Helvetica,sans-Serif" font-size="10.00">execution</text>
</a>
</g>
</g>
<!-- Node2&#45;&gt;Node25 -->
<g id="edge38_Node000002_Node000025" class="edge">
<title>Node2&#45;&gt;Node25</title>
<g id="a_edge38_Node000002_Node000025"><a xlink:title=" ">
<path fill="none" stroke="#63b8ff" d="M712.94,-334.65C792.76,-329.48 938.7,-316.46 1059.62,-286 1062.09,-285.38 1064.6,-284.65 1067.12,-283.86"/>
<polygon fill="#63b8ff" stroke="#63b8ff" points="1068.24,-287.18 1076.52,-280.57 1065.93,-280.57 1068.24,-287.18"/>
</a>
</g>
</g>
<!-- Node9 -->
<g id="Node000009" class="node">
<title>Node9</title>
<g id="a_Node000009"><a xlink:title=" ">
<polygon fill="#e0e0e0" stroke="#999999" points="129.25,-216.5 0,-216.5 0,-183 129.25,-183 129.25,-216.5"/>
<text text-anchor="start" x="8" y="-203" font-family="Helvetica,sans-Serif" font-size="10.00">deal.II/base/conditional</text>
<text text-anchor="middle" x="64.62" y="-190.25" font-family="Helvetica,sans-Serif" font-size="10.00">_ostream.h</text>
</a>
</g>
</g>
<!-- Node8&#45;&gt;Node9 -->
<g id="edge8_Node000008_Node000009" class="edge">
<title>Node8&#45;&gt;Node9</title>
<g id="a_edge8_Node000008_Node000009"><a xlink:title=" ">
<path fill="none" stroke="#63b8ff" d="M89.8,-252.25C86.11,-244.69 81.59,-235.46 77.42,-226.91"/>
<polygon fill="#63b8ff" stroke="#63b8ff" points="80.59,-225.44 73.05,-217.99 74.3,-228.51 80.59,-225.44"/>
</a>
</g>
</g>
<!-- Node8&#45;&gt;Node10 -->
<g id="edge9_Node000008_Node000010" class="edge">
<title>Node8&#45;&gt;Node10</title>
<g id="a_edge9_Node000008_Node000010"><a xlink:title=" ">
<path fill="none" stroke="#63b8ff" d="M113.18,-252.2C121.78,-242.54 132.03,-229.6 138.62,-216.5 171.69,-150.83 124.89,-103.51 181.62,-56.75 225.58,-20.52 607.88,-13.22 759.78,-11.75"/>
<polygon fill="#63b8ff" stroke="#63b8ff" points="759.69,-15.25 769.66,-11.66 759.63,-8.25 759.69,-15.25"/>
</a>
</g>
</g>
<!-- Node11&#45;&gt;Node10 -->
<g id="edge11_Node000011_Node000010" class="edge">
<title>Node11&#45;&gt;Node10</title>
<g id="a_edge11_Node000011_Node000010"><a xlink:title=" ">
<path fill="none" stroke="#63b8ff" d="M1282.48,-59.65C1277.14,-58.58 1271.79,-57.59 1266.62,-56.75 1130.69,-34.61 969.53,-21.37 883.34,-15.32"/>
<polygon fill="#63b8ff" stroke="#63b8ff" points="883.66,-11.84 873.44,-14.64 883.18,-18.82 883.66,-11.84"/>
</a>
</g>
</g>
<!-- Node12 -->
<g id="Node000012" class="node">
<title>Node12</title>
<g id="a_Node000012"><a xlink:title=" ">
<polygon fill="#e0e0e0" stroke="#999999" points="1361.12,-20.75 1312.12,-20.75 1312.12,0 1361.12,0 1361.12,-20.75"/>
<text text-anchor="middle" x="1336.62" y="-7.25" font-family="Helvetica,sans-Serif" font-size="10.00">cstdint</text>
</a>
</g>
</g>
<!-- Node11&#45;&gt;Node12 -->
<g id="edge12_Node000011_Node000012" class="edge">
<title>Node11&#45;&gt;Node12</title>
<g id="a_edge12_Node000011_Node000012"><a xlink:title=" ">
<path fill="none" stroke="#63b8ff" d="M1336.62,-56.44C1336.62,-49.1 1336.62,-40.32 1336.62,-32.46"/>
<polygon fill="#63b8ff" stroke="#63b8ff" points="1340.13,-32.73 1336.63,-22.73 1333.13,-32.73 1340.13,-32.73"/>
</a>
</g>
</g>
<!-- Node13 -->
<g id="Node000013" class="node">
<title>Node13</title>
<g id="a_Node000013"><a xlink:title=" ">
<polygon fill="#e0e0e0" stroke="#999999" points="1440.5,-20.75 1396.75,-20.75 1396.75,0 1440.5,0 1440.5,-20.75"/>
<text text-anchor="middle" x="1418.62" y="-7.25" font-family="Helvetica,sans-Serif" font-size="10.00">string</text>
</a>
</g>
</g>
<!-- Node11&#45;&gt;Node13 -->
<g id="edge13_Node000011_Node000013" class="edge">
<title>Node11&#45;&gt;Node13</title>
<g id="a_edge13_Node000011_Node000013"><a xlink:title=" ">
<path fill="none" stroke="#63b8ff" d="M1358.17,-56.44C1369.88,-47.71 1384.36,-36.92 1396.21,-28.09"/>
<polygon fill="#63b8ff" stroke="#63b8ff" points="1398.28,-30.9 1404.21,-22.12 1394.1,-25.29 1398.28,-30.9"/>
</a>
</g>
</g>
<!-- Node14&#45;&gt;Node10 -->
<g id="edge17_Node000014_Node000010" class="edge">
<title>Node14&#45;&gt;Node10</title>
<g id="a_edge17_Node000014_Node000010"><a xlink:title=" ">
<path fill="none" stroke="#63b8ff" d="M915.38,-126.08C905.27,-117.25 890.26,-103.53 878.62,-90.25 861.82,-71.07 845.01,-47.09 834.05,-30.63"/>
<polygon fill="#63b8ff" stroke="#63b8ff" points="837,-28.74 828.58,-22.3 831.14,-32.58 837,-28.74"/>
</a>
</g>
</g>
<!-- Node14&#45;&gt;Node11 -->
<g id="edge16_Node000014_Node000011" class="edge">
<title>Node14&#45;&gt;Node11</title>
<g id="a_edge16_Node000014_Node000011"><a xlink:title=" ">
<path fill="none" stroke="#63b8ff" d="M987.56,-126.54C1063.68,-115.19 1193.38,-95.86 1271.43,-84.22"/>
<polygon fill="#63b8ff" stroke="#63b8ff" points="1271.69,-87.72 1281.06,-82.78 1270.65,-80.8 1271.69,-87.72"/>
</a>
</g>
</g>
<!-- Node15 -->
<g id="Node000015" class="node">
<title>Node15</title>
<g id="a_Node000015"><a xlink:title=" ">
<polygon fill="#e0e0e0" stroke="#999999" points="995.75,-90.25 887.5,-90.25 887.5,-56.75 995.75,-56.75 995.75,-90.25"/>
<text text-anchor="start" x="895.5" y="-76.75" font-family="Helvetica,sans-Serif" font-size="10.00">deal.II/matrix_free</text>
<text text-anchor="middle" x="941.62" y="-64" font-family="Helvetica,sans-Serif" font-size="10.00">/evaluation_flags.h</text>
</a>
</g>
</g>
<!-- Node14&#45;&gt;Node15 -->
<g id="edge15_Node000014_Node000015" class="edge">
<title>Node14&#45;&gt;Node15</title>
<g id="a_edge15_Node000014_Node000015"><a xlink:title=" ">
<path fill="none" stroke="#63b8ff" d="M929.04,-125.8C930.63,-119.31 932.8,-110.44 934.9,-101.91"/>
<polygon fill="#63b8ff" stroke="#63b8ff" points="938.3,-102.75 937.28,-92.2 931.5,-101.08 938.3,-102.75"/>
</a>
</g>
</g>
<!-- Node16&#45;&gt;Node4 -->
<g id="edge19_Node000016_Node000004" class="edge">
<title>Node16&#45;&gt;Node4</title>
<g id="a_edge19_Node000016_Node000004"><a xlink:title=" ">
<path fill="none" stroke="#63b8ff" d="M932.4,-252.93C894.38,-243.1 844.7,-230.25 804.16,-219.77"/>
<polygon fill="#63b8ff" stroke="#63b8ff" points="805.28,-216.44 794.72,-217.33 803.53,-223.22 805.28,-216.44"/>
</a>
</g>
</g>
<!-- Node16&#45;&gt;Node10 -->
<g id="edge30_Node000016_Node000010" class="edge">
<title>Node16&#45;&gt;Node10</title>
<g id="a_edge30_Node000016_Node000010"><a xlink:title=" ">
<path fill="none" stroke="#63b8ff" d="M932.39,-255.06C910.11,-247.3 886.38,-235.19 870.62,-216.5 824.93,-162.31 820.33,-72.78 820.79,-32.35"/>
<polygon fill="#63b8ff" stroke="#63b8ff" points="824.29,-32.44 821.05,-22.36 817.3,-32.26 824.29,-32.44"/>
</a>
</g>
</g>
<!-- Node16&#45;&gt;Node13 -->
<g id="edge34_Node000016_Node000013" class="edge">
<title>Node16&#45;&gt;Node13</title>
<g id="a_edge34_Node000016_Node000013"><a xlink:title=" ">
<path fill="none" stroke="#63b8ff" d="M1050.87,-254.01C1053.82,-253.46 1056.75,-252.95 1059.62,-252.5 1106,-245.18 1445.82,-248 1480.62,-216.5 1510.67,-189.31 1505.18,-165.09 1493.62,-126.25 1482.26,-88.07 1453.74,-50.75 1435.32,-29.45"/>
<polygon fill="#63b8ff" stroke="#63b8ff" points="1438.16,-27.39 1428.9,-22.24 1432.93,-32.04 1438.16,-27.39"/>
</a>
</g>
</g>
<!-- Node16&#45;&gt;Node14 -->
<g id="edge29_Node000016_Node000014" class="edge">
<title>Node16&#45;&gt;Node14</title>
<g id="a_edge29_Node000016_Node000014"><a xlink:title=" ">
<path fill="none" stroke="#63b8ff" d="M932.16,-254.81C911.96,-247.09 891.51,-235.09 879.62,-216.5 871.6,-203.96 873.81,-196.7 879.62,-183 884.36,-171.84 893.34,-162.09 902.18,-154.52"/>
<polygon fill="#63b8ff" stroke="#63b8ff" points="904.29,-157.32 909.98,-148.38 899.96,-151.81 904.29,-157.32"/>
</a>
</g>
</g>
<!-- Node17 -->
<g id="Node000017" class="node">
<title>Node17</title>
<g id="a_Node000017"><a xlink:title=" ">
<polygon fill="#e0e0e0" stroke="#999999" points="1171,-210.12 1046.25,-210.12 1046.25,-189.38 1171,-189.38 1171,-210.12"/>
<text text-anchor="middle" x="1108.62" y="-196.62" font-family="Helvetica,sans-Serif" font-size="10.00">deal.II/base/patterns.h</text>
</a>
</g>
</g>
<!-- Node16&#45;&gt;Node17 -->
<g id="edge20_Node000016_Node000017" class="edge">
<title>Node16&#45;&gt;Node17</title>
<g id="a_edge20_Node000016_Node000017"><a xlink:title=" ">
<path fill="none" stroke="#63b8ff" d="M1019.65,-252.08C1038.5,-241.21 1063.21,-226.95 1081.8,-216.23"/>
<polygon fill="#63b8ff" stroke="#63b8ff" points="1083.46,-219.31 1090.38,-211.28 1079.97,-213.24 1083.46,-219.31"/>
</a>
</g>
</g>
<!-- Node18 -->
<g id="Node000018" class="node">
<title>Node18</title>
<g id="a_Node000018"><a xlink:href="field__attributes_8h.html" target="_top" xlink:title=" ">
<polygon fill="white" stroke="#666666" points="1472,-216.5 1365.25,-216.5 1365.25,-183 1472,-183 1472,-216.5"/>
<text text-anchor="start" x="1373.25" y="-203" font-family="Helvetica,sans-Serif" font-size="10.00">prismspf/core/field</text>
<text text-anchor="middle" x="1418.62" y="-190.25" font-family="Helvetica,sans-Serif" font-size="10.00">_attributes.h</text>
</a>
</g>
</g>
<!-- Node16&#45;&gt;Node18 -->
<g id="edge21_Node000016_Node000018" class="edge">
<title>Node16&#45;&gt;Node18</title>
<g id="a_edge21_Node000016_Node000018"><a xlink:title=" ">
<path fill="none" stroke="#63b8ff" d="M1050.89,-254.13C1053.84,-253.55 1056.76,-253 1059.62,-252.5 1187,-230.1 1223.92,-240.32 1353.77,-216.89"/>
<polygon fill="#63b8ff" stroke="#63b8ff" points="1354.26,-220.36 1363.46,-215.11 1352.99,-213.48 1354.26,-220.36"/>
</a>
</g>
</g>
<!-- Node20 -->
<g id="Node000020" class="node">
<title>Node20</title>
<g id="a_Node000020"><a xlink:title=" ">
<polygon fill="#e0e0e0" stroke="#999999" points="1223,-147 1176.25,-147 1176.25,-126.25 1223,-126.25 1223,-147"/>
<text text-anchor="middle" x="1199.62" y="-133.5" font-family="Helvetica,sans-Serif" font-size="10.00">vector</text>
</a>
</g>
</g>
<!-- Node16&#45;&gt;Node20 -->
<g id="edge36_Node000016_Node000020" class="edge">
<title>Node16&#45;&gt;Node20</title>
<g id="a_edge36_Node000016_Node000020"><a xlink:title=" ">
<path fill="none" stroke="#63b8ff" d="M1050.87,-253.47C1104.21,-239.93 1174.94,-221.28 1179.62,-216.5 1194.58,-201.24 1198.85,-176.47 1199.83,-158.76"/>
<polygon fill="#63b8ff" stroke="#63b8ff" points="1203.33,-158.93 1200.04,-148.86 1196.33,-158.78 1203.33,-158.93"/>
</a>
</g>
</g>
<!-- Node21 -->
<g id="Node000021" class="node">
<title>Node21</title>
<g id="a_Node000021"><a xlink:title=" ">
<polygon fill="#e0e0e0" stroke="#999999" points="1270.12,-210.12 1227.12,-210.12 1227.12,-189.38 1270.12,-189.38 1270.12,-210.12"/>
<text text-anchor="middle" x="1248.62" y="-196.62" font-family="Helvetica,sans-Serif" font-size="10.00">cfloat</text>
</a>
</g>
</g>
<!-- Node16&#45;&gt;Node21 -->
<g id="edge31_Node000016_Node000021" class="edge">
<title>Node16&#45;&gt;Node21</title>
<g id="a_edge31_Node000016_Node000021"><a xlink:title=" ">
<path fill="none" stroke="#63b8ff" d="M1050.91,-254.51C1115.03,-239.62 1208.7,-217.8 1212.62,-216.5 1214.2,-215.98 1215.81,-215.41 1217.42,-214.81"/>
<polygon fill="#63b8ff" stroke="#63b8ff" points="1218.57,-218.12 1226.53,-211.13 1215.95,-211.63 1218.57,-218.12"/>
</a>
</g>
</g>
<!-- Node22 -->
<g id="Node000022" class="node">
<title>Node22</title>
<g id="a_Node000022"><a xlink:title=" ">
<polygon fill="#e0e0e0" stroke="#999999" points="1347.38,-210.12 1287.88,-210.12 1287.88,-189.38 1347.38,-189.38 1347.38,-210.12"/>
<text text-anchor="middle" x="1317.62" y="-196.62" font-family="Helvetica,sans-Serif" font-size="10.00">concepts</text>
</a>
</g>
</g>
<!-- Node16&#45;&gt;Node22 -->
<g id="edge32_Node000016_Node000022" class="edge">
<title>Node16&#45;&gt;Node22</title>
<g id="a_edge32_Node000016_Node000022"><a xlink:title=" ">
<path fill="none" stroke="#63b8ff" d="M1050.91,-254.28C1053.86,-253.66 1056.77,-253.06 1059.62,-252.5 1156.83,-233.31 1184.34,-243.65 1279.62,-216.5 1281.74,-215.9 1283.89,-215.21 1286.04,-214.48"/>
<polygon fill="#63b8ff" stroke="#63b8ff" points="1287.1,-217.82 1295.21,-211 1284.62,-211.27 1287.1,-217.82"/>
</a>
</g>
</g>
<!-- Node23 -->
<g id="Node000023" class="node">
<title>Node23</title>
<g id="a_Node000023"><a xlink:title=" ">
<polygon fill="#e0e0e0" stroke="#999999" points="937.12,-210.12 888.12,-210.12 888.12,-189.38 937.12,-189.38 937.12,-210.12"/>
<text text-anchor="middle" x="912.62" y="-196.62" font-family="Helvetica,sans-Serif" font-size="10.00">ranges</text>
</a>
</g>
</g>
<!-- Node16&#45;&gt;Node23 -->
<g id="edge33_Node000016_Node000023" class="edge">
<title>Node16&#45;&gt;Node23</title>
<g id="a_edge33_Node000016_Node000023"><a xlink:title=" ">
<path fill="none" stroke="#63b8ff" d="M972.9,-252.25C960.83,-241.94 945.14,-228.53 932.79,-217.98"/>
<polygon fill="#63b8ff" stroke="#63b8ff" points="935.15,-215.39 925.27,-211.56 930.6,-220.71 935.15,-215.39"/>
</a>
</g>
</g>
<!-- Node24 -->
<g id="Node000024" class="node">
<title>Node24</title>
<g id="a_Node000024"><a xlink:title=" ">
<polygon fill="#e0e0e0" stroke="#999999" points="1027.75,-210.12 955.5,-210.12 955.5,-189.38 1027.75,-189.38 1027.75,-210.12"/>
<text text-anchor="middle" x="991.62" y="-196.62" font-family="Helvetica,sans-Serif" font-size="10.00">string_view</text>
</a>
</g>
</g>
<!-- Node16&#45;&gt;Node24 -->
<g id="edge35_Node000016_Node000024" class="edge">
<title>Node16&#45;&gt;Node24</title>
<g id="a_edge35_Node000016_Node000024"><a xlink:title=" ">
<path fill="none" stroke="#63b8ff" d="M991.62,-252.25C991.62,-243.15 991.62,-231.64 991.62,-221.82"/>
<polygon fill="#63b8ff" stroke="#63b8ff" points="995.13,-222.09 991.63,-212.09 988.13,-222.09 995.13,-222.09"/>
</a>
</g>
</g>
<!-- Node18&#45;&gt;Node3 -->
<g id="edge22_Node000018_Node000003" class="edge">
<title>Node18&#45;&gt;Node3</title>
<g id="a_edge22_Node000018_Node000003"><a xlink:title=" ">
<path fill="none" stroke="#63b8ff" d="M1469.31,-182.53C1500.28,-172.62 1539.37,-160.11 1568.43,-150.81"/>
<polygon fill="#63b8ff" stroke="#63b8ff" points="1569.13,-154.26 1577.59,-147.88 1567,-147.59 1569.13,-154.26"/>
</a>
</g>
</g>
<!-- Node18&#45;&gt;Node10 -->
<g id="edge25_Node000018_Node000010" class="edge">
<title>Node18&#45;&gt;Node10</title>
<g id="a_edge25_Node000018_Node000010"><a xlink:title=" ">
<path fill="none" stroke="#63b8ff" d="M1379.53,-182.64C1341.91,-167.36 1283.28,-144.14 1231.62,-126.25 1131.93,-91.71 1106.31,-84.9 1004.62,-56.75 961.17,-44.72 911.49,-32.5 874.88,-23.77"/>
<polygon fill="#63b8ff" stroke="#63b8ff" points="875.96,-20.44 865.42,-21.53 874.35,-27.25 875.96,-20.44"/>
</a>
</g>
</g>
<!-- Node18&#45;&gt;Node11 -->
<g id="edge23_Node000018_Node000011" class="edge">
<title>Node18&#45;&gt;Node11</title>
<g id="a_edge23_Node000018_Node000011"><a xlink:title=" ">
<path fill="none" stroke="#63b8ff" d="M1407.9,-182.51C1394.09,-161.58 1369.92,-124.95 1353.6,-100.22"/>
<polygon fill="#63b8ff" stroke="#63b8ff" points="1356.61,-98.43 1348.18,-92.01 1350.77,-102.28 1356.61,-98.43"/>
</a>
</g>
</g>
<!-- Node18&#45;&gt;Node13 -->
<g id="edge27_Node000018_Node000013" class="edge">
<title>Node18&#45;&gt;Node13</title>
<g id="a_edge27_Node000018_Node000013"><a xlink:title=" ">
<path fill="none" stroke="#63b8ff" d="M1418.62,-182.77C1418.62,-148.9 1418.62,-69.89 1418.62,-32.16"/>
<polygon fill="#63b8ff" stroke="#63b8ff" points="1422.13,-32.58 1418.63,-22.58 1415.13,-32.58 1422.13,-32.58"/>
</a>
</g>
</g>
<!-- Node18&#45;&gt;Node14 -->
<g id="edge24_Node000018_Node000014" class="edge">
<title>Node18&#45;&gt;Node14</title>
<g id="a_edge24_Node000018_Node000014"><a xlink:title=" ">
<path fill="none" stroke="#63b8ff" d="M1364.96,-184.62C1362.15,-184.03 1359.36,-183.49 1356.62,-183 1232.11,-160.73 1085.21,-148.12 999.34,-142.1"/>
<polygon fill="#63b8ff" stroke="#63b8ff" points="999.62,-138.61 989.41,-141.42 999.14,-145.59 999.62,-138.61"/>
</a>
</g>
</g>
<!-- Node18&#45;&gt;Node19 -->
<g id="edge26_Node000018_Node000019" class="edge">
<title>Node18&#45;&gt;Node19</title>
<g id="a_edge26_Node000018_Node000019"><a xlink:title=" ">
<path fill="none" stroke="#63b8ff" d="M1430.97,-182.69C1437.15,-174.66 1444.67,-164.88 1451.12,-156.49"/>
<polygon fill="#63b8ff" stroke="#63b8ff" points="1453.81,-158.73 1457.13,-148.67 1448.26,-154.46 1453.81,-158.73"/>
</a>
</g>
</g>
<!-- Node18&#45;&gt;Node20 -->
<g id="edge28_Node000018_Node000020" class="edge">
<title>Node18&#45;&gt;Node20</title>
<g id="a_edge28_Node000018_Node000020"><a xlink:title=" ">
<path fill="none" stroke="#63b8ff" d="M1364.77,-183.72C1323.97,-172.33 1269.14,-157.03 1234.08,-147.24"/>
<polygon fill="#63b8ff" stroke="#63b8ff" points="1235.47,-143.99 1224.89,-144.68 1233.58,-150.74 1235.47,-143.99"/>
</a>
</g>
</g>
</g>
</svg>
