<?xml version="1.0" encoding="UTF-8" standalone="no"?>
<!DOCTYPE svg PUBLIC "-//W3C//DTD SVG 1.1//EN"
 "http://www.w3.org/Graphics/SVG/1.1/DTD/svg11.dtd">
<!-- Generated by graphviz version 12.2.1 (20241206.2353)
 -->
<!-- Title: include/prismspf/user_inputs/solve_parameters.h Pages: 1 -->
<svg width="1323pt" height="364pt"
 viewBox="0.00 0.00 1322.54 363.50" xmlns="http://www.w3.org/2000/svg" xmlns:xlink="http://www.w3.org/1999/xlink">
<g id="graph0" class="graph" transform="scale(1 1) rotate(0) translate(4 359.5)">
<title>include/prismspf/user_inputs/solve_parameters.h</title>
<!-- Node1 -->
<g id="Node000001" class="node">
<title>Node1</title>
<g id="a_Node000001"><a xlink:title=" ">
<polygon fill="#999999" stroke="#666666" points="834.42,-355.5 683.42,-355.5 683.42,-322 834.42,-322 834.42,-355.5"/>
<text text-anchor="start" x="691.42" y="-342" font-family="Helvetica,sans-Serif" font-size="10.00">include/prismspf/user</text>
<text text-anchor="middle" x="758.92" y="-329.25" font-family="Helvetica,sans-Serif" font-size="10.00">_inputs/solve_parameters.h</text>
</a>
</g>
</g>
<!-- Node2 -->
<g id="Node000002" class="node">
<title>Node2</title>
<g id="a_Node000002"><a xlink:title=" ">
<polygon fill="#e0e0e0" stroke="#999999" points="413.67,-147 276.17,-147 276.17,-126.25 413.67,-126.25 413.67,-147"/>
<text text-anchor="middle" x="344.92" y="-133.5" font-family="Helvetica,sans-Serif" font-size="10.00">deal.II/base/exceptions.h</text>
</a>
</g>
</g>
<!-- Node1&#45;&gt;Node2 -->
<g id="edge1_Node000001_Node000002" class="edge">
<title>Node1&#45;&gt;Node2</title>
<g id="a_edge1_Node000001_Node000002"><a xlink:title=" ">
<path fill="none" stroke="#63b8ff" d="M682.96,-327.99C639.31,-320.42 584.31,-307.48 538.92,-286 466.05,-251.52 394.41,-186.42 362.37,-155.19"/>
<polygon fill="#63b8ff" stroke="#63b8ff" points="365.06,-152.94 355.49,-148.4 360.15,-157.92 365.06,-152.94"/>
</a>
</g>
</g>
<!-- Node3 -->
<g id="Node000003" class="node">
<title>Node3</title>
<g id="a_Node000003"><a xlink:title=" ">
<polygon fill="#e0e0e0" stroke="#999999" points="1105.04,-216.5 978.79,-216.5 978.79,-183 1105.04,-183 1105.04,-216.5"/>
<text text-anchor="start" x="986.79" y="-203" font-family="Helvetica,sans-Serif" font-size="10.00">deal.II/base/parameter</text>
<text text-anchor="middle" x="1041.92" y="-190.25" font-family="Helvetica,sans-Serif" font-size="10.00">_handler.h</text>
</a>
</g>
</g>
<!-- Node1&#45;&gt;Node3 -->
<g id="edge2_Node000001_Node000003" class="edge">
<title>Node1&#45;&gt;Node3</title>
<g id="a_edge2_Node000001_Node000003"><a xlink:title=" ">
<path fill="none" stroke="#63b8ff" d="M767.4,-321.55C778.44,-302.08 799.61,-269.88 826.92,-252.5 833.07,-248.58 907.75,-231.06 967.39,-217.48"/>
<polygon fill="#63b8ff" stroke="#63b8ff" points="967.88,-220.96 976.85,-215.33 966.32,-214.14 967.88,-220.96"/>
</a>
</g>
</g>
<!-- Node4 -->
<g id="Node000004" class="node">
<title>Node4</title>
<g id="a_Node000004"><a xlink:title=" ">
<polygon fill="#e0e0e0" stroke="#999999" points="1004.92,-279.62 868.92,-279.62 868.92,-258.88 1004.92,-258.88 1004.92,-279.62"/>
<text text-anchor="middle" x="936.92" y="-266.12" font-family="Helvetica,sans-Serif" font-size="10.00">deal.II/lac/precondition.h</text>
</a>
</g>
</g>
<!-- Node1&#45;&gt;Node4 -->
<g id="edge3_Node000001_Node000004" class="edge">
<title>Node1&#45;&gt;Node4</title>
<g id="a_edge3_Node000001_Node000004"><a xlink:title=" ">
<path fill="none" stroke="#63b8ff" d="M801.55,-321.58C831.74,-310.13 871.8,-294.94 900.49,-284.06"/>
<polygon fill="#63b8ff" stroke="#63b8ff" points="901.37,-287.47 909.47,-280.66 898.88,-280.93 901.37,-287.47"/>
</a>
</g>
</g>
<!-- Node5 -->
<g id="Node000005" class="node">
<title>Node5</title>
<g id="a_Node000005"><a xlink:title=" ">
<polygon fill="#e0e0e0" stroke="#999999" points="1119.04,-286 1022.79,-286 1022.79,-252.5 1119.04,-252.5 1119.04,-286"/>
<text text-anchor="start" x="1030.79" y="-272.5" font-family="Helvetica,sans-Serif" font-size="10.00">deal.II/lac/solver</text>
<text text-anchor="middle" x="1070.92" y="-259.75" font-family="Helvetica,sans-Serif" font-size="10.00">_minres.h</text>
</a>
</g>
</g>
<!-- Node1&#45;&gt;Node5 -->
<g id="edge4_Node000001_Node000005" class="edge">
<title>Node1&#45;&gt;Node5</title>
<g id="a_edge4_Node000001_Node000005"><a xlink:title=" ">
<path fill="none" stroke="#63b8ff" d="M834.81,-323.78C883,-314.57 946.9,-301.76 1011.65,-286.46"/>
<polygon fill="#63b8ff" stroke="#63b8ff" points="1012.08,-289.96 1020.99,-284.23 1010.45,-283.15 1012.08,-289.96"/>
</a>
</g>
</g>
<!-- Node6 -->
<g id="Node000006" class="node">
<title>Node6</title>
<g id="a_Node000006"><a xlink:title=" ">
<polygon fill="#e0e0e0" stroke="#999999" points="1233.04,-286 1136.79,-286 1136.79,-252.5 1233.04,-252.5 1233.04,-286"/>
<text text-anchor="start" x="1144.79" y="-272.5" font-family="Helvetica,sans-Serif" font-size="10.00">deal.II/lac/solver</text>
<text text-anchor="middle" x="1184.92" y="-259.75" font-family="Helvetica,sans-Serif" font-size="10.00">_selector.h</text>
</a>
</g>
</g>
<!-- Node1&#45;&gt;Node6 -->
<g id="edge5_Node000001_Node000006" class="edge">
<title>Node1&#45;&gt;Node6</title>
<g id="a_edge5_Node000001_Node000006"><a xlink:title=" ">
<path fill="none" stroke="#63b8ff" d="M834.68,-330.05C907.06,-322.03 1019.36,-307.86 1125.29,-286.39"/>
<polygon fill="#63b8ff" stroke="#63b8ff" points="1125.94,-289.83 1135.03,-284.39 1124.53,-282.98 1125.94,-289.83"/>
</a>
</g>
</g>
<!-- Node7 -->
<g id="Node000007" class="node">
<title>Node7</title>
<g id="a_Node000007"><a xlink:href="conditional__ostreams_8h.html" target="_top" xlink:title=" ">
<polygon fill="white" stroke="#666666" points="143.79,-286 4.04,-286 4.04,-252.5 143.79,-252.5 143.79,-286"/>
<text text-anchor="start" x="12.04" y="-272.5" font-family="Helvetica,sans-Serif" font-size="10.00">prismspf/core/conditional</text>
<text text-anchor="middle" x="73.92" y="-259.75" font-family="Helvetica,sans-Serif" font-size="10.00">_ostreams.h</text>
</a>
</g>
</g>
<!-- Node1&#45;&gt;Node7 -->
<g id="edge6_Node000001_Node000007" class="edge">
<title>Node1&#45;&gt;Node7</title>
<g id="a_edge6_Node000001_Node000007"><a xlink:title=" ">
<path fill="none" stroke="#63b8ff" d="M683.22,-333.65C569.01,-326.93 345.99,-311.66 157.92,-286 157.06,-285.88 156.2,-285.76 155.34,-285.64"/>
<polygon fill="#63b8ff" stroke="#63b8ff" points="155.87,-282.18 145.45,-284.15 154.82,-289.1 155.87,-282.18"/>
</a>
</g>
</g>
<!-- Node9 -->
<g id="Node000009" class="node">
<title>Node9</title>
<g id="a_Node000009"><a xlink:title=" ">
<polygon fill="#e0e0e0" stroke="#999999" points="313.92,-20.75 213.92,-20.75 213.92,0 313.92,0 313.92,-20.75"/>
<text text-anchor="middle" x="263.92" y="-7.25" font-family="Helvetica,sans-Serif" font-size="10.00">prismspf/config.h</text>
</a>
</g>
</g>
<!-- Node1&#45;&gt;Node9 -->
<g id="edge34_Node000001_Node000009" class="edge">
<title>Node1&#45;&gt;Node9</title>
<g id="a_edge34_Node000001_Node000009"><a xlink:title=" ">
<path fill="none" stroke="#63b8ff" d="M683.08,-335.83C524.39,-329.74 171.92,-304.55 171.92,-200.75 171.92,-200.75 171.92,-200.75 171.92,-135.62 171.92,-89.53 213.33,-49.36 240.58,-27.91"/>
<polygon fill="#63b8ff" stroke="#63b8ff" points="242.48,-30.87 248.33,-22.04 238.25,-25.29 242.48,-30.87"/>
</a>
</g>
</g>
<!-- Node10 -->
<g id="Node000010" class="node">
<title>Node10</title>
<g id="a_Node000010"><a xlink:href="type__enums_8h.html" target="_top" xlink:title=" ">
<polygon fill="white" stroke="#666666" points="442.67,-90.25 335.17,-90.25 335.17,-56.75 442.67,-56.75 442.67,-90.25"/>
<text text-anchor="start" x="343.17" y="-76.75" font-family="Helvetica,sans-Serif" font-size="10.00">prismspf/core/type</text>
<text text-anchor="middle" x="388.92" y="-64" font-family="Helvetica,sans-Serif" font-size="10.00">_enums.h</text>
</a>
</g>
</g>
<!-- Node1&#45;&gt;Node10 -->
<g id="edge9_Node000001_Node000010" class="edge">
<title>Node1&#45;&gt;Node10</title>
<g id="a_edge9_Node000001_Node000010"><a xlink:title=" ">
<path fill="none" stroke="#63b8ff" d="M682.99,-336.21C565.96,-329.07 346.7,-295.49 266.92,-147 250.94,-117.27 286.99,-98.6 323.97,-87.66"/>
<polygon fill="#63b8ff" stroke="#63b8ff" points="324.72,-91.08 333.43,-85.05 322.86,-84.34 324.72,-91.08"/>
</a>
</g>
</g>
<!-- Node13 -->
<g id="Node000013" class="node">
<title>Node13</title>
<g id="a_Node000013"><a xlink:href="types_8h.html" target="_top" xlink:title=" ">
<polygon fill="white" stroke="#666666" points="553.79,-147 432.04,-147 432.04,-126.25 553.79,-126.25 553.79,-147"/>
<text text-anchor="middle" x="492.92" y="-133.5" font-family="Helvetica,sans-Serif" font-size="10.00">prismspf/core/types.h</text>
</a>
</g>
</g>
<!-- Node1&#45;&gt;Node13 -->
<g id="edge13_Node000001_Node000013" class="edge">
<title>Node1&#45;&gt;Node13</title>
<g id="a_edge13_Node000001_Node000013"><a xlink:title=" ">
<path fill="none" stroke="#63b8ff" d="M683.02,-321.6C625.2,-305.19 548.5,-273.76 505.92,-216.5 493.58,-199.91 491.2,-175.93 491.36,-158.77"/>
<polygon fill="#63b8ff" stroke="#63b8ff" points="494.85,-159.1 491.78,-148.96 487.86,-158.8 494.85,-159.1"/>
</a>
</g>
</g>
<!-- Node15 -->
<g id="Node000015" class="node">
<title>Node15</title>
<g id="a_Node000015"><a xlink:href="parameter__base_8h.html" target="_top" xlink:title=" ">
<polygon fill="white" stroke="#666666" points="774.92,-286 656.92,-286 656.92,-252.5 774.92,-252.5 774.92,-286"/>
<text text-anchor="start" x="664.92" y="-272.5" font-family="Helvetica,sans-Serif" font-size="10.00">prismspf/user_inputs</text>
<text text-anchor="middle" x="715.92" y="-259.75" font-family="Helvetica,sans-Serif" font-size="10.00">/parameter_base.h</text>
</a>
</g>
</g>
<!-- Node1&#45;&gt;Node15 -->
<g id="edge17_Node000001_Node000015" class="edge">
<title>Node1&#45;&gt;Node15</title>
<g id="a_edge17_Node000001_Node000015"><a xlink:title=" ">
<path fill="none" stroke="#63b8ff" d="M748.73,-321.75C743.75,-313.94 737.63,-304.34 732.04,-295.56"/>
<polygon fill="#63b8ff" stroke="#63b8ff" points="735.17,-293.96 726.85,-287.41 729.27,-297.72 735.17,-293.96"/>
</a>
</g>
</g>
<!-- Node17 -->
<g id="Node000017" class="node">
<title>Node17</title>
<g id="a_Node000017"><a xlink:title=" ">
<polygon fill="#e0e0e0" stroke="#999999" points="787.79,-147 750.04,-147 750.04,-126.25 787.79,-126.25 787.79,-147"/>
<text text-anchor="middle" x="768.92" y="-133.5" font-family="Helvetica,sans-Serif" font-size="10.00">map</text>
</a>
</g>
</g>
<!-- Node1&#45;&gt;Node17 -->
<g id="edge36_Node000001_Node000017" class="edge">
<title>Node1&#45;&gt;Node17</title>
<g id="a_edge36_Node000001_Node000017"><a xlink:title=" ">
<path fill="none" stroke="#63b8ff" d="M780.03,-321.6C792.91,-311.59 809.6,-298.33 823.92,-286 840.48,-271.74 840.19,-261.91 859.92,-252.5 965.55,-202.11 1191.09,-270.99 1113.92,-183 1093.27,-159.46 879.72,-144.28 799.32,-139.37"/>
<polygon fill="#63b8ff" stroke="#63b8ff" points="799.73,-135.89 789.54,-138.78 799.31,-142.87 799.73,-135.89"/>
</a>
</g>
</g>
<!-- Node22 -->
<g id="Node000022" class="node">
<title>Node22</title>
<g id="a_Node000022"><a xlink:title=" ">
<polygon fill="#e0e0e0" stroke="#999999" points="1314.54,-279.62 1251.29,-279.62 1251.29,-258.88 1314.54,-258.88 1314.54,-279.62"/>
<text text-anchor="middle" x="1282.92" y="-266.12" font-family="Helvetica,sans-Serif" font-size="10.00">execution</text>
</a>
</g>
</g>
<!-- Node1&#45;&gt;Node22 -->
<g id="edge35_Node000001_Node000022" class="edge">
<title>Node1&#45;&gt;Node22</title>
<g id="a_edge35_Node000001_Node000022"><a xlink:title=" ">
<path fill="none" stroke="#63b8ff" d="M834.83,-335.7C930.85,-331.72 1100.7,-320.07 1241.92,-286 1244.54,-285.37 1247.23,-284.61 1249.91,-283.77"/>
<polygon fill="#63b8ff" stroke="#63b8ff" points="1250.98,-287.1 1259.27,-280.49 1248.67,-280.49 1250.98,-287.1"/>
</a>
</g>
</g>
<!-- Node8 -->
<g id="Node000008" class="node">
<title>Node8</title>
<g id="a_Node000008"><a xlink:title=" ">
<polygon fill="#e0e0e0" stroke="#999999" points="143.54,-216.5 14.29,-216.5 14.29,-183 143.54,-183 143.54,-216.5"/>
<text text-anchor="start" x="22.29" y="-203" font-family="Helvetica,sans-Serif" font-size="10.00">deal.II/base/conditional</text>
<text text-anchor="middle" x="78.92" y="-190.25" font-family="Helvetica,sans-Serif" font-size="10.00">_ostream.h</text>
</a>
</g>
</g>
<!-- Node7&#45;&gt;Node8 -->
<g id="edge7_Node000007_Node000008" class="edge">
<title>Node7&#45;&gt;Node8</title>
<g id="a_edge7_Node000007_Node000008"><a xlink:title=" ">
<path fill="none" stroke="#63b8ff" d="M75.1,-252.25C75.64,-245.02 76.28,-236.28 76.89,-228.06"/>
<polygon fill="#63b8ff" stroke="#63b8ff" points="80.38,-228.37 77.63,-218.14 73.4,-227.86 80.38,-228.37"/>
</a>
</g>
</g>
<!-- Node7&#45;&gt;Node9 -->
<g id="edge8_Node000007_Node000009" class="edge">
<title>Node7&#45;&gt;Node9</title>
<g id="a_edge8_Node000007_Node000009"><a xlink:title=" ">
<path fill="none" stroke="#63b8ff" d="M40.46,-252.01C26.81,-243.49 12.48,-231.63 4.92,-216.5 -1.74,-203.18 -1.43,-196.47 4.92,-183 46.14,-95.54 156.6,-46.42 219.14,-24.82"/>
<polygon fill="#63b8ff" stroke="#63b8ff" points="220.06,-28.21 228.43,-21.71 217.83,-21.57 220.06,-28.21"/>
</a>
</g>
</g>
<!-- Node10&#45;&gt;Node9 -->
<g id="edge10_Node000010_Node000009" class="edge">
<title>Node10&#45;&gt;Node9</title>
<g id="a_edge10_Node000010_Node000009"><a xlink:title=" ">
<path fill="none" stroke="#63b8ff" d="M355.75,-56.28C336.64,-46.94 312.81,-35.28 294.21,-26.19"/>
<polygon fill="#63b8ff" stroke="#63b8ff" points="295.82,-23.08 285.3,-21.83 292.74,-29.37 295.82,-23.08"/>
</a>
</g>
</g>
<!-- Node11 -->
<g id="Node000011" class="node">
<title>Node11</title>
<g id="a_Node000011"><a xlink:title=" ">
<polygon fill="#e0e0e0" stroke="#999999" points="413.42,-20.75 364.42,-20.75 364.42,0 413.42,0 413.42,-20.75"/>
<text text-anchor="middle" x="388.92" y="-7.25" font-family="Helvetica,sans-Serif" font-size="10.00">cstdint</text>
</a>
</g>
</g>
<!-- Node10&#45;&gt;Node11 -->
<g id="edge11_Node000010_Node000011" class="edge">
<title>Node10&#45;&gt;Node11</title>
<g id="a_edge11_Node000010_Node000011"><a xlink:title=" ">
<path fill="none" stroke="#63b8ff" d="M388.92,-56.44C388.92,-49.1 388.92,-40.32 388.92,-32.46"/>
<polygon fill="#63b8ff" stroke="#63b8ff" points="392.42,-32.73 388.92,-22.73 385.42,-32.73 392.42,-32.73"/>
</a>
</g>
</g>
<!-- Node12 -->
<g id="Node000012" class="node">
<title>Node12</title>
<g id="a_Node000012"><a xlink:title=" ">
<polygon fill="#e0e0e0" stroke="#999999" points="679.79,-20.75 636.04,-20.75 636.04,0 679.79,0 679.79,-20.75"/>
<text text-anchor="middle" x="657.92" y="-7.25" font-family="Helvetica,sans-Serif" font-size="10.00">string</text>
</a>
</g>
</g>
<!-- Node10&#45;&gt;Node12 -->
<g id="edge12_Node000010_Node000012" class="edge">
<title>Node10&#45;&gt;Node12</title>
<g id="a_edge12_Node000010_Node000012"><a xlink:title=" ">
<path fill="none" stroke="#63b8ff" d="M442.85,-58.91C445.91,-58.17 448.95,-57.45 451.92,-56.75 512.59,-42.49 583.64,-27.13 624.45,-18.44"/>
<polygon fill="#63b8ff" stroke="#63b8ff" points="625.08,-21.89 634.14,-16.39 623.63,-15.04 625.08,-21.89"/>
</a>
</g>
</g>
<!-- Node13&#45;&gt;Node9 -->
<g id="edge16_Node000013_Node000009" class="edge">
<title>Node13&#45;&gt;Node9</title>
<g id="a_edge16_Node000013_Node000009"><a xlink:title=" ">
<path fill="none" stroke="#63b8ff" d="M443.28,-125.75C401.35,-116.76 345.14,-102.98 325.92,-90.25 303.19,-75.2 285.08,-49.07 274.43,-31.03"/>
<polygon fill="#63b8ff" stroke="#63b8ff" points="277.49,-29.34 269.54,-22.34 271.39,-32.77 277.49,-29.34"/>
</a>
</g>
</g>
<!-- Node13&#45;&gt;Node10 -->
<g id="edge15_Node000013_Node000010" class="edge">
<title>Node13&#45;&gt;Node10</title>
<g id="a_edge15_Node000013_Node000010"><a xlink:title=" ">
<path fill="none" stroke="#63b8ff" d="M476.21,-125.8C462.77,-117.91 443.37,-106.51 426.28,-96.46"/>
<polygon fill="#63b8ff" stroke="#63b8ff" points="428.24,-93.55 417.84,-91.5 424.69,-99.59 428.24,-93.55"/>
</a>
</g>
</g>
<!-- Node14 -->
<g id="Node000014" class="node">
<title>Node14</title>
<g id="a_Node000014"><a xlink:title=" ">
<polygon fill="#e0e0e0" stroke="#999999" points="569.04,-90.25 460.79,-90.25 460.79,-56.75 569.04,-56.75 569.04,-90.25"/>
<text text-anchor="start" x="468.79" y="-76.75" font-family="Helvetica,sans-Serif" font-size="10.00">deal.II/matrix_free</text>
<text text-anchor="middle" x="514.92" y="-64" font-family="Helvetica,sans-Serif" font-size="10.00">/evaluation_flags.h</text>
</a>
</g>
</g>
<!-- Node13&#45;&gt;Node14 -->
<g id="edge14_Node000013_Node000014" class="edge">
<title>Node13&#45;&gt;Node14</title>
<g id="a_edge14_Node000013_Node000014"><a xlink:title=" ">
<path fill="none" stroke="#63b8ff" d="M496.45,-125.8C498.84,-119.16 502.12,-110.04 505.26,-101.33"/>
<polygon fill="#63b8ff" stroke="#63b8ff" points="508.47,-102.75 508.56,-92.16 501.88,-100.38 508.47,-102.75"/>
</a>
</g>
</g>
<!-- Node15&#45;&gt;Node3 -->
<g id="edge18_Node000015_Node000003" class="edge">
<title>Node15&#45;&gt;Node3</title>
<g id="a_edge18_Node000015_Node000003"><a xlink:title=" ">
<path fill="none" stroke="#63b8ff" d="M775.26,-255.36C779.88,-254.38 784.47,-253.42 788.92,-252.5 865.78,-236.57 887.76,-233.51 967.26,-217.03"/>
<polygon fill="#63b8ff" stroke="#63b8ff" points="967.77,-220.5 976.85,-215.04 966.34,-213.65 967.77,-220.5"/>
</a>
</g>
</g>
<!-- Node15&#45;&gt;Node9 -->
<g id="edge28_Node000015_Node000009" class="edge">
<title>Node15&#45;&gt;Node9</title>
<g id="a_edge28_Node000015_Node000009"><a xlink:title=" ">
<path fill="none" stroke="#63b8ff" d="M656.78,-261.12C546.08,-246.43 314.44,-208.87 266.92,-147 241.31,-113.66 249.95,-60.88 257.53,-31.97"/>
<polygon fill="#63b8ff" stroke="#63b8ff" points="260.82,-33.2 260.2,-22.63 254.09,-31.28 260.82,-33.2"/>
</a>
</g>
</g>
<!-- Node15&#45;&gt;Node12 -->
<g id="edge31_Node000015_Node000012" class="edge">
<title>Node15&#45;&gt;Node12</title>
<g id="a_edge31_Node000015_Node000012"><a xlink:title=" ">
<path fill="none" stroke="#63b8ff" d="M715.77,-252.24C716.39,-233.84 719.87,-203.55 734.92,-183 753.74,-157.29 781.02,-174.61 796.92,-147 801.52,-139.01 800.84,-134.59 796.92,-126.25 774.68,-79.02 722.43,-44.58 688.71,-26.31"/>
<polygon fill="#63b8ff" stroke="#63b8ff" points="690.72,-23.4 680.23,-21.86 687.46,-29.6 690.72,-23.4"/>
</a>
</g>
</g>
<!-- Node15&#45;&gt;Node13 -->
<g id="edge27_Node000015_Node000013" class="edge">
<title>Node15&#45;&gt;Node13</title>
<g id="a_edge27_Node000015_Node000013"><a xlink:title=" ">
<path fill="none" stroke="#63b8ff" d="M656.67,-263.22C618.4,-257.31 569.48,-244.45 534.92,-216.5 516.4,-201.53 504.99,-176.16 498.82,-158.24"/>
<polygon fill="#63b8ff" stroke="#63b8ff" points="502.23,-157.41 495.89,-148.93 495.55,-159.52 502.23,-157.41"/>
</a>
</g>
</g>
<!-- Node16 -->
<g id="Node000016" class="node">
<title>Node16</title>
<g id="a_Node000016"><a xlink:href="field__attributes_8h.html" target="_top" xlink:title=" ">
<polygon fill="white" stroke="#666666" points="650.29,-216.5 543.54,-216.5 543.54,-183 650.29,-183 650.29,-216.5"/>
<text text-anchor="start" x="551.54" y="-203" font-family="Helvetica,sans-Serif" font-size="10.00">prismspf/core/field</text>
<text text-anchor="middle" x="596.92" y="-190.25" font-family="Helvetica,sans-Serif" font-size="10.00">_attributes.h</text>
</a>
</g>
</g>
<!-- Node15&#45;&gt;Node16 -->
<g id="edge19_Node000015_Node000016" class="edge">
<title>Node15&#45;&gt;Node16</title>
<g id="a_edge19_Node000015_Node000016"><a xlink:title=" ">
<path fill="none" stroke="#63b8ff" d="M687.41,-252.08C671.66,-243.15 651.89,-231.94 634.85,-222.27"/>
<polygon fill="#63b8ff" stroke="#63b8ff" points="636.93,-219.42 626.5,-217.53 633.47,-225.51 636.93,-219.42"/>
</a>
</g>
</g>
<!-- Node18 -->
<g id="Node000018" class="node">
<title>Node18</title>
<g id="a_Node000018"><a xlink:title=" ">
<polygon fill="#e0e0e0" stroke="#999999" points="732.29,-147 685.54,-147 685.54,-126.25 732.29,-126.25 732.29,-147"/>
<text text-anchor="middle" x="708.92" y="-133.5" font-family="Helvetica,sans-Serif" font-size="10.00">vector</text>
</a>
</g>
</g>
<!-- Node15&#45;&gt;Node18 -->
<g id="edge33_Node000015_Node000018" class="edge">
<title>Node15&#45;&gt;Node18</title>
<g id="a_edge33_Node000015_Node000018"><a xlink:title=" ">
<path fill="none" stroke="#63b8ff" d="M710.38,-252.16C707.21,-242.06 703.53,-228.68 701.92,-216.5 699.96,-201.74 700.78,-197.85 701.92,-183 702.53,-174.96 703.75,-166.19 705.01,-158.52"/>
<polygon fill="#63b8ff" stroke="#63b8ff" points="708.43,-159.26 706.72,-148.8 701.54,-158.04 708.43,-159.26"/>
</a>
</g>
</g>
<!-- Node19 -->
<g id="Node000019" class="node">
<title>Node19</title>
<g id="a_Node000019"><a xlink:title=" ">
<polygon fill="#e0e0e0" stroke="#999999" points="803.67,-210.12 744.17,-210.12 744.17,-189.38 803.67,-189.38 803.67,-210.12"/>
<text text-anchor="middle" x="773.92" y="-196.62" font-family="Helvetica,sans-Serif" font-size="10.00">concepts</text>
</a>
</g>
</g>
<!-- Node15&#45;&gt;Node19 -->
<g id="edge29_Node000015_Node000019" class="edge">
<title>Node15&#45;&gt;Node19</title>
<g id="a_edge29_Node000015_Node000019"><a xlink:title=" ">
<path fill="none" stroke="#63b8ff" d="M729.66,-252.25C738.18,-242.34 749.14,-229.58 758.03,-219.24"/>
<polygon fill="#63b8ff" stroke="#63b8ff" points="760.63,-221.59 764.49,-211.72 755.32,-217.02 760.63,-221.59"/>
</a>
</g>
</g>
<!-- Node20 -->
<g id="Node000020" class="node">
<title>Node20</title>
<g id="a_Node000020"><a xlink:title=" ">
<polygon fill="#e0e0e0" stroke="#999999" points="870.42,-210.12 821.42,-210.12 821.42,-189.38 870.42,-189.38 870.42,-210.12"/>
<text text-anchor="middle" x="845.92" y="-196.62" font-family="Helvetica,sans-Serif" font-size="10.00">ranges</text>
</a>
</g>
</g>
<!-- Node15&#45;&gt;Node20 -->
<g id="edge30_Node000015_Node000020" class="edge">
<title>Node15&#45;&gt;Node20</title>
<g id="a_edge30_Node000015_Node000020"><a xlink:title=" ">
<path fill="none" stroke="#63b8ff" d="M747.05,-252.08C768.29,-241.06 796.22,-226.55 816.97,-215.78"/>
<polygon fill="#63b8ff" stroke="#63b8ff" points="818.49,-218.93 825.75,-211.22 815.27,-212.72 818.49,-218.93"/>
</a>
</g>
</g>
<!-- Node21 -->
<g id="Node000021" class="node">
<title>Node21</title>
<g id="a_Node000021"><a xlink:title=" ">
<polygon fill="#e0e0e0" stroke="#999999" points="961.04,-210.12 888.79,-210.12 888.79,-189.38 961.04,-189.38 961.04,-210.12"/>
<text text-anchor="middle" x="924.92" y="-196.62" font-family="Helvetica,sans-Serif" font-size="10.00">string_view</text>
</a>
</g>
</g>
<!-- Node15&#45;&gt;Node21 -->
<g id="edge32_Node000015_Node000021" class="edge">
<title>Node15&#45;&gt;Node21</title>
<g id="a_edge32_Node000015_Node000021"><a xlink:title=" ">
<path fill="none" stroke="#63b8ff" d="M768.86,-252C801.05,-242.01 842.95,-228.8 879.92,-216.5 882.13,-215.77 884.39,-215 886.68,-214.22"/>
<polygon fill="#63b8ff" stroke="#63b8ff" points="887.61,-217.61 895.93,-211.04 885.33,-210.99 887.61,-217.61"/>
</a>
</g>
</g>
<!-- Node16&#45;&gt;Node2 -->
<g id="edge20_Node000016_Node000002" class="edge">
<title>Node16&#45;&gt;Node2</title>
<g id="a_edge20_Node000016_Node000002"><a xlink:title=" ">
<path fill="none" stroke="#63b8ff" d="M543.16,-185.71C499.77,-175.19 439.12,-160.47 396.36,-150.1"/>
<polygon fill="#63b8ff" stroke="#63b8ff" points="397.36,-146.74 386.82,-147.79 395.71,-153.55 397.36,-146.74"/>
</a>
</g>
</g>
<!-- Node16&#45;&gt;Node9 -->
<g id="edge23_Node000016_Node000009" class="edge">
<title>Node16&#45;&gt;Node9</title>
<g id="a_edge23_Node000016_Node000009"><a xlink:title=" ">
<path fill="none" stroke="#63b8ff" d="M600.25,-182.93C605.4,-153.6 611.51,-90.69 577.92,-56.75 569.11,-47.85 414.49,-28.71 325.57,-18.36"/>
<polygon fill="#63b8ff" stroke="#63b8ff" points="326.11,-14.9 315.78,-17.23 325.31,-21.85 326.11,-14.9"/>
</a>
</g>
</g>
<!-- Node16&#45;&gt;Node10 -->
<g id="edge21_Node000016_Node000010" class="edge">
<title>Node16&#45;&gt;Node10</title>
<g id="a_edge21_Node000016_Node000010"><a xlink:title=" ">
<path fill="none" stroke="#63b8ff" d="M593.43,-182.55C589.07,-166.07 579.99,-140.94 562.92,-126.25 554.28,-118.82 499.9,-103.28 454.2,-91.15"/>
<polygon fill="#63b8ff" stroke="#63b8ff" points="455.13,-87.78 444.57,-88.62 453.35,-94.55 455.13,-87.78"/>
</a>
</g>
</g>
<!-- Node16&#45;&gt;Node12 -->
<g id="edge25_Node000016_Node000012" class="edge">
<title>Node16&#45;&gt;Node12</title>
<g id="a_edge25_Node000016_Node000012"><a xlink:title=" ">
<path fill="none" stroke="#63b8ff" d="M611.31,-182.65C619.19,-172.97 628.44,-160.03 633.92,-147 650.07,-108.56 655.36,-59.56 657.08,-32.22"/>
<polygon fill="#63b8ff" stroke="#63b8ff" points="660.56,-32.67 657.58,-22.5 653.57,-32.31 660.56,-32.67"/>
</a>
</g>
</g>
<!-- Node16&#45;&gt;Node13 -->
<g id="edge22_Node000016_Node000013" class="edge">
<title>Node16&#45;&gt;Node13</title>
<g id="a_edge22_Node000016_Node000013"><a xlink:title=" ">
<path fill="none" stroke="#63b8ff" d="M569.32,-182.53C553.87,-173.45 534.7,-162.18 519.43,-153.21"/>
<polygon fill="#63b8ff" stroke="#63b8ff" points="521.27,-150.23 510.88,-148.18 517.73,-156.27 521.27,-150.23"/>
</a>
</g>
</g>
<!-- Node16&#45;&gt;Node17 -->
<g id="edge24_Node000016_Node000017" class="edge">
<title>Node16&#45;&gt;Node17</title>
<g id="a_edge24_Node000016_Node000017"><a xlink:title=" ">
<path fill="none" stroke="#63b8ff" d="M642.56,-182.53C673.21,-171.64 712.71,-157.6 739.32,-148.14"/>
<polygon fill="#63b8ff" stroke="#63b8ff" points="740.2,-151.55 748.45,-144.9 737.85,-144.95 740.2,-151.55"/>
</a>
</g>
</g>
<!-- Node16&#45;&gt;Node18 -->
<g id="edge26_Node000016_Node000018" class="edge">
<title>Node16&#45;&gt;Node18</title>
<g id="a_edge26_Node000016_Node000018"><a xlink:title=" ">
<path fill="none" stroke="#63b8ff" d="M626.64,-182.53C643.59,-173.27 664.71,-161.75 681.31,-152.69"/>
<polygon fill="#63b8ff" stroke="#63b8ff" points="682.55,-156 689.65,-148.14 679.19,-149.86 682.55,-156"/>
</a>
</g>
</g>
</g>
</svg>
