<?xml version="1.0" encoding="UTF-8" standalone="no"?>
<!DOCTYPE svg PUBLIC "-//W3C//DTD SVG 1.1//EN"
 "http://www.w3.org/Graphics/SVG/1.1/DTD/svg11.dtd">
<!-- Generated by graphviz version 12.2.1 (20241206.2353)
 -->
<!-- Title: include/prismspf/user_inputs/spatial_discretization.h Pages: 1 -->
<svg width="3184pt" height="307pt"
 viewBox="0.00 0.00 3184.25 306.75" xmlns="http://www.w3.org/2000/svg" xmlns:xlink="http://www.w3.org/1999/xlink">
<g id="graph0" class="graph" transform="scale(1 1) rotate(0) translate(4 302.75)">
<title>include/prismspf/user_inputs/spatial_discretization.h</title>
<!-- Node1 -->
<g id="Node000001" class="node">
<title>Node1</title>
<g id="a_Node000001"><a xlink:title=" ">
<polygon fill="#999999" stroke="#666666" points="845.88,-298.75 678.38,-298.75 678.38,-265.25 845.88,-265.25 845.88,-298.75"/>
<text text-anchor="start" x="686.38" y="-285.25" font-family="Helvetica,sans-Serif" font-size="10.00">include/prismspf/user</text>
<text text-anchor="middle" x="762.12" y="-272.5" font-family="Helvetica,sans-Serif" font-size="10.00">_inputs/spatial_discretization.h</text>
</a>
</g>
</g>
<!-- Node2 -->
<g id="Node000002" class="node">
<title>Node2</title>
<g id="a_Node000002"><a xlink:title=" ">
<polygon fill="#e0e0e0" stroke="#999999" points="126.25,-229.25 0,-229.25 0,-195.75 126.25,-195.75 126.25,-229.25"/>
<text text-anchor="start" x="8" y="-215.75" font-family="Helvetica,sans-Serif" font-size="10.00">deal.II/base/parameter</text>
<text text-anchor="middle" x="63.12" y="-203" font-family="Helvetica,sans-Serif" font-size="10.00">_handler.h</text>
</a>
</g>
</g>
<!-- Node1&#45;&gt;Node2 -->
<g id="edge1_Node000001_Node000002" class="edge">
<title>Node1&#45;&gt;Node2</title>
<g id="a_edge1_Node000001_Node000002"><a xlink:title=" ">
<path fill="none" stroke="#63b8ff" d="M678.05,-277.62C559.58,-272.06 336.67,-258.71 137.89,-229.55"/>
<polygon fill="#63b8ff" stroke="#63b8ff" points="138.55,-226.1 128.14,-228.1 137.52,-233.03 138.55,-226.1"/>
</a>
</g>
</g>
<!-- Node3 -->
<g id="Node000003" class="node">
<title>Node3</title>
<g id="a_Node000003"><a xlink:title=" ">
<polygon fill="#e0e0e0" stroke="#999999" points="245.88,-229.25 144.38,-229.25 144.38,-195.75 245.88,-195.75 245.88,-229.25"/>
<text text-anchor="start" x="152.38" y="-215.75" font-family="Helvetica,sans-Serif" font-size="10.00">deal.II/distributed</text>
<text text-anchor="middle" x="195.12" y="-203" font-family="Helvetica,sans-Serif" font-size="10.00">/tria.h</text>
</a>
</g>
</g>
<!-- Node1&#45;&gt;Node3 -->
<g id="edge2_Node000001_Node000003" class="edge">
<title>Node1&#45;&gt;Node3</title>
<g id="a_edge2_Node000001_Node000003"><a xlink:title=" ">
<path fill="none" stroke="#63b8ff" d="M678.13,-276.42C579.48,-270.15 410.83,-256.64 257.11,-229.43"/>
<polygon fill="#63b8ff" stroke="#63b8ff" points="258.02,-226.04 247.56,-227.71 256.78,-232.93 258.02,-226.04"/>
</a>
</g>
</g>
<!-- Node4 -->
<g id="Node000004" class="node">
<title>Node4</title>
<g id="a_Node000004"><a xlink:title=" ">
<polygon fill="#e0e0e0" stroke="#999999" points="414.25,-222.88 264,-222.88 264,-202.12 414.25,-202.12 414.25,-222.88"/>
<text text-anchor="middle" x="339.12" y="-209.38" font-family="Helvetica,sans-Serif" font-size="10.00">deal.II/grid/grid_generator.h</text>
</a>
</g>
</g>
<!-- Node1&#45;&gt;Node4 -->
<g id="edge3_Node000001_Node000004" class="edge">
<title>Node1&#45;&gt;Node4</title>
<g id="a_edge3_Node000001_Node000004"><a xlink:title=" ">
<path fill="none" stroke="#63b8ff" d="M678.06,-268.98C609.39,-258.96 509.84,-243.99 423.12,-229.25 416.03,-228.04 408.62,-226.73 401.25,-225.39"/>
<polygon fill="#63b8ff" stroke="#63b8ff" points="402.12,-221.99 391.65,-223.63 400.85,-228.88 402.12,-221.99"/>
</a>
</g>
</g>
<!-- Node5 -->
<g id="Node000005" class="node">
<title>Node5</title>
<g id="a_Node000005"><a xlink:title=" ">
<polygon fill="#e0e0e0" stroke="#999999" points="560,-222.88 432.25,-222.88 432.25,-202.12 560,-202.12 560,-222.88"/>
<text text-anchor="middle" x="496.12" y="-209.38" font-family="Helvetica,sans-Serif" font-size="10.00">deal.II/grid/grid_tools.h</text>
</a>
</g>
</g>
<!-- Node1&#45;&gt;Node5 -->
<g id="edge4_Node000001_Node000005" class="edge">
<title>Node1&#45;&gt;Node5</title>
<g id="a_edge4_Node000001_Node000005"><a xlink:title=" ">
<path fill="none" stroke="#63b8ff" d="M698.41,-264.83C651.71,-252.98 589.2,-237.12 546.09,-226.18"/>
<polygon fill="#63b8ff" stroke="#63b8ff" points="547.04,-222.81 536.49,-223.74 545.32,-229.59 547.04,-222.81"/>
</a>
</g>
</g>
<!-- Node6 -->
<g id="Node000006" class="node">
<title>Node6</title>
<g id="a_Node000006"><a xlink:title=" ">
<polygon fill="#e0e0e0" stroke="#999999" points="674.25,-222.88 578,-222.88 578,-202.12 674.25,-202.12 674.25,-222.88"/>
<text text-anchor="middle" x="626.12" y="-209.38" font-family="Helvetica,sans-Serif" font-size="10.00">deal.II/grid/tria.h</text>
</a>
</g>
</g>
<!-- Node1&#45;&gt;Node6 -->
<g id="edge5_Node000001_Node000006" class="edge">
<title>Node1&#45;&gt;Node6</title>
<g id="a_edge5_Node000001_Node000006"><a xlink:title=" ">
<path fill="none" stroke="#63b8ff" d="M729.55,-264.83C707.23,-253.75 677.85,-239.17 656.11,-228.38"/>
<polygon fill="#63b8ff" stroke="#63b8ff" points="657.68,-225.25 647.17,-223.94 654.57,-231.52 657.68,-225.25"/>
</a>
</g>
</g>
<!-- Node7 -->
<g id="Node000007" class="node">
<title>Node7</title>
<g id="a_Node000007"><a xlink:href="conditional__ostreams_8h.html" target="_top" xlink:title=" ">
<polygon fill="white" stroke="#666666" points="832,-229.25 692.25,-229.25 692.25,-195.75 832,-195.75 832,-229.25"/>
<text text-anchor="start" x="700.25" y="-215.75" font-family="Helvetica,sans-Serif" font-size="10.00">prismspf/core/conditional</text>
<text text-anchor="middle" x="762.12" y="-203" font-family="Helvetica,sans-Serif" font-size="10.00">_ostreams.h</text>
</a>
</g>
</g>
<!-- Node1&#45;&gt;Node7 -->
<g id="edge6_Node000001_Node000007" class="edge">
<title>Node1&#45;&gt;Node7</title>
<g id="a_edge6_Node000001_Node000007"><a xlink:title=" ">
<path fill="none" stroke="#63b8ff" d="M762.12,-265C762.12,-257.77 762.12,-249.03 762.12,-240.81"/>
<polygon fill="#63b8ff" stroke="#63b8ff" points="765.63,-240.9 762.13,-230.9 758.63,-240.9 765.63,-240.9"/>
</a>
</g>
</g>
<!-- Node9 -->
<g id="Node000009" class="node">
<title>Node9</title>
<g id="a_Node000009"><a xlink:title=" ">
<polygon fill="#e0e0e0" stroke="#999999" points="1012.12,-20.75 912.12,-20.75 912.12,0 1012.12,0 1012.12,-20.75"/>
<text text-anchor="middle" x="962.12" y="-7.25" font-family="Helvetica,sans-Serif" font-size="10.00">prismspf/config.h</text>
</a>
</g>
</g>
<!-- Node1&#45;&gt;Node9 -->
<g id="edge49_Node000001_Node000009" class="edge">
<title>Node1&#45;&gt;Node9</title>
<g id="a_edge49_Node000001_Node000009"><a xlink:title=" ">
<path fill="none" stroke="#63b8ff" d="M795.8,-264.8C811.23,-256.02 828.8,-243.95 841.12,-229.25 894.74,-165.34 867.74,-125.41 915.12,-56.75 922.3,-46.36 932.12,-36.42 940.93,-28.51"/>
<polygon fill="#63b8ff" stroke="#63b8ff" points="943.14,-31.23 948.45,-22.06 938.58,-25.92 943.14,-31.23"/>
</a>
</g>
</g>
<!-- Node10 -->
<g id="Node000010" class="node">
<title>Node10</title>
<g id="a_Node000010"><a xlink:href="exceptions_8h.html" target="_top" xlink:title=" ">
<polygon fill="white" stroke="#666666" points="1036.12,-222.88 888.12,-222.88 888.12,-202.12 1036.12,-202.12 1036.12,-222.88"/>
<text text-anchor="middle" x="962.12" y="-209.38" font-family="Helvetica,sans-Serif" font-size="10.00">prismspf/core/exceptions.h</text>
</a>
</g>
</g>
<!-- Node1&#45;&gt;Node10 -->
<g id="edge9_Node000001_Node000010" class="edge">
<title>Node1&#45;&gt;Node10</title>
<g id="a_edge9_Node000001_Node000010"><a xlink:title=" ">
<path fill="none" stroke="#63b8ff" d="M810.03,-264.83C844.25,-253.28 889.75,-237.93 922.05,-227.03"/>
<polygon fill="#63b8ff" stroke="#63b8ff" points="923.09,-230.37 931.45,-223.85 920.85,-223.74 923.09,-230.37"/>
</a>
</g>
</g>
<!-- Node12 -->
<g id="Node000012" class="node">
<title>Node12</title>
<g id="a_Node000012"><a xlink:href="types_8h.html" target="_top" xlink:title=" ">
<polygon fill="white" stroke="#666666" points="1130,-153.38 1008.25,-153.38 1008.25,-132.62 1130,-132.62 1130,-153.38"/>
<text text-anchor="middle" x="1069.12" y="-139.88" font-family="Helvetica,sans-Serif" font-size="10.00">prismspf/core/types.h</text>
</a>
</g>
</g>
<!-- Node1&#45;&gt;Node12 -->
<g id="edge27_Node000001_Node000012" class="edge">
<title>Node1&#45;&gt;Node12</title>
<g id="a_edge27_Node000001_Node000012"><a xlink:title=" ">
<path fill="none" stroke="#63b8ff" d="M846.15,-275.36C918.8,-268.79 1016.5,-255.31 1045.12,-229.25 1062.94,-213.03 1067.94,-184.73 1069.13,-165.21"/>
<polygon fill="#63b8ff" stroke="#63b8ff" points="1072.63,-165.48 1069.42,-155.39 1065.63,-165.28 1072.63,-165.48"/>
</a>
</g>
</g>
<!-- Node18 -->
<g id="Node000018" class="node">
<title>Node18</title>
<g id="a_Node000018"><a xlink:href="grid__refiner__criterion_8h.html" target="_top" xlink:title=" ">
<polygon fill="white" stroke="#666666" points="1312.88,-229.25 1205.38,-229.25 1205.38,-195.75 1312.88,-195.75 1312.88,-229.25"/>
<text text-anchor="start" x="1213.38" y="-215.75" font-family="Helvetica,sans-Serif" font-size="10.00">prismspf/core/grid</text>
<text text-anchor="middle" x="1259.12" y="-203" font-family="Helvetica,sans-Serif" font-size="10.00">_refiner_criterion.h</text>
</a>
</g>
</g>
<!-- Node1&#45;&gt;Node18 -->
<g id="edge20_Node000001_Node000018" class="edge">
<title>Node1&#45;&gt;Node18</title>
<g id="a_edge20_Node000001_Node000018"><a xlink:title=" ">
<path fill="none" stroke="#63b8ff" d="M846.15,-269.59C944.27,-256.26 1104.46,-234.51 1193.76,-222.38"/>
<polygon fill="#63b8ff" stroke="#63b8ff" points="1194.14,-225.86 1203.58,-221.04 1193.2,-218.92 1194.14,-225.86"/>
</a>
</g>
</g>
<!-- Node20 -->
<g id="Node000020" class="node">
<title>Node20</title>
<g id="a_Node000020"><a xlink:href="utilities_8h.html" target="_top" xlink:title=" ">
<polygon fill="white" stroke="#666666" points="2142.38,-159.75 2043.88,-159.75 2043.88,-126.25 2142.38,-126.25 2142.38,-159.75"/>
<text text-anchor="start" x="2051.88" y="-146.25" font-family="Helvetica,sans-Serif" font-size="10.00">prismspf/utilities</text>
<text text-anchor="middle" x="2093.12" y="-133.5" font-family="Helvetica,sans-Serif" font-size="10.00">/utilities.h</text>
</a>
</g>
</g>
<!-- Node1&#45;&gt;Node20 -->
<g id="edge28_Node000001_Node000020" class="edge">
<title>Node1&#45;&gt;Node20</title>
<g id="a_edge28_Node000001_Node000020"><a xlink:title=" ">
<path fill="none" stroke="#63b8ff" d="M846.13,-273.71C955.71,-264.09 1153.35,-246.38 1322.12,-229.25 1586.79,-202.39 1902.07,-166.22 2032.27,-151.1"/>
<polygon fill="#63b8ff" stroke="#63b8ff" points="2032.52,-154.6 2042.04,-149.97 2031.71,-147.65 2032.52,-154.6"/>
</a>
</g>
</g>
<!-- Node8 -->
<g id="Node000008" class="node">
<title>Node8</title>
<g id="a_Node000008"><a xlink:title=" ">
<polygon fill="#e0e0e0" stroke="#999999" points="793.75,-159.75 664.5,-159.75 664.5,-126.25 793.75,-126.25 793.75,-159.75"/>
<text text-anchor="start" x="672.5" y="-146.25" font-family="Helvetica,sans-Serif" font-size="10.00">deal.II/base/conditional</text>
<text text-anchor="middle" x="729.12" y="-133.5" font-family="Helvetica,sans-Serif" font-size="10.00">_ostream.h</text>
</a>
</g>
</g>
<!-- Node7&#45;&gt;Node8 -->
<g id="edge7_Node000007_Node000008" class="edge">
<title>Node7&#45;&gt;Node8</title>
<g id="a_edge7_Node000007_Node000008"><a xlink:title=" ">
<path fill="none" stroke="#63b8ff" d="M754.3,-195.5C750.61,-187.94 746.09,-178.71 741.92,-170.16"/>
<polygon fill="#63b8ff" stroke="#63b8ff" points="745.09,-168.69 737.55,-161.24 738.8,-171.76 745.09,-168.69"/>
</a>
</g>
</g>
<!-- Node7&#45;&gt;Node9 -->
<g id="edge8_Node000007_Node000009" class="edge">
<title>Node7&#45;&gt;Node9</title>
<g id="a_edge8_Node000007_Node000009"><a xlink:title=" ">
<path fill="none" stroke="#63b8ff" d="M776.64,-195.56C785.1,-185.73 795.56,-172.59 803.12,-159.75 828.32,-117.02 810.65,-91.43 846.12,-56.75 861.52,-41.7 882.49,-31.49 902.36,-24.64"/>
<polygon fill="#63b8ff" stroke="#63b8ff" points="903.34,-28 911.81,-21.62 901.22,-21.33 903.34,-28"/>
</a>
</g>
</g>
<!-- Node10&#45;&gt;Node9 -->
<g id="edge18_Node000010_Node000009" class="edge">
<title>Node10&#45;&gt;Node9</title>
<g id="a_edge18_Node000010_Node000009"><a xlink:title=" ">
<path fill="none" stroke="#63b8ff" d="M949.87,-201.94C938.92,-192.56 923.63,-177.15 917.12,-159.75 900.08,-114.17 929.55,-58.96 948.34,-30.46"/>
<polygon fill="#63b8ff" stroke="#63b8ff" points="951.04,-32.71 953.82,-22.49 945.27,-28.75 951.04,-32.71"/>
</a>
</g>
</g>
<!-- Node11 -->
<g id="Node000011" class="node">
<title>Node11</title>
<g id="a_Node000011"><a xlink:title=" ">
<polygon fill="#e0e0e0" stroke="#999999" points="1391.88,-83.88 1254.38,-83.88 1254.38,-63.12 1391.88,-63.12 1391.88,-83.88"/>
<text text-anchor="middle" x="1323.12" y="-70.38" font-family="Helvetica,sans-Serif" font-size="10.00">deal.II/base/exceptions.h</text>
</a>
</g>
</g>
<!-- Node10&#45;&gt;Node11 -->
<g id="edge10_Node000010_Node000011" class="edge">
<title>Node10&#45;&gt;Node11</title>
<g id="a_edge10_Node000010_Node000011"><a xlink:title=" ">
<path fill="none" stroke="#63b8ff" d="M1002.05,-201.65C1038.29,-192.29 1092.97,-177.08 1139.12,-159.75 1195.43,-138.61 1258.52,-107.72 1294.27,-89.51"/>
<polygon fill="#63b8ff" stroke="#63b8ff" points="1295.81,-92.66 1303.11,-84.98 1292.61,-86.43 1295.81,-92.66"/>
</a>
</g>
</g>
<!-- Node10&#45;&gt;Node12 -->
<g id="edge11_Node000010_Node000012" class="edge">
<title>Node10&#45;&gt;Node12</title>
<g id="a_edge11_Node000010_Node000012"><a xlink:title=" ">
<path fill="none" stroke="#63b8ff" d="M977.46,-201.83C994.76,-190.91 1023.17,-172.99 1043.79,-159.98"/>
<polygon fill="#63b8ff" stroke="#63b8ff" points="1045.6,-162.98 1052.19,-154.68 1041.87,-157.06 1045.6,-162.98"/>
</a>
</g>
</g>
<!-- Node17 -->
<g id="Node000017" class="node">
<title>Node17</title>
<g id="a_Node000017"><a xlink:title=" ">
<polygon fill="#e0e0e0" stroke="#999999" points="990.12,-153.38 926.12,-153.38 926.12,-132.62 990.12,-132.62 990.12,-153.38"/>
<text text-anchor="middle" x="958.12" y="-139.88" font-family="Helvetica,sans-Serif" font-size="10.00">exception</text>
</a>
</g>
</g>
<!-- Node10&#45;&gt;Node17 -->
<g id="edge19_Node000010_Node000017" class="edge">
<title>Node10&#45;&gt;Node17</title>
<g id="a_edge19_Node000010_Node000017"><a xlink:title=" ">
<path fill="none" stroke="#63b8ff" d="M961.55,-201.83C960.98,-192.21 960.09,-177.13 959.36,-164.79"/>
<polygon fill="#63b8ff" stroke="#63b8ff" points="962.87,-164.94 958.79,-155.16 955.88,-165.35 962.87,-164.94"/>
</a>
</g>
</g>
<!-- Node12&#45;&gt;Node9 -->
<g id="edge17_Node000012_Node000009" class="edge">
<title>Node12&#45;&gt;Node9</title>
<g id="a_edge17_Node000012_Node000009"><a xlink:title=" ">
<path fill="none" stroke="#63b8ff" d="M1022.3,-132.15C999.39,-124.72 973.84,-111.94 960.12,-90.25 949.17,-72.92 951.71,-48.89 955.71,-31.92"/>
<polygon fill="#63b8ff" stroke="#63b8ff" points="959.03,-33.04 958.3,-22.47 952.28,-31.19 959.03,-33.04"/>
</a>
</g>
</g>
<!-- Node13 -->
<g id="Node000013" class="node">
<title>Node13</title>
<g id="a_Node000013"><a xlink:title=" ">
<polygon fill="#e0e0e0" stroke="#999999" points="1236.25,-90.25 1128,-90.25 1128,-56.75 1236.25,-56.75 1236.25,-90.25"/>
<text text-anchor="start" x="1136" y="-76.75" font-family="Helvetica,sans-Serif" font-size="10.00">deal.II/matrix_free</text>
<text text-anchor="middle" x="1182.12" y="-64" font-family="Helvetica,sans-Serif" font-size="10.00">/evaluation_flags.h</text>
</a>
</g>
</g>
<!-- Node12&#45;&gt;Node13 -->
<g id="edge12_Node000012_Node000013" class="edge">
<title>Node12&#45;&gt;Node13</title>
<g id="a_edge12_Node000012_Node000013"><a xlink:title=" ">
<path fill="none" stroke="#63b8ff" d="M1085.32,-132.33C1100.87,-123.04 1124.94,-108.66 1145.18,-96.57"/>
<polygon fill="#63b8ff" stroke="#63b8ff" points="1146.97,-99.58 1153.76,-91.45 1143.38,-93.57 1146.97,-99.58"/>
</a>
</g>
</g>
<!-- Node14 -->
<g id="Node000014" class="node">
<title>Node14</title>
<g id="a_Node000014"><a xlink:href="type__enums_8h.html" target="_top" xlink:title=" ">
<polygon fill="white" stroke="#666666" points="1109.88,-90.25 1002.38,-90.25 1002.38,-56.75 1109.88,-56.75 1109.88,-90.25"/>
<text text-anchor="start" x="1010.38" y="-76.75" font-family="Helvetica,sans-Serif" font-size="10.00">prismspf/core/type</text>
<text text-anchor="middle" x="1056.12" y="-64" font-family="Helvetica,sans-Serif" font-size="10.00">_enums.h</text>
</a>
</g>
</g>
<!-- Node12&#45;&gt;Node14 -->
<g id="edge13_Node000012_Node000014" class="edge">
<title>Node12&#45;&gt;Node14</title>
<g id="a_edge13_Node000012_Node000014"><a xlink:title=" ">
<path fill="none" stroke="#63b8ff" d="M1067.26,-132.33C1065.73,-124.35 1063.47,-112.63 1061.39,-101.82"/>
<polygon fill="#63b8ff" stroke="#63b8ff" points="1064.85,-101.31 1059.53,-92.16 1057.98,-102.64 1064.85,-101.31"/>
</a>
</g>
</g>
<!-- Node14&#45;&gt;Node9 -->
<g id="edge14_Node000014_Node000009" class="edge">
<title>Node14&#45;&gt;Node9</title>
<g id="a_edge14_Node000014_Node000009"><a xlink:title=" ">
<path fill="none" stroke="#63b8ff" d="M1031.43,-56.44C1017.6,-47.45 1000.41,-36.27 986.61,-27.3"/>
<polygon fill="#63b8ff" stroke="#63b8ff" points="988.82,-24.56 978.53,-22.04 985,-30.43 988.82,-24.56"/>
</a>
</g>
</g>
<!-- Node15 -->
<g id="Node000015" class="node">
<title>Node15</title>
<g id="a_Node000015"><a xlink:title=" ">
<polygon fill="#e0e0e0" stroke="#999999" points="1092.62,-20.75 1043.62,-20.75 1043.62,0 1092.62,0 1092.62,-20.75"/>
<text text-anchor="middle" x="1068.12" y="-7.25" font-family="Helvetica,sans-Serif" font-size="10.00">cstdint</text>
</a>
</g>
</g>
<!-- Node14&#45;&gt;Node15 -->
<g id="edge15_Node000014_Node000015" class="edge">
<title>Node14&#45;&gt;Node15</title>
<g id="a_edge15_Node000014_Node000015"><a xlink:title=" ">
<path fill="none" stroke="#63b8ff" d="M1059.28,-56.44C1060.72,-49.1 1062.44,-40.32 1063.99,-32.46"/>
<polygon fill="#63b8ff" stroke="#63b8ff" points="1067.41,-33.19 1065.9,-22.7 1060.54,-31.84 1067.41,-33.19"/>
</a>
</g>
</g>
<!-- Node16 -->
<g id="Node000016" class="node">
<title>Node16</title>
<g id="a_Node000016"><a xlink:title=" ">
<polygon fill="#e0e0e0" stroke="#999999" points="1518,-20.75 1474.25,-20.75 1474.25,0 1518,0 1518,-20.75"/>
<text text-anchor="middle" x="1496.12" y="-7.25" font-family="Helvetica,sans-Serif" font-size="10.00">string</text>
</a>
</g>
</g>
<!-- Node14&#45;&gt;Node16 -->
<g id="edge16_Node000014_Node000016" class="edge">
<title>Node14&#45;&gt;Node16</title>
<g id="a_edge16_Node000014_Node000016"><a xlink:title=" ">
<path fill="none" stroke="#63b8ff" d="M1110.33,-58.49C1113.3,-57.87 1116.24,-57.28 1119.12,-56.75 1244.85,-33.56 1396.44,-19.47 1462.56,-13.99"/>
<polygon fill="#63b8ff" stroke="#63b8ff" points="1462.69,-17.5 1472.37,-13.2 1462.12,-10.52 1462.69,-17.5"/>
</a>
</g>
</g>
<!-- Node18&#45;&gt;Node9 -->
<g id="edge23_Node000018_Node000009" class="edge">
<title>Node18&#45;&gt;Node9</title>
<g id="a_edge23_Node000018_Node000009"><a xlink:title=" ">
<path fill="none" stroke="#63b8ff" d="M1241.36,-195.57C1219.05,-176.38 1178.85,-144.46 1139.12,-126.25 1078.37,-98.41 1043.41,-134.27 993.12,-90.25 976.21,-75.44 968.44,-50.2 964.93,-32.27"/>
<polygon fill="#63b8ff" stroke="#63b8ff" points="968.4,-31.79 963.33,-22.49 961.49,-32.92 968.4,-31.79"/>
</a>
</g>
</g>
<!-- Node18&#45;&gt;Node11 -->
<g id="edge21_Node000018_Node000011" class="edge">
<title>Node18&#45;&gt;Node11</title>
<g id="a_edge21_Node000018_Node000011"><a xlink:title=" ">
<path fill="none" stroke="#63b8ff" d="M1269.63,-195.58C1276,-185.54 1284.06,-172.17 1290.12,-159.75 1300.65,-138.2 1310.25,-112.39 1316.35,-94.85"/>
<polygon fill="#63b8ff" stroke="#63b8ff" points="1319.58,-96.21 1319.49,-85.62 1312.96,-93.96 1319.58,-96.21"/>
</a>
</g>
</g>
<!-- Node18&#45;&gt;Node12 -->
<g id="edge22_Node000018_Node000012" class="edge">
<title>Node18&#45;&gt;Node12</title>
<g id="a_edge22_Node000018_Node000012"><a xlink:title=" ">
<path fill="none" stroke="#63b8ff" d="M1213.62,-195.33C1181.25,-183.83 1138.25,-168.56 1107.6,-157.67"/>
<polygon fill="#63b8ff" stroke="#63b8ff" points="1108.93,-154.43 1098.33,-154.38 1106.58,-161.02 1108.93,-154.43"/>
</a>
</g>
</g>
<!-- Node18&#45;&gt;Node15 -->
<g id="edge25_Node000018_Node000015" class="edge">
<title>Node18&#45;&gt;Node15</title>
<g id="a_edge25_Node000018_Node000015"><a xlink:title=" ">
<path fill="none" stroke="#63b8ff" d="M1293.84,-195.25C1349.01,-167.33 1446.09,-108.25 1401.12,-56.75 1362.89,-12.96 1182.41,-9.85 1104.3,-10.62"/>
<polygon fill="#63b8ff" stroke="#63b8ff" points="1104.58,-7.12 1094.63,-10.75 1104.67,-14.12 1104.58,-7.12"/>
</a>
</g>
</g>
<!-- Node18&#45;&gt;Node16 -->
<g id="edge26_Node000018_Node000016" class="edge">
<title>Node18&#45;&gt;Node16</title>
<g id="a_edge26_Node000018_Node000016"><a xlink:title=" ">
<path fill="none" stroke="#63b8ff" d="M1307.76,-195.34C1338.9,-184.39 1375.86,-170.1 1389.12,-159.75 1435.29,-123.74 1470.46,-62.64 1486.52,-31.27"/>
<polygon fill="#63b8ff" stroke="#63b8ff" points="1489.56,-33.02 1490.89,-22.51 1483.29,-29.9 1489.56,-33.02"/>
</a>
</g>
</g>
<!-- Node19 -->
<g id="Node000019" class="node">
<title>Node19</title>
<g id="a_Node000019"><a xlink:title=" ">
<polygon fill="#e0e0e0" stroke="#999999" points="1280.62,-153.38 1237.62,-153.38 1237.62,-132.62 1280.62,-132.62 1280.62,-153.38"/>
<text text-anchor="middle" x="1259.12" y="-139.88" font-family="Helvetica,sans-Serif" font-size="10.00">cfloat</text>
</a>
</g>
</g>
<!-- Node18&#45;&gt;Node19 -->
<g id="edge24_Node000018_Node000019" class="edge">
<title>Node18&#45;&gt;Node19</title>
<g id="a_edge24_Node000018_Node000019"><a xlink:title=" ">
<path fill="none" stroke="#63b8ff" d="M1259.12,-195.5C1259.12,-186.4 1259.12,-174.89 1259.12,-165.07"/>
<polygon fill="#63b8ff" stroke="#63b8ff" points="1262.63,-165.34 1259.13,-155.34 1255.63,-165.34 1262.63,-165.34"/>
</a>
</g>
</g>
<!-- Node20&#45;&gt;Node9 -->
<g id="edge45_Node000020_Node000009" class="edge">
<title>Node20&#45;&gt;Node9</title>
<g id="a_edge45_Node000020_Node000009"><a xlink:title=" ">
<path fill="none" stroke="#63b8ff" d="M2043.58,-140.84C1943.07,-137.76 1708.39,-126.93 1515.12,-90.25 1463.24,-80.4 1452.96,-66.82 1401.12,-56.75 1240.67,-25.57 1197.54,-39.16 1035.12,-20.75 1031.33,-20.32 1027.42,-19.86 1023.48,-19.39"/>
<polygon fill="#63b8ff" stroke="#63b8ff" points="1024.22,-15.95 1013.87,-18.21 1023.37,-22.9 1024.22,-15.95"/>
</a>
</g>
</g>
<!-- Node20&#45;&gt;Node11 -->
<g id="edge30_Node000020_Node000011" class="edge">
<title>Node20&#45;&gt;Node11</title>
<g id="a_edge30_Node000020_Node000011"><a xlink:title=" ">
<path fill="none" stroke="#63b8ff" d="M2043.78,-140.19C1930.62,-135.61 1643.87,-121.66 1406.12,-90.25 1398.03,-89.18 1389.53,-87.83 1381.18,-86.37"/>
<polygon fill="#63b8ff" stroke="#63b8ff" points="1381.9,-82.95 1371.43,-84.61 1380.65,-89.83 1381.9,-82.95"/>
</a>
</g>
</g>
<!-- Node20&#45;&gt;Node13 -->
<g id="edge38_Node000020_Node000013" class="edge">
<title>Node20&#45;&gt;Node13</title>
<g id="a_edge38_Node000020_Node000013"><a xlink:title=" ">
<path fill="none" stroke="#63b8ff" d="M2043.56,-142.15C1914.02,-141.86 1554.7,-136.73 1247.98,-90.51"/>
<polygon fill="#63b8ff" stroke="#63b8ff" points="1248.55,-87.06 1238.13,-89.01 1247.49,-93.98 1248.55,-87.06"/>
</a>
</g>
</g>
<!-- Node20&#45;&gt;Node16 -->
<g id="edge46_Node000020_Node000016" class="edge">
<title>Node20&#45;&gt;Node16</title>
<g id="a_edge46_Node000020_Node000016"><a xlink:title=" ">
<path fill="none" stroke="#63b8ff" d="M2043.67,-139.73C1945.6,-134.63 1730.2,-120.3 1663.12,-90.25 1642.58,-81.05 1644.55,-68.14 1625.12,-56.75 1594.66,-38.89 1556.05,-26.46 1529.04,-19.19"/>
<polygon fill="#63b8ff" stroke="#63b8ff" points="1530.25,-15.89 1519.7,-16.76 1528.5,-22.66 1530.25,-15.89"/>
</a>
</g>
</g>
<!-- Node21 -->
<g id="Node000021" class="node">
<title>Node21</title>
<g id="a_Node000021"><a xlink:title=" ">
<polygon fill="#e0e0e0" stroke="#999999" points="1785.88,-83.88 1672.38,-83.88 1672.38,-63.12 1785.88,-63.12 1785.88,-83.88"/>
<text text-anchor="middle" x="1729.12" y="-70.38" font-family="Helvetica,sans-Serif" font-size="10.00">deal.II/base/config.h</text>
</a>
</g>
</g>
<!-- Node20&#45;&gt;Node21 -->
<g id="edge29_Node000020_Node000021" class="edge">
<title>Node20&#45;&gt;Node21</title>
<g id="a_edge29_Node000020_Node000021"><a xlink:title=" ">
<path fill="none" stroke="#63b8ff" d="M2043.38,-134.33C1984.07,-124.97 1882.04,-108.15 1795.12,-90.25 1789.99,-89.19 1784.64,-88.03 1779.31,-86.82"/>
<polygon fill="#63b8ff" stroke="#63b8ff" points="1780.48,-83.5 1769.95,-84.66 1778.9,-90.32 1780.48,-83.5"/>
</a>
</g>
</g>
<!-- Node22 -->
<g id="Node000022" class="node">
<title>Node22</title>
<g id="a_Node000022"><a xlink:title=" ">
<polygon fill="#e0e0e0" stroke="#999999" points="1938,-83.88 1804.25,-83.88 1804.25,-63.12 1938,-63.12 1938,-83.88"/>
<text text-anchor="middle" x="1871.12" y="-70.38" font-family="Helvetica,sans-Serif" font-size="10.00">deal.II/base/logstream.h</text>
</a>
</g>
</g>
<!-- Node20&#45;&gt;Node22 -->
<g id="edge31_Node000020_Node000022" class="edge">
<title>Node20&#45;&gt;Node22</title>
<g id="a_edge31_Node000020_Node000022"><a xlink:title=" ">
<path fill="none" stroke="#63b8ff" d="M2043.58,-126.94C2004.78,-115.14 1951.36,-98.9 1914.3,-87.63"/>
<polygon fill="#63b8ff" stroke="#63b8ff" points="1915.39,-84.3 1904.81,-84.74 1913.35,-91 1915.39,-84.3"/>
</a>
</g>
</g>
<!-- Node23 -->
<g id="Node000023" class="node">
<title>Node23</title>
<g id="a_Node000023"><a xlink:title=" ">
<polygon fill="#e0e0e0" stroke="#999999" points="2213.62,-83.88 2110.62,-83.88 2110.62,-63.12 2213.62,-63.12 2213.62,-83.88"/>
<text text-anchor="middle" x="2162.12" y="-70.38" font-family="Helvetica,sans-Serif" font-size="10.00">deal.II/base/mpi.h</text>
</a>
</g>
</g>
<!-- Node20&#45;&gt;Node23 -->
<g id="edge32_Node000020_Node000023" class="edge">
<title>Node20&#45;&gt;Node23</title>
<g id="a_edge32_Node000020_Node000023"><a xlink:title=" ">
<path fill="none" stroke="#63b8ff" d="M2109.48,-126C2119.81,-115.89 2133.19,-102.81 2143.87,-92.36"/>
<polygon fill="#63b8ff" stroke="#63b8ff" points="2146.3,-94.88 2151,-85.38 2141.41,-89.87 2146.3,-94.88"/>
</a>
</g>
</g>
<!-- Node24 -->
<g id="Node000024" class="node">
<title>Node24</title>
<g id="a_Node000024"><a xlink:title=" ">
<polygon fill="#e0e0e0" stroke="#999999" points="2340.62,-83.88 2231.62,-83.88 2231.62,-63.12 2340.62,-63.12 2340.62,-83.88"/>
<text text-anchor="middle" x="2286.12" y="-70.38" font-family="Helvetica,sans-Serif" font-size="10.00">deal.II/base/point.h</text>
</a>
</g>
</g>
<!-- Node20&#45;&gt;Node24 -->
<g id="edge33_Node000020_Node000024" class="edge">
<title>Node20&#45;&gt;Node24</title>
<g id="a_edge33_Node000020_Node000024"><a xlink:title=" ">
<path fill="none" stroke="#63b8ff" d="M2139.35,-125.83C2172.23,-114.33 2215.9,-99.06 2247.04,-88.17"/>
<polygon fill="#63b8ff" stroke="#63b8ff" points="2248.19,-91.47 2256.48,-84.87 2245.88,-84.87 2248.19,-91.47"/>
</a>
</g>
</g>
<!-- Node25 -->
<g id="Node000025" class="node">
<title>Node25</title>
<g id="a_Node000025"><a xlink:title=" ">
<polygon fill="#e0e0e0" stroke="#999999" points="2473.25,-83.88 2359,-83.88 2359,-63.12 2473.25,-63.12 2473.25,-83.88"/>
<text text-anchor="middle" x="2416.12" y="-70.38" font-family="Helvetica,sans-Serif" font-size="10.00">deal.II/base/tensor.h</text>
</a>
</g>
</g>
<!-- Node20&#45;&gt;Node25 -->
<g id="edge34_Node000020_Node000025" class="edge">
<title>Node20&#45;&gt;Node25</title>
<g id="a_edge34_Node000020_Node000025"><a xlink:title=" ">
<path fill="none" stroke="#63b8ff" d="M2142.5,-132.6C2194.33,-122.6 2278.11,-106.09 2350.12,-90.25 2354.98,-89.18 2360.03,-88.04 2365.07,-86.87"/>
<polygon fill="#63b8ff" stroke="#63b8ff" points="2365.63,-90.34 2374.57,-84.65 2364.03,-83.52 2365.63,-90.34"/>
</a>
</g>
</g>
<!-- Node26 -->
<g id="Node000026" class="node">
<title>Node26</title>
<g id="a_Node000026"><a xlink:title=" ">
<polygon fill="#e0e0e0" stroke="#999999" points="2602.75,-83.88 2491.5,-83.88 2491.5,-63.12 2602.75,-63.12 2602.75,-83.88"/>
<text text-anchor="middle" x="2547.12" y="-70.38" font-family="Helvetica,sans-Serif" font-size="10.00">deal.II/base/types.h</text>
</a>
</g>
</g>
<!-- Node20&#45;&gt;Node26 -->
<g id="edge35_Node000020_Node000026" class="edge">
<title>Node20&#45;&gt;Node26</title>
<g id="a_edge35_Node000020_Node000026"><a xlink:title=" ">
<path fill="none" stroke="#63b8ff" d="M2142.82,-137.09C2217.04,-129.36 2361.08,-112.9 2482.12,-90.25 2487.41,-89.26 2492.91,-88.11 2498.38,-86.9"/>
<polygon fill="#63b8ff" stroke="#63b8ff" points="2499.03,-90.34 2507.99,-84.68 2497.46,-83.52 2499.03,-90.34"/>
</a>
</g>
</g>
<!-- Node27 -->
<g id="Node000027" class="node">
<title>Node27</title>
<g id="a_Node000027"><a xlink:title=" ">
<polygon fill="#e0e0e0" stroke="#999999" points="2741.62,-83.88 2620.62,-83.88 2620.62,-63.12 2741.62,-63.12 2741.62,-83.88"/>
<text text-anchor="middle" x="2681.12" y="-70.38" font-family="Helvetica,sans-Serif" font-size="10.00">deal.II/base/utilities.h</text>
</a>
</g>
</g>
<!-- Node20&#45;&gt;Node27 -->
<g id="edge36_Node000020_Node000027" class="edge">
<title>Node20&#45;&gt;Node27</title>
<g id="a_edge36_Node000020_Node000027"><a xlink:title=" ">
<path fill="none" stroke="#63b8ff" d="M2142.77,-139.12C2235.47,-133.29 2440.99,-118.2 2612.12,-90.25 2618.19,-89.26 2624.52,-88.06 2630.77,-86.76"/>
<polygon fill="#63b8ff" stroke="#63b8ff" points="2631.37,-90.21 2640.41,-84.67 2629.89,-83.37 2631.37,-90.21"/>
</a>
</g>
</g>
<!-- Node28 -->
<g id="Node000028" class="node">
<title>Node28</title>
<g id="a_Node000028"><a xlink:title=" ">
<polygon fill="#e0e0e0" stroke="#999999" points="2528.12,-20.75 2380.12,-20.75 2380.12,0 2528.12,0 2528.12,-20.75"/>
<text text-anchor="middle" x="2454.12" y="-7.25" font-family="Helvetica,sans-Serif" font-size="10.00">deal.II/base/vectorization.h</text>
</a>
</g>
</g>
<!-- Node20&#45;&gt;Node28 -->
<g id="edge37_Node000020_Node000028" class="edge">
<title>Node20&#45;&gt;Node28</title>
<g id="a_edge37_Node000020_Node000028"><a xlink:title=" ">
<path fill="none" stroke="#63b8ff" d="M2142.65,-141.88C2288.7,-141.02 2710.04,-134.69 2751.12,-90.25 2761.23,-79.32 2760.83,-68.05 2751.12,-56.75 2724.28,-25.49 2617.46,-15.53 2539.6,-12.49"/>
<polygon fill="#63b8ff" stroke="#63b8ff" points="2539.97,-9 2529.85,-12.14 2539.72,-16 2539.97,-9"/>
</a>
</g>
</g>
<!-- Node29 -->
<g id="Node000029" class="node">
<title>Node29</title>
<g id="a_Node000029"><a xlink:title=" ">
<polygon fill="#e0e0e0" stroke="#999999" points="2943.62,-83.88 2798.62,-83.88 2798.62,-63.12 2943.62,-63.12 2943.62,-83.88"/>
<text text-anchor="middle" x="2871.12" y="-70.38" font-family="Helvetica,sans-Serif" font-size="10.00">boost/range/algorithm.hpp</text>
</a>
</g>
</g>
<!-- Node20&#45;&gt;Node29 -->
<g id="edge39_Node000020_Node000029" class="edge">
<title>Node20&#45;&gt;Node29</title>
<g id="a_edge39_Node000020_Node000029"><a xlink:title=" ">
<path fill="none" stroke="#63b8ff" d="M2142.74,-140.06C2256.52,-135.23 2544.86,-120.78 2784.12,-90.25 2792.8,-89.14 2801.92,-87.75 2810.85,-86.25"/>
<polygon fill="#63b8ff" stroke="#63b8ff" points="2811.29,-89.73 2820.54,-84.57 2810.09,-82.83 2811.29,-89.73"/>
</a>
</g>
</g>
<!-- Node30 -->
<g id="Node000030" class="node">
<title>Node30</title>
<g id="a_Node000030"><a xlink:title=" ">
<polygon fill="#e0e0e0" stroke="#999999" points="3086.12,-90.25 2962.12,-90.25 2962.12,-56.75 3086.12,-56.75 3086.12,-90.25"/>
<text text-anchor="start" x="2970.12" y="-76.75" font-family="Helvetica,sans-Serif" font-size="10.00">boost/range/algorithm</text>
<text text-anchor="middle" x="3024.12" y="-64" font-family="Helvetica,sans-Serif" font-size="10.00">_ext.hpp</text>
</a>
</g>
</g>
<!-- Node20&#45;&gt;Node30 -->
<g id="edge40_Node000020_Node000030" class="edge">
<title>Node20&#45;&gt;Node30</title>
<g id="a_edge40_Node000020_Node000030"><a xlink:title=" ">
<path fill="none" stroke="#63b8ff" d="M2142.84,-141.75C2273.71,-140.51 2638.55,-133.28 2950.8,-90.43"/>
<polygon fill="#63b8ff" stroke="#63b8ff" points="2950.97,-93.94 2960.39,-89.1 2950,-87.01 2950.97,-93.94"/>
</a>
</g>
</g>
<!-- Node31 -->
<g id="Node000031" class="node">
<title>Node31</title>
<g id="a_Node000031"><a xlink:href="vectorized__operations_8h.html" target="_top" xlink:title=" ">
<polygon fill="white" stroke="#666666" points="2092.12,-90.25 1956.12,-90.25 1956.12,-56.75 2092.12,-56.75 2092.12,-90.25"/>
<text text-anchor="start" x="1964.12" y="-76.75" font-family="Helvetica,sans-Serif" font-size="10.00">prismspf/utilities</text>
<text text-anchor="middle" x="2024.12" y="-64" font-family="Helvetica,sans-Serif" font-size="10.00">/vectorized_operations.h</text>
</a>
</g>
</g>
<!-- Node20&#45;&gt;Node31 -->
<g id="edge41_Node000020_Node000031" class="edge">
<title>Node20&#45;&gt;Node31</title>
<g id="a_edge41_Node000020_Node000031"><a xlink:title=" ">
<path fill="none" stroke="#63b8ff" d="M2076.77,-126C2068.35,-117.77 2057.91,-107.55 2048.56,-98.4"/>
<polygon fill="#63b8ff" stroke="#63b8ff" points="2051.04,-95.93 2041.44,-91.44 2046.14,-100.94 2051.04,-95.93"/>
</a>
</g>
</g>
<!-- Node33 -->
<g id="Node000033" class="node">
<title>Node33</title>
<g id="a_Node000033"><a xlink:title=" ">
<polygon fill="#e0e0e0" stroke="#999999" points="3176.25,-83.88 3104,-83.88 3104,-63.12 3176.25,-63.12 3176.25,-83.88"/>
<text text-anchor="middle" x="3140.12" y="-70.38" font-family="Helvetica,sans-Serif" font-size="10.00">string_view</text>
</a>
</g>
</g>
<!-- Node20&#45;&gt;Node33 -->
<g id="edge47_Node000020_Node000033" class="edge">
<title>Node20&#45;&gt;Node33</title>
<g id="a_edge47_Node000020_Node000033"><a xlink:title=" ">
<path fill="none" stroke="#63b8ff" d="M2142.59,-141.31C2317.98,-138.56 2909.57,-126.73 3095.12,-90.25 3098.51,-89.58 3101.98,-88.72 3105.43,-87.74"/>
<polygon fill="#63b8ff" stroke="#63b8ff" points="3106.29,-91.14 3114.75,-84.76 3104.16,-84.47 3106.29,-91.14"/>
</a>
</g>
</g>
<!-- Node34 -->
<g id="Node000034" class="node">
<title>Node34</title>
<g id="a_Node000034"><a xlink:title=" ">
<polygon fill="#e0e0e0" stroke="#999999" points="1616.38,-83.88 1523.88,-83.88 1523.88,-63.12 1616.38,-63.12 1616.38,-83.88"/>
<text text-anchor="middle" x="1570.12" y="-70.38" font-family="Helvetica,sans-Serif" font-size="10.00">unordered_map</text>
</a>
</g>
</g>
<!-- Node20&#45;&gt;Node34 -->
<g id="edge48_Node000020_Node000034" class="edge">
<title>Node20&#45;&gt;Node34</title>
<g id="a_edge48_Node000020_Node000034"><a xlink:title=" ">
<path fill="none" stroke="#63b8ff" d="M2043.44,-138.83C1958.29,-132.86 1779.22,-118 1630.12,-90.25 1625.23,-89.34 1620.14,-88.24 1615.1,-87.06"/>
<polygon fill="#63b8ff" stroke="#63b8ff" points="1616.22,-83.73 1605.67,-84.73 1614.53,-90.52 1616.22,-83.73"/>
</a>
</g>
</g>
<!-- Node31&#45;&gt;Node9 -->
<g id="edge43_Node000031_Node000009" class="edge">
<title>Node31&#45;&gt;Node9</title>
<g id="a_edge43_Node000031_Node000009"><a xlink:title=" ">
<path fill="none" stroke="#63b8ff" d="M1955.79,-57.92C1952.87,-57.49 1949.97,-57.09 1947.12,-56.75 1544.42,-7.94 1439.36,-54.62 1035.12,-20.75 1031.32,-20.43 1027.4,-20.06 1023.46,-19.65"/>
<polygon fill="#63b8ff" stroke="#63b8ff" points="1024.16,-16.21 1013.83,-18.58 1023.39,-23.16 1024.16,-16.21"/>
</a>
</g>
</g>
<!-- Node31&#45;&gt;Node28 -->
<g id="edge42_Node000031_Node000028" class="edge">
<title>Node31&#45;&gt;Node28</title>
<g id="a_edge42_Node000031_Node000028"><a xlink:title=" ">
<path fill="none" stroke="#63b8ff" d="M2092.56,-58.4C2095.79,-57.82 2098.99,-57.27 2102.12,-56.75 2192.72,-41.78 2297.13,-28.86 2368.56,-20.68"/>
<polygon fill="#63b8ff" stroke="#63b8ff" points="2368.69,-24.19 2378.23,-19.58 2367.9,-17.24 2368.69,-24.19"/>
</a>
</g>
</g>
<!-- Node32 -->
<g id="Node000032" class="node">
<title>Node32</title>
<g id="a_Node000032"><a xlink:title=" ">
<polygon fill="#e0e0e0" stroke="#999999" points="2047.5,-20.75 2000.75,-20.75 2000.75,0 2047.5,0 2047.5,-20.75"/>
<text text-anchor="middle" x="2024.12" y="-7.25" font-family="Helvetica,sans-Serif" font-size="10.00">cmath</text>
</a>
</g>
</g>
<!-- Node31&#45;&gt;Node32 -->
<g id="edge44_Node000031_Node000032" class="edge">
<title>Node31&#45;&gt;Node32</title>
<g id="a_edge44_Node000031_Node000032"><a xlink:title=" ">
<path fill="none" stroke="#63b8ff" d="M2024.12,-56.44C2024.12,-49.1 2024.12,-40.32 2024.12,-32.46"/>
<polygon fill="#63b8ff" stroke="#63b8ff" points="2027.63,-32.73 2024.13,-22.73 2020.63,-32.73 2027.63,-32.73"/>
</a>
</g>
</g>
</g>
</svg>
