<?xml version="1.0" encoding="UTF-8" standalone="no"?>
<!DOCTYPE svg PUBLIC "-//W3C//DTD SVG 1.1//EN"
 "http://www.w3.org/Graphics/SVG/1.1/DTD/svg11.dtd">
<!-- Generated by graphviz version 12.2.1 (20241206.2353)
 -->
<!-- Title: include/prismspf/user_inputs/spatial_discretization.h Pages: 1 -->
<svg width="2617pt" height="307pt"
 viewBox="0.00 0.00 2617.25 306.75" xmlns="http://www.w3.org/2000/svg" xmlns:xlink="http://www.w3.org/1999/xlink">
<g id="graph0" class="graph" transform="scale(1 1) rotate(0) translate(4 302.75)">
<title>include/prismspf/user_inputs/spatial_discretization.h</title>
<!-- Node1 -->
<g id="Node000001" class="node">
<title>Node1</title>
<g id="a_Node000001"><a xlink:title=" ">
<polygon fill="#999999" stroke="#666666" points="750.5,-298.75 583,-298.75 583,-265.25 750.5,-265.25 750.5,-298.75"/>
<text text-anchor="start" x="591" y="-285.25" font-family="Helvetica,sans-Serif" font-size="10.00">include/prismspf/user</text>
<text text-anchor="middle" x="666.75" y="-272.5" font-family="Helvetica,sans-Serif" font-size="10.00">_inputs/spatial_discretization.h</text>
</a>
</g>
</g>
<!-- Node2 -->
<g id="Node000002" class="node">
<title>Node2</title>
<g id="a_Node000002"><a xlink:title=" ">
<polygon fill="#e0e0e0" stroke="#999999" points="101.5,-229.25 0,-229.25 0,-195.75 101.5,-195.75 101.5,-229.25"/>
<text text-anchor="start" x="8" y="-215.75" font-family="Helvetica,sans-Serif" font-size="10.00">deal.II/distributed</text>
<text text-anchor="middle" x="50.75" y="-203" font-family="Helvetica,sans-Serif" font-size="10.00">/tria.h</text>
</a>
</g>
</g>
<!-- Node1&#45;&gt;Node2 -->
<g id="edge1_Node000001_Node000002" class="edge">
<title>Node1&#45;&gt;Node2</title>
<g id="a_edge1_Node000001_Node000002"><a xlink:title=" ">
<path fill="none" stroke="#63b8ff" d="M582.82,-277.48C475.81,-272.03 285.04,-259.11 112.99,-229.46"/>
<polygon fill="#63b8ff" stroke="#63b8ff" points="113.63,-226.01 103.18,-227.74 112.43,-232.91 113.63,-226.01"/>
</a>
</g>
</g>
<!-- Node3 -->
<g id="Node000003" class="node">
<title>Node3</title>
<g id="a_Node000003"><a xlink:title=" ">
<polygon fill="#e0e0e0" stroke="#999999" points="269.88,-222.88 119.62,-222.88 119.62,-202.12 269.88,-202.12 269.88,-222.88"/>
<text text-anchor="middle" x="194.75" y="-209.38" font-family="Helvetica,sans-Serif" font-size="10.00">deal.II/grid/grid_generator.h</text>
</a>
</g>
</g>
<!-- Node1&#45;&gt;Node3 -->
<g id="edge2_Node000001_Node000003" class="edge">
<title>Node1&#45;&gt;Node3</title>
<g id="a_edge2_Node000001_Node000003"><a xlink:title=" ">
<path fill="none" stroke="#63b8ff" d="M582.55,-271.07C503.83,-261.48 383.09,-245.98 278.75,-229.25 271.37,-228.07 263.64,-226.74 255.98,-225.37"/>
<polygon fill="#63b8ff" stroke="#63b8ff" points="256.82,-221.96 246.36,-223.62 255.57,-228.85 256.82,-221.96"/>
</a>
</g>
</g>
<!-- Node4 -->
<g id="Node000004" class="node">
<title>Node4</title>
<g id="a_Node000004"><a xlink:title=" ">
<polygon fill="#e0e0e0" stroke="#999999" points="415.62,-222.88 287.88,-222.88 287.88,-202.12 415.62,-202.12 415.62,-222.88"/>
<text text-anchor="middle" x="351.75" y="-209.38" font-family="Helvetica,sans-Serif" font-size="10.00">deal.II/grid/grid_tools.h</text>
</a>
</g>
</g>
<!-- Node1&#45;&gt;Node4 -->
<g id="edge3_Node000001_Node000004" class="edge">
<title>Node1&#45;&gt;Node4</title>
<g id="a_edge3_Node000001_Node000004"><a xlink:title=" ">
<path fill="none" stroke="#63b8ff" d="M590.72,-264.78C543.04,-254.6 480.3,-241.18 424.75,-229.25 419.48,-228.12 414,-226.94 408.51,-225.76"/>
<polygon fill="#63b8ff" stroke="#63b8ff" points="409.3,-222.35 398.79,-223.66 407.83,-229.19 409.3,-222.35"/>
</a>
</g>
</g>
<!-- Node5 -->
<g id="Node000005" class="node">
<title>Node5</title>
<g id="a_Node000005"><a xlink:title=" ">
<polygon fill="#e0e0e0" stroke="#999999" points="529.88,-222.88 433.62,-222.88 433.62,-202.12 529.88,-202.12 529.88,-222.88"/>
<text text-anchor="middle" x="481.75" y="-209.38" font-family="Helvetica,sans-Serif" font-size="10.00">deal.II/grid/tria.h</text>
</a>
</g>
</g>
<!-- Node1&#45;&gt;Node5 -->
<g id="edge4_Node000001_Node000005" class="edge">
<title>Node1&#45;&gt;Node5</title>
<g id="a_edge4_Node000001_Node000005"><a xlink:title=" ">
<path fill="none" stroke="#63b8ff" d="M622.44,-264.83C591.06,-253.38 549.43,-238.19 519.61,-227.31"/>
<polygon fill="#63b8ff" stroke="#63b8ff" points="520.82,-224.03 510.22,-223.89 518.42,-230.6 520.82,-224.03"/>
</a>
</g>
</g>
<!-- Node6 -->
<g id="Node000006" class="node">
<title>Node6</title>
<g id="a_Node000006"><a xlink:href="conditional__ostreams_8h.html" target="_top" xlink:title=" ">
<polygon fill="white" stroke="#666666" points="687.62,-229.25 547.88,-229.25 547.88,-195.75 687.62,-195.75 687.62,-229.25"/>
<text text-anchor="start" x="555.88" y="-215.75" font-family="Helvetica,sans-Serif" font-size="10.00">prismspf/core/conditional</text>
<text text-anchor="middle" x="617.75" y="-203" font-family="Helvetica,sans-Serif" font-size="10.00">_ostreams.h</text>
</a>
</g>
</g>
<!-- Node1&#45;&gt;Node6 -->
<g id="edge5_Node000001_Node000006" class="edge">
<title>Node1&#45;&gt;Node6</title>
<g id="a_edge5_Node000001_Node000006"><a xlink:title=" ">
<path fill="none" stroke="#63b8ff" d="M655.14,-265C649.4,-257.1 642.35,-247.38 635.92,-238.53"/>
<polygon fill="#63b8ff" stroke="#63b8ff" points="638.88,-236.64 630.17,-230.61 633.21,-240.76 638.88,-236.64"/>
</a>
</g>
</g>
<!-- Node8 -->
<g id="Node000008" class="node">
<title>Node8</title>
<g id="a_Node000008"><a xlink:title=" ">
<polygon fill="#e0e0e0" stroke="#999999" points="867.75,-20.75 767.75,-20.75 767.75,0 867.75,0 867.75,-20.75"/>
<text text-anchor="middle" x="817.75" y="-7.25" font-family="Helvetica,sans-Serif" font-size="10.00">prismspf/config.h</text>
</a>
</g>
</g>
<!-- Node1&#45;&gt;Node8 -->
<g id="edge44_Node000001_Node000008" class="edge">
<title>Node1&#45;&gt;Node8</title>
<g id="a_edge44_Node000001_Node000008"><a xlink:title=" ">
<path fill="none" stroke="#63b8ff" d="M676.8,-265C682.93,-254.93 690.72,-241.56 696.75,-229.25 733.14,-154.94 719.04,-124.35 766.75,-56.75 774.34,-46 784.93,-36.04 794.5,-28.21"/>
<polygon fill="#63b8ff" stroke="#63b8ff" points="796.65,-30.98 802.38,-22.07 792.35,-25.45 796.65,-30.98"/>
</a>
</g>
</g>
<!-- Node9 -->
<g id="Node000009" class="node">
<title>Node9</title>
<g id="a_Node000009"><a xlink:href="exceptions_8h.html" target="_top" xlink:title=" ">
<polygon fill="white" stroke="#666666" points="929.75,-222.88 781.75,-222.88 781.75,-202.12 929.75,-202.12 929.75,-222.88"/>
<text text-anchor="middle" x="855.75" y="-209.38" font-family="Helvetica,sans-Serif" font-size="10.00">prismspf/core/exceptions.h</text>
</a>
</g>
</g>
<!-- Node1&#45;&gt;Node9 -->
<g id="edge8_Node000001_Node000009" class="edge">
<title>Node1&#45;&gt;Node9</title>
<g id="a_edge8_Node000001_Node000009"><a xlink:title=" ">
<path fill="none" stroke="#63b8ff" d="M712.02,-264.83C744.21,-253.33 786.98,-238.06 817.48,-227.17"/>
<polygon fill="#63b8ff" stroke="#63b8ff" points="818.45,-230.54 826.69,-223.88 816.1,-223.95 818.45,-230.54"/>
</a>
</g>
</g>
<!-- Node11 -->
<g id="Node000011" class="node">
<title>Node11</title>
<g id="a_Node000011"><a xlink:href="types_8h.html" target="_top" xlink:title=" ">
<polygon fill="white" stroke="#666666" points="903.62,-153.38 781.88,-153.38 781.88,-132.62 903.62,-132.62 903.62,-153.38"/>
<text text-anchor="middle" x="842.75" y="-139.88" font-family="Helvetica,sans-Serif" font-size="10.00">prismspf/core/types.h</text>
</a>
</g>
</g>
<!-- Node1&#45;&gt;Node11 -->
<g id="edge25_Node000001_Node000011" class="edge">
<title>Node1&#45;&gt;Node11</title>
<g id="a_edge25_Node000001_Node000011"><a xlink:title=" ">
<path fill="none" stroke="#63b8ff" d="M686.1,-265.05C707.2,-247.74 742.08,-219.4 772.75,-195.75 788.35,-183.72 806.21,-170.52 819.99,-160.47"/>
<polygon fill="#63b8ff" stroke="#63b8ff" points="821.96,-163.36 827.99,-154.65 817.84,-157.7 821.96,-163.36"/>
</a>
</g>
</g>
<!-- Node16 -->
<g id="Node000016" class="node">
<title>Node16</title>
<g id="a_Node000016"><a xlink:href="grid__refiner__criterion_8h.html" target="_top" xlink:title=" ">
<polygon fill="white" stroke="#666666" points="1098.5,-229.25 991,-229.25 991,-195.75 1098.5,-195.75 1098.5,-229.25"/>
<text text-anchor="start" x="999" y="-215.75" font-family="Helvetica,sans-Serif" font-size="10.00">prismspf/core/grid</text>
<text text-anchor="middle" x="1044.75" y="-203" font-family="Helvetica,sans-Serif" font-size="10.00">_refiner_criterion.h</text>
</a>
</g>
</g>
<!-- Node1&#45;&gt;Node16 -->
<g id="edge18_Node000001_Node000016" class="edge">
<title>Node1&#45;&gt;Node16</title>
<g id="a_edge18_Node000001_Node000016"><a xlink:title=" ">
<path fill="none" stroke="#63b8ff" d="M750.64,-266.02C819.68,-253.69 916.17,-236.46 979.53,-225.15"/>
<polygon fill="#63b8ff" stroke="#63b8ff" points="979.85,-228.64 989.08,-223.44 978.62,-221.75 979.85,-228.64"/>
</a>
</g>
</g>
<!-- Node18 -->
<g id="Node000018" class="node">
<title>Node18</title>
<g id="a_Node000018"><a xlink:href="utilities_8h.html" target="_top" xlink:title=" ">
<polygon fill="white" stroke="#666666" points="1825,-159.75 1726.5,-159.75 1726.5,-126.25 1825,-126.25 1825,-159.75"/>
<text text-anchor="start" x="1734.5" y="-146.25" font-family="Helvetica,sans-Serif" font-size="10.00">prismspf/utilities</text>
<text text-anchor="middle" x="1775.75" y="-133.5" font-family="Helvetica,sans-Serif" font-size="10.00">/utilities.h</text>
</a>
</g>
</g>
<!-- Node1&#45;&gt;Node18 -->
<g id="edge26_Node000001_Node000018" class="edge">
<title>Node1&#45;&gt;Node18</title>
<g id="a_edge26_Node000001_Node000018"><a xlink:title=" ">
<path fill="none" stroke="#63b8ff" d="M750.91,-271.38C839.68,-261.17 983.6,-244.46 1107.75,-229.25 1331.8,-201.81 1597.85,-167.27 1715.12,-151.95"/>
<polygon fill="#63b8ff" stroke="#63b8ff" points="1715.37,-155.44 1724.83,-150.68 1714.46,-148.5 1715.37,-155.44"/>
</a>
</g>
</g>
<!-- Node7 -->
<g id="Node000007" class="node">
<title>Node7</title>
<g id="a_Node000007"><a xlink:title=" ">
<polygon fill="#e0e0e0" stroke="#999999" points="687.38,-159.75 558.12,-159.75 558.12,-126.25 687.38,-126.25 687.38,-159.75"/>
<text text-anchor="start" x="566.12" y="-146.25" font-family="Helvetica,sans-Serif" font-size="10.00">deal.II/base/conditional</text>
<text text-anchor="middle" x="622.75" y="-133.5" font-family="Helvetica,sans-Serif" font-size="10.00">_ostream.h</text>
</a>
</g>
</g>
<!-- Node6&#45;&gt;Node7 -->
<g id="edge6_Node000006_Node000007" class="edge">
<title>Node6&#45;&gt;Node7</title>
<g id="a_edge6_Node000006_Node000007"><a xlink:title=" ">
<path fill="none" stroke="#63b8ff" d="M618.93,-195.5C619.47,-188.27 620.12,-179.53 620.73,-171.31"/>
<polygon fill="#63b8ff" stroke="#63b8ff" points="624.21,-171.62 621.46,-161.39 617.23,-171.11 624.21,-171.62"/>
</a>
</g>
</g>
<!-- Node6&#45;&gt;Node8 -->
<g id="edge7_Node000006_Node000008" class="edge">
<title>Node6&#45;&gt;Node8</title>
<g id="a_edge7_Node000006_Node000008"><a xlink:title=" ">
<path fill="none" stroke="#63b8ff" d="M584.3,-195.26C570.65,-186.74 556.32,-174.88 548.75,-159.75 542.09,-146.43 540.69,-138.77 548.75,-126.25 593.89,-56.17 691.73,-28.73 756.14,-18.06"/>
<polygon fill="#63b8ff" stroke="#63b8ff" points="756.52,-21.55 765.86,-16.55 755.44,-14.63 756.52,-21.55"/>
</a>
</g>
</g>
<!-- Node9&#45;&gt;Node8 -->
<g id="edge17_Node000009_Node000008" class="edge">
<title>Node9&#45;&gt;Node8</title>
<g id="a_edge17_Node000009_Node000008"><a xlink:title=" ">
<path fill="none" stroke="#63b8ff" d="M826.35,-201.71C807.35,-193.68 784.12,-180.24 772.75,-159.75 748.8,-116.59 782.25,-59.13 803.16,-30"/>
<polygon fill="#63b8ff" stroke="#63b8ff" points="805.83,-32.27 809.01,-22.16 800.22,-28.08 805.83,-32.27"/>
</a>
</g>
</g>
<!-- Node10 -->
<g id="Node000010" class="node">
<title>Node10</title>
<g id="a_Node000010"><a xlink:title=" ">
<polygon fill="#e0e0e0" stroke="#999999" points="1285.5,-83.88 1148,-83.88 1148,-63.12 1285.5,-63.12 1285.5,-83.88"/>
<text text-anchor="middle" x="1216.75" y="-70.38" font-family="Helvetica,sans-Serif" font-size="10.00">deal.II/base/exceptions.h</text>
</a>
</g>
</g>
<!-- Node9&#45;&gt;Node10 -->
<g id="edge9_Node000009_Node000010" class="edge">
<title>Node9&#45;&gt;Node10</title>
<g id="a_edge9_Node000009_Node000010"><a xlink:title=" ">
<path fill="none" stroke="#63b8ff" d="M870.95,-201.73C898.57,-184.35 959.3,-147.85 1014.75,-126.25 1059.77,-108.71 1112.74,-95.4 1153.15,-86.67"/>
<polygon fill="#63b8ff" stroke="#63b8ff" points="1153.66,-90.14 1162.71,-84.64 1152.2,-83.29 1153.66,-90.14"/>
</a>
</g>
</g>
<!-- Node9&#45;&gt;Node11 -->
<g id="edge10_Node000009_Node000011" class="edge">
<title>Node9&#45;&gt;Node11</title>
<g id="a_edge10_Node000009_Node000011"><a xlink:title=" ">
<path fill="none" stroke="#63b8ff" d="M853.89,-201.83C852.03,-192.21 849.13,-177.13 846.75,-164.79"/>
<polygon fill="#63b8ff" stroke="#63b8ff" points="850.22,-164.3 844.9,-155.14 843.35,-165.62 850.22,-164.3"/>
</a>
</g>
</g>
<!-- Node11&#45;&gt;Node8 -->
<g id="edge16_Node000011_Node000008" class="edge">
<title>Node11&#45;&gt;Node8</title>
<g id="a_edge16_Node000011_Node000008"><a xlink:title=" ">
<path fill="none" stroke="#63b8ff" d="M835.84,-132.27C829.19,-122.28 819.61,-106 815.75,-90.25 811.04,-71.04 812.28,-48.41 814.26,-32.32"/>
<polygon fill="#63b8ff" stroke="#63b8ff" points="817.71,-32.92 815.68,-22.52 810.78,-31.91 817.71,-32.92"/>
</a>
</g>
</g>
<!-- Node12 -->
<g id="Node000012" class="node">
<title>Node12</title>
<g id="a_Node000012"><a xlink:title=" ">
<polygon fill="#e0e0e0" stroke="#999999" points="1091.88,-90.25 983.62,-90.25 983.62,-56.75 1091.88,-56.75 1091.88,-90.25"/>
<text text-anchor="start" x="991.62" y="-76.75" font-family="Helvetica,sans-Serif" font-size="10.00">deal.II/matrix_free</text>
<text text-anchor="middle" x="1037.75" y="-64" font-family="Helvetica,sans-Serif" font-size="10.00">/evaluation_flags.h</text>
</a>
</g>
</g>
<!-- Node11&#45;&gt;Node12 -->
<g id="edge11_Node000011_Node000012" class="edge">
<title>Node11&#45;&gt;Node12</title>
<g id="a_edge11_Node000011_Node000012"><a xlink:title=" ">
<path fill="none" stroke="#63b8ff" d="M871.1,-132.18C899.54,-122.34 944.13,-106.91 980.03,-94.48"/>
<polygon fill="#63b8ff" stroke="#63b8ff" points="981.13,-97.8 989.44,-91.22 978.84,-91.19 981.13,-97.8"/>
</a>
</g>
</g>
<!-- Node13 -->
<g id="Node000013" class="node">
<title>Node13</title>
<g id="a_Node000013"><a xlink:href="type__enums_8h.html" target="_top" xlink:title=" ">
<polygon fill="white" stroke="#666666" points="965.5,-90.25 858,-90.25 858,-56.75 965.5,-56.75 965.5,-90.25"/>
<text text-anchor="start" x="866" y="-76.75" font-family="Helvetica,sans-Serif" font-size="10.00">prismspf/core/type</text>
<text text-anchor="middle" x="911.75" y="-64" font-family="Helvetica,sans-Serif" font-size="10.00">_enums.h</text>
</a>
</g>
</g>
<!-- Node11&#45;&gt;Node13 -->
<g id="edge12_Node000011_Node000013" class="edge">
<title>Node11&#45;&gt;Node13</title>
<g id="a_edge12_Node000011_Node000013"><a xlink:title=" ">
<path fill="none" stroke="#63b8ff" d="M852.64,-132.33C861.66,-123.5 875.37,-110.09 887.31,-98.41"/>
<polygon fill="#63b8ff" stroke="#63b8ff" points="889.44,-101.22 894.14,-91.73 884.54,-96.22 889.44,-101.22"/>
</a>
</g>
</g>
<!-- Node13&#45;&gt;Node8 -->
<g id="edge13_Node000013_Node000008" class="edge">
<title>Node13&#45;&gt;Node8</title>
<g id="a_edge13_Node000013_Node000008"><a xlink:title=" ">
<path fill="none" stroke="#63b8ff" d="M887.05,-56.44C873.22,-47.45 856.03,-36.27 842.24,-27.3"/>
<polygon fill="#63b8ff" stroke="#63b8ff" points="844.45,-24.56 834.15,-22.04 840.63,-30.43 844.45,-24.56"/>
</a>
</g>
</g>
<!-- Node14 -->
<g id="Node000014" class="node">
<title>Node14</title>
<g id="a_Node000014"><a xlink:title=" ">
<polygon fill="#e0e0e0" stroke="#999999" points="948.25,-20.75 899.25,-20.75 899.25,0 948.25,0 948.25,-20.75"/>
<text text-anchor="middle" x="923.75" y="-7.25" font-family="Helvetica,sans-Serif" font-size="10.00">cstdint</text>
</a>
</g>
</g>
<!-- Node13&#45;&gt;Node14 -->
<g id="edge14_Node000013_Node000014" class="edge">
<title>Node13&#45;&gt;Node14</title>
<g id="a_edge14_Node000013_Node000014"><a xlink:title=" ">
<path fill="none" stroke="#63b8ff" d="M914.9,-56.44C916.34,-49.1 918.07,-40.32 919.61,-32.46"/>
<polygon fill="#63b8ff" stroke="#63b8ff" points="923.03,-33.19 921.53,-22.7 916.17,-31.84 923.03,-33.19"/>
</a>
</g>
</g>
<!-- Node15 -->
<g id="Node000015" class="node">
<title>Node15</title>
<g id="a_Node000015"><a xlink:title=" ">
<polygon fill="#e0e0e0" stroke="#999999" points="1335.62,-20.75 1291.88,-20.75 1291.88,0 1335.62,0 1335.62,-20.75"/>
<text text-anchor="middle" x="1313.75" y="-7.25" font-family="Helvetica,sans-Serif" font-size="10.00">string</text>
</a>
</g>
</g>
<!-- Node13&#45;&gt;Node15 -->
<g id="edge15_Node000013_Node000015" class="edge">
<title>Node13&#45;&gt;Node15</title>
<g id="a_edge15_Node000013_Node000015"><a xlink:title=" ">
<path fill="none" stroke="#63b8ff" d="M965.96,-58.54C968.93,-57.9 971.87,-57.3 974.75,-56.75 1085.74,-35.52 1219.06,-20.78 1280.17,-14.61"/>
<polygon fill="#63b8ff" stroke="#63b8ff" points="1280.29,-18.12 1289.89,-13.64 1279.6,-11.15 1280.29,-18.12"/>
</a>
</g>
</g>
<!-- Node16&#45;&gt;Node8 -->
<g id="edge21_Node000016_Node000008" class="edge">
<title>Node16&#45;&gt;Node8</title>
<g id="a_edge21_Node000016_Node000008"><a xlink:title=" ">
<path fill="none" stroke="#63b8ff" d="M1020.7,-195.34C994.46,-177.85 951.06,-149.36 912.75,-126.25 884.81,-109.39 870.18,-114.86 848.75,-90.25 834.29,-73.64 826.14,-49.49 821.87,-32.3"/>
<polygon fill="#63b8ff" stroke="#63b8ff" points="825.32,-31.69 819.73,-22.69 818.48,-33.21 825.32,-31.69"/>
</a>
</g>
</g>
<!-- Node16&#45;&gt;Node10 -->
<g id="edge19_Node000016_Node000010" class="edge">
<title>Node16&#45;&gt;Node10</title>
<g id="a_edge19_Node000016_Node000010"><a xlink:title=" ">
<path fill="none" stroke="#63b8ff" d="M1077.4,-195.29C1094.85,-185.95 1116.28,-173.39 1133.75,-159.75 1159.82,-139.4 1185.74,-111.17 1201.51,-92.86"/>
<polygon fill="#63b8ff" stroke="#63b8ff" points="1204,-95.34 1207.79,-85.45 1198.66,-90.81 1204,-95.34"/>
</a>
</g>
</g>
<!-- Node16&#45;&gt;Node11 -->
<g id="edge20_Node000016_Node000011" class="edge">
<title>Node16&#45;&gt;Node11</title>
<g id="a_edge20_Node000016_Node000011"><a xlink:title=" ">
<path fill="none" stroke="#63b8ff" d="M996.37,-195.33C961.66,-183.73 915.44,-168.29 882.8,-157.38"/>
<polygon fill="#63b8ff" stroke="#63b8ff" points="884.31,-154.2 873.72,-154.35 882.1,-160.84 884.31,-154.2"/>
</a>
</g>
</g>
<!-- Node16&#45;&gt;Node14 -->
<g id="edge23_Node000016_Node000014" class="edge">
<title>Node16&#45;&gt;Node14</title>
<g id="a_edge23_Node000016_Node000014"><a xlink:title=" ">
<path fill="none" stroke="#63b8ff" d="M1059.81,-195.45C1086.07,-165.47 1134.38,-100.09 1100.75,-56.75 1083.63,-34.69 1006.32,-21.51 959.73,-15.43"/>
<polygon fill="#63b8ff" stroke="#63b8ff" points="960.46,-11.99 950.1,-14.22 959.59,-18.94 960.46,-11.99"/>
</a>
</g>
</g>
<!-- Node16&#45;&gt;Node15 -->
<g id="edge24_Node000016_Node000015" class="edge">
<title>Node16&#45;&gt;Node15</title>
<g id="a_edge24_Node000016_Node000015"><a xlink:title=" ">
<path fill="none" stroke="#63b8ff" d="M1089.69,-195.28C1154.16,-171.12 1268.1,-124.83 1294.75,-90.25 1307.55,-73.63 1311.89,-49.65 1313.28,-32.5"/>
<polygon fill="#63b8ff" stroke="#63b8ff" points="1316.76,-32.86 1313.78,-22.7 1309.77,-32.51 1316.76,-32.86"/>
</a>
</g>
</g>
<!-- Node17 -->
<g id="Node000017" class="node">
<title>Node17</title>
<g id="a_Node000017"><a xlink:title=" ">
<polygon fill="#e0e0e0" stroke="#999999" points="1066.25,-153.38 1023.25,-153.38 1023.25,-132.62 1066.25,-132.62 1066.25,-153.38"/>
<text text-anchor="middle" x="1044.75" y="-139.88" font-family="Helvetica,sans-Serif" font-size="10.00">cfloat</text>
</a>
</g>
</g>
<!-- Node16&#45;&gt;Node17 -->
<g id="edge22_Node000016_Node000017" class="edge">
<title>Node16&#45;&gt;Node17</title>
<g id="a_edge22_Node000016_Node000017"><a xlink:title=" ">
<path fill="none" stroke="#63b8ff" d="M1044.75,-195.5C1044.75,-186.4 1044.75,-174.89 1044.75,-165.07"/>
<polygon fill="#63b8ff" stroke="#63b8ff" points="1048.25,-165.34 1044.75,-155.34 1041.25,-165.34 1048.25,-165.34"/>
</a>
</g>
</g>
<!-- Node18&#45;&gt;Node8 -->
<g id="edge40_Node000018_Node000008" class="edge">
<title>Node18&#45;&gt;Node8</title>
<g id="a_edge40_Node000018_Node000008"><a xlink:title=" ">
<path fill="none" stroke="#63b8ff" d="M1726.22,-140.25C1648.98,-136.51 1495.73,-124.99 1370.75,-90.25 1335.18,-80.36 1330.5,-65.95 1294.75,-56.75 1120.18,-11.8 1069.96,-40.23 890.75,-20.75 886.95,-20.34 883.04,-19.89 879.1,-19.43"/>
<polygon fill="#63b8ff" stroke="#63b8ff" points="879.83,-15.99 869.49,-18.27 879,-22.94 879.83,-15.99"/>
</a>
</g>
</g>
<!-- Node18&#45;&gt;Node10 -->
<g id="edge28_Node000018_Node000010" class="edge">
<title>Node18&#45;&gt;Node10</title>
<g id="a_edge28_Node000018_Node000010"><a xlink:title=" ">
<path fill="none" stroke="#63b8ff" d="M1726.13,-136.33C1644.91,-127.01 1478.52,-107.73 1337.75,-90.25 1324.61,-88.62 1310.68,-86.85 1297.11,-85.1"/>
<polygon fill="#63b8ff" stroke="#63b8ff" points="1297.71,-81.64 1287.34,-83.83 1296.81,-88.59 1297.71,-81.64"/>
</a>
</g>
</g>
<!-- Node18&#45;&gt;Node12 -->
<g id="edge33_Node000018_Node000012" class="edge">
<title>Node18&#45;&gt;Node12</title>
<g id="a_edge33_Node000018_Node000012"><a xlink:title=" ">
<path fill="none" stroke="#63b8ff" d="M1726.07,-139.21C1618.66,-132.91 1356.92,-116.09 1138.75,-90.25 1127.26,-88.89 1115.08,-87.2 1103.3,-85.44"/>
<polygon fill="#63b8ff" stroke="#63b8ff" points="1104.07,-82.02 1093.66,-83.97 1103.02,-88.94 1104.07,-82.02"/>
</a>
</g>
</g>
<!-- Node18&#45;&gt;Node15 -->
<g id="edge41_Node000018_Node000015" class="edge">
<title>Node18&#45;&gt;Node15</title>
<g id="a_edge41_Node000018_Node000015"><a xlink:title=" ">
<path fill="none" stroke="#63b8ff" d="M1726.37,-138.14C1677.33,-132.71 1601.11,-119.93 1541.75,-90.25 1521.31,-80.03 1523.09,-67.15 1502.75,-56.75 1452.1,-30.85 1386.21,-19.39 1347.11,-14.58"/>
<polygon fill="#63b8ff" stroke="#63b8ff" points="1347.72,-11.12 1337.38,-13.46 1346.92,-18.08 1347.72,-11.12"/>
</a>
</g>
</g>
<!-- Node19 -->
<g id="Node000019" class="node">
<title>Node19</title>
<g id="a_Node000019"><a xlink:title=" ">
<polygon fill="#e0e0e0" stroke="#999999" points="2361.5,-83.88 2248,-83.88 2248,-63.12 2361.5,-63.12 2361.5,-83.88"/>
<text text-anchor="middle" x="2304.75" y="-70.38" font-family="Helvetica,sans-Serif" font-size="10.00">deal.II/base/config.h</text>
</a>
</g>
</g>
<!-- Node18&#45;&gt;Node19 -->
<g id="edge27_Node000018_Node000019" class="edge">
<title>Node18&#45;&gt;Node19</title>
<g id="a_edge27_Node000018_Node000019"><a xlink:title=" ">
<path fill="none" stroke="#63b8ff" d="M1825.46,-138.12C1909.81,-131.14 2086.16,-114.89 2233.75,-90.25 2240.05,-89.2 2246.64,-87.95 2253.15,-86.61"/>
<polygon fill="#63b8ff" stroke="#63b8ff" points="2253.43,-90.13 2262.49,-84.63 2251.98,-83.28 2253.43,-90.13"/>
</a>
</g>
</g>
<!-- Node20 -->
<g id="Node000020" class="node">
<title>Node20</title>
<g id="a_Node000020"><a xlink:title=" ">
<polygon fill="#e0e0e0" stroke="#999999" points="2482.25,-83.88 2379.25,-83.88 2379.25,-63.12 2482.25,-63.12 2482.25,-83.88"/>
<text text-anchor="middle" x="2430.75" y="-70.38" font-family="Helvetica,sans-Serif" font-size="10.00">deal.II/base/mpi.h</text>
</a>
</g>
</g>
<!-- Node18&#45;&gt;Node20 -->
<g id="edge29_Node000018_Node000020" class="edge">
<title>Node18&#45;&gt;Node20</title>
<g id="a_edge29_Node000018_Node000020"><a xlink:title=" ">
<path fill="none" stroke="#63b8ff" d="M1825.48,-140.53C1928.11,-136.86 2170.51,-124.98 2370.75,-90.25 2375.78,-89.38 2381.01,-88.29 2386.18,-87.09"/>
<polygon fill="#63b8ff" stroke="#63b8ff" points="2386.99,-90.5 2395.86,-84.71 2385.32,-83.7 2386.99,-90.5"/>
</a>
</g>
</g>
<!-- Node21 -->
<g id="Node000021" class="node">
<title>Node21</title>
<g id="a_Node000021"><a xlink:title=" ">
<polygon fill="#e0e0e0" stroke="#999999" points="2609.25,-83.88 2500.25,-83.88 2500.25,-63.12 2609.25,-63.12 2609.25,-83.88"/>
<text text-anchor="middle" x="2554.75" y="-70.38" font-family="Helvetica,sans-Serif" font-size="10.00">deal.II/base/point.h</text>
</a>
</g>
</g>
<!-- Node18&#45;&gt;Node21 -->
<g id="edge30_Node000018_Node000021" class="edge">
<title>Node18&#45;&gt;Node21</title>
<g id="a_edge30_Node000018_Node000021"><a xlink:title=" ">
<path fill="none" stroke="#63b8ff" d="M1825.13,-141.36C1941.83,-139.22 2243.46,-129.95 2491.75,-90.25 2497.38,-89.35 2503.25,-88.19 2509.03,-86.91"/>
<polygon fill="#63b8ff" stroke="#63b8ff" points="2509.58,-90.38 2518.51,-84.68 2507.97,-83.56 2509.58,-90.38"/>
</a>
</g>
</g>
<!-- Node22 -->
<g id="Node000022" class="node">
<title>Node22</title>
<g id="a_Node000022"><a xlink:title=" ">
<polygon fill="#e0e0e0" stroke="#999999" points="1493.88,-83.88 1379.62,-83.88 1379.62,-63.12 1493.88,-63.12 1493.88,-83.88"/>
<text text-anchor="middle" x="1436.75" y="-70.38" font-family="Helvetica,sans-Serif" font-size="10.00">deal.II/base/tensor.h</text>
</a>
</g>
</g>
<!-- Node18&#45;&gt;Node22 -->
<g id="edge31_Node000018_Node000022" class="edge">
<title>Node18&#45;&gt;Node22</title>
<g id="a_edge31_Node000018_Node000022"><a xlink:title=" ">
<path fill="none" stroke="#63b8ff" d="M1726.27,-132.87C1672.43,-122.83 1583.85,-106.03 1507.75,-90.25 1502.46,-89.15 1496.96,-87.98 1491.47,-86.8"/>
<polygon fill="#63b8ff" stroke="#63b8ff" points="1492.26,-83.39 1481.74,-84.67 1490.77,-90.23 1492.26,-83.39"/>
</a>
</g>
</g>
<!-- Node23 -->
<g id="Node000023" class="node">
<title>Node23</title>
<g id="a_Node000023"><a xlink:title=" ">
<polygon fill="#e0e0e0" stroke="#999999" points="2293.75,-20.75 2145.75,-20.75 2145.75,0 2293.75,0 2293.75,-20.75"/>
<text text-anchor="middle" x="2219.75" y="-7.25" font-family="Helvetica,sans-Serif" font-size="10.00">deal.II/base/vectorization.h</text>
</a>
</g>
</g>
<!-- Node18&#45;&gt;Node23 -->
<g id="edge32_Node000018_Node000023" class="edge">
<title>Node18&#45;&gt;Node23</title>
<g id="a_edge32_Node000018_Node000023"><a xlink:title=" ">
<path fill="none" stroke="#63b8ff" d="M1825.5,-142.79C1925.57,-143.31 2146.29,-138.77 2200.75,-90.25 2216.82,-75.93 2220.48,-50.6 2220.81,-32.51"/>
<polygon fill="#63b8ff" stroke="#63b8ff" points="2224.31,-32.57 2220.64,-22.63 2217.31,-32.69 2224.31,-32.57"/>
</a>
</g>
</g>
<!-- Node24 -->
<g id="Node000024" class="node">
<title>Node24</title>
<g id="a_Node000024"><a xlink:title=" ">
<polygon fill="#e0e0e0" stroke="#999999" points="1695.25,-83.88 1550.25,-83.88 1550.25,-63.12 1695.25,-63.12 1695.25,-83.88"/>
<text text-anchor="middle" x="1622.75" y="-70.38" font-family="Helvetica,sans-Serif" font-size="10.00">boost/range/algorithm.hpp</text>
</a>
</g>
</g>
<!-- Node18&#45;&gt;Node24 -->
<g id="edge34_Node000018_Node000024" class="edge">
<title>Node18&#45;&gt;Node24</title>
<g id="a_edge34_Node000018_Node000024"><a xlink:title=" ">
<path fill="none" stroke="#63b8ff" d="M1739.1,-125.83C1713.54,-114.55 1679.73,-99.64 1655.15,-88.79"/>
<polygon fill="#63b8ff" stroke="#63b8ff" points="1656.84,-85.72 1646.28,-84.88 1654.02,-92.12 1656.84,-85.72"/>
</a>
</g>
</g>
<!-- Node25 -->
<g id="Node000025" class="node">
<title>Node25</title>
<g id="a_Node000025"><a xlink:title=" ">
<polygon fill="#e0e0e0" stroke="#999999" points="1837.75,-90.25 1713.75,-90.25 1713.75,-56.75 1837.75,-56.75 1837.75,-90.25"/>
<text text-anchor="start" x="1721.75" y="-76.75" font-family="Helvetica,sans-Serif" font-size="10.00">boost/range/algorithm</text>
<text text-anchor="middle" x="1775.75" y="-64" font-family="Helvetica,sans-Serif" font-size="10.00">_ext.hpp</text>
</a>
</g>
</g>
<!-- Node18&#45;&gt;Node25 -->
<g id="edge35_Node000018_Node000025" class="edge">
<title>Node18&#45;&gt;Node25</title>
<g id="a_edge35_Node000018_Node000025"><a xlink:title=" ">
<path fill="none" stroke="#63b8ff" d="M1775.75,-126C1775.75,-118.77 1775.75,-110.03 1775.75,-101.81"/>
<polygon fill="#63b8ff" stroke="#63b8ff" points="1779.25,-101.9 1775.75,-91.9 1772.25,-101.9 1779.25,-101.9"/>
</a>
</g>
</g>
<!-- Node26 -->
<g id="Node000026" class="node">
<title>Node26</title>
<g id="a_Node000026"><a xlink:href="vectorized__operations_8h.html" target="_top" xlink:title=" ">
<polygon fill="white" stroke="#666666" points="2191.75,-90.25 2055.75,-90.25 2055.75,-56.75 2191.75,-56.75 2191.75,-90.25"/>
<text text-anchor="start" x="2063.75" y="-76.75" font-family="Helvetica,sans-Serif" font-size="10.00">prismspf/utilities</text>
<text text-anchor="middle" x="2123.75" y="-64" font-family="Helvetica,sans-Serif" font-size="10.00">/vectorized_operations.h</text>
</a>
</g>
</g>
<!-- Node18&#45;&gt;Node26 -->
<g id="edge36_Node000018_Node000026" class="edge">
<title>Node18&#45;&gt;Node26</title>
<g id="a_edge36_Node000018_Node000026"><a xlink:title=" ">
<path fill="none" stroke="#63b8ff" d="M1825.24,-132.75C1877.26,-122.98 1961.8,-106.98 2044.24,-90.73"/>
<polygon fill="#63b8ff" stroke="#63b8ff" points="2044.71,-94.21 2053.84,-88.84 2043.35,-87.34 2044.71,-94.21"/>
</a>
</g>
</g>
<!-- Node28 -->
<g id="Node000028" class="node">
<title>Node28</title>
<g id="a_Node000028"><a xlink:title=" ">
<polygon fill="#e0e0e0" stroke="#999999" points="1927.88,-83.88 1855.62,-83.88 1855.62,-63.12 1927.88,-63.12 1927.88,-83.88"/>
<text text-anchor="middle" x="1891.75" y="-70.38" font-family="Helvetica,sans-Serif" font-size="10.00">string_view</text>
</a>
</g>
</g>
<!-- Node18&#45;&gt;Node28 -->
<g id="edge42_Node000018_Node000028" class="edge">
<title>Node18&#45;&gt;Node28</title>
<g id="a_edge42_Node000018_Node000028"><a xlink:title=" ">
<path fill="none" stroke="#63b8ff" d="M1803.53,-125.83C1822.22,-114.96 1846.72,-100.7 1865.15,-89.98"/>
<polygon fill="#63b8ff" stroke="#63b8ff" points="1866.77,-93.09 1873.65,-85.03 1863.25,-87.04 1866.77,-93.09"/>
</a>
</g>
</g>
<!-- Node29 -->
<g id="Node000029" class="node">
<title>Node29</title>
<g id="a_Node000029"><a xlink:title=" ">
<polygon fill="#e0e0e0" stroke="#999999" points="2038,-83.88 1945.5,-83.88 1945.5,-63.12 2038,-63.12 2038,-83.88"/>
<text text-anchor="middle" x="1991.75" y="-70.38" font-family="Helvetica,sans-Serif" font-size="10.00">unordered_map</text>
</a>
</g>
</g>
<!-- Node18&#45;&gt;Node29 -->
<g id="edge43_Node000018_Node000029" class="edge">
<title>Node18&#45;&gt;Node29</title>
<g id="a_edge43_Node000018_Node000029"><a xlink:title=" ">
<path fill="none" stroke="#63b8ff" d="M1825.3,-126.51C1862.89,-114.77 1914,-98.8 1949.62,-87.66"/>
<polygon fill="#63b8ff" stroke="#63b8ff" points="1950.21,-91.15 1958.71,-84.83 1948.12,-84.47 1950.21,-91.15"/>
</a>
</g>
</g>
<!-- Node26&#45;&gt;Node8 -->
<g id="edge38_Node000026_Node000008" class="edge">
<title>Node26&#45;&gt;Node8</title>
<g id="a_edge38_Node000026_Node000008"><a xlink:title=" ">
<path fill="none" stroke="#63b8ff" d="M2055.41,-57.89C2052.49,-57.47 2049.6,-57.08 2046.75,-56.75 1536.2,2.97 1403.16,-61.54 890.75,-20.75 886.94,-20.45 883.03,-20.09 879.08,-19.69"/>
<polygon fill="#63b8ff" stroke="#63b8ff" points="879.77,-16.24 869.45,-18.63 879.01,-23.2 879.77,-16.24"/>
</a>
</g>
</g>
<!-- Node26&#45;&gt;Node23 -->
<g id="edge37_Node000026_Node000023" class="edge">
<title>Node26&#45;&gt;Node23</title>
<g id="a_edge37_Node000026_Node000023"><a xlink:title=" ">
<path fill="none" stroke="#63b8ff" d="M2149.22,-56.28C2163.35,-47.29 2180.84,-36.15 2194.87,-27.22"/>
<polygon fill="#63b8ff" stroke="#63b8ff" points="2196.54,-30.3 2203.1,-21.98 2192.78,-24.4 2196.54,-30.3"/>
</a>
</g>
</g>
<!-- Node27 -->
<g id="Node000027" class="node">
<title>Node27</title>
<g id="a_Node000027"><a xlink:title=" ">
<polygon fill="#e0e0e0" stroke="#999999" points="2128.12,-20.75 2081.38,-20.75 2081.38,0 2128.12,0 2128.12,-20.75"/>
<text text-anchor="middle" x="2104.75" y="-7.25" font-family="Helvetica,sans-Serif" font-size="10.00">cmath</text>
</a>
</g>
</g>
<!-- Node26&#45;&gt;Node27 -->
<g id="edge39_Node000026_Node000027" class="edge">
<title>Node26&#45;&gt;Node27</title>
<g id="a_edge39_Node000026_Node000027"><a xlink:title=" ">
<path fill="none" stroke="#63b8ff" d="M2118.76,-56.44C2116.45,-49.02 2113.68,-40.11 2111.22,-32.18"/>
<polygon fill="#63b8ff" stroke="#63b8ff" points="2114.57,-31.17 2108.26,-22.66 2107.88,-33.25 2114.57,-31.17"/>
</a>
</g>
</g>
</g>
</svg>
