<?xml version="1.0" encoding="UTF-8" standalone="no"?>
<!DOCTYPE svg PUBLIC "-//W3C//DTD SVG 1.1//EN"
 "http://www.w3.org/Graphics/SVG/1.1/DTD/svg11.dtd">
<!-- Generated by graphviz version 12.2.1 (20241206.2353)
 -->
<!-- Title: Mesh&lt; dim &gt; Pages: 1 -->
<svg width="432pt" height="98pt"
 viewBox="0.00 0.00 432.25 98.25" xmlns="http://www.w3.org/2000/svg" xmlns:xlink="http://www.w3.org/1999/xlink">
<g id="graph0" class="graph" transform="scale(1 1) rotate(0) translate(4 94.25)">
<title>Mesh&lt; dim &gt;</title>
<!-- Node1 -->
<g id="Node000001" class="node">
<title>Node1</title>
<g id="a_Node000001"><a xlink:title="Triangulation base class.">
<polygon fill="#999999" stroke="#666666" points="260.75,-90.25 177.25,-90.25 177.25,-69.5 260.75,-69.5 260.75,-90.25"/>
<text text-anchor="middle" x="219" y="-76.75" font-family="Helvetica,sans-Serif" font-size="10.00">Mesh&lt; dim &gt;</text>
</a>
</g>
</g>
<!-- Node2 -->
<g id="Node000002" class="node">
<title>Node2</title>
<g id="a_Node000002"><a xlink:href="structRectangularMesh.html" target="_top" xlink:title="Class for rectangular mesh parameters.">
<polygon fill="white" stroke="#666666" points="142,-27.12 0,-27.12 0,-6.38 142,-6.38 142,-27.12"/>
<text text-anchor="middle" x="71" y="-13.62" font-family="Helvetica,sans-Serif" font-size="10.00">RectangularMesh&lt; dim &gt;</text>
</a>
</g>
</g>
<!-- Node1&#45;&gt;Node2 -->
<g id="edge1_Node000001_Node000002" class="edge">
<title>Node1&#45;&gt;Node2</title>
<g id="a_edge1_Node000001_Node000002"><a xlink:title=" ">
<path fill="none" stroke="#63b8ff" d="M184.84,-64.77C157.23,-53.36 119.08,-37.61 94.72,-27.55"/>
<polygon fill="#63b8ff" stroke="#63b8ff" points="183.24,-67.89 193.82,-68.48 185.92,-61.42 183.24,-67.89"/>
</a>
</g>
</g>
<!-- Node3 -->
<g id="Node000003" class="node">
<title>Node3</title>
<g id="a_Node000003"><a xlink:href="structSpatialDiscretization.html" target="_top" xlink:title="Struct that holds spatial discretization parameters.">
<polygon fill="white" stroke="#666666" points="277.62,-33.5 160.38,-33.5 160.38,0 277.62,0 277.62,-33.5"/>
<text text-anchor="start" x="168.38" y="-20" font-family="Helvetica,sans-Serif" font-size="10.00">SpatialDiscretization</text>
<text text-anchor="middle" x="219" y="-7.25" font-family="Helvetica,sans-Serif" font-size="10.00">&lt; dim &gt;</text>
</a>
</g>
</g>
<!-- Node1&#45;&gt;Node3 -->
<g id="edge2_Node000001_Node000003" class="edge">
<title>Node1&#45;&gt;Node3</title>
<g id="a_edge2_Node000001_Node000003"><a xlink:title=" ">
<path fill="none" stroke="#8b1a1a" d="M219,-57.59C219,-49.85 219,-41.22 219,-33.98"/>
<polygon fill="#8b1a1a" stroke="#8b1a1a" points="215.5,-57.54 219,-67.54 222.5,-57.54 215.5,-57.54"/>
</a>
</g>
</g>
<!-- Node4 -->
<g id="Node000004" class="node">
<title>Node4</title>
<g id="a_Node000004"><a xlink:href="structSphericalMesh.html" target="_top" xlink:title="Class for spherical mesh parameters.">
<polygon fill="white" stroke="#666666" points="424.25,-27.12 295.75,-27.12 295.75,-6.38 424.25,-6.38 424.25,-27.12"/>
<text text-anchor="middle" x="360" y="-13.62" font-family="Helvetica,sans-Serif" font-size="10.00">SphericalMesh&lt; dim &gt;</text>
</a>
</g>
</g>
<!-- Node1&#45;&gt;Node4 -->
<g id="edge3_Node000001_Node000004" class="edge">
<title>Node1&#45;&gt;Node4</title>
<g id="a_edge3_Node000001_Node000004"><a xlink:title=" ">
<path fill="none" stroke="#63b8ff" d="M251.89,-64.62C278.17,-53.22 314.3,-37.56 337.4,-27.55"/>
<polygon fill="#63b8ff" stroke="#63b8ff" points="250.83,-61.26 243.04,-68.45 253.61,-67.69 250.83,-61.26"/>
</a>
</g>
</g>
</g>
</svg>
