<?xml version="1.0" encoding="UTF-8" standalone="no"?>
<!DOCTYPE svg PUBLIC "-//W3C//DTD SVG 1.1//EN"
 "http://www.w3.org/Graphics/SVG/1.1/DTD/svg11.dtd">
<!-- Generated by graphviz version 2.43.0 (0)
 -->
<!-- Title: /home/runner/work/phaseField/phaseField/include/prismspf/core/system_wide.h Pages: 1 -->
<svg width="2057pt" height="731pt"
 viewBox="0.00 0.00 2057.00 731.00" xmlns="http://www.w3.org/2000/svg" xmlns:xlink="http://www.w3.org/1999/xlink">
<g id="graph0" class="graph" transform="scale(1 1) rotate(0) translate(4 727)">
<title>/home/runner/work/phaseField/phaseField/include/prismspf/core/system_wide.h</title>
<!-- Node1 -->
<g id="Node000001" class="node">
<title>Node1</title>
<g id="a_Node000001"><a xlink:title=" ">
<polygon fill="#999999" stroke="#666666" points="1389,-723 1225,-723 1225,-682 1389,-682 1389,-723"/>
<text text-anchor="start" x="1233" y="-711" font-family="Helvetica,sans-Serif" font-size="10.00">/home/runner/work/phaseField</text>
<text text-anchor="start" x="1233" y="-700" font-family="Helvetica,sans-Serif" font-size="10.00">/phaseField/include/prismspf</text>
<text text-anchor="middle" x="1307" y="-689" font-family="Helvetica,sans-Serif" font-size="10.00">/core/system_wide.h</text>
</a>
</g>
</g>
<!-- Node2 -->
<g id="Node000002" class="node">
<title>Node2</title>
<g id="a_Node000002"><a xlink:href="field__container_8h.html" target="_top" xlink:title=" ">
<polygon fill="white" stroke="#666666" points="528,-646 364,-646 364,-605 528,-605 528,-646"/>
<text text-anchor="start" x="372" y="-634" font-family="Helvetica,sans-Serif" font-size="10.00">/home/runner/work/phaseField</text>
<text text-anchor="start" x="372" y="-623" font-family="Helvetica,sans-Serif" font-size="10.00">/phaseField/include/prismspf</text>
<text text-anchor="middle" x="446" y="-612" font-family="Helvetica,sans-Serif" font-size="10.00">/core/field_container.h</text>
</a>
</g>
</g>
<!-- Node1&#45;&gt;Node2 -->
<g id="edge1_Node000001_Node000002" class="edge">
<title>Node1&#45;&gt;Node2</title>
<g id="a_edge1_Node000001_Node000002"><a xlink:title=" ">
<path fill="none" stroke="#63b8ff" d="M1214.72,-693.46C1045.73,-678.74 689.18,-647.68 528.08,-633.65"/>
<polygon fill="#63b8ff" stroke="#63b8ff" points="1214.57,-696.96 1224.83,-694.34 1215.18,-689.99 1214.57,-696.96"/>
</a>
</g>
</g>
<!-- Node7 -->
<g id="Node000007" class="node">
<title>Node7</title>
<g id="a_Node000007"><a xlink:href="problem_8cc.html" target="_top" xlink:title=" ">
<polygon fill="white" stroke="#666666" points="1165,-30 995,-30 995,0 1165,0 1165,-30"/>
<text text-anchor="start" x="1003" y="-18" font-family="Helvetica,sans-Serif" font-size="10.00">/home/runner/work/phaseField</text>
<text text-anchor="middle" x="1080" y="-7" font-family="Helvetica,sans-Serif" font-size="10.00">/phaseField/src/core/problem.cc</text>
</a>
</g>
</g>
<!-- Node1&#45;&gt;Node7 -->
<g id="edge58_Node000001_Node000007" class="edge">
<title>Node1&#45;&gt;Node7</title>
<g id="a_edge58_Node000001_Node000007"><a xlink:title=" ">
<path fill="none" stroke="#63b8ff" d="M1398.72,-678.62C1418.23,-670.64 1437.57,-660.03 1453,-646 1513.06,-591.4 1510,-553.67 1510,-472.5 1510,-472.5 1510,-472.5 1510,-162.5 1510,-90.39 1290.57,-46.54 1165.21,-27.38"/>
<polygon fill="#63b8ff" stroke="#63b8ff" points="1397.21,-675.45 1389.15,-682.32 1399.74,-681.98 1397.21,-675.45"/>
</a>
</g>
</g>
<!-- Node16 -->
<g id="Node000016" class="node">
<title>Node16</title>
<g id="a_Node000016"><a xlink:href="refinement__manager_8h.html" target="_top" xlink:title=" ">
<polygon fill="white" stroke="#666666" points="1310,-338 1146,-338 1146,-297 1310,-297 1310,-338"/>
<text text-anchor="start" x="1154" y="-326" font-family="Helvetica,sans-Serif" font-size="10.00">/home/runner/work/phaseField</text>
<text text-anchor="start" x="1154" y="-315" font-family="Helvetica,sans-Serif" font-size="10.00">/phaseField/include/prismspf</text>
<text text-anchor="middle" x="1228" y="-304" font-family="Helvetica,sans-Serif" font-size="10.00">/core/refinement_manager.h</text>
</a>
</g>
</g>
<!-- Node1&#45;&gt;Node16 -->
<g id="edge49_Node000001_Node000016" class="edge">
<title>Node1&#45;&gt;Node16</title>
<g id="a_edge49_Node000001_Node000016"><a xlink:title=" ">
<path fill="none" stroke="#63b8ff" d="M1263.83,-676.34C1224.99,-650.11 1174,-605.08 1174,-549.5 1174,-549.5 1174,-549.5 1174,-470.5 1174,-426.79 1176.85,-414.62 1193,-374 1198.05,-361.3 1206.06,-348.31 1213.14,-338.09"/>
<polygon fill="#63b8ff" stroke="#63b8ff" points="1262.12,-679.41 1272.4,-681.97 1265.96,-673.56 1262.12,-679.41"/>
</a>
</g>
</g>
<!-- Node19 -->
<g id="Node000019" class="node">
<title>Node19</title>
<g id="a_Node000019"><a xlink:href="nucleation__manager_8h.html" target="_top" xlink:title=" ">
<polygon fill="white" stroke="#666666" points="1384,-415 1202,-415 1202,-374 1384,-374 1384,-415"/>
<text text-anchor="start" x="1210" y="-403" font-family="Helvetica,sans-Serif" font-size="10.00">/home/runner/work/phaseField</text>
<text text-anchor="start" x="1210" y="-392" font-family="Helvetica,sans-Serif" font-size="10.00">/phaseField/include/prismspf</text>
<text text-anchor="middle" x="1293" y="-381" font-family="Helvetica,sans-Serif" font-size="10.00">/nucleation/nucleation_manager.h</text>
</a>
</g>
</g>
<!-- Node1&#45;&gt;Node19 -->
<g id="edge50_Node000001_Node000019" class="edge">
<title>Node1&#45;&gt;Node19</title>
<g id="a_edge50_Node000001_Node000019"><a xlink:title=" ">
<path fill="none" stroke="#63b8ff" d="M1284.46,-673.57C1278.97,-665.19 1273.85,-655.64 1271,-646 1246.41,-562.9 1273.18,-458.06 1286.45,-415.16"/>
<polygon fill="#63b8ff" stroke="#63b8ff" points="1281.65,-675.65 1290.25,-681.83 1287.38,-671.63 1281.65,-675.65"/>
</a>
</g>
</g>
<!-- Node20 -->
<g id="Node000020" class="node">
<title>Node20</title>
<g id="a_Node000020"><a xlink:href="solver__base_8h.html" target="_top" xlink:title=" ">
<polygon fill="white" stroke="#666666" points="804,-415 640,-415 640,-374 804,-374 804,-415"/>
<text text-anchor="start" x="648" y="-403" font-family="Helvetica,sans-Serif" font-size="10.00">/home/runner/work/phaseField</text>
<text text-anchor="start" x="648" y="-392" font-family="Helvetica,sans-Serif" font-size="10.00">/phaseField/include/prismspf</text>
<text text-anchor="middle" x="722" y="-381" font-family="Helvetica,sans-Serif" font-size="10.00">/solvers/solver_base.h</text>
</a>
</g>
</g>
<!-- Node1&#45;&gt;Node20 -->
<g id="edge51_Node000001_Node000020" class="edge">
<title>Node1&#45;&gt;Node20</title>
<g id="a_edge51_Node000001_Node000020"><a xlink:title=" ">
<path fill="none" stroke="#63b8ff" d="M1214.86,-696.61C1111.63,-686.78 944.12,-657.3 832,-569 778.48,-526.86 743.59,-451.02 729.32,-415.22"/>
<polygon fill="#63b8ff" stroke="#63b8ff" points="1214.67,-700.11 1224.95,-697.53 1215.31,-693.14 1214.67,-700.11"/>
</a>
</g>
</g>
<!-- Node26 -->
<g id="Node000026" class="node">
<title>Node26</title>
<g id="a_Node000026"><a xlink:href="invm__manager_8h.html" target="_top" xlink:title=" ">
<polygon fill="white" stroke="#666666" points="1005,-569 841,-569 841,-528 1005,-528 1005,-569"/>
<text text-anchor="start" x="849" y="-557" font-family="Helvetica,sans-Serif" font-size="10.00">/home/runner/work/phaseField</text>
<text text-anchor="start" x="849" y="-546" font-family="Helvetica,sans-Serif" font-size="10.00">/phaseField/include/prismspf</text>
<text text-anchor="middle" x="923" y="-535" font-family="Helvetica,sans-Serif" font-size="10.00">/core/invm_manager.h</text>
</a>
</g>
</g>
<!-- Node1&#45;&gt;Node26 -->
<g id="edge45_Node000001_Node000026" class="edge">
<title>Node1&#45;&gt;Node26</title>
<g id="a_edge45_Node000001_Node000026"><a xlink:title=" ">
<path fill="none" stroke="#63b8ff" d="M1244.71,-678.39C1218.5,-668.55 1187.71,-656.87 1160,-646 1093.83,-620.04 1017.79,-588.84 970.07,-569.08"/>
<polygon fill="#63b8ff" stroke="#63b8ff" points="1243.55,-681.69 1254.15,-681.92 1246.01,-675.13 1243.55,-681.69"/>
</a>
</g>
</g>
<!-- Node27 -->
<g id="Node000027" class="node">
<title>Node27</title>
<g id="a_Node000027"><a xlink:href="integrator_8h.html" target="_top" xlink:title=" ">
<polygon fill="white" stroke="#666666" points="1444,-646 1280,-646 1280,-605 1444,-605 1444,-646"/>
<text text-anchor="start" x="1288" y="-634" font-family="Helvetica,sans-Serif" font-size="10.00">/home/runner/work/phaseField</text>
<text text-anchor="start" x="1288" y="-623" font-family="Helvetica,sans-Serif" font-size="10.00">/phaseField/include/prismspf</text>
<text text-anchor="middle" x="1362" y="-612" font-family="Helvetica,sans-Serif" font-size="10.00">/utilities/integrator.h</text>
</a>
</g>
</g>
<!-- Node1&#45;&gt;Node27 -->
<g id="edge52_Node000001_Node000027" class="edge">
<title>Node1&#45;&gt;Node27</title>
<g id="a_edge52_Node000001_Node000027"><a xlink:title=" ">
<path fill="none" stroke="#63b8ff" d="M1327.41,-673.67C1334.13,-664.5 1341.47,-654.5 1347.65,-646.07"/>
<polygon fill="#63b8ff" stroke="#63b8ff" points="1324.54,-671.66 1321.45,-681.79 1330.19,-675.8 1324.54,-671.66"/>
</a>
</g>
</g>
<!-- Node29 -->
<g id="Node000029" class="node">
<title>Node29</title>
<g id="a_Node000029"><a xlink:href="constraint__manager_8cc.html" target="_top" xlink:title=" ">
<polygon fill="white" stroke="#666666" points="1684.5,-646 1519.5,-646 1519.5,-605 1684.5,-605 1684.5,-646"/>
<text text-anchor="start" x="1527.5" y="-634" font-family="Helvetica,sans-Serif" font-size="10.00">/home/runner/work/phaseField</text>
<text text-anchor="start" x="1527.5" y="-623" font-family="Helvetica,sans-Serif" font-size="10.00">/phaseField/src/core/constraint</text>
<text text-anchor="middle" x="1602" y="-612" font-family="Helvetica,sans-Serif" font-size="10.00">_manager.cc</text>
</a>
</g>
</g>
<!-- Node1&#45;&gt;Node29 -->
<g id="edge55_Node000001_Node000029" class="edge">
<title>Node1&#45;&gt;Node29</title>
<g id="a_edge55_Node000001_Node000029"><a xlink:title=" ">
<path fill="none" stroke="#63b8ff" d="M1393.6,-679.48C1435.27,-668.89 1484.81,-656.29 1525.13,-646.04"/>
<polygon fill="#63b8ff" stroke="#63b8ff" points="1392.57,-676.13 1383.74,-681.99 1394.29,-682.92 1392.57,-676.13"/>
</a>
</g>
</g>
<!-- Node30 -->
<g id="Node000030" class="node">
<title>Node30</title>
<g id="a_Node000030"><a xlink:href="dof__manager_8cc.html" target="_top" xlink:title=" ">
<polygon fill="white" stroke="#666666" points="1867,-646 1703,-646 1703,-605 1867,-605 1867,-646"/>
<text text-anchor="start" x="1711" y="-634" font-family="Helvetica,sans-Serif" font-size="10.00">/home/runner/work/phaseField</text>
<text text-anchor="start" x="1711" y="-623" font-family="Helvetica,sans-Serif" font-size="10.00">/phaseField/src/core/dof</text>
<text text-anchor="middle" x="1785" y="-612" font-family="Helvetica,sans-Serif" font-size="10.00">_manager.cc</text>
</a>
</g>
</g>
<!-- Node1&#45;&gt;Node30 -->
<g id="edge56_Node000001_Node000030" class="edge">
<title>Node1&#45;&gt;Node30</title>
<g id="a_edge56_Node000001_Node000030"><a xlink:title=" ">
<path fill="none" stroke="#63b8ff" d="M1399.53,-690.05C1478.11,-679.88 1593.76,-663.91 1694,-646 1696.86,-645.49 1699.77,-644.95 1702.71,-644.4"/>
<polygon fill="#63b8ff" stroke="#63b8ff" points="1398.65,-686.63 1389.18,-691.38 1399.54,-693.57 1398.65,-686.63"/>
</a>
</g>
</g>
<!-- Node31 -->
<g id="Node000031" class="node">
<title>Node31</title>
<g id="a_Node000031"><a xlink:href="group__solution__handler_8cc.html" target="_top" xlink:title=" ">
<polygon fill="white" stroke="#666666" points="2049,-646 1885,-646 1885,-605 2049,-605 2049,-646"/>
<text text-anchor="start" x="1893" y="-634" font-family="Helvetica,sans-Serif" font-size="10.00">/home/runner/work/phaseField</text>
<text text-anchor="start" x="1893" y="-623" font-family="Helvetica,sans-Serif" font-size="10.00">/phaseField/src/core/group</text>
<text text-anchor="middle" x="1967" y="-612" font-family="Helvetica,sans-Serif" font-size="10.00">_solution_handler.cc</text>
</a>
</g>
</g>
<!-- Node1&#45;&gt;Node31 -->
<g id="edge57_Node000001_Node000031" class="edge">
<title>Node1&#45;&gt;Node31</title>
<g id="a_edge57_Node000001_Node000031"><a xlink:title=" ">
<path fill="none" stroke="#63b8ff" d="M1399.34,-695.74C1512.23,-687.95 1708.92,-671.96 1876,-646 1878.87,-645.55 1881.79,-645.07 1884.74,-644.57"/>
<polygon fill="#63b8ff" stroke="#63b8ff" points="1399.08,-692.25 1389.35,-696.42 1399.56,-699.23 1399.08,-692.25"/>
</a>
</g>
</g>
<!-- Node3 -->
<g id="Node000003" class="node">
<title>Node3</title>
<g id="a_Node000003"><a xlink:href="pde__operator__base_8h.html" target="_top" xlink:title=" ">
<polygon fill="white" stroke="#666666" points="528,-569 364,-569 364,-528 528,-528 528,-569"/>
<text text-anchor="start" x="372" y="-557" font-family="Helvetica,sans-Serif" font-size="10.00">/home/runner/work/phaseField</text>
<text text-anchor="start" x="372" y="-546" font-family="Helvetica,sans-Serif" font-size="10.00">/phaseField/include/prismspf</text>
<text text-anchor="middle" x="446" y="-535" font-family="Helvetica,sans-Serif" font-size="10.00">/core/pde_operator_base.h</text>
</a>
</g>
</g>
<!-- Node2&#45;&gt;Node3 -->
<g id="edge2_Node000002_Node000003" class="edge">
<title>Node2&#45;&gt;Node3</title>
<g id="a_edge2_Node000002_Node000003"><a xlink:title=" ">
<path fill="none" stroke="#63b8ff" d="M446,-594.69C446,-586.08 446,-576.9 446,-569.07"/>
<polygon fill="#63b8ff" stroke="#63b8ff" points="442.5,-594.79 446,-604.79 449.5,-594.79 442.5,-594.79"/>
</a>
</g>
</g>
<!-- Node4 -->
<g id="Node000004" class="node">
<title>Node4</title>
<g id="a_Node000004"><a xlink:href="mf__operator_8h.html" target="_top" xlink:title=" ">
<polygon fill="white" stroke="#666666" points="384,-338 220,-338 220,-297 384,-297 384,-338"/>
<text text-anchor="start" x="228" y="-326" font-family="Helvetica,sans-Serif" font-size="10.00">/home/runner/work/phaseField</text>
<text text-anchor="start" x="228" y="-315" font-family="Helvetica,sans-Serif" font-size="10.00">/phaseField/include/prismspf</text>
<text text-anchor="middle" x="302" y="-304" font-family="Helvetica,sans-Serif" font-size="10.00">/solvers/mf_operator.h</text>
</a>
</g>
</g>
<!-- Node2&#45;&gt;Node4 -->
<g id="edge42_Node000002_Node000004" class="edge">
<title>Node2&#45;&gt;Node4</title>
<g id="a_edge42_Node000002_Node000004"><a xlink:title=" ">
<path fill="none" stroke="#63b8ff" d="M353.79,-612.06C281.79,-596.98 186.29,-563.92 139,-492 97.79,-429.32 196.95,-368.31 258.15,-338.1"/>
<polygon fill="#63b8ff" stroke="#63b8ff" points="353.29,-615.53 363.79,-614.08 354.67,-608.67 353.29,-615.53"/>
</a>
</g>
</g>
<!-- Node13 -->
<g id="Node000013" class="node">
<title>Node13</title>
<g id="a_Node000013"><a xlink:href="mf__operator_8cc.html" target="_top" xlink:title=" ">
<polygon fill="white" stroke="#666666" points="164,-261 0,-261 0,-220 164,-220 164,-261"/>
<text text-anchor="start" x="8" y="-249" font-family="Helvetica,sans-Serif" font-size="10.00">/home/runner/work/phaseField</text>
<text text-anchor="start" x="8" y="-238" font-family="Helvetica,sans-Serif" font-size="10.00">/phaseField/src/solvers/mf</text>
<text text-anchor="middle" x="82" y="-227" font-family="Helvetica,sans-Serif" font-size="10.00">_operator.cc</text>
</a>
</g>
</g>
<!-- Node2&#45;&gt;Node13 -->
<g id="edge44_Node000002_Node000013" class="edge">
<title>Node2&#45;&gt;Node13</title>
<g id="a_edge44_Node000002_Node000013"><a xlink:title=" ">
<path fill="none" stroke="#63b8ff" d="M353.8,-621.05C296.76,-615.43 223.82,-601.73 167,-569 117.47,-540.48 82,-529.65 82,-472.5 82,-472.5 82,-472.5 82,-393.5 82,-346 82,-290.15 82,-261.18"/>
<polygon fill="#63b8ff" stroke="#63b8ff" points="353.62,-624.55 363.9,-621.98 354.26,-617.58 353.62,-624.55"/>
</a>
</g>
</g>
<!-- Node25 -->
<g id="Node000025" class="node">
<title>Node25</title>
<g id="a_Node000025"><a xlink:href="field__container_8cc.html" target="_top" xlink:title=" ">
<polygon fill="white" stroke="#666666" points="710,-569 546,-569 546,-528 710,-528 710,-569"/>
<text text-anchor="start" x="554" y="-557" font-family="Helvetica,sans-Serif" font-size="10.00">/home/runner/work/phaseField</text>
<text text-anchor="start" x="554" y="-546" font-family="Helvetica,sans-Serif" font-size="10.00">/phaseField/src/core/field</text>
<text text-anchor="middle" x="628" y="-535" font-family="Helvetica,sans-Serif" font-size="10.00">_container.cc</text>
</a>
</g>
</g>
<!-- Node2&#45;&gt;Node25 -->
<g id="edge43_Node000002_Node000025" class="edge">
<title>Node2&#45;&gt;Node25</title>
<g id="a_edge43_Node000002_Node000025"><a xlink:title=" ">
<path fill="none" stroke="#63b8ff" d="M502.71,-601.13C527.71,-590.83 556.75,-578.86 580.58,-569.04"/>
<polygon fill="#63b8ff" stroke="#63b8ff" points="501.26,-597.94 493.34,-604.99 503.92,-604.42 501.26,-597.94"/>
</a>
</g>
</g>
<!-- Node3&#45;&gt;Node4 -->
<g id="edge3_Node000003_Node000004" class="edge">
<title>Node3&#45;&gt;Node4</title>
<g id="a_edge3_Node000003_Node000004"><a xlink:title=" ">
<path fill="none" stroke="#63b8ff" d="M488.63,-521.68C498.44,-513.51 507.57,-503.54 513,-492 520.75,-475.51 521.82,-466.95 513,-451 481.29,-393.65 413.22,-357.77 362.92,-338.04"/>
<polygon fill="#63b8ff" stroke="#63b8ff" points="486.44,-518.95 480.68,-527.85 490.73,-524.48 486.44,-518.95"/>
</a>
</g>
</g>
<!-- Node14 -->
<g id="Node000014" class="node">
<title>Node14</title>
<g id="a_Node000014"><a xlink:href="solve__context_8h.html" target="_top" xlink:title=" ">
<polygon fill="white" stroke="#666666" points="1052,-492 888,-492 888,-451 1052,-451 1052,-492"/>
<text text-anchor="start" x="896" y="-480" font-family="Helvetica,sans-Serif" font-size="10.00">/home/runner/work/phaseField</text>
<text text-anchor="start" x="896" y="-469" font-family="Helvetica,sans-Serif" font-size="10.00">/phaseField/include/prismspf</text>
<text text-anchor="middle" x="970" y="-458" font-family="Helvetica,sans-Serif" font-size="10.00">/solvers/solve_context.h</text>
</a>
</g>
</g>
<!-- Node3&#45;&gt;Node14 -->
<g id="edge17_Node000003_Node000014" class="edge">
<title>Node3&#45;&gt;Node14</title>
<g id="a_edge17_Node000003_Node000014"><a xlink:title=" ">
<path fill="none" stroke="#63b8ff" d="M538.23,-527.86C665.76,-506.37 802.8,-490.19 887.89,-480.96"/>
<polygon fill="#63b8ff" stroke="#63b8ff" points="537.55,-524.42 528.28,-529.55 538.73,-531.32 537.55,-524.42"/>
</a>
</g>
</g>
<!-- Node3&#45;&gt;Node20 -->
<g id="edge39_Node000003_Node000020" class="edge">
<title>Node3&#45;&gt;Node20</title>
<g id="a_edge39_Node000003_Node000020"><a xlink:title=" ">
<path fill="none" stroke="#63b8ff" d="M490.59,-522.95C545.04,-492.96 636.06,-442.83 686.18,-415.23"/>
<polygon fill="#63b8ff" stroke="#63b8ff" points="488.59,-520.05 481.52,-527.94 491.97,-526.18 488.59,-520.05"/>
</a>
</g>
</g>
<!-- Node23 -->
<g id="Node000023" class="node">
<title>Node23</title>
<g id="a_Node000023"><a xlink:href="initial__conditions_8cc.html" target="_top" xlink:title=" ">
<polygon fill="white" stroke="#666666" points="312,-492 148,-492 148,-451 312,-451 312,-492"/>
<text text-anchor="start" x="156" y="-480" font-family="Helvetica,sans-Serif" font-size="10.00">/home/runner/work/phaseField</text>
<text text-anchor="start" x="156" y="-469" font-family="Helvetica,sans-Serif" font-size="10.00">/phaseField/src/core/initial</text>
<text text-anchor="middle" x="230" y="-458" font-family="Helvetica,sans-Serif" font-size="10.00">_conditions.cc</text>
</a>
</g>
</g>
<!-- Node3&#45;&gt;Node23 -->
<g id="edge40_Node000003_Node000023" class="edge">
<title>Node3&#45;&gt;Node23</title>
<g id="a_edge40_Node000003_Node000023"><a xlink:title=" ">
<path fill="none" stroke="#63b8ff" d="M380.26,-524.67C350.25,-514.25 315.06,-502.03 286.28,-492.04"/>
<polygon fill="#63b8ff" stroke="#63b8ff" points="379.22,-528.02 389.81,-527.99 381.51,-521.4 379.22,-528.02"/>
</a>
</g>
</g>
<!-- Node24 -->
<g id="Node000024" class="node">
<title>Node24</title>
<g id="a_Node000024"><a xlink:href="nonuniform__dirichlet_8cc.html" target="_top" xlink:title=" ">
<polygon fill="white" stroke="#666666" points="503.5,-492 330.5,-492 330.5,-451 503.5,-451 503.5,-492"/>
<text text-anchor="start" x="338.5" y="-480" font-family="Helvetica,sans-Serif" font-size="10.00">/home/runner/work/phaseField</text>
<text text-anchor="start" x="338.5" y="-469" font-family="Helvetica,sans-Serif" font-size="10.00">/phaseField/src/core/nonuniform</text>
<text text-anchor="middle" x="417" y="-458" font-family="Helvetica,sans-Serif" font-size="10.00">_dirichlet.cc</text>
</a>
</g>
</g>
<!-- Node3&#45;&gt;Node24 -->
<g id="edge41_Node000003_Node000024" class="edge">
<title>Node3&#45;&gt;Node24</title>
<g id="a_edge41_Node000003_Node000024"><a xlink:title=" ">
<path fill="none" stroke="#63b8ff" d="M434.69,-518.26C431.3,-509.48 427.66,-500.07 424.57,-492.07"/>
<polygon fill="#63b8ff" stroke="#63b8ff" points="431.51,-519.73 438.38,-527.79 438.04,-517.21 431.51,-519.73"/>
</a>
</g>
</g>
<!-- Node5 -->
<g id="Node000005" class="node">
<title>Node5</title>
<g id="a_Node000005"><a xlink:href="explicit__solver_8h.html" target="_top" xlink:title=" ">
<polygon fill="white" stroke="#666666" points="642,-261 478,-261 478,-220 642,-220 642,-261"/>
<text text-anchor="start" x="486" y="-249" font-family="Helvetica,sans-Serif" font-size="10.00">/home/runner/work/phaseField</text>
<text text-anchor="start" x="486" y="-238" font-family="Helvetica,sans-Serif" font-size="10.00">/phaseField/include/prismspf</text>
<text text-anchor="middle" x="560" y="-227" font-family="Helvetica,sans-Serif" font-size="10.00">/solvers/explicit_solver.h</text>
</a>
</g>
</g>
<!-- Node4&#45;&gt;Node5 -->
<g id="edge4_Node000004_Node000005" class="edge">
<title>Node4&#45;&gt;Node5</title>
<g id="a_edge4_Node000004_Node000005"><a xlink:title=" ">
<path fill="none" stroke="#63b8ff" d="M379.13,-294.08C415.28,-283.57 457.96,-271.16 492.78,-261.04"/>
<polygon fill="#63b8ff" stroke="#63b8ff" points="377.74,-290.84 369.11,-296.99 379.69,-297.56 377.74,-290.84"/>
</a>
</g>
</g>
<!-- Node9 -->
<g id="Node000009" class="node">
<title>Node9</title>
<g id="a_Node000009"><a xlink:href="linear__helper_8h.html" target="_top" xlink:title=" ">
<polygon fill="white" stroke="#666666" points="824,-261 660,-261 660,-220 824,-220 824,-261"/>
<text text-anchor="start" x="668" y="-249" font-family="Helvetica,sans-Serif" font-size="10.00">/home/runner/work/phaseField</text>
<text text-anchor="start" x="668" y="-238" font-family="Helvetica,sans-Serif" font-size="10.00">/phaseField/include/prismspf</text>
<text text-anchor="middle" x="742" y="-227" font-family="Helvetica,sans-Serif" font-size="10.00">/solvers/linear_helper.h</text>
</a>
</g>
</g>
<!-- Node4&#45;&gt;Node9 -->
<g id="edge8_Node000004_Node000009" class="edge">
<title>Node4&#45;&gt;Node9</title>
<g id="a_edge8_Node000004_Node000009"><a xlink:title=" ">
<path fill="none" stroke="#63b8ff" d="M394.2,-303.21C464.69,-292.72 564.2,-277.19 651,-261 653.86,-260.47 656.77,-259.91 659.7,-259.34"/>
<polygon fill="#63b8ff" stroke="#63b8ff" points="393.39,-299.79 384.01,-304.72 394.42,-306.72 393.39,-299.79"/>
</a>
</g>
</g>
<!-- Node10 -->
<g id="Node000010" class="node">
<title>Node10</title>
<g id="a_Node000010"><a xlink:href="linear__solver_8h.html" target="_top" xlink:title=" ">
<polygon fill="white" stroke="#666666" points="384,-261 220,-261 220,-220 384,-220 384,-261"/>
<text text-anchor="start" x="228" y="-249" font-family="Helvetica,sans-Serif" font-size="10.00">/home/runner/work/phaseField</text>
<text text-anchor="start" x="228" y="-238" font-family="Helvetica,sans-Serif" font-size="10.00">/phaseField/include/prismspf</text>
<text text-anchor="middle" x="302" y="-227" font-family="Helvetica,sans-Serif" font-size="10.00">/solvers/linear_solver.h</text>
</a>
</g>
</g>
<!-- Node4&#45;&gt;Node10 -->
<g id="edge9_Node000004_Node000010" class="edge">
<title>Node4&#45;&gt;Node10</title>
<g id="a_edge9_Node000004_Node000010"><a xlink:title=" ">
<path fill="none" stroke="#63b8ff" d="M302,-286.69C302,-278.08 302,-268.9 302,-261.07"/>
<polygon fill="#63b8ff" stroke="#63b8ff" points="298.5,-286.79 302,-296.79 305.5,-286.79 298.5,-286.79"/>
</a>
</g>
</g>
<!-- Node11 -->
<g id="Node000011" class="node">
<title>Node11</title>
<g id="a_Node000011"><a xlink:href="mg__solver_8h.html" target="_top" xlink:title=" ">
<polygon fill="white" stroke="#666666" points="283,-184 119,-184 119,-143 283,-143 283,-184"/>
<text text-anchor="start" x="127" y="-172" font-family="Helvetica,sans-Serif" font-size="10.00">/home/runner/work/phaseField</text>
<text text-anchor="start" x="127" y="-161" font-family="Helvetica,sans-Serif" font-size="10.00">/phaseField/include/prismspf</text>
<text text-anchor="middle" x="201" y="-150" font-family="Helvetica,sans-Serif" font-size="10.00">/solvers/mg_solver.h</text>
</a>
</g>
</g>
<!-- Node4&#45;&gt;Node11 -->
<g id="edge14_Node000004_Node000011" class="edge">
<title>Node4&#45;&gt;Node11</title>
<g id="a_edge14_Node000004_Node000011"><a xlink:title=" ">
<path fill="none" stroke="#63b8ff" d="M243.52,-291.75C230.88,-283.74 218.95,-273.59 211,-261 196.34,-237.79 196.3,-205.01 198.2,-184.26"/>
<polygon fill="#63b8ff" stroke="#63b8ff" points="241.95,-294.89 252.34,-296.96 245.51,-288.86 241.95,-294.89"/>
</a>
</g>
</g>
<!-- Node12 -->
<g id="Node000012" class="node">
<title>Node12</title>
<g id="a_Node000012"><a xlink:href="newton__solver_8h.html" target="_top" xlink:title=" ">
<polygon fill="white" stroke="#666666" points="522,-184 358,-184 358,-143 522,-143 522,-184"/>
<text text-anchor="start" x="366" y="-172" font-family="Helvetica,sans-Serif" font-size="10.00">/home/runner/work/phaseField</text>
<text text-anchor="start" x="366" y="-161" font-family="Helvetica,sans-Serif" font-size="10.00">/phaseField/include/prismspf</text>
<text text-anchor="middle" x="440" y="-150" font-family="Helvetica,sans-Serif" font-size="10.00">/solvers/newton_solver.h</text>
</a>
</g>
</g>
<!-- Node4&#45;&gt;Node12 -->
<g id="edge15_Node000004_Node000012" class="edge">
<title>Node4&#45;&gt;Node12</title>
<g id="a_edge15_Node000004_Node000012"><a xlink:title=" ">
<path fill="none" stroke="#63b8ff" d="M354.08,-291.66C367.94,-283.31 382.07,-273.01 393,-261 413.57,-238.39 427.07,-205.15 434.12,-184.17"/>
<polygon fill="#63b8ff" stroke="#63b8ff" points="351.97,-288.84 345.06,-296.87 355.47,-294.91 351.97,-288.84"/>
</a>
</g>
</g>
<!-- Node4&#45;&gt;Node13 -->
<g id="edge16_Node000004_Node000013" class="edge">
<title>Node4&#45;&gt;Node13</title>
<g id="a_edge16_Node000004_Node000013"><a xlink:title=" ">
<path fill="none" stroke="#63b8ff" d="M235.05,-293.67C204.47,-283.25 168.63,-271.03 139.32,-261.04"/>
<polygon fill="#63b8ff" stroke="#63b8ff" points="234.18,-297.08 244.77,-296.99 236.44,-290.45 234.18,-297.08"/>
</a>
</g>
</g>
<!-- Node6 -->
<g id="Node000006" class="node">
<title>Node6</title>
<g id="a_Node000006"><a xlink:href="solvers_8h.html" target="_top" xlink:title=" ">
<polygon fill="white" stroke="#666666" points="642,-107 478,-107 478,-66 642,-66 642,-107"/>
<text text-anchor="start" x="486" y="-95" font-family="Helvetica,sans-Serif" font-size="10.00">/home/runner/work/phaseField</text>
<text text-anchor="start" x="486" y="-84" font-family="Helvetica,sans-Serif" font-size="10.00">/phaseField/include/prismspf</text>
<text text-anchor="middle" x="560" y="-73" font-family="Helvetica,sans-Serif" font-size="10.00">/solvers/solvers.h</text>
</a>
</g>
</g>
<!-- Node5&#45;&gt;Node6 -->
<g id="edge5_Node000005_Node000006" class="edge">
<title>Node5&#45;&gt;Node6</title>
<g id="a_edge5_Node000005_Node000006"><a xlink:title=" ">
<path fill="none" stroke="#63b8ff" d="M560,-209.58C560,-179.36 560,-133.53 560,-107.47"/>
<polygon fill="#63b8ff" stroke="#63b8ff" points="556.5,-209.94 560,-219.94 563.5,-209.94 556.5,-209.94"/>
</a>
</g>
</g>
<!-- Node6&#45;&gt;Node7 -->
<g id="edge6_Node000006_Node000007" class="edge">
<title>Node6&#45;&gt;Node7</title>
<g id="a_edge6_Node000006_Node000007"><a xlink:title=" ">
<path fill="none" stroke="#63b8ff" d="M652.2,-73.18C749.2,-60.21 900.61,-39.98 994.87,-27.38"/>
<polygon fill="#63b8ff" stroke="#63b8ff" points="651.56,-69.73 642.11,-74.53 652.48,-76.67 651.56,-69.73"/>
</a>
</g>
</g>
<!-- Node8 -->
<g id="Node000008" class="node">
<title>Node8</title>
<g id="a_Node000008"><a xlink:href="solvers_8cc.html" target="_top" xlink:title=" ">
<polygon fill="white" stroke="#666666" points="649.5,-30 470.5,-30 470.5,0 649.5,0 649.5,-30"/>
<text text-anchor="start" x="478.5" y="-18" font-family="Helvetica,sans-Serif" font-size="10.00">/home/runner/work/phaseField</text>
<text text-anchor="middle" x="560" y="-7" font-family="Helvetica,sans-Serif" font-size="10.00">/phaseField/src/solvers/solvers.cc</text>
</a>
</g>
</g>
<!-- Node6&#45;&gt;Node8 -->
<g id="edge7_Node000006_Node000008" class="edge">
<title>Node6&#45;&gt;Node8</title>
<g id="a_edge7_Node000006_Node000008"><a xlink:title=" ">
<path fill="none" stroke="#63b8ff" d="M560,-55.66C560,-46.76 560,-37.42 560,-30.04"/>
<polygon fill="#63b8ff" stroke="#63b8ff" points="556.5,-55.77 560,-65.77 563.5,-55.77 556.5,-55.77"/>
</a>
</g>
</g>
<!-- Node10&#45;&gt;Node6 -->
<g id="edge13_Node000010_Node000006" class="edge">
<title>Node10&#45;&gt;Node6</title>
<g id="a_edge13_Node000010_Node000006"><a xlink:title=" ">
<path fill="none" stroke="#63b8ff" d="M309.18,-210.1C315.95,-188.5 328.24,-160.05 349,-143 385.16,-113.32 435.53,-99.36 478,-92.86"/>
<polygon fill="#63b8ff" stroke="#63b8ff" points="305.8,-209.2 306.37,-219.78 312.52,-211.15 305.8,-209.2"/>
</a>
</g>
</g>
<!-- Node10&#45;&gt;Node11 -->
<g id="edge10_Node000010_Node000011" class="edge">
<title>Node10&#45;&gt;Node11</title>
<g id="a_edge10_Node000010_Node000011"><a xlink:title=" ">
<path fill="none" stroke="#63b8ff" d="M267.41,-213.82C254.35,-204.11 239.7,-193.24 227.49,-184.17"/>
<polygon fill="#63b8ff" stroke="#63b8ff" points="265.61,-216.84 275.73,-219.99 269.79,-211.22 265.61,-216.84"/>
</a>
</g>
</g>
<!-- Node10&#45;&gt;Node12 -->
<g id="edge11_Node000010_Node000012" class="edge">
<title>Node10&#45;&gt;Node12</title>
<g id="a_edge11_Node000010_Node000012"><a xlink:title=" ">
<path fill="none" stroke="#63b8ff" d="M346.72,-215.19C365.2,-205.15 386.33,-193.67 403.8,-184.17"/>
<polygon fill="#63b8ff" stroke="#63b8ff" points="345.01,-212.14 337.9,-219.99 348.36,-218.29 345.01,-212.14"/>
</a>
</g>
</g>
<!-- Node12&#45;&gt;Node6 -->
<g id="edge12_Node000012_Node000006" class="edge">
<title>Node12&#45;&gt;Node6</title>
<g id="a_edge12_Node000012_Node000006"><a xlink:title=" ">
<path fill="none" stroke="#63b8ff" d="M479.77,-137.64C495.62,-127.74 513.61,-116.5 528.52,-107.17"/>
<polygon fill="#63b8ff" stroke="#63b8ff" points="477.84,-134.72 471.22,-142.99 481.55,-140.66 477.84,-134.72"/>
</a>
</g>
</g>
<!-- Node15 -->
<g id="Node000015" class="node">
<title>Node15</title>
<g id="a_Node000015"><a xlink:href="problem_8h.html" target="_top" xlink:title=" ">
<polygon fill="white" stroke="#666666" points="1310,-261 1146,-261 1146,-220 1310,-220 1310,-261"/>
<text text-anchor="start" x="1154" y="-249" font-family="Helvetica,sans-Serif" font-size="10.00">/home/runner/work/phaseField</text>
<text text-anchor="start" x="1154" y="-238" font-family="Helvetica,sans-Serif" font-size="10.00">/phaseField/include/prismspf</text>
<text text-anchor="middle" x="1228" y="-227" font-family="Helvetica,sans-Serif" font-size="10.00">/core/problem.h</text>
</a>
</g>
</g>
<!-- Node14&#45;&gt;Node15 -->
<g id="edge18_Node000014_Node000015" class="edge">
<title>Node14&#45;&gt;Node15</title>
<g id="a_edge18_Node000014_Node000015"><a xlink:title=" ">
<path fill="none" stroke="#63b8ff" d="M1034.29,-446.33C1050.27,-438.15 1066.41,-427.77 1079,-415 1120.03,-373.39 1097.6,-340.15 1137,-297 1150.35,-282.38 1168.44,-270.28 1184.97,-261.16"/>
<polygon fill="#63b8ff" stroke="#63b8ff" points="1032.38,-443.37 1024.93,-450.9 1035.45,-449.66 1032.38,-443.37"/>
</a>
</g>
</g>
<!-- Node14&#45;&gt;Node16 -->
<g id="edge20_Node000014_Node000016" class="edge">
<title>Node14&#45;&gt;Node16</title>
<g id="a_edge20_Node000014_Node000016"><a xlink:title=" ">
<path fill="none" stroke="#63b8ff" d="M1042.94,-447.33C1065.81,-438.68 1090.64,-427.8 1112,-415 1136.07,-400.58 1138.46,-391.98 1160,-374 1174.39,-361.99 1190.65,-348.71 1203.66,-338.15"/>
<polygon fill="#63b8ff" stroke="#63b8ff" points="1041.44,-444.15 1033.27,-450.9 1043.86,-450.72 1041.44,-444.15"/>
</a>
</g>
</g>
<!-- Node17 -->
<g id="Node000017" class="node">
<title>Node17</title>
<g id="a_Node000017"><a xlink:href="solution__output_8h.html" target="_top" xlink:title=" ">
<polygon fill="white" stroke="#666666" points="1052,-415 888,-415 888,-374 1052,-374 1052,-415"/>
<text text-anchor="start" x="896" y="-403" font-family="Helvetica,sans-Serif" font-size="10.00">/home/runner/work/phaseField</text>
<text text-anchor="start" x="896" y="-392" font-family="Helvetica,sans-Serif" font-size="10.00">/phaseField/include/prismspf</text>
<text text-anchor="middle" x="970" y="-381" font-family="Helvetica,sans-Serif" font-size="10.00">/core/solution_output.h</text>
</a>
</g>
</g>
<!-- Node14&#45;&gt;Node17 -->
<g id="edge22_Node000014_Node000017" class="edge">
<title>Node14&#45;&gt;Node17</title>
<g id="a_edge22_Node000014_Node000017"><a xlink:title=" ">
<path fill="none" stroke="#63b8ff" d="M970,-440.69C970,-432.08 970,-422.9 970,-415.07"/>
<polygon fill="#63b8ff" stroke="#63b8ff" points="966.5,-440.79 970,-450.79 973.5,-440.79 966.5,-440.79"/>
</a>
</g>
</g>
<!-- Node14&#45;&gt;Node19 -->
<g id="edge26_Node000014_Node000019" class="edge">
<title>Node14&#45;&gt;Node19</title>
<g id="a_edge26_Node000014_Node000019"><a xlink:title=" ">
<path fill="none" stroke="#63b8ff" d="M1062.34,-449.06C1108.47,-438.35 1163.89,-425.48 1208.84,-415.04"/>
<polygon fill="#63b8ff" stroke="#63b8ff" points="1061.29,-445.71 1052.34,-451.38 1062.87,-452.53 1061.29,-445.71"/>
</a>
</g>
</g>
<!-- Node14&#45;&gt;Node20 -->
<g id="edge28_Node000014_Node000020" class="edge">
<title>Node14&#45;&gt;Node20</title>
<g id="a_edge28_Node000014_Node000020"><a xlink:title=" ">
<path fill="none" stroke="#63b8ff" d="M895.86,-448.08C861.11,-437.57 820.09,-425.16 786.62,-415.04"/>
<polygon fill="#63b8ff" stroke="#63b8ff" points="894.9,-451.45 905.49,-450.99 896.93,-444.75 894.9,-451.45"/>
</a>
</g>
</g>
<!-- Node15&#45;&gt;Node7 -->
<g id="edge19_Node000015_Node000007" class="edge">
<title>Node15&#45;&gt;Node7</title>
<g id="a_edge19_Node000015_Node000007"><a xlink:title=" ">
<path fill="none" stroke="#63b8ff" d="M1209.29,-211.24C1177.31,-162.96 1113.31,-66.3 1089.34,-30.11"/>
<polygon fill="#63b8ff" stroke="#63b8ff" points="1206.43,-213.26 1214.87,-219.67 1212.26,-209.4 1206.43,-213.26"/>
</a>
</g>
</g>
<!-- Node16&#45;&gt;Node15 -->
<g id="edge21_Node000016_Node000015" class="edge">
<title>Node16&#45;&gt;Node15</title>
<g id="a_edge21_Node000016_Node000015"><a xlink:title=" ">
<path fill="none" stroke="#63b8ff" d="M1228,-286.69C1228,-278.08 1228,-268.9 1228,-261.07"/>
<polygon fill="#63b8ff" stroke="#63b8ff" points="1224.5,-286.79 1228,-296.79 1231.5,-286.79 1224.5,-286.79"/>
</a>
</g>
</g>
<!-- Node17&#45;&gt;Node7 -->
<g id="edge24_Node000017_Node000007" class="edge">
<title>Node17&#45;&gt;Node7</title>
<g id="a_edge24_Node000017_Node000007"><a xlink:title=" ">
<path fill="none" stroke="#63b8ff" d="M1026.92,-368.71C1039.85,-360.63 1052.32,-350.46 1061,-338 1086,-302.14 1080,-285.21 1080,-241.5 1080,-241.5 1080,-241.5 1080,-162.5 1080,-113.92 1080,-56.28 1080,-30.14"/>
<polygon fill="#63b8ff" stroke="#63b8ff" points="1024.79,-365.89 1017.93,-373.96 1028.33,-371.93 1024.79,-365.89"/>
</a>
</g>
</g>
<!-- Node17&#45;&gt;Node17 -->
<g id="edge23_Node000017_Node000017" class="edge">
<title>Node17&#45;&gt;Node17</title>
<g id="a_edge23_Node000017_Node000017"><a xlink:title=" ">
<path fill="none" stroke="#63b8ff" d="M1062.27,-403.88C1067.12,-401.57 1070,-398.45 1070,-394.5 1070,-388.34 1062.99,-384.18 1052.38,-382.01"/>
<polygon fill="#63b8ff" stroke="#63b8ff" points="1060.87,-400.65 1052.38,-406.99 1062.97,-407.33 1060.87,-400.65"/>
</a>
</g>
</g>
<!-- Node18 -->
<g id="Node000018" class="node">
<title>Node18</title>
<g id="a_Node000018"><a xlink:href="solution__output_8cc.html" target="_top" xlink:title=" ">
<polygon fill="white" stroke="#666666" points="1052,-338 888,-338 888,-297 1052,-297 1052,-338"/>
<text text-anchor="start" x="896" y="-326" font-family="Helvetica,sans-Serif" font-size="10.00">/home/runner/work/phaseField</text>
<text text-anchor="start" x="896" y="-315" font-family="Helvetica,sans-Serif" font-size="10.00">/phaseField/src/core/solution</text>
<text text-anchor="middle" x="970" y="-304" font-family="Helvetica,sans-Serif" font-size="10.00">_output.cc</text>
</a>
</g>
</g>
<!-- Node17&#45;&gt;Node18 -->
<g id="edge25_Node000017_Node000018" class="edge">
<title>Node17&#45;&gt;Node18</title>
<g id="a_edge25_Node000017_Node000018"><a xlink:title=" ">
<path fill="none" stroke="#63b8ff" d="M970,-363.69C970,-355.08 970,-345.9 970,-338.07"/>
<polygon fill="#63b8ff" stroke="#63b8ff" points="966.5,-363.79 970,-373.79 973.5,-363.79 966.5,-363.79"/>
</a>
</g>
</g>
<!-- Node19&#45;&gt;Node15 -->
<g id="edge27_Node000019_Node000015" class="edge">
<title>Node19&#45;&gt;Node15</title>
<g id="a_edge27_Node000019_Node000015"><a xlink:title=" ">
<path fill="none" stroke="#63b8ff" d="M1311.54,-365C1322.02,-345 1330.88,-318.16 1319,-297 1310.21,-281.35 1295.02,-269.59 1279.54,-261.02"/>
<polygon fill="#63b8ff" stroke="#63b8ff" points="1308.36,-363.5 1306.51,-373.94 1314.46,-366.94 1308.36,-363.5"/>
</a>
</g>
</g>
<!-- Node20&#45;&gt;Node4 -->
<g id="edge35_Node000020_Node000004" class="edge">
<title>Node20&#45;&gt;Node4</title>
<g id="a_edge35_Node000020_Node000004"><a xlink:title=" ">
<path fill="none" stroke="#63b8ff" d="M629.61,-377C556.23,-363.9 454.56,-345.74 384.03,-333.15"/>
<polygon fill="#63b8ff" stroke="#63b8ff" points="629.31,-380.5 639.77,-378.82 630.54,-373.61 629.31,-380.5"/>
</a>
</g>
</g>
<!-- Node20&#45;&gt;Node5 -->
<g id="edge32_Node000020_Node000005" class="edge">
<title>Node20&#45;&gt;Node5</title>
<g id="a_edge32_Node000020_Node000005"><a xlink:title=" ">
<path fill="none" stroke="#63b8ff" d="M629.79,-375.06C592.63,-365.58 555.94,-352.89 545,-338 528.54,-315.59 539.33,-282.29 549.2,-261.25"/>
<polygon fill="#63b8ff" stroke="#63b8ff" points="629.2,-378.52 639.75,-377.52 630.88,-371.72 629.2,-378.52"/>
</a>
</g>
</g>
<!-- Node20&#45;&gt;Node7 -->
<g id="edge37_Node000020_Node000007" class="edge">
<title>Node20&#45;&gt;Node7</title>
<g id="a_edge37_Node000020_Node000007"><a xlink:title=" ">
<path fill="none" stroke="#63b8ff" d="M763.1,-368.35C776.38,-359.45 790.81,-348.92 803,-338 920.81,-232.45 1035.67,-77.72 1069.81,-30.32"/>
<polygon fill="#63b8ff" stroke="#63b8ff" points="761.01,-365.54 754.57,-373.95 764.85,-371.39 761.01,-365.54"/>
</a>
</g>
</g>
<!-- Node20&#45;&gt;Node9 -->
<g id="edge33_Node000020_Node000009" class="edge">
<title>Node20&#45;&gt;Node9</title>
<g id="a_edge33_Node000020_Node000009"><a xlink:title=" ">
<path fill="none" stroke="#63b8ff" d="M725.88,-363.98C729.86,-333.76 735.93,-287.64 739.37,-261.47"/>
<polygon fill="#63b8ff" stroke="#63b8ff" points="722.41,-363.57 724.57,-373.94 729.35,-364.48 722.41,-363.57"/>
</a>
</g>
</g>
<!-- Node20&#45;&gt;Node10 -->
<g id="edge34_Node000020_Node000010" class="edge">
<title>Node20&#45;&gt;Node10</title>
<g id="a_edge34_Node000020_Node000010"><a xlink:title=" ">
<path fill="none" stroke="#63b8ff" d="M629.88,-377.67C571.19,-366.68 501.23,-351.61 474,-338 448.9,-325.46 449.71,-312 426,-297 403.67,-282.88 377.15,-270.49 354.37,-261.02"/>
<polygon fill="#63b8ff" stroke="#63b8ff" points="629.47,-381.16 639.94,-379.54 630.75,-374.28 629.47,-381.16"/>
</a>
</g>
</g>
<!-- Node20&#45;&gt;Node12 -->
<g id="edge36_Node000020_Node000012" class="edge">
<title>Node20&#45;&gt;Node12</title>
<g id="a_edge36_Node000020_Node000012"><a xlink:title=" ">
<path fill="none" stroke="#63b8ff" d="M629.7,-378.29C596.98,-369.96 561.09,-357.25 532,-338 495.13,-313.6 489.76,-300.04 469,-261 455.77,-236.13 447.71,-204.38 443.55,-184.23"/>
<polygon fill="#63b8ff" stroke="#63b8ff" points="629.2,-381.77 639.75,-380.74 630.86,-374.97 629.2,-381.77"/>
</a>
</g>
</g>
<!-- Node20&#45;&gt;Node16 -->
<g id="edge29_Node000020_Node000016" class="edge">
<title>Node20&#45;&gt;Node16</title>
<g id="a_edge29_Node000020_Node000016"><a xlink:title=" ">
<path fill="none" stroke="#63b8ff" d="M814.29,-379.82C909.04,-365.78 1055.1,-344.13 1145.93,-330.66"/>
<polygon fill="#63b8ff" stroke="#63b8ff" points="813.52,-376.4 804.14,-381.32 814.55,-383.32 813.52,-376.4"/>
</a>
</g>
</g>
<!-- Node21 -->
<g id="Node000021" class="node">
<title>Node21</title>
<g id="a_Node000021"><a xlink:href="constant__solver_8h.html" target="_top" xlink:title=" ">
<polygon fill="white" stroke="#666666" points="807,-184 643,-184 643,-143 807,-143 807,-184"/>
<text text-anchor="start" x="651" y="-172" font-family="Helvetica,sans-Serif" font-size="10.00">/home/runner/work/phaseField</text>
<text text-anchor="start" x="651" y="-161" font-family="Helvetica,sans-Serif" font-size="10.00">/phaseField/include/prismspf</text>
<text text-anchor="middle" x="725" y="-150" font-family="Helvetica,sans-Serif" font-size="10.00">/solvers/constant_solver.h</text>
</a>
</g>
</g>
<!-- Node20&#45;&gt;Node21 -->
<g id="edge30_Node000020_Node000021" class="edge">
<title>Node20&#45;&gt;Node21</title>
<g id="a_edge30_Node000020_Node000021"><a xlink:title=" ">
<path fill="none" stroke="#63b8ff" d="M746.58,-366.23C777.88,-331.19 828.5,-273.39 833,-261 839.23,-243.87 842.49,-235.55 833,-220 823.22,-203.99 807.19,-192.4 790.44,-184.1"/>
<polygon fill="#63b8ff" stroke="#63b8ff" points="743.9,-363.98 739.83,-373.76 749.11,-368.65 743.9,-363.98"/>
</a>
</g>
</g>
<!-- Node22 -->
<g id="Node000022" class="node">
<title>Node22</title>
<g id="a_Node000022"><a xlink:href="solver__base_8cc.html" target="_top" xlink:title=" ">
<polygon fill="white" stroke="#666666" points="718,-338 554,-338 554,-297 718,-297 718,-338"/>
<text text-anchor="start" x="562" y="-326" font-family="Helvetica,sans-Serif" font-size="10.00">/home/runner/work/phaseField</text>
<text text-anchor="start" x="562" y="-315" font-family="Helvetica,sans-Serif" font-size="10.00">/phaseField/src/solvers/solver</text>
<text text-anchor="middle" x="636" y="-304" font-family="Helvetica,sans-Serif" font-size="10.00">_base.cc</text>
</a>
</g>
</g>
<!-- Node20&#45;&gt;Node22 -->
<g id="edge38_Node000020_Node000022" class="edge">
<title>Node20&#45;&gt;Node22</title>
<g id="a_edge38_Node000020_Node000022"><a xlink:title=" ">
<path fill="none" stroke="#63b8ff" d="M691.69,-367.07C680.75,-357.52 668.6,-346.93 658.44,-338.07"/>
<polygon fill="#63b8ff" stroke="#63b8ff" points="689.57,-369.86 699.4,-373.79 694.17,-364.58 689.57,-369.86"/>
</a>
</g>
</g>
<!-- Node21&#45;&gt;Node6 -->
<g id="edge31_Node000021_Node000006" class="edge">
<title>Node21&#45;&gt;Node6</title>
<g id="a_edge31_Node000021_Node000006"><a xlink:title=" ">
<path fill="none" stroke="#63b8ff" d="M672.69,-138.72C650.23,-128.51 624.31,-116.73 602.99,-107.04"/>
<polygon fill="#63b8ff" stroke="#63b8ff" points="671.53,-142.04 682.08,-142.99 674.42,-135.67 671.53,-142.04"/>
</a>
</g>
</g>
<!-- Node26&#45;&gt;Node9 -->
<g id="edge46_Node000026_Node000009" class="edge">
<title>Node26&#45;&gt;Node9</title>
<g id="a_edge46_Node000026_Node000009"><a xlink:title=" ">
<path fill="none" stroke="#63b8ff" d="M899.59,-519.87C892.64,-511.18 885.23,-501.4 879,-492 864.66,-470.36 782.04,-316.38 752.5,-261.15"/>
<polygon fill="#63b8ff" stroke="#63b8ff" points="897.03,-522.27 906.06,-527.82 902.46,-517.86 897.03,-522.27"/>
</a>
</g>
</g>
<!-- Node26&#45;&gt;Node10 -->
<g id="edge47_Node000026_Node000010" class="edge">
<title>Node26&#45;&gt;Node10</title>
<g id="a_edge47_Node000026_Node000010"><a xlink:title=" ">
<path fill="none" stroke="#63b8ff" d="M836.38,-525.17C731.61,-495.13 553.48,-434.11 426,-338 407.32,-323.92 410.58,-312.43 393,-297 377.28,-283.21 357.71,-270.78 340.75,-261.19"/>
<polygon fill="#63b8ff" stroke="#63b8ff" points="835.71,-528.61 846.28,-527.98 837.62,-521.88 835.71,-528.61"/>
</a>
</g>
</g>
<!-- Node26&#45;&gt;Node14 -->
<g id="edge48_Node000026_Node000014" class="edge">
<title>Node26&#45;&gt;Node14</title>
<g id="a_edge48_Node000026_Node000014"><a xlink:title=" ">
<path fill="none" stroke="#63b8ff" d="M940.79,-519.11C946.44,-510.09 952.56,-500.33 957.73,-492.07"/>
<polygon fill="#63b8ff" stroke="#63b8ff" points="937.69,-517.46 935.35,-527.79 943.62,-521.18 937.69,-517.46"/>
</a>
</g>
</g>
<!-- Node27&#45;&gt;Node15 -->
<g id="edge53_Node000027_Node000015" class="edge">
<title>Node27&#45;&gt;Node15</title>
<g id="a_edge53_Node000027_Node000015"><a xlink:title=" ">
<path fill="none" stroke="#63b8ff" d="M1328.71,-597.8C1320.73,-589.51 1313.29,-579.7 1309,-569 1302.22,-552.09 1303.27,-545.3 1309,-528 1333.5,-453.98 1417.73,-447.94 1393,-374 1379.41,-333.37 1367.72,-324.66 1335,-297 1317.74,-282.41 1296,-270.25 1276.63,-261.07"/>
<polygon fill="#63b8ff" stroke="#63b8ff" points="1326.49,-600.53 1336.11,-604.98 1331.36,-595.5 1326.49,-600.53"/>
</a>
</g>
</g>
<!-- Node28 -->
<g id="Node000028" class="node">
<title>Node28</title>
<g id="a_Node000028"><a xlink:href="integrator_8cc.html" target="_top" xlink:title=" ">
<polygon fill="white" stroke="#666666" points="1482,-569 1318,-569 1318,-528 1482,-528 1482,-569"/>
<text text-anchor="start" x="1326" y="-557" font-family="Helvetica,sans-Serif" font-size="10.00">/home/runner/work/phaseField</text>
<text text-anchor="start" x="1326" y="-546" font-family="Helvetica,sans-Serif" font-size="10.00">/phaseField/src/utilities</text>
<text text-anchor="middle" x="1400" y="-535" font-family="Helvetica,sans-Serif" font-size="10.00">/integrator.cc</text>
</a>
</g>
</g>
<!-- Node27&#45;&gt;Node28 -->
<g id="edge54_Node000027_Node000028" class="edge">
<title>Node27&#45;&gt;Node28</title>
<g id="a_edge54_Node000027_Node000028"><a xlink:title=" ">
<path fill="none" stroke="#63b8ff" d="M1376.53,-595.83C1381.06,-586.89 1385.95,-577.24 1390.08,-569.07"/>
<polygon fill="#63b8ff" stroke="#63b8ff" points="1373.38,-594.29 1371.98,-604.79 1379.63,-597.46 1373.38,-594.29"/>
</a>
</g>
</g>
</g>
</svg>
