<?xml version="1.0" encoding="UTF-8" standalone="no"?>
<!DOCTYPE svg PUBLIC "-//W3C//DTD SVG 1.1//EN"
 "http://www.w3.org/Graphics/SVG/1.1/DTD/svg11.dtd">
<!-- Generated by graphviz version 12.2.1 (20241206.2353)
 -->
<!-- Title: include/prismspf/core/system_wide.h Pages: 1 -->
<svg width="1775pt" height="654pt"
 viewBox="0.00 0.00 1774.62 654.25" xmlns="http://www.w3.org/2000/svg" xmlns:xlink="http://www.w3.org/1999/xlink">
<g id="graph0" class="graph" transform="scale(1 1) rotate(0) translate(4 650.25)">
<title>include/prismspf/core/system_wide.h</title>
<!-- Node1 -->
<g id="Node000001" class="node">
<title>Node1</title>
<g id="a_Node000001"><a xlink:title=" ">
<polygon fill="#999999" stroke="#666666" points="1183.5,-646.25 1062.5,-646.25 1062.5,-612.75 1183.5,-612.75 1183.5,-646.25"/>
<text text-anchor="start" x="1070.5" y="-632.75" font-family="Helvetica,sans-Serif" font-size="10.00">include/prismspf/core</text>
<text text-anchor="middle" x="1123" y="-620" font-family="Helvetica,sans-Serif" font-size="10.00">/system_wide.h</text>
</a>
</g>
</g>
<!-- Node2 -->
<g id="Node000002" class="node">
<title>Node2</title>
<g id="a_Node000002"><a xlink:href="field__container_8h.html" target="_top" xlink:title=" ">
<polygon fill="white" stroke="#666666" points="395.5,-576.75 274.5,-576.75 274.5,-543.25 395.5,-543.25 395.5,-576.75"/>
<text text-anchor="start" x="282.5" y="-563.25" font-family="Helvetica,sans-Serif" font-size="10.00">include/prismspf/core</text>
<text text-anchor="middle" x="335" y="-550.5" font-family="Helvetica,sans-Serif" font-size="10.00">/field_container.h</text>
</a>
</g>
</g>
<!-- Node1&#45;&gt;Node2 -->
<g id="edge1_Node000001_Node000002" class="edge">
<title>Node1&#45;&gt;Node2</title>
<g id="a_edge1_Node000001_Node000002"><a xlink:title=" ">
<path fill="none" stroke="#63b8ff" d="M1051,-622.33C897.26,-609.16 539.27,-578.5 395.93,-566.22"/>
<polygon fill="#63b8ff" stroke="#63b8ff" points="1050.38,-625.79 1060.64,-623.16 1050.98,-618.82 1050.38,-625.79"/>
</a>
</g>
</g>
<!-- Node7 -->
<g id="Node000007" class="node">
<title>Node7</title>
<g id="a_Node000007"><a xlink:href="problem_8cc.html" target="_top" xlink:title=" ">
<polygon fill="white" stroke="#666666" points="975.62,-20.75 864.38,-20.75 864.38,0 975.62,0 975.62,-20.75"/>
<text text-anchor="middle" x="920" y="-7.25" font-family="Helvetica,sans-Serif" font-size="10.00">src/core/problem.cc</text>
</a>
</g>
</g>
<!-- Node1&#45;&gt;Node7 -->
<g id="edge62_Node000001_Node000007" class="edge">
<title>Node1&#45;&gt;Node7</title>
<g id="a_edge62_Node000001_Node000007"><a xlink:title=" ">
<path fill="none" stroke="#63b8ff" d="M1195.04,-620.12C1228.73,-613.12 1267.58,-600.29 1296,-576.75 1352.21,-530.19 1351,-494.99 1351,-422 1351,-422 1351,-422 1351,-142 1351,-64.5 1092.52,-28.69 975.9,-16.49"/>
<polygon fill="#63b8ff" stroke="#63b8ff" points="1194.48,-616.66 1185.32,-621.99 1195.81,-623.53 1194.48,-616.66"/>
</a>
</g>
</g>
<!-- Node16 -->
<g id="Node000016" class="node">
<title>Node16</title>
<g id="a_Node000016"><a xlink:href="refinement__manager_8h.html" target="_top" xlink:title=" ">
<polygon fill="white" stroke="#666666" points="1223.62,-298.75 1094.38,-298.75 1094.38,-265.25 1223.62,-265.25 1223.62,-298.75"/>
<text text-anchor="start" x="1102.38" y="-285.25" font-family="Helvetica,sans-Serif" font-size="10.00">include/prismspf/core</text>
<text text-anchor="middle" x="1159" y="-272.5" font-family="Helvetica,sans-Serif" font-size="10.00">/refinement_manager.h</text>
</a>
</g>
</g>
<!-- Node1&#45;&gt;Node16 -->
<g id="edge53_Node000001_Node000016" class="edge">
<title>Node1&#45;&gt;Node16</title>
<g id="a_edge53_Node000001_Node000016"><a xlink:title=" ">
<path fill="none" stroke="#63b8ff" d="M1111,-601.88C1099.87,-574.7 1085,-531.02 1085,-491.5 1085,-491.5 1085,-491.5 1085,-420 1085,-381.08 1085.71,-368.55 1105,-334.75 1112.92,-320.88 1125.69,-308.39 1136.83,-299.16"/>
<polygon fill="#63b8ff" stroke="#63b8ff" points="1107.77,-603.22 1114.9,-611.06 1114.21,-600.49 1107.77,-603.22"/>
</a>
</g>
</g>
<!-- Node19 -->
<g id="Node000019" class="node">
<title>Node19</title>
<g id="a_Node000019"><a xlink:href="nucleation__manager_8h.html" target="_top" xlink:title=" ">
<polygon fill="white" stroke="#666666" points="1264.5,-368.25 1113.5,-368.25 1113.5,-334.75 1264.5,-334.75 1264.5,-368.25"/>
<text text-anchor="start" x="1121.5" y="-354.75" font-family="Helvetica,sans-Serif" font-size="10.00">include/prismspf/nucleation</text>
<text text-anchor="middle" x="1189" y="-342" font-family="Helvetica,sans-Serif" font-size="10.00">/nucleation_manager.h</text>
</a>
</g>
</g>
<!-- Node1&#45;&gt;Node19 -->
<g id="edge54_Node000001_Node000019" class="edge">
<title>Node1&#45;&gt;Node19</title>
<g id="a_edge54_Node000001_Node000019"><a xlink:title=" ">
<path fill="none" stroke="#63b8ff" d="M1125.72,-601.29C1129.18,-570.15 1136.06,-517.77 1147,-473.75 1156.57,-435.27 1173.14,-391.68 1182.34,-368.69"/>
<polygon fill="#63b8ff" stroke="#63b8ff" points="1122.27,-600.68 1124.68,-610.99 1129.23,-601.42 1122.27,-600.68"/>
</a>
</g>
</g>
<!-- Node20 -->
<g id="Node000020" class="node">
<title>Node20</title>
<g id="a_Node000020"><a xlink:href="solver__base_8h.html" target="_top" xlink:title=" ">
<polygon fill="white" stroke="#666666" points="782.62,-368.25 647.38,-368.25 647.38,-334.75 782.62,-334.75 782.62,-368.25"/>
<text text-anchor="start" x="655.38" y="-354.75" font-family="Helvetica,sans-Serif" font-size="10.00">include/prismspf/solvers</text>
<text text-anchor="middle" x="715" y="-342" font-family="Helvetica,sans-Serif" font-size="10.00">/solver_base.h</text>
</a>
</g>
</g>
<!-- Node1&#45;&gt;Node20 -->
<g id="edge55_Node000001_Node000020" class="edge">
<title>Node1&#45;&gt;Node20</title>
<g id="a_edge55_Node000001_Node000020"><a xlink:title=" ">
<path fill="none" stroke="#63b8ff" d="M1079.65,-607.42C1060.68,-598.12 1038.18,-587 1018,-576.75 958.53,-546.56 939.67,-545.46 885,-507.25 822.19,-463.35 757.97,-398.25 729.79,-368.45"/>
<polygon fill="#63b8ff" stroke="#63b8ff" points="1077.92,-610.47 1088.44,-611.72 1080.99,-604.18 1077.92,-610.47"/>
</a>
</g>
</g>
<!-- Node26 -->
<g id="Node000026" class="node">
<title>Node26</title>
<g id="a_Node000026"><a xlink:href="invm__manager_8h.html" target="_top" xlink:title=" ">
<polygon fill="white" stroke="#666666" points="722.5,-507.25 601.5,-507.25 601.5,-473.75 722.5,-473.75 722.5,-507.25"/>
<text text-anchor="start" x="609.5" y="-493.75" font-family="Helvetica,sans-Serif" font-size="10.00">include/prismspf/core</text>
<text text-anchor="middle" x="662" y="-481" font-family="Helvetica,sans-Serif" font-size="10.00">/invm_manager.h</text>
</a>
</g>
</g>
<!-- Node1&#45;&gt;Node26 -->
<g id="edge45_Node000001_Node000026" class="edge">
<title>Node1&#45;&gt;Node26</title>
<g id="a_edge45_Node000001_Node000026"><a xlink:title=" ">
<path fill="none" stroke="#63b8ff" d="M1051.16,-627.57C979.68,-624.41 868.1,-613.32 779,-576.75 739.01,-560.34 699.94,-527.49 678.61,-507.71"/>
<polygon fill="#63b8ff" stroke="#63b8ff" points="1050.63,-631.06 1060.76,-627.96 1050.91,-624.06 1050.63,-631.06"/>
</a>
</g>
</g>
<!-- Node27 -->
<g id="Node000027" class="node">
<title>Node27</title>
<g id="a_Node000027"><a xlink:href="matrix__free__manager_8h.html" target="_top" xlink:title=" ">
<polygon fill="white" stroke="#666666" points="1026.5,-507.25 893.5,-507.25 893.5,-473.75 1026.5,-473.75 1026.5,-507.25"/>
<text text-anchor="start" x="901.5" y="-493.75" font-family="Helvetica,sans-Serif" font-size="10.00">include/prismspf/core</text>
<text text-anchor="middle" x="960" y="-481" font-family="Helvetica,sans-Serif" font-size="10.00">/matrix_free_manager.h</text>
</a>
</g>
</g>
<!-- Node1&#45;&gt;Node27 -->
<g id="edge49_Node000001_Node000027" class="edge">
<title>Node1&#45;&gt;Node27</title>
<g id="a_edge49_Node000001_Node000027"><a xlink:title=" ">
<path fill="none" stroke="#63b8ff" d="M1095.26,-605.19C1062.21,-577.41 1007.86,-531.72 979.15,-507.59"/>
<polygon fill="#63b8ff" stroke="#63b8ff" points="1092.92,-607.79 1102.82,-611.54 1097.42,-602.43 1092.92,-607.79"/>
</a>
</g>
</g>
<!-- Node28 -->
<g id="Node000028" class="node">
<title>Node28</title>
<g id="a_Node000028"><a xlink:href="integrator_8h.html" target="_top" xlink:title=" ">
<polygon fill="white" stroke="#666666" points="1287.38,-576.75 1150.62,-576.75 1150.62,-543.25 1287.38,-543.25 1287.38,-576.75"/>
<text text-anchor="start" x="1158.62" y="-563.25" font-family="Helvetica,sans-Serif" font-size="10.00">include/prismspf/utilities</text>
<text text-anchor="middle" x="1219" y="-550.5" font-family="Helvetica,sans-Serif" font-size="10.00">/integrator.h</text>
</a>
</g>
</g>
<!-- Node1&#45;&gt;Node28 -->
<g id="edge56_Node000001_Node000028" class="edge">
<title>Node1&#45;&gt;Node28</title>
<g id="a_edge56_Node000001_Node000028"><a xlink:title=" ">
<path fill="none" stroke="#63b8ff" d="M1155.12,-605.91C1168.54,-596.48 1183.83,-585.73 1196.08,-577.12"/>
<polygon fill="#63b8ff" stroke="#63b8ff" points="1153.16,-603.02 1146.99,-611.63 1157.18,-608.74 1153.16,-603.02"/>
</a>
</g>
</g>
<!-- Node30 -->
<g id="Node000030" class="node">
<title>Node30</title>
<g id="a_Node000030"><a xlink:href="constraint__manager_8cc.html" target="_top" xlink:title=" ">
<polygon fill="white" stroke="#666666" points="1467,-576.75 1361,-576.75 1361,-543.25 1467,-543.25 1467,-576.75"/>
<text text-anchor="start" x="1369" y="-563.25" font-family="Helvetica,sans-Serif" font-size="10.00">src/core/constraint</text>
<text text-anchor="middle" x="1414" y="-550.5" font-family="Helvetica,sans-Serif" font-size="10.00">_manager.cc</text>
</a>
</g>
</g>
<!-- Node1&#45;&gt;Node30 -->
<g id="edge59_Node000001_Node000030" class="edge">
<title>Node1&#45;&gt;Node30</title>
<g id="a_edge59_Node000001_Node000030"><a xlink:title=" ">
<path fill="none" stroke="#63b8ff" d="M1195.02,-611.94C1238.94,-601.82 1296.22,-588.58 1347,-576.75 1351.42,-575.72 1356.01,-574.65 1360.61,-573.57"/>
<polygon fill="#63b8ff" stroke="#63b8ff" points="1194.29,-608.51 1185.34,-614.17 1195.87,-615.33 1194.29,-608.51"/>
</a>
</g>
</g>
<!-- Node31 -->
<g id="Node000031" class="node">
<title>Node31</title>
<g id="a_Node000031"><a xlink:href="dof__manager_8cc.html" target="_top" xlink:title=" ">
<polygon fill="white" stroke="#666666" points="1619.25,-570.38 1484.75,-570.38 1484.75,-549.62 1619.25,-549.62 1619.25,-570.38"/>
<text text-anchor="middle" x="1552" y="-556.88" font-family="Helvetica,sans-Serif" font-size="10.00">src/core/dof_manager.cc</text>
</a>
</g>
</g>
<!-- Node1&#45;&gt;Node31 -->
<g id="edge60_Node000001_Node000031" class="edge">
<title>Node1&#45;&gt;Node31</title>
<g id="a_edge60_Node000001_Node000031"><a xlink:title=" ">
<path fill="none" stroke="#63b8ff" d="M1194.87,-619.22C1266.34,-609.7 1379.02,-593.89 1476,-576.75 1485.95,-574.99 1496.6,-572.91 1506.67,-570.85"/>
<polygon fill="#63b8ff" stroke="#63b8ff" points="1194.72,-615.71 1185.26,-620.5 1195.64,-622.65 1194.72,-615.71"/>
</a>
</g>
</g>
<!-- Node32 -->
<g id="Node000032" class="node">
<title>Node32</title>
<g id="a_Node000032"><a xlink:href="group__solution__handler_8cc.html" target="_top" xlink:title=" ">
<polygon fill="white" stroke="#666666" points="1766.62,-576.75 1637.38,-576.75 1637.38,-543.25 1766.62,-543.25 1766.62,-576.75"/>
<text text-anchor="start" x="1645.38" y="-563.25" font-family="Helvetica,sans-Serif" font-size="10.00">src/core/group_solution</text>
<text text-anchor="middle" x="1702" y="-550.5" font-family="Helvetica,sans-Serif" font-size="10.00">_handler.cc</text>
</a>
</g>
</g>
<!-- Node1&#45;&gt;Node32 -->
<g id="edge61_Node000001_Node000032" class="edge">
<title>Node1&#45;&gt;Node32</title>
<g id="a_edge61_Node000001_Node000032"><a xlink:title=" ">
<path fill="none" stroke="#63b8ff" d="M1195.18,-623.56C1293.48,-616.27 1474.74,-600.84 1628,-576.75 1630.98,-576.28 1634.03,-575.77 1637.1,-575.23"/>
<polygon fill="#63b8ff" stroke="#63b8ff" points="1195.13,-620.05 1185.41,-624.27 1195.64,-627.03 1195.13,-620.05"/>
</a>
</g>
</g>
<!-- Node3 -->
<g id="Node000003" class="node">
<title>Node3</title>
<g id="a_Node000003"><a xlink:href="pde__operator__base_8h.html" target="_top" xlink:title=" ">
<polygon fill="white" stroke="#666666" points="395.5,-507.25 274.5,-507.25 274.5,-473.75 395.5,-473.75 395.5,-507.25"/>
<text text-anchor="start" x="282.5" y="-493.75" font-family="Helvetica,sans-Serif" font-size="10.00">include/prismspf/core</text>
<text text-anchor="middle" x="335" y="-481" font-family="Helvetica,sans-Serif" font-size="10.00">/pde_operator_base.h</text>
</a>
</g>
</g>
<!-- Node2&#45;&gt;Node3 -->
<g id="edge2_Node000002_Node000003" class="edge">
<title>Node2&#45;&gt;Node3</title>
<g id="a_edge2_Node000002_Node000003"><a xlink:title=" ">
<path fill="none" stroke="#63b8ff" d="M335,-531.56C335,-523.34 335,-514.59 335,-507.38"/>
<polygon fill="#63b8ff" stroke="#63b8ff" points="331.5,-531.49 335,-541.49 338.5,-531.49 331.5,-531.49"/>
</a>
</g>
</g>
<!-- Node4 -->
<g id="Node000004" class="node">
<title>Node4</title>
<g id="a_Node000004"><a xlink:href="mf__operator_8h.html" target="_top" xlink:title=" ">
<polygon fill="white" stroke="#666666" points="449.62,-298.75 314.38,-298.75 314.38,-265.25 449.62,-265.25 449.62,-298.75"/>
<text text-anchor="start" x="322.38" y="-285.25" font-family="Helvetica,sans-Serif" font-size="10.00">include/prismspf/solvers</text>
<text text-anchor="middle" x="382" y="-272.5" font-family="Helvetica,sans-Serif" font-size="10.00">/mf_operator.h</text>
</a>
</g>
</g>
<!-- Node2&#45;&gt;Node4 -->
<g id="edge42_Node000002_Node000004" class="edge">
<title>Node2&#45;&gt;Node4</title>
<g id="a_edge42_Node000002_Node000004"><a xlink:title=" ">
<path fill="none" stroke="#63b8ff" d="M262.76,-548.09C162.6,-529.74 -0.02,-486.39 57,-404.25 114.78,-321.02 237,-294.82 313.99,-286.63"/>
<polygon fill="#63b8ff" stroke="#63b8ff" points="262.09,-551.53 272.55,-549.84 263.32,-544.64 262.09,-551.53"/>
</a>
</g>
</g>
<!-- Node13 -->
<g id="Node000013" class="node">
<title>Node13</title>
<g id="a_Node000013"><a xlink:href="mf__operator_8cc.html" target="_top" xlink:title=" ">
<polygon fill="white" stroke="#666666" points="158.12,-222.88 13.88,-222.88 13.88,-202.12 158.12,-202.12 158.12,-222.88"/>
<text text-anchor="middle" x="86" y="-209.38" font-family="Helvetica,sans-Serif" font-size="10.00">src/solvers/mf_operator.cc</text>
</a>
</g>
</g>
<!-- Node2&#45;&gt;Node13 -->
<g id="edge44_Node000002_Node000013" class="edge">
<title>Node2&#45;&gt;Node13</title>
<g id="a_edge44_Node000002_Node000013"><a xlink:title=" ">
<path fill="none" stroke="#63b8ff" d="M262.81,-551.51C193.21,-543.2 93.76,-528.16 61,-507.25 21.73,-482.18 0,-468.59 0,-422 0,-422 0,-422 0,-350.5 0,-295.18 50.93,-243.87 74.4,-223.16"/>
<polygon fill="#63b8ff" stroke="#63b8ff" points="262.29,-554.97 272.63,-552.65 263.11,-548.02 262.29,-554.97"/>
</a>
</g>
</g>
<!-- Node25 -->
<g id="Node000025" class="node">
<title>Node25</title>
<g id="a_Node000025"><a xlink:href="field__container_8cc.html" target="_top" xlink:title=" ">
<polygon fill="white" stroke="#666666" points="556,-500.88 414,-500.88 414,-480.12 556,-480.12 556,-500.88"/>
<text text-anchor="middle" x="485" y="-487.38" font-family="Helvetica,sans-Serif" font-size="10.00">src/core/field_container.cc</text>
</a>
</g>
</g>
<!-- Node2&#45;&gt;Node25 -->
<g id="edge43_Node000002_Node000025" class="edge">
<title>Node2&#45;&gt;Node25</title>
<g id="a_edge43_Node000002_Node000025"><a xlink:title=" ">
<path fill="none" stroke="#63b8ff" d="M381.08,-538.26C408.44,-525.95 441.86,-510.91 463.29,-501.27"/>
<polygon fill="#63b8ff" stroke="#63b8ff" points="379.99,-534.92 372.31,-542.21 382.86,-541.3 379.99,-534.92"/>
</a>
</g>
</g>
<!-- Node3&#45;&gt;Node4 -->
<g id="edge3_Node000003_Node000004" class="edge">
<title>Node3&#45;&gt;Node4</title>
<g id="a_edge3_Node000003_Node000004"><a xlink:title=" ">
<path fill="none" stroke="#63b8ff" d="M347.59,-463.29C351.06,-455.24 354.54,-446.26 357,-437.75 371.27,-388.33 378.09,-327.54 380.69,-299.1"/>
<polygon fill="#63b8ff" stroke="#63b8ff" points="344.51,-461.62 343.59,-472.17 350.89,-464.49 344.51,-461.62"/>
</a>
</g>
</g>
<!-- Node14 -->
<g id="Node000014" class="node">
<title>Node14</title>
<g id="a_Node000014"><a xlink:href="solve__context_8h.html" target="_top" xlink:title=" ">
<polygon fill="white" stroke="#666666" points="997.62,-437.75 862.38,-437.75 862.38,-404.25 997.62,-404.25 997.62,-437.75"/>
<text text-anchor="start" x="870.38" y="-424.25" font-family="Helvetica,sans-Serif" font-size="10.00">include/prismspf/solvers</text>
<text text-anchor="middle" x="930" y="-411.5" font-family="Helvetica,sans-Serif" font-size="10.00">/solve_context.h</text>
</a>
</g>
</g>
<!-- Node3&#45;&gt;Node14 -->
<g id="edge17_Node000003_Node000014" class="edge">
<title>Node3&#45;&gt;Node14</title>
<g id="a_edge17_Node000003_Node000014"><a xlink:title=" ">
<path fill="none" stroke="#63b8ff" d="M407.36,-473.5C576.45,-446.83 763.93,-432.41 862.11,-426.01"/>
<polygon fill="#63b8ff" stroke="#63b8ff" points="406.81,-470.04 397.49,-475.07 407.92,-476.95 406.81,-470.04"/>
</a>
</g>
</g>
<!-- Node3&#45;&gt;Node20 -->
<g id="edge39_Node000003_Node000020" class="edge">
<title>Node3&#45;&gt;Node20</title>
<g id="a_edge39_Node000003_Node000020"><a xlink:title=" ">
<path fill="none" stroke="#63b8ff" d="M390.44,-469.51C466.15,-442.22 600.44,-393.8 670.17,-368.66"/>
<polygon fill="#63b8ff" stroke="#63b8ff" points="389.35,-466.18 381.13,-472.87 391.73,-472.77 389.35,-466.18"/>
</a>
</g>
</g>
<!-- Node23 -->
<g id="Node000023" class="node">
<title>Node23</title>
<g id="a_Node000023"><a xlink:href="dirichlet_8cc.html" target="_top" xlink:title=" ">
<polygon fill="white" stroke="#666666" points="348.25,-431.38 237.75,-431.38 237.75,-410.62 348.25,-410.62 348.25,-431.38"/>
<text text-anchor="middle" x="293" y="-417.88" font-family="Helvetica,sans-Serif" font-size="10.00">src/core/dirichlet.cc</text>
</a>
</g>
</g>
<!-- Node3&#45;&gt;Node23 -->
<g id="edge40_Node000003_Node000023" class="edge">
<title>Node3&#45;&gt;Node23</title>
<g id="a_edge40_Node000003_Node000023"><a xlink:title=" ">
<path fill="none" stroke="#63b8ff" d="M318.98,-463.75C312.03,-452.59 304.32,-440.19 299.11,-431.82"/>
<polygon fill="#63b8ff" stroke="#63b8ff" points="315.99,-465.58 324.25,-472.22 321.94,-461.88 315.99,-465.58"/>
</a>
</g>
</g>
<!-- Node24 -->
<g id="Node000024" class="node">
<title>Node24</title>
<g id="a_Node000024"><a xlink:href="initial__conditions_8cc.html" target="_top" xlink:title=" ">
<polygon fill="white" stroke="#666666" points="220,-431.38 66,-431.38 66,-410.62 220,-410.62 220,-431.38"/>
<text text-anchor="middle" x="143" y="-417.88" font-family="Helvetica,sans-Serif" font-size="10.00">src/core/initial_conditions.cc</text>
</a>
</g>
</g>
<!-- Node3&#45;&gt;Node24 -->
<g id="edge41_Node000003_Node000024" class="edge">
<title>Node3&#45;&gt;Node24</title>
<g id="a_edge41_Node000003_Node000024"><a xlink:title=" ">
<path fill="none" stroke="#63b8ff" d="M278.35,-469.59C243.03,-457.17 199.12,-441.73 171.07,-431.87"/>
<polygon fill="#63b8ff" stroke="#63b8ff" points="276.99,-472.82 287.58,-472.83 279.31,-466.21 276.99,-472.82"/>
</a>
</g>
</g>
<!-- Node5 -->
<g id="Node000005" class="node">
<title>Node5</title>
<g id="a_Node000005"><a xlink:href="explicit__solver_8h.html" target="_top" xlink:title=" ">
<polygon fill="white" stroke="#666666" points="853.62,-229.25 718.38,-229.25 718.38,-195.75 853.62,-195.75 853.62,-229.25"/>
<text text-anchor="start" x="726.38" y="-215.75" font-family="Helvetica,sans-Serif" font-size="10.00">include/prismspf/solvers</text>
<text text-anchor="middle" x="786" y="-203" font-family="Helvetica,sans-Serif" font-size="10.00">/explicit_solver.h</text>
</a>
</g>
</g>
<!-- Node4&#45;&gt;Node5 -->
<g id="edge4_Node000004_Node000005" class="edge">
<title>Node4&#45;&gt;Node5</title>
<g id="a_edge4_Node000004_Node000005"><a xlink:title=" ">
<path fill="none" stroke="#63b8ff" d="M461.3,-267.75C536.12,-255.25 647.1,-236.71 717.98,-224.86"/>
<polygon fill="#63b8ff" stroke="#63b8ff" points="460.86,-264.28 451.57,-269.38 462.01,-271.18 460.86,-264.28"/>
</a>
</g>
</g>
<!-- Node9 -->
<g id="Node000009" class="node">
<title>Node9</title>
<g id="a_Node000009"><a xlink:href="linear__helper_8h.html" target="_top" xlink:title=" ">
<polygon fill="white" stroke="#666666" points="623.62,-229.25 488.38,-229.25 488.38,-195.75 623.62,-195.75 623.62,-229.25"/>
<text text-anchor="start" x="496.38" y="-215.75" font-family="Helvetica,sans-Serif" font-size="10.00">include/prismspf/solvers</text>
<text text-anchor="middle" x="556" y="-203" font-family="Helvetica,sans-Serif" font-size="10.00">/linear_helper.h</text>
</a>
</g>
</g>
<!-- Node4&#45;&gt;Node9 -->
<g id="edge8_Node000004_Node000009" class="edge">
<title>Node4&#45;&gt;Node9</title>
<g id="a_edge8_Node000004_Node000009"><a xlink:title=" ">
<path fill="none" stroke="#63b8ff" d="M434.33,-260.7C459.94,-250.76 490.35,-238.97 514.36,-229.65"/>
<polygon fill="#63b8ff" stroke="#63b8ff" points="433.15,-257.4 425.09,-264.28 435.68,-263.93 433.15,-257.4"/>
</a>
</g>
</g>
<!-- Node10 -->
<g id="Node000010" class="node">
<title>Node10</title>
<g id="a_Node000010"><a xlink:href="linear__solver_8h.html" target="_top" xlink:title=" ">
<polygon fill="white" stroke="#666666" points="431.62,-229.25 296.38,-229.25 296.38,-195.75 431.62,-195.75 431.62,-229.25"/>
<text text-anchor="start" x="304.38" y="-215.75" font-family="Helvetica,sans-Serif" font-size="10.00">include/prismspf/solvers</text>
<text text-anchor="middle" x="364" y="-203" font-family="Helvetica,sans-Serif" font-size="10.00">/linear_solver.h</text>
</a>
</g>
</g>
<!-- Node4&#45;&gt;Node10 -->
<g id="edge9_Node000004_Node000010" class="edge">
<title>Node4&#45;&gt;Node10</title>
<g id="a_edge9_Node000004_Node000010"><a xlink:title=" ">
<path fill="none" stroke="#63b8ff" d="M374.84,-254.14C372.6,-245.75 370.2,-236.76 368.24,-229.38"/>
<polygon fill="#63b8ff" stroke="#63b8ff" points="371.39,-254.78 377.34,-263.54 378.15,-252.98 371.39,-254.78"/>
</a>
</g>
</g>
<!-- Node11 -->
<g id="Node000011" class="node">
<title>Node11</title>
<g id="a_Node000011"><a xlink:href="mg__solver_8h.html" target="_top" xlink:title=" ">
<polygon fill="white" stroke="#666666" points="354.62,-159.75 219.38,-159.75 219.38,-126.25 354.62,-126.25 354.62,-159.75"/>
<text text-anchor="start" x="227.38" y="-146.25" font-family="Helvetica,sans-Serif" font-size="10.00">include/prismspf/solvers</text>
<text text-anchor="middle" x="287" y="-133.5" font-family="Helvetica,sans-Serif" font-size="10.00">/mg_solver.h</text>
</a>
</g>
</g>
<!-- Node4&#45;&gt;Node11 -->
<g id="edge14_Node000004_Node000011" class="edge">
<title>Node4&#45;&gt;Node11</title>
<g id="a_edge14_Node000004_Node000011"><a xlink:title=" ">
<path fill="none" stroke="#63b8ff" d="M319.76,-259.48C306.73,-251.99 294.64,-242.12 287,-229.25 274.38,-208 278.22,-178.2 282.42,-160.04"/>
<polygon fill="#63b8ff" stroke="#63b8ff" points="318.02,-262.52 328.51,-264.06 321.27,-256.32 318.02,-262.52"/>
</a>
</g>
</g>
<!-- Node12 -->
<g id="Node000012" class="node">
<title>Node12</title>
<g id="a_Node000012"><a xlink:href="newton__solver_8h.html" target="_top" xlink:title=" ">
<polygon fill="white" stroke="#666666" points="566.62,-159.75 431.38,-159.75 431.38,-126.25 566.62,-126.25 566.62,-159.75"/>
<text text-anchor="start" x="439.38" y="-146.25" font-family="Helvetica,sans-Serif" font-size="10.00">include/prismspf/solvers</text>
<text text-anchor="middle" x="499" y="-133.5" font-family="Helvetica,sans-Serif" font-size="10.00">/newton_solver.h</text>
</a>
</g>
</g>
<!-- Node4&#45;&gt;Node12 -->
<g id="edge15_Node000004_Node000012" class="edge">
<title>Node4&#45;&gt;Node12</title>
<g id="a_edge15_Node000004_Node000012"><a xlink:title=" ">
<path fill="none" stroke="#63b8ff" d="M411.57,-257.63C421.44,-249.18 432.15,-239.25 441,-229.25 460.69,-206.99 479.23,-177.75 489.83,-159.95"/>
<polygon fill="#63b8ff" stroke="#63b8ff" points="409.43,-254.86 404,-263.95 413.92,-260.23 409.43,-254.86"/>
</a>
</g>
</g>
<!-- Node4&#45;&gt;Node13 -->
<g id="edge16_Node000004_Node000013" class="edge">
<title>Node4&#45;&gt;Node13</title>
<g id="a_edge16_Node000004_Node000013"><a xlink:title=" ">
<path fill="none" stroke="#63b8ff" d="M303.18,-263.03C247.45,-250.32 174.83,-233.76 129.3,-223.37"/>
<polygon fill="#63b8ff" stroke="#63b8ff" points="302.09,-266.37 312.62,-265.18 303.64,-259.54 302.09,-266.37"/>
</a>
</g>
</g>
<!-- Node6 -->
<g id="Node000006" class="node">
<title>Node6</title>
<g id="a_Node000006"><a xlink:href="solvers_8h.html" target="_top" xlink:title=" ">
<polygon fill="white" stroke="#666666" points="757.62,-90.25 622.38,-90.25 622.38,-56.75 757.62,-56.75 757.62,-90.25"/>
<text text-anchor="start" x="630.38" y="-76.75" font-family="Helvetica,sans-Serif" font-size="10.00">include/prismspf/solvers</text>
<text text-anchor="middle" x="690" y="-64" font-family="Helvetica,sans-Serif" font-size="10.00">/solvers.h</text>
</a>
</g>
</g>
<!-- Node5&#45;&gt;Node6 -->
<g id="edge5_Node000005_Node000006" class="edge">
<title>Node5&#45;&gt;Node6</title>
<g id="a_edge5_Node000005_Node000006"><a xlink:title=" ">
<path fill="none" stroke="#63b8ff" d="M785.04,-183.97C783.24,-166.17 778.6,-143.24 767,-126.25 756.64,-111.09 740.24,-99.17 725.23,-90.61"/>
<polygon fill="#63b8ff" stroke="#63b8ff" points="781.54,-184.11 785.77,-193.83 788.53,-183.59 781.54,-184.11"/>
</a>
</g>
</g>
<!-- Node6&#45;&gt;Node7 -->
<g id="edge6_Node000006_Node000007" class="edge">
<title>Node6&#45;&gt;Node7</title>
<g id="a_edge6_Node000006_Node000007"><a xlink:title=" ">
<path fill="none" stroke="#63b8ff" d="M762.13,-53.33C802.31,-42.65 850.65,-29.81 883.16,-21.17"/>
<polygon fill="#63b8ff" stroke="#63b8ff" points="761.26,-49.94 752.49,-55.89 763.06,-56.71 761.26,-49.94"/>
</a>
</g>
</g>
<!-- Node8 -->
<g id="Node000008" class="node">
<title>Node8</title>
<g id="a_Node000008"><a xlink:href="solvers_8cc.html" target="_top" xlink:title=" ">
<polygon fill="white" stroke="#666666" points="750.12,-20.75 629.88,-20.75 629.88,0 750.12,0 750.12,-20.75"/>
<text text-anchor="middle" x="690" y="-7.25" font-family="Helvetica,sans-Serif" font-size="10.00">src/solvers/solvers.cc</text>
</a>
</g>
</g>
<!-- Node6&#45;&gt;Node8 -->
<g id="edge7_Node000006_Node000008" class="edge">
<title>Node6&#45;&gt;Node8</title>
<g id="a_edge7_Node000006_Node000008"><a xlink:title=" ">
<path fill="none" stroke="#63b8ff" d="M690,-44.94C690,-36.46 690,-27.67 690,-21.22"/>
<polygon fill="#63b8ff" stroke="#63b8ff" points="686.5,-44.93 690,-54.93 693.5,-44.93 686.5,-44.93"/>
</a>
</g>
</g>
<!-- Node10&#45;&gt;Node6 -->
<g id="edge13_Node000010_Node000006" class="edge">
<title>Node10&#45;&gt;Node6</title>
<g id="a_edge13_Node000010_Node000006"><a xlink:title=" ">
<path fill="none" stroke="#63b8ff" d="M375.14,-185.15C384.71,-165.78 400.4,-140.47 422,-126.25 454.21,-105.05 553.78,-89.89 622.05,-81.66"/>
<polygon fill="#63b8ff" stroke="#63b8ff" points="372.02,-183.54 370.97,-194.08 378.37,-186.5 372.02,-183.54"/>
</a>
</g>
</g>
<!-- Node10&#45;&gt;Node11 -->
<g id="edge10_Node000010_Node000011" class="edge">
<title>Node10&#45;&gt;Node11</title>
<g id="a_edge10_Node000010_Node000011"><a xlink:title=" ">
<path fill="none" stroke="#63b8ff" d="M337.29,-188.09C326.76,-178.85 314.93,-168.48 305.38,-160.12"/>
<polygon fill="#63b8ff" stroke="#63b8ff" points="334.79,-190.55 344.61,-194.51 339.4,-185.28 334.79,-190.55"/>
</a>
</g>
</g>
<!-- Node10&#45;&gt;Node12 -->
<g id="edge11_Node000010_Node000012" class="edge">
<title>Node10&#45;&gt;Node12</title>
<g id="a_edge11_Node000010_Node000012"><a xlink:title=" ">
<path fill="none" stroke="#63b8ff" d="M406.51,-190.24C426.06,-180.47 448.86,-169.07 466.93,-160.04"/>
<polygon fill="#63b8ff" stroke="#63b8ff" points="405.07,-187.05 397.69,-194.66 408.2,-193.31 405.07,-187.05"/>
</a>
</g>
</g>
<!-- Node12&#45;&gt;Node6 -->
<g id="edge12_Node000012_Node000006" class="edge">
<title>Node12&#45;&gt;Node6</title>
<g id="a_edge12_Node000012_Node000006"><a xlink:title=" ">
<path fill="none" stroke="#63b8ff" d="M555.31,-122.1C583.66,-112.08 617.59,-100.09 644.29,-90.65"/>
<polygon fill="#63b8ff" stroke="#63b8ff" points="554.44,-118.7 546.18,-125.33 556.77,-125.3 554.44,-118.7"/>
</a>
</g>
</g>
<!-- Node15 -->
<g id="Node000015" class="node">
<title>Node15</title>
<g id="a_Node000015"><a xlink:href="problem_8h.html" target="_top" xlink:title=" ">
<polygon fill="white" stroke="#666666" points="1219.5,-229.25 1098.5,-229.25 1098.5,-195.75 1219.5,-195.75 1219.5,-229.25"/>
<text text-anchor="start" x="1106.5" y="-215.75" font-family="Helvetica,sans-Serif" font-size="10.00">include/prismspf/core</text>
<text text-anchor="middle" x="1159" y="-203" font-family="Helvetica,sans-Serif" font-size="10.00">/problem.h</text>
</a>
</g>
</g>
<!-- Node14&#45;&gt;Node15 -->
<g id="edge18_Node000014_Node000015" class="edge">
<title>Node14&#45;&gt;Node15</title>
<g id="a_edge18_Node000014_Node000015"><a xlink:title=" ">
<path fill="none" stroke="#63b8ff" d="M942.7,-393.75C952.43,-375.6 967.19,-351.75 985,-334.75 1008.05,-312.75 1021.15,-317.38 1047,-298.75 1065.27,-285.59 1067.3,-279.17 1085,-265.25 1101.02,-252.65 1119.85,-239.5 1134.51,-229.61"/>
<polygon fill="#63b8ff" stroke="#63b8ff" points="939.61,-392.11 938.13,-402.6 945.83,-395.32 939.61,-392.11"/>
</a>
</g>
</g>
<!-- Node14&#45;&gt;Node16 -->
<g id="edge20_Node000014_Node000016" class="edge">
<title>Node14&#45;&gt;Node16</title>
<g id="a_edge20_Node000014_Node000016"><a xlink:title=" ">
<path fill="none" stroke="#63b8ff" d="M954.47,-396.1C974.39,-377.58 1003.87,-352.23 1033,-334.75 1057.13,-320.27 1086.05,-308.07 1110.1,-299.16"/>
<polygon fill="#63b8ff" stroke="#63b8ff" points="952.26,-393.37 947.39,-402.78 957.07,-398.46 952.26,-393.37"/>
</a>
</g>
</g>
<!-- Node17 -->
<g id="Node000017" class="node">
<title>Node17</title>
<g id="a_Node000017"><a xlink:href="solution__output_8h.html" target="_top" xlink:title=" ">
<polygon fill="white" stroke="#666666" points="924.5,-368.25 803.5,-368.25 803.5,-334.75 924.5,-334.75 924.5,-368.25"/>
<text text-anchor="start" x="811.5" y="-354.75" font-family="Helvetica,sans-Serif" font-size="10.00">include/prismspf/core</text>
<text text-anchor="middle" x="864" y="-342" font-family="Helvetica,sans-Serif" font-size="10.00">/solution_output.h</text>
</a>
</g>
</g>
<!-- Node14&#45;&gt;Node17 -->
<g id="edge22_Node000014_Node000017" class="edge">
<title>Node14&#45;&gt;Node17</title>
<g id="a_edge22_Node000014_Node000017"><a xlink:title=" ">
<path fill="none" stroke="#63b8ff" d="M906.5,-395.97C897.55,-386.81 887.57,-376.6 879.53,-368.38"/>
<polygon fill="#63b8ff" stroke="#63b8ff" points="903.81,-398.22 913.3,-402.92 908.81,-393.32 903.81,-398.22"/>
</a>
</g>
</g>
<!-- Node14&#45;&gt;Node19 -->
<g id="edge26_Node000014_Node000019" class="edge">
<title>Node14&#45;&gt;Node19</title>
<g id="a_edge26_Node000014_Node000019"><a xlink:title=" ">
<path fill="none" stroke="#63b8ff" d="M1003.08,-400.95C1042.16,-390.77 1089.77,-378.36 1127.02,-368.65"/>
<polygon fill="#63b8ff" stroke="#63b8ff" points="1002.3,-397.54 993.5,-403.45 1004.06,-404.32 1002.3,-397.54"/>
</a>
</g>
</g>
<!-- Node14&#45;&gt;Node20 -->
<g id="edge28_Node000014_Node000020" class="edge">
<title>Node14&#45;&gt;Node20</title>
<g id="a_edge28_Node000014_Node000020"><a xlink:title=" ">
<path fill="none" stroke="#63b8ff" d="M867.87,-400.49C835.71,-390.4 796.91,-378.22 766.45,-368.65"/>
<polygon fill="#63b8ff" stroke="#63b8ff" points="866.47,-403.72 877.06,-403.38 868.57,-397.04 866.47,-403.72"/>
</a>
</g>
</g>
<!-- Node15&#45;&gt;Node7 -->
<g id="edge19_Node000015_Node000007" class="edge">
<title>Node15&#45;&gt;Node7</title>
<g id="a_edge19_Node000015_Node000007"><a xlink:title=" ">
<path fill="none" stroke="#63b8ff" d="M1131.08,-188.12C1078.75,-144.3 967.92,-51.5 931.71,-21.18"/>
<polygon fill="#63b8ff" stroke="#63b8ff" points="1128.77,-190.75 1138.69,-194.49 1133.27,-185.39 1128.77,-190.75"/>
</a>
</g>
</g>
<!-- Node16&#45;&gt;Node15 -->
<g id="edge21_Node000016_Node000015" class="edge">
<title>Node16&#45;&gt;Node15</title>
<g id="a_edge21_Node000016_Node000015"><a xlink:title=" ">
<path fill="none" stroke="#63b8ff" d="M1159,-253.56C1159,-245.34 1159,-236.59 1159,-229.38"/>
<polygon fill="#63b8ff" stroke="#63b8ff" points="1155.5,-253.49 1159,-263.49 1162.5,-253.49 1155.5,-253.49"/>
</a>
</g>
</g>
<!-- Node17&#45;&gt;Node7 -->
<g id="edge24_Node000017_Node000007" class="edge">
<title>Node17&#45;&gt;Node7</title>
<g id="a_edge24_Node000017_Node000007"><a xlink:title=" ">
<path fill="none" stroke="#63b8ff" d="M869.19,-323.08C872.6,-306.26 877.45,-284.35 883,-265.25 887.75,-248.92 892.15,-245.82 896,-229.25 914.33,-150.29 918.77,-51.9 919.75,-21.07"/>
<polygon fill="#63b8ff" stroke="#63b8ff" points="865.76,-322.35 867.26,-332.83 872.63,-323.7 865.76,-322.35"/>
</a>
</g>
</g>
<!-- Node17&#45;&gt;Node17 -->
<g id="edge23_Node000017_Node000017" class="edge">
<title>Node17&#45;&gt;Node17</title>
<g id="a_edge23_Node000017_Node000017"><a xlink:title=" ">
<path fill="none" stroke="#63b8ff" d="M935.72,-360.45C939.96,-358.31 942.5,-355.33 942.5,-351.5 942.5,-345.05 935.29,-341 924.89,-339.33"/>
<polygon fill="#63b8ff" stroke="#63b8ff" points="934.93,-357.04 926.34,-363.23 936.92,-363.75 934.93,-357.04"/>
</a>
</g>
</g>
<!-- Node18 -->
<g id="Node000018" class="node">
<title>Node18</title>
<g id="a_Node000018"><a xlink:href="solution__output_8cc.html" target="_top" xlink:title=" ">
<polygon fill="white" stroke="#666666" points="1038.25,-292.38 891.75,-292.38 891.75,-271.62 1038.25,-271.62 1038.25,-292.38"/>
<text text-anchor="middle" x="965" y="-278.88" font-family="Helvetica,sans-Serif" font-size="10.00">src/core/solution_output.cc</text>
</a>
</g>
</g>
<!-- Node17&#45;&gt;Node18 -->
<g id="edge25_Node000017_Node000018" class="edge">
<title>Node17&#45;&gt;Node18</title>
<g id="a_edge25_Node000017_Node000018"><a xlink:title=" ">
<path fill="none" stroke="#63b8ff" d="M897.73,-327.96C915.61,-316.01 936.65,-301.94 950.38,-292.77"/>
<polygon fill="#63b8ff" stroke="#63b8ff" points="895.82,-325.02 889.45,-333.49 899.71,-330.84 895.82,-325.02"/>
</a>
</g>
</g>
<!-- Node19&#45;&gt;Node15 -->
<g id="edge27_Node000019_Node000015" class="edge">
<title>Node19&#45;&gt;Node15</title>
<g id="a_edge27_Node000019_Node000015"><a xlink:title=" ">
<path fill="none" stroke="#63b8ff" d="M1215.87,-326.03C1222.8,-318.08 1229.33,-308.72 1233,-298.75 1238.14,-284.78 1239.88,-278.45 1233,-265.25 1224.96,-249.82 1209.98,-238.04 1195.59,-229.65"/>
<polygon fill="#63b8ff" stroke="#63b8ff" points="1213.36,-323.58 1209.05,-333.26 1218.45,-328.39 1213.36,-323.58"/>
</a>
</g>
</g>
<!-- Node20&#45;&gt;Node4 -->
<g id="edge35_Node000020_Node000004" class="edge">
<title>Node20&#45;&gt;Node4</title>
<g id="a_edge35_Node000020_Node000004"><a xlink:title=" ">
<path fill="none" stroke="#63b8ff" d="M636.15,-334.52C579.52,-323.04 503.96,-307.72 449.98,-296.78"/>
<polygon fill="#63b8ff" stroke="#63b8ff" points="635.23,-337.9 645.73,-336.46 636.62,-331.04 635.23,-337.9"/>
</a>
</g>
</g>
<!-- Node20&#45;&gt;Node5 -->
<g id="edge32_Node000020_Node000005" class="edge">
<title>Node20&#45;&gt;Node5</title>
<g id="a_edge32_Node000020_Node000005"><a xlink:title=" ">
<path fill="none" stroke="#63b8ff" d="M742.39,-326.66C750.35,-318.51 758.4,-308.87 764,-298.75 776.28,-276.55 781.89,-247.29 784.31,-229.47"/>
<polygon fill="#63b8ff" stroke="#63b8ff" points="740.06,-324.04 735.32,-333.52 744.94,-329.07 740.06,-324.04"/>
</a>
</g>
</g>
<!-- Node20&#45;&gt;Node7 -->
<g id="edge37_Node000020_Node000007" class="edge">
<title>Node20&#45;&gt;Node7</title>
<g id="a_edge37_Node000020_Node000007"><a xlink:title=" ">
<path fill="none" stroke="#63b8ff" d="M754.4,-328.57C788.44,-307.53 836.26,-272.61 863,-229.25 885.52,-192.73 911.33,-58.66 918.23,-21.17"/>
<polygon fill="#63b8ff" stroke="#63b8ff" points="752.81,-325.44 746.05,-333.6 756.42,-331.44 752.81,-325.44"/>
</a>
</g>
</g>
<!-- Node20&#45;&gt;Node9 -->
<g id="edge33_Node000020_Node000009" class="edge">
<title>Node20&#45;&gt;Node9</title>
<g id="a_edge33_Node000020_Node000009"><a xlink:title=" ">
<path fill="none" stroke="#63b8ff" d="M636.38,-337.28C612.95,-329.66 589.22,-317.66 573,-298.75 556.39,-279.39 554.3,-248.44 554.8,-229.64"/>
<polygon fill="#63b8ff" stroke="#63b8ff" points="635.06,-340.54 645.64,-340.05 637.06,-333.83 635.06,-340.54"/>
</a>
</g>
</g>
<!-- Node20&#45;&gt;Node10 -->
<g id="edge34_Node000020_Node000010" class="edge">
<title>Node20&#45;&gt;Node10</title>
<g id="a_edge34_Node000020_Node000010"><a xlink:title=" ">
<path fill="none" stroke="#63b8ff" d="M648.41,-330.91C619.19,-321.85 584.63,-310.5 554,-298.75 497.97,-277.25 434.71,-247.79 397.16,-229.73"/>
<polygon fill="#63b8ff" stroke="#63b8ff" points="647.3,-334.23 657.89,-333.83 649.36,-327.54 647.3,-334.23"/>
</a>
</g>
</g>
<!-- Node20&#45;&gt;Node12 -->
<g id="edge36_Node000020_Node000012" class="edge">
<title>Node20&#45;&gt;Node12</title>
<g id="a_edge36_Node000020_Node000012"><a xlink:title=" ">
<path fill="none" stroke="#63b8ff" d="M711.2,-323.01C708.03,-305.71 702.46,-283.32 693,-265.25 674.07,-229.1 666.36,-219.25 633,-195.75 610.88,-180.17 583.44,-168.5 559.16,-160.23"/>
<polygon fill="#63b8ff" stroke="#63b8ff" points="707.74,-323.52 712.82,-332.82 714.65,-322.38 707.74,-323.52"/>
</a>
</g>
</g>
<!-- Node20&#45;&gt;Node16 -->
<g id="edge29_Node000020_Node000016" class="edge">
<title>Node20&#45;&gt;Node16</title>
<g id="a_edge29_Node000020_Node000016"><a xlink:title=" ">
<path fill="none" stroke="#63b8ff" d="M794.27,-334.87C794.51,-334.83 794.76,-334.79 795,-334.75 809.55,-332.28 993.17,-306.36 1093.89,-292.16"/>
<polygon fill="#63b8ff" stroke="#63b8ff" points="793.77,-331.41 784.53,-336.59 794.98,-338.3 793.77,-331.41"/>
</a>
</g>
</g>
<!-- Node21 -->
<g id="Node000021" class="node">
<title>Node21</title>
<g id="a_Node000021"><a xlink:href="constant__solver_8h.html" target="_top" xlink:title=" ">
<polygon fill="white" stroke="#666666" points="757.62,-159.75 622.38,-159.75 622.38,-126.25 757.62,-126.25 757.62,-159.75"/>
<text text-anchor="start" x="630.38" y="-146.25" font-family="Helvetica,sans-Serif" font-size="10.00">include/prismspf/solvers</text>
<text text-anchor="middle" x="690" y="-133.5" font-family="Helvetica,sans-Serif" font-size="10.00">/constant_solver.h</text>
</a>
</g>
</g>
<!-- Node20&#45;&gt;Node21 -->
<g id="edge30_Node000020_Node000021" class="edge">
<title>Node20&#45;&gt;Node21</title>
<g id="a_edge30_Node000020_Node000021"><a xlink:title=" ">
<path fill="none" stroke="#63b8ff" d="M721.92,-323.18C723.6,-315.35 725.16,-306.76 726,-298.75 727.56,-283.94 729.26,-279.78 726,-265.25 722.13,-247.98 714.74,-245.99 709,-229.25 700.94,-205.73 695.41,-177.36 692.47,-160"/>
<polygon fill="#63b8ff" stroke="#63b8ff" points="718.53,-322.32 719.69,-332.85 725.35,-323.89 718.53,-322.32"/>
</a>
</g>
</g>
<!-- Node22 -->
<g id="Node000022" class="node">
<title>Node22</title>
<g id="a_Node000022"><a xlink:href="solver__base_8cc.html" target="_top" xlink:title=" ">
<polygon fill="white" stroke="#666666" points="683.75,-298.75 582.25,-298.75 582.25,-265.25 683.75,-265.25 683.75,-298.75"/>
<text text-anchor="start" x="590.25" y="-285.25" font-family="Helvetica,sans-Serif" font-size="10.00">src/solvers/solver</text>
<text text-anchor="middle" x="633" y="-272.5" font-family="Helvetica,sans-Serif" font-size="10.00">_base.cc</text>
</a>
</g>
</g>
<!-- Node20&#45;&gt;Node22 -->
<g id="edge38_Node000020_Node000022" class="edge">
<title>Node20&#45;&gt;Node22</title>
<g id="a_edge38_Node000020_Node000022"><a xlink:title=" ">
<path fill="none" stroke="#63b8ff" d="M686.89,-327.36C675.59,-318.06 662.84,-307.56 652.58,-299.12"/>
<polygon fill="#63b8ff" stroke="#63b8ff" points="684.45,-329.89 694.4,-333.54 688.9,-324.48 684.45,-329.89"/>
</a>
</g>
</g>
<!-- Node21&#45;&gt;Node6 -->
<g id="edge31_Node000021_Node000006" class="edge">
<title>Node21&#45;&gt;Node6</title>
<g id="a_edge31_Node000021_Node000006"><a xlink:title=" ">
<path fill="none" stroke="#63b8ff" d="M690,-114.56C690,-106.34 690,-97.59 690,-90.38"/>
<polygon fill="#63b8ff" stroke="#63b8ff" points="686.5,-114.49 690,-124.49 693.5,-114.49 686.5,-114.49"/>
</a>
</g>
</g>
<!-- Node26&#45;&gt;Node9 -->
<g id="edge46_Node000026_Node000009" class="edge">
<title>Node26&#45;&gt;Node9</title>
<g id="a_edge46_Node000026_Node000009"><a xlink:title=" ">
<path fill="none" stroke="#63b8ff" d="M642.13,-464.48C615.92,-429.7 571.1,-363.67 554,-298.75 547.81,-275.27 550.38,-246.89 553.01,-229.52"/>
<polygon fill="#63b8ff" stroke="#63b8ff" points="639.22,-466.42 648.08,-472.23 644.77,-462.17 639.22,-466.42"/>
</a>
</g>
</g>
<!-- Node26&#45;&gt;Node10 -->
<g id="edge47_Node000026_Node000010" class="edge">
<title>Node26&#45;&gt;Node10</title>
<g id="a_edge47_Node000026_Node000010"><a xlink:title=" ">
<path fill="none" stroke="#63b8ff" d="M589.89,-474.3C504.65,-452.06 366.64,-401.57 305,-298.75 297.34,-285.98 298.86,-278.81 305,-265.25 311.63,-250.61 324.69,-238.47 336.83,-229.63"/>
<polygon fill="#63b8ff" stroke="#63b8ff" points="589.01,-477.69 599.57,-476.76 590.74,-470.91 589.01,-477.69"/>
</a>
</g>
</g>
<!-- Node26&#45;&gt;Node14 -->
<g id="edge48_Node000026_Node000014" class="edge">
<title>Node26&#45;&gt;Node14</title>
<g id="a_edge48_Node000026_Node000014"><a xlink:title=" ">
<path fill="none" stroke="#63b8ff" d="M733.84,-471.41C774.9,-461.07 825.96,-448.2 865.69,-438.2"/>
<polygon fill="#63b8ff" stroke="#63b8ff" points="733.12,-467.98 724.28,-473.81 734.83,-474.77 733.12,-467.98"/>
</a>
</g>
</g>
<!-- Node27&#45;&gt;Node4 -->
<g id="edge51_Node000027_Node000004" class="edge">
<title>Node27&#45;&gt;Node4</title>
<g id="a_edge51_Node000027_Node000004"><a xlink:title=" ">
<path fill="none" stroke="#63b8ff" d="M904.05,-469.51C789.78,-428.69 531.61,-336.45 427.14,-299.13"/>
<polygon fill="#63b8ff" stroke="#63b8ff" points="902.63,-472.72 913.22,-472.79 904.98,-466.13 902.63,-472.72"/>
</a>
</g>
</g>
<!-- Node27&#45;&gt;Node14 -->
<g id="edge52_Node000027_Node000014" class="edge">
<title>Node27&#45;&gt;Node14</title>
<g id="a_edge52_Node000027_Node000014"><a xlink:title=" ">
<path fill="none" stroke="#63b8ff" d="M948.31,-463.21C944.51,-454.66 940.41,-445.43 937.06,-437.88"/>
<polygon fill="#63b8ff" stroke="#63b8ff" points="945.02,-464.4 952.28,-472.12 951.41,-461.56 945.02,-464.4"/>
</a>
</g>
</g>
<!-- Node27&#45;&gt;Node16 -->
<g id="edge50_Node000027_Node000016" class="edge">
<title>Node27&#45;&gt;Node16</title>
<g id="a_edge50_Node000027_Node000016"><a xlink:title=" ">
<path fill="none" stroke="#63b8ff" d="M983.79,-465.15C991.53,-456.75 999.94,-447.1 1007,-437.75 1039.47,-394.74 1032.43,-372.39 1071,-334.75 1085.97,-320.14 1105.83,-308.01 1122.9,-299.17"/>
<polygon fill="#63b8ff" stroke="#63b8ff" points="981.38,-462.6 977.08,-472.28 986.48,-467.39 981.38,-462.6"/>
</a>
</g>
</g>
<!-- Node28&#45;&gt;Node15 -->
<g id="edge57_Node000028_Node000015" class="edge">
<title>Node28&#45;&gt;Node15</title>
<g id="a_edge57_Node000028_Node000015"><a xlink:title=" ">
<path fill="none" stroke="#63b8ff" d="M1195.24,-534.2C1189.06,-526.21 1183.23,-516.91 1180,-507.25 1175.28,-493.13 1174.7,-487.66 1180,-473.75 1202.35,-415.06 1251.65,-426.94 1274,-368.25 1279.3,-354.34 1276.56,-349.42 1274,-334.75 1268.36,-302.41 1270.08,-290.42 1249,-265.25 1236.16,-249.91 1217.53,-238.14 1200.55,-229.74"/>
<polygon fill="#63b8ff" stroke="#63b8ff" points="1192.45,-536.33 1201.55,-541.76 1197.83,-531.84 1192.45,-536.33"/>
</a>
</g>
</g>
<!-- Node29 -->
<g id="Node000029" class="node">
<title>Node29</title>
<g id="a_Node000029"><a xlink:href="integrator_8cc.html" target="_top" xlink:title=" ">
<polygon fill="white" stroke="#666666" points="1322.88,-500.88 1189.12,-500.88 1189.12,-480.12 1322.88,-480.12 1322.88,-500.88"/>
<text text-anchor="middle" x="1256" y="-487.38" font-family="Helvetica,sans-Serif" font-size="10.00">src/utilities/integrator.cc</text>
</a>
</g>
</g>
<!-- Node28&#45;&gt;Node29 -->
<g id="edge58_Node000028_Node000029" class="edge">
<title>Node28&#45;&gt;Node29</title>
<g id="a_edge58_Node000028_Node000029"><a xlink:title=" ">
<path fill="none" stroke="#63b8ff" d="M1233.3,-532.91C1239.37,-521.84 1246.08,-509.6 1250.62,-501.32"/>
<polygon fill="#63b8ff" stroke="#63b8ff" points="1230.23,-531.22 1228.5,-541.68 1236.37,-534.59 1230.23,-531.22"/>
</a>
</g>
</g>
</g>
</svg>
