<?xml version="1.0" encoding="UTF-8" standalone="no"?>
<!DOCTYPE svg PUBLIC "-//W3C//DTD SVG 1.1//EN"
 "http://www.w3.org/Graphics/SVG/1.1/DTD/svg11.dtd">
<!-- Generated by graphviz version 12.2.1 (20241206.2353)
 -->
<!-- Title: /__w/phaseField/phaseField/include/prismspf/core/tee_stream.h Pages: 1 -->
<svg width="182pt" height="111pt"
 viewBox="0.00 0.00 182.25 111.00" xmlns="http://www.w3.org/2000/svg" xmlns:xlink="http://www.w3.org/1999/xlink">
<g id="graph0" class="graph" transform="scale(1 1) rotate(0) translate(4 107)">
<title>/__w/phaseField/phaseField/include/prismspf/core/tee_stream.h</title>
<!-- Node1 -->
<g id="Node000001" class="node">
<title>Node1</title>
<g id="a_Node000001"><a xlink:title=" ">
<polygon fill="#999999" stroke="#666666" points="172.38,-103 23.62,-103 23.62,-56.75 172.38,-56.75 172.38,-103"/>
<text text-anchor="start" x="31.62" y="-89.5" font-family="Helvetica,sans-Serif" font-size="10.00">/__w/phaseField/phaseField</text>
<text text-anchor="start" x="31.62" y="-76.75" font-family="Helvetica,sans-Serif" font-size="10.00">/include/prismspf/core/tee</text>
<text text-anchor="middle" x="98" y="-64" font-family="Helvetica,sans-Serif" font-size="10.00">_stream.h</text>
</a>
</g>
</g>
<!-- Node2 -->
<g id="Node000002" class="node">
<title>Node2</title>
<g id="a_Node000002"><a xlink:title=" ">
<polygon fill="#e0e0e0" stroke="#999999" points="100,-20.75 0,-20.75 0,0 100,0 100,-20.75"/>
<text text-anchor="middle" x="50" y="-7.25" font-family="Helvetica,sans-Serif" font-size="10.00">prismspf/config.h</text>
</a>
</g>
</g>
<!-- Node1&#45;&gt;Node2 -->
<g id="edge1_Node000001_Node000002" class="edge">
<title>Node1&#45;&gt;Node2</title>
<g id="a_edge1_Node000001_Node000002"><a xlink:title=" ">
<path fill="none" stroke="#63b8ff" d="M82.02,-56.4C76.03,-47.99 69.3,-38.52 63.56,-30.44"/>
<polygon fill="#63b8ff" stroke="#63b8ff" points="66.47,-28.5 57.82,-22.37 60.76,-32.55 66.47,-28.5"/>
</a>
</g>
</g>
<!-- Node3 -->
<g id="Node000003" class="node">
<title>Node3</title>
<g id="a_Node000003"><a xlink:title=" ">
<polygon fill="#e0e0e0" stroke="#999999" points="174.25,-20.75 117.75,-20.75 117.75,0 174.25,0 174.25,-20.75"/>
<text text-anchor="middle" x="146" y="-7.25" font-family="Helvetica,sans-Serif" font-size="10.00">ostream</text>
</a>
</g>
</g>
<!-- Node1&#45;&gt;Node3 -->
<g id="edge2_Node000001_Node000003" class="edge">
<title>Node1&#45;&gt;Node3</title>
<g id="a_edge2_Node000001_Node000003"><a xlink:title=" ">
<path fill="none" stroke="#63b8ff" d="M113.98,-56.4C119.97,-47.99 126.7,-38.52 132.44,-30.44"/>
<polygon fill="#63b8ff" stroke="#63b8ff" points="135.24,-32.55 138.18,-22.37 129.53,-28.5 135.24,-32.55"/>
</a>
</g>
</g>
</g>
</svg>
