<?xml version="1.0" encoding="UTF-8" standalone="no"?>
<!DOCTYPE svg PUBLIC "-//W3C//DTD SVG 1.1//EN"
 "http://www.w3.org/Graphics/SVG/1.1/DTD/svg11.dtd">
<!-- Generated by graphviz version 12.2.1 (20241206.2353)
 -->
<!-- Title: include/prismspf/core/tee_stream.h Pages: 1 -->
<svg width="182pt" height="98pt"
 viewBox="0.00 0.00 182.25 98.25" xmlns="http://www.w3.org/2000/svg" xmlns:xlink="http://www.w3.org/1999/xlink">
<g id="graph0" class="graph" transform="scale(1 1) rotate(0) translate(4 94.25)">
<title>include/prismspf/core/tee_stream.h</title>
<!-- Node1 -->
<g id="Node000001" class="node">
<title>Node1</title>
<g id="a_Node000001"><a xlink:title=" ">
<polygon fill="#999999" stroke="#666666" points="158.5,-90.25 37.5,-90.25 37.5,-56.75 158.5,-56.75 158.5,-90.25"/>
<text text-anchor="start" x="45.5" y="-76.75" font-family="Helvetica,sans-Serif" font-size="10.00">include/prismspf/core</text>
<text text-anchor="middle" x="98" y="-64" font-family="Helvetica,sans-Serif" font-size="10.00">/tee_stream.h</text>
</a>
</g>
</g>
<!-- Node2 -->
<g id="Node000002" class="node">
<title>Node2</title>
<g id="a_Node000002"><a xlink:title=" ">
<polygon fill="#e0e0e0" stroke="#999999" points="100,-20.75 0,-20.75 0,0 100,0 100,-20.75"/>
<text text-anchor="middle" x="50" y="-7.25" font-family="Helvetica,sans-Serif" font-size="10.00">prismspf/config.h</text>
</a>
</g>
</g>
<!-- Node1&#45;&gt;Node2 -->
<g id="edge1_Node000001_Node000002" class="edge">
<title>Node1&#45;&gt;Node2</title>
<g id="a_edge1_Node000001_Node000002"><a xlink:title=" ">
<path fill="none" stroke="#63b8ff" d="M85.39,-56.44C79.08,-48.41 71.4,-38.63 64.82,-30.24"/>
<polygon fill="#63b8ff" stroke="#63b8ff" points="67.59,-28.11 58.66,-22.41 62.09,-32.43 67.59,-28.11"/>
</a>
</g>
</g>
<!-- Node3 -->
<g id="Node000003" class="node">
<title>Node3</title>
<g id="a_Node000003"><a xlink:title=" ">
<polygon fill="#e0e0e0" stroke="#999999" points="174.25,-20.75 117.75,-20.75 117.75,0 174.25,0 174.25,-20.75"/>
<text text-anchor="middle" x="146" y="-7.25" font-family="Helvetica,sans-Serif" font-size="10.00">ostream</text>
</a>
</g>
</g>
<!-- Node1&#45;&gt;Node3 -->
<g id="edge2_Node000001_Node000003" class="edge">
<title>Node1&#45;&gt;Node3</title>
<g id="a_edge2_Node000001_Node000003"><a xlink:title=" ">
<path fill="none" stroke="#63b8ff" d="M110.61,-56.44C116.92,-48.41 124.6,-38.63 131.18,-30.24"/>
<polygon fill="#63b8ff" stroke="#63b8ff" points="133.91,-32.43 137.34,-22.41 128.41,-28.11 133.91,-32.43"/>
</a>
</g>
</g>
</g>
</svg>
