<?xml version="1.0" encoding="UTF-8" standalone="no"?>
<!DOCTYPE svg PUBLIC "-//W3C//DTD SVG 1.1//EN"
 "http://www.w3.org/Graphics/SVG/1.1/DTD/svg11.dtd">
<!-- Generated by graphviz version 12.2.1 (20241206.2353)
 -->
<!-- Title: include/prismspf/user_inputs/temporal_discretization.h Pages: 1 -->
<svg width="1758pt" height="446pt"
 viewBox="0.00 0.00 1757.90 445.75" xmlns="http://www.w3.org/2000/svg" xmlns:xlink="http://www.w3.org/1999/xlink">
<g id="graph0" class="graph" transform="scale(1 1) rotate(0) translate(4 441.75)">
<title>include/prismspf/user_inputs/temporal_discretization.h</title>
<!-- Node1 -->
<g id="Node000001" class="node">
<title>Node1</title>
<g id="a_Node000001"><a xlink:title=" ">
<polygon fill="#999999" stroke="#666666" points="437.28,-437.75 258.53,-437.75 258.53,-404.25 437.28,-404.25 437.28,-437.75"/>
<text text-anchor="start" x="266.53" y="-424.25" font-family="Helvetica,sans-Serif" font-size="10.00">include/prismspf/user</text>
<text text-anchor="middle" x="347.9" y="-411.5" font-family="Helvetica,sans-Serif" font-size="10.00">_inputs/temporal_discretization.h</text>
</a>
</g>
</g>
<!-- Node2 -->
<g id="Node000002" class="node">
<title>Node2</title>
<g id="a_Node000002"><a xlink:title=" ">
<polygon fill="#e0e0e0" stroke="#999999" points="222.03,-159.75 95.78,-159.75 95.78,-126.25 222.03,-126.25 222.03,-159.75"/>
<text text-anchor="start" x="103.78" y="-146.25" font-family="Helvetica,sans-Serif" font-size="10.00">deal.II/base/parameter</text>
<text text-anchor="middle" x="158.9" y="-133.5" font-family="Helvetica,sans-Serif" font-size="10.00">_handler.h</text>
</a>
</g>
</g>
<!-- Node1&#45;&gt;Node2 -->
<g id="edge1_Node000001_Node000002" class="edge">
<title>Node1&#45;&gt;Node2</title>
<g id="a_edge1_Node000001_Node000002"><a xlink:title=" ">
<path fill="none" stroke="#63b8ff" d="M331.58,-404.05C300.52,-372.95 232.31,-300.93 190.9,-229.25 180.3,-210.9 172.03,-188.39 166.55,-171.11"/>
<polygon fill="#63b8ff" stroke="#63b8ff" points="169.9,-170.1 163.65,-161.54 163.2,-172.13 169.9,-170.1"/>
</a>
</g>
</g>
<!-- Node3 -->
<g id="Node000003" class="node">
<title>Node3</title>
<g id="a_Node000003"><a xlink:href="conditional__ostreams_8h.html" target="_top" xlink:title=" ">
<polygon fill="white" stroke="#666666" points="417.78,-159.75 278.03,-159.75 278.03,-126.25 417.78,-126.25 417.78,-159.75"/>
<text text-anchor="start" x="286.03" y="-146.25" font-family="Helvetica,sans-Serif" font-size="10.00">prismspf/core/conditional</text>
<text text-anchor="middle" x="347.9" y="-133.5" font-family="Helvetica,sans-Serif" font-size="10.00">_ostreams.h</text>
</a>
</g>
</g>
<!-- Node1&#45;&gt;Node3 -->
<g id="edge2_Node000001_Node000003" class="edge">
<title>Node1&#45;&gt;Node3</title>
<g id="a_edge2_Node000001_Node000003"><a xlink:title=" ">
<path fill="none" stroke="#63b8ff" d="M347.9,-403.97C347.9,-358.52 347.9,-228.46 347.9,-171.4"/>
<polygon fill="#63b8ff" stroke="#63b8ff" points="351.4,-171.59 347.9,-161.59 344.4,-171.59 351.4,-171.59"/>
</a>
</g>
</g>
<!-- Node5 -->
<g id="Node000005" class="node">
<title>Node5</title>
<g id="a_Node000005"><a xlink:title=" ">
<polygon fill="#e0e0e0" stroke="#999999" points="801.9,-20.75 701.9,-20.75 701.9,0 801.9,0 801.9,-20.75"/>
<text text-anchor="middle" x="751.9" y="-7.25" font-family="Helvetica,sans-Serif" font-size="10.00">prismspf/config.h</text>
</a>
</g>
</g>
<!-- Node1&#45;&gt;Node5 -->
<g id="edge55_Node000001_Node000005" class="edge">
<title>Node1&#45;&gt;Node5</title>
<g id="a_edge55_Node000001_Node000005"><a xlink:title=" ">
<path fill="none" stroke="#63b8ff" d="M258.16,-413.02C176.26,-401.16 67.9,-369.18 67.9,-283 67.9,-283 67.9,-283 67.9,-142 67.9,-95.07 -169.16,-160.55 258.9,-56.75 410.86,-19.9 595.8,-12.51 690.11,-11.32"/>
<polygon fill="#63b8ff" stroke="#63b8ff" points="689.95,-14.82 699.92,-11.22 689.88,-7.82 689.95,-14.82"/>
</a>
</g>
</g>
<!-- Node6 -->
<g id="Node000006" class="node">
<title>Node6</title>
<g id="a_Node000006"><a xlink:href="solve__block_8h.html" target="_top" xlink:title=" ">
<polygon fill="white" stroke="#666666" points="1013.9,-368.25 901.9,-368.25 901.9,-334.75 1013.9,-334.75 1013.9,-368.25"/>
<text text-anchor="start" x="909.9" y="-354.75" font-family="Helvetica,sans-Serif" font-size="10.00">prismspf/core/solve</text>
<text text-anchor="middle" x="957.9" y="-342" font-family="Helvetica,sans-Serif" font-size="10.00">_block.h</text>
</a>
</g>
</g>
<!-- Node1&#45;&gt;Node6 -->
<g id="edge5_Node000001_Node000006" class="edge">
<title>Node1&#45;&gt;Node6</title>
<g id="a_edge5_Node000001_Node000006"><a xlink:title=" ">
<path fill="none" stroke="#63b8ff" d="M437.58,-410.08C560.89,-396.43 780.01,-372.18 890.39,-359.97"/>
<polygon fill="#63b8ff" stroke="#63b8ff" points="890.63,-363.47 900.19,-358.89 889.86,-356.51 890.63,-363.47"/>
</a>
</g>
</g>
<!-- Node24 -->
<g id="Node000024" class="node">
<title>Node24</title>
<g id="a_Node000024"><a xlink:title=" ">
<polygon fill="#e0e0e0" stroke="#999999" points="1075.4,-361.88 1032.4,-361.88 1032.4,-341.12 1075.4,-341.12 1075.4,-361.88"/>
<text text-anchor="middle" x="1053.9" y="-348.38" font-family="Helvetica,sans-Serif" font-size="10.00">cfloat</text>
</a>
</g>
</g>
<!-- Node1&#45;&gt;Node24 -->
<g id="edge56_Node000001_Node000024" class="edge">
<title>Node1&#45;&gt;Node24</title>
<g id="a_edge56_Node000001_Node000024"><a xlink:title=" ">
<path fill="none" stroke="#63b8ff" d="M437.62,-417.47C595.23,-412.31 915.32,-398.41 1022.9,-368.25 1024.31,-367.86 1025.73,-367.4 1027.14,-366.89"/>
<polygon fill="#63b8ff" stroke="#63b8ff" points="1028.53,-370.1 1036.28,-362.87 1025.71,-363.69 1028.53,-370.1"/>
</a>
</g>
</g>
<!-- Node4 -->
<g id="Node000004" class="node">
<title>Node4</title>
<g id="a_Node000004"><a xlink:title=" ">
<polygon fill="#e0e0e0" stroke="#999999" points="412.53,-90.25 283.28,-90.25 283.28,-56.75 412.53,-56.75 412.53,-90.25"/>
<text text-anchor="start" x="291.28" y="-76.75" font-family="Helvetica,sans-Serif" font-size="10.00">deal.II/base/conditional</text>
<text text-anchor="middle" x="347.9" y="-64" font-family="Helvetica,sans-Serif" font-size="10.00">_ostream.h</text>
</a>
</g>
</g>
<!-- Node3&#45;&gt;Node4 -->
<g id="edge3_Node000003_Node000004" class="edge">
<title>Node3&#45;&gt;Node4</title>
<g id="a_edge3_Node000003_Node000004"><a xlink:title=" ">
<path fill="none" stroke="#63b8ff" d="M347.9,-126C347.9,-118.77 347.9,-110.03 347.9,-101.81"/>
<polygon fill="#63b8ff" stroke="#63b8ff" points="351.4,-101.9 347.9,-91.9 344.4,-101.9 351.4,-101.9"/>
</a>
</g>
</g>
<!-- Node3&#45;&gt;Node5 -->
<g id="edge4_Node000003_Node000005" class="edge">
<title>Node3&#45;&gt;Node5</title>
<g id="a_edge4_Node000003_Node000005"><a xlink:title=" ">
<path fill="none" stroke="#63b8ff" d="M397.85,-125.85C478.47,-99.78 635.8,-48.91 710.55,-24.74"/>
<polygon fill="#63b8ff" stroke="#63b8ff" points="711.51,-28.11 719.95,-21.71 709.36,-21.45 711.51,-28.11"/>
</a>
</g>
</g>
<!-- Node6&#45;&gt;Node5 -->
<g id="edge51_Node000006_Node000005" class="edge">
<title>Node6&#45;&gt;Node5</title>
<g id="a_edge51_Node000006_Node000005"><a xlink:title=" ">
<path fill="none" stroke="#63b8ff" d="M942.53,-334.35C913.25,-302.91 848.85,-230.33 808.9,-159.75 784.65,-116.88 766.5,-61.66 757.74,-32.15"/>
<polygon fill="#63b8ff" stroke="#63b8ff" points="761.13,-31.28 754.99,-22.64 754.41,-33.22 761.13,-31.28"/>
</a>
</g>
</g>
<!-- Node7 -->
<g id="Node000007" class="node">
<title>Node7</title>
<g id="a_Node000007"><a xlink:title=" ">
<polygon fill="#e0e0e0" stroke="#999999" points="1151.65,-153.38 1014.15,-153.38 1014.15,-132.62 1151.65,-132.62 1151.65,-153.38"/>
<text text-anchor="middle" x="1082.9" y="-139.88" font-family="Helvetica,sans-Serif" font-size="10.00">deal.II/base/exceptions.h</text>
</a>
</g>
</g>
<!-- Node6&#45;&gt;Node7 -->
<g id="edge6_Node000006_Node000007" class="edge">
<title>Node6&#45;&gt;Node7</title>
<g id="a_edge6_Node000006_Node000007"><a xlink:title=" ">
<path fill="none" stroke="#63b8ff" d="M959.21,-334.43C962.37,-304.42 972.71,-238.99 1004.9,-195.75 1016.61,-180.03 1034.59,-167.64 1050.34,-158.93"/>
<polygon fill="#63b8ff" stroke="#63b8ff" points="1051.7,-162.17 1058.94,-154.44 1048.46,-155.96 1051.7,-162.17"/>
</a>
</g>
</g>
<!-- Node8 -->
<g id="Node000008" class="node">
<title>Node8</title>
<g id="a_Node000008"><a xlink:title=" ">
<polygon fill="#e0e0e0" stroke="#999999" points="1570.03,-90.25 1461.78,-90.25 1461.78,-56.75 1570.03,-56.75 1570.03,-90.25"/>
<text text-anchor="start" x="1469.78" y="-76.75" font-family="Helvetica,sans-Serif" font-size="10.00">deal.II/matrix_free</text>
<text text-anchor="middle" x="1515.9" y="-64" font-family="Helvetica,sans-Serif" font-size="10.00">/evaluation_flags.h</text>
</a>
</g>
</g>
<!-- Node6&#45;&gt;Node8 -->
<g id="edge7_Node000006_Node000008" class="edge">
<title>Node6&#45;&gt;Node8</title>
<g id="a_edge7_Node000006_Node000008"><a xlink:title=" ">
<path fill="none" stroke="#63b8ff" d="M1014.31,-336.37C1017.54,-335.77 1020.76,-335.22 1023.9,-334.75 1147,-316.24 1469.77,-350.68 1582.9,-298.75 1632.76,-275.87 1673.25,-245.85 1650.9,-195.75 1631.43,-152.08 1587.58,-117.56 1555.12,-96.71"/>
<polygon fill="#63b8ff" stroke="#63b8ff" points="1557.07,-93.8 1546.73,-91.48 1553.36,-99.74 1557.07,-93.8"/>
</a>
</g>
</g>
<!-- Node9 -->
<g id="Node000009" class="node">
<title>Node9</title>
<g id="a_Node000009"><a xlink:href="dependencies_8h.html" target="_top" xlink:title=" ">
<polygon fill="white" stroke="#666666" points="1294.03,-292.38 1131.78,-292.38 1131.78,-271.62 1294.03,-271.62 1294.03,-292.38"/>
<text text-anchor="middle" x="1212.9" y="-278.88" font-family="Helvetica,sans-Serif" font-size="10.00">prismspf/core/dependencies.h</text>
</a>
</g>
</g>
<!-- Node6&#45;&gt;Node9 -->
<g id="edge8_Node000006_Node000009" class="edge">
<title>Node6&#45;&gt;Node9</title>
<g id="a_edge8_Node000006_Node000009"><a xlink:title=" ">
<path fill="none" stroke="#63b8ff" d="M1014.18,-335.6C1059.28,-323.66 1121.9,-307.09 1164.71,-295.76"/>
<polygon fill="#63b8ff" stroke="#63b8ff" points="1165.46,-299.18 1174.23,-293.24 1163.67,-292.41 1165.46,-299.18"/>
</a>
</g>
</g>
<!-- Node12 -->
<g id="Node000012" class="node">
<title>Node12</title>
<g id="a_Node000012"><a xlink:href="type__enums_8h.html" target="_top" xlink:title=" ">
<polygon fill="white" stroke="#666666" points="1353.65,-90.25 1246.15,-90.25 1246.15,-56.75 1353.65,-56.75 1353.65,-90.25"/>
<text text-anchor="start" x="1254.15" y="-76.75" font-family="Helvetica,sans-Serif" font-size="10.00">prismspf/core/type</text>
<text text-anchor="middle" x="1299.9" y="-64" font-family="Helvetica,sans-Serif" font-size="10.00">_enums.h</text>
</a>
</g>
</g>
<!-- Node6&#45;&gt;Node12 -->
<g id="edge34_Node000006_Node000012" class="edge">
<title>Node6&#45;&gt;Node12</title>
<g id="a_edge34_Node000006_Node000012"><a xlink:title=" ">
<path fill="none" stroke="#63b8ff" d="M1014.31,-336.4C1017.55,-335.79 1020.76,-335.23 1023.9,-334.75 1247.62,-300.37 1318.1,-373.04 1531.9,-298.75 1583.72,-280.74 1608.26,-277.75 1633.9,-229.25 1640.86,-216.09 1642.2,-208.11 1633.9,-195.75 1610.35,-160.67 1584.98,-175.83 1545.9,-159.75 1509.88,-144.93 1501.53,-139.54 1464.9,-126.25 1432.23,-114.4 1395.36,-102.68 1364.77,-93.4"/>
<polygon fill="#63b8ff" stroke="#63b8ff" points="1365.84,-90.07 1355.26,-90.53 1363.82,-96.77 1365.84,-90.07"/>
</a>
</g>
</g>
<!-- Node14 -->
<g id="Node000014" class="node">
<title>Node14</title>
<g id="a_Node000014"><a xlink:title=" ">
<polygon fill="#e0e0e0" stroke="#999999" points="1511.78,-20.75 1468.03,-20.75 1468.03,0 1511.78,0 1511.78,-20.75"/>
<text text-anchor="middle" x="1489.9" y="-7.25" font-family="Helvetica,sans-Serif" font-size="10.00">string</text>
</a>
</g>
</g>
<!-- Node6&#45;&gt;Node14 -->
<g id="edge53_Node000006_Node000014" class="edge">
<title>Node6&#45;&gt;Node14</title>
<g id="a_edge53_Node000006_Node000014"><a xlink:title=" ">
<path fill="none" stroke="#63b8ff" d="M1014.3,-336.36C1017.54,-335.76 1020.76,-335.22 1023.9,-334.75 1156.03,-315.17 1497.43,-341.7 1623.9,-298.75 1687.93,-277.01 1749.9,-281.11 1749.9,-213.5 1749.9,-213.5 1749.9,-213.5 1749.9,-142 1749.9,-41.72 1593.56,-18.42 1523.35,-13.01"/>
<polygon fill="#63b8ff" stroke="#63b8ff" points="1523.8,-9.53 1513.58,-12.34 1523.32,-16.51 1523.8,-9.53"/>
</a>
</g>
</g>
<!-- Node15 -->
<g id="Node000015" class="node">
<title>Node15</title>
<g id="a_Node000015"><a xlink:href="types_8h.html" target="_top" xlink:title=" ">
<polygon fill="white" stroke="#666666" points="995.78,-153.38 874.03,-153.38 874.03,-132.62 995.78,-132.62 995.78,-153.38"/>
<text text-anchor="middle" x="934.9" y="-139.88" font-family="Helvetica,sans-Serif" font-size="10.00">prismspf/core/types.h</text>
</a>
</g>
</g>
<!-- Node6&#45;&gt;Node15 -->
<g id="edge35_Node000006_Node000015" class="edge">
<title>Node6&#45;&gt;Node15</title>
<g id="a_edge35_Node000006_Node000015"><a xlink:title=" ">
<path fill="none" stroke="#63b8ff" d="M952.62,-334.37C949.54,-324.26 945.88,-310.88 943.9,-298.75 936.23,-251.55 934.87,-195.31 934.76,-165.33"/>
<polygon fill="#63b8ff" stroke="#63b8ff" points="938.26,-165.37 934.77,-155.37 931.26,-165.36 938.26,-165.37"/>
</a>
</g>
</g>
<!-- Node17 -->
<g id="Node000017" class="node">
<title>Node17</title>
<g id="a_Node000017"><a xlink:title=" ">
<polygon fill="#e0e0e0" stroke="#999999" points="1456.28,-153.38 1409.53,-153.38 1409.53,-132.62 1456.28,-132.62 1456.28,-153.38"/>
<text text-anchor="middle" x="1432.9" y="-139.88" font-family="Helvetica,sans-Serif" font-size="10.00">vector</text>
</a>
</g>
</g>
<!-- Node6&#45;&gt;Node17 -->
<g id="edge54_Node000006_Node000017" class="edge">
<title>Node6&#45;&gt;Node17</title>
<g id="a_edge54_Node000006_Node000017"><a xlink:title=" ">
<path fill="none" stroke="#63b8ff" d="M1014.33,-336.5C1017.56,-335.86 1020.77,-335.27 1023.9,-334.75 1155.92,-312.68 1537.58,-337.06 1616.9,-229.25 1625.73,-217.26 1626.1,-207.46 1616.9,-195.75 1575.38,-142.83 1533.73,-180.99 1469.9,-159.75 1468.13,-159.16 1466.32,-158.52 1464.5,-157.85"/>
<polygon fill="#63b8ff" stroke="#63b8ff" points="1466.19,-154.75 1455.61,-154.32 1463.61,-161.26 1466.19,-154.75"/>
</a>
</g>
</g>
<!-- Node19 -->
<g id="Node000019" class="node">
<title>Node19</title>
<g id="a_Node000019"><a xlink:title=" ">
<polygon fill="#e0e0e0" stroke="#999999" points="1607.4,-222.88 1576.4,-222.88 1576.4,-202.12 1607.4,-202.12 1607.4,-222.88"/>
<text text-anchor="middle" x="1591.9" y="-209.38" font-family="Helvetica,sans-Serif" font-size="10.00">set</text>
</a>
</g>
</g>
<!-- Node6&#45;&gt;Node19 -->
<g id="edge52_Node000006_Node000019" class="edge">
<title>Node6&#45;&gt;Node19</title>
<g id="a_edge52_Node000006_Node000019"><a xlink:title=" ">
<path fill="none" stroke="#63b8ff" d="M1014.35,-336.62C1017.57,-335.95 1020.78,-335.32 1023.9,-334.75 1146.88,-312.21 1180.25,-323.01 1302.9,-298.75 1419.82,-275.63 1450.91,-272.66 1561.9,-229.25 1563.23,-228.73 1564.57,-228.17 1565.92,-227.58"/>
<polygon fill="#63b8ff" stroke="#63b8ff" points="1567.19,-230.85 1574.66,-223.34 1564.13,-224.56 1567.19,-230.85"/>
</a>
</g>
</g>
<!-- Node20 -->
<g id="Node000020" class="node">
<title>Node20</title>
<g id="a_Node000020"><a xlink:href="linear__solve__parameters_8h.html" target="_top" xlink:title=" ">
<polygon fill="white" stroke="#666666" points="712.28,-229.25 563.53,-229.25 563.53,-195.75 712.28,-195.75 712.28,-229.25"/>
<text text-anchor="start" x="571.53" y="-215.75" font-family="Helvetica,sans-Serif" font-size="10.00">prismspf/user_inputs</text>
<text text-anchor="middle" x="637.9" y="-203" font-family="Helvetica,sans-Serif" font-size="10.00">/linear_solve_parameters.h</text>
</a>
</g>
</g>
<!-- Node6&#45;&gt;Node20 -->
<g id="edge36_Node000006_Node000020" class="edge">
<title>Node6&#45;&gt;Node20</title>
<g id="a_edge36_Node000006_Node000020"><a xlink:title=" ">
<path fill="none" stroke="#63b8ff" d="M901.42,-341.63C861.53,-333.91 807.61,-320.47 763.9,-298.75 742.21,-287.97 740.77,-279.12 720.9,-265.25 706.2,-254.98 689.5,-244.37 674.95,-235.46"/>
<polygon fill="#63b8ff" stroke="#63b8ff" points="676.94,-232.57 666.57,-230.37 673.3,-238.55 676.94,-232.57"/>
</a>
</g>
</g>
<!-- Node23 -->
<g id="Node000023" class="node">
<title>Node23</title>
<g id="a_Node000023"><a xlink:href="nonlinear__solve__parameters_8h.html" target="_top" xlink:title=" ">
<polygon fill="white" stroke="#666666" points="712.28,-298.75 545.53,-298.75 545.53,-265.25 712.28,-265.25 712.28,-298.75"/>
<text text-anchor="start" x="553.53" y="-285.25" font-family="Helvetica,sans-Serif" font-size="10.00">prismspf/user_inputs</text>
<text text-anchor="middle" x="628.9" y="-272.5" font-family="Helvetica,sans-Serif" font-size="10.00">/nonlinear_solve_parameters.h</text>
</a>
</g>
</g>
<!-- Node6&#45;&gt;Node23 -->
<g id="edge46_Node000006_Node000023" class="edge">
<title>Node6&#45;&gt;Node23</title>
<g id="a_edge46_Node000006_Node000023"><a xlink:title=" ">
<path fill="none" stroke="#63b8ff" d="M901.72,-338.97C851.63,-328.7 777.43,-313.47 719.05,-301.49"/>
<polygon fill="#63b8ff" stroke="#63b8ff" points="719.95,-298.11 709.45,-299.53 718.55,-304.96 719.95,-298.11"/>
</a>
</g>
</g>
<!-- Node9&#45;&gt;Node3 -->
<g id="edge12_Node000009_Node000003" class="edge">
<title>Node9&#45;&gt;Node3</title>
<g id="a_edge12_Node000009_Node000003"><a xlink:title=" ">
<path fill="none" stroke="#63b8ff" d="M1131.33,-277.76C980.18,-271.23 662.18,-254.89 554.9,-229.25 494.74,-214.87 429.38,-185.43 388.54,-165.2"/>
<polygon fill="#63b8ff" stroke="#63b8ff" points="390.31,-162.17 379.8,-160.82 387.18,-168.43 390.31,-162.17"/>
</a>
</g>
</g>
<!-- Node9&#45;&gt;Node5 -->
<g id="edge29_Node000009_Node000005" class="edge">
<title>Node9&#45;&gt;Node5</title>
<g id="a_edge29_Node000009_Node000005"><a xlink:title=" ">
<path fill="none" stroke="#63b8ff" d="M1193.81,-271.18C1179.05,-262.4 1159.7,-248.05 1150.9,-229.25 1131.41,-187.59 1188.68,-162.91 1160.9,-126.25 1118.93,-70.87 917.15,-34.78 813.56,-19.58"/>
<polygon fill="#63b8ff" stroke="#63b8ff" points="814.24,-16.14 803.84,-18.18 813.24,-23.07 814.24,-16.14"/>
</a>
</g>
</g>
<!-- Node9&#45;&gt;Node7 -->
<g id="edge9_Node000009_Node000007" class="edge">
<title>Node9&#45;&gt;Node7</title>
<g id="a_edge9_Node000009_Node000007"><a xlink:title=" ">
<path fill="none" stroke="#63b8ff" d="M1138.73,-271.14C1089.14,-262.86 1030.27,-249.15 1014.9,-229.25 1005.8,-217.47 1008.29,-209.09 1014.9,-195.75 1022.64,-180.13 1037.6,-167.95 1051.52,-159.34"/>
<polygon fill="#63b8ff" stroke="#63b8ff" points="1053.11,-162.47 1060.04,-154.46 1049.63,-156.39 1053.11,-162.47"/>
</a>
</g>
</g>
<!-- Node9&#45;&gt;Node8 -->
<g id="edge11_Node000009_Node000008" class="edge">
<title>Node9&#45;&gt;Node8</title>
<g id="a_edge11_Node000009_Node000008"><a xlink:title=" ">
<path fill="none" stroke="#63b8ff" d="M1265.38,-271.18C1339.7,-257.17 1467.1,-232.75 1470.9,-229.25 1506.85,-196.24 1514.7,-136.37 1516.06,-101.56"/>
<polygon fill="#63b8ff" stroke="#63b8ff" points="1519.55,-101.97 1516.27,-91.9 1512.55,-101.82 1519.55,-101.97"/>
</a>
</g>
</g>
<!-- Node10 -->
<g id="Node000010" class="node">
<title>Node10</title>
<g id="a_Node000010"><a xlink:title=" ">
<polygon fill="#e0e0e0" stroke="#999999" points="1443.4,-222.88 1322.4,-222.88 1322.4,-202.12 1443.4,-202.12 1443.4,-222.88"/>
<text text-anchor="middle" x="1382.9" y="-209.38" font-family="Helvetica,sans-Serif" font-size="10.00">deal.II/base/utilities.h</text>
</a>
</g>
</g>
<!-- Node9&#45;&gt;Node10 -->
<g id="edge10_Node000009_Node000010" class="edge">
<title>Node9&#45;&gt;Node10</title>
<g id="a_edge10_Node000009_Node000010"><a xlink:title=" ">
<path fill="none" stroke="#63b8ff" d="M1237.62,-271.18C1266.58,-259.69 1314.77,-240.55 1347.64,-227.5"/>
<polygon fill="#63b8ff" stroke="#63b8ff" points="1348.75,-230.83 1356.75,-223.89 1346.16,-224.32 1348.75,-230.83"/>
</a>
</g>
</g>
<!-- Node11 -->
<g id="Node000011" class="node">
<title>Node11</title>
<g id="a_Node000011"><a xlink:href="field__attributes_8h.html" target="_top" xlink:title=" ">
<polygon fill="white" stroke="#666666" points="1266.28,-229.25 1159.53,-229.25 1159.53,-195.75 1266.28,-195.75 1266.28,-229.25"/>
<text text-anchor="start" x="1167.53" y="-215.75" font-family="Helvetica,sans-Serif" font-size="10.00">prismspf/core/field</text>
<text text-anchor="middle" x="1212.9" y="-203" font-family="Helvetica,sans-Serif" font-size="10.00">_attributes.h</text>
</a>
</g>
</g>
<!-- Node9&#45;&gt;Node11 -->
<g id="edge13_Node000009_Node000011" class="edge">
<title>Node9&#45;&gt;Node11</title>
<g id="a_edge13_Node000009_Node000011"><a xlink:title=" ">
<path fill="none" stroke="#63b8ff" d="M1212.9,-271.33C1212.9,-263.44 1212.9,-251.88 1212.9,-241.16"/>
<polygon fill="#63b8ff" stroke="#63b8ff" points="1216.4,-241.18 1212.9,-231.18 1209.4,-241.18 1216.4,-241.18"/>
</a>
</g>
</g>
<!-- Node9&#45;&gt;Node12 -->
<g id="edge27_Node000009_Node000012" class="edge">
<title>Node9&#45;&gt;Node12</title>
<g id="a_edge27_Node000009_Node000012"><a xlink:title=" ">
<path fill="none" stroke="#63b8ff" d="M1230.64,-271.13C1245,-262.15 1264.5,-247.52 1274.9,-229.25 1297.71,-189.2 1301.29,-134.41 1301.09,-101.91"/>
<polygon fill="#63b8ff" stroke="#63b8ff" points="1304.59,-102.07 1300.89,-92.14 1297.6,-102.21 1304.59,-102.07"/>
</a>
</g>
</g>
<!-- Node9&#45;&gt;Node14 -->
<g id="edge32_Node000009_Node000014" class="edge">
<title>Node9&#45;&gt;Node14</title>
<g id="a_edge32_Node000009_Node000014"><a xlink:title=" ">
<path fill="none" stroke="#63b8ff" d="M1266.58,-271.16C1277.29,-269.2 1288.45,-267.16 1298.9,-265.25 1386.89,-249.19 1423.53,-280.4 1496.9,-229.25 1566.54,-180.7 1623.25,-129.13 1578.9,-56.75 1566.73,-36.88 1542.81,-25.37 1522.84,-18.91"/>
<polygon fill="#63b8ff" stroke="#63b8ff" points="1523.98,-15.6 1513.4,-16.17 1522.03,-22.32 1523.98,-15.6"/>
</a>
</g>
</g>
<!-- Node9&#45;&gt;Node15 -->
<g id="edge28_Node000009_Node000015" class="edge">
<title>Node9&#45;&gt;Node15</title>
<g id="a_edge28_Node000009_Node000015"><a xlink:title=" ">
<path fill="none" stroke="#63b8ff" d="M1192.71,-271.21C1173.09,-261.42 1142.72,-245.52 1117.9,-229.25 1097.64,-215.97 1096.07,-207.53 1074.9,-195.75 1045.22,-179.23 1009.23,-166.06 981.17,-157.14"/>
<polygon fill="#63b8ff" stroke="#63b8ff" points="982.48,-153.88 971.89,-154.26 980.41,-160.56 982.48,-153.88"/>
</a>
</g>
</g>
<!-- Node9&#45;&gt;Node17 -->
<g id="edge33_Node000009_Node000017" class="edge">
<title>Node9&#45;&gt;Node17</title>
<g id="a_edge33_Node000009_Node000017"><a xlink:title=" ">
<path fill="none" stroke="#63b8ff" d="M1294.43,-274.24C1355.97,-267.25 1433.09,-253.79 1452.9,-229.25 1468.06,-210.47 1456.73,-182.21 1445.94,-163.44"/>
<polygon fill="#63b8ff" stroke="#63b8ff" points="1449.05,-161.81 1440.8,-155.15 1443.1,-165.5 1449.05,-161.81"/>
</a>
</g>
</g>
<!-- Node18 -->
<g id="Node000018" class="node">
<title>Node18</title>
<g id="a_Node000018"><a xlink:title=" ">
<polygon fill="#e0e0e0" stroke="#999999" points="1065.65,-222.88 1024.15,-222.88 1024.15,-202.12 1065.65,-202.12 1065.65,-222.88"/>
<text text-anchor="middle" x="1044.9" y="-209.38" font-family="Helvetica,sans-Serif" font-size="10.00">array</text>
</a>
</g>
</g>
<!-- Node9&#45;&gt;Node18 -->
<g id="edge30_Node000009_Node000018" class="edge">
<title>Node9&#45;&gt;Node18</title>
<g id="a_edge30_Node000009_Node000018"><a xlink:title=" ">
<path fill="none" stroke="#63b8ff" d="M1186.5,-271.19C1159.54,-261.06 1116.58,-244.62 1079.9,-229.25 1078.77,-228.77 1077.61,-228.28 1076.45,-227.78"/>
<polygon fill="#63b8ff" stroke="#63b8ff" points="1077.88,-224.59 1067.31,-223.78 1075.07,-231 1077.88,-224.59"/>
</a>
</g>
</g>
<!-- Node9&#45;&gt;Node19 -->
<g id="edge31_Node000009_Node000019" class="edge">
<title>Node9&#45;&gt;Node19</title>
<g id="a_edge31_Node000009_Node000019"><a xlink:title=" ">
<path fill="none" stroke="#63b8ff" d="M1294.37,-276.67C1366.25,-271.04 1473.1,-258.22 1561.9,-229.25 1563.26,-228.81 1564.62,-228.31 1565.98,-227.77"/>
<polygon fill="#63b8ff" stroke="#63b8ff" points="1567.19,-231.07 1574.78,-223.68 1564.23,-224.72 1567.19,-231.07"/>
</a>
</g>
</g>
<!-- Node11&#45;&gt;Node5 -->
<g id="edge23_Node000011_Node000005" class="edge">
<title>Node11&#45;&gt;Node5</title>
<g id="a_edge23_Node000011_Node000005"><a xlink:title=" ">
<path fill="none" stroke="#63b8ff" d="M1216.6,-195.62C1222.89,-164.15 1231.6,-93.7 1193.9,-56.75 1167.28,-30.65 928.71,-18.09 813.56,-13.51"/>
<polygon fill="#63b8ff" stroke="#63b8ff" points="813.79,-10.01 803.66,-13.12 813.52,-17.01 813.79,-10.01"/>
</a>
</g>
</g>
<!-- Node11&#45;&gt;Node7 -->
<g id="edge14_Node000011_Node000007" class="edge">
<title>Node11&#45;&gt;Node7</title>
<g id="a_edge14_Node000011_Node000007"><a xlink:title=" ">
<path fill="none" stroke="#63b8ff" d="M1181.77,-195.33C1160.53,-184.31 1132.6,-169.8 1111.85,-159.03"/>
<polygon fill="#63b8ff" stroke="#63b8ff" points="1113.55,-155.97 1103.07,-154.47 1110.33,-162.18 1113.55,-155.97"/>
</a>
</g>
</g>
<!-- Node11&#45;&gt;Node12 -->
<g id="edge15_Node000011_Node000012" class="edge">
<title>Node11&#45;&gt;Node12</title>
<g id="a_edge15_Node000011_Node000012"><a xlink:title=" ">
<path fill="none" stroke="#63b8ff" d="M1223.05,-195.52C1237.98,-172.01 1266.01,-127.87 1283.78,-99.89"/>
<polygon fill="#63b8ff" stroke="#63b8ff" points="1286.6,-101.98 1289.01,-91.66 1280.69,-98.23 1286.6,-101.98"/>
</a>
</g>
</g>
<!-- Node11&#45;&gt;Node14 -->
<g id="edge25_Node000011_Node000014" class="edge">
<title>Node11&#45;&gt;Node14</title>
<g id="a_edge25_Node000011_Node000014"><a xlink:title=" ">
<path fill="none" stroke="#63b8ff" d="M1235.1,-195.46C1286.84,-158.08 1415.01,-65.49 1467.22,-27.76"/>
<polygon fill="#63b8ff" stroke="#63b8ff" points="1469.05,-30.76 1475.1,-22.07 1464.95,-25.09 1469.05,-30.76"/>
</a>
</g>
</g>
<!-- Node11&#45;&gt;Node15 -->
<g id="edge19_Node000011_Node000015" class="edge">
<title>Node11&#45;&gt;Node15</title>
<g id="a_edge19_Node000011_Node000015"><a xlink:title=" ">
<path fill="none" stroke="#63b8ff" d="M1159.3,-198.49C1109.39,-186.37 1035.48,-168.42 986.29,-156.48"/>
<polygon fill="#63b8ff" stroke="#63b8ff" points="987.29,-153.12 976.74,-154.16 985.63,-159.92 987.29,-153.12"/>
</a>
</g>
</g>
<!-- Node16 -->
<g id="Node000016" class="node">
<title>Node16</title>
<g id="a_Node000016"><a xlink:title=" ">
<polygon fill="#e0e0e0" stroke="#999999" points="855.78,-153.38 818.03,-153.38 818.03,-132.62 855.78,-132.62 855.78,-153.38"/>
<text text-anchor="middle" x="836.9" y="-139.88" font-family="Helvetica,sans-Serif" font-size="10.00">map</text>
</a>
</g>
</g>
<!-- Node11&#45;&gt;Node16 -->
<g id="edge24_Node000011_Node000016" class="edge">
<title>Node11&#45;&gt;Node16</title>
<g id="a_edge24_Node000011_Node000016"><a xlink:title=" ">
<path fill="none" stroke="#63b8ff" d="M1159.12,-204.6C1068.41,-192.79 892.17,-169.09 864.9,-159.75 863.93,-159.42 862.96,-159.05 861.99,-158.66"/>
<polygon fill="#63b8ff" stroke="#63b8ff" points="863.72,-155.61 853.2,-154.38 860.66,-161.91 863.72,-155.61"/>
</a>
</g>
</g>
<!-- Node11&#45;&gt;Node17 -->
<g id="edge26_Node000011_Node000017" class="edge">
<title>Node11&#45;&gt;Node17</title>
<g id="a_edge26_Node000011_Node000017"><a xlink:title=" ">
<path fill="none" stroke="#63b8ff" d="M1266.72,-198.21C1303.47,-188.66 1353.09,-174.85 1395.9,-159.75 1397.47,-159.2 1399.06,-158.61 1400.66,-158.01"/>
<polygon fill="#63b8ff" stroke="#63b8ff" points="1401.79,-161.33 1409.77,-154.36 1399.18,-154.83 1401.79,-161.33"/>
</a>
</g>
</g>
<!-- Node12&#45;&gt;Node5 -->
<g id="edge16_Node000012_Node000005" class="edge">
<title>Node12&#45;&gt;Node5</title>
<g id="a_edge16_Node000012_Node000005"><a xlink:title=" ">
<path fill="none" stroke="#63b8ff" d="M1245.84,-59.29C1241.14,-58.35 1236.45,-57.49 1231.9,-56.75 1082.75,-32.54 905.26,-19.91 813.57,-14.57"/>
<polygon fill="#63b8ff" stroke="#63b8ff" points="813.98,-11.09 803.8,-14.01 813.58,-18.07 813.98,-11.09"/>
</a>
</g>
</g>
<!-- Node13 -->
<g id="Node000013" class="node">
<title>Node13</title>
<g id="a_Node000013"><a xlink:title=" ">
<polygon fill="#e0e0e0" stroke="#999999" points="1324.4,-20.75 1275.4,-20.75 1275.4,0 1324.4,0 1324.4,-20.75"/>
<text text-anchor="middle" x="1299.9" y="-7.25" font-family="Helvetica,sans-Serif" font-size="10.00">cstdint</text>
</a>
</g>
</g>
<!-- Node12&#45;&gt;Node13 -->
<g id="edge17_Node000012_Node000013" class="edge">
<title>Node12&#45;&gt;Node13</title>
<g id="a_edge17_Node000012_Node000013"><a xlink:title=" ">
<path fill="none" stroke="#63b8ff" d="M1299.9,-56.44C1299.9,-49.1 1299.9,-40.32 1299.9,-32.46"/>
<polygon fill="#63b8ff" stroke="#63b8ff" points="1303.4,-32.73 1299.9,-22.73 1296.4,-32.73 1303.4,-32.73"/>
</a>
</g>
</g>
<!-- Node12&#45;&gt;Node14 -->
<g id="edge18_Node000012_Node000014" class="edge">
<title>Node12&#45;&gt;Node14</title>
<g id="a_edge18_Node000012_Node000014"><a xlink:title=" ">
<path fill="none" stroke="#63b8ff" d="M1350.32,-56.28C1384.1,-45.41 1427.6,-31.42 1456.99,-21.96"/>
<polygon fill="#63b8ff" stroke="#63b8ff" points="1458,-25.31 1466.45,-18.92 1455.86,-18.65 1458,-25.31"/>
</a>
</g>
</g>
<!-- Node15&#45;&gt;Node5 -->
<g id="edge22_Node000015_Node000005" class="edge">
<title>Node15&#45;&gt;Node5</title>
<g id="a_edge22_Node000015_Node000005"><a xlink:title=" ">
<path fill="none" stroke="#63b8ff" d="M921.15,-132.18C889.86,-109.85 813.12,-55.07 774.66,-27.62"/>
<polygon fill="#63b8ff" stroke="#63b8ff" points="776.73,-24.79 766.55,-21.83 772.66,-30.49 776.73,-24.79"/>
</a>
</g>
</g>
<!-- Node15&#45;&gt;Node8 -->
<g id="edge20_Node000015_Node000008" class="edge">
<title>Node15&#45;&gt;Node8</title>
<g id="a_edge20_Node000015_Node000008"><a xlink:title=" ">
<path fill="none" stroke="#63b8ff" d="M974.72,-132.16C984.54,-129.98 995.07,-127.85 1004.9,-126.25 1162.76,-100.65 1203.81,-106.44 1362.9,-90.25 1391.5,-87.34 1423.09,-84.09 1450.11,-81.31"/>
<polygon fill="#63b8ff" stroke="#63b8ff" points="1450.29,-84.81 1459.88,-80.3 1449.57,-77.84 1450.29,-84.81"/>
</a>
</g>
</g>
<!-- Node15&#45;&gt;Node12 -->
<g id="edge21_Node000015_Node000012" class="edge">
<title>Node15&#45;&gt;Node12</title>
<g id="a_edge21_Node000015_Node000012"><a xlink:title=" ">
<path fill="none" stroke="#63b8ff" d="M977.03,-132.18C986.2,-130.14 995.87,-128.06 1004.9,-126.25 1083.58,-110.51 1174.59,-94.94 1234.48,-85.06"/>
<polygon fill="#63b8ff" stroke="#63b8ff" points="1234.87,-88.54 1244.17,-83.47 1233.73,-81.63 1234.87,-88.54"/>
</a>
</g>
</g>
<!-- Node20&#45;&gt;Node2 -->
<g id="edge38_Node000020_Node000002" class="edge">
<title>Node20&#45;&gt;Node2</title>
<g id="a_edge38_Node000020_Node000002"><a xlink:title=" ">
<path fill="none" stroke="#63b8ff" d="M563.33,-201.11C488.79,-190.7 370.9,-174.2 268.9,-159.75 257.47,-158.13 245.37,-156.41 233.53,-154.72"/>
<polygon fill="#63b8ff" stroke="#63b8ff" points="234.2,-151.27 223.8,-153.32 233.2,-158.2 234.2,-151.27"/>
</a>
</g>
</g>
<!-- Node20&#45;&gt;Node3 -->
<g id="edge41_Node000020_Node000003" class="edge">
<title>Node20&#45;&gt;Node3</title>
<g id="a_edge41_Node000020_Node000003"><a xlink:title=" ">
<path fill="none" stroke="#63b8ff" d="M568.44,-195.33C526.35,-185.53 472.47,-172.99 428.5,-162.76"/>
<polygon fill="#63b8ff" stroke="#63b8ff" points="429.56,-159.41 419.03,-160.55 427.97,-166.23 429.56,-159.41"/>
</a>
</g>
</g>
<!-- Node20&#45;&gt;Node5 -->
<g id="edge44_Node000020_Node000005" class="edge">
<title>Node20&#45;&gt;Node5</title>
<g id="a_edge44_Node000020_Node000005"><a xlink:title=" ">
<path fill="none" stroke="#63b8ff" d="M660.27,-195.32C671.88,-186 685.54,-173.43 694.9,-159.75 709.68,-138.16 733.85,-67.13 745.38,-31.76"/>
<polygon fill="#63b8ff" stroke="#63b8ff" points="748.69,-32.91 748.43,-22.32 742.03,-30.76 748.69,-32.91"/>
</a>
</g>
</g>
<!-- Node20&#45;&gt;Node7 -->
<g id="edge37_Node000020_Node000007" class="edge">
<title>Node20&#45;&gt;Node7</title>
<g id="a_edge37_Node000020_Node000007"><a xlink:title=" ">
<path fill="none" stroke="#63b8ff" d="M712.61,-202.28C786.91,-192.8 904.06,-177.03 1004.9,-159.75 1011.61,-158.6 1018.61,-157.31 1025.56,-155.98"/>
<polygon fill="#63b8ff" stroke="#63b8ff" points="1025.75,-159.51 1034.9,-154.15 1024.41,-152.64 1025.75,-159.51"/>
</a>
</g>
</g>
<!-- Node20&#45;&gt;Node12 -->
<g id="edge42_Node000020_Node000012" class="edge">
<title>Node20&#45;&gt;Node12</title>
<g id="a_edge42_Node000020_Node000012"><a xlink:title=" ">
<path fill="none" stroke="#63b8ff" d="M667.27,-195.26C708.16,-172.93 780.4,-134.56 808.9,-126.25 956.62,-83.17 1138.6,-75.06 1234.16,-74.06"/>
<polygon fill="#63b8ff" stroke="#63b8ff" points="1234.17,-77.56 1244.15,-73.98 1234.12,-70.56 1234.17,-77.56"/>
</a>
</g>
</g>
<!-- Node20&#45;&gt;Node15 -->
<g id="edge43_Node000020_Node000015" class="edge">
<title>Node20&#45;&gt;Node15</title>
<g id="a_edge43_Node000020_Node000015"><a xlink:title=" ">
<path fill="none" stroke="#63b8ff" d="M709.04,-195.33C761.63,-183.38 832.18,-167.35 880.35,-156.4"/>
<polygon fill="#63b8ff" stroke="#63b8ff" points="881.03,-159.83 890,-154.21 879.48,-153.01 881.03,-159.83"/>
</a>
</g>
</g>
<!-- Node20&#45;&gt;Node16 -->
<g id="edge45_Node000020_Node000016" class="edge">
<title>Node20&#45;&gt;Node16</title>
<g id="a_edge45_Node000020_Node000016"><a xlink:title=" ">
<path fill="none" stroke="#63b8ff" d="M697,-195.31C729.02,-185.99 769.06,-173.42 803.9,-159.75 805.03,-159.31 806.17,-158.85 807.31,-158.37"/>
<polygon fill="#63b8ff" stroke="#63b8ff" points="808.47,-161.68 816.18,-154.41 805.62,-155.29 808.47,-161.68"/>
</a>
</g>
</g>
<!-- Node21 -->
<g id="Node000021" class="node">
<title>Node21</title>
<g id="a_Node000021"><a xlink:title=" ">
<polygon fill="#e0e0e0" stroke="#999999" points="571.9,-153.38 435.9,-153.38 435.9,-132.62 571.9,-132.62 571.9,-153.38"/>
<text text-anchor="middle" x="503.9" y="-139.88" font-family="Helvetica,sans-Serif" font-size="10.00">deal.II/lac/precondition.h</text>
</a>
</g>
</g>
<!-- Node20&#45;&gt;Node21 -->
<g id="edge39_Node000020_Node000021" class="edge">
<title>Node20&#45;&gt;Node21</title>
<g id="a_edge39_Node000020_Node000021"><a xlink:title=" ">
<path fill="none" stroke="#63b8ff" d="M605.81,-195.33C583.82,-184.25 554.87,-169.67 533.44,-158.88"/>
<polygon fill="#63b8ff" stroke="#63b8ff" points="535.16,-155.83 524.65,-154.45 532.01,-162.08 535.16,-155.83"/>
</a>
</g>
</g>
<!-- Node22 -->
<g id="Node000022" class="node">
<title>Node22</title>
<g id="a_Node000022"><a xlink:title=" ">
<polygon fill="#e0e0e0" stroke="#999999" points="686.03,-159.75 589.78,-159.75 589.78,-126.25 686.03,-126.25 686.03,-159.75"/>
<text text-anchor="start" x="597.78" y="-146.25" font-family="Helvetica,sans-Serif" font-size="10.00">deal.II/lac/solver</text>
<text text-anchor="middle" x="637.9" y="-133.5" font-family="Helvetica,sans-Serif" font-size="10.00">_selector.h</text>
</a>
</g>
</g>
<!-- Node20&#45;&gt;Node22 -->
<g id="edge40_Node000020_Node000022" class="edge">
<title>Node20&#45;&gt;Node22</title>
<g id="a_edge40_Node000020_Node000022"><a xlink:title=" ">
<path fill="none" stroke="#63b8ff" d="M637.9,-195.5C637.9,-188.27 637.9,-179.53 637.9,-171.31"/>
<polygon fill="#63b8ff" stroke="#63b8ff" points="641.4,-171.4 637.9,-161.4 634.4,-171.4 641.4,-171.4"/>
</a>
</g>
</g>
<!-- Node23&#45;&gt;Node2 -->
<g id="edge47_Node000023_Node000002" class="edge">
<title>Node23&#45;&gt;Node2</title>
<g id="a_edge47_Node000023_Node000002"><a xlink:title=" ">
<path fill="none" stroke="#63b8ff" d="M545.36,-276.75C446.31,-270.55 288.07,-256.65 235.9,-229.25 209.77,-215.53 188.12,-189.18 174.5,-169.39"/>
<polygon fill="#63b8ff" stroke="#63b8ff" points="177.57,-167.69 169.14,-161.28 171.73,-171.55 177.57,-167.69"/>
</a>
</g>
</g>
<!-- Node23&#45;&gt;Node5 -->
<g id="edge50_Node000023_Node000005" class="edge">
<title>Node23&#45;&gt;Node5</title>
<g id="a_edge50_Node000023_Node000005"><a xlink:title=" ">
<path fill="none" stroke="#63b8ff" d="M545.06,-279.65C459.21,-273.19 329.95,-248.23 268.9,-159.75 257.68,-143.48 258.3,-72.72 273.9,-56.75 302.44,-27.55 567.29,-16.47 690.01,-12.87"/>
<polygon fill="#63b8ff" stroke="#63b8ff" points="690.02,-16.38 699.92,-12.59 689.82,-9.38 690.02,-16.38"/>
</a>
</g>
</g>
<!-- Node23&#45;&gt;Node15 -->
<g id="edge48_Node000023_Node000015" class="edge">
<title>Node23&#45;&gt;Node15</title>
<g id="a_edge48_Node000023_Node000015"><a xlink:title=" ">
<path fill="none" stroke="#63b8ff" d="M664.91,-264.88C725.16,-237.9 845.48,-184.04 902.93,-158.31"/>
<polygon fill="#63b8ff" stroke="#63b8ff" points="904.15,-161.6 911.84,-154.32 901.29,-155.22 904.15,-161.6"/>
</a>
</g>
</g>
<!-- Node23&#45;&gt;Node20 -->
<g id="edge49_Node000023_Node000020" class="edge">
<title>Node23&#45;&gt;Node20</title>
<g id="a_edge49_Node000023_Node000020"><a xlink:title=" ">
<path fill="none" stroke="#63b8ff" d="M631.04,-265C632.01,-257.69 633.19,-248.82 634.3,-240.52"/>
<polygon fill="#63b8ff" stroke="#63b8ff" points="637.73,-241.26 635.59,-230.88 630.8,-240.33 637.73,-241.26"/>
</a>
</g>
</g>
</g>
</svg>
