<?xml version="1.0" encoding="UTF-8" standalone="no"?>
<!DOCTYPE svg PUBLIC "-//W3C//DTD SVG 1.1//EN"
 "http://www.w3.org/Graphics/SVG/1.1/DTD/svg11.dtd">
<!-- Generated by graphviz version 12.2.1 (20241206.2353)
 -->
<!-- Title: include/prismspf/user_inputs/temporal_discretization.h Pages: 1 -->
<svg width="1575pt" height="724pt"
 viewBox="0.00 0.00 1574.62 723.75" xmlns="http://www.w3.org/2000/svg" xmlns:xlink="http://www.w3.org/1999/xlink">
<g id="graph0" class="graph" transform="scale(1 1) rotate(0) translate(4 719.75)">
<title>include/prismspf/user_inputs/temporal_discretization.h</title>
<!-- Node1 -->
<g id="Node000001" class="node">
<title>Node1</title>
<g id="a_Node000001"><a xlink:title=" ">
<polygon fill="#999999" stroke="#666666" points="1354,-715.75 1175.25,-715.75 1175.25,-682.25 1354,-682.25 1354,-715.75"/>
<text text-anchor="start" x="1183.25" y="-702.25" font-family="Helvetica,sans-Serif" font-size="10.00">include/prismspf/user</text>
<text text-anchor="middle" x="1264.62" y="-689.5" font-family="Helvetica,sans-Serif" font-size="10.00">_inputs/temporal_discretization.h</text>
</a>
</g>
</g>
<!-- Node2 -->
<g id="Node000002" class="node">
<title>Node2</title>
<g id="a_Node000002"><a xlink:href="nucleation__manager_8h.html" target="_top" xlink:title=" ">
<polygon fill="white" stroke="#666666" points="1274.12,-368.25 1123.12,-368.25 1123.12,-334.75 1274.12,-334.75 1274.12,-368.25"/>
<text text-anchor="start" x="1131.12" y="-354.75" font-family="Helvetica,sans-Serif" font-size="10.00">include/prismspf/nucleation</text>
<text text-anchor="middle" x="1198.62" y="-342" font-family="Helvetica,sans-Serif" font-size="10.00">/nucleation_manager.h</text>
</a>
</g>
</g>
<!-- Node1&#45;&gt;Node2 -->
<g id="edge1_Node000001_Node000002" class="edge">
<title>Node1&#45;&gt;Node2</title>
<g id="a_edge1_Node000001_Node000002"><a xlink:title=" ">
<path fill="none" stroke="#63b8ff" d="M1264.62,-670.48C1264.62,-642.82 1264.62,-598.95 1264.62,-561 1264.62,-561 1264.62,-561 1264.62,-489.5 1264.62,-450.68 1263.49,-438.71 1245.62,-404.25 1238.59,-390.67 1227.09,-377.93 1217.23,-368.48"/>
<polygon fill="#63b8ff" stroke="#63b8ff" points="1261.13,-670.46 1264.63,-680.46 1268.13,-670.46 1261.13,-670.46"/>
</a>
</g>
</g>
<!-- Node4 -->
<g id="Node000004" class="node">
<title>Node4</title>
<g id="a_Node000004"><a xlink:href="problem_8cc.html" target="_top" xlink:title=" ">
<polygon fill="white" stroke="#666666" points="1058.25,-20.75 947,-20.75 947,0 1058.25,0 1058.25,-20.75"/>
<text text-anchor="middle" x="1002.62" y="-7.25" font-family="Helvetica,sans-Serif" font-size="10.00">src/core/problem.cc</text>
</a>
</g>
</g>
<!-- Node1&#45;&gt;Node4 -->
<g id="edge61_Node000001_Node000004" class="edge">
<title>Node1&#45;&gt;Node4</title>
<g id="a_edge61_Node000001_Node000004"><a xlink:title=" ">
<path fill="none" stroke="#63b8ff" d="M1365.8,-692.86C1453.57,-682.29 1566.62,-651.18 1566.62,-561 1566.62,-561 1566.62,-561 1566.62,-142 1566.62,-38.41 1200.98,-16.95 1058.51,-12.52"/>
<polygon fill="#63b8ff" stroke="#63b8ff" points="1365.47,-689.38 1355.92,-693.97 1366.25,-696.33 1365.47,-689.38"/>
</a>
</g>
</g>
<!-- Node5 -->
<g id="Node000005" class="node">
<title>Node5</title>
<g id="a_Node000005"><a xlink:href="nucleus__refinement__function_8h.html" target="_top" xlink:title=" ">
<polygon fill="white" stroke="#666666" points="1538.12,-576.75 1369.12,-576.75 1369.12,-543.25 1538.12,-543.25 1538.12,-576.75"/>
<text text-anchor="start" x="1377.12" y="-563.25" font-family="Helvetica,sans-Serif" font-size="10.00">include/prismspf/nucleation</text>
<text text-anchor="middle" x="1453.62" y="-550.5" font-family="Helvetica,sans-Serif" font-size="10.00">/nucleus_refinement_function.h</text>
</a>
</g>
</g>
<!-- Node1&#45;&gt;Node5 -->
<g id="edge4_Node000001_Node000005" class="edge">
<title>Node1&#45;&gt;Node5</title>
<g id="a_edge4_Node000001_Node000005"><a xlink:title=" ">
<path fill="none" stroke="#63b8ff" d="M1365.47,-685.54C1413.3,-677.35 1463.14,-664.67 1477.62,-646.25 1493.59,-625.94 1478.26,-595.57 1465.84,-577.1"/>
<polygon fill="#63b8ff" stroke="#63b8ff" points="1365.14,-682.05 1355.84,-687.13 1366.27,-688.95 1365.14,-682.05"/>
</a>
</g>
</g>
<!-- Node6 -->
<g id="Node000006" class="node">
<title>Node6</title>
<g id="a_Node000006"><a xlink:href="checkpoint__parameters_8h.html" target="_top" xlink:title=" ">
<polygon fill="white" stroke="#666666" points="1062.62,-646.25 884.62,-646.25 884.62,-612.75 1062.62,-612.75 1062.62,-646.25"/>
<text text-anchor="start" x="892.62" y="-632.75" font-family="Helvetica,sans-Serif" font-size="10.00">include/prismspf/user</text>
<text text-anchor="middle" x="973.62" y="-620" font-family="Helvetica,sans-Serif" font-size="10.00">_inputs/checkpoint_parameters.h</text>
</a>
</g>
</g>
<!-- Node1&#45;&gt;Node6 -->
<g id="edge6_Node000001_Node000006" class="edge">
<title>Node1&#45;&gt;Node6</title>
<g id="a_edge6_Node000001_Node000006"><a xlink:title=" ">
<path fill="none" stroke="#63b8ff" d="M1183.94,-679.29C1139.86,-669.06 1085.79,-656.52 1043.51,-646.71"/>
<polygon fill="#63b8ff" stroke="#63b8ff" points="1182.92,-682.64 1193.45,-681.49 1184.5,-675.82 1182.92,-682.64"/>
</a>
</g>
</g>
<!-- Node7 -->
<g id="Node000007" class="node">
<title>Node7</title>
<g id="a_Node000007"><a xlink:href="user__input__parameters_8h.html" target="_top" xlink:title=" ">
<polygon fill="white" stroke="#666666" points="1061.5,-576.75 885.75,-576.75 885.75,-543.25 1061.5,-543.25 1061.5,-576.75"/>
<text text-anchor="start" x="893.75" y="-563.25" font-family="Helvetica,sans-Serif" font-size="10.00">include/prismspf/user</text>
<text text-anchor="middle" x="973.62" y="-550.5" font-family="Helvetica,sans-Serif" font-size="10.00">_inputs/user_input_parameters.h</text>
</a>
</g>
</g>
<!-- Node1&#45;&gt;Node7 -->
<g id="edge60_Node000001_Node000007" class="edge">
<title>Node1&#45;&gt;Node7</title>
<g id="a_edge60_Node000001_Node000007"><a xlink:title=" ">
<path fill="none" stroke="#63b8ff" d="M1163.7,-691.39C1054.82,-683.21 894.4,-667.69 875.62,-646.25 865.82,-635.05 867.94,-625.5 875.62,-612.75 885.41,-596.52 902.17,-585.12 919.1,-577.23"/>
<polygon fill="#63b8ff" stroke="#63b8ff" points="1163.32,-694.87 1173.55,-692.12 1163.84,-687.89 1163.32,-694.87"/>
</a>
</g>
</g>
<!-- Node29 -->
<g id="Node000029" class="node">
<title>Node29</title>
<g id="a_Node000029"><a xlink:href="nucleation__parameters_8h.html" target="_top" xlink:title=" ">
<polygon fill="white" stroke="#666666" points="1468.5,-646.25 1292.75,-646.25 1292.75,-612.75 1468.5,-612.75 1468.5,-646.25"/>
<text text-anchor="start" x="1300.75" y="-632.75" font-family="Helvetica,sans-Serif" font-size="10.00">include/prismspf/user</text>
<text text-anchor="middle" x="1380.62" y="-620" font-family="Helvetica,sans-Serif" font-size="10.00">_inputs/nucleation_parameters.h</text>
</a>
</g>
</g>
<!-- Node1&#45;&gt;Node29 -->
<g id="edge53_Node000001_Node000029" class="edge">
<title>Node1&#45;&gt;Node29</title>
<g id="a_edge53_Node000001_Node000029"><a xlink:title=" ">
<path fill="none" stroke="#63b8ff" d="M1302.32,-676.07C1318.85,-666.45 1337.9,-655.36 1353.07,-646.54"/>
<polygon fill="#63b8ff" stroke="#63b8ff" points="1300.6,-673.02 1293.72,-681.07 1304.12,-679.07 1300.6,-673.02"/>
</a>
</g>
</g>
<!-- Node30 -->
<g id="Node000030" class="node">
<title>Node30</title>
<g id="a_Node000030"><a xlink:href="output__parameters_8h.html" target="_top" xlink:title=" ">
<polygon fill="white" stroke="#666666" points="1236.75,-646.25 1080.5,-646.25 1080.5,-612.75 1236.75,-612.75 1236.75,-646.25"/>
<text text-anchor="start" x="1088.5" y="-632.75" font-family="Helvetica,sans-Serif" font-size="10.00">include/prismspf/user</text>
<text text-anchor="middle" x="1158.62" y="-620" font-family="Helvetica,sans-Serif" font-size="10.00">_inputs/output_parameters.h</text>
</a>
</g>
</g>
<!-- Node1&#45;&gt;Node30 -->
<g id="edge57_Node000001_Node000030" class="edge">
<title>Node1&#45;&gt;Node30</title>
<g id="a_edge57_Node000001_Node000030"><a xlink:title=" ">
<path fill="none" stroke="#63b8ff" d="M1229.75,-675.79C1214.75,-666.24 1197.54,-655.28 1183.81,-646.54"/>
<polygon fill="#63b8ff" stroke="#63b8ff" points="1227.64,-678.6 1237.96,-681.02 1231.4,-672.7 1227.64,-678.6"/>
</a>
</g>
</g>
<!-- Node3 -->
<g id="Node000003" class="node">
<title>Node3</title>
<g id="a_Node000003"><a xlink:href="problem_8h.html" target="_top" xlink:title=" ">
<polygon fill="white" stroke="#666666" points="1108.12,-229.25 987.12,-229.25 987.12,-195.75 1108.12,-195.75 1108.12,-229.25"/>
<text text-anchor="start" x="995.12" y="-215.75" font-family="Helvetica,sans-Serif" font-size="10.00">include/prismspf/core</text>
<text text-anchor="middle" x="1047.62" y="-203" font-family="Helvetica,sans-Serif" font-size="10.00">/problem.h</text>
</a>
</g>
</g>
<!-- Node2&#45;&gt;Node3 -->
<g id="edge2_Node000002_Node000003" class="edge">
<title>Node2&#45;&gt;Node3</title>
<g id="a_edge2_Node000002_Node000003"><a xlink:title=" ">
<path fill="none" stroke="#63b8ff" d="M1198.91,-322.98C1197.69,-304.66 1193.23,-281.14 1179.62,-265.25 1161.61,-244.22 1133.94,-231.68 1108.57,-224.23"/>
<polygon fill="#63b8ff" stroke="#63b8ff" points="1195.41,-323.01 1199.26,-332.89 1202.41,-322.77 1195.41,-323.01"/>
</a>
</g>
</g>
<!-- Node3&#45;&gt;Node4 -->
<g id="edge3_Node000003_Node000004" class="edge">
<title>Node3&#45;&gt;Node4</title>
<g id="a_edge3_Node000003_Node000004"><a xlink:title=" ">
<path fill="none" stroke="#63b8ff" d="M1041.54,-184.45C1031.37,-139.2 1011.36,-50.23 1004.78,-20.96"/>
<polygon fill="#63b8ff" stroke="#63b8ff" points="1038.08,-185 1043.69,-193.98 1044.91,-183.46 1038.08,-185"/>
</a>
</g>
</g>
<!-- Node5&#45;&gt;Node3 -->
<g id="edge5_Node000005_Node000003" class="edge">
<title>Node5&#45;&gt;Node3</title>
<g id="a_edge5_Node000005_Node000003"><a xlink:title=" ">
<path fill="none" stroke="#63b8ff" d="M1439.78,-532.92C1407.1,-474.17 1318.97,-331.45 1201.62,-265.25 1172.64,-248.9 1137.65,-236.62 1108.36,-228.15"/>
<polygon fill="#63b8ff" stroke="#63b8ff" points="1436.63,-534.46 1444.51,-541.55 1442.77,-531.09 1436.63,-534.46"/>
</a>
</g>
</g>
<!-- Node6&#45;&gt;Node7 -->
<g id="edge7_Node000006_Node000007" class="edge">
<title>Node6&#45;&gt;Node7</title>
<g id="a_edge7_Node000006_Node000007"><a xlink:title=" ">
<path fill="none" stroke="#63b8ff" d="M973.62,-601.06C973.62,-592.84 973.62,-584.09 973.62,-576.88"/>
<polygon fill="#63b8ff" stroke="#63b8ff" points="970.13,-600.99 973.63,-610.99 977.13,-600.99 970.13,-600.99"/>
</a>
</g>
</g>
<!-- Node7&#45;&gt;Node2 -->
<g id="edge45_Node000007_Node000002" class="edge">
<title>Node7&#45;&gt;Node2</title>
<g id="a_edge45_Node000007_Node000002"><a xlink:title=" ">
<path fill="none" stroke="#63b8ff" d="M990.7,-533.77C1017.17,-495.19 1067.56,-423.9 1091.62,-404.25 1110,-389.24 1133.46,-377.27 1153.73,-368.64"/>
<polygon fill="#63b8ff" stroke="#63b8ff" points="988.12,-531.35 985.37,-541.58 993.9,-535.3 988.12,-531.35"/>
</a>
</g>
</g>
<!-- Node7&#45;&gt;Node4 -->
<g id="edge51_Node000007_Node000004" class="edge">
<title>Node7&#45;&gt;Node4</title>
<g id="a_edge51_Node000007_Node000004"><a xlink:title=" ">
<path fill="none" stroke="#63b8ff" d="M1073.12,-557.77C1169.96,-550.67 1302.62,-522.58 1302.62,-422 1302.62,-422 1302.62,-422 1302.62,-142 1302.62,-36.77 1145.53,-15.43 1058.7,-11.68"/>
<polygon fill="#63b8ff" stroke="#63b8ff" points="1073.05,-554.26 1063.3,-558.42 1073.51,-561.25 1073.05,-554.26"/>
</a>
</g>
</g>
<!-- Node8 -->
<g id="Node000008" class="node">
<title>Node8</title>
<g id="a_Node000008"><a xlink:href="pde__operator__base_8h.html" target="_top" xlink:title=" ">
<polygon fill="white" stroke="#666666" points="666.12,-507.25 545.12,-507.25 545.12,-473.75 666.12,-473.75 666.12,-507.25"/>
<text text-anchor="start" x="553.12" y="-493.75" font-family="Helvetica,sans-Serif" font-size="10.00">include/prismspf/core</text>
<text text-anchor="middle" x="605.62" y="-481" font-family="Helvetica,sans-Serif" font-size="10.00">/pde_operator_base.h</text>
</a>
</g>
</g>
<!-- Node7&#45;&gt;Node8 -->
<g id="edge8_Node000007_Node000008" class="edge">
<title>Node7&#45;&gt;Node8</title>
<g id="a_edge8_Node000007_Node000008"><a xlink:title=" ">
<path fill="none" stroke="#63b8ff" d="M874.38,-543.03C816.32,-533.37 741.66,-520.41 675.62,-507.25 672.57,-506.64 669.45,-506 666.29,-505.34"/>
<polygon fill="#63b8ff" stroke="#63b8ff" points="873.47,-546.42 883.9,-544.6 874.61,-539.52 873.47,-546.42"/>
</a>
</g>
</g>
<!-- Node17 -->
<g id="Node000017" class="node">
<title>Node17</title>
<g id="a_Node000017"><a xlink:href="solve__context_8h.html" target="_top" xlink:title=" ">
<polygon fill="white" stroke="#666666" points="968.25,-437.75 833,-437.75 833,-404.25 968.25,-404.25 968.25,-437.75"/>
<text text-anchor="start" x="841" y="-424.25" font-family="Helvetica,sans-Serif" font-size="10.00">include/prismspf/solvers</text>
<text text-anchor="middle" x="900.62" y="-411.5" font-family="Helvetica,sans-Serif" font-size="10.00">/solve_context.h</text>
</a>
</g>
</g>
<!-- Node7&#45;&gt;Node17 -->
<g id="edge46_Node000007_Node000017" class="edge">
<title>Node7&#45;&gt;Node17</title>
<g id="a_edge46_Node000007_Node000017"><a xlink:title=" ">
<path fill="none" stroke="#63b8ff" d="M964.69,-532.63C958.4,-515.38 949.22,-492.63 938.62,-473.75 931.53,-461.11 921.84,-447.97 914.03,-438.09"/>
<polygon fill="#63b8ff" stroke="#63b8ff" points="961.25,-533.39 967.89,-541.64 967.85,-531.05 961.25,-533.39"/>
</a>
</g>
</g>
<!-- Node19 -->
<g id="Node000019" class="node">
<title>Node19</title>
<g id="a_Node000019"><a xlink:href="solution__output_8h.html" target="_top" xlink:title=" ">
<polygon fill="white" stroke="#666666" points="1087.12,-368.25 966.12,-368.25 966.12,-334.75 1087.12,-334.75 1087.12,-368.25"/>
<text text-anchor="start" x="974.12" y="-354.75" font-family="Helvetica,sans-Serif" font-size="10.00">include/prismspf/core</text>
<text text-anchor="middle" x="1026.62" y="-342" font-family="Helvetica,sans-Serif" font-size="10.00">/solution_output.h</text>
</a>
</g>
</g>
<!-- Node7&#45;&gt;Node19 -->
<g id="edge44_Node000007_Node000019" class="edge">
<title>Node7&#45;&gt;Node19</title>
<g id="a_edge44_Node000007_Node000019"><a xlink:title=" ">
<path fill="none" stroke="#63b8ff" d="M980.58,-531.9C991.77,-488.31 1013.43,-403.92 1022.49,-368.63"/>
<polygon fill="#63b8ff" stroke="#63b8ff" points="977.26,-530.77 978.16,-541.33 984.04,-532.51 977.26,-530.77"/>
</a>
</g>
</g>
<!-- Node21 -->
<g id="Node000021" class="node">
<title>Node21</title>
<g id="a_Node000021"><a xlink:href="solver__base_8h.html" target="_top" xlink:title=" ">
<polygon fill="white" stroke="#666666" points="582.25,-368.25 447,-368.25 447,-334.75 582.25,-334.75 582.25,-368.25"/>
<text text-anchor="start" x="455" y="-354.75" font-family="Helvetica,sans-Serif" font-size="10.00">include/prismspf/solvers</text>
<text text-anchor="middle" x="514.62" y="-342" font-family="Helvetica,sans-Serif" font-size="10.00">/solver_base.h</text>
</a>
</g>
</g>
<!-- Node7&#45;&gt;Node21 -->
<g id="edge47_Node000007_Node000021" class="edge">
<title>Node7&#45;&gt;Node21</title>
<g id="a_edge47_Node000007_Node000021"><a xlink:title=" ">
<path fill="none" stroke="#63b8ff" d="M873.87,-558.86C761.17,-556.72 586.77,-546.85 535.62,-507.25 493.61,-474.71 503.62,-401.29 510.62,-368.66"/>
<polygon fill="#63b8ff" stroke="#63b8ff" points="873.68,-562.35 883.74,-559.02 873.8,-555.35 873.68,-562.35"/>
</a>
</g>
</g>
<!-- Node26 -->
<g id="Node000026" class="node">
<title>Node26</title>
<g id="a_Node000026"><a xlink:href="periodic__distance_8h.html" target="_top" xlink:title=" ">
<polygon fill="white" stroke="#666666" points="1237,-437.75 1100.25,-437.75 1100.25,-404.25 1237,-404.25 1237,-437.75"/>
<text text-anchor="start" x="1108.25" y="-424.25" font-family="Helvetica,sans-Serif" font-size="10.00">include/prismspf/utilities</text>
<text text-anchor="middle" x="1168.62" y="-411.5" font-family="Helvetica,sans-Serif" font-size="10.00">/periodic_distance.h</text>
</a>
</g>
</g>
<!-- Node7&#45;&gt;Node26 -->
<g id="edge48_Node000007_Node000026" class="edge">
<title>Node7&#45;&gt;Node26</title>
<g id="a_edge48_Node000007_Node000026"><a xlink:title=" ">
<path fill="none" stroke="#63b8ff" d="M1006.47,-536.48C1019.61,-527.44 1034.86,-516.89 1048.62,-507.25 1082.75,-483.36 1122.07,-455.33 1146.13,-438.12"/>
<polygon fill="#63b8ff" stroke="#63b8ff" points="1004.83,-533.36 998.57,-541.91 1008.8,-539.13 1004.83,-533.36"/>
</a>
</g>
</g>
<!-- Node27 -->
<g id="Node000027" class="node">
<title>Node27</title>
<g id="a_Node000027"><a xlink:href="constraint__manager_8cc.html" target="_top" xlink:title=" ">
<polygon fill="white" stroke="#666666" points="790.62,-507.25 684.62,-507.25 684.62,-473.75 790.62,-473.75 790.62,-507.25"/>
<text text-anchor="start" x="692.62" y="-493.75" font-family="Helvetica,sans-Serif" font-size="10.00">src/core/constraint</text>
<text text-anchor="middle" x="737.62" y="-481" font-family="Helvetica,sans-Serif" font-size="10.00">_manager.cc</text>
</a>
</g>
</g>
<!-- Node7&#45;&gt;Node27 -->
<g id="edge50_Node000007_Node000027" class="edge">
<title>Node7&#45;&gt;Node27</title>
<g id="a_edge50_Node000007_Node000027"><a xlink:title=" ">
<path fill="none" stroke="#63b8ff" d="M906.5,-539.8C869.84,-529.32 825.08,-516.51 790.86,-506.73"/>
<polygon fill="#63b8ff" stroke="#63b8ff" points="905.06,-543.03 915.64,-542.42 906.99,-536.3 905.06,-543.03"/>
</a>
</g>
</g>
<!-- Node28 -->
<g id="Node000028" class="node">
<title>Node28</title>
<g id="a_Node000028"><a xlink:href="user__input__parameters_8cc.html" target="_top" xlink:title=" ">
<polygon fill="white" stroke="#666666" points="930.12,-507.25 809.12,-507.25 809.12,-473.75 930.12,-473.75 930.12,-507.25"/>
<text text-anchor="start" x="817.12" y="-493.75" font-family="Helvetica,sans-Serif" font-size="10.00">src/user_inputs/user</text>
<text text-anchor="middle" x="869.62" y="-481" font-family="Helvetica,sans-Serif" font-size="10.00">_input_parameters.cc</text>
</a>
</g>
</g>
<!-- Node7&#45;&gt;Node28 -->
<g id="edge52_Node000007_Node000028" class="edge">
<title>Node7&#45;&gt;Node28</title>
<g id="a_edge52_Node000007_Node000028"><a xlink:title=" ">
<path fill="none" stroke="#63b8ff" d="M939.41,-536.79C924.69,-527.24 907.8,-516.28 894.33,-507.54"/>
<polygon fill="#63b8ff" stroke="#63b8ff" points="937.15,-539.5 947.44,-542.01 940.96,-533.63 937.15,-539.5"/>
</a>
</g>
</g>
<!-- Node9 -->
<g id="Node000009" class="node">
<title>Node9</title>
<g id="a_Node000009"><a xlink:href="mf__operator_8h.html" target="_top" xlink:title=" ">
<polygon fill="white" stroke="#666666" points="486.25,-298.75 351,-298.75 351,-265.25 486.25,-265.25 486.25,-298.75"/>
<text text-anchor="start" x="359" y="-285.25" font-family="Helvetica,sans-Serif" font-size="10.00">include/prismspf/solvers</text>
<text text-anchor="middle" x="418.62" y="-272.5" font-family="Helvetica,sans-Serif" font-size="10.00">/mf_operator.h</text>
</a>
</g>
</g>
<!-- Node8&#45;&gt;Node9 -->
<g id="edge9_Node000008_Node000009" class="edge">
<title>Node8&#45;&gt;Node9</title>
<g id="a_edge9_Node000008_Node000009"><a xlink:title=" ">
<path fill="none" stroke="#63b8ff" d="M556.27,-468.46C516.76,-448.76 463.79,-415.28 437.62,-368.25 425.39,-346.25 421.03,-316.94 419.48,-299.05"/>
<polygon fill="#63b8ff" stroke="#63b8ff" points="554.62,-471.55 565.14,-472.75 557.66,-465.24 554.62,-471.55"/>
</a>
</g>
</g>
<!-- Node8&#45;&gt;Node17 -->
<g id="edge22_Node000008_Node000017" class="edge">
<title>Node8&#45;&gt;Node17</title>
<g id="a_edge22_Node000008_Node000017"><a xlink:title=" ">
<path fill="none" stroke="#63b8ff" d="M677.47,-473.06C724.76,-462.24 786.26,-448.17 832.72,-437.54"/>
<polygon fill="#63b8ff" stroke="#63b8ff" points="676.83,-469.62 667.87,-475.26 678.4,-476.44 676.83,-469.62"/>
</a>
</g>
</g>
<!-- Node8&#45;&gt;Node21 -->
<g id="edge41_Node000008_Node000021" class="edge">
<title>Node8&#45;&gt;Node21</title>
<g id="a_edge41_Node000008_Node000021"><a xlink:title=" ">
<path fill="none" stroke="#63b8ff" d="M555.29,-467.61C543.04,-459.92 531.27,-450.04 523.62,-437.75 510.5,-416.65 510.67,-386.8 512.37,-368.59"/>
<polygon fill="#63b8ff" stroke="#63b8ff" points="553.43,-470.58 563.84,-472.56 556.94,-464.52 553.43,-470.58"/>
</a>
</g>
</g>
<!-- Node24 -->
<g id="Node000024" class="node">
<title>Node24</title>
<g id="a_Node000024"><a xlink:href="dirichlet_8cc.html" target="_top" xlink:title=" ">
<polygon fill="white" stroke="#666666" points="814.88,-431.38 704.38,-431.38 704.38,-410.62 814.88,-410.62 814.88,-431.38"/>
<text text-anchor="middle" x="759.62" y="-417.88" font-family="Helvetica,sans-Serif" font-size="10.00">src/core/dirichlet.cc</text>
</a>
</g>
</g>
<!-- Node8&#45;&gt;Node24 -->
<g id="edge42_Node000008_Node000024" class="edge">
<title>Node8&#45;&gt;Node24</title>
<g id="a_edge42_Node000008_Node000024"><a xlink:title=" ">
<path fill="none" stroke="#63b8ff" d="M652.93,-468.76C681.02,-456.45 715.34,-441.41 737.33,-431.77"/>
<polygon fill="#63b8ff" stroke="#63b8ff" points="651.65,-465.5 643.9,-472.72 654.46,-471.92 651.65,-465.5"/>
</a>
</g>
</g>
<!-- Node25 -->
<g id="Node000025" class="node">
<title>Node25</title>
<g id="a_Node000025"><a xlink:href="initial__conditions_8cc.html" target="_top" xlink:title=" ">
<polygon fill="white" stroke="#666666" points="686.62,-431.38 532.62,-431.38 532.62,-410.62 686.62,-410.62 686.62,-431.38"/>
<text text-anchor="middle" x="609.62" y="-417.88" font-family="Helvetica,sans-Serif" font-size="10.00">src/core/initial_conditions.cc</text>
</a>
</g>
</g>
<!-- Node8&#45;&gt;Node25 -->
<g id="edge43_Node000008_Node000025" class="edge">
<title>Node8&#45;&gt;Node25</title>
<g id="a_edge43_Node000008_Node000025"><a xlink:title=" ">
<path fill="none" stroke="#63b8ff" d="M607.25,-462.03C607.89,-451.33 608.57,-439.76 609.04,-431.82"/>
<polygon fill="#63b8ff" stroke="#63b8ff" points="603.76,-461.8 606.66,-471.99 610.75,-462.22 603.76,-461.8"/>
</a>
</g>
</g>
<!-- Node10 -->
<g id="Node000010" class="node">
<title>Node10</title>
<g id="a_Node000010"><a xlink:href="explicit__solver_8h.html" target="_top" xlink:title=" ">
<polygon fill="white" stroke="#666666" points="195.25,-229.25 60,-229.25 60,-195.75 195.25,-195.75 195.25,-229.25"/>
<text text-anchor="start" x="68" y="-215.75" font-family="Helvetica,sans-Serif" font-size="10.00">include/prismspf/solvers</text>
<text text-anchor="middle" x="127.62" y="-203" font-family="Helvetica,sans-Serif" font-size="10.00">/explicit_solver.h</text>
</a>
</g>
</g>
<!-- Node9&#45;&gt;Node10 -->
<g id="edge10_Node000009_Node000010" class="edge">
<title>Node9&#45;&gt;Node10</title>
<g id="a_edge10_Node000009_Node000010"><a xlink:title=" ">
<path fill="none" stroke="#63b8ff" d="M339.56,-262.66C294.52,-252.21 238.65,-239.25 195.59,-229.27"/>
<polygon fill="#63b8ff" stroke="#63b8ff" points="338.76,-266.07 349.29,-264.92 340.34,-259.25 338.76,-266.07"/>
</a>
</g>
</g>
<!-- Node13 -->
<g id="Node000013" class="node">
<title>Node13</title>
<g id="a_Node000013"><a xlink:href="linear__solver_8h.html" target="_top" xlink:title=" ">
<polygon fill="white" stroke="#666666" points="549.25,-229.25 414,-229.25 414,-195.75 549.25,-195.75 549.25,-229.25"/>
<text text-anchor="start" x="422" y="-215.75" font-family="Helvetica,sans-Serif" font-size="10.00">include/prismspf/solvers</text>
<text text-anchor="middle" x="481.62" y="-203" font-family="Helvetica,sans-Serif" font-size="10.00">/linear_solver.h</text>
</a>
</g>
</g>
<!-- Node9&#45;&gt;Node13 -->
<g id="edge14_Node000009_Node000013" class="edge">
<title>Node9&#45;&gt;Node13</title>
<g id="a_edge14_Node000009_Node000013"><a xlink:title=" ">
<path fill="none" stroke="#63b8ff" d="M441.31,-256.69C449.8,-247.6 459.21,-237.52 466.8,-229.38"/>
<polygon fill="#63b8ff" stroke="#63b8ff" points="438.85,-254.2 434.59,-263.9 443.97,-258.97 438.85,-254.2"/>
</a>
</g>
</g>
<!-- Node14 -->
<g id="Node000014" class="node">
<title>Node14</title>
<g id="a_Node000014"><a xlink:href="mg__solver_8h.html" target="_top" xlink:title=" ">
<polygon fill="white" stroke="#666666" points="448.25,-159.75 313,-159.75 313,-126.25 448.25,-126.25 448.25,-159.75"/>
<text text-anchor="start" x="321" y="-146.25" font-family="Helvetica,sans-Serif" font-size="10.00">include/prismspf/solvers</text>
<text text-anchor="middle" x="380.62" y="-133.5" font-family="Helvetica,sans-Serif" font-size="10.00">/mg_solver.h</text>
</a>
</g>
</g>
<!-- Node9&#45;&gt;Node14 -->
<g id="edge19_Node000009_Node000014" class="edge">
<title>Node9&#45;&gt;Node14</title>
<g id="a_edge19_Node000009_Node000014"><a xlink:title=" ">
<path fill="none" stroke="#63b8ff" d="M411.14,-254C403.35,-225.92 391.42,-182.92 385.03,-159.88"/>
<polygon fill="#63b8ff" stroke="#63b8ff" points="407.74,-254.86 413.79,-263.56 414.49,-252.99 407.74,-254.86"/>
</a>
</g>
</g>
<!-- Node15 -->
<g id="Node000015" class="node">
<title>Node15</title>
<g id="a_Node000015"><a xlink:href="newton__solver_8h.html" target="_top" xlink:title=" ">
<polygon fill="white" stroke="#666666" points="640.25,-159.75 505,-159.75 505,-126.25 640.25,-126.25 640.25,-159.75"/>
<text text-anchor="start" x="513" y="-146.25" font-family="Helvetica,sans-Serif" font-size="10.00">include/prismspf/solvers</text>
<text text-anchor="middle" x="572.62" y="-133.5" font-family="Helvetica,sans-Serif" font-size="10.00">/newton_solver.h</text>
</a>
</g>
</g>
<!-- Node9&#45;&gt;Node15 -->
<g id="edge20_Node000009_Node000015" class="edge">
<title>Node9&#45;&gt;Node15</title>
<g id="a_edge20_Node000009_Node000015"><a xlink:title=" ">
<path fill="none" stroke="#63b8ff" d="M497.48,-267.55C520.3,-259.92 543.18,-247.97 558.62,-229.25 574.75,-209.7 575.69,-178.81 574.46,-160.07"/>
<polygon fill="#63b8ff" stroke="#63b8ff" points="496.66,-264.14 488.13,-270.41 498.71,-270.83 496.66,-264.14"/>
</a>
</g>
</g>
<!-- Node16 -->
<g id="Node000016" class="node">
<title>Node16</title>
<g id="a_Node000016"><a xlink:href="mf__operator_8cc.html" target="_top" xlink:title=" ">
<polygon fill="white" stroke="#666666" points="357.75,-222.88 213.5,-222.88 213.5,-202.12 357.75,-202.12 357.75,-222.88"/>
<text text-anchor="middle" x="285.62" y="-209.38" font-family="Helvetica,sans-Serif" font-size="10.00">src/solvers/mf_operator.cc</text>
</a>
</g>
</g>
<!-- Node9&#45;&gt;Node16 -->
<g id="edge21_Node000009_Node000016" class="edge">
<title>Node9&#45;&gt;Node16</title>
<g id="a_edge21_Node000009_Node000016"><a xlink:title=" ">
<path fill="none" stroke="#63b8ff" d="M376.8,-259.77C352.73,-247.56 323.62,-232.78 304.88,-223.27"/>
<polygon fill="#63b8ff" stroke="#63b8ff" points="374.92,-262.74 385.42,-264.15 378.09,-256.5 374.92,-262.74"/>
</a>
</g>
</g>
<!-- Node11 -->
<g id="Node000011" class="node">
<title>Node11</title>
<g id="a_Node000011"><a xlink:href="solvers_8h.html" target="_top" xlink:title=" ">
<polygon fill="white" stroke="#666666" points="544.25,-90.25 409,-90.25 409,-56.75 544.25,-56.75 544.25,-90.25"/>
<text text-anchor="start" x="417" y="-76.75" font-family="Helvetica,sans-Serif" font-size="10.00">include/prismspf/solvers</text>
<text text-anchor="middle" x="476.62" y="-64" font-family="Helvetica,sans-Serif" font-size="10.00">/solvers.h</text>
</a>
</g>
</g>
<!-- Node10&#45;&gt;Node11 -->
<g id="edge11_Node000010_Node000011" class="edge">
<title>Node10&#45;&gt;Node11</title>
<g id="a_edge11_Node000010_Node000011"><a xlink:title=" ">
<path fill="none" stroke="#63b8ff" d="M167.04,-190.15C202.18,-171.66 255.38,-145.01 303.62,-126.25 339.42,-112.33 380.57,-99.88 413.75,-90.69"/>
<polygon fill="#63b8ff" stroke="#63b8ff" points="165.72,-186.89 158.52,-194.66 168.99,-193.07 165.72,-186.89"/>
</a>
</g>
</g>
<!-- Node11&#45;&gt;Node4 -->
<g id="edge12_Node000011_Node000004" class="edge">
<title>Node11&#45;&gt;Node4</title>
<g id="a_edge12_Node000011_Node000004"><a xlink:title=" ">
<path fill="none" stroke="#63b8ff" d="M556.01,-63.27C663.64,-50.77 853.14,-28.75 946.88,-17.85"/>
<polygon fill="#63b8ff" stroke="#63b8ff" points="555.61,-59.8 546.09,-64.43 556.42,-66.75 555.61,-59.8"/>
</a>
</g>
</g>
<!-- Node12 -->
<g id="Node000012" class="node">
<title>Node12</title>
<g id="a_Node000012"><a xlink:href="solvers_8cc.html" target="_top" xlink:title=" ">
<polygon fill="white" stroke="#666666" points="536.75,-20.75 416.5,-20.75 416.5,0 536.75,0 536.75,-20.75"/>
<text text-anchor="middle" x="476.62" y="-7.25" font-family="Helvetica,sans-Serif" font-size="10.00">src/solvers/solvers.cc</text>
</a>
</g>
</g>
<!-- Node11&#45;&gt;Node12 -->
<g id="edge13_Node000011_Node000012" class="edge">
<title>Node11&#45;&gt;Node12</title>
<g id="a_edge13_Node000011_Node000012"><a xlink:title=" ">
<path fill="none" stroke="#63b8ff" d="M476.62,-44.94C476.62,-36.46 476.62,-27.67 476.62,-21.22"/>
<polygon fill="#63b8ff" stroke="#63b8ff" points="473.13,-44.93 476.63,-54.93 480.13,-44.93 473.13,-44.93"/>
</a>
</g>
</g>
<!-- Node13&#45;&gt;Node11 -->
<g id="edge18_Node000013_Node000011" class="edge">
<title>Node13&#45;&gt;Node11</title>
<g id="a_edge18_Node000013_Node000011"><a xlink:title=" ">
<path fill="none" stroke="#63b8ff" d="M480.63,-184.12C479.6,-156.04 478.04,-113.32 477.2,-90.38"/>
<polygon fill="#63b8ff" stroke="#63b8ff" points="477.12,-184.14 480.99,-194 484.12,-183.88 477.12,-184.14"/>
</a>
</g>
</g>
<!-- Node13&#45;&gt;Node14 -->
<g id="edge15_Node000013_Node000014" class="edge">
<title>Node13&#45;&gt;Node14</title>
<g id="a_edge15_Node000013_Node000014"><a xlink:title=" ">
<path fill="none" stroke="#63b8ff" d="M447.99,-189.02C433.79,-179.53 417.58,-168.7 404.62,-160.04"/>
<polygon fill="#63b8ff" stroke="#63b8ff" points="445.92,-191.84 456.17,-194.49 449.81,-186.02 445.92,-191.84"/>
</a>
</g>
</g>
<!-- Node13&#45;&gt;Node15 -->
<g id="edge16_Node000013_Node000015" class="edge">
<title>Node13&#45;&gt;Node15</title>
<g id="a_edge16_Node000013_Node000015"><a xlink:title=" ">
<path fill="none" stroke="#63b8ff" d="M512.07,-188.91C524.79,-179.48 539.28,-168.73 550.9,-160.12"/>
<polygon fill="#63b8ff" stroke="#63b8ff" points="510.35,-185.83 504.41,-194.6 514.52,-191.46 510.35,-185.83"/>
</a>
</g>
</g>
<!-- Node15&#45;&gt;Node11 -->
<g id="edge17_Node000015_Node000011" class="edge">
<title>Node15&#45;&gt;Node11</title>
<g id="a_edge17_Node000015_Node000011"><a xlink:title=" ">
<path fill="none" stroke="#63b8ff" d="M540.5,-119.41C527.08,-109.98 511.8,-99.23 499.55,-90.62"/>
<polygon fill="#63b8ff" stroke="#63b8ff" points="538.44,-122.24 548.64,-125.13 542.47,-116.52 538.44,-122.24"/>
</a>
</g>
</g>
<!-- Node17&#45;&gt;Node2 -->
<g id="edge30_Node000017_Node000002" class="edge">
<title>Node17&#45;&gt;Node2</title>
<g id="a_edge30_Node000017_Node000002"><a xlink:title=" ">
<path fill="none" stroke="#63b8ff" d="M979.69,-402.09C1025.45,-391.72 1082.6,-378.78 1127.03,-368.72"/>
<polygon fill="#63b8ff" stroke="#63b8ff" points="979.07,-398.64 970.09,-404.26 980.62,-405.47 979.07,-398.64"/>
</a>
</g>
</g>
<!-- Node17&#45;&gt;Node3 -->
<g id="edge23_Node000017_Node000003" class="edge">
<title>Node17&#45;&gt;Node3</title>
<g id="a_edge23_Node000017_Node000003"><a xlink:title=" ">
<path fill="none" stroke="#63b8ff" d="M916.81,-394.45C927.78,-377.37 942.75,-354.49 956.62,-334.75 983.56,-296.42 1017.03,-252.77 1034.93,-229.73"/>
<polygon fill="#63b8ff" stroke="#63b8ff" points="914.11,-392.19 911.67,-402.5 920.01,-395.96 914.11,-392.19"/>
</a>
</g>
</g>
<!-- Node18 -->
<g id="Node000018" class="node">
<title>Node18</title>
<g id="a_Node000018"><a xlink:href="refinement__manager_8h.html" target="_top" xlink:title=" ">
<polygon fill="white" stroke="#666666" points="930.25,-298.75 801,-298.75 801,-265.25 930.25,-265.25 930.25,-298.75"/>
<text text-anchor="start" x="809" y="-285.25" font-family="Helvetica,sans-Serif" font-size="10.00">include/prismspf/core</text>
<text text-anchor="middle" x="865.62" y="-272.5" font-family="Helvetica,sans-Serif" font-size="10.00">/refinement_manager.h</text>
</a>
</g>
</g>
<!-- Node17&#45;&gt;Node18 -->
<g id="edge24_Node000017_Node000018" class="edge">
<title>Node17&#45;&gt;Node18</title>
<g id="a_edge24_Node000017_Node000018"><a xlink:title=" ">
<path fill="none" stroke="#63b8ff" d="M893.73,-393C886.55,-364.92 875.57,-321.92 869.68,-298.88"/>
<polygon fill="#63b8ff" stroke="#63b8ff" points="890.3,-393.73 896.17,-402.55 897.08,-391.99 890.3,-393.73"/>
</a>
</g>
</g>
<!-- Node17&#45;&gt;Node19 -->
<g id="edge26_Node000017_Node000019" class="edge">
<title>Node17&#45;&gt;Node19</title>
<g id="a_edge26_Node000017_Node000019"><a xlink:title=" ">
<path fill="none" stroke="#63b8ff" d="M940.81,-398.47C958.94,-388.76 979.98,-377.49 996.69,-368.54"/>
<polygon fill="#63b8ff" stroke="#63b8ff" points="939.3,-395.31 932.14,-403.12 942.61,-401.48 939.3,-395.31"/>
</a>
</g>
</g>
<!-- Node17&#45;&gt;Node21 -->
<g id="edge31_Node000017_Node000021" class="edge">
<title>Node17&#45;&gt;Node21</title>
<g id="a_edge31_Node000017_Node000021"><a xlink:title=" ">
<path fill="none" stroke="#63b8ff" d="M821.32,-403.86C733.08,-387.58 642.68,-372.76 582.56,-363.16"/>
<polygon fill="#63b8ff" stroke="#63b8ff" points="820.67,-407.3 831.14,-405.68 821.95,-400.41 820.67,-407.3"/>
</a>
</g>
</g>
<!-- Node18&#45;&gt;Node3 -->
<g id="edge25_Node000018_Node000003" class="edge">
<title>Node18&#45;&gt;Node3</title>
<g id="a_edge25_Node000018_Node000003"><a xlink:title=" ">
<path fill="none" stroke="#63b8ff" d="M920,-260.83C946.87,-250.87 978.85,-239.01 1004.07,-229.65"/>
<polygon fill="#63b8ff" stroke="#63b8ff" points="918.8,-257.55 910.64,-264.31 921.23,-264.11 918.8,-257.55"/>
</a>
</g>
</g>
<!-- Node19&#45;&gt;Node4 -->
<g id="edge28_Node000019_Node000004" class="edge">
<title>Node19&#45;&gt;Node4</title>
<g id="a_edge28_Node000019_Node000004"><a xlink:title=" ">
<path fill="none" stroke="#63b8ff" d="M1005.56,-325.66C985.59,-299.52 958.62,-256.3 958.62,-213.5 958.62,-213.5 958.62,-213.5 958.62,-142 958.62,-94.62 984.95,-42.39 996.87,-21.16"/>
<polygon fill="#63b8ff" stroke="#63b8ff" points="1002.65,-327.63 1011.6,-333.3 1008.14,-323.29 1002.65,-327.63"/>
</a>
</g>
</g>
<!-- Node19&#45;&gt;Node19 -->
<g id="edge27_Node000019_Node000019" class="edge">
<title>Node19&#45;&gt;Node19</title>
<g id="a_edge27_Node000019_Node000019"><a xlink:title=" ">
<path fill="none" stroke="#63b8ff" d="M1098.34,-360.45C1102.58,-358.31 1105.12,-355.33 1105.12,-351.5 1105.12,-345.05 1097.92,-341 1087.52,-339.33"/>
<polygon fill="#63b8ff" stroke="#63b8ff" points="1097.56,-357.04 1088.97,-363.23 1099.55,-363.75 1097.56,-357.04"/>
</a>
</g>
</g>
<!-- Node20 -->
<g id="Node000020" class="node">
<title>Node20</title>
<g id="a_Node000020"><a xlink:href="solution__output_8cc.html" target="_top" xlink:title=" ">
<polygon fill="white" stroke="#666666" points="1170.88,-292.38 1024.38,-292.38 1024.38,-271.62 1170.88,-271.62 1170.88,-292.38"/>
<text text-anchor="middle" x="1097.62" y="-278.88" font-family="Helvetica,sans-Serif" font-size="10.00">src/core/solution_output.cc</text>
</a>
</g>
</g>
<!-- Node19&#45;&gt;Node20 -->
<g id="edge29_Node000019_Node000020" class="edge">
<title>Node19&#45;&gt;Node20</title>
<g id="a_edge29_Node000019_Node000020"><a xlink:title=" ">
<path fill="none" stroke="#63b8ff" d="M1051.57,-326.79C1063.84,-315.12 1077.96,-301.7 1087.29,-292.82"/>
<polygon fill="#63b8ff" stroke="#63b8ff" points="1049.38,-324.03 1044.55,-333.46 1054.21,-329.11 1049.38,-324.03"/>
</a>
</g>
</g>
<!-- Node21&#45;&gt;Node4 -->
<g id="edge39_Node000021_Node000004" class="edge">
<title>Node21&#45;&gt;Node4</title>
<g id="a_edge39_Node000021_Node000004"><a xlink:title=" ">
<path fill="none" stroke="#63b8ff" d="M547.04,-327.97C642.9,-261.36 922.41,-67.12 988.5,-21.19"/>
<polygon fill="#63b8ff" stroke="#63b8ff" points="545.29,-324.93 539.08,-333.51 549.29,-330.68 545.29,-324.93"/>
</a>
</g>
</g>
<!-- Node21&#45;&gt;Node9 -->
<g id="edge37_Node000021_Node000009" class="edge">
<title>Node21&#45;&gt;Node9</title>
<g id="a_edge37_Node000021_Node000009"><a xlink:title=" ">
<path fill="none" stroke="#63b8ff" d="M482.5,-327.91C469.08,-318.48 453.8,-307.73 441.55,-299.12"/>
<polygon fill="#63b8ff" stroke="#63b8ff" points="480.44,-330.74 490.64,-333.63 484.47,-325.02 480.44,-330.74"/>
</a>
</g>
</g>
<!-- Node21&#45;&gt;Node10 -->
<g id="edge35_Node000021_Node000010" class="edge">
<title>Node21&#45;&gt;Node10</title>
<g id="a_edge35_Node000021_Node000010"><a xlink:title=" ">
<path fill="none" stroke="#63b8ff" d="M444.82,-331.14C413.11,-321.96 375.26,-310.46 341.62,-298.75 278.93,-276.93 207.56,-247.56 165.13,-229.61"/>
<polygon fill="#63b8ff" stroke="#63b8ff" points="443.72,-334.47 454.3,-333.87 445.66,-327.74 443.72,-334.47"/>
</a>
</g>
</g>
<!-- Node21&#45;&gt;Node13 -->
<g id="edge36_Node000021_Node000013" class="edge">
<title>Node21&#45;&gt;Node13</title>
<g id="a_edge36_Node000021_Node000013"><a xlink:title=" ">
<path fill="none" stroke="#63b8ff" d="M508.87,-323.23C505.26,-306.46 500.39,-284.56 495.62,-265.25 492.64,-253.14 488.94,-239.53 486.1,-229.31"/>
<polygon fill="#63b8ff" stroke="#63b8ff" points="505.44,-323.9 510.95,-332.94 512.28,-322.43 505.44,-323.9"/>
</a>
</g>
</g>
<!-- Node21&#45;&gt;Node15 -->
<g id="edge38_Node000021_Node000015" class="edge">
<title>Node21&#45;&gt;Node15</title>
<g id="a_edge38_Node000021_Node000015"><a xlink:title=" ">
<path fill="none" stroke="#63b8ff" d="M533.09,-325.08C548.96,-301.56 570.67,-264.92 579.62,-229.25 585.56,-205.63 581.02,-177.29 576.99,-159.96"/>
<polygon fill="#63b8ff" stroke="#63b8ff" points="530.37,-322.86 527.56,-333.08 536.13,-326.84 530.37,-322.86"/>
</a>
</g>
</g>
<!-- Node21&#45;&gt;Node18 -->
<g id="edge32_Node000021_Node000018" class="edge">
<title>Node21&#45;&gt;Node18</title>
<g id="a_edge32_Node000021_Node000018"><a xlink:title=" ">
<path fill="none" stroke="#63b8ff" d="M593.91,-336.36C649.59,-326.28 725.76,-312.18 792.62,-298.75 795.29,-298.21 798.02,-297.66 800.77,-297.09"/>
<polygon fill="#63b8ff" stroke="#63b8ff" points="593.42,-332.89 584.2,-338.12 594.66,-339.78 593.42,-332.89"/>
</a>
</g>
</g>
<!-- Node22 -->
<g id="Node000022" class="node">
<title>Node22</title>
<g id="a_Node000022"><a xlink:href="constant__solver_8h.html" target="_top" xlink:title=" ">
<polygon fill="white" stroke="#666666" points="135.25,-159.75 0,-159.75 0,-126.25 135.25,-126.25 135.25,-159.75"/>
<text text-anchor="start" x="8" y="-146.25" font-family="Helvetica,sans-Serif" font-size="10.00">include/prismspf/solvers</text>
<text text-anchor="middle" x="67.62" y="-133.5" font-family="Helvetica,sans-Serif" font-size="10.00">/constant_solver.h</text>
</a>
</g>
</g>
<!-- Node21&#45;&gt;Node22 -->
<g id="edge33_Node000021_Node000022" class="edge">
<title>Node21&#45;&gt;Node22</title>
<g id="a_edge33_Node000021_Node000022"><a xlink:title=" ">
<path fill="none" stroke="#63b8ff" d="M435.32,-341.91C314.81,-326.97 94.88,-291.68 50.62,-229.25 35.96,-208.57 47.87,-178.31 57.78,-159.96"/>
<polygon fill="#63b8ff" stroke="#63b8ff" points="434.81,-345.37 445.16,-343.11 435.66,-338.42 434.81,-345.37"/>
</a>
</g>
</g>
<!-- Node23 -->
<g id="Node000023" class="node">
<title>Node23</title>
<g id="a_Node000023"><a xlink:href="solver__base_8cc.html" target="_top" xlink:title=" ">
<polygon fill="white" stroke="#666666" points="783.38,-298.75 681.88,-298.75 681.88,-265.25 783.38,-265.25 783.38,-298.75"/>
<text text-anchor="start" x="689.88" y="-285.25" font-family="Helvetica,sans-Serif" font-size="10.00">src/solvers/solver</text>
<text text-anchor="middle" x="732.62" y="-272.5" font-family="Helvetica,sans-Serif" font-size="10.00">_base.cc</text>
</a>
</g>
</g>
<!-- Node21&#45;&gt;Node23 -->
<g id="edge40_Node000021_Node000023" class="edge">
<title>Node21&#45;&gt;Node23</title>
<g id="a_edge40_Node000021_Node000023"><a xlink:title=" ">
<path fill="none" stroke="#63b8ff" d="M577.74,-330.96C610.73,-320.74 650.57,-308.41 681.59,-298.8"/>
<polygon fill="#63b8ff" stroke="#63b8ff" points="576.8,-327.58 568.29,-333.88 578.88,-334.27 576.8,-327.58"/>
</a>
</g>
</g>
<!-- Node22&#45;&gt;Node11 -->
<g id="edge34_Node000022_Node000011" class="edge">
<title>Node22&#45;&gt;Node11</title>
<g id="a_edge34_Node000022_Node000011"><a xlink:title=" ">
<path fill="none" stroke="#63b8ff" d="M146.57,-128.97C222.69,-116.41 336.67,-97.6 408.81,-85.69"/>
<polygon fill="#63b8ff" stroke="#63b8ff" points="146.41,-125.45 137.12,-130.53 147.55,-132.36 146.41,-125.45"/>
</a>
</g>
</g>
<!-- Node26&#45;&gt;Node2 -->
<g id="edge49_Node000026_Node000002" class="edge">
<title>Node26&#45;&gt;Node2</title>
<g id="a_edge49_Node000026_Node000002"><a xlink:title=" ">
<path fill="none" stroke="#63b8ff" d="M1180.31,-393.71C1184.11,-385.16 1188.21,-375.93 1191.57,-368.38"/>
<polygon fill="#63b8ff" stroke="#63b8ff" points="1177.21,-392.06 1176.35,-402.62 1183.61,-394.9 1177.21,-392.06"/>
</a>
</g>
</g>
<!-- Node29&#45;&gt;Node2 -->
<g id="edge54_Node000029_Node000002" class="edge">
<title>Node29&#45;&gt;Node2</title>
<g id="a_edge54_Node000029_Node000002"><a xlink:title=" ">
<path fill="none" stroke="#63b8ff" d="M1369.54,-601.94C1346.09,-546.09 1292.48,-420.31 1278.62,-404.25 1265.98,-389.6 1248.19,-377.53 1232.59,-368.74"/>
<polygon fill="#63b8ff" stroke="#63b8ff" points="1366.26,-603.16 1373.35,-611.03 1372.71,-600.45 1366.26,-603.16"/>
</a>
</g>
</g>
<!-- Node29&#45;&gt;Node5 -->
<g id="edge55_Node000029_Node000005" class="edge">
<title>Node29&#45;&gt;Node5</title>
<g id="a_edge55_Node000029_Node000005"><a xlink:title=" ">
<path fill="none" stroke="#63b8ff" d="M1406.25,-604.81C1416.15,-595.65 1427.24,-585.4 1436.2,-577.12"/>
<polygon fill="#63b8ff" stroke="#63b8ff" points="1404,-602.12 1399.04,-611.48 1408.75,-607.26 1404,-602.12"/>
</a>
</g>
</g>
<!-- Node29&#45;&gt;Node7 -->
<g id="edge56_Node000029_Node000007" class="edge">
<title>Node29&#45;&gt;Node7</title>
<g id="a_edge56_Node000029_Node000007"><a xlink:title=" ">
<path fill="none" stroke="#63b8ff" d="M1281.3,-612.03C1214.2,-600.9 1126.39,-586.34 1061.77,-575.62"/>
<polygon fill="#63b8ff" stroke="#63b8ff" points="1280.38,-615.42 1290.82,-613.61 1281.53,-608.52 1280.38,-615.42"/>
</a>
</g>
</g>
<!-- Node30&#45;&gt;Node7 -->
<g id="edge59_Node000030_Node000007" class="edge">
<title>Node30&#45;&gt;Node7</title>
<g id="a_edge59_Node000030_Node000007"><a xlink:title=" ">
<path fill="none" stroke="#63b8ff" d="M1103.72,-608.47C1076.33,-598.47 1043.65,-586.55 1017.9,-577.15"/>
<polygon fill="#63b8ff" stroke="#63b8ff" points="1102.3,-611.67 1112.89,-611.81 1104.7,-605.1 1102.3,-611.67"/>
</a>
</g>
</g>
<!-- Node30&#45;&gt;Node19 -->
<g id="edge58_Node000030_Node000019" class="edge">
<title>Node30&#45;&gt;Node19</title>
<g id="a_edge58_Node000030_Node000019"><a xlink:title=" ">
<path fill="none" stroke="#63b8ff" d="M1146.06,-602.23C1119.07,-545.78 1056.21,-414.36 1034.31,-368.58"/>
<polygon fill="#63b8ff" stroke="#63b8ff" points="1142.83,-603.59 1150.3,-611.1 1149.15,-600.57 1142.83,-603.59"/>
</a>
</g>
</g>
</g>
</svg>
