<?xml version="1.0" encoding="UTF-8" standalone="no"?>
<!DOCTYPE svg PUBLIC "-//W3C//DTD SVG 1.1//EN"
 "http://www.w3.org/Graphics/SVG/1.1/DTD/svg11.dtd">
<!-- Generated by graphviz version 12.2.1 (20241206.2353)
 -->
<!-- Title: /__w/phaseField/phaseField/include/prismspf/utilities/terminal.h Pages: 1 -->
<svg width="685pt" height="111pt"
 viewBox="0.00 0.00 685.12 111.00" xmlns="http://www.w3.org/2000/svg" xmlns:xlink="http://www.w3.org/1999/xlink">
<g id="graph0" class="graph" transform="scale(1 1) rotate(0) translate(4 107)">
<title>/__w/phaseField/phaseField/include/prismspf/utilities/terminal.h</title>
<!-- Node1 -->
<g id="Node000001" class="node">
<title>Node1</title>
<g id="a_Node000001"><a xlink:title=" ">
<polygon fill="#999999" stroke="#666666" points="442.38,-103 293.62,-103 293.62,-56.75 442.38,-56.75 442.38,-103"/>
<text text-anchor="start" x="301.62" y="-89.5" font-family="Helvetica,sans-Serif" font-size="10.00">/__w/phaseField/phaseField</text>
<text text-anchor="start" x="301.62" y="-76.75" font-family="Helvetica,sans-Serif" font-size="10.00">/include/prismspf/utilities</text>
<text text-anchor="middle" x="368" y="-64" font-family="Helvetica,sans-Serif" font-size="10.00">/terminal.h</text>
</a>
</g>
</g>
<!-- Node2 -->
<g id="Node000002" class="node">
<title>Node2</title>
<g id="a_Node000002"><a xlink:title=" ">
<polygon fill="#e0e0e0" stroke="#999999" points="100,-20.75 0,-20.75 0,0 100,0 100,-20.75"/>
<text text-anchor="middle" x="50" y="-7.25" font-family="Helvetica,sans-Serif" font-size="10.00">prismspf/config.h</text>
</a>
</g>
</g>
<!-- Node1&#45;&gt;Node2 -->
<g id="edge1_Node000001_Node000002" class="edge">
<title>Node1&#45;&gt;Node2</title>
<g id="a_edge1_Node000001_Node000002"><a xlink:title=" ">
<path fill="none" stroke="#63b8ff" d="M293.44,-63.05C236.66,-51 159.64,-34.65 107.56,-23.59"/>
<polygon fill="#63b8ff" stroke="#63b8ff" points="108.5,-20.21 97.99,-21.56 107.05,-27.06 108.5,-20.21"/>
</a>
</g>
</g>
<!-- Node3 -->
<g id="Node000003" class="node">
<title>Node3</title>
<g id="a_Node000003"><a xlink:title=" ">
<polygon fill="#e0e0e0" stroke="#999999" points="177.75,-20.75 118.25,-20.75 118.25,0 177.75,0 177.75,-20.75"/>
<text text-anchor="middle" x="148" y="-7.25" font-family="Helvetica,sans-Serif" font-size="10.00">concepts</text>
</a>
</g>
</g>
<!-- Node1&#45;&gt;Node3 -->
<g id="edge2_Node000001_Node000003" class="edge">
<title>Node1&#45;&gt;Node3</title>
<g id="a_edge2_Node000001_Node000003"><a xlink:title=" ">
<path fill="none" stroke="#63b8ff" d="M294.44,-56.3C259.21,-45.5 218.37,-32.97 188.78,-23.89"/>
<polygon fill="#63b8ff" stroke="#63b8ff" points="190.06,-20.62 179.48,-21.03 188.01,-27.31 190.06,-20.62"/>
</a>
</g>
</g>
<!-- Node4 -->
<g id="Node000004" class="node">
<title>Node4</title>
<g id="a_Node000004"><a xlink:title=" ">
<polygon fill="#e0e0e0" stroke="#999999" points="244.12,-20.75 195.88,-20.75 195.88,0 244.12,0 244.12,-20.75"/>
<text text-anchor="middle" x="220" y="-7.25" font-family="Helvetica,sans-Serif" font-size="10.00">cstdlib</text>
</a>
</g>
</g>
<!-- Node1&#45;&gt;Node4 -->
<g id="edge3_Node000001_Node000004" class="edge">
<title>Node1&#45;&gt;Node4</title>
<g id="a_edge3_Node000001_Node000004"><a xlink:title=" ">
<path fill="none" stroke="#63b8ff" d="M318.72,-56.4C296.68,-46.35 271.35,-34.79 251.86,-25.91"/>
<polygon fill="#63b8ff" stroke="#63b8ff" points="253.34,-22.73 242.79,-21.77 250.43,-29.1 253.34,-22.73"/>
</a>
</g>
</g>
<!-- Node5 -->
<g id="Node000005" class="node">
<title>Node5</title>
<g id="a_Node000005"><a xlink:title=" ">
<polygon fill="#e0e0e0" stroke="#999999" points="321.75,-20.75 262.25,-20.75 262.25,0 321.75,0 321.75,-20.75"/>
<text text-anchor="middle" x="292" y="-7.25" font-family="Helvetica,sans-Serif" font-size="10.00">iostream</text>
</a>
</g>
</g>
<!-- Node1&#45;&gt;Node5 -->
<g id="edge4_Node000001_Node000005" class="edge">
<title>Node1&#45;&gt;Node5</title>
<g id="a_edge4_Node000001_Node000005"><a xlink:title=" ">
<path fill="none" stroke="#63b8ff" d="M342.69,-56.4C332.48,-47.33 320.89,-37.04 311.37,-28.58"/>
<polygon fill="#63b8ff" stroke="#63b8ff" points="313.93,-26.17 304.13,-22.15 309.28,-31.4 313.93,-26.17"/>
</a>
</g>
</g>
<!-- Node6 -->
<g id="Node000006" class="node">
<title>Node6</title>
<g id="a_Node000006"><a xlink:title=" ">
<polygon fill="#e0e0e0" stroke="#999999" points="396.25,-20.75 339.75,-20.75 339.75,0 396.25,0 396.25,-20.75"/>
<text text-anchor="middle" x="368" y="-7.25" font-family="Helvetica,sans-Serif" font-size="10.00">ostream</text>
</a>
</g>
</g>
<!-- Node1&#45;&gt;Node6 -->
<g id="edge5_Node000001_Node000006" class="edge">
<title>Node1&#45;&gt;Node6</title>
<g id="a_edge5_Node000001_Node000006"><a xlink:title=" ">
<path fill="none" stroke="#63b8ff" d="M368,-56.4C368,-48.73 368,-40.19 368,-32.63"/>
<polygon fill="#63b8ff" stroke="#63b8ff" points="371.5,-32.65 368,-22.65 364.5,-32.65 371.5,-32.65"/>
</a>
</g>
</g>
<!-- Node7 -->
<g id="Node000007" class="node">
<title>Node7</title>
<g id="a_Node000007"><a xlink:title=" ">
<polygon fill="#e0e0e0" stroke="#999999" points="467.75,-20.75 414.25,-20.75 414.25,0 467.75,0 467.75,-20.75"/>
<text text-anchor="middle" x="441" y="-7.25" font-family="Helvetica,sans-Serif" font-size="10.00">random</text>
</a>
</g>
</g>
<!-- Node1&#45;&gt;Node7 -->
<g id="edge6_Node000001_Node000007" class="edge">
<title>Node1&#45;&gt;Node7</title>
<g id="a_edge6_Node000001_Node000007"><a xlink:title=" ">
<path fill="none" stroke="#63b8ff" d="M392.31,-56.4C402.01,-47.42 413.02,-37.25 422.11,-28.84"/>
<polygon fill="#63b8ff" stroke="#63b8ff" points="424.36,-31.53 429.33,-22.17 419.61,-26.39 424.36,-31.53"/>
</a>
</g>
</g>
<!-- Node8 -->
<g id="Node000008" class="node">
<title>Node8</title>
<g id="a_Node000008"><a xlink:title=" ">
<polygon fill="#e0e0e0" stroke="#999999" points="524.62,-20.75 485.38,-20.75 485.38,0 524.62,0 524.62,-20.75"/>
<text text-anchor="middle" x="505" y="-7.25" font-family="Helvetica,sans-Serif" font-size="10.00">span</text>
</a>
</g>
</g>
<!-- Node1&#45;&gt;Node8 -->
<g id="edge7_Node000001_Node000008" class="edge">
<title>Node1&#45;&gt;Node8</title>
<g id="a_edge7_Node000001_Node000008"><a xlink:title=" ">
<path fill="none" stroke="#63b8ff" d="M413.62,-56.4C433.83,-46.44 457.03,-35.01 475,-26.15"/>
<polygon fill="#63b8ff" stroke="#63b8ff" points="476.4,-29.37 483.82,-21.81 473.3,-23.09 476.4,-29.37"/>
</a>
</g>
</g>
<!-- Node9 -->
<g id="Node000009" class="node">
<title>Node9</title>
<g id="a_Node000009"><a xlink:title=" ">
<polygon fill="#e0e0e0" stroke="#999999" points="586.88,-20.75 543.12,-20.75 543.12,0 586.88,0 586.88,-20.75"/>
<text text-anchor="middle" x="565" y="-7.25" font-family="Helvetica,sans-Serif" font-size="10.00">string</text>
</a>
</g>
</g>
<!-- Node1&#45;&gt;Node9 -->
<g id="edge8_Node000001_Node000009" class="edge">
<title>Node1&#45;&gt;Node9</title>
<g id="a_edge8_Node000001_Node000009"><a xlink:title=" ">
<path fill="none" stroke="#63b8ff" d="M433.87,-56.3C466.95,-44.97 505.57,-31.74 532.29,-22.58"/>
<polygon fill="#63b8ff" stroke="#63b8ff" points="533.2,-25.97 541.53,-19.42 530.93,-19.35 533.2,-25.97"/>
</a>
</g>
</g>
<!-- Node10 -->
<g id="Node000010" class="node">
<title>Node10</title>
<g id="a_Node000010"><a xlink:title=" ">
<polygon fill="#e0e0e0" stroke="#999999" points="677.12,-20.75 604.88,-20.75 604.88,0 677.12,0 677.12,-20.75"/>
<text text-anchor="middle" x="641" y="-7.25" font-family="Helvetica,sans-Serif" font-size="10.00">string_view</text>
</a>
</g>
</g>
<!-- Node1&#45;&gt;Node10 -->
<g id="edge9_Node000001_Node000010" class="edge">
<title>Node1&#45;&gt;Node10</title>
<g id="a_edge9_Node000001_Node000010"><a xlink:title=" ">
<path fill="none" stroke="#63b8ff" d="M442.6,-60.43C490.75,-48.52 551.95,-33.39 593.56,-23.11"/>
<polygon fill="#63b8ff" stroke="#63b8ff" points="594.15,-26.57 603.01,-20.77 592.47,-19.77 594.15,-26.57"/>
</a>
</g>
</g>
</g>
</svg>
