<?xml version="1.0" encoding="UTF-8" standalone="no"?>
<!DOCTYPE svg PUBLIC "-//W3C//DTD SVG 1.1//EN"
 "http://www.w3.org/Graphics/SVG/1.1/DTD/svg11.dtd">
<!-- Generated by graphviz version 12.2.1 (20241206.2353)
 -->
<!-- Title: include/prismspf/core/timer.h Pages: 1 -->
<svg width="687pt" height="307pt"
 viewBox="0.00 0.00 686.75 306.75" xmlns="http://www.w3.org/2000/svg" xmlns:xlink="http://www.w3.org/1999/xlink">
<g id="graph0" class="graph" transform="scale(1 1) rotate(0) translate(4 302.75)">
<title>include/prismspf/core/timer.h</title>
<!-- Node1 -->
<g id="Node000001" class="node">
<title>Node1</title>
<g id="a_Node000001"><a xlink:title=" ">
<polygon fill="#999999" stroke="#666666" points="362.12,-298.75 241.12,-298.75 241.12,-265.25 362.12,-265.25 362.12,-298.75"/>
<text text-anchor="start" x="249.12" y="-285.25" font-family="Helvetica,sans-Serif" font-size="10.00">include/prismspf/core</text>
<text text-anchor="middle" x="301.62" y="-272.5" font-family="Helvetica,sans-Serif" font-size="10.00">/timer.h</text>
</a>
</g>
</g>
<!-- Node2 -->
<g id="Node000002" class="node">
<title>Node2</title>
<g id="a_Node000002"><a xlink:href="refinement__manager_8h.html" target="_top" xlink:title=" ">
<polygon fill="white" stroke="#666666" points="129.25,-229.25 0,-229.25 0,-195.75 129.25,-195.75 129.25,-229.25"/>
<text text-anchor="start" x="8" y="-215.75" font-family="Helvetica,sans-Serif" font-size="10.00">include/prismspf/core</text>
<text text-anchor="middle" x="64.62" y="-203" font-family="Helvetica,sans-Serif" font-size="10.00">/refinement_manager.h</text>
</a>
</g>
</g>
<!-- Node1&#45;&gt;Node2 -->
<g id="edge1_Node000001_Node000002" class="edge">
<title>Node1&#45;&gt;Node2</title>
<g id="a_edge1_Node000001_Node000002"><a xlink:title=" ">
<path fill="none" stroke="#63b8ff" d="M234.06,-261.76C198.43,-251.61 155.21,-239.3 121.34,-229.65"/>
<polygon fill="#63b8ff" stroke="#63b8ff" points="232.83,-265.04 243.4,-264.42 234.74,-258.31 232.83,-265.04"/>
</a>
</g>
</g>
<!-- Node4 -->
<g id="Node000004" class="node">
<title>Node4</title>
<g id="a_Node000004"><a xlink:href="problem_8cc.html" target="_top" xlink:title=" ">
<polygon fill="white" stroke="#666666" points="213.25,-20.75 102,-20.75 102,0 213.25,0 213.25,-20.75"/>
<text text-anchor="middle" x="157.62" y="-7.25" font-family="Helvetica,sans-Serif" font-size="10.00">src/core/problem.cc</text>
</a>
</g>
</g>
<!-- Node1&#45;&gt;Node4 -->
<g id="edge13_Node000001_Node000004" class="edge">
<title>Node1&#45;&gt;Node4</title>
<g id="a_edge13_Node000001_Node000004"><a xlink:title=" ">
<path fill="none" stroke="#63b8ff" d="M267.74,-258.36C238.38,-236.74 197.44,-201.35 176.62,-159.75 152.8,-112.14 154.95,-45.64 156.75,-21.03"/>
<polygon fill="#63b8ff" stroke="#63b8ff" points="265.44,-261.01 275.6,-264 269.52,-255.33 265.44,-261.01"/>
</a>
</g>
</g>
<!-- Node5 -->
<g id="Node000005" class="node">
<title>Node5</title>
<g id="a_Node000005"><a xlink:href="explicit__solver_8h.html" target="_top" xlink:title=" ">
<polygon fill="white" stroke="#666666" points="321.25,-159.75 186,-159.75 186,-126.25 321.25,-126.25 321.25,-159.75"/>
<text text-anchor="start" x="194" y="-146.25" font-family="Helvetica,sans-Serif" font-size="10.00">include/prismspf/solvers</text>
<text text-anchor="middle" x="253.62" y="-133.5" font-family="Helvetica,sans-Serif" font-size="10.00">/explicit_solver.h</text>
</a>
</g>
</g>
<!-- Node1&#45;&gt;Node5 -->
<g id="edge4_Node000001_Node000005" class="edge">
<title>Node1&#45;&gt;Node5</title>
<g id="a_edge4_Node000001_Node000005"><a xlink:title=" ">
<path fill="none" stroke="#63b8ff" d="M285.09,-254.97C280.54,-246.95 275.95,-237.95 272.62,-229.25 263.75,-206.02 258.45,-177.57 255.78,-160.12"/>
<polygon fill="#63b8ff" stroke="#63b8ff" points="282.05,-256.71 290.17,-263.52 288.07,-253.13 282.05,-256.71"/>
</a>
</g>
</g>
<!-- Node8 -->
<g id="Node000008" class="node">
<title>Node8</title>
<g id="a_Node000008"><a xlink:href="linear__solver_8h.html" target="_top" xlink:title=" ">
<polygon fill="white" stroke="#666666" points="417.25,-229.25 282,-229.25 282,-195.75 417.25,-195.75 417.25,-229.25"/>
<text text-anchor="start" x="290" y="-215.75" font-family="Helvetica,sans-Serif" font-size="10.00">include/prismspf/solvers</text>
<text text-anchor="middle" x="349.62" y="-203" font-family="Helvetica,sans-Serif" font-size="10.00">/linear_solver.h</text>
</a>
</g>
</g>
<!-- Node1&#45;&gt;Node8 -->
<g id="edge8_Node000001_Node000008" class="edge">
<title>Node1&#45;&gt;Node8</title>
<g id="a_edge8_Node000001_Node000008"><a xlink:title=" ">
<path fill="none" stroke="#63b8ff" d="M319.51,-255.84C325.82,-246.98 332.72,-237.27 338.33,-229.38"/>
<polygon fill="#63b8ff" stroke="#63b8ff" points="316.82,-253.59 313.88,-263.77 322.53,-257.65 316.82,-253.59"/>
</a>
</g>
</g>
<!-- Node10 -->
<g id="Node000010" class="node">
<title>Node10</title>
<g id="a_Node000010"><a xlink:href="group__solution__handler_8cc.html" target="_top" xlink:title=" ">
<polygon fill="white" stroke="#666666" points="564.25,-229.25 435,-229.25 435,-195.75 564.25,-195.75 564.25,-229.25"/>
<text text-anchor="start" x="443" y="-215.75" font-family="Helvetica,sans-Serif" font-size="10.00">src/core/group_solution</text>
<text text-anchor="middle" x="499.62" y="-203" font-family="Helvetica,sans-Serif" font-size="10.00">_handler.cc</text>
</a>
</g>
</g>
<!-- Node1&#45;&gt;Node10 -->
<g id="edge12_Node000001_Node000010" class="edge">
<title>Node1&#45;&gt;Node10</title>
<g id="a_edge12_Node000001_Node000010"><a xlink:title=" ">
<path fill="none" stroke="#63b8ff" d="M359.62,-261.23C389.08,-251.19 424.43,-239.13 452.24,-229.65"/>
<polygon fill="#63b8ff" stroke="#63b8ff" points="358.82,-257.8 350.48,-264.34 361.08,-264.43 358.82,-257.8"/>
</a>
</g>
</g>
<!-- Node11 -->
<g id="Node000011" class="node">
<title>Node11</title>
<g id="a_Node000011"><a xlink:href="timer_8cc.html" target="_top" xlink:title=" ">
<polygon fill="white" stroke="#666666" points="678.75,-222.88 582.5,-222.88 582.5,-202.12 678.75,-202.12 678.75,-222.88"/>
<text text-anchor="middle" x="630.62" y="-209.38" font-family="Helvetica,sans-Serif" font-size="10.00">src/core/timer.cc</text>
</a>
</g>
</g>
<!-- Node1&#45;&gt;Node11 -->
<g id="edge14_Node000001_Node000011" class="edge">
<title>Node1&#45;&gt;Node11</title>
<g id="a_edge14_Node000001_Node000011"><a xlink:title=" ">
<path fill="none" stroke="#63b8ff" d="M373.46,-268.98C428.49,-259.38 506.17,-244.96 573.62,-229.25 581.12,-227.5 589.12,-225.43 596.68,-223.37"/>
<polygon fill="#63b8ff" stroke="#63b8ff" points="373.17,-265.48 363.91,-270.64 374.36,-272.38 373.17,-265.48"/>
</a>
</g>
</g>
<!-- Node3 -->
<g id="Node000003" class="node">
<title>Node3</title>
<g id="a_Node000003"><a xlink:href="problem_8h.html" target="_top" xlink:title=" ">
<polygon fill="white" stroke="#666666" points="128.12,-90.25 7.12,-90.25 7.12,-56.75 128.12,-56.75 128.12,-90.25"/>
<text text-anchor="start" x="15.12" y="-76.75" font-family="Helvetica,sans-Serif" font-size="10.00">include/prismspf/core</text>
<text text-anchor="middle" x="67.62" y="-64" font-family="Helvetica,sans-Serif" font-size="10.00">/problem.h</text>
</a>
</g>
</g>
<!-- Node2&#45;&gt;Node3 -->
<g id="edge2_Node000002_Node000003" class="edge">
<title>Node2&#45;&gt;Node3</title>
<g id="a_edge2_Node000002_Node000003"><a xlink:title=" ">
<path fill="none" stroke="#63b8ff" d="M65.22,-184.12C65.84,-156.04 66.77,-113.32 67.28,-90.38"/>
<polygon fill="#63b8ff" stroke="#63b8ff" points="61.73,-183.93 65.01,-194 68.73,-184.08 61.73,-183.93"/>
</a>
</g>
</g>
<!-- Node3&#45;&gt;Node4 -->
<g id="edge3_Node000003_Node000004" class="edge">
<title>Node3&#45;&gt;Node4</title>
<g id="a_edge3_Node000003_Node000004"><a xlink:title=" ">
<path fill="none" stroke="#63b8ff" d="M100.55,-50.14C115.19,-40.2 131.66,-29.01 143.13,-21.22"/>
<polygon fill="#63b8ff" stroke="#63b8ff" points="98.83,-47.08 92.52,-55.59 102.76,-52.87 98.83,-47.08"/>
</a>
</g>
</g>
<!-- Node6 -->
<g id="Node000006" class="node">
<title>Node6</title>
<g id="a_Node000006"><a xlink:href="solvers_8h.html" target="_top" xlink:title=" ">
<polygon fill="white" stroke="#666666" points="388.25,-90.25 253,-90.25 253,-56.75 388.25,-56.75 388.25,-90.25"/>
<text text-anchor="start" x="261" y="-76.75" font-family="Helvetica,sans-Serif" font-size="10.00">include/prismspf/solvers</text>
<text text-anchor="middle" x="320.62" y="-64" font-family="Helvetica,sans-Serif" font-size="10.00">/solvers.h</text>
</a>
</g>
</g>
<!-- Node5&#45;&gt;Node6 -->
<g id="edge5_Node000005_Node000006" class="edge">
<title>Node5&#45;&gt;Node6</title>
<g id="a_edge5_Node000005_Node000006"><a xlink:title=" ">
<path fill="none" stroke="#63b8ff" d="M277.48,-117.97C286.57,-108.81 296.7,-98.6 304.86,-90.38"/>
<polygon fill="#63b8ff" stroke="#63b8ff" points="275.13,-115.37 270.57,-124.93 280.1,-120.3 275.13,-115.37"/>
</a>
</g>
</g>
<!-- Node6&#45;&gt;Node4 -->
<g id="edge6_Node000006_Node000004" class="edge">
<title>Node6&#45;&gt;Node4</title>
<g id="a_edge6_Node000006_Node000004"><a xlink:title=" ">
<path fill="none" stroke="#63b8ff" d="M266.94,-52.37C238.99,-41.89 206.08,-29.55 183.73,-21.17"/>
<polygon fill="#63b8ff" stroke="#63b8ff" points="265.36,-55.51 275.95,-55.75 267.82,-48.96 265.36,-55.51"/>
</a>
</g>
</g>
<!-- Node7 -->
<g id="Node000007" class="node">
<title>Node7</title>
<g id="a_Node000007"><a xlink:href="solvers_8cc.html" target="_top" xlink:title=" ">
<polygon fill="white" stroke="#666666" points="380.75,-20.75 260.5,-20.75 260.5,0 380.75,0 380.75,-20.75"/>
<text text-anchor="middle" x="320.62" y="-7.25" font-family="Helvetica,sans-Serif" font-size="10.00">src/solvers/solvers.cc</text>
</a>
</g>
</g>
<!-- Node6&#45;&gt;Node7 -->
<g id="edge7_Node000006_Node000007" class="edge">
<title>Node6&#45;&gt;Node7</title>
<g id="a_edge7_Node000006_Node000007"><a xlink:title=" ">
<path fill="none" stroke="#63b8ff" d="M320.62,-44.94C320.62,-36.46 320.62,-27.67 320.62,-21.22"/>
<polygon fill="#63b8ff" stroke="#63b8ff" points="317.13,-44.93 320.63,-54.93 324.13,-44.93 317.13,-44.93"/>
</a>
</g>
</g>
<!-- Node8&#45;&gt;Node6 -->
<g id="edge11_Node000008_Node000006" class="edge">
<title>Node8&#45;&gt;Node6</title>
<g id="a_edge11_Node000008_Node000006"><a xlink:title=" ">
<path fill="none" stroke="#63b8ff" d="M343.91,-184.5C337.97,-156.42 328.86,-113.42 323.99,-90.38"/>
<polygon fill="#63b8ff" stroke="#63b8ff" points="340.43,-184.98 345.93,-194.04 347.28,-183.53 340.43,-184.98"/>
</a>
</g>
</g>
<!-- Node9 -->
<g id="Node000009" class="node">
<title>Node9</title>
<g id="a_Node000009"><a xlink:href="newton__solver_8h.html" target="_top" xlink:title=" ">
<polygon fill="white" stroke="#666666" points="513.25,-159.75 378,-159.75 378,-126.25 513.25,-126.25 513.25,-159.75"/>
<text text-anchor="start" x="386" y="-146.25" font-family="Helvetica,sans-Serif" font-size="10.00">include/prismspf/solvers</text>
<text text-anchor="middle" x="445.62" y="-133.5" font-family="Helvetica,sans-Serif" font-size="10.00">/newton_solver.h</text>
</a>
</g>
</g>
<!-- Node8&#45;&gt;Node9 -->
<g id="edge9_Node000008_Node000009" class="edge">
<title>Node8&#45;&gt;Node9</title>
<g id="a_edge9_Node000008_Node000009"><a xlink:title=" ">
<path fill="none" stroke="#63b8ff" d="M381.75,-188.91C395.17,-179.48 410.45,-168.73 422.7,-160.12"/>
<polygon fill="#63b8ff" stroke="#63b8ff" points="379.78,-186.02 373.61,-194.63 383.81,-191.74 379.78,-186.02"/>
</a>
</g>
</g>
<!-- Node9&#45;&gt;Node6 -->
<g id="edge10_Node000009_Node000006" class="edge">
<title>Node9&#45;&gt;Node6</title>
<g id="a_edge10_Node000009_Node000006"><a xlink:title=" ">
<path fill="none" stroke="#63b8ff" d="M405.76,-120.47C387.78,-110.76 366.9,-99.49 350.32,-90.54"/>
<polygon fill="#63b8ff" stroke="#63b8ff" points="403.89,-123.44 414.35,-125.11 407.22,-117.28 403.89,-123.44"/>
</a>
</g>
</g>
</g>
</svg>
