<?xml version="1.0" encoding="UTF-8" standalone="no"?>
<!DOCTYPE svg PUBLIC "-//W3C//DTD SVG 1.1//EN"
 "http://www.w3.org/Graphics/SVG/1.1/DTD/svg11.dtd">
<!-- Generated by graphviz version 12.2.1 (20241206.2353)
 -->
<!-- Title: include/prismspf/core/timer.h Pages: 1 -->
<svg width="726pt" height="307pt"
 viewBox="0.00 0.00 725.75 306.75" xmlns="http://www.w3.org/2000/svg" xmlns:xlink="http://www.w3.org/1999/xlink">
<g id="graph0" class="graph" transform="scale(1 1) rotate(0) translate(4 302.75)">
<title>include/prismspf/core/timer.h</title>
<!-- Node1 -->
<g id="Node000001" class="node">
<title>Node1</title>
<g id="a_Node000001"><a xlink:title=" ">
<polygon fill="#999999" stroke="#666666" points="410.12,-298.75 289.12,-298.75 289.12,-265.25 410.12,-265.25 410.12,-298.75"/>
<text text-anchor="start" x="297.12" y="-285.25" font-family="Helvetica,sans-Serif" font-size="10.00">include/prismspf/core</text>
<text text-anchor="middle" x="349.62" y="-272.5" font-family="Helvetica,sans-Serif" font-size="10.00">/timer.h</text>
</a>
</g>
</g>
<!-- Node2 -->
<g id="Node000002" class="node">
<title>Node2</title>
<g id="a_Node000002"><a xlink:href="refinement__manager_8h.html" target="_top" xlink:title=" ">
<polygon fill="white" stroke="#666666" points="129.25,-229.25 0,-229.25 0,-195.75 129.25,-195.75 129.25,-229.25"/>
<text text-anchor="start" x="8" y="-215.75" font-family="Helvetica,sans-Serif" font-size="10.00">include/prismspf/core</text>
<text text-anchor="middle" x="64.62" y="-203" font-family="Helvetica,sans-Serif" font-size="10.00">/refinement_manager.h</text>
</a>
</g>
</g>
<!-- Node1&#45;&gt;Node2 -->
<g id="edge1_Node000001_Node000002" class="edge">
<title>Node1&#45;&gt;Node2</title>
<g id="a_edge1_Node000001_Node000002"><a xlink:title=" ">
<path fill="none" stroke="#63b8ff" d="M277.84,-264C232.25,-253.2 173.73,-239.34 129.53,-228.87"/>
<polygon fill="#63b8ff" stroke="#63b8ff" points="276.82,-267.35 287.36,-266.25 278.44,-260.54 276.82,-267.35"/>
</a>
</g>
</g>
<!-- Node4 -->
<g id="Node000004" class="node">
<title>Node4</title>
<g id="a_Node000004"><a xlink:href="problem_8cc.html" target="_top" xlink:title=" ">
<polygon fill="white" stroke="#666666" points="213.25,-20.75 102,-20.75 102,0 213.25,0 213.25,-20.75"/>
<text text-anchor="middle" x="157.62" y="-7.25" font-family="Helvetica,sans-Serif" font-size="10.00">src/core/problem.cc</text>
</a>
</g>
</g>
<!-- Node1&#45;&gt;Node4 -->
<g id="edge15_Node000001_Node000004" class="edge">
<title>Node1&#45;&gt;Node4</title>
<g id="a_edge15_Node000001_Node000004"><a xlink:title=" ">
<path fill="none" stroke="#63b8ff" d="M296.84,-260.15C255.88,-240.84 201.96,-207.8 176.62,-159.75 151.8,-112.66 154.55,-45.84 156.63,-21.09"/>
<polygon fill="#63b8ff" stroke="#63b8ff" points="295.28,-263.29 305.83,-264.25 298.19,-256.92 295.28,-263.29"/>
</a>
</g>
</g>
<!-- Node5 -->
<g id="Node000005" class="node">
<title>Node5</title>
<g id="a_Node000005"><a xlink:href="explicit__solver_8h.html" target="_top" xlink:title=" ">
<polygon fill="white" stroke="#666666" points="321.25,-159.75 186,-159.75 186,-126.25 321.25,-126.25 321.25,-159.75"/>
<text text-anchor="start" x="194" y="-146.25" font-family="Helvetica,sans-Serif" font-size="10.00">include/prismspf/solvers</text>
<text text-anchor="middle" x="253.62" y="-133.5" font-family="Helvetica,sans-Serif" font-size="10.00">/explicit_solver.h</text>
</a>
</g>
</g>
<!-- Node1&#45;&gt;Node5 -->
<g id="edge4_Node000001_Node000005" class="edge">
<title>Node1&#45;&gt;Node5</title>
<g id="a_edge4_Node000001_Node000005"><a xlink:title=" ">
<path fill="none" stroke="#63b8ff" d="M304.78,-259.03C292.73,-251.16 280.8,-241.21 272.62,-229.25 258.34,-208.34 254.61,-178.43 253.74,-160.16"/>
<polygon fill="#63b8ff" stroke="#63b8ff" points="302.74,-261.89 313.1,-264.1 306.38,-255.91 302.74,-261.89"/>
</a>
</g>
</g>
<!-- Node8 -->
<g id="Node000008" class="node">
<title>Node8</title>
<g id="a_Node000008"><a xlink:href="linear__solver_8h.html" target="_top" xlink:title=" ">
<polygon fill="white" stroke="#666666" points="417.25,-229.25 282,-229.25 282,-195.75 417.25,-195.75 417.25,-229.25"/>
<text text-anchor="start" x="290" y="-215.75" font-family="Helvetica,sans-Serif" font-size="10.00">include/prismspf/solvers</text>
<text text-anchor="middle" x="349.62" y="-203" font-family="Helvetica,sans-Serif" font-size="10.00">/linear_solver.h</text>
</a>
</g>
</g>
<!-- Node1&#45;&gt;Node8 -->
<g id="edge8_Node000001_Node000008" class="edge">
<title>Node1&#45;&gt;Node8</title>
<g id="a_edge8_Node000001_Node000008"><a xlink:title=" ">
<path fill="none" stroke="#63b8ff" d="M349.62,-253.56C349.62,-245.34 349.62,-236.59 349.62,-229.38"/>
<polygon fill="#63b8ff" stroke="#63b8ff" points="346.13,-253.49 349.63,-263.49 353.13,-253.49 346.13,-253.49"/>
</a>
</g>
</g>
<!-- Node9 -->
<g id="Node000009" class="node">
<title>Node9</title>
<g id="a_Node000009"><a xlink:href="mg__solver_8h.html" target="_top" xlink:title=" ">
<polygon fill="white" stroke="#666666" points="666.25,-159.75 531,-159.75 531,-126.25 666.25,-126.25 666.25,-159.75"/>
<text text-anchor="start" x="539" y="-146.25" font-family="Helvetica,sans-Serif" font-size="10.00">include/prismspf/solvers</text>
<text text-anchor="middle" x="598.62" y="-133.5" font-family="Helvetica,sans-Serif" font-size="10.00">/mg_solver.h</text>
</a>
</g>
</g>
<!-- Node1&#45;&gt;Node9 -->
<g id="edge13_Node000001_Node000009" class="edge">
<title>Node1&#45;&gt;Node9</title>
<g id="a_edge13_Node000001_Node000009"><a xlink:title=" ">
<path fill="none" stroke="#63b8ff" d="M384.88,-258.71C398.22,-249.9 413.39,-239.46 426.62,-229.25 444.45,-215.5 445.38,-207.43 464.62,-195.75 489.25,-180.8 518.93,-168.81 544.09,-160.15"/>
<polygon fill="#63b8ff" stroke="#63b8ff" points="383.26,-255.58 376.8,-263.97 387.08,-261.44 383.26,-255.58"/>
</a>
</g>
</g>
<!-- Node11 -->
<g id="Node000011" class="node">
<title>Node11</title>
<g id="a_Node000011"><a xlink:href="group__solution__handler_8cc.html" target="_top" xlink:title=" ">
<polygon fill="white" stroke="#666666" points="603.25,-229.25 474,-229.25 474,-195.75 603.25,-195.75 603.25,-229.25"/>
<text text-anchor="start" x="482" y="-215.75" font-family="Helvetica,sans-Serif" font-size="10.00">src/core/group_solution</text>
<text text-anchor="middle" x="538.62" y="-203" font-family="Helvetica,sans-Serif" font-size="10.00">_handler.cc</text>
</a>
</g>
</g>
<!-- Node1&#45;&gt;Node11 -->
<g id="edge14_Node000001_Node000011" class="edge">
<title>Node1&#45;&gt;Node11</title>
<g id="a_edge14_Node000001_Node000011"><a xlink:title=" ">
<path fill="none" stroke="#63b8ff" d="M405.72,-260.97C433.7,-250.97 467.08,-239.05 493.4,-229.65"/>
<polygon fill="#63b8ff" stroke="#63b8ff" points="404.56,-257.66 396.32,-264.32 406.92,-264.26 404.56,-257.66"/>
</a>
</g>
</g>
<!-- Node12 -->
<g id="Node000012" class="node">
<title>Node12</title>
<g id="a_Node000012"><a xlink:href="timer_8cc.html" target="_top" xlink:title=" ">
<polygon fill="white" stroke="#666666" points="717.75,-222.88 621.5,-222.88 621.5,-202.12 717.75,-202.12 717.75,-222.88"/>
<text text-anchor="middle" x="669.62" y="-209.38" font-family="Helvetica,sans-Serif" font-size="10.00">src/core/timer.cc</text>
</a>
</g>
</g>
<!-- Node1&#45;&gt;Node12 -->
<g id="edge16_Node000001_Node000012" class="edge">
<title>Node1&#45;&gt;Node12</title>
<g id="a_edge16_Node000001_Node000012"><a xlink:title=" ">
<path fill="none" stroke="#63b8ff" d="M421.82,-268.31C474.84,-258.62 548.49,-244.4 612.62,-229.25 620.12,-227.48 628.11,-225.4 635.67,-223.33"/>
<polygon fill="#63b8ff" stroke="#63b8ff" points="421.19,-264.87 411.98,-270.1 422.44,-271.75 421.19,-264.87"/>
</a>
</g>
</g>
<!-- Node3 -->
<g id="Node000003" class="node">
<title>Node3</title>
<g id="a_Node000003"><a xlink:href="problem_8h.html" target="_top" xlink:title=" ">
<polygon fill="white" stroke="#666666" points="128.12,-90.25 7.12,-90.25 7.12,-56.75 128.12,-56.75 128.12,-90.25"/>
<text text-anchor="start" x="15.12" y="-76.75" font-family="Helvetica,sans-Serif" font-size="10.00">include/prismspf/core</text>
<text text-anchor="middle" x="67.62" y="-64" font-family="Helvetica,sans-Serif" font-size="10.00">/problem.h</text>
</a>
</g>
</g>
<!-- Node2&#45;&gt;Node3 -->
<g id="edge2_Node000002_Node000003" class="edge">
<title>Node2&#45;&gt;Node3</title>
<g id="a_edge2_Node000002_Node000003"><a xlink:title=" ">
<path fill="none" stroke="#63b8ff" d="M65.22,-184.12C65.84,-156.04 66.77,-113.32 67.28,-90.38"/>
<polygon fill="#63b8ff" stroke="#63b8ff" points="61.73,-183.93 65.01,-194 68.73,-184.08 61.73,-183.93"/>
</a>
</g>
</g>
<!-- Node3&#45;&gt;Node4 -->
<g id="edge3_Node000003_Node000004" class="edge">
<title>Node3&#45;&gt;Node4</title>
<g id="a_edge3_Node000003_Node000004"><a xlink:title=" ">
<path fill="none" stroke="#63b8ff" d="M100.55,-50.14C115.19,-40.2 131.66,-29.01 143.13,-21.22"/>
<polygon fill="#63b8ff" stroke="#63b8ff" points="98.83,-47.08 92.52,-55.59 102.76,-52.87 98.83,-47.08"/>
</a>
</g>
</g>
<!-- Node6 -->
<g id="Node000006" class="node">
<title>Node6</title>
<g id="a_Node000006"><a xlink:href="solvers_8h.html" target="_top" xlink:title=" ">
<polygon fill="white" stroke="#666666" points="388.25,-90.25 253,-90.25 253,-56.75 388.25,-56.75 388.25,-90.25"/>
<text text-anchor="start" x="261" y="-76.75" font-family="Helvetica,sans-Serif" font-size="10.00">include/prismspf/solvers</text>
<text text-anchor="middle" x="320.62" y="-64" font-family="Helvetica,sans-Serif" font-size="10.00">/solvers.h</text>
</a>
</g>
</g>
<!-- Node5&#45;&gt;Node6 -->
<g id="edge5_Node000005_Node000006" class="edge">
<title>Node5&#45;&gt;Node6</title>
<g id="a_edge5_Node000005_Node000006"><a xlink:title=" ">
<path fill="none" stroke="#63b8ff" d="M277.48,-117.97C286.57,-108.81 296.7,-98.6 304.86,-90.38"/>
<polygon fill="#63b8ff" stroke="#63b8ff" points="275.13,-115.37 270.57,-124.93 280.1,-120.3 275.13,-115.37"/>
</a>
</g>
</g>
<!-- Node6&#45;&gt;Node4 -->
<g id="edge6_Node000006_Node000004" class="edge">
<title>Node6&#45;&gt;Node4</title>
<g id="a_edge6_Node000006_Node000004"><a xlink:title=" ">
<path fill="none" stroke="#63b8ff" d="M266.94,-52.37C238.99,-41.89 206.08,-29.55 183.73,-21.17"/>
<polygon fill="#63b8ff" stroke="#63b8ff" points="265.36,-55.51 275.95,-55.75 267.82,-48.96 265.36,-55.51"/>
</a>
</g>
</g>
<!-- Node7 -->
<g id="Node000007" class="node">
<title>Node7</title>
<g id="a_Node000007"><a xlink:href="solvers_8cc.html" target="_top" xlink:title=" ">
<polygon fill="white" stroke="#666666" points="380.75,-20.75 260.5,-20.75 260.5,0 380.75,0 380.75,-20.75"/>
<text text-anchor="middle" x="320.62" y="-7.25" font-family="Helvetica,sans-Serif" font-size="10.00">src/solvers/solvers.cc</text>
</a>
</g>
</g>
<!-- Node6&#45;&gt;Node7 -->
<g id="edge7_Node000006_Node000007" class="edge">
<title>Node6&#45;&gt;Node7</title>
<g id="a_edge7_Node000006_Node000007"><a xlink:title=" ">
<path fill="none" stroke="#63b8ff" d="M320.62,-44.94C320.62,-36.46 320.62,-27.67 320.62,-21.22"/>
<polygon fill="#63b8ff" stroke="#63b8ff" points="317.13,-44.93 320.63,-54.93 324.13,-44.93 317.13,-44.93"/>
</a>
</g>
</g>
<!-- Node8&#45;&gt;Node6 -->
<g id="edge12_Node000008_Node000006" class="edge">
<title>Node8&#45;&gt;Node6</title>
<g id="a_edge12_Node000008_Node000006"><a xlink:title=" ">
<path fill="none" stroke="#63b8ff" d="M343.91,-184.5C337.97,-156.42 328.86,-113.42 323.99,-90.38"/>
<polygon fill="#63b8ff" stroke="#63b8ff" points="340.43,-184.98 345.93,-194.04 347.28,-183.53 340.43,-184.98"/>
</a>
</g>
</g>
<!-- Node8&#45;&gt;Node9 -->
<g id="edge9_Node000008_Node000009" class="edge">
<title>Node8&#45;&gt;Node9</title>
<g id="a_edge9_Node000008_Node000009"><a xlink:title=" ">
<path fill="none" stroke="#63b8ff" d="M420.13,-192.39C457.65,-182.22 503.3,-169.84 539.04,-160.15"/>
<polygon fill="#63b8ff" stroke="#63b8ff" points="419.46,-188.94 410.73,-194.94 421.29,-195.7 419.46,-188.94"/>
</a>
</g>
</g>
<!-- Node10 -->
<g id="Node000010" class="node">
<title>Node10</title>
<g id="a_Node000010"><a xlink:href="newton__solver_8h.html" target="_top" xlink:title=" ">
<polygon fill="white" stroke="#666666" points="513.25,-159.75 378,-159.75 378,-126.25 513.25,-126.25 513.25,-159.75"/>
<text text-anchor="start" x="386" y="-146.25" font-family="Helvetica,sans-Serif" font-size="10.00">include/prismspf/solvers</text>
<text text-anchor="middle" x="445.62" y="-133.5" font-family="Helvetica,sans-Serif" font-size="10.00">/newton_solver.h</text>
</a>
</g>
</g>
<!-- Node8&#45;&gt;Node10 -->
<g id="edge10_Node000008_Node000010" class="edge">
<title>Node8&#45;&gt;Node10</title>
<g id="a_edge10_Node000008_Node000010"><a xlink:title=" ">
<path fill="none" stroke="#63b8ff" d="M381.75,-188.91C395.17,-179.48 410.45,-168.73 422.7,-160.12"/>
<polygon fill="#63b8ff" stroke="#63b8ff" points="379.78,-186.02 373.61,-194.63 383.81,-191.74 379.78,-186.02"/>
</a>
</g>
</g>
<!-- Node10&#45;&gt;Node6 -->
<g id="edge11_Node000010_Node000006" class="edge">
<title>Node10&#45;&gt;Node6</title>
<g id="a_edge11_Node000010_Node000006"><a xlink:title=" ">
<path fill="none" stroke="#63b8ff" d="M405.76,-120.47C387.78,-110.76 366.9,-99.49 350.32,-90.54"/>
<polygon fill="#63b8ff" stroke="#63b8ff" points="403.89,-123.44 414.35,-125.11 407.22,-117.28 403.89,-123.44"/>
</a>
</g>
</g>
</g>
</svg>
