<?xml version="1.0" encoding="UTF-8" standalone="no"?>
<!DOCTYPE svg PUBLIC "-//W3C//DTD SVG 1.1//EN"
 "http://www.w3.org/Graphics/SVG/1.1/DTD/svg11.dtd">
<!-- Generated by graphviz version 12.2.1 (20241206.2353)
 -->
<!-- Title: include/prismspf/core/timer.h Pages: 1 -->
<svg width="1569pt" height="793pt"
 viewBox="0.00 0.00 1569.12 793.25" xmlns="http://www.w3.org/2000/svg" xmlns:xlink="http://www.w3.org/1999/xlink">
<g id="graph0" class="graph" transform="scale(1 1) rotate(0) translate(4 789.25)">
<title>include/prismspf/core/timer.h</title>
<!-- Node1 -->
<g id="Node000001" class="node">
<title>Node1</title>
<g id="a_Node000001"><a xlink:title=" ">
<polygon fill="#999999" stroke="#666666" points="1200.5,-785.25 1079.5,-785.25 1079.5,-751.75 1200.5,-751.75 1200.5,-785.25"/>
<text text-anchor="start" x="1087.5" y="-771.75" font-family="Helvetica,sans-Serif" font-size="10.00">include/prismspf/core</text>
<text text-anchor="middle" x="1140" y="-759" font-family="Helvetica,sans-Serif" font-size="10.00">/timer.h</text>
</a>
</g>
</g>
<!-- Node2 -->
<g id="Node000002" class="node">
<title>Node2</title>
<g id="a_Node000002"><a xlink:href="group__solution__handler_8h.html" target="_top" xlink:title=" ">
<polygon fill="white" stroke="#666666" points="1210.62,-715.75 1069.38,-715.75 1069.38,-682.25 1210.62,-682.25 1210.62,-715.75"/>
<text text-anchor="start" x="1077.38" y="-702.25" font-family="Helvetica,sans-Serif" font-size="10.00">include/prismspf/core</text>
<text text-anchor="middle" x="1140" y="-689.5" font-family="Helvetica,sans-Serif" font-size="10.00">/group_solution_handler.h</text>
</a>
</g>
</g>
<!-- Node1&#45;&gt;Node2 -->
<g id="edge1_Node000001_Node000002" class="edge">
<title>Node1&#45;&gt;Node2</title>
<g id="a_edge1_Node000001_Node000002"><a xlink:title=" ">
<path fill="none" stroke="#63b8ff" d="M1140,-740.06C1140,-731.84 1140,-723.09 1140,-715.88"/>
<polygon fill="#63b8ff" stroke="#63b8ff" points="1136.5,-739.99 1140,-749.99 1143.5,-739.99 1136.5,-739.99"/>
</a>
</g>
</g>
<!-- Node7 -->
<g id="Node000007" class="node">
<title>Node7</title>
<g id="a_Node000007"><a xlink:href="explicit__solver_8h.html" target="_top" xlink:title=" ">
<polygon fill="white" stroke="#666666" points="934.62,-229.25 799.38,-229.25 799.38,-195.75 934.62,-195.75 934.62,-229.25"/>
<text text-anchor="start" x="807.38" y="-215.75" font-family="Helvetica,sans-Serif" font-size="10.00">include/prismspf/solvers</text>
<text text-anchor="middle" x="867" y="-203" font-family="Helvetica,sans-Serif" font-size="10.00">/explicit_solver.h</text>
</a>
</g>
</g>
<!-- Node1&#45;&gt;Node7 -->
<g id="edge55_Node000001_Node000007" class="edge">
<title>Node1&#45;&gt;Node7</title>
<g id="a_edge55_Node000001_Node000007"><a xlink:title=" ">
<path fill="none" stroke="#63b8ff" d="M1067.8,-758.43C995.42,-745.63 885.45,-715.52 819,-646.25 765.23,-590.2 751.57,-540.67 791,-473.75 807.77,-445.3 838.54,-465.78 856,-437.75 897.83,-370.58 880.24,-268.93 871.16,-229.72"/>
<polygon fill="#63b8ff" stroke="#63b8ff" points="1067.14,-761.86 1077.59,-760.08 1068.31,-754.96 1067.14,-761.86"/>
</a>
</g>
</g>
<!-- Node9 -->
<g id="Node000009" class="node">
<title>Node9</title>
<g id="a_Node000009"><a xlink:href="problem_8cc.html" target="_top" xlink:title=" ">
<polygon fill="white" stroke="#666666" points="444.62,-20.75 333.38,-20.75 333.38,0 444.62,0 444.62,-20.75"/>
<text text-anchor="middle" x="389" y="-7.25" font-family="Helvetica,sans-Serif" font-size="10.00">src/core/problem.cc</text>
</a>
</g>
</g>
<!-- Node1&#45;&gt;Node9 -->
<g id="edge58_Node000001_Node000009" class="edge">
<title>Node1&#45;&gt;Node9</title>
<g id="a_edge58_Node000001_Node000009"><a xlink:title=" ">
<path fill="none" stroke="#63b8ff" d="M1067.97,-766.45C817.55,-761.84 0,-738.54 0,-630.5 0,-630.5 0,-630.5 0,-142 0,-83.26 47.57,-81.17 101,-56.75 176.39,-22.3 273.17,-13.36 333.13,-11.38"/>
<polygon fill="#63b8ff" stroke="#63b8ff" points="1067.54,-769.94 1077.6,-766.62 1067.66,-762.94 1067.54,-769.94"/>
</a>
</g>
</g>
<!-- Node11 -->
<g id="Node000011" class="node">
<title>Node11</title>
<g id="a_Node000011"><a xlink:href="linear__solver_8h.html" target="_top" xlink:title=" ">
<polygon fill="white" stroke="#666666" points="1326.62,-229.25 1191.38,-229.25 1191.38,-195.75 1326.62,-195.75 1326.62,-229.25"/>
<text text-anchor="start" x="1199.38" y="-215.75" font-family="Helvetica,sans-Serif" font-size="10.00">include/prismspf/solvers</text>
<text text-anchor="middle" x="1259" y="-203" font-family="Helvetica,sans-Serif" font-size="10.00">/linear_solver.h</text>
</a>
</g>
</g>
<!-- Node1&#45;&gt;Node11 -->
<g id="edge56_Node000001_Node000011" class="edge">
<title>Node1&#45;&gt;Node11</title>
<g id="a_edge56_Node000001_Node000011"><a xlink:title=" ">
<path fill="none" stroke="#63b8ff" d="M1212.08,-764.73C1299.99,-757.05 1437,-729.23 1437,-630.5 1437,-630.5 1437,-630.5 1437,-350.5 1437,-287.13 1365.28,-249.01 1312.89,-229.62"/>
<polygon fill="#63b8ff" stroke="#63b8ff" points="1212.02,-761.23 1202.33,-765.51 1212.57,-768.2 1212.02,-761.23"/>
</a>
</g>
</g>
<!-- Node16 -->
<g id="Node000016" class="node">
<title>Node16</title>
<g id="a_Node000016"><a xlink:href="refinement__manager_8h.html" target="_top" xlink:title=" ">
<polygon fill="white" stroke="#666666" points="546.62,-298.75 417.38,-298.75 417.38,-265.25 546.62,-265.25 546.62,-298.75"/>
<text text-anchor="start" x="425.38" y="-285.25" font-family="Helvetica,sans-Serif" font-size="10.00">include/prismspf/core</text>
<text text-anchor="middle" x="482" y="-272.5" font-family="Helvetica,sans-Serif" font-size="10.00">/refinement_manager.h</text>
</a>
</g>
</g>
<!-- Node1&#45;&gt;Node16 -->
<g id="edge54_Node000001_Node000016" class="edge">
<title>Node1&#45;&gt;Node16</title>
<g id="a_edge54_Node000001_Node000016"><a xlink:title=" ">
<path fill="none" stroke="#63b8ff" d="M1067.7,-763.19C865.17,-750.16 307,-707.28 307,-630.5 307,-630.5 307,-630.5 307,-489.5 307,-450.68 305.23,-437.04 326,-404.25 356.66,-355.86 413.7,-319 449.66,-299.23"/>
<polygon fill="#63b8ff" stroke="#63b8ff" points="1067.37,-766.68 1077.57,-763.82 1067.82,-759.69 1067.37,-766.68"/>
</a>
</g>
</g>
<!-- Node27 -->
<g id="Node000027" class="node">
<title>Node27</title>
<g id="a_Node000027"><a xlink:href="group__solution__handler_8cc.html" target="_top" xlink:title=" ">
<polygon fill="white" stroke="#666666" points="1408.62,-646.25 1279.38,-646.25 1279.38,-612.75 1408.62,-612.75 1408.62,-646.25"/>
<text text-anchor="start" x="1287.38" y="-632.75" font-family="Helvetica,sans-Serif" font-size="10.00">src/core/group_solution</text>
<text text-anchor="middle" x="1344" y="-620" font-family="Helvetica,sans-Serif" font-size="10.00">_handler.cc</text>
</a>
</g>
</g>
<!-- Node1&#45;&gt;Node27 -->
<g id="edge57_Node000001_Node000027" class="edge">
<title>Node1&#45;&gt;Node27</title>
<g id="a_edge57_Node000001_Node000027"><a xlink:title=" ">
<path fill="none" stroke="#63b8ff" d="M1174.69,-745.36C1188.81,-736.27 1205.24,-725.59 1220,-715.75 1255.43,-692.12 1296.01,-664.02 1320.82,-646.72"/>
<polygon fill="#63b8ff" stroke="#63b8ff" points="1173.14,-742.2 1166.61,-750.55 1176.92,-748.09 1173.14,-742.2"/>
</a>
</g>
</g>
<!-- Node28 -->
<g id="Node000028" class="node">
<title>Node28</title>
<g id="a_Node000028"><a xlink:href="timer_8cc.html" target="_top" xlink:title=" ">
<polygon fill="white" stroke="#666666" points="1561.12,-709.38 1464.88,-709.38 1464.88,-688.62 1561.12,-688.62 1561.12,-709.38"/>
<text text-anchor="middle" x="1513" y="-695.88" font-family="Helvetica,sans-Serif" font-size="10.00">src/core/timer.cc</text>
</a>
</g>
</g>
<!-- Node1&#45;&gt;Node28 -->
<g id="edge59_Node000001_Node000028" class="edge">
<title>Node1&#45;&gt;Node28</title>
<g id="a_edge59_Node000001_Node000028"><a xlink:title=" ">
<path fill="none" stroke="#63b8ff" d="M1211.82,-757.3C1275.06,-747.9 1369.51,-732.85 1451,-715.75 1459.26,-714.02 1468.08,-711.92 1476.4,-709.84"/>
<polygon fill="#63b8ff" stroke="#63b8ff" points="1211.65,-753.78 1202.27,-758.71 1212.68,-760.71 1211.65,-753.78"/>
</a>
</g>
</g>
<!-- Node3 -->
<g id="Node000003" class="node">
<title>Node3</title>
<g id="a_Node000003"><a xlink:href="solution__indexer_8h.html" target="_top" xlink:title=" ">
<polygon fill="white" stroke="#666666" points="985.5,-646.25 864.5,-646.25 864.5,-612.75 985.5,-612.75 985.5,-646.25"/>
<text text-anchor="start" x="872.5" y="-632.75" font-family="Helvetica,sans-Serif" font-size="10.00">include/prismspf/core</text>
<text text-anchor="middle" x="925" y="-620" font-family="Helvetica,sans-Serif" font-size="10.00">/solution_indexer.h</text>
</a>
</g>
</g>
<!-- Node2&#45;&gt;Node3 -->
<g id="edge2_Node000002_Node000003" class="edge">
<title>Node2&#45;&gt;Node3</title>
<g id="a_edge2_Node000002_Node000003"><a xlink:title=" ">
<path fill="none" stroke="#63b8ff" d="M1077.87,-678.49C1045.71,-668.4 1006.91,-656.22 976.45,-646.65"/>
<polygon fill="#63b8ff" stroke="#63b8ff" points="1076.47,-681.72 1087.06,-681.38 1078.57,-675.04 1076.47,-681.72"/>
</a>
</g>
</g>
<!-- Node6 -->
<g id="Node000006" class="node">
<title>Node6</title>
<g id="a_Node000006"><a xlink:href="mf__operator_8h.html" target="_top" xlink:title=" ">
<polygon fill="white" stroke="#666666" points="1152.62,-298.75 1017.38,-298.75 1017.38,-265.25 1152.62,-265.25 1152.62,-298.75"/>
<text text-anchor="start" x="1025.38" y="-285.25" font-family="Helvetica,sans-Serif" font-size="10.00">include/prismspf/solvers</text>
<text text-anchor="middle" x="1085" y="-272.5" font-family="Helvetica,sans-Serif" font-size="10.00">/mf_operator.h</text>
</a>
</g>
</g>
<!-- Node2&#45;&gt;Node6 -->
<g id="edge48_Node000002_Node000006" class="edge">
<title>Node2&#45;&gt;Node6</title>
<g id="a_edge48_Node000002_Node000006"><a xlink:title=" ">
<path fill="none" stroke="#63b8ff" d="M1151.05,-671.29C1161.31,-644.04 1175,-600.31 1175,-561 1175,-561 1175,-561 1175,-420 1175,-369.06 1131,-322.38 1104.53,-298.9"/>
<polygon fill="#63b8ff" stroke="#63b8ff" points="1147.84,-669.89 1147.46,-680.48 1154.36,-672.44 1147.84,-669.89"/>
</a>
</g>
</g>
<!-- Node2&#45;&gt;Node11 -->
<g id="edge47_Node000002_Node000011" class="edge">
<title>Node2&#45;&gt;Node11</title>
<g id="a_edge47_Node000002_Node000011"><a xlink:title=" ">
<path fill="none" stroke="#63b8ff" d="M1190.47,-676.59C1203.97,-668.77 1217.45,-658.71 1227,-646.25 1250.96,-615.02 1251,-600.36 1251,-561 1251,-561 1251,-561 1251,-350.5 1251,-306.66 1255.13,-255.07 1257.46,-229.51"/>
<polygon fill="#63b8ff" stroke="#63b8ff" points="1189.14,-673.33 1182.02,-681.18 1192.48,-679.49 1189.14,-673.33"/>
</a>
</g>
</g>
<!-- Node12 -->
<g id="Node000012" class="node">
<title>Node12</title>
<g id="a_Node000012"><a xlink:href="newton__solver_8h.html" target="_top" xlink:title=" ">
<polygon fill="white" stroke="#666666" points="1192.62,-159.75 1057.38,-159.75 1057.38,-126.25 1192.62,-126.25 1192.62,-159.75"/>
<text text-anchor="start" x="1065.38" y="-146.25" font-family="Helvetica,sans-Serif" font-size="10.00">include/prismspf/solvers</text>
<text text-anchor="middle" x="1125" y="-133.5" font-family="Helvetica,sans-Serif" font-size="10.00">/newton_solver.h</text>
</a>
</g>
</g>
<!-- Node2&#45;&gt;Node12 -->
<g id="edge49_Node000002_Node000012" class="edge">
<title>Node2&#45;&gt;Node12</title>
<g id="a_edge49_Node000002_Node000012"><a xlink:title=" ">
<path fill="none" stroke="#63b8ff" d="M1162.69,-673.34C1184.12,-647.4 1213,-604.39 1213,-561 1213,-561 1213,-561 1213,-420 1213,-316.9 1156.57,-201.94 1134.09,-160.22"/>
<polygon fill="#63b8ff" stroke="#63b8ff" points="1160.3,-670.75 1156.46,-680.62 1165.62,-675.29 1160.3,-670.75"/>
</a>
</g>
</g>
<!-- Node13 -->
<g id="Node000013" class="node">
<title>Node13</title>
<g id="a_Node000013"><a xlink:href="mf__operator_8cc.html" target="_top" xlink:title=" ">
<polygon fill="white" stroke="#666666" points="1097.12,-222.88 952.88,-222.88 952.88,-202.12 1097.12,-202.12 1097.12,-222.88"/>
<text text-anchor="middle" x="1025" y="-209.38" font-family="Helvetica,sans-Serif" font-size="10.00">src/solvers/mf_operator.cc</text>
</a>
</g>
</g>
<!-- Node2&#45;&gt;Node13 -->
<g id="edge53_Node000002_Node000013" class="edge">
<title>Node2&#45;&gt;Node13</title>
<g id="a_edge53_Node000002_Node000013"><a xlink:title=" ">
<path fill="none" stroke="#63b8ff" d="M1057.67,-690.35C985.62,-682.36 887.52,-667.93 855,-646.25 824.38,-625.84 820.43,-612.04 810,-576.75 797.03,-532.85 782.8,-510.57 810,-473.75 842.32,-429.99 887.36,-475.01 927,-437.75 986.7,-381.64 955.33,-338.52 992,-265.25 999.73,-249.81 1010.89,-233.19 1018.04,-223.06"/>
<polygon fill="#63b8ff" stroke="#63b8ff" points="1057.17,-693.82 1067.49,-691.42 1057.92,-686.86 1057.17,-693.82"/>
</a>
</g>
</g>
<!-- Node20 -->
<g id="Node000020" class="node">
<title>Node20</title>
<g id="a_Node000020"><a xlink:href="solver__base_8h.html" target="_top" xlink:title=" ">
<polygon fill="white" stroke="#666666" points="680.62,-368.25 545.38,-368.25 545.38,-334.75 680.62,-334.75 680.62,-368.25"/>
<text text-anchor="start" x="553.38" y="-354.75" font-family="Helvetica,sans-Serif" font-size="10.00">include/prismspf/solvers</text>
<text text-anchor="middle" x="613" y="-342" font-family="Helvetica,sans-Serif" font-size="10.00">/solver_base.h</text>
</a>
</g>
</g>
<!-- Node2&#45;&gt;Node20 -->
<g id="edge50_Node000002_Node000020" class="edge">
<title>Node2&#45;&gt;Node20</title>
<g id="a_edge50_Node000002_Node000020"><a xlink:title=" ">
<path fill="none" stroke="#63b8ff" d="M1057.65,-697.95C981.98,-695.23 868.07,-684.28 777,-646.25 649.68,-593.08 587.42,-569.67 547,-437.75 542.64,-423.51 540.48,-417.64 547,-404.25 554.33,-389.19 568.39,-377.22 581.66,-368.6"/>
<polygon fill="#63b8ff" stroke="#63b8ff" points="1057.38,-701.44 1067.48,-698.26 1057.6,-694.44 1057.38,-701.44"/>
</a>
</g>
</g>
<!-- Node26 -->
<g id="Node000026" class="node">
<title>Node26</title>
<g id="a_Node000026"><a xlink:href="solution__indexer_8cc.html" target="_top" xlink:title=" ">
<polygon fill="white" stroke="#666666" points="1147.12,-570.38 996.88,-570.38 996.88,-549.62 1147.12,-549.62 1147.12,-570.38"/>
<text text-anchor="middle" x="1072" y="-556.88" font-family="Helvetica,sans-Serif" font-size="10.00">src/core/solution_indexer.cc</text>
</a>
</g>
</g>
<!-- Node2&#45;&gt;Node26 -->
<g id="edge52_Node000002_Node000026" class="edge">
<title>Node2&#45;&gt;Node26</title>
<g id="a_edge52_Node000002_Node000026"><a xlink:title=" ">
<path fill="none" stroke="#63b8ff" d="M1127.1,-672C1111.83,-641.25 1087.19,-591.6 1076.83,-570.73"/>
<polygon fill="#63b8ff" stroke="#63b8ff" points="1123.81,-673.26 1131.39,-680.66 1130.08,-670.15 1123.81,-673.26"/>
</a>
</g>
</g>
<!-- Node2&#45;&gt;Node27 -->
<g id="edge51_Node000002_Node000027" class="edge">
<title>Node2&#45;&gt;Node27</title>
<g id="a_edge51_Node000002_Node000027"><a xlink:title=" ">
<path fill="none" stroke="#63b8ff" d="M1199.75,-678.23C1230.11,-668.19 1266.53,-656.13 1295.18,-646.65"/>
<polygon fill="#63b8ff" stroke="#63b8ff" points="1198.69,-674.89 1190.3,-681.36 1200.89,-681.54 1198.69,-674.89"/>
</a>
</g>
</g>
<!-- Node4 -->
<g id="Node000004" class="node">
<title>Node4</title>
<g id="a_Node000004"><a xlink:href="field__container_8h.html" target="_top" xlink:title=" ">
<polygon fill="white" stroke="#666666" points="940.5,-576.75 819.5,-576.75 819.5,-543.25 940.5,-543.25 940.5,-576.75"/>
<text text-anchor="start" x="827.5" y="-563.25" font-family="Helvetica,sans-Serif" font-size="10.00">include/prismspf/core</text>
<text text-anchor="middle" x="880" y="-550.5" font-family="Helvetica,sans-Serif" font-size="10.00">/field_container.h</text>
</a>
</g>
</g>
<!-- Node3&#45;&gt;Node4 -->
<g id="edge3_Node000003_Node000004" class="edge">
<title>Node3&#45;&gt;Node4</title>
<g id="a_edge3_Node000003_Node000004"><a xlink:title=" ">
<path fill="none" stroke="#63b8ff" d="M908.04,-603.06C902.18,-594.27 895.79,-584.68 890.59,-576.88"/>
<polygon fill="#63b8ff" stroke="#63b8ff" points="905.04,-604.87 913.5,-611.24 910.86,-600.98 905.04,-604.87"/>
</a>
</g>
</g>
<!-- Node3&#45;&gt;Node6 -->
<g id="edge44_Node000003_Node000006" class="edge">
<title>Node3&#45;&gt;Node6</title>
<g id="a_edge44_Node000003_Node000006"><a xlink:title=" ">
<path fill="none" stroke="#63b8ff" d="M941.54,-603.24C953.55,-585.67 970.66,-562.11 988,-543.25 1004.41,-525.4 1013.63,-526.01 1029,-507.25 1051.58,-479.68 1055.08,-470.56 1069,-437.75 1081.55,-408.16 1084.51,-400.08 1089,-368.25 1091.08,-353.51 1089.57,-349.63 1089,-334.75 1088.53,-322.68 1087.46,-309.07 1086.54,-298.84"/>
<polygon fill="#63b8ff" stroke="#63b8ff" points="938.96,-600.81 936.28,-611.06 944.77,-604.72 938.96,-600.81"/>
</a>
</g>
</g>
<!-- Node14 -->
<g id="Node000014" class="node">
<title>Node14</title>
<g id="a_Node000014"><a xlink:href="solve__context_8h.html" target="_top" xlink:title=" ">
<polygon fill="white" stroke="#666666" points="470.62,-437.75 335.38,-437.75 335.38,-404.25 470.62,-404.25 470.62,-437.75"/>
<text text-anchor="start" x="343.38" y="-424.25" font-family="Helvetica,sans-Serif" font-size="10.00">include/prismspf/solvers</text>
<text text-anchor="middle" x="403" y="-411.5" font-family="Helvetica,sans-Serif" font-size="10.00">/solve_context.h</text>
</a>
</g>
</g>
<!-- Node3&#45;&gt;Node14 -->
<g id="edge45_Node000003_Node000014" class="edge">
<title>Node3&#45;&gt;Node14</title>
<g id="a_edge45_Node000003_Node000014"><a xlink:title=" ">
<path fill="none" stroke="#63b8ff" d="M867.08,-608.64C800.65,-585.55 688.68,-545.67 594,-507.25 538.48,-484.72 475.18,-455.82 437.2,-438.12"/>
<polygon fill="#63b8ff" stroke="#63b8ff" points="865.72,-611.87 876.32,-611.84 868.01,-605.26 865.72,-611.87"/>
</a>
</g>
</g>
<!-- Node17 -->
<g id="Node000017" class="node">
<title>Node17</title>
<g id="a_Node000017"><a xlink:href="solution__output_8h.html" target="_top" xlink:title=" ">
<polygon fill="white" stroke="#666666" points="149.5,-368.25 28.5,-368.25 28.5,-334.75 149.5,-334.75 149.5,-368.25"/>
<text text-anchor="start" x="36.5" y="-354.75" font-family="Helvetica,sans-Serif" font-size="10.00">include/prismspf/core</text>
<text text-anchor="middle" x="89" y="-342" font-family="Helvetica,sans-Serif" font-size="10.00">/solution_output.h</text>
</a>
</g>
</g>
<!-- Node3&#45;&gt;Node17 -->
<g id="edge43_Node000003_Node000017" class="edge">
<title>Node3&#45;&gt;Node17</title>
<g id="a_edge43_Node000003_Node000017"><a xlink:title=" ">
<path fill="none" stroke="#63b8ff" d="M853.11,-615.68C805.54,-606.51 742.01,-592.95 687,-576.75 470.29,-512.92 219.73,-408.64 126.48,-368.73"/>
<polygon fill="#63b8ff" stroke="#63b8ff" points="852.27,-619.08 862.75,-617.52 853.58,-612.21 852.27,-619.08"/>
</a>
</g>
</g>
<!-- Node3&#45;&gt;Node26 -->
<g id="edge46_Node000003_Node000026" class="edge">
<title>Node3&#45;&gt;Node26</title>
<g id="a_edge46_Node000003_Node000026"><a xlink:title=" ">
<path fill="none" stroke="#63b8ff" d="M970.51,-607.6C997.26,-595.32 1029.82,-580.37 1050.72,-570.77"/>
<polygon fill="#63b8ff" stroke="#63b8ff" points="969.21,-604.35 961.59,-611.7 972.13,-610.71 969.21,-604.35"/>
</a>
</g>
</g>
<!-- Node5 -->
<g id="Node000005" class="node">
<title>Node5</title>
<g id="a_Node000005"><a xlink:href="pde__operator__base_8h.html" target="_top" xlink:title=" ">
<polygon fill="white" stroke="#666666" points="724.5,-507.25 603.5,-507.25 603.5,-473.75 724.5,-473.75 724.5,-507.25"/>
<text text-anchor="start" x="611.5" y="-493.75" font-family="Helvetica,sans-Serif" font-size="10.00">include/prismspf/core</text>
<text text-anchor="middle" x="664" y="-481" font-family="Helvetica,sans-Serif" font-size="10.00">/pde_operator_base.h</text>
</a>
</g>
</g>
<!-- Node4&#45;&gt;Node5 -->
<g id="edge4_Node000004_Node000005" class="edge">
<title>Node4&#45;&gt;Node5</title>
<g id="a_edge4_Node000004_Node000005"><a xlink:title=" ">
<path fill="none" stroke="#63b8ff" d="M817.58,-539.49C785.27,-529.4 746.29,-517.22 715.69,-507.65"/>
<polygon fill="#63b8ff" stroke="#63b8ff" points="816.23,-542.74 826.82,-542.38 818.32,-536.06 816.23,-542.74"/>
</a>
</g>
</g>
<!-- Node4&#45;&gt;Node6 -->
<g id="edge40_Node000004_Node000006" class="edge">
<title>Node4&#45;&gt;Node6</title>
<g id="a_edge40_Node000004_Node000006"><a xlink:title=" ">
<path fill="none" stroke="#63b8ff" d="M951.37,-540.39C970.1,-532.67 988.97,-521.97 1003,-507.25 1061.5,-445.89 1078.86,-339.46 1083.48,-299.13"/>
<polygon fill="#63b8ff" stroke="#63b8ff" points="950.19,-537.1 942.11,-543.95 952.7,-543.63 950.19,-537.1"/>
</a>
</g>
</g>
<!-- Node4&#45;&gt;Node13 -->
<g id="edge42_Node000004_Node000013" class="edge">
<title>Node4&#45;&gt;Node13</title>
<g id="a_edge42_Node000004_Node000013"><a xlink:title=" ">
<path fill="none" stroke="#63b8ff" d="M933.78,-537.61C947.37,-529.88 960.72,-519.87 970,-507.25 993,-475.98 989,-460.82 989,-422 989,-422 989,-422 989,-350.5 989,-301.32 1010.97,-245.36 1020.59,-223.24"/>
<polygon fill="#63b8ff" stroke="#63b8ff" points="932.44,-534.36 925.24,-542.13 935.71,-540.55 932.44,-534.36"/>
</a>
</g>
</g>
<!-- Node25 -->
<g id="Node000025" class="node">
<title>Node25</title>
<g id="a_Node000025"><a xlink:href="field__container_8cc.html" target="_top" xlink:title=" ">
<polygon fill="white" stroke="#666666" points="961,-500.88 819,-500.88 819,-480.12 961,-480.12 961,-500.88"/>
<text text-anchor="middle" x="890" y="-487.38" font-family="Helvetica,sans-Serif" font-size="10.00">src/core/field_container.cc</text>
</a>
</g>
</g>
<!-- Node4&#45;&gt;Node25 -->
<g id="edge41_Node000004_Node000025" class="edge">
<title>Node4&#45;&gt;Node25</title>
<g id="a_edge41_Node000004_Node000025"><a xlink:title=" ">
<path fill="none" stroke="#63b8ff" d="M884.02,-531.88C885.62,-521.08 887.36,-509.35 888.54,-501.32"/>
<polygon fill="#63b8ff" stroke="#63b8ff" points="880.6,-531.1 882.59,-541.51 887.52,-532.13 880.6,-531.1"/>
</a>
</g>
</g>
<!-- Node5&#45;&gt;Node6 -->
<g id="edge5_Node000005_Node000006" class="edge">
<title>Node5&#45;&gt;Node6</title>
<g id="a_edge5_Node000005_Node000006"><a xlink:title=" ">
<path fill="none" stroke="#63b8ff" d="M735.77,-476.08C772.71,-467.72 817.87,-455.18 856,-437.75 940.66,-399.05 1028.52,-330.13 1066.11,-299.02"/>
<polygon fill="#63b8ff" stroke="#63b8ff" points="735.08,-472.65 726.07,-478.22 736.59,-479.49 735.08,-472.65"/>
</a>
</g>
</g>
<!-- Node5&#45;&gt;Node14 -->
<g id="edge16_Node000005_Node000014" class="edge">
<title>Node5&#45;&gt;Node14</title>
<g id="a_edge16_Node000005_Node000014"><a xlink:title=" ">
<path fill="none" stroke="#63b8ff" d="M592.22,-470.94C552.6,-460.69 503.87,-448.09 465.78,-438.24"/>
<polygon fill="#63b8ff" stroke="#63b8ff" points="591.11,-474.27 601.67,-473.38 592.87,-467.49 591.11,-474.27"/>
</a>
</g>
</g>
<!-- Node5&#45;&gt;Node20 -->
<g id="edge37_Node000005_Node000020" class="edge">
<title>Node5&#45;&gt;Node20</title>
<g id="a_edge37_Node000005_Node000020"><a xlink:title=" ">
<path fill="none" stroke="#63b8ff" d="M592.95,-469.37C578.32,-461.85 564.73,-451.62 556,-437.75 548.07,-425.15 549.97,-417.86 556,-404.25 562.44,-389.71 575.21,-377.5 587.03,-368.6"/>
<polygon fill="#63b8ff" stroke="#63b8ff" points="591.29,-472.46 601.83,-473.52 594.25,-466.12 591.29,-472.46"/>
</a>
</g>
</g>
<!-- Node23 -->
<g id="Node000023" class="node">
<title>Node23</title>
<g id="a_Node000023"><a xlink:href="dirichlet_8cc.html" target="_top" xlink:title=" ">
<polygon fill="white" stroke="#666666" points="675.25,-431.38 564.75,-431.38 564.75,-410.62 675.25,-410.62 675.25,-431.38"/>
<text text-anchor="middle" x="620" y="-417.88" font-family="Helvetica,sans-Serif" font-size="10.00">src/core/dirichlet.cc</text>
</a>
</g>
</g>
<!-- Node5&#45;&gt;Node23 -->
<g id="edge38_Node000005_Node000023" class="edge">
<title>Node5&#45;&gt;Node23</title>
<g id="a_edge38_Node000005_Node000023"><a xlink:title=" ">
<path fill="none" stroke="#63b8ff" d="M647.44,-464.09C640.1,-452.84 631.91,-440.27 626.4,-431.82"/>
<polygon fill="#63b8ff" stroke="#63b8ff" points="644.35,-465.77 652.75,-472.24 650.22,-461.95 644.35,-465.77"/>
</a>
</g>
</g>
<!-- Node24 -->
<g id="Node000024" class="node">
<title>Node24</title>
<g id="a_Node000024"><a xlink:href="initial__conditions_8cc.html" target="_top" xlink:title=" ">
<polygon fill="white" stroke="#666666" points="847,-431.38 693,-431.38 693,-410.62 847,-410.62 847,-431.38"/>
<text text-anchor="middle" x="770" y="-417.88" font-family="Helvetica,sans-Serif" font-size="10.00">src/core/initial_conditions.cc</text>
</a>
</g>
</g>
<!-- Node5&#45;&gt;Node24 -->
<g id="edge39_Node000005_Node000024" class="edge">
<title>Node5&#45;&gt;Node24</title>
<g id="a_edge39_Node000005_Node000024"><a xlink:title=" ">
<path fill="none" stroke="#63b8ff" d="M698.88,-467.29C717.76,-455.27 740.12,-441.03 754.66,-431.77"/>
<polygon fill="#63b8ff" stroke="#63b8ff" points="697.22,-464.2 690.67,-472.52 700.98,-470.1 697.22,-464.2"/>
</a>
</g>
</g>
<!-- Node6&#45;&gt;Node7 -->
<g id="edge6_Node000006_Node000007" class="edge">
<title>Node6&#45;&gt;Node7</title>
<g id="a_edge6_Node000006_Node000007"><a xlink:title=" ">
<path fill="none" stroke="#63b8ff" d="M1022,-261.49C989.39,-251.4 950.05,-239.22 919.17,-229.65"/>
<polygon fill="#63b8ff" stroke="#63b8ff" points="1020.75,-264.77 1031.34,-264.38 1022.82,-258.08 1020.75,-264.77"/>
</a>
</g>
</g>
<!-- Node6&#45;&gt;Node11 -->
<g id="edge10_Node000006_Node000011" class="edge">
<title>Node6&#45;&gt;Node11</title>
<g id="a_edge10_Node000006_Node000011"><a xlink:title=" ">
<path fill="none" stroke="#63b8ff" d="M1137.33,-260.7C1162.94,-250.76 1193.35,-238.97 1217.36,-229.65"/>
<polygon fill="#63b8ff" stroke="#63b8ff" points="1136.15,-257.4 1128.09,-264.28 1138.68,-263.93 1136.15,-257.4"/>
</a>
</g>
</g>
<!-- Node6&#45;&gt;Node12 -->
<g id="edge14_Node000006_Node000012" class="edge">
<title>Node6&#45;&gt;Node12</title>
<g id="a_edge14_Node000006_Node000012"><a xlink:title=" ">
<path fill="none" stroke="#63b8ff" d="M1096.79,-254.37C1100.06,-246.39 1103.41,-237.55 1106,-229.25 1113.36,-205.65 1119.05,-177.55 1122.21,-160.24"/>
<polygon fill="#63b8ff" stroke="#63b8ff" points="1093.58,-252.97 1092.91,-263.54 1100.03,-255.7 1093.58,-252.97"/>
</a>
</g>
</g>
<!-- Node6&#45;&gt;Node13 -->
<g id="edge15_Node000006_Node000013" class="edge">
<title>Node6&#45;&gt;Node13</title>
<g id="a_edge15_Node000006_Node000013"><a xlink:title=" ">
<path fill="none" stroke="#63b8ff" d="M1063.32,-256.61C1053.1,-245.11 1041.47,-232.03 1033.73,-223.32"/>
<polygon fill="#63b8ff" stroke="#63b8ff" points="1060.52,-258.72 1069.78,-263.87 1065.75,-254.07 1060.52,-258.72"/>
</a>
</g>
</g>
<!-- Node8 -->
<g id="Node000008" class="node">
<title>Node8</title>
<g id="a_Node000008"><a xlink:href="solvers_8h.html" target="_top" xlink:title=" ">
<polygon fill="white" stroke="#666666" points="934.62,-90.25 799.38,-90.25 799.38,-56.75 934.62,-56.75 934.62,-90.25"/>
<text text-anchor="start" x="807.38" y="-76.75" font-family="Helvetica,sans-Serif" font-size="10.00">include/prismspf/solvers</text>
<text text-anchor="middle" x="867" y="-64" font-family="Helvetica,sans-Serif" font-size="10.00">/solvers.h</text>
</a>
</g>
</g>
<!-- Node7&#45;&gt;Node8 -->
<g id="edge7_Node000007_Node000008" class="edge">
<title>Node7&#45;&gt;Node8</title>
<g id="a_edge7_Node000007_Node000008"><a xlink:title=" ">
<path fill="none" stroke="#63b8ff" d="M867,-184.12C867,-156.04 867,-113.32 867,-90.38"/>
<polygon fill="#63b8ff" stroke="#63b8ff" points="863.5,-184 867,-194 870.5,-184 863.5,-184"/>
</a>
</g>
</g>
<!-- Node8&#45;&gt;Node9 -->
<g id="edge8_Node000008_Node000009" class="edge">
<title>Node8&#45;&gt;Node9</title>
<g id="a_edge8_Node000008_Node000009"><a xlink:title=" ">
<path fill="none" stroke="#63b8ff" d="M787.83,-62.38C691.01,-49.99 529.57,-29.35 444.83,-18.51"/>
<polygon fill="#63b8ff" stroke="#63b8ff" points="787.16,-65.82 797.52,-63.62 788.05,-58.87 787.16,-65.82"/>
</a>
</g>
</g>
<!-- Node10 -->
<g id="Node000010" class="node">
<title>Node10</title>
<g id="a_Node000010"><a xlink:href="solvers_8cc.html" target="_top" xlink:title=" ">
<polygon fill="white" stroke="#666666" points="927.12,-20.75 806.88,-20.75 806.88,0 927.12,0 927.12,-20.75"/>
<text text-anchor="middle" x="867" y="-7.25" font-family="Helvetica,sans-Serif" font-size="10.00">src/solvers/solvers.cc</text>
</a>
</g>
</g>
<!-- Node8&#45;&gt;Node10 -->
<g id="edge9_Node000008_Node000010" class="edge">
<title>Node8&#45;&gt;Node10</title>
<g id="a_edge9_Node000008_Node000010"><a xlink:title=" ">
<path fill="none" stroke="#63b8ff" d="M867,-44.94C867,-36.46 867,-27.67 867,-21.22"/>
<polygon fill="#63b8ff" stroke="#63b8ff" points="863.5,-44.93 867,-54.93 870.5,-44.93 863.5,-44.93"/>
</a>
</g>
</g>
<!-- Node11&#45;&gt;Node8 -->
<g id="edge13_Node000011_Node000008" class="edge">
<title>Node11&#45;&gt;Node8</title>
<g id="a_edge13_Node000011_Node000008"><a xlink:title=" ">
<path fill="none" stroke="#63b8ff" d="M1248.32,-184.92C1239.05,-165.44 1223.69,-140.07 1202,-126.25 1158.82,-98.74 1019.58,-84.72 934.8,-78.56"/>
<polygon fill="#63b8ff" stroke="#63b8ff" points="1245.07,-186.22 1252.34,-193.92 1251.46,-183.36 1245.07,-186.22"/>
</a>
</g>
</g>
<!-- Node11&#45;&gt;Node12 -->
<g id="edge11_Node000011_Node000012" class="edge">
<title>Node11&#45;&gt;Node12</title>
<g id="a_edge11_Node000011_Node000012"><a xlink:title=" ">
<path fill="none" stroke="#63b8ff" d="M1216.8,-190.24C1197.4,-180.47 1174.77,-169.07 1156.83,-160.04"/>
<polygon fill="#63b8ff" stroke="#63b8ff" points="1215.05,-193.28 1225.55,-194.65 1218.2,-187.03 1215.05,-193.28"/>
</a>
</g>
</g>
<!-- Node12&#45;&gt;Node8 -->
<g id="edge12_Node000012_Node000008" class="edge">
<title>Node12&#45;&gt;Node8</title>
<g id="a_edge12_Node000012_Node000008"><a xlink:title=" ">
<path fill="none" stroke="#63b8ff" d="M1052.2,-122.95C1013.27,-112.77 965.85,-100.36 928.74,-90.65"/>
<polygon fill="#63b8ff" stroke="#63b8ff" points="1051.18,-126.3 1061.74,-125.45 1052.95,-119.53 1051.18,-126.3"/>
</a>
</g>
</g>
<!-- Node15 -->
<g id="Node000015" class="node">
<title>Node15</title>
<g id="a_Node000015"><a xlink:href="problem_8h.html" target="_top" xlink:title=" ">
<polygon fill="white" stroke="#666666" points="449.5,-229.25 328.5,-229.25 328.5,-195.75 449.5,-195.75 449.5,-229.25"/>
<text text-anchor="start" x="336.5" y="-215.75" font-family="Helvetica,sans-Serif" font-size="10.00">include/prismspf/core</text>
<text text-anchor="middle" x="389" y="-203" font-family="Helvetica,sans-Serif" font-size="10.00">/problem.h</text>
</a>
</g>
</g>
<!-- Node14&#45;&gt;Node15 -->
<g id="edge17_Node000014_Node000015" class="edge">
<title>Node14&#45;&gt;Node15</title>
<g id="a_edge17_Node000014_Node000015"><a xlink:title=" ">
<path fill="none" stroke="#63b8ff" d="M401.12,-392.34C398.16,-348.59 392.48,-264.77 390.09,-229.63"/>
<polygon fill="#63b8ff" stroke="#63b8ff" points="397.63,-392.55 401.8,-402.29 404.61,-392.07 397.63,-392.55"/>
</a>
</g>
</g>
<!-- Node14&#45;&gt;Node16 -->
<g id="edge19_Node000014_Node000016" class="edge">
<title>Node14&#45;&gt;Node16</title>
<g id="a_edge19_Node000014_Node000016"><a xlink:title=" ">
<path fill="none" stroke="#63b8ff" d="M417.92,-394.12C434.09,-366.08 459.38,-322.23 472.84,-298.88"/>
<polygon fill="#63b8ff" stroke="#63b8ff" points="414.94,-392.29 412.97,-402.71 421,-395.79 414.94,-392.29"/>
</a>
</g>
</g>
<!-- Node14&#45;&gt;Node17 -->
<g id="edge21_Node000014_Node000017" class="edge">
<title>Node14&#45;&gt;Node17</title>
<g id="a_edge21_Node000014_Node000017"><a xlink:title=" ">
<path fill="none" stroke="#63b8ff" d="M324,-403.02C270.05,-391.42 199.62,-376.28 149.98,-365.61"/>
<polygon fill="#63b8ff" stroke="#63b8ff" points="323.26,-406.44 333.77,-405.12 324.73,-399.59 323.26,-406.44"/>
</a>
</g>
</g>
<!-- Node19 -->
<g id="Node000019" class="node">
<title>Node19</title>
<g id="a_Node000019"><a xlink:href="nucleation__manager_8h.html" target="_top" xlink:title=" ">
<polygon fill="white" stroke="#666666" points="336.5,-368.25 185.5,-368.25 185.5,-334.75 336.5,-334.75 336.5,-368.25"/>
<text text-anchor="start" x="193.5" y="-354.75" font-family="Helvetica,sans-Serif" font-size="10.00">include/prismspf/nucleation</text>
<text text-anchor="middle" x="261" y="-342" font-family="Helvetica,sans-Serif" font-size="10.00">/nucleation_manager.h</text>
</a>
</g>
</g>
<!-- Node14&#45;&gt;Node19 -->
<g id="edge25_Node000014_Node000019" class="edge">
<title>Node14&#45;&gt;Node19</title>
<g id="a_edge25_Node000014_Node000019"><a xlink:title=" ">
<path fill="none" stroke="#63b8ff" d="M358.85,-399.01C338.17,-389.18 313.92,-377.66 294.74,-368.54"/>
<polygon fill="#63b8ff" stroke="#63b8ff" points="357.09,-402.05 367.62,-403.18 360.09,-395.73 357.09,-402.05"/>
</a>
</g>
</g>
<!-- Node14&#45;&gt;Node20 -->
<g id="edge27_Node000014_Node000020" class="edge">
<title>Node14&#45;&gt;Node20</title>
<g id="a_edge27_Node000014_Node000020"><a xlink:title=" ">
<path fill="none" stroke="#63b8ff" d="M464.09,-400.36C495.43,-390.29 533.12,-378.17 562.75,-368.65"/>
<polygon fill="#63b8ff" stroke="#63b8ff" points="463.19,-396.98 454.74,-403.37 465.33,-403.64 463.19,-396.98"/>
</a>
</g>
</g>
<!-- Node15&#45;&gt;Node9 -->
<g id="edge18_Node000015_Node000009" class="edge">
<title>Node15&#45;&gt;Node9</title>
<g id="a_edge18_Node000015_Node000009"><a xlink:title=" ">
<path fill="none" stroke="#63b8ff" d="M389,-184.16C389,-138.82 389,-50.17 389,-20.96"/>
<polygon fill="#63b8ff" stroke="#63b8ff" points="385.5,-183.95 389,-193.95 392.5,-183.95 385.5,-183.95"/>
</a>
</g>
</g>
<!-- Node16&#45;&gt;Node15 -->
<g id="edge20_Node000016_Node000015" class="edge">
<title>Node16&#45;&gt;Node15</title>
<g id="a_edge20_Node000016_Node000015"><a xlink:title=" ">
<path fill="none" stroke="#63b8ff" d="M450.88,-258.41C437.88,-248.98 423.07,-238.23 411.2,-229.62"/>
<polygon fill="#63b8ff" stroke="#63b8ff" points="448.59,-261.07 458.74,-264.11 452.7,-255.41 448.59,-261.07"/>
</a>
</g>
</g>
<!-- Node17&#45;&gt;Node9 -->
<g id="edge23_Node000017_Node000009" class="edge">
<title>Node17&#45;&gt;Node9</title>
<g id="a_edge23_Node000017_Node000009"><a xlink:title=" ">
<path fill="none" stroke="#63b8ff" d="M89,-322.98C89,-295.32 89,-251.45 89,-213.5 89,-213.5 89,-213.5 89,-142 89,-36.77 246.09,-15.43 332.92,-11.68"/>
<polygon fill="#63b8ff" stroke="#63b8ff" points="85.5,-322.96 89,-332.96 92.5,-322.96 85.5,-322.96"/>
</a>
</g>
</g>
<!-- Node17&#45;&gt;Node17 -->
<g id="edge22_Node000017_Node000017" class="edge">
<title>Node17&#45;&gt;Node17</title>
<g id="a_edge22_Node000017_Node000017"><a xlink:title=" ">
<path fill="none" stroke="#63b8ff" d="M160.72,-360.45C164.96,-358.31 167.5,-355.33 167.5,-351.5 167.5,-345.05 160.29,-341 149.89,-339.33"/>
<polygon fill="#63b8ff" stroke="#63b8ff" points="159.93,-357.04 151.34,-363.23 161.92,-363.75 159.93,-357.04"/>
</a>
</g>
</g>
<!-- Node18 -->
<g id="Node000018" class="node">
<title>Node18</title>
<g id="a_Node000018"><a xlink:href="solution__output_8cc.html" target="_top" xlink:title=" ">
<polygon fill="white" stroke="#666666" points="263.25,-292.38 116.75,-292.38 116.75,-271.62 263.25,-271.62 263.25,-292.38"/>
<text text-anchor="middle" x="190" y="-278.88" font-family="Helvetica,sans-Serif" font-size="10.00">src/core/solution_output.cc</text>
</a>
</g>
</g>
<!-- Node17&#45;&gt;Node18 -->
<g id="edge24_Node000017_Node000018" class="edge">
<title>Node17&#45;&gt;Node18</title>
<g id="a_edge24_Node000017_Node000018"><a xlink:title=" ">
<path fill="none" stroke="#63b8ff" d="M122.73,-327.96C140.61,-316.01 161.65,-301.94 175.38,-292.77"/>
<polygon fill="#63b8ff" stroke="#63b8ff" points="120.82,-325.02 114.45,-333.49 124.71,-330.84 120.82,-325.02"/>
</a>
</g>
</g>
<!-- Node19&#45;&gt;Node15 -->
<g id="edge26_Node000019_Node000015" class="edge">
<title>Node19&#45;&gt;Node15</title>
<g id="a_edge26_Node000019_Node000015"><a xlink:title=" ">
<path fill="none" stroke="#63b8ff" d="M283.47,-326.45C309.56,-298.52 351.87,-253.24 374.16,-229.38"/>
<polygon fill="#63b8ff" stroke="#63b8ff" points="281.24,-323.71 276.97,-333.41 286.35,-328.49 281.24,-323.71"/>
</a>
</g>
</g>
<!-- Node20&#45;&gt;Node6 -->
<g id="edge33_Node000020_Node000006" class="edge">
<title>Node20&#45;&gt;Node6</title>
<g id="a_edge33_Node000020_Node000006"><a xlink:title=" ">
<path fill="none" stroke="#63b8ff" d="M692.24,-339.17C783.31,-326.14 931.24,-304.99 1017.2,-292.7"/>
<polygon fill="#63b8ff" stroke="#63b8ff" points="691.78,-335.7 682.38,-340.58 692.77,-342.63 691.78,-335.7"/>
</a>
</g>
</g>
<!-- Node20&#45;&gt;Node7 -->
<g id="edge31_Node000020_Node000007" class="edge">
<title>Node20&#45;&gt;Node7</title>
<g id="a_edge31_Node000020_Node000007"><a xlink:title=" ">
<path fill="none" stroke="#63b8ff" d="M691.92,-335.77C722.47,-327.82 756.8,-315.98 785,-298.75 814.79,-280.55 841.17,-248.93 855.54,-229.74"/>
<polygon fill="#63b8ff" stroke="#63b8ff" points="691.18,-332.35 682.32,-338.16 692.87,-339.14 691.18,-332.35"/>
</a>
</g>
</g>
<!-- Node20&#45;&gt;Node9 -->
<g id="edge35_Node000020_Node000009" class="edge">
<title>Node20&#45;&gt;Node9</title>
<g id="a_edge35_Node000020_Node000009"><a xlink:title=" ">
<path fill="none" stroke="#63b8ff" d="M601,-323.88C589.87,-296.7 575,-253.02 575,-213.5 575,-213.5 575,-213.5 575,-142 575,-72.35 486.59,-36.65 431.67,-21.19"/>
<polygon fill="#63b8ff" stroke="#63b8ff" points="597.77,-325.22 604.9,-333.06 604.21,-322.49 597.77,-325.22"/>
</a>
</g>
</g>
<!-- Node20&#45;&gt;Node11 -->
<g id="edge32_Node000020_Node000011" class="edge">
<title>Node20&#45;&gt;Node11</title>
<g id="a_edge32_Node000020_Node000011"><a xlink:title=" ">
<path fill="none" stroke="#63b8ff" d="M692.04,-333.22C771.75,-315.84 898.35,-288.39 1008,-265.25 1069.93,-252.18 1140.53,-237.66 1191.05,-227.33"/>
<polygon fill="#63b8ff" stroke="#63b8ff" points="691.61,-329.73 682.59,-335.28 693.11,-336.57 691.61,-329.73"/>
</a>
</g>
</g>
<!-- Node20&#45;&gt;Node12 -->
<g id="edge34_Node000020_Node000012" class="edge">
<title>Node20&#45;&gt;Node12</title>
<g id="a_edge34_Node000020_Node000012"><a xlink:title=" ">
<path fill="none" stroke="#63b8ff" d="M692.03,-334.1C713.69,-326.39 735.67,-315.13 752,-298.75 786.45,-264.2 752.22,-226.63 790,-195.75 829.81,-163.21 971.37,-150.98 1057.22,-146.49"/>
<polygon fill="#63b8ff" stroke="#63b8ff" points="690.94,-330.77 682.54,-337.23 693.14,-337.42 690.94,-330.77"/>
</a>
</g>
</g>
<!-- Node20&#45;&gt;Node16 -->
<g id="edge28_Node000020_Node000016" class="edge">
<title>Node20&#45;&gt;Node16</title>
<g id="a_edge28_Node000020_Node000016"><a xlink:title=" ">
<path fill="none" stroke="#63b8ff" d="M571.49,-329.11C552.58,-319.37 530.58,-308.03 513.12,-299.04"/>
<polygon fill="#63b8ff" stroke="#63b8ff" points="569.78,-332.17 580.28,-333.64 572.99,-325.95 569.78,-332.17"/>
</a>
</g>
</g>
<!-- Node21 -->
<g id="Node000021" class="node">
<title>Node21</title>
<g id="a_Node000021"><a xlink:href="constant__solver_8h.html" target="_top" xlink:title=" ">
<polygon fill="white" stroke="#666666" points="788.62,-159.75 653.38,-159.75 653.38,-126.25 788.62,-126.25 788.62,-159.75"/>
<text text-anchor="start" x="661.38" y="-146.25" font-family="Helvetica,sans-Serif" font-size="10.00">include/prismspf/solvers</text>
<text text-anchor="middle" x="721" y="-133.5" font-family="Helvetica,sans-Serif" font-size="10.00">/constant_solver.h</text>
</a>
</g>
</g>
<!-- Node20&#45;&gt;Node21 -->
<g id="edge29_Node000020_Node000021" class="edge">
<title>Node20&#45;&gt;Node21</title>
<g id="a_edge29_Node000020_Node000021"><a xlink:title=" ">
<path fill="none" stroke="#63b8ff" d="M616.14,-323.25C618.83,-306.05 623.64,-283.67 632,-265.25 650.89,-223.64 685.55,-182.26 705.58,-160.24"/>
<polygon fill="#63b8ff" stroke="#63b8ff" points="612.7,-322.59 614.78,-332.98 619.63,-323.56 612.7,-322.59"/>
</a>
</g>
</g>
<!-- Node22 -->
<g id="Node000022" class="node">
<title>Node22</title>
<g id="a_Node000022"><a xlink:href="solver__base_8cc.html" target="_top" xlink:title=" ">
<polygon fill="white" stroke="#666666" points="742.75,-298.75 641.25,-298.75 641.25,-265.25 742.75,-265.25 742.75,-298.75"/>
<text text-anchor="start" x="649.25" y="-285.25" font-family="Helvetica,sans-Serif" font-size="10.00">src/solvers/solver</text>
<text text-anchor="middle" x="692" y="-272.5" font-family="Helvetica,sans-Serif" font-size="10.00">_base.cc</text>
</a>
</g>
</g>
<!-- Node20&#45;&gt;Node22 -->
<g id="edge36_Node000020_Node000022" class="edge">
<title>Node20&#45;&gt;Node22</title>
<g id="a_edge36_Node000020_Node000022"><a xlink:title=" ">
<path fill="none" stroke="#63b8ff" d="M640.4,-327.09C651.21,-317.85 663.35,-307.48 673.14,-299.12"/>
<polygon fill="#63b8ff" stroke="#63b8ff" points="638.2,-324.36 632.87,-333.52 642.75,-329.69 638.2,-324.36"/>
</a>
</g>
</g>
<!-- Node21&#45;&gt;Node8 -->
<g id="edge30_Node000021_Node000008" class="edge">
<title>Node21&#45;&gt;Node8</title>
<g id="a_edge30_Node000021_Node000008"><a xlink:title=" ">
<path fill="none" stroke="#63b8ff" d="M766.35,-121.03C787.54,-111.24 812.37,-99.76 832.06,-90.65"/>
<polygon fill="#63b8ff" stroke="#63b8ff" points="764.95,-117.82 757.34,-125.2 767.89,-124.18 764.95,-117.82"/>
</a>
</g>
</g>
</g>
</svg>
