<?xml version="1.0" encoding="UTF-8" standalone="no"?>
<!DOCTYPE svg PUBLIC "-//W3C//DTD SVG 1.1//EN"
 "http://www.w3.org/Graphics/SVG/1.1/DTD/svg11.dtd">
<!-- Generated by graphviz version 12.2.1 (20241206.2353)
 -->
<!-- Title: include/prismspf/core/timer.h Pages: 1 -->
<svg width="822pt" height="307pt"
 viewBox="0.00 0.00 821.75 306.75" xmlns="http://www.w3.org/2000/svg" xmlns:xlink="http://www.w3.org/1999/xlink">
<g id="graph0" class="graph" transform="scale(1 1) rotate(0) translate(4 302.75)">
<title>include/prismspf/core/timer.h</title>
<!-- Node1 -->
<g id="Node000001" class="node">
<title>Node1</title>
<g id="a_Node000001"><a xlink:title=" ">
<polygon fill="#999999" stroke="#666666" points="429.12,-298.75 308.12,-298.75 308.12,-265.25 429.12,-265.25 429.12,-298.75"/>
<text text-anchor="start" x="316.12" y="-285.25" font-family="Helvetica,sans-Serif" font-size="10.00">include/prismspf/core</text>
<text text-anchor="middle" x="368.62" y="-272.5" font-family="Helvetica,sans-Serif" font-size="10.00">/timer.h</text>
</a>
</g>
</g>
<!-- Node2 -->
<g id="Node000002" class="node">
<title>Node2</title>
<g id="a_Node000002"><a xlink:href="refinement__manager_8h.html" target="_top" xlink:title=" ">
<polygon fill="white" stroke="#666666" points="129.25,-229.25 0,-229.25 0,-195.75 129.25,-195.75 129.25,-229.25"/>
<text text-anchor="start" x="8" y="-215.75" font-family="Helvetica,sans-Serif" font-size="10.00">include/prismspf/core</text>
<text text-anchor="middle" x="64.62" y="-203" font-family="Helvetica,sans-Serif" font-size="10.00">/refinement_manager.h</text>
</a>
</g>
</g>
<!-- Node1&#45;&gt;Node2 -->
<g id="edge1_Node000001_Node000002" class="edge">
<title>Node1&#45;&gt;Node2</title>
<g id="a_edge1_Node000001_Node000002"><a xlink:title=" ">
<path fill="none" stroke="#63b8ff" d="M296.63,-265.01C245.91,-253.75 178.57,-238.8 129.51,-227.91"/>
<polygon fill="#63b8ff" stroke="#63b8ff" points="295.84,-268.42 306.36,-267.17 297.36,-261.59 295.84,-268.42"/>
</a>
</g>
</g>
<!-- Node4 -->
<g id="Node000004" class="node">
<title>Node4</title>
<g id="a_Node000004"><a xlink:href="problem_8cc.html" target="_top" xlink:title=" ">
<polygon fill="white" stroke="#666666" points="213.25,-20.75 102,-20.75 102,0 213.25,0 213.25,-20.75"/>
<text text-anchor="middle" x="157.62" y="-7.25" font-family="Helvetica,sans-Serif" font-size="10.00">src/core/problem.cc</text>
</a>
</g>
</g>
<!-- Node1&#45;&gt;Node4 -->
<g id="edge16_Node000001_Node000004" class="edge">
<title>Node1&#45;&gt;Node4</title>
<g id="a_edge16_Node000001_Node000004"><a xlink:title=" ">
<path fill="none" stroke="#63b8ff" d="M296.89,-272.01C265.67,-264.88 230.6,-252.12 205.62,-229.25 143.64,-172.49 152.25,-55.41 156.31,-21.05"/>
<polygon fill="#63b8ff" stroke="#63b8ff" points="295.76,-275.35 306.27,-273.99 297.21,-268.5 295.76,-275.35"/>
</a>
</g>
</g>
<!-- Node5 -->
<g id="Node000005" class="node">
<title>Node5</title>
<g id="a_Node000005"><a xlink:href="explicit__solver_8h.html" target="_top" xlink:title=" ">
<polygon fill="white" stroke="#666666" points="321.25,-159.75 186,-159.75 186,-126.25 321.25,-126.25 321.25,-159.75"/>
<text text-anchor="start" x="194" y="-146.25" font-family="Helvetica,sans-Serif" font-size="10.00">include/prismspf/solvers</text>
<text text-anchor="middle" x="253.62" y="-133.5" font-family="Helvetica,sans-Serif" font-size="10.00">/explicit_solver.h</text>
</a>
</g>
</g>
<!-- Node1&#45;&gt;Node5 -->
<g id="edge4_Node000001_Node000005" class="edge">
<title>Node1&#45;&gt;Node5</title>
<g id="a_edge4_Node000001_Node000005"><a xlink:title=" ">
<path fill="none" stroke="#63b8ff" d="M296.82,-274.87C266.64,-268.33 234.26,-255.22 215.62,-229.25 199.95,-207.39 220.58,-178.04 237.02,-160.1"/>
<polygon fill="#63b8ff" stroke="#63b8ff" points="295.85,-278.25 306.33,-276.71 297.18,-271.37 295.85,-278.25"/>
</a>
</g>
</g>
<!-- Node8 -->
<g id="Node000008" class="node">
<title>Node8</title>
<g id="a_Node000008"><a xlink:href="linear__helper_8h.html" target="_top" xlink:title=" ">
<polygon fill="white" stroke="#666666" points="360.25,-229.25 225,-229.25 225,-195.75 360.25,-195.75 360.25,-229.25"/>
<text text-anchor="start" x="233" y="-215.75" font-family="Helvetica,sans-Serif" font-size="10.00">include/prismspf/solvers</text>
<text text-anchor="middle" x="292.62" y="-203" font-family="Helvetica,sans-Serif" font-size="10.00">/linear_helper.h</text>
</a>
</g>
</g>
<!-- Node1&#45;&gt;Node8 -->
<g id="edge8_Node000001_Node000008" class="edge">
<title>Node1&#45;&gt;Node8</title>
<g id="a_edge8_Node000001_Node000008"><a xlink:title=" ">
<path fill="none" stroke="#63b8ff" d="M342.26,-257.59C331.87,-248.35 320.19,-237.98 310.77,-229.62"/>
<polygon fill="#63b8ff" stroke="#63b8ff" points="339.68,-259.97 349.48,-264 344.33,-254.74 339.68,-259.97"/>
</a>
</g>
</g>
<!-- Node9 -->
<g id="Node000009" class="node">
<title>Node9</title>
<g id="a_Node000009"><a xlink:href="linear__solver_8h.html" target="_top" xlink:title=" ">
<polygon fill="white" stroke="#666666" points="513.25,-229.25 378,-229.25 378,-195.75 513.25,-195.75 513.25,-229.25"/>
<text text-anchor="start" x="386" y="-215.75" font-family="Helvetica,sans-Serif" font-size="10.00">include/prismspf/solvers</text>
<text text-anchor="middle" x="445.62" y="-203" font-family="Helvetica,sans-Serif" font-size="10.00">/linear_solver.h</text>
</a>
</g>
</g>
<!-- Node1&#45;&gt;Node9 -->
<g id="edge9_Node000001_Node000009" class="edge">
<title>Node1&#45;&gt;Node9</title>
<g id="a_edge9_Node000001_Node000009"><a xlink:title=" ">
<path fill="none" stroke="#63b8ff" d="M395.33,-257.59C405.87,-248.35 417.7,-237.98 427.24,-229.62"/>
<polygon fill="#63b8ff" stroke="#63b8ff" points="393.22,-254.78 388.01,-264.01 397.84,-260.05 393.22,-254.78"/>
</a>
</g>
</g>
<!-- Node10 -->
<g id="Node000010" class="node">
<title>Node10</title>
<g id="a_Node000010"><a xlink:href="mg__solver_8h.html" target="_top" xlink:title=" ">
<polygon fill="white" stroke="#666666" points="666.25,-159.75 531,-159.75 531,-126.25 666.25,-126.25 666.25,-159.75"/>
<text text-anchor="start" x="539" y="-146.25" font-family="Helvetica,sans-Serif" font-size="10.00">include/prismspf/solvers</text>
<text text-anchor="middle" x="598.62" y="-133.5" font-family="Helvetica,sans-Serif" font-size="10.00">/mg_solver.h</text>
</a>
</g>
</g>
<!-- Node1&#45;&gt;Node10 -->
<g id="edge14_Node000001_Node000010" class="edge">
<title>Node1&#45;&gt;Node10</title>
<g id="a_edge14_Node000001_Node000010"><a xlink:title=" ">
<path fill="none" stroke="#63b8ff" d="M440.34,-265.26C467.54,-257.21 497.9,-245.57 522.62,-229.25 550.76,-210.68 575.04,-179.18 588.18,-160.11"/>
<polygon fill="#63b8ff" stroke="#63b8ff" points="439.42,-261.88 430.75,-267.98 441.32,-268.62 439.42,-261.88"/>
</a>
</g>
</g>
<!-- Node12 -->
<g id="Node000012" class="node">
<title>Node12</title>
<g id="a_Node000012"><a xlink:href="group__solution__handler_8cc.html" target="_top" xlink:title=" ">
<polygon fill="white" stroke="#666666" points="699.25,-229.25 570,-229.25 570,-195.75 699.25,-195.75 699.25,-229.25"/>
<text text-anchor="start" x="578" y="-215.75" font-family="Helvetica,sans-Serif" font-size="10.00">src/core/group_solution</text>
<text text-anchor="middle" x="634.62" y="-203" font-family="Helvetica,sans-Serif" font-size="10.00">_handler.cc</text>
</a>
</g>
</g>
<!-- Node1&#45;&gt;Node12 -->
<g id="edge15_Node000001_Node000012" class="edge">
<title>Node1&#45;&gt;Node12</title>
<g id="a_edge15_Node000001_Node000012"><a xlink:title=" ">
<path fill="none" stroke="#63b8ff" d="M440.26,-262.82C481.01,-252.48 531.6,-239.64 570.95,-229.66"/>
<polygon fill="#63b8ff" stroke="#63b8ff" points="439.62,-259.37 430.78,-265.23 441.34,-266.16 439.62,-259.37"/>
</a>
</g>
</g>
<!-- Node13 -->
<g id="Node000013" class="node">
<title>Node13</title>
<g id="a_Node000013"><a xlink:href="timer_8cc.html" target="_top" xlink:title=" ">
<polygon fill="white" stroke="#666666" points="813.75,-222.88 717.5,-222.88 717.5,-202.12 813.75,-202.12 813.75,-222.88"/>
<text text-anchor="middle" x="765.62" y="-209.38" font-family="Helvetica,sans-Serif" font-size="10.00">src/core/timer.cc</text>
</a>
</g>
</g>
<!-- Node1&#45;&gt;Node13 -->
<g id="edge17_Node000001_Node000013" class="edge">
<title>Node1&#45;&gt;Node13</title>
<g id="a_edge17_Node000001_Node000013"><a xlink:title=" ">
<path fill="none" stroke="#63b8ff" d="M440.7,-272.55C509.83,-263.85 616.94,-248.82 708.62,-229.25 716.46,-227.58 724.81,-225.46 732.63,-223.33"/>
<polygon fill="#63b8ff" stroke="#63b8ff" points="440.51,-269.05 431.02,-273.76 441.37,-275.99 440.51,-269.05"/>
</a>
</g>
</g>
<!-- Node3 -->
<g id="Node000003" class="node">
<title>Node3</title>
<g id="a_Node000003"><a xlink:href="problem_8h.html" target="_top" xlink:title=" ">
<polygon fill="white" stroke="#666666" points="128.12,-90.25 7.12,-90.25 7.12,-56.75 128.12,-56.75 128.12,-90.25"/>
<text text-anchor="start" x="15.12" y="-76.75" font-family="Helvetica,sans-Serif" font-size="10.00">include/prismspf/core</text>
<text text-anchor="middle" x="67.62" y="-64" font-family="Helvetica,sans-Serif" font-size="10.00">/problem.h</text>
</a>
</g>
</g>
<!-- Node2&#45;&gt;Node3 -->
<g id="edge2_Node000002_Node000003" class="edge">
<title>Node2&#45;&gt;Node3</title>
<g id="a_edge2_Node000002_Node000003"><a xlink:title=" ">
<path fill="none" stroke="#63b8ff" d="M65.22,-184.12C65.84,-156.04 66.77,-113.32 67.28,-90.38"/>
<polygon fill="#63b8ff" stroke="#63b8ff" points="61.73,-183.93 65.01,-194 68.73,-184.08 61.73,-183.93"/>
</a>
</g>
</g>
<!-- Node3&#45;&gt;Node4 -->
<g id="edge3_Node000003_Node000004" class="edge">
<title>Node3&#45;&gt;Node4</title>
<g id="a_edge3_Node000003_Node000004"><a xlink:title=" ">
<path fill="none" stroke="#63b8ff" d="M100.55,-50.14C115.19,-40.2 131.66,-29.01 143.13,-21.22"/>
<polygon fill="#63b8ff" stroke="#63b8ff" points="98.83,-47.08 92.52,-55.59 102.76,-52.87 98.83,-47.08"/>
</a>
</g>
</g>
<!-- Node6 -->
<g id="Node000006" class="node">
<title>Node6</title>
<g id="a_Node000006"><a xlink:href="solvers_8h.html" target="_top" xlink:title=" ">
<polygon fill="white" stroke="#666666" points="388.25,-90.25 253,-90.25 253,-56.75 388.25,-56.75 388.25,-90.25"/>
<text text-anchor="start" x="261" y="-76.75" font-family="Helvetica,sans-Serif" font-size="10.00">include/prismspf/solvers</text>
<text text-anchor="middle" x="320.62" y="-64" font-family="Helvetica,sans-Serif" font-size="10.00">/solvers.h</text>
</a>
</g>
</g>
<!-- Node5&#45;&gt;Node6 -->
<g id="edge5_Node000005_Node000006" class="edge">
<title>Node5&#45;&gt;Node6</title>
<g id="a_edge5_Node000005_Node000006"><a xlink:title=" ">
<path fill="none" stroke="#63b8ff" d="M277.48,-117.97C286.57,-108.81 296.7,-98.6 304.86,-90.38"/>
<polygon fill="#63b8ff" stroke="#63b8ff" points="275.13,-115.37 270.57,-124.93 280.1,-120.3 275.13,-115.37"/>
</a>
</g>
</g>
<!-- Node6&#45;&gt;Node4 -->
<g id="edge6_Node000006_Node000004" class="edge">
<title>Node6&#45;&gt;Node4</title>
<g id="a_edge6_Node000006_Node000004"><a xlink:title=" ">
<path fill="none" stroke="#63b8ff" d="M266.94,-52.37C238.99,-41.89 206.08,-29.55 183.73,-21.17"/>
<polygon fill="#63b8ff" stroke="#63b8ff" points="265.36,-55.51 275.95,-55.75 267.82,-48.96 265.36,-55.51"/>
</a>
</g>
</g>
<!-- Node7 -->
<g id="Node000007" class="node">
<title>Node7</title>
<g id="a_Node000007"><a xlink:href="solvers_8cc.html" target="_top" xlink:title=" ">
<polygon fill="white" stroke="#666666" points="380.75,-20.75 260.5,-20.75 260.5,0 380.75,0 380.75,-20.75"/>
<text text-anchor="middle" x="320.62" y="-7.25" font-family="Helvetica,sans-Serif" font-size="10.00">src/solvers/solvers.cc</text>
</a>
</g>
</g>
<!-- Node6&#45;&gt;Node7 -->
<g id="edge7_Node000006_Node000007" class="edge">
<title>Node6&#45;&gt;Node7</title>
<g id="a_edge7_Node000006_Node000007"><a xlink:title=" ">
<path fill="none" stroke="#63b8ff" d="M320.62,-44.94C320.62,-36.46 320.62,-27.67 320.62,-21.22"/>
<polygon fill="#63b8ff" stroke="#63b8ff" points="317.13,-44.93 320.63,-54.93 324.13,-44.93 317.13,-44.93"/>
</a>
</g>
</g>
<!-- Node9&#45;&gt;Node6 -->
<g id="edge13_Node000009_Node000006" class="edge">
<title>Node9&#45;&gt;Node6</title>
<g id="a_edge13_Node000009_Node000006"><a xlink:title=" ">
<path fill="none" stroke="#63b8ff" d="M405.45,-189.54C392.69,-181.31 379.16,-171.16 368.62,-159.75 349.37,-138.92 334.81,-108.99 327.02,-90.69"/>
<polygon fill="#63b8ff" stroke="#63b8ff" points="403.37,-192.37 413.72,-194.65 407.05,-186.41 403.37,-192.37"/>
</a>
</g>
</g>
<!-- Node9&#45;&gt;Node10 -->
<g id="edge10_Node000009_Node000010" class="edge">
<title>Node9&#45;&gt;Node10</title>
<g id="a_edge10_Node000009_Node000010"><a xlink:title=" ">
<path fill="none" stroke="#63b8ff" d="M492.55,-190.8C514.88,-180.95 541.18,-169.34 562.01,-160.15"/>
<polygon fill="#63b8ff" stroke="#63b8ff" points="491.39,-187.48 483.66,-194.72 494.22,-193.89 491.39,-187.48"/>
</a>
</g>
</g>
<!-- Node11 -->
<g id="Node000011" class="node">
<title>Node11</title>
<g id="a_Node000011"><a xlink:href="newton__solver_8h.html" target="_top" xlink:title=" ">
<polygon fill="white" stroke="#666666" points="513.25,-159.75 378,-159.75 378,-126.25 513.25,-126.25 513.25,-159.75"/>
<text text-anchor="start" x="386" y="-146.25" font-family="Helvetica,sans-Serif" font-size="10.00">include/prismspf/solvers</text>
<text text-anchor="middle" x="445.62" y="-133.5" font-family="Helvetica,sans-Serif" font-size="10.00">/newton_solver.h</text>
</a>
</g>
</g>
<!-- Node9&#45;&gt;Node11 -->
<g id="edge11_Node000009_Node000011" class="edge">
<title>Node9&#45;&gt;Node11</title>
<g id="a_edge11_Node000009_Node000011"><a xlink:title=" ">
<path fill="none" stroke="#63b8ff" d="M445.62,-184.06C445.62,-175.84 445.62,-167.09 445.62,-159.88"/>
<polygon fill="#63b8ff" stroke="#63b8ff" points="442.13,-183.99 445.63,-193.99 449.13,-183.99 442.13,-183.99"/>
</a>
</g>
</g>
<!-- Node11&#45;&gt;Node6 -->
<g id="edge12_Node000011_Node000006" class="edge">
<title>Node11&#45;&gt;Node6</title>
<g id="a_edge12_Node000011_Node000006"><a xlink:title=" ">
<path fill="none" stroke="#63b8ff" d="M405.76,-120.47C387.78,-110.76 366.9,-99.49 350.32,-90.54"/>
<polygon fill="#63b8ff" stroke="#63b8ff" points="403.89,-123.44 414.35,-125.11 407.22,-117.28 403.89,-123.44"/>
</a>
</g>
</g>
</g>
</svg>
