<?xml version="1.0" encoding="UTF-8" standalone="no"?>
<!DOCTYPE svg PUBLIC "-//W3C//DTD SVG 1.1//EN"
 "http://www.w3.org/Graphics/SVG/1.1/DTD/svg11.dtd">
<!-- Generated by graphviz version 12.2.1 (20241206.2353)
 -->
<!-- Title: include/prismspf/core/types.h Pages: 1 -->
<svg width="320pt" height="168pt"
 viewBox="0.00 0.00 320.00 167.75" xmlns="http://www.w3.org/2000/svg" xmlns:xlink="http://www.w3.org/1999/xlink">
<g id="graph0" class="graph" transform="scale(1 1) rotate(0) translate(4 163.75)">
<title>include/prismspf/core/types.h</title>
<!-- Node1 -->
<g id="Node000001" class="node">
<title>Node1</title>
<g id="a_Node000001"><a xlink:title=" ">
<polygon fill="#999999" stroke="#666666" points="196.62,-159.75 75.62,-159.75 75.62,-126.25 196.62,-126.25 196.62,-159.75"/>
<text text-anchor="start" x="83.62" y="-146.25" font-family="Helvetica,sans-Serif" font-size="10.00">include/prismspf/core</text>
<text text-anchor="middle" x="136.12" y="-133.5" font-family="Helvetica,sans-Serif" font-size="10.00">/types.h</text>
</a>
</g>
</g>
<!-- Node2 -->
<g id="Node000002" class="node">
<title>Node2</title>
<g id="a_Node000002"><a xlink:title=" ">
<polygon fill="#e0e0e0" stroke="#999999" points="108.25,-90.25 0,-90.25 0,-56.75 108.25,-56.75 108.25,-90.25"/>
<text text-anchor="start" x="8" y="-76.75" font-family="Helvetica,sans-Serif" font-size="10.00">deal.II/matrix_free</text>
<text text-anchor="middle" x="54.12" y="-64" font-family="Helvetica,sans-Serif" font-size="10.00">/evaluation_flags.h</text>
</a>
</g>
</g>
<!-- Node1&#45;&gt;Node2 -->
<g id="edge1_Node000001_Node000002" class="edge">
<title>Node1&#45;&gt;Node2</title>
<g id="a_edge1_Node000001_Node000002"><a xlink:title=" ">
<path fill="none" stroke="#63b8ff" d="M116.69,-126C106.45,-117.57 93.7,-107.08 82.39,-97.77"/>
<polygon fill="#63b8ff" stroke="#63b8ff" points="84.82,-95.23 74.87,-91.58 80.37,-100.64 84.82,-95.23"/>
</a>
</g>
</g>
<!-- Node3 -->
<g id="Node000003" class="node">
<title>Node3</title>
<g id="a_Node000003"><a xlink:href="type__enums_8h.html" target="_top" xlink:title=" ">
<polygon fill="white" stroke="#666666" points="276.88,-90.25 169.38,-90.25 169.38,-56.75 276.88,-56.75 276.88,-90.25"/>
<text text-anchor="start" x="177.38" y="-76.75" font-family="Helvetica,sans-Serif" font-size="10.00">prismspf/core/type</text>
<text text-anchor="middle" x="223.12" y="-64" font-family="Helvetica,sans-Serif" font-size="10.00">_enums.h</text>
</a>
</g>
</g>
<!-- Node1&#45;&gt;Node3 -->
<g id="edge2_Node000001_Node000003" class="edge">
<title>Node1&#45;&gt;Node3</title>
<g id="a_edge2_Node000001_Node000003"><a xlink:title=" ">
<path fill="none" stroke="#63b8ff" d="M156.74,-126C167.71,-117.49 181.4,-106.87 193.49,-97.49"/>
<polygon fill="#63b8ff" stroke="#63b8ff" points="195.4,-100.44 201.16,-91.54 191.11,-94.91 195.4,-100.44"/>
</a>
</g>
</g>
<!-- Node4 -->
<g id="Node000004" class="node">
<title>Node4</title>
<g id="a_Node000004"><a xlink:title=" ">
<polygon fill="#e0e0e0" stroke="#999999" points="183.12,-20.75 83.12,-20.75 83.12,0 183.12,0 183.12,-20.75"/>
<text text-anchor="middle" x="133.12" y="-7.25" font-family="Helvetica,sans-Serif" font-size="10.00">prismspf/config.h</text>
</a>
</g>
</g>
<!-- Node1&#45;&gt;Node4 -->
<g id="edge6_Node000001_Node000004" class="edge">
<title>Node1&#45;&gt;Node4</title>
<g id="a_edge6_Node000001_Node000004"><a xlink:title=" ">
<path fill="none" stroke="#63b8ff" d="M135.76,-125.98C135.22,-102.45 134.21,-58.49 133.61,-32.39"/>
<polygon fill="#63b8ff" stroke="#63b8ff" points="137.11,-32.61 133.38,-22.69 130.12,-32.77 137.11,-32.61"/>
</a>
</g>
</g>
<!-- Node3&#45;&gt;Node4 -->
<g id="edge3_Node000003_Node000004" class="edge">
<title>Node3&#45;&gt;Node4</title>
<g id="a_edge3_Node000003_Node000004"><a xlink:title=" ">
<path fill="none" stroke="#63b8ff" d="M199.48,-56.44C186.36,-47.53 170.1,-36.49 156.96,-27.56"/>
<polygon fill="#63b8ff" stroke="#63b8ff" points="159.11,-24.79 148.87,-22.07 155.17,-30.58 159.11,-24.79"/>
</a>
</g>
</g>
<!-- Node5 -->
<g id="Node000005" class="node">
<title>Node5</title>
<g id="a_Node000005"><a xlink:title=" ">
<polygon fill="#e0e0e0" stroke="#999999" points="250.62,-20.75 201.62,-20.75 201.62,0 250.62,0 250.62,-20.75"/>
<text text-anchor="middle" x="226.12" y="-7.25" font-family="Helvetica,sans-Serif" font-size="10.00">cstdint</text>
</a>
</g>
</g>
<!-- Node3&#45;&gt;Node5 -->
<g id="edge4_Node000003_Node000005" class="edge">
<title>Node3&#45;&gt;Node5</title>
<g id="a_edge4_Node000003_Node000005"><a xlink:title=" ">
<path fill="none" stroke="#63b8ff" d="M223.91,-56.44C224.27,-49.1 224.7,-40.32 225.09,-32.46"/>
<polygon fill="#63b8ff" stroke="#63b8ff" points="228.57,-32.89 225.57,-22.73 221.58,-32.55 228.57,-32.89"/>
</a>
</g>
</g>
<!-- Node6 -->
<g id="Node000006" class="node">
<title>Node6</title>
<g id="a_Node000006"><a xlink:title=" ">
<polygon fill="#e0e0e0" stroke="#999999" points="312,-20.75 268.25,-20.75 268.25,0 312,0 312,-20.75"/>
<text text-anchor="middle" x="290.12" y="-7.25" font-family="Helvetica,sans-Serif" font-size="10.00">string</text>
</a>
</g>
</g>
<!-- Node3&#45;&gt;Node6 -->
<g id="edge5_Node000003_Node000006" class="edge">
<title>Node3&#45;&gt;Node6</title>
<g id="a_edge5_Node000003_Node000006"><a xlink:title=" ">
<path fill="none" stroke="#63b8ff" d="M240.73,-56.44C250.01,-47.97 261.42,-37.56 270.93,-28.89"/>
<polygon fill="#63b8ff" stroke="#63b8ff" points="273.19,-31.56 278.22,-22.24 268.47,-26.39 273.19,-31.56"/>
</a>
</g>
</g>
</g>
</svg>
