<?xml version="1.0" encoding="UTF-8" standalone="no"?>
<!DOCTYPE svg PUBLIC "-//W3C//DTD SVG 1.1//EN"
 "http://www.w3.org/Graphics/SVG/1.1/DTD/svg11.dtd">
<!-- Generated by graphviz version 12.2.1 (20241206.2353)
 -->
<!-- Title: include/prismspf/user_inputs/user_constants.h Pages: 1 -->
<svg width="1597pt" height="654pt"
 viewBox="0.00 0.00 1597.12 654.25" xmlns="http://www.w3.org/2000/svg" xmlns:xlink="http://www.w3.org/1999/xlink">
<g id="graph0" class="graph" transform="scale(1 1) rotate(0) translate(4 650.25)">
<title>include/prismspf/user_inputs/user_constants.h</title>
<!-- Node1 -->
<g id="Node000001" class="node">
<title>Node1</title>
<g id="a_Node000001"><a xlink:title=" ">
<polygon fill="#999999" stroke="#666666" points="1184,-646.25 1047.25,-646.25 1047.25,-612.75 1184,-612.75 1184,-646.25"/>
<text text-anchor="start" x="1055.25" y="-632.75" font-family="Helvetica,sans-Serif" font-size="10.00">include/prismspf/user</text>
<text text-anchor="middle" x="1115.62" y="-620" font-family="Helvetica,sans-Serif" font-size="10.00">_inputs/user_constants.h</text>
</a>
</g>
</g>
<!-- Node2 -->
<g id="Node000002" class="node">
<title>Node2</title>
<g id="a_Node000002"><a xlink:href="user__input__parameters_8h.html" target="_top" xlink:title=" ">
<polygon fill="white" stroke="#666666" points="1203.5,-576.75 1027.75,-576.75 1027.75,-543.25 1203.5,-543.25 1203.5,-576.75"/>
<text text-anchor="start" x="1035.75" y="-563.25" font-family="Helvetica,sans-Serif" font-size="10.00">include/prismspf/user</text>
<text text-anchor="middle" x="1115.62" y="-550.5" font-family="Helvetica,sans-Serif" font-size="10.00">_inputs/user_input_parameters.h</text>
</a>
</g>
</g>
<!-- Node1&#45;&gt;Node2 -->
<g id="edge1_Node000001_Node000002" class="edge">
<title>Node1&#45;&gt;Node2</title>
<g id="a_edge1_Node000001_Node000002"><a xlink:title=" ">
<path fill="none" stroke="#63b8ff" d="M1115.62,-601.06C1115.62,-592.84 1115.62,-584.09 1115.62,-576.88"/>
<polygon fill="#63b8ff" stroke="#63b8ff" points="1112.13,-600.99 1115.63,-610.99 1119.13,-600.99 1112.13,-600.99"/>
</a>
</g>
</g>
<!-- Node3 -->
<g id="Node000003" class="node">
<title>Node3</title>
<g id="a_Node000003"><a xlink:href="pde__operator__base_8h.html" target="_top" xlink:title=" ">
<polygon fill="white" stroke="#666666" points="791.12,-507.25 670.12,-507.25 670.12,-473.75 791.12,-473.75 791.12,-507.25"/>
<text text-anchor="start" x="678.12" y="-493.75" font-family="Helvetica,sans-Serif" font-size="10.00">include/prismspf/core</text>
<text text-anchor="middle" x="730.62" y="-481" font-family="Helvetica,sans-Serif" font-size="10.00">/pde_operator_base.h</text>
</a>
</g>
</g>
<!-- Node2&#45;&gt;Node3 -->
<g id="edge2_Node000002_Node000003" class="edge">
<title>Node2&#45;&gt;Node3</title>
<g id="a_edge2_Node000002_Node000003"><a xlink:title=" ">
<path fill="none" stroke="#63b8ff" d="M1016.1,-541.55C945.08,-529.1 851.83,-512.75 791.57,-502.18"/>
<polygon fill="#63b8ff" stroke="#63b8ff" points="1015.35,-544.97 1025.81,-543.25 1016.56,-538.08 1015.35,-544.97"/>
</a>
</g>
</g>
<!-- Node7 -->
<g id="Node000007" class="node">
<title>Node7</title>
<g id="a_Node000007"><a xlink:href="problem_8cc.html" target="_top" xlink:title=" ">
<polygon fill="white" stroke="#666666" points="1027.25,-20.75 916,-20.75 916,0 1027.25,0 1027.25,-20.75"/>
<text text-anchor="middle" x="971.62" y="-7.25" font-family="Helvetica,sans-Serif" font-size="10.00">src/core/problem.cc</text>
</a>
</g>
</g>
<!-- Node2&#45;&gt;Node7 -->
<g id="edge49_Node000002_Node000007" class="edge">
<title>Node2&#45;&gt;Node7</title>
<g id="a_edge49_Node000002_Node000007"><a xlink:title=" ">
<path fill="none" stroke="#63b8ff" d="M1193.76,-539.2C1249.87,-519.75 1315.62,-483.78 1315.62,-422 1315.62,-422 1315.62,-422 1315.62,-142 1315.62,-81.15 1125.14,-38.53 1027.66,-20.7"/>
<polygon fill="#63b8ff" stroke="#63b8ff" points="1192.88,-535.81 1184.49,-542.28 1195.09,-542.45 1192.88,-535.81"/>
</a>
</g>
</g>
<!-- Node14 -->
<g id="Node000014" class="node">
<title>Node14</title>
<g id="a_Node000014"><a xlink:href="solve__context_8h.html" target="_top" xlink:title=" ">
<polygon fill="white" stroke="#666666" points="1018.25,-437.75 883,-437.75 883,-404.25 1018.25,-404.25 1018.25,-437.75"/>
<text text-anchor="start" x="891" y="-424.25" font-family="Helvetica,sans-Serif" font-size="10.00">include/prismspf/solvers</text>
<text text-anchor="middle" x="950.62" y="-411.5" font-family="Helvetica,sans-Serif" font-size="10.00">/solve_context.h</text>
</a>
</g>
</g>
<!-- Node2&#45;&gt;Node14 -->
<g id="edge44_Node000002_Node000014" class="edge">
<title>Node2&#45;&gt;Node14</title>
<g id="a_edge44_Node000002_Node000014"><a xlink:title=" ">
<path fill="none" stroke="#63b8ff" d="M1084.59,-536.1C1072.86,-527.27 1059.49,-516.96 1047.62,-507.25 1019.17,-483.97 987.36,-455.53 968.18,-438.1"/>
<polygon fill="#63b8ff" stroke="#63b8ff" points="1082.26,-538.74 1092.37,-541.93 1086.46,-533.13 1082.26,-538.74"/>
</a>
</g>
</g>
<!-- Node17 -->
<g id="Node000017" class="node">
<title>Node17</title>
<g id="a_Node000017"><a xlink:href="solution__output_8h.html" target="_top" xlink:title=" ">
<polygon fill="white" stroke="#666666" points="1100.12,-368.25 979.12,-368.25 979.12,-334.75 1100.12,-334.75 1100.12,-368.25"/>
<text text-anchor="start" x="987.12" y="-354.75" font-family="Helvetica,sans-Serif" font-size="10.00">include/prismspf/core</text>
<text text-anchor="middle" x="1039.62" y="-342" font-family="Helvetica,sans-Serif" font-size="10.00">/solution_output.h</text>
</a>
</g>
</g>
<!-- Node2&#45;&gt;Node17 -->
<g id="edge42_Node000002_Node000017" class="edge">
<title>Node2&#45;&gt;Node17</title>
<g id="a_edge42_Node000002_Node000017"><a xlink:title=" ">
<path fill="none" stroke="#63b8ff" d="M1105.75,-532.18C1089.74,-488.67 1058.58,-403.99 1045.56,-368.63"/>
<polygon fill="#63b8ff" stroke="#63b8ff" points="1102.4,-533.2 1109.14,-541.38 1108.97,-530.78 1102.4,-533.2"/>
</a>
</g>
</g>
<!-- Node19 -->
<g id="Node000019" class="node">
<title>Node19</title>
<g id="a_Node000019"><a xlink:href="nucleation__manager_8h.html" target="_top" xlink:title=" ">
<polygon fill="white" stroke="#666666" points="1287.12,-368.25 1136.12,-368.25 1136.12,-334.75 1287.12,-334.75 1287.12,-368.25"/>
<text text-anchor="start" x="1144.12" y="-354.75" font-family="Helvetica,sans-Serif" font-size="10.00">include/prismspf/nucleation</text>
<text text-anchor="middle" x="1211.62" y="-342" font-family="Helvetica,sans-Serif" font-size="10.00">/nucleation_manager.h</text>
</a>
</g>
</g>
<!-- Node2&#45;&gt;Node19 -->
<g id="edge43_Node000002_Node000019" class="edge">
<title>Node2&#45;&gt;Node19</title>
<g id="a_edge43_Node000002_Node000019"><a xlink:title=" ">
<path fill="none" stroke="#63b8ff" d="M1112.48,-531.76C1110.07,-499 1110.51,-443.52 1134.62,-404.25 1144.06,-388.88 1159.98,-377.05 1174.9,-368.61"/>
<polygon fill="#63b8ff" stroke="#63b8ff" points="1108.98,-531.97 1113.36,-541.62 1115.95,-531.34 1108.98,-531.97"/>
</a>
</g>
</g>
<!-- Node20 -->
<g id="Node000020" class="node">
<title>Node20</title>
<g id="a_Node000020"><a xlink:href="solver__base_8h.html" target="_top" xlink:title=" ">
<polygon fill="white" stroke="#666666" points="796.25,-368.25 661,-368.25 661,-334.75 796.25,-334.75 796.25,-368.25"/>
<text text-anchor="start" x="669" y="-354.75" font-family="Helvetica,sans-Serif" font-size="10.00">include/prismspf/solvers</text>
<text text-anchor="middle" x="728.62" y="-342" font-family="Helvetica,sans-Serif" font-size="10.00">/solver_base.h</text>
</a>
</g>
</g>
<!-- Node2&#45;&gt;Node20 -->
<g id="edge45_Node000002_Node000020" class="edge">
<title>Node2&#45;&gt;Node20</title>
<g id="a_edge45_Node000002_Node000020"><a xlink:title=" ">
<path fill="none" stroke="#63b8ff" d="M1069.94,-538.06C1050.08,-528.82 1026.6,-517.7 1005.62,-507.25 946.28,-477.69 931.55,-470 873.62,-437.75 831.91,-414.52 784.33,-386.19 755.4,-368.75"/>
<polygon fill="#63b8ff" stroke="#63b8ff" points="1068.34,-541.18 1078.89,-542.22 1071.29,-534.83 1068.34,-541.18"/>
</a>
</g>
</g>
<!-- Node25 -->
<g id="Node000025" class="node">
<title>Node25</title>
<g id="a_Node000025"><a xlink:href="periodic__distance_8h.html" target="_top" xlink:title=" ">
<polygon fill="white" stroke="#666666" points="1280,-437.75 1143.25,-437.75 1143.25,-404.25 1280,-404.25 1280,-437.75"/>
<text text-anchor="start" x="1151.25" y="-424.25" font-family="Helvetica,sans-Serif" font-size="10.00">include/prismspf/utilities</text>
<text text-anchor="middle" x="1211.62" y="-411.5" font-family="Helvetica,sans-Serif" font-size="10.00">/periodic_distance.h</text>
</a>
</g>
</g>
<!-- Node2&#45;&gt;Node25 -->
<g id="edge46_Node000002_Node000025" class="edge">
<title>Node2&#45;&gt;Node25</title>
<g id="a_edge46_Node000002_Node000025"><a xlink:title=" ">
<path fill="none" stroke="#63b8ff" d="M1133.24,-533.86C1152.87,-505.85 1183.99,-461.44 1200.5,-437.88"/>
<polygon fill="#63b8ff" stroke="#63b8ff" points="1130.57,-531.58 1127.69,-541.78 1136.3,-535.6 1130.57,-531.58"/>
</a>
</g>
</g>
<!-- Node26 -->
<g id="Node000026" class="node">
<title>Node26</title>
<g id="a_Node000026"><a xlink:href="constraint__manager_8cc.html" target="_top" xlink:title=" ">
<polygon fill="white" stroke="#666666" points="1449.62,-507.25 1343.62,-507.25 1343.62,-473.75 1449.62,-473.75 1449.62,-507.25"/>
<text text-anchor="start" x="1351.62" y="-493.75" font-family="Helvetica,sans-Serif" font-size="10.00">src/core/constraint</text>
<text text-anchor="middle" x="1396.62" y="-481" font-family="Helvetica,sans-Serif" font-size="10.00">_manager.cc</text>
</a>
</g>
</g>
<!-- Node2&#45;&gt;Node26 -->
<g id="edge48_Node000002_Node000026" class="edge">
<title>Node2&#45;&gt;Node26</title>
<g id="a_edge48_Node000002_Node000026"><a xlink:title=" ">
<path fill="none" stroke="#63b8ff" d="M1193.84,-540.21C1241.53,-528.75 1301.23,-514.42 1343.47,-504.27"/>
<polygon fill="#63b8ff" stroke="#63b8ff" points="1193.31,-536.74 1184.4,-542.48 1194.94,-543.55 1193.31,-536.74"/>
</a>
</g>
</g>
<!-- Node27 -->
<g id="Node000027" class="node">
<title>Node27</title>
<g id="a_Node000027"><a xlink:href="user__input__parameters_8cc.html" target="_top" xlink:title=" ">
<polygon fill="white" stroke="#666666" points="1589.12,-507.25 1468.12,-507.25 1468.12,-473.75 1589.12,-473.75 1589.12,-507.25"/>
<text text-anchor="start" x="1476.12" y="-493.75" font-family="Helvetica,sans-Serif" font-size="10.00">src/user_inputs/user</text>
<text text-anchor="middle" x="1528.62" y="-481" font-family="Helvetica,sans-Serif" font-size="10.00">_input_parameters.cc</text>
</a>
</g>
</g>
<!-- Node2&#45;&gt;Node27 -->
<g id="edge50_Node000002_Node000027" class="edge">
<title>Node2&#45;&gt;Node27</title>
<g id="a_edge50_Node000002_Node000027"><a xlink:title=" ">
<path fill="none" stroke="#63b8ff" d="M1214.91,-545.94C1283.57,-536.43 1376.91,-522.59 1458.62,-507.25 1461.69,-506.68 1464.82,-506.06 1467.97,-505.43"/>
<polygon fill="#63b8ff" stroke="#63b8ff" points="1214.61,-542.44 1205.18,-547.28 1215.56,-549.38 1214.61,-542.44"/>
</a>
</g>
</g>
<!-- Node4 -->
<g id="Node000004" class="node">
<title>Node4</title>
<g id="a_Node000004"><a xlink:href="mf__operator_8h.html" target="_top" xlink:title=" ">
<polygon fill="white" stroke="#666666" points="485.25,-298.75 350,-298.75 350,-265.25 485.25,-265.25 485.25,-298.75"/>
<text text-anchor="start" x="358" y="-285.25" font-family="Helvetica,sans-Serif" font-size="10.00">include/prismspf/solvers</text>
<text text-anchor="middle" x="417.62" y="-272.5" font-family="Helvetica,sans-Serif" font-size="10.00">/mf_operator.h</text>
</a>
</g>
</g>
<!-- Node3&#45;&gt;Node4 -->
<g id="edge3_Node000003_Node000004" class="edge">
<title>Node3&#45;&gt;Node4</title>
<g id="a_edge3_Node000003_Node000004"><a xlink:title=" ">
<path fill="none" stroke="#63b8ff" d="M658.59,-482.79C592.81,-475.29 501.8,-461.04 474.62,-437.75 432.24,-401.41 421.35,-330.65 418.57,-298.98"/>
<polygon fill="#63b8ff" stroke="#63b8ff" points="657.91,-486.23 668.23,-483.85 658.68,-479.27 657.91,-486.23"/>
</a>
</g>
</g>
<!-- Node3&#45;&gt;Node14 -->
<g id="edge17_Node000003_Node000014" class="edge">
<title>Node3&#45;&gt;Node14</title>
<g id="a_edge17_Node000003_Node000014"><a xlink:title=" ">
<path fill="none" stroke="#63b8ff" d="M794.2,-469.99C827.11,-459.9 866.81,-447.72 897.98,-438.15"/>
<polygon fill="#63b8ff" stroke="#63b8ff" points="793.3,-466.61 784.77,-472.89 795.35,-473.3 793.3,-466.61"/>
</a>
</g>
</g>
<!-- Node3&#45;&gt;Node20 -->
<g id="edge39_Node000003_Node000020" class="edge">
<title>Node3&#45;&gt;Node20</title>
<g id="a_edge39_Node000003_Node000020"><a xlink:title=" ">
<path fill="none" stroke="#63b8ff" d="M757.49,-465.03C764.42,-457.08 770.96,-447.72 774.62,-437.75 779.76,-423.78 779.92,-418.17 774.62,-404.25 769.33,-390.32 758.37,-377.74 748.48,-368.47"/>
<polygon fill="#63b8ff" stroke="#63b8ff" points="754.99,-462.58 750.67,-472.26 760.08,-467.39 754.99,-462.58"/>
</a>
</g>
</g>
<!-- Node23 -->
<g id="Node000023" class="node">
<title>Node23</title>
<g id="a_Node000023"><a xlink:href="dirichlet_8cc.html" target="_top" xlink:title=" ">
<polygon fill="white" stroke="#666666" points="593.88,-431.38 483.38,-431.38 483.38,-410.62 593.88,-410.62 593.88,-431.38"/>
<text text-anchor="middle" x="538.62" y="-417.88" font-family="Helvetica,sans-Serif" font-size="10.00">src/core/dirichlet.cc</text>
</a>
</g>
</g>
<!-- Node3&#45;&gt;Node23 -->
<g id="edge40_Node000003_Node000023" class="edge">
<title>Node3&#45;&gt;Node23</title>
<g id="a_edge40_Node000003_Node000023"><a xlink:title=" ">
<path fill="none" stroke="#63b8ff" d="M673.98,-469.59C638.66,-457.17 594.75,-441.73 566.7,-431.87"/>
<polygon fill="#63b8ff" stroke="#63b8ff" points="672.61,-472.82 683.21,-472.83 674.94,-466.21 672.61,-472.82"/>
</a>
</g>
</g>
<!-- Node24 -->
<g id="Node000024" class="node">
<title>Node24</title>
<g id="a_Node000024"><a xlink:href="initial__conditions_8cc.html" target="_top" xlink:title=" ">
<polygon fill="white" stroke="#666666" points="765.62,-431.38 611.62,-431.38 611.62,-410.62 765.62,-410.62 765.62,-431.38"/>
<text text-anchor="middle" x="688.62" y="-417.88" font-family="Helvetica,sans-Serif" font-size="10.00">src/core/initial_conditions.cc</text>
</a>
</g>
</g>
<!-- Node3&#45;&gt;Node24 -->
<g id="edge41_Node000003_Node000024" class="edge">
<title>Node3&#45;&gt;Node24</title>
<g id="a_edge41_Node000003_Node000024"><a xlink:title=" ">
<path fill="none" stroke="#63b8ff" d="M714.6,-463.75C707.66,-452.59 699.94,-440.19 694.74,-431.82"/>
<polygon fill="#63b8ff" stroke="#63b8ff" points="711.62,-465.58 719.87,-472.22 717.56,-461.88 711.62,-465.58"/>
</a>
</g>
</g>
<!-- Node5 -->
<g id="Node000005" class="node">
<title>Node5</title>
<g id="a_Node000005"><a xlink:href="explicit__solver_8h.html" target="_top" xlink:title=" ">
<polygon fill="white" stroke="#666666" points="135.25,-229.25 0,-229.25 0,-195.75 135.25,-195.75 135.25,-229.25"/>
<text text-anchor="start" x="8" y="-215.75" font-family="Helvetica,sans-Serif" font-size="10.00">include/prismspf/solvers</text>
<text text-anchor="middle" x="67.62" y="-203" font-family="Helvetica,sans-Serif" font-size="10.00">/explicit_solver.h</text>
</a>
</g>
</g>
<!-- Node4&#45;&gt;Node5 -->
<g id="edge4_Node000004_Node000005" class="edge">
<title>Node4&#45;&gt;Node5</title>
<g id="a_edge4_Node000004_Node000005"><a xlink:title=" ">
<path fill="none" stroke="#63b8ff" d="M338.59,-265.76C277.48,-253.97 193.77,-237.83 135.63,-226.62"/>
<polygon fill="#63b8ff" stroke="#63b8ff" points="337.76,-269.16 348.24,-267.62 339.08,-262.29 337.76,-269.16"/>
</a>
</g>
</g>
<!-- Node9 -->
<g id="Node000009" class="node">
<title>Node9</title>
<g id="a_Node000009"><a xlink:href="linear__helper_8h.html" target="_top" xlink:title=" ">
<polygon fill="white" stroke="#666666" points="681.25,-229.25 546,-229.25 546,-195.75 681.25,-195.75 681.25,-229.25"/>
<text text-anchor="start" x="554" y="-215.75" font-family="Helvetica,sans-Serif" font-size="10.00">include/prismspf/solvers</text>
<text text-anchor="middle" x="613.62" y="-203" font-family="Helvetica,sans-Serif" font-size="10.00">/linear_helper.h</text>
</a>
</g>
</g>
<!-- Node4&#45;&gt;Node9 -->
<g id="edge8_Node000004_Node000009" class="edge">
<title>Node4&#45;&gt;Node9</title>
<g id="a_edge8_Node000004_Node000009"><a xlink:title=" ">
<path fill="none" stroke="#63b8ff" d="M475.41,-261.1C504.5,-251.08 539.31,-239.09 566.72,-229.65"/>
<polygon fill="#63b8ff" stroke="#63b8ff" points="474.32,-257.77 466,-264.34 476.6,-264.39 474.32,-257.77"/>
</a>
</g>
</g>
<!-- Node10 -->
<g id="Node000010" class="node">
<title>Node10</title>
<g id="a_Node000010"><a xlink:href="linear__solver_8h.html" target="_top" xlink:title=" ">
<polygon fill="white" stroke="#666666" points="489.25,-229.25 354,-229.25 354,-195.75 489.25,-195.75 489.25,-229.25"/>
<text text-anchor="start" x="362" y="-215.75" font-family="Helvetica,sans-Serif" font-size="10.00">include/prismspf/solvers</text>
<text text-anchor="middle" x="421.62" y="-203" font-family="Helvetica,sans-Serif" font-size="10.00">/linear_solver.h</text>
</a>
</g>
</g>
<!-- Node4&#45;&gt;Node10 -->
<g id="edge9_Node000004_Node000010" class="edge">
<title>Node4&#45;&gt;Node10</title>
<g id="a_edge9_Node000004_Node000010"><a xlink:title=" ">
<path fill="none" stroke="#63b8ff" d="M419.25,-253.56C419.74,-245.34 420.26,-236.59 420.68,-229.38"/>
<polygon fill="#63b8ff" stroke="#63b8ff" points="415.76,-253.3 418.66,-263.49 422.75,-253.72 415.76,-253.3"/>
</a>
</g>
</g>
<!-- Node11 -->
<g id="Node000011" class="node">
<title>Node11</title>
<g id="a_Node000011"><a xlink:href="mg__solver_8h.html" target="_top" xlink:title=" ">
<polygon fill="white" stroke="#666666" points="353.25,-159.75 218,-159.75 218,-126.25 353.25,-126.25 353.25,-159.75"/>
<text text-anchor="start" x="226" y="-146.25" font-family="Helvetica,sans-Serif" font-size="10.00">include/prismspf/solvers</text>
<text text-anchor="middle" x="285.62" y="-133.5" font-family="Helvetica,sans-Serif" font-size="10.00">/mg_solver.h</text>
</a>
</g>
</g>
<!-- Node4&#45;&gt;Node11 -->
<g id="edge14_Node000004_Node000011" class="edge">
<title>Node4&#45;&gt;Node11</title>
<g id="a_edge14_Node000004_Node000011"><a xlink:title=" ">
<path fill="none" stroke="#63b8ff" d="M338.69,-274.11C278.27,-267.01 202.09,-253.47 182.62,-229.25 173.3,-217.64 174.81,-208.42 182.62,-195.75 192.71,-179.4 209.71,-168.03 227.03,-160.21"/>
<polygon fill="#63b8ff" stroke="#63b8ff" points="337.93,-277.55 348.26,-275.19 338.72,-270.59 337.93,-277.55"/>
</a>
</g>
</g>
<!-- Node12 -->
<g id="Node000012" class="node">
<title>Node12</title>
<g id="a_Node000012"><a xlink:href="newton__solver_8h.html" target="_top" xlink:title=" ">
<polygon fill="white" stroke="#666666" points="585.25,-159.75 450,-159.75 450,-126.25 585.25,-126.25 585.25,-159.75"/>
<text text-anchor="start" x="458" y="-146.25" font-family="Helvetica,sans-Serif" font-size="10.00">include/prismspf/solvers</text>
<text text-anchor="middle" x="517.62" y="-133.5" font-family="Helvetica,sans-Serif" font-size="10.00">/newton_solver.h</text>
</a>
</g>
</g>
<!-- Node4&#45;&gt;Node12 -->
<g id="edge15_Node000004_Node000012" class="edge">
<title>Node4&#45;&gt;Node12</title>
<g id="a_edge15_Node000004_Node000012"><a xlink:title=" ">
<path fill="none" stroke="#63b8ff" d="M465.08,-259.26C477.65,-251.43 490.08,-241.45 498.62,-229.25 513.15,-208.51 516.81,-178.55 517.6,-160.22"/>
<polygon fill="#63b8ff" stroke="#63b8ff" points="463.7,-256.02 456.81,-264.07 467.22,-262.07 463.7,-256.02"/>
</a>
</g>
</g>
<!-- Node13 -->
<g id="Node000013" class="node">
<title>Node13</title>
<g id="a_Node000013"><a xlink:href="mf__operator_8cc.html" target="_top" xlink:title=" ">
<polygon fill="white" stroke="#666666" points="335.75,-222.88 191.5,-222.88 191.5,-202.12 335.75,-202.12 335.75,-222.88"/>
<text text-anchor="middle" x="263.62" y="-209.38" font-family="Helvetica,sans-Serif" font-size="10.00">src/solvers/mf_operator.cc</text>
</a>
</g>
</g>
<!-- Node4&#45;&gt;Node13 -->
<g id="edge16_Node000004_Node000013" class="edge">
<title>Node4&#45;&gt;Node13</title>
<g id="a_edge16_Node000004_Node000013"><a xlink:title=" ">
<path fill="none" stroke="#63b8ff" d="M370.32,-260.26C342.23,-247.95 307.91,-232.91 285.92,-223.27"/>
<polygon fill="#63b8ff" stroke="#63b8ff" points="368.79,-263.42 379.35,-264.22 371.6,-257 368.79,-263.42"/>
</a>
</g>
</g>
<!-- Node6 -->
<g id="Node000006" class="node">
<title>Node6</title>
<g id="a_Node000006"><a xlink:href="solvers_8h.html" target="_top" xlink:title=" ">
<polygon fill="white" stroke="#666666" points="585.25,-90.25 450,-90.25 450,-56.75 585.25,-56.75 585.25,-90.25"/>
<text text-anchor="start" x="458" y="-76.75" font-family="Helvetica,sans-Serif" font-size="10.00">include/prismspf/solvers</text>
<text text-anchor="middle" x="517.62" y="-64" font-family="Helvetica,sans-Serif" font-size="10.00">/solvers.h</text>
</a>
</g>
</g>
<!-- Node5&#45;&gt;Node6 -->
<g id="edge5_Node000005_Node000006" class="edge">
<title>Node5&#45;&gt;Node6</title>
<g id="a_edge5_Node000005_Node000006"><a xlink:title=" ">
<path fill="none" stroke="#63b8ff" d="M97.34,-188.92C124.76,-169.25 167.35,-141.54 208.62,-126.25 288.32,-96.72 385.84,-83.96 449.74,-78.5"/>
<polygon fill="#63b8ff" stroke="#63b8ff" points="95.54,-185.9 89.53,-194.62 99.67,-191.55 95.54,-185.9"/>
</a>
</g>
</g>
<!-- Node6&#45;&gt;Node7 -->
<g id="edge6_Node000006_Node000007" class="edge">
<title>Node6&#45;&gt;Node7</title>
<g id="a_edge6_Node000006_Node000007"><a xlink:title=" ">
<path fill="none" stroke="#63b8ff" d="M596.99,-61.82C688.25,-49.53 835.75,-29.67 915.73,-18.9"/>
<polygon fill="#63b8ff" stroke="#63b8ff" points="596.54,-58.34 587.09,-63.15 597.47,-65.28 596.54,-58.34"/>
</a>
</g>
</g>
<!-- Node8 -->
<g id="Node000008" class="node">
<title>Node8</title>
<g id="a_Node000008"><a xlink:href="solvers_8cc.html" target="_top" xlink:title=" ">
<polygon fill="white" stroke="#666666" points="577.75,-20.75 457.5,-20.75 457.5,0 577.75,0 577.75,-20.75"/>
<text text-anchor="middle" x="517.62" y="-7.25" font-family="Helvetica,sans-Serif" font-size="10.00">src/solvers/solvers.cc</text>
</a>
</g>
</g>
<!-- Node6&#45;&gt;Node8 -->
<g id="edge7_Node000006_Node000008" class="edge">
<title>Node6&#45;&gt;Node8</title>
<g id="a_edge7_Node000006_Node000008"><a xlink:title=" ">
<path fill="none" stroke="#63b8ff" d="M517.62,-44.94C517.62,-36.46 517.62,-27.67 517.62,-21.22"/>
<polygon fill="#63b8ff" stroke="#63b8ff" points="514.13,-44.93 517.63,-54.93 521.13,-44.93 514.13,-44.93"/>
</a>
</g>
</g>
<!-- Node10&#45;&gt;Node6 -->
<g id="edge13_Node000010_Node000006" class="edge">
<title>Node10&#45;&gt;Node6</title>
<g id="a_edge13_Node000010_Node000006"><a xlink:title=" ">
<path fill="none" stroke="#63b8ff" d="M422.58,-183.97C424.38,-166.17 429.02,-143.24 440.62,-126.25 450.98,-111.09 467.38,-99.17 482.39,-90.61"/>
<polygon fill="#63b8ff" stroke="#63b8ff" points="419.1,-183.59 421.85,-193.83 426.08,-184.11 419.1,-183.59"/>
</a>
</g>
</g>
<!-- Node10&#45;&gt;Node11 -->
<g id="edge10_Node000010_Node000011" class="edge">
<title>Node10&#45;&gt;Node11</title>
<g id="a_edge10_Node000010_Node000011"><a xlink:title=" ">
<path fill="none" stroke="#63b8ff" d="M378.8,-190.24C359.11,-180.47 336.14,-169.07 317.93,-160.04"/>
<polygon fill="#63b8ff" stroke="#63b8ff" points="377.18,-193.35 387.69,-194.66 380.29,-187.08 377.18,-193.35"/>
</a>
</g>
</g>
<!-- Node10&#45;&gt;Node12 -->
<g id="edge11_Node000010_Node000012" class="edge">
<title>Node10&#45;&gt;Node12</title>
<g id="a_edge11_Node000010_Node000012"><a xlink:title=" ">
<path fill="none" stroke="#63b8ff" d="M453.75,-188.91C467.17,-179.48 482.45,-168.73 494.7,-160.12"/>
<polygon fill="#63b8ff" stroke="#63b8ff" points="451.78,-186.02 445.61,-194.63 455.81,-191.74 451.78,-186.02"/>
</a>
</g>
</g>
<!-- Node12&#45;&gt;Node6 -->
<g id="edge12_Node000012_Node000006" class="edge">
<title>Node12&#45;&gt;Node6</title>
<g id="a_edge12_Node000012_Node000006"><a xlink:title=" ">
<path fill="none" stroke="#63b8ff" d="M517.62,-114.56C517.62,-106.34 517.62,-97.59 517.62,-90.38"/>
<polygon fill="#63b8ff" stroke="#63b8ff" points="514.13,-114.49 517.63,-124.49 521.13,-114.49 514.13,-114.49"/>
</a>
</g>
</g>
<!-- Node15 -->
<g id="Node000015" class="node">
<title>Node15</title>
<g id="a_Node000015"><a xlink:href="problem_8h.html" target="_top" xlink:title=" ">
<polygon fill="white" stroke="#666666" points="1032.12,-229.25 911.12,-229.25 911.12,-195.75 1032.12,-195.75 1032.12,-229.25"/>
<text text-anchor="start" x="919.12" y="-215.75" font-family="Helvetica,sans-Serif" font-size="10.00">include/prismspf/core</text>
<text text-anchor="middle" x="971.62" y="-203" font-family="Helvetica,sans-Serif" font-size="10.00">/problem.h</text>
</a>
</g>
</g>
<!-- Node14&#45;&gt;Node15 -->
<g id="edge18_Node000014_Node000015" class="edge">
<title>Node14&#45;&gt;Node15</title>
<g id="a_edge18_Node000014_Node000015"><a xlink:title=" ">
<path fill="none" stroke="#63b8ff" d="M953.44,-392.34C957.89,-348.59 966.41,-264.77 969.98,-229.63"/>
<polygon fill="#63b8ff" stroke="#63b8ff" points="949.96,-391.99 952.43,-402.29 956.92,-392.7 949.96,-391.99"/>
</a>
</g>
</g>
<!-- Node16 -->
<g id="Node000016" class="node">
<title>Node16</title>
<g id="a_Node000016"><a xlink:href="refinement__manager_8h.html" target="_top" xlink:title=" ">
<polygon fill="white" stroke="#666666" points="943.25,-298.75 814,-298.75 814,-265.25 943.25,-265.25 943.25,-298.75"/>
<text text-anchor="start" x="822" y="-285.25" font-family="Helvetica,sans-Serif" font-size="10.00">include/prismspf/core</text>
<text text-anchor="middle" x="878.62" y="-272.5" font-family="Helvetica,sans-Serif" font-size="10.00">/refinement_manager.h</text>
</a>
</g>
</g>
<!-- Node14&#45;&gt;Node16 -->
<g id="edge20_Node000014_Node000016" class="edge">
<title>Node14&#45;&gt;Node16</title>
<g id="a_edge20_Node000014_Node000016"><a xlink:title=" ">
<path fill="none" stroke="#63b8ff" d="M937.02,-394.12C922.29,-366.08 899.24,-322.23 886.97,-298.88"/>
<polygon fill="#63b8ff" stroke="#63b8ff" points="933.77,-395.45 941.52,-402.68 939.97,-392.2 933.77,-395.45"/>
</a>
</g>
</g>
<!-- Node14&#45;&gt;Node17 -->
<g id="edge22_Node000014_Node000017" class="edge">
<title>Node14&#45;&gt;Node17</title>
<g id="a_edge22_Node000014_Node000017"><a xlink:title=" ">
<path fill="none" stroke="#63b8ff" d="M980.77,-397.14C993.12,-387.77 1007.13,-377.15 1018.38,-368.62"/>
<polygon fill="#63b8ff" stroke="#63b8ff" points="978.78,-394.26 972.92,-403.09 983.01,-399.83 978.78,-394.26"/>
</a>
</g>
</g>
<!-- Node14&#45;&gt;Node19 -->
<g id="edge26_Node000014_Node000019" class="edge">
<title>Node14&#45;&gt;Node19</title>
<g id="a_edge26_Node000014_Node000019"><a xlink:title=" ">
<path fill="none" stroke="#63b8ff" d="M1024.27,-400.95C1063.65,-390.77 1111.63,-378.36 1149.17,-368.65"/>
<polygon fill="#63b8ff" stroke="#63b8ff" points="1023.41,-397.56 1014.61,-403.45 1025.16,-404.34 1023.41,-397.56"/>
</a>
</g>
</g>
<!-- Node14&#45;&gt;Node20 -->
<g id="edge28_Node000014_Node000020" class="edge">
<title>Node14&#45;&gt;Node20</title>
<g id="a_edge28_Node000014_Node000020"><a xlink:title=" ">
<path fill="none" stroke="#63b8ff" d="M886.47,-400.49C853.26,-390.4 813.2,-378.22 781.75,-368.65"/>
<polygon fill="#63b8ff" stroke="#63b8ff" points="885.42,-403.83 896,-403.39 887.45,-397.13 885.42,-403.83"/>
</a>
</g>
</g>
<!-- Node15&#45;&gt;Node7 -->
<g id="edge19_Node000015_Node000007" class="edge">
<title>Node15&#45;&gt;Node7</title>
<g id="a_edge19_Node000015_Node000007"><a xlink:title=" ">
<path fill="none" stroke="#63b8ff" d="M971.62,-184.16C971.62,-138.82 971.62,-50.17 971.62,-20.96"/>
<polygon fill="#63b8ff" stroke="#63b8ff" points="968.13,-183.95 971.63,-193.95 975.13,-183.95 968.13,-183.95"/>
</a>
</g>
</g>
<!-- Node16&#45;&gt;Node15 -->
<g id="edge21_Node000016_Node000015" class="edge">
<title>Node16&#45;&gt;Node15</title>
<g id="a_edge21_Node000016_Node000015"><a xlink:title=" ">
<path fill="none" stroke="#63b8ff" d="M909.74,-258.41C922.74,-248.98 937.55,-238.23 949.42,-229.62"/>
<polygon fill="#63b8ff" stroke="#63b8ff" points="907.93,-255.41 901.89,-264.11 912.04,-261.07 907.93,-255.41"/>
</a>
</g>
</g>
<!-- Node17&#45;&gt;Node7 -->
<g id="edge24_Node000017_Node000007" class="edge">
<title>Node17&#45;&gt;Node7</title>
<g id="a_edge24_Node000017_Node000007"><a xlink:title=" ">
<path fill="none" stroke="#63b8ff" d="M1110.83,-330.68C1127.26,-323.08 1143.23,-312.74 1154.62,-298.75 1179.14,-268.65 1173.62,-252.32 1173.62,-213.5 1173.62,-213.5 1173.62,-213.5 1173.62,-142 1173.62,-70.27 1082.7,-35.99 1022.86,-21.2"/>
<polygon fill="#63b8ff" stroke="#63b8ff" points="1109.79,-327.32 1101.98,-334.47 1112.55,-333.75 1109.79,-327.32"/>
</a>
</g>
</g>
<!-- Node17&#45;&gt;Node17 -->
<g id="edge23_Node000017_Node000017" class="edge">
<title>Node17&#45;&gt;Node17</title>
<g id="a_edge23_Node000017_Node000017"><a xlink:title=" ">
<path fill="none" stroke="#63b8ff" d="M1111.34,-360.45C1115.58,-358.31 1118.12,-355.33 1118.12,-351.5 1118.12,-345.05 1110.92,-341 1100.52,-339.33"/>
<polygon fill="#63b8ff" stroke="#63b8ff" points="1110.56,-357.04 1101.97,-363.23 1112.55,-363.75 1110.56,-357.04"/>
</a>
</g>
</g>
<!-- Node18 -->
<g id="Node000018" class="node">
<title>Node18</title>
<g id="a_Node000018"><a xlink:href="solution__output_8cc.html" target="_top" xlink:title=" ">
<polygon fill="white" stroke="#666666" points="1145.88,-292.38 999.38,-292.38 999.38,-271.62 1145.88,-271.62 1145.88,-292.38"/>
<text text-anchor="middle" x="1072.62" y="-278.88" font-family="Helvetica,sans-Serif" font-size="10.00">src/core/solution_output.cc</text>
</a>
</g>
</g>
<!-- Node17&#45;&gt;Node18 -->
<g id="edge25_Node000017_Node000018" class="edge">
<title>Node17&#45;&gt;Node18</title>
<g id="a_edge25_Node000017_Node000018"><a xlink:title=" ">
<path fill="none" stroke="#63b8ff" d="M1052.38,-324.41C1057.79,-313.34 1063.78,-301.1 1067.82,-292.82"/>
<polygon fill="#63b8ff" stroke="#63b8ff" points="1049.36,-322.62 1048.11,-333.14 1055.65,-325.7 1049.36,-322.62"/>
</a>
</g>
</g>
<!-- Node19&#45;&gt;Node15 -->
<g id="edge27_Node000019_Node000015" class="edge">
<title>Node19&#45;&gt;Node15</title>
<g id="a_edge27_Node000019_Node000015"><a xlink:title=" ">
<path fill="none" stroke="#63b8ff" d="M1200.27,-324.33C1190.72,-305.28 1175.31,-280.28 1154.62,-265.25 1118.84,-239.24 1070.38,-226.28 1032.31,-219.83"/>
<polygon fill="#63b8ff" stroke="#63b8ff" points="1196.99,-325.57 1204.44,-333.1 1203.31,-322.56 1196.99,-325.57"/>
</a>
</g>
</g>
<!-- Node20&#45;&gt;Node4 -->
<g id="edge35_Node000020_Node000004" class="edge">
<title>Node20&#45;&gt;Node4</title>
<g id="a_edge35_Node000020_Node000004"><a xlink:title=" ">
<path fill="none" stroke="#63b8ff" d="M649.53,-333.33C598.91,-322.35 533.91,-308.24 485.61,-297.76"/>
<polygon fill="#63b8ff" stroke="#63b8ff" points="648.77,-336.75 659.28,-335.45 650.25,-329.91 648.77,-336.75"/>
</a>
</g>
</g>
<!-- Node20&#45;&gt;Node5 -->
<g id="edge32_Node000020_Node000005" class="edge">
<title>Node20&#45;&gt;Node5</title>
<g id="a_edge32_Node000020_Node000005"><a xlink:title=" ">
<path fill="none" stroke="#63b8ff" d="M649.42,-343.91C570.52,-336.42 446.24,-322.11 340.62,-298.75 258.21,-280.52 164.86,-248.91 111.45,-229.73"/>
<polygon fill="#63b8ff" stroke="#63b8ff" points="648.94,-347.38 659.22,-344.83 649.59,-340.41 648.94,-347.38"/>
</a>
</g>
</g>
<!-- Node20&#45;&gt;Node7 -->
<g id="edge37_Node000020_Node000007" class="edge">
<title>Node20&#45;&gt;Node7</title>
<g id="a_edge37_Node000020_Node000007"><a xlink:title=" ">
<path fill="none" stroke="#63b8ff" d="M746.23,-325.23C762.97,-298.68 785.62,-255.07 785.62,-213.5 785.62,-213.5 785.62,-213.5 785.62,-142 785.62,-72.35 874.04,-36.65 928.95,-21.19"/>
<polygon fill="#63b8ff" stroke="#63b8ff" points="743.52,-322.97 740.99,-333.26 749.38,-326.8 743.52,-322.97"/>
</a>
</g>
</g>
<!-- Node20&#45;&gt;Node9 -->
<g id="edge33_Node000020_Node000009" class="edge">
<title>Node20&#45;&gt;Node9</title>
<g id="a_edge33_Node000020_Node000009"><a xlink:title=" ">
<path fill="none" stroke="#63b8ff" d="M649.39,-343.87C619.75,-337.08 588.87,-323.93 570.62,-298.75 554.48,-276.47 577.35,-247.24 595.43,-229.44"/>
<polygon fill="#63b8ff" stroke="#63b8ff" points="648.67,-347.3 659.17,-345.87 650.07,-340.44 648.67,-347.3"/>
</a>
</g>
</g>
<!-- Node20&#45;&gt;Node10 -->
<g id="edge34_Node000020_Node000010" class="edge">
<title>Node20&#45;&gt;Node10</title>
<g id="a_edge34_Node000020_Node000010"><a xlink:title=" ">
<path fill="none" stroke="#63b8ff" d="M652.51,-331.21C623.48,-322.74 590.45,-311.75 561.62,-298.75 517.79,-278.98 470.82,-248.16 443.95,-229.49"/>
<polygon fill="#63b8ff" stroke="#63b8ff" points="651.39,-334.53 661.97,-333.91 653.31,-327.8 651.39,-334.53"/>
</a>
</g>
</g>
<!-- Node20&#45;&gt;Node12 -->
<g id="edge36_Node000020_Node000012" class="edge">
<title>Node20&#45;&gt;Node12</title>
<g id="a_edge36_Node000020_Node000012"><a xlink:title=" ">
<path fill="none" stroke="#63b8ff" d="M729.63,-323.05C729.35,-288.76 723.57,-230.38 690.62,-195.75 675.82,-180.19 627.32,-166.46 585.42,-157.06"/>
<polygon fill="#63b8ff" stroke="#63b8ff" points="726.13,-322.96 729.54,-332.99 733.13,-323.03 726.13,-322.96"/>
</a>
</g>
</g>
<!-- Node20&#45;&gt;Node16 -->
<g id="edge29_Node000020_Node000016" class="edge">
<title>Node20&#45;&gt;Node16</title>
<g id="a_edge29_Node000020_Node000016"><a xlink:title=" ">
<path fill="none" stroke="#63b8ff" d="M774.92,-329.67C796.75,-319.84 822.4,-308.3 842.73,-299.15"/>
<polygon fill="#63b8ff" stroke="#63b8ff" points="773.62,-326.42 765.93,-333.71 776.49,-332.8 773.62,-326.42"/>
</a>
</g>
</g>
<!-- Node21 -->
<g id="Node000021" class="node">
<title>Node21</title>
<g id="a_Node000021"><a xlink:href="constant__solver_8h.html" target="_top" xlink:title=" ">
<polygon fill="white" stroke="#666666" points="748.25,-159.75 613,-159.75 613,-126.25 748.25,-126.25 748.25,-159.75"/>
<text text-anchor="start" x="621" y="-146.25" font-family="Helvetica,sans-Serif" font-size="10.00">include/prismspf/solvers</text>
<text text-anchor="middle" x="680.62" y="-133.5" font-family="Helvetica,sans-Serif" font-size="10.00">/constant_solver.h</text>
</a>
</g>
</g>
<!-- Node20&#45;&gt;Node21 -->
<g id="edge30_Node000020_Node000021" class="edge">
<title>Node20&#45;&gt;Node21</title>
<g id="a_edge30_Node000020_Node000021"><a xlink:title=" ">
<path fill="none" stroke="#63b8ff" d="M732.91,-323.45C736.78,-291.72 739.7,-238.09 723.62,-195.75 718.4,-181.99 707.9,-169.24 698.59,-159.84"/>
<polygon fill="#63b8ff" stroke="#63b8ff" points="729.49,-322.59 731.62,-332.97 736.43,-323.53 729.49,-322.59"/>
</a>
</g>
</g>
<!-- Node22 -->
<g id="Node000022" class="node">
<title>Node22</title>
<g id="a_Node000022"><a xlink:href="solver__base_8cc.html" target="_top" xlink:title=" ">
<polygon fill="white" stroke="#666666" points="681.38,-298.75 579.88,-298.75 579.88,-265.25 681.38,-265.25 681.38,-298.75"/>
<text text-anchor="start" x="587.88" y="-285.25" font-family="Helvetica,sans-Serif" font-size="10.00">src/solvers/solver</text>
<text text-anchor="middle" x="630.62" y="-272.5" font-family="Helvetica,sans-Serif" font-size="10.00">_base.cc</text>
</a>
</g>
</g>
<!-- Node20&#45;&gt;Node22 -->
<g id="edge38_Node000020_Node000022" class="edge">
<title>Node20&#45;&gt;Node22</title>
<g id="a_edge38_Node000020_Node000022"><a xlink:title=" ">
<path fill="none" stroke="#63b8ff" d="M696.23,-328.19C682.44,-318.69 666.65,-307.81 654.02,-299.12"/>
<polygon fill="#63b8ff" stroke="#63b8ff" points="693.93,-330.85 704.15,-333.64 697.9,-325.09 693.93,-330.85"/>
</a>
</g>
</g>
<!-- Node21&#45;&gt;Node6 -->
<g id="edge31_Node000021_Node000006" class="edge">
<title>Node21&#45;&gt;Node6</title>
<g id="a_edge31_Node000021_Node000006"><a xlink:title=" ">
<path fill="none" stroke="#63b8ff" d="M630.96,-121.43C607.1,-111.55 578.92,-99.88 556.63,-90.65"/>
<polygon fill="#63b8ff" stroke="#63b8ff" points="629.61,-124.66 640.18,-125.25 632.28,-118.19 629.61,-124.66"/>
</a>
</g>
</g>
<!-- Node25&#45;&gt;Node19 -->
<g id="edge47_Node000025_Node000019" class="edge">
<title>Node25&#45;&gt;Node19</title>
<g id="a_edge47_Node000025_Node000019"><a xlink:title=" ">
<path fill="none" stroke="#63b8ff" d="M1211.62,-392.56C1211.62,-384.34 1211.62,-375.59 1211.62,-368.38"/>
<polygon fill="#63b8ff" stroke="#63b8ff" points="1208.13,-392.49 1211.63,-402.49 1215.13,-392.49 1208.13,-392.49"/>
</a>
</g>
</g>
</g>
</svg>
