<?xml version="1.0" encoding="UTF-8" standalone="no"?>
<!DOCTYPE svg PUBLIC "-//W3C//DTD SVG 1.1//EN"
 "http://www.w3.org/Graphics/SVG/1.1/DTD/svg11.dtd">
<!-- Generated by graphviz version 2.43.0 (0)
 -->
<!-- Title: /home/runner/work/phaseField/phaseField/include/prismspf/user_inputs/user_constants.h Pages: 1 -->
<svg width="1295pt" height="302pt"
 viewBox="0.00 0.00 1294.50 302.00" xmlns="http://www.w3.org/2000/svg" xmlns:xlink="http://www.w3.org/1999/xlink">
<g id="graph0" class="graph" transform="scale(1 1) rotate(0) translate(4 298)">
<title>/home/runner/work/phaseField/phaseField/include/prismspf/user_inputs/user_constants.h</title>
<!-- Node1 -->
<g id="Node000001" class="node">
<title>Node1</title>
<g id="a_Node000001"><a xlink:title=" ">
<polygon fill="#999999" stroke="#666666" points="762.5,-294 598.5,-294 598.5,-253 762.5,-253 762.5,-294"/>
<text text-anchor="start" x="606.5" y="-282" font-family="Helvetica,sans-Serif" font-size="10.00">/home/runner/work/phaseField</text>
<text text-anchor="start" x="606.5" y="-271" font-family="Helvetica,sans-Serif" font-size="10.00">/phaseField/include/prismspf</text>
<text text-anchor="middle" x="680.5" y="-260" font-family="Helvetica,sans-Serif" font-size="10.00">/user_inputs/user_constants.h</text>
</a>
</g>
</g>
<!-- Node2 -->
<g id="Node000002" class="node">
<title>Node2</title>
<g id="a_Node000002"><a xlink:title=" ">
<polygon fill="#e0e0e0" stroke="#999999" points="115,-211.5 0,-211.5 0,-192.5 115,-192.5 115,-211.5"/>
<text text-anchor="middle" x="57.5" y="-199.5" font-family="Helvetica,sans-Serif" font-size="10.00">deal.II/base/tensor.h</text>
</a>
</g>
</g>
<!-- Node1&#45;&gt;Node2 -->
<g id="edge1_Node000001_Node000002" class="edge">
<title>Node1&#45;&gt;Node2</title>
<g id="a_edge1_Node000001_Node000002"><a xlink:title=" ">
<path fill="none" stroke="#63b8ff" d="M598.2,-267.04C489.36,-259.19 291.81,-242.76 124.5,-217 118.18,-216.03 111.56,-214.84 105.04,-213.58"/>
<polygon fill="#63b8ff" stroke="#63b8ff" points="105.43,-210.09 94.93,-211.56 104.05,-216.96 105.43,-210.09"/>
</a>
</g>
</g>
<!-- Node3 -->
<g id="Node000003" class="node">
<title>Node3</title>
<g id="a_Node000003"><a xlink:title=" ">
<polygon fill="#e0e0e0" stroke="#999999" points="255.5,-211.5 133.5,-211.5 133.5,-192.5 255.5,-192.5 255.5,-211.5"/>
<text text-anchor="middle" x="194.5" y="-199.5" font-family="Helvetica,sans-Serif" font-size="10.00">deal.II/base/utilities.h</text>
</a>
</g>
</g>
<!-- Node1&#45;&gt;Node3 -->
<g id="edge2_Node000001_Node000003" class="edge">
<title>Node1&#45;&gt;Node3</title>
<g id="a_edge2_Node000001_Node000003"><a xlink:title=" ">
<path fill="none" stroke="#63b8ff" d="M598.18,-263.11C514.08,-253.15 379.86,-236.21 264.5,-217 258.16,-215.94 251.52,-214.74 244.96,-213.5"/>
<polygon fill="#63b8ff" stroke="#63b8ff" points="245.25,-209.99 234.77,-211.52 243.91,-216.86 245.25,-209.99"/>
</a>
</g>
</g>
<!-- Node4 -->
<g id="Node000004" class="node">
<title>Node4</title>
<g id="a_Node000004"><a xlink:title=" ">
<polygon fill="#e0e0e0" stroke="#999999" points="399,-217 274,-217 274,-187 399,-187 399,-217"/>
<text text-anchor="start" x="282" y="-205" font-family="Helvetica,sans-Serif" font-size="10.00">boost/algorithm/string</text>
<text text-anchor="middle" x="336.5" y="-194" font-family="Helvetica,sans-Serif" font-size="10.00">/predicate.hpp</text>
</a>
</g>
</g>
<!-- Node1&#45;&gt;Node4 -->
<g id="edge3_Node000001_Node000004" class="edge">
<title>Node1&#45;&gt;Node4</title>
<g id="a_edge3_Node000001_Node000004"><a xlink:title=" ">
<path fill="none" stroke="#63b8ff" d="M598.1,-255.85C540.56,-244.23 464.46,-228.85 409.18,-217.68"/>
<polygon fill="#63b8ff" stroke="#63b8ff" points="409.61,-214.2 399.11,-215.65 408.22,-221.06 409.61,-214.2"/>
</a>
</g>
</g>
<!-- Node5 -->
<g id="Node000005" class="node">
<title>Node5</title>
<g id="a_Node000005"><a xlink:title=" ">
<polygon fill="#e0e0e0" stroke="#999999" points="542,-217 417,-217 417,-187 542,-187 542,-217"/>
<text text-anchor="start" x="425" y="-205" font-family="Helvetica,sans-Serif" font-size="10.00">boost/range/algorithm</text>
<text text-anchor="middle" x="479.5" y="-194" font-family="Helvetica,sans-Serif" font-size="10.00">_ext/erase.hpp</text>
</a>
</g>
</g>
<!-- Node1&#45;&gt;Node5 -->
<g id="edge4_Node000001_Node000005" class="edge">
<title>Node1&#45;&gt;Node5</title>
<g id="a_edge4_Node000001_Node000005"><a xlink:title=" ">
<path fill="none" stroke="#63b8ff" d="M623.98,-252.96C594.37,-242.72 558.43,-230.29 529.8,-220.39"/>
<polygon fill="#63b8ff" stroke="#63b8ff" points="530.6,-216.96 520,-217 528.31,-223.58 530.6,-216.96"/>
</a>
</g>
</g>
<!-- Node6 -->
<g id="Node000006" class="node">
<title>Node6</title>
<g id="a_Node000006"><a xlink:title=" ">
<polygon fill="#e0e0e0" stroke="#999999" points="662.5,-211.5 560.5,-211.5 560.5,-192.5 662.5,-192.5 662.5,-211.5"/>
<text text-anchor="middle" x="611.5" y="-199.5" font-family="Helvetica,sans-Serif" font-size="10.00">boost/variant.hpp</text>
</a>
</g>
</g>
<!-- Node1&#45;&gt;Node6 -->
<g id="edge5_Node000001_Node000006" class="edge">
<title>Node1&#45;&gt;Node6</title>
<g id="a_edge5_Node000001_Node000006"><a xlink:title=" ">
<path fill="none" stroke="#63b8ff" d="M660.91,-252.77C650.35,-242.13 637.48,-229.16 627.52,-219.13"/>
<polygon fill="#63b8ff" stroke="#63b8ff" points="629.79,-216.45 620.26,-211.82 624.82,-221.38 629.79,-216.45"/>
</a>
</g>
</g>
<!-- Node7 -->
<g id="Node000007" class="node">
<title>Node7</title>
<g id="a_Node000007"><a xlink:href="conditional__ostreams_8h.html" target="_top" xlink:title=" ">
<polygon fill="white" stroke="#666666" points="820.5,-217 680.5,-217 680.5,-187 820.5,-187 820.5,-217"/>
<text text-anchor="start" x="688.5" y="-205" font-family="Helvetica,sans-Serif" font-size="10.00">prismspf/core/conditional</text>
<text text-anchor="middle" x="750.5" y="-194" font-family="Helvetica,sans-Serif" font-size="10.00">_ostreams.h</text>
</a>
</g>
</g>
<!-- Node1&#45;&gt;Node7 -->
<g id="edge6_Node000001_Node000007" class="edge">
<title>Node1&#45;&gt;Node7</title>
<g id="a_edge6_Node000001_Node000007"><a xlink:title=" ">
<path fill="none" stroke="#63b8ff" d="M700.37,-252.77C709.34,-243.87 719.95,-233.33 729.09,-224.25"/>
<polygon fill="#63b8ff" stroke="#63b8ff" points="731.73,-226.57 736.36,-217.04 726.8,-221.6 731.73,-226.57"/>
</a>
</g>
</g>
<!-- Node9 -->
<g id="Node000009" class="node">
<title>Node9</title>
<g id="a_Node000009"><a xlink:title=" ">
<polygon fill="#e0e0e0" stroke="#999999" points="937,-19 836,-19 836,0 937,0 937,-19"/>
<text text-anchor="middle" x="886.5" y="-7" font-family="Helvetica,sans-Serif" font-size="10.00">prismspf/config.h</text>
</a>
</g>
</g>
<!-- Node1&#45;&gt;Node9 -->
<g id="edge20_Node000001_Node000009" class="edge">
<title>Node1&#45;&gt;Node9</title>
<g id="a_edge20_Node000001_Node000009"><a xlink:title=" ">
<path fill="none" stroke="#63b8ff" d="M762.54,-257.07C786.96,-248.83 811.88,-236.23 829.5,-217 855.1,-189.07 876.05,-74.81 883.54,-29.31"/>
<polygon fill="#63b8ff" stroke="#63b8ff" points="887.02,-29.75 885.15,-19.33 880.11,-28.64 887.02,-29.75"/>
</a>
</g>
</g>
<!-- Node10 -->
<g id="Node000010" class="node">
<title>Node10</title>
<g id="a_Node000010"><a xlink:href="exceptions_8h.html" target="_top" xlink:title=" ">
<polygon fill="white" stroke="#666666" points="1042,-211.5 893,-211.5 893,-192.5 1042,-192.5 1042,-211.5"/>
<text text-anchor="middle" x="967.5" y="-199.5" font-family="Helvetica,sans-Serif" font-size="10.00">prismspf/core/exceptions.h</text>
</a>
</g>
</g>
<!-- Node1&#45;&gt;Node10 -->
<g id="edge9_Node000001_Node000010" class="edge">
<title>Node1&#45;&gt;Node10</title>
<g id="a_edge9_Node000001_Node000010"><a xlink:title=" ">
<path fill="none" stroke="#63b8ff" d="M761.21,-252.96C813.4,-240.32 879.38,-224.34 922.48,-213.9"/>
<polygon fill="#63b8ff" stroke="#63b8ff" points="923.49,-217.26 932.38,-211.5 921.84,-210.46 923.49,-217.26"/>
</a>
</g>
</g>
<!-- Node14 -->
<g id="Node000014" class="node">
<title>Node14</title>
<g id="a_Node000014"><a xlink:href="type__enums_8h.html" target="_top" xlink:title=" ">
<polygon fill="white" stroke="#666666" points="1252.5,-85 1144.5,-85 1144.5,-55 1252.5,-55 1252.5,-85"/>
<text text-anchor="start" x="1152.5" y="-73" font-family="Helvetica,sans-Serif" font-size="10.00">prismspf/core/type</text>
<text text-anchor="middle" x="1198.5" y="-62" font-family="Helvetica,sans-Serif" font-size="10.00">_enums.h</text>
</a>
</g>
</g>
<!-- Node1&#45;&gt;Node14 -->
<g id="edge19_Node000001_Node000014" class="edge">
<title>Node1&#45;&gt;Node14</title>
<g id="a_edge19_Node000001_Node000014"><a xlink:title=" ">
<path fill="none" stroke="#63b8ff" d="M762.66,-266.41C838.52,-259.34 953.75,-244.87 1050.5,-217 1120.88,-196.73 1161.4,-212.29 1201.5,-151 1212.28,-134.53 1210.21,-111.8 1206.22,-94.78"/>
<polygon fill="#63b8ff" stroke="#63b8ff" points="1209.57,-93.76 1203.58,-85.02 1202.81,-95.59 1209.57,-93.76"/>
</a>
</g>
</g>
<!-- Node17 -->
<g id="Node000017" class="node">
<title>Node17</title>
<g id="a_Node000017"><a xlink:title=" ">
<polygon fill="#e0e0e0" stroke="#999999" points="1286.5,-211.5 1248.5,-211.5 1248.5,-192.5 1286.5,-192.5 1286.5,-211.5"/>
<text text-anchor="middle" x="1267.5" y="-199.5" font-family="Helvetica,sans-Serif" font-size="10.00">map</text>
</a>
</g>
</g>
<!-- Node1&#45;&gt;Node17 -->
<g id="edge21_Node000001_Node000017" class="edge">
<title>Node1&#45;&gt;Node17</title>
<g id="a_edge21_Node000001_Node000017"><a xlink:title=" ">
<path fill="none" stroke="#63b8ff" d="M762.57,-271.94C871.91,-269.47 1070.62,-258.94 1234.5,-217 1236.44,-216.5 1238.42,-215.91 1240.4,-215.25"/>
<polygon fill="#63b8ff" stroke="#63b8ff" points="1241.94,-218.41 1250.03,-211.57 1239.44,-211.87 1241.94,-218.41"/>
</a>
</g>
</g>
<!-- Node8 -->
<g id="Node000008" class="node">
<title>Node8</title>
<g id="a_Node000008"><a xlink:title=" ">
<polygon fill="#e0e0e0" stroke="#999999" points="782.5,-151 652.5,-151 652.5,-121 782.5,-121 782.5,-151"/>
<text text-anchor="start" x="660.5" y="-139" font-family="Helvetica,sans-Serif" font-size="10.00">deal.II/base/conditional</text>
<text text-anchor="middle" x="717.5" y="-128" font-family="Helvetica,sans-Serif" font-size="10.00">_ostream.h</text>
</a>
</g>
</g>
<!-- Node7&#45;&gt;Node8 -->
<g id="edge7_Node000007_Node000008" class="edge">
<title>Node7&#45;&gt;Node8</title>
<g id="a_edge7_Node000007_Node000008"><a xlink:title=" ">
<path fill="none" stroke="#63b8ff" d="M743.18,-186.8C739.16,-179.01 734.08,-169.16 729.5,-160.28"/>
<polygon fill="#63b8ff" stroke="#63b8ff" points="732.5,-158.45 724.8,-151.16 726.28,-161.66 732.5,-158.45"/>
</a>
</g>
</g>
<!-- Node7&#45;&gt;Node9 -->
<g id="edge8_Node000007_Node000009" class="edge">
<title>Node7&#45;&gt;Node9</title>
<g id="a_edge8_Node000007_Node000009"><a xlink:title=" ">
<path fill="none" stroke="#63b8ff" d="M763.79,-186.9C772.4,-177.28 783.47,-163.98 791.5,-151 816.09,-111.24 806.5,-92.44 834.5,-55 843.06,-43.55 855.06,-33.03 865.38,-25.1"/>
<polygon fill="#63b8ff" stroke="#63b8ff" points="867.56,-27.84 873.53,-19.08 863.41,-22.21 867.56,-27.84"/>
</a>
</g>
</g>
<!-- Node10&#45;&gt;Node9 -->
<g id="edge18_Node000010_Node000009" class="edge">
<title>Node10&#45;&gt;Node9</title>
<g id="a_edge18_Node000010_Node000009"><a xlink:title=" ">
<path fill="none" stroke="#63b8ff" d="M950.8,-192.35C936.27,-183.88 915.96,-169.55 905.5,-151 883.51,-111.99 883.18,-57.46 884.83,-29.18"/>
<polygon fill="#63b8ff" stroke="#63b8ff" points="888.33,-29.32 885.57,-19.09 881.35,-28.81 888.33,-29.32"/>
</a>
</g>
</g>
<!-- Node11 -->
<g id="Node000011" class="node">
<title>Node11</title>
<g id="a_Node000011"><a xlink:title=" ">
<polygon fill="#e0e0e0" stroke="#999999" points="1052.5,-145.5 914.5,-145.5 914.5,-126.5 1052.5,-126.5 1052.5,-145.5"/>
<text text-anchor="middle" x="983.5" y="-133.5" font-family="Helvetica,sans-Serif" font-size="10.00">deal.II/base/exceptions.h</text>
</a>
</g>
</g>
<!-- Node10&#45;&gt;Node11 -->
<g id="edge10_Node000010_Node000011" class="edge">
<title>Node10&#45;&gt;Node11</title>
<g id="a_edge10_Node000010_Node000011"><a xlink:title=" ">
<path fill="none" stroke="#63b8ff" d="M969.66,-192.37C971.98,-183.07 975.76,-167.98 978.78,-155.9"/>
<polygon fill="#63b8ff" stroke="#63b8ff" points="982.24,-156.46 981.27,-145.91 975.45,-154.76 982.24,-156.46"/>
</a>
</g>
</g>
<!-- Node12 -->
<g id="Node000012" class="node">
<title>Node12</title>
<g id="a_Node000012"><a xlink:href="types_8h.html" target="_top" xlink:title=" ">
<polygon fill="white" stroke="#666666" points="1192.5,-145.5 1070.5,-145.5 1070.5,-126.5 1192.5,-126.5 1192.5,-145.5"/>
<text text-anchor="middle" x="1131.5" y="-133.5" font-family="Helvetica,sans-Serif" font-size="10.00">prismspf/core/types.h</text>
</a>
</g>
</g>
<!-- Node10&#45;&gt;Node12 -->
<g id="edge11_Node000010_Node000012" class="edge">
<title>Node10&#45;&gt;Node12</title>
<g id="a_edge11_Node000010_Node000012"><a xlink:title=" ">
<path fill="none" stroke="#63b8ff" d="M989.62,-192.37C1018.06,-181.27 1067.65,-161.92 1100.02,-149.28"/>
<polygon fill="#63b8ff" stroke="#63b8ff" points="1101.43,-152.49 1109.47,-145.6 1098.88,-145.97 1101.43,-152.49"/>
</a>
</g>
</g>
<!-- Node12&#45;&gt;Node9 -->
<g id="edge17_Node000012_Node000009" class="edge">
<title>Node12&#45;&gt;Node9</title>
<g id="a_edge17_Node000012_Node000009"><a xlink:title=" ">
<path fill="none" stroke="#63b8ff" d="M1106.73,-126.41C1081.3,-117.28 1040.86,-101.84 1007.5,-85 970.95,-66.55 930.93,-40.71 907.31,-24.81"/>
<polygon fill="#63b8ff" stroke="#63b8ff" points="909.05,-21.77 898.81,-19.05 905.12,-27.56 909.05,-21.77"/>
</a>
</g>
</g>
<!-- Node13 -->
<g id="Node000013" class="node">
<title>Node13</title>
<g id="a_Node000013"><a xlink:title=" ">
<polygon fill="#e0e0e0" stroke="#999999" points="1126,-85 1017,-85 1017,-55 1126,-55 1126,-85"/>
<text text-anchor="start" x="1025" y="-73" font-family="Helvetica,sans-Serif" font-size="10.00">deal.II/matrix_free</text>
<text text-anchor="middle" x="1071.5" y="-62" font-family="Helvetica,sans-Serif" font-size="10.00">/evaluation_flags.h</text>
</a>
</g>
</g>
<!-- Node12&#45;&gt;Node13 -->
<g id="edge12_Node000012_Node000013" class="edge">
<title>Node12&#45;&gt;Node13</title>
<g id="a_edge12_Node000012_Node000013"><a xlink:title=" ">
<path fill="none" stroke="#63b8ff" d="M1123.41,-126.37C1115.4,-117.83 1102.82,-104.41 1092.05,-92.92"/>
<polygon fill="#63b8ff" stroke="#63b8ff" points="1094.36,-90.26 1084.96,-85.36 1089.25,-95.05 1094.36,-90.26"/>
</a>
</g>
</g>
<!-- Node12&#45;&gt;Node14 -->
<g id="edge13_Node000012_Node000014" class="edge">
<title>Node12&#45;&gt;Node14</title>
<g id="a_edge13_Node000012_Node000014"><a xlink:title=" ">
<path fill="none" stroke="#63b8ff" d="M1140.54,-126.37C1149.71,-117.61 1164.25,-103.71 1176.48,-92.04"/>
<polygon fill="#63b8ff" stroke="#63b8ff" points="1178.91,-94.55 1183.72,-85.12 1174.07,-89.49 1178.91,-94.55"/>
</a>
</g>
</g>
<!-- Node14&#45;&gt;Node9 -->
<g id="edge14_Node000014_Node000009" class="edge">
<title>Node14&#45;&gt;Node9</title>
<g id="a_edge14_Node000014_Node000009"><a xlink:title=" ">
<path fill="none" stroke="#63b8ff" d="M1144.23,-56.79C1141.28,-56.17 1138.36,-55.57 1135.5,-55 1071.45,-42.17 997.76,-29.22 947.26,-20.63"/>
<polygon fill="#63b8ff" stroke="#63b8ff" points="947.61,-17.14 937.17,-18.92 946.44,-24.04 947.61,-17.14"/>
</a>
</g>
</g>
<!-- Node15 -->
<g id="Node000015" class="node">
<title>Node15</title>
<g id="a_Node000015"><a xlink:title=" ">
<polygon fill="#e0e0e0" stroke="#999999" points="1190.5,-19 1140.5,-19 1140.5,0 1190.5,0 1190.5,-19"/>
<text text-anchor="middle" x="1165.5" y="-7" font-family="Helvetica,sans-Serif" font-size="10.00">cstdint</text>
</a>
</g>
</g>
<!-- Node14&#45;&gt;Node15 -->
<g id="edge15_Node000014_Node000015" class="edge">
<title>Node14&#45;&gt;Node15</title>
<g id="a_edge15_Node000014_Node000015"><a xlink:title=" ">
<path fill="none" stroke="#63b8ff" d="M1190.51,-54.84C1185.97,-46.78 1180.23,-36.62 1175.4,-28.06"/>
<polygon fill="#63b8ff" stroke="#63b8ff" points="1178.41,-26.26 1170.44,-19.27 1172.31,-29.7 1178.41,-26.26"/>
</a>
</g>
</g>
<!-- Node16 -->
<g id="Node000016" class="node">
<title>Node16</title>
<g id="a_Node000016"><a xlink:title=" ">
<polygon fill="#e0e0e0" stroke="#999999" points="1252.5,-19 1208.5,-19 1208.5,0 1252.5,0 1252.5,-19"/>
<text text-anchor="middle" x="1230.5" y="-7" font-family="Helvetica,sans-Serif" font-size="10.00">string</text>
</a>
</g>
</g>
<!-- Node14&#45;&gt;Node16 -->
<g id="edge16_Node000014_Node000016" class="edge">
<title>Node14&#45;&gt;Node16</title>
<g id="a_edge16_Node000014_Node000016"><a xlink:title=" ">
<path fill="none" stroke="#63b8ff" d="M1206.25,-54.84C1210.65,-46.78 1216.21,-36.62 1220.9,-28.06"/>
<polygon fill="#63b8ff" stroke="#63b8ff" points="1223.98,-29.72 1225.7,-19.27 1217.84,-26.36 1223.98,-29.72"/>
</a>
</g>
</g>
</g>
</svg>
