<?xml version="1.0" encoding="UTF-8" standalone="no"?>
<!DOCTYPE svg PUBLIC "-//W3C//DTD SVG 1.1//EN"
 "http://www.w3.org/Graphics/SVG/1.1/DTD/svg11.dtd">
<!-- Generated by graphviz version 12.2.1 (20241206.2353)
 -->
<!-- Title: include/prismspf/user_inputs/user_constants.h Pages: 1 -->
<svg width="1372pt" height="307pt"
 viewBox="0.00 0.00 1372.00 306.75" xmlns="http://www.w3.org/2000/svg" xmlns:xlink="http://www.w3.org/1999/xlink">
<g id="graph0" class="graph" transform="scale(1 1) rotate(0) translate(4 302.75)">
<title>include/prismspf/user_inputs/user_constants.h</title>
<!-- Node1 -->
<g id="Node000001" class="node">
<title>Node1</title>
<g id="a_Node000001"><a xlink:title=" ">
<polygon fill="#999999" stroke="#666666" points="744.5,-298.75 607.75,-298.75 607.75,-265.25 744.5,-265.25 744.5,-298.75"/>
<text text-anchor="start" x="615.75" y="-285.25" font-family="Helvetica,sans-Serif" font-size="10.00">include/prismspf/user</text>
<text text-anchor="middle" x="676.12" y="-272.5" font-family="Helvetica,sans-Serif" font-size="10.00">_inputs/user_constants.h</text>
</a>
</g>
</g>
<!-- Node2 -->
<g id="Node000002" class="node">
<title>Node2</title>
<g id="a_Node000002"><a xlink:title=" ">
<polygon fill="#e0e0e0" stroke="#999999" points="114.25,-222.88 0,-222.88 0,-202.12 114.25,-202.12 114.25,-222.88"/>
<text text-anchor="middle" x="57.12" y="-209.38" font-family="Helvetica,sans-Serif" font-size="10.00">deal.II/base/tensor.h</text>
</a>
</g>
</g>
<!-- Node1&#45;&gt;Node2 -->
<g id="edge1_Node000001_Node000002" class="edge">
<title>Node1&#45;&gt;Node2</title>
<g id="a_edge1_Node000001_Node000002"><a xlink:title=" ">
<path fill="none" stroke="#63b8ff" d="M607.62,-277.7C502.73,-271.95 296.27,-257.86 123.12,-229.25 117.39,-228.3 111.41,-227.13 105.5,-225.87"/>
<polygon fill="#63b8ff" stroke="#63b8ff" points="106.29,-222.46 95.76,-223.67 104.75,-229.28 106.29,-222.46"/>
</a>
</g>
</g>
<!-- Node3 -->
<g id="Node000003" class="node">
<title>Node3</title>
<g id="a_Node000003"><a xlink:title=" ">
<polygon fill="#e0e0e0" stroke="#999999" points="253.62,-222.88 132.62,-222.88 132.62,-202.12 253.62,-202.12 253.62,-222.88"/>
<text text-anchor="middle" x="193.12" y="-209.38" font-family="Helvetica,sans-Serif" font-size="10.00">deal.II/base/utilities.h</text>
</a>
</g>
</g>
<!-- Node1&#45;&gt;Node3 -->
<g id="edge2_Node000001_Node000003" class="edge">
<title>Node1&#45;&gt;Node3</title>
<g id="a_edge2_Node000001_Node000003"><a xlink:title=" ">
<path fill="none" stroke="#63b8ff" d="M607.5,-274.45C525.3,-266.14 383.6,-250.3 263.12,-229.25 257.14,-228.2 250.9,-226.99 244.71,-225.7"/>
<polygon fill="#63b8ff" stroke="#63b8ff" points="245.7,-222.33 235.19,-223.65 244.23,-229.17 245.7,-222.33"/>
</a>
</g>
</g>
<!-- Node4 -->
<g id="Node000004" class="node">
<title>Node4</title>
<g id="a_Node000004"><a xlink:title=" ">
<polygon fill="#e0e0e0" stroke="#999999" points="396.12,-229.25 272.12,-229.25 272.12,-195.75 396.12,-195.75 396.12,-229.25"/>
<text text-anchor="start" x="280.12" y="-215.75" font-family="Helvetica,sans-Serif" font-size="10.00">boost/algorithm/string</text>
<text text-anchor="middle" x="334.12" y="-203" font-family="Helvetica,sans-Serif" font-size="10.00">/predicate.hpp</text>
</a>
</g>
</g>
<!-- Node1&#45;&gt;Node4 -->
<g id="edge3_Node000001_Node000004" class="edge">
<title>Node1&#45;&gt;Node4</title>
<g id="a_edge3_Node000001_Node000004"><a xlink:title=" ">
<path fill="none" stroke="#63b8ff" d="M607.52,-268.48C555.24,-258.8 481.19,-244.82 407.33,-229.68"/>
<polygon fill="#63b8ff" stroke="#63b8ff" points="408.42,-226.33 397.92,-227.74 407.01,-233.18 408.42,-226.33"/>
</a>
</g>
</g>
<!-- Node5 -->
<g id="Node000005" class="node">
<title>Node5</title>
<g id="a_Node000005"><a xlink:title=" ">
<polygon fill="#e0e0e0" stroke="#999999" points="538.12,-229.25 414.12,-229.25 414.12,-195.75 538.12,-195.75 538.12,-229.25"/>
<text text-anchor="start" x="422.12" y="-215.75" font-family="Helvetica,sans-Serif" font-size="10.00">boost/range/algorithm</text>
<text text-anchor="middle" x="476.12" y="-203" font-family="Helvetica,sans-Serif" font-size="10.00">_ext/erase.hpp</text>
</a>
</g>
</g>
<!-- Node1&#45;&gt;Node5 -->
<g id="edge4_Node000001_Node000005" class="edge">
<title>Node1&#45;&gt;Node5</title>
<g id="a_edge4_Node000001_Node000005"><a xlink:title=" ">
<path fill="none" stroke="#63b8ff" d="M628.22,-264.83C600.12,-255.35 564.41,-243.3 534.65,-233.25"/>
<polygon fill="#63b8ff" stroke="#63b8ff" points="536.01,-230.02 525.42,-230.14 533.78,-236.65 536.01,-230.02"/>
</a>
</g>
</g>
<!-- Node6 -->
<g id="Node000006" class="node">
<title>Node6</title>
<g id="a_Node000006"><a xlink:title=" ">
<polygon fill="#e0e0e0" stroke="#999999" points="657.88,-222.88 556.38,-222.88 556.38,-202.12 657.88,-202.12 657.88,-222.88"/>
<text text-anchor="middle" x="607.12" y="-209.38" font-family="Helvetica,sans-Serif" font-size="10.00">boost/variant.hpp</text>
</a>
</g>
</g>
<!-- Node1&#45;&gt;Node6 -->
<g id="edge5_Node000001_Node000006" class="edge">
<title>Node1&#45;&gt;Node6</title>
<g id="a_edge5_Node000001_Node000006"><a xlink:title=" ">
<path fill="none" stroke="#63b8ff" d="M659.77,-265C649.44,-254.89 636.06,-241.81 625.38,-231.36"/>
<polygon fill="#63b8ff" stroke="#63b8ff" points="627.84,-228.87 618.25,-224.38 622.95,-233.88 627.84,-228.87"/>
</a>
</g>
</g>
<!-- Node7 -->
<g id="Node000007" class="node">
<title>Node7</title>
<g id="a_Node000007"><a xlink:href="conditional__ostreams_8h.html" target="_top" xlink:title=" ">
<polygon fill="white" stroke="#666666" points="816,-229.25 676.25,-229.25 676.25,-195.75 816,-195.75 816,-229.25"/>
<text text-anchor="start" x="684.25" y="-215.75" font-family="Helvetica,sans-Serif" font-size="10.00">prismspf/core/conditional</text>
<text text-anchor="middle" x="746.12" y="-203" font-family="Helvetica,sans-Serif" font-size="10.00">_ostreams.h</text>
</a>
</g>
</g>
<!-- Node1&#45;&gt;Node7 -->
<g id="edge6_Node000001_Node000007" class="edge">
<title>Node1&#45;&gt;Node7</title>
<g id="a_edge6_Node000001_Node000007"><a xlink:title=" ">
<path fill="none" stroke="#63b8ff" d="M692.71,-265C701.34,-256.68 712.06,-246.35 721.63,-237.12"/>
<polygon fill="#63b8ff" stroke="#63b8ff" points="723.8,-239.89 728.57,-230.43 718.94,-234.85 723.8,-239.89"/>
</a>
</g>
</g>
<!-- Node9 -->
<g id="Node000009" class="node">
<title>Node9</title>
<g id="a_Node000009"><a xlink:title=" ">
<polygon fill="#e0e0e0" stroke="#999999" points="932.12,-20.75 832.12,-20.75 832.12,0 932.12,0 932.12,-20.75"/>
<text text-anchor="middle" x="882.12" y="-7.25" font-family="Helvetica,sans-Serif" font-size="10.00">prismspf/config.h</text>
</a>
</g>
</g>
<!-- Node1&#45;&gt;Node9 -->
<g id="edge21_Node000001_Node000009" class="edge">
<title>Node1&#45;&gt;Node9</title>
<g id="a_edge21_Node000001_Node000009"><a xlink:title=" ">
<path fill="none" stroke="#63b8ff" d="M744.76,-271.68C773.18,-264.49 804.3,-251.77 825.12,-229.25 838.73,-214.53 867.12,-83.56 877.87,-32.05"/>
<polygon fill="#63b8ff" stroke="#63b8ff" points="881.25,-33.02 879.85,-22.52 874.39,-31.6 881.25,-33.02"/>
</a>
</g>
</g>
<!-- Node10 -->
<g id="Node000010" class="node">
<title>Node10</title>
<g id="a_Node000010"><a xlink:href="exceptions_8h.html" target="_top" xlink:title=" ">
<polygon fill="white" stroke="#666666" points="1053.12,-222.88 905.12,-222.88 905.12,-202.12 1053.12,-202.12 1053.12,-222.88"/>
<text text-anchor="middle" x="979.12" y="-209.38" font-family="Helvetica,sans-Serif" font-size="10.00">prismspf/core/exceptions.h</text>
</a>
</g>
</g>
<!-- Node1&#45;&gt;Node10 -->
<g id="edge9_Node000001_Node000010" class="edge">
<title>Node1&#45;&gt;Node10</title>
<g id="a_edge9_Node000001_Node000010"><a xlink:title=" ">
<path fill="none" stroke="#63b8ff" d="M744.88,-265.68C799.1,-253.61 873.71,-236.98 924.04,-225.77"/>
<polygon fill="#63b8ff" stroke="#63b8ff" points="924.54,-229.25 933.54,-223.65 923.02,-222.41 924.54,-229.25"/>
</a>
</g>
</g>
<!-- Node14 -->
<g id="Node000014" class="node">
<title>Node14</title>
<g id="a_Node000014"><a xlink:href="type__enums_8h.html" target="_top" xlink:title=" ">
<polygon fill="white" stroke="#666666" points="1274.88,-90.25 1167.38,-90.25 1167.38,-56.75 1274.88,-56.75 1274.88,-90.25"/>
<text text-anchor="start" x="1175.38" y="-76.75" font-family="Helvetica,sans-Serif" font-size="10.00">prismspf/core/type</text>
<text text-anchor="middle" x="1221.12" y="-64" font-family="Helvetica,sans-Serif" font-size="10.00">_enums.h</text>
</a>
</g>
</g>
<!-- Node1&#45;&gt;Node14 -->
<g id="edge20_Node000001_Node000014" class="edge">
<title>Node1&#45;&gt;Node14</title>
<g id="a_edge20_Node000001_Node000014"><a xlink:title=" ">
<path fill="none" stroke="#63b8ff" d="M744.81,-278.33C889.34,-271.04 1216.73,-245.25 1279.12,-159.75 1294.11,-139.22 1274.63,-115.24 1254.31,-97.95"/>
<polygon fill="#63b8ff" stroke="#63b8ff" points="1256.51,-95.23 1246.52,-91.69 1252.12,-100.68 1256.51,-95.23"/>
</a>
</g>
</g>
<!-- Node18 -->
<g id="Node000018" class="node">
<title>Node18</title>
<g id="a_Node000018"><a xlink:title=" ">
<polygon fill="#e0e0e0" stroke="#999999" points="1364,-222.88 1326.25,-222.88 1326.25,-202.12 1364,-202.12 1364,-222.88"/>
<text text-anchor="middle" x="1345.12" y="-209.38" font-family="Helvetica,sans-Serif" font-size="10.00">map</text>
</a>
</g>
</g>
<!-- Node1&#45;&gt;Node18 -->
<g id="edge22_Node000001_Node000018" class="edge">
<title>Node1&#45;&gt;Node18</title>
<g id="a_edge22_Node000001_Node000018"><a xlink:title=" ">
<path fill="none" stroke="#63b8ff" d="M744.84,-278.56C886.53,-273 1206.7,-257.66 1312.12,-229.25 1313.94,-228.76 1315.77,-228.18 1317.6,-227.52"/>
<polygon fill="#63b8ff" stroke="#63b8ff" points="1318.52,-230.93 1326.37,-223.82 1315.8,-224.48 1318.52,-230.93"/>
</a>
</g>
</g>
<!-- Node8 -->
<g id="Node000008" class="node">
<title>Node8</title>
<g id="a_Node000008"><a xlink:title=" ">
<polygon fill="#e0e0e0" stroke="#999999" points="777.75,-159.75 648.5,-159.75 648.5,-126.25 777.75,-126.25 777.75,-159.75"/>
<text text-anchor="start" x="656.5" y="-146.25" font-family="Helvetica,sans-Serif" font-size="10.00">deal.II/base/conditional</text>
<text text-anchor="middle" x="713.12" y="-133.5" font-family="Helvetica,sans-Serif" font-size="10.00">_ostream.h</text>
</a>
</g>
</g>
<!-- Node7&#45;&gt;Node8 -->
<g id="edge7_Node000007_Node000008" class="edge">
<title>Node7&#45;&gt;Node8</title>
<g id="a_edge7_Node000007_Node000008"><a xlink:title=" ">
<path fill="none" stroke="#63b8ff" d="M738.3,-195.5C734.61,-187.94 730.09,-178.71 725.92,-170.16"/>
<polygon fill="#63b8ff" stroke="#63b8ff" points="729.09,-168.69 721.55,-161.24 722.8,-171.76 729.09,-168.69"/>
</a>
</g>
</g>
<!-- Node7&#45;&gt;Node9 -->
<g id="edge8_Node000007_Node000009" class="edge">
<title>Node7&#45;&gt;Node9</title>
<g id="a_edge8_Node000007_Node000009"><a xlink:title=" ">
<path fill="none" stroke="#63b8ff" d="M760.64,-195.56C769.1,-185.73 779.56,-172.59 787.12,-159.75 812.32,-117.02 801.12,-97 830.12,-56.75 837.98,-45.85 848.93,-35.79 858.76,-27.93"/>
<polygon fill="#63b8ff" stroke="#63b8ff" points="860.67,-30.87 866.5,-22.02 856.43,-25.31 860.67,-30.87"/>
</a>
</g>
</g>
<!-- Node10&#45;&gt;Node9 -->
<g id="edge18_Node000010_Node000009" class="edge">
<title>Node10&#45;&gt;Node9</title>
<g id="a_edge18_Node000010_Node000009"><a xlink:title=" ">
<path fill="none" stroke="#63b8ff" d="M954.12,-201.69C936.29,-193.32 913.39,-179.49 901.12,-159.75 876.41,-119.99 877.08,-62.66 879.64,-32.22"/>
<polygon fill="#63b8ff" stroke="#63b8ff" points="883.1,-32.75 880.63,-22.45 876.14,-32.05 883.1,-32.75"/>
</a>
</g>
</g>
<!-- Node11 -->
<g id="Node000011" class="node">
<title>Node11</title>
<g id="a_Node000011"><a xlink:title=" ">
<polygon fill="#e0e0e0" stroke="#999999" points="1047.88,-153.38 910.38,-153.38 910.38,-132.62 1047.88,-132.62 1047.88,-153.38"/>
<text text-anchor="middle" x="979.12" y="-139.88" font-family="Helvetica,sans-Serif" font-size="10.00">deal.II/base/exceptions.h</text>
</a>
</g>
</g>
<!-- Node10&#45;&gt;Node11 -->
<g id="edge10_Node000010_Node000011" class="edge">
<title>Node10&#45;&gt;Node11</title>
<g id="a_edge10_Node000010_Node000011"><a xlink:title=" ">
<path fill="none" stroke="#63b8ff" d="M979.12,-201.83C979.12,-192.21 979.12,-177.13 979.12,-164.79"/>
<polygon fill="#63b8ff" stroke="#63b8ff" points="982.63,-165.17 979.13,-155.17 975.63,-165.17 982.63,-165.17"/>
</a>
</g>
</g>
<!-- Node12 -->
<g id="Node000012" class="node">
<title>Node12</title>
<g id="a_Node000012"><a xlink:href="types_8h.html" target="_top" xlink:title=" ">
<polygon fill="white" stroke="#666666" points="1188,-153.38 1066.25,-153.38 1066.25,-132.62 1188,-132.62 1188,-153.38"/>
<text text-anchor="middle" x="1127.12" y="-139.88" font-family="Helvetica,sans-Serif" font-size="10.00">prismspf/core/types.h</text>
</a>
</g>
</g>
<!-- Node10&#45;&gt;Node12 -->
<g id="edge11_Node000010_Node000012" class="edge">
<title>Node10&#45;&gt;Node12</title>
<g id="a_edge11_Node000010_Node000012"><a xlink:title=" ">
<path fill="none" stroke="#63b8ff" d="M1000.65,-201.68C1025.53,-190.34 1066.72,-171.55 1095.3,-158.51"/>
<polygon fill="#63b8ff" stroke="#63b8ff" points="1096.56,-161.79 1104.2,-154.45 1093.65,-155.42 1096.56,-161.79"/>
</a>
</g>
</g>
<!-- Node17 -->
<g id="Node000017" class="node">
<title>Node17</title>
<g id="a_Node000017"><a xlink:title=" ">
<polygon fill="#e0e0e0" stroke="#999999" points="1270.12,-153.38 1206.12,-153.38 1206.12,-132.62 1270.12,-132.62 1270.12,-153.38"/>
<text text-anchor="middle" x="1238.12" y="-139.88" font-family="Helvetica,sans-Serif" font-size="10.00">exception</text>
</a>
</g>
</g>
<!-- Node10&#45;&gt;Node17 -->
<g id="edge19_Node000010_Node000017" class="edge">
<title>Node10&#45;&gt;Node17</title>
<g id="a_edge19_Node000010_Node000017"><a xlink:title=" ">
<path fill="none" stroke="#63b8ff" d="M1028.98,-201.65C1073.5,-192.38 1140.27,-177.33 1197.12,-159.75 1199.2,-159.11 1201.32,-158.41 1203.46,-157.69"/>
<polygon fill="#63b8ff" stroke="#63b8ff" points="1204.39,-161.07 1212.61,-154.38 1202.01,-154.49 1204.39,-161.07"/>
</a>
</g>
</g>
<!-- Node12&#45;&gt;Node9 -->
<g id="edge17_Node000012_Node000009" class="edge">
<title>Node12&#45;&gt;Node9</title>
<g id="a_edge17_Node000012_Node000009"><a xlink:title=" ">
<path fill="none" stroke="#63b8ff" d="M1108.71,-132.18C1066.22,-109.53 961.08,-53.47 910.37,-26.44"/>
<polygon fill="#63b8ff" stroke="#63b8ff" points="912.23,-23.46 901.75,-21.84 908.93,-29.63 912.23,-23.46"/>
</a>
</g>
</g>
<!-- Node13 -->
<g id="Node000013" class="node">
<title>Node13</title>
<g id="a_Node000013"><a xlink:title=" ">
<polygon fill="#e0e0e0" stroke="#999999" points="1149.25,-90.25 1041,-90.25 1041,-56.75 1149.25,-56.75 1149.25,-90.25"/>
<text text-anchor="start" x="1049" y="-76.75" font-family="Helvetica,sans-Serif" font-size="10.00">deal.II/matrix_free</text>
<text text-anchor="middle" x="1095.12" y="-64" font-family="Helvetica,sans-Serif" font-size="10.00">/evaluation_flags.h</text>
</a>
</g>
</g>
<!-- Node12&#45;&gt;Node13 -->
<g id="edge12_Node000012_Node000013" class="edge">
<title>Node12&#45;&gt;Node13</title>
<g id="a_edge12_Node000012_Node000013"><a xlink:title=" ">
<path fill="none" stroke="#63b8ff" d="M1122.54,-132.33C1118.64,-124.1 1112.84,-111.88 1107.59,-100.79"/>
<polygon fill="#63b8ff" stroke="#63b8ff" points="1110.89,-99.57 1103.44,-92.04 1104.56,-102.57 1110.89,-99.57"/>
</a>
</g>
</g>
<!-- Node12&#45;&gt;Node14 -->
<g id="edge13_Node000012_Node000014" class="edge">
<title>Node12&#45;&gt;Node14</title>
<g id="a_edge13_Node000012_Node000014"><a xlink:title=" ">
<path fill="none" stroke="#63b8ff" d="M1140.59,-132.33C1153.36,-123.16 1173.01,-109.05 1189.7,-97.07"/>
<polygon fill="#63b8ff" stroke="#63b8ff" points="1191.3,-100.23 1197.38,-91.55 1187.21,-94.54 1191.3,-100.23"/>
</a>
</g>
</g>
<!-- Node14&#45;&gt;Node9 -->
<g id="edge14_Node000014_Node000009" class="edge">
<title>Node14&#45;&gt;Node9</title>
<g id="a_edge14_Node000014_Node000009"><a xlink:title=" ">
<path fill="none" stroke="#63b8ff" d="M1166.89,-58.64C1163.93,-57.98 1161,-57.34 1158.12,-56.75 1084.83,-41.59 999.74,-28.24 943.64,-20.01"/>
<polygon fill="#63b8ff" stroke="#63b8ff" points="944.36,-16.58 933.96,-18.6 943.35,-23.51 944.36,-16.58"/>
</a>
</g>
</g>
<!-- Node15 -->
<g id="Node000015" class="node">
<title>Node15</title>
<g id="a_Node000015"><a xlink:title=" ">
<polygon fill="#e0e0e0" stroke="#999999" points="1213.62,-20.75 1164.62,-20.75 1164.62,0 1213.62,0 1213.62,-20.75"/>
<text text-anchor="middle" x="1189.12" y="-7.25" font-family="Helvetica,sans-Serif" font-size="10.00">cstdint</text>
</a>
</g>
</g>
<!-- Node14&#45;&gt;Node15 -->
<g id="edge15_Node000014_Node000015" class="edge">
<title>Node14&#45;&gt;Node15</title>
<g id="a_edge15_Node000014_Node000015"><a xlink:title=" ">
<path fill="none" stroke="#63b8ff" d="M1212.72,-56.44C1208.69,-48.76 1203.84,-39.48 1199.58,-31.34"/>
<polygon fill="#63b8ff" stroke="#63b8ff" points="1202.72,-29.79 1194.98,-22.56 1196.52,-33.04 1202.72,-29.79"/>
</a>
</g>
</g>
<!-- Node16 -->
<g id="Node000016" class="node">
<title>Node16</title>
<g id="a_Node000016"><a xlink:title=" ">
<polygon fill="#e0e0e0" stroke="#999999" points="1275,-20.75 1231.25,-20.75 1231.25,0 1275,0 1275,-20.75"/>
<text text-anchor="middle" x="1253.12" y="-7.25" font-family="Helvetica,sans-Serif" font-size="10.00">string</text>
</a>
</g>
</g>
<!-- Node14&#45;&gt;Node16 -->
<g id="edge16_Node000014_Node000016" class="edge">
<title>Node14&#45;&gt;Node16</title>
<g id="a_edge16_Node000014_Node000016"><a xlink:title=" ">
<path fill="none" stroke="#63b8ff" d="M1229.53,-56.44C1233.56,-48.76 1238.41,-39.48 1242.67,-31.34"/>
<polygon fill="#63b8ff" stroke="#63b8ff" points="1245.73,-33.04 1247.27,-22.56 1239.53,-29.79 1245.73,-33.04"/>
</a>
</g>
</g>
</g>
</svg>
