<?xml version="1.0" encoding="UTF-8" standalone="no"?>
<!DOCTYPE svg PUBLIC "-//W3C//DTD SVG 1.1//EN"
 "http://www.w3.org/Graphics/SVG/1.1/DTD/svg11.dtd">
<!-- Generated by graphviz version 12.2.1 (20241206.2353)
 -->
<!-- Title: include/prismspf/utilities/utilities.h Pages: 1 -->
<svg width="1368pt" height="168pt"
 viewBox="0.00 0.00 1368.13 167.75" xmlns="http://www.w3.org/2000/svg" xmlns:xlink="http://www.w3.org/1999/xlink">
<g id="graph0" class="graph" transform="scale(1 1) rotate(0) translate(4 163.75)">
<title>include/prismspf/utilities/utilities.h</title>
<!-- Node1 -->
<g id="Node000001" class="node">
<title>Node1</title>
<g id="a_Node000001"><a xlink:title=" ">
<polygon fill="#999999" stroke="#666666" points="873.12,-159.75 736.38,-159.75 736.38,-126.25 873.12,-126.25 873.12,-159.75"/>
<text text-anchor="start" x="744.38" y="-146.25" font-family="Helvetica,sans-Serif" font-size="10.00">include/prismspf/utilities</text>
<text text-anchor="middle" x="804.75" y="-133.5" font-family="Helvetica,sans-Serif" font-size="10.00">/utilities.h</text>
</a>
</g>
</g>
<!-- Node2 -->
<g id="Node000002" class="node">
<title>Node2</title>
<g id="a_Node000002"><a xlink:title=" ">
<polygon fill="#e0e0e0" stroke="#999999" points="137.5,-83.88 0,-83.88 0,-63.12 137.5,-63.12 137.5,-83.88"/>
<text text-anchor="middle" x="68.75" y="-70.38" font-family="Helvetica,sans-Serif" font-size="10.00">deal.II/base/exceptions.h</text>
</a>
</g>
</g>
<!-- Node1&#45;&gt;Node2 -->
<g id="edge1_Node000001_Node000002" class="edge">
<title>Node1&#45;&gt;Node2</title>
<g id="a_edge1_Node000001_Node000002"><a xlink:title=" ">
<path fill="none" stroke="#63b8ff" d="M736.14,-139.4C616.01,-134.23 359.96,-120.45 145.75,-90.25 138.48,-89.23 130.87,-87.94 123.38,-86.54"/>
<polygon fill="#63b8ff" stroke="#63b8ff" points="124.13,-83.12 113.65,-84.64 122.79,-89.99 124.13,-83.12"/>
</a>
</g>
</g>
<!-- Node3 -->
<g id="Node000003" class="node">
<title>Node3</title>
<g id="a_Node000003"><a xlink:title=" ">
<polygon fill="#e0e0e0" stroke="#999999" points="264.25,-83.88 155.25,-83.88 155.25,-63.12 264.25,-63.12 264.25,-83.88"/>
<text text-anchor="middle" x="209.75" y="-70.38" font-family="Helvetica,sans-Serif" font-size="10.00">deal.II/base/point.h</text>
</a>
</g>
</g>
<!-- Node1&#45;&gt;Node3 -->
<g id="edge2_Node000001_Node000003" class="edge">
<title>Node1&#45;&gt;Node3</title>
<g id="a_edge2_Node000001_Node000003"><a xlink:title=" ">
<path fill="none" stroke="#63b8ff" d="M736.01,-138.47C634.39,-132.55 438.32,-118.37 273.75,-90.25 268.18,-89.3 262.38,-88.13 256.65,-86.86"/>
<polygon fill="#63b8ff" stroke="#63b8ff" points="257.78,-83.53 247.25,-84.67 256.2,-90.35 257.78,-83.53"/>
</a>
</g>
</g>
<!-- Node4 -->
<g id="Node000004" class="node">
<title>Node4</title>
<g id="a_Node000004"><a xlink:title=" ">
<polygon fill="#e0e0e0" stroke="#999999" points="396.88,-83.88 282.62,-83.88 282.62,-63.12 396.88,-63.12 396.88,-83.88"/>
<text text-anchor="middle" x="339.75" y="-70.38" font-family="Helvetica,sans-Serif" font-size="10.00">deal.II/base/tensor.h</text>
</a>
</g>
</g>
<!-- Node1&#45;&gt;Node4 -->
<g id="edge3_Node000001_Node000004" class="edge">
<title>Node1&#45;&gt;Node4</title>
<g id="a_edge3_Node000001_Node000004"><a xlink:title=" ">
<path fill="none" stroke="#63b8ff" d="M736.14,-134.84C657.31,-126.18 524.22,-110.25 410.75,-90.25 404.77,-89.2 398.52,-87.98 392.33,-86.7"/>
<polygon fill="#63b8ff" stroke="#63b8ff" points="393.29,-83.33 382.78,-84.67 391.83,-90.18 393.29,-83.33"/>
</a>
</g>
</g>
<!-- Node5 -->
<g id="Node000005" class="node">
<title>Node5</title>
<g id="a_Node000005"><a xlink:title=" ">
<polygon fill="#e0e0e0" stroke="#999999" points="705.75,-20.75 557.75,-20.75 557.75,0 705.75,0 705.75,-20.75"/>
<text text-anchor="middle" x="631.75" y="-7.25" font-family="Helvetica,sans-Serif" font-size="10.00">deal.II/base/vectorization.h</text>
</a>
</g>
</g>
<!-- Node1&#45;&gt;Node5 -->
<g id="edge4_Node000001_Node000005" class="edge">
<title>Node1&#45;&gt;Node5</title>
<g id="a_edge4_Node000001_Node000005"><a xlink:title=" ">
<path fill="none" stroke="#63b8ff" d="M736.1,-142.39C642.12,-141.29 480.82,-133.01 443.75,-90.25 408.52,-49.61 481.36,-29.42 546.38,-19.73"/>
<polygon fill="#63b8ff" stroke="#63b8ff" points="546.65,-23.23 556.06,-18.36 545.67,-16.3 546.65,-23.23"/>
</a>
</g>
</g>
<!-- Node6 -->
<g id="Node000006" class="node">
<title>Node6</title>
<g id="a_Node000006"><a xlink:title=" ">
<polygon fill="#e0e0e0" stroke="#999999" points="560.88,-90.25 452.62,-90.25 452.62,-56.75 560.88,-56.75 560.88,-90.25"/>
<text text-anchor="start" x="460.62" y="-76.75" font-family="Helvetica,sans-Serif" font-size="10.00">deal.II/matrix_free</text>
<text text-anchor="middle" x="506.75" y="-64" font-family="Helvetica,sans-Serif" font-size="10.00">/evaluation_flags.h</text>
</a>
</g>
</g>
<!-- Node1&#45;&gt;Node6 -->
<g id="edge5_Node000001_Node000006" class="edge">
<title>Node1&#45;&gt;Node6</title>
<g id="a_edge5_Node000001_Node000006"><a xlink:title=" ">
<path fill="none" stroke="#63b8ff" d="M736,-127.39C691.74,-117.87 632.71,-104.94 572.26,-90.81"/>
<polygon fill="#63b8ff" stroke="#63b8ff" points="573.37,-87.48 562.84,-88.6 571.77,-94.29 573.37,-87.48"/>
</a>
</g>
</g>
<!-- Node7 -->
<g id="Node000007" class="node">
<title>Node7</title>
<g id="a_Node000007"><a xlink:title=" ">
<polygon fill="#e0e0e0" stroke="#999999" points="724.25,-83.88 579.25,-83.88 579.25,-63.12 724.25,-63.12 724.25,-83.88"/>
<text text-anchor="middle" x="651.75" y="-70.38" font-family="Helvetica,sans-Serif" font-size="10.00">boost/range/algorithm.hpp</text>
</a>
</g>
</g>
<!-- Node1&#45;&gt;Node7 -->
<g id="edge6_Node000001_Node000007" class="edge">
<title>Node1&#45;&gt;Node7</title>
<g id="a_edge6_Node000001_Node000007"><a xlink:title=" ">
<path fill="none" stroke="#63b8ff" d="M768.1,-125.83C742.54,-114.55 708.73,-99.64 684.15,-88.79"/>
<polygon fill="#63b8ff" stroke="#63b8ff" points="685.84,-85.72 675.28,-84.88 683.02,-92.12 685.84,-85.72"/>
</a>
</g>
</g>
<!-- Node8 -->
<g id="Node000008" class="node">
<title>Node8</title>
<g id="a_Node000008"><a xlink:title=" ">
<polygon fill="#e0e0e0" stroke="#999999" points="866.75,-90.25 742.75,-90.25 742.75,-56.75 866.75,-56.75 866.75,-90.25"/>
<text text-anchor="start" x="750.75" y="-76.75" font-family="Helvetica,sans-Serif" font-size="10.00">boost/range/algorithm</text>
<text text-anchor="middle" x="804.75" y="-64" font-family="Helvetica,sans-Serif" font-size="10.00">_ext.hpp</text>
</a>
</g>
</g>
<!-- Node1&#45;&gt;Node8 -->
<g id="edge7_Node000001_Node000008" class="edge">
<title>Node1&#45;&gt;Node8</title>
<g id="a_edge7_Node000001_Node000008"><a xlink:title=" ">
<path fill="none" stroke="#63b8ff" d="M804.75,-126C804.75,-118.77 804.75,-110.03 804.75,-101.81"/>
<polygon fill="#63b8ff" stroke="#63b8ff" points="808.25,-101.9 804.75,-91.9 801.25,-101.9 808.25,-101.9"/>
</a>
</g>
</g>
<!-- Node9 -->
<g id="Node000009" class="node">
<title>Node9</title>
<g id="a_Node000009"><a xlink:title=" ">
<polygon fill="#e0e0e0" stroke="#999999" points="1256.75,-20.75 1156.75,-20.75 1156.75,0 1256.75,0 1256.75,-20.75"/>
<text text-anchor="middle" x="1206.75" y="-7.25" font-family="Helvetica,sans-Serif" font-size="10.00">prismspf/config.h</text>
</a>
</g>
</g>
<!-- Node1&#45;&gt;Node9 -->
<g id="edge8_Node000001_Node000009" class="edge">
<title>Node1&#45;&gt;Node9</title>
<g id="a_edge8_Node000001_Node000009"><a xlink:title=" ">
<path fill="none" stroke="#63b8ff" d="M873.48,-140.56C1013.26,-136.91 1320.13,-125 1351.75,-90.25 1382.18,-56.81 1320.02,-34.63 1267.85,-22.53"/>
<polygon fill="#63b8ff" stroke="#63b8ff" points="1268.9,-19.18 1258.38,-20.43 1267.38,-26.01 1268.9,-19.18"/>
</a>
</g>
</g>
<!-- Node10 -->
<g id="Node000010" class="node">
<title>Node10</title>
<g id="a_Node000010"><a xlink:title=" ">
<polygon fill="#e0e0e0" stroke="#999999" points="1080.5,-83.88 1039,-83.88 1039,-63.12 1080.5,-63.12 1080.5,-83.88"/>
<text text-anchor="middle" x="1059.75" y="-70.38" font-family="Helvetica,sans-Serif" font-size="10.00">array</text>
</a>
</g>
</g>
<!-- Node1&#45;&gt;Node10 -->
<g id="edge9_Node000001_Node000010" class="edge">
<title>Node1&#45;&gt;Node10</title>
<g id="a_edge9_Node000001_Node000010"><a xlink:title=" ">
<path fill="none" stroke="#63b8ff" d="M873.52,-130.94C918.77,-122.51 978.82,-109.12 1029.75,-90.25 1030.72,-89.89 1031.69,-89.51 1032.66,-89.11"/>
<polygon fill="#63b8ff" stroke="#63b8ff" points="1034.03,-92.34 1041.6,-84.92 1031.05,-86 1034.03,-92.34"/>
</a>
</g>
</g>
<!-- Node11 -->
<g id="Node000011" class="node">
<title>Node11</title>
<g id="a_Node000011"><a xlink:title=" ">
<polygon fill="#e0e0e0" stroke="#999999" points="1142.62,-83.88 1098.88,-83.88 1098.88,-63.12 1142.62,-63.12 1142.62,-83.88"/>
<text text-anchor="middle" x="1120.75" y="-70.38" font-family="Helvetica,sans-Serif" font-size="10.00">string</text>
</a>
</g>
</g>
<!-- Node1&#45;&gt;Node11 -->
<g id="edge10_Node000001_Node000011" class="edge">
<title>Node1&#45;&gt;Node11</title>
<g id="a_edge10_Node000001_Node000011"><a xlink:title=" ">
<path fill="none" stroke="#63b8ff" d="M873.52,-135.18C932.13,-128.05 1018.02,-114.41 1089.75,-90.25 1090.92,-89.86 1092.11,-89.42 1093.29,-88.96"/>
<polygon fill="#63b8ff" stroke="#63b8ff" points="1094.7,-92.17 1102.38,-84.87 1091.82,-85.78 1094.7,-92.17"/>
</a>
</g>
</g>
<!-- Node12 -->
<g id="Node000012" class="node">
<title>Node12</title>
<g id="a_Node000012"><a xlink:title=" ">
<polygon fill="#e0e0e0" stroke="#999999" points="1232.88,-83.88 1160.62,-83.88 1160.62,-63.12 1232.88,-63.12 1232.88,-83.88"/>
<text text-anchor="middle" x="1196.75" y="-70.38" font-family="Helvetica,sans-Serif" font-size="10.00">string_view</text>
</a>
</g>
</g>
<!-- Node1&#45;&gt;Node12 -->
<g id="edge11_Node000001_Node000012" class="edge">
<title>Node1&#45;&gt;Node12</title>
<g id="a_edge11_Node000001_Node000012"><a xlink:title=" ">
<path fill="none" stroke="#63b8ff" d="M873.31,-135.63C943.85,-128.19 1056.55,-113.78 1151.75,-90.25 1154.66,-89.53 1157.65,-88.7 1160.64,-87.8"/>
<polygon fill="#63b8ff" stroke="#63b8ff" points="1161.43,-91.22 1169.86,-84.81 1159.27,-84.57 1161.43,-91.22"/>
</a>
</g>
</g>
<!-- Node13 -->
<g id="Node000013" class="node">
<title>Node13</title>
<g id="a_Node000013"><a xlink:title=" ">
<polygon fill="#e0e0e0" stroke="#999999" points="1343,-83.88 1250.5,-83.88 1250.5,-63.12 1343,-63.12 1343,-83.88"/>
<text text-anchor="middle" x="1296.75" y="-70.38" font-family="Helvetica,sans-Serif" font-size="10.00">unordered_map</text>
</a>
</g>
</g>
<!-- Node1&#45;&gt;Node13 -->
<g id="edge12_Node000001_Node000013" class="edge">
<title>Node1&#45;&gt;Node13</title>
<g id="a_edge12_Node000001_Node000013"><a xlink:title=" ">
<path fill="none" stroke="#63b8ff" d="M873.41,-137.31C959.94,-130.61 1112.92,-116.15 1241.75,-90.25 1246.06,-89.38 1250.53,-88.34 1254.97,-87.22"/>
<polygon fill="#63b8ff" stroke="#63b8ff" points="1255.63,-90.67 1264.38,-84.69 1253.81,-83.91 1255.63,-90.67"/>
</a>
</g>
</g>
<!-- Node14 -->
<g id="Node000014" class="node">
<title>Node14</title>
<g id="a_Node000014"><a xlink:href="vectorized__operations_8h.html" target="_top" xlink:title=" ">
<polygon fill="white" stroke="#666666" points="1020.75,-90.25 884.75,-90.25 884.75,-56.75 1020.75,-56.75 1020.75,-90.25"/>
<text text-anchor="start" x="892.75" y="-76.75" font-family="Helvetica,sans-Serif" font-size="10.00">prismspf/utilities</text>
<text text-anchor="middle" x="952.75" y="-64" font-family="Helvetica,sans-Serif" font-size="10.00">/vectorized_operations.h</text>
</a>
</g>
</g>
<!-- Node1&#45;&gt;Node14 -->
<g id="edge13_Node000001_Node000014" class="edge">
<title>Node1&#45;&gt;Node14</title>
<g id="a_edge13_Node000001_Node000014"><a xlink:title=" ">
<path fill="none" stroke="#63b8ff" d="M840.2,-125.83C860.26,-116.68 885.57,-105.14 907.1,-95.32"/>
<polygon fill="#63b8ff" stroke="#63b8ff" points="908.31,-98.62 915.96,-91.28 905.41,-92.25 908.31,-98.62"/>
</a>
</g>
</g>
<!-- Node14&#45;&gt;Node5 -->
<g id="edge14_Node000014_Node000005" class="edge">
<title>Node14&#45;&gt;Node5</title>
<g id="a_edge14_Node000014_Node000005"><a xlink:title=" ">
<path fill="none" stroke="#63b8ff" d="M884.33,-58.44C881.43,-57.86 878.56,-57.3 875.75,-56.75 815.33,-44.95 746.35,-32.19 697.19,-23.22"/>
<polygon fill="#63b8ff" stroke="#63b8ff" points="698.03,-19.81 687.56,-21.46 696.77,-26.7 698.03,-19.81"/>
</a>
</g>
</g>
<!-- Node14&#45;&gt;Node9 -->
<g id="edge15_Node000014_Node000009" class="edge">
<title>Node14&#45;&gt;Node9</title>
<g id="a_edge15_Node000014_Node000009"><a xlink:title=" ">
<path fill="none" stroke="#63b8ff" d="M1020.15,-56.28C1062.42,-46.11 1116.08,-33.19 1155,-23.83"/>
<polygon fill="#63b8ff" stroke="#63b8ff" points="1155.69,-27.26 1164.6,-21.52 1154.06,-20.46 1155.69,-27.26"/>
</a>
</g>
</g>
<!-- Node15 -->
<g id="Node000015" class="node">
<title>Node15</title>
<g id="a_Node000015"><a xlink:title=" ">
<polygon fill="#e0e0e0" stroke="#999999" points="976.12,-20.75 929.38,-20.75 929.38,0 976.12,0 976.12,-20.75"/>
<text text-anchor="middle" x="952.75" y="-7.25" font-family="Helvetica,sans-Serif" font-size="10.00">cmath</text>
</a>
</g>
</g>
<!-- Node14&#45;&gt;Node15 -->
<g id="edge16_Node000014_Node000015" class="edge">
<title>Node14&#45;&gt;Node15</title>
<g id="a_edge16_Node000014_Node000015"><a xlink:title=" ">
<path fill="none" stroke="#63b8ff" d="M952.75,-56.44C952.75,-49.1 952.75,-40.32 952.75,-32.46"/>
<polygon fill="#63b8ff" stroke="#63b8ff" points="956.25,-32.73 952.75,-22.73 949.25,-32.73 956.25,-32.73"/>
</a>
</g>
</g>
</g>
</svg>
