<?xml version="1.0" encoding="UTF-8" standalone="no"?>
<!DOCTYPE svg PUBLIC "-//W3C//DTD SVG 1.1//EN"
 "http://www.w3.org/Graphics/SVG/1.1/DTD/svg11.dtd">
<!-- Generated by graphviz version 12.2.1 (20241206.2353)
 -->
<!-- Title: src/utilities/utilities.cc Pages: 1 -->
<svg width="1903pt" height="225pt"
 viewBox="0.00 0.00 1902.88 224.50" xmlns="http://www.w3.org/2000/svg" xmlns:xlink="http://www.w3.org/1999/xlink">
<g id="graph0" class="graph" transform="scale(1 1) rotate(0) translate(4 220.5)">
<title>src/utilities/utilities.cc</title>
<!-- Node1 -->
<g id="Node000001" class="node">
<title>Node1</title>
<g id="a_Node000001"><a xlink:title=" ">
<polygon fill="#999999" stroke="#666666" points="784.5,-216.5 661.25,-216.5 661.25,-195.75 784.5,-195.75 784.5,-216.5"/>
<text text-anchor="middle" x="722.88" y="-203" font-family="Helvetica,sans-Serif" font-size="10.00">src/utilities/utilities.cc</text>
</a>
</g>
</g>
<!-- Node2 -->
<g id="Node000002" class="node">
<title>Node2</title>
<g id="a_Node000002"><a xlink:title=" ">
<polygon fill="#e0e0e0" stroke="#999999" points="133.75,-83.88 0,-83.88 0,-63.12 133.75,-63.12 133.75,-83.88"/>
<text text-anchor="middle" x="66.88" y="-70.38" font-family="Helvetica,sans-Serif" font-size="10.00">deal.II/base/logstream.h</text>
</a>
</g>
</g>
<!-- Node1&#45;&gt;Node2 -->
<g id="edge1_Node000001_Node000002" class="edge">
<title>Node1&#45;&gt;Node2</title>
<g id="a_edge1_Node000001_Node000002"><a xlink:title=" ">
<path fill="none" stroke="#63b8ff" d="M661,-197.95C597.83,-190.2 497.08,-176.66 410.88,-159.75 303,-138.59 178.15,-105.44 112.55,-87.35"/>
<polygon fill="#63b8ff" stroke="#63b8ff" points="113.81,-84.06 103.24,-84.77 111.94,-90.81 113.81,-84.06"/>
</a>
</g>
</g>
<!-- Node3 -->
<g id="Node000003" class="node">
<title>Node3</title>
<g id="a_Node000003"><a xlink:title=" ">
<polygon fill="#e0e0e0" stroke="#999999" points="254.38,-83.88 151.38,-83.88 151.38,-63.12 254.38,-63.12 254.38,-83.88"/>
<text text-anchor="middle" x="202.88" y="-70.38" font-family="Helvetica,sans-Serif" font-size="10.00">deal.II/base/mpi.h</text>
</a>
</g>
</g>
<!-- Node1&#45;&gt;Node3 -->
<g id="edge2_Node000001_Node000003" class="edge">
<title>Node1&#45;&gt;Node3</title>
<g id="a_edge2_Node000001_Node000003"><a xlink:title=" ">
<path fill="none" stroke="#63b8ff" d="M682.84,-195.3C602.93,-175.65 417.97,-129.97 262.88,-90.25 258.94,-89.24 254.86,-88.19 250.77,-87.13"/>
<polygon fill="#63b8ff" stroke="#63b8ff" points="252.01,-83.83 241.45,-84.7 250.24,-90.61 252.01,-83.83"/>
</a>
</g>
</g>
<!-- Node4 -->
<g id="Node000004" class="node">
<title>Node4</title>
<g id="a_Node000004"><a xlink:href="utilities_8h.html" target="_top" xlink:title=" ">
<polygon fill="white" stroke="#666666" points="946.12,-159.75 847.62,-159.75 847.62,-126.25 946.12,-126.25 946.12,-159.75"/>
<text text-anchor="start" x="855.62" y="-146.25" font-family="Helvetica,sans-Serif" font-size="10.00">prismspf/utilities</text>
<text text-anchor="middle" x="896.88" y="-133.5" font-family="Helvetica,sans-Serif" font-size="10.00">/utilities.h</text>
</a>
</g>
</g>
<!-- Node1&#45;&gt;Node4 -->
<g id="edge3_Node000001_Node000004" class="edge">
<title>Node1&#45;&gt;Node4</title>
<g id="a_edge3_Node000001_Node000004"><a xlink:title=" ">
<path fill="none" stroke="#63b8ff" d="M750.83,-195.3C774.79,-186.89 810.05,-174.5 839.93,-164"/>
<polygon fill="#63b8ff" stroke="#63b8ff" points="840.96,-167.35 849.23,-160.74 838.64,-160.75 840.96,-167.35"/>
</a>
</g>
</g>
<!-- Node15 -->
<g id="Node000015" class="node">
<title>Node15</title>
<g id="a_Node000015"><a xlink:title=" ">
<polygon fill="#e0e0e0" stroke="#999999" points="1894.88,-20.75 1794.88,-20.75 1794.88,0 1894.88,0 1894.88,-20.75"/>
<text text-anchor="middle" x="1844.88" y="-7.25" font-family="Helvetica,sans-Serif" font-size="10.00">prismspf/config.h</text>
</a>
</g>
</g>
<!-- Node1&#45;&gt;Node15 -->
<g id="edge23_Node000001_Node000015" class="edge">
<title>Node1&#45;&gt;Node15</title>
<g id="a_edge23_Node000001_Node000015"><a xlink:title=" ">
<path fill="none" stroke="#63b8ff" d="M784.81,-203.55C1010.16,-197.18 1777.05,-169.77 1848.88,-90.25 1862.98,-74.63 1858.73,-49.39 1853.07,-31.68"/>
<polygon fill="#63b8ff" stroke="#63b8ff" points="1856.44,-30.7 1849.74,-22.49 1849.86,-33.08 1856.44,-30.7"/>
</a>
</g>
</g>
<!-- Node4&#45;&gt;Node2 -->
<g id="edge6_Node000004_Node000002" class="edge">
<title>Node4&#45;&gt;Node2</title>
<g id="a_edge6_Node000004_Node000002"><a xlink:title=" ">
<path fill="none" stroke="#63b8ff" d="M847.16,-140.97C726.01,-137.95 406.06,-126.86 141.88,-90.25 134.7,-89.26 127.18,-87.97 119.79,-86.57"/>
<polygon fill="#63b8ff" stroke="#63b8ff" points="120.72,-83.18 110.23,-84.66 119.35,-90.05 120.72,-83.18"/>
</a>
</g>
</g>
<!-- Node4&#45;&gt;Node3 -->
<g id="edge7_Node000004_Node000003" class="edge">
<title>Node4&#45;&gt;Node3</title>
<g id="a_edge7_Node000004_Node000003"><a xlink:title=" ">
<path fill="none" stroke="#63b8ff" d="M847.18,-140.9C739.81,-137.88 478.42,-127.04 262.88,-90.25 257.64,-89.36 252.2,-88.22 246.83,-86.98"/>
<polygon fill="#63b8ff" stroke="#63b8ff" points="247.99,-83.66 237.44,-84.66 246.31,-90.45 247.99,-83.66"/>
</a>
</g>
</g>
<!-- Node5 -->
<g id="Node000005" class="node">
<title>Node5</title>
<g id="a_Node000005"><a xlink:title=" ">
<polygon fill="#e0e0e0" stroke="#999999" points="953.62,-83.88 840.12,-83.88 840.12,-63.12 953.62,-63.12 953.62,-83.88"/>
<text text-anchor="middle" x="896.88" y="-70.38" font-family="Helvetica,sans-Serif" font-size="10.00">deal.II/base/config.h</text>
</a>
</g>
</g>
<!-- Node4&#45;&gt;Node5 -->
<g id="edge4_Node000004_Node000005" class="edge">
<title>Node4&#45;&gt;Node5</title>
<g id="a_edge4_Node000004_Node000005"><a xlink:title=" ">
<path fill="none" stroke="#63b8ff" d="M896.88,-126C896.88,-116.9 896.88,-105.39 896.88,-95.57"/>
<polygon fill="#63b8ff" stroke="#63b8ff" points="900.38,-95.84 896.88,-85.84 893.38,-95.84 900.38,-95.84"/>
</a>
</g>
</g>
<!-- Node6 -->
<g id="Node000006" class="node">
<title>Node6</title>
<g id="a_Node000006"><a xlink:title=" ">
<polygon fill="#e0e0e0" stroke="#999999" points="1109.62,-83.88 972.12,-83.88 972.12,-63.12 1109.62,-63.12 1109.62,-83.88"/>
<text text-anchor="middle" x="1040.88" y="-70.38" font-family="Helvetica,sans-Serif" font-size="10.00">deal.II/base/exceptions.h</text>
</a>
</g>
</g>
<!-- Node4&#45;&gt;Node6 -->
<g id="edge5_Node000004_Node000006" class="edge">
<title>Node4&#45;&gt;Node6</title>
<g id="a_edge5_Node000004_Node000006"><a xlink:title=" ">
<path fill="none" stroke="#63b8ff" d="M931.37,-125.83C955.21,-114.65 986.68,-99.9 1009.76,-89.09"/>
<polygon fill="#63b8ff" stroke="#63b8ff" points="1011.09,-92.33 1018.66,-84.91 1008.12,-85.99 1011.09,-92.33"/>
</a>
</g>
</g>
<!-- Node7 -->
<g id="Node000007" class="node">
<title>Node7</title>
<g id="a_Node000007"><a xlink:title=" ">
<polygon fill="#e0e0e0" stroke="#999999" points="1236.38,-83.88 1127.38,-83.88 1127.38,-63.12 1236.38,-63.12 1236.38,-83.88"/>
<text text-anchor="middle" x="1181.88" y="-70.38" font-family="Helvetica,sans-Serif" font-size="10.00">deal.II/base/point.h</text>
</a>
</g>
</g>
<!-- Node4&#45;&gt;Node7 -->
<g id="edge8_Node000004_Node000007" class="edge">
<title>Node4&#45;&gt;Node7</title>
<g id="a_edge8_Node000004_Node000007"><a xlink:title=" ">
<path fill="none" stroke="#63b8ff" d="M946.31,-130.72C991.33,-120.38 1059.63,-104.56 1118.88,-90.25 1123.13,-89.22 1127.54,-88.14 1131.97,-87.05"/>
<polygon fill="#63b8ff" stroke="#63b8ff" points="1132.58,-90.51 1141.45,-84.71 1130.9,-83.71 1132.58,-90.51"/>
</a>
</g>
</g>
<!-- Node8 -->
<g id="Node000008" class="node">
<title>Node8</title>
<g id="a_Node000008"><a xlink:title=" ">
<polygon fill="#e0e0e0" stroke="#999999" points="1369,-83.88 1254.75,-83.88 1254.75,-63.12 1369,-63.12 1369,-83.88"/>
<text text-anchor="middle" x="1311.88" y="-70.38" font-family="Helvetica,sans-Serif" font-size="10.00">deal.II/base/tensor.h</text>
</a>
</g>
</g>
<!-- Node4&#45;&gt;Node8 -->
<g id="edge9_Node000004_Node000008" class="edge">
<title>Node4&#45;&gt;Node8</title>
<g id="a_edge9_Node000004_Node000008"><a xlink:title=" ">
<path fill="none" stroke="#63b8ff" d="M946.52,-136.02C1014.41,-127.53 1139.87,-110.72 1245.88,-90.25 1251.16,-89.23 1256.67,-88.07 1262.14,-86.86"/>
<polygon fill="#63b8ff" stroke="#63b8ff" points="1262.82,-90.29 1271.78,-84.65 1261.25,-83.47 1262.82,-90.29"/>
</a>
</g>
</g>
<!-- Node9 -->
<g id="Node000009" class="node">
<title>Node9</title>
<g id="a_Node000009"><a xlink:title=" ">
<polygon fill="#e0e0e0" stroke="#999999" points="1498.5,-83.88 1387.25,-83.88 1387.25,-63.12 1498.5,-63.12 1498.5,-83.88"/>
<text text-anchor="middle" x="1442.88" y="-70.38" font-family="Helvetica,sans-Serif" font-size="10.00">deal.II/base/types.h</text>
</a>
</g>
</g>
<!-- Node4&#45;&gt;Node9 -->
<g id="edge10_Node000004_Node000009" class="edge">
<title>Node4&#45;&gt;Node9</title>
<g id="a_edge10_Node000004_Node000009"><a xlink:title=" ">
<path fill="none" stroke="#63b8ff" d="M946.33,-138.82C1033.84,-132.71 1221.49,-117.49 1377.88,-90.25 1383.45,-89.28 1389.26,-88.11 1395.01,-86.84"/>
<polygon fill="#63b8ff" stroke="#63b8ff" points="1395.49,-90.33 1404.45,-84.68 1393.92,-83.5 1395.49,-90.33"/>
</a>
</g>
</g>
<!-- Node10 -->
<g id="Node000010" class="node">
<title>Node10</title>
<g id="a_Node000010"><a xlink:title=" ">
<polygon fill="#e0e0e0" stroke="#999999" points="1600.88,-20.75 1452.88,-20.75 1452.88,0 1600.88,0 1600.88,-20.75"/>
<text text-anchor="middle" x="1526.88" y="-7.25" font-family="Helvetica,sans-Serif" font-size="10.00">deal.II/base/vectorization.h</text>
</a>
</g>
</g>
<!-- Node4&#45;&gt;Node10 -->
<g id="edge11_Node000004_Node000010" class="edge">
<title>Node4&#45;&gt;Node10</title>
<g id="a_edge11_Node000004_Node000010"><a xlink:title=" ">
<path fill="none" stroke="#63b8ff" d="M946.33,-141.08C1084.22,-138.07 1465.62,-126.53 1507.88,-90.25 1524.21,-76.23 1527.81,-50.84 1528.06,-32.65"/>
<polygon fill="#63b8ff" stroke="#63b8ff" points="1531.56,-32.62 1527.84,-22.7 1524.56,-32.78 1531.56,-32.62"/>
</a>
</g>
</g>
<!-- Node11 -->
<g id="Node000011" class="node">
<title>Node11</title>
<g id="a_Node000011"><a xlink:title=" ">
<polygon fill="#e0e0e0" stroke="#999999" points="1817,-90.25 1708.75,-90.25 1708.75,-56.75 1817,-56.75 1817,-90.25"/>
<text text-anchor="start" x="1716.75" y="-76.75" font-family="Helvetica,sans-Serif" font-size="10.00">deal.II/matrix_free</text>
<text text-anchor="middle" x="1762.88" y="-64" font-family="Helvetica,sans-Serif" font-size="10.00">/evaluation_flags.h</text>
</a>
</g>
</g>
<!-- Node4&#45;&gt;Node11 -->
<g id="edge12_Node000004_Node000011" class="edge">
<title>Node4&#45;&gt;Node11</title>
<g id="a_edge12_Node000004_Node000011"><a xlink:title=" ">
<path fill="none" stroke="#63b8ff" d="M946.56,-141.91C1071.44,-141.01 1408.55,-134.48 1697.25,-90.48"/>
<polygon fill="#63b8ff" stroke="#63b8ff" points="1697.52,-93.98 1706.87,-89 1696.45,-87.07 1697.52,-93.98"/>
</a>
</g>
</g>
<!-- Node12 -->
<g id="Node000012" class="node">
<title>Node12</title>
<g id="a_Node000012"><a xlink:title=" ">
<polygon fill="#e0e0e0" stroke="#999999" points="417.38,-83.88 272.38,-83.88 272.38,-63.12 417.38,-63.12 417.38,-83.88"/>
<text text-anchor="middle" x="344.88" y="-70.38" font-family="Helvetica,sans-Serif" font-size="10.00">boost/range/algorithm.hpp</text>
</a>
</g>
</g>
<!-- Node4&#45;&gt;Node12 -->
<g id="edge13_Node000004_Node000012" class="edge">
<title>Node4&#45;&gt;Node12</title>
<g id="a_edge13_Node000004_Node000012"><a xlink:title=" ">
<path fill="none" stroke="#63b8ff" d="M847.31,-137.86C761.42,-130.39 579.48,-113.27 426.88,-90.25 419.36,-89.12 411.49,-87.79 403.72,-86.39"/>
<polygon fill="#63b8ff" stroke="#63b8ff" points="404.42,-82.96 393.95,-84.58 403.15,-89.84 404.42,-82.96"/>
</a>
</g>
</g>
<!-- Node13 -->
<g id="Node000013" class="node">
<title>Node13</title>
<g id="a_Node000013"><a xlink:title=" ">
<polygon fill="#e0e0e0" stroke="#999999" points="559.88,-90.25 435.88,-90.25 435.88,-56.75 559.88,-56.75 559.88,-90.25"/>
<text text-anchor="start" x="443.88" y="-76.75" font-family="Helvetica,sans-Serif" font-size="10.00">boost/range/algorithm</text>
<text text-anchor="middle" x="497.88" y="-64" font-family="Helvetica,sans-Serif" font-size="10.00">_ext.hpp</text>
</a>
</g>
</g>
<!-- Node4&#45;&gt;Node13 -->
<g id="edge14_Node000004_Node000013" class="edge">
<title>Node4&#45;&gt;Node13</title>
<g id="a_edge14_Node000004_Node000013"><a xlink:title=" ">
<path fill="none" stroke="#63b8ff" d="M847.25,-135.15C785.13,-126.35 675.22,-110.08 571.48,-90.68"/>
<polygon fill="#63b8ff" stroke="#63b8ff" points="572.13,-87.24 561.66,-88.83 570.83,-94.12 572.13,-87.24"/>
</a>
</g>
</g>
<!-- Node14 -->
<g id="Node000014" class="node">
<title>Node14</title>
<g id="a_Node000014"><a xlink:href="vectorized__operations_8h.html" target="_top" xlink:title=" ">
<polygon fill="white" stroke="#666666" points="1690.88,-90.25 1554.88,-90.25 1554.88,-56.75 1690.88,-56.75 1690.88,-90.25"/>
<text text-anchor="start" x="1562.88" y="-76.75" font-family="Helvetica,sans-Serif" font-size="10.00">prismspf/utilities</text>
<text text-anchor="middle" x="1622.88" y="-64" font-family="Helvetica,sans-Serif" font-size="10.00">/vectorized_operations.h</text>
</a>
</g>
</g>
<!-- Node4&#45;&gt;Node14 -->
<g id="edge15_Node000004_Node000014" class="edge">
<title>Node4&#45;&gt;Node14</title>
<g id="a_edge15_Node000004_Node000014"><a xlink:title=" ">
<path fill="none" stroke="#63b8ff" d="M946.36,-139.88C1054.57,-134.82 1320.25,-120.21 1540.88,-90.25 1541.71,-90.14 1542.55,-90.02 1543.39,-89.9"/>
<polygon fill="#63b8ff" stroke="#63b8ff" points="1543.65,-93.4 1553.01,-88.44 1542.6,-86.48 1543.65,-93.4"/>
</a>
</g>
</g>
<!-- Node4&#45;&gt;Node15 -->
<g id="edge19_Node000004_Node000015" class="edge">
<title>Node4&#45;&gt;Node15</title>
<g id="a_edge19_Node000004_Node000015"><a xlink:title=" ">
<path fill="none" stroke="#63b8ff" d="M946.39,-140.87C1133.94,-136.37 1791.85,-118.62 1825.88,-90.25 1842.49,-76.39 1846.01,-50.76 1846.16,-32.48"/>
<polygon fill="#63b8ff" stroke="#63b8ff" points="1849.66,-32.39 1845.88,-22.5 1842.66,-32.59 1849.66,-32.39"/>
</a>
</g>
</g>
<!-- Node17 -->
<g id="Node000017" class="node">
<title>Node17</title>
<g id="a_Node000017"><a xlink:title=" ">
<polygon fill="#e0e0e0" stroke="#999999" points="621.75,-83.88 578,-83.88 578,-63.12 621.75,-63.12 621.75,-83.88"/>
<text text-anchor="middle" x="599.88" y="-70.38" font-family="Helvetica,sans-Serif" font-size="10.00">string</text>
</a>
</g>
</g>
<!-- Node4&#45;&gt;Node17 -->
<g id="edge20_Node000004_Node000017" class="edge">
<title>Node4&#45;&gt;Node17</title>
<g id="a_edge20_Node000004_Node000017"><a xlink:title=" ">
<path fill="none" stroke="#63b8ff" d="M847.27,-136.54C793.03,-129.6 704.06,-115.41 630.88,-90.25 629.73,-89.86 628.58,-89.43 627.43,-88.98"/>
<polygon fill="#63b8ff" stroke="#63b8ff" points="629.14,-85.91 618.59,-84.99 626.27,-92.29 629.14,-85.91"/>
</a>
</g>
</g>
<!-- Node18 -->
<g id="Node000018" class="node">
<title>Node18</title>
<g id="a_Node000018"><a xlink:title=" ">
<polygon fill="#e0e0e0" stroke="#999999" points="712,-83.88 639.75,-83.88 639.75,-63.12 712,-63.12 712,-83.88"/>
<text text-anchor="middle" x="675.88" y="-70.38" font-family="Helvetica,sans-Serif" font-size="10.00">string_view</text>
</a>
</g>
</g>
<!-- Node4&#45;&gt;Node18 -->
<g id="edge21_Node000004_Node000018" class="edge">
<title>Node4&#45;&gt;Node18</title>
<g id="a_edge21_Node000004_Node000018"><a xlink:title=" ">
<path fill="none" stroke="#63b8ff" d="M847.36,-128.17C811.98,-118.1 763.32,-103.91 720.88,-90.25 718.51,-89.49 716.07,-88.69 713.62,-87.87"/>
<polygon fill="#63b8ff" stroke="#63b8ff" points="714.95,-84.62 704.36,-84.71 712.69,-91.25 714.95,-84.62"/>
</a>
</g>
</g>
<!-- Node19 -->
<g id="Node000019" class="node">
<title>Node19</title>
<g id="a_Node000019"><a xlink:title=" ">
<polygon fill="#e0e0e0" stroke="#999999" points="822.12,-83.88 729.62,-83.88 729.62,-63.12 822.12,-63.12 822.12,-83.88"/>
<text text-anchor="middle" x="775.88" y="-70.38" font-family="Helvetica,sans-Serif" font-size="10.00">unordered_map</text>
</a>
</g>
</g>
<!-- Node4&#45;&gt;Node19 -->
<g id="edge22_Node000004_Node000019" class="edge">
<title>Node4&#45;&gt;Node19</title>
<g id="a_edge22_Node000004_Node000019"><a xlink:title=" ">
<path fill="none" stroke="#63b8ff" d="M867.89,-125.83C848.31,-114.91 822.61,-100.57 803.35,-89.83"/>
<polygon fill="#63b8ff" stroke="#63b8ff" points="805.15,-86.82 794.71,-85.01 801.74,-92.94 805.15,-86.82"/>
</a>
</g>
</g>
<!-- Node14&#45;&gt;Node10 -->
<g id="edge16_Node000014_Node000010" class="edge">
<title>Node14&#45;&gt;Node10</title>
<g id="a_edge16_Node000014_Node000010"><a xlink:title=" ">
<path fill="none" stroke="#63b8ff" d="M1597.4,-56.28C1583.28,-47.29 1565.79,-36.15 1551.76,-27.22"/>
<polygon fill="#63b8ff" stroke="#63b8ff" points="1553.84,-24.4 1543.53,-21.98 1550.08,-30.3 1553.84,-24.4"/>
</a>
</g>
</g>
<!-- Node14&#45;&gt;Node15 -->
<g id="edge17_Node000014_Node000015" class="edge">
<title>Node14&#45;&gt;Node15</title>
<g id="a_edge17_Node000014_Node000015"><a xlink:title=" ">
<path fill="none" stroke="#63b8ff" d="M1681.78,-56.28C1718.25,-46.24 1764.42,-33.53 1798.32,-24.19"/>
<polygon fill="#63b8ff" stroke="#63b8ff" points="1799.15,-27.6 1807.86,-21.57 1797.29,-20.85 1799.15,-27.6"/>
</a>
</g>
</g>
<!-- Node16 -->
<g id="Node000016" class="node">
<title>Node16</title>
<g id="a_Node000016"><a xlink:title=" ">
<polygon fill="#e0e0e0" stroke="#999999" points="1665.25,-20.75 1618.5,-20.75 1618.5,0 1665.25,0 1665.25,-20.75"/>
<text text-anchor="middle" x="1641.88" y="-7.25" font-family="Helvetica,sans-Serif" font-size="10.00">cmath</text>
</a>
</g>
</g>
<!-- Node14&#45;&gt;Node16 -->
<g id="edge18_Node000014_Node000016" class="edge">
<title>Node14&#45;&gt;Node16</title>
<g id="a_edge18_Node000014_Node000016"><a xlink:title=" ">
<path fill="none" stroke="#63b8ff" d="M1627.87,-56.44C1630.17,-49.02 1632.94,-40.11 1635.41,-32.18"/>
<polygon fill="#63b8ff" stroke="#63b8ff" points="1638.74,-33.25 1638.37,-22.66 1632.06,-31.17 1638.74,-33.25"/>
</a>
</g>
</g>
</g>
</svg>
