<?xml version="1.0" encoding="UTF-8" standalone="no"?>
<!DOCTYPE svg PUBLIC "-//W3C//DTD SVG 1.1//EN"
 "http://www.w3.org/Graphics/SVG/1.1/DTD/svg11.dtd">
<!-- Generated by graphviz version 12.2.1 (20241206.2353)
 -->
<!-- Title: include/prismspf/utilities/utilities.h Pages: 1 -->
<svg width="1521pt" height="168pt"
 viewBox="0.00 0.00 1521.00 167.75" xmlns="http://www.w3.org/2000/svg" xmlns:xlink="http://www.w3.org/1999/xlink">
<g id="graph0" class="graph" transform="scale(1 1) rotate(0) translate(4 163.75)">
<title>include/prismspf/utilities/utilities.h</title>
<!-- Node1 -->
<g id="Node000001" class="node">
<title>Node1</title>
<g id="a_Node000001"><a xlink:title=" ">
<polygon fill="#999999" stroke="#666666" points="928.12,-159.75 791.38,-159.75 791.38,-126.25 928.12,-126.25 928.12,-159.75"/>
<text text-anchor="start" x="799.38" y="-146.25" font-family="Helvetica,sans-Serif" font-size="10.00">include/prismspf/utilities</text>
<text text-anchor="middle" x="859.75" y="-133.5" font-family="Helvetica,sans-Serif" font-size="10.00">/utilities.h</text>
</a>
</g>
</g>
<!-- Node2 -->
<g id="Node000002" class="node">
<title>Node2</title>
<g id="a_Node000002"><a xlink:title=" ">
<polygon fill="#e0e0e0" stroke="#999999" points="113.5,-83.88 0,-83.88 0,-63.12 113.5,-63.12 113.5,-83.88"/>
<text text-anchor="middle" x="56.75" y="-70.38" font-family="Helvetica,sans-Serif" font-size="10.00">deal.II/base/config.h</text>
</a>
</g>
</g>
<!-- Node1&#45;&gt;Node2 -->
<g id="edge1_Node000001_Node000002" class="edge">
<title>Node1&#45;&gt;Node2</title>
<g id="a_edge1_Node000001_Node000002"><a xlink:title=" ">
<path fill="none" stroke="#63b8ff" d="M791,-140.93C660.17,-138.07 366.65,-127.66 122.75,-90.25 116.71,-89.32 110.41,-88.13 104.2,-86.81"/>
<polygon fill="#63b8ff" stroke="#63b8ff" points="105.2,-83.44 94.67,-84.66 103.66,-90.27 105.2,-83.44"/>
</a>
</g>
</g>
<!-- Node3 -->
<g id="Node000003" class="node">
<title>Node3</title>
<g id="a_Node000003"><a xlink:title=" ">
<polygon fill="#e0e0e0" stroke="#999999" points="269.5,-83.88 132,-83.88 132,-63.12 269.5,-63.12 269.5,-83.88"/>
<text text-anchor="middle" x="200.75" y="-70.38" font-family="Helvetica,sans-Serif" font-size="10.00">deal.II/base/exceptions.h</text>
</a>
</g>
</g>
<!-- Node1&#45;&gt;Node3 -->
<g id="edge2_Node000001_Node000003" class="edge">
<title>Node1&#45;&gt;Node3</title>
<g id="a_edge2_Node000001_Node000003"><a xlink:title=" ">
<path fill="none" stroke="#63b8ff" d="M790.92,-138.41C681.7,-132.14 462.18,-117.22 277.75,-90.25 270.58,-89.2 263.07,-87.91 255.66,-86.52"/>
<polygon fill="#63b8ff" stroke="#63b8ff" points="256.55,-83.13 246.06,-84.65 255.21,-90 256.55,-83.13"/>
</a>
</g>
</g>
<!-- Node4 -->
<g id="Node000004" class="node">
<title>Node4</title>
<g id="a_Node000004"><a xlink:title=" ">
<polygon fill="#e0e0e0" stroke="#999999" points="396.25,-83.88 287.25,-83.88 287.25,-63.12 396.25,-63.12 396.25,-83.88"/>
<text text-anchor="middle" x="341.75" y="-70.38" font-family="Helvetica,sans-Serif" font-size="10.00">deal.II/base/point.h</text>
</a>
</g>
</g>
<!-- Node1&#45;&gt;Node4 -->
<g id="edge3_Node000001_Node000004" class="edge">
<title>Node1&#45;&gt;Node4</title>
<g id="a_edge3_Node000001_Node000004"><a xlink:title=" ">
<path fill="none" stroke="#63b8ff" d="M790.9,-136.91C701.6,-129.67 541.23,-114.54 405.75,-90.25 400.4,-89.29 394.83,-88.15 389.31,-86.92"/>
<polygon fill="#63b8ff" stroke="#63b8ff" points="390.14,-83.51 379.6,-84.65 388.55,-90.33 390.14,-83.51"/>
</a>
</g>
</g>
<!-- Node5 -->
<g id="Node000005" class="node">
<title>Node5</title>
<g id="a_Node000005"><a xlink:title=" ">
<polygon fill="#e0e0e0" stroke="#999999" points="528.88,-83.88 414.62,-83.88 414.62,-63.12 528.88,-63.12 528.88,-83.88"/>
<text text-anchor="middle" x="471.75" y="-70.38" font-family="Helvetica,sans-Serif" font-size="10.00">deal.II/base/tensor.h</text>
</a>
</g>
</g>
<!-- Node1&#45;&gt;Node5 -->
<g id="edge4_Node000001_Node000005" class="edge">
<title>Node1&#45;&gt;Node5</title>
<g id="a_edge4_Node000001_Node000005"><a xlink:title=" ">
<path fill="none" stroke="#63b8ff" d="M790.91,-131.91C726.57,-122.21 627.9,-106.63 542.75,-90.25 537.08,-89.16 531.18,-87.96 525.3,-86.72"/>
<polygon fill="#63b8ff" stroke="#63b8ff" points="526.09,-83.31 515.57,-84.62 524.61,-90.15 526.09,-83.31"/>
</a>
</g>
</g>
<!-- Node6 -->
<g id="Node000006" class="node">
<title>Node6</title>
<g id="a_Node000006"><a xlink:title=" ">
<polygon fill="#e0e0e0" stroke="#999999" points="837.75,-20.75 689.75,-20.75 689.75,0 837.75,0 837.75,-20.75"/>
<text text-anchor="middle" x="763.75" y="-7.25" font-family="Helvetica,sans-Serif" font-size="10.00">deal.II/base/vectorization.h</text>
</a>
</g>
</g>
<!-- Node1&#45;&gt;Node6 -->
<g id="edge5_Node000001_Node000006" class="edge">
<title>Node1&#45;&gt;Node6</title>
<g id="a_edge5_Node000001_Node000006"><a xlink:title=" ">
<path fill="none" stroke="#63b8ff" d="M791.03,-139.28C715.92,-134.69 602.64,-122.48 575.75,-90.25 541.4,-49.08 613.53,-29.01 678.16,-19.49"/>
<polygon fill="#63b8ff" stroke="#63b8ff" points="678.35,-23 687.78,-18.15 677.39,-16.07 678.35,-23"/>
</a>
</g>
</g>
<!-- Node7 -->
<g id="Node000007" class="node">
<title>Node7</title>
<g id="a_Node000007"><a xlink:title=" ">
<polygon fill="#e0e0e0" stroke="#999999" points="692.88,-90.25 584.62,-90.25 584.62,-56.75 692.88,-56.75 692.88,-90.25"/>
<text text-anchor="start" x="592.62" y="-76.75" font-family="Helvetica,sans-Serif" font-size="10.00">deal.II/matrix_free</text>
<text text-anchor="middle" x="638.75" y="-64" font-family="Helvetica,sans-Serif" font-size="10.00">/evaluation_flags.h</text>
</a>
</g>
</g>
<!-- Node1&#45;&gt;Node7 -->
<g id="edge6_Node000001_Node000007" class="edge">
<title>Node1&#45;&gt;Node7</title>
<g id="a_edge6_Node000001_Node000007"><a xlink:title=" ">
<path fill="none" stroke="#63b8ff" d="M806.81,-125.83C775.49,-116.27 735.61,-104.08 702.56,-93.99"/>
<polygon fill="#63b8ff" stroke="#63b8ff" points="703.67,-90.67 693.08,-91.09 701.62,-97.36 703.67,-90.67"/>
</a>
</g>
</g>
<!-- Node8 -->
<g id="Node000008" class="node">
<title>Node8</title>
<g id="a_Node000008"><a xlink:title=" ">
<polygon fill="#e0e0e0" stroke="#999999" points="856.25,-83.88 711.25,-83.88 711.25,-63.12 856.25,-63.12 856.25,-83.88"/>
<text text-anchor="middle" x="783.75" y="-70.38" font-family="Helvetica,sans-Serif" font-size="10.00">boost/range/algorithm.hpp</text>
</a>
</g>
</g>
<!-- Node1&#45;&gt;Node8 -->
<g id="edge7_Node000001_Node000008" class="edge">
<title>Node1&#45;&gt;Node8</title>
<g id="a_edge7_Node000001_Node000008"><a xlink:title=" ">
<path fill="none" stroke="#63b8ff" d="M841.74,-126C830.13,-115.69 815.03,-102.28 803.15,-91.73"/>
<polygon fill="#63b8ff" stroke="#63b8ff" points="805.74,-89.35 795.94,-85.33 801.09,-94.58 805.74,-89.35"/>
</a>
</g>
</g>
<!-- Node9 -->
<g id="Node000009" class="node">
<title>Node9</title>
<g id="a_Node000009"><a xlink:title=" ">
<polygon fill="#e0e0e0" stroke="#999999" points="998.75,-90.25 874.75,-90.25 874.75,-56.75 998.75,-56.75 998.75,-90.25"/>
<text text-anchor="start" x="882.75" y="-76.75" font-family="Helvetica,sans-Serif" font-size="10.00">boost/range/algorithm</text>
<text text-anchor="middle" x="936.75" y="-64" font-family="Helvetica,sans-Serif" font-size="10.00">_ext.hpp</text>
</a>
</g>
</g>
<!-- Node1&#45;&gt;Node9 -->
<g id="edge8_Node000001_Node000009" class="edge">
<title>Node1&#45;&gt;Node9</title>
<g id="a_edge8_Node000001_Node000009"><a xlink:title=" ">
<path fill="none" stroke="#63b8ff" d="M878,-126C887.52,-117.66 899.35,-107.29 909.89,-98.05"/>
<polygon fill="#63b8ff" stroke="#63b8ff" points="912.02,-100.84 917.23,-91.61 907.4,-95.57 912.02,-100.84"/>
</a>
</g>
</g>
<!-- Node10 -->
<g id="Node000010" class="node">
<title>Node10</title>
<g id="a_Node000010"><a xlink:href="vectorized__operations_8h.html" target="_top" xlink:title=" ">
<polygon fill="white" stroke="#666666" points="1152.75,-90.25 1016.75,-90.25 1016.75,-56.75 1152.75,-56.75 1152.75,-90.25"/>
<text text-anchor="start" x="1024.75" y="-76.75" font-family="Helvetica,sans-Serif" font-size="10.00">prismspf/utilities</text>
<text text-anchor="middle" x="1084.75" y="-64" font-family="Helvetica,sans-Serif" font-size="10.00">/vectorized_operations.h</text>
</a>
</g>
</g>
<!-- Node1&#45;&gt;Node10 -->
<g id="edge9_Node000001_Node000010" class="edge">
<title>Node1&#45;&gt;Node10</title>
<g id="a_edge9_Node000001_Node000010"><a xlink:title=" ">
<path fill="none" stroke="#63b8ff" d="M913.64,-125.83C945.67,-116.22 986.49,-103.98 1020.22,-93.86"/>
<polygon fill="#63b8ff" stroke="#63b8ff" points="1020.88,-97.31 1029.46,-91.09 1018.87,-90.61 1020.88,-97.31"/>
</a>
</g>
</g>
<!-- Node11 -->
<g id="Node000011" class="node">
<title>Node11</title>
<g id="a_Node000011"><a xlink:title=" ">
<polygon fill="#e0e0e0" stroke="#999999" points="1227.75,-20.75 1127.75,-20.75 1127.75,0 1227.75,0 1227.75,-20.75"/>
<text text-anchor="middle" x="1177.75" y="-7.25" font-family="Helvetica,sans-Serif" font-size="10.00">prismspf/config.h</text>
</a>
</g>
</g>
<!-- Node1&#45;&gt;Node11 -->
<g id="edge13_Node000001_Node000011" class="edge">
<title>Node1&#45;&gt;Node11</title>
<g id="a_edge13_Node000001_Node000011"><a xlink:title=" ">
<path fill="none" stroke="#63b8ff" d="M928.46,-139.04C1007.13,-134.19 1129.34,-121.69 1161.75,-90.25 1177,-75.46 1179.78,-50.42 1179.52,-32.52"/>
<polygon fill="#63b8ff" stroke="#63b8ff" points="1183.03,-32.57 1179.03,-22.75 1176.04,-32.92 1183.03,-32.57"/>
</a>
</g>
</g>
<!-- Node13 -->
<g id="Node000013" class="node">
<title>Node13</title>
<g id="a_Node000013"><a xlink:title=" ">
<polygon fill="#e0e0e0" stroke="#999999" points="1250.5,-83.88 1209,-83.88 1209,-63.12 1250.5,-63.12 1250.5,-83.88"/>
<text text-anchor="middle" x="1229.75" y="-70.38" font-family="Helvetica,sans-Serif" font-size="10.00">array</text>
</a>
</g>
</g>
<!-- Node1&#45;&gt;Node13 -->
<g id="edge14_Node000001_Node000013" class="edge">
<title>Node1&#45;&gt;Node13</title>
<g id="a_edge14_Node000001_Node000013"><a xlink:title=" ">
<path fill="none" stroke="#63b8ff" d="M928.3,-136.85C996.86,-130.44 1104.75,-116.92 1194.75,-90.25 1196.55,-89.72 1198.38,-89.11 1200.21,-88.45"/>
<polygon fill="#63b8ff" stroke="#63b8ff" points="1201.13,-91.86 1209.08,-84.85 1198.5,-85.37 1201.13,-91.86"/>
</a>
</g>
</g>
<!-- Node14 -->
<g id="Node000014" class="node">
<title>Node14</title>
<g id="a_Node000014"><a xlink:title=" ">
<polygon fill="#e0e0e0" stroke="#999999" points="1312.62,-83.88 1268.88,-83.88 1268.88,-63.12 1312.62,-63.12 1312.62,-83.88"/>
<text text-anchor="middle" x="1290.75" y="-70.38" font-family="Helvetica,sans-Serif" font-size="10.00">string</text>
</a>
</g>
</g>
<!-- Node1&#45;&gt;Node14 -->
<g id="edge15_Node000001_Node000014" class="edge">
<title>Node1&#45;&gt;Node14</title>
<g id="a_edge15_Node000001_Node000014"><a xlink:title=" ">
<path fill="none" stroke="#63b8ff" d="M928.48,-140.19C1009.39,-136.46 1147.01,-125.05 1259.75,-90.25 1261.11,-89.83 1262.49,-89.35 1263.86,-88.83"/>
<polygon fill="#63b8ff" stroke="#63b8ff" points="1265.05,-92.14 1272.75,-84.87 1262.19,-85.74 1265.05,-92.14"/>
</a>
</g>
</g>
<!-- Node15 -->
<g id="Node000015" class="node">
<title>Node15</title>
<g id="a_Node000015"><a xlink:title=" ">
<polygon fill="#e0e0e0" stroke="#999999" points="1402.88,-83.88 1330.62,-83.88 1330.62,-63.12 1402.88,-63.12 1402.88,-83.88"/>
<text text-anchor="middle" x="1366.75" y="-70.38" font-family="Helvetica,sans-Serif" font-size="10.00">string_view</text>
</a>
</g>
</g>
<!-- Node1&#45;&gt;Node15 -->
<g id="edge16_Node000001_Node000015" class="edge">
<title>Node1&#45;&gt;Node15</title>
<g id="a_edge16_Node000001_Node000015"><a xlink:title=" ">
<path fill="none" stroke="#63b8ff" d="M928.27,-139.14C1019.18,-134.26 1184.24,-121.59 1321.75,-90.25 1324.75,-89.57 1327.82,-88.75 1330.89,-87.85"/>
<polygon fill="#63b8ff" stroke="#63b8ff" points="1331.92,-91.2 1340.37,-84.81 1329.78,-84.53 1331.92,-91.2"/>
</a>
</g>
</g>
<!-- Node16 -->
<g id="Node000016" class="node">
<title>Node16</title>
<g id="a_Node000016"><a xlink:title=" ">
<polygon fill="#e0e0e0" stroke="#999999" points="1513,-83.88 1420.5,-83.88 1420.5,-63.12 1513,-63.12 1513,-83.88"/>
<text text-anchor="middle" x="1466.75" y="-70.38" font-family="Helvetica,sans-Serif" font-size="10.00">unordered_map</text>
</a>
</g>
</g>
<!-- Node1&#45;&gt;Node16 -->
<g id="edge17_Node000001_Node000016" class="edge">
<title>Node1&#45;&gt;Node16</title>
<g id="a_edge17_Node000001_Node000016"><a xlink:title=" ">
<path fill="none" stroke="#63b8ff" d="M928.3,-139.66C1033.23,-135.15 1239.6,-122.68 1411.75,-90.25 1416.13,-89.43 1420.66,-88.41 1425.16,-87.29"/>
<polygon fill="#63b8ff" stroke="#63b8ff" points="1425.94,-90.7 1434.69,-84.74 1424.13,-83.94 1425.94,-90.7"/>
</a>
</g>
</g>
<!-- Node10&#45;&gt;Node6 -->
<g id="edge10_Node000010_Node000006" class="edge">
<title>Node10&#45;&gt;Node6</title>
<g id="a_edge10_Node000010_Node000006"><a xlink:title=" ">
<path fill="none" stroke="#63b8ff" d="M1016.33,-58.44C1013.43,-57.86 1010.56,-57.3 1007.75,-56.75 947.33,-44.95 878.35,-32.19 829.19,-23.22"/>
<polygon fill="#63b8ff" stroke="#63b8ff" points="830.03,-19.81 819.56,-21.46 828.77,-26.7 830.03,-19.81"/>
</a>
</g>
</g>
<!-- Node10&#45;&gt;Node11 -->
<g id="edge11_Node000010_Node000011" class="edge">
<title>Node10&#45;&gt;Node11</title>
<g id="a_edge11_Node000010_Node000011"><a xlink:title=" ">
<path fill="none" stroke="#63b8ff" d="M1109.18,-56.44C1122.87,-47.45 1139.87,-36.27 1153.52,-27.3"/>
<polygon fill="#63b8ff" stroke="#63b8ff" points="1155.08,-30.47 1161.51,-22.05 1151.23,-24.62 1155.08,-30.47"/>
</a>
</g>
</g>
<!-- Node12 -->
<g id="Node000012" class="node">
<title>Node12</title>
<g id="a_Node000012"><a xlink:title=" ">
<polygon fill="#e0e0e0" stroke="#999999" points="1108.12,-20.75 1061.38,-20.75 1061.38,0 1108.12,0 1108.12,-20.75"/>
<text text-anchor="middle" x="1084.75" y="-7.25" font-family="Helvetica,sans-Serif" font-size="10.00">cmath</text>
</a>
</g>
</g>
<!-- Node10&#45;&gt;Node12 -->
<g id="edge12_Node000010_Node000012" class="edge">
<title>Node10&#45;&gt;Node12</title>
<g id="a_edge12_Node000010_Node000012"><a xlink:title=" ">
<path fill="none" stroke="#63b8ff" d="M1084.75,-56.44C1084.75,-49.1 1084.75,-40.32 1084.75,-32.46"/>
<polygon fill="#63b8ff" stroke="#63b8ff" points="1088.25,-32.73 1084.75,-22.73 1081.25,-32.73 1088.25,-32.73"/>
</a>
</g>
</g>
</g>
</svg>
