<?xml version="1.0" encoding="UTF-8" standalone="no"?>
<!DOCTYPE svg PUBLIC "-//W3C//DTD SVG 1.1//EN"
 "http://www.w3.org/Graphics/SVG/1.1/DTD/svg11.dtd">
<!-- Generated by graphviz version 2.43.0 (0)
 -->
<!-- Title: UserInputParameters&lt; dim &gt; Pages: 1 -->
<svg width="475pt" height="300pt"
 viewBox="0.00 0.00 475.00 300.15" xmlns="http://www.w3.org/2000/svg" xmlns:xlink="http://www.w3.org/1999/xlink">
<g id="graph0" class="graph" transform="scale(1 1) rotate(0) translate(4 296.15)">
<title>UserInputParameters&lt; dim &gt;</title>
<!-- Node1 -->
<g id="Node000001" class="node">
<title>Node1</title>
<g id="a_Node000001"><a xlink:title=" ">
<polygon fill="#999999" stroke="#666666" points="467,-157.15 348,-157.15 348,-127.15 467,-127.15 467,-157.15"/>
<text text-anchor="start" x="356" y="-145.15" font-family="Helvetica,sans-Serif" font-size="10.00">UserInputParameters</text>
<text text-anchor="middle" x="407.5" y="-134.15" font-family="Helvetica,sans-Serif" font-size="10.00">&lt; dim &gt;</text>
</a>
</g>
</g>
<!-- Node2 -->
<g id="Node000002" class="node">
<title>Node2</title>
<g id="a_Node000002"><a xlink:href="structTemporalDiscretization.html" target="_top" xlink:title="Struct that holds temporal discretization parameters.">
<polygon fill="white" stroke="#666666" points="149.5,-281.65 20.5,-281.65 20.5,-262.65 149.5,-262.65 149.5,-281.65"/>
<text text-anchor="middle" x="85" y="-269.65" font-family="Helvetica,sans-Serif" font-size="10.00">TemporalDiscretization</text>
</a>
</g>
</g>
<!-- Node2&#45;&gt;Node1 -->
<g id="edge1_Node000001_Node000002" class="edge">
<title>Node2&#45;&gt;Node1</title>
<g id="a_edge1_Node000001_Node000002"><a xlink:title=" ">
<path fill="none" stroke="#9a32cd" stroke-dasharray="5,2" d="M159.7,-281.02C210.79,-283.62 278.59,-279.74 330,-250.15 367.04,-228.83 390.64,-181.48 400.78,-157.18"/>
<polygon fill="#9a32cd" stroke="#9a32cd" points="159.91,-277.53 149.72,-280.42 159.49,-284.51 159.91,-277.53"/>
</a>
</g>
<text text-anchor="middle" x="259" y="-284.15" font-family="Helvetica,sans-Serif" font-size="10.00" fill="grey"> temporal_discretization</text>
</g>
<!-- Node3 -->
<g id="Node000003" class="node">
<title>Node3</title>
<g id="a_Node000003"><a xlink:href="structLinearSolveParameters.html" target="_top" xlink:title="Struct that holds linear solver parameters.">
<polygon fill="white" stroke="#666666" points="149.5,-244.65 20.5,-244.65 20.5,-225.65 149.5,-225.65 149.5,-244.65"/>
<text text-anchor="middle" x="85" y="-232.65" font-family="Helvetica,sans-Serif" font-size="10.00">LinearSolveParameters</text>
</a>
</g>
</g>
<!-- Node3&#45;&gt;Node1 -->
<g id="edge2_Node000001_Node000003" class="edge">
<title>Node3&#45;&gt;Node1</title>
<g id="a_edge2_Node000001_Node000003"><a xlink:title=" ">
<path fill="none" stroke="#9a32cd" stroke-dasharray="5,2" d="M159.75,-236.7C209.66,-235.25 276.07,-228.31 330,-205.15 355.45,-194.22 379.15,-172.12 393.23,-157.22"/>
<polygon fill="#9a32cd" stroke="#9a32cd" points="159.6,-233.21 149.68,-236.93 159.76,-240.21 159.6,-233.21"/>
</a>
</g>
<text text-anchor="middle" x="259" y="-238.15" font-family="Helvetica,sans-Serif" font-size="10.00" fill="grey"> linear_solve_parameters</text>
</g>
<!-- Node4 -->
<g id="Node000004" class="node">
<title>Node4</title>
<g id="a_Node000004"><a xlink:href="structNonlinearSolveParameterSet.html" target="_top" xlink:title="Struct that holds nonlinear solver parameters.">
<polygon fill="white" stroke="#666666" points="163.5,-207.65 6.5,-207.65 6.5,-188.65 163.5,-188.65 163.5,-207.65"/>
<text text-anchor="middle" x="85" y="-195.65" font-family="Helvetica,sans-Serif" font-size="10.00">NonlinearSolveParameterSet</text>
</a>
</g>
</g>
<!-- Node4&#45;&gt;Node1 -->
<g id="edge3_Node000001_Node000004" class="edge">
<title>Node4&#45;&gt;Node1</title>
<g id="a_edge3_Node000001_Node000004"><a xlink:title=" ">
<path fill="none" stroke="#9a32cd" stroke-dasharray="5,2" d="M173.79,-192.44C220.6,-188.21 278.91,-181.05 330,-169.15 343.03,-166.12 356.93,-161.62 369.25,-157.16"/>
<polygon fill="#9a32cd" stroke="#9a32cd" points="173.34,-188.96 163.68,-193.32 173.95,-195.94 173.34,-188.96"/>
</a>
</g>
<text text-anchor="middle" x="259" y="-193.15" font-family="Helvetica,sans-Serif" font-size="10.00" fill="grey"> nonlinear_solve_parameters</text>
</g>
<!-- Node5 -->
<g id="Node000005" class="node">
<title>Node5</title>
<g id="a_Node000005"><a xlink:href="structOutputParameters.html" target="_top" xlink:title="Struct that holds output parameters.">
<polygon fill="white" stroke="#666666" points="137.5,-170.65 32.5,-170.65 32.5,-151.65 137.5,-151.65 137.5,-170.65"/>
<text text-anchor="middle" x="85" y="-158.65" font-family="Helvetica,sans-Serif" font-size="10.00">OutputParameters</text>
</a>
</g>
</g>
<!-- Node5&#45;&gt;Node1 -->
<g id="edge4_Node000001_Node000005" class="edge">
<title>Node5&#45;&gt;Node1</title>
<g id="a_edge4_Node000001_Node000005"><a xlink:title=" ">
<path fill="none" stroke="#9a32cd" stroke-dasharray="5,2" d="M147.94,-157.48C205.72,-154.05 291.27,-148.98 347.93,-145.62"/>
<polygon fill="#9a32cd" stroke="#9a32cd" points="147.63,-153.99 137.85,-158.08 148.04,-160.98 147.63,-153.99"/>
</a>
</g>
<text text-anchor="middle" x="259" y="-157.15" font-family="Helvetica,sans-Serif" font-size="10.00" fill="grey"> output_parameters</text>
</g>
<!-- Node6 -->
<g id="Node000006" class="node">
<title>Node6</title>
<g id="a_Node000006"><a xlink:href="structCheckpointParameters.html" target="_top" xlink:title="Struct that holds checkpoint parameters.">
<polygon fill="white" stroke="#666666" points="148.5,-133.65 21.5,-133.65 21.5,-114.65 148.5,-114.65 148.5,-133.65"/>
<text text-anchor="middle" x="85" y="-121.65" font-family="Helvetica,sans-Serif" font-size="10.00">CheckpointParameters</text>
</a>
</g>
</g>
<!-- Node6&#45;&gt;Node1 -->
<g id="edge5_Node000001_Node000006" class="edge">
<title>Node6&#45;&gt;Node1</title>
<g id="a_edge5_Node000001_Node000006"><a xlink:title=" ">
<path fill="none" stroke="#9a32cd" stroke-dasharray="5,2" d="M158.7,-122.22C207.31,-121.7 272.63,-122.47 330,-128.15 335.78,-128.72 341.77,-129.5 347.75,-130.39"/>
<polygon fill="#9a32cd" stroke="#9a32cd" points="158.55,-118.72 148.59,-122.35 158.64,-125.72 158.55,-118.72"/>
</a>
</g>
<text text-anchor="middle" x="259" y="-131.15" font-family="Helvetica,sans-Serif" font-size="10.00" fill="grey"> checkpoint_parameters</text>
</g>
<!-- Node7 -->
<g id="Node000007" class="node">
<title>Node7</title>
<g id="a_Node000007"><a xlink:href="structLoadInitialConditionParameters.html" target="_top" xlink:title="Struct that stores relevant load initial condition information.">
<polygon fill="white" stroke="#666666" points="170,-96.65 0,-96.65 0,-77.65 170,-77.65 170,-96.65"/>
<text text-anchor="middle" x="85" y="-84.65" font-family="Helvetica,sans-Serif" font-size="10.00">LoadInitialConditionParameters</text>
</a>
</g>
</g>
<!-- Node7&#45;&gt;Node1 -->
<g id="edge6_Node000001_Node000007" class="edge">
<title>Node7&#45;&gt;Node1</title>
<g id="a_edge6_Node000001_Node000007"><a xlink:title=" ">
<path fill="none" stroke="#9a32cd" stroke-dasharray="5,2" d="M180.48,-86.6C226.28,-88.32 281.69,-93.36 330,-106.15 347.6,-110.81 366.09,-119.4 380.49,-127.02"/>
<polygon fill="#9a32cd" stroke="#9a32cd" points="180.37,-83.09 170.26,-86.26 180.14,-90.09 180.37,-83.09"/>
</a>
</g>
<text text-anchor="middle" x="259" y="-109.15" font-family="Helvetica,sans-Serif" font-size="10.00" fill="grey"> load_ic_parameters</text>
</g>
<!-- Node8 -->
<g id="Node000008" class="node">
<title>Node8</title>
<g id="a_Node000008"><a xlink:href="structNucleationParameters.html" target="_top" xlink:title="Struct that holds nucleation parameters.">
<polygon fill="white" stroke="#666666" points="147.5,-59.65 22.5,-59.65 22.5,-40.65 147.5,-40.65 147.5,-59.65"/>
<text text-anchor="middle" x="85" y="-47.65" font-family="Helvetica,sans-Serif" font-size="10.00">NucleationParameters</text>
</a>
</g>
</g>
<!-- Node8&#45;&gt;Node1 -->
<g id="edge7_Node000001_Node000008" class="edge">
<title>Node8&#45;&gt;Node1</title>
<g id="a_edge7_Node000001_Node000008"><a xlink:title=" ">
<path fill="none" stroke="#9a32cd" stroke-dasharray="5,2" d="M157.77,-44.32C208.06,-43.04 275.72,-47.11 330,-71.15 357.83,-83.48 382.08,-110.21 395.46,-127.12"/>
<polygon fill="#9a32cd" stroke="#9a32cd" points="157.51,-40.83 147.63,-44.65 157.74,-47.82 157.51,-40.83"/>
</a>
</g>
<text text-anchor="middle" x="259" y="-74.15" font-family="Helvetica,sans-Serif" font-size="10.00" fill="grey"> nucleation_parameters</text>
</g>
<!-- Node9 -->
<g id="Node000009" class="node">
<title>Node9</title>
<g id="a_Node000009"><a xlink:href="structMiscellaneousParameters.html" target="_top" xlink:title="Struct that holds miscellaneous parameters.">
<polygon fill="white" stroke="#666666" points="156,-22.65 14,-22.65 14,-3.65 156,-3.65 156,-22.65"/>
<text text-anchor="middle" x="85" y="-10.65" font-family="Helvetica,sans-Serif" font-size="10.00">MiscellaneousParameters</text>
</a>
</g>
</g>
<!-- Node9&#45;&gt;Node1 -->
<g id="edge8_Node000001_Node000009" class="edge">
<title>Node9&#45;&gt;Node1</title>
<g id="a_edge8_Node000001_Node000009"><a xlink:title=" ">
<path fill="none" stroke="#9a32cd" stroke-dasharray="5,2" d="M151.39,-2.52C203.26,2.56 275.79,1.93 330,-29.15 368.43,-51.19 391.54,-101.33 401.2,-126.75"/>
<polygon fill="#9a32cd" stroke="#9a32cd" points="150.88,0.94 141.31,-3.61 151.62,-6.02 150.88,0.94"/>
</a>
</g>
<text text-anchor="middle" x="259" y="-32.15" font-family="Helvetica,sans-Serif" font-size="10.00" fill="grey"> misc_parameters</text>
</g>
</g>
</svg>
