<?xml version="1.0" encoding="UTF-8" standalone="no"?>
<!DOCTYPE svg PUBLIC "-//W3C//DTD SVG 1.1//EN"
 "http://www.w3.org/Graphics/SVG/1.1/DTD/svg11.dtd">
<!-- Generated by graphviz version 2.43.0 (0)
 -->
<!-- Title: /home/runner/work/phaseField/phaseField/include/prismspf/core/constraint_handler.h Pages: 1 -->
<svg width="1917pt" height="368pt"
 viewBox="0.00 0.00 1916.99 368.00" xmlns="http://www.w3.org/2000/svg" xmlns:xlink="http://www.w3.org/1999/xlink">
<g id="graph0" class="graph" transform="scale(1 1) rotate(0) translate(4 364)">
<title>/home/runner/work/phaseField/phaseField/include/prismspf/core/constraint_handler.h</title>
<!-- Node1 -->
<g id="Node000001" class="node">
<title>Node1</title>
<g id="a_Node000001"><a xlink:title=" ">
<polygon fill="#999999" stroke="#666666" points="559.5,-360 395.5,-360 395.5,-319 559.5,-319 559.5,-360"/>
<text text-anchor="start" x="403.5" y="-348" font-family="Helvetica,sans-Serif" font-size="10.00">/home/runner/work/phaseField</text>
<text text-anchor="start" x="403.5" y="-337" font-family="Helvetica,sans-Serif" font-size="10.00">/phaseField/include/prismspf</text>
<text text-anchor="middle" x="477.5" y="-326" font-family="Helvetica,sans-Serif" font-size="10.00">/core/constraint_handler.h</text>
</a>
</g>
</g>
<!-- Node2 -->
<g id="Node000002" class="node">
<title>Node2</title>
<g id="a_Node000002"><a xlink:title=" ">
<polygon fill="#e0e0e0" stroke="#999999" points="121,-283 0,-283 0,-253 121,-253 121,-283"/>
<text text-anchor="start" x="8" y="-271" font-family="Helvetica,sans-Serif" font-size="10.00">deal.II/base/mg_level</text>
<text text-anchor="middle" x="60.5" y="-260" font-family="Helvetica,sans-Serif" font-size="10.00">_object.h</text>
</a>
</g>
</g>
<!-- Node1&#45;&gt;Node2 -->
<g id="edge1_Node000001_Node000002" class="edge">
<title>Node1&#45;&gt;Node2</title>
<g id="a_edge1_Node000001_Node000002"><a xlink:title=" ">
<path fill="none" stroke="#63b8ff" d="M395.32,-326.27C327.25,-315.94 227.74,-300.34 131.12,-283.07"/>
<polygon fill="#63b8ff" stroke="#63b8ff" points="131.64,-279.61 121.18,-281.29 130.4,-286.5 131.64,-279.61"/>
</a>
</g>
</g>
<!-- Node3 -->
<g id="Node000003" class="node">
<title>Node3</title>
<g id="a_Node000003"><a xlink:title=" ">
<polygon fill="#e0e0e0" stroke="#999999" points="279.5,-277.5 139.5,-277.5 139.5,-258.5 279.5,-258.5 279.5,-277.5"/>
<text text-anchor="middle" x="209.5" y="-265.5" font-family="Helvetica,sans-Serif" font-size="10.00">deal.II/dofs/dof_handler.h</text>
</a>
</g>
</g>
<!-- Node1&#45;&gt;Node3 -->
<g id="edge2_Node000001_Node000003" class="edge">
<title>Node1&#45;&gt;Node3</title>
<g id="a_edge2_Node000001_Node000003"><a xlink:title=" ">
<path fill="none" stroke="#63b8ff" d="M402.13,-318.96C353.61,-306.37 292.3,-290.47 252.05,-280.03"/>
<polygon fill="#63b8ff" stroke="#63b8ff" points="252.85,-276.63 242.29,-277.5 251.09,-283.4 252.85,-276.63"/>
</a>
</g>
</g>
<!-- Node4 -->
<g id="Node000004" class="node">
<title>Node4</title>
<g id="a_Node000004"><a xlink:title=" ">
<polygon fill="#e0e0e0" stroke="#999999" points="411.5,-277.5 297.5,-277.5 297.5,-258.5 411.5,-258.5 411.5,-277.5"/>
<text text-anchor="middle" x="354.5" y="-265.5" font-family="Helvetica,sans-Serif" font-size="10.00">deal.II/fe/mapping.h</text>
</a>
</g>
</g>
<!-- Node1&#45;&gt;Node4 -->
<g id="edge3_Node000001_Node000004" class="edge">
<title>Node1&#45;&gt;Node4</title>
<g id="a_edge3_Node000001_Node000004"><a xlink:title=" ">
<path fill="none" stroke="#63b8ff" d="M442.91,-318.96C422.34,-307.33 396.76,-292.88 378.42,-282.51"/>
<polygon fill="#63b8ff" stroke="#63b8ff" points="379.98,-279.38 369.55,-277.5 376.53,-285.47 379.98,-279.38"/>
</a>
</g>
</g>
<!-- Node5 -->
<g id="Node000005" class="node">
<title>Node5</title>
<g id="a_Node000005"><a xlink:title=" ">
<polygon fill="#e0e0e0" stroke="#999999" points="525,-283 430,-283 430,-253 525,-253 525,-283"/>
<text text-anchor="start" x="438" y="-271" font-family="Helvetica,sans-Serif" font-size="10.00">deal.II/lac/affine</text>
<text text-anchor="middle" x="477.5" y="-260" font-family="Helvetica,sans-Serif" font-size="10.00">_constraints.h</text>
</a>
</g>
</g>
<!-- Node1&#45;&gt;Node5 -->
<g id="edge4_Node000001_Node000005" class="edge">
<title>Node1&#45;&gt;Node5</title>
<g id="a_edge4_Node000001_Node000005"><a xlink:title=" ">
<path fill="none" stroke="#63b8ff" d="M477.5,-318.77C477.5,-310.85 477.5,-301.63 477.5,-293.3"/>
<polygon fill="#63b8ff" stroke="#63b8ff" points="481,-293.04 477.5,-283.04 474,-293.04 481,-293.04"/>
</a>
</g>
</g>
<!-- Node6 -->
<g id="Node000006" class="node">
<title>Node6</title>
<g id="a_Node000006"><a xlink:href="type__enums_8h.html" target="_top" xlink:title=" ">
<polygon fill="white" stroke="#666666" points="1640.5,-85 1532.5,-85 1532.5,-55 1640.5,-55 1640.5,-85"/>
<text text-anchor="start" x="1540.5" y="-73" font-family="Helvetica,sans-Serif" font-size="10.00">prismspf/core/type</text>
<text text-anchor="middle" x="1586.5" y="-62" font-family="Helvetica,sans-Serif" font-size="10.00">_enums.h</text>
</a>
</g>
</g>
<!-- Node1&#45;&gt;Node6 -->
<g id="edge5_Node000001_Node000006" class="edge">
<title>Node1&#45;&gt;Node6</title>
<g id="a_edge5_Node000001_Node000006"><a xlink:title=" ">
<path fill="none" stroke="#63b8ff" d="M559.53,-338.04C848.52,-335.56 1806.55,-319.59 1892.5,-217 1915.99,-188.96 1871.6,-128.77 1861.5,-121 1829.29,-96.22 1721.49,-82.46 1650.81,-75.91"/>
<polygon fill="#63b8ff" stroke="#63b8ff" points="1650.94,-72.41 1640.66,-74.99 1650.31,-79.38 1650.94,-72.41"/>
</a>
</g>
</g>
<!-- Node7 -->
<g id="Node000007" class="node">
<title>Node7</title>
<g id="a_Node000007"><a xlink:title=" ">
<polygon fill="#e0e0e0" stroke="#999999" points="1093,-19 992,-19 992,0 1093,0 1093,-19"/>
<text text-anchor="middle" x="1042.5" y="-7" font-family="Helvetica,sans-Serif" font-size="10.00">prismspf/config.h</text>
</a>
</g>
</g>
<!-- Node1&#45;&gt;Node7 -->
<g id="edge43_Node000001_Node000007" class="edge">
<title>Node1&#45;&gt;Node7</title>
<g id="a_edge43_Node000001_Node000007"><a xlink:title=" ">
<path fill="none" stroke="#63b8ff" d="M502.66,-318.99C513.62,-309.27 525.71,-296.68 533.5,-283 551.63,-251.15 553.5,-239.65 553.5,-203 553.5,-203 553.5,-203 553.5,-135 553.5,-47.68 850.03,-20.86 981.26,-13.26"/>
<polygon fill="#63b8ff" stroke="#63b8ff" points="981.76,-16.74 991.55,-12.69 981.37,-9.75 981.76,-16.74"/>
</a>
</g>
</g>
<!-- Node10 -->
<g id="Node000010" class="node">
<title>Node10</title>
<g id="a_Node000010"><a xlink:href="boundary__parameters_8h.html" target="_top" xlink:title=" ">
<polygon fill="white" stroke="#666666" points="1512.5,-283 1376.5,-283 1376.5,-253 1512.5,-253 1512.5,-283"/>
<text text-anchor="start" x="1384.5" y="-271" font-family="Helvetica,sans-Serif" font-size="10.00">prismspf/user_inputs</text>
<text text-anchor="middle" x="1444.5" y="-260" font-family="Helvetica,sans-Serif" font-size="10.00">/boundary_parameters.h</text>
</a>
</g>
</g>
<!-- Node1&#45;&gt;Node10 -->
<g id="edge9_Node000001_Node000010" class="edge">
<title>Node1&#45;&gt;Node10</title>
<g id="a_edge9_Node000001_Node000010"><a xlink:title=" ">
<path fill="none" stroke="#63b8ff" d="M559.53,-332.6C743.28,-319.4 1185.9,-287.59 1366.14,-274.63"/>
<polygon fill="#63b8ff" stroke="#63b8ff" points="1366.62,-278.11 1376.34,-273.9 1366.11,-271.12 1366.62,-278.11"/>
</a>
</g>
</g>
<!-- Node6&#45;&gt;Node7 -->
<g id="edge6_Node000006_Node000007" class="edge">
<title>Node6&#45;&gt;Node7</title>
<g id="a_edge6_Node000006_Node000007"><a xlink:title=" ">
<path fill="none" stroke="#63b8ff" d="M1532.35,-63.18C1430.29,-52.2 1210.15,-28.53 1103.24,-17.03"/>
<polygon fill="#63b8ff" stroke="#63b8ff" points="1103.57,-13.55 1093.25,-15.96 1102.82,-20.51 1103.57,-13.55"/>
</a>
</g>
</g>
<!-- Node8 -->
<g id="Node000008" class="node">
<title>Node8</title>
<g id="a_Node000008"><a xlink:title=" ">
<polygon fill="#e0e0e0" stroke="#999999" points="1611.5,-19 1561.5,-19 1561.5,0 1611.5,0 1611.5,-19"/>
<text text-anchor="middle" x="1586.5" y="-7" font-family="Helvetica,sans-Serif" font-size="10.00">cstdint</text>
</a>
</g>
</g>
<!-- Node6&#45;&gt;Node8 -->
<g id="edge7_Node000006_Node000008" class="edge">
<title>Node6&#45;&gt;Node8</title>
<g id="a_edge7_Node000006_Node000008"><a xlink:title=" ">
<path fill="none" stroke="#63b8ff" d="M1586.5,-54.84C1586.5,-47.21 1586.5,-37.7 1586.5,-29.45"/>
<polygon fill="#63b8ff" stroke="#63b8ff" points="1590,-29.27 1586.5,-19.27 1583,-29.27 1590,-29.27"/>
</a>
</g>
</g>
<!-- Node9 -->
<g id="Node000009" class="node">
<title>Node9</title>
<g id="a_Node000009"><a xlink:title=" ">
<polygon fill="#e0e0e0" stroke="#999999" points="1690.5,-19 1646.5,-19 1646.5,0 1690.5,0 1690.5,-19"/>
<text text-anchor="middle" x="1668.5" y="-7" font-family="Helvetica,sans-Serif" font-size="10.00">string</text>
</a>
</g>
</g>
<!-- Node6&#45;&gt;Node9 -->
<g id="edge8_Node000006_Node000009" class="edge">
<title>Node6&#45;&gt;Node9</title>
<g id="a_edge8_Node000006_Node000009"><a xlink:title=" ">
<path fill="none" stroke="#63b8ff" d="M1606.35,-54.84C1618.98,-45.83 1635.3,-34.18 1648.05,-25.09"/>
<polygon fill="#63b8ff" stroke="#63b8ff" points="1650.1,-27.92 1656.21,-19.27 1646.04,-22.22 1650.1,-27.92"/>
</a>
</g>
</g>
<!-- Node10&#45;&gt;Node6 -->
<g id="edge24_Node000010_Node000006" class="edge">
<title>Node10&#45;&gt;Node6</title>
<g id="a_edge24_Node000010_Node000006"><a xlink:title=" ">
<path fill="none" stroke="#63b8ff" d="M1512.57,-266.51C1590.18,-261.63 1710.59,-239.45 1743.5,-151 1748.15,-138.5 1751.37,-131.76 1743.5,-121 1722.31,-92.01 1684.16,-79.43 1650.77,-74.14"/>
<polygon fill="#63b8ff" stroke="#63b8ff" points="1650.97,-70.63 1640.59,-72.72 1650.01,-77.56 1650.97,-70.63"/>
</a>
</g>
</g>
<!-- Node10&#45;&gt;Node7 -->
<g id="edge37_Node000010_Node000007" class="edge">
<title>Node10&#45;&gt;Node7</title>
<g id="a_edge37_Node000010_Node000007"><a xlink:title=" ">
<path fill="none" stroke="#63b8ff" d="M1376.27,-265.43C1181.74,-260.63 636.62,-244.73 610.5,-217 574.31,-178.57 617.36,-120.14 751.5,-55 791.02,-35.81 908.69,-22.32 981.73,-15.54"/>
<polygon fill="#63b8ff" stroke="#63b8ff" points="982.09,-19.02 991.73,-14.62 981.45,-12.05 982.09,-19.02"/>
</a>
</g>
</g>
<!-- Node10&#45;&gt;Node9 -->
<g id="edge40_Node000010_Node000009" class="edge">
<title>Node10&#45;&gt;Node9</title>
<g id="a_edge40_Node000010_Node000009"><a xlink:title=" ">
<path fill="none" stroke="#63b8ff" d="M1512.6,-264.31C1631.71,-258.9 1867.65,-244.78 1892.5,-217 1964.73,-136.27 1778.02,-52.54 1700.46,-22.29"/>
<polygon fill="#63b8ff" stroke="#63b8ff" points="1701.29,-18.86 1690.7,-18.54 1698.78,-25.39 1701.29,-18.86"/>
</a>
</g>
</g>
<!-- Node11 -->
<g id="Node000011" class="node">
<title>Node11</title>
<g id="a_Node000011"><a xlink:title=" ">
<polygon fill="#e0e0e0" stroke="#999999" points="887.5,-211.5 777.5,-211.5 777.5,-192.5 887.5,-192.5 887.5,-211.5"/>
<text text-anchor="middle" x="832.5" y="-199.5" font-family="Helvetica,sans-Serif" font-size="10.00">deal.II/base/point.h</text>
</a>
</g>
</g>
<!-- Node10&#45;&gt;Node11 -->
<g id="edge10_Node000010_Node000011" class="edge">
<title>Node10&#45;&gt;Node11</title>
<g id="a_edge10_Node000010_Node000011"><a xlink:title=" ">
<path fill="none" stroke="#63b8ff" d="M1376.25,-263.51C1272.26,-257.57 1068.1,-243.49 896.5,-217 890.52,-216.08 884.27,-214.93 878.11,-213.7"/>
<polygon fill="#63b8ff" stroke="#63b8ff" points="878.4,-210.19 867.9,-211.57 876.97,-217.04 878.4,-210.19"/>
</a>
</g>
</g>
<!-- Node12 -->
<g id="Node000012" class="node">
<title>Node12</title>
<g id="a_Node000012"><a xlink:title=" ">
<polygon fill="#e0e0e0" stroke="#999999" points="1017.5,-211.5 905.5,-211.5 905.5,-192.5 1017.5,-192.5 1017.5,-211.5"/>
<text text-anchor="middle" x="961.5" y="-199.5" font-family="Helvetica,sans-Serif" font-size="10.00">deal.II/base/types.h</text>
</a>
</g>
</g>
<!-- Node10&#45;&gt;Node12 -->
<g id="edge11_Node000010_Node000012" class="edge">
<title>Node10&#45;&gt;Node12</title>
<g id="a_edge11_Node000010_Node000012"><a xlink:title=" ">
<path fill="none" stroke="#63b8ff" d="M1376.17,-260.8C1293.17,-252.81 1149.05,-237.48 1026.5,-217 1020.59,-216.01 1014.41,-214.85 1008.3,-213.62"/>
<polygon fill="#63b8ff" stroke="#63b8ff" points="1008.67,-210.13 998.17,-211.52 1007.25,-216.98 1008.67,-210.13"/>
</a>
</g>
</g>
<!-- Node13 -->
<g id="Node000013" class="node">
<title>Node13</title>
<g id="a_Node000013"><a xlink:title=" ">
<polygon fill="#e0e0e0" stroke="#999999" points="1157.5,-211.5 1035.5,-211.5 1035.5,-192.5 1157.5,-192.5 1157.5,-211.5"/>
<text text-anchor="middle" x="1096.5" y="-199.5" font-family="Helvetica,sans-Serif" font-size="10.00">deal.II/base/utilities.h</text>
</a>
</g>
</g>
<!-- Node10&#45;&gt;Node13 -->
<g id="edge12_Node000010_Node000013" class="edge">
<title>Node10&#45;&gt;Node13</title>
<g id="a_edge12_Node000010_Node000013"><a xlink:title=" ">
<path fill="none" stroke="#63b8ff" d="M1376.43,-255.03C1320.32,-245.08 1238.69,-230.44 1167.5,-217 1161.65,-215.89 1155.53,-214.72 1149.44,-213.54"/>
<polygon fill="#63b8ff" stroke="#63b8ff" points="1149.77,-210.03 1139.28,-211.55 1148.42,-216.9 1149.77,-210.03"/>
</a>
</g>
</g>
<!-- Node14 -->
<g id="Node000014" class="node">
<title>Node14</title>
<g id="a_Node000014"><a xlink:title=" ">
<polygon fill="#e0e0e0" stroke="#999999" points="1301,-217 1176,-217 1176,-187 1301,-187 1301,-217"/>
<text text-anchor="start" x="1184" y="-205" font-family="Helvetica,sans-Serif" font-size="10.00">boost/algorithm/string</text>
<text text-anchor="middle" x="1238.5" y="-194" font-family="Helvetica,sans-Serif" font-size="10.00">/predicate.hpp</text>
</a>
</g>
</g>
<!-- Node10&#45;&gt;Node14 -->
<g id="edge13_Node000010_Node000014" class="edge">
<title>Node10&#45;&gt;Node14</title>
<g id="a_edge13_Node000010_Node000014"><a xlink:title=" ">
<path fill="none" stroke="#63b8ff" d="M1399.29,-252.95C1368.17,-243.28 1326.63,-230.38 1293.57,-220.11"/>
<polygon fill="#63b8ff" stroke="#63b8ff" points="1294.19,-216.64 1283.6,-217.01 1292.11,-223.32 1294.19,-216.64"/>
</a>
</g>
</g>
<!-- Node15 -->
<g id="Node000015" class="node">
<title>Node15</title>
<g id="a_Node000015"><a xlink:href="conditional__ostreams_8h.html" target="_top" xlink:title=" ">
<polygon fill="white" stroke="#666666" points="759.5,-217 619.5,-217 619.5,-187 759.5,-187 759.5,-217"/>
<text text-anchor="start" x="627.5" y="-205" font-family="Helvetica,sans-Serif" font-size="10.00">prismspf/core/conditional</text>
<text text-anchor="middle" x="689.5" y="-194" font-family="Helvetica,sans-Serif" font-size="10.00">_ostreams.h</text>
</a>
</g>
</g>
<!-- Node10&#45;&gt;Node15 -->
<g id="edge14_Node000010_Node000015" class="edge">
<title>Node10&#45;&gt;Node15</title>
<g id="a_edge14_Node000010_Node000015"><a xlink:title=" ">
<path fill="none" stroke="#63b8ff" d="M1376.15,-264.24C1255.66,-258.88 997.48,-245.13 769.79,-217.07"/>
<polygon fill="#63b8ff" stroke="#63b8ff" points="770.01,-213.58 759.66,-215.81 769.15,-220.52 770.01,-213.58"/>
</a>
</g>
</g>
<!-- Node17 -->
<g id="Node000017" class="node">
<title>Node17</title>
<g id="a_Node000017"><a xlink:href="exceptions_8h.html" target="_top" xlink:title=" ">
<polygon fill="white" stroke="#666666" points="1468,-211.5 1319,-211.5 1319,-192.5 1468,-192.5 1468,-211.5"/>
<text text-anchor="middle" x="1393.5" y="-199.5" font-family="Helvetica,sans-Serif" font-size="10.00">prismspf/core/exceptions.h</text>
</a>
</g>
</g>
<!-- Node10&#45;&gt;Node17 -->
<g id="edge17_Node000010_Node000017" class="edge">
<title>Node10&#45;&gt;Node17</title>
<g id="a_edge17_Node000010_Node000017"><a xlink:title=" ">
<path fill="none" stroke="#63b8ff" d="M1433.18,-252.8C1425.39,-243.01 1415,-229.98 1406.81,-219.7"/>
<polygon fill="#63b8ff" stroke="#63b8ff" points="1409.52,-217.48 1400.55,-211.84 1404.04,-221.85 1409.52,-217.48"/>
</a>
</g>
</g>
<!-- Node19 -->
<g id="Node000019" class="node">
<title>Node19</title>
<g id="a_Node000019"><a xlink:href="types_8h.html" target="_top" xlink:title=" ">
<polygon fill="white" stroke="#666666" points="1386.5,-145.5 1264.5,-145.5 1264.5,-126.5 1386.5,-126.5 1386.5,-145.5"/>
<text text-anchor="middle" x="1325.5" y="-133.5" font-family="Helvetica,sans-Serif" font-size="10.00">prismspf/core/types.h</text>
</a>
</g>
</g>
<!-- Node10&#45;&gt;Node19 -->
<g id="edge25_Node000010_Node000019" class="edge">
<title>Node10&#45;&gt;Node19</title>
<g id="a_edge25_Node000010_Node000019"><a xlink:title=" ">
<path fill="none" stroke="#63b8ff" d="M1458.24,-252.99C1473.01,-236.18 1492.48,-207.69 1477.5,-187 1465.69,-170.68 1418.47,-156.8 1379.76,-147.84"/>
<polygon fill="#63b8ff" stroke="#63b8ff" points="1380.14,-144.34 1369.61,-145.56 1378.6,-151.17 1380.14,-144.34"/>
</a>
</g>
</g>
<!-- Node21 -->
<g id="Node000021" class="node">
<title>Node21</title>
<g id="a_Node000021"><a xlink:href="variable__attributes_8h.html" target="_top" xlink:title=" ">
<polygon fill="white" stroke="#666666" points="1649.5,-217 1523.5,-217 1523.5,-187 1649.5,-187 1649.5,-217"/>
<text text-anchor="start" x="1531.5" y="-205" font-family="Helvetica,sans-Serif" font-size="10.00">prismspf/core/variable</text>
<text text-anchor="middle" x="1586.5" y="-194" font-family="Helvetica,sans-Serif" font-size="10.00">_attributes.h</text>
</a>
</g>
</g>
<!-- Node10&#45;&gt;Node21 -->
<g id="edge26_Node000010_Node000021" class="edge">
<title>Node10&#45;&gt;Node21</title>
<g id="a_edge26_Node000010_Node000021"><a xlink:title=" ">
<path fill="none" stroke="#63b8ff" d="M1475.66,-252.95C1496.38,-243.62 1523.79,-231.27 1546.16,-221.18"/>
<polygon fill="#63b8ff" stroke="#63b8ff" points="1547.73,-224.31 1555.41,-217.01 1544.86,-217.93 1547.73,-224.31"/>
</a>
</g>
</g>
<!-- Node23 -->
<g id="Node000023" class="node">
<title>Node23</title>
<g id="a_Node000023"><a xlink:title=" ">
<polygon fill="#e0e0e0" stroke="#999999" points="1734.5,-145.5 1696.5,-145.5 1696.5,-126.5 1734.5,-126.5 1734.5,-145.5"/>
<text text-anchor="middle" x="1715.5" y="-133.5" font-family="Helvetica,sans-Serif" font-size="10.00">map</text>
</a>
</g>
</g>
<!-- Node10&#45;&gt;Node23 -->
<g id="edge39_Node000010_Node000023" class="edge">
<title>Node10&#45;&gt;Node23</title>
<g id="a_edge39_Node000010_Node000023"><a xlink:title=" ">
<path fill="none" stroke="#63b8ff" d="M1512.58,-263.45C1557.27,-258.29 1615.24,-246 1658.5,-217 1681.69,-201.45 1698.53,-173.08 1707.65,-154.64"/>
<polygon fill="#63b8ff" stroke="#63b8ff" points="1710.84,-156.1 1711.92,-145.56 1704.5,-153.12 1710.84,-156.1"/>
</a>
</g>
</g>
<!-- Node25 -->
<g id="Node000025" class="node">
<title>Node25</title>
<g id="a_Node000025"><a xlink:title=" ">
<polygon fill="#e0e0e0" stroke="#999999" points="1852,-145.5 1805,-145.5 1805,-126.5 1852,-126.5 1852,-145.5"/>
<text text-anchor="middle" x="1828.5" y="-133.5" font-family="Helvetica,sans-Serif" font-size="10.00">vector</text>
</a>
</g>
</g>
<!-- Node10&#45;&gt;Node25 -->
<g id="edge42_Node000010_Node000025" class="edge">
<title>Node10&#45;&gt;Node25</title>
<g id="a_edge42_Node000010_Node000025"><a xlink:title=" ">
<path fill="none" stroke="#63b8ff" d="M1512.75,-263.98C1628.19,-258.17 1851.83,-243.58 1875.5,-217 1893.39,-196.91 1867.94,-168.99 1848.08,-152"/>
<polygon fill="#63b8ff" stroke="#63b8ff" points="1850.28,-149.28 1840.32,-145.65 1845.84,-154.69 1850.28,-149.28"/>
</a>
</g>
</g>
<!-- Node26 -->
<g id="Node000026" class="node">
<title>Node26</title>
<g id="a_Node000026"><a xlink:title=" ">
<polygon fill="#e0e0e0" stroke="#999999" points="1797,-211.5 1744,-211.5 1744,-192.5 1797,-192.5 1797,-211.5"/>
<text text-anchor="middle" x="1770.5" y="-199.5" font-family="Helvetica,sans-Serif" font-size="10.00">cstddef</text>
</a>
</g>
</g>
<!-- Node10&#45;&gt;Node26 -->
<g id="edge38_Node000010_Node000026" class="edge">
<title>Node10&#45;&gt;Node26</title>
<g id="a_edge38_Node000010_Node000026"><a xlink:title=" ">
<path fill="none" stroke="#63b8ff" d="M1512.5,-258.1C1570.64,-249.78 1656.27,-235.8 1729.5,-217 1732.14,-216.32 1734.86,-215.56 1737.57,-214.74"/>
<polygon fill="#63b8ff" stroke="#63b8ff" points="1738.82,-218.01 1747.27,-211.63 1736.68,-211.35 1738.82,-218.01"/>
</a>
</g>
</g>
<!-- Node27 -->
<g id="Node000027" class="node">
<title>Node27</title>
<g id="a_Node000027"><a xlink:title=" ">
<polygon fill="#e0e0e0" stroke="#999999" points="1866,-211.5 1815,-211.5 1815,-192.5 1866,-192.5 1866,-211.5"/>
<text text-anchor="middle" x="1840.5" y="-199.5" font-family="Helvetica,sans-Serif" font-size="10.00">variant</text>
</a>
</g>
</g>
<!-- Node10&#45;&gt;Node27 -->
<g id="edge41_Node000010_Node000027" class="edge">
<title>Node10&#45;&gt;Node27</title>
<g id="a_edge41_Node000010_Node000027"><a xlink:title=" ">
<path fill="none" stroke="#63b8ff" d="M1512.57,-262.76C1586.11,-256.99 1706.21,-244.1 1806.5,-217 1808.44,-216.48 1810.42,-215.87 1812.4,-215.21"/>
<polygon fill="#63b8ff" stroke="#63b8ff" points="1813.95,-218.36 1822.09,-211.57 1811.5,-211.81 1813.95,-218.36"/>
</a>
</g>
</g>
<!-- Node15&#45;&gt;Node7 -->
<g id="edge16_Node000015_Node000007" class="edge">
<title>Node15&#45;&gt;Node7</title>
<g id="a_edge16_Node000015_Node000007"><a xlink:title=" ">
<path fill="none" stroke="#63b8ff" d="M688.93,-186.96C689,-169.34 691.81,-139.2 708.5,-121 779.67,-43.4 906.45,-20.21 981.67,-13.33"/>
<polygon fill="#63b8ff" stroke="#63b8ff" points="982.26,-16.79 991.93,-12.46 981.67,-9.82 982.26,-16.79"/>
</a>
</g>
</g>
<!-- Node16 -->
<g id="Node000016" class="node">
<title>Node16</title>
<g id="a_Node000016"><a xlink:title=" ">
<polygon fill="#e0e0e0" stroke="#999999" points="847.5,-151 717.5,-151 717.5,-121 847.5,-121 847.5,-151"/>
<text text-anchor="start" x="725.5" y="-139" font-family="Helvetica,sans-Serif" font-size="10.00">deal.II/base/conditional</text>
<text text-anchor="middle" x="782.5" y="-128" font-family="Helvetica,sans-Serif" font-size="10.00">_ostream.h</text>
</a>
</g>
</g>
<!-- Node15&#45;&gt;Node16 -->
<g id="edge15_Node000015_Node000016" class="edge">
<title>Node15&#45;&gt;Node16</title>
<g id="a_edge15_Node000015_Node000016"><a xlink:title=" ">
<path fill="none" stroke="#63b8ff" d="M710.14,-186.8C722.9,-178.01 739.48,-166.61 753.54,-156.93"/>
<polygon fill="#63b8ff" stroke="#63b8ff" points="755.66,-159.72 761.92,-151.16 751.7,-153.95 755.66,-159.72"/>
</a>
</g>
</g>
<!-- Node17&#45;&gt;Node7 -->
<g id="edge23_Node000017_Node000007" class="edge">
<title>Node17&#45;&gt;Node7</title>
<g id="a_edge23_Node000017_Node000007"><a xlink:title=" ">
<path fill="none" stroke="#63b8ff" d="M1343.94,-192.44C1332.94,-190.6 1321.33,-188.7 1310.5,-187 1255.26,-178.35 1100.85,-190.71 1061.5,-151 1029.39,-118.6 1033.81,-59.48 1038.7,-29.3"/>
<polygon fill="#63b8ff" stroke="#63b8ff" points="1042.18,-29.74 1040.52,-19.27 1035.29,-28.49 1042.18,-29.74"/>
</a>
</g>
</g>
<!-- Node18 -->
<g id="Node000018" class="node">
<title>Node18</title>
<g id="a_Node000018"><a xlink:title=" ">
<polygon fill="#e0e0e0" stroke="#999999" points="1208.5,-145.5 1070.5,-145.5 1070.5,-126.5 1208.5,-126.5 1208.5,-145.5"/>
<text text-anchor="middle" x="1139.5" y="-133.5" font-family="Helvetica,sans-Serif" font-size="10.00">deal.II/base/exceptions.h</text>
</a>
</g>
</g>
<!-- Node17&#45;&gt;Node18 -->
<g id="edge18_Node000017_Node000018" class="edge">
<title>Node17&#45;&gt;Node18</title>
<g id="a_edge18_Node000017_Node000018"><a xlink:title=" ">
<path fill="none" stroke="#63b8ff" d="M1359.51,-192.44C1313.98,-180.96 1233.15,-160.6 1183.16,-148"/>
<polygon fill="#63b8ff" stroke="#63b8ff" points="1183.84,-144.56 1173.29,-145.51 1182.13,-151.35 1183.84,-144.56"/>
</a>
</g>
</g>
<!-- Node17&#45;&gt;Node19 -->
<g id="edge19_Node000017_Node000019" class="edge">
<title>Node17&#45;&gt;Node19</title>
<g id="a_edge19_Node000017_Node000019"><a xlink:title=" ">
<path fill="none" stroke="#63b8ff" d="M1384.33,-192.37C1373.64,-182.31 1355.76,-165.48 1342.51,-153.01"/>
<polygon fill="#63b8ff" stroke="#63b8ff" points="1344.64,-150.21 1334.96,-145.91 1339.85,-155.31 1344.64,-150.21"/>
</a>
</g>
</g>
<!-- Node19&#45;&gt;Node6 -->
<g id="edge20_Node000019_Node000006" class="edge">
<title>Node19&#45;&gt;Node6</title>
<g id="a_edge20_Node000019_Node000006"><a xlink:title=" ">
<path fill="none" stroke="#63b8ff" d="M1360.43,-126.44C1401.71,-116.31 1471.24,-99.26 1522.31,-86.74"/>
<polygon fill="#63b8ff" stroke="#63b8ff" points="1523.38,-90.08 1532.26,-84.3 1521.72,-83.28 1523.38,-90.08"/>
</a>
</g>
</g>
<!-- Node19&#45;&gt;Node7 -->
<g id="edge21_Node000019_Node000007" class="edge">
<title>Node19&#45;&gt;Node7</title>
<g id="a_edge21_Node000019_Node000007"><a xlink:title=" ">
<path fill="none" stroke="#63b8ff" d="M1320.09,-126.39C1309.15,-109.74 1282.66,-73.17 1250.5,-55 1205.25,-29.44 1146.9,-18.54 1103.52,-13.9"/>
<polygon fill="#63b8ff" stroke="#63b8ff" points="1103.69,-10.4 1093.4,-12.9 1103,-17.36 1103.69,-10.4"/>
</a>
</g>
</g>
<!-- Node20 -->
<g id="Node000020" class="node">
<title>Node20</title>
<g id="a_Node000020"><a xlink:title=" ">
<polygon fill="#e0e0e0" stroke="#999999" points="1373,-79.5 1328,-79.5 1328,-60.5 1373,-60.5 1373,-79.5"/>
<text text-anchor="middle" x="1350.5" y="-67.5" font-family="Helvetica,sans-Serif" font-size="10.00">utility</text>
</a>
</g>
</g>
<!-- Node19&#45;&gt;Node20 -->
<g id="edge22_Node000019_Node000020" class="edge">
<title>Node19&#45;&gt;Node20</title>
<g id="a_edge22_Node000019_Node000020"><a xlink:title=" ">
<path fill="none" stroke="#63b8ff" d="M1328.87,-126.37C1332.54,-116.97 1338.52,-101.67 1343.26,-89.53"/>
<polygon fill="#63b8ff" stroke="#63b8ff" points="1346.64,-90.49 1347.02,-79.91 1340.12,-87.95 1346.64,-90.49"/>
</a>
</g>
</g>
<!-- Node21&#45;&gt;Node6 -->
<g id="edge29_Node000021_Node000006" class="edge">
<title>Node21&#45;&gt;Node6</title>
<g id="a_edge29_Node000021_Node000006"><a xlink:title=" ">
<path fill="none" stroke="#63b8ff" d="M1595.83,-186.81C1601.6,-177.15 1608.47,-163.85 1611.5,-151 1614.56,-138.02 1614.56,-133.98 1611.5,-121 1609.32,-111.77 1605.16,-102.3 1600.85,-94.11"/>
<polygon fill="#63b8ff" stroke="#63b8ff" points="1603.78,-92.19 1595.83,-85.19 1597.68,-95.62 1603.78,-92.19"/>
</a>
</g>
</g>
<!-- Node21&#45;&gt;Node7 -->
<g id="edge31_Node000021_Node000007" class="edge">
<title>Node21&#45;&gt;Node7</title>
<g id="a_edge31_Node000021_Node000007"><a xlink:title=" ">
<path fill="none" stroke="#63b8ff" d="M1523.32,-192.31C1430.7,-179.44 1267.66,-156.27 1255.5,-151 1235.76,-142.44 1235.07,-133.43 1217.5,-121 1164.95,-83.82 1100.24,-44.56 1066.13,-24.34"/>
<polygon fill="#63b8ff" stroke="#63b8ff" points="1067.75,-21.23 1057.36,-19.16 1064.19,-27.26 1067.75,-21.23"/>
</a>
</g>
</g>
<!-- Node21&#45;&gt;Node9 -->
<g id="edge34_Node000021_Node000009" class="edge">
<title>Node21&#45;&gt;Node9</title>
<g id="a_edge34_Node000021_Node000009"><a xlink:title=" ">
<path fill="none" stroke="#63b8ff" d="M1600.18,-186.64C1608.67,-177.12 1619.29,-164.04 1626.5,-151 1648.8,-110.66 1660.57,-57.1 1665.54,-29.2"/>
<polygon fill="#63b8ff" stroke="#63b8ff" points="1669.01,-29.68 1667.22,-19.23 1662.11,-28.51 1669.01,-29.68"/>
</a>
</g>
</g>
<!-- Node21&#45;&gt;Node18 -->
<g id="edge27_Node000021_Node000018" class="edge">
<title>Node21&#45;&gt;Node18</title>
<g id="a_edge27_Node000021_Node000018"><a xlink:title=" ">
<path fill="none" stroke="#63b8ff" d="M1523.29,-192.91C1450.62,-183.48 1327.8,-167.11 1222.5,-151 1214.78,-149.82 1206.67,-148.52 1198.66,-147.21"/>
<polygon fill="#63b8ff" stroke="#63b8ff" points="1199.05,-143.72 1188.62,-145.54 1197.91,-150.63 1199.05,-143.72"/>
</a>
</g>
</g>
<!-- Node21&#45;&gt;Node19 -->
<g id="edge30_Node000021_Node000019" class="edge">
<title>Node21&#45;&gt;Node19</title>
<g id="a_edge30_Node000021_Node000019"><a xlink:title=" ">
<path fill="none" stroke="#63b8ff" d="M1529.22,-186.95C1481.33,-175.21 1413.99,-158.7 1370.06,-147.93"/>
<polygon fill="#63b8ff" stroke="#63b8ff" points="1370.78,-144.5 1360.23,-145.52 1369.11,-151.3 1370.78,-144.5"/>
</a>
</g>
</g>
<!-- Node21&#45;&gt;Node20 -->
<g id="edge35_Node000021_Node000020" class="edge">
<title>Node21&#45;&gt;Node20</title>
<g id="a_edge35_Node000021_Node000020"><a xlink:title=" ">
<path fill="none" stroke="#63b8ff" d="M1523.16,-186.93C1494.79,-178.96 1461.67,-167.27 1434.5,-151 1405.99,-133.93 1379.34,-105.63 1363.99,-87.67"/>
<polygon fill="#63b8ff" stroke="#63b8ff" points="1366.5,-85.21 1357.4,-79.78 1361.12,-89.7 1366.5,-85.21"/>
</a>
</g>
</g>
<!-- Node22 -->
<g id="Node000022" class="node">
<title>Node22</title>
<g id="a_Node000022"><a xlink:title=" ">
<polygon fill="#e0e0e0" stroke="#999999" points="1552,-151 1443,-151 1443,-121 1552,-121 1552,-151"/>
<text text-anchor="start" x="1451" y="-139" font-family="Helvetica,sans-Serif" font-size="10.00">deal.II/matrix_free</text>
<text text-anchor="middle" x="1497.5" y="-128" font-family="Helvetica,sans-Serif" font-size="10.00">/evaluation_flags.h</text>
</a>
</g>
</g>
<!-- Node21&#45;&gt;Node22 -->
<g id="edge28_Node000021_Node000022" class="edge">
<title>Node21&#45;&gt;Node22</title>
<g id="a_edge28_Node000021_Node000022"><a xlink:title=" ">
<path fill="none" stroke="#63b8ff" d="M1566.75,-186.8C1554.65,-178.1 1538.97,-166.82 1525.59,-157.2"/>
<polygon fill="#63b8ff" stroke="#63b8ff" points="1527.36,-154.16 1517.2,-151.16 1523.27,-159.84 1527.36,-154.16"/>
</a>
</g>
</g>
<!-- Node21&#45;&gt;Node23 -->
<g id="edge32_Node000021_Node000023" class="edge">
<title>Node21&#45;&gt;Node23</title>
<g id="a_edge32_Node000021_Node000023"><a xlink:title=" ">
<path fill="none" stroke="#63b8ff" d="M1614.81,-186.95C1636.93,-175.98 1667.46,-160.83 1689.08,-150.11"/>
<polygon fill="#63b8ff" stroke="#63b8ff" points="1690.93,-153.1 1698.33,-145.52 1687.82,-146.83 1690.93,-153.1"/>
</a>
</g>
</g>
<!-- Node24 -->
<g id="Node000024" class="node">
<title>Node24</title>
<g id="a_Node000024"><a xlink:title=" ">
<polygon fill="#e0e0e0" stroke="#999999" points="1602.5,-145.5 1570.5,-145.5 1570.5,-126.5 1602.5,-126.5 1602.5,-145.5"/>
<text text-anchor="middle" x="1586.5" y="-133.5" font-family="Helvetica,sans-Serif" font-size="10.00">set</text>
</a>
</g>
</g>
<!-- Node21&#45;&gt;Node24 -->
<g id="edge33_Node000021_Node000024" class="edge">
<title>Node21&#45;&gt;Node24</title>
<g id="a_edge33_Node000021_Node000024"><a xlink:title=" ">
<path fill="none" stroke="#63b8ff" d="M1586.5,-186.8C1586.5,-177.7 1586.5,-165.79 1586.5,-155.9"/>
<polygon fill="#63b8ff" stroke="#63b8ff" points="1590,-155.84 1586.5,-145.84 1583,-155.84 1590,-155.84"/>
</a>
</g>
</g>
<!-- Node21&#45;&gt;Node25 -->
<g id="edge36_Node000021_Node000025" class="edge">
<title>Node21&#45;&gt;Node25</title>
<g id="a_edge36_Node000021_Node000025"><a xlink:title=" ">
<path fill="none" stroke="#63b8ff" d="M1639.61,-186.95C1686.97,-174.43 1754.84,-156.48 1795.02,-145.85"/>
<polygon fill="#63b8ff" stroke="#63b8ff" points="1796.08,-149.19 1804.85,-143.25 1794.29,-142.43 1796.08,-149.19"/>
</a>
</g>
</g>
</g>
</svg>
