<?xml version="1.0" encoding="UTF-8" standalone="no"?>
<!DOCTYPE svg PUBLIC "-//W3C//DTD SVG 1.1//EN"
 "http://www.w3.org/Graphics/SVG/1.1/DTD/svg11.dtd">
<!-- Generated by graphviz version 2.43.0 (0)
 -->
<!-- Title: /home/runner/work/phaseField/phaseField/include/prismspf Pages: 1 -->
<svg width="268pt" height="369pt"
 viewBox="0.00 0.00 268.00 369.00" xmlns="http://www.w3.org/2000/svg" xmlns:xlink="http://www.w3.org/1999/xlink">
<g id="graph0" class="graph" transform="scale(1 1) rotate(0) translate(4 365)">
<title>/home/runner/work/phaseField/phaseField/include/prismspf</title>
<g id="clust1" class="cluster">
<title>clusterdir_d44c64559bbebec7f509842c48db8b23</title>
<g id="a_clust1"><a xlink:href="dir_d44c64559bbebec7f509842c48db8b23.html" target="_top" xlink:title="include">
<polygon fill="#daedff" stroke="#404040" stroke-dasharray="5,2" points="8,-8 8,-353 252,-353 252,-8 8,-8"/>
<text text-anchor="middle" x="130" y="-341" font-family="Helvetica,sans-Serif" font-size="10.00">include</text>
</a>
</g>
</g>
<g id="clust2" class="cluster">
<title>clusterdir_d7097b21af907bf9dd39f88b5093fe19</title>
<g id="a_clust2"><a xlink:href="dir_d7097b21af907bf9dd39f88b5093fe19.html" target="_top">
<polygon fill="#daedff" stroke="#404040" stroke-width="2" points="16,-16 16,-326 244,-326 244,-16 16,-16"/>
</a>
</g>
</g>
<!-- dir_d7097b21af907bf9dd39f88b5093fe19 -->
<g id="node1" class="node">
<title>dir_d7097b21af907bf9dd39f88b5093fe19</title>
<text text-anchor="middle" x="206" y="-306" font-family="Helvetica,sans-Serif" font-size="10.00">prismspf</text>
</g>
<!-- dir_72d2fbe96e504e5d9d70c5885bd9c513 -->
<g id="node2" class="node">
<title>dir_72d2fbe96e504e5d9d70c5885bd9c513</title>
<g id="a_node2"><a xlink:href="dir_72d2fbe96e504e5d9d70c5885bd9c513.html" target="_top" xlink:title="core">
<polygon fill="#4ea9ff" stroke="#404040" points="143,-263 105,-263 105,-244 143,-244 143,-263"/>
<text text-anchor="middle" x="124" y="-251" font-family="Helvetica,sans-Serif" font-size="10.00">core</text>
</a>
</g>
</g>
<!-- dir_cce3571c19e1460ab7bfdfaca6a2c71d -->
<g id="node5" class="node">
<title>dir_cce3571c19e1460ab7bfdfaca6a2c71d</title>
<g id="a_node5"><a xlink:href="dir_cce3571c19e1460ab7bfdfaca6a2c71d.html" target="_top" xlink:title="nucleation">
<polygon fill="#4ea9ff" stroke="#404040" points="158,-208 90,-208 90,-189 158,-189 158,-208"/>
<text text-anchor="middle" x="124" y="-196" font-family="Helvetica,sans-Serif" font-size="10.00">nucleation</text>
</a>
</g>
</g>
<!-- dir_72d2fbe96e504e5d9d70c5885bd9c513&#45;&gt;dir_cce3571c19e1460ab7bfdfaca6a2c71d -->
<g id="edge3" class="edge">
<title>dir_72d2fbe96e504e5d9d70c5885bd9c513&#45;&gt;dir_cce3571c19e1460ab7bfdfaca6a2c71d</title>
<g id="a_edge3"><a xlink:href="dir_000001_000008.html" target="_top">
<path fill="none" stroke="#63b8ff" d="M118.83,-243.75C117.34,-236.8 116.9,-226.85 117.52,-218.13"/>
<polygon fill="#63b8ff" stroke="#63b8ff" points="121.01,-218.47 118.87,-208.09 114.07,-217.53 121.01,-218.47"/>
</a>
</g>
<g id="a_edge3&#45;headlabel"><a xlink:href="dir_000001_000008.html" target="_top" xlink:title="1">
<text text-anchor="middle" x="123.34" y="-219.91" font-family="Helvetica,sans-Serif" font-size="10.00" fill="#63b8ff">1</text>
</a>
</g>
</g>
<!-- dir_1b89f3ef2cea2c4e7a7e310b8e37f1bd -->
<g id="node6" class="node">
<title>dir_1b89f3ef2cea2c4e7a7e310b8e37f1bd</title>
<g id="a_node6"><a xlink:href="dir_1b89f3ef2cea2c4e7a7e310b8e37f1bd.html" target="_top" xlink:title="solvers">
<polygon fill="#4ea9ff" stroke="#404040" points="118,-153 66,-153 66,-134 118,-134 118,-153"/>
<text text-anchor="middle" x="92" y="-141" font-family="Helvetica,sans-Serif" font-size="10.00">solvers</text>
</a>
</g>
</g>
<!-- dir_72d2fbe96e504e5d9d70c5885bd9c513&#45;&gt;dir_1b89f3ef2cea2c4e7a7e310b8e37f1bd -->
<g id="edge1" class="edge">
<title>dir_72d2fbe96e504e5d9d70c5885bd9c513&#45;&gt;dir_1b89f3ef2cea2c4e7a7e310b8e37f1bd</title>
<g id="a_edge1"><a xlink:href="dir_000001_000010.html" target="_top">
<path fill="none" stroke="#63b8ff" d="M104.87,-244.24C92.5,-236.33 78.2,-223.34 72,-208 65.99,-193.12 70.16,-174.98 76.59,-161.9"/>
<polygon fill="#63b8ff" stroke="#63b8ff" points="79.75,-163.42 81.8,-153.03 73.72,-159.88 79.75,-163.42"/>
</a>
</g>
<g id="a_edge1&#45;headlabel"><a xlink:href="dir_000001_000010.html" target="_top" xlink:title="7">
<text text-anchor="middle" x="80.38" y="-165.46" font-family="Helvetica,sans-Serif" font-size="10.00" fill="#63b8ff">7</text>
</a>
</g>
</g>
<!-- dir_8e29679e8d9320f4689771ebd9c97198 -->
<g id="node7" class="node">
<title>dir_8e29679e8d9320f4689771ebd9c97198</title>
<g id="a_node7"><a xlink:href="dir_8e29679e8d9320f4689771ebd9c97198.html" target="_top" xlink:title="user_inputs">
<polygon fill="#4ea9ff" stroke="#404040" points="193.5,-43 120.5,-43 120.5,-24 193.5,-24 193.5,-43"/>
<text text-anchor="middle" x="157" y="-31" font-family="Helvetica,sans-Serif" font-size="10.00">user_inputs</text>
</a>
</g>
</g>
<!-- dir_72d2fbe96e504e5d9d70c5885bd9c513&#45;&gt;dir_8e29679e8d9320f4689771ebd9c97198 -->
<g id="edge2" class="edge">
<title>dir_72d2fbe96e504e5d9d70c5885bd9c513&#45;&gt;dir_8e29679e8d9320f4689771ebd9c97198</title>
<g id="a_edge2"><a xlink:href="dir_000001_000014.html" target="_top">
<path fill="none" stroke="#63b8ff" d="M129.38,-243.93C137.87,-235.99 151.88,-223.14 158,-208 179.34,-155.2 163.78,-85.95 157.73,-53.2"/>
<polygon fill="#63b8ff" stroke="#63b8ff" points="161.17,-52.51 156.07,-43.23 154.26,-53.67 161.17,-52.51"/>
</a>
</g>
<g id="a_edge2&#45;headlabel"><a xlink:href="dir_000001_000014.html" target="_top" xlink:title="5">
<text text-anchor="middle" x="164.56" y="-53.09" font-family="Helvetica,sans-Serif" font-size="10.00" fill="#63b8ff">5</text>
</a>
</g>
</g>
<!-- dir_db21045c204ec69458cba4d9d7ba76a8 -->
<g id="node8" class="node">
<title>dir_db21045c204ec69458cba4d9d7ba76a8</title>
<g id="a_node8"><a xlink:href="dir_db21045c204ec69458cba4d9d7ba76a8.html" target="_top" xlink:title="utilities">
<polygon fill="#4ea9ff" stroke="#404040" points="117.5,-98 64.5,-98 64.5,-79 117.5,-79 117.5,-98"/>
<text text-anchor="middle" x="91" y="-86" font-family="Helvetica,sans-Serif" font-size="10.00">utilities</text>
</a>
</g>
</g>
<!-- dir_72d2fbe96e504e5d9d70c5885bd9c513&#45;&gt;dir_db21045c204ec69458cba4d9d7ba76a8 -->
<g id="edge4" class="edge">
<title>dir_72d2fbe96e504e5d9d70c5885bd9c513&#45;&gt;dir_db21045c204ec69458cba4d9d7ba76a8</title>
<g id="a_edge4"><a xlink:href="dir_000001_000016.html" target="_top">
<path fill="none" stroke="#63b8ff" d="M110.68,-243.79C99.39,-235.76 83.56,-222.85 74,-208 60.16,-186.48 60.82,-178.3 57,-153 55.74,-144.65 54.29,-142 57,-134 60.56,-123.47 67.72,-113.48 74.55,-105.63"/>
<polygon fill="#63b8ff" stroke="#63b8ff" points="77.13,-108.01 81.39,-98.31 72.01,-103.23 77.13,-108.01"/>
</a>
</g>
<g id="a_edge4&#45;headlabel"><a xlink:href="dir_000001_000016.html" target="_top" xlink:title="1">
<text text-anchor="middle" x="76.75" y="-110.07" font-family="Helvetica,sans-Serif" font-size="10.00" fill="#63b8ff">1</text>
</a>
</g>
</g>
<!-- dir_bc5d835c988615d2fc1ba7c872f30ae9 -->
<g id="node3" class="node">
<title>dir_bc5d835c988615d2fc1ba7c872f30ae9</title>
<g id="a_node3"><a xlink:href="dir_bc5d835c988615d2fc1ba7c872f30ae9.html" target="_top" xlink:title="field_input">
<polygon fill="#4ea9ff" stroke="#404040" points="158,-318 90,-318 90,-299 158,-299 158,-318"/>
<text text-anchor="middle" x="124" y="-306" font-family="Helvetica,sans-Serif" font-size="10.00">field_input</text>
</a>
</g>
</g>
<!-- dir_bc5d835c988615d2fc1ba7c872f30ae9&#45;&gt;dir_72d2fbe96e504e5d9d70c5885bd9c513 -->
<g id="edge5" class="edge">
<title>dir_bc5d835c988615d2fc1ba7c872f30ae9&#45;&gt;dir_72d2fbe96e504e5d9d70c5885bd9c513</title>
<g id="a_edge5"><a xlink:href="dir_000003_000001.html" target="_top">
<path fill="none" stroke="#63b8ff" d="M124,-298.75C124,-291.8 124,-281.85 124,-273.13"/>
<polygon fill="#63b8ff" stroke="#63b8ff" points="127.5,-273.09 124,-263.09 120.5,-273.09 127.5,-273.09"/>
</a>
</g>
<g id="a_edge5&#45;headlabel"><a xlink:href="dir_000003_000001.html" target="_top" xlink:title="4">
<text text-anchor="middle" x="130.34" y="-274.18" font-family="Helvetica,sans-Serif" font-size="10.00" fill="#63b8ff">4</text>
</a>
</g>
</g>
<!-- dir_bc5d835c988615d2fc1ba7c872f30ae9&#45;&gt;dir_8e29679e8d9320f4689771ebd9c97198 -->
<g id="edge6" class="edge">
<title>dir_bc5d835c988615d2fc1ba7c872f30ae9&#45;&gt;dir_8e29679e8d9320f4689771ebd9c97198</title>
<g id="a_edge6"><a xlink:href="dir_000003_000014.html" target="_top">
<path fill="none" stroke="#63b8ff" d="M135.41,-298.77C155.94,-281.98 197,-242.95 197,-199.5 197,-199.5 197,-199.5 197,-142.5 197,-108.67 179.53,-72.38 167.68,-51.66"/>
<polygon fill="#63b8ff" stroke="#63b8ff" points="170.68,-49.86 162.56,-43.06 164.66,-53.44 170.68,-49.86"/>
</a>
</g>
<g id="a_edge6&#45;headlabel"><a xlink:href="dir_000003_000014.html" target="_top" xlink:title="4">
<text text-anchor="middle" x="174.96" y="-49" font-family="Helvetica,sans-Serif" font-size="10.00" fill="#63b8ff">4</text>
</a>
</g>
</g>
<!-- dir_bc5d835c988615d2fc1ba7c872f30ae9&#45;&gt;dir_db21045c204ec69458cba4d9d7ba76a8 -->
<g id="edge7" class="edge">
<title>dir_bc5d835c988615d2fc1ba7c872f30ae9&#45;&gt;dir_db21045c204ec69458cba4d9d7ba76a8</title>
<g id="a_edge7"><a xlink:href="dir_000003_000016.html" target="_top">
<path fill="none" stroke="#63b8ff" d="M116.65,-298.86C103.07,-282.37 74.15,-244.81 60,-208 51.11,-184.88 53.01,-177.69 51,-153 50.32,-144.58 47.98,-141.88 51,-134 55.24,-122.94 63.64,-112.91 71.64,-105.18"/>
<polygon fill="#63b8ff" stroke="#63b8ff" points="74.25,-107.55 79.36,-98.27 69.58,-102.33 74.25,-107.55"/>
</a>
</g>
<g id="a_edge7&#45;headlabel"><a xlink:href="dir_000003_000016.html" target="_top" xlink:title="3">
<text text-anchor="middle" x="73.47" y="-109.56" font-family="Helvetica,sans-Serif" font-size="10.00" fill="#63b8ff">3</text>
</a>
</g>
</g>
<!-- dir_bf5fb59c6751b7e03ce123ab2d1984b4 -->
<g id="node4" class="node">
<title>dir_bf5fb59c6751b7e03ce123ab2d1984b4</title>
<g id="a_node4"><a xlink:href="dir_bf5fb59c6751b7e03ce123ab2d1984b4.html" target="_top" xlink:title="grains">
<polygon fill="#4ea9ff" stroke="#404040" points="71.5,-318 24.5,-318 24.5,-299 71.5,-299 71.5,-318"/>
<text text-anchor="middle" x="48" y="-306" font-family="Helvetica,sans-Serif" font-size="10.00">grains</text>
</a>
</g>
</g>
<!-- dir_cce3571c19e1460ab7bfdfaca6a2c71d&#45;&gt;dir_72d2fbe96e504e5d9d70c5885bd9c513 -->
<g id="edge9" class="edge">
<title>dir_cce3571c19e1460ab7bfdfaca6a2c71d&#45;&gt;dir_72d2fbe96e504e5d9d70c5885bd9c513</title>
<g id="a_edge9"><a xlink:href="dir_000008_000001.html" target="_top">
<path fill="none" stroke="#63b8ff" d="M129.13,-208.09C130.64,-214.99 131.09,-224.93 130.49,-233.66"/>
<polygon fill="#63b8ff" stroke="#63b8ff" points="127,-233.38 129.17,-243.75 133.94,-234.29 127,-233.38"/>
</a>
</g>
<g id="a_edge9&#45;headlabel"><a xlink:href="dir_000008_000001.html" target="_top" xlink:title="6">
<text text-anchor="middle" x="124.65" y="-226.94" font-family="Helvetica,sans-Serif" font-size="10.00" fill="#63b8ff">6</text>
</a>
</g>
</g>
<!-- dir_cce3571c19e1460ab7bfdfaca6a2c71d&#45;&gt;dir_1b89f3ef2cea2c4e7a7e310b8e37f1bd -->
<g id="edge8" class="edge">
<title>dir_cce3571c19e1460ab7bfdfaca6a2c71d&#45;&gt;dir_1b89f3ef2cea2c4e7a7e310b8e37f1bd</title>
<g id="a_edge8"><a xlink:href="dir_000008_000010.html" target="_top">
<path fill="none" stroke="#63b8ff" d="M118.72,-188.75C114.29,-181.42 107.84,-170.73 102.38,-161.7"/>
<polygon fill="#63b8ff" stroke="#63b8ff" points="105.35,-159.84 97.19,-153.09 99.36,-163.46 105.35,-159.84"/>
</a>
</g>
<g id="a_edge8&#45;headlabel"><a xlink:href="dir_000008_000010.html" target="_top" xlink:title="1">
<text text-anchor="middle" x="109.64" y="-158.95" font-family="Helvetica,sans-Serif" font-size="10.00" fill="#63b8ff">1</text>
</a>
</g>
</g>
<!-- dir_cce3571c19e1460ab7bfdfaca6a2c71d&#45;&gt;dir_8e29679e8d9320f4689771ebd9c97198 -->
<g id="edge10" class="edge">
<title>dir_cce3571c19e1460ab7bfdfaca6a2c71d&#45;&gt;dir_8e29679e8d9320f4689771ebd9c97198</title>
<g id="a_edge10"><a xlink:href="dir_000008_000014.html" target="_top">
<path fill="none" stroke="#63b8ff" d="M122.51,-188.74C123.49,-163.2 138.21,-88.43 148.71,-53.23"/>
<polygon fill="#63b8ff" stroke="#63b8ff" points="152.17,-53.9 151.95,-43.31 145.52,-51.73 152.17,-53.9"/>
</a>
</g>
<g id="a_edge10&#45;headlabel"><a xlink:href="dir_000008_000014.html" target="_top" xlink:title="6">
<text text-anchor="middle" x="153.76" y="-55.7" font-family="Helvetica,sans-Serif" font-size="10.00" fill="#63b8ff">6</text>
</a>
</g>
</g>
<!-- dir_cce3571c19e1460ab7bfdfaca6a2c71d&#45;&gt;dir_db21045c204ec69458cba4d9d7ba76a8 -->
<g id="edge11" class="edge">
<title>dir_cce3571c19e1460ab7bfdfaca6a2c71d&#45;&gt;dir_db21045c204ec69458cba4d9d7ba76a8</title>
<g id="a_edge11"><a xlink:href="dir_000008_000016.html" target="_top">
<path fill="none" stroke="#63b8ff" d="M126.39,-188.99C129.45,-176.51 133.63,-152.73 127,-134 123.25,-123.41 115.79,-113.49 108.63,-105.71"/>
<polygon fill="#63b8ff" stroke="#63b8ff" points="110.69,-102.82 101.16,-98.19 105.72,-107.76 110.69,-102.82"/>
</a>
</g>
<g id="a_edge11&#45;headlabel"><a xlink:href="dir_000008_000016.html" target="_top" xlink:title="1">
<text text-anchor="middle" x="115.24" y="-100.88" font-family="Helvetica,sans-Serif" font-size="10.00" fill="#63b8ff">1</text>
</a>
</g>
</g>
<!-- dir_1b89f3ef2cea2c4e7a7e310b8e37f1bd&#45;&gt;dir_72d2fbe96e504e5d9d70c5885bd9c513 -->
<g id="edge12" class="edge">
<title>dir_1b89f3ef2cea2c4e7a7e310b8e37f1bd&#45;&gt;dir_72d2fbe96e504e5d9d70c5885bd9c513</title>
<g id="a_edge12"><a xlink:href="dir_000010_000001.html" target="_top">
<path fill="none" stroke="#63b8ff" d="M93.54,-153.03C90.96,-165.52 82.45,-189.33 90,-208 94.49,-219.12 103.24,-229 110.94,-236.61"/>
<polygon fill="#63b8ff" stroke="#63b8ff" points="108.97,-239.57 118.62,-243.93 113.79,-234.5 108.97,-239.57"/>
</a>
</g>
<g id="a_edge12&#45;headlabel"><a xlink:href="dir_000010_000001.html" target="_top" xlink:title="23">
<text text-anchor="middle" x="104.41" y="-236.64" font-family="Helvetica,sans-Serif" font-size="10.00" fill="#63b8ff">23</text>
</a>
</g>
</g>
<!-- dir_1b89f3ef2cea2c4e7a7e310b8e37f1bd&#45;&gt;dir_8e29679e8d9320f4689771ebd9c97198 -->
<g id="edge13" class="edge">
<title>dir_1b89f3ef2cea2c4e7a7e310b8e37f1bd&#45;&gt;dir_8e29679e8d9320f4689771ebd9c97198</title>
<g id="a_edge13"><a xlink:href="dir_000010_000014.html" target="_top">
<path fill="none" stroke="#63b8ff" d="M99.87,-133.74C107.41,-125.06 118.83,-111.21 127,-98 136.11,-83.27 144.35,-65.34 149.87,-52.29"/>
<polygon fill="#63b8ff" stroke="#63b8ff" points="153.12,-53.61 153.69,-43.03 146.64,-50.94 153.12,-53.61"/>
</a>
</g>
<g id="a_edge13&#45;headlabel"><a xlink:href="dir_000010_000014.html" target="_top" xlink:title="1">
<text text-anchor="middle" x="154.37" y="-55.52" font-family="Helvetica,sans-Serif" font-size="10.00" fill="#63b8ff">1</text>
</a>
</g>
</g>
<!-- dir_1b89f3ef2cea2c4e7a7e310b8e37f1bd&#45;&gt;dir_db21045c204ec69458cba4d9d7ba76a8 -->
<g id="edge14" class="edge">
<title>dir_1b89f3ef2cea2c4e7a7e310b8e37f1bd&#45;&gt;dir_db21045c204ec69458cba4d9d7ba76a8</title>
<g id="a_edge14"><a xlink:href="dir_000010_000016.html" target="_top">
<path fill="none" stroke="#63b8ff" d="M91.83,-133.75C91.7,-126.8 91.52,-116.85 91.35,-108.13"/>
<polygon fill="#63b8ff" stroke="#63b8ff" points="94.85,-108.02 91.16,-98.09 87.85,-108.15 94.85,-108.02"/>
</a>
</g>
<g id="a_edge14&#45;headlabel"><a xlink:href="dir_000010_000016.html" target="_top" xlink:title="1">
<text text-anchor="middle" x="97.76" y="-109.06" font-family="Helvetica,sans-Serif" font-size="10.00" fill="#63b8ff">1</text>
</a>
</g>
</g>
<!-- dir_8e29679e8d9320f4689771ebd9c97198&#45;&gt;dir_72d2fbe96e504e5d9d70c5885bd9c513 -->
<g id="edge15" class="edge">
<title>dir_8e29679e8d9320f4689771ebd9c97198&#45;&gt;dir_72d2fbe96e504e5d9d70c5885bd9c513</title>
<g id="a_edge15"><a xlink:href="dir_000014_000001.html" target="_top">
<path fill="none" stroke="#63b8ff" d="M163.99,-43.23C177.59,-69.38 199.86,-148.98 176,-208 171.16,-219.98 161.37,-230.53 151.42,-238.35"/>
<polygon fill="#63b8ff" stroke="#63b8ff" points="149.25,-235.59 143.13,-244.24 153.31,-241.3 149.25,-235.59"/>
</a>
</g>
<g id="a_edge15&#45;headlabel"><a xlink:href="dir_000014_000001.html" target="_top" xlink:title="36">
<text text-anchor="middle" x="150.53" y="-228.7" font-family="Helvetica,sans-Serif" font-size="10.00" fill="#63b8ff">36</text>
</a>
</g>
</g>
<!-- dir_8e29679e8d9320f4689771ebd9c97198&#45;&gt;dir_cce3571c19e1460ab7bfdfaca6a2c71d -->
<g id="edge16" class="edge">
<title>dir_8e29679e8d9320f4689771ebd9c97198&#45;&gt;dir_cce3571c19e1460ab7bfdfaca6a2c71d</title>
<g id="a_edge16"><a xlink:href="dir_000014_000008.html" target="_top">
<path fill="none" stroke="#63b8ff" d="M158.49,-43.31C157.49,-68.9 142.76,-143.67 132.27,-178.83"/>
<polygon fill="#63b8ff" stroke="#63b8ff" points="128.81,-178.14 129.04,-188.74 135.47,-180.32 128.81,-178.14"/>
</a>
</g>
<g id="a_edge16&#45;headlabel"><a xlink:href="dir_000014_000008.html" target="_top" xlink:title="1">
<text text-anchor="middle" x="127.23" y="-171.35" font-family="Helvetica,sans-Serif" font-size="10.00" fill="#63b8ff">1</text>
</a>
</g>
</g>
<!-- dir_8e29679e8d9320f4689771ebd9c97198&#45;&gt;dir_db21045c204ec69458cba4d9d7ba76a8 -->
<g id="edge17" class="edge">
<title>dir_8e29679e8d9320f4689771ebd9c97198&#45;&gt;dir_db21045c204ec69458cba4d9d7ba76a8</title>
<g id="a_edge17"><a xlink:href="dir_000014_000016.html" target="_top">
<path fill="none" stroke="#63b8ff" d="M151.35,-43.17C143,-51.29 128.02,-63.57 114.94,-73.15"/>
<polygon fill="#63b8ff" stroke="#63b8ff" points="112.85,-70.34 106.72,-78.98 116.9,-76.05 112.85,-70.34"/>
</a>
</g>
<g id="a_edge17&#45;headlabel"><a xlink:href="dir_000014_000016.html" target="_top" xlink:title="6">
<text text-anchor="middle" x="114.14" y="-63.45" font-family="Helvetica,sans-Serif" font-size="10.00" fill="#63b8ff">6</text>
</a>
</g>
</g>
<!-- dir_db21045c204ec69458cba4d9d7ba76a8&#45;&gt;dir_8e29679e8d9320f4689771ebd9c97198 -->
<g id="edge18" class="edge">
<title>dir_db21045c204ec69458cba4d9d7ba76a8&#45;&gt;dir_8e29679e8d9320f4689771ebd9c97198</title>
<g id="a_edge18"><a xlink:href="dir_000016_000014.html" target="_top">
<path fill="none" stroke="#63b8ff" d="M96.73,-78.75C105.08,-70.64 119.97,-58.44 132.98,-48.9"/>
<polygon fill="#63b8ff" stroke="#63b8ff" points="135.04,-51.73 141.17,-43.09 130.99,-46.02 135.04,-51.73"/>
</a>
</g>
<g id="a_edge18&#45;headlabel"><a xlink:href="dir_000016_000014.html" target="_top" xlink:title="3">
<text text-anchor="middle" x="133.76" y="-53.63" font-family="Helvetica,sans-Serif" font-size="10.00" fill="#63b8ff">3</text>
</a>
</g>
</g>
</g>
</svg>
