<?xml version="1.0" encoding="UTF-8" standalone="no"?>
<!DOCTYPE svg PUBLIC "-//W3C//DTD SVG 1.1//EN"
 "http://www.w3.org/Graphics/SVG/1.1/DTD/svg11.dtd">
<!-- Generated by graphviz version 2.43.0 (0)
 -->
<!-- Title: /home/runner/work/phaseField/phaseField/include/prismspf/utilities/element_volume.h Pages: 1 -->
<svg width="2539pt" height="357pt"
 viewBox="0.00 0.00 2539.00 357.00" xmlns="http://www.w3.org/2000/svg" xmlns:xlink="http://www.w3.org/1999/xlink">
<g id="graph0" class="graph" transform="scale(1 1) rotate(0) translate(4 353)">
<title>/home/runner/work/phaseField/phaseField/include/prismspf/utilities/element_volume.h</title>
<!-- Node1 -->
<g id="Node000001" class="node">
<title>Node1</title>
<g id="a_Node000001"><a xlink:title=" ">
<polygon fill="#999999" stroke="#666666" points="2019,-349 1855,-349 1855,-308 2019,-308 2019,-349"/>
<text text-anchor="start" x="1863" y="-337" font-family="Helvetica,sans-Serif" font-size="10.00">/home/runner/work/phaseField</text>
<text text-anchor="start" x="1863" y="-326" font-family="Helvetica,sans-Serif" font-size="10.00">/phaseField/include/prismspf</text>
<text text-anchor="middle" x="1937" y="-315" font-family="Helvetica,sans-Serif" font-size="10.00">/utilities/element_volume.h</text>
</a>
</g>
</g>
<!-- Node2 -->
<g id="Node000002" class="node">
<title>Node2</title>
<g id="a_Node000002"><a xlink:href="grid__refiner__context_8h.html" target="_top" xlink:title=" ">
<polygon fill="white" stroke="#666666" points="164,-272 0,-272 0,-231 164,-231 164,-272"/>
<text text-anchor="start" x="8" y="-260" font-family="Helvetica,sans-Serif" font-size="10.00">/home/runner/work/phaseField</text>
<text text-anchor="start" x="8" y="-249" font-family="Helvetica,sans-Serif" font-size="10.00">/phaseField/include/prismspf</text>
<text text-anchor="middle" x="82" y="-238" font-family="Helvetica,sans-Serif" font-size="10.00">/core/grid_refiner_context.h</text>
</a>
</g>
</g>
<!-- Node1&#45;&gt;Node2 -->
<g id="edge1_Node000001_Node000002" class="edge">
<title>Node1&#45;&gt;Node2</title>
<g id="a_edge1_Node000001_Node000002"><a xlink:title=" ">
<path fill="none" stroke="#63b8ff" d="M1844.45,-326.64C1530.18,-323.41 505.36,-310.14 178,-272 173.44,-271.47 168.77,-270.83 164.07,-270.12"/>
<polygon fill="#63b8ff" stroke="#63b8ff" points="1844.84,-330.15 1854.88,-326.75 1844.91,-323.15 1844.84,-330.15"/>
</a>
</g>
</g>
<!-- Node4 -->
<g id="Node000004" class="node">
<title>Node4</title>
<g id="a_Node000004"><a xlink:href="pde__problem_8cc.html" target="_top" xlink:title=" ">
<polygon fill="white" stroke="#666666" points="438,-41 274,-41 274,0 438,0 438,-41"/>
<text text-anchor="start" x="282" y="-29" font-family="Helvetica,sans-Serif" font-size="10.00">/home/runner/work/phaseField</text>
<text text-anchor="start" x="282" y="-18" font-family="Helvetica,sans-Serif" font-size="10.00">/phaseField/src/core/pde</text>
<text text-anchor="middle" x="356" y="-7" font-family="Helvetica,sans-Serif" font-size="10.00">_problem.cc</text>
</a>
</g>
</g>
<!-- Node1&#45;&gt;Node4 -->
<g id="edge44_Node000001_Node000004" class="edge">
<title>Node1&#45;&gt;Node4</title>
<g id="a_edge44_Node000001_Node000004"><a xlink:title=" ">
<path fill="none" stroke="#63b8ff" d="M1844.65,-321.67C1698.15,-312.26 1403.51,-292.67 1154,-272 730.79,-236.94 421.9,-486.59 211,-118 201.95,-102.18 200.67,-92.01 211,-77 225.59,-55.79 249.47,-42.68 273.69,-34.58"/>
<polygon fill="#63b8ff" stroke="#63b8ff" points="1844.74,-325.18 1854.94,-322.33 1845.19,-318.2 1844.74,-325.18"/>
</a>
</g>
</g>
<!-- Node5 -->
<g id="Node000005" class="node">
<title>Node5</title>
<g id="a_Node000005"><a xlink:href="solver__context_8h.html" target="_top" xlink:title=" ">
<polygon fill="white" stroke="#666666" points="1327,-272 1163,-272 1163,-231 1327,-231 1327,-272"/>
<text text-anchor="start" x="1171" y="-260" font-family="Helvetica,sans-Serif" font-size="10.00">/home/runner/work/phaseField</text>
<text text-anchor="start" x="1171" y="-249" font-family="Helvetica,sans-Serif" font-size="10.00">/phaseField/include/prismspf</text>
<text text-anchor="middle" x="1245" y="-238" font-family="Helvetica,sans-Serif" font-size="10.00">/solvers/solver_context.h</text>
</a>
</g>
</g>
<!-- Node1&#45;&gt;Node5 -->
<g id="edge4_Node000001_Node000005" class="edge">
<title>Node1&#45;&gt;Node5</title>
<g id="a_edge4_Node000001_Node000005"><a xlink:title=" ">
<path fill="none" stroke="#63b8ff" d="M1844.93,-317.52C1709.12,-302.8 1457.2,-275.5 1327.26,-261.42"/>
<polygon fill="#63b8ff" stroke="#63b8ff" points="1844.58,-321 1854.9,-318.6 1845.34,-314.04 1844.58,-321"/>
</a>
</g>
</g>
<!-- Node10 -->
<g id="Node000010" class="node">
<title>Node10</title>
<g id="a_Node000010"><a xlink:href="linear__solver__gmg_8cc.html" target="_top" xlink:title=" ">
<polygon fill="white" stroke="#666666" points="2038,-41 1874,-41 1874,0 2038,0 2038,-41"/>
<text text-anchor="start" x="1882" y="-29" font-family="Helvetica,sans-Serif" font-size="10.00">/home/runner/work/phaseField</text>
<text text-anchor="start" x="1882" y="-18" font-family="Helvetica,sans-Serif" font-size="10.00">/phaseField/src/solvers/linear</text>
<text text-anchor="middle" x="1956" y="-7" font-family="Helvetica,sans-Serif" font-size="10.00">_solver_gmg.cc</text>
</a>
</g>
</g>
<!-- Node1&#45;&gt;Node10 -->
<g id="edge46_Node000001_Node000010" class="edge">
<title>Node1&#45;&gt;Node10</title>
<g id="a_edge46_Node000001_Node000010"><a xlink:title=" ">
<path fill="none" stroke="#63b8ff" d="M1938.86,-297.59C1942.72,-235.41 1951.52,-93.62 1954.77,-41.34"/>
<polygon fill="#63b8ff" stroke="#63b8ff" points="1935.34,-297.7 1938.22,-307.89 1942.33,-298.13 1935.34,-297.7"/>
</a>
</g>
</g>
<!-- Node17 -->
<g id="Node000017" class="node">
<title>Node17</title>
<g id="a_Node000017"><a xlink:href="linear__solver__identity_8cc.html" target="_top" xlink:title=" ">
<polygon fill="white" stroke="#666666" points="1856,-41 1692,-41 1692,0 1856,0 1856,-41"/>
<text text-anchor="start" x="1700" y="-29" font-family="Helvetica,sans-Serif" font-size="10.00">/home/runner/work/phaseField</text>
<text text-anchor="start" x="1700" y="-18" font-family="Helvetica,sans-Serif" font-size="10.00">/phaseField/src/solvers/linear</text>
<text text-anchor="middle" x="1774" y="-7" font-family="Helvetica,sans-Serif" font-size="10.00">_solver_identity.cc</text>
</a>
</g>
</g>
<!-- Node1&#45;&gt;Node17 -->
<g id="edge47_Node000001_Node000017" class="edge">
<title>Node1&#45;&gt;Node17</title>
<g id="a_edge47_Node000001_Node000017"><a xlink:title=" ">
<path fill="none" stroke="#63b8ff" d="M1933.12,-297.8C1924.97,-239.24 1904.62,-111.58 1878,-77 1865.95,-61.35 1848.21,-49.61 1830.78,-41.06"/>
<polygon fill="#63b8ff" stroke="#63b8ff" points="1929.67,-298.45 1934.49,-307.89 1936.61,-297.51 1929.67,-298.45"/>
</a>
</g>
</g>
<!-- Node24 -->
<g id="Node000024" class="node">
<title>Node24</title>
<g id="a_Node000024"><a xlink:href="matrix__free__operator_8cc.html" target="_top" xlink:title=" ">
<polygon fill="white" stroke="#666666" points="2167,-272 2003,-272 2003,-231 2167,-231 2167,-272"/>
<text text-anchor="start" x="2011" y="-260" font-family="Helvetica,sans-Serif" font-size="10.00">/home/runner/work/phaseField</text>
<text text-anchor="start" x="2011" y="-249" font-family="Helvetica,sans-Serif" font-size="10.00">/phaseField/src/core/matrix</text>
<text text-anchor="middle" x="2085" y="-238" font-family="Helvetica,sans-Serif" font-size="10.00">_free_operator.cc</text>
</a>
</g>
</g>
<!-- Node1&#45;&gt;Node24 -->
<g id="edge43_Node000001_Node000024" class="edge">
<title>Node1&#45;&gt;Node24</title>
<g id="a_edge43_Node000001_Node000024"><a xlink:title=" ">
<path fill="none" stroke="#63b8ff" d="M1984.46,-303.45C2004.48,-293.3 2027.49,-281.64 2046.44,-272.04"/>
<polygon fill="#63b8ff" stroke="#63b8ff" points="1982.84,-300.35 1975.5,-307.99 1986,-306.59 1982.84,-300.35"/>
</a>
</g>
</g>
<!-- Node25 -->
<g id="Node000025" class="node">
<title>Node25</title>
<g id="a_Node000025"><a xlink:href="variable__container_8cc.html" target="_top" xlink:title=" ">
<polygon fill="white" stroke="#666666" points="2349,-272 2185,-272 2185,-231 2349,-231 2349,-272"/>
<text text-anchor="start" x="2193" y="-260" font-family="Helvetica,sans-Serif" font-size="10.00">/home/runner/work/phaseField</text>
<text text-anchor="start" x="2193" y="-249" font-family="Helvetica,sans-Serif" font-size="10.00">/phaseField/src/core/variable</text>
<text text-anchor="middle" x="2267" y="-238" font-family="Helvetica,sans-Serif" font-size="10.00">_container.cc</text>
</a>
</g>
</g>
<!-- Node1&#45;&gt;Node25 -->
<g id="edge45_Node000001_Node000025" class="edge">
<title>Node1&#45;&gt;Node25</title>
<g id="a_edge45_Node000001_Node000025"><a xlink:title=" ">
<path fill="none" stroke="#63b8ff" d="M2029.35,-306.51C2078.16,-295.42 2137.56,-281.92 2184.77,-271.19"/>
<polygon fill="#63b8ff" stroke="#63b8ff" points="2028.4,-303.14 2019.42,-308.77 2029.95,-309.96 2028.4,-303.14"/>
</a>
</g>
</g>
<!-- Node26 -->
<g id="Node000026" class="node">
<title>Node26</title>
<g id="a_Node000026"><a xlink:href="element__volume_8cc.html" target="_top" xlink:title=" ">
<polygon fill="white" stroke="#666666" points="2531,-272 2367,-272 2367,-231 2531,-231 2531,-272"/>
<text text-anchor="start" x="2375" y="-260" font-family="Helvetica,sans-Serif" font-size="10.00">/home/runner/work/phaseField</text>
<text text-anchor="start" x="2375" y="-249" font-family="Helvetica,sans-Serif" font-size="10.00">/phaseField/src/utilities</text>
<text text-anchor="middle" x="2449" y="-238" font-family="Helvetica,sans-Serif" font-size="10.00">/element_volume.cc</text>
</a>
</g>
</g>
<!-- Node1&#45;&gt;Node26 -->
<g id="edge48_Node000001_Node000026" class="edge">
<title>Node1&#45;&gt;Node26</title>
<g id="a_edge48_Node000001_Node000026"><a xlink:title=" ">
<path fill="none" stroke="#63b8ff" d="M2029.12,-317.51C2114.63,-307.72 2245.32,-291.47 2358,-272 2360.87,-271.5 2363.78,-270.98 2366.72,-270.44"/>
<polygon fill="#63b8ff" stroke="#63b8ff" points="2028.72,-314.03 2019.18,-318.64 2029.51,-320.98 2028.72,-314.03"/>
</a>
</g>
</g>
<!-- Node3 -->
<g id="Node000003" class="node">
<title>Node3</title>
<g id="a_Node000003"><a xlink:href="grid__refiner_8h.html" target="_top" xlink:title=" ">
<polygon fill="white" stroke="#666666" points="164,-118 0,-118 0,-77 164,-77 164,-118"/>
<text text-anchor="start" x="8" y="-106" font-family="Helvetica,sans-Serif" font-size="10.00">/home/runner/work/phaseField</text>
<text text-anchor="start" x="8" y="-95" font-family="Helvetica,sans-Serif" font-size="10.00">/phaseField/include/prismspf</text>
<text text-anchor="middle" x="82" y="-84" font-family="Helvetica,sans-Serif" font-size="10.00">/core/grid_refiner.h</text>
</a>
</g>
</g>
<!-- Node2&#45;&gt;Node3 -->
<g id="edge2_Node000002_Node000003" class="edge">
<title>Node2&#45;&gt;Node3</title>
<g id="a_edge2_Node000002_Node000003"><a xlink:title=" ">
<path fill="none" stroke="#63b8ff" d="M82,-220.58C82,-190.36 82,-144.53 82,-118.47"/>
<polygon fill="#63b8ff" stroke="#63b8ff" points="78.5,-220.94 82,-230.94 85.5,-220.94 78.5,-220.94"/>
</a>
</g>
</g>
<!-- Node3&#45;&gt;Node4 -->
<g id="edge3_Node000003_Node000004" class="edge">
<title>Node3&#45;&gt;Node4</title>
<g id="a_edge3_Node000003_Node000004"><a xlink:title=" ">
<path fill="none" stroke="#63b8ff" d="M162.93,-74.35C201.53,-63.78 247.31,-51.25 284.61,-41.04"/>
<polygon fill="#63b8ff" stroke="#63b8ff" points="162,-70.97 153.28,-76.99 163.84,-77.73 162,-70.97"/>
</a>
</g>
</g>
<!-- Node5&#45;&gt;Node4 -->
<g id="edge29_Node000005_Node000004" class="edge">
<title>Node5&#45;&gt;Node4</title>
<g id="a_edge29_Node000005_Node000004"><a xlink:title=" ">
<path fill="none" stroke="#63b8ff" d="M1152.79,-247.6C966.6,-241.18 558.61,-223.96 502,-195 467.22,-177.2 398.59,-82.69 369.52,-41.13"/>
<polygon fill="#63b8ff" stroke="#63b8ff" points="1152.72,-251.1 1162.84,-247.95 1152.96,-244.11 1152.72,-251.1"/>
</a>
</g>
</g>
<!-- Node6 -->
<g id="Node000006" class="node">
<title>Node6</title>
<g id="a_Node000006"><a xlink:href="nucleation_8h.html" target="_top" xlink:title=" ">
<polygon fill="white" stroke="#666666" points="384,-118 220,-118 220,-77 384,-77 384,-118"/>
<text text-anchor="start" x="228" y="-106" font-family="Helvetica,sans-Serif" font-size="10.00">/home/runner/work/phaseField</text>
<text text-anchor="start" x="228" y="-95" font-family="Helvetica,sans-Serif" font-size="10.00">/phaseField/include/prismspf</text>
<text text-anchor="middle" x="302" y="-84" font-family="Helvetica,sans-Serif" font-size="10.00">/nucleation/nucleation.h</text>
</a>
</g>
</g>
<!-- Node5&#45;&gt;Node6 -->
<g id="edge5_Node000005_Node000006" class="edge">
<title>Node5&#45;&gt;Node6</title>
<g id="a_edge5_Node000005_Node000006"><a xlink:title=" ">
<path fill="none" stroke="#63b8ff" d="M1152.66,-248.13C947.26,-242.32 465.28,-225.59 398,-195 361.43,-178.37 331.09,-141.27 314.84,-118.22"/>
<polygon fill="#63b8ff" stroke="#63b8ff" points="1152.73,-251.63 1162.82,-248.41 1152.93,-244.63 1152.73,-251.63"/>
</a>
</g>
</g>
<!-- Node7 -->
<g id="Node000007" class="node">
<title>Node7</title>
<g id="a_Node000007"><a xlink:href="linear__solver__base_8h.html" target="_top" xlink:title=" ">
<polygon fill="white" stroke="#666666" points="1776,-195 1612,-195 1612,-154 1776,-154 1776,-195"/>
<text text-anchor="start" x="1620" y="-183" font-family="Helvetica,sans-Serif" font-size="10.00">/home/runner/work/phaseField</text>
<text text-anchor="start" x="1620" y="-172" font-family="Helvetica,sans-Serif" font-size="10.00">/phaseField/include/prismspf</text>
<text text-anchor="middle" x="1694" y="-161" font-family="Helvetica,sans-Serif" font-size="10.00">/solvers/linear_solver_base.h</text>
</a>
</g>
</g>
<!-- Node5&#45;&gt;Node7 -->
<g id="edge7_Node000005_Node000007" class="edge">
<title>Node5&#45;&gt;Node7</title>
<g id="a_edge7_Node000005_Node000007"><a xlink:title=" ">
<path fill="none" stroke="#63b8ff" d="M1337.5,-237.11C1408.82,-226.5 1509.84,-210.88 1598,-195 1602.52,-194.19 1607.15,-193.33 1611.83,-192.44"/>
<polygon fill="#63b8ff" stroke="#63b8ff" points="1336.58,-233.7 1327.2,-238.63 1337.61,-240.63 1336.58,-233.7"/>
</a>
</g>
</g>
<!-- Node9 -->
<g id="Node000009" class="node">
<title>Node9</title>
<g id="a_Node000009"><a xlink:href="solver__handler_8cc.html" target="_top" xlink:title=" ">
<polygon fill="white" stroke="#666666" points="1074,-41 910,-41 910,0 1074,0 1074,-41"/>
<text text-anchor="start" x="918" y="-29" font-family="Helvetica,sans-Serif" font-size="10.00">/home/runner/work/phaseField</text>
<text text-anchor="start" x="918" y="-18" font-family="Helvetica,sans-Serif" font-size="10.00">/phaseField/src/core/solver</text>
<text text-anchor="middle" x="992" y="-7" font-family="Helvetica,sans-Serif" font-size="10.00">_handler.cc</text>
</a>
</g>
</g>
<!-- Node5&#45;&gt;Node9 -->
<g id="edge30_Node000005_Node000009" class="edge">
<title>Node5&#45;&gt;Node9</title>
<g id="a_edge30_Node000005_Node000009"><a xlink:title=" ">
<path fill="none" stroke="#63b8ff" d="M1152.77,-250C972.07,-248.05 585.42,-238.75 545,-195 532.63,-181.62 534.1,-168.6 545,-154 567.2,-124.27 786.95,-69.14 909.85,-40.26"/>
<polygon fill="#63b8ff" stroke="#63b8ff" points="1152.76,-253.5 1162.8,-250.1 1152.83,-246.5 1152.76,-253.5"/>
</a>
</g>
</g>
<!-- Node5&#45;&gt;Node10 -->
<g id="edge36_Node000005_Node000010" class="edge">
<title>Node5&#45;&gt;Node10</title>
<g id="a_edge36_Node000005_Node000010"><a xlink:title=" ">
<path fill="none" stroke="#63b8ff" d="M1337.4,-251.28C1482.46,-250.97 1755.62,-243.65 1838,-195 1898.69,-159.16 1935.05,-78.37 1949.19,-41.07"/>
<polygon fill="#63b8ff" stroke="#63b8ff" points="1337.17,-247.78 1327.18,-251.3 1337.18,-254.78 1337.17,-247.78"/>
</a>
</g>
</g>
<!-- Node11 -->
<g id="Node000011" class="node">
<title>Node11</title>
<g id="a_Node000011"><a xlink:href="sequential__auxiliary__solver_8cc.html" target="_top" xlink:title=" ">
<polygon fill="white" stroke="#666666" points="1274,-41 1092,-41 1092,0 1274,0 1274,-41"/>
<text text-anchor="start" x="1100" y="-29" font-family="Helvetica,sans-Serif" font-size="10.00">/home/runner/work/phaseField</text>
<text text-anchor="start" x="1100" y="-18" font-family="Helvetica,sans-Serif" font-size="10.00">/phaseField/src/solvers/sequential</text>
<text text-anchor="middle" x="1183" y="-7" font-family="Helvetica,sans-Serif" font-size="10.00">_auxiliary_solver.cc</text>
</a>
</g>
</g>
<!-- Node5&#45;&gt;Node11 -->
<g id="edge37_Node000005_Node000011" class="edge">
<title>Node5&#45;&gt;Node11</title>
<g id="a_edge37_Node000005_Node000011"><a xlink:title=" ">
<path fill="none" stroke="#63b8ff" d="M1337.21,-250.27C1436.21,-246.32 1573.45,-227.91 1527,-154 1498.18,-108.15 1357.11,-65.01 1264.81,-41.04"/>
<polygon fill="#63b8ff" stroke="#63b8ff" points="1337.03,-246.78 1327.16,-250.63 1337.27,-253.77 1337.03,-246.78"/>
</a>
</g>
</g>
<!-- Node12 -->
<g id="Node000012" class="node">
<title>Node12</title>
<g id="a_Node000012"><a xlink:href="sequential__co__nonlinear__solver_8cc.html" target="_top" xlink:title=" ">
<polygon fill="white" stroke="#666666" points="1474,-41 1292,-41 1292,0 1474,0 1474,-41"/>
<text text-anchor="start" x="1300" y="-29" font-family="Helvetica,sans-Serif" font-size="10.00">/home/runner/work/phaseField</text>
<text text-anchor="start" x="1300" y="-18" font-family="Helvetica,sans-Serif" font-size="10.00">/phaseField/src/solvers/sequential</text>
<text text-anchor="middle" x="1383" y="-7" font-family="Helvetica,sans-Serif" font-size="10.00">_co_nonlinear_solver.cc</text>
</a>
</g>
</g>
<!-- Node5&#45;&gt;Node12 -->
<g id="edge38_Node000005_Node000012" class="edge">
<title>Node5&#45;&gt;Node12</title>
<g id="a_edge38_Node000005_Node000012"><a xlink:title=" ">
<path fill="none" stroke="#63b8ff" d="M1337.68,-246.07C1416.1,-240.16 1519.81,-226.46 1546,-195 1594.65,-136.56 1489.16,-72.49 1425.97,-41.08"/>
<polygon fill="#63b8ff" stroke="#63b8ff" points="1337,-242.61 1327.28,-246.83 1337.51,-249.6 1337,-242.61"/>
</a>
</g>
</g>
<!-- Node13 -->
<g id="Node000013" class="node">
<title>Node13</title>
<g id="a_Node000013"><a xlink:href="sequential__linear__solver_8cc.html" target="_top" xlink:title=" ">
<polygon fill="white" stroke="#666666" points="1674,-41 1492,-41 1492,0 1674,0 1674,-41"/>
<text text-anchor="start" x="1500" y="-29" font-family="Helvetica,sans-Serif" font-size="10.00">/home/runner/work/phaseField</text>
<text text-anchor="start" x="1500" y="-18" font-family="Helvetica,sans-Serif" font-size="10.00">/phaseField/src/solvers/sequential</text>
<text text-anchor="middle" x="1583" y="-7" font-family="Helvetica,sans-Serif" font-size="10.00">_linear_solver.cc</text>
</a>
</g>
</g>
<!-- Node5&#45;&gt;Node13 -->
<g id="edge39_Node000005_Node000013" class="edge">
<title>Node5&#45;&gt;Node13</title>
<g id="a_edge39_Node000005_Node000013"><a xlink:title=" ">
<path fill="none" stroke="#63b8ff" d="M1337.3,-250.17C1474.8,-248.21 1725.54,-238.55 1803,-195 1840.35,-174 1847.41,-158.63 1861,-118 1866.78,-100.72 1872.56,-91.09 1861,-77 1860.23,-76.06 1754.85,-55.21 1674.07,-39.34"/>
<polygon fill="#63b8ff" stroke="#63b8ff" points="1337.15,-246.67 1327.2,-250.3 1337.24,-253.67 1337.15,-246.67"/>
</a>
</g>
</g>
<!-- Node14 -->
<g id="Node000014" class="node">
<title>Node14</title>
<g id="a_Node000014"><a xlink:href="sequential__self__nonlinear__solver_8cc.html" target="_top" xlink:title=" ">
<polygon fill="white" stroke="#666666" points="692,-41 510,-41 510,0 692,0 692,-41"/>
<text text-anchor="start" x="518" y="-29" font-family="Helvetica,sans-Serif" font-size="10.00">/home/runner/work/phaseField</text>
<text text-anchor="start" x="518" y="-18" font-family="Helvetica,sans-Serif" font-size="10.00">/phaseField/src/solvers/sequential</text>
<text text-anchor="middle" x="601" y="-7" font-family="Helvetica,sans-Serif" font-size="10.00">_self_nonlinear_solver.cc</text>
</a>
</g>
</g>
<!-- Node5&#45;&gt;Node14 -->
<g id="edge40_Node000005_Node000014" class="edge">
<title>Node5&#45;&gt;Node14</title>
<g id="a_edge40_Node000005_Node000014"><a xlink:title=" ">
<path fill="none" stroke="#63b8ff" d="M1152.73,-250.35C965.63,-249.07 555.65,-241 513,-195 488.82,-168.92 533.91,-86.2 540,-77 549.01,-63.39 562.09,-50.9 573.83,-41.22"/>
<polygon fill="#63b8ff" stroke="#63b8ff" points="1152.81,-253.85 1162.83,-250.41 1152.85,-246.85 1152.81,-253.85"/>
</a>
</g>
</g>
<!-- Node15 -->
<g id="Node000015" class="node">
<title>Node15</title>
<g id="a_Node000015"><a xlink:href="sequential__solver_8cc.html" target="_top" xlink:title=" ">
<polygon fill="white" stroke="#666666" points="892,-41 710,-41 710,0 892,0 892,-41"/>
<text text-anchor="start" x="718" y="-29" font-family="Helvetica,sans-Serif" font-size="10.00">/home/runner/work/phaseField</text>
<text text-anchor="start" x="718" y="-18" font-family="Helvetica,sans-Serif" font-size="10.00">/phaseField/src/solvers/sequential</text>
<text text-anchor="middle" x="801" y="-7" font-family="Helvetica,sans-Serif" font-size="10.00">_solver.cc</text>
</a>
</g>
</g>
<!-- Node5&#45;&gt;Node15 -->
<g id="edge41_Node000005_Node000015" class="edge">
<title>Node5&#45;&gt;Node15</title>
<g id="a_edge41_Node000005_Node000015"><a xlink:title=" ">
<path fill="none" stroke="#63b8ff" d="M1152.58,-250.13C969.38,-248.43 574.24,-239.58 533,-195 467.04,-123.7 616.98,-68.71 718.14,-41.11"/>
<polygon fill="#63b8ff" stroke="#63b8ff" points="1152.71,-253.63 1162.74,-250.22 1152.77,-246.63 1152.71,-253.63"/>
</a>
</g>
</g>
<!-- Node18 -->
<g id="Node000018" class="node">
<title>Node18</title>
<g id="a_Node000018"><a xlink:href="linear__solver__base_8cc.html" target="_top" xlink:title=" ">
<polygon fill="white" stroke="#666666" points="1852,-118 1688,-118 1688,-77 1852,-77 1852,-118"/>
<text text-anchor="start" x="1696" y="-106" font-family="Helvetica,sans-Serif" font-size="10.00">/home/runner/work/phaseField</text>
<text text-anchor="start" x="1696" y="-95" font-family="Helvetica,sans-Serif" font-size="10.00">/phaseField/src/solvers/linear</text>
<text text-anchor="middle" x="1770" y="-84" font-family="Helvetica,sans-Serif" font-size="10.00">_solver_base.cc</text>
</a>
</g>
</g>
<!-- Node5&#45;&gt;Node18 -->
<g id="edge35_Node000005_Node000018" class="edge">
<title>Node5&#45;&gt;Node18</title>
<g id="a_edge35_Node000005_Node000018"><a xlink:title=" ">
<path fill="none" stroke="#63b8ff" d="M1337.38,-247.62C1483.78,-242.1 1755.63,-227.54 1785,-195 1803.86,-174.11 1791.95,-139.73 1781.25,-118.15"/>
<polygon fill="#63b8ff" stroke="#63b8ff" points="1336.92,-244.14 1327.06,-248 1337.18,-251.13 1336.92,-244.14"/>
</a>
</g>
</g>
<!-- Node19 -->
<g id="Node000019" class="node">
<title>Node19</title>
<g id="a_Node000019"><a xlink:href="concurrent__constant__solver_8cc.html" target="_top" xlink:title=" ">
<polygon fill="white" stroke="#666666" points="736,-195 554,-195 554,-154 736,-154 736,-195"/>
<text text-anchor="start" x="562" y="-183" font-family="Helvetica,sans-Serif" font-size="10.00">/home/runner/work/phaseField</text>
<text text-anchor="start" x="562" y="-172" font-family="Helvetica,sans-Serif" font-size="10.00">/phaseField/src/solvers/concurrent</text>
<text text-anchor="middle" x="645" y="-161" font-family="Helvetica,sans-Serif" font-size="10.00">_constant_solver.cc</text>
</a>
</g>
</g>
<!-- Node5&#45;&gt;Node19 -->
<g id="edge31_Node000005_Node000019" class="edge">
<title>Node5&#45;&gt;Node19</title>
<g id="a_edge31_Node000005_Node000019"><a xlink:title=" ">
<path fill="none" stroke="#63b8ff" d="M1152.76,-242.55C1052.2,-233.34 886.69,-216.64 745,-195 742.11,-194.56 739.19,-194.09 736.23,-193.61"/>
<polygon fill="#63b8ff" stroke="#63b8ff" points="1152.61,-246.05 1162.88,-243.47 1153.24,-239.08 1152.61,-246.05"/>
</a>
</g>
</g>
<!-- Node20 -->
<g id="Node000020" class="node">
<title>Node20</title>
<g id="a_Node000020"><a xlink:href="concurrent__explicit__postprocess__solver_8cc.html" target="_top" xlink:title=" ">
<polygon fill="white" stroke="#666666" points="936,-195 754,-195 754,-154 936,-154 936,-195"/>
<text text-anchor="start" x="762" y="-183" font-family="Helvetica,sans-Serif" font-size="10.00">/home/runner/work/phaseField</text>
<text text-anchor="start" x="762" y="-172" font-family="Helvetica,sans-Serif" font-size="10.00">/phaseField/src/solvers/concurrent</text>
<text text-anchor="middle" x="845" y="-161" font-family="Helvetica,sans-Serif" font-size="10.00">_explicit_postprocess_solver.cc</text>
</a>
</g>
</g>
<!-- Node5&#45;&gt;Node20 -->
<g id="edge32_Node000005_Node000020" class="edge">
<title>Node5&#45;&gt;Node20</title>
<g id="a_edge32_Node000005_Node000020"><a xlink:title=" ">
<path fill="none" stroke="#63b8ff" d="M1152.73,-233.67C1093.38,-222.78 1014.6,-208.22 945,-195 942.05,-194.44 939.04,-193.87 936.01,-193.29"/>
<polygon fill="#63b8ff" stroke="#63b8ff" points="1152.36,-237.16 1162.83,-235.52 1153.63,-230.27 1152.36,-237.16"/>
</a>
</g>
</g>
<!-- Node21 -->
<g id="Node000021" class="node">
<title>Node21</title>
<g id="a_Node000021"><a xlink:href="concurrent__explicit__solver_8cc.html" target="_top" xlink:title=" ">
<polygon fill="white" stroke="#666666" points="1136,-195 954,-195 954,-154 1136,-154 1136,-195"/>
<text text-anchor="start" x="962" y="-183" font-family="Helvetica,sans-Serif" font-size="10.00">/home/runner/work/phaseField</text>
<text text-anchor="start" x="962" y="-172" font-family="Helvetica,sans-Serif" font-size="10.00">/phaseField/src/solvers/concurrent</text>
<text text-anchor="middle" x="1045" y="-161" font-family="Helvetica,sans-Serif" font-size="10.00">_explicit_solver.cc</text>
</a>
</g>
</g>
<!-- Node5&#45;&gt;Node21 -->
<g id="edge33_Node000005_Node000021" class="edge">
<title>Node5&#45;&gt;Node21</title>
<g id="a_edge33_Node000005_Node000021"><a xlink:title=" ">
<path fill="none" stroke="#63b8ff" d="M1183.41,-227.4C1155.77,-217.04 1123.53,-204.95 1097.11,-195.04"/>
<polygon fill="#63b8ff" stroke="#63b8ff" points="1182.38,-230.76 1192.97,-230.99 1184.84,-224.2 1182.38,-230.76"/>
</a>
</g>
</g>
<!-- Node22 -->
<g id="Node000022" class="node">
<title>Node22</title>
<g id="a_Node000022"><a xlink:href="concurrent__solver_8cc.html" target="_top" xlink:title=" ">
<polygon fill="white" stroke="#666666" points="1336,-195 1154,-195 1154,-154 1336,-154 1336,-195"/>
<text text-anchor="start" x="1162" y="-183" font-family="Helvetica,sans-Serif" font-size="10.00">/home/runner/work/phaseField</text>
<text text-anchor="start" x="1162" y="-172" font-family="Helvetica,sans-Serif" font-size="10.00">/phaseField/src/solvers/concurrent</text>
<text text-anchor="middle" x="1245" y="-161" font-family="Helvetica,sans-Serif" font-size="10.00">_solver.cc</text>
</a>
</g>
</g>
<!-- Node5&#45;&gt;Node22 -->
<g id="edge34_Node000005_Node000022" class="edge">
<title>Node5&#45;&gt;Node22</title>
<g id="a_edge34_Node000005_Node000022"><a xlink:title=" ">
<path fill="none" stroke="#63b8ff" d="M1245,-220.69C1245,-212.08 1245,-202.9 1245,-195.07"/>
<polygon fill="#63b8ff" stroke="#63b8ff" points="1241.5,-220.79 1245,-230.79 1248.5,-220.79 1241.5,-220.79"/>
</a>
</g>
</g>
<!-- Node23 -->
<g id="Node000023" class="node">
<title>Node23</title>
<g id="a_Node000023"><a xlink:href="solver__base_8cc.html" target="_top" xlink:title=" ">
<polygon fill="white" stroke="#666666" points="1518,-195 1354,-195 1354,-154 1518,-154 1518,-195"/>
<text text-anchor="start" x="1362" y="-183" font-family="Helvetica,sans-Serif" font-size="10.00">/home/runner/work/phaseField</text>
<text text-anchor="start" x="1362" y="-172" font-family="Helvetica,sans-Serif" font-size="10.00">/phaseField/src/solvers/solver</text>
<text text-anchor="middle" x="1436" y="-161" font-family="Helvetica,sans-Serif" font-size="10.00">_base.cc</text>
</a>
</g>
</g>
<!-- Node5&#45;&gt;Node23 -->
<g id="edge42_Node000005_Node000023" class="edge">
<title>Node5&#45;&gt;Node23</title>
<g id="a_edge42_Node000005_Node000023"><a xlink:title=" ">
<path fill="none" stroke="#63b8ff" d="M1304.17,-227.27C1330.48,-216.94 1361.12,-204.9 1386.23,-195.04"/>
<polygon fill="#63b8ff" stroke="#63b8ff" points="1302.71,-224.08 1294.68,-230.99 1305.27,-230.59 1302.71,-224.08"/>
</a>
</g>
</g>
<!-- Node6&#45;&gt;Node4 -->
<g id="edge6_Node000006_Node000004" class="edge">
<title>Node6&#45;&gt;Node4</title>
<g id="a_edge6_Node000006_Node000004"><a xlink:title=" ">
<path fill="none" stroke="#63b8ff" d="M322.04,-68.67C328.64,-59.5 335.84,-49.5 341.91,-41.07"/>
<polygon fill="#63b8ff" stroke="#63b8ff" points="319.19,-66.63 316.19,-76.79 324.87,-70.72 319.19,-66.63"/>
</a>
</g>
</g>
<!-- Node8 -->
<g id="Node000008" class="node">
<title>Node8</title>
<g id="a_Node000008"><a xlink:href="linear__solver__gmg_8h.html" target="_top" xlink:title=" ">
<polygon fill="white" stroke="#666666" points="1358,-118 1194,-118 1194,-77 1358,-77 1358,-118"/>
<text text-anchor="start" x="1202" y="-106" font-family="Helvetica,sans-Serif" font-size="10.00">/home/runner/work/phaseField</text>
<text text-anchor="start" x="1202" y="-95" font-family="Helvetica,sans-Serif" font-size="10.00">/phaseField/include/prismspf</text>
<text text-anchor="middle" x="1276" y="-84" font-family="Helvetica,sans-Serif" font-size="10.00">/solvers/linear_solver_gmg.h</text>
</a>
</g>
</g>
<!-- Node7&#45;&gt;Node8 -->
<g id="edge8_Node000007_Node000008" class="edge">
<title>Node7&#45;&gt;Node8</title>
<g id="a_edge8_Node000007_Node000008"><a xlink:title=" ">
<path fill="none" stroke="#63b8ff" d="M1601.83,-156.96C1529.03,-143.9 1428.36,-125.84 1358.25,-113.26"/>
<polygon fill="#63b8ff" stroke="#63b8ff" points="1601.45,-160.45 1611.92,-158.77 1602.69,-153.56 1601.45,-160.45"/>
</a>
</g>
</g>
<!-- Node7&#45;&gt;Node10 -->
<g id="edge27_Node000007_Node000010" class="edge">
<title>Node7&#45;&gt;Node10</title>
<g id="a_edge27_Node000007_Node000010"><a xlink:title=" ">
<path fill="none" stroke="#63b8ff" d="M1678.69,-144.38C1670.01,-123.4 1663.63,-95.63 1679,-77 1705.79,-44.53 1823.75,-49.41 1865,-41 1867.85,-40.42 1870.75,-39.82 1873.68,-39.22"/>
<polygon fill="#63b8ff" stroke="#63b8ff" points="1675.62,-146.08 1682.91,-153.77 1682,-143.21 1675.62,-146.08"/>
</a>
</g>
</g>
<!-- Node16 -->
<g id="Node000016" class="node">
<title>Node16</title>
<g id="a_Node000016"><a xlink:href="linear__solver__identity_8h.html" target="_top" xlink:title=" ">
<polygon fill="white" stroke="#666666" points="1175.5,-118 1004.5,-118 1004.5,-77 1175.5,-77 1175.5,-118"/>
<text text-anchor="start" x="1012.5" y="-106" font-family="Helvetica,sans-Serif" font-size="10.00">/home/runner/work/phaseField</text>
<text text-anchor="start" x="1012.5" y="-95" font-family="Helvetica,sans-Serif" font-size="10.00">/phaseField/include/prismspf</text>
<text text-anchor="middle" x="1090" y="-84" font-family="Helvetica,sans-Serif" font-size="10.00">/solvers/linear_solver_identity.h</text>
</a>
</g>
</g>
<!-- Node7&#45;&gt;Node16 -->
<g id="edge17_Node000007_Node000016" class="edge">
<title>Node7&#45;&gt;Node16</title>
<g id="a_edge17_Node000007_Node000016"><a xlink:title=" ">
<path fill="none" stroke="#63b8ff" d="M1601.38,-162.5C1577.18,-159.67 1551.12,-156.68 1527,-154 1375.09,-137.14 1336.04,-141.39 1185,-118 1181.92,-117.52 1178.79,-117.01 1175.64,-116.48"/>
<polygon fill="#63b8ff" stroke="#63b8ff" points="1601.29,-166.01 1611.63,-163.69 1602.1,-159.06 1601.29,-166.01"/>
</a>
</g>
</g>
<!-- Node7&#45;&gt;Node17 -->
<g id="edge28_Node000007_Node000017" class="edge">
<title>Node7&#45;&gt;Node17</title>
<g id="a_edge28_Node000007_Node000017"><a xlink:title=" ">
<path fill="none" stroke="#63b8ff" d="M1665.3,-146.4C1647.81,-126.53 1631.41,-99.23 1646,-77 1656.83,-60.5 1673.74,-48.88 1691.76,-40.7"/>
<polygon fill="#63b8ff" stroke="#63b8ff" points="1662.88,-148.95 1672.25,-153.9 1668.01,-144.19 1662.88,-148.95"/>
</a>
</g>
</g>
<!-- Node7&#45;&gt;Node18 -->
<g id="edge26_Node000007_Node000018" class="edge">
<title>Node7&#45;&gt;Node18</title>
<g id="a_edge26_Node000007_Node000018"><a xlink:title=" ">
<path fill="none" stroke="#63b8ff" d="M1721.35,-146.51C1730.87,-137.11 1741.37,-126.76 1750.17,-118.07"/>
<polygon fill="#63b8ff" stroke="#63b8ff" points="1718.63,-144.28 1713.97,-153.79 1723.54,-149.26 1718.63,-144.28"/>
</a>
</g>
</g>
<!-- Node8&#45;&gt;Node4 -->
<g id="edge9_Node000008_Node000004" class="edge">
<title>Node8&#45;&gt;Node4</title>
<g id="a_edge9_Node000008_Node000004"><a xlink:title=" ">
<path fill="none" stroke="#63b8ff" d="M1183.9,-77.13C880.9,-38.04 800.41,-68.98 501,-41 480.64,-39.1 458.75,-36.46 438.3,-33.75"/>
<polygon fill="#63b8ff" stroke="#63b8ff" points="1183.48,-80.6 1193.85,-78.42 1184.39,-73.66 1183.48,-80.6"/>
</a>
</g>
</g>
<!-- Node8&#45;&gt;Node9 -->
<g id="edge10_Node000008_Node000009" class="edge">
<title>Node8&#45;&gt;Node9</title>
<g id="a_edge10_Node000008_Node000009"><a xlink:title=" ">
<path fill="none" stroke="#63b8ff" d="M1192.38,-74.42C1152.31,-63.84 1104.74,-51.27 1066,-41.04"/>
<polygon fill="#63b8ff" stroke="#63b8ff" points="1191.56,-77.82 1202.12,-76.99 1193.35,-71.05 1191.56,-77.82"/>
</a>
</g>
</g>
<!-- Node8&#45;&gt;Node10 -->
<g id="edge11_Node000008_Node000010" class="edge">
<title>Node8&#45;&gt;Node10</title>
<g id="a_edge11_Node000008_Node000010"><a xlink:title=" ">
<path fill="none" stroke="#63b8ff" d="M1368.61,-91.14C1484.97,-83.63 1690.58,-67.81 1865,-41 1867.87,-40.56 1870.79,-40.08 1873.74,-39.58"/>
<polygon fill="#63b8ff" stroke="#63b8ff" points="1368.08,-87.67 1358.32,-91.8 1368.52,-94.65 1368.08,-87.67"/>
</a>
</g>
</g>
<!-- Node8&#45;&gt;Node11 -->
<g id="edge12_Node000008_Node000011" class="edge">
<title>Node8&#45;&gt;Node11</title>
<g id="a_edge12_Node000008_Node000011"><a xlink:title=" ">
<path fill="none" stroke="#63b8ff" d="M1243.57,-70.35C1231.65,-60.73 1218.36,-50.01 1207.27,-41.07"/>
<polygon fill="#63b8ff" stroke="#63b8ff" points="1241.58,-73.24 1251.57,-76.79 1245.98,-67.79 1241.58,-73.24"/>
</a>
</g>
</g>
<!-- Node8&#45;&gt;Node12 -->
<g id="edge13_Node000008_Node000012" class="edge">
<title>Node8&#45;&gt;Node12</title>
<g id="a_edge13_Node000008_Node000012"><a xlink:title=" ">
<path fill="none" stroke="#63b8ff" d="M1312.25,-71.09C1326.19,-61.32 1341.88,-50.32 1354.93,-41.17"/>
<polygon fill="#63b8ff" stroke="#63b8ff" points="1310.01,-68.38 1303.83,-76.99 1314.03,-74.12 1310.01,-68.38"/>
</a>
</g>
</g>
<!-- Node8&#45;&gt;Node13 -->
<g id="edge14_Node000008_Node000013" class="edge">
<title>Node8&#45;&gt;Node13</title>
<g id="a_edge14_Node000008_Node000013"><a xlink:title=" ">
<path fill="none" stroke="#63b8ff" d="M1365.57,-74.62C1409.06,-63.99 1460.87,-51.34 1503.01,-41.04"/>
<polygon fill="#63b8ff" stroke="#63b8ff" points="1364.74,-71.22 1355.86,-76.99 1366.4,-78.02 1364.74,-71.22"/>
</a>
</g>
</g>
<!-- Node8&#45;&gt;Node14 -->
<g id="edge15_Node000008_Node000014" class="edge">
<title>Node8&#45;&gt;Node14</title>
<g id="a_edge15_Node000008_Node000014"><a xlink:title=" ">
<path fill="none" stroke="#63b8ff" d="M1183.83,-77.1C969.15,-47.3 911.12,-69.22 701,-41 698.11,-40.61 695.17,-40.19 692.21,-39.75"/>
<polygon fill="#63b8ff" stroke="#63b8ff" points="1183.45,-80.58 1193.84,-78.51 1184.43,-73.65 1183.45,-80.58"/>
</a>
</g>
</g>
<!-- Node8&#45;&gt;Node15 -->
<g id="edge16_Node000008_Node000015" class="edge">
<title>Node8&#45;&gt;Node15</title>
<g id="a_edge16_Node000008_Node000015"><a xlink:title=" ">
<path fill="none" stroke="#63b8ff" d="M1183.73,-77.04C1057.26,-56.09 1023,-60.63 901,-41 898.12,-40.54 895.19,-40.05 892.24,-39.55"/>
<polygon fill="#63b8ff" stroke="#63b8ff" points="1183.36,-80.53 1193.81,-78.73 1184.52,-73.62 1183.36,-80.53"/>
</a>
</g>
</g>
<!-- Node16&#45;&gt;Node4 -->
<g id="edge18_Node000016_Node000004" class="edge">
<title>Node16&#45;&gt;Node4</title>
<g id="a_edge18_Node000016_Node000004"><a xlink:title=" ">
<path fill="none" stroke="#63b8ff" d="M994.07,-88.64C877.4,-78.81 674.52,-60.84 501,-41 480.69,-38.68 458.81,-35.89 438.36,-33.15"/>
<polygon fill="#63b8ff" stroke="#63b8ff" points="993.79,-92.13 1004.05,-89.48 994.38,-85.15 993.79,-92.13"/>
</a>
</g>
</g>
<!-- Node16&#45;&gt;Node9 -->
<g id="edge19_Node000016_Node000009" class="edge">
<title>Node16&#45;&gt;Node9</title>
<g id="a_edge19_Node000016_Node000009"><a xlink:title=" ">
<path fill="none" stroke="#63b8ff" d="M1056.44,-70.82C1043.76,-61.11 1029.55,-50.24 1017.71,-41.17"/>
<polygon fill="#63b8ff" stroke="#63b8ff" points="1054.44,-73.69 1064.51,-76.99 1058.69,-68.13 1054.44,-73.69"/>
</a>
</g>
</g>
<!-- Node16&#45;&gt;Node11 -->
<g id="edge21_Node000016_Node000011" class="edge">
<title>Node16&#45;&gt;Node11</title>
<g id="a_edge21_Node000016_Node000011"><a xlink:title=" ">
<path fill="none" stroke="#63b8ff" d="M1122.43,-70.35C1134.35,-60.73 1147.64,-50.01 1158.73,-41.07"/>
<polygon fill="#63b8ff" stroke="#63b8ff" points="1120.02,-67.79 1114.43,-76.79 1124.42,-73.24 1120.02,-67.79"/>
</a>
</g>
</g>
<!-- Node16&#45;&gt;Node12 -->
<g id="edge22_Node000016_Node000012" class="edge">
<title>Node16&#45;&gt;Node12</title>
<g id="a_edge22_Node000016_Node000012"><a xlink:title=" ">
<path fill="none" stroke="#63b8ff" d="M1176.01,-74.48C1217.4,-63.89 1266.61,-51.29 1306.66,-41.04"/>
<polygon fill="#63b8ff" stroke="#63b8ff" points="1175.04,-71.12 1166.22,-76.99 1176.77,-77.9 1175.04,-71.12"/>
</a>
</g>
</g>
<!-- Node16&#45;&gt;Node13 -->
<g id="edge23_Node000016_Node000013" class="edge">
<title>Node16&#45;&gt;Node13</title>
<g id="a_edge23_Node000016_Node000013"><a xlink:title=" ">
<path fill="none" stroke="#63b8ff" d="M1185.79,-76.95C1318.42,-55.86 1354.44,-61.27 1483,-41 1485.88,-40.55 1488.81,-40.07 1491.76,-39.57"/>
<polygon fill="#63b8ff" stroke="#63b8ff" points="1184.96,-73.54 1175.65,-78.58 1186.07,-80.45 1184.96,-73.54"/>
</a>
</g>
</g>
<!-- Node16&#45;&gt;Node14 -->
<g id="edge24_Node000016_Node000014" class="edge">
<title>Node16&#45;&gt;Node14</title>
<g id="a_edge24_Node000016_Node000014"><a xlink:title=" ">
<path fill="none" stroke="#63b8ff" d="M994.51,-84.25C915.64,-73.81 800.83,-57.84 701,-41 698.12,-40.51 695.2,-40.01 692.25,-39.49"/>
<polygon fill="#63b8ff" stroke="#63b8ff" points="994.06,-87.73 1004.43,-85.56 994.98,-80.79 994.06,-87.73"/>
</a>
</g>
</g>
<!-- Node16&#45;&gt;Node15 -->
<g id="edge25_Node000016_Node000015" class="edge">
<title>Node16&#45;&gt;Node15</title>
<g id="a_edge25_Node000016_Node000015"><a xlink:title=" ">
<path fill="none" stroke="#63b8ff" d="M1004.9,-74.42C964.13,-63.84 915.72,-51.27 876.3,-41.04"/>
<polygon fill="#63b8ff" stroke="#63b8ff" points="1004.26,-77.87 1014.82,-76.99 1006.02,-71.09 1004.26,-77.87"/>
</a>
</g>
</g>
<!-- Node16&#45;&gt;Node17 -->
<g id="edge20_Node000016_Node000017" class="edge">
<title>Node16&#45;&gt;Node17</title>
<g id="a_edge20_Node000016_Node000017"><a xlink:title=" ">
<path fill="none" stroke="#63b8ff" d="M1185.58,-77.03C1406.57,-47.37 1466.53,-71.87 1683,-41 1685.88,-40.59 1688.8,-40.14 1691.75,-39.66"/>
<polygon fill="#63b8ff" stroke="#63b8ff" points="1185.05,-73.57 1175.62,-78.39 1186,-80.51 1185.05,-73.57"/>
</a>
</g>
</g>
</g>
</svg>
