<?xml version="1.0" encoding="UTF-8" standalone="no"?>
<!DOCTYPE svg PUBLIC "-//W3C//DTD SVG 1.1//EN"
 "http://www.w3.org/Graphics/SVG/1.1/DTD/svg11.dtd">
<!-- Generated by graphviz version 2.43.0 (0)
 -->
<!-- Title: /home/runner/work/phaseField/phaseField/include/prismspf/core/matrix_free_operator.h Pages: 1 -->
<svg width="2882pt" height="126pt"
 viewBox="0.00 0.00 2882.00 126.00" xmlns="http://www.w3.org/2000/svg" xmlns:xlink="http://www.w3.org/1999/xlink">
<g id="graph0" class="graph" transform="scale(1 1) rotate(0) translate(4 122)">
<title>/home/runner/work/phaseField/phaseField/include/prismspf/core/matrix_free_operator.h</title>
<!-- Node1 -->
<g id="Node000001" class="node">
<title>Node1</title>
<g id="a_Node000001"><a xlink:title=" ">
<polygon fill="#999999" stroke="#666666" points="1510,-118 1346,-118 1346,-77 1510,-77 1510,-118"/>
<text text-anchor="start" x="1354" y="-106" font-family="Helvetica,sans-Serif" font-size="10.00">/home/runner/work/phaseField</text>
<text text-anchor="start" x="1354" y="-95" font-family="Helvetica,sans-Serif" font-size="10.00">/phaseField/include/prismspf</text>
<text text-anchor="middle" x="1428" y="-84" font-family="Helvetica,sans-Serif" font-size="10.00">/core/matrix_free_operator.h</text>
</a>
</g>
</g>
<!-- Node2 -->
<g id="Node000002" class="node">
<title>Node2</title>
<g id="a_Node000002"><a xlink:href="matrix__free__operator_8cc.html" target="_top" xlink:title=" ">
<polygon fill="white" stroke="#666666" points="164,-41 0,-41 0,0 164,0 164,-41"/>
<text text-anchor="start" x="8" y="-29" font-family="Helvetica,sans-Serif" font-size="10.00">/home/runner/work/phaseField</text>
<text text-anchor="start" x="8" y="-18" font-family="Helvetica,sans-Serif" font-size="10.00">/phaseField/src/core/matrix</text>
<text text-anchor="middle" x="82" y="-7" font-family="Helvetica,sans-Serif" font-size="10.00">_free_operator.cc</text>
</a>
</g>
</g>
<!-- Node1&#45;&gt;Node2 -->
<g id="edge1_Node000001_Node000002" class="edge">
<title>Node1&#45;&gt;Node2</title>
<g id="a_edge1_Node000001_Node000002"><a xlink:title=" ">
<path fill="none" stroke="#63b8ff" d="M1335.44,-94.41C1084.99,-88.44 397.83,-69.86 173,-41 170.12,-40.63 167.19,-40.22 164.23,-39.76"/>
<polygon fill="#63b8ff" stroke="#63b8ff" points="1335.52,-97.91 1345.6,-94.65 1335.68,-90.92 1335.52,-97.91"/>
</a>
</g>
</g>
<!-- Node3 -->
<g id="Node000003" class="node">
<title>Node3</title>
<g id="a_Node000003"><a xlink:href="pde__problem_8cc.html" target="_top" xlink:title=" ">
<polygon fill="white" stroke="#666666" points="346,-41 182,-41 182,0 346,0 346,-41"/>
<text text-anchor="start" x="190" y="-29" font-family="Helvetica,sans-Serif" font-size="10.00">/home/runner/work/phaseField</text>
<text text-anchor="start" x="190" y="-18" font-family="Helvetica,sans-Serif" font-size="10.00">/phaseField/src/core/pde</text>
<text text-anchor="middle" x="264" y="-7" font-family="Helvetica,sans-Serif" font-size="10.00">_problem.cc</text>
</a>
</g>
</g>
<!-- Node1&#45;&gt;Node3 -->
<g id="edge2_Node000001_Node000003" class="edge">
<title>Node1&#45;&gt;Node3</title>
<g id="a_edge2_Node000001_Node000003"><a xlink:title=" ">
<path fill="none" stroke="#63b8ff" d="M1335.79,-96.67C1149.59,-95.91 715.67,-88.66 355,-41 352.12,-40.62 349.19,-40.2 346.24,-39.74"/>
<polygon fill="#63b8ff" stroke="#63b8ff" points="1335.81,-100.17 1345.82,-96.7 1335.83,-93.17 1335.81,-100.17"/>
</a>
</g>
</g>
<!-- Node4 -->
<g id="Node000004" class="node">
<title>Node4</title>
<g id="a_Node000004"><a xlink:href="solver__handler_8cc.html" target="_top" xlink:title=" ">
<polygon fill="white" stroke="#666666" points="528,-41 364,-41 364,0 528,0 528,-41"/>
<text text-anchor="start" x="372" y="-29" font-family="Helvetica,sans-Serif" font-size="10.00">/home/runner/work/phaseField</text>
<text text-anchor="start" x="372" y="-18" font-family="Helvetica,sans-Serif" font-size="10.00">/phaseField/src/core/solver</text>
<text text-anchor="middle" x="446" y="-7" font-family="Helvetica,sans-Serif" font-size="10.00">_handler.cc</text>
</a>
</g>
</g>
<!-- Node1&#45;&gt;Node4 -->
<g id="edge3_Node000001_Node000004" class="edge">
<title>Node1&#45;&gt;Node4</title>
<g id="a_edge3_Node000001_Node000004"><a xlink:title=" ">
<path fill="none" stroke="#63b8ff" d="M1335.48,-95.27C1173.11,-92.09 826.59,-80.82 537,-41 534.12,-40.6 531.19,-40.17 528.24,-39.7"/>
<polygon fill="#63b8ff" stroke="#63b8ff" points="1335.84,-98.77 1345.9,-95.46 1335.97,-91.77 1335.84,-98.77"/>
</a>
</g>
</g>
<!-- Node5 -->
<g id="Node000005" class="node">
<title>Node5</title>
<g id="a_Node000005"><a xlink:href="concurrent__constant__solver_8cc.html" target="_top" xlink:title=" ">
<polygon fill="white" stroke="#666666" points="728,-41 546,-41 546,0 728,0 728,-41"/>
<text text-anchor="start" x="554" y="-29" font-family="Helvetica,sans-Serif" font-size="10.00">/home/runner/work/phaseField</text>
<text text-anchor="start" x="554" y="-18" font-family="Helvetica,sans-Serif" font-size="10.00">/phaseField/src/solvers/concurrent</text>
<text text-anchor="middle" x="637" y="-7" font-family="Helvetica,sans-Serif" font-size="10.00">_constant_solver.cc</text>
</a>
</g>
</g>
<!-- Node1&#45;&gt;Node5 -->
<g id="edge4_Node000001_Node000005" class="edge">
<title>Node1&#45;&gt;Node5</title>
<g id="a_edge4_Node000001_Node000005"><a xlink:title=" ">
<path fill="none" stroke="#63b8ff" d="M1335.64,-92.39C1202.78,-85.72 950.24,-70.26 737,-41 734.11,-40.6 731.17,-40.18 728.22,-39.73"/>
<polygon fill="#63b8ff" stroke="#63b8ff" points="1335.61,-95.89 1345.77,-92.89 1335.96,-88.9 1335.61,-95.89"/>
</a>
</g>
</g>
<!-- Node6 -->
<g id="Node000006" class="node">
<title>Node6</title>
<g id="a_Node000006"><a xlink:href="concurrent__explicit__postprocess__solver_8cc.html" target="_top" xlink:title=" ">
<polygon fill="white" stroke="#666666" points="928,-41 746,-41 746,0 928,0 928,-41"/>
<text text-anchor="start" x="754" y="-29" font-family="Helvetica,sans-Serif" font-size="10.00">/home/runner/work/phaseField</text>
<text text-anchor="start" x="754" y="-18" font-family="Helvetica,sans-Serif" font-size="10.00">/phaseField/src/solvers/concurrent</text>
<text text-anchor="middle" x="837" y="-7" font-family="Helvetica,sans-Serif" font-size="10.00">_explicit_postprocess_solver.cc</text>
</a>
</g>
</g>
<!-- Node1&#45;&gt;Node6 -->
<g id="edge5_Node000001_Node000006" class="edge">
<title>Node1&#45;&gt;Node6</title>
<g id="a_edge5_Node000001_Node000006"><a xlink:title=" ">
<path fill="none" stroke="#63b8ff" d="M1335.67,-88.29C1236.76,-78.97 1075.33,-62.27 937,-41 934.12,-40.56 931.19,-40.09 928.23,-39.6"/>
<polygon fill="#63b8ff" stroke="#63b8ff" points="1335.35,-91.77 1345.64,-89.22 1336.01,-84.8 1335.35,-91.77"/>
</a>
</g>
</g>
<!-- Node7 -->
<g id="Node000007" class="node">
<title>Node7</title>
<g id="a_Node000007"><a xlink:href="concurrent__explicit__solver_8cc.html" target="_top" xlink:title=" ">
<polygon fill="white" stroke="#666666" points="1128,-41 946,-41 946,0 1128,0 1128,-41"/>
<text text-anchor="start" x="954" y="-29" font-family="Helvetica,sans-Serif" font-size="10.00">/home/runner/work/phaseField</text>
<text text-anchor="start" x="954" y="-18" font-family="Helvetica,sans-Serif" font-size="10.00">/phaseField/src/solvers/concurrent</text>
<text text-anchor="middle" x="1037" y="-7" font-family="Helvetica,sans-Serif" font-size="10.00">_explicit_solver.cc</text>
</a>
</g>
</g>
<!-- Node1&#45;&gt;Node7 -->
<g id="edge6_Node000001_Node000007" class="edge">
<title>Node1&#45;&gt;Node7</title>
<g id="a_edge6_Node000001_Node000007"><a xlink:title=" ">
<path fill="none" stroke="#63b8ff" d="M1335.71,-79C1278.49,-68.12 1203.46,-53.82 1137,-41 1134.05,-40.43 1131.05,-39.85 1128.02,-39.26"/>
<polygon fill="#63b8ff" stroke="#63b8ff" points="1335.35,-82.49 1345.82,-80.92 1336.65,-75.62 1335.35,-82.49"/>
</a>
</g>
</g>
<!-- Node8 -->
<g id="Node000008" class="node">
<title>Node8</title>
<g id="a_Node000008"><a xlink:href="concurrent__solver_8cc.html" target="_top" xlink:title=" ">
<polygon fill="white" stroke="#666666" points="1328,-41 1146,-41 1146,0 1328,0 1328,-41"/>
<text text-anchor="start" x="1154" y="-29" font-family="Helvetica,sans-Serif" font-size="10.00">/home/runner/work/phaseField</text>
<text text-anchor="start" x="1154" y="-18" font-family="Helvetica,sans-Serif" font-size="10.00">/phaseField/src/solvers/concurrent</text>
<text text-anchor="middle" x="1237" y="-7" font-family="Helvetica,sans-Serif" font-size="10.00">_solver.cc</text>
</a>
</g>
</g>
<!-- Node1&#45;&gt;Node8 -->
<g id="edge7_Node000001_Node000008" class="edge">
<title>Node1&#45;&gt;Node8</title>
<g id="a_edge7_Node000001_Node000008"><a xlink:title=" ">
<path fill="none" stroke="#63b8ff" d="M1368.83,-73.27C1342.52,-62.94 1311.88,-50.9 1286.77,-41.04"/>
<polygon fill="#63b8ff" stroke="#63b8ff" points="1367.73,-76.59 1378.32,-76.99 1370.29,-70.08 1367.73,-76.59"/>
</a>
</g>
</g>
<!-- Node9 -->
<g id="Node000009" class="node">
<title>Node9</title>
<g id="a_Node000009"><a xlink:href="linear__solver__base_8cc.html" target="_top" xlink:title=" ">
<polygon fill="white" stroke="#666666" points="1510,-41 1346,-41 1346,0 1510,0 1510,-41"/>
<text text-anchor="start" x="1354" y="-29" font-family="Helvetica,sans-Serif" font-size="10.00">/home/runner/work/phaseField</text>
<text text-anchor="start" x="1354" y="-18" font-family="Helvetica,sans-Serif" font-size="10.00">/phaseField/src/solvers/linear</text>
<text text-anchor="middle" x="1428" y="-7" font-family="Helvetica,sans-Serif" font-size="10.00">_solver_base.cc</text>
</a>
</g>
</g>
<!-- Node1&#45;&gt;Node9 -->
<g id="edge8_Node000001_Node000009" class="edge">
<title>Node1&#45;&gt;Node9</title>
<g id="a_edge8_Node000001_Node000009"><a xlink:title=" ">
<path fill="none" stroke="#63b8ff" d="M1428,-66.69C1428,-58.08 1428,-48.9 1428,-41.07"/>
<polygon fill="#63b8ff" stroke="#63b8ff" points="1424.5,-66.79 1428,-76.79 1431.5,-66.79 1424.5,-66.79"/>
</a>
</g>
</g>
<!-- Node10 -->
<g id="Node000010" class="node">
<title>Node10</title>
<g id="a_Node000010"><a xlink:href="linear__solver__gmg_8cc.html" target="_top" xlink:title=" ">
<polygon fill="white" stroke="#666666" points="1692,-41 1528,-41 1528,0 1692,0 1692,-41"/>
<text text-anchor="start" x="1536" y="-29" font-family="Helvetica,sans-Serif" font-size="10.00">/home/runner/work/phaseField</text>
<text text-anchor="start" x="1536" y="-18" font-family="Helvetica,sans-Serif" font-size="10.00">/phaseField/src/solvers/linear</text>
<text text-anchor="middle" x="1610" y="-7" font-family="Helvetica,sans-Serif" font-size="10.00">_solver_gmg.cc</text>
</a>
</g>
</g>
<!-- Node1&#45;&gt;Node10 -->
<g id="edge9_Node000001_Node000010" class="edge">
<title>Node1&#45;&gt;Node10</title>
<g id="a_edge9_Node000001_Node000010"><a xlink:title=" ">
<path fill="none" stroke="#63b8ff" d="M1484.71,-73.13C1509.71,-62.83 1538.75,-50.86 1562.58,-41.04"/>
<polygon fill="#63b8ff" stroke="#63b8ff" points="1483.26,-69.94 1475.34,-76.99 1485.92,-76.42 1483.26,-69.94"/>
</a>
</g>
</g>
<!-- Node11 -->
<g id="Node000011" class="node">
<title>Node11</title>
<g id="a_Node000011"><a xlink:href="linear__solver__identity_8cc.html" target="_top" xlink:title=" ">
<polygon fill="white" stroke="#666666" points="1874,-41 1710,-41 1710,0 1874,0 1874,-41"/>
<text text-anchor="start" x="1718" y="-29" font-family="Helvetica,sans-Serif" font-size="10.00">/home/runner/work/phaseField</text>
<text text-anchor="start" x="1718" y="-18" font-family="Helvetica,sans-Serif" font-size="10.00">/phaseField/src/solvers/linear</text>
<text text-anchor="middle" x="1792" y="-7" font-family="Helvetica,sans-Serif" font-size="10.00">_solver_identity.cc</text>
</a>
</g>
</g>
<!-- Node1&#45;&gt;Node11 -->
<g id="edge10_Node000001_Node000011" class="edge">
<title>Node1&#45;&gt;Node11</title>
<g id="a_edge10_Node000001_Node000011"><a xlink:title=" ">
<path fill="none" stroke="#63b8ff" d="M1520.22,-78C1573.15,-67.32 1640.84,-53.56 1701,-41 1703.85,-40.41 1706.74,-39.8 1709.67,-39.18"/>
<polygon fill="#63b8ff" stroke="#63b8ff" points="1519.29,-74.62 1510.18,-80.03 1520.67,-81.48 1519.29,-74.62"/>
</a>
</g>
</g>
<!-- Node12 -->
<g id="Node000012" class="node">
<title>Node12</title>
<g id="a_Node000012"><a xlink:href="sequential__auxiliary__solver_8cc.html" target="_top" xlink:title=" ">
<polygon fill="white" stroke="#666666" points="2074,-41 1892,-41 1892,0 2074,0 2074,-41"/>
<text text-anchor="start" x="1900" y="-29" font-family="Helvetica,sans-Serif" font-size="10.00">/home/runner/work/phaseField</text>
<text text-anchor="start" x="1900" y="-18" font-family="Helvetica,sans-Serif" font-size="10.00">/phaseField/src/solvers/sequential</text>
<text text-anchor="middle" x="1983" y="-7" font-family="Helvetica,sans-Serif" font-size="10.00">_auxiliary_solver.cc</text>
</a>
</g>
</g>
<!-- Node1&#45;&gt;Node12 -->
<g id="edge11_Node000001_Node000012" class="edge">
<title>Node1&#45;&gt;Node12</title>
<g id="a_edge11_Node000001_Node000012"><a xlink:title=" ">
<path fill="none" stroke="#63b8ff" d="M1520.16,-87.21C1612.26,-77.46 1757.81,-60.82 1883,-41 1885.88,-40.54 1888.81,-40.07 1891.76,-39.57"/>
<polygon fill="#63b8ff" stroke="#63b8ff" points="1519.61,-83.74 1510.03,-88.27 1520.34,-90.71 1519.61,-83.74"/>
</a>
</g>
</g>
<!-- Node13 -->
<g id="Node000013" class="node">
<title>Node13</title>
<g id="a_Node000013"><a xlink:href="sequential__co__nonlinear__solver_8cc.html" target="_top" xlink:title=" ">
<polygon fill="white" stroke="#666666" points="2274,-41 2092,-41 2092,0 2274,0 2274,-41"/>
<text text-anchor="start" x="2100" y="-29" font-family="Helvetica,sans-Serif" font-size="10.00">/home/runner/work/phaseField</text>
<text text-anchor="start" x="2100" y="-18" font-family="Helvetica,sans-Serif" font-size="10.00">/phaseField/src/solvers/sequential</text>
<text text-anchor="middle" x="2183" y="-7" font-family="Helvetica,sans-Serif" font-size="10.00">_co_nonlinear_solver.cc</text>
</a>
</g>
</g>
<!-- Node1&#45;&gt;Node13 -->
<g id="edge12_Node000001_Node000013" class="edge">
<title>Node1&#45;&gt;Node13</title>
<g id="a_edge12_Node000001_Node000013"><a xlink:title=" ">
<path fill="none" stroke="#63b8ff" d="M1520.09,-91.84C1647.17,-84.7 1883.26,-68.85 2083,-41 2085.89,-40.6 2088.82,-40.16 2091.78,-39.71"/>
<polygon fill="#63b8ff" stroke="#63b8ff" points="1519.8,-88.35 1510.01,-92.4 1520.19,-95.34 1519.8,-88.35"/>
</a>
</g>
</g>
<!-- Node14 -->
<g id="Node000014" class="node">
<title>Node14</title>
<g id="a_Node000014"><a xlink:href="sequential__linear__solver_8cc.html" target="_top" xlink:title=" ">
<polygon fill="white" stroke="#666666" points="2474,-41 2292,-41 2292,0 2474,0 2474,-41"/>
<text text-anchor="start" x="2300" y="-29" font-family="Helvetica,sans-Serif" font-size="10.00">/home/runner/work/phaseField</text>
<text text-anchor="start" x="2300" y="-18" font-family="Helvetica,sans-Serif" font-size="10.00">/phaseField/src/solvers/sequential</text>
<text text-anchor="middle" x="2383" y="-7" font-family="Helvetica,sans-Serif" font-size="10.00">_linear_solver.cc</text>
</a>
</g>
</g>
<!-- Node1&#45;&gt;Node14 -->
<g id="edge13_Node000001_Node000014" class="edge">
<title>Node1&#45;&gt;Node14</title>
<g id="a_edge13_Node000001_Node000014"><a xlink:title=" ">
<path fill="none" stroke="#63b8ff" d="M1520.38,-94.37C1677.58,-89.88 2006.93,-76.73 2283,-41 2285.89,-40.63 2288.83,-40.22 2291.79,-39.78"/>
<polygon fill="#63b8ff" stroke="#63b8ff" points="1520.17,-90.87 1510.28,-94.65 1520.37,-97.87 1520.17,-90.87"/>
</a>
</g>
</g>
<!-- Node15 -->
<g id="Node000015" class="node">
<title>Node15</title>
<g id="a_Node000015"><a xlink:href="sequential__self__nonlinear__solver_8cc.html" target="_top" xlink:title=" ">
<polygon fill="white" stroke="#666666" points="2674,-41 2492,-41 2492,0 2674,0 2674,-41"/>
<text text-anchor="start" x="2500" y="-29" font-family="Helvetica,sans-Serif" font-size="10.00">/home/runner/work/phaseField</text>
<text text-anchor="start" x="2500" y="-18" font-family="Helvetica,sans-Serif" font-size="10.00">/phaseField/src/solvers/sequential</text>
<text text-anchor="middle" x="2583" y="-7" font-family="Helvetica,sans-Serif" font-size="10.00">_self_nonlinear_solver.cc</text>
</a>
</g>
</g>
<!-- Node1&#45;&gt;Node15 -->
<g id="edge14_Node000001_Node000015" class="edge">
<title>Node1&#45;&gt;Node15</title>
<g id="a_edge14_Node000001_Node000015"><a xlink:title=" ">
<path fill="none" stroke="#63b8ff" d="M1520.25,-95.98C1704.12,-93.99 2129.03,-84.6 2483,-41 2485.9,-40.64 2488.84,-40.25 2491.8,-39.83"/>
<polygon fill="#63b8ff" stroke="#63b8ff" points="1520.05,-92.48 1510.08,-96.09 1520.12,-99.48 1520.05,-92.48"/>
</a>
</g>
</g>
<!-- Node16 -->
<g id="Node000016" class="node">
<title>Node16</title>
<g id="a_Node000016"><a xlink:href="sequential__solver_8cc.html" target="_top" xlink:title=" ">
<polygon fill="white" stroke="#666666" points="2874,-41 2692,-41 2692,0 2874,0 2874,-41"/>
<text text-anchor="start" x="2700" y="-29" font-family="Helvetica,sans-Serif" font-size="10.00">/home/runner/work/phaseField</text>
<text text-anchor="start" x="2700" y="-18" font-family="Helvetica,sans-Serif" font-size="10.00">/phaseField/src/solvers/sequential</text>
<text text-anchor="middle" x="2783" y="-7" font-family="Helvetica,sans-Serif" font-size="10.00">_solver.cc</text>
</a>
</g>
</g>
<!-- Node1&#45;&gt;Node16 -->
<g id="edge15_Node000001_Node000016" class="edge">
<title>Node1&#45;&gt;Node16</title>
<g id="a_edge15_Node000001_Node000016"><a xlink:title=" ">
<path fill="none" stroke="#63b8ff" d="M1520.48,-97.09C1728.8,-97.4 2250.4,-92.46 2683,-41 2685.9,-40.66 2688.84,-40.27 2691.8,-39.86"/>
<polygon fill="#63b8ff" stroke="#63b8ff" points="1520.21,-93.59 1510.2,-97.07 1520.19,-100.59 1520.21,-93.59"/>
</a>
</g>
</g>
</g>
</svg>
