<?xml version="1.0" encoding="UTF-8" standalone="no"?>
<!DOCTYPE svg PUBLIC "-//W3C//DTD SVG 1.1//EN"
 "http://www.w3.org/Graphics/SVG/1.1/DTD/svg11.dtd">
<!-- Generated by graphviz version 2.43.0 (0)
 -->
<!-- Title: /home/runner/work/phaseField/phaseField/include/prismspf/core/multigrid_info.h Pages: 1 -->
<svg width="2935pt" height="434pt"
 viewBox="0.00 0.00 2934.96 434.00" xmlns="http://www.w3.org/2000/svg" xmlns:xlink="http://www.w3.org/1999/xlink">
<g id="graph0" class="graph" transform="scale(1 1) rotate(0) translate(4 430)">
<title>/home/runner/work/phaseField/phaseField/include/prismspf/core/multigrid_info.h</title>
<!-- Node1 -->
<g id="Node000001" class="node">
<title>Node1</title>
<g id="a_Node000001"><a xlink:title=" ">
<polygon fill="#999999" stroke="#666666" points="2181.96,-426 2017.96,-426 2017.96,-385 2181.96,-385 2181.96,-426"/>
<text text-anchor="start" x="2025.96" y="-414" font-family="Helvetica,sans-Serif" font-size="10.00">/home/runner/work/phaseField</text>
<text text-anchor="start" x="2025.96" y="-403" font-family="Helvetica,sans-Serif" font-size="10.00">/phaseField/include/prismspf</text>
<text text-anchor="middle" x="2099.96" y="-392" font-family="Helvetica,sans-Serif" font-size="10.00">/core/multigrid_info.h</text>
</a>
</g>
</g>
<!-- Node2 -->
<g id="Node000002" class="node">
<title>Node2</title>
<g id="a_Node000002"><a xlink:href="solution__handler_8h.html" target="_top" xlink:title=" ">
<polygon fill="white" stroke="#666666" points="814.96,-349 650.96,-349 650.96,-308 814.96,-308 814.96,-349"/>
<text text-anchor="start" x="658.96" y="-337" font-family="Helvetica,sans-Serif" font-size="10.00">/home/runner/work/phaseField</text>
<text text-anchor="start" x="658.96" y="-326" font-family="Helvetica,sans-Serif" font-size="10.00">/phaseField/include/prismspf</text>
<text text-anchor="middle" x="732.96" y="-315" font-family="Helvetica,sans-Serif" font-size="10.00">/core/solution_handler.h</text>
</a>
</g>
</g>
<!-- Node1&#45;&gt;Node2 -->
<g id="edge1_Node000001_Node000002" class="edge">
<title>Node1&#45;&gt;Node2</title>
<g id="a_edge1_Node000001_Node000002"><a xlink:title=" ">
<path fill="none" stroke="#63b8ff" d="M2007.54,-399.43C1754.82,-385.56 1055.24,-347.18 815.12,-334.01"/>
<polygon fill="#63b8ff" stroke="#63b8ff" points="2007.61,-402.94 2017.79,-399.99 2007.99,-395.95 2007.61,-402.94"/>
</a>
</g>
</g>
<!-- Node5 -->
<g id="Node000005" class="node">
<title>Node5</title>
<g id="a_Node000005"><a xlink:href="pde__problem_8cc.html" target="_top" xlink:title=" ">
<polygon fill="white" stroke="#666666" points="380.96,-41 216.96,-41 216.96,0 380.96,0 380.96,-41"/>
<text text-anchor="start" x="224.96" y="-29" font-family="Helvetica,sans-Serif" font-size="10.00">/home/runner/work/phaseField</text>
<text text-anchor="start" x="224.96" y="-18" font-family="Helvetica,sans-Serif" font-size="10.00">/phaseField/src/core/pde</text>
<text text-anchor="middle" x="298.96" y="-7" font-family="Helvetica,sans-Serif" font-size="10.00">_problem.cc</text>
</a>
</g>
</g>
<!-- Node1&#45;&gt;Node5 -->
<g id="edge52_Node000001_Node000005" class="edge">
<title>Node1&#45;&gt;Node5</title>
<g id="a_edge52_Node000001_Node000005"><a xlink:title=" ">
<path fill="none" stroke="#63b8ff" d="M2007.58,-403.72C1776.86,-401.18 1156.95,-390.7 641.96,-349 355.68,-325.82 2.96,-539.72 2.96,-252.5 2.96,-252.5 2.96,-252.5 2.96,-173.5 2.96,-129.79 -8.89,-107.96 21.96,-77 48.88,-49.99 145.3,-35.32 216.86,-27.96"/>
<polygon fill="#63b8ff" stroke="#63b8ff" points="2007.57,-407.22 2017.61,-403.83 2007.65,-400.22 2007.57,-407.22"/>
</a>
</g>
</g>
<!-- Node11 -->
<g id="Node000011" class="node">
<title>Node11</title>
<g id="a_Node000011"><a xlink:href="linear__solver__gmg_8cc.html" target="_top" xlink:title=" ">
<polygon fill="white" stroke="#666666" points="2032.96,-41 1868.96,-41 1868.96,0 2032.96,0 2032.96,-41"/>
<text text-anchor="start" x="1876.96" y="-29" font-family="Helvetica,sans-Serif" font-size="10.00">/home/runner/work/phaseField</text>
<text text-anchor="start" x="1876.96" y="-18" font-family="Helvetica,sans-Serif" font-size="10.00">/phaseField/src/solvers/linear</text>
<text text-anchor="middle" x="1950.96" y="-7" font-family="Helvetica,sans-Serif" font-size="10.00">_solver_gmg.cc</text>
</a>
</g>
</g>
<!-- Node1&#45;&gt;Node11 -->
<g id="edge55_Node000001_Node000011" class="edge">
<title>Node1&#45;&gt;Node11</title>
<g id="a_edge55_Node000001_Node000011"><a xlink:title=" ">
<path fill="none" stroke="#63b8ff" d="M2043.13,-379.65C2030.2,-371.57 2017.71,-361.41 2008.96,-349 1983.74,-313.19 1988.96,-296.3 1988.96,-252.5 1988.96,-252.5 1988.96,-252.5 1988.96,-173.5 1988.96,-124.81 1970.39,-69.9 1959.21,-41.27"/>
<polygon fill="#63b8ff" stroke="#63b8ff" points="2041.72,-382.87 2052.12,-384.9 2045.26,-376.83 2041.72,-382.87"/>
</a>
</g>
</g>
<!-- Node25 -->
<g id="Node000025" class="node">
<title>Node25</title>
<g id="a_Node000025"><a xlink:href="solution__handler_8cc.html" target="_top" xlink:title=" ">
<polygon fill="white" stroke="#666666" points="1960.96,-272 1796.96,-272 1796.96,-231 1960.96,-231 1960.96,-272"/>
<text text-anchor="start" x="1804.96" y="-260" font-family="Helvetica,sans-Serif" font-size="10.00">/home/runner/work/phaseField</text>
<text text-anchor="start" x="1804.96" y="-249" font-family="Helvetica,sans-Serif" font-size="10.00">/phaseField/src/core/solution</text>
<text text-anchor="middle" x="1878.96" y="-238" font-family="Helvetica,sans-Serif" font-size="10.00">_handler.cc</text>
</a>
</g>
</g>
<!-- Node1&#45;&gt;Node25 -->
<g id="edge53_Node000001_Node000025" class="edge">
<title>Node1&#45;&gt;Node25</title>
<g id="a_edge53_Node000001_Node000025"><a xlink:title=" ">
<path fill="none" stroke="#63b8ff" d="M2034.74,-380.95C2014.73,-372.32 1993.2,-361.55 1974.96,-349 1942.85,-326.89 1912.25,-293.19 1894.56,-272.03"/>
<polygon fill="#63b8ff" stroke="#63b8ff" points="2033.54,-384.24 2044.11,-384.88 2036.25,-377.78 2033.54,-384.24"/>
</a>
</g>
</g>
<!-- Node26 -->
<g id="Node000026" class="node">
<title>Node26</title>
<g id="a_Node000026"><a xlink:href="constraint__handler_8cc.html" target="_top" xlink:title=" ">
<polygon fill="white" stroke="#666666" points="2182.46,-349 2017.46,-349 2017.46,-308 2182.46,-308 2182.46,-349"/>
<text text-anchor="start" x="2025.46" y="-337" font-family="Helvetica,sans-Serif" font-size="10.00">/home/runner/work/phaseField</text>
<text text-anchor="start" x="2025.46" y="-326" font-family="Helvetica,sans-Serif" font-size="10.00">/phaseField/src/core/constraint</text>
<text text-anchor="middle" x="2099.96" y="-315" font-family="Helvetica,sans-Serif" font-size="10.00">_handler.cc</text>
</a>
</g>
</g>
<!-- Node1&#45;&gt;Node26 -->
<g id="edge49_Node000001_Node000026" class="edge">
<title>Node1&#45;&gt;Node26</title>
<g id="a_edge49_Node000001_Node000026"><a xlink:title=" ">
<path fill="none" stroke="#63b8ff" d="M2099.96,-374.69C2099.96,-366.08 2099.96,-356.9 2099.96,-349.07"/>
<polygon fill="#63b8ff" stroke="#63b8ff" points="2096.46,-374.79 2099.96,-384.79 2103.46,-374.79 2096.46,-374.79"/>
</a>
</g>
</g>
<!-- Node27 -->
<g id="Node000027" class="node">
<title>Node27</title>
<g id="a_Node000027"><a xlink:href="dof__handler_8cc.html" target="_top" xlink:title=" ">
<polygon fill="white" stroke="#666666" points="2364.96,-349 2200.96,-349 2200.96,-308 2364.96,-308 2364.96,-349"/>
<text text-anchor="start" x="2208.96" y="-337" font-family="Helvetica,sans-Serif" font-size="10.00">/home/runner/work/phaseField</text>
<text text-anchor="start" x="2208.96" y="-326" font-family="Helvetica,sans-Serif" font-size="10.00">/phaseField/src/core/dof</text>
<text text-anchor="middle" x="2282.96" y="-315" font-family="Helvetica,sans-Serif" font-size="10.00">_handler.cc</text>
</a>
</g>
</g>
<!-- Node1&#45;&gt;Node27 -->
<g id="edge50_Node000001_Node000027" class="edge">
<title>Node1&#45;&gt;Node27</title>
<g id="a_edge50_Node000001_Node000027"><a xlink:title=" ">
<path fill="none" stroke="#63b8ff" d="M2156.98,-381.13C2182.12,-370.83 2211.32,-358.86 2235.28,-349.04"/>
<polygon fill="#63b8ff" stroke="#63b8ff" points="2155.49,-377.96 2147.57,-384.99 2158.15,-384.44 2155.49,-377.96"/>
</a>
</g>
</g>
<!-- Node28 -->
<g id="Node000028" class="node">
<title>Node28</title>
<g id="a_Node000028"><a xlink:href="matrix__free__handler_8cc.html" target="_top" xlink:title=" ">
<polygon fill="white" stroke="#666666" points="2546.96,-349 2382.96,-349 2382.96,-308 2546.96,-308 2546.96,-349"/>
<text text-anchor="start" x="2390.96" y="-337" font-family="Helvetica,sans-Serif" font-size="10.00">/home/runner/work/phaseField</text>
<text text-anchor="start" x="2390.96" y="-326" font-family="Helvetica,sans-Serif" font-size="10.00">/phaseField/src/core/matrix</text>
<text text-anchor="middle" x="2464.96" y="-315" font-family="Helvetica,sans-Serif" font-size="10.00">_free_handler.cc</text>
</a>
</g>
</g>
<!-- Node1&#45;&gt;Node28 -->
<g id="edge51_Node000001_Node000028" class="edge">
<title>Node1&#45;&gt;Node28</title>
<g id="a_edge51_Node000001_Node000028"><a xlink:title=" ">
<path fill="none" stroke="#63b8ff" d="M2192.23,-386.08C2245.4,-375.4 2313.48,-361.61 2373.96,-349 2376.81,-348.41 2379.71,-347.8 2382.63,-347.19"/>
<polygon fill="#63b8ff" stroke="#63b8ff" points="2191.26,-382.7 2182.14,-388.1 2192.64,-389.57 2191.26,-382.7"/>
</a>
</g>
</g>
<!-- Node29 -->
<g id="Node000029" class="node">
<title>Node29</title>
<g id="a_Node000029"><a xlink:href="triangulation__handler_8cc.html" target="_top" xlink:title=" ">
<polygon fill="white" stroke="#666666" points="2744.46,-349 2565.46,-349 2565.46,-308 2744.46,-308 2744.46,-349"/>
<text text-anchor="start" x="2573.46" y="-337" font-family="Helvetica,sans-Serif" font-size="10.00">/home/runner/work/phaseField</text>
<text text-anchor="start" x="2573.46" y="-326" font-family="Helvetica,sans-Serif" font-size="10.00">/phaseField/src/core/triangulation</text>
<text text-anchor="middle" x="2654.96" y="-315" font-family="Helvetica,sans-Serif" font-size="10.00">_handler.cc</text>
</a>
</g>
</g>
<!-- Node1&#45;&gt;Node29 -->
<g id="edge54_Node000001_Node000029" class="edge">
<title>Node1&#45;&gt;Node29</title>
<g id="a_edge54_Node000001_Node000029"><a xlink:title=" ">
<path fill="none" stroke="#63b8ff" d="M2192.33,-395.27C2284.65,-385.57 2430.52,-368.96 2555.96,-349 2559.08,-348.5 2562.24,-347.98 2565.44,-347.44"/>
<polygon fill="#63b8ff" stroke="#63b8ff" points="2191.76,-391.81 2182.18,-396.33 2192.49,-398.77 2191.76,-391.81"/>
</a>
</g>
</g>
<!-- Node30 -->
<g id="Node000030" class="node">
<title>Node30</title>
<g id="a_Node000030"><a xlink:href="element__volume_8cc.html" target="_top" xlink:title=" ">
<polygon fill="white" stroke="#666666" points="2926.96,-349 2762.96,-349 2762.96,-308 2926.96,-308 2926.96,-349"/>
<text text-anchor="start" x="2770.96" y="-337" font-family="Helvetica,sans-Serif" font-size="10.00">/home/runner/work/phaseField</text>
<text text-anchor="start" x="2770.96" y="-326" font-family="Helvetica,sans-Serif" font-size="10.00">/phaseField/src/utilities</text>
<text text-anchor="middle" x="2844.96" y="-315" font-family="Helvetica,sans-Serif" font-size="10.00">/element_volume.cc</text>
</a>
</g>
</g>
<!-- Node1&#45;&gt;Node30 -->
<g id="edge56_Node000001_Node000030" class="edge">
<title>Node1&#45;&gt;Node30</title>
<g id="a_edge56_Node000001_Node000030"><a xlink:title=" ">
<path fill="none" stroke="#63b8ff" d="M2192.25,-400.35C2319.29,-393.8 2554.93,-378.65 2753.96,-349 2756.84,-348.57 2759.76,-348.11 2762.71,-347.61"/>
<polygon fill="#63b8ff" stroke="#63b8ff" points="2191.98,-396.86 2182.17,-400.86 2192.34,-403.85 2191.98,-396.86"/>
</a>
</g>
</g>
<!-- Node3 -->
<g id="Node000003" class="node">
<title>Node3</title>
<g id="a_Node000003"><a xlink:href="grid__refiner__context_8h.html" target="_top" xlink:title=" ">
<polygon fill="white" stroke="#666666" points="194.96,-272 30.96,-272 30.96,-231 194.96,-231 194.96,-272"/>
<text text-anchor="start" x="38.96" y="-260" font-family="Helvetica,sans-Serif" font-size="10.00">/home/runner/work/phaseField</text>
<text text-anchor="start" x="38.96" y="-249" font-family="Helvetica,sans-Serif" font-size="10.00">/phaseField/include/prismspf</text>
<text text-anchor="middle" x="112.96" y="-238" font-family="Helvetica,sans-Serif" font-size="10.00">/core/grid_refiner_context.h</text>
</a>
</g>
</g>
<!-- Node2&#45;&gt;Node3 -->
<g id="edge2_Node000002_Node000003" class="edge">
<title>Node2&#45;&gt;Node3</title>
<g id="a_edge2_Node000002_Node000003"><a xlink:title=" ">
<path fill="none" stroke="#63b8ff" d="M640.27,-320.36C535.28,-311.65 359.24,-295.17 208.96,-272 204.43,-271.3 199.78,-270.53 195.09,-269.72"/>
<polygon fill="#63b8ff" stroke="#63b8ff" points="640.26,-323.87 650.52,-321.2 640.84,-316.89 640.26,-323.87"/>
</a>
</g>
</g>
<!-- Node2&#45;&gt;Node5 -->
<g id="edge44_Node000002_Node000005" class="edge">
<title>Node2&#45;&gt;Node5</title>
<g id="a_edge44_Node000002_Node000005"><a xlink:title=" ">
<path fill="none" stroke="#63b8ff" d="M640.72,-323.26C578.58,-317.42 496.2,-303.77 429.96,-272 350.98,-234.12 328.57,-202.89 306.96,-118 300.33,-91.93 298.86,-60.76 298.7,-41.04"/>
<polygon fill="#63b8ff" stroke="#63b8ff" points="640.63,-326.76 650.9,-324.16 641.25,-319.79 640.63,-326.76"/>
</a>
</g>
</g>
<!-- Node6 -->
<g id="Node000006" class="node">
<title>Node6</title>
<g id="a_Node000006"><a xlink:href="solver__context_8h.html" target="_top" xlink:title=" ">
<polygon fill="white" stroke="#666666" points="1141.96,-272 977.96,-272 977.96,-231 1141.96,-231 1141.96,-272"/>
<text text-anchor="start" x="985.96" y="-260" font-family="Helvetica,sans-Serif" font-size="10.00">/home/runner/work/phaseField</text>
<text text-anchor="start" x="985.96" y="-249" font-family="Helvetica,sans-Serif" font-size="10.00">/phaseField/include/prismspf</text>
<text text-anchor="middle" x="1059.96" y="-238" font-family="Helvetica,sans-Serif" font-size="10.00">/solvers/solver_context.h</text>
</a>
</g>
</g>
<!-- Node2&#45;&gt;Node6 -->
<g id="edge5_Node000002_Node000006" class="edge">
<title>Node2&#45;&gt;Node6</title>
<g id="a_edge5_Node000002_Node000006"><a xlink:title=" ">
<path fill="none" stroke="#63b8ff" d="M824.84,-306.43C872.91,-295.4 931.28,-282.01 977.84,-271.34"/>
<polygon fill="#63b8ff" stroke="#63b8ff" points="824.02,-303.02 815.06,-308.67 825.59,-309.85 824.02,-303.02"/>
</a>
</g>
</g>
<!-- Node2&#45;&gt;Node11 -->
<g id="edge47_Node000002_Node000011" class="edge">
<title>Node2&#45;&gt;Node11</title>
<g id="a_edge47_Node000002_Node000011"><a xlink:title=" ">
<path fill="none" stroke="#63b8ff" d="M825.53,-325.24C1062.24,-318.11 1683.56,-290.56 1862.96,-195 1902.75,-173.81 1908.7,-158.26 1928.96,-118 1941.4,-93.29 1946.9,-61.49 1949.26,-41.3"/>
<polygon fill="#63b8ff" stroke="#63b8ff" points="825.12,-321.75 815.23,-325.54 825.33,-328.75 825.12,-321.75"/>
</a>
</g>
</g>
<!-- Node18 -->
<g id="Node000018" class="node">
<title>Node18</title>
<g id="a_Node000018"><a xlink:href="linear__solver__identity_8cc.html" target="_top" xlink:title=" ">
<polygon fill="white" stroke="#666666" points="668.96,-41 504.96,-41 504.96,0 668.96,0 668.96,-41"/>
<text text-anchor="start" x="512.96" y="-29" font-family="Helvetica,sans-Serif" font-size="10.00">/home/runner/work/phaseField</text>
<text text-anchor="start" x="512.96" y="-18" font-family="Helvetica,sans-Serif" font-size="10.00">/phaseField/src/solvers/linear</text>
<text text-anchor="middle" x="586.96" y="-7" font-family="Helvetica,sans-Serif" font-size="10.00">_solver_identity.cc</text>
</a>
</g>
</g>
<!-- Node2&#45;&gt;Node18 -->
<g id="edge48_Node000002_Node000018" class="edge">
<title>Node2&#45;&gt;Node18</title>
<g id="a_edge48_Node000002_Node000018"><a xlink:title=" ">
<path fill="none" stroke="#63b8ff" d="M640.65,-312.03C539.32,-289.4 382.47,-236.29 317.96,-118 309.24,-102 306.45,-91.13 317.96,-77 341.27,-48.4 434.69,-34.09 504.95,-27.25"/>
<polygon fill="#63b8ff" stroke="#63b8ff" points="640.07,-315.48 650.58,-314.19 641.56,-308.64 640.07,-315.48"/>
</a>
</g>
</g>
<!-- Node19 -->
<g id="Node000019" class="node">
<title>Node19</title>
<g id="a_Node000019"><a xlink:href="linear__solver__base_8cc.html" target="_top" xlink:title=" ">
<polygon fill="white" stroke="#666666" points="710.96,-118 546.96,-118 546.96,-77 710.96,-77 710.96,-118"/>
<text text-anchor="start" x="554.96" y="-106" font-family="Helvetica,sans-Serif" font-size="10.00">/home/runner/work/phaseField</text>
<text text-anchor="start" x="554.96" y="-95" font-family="Helvetica,sans-Serif" font-size="10.00">/phaseField/src/solvers/linear</text>
<text text-anchor="middle" x="628.96" y="-84" font-family="Helvetica,sans-Serif" font-size="10.00">_solver_base.cc</text>
</a>
</g>
</g>
<!-- Node2&#45;&gt;Node19 -->
<g id="edge46_Node000002_Node000019" class="edge">
<title>Node2&#45;&gt;Node19</title>
<g id="a_edge46_Node000002_Node000019"><a xlink:title=" ">
<path fill="none" stroke="#63b8ff" d="M668.3,-303.89C621.68,-283.06 562.2,-247.72 533.96,-195 525.36,-178.94 524.89,-169.8 533.96,-154 543,-138.26 558.41,-126.56 574.22,-118.07"/>
<polygon fill="#63b8ff" stroke="#63b8ff" points="667.17,-307.22 677.74,-307.99 669.96,-300.8 667.17,-307.22"/>
</a>
</g>
</g>
<!-- Node2&#45;&gt;Node25 -->
<g id="edge45_Node000002_Node000025" class="edge">
<title>Node2&#45;&gt;Node25</title>
<g id="a_edge45_Node000002_Node000025"><a xlink:title=" ">
<path fill="none" stroke="#63b8ff" d="M825.15,-327.19C1008.39,-325.56 1431.07,-316.79 1782.96,-272 1787.52,-271.42 1792.18,-270.75 1796.88,-270"/>
<polygon fill="#63b8ff" stroke="#63b8ff" points="824.99,-323.69 815.02,-327.27 825.05,-330.69 824.99,-323.69"/>
</a>
</g>
</g>
<!-- Node4 -->
<g id="Node000004" class="node">
<title>Node4</title>
<g id="a_Node000004"><a xlink:href="grid__refiner_8h.html" target="_top" xlink:title=" ">
<polygon fill="white" stroke="#666666" points="194.96,-118 30.96,-118 30.96,-77 194.96,-77 194.96,-118"/>
<text text-anchor="start" x="38.96" y="-106" font-family="Helvetica,sans-Serif" font-size="10.00">/home/runner/work/phaseField</text>
<text text-anchor="start" x="38.96" y="-95" font-family="Helvetica,sans-Serif" font-size="10.00">/phaseField/include/prismspf</text>
<text text-anchor="middle" x="112.96" y="-84" font-family="Helvetica,sans-Serif" font-size="10.00">/core/grid_refiner.h</text>
</a>
</g>
</g>
<!-- Node3&#45;&gt;Node4 -->
<g id="edge3_Node000003_Node000004" class="edge">
<title>Node3&#45;&gt;Node4</title>
<g id="a_edge3_Node000003_Node000004"><a xlink:title=" ">
<path fill="none" stroke="#63b8ff" d="M112.96,-220.58C112.96,-190.36 112.96,-144.53 112.96,-118.47"/>
<polygon fill="#63b8ff" stroke="#63b8ff" points="109.46,-220.94 112.96,-230.94 116.46,-220.94 109.46,-220.94"/>
</a>
</g>
</g>
<!-- Node4&#45;&gt;Node5 -->
<g id="edge4_Node000004_Node000005" class="edge">
<title>Node4&#45;&gt;Node5</title>
<g id="a_edge4_Node000004_Node000005"><a xlink:title=" ">
<path fill="none" stroke="#63b8ff" d="M170.92,-73.13C196.47,-62.83 226.15,-50.86 250.5,-41.04"/>
<polygon fill="#63b8ff" stroke="#63b8ff" points="169.31,-70 161.35,-76.99 171.93,-76.5 169.31,-70"/>
</a>
</g>
</g>
<!-- Node6&#45;&gt;Node5 -->
<g id="edge30_Node000006_Node000005" class="edge">
<title>Node6&#45;&gt;Node5</title>
<g id="a_edge30_Node000006_Node000005"><a xlink:title=" ">
<path fill="none" stroke="#63b8ff" d="M967.53,-248.18C816.87,-243.43 525.51,-229.92 428.96,-195 372.5,-174.58 350.84,-168.24 317.96,-118 302.73,-94.71 299.19,-61.96 298.63,-41.23"/>
<polygon fill="#63b8ff" stroke="#63b8ff" points="967.58,-251.68 977.68,-248.49 967.8,-244.69 967.58,-251.68"/>
</a>
</g>
</g>
<!-- Node7 -->
<g id="Node000007" class="node">
<title>Node7</title>
<g id="a_Node000007"><a xlink:href="nucleation_8h.html" target="_top" xlink:title=" ">
<polygon fill="white" stroke="#666666" points="490.96,-118 326.96,-118 326.96,-77 490.96,-77 490.96,-118"/>
<text text-anchor="start" x="334.96" y="-106" font-family="Helvetica,sans-Serif" font-size="10.00">/home/runner/work/phaseField</text>
<text text-anchor="start" x="334.96" y="-95" font-family="Helvetica,sans-Serif" font-size="10.00">/phaseField/include/prismspf</text>
<text text-anchor="middle" x="408.96" y="-84" font-family="Helvetica,sans-Serif" font-size="10.00">/nucleation/nucleation.h</text>
</a>
</g>
</g>
<!-- Node6&#45;&gt;Node7 -->
<g id="edge6_Node000006_Node000007" class="edge">
<title>Node6&#45;&gt;Node7</title>
<g id="a_edge6_Node000006_Node000007"><a xlink:title=" ">
<path fill="none" stroke="#63b8ff" d="M967.86,-246.33C812.3,-238.63 510.34,-220.6 468.96,-195 440.61,-177.46 423.55,-141.02 415.22,-118.28"/>
<polygon fill="#63b8ff" stroke="#63b8ff" points="967.73,-249.83 977.89,-246.82 968.07,-242.84 967.73,-249.83"/>
</a>
</g>
</g>
<!-- Node8 -->
<g id="Node000008" class="node">
<title>Node8</title>
<g id="a_Node000008"><a xlink:href="linear__solver__base_8h.html" target="_top" xlink:title=" ">
<polygon fill="white" stroke="#666666" points="750.96,-195 586.96,-195 586.96,-154 750.96,-154 750.96,-195"/>
<text text-anchor="start" x="594.96" y="-183" font-family="Helvetica,sans-Serif" font-size="10.00">/home/runner/work/phaseField</text>
<text text-anchor="start" x="594.96" y="-172" font-family="Helvetica,sans-Serif" font-size="10.00">/phaseField/include/prismspf</text>
<text text-anchor="middle" x="668.96" y="-161" font-family="Helvetica,sans-Serif" font-size="10.00">/solvers/linear_solver_base.h</text>
</a>
</g>
</g>
<!-- Node6&#45;&gt;Node8 -->
<g id="edge8_Node000006_Node000008" class="edge">
<title>Node6&#45;&gt;Node8</title>
<g id="a_edge8_Node000006_Node000008"><a xlink:title=" ">
<path fill="none" stroke="#63b8ff" d="M967.61,-234.11C908.22,-223.4 829.44,-208.87 759.96,-195 757.11,-194.43 754.21,-193.85 751.28,-193.25"/>
<polygon fill="#63b8ff" stroke="#63b8ff" points="967.25,-237.6 977.72,-235.93 968.49,-230.71 967.25,-237.6"/>
</a>
</g>
</g>
<!-- Node10 -->
<g id="Node000010" class="node">
<title>Node10</title>
<g id="a_Node000010"><a xlink:href="solver__handler_8cc.html" target="_top" xlink:title=" ">
<polygon fill="white" stroke="#666666" points="1050.96,-41 886.96,-41 886.96,0 1050.96,0 1050.96,-41"/>
<text text-anchor="start" x="894.96" y="-29" font-family="Helvetica,sans-Serif" font-size="10.00">/home/runner/work/phaseField</text>
<text text-anchor="start" x="894.96" y="-18" font-family="Helvetica,sans-Serif" font-size="10.00">/phaseField/src/core/solver</text>
<text text-anchor="middle" x="968.96" y="-7" font-family="Helvetica,sans-Serif" font-size="10.00">_handler.cc</text>
</a>
</g>
</g>
<!-- Node6&#45;&gt;Node10 -->
<g id="edge31_Node000006_Node000010" class="edge">
<title>Node6&#45;&gt;Node10</title>
<g id="a_edge31_Node000006_Node000010"><a xlink:title=" ">
<path fill="none" stroke="#63b8ff" d="M967.77,-246.39C835.1,-239.51 603.4,-223.53 577.96,-195 565.84,-181.4 566.77,-168.38 577.96,-154 617.95,-102.62 657.94,-137.8 719.96,-118 792.18,-94.95 873.72,-61.98 923.21,-41.16"/>
<polygon fill="#63b8ff" stroke="#63b8ff" points="967.77,-249.89 977.93,-246.91 968.12,-242.9 967.77,-249.89"/>
</a>
</g>
</g>
<!-- Node6&#45;&gt;Node11 -->
<g id="edge37_Node000006_Node000011" class="edge">
<title>Node6&#45;&gt;Node11</title>
<g id="a_edge37_Node000006_Node000011"><a xlink:title=" ">
<path fill="none" stroke="#63b8ff" d="M1152.29,-248.14C1343,-242.65 1767.48,-226.97 1824.96,-195 1887.92,-159.99 1927.69,-78.78 1943.36,-41.21"/>
<polygon fill="#63b8ff" stroke="#63b8ff" points="1152.18,-244.65 1142.28,-248.43 1152.38,-251.64 1152.18,-244.65"/>
</a>
</g>
</g>
<!-- Node12 -->
<g id="Node000012" class="node">
<title>Node12</title>
<g id="a_Node000012"><a xlink:href="sequential__auxiliary__solver_8cc.html" target="_top" xlink:title=" ">
<polygon fill="white" stroke="#666666" points="1250.96,-41 1068.96,-41 1068.96,0 1250.96,0 1250.96,-41"/>
<text text-anchor="start" x="1076.96" y="-29" font-family="Helvetica,sans-Serif" font-size="10.00">/home/runner/work/phaseField</text>
<text text-anchor="start" x="1076.96" y="-18" font-family="Helvetica,sans-Serif" font-size="10.00">/phaseField/src/solvers/sequential</text>
<text text-anchor="middle" x="1159.96" y="-7" font-family="Helvetica,sans-Serif" font-size="10.00">_auxiliary_solver.cc</text>
</a>
</g>
</g>
<!-- Node6&#45;&gt;Node12 -->
<g id="edge38_Node000006_Node000012" class="edge">
<title>Node6&#45;&gt;Node12</title>
<g id="a_edge38_Node000006_Node000012"><a xlink:title=" ">
<path fill="none" stroke="#63b8ff" d="M1152.09,-249.79C1329.1,-247.45 1702.79,-237.49 1741.96,-195 1754.32,-181.6 1754.21,-167.49 1741.96,-154 1685.98,-92.35 1449.34,-139.76 1368.96,-118 1303.58,-100.3 1233.15,-63.73 1193.03,-41.04"/>
<polygon fill="#63b8ff" stroke="#63b8ff" points="1151.96,-246.29 1142.01,-249.91 1152.05,-253.29 1151.96,-246.29"/>
</a>
</g>
</g>
<!-- Node13 -->
<g id="Node000013" class="node">
<title>Node13</title>
<g id="a_Node000013"><a xlink:href="sequential__co__nonlinear__solver_8cc.html" target="_top" xlink:title=" ">
<polygon fill="white" stroke="#666666" points="1450.96,-41 1268.96,-41 1268.96,0 1450.96,0 1450.96,-41"/>
<text text-anchor="start" x="1276.96" y="-29" font-family="Helvetica,sans-Serif" font-size="10.00">/home/runner/work/phaseField</text>
<text text-anchor="start" x="1276.96" y="-18" font-family="Helvetica,sans-Serif" font-size="10.00">/phaseField/src/solvers/sequential</text>
<text text-anchor="middle" x="1359.96" y="-7" font-family="Helvetica,sans-Serif" font-size="10.00">_co_nonlinear_solver.cc</text>
</a>
</g>
</g>
<!-- Node6&#45;&gt;Node13 -->
<g id="edge39_Node000006_Node000013" class="edge">
<title>Node6&#45;&gt;Node13</title>
<g id="a_edge39_Node000006_Node000013"><a xlink:title=" ">
<path fill="none" stroke="#63b8ff" d="M1152.32,-250.01C1333.28,-248.07 1720.49,-238.81 1760.96,-195 1773.33,-181.62 1771.4,-168.94 1760.96,-154 1741.78,-126.54 1545.64,-70.76 1434.96,-41.09"/>
<polygon fill="#63b8ff" stroke="#63b8ff" points="1152.25,-246.51 1142.28,-250.11 1152.32,-253.51 1152.25,-246.51"/>
</a>
</g>
</g>
<!-- Node14 -->
<g id="Node000014" class="node">
<title>Node14</title>
<g id="a_Node000014"><a xlink:href="sequential__linear__solver_8cc.html" target="_top" xlink:title=" ">
<polygon fill="white" stroke="#666666" points="1650.96,-41 1468.96,-41 1468.96,0 1650.96,0 1650.96,-41"/>
<text text-anchor="start" x="1476.96" y="-29" font-family="Helvetica,sans-Serif" font-size="10.00">/home/runner/work/phaseField</text>
<text text-anchor="start" x="1476.96" y="-18" font-family="Helvetica,sans-Serif" font-size="10.00">/phaseField/src/solvers/sequential</text>
<text text-anchor="middle" x="1559.96" y="-7" font-family="Helvetica,sans-Serif" font-size="10.00">_linear_solver.cc</text>
</a>
</g>
</g>
<!-- Node6&#45;&gt;Node14 -->
<g id="edge40_Node000006_Node000014" class="edge">
<title>Node6&#45;&gt;Node14</title>
<g id="a_edge40_Node000006_Node000014"><a xlink:title=" ">
<path fill="none" stroke="#63b8ff" d="M1152.38,-250.22C1337.17,-248.69 1738.17,-240.14 1779.96,-195 1839.62,-130.57 1705.78,-70.75 1621.65,-41.06"/>
<polygon fill="#63b8ff" stroke="#63b8ff" points="1152.11,-246.72 1142.14,-250.3 1152.16,-253.72 1152.11,-246.72"/>
</a>
</g>
</g>
<!-- Node15 -->
<g id="Node000015" class="node">
<title>Node15</title>
<g id="a_Node000015"><a xlink:href="sequential__self__nonlinear__solver_8cc.html" target="_top" xlink:title=" ">
<polygon fill="white" stroke="#666666" points="1850.96,-41 1668.96,-41 1668.96,0 1850.96,0 1850.96,-41"/>
<text text-anchor="start" x="1676.96" y="-29" font-family="Helvetica,sans-Serif" font-size="10.00">/home/runner/work/phaseField</text>
<text text-anchor="start" x="1676.96" y="-18" font-family="Helvetica,sans-Serif" font-size="10.00">/phaseField/src/solvers/sequential</text>
<text text-anchor="middle" x="1759.96" y="-7" font-family="Helvetica,sans-Serif" font-size="10.00">_self_nonlinear_solver.cc</text>
</a>
</g>
</g>
<!-- Node6&#45;&gt;Node15 -->
<g id="edge41_Node000006_Node000015" class="edge">
<title>Node6&#45;&gt;Node15</title>
<g id="a_edge41_Node000006_Node000015"><a xlink:title=" ">
<path fill="none" stroke="#63b8ff" d="M1152.43,-250.45C1341.58,-249.38 1758.63,-241.69 1801.96,-195 1842.12,-151.72 1799.26,-76.78 1774.69,-41.26"/>
<polygon fill="#63b8ff" stroke="#63b8ff" points="1152.21,-246.95 1142.22,-250.5 1152.24,-253.95 1152.21,-246.95"/>
</a>
</g>
</g>
<!-- Node16 -->
<g id="Node000016" class="node">
<title>Node16</title>
<g id="a_Node000016"><a xlink:href="sequential__solver_8cc.html" target="_top" xlink:title=" ">
<polygon fill="white" stroke="#666666" points="868.96,-41 686.96,-41 686.96,0 868.96,0 868.96,-41"/>
<text text-anchor="start" x="694.96" y="-29" font-family="Helvetica,sans-Serif" font-size="10.00">/home/runner/work/phaseField</text>
<text text-anchor="start" x="694.96" y="-18" font-family="Helvetica,sans-Serif" font-size="10.00">/phaseField/src/solvers/sequential</text>
<text text-anchor="middle" x="777.96" y="-7" font-family="Helvetica,sans-Serif" font-size="10.00">_solver.cc</text>
</a>
</g>
</g>
<!-- Node6&#45;&gt;Node16 -->
<g id="edge42_Node000006_Node000016" class="edge">
<title>Node6&#45;&gt;Node16</title>
<g id="a_edge42_Node000006_Node000016"><a xlink:title=" ">
<path fill="none" stroke="#63b8ff" d="M967.72,-247.35C824.58,-241.5 562.38,-226.58 533.96,-195 521.53,-181.18 520.86,-97.4 537.96,-77 543,-70.99 621.13,-53.63 686.9,-39.91"/>
<polygon fill="#63b8ff" stroke="#63b8ff" points="967.68,-250.85 977.82,-247.76 967.96,-243.86 967.68,-250.85"/>
</a>
</g>
</g>
<!-- Node6&#45;&gt;Node19 -->
<g id="edge36_Node000006_Node000019" class="edge">
<title>Node6&#45;&gt;Node19</title>
<g id="a_edge36_Node000006_Node000019"><a xlink:title=" ">
<path fill="none" stroke="#63b8ff" d="M967.55,-247.12C826.95,-241.01 572.62,-225.8 544.96,-195 532.79,-181.44 536.33,-170.05 544.96,-154 553.24,-138.61 567.87,-126.77 582.63,-118.06"/>
<polygon fill="#63b8ff" stroke="#63b8ff" points="967.75,-250.63 977.89,-247.56 968.05,-243.63 967.75,-250.63"/>
</a>
</g>
</g>
<!-- Node20 -->
<g id="Node000020" class="node">
<title>Node20</title>
<g id="a_Node000020"><a xlink:href="concurrent__constant__solver_8cc.html" target="_top" xlink:title=" ">
<polygon fill="white" stroke="#666666" points="950.96,-195 768.96,-195 768.96,-154 950.96,-154 950.96,-195"/>
<text text-anchor="start" x="776.96" y="-183" font-family="Helvetica,sans-Serif" font-size="10.00">/home/runner/work/phaseField</text>
<text text-anchor="start" x="776.96" y="-172" font-family="Helvetica,sans-Serif" font-size="10.00">/phaseField/src/solvers/concurrent</text>
<text text-anchor="middle" x="859.96" y="-161" font-family="Helvetica,sans-Serif" font-size="10.00">_constant_solver.cc</text>
</a>
</g>
</g>
<!-- Node6&#45;&gt;Node20 -->
<g id="edge32_Node000006_Node000020" class="edge">
<title>Node6&#45;&gt;Node20</title>
<g id="a_edge32_Node000006_Node000020"><a xlink:title=" ">
<path fill="none" stroke="#63b8ff" d="M998.37,-227.4C970.74,-217.04 938.49,-204.95 912.08,-195.04"/>
<polygon fill="#63b8ff" stroke="#63b8ff" points="997.35,-230.76 1007.94,-230.99 999.8,-224.2 997.35,-230.76"/>
</a>
</g>
</g>
<!-- Node21 -->
<g id="Node000021" class="node">
<title>Node21</title>
<g id="a_Node000021"><a xlink:href="concurrent__explicit__postprocess__solver_8cc.html" target="_top" xlink:title=" ">
<polygon fill="white" stroke="#666666" points="1150.96,-195 968.96,-195 968.96,-154 1150.96,-154 1150.96,-195"/>
<text text-anchor="start" x="976.96" y="-183" font-family="Helvetica,sans-Serif" font-size="10.00">/home/runner/work/phaseField</text>
<text text-anchor="start" x="976.96" y="-172" font-family="Helvetica,sans-Serif" font-size="10.00">/phaseField/src/solvers/concurrent</text>
<text text-anchor="middle" x="1059.96" y="-161" font-family="Helvetica,sans-Serif" font-size="10.00">_explicit_postprocess_solver.cc</text>
</a>
</g>
</g>
<!-- Node6&#45;&gt;Node21 -->
<g id="edge33_Node000006_Node000021" class="edge">
<title>Node6&#45;&gt;Node21</title>
<g id="a_edge33_Node000006_Node000021"><a xlink:title=" ">
<path fill="none" stroke="#63b8ff" d="M1059.96,-220.69C1059.96,-212.08 1059.96,-202.9 1059.96,-195.07"/>
<polygon fill="#63b8ff" stroke="#63b8ff" points="1056.46,-220.79 1059.96,-230.79 1063.46,-220.79 1056.46,-220.79"/>
</a>
</g>
</g>
<!-- Node22 -->
<g id="Node000022" class="node">
<title>Node22</title>
<g id="a_Node000022"><a xlink:href="concurrent__explicit__solver_8cc.html" target="_top" xlink:title=" ">
<polygon fill="white" stroke="#666666" points="1350.96,-195 1168.96,-195 1168.96,-154 1350.96,-154 1350.96,-195"/>
<text text-anchor="start" x="1176.96" y="-183" font-family="Helvetica,sans-Serif" font-size="10.00">/home/runner/work/phaseField</text>
<text text-anchor="start" x="1176.96" y="-172" font-family="Helvetica,sans-Serif" font-size="10.00">/phaseField/src/solvers/concurrent</text>
<text text-anchor="middle" x="1259.96" y="-161" font-family="Helvetica,sans-Serif" font-size="10.00">_explicit_solver.cc</text>
</a>
</g>
</g>
<!-- Node6&#45;&gt;Node22 -->
<g id="edge34_Node000006_Node000022" class="edge">
<title>Node6&#45;&gt;Node22</title>
<g id="a_edge34_Node000006_Node000022"><a xlink:title=" ">
<path fill="none" stroke="#63b8ff" d="M1121.56,-227.4C1149.19,-217.04 1181.44,-204.95 1207.85,-195.04"/>
<polygon fill="#63b8ff" stroke="#63b8ff" points="1120.12,-224.2 1111.99,-230.99 1122.58,-230.76 1120.12,-224.2"/>
</a>
</g>
</g>
<!-- Node23 -->
<g id="Node000023" class="node">
<title>Node23</title>
<g id="a_Node000023"><a xlink:href="concurrent__solver_8cc.html" target="_top" xlink:title=" ">
<polygon fill="white" stroke="#666666" points="1550.96,-195 1368.96,-195 1368.96,-154 1550.96,-154 1550.96,-195"/>
<text text-anchor="start" x="1376.96" y="-183" font-family="Helvetica,sans-Serif" font-size="10.00">/home/runner/work/phaseField</text>
<text text-anchor="start" x="1376.96" y="-172" font-family="Helvetica,sans-Serif" font-size="10.00">/phaseField/src/solvers/concurrent</text>
<text text-anchor="middle" x="1459.96" y="-161" font-family="Helvetica,sans-Serif" font-size="10.00">_solver.cc</text>
</a>
</g>
</g>
<!-- Node6&#45;&gt;Node23 -->
<g id="edge35_Node000006_Node000023" class="edge">
<title>Node6&#45;&gt;Node23</title>
<g id="a_edge35_Node000006_Node000023"><a xlink:title=" ">
<path fill="none" stroke="#63b8ff" d="M1152.23,-233.67C1211.59,-222.78 1290.36,-208.22 1359.96,-195 1362.92,-194.44 1365.92,-193.87 1368.95,-193.29"/>
<polygon fill="#63b8ff" stroke="#63b8ff" points="1151.34,-230.27 1142.13,-235.52 1152.6,-237.16 1151.34,-230.27"/>
</a>
</g>
</g>
<!-- Node24 -->
<g id="Node000024" class="node">
<title>Node24</title>
<g id="a_Node000024"><a xlink:href="solver__base_8cc.html" target="_top" xlink:title=" ">
<polygon fill="white" stroke="#666666" points="1732.96,-195 1568.96,-195 1568.96,-154 1732.96,-154 1732.96,-195"/>
<text text-anchor="start" x="1576.96" y="-183" font-family="Helvetica,sans-Serif" font-size="10.00">/home/runner/work/phaseField</text>
<text text-anchor="start" x="1576.96" y="-172" font-family="Helvetica,sans-Serif" font-size="10.00">/phaseField/src/solvers/solver</text>
<text text-anchor="middle" x="1650.96" y="-161" font-family="Helvetica,sans-Serif" font-size="10.00">_base.cc</text>
</a>
</g>
</g>
<!-- Node6&#45;&gt;Node24 -->
<g id="edge43_Node000006_Node000024" class="edge">
<title>Node6&#45;&gt;Node24</title>
<g id="a_edge43_Node000006_Node000024"><a xlink:title=" ">
<path fill="none" stroke="#63b8ff" d="M1152.29,-243.05C1252.91,-234.29 1418.48,-217.95 1559.96,-195 1562.84,-194.53 1565.75,-194.04 1568.69,-193.52"/>
<polygon fill="#63b8ff" stroke="#63b8ff" points="1151.81,-239.58 1142.15,-243.93 1152.42,-246.55 1151.81,-239.58"/>
</a>
</g>
</g>
<!-- Node7&#45;&gt;Node5 -->
<g id="edge7_Node000007_Node000005" class="edge">
<title>Node7&#45;&gt;Node5</title>
<g id="a_edge7_Node000007_Node000005"><a xlink:title=" ">
<path fill="none" stroke="#63b8ff" d="M371.7,-71.09C357.37,-61.32 341.24,-50.32 327.82,-41.17"/>
<polygon fill="#63b8ff" stroke="#63b8ff" points="370.12,-74.25 380.35,-76.99 374.06,-68.47 370.12,-74.25"/>
</a>
</g>
</g>
<!-- Node9 -->
<g id="Node000009" class="node">
<title>Node9</title>
<g id="a_Node000009"><a xlink:href="linear__solver__gmg_8h.html" target="_top" xlink:title=" ">
<polygon fill="white" stroke="#666666" points="1541.96,-118 1377.96,-118 1377.96,-77 1541.96,-77 1541.96,-118"/>
<text text-anchor="start" x="1385.96" y="-106" font-family="Helvetica,sans-Serif" font-size="10.00">/home/runner/work/phaseField</text>
<text text-anchor="start" x="1385.96" y="-95" font-family="Helvetica,sans-Serif" font-size="10.00">/phaseField/include/prismspf</text>
<text text-anchor="middle" x="1459.96" y="-84" font-family="Helvetica,sans-Serif" font-size="10.00">/solvers/linear_solver_gmg.h</text>
</a>
</g>
</g>
<!-- Node8&#45;&gt;Node9 -->
<g id="edge9_Node000008_Node000009" class="edge">
<title>Node8&#45;&gt;Node9</title>
<g id="a_edge9_Node000008_Node000009"><a xlink:title=" ">
<path fill="none" stroke="#63b8ff" d="M761.38,-153.89C989.8,-121.12 1248.72,-106.98 1377.94,-101.49"/>
<polygon fill="#63b8ff" stroke="#63b8ff" points="760.61,-150.47 751.22,-155.37 761.61,-157.39 760.61,-150.47"/>
</a>
</g>
</g>
<!-- Node8&#45;&gt;Node11 -->
<g id="edge28_Node000008_Node000011" class="edge">
<title>Node8&#45;&gt;Node11</title>
<g id="a_edge28_Node000008_Node000011"><a xlink:title=" ">
<path fill="none" stroke="#63b8ff" d="M761.35,-153.95C1110.8,-110.08 1205.86,-167.02 1550.96,-118 1671.2,-100.92 1808.14,-63.97 1886.58,-41.07"/>
<polygon fill="#63b8ff" stroke="#63b8ff" points="760.68,-150.5 751.2,-155.24 761.56,-157.45 760.68,-150.5"/>
</a>
</g>
</g>
<!-- Node17 -->
<g id="Node000017" class="node">
<title>Node17</title>
<g id="a_Node000017"><a xlink:href="linear__solver__identity_8h.html" target="_top" xlink:title=" ">
<polygon fill="white" stroke="#666666" points="1054.46,-118 883.46,-118 883.46,-77 1054.46,-77 1054.46,-118"/>
<text text-anchor="start" x="891.46" y="-106" font-family="Helvetica,sans-Serif" font-size="10.00">/home/runner/work/phaseField</text>
<text text-anchor="start" x="891.46" y="-95" font-family="Helvetica,sans-Serif" font-size="10.00">/phaseField/include/prismspf</text>
<text text-anchor="middle" x="968.96" y="-84" font-family="Helvetica,sans-Serif" font-size="10.00">/solvers/linear_solver_identity.h</text>
</a>
</g>
</g>
<!-- Node8&#45;&gt;Node17 -->
<g id="edge18_Node000008_Node000017" class="edge">
<title>Node8&#45;&gt;Node17</title>
<g id="a_edge18_Node000008_Node000017"><a xlink:title=" ">
<path fill="none" stroke="#63b8ff" d="M756.76,-151.55C799.2,-140.94 849.7,-128.31 890.8,-118.04"/>
<polygon fill="#63b8ff" stroke="#63b8ff" points="755.86,-148.17 747,-153.99 757.55,-154.96 755.86,-148.17"/>
</a>
</g>
</g>
<!-- Node8&#45;&gt;Node18 -->
<g id="edge29_Node000008_Node000018" class="edge">
<title>Node8&#45;&gt;Node18</title>
<g id="a_edge29_Node000008_Node000018"><a xlink:title=" ">
<path fill="none" stroke="#63b8ff" d="M701.02,-146.6C708.7,-138.31 715.85,-128.55 719.96,-118 726.58,-101.02 730.07,-92.16 719.96,-77 708.03,-59.09 689.11,-46.95 669.24,-38.73"/>
<polygon fill="#63b8ff" stroke="#63b8ff" points="698.45,-144.22 693.9,-153.79 703.42,-149.15 698.45,-144.22"/>
</a>
</g>
</g>
<!-- Node8&#45;&gt;Node19 -->
<g id="edge27_Node000008_Node000019" class="edge">
<title>Node8&#45;&gt;Node19</title>
<g id="a_edge27_Node000008_Node000019"><a xlink:title=" ">
<path fill="none" stroke="#63b8ff" d="M653.67,-144.83C648.9,-135.89 643.76,-126.24 639.4,-118.07"/>
<polygon fill="#63b8ff" stroke="#63b8ff" points="650.66,-146.62 658.45,-153.79 656.84,-143.32 650.66,-146.62"/>
</a>
</g>
</g>
<!-- Node9&#45;&gt;Node5 -->
<g id="edge10_Node000009_Node000005" class="edge">
<title>Node9&#45;&gt;Node5</title>
<g id="a_edge10_Node000009_Node000005"><a xlink:title=" ">
<path fill="none" stroke="#63b8ff" d="M1367.66,-91.67C1160.5,-80.76 663.6,-54.12 495.96,-41 458.27,-38.05 416.6,-34.04 381.33,-30.42"/>
<polygon fill="#63b8ff" stroke="#63b8ff" points="1367.73,-95.18 1377.9,-92.21 1368.1,-88.19 1367.73,-95.18"/>
</a>
</g>
</g>
<!-- Node9&#45;&gt;Node10 -->
<g id="edge11_Node000009_Node000010" class="edge">
<title>Node9&#45;&gt;Node10</title>
<g id="a_edge11_Node000009_Node000010"><a xlink:title=" ">
<path fill="none" stroke="#63b8ff" d="M1367.52,-85.62C1286.25,-75.6 1164.91,-59.5 1059.96,-41 1057.1,-40.5 1054.19,-39.96 1051.25,-39.42"/>
<polygon fill="#63b8ff" stroke="#63b8ff" points="1367.37,-89.13 1377.72,-86.88 1368.22,-82.18 1367.37,-89.13"/>
</a>
</g>
</g>
<!-- Node9&#45;&gt;Node11 -->
<g id="edge12_Node000009_Node000011" class="edge">
<title>Node9&#45;&gt;Node11</title>
<g id="a_edge12_Node000009_Node000011"><a xlink:title=" ">
<path fill="none" stroke="#63b8ff" d="M1552.41,-85.62C1633.68,-75.6 1755.02,-59.5 1859.96,-41 1862.83,-40.5 1865.74,-39.96 1868.68,-39.42"/>
<polygon fill="#63b8ff" stroke="#63b8ff" points="1551.71,-82.18 1542.21,-86.88 1552.56,-89.13 1551.71,-82.18"/>
</a>
</g>
</g>
<!-- Node9&#45;&gt;Node12 -->
<g id="edge13_Node000009_Node000012" class="edge">
<title>Node9&#45;&gt;Node12</title>
<g id="a_edge13_Node000009_Node000012"><a xlink:title=" ">
<path fill="none" stroke="#63b8ff" d="M1372.16,-74.55C1329.73,-63.94 1279.22,-51.31 1238.13,-41.04"/>
<polygon fill="#63b8ff" stroke="#63b8ff" points="1371.38,-77.96 1381.93,-76.99 1373.07,-71.17 1371.38,-77.96"/>
</a>
</g>
</g>
<!-- Node9&#45;&gt;Node13 -->
<g id="edge14_Node000009_Node000013" class="edge">
<title>Node9&#45;&gt;Node13</title>
<g id="a_edge14_Node000009_Node000013"><a xlink:title=" ">
<path fill="none" stroke="#63b8ff" d="M1425.72,-70.82C1412.78,-61.11 1398.28,-50.24 1386.19,-41.17"/>
<polygon fill="#63b8ff" stroke="#63b8ff" points="1423.85,-73.79 1433.95,-76.99 1428.05,-68.19 1423.85,-73.79"/>
</a>
</g>
</g>
<!-- Node9&#45;&gt;Node14 -->
<g id="edge15_Node000009_Node000014" class="edge">
<title>Node9&#45;&gt;Node14</title>
<g id="a_edge15_Node000009_Node000014"><a xlink:title=" ">
<path fill="none" stroke="#63b8ff" d="M1494.21,-70.82C1507.15,-61.11 1521.65,-50.24 1533.73,-41.17"/>
<polygon fill="#63b8ff" stroke="#63b8ff" points="1491.88,-68.19 1485.98,-76.99 1496.08,-73.79 1491.88,-68.19"/>
</a>
</g>
</g>
<!-- Node9&#45;&gt;Node15 -->
<g id="edge16_Node000009_Node000015" class="edge">
<title>Node9&#45;&gt;Node15</title>
<g id="a_edge16_Node000009_Node000015"><a xlink:title=" ">
<path fill="none" stroke="#63b8ff" d="M1547.76,-74.55C1590.2,-63.94 1640.7,-51.31 1681.8,-41.04"/>
<polygon fill="#63b8ff" stroke="#63b8ff" points="1546.86,-71.17 1538,-76.99 1548.55,-77.96 1546.86,-71.17"/>
</a>
</g>
</g>
<!-- Node9&#45;&gt;Node16 -->
<g id="edge17_Node000009_Node000016" class="edge">
<title>Node9&#45;&gt;Node16</title>
<g id="a_edge17_Node000009_Node000016"><a xlink:title=" ">
<path fill="none" stroke="#63b8ff" d="M1367.56,-90.48C1252.49,-82.35 1050.07,-65.93 877.96,-41 875.08,-40.58 872.14,-40.14 869.19,-39.67"/>
<polygon fill="#63b8ff" stroke="#63b8ff" points="1367.52,-93.99 1377.74,-91.2 1368.01,-87 1367.52,-93.99"/>
</a>
</g>
</g>
<!-- Node17&#45;&gt;Node5 -->
<g id="edge19_Node000017_Node000005" class="edge">
<title>Node17&#45;&gt;Node5</title>
<g id="a_edge19_Node000017_Node000005"><a xlink:title=" ">
<path fill="none" stroke="#63b8ff" d="M873.33,-85.79C741.33,-71.02 505.56,-44.63 381.11,-30.7"/>
<polygon fill="#63b8ff" stroke="#63b8ff" points="873.1,-89.29 883.43,-86.93 873.88,-82.33 873.1,-89.29"/>
</a>
</g>
</g>
<!-- Node17&#45;&gt;Node10 -->
<g id="edge20_Node000017_Node000010" class="edge">
<title>Node17&#45;&gt;Node10</title>
<g id="a_edge20_Node000017_Node000010"><a xlink:title=" ">
<path fill="none" stroke="#63b8ff" d="M968.96,-66.69C968.96,-58.08 968.96,-48.9 968.96,-41.07"/>
<polygon fill="#63b8ff" stroke="#63b8ff" points="965.46,-66.79 968.96,-76.79 972.46,-66.79 965.46,-66.79"/>
</a>
</g>
</g>
<!-- Node17&#45;&gt;Node12 -->
<g id="edge22_Node000017_Node000012" class="edge">
<title>Node17&#45;&gt;Node12</title>
<g id="a_edge22_Node000017_Node000012"><a xlink:title=" ">
<path fill="none" stroke="#63b8ff" d="M1028.13,-73.27C1054.44,-62.94 1085.08,-50.9 1110.2,-41.04"/>
<polygon fill="#63b8ff" stroke="#63b8ff" points="1026.68,-70.08 1018.65,-76.99 1029.24,-76.59 1026.68,-70.08"/>
</a>
</g>
</g>
<!-- Node17&#45;&gt;Node13 -->
<g id="edge23_Node000017_Node000013" class="edge">
<title>Node17&#45;&gt;Node13</title>
<g id="a_edge23_Node000017_Node000013"><a xlink:title=" ">
<path fill="none" stroke="#63b8ff" d="M1064.65,-78.35C1121.43,-67.56 1194.82,-53.56 1259.96,-41 1262.92,-40.43 1265.92,-39.85 1268.95,-39.26"/>
<polygon fill="#63b8ff" stroke="#63b8ff" points="1063.78,-74.96 1054.61,-80.26 1065.09,-81.83 1063.78,-74.96"/>
</a>
</g>
</g>
<!-- Node17&#45;&gt;Node14 -->
<g id="edge24_Node000017_Node000014" class="edge">
<title>Node17&#45;&gt;Node14</title>
<g id="a_edge24_Node000017_Node000014"><a xlink:title=" ">
<path fill="none" stroke="#63b8ff" d="M1064.84,-87.95C1164.02,-78.57 1323.27,-62.02 1459.96,-41 1462.85,-40.56 1465.78,-40.09 1468.73,-39.6"/>
<polygon fill="#63b8ff" stroke="#63b8ff" points="1064.46,-84.47 1054.83,-88.89 1065.12,-91.44 1064.46,-84.47"/>
</a>
</g>
</g>
<!-- Node17&#45;&gt;Node15 -->
<g id="edge25_Node000017_Node000015" class="edge">
<title>Node17&#45;&gt;Node15</title>
<g id="a_edge25_Node000017_Node000015"><a xlink:title=" ">
<path fill="none" stroke="#63b8ff" d="M1064.89,-92.21C1198.66,-85.45 1448.61,-70 1659.96,-41 1662.86,-40.6 1665.79,-40.18 1668.75,-39.73"/>
<polygon fill="#63b8ff" stroke="#63b8ff" points="1064.48,-88.72 1054.67,-92.72 1064.83,-95.72 1064.48,-88.72"/>
</a>
</g>
</g>
<!-- Node17&#45;&gt;Node16 -->
<g id="edge26_Node000017_Node000016" class="edge">
<title>Node17&#45;&gt;Node16</title>
<g id="a_edge26_Node000017_Node000016"><a xlink:title=" ">
<path fill="none" stroke="#63b8ff" d="M909.8,-73.27C883.49,-62.94 852.85,-50.9 827.73,-41.04"/>
<polygon fill="#63b8ff" stroke="#63b8ff" points="908.69,-76.59 919.28,-76.99 911.25,-70.08 908.69,-76.59"/>
</a>
</g>
</g>
<!-- Node17&#45;&gt;Node18 -->
<g id="edge21_Node000017_Node000018" class="edge">
<title>Node17&#45;&gt;Node18</title>
<g id="a_edge21_Node000017_Node000018"><a xlink:title=" ">
<path fill="none" stroke="#63b8ff" d="M873.19,-78.8C816.38,-68.16 742.99,-54.17 677.96,-41 675.11,-40.42 672.21,-39.83 669.29,-39.23"/>
<polygon fill="#63b8ff" stroke="#63b8ff" points="872.76,-82.28 883.23,-80.68 874.05,-75.4 872.76,-82.28"/>
</a>
</g>
</g>
</g>
</svg>
