<?xml version="1.0" encoding="UTF-8" standalone="no"?>
<!DOCTYPE svg PUBLIC "-//W3C//DTD SVG 1.1//EN"
 "http://www.w3.org/Graphics/SVG/1.1/DTD/svg11.dtd">
<!-- Generated by graphviz version 2.43.0 (0)
 -->
<!-- Title: /home/runner/work/phaseField/phaseField/include/prismspf/user_inputs/nucleation_parameters.h Pages: 1 -->
<svg width="2436pt" height="368pt"
 viewBox="0.00 0.00 2436.17 368.00" xmlns="http://www.w3.org/2000/svg" xmlns:xlink="http://www.w3.org/1999/xlink">
<g id="graph0" class="graph" transform="scale(1 1) rotate(0) translate(4 364)">
<title>/home/runner/work/phaseField/phaseField/include/prismspf/user_inputs/nucleation_parameters.h</title>
<!-- Node1 -->
<g id="Node000001" class="node">
<title>Node1</title>
<g id="a_Node000001"><a xlink:title=" ">
<polygon fill="#999999" stroke="#666666" points="911.17,-360 711.17,-360 711.17,-319 911.17,-319 911.17,-360"/>
<text text-anchor="start" x="719.17" y="-348" font-family="Helvetica,sans-Serif" font-size="10.00">/home/runner/work/phaseField</text>
<text text-anchor="start" x="719.17" y="-337" font-family="Helvetica,sans-Serif" font-size="10.00">/phaseField/include/prismspf</text>
<text text-anchor="middle" x="811.17" y="-326" font-family="Helvetica,sans-Serif" font-size="10.00">/user_inputs/nucleation_parameters.h</text>
</a>
</g>
</g>
<!-- Node2 -->
<g id="Node000002" class="node">
<title>Node2</title>
<g id="a_Node000002"><a xlink:href="conditional__ostreams_8h.html" target="_top" xlink:title=" ">
<polygon fill="white" stroke="#666666" points="143.17,-217 3.17,-217 3.17,-187 143.17,-187 143.17,-217"/>
<text text-anchor="start" x="11.17" y="-205" font-family="Helvetica,sans-Serif" font-size="10.00">prismspf/core/conditional</text>
<text text-anchor="middle" x="73.17" y="-194" font-family="Helvetica,sans-Serif" font-size="10.00">_ostreams.h</text>
</a>
</g>
</g>
<!-- Node1&#45;&gt;Node2 -->
<g id="edge1_Node000001_Node000002" class="edge">
<title>Node1&#45;&gt;Node2</title>
<g id="a_edge1_Node000001_Node000002"><a xlink:title=" ">
<path fill="none" stroke="#63b8ff" d="M710.85,-337.27C523.91,-334.05 136.98,-322.63 91.17,-283 75.49,-269.44 71.82,-245.42 71.58,-227.23"/>
<polygon fill="#63b8ff" stroke="#63b8ff" points="75.08,-227.13 71.78,-217.06 68.08,-226.99 75.08,-227.13"/>
</a>
</g>
</g>
<!-- Node4 -->
<g id="Node000004" class="node">
<title>Node4</title>
<g id="a_Node000004"><a xlink:title=" ">
<polygon fill="#e0e0e0" stroke="#999999" points="493.67,-19 392.67,-19 392.67,0 493.67,0 493.67,-19"/>
<text text-anchor="middle" x="443.17" y="-7" font-family="Helvetica,sans-Serif" font-size="10.00">prismspf/config.h</text>
</a>
</g>
</g>
<!-- Node1&#45;&gt;Node4 -->
<g id="edge51_Node000001_Node000004" class="edge">
<title>Node1&#45;&gt;Node4</title>
<g id="a_edge51_Node000001_Node000004"><a xlink:title=" ">
<path fill="none" stroke="#63b8ff" d="M711.12,-337.72C580.94,-330.66 357.79,-296.53 253.17,-151 235.12,-125.9 269.18,-61.49 276.17,-55 304.8,-28.44 347.48,-17.38 382.53,-12.93"/>
<polygon fill="#63b8ff" stroke="#63b8ff" points="383.12,-16.39 392.66,-11.8 382.34,-9.43 383.12,-16.39"/>
</a>
</g>
</g>
<!-- Node5 -->
<g id="Node000005" class="node">
<title>Node5</title>
<g id="a_Node000005"><a xlink:href="exceptions_8h.html" target="_top" xlink:title=" ">
<polygon fill="white" stroke="#666666" points="782.67,-211.5 633.67,-211.5 633.67,-192.5 782.67,-192.5 782.67,-211.5"/>
<text text-anchor="middle" x="708.17" y="-199.5" font-family="Helvetica,sans-Serif" font-size="10.00">prismspf/core/exceptions.h</text>
</a>
</g>
</g>
<!-- Node1&#45;&gt;Node5 -->
<g id="edge4_Node000001_Node000005" class="edge">
<title>Node1&#45;&gt;Node5</title>
<g id="a_edge4_Node000001_Node000005"><a xlink:title=" ">
<path fill="none" stroke="#63b8ff" d="M796.19,-318.8C775.92,-292.13 740.08,-244.99 720.99,-219.87"/>
<polygon fill="#63b8ff" stroke="#63b8ff" points="723.61,-217.53 714.77,-211.69 718.04,-221.76 723.61,-217.53"/>
</a>
</g>
</g>
<!-- Node10 -->
<g id="Node000010" class="node">
<title>Node10</title>
<g id="a_Node000010"><a xlink:title=" ">
<polygon fill="#e0e0e0" stroke="#999999" points="1182.17,-19 1138.17,-19 1138.17,0 1182.17,0 1182.17,-19"/>
<text text-anchor="middle" x="1160.17" y="-7" font-family="Helvetica,sans-Serif" font-size="10.00">string</text>
</a>
</g>
</g>
<!-- Node1&#45;&gt;Node10 -->
<g id="edge55_Node000001_Node000010" class="edge">
<title>Node1&#45;&gt;Node10</title>
<g id="a_edge55_Node000001_Node000010"><a xlink:title=" ">
<path fill="none" stroke="#63b8ff" d="M911.26,-334.95C1252.63,-322.18 2350.17,-275.48 2350.17,-203 2350.17,-203 2350.17,-203 2350.17,-135 2350.17,-15.16 1383.17,-10.21 1192.57,-10.4"/>
<polygon fill="#63b8ff" stroke="#63b8ff" points="1192.35,-6.9 1182.36,-10.41 1192.36,-13.9 1192.35,-6.9"/>
</a>
</g>
</g>
<!-- Node12 -->
<g id="Node000012" class="node">
<title>Node12</title>
<g id="a_Node000012"><a xlink:href="nucleus_8h.html" target="_top" xlink:title=" ">
<polygon fill="white" stroke="#666666" points="607.67,-217 494.67,-217 494.67,-187 607.67,-187 607.67,-217"/>
<text text-anchor="start" x="502.67" y="-205" font-family="Helvetica,sans-Serif" font-size="10.00">prismspf/nucleation</text>
<text text-anchor="middle" x="551.17" y="-194" font-family="Helvetica,sans-Serif" font-size="10.00">/nucleus.h</text>
</a>
</g>
</g>
<!-- Node1&#45;&gt;Node12 -->
<g id="edge14_Node000001_Node000012" class="edge">
<title>Node1&#45;&gt;Node12</title>
<g id="a_edge14_Node000001_Node000012"><a xlink:title=" ">
<path fill="none" stroke="#63b8ff" d="M773.64,-318.94C723.83,-292.98 636.48,-247.46 587.36,-221.86"/>
<polygon fill="#63b8ff" stroke="#63b8ff" points="588.84,-218.69 578.35,-217.17 585.61,-224.89 588.84,-218.69"/>
</a>
</g>
</g>
<!-- Node16 -->
<g id="Node000016" class="node">
<title>Node16</title>
<g id="a_Node000016"><a xlink:href="temporal__discretization_8h.html" target="_top" xlink:title=" ">
<polygon fill="white" stroke="#666666" points="244.17,-283 100.17,-283 100.17,-253 244.17,-253 244.17,-283"/>
<text text-anchor="start" x="108.17" y="-271" font-family="Helvetica,sans-Serif" font-size="10.00">prismspf/user_inputs</text>
<text text-anchor="middle" x="172.17" y="-260" font-family="Helvetica,sans-Serif" font-size="10.00">/temporal_discretization.h</text>
</a>
</g>
</g>
<!-- Node1&#45;&gt;Node16 -->
<g id="edge21_Node000001_Node000016" class="edge">
<title>Node1&#45;&gt;Node16</title>
<g id="a_edge21_Node000001_Node000016"><a xlink:title=" ">
<path fill="none" stroke="#63b8ff" d="M711.05,-330.31C600.12,-320.81 416.02,-303.75 258.17,-283 256.9,-282.83 255.63,-282.66 254.34,-282.49"/>
<polygon fill="#63b8ff" stroke="#63b8ff" points="254.77,-279.01 244.38,-281.09 253.8,-285.95 254.77,-279.01"/>
</a>
</g>
</g>
<!-- Node17 -->
<g id="Node000017" class="node">
<title>Node17</title>
<g id="a_Node000017"><a xlink:href="variable__attributes_8h.html" target="_top" xlink:title=" ">
<polygon fill="white" stroke="#666666" points="983.17,-217 857.17,-217 857.17,-187 983.17,-187 983.17,-217"/>
<text text-anchor="start" x="865.17" y="-205" font-family="Helvetica,sans-Serif" font-size="10.00">prismspf/core/variable</text>
<text text-anchor="middle" x="920.17" y="-194" font-family="Helvetica,sans-Serif" font-size="10.00">_attributes.h</text>
</a>
</g>
</g>
<!-- Node1&#45;&gt;Node17 -->
<g id="edge52_Node000001_Node000017" class="edge">
<title>Node1&#45;&gt;Node17</title>
<g id="a_edge52_Node000001_Node000017"><a xlink:title=" ">
<path fill="none" stroke="#63b8ff" d="M827.02,-318.8C847.05,-293.89 881.44,-251.15 902.36,-225.14"/>
<polygon fill="#63b8ff" stroke="#63b8ff" points="905.1,-227.31 908.64,-217.33 899.65,-222.93 905.1,-227.31"/>
</a>
</g>
</g>
<!-- Node20 -->
<g id="Node000020" class="node">
<title>Node20</title>
<g id="a_Node000020"><a xlink:title=" ">
<polygon fill="#e0e0e0" stroke="#999999" points="1220.17,-145.5 1188.17,-145.5 1188.17,-126.5 1220.17,-126.5 1220.17,-145.5"/>
<text text-anchor="middle" x="1204.17" y="-133.5" font-family="Helvetica,sans-Serif" font-size="10.00">set</text>
</a>
</g>
</g>
<!-- Node1&#45;&gt;Node20 -->
<g id="edge54_Node000001_Node000020" class="edge">
<title>Node1&#45;&gt;Node20</title>
<g id="a_edge54_Node000001_Node000020"><a xlink:title=" ">
<path fill="none" stroke="#63b8ff" d="M849.21,-319C928.89,-278.14 1111.52,-184.51 1178.73,-150.04"/>
<polygon fill="#63b8ff" stroke="#63b8ff" points="1180.48,-153.08 1187.78,-145.4 1177.29,-146.85 1180.48,-153.08"/>
</a>
</g>
</g>
<!-- Node22 -->
<g id="Node000022" class="node">
<title>Node22</title>
<g id="a_Node000022"><a xlink:href="utilities_8h.html" target="_top" xlink:title=" ">
<polygon fill="white" stroke="#666666" points="1709.67,-217 1610.67,-217 1610.67,-187 1709.67,-187 1709.67,-217"/>
<text text-anchor="start" x="1618.67" y="-205" font-family="Helvetica,sans-Serif" font-size="10.00">prismspf/utilities</text>
<text text-anchor="middle" x="1660.17" y="-194" font-family="Helvetica,sans-Serif" font-size="10.00">/utilities.h</text>
</a>
</g>
</g>
<!-- Node1&#45;&gt;Node22 -->
<g id="edge35_Node000001_Node000022" class="edge">
<title>Node1&#45;&gt;Node22</title>
<g id="a_edge35_Node000001_Node000022"><a xlink:title=" ">
<path fill="none" stroke="#63b8ff" d="M911.47,-322.49C1089.73,-294.04 1456.47,-235.51 1600.36,-212.55"/>
<polygon fill="#63b8ff" stroke="#63b8ff" points="1601,-215.99 1610.33,-210.95 1599.9,-209.07 1601,-215.99"/>
</a>
</g>
</g>
<!-- Node31 -->
<g id="Node000031" class="node">
<title>Node31</title>
<g id="a_Node000031"><a xlink:title=" ">
<polygon fill="#e0e0e0" stroke="#999999" points="2428.17,-277.5 2378.17,-277.5 2378.17,-258.5 2428.17,-258.5 2428.17,-277.5"/>
<text text-anchor="middle" x="2403.17" y="-265.5" font-family="Helvetica,sans-Serif" font-size="10.00">climits</text>
</a>
</g>
</g>
<!-- Node1&#45;&gt;Node31 -->
<g id="edge53_Node000001_Node000031" class="edge">
<title>Node1&#45;&gt;Node31</title>
<g id="a_edge53_Node000001_Node000031"><a xlink:title=" ">
<path fill="none" stroke="#63b8ff" d="M911.29,-338.94C1208.83,-339.63 2084.34,-336.87 2364.17,-283 2367.18,-282.42 2370.27,-281.65 2373.33,-280.76"/>
<polygon fill="#63b8ff" stroke="#63b8ff" points="2374.45,-284.07 2382.86,-277.63 2372.26,-277.42 2374.45,-284.07"/>
</a>
</g>
</g>
<!-- Node3 -->
<g id="Node000003" class="node">
<title>Node3</title>
<g id="a_Node000003"><a xlink:title=" ">
<polygon fill="#e0e0e0" stroke="#999999" points="144.17,-151 14.17,-151 14.17,-121 144.17,-121 144.17,-151"/>
<text text-anchor="start" x="22.17" y="-139" font-family="Helvetica,sans-Serif" font-size="10.00">deal.II/base/conditional</text>
<text text-anchor="middle" x="79.17" y="-128" font-family="Helvetica,sans-Serif" font-size="10.00">_ostream.h</text>
</a>
</g>
</g>
<!-- Node2&#45;&gt;Node3 -->
<g id="edge2_Node000002_Node000003" class="edge">
<title>Node2&#45;&gt;Node3</title>
<g id="a_edge2_Node000002_Node000003"><a xlink:title=" ">
<path fill="none" stroke="#63b8ff" d="M74.5,-186.8C75.21,-179.26 76.09,-169.78 76.91,-161.13"/>
<polygon fill="#63b8ff" stroke="#63b8ff" points="80.39,-161.45 77.84,-151.16 73.42,-160.79 80.39,-161.45"/>
</a>
</g>
</g>
<!-- Node2&#45;&gt;Node4 -->
<g id="edge3_Node000002_Node000004" class="edge">
<title>Node2&#45;&gt;Node4</title>
<g id="a_edge3_Node000002_Node000004"><a xlink:title=" ">
<path fill="none" stroke="#63b8ff" d="M42.71,-186.94C28.54,-178.66 13.11,-166.69 5.17,-151 -0.85,-139.1 -2.16,-132.14 5.17,-121 46.54,-58.1 272.24,-27.39 382.5,-15.97"/>
<polygon fill="#63b8ff" stroke="#63b8ff" points="382.88,-19.45 392.48,-14.96 382.17,-12.49 382.88,-19.45"/>
</a>
</g>
</g>
<!-- Node5&#45;&gt;Node4 -->
<g id="edge13_Node000005_Node000004" class="edge">
<title>Node5&#45;&gt;Node4</title>
<g id="a_edge13_Node000005_Node000004"><a xlink:title=" ">
<path fill="none" stroke="#63b8ff" d="M654.81,-192.47C580.7,-180.38 454.9,-158.86 448.17,-151 418.75,-116.64 429.3,-58.4 437.37,-28.86"/>
<polygon fill="#63b8ff" stroke="#63b8ff" points="440.79,-29.63 440.26,-19.05 434.08,-27.66 440.79,-29.63"/>
</a>
</g>
</g>
<!-- Node6 -->
<g id="Node000006" class="node">
<title>Node6</title>
<g id="a_Node000006"><a xlink:title=" ">
<polygon fill="#e0e0e0" stroke="#999999" points="1038.17,-145.5 900.17,-145.5 900.17,-126.5 1038.17,-126.5 1038.17,-145.5"/>
<text text-anchor="middle" x="969.17" y="-133.5" font-family="Helvetica,sans-Serif" font-size="10.00">deal.II/base/exceptions.h</text>
</a>
</g>
</g>
<!-- Node5&#45;&gt;Node6 -->
<g id="edge5_Node000005_Node000006" class="edge">
<title>Node5&#45;&gt;Node6</title>
<g id="a_edge5_Node000005_Node000006"><a xlink:title=" ">
<path fill="none" stroke="#63b8ff" d="M743.1,-192.44C789.98,-180.94 873.28,-160.51 924.62,-147.92"/>
<polygon fill="#63b8ff" stroke="#63b8ff" points="925.57,-151.3 934.45,-145.51 923.9,-144.5 925.57,-151.3"/>
</a>
</g>
</g>
<!-- Node7 -->
<g id="Node000007" class="node">
<title>Node7</title>
<g id="a_Node000007"><a xlink:href="types_8h.html" target="_top" xlink:title=" ">
<polygon fill="white" stroke="#666666" points="612.17,-145.5 490.17,-145.5 490.17,-126.5 612.17,-126.5 612.17,-145.5"/>
<text text-anchor="middle" x="551.17" y="-133.5" font-family="Helvetica,sans-Serif" font-size="10.00">prismspf/core/types.h</text>
</a>
</g>
</g>
<!-- Node5&#45;&gt;Node7 -->
<g id="edge6_Node000005_Node000007" class="edge">
<title>Node5&#45;&gt;Node7</title>
<g id="a_edge6_Node000005_Node000007"><a xlink:title=" ">
<path fill="none" stroke="#63b8ff" d="M686.99,-192.37C659.88,-181.32 612.7,-162.08 581.71,-149.45"/>
<polygon fill="#63b8ff" stroke="#63b8ff" points="582.84,-146.13 572.26,-145.6 580.2,-152.61 582.84,-146.13"/>
</a>
</g>
</g>
<!-- Node7&#45;&gt;Node4 -->
<g id="edge11_Node000007_Node000004" class="edge">
<title>Node7&#45;&gt;Node4</title>
<g id="a_edge11_Node000007_Node000004"><a xlink:title=" ">
<path fill="none" stroke="#63b8ff" d="M543.74,-126.44C525.94,-105.92 480.58,-53.62 457.34,-26.84"/>
<polygon fill="#63b8ff" stroke="#63b8ff" points="459.84,-24.38 450.64,-19.12 454.55,-28.96 459.84,-24.38"/>
</a>
</g>
</g>
<!-- Node8 -->
<g id="Node000008" class="node">
<title>Node8</title>
<g id="a_Node000008"><a xlink:href="type__enums_8h.html" target="_top" xlink:title=" ">
<polygon fill="white" stroke="#666666" points="1003.17,-85 895.17,-85 895.17,-55 1003.17,-55 1003.17,-85"/>
<text text-anchor="start" x="903.17" y="-73" font-family="Helvetica,sans-Serif" font-size="10.00">prismspf/core/type</text>
<text text-anchor="middle" x="949.17" y="-62" font-family="Helvetica,sans-Serif" font-size="10.00">_enums.h</text>
</a>
</g>
</g>
<!-- Node7&#45;&gt;Node8 -->
<g id="edge7_Node000007_Node000008" class="edge">
<title>Node7&#45;&gt;Node8</title>
<g id="a_edge7_Node000007_Node000008"><a xlink:title=" ">
<path fill="none" stroke="#63b8ff" d="M595.54,-126.48C605.6,-124.62 616.24,-122.69 626.17,-121 715.77,-105.71 819.7,-89.98 884.95,-80.34"/>
<polygon fill="#63b8ff" stroke="#63b8ff" points="885.7,-83.77 895.08,-78.85 884.67,-76.85 885.7,-83.77"/>
</a>
</g>
</g>
<!-- Node11 -->
<g id="Node000011" class="node">
<title>Node11</title>
<g id="a_Node000011"><a xlink:title=" ">
<polygon fill="#e0e0e0" stroke="#999999" points="747.67,-79.5 702.67,-79.5 702.67,-60.5 747.67,-60.5 747.67,-79.5"/>
<text text-anchor="middle" x="725.17" y="-67.5" font-family="Helvetica,sans-Serif" font-size="10.00">utility</text>
</a>
</g>
</g>
<!-- Node7&#45;&gt;Node11 -->
<g id="edge12_Node000007_Node000011" class="edge">
<title>Node7&#45;&gt;Node11</title>
<g id="a_edge12_Node000007_Node000011"><a xlink:title=" ">
<path fill="none" stroke="#63b8ff" d="M574.63,-126.37C605.2,-115.13 658.76,-95.43 693.07,-82.81"/>
<polygon fill="#63b8ff" stroke="#63b8ff" points="694.45,-86.03 702.62,-79.29 692.03,-79.46 694.45,-86.03"/>
</a>
</g>
</g>
<!-- Node8&#45;&gt;Node4 -->
<g id="edge8_Node000008_Node000004" class="edge">
<title>Node8&#45;&gt;Node4</title>
<g id="a_edge8_Node000008_Node000004"><a xlink:title=" ">
<path fill="none" stroke="#63b8ff" d="M895.07,-57.34C890.38,-56.49 885.7,-55.69 881.17,-55 747.36,-34.48 589.05,-21.06 504.19,-14.73"/>
<polygon fill="#63b8ff" stroke="#63b8ff" points="504.19,-11.22 493.96,-13.97 503.68,-18.2 504.19,-11.22"/>
</a>
</g>
</g>
<!-- Node9 -->
<g id="Node000009" class="node">
<title>Node9</title>
<g id="a_Node000009"><a xlink:title=" ">
<polygon fill="#e0e0e0" stroke="#999999" points="974.17,-19 924.17,-19 924.17,0 974.17,0 974.17,-19"/>
<text text-anchor="middle" x="949.17" y="-7" font-family="Helvetica,sans-Serif" font-size="10.00">cstdint</text>
</a>
</g>
</g>
<!-- Node8&#45;&gt;Node9 -->
<g id="edge9_Node000008_Node000009" class="edge">
<title>Node8&#45;&gt;Node9</title>
<g id="a_edge9_Node000008_Node000009"><a xlink:title=" ">
<path fill="none" stroke="#63b8ff" d="M949.17,-54.84C949.17,-47.21 949.17,-37.7 949.17,-29.45"/>
<polygon fill="#63b8ff" stroke="#63b8ff" points="952.67,-29.27 949.17,-19.27 945.67,-29.27 952.67,-29.27"/>
</a>
</g>
</g>
<!-- Node8&#45;&gt;Node10 -->
<g id="edge10_Node000008_Node000010" class="edge">
<title>Node8&#45;&gt;Node10</title>
<g id="a_edge10_Node000008_Node000010"><a xlink:title=" ">
<path fill="none" stroke="#63b8ff" d="M999.71,-54.99C1039.59,-43.93 1094.02,-28.84 1128.12,-19.38"/>
<polygon fill="#63b8ff" stroke="#63b8ff" points="1129.31,-22.69 1138.01,-16.64 1127.44,-15.94 1129.31,-22.69"/>
</a>
</g>
</g>
<!-- Node12&#45;&gt;Node4 -->
<g id="edge17_Node000012_Node000004" class="edge">
<title>Node12&#45;&gt;Node4</title>
<g id="a_edge17_Node000012_Node000004"><a xlink:title=" ">
<path fill="none" stroke="#63b8ff" d="M494.55,-199.33C420.16,-195.82 295.61,-184.89 267.17,-151 219.35,-94.03 339.79,-44.14 404.82,-22.27"/>
<polygon fill="#63b8ff" stroke="#63b8ff" points="405.97,-25.58 414.37,-19.13 403.78,-18.93 405.97,-25.58"/>
</a>
</g>
</g>
<!-- Node12&#45;&gt;Node7 -->
<g id="edge16_Node000012_Node000007" class="edge">
<title>Node12&#45;&gt;Node7</title>
<g id="a_edge16_Node000012_Node000007"><a xlink:title=" ">
<path fill="none" stroke="#63b8ff" d="M551.17,-186.8C551.17,-177.7 551.17,-165.79 551.17,-155.9"/>
<polygon fill="#63b8ff" stroke="#63b8ff" points="554.67,-155.84 551.17,-145.84 547.67,-155.84 554.67,-155.84"/>
</a>
</g>
</g>
<!-- Node12&#45;&gt;Node10 -->
<g id="edge20_Node000012_Node000010" class="edge">
<title>Node12&#45;&gt;Node10</title>
<g id="a_edge20_Node000012_Node000010"><a xlink:title=" ">
<path fill="none" stroke="#63b8ff" d="M571.22,-186.96C585.29,-177.04 604.49,-163.36 621.17,-151 638.74,-137.98 639.85,-129.09 660.17,-121 806.28,-62.84 861.21,-129.08 1012.17,-85 1059.8,-71.09 1110.44,-42.1 1138.41,-24.67"/>
<polygon fill="#63b8ff" stroke="#63b8ff" points="1140.41,-27.54 1146.98,-19.24 1136.66,-21.63 1140.41,-27.54"/>
</a>
</g>
</g>
<!-- Node13 -->
<g id="Node000013" class="node">
<title>Node13</title>
<g id="a_Node000013"><a xlink:title=" ">
<polygon fill="#e0e0e0" stroke="#999999" points="844.17,-145.5 734.17,-145.5 734.17,-126.5 844.17,-126.5 844.17,-145.5"/>
<text text-anchor="middle" x="789.17" y="-133.5" font-family="Helvetica,sans-Serif" font-size="10.00">deal.II/base/point.h</text>
</a>
</g>
</g>
<!-- Node12&#45;&gt;Node13 -->
<g id="edge15_Node000012_Node000013" class="edge">
<title>Node12&#45;&gt;Node13</title>
<g id="a_edge15_Node000012_Node000013"><a xlink:title=" ">
<path fill="none" stroke="#63b8ff" d="M603.4,-186.95C646.79,-175.29 707.7,-158.91 747.78,-148.13"/>
<polygon fill="#63b8ff" stroke="#63b8ff" points="748.75,-151.49 757.49,-145.52 746.93,-144.73 748.75,-151.49"/>
</a>
</g>
</g>
<!-- Node14 -->
<g id="Node000014" class="node">
<title>Node14</title>
<g id="a_Node000014"><a xlink:title=" ">
<polygon fill="#e0e0e0" stroke="#999999" points="320.17,-145.5 276.17,-145.5 276.17,-126.5 320.17,-126.5 320.17,-145.5"/>
<text text-anchor="middle" x="298.17" y="-133.5" font-family="Helvetica,sans-Serif" font-size="10.00">mpi.h</text>
</a>
</g>
</g>
<!-- Node12&#45;&gt;Node14 -->
<g id="edge18_Node000012_Node000014" class="edge">
<title>Node12&#45;&gt;Node14</title>
<g id="a_edge18_Node000012_Node000014"><a xlink:title=" ">
<path fill="none" stroke="#63b8ff" d="M494.65,-191.55C449.27,-183.18 384.24,-169.43 329.17,-151 327.77,-150.53 326.35,-150.02 324.92,-149.48"/>
<polygon fill="#63b8ff" stroke="#63b8ff" points="326.2,-146.22 315.63,-145.63 323.52,-152.69 326.2,-146.22"/>
</a>
</g>
</g>
<!-- Node15 -->
<g id="Node000015" class="node">
<title>Node15</title>
<g id="a_Node000015"><a xlink:title=" ">
<polygon fill="#e0e0e0" stroke="#999999" points="395.67,-145.5 338.67,-145.5 338.67,-126.5 395.67,-126.5 395.67,-145.5"/>
<text text-anchor="middle" x="367.17" y="-133.5" font-family="Helvetica,sans-Serif" font-size="10.00">ostream</text>
</a>
</g>
</g>
<!-- Node12&#45;&gt;Node15 -->
<g id="edge19_Node000012_Node000015" class="edge">
<title>Node12&#45;&gt;Node15</title>
<g id="a_edge19_Node000012_Node000015"><a xlink:title=" ">
<path fill="none" stroke="#63b8ff" d="M510.79,-186.95C477.95,-175.53 432.14,-159.6 401.16,-148.82"/>
<polygon fill="#63b8ff" stroke="#63b8ff" points="402.25,-145.5 391.66,-145.52 399.95,-152.11 402.25,-145.5"/>
</a>
</g>
</g>
<!-- Node16&#45;&gt;Node2 -->
<g id="edge22_Node000016_Node000002" class="edge">
<title>Node16&#45;&gt;Node2</title>
<g id="a_edge22_Node000016_Node000002"><a xlink:title=" ">
<path fill="none" stroke="#63b8ff" d="M150.2,-252.8C136.48,-243.93 118.63,-232.39 103.57,-222.66"/>
<polygon fill="#63b8ff" stroke="#63b8ff" points="105.38,-219.65 95.08,-217.16 101.58,-225.53 105.38,-219.65"/>
</a>
</g>
</g>
<!-- Node16&#45;&gt;Node4 -->
<g id="edge34_Node000016_Node000004" class="edge">
<title>Node16&#45;&gt;Node4</title>
<g id="a_edge34_Node000016_Node000004"><a xlink:title=" ">
<path fill="none" stroke="#63b8ff" d="M168.71,-252.82C160.41,-215.03 143.76,-110.96 196.17,-55 220.91,-28.59 317.54,-17.71 382.35,-13.34"/>
<polygon fill="#63b8ff" stroke="#63b8ff" points="382.7,-16.82 392.46,-12.69 382.26,-9.84 382.7,-16.82"/>
</a>
</g>
</g>
<!-- Node16&#45;&gt;Node17 -->
<g id="edge23_Node000016_Node000017" class="edge">
<title>Node16&#45;&gt;Node17</title>
<g id="a_edge23_Node000016_Node000017"><a xlink:title=" ">
<path fill="none" stroke="#63b8ff" d="M244.3,-261.85C359.97,-253.45 594.09,-235.82 792.17,-217 809.92,-215.31 829.05,-213.32 846.96,-211.37"/>
<polygon fill="#63b8ff" stroke="#63b8ff" points="847.49,-214.83 857.05,-210.26 846.73,-207.87 847.49,-214.83"/>
</a>
</g>
</g>
<!-- Node17&#45;&gt;Node4 -->
<g id="edge28_Node000017_Node000004" class="edge">
<title>Node17&#45;&gt;Node4</title>
<g id="a_edge28_Node000017_Node000004"><a xlink:title=" ">
<path fill="none" stroke="#63b8ff" d="M857.11,-194.04C736.08,-180.66 482.94,-152.52 481.17,-151 462.75,-135.17 450.56,-63.87 445.64,-29.34"/>
<polygon fill="#63b8ff" stroke="#63b8ff" points="449.07,-28.61 444.25,-19.18 442.13,-29.56 449.07,-28.61"/>
</a>
</g>
</g>
<!-- Node17&#45;&gt;Node6 -->
<g id="edge24_Node000017_Node000006" class="edge">
<title>Node17&#45;&gt;Node6</title>
<g id="a_edge24_Node000017_Node000006"><a xlink:title=" ">
<path fill="none" stroke="#63b8ff" d="M931.04,-186.8C938.46,-177.11 948.31,-164.24 956.15,-154.01"/>
<polygon fill="#63b8ff" stroke="#63b8ff" points="959.1,-155.91 962.4,-145.84 953.54,-151.66 959.1,-155.91"/>
</a>
</g>
</g>
<!-- Node17&#45;&gt;Node7 -->
<g id="edge27_Node000017_Node000007" class="edge">
<title>Node17&#45;&gt;Node7</title>
<g id="a_edge27_Node000017_Node000007"><a xlink:title=" ">
<path fill="none" stroke="#63b8ff" d="M857.15,-190.07C788.04,-178.08 677.98,-158.99 610.41,-147.27"/>
<polygon fill="#63b8ff" stroke="#63b8ff" points="610.8,-143.79 600.35,-145.53 609.6,-150.69 610.8,-143.79"/>
</a>
</g>
</g>
<!-- Node17&#45;&gt;Node8 -->
<g id="edge26_Node000017_Node000008" class="edge">
<title>Node17&#45;&gt;Node8</title>
<g id="a_edge26_Node000017_Node000008"><a xlink:title=" ">
<path fill="none" stroke="#63b8ff" d="M983.46,-191.99C1030.32,-183.87 1088.48,-170.24 1103.17,-151 1131.87,-113.41 1067.46,-91.84 1013.35,-80.77"/>
<polygon fill="#63b8ff" stroke="#63b8ff" points="1013.87,-77.31 1003.39,-78.83 1012.53,-84.18 1013.87,-77.31"/>
</a>
</g>
</g>
<!-- Node17&#45;&gt;Node10 -->
<g id="edge31_Node000017_Node000010" class="edge">
<title>Node17&#45;&gt;Node10</title>
<g id="a_edge31_Node000017_Node000010"><a xlink:title=" ">
<path fill="none" stroke="#63b8ff" d="M983.2,-192.23C1034.22,-183.91 1100.69,-169.86 1120.17,-151 1153.79,-118.45 1159.72,-59.84 1160.42,-29.64"/>
<polygon fill="#63b8ff" stroke="#63b8ff" points="1163.92,-29.26 1160.47,-19.24 1156.92,-29.22 1163.92,-29.26"/>
</a>
</g>
</g>
<!-- Node17&#45;&gt;Node11 -->
<g id="edge32_Node000017_Node000011" class="edge">
<title>Node17&#45;&gt;Node11</title>
<g id="a_edge32_Node000017_Node000011"><a xlink:title=" ">
<path fill="none" stroke="#63b8ff" d="M911.63,-186.99C900.27,-169.39 878.62,-139.29 853.17,-121 824.13,-100.14 785.23,-86.57 757.96,-78.9"/>
<polygon fill="#63b8ff" stroke="#63b8ff" points="758.69,-75.47 748.12,-76.25 756.87,-82.23 758.69,-75.47"/>
</a>
</g>
</g>
<!-- Node18 -->
<g id="Node000018" class="node">
<title>Node18</title>
<g id="a_Node000018"><a xlink:title=" ">
<polygon fill="#e0e0e0" stroke="#999999" points="1347.67,-151 1238.67,-151 1238.67,-121 1347.67,-121 1347.67,-151"/>
<text text-anchor="start" x="1246.67" y="-139" font-family="Helvetica,sans-Serif" font-size="10.00">deal.II/matrix_free</text>
<text text-anchor="middle" x="1293.17" y="-128" font-family="Helvetica,sans-Serif" font-size="10.00">/evaluation_flags.h</text>
</a>
</g>
</g>
<!-- Node17&#45;&gt;Node18 -->
<g id="edge25_Node000017_Node000018" class="edge">
<title>Node17&#45;&gt;Node18</title>
<g id="a_edge25_Node000017_Node000018"><a xlink:title=" ">
<path fill="none" stroke="#63b8ff" d="M983.37,-191.81C1043.75,-182.8 1137.54,-168.19 1228.47,-151.07"/>
<polygon fill="#63b8ff" stroke="#63b8ff" points="1229.22,-154.49 1238.4,-149.19 1227.92,-147.61 1229.22,-154.49"/>
</a>
</g>
</g>
<!-- Node19 -->
<g id="Node000019" class="node">
<title>Node19</title>
<g id="a_Node000019"><a xlink:title=" ">
<polygon fill="#e0e0e0" stroke="#999999" points="1094.17,-145.5 1056.17,-145.5 1056.17,-126.5 1094.17,-126.5 1094.17,-145.5"/>
<text text-anchor="middle" x="1075.17" y="-133.5" font-family="Helvetica,sans-Serif" font-size="10.00">map</text>
</a>
</g>
</g>
<!-- Node17&#45;&gt;Node19 -->
<g id="edge29_Node000017_Node000019" class="edge">
<title>Node17&#45;&gt;Node19</title>
<g id="a_edge29_Node000017_Node000019"><a xlink:title=" ">
<path fill="none" stroke="#63b8ff" d="M958.32,-186.99C983.73,-177.41 1017.73,-164.12 1047.17,-151 1047.99,-150.63 1048.83,-150.25 1049.67,-149.87"/>
<polygon fill="#63b8ff" stroke="#63b8ff" points="1051.2,-153.02 1058.7,-145.54 1048.17,-146.7 1051.2,-153.02"/>
</a>
</g>
</g>
<!-- Node17&#45;&gt;Node20 -->
<g id="edge30_Node000017_Node000020" class="edge">
<title>Node17&#45;&gt;Node20</title>
<g id="a_edge30_Node000017_Node000020"><a xlink:title=" ">
<path fill="none" stroke="#63b8ff" d="M983.36,-192.91C1035.41,-185.22 1110.72,-171.71 1174.17,-151 1175.6,-150.53 1177.06,-150.01 1178.52,-149.46"/>
<polygon fill="#63b8ff" stroke="#63b8ff" points="1180.12,-152.58 1187.95,-145.44 1177.38,-146.14 1180.12,-152.58"/>
</a>
</g>
</g>
<!-- Node21 -->
<g id="Node000021" class="node">
<title>Node21</title>
<g id="a_Node000021"><a xlink:title=" ">
<polygon fill="#e0e0e0" stroke="#999999" points="715.67,-145.5 668.67,-145.5 668.67,-126.5 715.67,-126.5 715.67,-145.5"/>
<text text-anchor="middle" x="692.17" y="-133.5" font-family="Helvetica,sans-Serif" font-size="10.00">vector</text>
</a>
</g>
</g>
<!-- Node17&#45;&gt;Node21 -->
<g id="edge33_Node000017_Node000021" class="edge">
<title>Node17&#45;&gt;Node21</title>
<g id="a_edge33_Node000017_Node000021"><a xlink:title=" ">
<path fill="none" stroke="#63b8ff" d="M857.12,-187.37C818.58,-178.42 768.54,-165.67 725.17,-151 723.73,-150.51 722.27,-149.99 720.8,-149.45"/>
<polygon fill="#63b8ff" stroke="#63b8ff" points="721.76,-146.07 711.17,-145.64 719.18,-152.57 721.76,-146.07"/>
</a>
</g>
</g>
<!-- Node22&#45;&gt;Node4 -->
<g id="edge43_Node000022_Node000004" class="edge">
<title>Node22&#45;&gt;Node4</title>
<g id="a_edge43_Node000022_Node000004"><a xlink:title=" ">
<path fill="none" stroke="#63b8ff" d="M1610.43,-198.47C1555.77,-194.16 1466.4,-182.49 1396.17,-151 1376.21,-142.05 1377.59,-128.83 1357.17,-121 1259.15,-83.43 989.92,-100.93 886.17,-85 827.99,-76.06 815.03,-65.81 757.17,-55 669.63,-38.65 567.36,-25.2 503.92,-17.51"/>
<polygon fill="#63b8ff" stroke="#63b8ff" points="504.04,-14 493.69,-16.28 503.2,-20.95 504.04,-14"/>
</a>
</g>
</g>
<!-- Node22&#45;&gt;Node6 -->
<g id="edge36_Node000022_Node000006" class="edge">
<title>Node22&#45;&gt;Node6</title>
<g id="a_edge36_Node000022_Node000006"><a xlink:title=" ">
<path fill="none" stroke="#63b8ff" d="M1610.34,-198.56C1505.68,-193.09 1255.49,-178.13 1047.17,-151 1039.12,-149.95 1030.63,-148.64 1022.35,-147.25"/>
<polygon fill="#63b8ff" stroke="#63b8ff" points="1022.82,-143.78 1012.37,-145.52 1021.63,-150.68 1022.82,-143.78"/>
</a>
</g>
</g>
<!-- Node22&#45;&gt;Node10 -->
<g id="edge45_Node000022_Node000010" class="edge">
<title>Node22&#45;&gt;Node10</title>
<g id="a_edge45_Node000022_Node000010"><a xlink:title=" ">
<path fill="none" stroke="#63b8ff" d="M1709.82,-200.86C1852.14,-199.94 2253.84,-193.56 2293.17,-151 2302.22,-141.21 2302.1,-130.9 2293.17,-121 2217.34,-36.98 1370.05,-14.85 1192.63,-11.12"/>
<polygon fill="#63b8ff" stroke="#63b8ff" points="1192.67,-7.62 1182.6,-10.92 1192.53,-14.62 1192.67,-7.62"/>
</a>
</g>
</g>
<!-- Node22&#45;&gt;Node13 -->
<g id="edge37_Node000022_Node000013" class="edge">
<title>Node22&#45;&gt;Node13</title>
<g id="a_edge37_Node000022_Node000013"><a xlink:title=" ">
<path fill="none" stroke="#63b8ff" d="M1610.59,-199.01C1488.2,-193.82 1162.05,-178.36 891.17,-151 879.29,-149.8 866.66,-148.27 854.49,-146.67"/>
<polygon fill="#63b8ff" stroke="#63b8ff" points="854.78,-143.18 844.4,-145.31 853.85,-150.12 854.78,-143.18"/>
</a>
</g>
</g>
<!-- Node22&#45;&gt;Node18 -->
<g id="edge40_Node000022_Node000018" class="edge">
<title>Node22&#45;&gt;Node18</title>
<g id="a_edge40_Node000022_Node000018"><a xlink:title=" ">
<path fill="none" stroke="#63b8ff" d="M1610.51,-193.2C1551.29,-183.77 1449.34,-167.15 1362.17,-151 1360.7,-150.73 1359.22,-150.45 1357.73,-150.17"/>
<polygon fill="#63b8ff" stroke="#63b8ff" points="1358.23,-146.7 1347.75,-148.25 1356.91,-153.58 1358.23,-146.7"/>
</a>
</g>
</g>
<!-- Node23 -->
<g id="Node000023" class="node">
<title>Node23</title>
<g id="a_Node000023"><a xlink:title=" ">
<polygon fill="#e0e0e0" stroke="#999999" points="1674.67,-145.5 1559.67,-145.5 1559.67,-126.5 1674.67,-126.5 1674.67,-145.5"/>
<text text-anchor="middle" x="1617.17" y="-133.5" font-family="Helvetica,sans-Serif" font-size="10.00">deal.II/base/tensor.h</text>
</a>
</g>
</g>
<!-- Node22&#45;&gt;Node23 -->
<g id="edge38_Node000022_Node000023" class="edge">
<title>Node22&#45;&gt;Node23</title>
<g id="a_edge38_Node000022_Node000023"><a xlink:title=" ">
<path fill="none" stroke="#63b8ff" d="M1650.63,-186.8C1644.18,-177.21 1635.64,-164.5 1628.8,-154.32"/>
<polygon fill="#63b8ff" stroke="#63b8ff" points="1631.59,-152.19 1623.11,-145.84 1625.78,-156.1 1631.59,-152.19"/>
</a>
</g>
</g>
<!-- Node24 -->
<g id="Node000024" class="node">
<title>Node24</title>
<g id="a_Node000024"><a xlink:title=" ">
<polygon fill="#e0e0e0" stroke="#999999" points="1641.67,-79.5 1492.67,-79.5 1492.67,-60.5 1641.67,-60.5 1641.67,-79.5"/>
<text text-anchor="middle" x="1567.17" y="-67.5" font-family="Helvetica,sans-Serif" font-size="10.00">deal.II/base/vectorization.h</text>
</a>
</g>
</g>
<!-- Node22&#45;&gt;Node24 -->
<g id="edge39_Node000022_Node000024" class="edge">
<title>Node22&#45;&gt;Node24</title>
<g id="a_edge39_Node000022_Node000024"><a xlink:title=" ">
<path fill="none" stroke="#63b8ff" d="M1671.07,-186.95C1682.71,-170.1 1697.75,-141.57 1684.17,-121 1671.45,-101.74 1649.62,-89.87 1628.24,-82.57"/>
<polygon fill="#63b8ff" stroke="#63b8ff" points="1629.07,-79.16 1618.48,-79.52 1626.98,-85.84 1629.07,-79.16"/>
</a>
</g>
</g>
<!-- Node25 -->
<g id="Node000025" class="node">
<title>Node25</title>
<g id="a_Node000025"><a xlink:title=" ">
<polygon fill="#e0e0e0" stroke="#999999" points="1877.17,-145.5 1731.17,-145.5 1731.17,-126.5 1877.17,-126.5 1877.17,-145.5"/>
<text text-anchor="middle" x="1804.17" y="-133.5" font-family="Helvetica,sans-Serif" font-size="10.00">boost/range/algorithm.hpp</text>
</a>
</g>
</g>
<!-- Node22&#45;&gt;Node25 -->
<g id="edge41_Node000022_Node000025" class="edge">
<title>Node22&#45;&gt;Node25</title>
<g id="a_edge41_Node000022_Node000025"><a xlink:title=" ">
<path fill="none" stroke="#63b8ff" d="M1691.77,-186.95C1716.8,-175.83 1751.46,-160.42 1775.65,-149.67"/>
<polygon fill="#63b8ff" stroke="#63b8ff" points="1777.29,-152.78 1785,-145.52 1774.44,-146.38 1777.29,-152.78"/>
</a>
</g>
</g>
<!-- Node26 -->
<g id="Node000026" class="node">
<title>Node26</title>
<g id="a_Node000026"><a xlink:title=" ">
<polygon fill="#e0e0e0" stroke="#999999" points="2020.67,-151 1895.67,-151 1895.67,-121 2020.67,-121 2020.67,-151"/>
<text text-anchor="start" x="1903.67" y="-139" font-family="Helvetica,sans-Serif" font-size="10.00">boost/range/algorithm</text>
<text text-anchor="middle" x="1958.17" y="-128" font-family="Helvetica,sans-Serif" font-size="10.00">_ext.hpp</text>
</a>
</g>
</g>
<!-- Node22&#45;&gt;Node26 -->
<g id="edge42_Node000022_Node000026" class="edge">
<title>Node22&#45;&gt;Node26</title>
<g id="a_edge42_Node000022_Node000026"><a xlink:title=" ">
<path fill="none" stroke="#63b8ff" d="M1709.71,-190.36C1757.7,-180.05 1831.02,-164.31 1885.59,-152.59"/>
<polygon fill="#63b8ff" stroke="#63b8ff" points="1886.51,-155.97 1895.55,-150.45 1885.04,-149.13 1886.51,-155.97"/>
</a>
</g>
</g>
<!-- Node27 -->
<g id="Node000027" class="node">
<title>Node27</title>
<g id="a_Node000027"><a xlink:title=" ">
<polygon fill="#e0e0e0" stroke="#999999" points="2081.17,-145.5 2039.17,-145.5 2039.17,-126.5 2081.17,-126.5 2081.17,-145.5"/>
<text text-anchor="middle" x="2060.17" y="-133.5" font-family="Helvetica,sans-Serif" font-size="10.00">array</text>
</a>
</g>
</g>
<!-- Node22&#45;&gt;Node27 -->
<g id="edge44_Node000022_Node000027" class="edge">
<title>Node22&#45;&gt;Node27</title>
<g id="a_edge44_Node000022_Node000027"><a xlink:title=" ">
<path fill="none" stroke="#63b8ff" d="M1709.93,-199.04C1781.92,-195.13 1918.68,-183.72 2030.17,-151 2031.62,-150.58 2033.08,-150.09 2034.55,-149.56"/>
<polygon fill="#63b8ff" stroke="#63b8ff" points="2036.12,-152.7 2044.01,-145.63 2033.43,-146.23 2036.12,-152.7"/>
</a>
</g>
</g>
<!-- Node28 -->
<g id="Node000028" class="node">
<title>Node28</title>
<g id="a_Node000028"><a xlink:title=" ">
<polygon fill="#e0e0e0" stroke="#999999" points="2172.67,-145.5 2099.67,-145.5 2099.67,-126.5 2172.67,-126.5 2172.67,-145.5"/>
<text text-anchor="middle" x="2136.17" y="-133.5" font-family="Helvetica,sans-Serif" font-size="10.00">string_view</text>
</a>
</g>
</g>
<!-- Node22&#45;&gt;Node28 -->
<g id="edge46_Node000022_Node000028" class="edge">
<title>Node22&#45;&gt;Node28</title>
<g id="a_edge46_Node000022_Node000028"><a xlink:title=" ">
<path fill="none" stroke="#63b8ff" d="M1709.97,-198.12C1790.55,-192.82 1954.24,-179.35 2090.17,-151 2093.81,-150.24 2097.59,-149.32 2101.33,-148.32"/>
<polygon fill="#63b8ff" stroke="#63b8ff" points="2102.42,-151.65 2111.07,-145.53 2100.49,-144.92 2102.42,-151.65"/>
</a>
</g>
</g>
<!-- Node29 -->
<g id="Node000029" class="node">
<title>Node29</title>
<g id="a_Node000029"><a xlink:title=" ">
<polygon fill="#e0e0e0" stroke="#999999" points="2283.67,-145.5 2190.67,-145.5 2190.67,-126.5 2283.67,-126.5 2283.67,-145.5"/>
<text text-anchor="middle" x="2237.17" y="-133.5" font-family="Helvetica,sans-Serif" font-size="10.00">unordered_map</text>
</a>
</g>
</g>
<!-- Node22&#45;&gt;Node29 -->
<g id="edge47_Node000022_Node000029" class="edge">
<title>Node22&#45;&gt;Node29</title>
<g id="a_edge47_Node000022_Node000029"><a xlink:title=" ">
<path fill="none" stroke="#63b8ff" d="M1709.81,-198.79C1802.98,-194.08 2010.19,-180.94 2182.17,-151 2187.01,-150.16 2192.05,-149.11 2197.03,-147.97"/>
<polygon fill="#63b8ff" stroke="#63b8ff" points="2198.19,-151.29 2207.09,-145.54 2196.55,-144.49 2198.19,-151.29"/>
</a>
</g>
</g>
<!-- Node30 -->
<g id="Node000030" class="node">
<title>Node30</title>
<g id="a_Node000030"><a xlink:href="vectorized__operations_8h.html" target="_top" xlink:title=" ">
<polygon fill="white" stroke="#666666" points="1541.67,-151 1404.67,-151 1404.67,-121 1541.67,-121 1541.67,-151"/>
<text text-anchor="start" x="1412.67" y="-139" font-family="Helvetica,sans-Serif" font-size="10.00">prismspf/utilities</text>
<text text-anchor="middle" x="1473.17" y="-128" font-family="Helvetica,sans-Serif" font-size="10.00">/vectorized_operations.h</text>
</a>
</g>
</g>
<!-- Node22&#45;&gt;Node30 -->
<g id="edge48_Node000022_Node000030" class="edge">
<title>Node22&#45;&gt;Node30</title>
<g id="a_edge48_Node000022_Node000030"><a xlink:title=" ">
<path fill="none" stroke="#63b8ff" d="M1619.13,-186.95C1591.12,-177.37 1553.82,-164.6 1523.94,-154.37"/>
<polygon fill="#63b8ff" stroke="#63b8ff" points="1524.7,-150.94 1514.11,-151.01 1522.44,-157.56 1524.7,-150.94"/>
</a>
</g>
</g>
<!-- Node30&#45;&gt;Node4 -->
<g id="edge50_Node000030_Node000004" class="edge">
<title>Node30&#45;&gt;Node4</title>
<g id="a_edge50_Node000030_Node000004"><a xlink:title=" ">
<path fill="none" stroke="#63b8ff" d="M1404.35,-120.98C1314.51,-103.15 1152.21,-72.59 1012.17,-55 827.82,-31.85 608.27,-18.74 503.98,-13.38"/>
<polygon fill="#63b8ff" stroke="#63b8ff" points="504.11,-9.88 493.95,-12.87 503.76,-16.87 504.11,-9.88"/>
</a>
</g>
</g>
<!-- Node30&#45;&gt;Node24 -->
<g id="edge49_Node000030_Node000024" class="edge">
<title>Node30&#45;&gt;Node24</title>
<g id="a_edge49_Node000030_Node000024"><a xlink:title=" ">
<path fill="none" stroke="#63b8ff" d="M1494.03,-120.8C1509.49,-110.27 1530.49,-95.97 1546.02,-85.4"/>
<polygon fill="#63b8ff" stroke="#63b8ff" points="1548.15,-88.18 1554.45,-79.66 1544.22,-82.39 1548.15,-88.18"/>
</a>
</g>
</g>
</g>
</svg>
