<?xml version="1.0" encoding="UTF-8" standalone="no"?>
<!DOCTYPE svg PUBLIC "-//W3C//DTD SVG 1.1//EN"
 "http://www.w3.org/Graphics/SVG/1.1/DTD/svg11.dtd">
<!-- Generated by graphviz version 2.43.0 (0)
 -->
<!-- Title: /home/runner/work/phaseField/phaseField/include/prismspf/solvers/solver_base.h Pages: 1 -->
<svg width="640pt" height="236pt"
 viewBox="0.00 0.00 640.00 236.00" xmlns="http://www.w3.org/2000/svg" xmlns:xlink="http://www.w3.org/1999/xlink">
<g id="graph0" class="graph" transform="scale(1 1) rotate(0) translate(4 232)">
<title>/home/runner/work/phaseField/phaseField/include/prismspf/solvers/solver_base.h</title>
<!-- Node1 -->
<g id="Node000001" class="node">
<title>Node1</title>
<g id="a_Node000001"><a xlink:title=" ">
<polygon fill="#999999" stroke="#666666" points="483,-228 319,-228 319,-187 483,-187 483,-228"/>
<text text-anchor="start" x="327" y="-216" font-family="Helvetica,sans-Serif" font-size="10.00">/home/runner/work/phaseField</text>
<text text-anchor="start" x="327" y="-205" font-family="Helvetica,sans-Serif" font-size="10.00">/phaseField/include/prismspf</text>
<text text-anchor="middle" x="401" y="-194" font-family="Helvetica,sans-Serif" font-size="10.00">/solvers/solver_base.h</text>
</a>
</g>
</g>
<!-- Node2 -->
<g id="Node000002" class="node">
<title>Node2</title>
<g id="a_Node000002"><a xlink:title=" ">
<polygon fill="#e0e0e0" stroke="#999999" points="138,-145.5 0,-145.5 0,-126.5 138,-126.5 138,-145.5"/>
<text text-anchor="middle" x="69" y="-133.5" font-family="Helvetica,sans-Serif" font-size="10.00">deal.II/base/exceptions.h</text>
</a>
</g>
</g>
<!-- Node1&#45;&gt;Node2 -->
<g id="edge1_Node000001_Node000002" class="edge">
<title>Node1&#45;&gt;Node2</title>
<g id="a_edge1_Node000001_Node000002"><a xlink:title=" ">
<path fill="none" stroke="#63b8ff" d="M318.93,-189.32C256.52,-176.25 172.62,-158.69 119.67,-147.61"/>
<polygon fill="#63b8ff" stroke="#63b8ff" points="120.33,-144.17 109.83,-145.55 118.9,-151.02 120.33,-144.17"/>
</a>
</g>
</g>
<!-- Node3 -->
<g id="Node000003" class="node">
<title>Node3</title>
<g id="a_Node000003"><a xlink:title=" ">
<polygon fill="#e0e0e0" stroke="#999999" points="284,-151 156,-151 156,-121 284,-121 284,-151"/>
<text text-anchor="start" x="164" y="-139" font-family="Helvetica,sans-Serif" font-size="10.00">deal.II/numerics/vector</text>
<text text-anchor="middle" x="220" y="-128" font-family="Helvetica,sans-Serif" font-size="10.00">_tools.h</text>
</a>
</g>
</g>
<!-- Node1&#45;&gt;Node3 -->
<g id="edge2_Node000001_Node000003" class="edge">
<title>Node1&#45;&gt;Node3</title>
<g id="a_edge2_Node000001_Node000003"><a xlink:title=" ">
<path fill="none" stroke="#63b8ff" d="M350.1,-186.96C323.68,-176.81 291.64,-164.51 265.97,-154.65"/>
<polygon fill="#63b8ff" stroke="#63b8ff" points="267.06,-151.32 256.47,-151 264.55,-157.86 267.06,-151.32"/>
</a>
</g>
</g>
<!-- Node4 -->
<g id="Node000004" class="node">
<title>Node4</title>
<g id="a_Node000004"><a xlink:href="type__enums_8h.html" target="_top" xlink:title=" ">
<polygon fill="white" stroke="#666666" points="550,-85 442,-85 442,-55 550,-55 550,-85"/>
<text text-anchor="start" x="450" y="-73" font-family="Helvetica,sans-Serif" font-size="10.00">prismspf/core/type</text>
<text text-anchor="middle" x="496" y="-62" font-family="Helvetica,sans-Serif" font-size="10.00">_enums.h</text>
</a>
</g>
</g>
<!-- Node1&#45;&gt;Node4 -->
<g id="edge3_Node000001_Node000004" class="edge">
<title>Node1&#45;&gt;Node4</title>
<g id="a_edge3_Node000001_Node000004"><a xlink:title=" ">
<path fill="none" stroke="#63b8ff" d="M433.55,-186.91C446.8,-177.51 461.26,-165.19 471,-151 482.49,-134.27 488.88,-112.03 492.31,-95.24"/>
<polygon fill="#63b8ff" stroke="#63b8ff" points="495.81,-95.58 494.17,-85.11 488.93,-94.32 495.81,-95.58"/>
</a>
</g>
</g>
<!-- Node5 -->
<g id="Node000005" class="node">
<title>Node5</title>
<g id="a_Node000005"><a xlink:title=" ">
<polygon fill="#e0e0e0" stroke="#999999" points="400.5,-19 299.5,-19 299.5,0 400.5,0 400.5,-19"/>
<text text-anchor="middle" x="350" y="-7" font-family="Helvetica,sans-Serif" font-size="10.00">prismspf/config.h</text>
</a>
</g>
</g>
<!-- Node1&#45;&gt;Node5 -->
<g id="edge11_Node000001_Node000005" class="edge">
<title>Node1&#45;&gt;Node5</title>
<g id="a_edge11_Node000001_Node000005"><a xlink:title=" ">
<path fill="none" stroke="#63b8ff" d="M364.43,-186.91C351.38,-177.86 338.15,-165.8 331,-151 311.43,-110.52 329.46,-56.27 341.4,-28.52"/>
<polygon fill="#63b8ff" stroke="#63b8ff" points="344.65,-29.81 345.58,-19.26 338.28,-26.93 344.65,-29.81"/>
</a>
</g>
</g>
<!-- Node8 -->
<g id="Node000008" class="node">
<title>Node8</title>
<g id="a_Node000008"><a xlink:href="types_8h.html" target="_top" xlink:title=" ">
<polygon fill="white" stroke="#666666" points="462,-145.5 340,-145.5 340,-126.5 462,-126.5 462,-145.5"/>
<text text-anchor="middle" x="401" y="-133.5" font-family="Helvetica,sans-Serif" font-size="10.00">prismspf/core/types.h</text>
</a>
</g>
</g>
<!-- Node1&#45;&gt;Node8 -->
<g id="edge7_Node000001_Node000008" class="edge">
<title>Node1&#45;&gt;Node8</title>
<g id="a_edge7_Node000001_Node000008"><a xlink:title=" ">
<path fill="none" stroke="#63b8ff" d="M401,-186.77C401,-177.08 401,-165.46 401,-155.88"/>
<polygon fill="#63b8ff" stroke="#63b8ff" points="404.5,-155.82 401,-145.82 397.5,-155.82 404.5,-155.82"/>
</a>
</g>
</g>
<!-- Node10 -->
<g id="Node000010" class="node">
<title>Node10</title>
<g id="a_Node000010"><a xlink:title=" ">
<polygon fill="#e0e0e0" stroke="#999999" points="556,-145.5 518,-145.5 518,-126.5 556,-126.5 556,-145.5"/>
<text text-anchor="middle" x="537" y="-133.5" font-family="Helvetica,sans-Serif" font-size="10.00">map</text>
</a>
</g>
</g>
<!-- Node1&#45;&gt;Node10 -->
<g id="edge12_Node000001_Node000010" class="edge">
<title>Node1&#45;&gt;Node10</title>
<g id="a_edge12_Node000001_Node000010"><a xlink:title=" ">
<path fill="none" stroke="#63b8ff" d="M439.25,-186.96C462.31,-175.17 491.05,-160.48 511.39,-150.09"/>
<polygon fill="#63b8ff" stroke="#63b8ff" points="513.05,-153.17 520.36,-145.5 509.86,-146.94 513.05,-153.17"/>
</a>
</g>
</g>
<!-- Node11 -->
<g id="Node000011" class="node">
<title>Node11</title>
<g id="a_Node000011"><a xlink:title=" ">
<polygon fill="#e0e0e0" stroke="#999999" points="632,-145.5 574,-145.5 574,-126.5 632,-126.5 632,-145.5"/>
<text text-anchor="middle" x="603" y="-133.5" font-family="Helvetica,sans-Serif" font-size="10.00">memory</text>
</a>
</g>
</g>
<!-- Node1&#45;&gt;Node11 -->
<g id="edge13_Node000001_Node000011" class="edge">
<title>Node1&#45;&gt;Node11</title>
<g id="a_edge13_Node000001_Node000011"><a xlink:title=" ">
<path fill="none" stroke="#63b8ff" d="M459.96,-186.97C491.24,-176.5 530.28,-163.27 565,-151 566.84,-150.35 568.73,-149.68 570.63,-148.99"/>
<polygon fill="#63b8ff" stroke="#63b8ff" points="571.93,-152.24 580.13,-145.54 569.53,-145.67 571.93,-152.24"/>
</a>
</g>
</g>
<!-- Node4&#45;&gt;Node5 -->
<g id="edge4_Node000004_Node000005" class="edge">
<title>Node4&#45;&gt;Node5</title>
<g id="a_edge4_Node000004_Node000005"><a xlink:title=" ">
<path fill="none" stroke="#63b8ff" d="M461.03,-54.99C436.67,-45.23 404.47,-32.33 381.03,-22.93"/>
<polygon fill="#63b8ff" stroke="#63b8ff" points="382.15,-19.61 371.56,-19.14 379.54,-26.11 382.15,-19.61"/>
</a>
</g>
</g>
<!-- Node6 -->
<g id="Node000006" class="node">
<title>Node6</title>
<g id="a_Node000006"><a xlink:title=" ">
<polygon fill="#e0e0e0" stroke="#999999" points="495,-19 445,-19 445,0 495,0 495,-19"/>
<text text-anchor="middle" x="470" y="-7" font-family="Helvetica,sans-Serif" font-size="10.00">cstdint</text>
</a>
</g>
</g>
<!-- Node4&#45;&gt;Node6 -->
<g id="edge5_Node000004_Node000006" class="edge">
<title>Node4&#45;&gt;Node6</title>
<g id="a_edge5_Node000004_Node000006"><a xlink:title=" ">
<path fill="none" stroke="#63b8ff" d="M489.71,-54.84C486.2,-46.95 481.8,-37.05 478.05,-28.61"/>
<polygon fill="#63b8ff" stroke="#63b8ff" points="481.16,-26.98 473.9,-19.27 474.76,-29.83 481.16,-26.98"/>
</a>
</g>
</g>
<!-- Node7 -->
<g id="Node000007" class="node">
<title>Node7</title>
<g id="a_Node000007"><a xlink:title=" ">
<polygon fill="#e0e0e0" stroke="#999999" points="557,-19 513,-19 513,0 557,0 557,-19"/>
<text text-anchor="middle" x="535" y="-7" font-family="Helvetica,sans-Serif" font-size="10.00">string</text>
</a>
</g>
</g>
<!-- Node4&#45;&gt;Node7 -->
<g id="edge6_Node000004_Node000007" class="edge">
<title>Node4&#45;&gt;Node7</title>
<g id="a_edge6_Node000004_Node000007"><a xlink:title=" ">
<path fill="none" stroke="#63b8ff" d="M505.44,-54.84C510.87,-46.69 517.73,-36.4 523.48,-27.78"/>
<polygon fill="#63b8ff" stroke="#63b8ff" points="526.52,-29.53 529.16,-19.27 520.7,-25.65 526.52,-29.53"/>
</a>
</g>
</g>
<!-- Node8&#45;&gt;Node4 -->
<g id="edge8_Node000008_Node000004" class="edge">
<title>Node8&#45;&gt;Node4</title>
<g id="a_edge8_Node000008_Node000004"><a xlink:title=" ">
<path fill="none" stroke="#63b8ff" d="M413.81,-126.37C427.3,-117.28 449.01,-102.66 466.72,-90.72"/>
<polygon fill="#63b8ff" stroke="#63b8ff" points="468.71,-93.61 475.05,-85.12 464.8,-87.8 468.71,-93.61"/>
</a>
</g>
</g>
<!-- Node8&#45;&gt;Node5 -->
<g id="edge9_Node000008_Node000005" class="edge">
<title>Node8&#45;&gt;Node5</title>
<g id="a_edge9_Node000008_Node000005"><a xlink:title=" ">
<path fill="none" stroke="#63b8ff" d="M394.45,-126.22C387.51,-116.57 376.66,-100.37 370,-85 362.04,-66.61 356.55,-44.25 353.36,-28.86"/>
<polygon fill="#63b8ff" stroke="#63b8ff" points="356.8,-28.18 351.45,-19.04 349.93,-29.52 356.8,-28.18"/>
</a>
</g>
</g>
<!-- Node9 -->
<g id="Node000009" class="node">
<title>Node9</title>
<g id="a_Node000009"><a xlink:title=" ">
<polygon fill="#e0e0e0" stroke="#999999" points="423.5,-79.5 378.5,-79.5 378.5,-60.5 423.5,-60.5 423.5,-79.5"/>
<text text-anchor="middle" x="401" y="-67.5" font-family="Helvetica,sans-Serif" font-size="10.00">utility</text>
</a>
</g>
</g>
<!-- Node8&#45;&gt;Node9 -->
<g id="edge10_Node000008_Node000009" class="edge">
<title>Node8&#45;&gt;Node9</title>
<g id="a_edge10_Node000008_Node000009"><a xlink:title=" ">
<path fill="none" stroke="#63b8ff" d="M401,-126.37C401,-117.16 401,-102.29 401,-90.27"/>
<polygon fill="#63b8ff" stroke="#63b8ff" points="404.5,-89.91 401,-79.91 397.5,-89.91 404.5,-89.91"/>
</a>
</g>
</g>
</g>
</svg>
