<?xml version="1.0" encoding="UTF-8" standalone="no"?>
<!DOCTYPE svg PUBLIC "-//W3C//DTD SVG 1.1//EN"
 "http://www.w3.org/Graphics/SVG/1.1/DTD/svg11.dtd">
<!-- Generated by graphviz version 2.43.0 (0)
 -->
<!-- Title: /home/runner/work/phaseField/phaseField/include/prismspf/solvers/solver_context.h Pages: 1 -->
<svg width="2313pt" height="280pt"
 viewBox="0.00 0.00 2313.00 280.00" xmlns="http://www.w3.org/2000/svg" xmlns:xlink="http://www.w3.org/1999/xlink">
<g id="graph0" class="graph" transform="scale(1 1) rotate(0) translate(4 276)">
<title>/home/runner/work/phaseField/phaseField/include/prismspf/solvers/solver_context.h</title>
<!-- Node1 -->
<g id="Node000001" class="node">
<title>Node1</title>
<g id="a_Node000001"><a xlink:title=" ">
<polygon fill="#999999" stroke="#666666" points="1300,-272 1136,-272 1136,-231 1300,-231 1300,-272"/>
<text text-anchor="start" x="1144" y="-260" font-family="Helvetica,sans-Serif" font-size="10.00">/home/runner/work/phaseField</text>
<text text-anchor="start" x="1144" y="-249" font-family="Helvetica,sans-Serif" font-size="10.00">/phaseField/include/prismspf</text>
<text text-anchor="middle" x="1218" y="-238" font-family="Helvetica,sans-Serif" font-size="10.00">/solvers/solver_context.h</text>
</a>
</g>
</g>
<!-- Node2 -->
<g id="Node000002" class="node">
<title>Node2</title>
<g id="a_Node000002"><a xlink:href="nucleation_8h.html" target="_top" xlink:title=" ">
<polygon fill="white" stroke="#666666" points="220,-118 56,-118 56,-77 220,-77 220,-118"/>
<text text-anchor="start" x="64" y="-106" font-family="Helvetica,sans-Serif" font-size="10.00">/home/runner/work/phaseField</text>
<text text-anchor="start" x="64" y="-95" font-family="Helvetica,sans-Serif" font-size="10.00">/phaseField/include/prismspf</text>
<text text-anchor="middle" x="138" y="-84" font-family="Helvetica,sans-Serif" font-size="10.00">/nucleation/nucleation.h</text>
</a>
</g>
</g>
<!-- Node1&#45;&gt;Node2 -->
<g id="edge1_Node000001_Node000002" class="edge">
<title>Node1&#45;&gt;Node2</title>
<g id="a_edge1_Node000001_Node000002"><a xlink:title=" ">
<path fill="none" stroke="#63b8ff" d="M1125.66,-250.9C922.3,-250.83 441.66,-245.18 288,-195 237.96,-178.66 188.23,-141.47 160.47,-118.32"/>
<polygon fill="#63b8ff" stroke="#63b8ff" points="1125.72,-254.4 1135.72,-250.9 1125.72,-247.4 1125.72,-254.4"/>
</a>
</g>
</g>
<!-- Node3 -->
<g id="Node000003" class="node">
<title>Node3</title>
<g id="a_Node000003"><a xlink:href="pde__problem_8cc.html" target="_top" xlink:title=" ">
<polygon fill="white" stroke="#666666" points="164,-41 0,-41 0,0 164,0 164,-41"/>
<text text-anchor="start" x="8" y="-29" font-family="Helvetica,sans-Serif" font-size="10.00">/home/runner/work/phaseField</text>
<text text-anchor="start" x="8" y="-18" font-family="Helvetica,sans-Serif" font-size="10.00">/phaseField/src/core/pde</text>
<text text-anchor="middle" x="82" y="-7" font-family="Helvetica,sans-Serif" font-size="10.00">_problem.cc</text>
</a>
</g>
</g>
<!-- Node1&#45;&gt;Node3 -->
<g id="edge25_Node000001_Node000003" class="edge">
<title>Node1&#45;&gt;Node3</title>
<g id="a_edge25_Node000001_Node000003"><a xlink:title=" ">
<path fill="none" stroke="#63b8ff" d="M1125.68,-251.18C993.71,-250.32 744.3,-241.81 538,-195 394.64,-162.47 366.43,-129.18 229,-77 197.5,-65.04 162.19,-51.7 134.06,-41.1"/>
<polygon fill="#63b8ff" stroke="#63b8ff" points="1125.73,-254.68 1135.75,-251.24 1125.77,-247.68 1125.73,-254.68"/>
</a>
</g>
</g>
<!-- Node4 -->
<g id="Node000004" class="node">
<title>Node4</title>
<g id="a_Node000004"><a xlink:href="linear__solver__base_8h.html" target="_top" xlink:title=" ">
<polygon fill="white" stroke="#666666" points="968,-195 804,-195 804,-154 968,-154 968,-195"/>
<text text-anchor="start" x="812" y="-183" font-family="Helvetica,sans-Serif" font-size="10.00">/home/runner/work/phaseField</text>
<text text-anchor="start" x="812" y="-172" font-family="Helvetica,sans-Serif" font-size="10.00">/phaseField/include/prismspf</text>
<text text-anchor="middle" x="886" y="-161" font-family="Helvetica,sans-Serif" font-size="10.00">/solvers/linear_solver_base.h</text>
</a>
</g>
</g>
<!-- Node1&#45;&gt;Node4 -->
<g id="edge3_Node000001_Node000004" class="edge">
<title>Node1&#45;&gt;Node4</title>
<g id="a_edge3_Node000001_Node000004"><a xlink:title=" ">
<path fill="none" stroke="#63b8ff" d="M1125.88,-229.69C1076.48,-218.53 1016.1,-204.89 968.27,-194.09"/>
<polygon fill="#63b8ff" stroke="#63b8ff" points="1125.41,-233.17 1135.93,-231.96 1126.95,-226.34 1125.41,-233.17"/>
</a>
</g>
</g>
<!-- Node6 -->
<g id="Node000006" class="node">
<title>Node6</title>
<g id="a_Node000006"><a xlink:href="solver__handler_8cc.html" target="_top" xlink:title=" ">
<polygon fill="white" stroke="#666666" points="528,-41 364,-41 364,0 528,0 528,-41"/>
<text text-anchor="start" x="372" y="-29" font-family="Helvetica,sans-Serif" font-size="10.00">/home/runner/work/phaseField</text>
<text text-anchor="start" x="372" y="-18" font-family="Helvetica,sans-Serif" font-size="10.00">/phaseField/src/core/solver</text>
<text text-anchor="middle" x="446" y="-7" font-family="Helvetica,sans-Serif" font-size="10.00">_handler.cc</text>
</a>
</g>
</g>
<!-- Node1&#45;&gt;Node6 -->
<g id="edge26_Node000001_Node000006" class="edge">
<title>Node1&#45;&gt;Node6</title>
<g id="a_edge26_Node000001_Node000006"><a xlink:title=" ">
<path fill="none" stroke="#63b8ff" d="M1125.6,-250.69C975.19,-249.62 685.15,-241.36 595,-195 526.68,-159.86 476.51,-78.72 456.09,-41.19"/>
<polygon fill="#63b8ff" stroke="#63b8ff" points="1125.72,-254.19 1135.74,-250.76 1125.76,-247.19 1125.72,-254.19"/>
</a>
</g>
</g>
<!-- Node7 -->
<g id="Node000007" class="node">
<title>Node7</title>
<g id="a_Node000007"><a xlink:href="linear__solver__gmg_8cc.html" target="_top" xlink:title=" ">
<polygon fill="white" stroke="#666666" points="1710,-41 1546,-41 1546,0 1710,0 1710,-41"/>
<text text-anchor="start" x="1554" y="-29" font-family="Helvetica,sans-Serif" font-size="10.00">/home/runner/work/phaseField</text>
<text text-anchor="start" x="1554" y="-18" font-family="Helvetica,sans-Serif" font-size="10.00">/phaseField/src/solvers/linear</text>
<text text-anchor="middle" x="1628" y="-7" font-family="Helvetica,sans-Serif" font-size="10.00">_solver_gmg.cc</text>
</a>
</g>
</g>
<!-- Node1&#45;&gt;Node7 -->
<g id="edge32_Node000001_Node000007" class="edge">
<title>Node1&#45;&gt;Node7</title>
<g id="a_edge32_Node000001_Node000007"><a xlink:title=" ">
<path fill="none" stroke="#63b8ff" d="M1244.99,-223.83C1267.07,-202.99 1299.8,-174.26 1332,-154 1410.63,-104.52 1510.86,-63.78 1572.19,-41.07"/>
<polygon fill="#63b8ff" stroke="#63b8ff" points="1242.46,-221.41 1237.64,-230.84 1247.29,-226.47 1242.46,-221.41"/>
</a>
</g>
</g>
<!-- Node8 -->
<g id="Node000008" class="node">
<title>Node8</title>
<g id="a_Node000008"><a xlink:href="sequential__auxiliary__solver_8cc.html" target="_top" xlink:title=" ">
<polygon fill="white" stroke="#666666" points="728,-41 546,-41 546,0 728,0 728,-41"/>
<text text-anchor="start" x="554" y="-29" font-family="Helvetica,sans-Serif" font-size="10.00">/home/runner/work/phaseField</text>
<text text-anchor="start" x="554" y="-18" font-family="Helvetica,sans-Serif" font-size="10.00">/phaseField/src/solvers/sequential</text>
<text text-anchor="middle" x="637" y="-7" font-family="Helvetica,sans-Serif" font-size="10.00">_auxiliary_solver.cc</text>
</a>
</g>
</g>
<!-- Node1&#45;&gt;Node8 -->
<g id="edge33_Node000001_Node000008" class="edge">
<title>Node1&#45;&gt;Node8</title>
<g id="a_edge33_Node000001_Node000008"><a xlink:title=" ">
<path fill="none" stroke="#63b8ff" d="M1125.78,-246.93C958.73,-238.23 617.1,-209.42 550,-118 539.22,-103.31 541.24,-92.98 550,-77 558.44,-61.6 573.17,-49.86 588.13,-41.23"/>
<polygon fill="#63b8ff" stroke="#63b8ff" points="1125.63,-250.43 1135.79,-247.44 1125.98,-243.44 1125.63,-250.43"/>
</a>
</g>
</g>
<!-- Node9 -->
<g id="Node000009" class="node">
<title>Node9</title>
<g id="a_Node000009"><a xlink:href="sequential__co__nonlinear__solver_8cc.html" target="_top" xlink:title=" ">
<polygon fill="white" stroke="#666666" points="928,-41 746,-41 746,0 928,0 928,-41"/>
<text text-anchor="start" x="754" y="-29" font-family="Helvetica,sans-Serif" font-size="10.00">/home/runner/work/phaseField</text>
<text text-anchor="start" x="754" y="-18" font-family="Helvetica,sans-Serif" font-size="10.00">/phaseField/src/solvers/sequential</text>
<text text-anchor="middle" x="837" y="-7" font-family="Helvetica,sans-Serif" font-size="10.00">_co_nonlinear_solver.cc</text>
</a>
</g>
</g>
<!-- Node1&#45;&gt;Node9 -->
<g id="edge34_Node000001_Node000009" class="edge">
<title>Node1&#45;&gt;Node9</title>
<g id="a_edge34_Node000001_Node000009"><a xlink:title=" ">
<path fill="none" stroke="#63b8ff" d="M1208.92,-221.26C1194.55,-176.87 1165.75,-95.66 1142,-77 1069.26,-19.85 1027.96,-57.85 937,-41 934.04,-40.45 931.04,-39.89 928,-39.32"/>
<polygon fill="#63b8ff" stroke="#63b8ff" points="1205.63,-222.46 1212.01,-230.91 1212.3,-220.32 1205.63,-222.46"/>
</a>
</g>
</g>
<!-- Node10 -->
<g id="Node000010" class="node">
<title>Node10</title>
<g id="a_Node000010"><a xlink:href="sequential__linear__solver_8cc.html" target="_top" xlink:title=" ">
<polygon fill="white" stroke="#666666" points="1128,-41 946,-41 946,0 1128,0 1128,-41"/>
<text text-anchor="start" x="954" y="-29" font-family="Helvetica,sans-Serif" font-size="10.00">/home/runner/work/phaseField</text>
<text text-anchor="start" x="954" y="-18" font-family="Helvetica,sans-Serif" font-size="10.00">/phaseField/src/solvers/sequential</text>
<text text-anchor="middle" x="1037" y="-7" font-family="Helvetica,sans-Serif" font-size="10.00">_linear_solver.cc</text>
</a>
</g>
</g>
<!-- Node1&#45;&gt;Node10 -->
<g id="edge35_Node000001_Node000010" class="edge">
<title>Node1&#45;&gt;Node10</title>
<g id="a_edge35_Node000001_Node000010"><a xlink:title=" ">
<path fill="none" stroke="#63b8ff" d="M1218.49,-220.64C1217.51,-182.79 1210.3,-117.6 1175,-77 1160.94,-60.83 1141.49,-49.3 1121.62,-41.12"/>
<polygon fill="#63b8ff" stroke="#63b8ff" points="1214.99,-221.04 1218.61,-231 1221.99,-220.96 1214.99,-221.04"/>
</a>
</g>
</g>
<!-- Node11 -->
<g id="Node000011" class="node">
<title>Node11</title>
<g id="a_Node000011"><a xlink:href="sequential__self__nonlinear__solver_8cc.html" target="_top" xlink:title=" ">
<polygon fill="white" stroke="#666666" points="1328,-41 1146,-41 1146,0 1328,0 1328,-41"/>
<text text-anchor="start" x="1154" y="-29" font-family="Helvetica,sans-Serif" font-size="10.00">/home/runner/work/phaseField</text>
<text text-anchor="start" x="1154" y="-18" font-family="Helvetica,sans-Serif" font-size="10.00">/phaseField/src/solvers/sequential</text>
<text text-anchor="middle" x="1237" y="-7" font-family="Helvetica,sans-Serif" font-size="10.00">_self_nonlinear_solver.cc</text>
</a>
</g>
</g>
<!-- Node1&#45;&gt;Node11 -->
<g id="edge36_Node000001_Node000011" class="edge">
<title>Node1&#45;&gt;Node11</title>
<g id="a_edge36_Node000001_Node000011"><a xlink:title=" ">
<path fill="none" stroke="#63b8ff" d="M1220.47,-220.73C1224.41,-173.23 1232.02,-81.57 1235.36,-41.3"/>
<polygon fill="#63b8ff" stroke="#63b8ff" points="1216.96,-220.72 1219.62,-230.98 1223.93,-221.3 1216.96,-220.72"/>
</a>
</g>
</g>
<!-- Node12 -->
<g id="Node000012" class="node">
<title>Node12</title>
<g id="a_Node000012"><a xlink:href="sequential__solver_8cc.html" target="_top" xlink:title=" ">
<polygon fill="white" stroke="#666666" points="1528,-41 1346,-41 1346,0 1528,0 1528,-41"/>
<text text-anchor="start" x="1354" y="-29" font-family="Helvetica,sans-Serif" font-size="10.00">/home/runner/work/phaseField</text>
<text text-anchor="start" x="1354" y="-18" font-family="Helvetica,sans-Serif" font-size="10.00">/phaseField/src/solvers/sequential</text>
<text text-anchor="middle" x="1437" y="-7" font-family="Helvetica,sans-Serif" font-size="10.00">_solver.cc</text>
</a>
</g>
</g>
<!-- Node1&#45;&gt;Node12 -->
<g id="edge37_Node000001_Node000012" class="edge">
<title>Node1&#45;&gt;Node12</title>
<g id="a_edge37_Node000001_Node000012"><a xlink:title=" ">
<path fill="none" stroke="#63b8ff" d="M1230.11,-221.6C1249.81,-175.07 1287.73,-87.67 1299,-77 1315.87,-61.02 1337.94,-49.42 1359.46,-41.09"/>
<polygon fill="#63b8ff" stroke="#63b8ff" points="1226.86,-220.29 1226.2,-230.87 1233.31,-223.01 1226.86,-220.29"/>
</a>
</g>
</g>
<!-- Node15 -->
<g id="Node000015" class="node">
<title>Node15</title>
<g id="a_Node000015"><a xlink:href="linear__solver__base_8cc.html" target="_top" xlink:title=" ">
<polygon fill="white" stroke="#666666" points="1133,-118 969,-118 969,-77 1133,-77 1133,-118"/>
<text text-anchor="start" x="977" y="-106" font-family="Helvetica,sans-Serif" font-size="10.00">/home/runner/work/phaseField</text>
<text text-anchor="start" x="977" y="-95" font-family="Helvetica,sans-Serif" font-size="10.00">/phaseField/src/solvers/linear</text>
<text text-anchor="middle" x="1051" y="-84" font-family="Helvetica,sans-Serif" font-size="10.00">_solver_base.cc</text>
</a>
</g>
</g>
<!-- Node1&#45;&gt;Node15 -->
<g id="edge31_Node000001_Node000015" class="edge">
<title>Node1&#45;&gt;Node15</title>
<g id="a_edge31_Node000001_Node000015"><a xlink:title=" ">
<path fill="none" stroke="#63b8ff" d="M1183.13,-224.62C1171.39,-215.56 1158.39,-205.11 1147,-195 1118.54,-169.75 1087.91,-138.09 1069.09,-118.07"/>
<polygon fill="#63b8ff" stroke="#63b8ff" points="1181.34,-227.66 1191.4,-230.96 1185.59,-222.1 1181.34,-227.66"/>
</a>
</g>
</g>
<!-- Node16 -->
<g id="Node000016" class="node">
<title>Node16</title>
<g id="a_Node000016"><a xlink:href="concurrent__constant__solver_8cc.html" target="_top" xlink:title=" ">
<polygon fill="white" stroke="#666666" points="1523,-195 1341,-195 1341,-154 1523,-154 1523,-195"/>
<text text-anchor="start" x="1349" y="-183" font-family="Helvetica,sans-Serif" font-size="10.00">/home/runner/work/phaseField</text>
<text text-anchor="start" x="1349" y="-172" font-family="Helvetica,sans-Serif" font-size="10.00">/phaseField/src/solvers/concurrent</text>
<text text-anchor="middle" x="1432" y="-161" font-family="Helvetica,sans-Serif" font-size="10.00">_constant_solver.cc</text>
</a>
</g>
</g>
<!-- Node1&#45;&gt;Node16 -->
<g id="edge27_Node000001_Node000016" class="edge">
<title>Node1&#45;&gt;Node16</title>
<g id="a_edge27_Node000001_Node000016"><a xlink:title=" ">
<path fill="none" stroke="#63b8ff" d="M1283.13,-227.67C1312.87,-217.25 1347.73,-205.03 1376.24,-195.04"/>
<polygon fill="#63b8ff" stroke="#63b8ff" points="1281.95,-224.38 1273.67,-230.99 1284.26,-230.99 1281.95,-224.38"/>
</a>
</g>
</g>
<!-- Node17 -->
<g id="Node000017" class="node">
<title>Node17</title>
<g id="a_Node000017"><a xlink:href="concurrent__explicit__postprocess__solver_8cc.html" target="_top" xlink:title=" ">
<polygon fill="white" stroke="#666666" points="1723,-195 1541,-195 1541,-154 1723,-154 1723,-195"/>
<text text-anchor="start" x="1549" y="-183" font-family="Helvetica,sans-Serif" font-size="10.00">/home/runner/work/phaseField</text>
<text text-anchor="start" x="1549" y="-172" font-family="Helvetica,sans-Serif" font-size="10.00">/phaseField/src/solvers/concurrent</text>
<text text-anchor="middle" x="1632" y="-161" font-family="Helvetica,sans-Serif" font-size="10.00">_explicit_postprocess_solver.cc</text>
</a>
</g>
</g>
<!-- Node1&#45;&gt;Node17 -->
<g id="edge28_Node000001_Node000017" class="edge">
<title>Node1&#45;&gt;Node17</title>
<g id="a_edge28_Node000001_Node000017"><a xlink:title=" ">
<path fill="none" stroke="#63b8ff" d="M1309.91,-234.69C1372.55,-223.81 1457.35,-208.88 1532,-195 1534.96,-194.45 1537.96,-193.89 1540.99,-193.32"/>
<polygon fill="#63b8ff" stroke="#63b8ff" points="1309.31,-231.25 1300.05,-236.4 1310.5,-238.14 1309.31,-231.25"/>
</a>
</g>
</g>
<!-- Node18 -->
<g id="Node000018" class="node">
<title>Node18</title>
<g id="a_Node000018"><a xlink:href="concurrent__explicit__solver_8cc.html" target="_top" xlink:title=" ">
<polygon fill="white" stroke="#666666" points="1923,-195 1741,-195 1741,-154 1923,-154 1923,-195"/>
<text text-anchor="start" x="1749" y="-183" font-family="Helvetica,sans-Serif" font-size="10.00">/home/runner/work/phaseField</text>
<text text-anchor="start" x="1749" y="-172" font-family="Helvetica,sans-Serif" font-size="10.00">/phaseField/src/solvers/concurrent</text>
<text text-anchor="middle" x="1832" y="-161" font-family="Helvetica,sans-Serif" font-size="10.00">_explicit_solver.cc</text>
</a>
</g>
</g>
<!-- Node1&#45;&gt;Node18 -->
<g id="edge29_Node000001_Node000018" class="edge">
<title>Node1&#45;&gt;Node18</title>
<g id="a_edge29_Node000001_Node000018"><a xlink:title=" ">
<path fill="none" stroke="#63b8ff" d="M1310.25,-242.92C1413.36,-233.9 1585.13,-217.21 1732,-195 1734.89,-194.56 1737.81,-194.1 1740.77,-193.62"/>
<polygon fill="#63b8ff" stroke="#63b8ff" points="1309.84,-239.44 1300.18,-243.8 1310.44,-246.42 1309.84,-239.44"/>
</a>
</g>
</g>
<!-- Node19 -->
<g id="Node000019" class="node">
<title>Node19</title>
<g id="a_Node000019"><a xlink:href="concurrent__solver_8cc.html" target="_top" xlink:title=" ">
<polygon fill="white" stroke="#666666" points="2123,-195 1941,-195 1941,-154 2123,-154 2123,-195"/>
<text text-anchor="start" x="1949" y="-183" font-family="Helvetica,sans-Serif" font-size="10.00">/home/runner/work/phaseField</text>
<text text-anchor="start" x="1949" y="-172" font-family="Helvetica,sans-Serif" font-size="10.00">/phaseField/src/solvers/concurrent</text>
<text text-anchor="middle" x="2032" y="-161" font-family="Helvetica,sans-Serif" font-size="10.00">_solver.cc</text>
</a>
</g>
</g>
<!-- Node1&#45;&gt;Node19 -->
<g id="edge30_Node000001_Node000019" class="edge">
<title>Node1&#45;&gt;Node19</title>
<g id="a_edge30_Node000001_Node000019"><a xlink:title=" ">
<path fill="none" stroke="#63b8ff" d="M1310.24,-246.72C1446.64,-240.37 1709.95,-225.18 1932,-195 1934.89,-194.61 1937.83,-194.18 1940.79,-193.74"/>
<polygon fill="#63b8ff" stroke="#63b8ff" points="1310.07,-243.23 1300.24,-247.18 1310.39,-250.22 1310.07,-243.23"/>
</a>
</g>
</g>
<!-- Node20 -->
<g id="Node000020" class="node">
<title>Node20</title>
<g id="a_Node000020"><a xlink:href="solver__base_8cc.html" target="_top" xlink:title=" ">
<polygon fill="white" stroke="#666666" points="2305,-195 2141,-195 2141,-154 2305,-154 2305,-195"/>
<text text-anchor="start" x="2149" y="-183" font-family="Helvetica,sans-Serif" font-size="10.00">/home/runner/work/phaseField</text>
<text text-anchor="start" x="2149" y="-172" font-family="Helvetica,sans-Serif" font-size="10.00">/phaseField/src/solvers/solver</text>
<text text-anchor="middle" x="2223" y="-161" font-family="Helvetica,sans-Serif" font-size="10.00">_base.cc</text>
</a>
</g>
</g>
<!-- Node1&#45;&gt;Node20 -->
<g id="edge38_Node000001_Node000020" class="edge">
<title>Node1&#45;&gt;Node20</title>
<g id="a_edge38_Node000001_Node000020"><a xlink:title=" ">
<path fill="none" stroke="#63b8ff" d="M1310.16,-249.48C1475.53,-246.63 1833.28,-235.84 2132,-195 2134.88,-194.61 2137.81,-194.17 2140.76,-193.7"/>
<polygon fill="#63b8ff" stroke="#63b8ff" points="1309.97,-245.98 1300.03,-249.65 1310.08,-252.98 1309.97,-245.98"/>
</a>
</g>
</g>
<!-- Node2&#45;&gt;Node3 -->
<g id="edge2_Node000002_Node000003" class="edge">
<title>Node2&#45;&gt;Node3</title>
<g id="a_edge2_Node000002_Node000003"><a xlink:title=" ">
<path fill="none" stroke="#63b8ff" d="M117.22,-68.67C110.37,-59.5 102.9,-49.5 96.62,-41.07"/>
<polygon fill="#63b8ff" stroke="#63b8ff" points="114.5,-70.88 123.29,-76.79 120.11,-66.69 114.5,-70.88"/>
</a>
</g>
</g>
<!-- Node5 -->
<g id="Node000005" class="node">
<title>Node5</title>
<g id="a_Node000005"><a xlink:href="linear__solver__gmg_8h.html" target="_top" xlink:title=" ">
<polygon fill="white" stroke="#666666" points="913,-118 749,-118 749,-77 913,-77 913,-118"/>
<text text-anchor="start" x="757" y="-106" font-family="Helvetica,sans-Serif" font-size="10.00">/home/runner/work/phaseField</text>
<text text-anchor="start" x="757" y="-95" font-family="Helvetica,sans-Serif" font-size="10.00">/phaseField/include/prismspf</text>
<text text-anchor="middle" x="831" y="-84" font-family="Helvetica,sans-Serif" font-size="10.00">/solvers/linear_solver_gmg.h</text>
</a>
</g>
</g>
<!-- Node4&#45;&gt;Node5 -->
<g id="edge4_Node000004_Node000005" class="edge">
<title>Node4&#45;&gt;Node5</title>
<g id="a_edge4_Node000004_Node000005"><a xlink:title=" ">
<path fill="none" stroke="#63b8ff" d="M865.59,-145.67C858.87,-136.5 851.53,-126.5 845.35,-118.07"/>
<polygon fill="#63b8ff" stroke="#63b8ff" points="862.81,-147.8 871.55,-153.79 868.46,-143.66 862.81,-147.8"/>
</a>
</g>
</g>
<!-- Node4&#45;&gt;Node7 -->
<g id="edge23_Node000004_Node000007" class="edge">
<title>Node4&#45;&gt;Node7</title>
<g id="a_edge23_Node000004_Node000007"><a xlink:title=" ">
<path fill="none" stroke="#63b8ff" d="M903.94,-145.08C920.72,-119.51 945.33,-84.81 960,-77 1073.39,-16.6 1409.73,-58.51 1537,-41 1539.88,-40.6 1542.81,-40.17 1545.76,-39.7"/>
<polygon fill="#63b8ff" stroke="#63b8ff" points="900.86,-143.38 898.36,-153.68 906.74,-147.19 900.86,-143.38"/>
</a>
</g>
</g>
<!-- Node13 -->
<g id="Node000013" class="node">
<title>Node13</title>
<g id="a_Node000013"><a xlink:href="linear__solver__identity_8h.html" target="_top" xlink:title=" ">
<polygon fill="white" stroke="#666666" points="730.5,-118 559.5,-118 559.5,-77 730.5,-77 730.5,-118"/>
<text text-anchor="start" x="567.5" y="-106" font-family="Helvetica,sans-Serif" font-size="10.00">/home/runner/work/phaseField</text>
<text text-anchor="start" x="567.5" y="-95" font-family="Helvetica,sans-Serif" font-size="10.00">/phaseField/include/prismspf</text>
<text text-anchor="middle" x="645" y="-84" font-family="Helvetica,sans-Serif" font-size="10.00">/solvers/linear_solver_identity.h</text>
</a>
</g>
</g>
<!-- Node4&#45;&gt;Node13 -->
<g id="edge13_Node000004_Node000013" class="edge">
<title>Node4&#45;&gt;Node13</title>
<g id="a_edge13_Node000004_Node000013"><a xlink:title=" ">
<path fill="none" stroke="#63b8ff" d="M813.52,-150.94C779.84,-140.46 740.18,-128.12 707.8,-118.04"/>
<polygon fill="#63b8ff" stroke="#63b8ff" points="812.72,-154.36 823.31,-153.99 814.8,-147.68 812.72,-154.36"/>
</a>
</g>
</g>
<!-- Node14 -->
<g id="Node000014" class="node">
<title>Node14</title>
<g id="a_Node000014"><a xlink:href="linear__solver__identity_8cc.html" target="_top" xlink:title=" ">
<polygon fill="white" stroke="#666666" points="346,-41 182,-41 182,0 346,0 346,-41"/>
<text text-anchor="start" x="190" y="-29" font-family="Helvetica,sans-Serif" font-size="10.00">/home/runner/work/phaseField</text>
<text text-anchor="start" x="190" y="-18" font-family="Helvetica,sans-Serif" font-size="10.00">/phaseField/src/solvers/linear</text>
<text text-anchor="middle" x="264" y="-7" font-family="Helvetica,sans-Serif" font-size="10.00">_solver_identity.cc</text>
</a>
</g>
</g>
<!-- Node4&#45;&gt;Node14 -->
<g id="edge24_Node000004_Node000014" class="edge">
<title>Node4&#45;&gt;Node14</title>
<g id="a_edge24_Node000004_Node000014"><a xlink:title=" ">
<path fill="none" stroke="#63b8ff" d="M793.52,-162.32C725.56,-153.12 631.3,-138.29 550,-118 465.6,-96.94 370.4,-62.61 313.9,-41.09"/>
<polygon fill="#63b8ff" stroke="#63b8ff" points="793.39,-165.84 803.77,-163.7 794.32,-158.9 793.39,-165.84"/>
</a>
</g>
</g>
<!-- Node4&#45;&gt;Node15 -->
<g id="edge22_Node000004_Node000015" class="edge">
<title>Node4&#45;&gt;Node15</title>
<g id="a_edge22_Node000004_Node000015"><a xlink:title=" ">
<path fill="none" stroke="#63b8ff" d="M938.31,-149.72C960.77,-139.51 986.69,-127.73 1008.01,-118.04"/>
<polygon fill="#63b8ff" stroke="#63b8ff" points="936.58,-146.67 928.92,-153.99 939.47,-153.04 936.58,-146.67"/>
</a>
</g>
</g>
<!-- Node5&#45;&gt;Node3 -->
<g id="edge5_Node000005_Node000003" class="edge">
<title>Node5&#45;&gt;Node3</title>
<g id="a_edge5_Node000005_Node000003"><a xlink:title=" ">
<path fill="none" stroke="#63b8ff" d="M738.68,-77.09C487.48,-43.63 419.4,-75.05 173,-41 170.12,-40.6 167.19,-40.16 164.24,-39.69"/>
<polygon fill="#63b8ff" stroke="#63b8ff" points="738.47,-80.6 748.85,-78.47 739.41,-73.66 738.47,-80.6"/>
</a>
</g>
</g>
<!-- Node5&#45;&gt;Node6 -->
<g id="edge6_Node000005_Node000006" class="edge">
<title>Node5&#45;&gt;Node6</title>
<g id="a_edge6_Node000005_Node000006"><a xlink:title=" ">
<path fill="none" stroke="#63b8ff" d="M738.85,-77.01C647.84,-59.46 623.43,-57.96 537,-41 534.15,-40.44 531.24,-39.86 528.31,-39.27"/>
<polygon fill="#63b8ff" stroke="#63b8ff" points="738.28,-80.46 748.77,-78.93 739.62,-73.59 738.28,-80.46"/>
</a>
</g>
</g>
<!-- Node5&#45;&gt;Node7 -->
<g id="edge7_Node000005_Node000007" class="edge">
<title>Node5&#45;&gt;Node7</title>
<g id="a_edge7_Node000005_Node000007"><a xlink:title=" ">
<path fill="none" stroke="#63b8ff" d="M923.13,-77.52C924.43,-77.34 925.72,-77.17 927,-77 1196.3,-41.88 1267.89,-77.56 1537,-41 1539.88,-40.61 1542.81,-40.18 1545.76,-39.71"/>
<polygon fill="#63b8ff" stroke="#63b8ff" points="922.46,-74.08 913.09,-79.03 923.5,-81.01 922.46,-74.08"/>
</a>
</g>
</g>
<!-- Node5&#45;&gt;Node8 -->
<g id="edge8_Node000005_Node000008" class="edge">
<title>Node5&#45;&gt;Node8</title>
<g id="a_edge8_Node000005_Node000008"><a xlink:title=" ">
<path fill="none" stroke="#63b8ff" d="M770.91,-73.27C744.18,-62.94 713.06,-50.9 687.55,-41.04"/>
<polygon fill="#63b8ff" stroke="#63b8ff" points="769.95,-76.65 780.54,-76.99 772.47,-70.12 769.95,-76.65"/>
</a>
</g>
</g>
<!-- Node5&#45;&gt;Node9 -->
<g id="edge9_Node000005_Node000009" class="edge">
<title>Node5&#45;&gt;Node9</title>
<g id="a_edge9_Node000005_Node000009"><a xlink:title=" ">
<path fill="none" stroke="#63b8ff" d="M833.38,-66.69C834.07,-58.08 834.81,-48.9 835.43,-41.07"/>
<polygon fill="#63b8ff" stroke="#63b8ff" points="829.89,-66.55 832.58,-76.79 836.86,-67.11 829.89,-66.55"/>
</a>
</g>
</g>
<!-- Node5&#45;&gt;Node10 -->
<g id="edge10_Node000005_Node000010" class="edge">
<title>Node5&#45;&gt;Node10</title>
<g id="a_edge10_Node000005_Node000010"><a xlink:title=" ">
<path fill="none" stroke="#63b8ff" d="M894.07,-73.54C922.61,-63.15 956,-50.99 983.32,-41.04"/>
<polygon fill="#63b8ff" stroke="#63b8ff" points="892.79,-70.28 884.59,-76.99 895.18,-76.86 892.79,-70.28"/>
</a>
</g>
</g>
<!-- Node5&#45;&gt;Node11 -->
<g id="edge11_Node000005_Node000011" class="edge">
<title>Node5&#45;&gt;Node11</title>
<g id="a_edge11_Node000005_Node000011"><a xlink:title=" ">
<path fill="none" stroke="#63b8ff" d="M923.17,-77.72C924.45,-77.48 925.73,-77.24 927,-77 1020.08,-59.57 1043.86,-58.06 1137,-41 1139.96,-40.46 1142.96,-39.9 1146,-39.34"/>
<polygon fill="#63b8ff" stroke="#63b8ff" points="922.35,-74.31 913.19,-79.63 923.67,-81.19 922.35,-74.31"/>
</a>
</g>
</g>
<!-- Node5&#45;&gt;Node12 -->
<g id="edge12_Node000005_Node000012" class="edge">
<title>Node5&#45;&gt;Node12</title>
<g id="a_edge12_Node000005_Node000012"><a xlink:title=" ">
<path fill="none" stroke="#63b8ff" d="M923.14,-77.57C924.44,-77.38 925.72,-77.19 927,-77 1108.03,-50.75 1155.87,-66.54 1337,-41 1339.89,-40.59 1342.82,-40.16 1345.78,-39.7"/>
<polygon fill="#63b8ff" stroke="#63b8ff" points="922.43,-74.14 913.11,-79.19 923.54,-81.05 922.43,-74.14"/>
</a>
</g>
</g>
<!-- Node13&#45;&gt;Node3 -->
<g id="edge14_Node000013_Node000003" class="edge">
<title>Node13&#45;&gt;Node3</title>
<g id="a_edge14_Node000013_Node000003"><a xlink:title=" ">
<path fill="none" stroke="#63b8ff" d="M549.16,-87.9C453.54,-78.69 302.59,-62.45 173,-41 170.13,-40.52 167.22,-40.02 164.27,-39.49"/>
<polygon fill="#63b8ff" stroke="#63b8ff" points="549.1,-91.41 559.39,-88.88 549.77,-84.44 549.1,-91.41"/>
</a>
</g>
</g>
<!-- Node13&#45;&gt;Node6 -->
<g id="edge15_Node000013_Node000006" class="edge">
<title>Node13&#45;&gt;Node6</title>
<g id="a_edge15_Node000013_Node000006"><a xlink:title=" ">
<path fill="none" stroke="#63b8ff" d="M583.72,-73.4C556.22,-63.04 524.13,-50.95 497.85,-41.04"/>
<polygon fill="#63b8ff" stroke="#63b8ff" points="582.64,-76.74 593.23,-76.99 585.11,-70.19 582.64,-76.74"/>
</a>
</g>
</g>
<!-- Node13&#45;&gt;Node8 -->
<g id="edge17_Node000013_Node000008" class="edge">
<title>Node13&#45;&gt;Node8</title>
<g id="a_edge17_Node000013_Node000008"><a xlink:title=" ">
<path fill="none" stroke="#63b8ff" d="M641.82,-66.69C640.9,-58.08 639.92,-48.9 639.09,-41.07"/>
<polygon fill="#63b8ff" stroke="#63b8ff" points="638.36,-67.22 642.9,-76.79 645.32,-66.48 638.36,-67.22"/>
</a>
</g>
</g>
<!-- Node13&#45;&gt;Node9 -->
<g id="edge18_Node000013_Node000009" class="edge">
<title>Node13&#45;&gt;Node9</title>
<g id="a_edge18_Node000013_Node000009"><a xlink:title=" ">
<path fill="none" stroke="#63b8ff" d="M704.47,-73.27C730.93,-62.94 761.73,-50.9 786.97,-41.04"/>
<polygon fill="#63b8ff" stroke="#63b8ff" points="702.99,-70.09 694.94,-76.99 705.53,-76.61 702.99,-70.09"/>
</a>
</g>
</g>
<!-- Node13&#45;&gt;Node10 -->
<g id="edge19_Node000013_Node000010" class="edge">
<title>Node13&#45;&gt;Node10</title>
<g id="a_edge19_Node000013_Node000010"><a xlink:title=" ">
<path fill="none" stroke="#63b8ff" d="M740.62,-76.9C829.02,-59.86 852.62,-56.94 937,-41 939.95,-40.44 942.96,-39.87 945.99,-39.29"/>
<polygon fill="#63b8ff" stroke="#63b8ff" points="739.84,-73.49 730.69,-78.82 741.17,-80.36 739.84,-73.49"/>
</a>
</g>
</g>
<!-- Node13&#45;&gt;Node11 -->
<g id="edge20_Node000013_Node000011" class="edge">
<title>Node13&#45;&gt;Node11</title>
<g id="a_edge20_Node000013_Node000011"><a xlink:title=" ">
<path fill="none" stroke="#63b8ff" d="M740.76,-76.99C917.04,-51.68 964.86,-65.52 1137,-41 1139.89,-40.59 1142.82,-40.15 1145.78,-39.69"/>
<polygon fill="#63b8ff" stroke="#63b8ff" points="740.02,-73.56 730.63,-78.46 741.03,-80.49 740.02,-73.56"/>
</a>
</g>
</g>
<!-- Node13&#45;&gt;Node12 -->
<g id="edge21_Node000013_Node000012" class="edge">
<title>Node13&#45;&gt;Node12</title>
<g id="a_edge21_Node000013_Node000012"><a xlink:title=" ">
<path fill="none" stroke="#63b8ff" d="M740.91,-77C1005.33,-43 1076.65,-74.09 1337,-41 1339.9,-40.63 1342.83,-40.23 1345.79,-39.8"/>
<polygon fill="#63b8ff" stroke="#63b8ff" points="740.07,-73.58 730.61,-78.34 740.98,-80.52 740.07,-73.58"/>
</a>
</g>
</g>
<!-- Node13&#45;&gt;Node14 -->
<g id="edge16_Node000013_Node000014" class="edge">
<title>Node13&#45;&gt;Node14</title>
<g id="a_edge16_Node000013_Node000014"><a xlink:title=" ">
<path fill="none" stroke="#63b8ff" d="M549.24,-78.72C492.68,-68.08 419.69,-54.12 355,-41 352.15,-40.42 349.25,-39.83 346.32,-39.23"/>
<polygon fill="#63b8ff" stroke="#63b8ff" points="548.78,-82.2 559.25,-80.6 550.07,-75.32 548.78,-82.2"/>
</a>
</g>
</g>
</g>
</svg>
