<?xml version="1.0" encoding="UTF-8" standalone="no"?>
<!DOCTYPE svg PUBLIC "-//W3C//DTD SVG 1.1//EN"
 "http://www.w3.org/Graphics/SVG/1.1/DTD/svg11.dtd">
<!-- Generated by graphviz version 2.43.0 (0)
 -->
<!-- Title: /home/runner/work/phaseField/phaseField/include/prismspf/user_inputs/spatial_discretization.h Pages: 1 -->
<svg width="2740pt" height="368pt"
 viewBox="0.00 0.00 2739.73 368.00" xmlns="http://www.w3.org/2000/svg" xmlns:xlink="http://www.w3.org/1999/xlink">
<g id="graph0" class="graph" transform="scale(1 1) rotate(0) translate(4 364)">
<title>/home/runner/work/phaseField/phaseField/include/prismspf/user_inputs/spatial_discretization.h</title>
<!-- Node1 -->
<g id="Node000001" class="node">
<title>Node1</title>
<g id="a_Node000001"><a xlink:title=" ">
<polygon fill="#999999" stroke="#666666" points="696,-360 504,-360 504,-319 696,-319 696,-360"/>
<text text-anchor="start" x="512" y="-348" font-family="Helvetica,sans-Serif" font-size="10.00">/home/runner/work/phaseField</text>
<text text-anchor="start" x="512" y="-337" font-family="Helvetica,sans-Serif" font-size="10.00">/phaseField/include/prismspf</text>
<text text-anchor="middle" x="600" y="-326" font-family="Helvetica,sans-Serif" font-size="10.00">/user_inputs/spatial_discretization.h</text>
</a>
</g>
</g>
<!-- Node2 -->
<g id="Node000002" class="node">
<title>Node2</title>
<g id="a_Node000002"><a xlink:title=" ">
<polygon fill="#e0e0e0" stroke="#999999" points="102,-283 0,-283 0,-253 102,-253 102,-283"/>
<text text-anchor="start" x="8" y="-271" font-family="Helvetica,sans-Serif" font-size="10.00">deal.II/distributed</text>
<text text-anchor="middle" x="51" y="-260" font-family="Helvetica,sans-Serif" font-size="10.00">/tria.h</text>
</a>
</g>
</g>
<!-- Node1&#45;&gt;Node2 -->
<g id="edge1_Node000001_Node000002" class="edge">
<title>Node1&#45;&gt;Node2</title>
<g id="a_edge1_Node000001_Node000002"><a xlink:title=" ">
<path fill="none" stroke="#63b8ff" d="M503.96,-330.92C407.33,-322.54 253.95,-307.17 112.47,-283.13"/>
<polygon fill="#63b8ff" stroke="#63b8ff" points="112.76,-279.63 102.31,-281.39 111.57,-286.53 112.76,-279.63"/>
</a>
</g>
</g>
<!-- Node3 -->
<g id="Node000003" class="node">
<title>Node3</title>
<g id="a_Node000003"><a xlink:title=" ">
<polygon fill="#e0e0e0" stroke="#999999" points="271.5,-277.5 120.5,-277.5 120.5,-258.5 271.5,-258.5 271.5,-277.5"/>
<text text-anchor="middle" x="196" y="-265.5" font-family="Helvetica,sans-Serif" font-size="10.00">deal.II/grid/grid_generator.h</text>
</a>
</g>
</g>
<!-- Node1&#45;&gt;Node3 -->
<g id="edge2_Node000001_Node000003" class="edge">
<title>Node1&#45;&gt;Node3</title>
<g id="a_edge2_Node000001_Node000003"><a xlink:title=" ">
<path fill="none" stroke="#63b8ff" d="M503.75,-321.94C426.65,-308.68 320.94,-290.49 255.62,-279.26"/>
<polygon fill="#63b8ff" stroke="#63b8ff" points="255.95,-275.76 245.5,-277.51 254.76,-282.66 255.95,-275.76"/>
</a>
</g>
</g>
<!-- Node4 -->
<g id="Node000004" class="node">
<title>Node4</title>
<g id="a_Node000004"><a xlink:title=" ">
<polygon fill="#e0e0e0" stroke="#999999" points="418,-277.5 290,-277.5 290,-258.5 418,-258.5 418,-277.5"/>
<text text-anchor="middle" x="354" y="-265.5" font-family="Helvetica,sans-Serif" font-size="10.00">deal.II/grid/grid_tools.h</text>
</a>
</g>
</g>
<!-- Node1&#45;&gt;Node4 -->
<g id="edge3_Node000001_Node000004" class="edge">
<title>Node1&#45;&gt;Node4</title>
<g id="a_edge3_Node000001_Node000004"><a xlink:title=" ">
<path fill="none" stroke="#63b8ff" d="M530.82,-318.96C486.66,-306.48 430.96,-290.74 394,-280.3"/>
<polygon fill="#63b8ff" stroke="#63b8ff" points="394.67,-276.85 384.1,-277.5 392.77,-283.59 394.67,-276.85"/>
</a>
</g>
</g>
<!-- Node5 -->
<g id="Node000005" class="node">
<title>Node5</title>
<g id="a_Node000005"><a xlink:title=" ">
<polygon fill="#e0e0e0" stroke="#999999" points="533.5,-277.5 436.5,-277.5 436.5,-258.5 533.5,-258.5 533.5,-277.5"/>
<text text-anchor="middle" x="485" y="-265.5" font-family="Helvetica,sans-Serif" font-size="10.00">deal.II/grid/tria.h</text>
</a>
</g>
</g>
<!-- Node1&#45;&gt;Node5 -->
<g id="edge4_Node000001_Node000005" class="edge">
<title>Node1&#45;&gt;Node5</title>
<g id="a_edge4_Node000001_Node000005"><a xlink:title=" ">
<path fill="none" stroke="#63b8ff" d="M567.66,-318.96C548.6,-307.44 524.95,-293.14 507.84,-282.8"/>
<polygon fill="#63b8ff" stroke="#63b8ff" points="509.44,-279.68 499.07,-277.5 505.82,-285.67 509.44,-279.68"/>
</a>
</g>
</g>
<!-- Node6 -->
<g id="Node000006" class="node">
<title>Node6</title>
<g id="a_Node000006"><a xlink:href="conditional__ostreams_8h.html" target="_top" xlink:title=" ">
<polygon fill="white" stroke="#666666" points="753,-217 613,-217 613,-187 753,-187 753,-217"/>
<text text-anchor="start" x="621" y="-205" font-family="Helvetica,sans-Serif" font-size="10.00">prismspf/core/conditional</text>
<text text-anchor="middle" x="683" y="-194" font-family="Helvetica,sans-Serif" font-size="10.00">_ostreams.h</text>
</a>
</g>
</g>
<!-- Node1&#45;&gt;Node6 -->
<g id="edge5_Node000001_Node000006" class="edge">
<title>Node1&#45;&gt;Node6</title>
<g id="a_edge5_Node000001_Node000006"><a xlink:title=" ">
<path fill="none" stroke="#63b8ff" d="M612.07,-318.8C627.13,-294.22 652.83,-252.25 668.81,-226.16"/>
<polygon fill="#63b8ff" stroke="#63b8ff" points="671.98,-227.68 674.22,-217.33 666.02,-224.03 671.98,-227.68"/>
</a>
</g>
</g>
<!-- Node8 -->
<g id="Node000008" class="node">
<title>Node8</title>
<g id="a_Node000008"><a xlink:title=" ">
<polygon fill="#e0e0e0" stroke="#999999" points="901.5,-19 800.5,-19 800.5,0 901.5,0 901.5,-19"/>
<text text-anchor="middle" x="851" y="-7" font-family="Helvetica,sans-Serif" font-size="10.00">prismspf/config.h</text>
</a>
</g>
</g>
<!-- Node1&#45;&gt;Node8 -->
<g id="edge68_Node000001_Node000008" class="edge">
<title>Node1&#45;&gt;Node8</title>
<g id="a_edge68_Node000001_Node000008"><a xlink:title=" ">
<path fill="none" stroke="#63b8ff" d="M594.65,-318.85C582.29,-271.57 554.35,-153.03 576,-121 623.73,-50.39 724.82,-24.89 790.24,-15.69"/>
<polygon fill="#63b8ff" stroke="#63b8ff" points="790.96,-19.13 800.42,-14.35 790.05,-12.19 790.96,-19.13"/>
</a>
</g>
</g>
<!-- Node9 -->
<g id="Node000009" class="node">
<title>Node9</title>
<g id="a_Node000009"><a xlink:href="exceptions_8h.html" target="_top" xlink:title=" ">
<polygon fill="white" stroke="#666666" points="995.5,-211.5 846.5,-211.5 846.5,-192.5 995.5,-192.5 995.5,-211.5"/>
<text text-anchor="middle" x="921" y="-199.5" font-family="Helvetica,sans-Serif" font-size="10.00">prismspf/core/exceptions.h</text>
</a>
</g>
</g>
<!-- Node1&#45;&gt;Node9 -->
<g id="edge8_Node000001_Node000009" class="edge">
<title>Node1&#45;&gt;Node9</title>
<g id="a_edge8_Node000001_Node000009"><a xlink:title=" ">
<path fill="none" stroke="#63b8ff" d="M696.27,-326.75C739.85,-318.68 790.9,-305.23 833,-283 863.44,-266.93 891.55,-237.86 907.46,-219.54"/>
<polygon fill="#63b8ff" stroke="#63b8ff" points="910.46,-221.41 914.25,-211.51 905.12,-216.89 910.46,-221.41"/>
</a>
</g>
</g>
<!-- Node11 -->
<g id="Node000011" class="node">
<title>Node11</title>
<g id="a_Node000011"><a xlink:href="types_8h.html" target="_top" xlink:title=" ">
<polygon fill="white" stroke="#666666" points="969,-145.5 847,-145.5 847,-126.5 969,-126.5 969,-145.5"/>
<text text-anchor="middle" x="908" y="-133.5" font-family="Helvetica,sans-Serif" font-size="10.00">prismspf/core/types.h</text>
</a>
</g>
</g>
<!-- Node1&#45;&gt;Node11 -->
<g id="edge25_Node000001_Node000011" class="edge">
<title>Node1&#45;&gt;Node11</title>
<g id="a_edge25_Node000001_Node000011"><a xlink:title=" ">
<path fill="none" stroke="#63b8ff" d="M629.81,-319C691.61,-278.57 832.39,-186.46 886.38,-151.15"/>
<polygon fill="#63b8ff" stroke="#63b8ff" points="888.39,-154.01 894.84,-145.61 884.56,-148.15 888.39,-154.01"/>
</a>
</g>
</g>
<!-- Node16 -->
<g id="Node000016" class="node">
<title>Node16</title>
<g id="a_Node000016"><a xlink:href="grid__refiner__criterion_8h.html" target="_top" xlink:title=" ">
<polygon fill="white" stroke="#666666" points="557,-217 449,-217 449,-187 557,-187 557,-217"/>
<text text-anchor="start" x="457" y="-205" font-family="Helvetica,sans-Serif" font-size="10.00">prismspf/core/grid</text>
<text text-anchor="middle" x="503" y="-194" font-family="Helvetica,sans-Serif" font-size="10.00">_refiner_criterion.h</text>
</a>
</g>
</g>
<!-- Node1&#45;&gt;Node16 -->
<g id="edge18_Node000001_Node000016" class="edge">
<title>Node1&#45;&gt;Node16</title>
<g id="a_edge18_Node000001_Node000016"><a xlink:title=" ">
<path fill="none" stroke="#63b8ff" d="M587.57,-318.82C576.32,-301.27 559.11,-275.03 543,-253 536.14,-243.62 528.21,-233.55 521.23,-224.94"/>
<polygon fill="#63b8ff" stroke="#63b8ff" points="523.93,-222.71 514.89,-217.18 518.51,-227.14 523.93,-222.71"/>
</a>
</g>
</g>
<!-- Node18 -->
<g id="Node000018" class="node">
<title>Node18</title>
<g id="a_Node000018"><a xlink:href="boundary__parameters_8h.html" target="_top" xlink:title=" ">
<polygon fill="white" stroke="#666666" points="1389,-283 1253,-283 1253,-253 1389,-253 1389,-283"/>
<text text-anchor="start" x="1261" y="-271" font-family="Helvetica,sans-Serif" font-size="10.00">prismspf/user_inputs</text>
<text text-anchor="middle" x="1321" y="-260" font-family="Helvetica,sans-Serif" font-size="10.00">/boundary_parameters.h</text>
</a>
</g>
</g>
<!-- Node1&#45;&gt;Node18 -->
<g id="edge26_Node000001_Node000018" class="edge">
<title>Node1&#45;&gt;Node18</title>
<g id="a_edge26_Node000001_Node000018"><a xlink:title=" ">
<path fill="none" stroke="#63b8ff" d="M696.12,-329.24C840.35,-315.33 1109.99,-289.34 1242.88,-276.53"/>
<polygon fill="#63b8ff" stroke="#63b8ff" points="1243.36,-280 1252.98,-275.56 1242.69,-273.03 1243.36,-280"/>
</a>
</g>
</g>
<!-- Node30 -->
<g id="Node000030" class="node">
<title>Node30</title>
<g id="a_Node000030"><a xlink:href="utilities_8h.html" target="_top" xlink:title=" ">
<polygon fill="white" stroke="#666666" points="2141.5,-217 2042.5,-217 2042.5,-187 2141.5,-187 2141.5,-217"/>
<text text-anchor="start" x="2050.5" y="-205" font-family="Helvetica,sans-Serif" font-size="10.00">prismspf/utilities</text>
<text text-anchor="middle" x="2092" y="-194" font-family="Helvetica,sans-Serif" font-size="10.00">/utilities.h</text>
</a>
</g>
</g>
<!-- Node1&#45;&gt;Node30 -->
<g id="edge52_Node000001_Node000030" class="edge">
<title>Node1&#45;&gt;Node30</title>
<g id="a_edge52_Node000001_Node000030"><a xlink:title=" ">
<path fill="none" stroke="#63b8ff" d="M696.23,-333.22C846.3,-324.67 1145.11,-306.36 1398,-283 1633.29,-261.27 1912.39,-226.28 2032.35,-210.8"/>
<polygon fill="#63b8ff" stroke="#63b8ff" points="2032.96,-214.25 2042.43,-209.5 2032.06,-207.31 2032.96,-214.25"/>
</a>
</g>
</g>
<!-- Node7 -->
<g id="Node000007" class="node">
<title>Node7</title>
<g id="a_Node000007"><a xlink:title=" ">
<polygon fill="#e0e0e0" stroke="#999999" points="715,-151 585,-151 585,-121 715,-121 715,-151"/>
<text text-anchor="start" x="593" y="-139" font-family="Helvetica,sans-Serif" font-size="10.00">deal.II/base/conditional</text>
<text text-anchor="middle" x="650" y="-128" font-family="Helvetica,sans-Serif" font-size="10.00">_ostream.h</text>
</a>
</g>
</g>
<!-- Node6&#45;&gt;Node7 -->
<g id="edge6_Node000006_Node000007" class="edge">
<title>Node6&#45;&gt;Node7</title>
<g id="a_edge6_Node000006_Node000007"><a xlink:title=" ">
<path fill="none" stroke="#63b8ff" d="M675.68,-186.8C671.66,-179.01 666.58,-169.16 662,-160.28"/>
<polygon fill="#63b8ff" stroke="#63b8ff" points="665,-158.45 657.3,-151.16 658.78,-161.66 665,-158.45"/>
</a>
</g>
</g>
<!-- Node6&#45;&gt;Node8 -->
<g id="edge7_Node000006_Node000008" class="edge">
<title>Node6&#45;&gt;Node8</title>
<g id="a_edge7_Node000006_Node000008"><a xlink:title=" ">
<path fill="none" stroke="#63b8ff" d="M696.29,-186.9C704.9,-177.28 715.97,-163.98 724,-151 748.59,-111.24 735.05,-89.13 767,-55 780.29,-40.8 799.15,-30.24 815.63,-22.98"/>
<polygon fill="#63b8ff" stroke="#63b8ff" points="817.11,-26.16 825,-19.09 814.43,-19.69 817.11,-26.16"/>
</a>
</g>
</g>
<!-- Node9&#45;&gt;Node8 -->
<g id="edge17_Node000009_Node000008" class="edge">
<title>Node9&#45;&gt;Node8</title>
<g id="a_edge17_Node000009_Node000008"><a xlink:title=" ">
<path fill="none" stroke="#63b8ff" d="M893.27,-192.46C874,-184.91 849.75,-171.8 838,-151 815.88,-111.85 832.16,-56.61 843.15,-28.48"/>
<polygon fill="#63b8ff" stroke="#63b8ff" points="846.44,-29.7 847.01,-19.12 839.96,-27.03 846.44,-29.7"/>
</a>
</g>
</g>
<!-- Node10 -->
<g id="Node000010" class="node">
<title>Node10</title>
<g id="a_Node000010"><a xlink:title=" ">
<polygon fill="#e0e0e0" stroke="#999999" points="1125,-145.5 987,-145.5 987,-126.5 1125,-126.5 1125,-145.5"/>
<text text-anchor="middle" x="1056" y="-133.5" font-family="Helvetica,sans-Serif" font-size="10.00">deal.II/base/exceptions.h</text>
</a>
</g>
</g>
<!-- Node9&#45;&gt;Node10 -->
<g id="edge9_Node000009_Node000010" class="edge">
<title>Node9&#45;&gt;Node10</title>
<g id="a_edge9_Node000009_Node000010"><a xlink:title=" ">
<path fill="none" stroke="#63b8ff" d="M939.21,-192.37C962.15,-181.49 1001.81,-162.69 1028.47,-150.05"/>
<polygon fill="#63b8ff" stroke="#63b8ff" points="1030.11,-153.15 1037.65,-145.7 1027.12,-146.82 1030.11,-153.15"/>
</a>
</g>
</g>
<!-- Node9&#45;&gt;Node11 -->
<g id="edge10_Node000009_Node000011" class="edge">
<title>Node9&#45;&gt;Node11</title>
<g id="a_edge10_Node000009_Node000011"><a xlink:title=" ">
<path fill="none" stroke="#63b8ff" d="M919.25,-192.37C917.36,-183.07 914.29,-167.98 911.84,-155.9"/>
<polygon fill="#63b8ff" stroke="#63b8ff" points="915.23,-155.01 909.81,-145.91 908.37,-156.4 915.23,-155.01"/>
</a>
</g>
</g>
<!-- Node11&#45;&gt;Node8 -->
<g id="edge15_Node000011_Node000008" class="edge">
<title>Node11&#45;&gt;Node8</title>
<g id="a_edge15_Node000011_Node000008"><a xlink:title=" ">
<path fill="none" stroke="#63b8ff" d="M904.08,-126.44C894.85,-106.27 871.57,-55.42 859.13,-28.26"/>
<polygon fill="#63b8ff" stroke="#63b8ff" points="862.29,-26.75 854.95,-19.12 855.93,-29.67 862.29,-26.75"/>
</a>
</g>
</g>
<!-- Node12 -->
<g id="Node000012" class="node">
<title>Node12</title>
<g id="a_Node000012"><a xlink:href="type__enums_8h.html" target="_top" xlink:title=" ">
<polygon fill="white" stroke="#666666" points="1289,-85 1181,-85 1181,-55 1289,-55 1289,-85"/>
<text text-anchor="start" x="1189" y="-73" font-family="Helvetica,sans-Serif" font-size="10.00">prismspf/core/type</text>
<text text-anchor="middle" x="1235" y="-62" font-family="Helvetica,sans-Serif" font-size="10.00">_enums.h</text>
</a>
</g>
</g>
<!-- Node11&#45;&gt;Node12 -->
<g id="edge11_Node000011_Node000012" class="edge">
<title>Node11&#45;&gt;Node12</title>
<g id="a_edge11_Node000011_Node000012"><a xlink:title=" ">
<path fill="none" stroke="#63b8ff" d="M950.56,-126.45C959.62,-124.64 969.12,-122.75 978,-121 1043.64,-108.05 1118.76,-93.46 1170.75,-83.4"/>
<polygon fill="#63b8ff" stroke="#63b8ff" points="1171.68,-86.79 1180.83,-81.45 1170.35,-79.92 1171.68,-86.79"/>
</a>
</g>
</g>
<!-- Node15 -->
<g id="Node000015" class="node">
<title>Node15</title>
<g id="a_Node000015"><a xlink:title=" ">
<polygon fill="#e0e0e0" stroke="#999999" points="1040.5,-79.5 995.5,-79.5 995.5,-60.5 1040.5,-60.5 1040.5,-79.5"/>
<text text-anchor="middle" x="1018" y="-67.5" font-family="Helvetica,sans-Serif" font-size="10.00">utility</text>
</a>
</g>
</g>
<!-- Node11&#45;&gt;Node15 -->
<g id="edge16_Node000011_Node000015" class="edge">
<title>Node11&#45;&gt;Node15</title>
<g id="a_edge16_Node000011_Node000015"><a xlink:title=" ">
<path fill="none" stroke="#63b8ff" d="M922.84,-126.37C941.12,-115.73 972.44,-97.51 994.13,-84.89"/>
<polygon fill="#63b8ff" stroke="#63b8ff" points="996.17,-87.75 1003.05,-79.7 992.64,-81.7 996.17,-87.75"/>
</a>
</g>
</g>
<!-- Node12&#45;&gt;Node8 -->
<g id="edge12_Node000012_Node000008" class="edge">
<title>Node12&#45;&gt;Node8</title>
<g id="a_edge12_Node000012_Node000008"><a xlink:title=" ">
<path fill="none" stroke="#63b8ff" d="M1180.87,-57.53C1176.18,-56.64 1171.51,-55.78 1167,-55 1078.57,-39.69 975.53,-25.94 911.78,-17.9"/>
<polygon fill="#63b8ff" stroke="#63b8ff" points="911.86,-14.38 901.5,-16.61 910.99,-21.33 911.86,-14.38"/>
</a>
</g>
</g>
<!-- Node13 -->
<g id="Node000013" class="node">
<title>Node13</title>
<g id="a_Node000013"><a xlink:title=" ">
<polygon fill="#e0e0e0" stroke="#999999" points="566,-19 516,-19 516,0 566,0 566,-19"/>
<text text-anchor="middle" x="541" y="-7" font-family="Helvetica,sans-Serif" font-size="10.00">cstdint</text>
</a>
</g>
</g>
<!-- Node12&#45;&gt;Node13 -->
<g id="edge13_Node000012_Node000013" class="edge">
<title>Node12&#45;&gt;Node13</title>
<g id="a_edge13_Node000012_Node000013"><a xlink:title=" ">
<path fill="none" stroke="#63b8ff" d="M1180.83,-64.43C1044.39,-52.93 689.42,-23.01 576.23,-13.47"/>
<polygon fill="#63b8ff" stroke="#63b8ff" points="576.3,-9.96 566.04,-12.61 575.71,-16.94 576.3,-9.96"/>
</a>
</g>
</g>
<!-- Node14 -->
<g id="Node000014" class="node">
<title>Node14</title>
<g id="a_Node000014"><a xlink:title=" ">
<polygon fill="#e0e0e0" stroke="#999999" points="1339,-19 1295,-19 1295,0 1339,0 1339,-19"/>
<text text-anchor="middle" x="1317" y="-7" font-family="Helvetica,sans-Serif" font-size="10.00">string</text>
</a>
</g>
</g>
<!-- Node12&#45;&gt;Node14 -->
<g id="edge14_Node000012_Node000014" class="edge">
<title>Node12&#45;&gt;Node14</title>
<g id="a_edge14_Node000012_Node000014"><a xlink:title=" ">
<path fill="none" stroke="#63b8ff" d="M1254.85,-54.84C1267.48,-45.83 1283.8,-34.18 1296.55,-25.09"/>
<polygon fill="#63b8ff" stroke="#63b8ff" points="1298.6,-27.92 1304.71,-19.27 1294.54,-22.22 1298.6,-27.92"/>
</a>
</g>
</g>
<!-- Node16&#45;&gt;Node8 -->
<g id="edge21_Node000016_Node000008" class="edge">
<title>Node16&#45;&gt;Node8</title>
<g id="a_edge21_Node000016_Node000008"><a xlink:title=" ">
<path fill="none" stroke="#63b8ff" d="M497.83,-186.81C488.33,-157.96 471.93,-92.08 505,-55 523.63,-34.12 695.7,-20.19 789.95,-14.06"/>
<polygon fill="#63b8ff" stroke="#63b8ff" points="790.45,-17.54 800.21,-13.41 790.01,-10.55 790.45,-17.54"/>
</a>
</g>
</g>
<!-- Node16&#45;&gt;Node10 -->
<g id="edge19_Node000016_Node000010" class="edge">
<title>Node16&#45;&gt;Node10</title>
<g id="a_edge19_Node000016_Node000010"><a xlink:title=" ">
<path fill="none" stroke="#63b8ff" d="M557.2,-193.06C572.33,-190.96 588.79,-188.79 604,-187 769.85,-167.53 812.57,-173.77 978,-151 985.76,-149.93 993.93,-148.65 1001.94,-147.29"/>
<polygon fill="#63b8ff" stroke="#63b8ff" points="1002.71,-150.71 1011.96,-145.55 1001.51,-143.81 1002.71,-150.71"/>
</a>
</g>
</g>
<!-- Node16&#45;&gt;Node11 -->
<g id="edge20_Node000016_Node000011" class="edge">
<title>Node16&#45;&gt;Node11</title>
<g id="a_edge20_Node000016_Node000011"><a xlink:title=" ">
<path fill="none" stroke="#63b8ff" d="M557.2,-192.44C631.46,-180.7 764.63,-159.66 843.79,-147.15"/>
<polygon fill="#63b8ff" stroke="#63b8ff" points="844.79,-150.53 854.12,-145.51 843.7,-143.62 844.79,-150.53"/>
</a>
</g>
</g>
<!-- Node16&#45;&gt;Node13 -->
<g id="edge23_Node000016_Node000013" class="edge">
<title>Node16&#45;&gt;Node13</title>
<g id="a_edge23_Node000016_Node000013"><a xlink:title=" ">
<path fill="none" stroke="#63b8ff" d="M448.79,-187.58C430.03,-180.06 410.97,-168.52 400,-151 392.92,-139.7 394.85,-133.3 400,-121 420.31,-72.49 475.31,-39.85 510.31,-23.28"/>
<polygon fill="#63b8ff" stroke="#63b8ff" points="511.96,-26.38 519.61,-19.04 509.06,-20.01 511.96,-26.38"/>
</a>
</g>
</g>
<!-- Node16&#45;&gt;Node14 -->
<g id="edge24_Node000016_Node000014" class="edge">
<title>Node16&#45;&gt;Node14</title>
<g id="a_edge24_Node000016_Node000014"><a xlink:title=" ">
<path fill="none" stroke="#63b8ff" d="M511.6,-186.74C523.57,-168.28 547.05,-136.64 576,-121 701.94,-52.99 1159.01,-20.25 1284.78,-12.4"/>
<polygon fill="#63b8ff" stroke="#63b8ff" points="1285.15,-15.88 1294.91,-11.78 1284.72,-8.9 1285.15,-15.88"/>
</a>
</g>
</g>
<!-- Node17 -->
<g id="Node000017" class="node">
<title>Node17</title>
<g id="a_Node000017"><a xlink:title=" ">
<polygon fill="#e0e0e0" stroke="#999999" points="453,-145.5 409,-145.5 409,-126.5 453,-126.5 453,-145.5"/>
<text text-anchor="middle" x="431" y="-133.5" font-family="Helvetica,sans-Serif" font-size="10.00">cfloat</text>
</a>
</g>
</g>
<!-- Node16&#45;&gt;Node17 -->
<g id="edge22_Node000016_Node000017" class="edge">
<title>Node16&#45;&gt;Node17</title>
<g id="a_edge22_Node000016_Node000017"><a xlink:title=" ">
<path fill="none" stroke="#63b8ff" d="M487.02,-186.8C475.69,-176.72 460.47,-163.19 448.75,-152.78"/>
<polygon fill="#63b8ff" stroke="#63b8ff" points="450.75,-149.87 440.95,-145.84 446.1,-155.1 450.75,-149.87"/>
</a>
</g>
</g>
<!-- Node18&#45;&gt;Node6 -->
<g id="edge31_Node000018_Node000006" class="edge">
<title>Node18&#45;&gt;Node6</title>
<g id="a_edge31_Node000018_Node000006"><a xlink:title=" ">
<path fill="none" stroke="#63b8ff" d="M1252.59,-262.49C1147.79,-255.2 941.33,-239.36 767,-217 765.72,-216.84 764.43,-216.67 763.14,-216.49"/>
<polygon fill="#63b8ff" stroke="#63b8ff" points="763.46,-213 753.07,-215.08 762.49,-219.94 763.46,-213"/>
</a>
</g>
</g>
<!-- Node18&#45;&gt;Node8 -->
<g id="edge46_Node000018_Node000008" class="edge">
<title>Node18&#45;&gt;Node8</title>
<g id="a_edge46_Node000018_Node000008"><a xlink:title=" ">
<path fill="none" stroke="#63b8ff" d="M1252.65,-264.33C1126.74,-258.77 868.2,-244.16 838,-217 784.27,-168.67 804.54,-124.6 824,-55 826.76,-45.12 832.39,-35.25 837.79,-27.32"/>
<polygon fill="#63b8ff" stroke="#63b8ff" points="840.78,-29.17 843.85,-19.03 835.13,-25.04 840.78,-29.17"/>
</a>
</g>
</g>
<!-- Node18&#45;&gt;Node9 -->
<g id="edge32_Node000018_Node000009" class="edge">
<title>Node18&#45;&gt;Node9</title>
<g id="a_edge32_Node000018_Node000009"><a xlink:title=" ">
<path fill="none" stroke="#63b8ff" d="M1252.69,-256.07C1177.46,-244.03 1057.49,-224.84 984.31,-213.13"/>
<polygon fill="#63b8ff" stroke="#63b8ff" points="984.74,-209.65 974.31,-211.53 983.63,-216.57 984.74,-209.65"/>
</a>
</g>
</g>
<!-- Node18&#45;&gt;Node11 -->
<g id="edge34_Node000018_Node000011" class="edge">
<title>Node18&#45;&gt;Node11</title>
<g id="a_edge34_Node000018_Node000011"><a xlink:title=" ">
<path fill="none" stroke="#63b8ff" d="M1252.95,-257.93C1211.8,-250.64 1159.13,-238.04 1116,-217 1096.66,-207.57 1097.11,-196.88 1078,-187 1042.06,-168.42 998.18,-155.73 964,-147.79"/>
<polygon fill="#63b8ff" stroke="#63b8ff" points="964.71,-144.36 954.18,-145.57 963.17,-151.19 964.71,-144.36"/>
</a>
</g>
</g>
<!-- Node18&#45;&gt;Node12 -->
<g id="edge33_Node000018_Node000012" class="edge">
<title>Node18&#45;&gt;Node12</title>
<g id="a_edge33_Node000018_Node000012"><a xlink:title=" ">
<path fill="none" stroke="#63b8ff" d="M1359.24,-252.99C1384.03,-243.56 1416.82,-230.44 1445,-217 1469.78,-205.18 1474.3,-198.99 1499,-187 1536.28,-168.91 1562.04,-185.5 1585,-151 1592.39,-139.9 1593.74,-131.07 1585,-121 1548.74,-79.2 1389.94,-71.48 1299.2,-70.56"/>
<polygon fill="#63b8ff" stroke="#63b8ff" points="1299.05,-67.06 1289.02,-70.49 1299,-74.06 1299.05,-67.06"/>
</a>
</g>
</g>
<!-- Node18&#45;&gt;Node14 -->
<g id="edge49_Node000018_Node000014" class="edge">
<title>Node18&#45;&gt;Node14</title>
<g id="a_edge49_Node000018_Node000014"><a xlink:title=" ">
<path fill="none" stroke="#63b8ff" d="M1389.35,-253.64C1390.91,-253.41 1392.46,-253.2 1394,-253 1449.56,-245.71 1858.82,-258.01 1897,-217 1906.09,-207.24 1904.23,-198.2 1897,-187 1887.35,-172.04 1767.8,-126.89 1751,-121 1604.13,-69.55 1421.62,-31 1348.98,-16.64"/>
<polygon fill="#63b8ff" stroke="#63b8ff" points="1349.56,-13.18 1339.08,-14.69 1348.22,-20.05 1349.56,-13.18"/>
</a>
</g>
</g>
<!-- Node19 -->
<g id="Node000019" class="node">
<title>Node19</title>
<g id="a_Node000019"><a xlink:title=" ">
<polygon fill="#e0e0e0" stroke="#999999" points="1742,-145.5 1632,-145.5 1632,-126.5 1742,-126.5 1742,-145.5"/>
<text text-anchor="middle" x="1687" y="-133.5" font-family="Helvetica,sans-Serif" font-size="10.00">deal.II/base/point.h</text>
</a>
</g>
</g>
<!-- Node18&#45;&gt;Node19 -->
<g id="edge27_Node000018_Node000019" class="edge">
<title>Node18&#45;&gt;Node19</title>
<g id="a_edge27_Node000018_Node000019"><a xlink:title=" ">
<path fill="none" stroke="#63b8ff" d="M1389.27,-253.49C1423.23,-245.37 1464.32,-233.39 1499,-217 1520.07,-207.04 1521.23,-197.57 1542,-187 1574.8,-170.31 1614.45,-157.07 1643.99,-148.42"/>
<polygon fill="#63b8ff" stroke="#63b8ff" points="1645.34,-151.67 1653.99,-145.55 1643.41,-144.94 1645.34,-151.67"/>
</a>
</g>
</g>
<!-- Node20 -->
<g id="Node000020" class="node">
<title>Node20</title>
<g id="a_Node000020"><a xlink:title=" ">
<polygon fill="#e0e0e0" stroke="#999999" points="1419,-211.5 1307,-211.5 1307,-192.5 1419,-192.5 1419,-211.5"/>
<text text-anchor="middle" x="1363" y="-199.5" font-family="Helvetica,sans-Serif" font-size="10.00">deal.II/base/types.h</text>
</a>
</g>
</g>
<!-- Node18&#45;&gt;Node20 -->
<g id="edge28_Node000018_Node000020" class="edge">
<title>Node18&#45;&gt;Node20</title>
<g id="a_edge28_Node000018_Node000020"><a xlink:title=" ">
<path fill="none" stroke="#63b8ff" d="M1330.32,-252.8C1336.61,-243.21 1344.95,-230.5 1351.63,-220.32"/>
<polygon fill="#63b8ff" stroke="#63b8ff" points="1354.64,-222.13 1357.2,-211.84 1348.78,-218.28 1354.64,-222.13"/>
</a>
</g>
</g>
<!-- Node21 -->
<g id="Node000021" class="node">
<title>Node21</title>
<g id="a_Node000021"><a xlink:title=" ">
<polygon fill="#e0e0e0" stroke="#999999" points="1673,-211.5 1551,-211.5 1551,-192.5 1673,-192.5 1673,-211.5"/>
<text text-anchor="middle" x="1612" y="-199.5" font-family="Helvetica,sans-Serif" font-size="10.00">deal.II/base/utilities.h</text>
</a>
</g>
</g>
<!-- Node18&#45;&gt;Node21 -->
<g id="edge29_Node000018_Node000021" class="edge">
<title>Node18&#45;&gt;Node21</title>
<g id="a_edge29_Node000018_Node000021"><a xlink:title=" ">
<path fill="none" stroke="#63b8ff" d="M1384.86,-252.95C1438.59,-241.14 1514.29,-224.49 1563.25,-213.72"/>
<polygon fill="#63b8ff" stroke="#63b8ff" points="1564.26,-217.08 1573.27,-211.52 1562.75,-210.25 1564.26,-217.08"/>
</a>
</g>
</g>
<!-- Node22 -->
<g id="Node000022" class="node">
<title>Node22</title>
<g id="a_Node000022"><a xlink:title=" ">
<polygon fill="#e0e0e0" stroke="#999999" points="1816.5,-217 1691.5,-217 1691.5,-187 1816.5,-187 1816.5,-217"/>
<text text-anchor="start" x="1699.5" y="-205" font-family="Helvetica,sans-Serif" font-size="10.00">boost/algorithm/string</text>
<text text-anchor="middle" x="1754" y="-194" font-family="Helvetica,sans-Serif" font-size="10.00">/predicate.hpp</text>
</a>
</g>
</g>
<!-- Node18&#45;&gt;Node22 -->
<g id="edge30_Node000018_Node000022" class="edge">
<title>Node18&#45;&gt;Node22</title>
<g id="a_edge30_Node000018_Node000022"><a xlink:title=" ">
<path fill="none" stroke="#63b8ff" d="M1389.03,-258.7C1459.53,-249.84 1573.13,-234.86 1681.11,-217.09"/>
<polygon fill="#63b8ff" stroke="#63b8ff" points="1681.91,-220.51 1691.21,-215.42 1680.77,-213.6 1681.91,-220.51"/>
</a>
</g>
</g>
<!-- Node23 -->
<g id="Node000023" class="node">
<title>Node23</title>
<g id="a_Node000023"><a xlink:href="variable__attributes_8h.html" target="_top" xlink:title=" ">
<polygon fill="white" stroke="#666666" points="1251,-217 1125,-217 1125,-187 1251,-187 1251,-217"/>
<text text-anchor="start" x="1133" y="-205" font-family="Helvetica,sans-Serif" font-size="10.00">prismspf/core/variable</text>
<text text-anchor="middle" x="1188" y="-194" font-family="Helvetica,sans-Serif" font-size="10.00">_attributes.h</text>
</a>
</g>
</g>
<!-- Node18&#45;&gt;Node23 -->
<g id="edge35_Node000018_Node000023" class="edge">
<title>Node18&#45;&gt;Node23</title>
<g id="a_edge35_Node000018_Node000023"><a xlink:title=" ">
<path fill="none" stroke="#63b8ff" d="M1291.81,-252.95C1272.58,-243.7 1247.2,-231.49 1226.34,-221.45"/>
<polygon fill="#63b8ff" stroke="#63b8ff" points="1227.65,-218.19 1217.12,-217.01 1224.61,-224.5 1227.65,-218.19"/>
</a>
</g>
</g>
<!-- Node25 -->
<g id="Node000025" class="node">
<title>Node25</title>
<g id="a_Node000025"><a xlink:title=" ">
<polygon fill="#e0e0e0" stroke="#999999" points="1383,-145.5 1345,-145.5 1345,-126.5 1383,-126.5 1383,-145.5"/>
<text text-anchor="middle" x="1364" y="-133.5" font-family="Helvetica,sans-Serif" font-size="10.00">map</text>
</a>
</g>
</g>
<!-- Node18&#45;&gt;Node25 -->
<g id="edge48_Node000018_Node000025" class="edge">
<title>Node18&#45;&gt;Node25</title>
<g id="a_edge48_Node000018_Node000025"><a xlink:title=" ">
<path fill="none" stroke="#63b8ff" d="M1310.88,-252.85C1300.48,-236.4 1287.19,-208.74 1298,-187 1305.98,-170.95 1321.84,-158.67 1336.02,-150.3"/>
<polygon fill="#63b8ff" stroke="#63b8ff" points="1337.91,-153.25 1344.99,-145.36 1334.54,-147.12 1337.91,-153.25"/>
</a>
</g>
</g>
<!-- Node27 -->
<g id="Node000027" class="node">
<title>Node27</title>
<g id="a_Node000027"><a xlink:title=" ">
<polygon fill="#e0e0e0" stroke="#999999" points="1448.5,-145.5 1401.5,-145.5 1401.5,-126.5 1448.5,-126.5 1448.5,-145.5"/>
<text text-anchor="middle" x="1425" y="-133.5" font-family="Helvetica,sans-Serif" font-size="10.00">vector</text>
</a>
</g>
</g>
<!-- Node18&#45;&gt;Node27 -->
<g id="edge51_Node000018_Node000027" class="edge">
<title>Node18&#45;&gt;Node27</title>
<g id="a_edge51_Node000018_Node000027"><a xlink:title=" ">
<path fill="none" stroke="#63b8ff" d="M1380.07,-252.97C1398.63,-245.48 1417.1,-234.12 1428,-217 1439.69,-198.63 1435.95,-172.78 1431.28,-155.49"/>
<polygon fill="#63b8ff" stroke="#63b8ff" points="1434.51,-154.06 1428.24,-145.52 1427.81,-156.11 1434.51,-154.06"/>
</a>
</g>
</g>
<!-- Node28 -->
<g id="Node000028" class="node">
<title>Node28</title>
<g id="a_Node000028"><a xlink:title=" ">
<polygon fill="#e0e0e0" stroke="#999999" points="1887.5,-211.5 1834.5,-211.5 1834.5,-192.5 1887.5,-192.5 1887.5,-211.5"/>
<text text-anchor="middle" x="1861" y="-199.5" font-family="Helvetica,sans-Serif" font-size="10.00">cstddef</text>
</a>
</g>
</g>
<!-- Node18&#45;&gt;Node28 -->
<g id="edge47_Node000018_Node000028" class="edge">
<title>Node18&#45;&gt;Node28</title>
<g id="a_edge47_Node000018_Node000028"><a xlink:title=" ">
<path fill="none" stroke="#63b8ff" d="M1389.41,-266.3C1487.46,-263.93 1673.02,-254.37 1826,-217 1828.31,-216.44 1830.66,-215.75 1833.01,-214.99"/>
<polygon fill="#63b8ff" stroke="#63b8ff" points="1834.23,-218.27 1842.43,-211.55 1831.84,-211.69 1834.23,-218.27"/>
</a>
</g>
</g>
<!-- Node29 -->
<g id="Node000029" class="node">
<title>Node29</title>
<g id="a_Node000029"><a xlink:title=" ">
<polygon fill="#e0e0e0" stroke="#999999" points="1068.5,-211.5 1017.5,-211.5 1017.5,-192.5 1068.5,-192.5 1068.5,-211.5"/>
<text text-anchor="middle" x="1043" y="-199.5" font-family="Helvetica,sans-Serif" font-size="10.00">variant</text>
</a>
</g>
</g>
<!-- Node18&#45;&gt;Node29 -->
<g id="edge50_Node000018_Node000029" class="edge">
<title>Node18&#45;&gt;Node29</title>
<g id="a_edge50_Node000018_Node000029"><a xlink:title=" ">
<path fill="none" stroke="#63b8ff" d="M1252.99,-255.14C1205.07,-246.19 1139.63,-232.79 1083,-217 1080.52,-216.31 1077.97,-215.54 1075.42,-214.74"/>
<polygon fill="#63b8ff" stroke="#63b8ff" points="1076.28,-211.34 1065.68,-211.51 1074.07,-217.98 1076.28,-211.34"/>
</a>
</g>
</g>
<!-- Node23&#45;&gt;Node8 -->
<g id="edge40_Node000023_Node000008" class="edge">
<title>Node23&#45;&gt;Node8</title>
<g id="a_edge40_Node000023_Node000008"><a xlink:title=" ">
<path fill="none" stroke="#63b8ff" d="M1186.26,-186.84C1183.51,-169.64 1176.76,-140.49 1161,-121 1099.97,-45.52 983.41,-21.55 911.91,-13.97"/>
<polygon fill="#63b8ff" stroke="#63b8ff" points="911.99,-10.47 901.7,-12.97 911.3,-17.43 911.99,-10.47"/>
</a>
</g>
</g>
<!-- Node23&#45;&gt;Node10 -->
<g id="edge36_Node000023_Node000010" class="edge">
<title>Node23&#45;&gt;Node10</title>
<g id="a_edge36_Node000023_Node000010"><a xlink:title=" ">
<path fill="none" stroke="#63b8ff" d="M1159.03,-186.95C1136.29,-175.93 1104.88,-160.7 1082.73,-149.96"/>
<polygon fill="#63b8ff" stroke="#63b8ff" points="1084.09,-146.73 1073.57,-145.52 1081.04,-153.03 1084.09,-146.73"/>
</a>
</g>
</g>
<!-- Node23&#45;&gt;Node11 -->
<g id="edge39_Node000023_Node000011" class="edge">
<title>Node23&#45;&gt;Node11</title>
<g id="a_edge39_Node000023_Node000011"><a xlink:title=" ">
<path fill="none" stroke="#63b8ff" d="M1126.55,-186.95C1074.96,-175.16 1002.33,-158.56 955.21,-147.79"/>
<polygon fill="#63b8ff" stroke="#63b8ff" points="955.79,-144.33 945.26,-145.52 954.23,-151.16 955.79,-144.33"/>
</a>
</g>
</g>
<!-- Node23&#45;&gt;Node12 -->
<g id="edge38_Node000023_Node000012" class="edge">
<title>Node23&#45;&gt;Node12</title>
<g id="a_edge38_Node000023_Node000012"><a xlink:title=" ">
<path fill="none" stroke="#63b8ff" d="M1220.95,-186.95C1235.73,-178.78 1251.68,-166.91 1260,-151 1269.56,-132.72 1260.87,-110.16 1251.21,-93.66"/>
<polygon fill="#63b8ff" stroke="#63b8ff" points="1254.15,-91.76 1245.85,-85.18 1248.23,-95.5 1254.15,-91.76"/>
</a>
</g>
</g>
<!-- Node23&#45;&gt;Node14 -->
<g id="edge43_Node000023_Node000014" class="edge">
<title>Node23&#45;&gt;Node14</title>
<g id="a_edge43_Node000023_Node000014"><a xlink:title=" ">
<path fill="none" stroke="#63b8ff" d="M1226.11,-186.83C1243.44,-178.69 1262.95,-166.88 1276,-151 1305.63,-114.95 1313.85,-58.33 1316.13,-29.2"/>
<polygon fill="#63b8ff" stroke="#63b8ff" points="1319.62,-29.36 1316.76,-19.16 1312.64,-28.92 1319.62,-29.36"/>
</a>
</g>
</g>
<!-- Node23&#45;&gt;Node15 -->
<g id="edge44_Node000023_Node000015" class="edge">
<title>Node23&#45;&gt;Node15</title>
<g id="a_edge44_Node000023_Node000015"><a xlink:title=" ">
<path fill="none" stroke="#63b8ff" d="M1181.54,-186.75C1172.94,-169.18 1156.19,-139.39 1134,-121 1109.36,-100.58 1075.13,-87.2 1050.24,-79.46"/>
<polygon fill="#63b8ff" stroke="#63b8ff" points="1051.12,-76.07 1040.54,-76.58 1049.13,-82.78 1051.12,-76.07"/>
</a>
</g>
</g>
<!-- Node24 -->
<g id="Node000024" class="node">
<title>Node24</title>
<g id="a_Node000024"><a xlink:title=" ">
<polygon fill="#e0e0e0" stroke="#999999" points="1575.5,-151 1466.5,-151 1466.5,-121 1575.5,-121 1575.5,-151"/>
<text text-anchor="start" x="1474.5" y="-139" font-family="Helvetica,sans-Serif" font-size="10.00">deal.II/matrix_free</text>
<text text-anchor="middle" x="1521" y="-128" font-family="Helvetica,sans-Serif" font-size="10.00">/evaluation_flags.h</text>
</a>
</g>
</g>
<!-- Node23&#45;&gt;Node24 -->
<g id="edge37_Node000023_Node000024" class="edge">
<title>Node23&#45;&gt;Node24</title>
<g id="a_edge37_Node000023_Node000024"><a xlink:title=" ">
<path fill="none" stroke="#63b8ff" d="M1251.13,-189.96C1303.58,-180.65 1380.4,-166.65 1456.19,-151.33"/>
<polygon fill="#63b8ff" stroke="#63b8ff" points="1457.29,-154.68 1466.39,-149.26 1455.89,-147.82 1457.29,-154.68"/>
</a>
</g>
</g>
<!-- Node23&#45;&gt;Node25 -->
<g id="edge41_Node000023_Node000025" class="edge">
<title>Node23&#45;&gt;Node25</title>
<g id="a_edge41_Node000023_Node000025"><a xlink:title=" ">
<path fill="none" stroke="#63b8ff" d="M1230.5,-186.95C1259.08,-177.3 1297.51,-163.94 1331,-151 1332.41,-150.45 1333.86,-149.88 1335.32,-149.3"/>
<polygon fill="#63b8ff" stroke="#63b8ff" points="1336.98,-152.4 1344.89,-145.35 1334.31,-145.93 1336.98,-152.4"/>
</a>
</g>
</g>
<!-- Node26 -->
<g id="Node000026" class="node">
<title>Node26</title>
<g id="a_Node000026"><a xlink:title=" ">
<polygon fill="#e0e0e0" stroke="#999999" points="1251,-145.5 1219,-145.5 1219,-126.5 1251,-126.5 1251,-145.5"/>
<text text-anchor="middle" x="1235" y="-133.5" font-family="Helvetica,sans-Serif" font-size="10.00">set</text>
</a>
</g>
</g>
<!-- Node23&#45;&gt;Node26 -->
<g id="edge42_Node000023_Node000026" class="edge">
<title>Node23&#45;&gt;Node26</title>
<g id="a_edge42_Node000023_Node000026"><a xlink:title=" ">
<path fill="none" stroke="#63b8ff" d="M1198.43,-186.8C1205.54,-177.11 1215,-164.24 1222.51,-154.01"/>
<polygon fill="#63b8ff" stroke="#63b8ff" points="1225.41,-155.98 1228.5,-145.84 1219.76,-151.83 1225.41,-155.98"/>
</a>
</g>
</g>
<!-- Node23&#45;&gt;Node27 -->
<g id="edge45_Node000023_Node000027" class="edge">
<title>Node23&#45;&gt;Node27</title>
<g id="a_edge45_Node000023_Node000027"><a xlink:title=" ">
<path fill="none" stroke="#63b8ff" d="M1251.24,-188.25C1291.91,-179.38 1345.63,-166.41 1392,-151 1393.62,-150.46 1395.28,-149.88 1396.94,-149.26"/>
<polygon fill="#63b8ff" stroke="#63b8ff" points="1398.35,-152.47 1406.35,-145.53 1395.77,-145.96 1398.35,-152.47"/>
</a>
</g>
</g>
<!-- Node30&#45;&gt;Node8 -->
<g id="edge60_Node000030_Node000008" class="edge">
<title>Node30&#45;&gt;Node8</title>
<g id="a_edge60_Node000030_Node000008"><a xlink:title=" ">
<path fill="none" stroke="#63b8ff" d="M2042.22,-194.37C1988.67,-186.59 1901.31,-172.03 1828,-151 1792.7,-140.87 1786.51,-130.37 1751,-121 1554.28,-69.07 1499.95,-79.75 1298,-55 1160.2,-38.11 997.9,-23.19 911.81,-15.67"/>
<polygon fill="#63b8ff" stroke="#63b8ff" points="911.96,-12.17 901.69,-14.79 911.35,-19.14 911.96,-12.17"/>
</a>
</g>
</g>
<!-- Node30&#45;&gt;Node10 -->
<g id="edge53_Node000030_Node000010" class="edge">
<title>Node30&#45;&gt;Node10</title>
<g id="a_edge53_Node000030_Node000010"><a xlink:title=" ">
<path fill="none" stroke="#63b8ff" d="M2042.33,-197.17C2002.93,-194.19 1946.46,-190.07 1897,-187 1591.84,-168.05 1514.97,-172.84 1210,-151 1185.75,-149.26 1159.38,-147 1135.44,-144.81"/>
<polygon fill="#63b8ff" stroke="#63b8ff" points="1135.61,-141.31 1125.33,-143.87 1134.97,-148.28 1135.61,-141.31"/>
</a>
</g>
</g>
<!-- Node30&#45;&gt;Node14 -->
<g id="edge62_Node000030_Node000014" class="edge">
<title>Node30&#45;&gt;Node14</title>
<g id="a_edge62_Node000030_Node000014"><a xlink:title=" ">
<path fill="none" stroke="#63b8ff" d="M2141.66,-200.86C2283.98,-199.94 2685.67,-193.56 2725,-151 2734.05,-141.21 2733.88,-130.94 2725,-121 2630.26,-14.95 1551.03,-10.36 1349.35,-10.44"/>
<polygon fill="#63b8ff" stroke="#63b8ff" points="1349.12,-6.94 1339.12,-10.44 1349.13,-13.94 1349.12,-6.94"/>
</a>
</g>
</g>
<!-- Node30&#45;&gt;Node19 -->
<g id="edge54_Node000030_Node000019" class="edge">
<title>Node30&#45;&gt;Node19</title>
<g id="a_edge54_Node000030_Node000019"><a xlink:title=" ">
<path fill="none" stroke="#63b8ff" d="M2042.34,-193.15C1969.01,-181.56 1831.76,-159.88 1750.98,-147.11"/>
<polygon fill="#63b8ff" stroke="#63b8ff" points="1751.36,-143.63 1740.94,-145.52 1750.27,-150.54 1751.36,-143.63"/>
</a>
</g>
</g>
<!-- Node30&#45;&gt;Node24 -->
<g id="edge57_Node000030_Node000024" class="edge">
<title>Node30&#45;&gt;Node24</title>
<g id="a_edge57_Node000030_Node000024"><a xlink:title=" ">
<path fill="none" stroke="#63b8ff" d="M2042.31,-196.2C1956.63,-187.81 1775.61,-169.6 1623,-151 1611.01,-149.54 1598.24,-147.87 1585.94,-146.21"/>
<polygon fill="#63b8ff" stroke="#63b8ff" points="1586.13,-142.71 1575.75,-144.82 1585.19,-149.64 1586.13,-142.71"/>
</a>
</g>
</g>
<!-- Node31 -->
<g id="Node000031" class="node">
<title>Node31</title>
<g id="a_Node000031"><a xlink:title=" ">
<polygon fill="#e0e0e0" stroke="#999999" points="2106.5,-145.5 1991.5,-145.5 1991.5,-126.5 2106.5,-126.5 2106.5,-145.5"/>
<text text-anchor="middle" x="2049" y="-133.5" font-family="Helvetica,sans-Serif" font-size="10.00">deal.II/base/tensor.h</text>
</a>
</g>
</g>
<!-- Node30&#45;&gt;Node31 -->
<g id="edge55_Node000030_Node000031" class="edge">
<title>Node30&#45;&gt;Node31</title>
<g id="a_edge55_Node000030_Node000031"><a xlink:title=" ">
<path fill="none" stroke="#63b8ff" d="M2082.46,-186.8C2076.02,-177.21 2067.48,-164.5 2060.64,-154.32"/>
<polygon fill="#63b8ff" stroke="#63b8ff" points="2063.42,-152.19 2054.94,-145.84 2057.61,-156.1 2063.42,-152.19"/>
</a>
</g>
</g>
<!-- Node32 -->
<g id="Node000032" class="node">
<title>Node32</title>
<g id="a_Node000032"><a xlink:title=" ">
<polygon fill="#e0e0e0" stroke="#999999" points="2131.5,-79.5 1982.5,-79.5 1982.5,-60.5 2131.5,-60.5 2131.5,-79.5"/>
<text text-anchor="middle" x="2057" y="-67.5" font-family="Helvetica,sans-Serif" font-size="10.00">deal.II/base/vectorization.h</text>
</a>
</g>
</g>
<!-- Node30&#45;&gt;Node32 -->
<g id="edge56_Node000030_Node000032" class="edge">
<title>Node30&#45;&gt;Node32</title>
<g id="a_edge56_Node000030_Node000032"><a xlink:title=" ">
<path fill="none" stroke="#63b8ff" d="M2102.19,-186.98C2112.7,-170.65 2126.24,-143.1 2116,-121 2108.94,-105.76 2094.68,-93.47 2081.96,-84.89"/>
<polygon fill="#63b8ff" stroke="#63b8ff" points="2083.82,-81.93 2073.5,-79.55 2080.09,-87.85 2083.82,-81.93"/>
</a>
</g>
</g>
<!-- Node33 -->
<g id="Node000033" class="node">
<title>Node33</title>
<g id="a_Node000033"><a xlink:title=" ">
<polygon fill="#e0e0e0" stroke="#999999" points="2309,-145.5 2163,-145.5 2163,-126.5 2309,-126.5 2309,-145.5"/>
<text text-anchor="middle" x="2236" y="-133.5" font-family="Helvetica,sans-Serif" font-size="10.00">boost/range/algorithm.hpp</text>
</a>
</g>
</g>
<!-- Node30&#45;&gt;Node33 -->
<g id="edge58_Node000030_Node000033" class="edge">
<title>Node30&#45;&gt;Node33</title>
<g id="a_edge58_Node000030_Node000033"><a xlink:title=" ">
<path fill="none" stroke="#63b8ff" d="M2123.6,-186.95C2148.63,-175.83 2183.3,-160.42 2207.49,-149.67"/>
<polygon fill="#63b8ff" stroke="#63b8ff" points="2209.12,-152.78 2216.84,-145.52 2206.28,-146.38 2209.12,-152.78"/>
</a>
</g>
</g>
<!-- Node34 -->
<g id="Node000034" class="node">
<title>Node34</title>
<g id="a_Node000034"><a xlink:title=" ">
<polygon fill="#e0e0e0" stroke="#999999" points="2452.5,-151 2327.5,-151 2327.5,-121 2452.5,-121 2452.5,-151"/>
<text text-anchor="start" x="2335.5" y="-139" font-family="Helvetica,sans-Serif" font-size="10.00">boost/range/algorithm</text>
<text text-anchor="middle" x="2390" y="-128" font-family="Helvetica,sans-Serif" font-size="10.00">_ext.hpp</text>
</a>
</g>
</g>
<!-- Node30&#45;&gt;Node34 -->
<g id="edge59_Node000030_Node000034" class="edge">
<title>Node30&#45;&gt;Node34</title>
<g id="a_edge59_Node000030_Node000034"><a xlink:title=" ">
<path fill="none" stroke="#63b8ff" d="M2141.54,-190.36C2189.53,-180.05 2262.85,-164.31 2317.42,-152.59"/>
<polygon fill="#63b8ff" stroke="#63b8ff" points="2318.34,-155.97 2327.38,-150.45 2316.87,-149.13 2318.34,-155.97"/>
</a>
</g>
</g>
<!-- Node35 -->
<g id="Node000035" class="node">
<title>Node35</title>
<g id="a_Node000035"><a xlink:title=" ">
<polygon fill="#e0e0e0" stroke="#999999" points="2513,-145.5 2471,-145.5 2471,-126.5 2513,-126.5 2513,-145.5"/>
<text text-anchor="middle" x="2492" y="-133.5" font-family="Helvetica,sans-Serif" font-size="10.00">array</text>
</a>
</g>
</g>
<!-- Node30&#45;&gt;Node35 -->
<g id="edge61_Node000030_Node000035" class="edge">
<title>Node30&#45;&gt;Node35</title>
<g id="a_edge61_Node000030_Node000035"><a xlink:title=" ">
<path fill="none" stroke="#63b8ff" d="M2141.77,-199.04C2213.75,-195.13 2350.51,-183.72 2462,-151 2463.45,-150.58 2464.91,-150.09 2466.38,-149.56"/>
<polygon fill="#63b8ff" stroke="#63b8ff" points="2467.95,-152.7 2475.84,-145.63 2465.27,-146.23 2467.95,-152.7"/>
</a>
</g>
</g>
<!-- Node36 -->
<g id="Node000036" class="node">
<title>Node36</title>
<g id="a_Node000036"><a xlink:title=" ">
<polygon fill="#e0e0e0" stroke="#999999" points="2604.5,-145.5 2531.5,-145.5 2531.5,-126.5 2604.5,-126.5 2604.5,-145.5"/>
<text text-anchor="middle" x="2568" y="-133.5" font-family="Helvetica,sans-Serif" font-size="10.00">string_view</text>
</a>
</g>
</g>
<!-- Node30&#45;&gt;Node36 -->
<g id="edge63_Node000030_Node000036" class="edge">
<title>Node30&#45;&gt;Node36</title>
<g id="a_edge63_Node000030_Node000036"><a xlink:title=" ">
<path fill="none" stroke="#63b8ff" d="M2141.8,-198.12C2222.38,-192.82 2386.07,-179.35 2522,-151 2525.65,-150.24 2529.42,-149.32 2533.16,-148.32"/>
<polygon fill="#63b8ff" stroke="#63b8ff" points="2534.25,-151.65 2542.9,-145.53 2532.33,-144.92 2534.25,-151.65"/>
</a>
</g>
</g>
<!-- Node37 -->
<g id="Node000037" class="node">
<title>Node37</title>
<g id="a_Node000037"><a xlink:title=" ">
<polygon fill="#e0e0e0" stroke="#999999" points="2715.5,-145.5 2622.5,-145.5 2622.5,-126.5 2715.5,-126.5 2715.5,-145.5"/>
<text text-anchor="middle" x="2669" y="-133.5" font-family="Helvetica,sans-Serif" font-size="10.00">unordered_map</text>
</a>
</g>
</g>
<!-- Node30&#45;&gt;Node37 -->
<g id="edge64_Node000030_Node000037" class="edge">
<title>Node30&#45;&gt;Node37</title>
<g id="a_edge64_Node000030_Node000037"><a xlink:title=" ">
<path fill="none" stroke="#63b8ff" d="M2141.64,-198.79C2234.81,-194.08 2442.02,-180.94 2614,-151 2618.84,-150.16 2623.88,-149.11 2628.87,-147.97"/>
<polygon fill="#63b8ff" stroke="#63b8ff" points="2630.02,-151.29 2638.92,-145.54 2628.38,-144.49 2630.02,-151.29"/>
</a>
</g>
</g>
<!-- Node38 -->
<g id="Node000038" class="node">
<title>Node38</title>
<g id="a_Node000038"><a xlink:href="vectorized__operations_8h.html" target="_top" xlink:title=" ">
<polygon fill="white" stroke="#666666" points="1973.5,-151 1836.5,-151 1836.5,-121 1973.5,-121 1973.5,-151"/>
<text text-anchor="start" x="1844.5" y="-139" font-family="Helvetica,sans-Serif" font-size="10.00">prismspf/utilities</text>
<text text-anchor="middle" x="1905" y="-128" font-family="Helvetica,sans-Serif" font-size="10.00">/vectorized_operations.h</text>
</a>
</g>
</g>
<!-- Node30&#45;&gt;Node38 -->
<g id="edge65_Node000030_Node000038" class="edge">
<title>Node30&#45;&gt;Node38</title>
<g id="a_edge65_Node000030_Node000038"><a xlink:title=" ">
<path fill="none" stroke="#63b8ff" d="M2050.96,-186.95C2022.95,-177.37 1985.65,-164.6 1955.77,-154.37"/>
<polygon fill="#63b8ff" stroke="#63b8ff" points="1956.54,-150.94 1945.94,-151.01 1954.27,-157.56 1956.54,-150.94"/>
</a>
</g>
</g>
<!-- Node38&#45;&gt;Node8 -->
<g id="edge67_Node000038_Node000008" class="edge">
<title>Node38&#45;&gt;Node8</title>
<g id="a_edge67_Node000038_Node000008"><a xlink:title=" ">
<path fill="none" stroke="#63b8ff" d="M1895.46,-120.85C1881.76,-101.89 1854.54,-69 1822,-55 1780.15,-36.99 1117.78,-17.7 911.71,-12.1"/>
<polygon fill="#63b8ff" stroke="#63b8ff" points="911.75,-8.6 901.66,-11.83 911.57,-15.6 911.75,-8.6"/>
</a>
</g>
</g>
<!-- Node38&#45;&gt;Node32 -->
<g id="edge66_Node000038_Node000032" class="edge">
<title>Node38&#45;&gt;Node32</title>
<g id="a_edge66_Node000038_Node000032"><a xlink:title=" ">
<path fill="none" stroke="#63b8ff" d="M1938.36,-120.95C1964.9,-109.78 2001.69,-94.29 2027.24,-83.53"/>
<polygon fill="#63b8ff" stroke="#63b8ff" points="2028.91,-86.62 2036.77,-79.52 2026.2,-80.17 2028.91,-86.62"/>
</a>
</g>
</g>
</g>
</svg>
