<?xml version="1.0" encoding="UTF-8" standalone="no"?>
<!DOCTYPE svg PUBLIC "-//W3C//DTD SVG 1.1//EN"
 "http://www.w3.org/Graphics/SVG/1.1/DTD/svg11.dtd">
<!-- Generated by graphviz version 2.43.0 (0)
 -->
<!-- Title: /home/runner/work/phaseField/phaseField/include/prismspf/core/triangulation_handler.h Pages: 1 -->
<svg width="588pt" height="115pt"
 viewBox="0.00 0.00 588.00 115.00" xmlns="http://www.w3.org/2000/svg" xmlns:xlink="http://www.w3.org/1999/xlink">
<g id="graph0" class="graph" transform="scale(1 1) rotate(0) translate(4 111)">
<title>/home/runner/work/phaseField/phaseField/include/prismspf/core/triangulation_handler.h</title>
<!-- Node1 -->
<g id="Node000001" class="node">
<title>Node1</title>
<g id="a_Node000001"><a xlink:title=" ">
<polygon fill="#999999" stroke="#666666" points="399,-107 235,-107 235,-66 399,-66 399,-107"/>
<text text-anchor="start" x="243" y="-95" font-family="Helvetica,sans-Serif" font-size="10.00">/home/runner/work/phaseField</text>
<text text-anchor="start" x="243" y="-84" font-family="Helvetica,sans-Serif" font-size="10.00">/phaseField/include/prismspf</text>
<text text-anchor="middle" x="317" y="-73" font-family="Helvetica,sans-Serif" font-size="10.00">/core/triangulation_handler.h</text>
</a>
</g>
</g>
<!-- Node2 -->
<g id="Node000002" class="node">
<title>Node2</title>
<g id="a_Node000002"><a xlink:title=" ">
<polygon fill="#e0e0e0" stroke="#999999" points="102,-30 0,-30 0,0 102,0 102,-30"/>
<text text-anchor="start" x="8" y="-18" font-family="Helvetica,sans-Serif" font-size="10.00">deal.II/distributed</text>
<text text-anchor="middle" x="51" y="-7" font-family="Helvetica,sans-Serif" font-size="10.00">/tria.h</text>
</a>
</g>
</g>
<!-- Node1&#45;&gt;Node2 -->
<g id="edge1_Node000001_Node000002" class="edge">
<title>Node1&#45;&gt;Node2</title>
<g id="a_edge1_Node000001_Node000002"><a xlink:title=" ">
<path fill="none" stroke="#63b8ff" d="M242.2,-65.96C201.15,-55.23 150.89,-42.1 112.2,-31.99"/>
<polygon fill="#63b8ff" stroke="#63b8ff" points="112.68,-28.5 102.12,-29.36 110.91,-35.27 112.68,-28.5"/>
</a>
</g>
</g>
<!-- Node3 -->
<g id="Node000003" class="node">
<title>Node3</title>
<g id="a_Node000003"><a xlink:title=" ">
<polygon fill="#e0e0e0" stroke="#999999" points="217.5,-24.5 120.5,-24.5 120.5,-5.5 217.5,-5.5 217.5,-24.5"/>
<text text-anchor="middle" x="169" y="-12.5" font-family="Helvetica,sans-Serif" font-size="10.00">deal.II/grid/tria.h</text>
</a>
</g>
</g>
<!-- Node1&#45;&gt;Node3 -->
<g id="edge2_Node000001_Node000003" class="edge">
<title>Node1&#45;&gt;Node3</title>
<g id="a_edge2_Node000001_Node000003"><a xlink:title=" ">
<path fill="none" stroke="#63b8ff" d="M275.38,-65.96C250.06,-54.06 218.44,-39.21 196.27,-28.81"/>
<polygon fill="#63b8ff" stroke="#63b8ff" points="197.65,-25.59 187.11,-24.5 194.67,-31.92 197.65,-25.59"/>
</a>
</g>
</g>
<!-- Node4 -->
<g id="Node000004" class="node">
<title>Node4</title>
<g id="a_Node000004"><a xlink:title=" ">
<polygon fill="#e0e0e0" stroke="#999999" points="398.5,-30 235.5,-30 235.5,0 398.5,0 398.5,-30"/>
<text text-anchor="start" x="243.5" y="-18" font-family="Helvetica,sans-Serif" font-size="10.00">deal.II/multigrid/mg</text>
<text text-anchor="middle" x="317" y="-7" font-family="Helvetica,sans-Serif" font-size="10.00">_transfer_global_coarsening.h</text>
</a>
</g>
</g>
<!-- Node1&#45;&gt;Node4 -->
<g id="edge3_Node000001_Node000004" class="edge">
<title>Node1&#45;&gt;Node4</title>
<g id="a_edge3_Node000001_Node000004"><a xlink:title=" ">
<path fill="none" stroke="#63b8ff" d="M317,-65.77C317,-57.85 317,-48.63 317,-40.3"/>
<polygon fill="#63b8ff" stroke="#63b8ff" points="320.5,-40.04 317,-30.04 313.5,-40.04 320.5,-40.04"/>
</a>
</g>
</g>
<!-- Node5 -->
<g id="Node000005" class="node">
<title>Node5</title>
<g id="a_Node000005"><a xlink:title=" ">
<polygon fill="#e0e0e0" stroke="#999999" points="517.5,-24.5 416.5,-24.5 416.5,-5.5 517.5,-5.5 517.5,-24.5"/>
<text text-anchor="middle" x="467" y="-12.5" font-family="Helvetica,sans-Serif" font-size="10.00">prismspf/config.h</text>
</a>
</g>
</g>
<!-- Node1&#45;&gt;Node5 -->
<g id="edge4_Node000001_Node000005" class="edge">
<title>Node1&#45;&gt;Node5</title>
<g id="a_edge4_Node000001_Node000005"><a xlink:title=" ">
<path fill="none" stroke="#63b8ff" d="M359.18,-65.96C384.85,-54.06 416.9,-39.21 439.36,-28.81"/>
<polygon fill="#63b8ff" stroke="#63b8ff" points="441.04,-31.88 448.65,-24.5 438.1,-25.53 441.04,-31.88"/>
</a>
</g>
</g>
<!-- Node6 -->
<g id="Node000006" class="node">
<title>Node6</title>
<g id="a_Node000006"><a xlink:title=" ">
<polygon fill="#e0e0e0" stroke="#999999" points="580,-24.5 536,-24.5 536,-5.5 580,-5.5 580,-24.5"/>
<text text-anchor="middle" x="558" y="-12.5" font-family="Helvetica,sans-Serif" font-size="10.00">string</text>
</a>
</g>
</g>
<!-- Node1&#45;&gt;Node6 -->
<g id="edge5_Node000001_Node000006" class="edge">
<title>Node1&#45;&gt;Node6</title>
<g id="a_edge5_Node000001_Node000006"><a xlink:title=" ">
<path fill="none" stroke="#63b8ff" d="M399.23,-67.12C438.39,-57.52 485.6,-44.7 527,-30 528.39,-29.51 529.81,-28.97 531.23,-28.42"/>
<polygon fill="#63b8ff" stroke="#63b8ff" points="532.65,-31.62 540.5,-24.51 529.93,-25.17 532.65,-31.62"/>
</a>
</g>
</g>
</g>
</svg>
