<?xml version="1.0" encoding="UTF-8" standalone="no"?>
<!DOCTYPE svg PUBLIC "-//W3C//DTD SVG 1.1//EN"
 "http://www.w3.org/Graphics/SVG/1.1/DTD/svg11.dtd">
<!-- Generated by graphviz version 2.43.0 (0)
 -->
<!-- Title: /home/runner/work/phaseField/phaseField/include/prismspf/core/variable_attribute_loader.h Pages: 1 -->
<svg width="785pt" height="302pt"
 viewBox="0.00 0.00 785.23 302.00" xmlns="http://www.w3.org/2000/svg" xmlns:xlink="http://www.w3.org/1999/xlink">
<g id="graph0" class="graph" transform="scale(1 1) rotate(0) translate(4 298)">
<title>/home/runner/work/phaseField/phaseField/include/prismspf/core/variable_attribute_loader.h</title>
<!-- Node1 -->
<g id="Node000001" class="node">
<title>Node1</title>
<g id="a_Node000001"><a xlink:title=" ">
<polygon fill="#999999" stroke="#666666" points="757,-294 582,-294 582,-253 757,-253 757,-294"/>
<text text-anchor="start" x="590" y="-282" font-family="Helvetica,sans-Serif" font-size="10.00">/home/runner/work/phaseField</text>
<text text-anchor="start" x="590" y="-271" font-family="Helvetica,sans-Serif" font-size="10.00">/phaseField/include/prismspf</text>
<text text-anchor="middle" x="669.5" y="-260" font-family="Helvetica,sans-Serif" font-size="10.00">/core/variable_attribute_loader.h</text>
</a>
</g>
</g>
<!-- Node2 -->
<g id="Node000002" class="node">
<title>Node2</title>
<g id="a_Node000002"><a xlink:href="type__enums_8h.html" target="_top" xlink:title=" ">
<polygon fill="white" stroke="#666666" points="378.5,-85 270.5,-85 270.5,-55 378.5,-55 378.5,-85"/>
<text text-anchor="start" x="278.5" y="-73" font-family="Helvetica,sans-Serif" font-size="10.00">prismspf/core/type</text>
<text text-anchor="middle" x="324.5" y="-62" font-family="Helvetica,sans-Serif" font-size="10.00">_enums.h</text>
</a>
</g>
</g>
<!-- Node1&#45;&gt;Node2 -->
<g id="edge1_Node000001_Node000002" class="edge">
<title>Node1&#45;&gt;Node2</title>
<g id="a_edge1_Node000001_Node000002"><a xlink:title=" ">
<path fill="none" stroke="#63b8ff" d="M693.12,-252.94C727.55,-222.15 783.66,-161.69 747.5,-121 724.1,-94.67 501.17,-79.83 388.72,-73.97"/>
<polygon fill="#63b8ff" stroke="#63b8ff" points="388.68,-70.46 378.52,-73.45 388.33,-77.45 388.68,-70.46"/>
</a>
</g>
</g>
<!-- Node3 -->
<g id="Node000003" class="node">
<title>Node3</title>
<g id="a_Node000003"><a xlink:title=" ">
<polygon fill="#e0e0e0" stroke="#999999" points="101,-19 0,-19 0,0 101,0 101,-19"/>
<text text-anchor="middle" x="50.5" y="-7" font-family="Helvetica,sans-Serif" font-size="10.00">prismspf/config.h</text>
</a>
</g>
</g>
<!-- Node1&#45;&gt;Node3 -->
<g id="edge20_Node000001_Node000003" class="edge">
<title>Node1&#45;&gt;Node3</title>
<g id="a_edge20_Node000001_Node000003"><a xlink:title=" ">
<path fill="none" stroke="#63b8ff" d="M581.76,-270.05C420.38,-263.44 86.84,-239.16 20.5,-151 -5.15,-116.91 8.03,-95.8 20.5,-55 23.59,-44.9 29.82,-35.02 35.81,-27.15"/>
<polygon fill="#63b8ff" stroke="#63b8ff" points="38.68,-29.16 42.29,-19.2 33.26,-24.74 38.68,-29.16"/>
</a>
</g>
</g>
<!-- Node5 -->
<g id="Node000005" class="node">
<title>Node5</title>
<g id="a_Node000005"><a xlink:title=" ">
<polygon fill="#e0e0e0" stroke="#999999" points="644.5,-19 600.5,-19 600.5,0 644.5,0 644.5,-19"/>
<text text-anchor="middle" x="622.5" y="-7" font-family="Helvetica,sans-Serif" font-size="10.00">string</text>
</a>
</g>
</g>
<!-- Node1&#45;&gt;Node5 -->
<g id="edge23_Node000001_Node000005" class="edge">
<title>Node1&#45;&gt;Node5</title>
<g id="a_edge23_Node000001_Node000005"><a xlink:title=" ">
<path fill="none" stroke="#63b8ff" d="M711.84,-252.82C726.8,-243.89 742.39,-231.93 752.5,-217 776.68,-181.3 785.57,-159.67 766.5,-121 742.87,-73.08 687.37,-40.16 652.58,-23.4"/>
<polygon fill="#63b8ff" stroke="#63b8ff" points="653.91,-20.15 643.37,-19.1 650.95,-26.5 653.91,-20.15"/>
</a>
</g>
</g>
<!-- Node6 -->
<g id="Node000006" class="node">
<title>Node6</title>
<g id="a_Node000006"><a xlink:href="types_8h.html" target="_top" xlink:title=" ">
<polygon fill="white" stroke="#666666" points="168.5,-145.5 46.5,-145.5 46.5,-126.5 168.5,-126.5 168.5,-145.5"/>
<text text-anchor="middle" x="107.5" y="-133.5" font-family="Helvetica,sans-Serif" font-size="10.00">prismspf/core/types.h</text>
</a>
</g>
</g>
<!-- Node1&#45;&gt;Node6 -->
<g id="edge5_Node000001_Node000006" class="edge">
<title>Node1&#45;&gt;Node6</title>
<g id="a_edge5_Node000001_Node000006"><a xlink:title=" ">
<path fill="none" stroke="#63b8ff" d="M581.81,-260.2C518.69,-250.56 431.76,-235.67 356.5,-217 277.67,-197.44 187.43,-166.16 140.22,-149.08"/>
<polygon fill="#63b8ff" stroke="#63b8ff" points="141.14,-145.69 130.54,-145.56 138.74,-152.27 141.14,-145.69"/>
</a>
</g>
</g>
<!-- Node8 -->
<g id="Node000008" class="node">
<title>Node8</title>
<g id="a_Node000008"><a xlink:href="variable__attributes_8h.html" target="_top" xlink:title=" ">
<polygon fill="white" stroke="#666666" points="491.5,-217 365.5,-217 365.5,-187 491.5,-187 491.5,-217"/>
<text text-anchor="start" x="373.5" y="-205" font-family="Helvetica,sans-Serif" font-size="10.00">prismspf/core/variable</text>
<text text-anchor="middle" x="428.5" y="-194" font-family="Helvetica,sans-Serif" font-size="10.00">_attributes.h</text>
</a>
</g>
</g>
<!-- Node1&#45;&gt;Node8 -->
<g id="edge9_Node000001_Node000008" class="edge">
<title>Node1&#45;&gt;Node8</title>
<g id="a_edge9_Node000001_Node000008"><a xlink:title=" ">
<path fill="none" stroke="#63b8ff" d="M601.73,-252.96C565.61,-242.54 521.63,-229.86 487.02,-219.88"/>
<polygon fill="#63b8ff" stroke="#63b8ff" points="487.64,-216.41 477.06,-217 485.7,-223.14 487.64,-216.41"/>
</a>
</g>
</g>
<!-- Node11 -->
<g id="Node000011" class="node">
<title>Node11</title>
<g id="a_Node000011"><a xlink:title=" ">
<polygon fill="#e0e0e0" stroke="#999999" points="688.5,-145.5 650.5,-145.5 650.5,-126.5 688.5,-126.5 688.5,-145.5"/>
<text text-anchor="middle" x="669.5" y="-133.5" font-family="Helvetica,sans-Serif" font-size="10.00">map</text>
</a>
</g>
</g>
<!-- Node1&#45;&gt;Node11 -->
<g id="edge21_Node000001_Node000011" class="edge">
<title>Node1&#45;&gt;Node11</title>
<g id="a_edge21_Node000001_Node000011"><a xlink:title=" ">
<path fill="none" stroke="#63b8ff" d="M669.5,-252.8C669.5,-226.83 669.5,-181.45 669.5,-155.89"/>
<polygon fill="#63b8ff" stroke="#63b8ff" points="673,-155.69 669.5,-145.69 666,-155.69 673,-155.69"/>
</a>
</g>
</g>
<!-- Node12 -->
<g id="Node000012" class="node">
<title>Node12</title>
<g id="a_Node000012"><a xlink:title=" ">
<polygon fill="#e0e0e0" stroke="#999999" points="738.5,-145.5 706.5,-145.5 706.5,-126.5 738.5,-126.5 738.5,-145.5"/>
<text text-anchor="middle" x="722.5" y="-133.5" font-family="Helvetica,sans-Serif" font-size="10.00">set</text>
</a>
</g>
</g>
<!-- Node1&#45;&gt;Node12 -->
<g id="edge22_Node000001_Node000012" class="edge">
<title>Node1&#45;&gt;Node12</title>
<g id="a_edge22_Node000001_Node000012"><a xlink:title=" ">
<path fill="none" stroke="#63b8ff" d="M677.21,-252.8C687.46,-226.59 705.43,-180.63 715.38,-155.21"/>
<polygon fill="#63b8ff" stroke="#63b8ff" points="718.72,-156.27 719.1,-145.69 712.2,-153.72 718.72,-156.27"/>
</a>
</g>
</g>
<!-- Node2&#45;&gt;Node3 -->
<g id="edge2_Node000002_Node000003" class="edge">
<title>Node2&#45;&gt;Node3</title>
<g id="a_edge2_Node000002_Node000003"><a xlink:title=" ">
<path fill="none" stroke="#63b8ff" d="M270.37,-57.44C220.86,-46.87 148.23,-31.37 100.18,-21.11"/>
<polygon fill="#63b8ff" stroke="#63b8ff" points="100.82,-17.67 90.31,-19 99.36,-24.51 100.82,-17.67"/>
</a>
</g>
</g>
<!-- Node4 -->
<g id="Node000004" class="node">
<title>Node4</title>
<g id="a_Node000004"><a xlink:title=" ">
<polygon fill="#e0e0e0" stroke="#999999" points="349.5,-19 299.5,-19 299.5,0 349.5,0 349.5,-19"/>
<text text-anchor="middle" x="324.5" y="-7" font-family="Helvetica,sans-Serif" font-size="10.00">cstdint</text>
</a>
</g>
</g>
<!-- Node2&#45;&gt;Node4 -->
<g id="edge3_Node000002_Node000004" class="edge">
<title>Node2&#45;&gt;Node4</title>
<g id="a_edge3_Node000002_Node000004"><a xlink:title=" ">
<path fill="none" stroke="#63b8ff" d="M324.5,-54.84C324.5,-47.21 324.5,-37.7 324.5,-29.45"/>
<polygon fill="#63b8ff" stroke="#63b8ff" points="328,-29.27 324.5,-19.27 321,-29.27 328,-29.27"/>
</a>
</g>
</g>
<!-- Node2&#45;&gt;Node5 -->
<g id="edge4_Node000002_Node000005" class="edge">
<title>Node2&#45;&gt;Node5</title>
<g id="a_edge4_Node000002_Node000005"><a xlink:title=" ">
<path fill="none" stroke="#63b8ff" d="M378.81,-58.34C440.56,-46.22 539.36,-26.82 590.11,-16.86"/>
<polygon fill="#63b8ff" stroke="#63b8ff" points="591.04,-20.24 600.17,-14.88 589.69,-13.37 591.04,-20.24"/>
</a>
</g>
</g>
<!-- Node6&#45;&gt;Node2 -->
<g id="edge6_Node000006_Node000002" class="edge">
<title>Node6&#45;&gt;Node2</title>
<g id="a_edge6_Node000006_Node000002"><a xlink:title=" ">
<path fill="none" stroke="#63b8ff" d="M136.77,-126.37C169.97,-116.58 224.93,-100.37 266.83,-88.01"/>
<polygon fill="#63b8ff" stroke="#63b8ff" points="268.04,-91.3 276.64,-85.12 266.06,-84.59 268.04,-91.3"/>
</a>
</g>
</g>
<!-- Node6&#45;&gt;Node3 -->
<g id="edge7_Node000006_Node000003" class="edge">
<title>Node6&#45;&gt;Node3</title>
<g id="a_edge7_Node000006_Node000003"><a xlink:title=" ">
<path fill="none" stroke="#63b8ff" d="M103.58,-126.44C94.35,-106.27 71.07,-55.42 58.63,-28.26"/>
<polygon fill="#63b8ff" stroke="#63b8ff" points="61.79,-26.75 54.45,-19.12 55.43,-29.67 61.79,-26.75"/>
</a>
</g>
</g>
<!-- Node7 -->
<g id="Node000007" class="node">
<title>Node7</title>
<g id="a_Node000007"><a xlink:title=" ">
<polygon fill="#e0e0e0" stroke="#999999" points="204,-79.5 159,-79.5 159,-60.5 204,-60.5 204,-79.5"/>
<text text-anchor="middle" x="181.5" y="-67.5" font-family="Helvetica,sans-Serif" font-size="10.00">utility</text>
</a>
</g>
</g>
<!-- Node6&#45;&gt;Node7 -->
<g id="edge8_Node000006_Node000007" class="edge">
<title>Node6&#45;&gt;Node7</title>
<g id="a_edge8_Node000006_Node000007"><a xlink:title=" ">
<path fill="none" stroke="#63b8ff" d="M117.48,-126.37C129.22,-116.21 148.94,-99.16 163.4,-86.65"/>
<polygon fill="#63b8ff" stroke="#63b8ff" points="165.93,-89.09 171.2,-79.91 161.35,-83.8 165.93,-89.09"/>
</a>
</g>
</g>
<!-- Node8&#45;&gt;Node2 -->
<g id="edge12_Node000008_Node000002" class="edge">
<title>Node8&#45;&gt;Node2</title>
<g id="a_edge12_Node000008_Node000002"><a xlink:title=" ">
<path fill="none" stroke="#63b8ff" d="M391.58,-186.88C374.91,-178.75 356.35,-166.93 344.5,-151 332.52,-134.89 327.66,-112.41 325.72,-95.39"/>
<polygon fill="#63b8ff" stroke="#63b8ff" points="329.18,-94.76 324.82,-85.1 322.2,-95.37 329.18,-94.76"/>
</a>
</g>
</g>
<!-- Node8&#45;&gt;Node3 -->
<g id="edge14_Node000008_Node000003" class="edge">
<title>Node8&#45;&gt;Node3</title>
<g id="a_edge14_Node000008_Node000003"><a xlink:title=" ">
<path fill="none" stroke="#63b8ff" d="M365.31,-197.43C260.19,-190.83 58.78,-175.18 37.5,-151 7.24,-116.62 28.11,-57.52 41.57,-28.15"/>
<polygon fill="#63b8ff" stroke="#63b8ff" points="44.75,-29.61 45.93,-19.08 38.44,-26.58 44.75,-29.61"/>
</a>
</g>
</g>
<!-- Node8&#45;&gt;Node5 -->
<g id="edge17_Node000008_Node000005" class="edge">
<title>Node8&#45;&gt;Node5</title>
<g id="a_edge17_Node000008_Node000005"><a xlink:title=" ">
<path fill="none" stroke="#63b8ff" d="M491.83,-199.47C529.84,-195.03 576,-182.78 603.5,-151 633.22,-116.66 629.97,-58.84 625.84,-29.22"/>
<polygon fill="#63b8ff" stroke="#63b8ff" points="629.24,-28.36 624.22,-19.04 622.33,-29.46 629.24,-28.36"/>
</a>
</g>
</g>
<!-- Node8&#45;&gt;Node6 -->
<g id="edge13_Node000008_Node000006" class="edge">
<title>Node8&#45;&gt;Node6</title>
<g id="a_edge13_Node000008_Node000006"><a xlink:title=" ">
<path fill="none" stroke="#63b8ff" d="M365.32,-188.43C314.56,-178.32 241.44,-163.76 177.5,-151 171.82,-149.87 165.87,-148.68 159.95,-147.5"/>
<polygon fill="#63b8ff" stroke="#63b8ff" points="160.56,-144.05 150.07,-145.52 159.19,-150.91 160.56,-144.05"/>
</a>
</g>
</g>
<!-- Node8&#45;&gt;Node7 -->
<g id="edge18_Node000008_Node000007" class="edge">
<title>Node8&#45;&gt;Node7</title>
<g id="a_edge18_Node000008_Node000007"><a xlink:title=" ">
<path fill="none" stroke="#63b8ff" d="M429.35,-186.99C429.63,-169.11 427.22,-138.41 409.5,-121 402.5,-114.12 275.45,-89 214.11,-77.2"/>
<polygon fill="#63b8ff" stroke="#63b8ff" points="214.64,-73.74 204.16,-75.3 213.32,-80.62 214.64,-73.74"/>
</a>
</g>
</g>
<!-- Node9 -->
<g id="Node000009" class="node">
<title>Node9</title>
<g id="a_Node000009"><a xlink:title=" ">
<polygon fill="#e0e0e0" stroke="#999999" points="594.5,-145.5 456.5,-145.5 456.5,-126.5 594.5,-126.5 594.5,-145.5"/>
<text text-anchor="middle" x="525.5" y="-133.5" font-family="Helvetica,sans-Serif" font-size="10.00">deal.II/base/exceptions.h</text>
</a>
</g>
</g>
<!-- Node8&#45;&gt;Node9 -->
<g id="edge10_Node000008_Node000009" class="edge">
<title>Node8&#45;&gt;Node9</title>
<g id="a_edge10_Node000008_Node000009"><a xlink:title=" ">
<path fill="none" stroke="#63b8ff" d="M450.03,-186.8C465.98,-176.27 487.65,-161.97 503.68,-151.4"/>
<polygon fill="#63b8ff" stroke="#63b8ff" points="505.96,-154.09 512.38,-145.66 502.1,-148.24 505.96,-154.09"/>
</a>
</g>
</g>
<!-- Node10 -->
<g id="Node000010" class="node">
<title>Node10</title>
<g id="a_Node000010"><a xlink:title=" ">
<polygon fill="#e0e0e0" stroke="#999999" points="296,-151 187,-151 187,-121 296,-121 296,-151"/>
<text text-anchor="start" x="195" y="-139" font-family="Helvetica,sans-Serif" font-size="10.00">deal.II/matrix_free</text>
<text text-anchor="middle" x="241.5" y="-128" font-family="Helvetica,sans-Serif" font-size="10.00">/evaluation_flags.h</text>
</a>
</g>
</g>
<!-- Node8&#45;&gt;Node10 -->
<g id="edge11_Node000008_Node000010" class="edge">
<title>Node8&#45;&gt;Node10</title>
<g id="a_edge11_Node000008_Node000010"><a xlink:title=" ">
<path fill="none" stroke="#63b8ff" d="M387.46,-186.95C359.45,-177.37 322.15,-164.6 292.27,-154.37"/>
<polygon fill="#63b8ff" stroke="#63b8ff" points="293.04,-150.94 282.44,-151.01 290.77,-157.56 293.04,-150.94"/>
</a>
</g>
</g>
<!-- Node8&#45;&gt;Node11 -->
<g id="edge15_Node000008_Node000011" class="edge">
<title>Node8&#45;&gt;Node11</title>
<g id="a_edge15_Node000008_Node000011"><a xlink:title=" ">
<path fill="none" stroke="#63b8ff" d="M491.6,-188.67C533.24,-179.85 588.71,-166.76 636.5,-151 638.13,-150.46 639.78,-149.88 641.45,-149.27"/>
<polygon fill="#63b8ff" stroke="#63b8ff" points="642.85,-152.48 650.86,-145.54 640.27,-145.97 642.85,-152.48"/>
</a>
</g>
</g>
<!-- Node8&#45;&gt;Node12 -->
<g id="edge16_Node000008_Node000012" class="edge">
<title>Node8&#45;&gt;Node12</title>
<g id="a_edge16_Node000008_Node000012"><a xlink:title=" ">
<path fill="none" stroke="#63b8ff" d="M491.73,-195.14C547.23,-188.63 629.49,-175.6 697.5,-151 698.36,-150.69 699.22,-150.35 700.09,-149.99"/>
<polygon fill="#63b8ff" stroke="#63b8ff" points="701.7,-153.1 709.13,-145.54 698.61,-146.82 701.7,-153.1"/>
</a>
</g>
</g>
<!-- Node13 -->
<g id="Node000013" class="node">
<title>Node13</title>
<g id="a_Node000013"><a xlink:title=" ">
<polygon fill="#e0e0e0" stroke="#999999" points="400,-145.5 353,-145.5 353,-126.5 400,-126.5 400,-145.5"/>
<text text-anchor="middle" x="376.5" y="-133.5" font-family="Helvetica,sans-Serif" font-size="10.00">vector</text>
</a>
</g>
</g>
<!-- Node8&#45;&gt;Node13 -->
<g id="edge19_Node000008_Node000013" class="edge">
<title>Node8&#45;&gt;Node13</title>
<g id="a_edge19_Node000008_Node000013"><a xlink:title=" ">
<path fill="none" stroke="#63b8ff" d="M416.96,-186.8C409.01,-177.01 398.42,-163.98 390.07,-153.7"/>
<polygon fill="#63b8ff" stroke="#63b8ff" points="392.71,-151.4 383.69,-145.84 387.28,-155.81 392.71,-151.4"/>
</a>
</g>
</g>
</g>
</svg>
