<?xml version="1.0" encoding="UTF-8" standalone="no"?>
<!DOCTYPE svg PUBLIC "-//W3C//DTD SVG 1.1//EN"
 "http://www.w3.org/Graphics/SVG/1.1/DTD/svg11.dtd">
<!-- Generated by graphviz version 2.43.0 (0)
 -->
<!-- Title: /home/runner/work/phaseField/phaseField/src/core/variable_attribute_loader.cc Pages: 1 -->
<svg width="2533pt" height="368pt"
 viewBox="0.00 0.00 2533.00 368.00" xmlns="http://www.w3.org/2000/svg" xmlns:xlink="http://www.w3.org/1999/xlink">
<g id="graph0" class="graph" transform="scale(1 1) rotate(0) translate(4 364)">
<title>/home/runner/work/phaseField/phaseField/src/core/variable_attribute_loader.cc</title>
<!-- Node1 -->
<g id="Node000001" class="node">
<title>Node1</title>
<g id="a_Node000001"><a xlink:title=" ">
<polygon fill="#999999" stroke="#666666" points="747,-360 583,-360 583,-319 747,-319 747,-360"/>
<text text-anchor="start" x="591" y="-348" font-family="Helvetica,sans-Serif" font-size="10.00">/home/runner/work/phaseField</text>
<text text-anchor="start" x="591" y="-337" font-family="Helvetica,sans-Serif" font-size="10.00">/phaseField/src/core/variable</text>
<text text-anchor="middle" x="665" y="-326" font-family="Helvetica,sans-Serif" font-size="10.00">_attribute_loader.cc</text>
</a>
</g>
</g>
<!-- Node2 -->
<g id="Node000002" class="node">
<title>Node2</title>
<g id="a_Node000002"><a xlink:title=" ">
<polygon fill="#e0e0e0" stroke="#999999" points="114,-277.5 0,-277.5 0,-258.5 114,-258.5 114,-277.5"/>
<text text-anchor="middle" x="57" y="-265.5" font-family="Helvetica,sans-Serif" font-size="10.00">deal.II/base/config.h</text>
</a>
</g>
</g>
<!-- Node1&#45;&gt;Node2 -->
<g id="edge1_Node000001_Node000002" class="edge">
<title>Node1&#45;&gt;Node2</title>
<g id="a_edge1_Node000001_Node000002"><a xlink:title=" ">
<path fill="none" stroke="#63b8ff" d="M582.83,-332.36C477.22,-323.94 288.35,-307.04 128,-283 121.24,-281.99 114.14,-280.77 107.16,-279.48"/>
<polygon fill="#63b8ff" stroke="#63b8ff" points="107.54,-276 97.07,-277.57 106.24,-282.87 107.54,-276"/>
</a>
</g>
</g>
<!-- Node3 -->
<g id="Node000003" class="node">
<title>Node3</title>
<g id="a_Node000003"><a xlink:title=" ">
<polygon fill="#e0e0e0" stroke="#999999" points="1026,-145.5 888,-145.5 888,-126.5 1026,-126.5 1026,-145.5"/>
<text text-anchor="middle" x="957" y="-133.5" font-family="Helvetica,sans-Serif" font-size="10.00">deal.II/base/exceptions.h</text>
</a>
</g>
</g>
<!-- Node1&#45;&gt;Node3 -->
<g id="edge2_Node000001_Node000003" class="edge">
<title>Node1&#45;&gt;Node3</title>
<g id="a_edge2_Node000001_Node000003"><a xlink:title=" ">
<path fill="none" stroke="#63b8ff" d="M721.75,-318.99C745.3,-309.71 772.36,-297.47 795,-283 855.69,-244.23 915.64,-182.46 942.43,-153.28"/>
<polygon fill="#63b8ff" stroke="#63b8ff" points="945.23,-155.4 949.37,-145.65 940.05,-150.7 945.23,-155.4"/>
</a>
</g>
</g>
<!-- Node4 -->
<g id="Node000004" class="node">
<title>Node4</title>
<g id="a_Node000004"><a xlink:title=" ">
<polygon fill="#e0e0e0" stroke="#999999" points="292,-277.5 170,-277.5 170,-258.5 292,-258.5 292,-277.5"/>
<text text-anchor="middle" x="231" y="-265.5" font-family="Helvetica,sans-Serif" font-size="10.00">deal.II/base/utilities.h</text>
</a>
</g>
</g>
<!-- Node1&#45;&gt;Node4 -->
<g id="edge3_Node000001_Node000004" class="edge">
<title>Node1&#45;&gt;Node4</title>
<g id="a_edge3_Node000001_Node000004"><a xlink:title=" ">
<path fill="none" stroke="#63b8ff" d="M582.9,-326.55C510.06,-315.77 400.81,-299.17 306,-283 299.33,-281.86 292.34,-280.62 285.42,-279.36"/>
<polygon fill="#63b8ff" stroke="#63b8ff" points="285.84,-275.88 275.38,-277.52 284.58,-282.77 285.84,-275.88"/>
</a>
</g>
</g>
<!-- Node5 -->
<g id="Node000005" class="node">
<title>Node5</title>
<g id="a_Node000005"><a xlink:title=" ">
<polygon fill="#e0e0e0" stroke="#999999" points="1153.5,-151 1044.5,-151 1044.5,-121 1153.5,-121 1153.5,-151"/>
<text text-anchor="start" x="1052.5" y="-139" font-family="Helvetica,sans-Serif" font-size="10.00">deal.II/matrix_free</text>
<text text-anchor="middle" x="1099" y="-128" font-family="Helvetica,sans-Serif" font-size="10.00">/evaluation_flags.h</text>
</a>
</g>
</g>
<!-- Node1&#45;&gt;Node5 -->
<g id="edge4_Node000001_Node000005" class="edge">
<title>Node1&#45;&gt;Node5</title>
<g id="a_edge4_Node000001_Node000005"><a xlink:title=" ">
<path fill="none" stroke="#63b8ff" d="M731.01,-318.98C761.31,-309.3 797.45,-296.75 829,-283 918.45,-244.02 1018.07,-186.11 1067.55,-156.29"/>
<polygon fill="#63b8ff" stroke="#63b8ff" points="1069.45,-159.23 1076.19,-151.06 1065.82,-153.24 1069.45,-159.23"/>
</a>
</g>
</g>
<!-- Node6 -->
<g id="Node000006" class="node">
<title>Node6</title>
<g id="a_Node000006"><a xlink:href="type__enums_8h.html" target="_top" xlink:title=" ">
<polygon fill="white" stroke="#666666" points="506,-85 398,-85 398,-55 506,-55 506,-85"/>
<text text-anchor="start" x="406" y="-73" font-family="Helvetica,sans-Serif" font-size="10.00">prismspf/core/type</text>
<text text-anchor="middle" x="452" y="-62" font-family="Helvetica,sans-Serif" font-size="10.00">_enums.h</text>
</a>
</g>
</g>
<!-- Node1&#45;&gt;Node6 -->
<g id="edge5_Node000001_Node000006" class="edge">
<title>Node1&#45;&gt;Node6</title>
<g id="a_edge5_Node000001_Node000006"><a xlink:title=" ">
<path fill="none" stroke="#63b8ff" d="M582.92,-327.93C520.75,-318.52 441.78,-303.14 416,-283 356.92,-236.84 332.12,-186.27 369,-121 376.53,-107.67 389.2,-97.5 402.39,-89.93"/>
<polygon fill="#63b8ff" stroke="#63b8ff" points="404.35,-92.85 411.56,-85.09 401.08,-86.66 404.35,-92.85"/>
</a>
</g>
</g>
<!-- Node7 -->
<g id="Node000007" class="node">
<title>Node7</title>
<g id="a_Node000007"><a xlink:title=" ">
<polygon fill="#e0e0e0" stroke="#999999" points="844.5,-19 743.5,-19 743.5,0 844.5,0 844.5,-19"/>
<text text-anchor="middle" x="794" y="-7" font-family="Helvetica,sans-Serif" font-size="10.00">prismspf/config.h</text>
</a>
</g>
</g>
<!-- Node1&#45;&gt;Node7 -->
<g id="edge48_Node000001_Node000007" class="edge">
<title>Node1&#45;&gt;Node7</title>
<g id="a_edge48_Node000001_Node000007"><a xlink:title=" ">
<path fill="none" stroke="#63b8ff" d="M747,-335.98C1076.32,-325.35 2285,-281.01 2285,-203 2285,-203 2285,-203 2285,-135 2285,-71.51 2914.37,-190.67 2024,-55 1794.73,-20.07 1069.92,-12.38 854.78,-10.85"/>
<polygon fill="#63b8ff" stroke="#63b8ff" points="854.64,-7.35 844.62,-10.78 854.6,-14.35 854.64,-7.35"/>
</a>
</g>
</g>
<!-- Node9 -->
<g id="Node000009" class="node">
<title>Node9</title>
<g id="a_Node000009"><a xlink:title=" ">
<polygon fill="#e0e0e0" stroke="#999999" points="506,-19 462,-19 462,0 506,0 506,-19"/>
<text text-anchor="middle" x="484" y="-7" font-family="Helvetica,sans-Serif" font-size="10.00">string</text>
</a>
</g>
</g>
<!-- Node1&#45;&gt;Node9 -->
<g id="edge52_Node000001_Node000009" class="edge">
<title>Node1&#45;&gt;Node9</title>
<g id="a_edge52_Node000001_Node000009"><a xlink:title=" ">
<path fill="none" stroke="#63b8ff" d="M582.97,-334.59C448.26,-327.42 191.94,-310.34 161,-283 133.61,-258.8 142,-239.54 142,-203 142,-203 142,-203 142,-135 142,-118.59 367.35,-46.79 452.2,-20.33"/>
<polygon fill="#63b8ff" stroke="#63b8ff" points="453.31,-23.65 461.82,-17.34 451.24,-16.97 453.31,-23.65"/>
</a>
</g>
</g>
<!-- Node10 -->
<g id="Node000010" class="node">
<title>Node10</title>
<g id="a_Node000010"><a xlink:href="types_8h.html" target="_top" xlink:title=" ">
<polygon fill="white" stroke="#666666" points="564,-145.5 442,-145.5 442,-126.5 564,-126.5 564,-145.5"/>
<text text-anchor="middle" x="503" y="-133.5" font-family="Helvetica,sans-Serif" font-size="10.00">prismspf/core/types.h</text>
</a>
</g>
</g>
<!-- Node1&#45;&gt;Node10 -->
<g id="edge9_Node000001_Node000010" class="edge">
<title>Node1&#45;&gt;Node10</title>
<g id="a_edge9_Node000001_Node000010"><a xlink:title=" ">
<path fill="none" stroke="#63b8ff" d="M582.75,-331.43C550.96,-324.21 517.57,-310.13 498,-283 470.38,-244.71 485.57,-184.92 495.92,-155.13"/>
<polygon fill="#63b8ff" stroke="#63b8ff" points="499.25,-156.2 499.42,-145.61 492.68,-153.78 499.25,-156.2"/>
</a>
</g>
</g>
<!-- Node11 -->
<g id="Node000011" class="node">
<title>Node11</title>
<g id="a_Node000011"><a xlink:title=" ">
<polygon fill="#e0e0e0" stroke="#999999" points="569.5,-79.5 524.5,-79.5 524.5,-60.5 569.5,-60.5 569.5,-79.5"/>
<text text-anchor="middle" x="547" y="-67.5" font-family="Helvetica,sans-Serif" font-size="10.00">utility</text>
</a>
</g>
</g>
<!-- Node1&#45;&gt;Node11 -->
<g id="edge53_Node000001_Node000011" class="edge">
<title>Node1&#45;&gt;Node11</title>
<g id="a_edge53_Node000001_Node000011"><a xlink:title=" ">
<path fill="none" stroke="#63b8ff" d="M582.98,-332.38C540.33,-325.66 489.44,-311.73 452,-283 398.47,-241.92 394.24,-216.24 377,-151 373.59,-138.11 368.85,-131.55 377,-121 415.75,-70.84 455.11,-105.77 515,-85 516.4,-84.52 517.82,-84 519.24,-83.45"/>
<polygon fill="#63b8ff" stroke="#63b8ff" points="520.65,-86.66 528.58,-79.65 518,-80.18 520.65,-86.66"/>
</a>
</g>
</g>
<!-- Node12 -->
<g id="Node000012" class="node">
<title>Node12</title>
<g id="a_Node000012"><a xlink:href="variable__attribute__loader_8h.html" target="_top" xlink:title=" ">
<polygon fill="white" stroke="#666666" points="633,-283 507,-283 507,-253 633,-253 633,-283"/>
<text text-anchor="start" x="515" y="-271" font-family="Helvetica,sans-Serif" font-size="10.00">prismspf/core/variable</text>
<text text-anchor="middle" x="570" y="-260" font-family="Helvetica,sans-Serif" font-size="10.00">_attribute_loader.h</text>
</a>
</g>
</g>
<!-- Node1&#45;&gt;Node12 -->
<g id="edge13_Node000001_Node000012" class="edge">
<title>Node1&#45;&gt;Node12</title>
<g id="a_edge13_Node000001_Node000012"><a xlink:title=" ">
<path fill="none" stroke="#63b8ff" d="M638.28,-318.96C625.62,-309.69 610.5,-298.63 597.71,-289.27"/>
<polygon fill="#63b8ff" stroke="#63b8ff" points="599.43,-286.19 589.29,-283.11 595.3,-291.84 599.43,-286.19"/>
</a>
</g>
</g>
<!-- Node13 -->
<g id="Node000013" class="node">
<title>Node13</title>
<g id="a_Node000013"><a xlink:href="variable__attributes_8h.html" target="_top" xlink:title=" ">
<polygon fill="white" stroke="#666666" points="819,-217 693,-217 693,-187 819,-187 819,-217"/>
<text text-anchor="start" x="701" y="-205" font-family="Helvetica,sans-Serif" font-size="10.00">prismspf/core/variable</text>
<text text-anchor="middle" x="756" y="-194" font-family="Helvetica,sans-Serif" font-size="10.00">_attributes.h</text>
</a>
</g>
</g>
<!-- Node1&#45;&gt;Node13 -->
<g id="edge31_Node000001_Node000013" class="edge">
<title>Node1&#45;&gt;Node13</title>
<g id="a_edge31_Node000001_Node000013"><a xlink:title=" ">
<path fill="none" stroke="#63b8ff" d="M678.23,-318.8C694.81,-294.11 723.17,-251.89 740.67,-225.82"/>
<polygon fill="#63b8ff" stroke="#63b8ff" points="743.71,-227.58 746.38,-217.33 737.9,-223.68 743.71,-227.58"/>
</a>
</g>
</g>
<!-- Node14 -->
<g id="Node000014" class="node">
<title>Node14</title>
<g id="a_Node000014"><a xlink:title=" ">
<polygon fill="#e0e0e0" stroke="#999999" points="424,-145.5 386,-145.5 386,-126.5 424,-126.5 424,-145.5"/>
<text text-anchor="middle" x="405" y="-133.5" font-family="Helvetica,sans-Serif" font-size="10.00">map</text>
</a>
</g>
</g>
<!-- Node1&#45;&gt;Node14 -->
<g id="edge49_Node000001_Node000014" class="edge">
<title>Node1&#45;&gt;Node14</title>
<g id="a_edge49_Node000001_Node000014"><a xlink:title=" ">
<path fill="none" stroke="#63b8ff" d="M582.69,-328.1C548.25,-320.32 509.65,-306.74 481,-283 439.84,-248.9 418.26,-186.7 409.62,-155.66"/>
<polygon fill="#63b8ff" stroke="#63b8ff" points="412.93,-154.52 407,-145.74 406.17,-156.3 412.93,-154.52"/>
</a>
</g>
</g>
<!-- Node15 -->
<g id="Node000015" class="node">
<title>Node15</title>
<g id="a_Node000015"><a xlink:title=" ">
<polygon fill="#e0e0e0" stroke="#999999" points="652,-145.5 620,-145.5 620,-126.5 652,-126.5 652,-145.5"/>
<text text-anchor="middle" x="636" y="-133.5" font-family="Helvetica,sans-Serif" font-size="10.00">set</text>
</a>
</g>
</g>
<!-- Node1&#45;&gt;Node15 -->
<g id="edge50_Node000001_Node000015" class="edge">
<title>Node1&#45;&gt;Node15</title>
<g id="a_edge50_Node000001_Node000015"><a xlink:title=" ">
<path fill="none" stroke="#63b8ff" d="M662.17,-318.81C656.59,-280.04 644.24,-194.26 638.74,-156.03"/>
<polygon fill="#63b8ff" stroke="#63b8ff" points="642.15,-155.2 637.27,-145.8 635.23,-156.19 642.15,-155.2"/>
</a>
</g>
</g>
<!-- Node16 -->
<g id="Node000016" class="node">
<title>Node16</title>
<g id="a_Node000016"><a xlink:title=" ">
<polygon fill="#e0e0e0" stroke="#999999" points="869.5,-145.5 822.5,-145.5 822.5,-126.5 869.5,-126.5 869.5,-145.5"/>
<text text-anchor="middle" x="846" y="-133.5" font-family="Helvetica,sans-Serif" font-size="10.00">vector</text>
</a>
</g>
</g>
<!-- Node1&#45;&gt;Node16 -->
<g id="edge54_Node000001_Node000016" class="edge">
<title>Node1&#45;&gt;Node16</title>
<g id="a_edge54_Node000001_Node000016"><a xlink:title=" ">
<path fill="none" stroke="#63b8ff" d="M705.74,-318.9C743.36,-298.65 797.83,-263.48 828,-217 839.97,-198.57 844.05,-173.27 845.4,-156.1"/>
<polygon fill="#63b8ff" stroke="#63b8ff" points="848.92,-155.86 845.96,-145.69 841.93,-155.48 848.92,-155.86"/>
</a>
</g>
</g>
<!-- Node17 -->
<g id="Node000017" class="node">
<title>Node17</title>
<g id="a_Node000017"><a xlink:href="utilities_8h.html" target="_top" xlink:title=" ">
<polygon fill="white" stroke="#666666" points="1550.5,-217 1451.5,-217 1451.5,-187 1550.5,-187 1550.5,-217"/>
<text text-anchor="start" x="1459.5" y="-205" font-family="Helvetica,sans-Serif" font-size="10.00">prismspf/utilities</text>
<text text-anchor="middle" x="1501" y="-194" font-family="Helvetica,sans-Serif" font-size="10.00">/utilities.h</text>
</a>
</g>
</g>
<!-- Node1&#45;&gt;Node17 -->
<g id="edge32_Node000001_Node000017" class="edge">
<title>Node1&#45;&gt;Node17</title>
<g id="a_edge32_Node000001_Node000017"><a xlink:title=" ">
<path fill="none" stroke="#63b8ff" d="M747.32,-327.07C823.95,-316.27 941.33,-299.34 1043,-283 1186.16,-259.99 1353.93,-229.88 1441.27,-213.97"/>
<polygon fill="#63b8ff" stroke="#63b8ff" points="1442.05,-217.38 1451.26,-212.14 1440.8,-210.5 1442.05,-217.38"/>
</a>
</g>
</g>
<!-- Node27 -->
<g id="Node000027" class="node">
<title>Node27</title>
<g id="a_Node000027"><a xlink:title=" ">
<polygon fill="#e0e0e0" stroke="#999999" points="2378.5,-277.5 2313.5,-277.5 2313.5,-258.5 2378.5,-258.5 2378.5,-277.5"/>
<text text-anchor="middle" x="2346" y="-265.5" font-family="Helvetica,sans-Serif" font-size="10.00">stdexcept</text>
</a>
</g>
</g>
<!-- Node1&#45;&gt;Node27 -->
<g id="edge51_Node000001_Node000027" class="edge">
<title>Node1&#45;&gt;Node27</title>
<g id="a_edge51_Node000001_Node000027"><a xlink:title=" ">
<path fill="none" stroke="#63b8ff" d="M747.04,-338.48C1034.54,-337.98 1995.4,-332.53 2299,-283 2303.16,-282.32 2307.47,-281.38 2311.71,-280.31"/>
<polygon fill="#63b8ff" stroke="#63b8ff" points="2312.7,-283.67 2321.4,-277.62 2310.82,-276.92 2312.7,-283.67"/>
</a>
</g>
</g>
<!-- Node28 -->
<g id="Node000028" class="node">
<title>Node28</title>
<g id="a_Node000028"><a xlink:title=" ">
<polygon fill="#e0e0e0" stroke="#999999" points="2525,-283 2397,-283 2397,-253 2525,-253 2525,-283"/>
<text text-anchor="start" x="2405" y="-271" font-family="Helvetica,sans-Serif" font-size="10.00">core/variable_attribute</text>
<text text-anchor="middle" x="2461" y="-260" font-family="Helvetica,sans-Serif" font-size="10.00">_loader.inst</text>
</a>
</g>
</g>
<!-- Node1&#45;&gt;Node28 -->
<g id="edge55_Node000001_Node000028" class="edge">
<title>Node1&#45;&gt;Node28</title>
<g id="a_edge55_Node000001_Node000028"><a xlink:title=" ">
<path fill="none" stroke="#63b8ff" d="M747.21,-337.57C1041.74,-333.96 2044.31,-319.33 2387.05,-282.95"/>
<polygon fill="#63b8ff" stroke="#63b8ff" points="2387.43,-286.43 2396.99,-281.87 2386.67,-279.47 2387.43,-286.43"/>
</a>
</g>
</g>
<!-- Node6&#45;&gt;Node7 -->
<g id="edge6_Node000006_Node000007" class="edge">
<title>Node6&#45;&gt;Node7</title>
<g id="a_edge6_Node000006_Node000007"><a xlink:title=" ">
<path fill="none" stroke="#63b8ff" d="M506.25,-56.73C509.21,-56.12 512.14,-55.55 515,-55 589.84,-40.73 676.58,-27.39 733.22,-19.11"/>
<polygon fill="#63b8ff" stroke="#63b8ff" points="734.05,-22.53 743.44,-17.62 733.04,-15.6 734.05,-22.53"/>
</a>
</g>
</g>
<!-- Node8 -->
<g id="Node000008" class="node">
<title>Node8</title>
<g id="a_Node000008"><a xlink:title=" ">
<polygon fill="#e0e0e0" stroke="#999999" points="444,-19 394,-19 394,0 444,0 444,-19"/>
<text text-anchor="middle" x="419" y="-7" font-family="Helvetica,sans-Serif" font-size="10.00">cstdint</text>
</a>
</g>
</g>
<!-- Node6&#45;&gt;Node8 -->
<g id="edge7_Node000006_Node000008" class="edge">
<title>Node6&#45;&gt;Node8</title>
<g id="a_edge7_Node000006_Node000008"><a xlink:title=" ">
<path fill="none" stroke="#63b8ff" d="M444.01,-54.84C439.47,-46.78 433.73,-36.62 428.9,-28.06"/>
<polygon fill="#63b8ff" stroke="#63b8ff" points="431.91,-26.26 423.94,-19.27 425.81,-29.7 431.91,-26.26"/>
</a>
</g>
</g>
<!-- Node6&#45;&gt;Node9 -->
<g id="edge8_Node000006_Node000009" class="edge">
<title>Node6&#45;&gt;Node9</title>
<g id="a_edge8_Node000006_Node000009"><a xlink:title=" ">
<path fill="none" stroke="#63b8ff" d="M459.75,-54.84C464.15,-46.78 469.71,-36.62 474.4,-28.06"/>
<polygon fill="#63b8ff" stroke="#63b8ff" points="477.48,-29.72 479.2,-19.27 471.34,-26.36 477.48,-29.72"/>
</a>
</g>
</g>
<!-- Node10&#45;&gt;Node6 -->
<g id="edge10_Node000010_Node000006" class="edge">
<title>Node10&#45;&gt;Node6</title>
<g id="a_edge10_Node000010_Node000006"><a xlink:title=" ">
<path fill="none" stroke="#63b8ff" d="M496.12,-126.37C489.38,-117.91 478.83,-104.67 469.73,-93.25"/>
<polygon fill="#63b8ff" stroke="#63b8ff" points="472.41,-91 463.44,-85.36 466.94,-95.36 472.41,-91"/>
</a>
</g>
</g>
<!-- Node10&#45;&gt;Node7 -->
<g id="edge11_Node000010_Node000007" class="edge">
<title>Node10&#45;&gt;Node7</title>
<g id="a_edge11_Node000010_Node000007"><a xlink:title=" ">
<path fill="none" stroke="#63b8ff" d="M523,-126.44C573.26,-104.94 705.02,-48.57 764.32,-23.2"/>
<polygon fill="#63b8ff" stroke="#63b8ff" points="766.04,-26.27 773.86,-19.12 763.29,-19.83 766.04,-26.27"/>
</a>
</g>
</g>
<!-- Node10&#45;&gt;Node11 -->
<g id="edge12_Node000010_Node000011" class="edge">
<title>Node10&#45;&gt;Node11</title>
<g id="a_edge12_Node000010_Node000011"><a xlink:title=" ">
<path fill="none" stroke="#63b8ff" d="M508.93,-126.37C515.59,-116.69 526.56,-100.74 535.01,-88.44"/>
<polygon fill="#63b8ff" stroke="#63b8ff" points="538.1,-90.13 540.88,-79.91 532.33,-86.16 538.1,-90.13"/>
</a>
</g>
</g>
<!-- Node12&#45;&gt;Node6 -->
<g id="edge14_Node000012_Node000006" class="edge">
<title>Node12&#45;&gt;Node6</title>
<g id="a_edge14_Node000012_Node000006"><a xlink:title=" ">
<path fill="none" stroke="#63b8ff" d="M518.31,-252.87C471.27,-236.86 405.03,-205.6 377,-151 370.91,-139.14 370.71,-132.76 377,-121 383.89,-108.12 395.73,-97.99 407.99,-90.31"/>
<polygon fill="#63b8ff" stroke="#63b8ff" points="410.02,-93.18 416.93,-85.15 406.52,-87.12 410.02,-93.18"/>
</a>
</g>
</g>
<!-- Node12&#45;&gt;Node7 -->
<g id="edge27_Node000012_Node000007" class="edge">
<title>Node12&#45;&gt;Node7</title>
<g id="a_edge27_Node000012_Node000007"><a xlink:title=" ">
<path fill="none" stroke="#63b8ff" d="M570.61,-252.61C572.47,-224.53 580.06,-161.64 611,-121 613.79,-117.34 722.04,-53.06 770.71,-24.26"/>
<polygon fill="#63b8ff" stroke="#63b8ff" points="772.78,-27.11 779.6,-19 769.21,-21.08 772.78,-27.11"/>
</a>
</g>
</g>
<!-- Node12&#45;&gt;Node9 -->
<g id="edge30_Node000012_Node000009" class="edge">
<title>Node12&#45;&gt;Node9</title>
<g id="a_edge30_Node000012_Node000009"><a xlink:title=" ">
<path fill="none" stroke="#63b8ff" d="M506.75,-260.48C472.53,-254.15 431.37,-241.65 402,-217 376.88,-195.92 376.53,-182.92 369,-151 358.99,-108.58 360.48,-87.95 389,-55 397.8,-44.83 428.05,-31.59 452.08,-22.2"/>
<polygon fill="#63b8ff" stroke="#63b8ff" points="453.5,-25.41 461.59,-18.56 451,-18.87 453.5,-25.41"/>
</a>
</g>
</g>
<!-- Node12&#45;&gt;Node10 -->
<g id="edge15_Node000012_Node000010" class="edge">
<title>Node12&#45;&gt;Node10</title>
<g id="a_edge15_Node000012_Node000010"><a xlink:title=" ">
<path fill="none" stroke="#63b8ff" d="M562.7,-252.84C550.43,-229.02 525.67,-180.99 512.21,-154.88"/>
<polygon fill="#63b8ff" stroke="#63b8ff" points="515.2,-153.03 507.51,-145.75 508.98,-156.24 515.2,-153.03"/>
</a>
</g>
</g>
<!-- Node12&#45;&gt;Node13 -->
<g id="edge16_Node000012_Node000013" class="edge">
<title>Node12&#45;&gt;Node13</title>
<g id="a_edge16_Node000012_Node000013"><a xlink:title=" ">
<path fill="none" stroke="#63b8ff" d="M610.82,-252.95C638.68,-243.37 675.78,-230.6 705.5,-220.37"/>
<polygon fill="#63b8ff" stroke="#63b8ff" points="706.96,-223.58 715.28,-217.01 704.68,-216.96 706.96,-223.58"/>
</a>
</g>
</g>
<!-- Node12&#45;&gt;Node14 -->
<g id="edge28_Node000012_Node000014" class="edge">
<title>Node12&#45;&gt;Node14</title>
<g id="a_edge28_Node000012_Node000014"><a xlink:title=" ">
<path fill="none" stroke="#63b8ff" d="M552.03,-252.84C520.73,-228.18 456.47,-177.56 424.28,-152.19"/>
<polygon fill="#63b8ff" stroke="#63b8ff" points="426.12,-149.19 416.1,-145.75 421.79,-154.69 426.12,-149.19"/>
</a>
</g>
</g>
<!-- Node12&#45;&gt;Node15 -->
<g id="edge29_Node000012_Node000015" class="edge">
<title>Node12&#45;&gt;Node15</title>
<g id="a_edge29_Node000012_Node000015"><a xlink:title=" ">
<path fill="none" stroke="#63b8ff" d="M580.59,-252.58C587.48,-242.83 596.38,-229.5 603,-217 613.85,-196.53 623.6,-171.69 629.64,-155.17"/>
<polygon fill="#63b8ff" stroke="#63b8ff" points="632.98,-156.25 633.05,-145.65 626.39,-153.89 632.98,-156.25"/>
</a>
</g>
</g>
<!-- Node13&#45;&gt;Node3 -->
<g id="edge17_Node000013_Node000003" class="edge">
<title>Node13&#45;&gt;Node3</title>
<g id="a_edge17_Node000013_Node000003"><a xlink:title=" ">
<path fill="none" stroke="#63b8ff" d="M800.11,-186.95C836.14,-175.48 886.46,-159.46 920.31,-148.68"/>
<polygon fill="#63b8ff" stroke="#63b8ff" points="921.78,-151.89 930.25,-145.52 919.66,-145.22 921.78,-151.89"/>
</a>
</g>
</g>
<!-- Node13&#45;&gt;Node5 -->
<g id="edge18_Node000013_Node000005" class="edge">
<title>Node13&#45;&gt;Node5</title>
<g id="a_edge18_Node000013_Node000005"><a xlink:title=" ">
<path fill="none" stroke="#63b8ff" d="M819.01,-190.41C873.32,-181.12 954.08,-166.93 1033.97,-151.16"/>
<polygon fill="#63b8ff" stroke="#63b8ff" points="1035.09,-154.51 1044.22,-149.13 1033.73,-147.64 1035.09,-154.51"/>
</a>
</g>
</g>
<!-- Node13&#45;&gt;Node6 -->
<g id="edge19_Node000013_Node000006" class="edge">
<title>Node13&#45;&gt;Node6</title>
<g id="a_edge19_Node000013_Node000006"><a xlink:title=" ">
<path fill="none" stroke="#63b8ff" d="M737.86,-186.84C725.38,-176.97 708.49,-163.41 694,-151 678.95,-138.11 678.52,-130.26 661,-121 654.43,-117.53 575.13,-99.02 516.14,-85.53"/>
<polygon fill="#63b8ff" stroke="#63b8ff" points="516.65,-82.06 506.12,-83.24 515.09,-88.88 516.65,-82.06"/>
</a>
</g>
</g>
<!-- Node13&#45;&gt;Node7 -->
<g id="edge21_Node000013_Node000007" class="edge">
<title>Node13&#45;&gt;Node7</title>
<g id="a_edge21_Node000013_Node000007"><a xlink:title=" ">
<path fill="none" stroke="#63b8ff" d="M760.44,-186.66C763.42,-176.72 767.27,-163.14 770,-151 779.73,-107.69 787.61,-56.1 791.45,-29.09"/>
<polygon fill="#63b8ff" stroke="#63b8ff" points="794.93,-29.5 792.85,-19.11 788,-28.53 794.93,-29.5"/>
</a>
</g>
</g>
<!-- Node13&#45;&gt;Node9 -->
<g id="edge24_Node000013_Node000009" class="edge">
<title>Node13&#45;&gt;Node9</title>
<g id="a_edge24_Node000013_Node000009"><a xlink:title=" ">
<path fill="none" stroke="#63b8ff" d="M753.45,-186.84C749.63,-169.35 740.89,-139.65 723,-121 707.45,-104.79 574.88,-48.33 514.16,-22.98"/>
<polygon fill="#63b8ff" stroke="#63b8ff" points="515.29,-19.67 504.72,-19.05 512.6,-26.13 515.29,-19.67"/>
</a>
</g>
</g>
<!-- Node13&#45;&gt;Node10 -->
<g id="edge20_Node000013_Node000010" class="edge">
<title>Node13&#45;&gt;Node10</title>
<g id="a_edge20_Node000013_Node000010"><a xlink:title=" ">
<path fill="none" stroke="#63b8ff" d="M700.48,-186.95C654.15,-175.24 589.05,-158.77 546.46,-147.99"/>
<polygon fill="#63b8ff" stroke="#63b8ff" points="547.22,-144.58 536.67,-145.52 545.51,-151.36 547.22,-144.58"/>
</a>
</g>
</g>
<!-- Node13&#45;&gt;Node11 -->
<g id="edge25_Node000013_Node000011" class="edge">
<title>Node13&#45;&gt;Node11</title>
<g id="a_edge25_Node000013_Node000011"><a xlink:title=" ">
<path fill="none" stroke="#63b8ff" d="M748.48,-186.79C738.36,-168.98 718.75,-138.65 694,-121 659.2,-96.17 611.11,-82.92 579.55,-76.43"/>
<polygon fill="#63b8ff" stroke="#63b8ff" points="580,-72.95 569.52,-74.48 578.67,-79.82 580,-72.95"/>
</a>
</g>
</g>
<!-- Node13&#45;&gt;Node14 -->
<g id="edge22_Node000013_Node000014" class="edge">
<title>Node13&#45;&gt;Node14</title>
<g id="a_edge22_Node000013_Node000014"><a xlink:title=" ">
<path fill="none" stroke="#63b8ff" d="M692.76,-197.02C626.66,-191.53 520.58,-178.92 433,-151 431.78,-150.61 430.54,-150.17 429.3,-149.7"/>
<polygon fill="#63b8ff" stroke="#63b8ff" points="430.6,-146.45 420.04,-145.59 427.76,-152.85 430.6,-146.45"/>
</a>
</g>
</g>
<!-- Node13&#45;&gt;Node15 -->
<g id="edge23_Node000013_Node000015" class="edge">
<title>Node13&#45;&gt;Node15</title>
<g id="a_edge23_Node000013_Node000015"><a xlink:title=" ">
<path fill="none" stroke="#63b8ff" d="M729.67,-186.95C709.18,-176.03 680.94,-160.97 660.84,-150.25"/>
<polygon fill="#63b8ff" stroke="#63b8ff" points="662.44,-147.14 651.97,-145.52 659.15,-153.31 662.44,-147.14"/>
</a>
</g>
</g>
<!-- Node13&#45;&gt;Node16 -->
<g id="edge26_Node000013_Node000016" class="edge">
<title>Node13&#45;&gt;Node16</title>
<g id="a_edge26_Node000013_Node000016"><a xlink:title=" ">
<path fill="none" stroke="#63b8ff" d="M775.97,-186.8C790.64,-176.37 810.51,-162.24 825.34,-151.69"/>
<polygon fill="#63b8ff" stroke="#63b8ff" points="827.7,-154.31 833.82,-145.66 823.65,-148.6 827.7,-154.31"/>
</a>
</g>
</g>
<!-- Node17&#45;&gt;Node3 -->
<g id="edge33_Node000017_Node000003" class="edge">
<title>Node17&#45;&gt;Node3</title>
<g id="a_edge33_Node000017_Node000003"><a xlink:title=" ">
<path fill="none" stroke="#63b8ff" d="M1451.31,-196.78C1366.11,-189.29 1186.72,-172.43 1036,-151 1028.24,-149.9 1020.08,-148.6 1012.07,-147.25"/>
<polygon fill="#63b8ff" stroke="#63b8ff" points="1012.48,-143.77 1002.03,-145.53 1011.3,-150.67 1012.48,-143.77"/>
</a>
</g>
</g>
<!-- Node17&#45;&gt;Node5 -->
<g id="edge37_Node000017_Node000005" class="edge">
<title>Node17&#45;&gt;Node5</title>
<g id="a_edge37_Node000017_Node000005"><a xlink:title=" ">
<path fill="none" stroke="#63b8ff" d="M1451.22,-194.34C1386.01,-185.42 1268.17,-168.67 1168,-151 1166.53,-150.74 1165.05,-150.48 1163.55,-150.2"/>
<polygon fill="#63b8ff" stroke="#63b8ff" points="1164.04,-146.73 1153.56,-148.34 1162.75,-153.61 1164.04,-146.73"/>
</a>
</g>
</g>
<!-- Node17&#45;&gt;Node7 -->
<g id="edge40_Node000017_Node000007" class="edge">
<title>Node17&#45;&gt;Node7</title>
<g id="a_edge40_Node000017_Node000007"><a xlink:title=" ">
<path fill="none" stroke="#63b8ff" d="M1546.63,-186.94C1585.7,-172.61 1632.11,-148.6 1608,-121 1558.39,-64.2 1035.06,-25.83 854.69,-14.2"/>
<polygon fill="#63b8ff" stroke="#63b8ff" points="854.78,-10.7 844.58,-13.56 854.34,-17.69 854.78,-10.7"/>
</a>
</g>
</g>
<!-- Node17&#45;&gt;Node9 -->
<g id="edge42_Node000017_Node000009" class="edge">
<title>Node17&#45;&gt;Node9</title>
<g id="a_edge42_Node000017_Node000009"><a xlink:title=" ">
<path fill="none" stroke="#63b8ff" d="M1451.29,-200.01C1390.2,-197.17 1284.51,-186.93 1202,-151 1181.95,-142.27 1183.07,-129.69 1163,-121 930.35,-20.29 616.69,-10.62 516.31,-10.26"/>
<polygon fill="#63b8ff" stroke="#63b8ff" points="516.2,-6.76 506.2,-10.25 516.2,-13.76 516.2,-6.76"/>
</a>
</g>
</g>
<!-- Node18 -->
<g id="Node000018" class="node">
<title>Node18</title>
<g id="a_Node000018"><a xlink:title=" ">
<polygon fill="#e0e0e0" stroke="#999999" points="1921,-145.5 1811,-145.5 1811,-126.5 1921,-126.5 1921,-145.5"/>
<text text-anchor="middle" x="1866" y="-133.5" font-family="Helvetica,sans-Serif" font-size="10.00">deal.II/base/point.h</text>
</a>
</g>
</g>
<!-- Node17&#45;&gt;Node18 -->
<g id="edge34_Node000017_Node000018" class="edge">
<title>Node17&#45;&gt;Node18</title>
<g id="a_edge34_Node000017_Node000018"><a xlink:title=" ">
<path fill="none" stroke="#63b8ff" d="M1550.67,-193.54C1610.46,-184.38 1713.83,-167.96 1802,-151 1807.38,-149.97 1812.99,-148.83 1818.57,-147.66"/>
<polygon fill="#63b8ff" stroke="#63b8ff" points="1819.45,-151.05 1828.5,-145.54 1817.99,-144.2 1819.45,-151.05"/>
</a>
</g>
</g>
<!-- Node19 -->
<g id="Node000019" class="node">
<title>Node19</title>
<g id="a_Node000019"><a xlink:title=" ">
<polygon fill="#e0e0e0" stroke="#999999" points="2054.5,-145.5 1939.5,-145.5 1939.5,-126.5 2054.5,-126.5 2054.5,-145.5"/>
<text text-anchor="middle" x="1997" y="-133.5" font-family="Helvetica,sans-Serif" font-size="10.00">deal.II/base/tensor.h</text>
</a>
</g>
</g>
<!-- Node17&#45;&gt;Node19 -->
<g id="edge35_Node000017_Node000019" class="edge">
<title>Node17&#45;&gt;Node19</title>
<g id="a_edge35_Node000017_Node000019"><a xlink:title=" ">
<path fill="none" stroke="#63b8ff" d="M1550.74,-196.67C1630.89,-189.36 1793.45,-173.18 1930,-151 1936.23,-149.99 1942.77,-148.79 1949.21,-147.53"/>
<polygon fill="#63b8ff" stroke="#63b8ff" points="1950.09,-150.93 1959.2,-145.52 1948.7,-144.06 1950.09,-150.93"/>
</a>
</g>
</g>
<!-- Node20 -->
<g id="Node000020" class="node">
<title>Node20</title>
<g id="a_Node000020"><a xlink:title=" ">
<polygon fill="#e0e0e0" stroke="#999999" points="2014.5,-79.5 1865.5,-79.5 1865.5,-60.5 2014.5,-60.5 2014.5,-79.5"/>
<text text-anchor="middle" x="1940" y="-67.5" font-family="Helvetica,sans-Serif" font-size="10.00">deal.II/base/vectorization.h</text>
</a>
</g>
</g>
<!-- Node17&#45;&gt;Node20 -->
<g id="edge36_Node000017_Node000020" class="edge">
<title>Node17&#45;&gt;Node20</title>
<g id="a_edge36_Node000017_Node000020"><a xlink:title=" ">
<path fill="none" stroke="#63b8ff" d="M1550.74,-200.33C1681.93,-198.06 2029.68,-188.51 2064,-151 2092.52,-119.83 2032.85,-95.63 1986.77,-82.34"/>
<polygon fill="#63b8ff" stroke="#63b8ff" points="1987.46,-78.9 1976.88,-79.6 1985.58,-85.65 1987.46,-78.9"/>
</a>
</g>
</g>
<!-- Node21 -->
<g id="Node000021" class="node">
<title>Node21</title>
<g id="a_Node000021"><a xlink:title=" ">
<polygon fill="#e0e0e0" stroke="#999999" points="2257,-145.5 2111,-145.5 2111,-126.5 2257,-126.5 2257,-145.5"/>
<text text-anchor="middle" x="2184" y="-133.5" font-family="Helvetica,sans-Serif" font-size="10.00">boost/range/algorithm.hpp</text>
</a>
</g>
</g>
<!-- Node17&#45;&gt;Node21 -->
<g id="edge38_Node000017_Node000021" class="edge">
<title>Node17&#45;&gt;Node21</title>
<g id="a_edge38_Node000017_Node000021"><a xlink:title=" ">
<path fill="none" stroke="#63b8ff" d="M1550.58,-198.12C1652.94,-191.88 1894.99,-175.69 2097,-151 2106.14,-149.88 2115.8,-148.52 2125.22,-147.08"/>
<polygon fill="#63b8ff" stroke="#63b8ff" points="2125.98,-150.5 2135.32,-145.5 2124.9,-143.59 2125.98,-150.5"/>
</a>
</g>
</g>
<!-- Node22 -->
<g id="Node000022" class="node">
<title>Node22</title>
<g id="a_Node000022"><a xlink:title=" ">
<polygon fill="#e0e0e0" stroke="#999999" points="1335.5,-151 1210.5,-151 1210.5,-121 1335.5,-121 1335.5,-151"/>
<text text-anchor="start" x="1218.5" y="-139" font-family="Helvetica,sans-Serif" font-size="10.00">boost/range/algorithm</text>
<text text-anchor="middle" x="1273" y="-128" font-family="Helvetica,sans-Serif" font-size="10.00">_ext.hpp</text>
</a>
</g>
</g>
<!-- Node17&#45;&gt;Node22 -->
<g id="edge39_Node000017_Node000022" class="edge">
<title>Node17&#45;&gt;Node22</title>
<g id="a_edge39_Node000017_Node000022"><a xlink:title=" ">
<path fill="none" stroke="#63b8ff" d="M1451.25,-187.03C1416.36,-177.24 1369.57,-164.11 1332.68,-153.75"/>
<polygon fill="#63b8ff" stroke="#63b8ff" points="1333.61,-150.38 1323.04,-151.05 1331.72,-157.12 1333.61,-150.38"/>
</a>
</g>
</g>
<!-- Node23 -->
<g id="Node000023" class="node">
<title>Node23</title>
<g id="a_Node000023"><a xlink:title=" ">
<polygon fill="#e0e0e0" stroke="#999999" points="1396,-145.5 1354,-145.5 1354,-126.5 1396,-126.5 1396,-145.5"/>
<text text-anchor="middle" x="1375" y="-133.5" font-family="Helvetica,sans-Serif" font-size="10.00">array</text>
</a>
</g>
</g>
<!-- Node17&#45;&gt;Node23 -->
<g id="edge41_Node000017_Node000023" class="edge">
<title>Node17&#45;&gt;Node23</title>
<g id="a_edge41_Node000017_Node000023"><a xlink:title=" ">
<path fill="none" stroke="#63b8ff" d="M1473.35,-186.95C1451.74,-175.98 1421.92,-160.83 1400.8,-150.11"/>
<polygon fill="#63b8ff" stroke="#63b8ff" points="1402.27,-146.93 1391.77,-145.52 1399.1,-153.17 1402.27,-146.93"/>
</a>
</g>
</g>
<!-- Node24 -->
<g id="Node000024" class="node">
<title>Node24</title>
<g id="a_Node000024"><a xlink:title=" ">
<polygon fill="#e0e0e0" stroke="#999999" points="1487.5,-145.5 1414.5,-145.5 1414.5,-126.5 1487.5,-126.5 1487.5,-145.5"/>
<text text-anchor="middle" x="1451" y="-133.5" font-family="Helvetica,sans-Serif" font-size="10.00">string_view</text>
</a>
</g>
</g>
<!-- Node17&#45;&gt;Node24 -->
<g id="edge43_Node000017_Node000024" class="edge">
<title>Node17&#45;&gt;Node24</title>
<g id="a_edge43_Node000017_Node000024"><a xlink:title=" ">
<path fill="none" stroke="#63b8ff" d="M1489.9,-186.8C1482.34,-177.11 1472.28,-164.24 1464.29,-154.01"/>
<polygon fill="#63b8ff" stroke="#63b8ff" points="1466.82,-151.57 1457.91,-145.84 1461.31,-155.88 1466.82,-151.57"/>
</a>
</g>
</g>
<!-- Node25 -->
<g id="Node000025" class="node">
<title>Node25</title>
<g id="a_Node000025"><a xlink:title=" ">
<polygon fill="#e0e0e0" stroke="#999999" points="1598.5,-145.5 1505.5,-145.5 1505.5,-126.5 1598.5,-126.5 1598.5,-145.5"/>
<text text-anchor="middle" x="1552" y="-133.5" font-family="Helvetica,sans-Serif" font-size="10.00">unordered_map</text>
</a>
</g>
</g>
<!-- Node17&#45;&gt;Node25 -->
<g id="edge44_Node000017_Node000025" class="edge">
<title>Node17&#45;&gt;Node25</title>
<g id="a_edge44_Node000017_Node000025"><a xlink:title=" ">
<path fill="none" stroke="#63b8ff" d="M1512.32,-186.8C1520.11,-177.01 1530.5,-163.98 1538.69,-153.7"/>
<polygon fill="#63b8ff" stroke="#63b8ff" points="1541.46,-155.85 1544.95,-145.84 1535.98,-151.48 1541.46,-155.85"/>
</a>
</g>
</g>
<!-- Node26 -->
<g id="Node000026" class="node">
<title>Node26</title>
<g id="a_Node000026"><a xlink:href="vectorized__operations_8h.html" target="_top" xlink:title=" ">
<polygon fill="white" stroke="#666666" points="1792.5,-151 1655.5,-151 1655.5,-121 1792.5,-121 1792.5,-151"/>
<text text-anchor="start" x="1663.5" y="-139" font-family="Helvetica,sans-Serif" font-size="10.00">prismspf/utilities</text>
<text text-anchor="middle" x="1724" y="-128" font-family="Helvetica,sans-Serif" font-size="10.00">/vectorized_operations.h</text>
</a>
</g>
</g>
<!-- Node17&#45;&gt;Node26 -->
<g id="edge45_Node000017_Node000026" class="edge">
<title>Node17&#45;&gt;Node26</title>
<g id="a_edge45_Node000017_Node000026"><a xlink:title=" ">
<path fill="none" stroke="#63b8ff" d="M1549.94,-186.95C1583.92,-177.2 1629.38,-164.16 1665.31,-153.84"/>
<polygon fill="#63b8ff" stroke="#63b8ff" points="1666.53,-157.14 1675.18,-151.01 1664.6,-150.41 1666.53,-157.14"/>
</a>
</g>
</g>
<!-- Node26&#45;&gt;Node7 -->
<g id="edge47_Node000026_Node000007" class="edge">
<title>Node26&#45;&gt;Node7</title>
<g id="a_edge47_Node000026_Node000007"><a xlink:title=" ">
<path fill="none" stroke="#63b8ff" d="M1714.45,-120.88C1700.73,-101.95 1673.49,-69.11 1641,-55 1569.5,-23.94 1036.72,-13.82 854.73,-11.25"/>
<polygon fill="#63b8ff" stroke="#63b8ff" points="854.58,-7.74 844.53,-11.1 854.48,-14.74 854.58,-7.74"/>
</a>
</g>
</g>
<!-- Node26&#45;&gt;Node20 -->
<g id="edge46_Node000026_Node000020" class="edge">
<title>Node26&#45;&gt;Node20</title>
<g id="a_edge46_Node000026_Node000020"><a xlink:title=" ">
<path fill="none" stroke="#63b8ff" d="M1771.4,-120.95C1810.45,-109.38 1865.13,-93.18 1901.51,-82.41"/>
<polygon fill="#63b8ff" stroke="#63b8ff" points="1902.66,-85.71 1911.25,-79.52 1900.67,-79 1902.66,-85.71"/>
</a>
</g>
</g>
</g>
</svg>
