<?xml version="1.0" encoding="UTF-8" standalone="no"?>
<!DOCTYPE svg PUBLIC "-//W3C//DTD SVG 1.1//EN"
 "http://www.w3.org/Graphics/SVG/1.1/DTD/svg11.dtd">
<!-- Generated by graphviz version 2.43.0 (0)
 -->
<!-- Title: /home/runner/work/phaseField/phaseField/include/prismspf/user_inputs/checkpoint_parameters.h Pages: 1 -->
<svg width="1982pt" height="368pt"
 viewBox="0.00 0.00 1982.18 368.00" xmlns="http://www.w3.org/2000/svg" xmlns:xlink="http://www.w3.org/1999/xlink">
<g id="graph0" class="graph" transform="scale(1 1) rotate(0) translate(4 364)">
<title>/home/runner/work/phaseField/phaseField/include/prismspf/user_inputs/checkpoint_parameters.h</title>
<!-- Node1 -->
<g id="Node000001" class="node">
<title>Node1</title>
<g id="a_Node000001"><a xlink:title=" ">
<polygon fill="#999999" stroke="#666666" points="778.68,-360 575.68,-360 575.68,-319 778.68,-319 778.68,-360"/>
<text text-anchor="start" x="583.68" y="-348" font-family="Helvetica,sans-Serif" font-size="10.00">/home/runner/work/phaseField</text>
<text text-anchor="start" x="583.68" y="-337" font-family="Helvetica,sans-Serif" font-size="10.00">/phaseField/include/prismspf</text>
<text text-anchor="middle" x="677.18" y="-326" font-family="Helvetica,sans-Serif" font-size="10.00">/user_inputs/checkpoint_parameters.h</text>
</a>
</g>
</g>
<!-- Node2 -->
<g id="Node000002" class="node">
<title>Node2</title>
<g id="a_Node000002"><a xlink:href="conditional__ostreams_8h.html" target="_top" xlink:title=" ">
<polygon fill="white" stroke="#666666" points="144.18,-217 4.18,-217 4.18,-187 144.18,-187 144.18,-217"/>
<text text-anchor="start" x="12.18" y="-205" font-family="Helvetica,sans-Serif" font-size="10.00">prismspf/core/conditional</text>
<text text-anchor="middle" x="74.18" y="-194" font-family="Helvetica,sans-Serif" font-size="10.00">_ostreams.h</text>
</a>
</g>
</g>
<!-- Node1&#45;&gt;Node2 -->
<g id="edge1_Node000001_Node000002" class="edge">
<title>Node1&#45;&gt;Node2</title>
<g id="a_edge1_Node000001_Node000002"><a xlink:title=" ">
<path fill="none" stroke="#63b8ff" d="M575.51,-335.34C445.93,-330 230.07,-316.3 158.18,-283 130.29,-270.08 105.8,-244.13 90.56,-225.28"/>
<polygon fill="#63b8ff" stroke="#63b8ff" points="93.16,-222.91 84.24,-217.19 87.64,-227.22 93.16,-222.91"/>
</a>
</g>
</g>
<!-- Node4 -->
<g id="Node000004" class="node">
<title>Node4</title>
<g id="a_Node000004"><a xlink:title=" ">
<polygon fill="#e0e0e0" stroke="#999999" points="543.68,-19 442.68,-19 442.68,0 543.68,0 543.68,-19"/>
<text text-anchor="middle" x="493.18" y="-7" font-family="Helvetica,sans-Serif" font-size="10.00">prismspf/config.h</text>
</a>
</g>
</g>
<!-- Node1&#45;&gt;Node4 -->
<g id="edge40_Node000001_Node000004" class="edge">
<title>Node1&#45;&gt;Node4</title>
<g id="a_edge40_Node000001_Node000004"><a xlink:title=" ">
<path fill="none" stroke="#63b8ff" d="M575.34,-332.85C467.82,-325.55 306.38,-310.39 251.18,-283 206.42,-260.79 172.18,-252.97 172.18,-203 172.18,-203 172.18,-203 172.18,-135 172.18,-82.14 212.89,-78.62 260.18,-55 314.52,-27.85 383.6,-17.22 432.39,-13.08"/>
<polygon fill="#63b8ff" stroke="#63b8ff" points="432.78,-16.56 442.48,-12.29 432.23,-9.58 432.78,-16.56"/>
</a>
</g>
</g>
<!-- Node5 -->
<g id="Node000005" class="node">
<title>Node5</title>
<g id="a_Node000005"><a xlink:href="exceptions_8h.html" target="_top" xlink:title=" ">
<polygon fill="white" stroke="#666666" points="515.68,-211.5 366.68,-211.5 366.68,-192.5 515.68,-192.5 515.68,-211.5"/>
<text text-anchor="middle" x="441.18" y="-199.5" font-family="Helvetica,sans-Serif" font-size="10.00">prismspf/core/exceptions.h</text>
</a>
</g>
</g>
<!-- Node1&#45;&gt;Node5 -->
<g id="edge4_Node000001_Node000005" class="edge">
<title>Node1&#45;&gt;Node5</title>
<g id="a_edge4_Node000001_Node000005"><a xlink:title=" ">
<path fill="none" stroke="#63b8ff" d="M643.11,-318.94C594.58,-291.07 506.76,-240.65 464.77,-216.55"/>
<polygon fill="#63b8ff" stroke="#63b8ff" points="466.48,-213.49 456.07,-211.55 463,-219.56 466.48,-213.49"/>
</a>
</g>
</g>
<!-- Node10 -->
<g id="Node000010" class="node">
<title>Node10</title>
<g id="a_Node000010"><a xlink:title=" ">
<polygon fill="#e0e0e0" stroke="#999999" points="840.18,-19 796.18,-19 796.18,0 840.18,0 840.18,-19"/>
<text text-anchor="middle" x="818.18" y="-7" font-family="Helvetica,sans-Serif" font-size="10.00">string</text>
</a>
</g>
</g>
<!-- Node1&#45;&gt;Node10 -->
<g id="edge43_Node000001_Node000010" class="edge">
<title>Node1&#45;&gt;Node10</title>
<g id="a_edge43_Node000001_Node000010"><a xlink:title=" ">
<path fill="none" stroke="#63b8ff" d="M778.75,-337.8C1071.5,-334.46 1896.18,-315.09 1896.18,-203 1896.18,-203 1896.18,-203 1896.18,-135 1896.18,-26.88 1029.35,-12.56 850.3,-10.75"/>
<polygon fill="#63b8ff" stroke="#63b8ff" points="850.23,-7.25 840.2,-10.65 850.17,-14.25 850.23,-7.25"/>
</a>
</g>
</g>
<!-- Node12 -->
<g id="Node000012" class="node">
<title>Node12</title>
<g id="a_Node000012"><a xlink:href="temporal__discretization_8h.html" target="_top" xlink:title=" ">
<polygon fill="white" stroke="#666666" points="404.18,-283 260.18,-283 260.18,-253 404.18,-253 404.18,-283"/>
<text text-anchor="start" x="268.18" y="-271" font-family="Helvetica,sans-Serif" font-size="10.00">prismspf/user_inputs</text>
<text text-anchor="middle" x="332.18" y="-260" font-family="Helvetica,sans-Serif" font-size="10.00">/temporal_discretization.h</text>
</a>
</g>
</g>
<!-- Node1&#45;&gt;Node12 -->
<g id="edge14_Node000001_Node000012" class="edge">
<title>Node1&#45;&gt;Node12</title>
<g id="a_edge14_Node000001_Node000012"><a xlink:title=" ">
<path fill="none" stroke="#63b8ff" d="M580.16,-318.96C526.91,-308.23 461.7,-295.09 411.52,-284.98"/>
<polygon fill="#63b8ff" stroke="#63b8ff" points="412.19,-281.55 401.69,-283 410.81,-288.41 412.19,-281.55"/>
</a>
</g>
</g>
<!-- Node16 -->
<g id="Node000016" class="node">
<title>Node16</title>
<g id="a_Node000016"><a xlink:title=" ">
<polygon fill="#e0e0e0" stroke="#999999" points="878.18,-145.5 846.18,-145.5 846.18,-126.5 878.18,-126.5 878.18,-145.5"/>
<text text-anchor="middle" x="862.18" y="-133.5" font-family="Helvetica,sans-Serif" font-size="10.00">set</text>
</a>
</g>
</g>
<!-- Node1&#45;&gt;Node16 -->
<g id="edge42_Node000001_Node000016" class="edge">
<title>Node1&#45;&gt;Node16</title>
<g id="a_edge42_Node000001_Node000016"><a xlink:title=" ">
<path fill="none" stroke="#63b8ff" d="M695.25,-318.81C731.62,-279.21 813.02,-190.54 846.92,-153.62"/>
<polygon fill="#63b8ff" stroke="#63b8ff" points="849.92,-155.53 854.1,-145.8 844.76,-150.8 849.92,-155.53"/>
</a>
</g>
</g>
<!-- Node18 -->
<g id="Node000018" class="node">
<title>Node18</title>
<g id="a_Node000018"><a xlink:href="utilities_8h.html" target="_top" xlink:title=" ">
<polygon fill="white" stroke="#666666" points="1388.68,-217 1289.68,-217 1289.68,-187 1388.68,-187 1388.68,-217"/>
<text text-anchor="start" x="1297.68" y="-205" font-family="Helvetica,sans-Serif" font-size="10.00">prismspf/utilities</text>
<text text-anchor="middle" x="1339.18" y="-194" font-family="Helvetica,sans-Serif" font-size="10.00">/utilities.h</text>
</a>
</g>
</g>
<!-- Node1&#45;&gt;Node18 -->
<g id="edge28_Node000001_Node000018" class="edge">
<title>Node1&#45;&gt;Node18</title>
<g id="a_edge28_Node000001_Node000018"><a xlink:title=" ">
<path fill="none" stroke="#63b8ff" d="M772.73,-318.94C911.41,-290.56 1164.42,-238.77 1279.43,-215.23"/>
<polygon fill="#63b8ff" stroke="#63b8ff" points="1280.37,-218.61 1289.46,-213.18 1278.96,-211.75 1280.37,-218.61"/>
</a>
</g>
</g>
<!-- Node26 -->
<g id="Node000026" class="node">
<title>Node26</title>
<g id="a_Node000026"><a xlink:title=" ">
<polygon fill="#e0e0e0" stroke="#999999" points="1974.18,-277.5 1924.18,-277.5 1924.18,-258.5 1974.18,-258.5 1974.18,-277.5"/>
<text text-anchor="middle" x="1949.18" y="-265.5" font-family="Helvetica,sans-Serif" font-size="10.00">climits</text>
</a>
</g>
</g>
<!-- Node1&#45;&gt;Node26 -->
<g id="edge41_Node000001_Node000026" class="edge">
<title>Node1&#45;&gt;Node26</title>
<g id="a_edge41_Node000001_Node000026"><a xlink:title=" ">
<path fill="none" stroke="#63b8ff" d="M778.83,-337.83C1033.66,-335.53 1694.7,-325.52 1910.18,-283 1913.19,-282.41 1916.27,-281.62 1919.33,-280.73"/>
<polygon fill="#63b8ff" stroke="#63b8ff" points="1920.46,-284.04 1928.86,-277.59 1918.27,-277.39 1920.46,-284.04"/>
</a>
</g>
</g>
<!-- Node3 -->
<g id="Node000003" class="node">
<title>Node3</title>
<g id="a_Node000003"><a xlink:title=" ">
<polygon fill="#e0e0e0" stroke="#999999" points="144.18,-151 14.18,-151 14.18,-121 144.18,-121 144.18,-151"/>
<text text-anchor="start" x="22.18" y="-139" font-family="Helvetica,sans-Serif" font-size="10.00">deal.II/base/conditional</text>
<text text-anchor="middle" x="79.18" y="-128" font-family="Helvetica,sans-Serif" font-size="10.00">_ostream.h</text>
</a>
</g>
</g>
<!-- Node2&#45;&gt;Node3 -->
<g id="edge2_Node000002_Node000003" class="edge">
<title>Node2&#45;&gt;Node3</title>
<g id="a_edge2_Node000002_Node000003"><a xlink:title=" ">
<path fill="none" stroke="#63b8ff" d="M75.29,-186.8C75.87,-179.34 76.6,-169.99 77.27,-161.41"/>
<polygon fill="#63b8ff" stroke="#63b8ff" points="80.78,-161.41 78.07,-151.16 73.8,-160.86 80.78,-161.41"/>
</a>
</g>
</g>
<!-- Node2&#45;&gt;Node4 -->
<g id="edge3_Node000002_Node000004" class="edge">
<title>Node2&#45;&gt;Node4</title>
<g id="a_edge3_Node000002_Node000004"><a xlink:title=" ">
<path fill="none" stroke="#63b8ff" d="M42.92,-186.84C28.65,-178.59 13.18,-166.68 5.18,-151 -0.88,-139.12 -2.15,-132.14 5.18,-121 51.85,-50.04 311.97,-23.01 432.21,-14.2"/>
<polygon fill="#63b8ff" stroke="#63b8ff" points="432.63,-17.68 442.35,-13.48 432.13,-10.7 432.63,-17.68"/>
</a>
</g>
</g>
<!-- Node5&#45;&gt;Node4 -->
<g id="edge13_Node000005_Node000004" class="edge">
<title>Node5&#45;&gt;Node4</title>
<g id="a_edge13_Node000005_Node000004"><a xlink:title=" ">
<path fill="none" stroke="#63b8ff" d="M366.55,-193.57C307.88,-184.37 240.2,-164.22 267.18,-121 303.32,-63.1 379.55,-34.71 433.46,-21.38"/>
<polygon fill="#63b8ff" stroke="#63b8ff" points="434.33,-24.77 443.25,-19.06 432.72,-17.96 434.33,-24.77"/>
</a>
</g>
</g>
<!-- Node6 -->
<g id="Node000006" class="node">
<title>Node6</title>
<g id="a_Node000006"><a xlink:title=" ">
<polygon fill="#e0e0e0" stroke="#999999" points="414.18,-145.5 276.18,-145.5 276.18,-126.5 414.18,-126.5 414.18,-145.5"/>
<text text-anchor="middle" x="345.18" y="-133.5" font-family="Helvetica,sans-Serif" font-size="10.00">deal.II/base/exceptions.h</text>
</a>
</g>
</g>
<!-- Node5&#45;&gt;Node6 -->
<g id="edge5_Node000005_Node000006" class="edge">
<title>Node5&#45;&gt;Node6</title>
<g id="a_edge5_Node000005_Node000006"><a xlink:title=" ">
<path fill="none" stroke="#63b8ff" d="M428.23,-192.37C412.49,-181.87 385.68,-164 366.78,-151.4"/>
<polygon fill="#63b8ff" stroke="#63b8ff" points="368.49,-148.33 358.23,-145.7 364.61,-154.16 368.49,-148.33"/>
</a>
</g>
</g>
<!-- Node7 -->
<g id="Node000007" class="node">
<title>Node7</title>
<g id="a_Node000007"><a xlink:href="types_8h.html" target="_top" xlink:title=" ">
<polygon fill="white" stroke="#666666" points="554.18,-145.5 432.18,-145.5 432.18,-126.5 554.18,-126.5 554.18,-145.5"/>
<text text-anchor="middle" x="493.18" y="-133.5" font-family="Helvetica,sans-Serif" font-size="10.00">prismspf/core/types.h</text>
</a>
</g>
</g>
<!-- Node5&#45;&gt;Node7 -->
<g id="edge6_Node000005_Node000007" class="edge">
<title>Node5&#45;&gt;Node7</title>
<g id="a_edge6_Node000005_Node000007"><a xlink:title=" ">
<path fill="none" stroke="#63b8ff" d="M448.19,-192.37C456.21,-182.5 469.53,-166.11 479.6,-153.72"/>
<polygon fill="#63b8ff" stroke="#63b8ff" points="482.35,-155.87 485.94,-145.91 476.92,-151.46 482.35,-155.87"/>
</a>
</g>
</g>
<!-- Node7&#45;&gt;Node4 -->
<g id="edge11_Node000007_Node000004" class="edge">
<title>Node7&#45;&gt;Node4</title>
<g id="a_edge11_Node000007_Node000004"><a xlink:title=" ">
<path fill="none" stroke="#63b8ff" d="M493.18,-126.44C493.18,-106.54 493.18,-56.76 493.18,-29.35"/>
<polygon fill="#63b8ff" stroke="#63b8ff" points="496.68,-29.12 493.18,-19.12 489.68,-29.12 496.68,-29.12"/>
</a>
</g>
</g>
<!-- Node8 -->
<g id="Node000008" class="node">
<title>Node8</title>
<g id="a_Node000008"><a xlink:href="type__enums_8h.html" target="_top" xlink:title=" ">
<polygon fill="white" stroke="#666666" points="773.18,-85 665.18,-85 665.18,-55 773.18,-55 773.18,-85"/>
<text text-anchor="start" x="673.18" y="-73" font-family="Helvetica,sans-Serif" font-size="10.00">prismspf/core/type</text>
<text text-anchor="middle" x="719.18" y="-62" font-family="Helvetica,sans-Serif" font-size="10.00">_enums.h</text>
</a>
</g>
</g>
<!-- Node7&#45;&gt;Node8 -->
<g id="edge7_Node000007_Node000008" class="edge">
<title>Node7&#45;&gt;Node8</title>
<g id="a_edge7_Node000007_Node000008"><a xlink:title=" ">
<path fill="none" stroke="#63b8ff" d="M523.66,-126.37C558.38,-116.54 615.97,-100.23 659.67,-87.85"/>
<polygon fill="#63b8ff" stroke="#63b8ff" points="660.66,-91.21 669.33,-85.12 658.76,-84.47 660.66,-91.21"/>
</a>
</g>
</g>
<!-- Node11 -->
<g id="Node000011" class="node">
<title>Node11</title>
<g id="a_Node000011"><a xlink:title=" ">
<polygon fill="#e0e0e0" stroke="#999999" points="579.68,-79.5 534.68,-79.5 534.68,-60.5 579.68,-60.5 579.68,-79.5"/>
<text text-anchor="middle" x="557.18" y="-67.5" font-family="Helvetica,sans-Serif" font-size="10.00">utility</text>
</a>
</g>
</g>
<!-- Node7&#45;&gt;Node11 -->
<g id="edge12_Node000007_Node000011" class="edge">
<title>Node7&#45;&gt;Node11</title>
<g id="a_edge12_Node000007_Node000011"><a xlink:title=" ">
<path fill="none" stroke="#63b8ff" d="M501.81,-126.37C511.87,-116.31 528.7,-99.48 541.17,-87.01"/>
<polygon fill="#63b8ff" stroke="#63b8ff" points="543.68,-89.45 548.27,-79.91 538.73,-84.5 543.68,-89.45"/>
</a>
</g>
</g>
<!-- Node8&#45;&gt;Node4 -->
<g id="edge8_Node000008_Node000004" class="edge">
<title>Node8&#45;&gt;Node4</title>
<g id="a_edge8_Node000008_Node000004"><a xlink:title=" ">
<path fill="none" stroke="#63b8ff" d="M665.05,-54.99C625.54,-44.76 572.71,-31.09 536.09,-21.61"/>
<polygon fill="#63b8ff" stroke="#63b8ff" points="536.78,-18.17 526.22,-19.05 535.03,-24.95 536.78,-18.17"/>
</a>
</g>
</g>
<!-- Node9 -->
<g id="Node000009" class="node">
<title>Node9</title>
<g id="a_Node000009"><a xlink:title=" ">
<polygon fill="#e0e0e0" stroke="#999999" points="744.18,-19 694.18,-19 694.18,0 744.18,0 744.18,-19"/>
<text text-anchor="middle" x="719.18" y="-7" font-family="Helvetica,sans-Serif" font-size="10.00">cstdint</text>
</a>
</g>
</g>
<!-- Node8&#45;&gt;Node9 -->
<g id="edge9_Node000008_Node000009" class="edge">
<title>Node8&#45;&gt;Node9</title>
<g id="a_edge9_Node000008_Node000009"><a xlink:title=" ">
<path fill="none" stroke="#63b8ff" d="M719.18,-54.84C719.18,-47.21 719.18,-37.7 719.18,-29.45"/>
<polygon fill="#63b8ff" stroke="#63b8ff" points="722.68,-29.27 719.18,-19.27 715.68,-29.27 722.68,-29.27"/>
</a>
</g>
</g>
<!-- Node8&#45;&gt;Node10 -->
<g id="edge10_Node000008_Node000010" class="edge">
<title>Node8&#45;&gt;Node10</title>
<g id="a_edge10_Node000008_Node000010"><a xlink:title=" ">
<path fill="none" stroke="#63b8ff" d="M742.89,-54.99C758.52,-45.75 778.92,-33.7 794.54,-24.47"/>
<polygon fill="#63b8ff" stroke="#63b8ff" points="796.73,-27.24 803.56,-19.14 793.17,-21.21 796.73,-27.24"/>
</a>
</g>
</g>
<!-- Node12&#45;&gt;Node2 -->
<g id="edge15_Node000012_Node000002" class="edge">
<title>Node12&#45;&gt;Node2</title>
<g id="a_edge15_Node000012_Node000002"><a xlink:title=" ">
<path fill="none" stroke="#63b8ff" d="M275.56,-252.95C235.74,-243.08 182.3,-229.82 140.49,-219.45"/>
<polygon fill="#63b8ff" stroke="#63b8ff" points="141.21,-216.02 130.67,-217.01 139.53,-222.82 141.21,-216.02"/>
</a>
</g>
</g>
<!-- Node12&#45;&gt;Node4 -->
<g id="edge27_Node000012_Node000004" class="edge">
<title>Node12&#45;&gt;Node4</title>
<g id="a_edge27_Node000012_Node000004"><a xlink:title=" ">
<path fill="none" stroke="#63b8ff" d="M318.72,-252.69C300.39,-232.11 268.43,-192.07 256.18,-151 242.91,-106.54 259.39,-81.92 297.18,-55 336.69,-26.85 391.1,-16.15 432.56,-12.25"/>
<polygon fill="#63b8ff" stroke="#63b8ff" points="432.87,-15.74 442.54,-11.42 432.29,-8.76 432.87,-15.74"/>
</a>
</g>
</g>
<!-- Node13 -->
<g id="Node000013" class="node">
<title>Node13</title>
<g id="a_Node000013"><a xlink:href="variable__attributes_8h.html" target="_top" xlink:title=" ">
<polygon fill="white" stroke="#666666" points="730.18,-217 604.18,-217 604.18,-187 730.18,-187 730.18,-217"/>
<text text-anchor="start" x="612.18" y="-205" font-family="Helvetica,sans-Serif" font-size="10.00">prismspf/core/variable</text>
<text text-anchor="middle" x="667.18" y="-194" font-family="Helvetica,sans-Serif" font-size="10.00">_attributes.h</text>
</a>
</g>
</g>
<!-- Node12&#45;&gt;Node13 -->
<g id="edge16_Node000012_Node000013" class="edge">
<title>Node12&#45;&gt;Node13</title>
<g id="a_edge16_Node000012_Node000013"><a xlink:title=" ">
<path fill="none" stroke="#63b8ff" d="M404.46,-253.19C460.52,-242.48 537.91,-227.7 594.16,-216.95"/>
<polygon fill="#63b8ff" stroke="#63b8ff" points="594.89,-220.37 604.06,-215.06 593.58,-213.5 594.89,-220.37"/>
</a>
</g>
</g>
<!-- Node13&#45;&gt;Node4 -->
<g id="edge21_Node000013_Node000004" class="edge">
<title>Node13&#45;&gt;Node4</title>
<g id="a_edge21_Node000013_Node000004"><a xlink:title=" ">
<path fill="none" stroke="#63b8ff" d="M658.98,-186.62C653.33,-176.67 645.7,-163.08 639.18,-151 616.31,-108.68 623.97,-88.22 589.18,-55 573.68,-40.2 552.37,-29.65 533.76,-22.54"/>
<polygon fill="#63b8ff" stroke="#63b8ff" points="534.92,-19.24 524.33,-19.14 532.54,-25.83 534.92,-19.24"/>
</a>
</g>
</g>
<!-- Node13&#45;&gt;Node6 -->
<g id="edge17_Node000013_Node000006" class="edge">
<title>Node13&#45;&gt;Node6</title>
<g id="a_edge17_Node000013_Node000006"><a xlink:title=" ">
<path fill="none" stroke="#63b8ff" d="M603.95,-188.43C543.94,-176.51 454.78,-158.78 398.34,-147.57"/>
<polygon fill="#63b8ff" stroke="#63b8ff" points="398.69,-144.07 388.2,-145.55 397.33,-150.93 398.69,-144.07"/>
</a>
</g>
</g>
<!-- Node13&#45;&gt;Node7 -->
<g id="edge20_Node000013_Node000007" class="edge">
<title>Node13&#45;&gt;Node7</title>
<g id="a_edge20_Node000013_Node000007"><a xlink:title=" ">
<path fill="none" stroke="#63b8ff" d="M628.99,-186.95C598.21,-175.63 555.37,-159.88 526.09,-149.1"/>
<polygon fill="#63b8ff" stroke="#63b8ff" points="526.93,-145.68 516.33,-145.52 524.51,-152.25 526.93,-145.68"/>
</a>
</g>
</g>
<!-- Node13&#45;&gt;Node8 -->
<g id="edge19_Node000013_Node000008" class="edge">
<title>Node13&#45;&gt;Node8</title>
<g id="a_edge19_Node000013_Node000008"><a xlink:title=" ">
<path fill="none" stroke="#63b8ff" d="M715.78,-186.92C733.24,-179.25 751.09,-167.8 761.18,-151 772.77,-131.7 758.17,-108.9 743.09,-92.59"/>
<polygon fill="#63b8ff" stroke="#63b8ff" points="745.28,-89.81 735.77,-85.14 740.29,-94.72 745.28,-89.81"/>
</a>
</g>
</g>
<!-- Node13&#45;&gt;Node10 -->
<g id="edge24_Node000013_Node000010" class="edge">
<title>Node13&#45;&gt;Node10</title>
<g id="a_edge24_Node000013_Node000010"><a xlink:title=" ">
<path fill="none" stroke="#63b8ff" d="M721.22,-186.93C741.25,-179.26 762.62,-167.8 777.18,-151 807.74,-115.74 815.55,-58.78 817.53,-29.38"/>
<polygon fill="#63b8ff" stroke="#63b8ff" points="821.03,-29.42 818.05,-19.25 814.04,-29.06 821.03,-29.42"/>
</a>
</g>
</g>
<!-- Node13&#45;&gt;Node11 -->
<g id="edge25_Node000013_Node000011" class="edge">
<title>Node13&#45;&gt;Node11</title>
<g id="a_edge25_Node000013_Node000011"><a xlink:title=" ">
<path fill="none" stroke="#63b8ff" d="M646.75,-186.97C634.14,-177.69 618.14,-164.73 606.18,-151 589.34,-131.68 574.69,-105.89 565.9,-88.88"/>
<polygon fill="#63b8ff" stroke="#63b8ff" points="568.83,-86.92 561.22,-79.56 562.58,-90.07 568.83,-86.92"/>
</a>
</g>
</g>
<!-- Node14 -->
<g id="Node000014" class="node">
<title>Node14</title>
<g id="a_Node000014"><a xlink:title=" ">
<polygon fill="#e0e0e0" stroke="#999999" points="1005.68,-151 896.68,-151 896.68,-121 1005.68,-121 1005.68,-151"/>
<text text-anchor="start" x="904.68" y="-139" font-family="Helvetica,sans-Serif" font-size="10.00">deal.II/matrix_free</text>
<text text-anchor="middle" x="951.18" y="-128" font-family="Helvetica,sans-Serif" font-size="10.00">/evaluation_flags.h</text>
</a>
</g>
</g>
<!-- Node13&#45;&gt;Node14 -->
<g id="edge18_Node000013_Node000014" class="edge">
<title>Node13&#45;&gt;Node14</title>
<g id="a_edge18_Node000013_Node000014"><a xlink:title=" ">
<path fill="none" stroke="#63b8ff" d="M729.5,-186.95C776.15,-176.44 839.76,-162.11 886.87,-151.49"/>
<polygon fill="#63b8ff" stroke="#63b8ff" points="887.68,-154.9 896.66,-149.28 886.14,-148.07 887.68,-154.9"/>
</a>
</g>
</g>
<!-- Node15 -->
<g id="Node000015" class="node">
<title>Node15</title>
<g id="a_Node000015"><a xlink:title=" ">
<polygon fill="#e0e0e0" stroke="#999999" points="686.18,-145.5 648.18,-145.5 648.18,-126.5 686.18,-126.5 686.18,-145.5"/>
<text text-anchor="middle" x="667.18" y="-133.5" font-family="Helvetica,sans-Serif" font-size="10.00">map</text>
</a>
</g>
</g>
<!-- Node13&#45;&gt;Node15 -->
<g id="edge22_Node000013_Node000015" class="edge">
<title>Node13&#45;&gt;Node15</title>
<g id="a_edge22_Node000013_Node000015"><a xlink:title=" ">
<path fill="none" stroke="#63b8ff" d="M667.18,-186.8C667.18,-177.7 667.18,-165.79 667.18,-155.9"/>
<polygon fill="#63b8ff" stroke="#63b8ff" points="670.68,-155.84 667.18,-145.84 663.68,-155.84 670.68,-155.84"/>
</a>
</g>
</g>
<!-- Node13&#45;&gt;Node16 -->
<g id="edge23_Node000013_Node000016" class="edge">
<title>Node13&#45;&gt;Node16</title>
<g id="a_edge23_Node000013_Node000016"><a xlink:title=" ">
<path fill="none" stroke="#63b8ff" d="M720.58,-186.9C753.21,-177.78 795.56,-165.01 832.18,-151 833.77,-150.39 835.39,-149.74 837.01,-149.06"/>
<polygon fill="#63b8ff" stroke="#63b8ff" points="838.45,-152.25 846.17,-144.98 835.61,-145.85 838.45,-152.25"/>
</a>
</g>
</g>
<!-- Node17 -->
<g id="Node000017" class="node">
<title>Node17</title>
<g id="a_Node000017"><a xlink:title=" ">
<polygon fill="#e0e0e0" stroke="#999999" points="751.68,-145.5 704.68,-145.5 704.68,-126.5 751.68,-126.5 751.68,-145.5"/>
<text text-anchor="middle" x="728.18" y="-133.5" font-family="Helvetica,sans-Serif" font-size="10.00">vector</text>
</a>
</g>
</g>
<!-- Node13&#45;&gt;Node17 -->
<g id="edge26_Node000013_Node000017" class="edge">
<title>Node13&#45;&gt;Node17</title>
<g id="a_edge26_Node000013_Node000017"><a xlink:title=" ">
<path fill="none" stroke="#63b8ff" d="M680.72,-186.8C690.23,-176.82 702.96,-163.46 712.85,-153.09"/>
<polygon fill="#63b8ff" stroke="#63b8ff" points="715.38,-155.5 719.75,-145.84 710.32,-150.67 715.38,-155.5"/>
</a>
</g>
</g>
<!-- Node18&#45;&gt;Node4 -->
<g id="edge35_Node000018_Node000004" class="edge">
<title>Node18&#45;&gt;Node4</title>
<g id="a_edge35_Node000018_Node000004"><a xlink:title=" ">
<path fill="none" stroke="#63b8ff" d="M1289.47,-199.44C1230.9,-196.01 1131.76,-185.15 1054.18,-151 1034.16,-142.19 1034.72,-130.82 1015.18,-121 919.02,-72.65 887.34,-77.9 782.18,-55 704.15,-38.01 612.9,-25.1 554.13,-17.67"/>
<polygon fill="#63b8ff" stroke="#63b8ff" points="554.26,-14.16 543.91,-16.39 553.39,-21.1 554.26,-14.16"/>
</a>
</g>
</g>
<!-- Node18&#45;&gt;Node14 -->
<g id="edge32_Node000018_Node000014" class="edge">
<title>Node18&#45;&gt;Node14</title>
<g id="a_edge32_Node000018_Node000014"><a xlink:title=" ">
<path fill="none" stroke="#63b8ff" d="M1289.61,-193.93C1226.78,-184.81 1115.22,-168.08 1020.18,-151 1018.71,-150.74 1017.23,-150.47 1015.73,-150.19"/>
<polygon fill="#63b8ff" stroke="#63b8ff" points="1016.22,-146.72 1005.75,-148.31 1014.93,-153.6 1016.22,-146.72"/>
</a>
</g>
</g>
<!-- Node19 -->
<g id="Node000019" class="node">
<title>Node19</title>
<g id="a_Node000019"><a xlink:title=" ">
<polygon fill="#e0e0e0" stroke="#999999" points="1328.18,-145.5 1218.18,-145.5 1218.18,-126.5 1328.18,-126.5 1328.18,-145.5"/>
<text text-anchor="middle" x="1273.18" y="-133.5" font-family="Helvetica,sans-Serif" font-size="10.00">deal.II/base/point.h</text>
</a>
</g>
</g>
<!-- Node18&#45;&gt;Node19 -->
<g id="edge29_Node000018_Node000019" class="edge">
<title>Node18&#45;&gt;Node19</title>
<g id="a_edge29_Node000018_Node000019"><a xlink:title=" ">
<path fill="none" stroke="#63b8ff" d="M1324.53,-186.8C1314.24,-176.82 1300.46,-163.46 1289.77,-153.09"/>
<polygon fill="#63b8ff" stroke="#63b8ff" points="1291.91,-150.29 1282.3,-145.84 1287.04,-155.32 1291.91,-150.29"/>
</a>
</g>
</g>
<!-- Node20 -->
<g id="Node000020" class="node">
<title>Node20</title>
<g id="a_Node000020"><a xlink:title=" ">
<polygon fill="#e0e0e0" stroke="#999999" points="1461.68,-145.5 1346.68,-145.5 1346.68,-126.5 1461.68,-126.5 1461.68,-145.5"/>
<text text-anchor="middle" x="1404.18" y="-133.5" font-family="Helvetica,sans-Serif" font-size="10.00">deal.II/base/tensor.h</text>
</a>
</g>
</g>
<!-- Node18&#45;&gt;Node20 -->
<g id="edge30_Node000018_Node000020" class="edge">
<title>Node18&#45;&gt;Node20</title>
<g id="a_edge30_Node000018_Node000020"><a xlink:title=" ">
<path fill="none" stroke="#63b8ff" d="M1353.6,-186.8C1363.74,-176.82 1377.31,-163.46 1387.84,-153.09"/>
<polygon fill="#63b8ff" stroke="#63b8ff" points="1390.53,-155.35 1395.2,-145.84 1385.61,-150.37 1390.53,-155.35"/>
</a>
</g>
</g>
<!-- Node21 -->
<g id="Node000021" class="node">
<title>Node21</title>
<g id="a_Node000021"><a xlink:title=" ">
<polygon fill="#e0e0e0" stroke="#999999" points="1421.68,-79.5 1272.68,-79.5 1272.68,-60.5 1421.68,-60.5 1421.68,-79.5"/>
<text text-anchor="middle" x="1347.18" y="-67.5" font-family="Helvetica,sans-Serif" font-size="10.00">deal.II/base/vectorization.h</text>
</a>
</g>
</g>
<!-- Node18&#45;&gt;Node21 -->
<g id="edge31_Node000018_Node000021" class="edge">
<title>Node18&#45;&gt;Node21</title>
<g id="a_edge31_Node000018_Node000021"><a xlink:title=" ">
<path fill="none" stroke="#63b8ff" d="M1388.82,-195.97C1418.02,-190.17 1452.73,-177.72 1471.18,-151 1494.39,-117.39 1440.59,-94.61 1396.7,-82.21"/>
<polygon fill="#63b8ff" stroke="#63b8ff" points="1397.52,-78.81 1386.95,-79.58 1395.69,-85.57 1397.52,-78.81"/>
</a>
</g>
</g>
<!-- Node22 -->
<g id="Node000022" class="node">
<title>Node22</title>
<g id="a_Node000022"><a xlink:title=" ">
<polygon fill="#e0e0e0" stroke="#999999" points="1664.18,-145.5 1518.18,-145.5 1518.18,-126.5 1664.18,-126.5 1664.18,-145.5"/>
<text text-anchor="middle" x="1591.18" y="-133.5" font-family="Helvetica,sans-Serif" font-size="10.00">boost/range/algorithm.hpp</text>
</a>
</g>
</g>
<!-- Node18&#45;&gt;Node22 -->
<g id="edge33_Node000018_Node000022" class="edge">
<title>Node18&#45;&gt;Node22</title>
<g id="a_edge33_Node000018_Node000022"><a xlink:title=" ">
<path fill="none" stroke="#63b8ff" d="M1388.97,-188.36C1435.27,-176.59 1503.59,-159.25 1547.74,-148.03"/>
<polygon fill="#63b8ff" stroke="#63b8ff" points="1548.76,-151.38 1557.59,-145.53 1547.04,-144.6 1548.76,-151.38"/>
</a>
</g>
</g>
<!-- Node23 -->
<g id="Node000023" class="node">
<title>Node23</title>
<g id="a_Node000023"><a xlink:title=" ">
<polygon fill="#e0e0e0" stroke="#999999" points="1807.68,-151 1682.68,-151 1682.68,-121 1807.68,-121 1807.68,-151"/>
<text text-anchor="start" x="1690.68" y="-139" font-family="Helvetica,sans-Serif" font-size="10.00">boost/range/algorithm</text>
<text text-anchor="middle" x="1745.18" y="-128" font-family="Helvetica,sans-Serif" font-size="10.00">_ext.hpp</text>
</a>
</g>
</g>
<!-- Node18&#45;&gt;Node23 -->
<g id="edge34_Node000018_Node000023" class="edge">
<title>Node18&#45;&gt;Node23</title>
<g id="a_edge34_Node000018_Node000023"><a xlink:title=" ">
<path fill="none" stroke="#63b8ff" d="M1388.8,-194.26C1452.15,-185.5 1565.37,-169.33 1672.38,-151.09"/>
<polygon fill="#63b8ff" stroke="#63b8ff" points="1673.11,-154.52 1682.38,-149.38 1671.93,-147.62 1673.11,-154.52"/>
</a>
</g>
</g>
<!-- Node24 -->
<g id="Node000024" class="node">
<title>Node24</title>
<g id="a_Node000024"><a xlink:title=" ">
<polygon fill="#e0e0e0" stroke="#999999" points="1868.18,-145.5 1826.18,-145.5 1826.18,-126.5 1868.18,-126.5 1868.18,-145.5"/>
<text text-anchor="middle" x="1847.18" y="-133.5" font-family="Helvetica,sans-Serif" font-size="10.00">array</text>
</a>
</g>
</g>
<!-- Node18&#45;&gt;Node24 -->
<g id="edge36_Node000018_Node000024" class="edge">
<title>Node18&#45;&gt;Node24</title>
<g id="a_edge36_Node000018_Node000024"><a xlink:title=" ">
<path fill="none" stroke="#63b8ff" d="M1388.69,-201.18C1476.6,-200.32 1665.01,-193.18 1817.18,-151 1818.82,-150.55 1820.48,-150.01 1822.13,-149.42"/>
<polygon fill="#63b8ff" stroke="#63b8ff" points="1823.47,-152.65 1831.36,-145.57 1820.78,-146.19 1823.47,-152.65"/>
</a>
</g>
</g>
<!-- Node25 -->
<g id="Node000025" class="node">
<title>Node25</title>
<g id="a_Node000025"><a xlink:href="vectorized__operations_8h.html" target="_top" xlink:title=" ">
<polygon fill="white" stroke="#666666" points="1199.68,-151 1062.68,-151 1062.68,-121 1199.68,-121 1199.68,-151"/>
<text text-anchor="start" x="1070.68" y="-139" font-family="Helvetica,sans-Serif" font-size="10.00">prismspf/utilities</text>
<text text-anchor="middle" x="1131.18" y="-128" font-family="Helvetica,sans-Serif" font-size="10.00">/vectorized_operations.h</text>
</a>
</g>
</g>
<!-- Node18&#45;&gt;Node25 -->
<g id="edge37_Node000018_Node000025" class="edge">
<title>Node18&#45;&gt;Node25</title>
<g id="a_edge37_Node000018_Node000025"><a xlink:title=" ">
<path fill="none" stroke="#63b8ff" d="M1293.53,-186.95C1261.97,-177.24 1219.8,-164.27 1186.35,-153.98"/>
<polygon fill="#63b8ff" stroke="#63b8ff" points="1187.31,-150.61 1176.72,-151.01 1185.25,-157.3 1187.31,-150.61"/>
</a>
</g>
</g>
<!-- Node25&#45;&gt;Node4 -->
<g id="edge39_Node000025_Node000004" class="edge">
<title>Node25&#45;&gt;Node4</title>
<g id="a_edge39_Node000025_Node000004"><a xlink:title=" ">
<path fill="none" stroke="#63b8ff" d="M1121.34,-120.69C1107.48,-101.86 1080.29,-69.48 1048.18,-55 1004,-35.09 688.5,-19.07 553.84,-13.06"/>
<polygon fill="#63b8ff" stroke="#63b8ff" points="553.84,-9.55 543.7,-12.61 553.53,-16.55 553.84,-9.55"/>
</a>
</g>
</g>
<!-- Node25&#45;&gt;Node21 -->
<g id="edge38_Node000025_Node000021" class="edge">
<title>Node25&#45;&gt;Node21</title>
<g id="a_edge38_Node000025_Node000021"><a xlink:title=" ">
<path fill="none" stroke="#63b8ff" d="M1178.58,-120.95C1217.63,-109.38 1272.3,-93.18 1308.68,-82.41"/>
<polygon fill="#63b8ff" stroke="#63b8ff" points="1309.84,-85.71 1318.43,-79.52 1307.85,-79 1309.84,-85.71"/>
</a>
</g>
</g>
</g>
</svg>
