<?xml version="1.0" encoding="UTF-8" standalone="no"?>
<!DOCTYPE svg PUBLIC "-//W3C//DTD SVG 1.1//EN"
 "http://www.w3.org/Graphics/SVG/1.1/DTD/svg11.dtd">
<!-- Generated by graphviz version 2.43.0 (0)
 -->
<!-- Title: LinearSolverBase&lt; dim, degree, number &gt; Pages: 1 -->
<svg width="218pt" height="170pt"
 viewBox="0.00 0.00 217.50 170.00" xmlns="http://www.w3.org/2000/svg" xmlns:xlink="http://www.w3.org/1999/xlink">
<g id="graph0" class="graph" transform="scale(1 1) rotate(0) translate(4 166)">
<title>LinearSolverBase&lt; dim, degree, number &gt;</title>
<!-- Node1 -->
<g id="Node000001" class="node">
<title>Node1</title>
<g id="a_Node000001"><a xlink:title="Base class that handles the assembly and linear solving of a field.">
<polygon fill="#999999" stroke="#666666" points="146.5,-30 12.5,-30 12.5,0 146.5,0 146.5,-30"/>
<text text-anchor="start" x="20.5" y="-18" font-family="Helvetica,sans-Serif" font-size="10.00">LinearSolverBase&lt; dim,</text>
<text text-anchor="middle" x="79.5" y="-7" font-family="Helvetica,sans-Serif" font-size="10.00"> degree, number &gt;</text>
</a>
</g>
</g>
<!-- Node2 -->
<g id="Node000002" class="node">
<title>Node2</title>
<g id="a_Node000002"><a xlink:href="structVariableAttributes.html" target="_top" xlink:title="Structure to hold the variable attributes of a field. This includes things like the name,...">
<polygon fill="white" stroke="#666666" points="131.5,-96 27.5,-96 27.5,-77 131.5,-77 131.5,-96"/>
<text text-anchor="middle" x="79.5" y="-84" font-family="Helvetica,sans-Serif" font-size="10.00">VariableAttributes</text>
</a>
</g>
</g>
<!-- Node2&#45;&gt;Node1 -->
<g id="edge1_Node000001_Node000002" class="edge">
<title>Node2&#45;&gt;Node1</title>
<g id="a_edge1_Node000001_Node000002"><a xlink:title=" ">
<path fill="none" stroke="#9a32cd" stroke-dasharray="5,2" d="M79.5,-66.71C79.5,-55.19 79.5,-40.68 79.5,-30.14"/>
<polygon fill="#9a32cd" stroke="#9a32cd" points="76,-66.98 79.5,-76.98 83,-66.98 76,-66.98"/>
</a>
</g>
<text text-anchor="middle" x="127.5" y="-51" font-family="Helvetica,sans-Serif" font-size="10.00" fill="grey"> variable_attributes</text>
</g>
<!-- Node3 -->
<g id="Node000003" class="node">
<title>Node3</title>
<g id="a_Node000003"><a xlink:href="structFieldInfo.html" target="_top" xlink:title="Information about the field.">
<polygon fill="white" stroke="#666666" points="59,-162 0,-162 0,-143 59,-143 59,-162"/>
<text text-anchor="middle" x="29.5" y="-150" font-family="Helvetica,sans-Serif" font-size="10.00">FieldInfo</text>
</a>
</g>
</g>
<!-- Node3&#45;&gt;Node2 -->
<g id="edge2_Node000002_Node000003" class="edge">
<title>Node3&#45;&gt;Node2</title>
<g id="a_edge2_Node000002_Node000003"><a xlink:title=" ">
<path fill="none" stroke="#9a32cd" stroke-dasharray="5,2" d="M42.57,-134.77C52.16,-122.49 64.81,-106.3 72.54,-96.41"/>
<polygon fill="#9a32cd" stroke="#9a32cd" points="39.64,-132.83 36.24,-142.87 45.16,-137.14 39.64,-132.83"/>
</a>
</g>
<text text-anchor="middle" x="82" y="-117" font-family="Helvetica,sans-Serif" font-size="10.00" fill="grey"> field_info</text>
</g>
<!-- Node4 -->
<g id="Node000004" class="node">
<title>Node4</title>
<g id="a_Node000004"><a xlink:href="structRawDependencies.html" target="_top" xlink:title="Structure to hold the raw string dependencies of a field.">
<polygon fill="white" stroke="#666666" points="184,-162 77,-162 77,-143 184,-143 184,-162"/>
<text text-anchor="middle" x="130.5" y="-150" font-family="Helvetica,sans-Serif" font-size="10.00">RawDependencies</text>
</a>
</g>
</g>
<!-- Node4&#45;&gt;Node2 -->
<g id="edge3_Node000002_Node000004" class="edge">
<title>Node4&#45;&gt;Node2</title>
<g id="a_edge3_Node000002_Node000004"><a xlink:title=" ">
<path fill="none" stroke="#9a32cd" stroke-dasharray="5,2" d="M121.75,-134.15C118.07,-127.55 113.48,-120.15 108.5,-114 103.18,-107.43 96.21,-101 90.44,-96.13"/>
<polygon fill="#9a32cd" stroke="#9a32cd" points="118.67,-135.8 126.44,-142.99 124.85,-132.52 118.67,-135.8"/>
</a>
</g>
<text text-anchor="middle" x="162.5" y="-117" font-family="Helvetica,sans-Serif" font-size="10.00" fill="grey"> raw_dependencies</text>
</g>
</g>
</svg>
