<?xml version="1.0" encoding="UTF-8" standalone="no"?>
<!DOCTYPE svg PUBLIC "-//W3C//DTD SVG 1.1//EN"
 "http://www.w3.org/Graphics/SVG/1.1/DTD/svg11.dtd">
<!-- Generated by graphviz version 2.43.0 (0)
 -->
<!-- Title: SequentialCoNonlinearSolver&lt; dim, degree, number &gt; Pages: 1 -->
<svg width="167pt" height="170pt"
 viewBox="0.00 0.00 167.00 170.00" xmlns="http://www.w3.org/2000/svg" xmlns:xlink="http://www.w3.org/1999/xlink">
<g id="graph0" class="graph" transform="scale(1 1) rotate(0) translate(4 166)">
<title>SequentialCoNonlinearSolver&lt; dim, degree, number &gt;</title>
<!-- Node1 -->
<g id="Node000001" class="node">
<title>Node1</title>
<g id="a_Node000001"><a xlink:title="This class handles the co&#45;nonlinear solves of a several nonexplicit fields.">
<polygon fill="#999999" stroke="#666666" points="159,-30 0,-30 0,0 159,0 159,-30"/>
<text text-anchor="start" x="8" y="-18" font-family="Helvetica,sans-Serif" font-size="10.00">SequentialCoNonlinearSolver</text>
<text text-anchor="middle" x="79.5" y="-7" font-family="Helvetica,sans-Serif" font-size="10.00">&lt; dim, degree, number &gt;</text>
</a>
</g>
</g>
<!-- Node2 -->
<g id="Node000002" class="node">
<title>Node2</title>
<g id="a_Node000002"><a xlink:href="classSequentialSolver.html" target="_top" xlink:title=" ">
<polygon fill="white" stroke="#bfbfbf" points="145.5,-96 13.5,-96 13.5,-66 145.5,-66 145.5,-96"/>
<text text-anchor="start" x="21.5" y="-84" font-family="Helvetica,sans-Serif" font-size="10.00">SequentialSolver&lt; dim,</text>
<text text-anchor="middle" x="79.5" y="-73" font-family="Helvetica,sans-Serif" font-size="10.00"> degree, number &gt;</text>
</a>
</g>
</g>
<!-- Node2&#45;&gt;Node1 -->
<g id="edge1_Node000001_Node000002" class="edge">
<title>Node2&#45;&gt;Node1</title>
<g id="a_edge1_Node000001_Node000002"><a xlink:title=" ">
<path fill="none" stroke="#63b8ff" d="M79.5,-55.54C79.5,-46.96 79.5,-37.61 79.5,-30.16"/>
<polygon fill="#63b8ff" stroke="#63b8ff" points="76,-55.8 79.5,-65.8 83,-55.8 76,-55.8"/>
</a>
</g>
</g>
<!-- Node3 -->
<g id="Node000003" class="node">
<title>Node3</title>
<g id="a_Node000003"><a xlink:href="classSolverBase.html" target="_top" xlink:title=" ">
<polygon fill="white" stroke="#bfbfbf" points="151.5,-162 7.5,-162 7.5,-132 151.5,-132 151.5,-162"/>
<text text-anchor="start" x="15.5" y="-150" font-family="Helvetica,sans-Serif" font-size="10.00">SolverBase&lt; dim, degree,</text>
<text text-anchor="middle" x="79.5" y="-139" font-family="Helvetica,sans-Serif" font-size="10.00"> number &gt;</text>
</a>
</g>
</g>
<!-- Node3&#45;&gt;Node2 -->
<g id="edge2_Node000002_Node000003" class="edge">
<title>Node3&#45;&gt;Node2</title>
<g id="a_edge2_Node000002_Node000003"><a xlink:title=" ">
<path fill="none" stroke="#63b8ff" d="M79.5,-121.54C79.5,-112.96 79.5,-103.61 79.5,-96.16"/>
<polygon fill="#63b8ff" stroke="#63b8ff" points="76,-121.8 79.5,-131.8 83,-121.8 76,-121.8"/>
</a>
</g>
</g>
</g>
</svg>
