<?xml version="1.0" encoding="UTF-8" standalone="no"?>
<!DOCTYPE svg PUBLIC "-//W3C//DTD SVG 1.1//EN"
 "http://www.w3.org/Graphics/SVG/1.1/DTD/svg11.dtd">
<!-- Generated by graphviz version 2.43.0 (0)
 -->
<!-- Title: FieldOutputParameterLoader Pages: 1 -->
<svg width="246pt" height="93pt"
 viewBox="0.00 0.00 245.50 93.00" xmlns="http://www.w3.org/2000/svg" xmlns:xlink="http://www.w3.org/1999/xlink">
<g id="graph0" class="graph" transform="scale(1 1) rotate(0) translate(4 89)">
<title>FieldOutputParameterLoader</title>
<!-- Node1 -->
<g id="Node000001" class="node">
<title>Node1</title>
<g id="a_Node000001"><a xlink:title="A class that determines how often and what fields are output.">
<polygon fill="#999999" stroke="#666666" points="187.5,-19 31.5,-19 31.5,0 187.5,0 187.5,-19"/>
<text text-anchor="middle" x="109.5" y="-7" font-family="Helvetica,sans-Serif" font-size="10.00">FieldOutputParameterLoader</text>
</a>
</g>
</g>
<!-- Node2 -->
<g id="Node000002" class="node">
<title>Node2</title>
<g id="a_Node000002"><a xlink:href="classParameterBase.html" target="_top" xlink:title="A base class for the various subcontainers of the user inputs.">
<polygon fill="white" stroke="#666666" points="91,-85 0,-85 0,-66 91,-66 91,-85"/>
<text text-anchor="middle" x="45.5" y="-73" font-family="Helvetica,sans-Serif" font-size="10.00">ParameterBase</text>
</a>
</g>
</g>
<!-- Node2&#45;&gt;Node1 -->
<g id="edge1_Node000001_Node000002" class="edge">
<title>Node2&#45;&gt;Node1</title>
<g id="a_edge1_Node000001_Node000002"><a xlink:title=" ">
<path fill="none" stroke="#8b1a1a" d="M61.52,-58.48C73.88,-46.12 90.51,-29.49 100.59,-19.41"/>
<polygon fill="#8b1a1a" stroke="#8b1a1a" points="58.73,-56.32 54.13,-65.87 63.68,-61.27 58.73,-56.32"/>
</a>
</g>
</g>
<!-- Node3 -->
<g id="Node000003" class="node">
<title>Node3</title>
<g id="a_Node000003"><a xlink:href="structFieldOutputParameters.html" target="_top" xlink:title="Simple struct for field output.">
<polygon fill="white" stroke="#666666" points="237.5,-85 109.5,-85 109.5,-66 237.5,-66 237.5,-85"/>
<text text-anchor="middle" x="173.5" y="-73" font-family="Helvetica,sans-Serif" font-size="10.00">FieldOutputParameters</text>
</a>
</g>
</g>
<!-- Node3&#45;&gt;Node1 -->
<g id="edge2_Node000001_Node000003" class="edge">
<title>Node3&#45;&gt;Node1</title>
<g id="a_edge2_Node000001_Node000003"><a xlink:title=" ">
<path fill="none" stroke="#9a32cd" stroke-dasharray="5,2" d="M157.48,-58.48C145.12,-46.12 128.49,-29.49 118.41,-19.41"/>
<polygon fill="#9a32cd" stroke="#9a32cd" points="155.32,-61.27 164.87,-65.87 160.27,-56.32 155.32,-61.27"/>
</a>
</g>
<text text-anchor="middle" x="174.5" y="-40" font-family="Helvetica,sans-Serif" font-size="10.00" fill="grey"> parameters</text>
</g>
</g>
</svg>
