<?xml version="1.0" encoding="UTF-8" standalone="no"?>
<!DOCTYPE svg PUBLIC "-//W3C//DTD SVG 1.1//EN"
 "http://www.w3.org/Graphics/SVG/1.1/DTD/svg11.dtd">
<!-- Generated by graphviz version 2.43.0 (0)
 -->
<!-- Title: /home/runner/work/phaseField/phaseField/include/prismspf/solvers/concurrent_explicit_postprocess_solver.h Pages: 1 -->
<svg width="756pt" height="379pt"
 viewBox="0.00 0.00 756.00 379.00" xmlns="http://www.w3.org/2000/svg" xmlns:xlink="http://www.w3.org/1999/xlink">
<g id="graph0" class="graph" transform="scale(1 1) rotate(0) translate(4 375)">
<title>/home/runner/work/phaseField/phaseField/include/prismspf/solvers/concurrent_explicit_postprocess_solver.h</title>
<!-- Node1 -->
<g id="Node000001" class="node">
<title>Node1</title>
<g id="a_Node000001"><a xlink:title=" ">
<polygon fill="#999999" stroke="#666666" points="183,-371 19,-371 19,-319 183,-319 183,-371"/>
<text text-anchor="start" x="27" y="-359" font-family="Helvetica,sans-Serif" font-size="10.00">/home/runner/work/phaseField</text>
<text text-anchor="start" x="27" y="-348" font-family="Helvetica,sans-Serif" font-size="10.00">/phaseField/include/prismspf</text>
<text text-anchor="start" x="27" y="-337" font-family="Helvetica,sans-Serif" font-size="10.00">/solvers/concurrent_explicit</text>
<text text-anchor="middle" x="101" y="-326" font-family="Helvetica,sans-Serif" font-size="10.00">_postprocess_solver.h</text>
</a>
</g>
</g>
<!-- Node2 -->
<g id="Node000002" class="node">
<title>Node2</title>
<g id="a_Node000002"><a xlink:href="types_8h.html" target="_top" xlink:title=" ">
<polygon fill="white" stroke="#666666" points="162,-145.5 40,-145.5 40,-126.5 162,-126.5 162,-145.5"/>
<text text-anchor="middle" x="101" y="-133.5" font-family="Helvetica,sans-Serif" font-size="10.00">prismspf/core/types.h</text>
</a>
</g>
</g>
<!-- Node1&#45;&gt;Node2 -->
<g id="edge1_Node000001_Node000002" class="edge">
<title>Node1&#45;&gt;Node2</title>
<g id="a_edge1_Node000001_Node000002"><a xlink:title=" ">
<path fill="none" stroke="#63b8ff" d="M101,-318.62C101,-276.53 101,-193.26 101,-155.9"/>
<polygon fill="#63b8ff" stroke="#63b8ff" points="104.5,-155.5 101,-145.5 97.5,-155.5 104.5,-155.5"/>
</a>
</g>
</g>
<!-- Node4 -->
<g id="Node000004" class="node">
<title>Node4</title>
<g id="a_Node000004"><a xlink:title=" ">
<polygon fill="#e0e0e0" stroke="#999999" points="140.5,-19 39.5,-19 39.5,0 140.5,0 140.5,-19"/>
<text text-anchor="middle" x="90" y="-7" font-family="Helvetica,sans-Serif" font-size="10.00">prismspf/config.h</text>
</a>
</g>
</g>
<!-- Node1&#45;&gt;Node4 -->
<g id="edge22_Node000001_Node000004" class="edge">
<title>Node1&#45;&gt;Node4</title>
<g id="a_edge22_Node000001_Node000004"><a xlink:title=" ">
<path fill="none" stroke="#63b8ff" d="M68.21,-318.99C38.72,-293.4 0,-250.73 0,-203 0,-203 0,-203 0,-135 0,-87.83 42.96,-46.41 69.51,-25.31"/>
<polygon fill="#63b8ff" stroke="#63b8ff" points="71.68,-28.06 77.49,-19.2 67.42,-22.51 71.68,-28.06"/>
</a>
</g>
</g>
<!-- Node8 -->
<g id="Node000008" class="node">
<title>Node8</title>
<g id="a_Node000008"><a xlink:href="concurrent__solver_8h.html" target="_top" xlink:title=" ">
<polygon fill="white" stroke="#666666" points="342,-283 190,-283 190,-253 342,-253 342,-283"/>
<text text-anchor="start" x="198" y="-271" font-family="Helvetica,sans-Serif" font-size="10.00">prismspf/solvers/concurrent</text>
<text text-anchor="middle" x="266" y="-260" font-family="Helvetica,sans-Serif" font-size="10.00">_solver.h</text>
</a>
</g>
</g>
<!-- Node1&#45;&gt;Node8 -->
<g id="edge8_Node000001_Node000008" class="edge">
<title>Node1&#45;&gt;Node8</title>
<g id="a_edge8_Node000001_Node000008"><a xlink:title=" ">
<path fill="none" stroke="#63b8ff" d="M156.4,-318.82C179.13,-308.48 204.95,-296.75 225.82,-287.26"/>
<polygon fill="#63b8ff" stroke="#63b8ff" points="227.38,-290.4 235.03,-283.08 224.48,-284.03 227.38,-290.4"/>
</a>
</g>
</g>
<!-- Node3 -->
<g id="Node000003" class="node">
<title>Node3</title>
<g id="a_Node000003"><a xlink:href="type__enums_8h.html" target="_top" xlink:title=" ">
<polygon fill="white" stroke="#666666" points="238,-85 130,-85 130,-55 238,-55 238,-85"/>
<text text-anchor="start" x="138" y="-73" font-family="Helvetica,sans-Serif" font-size="10.00">prismspf/core/type</text>
<text text-anchor="middle" x="184" y="-62" font-family="Helvetica,sans-Serif" font-size="10.00">_enums.h</text>
</a>
</g>
</g>
<!-- Node2&#45;&gt;Node3 -->
<g id="edge2_Node000002_Node000003" class="edge">
<title>Node2&#45;&gt;Node3</title>
<g id="a_edge2_Node000002_Node000003"><a xlink:title=" ">
<path fill="none" stroke="#63b8ff" d="M112.19,-126.37C123.77,-117.44 142.26,-103.19 157.57,-91.38"/>
<polygon fill="#63b8ff" stroke="#63b8ff" points="159.91,-93.99 165.69,-85.12 155.64,-88.45 159.91,-93.99"/>
</a>
</g>
</g>
<!-- Node2&#45;&gt;Node4 -->
<g id="edge6_Node000002_Node000004" class="edge">
<title>Node2&#45;&gt;Node4</title>
<g id="a_edge6_Node000002_Node000004"><a xlink:title=" ">
<path fill="none" stroke="#63b8ff" d="M89.83,-126.48C79.09,-117.51 63.53,-102.31 57,-85 52.29,-72.53 52.82,-67.66 57,-55 60.46,-44.54 67.43,-34.53 74.08,-26.66"/>
<polygon fill="#63b8ff" stroke="#63b8ff" points="76.86,-28.8 80.98,-19.04 71.67,-24.1 76.86,-28.8"/>
</a>
</g>
</g>
<!-- Node7 -->
<g id="Node000007" class="node">
<title>Node7</title>
<g id="a_Node000007"><a xlink:title=" ">
<polygon fill="#e0e0e0" stroke="#999999" points="111.5,-79.5 66.5,-79.5 66.5,-60.5 111.5,-60.5 111.5,-79.5"/>
<text text-anchor="middle" x="89" y="-67.5" font-family="Helvetica,sans-Serif" font-size="10.00">utility</text>
</a>
</g>
</g>
<!-- Node2&#45;&gt;Node7 -->
<g id="edge7_Node000002_Node000007" class="edge">
<title>Node2&#45;&gt;Node7</title>
<g id="a_edge7_Node000002_Node000007"><a xlink:title=" ">
<path fill="none" stroke="#63b8ff" d="M99.38,-126.37C97.64,-117.07 94.81,-101.98 92.54,-89.9"/>
<polygon fill="#63b8ff" stroke="#63b8ff" points="95.95,-89.09 90.67,-79.91 89.07,-90.38 95.95,-89.09"/>
</a>
</g>
</g>
<!-- Node3&#45;&gt;Node4 -->
<g id="edge3_Node000003_Node000004" class="edge">
<title>Node3&#45;&gt;Node4</title>
<g id="a_edge3_Node000003_Node000004"><a xlink:title=" ">
<path fill="none" stroke="#63b8ff" d="M161.25,-54.84C146.4,-45.6 127.1,-33.59 112.34,-24.4"/>
<polygon fill="#63b8ff" stroke="#63b8ff" points="114.15,-21.41 103.81,-19.09 110.45,-27.35 114.15,-21.41"/>
</a>
</g>
</g>
<!-- Node5 -->
<g id="Node000005" class="node">
<title>Node5</title>
<g id="a_Node000005"><a xlink:title=" ">
<polygon fill="#e0e0e0" stroke="#999999" points="209,-19 159,-19 159,0 209,0 209,-19"/>
<text text-anchor="middle" x="184" y="-7" font-family="Helvetica,sans-Serif" font-size="10.00">cstdint</text>
</a>
</g>
</g>
<!-- Node3&#45;&gt;Node5 -->
<g id="edge4_Node000003_Node000005" class="edge">
<title>Node3&#45;&gt;Node5</title>
<g id="a_edge4_Node000003_Node000005"><a xlink:title=" ">
<path fill="none" stroke="#63b8ff" d="M184,-54.84C184,-47.21 184,-37.7 184,-29.45"/>
<polygon fill="#63b8ff" stroke="#63b8ff" points="187.5,-29.27 184,-19.27 180.5,-29.27 187.5,-29.27"/>
</a>
</g>
</g>
<!-- Node6 -->
<g id="Node000006" class="node">
<title>Node6</title>
<g id="a_Node000006"><a xlink:title=" ">
<polygon fill="#e0e0e0" stroke="#999999" points="271,-19 227,-19 227,0 271,0 271,-19"/>
<text text-anchor="middle" x="249" y="-7" font-family="Helvetica,sans-Serif" font-size="10.00">string</text>
</a>
</g>
</g>
<!-- Node3&#45;&gt;Node6 -->
<g id="edge5_Node000003_Node000006" class="edge">
<title>Node3&#45;&gt;Node6</title>
<g id="a_edge5_Node000003_Node000006"><a xlink:title=" ">
<path fill="none" stroke="#63b8ff" d="M199.73,-54.84C209.36,-46.17 221.69,-35.08 231.61,-26.15"/>
<polygon fill="#63b8ff" stroke="#63b8ff" points="234.17,-28.56 239.26,-19.27 229.49,-23.35 234.17,-28.56"/>
</a>
</g>
</g>
<!-- Node8&#45;&gt;Node2 -->
<g id="edge10_Node000008_Node000002" class="edge">
<title>Node8&#45;&gt;Node2</title>
<g id="a_edge10_Node000008_Node000002"><a xlink:title=" ">
<path fill="none" stroke="#63b8ff" d="M235.37,-252.97C217.25,-243.96 194.32,-231.29 176,-217 151.58,-197.96 127.92,-170.82 113.91,-153.56"/>
<polygon fill="#63b8ff" stroke="#63b8ff" points="116.47,-151.17 107.5,-145.53 111,-155.53 116.47,-151.17"/>
</a>
</g>
</g>
<!-- Node8&#45;&gt;Node3 -->
<g id="edge9_Node000008_Node000003" class="edge">
<title>Node8&#45;&gt;Node3</title>
<g id="a_edge9_Node000008_Node000003"><a xlink:title=" ">
<path fill="none" stroke="#63b8ff" d="M260.1,-252.9C246.16,-219.58 211.04,-135.64 193.83,-94.49"/>
<polygon fill="#63b8ff" stroke="#63b8ff" points="197.04,-93.11 189.95,-85.23 190.58,-95.81 197.04,-93.11"/>
</a>
</g>
</g>
<!-- Node8&#45;&gt;Node4 -->
<g id="edge19_Node000008_Node000004" class="edge">
<title>Node8&#45;&gt;Node4</title>
<g id="a_edge19_Node000008_Node000004"><a xlink:title=" ">
<path fill="none" stroke="#63b8ff" d="M269.6,-252.88C278.19,-215.66 295.69,-113.76 247,-55 234.47,-39.88 189.48,-28.09 150.86,-20.45"/>
<polygon fill="#63b8ff" stroke="#63b8ff" points="151.16,-16.95 140.68,-18.51 149.85,-23.82 151.16,-16.95"/>
</a>
</g>
</g>
<!-- Node9 -->
<g id="Node000009" class="node">
<title>Node9</title>
<g id="a_Node000009"><a xlink:href="solver__base_8h.html" target="_top" xlink:title=" ">
<polygon fill="white" stroke="#666666" points="425.5,-217 294.5,-217 294.5,-187 425.5,-187 425.5,-217"/>
<text text-anchor="start" x="302.5" y="-205" font-family="Helvetica,sans-Serif" font-size="10.00">prismspf/solvers/solver</text>
<text text-anchor="middle" x="360" y="-194" font-family="Helvetica,sans-Serif" font-size="10.00">_base.h</text>
</a>
</g>
</g>
<!-- Node8&#45;&gt;Node9 -->
<g id="edge11_Node000008_Node000009" class="edge">
<title>Node8&#45;&gt;Node9</title>
<g id="a_edge11_Node000008_Node000009"><a xlink:title=" ">
<path fill="none" stroke="#63b8ff" d="M286.86,-252.8C299.76,-244.01 316.51,-232.61 330.73,-222.93"/>
<polygon fill="#63b8ff" stroke="#63b8ff" points="332.9,-225.69 339.2,-217.16 328.96,-219.9 332.9,-225.69"/>
</a>
</g>
</g>
<!-- Node13 -->
<g id="Node000013" class="node">
<title>Node13</title>
<g id="a_Node000013"><a xlink:title=" ">
<polygon fill="#e0e0e0" stroke="#999999" points="748,-145.5 690,-145.5 690,-126.5 748,-126.5 748,-145.5"/>
<text text-anchor="middle" x="719" y="-133.5" font-family="Helvetica,sans-Serif" font-size="10.00">memory</text>
</a>
</g>
</g>
<!-- Node8&#45;&gt;Node13 -->
<g id="edge21_Node000008_Node000013" class="edge">
<title>Node8&#45;&gt;Node13</title>
<g id="a_edge21_Node000008_Node000013"><a xlink:title=" ">
<path fill="none" stroke="#63b8ff" d="M333.98,-252.96C365.72,-244.91 403.38,-233.13 435,-217 454.48,-207.06 453.98,-195.8 474,-187 559.49,-149.44 590.82,-175.24 681,-151 683.44,-150.35 685.94,-149.6 688.43,-148.8"/>
<polygon fill="#63b8ff" stroke="#63b8ff" points="689.6,-152.1 697.91,-145.54 687.32,-145.48 689.6,-152.1"/>
</a>
</g>
</g>
<!-- Node14 -->
<g id="Node000014" class="node">
<title>Node14</title>
<g id="a_Node000014"><a xlink:title=" ">
<polygon fill="#e0e0e0" stroke="#999999" points="547.5,-211.5 482.5,-211.5 482.5,-192.5 547.5,-192.5 547.5,-211.5"/>
<text text-anchor="middle" x="515" y="-199.5" font-family="Helvetica,sans-Serif" font-size="10.00">functional</text>
</a>
</g>
</g>
<!-- Node8&#45;&gt;Node14 -->
<g id="edge20_Node000008_Node000014" class="edge">
<title>Node8&#45;&gt;Node14</title>
<g id="a_edge20_Node000008_Node000014"><a xlink:title=" ">
<path fill="none" stroke="#63b8ff" d="M325.85,-252.96C366.15,-243.32 420.42,-229.97 468,-217 471.12,-216.15 474.35,-215.24 477.59,-214.32"/>
<polygon fill="#63b8ff" stroke="#63b8ff" points="478.61,-217.67 487.23,-211.51 476.65,-210.94 478.61,-217.67"/>
</a>
</g>
</g>
<!-- Node9&#45;&gt;Node2 -->
<g id="edge15_Node000009_Node000002" class="edge">
<title>Node9&#45;&gt;Node2</title>
<g id="a_edge15_Node000009_Node000002"><a xlink:title=" ">
<path fill="none" stroke="#63b8ff" d="M303.16,-186.95C255.64,-175.21 188.81,-158.7 145.21,-147.93"/>
<polygon fill="#63b8ff" stroke="#63b8ff" points="146.02,-144.52 135.47,-145.52 144.34,-151.31 146.02,-144.52"/>
</a>
</g>
</g>
<!-- Node9&#45;&gt;Node3 -->
<g id="edge14_Node000009_Node000003" class="edge">
<title>Node9&#45;&gt;Node3</title>
<g id="a_edge14_Node000009_Node000003"><a xlink:title=" ">
<path fill="none" stroke="#63b8ff" d="M339.99,-186.91C325.93,-176.97 306.73,-163.29 290,-151 262.6,-130.88 231.61,-107.4 210.24,-91.11"/>
<polygon fill="#63b8ff" stroke="#63b8ff" points="212.35,-88.31 202.27,-85.02 208.1,-93.87 212.35,-88.31"/>
</a>
</g>
</g>
<!-- Node9&#45;&gt;Node4 -->
<g id="edge16_Node000009_Node000004" class="edge">
<title>Node9&#45;&gt;Node4</title>
<g id="a_edge16_Node000009_Node000004"><a xlink:title=" ">
<path fill="none" stroke="#63b8ff" d="M348.12,-186.7C340.39,-177 330.41,-163.68 323,-151 299.4,-110.64 316.06,-84.75 280,-55 269.54,-46.37 197.78,-31.12 145.53,-20.91"/>
<polygon fill="#63b8ff" stroke="#63b8ff" points="146.18,-17.47 135.7,-19 144.85,-24.34 146.18,-17.47"/>
</a>
</g>
</g>
<!-- Node10 -->
<g id="Node000010" class="node">
<title>Node10</title>
<g id="a_Node000010"><a xlink:title=" ">
<polygon fill="#e0e0e0" stroke="#999999" points="470,-145.5 332,-145.5 332,-126.5 470,-126.5 470,-145.5"/>
<text text-anchor="middle" x="401" y="-133.5" font-family="Helvetica,sans-Serif" font-size="10.00">deal.II/base/exceptions.h</text>
</a>
</g>
</g>
<!-- Node9&#45;&gt;Node10 -->
<g id="edge12_Node000009_Node000010" class="edge">
<title>Node9&#45;&gt;Node10</title>
<g id="a_edge12_Node000009_Node000010"><a xlink:title=" ">
<path fill="none" stroke="#63b8ff" d="M369.1,-186.8C375.24,-177.21 383.38,-164.5 389.9,-154.32"/>
<polygon fill="#63b8ff" stroke="#63b8ff" points="392.89,-156.15 395.33,-145.84 386.99,-152.38 392.89,-156.15"/>
</a>
</g>
</g>
<!-- Node11 -->
<g id="Node000011" class="node">
<title>Node11</title>
<g id="a_Node000011"><a xlink:title=" ">
<polygon fill="#e0e0e0" stroke="#999999" points="616,-151 488,-151 488,-121 616,-121 616,-151"/>
<text text-anchor="start" x="496" y="-139" font-family="Helvetica,sans-Serif" font-size="10.00">deal.II/numerics/vector</text>
<text text-anchor="middle" x="552" y="-128" font-family="Helvetica,sans-Serif" font-size="10.00">_tools.h</text>
</a>
</g>
</g>
<!-- Node9&#45;&gt;Node11 -->
<g id="edge13_Node000009_Node000011" class="edge">
<title>Node9&#45;&gt;Node11</title>
<g id="a_edge13_Node000009_Node000011"><a xlink:title=" ">
<path fill="none" stroke="#63b8ff" d="M402.14,-186.95C431.02,-177.33 469.53,-164.49 500.27,-154.24"/>
<polygon fill="#63b8ff" stroke="#63b8ff" points="501.58,-157.5 509.96,-151.01 499.37,-150.85 501.58,-157.5"/>
</a>
</g>
</g>
<!-- Node12 -->
<g id="Node000012" class="node">
<title>Node12</title>
<g id="a_Node000012"><a xlink:title=" ">
<polygon fill="#e0e0e0" stroke="#999999" points="672,-145.5 634,-145.5 634,-126.5 672,-126.5 672,-145.5"/>
<text text-anchor="middle" x="653" y="-133.5" font-family="Helvetica,sans-Serif" font-size="10.00">map</text>
</a>
</g>
</g>
<!-- Node9&#45;&gt;Node12 -->
<g id="edge17_Node000009_Node000012" class="edge">
<title>Node9&#45;&gt;Node12</title>
<g id="a_edge17_Node000009_Node000012"><a xlink:title=" ">
<path fill="none" stroke="#63b8ff" d="M425.77,-189.06C501.14,-175.31 615.54,-154.19 625,-151 626.06,-150.64 627.12,-150.26 628.19,-149.84"/>
<polygon fill="#63b8ff" stroke="#63b8ff" points="629.92,-152.9 637.63,-145.64 627.07,-146.51 629.92,-152.9"/>
</a>
</g>
</g>
<!-- Node9&#45;&gt;Node13 -->
<g id="edge18_Node000009_Node000013" class="edge">
<title>Node9&#45;&gt;Node13</title>
<g id="a_edge18_Node000009_Node000013"><a xlink:title=" ">
<path fill="none" stroke="#63b8ff" d="M425.9,-189.33C430.67,-188.53 435.41,-187.74 440,-187 546.9,-169.66 576.08,-177.86 681,-151 683.44,-150.37 685.95,-149.65 688.45,-148.86"/>
<polygon fill="#63b8ff" stroke="#63b8ff" points="689.6,-152.17 697.94,-145.63 687.34,-145.54 689.6,-152.17"/>
</a>
</g>
</g>
</g>
</svg>
