<?xml version="1.0" encoding="UTF-8" standalone="no"?>
<!DOCTYPE svg PUBLIC "-//W3C//DTD SVG 1.1//EN"
 "http://www.w3.org/Graphics/SVG/1.1/DTD/svg11.dtd">
<!-- Generated by graphviz version 2.43.0 (0)
 -->
<!-- Title: /home/runner/work/phaseField/phaseField/src/core/conditional_ostreams.cc Pages: 1 -->
<svg width="790pt" height="181pt"
 viewBox="0.00 0.00 789.60 181.00" xmlns="http://www.w3.org/2000/svg" xmlns:xlink="http://www.w3.org/1999/xlink">
<g id="graph0" class="graph" transform="scale(1 1) rotate(0) translate(4 177)">
<title>/home/runner/work/phaseField/phaseField/src/core/conditional_ostreams.cc</title>
<!-- Node1 -->
<g id="Node000001" class="node">
<title>Node1</title>
<g id="a_Node000001"><a xlink:title=" ">
<polygon fill="#999999" stroke="#666666" points="494.1,-173 324.1,-173 324.1,-132 494.1,-132 494.1,-173"/>
<text text-anchor="start" x="332.1" y="-161" font-family="Helvetica,sans-Serif" font-size="10.00">/home/runner/work/phaseField</text>
<text text-anchor="start" x="332.1" y="-150" font-family="Helvetica,sans-Serif" font-size="10.00">/phaseField/src/core/conditional</text>
<text text-anchor="middle" x="409.1" y="-139" font-family="Helvetica,sans-Serif" font-size="10.00">_ostreams.cc</text>
</a>
</g>
</g>
<!-- Node2 -->
<g id="Node000002" class="node">
<title>Node2</title>
<g id="a_Node000002"><a xlink:title=" ">
<polygon fill="#e0e0e0" stroke="#999999" points="144.1,-30 14.1,-30 14.1,0 144.1,0 144.1,-30"/>
<text text-anchor="start" x="22.1" y="-18" font-family="Helvetica,sans-Serif" font-size="10.00">deal.II/base/conditional</text>
<text text-anchor="middle" x="79.1" y="-7" font-family="Helvetica,sans-Serif" font-size="10.00">_ostream.h</text>
</a>
</g>
</g>
<!-- Node1&#45;&gt;Node2 -->
<g id="edge1_Node000001_Node000002" class="edge">
<title>Node1&#45;&gt;Node2</title>
<g id="a_edge1_Node000001_Node000002"><a xlink:title=" ">
<path fill="none" stroke="#63b8ff" d="M323.98,-152.32C218.15,-151.31 46.48,-142.32 6.1,-96 -12.27,-74.93 15.33,-51.34 41.69,-35.28"/>
<polygon fill="#63b8ff" stroke="#63b8ff" points="43.64,-38.19 50.52,-30.13 40.12,-32.14 43.64,-38.19"/>
</a>
</g>
</g>
<!-- Node3 -->
<g id="Node000003" class="node">
<title>Node3</title>
<g id="a_Node000003"><a xlink:title=" ">
<polygon fill="#e0e0e0" stroke="#999999" points="119.1,-90.5 15.1,-90.5 15.1,-71.5 119.1,-71.5 119.1,-90.5"/>
<text text-anchor="middle" x="67.1" y="-78.5" font-family="Helvetica,sans-Serif" font-size="10.00">deal.II/base/mpi.h</text>
</a>
</g>
</g>
<!-- Node1&#45;&gt;Node3 -->
<g id="edge2_Node000001_Node000003" class="edge">
<title>Node1&#45;&gt;Node3</title>
<g id="a_edge2_Node000001_Node000003"><a xlink:title=" ">
<path fill="none" stroke="#63b8ff" d="M323.81,-135.36C268.03,-124.63 193.64,-109.99 128.1,-96 123.37,-94.99 118.44,-93.91 113.52,-92.81"/>
<polygon fill="#63b8ff" stroke="#63b8ff" points="114.04,-89.34 103.51,-90.55 112.5,-96.17 114.04,-89.34"/>
</a>
</g>
</g>
<!-- Node4 -->
<g id="Node000004" class="node">
<title>Node4</title>
<g id="a_Node000004"><a xlink:href="conditional__ostreams_8h.html" target="_top" xlink:title=" ">
<polygon fill="white" stroke="#666666" points="277.1,-96 137.1,-96 137.1,-66 277.1,-66 277.1,-96"/>
<text text-anchor="start" x="145.1" y="-84" font-family="Helvetica,sans-Serif" font-size="10.00">prismspf/core/conditional</text>
<text text-anchor="middle" x="207.1" y="-73" font-family="Helvetica,sans-Serif" font-size="10.00">_ostreams.h</text>
</a>
</g>
</g>
<!-- Node1&#45;&gt;Node4 -->
<g id="edge3_Node000001_Node000004" class="edge">
<title>Node1&#45;&gt;Node4</title>
<g id="a_edge3_Node000001_Node000004"><a xlink:title=" ">
<path fill="none" stroke="#63b8ff" d="M352.3,-131.96C322.42,-121.68 286.11,-109.18 257.28,-99.26"/>
<polygon fill="#63b8ff" stroke="#63b8ff" points="258.4,-95.95 247.81,-96 256.12,-102.57 258.4,-95.95"/>
</a>
</g>
</g>
<!-- Node5 -->
<g id="Node000005" class="node">
<title>Node5</title>
<g id="a_Node000005"><a xlink:title=" ">
<polygon fill="#e0e0e0" stroke="#999999" points="355.6,-24.5 254.6,-24.5 254.6,-5.5 355.6,-5.5 355.6,-24.5"/>
<text text-anchor="middle" x="305.1" y="-12.5" font-family="Helvetica,sans-Serif" font-size="10.00">prismspf/config.h</text>
</a>
</g>
</g>
<!-- Node1&#45;&gt;Node5 -->
<g id="edge9_Node000001_Node000005" class="edge">
<title>Node1&#45;&gt;Node5</title>
<g id="a_edge9_Node000001_Node000005"><a xlink:title=" ">
<path fill="none" stroke="#63b8ff" d="M366.97,-131.99C351.74,-123.01 335.71,-110.98 325.1,-96 312.15,-77.69 307.56,-51.83 305.95,-34.51"/>
<polygon fill="#63b8ff" stroke="#63b8ff" points="309.44,-34.27 305.26,-24.54 302.46,-34.75 309.44,-34.27"/>
</a>
</g>
</g>
<!-- Node6 -->
<g id="Node000006" class="node">
<title>Node6</title>
<g id="a_Node000006"><a xlink:href="tee__stream_8h.html" target="_top" xlink:title=" ">
<polygon fill="white" stroke="#666666" points="484.6,-90.5 333.6,-90.5 333.6,-71.5 484.6,-71.5 484.6,-90.5"/>
<text text-anchor="middle" x="409.1" y="-78.5" font-family="Helvetica,sans-Serif" font-size="10.00">prismspf/core/tee_stream.h</text>
</a>
</g>
</g>
<!-- Node1&#45;&gt;Node6 -->
<g id="edge6_Node000001_Node000006" class="edge">
<title>Node1&#45;&gt;Node6</title>
<g id="a_edge6_Node000001_Node000006"><a xlink:title=" ">
<path fill="none" stroke="#63b8ff" d="M409.1,-131.77C409.1,-122.08 409.1,-110.46 409.1,-100.88"/>
<polygon fill="#63b8ff" stroke="#63b8ff" points="412.6,-100.82 409.1,-90.82 405.6,-100.82 412.6,-100.82"/>
</a>
</g>
</g>
<!-- Node8 -->
<g id="Node000008" class="node">
<title>Node8</title>
<g id="a_Node000008"><a xlink:title=" ">
<polygon fill="#e0e0e0" stroke="#999999" points="557.6,-90.5 502.6,-90.5 502.6,-71.5 557.6,-71.5 557.6,-90.5"/>
<text text-anchor="middle" x="530.1" y="-78.5" font-family="Helvetica,sans-Serif" font-size="10.00">fstream</text>
</a>
</g>
</g>
<!-- Node1&#45;&gt;Node8 -->
<g id="edge10_Node000001_Node000008" class="edge">
<title>Node1&#45;&gt;Node8</title>
<g id="a_edge10_Node000001_Node000008"><a xlink:title=" ">
<path fill="none" stroke="#63b8ff" d="M443.13,-131.96C463.37,-120.33 488.53,-105.88 506.58,-95.51"/>
<polygon fill="#63b8ff" stroke="#63b8ff" points="508.37,-98.52 515.3,-90.5 504.89,-92.45 508.37,-98.52"/>
</a>
</g>
</g>
<!-- Node9 -->
<g id="Node000009" class="node">
<title>Node9</title>
<g id="a_Node000009"><a xlink:title=" ">
<polygon fill="#e0e0e0" stroke="#999999" points="636.1,-90.5 576.1,-90.5 576.1,-71.5 636.1,-71.5 636.1,-90.5"/>
<text text-anchor="middle" x="606.1" y="-78.5" font-family="Helvetica,sans-Serif" font-size="10.00">iostream</text>
</a>
</g>
</g>
<!-- Node1&#45;&gt;Node9 -->
<g id="edge11_Node000001_Node000009" class="edge">
<title>Node1&#45;&gt;Node9</title>
<g id="a_edge11_Node000001_Node000009"><a xlink:title=" ">
<path fill="none" stroke="#63b8ff" d="M465.08,-131.94C495.31,-121.35 533.27,-108.02 567.1,-96 568.93,-95.35 570.81,-94.68 572.71,-94.01"/>
<polygon fill="#63b8ff" stroke="#63b8ff" points="573.95,-97.28 582.19,-90.61 571.59,-90.69 573.95,-97.28"/>
</a>
</g>
</g>
<!-- Node10 -->
<g id="Node000010" class="node">
<title>Node10</title>
<g id="a_Node000010"><a xlink:title=" ">
<polygon fill="#e0e0e0" stroke="#999999" points="698.1,-90.5 654.1,-90.5 654.1,-71.5 698.1,-71.5 698.1,-90.5"/>
<text text-anchor="middle" x="676.1" y="-78.5" font-family="Helvetica,sans-Serif" font-size="10.00">mpi.h</text>
</a>
</g>
</g>
<!-- Node1&#45;&gt;Node10 -->
<g id="edge12_Node000001_Node000010" class="edge">
<title>Node1&#45;&gt;Node10</title>
<g id="a_edge12_Node000001_Node000010"><a xlink:title=" ">
<path fill="none" stroke="#63b8ff" d="M494.32,-135.61C539.69,-126.12 596.09,-112.66 645.1,-96 646.5,-95.52 647.92,-95.01 649.35,-94.47"/>
<polygon fill="#63b8ff" stroke="#63b8ff" points="650.75,-97.67 658.64,-90.6 648.06,-91.21 650.75,-97.67"/>
</a>
</g>
</g>
<!-- Node11 -->
<g id="Node000011" class="node">
<title>Node11</title>
<g id="a_Node000011"><a xlink:title=" ">
<polygon fill="#e0e0e0" stroke="#999999" points="781.6,-90.5 716.6,-90.5 716.6,-71.5 781.6,-71.5 781.6,-90.5"/>
<text text-anchor="middle" x="749.1" y="-78.5" font-family="Helvetica,sans-Serif" font-size="10.00">stdexcept</text>
</a>
</g>
</g>
<!-- Node1&#45;&gt;Node11 -->
<g id="edge13_Node000001_Node000011" class="edge">
<title>Node1&#45;&gt;Node11</title>
<g id="a_edge13_Node000001_Node000011"><a xlink:title=" ">
<path fill="none" stroke="#63b8ff" d="M494.24,-138.84C554.22,-129.15 636.16,-114.34 707.1,-96 709.9,-95.28 712.77,-94.47 715.64,-93.61"/>
<polygon fill="#63b8ff" stroke="#63b8ff" points="716.8,-96.91 725.29,-90.57 714.7,-90.24 716.8,-96.91"/>
</a>
</g>
</g>
<!-- Node4&#45;&gt;Node2 -->
<g id="edge4_Node000004_Node000002" class="edge">
<title>Node4&#45;&gt;Node2</title>
<g id="a_edge4_Node000004_Node000002"><a xlink:title=" ">
<path fill="none" stroke="#63b8ff" d="M179.01,-65.95C160.59,-56.74 136.3,-44.6 116.28,-34.59"/>
<polygon fill="#63b8ff" stroke="#63b8ff" points="117.64,-31.35 107.13,-30.01 114.51,-37.61 117.64,-31.35"/>
</a>
</g>
</g>
<!-- Node4&#45;&gt;Node5 -->
<g id="edge5_Node000004_Node000005" class="edge">
<title>Node4&#45;&gt;Node5</title>
<g id="a_edge5_Node000004_Node000005"><a xlink:title=" ">
<path fill="none" stroke="#63b8ff" d="M228.85,-65.8C244.98,-55.27 266.87,-40.97 283.06,-30.4"/>
<polygon fill="#63b8ff" stroke="#63b8ff" points="285.39,-33.06 291.85,-24.66 281.56,-27.2 285.39,-33.06"/>
</a>
</g>
</g>
<!-- Node6&#45;&gt;Node5 -->
<g id="edge7_Node000006_Node000005" class="edge">
<title>Node6&#45;&gt;Node5</title>
<g id="a_edge7_Node000006_Node000005"><a xlink:title=" ">
<path fill="none" stroke="#63b8ff" d="M395.08,-71.37C377.87,-60.78 348.45,-42.67 327.95,-30.06"/>
<polygon fill="#63b8ff" stroke="#63b8ff" points="329.59,-26.96 319.24,-24.7 325.92,-32.92 329.59,-26.96"/>
</a>
</g>
</g>
<!-- Node7 -->
<g id="Node000007" class="node">
<title>Node7</title>
<g id="a_Node000007"><a xlink:title=" ">
<polygon fill="#e0e0e0" stroke="#999999" points="437.6,-24.5 380.6,-24.5 380.6,-5.5 437.6,-5.5 437.6,-24.5"/>
<text text-anchor="middle" x="409.1" y="-12.5" font-family="Helvetica,sans-Serif" font-size="10.00">ostream</text>
</a>
</g>
</g>
<!-- Node6&#45;&gt;Node7 -->
<g id="edge8_Node000006_Node000007" class="edge">
<title>Node6&#45;&gt;Node7</title>
<g id="a_edge8_Node000006_Node000007"><a xlink:title=" ">
<path fill="none" stroke="#63b8ff" d="M409.1,-71.37C409.1,-62.16 409.1,-47.29 409.1,-35.27"/>
<polygon fill="#63b8ff" stroke="#63b8ff" points="412.6,-34.91 409.1,-24.91 405.6,-34.91 412.6,-34.91"/>
</a>
</g>
</g>
</g>
</svg>
