<?xml version="1.0" encoding="UTF-8" standalone="no"?>
<!DOCTYPE svg PUBLIC "-//W3C//DTD SVG 1.1//EN"
 "http://www.w3.org/Graphics/SVG/1.1/DTD/svg11.dtd">
<!-- Generated by graphviz version 2.43.0 (0)
 -->
<!-- Title: /home/runner/work/phaseField/phaseField/include/prismspf/core/dof_handler.h Pages: 1 -->
<svg width="1217pt" height="302pt"
 viewBox="0.00 0.00 1216.50 302.00" xmlns="http://www.w3.org/2000/svg" xmlns:xlink="http://www.w3.org/1999/xlink">
<g id="graph0" class="graph" transform="scale(1 1) rotate(0) translate(4 298)">
<title>/home/runner/work/phaseField/phaseField/include/prismspf/core/dof_handler.h</title>
<!-- Node1 -->
<g id="Node000001" class="node">
<title>Node1</title>
<g id="a_Node000001"><a xlink:title=" ">
<polygon fill="#999999" stroke="#666666" points="529.5,-294 365.5,-294 365.5,-253 529.5,-253 529.5,-294"/>
<text text-anchor="start" x="373.5" y="-282" font-family="Helvetica,sans-Serif" font-size="10.00">/home/runner/work/phaseField</text>
<text text-anchor="start" x="373.5" y="-271" font-family="Helvetica,sans-Serif" font-size="10.00">/phaseField/include/prismspf</text>
<text text-anchor="middle" x="447.5" y="-260" font-family="Helvetica,sans-Serif" font-size="10.00">/core/dof_handler.h</text>
</a>
</g>
</g>
<!-- Node2 -->
<g id="Node000002" class="node">
<title>Node2</title>
<g id="a_Node000002"><a xlink:title=" ">
<polygon fill="#e0e0e0" stroke="#999999" points="121,-217 0,-217 0,-187 121,-187 121,-217"/>
<text text-anchor="start" x="8" y="-205" font-family="Helvetica,sans-Serif" font-size="10.00">deal.II/base/mg_level</text>
<text text-anchor="middle" x="60.5" y="-194" font-family="Helvetica,sans-Serif" font-size="10.00">_object.h</text>
</a>
</g>
</g>
<!-- Node1&#45;&gt;Node2 -->
<g id="edge1_Node000001_Node000002" class="edge">
<title>Node1&#45;&gt;Node2</title>
<g id="a_edge1_Node000001_Node000002"><a xlink:title=" ">
<path fill="none" stroke="#63b8ff" d="M365.3,-258.67C303.63,-248.16 216.85,-233.1 131.1,-217.09"/>
<polygon fill="#63b8ff" stroke="#63b8ff" points="131.66,-213.63 121.19,-215.23 130.37,-220.51 131.66,-213.63"/>
</a>
</g>
</g>
<!-- Node3 -->
<g id="Node000003" class="node">
<title>Node3</title>
<g id="a_Node000003"><a xlink:title=" ">
<polygon fill="#e0e0e0" stroke="#999999" points="279.5,-211.5 139.5,-211.5 139.5,-192.5 279.5,-192.5 279.5,-211.5"/>
<text text-anchor="middle" x="209.5" y="-199.5" font-family="Helvetica,sans-Serif" font-size="10.00">deal.II/dofs/dof_handler.h</text>
</a>
</g>
</g>
<!-- Node1&#45;&gt;Node3 -->
<g id="edge2_Node000001_Node000003" class="edge">
<title>Node1&#45;&gt;Node3</title>
<g id="a_edge2_Node000001_Node000003"><a xlink:title=" ">
<path fill="none" stroke="#63b8ff" d="M380.57,-252.96C338.02,-240.53 284.42,-224.88 248.66,-214.44"/>
<polygon fill="#63b8ff" stroke="#63b8ff" points="249.2,-210.95 238.62,-211.5 247.24,-217.67 249.2,-210.95"/>
</a>
</g>
</g>
<!-- Node4 -->
<g id="Node000004" class="node">
<title>Node4</title>
<g id="a_Node000004"><a xlink:title=" ">
<polygon fill="#e0e0e0" stroke="#999999" points="419.5,-211.5 297.5,-211.5 297.5,-192.5 419.5,-192.5 419.5,-211.5"/>
<text text-anchor="middle" x="358.5" y="-199.5" font-family="Helvetica,sans-Serif" font-size="10.00">deal.II/fe/fe_system.h</text>
</a>
</g>
</g>
<!-- Node1&#45;&gt;Node4 -->
<g id="edge3_Node000001_Node000004" class="edge">
<title>Node1&#45;&gt;Node4</title>
<g id="a_edge3_Node000001_Node000004"><a xlink:title=" ">
<path fill="none" stroke="#63b8ff" d="M422.23,-252.77C408.2,-241.81 391.02,-228.39 378.03,-218.25"/>
<polygon fill="#63b8ff" stroke="#63b8ff" points="379.83,-215.22 369.79,-211.82 375.52,-220.73 379.83,-215.22"/>
</a>
</g>
</g>
<!-- Node5 -->
<g id="Node000005" class="node">
<title>Node5</title>
<g id="a_Node000005"><a xlink:href="type__enums_8h.html" target="_top" xlink:title=" ">
<polygon fill="white" stroke="#666666" points="1167.5,-85 1059.5,-85 1059.5,-55 1167.5,-55 1167.5,-85"/>
<text text-anchor="start" x="1067.5" y="-73" font-family="Helvetica,sans-Serif" font-size="10.00">prismspf/core/type</text>
<text text-anchor="middle" x="1113.5" y="-62" font-family="Helvetica,sans-Serif" font-size="10.00">_enums.h</text>
</a>
</g>
</g>
<!-- Node1&#45;&gt;Node5 -->
<g id="edge4_Node000001_Node000005" class="edge">
<title>Node1&#45;&gt;Node5</title>
<g id="a_edge4_Node000001_Node000005"><a xlink:title=" ">
<path fill="none" stroke="#63b8ff" d="M529.78,-270.05C634.36,-265.53 819.88,-252.76 974.5,-217 1057.92,-197.71 1106.41,-221.15 1155.5,-151 1168.6,-132.28 1153.19,-108.95 1137.47,-92.33"/>
<polygon fill="#63b8ff" stroke="#63b8ff" points="1139.88,-89.79 1130.33,-85.21 1134.94,-94.75 1139.88,-89.79"/>
</a>
</g>
</g>
<!-- Node6 -->
<g id="Node000006" class="node">
<title>Node6</title>
<g id="a_Node000006"><a xlink:title=" ">
<polygon fill="#e0e0e0" stroke="#999999" points="568,-19 467,-19 467,0 568,0 568,-19"/>
<text text-anchor="middle" x="517.5" y="-7" font-family="Helvetica,sans-Serif" font-size="10.00">prismspf/config.h</text>
</a>
</g>
</g>
<!-- Node1&#45;&gt;Node6 -->
<g id="edge23_Node000001_Node000006" class="edge">
<title>Node1&#45;&gt;Node6</title>
<g id="a_edge23_Node000001_Node000006"><a xlink:title=" ">
<path fill="none" stroke="#63b8ff" d="M448.43,-252.84C450.85,-213.77 459.28,-124.14 487.5,-55 491.54,-45.1 497.99,-35.13 503.88,-27.14"/>
<polygon fill="#63b8ff" stroke="#63b8ff" points="506.77,-29.13 510.12,-19.08 501.23,-24.84 506.77,-29.13"/>
</a>
</g>
</g>
<!-- Node9 -->
<g id="Node000009" class="node">
<title>Node9</title>
<g id="a_Node000009"><a xlink:href="types_8h.html" target="_top" xlink:title=" ">
<polygon fill="white" stroke="#666666" points="635.5,-145.5 513.5,-145.5 513.5,-126.5 635.5,-126.5 635.5,-145.5"/>
<text text-anchor="middle" x="574.5" y="-133.5" font-family="Helvetica,sans-Serif" font-size="10.00">prismspf/core/types.h</text>
</a>
</g>
</g>
<!-- Node1&#45;&gt;Node9 -->
<g id="edge8_Node000001_Node000009" class="edge">
<title>Node1&#45;&gt;Node9</title>
<g id="a_edge8_Node000001_Node000009"><a xlink:title=" ">
<path fill="none" stroke="#63b8ff" d="M465.97,-252.8C491.18,-225.89 535.92,-178.16 559.31,-153.21"/>
<polygon fill="#63b8ff" stroke="#63b8ff" points="562.07,-155.38 566.36,-145.69 556.97,-150.59 562.07,-155.38"/>
</a>
</g>
</g>
<!-- Node11 -->
<g id="Node000011" class="node">
<title>Node11</title>
<g id="a_Node000011"><a xlink:href="variable__attributes_8h.html" target="_top" xlink:title=" ">
<polygon fill="white" stroke="#666666" points="965.5,-217 839.5,-217 839.5,-187 965.5,-187 965.5,-217"/>
<text text-anchor="start" x="847.5" y="-205" font-family="Helvetica,sans-Serif" font-size="10.00">prismspf/core/variable</text>
<text text-anchor="middle" x="902.5" y="-194" font-family="Helvetica,sans-Serif" font-size="10.00">_attributes.h</text>
</a>
</g>
</g>
<!-- Node1&#45;&gt;Node11 -->
<g id="edge12_Node000001_Node000011" class="edge">
<title>Node1&#45;&gt;Node11</title>
<g id="a_edge12_Node000001_Node000011"><a xlink:title=" ">
<path fill="none" stroke="#63b8ff" d="M529.63,-259.95C615.02,-246.91 747.43,-226.69 829.33,-214.18"/>
<polygon fill="#63b8ff" stroke="#63b8ff" points="829.95,-217.62 839.31,-212.65 828.9,-210.7 829.95,-217.62"/>
</a>
</g>
</g>
<!-- Node5&#45;&gt;Node6 -->
<g id="edge5_Node000005_Node000006" class="edge">
<title>Node5&#45;&gt;Node6</title>
<g id="a_edge5_Node000005_Node000006"><a xlink:title=" ">
<path fill="none" stroke="#63b8ff" d="M1059.29,-63.68C948.15,-52.77 695.12,-27.93 578.47,-16.48"/>
<polygon fill="#63b8ff" stroke="#63b8ff" points="578.59,-12.98 568.29,-15.49 577.9,-19.95 578.59,-12.98"/>
</a>
</g>
</g>
<!-- Node7 -->
<g id="Node000007" class="node">
<title>Node7</title>
<g id="a_Node000007"><a xlink:title=" ">
<polygon fill="#e0e0e0" stroke="#999999" points="1138.5,-19 1088.5,-19 1088.5,0 1138.5,0 1138.5,-19"/>
<text text-anchor="middle" x="1113.5" y="-7" font-family="Helvetica,sans-Serif" font-size="10.00">cstdint</text>
</a>
</g>
</g>
<!-- Node5&#45;&gt;Node7 -->
<g id="edge6_Node000005_Node000007" class="edge">
<title>Node5&#45;&gt;Node7</title>
<g id="a_edge6_Node000005_Node000007"><a xlink:title=" ">
<path fill="none" stroke="#63b8ff" d="M1113.5,-54.84C1113.5,-47.21 1113.5,-37.7 1113.5,-29.45"/>
<polygon fill="#63b8ff" stroke="#63b8ff" points="1117,-29.27 1113.5,-19.27 1110,-29.27 1117,-29.27"/>
</a>
</g>
</g>
<!-- Node8 -->
<g id="Node000008" class="node">
<title>Node8</title>
<g id="a_Node000008"><a xlink:title=" ">
<polygon fill="#e0e0e0" stroke="#999999" points="1208.5,-19 1164.5,-19 1164.5,0 1208.5,0 1208.5,-19"/>
<text text-anchor="middle" x="1186.5" y="-7" font-family="Helvetica,sans-Serif" font-size="10.00">string</text>
</a>
</g>
</g>
<!-- Node5&#45;&gt;Node8 -->
<g id="edge7_Node000005_Node000008" class="edge">
<title>Node5&#45;&gt;Node8</title>
<g id="a_edge7_Node000005_Node000008"><a xlink:title=" ">
<path fill="none" stroke="#63b8ff" d="M1131.17,-54.84C1142.2,-46 1156.39,-34.63 1167.63,-25.62"/>
<polygon fill="#63b8ff" stroke="#63b8ff" points="1169.95,-28.25 1175.56,-19.27 1165.57,-22.79 1169.95,-28.25"/>
</a>
</g>
</g>
<!-- Node9&#45;&gt;Node5 -->
<g id="edge9_Node000009_Node000005" class="edge">
<title>Node9&#45;&gt;Node5</title>
<g id="a_edge9_Node000009_Node000005"><a xlink:title=" ">
<path fill="none" stroke="#63b8ff" d="M635.6,-126.93C650.91,-124.95 667.3,-122.87 682.5,-121 812.59,-105.02 964.94,-87.67 1049.2,-78.19"/>
<polygon fill="#63b8ff" stroke="#63b8ff" points="1049.83,-81.64 1059.38,-77.04 1049.05,-74.68 1049.83,-81.64"/>
</a>
</g>
</g>
<!-- Node9&#45;&gt;Node6 -->
<g id="edge10_Node000009_Node000006" class="edge">
<title>Node9&#45;&gt;Node6</title>
<g id="a_edge10_Node000009_Node000006"><a xlink:title=" ">
<path fill="none" stroke="#63b8ff" d="M570.58,-126.44C561.35,-106.27 538.07,-55.42 525.63,-28.26"/>
<polygon fill="#63b8ff" stroke="#63b8ff" points="528.79,-26.75 521.45,-19.12 522.43,-29.67 528.79,-26.75"/>
</a>
</g>
</g>
<!-- Node10 -->
<g id="Node000010" class="node">
<title>Node10</title>
<g id="a_Node000010"><a xlink:title=" ">
<polygon fill="#e0e0e0" stroke="#999999" points="655,-79.5 610,-79.5 610,-60.5 655,-60.5 655,-79.5"/>
<text text-anchor="middle" x="632.5" y="-67.5" font-family="Helvetica,sans-Serif" font-size="10.00">utility</text>
</a>
</g>
</g>
<!-- Node9&#45;&gt;Node10 -->
<g id="edge11_Node000009_Node000010" class="edge">
<title>Node9&#45;&gt;Node10</title>
<g id="a_edge11_Node000009_Node000010"><a xlink:title=" ">
<path fill="none" stroke="#63b8ff" d="M582.32,-126.37C591.35,-116.4 606.41,-99.79 617.67,-87.36"/>
<polygon fill="#63b8ff" stroke="#63b8ff" points="620.31,-89.67 624.43,-79.91 615.12,-84.96 620.31,-89.67"/>
</a>
</g>
</g>
<!-- Node11&#45;&gt;Node5 -->
<g id="edge15_Node000011_Node000005" class="edge">
<title>Node11&#45;&gt;Node5</title>
<g id="a_edge15_Node000011_Node000005"><a xlink:title=" ">
<path fill="none" stroke="#63b8ff" d="M965.66,-196.42C1028.03,-190.42 1117.11,-177.4 1138.5,-151 1151.84,-134.54 1141.92,-110.92 1130.88,-93.61"/>
<polygon fill="#63b8ff" stroke="#63b8ff" points="1133.66,-91.48 1125.12,-85.21 1127.88,-95.44 1133.66,-91.48"/>
</a>
</g>
</g>
<!-- Node11&#45;&gt;Node6 -->
<g id="edge17_Node000011_Node000006" class="edge">
<title>Node11&#45;&gt;Node6</title>
<g id="a_edge17_Node000011_Node000006"><a xlink:title=" ">
<path fill="none" stroke="#63b8ff" d="M839.46,-197.59C732.83,-191.17 526.27,-175.67 504.5,-151 474.2,-116.66 495.09,-57.54 508.56,-28.15"/>
<polygon fill="#63b8ff" stroke="#63b8ff" points="511.74,-29.62 512.92,-19.09 505.43,-26.58 511.74,-29.62"/>
</a>
</g>
</g>
<!-- Node11&#45;&gt;Node8 -->
<g id="edge20_Node000011_Node000008" class="edge">
<title>Node11&#45;&gt;Node8</title>
<g id="a_edge20_Node000011_Node000008"><a xlink:title=" ">
<path fill="none" stroke="#63b8ff" d="M965.53,-195.83C1031.11,-189.22 1127.99,-175.57 1155.5,-151 1190.19,-120.02 1190.82,-59.77 1188.58,-29.22"/>
<polygon fill="#63b8ff" stroke="#63b8ff" points="1192.05,-28.73 1187.65,-19.09 1185.08,-29.37 1192.05,-28.73"/>
</a>
</g>
</g>
<!-- Node11&#45;&gt;Node9 -->
<g id="edge16_Node000011_Node000009" class="edge">
<title>Node11&#45;&gt;Node9</title>
<g id="a_edge16_Node000011_Node000009"><a xlink:title=" ">
<path fill="none" stroke="#63b8ff" d="M839.26,-188.66C777.97,-176.7 686.03,-158.76 628.2,-147.48"/>
<polygon fill="#63b8ff" stroke="#63b8ff" points="628.65,-144 618.16,-145.52 627.31,-150.87 628.65,-144"/>
</a>
</g>
</g>
<!-- Node11&#45;&gt;Node10 -->
<g id="edge21_Node000011_Node000010" class="edge">
<title>Node11&#45;&gt;Node10</title>
<g id="a_edge21_Node000011_Node000010"><a xlink:title=" ">
<path fill="none" stroke="#63b8ff" d="M839.42,-199.42C792.34,-195.41 728.48,-183.67 682.5,-151 660.85,-135.61 646.56,-107.62 639,-89.16"/>
<polygon fill="#63b8ff" stroke="#63b8ff" points="642.17,-87.65 635.32,-79.57 635.63,-90.16 642.17,-87.65"/>
</a>
</g>
</g>
<!-- Node12 -->
<g id="Node000012" class="node">
<title>Node12</title>
<g id="a_Node000012"><a xlink:title=" ">
<polygon fill="#e0e0e0" stroke="#999999" points="829.5,-145.5 691.5,-145.5 691.5,-126.5 829.5,-126.5 829.5,-145.5"/>
<text text-anchor="middle" x="760.5" y="-133.5" font-family="Helvetica,sans-Serif" font-size="10.00">deal.II/base/exceptions.h</text>
</a>
</g>
</g>
<!-- Node11&#45;&gt;Node12 -->
<g id="edge13_Node000011_Node000012" class="edge">
<title>Node11&#45;&gt;Node12</title>
<g id="a_edge13_Node000011_Node000012"><a xlink:title=" ">
<path fill="none" stroke="#63b8ff" d="M871.34,-186.95C846.65,-175.83 812.47,-160.42 788.62,-149.67"/>
<polygon fill="#63b8ff" stroke="#63b8ff" points="789.95,-146.44 779.4,-145.52 787.08,-152.82 789.95,-146.44"/>
</a>
</g>
</g>
<!-- Node13 -->
<g id="Node000013" class="node">
<title>Node13</title>
<g id="a_Node000013"><a xlink:title=" ">
<polygon fill="#e0e0e0" stroke="#999999" points="957,-151 848,-151 848,-121 957,-121 957,-151"/>
<text text-anchor="start" x="856" y="-139" font-family="Helvetica,sans-Serif" font-size="10.00">deal.II/matrix_free</text>
<text text-anchor="middle" x="902.5" y="-128" font-family="Helvetica,sans-Serif" font-size="10.00">/evaluation_flags.h</text>
</a>
</g>
</g>
<!-- Node11&#45;&gt;Node13 -->
<g id="edge14_Node000011_Node000013" class="edge">
<title>Node11&#45;&gt;Node13</title>
<g id="a_edge14_Node000011_Node000013"><a xlink:title=" ">
<path fill="none" stroke="#63b8ff" d="M902.5,-186.8C902.5,-179.34 902.5,-169.99 902.5,-161.41"/>
<polygon fill="#63b8ff" stroke="#63b8ff" points="906,-161.16 902.5,-151.16 899,-161.16 906,-161.16"/>
</a>
</g>
</g>
<!-- Node14 -->
<g id="Node000014" class="node">
<title>Node14</title>
<g id="a_Node000014"><a xlink:title=" ">
<polygon fill="#e0e0e0" stroke="#999999" points="1013.5,-145.5 975.5,-145.5 975.5,-126.5 1013.5,-126.5 1013.5,-145.5"/>
<text text-anchor="middle" x="994.5" y="-133.5" font-family="Helvetica,sans-Serif" font-size="10.00">map</text>
</a>
</g>
</g>
<!-- Node11&#45;&gt;Node14 -->
<g id="edge18_Node000011_Node000014" class="edge">
<title>Node11&#45;&gt;Node14</title>
<g id="a_edge18_Node000011_Node000014"><a xlink:title=" ">
<path fill="none" stroke="#63b8ff" d="M922.92,-186.8C938.05,-176.27 958.6,-161.97 973.8,-151.4"/>
<polygon fill="#63b8ff" stroke="#63b8ff" points="975.84,-154.24 982.05,-145.66 971.85,-148.5 975.84,-154.24"/>
</a>
</g>
</g>
<!-- Node15 -->
<g id="Node000015" class="node">
<title>Node15</title>
<g id="a_Node000015"><a xlink:title=" ">
<polygon fill="#e0e0e0" stroke="#999999" points="1063.5,-145.5 1031.5,-145.5 1031.5,-126.5 1063.5,-126.5 1063.5,-145.5"/>
<text text-anchor="middle" x="1047.5" y="-133.5" font-family="Helvetica,sans-Serif" font-size="10.00">set</text>
</a>
</g>
</g>
<!-- Node11&#45;&gt;Node15 -->
<g id="edge19_Node000011_Node000015" class="edge">
<title>Node11&#45;&gt;Node15</title>
<g id="a_edge19_Node000011_Node000015"><a xlink:title=" ">
<path fill="none" stroke="#63b8ff" d="M939.22,-186.98C963.23,-177.5 995.1,-164.33 1022.5,-151 1022.92,-150.79 1023.35,-150.58 1023.78,-150.37"/>
<polygon fill="#63b8ff" stroke="#63b8ff" points="1025.64,-153.35 1032.84,-145.58 1022.37,-147.16 1025.64,-153.35"/>
</a>
</g>
</g>
<!-- Node16 -->
<g id="Node000016" class="node">
<title>Node16</title>
<g id="a_Node000016"><a xlink:title=" ">
<polygon fill="#e0e0e0" stroke="#999999" points="1129,-145.5 1082,-145.5 1082,-126.5 1129,-126.5 1129,-145.5"/>
<text text-anchor="middle" x="1105.5" y="-133.5" font-family="Helvetica,sans-Serif" font-size="10.00">vector</text>
</a>
</g>
</g>
<!-- Node11&#45;&gt;Node16 -->
<g id="edge22_Node000011_Node000016" class="edge">
<title>Node11&#45;&gt;Node16</title>
<g id="a_edge22_Node000011_Node000016"><a xlink:title=" ">
<path fill="none" stroke="#63b8ff" d="M956.22,-186.91C989.93,-177.65 1034.12,-164.73 1072.5,-151 1073.93,-150.49 1075.38,-149.95 1076.85,-149.39"/>
<polygon fill="#63b8ff" stroke="#63b8ff" points="1078.48,-152.5 1086.45,-145.52 1075.87,-146.01 1078.48,-152.5"/>
</a>
</g>
</g>
</g>
</svg>
