<?xml version="1.0" encoding="UTF-8" standalone="no"?>
<!DOCTYPE svg PUBLIC "-//W3C//DTD SVG 1.1//EN"
 "http://www.w3.org/Graphics/SVG/1.1/DTD/svg11.dtd">
<!-- Generated by graphviz version 2.43.0 (0)
 -->
<!-- Title: Graphical Class Hierarchy Pages: 1 -->
<svg width="324pt" height="76pt"
 viewBox="0.00 0.00 324.00 75.50" xmlns="http://www.w3.org/2000/svg" xmlns:xlink="http://www.w3.org/1999/xlink">
<g id="graph0" class="graph" transform="scale(1 1) rotate(0) translate(4 71.5)">
<title>Graphical Class Hierarchy</title>
<!-- Node0 -->
<g id="Node000000" class="node">
<title>Node0</title>
<g id="a_Node000000"><a xlink:href="classReadFieldBase.html" target="_top" xlink:title=" ">
<polygon fill="white" stroke="#666666" points="122,-51 0,-51 0,-21 122,-21 122,-51"/>
<text text-anchor="start" x="8" y="-39" font-family="Helvetica,sans-Serif" font-size="10.00">ReadFieldBase&lt; dim,</text>
<text text-anchor="middle" x="61" y="-28" font-family="Helvetica,sans-Serif" font-size="10.00"> number &gt;</text>
</a>
</g>
</g>
<!-- Node1 -->
<g id="Node000001" class="node">
<title>Node1</title>
<g id="a_Node000001"><a xlink:href="classReadBinary.html" target="_top" xlink:title=" ">
<polygon fill="white" stroke="#666666" points="316,-67.5 158,-67.5 158,-48.5 316,-48.5 316,-67.5"/>
<text text-anchor="middle" x="237" y="-55.5" font-family="Helvetica,sans-Serif" font-size="10.00">ReadBinary&lt; dim, number &gt;</text>
</a>
</g>
</g>
<!-- Node0&#45;&gt;Node1 -->
<g id="edge9_Node000000_Node000001" class="edge">
<title>Node0&#45;&gt;Node1</title>
<g id="a_edge9_Node000000_Node000001"><a xlink:title=" ">
<path fill="none" stroke="#63b8ff" d="M132.37,-44.9C141.7,-46.08 151.3,-47.29 160.71,-48.48"/>
<polygon fill="#63b8ff" stroke="#63b8ff" points="132.73,-41.41 122.37,-43.63 131.85,-48.36 132.73,-41.41"/>
</a>
</g>
</g>
<!-- Node2 -->
<g id="Node000002" class="node">
<title>Node2</title>
<g id="a_Node000002"><a xlink:href="classReadUnstructuredVTK.html" target="_top" xlink:title=" ">
<polygon fill="white" stroke="#666666" points="299,-30 175,-30 175,0 299,0 299,-30"/>
<text text-anchor="start" x="183" y="-18" font-family="Helvetica,sans-Serif" font-size="10.00">ReadUnstructuredVTK</text>
<text text-anchor="middle" x="237" y="-7" font-family="Helvetica,sans-Serif" font-size="10.00">&lt; dim, number &gt;</text>
</a>
</g>
</g>
<!-- Node0&#45;&gt;Node2 -->
<g id="edge10_Node000000_Node000002" class="edge">
<title>Node0&#45;&gt;Node2</title>
<g id="a_edge10_Node000000_Node000002"><a xlink:title=" ">
<path fill="none" stroke="#63b8ff" d="M132.47,-27.5C146.51,-25.8 161.15,-24.03 174.85,-22.38"/>
<polygon fill="#63b8ff" stroke="#63b8ff" points="131.88,-24.04 122.37,-28.71 132.72,-30.99 131.88,-24.04"/>
</a>
</g>
</g>
</g>
</svg>
