<?xml version="1.0" encoding="UTF-8" standalone="no"?>
<!DOCTYPE svg PUBLIC "-//W3C//DTD SVG 1.1//EN"
 "http://www.w3.org/Graphics/SVG/1.1/DTD/svg11.dtd">
<!-- Generated by graphviz version 2.43.0 (0)
 -->
<!-- Title: /home/runner/work/phaseField/phaseField/src/utilities/integrator.cc Pages: 1 -->
<svg width="1123pt" height="181pt"
 viewBox="0.00 0.00 1122.50 181.00" xmlns="http://www.w3.org/2000/svg" xmlns:xlink="http://www.w3.org/1999/xlink">
<g id="graph0" class="graph" transform="scale(1 1) rotate(0) translate(4 177)">
<title>/home/runner/work/phaseField/phaseField/src/utilities/integrator.cc</title>
<!-- Node1 -->
<g id="Node000001" class="node">
<title>Node1</title>
<g id="a_Node000001"><a xlink:title=" ">
<polygon fill="#999999" stroke="#666666" points="590,-173 426,-173 426,-132 590,-132 590,-173"/>
<text text-anchor="start" x="434" y="-161" font-family="Helvetica,sans-Serif" font-size="10.00">/home/runner/work/phaseField</text>
<text text-anchor="start" x="434" y="-150" font-family="Helvetica,sans-Serif" font-size="10.00">/phaseField/src/utilities</text>
<text text-anchor="middle" x="508" y="-139" font-family="Helvetica,sans-Serif" font-size="10.00">/integrator.cc</text>
</a>
</g>
</g>
<!-- Node2 -->
<g id="Node000002" class="node">
<title>Node2</title>
<g id="a_Node000002"><a xlink:title=" ">
<polygon fill="#e0e0e0" stroke="#999999" points="138,-90.5 0,-90.5 0,-71.5 138,-71.5 138,-90.5"/>
<text text-anchor="middle" x="69" y="-78.5" font-family="Helvetica,sans-Serif" font-size="10.00">deal.II/base/exceptions.h</text>
</a>
</g>
</g>
<!-- Node1&#45;&gt;Node2 -->
<g id="edge1_Node000001_Node000002" class="edge">
<title>Node1&#45;&gt;Node2</title>
<g id="a_edge1_Node000001_Node000002"><a xlink:title=" ">
<path fill="none" stroke="#63b8ff" d="M425.82,-139.47C352.59,-128.6 242.54,-111.92 147,-96 140.16,-94.86 132.99,-93.63 125.89,-92.38"/>
<polygon fill="#63b8ff" stroke="#63b8ff" points="126.03,-88.85 115.57,-90.56 124.81,-95.75 126.03,-88.85"/>
</a>
</g>
</g>
<!-- Node3 -->
<g id="Node000003" class="node">
<title>Node3</title>
<g id="a_Node000003"><a xlink:title=" ">
<polygon fill="#e0e0e0" stroke="#999999" points="285.5,-96 156.5,-96 156.5,-66 285.5,-66 285.5,-96"/>
<text text-anchor="start" x="164.5" y="-84" font-family="Helvetica,sans-Serif" font-size="10.00">deal.II/base/quadrature</text>
<text text-anchor="middle" x="221" y="-73" font-family="Helvetica,sans-Serif" font-size="10.00">_lib.h</text>
</a>
</g>
</g>
<!-- Node1&#45;&gt;Node3 -->
<g id="edge2_Node000001_Node000003" class="edge">
<title>Node1&#45;&gt;Node3</title>
<g id="a_edge2_Node000001_Node000003"><a xlink:title=" ">
<path fill="none" stroke="#63b8ff" d="M427.29,-131.96C383.55,-121.36 330.1,-108.42 288.58,-98.36"/>
<polygon fill="#63b8ff" stroke="#63b8ff" points="289.37,-94.96 278.83,-96 287.72,-101.76 289.37,-94.96"/>
</a>
</g>
</g>
<!-- Node4 -->
<g id="Node000004" class="node">
<title>Node4</title>
<g id="a_Node000004"><a xlink:title=" ">
<polygon fill="#e0e0e0" stroke="#999999" points="265,-24.5 125,-24.5 125,-5.5 265,-5.5 265,-24.5"/>
<text text-anchor="middle" x="195" y="-12.5" font-family="Helvetica,sans-Serif" font-size="10.00">deal.II/dofs/dof_handler.h</text>
</a>
</g>
</g>
<!-- Node1&#45;&gt;Node4 -->
<g id="edge3_Node000001_Node000004" class="edge">
<title>Node1&#45;&gt;Node4</title>
<g id="a_edge3_Node000001_Node000004"><a xlink:title=" ">
<path fill="none" stroke="#63b8ff" d="M425.93,-131.88C395.78,-123.04 361.96,-111.13 333,-96 313.62,-85.87 312.51,-77.65 294,-66 271.31,-51.72 244.02,-38.19 223.84,-28.81"/>
<polygon fill="#63b8ff" stroke="#63b8ff" points="225.11,-25.54 214.56,-24.55 222.19,-31.9 225.11,-25.54"/>
</a>
</g>
</g>
<!-- Node5 -->
<g id="Node000005" class="node">
<title>Node5</title>
<g id="a_Node000005"><a xlink:title=" ">
<polygon fill="#e0e0e0" stroke="#999999" points="647.5,-96 536.5,-96 536.5,-66 647.5,-66 647.5,-96"/>
<text text-anchor="start" x="544.5" y="-84" font-family="Helvetica,sans-Serif" font-size="10.00">deal.II/fe/fe_update</text>
<text text-anchor="middle" x="592" y="-73" font-family="Helvetica,sans-Serif" font-size="10.00">_flags.h</text>
</a>
</g>
</g>
<!-- Node1&#45;&gt;Node5 -->
<g id="edge4_Node000001_Node000005" class="edge">
<title>Node1&#45;&gt;Node5</title>
<g id="a_edge4_Node000001_Node000005"><a xlink:title=" ">
<path fill="none" stroke="#63b8ff" d="M531.85,-131.77C542.93,-122.6 556.1,-111.7 567.29,-102.44"/>
<polygon fill="#63b8ff" stroke="#63b8ff" points="569.56,-105.11 575.03,-96.04 565.1,-99.72 569.56,-105.11"/>
</a>
</g>
</g>
<!-- Node6 -->
<g id="Node000006" class="node">
<title>Node6</title>
<g id="a_Node000006"><a xlink:title=" ">
<polygon fill="#e0e0e0" stroke="#999999" points="784.5,-90.5 665.5,-90.5 665.5,-71.5 784.5,-71.5 784.5,-90.5"/>
<text text-anchor="middle" x="725" y="-78.5" font-family="Helvetica,sans-Serif" font-size="10.00">deal.II/fe/fe_values.h</text>
</a>
</g>
</g>
<!-- Node1&#45;&gt;Node6 -->
<g id="edge5_Node000001_Node000006" class="edge">
<title>Node1&#45;&gt;Node6</title>
<g id="a_edge5_Node000001_Node000006"><a xlink:title=" ">
<path fill="none" stroke="#63b8ff" d="M569.02,-131.96C607.65,-119.58 656.28,-104.01 688.88,-93.57"/>
<polygon fill="#63b8ff" stroke="#63b8ff" points="689.99,-96.89 698.45,-90.5 687.86,-90.22 689.99,-96.89"/>
</a>
</g>
</g>
<!-- Node7 -->
<g id="Node000007" class="node">
<title>Node7</title>
<g id="a_Node000007"><a xlink:title=" ">
<polygon fill="#e0e0e0" stroke="#999999" points="909,-90.5 803,-90.5 803,-71.5 909,-71.5 909,-90.5"/>
<text text-anchor="middle" x="856" y="-78.5" font-family="Helvetica,sans-Serif" font-size="10.00">deal.II/lac/vector.h</text>
</a>
</g>
</g>
<!-- Node1&#45;&gt;Node7 -->
<g id="edge6_Node000001_Node000007" class="edge">
<title>Node1&#45;&gt;Node7</title>
<g id="a_edge6_Node000001_Node000007"><a xlink:title=" ">
<path fill="none" stroke="#63b8ff" d="M590.11,-136.25C647.35,-125.45 725.44,-110.39 794,-96 798.94,-94.96 804.09,-93.85 809.21,-92.72"/>
<polygon fill="#63b8ff" stroke="#63b8ff" points="809.99,-96.14 818.99,-90.55 808.47,-89.3 809.99,-96.14"/>
</a>
</g>
</g>
<!-- Node8 -->
<g id="Node000008" class="node">
<title>Node8</title>
<g id="a_Node000008"><a xlink:href="integrator_8h.html" target="_top" xlink:title=" ">
<polygon fill="white" stroke="#666666" points="441.5,-96 342.5,-96 342.5,-66 441.5,-66 441.5,-96"/>
<text text-anchor="start" x="350.5" y="-84" font-family="Helvetica,sans-Serif" font-size="10.00">prismspf/utilities</text>
<text text-anchor="middle" x="392" y="-73" font-family="Helvetica,sans-Serif" font-size="10.00">/integrator.h</text>
</a>
</g>
</g>
<!-- Node1&#45;&gt;Node8 -->
<g id="edge7_Node000001_Node000008" class="edge">
<title>Node1&#45;&gt;Node8</title>
<g id="a_edge7_Node000001_Node000008"><a xlink:title=" ">
<path fill="none" stroke="#63b8ff" d="M475.38,-131.96C459.47,-122.42 440.39,-110.99 424.5,-101.47"/>
<polygon fill="#63b8ff" stroke="#63b8ff" points="425.93,-98.25 415.56,-96.11 422.33,-104.25 425.93,-98.25"/>
</a>
</g>
</g>
<!-- Node10 -->
<g id="Node000010" class="node">
<title>Node10</title>
<g id="a_Node000010"><a xlink:title=" ">
<polygon fill="#e0e0e0" stroke="#999999" points="520.5,-24.5 419.5,-24.5 419.5,-5.5 520.5,-5.5 520.5,-24.5"/>
<text text-anchor="middle" x="470" y="-12.5" font-family="Helvetica,sans-Serif" font-size="10.00">prismspf/config.h</text>
</a>
</g>
</g>
<!-- Node1&#45;&gt;Node10 -->
<g id="edge12_Node000001_Node000010" class="edge">
<title>Node1&#45;&gt;Node10</title>
<g id="a_edge12_Node000001_Node000010"><a xlink:title=" ">
<path fill="none" stroke="#63b8ff" d="M502.47,-131.8C495.16,-105.71 482.35,-60.04 475.2,-34.55"/>
<polygon fill="#63b8ff" stroke="#63b8ff" points="478.51,-33.37 472.44,-24.69 471.77,-35.26 478.51,-33.37"/>
</a>
</g>
</g>
<!-- Node11 -->
<g id="Node000011" class="node">
<title>Node11</title>
<g id="a_Node000011"><a xlink:title=" ">
<polygon fill="#e0e0e0" stroke="#999999" points="585.5,-24.5 538.5,-24.5 538.5,-5.5 585.5,-5.5 585.5,-24.5"/>
<text text-anchor="middle" x="562" y="-12.5" font-family="Helvetica,sans-Serif" font-size="10.00">vector</text>
</a>
</g>
</g>
<!-- Node1&#45;&gt;Node11 -->
<g id="edge14_Node000001_Node000011" class="edge">
<title>Node1&#45;&gt;Node11</title>
<g id="a_edge14_Node000001_Node000011"><a xlink:title=" ">
<path fill="none" stroke="#63b8ff" d="M510.5,-131.83C513.25,-114.07 518.57,-87.5 528,-66 533.24,-54.05 541.41,-41.92 548.42,-32.6"/>
<polygon fill="#63b8ff" stroke="#63b8ff" points="551.26,-34.66 554.66,-24.62 545.74,-30.34 551.26,-34.66"/>
</a>
</g>
</g>
<!-- Node12 -->
<g id="Node000012" class="node">
<title>Node12</title>
<g id="a_Node000012"><a xlink:title=" ">
<polygon fill="#e0e0e0" stroke="#999999" points="971,-90.5 927,-90.5 927,-71.5 971,-71.5 971,-90.5"/>
<text text-anchor="middle" x="949" y="-78.5" font-family="Helvetica,sans-Serif" font-size="10.00">mpi.h</text>
</a>
</g>
</g>
<!-- Node1&#45;&gt;Node12 -->
<g id="edge13_Node000001_Node000012" class="edge">
<title>Node1&#45;&gt;Node12</title>
<g id="a_edge13_Node000001_Node000012"><a xlink:title=" ">
<path fill="none" stroke="#63b8ff" d="M590.34,-147.36C674.16,-141.53 807.18,-127.79 918,-96 919.64,-95.53 921.3,-94.99 922.96,-94.4"/>
<polygon fill="#63b8ff" stroke="#63b8ff" points="924.33,-97.62 932.28,-90.61 921.7,-91.13 924.33,-97.62"/>
</a>
</g>
</g>
<!-- Node13 -->
<g id="Node000013" class="node">
<title>Node13</title>
<g id="a_Node000013"><a xlink:title=" ">
<polygon fill="#e0e0e0" stroke="#999999" points="1114.5,-90.5 989.5,-90.5 989.5,-71.5 1114.5,-71.5 1114.5,-90.5"/>
<text text-anchor="middle" x="1052" y="-78.5" font-family="Helvetica,sans-Serif" font-size="10.00">utilities/integrator.inst</text>
</a>
</g>
</g>
<!-- Node1&#45;&gt;Node13 -->
<g id="edge15_Node000001_Node000013" class="edge">
<title>Node1&#45;&gt;Node13</title>
<g id="a_edge15_Node000001_Node000013"><a xlink:title=" ">
<path fill="none" stroke="#63b8ff" d="M590.11,-143.73C684.47,-134.37 843.85,-117.21 980,-96 986.76,-94.95 993.86,-93.72 1000.85,-92.43"/>
<polygon fill="#63b8ff" stroke="#63b8ff" points="1001.79,-95.82 1010.97,-90.53 1000.5,-88.94 1001.79,-95.82"/>
</a>
</g>
</g>
<!-- Node8&#45;&gt;Node4 -->
<g id="edge8_Node000008_Node000004" class="edge">
<title>Node8&#45;&gt;Node4</title>
<g id="a_edge8_Node000008_Node000004"><a xlink:title=" ">
<path fill="none" stroke="#63b8ff" d="M348.77,-65.95C313.46,-54.48 264.14,-38.46 230.96,-27.68"/>
<polygon fill="#63b8ff" stroke="#63b8ff" points="231.81,-24.28 221.22,-24.52 229.65,-30.94 231.81,-24.28"/>
</a>
</g>
</g>
<!-- Node9 -->
<g id="Node000009" class="node">
<title>Node9</title>
<g id="a_Node000009"><a xlink:title=" ">
<polygon fill="#e0e0e0" stroke="#999999" points="401,-30 283,-30 283,0 401,0 401,-30"/>
<text text-anchor="start" x="291" y="-18" font-family="Helvetica,sans-Serif" font-size="10.00">deal.II/lac/la_parallel</text>
<text text-anchor="middle" x="342" y="-7" font-family="Helvetica,sans-Serif" font-size="10.00">_vector.h</text>
</a>
</g>
</g>
<!-- Node8&#45;&gt;Node9 -->
<g id="edge9_Node000008_Node000009" class="edge">
<title>Node8&#45;&gt;Node9</title>
<g id="a_edge9_Node000008_Node000009"><a xlink:title=" ">
<path fill="none" stroke="#63b8ff" d="M380.9,-65.8C374.56,-57.68 366.46,-47.31 359.3,-38.15"/>
<polygon fill="#63b8ff" stroke="#63b8ff" points="361.98,-35.89 353.07,-30.16 356.46,-40.2 361.98,-35.89"/>
</a>
</g>
</g>
<!-- Node8&#45;&gt;Node10 -->
<g id="edge10_Node000008_Node000010" class="edge">
<title>Node8&#45;&gt;Node10</title>
<g id="a_edge10_Node000008_Node000010"><a xlink:title=" ">
<path fill="none" stroke="#63b8ff" d="M409.31,-65.8C421.71,-55.62 438.4,-41.93 451.13,-31.48"/>
<polygon fill="#63b8ff" stroke="#63b8ff" points="453.71,-33.89 459.22,-24.84 449.27,-28.48 453.71,-33.89"/>
</a>
</g>
</g>
<!-- Node8&#45;&gt;Node11 -->
<g id="edge11_Node000008_Node000011" class="edge">
<title>Node8&#45;&gt;Node11</title>
<g id="a_edge11_Node000008_Node000011"><a xlink:title=" ">
<path fill="none" stroke="#63b8ff" d="M433.02,-65.92C460.61,-56.26 497.7,-42.9 530,-30 531.17,-29.53 532.36,-29.05 533.57,-28.55"/>
<polygon fill="#63b8ff" stroke="#63b8ff" points="534.95,-31.77 542.79,-24.64 532.22,-25.32 534.95,-31.77"/>
</a>
</g>
</g>
</g>
</svg>
