<?xml version="1.0" encoding="UTF-8" standalone="no"?>
<!DOCTYPE svg PUBLIC "-//W3C//DTD SVG 1.1//EN"
 "http://www.w3.org/Graphics/SVG/1.1/DTD/svg11.dtd">
<!-- Generated by graphviz version 2.43.0 (0)
 -->
<!-- Title: /home/runner/work/phaseField/phaseField/include/prismspf/solvers/linear_solver_base.h Pages: 1 -->
<svg width="1718pt" height="203pt"
 viewBox="0.00 0.00 1718.00 203.00" xmlns="http://www.w3.org/2000/svg" xmlns:xlink="http://www.w3.org/1999/xlink">
<g id="graph0" class="graph" transform="scale(1 1) rotate(0) translate(4 199)">
<title>/home/runner/work/phaseField/phaseField/include/prismspf/solvers/linear_solver_base.h</title>
<!-- Node1 -->
<g id="Node000001" class="node">
<title>Node1</title>
<g id="a_Node000001"><a xlink:title=" ">
<polygon fill="#999999" stroke="#666666" points="1023,-195 859,-195 859,-154 1023,-154 1023,-195"/>
<text text-anchor="start" x="867" y="-183" font-family="Helvetica,sans-Serif" font-size="10.00">/home/runner/work/phaseField</text>
<text text-anchor="start" x="867" y="-172" font-family="Helvetica,sans-Serif" font-size="10.00">/phaseField/include/prismspf</text>
<text text-anchor="middle" x="941" y="-161" font-family="Helvetica,sans-Serif" font-size="10.00">/solvers/linear_solver_base.h</text>
</a>
</g>
</g>
<!-- Node2 -->
<g id="Node000002" class="node">
<title>Node2</title>
<g id="a_Node000002"><a xlink:href="linear__solver__gmg_8h.html" target="_top" xlink:title=" ">
<polygon fill="white" stroke="#666666" points="837,-118 673,-118 673,-77 837,-77 837,-118"/>
<text text-anchor="start" x="681" y="-106" font-family="Helvetica,sans-Serif" font-size="10.00">/home/runner/work/phaseField</text>
<text text-anchor="start" x="681" y="-95" font-family="Helvetica,sans-Serif" font-size="10.00">/phaseField/include/prismspf</text>
<text text-anchor="middle" x="755" y="-84" font-family="Helvetica,sans-Serif" font-size="10.00">/solvers/linear_solver_gmg.h</text>
</a>
</g>
</g>
<!-- Node1&#45;&gt;Node2 -->
<g id="edge1_Node000001_Node000002" class="edge">
<title>Node1&#45;&gt;Node2</title>
<g id="a_edge1_Node000001_Node000002"><a xlink:title=" ">
<path fill="none" stroke="#63b8ff" d="M883.05,-150.13C857.5,-139.83 827.81,-127.86 803.46,-118.04"/>
<polygon fill="#63b8ff" stroke="#63b8ff" points="882.03,-153.5 892.62,-153.99 884.65,-147 882.03,-153.5"/>
</a>
</g>
</g>
<!-- Node5 -->
<g id="Node000005" class="node">
<title>Node5</title>
<g id="a_Node000005"><a xlink:href="linear__solver__gmg_8cc.html" target="_top" xlink:title=" ">
<polygon fill="white" stroke="#666666" points="164,-41 0,-41 0,0 164,0 164,-41"/>
<text text-anchor="start" x="8" y="-29" font-family="Helvetica,sans-Serif" font-size="10.00">/home/runner/work/phaseField</text>
<text text-anchor="start" x="8" y="-18" font-family="Helvetica,sans-Serif" font-size="10.00">/phaseField/src/solvers/linear</text>
<text text-anchor="middle" x="82" y="-7" font-family="Helvetica,sans-Serif" font-size="10.00">_solver_gmg.cc</text>
</a>
</g>
</g>
<!-- Node1&#45;&gt;Node5 -->
<g id="edge20_Node000001_Node000005" class="edge">
<title>Node1&#45;&gt;Node5</title>
<g id="a_edge20_Node000001_Node000005"><a xlink:title=" ">
<path fill="none" stroke="#63b8ff" d="M848.82,-158.83C704.43,-135.57 416.24,-88.02 173,-41 170.14,-40.45 167.24,-39.88 164.31,-39.29"/>
<polygon fill="#63b8ff" stroke="#63b8ff" points="848.54,-162.33 858.97,-160.46 849.65,-155.42 848.54,-162.33"/>
</a>
</g>
</g>
<!-- Node11 -->
<g id="Node000011" class="node">
<title>Node11</title>
<g id="a_Node000011"><a xlink:href="linear__solver__identity_8h.html" target="_top" xlink:title=" ">
<polygon fill="white" stroke="#666666" points="1026.5,-118 855.5,-118 855.5,-77 1026.5,-77 1026.5,-118"/>
<text text-anchor="start" x="863.5" y="-106" font-family="Helvetica,sans-Serif" font-size="10.00">/home/runner/work/phaseField</text>
<text text-anchor="start" x="863.5" y="-95" font-family="Helvetica,sans-Serif" font-size="10.00">/phaseField/include/prismspf</text>
<text text-anchor="middle" x="941" y="-84" font-family="Helvetica,sans-Serif" font-size="10.00">/solvers/linear_solver_identity.h</text>
</a>
</g>
</g>
<!-- Node1&#45;&gt;Node11 -->
<g id="edge10_Node000001_Node000011" class="edge">
<title>Node1&#45;&gt;Node11</title>
<g id="a_edge10_Node000001_Node000011"><a xlink:title=" ">
<path fill="none" stroke="#63b8ff" d="M941,-143.69C941,-135.08 941,-125.9 941,-118.07"/>
<polygon fill="#63b8ff" stroke="#63b8ff" points="937.5,-143.79 941,-153.79 944.5,-143.79 937.5,-143.79"/>
</a>
</g>
</g>
<!-- Node12 -->
<g id="Node000012" class="node">
<title>Node12</title>
<g id="a_Node000012"><a xlink:href="linear__solver__identity_8cc.html" target="_top" xlink:title=" ">
<polygon fill="white" stroke="#666666" points="1710,-41 1546,-41 1546,0 1710,0 1710,-41"/>
<text text-anchor="start" x="1554" y="-29" font-family="Helvetica,sans-Serif" font-size="10.00">/home/runner/work/phaseField</text>
<text text-anchor="start" x="1554" y="-18" font-family="Helvetica,sans-Serif" font-size="10.00">/phaseField/src/solvers/linear</text>
<text text-anchor="middle" x="1628" y="-7" font-family="Helvetica,sans-Serif" font-size="10.00">_solver_identity.cc</text>
</a>
</g>
</g>
<!-- Node1&#45;&gt;Node12 -->
<g id="edge21_Node000001_Node000012" class="edge">
<title>Node1&#45;&gt;Node12</title>
<g id="a_edge21_Node000001_Node000012"><a xlink:title=" ">
<path fill="none" stroke="#63b8ff" d="M989.52,-148.81C1005.01,-139.99 1021.8,-129.39 1036,-118 1055.38,-102.45 1051.63,-87.82 1074,-77 1166.9,-32.07 1434.87,-55.84 1537,-41 1539.88,-40.58 1542.8,-40.13 1545.75,-39.64"/>
<polygon fill="#63b8ff" stroke="#63b8ff" points="987.61,-145.87 980.58,-153.79 991.02,-151.98 987.61,-145.87"/>
</a>
</g>
</g>
<!-- Node13 -->
<g id="Node000013" class="node">
<title>Node13</title>
<g id="a_Node000013"><a xlink:href="linear__solver__base_8cc.html" target="_top" xlink:title=" ">
<polygon fill="white" stroke="#666666" points="1247,-118 1083,-118 1083,-77 1247,-77 1247,-118"/>
<text text-anchor="start" x="1091" y="-106" font-family="Helvetica,sans-Serif" font-size="10.00">/home/runner/work/phaseField</text>
<text text-anchor="start" x="1091" y="-95" font-family="Helvetica,sans-Serif" font-size="10.00">/phaseField/src/solvers/linear</text>
<text text-anchor="middle" x="1165" y="-84" font-family="Helvetica,sans-Serif" font-size="10.00">_solver_base.cc</text>
</a>
</g>
</g>
<!-- Node1&#45;&gt;Node13 -->
<g id="edge19_Node000001_Node000013" class="edge">
<title>Node1&#45;&gt;Node13</title>
<g id="a_edge19_Node000001_Node000013"><a xlink:title=" ">
<path fill="none" stroke="#63b8ff" d="M1008.77,-150.81C1039.98,-140.36 1076.66,-128.08 1106.63,-118.04"/>
<polygon fill="#63b8ff" stroke="#63b8ff" points="1007.64,-147.5 999.27,-153.99 1009.86,-154.13 1007.64,-147.5"/>
</a>
</g>
</g>
<!-- Node3 -->
<g id="Node000003" class="node">
<title>Node3</title>
<g id="a_Node000003"><a xlink:href="pde__problem_8cc.html" target="_top" xlink:title=" ">
<polygon fill="white" stroke="#666666" points="746,-41 582,-41 582,0 746,0 746,-41"/>
<text text-anchor="start" x="590" y="-29" font-family="Helvetica,sans-Serif" font-size="10.00">/home/runner/work/phaseField</text>
<text text-anchor="start" x="590" y="-18" font-family="Helvetica,sans-Serif" font-size="10.00">/phaseField/src/core/pde</text>
<text text-anchor="middle" x="664" y="-7" font-family="Helvetica,sans-Serif" font-size="10.00">_problem.cc</text>
</a>
</g>
</g>
<!-- Node2&#45;&gt;Node3 -->
<g id="edge2_Node000002_Node000003" class="edge">
<title>Node2&#45;&gt;Node3</title>
<g id="a_edge2_Node000002_Node000003"><a xlink:title=" ">
<path fill="none" stroke="#63b8ff" d="M723.27,-70.35C711.6,-60.73 698.6,-50.01 687.75,-41.07"/>
<polygon fill="#63b8ff" stroke="#63b8ff" points="721.15,-73.14 731.09,-76.79 725.6,-67.73 721.15,-73.14"/>
</a>
</g>
</g>
<!-- Node4 -->
<g id="Node000004" class="node">
<title>Node4</title>
<g id="a_Node000004"><a xlink:href="solver__handler_8cc.html" target="_top" xlink:title=" ">
<polygon fill="white" stroke="#666666" points="928,-41 764,-41 764,0 928,0 928,-41"/>
<text text-anchor="start" x="772" y="-29" font-family="Helvetica,sans-Serif" font-size="10.00">/home/runner/work/phaseField</text>
<text text-anchor="start" x="772" y="-18" font-family="Helvetica,sans-Serif" font-size="10.00">/phaseField/src/core/solver</text>
<text text-anchor="middle" x="846" y="-7" font-family="Helvetica,sans-Serif" font-size="10.00">_handler.cc</text>
</a>
</g>
</g>
<!-- Node2&#45;&gt;Node4 -->
<g id="edge3_Node000002_Node000004" class="edge">
<title>Node2&#45;&gt;Node4</title>
<g id="a_edge3_Node000002_Node000004"><a xlink:title=" ">
<path fill="none" stroke="#63b8ff" d="M786.73,-70.35C798.4,-60.73 811.4,-50.01 822.25,-41.07"/>
<polygon fill="#63b8ff" stroke="#63b8ff" points="784.4,-67.73 778.91,-76.79 788.85,-73.14 784.4,-67.73"/>
</a>
</g>
</g>
<!-- Node2&#45;&gt;Node5 -->
<g id="edge4_Node000002_Node000005" class="edge">
<title>Node2&#45;&gt;Node5</title>
<g id="a_edge4_Node000002_Node000005"><a xlink:title=" ">
<path fill="none" stroke="#63b8ff" d="M662.52,-91C547.37,-83.4 344.87,-67.52 173,-41 170.13,-40.56 167.21,-40.08 164.26,-39.57"/>
<polygon fill="#63b8ff" stroke="#63b8ff" points="662.49,-94.51 672.7,-91.67 662.95,-87.53 662.49,-94.51"/>
</a>
</g>
</g>
<!-- Node6 -->
<g id="Node000006" class="node">
<title>Node6</title>
<g id="a_Node000006"><a xlink:href="sequential__auxiliary__solver_8cc.html" target="_top" xlink:title=" ">
<polygon fill="white" stroke="#666666" points="1128,-41 946,-41 946,0 1128,0 1128,-41"/>
<text text-anchor="start" x="954" y="-29" font-family="Helvetica,sans-Serif" font-size="10.00">/home/runner/work/phaseField</text>
<text text-anchor="start" x="954" y="-18" font-family="Helvetica,sans-Serif" font-size="10.00">/phaseField/src/solvers/sequential</text>
<text text-anchor="middle" x="1037" y="-7" font-family="Helvetica,sans-Serif" font-size="10.00">_auxiliary_solver.cc</text>
</a>
</g>
</g>
<!-- Node2&#45;&gt;Node6 -->
<g id="edge5_Node000002_Node000006" class="edge">
<title>Node2&#45;&gt;Node6</title>
<g id="a_edge5_Node000002_Node000006"><a xlink:title=" ">
<path fill="none" stroke="#63b8ff" d="M838.04,-74.42C877.82,-63.84 925.06,-51.27 963.52,-41.04"/>
<polygon fill="#63b8ff" stroke="#63b8ff" points="837.12,-71.04 828.36,-76.99 838.92,-77.8 837.12,-71.04"/>
</a>
</g>
</g>
<!-- Node7 -->
<g id="Node000007" class="node">
<title>Node7</title>
<g id="a_Node000007"><a xlink:href="sequential__co__nonlinear__solver_8cc.html" target="_top" xlink:title=" ">
<polygon fill="white" stroke="#666666" points="1328,-41 1146,-41 1146,0 1328,0 1328,-41"/>
<text text-anchor="start" x="1154" y="-29" font-family="Helvetica,sans-Serif" font-size="10.00">/home/runner/work/phaseField</text>
<text text-anchor="start" x="1154" y="-18" font-family="Helvetica,sans-Serif" font-size="10.00">/phaseField/src/solvers/sequential</text>
<text text-anchor="middle" x="1237" y="-7" font-family="Helvetica,sans-Serif" font-size="10.00">_co_nonlinear_solver.cc</text>
</a>
</g>
</g>
<!-- Node2&#45;&gt;Node7 -->
<g id="edge6_Node000002_Node000007" class="edge">
<title>Node2&#45;&gt;Node7</title>
<g id="a_edge6_Node000002_Node000007"><a xlink:title=" ">
<path fill="none" stroke="#63b8ff" d="M847.11,-77.07C976.79,-55.79 1011.87,-60.94 1137,-41 1139.88,-40.54 1142.81,-40.06 1145.76,-39.56"/>
<polygon fill="#63b8ff" stroke="#63b8ff" points="846.48,-73.62 837.19,-78.72 847.63,-80.53 846.48,-73.62"/>
</a>
</g>
</g>
<!-- Node8 -->
<g id="Node000008" class="node">
<title>Node8</title>
<g id="a_Node000008"><a xlink:href="sequential__linear__solver_8cc.html" target="_top" xlink:title=" ">
<polygon fill="white" stroke="#666666" points="1528,-41 1346,-41 1346,0 1528,0 1528,-41"/>
<text text-anchor="start" x="1354" y="-29" font-family="Helvetica,sans-Serif" font-size="10.00">/home/runner/work/phaseField</text>
<text text-anchor="start" x="1354" y="-18" font-family="Helvetica,sans-Serif" font-size="10.00">/phaseField/src/solvers/sequential</text>
<text text-anchor="middle" x="1437" y="-7" font-family="Helvetica,sans-Serif" font-size="10.00">_linear_solver.cc</text>
</a>
</g>
</g>
<!-- Node2&#45;&gt;Node8 -->
<g id="edge7_Node000002_Node000008" class="edge">
<title>Node2&#45;&gt;Node8</title>
<g id="a_edge7_Node000002_Node000008"><a xlink:title=" ">
<path fill="none" stroke="#63b8ff" d="M847.31,-77.08C1064.97,-46.99 1123.84,-69.51 1337,-41 1339.89,-40.61 1342.83,-40.2 1345.79,-39.75"/>
<polygon fill="#63b8ff" stroke="#63b8ff" points="846.58,-73.65 837.16,-78.51 847.55,-80.58 846.58,-73.65"/>
</a>
</g>
</g>
<!-- Node9 -->
<g id="Node000009" class="node">
<title>Node9</title>
<g id="a_Node000009"><a xlink:href="sequential__self__nonlinear__solver_8cc.html" target="_top" xlink:title=" ">
<polygon fill="white" stroke="#666666" points="364,-41 182,-41 182,0 364,0 364,-41"/>
<text text-anchor="start" x="190" y="-29" font-family="Helvetica,sans-Serif" font-size="10.00">/home/runner/work/phaseField</text>
<text text-anchor="start" x="190" y="-18" font-family="Helvetica,sans-Serif" font-size="10.00">/phaseField/src/solvers/sequential</text>
<text text-anchor="middle" x="273" y="-7" font-family="Helvetica,sans-Serif" font-size="10.00">_self_nonlinear_solver.cc</text>
</a>
</g>
</g>
<!-- Node2&#45;&gt;Node9 -->
<g id="edge8_Node000002_Node000009" class="edge">
<title>Node2&#45;&gt;Node9</title>
<g id="a_edge8_Node000002_Node000009"><a xlink:title=" ">
<path fill="none" stroke="#63b8ff" d="M662.64,-84.35C585.15,-73.86 471.64,-57.77 373,-41 370.12,-40.51 367.2,-40 364.25,-39.48"/>
<polygon fill="#63b8ff" stroke="#63b8ff" points="662.47,-87.86 672.85,-85.73 663.41,-80.93 662.47,-87.86"/>
</a>
</g>
</g>
<!-- Node10 -->
<g id="Node000010" class="node">
<title>Node10</title>
<g id="a_Node000010"><a xlink:href="sequential__solver_8cc.html" target="_top" xlink:title=" ">
<polygon fill="white" stroke="#666666" points="564,-41 382,-41 382,0 564,0 564,-41"/>
<text text-anchor="start" x="390" y="-29" font-family="Helvetica,sans-Serif" font-size="10.00">/home/runner/work/phaseField</text>
<text text-anchor="start" x="390" y="-18" font-family="Helvetica,sans-Serif" font-size="10.00">/phaseField/src/solvers/sequential</text>
<text text-anchor="middle" x="473" y="-7" font-family="Helvetica,sans-Serif" font-size="10.00">_solver.cc</text>
</a>
</g>
</g>
<!-- Node2&#45;&gt;Node10 -->
<g id="edge9_Node000002_Node000010" class="edge">
<title>Node2&#45;&gt;Node10</title>
<g id="a_edge9_Node000002_Node000010"><a xlink:title=" ">
<path fill="none" stroke="#63b8ff" d="M671.96,-74.42C632.18,-63.84 584.94,-51.27 546.48,-41.04"/>
<polygon fill="#63b8ff" stroke="#63b8ff" points="671.08,-77.8 681.64,-76.99 672.88,-71.04 671.08,-77.8"/>
</a>
</g>
</g>
<!-- Node11&#45;&gt;Node3 -->
<g id="edge11_Node000011_Node000003" class="edge">
<title>Node11&#45;&gt;Node3</title>
<g id="a_edge11_Node000011_Node000003"><a xlink:title=" ">
<path fill="none" stroke="#63b8ff" d="M859.19,-74.35C820.16,-63.78 773.88,-51.25 736.18,-41.04"/>
<polygon fill="#63b8ff" stroke="#63b8ff" points="858.38,-77.76 868.94,-76.99 860.21,-71 858.38,-77.76"/>
</a>
</g>
</g>
<!-- Node11&#45;&gt;Node4 -->
<g id="edge12_Node000011_Node000004" class="edge">
<title>Node11&#45;&gt;Node4</title>
<g id="a_edge12_Node000011_Node000004"><a xlink:title=" ">
<path fill="none" stroke="#63b8ff" d="M907.87,-70.35C895.69,-60.73 882.12,-50.01 870.79,-41.07"/>
<polygon fill="#63b8ff" stroke="#63b8ff" points="906.02,-73.35 916.04,-76.79 910.36,-67.85 906.02,-73.35"/>
</a>
</g>
</g>
<!-- Node11&#45;&gt;Node6 -->
<g id="edge14_Node000011_Node000006" class="edge">
<title>Node11&#45;&gt;Node6</title>
<g id="a_edge14_Node000011_Node000006"><a xlink:title=" ">
<path fill="none" stroke="#63b8ff" d="M973.88,-70.82C986.29,-61.11 1000.22,-50.24 1011.82,-41.17"/>
<polygon fill="#63b8ff" stroke="#63b8ff" points="971.7,-68.08 965.97,-76.99 976.01,-73.59 971.7,-68.08"/>
</a>
</g>
</g>
<!-- Node11&#45;&gt;Node7 -->
<g id="edge15_Node000011_Node000007" class="edge">
<title>Node11&#45;&gt;Node7</title>
<g id="a_edge15_Node000011_Node000007"><a xlink:title=" ">
<path fill="none" stroke="#63b8ff" d="M1027.89,-74.48C1069.71,-63.89 1119.42,-51.29 1159.87,-41.04"/>
<polygon fill="#63b8ff" stroke="#63b8ff" points="1026.83,-71.14 1018,-76.99 1028.55,-77.93 1026.83,-71.14"/>
</a>
</g>
</g>
<!-- Node11&#45;&gt;Node8 -->
<g id="edge16_Node000011_Node000008" class="edge">
<title>Node11&#45;&gt;Node8</title>
<g id="a_edge16_Node000011_Node000008"><a xlink:title=" ">
<path fill="none" stroke="#63b8ff" d="M1036.55,-77.72C1038.04,-77.47 1039.53,-77.23 1041,-77 1171.9,-56.3 1206.1,-61.7 1337,-41 1339.88,-40.54 1342.81,-40.07 1345.76,-39.57"/>
<polygon fill="#63b8ff" stroke="#63b8ff" points="1035.85,-74.28 1026.57,-79.4 1037.02,-81.19 1035.85,-74.28"/>
</a>
</g>
</g>
<!-- Node11&#45;&gt;Node9 -->
<g id="edge17_Node000011_Node000009" class="edge">
<title>Node11&#45;&gt;Node9</title>
<g id="a_edge17_Node000011_Node000009"><a xlink:title=" ">
<path fill="none" stroke="#63b8ff" d="M845.27,-77.01C635.44,-48.4 578.67,-68.78 373,-41 370.11,-40.61 367.17,-40.19 364.21,-39.74"/>
<polygon fill="#63b8ff" stroke="#63b8ff" points="845,-80.5 855.38,-78.41 845.96,-73.57 845,-80.5"/>
</a>
</g>
</g>
<!-- Node11&#45;&gt;Node10 -->
<g id="edge18_Node000011_Node000010" class="edge">
<title>Node11&#45;&gt;Node10</title>
<g id="a_edge18_Node000011_Node000010"><a xlink:title=" ">
<path fill="none" stroke="#63b8ff" d="M845.26,-76.94C723.59,-56.88 690.6,-60.2 573,-41 570.12,-40.53 567.2,-40.04 564.24,-39.53"/>
<polygon fill="#63b8ff" stroke="#63b8ff" points="844.91,-80.43 855.35,-78.63 846.06,-73.53 844.91,-80.43"/>
</a>
</g>
</g>
<!-- Node11&#45;&gt;Node12 -->
<g id="edge13_Node000011_Node000012" class="edge">
<title>Node11&#45;&gt;Node12</title>
<g id="a_edge13_Node000011_Node000012"><a xlink:title=" ">
<path fill="none" stroke="#63b8ff" d="M1036.53,-77.62C1038.03,-77.4 1039.52,-77.2 1041,-77 1260.09,-47.8 1318.19,-72.23 1537,-41 1539.88,-40.59 1542.8,-40.14 1545.75,-39.66"/>
<polygon fill="#63b8ff" stroke="#63b8ff" points="1035.9,-74.17 1026.53,-79.12 1036.94,-81.09 1035.9,-74.17"/>
</a>
</g>
</g>
</g>
</svg>
