<?xml version="1.0" encoding="UTF-8" standalone="no"?>
<!DOCTYPE svg PUBLIC "-//W3C//DTD SVG 1.1//EN"
 "http://www.w3.org/Graphics/SVG/1.1/DTD/svg11.dtd">
<!-- Generated by graphviz version 2.43.0 (0)
 -->
<!-- Title: /home/runner/work/phaseField/phaseField/include/prismspf/user_inputs/miscellaneous_parameters.h Pages: 1 -->
<svg width="1440pt" height="302pt"
 viewBox="0.00 0.00 1439.62 302.00" xmlns="http://www.w3.org/2000/svg" xmlns:xlink="http://www.w3.org/1999/xlink">
<g id="graph0" class="graph" transform="scale(1 1) rotate(0) translate(4 298)">
<title>/home/runner/work/phaseField/phaseField/include/prismspf/user_inputs/miscellaneous_parameters.h</title>
<!-- Node1 -->
<g id="Node000001" class="node">
<title>Node1</title>
<g id="a_Node000001"><a xlink:title=" ">
<polygon fill="#999999" stroke="#666666" points="640,-294 420,-294 420,-253 640,-253 640,-294"/>
<text text-anchor="start" x="428" y="-282" font-family="Helvetica,sans-Serif" font-size="10.00">/home/runner/work/phaseField</text>
<text text-anchor="start" x="428" y="-271" font-family="Helvetica,sans-Serif" font-size="10.00">/phaseField/include/prismspf</text>
<text text-anchor="middle" x="530" y="-260" font-family="Helvetica,sans-Serif" font-size="10.00">/user_inputs/miscellaneous_parameters.h</text>
</a>
</g>
</g>
<!-- Node2 -->
<g id="Node000002" class="node">
<title>Node2</title>
<g id="a_Node000002"><a xlink:title=" ">
<polygon fill="#e0e0e0" stroke="#999999" points="176,-211.5 72,-211.5 72,-192.5 176,-192.5 176,-211.5"/>
<text text-anchor="middle" x="124" y="-199.5" font-family="Helvetica,sans-Serif" font-size="10.00">deal.II/base/mpi.h</text>
</a>
</g>
</g>
<!-- Node1&#45;&gt;Node2 -->
<g id="edge1_Node000001_Node000002" class="edge">
<title>Node1&#45;&gt;Node2</title>
<g id="a_edge1_Node000001_Node000002"><a xlink:title=" ">
<path fill="none" stroke="#63b8ff" d="M419.74,-256.66C351.85,-246.44 263.15,-232.24 185,-217 179.93,-216.01 174.64,-214.91 169.39,-213.77"/>
<polygon fill="#63b8ff" stroke="#63b8ff" points="169.92,-210.3 159.4,-211.54 168.4,-217.13 169.92,-210.3"/>
</a>
</g>
</g>
<!-- Node3 -->
<g id="Node000003" class="node">
<title>Node3</title>
<g id="a_Node000003"><a xlink:href="conditional__ostreams_8h.html" target="_top" xlink:title=" ">
<polygon fill="white" stroke="#666666" points="502,-217 362,-217 362,-187 502,-187 502,-217"/>
<text text-anchor="start" x="370" y="-205" font-family="Helvetica,sans-Serif" font-size="10.00">prismspf/core/conditional</text>
<text text-anchor="middle" x="432" y="-194" font-family="Helvetica,sans-Serif" font-size="10.00">_ostreams.h</text>
</a>
</g>
</g>
<!-- Node1&#45;&gt;Node3 -->
<g id="edge2_Node000001_Node000003" class="edge">
<title>Node1&#45;&gt;Node3</title>
<g id="a_edge2_Node000001_Node000003"><a xlink:title=" ">
<path fill="none" stroke="#63b8ff" d="M502.44,-252.96C489.25,-243.6 473.48,-232.42 460.21,-223.01"/>
<polygon fill="#63b8ff" stroke="#63b8ff" points="462.08,-220.04 451.9,-217.11 458.03,-225.75 462.08,-220.04"/>
</a>
</g>
</g>
<!-- Node5 -->
<g id="Node000005" class="node">
<title>Node5</title>
<g id="a_Node000005"><a xlink:title=" ">
<polygon fill="#e0e0e0" stroke="#999999" points="394.5,-19 293.5,-19 293.5,0 394.5,0 394.5,-19"/>
<text text-anchor="middle" x="344" y="-7" font-family="Helvetica,sans-Serif" font-size="10.00">prismspf/config.h</text>
</a>
</g>
</g>
<!-- Node1&#45;&gt;Node5 -->
<g id="edge27_Node000001_Node000005" class="edge">
<title>Node1&#45;&gt;Node5</title>
<g id="a_edge27_Node000001_Node000005"><a xlink:title=" ">
<path fill="none" stroke="#63b8ff" d="M532.46,-252.87C535.29,-222.25 536.65,-162.33 511,-121 502.12,-106.69 410.99,-50.73 367.22,-24.37"/>
<polygon fill="#63b8ff" stroke="#63b8ff" points="368.78,-21.22 358.41,-19.08 365.18,-27.23 368.78,-21.22"/>
</a>
</g>
</g>
<!-- Node6 -->
<g id="Node000006" class="node">
<title>Node6</title>
<g id="a_Node000006"><a xlink:href="exceptions_8h.html" target="_top" xlink:title=" ">
<polygon fill="white" stroke="#666666" points="343.5,-211.5 194.5,-211.5 194.5,-192.5 343.5,-192.5 343.5,-211.5"/>
<text text-anchor="middle" x="269" y="-199.5" font-family="Helvetica,sans-Serif" font-size="10.00">prismspf/core/exceptions.h</text>
</a>
</g>
</g>
<!-- Node1&#45;&gt;Node6 -->
<g id="edge5_Node000001_Node000006" class="edge">
<title>Node1&#45;&gt;Node6</title>
<g id="a_edge5_Node000001_Node000006"><a xlink:title=" ">
<path fill="none" stroke="#63b8ff" d="M456.6,-252.96C409.44,-240.4 349.89,-224.54 310.69,-214.1"/>
<polygon fill="#63b8ff" stroke="#63b8ff" points="311.5,-210.69 300.93,-211.5 309.7,-217.46 311.5,-210.69"/>
</a>
</g>
</g>
<!-- Node13 -->
<g id="Node000013" class="node">
<title>Node13</title>
<g id="a_Node000013"><a xlink:href="utilities_8h.html" target="_top" xlink:title=" ">
<polygon fill="white" stroke="#666666" points="971.5,-151 872.5,-151 872.5,-121 971.5,-121 971.5,-151"/>
<text text-anchor="start" x="880.5" y="-139" font-family="Helvetica,sans-Serif" font-size="10.00">prismspf/utilities</text>
<text text-anchor="middle" x="922" y="-128" font-family="Helvetica,sans-Serif" font-size="10.00">/utilities.h</text>
</a>
</g>
</g>
<!-- Node1&#45;&gt;Node13 -->
<g id="edge15_Node000001_Node000013" class="edge">
<title>Node1&#45;&gt;Node13</title>
<g id="a_edge15_Node000001_Node000013"><a xlink:title=" ">
<path fill="none" stroke="#63b8ff" d="M537.54,-252.65C546.25,-232.61 562.6,-202.49 587,-187 631.56,-158.72 778.35,-145.52 862.09,-140.15"/>
<polygon fill="#63b8ff" stroke="#63b8ff" points="862.46,-143.63 872.23,-139.52 862.03,-136.65 862.46,-143.63"/>
</a>
</g>
</g>
<!-- Node22 -->
<g id="Node000022" class="node">
<title>Node22</title>
<g id="a_Node000022"><a xlink:title=" ">
<polygon fill="#e0e0e0" stroke="#999999" points="640,-211.5 596,-211.5 596,-192.5 640,-192.5 640,-211.5"/>
<text text-anchor="middle" x="618" y="-199.5" font-family="Helvetica,sans-Serif" font-size="10.00">mpi.h</text>
</a>
</g>
</g>
<!-- Node1&#45;&gt;Node22 -->
<g id="edge28_Node000001_Node000022" class="edge">
<title>Node1&#45;&gt;Node22</title>
<g id="a_edge28_Node000001_Node000022"><a xlink:title=" ">
<path fill="none" stroke="#63b8ff" d="M554.98,-252.77C568.85,-241.81 585.85,-228.39 598.69,-218.25"/>
<polygon fill="#63b8ff" stroke="#63b8ff" points="601.15,-220.76 606.83,-211.82 596.82,-215.27 601.15,-220.76"/>
</a>
</g>
</g>
<!-- Node23 -->
<g id="Node000023" class="node">
<title>Node23</title>
<g id="a_Node000023"><a xlink:title=" ">
<polygon fill="#e0e0e0" stroke="#999999" points="712,-211.5 658,-211.5 658,-192.5 712,-192.5 712,-211.5"/>
<text text-anchor="middle" x="685" y="-199.5" font-family="Helvetica,sans-Serif" font-size="10.00">random</text>
</a>
</g>
</g>
<!-- Node1&#45;&gt;Node23 -->
<g id="edge29_Node000001_Node000023" class="edge">
<title>Node1&#45;&gt;Node23</title>
<g id="a_edge29_Node000001_Node000023"><a xlink:title=" ">
<path fill="none" stroke="#63b8ff" d="M573.59,-252.96C600.23,-241.01 633.52,-226.08 656.75,-215.67"/>
<polygon fill="#63b8ff" stroke="#63b8ff" points="658.34,-218.79 666.04,-211.5 655.48,-212.4 658.34,-218.79"/>
</a>
</g>
</g>
<!-- Node4 -->
<g id="Node000004" class="node">
<title>Node4</title>
<g id="a_Node000004"><a xlink:title=" ">
<polygon fill="#e0e0e0" stroke="#999999" points="502,-151 372,-151 372,-121 502,-121 502,-151"/>
<text text-anchor="start" x="380" y="-139" font-family="Helvetica,sans-Serif" font-size="10.00">deal.II/base/conditional</text>
<text text-anchor="middle" x="437" y="-128" font-family="Helvetica,sans-Serif" font-size="10.00">_ostream.h</text>
</a>
</g>
</g>
<!-- Node3&#45;&gt;Node4 -->
<g id="edge3_Node000003_Node000004" class="edge">
<title>Node3&#45;&gt;Node4</title>
<g id="a_edge3_Node000003_Node000004"><a xlink:title=" ">
<path fill="none" stroke="#63b8ff" d="M433.11,-186.8C433.69,-179.34 434.42,-169.99 435.09,-161.41"/>
<polygon fill="#63b8ff" stroke="#63b8ff" points="438.6,-161.41 435.89,-151.16 431.63,-160.86 438.6,-161.41"/>
</a>
</g>
</g>
<!-- Node3&#45;&gt;Node5 -->
<g id="edge4_Node000003_Node000005" class="edge">
<title>Node3&#45;&gt;Node5</title>
<g id="a_edge4_Node000003_Node000005"><a xlink:title=" ">
<path fill="none" stroke="#63b8ff" d="M402.69,-186.97C388.37,-178.57 372.26,-166.49 363,-151 340.01,-112.57 340.1,-57.8 342.08,-29.33"/>
<polygon fill="#63b8ff" stroke="#63b8ff" points="345.58,-29.43 342.95,-19.17 338.61,-28.83 345.58,-29.43"/>
</a>
</g>
</g>
<!-- Node6&#45;&gt;Node5 -->
<g id="edge14_Node000006_Node000005" class="edge">
<title>Node6&#45;&gt;Node5</title>
<g id="a_edge14_Node000006_Node000005"><a xlink:title=" ">
<path fill="none" stroke="#63b8ff" d="M272.42,-192.32C283.89,-163.19 321.17,-68.5 336.9,-28.54"/>
<polygon fill="#63b8ff" stroke="#63b8ff" points="340.16,-29.82 340.56,-19.23 333.64,-27.25 340.16,-29.82"/>
</a>
</g>
</g>
<!-- Node7 -->
<g id="Node000007" class="node">
<title>Node7</title>
<g id="a_Node000007"><a xlink:title=" ">
<polygon fill="#e0e0e0" stroke="#999999" points="138,-145.5 0,-145.5 0,-126.5 138,-126.5 138,-145.5"/>
<text text-anchor="middle" x="69" y="-133.5" font-family="Helvetica,sans-Serif" font-size="10.00">deal.II/base/exceptions.h</text>
</a>
</g>
</g>
<!-- Node6&#45;&gt;Node7 -->
<g id="edge6_Node000006_Node000007" class="edge">
<title>Node6&#45;&gt;Node7</title>
<g id="a_edge6_Node000006_Node000007"><a xlink:title=" ">
<path fill="none" stroke="#63b8ff" d="M242.03,-192.37C206.81,-181.1 145.04,-161.33 105.62,-148.72"/>
<polygon fill="#63b8ff" stroke="#63b8ff" points="106.46,-145.31 95.86,-145.6 104.32,-151.98 106.46,-145.31"/>
</a>
</g>
</g>
<!-- Node8 -->
<g id="Node000008" class="node">
<title>Node8</title>
<g id="a_Node000008"><a xlink:href="types_8h.html" target="_top" xlink:title=" ">
<polygon fill="white" stroke="#666666" points="278,-145.5 156,-145.5 156,-126.5 278,-126.5 278,-145.5"/>
<text text-anchor="middle" x="217" y="-133.5" font-family="Helvetica,sans-Serif" font-size="10.00">prismspf/core/types.h</text>
</a>
</g>
</g>
<!-- Node6&#45;&gt;Node8 -->
<g id="edge7_Node000006_Node000008" class="edge">
<title>Node6&#45;&gt;Node8</title>
<g id="a_edge7_Node000006_Node000008"><a xlink:title=" ">
<path fill="none" stroke="#63b8ff" d="M261.99,-192.37C253.97,-182.5 240.65,-166.11 230.58,-153.72"/>
<polygon fill="#63b8ff" stroke="#63b8ff" points="233.26,-151.46 224.24,-145.91 227.83,-155.87 233.26,-151.46"/>
</a>
</g>
</g>
<!-- Node8&#45;&gt;Node5 -->
<g id="edge12_Node000008_Node000005" class="edge">
<title>Node8&#45;&gt;Node5</title>
<g id="a_edge12_Node000008_Node000005"><a xlink:title=" ">
<path fill="none" stroke="#63b8ff" d="M224.59,-126.3C237.81,-111.28 266.12,-79.73 292,-55 302.74,-44.74 315.39,-33.89 325.52,-25.47"/>
<polygon fill="#63b8ff" stroke="#63b8ff" points="327.84,-28.09 333.35,-19.04 323.4,-22.69 327.84,-28.09"/>
</a>
</g>
</g>
<!-- Node9 -->
<g id="Node000009" class="node">
<title>Node9</title>
<g id="a_Node000009"><a xlink:href="type__enums_8h.html" target="_top" xlink:title=" ">
<polygon fill="white" stroke="#666666" points="176,-85 68,-85 68,-55 176,-55 176,-85"/>
<text text-anchor="start" x="76" y="-73" font-family="Helvetica,sans-Serif" font-size="10.00">prismspf/core/type</text>
<text text-anchor="middle" x="122" y="-62" font-family="Helvetica,sans-Serif" font-size="10.00">_enums.h</text>
</a>
</g>
</g>
<!-- Node8&#45;&gt;Node9 -->
<g id="edge8_Node000008_Node000009" class="edge">
<title>Node8&#45;&gt;Node9</title>
<g id="a_edge8_Node000008_Node000009"><a xlink:title=" ">
<path fill="none" stroke="#63b8ff" d="M204.19,-126.37C190.7,-117.28 168.99,-102.66 151.28,-90.72"/>
<polygon fill="#63b8ff" stroke="#63b8ff" points="153.2,-87.8 142.95,-85.12 149.29,-93.61 153.2,-87.8"/>
</a>
</g>
</g>
<!-- Node12 -->
<g id="Node000012" class="node">
<title>Node12</title>
<g id="a_Node000012"><a xlink:title=" ">
<polygon fill="#e0e0e0" stroke="#999999" points="239.5,-79.5 194.5,-79.5 194.5,-60.5 239.5,-60.5 239.5,-79.5"/>
<text text-anchor="middle" x="217" y="-67.5" font-family="Helvetica,sans-Serif" font-size="10.00">utility</text>
</a>
</g>
</g>
<!-- Node8&#45;&gt;Node12 -->
<g id="edge13_Node000008_Node000012" class="edge">
<title>Node8&#45;&gt;Node12</title>
<g id="a_edge13_Node000008_Node000012"><a xlink:title=" ">
<path fill="none" stroke="#63b8ff" d="M217,-126.37C217,-117.16 217,-102.29 217,-90.27"/>
<polygon fill="#63b8ff" stroke="#63b8ff" points="220.5,-89.91 217,-79.91 213.5,-89.91 220.5,-89.91"/>
</a>
</g>
</g>
<!-- Node9&#45;&gt;Node5 -->
<g id="edge9_Node000009_Node000005" class="edge">
<title>Node9&#45;&gt;Node5</title>
<g id="a_edge9_Node000009_Node000005"><a xlink:title=" ">
<path fill="none" stroke="#63b8ff" d="M175.17,-54.99C213.98,-44.76 265.88,-31.09 301.84,-21.61"/>
<polygon fill="#63b8ff" stroke="#63b8ff" points="302.76,-24.99 311.54,-19.05 300.98,-18.22 302.76,-24.99"/>
</a>
</g>
</g>
<!-- Node10 -->
<g id="Node000010" class="node">
<title>Node10</title>
<g id="a_Node000010"><a xlink:title=" ">
<polygon fill="#e0e0e0" stroke="#999999" points="115,-19 65,-19 65,0 115,0 115,-19"/>
<text text-anchor="middle" x="90" y="-7" font-family="Helvetica,sans-Serif" font-size="10.00">cstdint</text>
</a>
</g>
</g>
<!-- Node9&#45;&gt;Node10 -->
<g id="edge10_Node000009_Node000010" class="edge">
<title>Node9&#45;&gt;Node10</title>
<g id="a_edge10_Node000009_Node000010"><a xlink:title=" ">
<path fill="none" stroke="#63b8ff" d="M114.25,-54.84C109.85,-46.78 104.29,-36.62 99.6,-28.06"/>
<polygon fill="#63b8ff" stroke="#63b8ff" points="102.66,-26.36 94.8,-19.27 96.52,-29.72 102.66,-26.36"/>
</a>
</g>
</g>
<!-- Node11 -->
<g id="Node000011" class="node">
<title>Node11</title>
<g id="a_Node000011"><a xlink:title=" ">
<polygon fill="#e0e0e0" stroke="#999999" points="177,-19 133,-19 133,0 177,0 177,-19"/>
<text text-anchor="middle" x="155" y="-7" font-family="Helvetica,sans-Serif" font-size="10.00">string</text>
</a>
</g>
</g>
<!-- Node9&#45;&gt;Node11 -->
<g id="edge11_Node000009_Node000011" class="edge">
<title>Node9&#45;&gt;Node11</title>
<g id="a_edge11_Node000009_Node000011"><a xlink:title=" ">
<path fill="none" stroke="#63b8ff" d="M129.99,-54.84C134.53,-46.78 140.27,-36.62 145.1,-28.06"/>
<polygon fill="#63b8ff" stroke="#63b8ff" points="148.19,-29.7 150.06,-19.27 142.09,-26.26 148.19,-29.7"/>
</a>
</g>
</g>
<!-- Node13&#45;&gt;Node5 -->
<g id="edge22_Node000013_Node000005" class="edge">
<title>Node13&#45;&gt;Node5</title>
<g id="a_edge22_Node000013_Node000005"><a xlink:title=" ">
<path fill="none" stroke="#63b8ff" d="M872.33,-131.94C778.23,-125.64 577.64,-109.73 513,-85 491.24,-76.67 490.73,-65.64 470,-55 442.85,-41.06 410.34,-29.7 385.14,-21.94"/>
<polygon fill="#63b8ff" stroke="#63b8ff" points="386.1,-18.58 375.52,-19.05 384.09,-25.28 386.1,-18.58"/>
</a>
</g>
</g>
<!-- Node14 -->
<g id="Node000014" class="node">
<title>Node14</title>
<g id="a_Node000014"><a xlink:title=" ">
<polygon fill="#e0e0e0" stroke="#999999" points="632,-79.5 522,-79.5 522,-60.5 632,-60.5 632,-79.5"/>
<text text-anchor="middle" x="577" y="-67.5" font-family="Helvetica,sans-Serif" font-size="10.00">deal.II/base/point.h</text>
</a>
</g>
</g>
<!-- Node13&#45;&gt;Node14 -->
<g id="edge16_Node000013_Node000014" class="edge">
<title>Node13&#45;&gt;Node14</title>
<g id="a_edge16_Node000013_Node000014"><a xlink:title=" ">
<path fill="none" stroke="#63b8ff" d="M872.33,-126.68C816.28,-117.16 722.43,-100.84 642,-85 636.62,-83.94 631,-82.79 625.41,-81.62"/>
<polygon fill="#63b8ff" stroke="#63b8ff" points="625.96,-78.16 615.45,-79.52 624.51,-85.01 625.96,-78.16"/>
</a>
</g>
</g>
<!-- Node15 -->
<g id="Node000015" class="node">
<title>Node15</title>
<g id="a_Node000015"><a xlink:title=" ">
<polygon fill="#e0e0e0" stroke="#999999" points="765.5,-79.5 650.5,-79.5 650.5,-60.5 765.5,-60.5 765.5,-79.5"/>
<text text-anchor="middle" x="708" y="-67.5" font-family="Helvetica,sans-Serif" font-size="10.00">deal.II/base/tensor.h</text>
</a>
</g>
</g>
<!-- Node13&#45;&gt;Node15 -->
<g id="edge17_Node000013_Node000015" class="edge">
<title>Node13&#45;&gt;Node15</title>
<g id="a_edge17_Node000013_Node000015"><a xlink:title=" ">
<path fill="none" stroke="#63b8ff" d="M875.04,-120.95C836.35,-109.38 782.18,-93.18 746.14,-82.41"/>
<polygon fill="#63b8ff" stroke="#63b8ff" points="747.06,-79.03 736.48,-79.52 745.06,-85.74 747.06,-79.03"/>
</a>
</g>
</g>
<!-- Node16 -->
<g id="Node000016" class="node">
<title>Node16</title>
<g id="a_Node000016"><a xlink:title=" ">
<polygon fill="#e0e0e0" stroke="#999999" points="1222.5,-19 1073.5,-19 1073.5,0 1222.5,0 1222.5,-19"/>
<text text-anchor="middle" x="1148" y="-7" font-family="Helvetica,sans-Serif" font-size="10.00">deal.II/base/vectorization.h</text>
</a>
</g>
</g>
<!-- Node13&#45;&gt;Node16 -->
<g id="edge18_Node000013_Node000016" class="edge">
<title>Node13&#45;&gt;Node16</title>
<g id="a_edge18_Node000013_Node000016"><a xlink:title=" ">
<path fill="none" stroke="#63b8ff" d="M971.67,-133.77C1092.65,-130.26 1394.92,-118.22 1425,-85 1433.95,-75.12 1433.65,-65.15 1425,-55 1400.6,-26.36 1304.78,-16.08 1232.62,-12.43"/>
<polygon fill="#63b8ff" stroke="#63b8ff" points="1232.76,-8.94 1222.6,-11.96 1232.43,-15.93 1232.76,-8.94"/>
</a>
</g>
</g>
<!-- Node17 -->
<g id="Node000017" class="node">
<title>Node17</title>
<g id="a_Node000017"><a xlink:title=" ">
<polygon fill="#e0e0e0" stroke="#999999" points="1047.5,-85 938.5,-85 938.5,-55 1047.5,-55 1047.5,-85"/>
<text text-anchor="start" x="946.5" y="-73" font-family="Helvetica,sans-Serif" font-size="10.00">deal.II/matrix_free</text>
<text text-anchor="middle" x="993" y="-62" font-family="Helvetica,sans-Serif" font-size="10.00">/evaluation_flags.h</text>
</a>
</g>
</g>
<!-- Node13&#45;&gt;Node17 -->
<g id="edge19_Node000013_Node000017" class="edge">
<title>Node13&#45;&gt;Node17</title>
<g id="a_edge19_Node000013_Node000017"><a xlink:title=" ">
<path fill="none" stroke="#63b8ff" d="M937.76,-120.8C947.13,-112.34 959.2,-101.46 969.67,-92.03"/>
<polygon fill="#63b8ff" stroke="#63b8ff" points="972.2,-94.46 977.29,-85.16 967.52,-89.26 972.2,-94.46"/>
</a>
</g>
</g>
<!-- Node18 -->
<g id="Node000018" class="node">
<title>Node18</title>
<g id="a_Node000018"><a xlink:title=" ">
<polygon fill="#e0e0e0" stroke="#999999" points="1212,-79.5 1066,-79.5 1066,-60.5 1212,-60.5 1212,-79.5"/>
<text text-anchor="middle" x="1139" y="-67.5" font-family="Helvetica,sans-Serif" font-size="10.00">boost/range/algorithm.hpp</text>
</a>
</g>
</g>
<!-- Node13&#45;&gt;Node18 -->
<g id="edge20_Node000013_Node000018" class="edge">
<title>Node13&#45;&gt;Node18</title>
<g id="a_edge20_Node000013_Node000018"><a xlink:title=" ">
<path fill="none" stroke="#63b8ff" d="M969.62,-120.95C1008.85,-109.38 1063.78,-93.18 1100.33,-82.41"/>
<polygon fill="#63b8ff" stroke="#63b8ff" points="1101.52,-85.7 1110.12,-79.52 1099.54,-78.99 1101.52,-85.7"/>
</a>
</g>
</g>
<!-- Node19 -->
<g id="Node000019" class="node">
<title>Node19</title>
<g id="a_Node000019"><a xlink:title=" ">
<polygon fill="#e0e0e0" stroke="#999999" points="1355.5,-85 1230.5,-85 1230.5,-55 1355.5,-55 1355.5,-85"/>
<text text-anchor="start" x="1238.5" y="-73" font-family="Helvetica,sans-Serif" font-size="10.00">boost/range/algorithm</text>
<text text-anchor="middle" x="1293" y="-62" font-family="Helvetica,sans-Serif" font-size="10.00">_ext.hpp</text>
</a>
</g>
</g>
<!-- Node13&#45;&gt;Node19 -->
<g id="edge21_Node000013_Node000019" class="edge">
<title>Node13&#45;&gt;Node19</title>
<g id="a_edge21_Node000013_Node000019"><a xlink:title=" ">
<path fill="none" stroke="#63b8ff" d="M971.54,-127.13C1028.87,-117.92 1126.39,-101.98 1220.24,-85.11"/>
<polygon fill="#63b8ff" stroke="#63b8ff" points="1220.97,-88.53 1230.19,-83.31 1219.73,-81.65 1220.97,-88.53"/>
</a>
</g>
</g>
<!-- Node20 -->
<g id="Node000020" class="node">
<title>Node20</title>
<g id="a_Node000020"><a xlink:title=" ">
<polygon fill="#e0e0e0" stroke="#999999" points="1416,-79.5 1374,-79.5 1374,-60.5 1416,-60.5 1416,-79.5"/>
<text text-anchor="middle" x="1395" y="-67.5" font-family="Helvetica,sans-Serif" font-size="10.00">array</text>
</a>
</g>
</g>
<!-- Node13&#45;&gt;Node20 -->
<g id="edge23_Node000013_Node000020" class="edge">
<title>Node13&#45;&gt;Node20</title>
<g id="a_edge23_Node000013_Node000020"><a xlink:title=" ">
<path fill="none" stroke="#63b8ff" d="M971.5,-134.6C1054.44,-132.78 1226.06,-124.13 1365,-85 1366.64,-84.54 1368.29,-84 1369.95,-83.4"/>
<polygon fill="#63b8ff" stroke="#63b8ff" points="1371.3,-86.63 1379.18,-79.55 1368.6,-80.17 1371.3,-86.63"/>
</a>
</g>
</g>
<!-- Node21 -->
<g id="Node000021" class="node">
<title>Node21</title>
<g id="a_Node000021"><a xlink:href="vectorized__operations_8h.html" target="_top" xlink:title=" ">
<polygon fill="white" stroke="#666666" points="920.5,-85 783.5,-85 783.5,-55 920.5,-55 920.5,-85"/>
<text text-anchor="start" x="791.5" y="-73" font-family="Helvetica,sans-Serif" font-size="10.00">prismspf/utilities</text>
<text text-anchor="middle" x="852" y="-62" font-family="Helvetica,sans-Serif" font-size="10.00">/vectorized_operations.h</text>
</a>
</g>
</g>
<!-- Node13&#45;&gt;Node21 -->
<g id="edge24_Node000013_Node000021" class="edge">
<title>Node13&#45;&gt;Node21</title>
<g id="a_edge24_Node000013_Node000021"><a xlink:title=" ">
<path fill="none" stroke="#63b8ff" d="M906.46,-120.8C897.22,-112.34 885.32,-101.46 875,-92.03"/>
<polygon fill="#63b8ff" stroke="#63b8ff" points="877.23,-89.33 867.49,-85.16 872.51,-94.49 877.23,-89.33"/>
</a>
</g>
</g>
<!-- Node21&#45;&gt;Node5 -->
<g id="edge26_Node000021_Node000005" class="edge">
<title>Node21&#45;&gt;Node5</title>
<g id="a_edge26_Node000021_Node000005"><a xlink:title=" ">
<path fill="none" stroke="#63b8ff" d="M783.2,-56.22C780.43,-55.79 777.69,-55.38 775,-55 643.45,-36.28 488.25,-22.21 404.66,-15.28"/>
<polygon fill="#63b8ff" stroke="#63b8ff" points="404.84,-11.78 394.58,-14.45 404.26,-18.76 404.84,-11.78"/>
</a>
</g>
</g>
<!-- Node21&#45;&gt;Node16 -->
<g id="edge25_Node000021_Node000016" class="edge">
<title>Node21&#45;&gt;Node16</title>
<g id="a_edge25_Node000021_Node000016"><a xlink:title=" ">
<path fill="none" stroke="#63b8ff" d="M920.65,-55.43C973.75,-44.94 1046.18,-30.62 1094.9,-20.99"/>
<polygon fill="#63b8ff" stroke="#63b8ff" points="1095.79,-24.39 1104.92,-19.01 1094.43,-17.52 1095.79,-24.39"/>
</a>
</g>
</g>
</g>
</svg>
