<?xml version="1.0" encoding="UTF-8" standalone="no"?>
<!DOCTYPE svg PUBLIC "-//W3C//DTD SVG 1.1//EN"
 "http://www.w3.org/Graphics/SVG/1.1/DTD/svg11.dtd">
<!-- Generated by graphviz version 2.43.0 (0)
 -->
<!-- Title: /home/runner/work/phaseField/phaseField/include/prismspf/user_inputs/nucleation_parameters.h Pages: 1 -->
<svg width="2141pt" height="368pt"
 viewBox="0.00 0.00 2140.50 368.00" xmlns="http://www.w3.org/2000/svg" xmlns:xlink="http://www.w3.org/1999/xlink">
<g id="graph0" class="graph" transform="scale(1 1) rotate(0) translate(4 364)">
<title>/home/runner/work/phaseField/phaseField/include/prismspf/user_inputs/nucleation_parameters.h</title>
<!-- Node1 -->
<g id="Node000001" class="node">
<title>Node1</title>
<g id="a_Node000001"><a xlink:title=" ">
<polygon fill="#999999" stroke="#666666" points="901,-360 701,-360 701,-319 901,-319 901,-360"/>
<text text-anchor="start" x="709" y="-348" font-family="Helvetica,sans-Serif" font-size="10.00">/home/runner/work/phaseField</text>
<text text-anchor="start" x="709" y="-337" font-family="Helvetica,sans-Serif" font-size="10.00">/phaseField/include/prismspf</text>
<text text-anchor="middle" x="801" y="-326" font-family="Helvetica,sans-Serif" font-size="10.00">/user_inputs/nucleation_parameters.h</text>
</a>
</g>
</g>
<!-- Node2 -->
<g id="Node000002" class="node">
<title>Node2</title>
<g id="a_Node000002"><a xlink:href="conditional__ostreams_8h.html" target="_top" xlink:title=" ">
<polygon fill="white" stroke="#666666" points="196,-217 56,-217 56,-187 196,-187 196,-217"/>
<text text-anchor="start" x="64" y="-205" font-family="Helvetica,sans-Serif" font-size="10.00">prismspf/core/conditional</text>
<text text-anchor="middle" x="126" y="-194" font-family="Helvetica,sans-Serif" font-size="10.00">_ostreams.h</text>
</a>
</g>
</g>
<!-- Node1&#45;&gt;Node2 -->
<g id="edge1_Node000001_Node000002" class="edge">
<title>Node1&#45;&gt;Node2</title>
<g id="a_edge1_Node000001_Node000002"><a xlink:title=" ">
<path fill="none" stroke="#63b8ff" d="M700.69,-330.08C615.28,-321.75 489.66,-306.77 382,-283 307.89,-266.64 224.37,-238.68 173.47,-220.53"/>
<polygon fill="#63b8ff" stroke="#63b8ff" points="174.64,-217.23 164.05,-217.14 172.28,-223.82 174.64,-217.23"/>
</a>
</g>
</g>
<!-- Node4 -->
<g id="Node000004" class="node">
<title>Node4</title>
<g id="a_Node000004"><a xlink:title=" ">
<polygon fill="#e0e0e0" stroke="#999999" points="599.5,-19 498.5,-19 498.5,0 599.5,0 599.5,-19"/>
<text text-anchor="middle" x="549" y="-7" font-family="Helvetica,sans-Serif" font-size="10.00">prismspf/config.h</text>
</a>
</g>
</g>
<!-- Node1&#45;&gt;Node4 -->
<g id="edge40_Node000001_Node000004" class="edge">
<title>Node1&#45;&gt;Node4</title>
<g id="a_edge40_Node000001_Node000004"><a xlink:title=" ">
<path fill="none" stroke="#63b8ff" d="M700.77,-331.86C485.84,-316.29 0,-273.3 0,-203 0,-203 0,-203 0,-135 0,-35.84 344.95,-15.66 487.98,-11.55"/>
<polygon fill="#63b8ff" stroke="#63b8ff" points="488.43,-15.04 498.34,-11.27 488.24,-8.04 488.43,-15.04"/>
</a>
</g>
</g>
<!-- Node5 -->
<g id="Node000005" class="node">
<title>Node5</title>
<g id="a_Node000005"><a xlink:href="exceptions_8h.html" target="_top" xlink:title=" ">
<polygon fill="white" stroke="#666666" points="542.5,-211.5 393.5,-211.5 393.5,-192.5 542.5,-192.5 542.5,-211.5"/>
<text text-anchor="middle" x="468" y="-199.5" font-family="Helvetica,sans-Serif" font-size="10.00">prismspf/core/exceptions.h</text>
</a>
</g>
</g>
<!-- Node1&#45;&gt;Node5 -->
<g id="edge4_Node000001_Node000005" class="edge">
<title>Node1&#45;&gt;Node5</title>
<g id="a_edge4_Node000001_Node000005"><a xlink:title=" ">
<path fill="none" stroke="#63b8ff" d="M752.93,-318.94C683.3,-290.61 556.35,-238.95 498.36,-215.35"/>
<polygon fill="#63b8ff" stroke="#63b8ff" points="499.59,-212.08 489.01,-211.55 496.95,-218.56 499.59,-212.08"/>
</a>
</g>
</g>
<!-- Node10 -->
<g id="Node000010" class="node">
<title>Node10</title>
<g id="a_Node000010"><a xlink:title=" ">
<polygon fill="#e0e0e0" stroke="#999999" points="1444,-19 1400,-19 1400,0 1444,0 1444,-19"/>
<text text-anchor="middle" x="1422" y="-7" font-family="Helvetica,sans-Serif" font-size="10.00">string</text>
</a>
</g>
</g>
<!-- Node1&#45;&gt;Node10 -->
<g id="edge51_Node000001_Node000010" class="edge">
<title>Node1&#45;&gt;Node10</title>
<g id="a_edge51_Node000001_Node000010"><a xlink:title=" ">
<path fill="none" stroke="#63b8ff" d="M901.04,-336.98C1145.74,-330.93 1763.76,-300.83 1890,-151 1898.59,-140.8 1898.27,-131.46 1890,-121 1835.13,-51.67 1550.68,-21.42 1454.12,-13.04"/>
<polygon fill="#63b8ff" stroke="#63b8ff" points="1454.33,-9.55 1444.07,-12.19 1453.74,-16.52 1454.33,-9.55"/>
</a>
</g>
</g>
<!-- Node12 -->
<g id="Node000012" class="node">
<title>Node12</title>
<g id="a_Node000012"><a xlink:href="temporal__discretization_8h.html" target="_top" xlink:title=" ">
<polygon fill="white" stroke="#666666" points="535,-283 391,-283 391,-253 535,-253 535,-283"/>
<text text-anchor="start" x="399" y="-271" font-family="Helvetica,sans-Serif" font-size="10.00">prismspf/user_inputs</text>
<text text-anchor="middle" x="463" y="-260" font-family="Helvetica,sans-Serif" font-size="10.00">/temporal_discretization.h</text>
</a>
</g>
</g>
<!-- Node1&#45;&gt;Node12 -->
<g id="edge14_Node000001_Node000012" class="edge">
<title>Node1&#45;&gt;Node12</title>
<g id="a_edge14_Node000001_Node000012"><a xlink:title=" ">
<path fill="none" stroke="#63b8ff" d="M705.95,-318.96C653.89,-308.25 590.16,-295.15 541.04,-285.05"/>
<polygon fill="#63b8ff" stroke="#63b8ff" points="541.61,-281.59 531.11,-283 540.2,-288.45 541.61,-281.59"/>
</a>
</g>
</g>
<!-- Node13 -->
<g id="Node000013" class="node">
<title>Node13</title>
<g id="a_Node000013"><a xlink:href="variable__attributes_8h.html" target="_top" xlink:title=" ">
<polygon fill="white" stroke="#666666" points="770,-217 644,-217 644,-187 770,-187 770,-217"/>
<text text-anchor="start" x="652" y="-205" font-family="Helvetica,sans-Serif" font-size="10.00">prismspf/core/variable</text>
<text text-anchor="middle" x="707" y="-194" font-family="Helvetica,sans-Serif" font-size="10.00">_attributes.h</text>
</a>
</g>
</g>
<!-- Node1&#45;&gt;Node13 -->
<g id="edge48_Node000001_Node000013" class="edge">
<title>Node1&#45;&gt;Node13</title>
<g id="a_edge48_Node000001_Node000013"><a xlink:title=" ">
<path fill="none" stroke="#63b8ff" d="M787.33,-318.8C770.21,-294.11 740.91,-251.89 722.83,-225.82"/>
<polygon fill="#63b8ff" stroke="#63b8ff" points="725.52,-223.55 716.94,-217.33 719.76,-227.54 725.52,-223.55"/>
</a>
</g>
</g>
<!-- Node16 -->
<g id="Node000016" class="node">
<title>Node16</title>
<g id="a_Node000016"><a xlink:title=" ">
<polygon fill="#e0e0e0" stroke="#999999" points="892,-145.5 860,-145.5 860,-126.5 892,-126.5 892,-145.5"/>
<text text-anchor="middle" x="876" y="-133.5" font-family="Helvetica,sans-Serif" font-size="10.00">set</text>
</a>
</g>
</g>
<!-- Node1&#45;&gt;Node16 -->
<g id="edge50_Node000001_Node000016" class="edge">
<title>Node1&#45;&gt;Node16</title>
<g id="a_edge50_Node000001_Node000016"><a xlink:title=" ">
<path fill="none" stroke="#63b8ff" d="M808.33,-318.81C822.82,-279.88 854.96,-193.52 869.1,-155.54"/>
<polygon fill="#63b8ff" stroke="#63b8ff" points="872.52,-156.39 872.73,-145.8 865.96,-153.95 872.52,-156.39"/>
</a>
</g>
</g>
<!-- Node18 -->
<g id="Node000018" class="node">
<title>Node18</title>
<g id="a_Node000018"><a xlink:href="utilities_8h.html" target="_top" xlink:title=" ">
<polygon fill="white" stroke="#666666" points="1381.5,-217 1282.5,-217 1282.5,-187 1381.5,-187 1381.5,-217"/>
<text text-anchor="start" x="1290.5" y="-205" font-family="Helvetica,sans-Serif" font-size="10.00">prismspf/utilities</text>
<text text-anchor="middle" x="1332" y="-194" font-family="Helvetica,sans-Serif" font-size="10.00">/utilities.h</text>
</a>
</g>
</g>
<!-- Node1&#45;&gt;Node18 -->
<g id="edge28_Node000001_Node000018" class="edge">
<title>Node1&#45;&gt;Node18</title>
<g id="a_edge28_Node000001_Node000018"><a xlink:title=" ">
<path fill="none" stroke="#63b8ff" d="M877.64,-318.94C984.44,-291.69 1175.76,-242.87 1272.5,-218.18"/>
<polygon fill="#63b8ff" stroke="#63b8ff" points="1273.59,-221.52 1282.41,-215.65 1271.86,-214.73 1273.59,-221.52"/>
</a>
</g>
</g>
<!-- Node26 -->
<g id="Node000026" class="node">
<title>Node26</title>
<g id="a_Node000026"><a xlink:href="nucleus_8h.html" target="_top" xlink:title=" ">
<polygon fill="white" stroke="#666666" points="2041.5,-217 1928.5,-217 1928.5,-187 2041.5,-187 2041.5,-217"/>
<text text-anchor="start" x="1936.5" y="-205" font-family="Helvetica,sans-Serif" font-size="10.00">prismspf/nucleation</text>
<text text-anchor="middle" x="1985" y="-194" font-family="Helvetica,sans-Serif" font-size="10.00">/nucleus.h</text>
</a>
</g>
</g>
<!-- Node1&#45;&gt;Node26 -->
<g id="edge41_Node000001_Node000026" class="edge">
<title>Node1&#45;&gt;Node26</title>
<g id="a_edge41_Node000001_Node000026"><a xlink:title=" ">
<path fill="none" stroke="#63b8ff" d="M901.04,-337.91C1157.41,-335.79 1824.11,-326.13 1914,-283 1939.47,-270.78 1959.74,-244.84 1971.99,-225.79"/>
<polygon fill="#63b8ff" stroke="#63b8ff" points="1975.09,-227.44 1977.36,-217.09 1969.13,-223.77 1975.09,-227.44"/>
</a>
</g>
</g>
<!-- Node29 -->
<g id="Node000029" class="node">
<title>Node29</title>
<g id="a_Node000029"><a xlink:title=" ">
<polygon fill="#e0e0e0" stroke="#999999" points="2016,-277.5 1966,-277.5 1966,-258.5 2016,-258.5 2016,-277.5"/>
<text text-anchor="middle" x="1991" y="-265.5" font-family="Helvetica,sans-Serif" font-size="10.00">climits</text>
</a>
</g>
</g>
<!-- Node1&#45;&gt;Node29 -->
<g id="edge49_Node000001_Node000029" class="edge">
<title>Node1&#45;&gt;Node29</title>
<g id="a_edge49_Node000001_Node000029"><a xlink:title=" ">
<path fill="none" stroke="#63b8ff" d="M901.18,-337.47C1142.8,-334.36 1752.35,-322.73 1952,-283 1955.01,-282.4 1958.09,-281.61 1961.15,-280.72"/>
<polygon fill="#63b8ff" stroke="#63b8ff" points="1962.28,-284.03 1970.68,-277.58 1960.09,-277.38 1962.28,-284.03"/>
</a>
</g>
</g>
<!-- Node3 -->
<g id="Node000003" class="node">
<title>Node3</title>
<g id="a_Node000003"><a xlink:title=" ">
<polygon fill="#e0e0e0" stroke="#999999" points="158,-151 28,-151 28,-121 158,-121 158,-151"/>
<text text-anchor="start" x="36" y="-139" font-family="Helvetica,sans-Serif" font-size="10.00">deal.II/base/conditional</text>
<text text-anchor="middle" x="93" y="-128" font-family="Helvetica,sans-Serif" font-size="10.00">_ostream.h</text>
</a>
</g>
</g>
<!-- Node2&#45;&gt;Node3 -->
<g id="edge2_Node000002_Node000003" class="edge">
<title>Node2&#45;&gt;Node3</title>
<g id="a_edge2_Node000002_Node000003"><a xlink:title=" ">
<path fill="none" stroke="#63b8ff" d="M118.68,-186.8C114.66,-179.01 109.58,-169.16 105,-160.28"/>
<polygon fill="#63b8ff" stroke="#63b8ff" points="108,-158.45 100.3,-151.16 101.78,-161.66 108,-158.45"/>
</a>
</g>
</g>
<!-- Node2&#45;&gt;Node4 -->
<g id="edge3_Node000002_Node000004" class="edge">
<title>Node2&#45;&gt;Node4</title>
<g id="a_edge3_Node000002_Node000004"><a xlink:title=" ">
<path fill="none" stroke="#63b8ff" d="M139.29,-186.9C147.9,-177.28 158.97,-163.98 167,-151 191.59,-111.24 172.5,-82.92 210,-55 252.83,-23.1 402.93,-14.06 488.34,-11.5"/>
<polygon fill="#63b8ff" stroke="#63b8ff" points="488.53,-15 498.43,-11.22 488.33,-8 488.53,-15"/>
</a>
</g>
</g>
<!-- Node5&#45;&gt;Node4 -->
<g id="edge13_Node000005_Node000004" class="edge">
<title>Node5&#45;&gt;Node4</title>
<g id="a_edge13_Node000005_Node000004"><a xlink:title=" ">
<path fill="none" stroke="#63b8ff" d="M393.43,-195.23C328.72,-187.03 249.92,-167.44 281,-121 327.04,-52.22 424.52,-26.21 488.36,-16.4"/>
<polygon fill="#63b8ff" stroke="#63b8ff" points="488.9,-19.86 498.3,-14.96 487.9,-12.93 488.9,-19.86"/>
</a>
</g>
</g>
<!-- Node6 -->
<g id="Node000006" class="node">
<title>Node6</title>
<g id="a_Node000006"><a xlink:title=" ">
<polygon fill="#e0e0e0" stroke="#999999" points="428,-145.5 290,-145.5 290,-126.5 428,-126.5 428,-145.5"/>
<text text-anchor="middle" x="359" y="-133.5" font-family="Helvetica,sans-Serif" font-size="10.00">deal.II/base/exceptions.h</text>
</a>
</g>
</g>
<!-- Node5&#45;&gt;Node6 -->
<g id="edge5_Node000005_Node000006" class="edge">
<title>Node5&#45;&gt;Node6</title>
<g id="a_edge5_Node000005_Node000006"><a xlink:title=" ">
<path fill="none" stroke="#63b8ff" d="M453.3,-192.37C435.18,-181.73 404.15,-163.51 382.66,-150.89"/>
<polygon fill="#63b8ff" stroke="#63b8ff" points="384.21,-147.74 373.82,-145.7 380.67,-153.78 384.21,-147.74"/>
</a>
</g>
</g>
<!-- Node7 -->
<g id="Node000007" class="node">
<title>Node7</title>
<g id="a_Node000007"><a xlink:href="types_8h.html" target="_top" xlink:title=" ">
<polygon fill="white" stroke="#666666" points="644,-145.5 522,-145.5 522,-126.5 644,-126.5 644,-145.5"/>
<text text-anchor="middle" x="583" y="-133.5" font-family="Helvetica,sans-Serif" font-size="10.00">prismspf/core/types.h</text>
</a>
</g>
</g>
<!-- Node5&#45;&gt;Node7 -->
<g id="edge6_Node000005_Node000007" class="edge">
<title>Node5&#45;&gt;Node7</title>
<g id="a_edge6_Node000005_Node000007"><a xlink:title=" ">
<path fill="none" stroke="#63b8ff" d="M483.51,-192.37C502.71,-181.68 535.66,-163.35 558.35,-150.72"/>
<polygon fill="#63b8ff" stroke="#63b8ff" points="560.33,-153.62 567.37,-145.7 556.93,-147.5 560.33,-153.62"/>
</a>
</g>
</g>
<!-- Node7&#45;&gt;Node4 -->
<g id="edge11_Node000007_Node000004" class="edge">
<title>Node7&#45;&gt;Node4</title>
<g id="a_edge11_Node000007_Node000004"><a xlink:title=" ">
<path fill="none" stroke="#63b8ff" d="M580.66,-126.44C575.2,-106.45 561.51,-56.32 554.05,-28.98"/>
<polygon fill="#63b8ff" stroke="#63b8ff" points="557.36,-27.84 551.35,-19.12 550.61,-29.69 557.36,-27.84"/>
</a>
</g>
</g>
<!-- Node8 -->
<g id="Node000008" class="node">
<title>Node8</title>
<g id="a_Node000008"><a xlink:href="type__enums_8h.html" target="_top" xlink:title=" ">
<polygon fill="white" stroke="#666666" points="756,-85 648,-85 648,-55 756,-55 756,-85"/>
<text text-anchor="start" x="656" y="-73" font-family="Helvetica,sans-Serif" font-size="10.00">prismspf/core/type</text>
<text text-anchor="middle" x="702" y="-62" font-family="Helvetica,sans-Serif" font-size="10.00">_enums.h</text>
</a>
</g>
</g>
<!-- Node7&#45;&gt;Node8 -->
<g id="edge7_Node000007_Node000008" class="edge">
<title>Node7&#45;&gt;Node8</title>
<g id="a_edge7_Node000007_Node000008"><a xlink:title=" ">
<path fill="none" stroke="#63b8ff" d="M599.05,-126.37C616.33,-117.07 644.38,-101.99 666.83,-89.91"/>
<polygon fill="#63b8ff" stroke="#63b8ff" points="668.6,-92.93 675.75,-85.12 665.29,-86.77 668.6,-92.93"/>
</a>
</g>
</g>
<!-- Node11 -->
<g id="Node000011" class="node">
<title>Node11</title>
<g id="a_Node000011"><a xlink:title=" ">
<polygon fill="#e0e0e0" stroke="#999999" points="541.5,-79.5 496.5,-79.5 496.5,-60.5 541.5,-60.5 541.5,-79.5"/>
<text text-anchor="middle" x="519" y="-67.5" font-family="Helvetica,sans-Serif" font-size="10.00">utility</text>
</a>
</g>
</g>
<!-- Node7&#45;&gt;Node11 -->
<g id="edge12_Node000007_Node000011" class="edge">
<title>Node7&#45;&gt;Node11</title>
<g id="a_edge12_Node000007_Node000011"><a xlink:title=" ">
<path fill="none" stroke="#63b8ff" d="M574.37,-126.37C564.31,-116.31 547.48,-99.48 535.01,-87.01"/>
<polygon fill="#63b8ff" stroke="#63b8ff" points="537.45,-84.5 527.91,-79.91 532.5,-89.45 537.45,-84.5"/>
</a>
</g>
</g>
<!-- Node8&#45;&gt;Node4 -->
<g id="edge8_Node000008_Node000004" class="edge">
<title>Node8&#45;&gt;Node4</title>
<g id="a_edge8_Node000008_Node000004"><a xlink:title=" ">
<path fill="none" stroke="#63b8ff" d="M665.35,-54.99C639.71,-45.18 605.78,-32.21 581.18,-22.81"/>
<polygon fill="#63b8ff" stroke="#63b8ff" points="582.19,-19.44 571.59,-19.14 579.69,-25.98 582.19,-19.44"/>
</a>
</g>
</g>
<!-- Node9 -->
<g id="Node000009" class="node">
<title>Node9</title>
<g id="a_Node000009"><a xlink:title=" ">
<polygon fill="#e0e0e0" stroke="#999999" points="727,-19 677,-19 677,0 727,0 727,-19"/>
<text text-anchor="middle" x="702" y="-7" font-family="Helvetica,sans-Serif" font-size="10.00">cstdint</text>
</a>
</g>
</g>
<!-- Node8&#45;&gt;Node9 -->
<g id="edge9_Node000008_Node000009" class="edge">
<title>Node8&#45;&gt;Node9</title>
<g id="a_edge9_Node000008_Node000009"><a xlink:title=" ">
<path fill="none" stroke="#63b8ff" d="M702,-54.84C702,-47.21 702,-37.7 702,-29.45"/>
<polygon fill="#63b8ff" stroke="#63b8ff" points="705.5,-29.27 702,-19.27 698.5,-29.27 705.5,-29.27"/>
</a>
</g>
</g>
<!-- Node8&#45;&gt;Node10 -->
<g id="edge10_Node000008_Node000010" class="edge">
<title>Node8&#45;&gt;Node10</title>
<g id="a_edge10_Node000008_Node000010"><a xlink:title=" ">
<path fill="none" stroke="#63b8ff" d="M756.12,-63.71C784.39,-60.99 819.55,-57.7 851,-55 1056.18,-37.37 1303.1,-19.14 1389.93,-12.82"/>
<polygon fill="#63b8ff" stroke="#63b8ff" points="1390.22,-16.31 1399.94,-12.09 1389.72,-9.33 1390.22,-16.31"/>
</a>
</g>
</g>
<!-- Node12&#45;&gt;Node2 -->
<g id="edge15_Node000012_Node000002" class="edge">
<title>Node12&#45;&gt;Node2</title>
<g id="a_edge15_Node000012_Node000002"><a xlink:title=" ">
<path fill="none" stroke="#63b8ff" d="M390.71,-253.27C336.43,-242.96 262.12,-228.85 206.05,-218.2"/>
<polygon fill="#63b8ff" stroke="#63b8ff" points="206.63,-214.75 196.16,-216.32 205.33,-221.63 206.63,-214.75"/>
</a>
</g>
</g>
<!-- Node12&#45;&gt;Node4 -->
<g id="edge27_Node000012_Node000004" class="edge">
<title>Node12&#45;&gt;Node4</title>
<g id="a_edge27_Node000012_Node000004"><a xlink:title=" ">
<path fill="none" stroke="#63b8ff" d="M409.12,-252.99C345.46,-233.07 250.44,-191 270,-121 279.23,-87.96 281.79,-74.51 310,-55 338.22,-35.48 427.01,-22.81 488.04,-16.16"/>
<polygon fill="#63b8ff" stroke="#63b8ff" points="488.76,-19.6 498.33,-15.06 488.02,-12.64 488.76,-19.6"/>
</a>
</g>
</g>
<!-- Node12&#45;&gt;Node13 -->
<g id="edge16_Node000012_Node000013" class="edge">
<title>Node12&#45;&gt;Node13</title>
<g id="a_edge16_Node000012_Node000013"><a xlink:title=" ">
<path fill="none" stroke="#63b8ff" d="M516.55,-252.95C554.05,-243.12 604.32,-229.93 643.79,-219.58"/>
<polygon fill="#63b8ff" stroke="#63b8ff" points="644.79,-222.93 653.58,-217.01 643.02,-216.16 644.79,-222.93"/>
</a>
</g>
</g>
<!-- Node13&#45;&gt;Node4 -->
<g id="edge21_Node000013_Node000004" class="edge">
<title>Node13&#45;&gt;Node4</title>
<g id="a_edge21_Node000013_Node000004"><a xlink:title=" ">
<path fill="none" stroke="#63b8ff" d="M643.91,-193.37C590.48,-185.59 519.55,-171.7 500,-151 470.48,-119.74 468.52,-93.33 488,-55 494.77,-41.68 507.6,-31.41 519.75,-24.1"/>
<polygon fill="#63b8ff" stroke="#63b8ff" points="521.75,-26.99 528.8,-19.09 518.36,-20.87 521.75,-26.99"/>
</a>
</g>
</g>
<!-- Node13&#45;&gt;Node6 -->
<g id="edge17_Node000013_Node000006" class="edge">
<title>Node13&#45;&gt;Node6</title>
<g id="a_edge17_Node000013_Node000006"><a xlink:title=" ">
<path fill="none" stroke="#63b8ff" d="M643.98,-189.41C578.86,-177.43 478.13,-158.91 415.51,-147.39"/>
<polygon fill="#63b8ff" stroke="#63b8ff" points="415.89,-143.9 405.42,-145.54 414.62,-150.79 415.89,-143.9"/>
</a>
</g>
</g>
<!-- Node13&#45;&gt;Node7 -->
<g id="edge20_Node000013_Node000007" class="edge">
<title>Node13&#45;&gt;Node7</title>
<g id="a_edge20_Node000013_Node000007"><a xlink:title=" ">
<path fill="none" stroke="#63b8ff" d="M679.79,-186.95C658.52,-175.98 629.18,-160.83 608.39,-150.11"/>
<polygon fill="#63b8ff" stroke="#63b8ff" points="609.99,-146.99 599.5,-145.52 606.78,-153.21 609.99,-146.99"/>
</a>
</g>
</g>
<!-- Node13&#45;&gt;Node8 -->
<g id="edge19_Node000013_Node000008" class="edge">
<title>Node13&#45;&gt;Node8</title>
<g id="a_edge19_Node000013_Node000008"><a xlink:title=" ">
<path fill="none" stroke="#63b8ff" d="M737.46,-186.94C751.62,-178.66 767.06,-166.69 775,-151 781.02,-139.1 781.22,-132.79 775,-121 768.26,-108.21 756.6,-98.06 744.55,-90.34"/>
<polygon fill="#63b8ff" stroke="#63b8ff" points="746.17,-87.23 735.78,-85.15 742.6,-93.26 746.17,-87.23"/>
</a>
</g>
</g>
<!-- Node13&#45;&gt;Node10 -->
<g id="edge24_Node000013_Node000010" class="edge">
<title>Node13&#45;&gt;Node10</title>
<g id="a_edge24_Node000013_Node000010"><a xlink:title=" ">
<path fill="none" stroke="#63b8ff" d="M730.3,-186.9C764.44,-166.44 826.65,-129.98 851,-121 1047.65,-48.45 1300.84,-20.9 1389.56,-13.08"/>
<polygon fill="#63b8ff" stroke="#63b8ff" points="1390.13,-16.54 1399.79,-12.2 1389.53,-9.57 1390.13,-16.54"/>
</a>
</g>
</g>
<!-- Node13&#45;&gt;Node11 -->
<g id="edge25_Node000013_Node000011" class="edge">
<title>Node13&#45;&gt;Node11</title>
<g id="a_edge25_Node000013_Node000011"><a xlink:title=" ">
<path fill="none" stroke="#63b8ff" d="M643.98,-193.14C593.69,-185.42 529.09,-171.76 513,-151 499.43,-133.5 505.03,-106.87 511.23,-89.21"/>
<polygon fill="#63b8ff" stroke="#63b8ff" points="514.63,-90.13 514.99,-79.54 508.1,-87.59 514.63,-90.13"/>
</a>
</g>
</g>
<!-- Node14 -->
<g id="Node000014" class="node">
<title>Node14</title>
<g id="a_Node000014"><a xlink:title=" ">
<polygon fill="#e0e0e0" stroke="#999999" points="1019.5,-151 910.5,-151 910.5,-121 1019.5,-121 1019.5,-151"/>
<text text-anchor="start" x="918.5" y="-139" font-family="Helvetica,sans-Serif" font-size="10.00">deal.II/matrix_free</text>
<text text-anchor="middle" x="965" y="-128" font-family="Helvetica,sans-Serif" font-size="10.00">/evaluation_flags.h</text>
</a>
</g>
</g>
<!-- Node13&#45;&gt;Node14 -->
<g id="edge18_Node000013_Node000014" class="edge">
<title>Node13&#45;&gt;Node14</title>
<g id="a_edge18_Node000013_Node000014"><a xlink:title=" ">
<path fill="none" stroke="#63b8ff" d="M763.62,-186.95C803.99,-176.94 858.35,-163.46 900.42,-153.02"/>
<polygon fill="#63b8ff" stroke="#63b8ff" points="901.42,-156.38 910.28,-150.57 899.73,-149.58 901.42,-156.38"/>
</a>
</g>
</g>
<!-- Node15 -->
<g id="Node000015" class="node">
<title>Node15</title>
<g id="a_Node000015"><a xlink:title=" ">
<polygon fill="#e0e0e0" stroke="#999999" points="700,-145.5 662,-145.5 662,-126.5 700,-126.5 700,-145.5"/>
<text text-anchor="middle" x="681" y="-133.5" font-family="Helvetica,sans-Serif" font-size="10.00">map</text>
</a>
</g>
</g>
<!-- Node13&#45;&gt;Node15 -->
<g id="edge22_Node000013_Node000015" class="edge">
<title>Node13&#45;&gt;Node15</title>
<g id="a_edge22_Node000013_Node000015"><a xlink:title=" ">
<path fill="none" stroke="#63b8ff" d="M701.23,-186.8C697.45,-177.5 692.49,-165.27 688.42,-155.26"/>
<polygon fill="#63b8ff" stroke="#63b8ff" points="691.6,-153.79 684.59,-145.84 685.11,-156.43 691.6,-153.79"/>
</a>
</g>
</g>
<!-- Node13&#45;&gt;Node16 -->
<g id="edge23_Node000013_Node000016" class="edge">
<title>Node13&#45;&gt;Node16</title>
<g id="a_edge23_Node000013_Node000016"><a xlink:title=" ">
<path fill="none" stroke="#63b8ff" d="M749.04,-187C776.81,-177.47 813.87,-164.24 846,-151 847.57,-150.35 849.18,-149.67 850.79,-148.96"/>
<polygon fill="#63b8ff" stroke="#63b8ff" points="852.26,-152.14 859.93,-144.83 849.37,-145.76 852.26,-152.14"/>
</a>
</g>
</g>
<!-- Node17 -->
<g id="Node000017" class="node">
<title>Node17</title>
<g id="a_Node000017"><a xlink:title=" ">
<polygon fill="#e0e0e0" stroke="#999999" points="765.5,-145.5 718.5,-145.5 718.5,-126.5 765.5,-126.5 765.5,-145.5"/>
<text text-anchor="middle" x="742" y="-133.5" font-family="Helvetica,sans-Serif" font-size="10.00">vector</text>
</a>
</g>
</g>
<!-- Node13&#45;&gt;Node17 -->
<g id="edge26_Node000013_Node000017" class="edge">
<title>Node13&#45;&gt;Node17</title>
<g id="a_edge26_Node000013_Node000017"><a xlink:title=" ">
<path fill="none" stroke="#63b8ff" d="M714.77,-186.8C719.96,-177.31 726.82,-164.76 732.36,-154.63"/>
<polygon fill="#63b8ff" stroke="#63b8ff" points="735.44,-156.3 737.16,-145.84 729.29,-152.94 735.44,-156.3"/>
</a>
</g>
</g>
<!-- Node18&#45;&gt;Node4 -->
<g id="edge35_Node000018_Node000004" class="edge">
<title>Node18&#45;&gt;Node4</title>
<g id="a_edge35_Node000018_Node000004"><a xlink:title=" ">
<path fill="none" stroke="#63b8ff" d="M1282.26,-198.47C1227.6,-194.16 1138.23,-182.49 1068,-151 1048.05,-142.05 1049.08,-129.65 1029,-121 935.59,-80.75 896.15,-125.83 803,-85 783.29,-76.36 784.51,-64.08 765,-55 715.57,-31.99 654.29,-20.81 609.65,-15.42"/>
<polygon fill="#63b8ff" stroke="#63b8ff" points="609.86,-11.92 599.53,-14.26 609.07,-18.87 609.86,-11.92"/>
</a>
</g>
</g>
<!-- Node18&#45;&gt;Node14 -->
<g id="edge32_Node000018_Node000014" class="edge">
<title>Node18&#45;&gt;Node14</title>
<g id="a_edge32_Node000018_Node000014"><a xlink:title=" ">
<path fill="none" stroke="#63b8ff" d="M1282.35,-193.2C1223.12,-183.77 1121.17,-167.15 1034,-151 1032.54,-150.73 1031.05,-150.45 1029.56,-150.17"/>
<polygon fill="#63b8ff" stroke="#63b8ff" points="1030.06,-146.7 1019.58,-148.25 1028.74,-153.58 1030.06,-146.7"/>
</a>
</g>
</g>
<!-- Node19 -->
<g id="Node000019" class="node">
<title>Node19</title>
<g id="a_Node000019"><a xlink:title=" ">
<polygon fill="#e0e0e0" stroke="#999999" points="1881,-145.5 1771,-145.5 1771,-126.5 1881,-126.5 1881,-145.5"/>
<text text-anchor="middle" x="1826" y="-133.5" font-family="Helvetica,sans-Serif" font-size="10.00">deal.II/base/point.h</text>
</a>
</g>
</g>
<!-- Node18&#45;&gt;Node19 -->
<g id="edge29_Node000018_Node000019" class="edge">
<title>Node18&#45;&gt;Node19</title>
<g id="a_edge29_Node000018_Node000019"><a xlink:title=" ">
<path fill="none" stroke="#63b8ff" d="M1381.56,-196.85C1461.81,-189.78 1625.05,-173.88 1762,-151 1767.82,-150.03 1773.91,-148.87 1779.92,-147.65"/>
<polygon fill="#63b8ff" stroke="#63b8ff" points="1780.84,-151.04 1789.91,-145.55 1779.4,-144.19 1780.84,-151.04"/>
</a>
</g>
</g>
<!-- Node20 -->
<g id="Node000020" class="node">
<title>Node20</title>
<g id="a_Node000020"><a xlink:title=" ">
<polygon fill="#e0e0e0" stroke="#999999" points="1346.5,-145.5 1231.5,-145.5 1231.5,-126.5 1346.5,-126.5 1346.5,-145.5"/>
<text text-anchor="middle" x="1289" y="-133.5" font-family="Helvetica,sans-Serif" font-size="10.00">deal.II/base/tensor.h</text>
</a>
</g>
</g>
<!-- Node18&#45;&gt;Node20 -->
<g id="edge30_Node000018_Node000020" class="edge">
<title>Node18&#45;&gt;Node20</title>
<g id="a_edge30_Node000018_Node000020"><a xlink:title=" ">
<path fill="none" stroke="#63b8ff" d="M1322.46,-186.8C1316.02,-177.21 1307.48,-164.5 1300.64,-154.32"/>
<polygon fill="#63b8ff" stroke="#63b8ff" points="1303.42,-152.19 1294.94,-145.84 1297.61,-156.1 1303.42,-152.19"/>
</a>
</g>
</g>
<!-- Node21 -->
<g id="Node000021" class="node">
<title>Node21</title>
<g id="a_Node000021"><a xlink:title=" ">
<polygon fill="#e0e0e0" stroke="#999999" points="1334.5,-79.5 1185.5,-79.5 1185.5,-60.5 1334.5,-60.5 1334.5,-79.5"/>
<text text-anchor="middle" x="1260" y="-67.5" font-family="Helvetica,sans-Serif" font-size="10.00">deal.II/base/vectorization.h</text>
</a>
</g>
</g>
<!-- Node18&#45;&gt;Node21 -->
<g id="edge31_Node000018_Node000021" class="edge">
<title>Node18&#45;&gt;Node21</title>
<g id="a_edge31_Node000018_Node000021"><a xlink:title=" ">
<path fill="none" stroke="#63b8ff" d="M1342.84,-186.82C1354.18,-170.11 1368.71,-141.95 1356,-121 1344.83,-102.58 1324.41,-90.63 1305.27,-83.05"/>
<polygon fill="#63b8ff" stroke="#63b8ff" points="1306.32,-79.71 1295.73,-79.58 1303.93,-86.29 1306.32,-79.71"/>
</a>
</g>
</g>
<!-- Node22 -->
<g id="Node000022" class="node">
<title>Node22</title>
<g id="a_Node000022"><a xlink:title=" ">
<polygon fill="#e0e0e0" stroke="#999999" points="1549,-145.5 1403,-145.5 1403,-126.5 1549,-126.5 1549,-145.5"/>
<text text-anchor="middle" x="1476" y="-133.5" font-family="Helvetica,sans-Serif" font-size="10.00">boost/range/algorithm.hpp</text>
</a>
</g>
</g>
<!-- Node18&#45;&gt;Node22 -->
<g id="edge33_Node000018_Node000022" class="edge">
<title>Node18&#45;&gt;Node22</title>
<g id="a_edge33_Node000018_Node000022"><a xlink:title=" ">
<path fill="none" stroke="#63b8ff" d="M1363.6,-186.95C1388.63,-175.83 1423.3,-160.42 1447.49,-149.67"/>
<polygon fill="#63b8ff" stroke="#63b8ff" points="1449.12,-152.78 1456.84,-145.52 1446.28,-146.38 1449.12,-152.78"/>
</a>
</g>
</g>
<!-- Node23 -->
<g id="Node000023" class="node">
<title>Node23</title>
<g id="a_Node000023"><a xlink:title=" ">
<polygon fill="#e0e0e0" stroke="#999999" points="1692.5,-151 1567.5,-151 1567.5,-121 1692.5,-121 1692.5,-151"/>
<text text-anchor="start" x="1575.5" y="-139" font-family="Helvetica,sans-Serif" font-size="10.00">boost/range/algorithm</text>
<text text-anchor="middle" x="1630" y="-128" font-family="Helvetica,sans-Serif" font-size="10.00">_ext.hpp</text>
</a>
</g>
</g>
<!-- Node18&#45;&gt;Node23 -->
<g id="edge34_Node000018_Node000023" class="edge">
<title>Node18&#45;&gt;Node23</title>
<g id="a_edge34_Node000018_Node000023"><a xlink:title=" ">
<path fill="none" stroke="#63b8ff" d="M1381.54,-190.36C1429.53,-180.05 1502.85,-164.31 1557.42,-152.59"/>
<polygon fill="#63b8ff" stroke="#63b8ff" points="1558.34,-155.97 1567.38,-150.45 1556.87,-149.13 1558.34,-155.97"/>
</a>
</g>
</g>
<!-- Node24 -->
<g id="Node000024" class="node">
<title>Node24</title>
<g id="a_Node000024"><a xlink:title=" ">
<polygon fill="#e0e0e0" stroke="#999999" points="1753,-145.5 1711,-145.5 1711,-126.5 1753,-126.5 1753,-145.5"/>
<text text-anchor="middle" x="1732" y="-133.5" font-family="Helvetica,sans-Serif" font-size="10.00">array</text>
</a>
</g>
</g>
<!-- Node18&#45;&gt;Node24 -->
<g id="edge36_Node000018_Node000024" class="edge">
<title>Node18&#45;&gt;Node24</title>
<g id="a_edge36_Node000018_Node000024"><a xlink:title=" ">
<path fill="none" stroke="#63b8ff" d="M1381.77,-199.04C1453.75,-195.13 1590.51,-183.72 1702,-151 1703.45,-150.58 1704.91,-150.09 1706.38,-149.56"/>
<polygon fill="#63b8ff" stroke="#63b8ff" points="1707.95,-152.7 1715.84,-145.63 1705.27,-146.23 1707.95,-152.7"/>
</a>
</g>
</g>
<!-- Node25 -->
<g id="Node000025" class="node">
<title>Node25</title>
<g id="a_Node000025"><a xlink:href="vectorized__operations_8h.html" target="_top" xlink:title=" ">
<polygon fill="white" stroke="#666666" points="1213.5,-151 1076.5,-151 1076.5,-121 1213.5,-121 1213.5,-151"/>
<text text-anchor="start" x="1084.5" y="-139" font-family="Helvetica,sans-Serif" font-size="10.00">prismspf/utilities</text>
<text text-anchor="middle" x="1145" y="-128" font-family="Helvetica,sans-Serif" font-size="10.00">/vectorized_operations.h</text>
</a>
</g>
</g>
<!-- Node18&#45;&gt;Node25 -->
<g id="edge37_Node000018_Node000025" class="edge">
<title>Node18&#45;&gt;Node25</title>
<g id="a_edge37_Node000018_Node000025"><a xlink:title=" ">
<path fill="none" stroke="#63b8ff" d="M1290.96,-186.95C1262.95,-177.37 1225.65,-164.6 1195.77,-154.37"/>
<polygon fill="#63b8ff" stroke="#63b8ff" points="1196.54,-150.94 1185.94,-151.01 1194.27,-157.56 1196.54,-150.94"/>
</a>
</g>
</g>
<!-- Node25&#45;&gt;Node4 -->
<g id="edge39_Node000025_Node000004" class="edge">
<title>Node25&#45;&gt;Node4</title>
<g id="a_edge39_Node000025_Node000004"><a xlink:title=" ">
<path fill="none" stroke="#63b8ff" d="M1089.23,-120.93C1021.71,-104.14 904.41,-75.73 803,-55 737.21,-41.55 661.31,-28.59 609.74,-20.15"/>
<polygon fill="#63b8ff" stroke="#63b8ff" points="610.19,-16.68 599.76,-18.53 609.07,-23.59 610.19,-16.68"/>
</a>
</g>
</g>
<!-- Node25&#45;&gt;Node21 -->
<g id="edge38_Node000025_Node000021" class="edge">
<title>Node25&#45;&gt;Node21</title>
<g id="a_edge38_Node000025_Node000021"><a xlink:title=" ">
<path fill="none" stroke="#63b8ff" d="M1170.24,-120.95C1189.78,-110.08 1216.68,-95.11 1235.93,-84.4"/>
<polygon fill="#63b8ff" stroke="#63b8ff" points="1237.66,-87.44 1244.7,-79.52 1234.26,-81.32 1237.66,-87.44"/>
</a>
</g>
</g>
<!-- Node26&#45;&gt;Node4 -->
<g id="edge44_Node000026_Node000004" class="edge">
<title>Node26&#45;&gt;Node4</title>
<g id="a_edge44_Node000026_Node000004"><a xlink:title=" ">
<path fill="none" stroke="#63b8ff" d="M1973.16,-186.88C1956.65,-168.27 1924.8,-136.13 1890,-121 1640.09,-12.36 939.97,-35.95 668,-19 649.08,-17.82 628.47,-16.4 609.8,-15.06"/>
<polygon fill="#63b8ff" stroke="#63b8ff" points="609.88,-11.55 599.65,-14.32 609.37,-18.53 609.88,-11.55"/>
</a>
</g>
</g>
<!-- Node26&#45;&gt;Node7 -->
<g id="edge43_Node000026_Node000007" class="edge">
<title>Node26&#45;&gt;Node7</title>
<g id="a_edge43_Node000026_Node000007"><a xlink:title=" ">
<path fill="none" stroke="#63b8ff" d="M1928.31,-199.41C1690.61,-192.66 780.69,-166.07 653,-151 645.47,-150.11 637.54,-148.85 629.83,-147.44"/>
<polygon fill="#63b8ff" stroke="#63b8ff" points="630.36,-143.98 619.88,-145.52 629.04,-150.85 630.36,-143.98"/>
</a>
</g>
</g>
<!-- Node26&#45;&gt;Node10 -->
<g id="edge47_Node000026_Node000010" class="edge">
<title>Node26&#45;&gt;Node10</title>
<g id="a_edge47_Node000026_Node000010"><a xlink:title=" ">
<path fill="none" stroke="#63b8ff" d="M1987.69,-186.78C1992.36,-157.27 1998.19,-89.31 1961,-55 1923.72,-20.61 1565.45,-12.57 1454.55,-10.9"/>
<polygon fill="#63b8ff" stroke="#63b8ff" points="1454.36,-7.4 1444.32,-10.75 1454.26,-14.4 1454.36,-7.4"/>
</a>
</g>
</g>
<!-- Node26&#45;&gt;Node19 -->
<g id="edge42_Node000026_Node000019" class="edge">
<title>Node26&#45;&gt;Node19</title>
<g id="a_edge42_Node000026_Node000019"><a xlink:title=" ">
<path fill="none" stroke="#63b8ff" d="M1950.11,-186.95C1922.22,-175.73 1883.51,-160.15 1856.77,-149.39"/>
<polygon fill="#63b8ff" stroke="#63b8ff" points="1857.74,-146 1847.16,-145.52 1855.13,-152.5 1857.74,-146"/>
</a>
</g>
</g>
<!-- Node27 -->
<g id="Node000027" class="node">
<title>Node27</title>
<g id="a_Node000027"><a xlink:title=" ">
<polygon fill="#e0e0e0" stroke="#999999" points="2057,-145.5 2013,-145.5 2013,-126.5 2057,-126.5 2057,-145.5"/>
<text text-anchor="middle" x="2035" y="-133.5" font-family="Helvetica,sans-Serif" font-size="10.00">mpi.h</text>
</a>
</g>
</g>
<!-- Node26&#45;&gt;Node27 -->
<g id="edge45_Node000026_Node000027" class="edge">
<title>Node26&#45;&gt;Node27</title>
<g id="a_edge45_Node000026_Node000027"><a xlink:title=" ">
<path fill="none" stroke="#63b8ff" d="M1996.1,-186.8C2003.66,-177.11 2013.72,-164.24 2021.71,-154.01"/>
<polygon fill="#63b8ff" stroke="#63b8ff" points="2024.69,-155.88 2028.09,-145.84 2019.18,-151.57 2024.69,-155.88"/>
</a>
</g>
</g>
<!-- Node28 -->
<g id="Node000028" class="node">
<title>Node28</title>
<g id="a_Node000028"><a xlink:title=" ">
<polygon fill="#e0e0e0" stroke="#999999" points="2132.5,-145.5 2075.5,-145.5 2075.5,-126.5 2132.5,-126.5 2132.5,-145.5"/>
<text text-anchor="middle" x="2104" y="-133.5" font-family="Helvetica,sans-Serif" font-size="10.00">ostream</text>
</a>
</g>
</g>
<!-- Node26&#45;&gt;Node28 -->
<g id="edge46_Node000026_Node000028" class="edge">
<title>Node26&#45;&gt;Node28</title>
<g id="a_edge46_Node000026_Node000028"><a xlink:title=" ">
<path fill="none" stroke="#63b8ff" d="M2011.12,-186.95C2031.34,-176.08 2059.18,-161.11 2079.09,-150.4"/>
<polygon fill="#63b8ff" stroke="#63b8ff" points="2081.01,-153.34 2088.16,-145.52 2077.7,-147.17 2081.01,-153.34"/>
</a>
</g>
</g>
</g>
</svg>
