<?xml version="1.0" encoding="UTF-8" standalone="no"?>
<!DOCTYPE svg PUBLIC "-//W3C//DTD SVG 1.1//EN"
 "http://www.w3.org/Graphics/SVG/1.1/DTD/svg11.dtd">
<!-- Generated by graphviz version 2.43.0 (0)
 -->
<!-- Title: /home/runner/work/phaseField/phaseField/include/prismspf/nucleation/nucleus_refinement_function.h Pages: 1 -->
<svg width="2530pt" height="445pt"
 viewBox="0.00 0.00 2529.94 445.00" xmlns="http://www.w3.org/2000/svg" xmlns:xlink="http://www.w3.org/1999/xlink">
<g id="graph0" class="graph" transform="scale(1 1) rotate(0) translate(4 441)">
<title>/home/runner/work/phaseField/phaseField/include/prismspf/nucleation/nucleus_refinement_function.h</title>
<!-- Node1 -->
<g id="Node000001" class="node">
<title>Node1</title>
<g id="a_Node000001"><a xlink:title=" ">
<polygon fill="#999999" stroke="#666666" points="806.94,-437 636.94,-437 636.94,-385 806.94,-385 806.94,-437"/>
<text text-anchor="start" x="644.94" y="-425" font-family="Helvetica,sans-Serif" font-size="10.00">/home/runner/work/phaseField</text>
<text text-anchor="start" x="644.94" y="-414" font-family="Helvetica,sans-Serif" font-size="10.00">/phaseField/include/prismspf</text>
<text text-anchor="start" x="644.94" y="-403" font-family="Helvetica,sans-Serif" font-size="10.00">/nucleation/nucleus_refinement</text>
<text text-anchor="middle" x="721.94" y="-392" font-family="Helvetica,sans-Serif" font-size="10.00">_function.h</text>
</a>
</g>
</g>
<!-- Node2 -->
<g id="Node000002" class="node">
<title>Node2</title>
<g id="a_Node000002"><a xlink:title=" ">
<polygon fill="#e0e0e0" stroke="#999999" points="141.44,-283 20.44,-283 20.44,-253 141.44,-253 141.44,-283"/>
<text text-anchor="start" x="28.44" y="-271" font-family="Helvetica,sans-Serif" font-size="10.00">deal.II/base/bounding</text>
<text text-anchor="middle" x="80.94" y="-260" font-family="Helvetica,sans-Serif" font-size="10.00">_box.h</text>
</a>
</g>
</g>
<!-- Node1&#45;&gt;Node2 -->
<g id="edge1_Node000001_Node000002" class="edge">
<title>Node1&#45;&gt;Node2</title>
<g id="a_edge1_Node000001_Node000002"><a xlink:title=" ">
<path fill="none" stroke="#63b8ff" d="M636.89,-402.76C551.34,-394.29 416.11,-377.64 301.94,-349 237.92,-332.94 166.56,-305.23 122.71,-287.01"/>
<polygon fill="#63b8ff" stroke="#63b8ff" points="123.82,-283.68 113.24,-283.05 121.11,-290.14 123.82,-283.68"/>
</a>
</g>
</g>
<!-- Node3 -->
<g id="Node000003" class="node">
<title>Node3</title>
<g id="a_Node000003"><a xlink:title=" ">
<polygon fill="#e0e0e0" stroke="#999999" points="295.94,-145.5 185.94,-145.5 185.94,-126.5 295.94,-126.5 295.94,-145.5"/>
<text text-anchor="middle" x="240.94" y="-133.5" font-family="Helvetica,sans-Serif" font-size="10.00">deal.II/base/point.h</text>
</a>
</g>
</g>
<!-- Node1&#45;&gt;Node3 -->
<g id="edge2_Node000001_Node000003" class="edge">
<title>Node1&#45;&gt;Node3</title>
<g id="a_edge2_Node000001_Node000003"><a xlink:title=" ">
<path fill="none" stroke="#63b8ff" d="M636.87,-408.85C464.19,-404.41 82.84,-383.24 10.94,-283 -40.32,-211.54 104.23,-166.86 187.18,-147.76"/>
<polygon fill="#63b8ff" stroke="#63b8ff" points="187.98,-151.17 196.97,-145.56 186.45,-144.34 187.98,-151.17"/>
</a>
</g>
</g>
<!-- Node4 -->
<g id="Node000004" class="node">
<title>Node4</title>
<g id="a_Node000004"><a xlink:title=" ">
<polygon fill="#e0e0e0" stroke="#999999" points="534.94,-277.5 390.94,-277.5 390.94,-258.5 534.94,-258.5 534.94,-277.5"/>
<text text-anchor="middle" x="462.94" y="-265.5" font-family="Helvetica,sans-Serif" font-size="10.00">deal.II/grid/tria_accessor.h</text>
</a>
</g>
</g>
<!-- Node1&#45;&gt;Node4 -->
<g id="edge3_Node000001_Node000004" class="edge">
<title>Node1&#45;&gt;Node4</title>
<g id="a_edge3_Node000001_Node000004"><a xlink:title=" ">
<path fill="none" stroke="#63b8ff" d="M636.54,-387.58C607.58,-378.01 575.78,-365.24 548.94,-349 520.15,-331.58 492.75,-303.38 476.9,-285.54"/>
<polygon fill="#63b8ff" stroke="#63b8ff" points="479.3,-282.96 470.1,-277.7 474.01,-287.55 479.3,-282.96"/>
</a>
</g>
</g>
<!-- Node5 -->
<g id="Node000005" class="node">
<title>Node5</title>
<g id="a_Node000005"><a xlink:href="cell__marker__base_8h.html" target="_top" xlink:title=" ">
<polygon fill="white" stroke="#666666" points="414.94,-349 310.94,-349 310.94,-319 414.94,-319 414.94,-349"/>
<text text-anchor="start" x="318.94" y="-337" font-family="Helvetica,sans-Serif" font-size="10.00">prismspf/core/cell</text>
<text text-anchor="middle" x="362.94" y="-326" font-family="Helvetica,sans-Serif" font-size="10.00">_marker_base.h</text>
</a>
</g>
</g>
<!-- Node1&#45;&gt;Node5 -->
<g id="edge4_Node000001_Node000005" class="edge">
<title>Node1&#45;&gt;Node5</title>
<g id="a_edge4_Node000001_Node000005"><a xlink:title=" ">
<path fill="none" stroke="#63b8ff" d="M636.86,-392.23C571.79,-378.63 483.57,-360.2 425.03,-347.97"/>
<polygon fill="#63b8ff" stroke="#63b8ff" points="425.68,-344.53 415.18,-345.91 424.25,-351.38 425.68,-344.53"/>
</a>
</g>
</g>
<!-- Node7 -->
<g id="Node000007" class="node">
<title>Node7</title>
<g id="a_Node000007"><a xlink:href="temporal__discretization_8h.html" target="_top" xlink:title=" ">
<polygon fill="white" stroke="#666666" points="1123.94,-283 979.94,-283 979.94,-253 1123.94,-253 1123.94,-283"/>
<text text-anchor="start" x="987.94" y="-271" font-family="Helvetica,sans-Serif" font-size="10.00">prismspf/user_inputs</text>
<text text-anchor="middle" x="1051.94" y="-260" font-family="Helvetica,sans-Serif" font-size="10.00">/temporal_discretization.h</text>
</a>
</g>
</g>
<!-- Node1&#45;&gt;Node7 -->
<g id="edge65_Node000001_Node000007" class="edge">
<title>Node1&#45;&gt;Node7</title>
<g id="a_edge65_Node000001_Node000007"><a xlink:title=" ">
<path fill="none" stroke="#63b8ff" d="M807.11,-402.63C859.57,-395.08 926.58,-379.83 978.94,-349 1003.17,-334.74 1024,-309.84 1037.14,-291.6"/>
<polygon fill="#63b8ff" stroke="#63b8ff" points="1040.1,-293.46 1042.95,-283.26 1034.36,-289.46 1040.1,-293.46"/>
</a>
</g>
</g>
<!-- Node10 -->
<g id="Node000010" class="node">
<title>Node10</title>
<g id="a_Node000010"><a xlink:title=" ">
<polygon fill="#e0e0e0" stroke="#999999" points="1327.44,-19 1226.44,-19 1226.44,0 1327.44,0 1327.44,-19"/>
<text text-anchor="middle" x="1276.94" y="-7" font-family="Helvetica,sans-Serif" font-size="10.00">prismspf/config.h</text>
</a>
</g>
</g>
<!-- Node1&#45;&gt;Node10 -->
<g id="edge66_Node000001_Node000010" class="edge">
<title>Node1&#45;&gt;Node10</title>
<g id="a_edge66_Node000001_Node000010"><a xlink:title=" ">
<path fill="none" stroke="#63b8ff" d="M807.02,-407.17C1142.84,-395.45 2357.94,-347.62 2357.94,-269 2357.94,-269 2357.94,-269 2357.94,-135 2357.94,-107 2556.2,-141.06 2175.94,-55 2015.76,-18.75 1512.58,-12.03 1337.62,-10.78"/>
<polygon fill="#63b8ff" stroke="#63b8ff" points="1337.58,-7.28 1327.56,-10.71 1337.53,-14.28 1337.58,-7.28"/>
</a>
</g>
</g>
<!-- Node17 -->
<g id="Node000017" class="node">
<title>Node17</title>
<g id="a_Node000017"><a xlink:href="types_8h.html" target="_top" xlink:title=" ">
<polygon fill="white" stroke="#666666" points="813.94,-145.5 691.94,-145.5 691.94,-126.5 813.94,-126.5 813.94,-145.5"/>
<text text-anchor="middle" x="752.94" y="-133.5" font-family="Helvetica,sans-Serif" font-size="10.00">prismspf/core/types.h</text>
</a>
</g>
</g>
<!-- Node1&#45;&gt;Node17 -->
<g id="edge32_Node000001_Node000017" class="edge">
<title>Node1&#45;&gt;Node17</title>
<g id="a_edge32_Node000001_Node000017"><a xlink:title=" ">
<path fill="none" stroke="#63b8ff" d="M724.8,-384.81C730.95,-330.66 745.31,-204.23 750.78,-156.08"/>
<polygon fill="#63b8ff" stroke="#63b8ff" points="754.29,-156.18 751.94,-145.85 747.33,-155.39 754.29,-156.18"/>
</a>
</g>
</g>
<!-- Node21 -->
<g id="Node000021" class="node">
<title>Node21</title>
<g id="a_Node000021"><a xlink:title=" ">
<polygon fill="#e0e0e0" stroke="#999999" points="1409.44,-145.5 1362.44,-145.5 1362.44,-126.5 1409.44,-126.5 1409.44,-145.5"/>
<text text-anchor="middle" x="1385.94" y="-133.5" font-family="Helvetica,sans-Serif" font-size="10.00">vector</text>
</a>
</g>
</g>
<!-- Node1&#45;&gt;Node21 -->
<g id="edge69_Node000001_Node000021" class="edge">
<title>Node1&#45;&gt;Node21</title>
<g id="a_edge69_Node000001_Node000021"><a xlink:title=" ">
<path fill="none" stroke="#63b8ff" d="M806.95,-394.5C864.6,-383.37 942.32,-367.18 1009.94,-349 1191.95,-300.07 1302.34,-369.61 1412.94,-217 1426.86,-197.8 1412.4,-170.91 1399.87,-153.72"/>
<polygon fill="#63b8ff" stroke="#63b8ff" points="1402.55,-151.47 1393.66,-145.71 1397.02,-155.76 1402.55,-151.47"/>
</a>
</g>
</g>
<!-- Node22 -->
<g id="Node000022" class="node">
<title>Node22</title>
<g id="a_Node000022"><a xlink:href="nucleus_8h.html" target="_top" xlink:title=" ">
<polygon fill="white" stroke="#666666" points="569.44,-217 456.44,-217 456.44,-187 569.44,-187 569.44,-217"/>
<text text-anchor="start" x="464.44" y="-205" font-family="Helvetica,sans-Serif" font-size="10.00">prismspf/nucleation</text>
<text text-anchor="middle" x="512.94" y="-194" font-family="Helvetica,sans-Serif" font-size="10.00">/nucleus.h</text>
</a>
</g>
</g>
<!-- Node1&#45;&gt;Node22 -->
<g id="edge33_Node000001_Node000022" class="edge">
<title>Node1&#45;&gt;Node22</title>
<g id="a_edge33_Node000001_Node000022"><a xlink:title=" ">
<path fill="none" stroke="#63b8ff" d="M641.31,-384.95C621.74,-375.99 602.1,-364.21 586.94,-349 553.94,-315.89 565.86,-294.29 543.94,-253 539.09,-243.86 533.22,-234.12 527.9,-225.69"/>
<polygon fill="#63b8ff" stroke="#63b8ff" points="530.76,-223.67 522.42,-217.14 524.87,-227.45 530.76,-223.67"/>
</a>
</g>
</g>
<!-- Node25 -->
<g id="Node000025" class="node">
<title>Node25</title>
<g id="a_Node000025"><a xlink:href="nucleation__parameters_8h.html" target="_top" xlink:title=" ">
<polygon fill="white" stroke="#666666" points="969.44,-349 828.44,-349 828.44,-319 969.44,-319 969.44,-349"/>
<text text-anchor="start" x="836.44" y="-337" font-family="Helvetica,sans-Serif" font-size="10.00">prismspf/user_inputs</text>
<text text-anchor="middle" x="898.94" y="-326" font-family="Helvetica,sans-Serif" font-size="10.00">/nucleation_parameters.h</text>
</a>
</g>
</g>
<!-- Node1&#45;&gt;Node25 -->
<g id="edge40_Node000001_Node000025" class="edge">
<title>Node1&#45;&gt;Node25</title>
<g id="a_edge40_Node000001_Node000025"><a xlink:title=" ">
<path fill="none" stroke="#63b8ff" d="M781.37,-384.82C805.98,-374.39 833.96,-362.54 856.44,-353.01"/>
<polygon fill="#63b8ff" stroke="#63b8ff" points="857.88,-356.2 865.72,-349.08 855.15,-349.76 857.88,-356.2"/>
</a>
</g>
</g>
<!-- Node35 -->
<g id="Node000035" class="node">
<title>Node35</title>
<g id="a_Node000035"><a xlink:title=" ">
<polygon fill="#e0e0e0" stroke="#999999" points="2445.94,-343.5 2385.94,-343.5 2385.94,-324.5 2445.94,-324.5 2445.94,-343.5"/>
<text text-anchor="middle" x="2415.94" y="-331.5" font-family="Helvetica,sans-Serif" font-size="10.00">iostream</text>
</a>
</g>
</g>
<!-- Node1&#45;&gt;Node35 -->
<g id="edge67_Node000001_Node000035" class="edge">
<title>Node1&#45;&gt;Node35</title>
<g id="a_edge67_Node000001_Node000035"><a xlink:title=" ">
<path fill="none" stroke="#63b8ff" d="M807.1,-409.89C1100.3,-409.04 2066.69,-402.19 2371.94,-349 2375.63,-348.36 2379.44,-347.48 2383.21,-346.48"/>
<polygon fill="#63b8ff" stroke="#63b8ff" points="2384.34,-349.8 2392.94,-343.61 2382.36,-343.08 2384.34,-349.8"/>
</a>
</g>
</g>
<!-- Node36 -->
<g id="Node000036" class="node">
<title>Node36</title>
<g id="a_Node000036"><a xlink:title=" ">
<polygon fill="#e0e0e0" stroke="#999999" points="2521.94,-343.5 2463.94,-343.5 2463.94,-324.5 2521.94,-324.5 2521.94,-343.5"/>
<text text-anchor="middle" x="2492.94" y="-331.5" font-family="Helvetica,sans-Serif" font-size="10.00">memory</text>
</a>
</g>
</g>
<!-- Node1&#45;&gt;Node36 -->
<g id="edge68_Node000001_Node000036" class="edge">
<title>Node1&#45;&gt;Node36</title>
<g id="a_edge68_Node000001_Node000036"><a xlink:title=" ">
<path fill="none" stroke="#63b8ff" d="M806.98,-410.57C1109.73,-412.03 2134.06,-412.07 2454.94,-349 2457.79,-348.44 2460.7,-347.7 2463.59,-346.85"/>
<polygon fill="#63b8ff" stroke="#63b8ff" points="2464.8,-350.13 2473.17,-343.63 2462.57,-343.5 2464.8,-350.13"/>
</a>
</g>
</g>
<!-- Node5&#45;&gt;Node2 -->
<g id="edge5_Node000005_Node000002" class="edge">
<title>Node5&#45;&gt;Node2</title>
<g id="a_edge5_Node000005_Node000002"><a xlink:title=" ">
<path fill="none" stroke="#63b8ff" d="M310.89,-321.19C266.07,-311.02 201,-296.25 151.5,-285.01"/>
<polygon fill="#63b8ff" stroke="#63b8ff" points="152.03,-281.55 141.51,-282.75 150.48,-288.37 152.03,-281.55"/>
</a>
</g>
</g>
<!-- Node5&#45;&gt;Node3 -->
<g id="edge6_Node000005_Node000003" class="edge">
<title>Node5&#45;&gt;Node3</title>
<g id="a_edge6_Node000005_Node000003"><a xlink:title=" ">
<path fill="none" stroke="#63b8ff" d="M354.17,-318.9C332.31,-283.79 275.47,-192.48 251.67,-154.24"/>
<polygon fill="#63b8ff" stroke="#63b8ff" points="254.63,-152.37 246.37,-145.73 248.69,-156.07 254.63,-152.37"/>
</a>
</g>
</g>
<!-- Node5&#45;&gt;Node4 -->
<g id="edge7_Node000005_Node000004" class="edge">
<title>Node5&#45;&gt;Node4</title>
<g id="a_edge7_Node000005_Node000004"><a xlink:title=" ">
<path fill="none" stroke="#63b8ff" d="M385.13,-318.8C401.74,-308.17 424.34,-293.7 440.91,-283.1"/>
<polygon fill="#63b8ff" stroke="#63b8ff" points="442.88,-286 449.41,-277.66 439.1,-280.1 442.88,-286"/>
</a>
</g>
</g>
<!-- Node6 -->
<g id="Node000006" class="node">
<title>Node6</title>
<g id="a_Node000006"><a xlink:title=" ">
<polygon fill="#e0e0e0" stroke="#999999" points="296.44,-277.5 159.44,-277.5 159.44,-258.5 296.44,-258.5 296.44,-277.5"/>
<text text-anchor="middle" x="227.94" y="-265.5" font-family="Helvetica,sans-Serif" font-size="10.00">deal.II/grid/tria_iterator.h</text>
</a>
</g>
</g>
<!-- Node5&#45;&gt;Node6 -->
<g id="edge8_Node000005_Node000006" class="edge">
<title>Node5&#45;&gt;Node6</title>
<g id="a_edge8_Node000005_Node000006"><a xlink:title=" ">
<path fill="none" stroke="#63b8ff" d="M333.32,-318.95C309.95,-307.88 277.64,-292.56 254.98,-281.82"/>
<polygon fill="#63b8ff" stroke="#63b8ff" points="256.44,-278.64 245.91,-277.52 253.44,-284.96 256.44,-278.64"/>
</a>
</g>
</g>
<!-- Node5&#45;&gt;Node7 -->
<g id="edge9_Node000005_Node000007" class="edge">
<title>Node5&#45;&gt;Node7</title>
<g id="a_edge9_Node000005_Node000007"><a xlink:title=" ">
<path fill="none" stroke="#63b8ff" d="M415.25,-328.93C515.69,-321.01 742.47,-302.55 932.94,-283 944.82,-281.78 957.36,-280.4 969.67,-279"/>
<polygon fill="#63b8ff" stroke="#63b8ff" points="970.39,-282.44 979.93,-277.82 969.59,-275.49 970.39,-282.44"/>
</a>
</g>
</g>
<!-- Node5&#45;&gt;Node10 -->
<g id="edge31_Node000005_Node000010" class="edge">
<title>Node5&#45;&gt;Node10</title>
<g id="a_edge31_Node000005_Node000010"><a xlink:title=" ">
<path fill="none" stroke="#63b8ff" d="M359.34,-318.96C350.75,-281.94 333.17,-180.46 380.94,-121 442.75,-44.07 495.91,-73 592.94,-55 820.04,-12.88 1095.96,-9.05 1216.13,-9.66"/>
<polygon fill="#63b8ff" stroke="#63b8ff" points="1216.21,-13.16 1226.24,-9.72 1216.26,-6.16 1216.21,-13.16"/>
</a>
</g>
</g>
<!-- Node8 -->
<g id="Node000008" class="node">
<title>Node8</title>
<g id="a_Node000008"><a xlink:href="conditional__ostreams_8h.html" target="_top" xlink:title=" ">
<polygon fill="white" stroke="#666666" points="1403.94,-217 1263.94,-217 1263.94,-187 1403.94,-187 1403.94,-217"/>
<text text-anchor="start" x="1271.94" y="-205" font-family="Helvetica,sans-Serif" font-size="10.00">prismspf/core/conditional</text>
<text text-anchor="middle" x="1333.94" y="-194" font-family="Helvetica,sans-Serif" font-size="10.00">_ostreams.h</text>
</a>
</g>
</g>
<!-- Node7&#45;&gt;Node8 -->
<g id="edge10_Node000007_Node000008" class="edge">
<title>Node7&#45;&gt;Node8</title>
<g id="a_edge10_Node000007_Node000008"><a xlink:title=" ">
<path fill="none" stroke="#63b8ff" d="M1113.83,-252.95C1157.63,-243.01 1216.5,-229.65 1262.33,-219.25"/>
<polygon fill="#63b8ff" stroke="#63b8ff" points="1263.22,-222.64 1272.2,-217.01 1261.67,-215.81 1263.22,-222.64"/>
</a>
</g>
</g>
<!-- Node7&#45;&gt;Node10 -->
<g id="edge30_Node000007_Node000010" class="edge">
<title>Node7&#45;&gt;Node10</title>
<g id="a_edge30_Node000007_Node000010"><a xlink:title=" ">
<path fill="none" stroke="#63b8ff" d="M1099.29,-252.96C1147.4,-236.3 1220.66,-203.9 1262.94,-151 1291.04,-115.84 1286.03,-58.83 1280.96,-29.41"/>
<polygon fill="#63b8ff" stroke="#63b8ff" points="1284.33,-28.43 1279.01,-19.27 1277.46,-29.75 1284.33,-28.43"/>
</a>
</g>
</g>
<!-- Node11 -->
<g id="Node000011" class="node">
<title>Node11</title>
<g id="a_Node000011"><a xlink:href="variable__attributes_8h.html" target="_top" xlink:title=" ">
<polygon fill="white" stroke="#666666" points="926.94,-217 800.94,-217 800.94,-187 926.94,-187 926.94,-217"/>
<text text-anchor="start" x="808.94" y="-205" font-family="Helvetica,sans-Serif" font-size="10.00">prismspf/core/variable</text>
<text text-anchor="middle" x="863.94" y="-194" font-family="Helvetica,sans-Serif" font-size="10.00">_attributes.h</text>
</a>
</g>
</g>
<!-- Node7&#45;&gt;Node11 -->
<g id="edge13_Node000007_Node000011" class="edge">
<title>Node7&#45;&gt;Node11</title>
<g id="a_edge13_Node000007_Node000011"><a xlink:title=" ">
<path fill="none" stroke="#63b8ff" d="M1010.68,-252.95C982.4,-243.33 944.7,-230.49 914.59,-220.24"/>
<polygon fill="#63b8ff" stroke="#63b8ff" points="915.7,-216.92 905.1,-217.01 913.44,-223.55 915.7,-216.92"/>
</a>
</g>
</g>
<!-- Node9 -->
<g id="Node000009" class="node">
<title>Node9</title>
<g id="a_Node000009"><a xlink:title=" ">
<polygon fill="#e0e0e0" stroke="#999999" points="1557.94,-151 1427.94,-151 1427.94,-121 1557.94,-121 1557.94,-151"/>
<text text-anchor="start" x="1435.94" y="-139" font-family="Helvetica,sans-Serif" font-size="10.00">deal.II/base/conditional</text>
<text text-anchor="middle" x="1492.94" y="-128" font-family="Helvetica,sans-Serif" font-size="10.00">_ostream.h</text>
</a>
</g>
</g>
<!-- Node8&#45;&gt;Node9 -->
<g id="edge11_Node000008_Node000009" class="edge">
<title>Node8&#45;&gt;Node9</title>
<g id="a_edge11_Node000008_Node000009"><a xlink:title=" ">
<path fill="none" stroke="#63b8ff" d="M1368.83,-186.95C1392.34,-177.49 1423.54,-164.93 1448.78,-154.78"/>
<polygon fill="#63b8ff" stroke="#63b8ff" points="1450.16,-157.99 1458.13,-151.01 1447.55,-151.5 1450.16,-157.99"/>
</a>
</g>
</g>
<!-- Node8&#45;&gt;Node10 -->
<g id="edge12_Node000008_Node000010" class="edge">
<title>Node8&#45;&gt;Node10</title>
<g id="a_edge12_Node000008_Node000010"><a xlink:title=" ">
<path fill="none" stroke="#63b8ff" d="M1333.8,-186.7C1333.06,-159.83 1329.17,-100.42 1309.94,-55 1305.65,-44.85 1298.59,-34.88 1292.1,-26.95"/>
<polygon fill="#63b8ff" stroke="#63b8ff" points="1294.62,-24.52 1285.44,-19.24 1289.33,-29.1 1294.62,-24.52"/>
</a>
</g>
</g>
<!-- Node11&#45;&gt;Node10 -->
<g id="edge24_Node000011_Node000010" class="edge">
<title>Node11&#45;&gt;Node10</title>
<g id="a_edge24_Node000011_Node000010"><a xlink:title=" ">
<path fill="none" stroke="#63b8ff" d="M876.51,-186.99C892.97,-169.38 923.47,-139.27 954.94,-121 1043.86,-69.4 1160.6,-36.9 1226.31,-21.37"/>
<polygon fill="#63b8ff" stroke="#63b8ff" points="1227.46,-24.7 1236.4,-19.03 1225.87,-17.88 1227.46,-24.7"/>
</a>
</g>
</g>
<!-- Node12 -->
<g id="Node000012" class="node">
<title>Node12</title>
<g id="a_Node000012"><a xlink:title=" ">
<polygon fill="#e0e0e0" stroke="#999999" points="1101.94,-145.5 963.94,-145.5 963.94,-126.5 1101.94,-126.5 1101.94,-145.5"/>
<text text-anchor="middle" x="1032.94" y="-133.5" font-family="Helvetica,sans-Serif" font-size="10.00">deal.II/base/exceptions.h</text>
</a>
</g>
</g>
<!-- Node11&#45;&gt;Node12 -->
<g id="edge14_Node000011_Node000012" class="edge">
<title>Node11&#45;&gt;Node12</title>
<g id="a_edge14_Node000011_Node000012"><a xlink:title=" ">
<path fill="none" stroke="#63b8ff" d="M901.03,-186.95C930.93,-175.63 972.54,-159.88 1000.98,-149.1"/>
<polygon fill="#63b8ff" stroke="#63b8ff" points="1002.34,-152.33 1010.45,-145.52 999.86,-145.79 1002.34,-152.33"/>
</a>
</g>
</g>
<!-- Node13 -->
<g id="Node000013" class="node">
<title>Node13</title>
<g id="a_Node000013"><a xlink:title=" ">
<polygon fill="#e0e0e0" stroke="#999999" points="1229.44,-151 1120.44,-151 1120.44,-121 1229.44,-121 1229.44,-151"/>
<text text-anchor="start" x="1128.44" y="-139" font-family="Helvetica,sans-Serif" font-size="10.00">deal.II/matrix_free</text>
<text text-anchor="middle" x="1174.94" y="-128" font-family="Helvetica,sans-Serif" font-size="10.00">/evaluation_flags.h</text>
</a>
</g>
</g>
<!-- Node11&#45;&gt;Node13 -->
<g id="edge15_Node000011_Node000013" class="edge">
<title>Node11&#45;&gt;Node13</title>
<g id="a_edge15_Node000011_Node000013"><a xlink:title=" ">
<path fill="none" stroke="#63b8ff" d="M927.2,-188.48C974.79,-178.99 1041.89,-165.48 1110.08,-151.16"/>
<polygon fill="#63b8ff" stroke="#63b8ff" points="1111.08,-154.53 1120.14,-149.05 1109.63,-147.68 1111.08,-154.53"/>
</a>
</g>
</g>
<!-- Node14 -->
<g id="Node000014" class="node">
<title>Node14</title>
<g id="a_Node000014"><a xlink:href="type__enums_8h.html" target="_top" xlink:title=" ">
<polygon fill="white" stroke="#666666" points="783.94,-85 675.94,-85 675.94,-55 783.94,-55 783.94,-85"/>
<text text-anchor="start" x="683.94" y="-73" font-family="Helvetica,sans-Serif" font-size="10.00">prismspf/core/type</text>
<text text-anchor="middle" x="729.94" y="-62" font-family="Helvetica,sans-Serif" font-size="10.00">_enums.h</text>
</a>
</g>
</g>
<!-- Node11&#45;&gt;Node14 -->
<g id="edge16_Node000011_Node000014" class="edge">
<title>Node11&#45;&gt;Node14</title>
<g id="a_edge16_Node000011_Node000014"><a xlink:title=" ">
<path fill="none" stroke="#63b8ff" d="M800.86,-191.81C754.59,-183.63 697.41,-170 682.94,-151 668.6,-132.16 686.23,-108.58 703.84,-91.91"/>
<polygon fill="#63b8ff" stroke="#63b8ff" points="706.18,-94.51 711.29,-85.23 701.51,-89.3 706.18,-94.51"/>
</a>
</g>
</g>
<!-- Node16 -->
<g id="Node000016" class="node">
<title>Node16</title>
<g id="a_Node000016"><a xlink:title=" ">
<polygon fill="#e0e0e0" stroke="#999999" points="515.94,-19 471.94,-19 471.94,0 515.94,0 515.94,-19"/>
<text text-anchor="middle" x="493.94" y="-7" font-family="Helvetica,sans-Serif" font-size="10.00">string</text>
</a>
</g>
</g>
<!-- Node11&#45;&gt;Node16 -->
<g id="edge27_Node000011_Node000016" class="edge">
<title>Node11&#45;&gt;Node16</title>
<g id="a_edge27_Node000011_Node000016"><a xlink:title=" ">
<path fill="none" stroke="#63b8ff" d="M800.57,-191.16C762.23,-183.59 713.16,-170.96 672.94,-151 605.34,-117.44 538.95,-55.73 509.61,-26.57"/>
<polygon fill="#63b8ff" stroke="#63b8ff" points="511.88,-23.88 502.35,-19.26 506.91,-28.82 511.88,-23.88"/>
</a>
</g>
</g>
<!-- Node11&#45;&gt;Node17 -->
<g id="edge20_Node000011_Node000017" class="edge">
<title>Node11&#45;&gt;Node17</title>
<g id="a_edge20_Node000011_Node000017"><a xlink:title=" ">
<path fill="none" stroke="#63b8ff" d="M839.58,-186.95C820.8,-176.13 794.99,-161.24 776.43,-150.54"/>
<polygon fill="#63b8ff" stroke="#63b8ff" points="778.13,-147.48 767.71,-145.52 774.63,-153.54 778.13,-147.48"/>
</a>
</g>
</g>
<!-- Node18 -->
<g id="Node000018" class="node">
<title>Node18</title>
<g id="a_Node000018"><a xlink:title=" ">
<polygon fill="#e0e0e0" stroke="#999999" points="901.44,-79.5 856.44,-79.5 856.44,-60.5 901.44,-60.5 901.44,-79.5"/>
<text text-anchor="middle" x="878.94" y="-67.5" font-family="Helvetica,sans-Serif" font-size="10.00">utility</text>
</a>
</g>
</g>
<!-- Node11&#45;&gt;Node18 -->
<g id="edge28_Node000011_Node000018" class="edge">
<title>Node11&#45;&gt;Node18</title>
<g id="a_edge28_Node000011_Node000018"><a xlink:title=" ">
<path fill="none" stroke="#63b8ff" d="M869.41,-186.81C872.91,-176.94 877.13,-163.37 878.94,-151 881.96,-130.43 881.45,-106.57 880.5,-90.29"/>
<polygon fill="#63b8ff" stroke="#63b8ff" points="883.97,-89.67 879.78,-79.94 876.99,-90.16 883.97,-89.67"/>
</a>
</g>
</g>
<!-- Node19 -->
<g id="Node000019" class="node">
<title>Node19</title>
<g id="a_Node000019"><a xlink:title=" ">
<polygon fill="#e0e0e0" stroke="#999999" points="869.94,-145.5 831.94,-145.5 831.94,-126.5 869.94,-126.5 869.94,-145.5"/>
<text text-anchor="middle" x="850.94" y="-133.5" font-family="Helvetica,sans-Serif" font-size="10.00">map</text>
</a>
</g>
</g>
<!-- Node11&#45;&gt;Node19 -->
<g id="edge25_Node000011_Node000019" class="edge">
<title>Node11&#45;&gt;Node19</title>
<g id="a_edge25_Node000011_Node000019"><a xlink:title=" ">
<path fill="none" stroke="#63b8ff" d="M861.06,-186.8C859.21,-177.7 856.79,-165.79 854.78,-155.9"/>
<polygon fill="#63b8ff" stroke="#63b8ff" points="858.16,-154.95 852.74,-145.84 851.3,-156.34 858.16,-154.95"/>
</a>
</g>
</g>
<!-- Node20 -->
<g id="Node000020" class="node">
<title>Node20</title>
<g id="a_Node000020"><a xlink:title=" ">
<polygon fill="#e0e0e0" stroke="#999999" points="597.94,-145.5 565.94,-145.5 565.94,-126.5 597.94,-126.5 597.94,-145.5"/>
<text text-anchor="middle" x="581.94" y="-133.5" font-family="Helvetica,sans-Serif" font-size="10.00">set</text>
</a>
</g>
</g>
<!-- Node11&#45;&gt;Node20 -->
<g id="edge26_Node000011_Node000020" class="edge">
<title>Node11&#45;&gt;Node20</title>
<g id="a_edge26_Node000011_Node000020"><a xlink:title=" ">
<path fill="none" stroke="#63b8ff" d="M800.73,-192.77C749.1,-185.03 674.68,-171.53 611.94,-151 610.51,-150.53 609.05,-150.01 607.6,-149.45"/>
<polygon fill="#63b8ff" stroke="#63b8ff" points="608.73,-146.13 598.16,-145.43 605.99,-152.57 608.73,-146.13"/>
</a>
</g>
</g>
<!-- Node11&#45;&gt;Node21 -->
<g id="edge29_Node000011_Node000021" class="edge">
<title>Node11&#45;&gt;Node21</title>
<g id="a_edge29_Node000011_Node000021"><a xlink:title=" ">
<path fill="none" stroke="#63b8ff" d="M927.2,-189.56C932.86,-188.65 938.5,-187.78 943.94,-187 1095.84,-165.14 1278.26,-147.09 1352.28,-140.11"/>
<polygon fill="#63b8ff" stroke="#63b8ff" points="1352.77,-143.57 1362.4,-139.16 1352.11,-136.61 1352.77,-143.57"/>
</a>
</g>
</g>
<!-- Node14&#45;&gt;Node10 -->
<g id="edge17_Node000014_Node000010" class="edge">
<title>Node14&#45;&gt;Node10</title>
<g id="a_edge17_Node000014_Node000010"><a xlink:title=" ">
<path fill="none" stroke="#63b8ff" d="M784.25,-58.78C792.5,-57.4 800.94,-56.09 808.94,-55 954.41,-35.23 1126.51,-21.27 1216,-14.72"/>
<polygon fill="#63b8ff" stroke="#63b8ff" points="1216.51,-18.19 1226.23,-13.98 1216,-11.21 1216.51,-18.19"/>
</a>
</g>
</g>
<!-- Node15 -->
<g id="Node000015" class="node">
<title>Node15</title>
<g id="a_Node000015"><a xlink:title=" ">
<polygon fill="#e0e0e0" stroke="#999999" points="754.94,-19 704.94,-19 704.94,0 754.94,0 754.94,-19"/>
<text text-anchor="middle" x="729.94" y="-7" font-family="Helvetica,sans-Serif" font-size="10.00">cstdint</text>
</a>
</g>
</g>
<!-- Node14&#45;&gt;Node15 -->
<g id="edge18_Node000014_Node000015" class="edge">
<title>Node14&#45;&gt;Node15</title>
<g id="a_edge18_Node000014_Node000015"><a xlink:title=" ">
<path fill="none" stroke="#63b8ff" d="M729.94,-54.84C729.94,-47.21 729.94,-37.7 729.94,-29.45"/>
<polygon fill="#63b8ff" stroke="#63b8ff" points="733.44,-29.27 729.94,-19.27 726.44,-29.27 733.44,-29.27"/>
</a>
</g>
</g>
<!-- Node14&#45;&gt;Node16 -->
<g id="edge19_Node000014_Node000016" class="edge">
<title>Node14&#45;&gt;Node16</title>
<g id="a_edge19_Node000014_Node000016"><a xlink:title=" ">
<path fill="none" stroke="#63b8ff" d="M675.8,-55.58C629.53,-44.11 564.5,-27.99 526.05,-18.46"/>
<polygon fill="#63b8ff" stroke="#63b8ff" points="526.49,-14.96 515.94,-15.95 524.81,-21.76 526.49,-14.96"/>
</a>
</g>
</g>
<!-- Node17&#45;&gt;Node10 -->
<g id="edge22_Node000017_Node000010" class="edge">
<title>Node17&#45;&gt;Node10</title>
<g id="a_edge22_Node000017_Node000010"><a xlink:title=" ">
<path fill="none" stroke="#63b8ff" d="M759.96,-126.34C774.38,-109.25 809.24,-71.44 847.94,-55 912.74,-27.48 1113.81,-16.38 1216,-12.42"/>
<polygon fill="#63b8ff" stroke="#63b8ff" points="1216.3,-15.92 1226.17,-12.04 1216.04,-8.92 1216.3,-15.92"/>
</a>
</g>
</g>
<!-- Node17&#45;&gt;Node14 -->
<g id="edge21_Node000017_Node000014" class="edge">
<title>Node17&#45;&gt;Node14</title>
<g id="a_edge21_Node000017_Node000014"><a xlink:title=" ">
<path fill="none" stroke="#63b8ff" d="M749.84,-126.37C746.95,-118.32 742.5,-105.94 738.54,-94.93"/>
<polygon fill="#63b8ff" stroke="#63b8ff" points="741.78,-93.59 735.1,-85.36 735.19,-95.95 741.78,-93.59"/>
</a>
</g>
</g>
<!-- Node17&#45;&gt;Node18 -->
<g id="edge23_Node000017_Node000018" class="edge">
<title>Node17&#45;&gt;Node18</title>
<g id="a_edge23_Node000017_Node000018"><a xlink:title=" ">
<path fill="none" stroke="#63b8ff" d="M769.93,-126.37C791.16,-115.59 827.72,-97.02 852.59,-84.38"/>
<polygon fill="#63b8ff" stroke="#63b8ff" points="854.48,-87.35 861.82,-79.7 851.31,-81.11 854.48,-87.35"/>
</a>
</g>
</g>
<!-- Node22&#45;&gt;Node3 -->
<g id="edge34_Node000022_Node000003" class="edge">
<title>Node22&#45;&gt;Node3</title>
<g id="a_edge34_Node000022_Node000003"><a xlink:title=" ">
<path fill="none" stroke="#63b8ff" d="M456.25,-187.66C406.06,-175.85 333.73,-158.83 287.02,-147.84"/>
<polygon fill="#63b8ff" stroke="#63b8ff" points="287.71,-144.41 277.18,-145.53 286.11,-151.22 287.71,-144.41"/>
</a>
</g>
</g>
<!-- Node22&#45;&gt;Node10 -->
<g id="edge36_Node000022_Node000010" class="edge">
<title>Node22&#45;&gt;Node10</title>
<g id="a_edge36_Node000022_Node000010"><a xlink:title=" ">
<path fill="none" stroke="#63b8ff" d="M518.05,-186.85C524.82,-169.66 538.14,-140.52 556.94,-121 596.49,-79.93 612.59,-72.21 666.94,-55 768.07,-22.98 1082.9,-13.84 1216.27,-11.36"/>
<polygon fill="#63b8ff" stroke="#63b8ff" points="1216.38,-14.86 1226.31,-11.18 1216.25,-7.86 1216.38,-14.86"/>
</a>
</g>
</g>
<!-- Node22&#45;&gt;Node16 -->
<g id="edge39_Node000022_Node000016" class="edge">
<title>Node22&#45;&gt;Node16</title>
<g id="a_edge39_Node000022_Node000016"><a xlink:title=" ">
<path fill="none" stroke="#63b8ff" d="M456.27,-194.46C428.7,-188.11 397.93,-175.6 380.94,-151 347.14,-102.05 425.81,-48.34 468.58,-23.92"/>
<polygon fill="#63b8ff" stroke="#63b8ff" points="470.32,-26.96 477.36,-19.03 466.92,-20.84 470.32,-26.96"/>
</a>
</g>
</g>
<!-- Node22&#45;&gt;Node17 -->
<g id="edge35_Node000022_Node000017" class="edge">
<title>Node22&#45;&gt;Node17</title>
<g id="a_edge35_Node000022_Node000017"><a xlink:title=" ">
<path fill="none" stroke="#63b8ff" d="M565.61,-186.95C609.37,-175.29 670.79,-158.91 711.2,-148.13"/>
<polygon fill="#63b8ff" stroke="#63b8ff" points="712.24,-151.48 721,-145.52 710.44,-144.71 712.24,-151.48"/>
</a>
</g>
</g>
<!-- Node23 -->
<g id="Node000023" class="node">
<title>Node23</title>
<g id="a_Node000023"><a xlink:title=" ">
<polygon fill="#e0e0e0" stroke="#999999" points="509.94,-145.5 465.94,-145.5 465.94,-126.5 509.94,-126.5 509.94,-145.5"/>
<text text-anchor="middle" x="487.94" y="-133.5" font-family="Helvetica,sans-Serif" font-size="10.00">mpi.h</text>
</a>
</g>
</g>
<!-- Node22&#45;&gt;Node23 -->
<g id="edge37_Node000022_Node000023" class="edge">
<title>Node22&#45;&gt;Node23</title>
<g id="a_edge37_Node000022_Node000023"><a xlink:title=" ">
<path fill="none" stroke="#63b8ff" d="M507.39,-186.8C503.76,-177.5 498.99,-165.27 495.07,-155.26"/>
<polygon fill="#63b8ff" stroke="#63b8ff" points="498.3,-153.89 491.4,-145.84 491.77,-156.43 498.3,-153.89"/>
</a>
</g>
</g>
<!-- Node24 -->
<g id="Node000024" class="node">
<title>Node24</title>
<g id="a_Node000024"><a xlink:title=" ">
<polygon fill="#e0e0e0" stroke="#999999" points="447.44,-145.5 390.44,-145.5 390.44,-126.5 447.44,-126.5 447.44,-145.5"/>
<text text-anchor="middle" x="418.94" y="-133.5" font-family="Helvetica,sans-Serif" font-size="10.00">ostream</text>
</a>
</g>
</g>
<!-- Node22&#45;&gt;Node24 -->
<g id="edge38_Node000022_Node000024" class="edge">
<title>Node22&#45;&gt;Node24</title>
<g id="a_edge38_Node000022_Node000024"><a xlink:title=" ">
<path fill="none" stroke="#63b8ff" d="M492.08,-186.8C476.62,-176.27 455.62,-161.97 440.09,-151.4"/>
<polygon fill="#63b8ff" stroke="#63b8ff" points="441.89,-148.39 431.66,-145.66 437.95,-154.18 441.89,-148.39"/>
</a>
</g>
</g>
<!-- Node25&#45;&gt;Node7 -->
<g id="edge47_Node000025_Node000007" class="edge">
<title>Node25&#45;&gt;Node7</title>
<g id="a_edge47_Node000025_Node000007"><a xlink:title=" ">
<path fill="none" stroke="#63b8ff" d="M932.52,-318.95C955.04,-309.53 984.9,-297.04 1009.12,-286.91"/>
<polygon fill="#63b8ff" stroke="#63b8ff" points="1010.57,-290.1 1018.44,-283.01 1007.87,-283.64 1010.57,-290.1"/>
</a>
</g>
</g>
<!-- Node25&#45;&gt;Node8 -->
<g id="edge41_Node000025_Node000008" class="edge">
<title>Node25&#45;&gt;Node8</title>
<g id="a_edge41_Node000025_Node000008"><a xlink:title=" ">
<path fill="none" stroke="#63b8ff" d="M969.61,-321.11C1016.45,-312.44 1078.98,-299.38 1132.94,-283 1190.17,-265.63 1253.97,-238.92 1294.03,-221.21"/>
<polygon fill="#63b8ff" stroke="#63b8ff" points="1295.47,-224.39 1303.19,-217.13 1292.63,-218 1295.47,-224.39"/>
</a>
</g>
</g>
<!-- Node25&#45;&gt;Node10 -->
<g id="edge60_Node000025_Node000010" class="edge">
<title>Node25&#45;&gt;Node10</title>
<g id="a_edge60_Node000025_Node000010"><a xlink:title=" ">
<path fill="none" stroke="#63b8ff" d="M969.9,-330.27C1257.34,-318.76 2319.94,-271.55 2319.94,-203 2319.94,-203 2319.94,-203 2319.94,-135 2319.94,-35.43 1560.77,-15.14 1337.81,-11.32"/>
<polygon fill="#63b8ff" stroke="#63b8ff" points="1337.66,-7.82 1327.6,-11.15 1337.54,-14.82 1337.66,-7.82"/>
</a>
</g>
</g>
<!-- Node25&#45;&gt;Node11 -->
<g id="edge61_Node000025_Node000011" class="edge">
<title>Node25&#45;&gt;Node11</title>
<g id="a_edge61_Node000025_Node000011"><a xlink:title=" ">
<path fill="none" stroke="#63b8ff" d="M886.01,-318.9C878.28,-309.49 869.16,-296.42 864.94,-283 859.28,-265.02 859.34,-243.63 860.65,-227.49"/>
<polygon fill="#63b8ff" stroke="#63b8ff" points="864.16,-227.57 861.7,-217.26 857.2,-226.85 864.16,-227.57"/>
</a>
</g>
</g>
<!-- Node25&#45;&gt;Node16 -->
<g id="edge64_Node000025_Node000016" class="edge">
<title>Node25&#45;&gt;Node16</title>
<g id="a_edge64_Node000025_Node000016"><a xlink:title=" ">
<path fill="none" stroke="#63b8ff" d="M828.4,-320.02C779.07,-310.61 711.74,-297.11 652.94,-283 652.11,-282.8 177.46,-151.68 176.94,-151 99.84,-49.61 366.76,-19.84 461.68,-12.56"/>
<polygon fill="#63b8ff" stroke="#63b8ff" points="462.14,-16.04 471.86,-11.82 461.63,-9.06 462.14,-16.04"/>
</a>
</g>
</g>
<!-- Node25&#45;&gt;Node20 -->
<g id="edge63_Node000025_Node000020" class="edge">
<title>Node25&#45;&gt;Node20</title>
<g id="a_edge63_Node000025_Node000020"><a xlink:title=" ">
<path fill="none" stroke="#63b8ff" d="M876.14,-318.9C817.65,-282.74 662.75,-186.96 604.51,-150.95"/>
<polygon fill="#63b8ff" stroke="#63b8ff" points="606.06,-147.8 595.71,-145.51 602.38,-153.75 606.06,-147.8"/>
</a>
</g>
</g>
<!-- Node25&#45;&gt;Node22 -->
<g id="edge46_Node000025_Node000022" class="edge">
<title>Node25&#45;&gt;Node22</title>
<g id="a_edge46_Node000025_Node000022"><a xlink:title=" ">
<path fill="none" stroke="#63b8ff" d="M828.02,-320.68C789.49,-312.61 741.55,-300.31 700.94,-283 677.8,-273.13 675.59,-263.96 652.94,-253 626.47,-240.19 595.83,-228.87 569.97,-220.27"/>
<polygon fill="#63b8ff" stroke="#63b8ff" points="570.91,-216.89 560.32,-217.1 568.73,-223.54 570.91,-216.89"/>
</a>
</g>
</g>
<!-- Node26 -->
<g id="Node000026" class="node">
<title>Node26</title>
<g id="a_Node000026"><a xlink:href="exceptions_8h.html" target="_top" xlink:title=" ">
<polygon fill="white" stroke="#666666" points="1101.44,-211.5 952.44,-211.5 952.44,-192.5 1101.44,-192.5 1101.44,-211.5"/>
<text text-anchor="middle" x="1026.94" y="-199.5" font-family="Helvetica,sans-Serif" font-size="10.00">prismspf/core/exceptions.h</text>
</a>
</g>
</g>
<!-- Node25&#45;&gt;Node26 -->
<g id="edge42_Node000025_Node000026" class="edge">
<title>Node25&#45;&gt;Node26</title>
<g id="a_edge42_Node000025_Node000026"><a xlink:title=" ">
<path fill="none" stroke="#63b8ff" d="M910.73,-318.99C924.64,-302.68 948.7,-275.15 970.94,-253 983.16,-240.83 997.7,-227.89 1008.9,-218.22"/>
<polygon fill="#63b8ff" stroke="#63b8ff" points="1011.4,-220.69 1016.73,-211.53 1006.85,-215.37 1011.4,-220.69"/>
</a>
</g>
</g>
<!-- Node27 -->
<g id="Node000027" class="node">
<title>Node27</title>
<g id="a_Node000027"><a xlink:href="utilities_8h.html" target="_top" xlink:title=" ">
<polygon fill="white" stroke="#666666" points="1786.44,-217 1687.44,-217 1687.44,-187 1786.44,-187 1786.44,-217"/>
<text text-anchor="start" x="1695.44" y="-205" font-family="Helvetica,sans-Serif" font-size="10.00">prismspf/utilities</text>
<text text-anchor="middle" x="1736.94" y="-194" font-family="Helvetica,sans-Serif" font-size="10.00">/utilities.h</text>
</a>
</g>
</g>
<!-- Node25&#45;&gt;Node27 -->
<g id="edge48_Node000025_Node000027" class="edge">
<title>Node25&#45;&gt;Node27</title>
<g id="a_edge48_Node000025_Node000027"><a xlink:title=" ">
<path fill="none" stroke="#63b8ff" d="M969.67,-322.03C1131.58,-296.91 1526.76,-235.61 1677.34,-212.25"/>
<polygon fill="#63b8ff" stroke="#63b8ff" points="1677.98,-215.69 1687.32,-210.7 1676.9,-208.77 1677.98,-215.69"/>
</a>
</g>
</g>
<!-- Node34 -->
<g id="Node000034" class="node">
<title>Node34</title>
<g id="a_Node000034"><a xlink:title=" ">
<polygon fill="#e0e0e0" stroke="#999999" points="923.94,-277.5 873.94,-277.5 873.94,-258.5 923.94,-258.5 923.94,-277.5"/>
<text text-anchor="middle" x="898.94" y="-265.5" font-family="Helvetica,sans-Serif" font-size="10.00">climits</text>
</a>
</g>
</g>
<!-- Node25&#45;&gt;Node34 -->
<g id="edge62_Node000025_Node000034" class="edge">
<title>Node25&#45;&gt;Node34</title>
<g id="a_edge62_Node000025_Node000034"><a xlink:title=" ">
<path fill="none" stroke="#63b8ff" d="M898.94,-318.8C898.94,-309.7 898.94,-297.79 898.94,-287.9"/>
<polygon fill="#63b8ff" stroke="#63b8ff" points="902.44,-287.84 898.94,-277.84 895.44,-287.84 902.44,-287.84"/>
</a>
</g>
</g>
<!-- Node26&#45;&gt;Node10 -->
<g id="edge45_Node000026_Node000010" class="edge">
<title>Node26&#45;&gt;Node10</title>
<g id="a_edge45_Node000026_Node000010"><a xlink:title=" ">
<path fill="none" stroke="#63b8ff" d="M1095.67,-192.49C1149.51,-184.46 1218.6,-170.69 1238.94,-151 1272.59,-118.43 1277.43,-59.39 1277.55,-29.27"/>
<polygon fill="#63b8ff" stroke="#63b8ff" points="1281.05,-29.2 1277.41,-19.25 1274.05,-29.3 1281.05,-29.2"/>
</a>
</g>
</g>
<!-- Node26&#45;&gt;Node12 -->
<g id="edge43_Node000026_Node000012" class="edge">
<title>Node26&#45;&gt;Node12</title>
<g id="a_edge43_Node000026_Node000012"><a xlink:title=" ">
<path fill="none" stroke="#63b8ff" d="M1027.75,-192.37C1028.62,-183.07 1030.04,-167.98 1031.17,-155.9"/>
<polygon fill="#63b8ff" stroke="#63b8ff" points="1034.66,-156.19 1032.11,-145.91 1027.69,-155.53 1034.66,-156.19"/>
</a>
</g>
</g>
<!-- Node26&#45;&gt;Node17 -->
<g id="edge44_Node000026_Node000017" class="edge">
<title>Node26&#45;&gt;Node17</title>
<g id="a_edge44_Node000026_Node000017"><a xlink:title=" ">
<path fill="none" stroke="#63b8ff" d="M990.27,-192.44C940.95,-180.92 853.24,-160.43 799.37,-147.84"/>
<polygon fill="#63b8ff" stroke="#63b8ff" points="799.93,-144.38 789.39,-145.51 798.33,-151.2 799.93,-144.38"/>
</a>
</g>
</g>
<!-- Node27&#45;&gt;Node3 -->
<g id="edge49_Node000027_Node000003" class="edge">
<title>Node27&#45;&gt;Node3</title>
<g id="a_edge49_Node000027_Node000003"><a xlink:title=" ">
<path fill="none" stroke="#63b8ff" d="M1687.27,-198.73C1623.69,-195.84 1510.13,-190.79 1412.94,-187 954.35,-169.09 838.85,-181.85 380.94,-151 356.53,-149.36 329.78,-146.85 306.27,-144.42"/>
<polygon fill="#63b8ff" stroke="#63b8ff" points="306.37,-140.91 296.06,-143.34 305.64,-147.87 306.37,-140.91"/>
</a>
</g>
</g>
<!-- Node27&#45;&gt;Node10 -->
<g id="edge55_Node000027_Node000010" class="edge">
<title>Node27&#45;&gt;Node10</title>
<g id="a_edge55_Node000027_Node000010"><a xlink:title=" ">
<path fill="none" stroke="#63b8ff" d="M1690.31,-186.9C1664.61,-178.23 1632.6,-165.92 1605.94,-151 1586.86,-140.32 1586.03,-131.67 1566.94,-121 1483.1,-74.12 1375.37,-38.94 1317.7,-21.9"/>
<polygon fill="#63b8ff" stroke="#63b8ff" points="1318.45,-18.48 1307.87,-19.03 1316.49,-25.19 1318.45,-18.48"/>
</a>
</g>
</g>
<!-- Node27&#45;&gt;Node13 -->
<g id="edge52_Node000027_Node000013" class="edge">
<title>Node27&#45;&gt;Node13</title>
<g id="a_edge52_Node000027_Node000013"><a xlink:title=" ">
<path fill="none" stroke="#63b8ff" d="M1687.07,-195.32C1585.21,-183.72 1353.35,-157.32 1239.9,-144.4"/>
<polygon fill="#63b8ff" stroke="#63b8ff" points="1239.96,-140.88 1229.63,-143.23 1239.17,-147.84 1239.96,-140.88"/>
</a>
</g>
</g>
<!-- Node28 -->
<g id="Node000028" class="node">
<title>Node28</title>
<g id="a_Node000028"><a xlink:title=" ">
<polygon fill="#e0e0e0" stroke="#999999" points="1945.44,-145.5 1830.44,-145.5 1830.44,-126.5 1945.44,-126.5 1945.44,-145.5"/>
<text text-anchor="middle" x="1887.94" y="-133.5" font-family="Helvetica,sans-Serif" font-size="10.00">deal.II/base/tensor.h</text>
</a>
</g>
</g>
<!-- Node27&#45;&gt;Node28 -->
<g id="edge50_Node000027_Node000028" class="edge">
<title>Node27&#45;&gt;Node28</title>
<g id="a_edge50_Node000027_Node000028"><a xlink:title=" ">
<path fill="none" stroke="#63b8ff" d="M1770.08,-186.95C1796.44,-175.78 1833,-160.29 1858.38,-149.53"/>
<polygon fill="#63b8ff" stroke="#63b8ff" points="1860,-152.64 1867.85,-145.52 1857.27,-146.2 1860,-152.64"/>
</a>
</g>
</g>
<!-- Node29 -->
<g id="Node000029" class="node">
<title>Node29</title>
<g id="a_Node000029"><a xlink:title=" ">
<polygon fill="#e0e0e0" stroke="#999999" points="1939.44,-79.5 1790.44,-79.5 1790.44,-60.5 1939.44,-60.5 1939.44,-79.5"/>
<text text-anchor="middle" x="1864.94" y="-67.5" font-family="Helvetica,sans-Serif" font-size="10.00">deal.II/base/vectorization.h</text>
</a>
</g>
</g>
<!-- Node27&#45;&gt;Node29 -->
<g id="edge51_Node000027_Node000029" class="edge">
<title>Node27&#45;&gt;Node29</title>
<g id="a_edge51_Node000027_Node000029"><a xlink:title=" ">
<path fill="none" stroke="#63b8ff" d="M1786.49,-196.69C1844.2,-190.51 1934.29,-176.93 1954.94,-151 1976.64,-123.77 1932,-98.1 1898.17,-83.5"/>
<polygon fill="#63b8ff" stroke="#63b8ff" points="1899.12,-80.1 1888.54,-79.51 1896.43,-86.57 1899.12,-80.1"/>
</a>
</g>
</g>
<!-- Node30 -->
<g id="Node000030" class="node">
<title>Node30</title>
<g id="a_Node000030"><a xlink:title=" ">
<polygon fill="#e0e0e0" stroke="#999999" points="2147.94,-145.5 2001.94,-145.5 2001.94,-126.5 2147.94,-126.5 2147.94,-145.5"/>
<text text-anchor="middle" x="2074.94" y="-133.5" font-family="Helvetica,sans-Serif" font-size="10.00">boost/range/algorithm.hpp</text>
</a>
</g>
</g>
<!-- Node27&#45;&gt;Node30 -->
<g id="edge53_Node000027_Node000030" class="edge">
<title>Node27&#45;&gt;Node30</title>
<g id="a_edge53_Node000027_Node000030"><a xlink:title=" ">
<path fill="none" stroke="#63b8ff" d="M1786.45,-191.63C1848.68,-179.84 1955.15,-159.68 2019.88,-147.43"/>
<polygon fill="#63b8ff" stroke="#63b8ff" points="2020.72,-150.83 2029.89,-145.53 2019.42,-143.95 2020.72,-150.83"/>
</a>
</g>
</g>
<!-- Node31 -->
<g id="Node000031" class="node">
<title>Node31</title>
<g id="a_Node000031"><a xlink:title=" ">
<polygon fill="#e0e0e0" stroke="#999999" points="2291.44,-151 2166.44,-151 2166.44,-121 2291.44,-121 2291.44,-151"/>
<text text-anchor="start" x="2174.44" y="-139" font-family="Helvetica,sans-Serif" font-size="10.00">boost/range/algorithm</text>
<text text-anchor="middle" x="2228.94" y="-128" font-family="Helvetica,sans-Serif" font-size="10.00">_ext.hpp</text>
</a>
</g>
</g>
<!-- Node27&#45;&gt;Node31 -->
<g id="edge54_Node000027_Node000031" class="edge">
<title>Node27&#45;&gt;Node31</title>
<g id="a_edge54_Node000027_Node000031"><a xlink:title=" ">
<path fill="none" stroke="#63b8ff" d="M1786.57,-196.29C1863.47,-188.72 2016.26,-172.64 2156.11,-151.05"/>
<polygon fill="#63b8ff" stroke="#63b8ff" points="2156.82,-154.49 2166.16,-149.49 2155.74,-147.57 2156.82,-154.49"/>
</a>
</g>
</g>
<!-- Node32 -->
<g id="Node000032" class="node">
<title>Node32</title>
<g id="a_Node000032"><a xlink:title=" ">
<polygon fill="#e0e0e0" stroke="#999999" points="1811.94,-145.5 1769.94,-145.5 1769.94,-126.5 1811.94,-126.5 1811.94,-145.5"/>
<text text-anchor="middle" x="1790.94" y="-133.5" font-family="Helvetica,sans-Serif" font-size="10.00">array</text>
</a>
</g>
</g>
<!-- Node27&#45;&gt;Node32 -->
<g id="edge56_Node000027_Node000032" class="edge">
<title>Node27&#45;&gt;Node32</title>
<g id="a_edge56_Node000027_Node000032"><a xlink:title=" ">
<path fill="none" stroke="#63b8ff" d="M1748.93,-186.8C1757.18,-177.01 1768.18,-163.98 1776.85,-153.7"/>
<polygon fill="#63b8ff" stroke="#63b8ff" points="1779.71,-155.74 1783.48,-145.84 1774.36,-151.23 1779.71,-155.74"/>
</a>
</g>
</g>
<!-- Node33 -->
<g id="Node000033" class="node">
<title>Node33</title>
<g id="a_Node000033"><a xlink:href="vectorized__operations_8h.html" target="_top" xlink:title=" ">
<polygon fill="white" stroke="#666666" points="1751.44,-151 1614.44,-151 1614.44,-121 1751.44,-121 1751.44,-151"/>
<text text-anchor="start" x="1622.44" y="-139" font-family="Helvetica,sans-Serif" font-size="10.00">prismspf/utilities</text>
<text text-anchor="middle" x="1682.94" y="-128" font-family="Helvetica,sans-Serif" font-size="10.00">/vectorized_operations.h</text>
</a>
</g>
</g>
<!-- Node27&#45;&gt;Node33 -->
<g id="edge57_Node000027_Node000033" class="edge">
<title>Node27&#45;&gt;Node33</title>
<g id="a_edge57_Node000027_Node000033"><a xlink:title=" ">
<path fill="none" stroke="#63b8ff" d="M1724.96,-186.8C1718.04,-178.59 1709.18,-168.1 1701.39,-158.87"/>
<polygon fill="#63b8ff" stroke="#63b8ff" points="1704.02,-156.55 1694.89,-151.16 1698.67,-161.06 1704.02,-156.55"/>
</a>
</g>
</g>
<!-- Node33&#45;&gt;Node10 -->
<g id="edge59_Node000033_Node000010" class="edge">
<title>Node33&#45;&gt;Node10</title>
<g id="a_edge59_Node000033_Node000010"><a xlink:title=" ">
<path fill="none" stroke="#63b8ff" d="M1672.97,-120.95C1658.98,-102.43 1631.63,-70.38 1599.94,-55 1554.89,-33.13 1417.82,-20.23 1337.45,-14.35"/>
<polygon fill="#63b8ff" stroke="#63b8ff" points="1337.69,-10.86 1327.46,-13.64 1337.19,-17.84 1337.69,-10.86"/>
</a>
</g>
</g>
<!-- Node33&#45;&gt;Node29 -->
<g id="edge58_Node000033_Node000029" class="edge">
<title>Node33&#45;&gt;Node29</title>
<g id="a_edge58_Node000033_Node000029"><a xlink:title=" ">
<path fill="none" stroke="#63b8ff" d="M1722.88,-120.95C1755.22,-109.58 1800.28,-93.74 1830.92,-82.96"/>
<polygon fill="#63b8ff" stroke="#63b8ff" points="1832.45,-86.14 1840.72,-79.52 1830.13,-79.53 1832.45,-86.14"/>
</a>
</g>
</g>
</g>
</svg>
