<?xml version="1.0" encoding="UTF-8" standalone="no"?>
<!DOCTYPE svg PUBLIC "-//W3C//DTD SVG 1.1//EN"
 "http://www.w3.org/Graphics/SVG/1.1/DTD/svg11.dtd">
<!-- Generated by graphviz version 2.43.0 (0)
 -->
<!-- Title: /home/runner/work/phaseField/phaseField/include/prismspf/user_inputs/nucleation_parameters.h Pages: 1 -->
<svg width="2140pt" height="368pt"
 viewBox="0.00 0.00 2140.00 368.00" xmlns="http://www.w3.org/2000/svg" xmlns:xlink="http://www.w3.org/1999/xlink">
<g id="graph0" class="graph" transform="scale(1 1) rotate(0) translate(4 364)">
<title>/home/runner/work/phaseField/phaseField/include/prismspf/user_inputs/nucleation_parameters.h</title>
<!-- Node1 -->
<g id="Node000001" class="node">
<title>Node1</title>
<g id="a_Node000001"><a xlink:title=" ">
<polygon fill="#999999" stroke="#666666" points="840,-360 640,-360 640,-319 840,-319 840,-360"/>
<text text-anchor="start" x="648" y="-348" font-family="Helvetica,sans-Serif" font-size="10.00">/home/runner/work/phaseField</text>
<text text-anchor="start" x="648" y="-337" font-family="Helvetica,sans-Serif" font-size="10.00">/phaseField/include/prismspf</text>
<text text-anchor="middle" x="740" y="-326" font-family="Helvetica,sans-Serif" font-size="10.00">/user_inputs/nucleation_parameters.h</text>
</a>
</g>
</g>
<!-- Node2 -->
<g id="Node000002" class="node">
<title>Node2</title>
<g id="a_Node000002"><a xlink:href="conditional__ostreams_8h.html" target="_top" xlink:title=" ">
<polygon fill="white" stroke="#666666" points="196,-217 56,-217 56,-187 196,-187 196,-217"/>
<text text-anchor="start" x="64" y="-205" font-family="Helvetica,sans-Serif" font-size="10.00">prismspf/core/conditional</text>
<text text-anchor="middle" x="126" y="-194" font-family="Helvetica,sans-Serif" font-size="10.00">_ostreams.h</text>
</a>
</g>
</g>
<!-- Node1&#45;&gt;Node2 -->
<g id="edge1_Node000001_Node000002" class="edge">
<title>Node1&#45;&gt;Node2</title>
<g id="a_edge1_Node000001_Node000002"><a xlink:title=" ">
<path fill="none" stroke="#63b8ff" d="M639.7,-327.02C567.5,-317.77 468.07,-303 382,-283 308.29,-265.87 224.99,-238.25 173.98,-220.36"/>
<polygon fill="#63b8ff" stroke="#63b8ff" points="175.13,-217.05 164.54,-217.02 172.8,-223.65 175.13,-217.05"/>
</a>
</g>
</g>
<!-- Node4 -->
<g id="Node000004" class="node">
<title>Node4</title>
<g id="a_Node000004"><a xlink:title=" ">
<polygon fill="#e0e0e0" stroke="#999999" points="621.5,-19 520.5,-19 520.5,0 621.5,0 621.5,-19"/>
<text text-anchor="middle" x="571" y="-7" font-family="Helvetica,sans-Serif" font-size="10.00">prismspf/config.h</text>
</a>
</g>
</g>
<!-- Node1&#45;&gt;Node4 -->
<g id="edge47_Node000001_Node000004" class="edge">
<title>Node1&#45;&gt;Node4</title>
<g id="a_edge47_Node000001_Node000004"><a xlink:title=" ">
<path fill="none" stroke="#63b8ff" d="M639.82,-330.44C437.66,-312.83 0,-267.28 0,-203 0,-203 0,-203 0,-135 0,-31.46 362.95,-13.88 510.11,-11.01"/>
<polygon fill="#63b8ff" stroke="#63b8ff" points="510.39,-14.51 520.33,-10.83 510.27,-7.51 510.39,-14.51"/>
</a>
</g>
</g>
<!-- Node5 -->
<g id="Node000005" class="node">
<title>Node5</title>
<g id="a_Node000005"><a xlink:href="exceptions_8h.html" target="_top" xlink:title=" ">
<polygon fill="white" stroke="#666666" points="512.5,-211.5 363.5,-211.5 363.5,-192.5 512.5,-192.5 512.5,-211.5"/>
<text text-anchor="middle" x="438" y="-199.5" font-family="Helvetica,sans-Serif" font-size="10.00">prismspf/core/exceptions.h</text>
</a>
</g>
</g>
<!-- Node1&#45;&gt;Node5 -->
<g id="edge4_Node000001_Node000005" class="edge">
<title>Node1&#45;&gt;Node5</title>
<g id="a_edge4_Node000001_Node000005"><a xlink:title=" ">
<path fill="none" stroke="#63b8ff" d="M696.41,-318.94C633.52,-290.72 519.08,-239.38 466.19,-215.65"/>
<polygon fill="#63b8ff" stroke="#63b8ff" points="467.61,-212.45 457.05,-211.55 464.75,-218.84 467.61,-212.45"/>
</a>
</g>
</g>
<!-- Node10 -->
<g id="Node000010" class="node">
<title>Node10</title>
<g id="a_Node000010"><a xlink:title=" ">
<polygon fill="#e0e0e0" stroke="#999999" points="1194,-19 1150,-19 1150,0 1194,0 1194,-19"/>
<text text-anchor="middle" x="1172" y="-7" font-family="Helvetica,sans-Serif" font-size="10.00">string</text>
</a>
</g>
</g>
<!-- Node1&#45;&gt;Node10 -->
<g id="edge51_Node000001_Node000010" class="edge">
<title>Node1&#45;&gt;Node10</title>
<g id="a_edge51_Node000001_Node000010"><a xlink:title=" ">
<path fill="none" stroke="#63b8ff" d="M840.26,-339.26C1030.94,-338 1427,-321.15 1427,-203 1427,-203 1427,-203 1427,-135 1427,-37.03 1273.13,-16.14 1204.44,-11.7"/>
<polygon fill="#63b8ff" stroke="#63b8ff" points="1204.37,-8.19 1194.18,-11.11 1203.97,-15.18 1204.37,-8.19"/>
</a>
</g>
</g>
<!-- Node12 -->
<g id="Node000012" class="node">
<title>Node12</title>
<g id="a_Node000012"><a xlink:href="nucleus_8h.html" target="_top" xlink:title=" ">
<polygon fill="white" stroke="#666666" points="1026.5,-217 913.5,-217 913.5,-187 1026.5,-187 1026.5,-217"/>
<text text-anchor="start" x="921.5" y="-205" font-family="Helvetica,sans-Serif" font-size="10.00">prismspf/nucleation</text>
<text text-anchor="middle" x="970" y="-194" font-family="Helvetica,sans-Serif" font-size="10.00">/nucleus.h</text>
</a>
</g>
</g>
<!-- Node1&#45;&gt;Node12 -->
<g id="edge14_Node000001_Node000012" class="edge">
<title>Node1&#45;&gt;Node12</title>
<g id="a_edge14_Node000001_Node000012"><a xlink:title=" ">
<path fill="none" stroke="#63b8ff" d="M773.44,-318.8C817.3,-292.96 893.74,-247.93 937.25,-222.3"/>
<polygon fill="#63b8ff" stroke="#63b8ff" points="939.17,-225.23 946.01,-217.13 935.61,-219.2 939.17,-225.23"/>
</a>
</g>
</g>
<!-- Node16 -->
<g id="Node000016" class="node">
<title>Node16</title>
<g id="a_Node000016"><a xlink:href="temporal__discretization_8h.html" target="_top" xlink:title=" ">
<polygon fill="white" stroke="#666666" points="535,-283 391,-283 391,-253 535,-253 535,-283"/>
<text text-anchor="start" x="399" y="-271" font-family="Helvetica,sans-Serif" font-size="10.00">prismspf/user_inputs</text>
<text text-anchor="middle" x="463" y="-260" font-family="Helvetica,sans-Serif" font-size="10.00">/temporal_discretization.h</text>
</a>
</g>
</g>
<!-- Node1&#45;&gt;Node16 -->
<g id="edge21_Node000001_Node000016" class="edge">
<title>Node1&#45;&gt;Node16</title>
<g id="a_edge21_Node000001_Node000016"><a xlink:title=" ">
<path fill="none" stroke="#63b8ff" d="M662.1,-318.96C620.06,-308.41 568.74,-295.53 528.73,-285.49"/>
<polygon fill="#63b8ff" stroke="#63b8ff" points="529.37,-282.04 518.81,-283 527.66,-288.83 529.37,-282.04"/>
</a>
</g>
</g>
<!-- Node17 -->
<g id="Node000017" class="node">
<title>Node17</title>
<g id="a_Node000017"><a xlink:href="variable__attributes_8h.html" target="_top" xlink:title=" ">
<polygon fill="white" stroke="#666666" points="707,-217 581,-217 581,-187 707,-187 707,-217"/>
<text text-anchor="start" x="589" y="-205" font-family="Helvetica,sans-Serif" font-size="10.00">prismspf/core/variable</text>
<text text-anchor="middle" x="644" y="-194" font-family="Helvetica,sans-Serif" font-size="10.00">_attributes.h</text>
</a>
</g>
</g>
<!-- Node1&#45;&gt;Node17 -->
<g id="edge48_Node000001_Node000017" class="edge">
<title>Node1&#45;&gt;Node17</title>
<g id="a_edge48_Node000001_Node000017"><a xlink:title=" ">
<path fill="none" stroke="#63b8ff" d="M726.04,-318.8C708.55,-294.11 678.64,-251.89 660.17,-225.82"/>
<polygon fill="#63b8ff" stroke="#63b8ff" points="662.79,-223.46 654.15,-217.33 657.08,-227.51 662.79,-223.46"/>
</a>
</g>
</g>
<!-- Node20 -->
<g id="Node000020" class="node">
<title>Node20</title>
<g id="a_Node000020"><a xlink:title=" ">
<polygon fill="#e0e0e0" stroke="#999999" points="892,-145.5 860,-145.5 860,-126.5 892,-126.5 892,-145.5"/>
<text text-anchor="middle" x="876" y="-133.5" font-family="Helvetica,sans-Serif" font-size="10.00">set</text>
</a>
</g>
</g>
<!-- Node1&#45;&gt;Node20 -->
<g id="edge50_Node000001_Node000020" class="edge">
<title>Node1&#45;&gt;Node20</title>
<g id="a_edge50_Node000001_Node000020"><a xlink:title=" ">
<path fill="none" stroke="#63b8ff" d="M753.29,-318.81C779.91,-279.37 839.36,-191.29 864.46,-154.09"/>
<polygon fill="#63b8ff" stroke="#63b8ff" points="867.37,-156.04 870.06,-145.8 861.57,-152.13 867.37,-156.04"/>
</a>
</g>
</g>
<!-- Node22 -->
<g id="Node000022" class="node">
<title>Node22</title>
<g id="a_Node000022"><a xlink:href="utilities_8h.html" target="_top" xlink:title=" ">
<polygon fill="white" stroke="#666666" points="1645.5,-217 1546.5,-217 1546.5,-187 1645.5,-187 1645.5,-217"/>
<text text-anchor="start" x="1554.5" y="-205" font-family="Helvetica,sans-Serif" font-size="10.00">prismspf/utilities</text>
<text text-anchor="middle" x="1596" y="-194" font-family="Helvetica,sans-Serif" font-size="10.00">/utilities.h</text>
</a>
</g>
</g>
<!-- Node1&#45;&gt;Node22 -->
<g id="edge35_Node000001_Node000022" class="edge">
<title>Node1&#45;&gt;Node22</title>
<g id="a_edge35_Node000001_Node000022"><a xlink:title=" ">
<path fill="none" stroke="#63b8ff" d="M840.24,-337.01C1006.86,-333.45 1333.18,-321.63 1441,-283 1462.94,-275.14 1463.71,-264.47 1484,-253 1505.22,-241 1529.86,-229.74 1550.61,-220.95"/>
<polygon fill="#63b8ff" stroke="#63b8ff" points="1551.97,-224.18 1559.85,-217.09 1549.27,-217.72 1551.97,-224.18"/>
</a>
</g>
</g>
<!-- Node29 -->
<g id="Node000029" class="node">
<title>Node29</title>
<g id="a_Node000029"><a xlink:title=" ">
<polygon fill="#e0e0e0" stroke="#999999" points="1543,-277.5 1493,-277.5 1493,-258.5 1543,-258.5 1543,-277.5"/>
<text text-anchor="middle" x="1518" y="-265.5" font-family="Helvetica,sans-Serif" font-size="10.00">climits</text>
</a>
</g>
</g>
<!-- Node1&#45;&gt;Node29 -->
<g id="edge49_Node000001_Node000029" class="edge">
<title>Node1&#45;&gt;Node29</title>
<g id="a_edge49_Node000001_Node000029"><a xlink:title=" ">
<path fill="none" stroke="#63b8ff" d="M840.24,-334.32C1013.04,-326.55 1359.93,-308.36 1479,-283 1481.84,-282.4 1484.75,-281.64 1487.64,-280.78"/>
<polygon fill="#63b8ff" stroke="#63b8ff" points="1488.85,-284.07 1497.25,-277.62 1486.66,-277.42 1488.85,-284.07"/>
</a>
</g>
</g>
<!-- Node3 -->
<g id="Node000003" class="node">
<title>Node3</title>
<g id="a_Node000003"><a xlink:title=" ">
<polygon fill="#e0e0e0" stroke="#999999" points="158,-151 28,-151 28,-121 158,-121 158,-151"/>
<text text-anchor="start" x="36" y="-139" font-family="Helvetica,sans-Serif" font-size="10.00">deal.II/base/conditional</text>
<text text-anchor="middle" x="93" y="-128" font-family="Helvetica,sans-Serif" font-size="10.00">_ostream.h</text>
</a>
</g>
</g>
<!-- Node2&#45;&gt;Node3 -->
<g id="edge2_Node000002_Node000003" class="edge">
<title>Node2&#45;&gt;Node3</title>
<g id="a_edge2_Node000002_Node000003"><a xlink:title=" ">
<path fill="none" stroke="#63b8ff" d="M118.68,-186.8C114.66,-179.01 109.58,-169.16 105,-160.28"/>
<polygon fill="#63b8ff" stroke="#63b8ff" points="108,-158.45 100.3,-151.16 101.78,-161.66 108,-158.45"/>
</a>
</g>
</g>
<!-- Node2&#45;&gt;Node4 -->
<g id="edge3_Node000002_Node000004" class="edge">
<title>Node2&#45;&gt;Node4</title>
<g id="a_edge3_Node000002_Node000004"><a xlink:title=" ">
<path fill="none" stroke="#63b8ff" d="M139.29,-186.9C147.9,-177.28 158.97,-163.98 167,-151 191.59,-111.24 172.39,-82.78 210,-55 256.34,-20.77 420.02,-12.73 510.23,-10.93"/>
<polygon fill="#63b8ff" stroke="#63b8ff" points="510.38,-14.43 520.32,-10.75 510.26,-7.43 510.38,-14.43"/>
</a>
</g>
</g>
<!-- Node5&#45;&gt;Node4 -->
<g id="edge13_Node000005_Node000004" class="edge">
<title>Node5&#45;&gt;Node4</title>
<g id="a_edge13_Node000005_Node000004"><a xlink:title=" ">
<path fill="none" stroke="#63b8ff" d="M375.57,-192.5C320.65,-182.21 253.4,-161.05 281,-121 332.4,-46.41 441.36,-22.14 510.11,-14.26"/>
<polygon fill="#63b8ff" stroke="#63b8ff" points="510.79,-17.7 520.37,-13.17 510.05,-10.74 510.79,-17.7"/>
</a>
</g>
</g>
<!-- Node6 -->
<g id="Node000006" class="node">
<title>Node6</title>
<g id="a_Node000006"><a xlink:title=" ">
<polygon fill="#e0e0e0" stroke="#999999" points="428,-145.5 290,-145.5 290,-126.5 428,-126.5 428,-145.5"/>
<text text-anchor="middle" x="359" y="-133.5" font-family="Helvetica,sans-Serif" font-size="10.00">deal.II/base/exceptions.h</text>
</a>
</g>
</g>
<!-- Node5&#45;&gt;Node6 -->
<g id="edge5_Node000005_Node000006" class="edge">
<title>Node5&#45;&gt;Node6</title>
<g id="a_edge5_Node000005_Node000006"><a xlink:title=" ">
<path fill="none" stroke="#63b8ff" d="M427.35,-192.37C414.62,-182.06 393.12,-164.65 377.63,-152.09"/>
<polygon fill="#63b8ff" stroke="#63b8ff" points="379.71,-149.27 369.74,-145.7 375.3,-154.71 379.71,-149.27"/>
</a>
</g>
</g>
<!-- Node7 -->
<g id="Node000007" class="node">
<title>Node7</title>
<g id="a_Node000007"><a xlink:href="types_8h.html" target="_top" xlink:title=" ">
<polygon fill="white" stroke="#666666" points="766,-145.5 644,-145.5 644,-126.5 766,-126.5 766,-145.5"/>
<text text-anchor="middle" x="705" y="-133.5" font-family="Helvetica,sans-Serif" font-size="10.00">prismspf/core/types.h</text>
</a>
</g>
</g>
<!-- Node5&#45;&gt;Node7 -->
<g id="edge6_Node000005_Node000007" class="edge">
<title>Node5&#45;&gt;Node7</title>
<g id="a_edge6_Node000005_Node000007"><a xlink:title=" ">
<path fill="none" stroke="#63b8ff" d="M473.73,-192.44C521.69,-180.94 606.91,-160.51 659.43,-147.92"/>
<polygon fill="#63b8ff" stroke="#63b8ff" points="660.57,-151.25 669.48,-145.51 658.94,-144.44 660.57,-151.25"/>
</a>
</g>
</g>
<!-- Node7&#45;&gt;Node4 -->
<g id="edge11_Node000007_Node000004" class="edge">
<title>Node7&#45;&gt;Node4</title>
<g id="a_edge11_Node000007_Node000004"><a xlink:title=" ">
<path fill="none" stroke="#63b8ff" d="M701.75,-126.49C695.34,-110.64 679.67,-76.29 657,-55 642.25,-41.15 622.35,-30.48 605.42,-23.07"/>
<polygon fill="#63b8ff" stroke="#63b8ff" points="606.42,-19.7 595.85,-19.08 603.73,-26.16 606.42,-19.7"/>
</a>
</g>
</g>
<!-- Node8 -->
<g id="Node000008" class="node">
<title>Node8</title>
<g id="a_Node000008"><a xlink:href="type__enums_8h.html" target="_top" xlink:title=" ">
<polygon fill="white" stroke="#666666" points="1094,-85 986,-85 986,-55 1094,-55 1094,-85"/>
<text text-anchor="start" x="994" y="-73" font-family="Helvetica,sans-Serif" font-size="10.00">prismspf/core/type</text>
<text text-anchor="middle" x="1040" y="-62" font-family="Helvetica,sans-Serif" font-size="10.00">_enums.h</text>
</a>
</g>
</g>
<!-- Node7&#45;&gt;Node8 -->
<g id="edge7_Node000007_Node000008" class="edge">
<title>Node7&#45;&gt;Node8</title>
<g id="a_edge7_Node000007_Node000008"><a xlink:title=" ">
<path fill="none" stroke="#63b8ff" d="M749.83,-126.44C807.91,-115.34 909.56,-95.92 975.82,-83.26"/>
<polygon fill="#63b8ff" stroke="#63b8ff" points="976.56,-86.68 985.73,-81.37 975.25,-79.81 976.56,-86.68"/>
</a>
</g>
</g>
<!-- Node11 -->
<g id="Node000011" class="node">
<title>Node11</title>
<g id="a_Node000011"><a xlink:title=" ">
<polygon fill="#e0e0e0" stroke="#999999" points="647.5,-79.5 602.5,-79.5 602.5,-60.5 647.5,-60.5 647.5,-79.5"/>
<text text-anchor="middle" x="625" y="-67.5" font-family="Helvetica,sans-Serif" font-size="10.00">utility</text>
</a>
</g>
</g>
<!-- Node7&#45;&gt;Node11 -->
<g id="edge12_Node000007_Node000011" class="edge">
<title>Node7&#45;&gt;Node11</title>
<g id="a_edge12_Node000007_Node000011"><a xlink:title=" ">
<path fill="none" stroke="#63b8ff" d="M694.21,-126.37C681.33,-116.06 659.56,-98.65 643.87,-86.09"/>
<polygon fill="#63b8ff" stroke="#63b8ff" points="645.87,-83.21 635.87,-79.7 641.5,-88.68 645.87,-83.21"/>
</a>
</g>
</g>
<!-- Node8&#45;&gt;Node4 -->
<g id="edge8_Node000008_Node000004" class="edge">
<title>Node8&#45;&gt;Node4</title>
<g id="a_edge8_Node000008_Node000004"><a xlink:title=" ">
<path fill="none" stroke="#63b8ff" d="M985.89,-57.39C981.2,-56.53 976.52,-55.72 972,-55 851.99,-36.03 710.5,-22.34 631.75,-15.48"/>
<polygon fill="#63b8ff" stroke="#63b8ff" points="631.79,-11.97 621.53,-14.6 631.19,-18.94 631.79,-11.97"/>
</a>
</g>
</g>
<!-- Node9 -->
<g id="Node000009" class="node">
<title>Node9</title>
<g id="a_Node000009"><a xlink:title=" ">
<polygon fill="#e0e0e0" stroke="#999999" points="1065,-19 1015,-19 1015,0 1065,0 1065,-19"/>
<text text-anchor="middle" x="1040" y="-7" font-family="Helvetica,sans-Serif" font-size="10.00">cstdint</text>
</a>
</g>
</g>
<!-- Node8&#45;&gt;Node9 -->
<g id="edge9_Node000008_Node000009" class="edge">
<title>Node8&#45;&gt;Node9</title>
<g id="a_edge9_Node000008_Node000009"><a xlink:title=" ">
<path fill="none" stroke="#63b8ff" d="M1040,-54.84C1040,-47.21 1040,-37.7 1040,-29.45"/>
<polygon fill="#63b8ff" stroke="#63b8ff" points="1043.5,-29.27 1040,-19.27 1036.5,-29.27 1043.5,-29.27"/>
</a>
</g>
</g>
<!-- Node8&#45;&gt;Node10 -->
<g id="edge10_Node000008_Node000010" class="edge">
<title>Node8&#45;&gt;Node10</title>
<g id="a_edge10_Node000008_Node000010"><a xlink:title=" ">
<path fill="none" stroke="#63b8ff" d="M1071.62,-54.99C1093.35,-45.36 1121.97,-32.67 1143.09,-23.31"/>
<polygon fill="#63b8ff" stroke="#63b8ff" points="1144.78,-26.39 1152.51,-19.14 1141.95,-19.99 1144.78,-26.39"/>
</a>
</g>
</g>
<!-- Node12&#45;&gt;Node4 -->
<g id="edge17_Node000012_Node000004" class="edge">
<title>Node12&#45;&gt;Node4</title>
<g id="a_edge17_Node000012_Node000004"><a xlink:title=" ">
<path fill="none" stroke="#63b8ff" d="M961.25,-186.8C949.6,-169 927.35,-138.68 901,-121 816.85,-64.52 701.28,-34.61 631.61,-20.7"/>
<polygon fill="#63b8ff" stroke="#63b8ff" points="632.16,-17.25 621.67,-18.77 630.82,-24.12 632.16,-17.25"/>
</a>
</g>
</g>
<!-- Node12&#45;&gt;Node7 -->
<g id="edge16_Node000012_Node000007" class="edge">
<title>Node12&#45;&gt;Node7</title>
<g id="a_edge16_Node000012_Node000007"><a xlink:title=" ">
<path fill="none" stroke="#63b8ff" d="M913.48,-187.35C864.72,-175.57 795.24,-158.79 750.13,-147.9"/>
<polygon fill="#63b8ff" stroke="#63b8ff" points="750.87,-144.48 740.33,-145.53 749.23,-151.28 750.87,-144.48"/>
</a>
</g>
</g>
<!-- Node12&#45;&gt;Node10 -->
<g id="edge20_Node000012_Node000010" class="edge">
<title>Node12&#45;&gt;Node10</title>
<g id="a_edge20_Node000012_Node000010"><a xlink:title=" ">
<path fill="none" stroke="#63b8ff" d="M1026.72,-196.9C1088.7,-191.11 1182.12,-178.05 1204,-151 1233.4,-114.65 1202.83,-56.5 1184.17,-27.75"/>
<polygon fill="#63b8ff" stroke="#63b8ff" points="1186.9,-25.53 1178.4,-19.2 1181.09,-29.45 1186.9,-25.53"/>
</a>
</g>
</g>
<!-- Node13 -->
<g id="Node000013" class="node">
<title>Node13</title>
<g id="a_Node000013"><a xlink:title=" ">
<polygon fill="#e0e0e0" stroke="#999999" points="1361,-145.5 1251,-145.5 1251,-126.5 1361,-126.5 1361,-145.5"/>
<text text-anchor="middle" x="1306" y="-133.5" font-family="Helvetica,sans-Serif" font-size="10.00">deal.II/base/point.h</text>
</a>
</g>
</g>
<!-- Node12&#45;&gt;Node13 -->
<g id="edge15_Node000012_Node000013" class="edge">
<title>Node12&#45;&gt;Node13</title>
<g id="a_edge15_Node000012_Node000013"><a xlink:title=" ">
<path fill="none" stroke="#63b8ff" d="M1026.56,-190.66C1080.64,-180.72 1164.44,-165.15 1237,-151 1242.69,-149.89 1248.63,-148.71 1254.55,-147.53"/>
<polygon fill="#63b8ff" stroke="#63b8ff" points="1255.31,-150.94 1264.42,-145.54 1253.93,-144.08 1255.31,-150.94"/>
</a>
</g>
</g>
<!-- Node14 -->
<g id="Node000014" class="node">
<title>Node14</title>
<g id="a_Node000014"><a xlink:title=" ">
<polygon fill="#e0e0e0" stroke="#999999" points="992,-145.5 948,-145.5 948,-126.5 992,-126.5 992,-145.5"/>
<text text-anchor="middle" x="970" y="-133.5" font-family="Helvetica,sans-Serif" font-size="10.00">mpi.h</text>
</a>
</g>
</g>
<!-- Node12&#45;&gt;Node14 -->
<g id="edge18_Node000012_Node000014" class="edge">
<title>Node12&#45;&gt;Node14</title>
<g id="a_edge18_Node000012_Node000014"><a xlink:title=" ">
<path fill="none" stroke="#63b8ff" d="M970,-186.8C970,-177.7 970,-165.79 970,-155.9"/>
<polygon fill="#63b8ff" stroke="#63b8ff" points="973.5,-155.84 970,-145.84 966.5,-155.84 973.5,-155.84"/>
</a>
</g>
</g>
<!-- Node15 -->
<g id="Node000015" class="node">
<title>Node15</title>
<g id="a_Node000015"><a xlink:title=" ">
<polygon fill="#e0e0e0" stroke="#999999" points="1194.5,-145.5 1137.5,-145.5 1137.5,-126.5 1194.5,-126.5 1194.5,-145.5"/>
<text text-anchor="middle" x="1166" y="-133.5" font-family="Helvetica,sans-Serif" font-size="10.00">ostream</text>
</a>
</g>
</g>
<!-- Node12&#45;&gt;Node15 -->
<g id="edge19_Node000012_Node000015" class="edge">
<title>Node12&#45;&gt;Node15</title>
<g id="a_edge19_Node000012_Node000015"><a xlink:title=" ">
<path fill="none" stroke="#63b8ff" d="M1017.19,-186.93C1048.95,-177.28 1091.67,-163.92 1129,-151 1130.65,-150.43 1132.34,-149.83 1134.04,-149.22"/>
<polygon fill="#63b8ff" stroke="#63b8ff" points="1135.59,-152.38 1143.77,-145.65 1133.18,-145.81 1135.59,-152.38"/>
</a>
</g>
</g>
<!-- Node16&#45;&gt;Node2 -->
<g id="edge22_Node000016_Node000002" class="edge">
<title>Node16&#45;&gt;Node2</title>
<g id="a_edge22_Node000016_Node000002"><a xlink:title=" ">
<path fill="none" stroke="#63b8ff" d="M390.71,-253.27C336.43,-242.96 262.12,-228.85 206.05,-218.2"/>
<polygon fill="#63b8ff" stroke="#63b8ff" points="206.63,-214.75 196.16,-216.32 205.33,-221.63 206.63,-214.75"/>
</a>
</g>
</g>
<!-- Node16&#45;&gt;Node4 -->
<g id="edge34_Node000016_Node000004" class="edge">
<title>Node16&#45;&gt;Node4</title>
<g id="a_edge34_Node000016_Node000004"><a xlink:title=" ">
<path fill="none" stroke="#63b8ff" d="M409.04,-252.97C345,-232.98 249.27,-190.78 270,-121 279.97,-87.44 283.76,-74.25 313,-55 344.62,-34.19 444.34,-21.62 510.14,-15.38"/>
<polygon fill="#63b8ff" stroke="#63b8ff" points="510.76,-18.83 520.39,-14.43 510.11,-11.86 510.76,-18.83"/>
</a>
</g>
</g>
<!-- Node16&#45;&gt;Node17 -->
<g id="edge23_Node000016_Node000017" class="edge">
<title>Node16&#45;&gt;Node17</title>
<g id="a_edge23_Node000016_Node000017"><a xlink:title=" ">
<path fill="none" stroke="#63b8ff" d="M502.72,-252.95C529.83,-243.37 565.94,-230.6 594.86,-220.37"/>
<polygon fill="#63b8ff" stroke="#63b8ff" points="596.11,-223.65 604.37,-217.01 593.78,-217.05 596.11,-223.65"/>
</a>
</g>
</g>
<!-- Node17&#45;&gt;Node4 -->
<g id="edge28_Node000017_Node000004" class="edge">
<title>Node17&#45;&gt;Node4</title>
<g id="a_edge28_Node000017_Node000004"><a xlink:title=" ">
<path fill="none" stroke="#63b8ff" d="M580.59,-190.35C538.22,-181.79 487.96,-168.34 475,-151 441.36,-105.97 510.74,-50.27 548.6,-24.63"/>
<polygon fill="#63b8ff" stroke="#63b8ff" points="550.61,-27.5 557.03,-19.07 546.75,-21.66 550.61,-27.5"/>
</a>
</g>
</g>
<!-- Node17&#45;&gt;Node6 -->
<g id="edge24_Node000017_Node000006" class="edge">
<title>Node17&#45;&gt;Node6</title>
<g id="a_edge24_Node000017_Node000006"><a xlink:title=" ">
<path fill="none" stroke="#63b8ff" d="M581.46,-186.95C528.83,-175.14 454.7,-158.49 406.75,-147.72"/>
<polygon fill="#63b8ff" stroke="#63b8ff" points="407.45,-144.29 396.93,-145.52 405.92,-151.12 407.45,-144.29"/>
</a>
</g>
</g>
<!-- Node17&#45;&gt;Node7 -->
<g id="edge27_Node000017_Node000007" class="edge">
<title>Node17&#45;&gt;Node7</title>
<g id="a_edge27_Node000017_Node000007"><a xlink:title=" ">
<path fill="none" stroke="#63b8ff" d="M657.54,-186.8C667.05,-176.82 679.78,-163.46 689.67,-153.09"/>
<polygon fill="#63b8ff" stroke="#63b8ff" points="692.2,-155.5 696.57,-145.84 687.14,-150.67 692.2,-155.5"/>
</a>
</g>
</g>
<!-- Node17&#45;&gt;Node8 -->
<g id="edge26_Node000017_Node000008" class="edge">
<title>Node17&#45;&gt;Node8</title>
<g id="a_edge26_Node000017_Node000008"><a xlink:title=" ">
<path fill="none" stroke="#63b8ff" d="M688.85,-186.93C714.71,-178.08 747.46,-165.58 775,-151 795.59,-140.1 796.68,-130.4 818,-121 868.58,-98.7 930.18,-85.84 975.66,-78.76"/>
<polygon fill="#63b8ff" stroke="#63b8ff" points="976.32,-82.2 985.68,-77.25 975.28,-75.28 976.32,-82.2"/>
</a>
</g>
</g>
<!-- Node17&#45;&gt;Node10 -->
<g id="edge31_Node000017_Node000010" class="edge">
<title>Node17&#45;&gt;Node10</title>
<g id="a_edge31_Node000017_Node000010"><a xlink:title=" ">
<path fill="none" stroke="#63b8ff" d="M707,-187.4C738.85,-179.2 777.54,-167.17 810,-151 830.21,-140.93 830.09,-129.52 851,-121 955.78,-78.32 1002.79,-137.53 1103,-85 1128.29,-71.74 1149.21,-45.43 1161.15,-27.89"/>
<polygon fill="#63b8ff" stroke="#63b8ff" points="1164.3,-29.48 1166.84,-19.19 1158.44,-25.65 1164.3,-29.48"/>
</a>
</g>
</g>
<!-- Node17&#45;&gt;Node11 -->
<g id="edge32_Node000017_Node000011" class="edge">
<title>Node17&#45;&gt;Node11</title>
<g id="a_edge32_Node000017_Node000011"><a xlink:title=" ">
<path fill="none" stroke="#63b8ff" d="M641.2,-186.59C639.31,-176.62 636.83,-163.03 635,-151 631.84,-130.29 628.96,-106.45 627.11,-90.22"/>
<polygon fill="#63b8ff" stroke="#63b8ff" points="630.54,-89.45 625.95,-79.9 623.59,-90.23 630.54,-89.45"/>
</a>
</g>
</g>
<!-- Node18 -->
<g id="Node000018" class="node">
<title>Node18</title>
<g id="a_Node000018"><a xlink:title=" ">
<polygon fill="#e0e0e0" stroke="#999999" points="1119.5,-151 1010.5,-151 1010.5,-121 1119.5,-121 1119.5,-151"/>
<text text-anchor="start" x="1018.5" y="-139" font-family="Helvetica,sans-Serif" font-size="10.00">deal.II/matrix_free</text>
<text text-anchor="middle" x="1065" y="-128" font-family="Helvetica,sans-Serif" font-size="10.00">/evaluation_flags.h</text>
</a>
</g>
</g>
<!-- Node17&#45;&gt;Node18 -->
<g id="edge25_Node000017_Node000018" class="edge">
<title>Node17&#45;&gt;Node18</title>
<g id="a_edge25_Node000017_Node000018"><a xlink:title=" ">
<path fill="none" stroke="#63b8ff" d="M707.11,-193.64C776.46,-185.21 891.37,-170.28 1000.08,-151.08"/>
<polygon fill="#63b8ff" stroke="#63b8ff" points="1001.01,-154.47 1010.24,-149.27 999.78,-147.57 1001.01,-154.47"/>
</a>
</g>
</g>
<!-- Node19 -->
<g id="Node000019" class="node">
<title>Node19</title>
<g id="a_Node000019"><a xlink:title=" ">
<polygon fill="#e0e0e0" stroke="#999999" points="522,-145.5 484,-145.5 484,-126.5 522,-126.5 522,-145.5"/>
<text text-anchor="middle" x="503" y="-133.5" font-family="Helvetica,sans-Serif" font-size="10.00">map</text>
</a>
</g>
</g>
<!-- Node17&#45;&gt;Node19 -->
<g id="edge29_Node000017_Node000019" class="edge">
<title>Node17&#45;&gt;Node19</title>
<g id="a_edge29_Node000017_Node000019"><a xlink:title=" ">
<path fill="none" stroke="#63b8ff" d="M611.54,-186.81C589.12,-176.94 558.65,-163.38 532,-151 531.18,-150.62 530.35,-150.23 529.51,-149.84"/>
<polygon fill="#63b8ff" stroke="#63b8ff" points="530.98,-146.66 520.44,-145.52 527.97,-152.98 530.98,-146.66"/>
</a>
</g>
</g>
<!-- Node17&#45;&gt;Node20 -->
<g id="edge30_Node000017_Node000020" class="edge">
<title>Node17&#45;&gt;Node20</title>
<g id="a_edge30_Node000017_Node000020"><a xlink:title=" ">
<path fill="none" stroke="#63b8ff" d="M707.26,-188.65C747.55,-179.97 800.52,-167.07 846,-151 847.42,-150.5 848.87,-149.95 850.32,-149.37"/>
<polygon fill="#63b8ff" stroke="#63b8ff" points="851.95,-152.48 859.74,-145.29 849.17,-146.06 851.95,-152.48"/>
</a>
</g>
</g>
<!-- Node21 -->
<g id="Node000021" class="node">
<title>Node21</title>
<g id="a_Node000021"><a xlink:title=" ">
<polygon fill="#e0e0e0" stroke="#999999" points="587.5,-145.5 540.5,-145.5 540.5,-126.5 587.5,-126.5 587.5,-145.5"/>
<text text-anchor="middle" x="564" y="-133.5" font-family="Helvetica,sans-Serif" font-size="10.00">vector</text>
</a>
</g>
</g>
<!-- Node17&#45;&gt;Node21 -->
<g id="edge33_Node000017_Node000021" class="edge">
<title>Node17&#45;&gt;Node21</title>
<g id="a_edge33_Node000017_Node000021"><a xlink:title=" ">
<path fill="none" stroke="#63b8ff" d="M626.25,-186.8C613.41,-176.53 596.08,-162.67 582.97,-152.18"/>
<polygon fill="#63b8ff" stroke="#63b8ff" points="585.05,-149.36 575.06,-145.84 580.68,-154.82 585.05,-149.36"/>
</a>
</g>
</g>
<!-- Node22&#45;&gt;Node4 -->
<g id="edge42_Node000022_Node000004" class="edge">
<title>Node22&#45;&gt;Node4</title>
<g id="a_edge42_Node000022_Node000004"><a xlink:title=" ">
<path fill="none" stroke="#63b8ff" d="M1552.45,-186.99C1522.64,-177.26 1482.27,-163.78 1447,-151 1412.47,-138.49 1405.75,-129.42 1370,-121 1199.28,-80.77 1150.75,-108.99 977,-85 904.46,-74.98 887.02,-68.24 815,-55 751.01,-43.24 677.56,-29.86 628.11,-20.87"/>
<polygon fill="#63b8ff" stroke="#63b8ff" points="628.7,-17.42 618.24,-19.08 627.45,-24.31 628.7,-17.42"/>
</a>
</g>
</g>
<!-- Node22&#45;&gt;Node13 -->
<g id="edge36_Node000022_Node000013" class="edge">
<title>Node22&#45;&gt;Node13</title>
<g id="a_edge36_Node000022_Node000013"><a xlink:title=" ">
<path fill="none" stroke="#63b8ff" d="M1546.48,-190.07C1492.83,-178.23 1407.79,-159.46 1354.53,-147.71"/>
<polygon fill="#63b8ff" stroke="#63b8ff" points="1355.17,-144.27 1344.65,-145.53 1353.66,-151.1 1355.17,-144.27"/>
</a>
</g>
</g>
<!-- Node22&#45;&gt;Node18 -->
<g id="edge39_Node000022_Node000018" class="edge">
<title>Node22&#45;&gt;Node18</title>
<g id="a_edge39_Node000022_Node000018"><a xlink:title=" ">
<path fill="none" stroke="#63b8ff" d="M1546.34,-197.47C1462.51,-191.11 1287.48,-176.17 1129.63,-150.98"/>
<polygon fill="#63b8ff" stroke="#63b8ff" points="1130.17,-147.52 1119.74,-149.38 1129.05,-154.43 1130.17,-147.52"/>
</a>
</g>
</g>
<!-- Node23 -->
<g id="Node000023" class="node">
<title>Node23</title>
<g id="a_Node000023"><a xlink:title=" ">
<polygon fill="#e0e0e0" stroke="#999999" points="1725.5,-145.5 1610.5,-145.5 1610.5,-126.5 1725.5,-126.5 1725.5,-145.5"/>
<text text-anchor="middle" x="1668" y="-133.5" font-family="Helvetica,sans-Serif" font-size="10.00">deal.II/base/tensor.h</text>
</a>
</g>
</g>
<!-- Node22&#45;&gt;Node23 -->
<g id="edge37_Node000022_Node000023" class="edge">
<title>Node22&#45;&gt;Node23</title>
<g id="a_edge37_Node000022_Node000023"><a xlink:title=" ">
<path fill="none" stroke="#63b8ff" d="M1611.98,-186.8C1623.31,-176.72 1638.53,-163.19 1650.25,-152.78"/>
<polygon fill="#63b8ff" stroke="#63b8ff" points="1652.9,-155.1 1658.05,-145.84 1648.25,-149.87 1652.9,-155.1"/>
</a>
</g>
</g>
<!-- Node24 -->
<g id="Node000024" class="node">
<title>Node24</title>
<g id="a_Node000024"><a xlink:title=" ">
<polygon fill="#e0e0e0" stroke="#999999" points="1749.5,-79.5 1600.5,-79.5 1600.5,-60.5 1749.5,-60.5 1749.5,-79.5"/>
<text text-anchor="middle" x="1675" y="-67.5" font-family="Helvetica,sans-Serif" font-size="10.00">deal.II/base/vectorization.h</text>
</a>
</g>
</g>
<!-- Node22&#45;&gt;Node24 -->
<g id="edge38_Node000022_Node000024" class="edge">
<title>Node22&#45;&gt;Node24</title>
<g id="a_edge38_Node000022_Node000024"><a xlink:title=" ">
<path fill="none" stroke="#63b8ff" d="M1645.77,-197.15C1676.97,-191.86 1714.94,-179.53 1735,-151 1751.56,-127.45 1721.49,-100.84 1698.26,-85.02"/>
<polygon fill="#63b8ff" stroke="#63b8ff" points="1700.09,-82.04 1689.8,-79.51 1696.27,-87.9 1700.09,-82.04"/>
</a>
</g>
</g>
<!-- Node25 -->
<g id="Node000025" class="node">
<title>Node25</title>
<g id="a_Node000025"><a xlink:title=" ">
<polygon fill="#e0e0e0" stroke="#999999" points="1928,-145.5 1782,-145.5 1782,-126.5 1928,-126.5 1928,-145.5"/>
<text text-anchor="middle" x="1855" y="-133.5" font-family="Helvetica,sans-Serif" font-size="10.00">boost/range/algorithm.hpp</text>
</a>
</g>
</g>
<!-- Node22&#45;&gt;Node25 -->
<g id="edge40_Node000022_Node000025" class="edge">
<title>Node22&#45;&gt;Node25</title>
<g id="a_edge40_Node000022_Node000025"><a xlink:title=" ">
<path fill="none" stroke="#63b8ff" d="M1645.63,-188.74C1693.29,-176.96 1764.63,-159.33 1810.49,-148"/>
<polygon fill="#63b8ff" stroke="#63b8ff" points="1811.57,-151.34 1820.44,-145.54 1809.89,-144.54 1811.57,-151.34"/>
</a>
</g>
</g>
<!-- Node26 -->
<g id="Node000026" class="node">
<title>Node26</title>
<g id="a_Node000026"><a xlink:title=" ">
<polygon fill="#e0e0e0" stroke="#999999" points="2071.5,-151 1946.5,-151 1946.5,-121 2071.5,-121 2071.5,-151"/>
<text text-anchor="start" x="1954.5" y="-139" font-family="Helvetica,sans-Serif" font-size="10.00">boost/range/algorithm</text>
<text text-anchor="middle" x="2009" y="-128" font-family="Helvetica,sans-Serif" font-size="10.00">_ext.hpp</text>
</a>
</g>
</g>
<!-- Node22&#45;&gt;Node26 -->
<g id="edge41_Node000022_Node000026" class="edge">
<title>Node22&#45;&gt;Node26</title>
<g id="a_edge41_Node000022_Node000026"><a xlink:title=" ">
<path fill="none" stroke="#63b8ff" d="M1645.53,-194.47C1710.04,-185.81 1826.55,-169.6 1936.29,-151.07"/>
<polygon fill="#63b8ff" stroke="#63b8ff" points="1936.93,-154.51 1946.2,-149.39 1935.76,-147.61 1936.93,-154.51"/>
</a>
</g>
</g>
<!-- Node27 -->
<g id="Node000027" class="node">
<title>Node27</title>
<g id="a_Node000027"><a xlink:title=" ">
<polygon fill="#e0e0e0" stroke="#999999" points="2132,-145.5 2090,-145.5 2090,-126.5 2132,-126.5 2132,-145.5"/>
<text text-anchor="middle" x="2111" y="-133.5" font-family="Helvetica,sans-Serif" font-size="10.00">array</text>
</a>
</g>
</g>
<!-- Node22&#45;&gt;Node27 -->
<g id="edge43_Node000022_Node000027" class="edge">
<title>Node22&#45;&gt;Node27</title>
<g id="a_edge43_Node000022_Node000027"><a xlink:title=" ">
<path fill="none" stroke="#63b8ff" d="M1645.53,-201.29C1734.42,-200.62 1926.19,-193.79 2081,-151 2082.64,-150.55 2084.3,-150.01 2085.95,-149.42"/>
<polygon fill="#63b8ff" stroke="#63b8ff" points="2087.3,-152.65 2095.18,-145.58 2084.61,-146.19 2087.3,-152.65"/>
</a>
</g>
</g>
<!-- Node28 -->
<g id="Node000028" class="node">
<title>Node28</title>
<g id="a_Node000028"><a xlink:href="vectorized__operations_8h.html" target="_top" xlink:title=" ">
<polygon fill="white" stroke="#666666" points="1592.5,-151 1455.5,-151 1455.5,-121 1592.5,-121 1592.5,-151"/>
<text text-anchor="start" x="1463.5" y="-139" font-family="Helvetica,sans-Serif" font-size="10.00">prismspf/utilities</text>
<text text-anchor="middle" x="1524" y="-128" font-family="Helvetica,sans-Serif" font-size="10.00">/vectorized_operations.h</text>
</a>
</g>
</g>
<!-- Node22&#45;&gt;Node28 -->
<g id="edge44_Node000022_Node000028" class="edge">
<title>Node22&#45;&gt;Node28</title>
<g id="a_edge44_Node000022_Node000028"><a xlink:title=" ">
<path fill="none" stroke="#63b8ff" d="M1580.02,-186.8C1570.51,-178.34 1558.27,-167.46 1547.66,-158.03"/>
<polygon fill="#63b8ff" stroke="#63b8ff" points="1549.73,-155.19 1539.93,-151.16 1545.08,-160.42 1549.73,-155.19"/>
</a>
</g>
</g>
<!-- Node28&#45;&gt;Node4 -->
<g id="edge46_Node000028_Node000004" class="edge">
<title>Node28&#45;&gt;Node4</title>
<g id="a_edge46_Node000028_Node000004"><a xlink:title=" ">
<path fill="none" stroke="#63b8ff" d="M1461.21,-120.94C1379.23,-103.08 1231.08,-72.48 1103,-55 933.15,-31.82 731.04,-18.91 631.93,-13.52"/>
<polygon fill="#63b8ff" stroke="#63b8ff" points="631.98,-10.02 621.81,-12.98 631.6,-17.01 631.98,-10.02"/>
</a>
</g>
</g>
<!-- Node28&#45;&gt;Node24 -->
<g id="edge45_Node000028_Node000024" class="edge">
<title>Node28&#45;&gt;Node24</title>
<g id="a_edge45_Node000028_Node000024"><a xlink:title=" ">
<path fill="none" stroke="#63b8ff" d="M1557.14,-120.95C1583.5,-109.78 1620.06,-94.29 1645.44,-83.53"/>
<polygon fill="#63b8ff" stroke="#63b8ff" points="1647.06,-86.64 1654.9,-79.52 1644.33,-80.2 1647.06,-86.64"/>
</a>
</g>
</g>
</g>
</svg>
