<?xml version="1.0" encoding="UTF-8" standalone="no"?>
<!DOCTYPE svg PUBLIC "-//W3C//DTD SVG 1.1//EN"
 "http://www.w3.org/Graphics/SVG/1.1/DTD/svg11.dtd">
<!-- Generated by graphviz version 2.43.0 (0)
 -->
<!-- Title: /home/runner/work/phaseField/phaseField/include/prismspf/user_inputs/parameter_base.h Pages: 1 -->
<svg width="962pt" height="302pt"
 viewBox="0.00 0.00 961.50 302.00" xmlns="http://www.w3.org/2000/svg" xmlns:xlink="http://www.w3.org/1999/xlink">
<g id="graph0" class="graph" transform="scale(1 1) rotate(0) translate(4 298)">
<title>/home/runner/work/phaseField/phaseField/include/prismspf/user_inputs/parameter_base.h</title>
<!-- Node1 -->
<g id="Node000001" class="node">
<title>Node1</title>
<g id="a_Node000001"><a xlink:title=" ">
<polygon fill="#999999" stroke="#666666" points="279.5,-294 112.5,-294 112.5,-253 279.5,-253 279.5,-294"/>
<text text-anchor="start" x="120.5" y="-282" font-family="Helvetica,sans-Serif" font-size="10.00">/home/runner/work/phaseField</text>
<text text-anchor="start" x="120.5" y="-271" font-family="Helvetica,sans-Serif" font-size="10.00">/phaseField/include/prismspf</text>
<text text-anchor="middle" x="196" y="-260" font-family="Helvetica,sans-Serif" font-size="10.00">/user_inputs/parameter_base.h</text>
</a>
</g>
</g>
<!-- Node2 -->
<g id="Node000002" class="node">
<title>Node2</title>
<g id="a_Node000002"><a xlink:href="conditional__ostreams_8h.html" target="_top" xlink:title=" ">
<polygon fill="white" stroke="#666666" points="168,-217 28,-217 28,-187 168,-187 168,-217"/>
<text text-anchor="start" x="36" y="-205" font-family="Helvetica,sans-Serif" font-size="10.00">prismspf/core/conditional</text>
<text text-anchor="middle" x="98" y="-194" font-family="Helvetica,sans-Serif" font-size="10.00">_ostreams.h</text>
</a>
</g>
</g>
<!-- Node1&#45;&gt;Node2 -->
<g id="edge1_Node000001_Node000002" class="edge">
<title>Node1&#45;&gt;Node2</title>
<g id="a_edge1_Node000001_Node000002"><a xlink:title=" ">
<path fill="none" stroke="#63b8ff" d="M168.44,-252.96C155.25,-243.6 139.48,-232.42 126.21,-223.01"/>
<polygon fill="#63b8ff" stroke="#63b8ff" points="128.08,-220.04 117.9,-217.11 124.03,-225.75 128.08,-220.04"/>
</a>
</g>
</g>
<!-- Node4 -->
<g id="Node000004" class="node">
<title>Node4</title>
<g id="a_Node000004"><a xlink:title=" ">
<polygon fill="#e0e0e0" stroke="#999999" points="284.5,-19 183.5,-19 183.5,0 284.5,0 284.5,-19"/>
<text text-anchor="middle" x="234" y="-7" font-family="Helvetica,sans-Serif" font-size="10.00">prismspf/config.h</text>
</a>
</g>
</g>
<!-- Node1&#45;&gt;Node4 -->
<g id="edge21_Node000001_Node000004" class="edge">
<title>Node1&#45;&gt;Node4</title>
<g id="a_edge21_Node000001_Node000004"><a xlink:title=" ">
<path fill="none" stroke="#63b8ff" d="M198.86,-252.81C205.95,-203.89 224.31,-77.34 231.27,-29.34"/>
<polygon fill="#63b8ff" stroke="#63b8ff" points="234.74,-29.79 232.71,-19.39 227.81,-28.78 234.74,-29.79"/>
</a>
</g>
</g>
<!-- Node5 -->
<g id="Node000005" class="node">
<title>Node5</title>
<g id="a_Node000005"><a xlink:href="variable__attributes_8h.html" target="_top" xlink:title=" ">
<polygon fill="white" stroke="#666666" points="560,-217 434,-217 434,-187 560,-187 560,-217"/>
<text text-anchor="start" x="442" y="-205" font-family="Helvetica,sans-Serif" font-size="10.00">prismspf/core/variable</text>
<text text-anchor="middle" x="497" y="-194" font-family="Helvetica,sans-Serif" font-size="10.00">_attributes.h</text>
</a>
</g>
</g>
<!-- Node1&#45;&gt;Node5 -->
<g id="edge4_Node000001_Node000005" class="edge">
<title>Node1&#45;&gt;Node5</title>
<g id="a_edge4_Node000001_Node000005"><a xlink:title=" ">
<path fill="none" stroke="#63b8ff" d="M279.85,-253.14C325.84,-242.52 382.24,-229.5 426.04,-219.39"/>
<polygon fill="#63b8ff" stroke="#63b8ff" points="427.07,-222.74 436.03,-217.08 425.5,-215.92 427.07,-222.74"/>
</a>
</g>
</g>
<!-- Node3 -->
<g id="Node000003" class="node">
<title>Node3</title>
<g id="a_Node000003"><a xlink:title=" ">
<polygon fill="#e0e0e0" stroke="#999999" points="130,-151 0,-151 0,-121 130,-121 130,-151"/>
<text text-anchor="start" x="8" y="-139" font-family="Helvetica,sans-Serif" font-size="10.00">deal.II/base/conditional</text>
<text text-anchor="middle" x="65" y="-128" font-family="Helvetica,sans-Serif" font-size="10.00">_ostream.h</text>
</a>
</g>
</g>
<!-- Node2&#45;&gt;Node3 -->
<g id="edge2_Node000002_Node000003" class="edge">
<title>Node2&#45;&gt;Node3</title>
<g id="a_edge2_Node000002_Node000003"><a xlink:title=" ">
<path fill="none" stroke="#63b8ff" d="M90.68,-186.8C86.66,-179.01 81.58,-169.16 77,-160.28"/>
<polygon fill="#63b8ff" stroke="#63b8ff" points="80,-158.45 72.3,-151.16 73.78,-161.66 80,-158.45"/>
</a>
</g>
</g>
<!-- Node2&#45;&gt;Node4 -->
<g id="edge3_Node000002_Node000004" class="edge">
<title>Node2&#45;&gt;Node4</title>
<g id="a_edge3_Node000002_Node000004"><a xlink:title=" ">
<path fill="none" stroke="#63b8ff" d="M111.29,-186.9C119.9,-177.28 130.97,-163.98 139,-151 163.59,-111.24 154,-92.44 182,-55 190.56,-43.55 202.56,-33.03 212.88,-25.1"/>
<polygon fill="#63b8ff" stroke="#63b8ff" points="215.06,-27.84 221.03,-19.08 210.91,-22.21 215.06,-27.84"/>
</a>
</g>
</g>
<!-- Node5&#45;&gt;Node4 -->
<g id="edge15_Node000005_Node000004" class="edge">
<title>Node5&#45;&gt;Node4</title>
<g id="a_edge15_Node000005_Node000004"><a xlink:title=" ">
<path fill="none" stroke="#63b8ff" d="M433.89,-193.63C377.51,-185.83 300.45,-171.74 278,-151 243.21,-118.85 235.73,-59.62 234.25,-29.36"/>
<polygon fill="#63b8ff" stroke="#63b8ff" points="237.75,-29.19 233.94,-19.3 230.75,-29.41 237.75,-29.19"/>
</a>
</g>
</g>
<!-- Node6 -->
<g id="Node000006" class="node">
<title>Node6</title>
<g id="a_Node000006"><a xlink:title=" ">
<polygon fill="#e0e0e0" stroke="#999999" points="826,-145.5 688,-145.5 688,-126.5 826,-126.5 826,-145.5"/>
<text text-anchor="middle" x="757" y="-133.5" font-family="Helvetica,sans-Serif" font-size="10.00">deal.II/base/exceptions.h</text>
</a>
</g>
</g>
<!-- Node5&#45;&gt;Node6 -->
<g id="edge5_Node000005_Node000006" class="edge">
<title>Node5&#45;&gt;Node6</title>
<g id="a_edge5_Node000005_Node000006"><a xlink:title=" ">
<path fill="none" stroke="#63b8ff" d="M554.06,-186.95C601.76,-175.21 668.85,-158.7 712.62,-147.93"/>
<polygon fill="#63b8ff" stroke="#63b8ff" points="713.52,-151.31 722.4,-145.52 711.85,-144.51 713.52,-151.31"/>
</a>
</g>
</g>
<!-- Node7 -->
<g id="Node000007" class="node">
<title>Node7</title>
<g id="a_Node000007"><a xlink:title=" ">
<polygon fill="#e0e0e0" stroke="#999999" points="953.5,-151 844.5,-151 844.5,-121 953.5,-121 953.5,-151"/>
<text text-anchor="start" x="852.5" y="-139" font-family="Helvetica,sans-Serif" font-size="10.00">deal.II/matrix_free</text>
<text text-anchor="middle" x="899" y="-128" font-family="Helvetica,sans-Serif" font-size="10.00">/evaluation_flags.h</text>
</a>
</g>
</g>
<!-- Node5&#45;&gt;Node7 -->
<g id="edge6_Node000005_Node000007" class="edge">
<title>Node5&#45;&gt;Node7</title>
<g id="a_edge6_Node000005_Node000007"><a xlink:title=" ">
<path fill="none" stroke="#63b8ff" d="M560.13,-192.98C625.99,-184.31 732.46,-169.46 834.1,-151.09"/>
<polygon fill="#63b8ff" stroke="#63b8ff" points="835.03,-154.47 844.24,-149.24 833.77,-147.59 835.03,-154.47"/>
</a>
</g>
</g>
<!-- Node8 -->
<g id="Node000008" class="node">
<title>Node8</title>
<g id="a_Node000008"><a xlink:href="type__enums_8h.html" target="_top" xlink:title=" ">
<polygon fill="white" stroke="#666666" points="497,-85 389,-85 389,-55 497,-55 497,-85"/>
<text text-anchor="start" x="397" y="-73" font-family="Helvetica,sans-Serif" font-size="10.00">prismspf/core/type</text>
<text text-anchor="middle" x="443" y="-62" font-family="Helvetica,sans-Serif" font-size="10.00">_enums.h</text>
</a>
</g>
</g>
<!-- Node5&#45;&gt;Node8 -->
<g id="edge7_Node000005_Node000008" class="edge">
<title>Node5&#45;&gt;Node8</title>
<g id="a_edge7_Node000005_Node000008"><a xlink:title=" ">
<path fill="none" stroke="#63b8ff" d="M488.14,-186.94C482.21,-177.13 474.5,-163.58 469,-151 460.98,-132.67 454.1,-111.05 449.43,-94.91"/>
<polygon fill="#63b8ff" stroke="#63b8ff" points="452.78,-93.86 446.7,-85.18 446.04,-95.76 452.78,-93.86"/>
</a>
</g>
</g>
<!-- Node10 -->
<g id="Node000010" class="node">
<title>Node10</title>
<g id="a_Node000010"><a xlink:title=" ">
<polygon fill="#e0e0e0" stroke="#999999" points="606,-19 562,-19 562,0 606,0 606,-19"/>
<text text-anchor="middle" x="584" y="-7" font-family="Helvetica,sans-Serif" font-size="10.00">string</text>
</a>
</g>
</g>
<!-- Node5&#45;&gt;Node10 -->
<g id="edge18_Node000005_Node000010" class="edge">
<title>Node5&#45;&gt;Node10</title>
<g id="a_edge18_Node000005_Node000010"><a xlink:title=" ">
<path fill="none" stroke="#63b8ff" d="M560.16,-195.57C589.8,-189.48 622.59,-176.88 641,-151 669.62,-110.76 625.69,-54.05 600.17,-26.62"/>
<polygon fill="#63b8ff" stroke="#63b8ff" points="602.39,-23.88 592.94,-19.09 597.34,-28.73 602.39,-23.88"/>
</a>
</g>
</g>
<!-- Node11 -->
<g id="Node000011" class="node">
<title>Node11</title>
<g id="a_Node000011"><a xlink:href="types_8h.html" target="_top" xlink:title=" ">
<polygon fill="white" stroke="#666666" points="422,-145.5 300,-145.5 300,-126.5 422,-126.5 422,-145.5"/>
<text text-anchor="middle" x="361" y="-133.5" font-family="Helvetica,sans-Serif" font-size="10.00">prismspf/core/types.h</text>
</a>
</g>
</g>
<!-- Node5&#45;&gt;Node11 -->
<g id="edge11_Node000005_Node000011" class="edge">
<title>Node5&#45;&gt;Node11</title>
<g id="a_edge11_Node000005_Node000011"><a xlink:title=" ">
<path fill="none" stroke="#63b8ff" d="M467.15,-186.95C443.62,-175.88 411.07,-160.56 388.23,-149.82"/>
<polygon fill="#63b8ff" stroke="#63b8ff" points="389.64,-146.61 379.1,-145.52 386.66,-152.94 389.64,-146.61"/>
</a>
</g>
</g>
<!-- Node12 -->
<g id="Node000012" class="node">
<title>Node12</title>
<g id="a_Node000012"><a xlink:title=" ">
<polygon fill="#e0e0e0" stroke="#999999" points="319.5,-79.5 274.5,-79.5 274.5,-60.5 319.5,-60.5 319.5,-79.5"/>
<text text-anchor="middle" x="297" y="-67.5" font-family="Helvetica,sans-Serif" font-size="10.00">utility</text>
</a>
</g>
</g>
<!-- Node5&#45;&gt;Node12 -->
<g id="edge19_Node000005_Node000012" class="edge">
<title>Node5&#45;&gt;Node12</title>
<g id="a_edge19_Node000005_Node000012"><a xlink:title=" ">
<path fill="none" stroke="#63b8ff" d="M433.82,-194.19C379.97,-186.93 308.57,-173.35 291,-151 277.31,-133.59 282.94,-106.95 289.17,-89.25"/>
<polygon fill="#63b8ff" stroke="#63b8ff" points="292.58,-90.15 292.96,-79.56 286.06,-87.6 292.58,-90.15"/>
</a>
</g>
</g>
<!-- Node13 -->
<g id="Node000013" class="node">
<title>Node13</title>
<g id="a_Node000013"><a xlink:title=" ">
<polygon fill="#e0e0e0" stroke="#999999" points="516,-145.5 478,-145.5 478,-126.5 516,-126.5 516,-145.5"/>
<text text-anchor="middle" x="497" y="-133.5" font-family="Helvetica,sans-Serif" font-size="10.00">map</text>
</a>
</g>
</g>
<!-- Node5&#45;&gt;Node13 -->
<g id="edge16_Node000005_Node000013" class="edge">
<title>Node5&#45;&gt;Node13</title>
<g id="a_edge16_Node000005_Node000013"><a xlink:title=" ">
<path fill="none" stroke="#63b8ff" d="M497,-186.8C497,-177.7 497,-165.79 497,-155.9"/>
<polygon fill="#63b8ff" stroke="#63b8ff" points="500.5,-155.84 497,-145.84 493.5,-155.84 500.5,-155.84"/>
</a>
</g>
</g>
<!-- Node14 -->
<g id="Node000014" class="node">
<title>Node14</title>
<g id="a_Node000014"><a xlink:title=" ">
<polygon fill="#e0e0e0" stroke="#999999" points="566,-145.5 534,-145.5 534,-126.5 566,-126.5 566,-145.5"/>
<text text-anchor="middle" x="550" y="-133.5" font-family="Helvetica,sans-Serif" font-size="10.00">set</text>
</a>
</g>
</g>
<!-- Node5&#45;&gt;Node14 -->
<g id="edge17_Node000005_Node000014" class="edge">
<title>Node5&#45;&gt;Node14</title>
<g id="a_edge17_Node000005_Node000014"><a xlink:title=" ">
<path fill="none" stroke="#63b8ff" d="M508.76,-186.8C516.86,-177.01 527.66,-163.98 536.17,-153.7"/>
<polygon fill="#63b8ff" stroke="#63b8ff" points="538.99,-155.78 542.68,-145.84 533.6,-151.31 538.99,-155.78"/>
</a>
</g>
</g>
<!-- Node15 -->
<g id="Node000015" class="node">
<title>Node15</title>
<g id="a_Node000015"><a xlink:title=" ">
<polygon fill="#e0e0e0" stroke="#999999" points="631.5,-145.5 584.5,-145.5 584.5,-126.5 631.5,-126.5 631.5,-145.5"/>
<text text-anchor="middle" x="608" y="-133.5" font-family="Helvetica,sans-Serif" font-size="10.00">vector</text>
</a>
</g>
</g>
<!-- Node5&#45;&gt;Node15 -->
<g id="edge20_Node000005_Node000015" class="edge">
<title>Node5&#45;&gt;Node15</title>
<g id="a_edge20_Node000005_Node000015"><a xlink:title=" ">
<path fill="none" stroke="#63b8ff" d="M521.36,-186.95C540.14,-176.13 565.95,-161.24 584.51,-150.54"/>
<polygon fill="#63b8ff" stroke="#63b8ff" points="586.31,-153.54 593.23,-145.52 582.82,-147.48 586.31,-153.54"/>
</a>
</g>
</g>
<!-- Node8&#45;&gt;Node4 -->
<g id="edge8_Node000008_Node000004" class="edge">
<title>Node8&#45;&gt;Node4</title>
<g id="a_edge8_Node000008_Node000004"><a xlink:title=" ">
<path fill="none" stroke="#63b8ff" d="M392.94,-54.99C356.71,-44.85 308.38,-31.32 274.56,-21.85"/>
<polygon fill="#63b8ff" stroke="#63b8ff" points="275.13,-18.38 264.56,-19.05 273.25,-25.12 275.13,-18.38"/>
</a>
</g>
</g>
<!-- Node9 -->
<g id="Node000009" class="node">
<title>Node9</title>
<g id="a_Node000009"><a xlink:title=" ">
<polygon fill="#e0e0e0" stroke="#999999" points="468,-19 418,-19 418,0 468,0 468,-19"/>
<text text-anchor="middle" x="443" y="-7" font-family="Helvetica,sans-Serif" font-size="10.00">cstdint</text>
</a>
</g>
</g>
<!-- Node8&#45;&gt;Node9 -->
<g id="edge9_Node000008_Node000009" class="edge">
<title>Node8&#45;&gt;Node9</title>
<g id="a_edge9_Node000008_Node000009"><a xlink:title=" ">
<path fill="none" stroke="#63b8ff" d="M443,-54.84C443,-47.21 443,-37.7 443,-29.45"/>
<polygon fill="#63b8ff" stroke="#63b8ff" points="446.5,-29.27 443,-19.27 439.5,-29.27 446.5,-29.27"/>
</a>
</g>
</g>
<!-- Node8&#45;&gt;Node10 -->
<g id="edge10_Node000008_Node000010" class="edge">
<title>Node8&#45;&gt;Node10</title>
<g id="a_edge10_Node000008_Node000010"><a xlink:title=" ">
<path fill="none" stroke="#63b8ff" d="M476.77,-54.99C500.19,-45.27 531.12,-32.44 553.73,-23.06"/>
<polygon fill="#63b8ff" stroke="#63b8ff" points="555.28,-26.2 563.18,-19.14 552.6,-19.74 555.28,-26.2"/>
</a>
</g>
</g>
<!-- Node11&#45;&gt;Node4 -->
<g id="edge13_Node000011_Node000004" class="edge">
<title>Node11&#45;&gt;Node4</title>
<g id="a_edge13_Node000011_Node000004"><a xlink:title=" ">
<path fill="none" stroke="#63b8ff" d="M359.7,-126.42C356.86,-110.44 348.72,-75.88 329,-55 314.8,-39.96 294.5,-29.5 276.3,-22.53"/>
<polygon fill="#63b8ff" stroke="#63b8ff" points="277.34,-19.18 266.75,-19.1 274.98,-25.77 277.34,-19.18"/>
</a>
</g>
</g>
<!-- Node11&#45;&gt;Node8 -->
<g id="edge12_Node000011_Node000008" class="edge">
<title>Node11&#45;&gt;Node8</title>
<g id="a_edge12_Node000011_Node000008"><a xlink:title=" ">
<path fill="none" stroke="#63b8ff" d="M372.06,-126.37C383.49,-117.44 401.76,-103.19 416.89,-91.38"/>
<polygon fill="#63b8ff" stroke="#63b8ff" points="419.18,-94.03 424.91,-85.12 414.88,-88.51 419.18,-94.03"/>
</a>
</g>
</g>
<!-- Node11&#45;&gt;Node12 -->
<g id="edge14_Node000011_Node000012" class="edge">
<title>Node11&#45;&gt;Node12</title>
<g id="a_edge14_Node000011_Node000012"><a xlink:title=" ">
<path fill="none" stroke="#63b8ff" d="M352.37,-126.37C342.31,-116.31 325.48,-99.48 313.01,-87.01"/>
<polygon fill="#63b8ff" stroke="#63b8ff" points="315.45,-84.5 305.91,-79.91 310.5,-89.45 315.45,-84.5"/>
</a>
</g>
</g>
</g>
</svg>
