<?xml version="1.0" encoding="UTF-8" standalone="no"?>
<!DOCTYPE svg PUBLIC "-//W3C//DTD SVG 1.1//EN"
 "http://www.w3.org/Graphics/SVG/1.1/DTD/svg11.dtd">
<!-- Generated by graphviz version 2.43.0 (0)
 -->
<!-- Title: /home/runner/work/phaseField/phaseField/include/prismspf/core/pde_problem.h Pages: 1 -->
<svg width="1652pt" height="368pt"
 viewBox="0.00 0.00 1651.50 368.00" xmlns="http://www.w3.org/2000/svg" xmlns:xlink="http://www.w3.org/1999/xlink">
<g id="graph0" class="graph" transform="scale(1 1) rotate(0) translate(4 364)">
<title>/home/runner/work/phaseField/phaseField/include/prismspf/core/pde_problem.h</title>
<!-- Node1 -->
<g id="Node000001" class="node">
<title>Node1</title>
<g id="a_Node000001"><a xlink:title=" ">
<polygon fill="#999999" stroke="#666666" points="684.5,-360 520.5,-360 520.5,-319 684.5,-319 684.5,-360"/>
<text text-anchor="start" x="528.5" y="-348" font-family="Helvetica,sans-Serif" font-size="10.00">/home/runner/work/phaseField</text>
<text text-anchor="start" x="528.5" y="-337" font-family="Helvetica,sans-Serif" font-size="10.00">/phaseField/include/prismspf</text>
<text text-anchor="middle" x="602.5" y="-326" font-family="Helvetica,sans-Serif" font-size="10.00">/core/pde_problem.h</text>
</a>
</g>
</g>
<!-- Node2 -->
<g id="Node000002" class="node">
<title>Node2</title>
<g id="a_Node000002"><a xlink:title=" ">
<polygon fill="#e0e0e0" stroke="#999999" points="121,-283 0,-283 0,-253 121,-253 121,-283"/>
<text text-anchor="start" x="8" y="-271" font-family="Helvetica,sans-Serif" font-size="10.00">deal.II/base/mg_level</text>
<text text-anchor="middle" x="60.5" y="-260" font-family="Helvetica,sans-Serif" font-size="10.00">_object.h</text>
</a>
</g>
</g>
<!-- Node1&#45;&gt;Node2 -->
<g id="edge1_Node000001_Node000002" class="edge">
<title>Node1&#45;&gt;Node2</title>
<g id="a_edge1_Node000001_Node000002"><a xlink:title=" ">
<path fill="none" stroke="#63b8ff" d="M520.18,-330.94C427.81,-321.99 273.3,-305.58 131.24,-283.2"/>
<polygon fill="#63b8ff" stroke="#63b8ff" points="131.46,-279.69 121.03,-281.58 130.36,-286.6 131.46,-279.69"/>
</a>
</g>
</g>
<!-- Node3 -->
<g id="Node000003" class="node">
<title>Node3</title>
<g id="a_Node000003"><a xlink:title=" ">
<polygon fill="#e0e0e0" stroke="#999999" points="268,-283 139,-283 139,-253 268,-253 268,-283"/>
<text text-anchor="start" x="147" y="-271" font-family="Helvetica,sans-Serif" font-size="10.00">deal.II/base/quadrature</text>
<text text-anchor="middle" x="203.5" y="-260" font-family="Helvetica,sans-Serif" font-size="10.00">_lib.h</text>
</a>
</g>
</g>
<!-- Node1&#45;&gt;Node3 -->
<g id="edge2_Node000001_Node000003" class="edge">
<title>Node1&#45;&gt;Node3</title>
<g id="a_edge2_Node000001_Node000003"><a xlink:title=" ">
<path fill="none" stroke="#63b8ff" d="M520.28,-324.88C456.91,-314.28 366.82,-299 278.04,-283.08"/>
<polygon fill="#63b8ff" stroke="#63b8ff" points="278.52,-279.61 268.06,-281.28 277.28,-286.5 278.52,-279.61"/>
</a>
</g>
</g>
<!-- Node4 -->
<g id="Node000004" class="node">
<title>Node4</title>
<g id="a_Node000004"><a xlink:title=" ">
<polygon fill="#e0e0e0" stroke="#999999" points="378.5,-277.5 286.5,-277.5 286.5,-258.5 378.5,-258.5 378.5,-277.5"/>
<text text-anchor="middle" x="332.5" y="-265.5" font-family="Helvetica,sans-Serif" font-size="10.00">deal.II/fe/fe_q.h</text>
</a>
</g>
</g>
<!-- Node1&#45;&gt;Node4 -->
<g id="edge3_Node000001_Node000004" class="edge">
<title>Node1&#45;&gt;Node4</title>
<g id="a_edge3_Node000001_Node000004"><a xlink:title=" ">
<path fill="none" stroke="#63b8ff" d="M526.57,-318.96C477.68,-306.37 415.92,-290.47 375.37,-280.03"/>
<polygon fill="#63b8ff" stroke="#63b8ff" points="376.09,-276.61 365.54,-277.5 374.35,-283.39 376.09,-276.61"/>
</a>
</g>
</g>
<!-- Node5 -->
<g id="Node000005" class="node">
<title>Node5</title>
<g id="a_Node000005"><a xlink:title=" ">
<polygon fill="#e0e0e0" stroke="#999999" points="518.5,-277.5 396.5,-277.5 396.5,-258.5 518.5,-258.5 518.5,-277.5"/>
<text text-anchor="middle" x="457.5" y="-265.5" font-family="Helvetica,sans-Serif" font-size="10.00">deal.II/fe/fe_system.h</text>
</a>
</g>
</g>
<!-- Node1&#45;&gt;Node5 -->
<g id="edge4_Node000001_Node000005" class="edge">
<title>Node1&#45;&gt;Node5</title>
<g id="a_edge4_Node000001_Node000005"><a xlink:title=" ">
<path fill="none" stroke="#63b8ff" d="M561.72,-318.96C537.03,-307.12 506.21,-292.35 484.51,-281.95"/>
<polygon fill="#63b8ff" stroke="#63b8ff" points="485.77,-278.67 475.24,-277.5 482.75,-284.98 485.77,-278.67"/>
</a>
</g>
</g>
<!-- Node6 -->
<g id="Node000006" class="node">
<title>Node6</title>
<g id="a_Node000006"><a xlink:title=" ">
<polygon fill="#e0e0e0" stroke="#999999" points="668,-277.5 537,-277.5 537,-258.5 668,-258.5 668,-277.5"/>
<text text-anchor="middle" x="602.5" y="-265.5" font-family="Helvetica,sans-Serif" font-size="10.00">deal.II/fe/mapping_q1.h</text>
</a>
</g>
</g>
<!-- Node1&#45;&gt;Node6 -->
<g id="edge5_Node000001_Node000006" class="edge">
<title>Node1&#45;&gt;Node6</title>
<g id="a_edge5_Node000001_Node000006"><a xlink:title=" ">
<path fill="none" stroke="#63b8ff" d="M602.5,-318.77C602.5,-309.08 602.5,-297.46 602.5,-287.88"/>
<polygon fill="#63b8ff" stroke="#63b8ff" points="606,-287.82 602.5,-277.82 599,-287.82 606,-287.82"/>
</a>
</g>
</g>
<!-- Node7 -->
<g id="Node000007" class="node">
<title>Node7</title>
<g id="a_Node000007"><a xlink:href="timer_8h.html" target="_top" xlink:title=" ">
<polygon fill="white" stroke="#666666" points="807,-277.5 686,-277.5 686,-258.5 807,-258.5 807,-277.5"/>
<text text-anchor="middle" x="746.5" y="-265.5" font-family="Helvetica,sans-Serif" font-size="10.00">prismspf/core/timer.h</text>
</a>
</g>
</g>
<!-- Node1&#45;&gt;Node7 -->
<g id="edge6_Node000001_Node000007" class="edge">
<title>Node1&#45;&gt;Node7</title>
<g id="a_edge6_Node000001_Node000007"><a xlink:title=" ">
<path fill="none" stroke="#63b8ff" d="M643,-318.96C667.52,-307.12 698.13,-292.35 719.67,-281.95"/>
<polygon fill="#63b8ff" stroke="#63b8ff" points="721.4,-285 728.88,-277.5 718.35,-278.7 721.4,-285"/>
</a>
</g>
</g>
<!-- Node9 -->
<g id="Node000009" class="node">
<title>Node9</title>
<g id="a_Node000009"><a xlink:title=" ">
<polygon fill="#e0e0e0" stroke="#999999" points="943,-19 842,-19 842,0 943,0 943,-19"/>
<text text-anchor="middle" x="892.5" y="-7" font-family="Helvetica,sans-Serif" font-size="10.00">prismspf/config.h</text>
</a>
</g>
</g>
<!-- Node1&#45;&gt;Node9 -->
<g id="edge30_Node000001_Node000009" class="edge">
<title>Node1&#45;&gt;Node9</title>
<g id="a_edge30_Node000001_Node000009"><a xlink:title=" ">
<path fill="none" stroke="#63b8ff" d="M684.72,-325.94C736.5,-316.4 796.95,-301.74 815.5,-283 841.29,-256.96 835.5,-239.65 835.5,-203 835.5,-203 835.5,-203 835.5,-135 835.5,-93.24 862.34,-50.16 879.19,-27.24"/>
<polygon fill="#63b8ff" stroke="#63b8ff" points="882.01,-29.31 885.28,-19.23 876.44,-25.07 882.01,-29.31"/>
</a>
</g>
</g>
<!-- Node10 -->
<g id="Node000010" class="node">
<title>Node10</title>
<g id="a_Node000010"><a xlink:href="types_8h.html" target="_top" xlink:title=" ">
<polygon fill="white" stroke="#666666" points="1593.5,-145.5 1471.5,-145.5 1471.5,-126.5 1593.5,-126.5 1593.5,-145.5"/>
<text text-anchor="middle" x="1532.5" y="-133.5" font-family="Helvetica,sans-Serif" font-size="10.00">prismspf/core/types.h</text>
</a>
</g>
</g>
<!-- Node1&#45;&gt;Node10 -->
<g id="edge9_Node000001_Node000010" class="edge">
<title>Node1&#45;&gt;Node10</title>
<g id="a_edge9_Node000001_Node000010"><a xlink:title=" ">
<path fill="none" stroke="#63b8ff" d="M684.64,-334.08C826.95,-324.54 1127.19,-296.07 1367.5,-217 1420.39,-199.6 1478.03,-168.63 1509.24,-150.76"/>
<polygon fill="#63b8ff" stroke="#63b8ff" points="1511.14,-153.7 1518.04,-145.66 1507.64,-147.64 1511.14,-153.7"/>
</a>
</g>
</g>
<!-- Node15 -->
<g id="Node000015" class="node">
<title>Node15</title>
<g id="a_Node000015"><a xlink:href="vector__mapping_8h.html" target="_top" xlink:title=" ">
<polygon fill="white" stroke="#666666" points="1005,-283 888,-283 888,-253 1005,-253 1005,-283"/>
<text text-anchor="start" x="896" y="-271" font-family="Helvetica,sans-Serif" font-size="10.00">prismspf/core/vector</text>
<text text-anchor="middle" x="946.5" y="-260" font-family="Helvetica,sans-Serif" font-size="10.00">_mapping.h</text>
</a>
</g>
</g>
<!-- Node1&#45;&gt;Node15 -->
<g id="edge16_Node000001_Node000015" class="edge">
<title>Node1&#45;&gt;Node15</title>
<g id="a_edge16_Node000001_Node000015"><a xlink:title=" ">
<path fill="none" stroke="#63b8ff" d="M684.9,-321.85C743.84,-309.94 822.26,-294.1 877.83,-282.87"/>
<polygon fill="#63b8ff" stroke="#63b8ff" points="878.82,-286.25 887.92,-280.83 877.43,-279.38 878.82,-286.25"/>
</a>
</g>
</g>
<!-- Node8 -->
<g id="Node000008" class="node">
<title>Node8</title>
<g id="a_Node000008"><a xlink:title=" ">
<polygon fill="#e0e0e0" stroke="#999999" points="807.5,-211.5 697.5,-211.5 697.5,-192.5 807.5,-192.5 807.5,-211.5"/>
<text text-anchor="middle" x="752.5" y="-199.5" font-family="Helvetica,sans-Serif" font-size="10.00">deal.II/base/timer.h</text>
</a>
</g>
</g>
<!-- Node7&#45;&gt;Node8 -->
<g id="edge7_Node000007_Node000008" class="edge">
<title>Node7&#45;&gt;Node8</title>
<g id="a_edge7_Node000007_Node000008"><a xlink:title=" ">
<path fill="none" stroke="#63b8ff" d="M747.31,-258.37C748.18,-249.07 749.6,-233.98 750.73,-221.9"/>
<polygon fill="#63b8ff" stroke="#63b8ff" points="754.22,-222.19 751.67,-211.91 747.25,-221.53 754.22,-222.19"/>
</a>
</g>
</g>
<!-- Node7&#45;&gt;Node9 -->
<g id="edge8_Node000007_Node000009" class="edge">
<title>Node7&#45;&gt;Node9</title>
<g id="a_edge8_Node000007_Node000009"><a xlink:title=" ">
<path fill="none" stroke="#63b8ff" d="M730.28,-258.38C716.29,-249.93 697.03,-235.61 688.5,-217 682.95,-204.88 683.37,-199.31 688.5,-187 722.52,-105.3 817.48,-48.04 864.87,-23.66"/>
<polygon fill="#63b8ff" stroke="#63b8ff" points="866.59,-26.71 873.95,-19.09 863.45,-20.46 866.59,-26.71"/>
</a>
</g>
</g>
<!-- Node10&#45;&gt;Node9 -->
<g id="edge14_Node000010_Node000009" class="edge">
<title>Node10&#45;&gt;Node9</title>
<g id="a_edge14_Node000010_Node000009"><a xlink:title=" ">
<path fill="none" stroke="#63b8ff" d="M1530.62,-126.38C1526.42,-109.38 1514.5,-71.71 1488.5,-55 1444.27,-26.57 1096.5,-15.27 953.54,-11.79"/>
<polygon fill="#63b8ff" stroke="#63b8ff" points="953.28,-8.28 943.2,-11.54 953.12,-15.28 953.28,-8.28"/>
</a>
</g>
</g>
<!-- Node11 -->
<g id="Node000011" class="node">
<title>Node11</title>
<g id="a_Node000011"><a xlink:href="type__enums_8h.html" target="_top" xlink:title=" ">
<polygon fill="white" stroke="#666666" points="1643.5,-85 1535.5,-85 1535.5,-55 1643.5,-55 1643.5,-85"/>
<text text-anchor="start" x="1543.5" y="-73" font-family="Helvetica,sans-Serif" font-size="10.00">prismspf/core/type</text>
<text text-anchor="middle" x="1589.5" y="-62" font-family="Helvetica,sans-Serif" font-size="10.00">_enums.h</text>
</a>
</g>
</g>
<!-- Node10&#45;&gt;Node11 -->
<g id="edge10_Node000010_Node000011" class="edge">
<title>Node10&#45;&gt;Node11</title>
<g id="a_edge10_Node000010_Node000011"><a xlink:title=" ">
<path fill="none" stroke="#63b8ff" d="M1540.19,-126.37C1547.79,-117.83 1559.74,-104.41 1569.98,-92.92"/>
<polygon fill="#63b8ff" stroke="#63b8ff" points="1572.67,-95.16 1576.71,-85.36 1567.45,-90.5 1572.67,-95.16"/>
</a>
</g>
</g>
<!-- Node14 -->
<g id="Node000014" class="node">
<title>Node14</title>
<g id="a_Node000014"><a xlink:title=" ">
<polygon fill="#e0e0e0" stroke="#999999" points="1479,-79.5 1434,-79.5 1434,-60.5 1479,-60.5 1479,-79.5"/>
<text text-anchor="middle" x="1456.5" y="-67.5" font-family="Helvetica,sans-Serif" font-size="10.00">utility</text>
</a>
</g>
</g>
<!-- Node10&#45;&gt;Node14 -->
<g id="edge15_Node000010_Node000014" class="edge">
<title>Node10&#45;&gt;Node14</title>
<g id="a_edge15_Node000010_Node000014"><a xlink:title=" ">
<path fill="none" stroke="#63b8ff" d="M1522.25,-126.37C1510.19,-116.21 1489.94,-99.16 1475.09,-86.65"/>
<polygon fill="#63b8ff" stroke="#63b8ff" points="1476.98,-83.67 1467.07,-79.91 1472.47,-89.02 1476.98,-83.67"/>
</a>
</g>
</g>
<!-- Node11&#45;&gt;Node9 -->
<g id="edge11_Node000011_Node000009" class="edge">
<title>Node11&#45;&gt;Node9</title>
<g id="a_edge11_Node000011_Node000009"><a xlink:title=" ">
<path fill="none" stroke="#63b8ff" d="M1535.42,-57.19C1530.73,-56.37 1526.04,-55.62 1521.5,-55 1314.32,-26.47 1066.08,-15.74 953.43,-12.13"/>
<polygon fill="#63b8ff" stroke="#63b8ff" points="953.39,-8.63 943.29,-11.81 953.17,-15.62 953.39,-8.63"/>
</a>
</g>
</g>
<!-- Node12 -->
<g id="Node000012" class="node">
<title>Node12</title>
<g id="a_Node000012"><a xlink:title=" ">
<polygon fill="#e0e0e0" stroke="#999999" points="1614.5,-19 1564.5,-19 1564.5,0 1614.5,0 1614.5,-19"/>
<text text-anchor="middle" x="1589.5" y="-7" font-family="Helvetica,sans-Serif" font-size="10.00">cstdint</text>
</a>
</g>
</g>
<!-- Node11&#45;&gt;Node12 -->
<g id="edge12_Node000011_Node000012" class="edge">
<title>Node11&#45;&gt;Node12</title>
<g id="a_edge12_Node000011_Node000012"><a xlink:title=" ">
<path fill="none" stroke="#63b8ff" d="M1589.5,-54.84C1589.5,-47.21 1589.5,-37.7 1589.5,-29.45"/>
<polygon fill="#63b8ff" stroke="#63b8ff" points="1593,-29.27 1589.5,-19.27 1586,-29.27 1593,-29.27"/>
</a>
</g>
</g>
<!-- Node13 -->
<g id="Node000013" class="node">
<title>Node13</title>
<g id="a_Node000013"><a xlink:title=" ">
<polygon fill="#e0e0e0" stroke="#999999" points="1486.5,-19 1442.5,-19 1442.5,0 1486.5,0 1486.5,-19"/>
<text text-anchor="middle" x="1464.5" y="-7" font-family="Helvetica,sans-Serif" font-size="10.00">string</text>
</a>
</g>
</g>
<!-- Node11&#45;&gt;Node13 -->
<g id="edge13_Node000011_Node000013" class="edge">
<title>Node11&#45;&gt;Node13</title>
<g id="a_edge13_Node000011_Node000013"><a xlink:title=" ">
<path fill="none" stroke="#63b8ff" d="M1559.56,-54.99C1539.08,-45.4 1512.12,-32.79 1492.15,-23.44"/>
<polygon fill="#63b8ff" stroke="#63b8ff" points="1493.5,-20.21 1482.96,-19.14 1490.53,-26.55 1493.5,-20.21"/>
</a>
</g>
</g>
<!-- Node15&#45;&gt;Node9 -->
<g id="edge29_Node000015_Node000009" class="edge">
<title>Node15&#45;&gt;Node9</title>
<g id="a_edge29_Node000015_Node000009"><a xlink:title=" ">
<path fill="none" stroke="#63b8ff" d="M924.26,-252.98C912.51,-244.22 899.17,-231.79 892.5,-217 863.81,-153.31 878.79,-66.95 887.59,-29.32"/>
<polygon fill="#63b8ff" stroke="#63b8ff" points="891.07,-29.83 890.06,-19.29 884.27,-28.16 891.07,-29.83"/>
</a>
</g>
</g>
<!-- Node16 -->
<g id="Node000016" class="node">
<title>Node16</title>
<g id="a_Node000016"><a xlink:title=" ">
<polygon fill="#e0e0e0" stroke="#999999" points="1039,-211.5 902,-211.5 902,-192.5 1039,-192.5 1039,-211.5"/>
<text text-anchor="middle" x="970.5" y="-199.5" font-family="Helvetica,sans-Serif" font-size="10.00">deal.II/lac/block_vector.h</text>
</a>
</g>
</g>
<!-- Node15&#45;&gt;Node16 -->
<g id="edge17_Node000015_Node000016" class="edge">
<title>Node15&#45;&gt;Node16</title>
<g id="a_edge17_Node000015_Node000016"><a xlink:title=" ">
<path fill="none" stroke="#63b8ff" d="M951.83,-252.8C955.31,-243.5 959.9,-231.27 963.65,-221.26"/>
<polygon fill="#63b8ff" stroke="#63b8ff" points="966.95,-222.44 967.18,-211.84 960.39,-219.98 966.95,-222.44"/>
</a>
</g>
</g>
<!-- Node17 -->
<g id="Node000017" class="node">
<title>Node17</title>
<g id="a_Node000017"><a xlink:href="variable__attributes_8h.html" target="_top" xlink:title=" ">
<polygon fill="white" stroke="#666666" points="1358.5,-217 1232.5,-217 1232.5,-187 1358.5,-187 1358.5,-217"/>
<text text-anchor="start" x="1240.5" y="-205" font-family="Helvetica,sans-Serif" font-size="10.00">prismspf/core/variable</text>
<text text-anchor="middle" x="1295.5" y="-194" font-family="Helvetica,sans-Serif" font-size="10.00">_attributes.h</text>
</a>
</g>
</g>
<!-- Node15&#45;&gt;Node17 -->
<g id="edge18_Node000015_Node000017" class="edge">
<title>Node15&#45;&gt;Node17</title>
<g id="a_edge18_Node000015_Node000017"><a xlink:title=" ">
<path fill="none" stroke="#63b8ff" d="M1005.31,-256.22C1065.05,-245.26 1157.73,-228.26 1222.22,-216.44"/>
<polygon fill="#63b8ff" stroke="#63b8ff" points="1223.11,-219.83 1232.31,-214.59 1221.85,-212.95 1223.11,-219.83"/>
</a>
</g>
</g>
<!-- Node17&#45;&gt;Node9 -->
<g id="edge23_Node000017_Node000009" class="edge">
<title>Node17&#45;&gt;Node9</title>
<g id="a_edge23_Node000017_Node000009"><a xlink:title=" ">
<path fill="none" stroke="#63b8ff" d="M1232.37,-196.14C1133.92,-188 952.74,-170.56 930.5,-151 895.17,-119.92 891.13,-59.72 891.56,-29.2"/>
<polygon fill="#63b8ff" stroke="#63b8ff" points="895.06,-29.19 891.88,-19.08 888.06,-28.97 895.06,-29.19"/>
</a>
</g>
</g>
<!-- Node17&#45;&gt;Node10 -->
<g id="edge22_Node000017_Node000010" class="edge">
<title>Node17&#45;&gt;Node10</title>
<g id="a_edge22_Node000017_Node000010"><a xlink:title=" ">
<path fill="none" stroke="#63b8ff" d="M1347.51,-186.95C1390.72,-175.29 1451.37,-158.91 1491.28,-148.13"/>
<polygon fill="#63b8ff" stroke="#63b8ff" points="1492.22,-151.5 1500.96,-145.52 1490.39,-144.75 1492.22,-151.5"/>
</a>
</g>
</g>
<!-- Node17&#45;&gt;Node11 -->
<g id="edge21_Node000017_Node000011" class="edge">
<title>Node17&#45;&gt;Node11</title>
<g id="a_edge21_Node000017_Node000011"><a xlink:title=" ">
<path fill="none" stroke="#63b8ff" d="M1358.72,-199.97C1439.29,-197.17 1571.85,-187.05 1602.5,-151 1615.73,-135.44 1609.78,-111.81 1602.15,-94.27"/>
<polygon fill="#63b8ff" stroke="#63b8ff" points="1605.3,-92.76 1597.84,-85.23 1598.98,-95.77 1605.3,-92.76"/>
</a>
</g>
</g>
<!-- Node17&#45;&gt;Node13 -->
<g id="edge26_Node000017_Node000013" class="edge">
<title>Node17&#45;&gt;Node13</title>
<g id="a_edge26_Node000017_Node000013"><a xlink:title=" ">
<path fill="none" stroke="#63b8ff" d="M1333.57,-186.84C1351.3,-178.65 1371.52,-166.79 1385.5,-151 1416.03,-116.52 1400.07,-94.04 1424.5,-55 1430.95,-44.7 1439.86,-34.52 1447.63,-26.5"/>
<polygon fill="#63b8ff" stroke="#63b8ff" points="1450.27,-28.81 1454.89,-19.28 1445.33,-23.85 1450.27,-28.81"/>
</a>
</g>
</g>
<!-- Node17&#45;&gt;Node14 -->
<g id="edge27_Node000017_Node000014" class="edge">
<title>Node17&#45;&gt;Node14</title>
<g id="a_edge27_Node000017_Node000014"><a xlink:title=" ">
<path fill="none" stroke="#63b8ff" d="M1355.28,-186.98C1377.58,-179.34 1401.76,-167.88 1419.5,-151 1437.13,-134.23 1447.13,-107.43 1452.18,-89.53"/>
<polygon fill="#63b8ff" stroke="#63b8ff" points="1455.61,-90.26 1454.71,-79.7 1448.83,-88.52 1455.61,-90.26"/>
</a>
</g>
</g>
<!-- Node18 -->
<g id="Node000018" class="node">
<title>Node18</title>
<g id="a_Node000018"><a xlink:title=" ">
<polygon fill="#e0e0e0" stroke="#999999" points="1077.5,-145.5 939.5,-145.5 939.5,-126.5 1077.5,-126.5 1077.5,-145.5"/>
<text text-anchor="middle" x="1008.5" y="-133.5" font-family="Helvetica,sans-Serif" font-size="10.00">deal.II/base/exceptions.h</text>
</a>
</g>
</g>
<!-- Node17&#45;&gt;Node18 -->
<g id="edge19_Node000017_Node000018" class="edge">
<title>Node17&#45;&gt;Node18</title>
<g id="a_edge19_Node000017_Node000018"><a xlink:title=" ">
<path fill="none" stroke="#63b8ff" d="M1232.52,-186.95C1179.52,-175.14 1104.87,-158.49 1056.58,-147.72"/>
<polygon fill="#63b8ff" stroke="#63b8ff" points="1057.22,-144.28 1046.69,-145.52 1055.69,-151.11 1057.22,-144.28"/>
</a>
</g>
</g>
<!-- Node19 -->
<g id="Node000019" class="node">
<title>Node19</title>
<g id="a_Node000019"><a xlink:title=" ">
<polygon fill="#e0e0e0" stroke="#999999" points="1205,-151 1096,-151 1096,-121 1205,-121 1205,-151"/>
<text text-anchor="start" x="1104" y="-139" font-family="Helvetica,sans-Serif" font-size="10.00">deal.II/matrix_free</text>
<text text-anchor="middle" x="1150.5" y="-128" font-family="Helvetica,sans-Serif" font-size="10.00">/evaluation_flags.h</text>
</a>
</g>
</g>
<!-- Node17&#45;&gt;Node19 -->
<g id="edge20_Node000017_Node000019" class="edge">
<title>Node17&#45;&gt;Node19</title>
<g id="a_edge20_Node000017_Node000019"><a xlink:title=" ">
<path fill="none" stroke="#63b8ff" d="M1263.68,-186.95C1242.53,-177.62 1214.54,-165.27 1191.69,-155.18"/>
<polygon fill="#63b8ff" stroke="#63b8ff" points="1192.81,-151.85 1182.25,-151.01 1189.98,-158.25 1192.81,-151.85"/>
</a>
</g>
</g>
<!-- Node20 -->
<g id="Node000020" class="node">
<title>Node20</title>
<g id="a_Node000020"><a xlink:title=" ">
<polygon fill="#e0e0e0" stroke="#999999" points="1261.5,-145.5 1223.5,-145.5 1223.5,-126.5 1261.5,-126.5 1261.5,-145.5"/>
<text text-anchor="middle" x="1242.5" y="-133.5" font-family="Helvetica,sans-Serif" font-size="10.00">map</text>
</a>
</g>
</g>
<!-- Node17&#45;&gt;Node20 -->
<g id="edge24_Node000017_Node000020" class="edge">
<title>Node17&#45;&gt;Node20</title>
<g id="a_edge24_Node000017_Node000020"><a xlink:title=" ">
<path fill="none" stroke="#63b8ff" d="M1283.74,-186.8C1275.64,-177.01 1264.84,-163.98 1256.33,-153.7"/>
<polygon fill="#63b8ff" stroke="#63b8ff" points="1258.9,-151.31 1249.82,-145.84 1253.51,-155.78 1258.9,-151.31"/>
</a>
</g>
</g>
<!-- Node21 -->
<g id="Node000021" class="node">
<title>Node21</title>
<g id="a_Node000021"><a xlink:title=" ">
<polygon fill="#e0e0e0" stroke="#999999" points="1311.5,-145.5 1279.5,-145.5 1279.5,-126.5 1311.5,-126.5 1311.5,-145.5"/>
<text text-anchor="middle" x="1295.5" y="-133.5" font-family="Helvetica,sans-Serif" font-size="10.00">set</text>
</a>
</g>
</g>
<!-- Node17&#45;&gt;Node21 -->
<g id="edge25_Node000017_Node000021" class="edge">
<title>Node17&#45;&gt;Node21</title>
<g id="a_edge25_Node000017_Node000021"><a xlink:title=" ">
<path fill="none" stroke="#63b8ff" d="M1295.5,-186.8C1295.5,-177.7 1295.5,-165.79 1295.5,-155.9"/>
<polygon fill="#63b8ff" stroke="#63b8ff" points="1299,-155.84 1295.5,-145.84 1292,-155.84 1299,-155.84"/>
</a>
</g>
</g>
<!-- Node22 -->
<g id="Node000022" class="node">
<title>Node22</title>
<g id="a_Node000022"><a xlink:title=" ">
<polygon fill="#e0e0e0" stroke="#999999" points="1377,-145.5 1330,-145.5 1330,-126.5 1377,-126.5 1377,-145.5"/>
<text text-anchor="middle" x="1353.5" y="-133.5" font-family="Helvetica,sans-Serif" font-size="10.00">vector</text>
</a>
</g>
</g>
<!-- Node17&#45;&gt;Node22 -->
<g id="edge28_Node000017_Node000022" class="edge">
<title>Node17&#45;&gt;Node22</title>
<g id="a_edge28_Node000017_Node000022"><a xlink:title=" ">
<path fill="none" stroke="#63b8ff" d="M1308.37,-186.8C1317.33,-176.92 1329.29,-163.72 1338.64,-153.39"/>
<polygon fill="#63b8ff" stroke="#63b8ff" points="1341.36,-155.6 1345.48,-145.84 1336.18,-150.9 1341.36,-155.6"/>
</a>
</g>
</g>
</g>
</svg>
