<?xml version="1.0" encoding="UTF-8" standalone="no"?>
<!DOCTYPE svg PUBLIC "-//W3C//DTD SVG 1.1//EN"
 "http://www.w3.org/Graphics/SVG/1.1/DTD/svg11.dtd">
<!-- Generated by graphviz version 2.43.0 (0)
 -->
<!-- Title: /home/runner/work/phaseField/phaseField/include/prismspf/core/phase_field_tools.h Pages: 1 -->
<svg width="484pt" height="291pt"
 viewBox="0.00 0.00 484.40 291.00" xmlns="http://www.w3.org/2000/svg" xmlns:xlink="http://www.w3.org/1999/xlink">
<g id="graph0" class="graph" transform="scale(1 1) rotate(0) translate(4 287)">
<title>/home/runner/work/phaseField/phaseField/include/prismspf/core/phase_field_tools.h</title>
<!-- Node1 -->
<g id="Node000001" class="node">
<title>Node1</title>
<g id="a_Node000001"><a xlink:title=" ">
<polygon fill="#999999" stroke="#666666" points="201.9,-283 37.9,-283 37.9,-242 201.9,-242 201.9,-283"/>
<text text-anchor="start" x="45.9" y="-271" font-family="Helvetica,sans-Serif" font-size="10.00">/home/runner/work/phaseField</text>
<text text-anchor="start" x="45.9" y="-260" font-family="Helvetica,sans-Serif" font-size="10.00">/phaseField/include/prismspf</text>
<text text-anchor="middle" x="119.9" y="-249" font-family="Helvetica,sans-Serif" font-size="10.00">/core/phase_field_tools.h</text>
</a>
</g>
</g>
<!-- Node2 -->
<g id="Node000002" class="node">
<title>Node2</title>
<g id="a_Node000002"><a xlink:href="types_8h.html" target="_top" xlink:title=" ">
<polygon fill="white" stroke="#666666" points="134.9,-140 12.9,-140 12.9,-121 134.9,-121 134.9,-140"/>
<text text-anchor="middle" x="73.9" y="-128" font-family="Helvetica,sans-Serif" font-size="10.00">prismspf/core/types.h</text>
</a>
</g>
</g>
<!-- Node1&#45;&gt;Node2 -->
<g id="edge1_Node000001_Node000002" class="edge">
<title>Node1&#45;&gt;Node2</title>
<g id="a_edge1_Node000001_Node000002"><a xlink:title=" ">
<path fill="none" stroke="#63b8ff" d="M112.92,-241.76C104.07,-216.75 88.94,-174 80.35,-149.73"/>
<polygon fill="#63b8ff" stroke="#63b8ff" points="83.55,-148.27 76.91,-140.01 76.95,-150.61 83.55,-148.27"/>
</a>
</g>
</g>
<!-- Node4 -->
<g id="Node000004" class="node">
<title>Node4</title>
<g id="a_Node000004"><a xlink:title=" ">
<polygon fill="#e0e0e0" stroke="#999999" points="156.4,-19 55.4,-19 55.4,0 156.4,0 156.4,-19"/>
<text text-anchor="middle" x="105.9" y="-7" font-family="Helvetica,sans-Serif" font-size="10.00">prismspf/config.h</text>
</a>
</g>
</g>
<!-- Node1&#45;&gt;Node4 -->
<g id="edge8_Node000001_Node000004" class="edge">
<title>Node1&#45;&gt;Node4</title>
<g id="a_edge8_Node000001_Node000004"><a xlink:title=" ">
<path fill="none" stroke="#63b8ff" d="M91.31,-241.93C63,-220.63 21.42,-183.72 3.9,-140 -15.54,-91.47 44.7,-46.26 80.81,-24.34"/>
<polygon fill="#63b8ff" stroke="#63b8ff" points="82.98,-27.12 89.83,-19.04 79.44,-21.09 82.98,-27.12"/>
</a>
</g>
</g>
<!-- Node8 -->
<g id="Node000008" class="node">
<title>Node8</title>
<g id="a_Node000008"><a xlink:href="nucleus_8h.html" target="_top" xlink:title=" ">
<polygon fill="white" stroke="#666666" points="260.4,-206 147.4,-206 147.4,-176 260.4,-176 260.4,-206"/>
<text text-anchor="start" x="155.4" y="-194" font-family="Helvetica,sans-Serif" font-size="10.00">prismspf/nucleation</text>
<text text-anchor="middle" x="203.9" y="-183" font-family="Helvetica,sans-Serif" font-size="10.00">/nucleus.h</text>
</a>
</g>
</g>
<!-- Node1&#45;&gt;Node8 -->
<g id="edge9_Node000001_Node000008" class="edge">
<title>Node1&#45;&gt;Node8</title>
<g id="a_edge9_Node000001_Node000008"><a xlink:title=" ">
<path fill="none" stroke="#63b8ff" d="M143.75,-241.77C154.83,-232.6 168.01,-221.7 179.2,-212.44"/>
<polygon fill="#63b8ff" stroke="#63b8ff" points="181.46,-215.11 186.94,-206.04 177,-209.72 181.46,-215.11"/>
</a>
</g>
</g>
<!-- Node12 -->
<g id="Node000012" class="node">
<title>Node12</title>
<g id="a_Node000012"><a xlink:title=" ">
<polygon fill="#e0e0e0" stroke="#999999" points="325.4,-200.5 278.4,-200.5 278.4,-181.5 325.4,-181.5 325.4,-200.5"/>
<text text-anchor="middle" x="301.9" y="-188.5" font-family="Helvetica,sans-Serif" font-size="10.00">vector</text>
</a>
</g>
</g>
<!-- Node1&#45;&gt;Node12 -->
<g id="edge16_Node000001_Node000012" class="edge">
<title>Node1&#45;&gt;Node12</title>
<g id="a_edge16_Node000001_Node000012"><a xlink:title=" ">
<path fill="none" stroke="#63b8ff" d="M174.27,-241.91C202.6,-231.54 237.74,-218.41 268.9,-206 270.11,-205.52 271.33,-205.03 272.57,-204.52"/>
<polygon fill="#63b8ff" stroke="#63b8ff" points="274.17,-207.65 282.07,-200.58 271.49,-201.18 274.17,-207.65"/>
</a>
</g>
</g>
<!-- Node3 -->
<g id="Node000003" class="node">
<title>Node3</title>
<g id="a_Node000003"><a xlink:href="type__enums_8h.html" target="_top" xlink:title=" ">
<polygon fill="white" stroke="#666666" points="298.9,-85 190.9,-85 190.9,-55 298.9,-55 298.9,-85"/>
<text text-anchor="start" x="198.9" y="-73" font-family="Helvetica,sans-Serif" font-size="10.00">prismspf/core/type</text>
<text text-anchor="middle" x="244.9" y="-62" font-family="Helvetica,sans-Serif" font-size="10.00">_enums.h</text>
</a>
</g>
</g>
<!-- Node2&#45;&gt;Node3 -->
<g id="edge2_Node000002_Node000003" class="edge">
<title>Node2&#45;&gt;Node3</title>
<g id="a_edge2_Node000002_Node000003"><a xlink:title=" ">
<path fill="none" stroke="#63b8ff" d="M98.77,-120.99C123.7,-112.46 162.8,-99.09 194.29,-88.32"/>
<polygon fill="#63b8ff" stroke="#63b8ff" points="195.46,-91.61 203.79,-85.06 193.2,-84.99 195.46,-91.61"/>
</a>
</g>
</g>
<!-- Node2&#45;&gt;Node4 -->
<g id="edge6_Node000002_Node000004" class="edge">
<title>Node2&#45;&gt;Node4</title>
<g id="a_edge6_Node000002_Node000004"><a xlink:title=" ">
<path fill="none" stroke="#63b8ff" d="M73.36,-120.54C72.78,-106.3 72.74,-77.78 79.9,-55 82.95,-45.31 88.41,-35.46 93.54,-27.5"/>
<polygon fill="#63b8ff" stroke="#63b8ff" points="96.5,-29.37 99.25,-19.14 90.72,-25.42 96.5,-29.37"/>
</a>
</g>
</g>
<!-- Node7 -->
<g id="Node000007" class="node">
<title>Node7</title>
<g id="a_Node000007"><a xlink:title=" ">
<polygon fill="#e0e0e0" stroke="#999999" points="134.4,-79.5 89.4,-79.5 89.4,-60.5 134.4,-60.5 134.4,-79.5"/>
<text text-anchor="middle" x="111.9" y="-67.5" font-family="Helvetica,sans-Serif" font-size="10.00">utility</text>
</a>
</g>
</g>
<!-- Node2&#45;&gt;Node7 -->
<g id="edge7_Node000002_Node000007" class="edge">
<title>Node2&#45;&gt;Node7</title>
<g id="a_edge7_Node000002_Node000007"><a xlink:title=" ">
<path fill="none" stroke="#63b8ff" d="M79.51,-120.87C85.07,-112.31 93.73,-98.97 100.7,-88.24"/>
<polygon fill="#63b8ff" stroke="#63b8ff" points="103.76,-89.96 106.27,-79.67 97.89,-86.15 103.76,-89.96"/>
</a>
</g>
</g>
<!-- Node3&#45;&gt;Node4 -->
<g id="edge3_Node000003_Node000004" class="edge">
<title>Node3&#45;&gt;Node4</title>
<g id="a_edge3_Node000003_Node000004"><a xlink:title=" ">
<path fill="none" stroke="#63b8ff" d="M211.61,-54.99C188.52,-45.27 158.04,-32.44 135.74,-23.06"/>
<polygon fill="#63b8ff" stroke="#63b8ff" points="137.01,-19.79 126.43,-19.14 134.29,-26.24 137.01,-19.79"/>
</a>
</g>
</g>
<!-- Node5 -->
<g id="Node000005" class="node">
<title>Node5</title>
<g id="a_Node000005"><a xlink:title=" ">
<polygon fill="#e0e0e0" stroke="#999999" points="269.9,-19 219.9,-19 219.9,0 269.9,0 269.9,-19"/>
<text text-anchor="middle" x="244.9" y="-7" font-family="Helvetica,sans-Serif" font-size="10.00">cstdint</text>
</a>
</g>
</g>
<!-- Node3&#45;&gt;Node5 -->
<g id="edge4_Node000003_Node000005" class="edge">
<title>Node3&#45;&gt;Node5</title>
<g id="a_edge4_Node000003_Node000005"><a xlink:title=" ">
<path fill="none" stroke="#63b8ff" d="M244.9,-54.84C244.9,-47.21 244.9,-37.7 244.9,-29.45"/>
<polygon fill="#63b8ff" stroke="#63b8ff" points="248.4,-29.27 244.9,-19.27 241.4,-29.27 248.4,-29.27"/>
</a>
</g>
</g>
<!-- Node6 -->
<g id="Node000006" class="node">
<title>Node6</title>
<g id="a_Node000006"><a xlink:title=" ">
<polygon fill="#e0e0e0" stroke="#999999" points="371.9,-19 327.9,-19 327.9,0 371.9,0 371.9,-19"/>
<text text-anchor="middle" x="349.9" y="-7" font-family="Helvetica,sans-Serif" font-size="10.00">string</text>
</a>
</g>
</g>
<!-- Node3&#45;&gt;Node6 -->
<g id="edge5_Node000003_Node000006" class="edge">
<title>Node3&#45;&gt;Node6</title>
<g id="a_edge5_Node000003_Node000006"><a xlink:title=" ">
<path fill="none" stroke="#63b8ff" d="M270.05,-54.99C286.79,-45.66 308.67,-33.47 325.29,-24.21"/>
<polygon fill="#63b8ff" stroke="#63b8ff" points="327.36,-27.06 334.4,-19.14 323.96,-20.95 327.36,-27.06"/>
</a>
</g>
</g>
<!-- Node8&#45;&gt;Node2 -->
<g id="edge11_Node000008_Node000002" class="edge">
<title>Node8&#45;&gt;Node2</title>
<g id="a_edge11_Node000008_Node000002"><a xlink:title=" ">
<path fill="none" stroke="#63b8ff" d="M172.76,-175.99C151.37,-166.36 123.17,-153.67 102.37,-144.31"/>
<polygon fill="#63b8ff" stroke="#63b8ff" points="103.66,-141.05 93.1,-140.14 100.78,-147.43 103.66,-141.05"/>
</a>
</g>
</g>
<!-- Node8&#45;&gt;Node4 -->
<g id="edge12_Node000008_Node000004" class="edge">
<title>Node8&#45;&gt;Node4</title>
<g id="a_edge12_Node000008_Node000004"><a xlink:title=" ">
<path fill="none" stroke="#63b8ff" d="M197.59,-175.75C182.69,-142.18 146.36,-60.53 142.9,-55 136.65,-45.01 128.37,-34.84 121.22,-26.74"/>
<polygon fill="#63b8ff" stroke="#63b8ff" points="123.63,-24.2 114.32,-19.15 118.46,-28.91 123.63,-24.2"/>
</a>
</g>
</g>
<!-- Node8&#45;&gt;Node6 -->
<g id="edge15_Node000008_Node000006" class="edge">
<title>Node8&#45;&gt;Node6</title>
<g id="a_edge15_Node000008_Node000006"><a xlink:title=" ">
<path fill="none" stroke="#63b8ff" d="M260.68,-176.65C306.68,-165.26 364.97,-149.3 371.9,-140 396.81,-106.61 374.97,-54.94 360.42,-28.07"/>
<polygon fill="#63b8ff" stroke="#63b8ff" points="363.29,-26.05 355.31,-19.08 357.2,-29.5 363.29,-26.05"/>
</a>
</g>
</g>
<!-- Node9 -->
<g id="Node000009" class="node">
<title>Node9</title>
<g id="a_Node000009"><a xlink:title=" ">
<polygon fill="#e0e0e0" stroke="#999999" points="300.9,-140 190.9,-140 190.9,-121 300.9,-121 300.9,-140"/>
<text text-anchor="middle" x="245.9" y="-128" font-family="Helvetica,sans-Serif" font-size="10.00">deal.II/base/point.h</text>
</a>
</g>
</g>
<!-- Node8&#45;&gt;Node9 -->
<g id="edge10_Node000008_Node000009" class="edge">
<title>Node8&#45;&gt;Node9</title>
<g id="a_edge10_Node000008_Node000009"><a xlink:title=" ">
<path fill="none" stroke="#63b8ff" d="M214.07,-175.84C219.98,-167.61 227.47,-157.18 233.69,-148.51"/>
<polygon fill="#63b8ff" stroke="#63b8ff" points="236.62,-150.43 239.61,-140.27 230.93,-146.35 236.62,-150.43"/>
</a>
</g>
</g>
<!-- Node10 -->
<g id="Node000010" class="node">
<title>Node10</title>
<g id="a_Node000010"><a xlink:title=" ">
<polygon fill="#e0e0e0" stroke="#999999" points="362.9,-140 318.9,-140 318.9,-121 362.9,-121 362.9,-140"/>
<text text-anchor="middle" x="340.9" y="-128" font-family="Helvetica,sans-Serif" font-size="10.00">mpi.h</text>
</a>
</g>
</g>
<!-- Node8&#45;&gt;Node10 -->
<g id="edge13_Node000008_Node000010" class="edge">
<title>Node8&#45;&gt;Node10</title>
<g id="a_edge13_Node000008_Node000010"><a xlink:title=" ">
<path fill="none" stroke="#63b8ff" d="M236.72,-175.99C259.37,-166.31 289.25,-153.56 311.2,-144.18"/>
<polygon fill="#63b8ff" stroke="#63b8ff" points="312.85,-147.29 320.67,-140.14 310.1,-140.85 312.85,-147.29"/>
</a>
</g>
</g>
<!-- Node11 -->
<g id="Node000011" class="node">
<title>Node11</title>
<g id="a_Node000011"><a xlink:title=" ">
<polygon fill="#e0e0e0" stroke="#999999" points="476.4,-140 419.4,-140 419.4,-121 476.4,-121 476.4,-140"/>
<text text-anchor="middle" x="447.9" y="-128" font-family="Helvetica,sans-Serif" font-size="10.00">ostream</text>
</a>
</g>
</g>
<!-- Node8&#45;&gt;Node11 -->
<g id="edge14_Node000008_Node000011" class="edge">
<title>Node8&#45;&gt;Node11</title>
<g id="a_edge14_Node000008_Node000011"><a xlink:title=" ">
<path fill="none" stroke="#63b8ff" d="M260.49,-176.43C306.21,-165.47 369.32,-150.34 409.38,-140.74"/>
<polygon fill="#63b8ff" stroke="#63b8ff" points="410.38,-144.1 419.29,-138.36 408.75,-137.29 410.38,-144.1"/>
</a>
</g>
</g>
</g>
</svg>
