<?xml version="1.0" encoding="UTF-8" standalone="no"?>
<!DOCTYPE svg PUBLIC "-//W3C//DTD SVG 1.1//EN"
 "http://www.w3.org/Graphics/SVG/1.1/DTD/svg11.dtd">
<!-- Generated by graphviz version 2.43.0 (0)
 -->
<!-- Title: /home/runner/work/phaseField/phaseField/include/prismspf/user_inputs/spatial_discretization.h Pages: 1 -->
<svg width="2652pt" height="368pt"
 viewBox="0.00 0.00 2652.00 368.00" xmlns="http://www.w3.org/2000/svg" xmlns:xlink="http://www.w3.org/1999/xlink">
<g id="graph0" class="graph" transform="scale(1 1) rotate(0) translate(4 364)">
<title>/home/runner/work/phaseField/phaseField/include/prismspf/user_inputs/spatial_discretization.h</title>
<!-- Node1 -->
<g id="Node000001" class="node">
<title>Node1</title>
<g id="a_Node000001"><a xlink:title=" ">
<polygon fill="#999999" stroke="#666666" points="696,-360 504,-360 504,-319 696,-319 696,-360"/>
<text text-anchor="start" x="512" y="-348" font-family="Helvetica,sans-Serif" font-size="10.00">/home/runner/work/phaseField</text>
<text text-anchor="start" x="512" y="-337" font-family="Helvetica,sans-Serif" font-size="10.00">/phaseField/include/prismspf</text>
<text text-anchor="middle" x="600" y="-326" font-family="Helvetica,sans-Serif" font-size="10.00">/user_inputs/spatial_discretization.h</text>
</a>
</g>
</g>
<!-- Node2 -->
<g id="Node000002" class="node">
<title>Node2</title>
<g id="a_Node000002"><a xlink:title=" ">
<polygon fill="#e0e0e0" stroke="#999999" points="102,-283 0,-283 0,-253 102,-253 102,-283"/>
<text text-anchor="start" x="8" y="-271" font-family="Helvetica,sans-Serif" font-size="10.00">deal.II/distributed</text>
<text text-anchor="middle" x="51" y="-260" font-family="Helvetica,sans-Serif" font-size="10.00">/tria.h</text>
</a>
</g>
</g>
<!-- Node1&#45;&gt;Node2 -->
<g id="edge1_Node000001_Node000002" class="edge">
<title>Node1&#45;&gt;Node2</title>
<g id="a_edge1_Node000001_Node000002"><a xlink:title=" ">
<path fill="none" stroke="#63b8ff" d="M503.96,-330.92C407.33,-322.54 253.95,-307.17 112.47,-283.13"/>
<polygon fill="#63b8ff" stroke="#63b8ff" points="112.76,-279.63 102.31,-281.39 111.57,-286.53 112.76,-279.63"/>
</a>
</g>
</g>
<!-- Node3 -->
<g id="Node000003" class="node">
<title>Node3</title>
<g id="a_Node000003"><a xlink:title=" ">
<polygon fill="#e0e0e0" stroke="#999999" points="271.5,-277.5 120.5,-277.5 120.5,-258.5 271.5,-258.5 271.5,-277.5"/>
<text text-anchor="middle" x="196" y="-265.5" font-family="Helvetica,sans-Serif" font-size="10.00">deal.II/grid/grid_generator.h</text>
</a>
</g>
</g>
<!-- Node1&#45;&gt;Node3 -->
<g id="edge2_Node000001_Node000003" class="edge">
<title>Node1&#45;&gt;Node3</title>
<g id="a_edge2_Node000001_Node000003"><a xlink:title=" ">
<path fill="none" stroke="#63b8ff" d="M503.75,-321.94C426.65,-308.68 320.94,-290.49 255.62,-279.26"/>
<polygon fill="#63b8ff" stroke="#63b8ff" points="255.95,-275.76 245.5,-277.51 254.76,-282.66 255.95,-275.76"/>
</a>
</g>
</g>
<!-- Node4 -->
<g id="Node000004" class="node">
<title>Node4</title>
<g id="a_Node000004"><a xlink:title=" ">
<polygon fill="#e0e0e0" stroke="#999999" points="418,-277.5 290,-277.5 290,-258.5 418,-258.5 418,-277.5"/>
<text text-anchor="middle" x="354" y="-265.5" font-family="Helvetica,sans-Serif" font-size="10.00">deal.II/grid/grid_tools.h</text>
</a>
</g>
</g>
<!-- Node1&#45;&gt;Node4 -->
<g id="edge3_Node000001_Node000004" class="edge">
<title>Node1&#45;&gt;Node4</title>
<g id="a_edge3_Node000001_Node000004"><a xlink:title=" ">
<path fill="none" stroke="#63b8ff" d="M530.82,-318.96C486.66,-306.48 430.96,-290.74 394,-280.3"/>
<polygon fill="#63b8ff" stroke="#63b8ff" points="394.67,-276.85 384.1,-277.5 392.77,-283.59 394.67,-276.85"/>
</a>
</g>
</g>
<!-- Node5 -->
<g id="Node000005" class="node">
<title>Node5</title>
<g id="a_Node000005"><a xlink:title=" ">
<polygon fill="#e0e0e0" stroke="#999999" points="533.5,-277.5 436.5,-277.5 436.5,-258.5 533.5,-258.5 533.5,-277.5"/>
<text text-anchor="middle" x="485" y="-265.5" font-family="Helvetica,sans-Serif" font-size="10.00">deal.II/grid/tria.h</text>
</a>
</g>
</g>
<!-- Node1&#45;&gt;Node5 -->
<g id="edge4_Node000001_Node000005" class="edge">
<title>Node1&#45;&gt;Node5</title>
<g id="a_edge4_Node000001_Node000005"><a xlink:title=" ">
<path fill="none" stroke="#63b8ff" d="M567.66,-318.96C548.6,-307.44 524.95,-293.14 507.84,-282.8"/>
<polygon fill="#63b8ff" stroke="#63b8ff" points="509.44,-279.68 499.07,-277.5 505.82,-285.67 509.44,-279.68"/>
</a>
</g>
</g>
<!-- Node6 -->
<g id="Node000006" class="node">
<title>Node6</title>
<g id="a_Node000006"><a xlink:href="conditional__ostreams_8h.html" target="_top" xlink:title=" ">
<polygon fill="white" stroke="#666666" points="2343,-217 2203,-217 2203,-187 2343,-187 2343,-217"/>
<text text-anchor="start" x="2211" y="-205" font-family="Helvetica,sans-Serif" font-size="10.00">prismspf/core/conditional</text>
<text text-anchor="middle" x="2273" y="-194" font-family="Helvetica,sans-Serif" font-size="10.00">_ostreams.h</text>
</a>
</g>
</g>
<!-- Node1&#45;&gt;Node6 -->
<g id="edge5_Node000001_Node000006" class="edge">
<title>Node1&#45;&gt;Node6</title>
<g id="a_edge5_Node000001_Node000006"><a xlink:title=" ">
<path fill="none" stroke="#63b8ff" d="M696.33,-333.88C861.12,-325.67 1207.66,-307.13 1500,-283 1753.17,-262.1 2052.09,-228.67 2192.51,-212.44"/>
<polygon fill="#63b8ff" stroke="#63b8ff" points="2193.22,-215.88 2202.75,-211.26 2192.41,-208.93 2193.22,-215.88"/>
</a>
</g>
</g>
<!-- Node8 -->
<g id="Node000008" class="node">
<title>Node8</title>
<g id="a_Node000008"><a xlink:title=" ">
<polygon fill="#e0e0e0" stroke="#999999" points="1465.5,-19 1364.5,-19 1364.5,0 1465.5,0 1465.5,-19"/>
<text text-anchor="middle" x="1415" y="-7" font-family="Helvetica,sans-Serif" font-size="10.00">prismspf/config.h</text>
</a>
</g>
</g>
<!-- Node1&#45;&gt;Node8 -->
<g id="edge64_Node000001_Node000008" class="edge">
<title>Node1&#45;&gt;Node8</title>
<g id="a_edge64_Node000001_Node000008"><a xlink:title=" ">
<path fill="none" stroke="#63b8ff" d="M696.19,-337.22C1100.82,-331.23 2644,-301.88 2644,-203 2644,-203 2644,-203 2644,-135 2644,-16.27 1724.4,-9.79 1476.13,-10.2"/>
<polygon fill="#63b8ff" stroke="#63b8ff" points="1475.85,-6.7 1465.86,-10.22 1475.86,-13.7 1475.85,-6.7"/>
</a>
</g>
</g>
<!-- Node9 -->
<g id="Node000009" class="node">
<title>Node9</title>
<g id="a_Node000009"><a xlink:href="exceptions_8h.html" target="_top" xlink:title=" ">
<polygon fill="white" stroke="#666666" points="817.5,-211.5 668.5,-211.5 668.5,-192.5 817.5,-192.5 817.5,-211.5"/>
<text text-anchor="middle" x="743" y="-199.5" font-family="Helvetica,sans-Serif" font-size="10.00">prismspf/core/exceptions.h</text>
</a>
</g>
</g>
<!-- Node1&#45;&gt;Node9 -->
<g id="edge8_Node000001_Node000009" class="edge">
<title>Node1&#45;&gt;Node9</title>
<g id="a_edge8_Node000001_Node000009"><a xlink:title=" ">
<path fill="none" stroke="#63b8ff" d="M620.79,-318.8C649.44,-291.66 700.44,-243.33 726.57,-218.56"/>
<polygon fill="#63b8ff" stroke="#63b8ff" points="728.98,-221.1 733.83,-211.69 724.17,-216.02 728.98,-221.1"/>
</a>
</g>
</g>
<!-- Node11 -->
<g id="Node000011" class="node">
<title>Node11</title>
<g id="a_Node000011"><a xlink:href="types_8h.html" target="_top" xlink:title=" ">
<polygon fill="white" stroke="#666666" points="986,-145.5 864,-145.5 864,-126.5 986,-126.5 986,-145.5"/>
<text text-anchor="middle" x="925" y="-133.5" font-family="Helvetica,sans-Serif" font-size="10.00">prismspf/core/types.h</text>
</a>
</g>
</g>
<!-- Node1&#45;&gt;Node11 -->
<g id="edge25_Node000001_Node000011" class="edge">
<title>Node1&#45;&gt;Node11</title>
<g id="a_edge25_Node000001_Node000011"><a xlink:title=" ">
<path fill="none" stroke="#63b8ff" d="M601.84,-318.75C605.99,-285.99 619.2,-220.68 660,-187 674.87,-174.72 780.36,-157.54 853.66,-146.85"/>
<polygon fill="#63b8ff" stroke="#63b8ff" points="854.39,-150.28 863.78,-145.39 853.38,-143.35 854.39,-150.28"/>
</a>
</g>
</g>
<!-- Node16 -->
<g id="Node000016" class="node">
<title>Node16</title>
<g id="a_Node000016"><a xlink:href="grid__refiner__criterion_8h.html" target="_top" xlink:title=" ">
<polygon fill="white" stroke="#666666" points="537,-217 429,-217 429,-187 537,-187 537,-217"/>
<text text-anchor="start" x="437" y="-205" font-family="Helvetica,sans-Serif" font-size="10.00">prismspf/core/grid</text>
<text text-anchor="middle" x="483" y="-194" font-family="Helvetica,sans-Serif" font-size="10.00">_refiner_criterion.h</text>
</a>
</g>
</g>
<!-- Node1&#45;&gt;Node16 -->
<g id="edge18_Node000001_Node000016" class="edge">
<title>Node1&#45;&gt;Node16</title>
<g id="a_edge18_Node000001_Node000016"><a xlink:title=" ">
<path fill="none" stroke="#63b8ff" d="M589.01,-318.68C578.48,-300.57 561.48,-273.57 543,-253 533.32,-242.23 521.28,-231.75 510.53,-223.18"/>
<polygon fill="#63b8ff" stroke="#63b8ff" points="512.66,-220.41 502.62,-217.04 508.37,-225.94 512.66,-220.41"/>
</a>
</g>
</g>
<!-- Node18 -->
<g id="Node000018" class="node">
<title>Node18</title>
<g id="a_Node000018"><a xlink:href="boundary__parameters_8h.html" target="_top" xlink:title=" ">
<polygon fill="white" stroke="#666666" points="1372,-283 1236,-283 1236,-253 1372,-253 1372,-283"/>
<text text-anchor="start" x="1244" y="-271" font-family="Helvetica,sans-Serif" font-size="10.00">prismspf/user_inputs</text>
<text text-anchor="middle" x="1304" y="-260" font-family="Helvetica,sans-Serif" font-size="10.00">/boundary_parameters.h</text>
</a>
</g>
</g>
<!-- Node1&#45;&gt;Node18 -->
<g id="edge26_Node000001_Node000018" class="edge">
<title>Node1&#45;&gt;Node18</title>
<g id="a_edge26_Node000001_Node000018"><a xlink:title=" ">
<path fill="none" stroke="#63b8ff" d="M696.04,-329.02C836.54,-315.15 1095.45,-289.59 1225.34,-276.77"/>
<polygon fill="#63b8ff" stroke="#63b8ff" points="1226,-280.22 1235.61,-275.75 1225.31,-273.25 1226,-280.22"/>
</a>
</g>
</g>
<!-- Node30 -->
<g id="Node000030" class="node">
<title>Node30</title>
<g id="a_Node000030"><a xlink:href="utilities_8h.html" target="_top" xlink:title=" ">
<polygon fill="white" stroke="#666666" points="1943.5,-217 1844.5,-217 1844.5,-187 1943.5,-187 1943.5,-217"/>
<text text-anchor="start" x="1852.5" y="-205" font-family="Helvetica,sans-Serif" font-size="10.00">prismspf/utilities</text>
<text text-anchor="middle" x="1894" y="-194" font-family="Helvetica,sans-Serif" font-size="10.00">/utilities.h</text>
</a>
</g>
</g>
<!-- Node1&#45;&gt;Node30 -->
<g id="edge52_Node000001_Node000030" class="edge">
<title>Node1&#45;&gt;Node30</title>
<g id="a_edge52_Node000001_Node000030"><a xlink:title=" ">
<path fill="none" stroke="#63b8ff" d="M696.12,-334.27C843.74,-327.18 1135.01,-310.87 1381,-283 1545.84,-264.32 1738.81,-231.15 1834.26,-213.98"/>
<polygon fill="#63b8ff" stroke="#63b8ff" points="1835.09,-217.39 1844.3,-212.17 1833.84,-210.5 1835.09,-217.39"/>
</a>
</g>
</g>
<!-- Node7 -->
<g id="Node000007" class="node">
<title>Node7</title>
<g id="a_Node000007"><a xlink:title=" ">
<polygon fill="#e0e0e0" stroke="#999999" points="2578,-151 2448,-151 2448,-121 2578,-121 2578,-151"/>
<text text-anchor="start" x="2456" y="-139" font-family="Helvetica,sans-Serif" font-size="10.00">deal.II/base/conditional</text>
<text text-anchor="middle" x="2513" y="-128" font-family="Helvetica,sans-Serif" font-size="10.00">_ostream.h</text>
</a>
</g>
</g>
<!-- Node6&#45;&gt;Node7 -->
<g id="edge6_Node000006_Node000007" class="edge">
<title>Node6&#45;&gt;Node7</title>
<g id="a_edge6_Node000006_Node000007"><a xlink:title=" ">
<path fill="none" stroke="#63b8ff" d="M2325.67,-186.95C2362.4,-177.16 2411.58,-164.05 2450.33,-153.71"/>
<polygon fill="#63b8ff" stroke="#63b8ff" points="2451.69,-156.97 2460.45,-151.01 2449.89,-150.21 2451.69,-156.97"/>
</a>
</g>
</g>
<!-- Node6&#45;&gt;Node8 -->
<g id="edge7_Node000006_Node000008" class="edge">
<title>Node6&#45;&gt;Node8</title>
<g id="a_edge7_Node000006_Node000008"><a xlink:title=" ">
<path fill="none" stroke="#63b8ff" d="M2343,-200.02C2425.79,-197.21 2556.27,-187.01 2587,-151 2595.66,-140.86 2595.83,-130.99 2587,-121 2512.85,-37.03 1706.01,-15.84 1475.92,-11.49"/>
<polygon fill="#63b8ff" stroke="#63b8ff" points="1475.79,-7.98 1465.73,-11.3 1475.66,-14.98 1475.79,-7.98"/>
</a>
</g>
</g>
<!-- Node9&#45;&gt;Node8 -->
<g id="edge17_Node000009_Node000008" class="edge">
<title>Node9&#45;&gt;Node8</title>
<g id="a_edge17_Node000009_Node000008"><a xlink:title=" ">
<path fill="none" stroke="#63b8ff" d="M789.54,-192.5C851.28,-181.09 956.9,-161.11 995,-151 1142.33,-111.91 1313.35,-49.1 1383.02,-22.76"/>
<polygon fill="#63b8ff" stroke="#63b8ff" points="1384.44,-25.96 1392.54,-19.14 1381.95,-19.42 1384.44,-25.96"/>
</a>
</g>
</g>
<!-- Node10 -->
<g id="Node000010" class="node">
<title>Node10</title>
<g id="a_Node000010"><a xlink:title=" ">
<polygon fill="#e0e0e0" stroke="#999999" points="812,-145.5 674,-145.5 674,-126.5 812,-126.5 812,-145.5"/>
<text text-anchor="middle" x="743" y="-133.5" font-family="Helvetica,sans-Serif" font-size="10.00">deal.II/base/exceptions.h</text>
</a>
</g>
</g>
<!-- Node9&#45;&gt;Node10 -->
<g id="edge9_Node000009_Node000010" class="edge">
<title>Node9&#45;&gt;Node10</title>
<g id="a_edge9_Node000009_Node000010"><a xlink:title=" ">
<path fill="none" stroke="#63b8ff" d="M743,-192.37C743,-183.16 743,-168.29 743,-156.27"/>
<polygon fill="#63b8ff" stroke="#63b8ff" points="746.5,-155.91 743,-145.91 739.5,-155.91 746.5,-155.91"/>
</a>
</g>
</g>
<!-- Node9&#45;&gt;Node11 -->
<g id="edge10_Node000009_Node000011" class="edge">
<title>Node9&#45;&gt;Node11</title>
<g id="a_edge10_Node000009_Node000011"><a xlink:title=" ">
<path fill="none" stroke="#63b8ff" d="M767.55,-192.37C799.38,-181.17 855.09,-161.58 890.99,-148.96"/>
<polygon fill="#63b8ff" stroke="#63b8ff" points="892.28,-152.22 900.55,-145.6 889.96,-145.61 892.28,-152.22"/>
</a>
</g>
</g>
<!-- Node11&#45;&gt;Node8 -->
<g id="edge15_Node000011_Node000008" class="edge">
<title>Node11&#45;&gt;Node8</title>
<g id="a_edge15_Node000011_Node000008"><a xlink:title=" ">
<path fill="none" stroke="#63b8ff" d="M927.54,-126.41C933.07,-109.46 947.88,-71.87 975,-55 1036.83,-16.54 1248.6,-10.64 1354.17,-10.17"/>
<polygon fill="#63b8ff" stroke="#63b8ff" points="1354.36,-13.67 1364.35,-10.14 1354.34,-6.67 1354.36,-13.67"/>
</a>
</g>
</g>
<!-- Node12 -->
<g id="Node000012" class="node">
<title>Node12</title>
<g id="a_Node000012"><a xlink:href="type__enums_8h.html" target="_top" xlink:title=" ">
<polygon fill="white" stroke="#666666" points="811,-85 703,-85 703,-55 811,-55 811,-85"/>
<text text-anchor="start" x="711" y="-73" font-family="Helvetica,sans-Serif" font-size="10.00">prismspf/core/type</text>
<text text-anchor="middle" x="757" y="-62" font-family="Helvetica,sans-Serif" font-size="10.00">_enums.h</text>
</a>
</g>
</g>
<!-- Node11&#45;&gt;Node12 -->
<g id="edge11_Node000011_Node000012" class="edge">
<title>Node11&#45;&gt;Node12</title>
<g id="a_edge11_Node000011_Node000012"><a xlink:title=" ">
<path fill="none" stroke="#63b8ff" d="M902.34,-126.37C877.18,-116.78 835.87,-101.05 803.71,-88.8"/>
<polygon fill="#63b8ff" stroke="#63b8ff" points="804.64,-85.4 794.05,-85.12 802.15,-91.95 804.64,-85.4"/>
</a>
</g>
</g>
<!-- Node15 -->
<g id="Node000015" class="node">
<title>Node15</title>
<g id="a_Node000015"><a xlink:title=" ">
<polygon fill="#e0e0e0" stroke="#999999" points="1028.5,-79.5 983.5,-79.5 983.5,-60.5 1028.5,-60.5 1028.5,-79.5"/>
<text text-anchor="middle" x="1006" y="-67.5" font-family="Helvetica,sans-Serif" font-size="10.00">utility</text>
</a>
</g>
</g>
<!-- Node11&#45;&gt;Node15 -->
<g id="edge16_Node000011_Node000015" class="edge">
<title>Node11&#45;&gt;Node15</title>
<g id="a_edge16_Node000011_Node000015"><a xlink:title=" ">
<path fill="none" stroke="#63b8ff" d="M935.92,-126.37C948.97,-116.06 971.01,-98.65 986.9,-86.09"/>
<polygon fill="#63b8ff" stroke="#63b8ff" points="989.31,-88.64 994.99,-79.7 984.97,-83.15 989.31,-88.64"/>
</a>
</g>
</g>
<!-- Node12&#45;&gt;Node8 -->
<g id="edge12_Node000012_Node000008" class="edge">
<title>Node12&#45;&gt;Node8</title>
<g id="a_edge12_Node000012_Node000008"><a xlink:title=" ">
<path fill="none" stroke="#63b8ff" d="M811.13,-64.19C932.65,-53.38 1226.48,-27.26 1354.12,-15.91"/>
<polygon fill="#63b8ff" stroke="#63b8ff" points="1354.47,-19.4 1364.12,-15.02 1353.85,-12.42 1354.47,-19.4"/>
</a>
</g>
</g>
<!-- Node13 -->
<g id="Node000013" class="node">
<title>Node13</title>
<g id="a_Node000013"><a xlink:title=" ">
<polygon fill="#e0e0e0" stroke="#999999" points="570,-19 520,-19 520,0 570,0 570,-19"/>
<text text-anchor="middle" x="545" y="-7" font-family="Helvetica,sans-Serif" font-size="10.00">cstdint</text>
</a>
</g>
</g>
<!-- Node12&#45;&gt;Node13 -->
<g id="edge13_Node000012_Node000013" class="edge">
<title>Node12&#45;&gt;Node13</title>
<g id="a_edge13_Node000012_Node000013"><a xlink:title=" ">
<path fill="none" stroke="#63b8ff" d="M706.22,-54.99C667.26,-44.24 614.48,-29.67 580.09,-20.18"/>
<polygon fill="#63b8ff" stroke="#63b8ff" points="580.62,-16.7 570.04,-17.41 578.75,-23.44 580.62,-16.7"/>
</a>
</g>
</g>
<!-- Node14 -->
<g id="Node000014" class="node">
<title>Node14</title>
<g id="a_Node000014"><a xlink:title=" ">
<polygon fill="#e0e0e0" stroke="#999999" points="687,-19 643,-19 643,0 687,0 687,-19"/>
<text text-anchor="middle" x="665" y="-7" font-family="Helvetica,sans-Serif" font-size="10.00">string</text>
</a>
</g>
</g>
<!-- Node12&#45;&gt;Node14 -->
<g id="edge14_Node000012_Node000014" class="edge">
<title>Node12&#45;&gt;Node14</title>
<g id="a_edge14_Node000012_Node000014"><a xlink:title=" ">
<path fill="none" stroke="#63b8ff" d="M734.73,-54.84C720.33,-45.68 701.67,-33.82 687.27,-24.66"/>
<polygon fill="#63b8ff" stroke="#63b8ff" points="688.83,-21.51 678.52,-19.09 685.08,-27.41 688.83,-21.51"/>
</a>
</g>
</g>
<!-- Node16&#45;&gt;Node8 -->
<g id="edge21_Node000016_Node000008" class="edge">
<title>Node16&#45;&gt;Node8</title>
<g id="a_edge21_Node000016_Node000008"><a xlink:title=" ">
<path fill="none" stroke="#63b8ff" d="M497.27,-186.82C529.2,-156.14 610.24,-84.02 694,-55 815.27,-12.99 1203.49,-9.71 1354.3,-10.08"/>
<polygon fill="#63b8ff" stroke="#63b8ff" points="1354.3,-13.58 1364.31,-10.11 1354.32,-6.58 1354.3,-13.58"/>
</a>
</g>
</g>
<!-- Node16&#45;&gt;Node10 -->
<g id="edge19_Node000016_Node000010" class="edge">
<title>Node16&#45;&gt;Node10</title>
<g id="a_edge19_Node000016_Node000010"><a xlink:title=" ">
<path fill="none" stroke="#63b8ff" d="M537.19,-187.66C584.96,-175.9 653.73,-158.97 698.39,-147.98"/>
<polygon fill="#63b8ff" stroke="#63b8ff" points="699.49,-151.31 708.36,-145.53 697.82,-144.52 699.49,-151.31"/>
</a>
</g>
</g>
<!-- Node16&#45;&gt;Node11 -->
<g id="edge20_Node000016_Node000011" class="edge">
<title>Node16&#45;&gt;Node11</title>
<g id="a_edge20_Node000016_Node000011"><a xlink:title=" ">
<path fill="none" stroke="#63b8ff" d="M537.13,-189.5C541.81,-188.61 546.48,-187.76 551,-187 670.36,-166.78 701.01,-167.08 821,-151 831.65,-149.57 842.9,-148.06 853.93,-146.58"/>
<polygon fill="#63b8ff" stroke="#63b8ff" points="854.52,-150.03 863.96,-145.23 853.58,-143.09 854.52,-150.03"/>
</a>
</g>
</g>
<!-- Node16&#45;&gt;Node13 -->
<g id="edge23_Node000016_Node000013" class="edge">
<title>Node16&#45;&gt;Node13</title>
<g id="a_edge23_Node000016_Node000013"><a xlink:title=" ">
<path fill="none" stroke="#63b8ff" d="M468.51,-186.7C460.16,-177.41 450.46,-164.54 446,-151 441.82,-138.34 441.24,-133.45 446,-121 461.73,-79.86 500.62,-44.38 524.71,-25.35"/>
<polygon fill="#63b8ff" stroke="#63b8ff" points="527.04,-27.97 532.84,-19.1 522.78,-22.42 527.04,-27.97"/>
</a>
</g>
</g>
<!-- Node16&#45;&gt;Node14 -->
<g id="edge24_Node000016_Node000014" class="edge">
<title>Node16&#45;&gt;Node14</title>
<g id="a_edge24_Node000016_Node000014"><a xlink:title=" ">
<path fill="none" stroke="#63b8ff" d="M490.38,-186.64C495.45,-176.69 502.27,-163.1 508,-151 528.01,-108.75 517.14,-87.24 551,-55 573.58,-33.5 607.75,-22.02 632.79,-16.15"/>
<polygon fill="#63b8ff" stroke="#63b8ff" points="633.53,-19.57 642.56,-14.02 632.05,-12.72 633.53,-19.57"/>
</a>
</g>
</g>
<!-- Node17 -->
<g id="Node000017" class="node">
<title>Node17</title>
<g id="a_Node000017"><a xlink:title=" ">
<polygon fill="#e0e0e0" stroke="#999999" points="499,-145.5 455,-145.5 455,-126.5 499,-126.5 499,-145.5"/>
<text text-anchor="middle" x="477" y="-133.5" font-family="Helvetica,sans-Serif" font-size="10.00">cfloat</text>
</a>
</g>
</g>
<!-- Node16&#45;&gt;Node17 -->
<g id="edge22_Node000016_Node000017" class="edge">
<title>Node16&#45;&gt;Node17</title>
<g id="a_edge22_Node000016_Node000017"><a xlink:title=" ">
<path fill="none" stroke="#63b8ff" d="M481.67,-186.8C480.82,-177.7 479.7,-165.79 478.77,-155.9"/>
<polygon fill="#63b8ff" stroke="#63b8ff" points="482.25,-155.47 477.83,-145.84 475.28,-156.13 482.25,-155.47"/>
</a>
</g>
</g>
<!-- Node18&#45;&gt;Node6 -->
<g id="edge31_Node000018_Node000006" class="edge">
<title>Node18&#45;&gt;Node6</title>
<g id="a_edge31_Node000018_Node000006"><a xlink:title=" ">
<path fill="none" stroke="#63b8ff" d="M1372.14,-262.5C1546.21,-251 2006.61,-220.59 2192.98,-208.28"/>
<polygon fill="#63b8ff" stroke="#63b8ff" points="2193.24,-211.78 2202.99,-207.62 2192.78,-204.79 2193.24,-211.78"/>
</a>
</g>
</g>
<!-- Node18&#45;&gt;Node8 -->
<g id="edge46_Node000018_Node000008" class="edge">
<title>Node18&#45;&gt;Node8</title>
<g id="a_edge46_Node000018_Node000008"><a xlink:title=" ">
<path fill="none" stroke="#63b8ff" d="M1372.39,-253.87C1373.94,-253.58 1375.48,-253.29 1377,-253 1419.87,-244.89 1542.12,-250.56 1570,-217 1592.01,-190.51 1547.67,-131.37 1540,-121 1510.14,-80.62 1463.38,-44.24 1436.32,-24.98"/>
<polygon fill="#63b8ff" stroke="#63b8ff" points="1438.15,-21.98 1427.95,-19.12 1434.13,-27.72 1438.15,-21.98"/>
</a>
</g>
</g>
<!-- Node18&#45;&gt;Node9 -->
<g id="edge32_Node000018_Node000009" class="edge">
<title>Node18&#45;&gt;Node9</title>
<g id="a_edge32_Node000018_Node000009"><a xlink:title=" ">
<path fill="none" stroke="#63b8ff" d="M1235.76,-261.22C1142.87,-253.05 971.5,-236.86 826,-217 817.67,-215.86 808.9,-214.53 800.3,-213.15"/>
<polygon fill="#63b8ff" stroke="#63b8ff" points="800.76,-209.68 790.32,-211.51 799.63,-216.58 800.76,-209.68"/>
</a>
</g>
</g>
<!-- Node18&#45;&gt;Node11 -->
<g id="edge34_Node000018_Node000011" class="edge">
<title>Node18&#45;&gt;Node11</title>
<g id="a_edge34_Node000018_Node000011"><a xlink:title=" ">
<path fill="none" stroke="#63b8ff" d="M1296.91,-252.74C1286.93,-234.29 1266.91,-202.65 1240,-187 1238.64,-186.21 1081.38,-161.49 989.6,-147.11"/>
<polygon fill="#63b8ff" stroke="#63b8ff" points="989.99,-143.63 979.57,-145.54 988.91,-150.54 989.99,-143.63"/>
</a>
</g>
</g>
<!-- Node18&#45;&gt;Node12 -->
<g id="edge33_Node000018_Node000012" class="edge">
<title>Node18&#45;&gt;Node12</title>
<g id="a_edge33_Node000018_Node000012"><a xlink:title=" ">
<path fill="none" stroke="#63b8ff" d="M1235.85,-266.82C1078.13,-265.68 698.51,-258.62 660,-217 649,-205.12 648.41,-146.64 665,-121 673.91,-107.22 687.98,-96.95 702.46,-89.41"/>
<polygon fill="#63b8ff" stroke="#63b8ff" points="703.99,-92.56 711.48,-85.07 700.95,-86.25 703.99,-92.56"/>
</a>
</g>
</g>
<!-- Node18&#45;&gt;Node14 -->
<g id="edge49_Node000018_Node000014" class="edge">
<title>Node18&#45;&gt;Node14</title>
<g id="a_edge49_Node000018_Node000014"><a xlink:title=" ">
<path fill="none" stroke="#63b8ff" d="M1235.77,-266.92C1075.85,-266.03 687.35,-259.46 648,-217 599.19,-164.33 636.84,-68.24 655.79,-28.47"/>
<polygon fill="#63b8ff" stroke="#63b8ff" points="658.96,-29.95 660.24,-19.43 652.68,-26.85 658.96,-29.95"/>
</a>
</g>
</g>
<!-- Node19 -->
<g id="Node000019" class="node">
<title>Node19</title>
<g id="a_Node000019"><a xlink:title=" ">
<polygon fill="#e0e0e0" stroke="#999999" points="1697,-145.5 1587,-145.5 1587,-126.5 1697,-126.5 1697,-145.5"/>
<text text-anchor="middle" x="1642" y="-133.5" font-family="Helvetica,sans-Serif" font-size="10.00">deal.II/base/point.h</text>
</a>
</g>
</g>
<!-- Node18&#45;&gt;Node19 -->
<g id="edge27_Node000018_Node000019" class="edge">
<title>Node18&#45;&gt;Node19</title>
<g id="a_edge27_Node000018_Node000019"><a xlink:title=" ">
<path fill="none" stroke="#63b8ff" d="M1372.24,-262.68C1474.63,-255.5 1658.21,-239.61 1678,-217 1694.61,-198.02 1674.66,-170.11 1658.5,-152.77"/>
<polygon fill="#63b8ff" stroke="#63b8ff" points="1660.99,-150.31 1651.49,-145.62 1655.99,-155.21 1660.99,-150.31"/>
</a>
</g>
</g>
<!-- Node20 -->
<g id="Node000020" class="node">
<title>Node20</title>
<g id="a_Node000020"><a xlink:title=" ">
<polygon fill="#e0e0e0" stroke="#999999" points="947,-211.5 835,-211.5 835,-192.5 947,-192.5 947,-211.5"/>
<text text-anchor="middle" x="891" y="-199.5" font-family="Helvetica,sans-Serif" font-size="10.00">deal.II/base/types.h</text>
</a>
</g>
</g>
<!-- Node18&#45;&gt;Node20 -->
<g id="edge28_Node000018_Node000020" class="edge">
<title>Node18&#45;&gt;Node20</title>
<g id="a_edge28_Node000018_Node000020"><a xlink:title=" ">
<path fill="none" stroke="#63b8ff" d="M1235.76,-258.62C1165.43,-249.65 1052.73,-234.34 956,-217 950.25,-215.97 944.23,-214.8 938.28,-213.58"/>
<polygon fill="#63b8ff" stroke="#63b8ff" points="938.88,-210.13 928.38,-211.51 937.45,-216.99 938.88,-210.13"/>
</a>
</g>
</g>
<!-- Node21 -->
<g id="Node000021" class="node">
<title>Node21</title>
<g id="a_Node000021"><a xlink:title=" ">
<polygon fill="#e0e0e0" stroke="#999999" points="1087,-211.5 965,-211.5 965,-192.5 1087,-192.5 1087,-211.5"/>
<text text-anchor="middle" x="1026" y="-199.5" font-family="Helvetica,sans-Serif" font-size="10.00">deal.II/base/utilities.h</text>
</a>
</g>
</g>
<!-- Node18&#45;&gt;Node21 -->
<g id="edge29_Node000018_Node000021" class="edge">
<title>Node18&#45;&gt;Node21</title>
<g id="a_edge29_Node000018_Node000021"><a xlink:title=" ">
<path fill="none" stroke="#63b8ff" d="M1242.99,-252.95C1191.77,-241.16 1119.65,-224.56 1072.87,-213.79"/>
<polygon fill="#63b8ff" stroke="#63b8ff" points="1073.53,-210.35 1063,-211.52 1071.96,-217.17 1073.53,-210.35"/>
</a>
</g>
</g>
<!-- Node22 -->
<g id="Node000022" class="node">
<title>Node22</title>
<g id="a_Node000022"><a xlink:title=" ">
<polygon fill="#e0e0e0" stroke="#999999" points="1230.5,-217 1105.5,-217 1105.5,-187 1230.5,-187 1230.5,-217"/>
<text text-anchor="start" x="1113.5" y="-205" font-family="Helvetica,sans-Serif" font-size="10.00">boost/algorithm/string</text>
<text text-anchor="middle" x="1168" y="-194" font-family="Helvetica,sans-Serif" font-size="10.00">/predicate.hpp</text>
</a>
</g>
</g>
<!-- Node18&#45;&gt;Node22 -->
<g id="edge30_Node000018_Node000022" class="edge">
<title>Node18&#45;&gt;Node22</title>
<g id="a_edge30_Node000018_Node000022"><a xlink:title=" ">
<path fill="none" stroke="#63b8ff" d="M1274.15,-252.95C1254.4,-243.66 1228.3,-231.38 1206.92,-221.32"/>
<polygon fill="#63b8ff" stroke="#63b8ff" points="1208.31,-218.1 1197.78,-217.01 1205.33,-224.44 1208.31,-218.1"/>
</a>
</g>
</g>
<!-- Node23 -->
<g id="Node000023" class="node">
<title>Node23</title>
<g id="a_Node000023"><a xlink:href="variable__attributes_8h.html" target="_top" xlink:title=" ">
<polygon fill="white" stroke="#666666" points="1413,-217 1287,-217 1287,-187 1413,-187 1413,-217"/>
<text text-anchor="start" x="1295" y="-205" font-family="Helvetica,sans-Serif" font-size="10.00">prismspf/core/variable</text>
<text text-anchor="middle" x="1350" y="-194" font-family="Helvetica,sans-Serif" font-size="10.00">_attributes.h</text>
</a>
</g>
</g>
<!-- Node18&#45;&gt;Node23 -->
<g id="edge35_Node000018_Node000023" class="edge">
<title>Node18&#45;&gt;Node23</title>
<g id="a_edge35_Node000018_Node000023"><a xlink:title=" ">
<path fill="none" stroke="#63b8ff" d="M1314.21,-252.8C1319.99,-244.76 1327.34,-234.53 1333.88,-225.43"/>
<polygon fill="#63b8ff" stroke="#63b8ff" points="1336.83,-227.33 1339.82,-217.16 1331.14,-223.24 1336.83,-227.33"/>
</a>
</g>
</g>
<!-- Node25 -->
<g id="Node000025" class="node">
<title>Node25</title>
<g id="a_Node000025"><a xlink:title=" ">
<polygon fill="#e0e0e0" stroke="#999999" points="1338,-145.5 1300,-145.5 1300,-126.5 1338,-126.5 1338,-145.5"/>
<text text-anchor="middle" x="1319" y="-133.5" font-family="Helvetica,sans-Serif" font-size="10.00">map</text>
</a>
</g>
</g>
<!-- Node18&#45;&gt;Node25 -->
<g id="edge48_Node000018_Node000025" class="edge">
<title>Node18&#45;&gt;Node25</title>
<g id="a_edge48_Node000018_Node000025"><a xlink:title=" ">
<path fill="none" stroke="#63b8ff" d="M1372.08,-253.22C1391.47,-245.81 1410.45,-234.44 1422,-217 1429.36,-205.88 1429.08,-198.3 1422,-187 1421.86,-186.78 1376.68,-164.89 1346.21,-150.15"/>
<polygon fill="#63b8ff" stroke="#63b8ff" points="1347.43,-146.86 1336.91,-145.66 1344.39,-153.16 1347.43,-146.86"/>
</a>
</g>
</g>
<!-- Node27 -->
<g id="Node000027" class="node">
<title>Node27</title>
<g id="a_Node000027"><a xlink:title=" ">
<polygon fill="#e0e0e0" stroke="#999999" points="1403.5,-145.5 1356.5,-145.5 1356.5,-126.5 1403.5,-126.5 1403.5,-145.5"/>
<text text-anchor="middle" x="1380" y="-133.5" font-family="Helvetica,sans-Serif" font-size="10.00">vector</text>
</a>
</g>
</g>
<!-- Node18&#45;&gt;Node27 -->
<g id="edge51_Node000018_Node000027" class="edge">
<title>Node18&#45;&gt;Node27</title>
<g id="a_edge51_Node000018_Node000027"><a xlink:title=" ">
<path fill="none" stroke="#63b8ff" d="M1372.29,-257.99C1397.2,-251.03 1422.92,-238.72 1438,-217 1454.15,-193.74 1425.35,-167.21 1402.86,-151.3"/>
<polygon fill="#63b8ff" stroke="#63b8ff" points="1404.6,-148.25 1394.36,-145.56 1400.69,-154.06 1404.6,-148.25"/>
</a>
</g>
</g>
<!-- Node28 -->
<g id="Node000028" class="node">
<title>Node28</title>
<g id="a_Node000028"><a xlink:title=" ">
<polygon fill="#e0e0e0" stroke="#999999" points="1560.5,-211.5 1507.5,-211.5 1507.5,-192.5 1560.5,-192.5 1560.5,-211.5"/>
<text text-anchor="middle" x="1534" y="-199.5" font-family="Helvetica,sans-Serif" font-size="10.00">cstddef</text>
</a>
</g>
</g>
<!-- Node18&#45;&gt;Node28 -->
<g id="edge47_Node000018_Node000028" class="edge">
<title>Node18&#45;&gt;Node28</title>
<g id="a_edge47_Node000018_Node000028"><a xlink:title=" ">
<path fill="none" stroke="#63b8ff" d="M1361.36,-252.94C1398.98,-243.45 1449.14,-230.27 1493,-217 1495.31,-216.3 1497.68,-215.56 1500.07,-214.79"/>
<polygon fill="#63b8ff" stroke="#63b8ff" points="1501.41,-218.03 1509.81,-211.58 1499.22,-211.39 1501.41,-218.03"/>
</a>
</g>
</g>
<!-- Node29 -->
<g id="Node000029" class="node">
<title>Node29</title>
<g id="a_Node000029"><a xlink:title=" ">
<polygon fill="#e0e0e0" stroke="#999999" points="1668.5,-211.5 1617.5,-211.5 1617.5,-192.5 1668.5,-192.5 1668.5,-211.5"/>
<text text-anchor="middle" x="1643" y="-199.5" font-family="Helvetica,sans-Serif" font-size="10.00">variant</text>
</a>
</g>
</g>
<!-- Node18&#45;&gt;Node29 -->
<g id="edge50_Node000018_Node000029" class="edge">
<title>Node18&#45;&gt;Node29</title>
<g id="a_edge50_Node000018_Node000029"><a xlink:title=" ">
<path fill="none" stroke="#63b8ff" d="M1372.08,-258.99C1433.14,-251.01 1524.87,-237.05 1603,-217 1605.65,-216.32 1608.37,-215.54 1611.09,-214.71"/>
<polygon fill="#63b8ff" stroke="#63b8ff" points="1612.37,-217.97 1620.78,-211.53 1610.19,-211.32 1612.37,-217.97"/>
</a>
</g>
</g>
<!-- Node23&#45;&gt;Node8 -->
<g id="edge40_Node000023_Node000008" class="edge">
<title>Node23&#45;&gt;Node8</title>
<g id="a_edge40_Node000023_Node000008"><a xlink:title=" ">
<path fill="none" stroke="#63b8ff" d="M1324.7,-186.88C1312.06,-178.31 1298,-166.11 1291,-151 1285.39,-138.9 1285.55,-133.17 1291,-121 1311.12,-76.13 1359.46,-42 1389.5,-24.22"/>
<polygon fill="#63b8ff" stroke="#63b8ff" points="1391.61,-27.04 1398.55,-19.03 1388.13,-20.97 1391.61,-27.04"/>
</a>
</g>
</g>
<!-- Node23&#45;&gt;Node10 -->
<g id="edge36_Node000023_Node000010" class="edge">
<title>Node23&#45;&gt;Node10</title>
<g id="a_edge36_Node000023_Node000010"><a xlink:title=" ">
<path fill="none" stroke="#63b8ff" d="M1286.93,-192.61C1271.58,-190.67 1255.21,-188.68 1240,-187 1069.18,-168.15 1025.84,-169.66 855,-151 843.21,-149.71 830.73,-148.25 818.54,-146.77"/>
<polygon fill="#63b8ff" stroke="#63b8ff" points="818.75,-143.27 808.4,-145.52 817.9,-150.22 818.75,-143.27"/>
</a>
</g>
</g>
<!-- Node23&#45;&gt;Node11 -->
<g id="edge39_Node000023_Node000011" class="edge">
<title>Node23&#45;&gt;Node11</title>
<g id="a_edge39_Node000023_Node000011"><a xlink:title=" ">
<path fill="none" stroke="#63b8ff" d="M1286.59,-189.26C1281.99,-188.47 1277.43,-187.71 1273,-187 1158.69,-168.64 1129.54,-167.9 1015,-151 1006.48,-149.74 997.5,-148.39 988.66,-147.03"/>
<polygon fill="#63b8ff" stroke="#63b8ff" points="989.17,-143.57 978.76,-145.5 988.11,-150.49 989.17,-143.57"/>
</a>
</g>
</g>
<!-- Node23&#45;&gt;Node12 -->
<g id="edge38_Node000023_Node000012" class="edge">
<title>Node23&#45;&gt;Node12</title>
<g id="a_edge38_Node000023_Node000012"><a xlink:title=" ">
<path fill="none" stroke="#63b8ff" d="M1287.8,-187C1243.29,-176.97 1181.96,-163.16 1128,-151 1068.89,-137.68 1054.21,-133.9 995,-121 936.27,-108.21 869.25,-94.18 821.33,-84.25"/>
<polygon fill="#63b8ff" stroke="#63b8ff" points="821.9,-80.79 811.4,-82.19 820.48,-87.65 821.9,-80.79"/>
</a>
</g>
</g>
<!-- Node23&#45;&gt;Node14 -->
<g id="edge43_Node000023_Node000014" class="edge">
<title>Node23&#45;&gt;Node14</title>
<g id="a_edge43_Node000023_Node000014"><a xlink:title=" ">
<path fill="none" stroke="#63b8ff" d="M1286.61,-190.15C1249.85,-182.34 1203.39,-169.81 1165,-151 1101.46,-119.87 1103.63,-81.44 1038,-55 976.33,-30.15 776.25,-16.65 697.39,-12.19"/>
<polygon fill="#63b8ff" stroke="#63b8ff" points="697.27,-8.68 687.09,-11.62 696.88,-15.67 697.27,-8.68"/>
</a>
</g>
</g>
<!-- Node23&#45;&gt;Node15 -->
<g id="edge44_Node000023_Node000015" class="edge">
<title>Node23&#45;&gt;Node15</title>
<g id="a_edge44_Node000023_Node000015"><a xlink:title=" ">
<path fill="none" stroke="#63b8ff" d="M1322.17,-186.91C1303.68,-177.3 1279.03,-164 1258,-151 1238.18,-138.75 1236.26,-130.54 1215,-121 1155.85,-94.45 1080.7,-80.9 1038.53,-74.94"/>
<polygon fill="#63b8ff" stroke="#63b8ff" points="1038.93,-71.46 1028.55,-73.59 1037.99,-78.4 1038.93,-71.46"/>
</a>
</g>
</g>
<!-- Node24 -->
<g id="Node000024" class="node">
<title>Node24</title>
<g id="a_Node000024"><a xlink:title=" ">
<polygon fill="#e0e0e0" stroke="#999999" points="1530.5,-151 1421.5,-151 1421.5,-121 1530.5,-121 1530.5,-151"/>
<text text-anchor="start" x="1429.5" y="-139" font-family="Helvetica,sans-Serif" font-size="10.00">deal.II/matrix_free</text>
<text text-anchor="middle" x="1476" y="-128" font-family="Helvetica,sans-Serif" font-size="10.00">/evaluation_flags.h</text>
</a>
</g>
</g>
<!-- Node23&#45;&gt;Node24 -->
<g id="edge37_Node000023_Node000024" class="edge">
<title>Node23&#45;&gt;Node24</title>
<g id="a_edge37_Node000023_Node000024"><a xlink:title=" ">
<path fill="none" stroke="#63b8ff" d="M1377.65,-186.95C1395.79,-177.74 1419.7,-165.6 1439.41,-155.59"/>
<polygon fill="#63b8ff" stroke="#63b8ff" points="1441.08,-158.66 1448.41,-151.01 1437.91,-152.42 1441.08,-158.66"/>
</a>
</g>
</g>
<!-- Node23&#45;&gt;Node25 -->
<g id="edge41_Node000023_Node000025" class="edge">
<title>Node23&#45;&gt;Node25</title>
<g id="a_edge41_Node000023_Node000025"><a xlink:title=" ">
<path fill="none" stroke="#63b8ff" d="M1343.12,-186.8C1338.57,-177.41 1332.57,-165.02 1327.69,-154.95"/>
<polygon fill="#63b8ff" stroke="#63b8ff" points="1330.79,-153.32 1323.28,-145.84 1324.49,-156.37 1330.79,-153.32"/>
</a>
</g>
</g>
<!-- Node26 -->
<g id="Node000026" class="node">
<title>Node26</title>
<g id="a_Node000026"><a xlink:title=" ">
<polygon fill="#e0e0e0" stroke="#999999" points="1206,-145.5 1174,-145.5 1174,-126.5 1206,-126.5 1206,-145.5"/>
<text text-anchor="middle" x="1190" y="-133.5" font-family="Helvetica,sans-Serif" font-size="10.00">set</text>
</a>
</g>
</g>
<!-- Node23&#45;&gt;Node26 -->
<g id="edge42_Node000023_Node000026" class="edge">
<title>Node23&#45;&gt;Node26</title>
<g id="a_edge42_Node000023_Node000026"><a xlink:title=" ">
<path fill="none" stroke="#63b8ff" d="M1311.32,-186.93C1285.32,-177.27 1250.38,-163.91 1220,-151 1218.44,-150.34 1216.83,-149.64 1215.22,-148.92"/>
<polygon fill="#63b8ff" stroke="#63b8ff" points="1216.65,-145.73 1206.1,-144.76 1213.75,-152.1 1216.65,-145.73"/>
</a>
</g>
</g>
<!-- Node23&#45;&gt;Node27 -->
<g id="edge45_Node000023_Node000027" class="edge">
<title>Node23&#45;&gt;Node27</title>
<g id="a_edge45_Node000023_Node000027"><a xlink:title=" ">
<path fill="none" stroke="#63b8ff" d="M1356.66,-186.8C1361.06,-177.41 1366.87,-165.02 1371.59,-154.95"/>
<polygon fill="#63b8ff" stroke="#63b8ff" points="1374.78,-156.38 1375.85,-145.84 1368.44,-153.41 1374.78,-156.38"/>
</a>
</g>
</g>
<!-- Node30&#45;&gt;Node8 -->
<g id="edge59_Node000030_Node000008" class="edge">
<title>Node30&#45;&gt;Node8</title>
<g id="a_edge59_Node000030_Node000008"><a xlink:title=" ">
<path fill="none" stroke="#63b8ff" d="M1844.34,-188.81C1814.53,-180.42 1776.42,-167.75 1745,-151 1725.7,-140.71 1724.55,-132.58 1706,-121 1650.03,-86.05 1634.58,-78.71 1573,-55 1536.76,-41.05 1494.34,-29.34 1462.58,-21.44"/>
<polygon fill="#63b8ff" stroke="#63b8ff" points="1463.22,-17.99 1452.67,-19.01 1461.55,-24.79 1463.22,-17.99"/>
</a>
</g>
</g>
<!-- Node30&#45;&gt;Node19 -->
<g id="edge53_Node000030_Node000019" class="edge">
<title>Node30&#45;&gt;Node19</title>
<g id="a_edge53_Node000030_Node000019"><a xlink:title=" ">
<path fill="none" stroke="#63b8ff" d="M1844.21,-188.36C1797.9,-176.59 1729.59,-159.25 1685.44,-148.03"/>
<polygon fill="#63b8ff" stroke="#63b8ff" points="1686.14,-144.6 1675.59,-145.53 1684.42,-151.38 1686.14,-144.6"/>
</a>
</g>
</g>
<!-- Node30&#45;&gt;Node24 -->
<g id="edge56_Node000030_Node000024" class="edge">
<title>Node30&#45;&gt;Node24</title>
<g id="a_edge56_Node000030_Node000024"><a xlink:title=" ">
<path fill="none" stroke="#63b8ff" d="M1844.41,-193.41C1768.77,-181.83 1624.53,-159.74 1540.73,-146.91"/>
<polygon fill="#63b8ff" stroke="#63b8ff" points="1541.24,-143.45 1530.82,-145.39 1540.18,-150.37 1541.24,-143.45"/>
</a>
</g>
</g>
<!-- Node31 -->
<g id="Node000031" class="node">
<title>Node31</title>
<g id="a_Node000031"><a xlink:title=" ">
<polygon fill="#e0e0e0" stroke="#999999" points="2023.5,-145.5 1908.5,-145.5 1908.5,-126.5 2023.5,-126.5 2023.5,-145.5"/>
<text text-anchor="middle" x="1966" y="-133.5" font-family="Helvetica,sans-Serif" font-size="10.00">deal.II/base/tensor.h</text>
</a>
</g>
</g>
<!-- Node30&#45;&gt;Node31 -->
<g id="edge54_Node000030_Node000031" class="edge">
<title>Node30&#45;&gt;Node31</title>
<g id="a_edge54_Node000030_Node000031"><a xlink:title=" ">
<path fill="none" stroke="#63b8ff" d="M1909.98,-186.8C1921.31,-176.72 1936.53,-163.19 1948.25,-152.78"/>
<polygon fill="#63b8ff" stroke="#63b8ff" points="1950.9,-155.1 1956.05,-145.84 1946.25,-149.87 1950.9,-155.1"/>
</a>
</g>
</g>
<!-- Node32 -->
<g id="Node000032" class="node">
<title>Node32</title>
<g id="a_Node000032"><a xlink:title=" ">
<polygon fill="#e0e0e0" stroke="#999999" points="2048.5,-79.5 1899.5,-79.5 1899.5,-60.5 2048.5,-60.5 2048.5,-79.5"/>
<text text-anchor="middle" x="1974" y="-67.5" font-family="Helvetica,sans-Serif" font-size="10.00">deal.II/base/vectorization.h</text>
</a>
</g>
</g>
<!-- Node30&#45;&gt;Node32 -->
<g id="edge55_Node000030_Node000032" class="edge">
<title>Node30&#45;&gt;Node32</title>
<g id="a_edge55_Node000030_Node000032"><a xlink:title=" ">
<path fill="none" stroke="#63b8ff" d="M1943.77,-197.15C1974.97,-191.86 2012.94,-179.53 2033,-151 2049.46,-127.59 2019.84,-100.94 1996.93,-85.07"/>
<polygon fill="#63b8ff" stroke="#63b8ff" points="1998.86,-82.15 1988.59,-79.55 1995,-87.99 1998.86,-82.15"/>
</a>
</g>
</g>
<!-- Node33 -->
<g id="Node000033" class="node">
<title>Node33</title>
<g id="a_Node000033"><a xlink:title=" ">
<polygon fill="#e0e0e0" stroke="#999999" points="2226,-145.5 2080,-145.5 2080,-126.5 2226,-126.5 2226,-145.5"/>
<text text-anchor="middle" x="2153" y="-133.5" font-family="Helvetica,sans-Serif" font-size="10.00">boost/range/algorithm.hpp</text>
</a>
</g>
</g>
<!-- Node30&#45;&gt;Node33 -->
<g id="edge57_Node000030_Node000033" class="edge">
<title>Node30&#45;&gt;Node33</title>
<g id="a_edge57_Node000030_Node000033"><a xlink:title=" ">
<path fill="none" stroke="#63b8ff" d="M1943.63,-188.74C1991.29,-176.96 2062.63,-159.33 2108.49,-148"/>
<polygon fill="#63b8ff" stroke="#63b8ff" points="2109.57,-151.34 2118.44,-145.54 2107.89,-144.54 2109.57,-151.34"/>
</a>
</g>
</g>
<!-- Node34 -->
<g id="Node000034" class="node">
<title>Node34</title>
<g id="a_Node000034"><a xlink:title=" ">
<polygon fill="#e0e0e0" stroke="#999999" points="2369.5,-151 2244.5,-151 2244.5,-121 2369.5,-121 2369.5,-151"/>
<text text-anchor="start" x="2252.5" y="-139" font-family="Helvetica,sans-Serif" font-size="10.00">boost/range/algorithm</text>
<text text-anchor="middle" x="2307" y="-128" font-family="Helvetica,sans-Serif" font-size="10.00">_ext.hpp</text>
</a>
</g>
</g>
<!-- Node30&#45;&gt;Node34 -->
<g id="edge58_Node000030_Node000034" class="edge">
<title>Node30&#45;&gt;Node34</title>
<g id="a_edge58_Node000030_Node000034"><a xlink:title=" ">
<path fill="none" stroke="#63b8ff" d="M1943.53,-194.47C2008.04,-185.81 2124.55,-169.6 2234.29,-151.07"/>
<polygon fill="#63b8ff" stroke="#63b8ff" points="2234.93,-154.51 2244.2,-149.39 2233.76,-147.61 2234.93,-154.51"/>
</a>
</g>
</g>
<!-- Node35 -->
<g id="Node000035" class="node">
<title>Node35</title>
<g id="a_Node000035"><a xlink:title=" ">
<polygon fill="#e0e0e0" stroke="#999999" points="2430,-145.5 2388,-145.5 2388,-126.5 2430,-126.5 2430,-145.5"/>
<text text-anchor="middle" x="2409" y="-133.5" font-family="Helvetica,sans-Serif" font-size="10.00">array</text>
</a>
</g>
</g>
<!-- Node30&#45;&gt;Node35 -->
<g id="edge60_Node000030_Node000035" class="edge">
<title>Node30&#45;&gt;Node35</title>
<g id="a_edge60_Node000030_Node000035"><a xlink:title=" ">
<path fill="none" stroke="#63b8ff" d="M1943.53,-201.29C2032.42,-200.62 2224.19,-193.79 2379,-151 2380.64,-150.55 2382.3,-150.01 2383.95,-149.42"/>
<polygon fill="#63b8ff" stroke="#63b8ff" points="2385.3,-152.65 2393.18,-145.58 2382.61,-146.19 2385.3,-152.65"/>
</a>
</g>
</g>
<!-- Node36 -->
<g id="Node000036" class="node">
<title>Node36</title>
<g id="a_Node000036"><a xlink:href="vectorized__operations_8h.html" target="_top" xlink:title=" ">
<polygon fill="white" stroke="#666666" points="1890.5,-151 1753.5,-151 1753.5,-121 1890.5,-121 1890.5,-151"/>
<text text-anchor="start" x="1761.5" y="-139" font-family="Helvetica,sans-Serif" font-size="10.00">prismspf/utilities</text>
<text text-anchor="middle" x="1822" y="-128" font-family="Helvetica,sans-Serif" font-size="10.00">/vectorized_operations.h</text>
</a>
</g>
</g>
<!-- Node30&#45;&gt;Node36 -->
<g id="edge61_Node000030_Node000036" class="edge">
<title>Node30&#45;&gt;Node36</title>
<g id="a_edge61_Node000030_Node000036"><a xlink:title=" ">
<path fill="none" stroke="#63b8ff" d="M1878.02,-186.8C1868.51,-178.34 1856.27,-167.46 1845.66,-158.03"/>
<polygon fill="#63b8ff" stroke="#63b8ff" points="1847.73,-155.19 1837.93,-151.16 1843.08,-160.42 1847.73,-155.19"/>
</a>
</g>
</g>
<!-- Node36&#45;&gt;Node8 -->
<g id="edge63_Node000036_Node000008" class="edge">
<title>Node36&#45;&gt;Node8</title>
<g id="a_edge63_Node000036_Node000008"><a xlink:title=" ">
<path fill="none" stroke="#63b8ff" d="M1812.03,-120.95C1798.04,-102.42 1770.69,-70.38 1739,-55 1693.81,-33.07 1556.32,-20.2 1475.7,-14.34"/>
<polygon fill="#63b8ff" stroke="#63b8ff" points="1475.9,-10.84 1465.68,-13.62 1475.4,-17.83 1475.9,-10.84"/>
</a>
</g>
</g>
<!-- Node36&#45;&gt;Node32 -->
<g id="edge62_Node000036_Node000032" class="edge">
<title>Node36&#45;&gt;Node32</title>
<g id="a_edge62_Node000036_Node000032"><a xlink:title=" ">
<path fill="none" stroke="#63b8ff" d="M1855.36,-120.95C1881.9,-109.78 1918.69,-94.29 1944.24,-83.53"/>
<polygon fill="#63b8ff" stroke="#63b8ff" points="1945.91,-86.62 1953.77,-79.52 1943.2,-80.17 1945.91,-86.62"/>
</a>
</g>
</g>
</g>
</svg>
