<?xml version="1.0" encoding="UTF-8" standalone="no"?>
<!DOCTYPE svg PUBLIC "-//W3C//DTD SVG 1.1//EN"
 "http://www.w3.org/Graphics/SVG/1.1/DTD/svg11.dtd">
<!-- Generated by graphviz version 2.43.0 (0)
 -->
<!-- Title: /home/runner/work/phaseField/phaseField/src/core/timer.cc Pages: 1 -->
<svg width="1112pt" height="170pt"
 viewBox="0.00 0.00 1111.50 170.00" xmlns="http://www.w3.org/2000/svg" xmlns:xlink="http://www.w3.org/1999/xlink">
<g id="graph0" class="graph" transform="scale(1 1) rotate(0) translate(4 166)">
<title>/home/runner/work/phaseField/phaseField/src/core/timer.cc</title>
<!-- Node1 -->
<g id="Node000001" class="node">
<title>Node1</title>
<g id="a_Node000001"><a xlink:title=" ">
<polygon fill="#999999" stroke="#666666" points="772,-162 608,-162 608,-132 772,-132 772,-162"/>
<text text-anchor="start" x="616" y="-150" font-family="Helvetica,sans-Serif" font-size="10.00">/home/runner/work/phaseField</text>
<text text-anchor="middle" x="690" y="-139" font-family="Helvetica,sans-Serif" font-size="10.00">/phaseField/src/core/timer.cc</text>
</a>
</g>
</g>
<!-- Node2 -->
<g id="Node000002" class="node">
<title>Node2</title>
<g id="a_Node000002"><a xlink:title=" ">
<polygon fill="#e0e0e0" stroke="#999999" points="114,-90.5 0,-90.5 0,-71.5 114,-71.5 114,-90.5"/>
<text text-anchor="middle" x="57" y="-78.5" font-family="Helvetica,sans-Serif" font-size="10.00">deal.II/base/config.h</text>
</a>
</g>
</g>
<!-- Node1&#45;&gt;Node2 -->
<g id="edge1_Node000001_Node000002" class="edge">
<title>Node1&#45;&gt;Node2</title>
<g id="a_edge1_Node000001_Node000002"><a xlink:title=" ">
<path fill="none" stroke="#63b8ff" d="M607.94,-141.89C497.35,-135.64 294.52,-121.66 123,-96 116.69,-95.06 110.08,-93.88 103.58,-92.61"/>
<polygon fill="#63b8ff" stroke="#63b8ff" points="104.01,-89.13 93.51,-90.57 102.62,-95.99 104.01,-89.13"/>
</a>
</g>
</g>
<!-- Node3 -->
<g id="Node000003" class="node">
<title>Node3</title>
<g id="a_Node000003"><a xlink:title=" ">
<polygon fill="#e0e0e0" stroke="#999999" points="270,-90.5 132,-90.5 132,-71.5 270,-71.5 270,-90.5"/>
<text text-anchor="middle" x="201" y="-78.5" font-family="Helvetica,sans-Serif" font-size="10.00">deal.II/base/exceptions.h</text>
</a>
</g>
</g>
<!-- Node1&#45;&gt;Node3 -->
<g id="edge2_Node000001_Node000003" class="edge">
<title>Node1&#45;&gt;Node3</title>
<g id="a_edge2_Node000001_Node000003"><a xlink:title=" ">
<path fill="none" stroke="#63b8ff" d="M607.82,-136.97C525.7,-127.69 395.91,-112.32 284,-96 275.98,-94.83 267.54,-93.51 259.24,-92.16"/>
<polygon fill="#63b8ff" stroke="#63b8ff" points="259.66,-88.68 249.22,-90.51 258.52,-95.59 259.66,-88.68"/>
</a>
</g>
</g>
<!-- Node4 -->
<g id="Node000004" class="node">
<title>Node4</title>
<g id="a_Node000004"><a xlink:title=" ">
<polygon fill="#e0e0e0" stroke="#999999" points="380,-24.5 270,-24.5 270,-5.5 380,-5.5 380,-24.5"/>
<text text-anchor="middle" x="325" y="-12.5" font-family="Helvetica,sans-Serif" font-size="10.00">deal.II/base/timer.h</text>
</a>
</g>
</g>
<!-- Node1&#45;&gt;Node4 -->
<g id="edge3_Node000001_Node000004" class="edge">
<title>Node1&#45;&gt;Node4</title>
<g id="a_edge3_Node000001_Node000004"><a xlink:title=" ">
<path fill="none" stroke="#63b8ff" d="M607.7,-140.64C503.69,-133.02 335.85,-117.54 317,-96 302.25,-79.14 309.14,-51.97 316.33,-34.05"/>
<polygon fill="#63b8ff" stroke="#63b8ff" points="319.62,-35.28 320.44,-24.72 313.21,-32.46 319.62,-35.28"/>
</a>
</g>
</g>
<!-- Node5 -->
<g id="Node000005" class="node">
<title>Node5</title>
<g id="a_Node000005"><a xlink:href="conditional__ostreams_8h.html" target="_top" xlink:title=" ">
<polygon fill="white" stroke="#666666" points="644,-96 504,-96 504,-66 644,-66 644,-96"/>
<text text-anchor="start" x="512" y="-84" font-family="Helvetica,sans-Serif" font-size="10.00">prismspf/core/conditional</text>
<text text-anchor="middle" x="574" y="-73" font-family="Helvetica,sans-Serif" font-size="10.00">_ostreams.h</text>
</a>
</g>
</g>
<!-- Node1&#45;&gt;Node5 -->
<g id="edge4_Node000001_Node000005" class="edge">
<title>Node1&#45;&gt;Node5</title>
<g id="a_edge4_Node000001_Node000005"><a xlink:title=" ">
<path fill="none" stroke="#63b8ff" d="M664.54,-131.95C648.07,-122.87 626.43,-110.93 608.43,-101"/>
<polygon fill="#63b8ff" stroke="#63b8ff" points="609.84,-97.78 599.4,-96.01 606.46,-103.91 609.84,-97.78"/>
</a>
</g>
</g>
<!-- Node7 -->
<g id="Node000007" class="node">
<title>Node7</title>
<g id="a_Node000007"><a xlink:title=" ">
<polygon fill="#e0e0e0" stroke="#999999" points="508.5,-24.5 407.5,-24.5 407.5,-5.5 508.5,-5.5 508.5,-24.5"/>
<text text-anchor="middle" x="458" y="-12.5" font-family="Helvetica,sans-Serif" font-size="10.00">prismspf/config.h</text>
</a>
</g>
</g>
<!-- Node1&#45;&gt;Node7 -->
<g id="edge10_Node000001_Node000007" class="edge">
<title>Node1&#45;&gt;Node7</title>
<g id="a_edge10_Node000001_Node000007"><a xlink:title=" ">
<path fill="none" stroke="#63b8ff" d="M607.76,-140.93C569.86,-134.86 526.42,-122.16 495,-96 476.12,-80.28 466.36,-52.8 461.72,-34.5"/>
<polygon fill="#63b8ff" stroke="#63b8ff" points="465.12,-33.69 459.5,-24.72 458.3,-35.24 465.12,-33.69"/>
</a>
</g>
</g>
<!-- Node8 -->
<g id="Node000008" class="node">
<title>Node8</title>
<g id="a_Node000008"><a xlink:href="timer_8h.html" target="_top" xlink:title=" ">
<polygon fill="white" stroke="#666666" points="447.5,-90.5 326.5,-90.5 326.5,-71.5 447.5,-71.5 447.5,-90.5"/>
<text text-anchor="middle" x="387" y="-78.5" font-family="Helvetica,sans-Serif" font-size="10.00">prismspf/core/timer.h</text>
</a>
</g>
</g>
<!-- Node1&#45;&gt;Node8 -->
<g id="edge7_Node000001_Node000008" class="edge">
<title>Node1&#45;&gt;Node8</title>
<g id="a_edge7_Node000001_Node000008"><a xlink:title=" ">
<path fill="none" stroke="#63b8ff" d="M623.51,-131.95C567.32,-120.09 488.08,-103.35 437.12,-92.59"/>
<polygon fill="#63b8ff" stroke="#63b8ff" points="437.83,-89.16 427.32,-90.52 436.38,-96.01 437.83,-89.16"/>
</a>
</g>
</g>
<!-- Node9 -->
<g id="Node000009" class="node">
<title>Node9</title>
<g id="a_Node000009"><a xlink:title=" ">
<polygon fill="#e0e0e0" stroke="#999999" points="718,-90.5 662,-90.5 662,-71.5 718,-71.5 718,-90.5"/>
<text text-anchor="middle" x="690" y="-78.5" font-family="Helvetica,sans-Serif" font-size="10.00">iomanip</text>
</a>
</g>
</g>
<!-- Node1&#45;&gt;Node9 -->
<g id="edge11_Node000001_Node000009" class="edge">
<title>Node1&#45;&gt;Node9</title>
<g id="a_edge11_Node000001_Node000009"><a xlink:title=" ">
<path fill="none" stroke="#63b8ff" d="M690,-131.8C690,-122.7 690,-110.79 690,-100.9"/>
<polygon fill="#63b8ff" stroke="#63b8ff" points="693.5,-100.84 690,-90.84 686.5,-100.84 693.5,-100.84"/>
</a>
</g>
</g>
<!-- Node10 -->
<g id="Node000010" class="node">
<title>Node10</title>
<g id="a_Node000010"><a xlink:title=" ">
<polygon fill="#e0e0e0" stroke="#999999" points="796,-90.5 736,-90.5 736,-71.5 796,-71.5 796,-90.5"/>
<text text-anchor="middle" x="766" y="-78.5" font-family="Helvetica,sans-Serif" font-size="10.00">iostream</text>
</a>
</g>
</g>
<!-- Node1&#45;&gt;Node10 -->
<g id="edge12_Node000001_Node000010" class="edge">
<title>Node1&#45;&gt;Node10</title>
<g id="a_edge12_Node000001_Node000010"><a xlink:title=" ">
<path fill="none" stroke="#63b8ff" d="M706.87,-131.8C718.95,-121.62 735.21,-107.93 747.62,-97.48"/>
<polygon fill="#63b8ff" stroke="#63b8ff" points="750.1,-99.96 755.5,-90.84 745.59,-94.61 750.1,-99.96"/>
</a>
</g>
</g>
<!-- Node11 -->
<g id="Node000011" class="node">
<title>Node11</title>
<g id="a_Node000011"><a xlink:title=" ">
<polygon fill="#e0e0e0" stroke="#999999" points="852,-90.5 814,-90.5 814,-71.5 852,-71.5 852,-90.5"/>
<text text-anchor="middle" x="833" y="-78.5" font-family="Helvetica,sans-Serif" font-size="10.00">map</text>
</a>
</g>
</g>
<!-- Node1&#45;&gt;Node11 -->
<g id="edge13_Node000001_Node000011" class="edge">
<title>Node1&#45;&gt;Node11</title>
<g id="a_edge13_Node000001_Node000011"><a xlink:title=" ">
<path fill="none" stroke="#63b8ff" d="M723.68,-131.92C746.71,-122.15 777.88,-108.67 805,-96 805.68,-95.68 806.37,-95.36 807.07,-95.02"/>
<polygon fill="#63b8ff" stroke="#63b8ff" points="808.73,-98.11 816.19,-90.59 805.67,-91.82 808.73,-98.11"/>
</a>
</g>
</g>
<!-- Node12 -->
<g id="Node000012" class="node">
<title>Node12</title>
<g id="a_Node000012"><a xlink:title=" ">
<polygon fill="#e0e0e0" stroke="#999999" points="914,-90.5 870,-90.5 870,-71.5 914,-71.5 914,-90.5"/>
<text text-anchor="middle" x="892" y="-78.5" font-family="Helvetica,sans-Serif" font-size="10.00">mpi.h</text>
</a>
</g>
</g>
<!-- Node1&#45;&gt;Node12 -->
<g id="edge14_Node000001_Node000012" class="edge">
<title>Node1&#45;&gt;Node12</title>
<g id="a_edge14_Node000001_Node000012"><a xlink:title=" ">
<path fill="none" stroke="#63b8ff" d="M745.31,-131.93C779.11,-122.82 823,-110.06 861,-96 862.22,-95.55 863.45,-95.08 864.69,-94.58"/>
<polygon fill="#63b8ff" stroke="#63b8ff" points="866.3,-97.7 874.15,-90.58 863.57,-91.25 866.3,-97.7"/>
</a>
</g>
</g>
<!-- Node13 -->
<g id="Node000013" class="node">
<title>Node13</title>
<g id="a_Node000013"><a xlink:title=" ">
<polygon fill="#e0e0e0" stroke="#999999" points="975.5,-90.5 932.5,-90.5 932.5,-71.5 975.5,-71.5 975.5,-90.5"/>
<text text-anchor="middle" x="954" y="-78.5" font-family="Helvetica,sans-Serif" font-size="10.00">stack</text>
</a>
</g>
</g>
<!-- Node1&#45;&gt;Node13 -->
<g id="edge15_Node000001_Node000013" class="edge">
<title>Node1&#45;&gt;Node13</title>
<g id="a_edge15_Node000001_Node000013"><a xlink:title=" ">
<path fill="none" stroke="#63b8ff" d="M772,-132.82C817.17,-124.46 873.87,-112.16 923,-96 924.44,-95.53 925.9,-95.01 927.36,-94.46"/>
<polygon fill="#63b8ff" stroke="#63b8ff" points="928.98,-97.58 936.88,-90.51 926.3,-91.11 928.98,-97.58"/>
</a>
</g>
</g>
<!-- Node14 -->
<g id="Node000014" class="node">
<title>Node14</title>
<g id="a_Node000014"><a xlink:title=" ">
<polygon fill="#e0e0e0" stroke="#999999" points="1038,-90.5 994,-90.5 994,-71.5 1038,-71.5 1038,-90.5"/>
<text text-anchor="middle" x="1016" y="-78.5" font-family="Helvetica,sans-Serif" font-size="10.00">string</text>
</a>
</g>
</g>
<!-- Node1&#45;&gt;Node14 -->
<g id="edge16_Node000001_Node000014" class="edge">
<title>Node1&#45;&gt;Node14</title>
<g id="a_edge16_Node000001_Node000014"><a xlink:title=" ">
<path fill="none" stroke="#63b8ff" d="M772.06,-137.81C831.98,-130.46 914.69,-117.44 985,-96 986.63,-95.5 988.29,-94.94 989.95,-94.33"/>
<polygon fill="#63b8ff" stroke="#63b8ff" points="991.33,-97.55 999.25,-90.51 988.67,-91.07 991.33,-97.55"/>
</a>
</g>
</g>
<!-- Node15 -->
<g id="Node000015" class="node">
<title>Node15</title>
<g id="a_Node000015"><a xlink:title=" ">
<polygon fill="#e0e0e0" stroke="#999999" points="1103.5,-90.5 1056.5,-90.5 1056.5,-71.5 1103.5,-71.5 1103.5,-90.5"/>
<text text-anchor="middle" x="1080" y="-78.5" font-family="Helvetica,sans-Serif" font-size="10.00">vector</text>
</a>
</g>
</g>
<!-- Node1&#45;&gt;Node15 -->
<g id="edge17_Node000001_Node000015" class="edge">
<title>Node1&#45;&gt;Node15</title>
<g id="a_edge17_Node000001_Node000015"><a xlink:title=" ">
<path fill="none" stroke="#63b8ff" d="M772.06,-140.64C845.23,-134.43 954.72,-121.56 1047,-96 1048.89,-95.48 1050.81,-94.87 1052.73,-94.21"/>
<polygon fill="#63b8ff" stroke="#63b8ff" points="1054.08,-97.44 1062.15,-90.58 1051.56,-90.91 1054.08,-97.44"/>
</a>
</g>
</g>
<!-- Node6 -->
<g id="Node000006" class="node">
<title>Node6</title>
<g id="a_Node000006"><a xlink:title=" ">
<polygon fill="#e0e0e0" stroke="#999999" points="657,-30 527,-30 527,0 657,0 657,-30"/>
<text text-anchor="start" x="535" y="-18" font-family="Helvetica,sans-Serif" font-size="10.00">deal.II/base/conditional</text>
<text text-anchor="middle" x="592" y="-7" font-family="Helvetica,sans-Serif" font-size="10.00">_ostream.h</text>
</a>
</g>
</g>
<!-- Node5&#45;&gt;Node6 -->
<g id="edge5_Node000005_Node000006" class="edge">
<title>Node5&#45;&gt;Node6</title>
<g id="a_edge5_Node000005_Node000006"><a xlink:title=" ">
<path fill="none" stroke="#63b8ff" d="M577.99,-65.8C580.14,-58.17 582.84,-48.57 585.29,-39.84"/>
<polygon fill="#63b8ff" stroke="#63b8ff" points="588.68,-40.74 588.02,-30.16 581.94,-38.84 588.68,-40.74"/>
</a>
</g>
</g>
<!-- Node5&#45;&gt;Node7 -->
<g id="edge6_Node000005_Node000007" class="edge">
<title>Node5&#45;&gt;Node7</title>
<g id="a_edge6_Node000005_Node000007"><a xlink:title=" ">
<path fill="none" stroke="#63b8ff" d="M548.54,-65.95C528.83,-55.08 501.69,-40.11 482.28,-29.4"/>
<polygon fill="#63b8ff" stroke="#63b8ff" points="483.88,-26.28 473.44,-24.52 480.5,-32.41 483.88,-26.28"/>
</a>
</g>
</g>
<!-- Node8&#45;&gt;Node4 -->
<g id="edge8_Node000008_Node000004" class="edge">
<title>Node8&#45;&gt;Node4</title>
<g id="a_edge8_Node000008_Node000004"><a xlink:title=" ">
<path fill="none" stroke="#63b8ff" d="M378.64,-71.37C368.99,-61.4 352.89,-44.79 340.85,-32.36"/>
<polygon fill="#63b8ff" stroke="#63b8ff" points="343.1,-29.65 333.63,-24.91 338.07,-34.52 343.1,-29.65"/>
</a>
</g>
</g>
<!-- Node8&#45;&gt;Node7 -->
<g id="edge9_Node000008_Node000007" class="edge">
<title>Node8&#45;&gt;Node7</title>
<g id="a_edge9_Node000008_Node000007"><a xlink:title=" ">
<path fill="none" stroke="#63b8ff" d="M396.58,-71.37C407.84,-61.21 426.76,-44.16 440.63,-31.65"/>
<polygon fill="#63b8ff" stroke="#63b8ff" points="443.04,-34.2 448.12,-24.91 438.35,-29 443.04,-34.2"/>
</a>
</g>
</g>
</g>
</svg>
