<?xml version="1.0" encoding="UTF-8" standalone="no"?>
<!DOCTYPE svg PUBLIC "-//W3C//DTD SVG 1.1//EN"
 "http://www.w3.org/Graphics/SVG/1.1/DTD/svg11.dtd">
<!-- Generated by graphviz version 2.43.0 (0)
 -->
<!-- Title: /home/runner/work/phaseField/phaseField/src/core/variable_container.cc Pages: 1 -->
<svg width="2875pt" height="302pt"
 viewBox="0.00 0.00 2874.92 302.00" xmlns="http://www.w3.org/2000/svg" xmlns:xlink="http://www.w3.org/1999/xlink">
<g id="graph0" class="graph" transform="scale(1 1) rotate(0) translate(4 298)">
<title>/home/runner/work/phaseField/phaseField/src/core/variable_container.cc</title>
<!-- Node1 -->
<g id="Node000001" class="node">
<title>Node1</title>
<g id="a_Node000001"><a xlink:title=" ">
<polygon fill="#999999" stroke="#666666" points="1982.92,-294 1818.92,-294 1818.92,-253 1982.92,-253 1982.92,-294"/>
<text text-anchor="start" x="1826.92" y="-282" font-family="Helvetica,sans-Serif" font-size="10.00">/home/runner/work/phaseField</text>
<text text-anchor="start" x="1826.92" y="-271" font-family="Helvetica,sans-Serif" font-size="10.00">/phaseField/src/core/variable</text>
<text text-anchor="middle" x="1900.92" y="-260" font-family="Helvetica,sans-Serif" font-size="10.00">_container.cc</text>
</a>
</g>
</g>
<!-- Node2 -->
<g id="Node000002" class="node">
<title>Node2</title>
<g id="a_Node000002"><a xlink:title=" ">
<polygon fill="#e0e0e0" stroke="#999999" points="1636.92,-145.5 1498.92,-145.5 1498.92,-126.5 1636.92,-126.5 1636.92,-145.5"/>
<text text-anchor="middle" x="1567.92" y="-133.5" font-family="Helvetica,sans-Serif" font-size="10.00">deal.II/base/exceptions.h</text>
</a>
</g>
</g>
<!-- Node1&#45;&gt;Node2 -->
<g id="edge1_Node000001_Node000002" class="edge">
<title>Node1&#45;&gt;Node2</title>
<g id="a_edge1_Node000001_Node000002"><a xlink:title=" ">
<path fill="none" stroke="#63b8ff" d="M1818.91,-264.7C1745.08,-256.29 1643.36,-240.82 1610.92,-217 1590.31,-201.87 1578.56,-173.8 1572.71,-155.26"/>
<polygon fill="#63b8ff" stroke="#63b8ff" points="1576.06,-154.26 1569.93,-145.62 1569.34,-156.2 1576.06,-154.26"/>
</a>
</g>
</g>
<!-- Node3 -->
<g id="Node000003" class="node">
<title>Node3</title>
<g id="a_Node000003"><a xlink:title=" ">
<polygon fill="#e0e0e0" stroke="#999999" points="128.92,-145.5 18.92,-145.5 18.92,-126.5 128.92,-126.5 128.92,-145.5"/>
<text text-anchor="middle" x="73.92" y="-133.5" font-family="Helvetica,sans-Serif" font-size="10.00">deal.II/base/point.h</text>
</a>
</g>
</g>
<!-- Node1&#45;&gt;Node3 -->
<g id="edge2_Node000001_Node000003" class="edge">
<title>Node1&#45;&gt;Node3</title>
<g id="a_edge2_Node000001_Node000003"><a xlink:title=" ">
<path fill="none" stroke="#63b8ff" d="M1818.7,-272.24C1540.51,-270.93 635.92,-263.14 348.92,-217 258.72,-202.5 156.32,-167.6 105.72,-149.05"/>
<polygon fill="#63b8ff" stroke="#63b8ff" points="106.9,-145.76 96.3,-145.57 104.47,-152.32 106.9,-145.76"/>
</a>
</g>
</g>
<!-- Node4 -->
<g id="Node000004" class="node">
<title>Node4</title>
<g id="a_Node000004"><a xlink:title=" ">
<polygon fill="#e0e0e0" stroke="#999999" points="2386.42,-211.5 2271.42,-211.5 2271.42,-192.5 2386.42,-192.5 2386.42,-211.5"/>
<text text-anchor="middle" x="2328.92" y="-199.5" font-family="Helvetica,sans-Serif" font-size="10.00">deal.II/base/tensor.h</text>
</a>
</g>
</g>
<!-- Node1&#45;&gt;Node4 -->
<g id="edge3_Node000001_Node000004" class="edge">
<title>Node1&#45;&gt;Node4</title>
<g id="a_edge3_Node000001_Node000004"><a xlink:title=" ">
<path fill="none" stroke="#63b8ff" d="M1983.08,-260.58C2055.32,-249.89 2163.27,-233.4 2256.92,-217 2263.18,-215.9 2269.73,-214.7 2276.22,-213.48"/>
<polygon fill="#63b8ff" stroke="#63b8ff" points="2277.16,-216.87 2286.33,-211.56 2275.85,-209.99 2277.16,-216.87"/>
</a>
</g>
</g>
<!-- Node5 -->
<g id="Node000005" class="node">
<title>Node5</title>
<g id="a_Node000005"><a xlink:title=" ">
<polygon fill="#e0e0e0" stroke="#999999" points="1480.42,-145.5 1331.42,-145.5 1331.42,-126.5 1480.42,-126.5 1480.42,-145.5"/>
<text text-anchor="middle" x="1405.92" y="-133.5" font-family="Helvetica,sans-Serif" font-size="10.00">deal.II/base/vectorization.h</text>
</a>
</g>
</g>
<!-- Node1&#45;&gt;Node5 -->
<g id="edge4_Node000001_Node000005" class="edge">
<title>Node1&#45;&gt;Node5</title>
<g id="a_edge4_Node000001_Node000005"><a xlink:title=" ">
<path fill="none" stroke="#63b8ff" d="M1818.89,-263.94C1753.87,-255.79 1661.26,-241.12 1582.92,-217 1526.31,-199.57 1464.05,-168.39 1430.55,-150.54"/>
<polygon fill="#63b8ff" stroke="#63b8ff" points="1431.97,-147.33 1421.5,-145.67 1428.65,-153.49 1431.97,-147.33"/>
</a>
</g>
</g>
<!-- Node6 -->
<g id="Node000006" class="node">
<title>Node6</title>
<g id="a_Node000006"><a xlink:title=" ">
<polygon fill="#e0e0e0" stroke="#999999" points="864.42,-151 755.42,-151 755.42,-121 864.42,-121 864.42,-151"/>
<text text-anchor="start" x="763.42" y="-139" font-family="Helvetica,sans-Serif" font-size="10.00">deal.II/matrix_free</text>
<text text-anchor="middle" x="809.92" y="-128" font-family="Helvetica,sans-Serif" font-size="10.00">/evaluation_flags.h</text>
</a>
</g>
</g>
<!-- Node1&#45;&gt;Node6 -->
<g id="edge5_Node000001_Node000006" class="edge">
<title>Node1&#45;&gt;Node6</title>
<g id="a_edge5_Node000001_Node000006"><a xlink:title=" ">
<path fill="none" stroke="#63b8ff" d="M1818.86,-269.89C1634.68,-263.59 1193.13,-245.91 1046.92,-217 976.72,-203.12 898.7,-173.96 852.01,-154.95"/>
<polygon fill="#63b8ff" stroke="#63b8ff" points="853.12,-151.62 842.54,-151.05 850.46,-158.09 853.12,-151.62"/>
</a>
</g>
</g>
<!-- Node7 -->
<g id="Node000007" class="node">
<title>Node7</title>
<g id="a_Node000007"><a xlink:title=" ">
<polygon fill="#e0e0e0" stroke="#999999" points="737.42,-151 630.42,-151 630.42,-121 737.42,-121 737.42,-151"/>
<text text-anchor="start" x="638.42" y="-139" font-family="Helvetica,sans-Serif" font-size="10.00">deal.II/matrix_free</text>
<text text-anchor="middle" x="683.92" y="-128" font-family="Helvetica,sans-Serif" font-size="10.00">/matrix_free.h</text>
</a>
</g>
</g>
<!-- Node1&#45;&gt;Node7 -->
<g id="edge6_Node000001_Node000007" class="edge">
<title>Node1&#45;&gt;Node7</title>
<g id="a_edge6_Node000001_Node000007"><a xlink:title=" ">
<path fill="none" stroke="#63b8ff" d="M1818.66,-270.37C1617.69,-264.76 1105.93,-247.81 937.92,-217 862.68,-203.2 778.58,-173.82 728.52,-154.76"/>
<polygon fill="#63b8ff" stroke="#63b8ff" points="729.56,-151.41 718.97,-151.1 727.05,-157.95 729.56,-151.41"/>
</a>
</g>
</g>
<!-- Node8 -->
<g id="Node000008" class="node">
<title>Node8</title>
<g id="a_Node000008"><a xlink:href="exceptions_8h.html" target="_top" xlink:title=" ">
<polygon fill="white" stroke="#666666" points="1769.42,-211.5 1620.42,-211.5 1620.42,-192.5 1769.42,-192.5 1769.42,-211.5"/>
<text text-anchor="middle" x="1694.92" y="-199.5" font-family="Helvetica,sans-Serif" font-size="10.00">prismspf/core/exceptions.h</text>
</a>
</g>
</g>
<!-- Node1&#45;&gt;Node8 -->
<g id="edge7_Node000001_Node000008" class="edge">
<title>Node1&#45;&gt;Node8</title>
<g id="a_edge7_Node000001_Node000008"><a xlink:title=" ">
<path fill="none" stroke="#63b8ff" d="M1842.99,-252.96C1806.48,-240.64 1760.56,-225.15 1729.62,-214.71"/>
<polygon fill="#63b8ff" stroke="#63b8ff" points="1730.72,-211.38 1720.13,-211.5 1728.48,-218.02 1730.72,-211.38"/>
</a>
</g>
</g>
<!-- Node9 -->
<g id="Node000009" class="node">
<title>Node9</title>
<g id="a_Node000009"><a xlink:href="types_8h.html" target="_top" xlink:title=" ">
<polygon fill="white" stroke="#666666" points="1814.92,-145.5 1692.92,-145.5 1692.92,-126.5 1814.92,-126.5 1814.92,-145.5"/>
<text text-anchor="middle" x="1753.92" y="-133.5" font-family="Helvetica,sans-Serif" font-size="10.00">prismspf/core/types.h</text>
</a>
</g>
</g>
<!-- Node1&#45;&gt;Node9 -->
<g id="edge18_Node000001_Node000009" class="edge">
<title>Node1&#45;&gt;Node9</title>
<g id="a_edge18_Node000001_Node000009"><a xlink:title=" ">
<path fill="none" stroke="#63b8ff" d="M1873.42,-252.93C1859.64,-242.72 1842.94,-229.73 1828.92,-217 1806.36,-196.51 1782.68,-170.36 1768.11,-153.64"/>
<polygon fill="#63b8ff" stroke="#63b8ff" points="1770.56,-151.12 1761.38,-145.84 1765.26,-155.7 1770.56,-151.12"/>
</a>
</g>
</g>
<!-- Node10 -->
<g id="Node000010" class="node">
<title>Node10</title>
<g id="a_Node000010"><a xlink:href="type__enums_8h.html" target="_top" xlink:title=" ">
<polygon fill="white" stroke="#666666" points="1914.92,-85 1806.92,-85 1806.92,-55 1914.92,-55 1914.92,-85"/>
<text text-anchor="start" x="1814.92" y="-73" font-family="Helvetica,sans-Serif" font-size="10.00">prismspf/core/type</text>
<text text-anchor="middle" x="1860.92" y="-62" font-family="Helvetica,sans-Serif" font-size="10.00">_enums.h</text>
</a>
</g>
</g>
<!-- Node1&#45;&gt;Node10 -->
<g id="edge17_Node000001_Node000010" class="edge">
<title>Node1&#45;&gt;Node10</title>
<g id="a_edge17_Node000001_Node000010"><a xlink:title=" ">
<path fill="none" stroke="#63b8ff" d="M1982.98,-255.14C2074.76,-232.08 2203.71,-186.48 2147.92,-121 2116.95,-84.65 1988.09,-93.36 1925.06,-84.86"/>
<polygon fill="#63b8ff" stroke="#63b8ff" points="1925.6,-81.4 1915.18,-83.27 1924.49,-88.31 1925.6,-81.4"/>
</a>
</g>
</g>
<!-- Node11 -->
<g id="Node000011" class="node">
<title>Node11</title>
<g id="a_Node000011"><a xlink:title=" ">
<polygon fill="#e0e0e0" stroke="#999999" points="1715.42,-19 1614.42,-19 1614.42,0 1715.42,0 1715.42,-19"/>
<text text-anchor="middle" x="1664.92" y="-7" font-family="Helvetica,sans-Serif" font-size="10.00">prismspf/config.h</text>
</a>
</g>
</g>
<!-- Node1&#45;&gt;Node11 -->
<g id="edge49_Node000001_Node000011" class="edge">
<title>Node1&#45;&gt;Node11</title>
<g id="a_edge49_Node000001_Node000011"><a xlink:title=" ">
<path fill="none" stroke="#63b8ff" d="M1818.68,-272.68C1525.9,-272.88 535.15,-269.56 222.92,-217 125.19,-200.55 68.72,-230.78 9.92,-151 -28.15,-99.34 32.77,-92.9 418.92,-55 872.73,-10.45 1423.4,-9.09 1604.22,-10"/>
<polygon fill="#63b8ff" stroke="#63b8ff" points="1604.31,-13.5 1614.33,-10.06 1604.35,-6.5 1604.31,-13.5"/>
</a>
</g>
</g>
<!-- Node13 -->
<g id="Node000013" class="node">
<title>Node13</title>
<g id="a_Node000013"><a xlink:title=" ">
<polygon fill="#e0e0e0" stroke="#999999" points="2028.92,-19 1984.92,-19 1984.92,0 2028.92,0 2028.92,-19"/>
<text text-anchor="middle" x="2006.92" y="-7" font-family="Helvetica,sans-Serif" font-size="10.00">string</text>
</a>
</g>
</g>
<!-- Node1&#45;&gt;Node13 -->
<g id="edge55_Node000001_Node000013" class="edge">
<title>Node1&#45;&gt;Node13</title>
<g id="a_edge55_Node000001_Node000013"><a xlink:title=" ">
<path fill="none" stroke="#63b8ff" d="M1983.01,-263.61C2048.62,-254.96 2133.78,-239.77 2159.92,-217 2183.46,-196.5 2178.51,-181.74 2183.92,-151 2186.24,-137.87 2190.39,-132.66 2183.92,-121 2153,-65.25 2080.94,-33.93 2038.92,-19.8"/>
<polygon fill="#63b8ff" stroke="#63b8ff" points="2039.77,-16.39 2029.18,-16.65 2037.62,-23.05 2039.77,-16.39"/>
</a>
</g>
</g>
<!-- Node14 -->
<g id="Node000014" class="node">
<title>Node14</title>
<g id="a_Node000014"><a xlink:title=" ">
<polygon fill="#e0e0e0" stroke="#999999" points="1978.42,-79.5 1933.42,-79.5 1933.42,-60.5 1978.42,-60.5 1978.42,-79.5"/>
<text text-anchor="middle" x="1955.92" y="-67.5" font-family="Helvetica,sans-Serif" font-size="10.00">utility</text>
</a>
</g>
</g>
<!-- Node1&#45;&gt;Node14 -->
<g id="edge57_Node000001_Node000014" class="edge">
<title>Node1&#45;&gt;Node14</title>
<g id="a_edge57_Node000001_Node000014"><a xlink:title=" ">
<path fill="none" stroke="#63b8ff" d="M1982.93,-269.72C2031.26,-264.28 2091.12,-250.53 2133.92,-217 2159.9,-196.65 2160.15,-183.07 2167.92,-151 2171.06,-138.04 2176.2,-131.45 2167.92,-121 2145.92,-93.2 2042.42,-79.3 1988.61,-73.85"/>
<polygon fill="#63b8ff" stroke="#63b8ff" points="1988.84,-70.36 1978.55,-72.87 1988.16,-77.33 1988.84,-70.36"/>
</a>
</g>
</g>
<!-- Node15 -->
<g id="Node000015" class="node">
<title>Node15</title>
<g id="a_Node000015"><a xlink:href="variable__attributes_8h.html" target="_top" xlink:title=" ">
<polygon fill="white" stroke="#666666" points="1963.92,-217 1837.92,-217 1837.92,-187 1963.92,-187 1963.92,-217"/>
<text text-anchor="start" x="1845.92" y="-205" font-family="Helvetica,sans-Serif" font-size="10.00">prismspf/core/variable</text>
<text text-anchor="middle" x="1900.92" y="-194" font-family="Helvetica,sans-Serif" font-size="10.00">_attributes.h</text>
</a>
</g>
</g>
<!-- Node1&#45;&gt;Node15 -->
<g id="edge19_Node000001_Node000015" class="edge">
<title>Node1&#45;&gt;Node15</title>
<g id="a_edge19_Node000001_Node000015"><a xlink:title=" ">
<path fill="none" stroke="#63b8ff" d="M1900.92,-252.77C1900.92,-244.85 1900.92,-235.63 1900.92,-227.3"/>
<polygon fill="#63b8ff" stroke="#63b8ff" points="1904.42,-227.04 1900.92,-217.04 1897.42,-227.04 1904.42,-227.04"/>
</a>
</g>
</g>
<!-- Node16 -->
<g id="Node000016" class="node">
<title>Node16</title>
<g id="a_Node000016"><a xlink:title=" ">
<polygon fill="#e0e0e0" stroke="#999999" points="2072.92,-145.5 2034.92,-145.5 2034.92,-126.5 2072.92,-126.5 2072.92,-145.5"/>
<text text-anchor="middle" x="2053.92" y="-133.5" font-family="Helvetica,sans-Serif" font-size="10.00">map</text>
</a>
</g>
</g>
<!-- Node1&#45;&gt;Node16 -->
<g id="edge52_Node000001_Node000016" class="edge">
<title>Node1&#45;&gt;Node16</title>
<g id="a_edge52_Node000001_Node000016"><a xlink:title=" ">
<path fill="none" stroke="#63b8ff" d="M1927.87,-252.96C1941.67,-242.65 1958.54,-229.56 1972.92,-217 1996.97,-195.99 2022.93,-169.64 2038.8,-153.05"/>
<polygon fill="#63b8ff" stroke="#63b8ff" points="2041.38,-155.42 2045.74,-145.76 2036.31,-150.6 2041.38,-155.42"/>
</a>
</g>
</g>
<!-- Node18 -->
<g id="Node000018" class="node">
<title>Node18</title>
<g id="a_Node000018"><a xlink:title=" ">
<polygon fill="#e0e0e0" stroke="#999999" points="2138.42,-145.5 2091.42,-145.5 2091.42,-126.5 2138.42,-126.5 2138.42,-145.5"/>
<text text-anchor="middle" x="2114.92" y="-133.5" font-family="Helvetica,sans-Serif" font-size="10.00">vector</text>
</a>
</g>
</g>
<!-- Node1&#45;&gt;Node18 -->
<g id="edge58_Node000001_Node000018" class="edge">
<title>Node1&#45;&gt;Node18</title>
<g id="a_edge58_Node000001_Node000018"><a xlink:title=" ">
<path fill="none" stroke="#63b8ff" d="M1940.24,-252.85C1959.74,-242.72 1983.43,-229.83 2003.92,-217 2037.37,-196.06 2074.14,-168.61 2095.85,-151.92"/>
<polygon fill="#63b8ff" stroke="#63b8ff" points="2098.15,-154.56 2103.91,-145.68 2093.86,-149.03 2098.15,-154.56"/>
</a>
</g>
</g>
<!-- Node19 -->
<g id="Node000019" class="node">
<title>Node19</title>
<g id="a_Node000019"><a xlink:href="variable__container_8h.html" target="_top" xlink:title=" ">
<polygon fill="white" stroke="#666666" points="623.92,-217 497.92,-217 497.92,-187 623.92,-187 623.92,-217"/>
<text text-anchor="start" x="505.92" y="-205" font-family="Helvetica,sans-Serif" font-size="10.00">prismspf/core/variable</text>
<text text-anchor="middle" x="560.92" y="-194" font-family="Helvetica,sans-Serif" font-size="10.00">_container.h</text>
</a>
</g>
</g>
<!-- Node1&#45;&gt;Node19 -->
<g id="edge30_Node000001_Node000019" class="edge">
<title>Node1&#45;&gt;Node19</title>
<g id="a_edge30_Node000001_Node000019"><a xlink:title=" ">
<path fill="none" stroke="#63b8ff" d="M1818.83,-269.21C1630.5,-261.5 1152.92,-241.12 753.92,-217 714.55,-214.62 670.7,-211.48 634.75,-208.77"/>
<polygon fill="#63b8ff" stroke="#63b8ff" points="634.59,-205.25 624.35,-207.99 634.06,-212.23 634.59,-205.25"/>
</a>
</g>
</g>
<!-- Node22 -->
<g id="Node000022" class="node">
<title>Node22</title>
<g id="a_Node000022"><a xlink:title=" ">
<polygon fill="#e0e0e0" stroke="#999999" points="216.42,-145.5 147.42,-145.5 147.42,-126.5 216.42,-126.5 216.42,-145.5"/>
<text text-anchor="middle" x="181.92" y="-133.5" font-family="Helvetica,sans-Serif" font-size="10.00">type_traits</text>
</a>
</g>
</g>
<!-- Node1&#45;&gt;Node22 -->
<g id="edge56_Node000001_Node000022" class="edge">
<title>Node1&#45;&gt;Node22</title>
<g id="a_edge56_Node000001_Node000022"><a xlink:title=" ">
<path fill="none" stroke="#63b8ff" d="M1818.53,-271.49C1557.09,-267.92 748.17,-254.1 488.92,-217 388.32,-202.6 273.25,-167.4 216.83,-148.86"/>
<polygon fill="#63b8ff" stroke="#63b8ff" points="217.59,-145.43 207,-145.6 215.39,-152.07 217.59,-145.43"/>
</a>
</g>
</g>
<!-- Node24 -->
<g id="Node000024" class="node">
<title>Node24</title>
<g id="a_Node000024"><a xlink:href="element__volume_8h.html" target="_top" xlink:title=" ">
<polygon fill="white" stroke="#666666" points="1167.42,-217 1056.42,-217 1056.42,-187 1167.42,-187 1167.42,-217"/>
<text text-anchor="start" x="1064.42" y="-205" font-family="Helvetica,sans-Serif" font-size="10.00">prismspf/utilities</text>
<text text-anchor="middle" x="1111.92" y="-194" font-family="Helvetica,sans-Serif" font-size="10.00">/element_volume.h</text>
</a>
</g>
</g>
<!-- Node1&#45;&gt;Node24 -->
<g id="edge42_Node000001_Node000024" class="edge">
<title>Node1&#45;&gt;Node24</title>
<g id="a_edge42_Node000001_Node000024"><a xlink:title=" ">
<path fill="none" stroke="#63b8ff" d="M1818.72,-265.26C1661.46,-251.41 1320.93,-221.41 1177.6,-208.79"/>
<polygon fill="#63b8ff" stroke="#63b8ff" points="1177.9,-205.3 1167.63,-207.91 1177.28,-212.27 1177.9,-205.3"/>
</a>
</g>
</g>
<!-- Node28 -->
<g id="Node000028" class="node">
<title>Node28</title>
<g id="a_Node000028"><a xlink:title=" ">
<polygon fill="#e0e0e0" stroke="#999999" points="2468.92,-211.5 2404.92,-211.5 2404.92,-192.5 2468.92,-192.5 2468.92,-211.5"/>
<text text-anchor="middle" x="2436.92" y="-199.5" font-family="Helvetica,sans-Serif" font-size="10.00">algorithm</text>
</a>
</g>
</g>
<!-- Node1&#45;&gt;Node28 -->
<g id="edge50_Node000001_Node000028" class="edge">
<title>Node1&#45;&gt;Node28</title>
<g id="a_edge50_Node000001_Node000028"><a xlink:title=" ">
<path fill="none" stroke="#63b8ff" d="M1983.28,-268.75C2082.26,-262.98 2252.89,-249.04 2395.92,-217 2398.91,-216.33 2401.98,-215.52 2405.04,-214.63"/>
<polygon fill="#63b8ff" stroke="#63b8ff" points="2406.14,-217.95 2414.62,-211.6 2404.03,-211.28 2406.14,-217.95"/>
</a>
</g>
</g>
<!-- Node29 -->
<g id="Node000029" class="node">
<title>Node29</title>
<g id="a_Node000029"><a xlink:title=" ">
<polygon fill="#e0e0e0" stroke="#999999" points="2552.42,-211.5 2487.42,-211.5 2487.42,-192.5 2552.42,-192.5 2552.42,-211.5"/>
<text text-anchor="middle" x="2519.92" y="-199.5" font-family="Helvetica,sans-Serif" font-size="10.00">functional</text>
</a>
</g>
</g>
<!-- Node1&#45;&gt;Node29 -->
<g id="edge51_Node000001_Node000029" class="edge">
<title>Node1&#45;&gt;Node29</title>
<g id="a_edge51_Node000001_Node000029"><a xlink:title=" ">
<path fill="none" stroke="#63b8ff" d="M1983.02,-270.42C2095.72,-266.25 2304.16,-253.82 2477.92,-217 2481.15,-216.31 2484.49,-215.46 2487.79,-214.52"/>
<polygon fill="#63b8ff" stroke="#63b8ff" points="2489,-217.82 2497.51,-211.51 2486.92,-211.13 2489,-217.82"/>
</a>
</g>
</g>
<!-- Node30 -->
<g id="Node000030" class="node">
<title>Node30</title>
<g id="a_Node000030"><a xlink:title=" ">
<polygon fill="#e0e0e0" stroke="#999999" points="2628.92,-211.5 2570.92,-211.5 2570.92,-192.5 2628.92,-192.5 2628.92,-211.5"/>
<text text-anchor="middle" x="2599.92" y="-199.5" font-family="Helvetica,sans-Serif" font-size="10.00">memory</text>
</a>
</g>
</g>
<!-- Node1&#45;&gt;Node30 -->
<g id="edge53_Node000001_Node000030" class="edge">
<title>Node1&#45;&gt;Node30</title>
<g id="a_edge53_Node000001_Node000030"><a xlink:title=" ">
<path fill="none" stroke="#63b8ff" d="M1983.13,-272.65C2109.2,-271.31 2357.17,-262.44 2561.92,-217 2564.6,-216.41 2567.34,-215.67 2570.06,-214.85"/>
<polygon fill="#63b8ff" stroke="#63b8ff" points="2571.36,-218.1 2579.71,-211.59 2569.12,-211.47 2571.36,-218.1"/>
</a>
</g>
</g>
<!-- Node31 -->
<g id="Node000031" class="node">
<title>Node31</title>
<g id="a_Node000031"><a xlink:title=" ">
<polygon fill="#e0e0e0" stroke="#999999" points="2696.92,-211.5 2646.92,-211.5 2646.92,-192.5 2696.92,-192.5 2696.92,-211.5"/>
<text text-anchor="middle" x="2671.92" y="-199.5" font-family="Helvetica,sans-Serif" font-size="10.00">ranges</text>
</a>
</g>
</g>
<!-- Node1&#45;&gt;Node31 -->
<g id="edge54_Node000001_Node000031" class="edge">
<title>Node1&#45;&gt;Node31</title>
<g id="a_edge54_Node000001_Node000031"><a xlink:title=" ">
<path fill="none" stroke="#63b8ff" d="M1983.24,-269.57C2148.55,-263.14 2515.57,-246.02 2637.92,-217 2640.09,-216.49 2642.3,-215.85 2644.5,-215.14"/>
<polygon fill="#63b8ff" stroke="#63b8ff" points="2645.76,-218.4 2653.92,-211.65 2643.33,-211.84 2645.76,-218.4"/>
</a>
</g>
</g>
<!-- Node32 -->
<g id="Node000032" class="node">
<title>Node32</title>
<g id="a_Node000032"><a xlink:title=" ">
<polygon fill="#e0e0e0" stroke="#999999" points="2866.92,-211.5 2714.92,-211.5 2714.92,-192.5 2866.92,-192.5 2866.92,-211.5"/>
<text text-anchor="middle" x="2790.92" y="-199.5" font-family="Helvetica,sans-Serif" font-size="10.00">core/variable_container.inst</text>
</a>
</g>
</g>
<!-- Node1&#45;&gt;Node32 -->
<g id="edge59_Node000001_Node000032" class="edge">
<title>Node1&#45;&gt;Node32</title>
<g id="a_edge59_Node000001_Node000032"><a xlink:title=" ">
<path fill="none" stroke="#63b8ff" d="M1983.15,-269.4C2129.08,-263.32 2442.76,-247.67 2705.92,-217 2714.98,-215.94 2724.54,-214.6 2733.85,-213.16"/>
<polygon fill="#63b8ff" stroke="#63b8ff" points="2734.5,-216.6 2743.83,-211.57 2733.4,-209.69 2734.5,-216.6"/>
</a>
</g>
</g>
<!-- Node8&#45;&gt;Node2 -->
<g id="edge8_Node000008_Node000002" class="edge">
<title>Node8&#45;&gt;Node2</title>
<g id="a_edge8_Node000008_Node000002"><a xlink:title=" ">
<path fill="none" stroke="#63b8ff" d="M1677.79,-192.37C1656.3,-181.54 1619.22,-162.85 1594.15,-150.22"/>
<polygon fill="#63b8ff" stroke="#63b8ff" points="1595.69,-147.07 1585.18,-145.7 1592.54,-153.32 1595.69,-147.07"/>
</a>
</g>
</g>
<!-- Node8&#45;&gt;Node9 -->
<g id="edge9_Node000008_Node000009" class="edge">
<title>Node8&#45;&gt;Node9</title>
<g id="a_edge9_Node000008_Node000009"><a xlink:title=" ">
<path fill="none" stroke="#63b8ff" d="M1702.88,-192.37C1712.06,-182.4 1727.38,-165.79 1738.84,-153.36"/>
<polygon fill="#63b8ff" stroke="#63b8ff" points="1741.51,-155.63 1745.71,-145.91 1736.36,-150.89 1741.51,-155.63"/>
</a>
</g>
</g>
<!-- Node8&#45;&gt;Node11 -->
<g id="edge16_Node000008_Node000011" class="edge">
<title>Node8&#45;&gt;Node11</title>
<g id="a_edge16_Node000008_Node000011"><a xlink:title=" ">
<path fill="none" stroke="#63b8ff" d="M1692.75,-192.19C1690.36,-182.24 1686.5,-165.53 1683.92,-151 1676.21,-107.53 1669.98,-56 1666.94,-29.04"/>
<polygon fill="#63b8ff" stroke="#63b8ff" points="1670.41,-28.64 1665.83,-19.09 1663.46,-29.42 1670.41,-28.64"/>
</a>
</g>
</g>
<!-- Node9&#45;&gt;Node10 -->
<g id="edge10_Node000009_Node000010" class="edge">
<title>Node9&#45;&gt;Node10</title>
<g id="a_edge10_Node000009_Node000010"><a xlink:title=" ">
<path fill="none" stroke="#63b8ff" d="M1768.35,-126.37C1783.69,-117.2 1808.44,-102.39 1828.49,-90.4"/>
<polygon fill="#63b8ff" stroke="#63b8ff" points="1830.54,-93.25 1837.32,-85.12 1826.94,-87.25 1830.54,-93.25"/>
</a>
</g>
</g>
<!-- Node9&#45;&gt;Node11 -->
<g id="edge14_Node000009_Node000011" class="edge">
<title>Node9&#45;&gt;Node11</title>
<g id="a_edge14_Node000009_Node000011"><a xlink:title=" ">
<path fill="none" stroke="#63b8ff" d="M1747.8,-126.44C1733.26,-106.1 1696.39,-54.53 1677.11,-27.54"/>
<polygon fill="#63b8ff" stroke="#63b8ff" points="1679.74,-25.22 1671.08,-19.12 1674.05,-29.29 1679.74,-25.22"/>
</a>
</g>
</g>
<!-- Node9&#45;&gt;Node14 -->
<g id="edge15_Node000009_Node000014" class="edge">
<title>Node9&#45;&gt;Node14</title>
<g id="a_edge15_Node000009_Node000014"><a xlink:title=" ">
<path fill="none" stroke="#63b8ff" d="M1787.55,-126.46C1822.14,-117.35 1877.38,-101.95 1923.92,-85 1925.31,-84.49 1926.73,-83.96 1928.15,-83.4"/>
<polygon fill="#63b8ff" stroke="#63b8ff" points="1929.57,-86.6 1937.47,-79.55 1926.89,-80.13 1929.57,-86.6"/>
</a>
</g>
</g>
<!-- Node10&#45;&gt;Node11 -->
<g id="edge11_Node000010_Node000011" class="edge">
<title>Node10&#45;&gt;Node11</title>
<g id="a_edge11_Node000010_Node000011"><a xlink:title=" ">
<path fill="none" stroke="#63b8ff" d="M1813.97,-54.99C1780.15,-44.89 1735.07,-31.44 1703.37,-21.98"/>
<polygon fill="#63b8ff" stroke="#63b8ff" points="1704.16,-18.56 1693.58,-19.05 1702.16,-25.27 1704.16,-18.56"/>
</a>
</g>
</g>
<!-- Node12 -->
<g id="Node000012" class="node">
<title>Node12</title>
<g id="a_Node000012"><a xlink:title=" ">
<polygon fill="#e0e0e0" stroke="#999999" points="1885.92,-19 1835.92,-19 1835.92,0 1885.92,0 1885.92,-19"/>
<text text-anchor="middle" x="1860.92" y="-7" font-family="Helvetica,sans-Serif" font-size="10.00">cstdint</text>
</a>
</g>
</g>
<!-- Node10&#45;&gt;Node12 -->
<g id="edge12_Node000010_Node000012" class="edge">
<title>Node10&#45;&gt;Node12</title>
<g id="a_edge12_Node000010_Node000012"><a xlink:title=" ">
<path fill="none" stroke="#63b8ff" d="M1860.92,-54.84C1860.92,-47.21 1860.92,-37.7 1860.92,-29.45"/>
<polygon fill="#63b8ff" stroke="#63b8ff" points="1864.42,-29.27 1860.92,-19.27 1857.42,-29.27 1864.42,-29.27"/>
</a>
</g>
</g>
<!-- Node10&#45;&gt;Node13 -->
<g id="edge13_Node000010_Node000013" class="edge">
<title>Node10&#45;&gt;Node13</title>
<g id="a_edge13_Node000010_Node000013"><a xlink:title=" ">
<path fill="none" stroke="#63b8ff" d="M1895.89,-54.99C1920.25,-45.23 1952.45,-32.33 1975.9,-22.93"/>
<polygon fill="#63b8ff" stroke="#63b8ff" points="1977.38,-26.11 1985.36,-19.14 1974.78,-19.61 1977.38,-26.11"/>
</a>
</g>
</g>
<!-- Node15&#45;&gt;Node2 -->
<g id="edge20_Node000015_Node000002" class="edge">
<title>Node15&#45;&gt;Node2</title>
<g id="a_edge20_Node000015_Node000002"><a xlink:title=" ">
<path fill="none" stroke="#63b8ff" d="M1837.9,-188.89C1775.69,-176.93 1681.56,-158.84 1622.47,-147.48"/>
<polygon fill="#63b8ff" stroke="#63b8ff" points="1623.06,-144.03 1612.58,-145.58 1621.74,-150.91 1623.06,-144.03"/>
</a>
</g>
</g>
<!-- Node15&#45;&gt;Node6 -->
<g id="edge21_Node000015_Node000006" class="edge">
<title>Node15&#45;&gt;Node6</title>
<g id="a_edge21_Node000015_Node000006"><a xlink:title=" ">
<path fill="none" stroke="#63b8ff" d="M1837.8,-192.94C1818.6,-190.72 1797.42,-188.51 1777.92,-187 1393.85,-157.2 1295.62,-185.23 911.92,-151 899.89,-149.93 887.1,-148.44 874.8,-146.84"/>
<polygon fill="#63b8ff" stroke="#63b8ff" points="874.98,-143.34 864.6,-145.48 874.05,-150.27 874.98,-143.34"/>
</a>
</g>
</g>
<!-- Node15&#45;&gt;Node9 -->
<g id="edge23_Node000015_Node000009" class="edge">
<title>Node15&#45;&gt;Node9</title>
<g id="a_edge23_Node000015_Node000009"><a xlink:title=" ">
<path fill="none" stroke="#63b8ff" d="M1868.66,-186.95C1843,-175.78 1807.41,-160.29 1782.7,-149.53"/>
<polygon fill="#63b8ff" stroke="#63b8ff" points="1784.05,-146.3 1773.48,-145.52 1781.26,-152.72 1784.05,-146.3"/>
</a>
</g>
</g>
<!-- Node15&#45;&gt;Node10 -->
<g id="edge22_Node000015_Node000010" class="edge">
<title>Node15&#45;&gt;Node10</title>
<g id="a_edge22_Node000015_Node000010"><a xlink:title=" ">
<path fill="none" stroke="#63b8ff" d="M1919.9,-186.94C1938.92,-171.04 1963.58,-144.33 1949.92,-121 1941.92,-107.32 1928.65,-97.1 1914.77,-89.59"/>
<polygon fill="#63b8ff" stroke="#63b8ff" points="1916.12,-86.35 1905.61,-85.03 1913,-92.62 1916.12,-86.35"/>
</a>
</g>
</g>
<!-- Node15&#45;&gt;Node11 -->
<g id="edge24_Node000015_Node000011" class="edge">
<title>Node15&#45;&gt;Node11</title>
<g id="a_edge24_Node000015_Node000011"><a xlink:title=" ">
<path fill="none" stroke="#63b8ff" d="M1888.88,-186.88C1874.33,-170.23 1848.71,-142.13 1823.92,-121 1778.52,-82.3 1719.65,-44.15 1687.81,-24.39"/>
<polygon fill="#63b8ff" stroke="#63b8ff" points="1689.56,-21.35 1679.21,-19.09 1685.88,-27.31 1689.56,-21.35"/>
</a>
</g>
</g>
<!-- Node15&#45;&gt;Node13 -->
<g id="edge27_Node000015_Node000013" class="edge">
<title>Node15&#45;&gt;Node13</title>
<g id="a_edge27_Node000015_Node000013"><a xlink:title=" ">
<path fill="none" stroke="#63b8ff" d="M1925.89,-186.98C1939.46,-178.22 1955.54,-165.8 1965.92,-151 1992.46,-113.15 2001.99,-58.14 2005.28,-29.47"/>
<polygon fill="#63b8ff" stroke="#63b8ff" points="2008.79,-29.54 2006.31,-19.24 2001.82,-28.84 2008.79,-29.54"/>
</a>
</g>
</g>
<!-- Node15&#45;&gt;Node14 -->
<g id="edge28_Node000015_Node000014" class="edge">
<title>Node15&#45;&gt;Node14</title>
<g id="a_edge28_Node000015_Node000014"><a xlink:title=" ">
<path fill="none" stroke="#63b8ff" d="M1897.33,-186.98C1893.84,-170.43 1890.33,-142.42 1899.92,-121 1906.56,-106.16 1920.03,-93.91 1932.09,-85.25"/>
<polygon fill="#63b8ff" stroke="#63b8ff" points="1934.16,-88.08 1940.5,-79.6 1930.25,-82.27 1934.16,-88.08"/>
</a>
</g>
</g>
<!-- Node15&#45;&gt;Node16 -->
<g id="edge25_Node000015_Node000016" class="edge">
<title>Node15&#45;&gt;Node16</title>
<g id="a_edge25_Node000015_Node000016"><a xlink:title=" ">
<path fill="none" stroke="#63b8ff" d="M1934.83,-186.94C1958.87,-176.95 1991.9,-163.2 2020.92,-151 2022.32,-150.41 2023.75,-149.81 2025.2,-149.2"/>
<polygon fill="#63b8ff" stroke="#63b8ff" points="2026.89,-152.28 2034.74,-145.16 2024.16,-145.84 2026.89,-152.28"/>
</a>
</g>
</g>
<!-- Node17 -->
<g id="Node000017" class="node">
<title>Node17</title>
<g id="a_Node000017"><a xlink:title=" ">
<polygon fill="#e0e0e0" stroke="#999999" points="1940.92,-145.5 1908.92,-145.5 1908.92,-126.5 1940.92,-126.5 1940.92,-145.5"/>
<text text-anchor="middle" x="1924.92" y="-133.5" font-family="Helvetica,sans-Serif" font-size="10.00">set</text>
</a>
</g>
</g>
<!-- Node15&#45;&gt;Node17 -->
<g id="edge26_Node000015_Node000017" class="edge">
<title>Node15&#45;&gt;Node17</title>
<g id="a_edge26_Node000015_Node000017"><a xlink:title=" ">
<path fill="none" stroke="#63b8ff" d="M1906.25,-186.8C1909.73,-177.5 1914.32,-165.27 1918.07,-155.26"/>
<polygon fill="#63b8ff" stroke="#63b8ff" points="1921.37,-156.44 1921.61,-145.84 1914.82,-153.98 1921.37,-156.44"/>
</a>
</g>
</g>
<!-- Node15&#45;&gt;Node18 -->
<g id="edge29_Node000015_Node000018" class="edge">
<title>Node15&#45;&gt;Node18</title>
<g id="a_edge29_Node000015_Node000018"><a xlink:title=" ">
<path fill="none" stroke="#63b8ff" d="M1959.4,-186.93C1995.14,-177.82 2041.59,-165.06 2081.92,-151 2083.35,-150.5 2084.81,-149.97 2086.28,-149.42"/>
<polygon fill="#63b8ff" stroke="#63b8ff" points="2087.91,-152.54 2095.89,-145.58 2085.31,-146.04 2087.91,-152.54"/>
</a>
</g>
</g>
<!-- Node19&#45;&gt;Node2 -->
<g id="edge31_Node000019_Node000002" class="edge">
<title>Node19&#45;&gt;Node2</title>
<g id="a_edge31_Node000019_Node000002"><a xlink:title=" ">
<path fill="none" stroke="#63b8ff" d="M624.16,-200.24C774.54,-197.86 1165.14,-188.27 1488.92,-151 1497.48,-150.02 1506.5,-148.69 1515.28,-147.25"/>
<polygon fill="#63b8ff" stroke="#63b8ff" points="1516.16,-150.65 1525.42,-145.51 1514.97,-143.75 1516.16,-150.65"/>
</a>
</g>
</g>
<!-- Node19&#45;&gt;Node3 -->
<g id="edge32_Node000019_Node000003" class="edge">
<title>Node19&#45;&gt;Node3</title>
<g id="a_edge32_Node000019_Node000003"><a xlink:title=" ">
<path fill="none" stroke="#63b8ff" d="M497.58,-195.46C414.63,-187.76 264.81,-172.33 137.92,-151 132.1,-150.02 126.01,-148.86 120,-147.64"/>
<polygon fill="#63b8ff" stroke="#63b8ff" points="120.52,-144.18 110.02,-145.54 119.08,-151.03 120.52,-144.18"/>
</a>
</g>
</g>
<!-- Node19&#45;&gt;Node6 -->
<g id="edge34_Node000019_Node000006" class="edge">
<title>Node19&#45;&gt;Node6</title>
<g id="a_edge34_Node000019_Node000006"><a xlink:title=" ">
<path fill="none" stroke="#63b8ff" d="M615.57,-186.95C653.92,-177.1 705.35,-163.88 745.67,-153.51"/>
<polygon fill="#63b8ff" stroke="#63b8ff" points="746.59,-156.89 755.41,-151.01 744.85,-150.11 746.59,-156.89"/>
</a>
</g>
</g>
<!-- Node19&#45;&gt;Node7 -->
<g id="edge36_Node000019_Node000007" class="edge">
<title>Node19&#45;&gt;Node7</title>
<g id="a_edge36_Node000019_Node000007"><a xlink:title=" ">
<path fill="none" stroke="#63b8ff" d="M587.91,-186.95C605.54,-177.78 628.75,-165.71 647.94,-155.72"/>
<polygon fill="#63b8ff" stroke="#63b8ff" points="649.74,-158.73 656.99,-151.01 646.51,-152.52 649.74,-158.73"/>
</a>
</g>
</g>
<!-- Node19&#45;&gt;Node9 -->
<g id="edge38_Node000019_Node000009" class="edge">
<title>Node19&#45;&gt;Node9</title>
<g id="a_edge38_Node000019_Node000009"><a xlink:title=" ">
<path fill="none" stroke="#63b8ff" d="M624.12,-198.78C824.69,-191.62 1445.4,-168.59 1645.92,-151 1658.55,-149.89 1671.98,-148.4 1684.92,-146.81"/>
<polygon fill="#63b8ff" stroke="#63b8ff" points="1685.68,-150.24 1695.16,-145.52 1684.8,-143.3 1685.68,-150.24"/>
</a>
</g>
</g>
<!-- Node19&#45;&gt;Node10 -->
<g id="edge37_Node000019_Node000010" class="edge">
<title>Node19&#45;&gt;Node10</title>
<g id="a_edge37_Node000019_Node000010"><a xlink:title=" ">
<path fill="none" stroke="#63b8ff" d="M566.77,-186.93C575.45,-168.07 593.72,-135.29 620.92,-121 673.3,-93.48 1549.2,-76.37 1796.42,-72.07"/>
<polygon fill="#63b8ff" stroke="#63b8ff" points="1796.74,-75.56 1806.68,-71.89 1796.62,-68.57 1796.74,-75.56"/>
</a>
</g>
</g>
<!-- Node19&#45;&gt;Node11 -->
<g id="edge39_Node000019_Node000011" class="edge">
<title>Node19&#45;&gt;Node11</title>
<g id="a_edge39_Node000019_Node000011"><a xlink:title=" ">
<path fill="none" stroke="#63b8ff" d="M497.78,-191.28C433.98,-180.82 343.34,-163.95 332.92,-151 324.56,-140.61 324,-130.91 332.92,-121 418.96,-25.51 1353.85,-12.54 1603.78,-10.78"/>
<polygon fill="#63b8ff" stroke="#63b8ff" points="1604.15,-14.27 1614.12,-10.71 1604.1,-7.27 1604.15,-14.27"/>
</a>
</g>
</g>
<!-- Node20 -->
<g id="Node000020" class="node">
<title>Node20</title>
<g id="a_Node000020"><a xlink:title=" ">
<polygon fill="#e0e0e0" stroke="#999999" points="447.92,-145.5 341.92,-145.5 341.92,-126.5 447.92,-126.5 447.92,-145.5"/>
<text text-anchor="middle" x="394.92" y="-133.5" font-family="Helvetica,sans-Serif" font-size="10.00">deal.II/lac/vector.h</text>
</a>
</g>
</g>
<!-- Node19&#45;&gt;Node20 -->
<g id="edge33_Node000019_Node000020" class="edge">
<title>Node19&#45;&gt;Node20</title>
<g id="a_edge33_Node000019_Node000020"><a xlink:title=" ">
<path fill="none" stroke="#63b8ff" d="M524.49,-186.95C495.25,-175.68 454.61,-160.01 426.68,-149.25"/>
<polygon fill="#63b8ff" stroke="#63b8ff" points="427.6,-145.85 417.01,-145.52 425.08,-152.38 427.6,-145.85"/>
</a>
</g>
</g>
<!-- Node21 -->
<g id="Node000021" class="node">
<title>Node21</title>
<g id="a_Node000021"><a xlink:title=" ">
<polygon fill="#e0e0e0" stroke="#999999" points="573.42,-151 466.42,-151 466.42,-121 573.42,-121 573.42,-151"/>
<text text-anchor="start" x="474.42" y="-139" font-family="Helvetica,sans-Serif" font-size="10.00">deal.II/matrix_free</text>
<text text-anchor="middle" x="519.92" y="-128" font-family="Helvetica,sans-Serif" font-size="10.00">/fe_evaluation.h</text>
</a>
</g>
</g>
<!-- Node19&#45;&gt;Node21 -->
<g id="edge35_Node000019_Node000021" class="edge">
<title>Node19&#45;&gt;Node21</title>
<g id="a_edge35_Node000019_Node000021"><a xlink:title=" ">
<path fill="none" stroke="#63b8ff" d="M551.82,-186.8C546.73,-178.84 540.25,-168.74 534.47,-159.71"/>
<polygon fill="#63b8ff" stroke="#63b8ff" points="537.34,-157.7 529,-151.16 531.44,-161.47 537.34,-157.7"/>
</a>
</g>
</g>
<!-- Node19&#45;&gt;Node22 -->
<g id="edge40_Node000019_Node000022" class="edge">
<title>Node19&#45;&gt;Node22</title>
<g id="a_edge40_Node000019_Node000022"><a xlink:title=" ">
<path fill="none" stroke="#63b8ff" d="M497.78,-194.79C429.8,-187.37 318.78,-173.1 224.92,-151 221.89,-150.29 218.76,-149.46 215.64,-148.56"/>
<polygon fill="#63b8ff" stroke="#63b8ff" points="216.41,-145.14 205.83,-145.57 214.37,-151.84 216.41,-145.14"/>
</a>
</g>
</g>
<!-- Node23 -->
<g id="Node000023" class="node">
<title>Node23</title>
<g id="a_Node000023"><a xlink:title=" ">
<polygon fill="#e0e0e0" stroke="#999999" points="285.42,-145.5 234.42,-145.5 234.42,-126.5 285.42,-126.5 285.42,-145.5"/>
<text text-anchor="middle" x="259.92" y="-133.5" font-family="Helvetica,sans-Serif" font-size="10.00">variant</text>
</a>
</g>
</g>
<!-- Node19&#45;&gt;Node23 -->
<g id="edge41_Node000019_Node000023" class="edge">
<title>Node19&#45;&gt;Node23</title>
<g id="a_edge41_Node000019_Node000023"><a xlink:title=" ">
<path fill="none" stroke="#63b8ff" d="M497.84,-191.59C444.61,-183.02 366.64,-168.96 299.92,-151 297.44,-150.33 294.88,-149.58 292.32,-148.79"/>
<polygon fill="#63b8ff" stroke="#63b8ff" points="293.18,-145.39 282.59,-145.58 290.99,-152.04 293.18,-145.39"/>
</a>
</g>
</g>
<!-- Node24&#45;&gt;Node5 -->
<g id="edge45_Node000024_Node000005" class="edge">
<title>Node24&#45;&gt;Node5</title>
<g id="a_edge45_Node000024_Node000005"><a xlink:title=" ">
<path fill="none" stroke="#63b8ff" d="M1167.57,-188.89C1222.03,-177.03 1304.22,-159.14 1356.46,-147.77"/>
<polygon fill="#63b8ff" stroke="#63b8ff" points="1357.47,-151.13 1366.5,-145.58 1355.98,-144.29 1357.47,-151.13"/>
</a>
</g>
</g>
<!-- Node24&#45;&gt;Node7 -->
<g id="edge47_Node000024_Node000007" class="edge">
<title>Node24&#45;&gt;Node7</title>
<g id="a_edge47_Node000024_Node000007"><a xlink:title=" ">
<path fill="none" stroke="#63b8ff" d="M1056.19,-194.9C986.27,-186.92 862.52,-171.67 747.65,-151.23"/>
<polygon fill="#63b8ff" stroke="#63b8ff" points="748.09,-147.75 737.63,-149.43 746.86,-154.64 748.09,-147.75"/>
</a>
</g>
</g>
<!-- Node24&#45;&gt;Node11 -->
<g id="edge48_Node000024_Node000011" class="edge">
<title>Node24&#45;&gt;Node11</title>
<g id="a_edge48_Node000024_Node000011"><a xlink:title=" ">
<path fill="none" stroke="#63b8ff" d="M1056.24,-190.7C1000.25,-179.78 920.94,-162.55 911.92,-151 903.72,-140.49 903.2,-131.09 911.92,-121 1001.57,-17.23 1440.88,-9.09 1603.89,-9.73"/>
<polygon fill="#63b8ff" stroke="#63b8ff" points="1604.2,-13.23 1614.22,-9.78 1604.24,-6.23 1604.2,-13.23"/>
</a>
</g>
</g>
<!-- Node25 -->
<g id="Node000025" class="node">
<title>Node25</title>
<g id="a_Node000025"><a xlink:title=" ">
<polygon fill="#e0e0e0" stroke="#999999" points="1032.92,-151 920.92,-151 920.92,-121 1032.92,-121 1032.92,-151"/>
<text text-anchor="start" x="928.92" y="-139" font-family="Helvetica,sans-Serif" font-size="10.00">deal.II/base/aligned</text>
<text text-anchor="middle" x="976.92" y="-128" font-family="Helvetica,sans-Serif" font-size="10.00">_vector.h</text>
</a>
</g>
</g>
<!-- Node24&#45;&gt;Node25 -->
<g id="edge43_Node000024_Node000025" class="edge">
<title>Node24&#45;&gt;Node25</title>
<g id="a_edge43_Node000024_Node000025"><a xlink:title=" ">
<path fill="none" stroke="#63b8ff" d="M1082.3,-186.95C1062.69,-177.66 1036.78,-165.38 1015.56,-155.32"/>
<polygon fill="#63b8ff" stroke="#63b8ff" points="1017.01,-152.13 1006.48,-151.01 1014.02,-158.46 1017.01,-152.13"/>
</a>
</g>
</g>
<!-- Node26 -->
<g id="Node000026" class="node">
<title>Node26</title>
<g id="a_Node000026"><a xlink:title=" ">
<polygon fill="#e0e0e0" stroke="#999999" points="1172.42,-151 1051.42,-151 1051.42,-121 1172.42,-121 1172.42,-151"/>
<text text-anchor="start" x="1059.42" y="-139" font-family="Helvetica,sans-Serif" font-size="10.00">deal.II/base/mg_level</text>
<text text-anchor="middle" x="1111.92" y="-128" font-family="Helvetica,sans-Serif" font-size="10.00">_object.h</text>
</a>
</g>
</g>
<!-- Node24&#45;&gt;Node26 -->
<g id="edge44_Node000024_Node000026" class="edge">
<title>Node24&#45;&gt;Node26</title>
<g id="a_edge44_Node000024_Node000026"><a xlink:title=" ">
<path fill="none" stroke="#63b8ff" d="M1111.92,-186.8C1111.92,-179.34 1111.92,-169.99 1111.92,-161.41"/>
<polygon fill="#63b8ff" stroke="#63b8ff" points="1115.42,-161.16 1111.92,-151.16 1108.42,-161.16 1115.42,-161.16"/>
</a>
</g>
</g>
<!-- Node27 -->
<g id="Node000027" class="node">
<title>Node27</title>
<g id="a_Node000027"><a xlink:title=" ">
<polygon fill="#e0e0e0" stroke="#999999" points="1312.92,-145.5 1190.92,-145.5 1190.92,-126.5 1312.92,-126.5 1312.92,-145.5"/>
<text text-anchor="middle" x="1251.92" y="-133.5" font-family="Helvetica,sans-Serif" font-size="10.00">deal.II/fe/fe_system.h</text>
</a>
</g>
</g>
<!-- Node24&#45;&gt;Node27 -->
<g id="edge46_Node000024_Node000027" class="edge">
<title>Node24&#45;&gt;Node27</title>
<g id="a_edge46_Node000024_Node000027"><a xlink:title=" ">
<path fill="none" stroke="#63b8ff" d="M1142.65,-186.95C1166.87,-175.88 1200.38,-160.56 1223.89,-149.82"/>
<polygon fill="#63b8ff" stroke="#63b8ff" points="1225.65,-152.86 1233.29,-145.52 1222.74,-146.49 1225.65,-152.86"/>
</a>
</g>
</g>
</g>
</svg>
