<?xml version="1.0" encoding="UTF-8" standalone="no"?>
<!DOCTYPE svg PUBLIC "-//W3C//DTD SVG 1.1//EN"
 "http://www.w3.org/Graphics/SVG/1.1/DTD/svg11.dtd">
<!-- Generated by graphviz version 2.43.0 (0)
 -->
<!-- Title: /home/runner/work/phaseField/phaseField/src/core/variable_attribute_loader.cc Pages: 1 -->
<svg width="2100pt" height="368pt"
 viewBox="0.00 0.00 2099.50 368.00" xmlns="http://www.w3.org/2000/svg" xmlns:xlink="http://www.w3.org/1999/xlink">
<g id="graph0" class="graph" transform="scale(1 1) rotate(0) translate(4 364)">
<title>/home/runner/work/phaseField/phaseField/src/core/variable_attribute_loader.cc</title>
<!-- Node1 -->
<g id="Node000001" class="node">
<title>Node1</title>
<g id="a_Node000001"><a xlink:title=" ">
<polygon fill="#999999" stroke="#666666" points="844,-360 680,-360 680,-319 844,-319 844,-360"/>
<text text-anchor="start" x="688" y="-348" font-family="Helvetica,sans-Serif" font-size="10.00">/home/runner/work/phaseField</text>
<text text-anchor="start" x="688" y="-337" font-family="Helvetica,sans-Serif" font-size="10.00">/phaseField/src/core/variable</text>
<text text-anchor="middle" x="762" y="-326" font-family="Helvetica,sans-Serif" font-size="10.00">_attribute_loader.cc</text>
</a>
</g>
</g>
<!-- Node2 -->
<g id="Node000002" class="node">
<title>Node2</title>
<g id="a_Node000002"><a xlink:title=" ">
<polygon fill="#e0e0e0" stroke="#999999" points="114,-277.5 0,-277.5 0,-258.5 114,-258.5 114,-277.5"/>
<text text-anchor="middle" x="57" y="-265.5" font-family="Helvetica,sans-Serif" font-size="10.00">deal.II/base/config.h</text>
</a>
</g>
</g>
<!-- Node1&#45;&gt;Node2 -->
<g id="edge1_Node000001_Node000002" class="edge">
<title>Node1&#45;&gt;Node2</title>
<g id="a_edge1_Node000001_Node000002"><a xlink:title=" ">
<path fill="none" stroke="#63b8ff" d="M679.86,-334.13C558.68,-327.06 325.05,-310.97 128,-283 120.9,-281.99 113.44,-280.74 106.13,-279.4"/>
<polygon fill="#63b8ff" stroke="#63b8ff" points="106.78,-275.96 96.3,-277.53 105.48,-282.84 106.78,-275.96"/>
</a>
</g>
</g>
<!-- Node3 -->
<g id="Node000003" class="node">
<title>Node3</title>
<g id="a_Node000003"><a xlink:title=" ">
<polygon fill="#e0e0e0" stroke="#999999" points="524,-145.5 386,-145.5 386,-126.5 524,-126.5 524,-145.5"/>
<text text-anchor="middle" x="455" y="-133.5" font-family="Helvetica,sans-Serif" font-size="10.00">deal.II/base/exceptions.h</text>
</a>
</g>
</g>
<!-- Node1&#45;&gt;Node3 -->
<g id="edge2_Node000001_Node000003" class="edge">
<title>Node1&#45;&gt;Node3</title>
<g id="a_edge2_Node000001_Node000003"><a xlink:title=" ">
<path fill="none" stroke="#63b8ff" d="M679.64,-326.14C644.05,-317.99 603.26,-304.65 571,-283 520.28,-248.96 481.32,-185.79 464.33,-154.92"/>
<polygon fill="#63b8ff" stroke="#63b8ff" points="467.23,-152.94 459.42,-145.78 461.06,-156.24 467.23,-152.94"/>
</a>
</g>
</g>
<!-- Node4 -->
<g id="Node000004" class="node">
<title>Node4</title>
<g id="a_Node000004"><a xlink:title=" ">
<polygon fill="#e0e0e0" stroke="#999999" points="292,-277.5 170,-277.5 170,-258.5 292,-258.5 292,-277.5"/>
<text text-anchor="middle" x="231" y="-265.5" font-family="Helvetica,sans-Serif" font-size="10.00">deal.II/base/utilities.h</text>
</a>
</g>
</g>
<!-- Node1&#45;&gt;Node4 -->
<g id="edge3_Node000001_Node000004" class="edge">
<title>Node1&#45;&gt;Node4</title>
<g id="a_edge3_Node000001_Node000004"><a xlink:title=" ">
<path fill="none" stroke="#63b8ff" d="M679.82,-330.09C588.35,-320.35 436.25,-303.06 306,-283 298.89,-281.9 291.42,-280.64 284.07,-279.34"/>
<polygon fill="#63b8ff" stroke="#63b8ff" points="284.61,-275.88 274.15,-277.54 283.36,-282.77 284.61,-275.88"/>
</a>
</g>
</g>
<!-- Node5 -->
<g id="Node000005" class="node">
<title>Node5</title>
<g id="a_Node000005"><a xlink:title=" ">
<polygon fill="#e0e0e0" stroke="#999999" points="1229.5,-151 1120.5,-151 1120.5,-121 1229.5,-121 1229.5,-151"/>
<text text-anchor="start" x="1128.5" y="-139" font-family="Helvetica,sans-Serif" font-size="10.00">deal.II/matrix_free</text>
<text text-anchor="middle" x="1175" y="-128" font-family="Helvetica,sans-Serif" font-size="10.00">/evaluation_flags.h</text>
</a>
</g>
</g>
<!-- Node1&#45;&gt;Node5 -->
<g id="edge4_Node000001_Node000005" class="edge">
<title>Node1&#45;&gt;Node5</title>
<g id="a_edge4_Node000001_Node000005"><a xlink:title=" ">
<path fill="none" stroke="#63b8ff" d="M844.38,-333.96C932.74,-327.59 1065.81,-313.22 1106,-283 1145.66,-253.18 1163.46,-194.81 1170.67,-161.62"/>
<polygon fill="#63b8ff" stroke="#63b8ff" points="1174.19,-161.9 1172.73,-151.4 1167.32,-160.51 1174.19,-161.9"/>
</a>
</g>
</g>
<!-- Node6 -->
<g id="Node000006" class="node">
<title>Node6</title>
<g id="a_Node000006"><a xlink:href="type__enums_8h.html" target="_top" xlink:title=" ">
<polygon fill="white" stroke="#666666" points="456,-85 348,-85 348,-55 456,-55 456,-85"/>
<text text-anchor="start" x="356" y="-73" font-family="Helvetica,sans-Serif" font-size="10.00">prismspf/core/type</text>
<text text-anchor="middle" x="402" y="-62" font-family="Helvetica,sans-Serif" font-size="10.00">_enums.h</text>
</a>
</g>
</g>
<!-- Node1&#45;&gt;Node6 -->
<g id="edge5_Node000001_Node000006" class="edge">
<title>Node1&#45;&gt;Node6</title>
<g id="a_edge5_Node000001_Node000006"><a xlink:title=" ">
<path fill="none" stroke="#63b8ff" d="M679.95,-336.93C523.57,-333.09 195.29,-320.6 161,-283 88.45,-203.45 262.69,-123.22 352.52,-88.65"/>
<polygon fill="#63b8ff" stroke="#63b8ff" points="353.89,-91.87 361.99,-85.05 351.4,-85.33 353.89,-91.87"/>
</a>
</g>
</g>
<!-- Node7 -->
<g id="Node000007" class="node">
<title>Node7</title>
<g id="a_Node000007"><a xlink:title=" ">
<polygon fill="#e0e0e0" stroke="#999999" points="823.5,-19 722.5,-19 722.5,0 823.5,0 823.5,-19"/>
<text text-anchor="middle" x="773" y="-7" font-family="Helvetica,sans-Serif" font-size="10.00">prismspf/config.h</text>
</a>
</g>
</g>
<!-- Node1&#45;&gt;Node7 -->
<g id="edge44_Node000001_Node000007" class="edge">
<title>Node1&#45;&gt;Node7</title>
<g id="a_edge44_Node000001_Node000007"><a xlink:title=" ">
<path fill="none" stroke="#63b8ff" d="M679.75,-325.55C542.26,-300.38 289.04,-236.87 377,-121 387.86,-106.69 626.58,-46.54 728.03,-21.51"/>
<polygon fill="#63b8ff" stroke="#63b8ff" points="729.11,-24.85 737.98,-19.05 727.43,-18.05 729.11,-24.85"/>
</a>
</g>
</g>
<!-- Node9 -->
<g id="Node000009" class="node">
<title>Node9</title>
<g id="a_Node000009"><a xlink:title=" ">
<polygon fill="#e0e0e0" stroke="#999999" points="351,-19 307,-19 307,0 351,0 351,-19"/>
<text text-anchor="middle" x="329" y="-7" font-family="Helvetica,sans-Serif" font-size="10.00">string</text>
</a>
</g>
</g>
<!-- Node1&#45;&gt;Node9 -->
<g id="edge48_Node000001_Node000009" class="edge">
<title>Node1&#45;&gt;Node9</title>
<g id="a_edge48_Node000001_Node000009"><a xlink:title=" ">
<path fill="none" stroke="#63b8ff" d="M679.94,-336.53C611.96,-332.14 514.33,-319.3 437,-283 346.26,-240.41 340.54,-184.57 329,-85 326.82,-66.16 327.14,-44.46 327.8,-29.36"/>
<polygon fill="#63b8ff" stroke="#63b8ff" points="331.31,-29.43 328.35,-19.25 324.32,-29.05 331.31,-29.43"/>
</a>
</g>
</g>
<!-- Node10 -->
<g id="Node000010" class="node">
<title>Node10</title>
<g id="a_Node000010"><a xlink:href="types_8h.html" target="_top" xlink:title=" ">
<polygon fill="white" stroke="#666666" points="834,-145.5 712,-145.5 712,-126.5 834,-126.5 834,-145.5"/>
<text text-anchor="middle" x="773" y="-133.5" font-family="Helvetica,sans-Serif" font-size="10.00">prismspf/core/types.h</text>
</a>
</g>
</g>
<!-- Node1&#45;&gt;Node10 -->
<g id="edge9_Node000001_Node000010" class="edge">
<title>Node1&#45;&gt;Node10</title>
<g id="a_edge9_Node000001_Node000010"><a xlink:title=" ">
<path fill="none" stroke="#63b8ff" d="M763.07,-318.81C765.19,-280.04 769.87,-194.26 771.96,-156.03"/>
<polygon fill="#63b8ff" stroke="#63b8ff" points="775.47,-155.97 772.52,-145.8 768.48,-155.59 775.47,-155.97"/>
</a>
</g>
</g>
<!-- Node11 -->
<g id="Node000011" class="node">
<title>Node11</title>
<g id="a_Node000011"><a xlink:title=" ">
<polygon fill="#e0e0e0" stroke="#999999" points="909.5,-79.5 864.5,-79.5 864.5,-60.5 909.5,-60.5 909.5,-79.5"/>
<text text-anchor="middle" x="887" y="-67.5" font-family="Helvetica,sans-Serif" font-size="10.00">utility</text>
</a>
</g>
</g>
<!-- Node1&#45;&gt;Node11 -->
<g id="edge49_Node000001_Node000011" class="edge">
<title>Node1&#45;&gt;Node11</title>
<g id="a_edge49_Node000001_Node000011"><a xlink:title=" ">
<path fill="none" stroke="#63b8ff" d="M844.06,-323.21C877.31,-314.66 915.08,-301.83 946,-283 1015.54,-240.67 1042.72,-226.57 1073,-151 1098.22,-88.05 979.8,-74.55 919.91,-71.71"/>
<polygon fill="#63b8ff" stroke="#63b8ff" points="919.93,-68.21 909.8,-71.31 919.65,-75.2 919.93,-68.21"/>
</a>
</g>
</g>
<!-- Node12 -->
<g id="Node000012" class="node">
<title>Node12</title>
<g id="a_Node000012"><a xlink:href="variable__attribute__loader_8h.html" target="_top" xlink:title=" ">
<polygon fill="white" stroke="#666666" points="722,-283 596,-283 596,-253 722,-253 722,-283"/>
<text text-anchor="start" x="604" y="-271" font-family="Helvetica,sans-Serif" font-size="10.00">prismspf/core/variable</text>
<text text-anchor="middle" x="659" y="-260" font-family="Helvetica,sans-Serif" font-size="10.00">_attribute_loader.h</text>
</a>
</g>
</g>
<!-- Node1&#45;&gt;Node12 -->
<g id="edge13_Node000001_Node000012" class="edge">
<title>Node1&#45;&gt;Node12</title>
<g id="a_edge13_Node000001_Node000012"><a xlink:title=" ">
<path fill="none" stroke="#63b8ff" d="M733.03,-318.96C719.04,-309.51 702.28,-298.2 688.25,-288.74"/>
<polygon fill="#63b8ff" stroke="#63b8ff" points="690.16,-285.8 679.92,-283.11 686.25,-291.61 690.16,-285.8"/>
</a>
</g>
</g>
<!-- Node13 -->
<g id="Node000013" class="node">
<title>Node13</title>
<g id="a_Node000013"><a xlink:href="variable__attributes_8h.html" target="_top" xlink:title=" ">
<polygon fill="white" stroke="#666666" points="916,-217 790,-217 790,-187 916,-187 916,-217"/>
<text text-anchor="start" x="798" y="-205" font-family="Helvetica,sans-Serif" font-size="10.00">prismspf/core/variable</text>
<text text-anchor="middle" x="853" y="-194" font-family="Helvetica,sans-Serif" font-size="10.00">_attributes.h</text>
</a>
</g>
</g>
<!-- Node1&#45;&gt;Node13 -->
<g id="edge31_Node000001_Node000013" class="edge">
<title>Node1&#45;&gt;Node13</title>
<g id="a_edge31_Node000001_Node000013"><a xlink:title=" ">
<path fill="none" stroke="#63b8ff" d="M775.23,-318.8C791.81,-294.11 820.17,-251.89 837.67,-225.82"/>
<polygon fill="#63b8ff" stroke="#63b8ff" points="840.71,-227.58 843.38,-217.33 834.9,-223.68 840.71,-227.58"/>
</a>
</g>
</g>
<!-- Node14 -->
<g id="Node000014" class="node">
<title>Node14</title>
<g id="a_Node000014"><a xlink:title=" ">
<polygon fill="#e0e0e0" stroke="#999999" points="618,-145.5 580,-145.5 580,-126.5 618,-126.5 618,-145.5"/>
<text text-anchor="middle" x="599" y="-133.5" font-family="Helvetica,sans-Serif" font-size="10.00">map</text>
</a>
</g>
</g>
<!-- Node1&#45;&gt;Node14 -->
<g id="edge45_Node000001_Node000014" class="edge">
<title>Node1&#45;&gt;Node14</title>
<g id="a_edge45_Node000001_Node000014"><a xlink:title=" ">
<path fill="none" stroke="#63b8ff" d="M679.56,-333.19C645.19,-326.41 608.37,-312.19 587,-283 559.04,-244.8 578.08,-184.96 590.56,-155.15"/>
<polygon fill="#63b8ff" stroke="#63b8ff" points="593.93,-156.18 594.76,-145.62 587.52,-153.36 593.93,-156.18"/>
</a>
</g>
</g>
<!-- Node15 -->
<g id="Node000015" class="node">
<title>Node15</title>
<g id="a_Node000015"><a xlink:title=" ">
<polygon fill="#e0e0e0" stroke="#999999" points="998,-145.5 966,-145.5 966,-126.5 998,-126.5 998,-145.5"/>
<text text-anchor="middle" x="982" y="-133.5" font-family="Helvetica,sans-Serif" font-size="10.00">set</text>
</a>
</g>
</g>
<!-- Node1&#45;&gt;Node15 -->
<g id="edge46_Node000001_Node000015" class="edge">
<title>Node1&#45;&gt;Node15</title>
<g id="a_edge46_Node000001_Node000015"><a xlink:title=" ">
<path fill="none" stroke="#63b8ff" d="M811.53,-318.82C855.09,-299.14 917.27,-264.9 955,-217 969.21,-198.96 976.14,-173.03 979.38,-155.63"/>
<polygon fill="#63b8ff" stroke="#63b8ff" points="982.86,-156.03 981.01,-145.6 975.95,-154.91 982.86,-156.03"/>
</a>
</g>
</g>
<!-- Node16 -->
<g id="Node000016" class="node">
<title>Node16</title>
<g id="a_Node000016"><a xlink:title=" ">
<polygon fill="#e0e0e0" stroke="#999999" points="1063.5,-145.5 1016.5,-145.5 1016.5,-126.5 1063.5,-126.5 1063.5,-145.5"/>
<text text-anchor="middle" x="1040" y="-133.5" font-family="Helvetica,sans-Serif" font-size="10.00">vector</text>
</a>
</g>
</g>
<!-- Node1&#45;&gt;Node16 -->
<g id="edge50_Node000001_Node000016" class="edge">
<title>Node1&#45;&gt;Node16</title>
<g id="a_edge50_Node000001_Node000016"><a xlink:title=" ">
<path fill="none" stroke="#63b8ff" d="M836.81,-318.9C862.51,-310.21 890.67,-298.4 914,-283 966.95,-248.05 1010.55,-184.85 1029.63,-154.37"/>
<polygon fill="#63b8ff" stroke="#63b8ff" points="1032.7,-156.05 1034.94,-145.7 1026.73,-152.39 1032.7,-156.05"/>
</a>
</g>
</g>
<!-- Node17 -->
<g id="Node000017" class="node">
<title>Node17</title>
<g id="a_Node000017"><a xlink:href="utilities_8h.html" target="_top" xlink:title=" ">
<polygon fill="white" stroke="#666666" points="1613.5,-217 1514.5,-217 1514.5,-187 1613.5,-187 1613.5,-217"/>
<text text-anchor="start" x="1522.5" y="-205" font-family="Helvetica,sans-Serif" font-size="10.00">prismspf/utilities</text>
<text text-anchor="middle" x="1564" y="-194" font-family="Helvetica,sans-Serif" font-size="10.00">/utilities.h</text>
</a>
</g>
</g>
<!-- Node1&#45;&gt;Node17 -->
<g id="edge32_Node000001_Node000017" class="edge">
<title>Node1&#45;&gt;Node17</title>
<g id="a_edge32_Node000001_Node000017"><a xlink:title=" ">
<path fill="none" stroke="#63b8ff" d="M844.08,-337.2C923.33,-333.52 1045.49,-321.36 1144,-283 1166.06,-274.41 1165.89,-261.46 1188,-253 1294.18,-212.39 1428.14,-203.81 1504.12,-202.53"/>
<polygon fill="#63b8ff" stroke="#63b8ff" points="1504.5,-206.03 1514.45,-202.4 1504.41,-199.03 1504.5,-206.03"/>
</a>
</g>
</g>
<!-- Node25 -->
<g id="Node000025" class="node">
<title>Node25</title>
<g id="a_Node000025"><a xlink:title=" ">
<polygon fill="#e0e0e0" stroke="#999999" points="1261.5,-277.5 1196.5,-277.5 1196.5,-258.5 1261.5,-258.5 1261.5,-277.5"/>
<text text-anchor="middle" x="1229" y="-265.5" font-family="Helvetica,sans-Serif" font-size="10.00">stdexcept</text>
</a>
</g>
</g>
<!-- Node1&#45;&gt;Node25 -->
<g id="edge47_Node000001_Node000025" class="edge">
<title>Node1&#45;&gt;Node25</title>
<g id="a_edge47_Node000001_Node000025"><a xlink:title=" ">
<path fill="none" stroke="#63b8ff" d="M844.35,-331.5C929.51,-323.36 1066.02,-307.77 1182,-283 1185.63,-282.23 1189.38,-281.31 1193.11,-280.32"/>
<polygon fill="#63b8ff" stroke="#63b8ff" points="1194.16,-283.66 1202.84,-277.59 1192.27,-276.92 1194.16,-283.66"/>
</a>
</g>
</g>
<!-- Node26 -->
<g id="Node000026" class="node">
<title>Node26</title>
<g id="a_Node000026"><a xlink:title=" ">
<polygon fill="#e0e0e0" stroke="#999999" points="1408,-283 1280,-283 1280,-253 1408,-253 1408,-283"/>
<text text-anchor="start" x="1288" y="-271" font-family="Helvetica,sans-Serif" font-size="10.00">core/variable_attribute</text>
<text text-anchor="middle" x="1344" y="-260" font-family="Helvetica,sans-Serif" font-size="10.00">_loader.inst</text>
</a>
</g>
</g>
<!-- Node1&#45;&gt;Node26 -->
<g id="edge51_Node000001_Node000026" class="edge">
<title>Node1&#45;&gt;Node26</title>
<g id="a_edge51_Node000001_Node000026"><a xlink:title=" ">
<path fill="none" stroke="#63b8ff" d="M844.25,-331.59C942.94,-322.84 1113.59,-306.24 1269.7,-283.12"/>
<polygon fill="#63b8ff" stroke="#63b8ff" points="1270.58,-286.52 1279.96,-281.59 1269.55,-279.6 1270.58,-286.52"/>
</a>
</g>
</g>
<!-- Node6&#45;&gt;Node7 -->
<g id="edge6_Node000006_Node000007" class="edge">
<title>Node6&#45;&gt;Node7</title>
<g id="a_edge6_Node000006_Node000007"><a xlink:title=" ">
<path fill="none" stroke="#63b8ff" d="M456.14,-57.56C460.82,-56.66 465.49,-55.79 470,-55 553.65,-40.26 650.9,-26.59 712.19,-18.39"/>
<polygon fill="#63b8ff" stroke="#63b8ff" points="713.01,-21.81 722.46,-17.02 712.09,-14.87 713.01,-21.81"/>
</a>
</g>
</g>
<!-- Node8 -->
<g id="Node000008" class="node">
<title>Node8</title>
<g id="a_Node000008"><a xlink:title=" ">
<polygon fill="#e0e0e0" stroke="#999999" points="427,-19 377,-19 377,0 427,0 427,-19"/>
<text text-anchor="middle" x="402" y="-7" font-family="Helvetica,sans-Serif" font-size="10.00">cstdint</text>
</a>
</g>
</g>
<!-- Node6&#45;&gt;Node8 -->
<g id="edge7_Node000006_Node000008" class="edge">
<title>Node6&#45;&gt;Node8</title>
<g id="a_edge7_Node000006_Node000008"><a xlink:title=" ">
<path fill="none" stroke="#63b8ff" d="M402,-54.84C402,-47.21 402,-37.7 402,-29.45"/>
<polygon fill="#63b8ff" stroke="#63b8ff" points="405.5,-29.27 402,-19.27 398.5,-29.27 405.5,-29.27"/>
</a>
</g>
</g>
<!-- Node6&#45;&gt;Node9 -->
<g id="edge8_Node000006_Node000009" class="edge">
<title>Node6&#45;&gt;Node9</title>
<g id="a_edge8_Node000006_Node000009"><a xlink:title=" ">
<path fill="none" stroke="#63b8ff" d="M384.33,-54.84C373.3,-46 359.11,-34.63 347.87,-25.62"/>
<polygon fill="#63b8ff" stroke="#63b8ff" points="349.93,-22.79 339.94,-19.27 345.55,-28.25 349.93,-22.79"/>
</a>
</g>
</g>
<!-- Node10&#45;&gt;Node6 -->
<g id="edge10_Node000010_Node000006" class="edge">
<title>Node10&#45;&gt;Node6</title>
<g id="a_edge10_Node000010_Node000006"><a xlink:title=" ">
<path fill="none" stroke="#63b8ff" d="M727.81,-126.43C717.99,-124.61 707.65,-122.72 698,-121 618.21,-106.81 526.13,-91.41 466.14,-81.51"/>
<polygon fill="#63b8ff" stroke="#63b8ff" points="466.5,-78.02 456.06,-79.85 465.36,-84.93 466.5,-78.02"/>
</a>
</g>
</g>
<!-- Node10&#45;&gt;Node7 -->
<g id="edge11_Node000010_Node000007" class="edge">
<title>Node10&#45;&gt;Node7</title>
<g id="a_edge11_Node000010_Node000007"><a xlink:title=" ">
<path fill="none" stroke="#63b8ff" d="M773,-126.44C773,-106.54 773,-56.76 773,-29.35"/>
<polygon fill="#63b8ff" stroke="#63b8ff" points="776.5,-29.12 773,-19.12 769.5,-29.12 776.5,-29.12"/>
</a>
</g>
</g>
<!-- Node10&#45;&gt;Node11 -->
<g id="edge12_Node000010_Node000011" class="edge">
<title>Node10&#45;&gt;Node11</title>
<g id="a_edge12_Node000010_Node000011"><a xlink:title=" ">
<path fill="none" stroke="#63b8ff" d="M788.37,-126.37C807.41,-115.68 840.07,-97.35 862.56,-84.72"/>
<polygon fill="#63b8ff" stroke="#63b8ff" points="864.5,-87.65 871.5,-79.7 861.07,-81.54 864.5,-87.65"/>
</a>
</g>
</g>
<!-- Node12&#45;&gt;Node6 -->
<g id="edge14_Node000012_Node000006" class="edge">
<title>Node12&#45;&gt;Node6</title>
<g id="a_edge14_Node000012_Node000006"><a xlink:title=" ">
<path fill="none" stroke="#63b8ff" d="M646.79,-252.8C615.33,-216.24 533.88,-121.62 533,-121 512.95,-106.94 488.42,-96.2 466.04,-88.36"/>
<polygon fill="#63b8ff" stroke="#63b8ff" points="466.86,-84.94 456.26,-85.06 464.62,-91.57 466.86,-84.94"/>
</a>
</g>
</g>
<!-- Node12&#45;&gt;Node7 -->
<g id="edge27_Node000012_Node000007" class="edge">
<title>Node12&#45;&gt;Node7</title>
<g id="a_edge27_Node000012_Node000007"><a xlink:title=" ">
<path fill="none" stroke="#63b8ff" d="M661.91,-252.86C667.69,-226.24 681.87,-167.23 703,-121 719.12,-85.74 744.87,-48.36 760.24,-27.37"/>
<polygon fill="#63b8ff" stroke="#63b8ff" points="763.16,-29.31 766.32,-19.19 757.54,-25.13 763.16,-29.31"/>
</a>
</g>
</g>
<!-- Node12&#45;&gt;Node9 -->
<g id="edge30_Node000012_Node000009" class="edge">
<title>Node12&#45;&gt;Node9</title>
<g id="a_edge30_Node000012_Node000009"><a xlink:title=" ">
<path fill="none" stroke="#63b8ff" d="M595.78,-253.62C534.06,-237.87 440.42,-206.55 377,-151 351.54,-128.7 349.9,-117.04 339,-85 332.77,-66.69 330.4,-44.61 329.51,-29.26"/>
<polygon fill="#63b8ff" stroke="#63b8ff" points="333,-28.85 329.08,-19.01 326,-29.15 333,-28.85"/>
</a>
</g>
</g>
<!-- Node12&#45;&gt;Node10 -->
<g id="edge15_Node000012_Node000010" class="edge">
<title>Node12&#45;&gt;Node10</title>
<g id="a_edge15_Node000012_Node000010"><a xlink:title=" ">
<path fill="none" stroke="#63b8ff" d="M671.42,-252.84C692.67,-228.6 735.92,-179.28 758.52,-153.51"/>
<polygon fill="#63b8ff" stroke="#63b8ff" points="761.37,-155.57 765.33,-145.75 756.1,-150.96 761.37,-155.57"/>
</a>
</g>
</g>
<!-- Node12&#45;&gt;Node13 -->
<g id="edge16_Node000012_Node000013" class="edge">
<title>Node12&#45;&gt;Node13</title>
<g id="a_edge16_Node000012_Node000013"><a xlink:title=" ">
<path fill="none" stroke="#63b8ff" d="M701.57,-252.95C730.76,-243.33 769.67,-230.49 800.74,-220.24"/>
<polygon fill="#63b8ff" stroke="#63b8ff" points="802.13,-223.47 810.53,-217.01 799.93,-216.82 802.13,-223.47"/>
</a>
</g>
</g>
<!-- Node12&#45;&gt;Node14 -->
<g id="edge28_Node000012_Node000014" class="edge">
<title>Node12&#45;&gt;Node14</title>
<g id="a_edge28_Node000012_Node000014"><a xlink:title=" ">
<path fill="none" stroke="#63b8ff" d="M650.8,-252.76C645.23,-242.87 637.84,-229.3 632,-217 622.06,-196.07 612.12,-171.32 605.79,-154.96"/>
<polygon fill="#63b8ff" stroke="#63b8ff" points="609.03,-153.62 602.18,-145.53 602.49,-156.12 609.03,-153.62"/>
</a>
</g>
</g>
<!-- Node12&#45;&gt;Node15 -->
<g id="edge29_Node000012_Node000015" class="edge">
<title>Node12&#45;&gt;Node15</title>
<g id="a_edge29_Node000012_Node000015"><a xlink:title=" ">
<path fill="none" stroke="#63b8ff" d="M722.02,-260.63C789.74,-252.84 892.09,-238.04 925,-217 948.52,-201.97 965.27,-173.45 974.29,-154.84"/>
<polygon fill="#63b8ff" stroke="#63b8ff" points="977.5,-156.22 978.49,-145.67 971.14,-153.3 977.5,-156.22"/>
</a>
</g>
</g>
<!-- Node13&#45;&gt;Node3 -->
<g id="edge17_Node000013_Node000003" class="edge">
<title>Node13&#45;&gt;Node3</title>
<g id="a_edge17_Node000013_Node000003"><a xlink:title=" ">
<path fill="none" stroke="#63b8ff" d="M789.94,-190.86C715.51,-178.89 592.51,-159.11 518.08,-147.14"/>
<polygon fill="#63b8ff" stroke="#63b8ff" points="518.34,-143.64 507.91,-145.51 517.23,-150.55 518.34,-143.64"/>
</a>
</g>
</g>
<!-- Node13&#45;&gt;Node5 -->
<g id="edge18_Node000013_Node000005" class="edge">
<title>Node13&#45;&gt;Node5</title>
<g id="a_edge18_Node000013_Node000005"><a xlink:title=" ">
<path fill="none" stroke="#63b8ff" d="M916.23,-188.43C972.39,-177.27 1054.08,-161.03 1110.59,-149.8"/>
<polygon fill="#63b8ff" stroke="#63b8ff" points="1111.35,-153.22 1120.48,-147.84 1109.99,-146.35 1111.35,-153.22"/>
</a>
</g>
</g>
<!-- Node13&#45;&gt;Node6 -->
<g id="edge19_Node000013_Node000006" class="edge">
<title>Node13&#45;&gt;Node6</title>
<g id="a_edge19_Node000013_Node000006"><a xlink:title=" ">
<path fill="none" stroke="#63b8ff" d="M808.81,-186.97C778.82,-177.27 738.34,-163.85 703,-151 668.87,-138.59 661.72,-131.64 627,-121 573.65,-104.65 511.65,-91.28 466.27,-82.49"/>
<polygon fill="#63b8ff" stroke="#63b8ff" points="466.74,-79.02 456.26,-80.57 465.43,-85.89 466.74,-79.02"/>
</a>
</g>
</g>
<!-- Node13&#45;&gt;Node7 -->
<g id="edge21_Node000013_Node000007" class="edge">
<title>Node13&#45;&gt;Node7</title>
<g id="a_edge21_Node000013_Node000007"><a xlink:title=" ">
<path fill="none" stroke="#63b8ff" d="M868.66,-186.65C896.72,-159.18 949.83,-98.06 918,-55 898.66,-28.84 864.22,-17.57 833.76,-12.9"/>
<polygon fill="#63b8ff" stroke="#63b8ff" points="833.98,-9.4 823.61,-11.56 833.07,-16.34 833.98,-9.4"/>
</a>
</g>
</g>
<!-- Node13&#45;&gt;Node9 -->
<g id="edge24_Node000013_Node000009" class="edge">
<title>Node13&#45;&gt;Node9</title>
<g id="a_edge24_Node000013_Node000009"><a xlink:title=" ">
<path fill="none" stroke="#63b8ff" d="M855.69,-186.85C858.18,-169.11 859.36,-138.85 843,-121 697.12,38.19 579.04,-64.66 368,-19 365.8,-18.52 363.53,-18.03 361.24,-17.53"/>
<polygon fill="#63b8ff" stroke="#63b8ff" points="361.79,-14.07 351.27,-15.37 360.3,-20.91 361.79,-14.07"/>
</a>
</g>
</g>
<!-- Node13&#45;&gt;Node10 -->
<g id="edge20_Node000013_Node000010" class="edge">
<title>Node13&#45;&gt;Node10</title>
<g id="a_edge20_Node000013_Node000010"><a xlink:title=" ">
<path fill="none" stroke="#63b8ff" d="M835.25,-186.8C822.41,-176.53 805.08,-162.67 791.97,-152.18"/>
<polygon fill="#63b8ff" stroke="#63b8ff" points="794.05,-149.36 784.06,-145.84 789.68,-154.82 794.05,-149.36"/>
</a>
</g>
</g>
<!-- Node13&#45;&gt;Node11 -->
<g id="edge25_Node000013_Node000011" class="edge">
<title>Node13&#45;&gt;Node11</title>
<g id="a_edge25_Node000013_Node000011"><a xlink:title=" ">
<path fill="none" stroke="#63b8ff" d="M860.8,-186.99C865.91,-177.2 872.31,-163.66 876,-151 881.94,-130.64 884.7,-106.41 885.97,-89.99"/>
<polygon fill="#63b8ff" stroke="#63b8ff" points="889.49,-89.79 886.65,-79.58 882.5,-89.33 889.49,-89.79"/>
</a>
</g>
</g>
<!-- Node13&#45;&gt;Node14 -->
<g id="edge22_Node000013_Node000014" class="edge">
<title>Node13&#45;&gt;Node14</title>
<g id="a_edge22_Node000013_Node000014"><a xlink:title=" ">
<path fill="none" stroke="#63b8ff" d="M797.26,-186.95C745.13,-173.82 669.33,-154.72 628.2,-144.36"/>
<polygon fill="#63b8ff" stroke="#63b8ff" points="628.84,-140.91 618.28,-141.86 627.13,-147.7 628.84,-140.91"/>
</a>
</g>
</g>
<!-- Node13&#45;&gt;Node15 -->
<g id="edge23_Node000013_Node000015" class="edge">
<title>Node13&#45;&gt;Node15</title>
<g id="a_edge23_Node000013_Node000015"><a xlink:title=" ">
<path fill="none" stroke="#63b8ff" d="M881.31,-186.95C903.82,-175.79 935.03,-160.3 956.71,-149.55"/>
<polygon fill="#63b8ff" stroke="#63b8ff" points="958.53,-152.55 965.93,-144.97 955.42,-146.28 958.53,-152.55"/>
</a>
</g>
</g>
<!-- Node13&#45;&gt;Node16 -->
<g id="edge26_Node000013_Node000016" class="edge">
<title>Node13&#45;&gt;Node16</title>
<g id="a_edge26_Node000013_Node000016"><a xlink:title=" ">
<path fill="none" stroke="#63b8ff" d="M899.87,-186.95C930.57,-177.46 971.45,-164.28 1007,-151 1008.38,-150.48 1009.8,-149.94 1011.22,-149.38"/>
<polygon fill="#63b8ff" stroke="#63b8ff" points="1012.63,-152.59 1020.57,-145.58 1009.99,-146.11 1012.63,-152.59"/>
</a>
</g>
</g>
<!-- Node17&#45;&gt;Node5 -->
<g id="edge36_Node000017_Node000005" class="edge">
<title>Node17&#45;&gt;Node5</title>
<g id="a_edge36_Node000017_Node000005"><a xlink:title=" ">
<path fill="none" stroke="#63b8ff" d="M1514.27,-193.94C1451.25,-184.83 1339.33,-168.11 1244,-151 1242.53,-150.74 1241.05,-150.47 1239.56,-150.19"/>
<polygon fill="#63b8ff" stroke="#63b8ff" points="1240.04,-146.72 1229.57,-148.31 1238.75,-153.6 1240.04,-146.72"/>
</a>
</g>
</g>
<!-- Node17&#45;&gt;Node7 -->
<g id="edge39_Node000017_Node000007" class="edge">
<title>Node17&#45;&gt;Node7</title>
<g id="a_edge39_Node000017_Node000007"><a xlink:title=" ">
<path fill="none" stroke="#63b8ff" d="M1613.73,-200.64C1697.4,-198.29 1852.4,-185.41 1801,-121 1740.34,-44.98 1045.67,-18.48 833.91,-12.14"/>
<polygon fill="#63b8ff" stroke="#63b8ff" points="833.7,-8.63 823.6,-11.83 833.49,-15.63 833.7,-8.63"/>
</a>
</g>
</g>
<!-- Node18 -->
<g id="Node000018" class="node">
<title>Node18</title>
<g id="a_Node000018"><a xlink:title=" ">
<polygon fill="#e0e0e0" stroke="#999999" points="1958,-145.5 1848,-145.5 1848,-126.5 1958,-126.5 1958,-145.5"/>
<text text-anchor="middle" x="1903" y="-133.5" font-family="Helvetica,sans-Serif" font-size="10.00">deal.II/base/point.h</text>
</a>
</g>
</g>
<!-- Node17&#45;&gt;Node18 -->
<g id="edge33_Node000017_Node000018" class="edge">
<title>Node17&#45;&gt;Node18</title>
<g id="a_edge33_Node000017_Node000018"><a xlink:title=" ">
<path fill="none" stroke="#63b8ff" d="M1613.81,-192.04C1668.03,-182.22 1757.25,-165.89 1834,-151 1839.69,-149.9 1845.64,-148.72 1851.55,-147.54"/>
<polygon fill="#63b8ff" stroke="#63b8ff" points="1852.31,-150.96 1861.43,-145.55 1850.93,-144.09 1852.31,-150.96"/>
</a>
</g>
</g>
<!-- Node19 -->
<g id="Node000019" class="node">
<title>Node19</title>
<g id="a_Node000019"><a xlink:title=" ">
<polygon fill="#e0e0e0" stroke="#999999" points="2091.5,-145.5 1976.5,-145.5 1976.5,-126.5 2091.5,-126.5 2091.5,-145.5"/>
<text text-anchor="middle" x="2034" y="-133.5" font-family="Helvetica,sans-Serif" font-size="10.00">deal.II/base/tensor.h</text>
</a>
</g>
</g>
<!-- Node17&#45;&gt;Node19 -->
<g id="edge34_Node000017_Node000019" class="edge">
<title>Node17&#45;&gt;Node19</title>
<g id="a_edge34_Node000017_Node000019"><a xlink:title=" ">
<path fill="none" stroke="#63b8ff" d="M1613.51,-196.19C1689.72,-188.48 1840.25,-172.07 1967,-151 1973.15,-149.98 1979.6,-148.78 1985.96,-147.54"/>
<polygon fill="#63b8ff" stroke="#63b8ff" points="1986.73,-150.95 1995.84,-145.54 1985.34,-144.09 1986.73,-150.95"/>
</a>
</g>
</g>
<!-- Node20 -->
<g id="Node000020" class="node">
<title>Node20</title>
<g id="a_Node000020"><a xlink:title=" ">
<polygon fill="#e0e0e0" stroke="#999999" points="1423.5,-79.5 1274.5,-79.5 1274.5,-60.5 1423.5,-60.5 1423.5,-79.5"/>
<text text-anchor="middle" x="1349" y="-67.5" font-family="Helvetica,sans-Serif" font-size="10.00">deal.II/base/vectorization.h</text>
</a>
</g>
</g>
<!-- Node17&#45;&gt;Node20 -->
<g id="edge35_Node000017_Node000020" class="edge">
<title>Node17&#45;&gt;Node20</title>
<g id="a_edge35_Node000017_Node000020"><a xlink:title=" ">
<path fill="none" stroke="#63b8ff" d="M1514.26,-199.75C1440.28,-196.72 1306.74,-186.37 1277,-151 1256.9,-127.1 1293.72,-100.31 1321.72,-84.59"/>
<polygon fill="#63b8ff" stroke="#63b8ff" points="1323.64,-87.53 1330.78,-79.71 1320.31,-81.37 1323.64,-87.53"/>
</a>
</g>
</g>
<!-- Node21 -->
<g id="Node000021" class="node">
<title>Node21</title>
<g id="a_Node000021"><a xlink:title=" ">
<polygon fill="#e0e0e0" stroke="#999999" points="1432,-145.5 1286,-145.5 1286,-126.5 1432,-126.5 1432,-145.5"/>
<text text-anchor="middle" x="1359" y="-133.5" font-family="Helvetica,sans-Serif" font-size="10.00">boost/range/algorithm.hpp</text>
</a>
</g>
</g>
<!-- Node17&#45;&gt;Node21 -->
<g id="edge37_Node000017_Node000021" class="edge">
<title>Node17&#45;&gt;Node21</title>
<g id="a_edge37_Node000017_Node000021"><a xlink:title=" ">
<path fill="none" stroke="#63b8ff" d="M1519.01,-186.95C1482.11,-175.43 1430.5,-159.32 1395.98,-148.54"/>
<polygon fill="#63b8ff" stroke="#63b8ff" points="1396.87,-145.16 1386.28,-145.52 1394.78,-151.84 1396.87,-145.16"/>
</a>
</g>
</g>
<!-- Node22 -->
<g id="Node000022" class="node">
<title>Node22</title>
<g id="a_Node000022"><a xlink:title=" ">
<polygon fill="#e0e0e0" stroke="#999999" points="1575.5,-151 1450.5,-151 1450.5,-121 1575.5,-121 1575.5,-151"/>
<text text-anchor="start" x="1458.5" y="-139" font-family="Helvetica,sans-Serif" font-size="10.00">boost/range/algorithm</text>
<text text-anchor="middle" x="1513" y="-128" font-family="Helvetica,sans-Serif" font-size="10.00">_ext.hpp</text>
</a>
</g>
</g>
<!-- Node17&#45;&gt;Node22 -->
<g id="edge38_Node000017_Node000022" class="edge">
<title>Node17&#45;&gt;Node22</title>
<g id="a_edge38_Node000017_Node000022"><a xlink:title=" ">
<path fill="none" stroke="#63b8ff" d="M1552.68,-186.8C1546.21,-178.68 1537.95,-168.31 1530.65,-159.15"/>
<polygon fill="#63b8ff" stroke="#63b8ff" points="1533.26,-156.8 1524.29,-151.16 1527.78,-161.17 1533.26,-156.8"/>
</a>
</g>
</g>
<!-- Node23 -->
<g id="Node000023" class="node">
<title>Node23</title>
<g id="a_Node000023"><a xlink:title=" ">
<polygon fill="#e0e0e0" stroke="#999999" points="1636,-145.5 1594,-145.5 1594,-126.5 1636,-126.5 1636,-145.5"/>
<text text-anchor="middle" x="1615" y="-133.5" font-family="Helvetica,sans-Serif" font-size="10.00">array</text>
</a>
</g>
</g>
<!-- Node17&#45;&gt;Node23 -->
<g id="edge40_Node000017_Node000023" class="edge">
<title>Node17&#45;&gt;Node23</title>
<g id="a_edge40_Node000017_Node000023"><a xlink:title=" ">
<path fill="none" stroke="#63b8ff" d="M1575.32,-186.8C1583.11,-177.01 1593.5,-163.98 1601.69,-153.7"/>
<polygon fill="#63b8ff" stroke="#63b8ff" points="1604.46,-155.85 1607.95,-145.84 1598.98,-151.48 1604.46,-155.85"/>
</a>
</g>
</g>
<!-- Node24 -->
<g id="Node000024" class="node">
<title>Node24</title>
<g id="a_Node000024"><a xlink:href="vectorized__operations_8h.html" target="_top" xlink:title=" ">
<polygon fill="white" stroke="#666666" points="1791.5,-151 1654.5,-151 1654.5,-121 1791.5,-121 1791.5,-151"/>
<text text-anchor="start" x="1662.5" y="-139" font-family="Helvetica,sans-Serif" font-size="10.00">prismspf/utilities</text>
<text text-anchor="middle" x="1723" y="-128" font-family="Helvetica,sans-Serif" font-size="10.00">/vectorized_operations.h</text>
</a>
</g>
</g>
<!-- Node17&#45;&gt;Node24 -->
<g id="edge41_Node000017_Node000024" class="edge">
<title>Node17&#45;&gt;Node24</title>
<g id="a_edge41_Node000017_Node000024"><a xlink:title=" ">
<path fill="none" stroke="#63b8ff" d="M1598.89,-186.95C1622.4,-177.49 1653.6,-164.93 1678.84,-154.78"/>
<polygon fill="#63b8ff" stroke="#63b8ff" points="1680.22,-157.99 1688.19,-151.01 1677.6,-151.5 1680.22,-157.99"/>
</a>
</g>
</g>
<!-- Node24&#45;&gt;Node7 -->
<g id="edge43_Node000024_Node000007" class="edge">
<title>Node24&#45;&gt;Node7</title>
<g id="a_edge43_Node000024_Node000007"><a xlink:title=" ">
<path fill="none" stroke="#63b8ff" d="M1682.29,-120.95C1626.71,-102.43 1523.62,-70.39 1433,-55 1214.84,-17.95 951.18,-11.46 834.11,-10.52"/>
<polygon fill="#63b8ff" stroke="#63b8ff" points="833.94,-7.02 823.92,-10.45 833.89,-14.02 833.94,-7.02"/>
</a>
</g>
</g>
<!-- Node24&#45;&gt;Node20 -->
<g id="edge42_Node000024_Node000020" class="edge">
<title>Node24&#45;&gt;Node20</title>
<g id="a_edge42_Node000024_Node000020"><a xlink:title=" ">
<path fill="none" stroke="#63b8ff" d="M1654.1,-122.59C1651.03,-122.05 1647.98,-121.52 1645,-121 1563.95,-106.88 1470.3,-91.16 1410.41,-81.18"/>
<polygon fill="#63b8ff" stroke="#63b8ff" points="1410.8,-77.7 1400.36,-79.51 1409.65,-84.61 1410.8,-77.7"/>
</a>
</g>
</g>
</g>
</svg>
