<?xml version="1.0" encoding="UTF-8" standalone="no"?>
<!DOCTYPE svg PUBLIC "-//W3C//DTD SVG 1.1//EN"
 "http://www.w3.org/Graphics/SVG/1.1/DTD/svg11.dtd">
<!-- Generated by graphviz version 12.2.1 (20241206.2353)
 -->
<!-- Title: /__w/phaseField/phaseField/include/prismspf/core/grid_refiner_criterion.h Pages: 1 -->
<svg width="378pt" height="181pt"
 viewBox="0.00 0.00 378.00 180.50" xmlns="http://www.w3.org/2000/svg" xmlns:xlink="http://www.w3.org/1999/xlink">
<g id="graph0" class="graph" transform="scale(1 1) rotate(0) translate(4 176.5)">
<title>/__w/phaseField/phaseField/include/prismspf/core/grid_refiner_criterion.h</title>
<!-- Node1 -->
<g id="Node000001" class="node">
<title>Node1</title>
<g id="a_Node000001"><a xlink:title=" ">
<polygon fill="#999999" stroke="#666666" points="336.5,-172.5 187.75,-172.5 187.75,-126.25 336.5,-126.25 336.5,-172.5"/>
<text text-anchor="start" x="195.75" y="-159" font-family="Helvetica,sans-Serif" font-size="10.00">/__w/phaseField/phaseField</text>
<text text-anchor="start" x="195.75" y="-146.25" font-family="Helvetica,sans-Serif" font-size="10.00">/include/prismspf/core/grid</text>
<text text-anchor="middle" x="262.12" y="-133.5" font-family="Helvetica,sans-Serif" font-size="10.00">_refiner_criterion.h</text>
</a>
</g>
</g>
<!-- Node2 -->
<g id="Node000002" class="node">
<title>Node2</title>
<g id="a_Node000002"><a xlink:href="types_8h.html" target="_top" xlink:title=" ">
<polygon fill="white" stroke="#666666" points="209,-90.25 87.25,-90.25 87.25,-69.5 209,-69.5 209,-90.25"/>
<text text-anchor="middle" x="148.12" y="-76.75" font-family="Helvetica,sans-Serif" font-size="10.00">prismspf/core/types.h</text>
</a>
</g>
</g>
<!-- Node1&#45;&gt;Node2 -->
<g id="edge1_Node000001_Node000002" class="edge">
<title>Node1&#45;&gt;Node2</title>
<g id="a_edge1_Node000001_Node000002"><a xlink:title=" ">
<path fill="none" stroke="#63b8ff" d="M224.16,-125.9C207.75,-116.18 188.94,-105.04 174.15,-96.28"/>
<polygon fill="#63b8ff" stroke="#63b8ff" points="176.31,-93.49 165.92,-91.41 172.74,-99.52 176.31,-93.49"/>
</a>
</g>
</g>
<!-- Node4 -->
<g id="Node000004" class="node">
<title>Node4</title>
<g id="a_Node000004"><a xlink:title=" ">
<polygon fill="#e0e0e0" stroke="#999999" points="288.12,-27.12 188.12,-27.12 188.12,-6.38 288.12,-6.38 288.12,-27.12"/>
<text text-anchor="middle" x="238.12" y="-13.62" font-family="Helvetica,sans-Serif" font-size="10.00">prismspf/config.h</text>
</a>
</g>
</g>
<!-- Node1&#45;&gt;Node4 -->
<g id="edge5_Node000001_Node000004" class="edge">
<title>Node1&#45;&gt;Node4</title>
<g id="a_edge5_Node000001_Node000004"><a xlink:title=" ">
<path fill="none" stroke="#63b8ff" d="M258,-125.92C253.5,-101.43 246.36,-62.56 241.97,-38.69"/>
<polygon fill="#63b8ff" stroke="#63b8ff" points="245.43,-38.13 240.18,-28.93 238.54,-39.4 245.43,-38.13"/>
</a>
</g>
</g>
<!-- Node6 -->
<g id="Node000006" class="node">
<title>Node6</title>
<g id="a_Node000006"><a xlink:title=" ">
<polygon fill="#e0e0e0" stroke="#999999" points="308.62,-90.25 265.62,-90.25 265.62,-69.5 308.62,-69.5 308.62,-90.25"/>
<text text-anchor="middle" x="287.12" y="-76.75" font-family="Helvetica,sans-Serif" font-size="10.00">cfloat</text>
</a>
</g>
</g>
<!-- Node1&#45;&gt;Node6 -->
<g id="edge6_Node000001_Node000006" class="edge">
<title>Node1&#45;&gt;Node6</title>
<g id="a_edge6_Node000001_Node000006"><a xlink:title=" ">
<path fill="none" stroke="#63b8ff" d="M270.45,-125.9C273.39,-117.95 276.68,-109.06 279.56,-101.3"/>
<polygon fill="#63b8ff" stroke="#63b8ff" points="282.79,-102.65 282.98,-92.06 276.23,-100.22 282.79,-102.65"/>
</a>
</g>
</g>
<!-- Node7 -->
<g id="Node000007" class="node">
<title>Node7</title>
<g id="a_Node000007"><a xlink:title=" ">
<polygon fill="#e0e0e0" stroke="#999999" points="370,-90.25 326.25,-90.25 326.25,-69.5 370,-69.5 370,-90.25"/>
<text text-anchor="middle" x="348.12" y="-76.75" font-family="Helvetica,sans-Serif" font-size="10.00">string</text>
</a>
</g>
</g>
<!-- Node1&#45;&gt;Node7 -->
<g id="edge7_Node000001_Node000007" class="edge">
<title>Node1&#45;&gt;Node7</title>
<g id="a_edge7_Node000001_Node000007"><a xlink:title=" ">
<path fill="none" stroke="#63b8ff" d="M290.76,-125.9C302.55,-116.64 315.97,-106.11 326.86,-97.56"/>
<polygon fill="#63b8ff" stroke="#63b8ff" points="328.79,-100.5 334.49,-91.57 324.47,-95 328.79,-100.5"/>
</a>
</g>
</g>
<!-- Node3 -->
<g id="Node000003" class="node">
<title>Node3</title>
<g id="a_Node000003"><a xlink:title=" ">
<polygon fill="#e0e0e0" stroke="#999999" points="108.25,-33.5 0,-33.5 0,0 108.25,0 108.25,-33.5"/>
<text text-anchor="start" x="8" y="-20" font-family="Helvetica,sans-Serif" font-size="10.00">deal.II/matrix_free</text>
<text text-anchor="middle" x="54.12" y="-7.25" font-family="Helvetica,sans-Serif" font-size="10.00">/evaluation_flags.h</text>
</a>
</g>
</g>
<!-- Node2&#45;&gt;Node3 -->
<g id="edge2_Node000002_Node000003" class="edge">
<title>Node2&#45;&gt;Node3</title>
<g id="a_edge2_Node000002_Node000003"><a xlink:title=" ">
<path fill="none" stroke="#63b8ff" d="M133.02,-69.05C120.99,-61.23 103.67,-49.97 88.33,-39.99"/>
<polygon fill="#63b8ff" stroke="#63b8ff" points="90.65,-37.33 80.36,-34.81 86.84,-43.2 90.65,-37.33"/>
</a>
</g>
</g>
<!-- Node2&#45;&gt;Node4 -->
<g id="edge3_Node000002_Node000004" class="edge">
<title>Node2&#45;&gt;Node4</title>
<g id="a_edge3_Node000002_Node000004"><a xlink:title=" ">
<path fill="none" stroke="#63b8ff" d="M162.59,-69.05C176.49,-59.61 197.77,-45.16 214.2,-34"/>
<polygon fill="#63b8ff" stroke="#63b8ff" points="216.14,-36.91 222.45,-28.4 212.21,-31.12 216.14,-36.91"/>
</a>
</g>
</g>
<!-- Node5 -->
<g id="Node000005" class="node">
<title>Node5</title>
<g id="a_Node000005"><a xlink:title=" ">
<polygon fill="#e0e0e0" stroke="#999999" points="170,-27.12 126.25,-27.12 126.25,-6.38 170,-6.38 170,-27.12"/>
<text text-anchor="middle" x="148.12" y="-13.62" font-family="Helvetica,sans-Serif" font-size="10.00">limits</text>
</a>
</g>
</g>
<!-- Node2&#45;&gt;Node5 -->
<g id="edge4_Node000002_Node000005" class="edge">
<title>Node2&#45;&gt;Node5</title>
<g id="a_edge4_Node000002_Node000005"><a xlink:title=" ">
<path fill="none" stroke="#63b8ff" d="M148.12,-69.05C148.12,-60.9 148.12,-49.01 148.12,-38.73"/>
<polygon fill="#63b8ff" stroke="#63b8ff" points="151.63,-38.86 148.13,-28.86 144.63,-38.86 151.63,-38.86"/>
</a>
</g>
</g>
</g>
</svg>
