<?xml version="1.0" encoding="UTF-8" standalone="no"?>
<!DOCTYPE svg PUBLIC "-//W3C//DTD SVG 1.1//EN"
 "http://www.w3.org/Graphics/SVG/1.1/DTD/svg11.dtd">
<!-- Generated by graphviz version 12.2.1 (20241206.2353)
 -->
<!-- Title: /__w/phaseField/phaseField/include/prismspf/core/initial_conditions.h Pages: 1 -->
<svg width="1029pt" height="535pt"
 viewBox="0.00 0.00 1029.38 535.00" xmlns="http://www.w3.org/2000/svg" xmlns:xlink="http://www.w3.org/1999/xlink">
<g id="graph0" class="graph" transform="scale(1 1) rotate(0) translate(4 531)">
<title>/__w/phaseField/phaseField/include/prismspf/core/initial_conditions.h</title>
<!-- Node1 -->
<g id="Node000001" class="node">
<title>Node1</title>
<g id="a_Node000001"><a xlink:title=" ">
<polygon fill="#999999" stroke="#666666" points="649.38,-527 494.62,-527 494.62,-480.75 649.38,-480.75 649.38,-527"/>
<text text-anchor="start" x="502.62" y="-513.5" font-family="Helvetica,sans-Serif" font-size="10.00">/__w/phaseField/phaseField</text>
<text text-anchor="start" x="502.62" y="-500.75" font-family="Helvetica,sans-Serif" font-size="10.00">/include/prismspf/core/initial</text>
<text text-anchor="middle" x="572" y="-488" font-family="Helvetica,sans-Serif" font-size="10.00">_conditions.h</text>
</a>
</g>
</g>
<!-- Node2 -->
<g id="Node000002" class="node">
<title>Node2</title>
<g id="a_Node000002"><a xlink:href="solver__base_8h.html" target="_top" xlink:title=" ">
<polygon fill="white" stroke="#666666" points="561.38,-444.75 412.62,-444.75 412.62,-398.5 561.38,-398.5 561.38,-444.75"/>
<text text-anchor="start" x="420.62" y="-431.25" font-family="Helvetica,sans-Serif" font-size="10.00">/__w/phaseField/phaseField</text>
<text text-anchor="start" x="420.62" y="-418.5" font-family="Helvetica,sans-Serif" font-size="10.00">/include/prismspf/solvers</text>
<text text-anchor="middle" x="487" y="-405.75" font-family="Helvetica,sans-Serif" font-size="10.00">/solver_base.h</text>
</a>
</g>
</g>
<!-- Node1&#45;&gt;Node2 -->
<g id="edge1_Node000001_Node000002" class="edge">
<title>Node1&#45;&gt;Node2</title>
<g id="a_edge1_Node000001_Node000002"><a xlink:title=" ">
<path fill="none" stroke="#63b8ff" d="M540.06,-472.72C530.38,-463.58 519.91,-453.69 510.85,-445.14"/>
<polygon fill="#63b8ff" stroke="#63b8ff" points="537.55,-475.16 547.22,-479.48 542.35,-470.07 537.55,-475.16"/>
</a>
</g>
</g>
<!-- Node16 -->
<g id="Node000016" class="node">
<title>Node16</title>
<g id="a_Node000016"><a xlink:href="initial__conditions_8cc.html" target="_top" xlink:title=" ">
<polygon fill="white" stroke="#666666" points="736.5,-438.38 579.5,-438.38 579.5,-404.88 736.5,-404.88 736.5,-438.38"/>
<text text-anchor="start" x="587.5" y="-424.88" font-family="Helvetica,sans-Serif" font-size="10.00">/__w/phaseField/phaseField</text>
<text text-anchor="middle" x="658" y="-412.12" font-family="Helvetica,sans-Serif" font-size="10.00">/src/core/initial_conditions.cc</text>
</a>
</g>
</g>
<!-- Node1&#45;&gt;Node16 -->
<g id="edge24_Node000001_Node000016" class="edge">
<title>Node1&#45;&gt;Node16</title>
<g id="a_edge24_Node000001_Node000016"><a xlink:title=" ">
<path fill="none" stroke="#63b8ff" d="M604.26,-472.77C616.64,-461.22 630.27,-448.5 640.71,-438.75"/>
<polygon fill="#63b8ff" stroke="#63b8ff" points="601.99,-470.11 597.06,-479.49 606.76,-475.22 601.99,-470.11"/>
</a>
</g>
</g>
<!-- Node3 -->
<g id="Node000003" class="node">
<title>Node3</title>
<g id="a_Node000003"><a xlink:href="refinement__manager_8h.html" target="_top" xlink:title=" ">
<polygon fill="white" stroke="#666666" points="242.12,-362.5 61.88,-362.5 61.88,-316.25 242.12,-316.25 242.12,-362.5"/>
<text text-anchor="start" x="69.88" y="-349" font-family="Helvetica,sans-Serif" font-size="10.00">/__w/phaseField/phaseField</text>
<text text-anchor="start" x="69.88" y="-336.25" font-family="Helvetica,sans-Serif" font-size="10.00">/include/prismspf/core/refinement</text>
<text text-anchor="middle" x="152" y="-323.5" font-family="Helvetica,sans-Serif" font-size="10.00">_manager.h</text>
</a>
</g>
</g>
<!-- Node2&#45;&gt;Node3 -->
<g id="edge2_Node000002_Node000003" class="edge">
<title>Node2&#45;&gt;Node3</title>
<g id="a_edge2_Node000002_Node000003"><a xlink:title=" ">
<path fill="none" stroke="#63b8ff" d="M401.1,-400.05C352.46,-388.4 291.68,-373.83 242.33,-362.01"/>
<polygon fill="#63b8ff" stroke="#63b8ff" points="400.22,-403.44 410.76,-402.36 401.86,-396.63 400.22,-403.44"/>
</a>
</g>
</g>
<!-- Node5 -->
<g id="Node000005" class="node">
<title>Node5</title>
<g id="a_Node000005"><a xlink:href="problem_8cc.html" target="_top" xlink:title=" ">
<polygon fill="white" stroke="#666666" points="306.38,-33.5 157.62,-33.5 157.62,0 306.38,0 306.38,-33.5"/>
<text text-anchor="start" x="165.62" y="-20" font-family="Helvetica,sans-Serif" font-size="10.00">/__w/phaseField/phaseField</text>
<text text-anchor="middle" x="232" y="-7.25" font-family="Helvetica,sans-Serif" font-size="10.00">/src/core/problem.cc</text>
</a>
</g>
</g>
<!-- Node2&#45;&gt;Node5 -->
<g id="edge22_Node000002_Node000005" class="edge">
<title>Node2&#45;&gt;Node5</title>
<g id="a_edge22_Node000002_Node000005"><a xlink:title=" ">
<path fill="none" stroke="#63b8ff" d="M401,-418.43C290.76,-414.06 107.34,-401.05 53,-362.5 10.57,-332.4 0,-310.15 0,-258.12 0,-258.12 0,-258.12 0,-173.88 0,-95.59 92.05,-53.98 160.18,-33.91"/>
<polygon fill="#63b8ff" stroke="#63b8ff" points="400.78,-421.93 410.91,-418.81 401.05,-414.93 400.78,-421.93"/>
</a>
</g>
</g>
<!-- Node7 -->
<g id="Node000007" class="node">
<title>Node7</title>
<g id="a_Node000007"><a xlink:href="constant__solver_8h.html" target="_top" xlink:title=" ">
<polygon fill="white" stroke="#666666" points="877.38,-198 728.62,-198 728.62,-151.75 877.38,-151.75 877.38,-198"/>
<text text-anchor="start" x="736.62" y="-184.5" font-family="Helvetica,sans-Serif" font-size="10.00">/__w/phaseField/phaseField</text>
<text text-anchor="start" x="736.62" y="-171.75" font-family="Helvetica,sans-Serif" font-size="10.00">/include/prismspf/solvers</text>
<text text-anchor="middle" x="803" y="-159" font-family="Helvetica,sans-Serif" font-size="10.00">/constant_solver.h</text>
</a>
</g>
</g>
<!-- Node2&#45;&gt;Node7 -->
<g id="edge6_Node000002_Node000007" class="edge">
<title>Node2&#45;&gt;Node7</title>
<g id="a_edge6_Node000002_Node000007"><a xlink:title=" ">
<path fill="none" stroke="#63b8ff" d="M572.63,-397.62C663.7,-371.14 798.42,-325.45 826,-280.25 841.47,-254.91 828.62,-220.47 816.8,-198.21"/>
<polygon fill="#63b8ff" stroke="#63b8ff" points="571.84,-394.21 563.2,-400.34 573.78,-400.93 571.84,-394.21"/>
</a>
</g>
</g>
<!-- Node10 -->
<g id="Node000010" class="node">
<title>Node10</title>
<g id="a_Node000010"><a xlink:href="explicit__solver_8h.html" target="_top" xlink:title=" ">
<polygon fill="white" stroke="#666666" points="817.38,-280.25 668.62,-280.25 668.62,-234 817.38,-234 817.38,-280.25"/>
<text text-anchor="start" x="676.62" y="-266.75" font-family="Helvetica,sans-Serif" font-size="10.00">/__w/phaseField/phaseField</text>
<text text-anchor="start" x="676.62" y="-254" font-family="Helvetica,sans-Serif" font-size="10.00">/include/prismspf/solvers</text>
<text text-anchor="middle" x="743" y="-241.25" font-family="Helvetica,sans-Serif" font-size="10.00">/explicit_solver.h</text>
</a>
</g>
</g>
<!-- Node2&#45;&gt;Node10 -->
<g id="edge10_Node000002_Node000010" class="edge">
<title>Node2&#45;&gt;Node10</title>
<g id="a_edge10_Node000002_Node000010"><a xlink:title=" ">
<path fill="none" stroke="#63b8ff" d="M560.72,-393.69C581.21,-384.93 603.03,-374.37 622,-362.5 660.1,-338.66 698.43,-303.19 721.45,-280.36"/>
<polygon fill="#63b8ff" stroke="#63b8ff" points="559.43,-390.43 551.55,-397.51 562.12,-396.89 559.43,-390.43"/>
</a>
</g>
</g>
<!-- Node11 -->
<g id="Node000011" class="node">
<title>Node11</title>
<g id="a_Node000011"><a xlink:href="linear__solver_8h.html" target="_top" xlink:title=" ">
<polygon fill="white" stroke="#666666" points="446.38,-280.25 297.62,-280.25 297.62,-234 446.38,-234 446.38,-280.25"/>
<text text-anchor="start" x="305.62" y="-266.75" font-family="Helvetica,sans-Serif" font-size="10.00">/__w/phaseField/phaseField</text>
<text text-anchor="start" x="305.62" y="-254" font-family="Helvetica,sans-Serif" font-size="10.00">/include/prismspf/solvers</text>
<text text-anchor="middle" x="372" y="-241.25" font-family="Helvetica,sans-Serif" font-size="10.00">/linear_solver.h</text>
</a>
</g>
</g>
<!-- Node2&#45;&gt;Node11 -->
<g id="edge12_Node000002_Node000011" class="edge">
<title>Node2&#45;&gt;Node11</title>
<g id="a_edge12_Node000002_Node000011"><a xlink:title=" ">
<path fill="none" stroke="#63b8ff" d="M464.4,-388.69C441.83,-356.79 407.7,-308.57 387.85,-280.53"/>
<polygon fill="#63b8ff" stroke="#63b8ff" points="461.5,-390.65 470.14,-396.79 467.22,-386.61 461.5,-390.65"/>
</a>
</g>
</g>
<!-- Node12 -->
<g id="Node000012" class="node">
<title>Node12</title>
<g id="a_Node000012"><a xlink:href="newton__solver_8h.html" target="_top" xlink:title=" ">
<polygon fill="white" stroke="#666666" points="548.38,-198 399.62,-198 399.62,-151.75 548.38,-151.75 548.38,-198"/>
<text text-anchor="start" x="407.62" y="-184.5" font-family="Helvetica,sans-Serif" font-size="10.00">/__w/phaseField/phaseField</text>
<text text-anchor="start" x="407.62" y="-171.75" font-family="Helvetica,sans-Serif" font-size="10.00">/include/prismspf/solvers</text>
<text text-anchor="middle" x="474" y="-159" font-family="Helvetica,sans-Serif" font-size="10.00">/newton_solver.h</text>
</a>
</g>
</g>
<!-- Node2&#45;&gt;Node12 -->
<g id="edge21_Node000002_Node000012" class="edge">
<title>Node2&#45;&gt;Node12</title>
<g id="a_edge21_Node000002_Node000012"><a xlink:title=" ">
<path fill="none" stroke="#63b8ff" d="M419.85,-393.2C373.83,-370.42 316.34,-333.15 289,-280.25 279.56,-261.99 276.84,-250.57 289,-234 314.2,-199.67 359.67,-185.07 399.22,-179.09"/>
<polygon fill="#63b8ff" stroke="#63b8ff" points="418.19,-396.28 428.71,-397.46 421.22,-389.97 418.19,-396.28"/>
</a>
</g>
</g>
<!-- Node13 -->
<g id="Node000013" class="node">
<title>Node13</title>
<g id="a_Node000013"><a xlink:href="mf__operator_8h.html" target="_top" xlink:title=" ">
<polygon fill="white" stroke="#666666" points="613.38,-362.5 464.62,-362.5 464.62,-316.25 613.38,-316.25 613.38,-362.5"/>
<text text-anchor="start" x="472.62" y="-349" font-family="Helvetica,sans-Serif" font-size="10.00">/__w/phaseField/phaseField</text>
<text text-anchor="start" x="472.62" y="-336.25" font-family="Helvetica,sans-Serif" font-size="10.00">/include/prismspf/solvers</text>
<text text-anchor="middle" x="539" y="-323.5" font-family="Helvetica,sans-Serif" font-size="10.00">/mf_operator.h</text>
</a>
</g>
</g>
<!-- Node2&#45;&gt;Node13 -->
<g id="edge16_Node000002_Node000013" class="edge">
<title>Node2&#45;&gt;Node13</title>
<g id="a_edge16_Node000002_Node000013"><a xlink:title=" ">
<path fill="none" stroke="#63b8ff" d="M507.62,-388.8C513.24,-380.13 519.21,-370.92 524.41,-362.89"/>
<polygon fill="#63b8ff" stroke="#63b8ff" points="504.81,-386.71 502.31,-397 510.68,-390.51 504.81,-386.71"/>
</a>
</g>
</g>
<!-- Node15 -->
<g id="Node000015" class="node">
<title>Node15</title>
<g id="a_Node000015"><a xlink:href="solver__base_8cc.html" target="_top" xlink:title=" ">
<polygon fill="white" stroke="#666666" points="1021.38,-356.12 872.62,-356.12 872.62,-322.62 1021.38,-322.62 1021.38,-356.12"/>
<text text-anchor="start" x="880.62" y="-342.62" font-family="Helvetica,sans-Serif" font-size="10.00">/__w/phaseField/phaseField</text>
<text text-anchor="middle" x="947" y="-329.88" font-family="Helvetica,sans-Serif" font-size="10.00">/src/solvers/solver_base.cc</text>
</a>
</g>
</g>
<!-- Node2&#45;&gt;Node15 -->
<g id="edge23_Node000002_Node000015" class="edge">
<title>Node2&#45;&gt;Node15</title>
<g id="a_edge23_Node000002_Node000015"><a xlink:title=" ">
<path fill="none" stroke="#63b8ff" d="M572.48,-398.36C699.61,-374.66 735.68,-385.62 859,-362.5 867.98,-360.82 877.41,-358.76 886.62,-356.59"/>
<polygon fill="#63b8ff" stroke="#63b8ff" points="572.19,-394.85 563.02,-400.16 573.5,-401.73 572.19,-394.85"/>
</a>
</g>
</g>
<!-- Node4 -->
<g id="Node000004" class="node">
<title>Node4</title>
<g id="a_Node000004"><a xlink:href="problem_8h.html" target="_top" xlink:title=" ">
<polygon fill="white" stroke="#666666" points="320.25,-109.38 143.75,-109.38 143.75,-75.88 320.25,-75.88 320.25,-109.38"/>
<text text-anchor="start" x="151.75" y="-95.88" font-family="Helvetica,sans-Serif" font-size="10.00">/__w/phaseField/phaseField</text>
<text text-anchor="middle" x="232" y="-83.12" font-family="Helvetica,sans-Serif" font-size="10.00">/include/prismspf/core/problem.h</text>
</a>
</g>
</g>
<!-- Node3&#45;&gt;Node4 -->
<g id="edge3_Node000003_Node000004" class="edge">
<title>Node3&#45;&gt;Node4</title>
<g id="a_edge3_Node000003_Node000004"><a xlink:title=" ">
<path fill="none" stroke="#63b8ff" d="M191.95,-308.25C200.21,-300.08 207.93,-290.6 213,-280.25 241.15,-222.78 237.28,-143.58 233.96,-109.87"/>
<polygon fill="#63b8ff" stroke="#63b8ff" points="189.67,-305.58 184.69,-314.93 194.42,-310.73 189.67,-305.58"/>
</a>
</g>
</g>
<!-- Node6 -->
<g id="Node000006" class="node">
<title>Node6</title>
<g id="a_Node000006"><a xlink:href="refinement__manager_8cc.html" target="_top" xlink:title=" ">
<polygon fill="white" stroke="#666666" points="203.5,-273.88 28.5,-273.88 28.5,-240.38 203.5,-240.38 203.5,-273.88"/>
<text text-anchor="start" x="36.5" y="-260.38" font-family="Helvetica,sans-Serif" font-size="10.00">/__w/phaseField/phaseField</text>
<text text-anchor="middle" x="116" y="-247.62" font-family="Helvetica,sans-Serif" font-size="10.00">/src/core/refinement_manager.cc</text>
</a>
</g>
</g>
<!-- Node3&#45;&gt;Node6 -->
<g id="edge5_Node000003_Node000006" class="edge">
<title>Node3&#45;&gt;Node6</title>
<g id="a_edge5_Node000003_Node000006"><a xlink:title=" ">
<path fill="none" stroke="#63b8ff" d="M137.29,-305.59C132.45,-294.78 127.27,-283.25 123.24,-274.25"/>
<polygon fill="#63b8ff" stroke="#63b8ff" points="134.07,-306.95 141.35,-314.64 140.45,-304.08 134.07,-306.95"/>
</a>
</g>
</g>
<!-- Node4&#45;&gt;Node5 -->
<g id="edge4_Node000004_Node000005" class="edge">
<title>Node4&#45;&gt;Node5</title>
<g id="a_edge4_Node000004_Node000005"><a xlink:title=" ">
<path fill="none" stroke="#63b8ff" d="M232,-64.24C232,-53.97 232,-42.65 232,-33.75"/>
<polygon fill="#63b8ff" stroke="#63b8ff" points="228.5,-64.08 232,-74.08 235.5,-64.08 228.5,-64.08"/>
</a>
</g>
</g>
<!-- Node8 -->
<g id="Node000008" class="node">
<title>Node8</title>
<g id="a_Node000008"><a xlink:href="solvers_8h.html" target="_top" xlink:title=" ">
<polygon fill="white" stroke="#666666" points="548.38,-115.75 399.62,-115.75 399.62,-69.5 548.38,-69.5 548.38,-115.75"/>
<text text-anchor="start" x="407.62" y="-102.25" font-family="Helvetica,sans-Serif" font-size="10.00">/__w/phaseField/phaseField</text>
<text text-anchor="start" x="407.62" y="-89.5" font-family="Helvetica,sans-Serif" font-size="10.00">/include/prismspf/solvers</text>
<text text-anchor="middle" x="474" y="-76.75" font-family="Helvetica,sans-Serif" font-size="10.00">/solvers.h</text>
</a>
</g>
</g>
<!-- Node7&#45;&gt;Node8 -->
<g id="edge7_Node000007_Node000008" class="edge">
<title>Node7&#45;&gt;Node8</title>
<g id="a_edge7_Node000007_Node000008"><a xlink:title=" ">
<path fill="none" stroke="#63b8ff" d="M717.4,-153C665.09,-140.24 598.82,-124.07 548.64,-111.83"/>
<polygon fill="#63b8ff" stroke="#63b8ff" points="716.33,-156.34 726.87,-155.31 717.99,-149.54 716.33,-156.34"/>
</a>
</g>
</g>
<!-- Node8&#45;&gt;Node5 -->
<g id="edge8_Node000008_Node000005" class="edge">
<title>Node8&#45;&gt;Node5</title>
<g id="a_edge8_Node000008_Node000005"><a xlink:title=" ">
<path fill="none" stroke="#63b8ff" d="M389.47,-65.82C354.78,-55.23 315.69,-43.3 285.13,-33.97"/>
<polygon fill="#63b8ff" stroke="#63b8ff" points="388.04,-69.04 398.63,-68.62 390.09,-62.35 388.04,-69.04"/>
</a>
</g>
</g>
<!-- Node9 -->
<g id="Node000009" class="node">
<title>Node9</title>
<g id="a_Node000009"><a xlink:href="solvers_8cc.html" target="_top" xlink:title=" ">
<polygon fill="white" stroke="#666666" points="548.38,-33.5 399.62,-33.5 399.62,0 548.38,0 548.38,-33.5"/>
<text text-anchor="start" x="407.62" y="-20" font-family="Helvetica,sans-Serif" font-size="10.00">/__w/phaseField/phaseField</text>
<text text-anchor="middle" x="474" y="-7.25" font-family="Helvetica,sans-Serif" font-size="10.00">/src/solvers/solvers.cc</text>
</a>
</g>
</g>
<!-- Node8&#45;&gt;Node9 -->
<g id="edge9_Node000008_Node000009" class="edge">
<title>Node8&#45;&gt;Node9</title>
<g id="a_edge9_Node000008_Node000009"><a xlink:title=" ">
<path fill="none" stroke="#63b8ff" d="M474,-57.64C474,-49.35 474,-40.86 474,-33.85"/>
<polygon fill="#63b8ff" stroke="#63b8ff" points="470.5,-57.55 474,-67.55 477.5,-57.55 470.5,-57.55"/>
</a>
</g>
</g>
<!-- Node10&#45;&gt;Node8 -->
<g id="edge11_Node000010_Node000008" class="edge">
<title>Node10&#45;&gt;Node8</title>
<g id="a_edge11_Node000010_Node000008"><a xlink:title=" ">
<path fill="none" stroke="#63b8ff" d="M695.83,-227.63C643.23,-195.85 559.21,-145.1 511.09,-116.03"/>
<polygon fill="#63b8ff" stroke="#63b8ff" points="693.93,-230.57 704.3,-232.75 697.55,-224.58 693.93,-230.57"/>
</a>
</g>
</g>
<!-- Node11&#45;&gt;Node8 -->
<g id="edge15_Node000011_Node000008" class="edge">
<title>Node11&#45;&gt;Node8</title>
<g id="a_edge15_Node000011_Node000008"><a xlink:title=" ">
<path fill="none" stroke="#63b8ff" d="M371.73,-222.24C373.03,-200.57 377.58,-172.68 391,-151.75 400.3,-137.24 414.65,-125.32 428.81,-116.13"/>
<polygon fill="#63b8ff" stroke="#63b8ff" points="368.24,-221.93 371.36,-232.05 375.23,-222.19 368.24,-221.93"/>
</a>
</g>
</g>
<!-- Node11&#45;&gt;Node12 -->
<g id="edge13_Node000011_Node000012" class="edge">
<title>Node11&#45;&gt;Node12</title>
<g id="a_edge13_Node000011_Node000012"><a xlink:title=" ">
<path fill="none" stroke="#63b8ff" d="M409.53,-226.6C421.43,-217.24 434.38,-207.05 445.53,-198.27"/>
<polygon fill="#63b8ff" stroke="#63b8ff" points="407.57,-223.69 401.87,-232.62 411.9,-229.19 407.57,-223.69"/>
</a>
</g>
</g>
<!-- Node12&#45;&gt;Node8 -->
<g id="edge14_Node000012_Node000008" class="edge">
<title>Node12&#45;&gt;Node8</title>
<g id="a_edge14_Node000012_Node000008"><a xlink:title=" ">
<path fill="none" stroke="#63b8ff" d="M474,-140.09C474,-132 474,-123.57 474,-116.14"/>
<polygon fill="#63b8ff" stroke="#63b8ff" points="470.5,-140.01 474,-150.01 477.5,-140.01 470.5,-140.01"/>
</a>
</g>
</g>
<!-- Node13&#45;&gt;Node10 -->
<g id="edge17_Node000013_Node000010" class="edge">
<title>Node13&#45;&gt;Node10</title>
<g id="a_edge17_Node000013_Node000010"><a xlink:title=" ">
<path fill="none" stroke="#63b8ff" d="M607.08,-311.59C632.58,-301.56 661.28,-290.27 685.71,-280.66"/>
<polygon fill="#63b8ff" stroke="#63b8ff" points="605.8,-308.34 597.78,-315.25 608.36,-314.85 605.8,-308.34"/>
</a>
</g>
</g>
<!-- Node13&#45;&gt;Node11 -->
<g id="edge18_Node000013_Node000011" class="edge">
<title>Node13&#45;&gt;Node11</title>
<g id="a_edge18_Node000013_Node000011"><a xlink:title=" ">
<path fill="none" stroke="#63b8ff" d="M481.87,-310.92C461.34,-301.06 438.45,-290.06 418.9,-280.66"/>
<polygon fill="#63b8ff" stroke="#63b8ff" points="480.14,-313.98 490.67,-315.15 483.18,-307.67 480.14,-313.98"/>
</a>
</g>
</g>
<!-- Node13&#45;&gt;Node12 -->
<g id="edge19_Node000013_Node000012" class="edge">
<title>Node13&#45;&gt;Node12</title>
<g id="a_edge19_Node000013_Node000012"><a xlink:title=" ">
<path fill="none" stroke="#63b8ff" d="M596.31,-309.35C606.65,-301.39 616.03,-291.72 622,-280.25 631.49,-262.02 633.58,-250.99 622,-234 605.29,-209.48 576.51,-195.3 548.75,-187.11"/>
<polygon fill="#63b8ff" stroke="#63b8ff" points="594.42,-306.41 588.27,-315.04 598.46,-312.12 594.42,-306.41"/>
</a>
</g>
</g>
<!-- Node14 -->
<g id="Node000014" class="node">
<title>Node14</title>
<g id="a_Node000014"><a xlink:href="mf__operator_8cc.html" target="_top" xlink:title=" ">
<polygon fill="white" stroke="#666666" points="613.38,-273.88 464.62,-273.88 464.62,-240.38 613.38,-240.38 613.38,-273.88"/>
<text text-anchor="start" x="472.62" y="-260.38" font-family="Helvetica,sans-Serif" font-size="10.00">/__w/phaseField/phaseField</text>
<text text-anchor="middle" x="539" y="-247.62" font-family="Helvetica,sans-Serif" font-size="10.00">/src/solvers/mf_operator.cc</text>
</a>
</g>
</g>
<!-- Node13&#45;&gt;Node14 -->
<g id="edge20_Node000013_Node000014" class="edge">
<title>Node13&#45;&gt;Node14</title>
<g id="a_edge20_Node000013_Node000014"><a xlink:title=" ">
<path fill="none" stroke="#63b8ff" d="M539,-304.57C539,-294.07 539,-282.97 539,-274.25"/>
<polygon fill="#63b8ff" stroke="#63b8ff" points="535.5,-304.51 539,-314.51 542.5,-304.51 535.5,-304.51"/>
</a>
</g>
</g>
</g>
</svg>
